<?xml version="1.0" standalone="no"?>
<!DOCTYPE svg PUBLIC "-//W3C//DTD SVG 1.1//EN" "http://www.w3.org/Graphics/SVG/1.1/DTD/svg11.dtd" >
<svg xmlns="http://www.w3.org/2000/svg" xmlns:xlink="http://www.w3.org/1999/xlink" version="1.1" viewBox="-10 -40 468 512">
   <path fill="currentColor"
d="M32 -7q-14 0 -23 9v0v0q-9 9 -9 23v384v0q0 14 9 23t23 9t23 -9t9 -23v-352v0h128v0q27 1 45 19t19 45v160v0q0 14 9 23t23 9t23 -9t9 -23v-160v0q-1 -54 -37 -91q-37 -36 -91 -37h-160v0zM320 441q54 -1 91 -37v0v0q36 -37 37 -91v-288v0q0 -14 -9 -23t-23 -9t-23 9
t-9 23v288v0q-1 27 -19 45t-45 19h-128v0v-224v0q0 -14 -9 -23t-23 -9t-23 9t-9 23v256v0q0 14 9 23t23 9h160v0z" />
</svg>
