<?xml version="1.0" standalone="no"?>
<!DOCTYPE svg PUBLIC "-//W3C//DTD SVG 1.1//EN" "http://www.w3.org/Graphics/SVG/1.1/DTD/svg11.dtd" >
<svg xmlns="http://www.w3.org/2000/svg" xmlns:xlink="http://www.w3.org/1999/xlink" version="1.1" viewBox="-10 -40 660 512">
   <path fill="currentColor"
d="M63 191v0v0v0l1 -1v0v0q0 -2 1 -4q1 -6 4 -16q7 -22 21 -50q15 -28 36 -45t50 -18q42 0 67 44q27 50 46 125q0 1 1 1v1v1q10 35 22 71q13 35 30 65q19 33 48 54q30 21 74 22q55 -2 90 -32q34 -30 52 -65t26 -60q4 -13 5 -20q1 -2 1 -3q0 -2 1 -3v-2v0v-1v0v0v0v0v0v0v0
q1 0 -4 -1t-27 -5l31 6v0q3 -13 -4 -24q-8 -11 -21 -14q-13 -2 -24 5q-10 7 -13 20v0v0v1v0l-1 1v0v0q0 2 -1 4q-1 6 -4 16q-7 22 -21 49q-15 28 -36 46q-22 17 -50 18q-42 0 -67 -45q-27 -49 -46 -124l-1 -1v-2v-1q-10 -35 -22 -70q-13 -36 -30 -66q-19 -32 -48 -53
q-30 -21 -74 -22q-55 2 -90 32q-34 30 -52 65t-26 60q-4 13 -5 20q-1 1 -1 3q-1 2 -1 3v1v1v0v0v1v0v0v0v0v0q-1 0 4 0q4 1 27 6l-31 -6v0q-3 13 4 24q7 10 21 13q13 3 24 -4q10 -7 13 -21v0z" />
</svg>
