<?xml version="1.0" standalone="no"?>
<!DOCTYPE svg PUBLIC "-//W3C//DTD SVG 1.1//EN" "http://www.w3.org/Graphics/SVG/1.1/DTD/svg11.dtd" >
<svg xmlns="http://www.w3.org/2000/svg" xmlns:xlink="http://www.w3.org/1999/xlink" version="1.1" viewBox="-10 -40 596 512">
   <path fill="currentColor"
d="M576 89q-1 -27 -19 -45v0v0q-18 -18 -45 -19h-307v0q-26 0 -45 19l-151 150v0q-9 10 -9 23t9 23l151 150v0q19 19 45 19h307v0q27 -1 45 -19t19 -45v-256v0zM271 136q17 -14 34 0l47 47v0l47 -47v0q17 -14 34 0q14 17 0 34l-47 47v0l47 47v0q14 17 0 34q-17 14 -34 0
l-47 -47v0l-47 47v0q-17 14 -34 0q-14 -17 0 -34l47 -47v0l-47 -47v0q-14 -17 0 -34v0z" />
</svg>
