<?xml version="1.0" standalone="no"?>
<!DOCTYPE svg PUBLIC "-//W3C//DTD SVG 1.1//EN" "http://www.w3.org/Graphics/SVG/1.1/DTD/svg11.dtd" >
<svg xmlns="http://www.w3.org/2000/svg" xmlns:xlink="http://www.w3.org/1999/xlink" version="1.1" viewBox="-10 -40 468 512">
   <path fill="currentColor"
d="M224 -7q21 0 35 16l176 192v0q20 23 9 51q-13 28 -44 29h-352v0q-30 -1 -44 -29q-11 -28 9 -52l176 -192v0q14 -15 35 -15v0zM0 393q1 -20 14 -34v0v0q14 -13 34 -14h352v0q20 1 34 14q13 14 14 34q-1 20 -14 34q-14 13 -34 14h-352v0q-20 -1 -34 -14q-13 -14 -14 -34v0z
" />
</svg>
