<?xml version="1.0" standalone="no"?>
<!DOCTYPE svg PUBLIC "-//W3C//DTD SVG 1.1//EN" "http://www.w3.org/Graphics/SVG/1.1/DTD/svg11.dtd" >
<svg xmlns="http://www.w3.org/2000/svg" xmlns:xlink="http://www.w3.org/1999/xlink" version="1.1" viewBox="-10 -40 532 512">
   <path fill="currentColor"
d="M460 402q15 12 34 4q17 -9 18 -29v-320v0q-1 -20 -18 -29q-19 -8 -34 4l-172 143v0v42v0v42v0l172 143v0zM256 313v-96v96v-96v-128v0v-32v0q-1 -20 -18 -29q-19 -8 -34 4l-192 160v0q-12 10 -12 25t12 25l192 160v0q15 12 34 4q17 -9 18 -29v-64v0z" />
</svg>
