<?xml version="1.0" standalone="no"?>
<!DOCTYPE svg PUBLIC "-//W3C//DTD SVG 1.1//EN" "http://www.w3.org/Graphics/SVG/1.1/DTD/svg11.dtd" >
<svg xmlns="http://www.w3.org/2000/svg" xmlns:xlink="http://www.w3.org/1999/xlink" version="1.1" viewBox="-10 -40 660 512">
   <path fill="currentColor"
d="M0 297q2 61 42 102v0v0q41 40 102 42h368v0q54 -1 91 -37q36 -37 37 -91q-1 -47 -29 -81q-29 -35 -73 -44q6 -17 6 -35q-1 -41 -28 -68t-68 -28q-30 0 -53 16q-22 -36 -58 -58q-36 -21 -81 -22q-68 2 -113 47t-47 113v8v0q-43 16 -69 52t-27 84v0z" />
</svg>
