<?xml version="1.0" standalone="no"?>
<!DOCTYPE svg PUBLIC "-//W3C//DTD SVG 1.1//EN" "http://www.w3.org/Graphics/SVG/1.1/DTD/svg11.dtd" >
<svg xmlns="http://www.w3.org/2000/svg" xmlns:xlink="http://www.w3.org/1999/xlink" version="1.1" viewBox="-10 -40 532 512">
   <path fill="currentColor"
d="M88 -39q-22 2 -24 24q1 29 14 46q12 17 25 27l1 1v0q12 10 18 18t6 20q2 22 24 24q22 -2 24 -24q-1 -29 -14 -46q-12 -17 -25 -27l-1 -1v0q-12 -10 -18 -18t-6 -20q-2 -22 -24 -24v0zM32 153q-14 0 -23 9v0v0q-9 9 -9 23v192v0q1 41 28 68t68 28h192v0q41 -1 68 -28
t28 -68h16v0q48 -1 79 -33q32 -31 33 -79q-1 -48 -33 -79q-31 -32 -79 -33h-48h-320zM384 217h16h-16h16q20 1 34 14q13 14 14 34q-1 20 -14 34q-14 13 -34 14h-16v0v-96v0zM224 -15q-2 -22 -24 -24q-22 2 -24 24q1 29 14 46q12 17 25 27l1 1v0q12 10 18 18t6 20q2 22 24 24
q22 -2 24 -24q-1 -29 -14 -46q-12 -17 -25 -27l-1 -1v0q-12 -10 -18 -18t-6 -20v0z" />
</svg>
