<?xml version="1.0" standalone="no"?>
<!DOCTYPE svg PUBLIC "-//W3C//DTD SVG 1.1//EN" "http://www.w3.org/Graphics/SVG/1.1/DTD/svg11.dtd" >
<svg xmlns="http://www.w3.org/2000/svg" xmlns:xlink="http://www.w3.org/1999/xlink" version="1.1" viewBox="-11 0 598 512">
   <path fill="currentColor"
d="M173 -39q-3 0 -5 2q-46 47 -48 118q0 40 17 73q-34 4 -65 21q-52 30 -72 82q-1 3 1 5q4 6 11 2q42 -38 98 -37q57 0 95 58q33 61 5 109t-83 64q-6 3 -4 10q2 2 5 3q56 9 110 -19q30 -18 50 -44q20 26 51 44q53 28 109 19q3 -1 5 -3q2 -7 -4 -10q-55 -16 -83 -64t5 -109
q38 -58 95 -58q56 -1 99 37q6 4 10 -2q2 -2 1 -5q-20 -52 -73 -82q-30 -17 -64 -21q17 -33 17 -73q-2 -71 -48 -118q-2 -2 -5 -2q-9 1 -7 10q13 36 5 74t-36 65q-28 26 -77 27q-49 -1 -77 -27q-28 -27 -36 -65t5 -74q2 -9 -7 -10v0zM240 233q1 -27 24 -42q24 -12 48 0
q23 15 24 42q-1 27 -24 42q-24 12 -48 0q-23 -15 -24 -42v0zM182 379q10 -18 8 -40q-30 -28 -41 -68q-19 -12 -40 -12q-13 -1 -27 2q6 43 28 79q21 36 55 61q10 -10 17 -22v0zM288 25q-44 0 -81 17q3 12 9 23q10 19 30 30q20 -6 42 -6t42 6q20 -11 30 -30q6 -11 9 -23
q-38 -17 -81 -17v0zM427 271q-11 40 -41 68q-2 22 8 40q7 12 17 22q34 -25 55 -61q22 -36 28 -79q-14 -3 -27 -2q-21 0 -40 12v0z" />
</svg>
