<?xml version="1.0" standalone="no"?>
<!DOCTYPE svg PUBLIC "-//W3C//DTD SVG 1.1//EN" "http://www.w3.org/Graphics/SVG/1.1/DTD/svg11.dtd" >
<svg xmlns="http://www.w3.org/2000/svg" xmlns:xlink="http://www.w3.org/1999/xlink" version="1.1" viewBox="-10 -40 340 512">
   <path fill="currentColor"
d="M96 89q1 -27 19 -45v0v0q18 -18 45 -19q27 1 45 19t19 45q0 31 -14 57q-13 26 -33 47l-17 17l-17 -17q-20 -21 -33 -47q-14 -26 -14 -57v0zM160 -39q-54 1 -91 37v0v0q-36 37 -37 91q1 39 14 71q13 33 33 57h-47v0q-14 0 -23 9t-9 23t9 23t23 9h96v0v160v0q0 14 9 23
t23 9t23 -9t9 -23v-160v0h96v0q14 0 23 -9t9 -23t-9 -23t-23 -9h-47v0q20 -24 33 -57q13 -32 14 -71q-1 -54 -37 -91q-37 -36 -91 -37v0z" />
</svg>
