<?xml version="1.0" standalone="no"?>
<!DOCTYPE svg PUBLIC "-//W3C//DTD SVG 1.1//EN" "http://www.w3.org/Graphics/SVG/1.1/DTD/svg11.dtd" >
<svg xmlns="http://www.w3.org/2000/svg" xmlns:xlink="http://www.w3.org/1999/xlink" version="1.1" viewBox="-11 0 534 512">
   <path fill="currentColor"
d="M96 290l51 -50l-51 50l51 -50l86 86v0l-50 51v0l20 21v0q10 11 0 22l-16 16v0q-8 8 -17 4l-62 -28v0l-57 56v0q-11 10 -22 0l-24 -24v0q-10 -11 0 -22l56 -57v0l-28 -62v0q-3 -9 4 -17l16 -16v0q11 -10 22 0l21 20v0zM485 75l-120 119l120 -119l-120 119l-86 -86v0
l119 -119v0q10 -11 24 -14l71 -14v0q8 -1 14 5t5 14l-14 71v0q-3 14 -13 24v0zM5 -34q6 -6 14 -5l71 14v0q14 3 24 14l279 279v0l-86 86v0l-279 -279v0q-11 -10 -14 -24l-14 -71v0q-1 -8 5 -14v0zM459 270l16 16l-16 -16l16 16q8 8 4 18l-28 62v0l56 56v0q10 11 0 22l-24 24
v0q-11 10 -22 0l-56 -56v0l-62 28v0q-10 4 -18 -4l-16 -16v0q-10 -11 0 -22l128 -128v0q11 -10 22 0v0z" />
</svg>
