<?xml version="1.0" standalone="no"?>
<!DOCTYPE svg PUBLIC "-//W3C//DTD SVG 1.1//EN" "http://www.w3.org/Graphics/SVG/1.1/DTD/svg11.dtd" >
<svg xmlns="http://www.w3.org/2000/svg" xmlns:xlink="http://www.w3.org/1999/xlink" version="1.1" viewBox="-10 -40 394 512">
   <path fill="currentColor"
d="M80 137q0 -30 15 -56v0v0q15 -26 41 -41t56 -15t56 15t41 41t15 56t-15 56t-41 41t-56 15t-56 -15t-41 -41t-15 -56v0zM224 310q63 -12 103 -60v0v0q40 -47 41 -113q-2 -75 -52 -124q-49 -50 -124 -52q-75 2 -124 52q-50 49 -52 124q1 66 41 113q40 48 103 60v131v0
q0 14 9 23t23 9t23 -9t9 -23v-131v0z" />
</svg>
