<?xml version="1.0" standalone="no"?>
<!DOCTYPE svg PUBLIC "-//W3C//DTD SVG 1.1//EN" "http://www.w3.org/Graphics/SVG/1.1/DTD/svg11.dtd" >
<svg xmlns="http://www.w3.org/2000/svg" xmlns:xlink="http://www.w3.org/1999/xlink" version="1.1" viewBox="-10 -40 532 512">
   <path fill="currentColor"
d="M63 184q-7 1 -15 1q-23 0 -45 -6q14 -85 72 -143t143 -72q6 22 6 45q0 7 -1 15q1 14 15 17q15 0 17 -15q1 -8 1 -17q0 -25 -6 -48h3h3q72 1 129 35q58 34 92 92q34 57 35 129v6q-23 -6 -48 -6q-9 0 -17 1q-15 2 -15 17q3 15 17 15q8 -1 15 -1q24 0 45 6q-14 85 -72 143
t-143 72q-6 -22 -6 -45q0 -7 1 -15q-1 -14 -15 -17q-15 0 -17 15q-1 8 -1 17q0 25 6 48h-3h-3q-72 -1 -129 -35q-58 -34 -92 -92q-34 -57 -35 -129v-6q23 6 48 6q9 0 17 -1q15 -2 15 -17q-3 -14 -17 -15v0zM121 169q-12 7 -8 21q8 13 22 8q69 -33 102 -102q5 -14 -8 -22
q-14 -4 -21 8q-28 59 -87 87v0zM399 244q-8 -13 -22 -8q-69 33 -102 102q-5 14 8 22q14 4 21 -8q28 -59 87 -87q12 -7 7 -21h1z" />
</svg>
