<?xml version="1.0" standalone="no"?>
<!DOCTYPE svg PUBLIC "-//W3C//DTD SVG 1.1//EN" "http://www.w3.org/Graphics/SVG/1.1/DTD/svg11.dtd" >
<svg xmlns="http://www.w3.org/2000/svg" xmlns:xlink="http://www.w3.org/1999/xlink" version="1.1" viewBox="-10 -40 532 512">
   <path fill="currentColor"
d="M96 281q-41 -1 -68 -28v0v0q-27 -27 -28 -68q1 -32 19 -57q18 -24 47 -34q-2 -10 -2 -21q1 -48 33 -79q31 -32 79 -33q33 0 59 17q26 16 40 43q23 -27 61 -28q34 1 57 23q22 23 23 57q0 8 -2 16h1h1q41 1 68 28t28 68q-1 41 -28 68t-68 28h-320v0zM89 333q2 -4 7 -4t7 4
l35 65v0q6 11 6 24v3v0q0 20 -14 34q-14 13 -34 14q-20 -1 -34 -14q-13 -14 -14 -34v-3v0q0 -13 6 -24l35 -65v0zM249 333q2 -4 7 -4t7 4l35 65v0q6 11 6 24v3v0q0 20 -14 34q-14 13 -34 14q-20 -1 -34 -14q-13 -14 -14 -34v-3v0q0 -13 6 -24l35 -65v0zM374 398l35 -65
l-35 65l35 -65q2 -4 7 -4t7 4l35 65v0q6 11 6 24v3v0q0 20 -14 34q-14 13 -34 14q-20 -1 -34 -14q-13 -14 -14 -34v-3v0q0 -13 6 -24v0z" />
</svg>
