<?xml version="1.0" standalone="no"?>
<!DOCTYPE svg PUBLIC "-//W3C//DTD SVG 1.1//EN" "http://www.w3.org/Graphics/SVG/1.1/DTD/svg11.dtd" >
<svg xmlns="http://www.w3.org/2000/svg" xmlns:xlink="http://www.w3.org/1999/xlink" version="1.1" viewBox="-10 -40 660 512">
   <path fill="currentColor"
d="M344 -15q-2 -22 -24 -24q-22 2 -24 24v24v0h-32v0q-22 2 -24 24q2 22 24 24h32v0v46v0l-113 68v0q-22 14 -23 41v261v0h96v0v-96v0q1 -27 19 -45t45 -19q27 1 45 19t19 45v96v0h96v0v-261v0q-1 -27 -23 -41l-113 -68v0v-46v0h32v0q22 -2 24 -24q-2 -22 -24 -24h-32v0v-24
v0zM25 291q-24 15 -25 42v92v0q1 20 14 34q14 13 34 14h80v0v-238v0l-103 56v0zM592 473q20 -1 34 -14v0v0q13 -14 14 -34v-92v0q-1 -27 -25 -42l-103 -56v0v238v0h80v0z" />
</svg>
