<?xml version="1.0" standalone="no"?>
<!DOCTYPE svg PUBLIC "-//W3C//DTD SVG 1.1//EN" "http://www.w3.org/Graphics/SVG/1.1/DTD/svg11.dtd" >
<svg xmlns="http://www.w3.org/2000/svg" xmlns:xlink="http://www.w3.org/1999/xlink" version="1.1" viewBox="-10 -40 596 512">
   <path fill="currentColor"
d="M512 297q-1 20 -14 34v0v0q-14 13 -34 14h-384v0q-20 -1 -34 -14q-13 -14 -14 -34v-204v0q0 -16 10 -29q9 -12 25 -17l189 -54v0q0 -14 9 -23t23 -9t23 9t9 23v64v0h-48v0q-15 1 -16 16q1 15 16 16h48v0v32v0h-48v0q-15 1 -16 16q1 15 16 16h48v0l119 30v0q33 9 53 34
q19 25 20 59v21v0zM552 369q22 2 24 24v8v0q-1 31 -21 51t-51 21h-96h-384q-22 -2 -24 -24q2 -22 24 -24h72v0v-48v0h48v0v48v0h240v0v-48v0h48v0v48v0h72v0q22 -2 24 -24v-8v0q2 -22 24 -24v0z" />
</svg>
