<?xml version="1.0" standalone="no"?>
<!DOCTYPE svg PUBLIC "-//W3C//DTD SVG 1.1//EN" "http://www.w3.org/Graphics/SVG/1.1/DTD/svg11.dtd" >
<svg xmlns="http://www.w3.org/2000/svg" xmlns:xlink="http://www.w3.org/1999/xlink" version="1.1" viewBox="-10 -40 525 512">
   <path fill="currentColor"
d="M256 153l-39 -39l39 39l-39 -39q7 -19 7 -41q-1 -48 -33 -79q-31 -32 -79 -33q-48 1 -79 33q-32 31 -33 79q1 48 33 79q31 32 79 33q22 0 41 -7l39 39v0l-39 40v0q-19 -8 -41 -8q-48 1 -79 33q-32 31 -33 79q1 48 33 79q31 32 79 33q48 -1 79 -33q32 -31 33 -79
q0 -22 -7 -40l282 -283v0q11 -13 0 -26q-22 -21 -51 -21t-51 21l-141 141v0zM279 304l118 118l-118 -118l118 118q22 21 51 21t51 -21q11 -13 0 -26l-156 -156v0l-64 64v0zM64 73q1 -27 24 -42q24 -12 48 0q23 15 24 42q-1 27 -24 42q-24 12 -48 0q-23 -15 -24 -42v0z
M112 313q27 1 42 24q12 24 0 48q-15 23 -42 24q-27 -1 -42 -24q-12 -24 0 -48q15 -23 42 -24v0z" />
</svg>
