<?xml version="1.0" standalone="no"?>
<!DOCTYPE svg PUBLIC "-//W3C//DTD SVG 1.1//EN" "http://www.w3.org/Graphics/SVG/1.1/DTD/svg11.dtd" >
<svg xmlns="http://www.w3.org/2000/svg" xmlns:xlink="http://www.w3.org/1999/xlink" version="1.1" viewBox="-10 -40 596 512">
   <path fill="currentColor"
d="M576 217q-3 -27 -34 -45v0v0q-31 -18 -60 -19h-116v0l-38 -65v0q22 -7 24 -31q0 -14 -9 -23t-23 -9h-27v0l-28 -48v0q-9 -15 -28 -16h-56v0q-18 3 -15 20l49 172v0h-103v0l-43 -58v0q-5 -6 -13 -6h-42v0q-13 1 -14 14q0 2 1 4l22 79v0q-21 7 -23 31q2 24 23 31l-22 79v0
q-1 2 -1 4q1 13 14 14h42v0q8 0 13 -6l43 -58v0h103v0l-49 172v0q-3 17 15 20h56v0q19 -1 28 -16l28 -48v0h27v0q14 0 23 -9t9 -23q-2 -24 -23 -31l37 -65v0h116v0q29 -1 60 -18q31 -18 34 -46v0z" />
</svg>
