<?xml version="1.0" standalone="no"?>
<!DOCTYPE svg PUBLIC "-//W3C//DTD SVG 1.1//EN" "http://www.w3.org/Graphics/SVG/1.1/DTD/svg11.dtd" >
<svg xmlns="http://www.w3.org/2000/svg" xmlns:xlink="http://www.w3.org/1999/xlink" version="1.1" viewBox="-10 -40 530 512">
   <path fill="currentColor"
d="M368 -21l-55 56l55 -56l-55 56l125 125v0l56 -55v0q16 -18 16 -40t-16 -40l-46 -46v0q-18 -16 -40 -16t-40 16v0zM288 56l-9 2l9 -2l-9 2l-144 44v0q-31 10 -43 41l-88 264v0q-6 18 7 32l154 -153v0q-5 -10 -5 -21q1 -20 14 -34q14 -13 34 -14q20 1 34 14q13 14 14 34
q-1 20 -14 34q-14 13 -34 14q-11 0 -21 -5l-153 154v0q14 13 32 7l264 -88v0q31 -12 41 -43l44 -144v0l2 -9v0l-129 -129v0z" />
</svg>
