<?xml version="1.0" standalone="no"?>
<!DOCTYPE svg PUBLIC "-//W3C//DTD SVG 1.1//EN" "http://www.w3.org/Graphics/SVG/1.1/DTD/svg11.dtd" >
<svg xmlns="http://www.w3.org/2000/svg" xmlns:xlink="http://www.w3.org/1999/xlink" version="1.1" viewBox="-10 -40 404 512">
   <path fill="currentColor"
d="M176 -39q-20 1 -34 14v0v0q-13 14 -14 34v80v0h-80v0q-20 1 -34 14q-13 14 -14 34v32v0q1 20 14 34q14 13 34 14h80v0v208v0q1 20 14 34q14 13 34 14h32v0q20 -1 34 -14q13 -14 14 -34v-208v0h80v0q20 -1 34 -14q13 -14 14 -34v-32v0q-1 -20 -14 -34q-14 -13 -34 -14h-80
v0v-80v0q-1 -20 -14 -34q-14 -13 -34 -14h-32v0z" />
</svg>
