<?xml version="1.0" standalone="no"?>
<!DOCTYPE svg PUBLIC "-//W3C//DTD SVG 1.1//EN" "http://www.w3.org/Graphics/SVG/1.1/DTD/svg11.dtd" >
<svg xmlns="http://www.w3.org/2000/svg" xmlns:xlink="http://www.w3.org/1999/xlink" version="1.1" viewBox="-10 -40 532 512">
   <path fill="currentColor"
d="M328 46q-8 3 -8 11t8 11l56 21v0l21 57v0q3 7 11 7t11 -7l21 -57v0l57 -21v0q7 -3 7 -11t-7 -11l-57 -21v0l-21 -56v0q-3 -8 -11 -8t-11 8l-21 56v0l-56 21v0zM205 34q-4 -9 -14 -9t-15 9l-53 114v0l-114 53v0q-9 5 -9 15t9 14l114 53v0l53 114v0q5 9 15 9q9 0 14 -9
l53 -114v0l114 -53v0q9 -5 9 -15q0 -9 -9 -14l-114 -53v0l-53 -114v0zM384 345l-56 21l56 -21l-56 21q-8 3 -8 11t8 11l56 21v0l21 57v0q3 7 11 7t11 -7l21 -57v0l57 -21v0q7 -3 7 -11t-7 -11l-57 -21v0l-21 -56v0q-3 -8 -11 -8t-11 8l-21 56v0z" />
</svg>
