<?xml version="1.0" standalone="no"?>
<!DOCTYPE svg PUBLIC "-//W3C//DTD SVG 1.1//EN" "http://www.w3.org/Graphics/SVG/1.1/DTD/svg11.dtd" >
<svg xmlns="http://www.w3.org/2000/svg" xmlns:xlink="http://www.w3.org/1999/xlink" version="1.1" viewBox="-10 -40 468 512">
   <path fill="currentColor"
d="M128 441q59 -2 96 -43q37 41 96 43q54 -1 91 -37q36 -37 37 -91q-2 -59 -43 -96q41 -37 43 -96q-1 -54 -37 -91q-37 -36 -91 -37q-59 2 -96 43q-37 -41 -96 -43q-54 1 -91 37q-36 37 -37 91q2 59 43 96q-41 37 -43 96q1 54 37 91q37 36 91 37v0zM224 137q45 1 69 40
q22 40 0 80q-24 39 -69 40q-45 -1 -69 -40q-22 -40 0 -80q24 -39 69 -40v0z" />
</svg>
