<?xml version="1.0" standalone="no"?>
<!DOCTYPE svg PUBLIC "-//W3C//DTD SVG 1.1//EN" "http://www.w3.org/Graphics/SVG/1.1/DTD/svg11.dtd" >
<svg xmlns="http://www.w3.org/2000/svg" xmlns:xlink="http://www.w3.org/1999/xlink" version="1.1" viewBox="-10 -40 394 512">
   <path fill="currentColor"
d="M350 296q5 14 -5 26l-136 144v0q-7 7 -17 7t-17 -7l-136 -144v0q-10 -12 -5 -26q7 -14 22 -15h88v0v-192v0q0 -14 -9 -23t-23 -9h-80v0q-14 0 -23 -9t-9 -23v-32v0q0 -14 9 -23t23 -9h80v0q54 1 91 37q36 37 37 91v192v0h88v0q15 1 22 15v0z" />
</svg>
