<?xml version="1.0" standalone="no"?>
<!DOCTYPE svg PUBLIC "-//W3C//DTD SVG 1.1//EN" "http://www.w3.org/Graphics/SVG/1.1/DTD/svg11.dtd" >
<svg xmlns="http://www.w3.org/2000/svg" xmlns:xlink="http://www.w3.org/1999/xlink" version="1.1" viewBox="-10 -40 468 512">
   <path fill="currentColor"
d="M64 441q-27 -1 -45 -19v0v0q-18 -18 -19 -45v-320v0q1 -27 19 -45t45 -19h320v0q27 1 45 19t19 45v320v0q-1 27 -19 45t-45 19h-320v0zM103 256l107 100l-107 -100l107 100q6 5 14 5t14 -5l107 -100v0q7 -7 7 -17q-2 -20 -22 -22h-58v0v-96v0q0 -14 -9 -23t-23 -9h-32v0
q-14 0 -23 9t-9 23v96v0h-58v0q-20 2 -22 22q0 10 7 17v0z" />
</svg>
