<?xml version="1.0" standalone="no"?>
<!DOCTYPE svg PUBLIC "-//W3C//DTD SVG 1.1//EN" "http://www.w3.org/Graphics/SVG/1.1/DTD/svg11.dtd" >
<svg xmlns="http://www.w3.org/2000/svg" xmlns:xlink="http://www.w3.org/1999/xlink" version="1.1" viewBox="-10 -40 468 512">
   <path fill="currentColor"
d="M439 194q9 10 9 23v0v0q0 13 -9 23l-160 160v0q-16 14 -35 7q-19 -9 -20 -30v-96v0h-184v0q-17 0 -28 -12q-12 -11 -12 -28v-48v0q0 -17 12 -28q11 -12 28 -12h184v0v-96v0q1 -21 20 -30q19 -7 35 7l160 160v0z" />
</svg>
