<?xml version="1.0" standalone="no"?>
<!DOCTYPE svg PUBLIC "-//W3C//DTD SVG 1.1//EN" "http://www.w3.org/Graphics/SVG/1.1/DTD/svg11.dtd" >
<svg xmlns="http://www.w3.org/2000/svg" xmlns:xlink="http://www.w3.org/1999/xlink" version="1.1" viewBox="-11 0 661 512">
   <path fill="currentColor"
d="M218 -30q10 -9 22 -9v0v0q12 0 22 9l127 117v0q-29 22 -44 58l-11 25v0l-11 6v0q-24 13 -32 37t4 49q12 23 36 31q23 9 47 -2l-6 8v0q-14 15 -19 35l-11 43v0h-230v0q-20 -1 -34 -14q-13 -14 -14 -34v-112v0h-32v0q-21 -1 -30 -20q-7 -20 8 -35l208 -192v0zM128 169v64
v-64v64q1 15 16 16h64v0q15 -1 16 -16v-64v0q-1 -15 -16 -16h-64v0q-15 1 -16 16v0zM432 -39q27 1 42 24q12 24 0 48q-15 23 -42 24q-27 -1 -42 -24q-12 -24 0 -48q15 -23 42 -24v0zM516 162q0 -1 -1 -1v0v0q-1 0 -2 -1l17 64v0q8 33 -14 60l-71 77v0l-22 88v0q-4 13 -15 19
q-11 7 -24 4q-13 -4 -20 -15q-6 -11 -3 -24l23 -92v0q3 -12 11 -21l50 -54v0l-20 -65v0l-9 23v0q-7 16 -23 24l-27 14v0q-12 5 -24 1t-19 -16q-6 -12 -2 -24t17 -19l21 -10v0l15 -37v0q14 -31 41 -49q27 -19 61 -19q35 0 66 14l8 4v0q51 23 70 76l2 8v0q4 13 -1 24
q-6 12 -19 16t-24 -1q-12 -6 -16 -19l-3 -8v0q-9 -26 -35 -38l-8 -3v0zM546 297l25 62l-25 -62l25 62l60 59v0q9 10 9 23t-9 23q-10 9 -23 9t-23 -9l-61 -62v0q-7 -7 -11 -16l-14 -36v0l40 -45v0q4 -4 7 -8v0z" />
</svg>
