<?xml version="1.0" standalone="no"?>
<!DOCTYPE svg PUBLIC "-//W3C//DTD SVG 1.1//EN" "http://www.w3.org/Graphics/SVG/1.1/DTD/svg11.dtd" >
<svg xmlns="http://www.w3.org/2000/svg" xmlns:xlink="http://www.w3.org/1999/xlink" version="1.1" viewBox="-10 -40 596 512">
   <path fill="currentColor"
d="M0 57q1 -27 19 -45v0v0q18 -18 45 -19h448v0q27 1 45 19t19 45v288v0q-1 27 -19 45t-45 19q0 14 -9 23t-23 9t-23 -9t-9 -23h-320v0q0 14 -9 23t-23 9t-23 -9t-9 -23q-27 -1 -45 -19t-19 -45v-288v0zM96 113v176v-176v176q2 22 24 24h272v0q22 -2 24 -24v-176v0
q-2 -22 -24 -24h-272v0q-22 2 -24 24v0zM496 73q-15 1 -16 16v224v0q1 15 16 16q15 -1 16 -16v-224v0q-1 -15 -16 -16v0z" />
</svg>
