<?xml version="1.0" standalone="no"?>
<!DOCTYPE svg PUBLIC "-//W3C//DTD SVG 1.1//EN" "http://www.w3.org/Graphics/SVG/1.1/DTD/svg11.dtd" >
<svg xmlns="http://www.w3.org/2000/svg" xmlns:xlink="http://www.w3.org/1999/xlink" version="1.1" viewBox="-10 -40 660 512">
   <path fill="currentColor"
d="M64 -7q-27 1 -45 19v0v0q-18 18 -19 45v320v0q1 27 19 45t45 19h171v0q-11 -22 -11 -48q0 -34 18 -61q17 -26 46 -40q3 -46 35 -76q31 -30 77 -31q26 0 48 11v-139v0q-1 -27 -19 -45t-45 -19h-320v0zM112 81v144v-144v144q-2 22 -24 24q-22 -2 -24 -24v-144v0
q2 -22 24 -24q22 2 24 24v0zM208 81v144v-144v144q-2 22 -24 24q-22 -2 -24 -24v-144v0q2 -22 24 -24q22 2 24 24v0zM336 473h224h-224h224q34 -1 57 -23q22 -23 23 -57q-1 -30 -19 -51q-18 -22 -46 -28q1 -4 1 -9q-1 -24 -16 -40q-16 -15 -40 -16q-28 1 -44 22
q-9 -24 -29 -39t-47 -15q-34 1 -57 23q-22 23 -23 57q0 9 2 17q-29 6 -47 27q-18 22 -19 52q1 34 23 57q23 22 57 23v0z" />
</svg>
