<?xml version="1.0" standalone="no"?>
<!DOCTYPE svg PUBLIC "-//W3C//DTD SVG 1.1//EN" "http://www.w3.org/Graphics/SVG/1.1/DTD/svg11.dtd" >
<svg xmlns="http://www.w3.org/2000/svg" xmlns:xlink="http://www.w3.org/1999/xlink" version="1.1" viewBox="-10 -40 532 512">
   <path fill="currentColor"
d="M512 217q0 12 -1 23q-110 40 -255 41q-145 -1 -255 -41q-1 -11 -1 -23q1 -72 35 -129q34 -58 92 -92q57 -34 129 -35q88 1 154 51q6 5 6 13v16v0q-1 15 -16 16h-32v0q-15 1 -16 16v32v0q1 15 16 16h48h16q15 1 16 16v32v0q1 15 16 16h32v0q13 1 15 14q1 9 1 18v0z
M256 473q-93 -2 -160 -56v0v0q-68 -55 -89 -141q110 36 249 37q67 0 128 -9v25v0q1 15 16 16h32v0q15 1 16 16v19v0q0 6 -4 11q-36 38 -84 60t-104 22v0zM160 121q0 -14 9 -23v0v0q9 -9 23 -9t23 9t9 23t-9 23t-23 9t-23 -9t-9 -23v0zM272 121q-1 -45 -40 -69q-40 -22 -80 0
q-39 24 -40 69q1 45 40 69q40 22 80 0q39 -24 40 -69v0z" />
</svg>
