<?xml version="1.0" standalone="no"?>
<!DOCTYPE svg PUBLIC "-//W3C//DTD SVG 1.1//EN" "http://www.w3.org/Graphics/SVG/1.1/DTD/svg11.dtd" >
<svg xmlns="http://www.w3.org/2000/svg" xmlns:xlink="http://www.w3.org/1999/xlink" version="1.1" viewBox="-10 -40 532 512">
   <path fill="currentColor"
d="M208 9q1 -27 24 -42q24 -12 48 0q23 15 24 42q-1 27 -24 42q-24 12 -48 0q-23 -15 -24 -42v0zM248 281v96v-96v96h-64v0v-179v0l-31 39v0q-9 10 -21 12q-13 1 -24 -7q-10 -9 -12 -21q-1 -13 7 -24l58 -72v0q29 -35 75 -36h40v0q46 1 75 36l58 72v0q8 11 7 24
q-2 12 -12 21q-11 8 -24 7q-12 -2 -21 -12l-31 -39v0v179v0h-64v0v-96v0h-16v0zM216 473h-88h88h-88q-14 0 -23 -9t-9 -23t9 -23t23 -9h256v0q14 0 23 9t9 23t-9 23t-23 9h-88h-80zM64 57l25 7l-25 -7l25 7q7 2 7 9t-7 9l-25 7v0l-7 25v0q-2 7 -9 7t-9 -7l-7 -25v0l-25 -7v0
q-7 -2 -7 -9t7 -9l25 -7v0l7 -25v0q2 -7 9 -7t9 7l7 25v0zM473 -32l7 25l-7 -25l7 25l25 7v0q7 2 7 9t-7 9l-25 7v0l-7 25v0q-2 7 -9 7t-9 -7l-7 -25v0l-25 -7v0q-7 -2 -7 -9t7 -9l25 -7v0l7 -25v0q2 -7 9 -7t9 7v0z" />
</svg>
