<?xml version="1.0" standalone="no"?>
<!DOCTYPE svg PUBLIC "-//W3C//DTD SVG 1.1//EN" "http://www.w3.org/Graphics/SVG/1.1/DTD/svg11.dtd" >
<svg xmlns="http://www.w3.org/2000/svg" xmlns:xlink="http://www.w3.org/1999/xlink" version="1.1" viewBox="-10 -40 532 512">
   <path fill="currentColor"
d="M256 57q27 -1 42 -24q12 -24 0 -48q-15 -23 -42 -24q-27 1 -42 24q-12 24 0 48q15 23 42 24v0zM128 473h88h-88h256q14 0 23 -9t9 -23t-9 -23t-23 -9h-256v0q-14 0 -23 9t-9 23t9 23t23 9v0zM57 64q-2 -7 -9 -7t-9 7l-7 25v0l-25 7v0q-7 2 -7 9t7 9l25 7v0l7 25v0
q2 7 9 7t9 -7l7 -25v0l25 -7v0q7 -2 7 -9t-7 -9l-25 -7v0l-7 -25v0zM480 -7l-7 -25l7 25l-7 -25q-2 -7 -9 -7t-9 7l-7 25v0l-25 7v0q-7 2 -7 9t7 9l25 7v0l7 25v0q2 7 9 7t9 -7l7 -25v0l25 -7v0q7 -2 7 -9t-7 -9l-25 -7v0zM176 89q-15 1 -16 16q1 15 16 16h160v0
q15 -1 16 -16q-1 -15 -16 -16h-160v0zM144 153q-15 1 -16 16q1 15 16 16h224v0q15 -1 16 -16q-1 -15 -16 -16h-224v0zM112 217q-15 1 -16 16q1 15 16 16h288v0q15 -1 16 -16q-1 -15 -16 -16h-288v0zM176 281q-15 1 -16 16q1 15 16 16h160v0q15 -1 16 -16q-1 -15 -16 -16
h-160v0zM176 345q-15 1 -16 16q1 15 16 16h160v0q15 -1 16 -16q-1 -15 -16 -16h-160v0z" />
</svg>
