<?xml version="1.0" standalone="no"?>
<!DOCTYPE svg PUBLIC "-//W3C//DTD SVG 1.1//EN" "http://www.w3.org/Graphics/SVG/1.1/DTD/svg11.dtd" >
<svg xmlns="http://www.w3.org/2000/svg" xmlns:xlink="http://www.w3.org/1999/xlink" version="1.1" viewBox="-10 -40 660 512">
   <path fill="currentColor"
d="M320 73q45 1 79 26v0v0q35 24 49 65q8 21 8 45q1 3 -32 20q-32 18 -104 20q-71 -2 -104 -20q-32 -17 -32 -20q0 -24 8 -45q14 -41 49 -65q34 -25 79 -26v0zM320 25q-69 1 -118 43v0v0q-50 42 -63 107q-64 18 -101 45q-37 28 -38 61q1 36 44 65q42 28 115 46q72 17 161 17
t161 -17q73 -18 115 -46q43 -29 44 -65q-1 -33 -38 -61q-37 -27 -101 -45q-13 -65 -63 -107q-49 -42 -118 -43v0zM320 313q22 2 24 24q-2 22 -24 24q-22 -2 -24 -24q2 -22 24 -24v0zM104 289q2 -22 24 -24q22 2 24 24q-2 22 -24 24q-22 -2 -24 -24v0zM512 265q22 2 24 24
q-2 22 -24 24q-22 -2 -24 -24q2 -22 24 -24v0z" />
</svg>
