<?xml version="1.0" standalone="no"?>
<!DOCTYPE svg PUBLIC "-//W3C//DTD SVG 1.1//EN" "http://www.w3.org/Graphics/SVG/1.1/DTD/svg11.dtd" >
<svg xmlns="http://www.w3.org/2000/svg" xmlns:xlink="http://www.w3.org/1999/xlink" version="1.1" viewBox="-10 -40 660 512">
   <path fill="currentColor"
d="M302 25h210h-210h210q27 1 45 19t19 45q-1 34 -28 53q-53 -51 -132 -53q-27 1 -45 19t-19 45v100v0q15 -4 32 -4q54 1 91 37q36 37 37 91q-2 59 -43 96h75v0q27 -1 45 -19t19 -45v-128v0q0 -48 -21 -88q24 -18 38 -45q15 -27 15 -59q-1 -54 -37 -91q-37 -36 -91 -37h-210
v0q-47 1 -81 28q-34 28 -45 73l-26 123v0h66v0l23 -109v0q5 -23 22 -37t41 -14v0zM209 217h-66h66h-66l-34 160v0h-25v0q-26 0 -47 13t-33 36q-4 7 -4 15q0 14 9 23t23 9h95v0h1h1h47v0q20 -1 34 -14q13 -14 14 -34q-1 -20 -14 -34q-14 -13 -34 -14h-2v0l35 -160v0zM480 377
q0 -26 -13 -48v0v0q-13 -22 -35 -35q-23 -13 -48 -13t-48 13q-22 13 -35 35t-13 48t13 48t35 35q23 13 48 13t48 -13q22 -13 35 -35t13 -48v0zM352 377q0 -14 9 -23v0v0q9 -9 23 -9t23 9t9 23t-9 23t-23 9t-23 -9t-9 -23v0z" />
</svg>
