<?xml version="1.0" standalone="no"?>
<!DOCTYPE svg PUBLIC "-//W3C//DTD SVG 1.1//EN" "http://www.w3.org/Graphics/SVG/1.1/DTD/svg11.dtd" >
<svg xmlns="http://www.w3.org/2000/svg" xmlns:xlink="http://www.w3.org/1999/xlink" version="1.1" viewBox="-10 -40 532 512">
   <path fill="currentColor"
d="M423 -8q4 -22 -16 -30q-22 -4 -30 16l-4 15v0q-15 -1 -30 3q-18 4 -35 9l-6 -13v0q-10 -20 -31 -13q-20 10 -13 31l5 12v0q-33 14 -60 32l-7 -10v0q-14 -17 -33 -7q-17 14 -7 33l8 12v0q-27 22 -47 47l-14 -11v0q-18 -12 -34 4q-12 18 4 34l15 12v0q-3 5 -6 9
q-14 24 -23 46l-10 -4v0q-21 -6 -31 13q-6 21 13 31l12 5v0q-1 2 -1 3v0q-5 19 -7 31q-1 7 -2 11v3v0v2v0v0v0v1v0v0v0q-2 0 4 0q7 1 35 3v0v0l-39 -3v0q-1 7 -1 15l-15 4v0q-20 8 -16 30q8 20 30 16l13 -4v0q17 32 49 49l-4 13v0q-4 22 17 30q21 4 29 -16l4 -15v0
q37 1 66 -18l10 11v0q17 14 34 0q14 -17 0 -34l-11 -10v0q14 -22 17 -49v-1v0q1 -2 3 -9v-1v0l13 5v0q21 7 31 -12q7 -21 -13 -32l-11 -5v0q14 -23 49 -46l2 8v0q8 20 30 16q20 -8 16 -29l-4 -15v0q10 -3 22 -6q20 -4 35 -15l11 11v0q17 14 34 0q14 -17 0 -34l-11 -10v0
q19 -30 18 -66l15 -4v0q20 -8 16 -29q-8 -21 -30 -17l-13 4v0q-17 -32 -49 -49l4 -13v0zM92 324v0v0v0l52 5v0l-52 -5v0zM112 281q1 -27 24 -42q24 -12 48 0q23 15 24 42q-1 27 -24 42q-24 12 -48 0q-23 -15 -24 -42v0zM240 145q22 2 24 24q-2 22 -24 24q-22 -2 -24 -24
q2 -22 24 -24v0z" />
</svg>
