<?xml version="1.0" standalone="no"?>
<!DOCTYPE svg PUBLIC "-//W3C//DTD SVG 1.1//EN" "http://www.w3.org/Graphics/SVG/1.1/DTD/svg11.dtd" >
<svg xmlns="http://www.w3.org/2000/svg" xmlns:xlink="http://www.w3.org/1999/xlink" version="1.1" viewBox="-11 0 662 512">
   <path fill="currentColor"
d="M39 -34q-19 -12 -34 4q-12 19 4 34l592 464v0q19 12 34 -4q12 -19 -4 -34l-135 -106v0q-2 -17 -15 -30l-135 -123v0l-23 18v0l-26 -21v0l77 -60v0q12 -7 23 3q8 13 -3 23l-21 16v0l177 163v0h42v0q20 -1 34 -14q13 -14 14 -34v-128v0q-1 -20 -14 -34q-14 -13 -34 -14h-76
h-5l-4 -2v0l-72 -47v0q-24 -15 -52 -15q-33 0 -60 21l-89 73v0l-26 -21v0l82 -66v0q-18 -7 -37 -7q-29 0 -53 16l-35 24v0l-126 -99v0zM414 383l-373 -293l373 293l-373 -293q-18 2 -29 15q-12 13 -12 32v128v0q1 20 14 34q14 13 34 14h108v0l92 83v0q15 14 34 13t33 -16
q9 -9 12 -20l17 15v0q15 14 34 13t33 -16q1 -1 3 -2v0z" />
</svg>
