<?xml version="1.0" standalone="no"?>
<!DOCTYPE svg PUBLIC "-//W3C//DTD SVG 1.1//EN" "http://www.w3.org/Graphics/SVG/1.1/DTD/svg11.dtd" >
<svg xmlns="http://www.w3.org/2000/svg" xmlns:xlink="http://www.w3.org/1999/xlink" version="1.1" viewBox="-10 -40 660 512">
   <path fill="currentColor"
d="M0 185q1 -62 31 -113v0v0q29 -50 80 -80v0v0q50 -30 113 -31h24v0q73 1 128 46t69 114q3 20 15 36l42 53v0q10 12 10 27q0 19 -13 31q-12 13 -31 13h-20v0v0v0v32v0l-109 14v0q-18 3 -19 21q2 20 21 22l107 7v0v16v0q-1 20 -14 34q-14 13 -34 14h-80v0v8v0q-2 22 -24 24
h-40v0v0v0h-160v0q-14 0 -23 -9t-9 -23v-73v0q-1 -25 -17 -45q-46 -61 -47 -138v0zM352 185q14 0 23 -9v0v0q9 -9 9 -23t-9 -23t-23 -9t-23 9t-9 23t9 23t23 9v0zM464 345q2 -22 24 -24q22 2 24 24q-2 22 -24 24q-22 -2 -24 -24v0zM616 321q22 2 24 24q-2 22 -24 24
q-22 -2 -24 -24q2 -22 24 -24v0zM592 441q2 -22 24 -24q22 2 24 24q-2 22 -24 24q-22 -2 -24 -24v0zM552 273q22 2 24 24q-2 22 -24 24q-22 -2 -24 -24q2 -22 24 -24v0zM592 249q2 -22 24 -24q22 2 24 24q-2 22 -24 24q-22 -2 -24 -24v0zM552 369q22 2 24 24q-2 22 -24 24
q-22 -2 -24 -24q2 -22 24 -24v0z" />
</svg>
