<?xml version="1.0" standalone="no"?>
<!DOCTYPE svg PUBLIC "-//W3C//DTD SVG 1.1//EN" "http://www.w3.org/Graphics/SVG/1.1/DTD/svg11.dtd" >
<svg xmlns="http://www.w3.org/2000/svg" xmlns:xlink="http://www.w3.org/1999/xlink" version="1.1" viewBox="-10 -40 660 512">
   <path fill="currentColor"
d="M320 -39q14 0 23 9v0v0q9 9 9 23v124v0q-13 -12 -32 -12t-32 12v-124v0q0 -14 9 -23t23 -9v0zM445 157q-13 -13 -30 -14v0v0q-16 -2 -31 7v-24v0q1 -29 20 -49q20 -19 49 -20q35 0 56 29q12 17 31 47q20 31 40 70q21 38 37 82q17 44 23 88v4v7v0q-1 38 -26 63t-63 26
q-11 0 -22 -3l-72 -18v0q-32 -8 -52 -33q22 3 39 -14l-22 -22v0l22 22v0q14 -14 14 -34q0 -19 -14 -33q-1 -2 -1 -3v-3q1 -2 2 -2v0q1 -1 3 -1q20 -1 34 -14q13 -14 14 -34q-1 -20 -14 -34q-14 -13 -34 -14q-2 0 -3 -1q-1 0 -2 -2v-3t1 -2q14 -15 14 -34q0 -20 -14 -34h1z
M422 383q-12 9 -23 0q-19 -17 -40 -8t-23 34q-1 15 -16 16q-15 -1 -16 -16q-2 -25 -23 -34t-40 8q-11 9 -23 0q-9 -12 0 -23q17 -19 8 -40t-34 -23q-15 -1 -16 -16q1 -15 16 -16q25 -2 34 -23t-8 -40q-9 -11 0 -23q12 -9 23 0q19 17 40 8t23 -34q1 -15 16 -16q15 1 16 16
q2 25 23 34t40 -8q12 -9 23 0q9 12 0 23q-17 19 -8 40t34 23q15 1 16 16q-1 15 -16 16q-25 2 -34 23t8 40q9 12 0 23v0zM183 452l-72 18l72 -18l-72 18q-11 3 -22 3q-38 -1 -63 -26t-26 -63v-7v0v-4q6 -44 23 -88q16 -44 37 -82q20 -39 40 -70q19 -30 31 -47q21 -28 56 -29
q29 1 49 20q19 20 20 49v24v0q-14 -9 -31 -7q-17 1 -29 14q-15 14 -15 33q0 20 15 34q1 2 1 3v3l-2 2v0q-1 1 -3 1q-20 0 -34 14t-14 34t14 34q14 13 34 14q2 0 3 1q1 0 2 2v3t-1 2q-15 15 -15 34t15 34q17 16 39 14q-20 25 -52 33v0zM296 281q22 -2 24 -24q-2 -22 -24 -24
q-22 2 -24 24q2 22 24 24v0zM368 313q-1 -15 -16 -16q-15 1 -16 16q1 15 16 16q15 -1 16 -16v0z" />
</svg>
