<?xml version="1.0" standalone="no"?>
<!DOCTYPE svg PUBLIC "-//W3C//DTD SVG 1.1//EN" "http://www.w3.org/Graphics/SVG/1.1/DTD/svg11.dtd" >
<svg xmlns="http://www.w3.org/2000/svg" xmlns:xlink="http://www.w3.org/1999/xlink" version="1.1" viewBox="-10 -40 458 512">
   <path fill="currentColor"
d="M128 -7v96v-96v96h128v0v-32v0h60v0q7 0 11 5l34 34v0q10 9 23 9t23 -9q9 -10 9 -23t-9 -23l-34 -34v0q-24 -23 -57 -23h-60v0q0 -14 -9 -23t-23 -9h-64v0q-14 0 -23 9t-9 23v0zM117 121q-25 1 -43 17v0v0q-18 16 -20 42l-19 224v0q-2 29 17 48q18 20 47 21h186v0
q29 -1 47 -21q19 -19 17 -48l-19 -224v0q-2 -26 -20 -42t-43 -17h-150v0zM256 321q-1 27 -19 41v0v0q-18 15 -45 15t-45 -15q-18 -14 -19 -41q2 -26 20 -55q19 -29 31 -43q5 -6 13 -6t13 6q12 14 31 43q18 29 20 55v0z" />
</svg>
