<?xml version="1.0" standalone="no"?>
<!DOCTYPE svg PUBLIC "-//W3C//DTD SVG 1.1//EN" "http://www.w3.org/Graphics/SVG/1.1/DTD/svg11.dtd" >
<svg xmlns="http://www.w3.org/2000/svg" xmlns:xlink="http://www.w3.org/1999/xlink" version="1.1" viewBox="-10 -40 532 512">
   <path fill="currentColor"
d="M208 57q27 -1 42 -24q12 -24 0 -48q-15 -23 -42 -24q-27 1 -42 24q-12 24 0 48q15 23 42 24v0zM320 217q36 -1 55 -32q18 -32 0 -64q-19 -31 -55 -32q-36 1 -55 32q-18 32 0 64q19 31 55 32v0zM416 -7q0 -14 -9 -23v0v0q-9 -9 -23 -9t-23 9t-9 23t9 23t23 9t23 -9t9 -23
v0zM416 153q-1 43 -30 70q27 11 44 35q18 24 18 55q-1 41 -28 68t-68 28h-192v0q-41 -1 -68 -28t-28 -68q1 -41 28 -68t68 -28h88v0q-23 -26 -24 -64h-128v0q-41 1 -68 28t-28 68v128v0q1 41 28 68t68 28h320v0q41 -1 68 -28t28 -68v-128v0q-1 -41 -28 -68t-68 -28v0z
M160 249q-27 1 -45 19v0v0q-18 18 -19 45q1 27 19 45t45 19h192v0q27 -1 45 -19t19 -45q-1 -27 -19 -45t-45 -19h-32h-160z" />
</svg>
