<?xml version="1.0" standalone="no"?>
<!DOCTYPE svg PUBLIC "-//W3C//DTD SVG 1.1//EN" "http://www.w3.org/Graphics/SVG/1.1/DTD/svg11.dtd" >
<svg xmlns="http://www.w3.org/2000/svg" xmlns:xlink="http://www.w3.org/1999/xlink" version="1.1" viewBox="-10 -40 660 512">
   <path fill="currentColor"
d="M192 -39q22 2 24 24v14v0q2 27 25 36q22 10 43 -8l10 -10v0q17 -14 34 0q14 17 0 34l-10 10v0q-18 21 -8 43q9 23 37 25h13v0q22 2 24 24q-2 22 -24 24h-13v0q-28 2 -37 25q-10 22 8 43l10 10v0q14 17 0 34q-17 14 -34 0l-10 -10v0q-21 -18 -43 -8q-23 9 -25 37v13v0
q-2 22 -24 24q-22 -2 -24 -24v-13v0q-2 -28 -25 -37q-22 -10 -43 8l-10 10v0q-17 14 -34 0q-14 -17 0 -34l10 -10v0q18 -21 8 -43q-9 -23 -36 -25h-14v0q-22 -2 -24 -24q2 -22 24 -24h14v0q27 -2 36 -25q10 -22 -8 -43l-10 -10v0q-14 -17 0 -34q17 -14 34 0l10 10v0
q21 18 43 8q23 -9 25 -36v-14v0q2 -22 24 -24v0zM240 185q15 -1 16 -16q-1 -15 -16 -16q-15 1 -16 16q1 15 16 16v0zM192 121q0 -14 -9 -23v0v0q-9 -9 -23 -9t-23 9t-9 23t9 23t23 9t23 -9t9 -23v0zM512 201q2 25 23 34v0v0q21 9 40 -8q12 -9 23 0q9 12 0 23q-17 19 -8 40
t34 23q15 1 16 16q-1 15 -16 16q-25 2 -34 23t8 40q9 12 0 23q-11 9 -23 0q-19 -17 -40 -8t-23 34q-1 15 -16 16q-15 -1 -16 -16q-2 -25 -23 -34t-40 8q-12 9 -23 0q-9 -12 0 -23q17 -19 8 -40t-34 -23q-15 -1 -16 -16q1 -15 16 -16q25 -2 34 -23t-8 -40q-9 -12 0 -23
q12 -9 23 0q19 17 40 8t23 -34q1 -15 16 -16q15 1 16 16v0zM512 313q0 -14 -9 -23v0v0q-9 -9 -23 -9t-23 9t-9 23t9 23t23 9t23 -9t9 -23v0z" />
</svg>
