<?xml version="1.0" standalone="no"?>
<!DOCTYPE svg PUBLIC "-//W3C//DTD SVG 1.1//EN" "http://www.w3.org/Graphics/SVG/1.1/DTD/svg11.dtd" >
<svg xmlns="http://www.w3.org/2000/svg" xmlns:xlink="http://www.w3.org/1999/xlink" version="1.1" viewBox="-11 0 469 512">
   <path fill="currentColor"
d="M253 39q5 -12 1 -24v0v0q-4 -12 -16 -19q-12 -5 -24 -1t-19 16l-192 384v0q-7 16 2 31q9 14 27 15h384v0q14 0 23 -9t9 -23t-9 -23t-23 -9h-332v0l169 -338v0zM240 135l-21 44l21 -44l-21 44q32 26 56 61l41 -26v0q-32 -45 -76 -79v0zM321 345h49h-49h49
q-11 -56 -37 -104l-41 26v0q20 36 29 78v0z" />
</svg>
