<?xml version="1.0" standalone="no"?>
<!DOCTYPE svg PUBLIC "-//W3C//DTD SVG 1.1//EN" "http://www.w3.org/Graphics/SVG/1.1/DTD/svg11.dtd" >
<svg xmlns="http://www.w3.org/2000/svg" xmlns:xlink="http://www.w3.org/1999/xlink" version="1.1" viewBox="-10 -40 596 512">
   <path fill="currentColor"
d="M384 313q-14 0 -23 9v0v0q-9 9 -9 23t9 23t23 9h160v0q14 0 23 -9t9 -23v-160v0q0 -14 -9 -23t-23 -9t-23 9t-9 23v83v0l-169 -170v0q-10 -9 -23 -9t-23 9l-105 106v0l-137 -138v0q-10 -9 -23 -9t-23 9q-9 10 -9 23t9 23l160 160v0q10 9 23 9t23 -9l105 -106v0l147 147v0
h-83v0z" />
</svg>
