<?xml version="1.0" standalone="no"?>
<!DOCTYPE svg PUBLIC "-//W3C//DTD SVG 1.1//EN" "http://www.w3.org/Graphics/SVG/1.1/DTD/svg11.dtd" >
<svg xmlns="http://www.w3.org/2000/svg" xmlns:xlink="http://www.w3.org/1999/xlink" version="1.1" viewBox="-10 -40 340 512">
   <path fill="currentColor"
d="M144 -39q-14 0 -23 9v0v0q-9 9 -9 23v32v0h-74v0q-16 0 -27 11t-11 27v122v0v42v0v22v0v118v0q0 18 12 30t30 12h70v0v32v0q0 14 9 23t23 9t23 -9t9 -23v-32v0h32v0q48 -1 79 -33q32 -31 33 -79q0 -30 -14 -55q-15 -25 -39 -40q20 -28 21 -65q-1 -48 -33 -79
q-31 -32 -79 -33v-32v0q0 -14 -9 -23t-23 -9v0zM112 89v96v-96v96h-48v0v-96v0h48v0zM176 185v-96v96v-96q20 1 34 14q13 14 14 34q-1 20 -14 34q-14 13 -34 14v0zM112 249v96v-96v96h-48v0v-96v0h48v0zM176 345v-96v96v-96h32v0q20 1 34 14q13 14 14 34q-1 20 -14 34
q-14 13 -34 14h-32v0z" />
</svg>
