<?xml version="1.0" standalone="no"?>
<!DOCTYPE svg PUBLIC "-//W3C//DTD SVG 1.1//EN" "http://www.w3.org/Graphics/SVG/1.1/DTD/svg11.dtd" >
<svg xmlns="http://www.w3.org/2000/svg" xmlns:xlink="http://www.w3.org/1999/xlink" version="1.1" viewBox="-10 -40 596 512">
   <path fill="currentColor"
d="M464 121q15 1 16 16v160v0q-1 15 -16 16h-384v0q-15 -1 -16 -16v-160v0q1 -15 16 -16h384v0zM80 57q-34 1 -57 23v0v0q-22 23 -23 57v160v0q1 34 23 57q23 22 57 23h384v0q34 -1 57 -23q22 -23 23 -57v-16v0q14 0 23 -9t9 -23v-64v0q0 -14 -9 -23t-23 -9v-16v0
q-1 -34 -23 -57q-23 -22 -57 -23h-384v0zM160 153h-64h64h-64v128v0h64v0v-128v0z" />
</svg>
