<?xml version="1.0" standalone="no"?>
<!DOCTYPE svg PUBLIC "-//W3C//DTD SVG 1.1//EN" "http://www.w3.org/Graphics/SVG/1.1/DTD/svg11.dtd" >
<svg xmlns="http://www.w3.org/2000/svg" xmlns:xlink="http://www.w3.org/1999/xlink" version="1.1" viewBox="-10 -40 532 512">
   <path fill="currentColor"
d="M268 94q-23 26 -60 27q-37 -1 -60 -27q-5 -5 -14 -6t-15 4q-17 13 -39 13q-27 -1 -45 -19t-19 -45q1 -27 19 -45t45 -19q22 0 39 13q6 5 15 4t14 -6q23 -26 60 -27q37 1 60 27q5 5 14 6t15 -4q17 -13 39 -13q27 1 45 19t19 45q-1 27 -19 45t-45 19q-22 0 -39 -13
q-6 -5 -15 -4t-14 6v0zM32 409v-285v285v-285q21 13 48 13q28 0 51 -15q31 30 77 31q46 -1 77 -31q23 15 51 15q30 0 53 -16h46v0q33 1 55 23q21 21 22 54v102v0q0 23 -12 42q-13 18 -34 28l-82 37v0v2v0q-1 27 -19 45t-45 19h-224v0q-27 -1 -45 -19t-19 -45v0zM384 337
l56 -25l-56 25l56 -25q8 -4 8 -12v-102v0q-1 -12 -13 -13h-51v0v152v0zM160 201q-1 -15 -16 -16q-15 1 -16 16v160v0q1 15 16 16q15 -1 16 -16v-160v0zM224 201q-1 -15 -16 -16q-15 1 -16 16v160v0q1 15 16 16q15 -1 16 -16v-160v0zM288 201q-1 -15 -16 -16q-15 1 -16 16
v160v0q1 15 16 16q15 -1 16 -16v-160v0z" />
</svg>
