<?xml version="1.0" standalone="no"?>
<!DOCTYPE svg PUBLIC "-//W3C//DTD SVG 1.1//EN" "http://www.w3.org/Graphics/SVG/1.1/DTD/svg11.dtd" >
<svg xmlns="http://www.w3.org/2000/svg" xmlns:xlink="http://www.w3.org/1999/xlink" version="1.1" viewBox="-10 -40 468 512">
   <path fill="currentColor"
d="M0 57q1 -41 28 -68v0v0q27 -27 68 -28h96v0v191v0q1 10 9 14t17 -2l54 -43v0l54 43v0q9 6 17 2t9 -14v-191v0h32h32q14 0 23 9t9 23v320v0q0 14 -9 23t-23 9v64v0q14 0 23 9t9 23t-9 23t-23 9h-32h-288q-41 -1 -68 -28t-28 -68v-320v0zM64 377q0 14 9 23v0v0q9 9 23 9
h256v0v-64v0h-256v0q-14 0 -23 9t-9 23v0z" />
</svg>
