<?xml version="1.0" standalone="no"?>
<!DOCTYPE svg PUBLIC "-//W3C//DTD SVG 1.1//EN" "http://www.w3.org/Graphics/SVG/1.1/DTD/svg11.dtd" >
<svg xmlns="http://www.w3.org/2000/svg" xmlns:xlink="http://www.w3.org/1999/xlink" version="1.1" viewBox="-10 -40 660 512">
   <path fill="currentColor"
d="M96 -39q-41 1 -68 28v0v0q-27 27 -28 68v320v0q1 41 28 68t68 28h288h11q-36 -25 -56 -64h-243v0q-14 0 -23 -9t-9 -23t9 -23t23 -9h225v0q-1 -8 -1 -16q1 -62 36 -107q36 -46 92 -62v-167v0q0 -14 -9 -23t-23 -9h-32h-288zM640 329q0 -39 -19 -72v0v0q-19 -33 -53 -53
q-34 -19 -72 -19t-72 19q-34 20 -53 53t-19 72t19 72t53 53q34 19 72 19t72 -19q34 -20 53 -53t19 -72v0zM493 262q11 -10 22 0l56 56v0q10 11 0 22l-56 56v0q-11 10 -22 0q-10 -11 0 -22l28 -29v0h-89v0q-15 -1 -16 -16q1 -15 16 -16h89v0l-28 -29v0q-10 -11 0 -22v0z" />
</svg>
