<?xml version="1.0" standalone="no"?>
<!DOCTYPE svg PUBLIC "-//W3C//DTD SVG 1.1//EN" "http://www.w3.org/Graphics/SVG/1.1/DTD/svg11.dtd" >
<svg xmlns="http://www.w3.org/2000/svg" xmlns:xlink="http://www.w3.org/1999/xlink" version="1.1" viewBox="-10 -40 596 512">
   <path fill="currentColor"
d="M160 57h-64h64h-64q-41 1 -68 28t-28 68v224v0q1 41 28 68t68 28h224h32q14 0 23 -9t9 -23t-9 -23t-23 -9h-32h-224q-14 0 -23 -9t-9 -23t9 -23t23 -9h81v0q-17 -29 -17 -64v-224v0zM320 377h32h-32h224q14 0 23 -9t9 -23t-9 -23t-23 -9v-64v0q14 0 23 -9t9 -23v-224v0
q0 -14 -9 -23t-23 -9h-32h-224q-41 1 -68 28t-28 68v224v0q1 38 24 64q28 31 72 32h32v0zM256 281q0 -14 9 -23v0v0q9 -9 23 -9h96h96v64v0h-96h-96q-14 0 -23 -9t-9 -23v0z" />
</svg>
