<?xml version="1.0" standalone="no"?>
<!DOCTYPE svg PUBLIC "-//W3C//DTD SVG 1.1//EN" "http://www.w3.org/Graphics/SVG/1.1/DTD/svg11.dtd" >
<svg xmlns="http://www.w3.org/2000/svg" xmlns:xlink="http://www.w3.org/1999/xlink" version="1.1" viewBox="-10 -40 468 512">
   <path fill="currentColor"
d="M0 57q1 -41 28 -68v0v0q27 -27 68 -28h288h32q14 0 23 9t9 23v320v0q0 14 -9 23t-23 9v64v0q14 0 23 9t9 23t-9 23t-23 9h-32h-288q-41 -1 -68 -28t-28 -68v-320v0zM64 377q0 14 9 23v0v0q9 9 23 9h256v0v-64v0h-256v0q-14 0 -23 9t-9 23v0zM229 202l7 2l-7 -2l7 2
q28 7 37 13t7 15q-7 21 -52 16q-16 -3 -33 -9v0l-6 -2v0q-14 -3 -20 10q-3 15 10 20l6 2v0q19 7 39 10q10 2 20 2q57 -1 67 -43q4 -31 -17 -44q14 -11 17 -28q4 -33 -19 -46q-23 -14 -48 -19v0v0l-7 -1v0q-27 -8 -33 -14q-6 -5 -3 -12q6 -21 51 -16q10 1 25 6q15 3 20 -10
q3 -15 -10 -20q-18 -6 -30 -8q-36 -4 -59 7q-24 11 -29 35q-4 31 17 44q-13 11 -17 28q-4 32 18 46q23 13 42 16v0v0zM226 130q1 0 5 1v0v0q4 1 5 1q28 7 37 13t7 15q-3 8 -11 12q-8 3 -15 4q-3 -1 -10 -3q-6 -1 -7 -2v0q-27 -7 -33 -13t-4 -12q3 -9 11 -12q8 -4 15 -5v1z
" />
</svg>
