<?xml version="1.0" standalone="no"?>
<!DOCTYPE svg PUBLIC "-//W3C//DTD SVG 1.1//EN" "http://www.w3.org/Graphics/SVG/1.1/DTD/svg11.dtd" >
<svg xmlns="http://www.w3.org/2000/svg" xmlns:xlink="http://www.w3.org/1999/xlink" version="1.1" viewBox="-11 0 662 512">
   <path fill="currentColor"
d="M39 -34q-19 -12 -34 4q-12 19 4 34l592 464v0q19 12 34 -4q12 -19 -4 -34l-119 -93v0v-328v0q-1 -20 -14 -34q-14 -13 -34 -14h-288v0q-20 1 -34 14q-13 14 -14 34v27v0l-89 -70v0zM510 459l-382 -301l382 301l-382 -301v291v0q2 22 24 24q8 0 14 -4l154 -108v0l154 108
v0q6 4 14 4q15 -1 22 -14v0z" />
</svg>
