<?xml version="1.0" standalone="no"?>
<!DOCTYPE svg PUBLIC "-//W3C//DTD SVG 1.1//EN" "http://www.w3.org/Graphics/SVG/1.1/DTD/svg11.dtd" >
<svg xmlns="http://www.w3.org/2000/svg" xmlns:xlink="http://www.w3.org/1999/xlink" version="1.1" viewBox="-10 -40 596 512">
   <path fill="currentColor"
d="M94 -7h114h-114h114v128v0h-208v0l51 -101v0q14 -26 43 -27v0zM240 -7h114h-114h114q29 1 43 27l51 101v0h-32h-176v-128v0zM0 377v-224v224v-224h416v0v1v0q-69 7 -114 56q-44 49 -46 119q1 65 40 112h-232v0q-27 -1 -45 -19t-19 -45v0zM288 329q0 -39 19 -72v0v0
q19 -33 53 -53q34 -19 72 -19t72 19q34 20 53 53t19 72t-19 72t-53 53q-34 19 -72 19t-72 -19q-34 -20 -53 -53t-19 -72v0zM499 286q-11 -10 -22 0l-61 60v0l-29 -28v0q-11 -10 -22 0q-10 11 0 22l40 40v0q11 10 22 0l72 -72v0q10 -11 0 -22v0z" />
</svg>
