<?xml version="1.0" standalone="no"?>
<!DOCTYPE svg PUBLIC "-//W3C//DTD SVG 1.1//EN" "http://www.w3.org/Graphics/SVG/1.1/DTD/svg11.dtd" >
<svg xmlns="http://www.w3.org/2000/svg" xmlns:xlink="http://www.w3.org/1999/xlink" version="1.1" viewBox="-10 -40 660 512">
   <path fill="currentColor"
d="M96 217q1 -61 30 -112v0v0q30 -51 82 -82q53 -30 112 -30t112 30q52 31 82 82q29 51 30 112q-1 61 -30 112q-30 51 -82 82q-53 30 -112 30t-112 -30q-52 -31 -82 -82q-29 -51 -30 -112v0zM344 113q-2 -22 -24 -24q-22 2 -24 24v112v0q2 22 24 24q22 -2 24 -24v-112v0z
M320 345q14 0 23 -9v0v0q9 -9 9 -23t-9 -23t-23 -9t-23 9t-9 23t9 23t23 9v0zM91 70q-42 65 -43 147q1 82 43 147q10 20 -7 33q-20 10 -33 -7q-50 -76 -51 -173q1 -97 51 -173q13 -17 33 -7q17 13 7 33v0zM589 44q50 76 51 173q-1 97 -51 173q-13 17 -33 7q-17 -13 -7 -33
q42 -65 43 -147q-1 -82 -43 -147q-10 -20 7 -33q20 -10 33 7v0z" />
</svg>
