<?xml version="1.0" standalone="no"?>
<!DOCTYPE svg PUBLIC "-//W3C//DTD SVG 1.1//EN" "http://www.w3.org/Graphics/SVG/1.1/DTD/svg11.dtd" >
<svg xmlns="http://www.w3.org/2000/svg" xmlns:xlink="http://www.w3.org/1999/xlink" version="1.1" viewBox="-11 0 661 512">
   <path fill="currentColor"
d="M32 -39q-14 0 -23 10q-10 10 -9 24l29 404v0q3 32 25 53q22 20 55 21h163v0q-15 -21 -16 -48q1 -23 17 -37q-16 -17 -17 -43q1 -28 20 -47q-19 -17 -20 -45q0 -9 4 -21q4 -10 17 -28q12 -18 36 -37q24 -20 61 -32l10 -140v0q1 -14 -8 -24q-10 -10 -24 -10h-320v0zM73 121
l-7 -96l7 96l-7 -96h252v0l-7 96v0h-238v0zM640 253q0 -4 -2 -8q-3 -11 -21 -32q-17 -22 -54 -40q-37 -19 -99 -20q-62 1 -99 20q-37 18 -54 40q-18 21 -21 32q-2 4 -2 8q0 12 8 20t20 8h297v0q11 0 19 -8t8 -20v0zM384 201q9 0 14 8q4 8 0 16q-5 8 -14 8q-15 -2 -16 -16
q1 -15 16 -16v0zM448 201q1 -15 16 -16q15 1 16 16q-1 14 -16 16q-15 -2 -16 -16v0zM544 201q9 0 14 8q4 8 0 16q-5 8 -14 8q-15 -2 -16 -16q1 -15 16 -16v0zM320 313q-14 0 -23 9v0v0q-9 9 -9 23q0 13 9 22t23 10h288v0q14 -1 23 -10t9 -22q0 -14 -9 -23t-23 -9h-288v0z
M304 409q-15 1 -16 16q1 20 14 34q14 13 34 14h256v0q20 -1 34 -14q13 -14 14 -34q-1 -15 -16 -16h-320v0z" />
</svg>
