<?xml version="1.0" standalone="no"?>
<!DOCTYPE svg PUBLIC "-//W3C//DTD SVG 1.1//EN" "http://www.w3.org/Graphics/SVG/1.1/DTD/svg11.dtd" >
<svg xmlns="http://www.w3.org/2000/svg" xmlns:xlink="http://www.w3.org/1999/xlink" version="1.1" viewBox="-10 -40 532 512">
   <path fill="currentColor"
d="M264 -7q22 2 24 24v8v0h176v0q20 1 34 14q13 14 14 34v64v0q-1 20 -14 34q-14 13 -34 14h-176v0v8v0q-2 22 -24 24q-22 -2 -24 -24v-8v0h-192v0q-20 -1 -34 -14q-13 -14 -14 -34v-64v0q1 -20 14 -34q14 -13 34 -14h192v0v-8v0q2 -22 24 -24v0zM160 89v32v-32v32h80v0v-32
v0h-80v0zM288 89v32v-32v32h160v0v-32v0h-160v0zM336 345v-32v32v-32h-80v0v32v0h80v0zM336 409h-288h288h-288q-20 -1 -34 -14q-13 -14 -14 -34v-64v0q1 -20 14 -34q14 -13 34 -14h288v0v-8v0q2 -22 24 -24q22 2 24 24v8v0h80v0q20 1 34 14q13 14 14 34v64v0q-1 20 -14 34
q-14 13 -34 14h-80v0v8v0q-2 22 -24 24q-22 -2 -24 -24v-8v0zM384 313v32v-32v32h64v0v-32v0h-64v0z" />
</svg>
