<?xml version="1.0" standalone="no"?>
<!DOCTYPE svg PUBLIC "-//W3C//DTD SVG 1.1//EN" "http://www.w3.org/Graphics/SVG/1.1/DTD/svg11.dtd" >
<svg xmlns="http://www.w3.org/2000/svg" xmlns:xlink="http://www.w3.org/1999/xlink" version="1.1" viewBox="-10 -40 532 512">
   <path fill="currentColor"
d="M64 25q0 -14 -9 -23v0v0q-9 -9 -23 -9t-23 9t-9 23v336v0q1 34 23 57q23 22 57 23h400v0q14 0 23 -9t9 -23t-9 -23t-23 -9h-400v0q-15 -1 -16 -16v-336v0zM320 9q-1 -15 -16 -16q-15 1 -16 16v48v0q-14 0 -23 9t-9 23v96v0q0 14 9 23t23 9v48v0q1 15 16 16q15 -1 16 -16
v-48v0q14 0 23 -9t9 -23v-96v0q0 -14 -9 -23t-23 -9v-48v0zM384 185v64v-64v64q0 14 9 23t23 9v48v0q1 15 16 16q15 -1 16 -16v-48v0q14 0 23 -9t9 -23v-64v0q0 -14 -9 -23t-23 -9v-48v0q-1 -15 -16 -16q-15 1 -16 16v48v0q-14 0 -23 9t-9 23v0zM160 89q-14 0 -23 9v0v0
q-9 9 -9 23v128v0q0 14 9 23t23 9v48v0q1 15 16 16q15 -1 16 -16v-48v0q14 0 23 -9t9 -23v-128v0q0 -14 -9 -23t-23 -9v-48v0q-1 -15 -16 -16q-15 1 -16 16v48v0z" />
</svg>
