<?xml version="1.0" standalone="no"?>
<!DOCTYPE svg PUBLIC "-//W3C//DTD SVG 1.1//EN" "http://www.w3.org/Graphics/SVG/1.1/DTD/svg11.dtd" >
<svg xmlns="http://www.w3.org/2000/svg" xmlns:xlink="http://www.w3.org/1999/xlink" version="1.1" viewBox="-10 -40 532 512">
   <path fill="currentColor"
d="M32 57q14 0 23 -9v0v0q9 -9 9 -23t-9 -23t-23 -9t-23 9t-9 23t9 23t23 9v0zM288 25q0 -14 -9 -23v0v0q-9 -9 -23 -9t-23 9t-9 23v209v0l-180 150v0q-11 9 -12 22t7 24q9 10 22 11t24 -7l171 -143v0l172 143v0q10 8 23 7t22 -11q8 -11 7 -24t-11 -22l-181 -150v0v-209v0z
M384 57q14 0 23 -9v0v0q9 -9 9 -23t-9 -23t-23 -9t-23 9t-9 23t9 23t23 9v0zM416 217q0 -14 -9 -23v0v0q-9 -9 -23 -9t-23 9t-9 23t9 23t23 9t23 -9t9 -23v0zM480 153q14 0 23 -9v0v0q9 -9 9 -23t-9 -23t-23 -9t-23 9t-9 23t9 23t23 9v0zM160 121q0 -14 -9 -23v0v0
q-9 -9 -23 -9t-23 9t-9 23t9 23t23 9t23 -9t9 -23v0zM64 217q0 -14 -9 -23v0v0q-9 -9 -23 -9t-23 9t-9 23t9 23t23 9t23 -9t9 -23v0zM256 441q14 0 23 -9v0v0q9 -9 9 -23t-9 -23t-23 -9t-23 9t-9 23t9 23t23 9v0z" />
</svg>
