<?xml version="1.0" standalone="no"?>
<!DOCTYPE svg PUBLIC "-//W3C//DTD SVG 1.1//EN" "http://www.w3.org/Graphics/SVG/1.1/DTD/svg11.dtd" >
<svg xmlns="http://www.w3.org/2000/svg" xmlns:xlink="http://www.w3.org/1999/xlink" version="1.1" viewBox="-10 -40 532 512">
   <path fill="currentColor"
d="M32 -7q14 0 23 9v0v0q9 9 9 23v336v0q1 15 16 16h400v0q14 0 23 9t9 23t-9 23t-23 9h-400v0q-34 -1 -57 -23q-22 -23 -23 -57v-336v0q0 -14 9 -23t23 -9v0zM160 185q14 0 23 9v0v0q9 9 9 23v64v0q0 14 -9 23t-23 9t-23 -9t-9 -23v-64v0q0 -14 9 -23t23 -9v0zM288 121v64
v-64v64q0 14 -9 23t-23 9t-23 -9t-9 -23v-64v0q0 -14 9 -23t23 -9t23 9t9 23v0zM352 25q14 0 23 9v0v0q9 9 9 23v64v0q0 14 -9 23t-23 9t-23 -9t-9 -23v-64v0q0 -14 9 -23t23 -9v0zM480 57v224v-224v224q0 14 -9 23t-23 9t-23 -9t-9 -23v-224v0q0 -14 9 -23t23 -9t23 9t9 23
v0z" />
</svg>
