<?xml version="1.0" standalone="no"?>
<!DOCTYPE svg PUBLIC "-//W3C//DTD SVG 1.1//EN" "http://www.w3.org/Graphics/SVG/1.1/DTD/svg11.dtd" >
<svg xmlns="http://www.w3.org/2000/svg" xmlns:xlink="http://www.w3.org/1999/xlink" version="1.1" viewBox="-10 -40 532 512">
   <path fill="currentColor"
d="M256 473q70 -1 128 -34v0v0q58 -34 94 -94q34 -61 34 -128t-34 -128q-36 -60 -94 -94q-58 -33 -128 -34q-70 1 -128 34q-58 34 -94 94q-34 61 -34 128t34 128q36 60 94 94q58 33 128 34v0zM223 146l-24 18l24 -18l-24 18q-19 12 -34 -4q-12 -19 4 -34l25 -18v0
q24 -19 55 -18h3v0q36 1 59 25q24 24 25 60q-1 36 -27 62l-64 60v0h83v0q22 2 24 24q-2 22 -24 24h-144v0q-16 -1 -22 -15q-5 -15 6 -26l108 -102v0q12 -11 12 -27t-11 -27q-10 -10 -26 -11h-3v0q-14 0 -25 9v0z" />
</svg>
