<?xml version="1.0" standalone="no"?>
<!DOCTYPE svg PUBLIC "-//W3C//DTD SVG 1.1//EN" "http://www.w3.org/Graphics/SVG/1.1/DTD/svg11.dtd" >
<svg xmlns="http://www.w3.org/2000/svg" xmlns:xlink="http://www.w3.org/1999/xlink" version="1.1" viewBox="-10 -40 532 512">
   <path fill="currentColor"
d="M256 473q70 -1 128 -34v0v0q58 -34 94 -94q34 -61 34 -128t-34 -128q-36 -60 -94 -94q-58 -33 -128 -34q-70 1 -128 34q-58 34 -94 94q-34 61 -34 128t34 128q36 60 94 94q58 33 128 34v0zM184 89h128h-128h128q16 1 22 15q5 15 -6 27l-51 46v0q33 5 53 28q21 23 22 56
q-1 36 -25 59q-23 24 -59 25h-28v0q-48 -1 -74 -41l-2 -4v0q-10 -20 7 -33q20 -10 33 7l3 5v0q12 17 33 18h28v0q15 0 25 -11q11 -10 11 -25q0 -16 -11 -26q-10 -10 -25 -10h-52v0q-16 -1 -22 -15q-6 -15 6 -27l50 -46v0h-66v0q-22 -2 -24 -24q2 -22 24 -24v0z" />
</svg>
