<?xml version="1.0" standalone="no"?>
<!DOCTYPE svg PUBLIC "-//W3C//DTD SVG 1.1//EN" "http://www.w3.org/Graphics/SVG/1.1/DTD/svg11.dtd" >
<svg xmlns="http://www.w3.org/2000/svg" xmlns:xlink="http://www.w3.org/1999/xlink" version="1.1" viewBox="-10 -40 532 512">
   <path fill="currentColor"
d="M0 217q1 -70 34 -128v0v0q34 -58 94 -94q61 -34 128 -34t128 34q60 36 94 94q33 58 34 128q-1 70 -34 128q-34 58 -94 94q-61 34 -128 34t-128 -34q-60 -36 -94 -94q-33 -58 -34 -128v0zM264 89h-16h16h-16q-31 1 -51 21t-21 51q0 24 14 42q-29 23 -30 62q1 34 23 57
q23 22 57 23h32v0q34 -1 57 -23q22 -23 23 -57q-1 -39 -29 -62q13 -18 13 -42q-1 -31 -21 -51t-51 -21v0zM248 185q-22 -2 -24 -24q2 -22 24 -24h16v0q22 2 24 24q-2 22 -24 24v0v0h-16v0v0v0v0zM264 233h8h-8h8q14 0 23 9t9 23t-9 23t-23 9h-32v0q-14 0 -23 -9t-9 -23
t9 -23t23 -9h8h16z" />
</svg>
