<?xml version="1.0" standalone="no"?>
<!DOCTYPE svg PUBLIC "-//W3C//DTD SVG 1.1//EN" "http://www.w3.org/Graphics/SVG/1.1/DTD/svg11.dtd" >
<svg xmlns="http://www.w3.org/2000/svg" xmlns:xlink="http://www.w3.org/1999/xlink" version="1.1" viewBox="-10 -40 532 512">
   <path fill="currentColor"
d="M256 473q70 -1 128 -34v0v0q58 -34 94 -94q34 -61 34 -128t-34 -128q-36 -60 -94 -94q-58 -33 -128 -34q-70 1 -128 34q-58 34 -94 94q-34 61 -34 128t34 128q36 60 94 94q58 33 128 34v0zM330 77q9 8 4 19l-52 105v0h70v0q11 1 15 11q3 10 -5 18l-160 128v0
q-10 7 -20 -1q-9 -8 -4 -19l52 -105v0h-70v0q-11 -1 -15 -11q-3 -10 5 -18l160 -128v0q10 -7 20 1v0z" />
</svg>
