<?xml version="1.0" standalone="no"?>
<!DOCTYPE svg PUBLIC "-//W3C//DTD SVG 1.1//EN" "http://www.w3.org/Graphics/SVG/1.1/DTD/svg11.dtd" >
<svg xmlns="http://www.w3.org/2000/svg" xmlns:xlink="http://www.w3.org/1999/xlink" version="1.1" viewBox="-10 -40 532 512">
   <path fill="currentColor"
d="M256 473q70 -1 128 -34v0v0q58 -34 94 -94q34 -61 34 -128t-34 -128q-36 -60 -94 -94q-58 -33 -128 -34q-70 1 -128 34q-58 34 -94 94q-34 61 -34 128t34 128q36 60 94 94q58 33 128 34v0zM160 137q1 -20 14 -34v0v0q14 -13 34 -14h96v0q20 1 34 14q13 14 14 34v192v0
q0 10 -9 14t-17 -1l-70 -56v0l-70 56v0q-8 5 -17 1t-9 -14v-192v0z" />
</svg>
