<?xml version="1.0" standalone="no"?>
<!DOCTYPE svg PUBLIC "-//W3C//DTD SVG 1.1//EN" "http://www.w3.org/Graphics/SVG/1.1/DTD/svg11.dtd" >
<svg xmlns="http://www.w3.org/2000/svg" xmlns:xlink="http://www.w3.org/1999/xlink" version="1.1" viewBox="-10 -40 532 512">
   <path fill="currentColor"
d="M256 473q70 -1 128 -34v0v0q58 -34 94 -94q34 -61 34 -128t-34 -128q-36 -60 -94 -94q-58 -33 -128 -34q-70 1 -128 34q-58 34 -94 94q-34 61 -34 128t34 128q36 60 94 94q58 33 128 34v0zM184 89h72h-72h72q54 1 91 37q36 37 37 91q-1 54 -37 91q-37 36 -91 37h-72v0
q-22 -2 -24 -24v-208v0q2 -22 24 -24v0zM256 297q34 -1 57 -23v0v0q22 -23 23 -57q-1 -34 -23 -57q-23 -22 -57 -23h-48v0v160v0h48v0z" />
</svg>
