<?xml version="1.0" standalone="no"?>
<!DOCTYPE svg PUBLIC "-//W3C//DTD SVG 1.1//EN" "http://www.w3.org/Graphics/SVG/1.1/DTD/svg11.dtd" >
<svg xmlns="http://www.w3.org/2000/svg" xmlns:xlink="http://www.w3.org/1999/xlink" version="1.1" viewBox="-10 -40 531 512">
   <path fill="currentColor"
d="M1 193q9 -80 58 -139l45 45v0q-31 41 -38 94h-65v0zM138 65l-45 -45l45 45l-45 -45q59 -49 139 -58v65v0q-53 7 -94 38v0zM280 408q53 -8 94 -39l45 45v0q-59 49 -139 58v-64v0zM408 335q31 -41 39 -94h64v0q-9 80 -58 139l-45 -45v0zM93 414l45 -45l-45 45l45 -45
q41 31 94 39v64v0q-80 -9 -139 -58v0zM59 380q-49 -59 -58 -139h65v0q7 53 38 94l-45 45v0zM419 20l-45 45l45 -45l-45 45q-41 -31 -94 -38v-65v0q80 9 139 58v0zM408 99l45 -45l-45 45l45 -45q49 59 58 139h-64v0q-8 -53 -39 -94v0z" />
</svg>
