<?xml version="1.0" standalone="no"?>
<!DOCTYPE svg PUBLIC "-//W3C//DTD SVG 1.1//EN" "http://www.w3.org/Graphics/SVG/1.1/DTD/svg11.dtd" >
<svg xmlns="http://www.w3.org/2000/svg" xmlns:xlink="http://www.w3.org/1999/xlink" version="1.1" viewBox="-10 -40 532 512">
   <path fill="currentColor"
d="M256 473q-70 -1 -128 -34v0v0q-58 -34 -94 -94q-34 -61 -34 -128t34 -128q36 -60 94 -94q58 -33 128 -34q70 1 128 34q58 34 94 94q34 61 34 128t-34 128q-36 60 -94 94q-58 33 -128 34v0zM160 160v137v-137v137q1 15 16 16h137v0q21 -2 23 -23q0 -9 -7 -16l-33 -33v0
l66 -66v0q6 -6 6 -14t-6 -14l-36 -36v0q-6 -6 -14 -6t-14 6l-66 66v0l-33 -33v0q-7 -7 -16 -7q-21 2 -23 23v0z" />
</svg>
