<?xml version="1.0" standalone="no"?>
<!DOCTYPE svg PUBLIC "-//W3C//DTD SVG 1.1//EN" "http://www.w3.org/Graphics/SVG/1.1/DTD/svg11.dtd" >
<svg xmlns="http://www.w3.org/2000/svg" xmlns:xlink="http://www.w3.org/1999/xlink" version="1.1" viewBox="-10 -40 532 512">
   <path fill="currentColor"
d="M256 473q70 -1 128 -34v0v0q58 -34 94 -94q34 -61 34 -128t-34 -128q-36 -60 -94 -94q-58 -33 -128 -34q-70 1 -128 34q-58 34 -94 94q-34 61 -34 128t34 128q36 60 94 94q58 33 128 34v0zM128 153q0 -14 9 -23v0v0q9 -9 23 -9h192v0q14 0 23 9t9 23v9v0l-119 55v0
q-4 1 -9 2q-4 0 -9 -2l-119 -55v0v-9v0zM278 246l106 -48l-106 48l106 -48v83v0q0 14 -9 23t-23 9h-192v0q-14 0 -23 -9t-9 -23v-83v0l106 48v0q11 5 22 5t22 -5v0z" />
</svg>
