<?xml version="1.0" standalone="no"?>
<!DOCTYPE svg PUBLIC "-//W3C//DTD SVG 1.1//EN" "http://www.w3.org/Graphics/SVG/1.1/DTD/svg11.dtd" >
<svg xmlns="http://www.w3.org/2000/svg" xmlns:xlink="http://www.w3.org/1999/xlink" version="1.1" viewBox="-10 -40 532 512">
   <path fill="currentColor"
d="M256 473q70 -1 128 -34v0v0q58 -34 94 -94q34 -61 34 -128t-34 -128q-36 -60 -94 -94q-58 -33 -128 -34q-70 1 -128 34q-58 34 -94 94q-34 61 -34 128t34 128q36 60 94 94q58 33 128 34v0zM336 113v136v-136v136q-1 41 -28 68t-68 28q-41 -1 -68 -28t-28 -68v-8v0
q2 -22 24 -24q22 2 24 24v8v0q1 20 14 34q14 13 34 14q20 -1 34 -14q13 -14 14 -34v-136v0q2 -22 24 -24q22 2 24 24v0z" />
</svg>
