<?xml version="1.0" standalone="no"?>
<!DOCTYPE svg PUBLIC "-//W3C//DTD SVG 1.1//EN" "http://www.w3.org/Graphics/SVG/1.1/DTD/svg11.dtd" >
<svg xmlns="http://www.w3.org/2000/svg" xmlns:xlink="http://www.w3.org/1999/xlink" version="1.1" viewBox="-10 -40 532 512">
   <path fill="currentColor"
d="M256 473q70 -1 128 -34v0v0q58 -34 94 -94q34 -61 34 -128t-34 -128q-36 -60 -94 -94q-58 -33 -128 -34q-70 1 -128 34q-58 34 -94 94q-34 61 -34 128t34 128q36 60 94 94q58 33 128 34v0zM345 130l-73 74l73 -74l-73 74l75 103v0q12 19 -5 33q-19 12 -33 -5l-71 -96v0
l-30 30v0v52v0q-2 22 -24 24q-22 -2 -24 -24v-61v0v-147v0q2 -22 24 -24q22 2 24 24v88v0l103 -105v0q17 -14 34 0q14 17 0 34v0z" />
</svg>
