<?xml version="1.0" standalone="no"?>
<!DOCTYPE svg PUBLIC "-//W3C//DTD SVG 1.1//EN" "http://www.w3.org/Graphics/SVG/1.1/DTD/svg11.dtd" >
<svg xmlns="http://www.w3.org/2000/svg" xmlns:xlink="http://www.w3.org/1999/xlink" version="1.1" viewBox="-10 -40 532 512">
   <path fill="currentColor"
d="M256 473q70 -1 128 -34v0v0q58 -34 94 -94q34 -61 34 -128t-34 -128q-36 -60 -94 -94q-58 -33 -128 -34q-70 1 -128 34q-58 34 -94 94q-34 61 -34 128t34 128q36 60 94 94q58 33 128 34v0zM204 99l100 145l-100 -145l100 145v-131v0q2 -22 24 -24q22 2 24 24v208v0
q-1 17 -17 23q-16 4 -27 -9l-100 -145v0v131v0q-2 22 -24 24q-22 -2 -24 -24v-208v0q1 -17 17 -23q16 -4 27 9v0z" />
</svg>
