<?xml version="1.0" standalone="no"?>
<!DOCTYPE svg PUBLIC "-//W3C//DTD SVG 1.1//EN" "http://www.w3.org/Graphics/SVG/1.1/DTD/svg11.dtd" >
<svg xmlns="http://www.w3.org/2000/svg" xmlns:xlink="http://www.w3.org/1999/xlink" version="1.1" viewBox="-10 -40 532 512">
   <path fill="currentColor"
d="M256 473q70 -1 128 -34v0v0q58 -34 94 -94q34 -61 34 -128t-34 -128q-36 -60 -94 -94q-58 -33 -128 -34q-70 1 -128 34q-58 34 -94 94q-34 61 -34 128t34 128q36 60 94 94q58 33 128 34v0zM184 89h92h-92h92q39 1 65 27t27 65q-1 39 -27 65t-65 27h-68v0v48v0
q-2 22 -24 24q-22 -2 -24 -24v-72v0v-136v0q2 -22 24 -24v0zM276 225q19 0 31 -13v0v0q13 -12 13 -31t-13 -31q-12 -13 -31 -13h-68v0v88v0h68v0z" />
</svg>
