<?xml version="1.0" standalone="no"?>
<!DOCTYPE svg PUBLIC "-//W3C//DTD SVG 1.1//EN" "http://www.w3.org/Graphics/SVG/1.1/DTD/svg11.dtd" >
<svg xmlns="http://www.w3.org/2000/svg" xmlns:xlink="http://www.w3.org/1999/xlink" version="1.1" viewBox="-10 -40 532 512">
   <path fill="currentColor"
d="M256 473q70 -1 128 -34v0v0q58 -34 94 -94q34 -61 34 -128t-34 -128q-36 -60 -94 -94q-58 -33 -128 -34q-70 1 -128 34q-58 34 -94 94q-34 61 -34 128t34 128q36 60 94 94q58 33 128 34v0zM187 90q16 -3 23 11l20 48v0q5 14 -5 24l-25 20v0q26 54 80 80l21 -25v0
q9 -10 23 -5l48 20v0q14 7 11 23l-12 44v0q-4 14 -19 15q-63 -1 -113 -31q-51 -29 -80 -80q-30 -50 -31 -113q1 -15 15 -19l44 -12v0z" />
</svg>
