<?xml version="1.0" standalone="no"?>
<!DOCTYPE svg PUBLIC "-//W3C//DTD SVG 1.1//EN" "http://www.w3.org/Graphics/SVG/1.1/DTD/svg11.dtd" >
<svg xmlns="http://www.w3.org/2000/svg" xmlns:xlink="http://www.w3.org/1999/xlink" version="1.1" viewBox="-10 -40 532 512">
   <path fill="currentColor"
d="M256 -39q70 1 128 34v0v0q58 34 94 94q34 61 34 128t-34 128q-36 60 -94 94q-58 33 -128 34q-70 -1 -128 -34q-58 -34 -94 -94q-34 -61 -34 -128t34 -128q36 -60 94 -94q58 -33 128 -34v0zM325 90q-16 -3 -23 11l-20 48v0q-5 14 5 24l25 20v0q-26 54 -80 80l-20 -25v0
q-10 -10 -24 -5l-48 20v0q-14 7 -11 23l12 44v0q4 14 19 15q63 -1 113 -31q51 -29 80 -80q30 -50 31 -113q-1 -15 -15 -19l-44 -12v0z" />
</svg>
