<?xml version="1.0" standalone="no"?>
<!DOCTYPE svg PUBLIC "-//W3C//DTD SVG 1.1//EN" "http://www.w3.org/Graphics/SVG/1.1/DTD/svg11.dtd" >
<svg xmlns="http://www.w3.org/2000/svg" xmlns:xlink="http://www.w3.org/1999/xlink" version="1.1" viewBox="-10 -40 532 512">
   <path fill="currentColor"
d="M256 473q70 -1 128 -34v0v0q58 -34 94 -94q34 -61 34 -128t-34 -128q-36 -60 -94 -94q-58 -33 -128 -34q-70 1 -128 34q-58 34 -94 94q-34 61 -34 128t34 128q36 60 94 94q58 33 128 34v0zM176 217q1 34 23 57v0v0q23 22 57 23q20 0 37 -9l-30 -30v0q-14 -17 0 -34
q17 -14 34 0l30 30v0q9 -17 9 -37q-1 -34 -23 -57q-23 -22 -57 -23q-34 1 -57 23q-22 23 -23 57v0zM384 217q-1 41 -22 72l15 15v0q14 17 0 34q-17 14 -34 0l-15 -15v0q-31 21 -72 22q-54 -1 -90 -38q-37 -36 -38 -90q1 -54 38 -91q36 -36 90 -37q54 1 91 37q36 37 37 91v0z
" />
</svg>
