<?xml version="1.0" standalone="no"?>
<!DOCTYPE svg PUBLIC "-//W3C//DTD SVG 1.1//EN" "http://www.w3.org/Graphics/SVG/1.1/DTD/svg11.dtd" >
<svg xmlns="http://www.w3.org/2000/svg" xmlns:xlink="http://www.w3.org/1999/xlink" version="1.1" viewBox="-10 -40 532 512">
   <path fill="currentColor"
d="M256 473q70 -1 128 -34v0v0q58 -34 94 -94q34 -61 34 -128t-34 -128q-36 -60 -94 -94q-58 -33 -128 -34q-70 1 -128 34q-58 34 -94 94q-34 61 -34 128t34 128q36 60 94 94q58 33 128 34v0zM208 157q-2 9 0 12q1 3 8 8q15 9 46 17l2 1v0q31 6 59 23q15 9 24 27t5 40
q-10 39 -45 52q-34 12 -73 6v0v0v0v0q-13 -2 -30 -7t-28 -8q-20 -9 -15 -30q9 -21 30 -16q11 4 26 8q14 4 24 6q31 4 48 -3q14 -7 15 -16t0 -12t-8 -7q-15 -10 -47 -18h-2v0v-1q-30 -6 -58 -23q-15 -9 -24 -27t-5 -40q10 -39 45 -52q33 -12 73 -6q7 1 16 3q10 2 16 4
q21 7 17 29q-7 21 -29 17q-5 -1 -14 -3q-8 -2 -13 -2q-31 -5 -48 3q-15 6 -15 15v0z" />
</svg>
