<?xml version="1.0" standalone="no"?>
<!DOCTYPE svg PUBLIC "-//W3C//DTD SVG 1.1//EN" "http://www.w3.org/Graphics/SVG/1.1/DTD/svg11.dtd" >
<svg xmlns="http://www.w3.org/2000/svg" xmlns:xlink="http://www.w3.org/1999/xlink" version="1.1" viewBox="-10 -40 532 512">
   <path fill="currentColor"
d="M256 473q70 -1 128 -34v0v0q58 -34 94 -94q34 -61 34 -128t-34 -128q-36 -60 -94 -94q-58 -33 -128 -34q-70 1 -128 34q-58 34 -94 94q-34 61 -34 128t34 128q36 60 94 94q58 33 128 34v0zM151 130l41 128l-41 -128l41 128l41 -128v0q6 -16 23 -17q17 1 23 17l41 128v0
l41 -128v0q9 -21 30 -16q21 9 16 30l-64 200v0q-6 16 -23 17q-17 -1 -23 -17l-41 -128v0l-41 128v0q-6 16 -23 17q-17 -1 -23 -17l-64 -200v0q-5 -21 16 -30q21 -5 30 16v0z" />
</svg>
