<?xml version="1.0" standalone="no"?>
<!DOCTYPE svg PUBLIC "-//W3C//DTD SVG 1.1//EN" "http://www.w3.org/Graphics/SVG/1.1/DTD/svg11.dtd" >
<svg xmlns="http://www.w3.org/2000/svg" xmlns:xlink="http://www.w3.org/1999/xlink" version="1.1" viewBox="-10 -40 468 512">
   <path fill="currentColor"
d="M0 185q1 -61 30 -112v0v0q30 -51 82 -82q53 -30 112 -30t112 30q52 31 82 82q29 51 30 112q-1 61 -30 112q-30 51 -82 82q-53 30 -112 30t-112 -30q-52 -31 -82 -82q-29 -51 -30 -112v0zM224 57q-22 2 -24 24v104v0q0 10 7 17l48 48v0q17 14 34 0q14 -17 0 -34l-41 -41v0
v-94v0q-2 -22 -24 -24v0zM224 441q73 -1 132 -36v0v0q58 -36 92 -96v116v0q-1 20 -14 34q-14 13 -34 14h-352v0q-20 -1 -34 -14q-13 -14 -14 -34v-116v0q34 60 92 96q59 35 132 36v0z" />
</svg>
