<?xml version="1.0" standalone="no"?>
<!DOCTYPE svg PUBLIC "-//W3C//DTD SVG 1.1//EN" "http://www.w3.org/Graphics/SVG/1.1/DTD/svg11.dtd" >
<svg xmlns="http://www.w3.org/2000/svg" xmlns:xlink="http://www.w3.org/1999/xlink" version="1.1" viewBox="-10 -40 660 512">
   <path fill="currentColor"
d="M210 46q10 -38 40 -61v0v0q29 -23 69 -24h1v0q48 1 79 33q32 31 33 79v6v0q-1 58 -48 92l-8 6v0l232 161v0q31 23 32 61q-1 31 -22 52t-52 22h-492v0q-31 -1 -52 -22t-22 -52q1 -38 32 -61l270 -187v0v0v0l46 -32v0q19 -15 20 -40v-6v0q-1 -20 -14 -34q-14 -13 -34 -14
h-1v0q-17 0 -30 10t-17 26l-1 4v0q-4 13 -15 19q-11 7 -24 4q-13 -4 -19 -14q-7 -11 -4 -25l1 -3v0zM320 216l-252 175l252 -175l-252 175q-4 3 -4 8q1 9 10 10h492v0q9 -1 10 -10q0 -5 -4 -8l-252 -175v0z" />
</svg>
