<?xml version="1.0" standalone="no"?>
<!DOCTYPE svg PUBLIC "-//W3C//DTD SVG 1.1//EN" "http://www.w3.org/Graphics/SVG/1.1/DTD/svg11.dtd" >
<svg xmlns="http://www.w3.org/2000/svg" xmlns:xlink="http://www.w3.org/1999/xlink" version="1.1" viewBox="-10 -40 532 512">
   <path fill="currentColor"
d="M320 449q-1 15 -14 22q-14 5 -26 -4l-80 -72v0q-8 -7 -8 -18t8 -18l80 -72v0q12 -9 26 -4q13 7 14 22v40v0h16v0q27 -1 45 -19t19 -45v-167v0q-22 -9 -35 -29q-13 -19 -13 -44q1 -34 23 -57q23 -22 57 -23q34 1 57 23q22 23 23 57q0 25 -13 44q-13 20 -35 29v167v0
q-1 54 -37 91q-37 36 -91 37h-16v0v40v0zM456 41q-2 -22 -24 -24q-22 2 -24 24q2 22 24 24q22 -2 24 -24v0zM192 -15q1 -15 14 -22q14 -5 26 4l80 72v0q8 7 8 18t-8 18l-80 72v0q-12 9 -26 4q-13 -7 -14 -22v-40v0h-16v0q-27 1 -45 19t-19 45v167v0q22 9 35 29q13 19 13 44
q-1 34 -23 57q-23 22 -57 23q-34 -1 -57 -23q-22 -23 -23 -57q0 -25 13 -44q13 -20 35 -29v-167v0q1 -54 37 -91q37 -36 91 -37h16v0v-40v0zM56 393q2 22 24 24q22 -2 24 -24q-2 -22 -24 -24q-22 2 -24 24v0z" />
</svg>
