<?xml version="1.0" standalone="no"?>
<!DOCTYPE svg PUBLIC "-//W3C//DTD SVG 1.1//EN" "http://www.w3.org/Graphics/SVG/1.1/DTD/svg11.dtd" >
<svg xmlns="http://www.w3.org/2000/svg" xmlns:xlink="http://www.w3.org/1999/xlink" version="1.1" viewBox="-10 -40 532 512">
   <path fill="currentColor"
d="M306 -37q13 7 14 22v40v0h16v0q54 1 91 37q36 37 37 91v167v0q22 9 35 29q13 19 13 44q-1 34 -23 57q-23 22 -57 23q-34 -1 -57 -23q-22 -23 -23 -57q0 -25 13 -44q13 -20 35 -29v-167v0q-1 -27 -19 -45t-45 -19h-16v0v40v0q-1 15 -14 22q-14 5 -26 -4l-80 -72v0
q-8 -7 -8 -18t8 -18l80 -72v0q12 -9 26 -4v0zM104 41q-2 -22 -24 -24q-22 2 -24 24q2 22 24 24q22 -2 24 -24v0zM112 114v206v-206v206q22 9 35 29q13 19 13 44q-1 34 -23 57q-23 22 -57 23q-34 -1 -57 -23q-22 -23 -23 -57q0 -25 13 -44q13 -20 35 -29v-206v0
q-22 -9 -35 -29q-13 -19 -13 -44q1 -34 23 -57q23 -22 57 -23q34 1 57 23q22 23 23 57q0 25 -13 44q-13 20 -35 29v0zM104 393q-2 -22 -24 -24q-22 2 -24 24q2 22 24 24q22 -2 24 -24v0zM432 417q22 -2 24 -24q-2 -22 -24 -24q-22 2 -24 24q2 22 24 24v0z" />
</svg>
