<?xml version="1.0" standalone="no"?>
<!DOCTYPE svg PUBLIC "-//W3C//DTD SVG 1.1//EN" "http://www.w3.org/Graphics/SVG/1.1/DTD/svg11.dtd" >
<svg xmlns="http://www.w3.org/2000/svg" xmlns:xlink="http://www.w3.org/1999/xlink" version="1.1" viewBox="-10 -40 394 512">
   <path fill="currentColor"
d="M255 1q3 -13 -4 -24v0v0q-6 -11 -19 -15q-14 -3 -25 4q-10 6 -14 19l-11 45v0q-66 15 -107 66q-42 51 -43 121q0 44 18 81q18 38 49 64l-18 71v0q-3 13 4 24q6 11 19 15q14 3 25 -4q10 -6 14 -19l13 -52v0q14 5 28 8l-7 28v0q-3 13 4 24q6 11 19 15q14 3 25 -4
q10 -6 14 -19l11 -42v0q50 -7 89 -36q11 -9 13 -21q2 -13 -6 -24q-9 -11 -21 -13q-13 -1 -24 6q-16 12 -34 19l54 -217v0q15 -1 25 -13q7 -11 6 -24q-2 -12 -13 -21h-1l-2 -2l15 -60v0q3 -13 -4 -24q-6 -11 -19 -15q-14 -3 -25 4q-10 6 -14 19l-12 48v0q-14 -4 -28 -6l6 -26
v0zM163 104l-46 184l46 -184l-46 184q-20 -31 -21 -71q0 -37 19 -66q18 -30 48 -47v0zM172 334l61 -245l-61 245l61 -245q15 1 29 5l-62 249v0q-15 -3 -28 -9v0z" />
</svg>
