<?xml version="1.0" standalone="no"?>
<!DOCTYPE svg PUBLIC "-//W3C//DTD SVG 1.1//EN" "http://www.w3.org/Graphics/SVG/1.1/DTD/svg11.dtd" >
<svg xmlns="http://www.w3.org/2000/svg" xmlns:xlink="http://www.w3.org/1999/xlink" version="1.1" viewBox="-10 -40 532 512">
   <path fill="currentColor"
d="M256 409q72 -1 129 -28v0v0q58 -28 92 -75v0v0q34 -47 35 -105q-1 -58 -35 -105t-92 -75q-57 -27 -129 -28q-72 1 -129 28q-58 28 -92 75t-35 105q1 69 48 121q-5 37 -22 63q-8 14 -15 21q-3 4 -5 6q0 1 -1 1v1v0v0v0v0v0v0v0v0v0v0q-7 7 -4 17q5 10 15 10q44 -2 82 -19
q35 -16 54 -31q48 18 104 18v0zM128 121q0 -14 9 -23v0v0q9 -9 23 -9t23 9t9 23t-9 23t-23 9t-23 -9t-9 -23v0zM296 105q12 0 19 10l96 128v0q8 12 3 25q-7 12 -22 13h-192h-80q-15 -1 -22 -14q-5 -14 4 -25l40 -48v0q7 -9 18 -9t18 9l21 24v0l78 -103v0q7 -10 19 -10v0z
" />
</svg>
