<?xml version="1.0" standalone="no"?>
<!DOCTYPE svg PUBLIC "-//W3C//DTD SVG 1.1//EN" "http://www.w3.org/Graphics/SVG/1.1/DTD/svg11.dtd" >
<svg xmlns="http://www.w3.org/2000/svg" xmlns:xlink="http://www.w3.org/1999/xlink" version="1.1" viewBox="-10 -40 458 512">
   <path fill="currentColor"
d="M96 217q2 -68 47 -113v0v0q45 -45 113 -47q63 1 107 41q10 9 23 8t22 -11t8 -23t-11 -22q-61 -55 -149 -57q-63 1 -113 31q-51 29 -80 80q-30 50 -31 113q1 63 31 113q29 51 80 80q50 30 113 31q88 -2 149 -57q10 -9 11 -22t-8 -23q-10 -10 -22 -11q-13 -1 -23 8
q-44 40 -107 41v-96v0v-9v0q2 -21 23 -23q7 0 13 4l10 7v0q12 7 24 4q13 -2 21 -13q7 -12 4 -24q-2 -13 -13 -21l-10 -6v0q-22 -15 -49 -15q-18 0 -35 7q-8 -7 -20 -7q-14 0 -23 9t-9 23v55v0v9v0v83v0q-43 -20 -69 -58q-26 -39 -27 -89v0z" />
</svg>
