<?xml version="1.0" standalone="no"?>
<!DOCTYPE svg PUBLIC "-//W3C//DTD SVG 1.1//EN" "http://www.w3.org/Graphics/SVG/1.1/DTD/svg11.dtd" >
<svg xmlns="http://www.w3.org/2000/svg" xmlns:xlink="http://www.w3.org/1999/xlink" version="1.1" viewBox="-10 -40 596 512">
   <path fill="currentColor"
d="M64 -39q-27 1 -45 19v0v0q-18 18 -19 45v288v0q1 27 19 45t45 19h176v0l-11 32v0h-69v0q-14 0 -23 9t-9 23t9 23t23 9h256v0q14 0 23 -9t9 -23t-9 -23t-23 -9h-69v0l-11 -32v0h176v0q27 -1 45 -19t19 -45v-288v0q-1 -27 -19 -45t-45 -19h-160v0v64v0h160v0v224v0h-448v0
v-224v0h160v0v-64v0h-160v0zM312 -15q-2 -22 -24 -24q-22 2 -24 24v150v0l-39 -39v0q-17 -14 -34 0q-14 17 0 34l80 80v0q17 14 34 0l80 -80v0q14 -17 0 -34q-17 -14 -34 0l-39 39v0v-150v0z" />
</svg>
