<?xml version="1.0" standalone="no"?>
<!DOCTYPE svg PUBLIC "-//W3C//DTD SVG 1.1//EN" "http://www.w3.org/Graphics/SVG/1.1/DTD/svg11.dtd" >
<svg xmlns="http://www.w3.org/2000/svg" xmlns:xlink="http://www.w3.org/1999/xlink" version="1.1" viewBox="-10 -40 468 512">
   <path fill="currentColor"
d="M0 41q1 -20 14 -34v0v0q14 -13 34 -14h96v0q20 1 34 14q13 14 14 34v96v0q-1 20 -14 34q-14 13 -34 14h-16v0v96v0q0 14 9 23t23 9h96v0v-16v0q1 -20 14 -34q14 -13 34 -14h96v0q20 1 34 14q13 14 14 34v96v0q-1 20 -14 34q-14 13 -34 14h-96v0q-20 -1 -34 -14
q-13 -14 -14 -34v-16v0h-96v0q-41 -1 -68 -28t-28 -68v-96v0h-16v0q-20 -1 -34 -14q-13 -14 -14 -34v-96v0z" />
</svg>
