<?xml version="1.0" standalone="no"?>
<!DOCTYPE svg PUBLIC "-//W3C//DTD SVG 1.1//EN" "http://www.w3.org/Graphics/SVG/1.1/DTD/svg11.dtd" >
<svg xmlns="http://www.w3.org/2000/svg" xmlns:xlink="http://www.w3.org/1999/xlink" version="1.1" viewBox="-10 -40 596 512">
   <path fill="currentColor"
d="M294 6q10 -13 26 -13h224v0q14 0 23 9t9 23t-9 23t-23 9h-208v0l-86 115v0q-10 13 -26 13h-192v0q-14 0 -23 -9t-9 -23t9 -23t23 -9h176v0l86 -115v0zM142 281h-110h110h-110q-14 0 -23 -9t-9 -23t9 -23t23 -9h512v0q14 0 23 9t9 23t-9 23t-23 9h-327v0l57 96v0h270v0
q14 0 23 9t9 23t-9 23t-23 9h-288v0q-18 -1 -27 -15l-87 -145v0z" />
</svg>
