<?xml version="1.0" standalone="no"?>
<!DOCTYPE svg PUBLIC "-//W3C//DTD SVG 1.1//EN" "http://www.w3.org/Graphics/SVG/1.1/DTD/svg11.dtd" >
<svg xmlns="http://www.w3.org/2000/svg" xmlns:xlink="http://www.w3.org/1999/xlink" version="1.1" viewBox="-10 -40 532 512">
   <path fill="currentColor"
d="M133 -34l-64 64l64 -64l-64 64q-7 7 -4 17q5 9 15 10h128v0q10 0 15 -10q3 -10 -4 -17l-64 -64v0q-11 -10 -22 0v0zM64 89q-27 1 -45 19v0v0q-18 18 -19 45v256v0q1 27 19 45t45 19h384v0q27 -1 45 -19t19 -45v-256v0q-1 -27 -19 -45t-45 -19h-384v0zM160 185q27 1 42 24
q12 24 0 48q-15 23 -42 24q-27 -1 -42 -24q-12 -24 0 -48q15 -23 42 -24v0zM80 361q1 -20 14 -34v0v0q14 -13 34 -14h64v0q20 1 34 14q13 14 14 34v16v0q0 14 -9 23t-23 9h-96v0q-14 0 -23 -9t-9 -23v-16v0zM272 361q1 -20 14 -34v0v0q14 -13 34 -14h64v0q20 1 34 14
q13 14 14 34v16v0q0 14 -9 23t-23 9h-96v0q-14 0 -23 -9t-9 -23v-16v0zM304 233q1 -27 24 -42q24 -12 48 0q23 15 24 42q-1 27 -24 42q-24 12 -48 0q-23 -15 -24 -42v0zM357 52q11 10 22 0l64 -64v0q7 -7 4 -17q-5 -9 -15 -10h-128v0q-10 0 -15 10q-3 10 4 17l64 64v0z" />
</svg>
