<?xml version="1.0" standalone="no"?>
<!DOCTYPE svg PUBLIC "-//W3C//DTD SVG 1.1//EN" "http://www.w3.org/Graphics/SVG/1.1/DTD/svg11.dtd" >
<svg xmlns="http://www.w3.org/2000/svg" xmlns:xlink="http://www.w3.org/1999/xlink" version="1.1" viewBox="-10 -40 596 512">
   <path fill="currentColor"
d="M317 211q8 6 19 6t19 -6l220 -163v0q-4 -24 -21 -39t-42 -16h-352v0q-25 1 -42 16t-21 39l220 163v0zM374 236q-17 13 -38 13t-38 -13l-202 -149v0v194v0q1 27 19 45t45 19h352v0q27 -1 45 -19t19 -45v-194v0l-202 149v0zM48 81q-2 -22 -24 -24q-22 2 -24 24v224v0
q1 58 40 96q38 39 96 40h320v0q22 -2 24 -24q-2 -22 -24 -24h-320v0q-37 -1 -62 -26t-26 -62v-224v0z" />
</svg>
