<?xml version="1.0" standalone="no"?>
<!DOCTYPE svg PUBLIC "-//W3C//DTD SVG 1.1//EN" "http://www.w3.org/Graphics/SVG/1.1/DTD/svg11.dtd" >
<svg xmlns="http://www.w3.org/2000/svg" xmlns:xlink="http://www.w3.org/1999/xlink" version="1.1" viewBox="-10 -40 532 512">
   <path fill="currentColor"
d="M40 25q-25 1 -36 24q-10 23 6 43l102 113v0v124v0q0 16 13 26l64 48v0q16 11 33 3q17 -10 18 -29v-172v0l102 -113v0q16 -20 7 -43q-12 -23 -37 -24h-272v0zM352 345q-14 0 -23 9v0v0q-9 9 -9 23t9 23t23 9h128v0q14 0 23 -9t9 -23t-9 -23t-23 -9h-128v0zM320 217
q0 14 9 23v0v0q9 9 23 9h128v0q14 0 23 -9t9 -23t-9 -23t-23 -9h-128v0q-14 0 -23 9t-9 23v0zM416 25q-14 0 -23 9v0v0q-9 9 -9 23t9 23t23 9h64v0q14 0 23 -9t9 -23t-9 -23t-23 -9h-64v0z" />
</svg>
