<?xml version="1.0" standalone="no"?>
<!DOCTYPE svg PUBLIC "-//W3C//DTD SVG 1.1//EN" "http://www.w3.org/Graphics/SVG/1.1/DTD/svg11.dtd" >
<svg xmlns="http://www.w3.org/2000/svg" xmlns:xlink="http://www.w3.org/1999/xlink" version="1.1" viewBox="-10 -40 596 512">
   <path fill="currentColor"
d="M64 -7q-27 1 -45 19v0v0q-18 18 -19 45v320v0q1 27 19 45t45 19h232v0q-27 -32 -36 -75q-16 11 -36 11q-27 -1 -45 -19t-19 -45q1 -27 19 -45t45 -19q26 1 44 17q19 -50 63 -81t101 -32q8 0 16 1v-20v0q0 -26 -19 -45l-77 -77v0q-19 -19 -45 -19h-243v0zM64 89
q0 -14 9 -23v0v0q9 -9 23 -9h192v0q14 0 23 9t9 23v64v0q0 14 -9 23t-23 9h-192v0q-14 0 -23 -9t-9 -23v-64v0zM432 473q39 0 72 -19v0v0q33 -19 53 -53q19 -34 19 -72t-19 -72q-20 -34 -53 -53t-72 -19t-72 19t-53 53q-19 34 -19 72t19 72q20 34 53 53t72 19v0zM491 292
l-36 37l36 -37l-36 37l36 37v0q10 11 0 22q-11 10 -22 0l-37 -36v0l-37 36v0q-11 10 -22 0q-10 -11 0 -22l36 -37v0l-36 -37v0q-10 -11 0 -22q11 -10 22 0l37 36v0l37 -36v0q11 -10 22 0q10 11 0 22v0z" />
</svg>
