<?xml version="1.0" standalone="no"?>
<!DOCTYPE svg PUBLIC "-//W3C//DTD SVG 1.1//EN" "http://www.w3.org/Graphics/SVG/1.1/DTD/svg11.dtd" >
<svg xmlns="http://www.w3.org/2000/svg" xmlns:xlink="http://www.w3.org/1999/xlink" version="1.1" viewBox="-10 -40 404 512">
   <path fill="currentColor"
d="M315 -7q-30 0 -54 16v0v0q-23 16 -35 43l-55 133v0h-107v0q-14 0 -23 9t-9 23t9 23t23 9h80v0l-45 108v0q-9 19 -30 20h-37v0q-14 0 -23 9t-9 23t9 23t23 9h37v0q30 0 54 -16q23 -16 35 -43l55 -133v0h107v0q14 0 23 -9t9 -23t-9 -23t-23 -9h-80v0l45 -108v0
q9 -19 30 -20h37v0q14 0 23 -9t9 -23t-9 -23t-23 -9h-37v0z" />
</svg>
