<?xml version="1.0" standalone="no"?>
<!DOCTYPE svg PUBLIC "-//W3C//DTD SVG 1.1//EN" "http://www.w3.org/Graphics/SVG/1.1/DTD/svg11.dtd" >
<svg xmlns="http://www.w3.org/2000/svg" xmlns:xlink="http://www.w3.org/1999/xlink" version="1.1" viewBox="-10 -40 532 512">
   <path fill="currentColor"
d="M448 441h-384h384h-384q-27 -1 -45 -19t-19 -45v-320v0q1 -27 19 -45t45 -19h128v0q32 1 51 26l19 25v0q10 13 26 13h160v0q27 1 45 19t19 45v256v0q-1 27 -19 45t-45 19v0zM288 137v160v-160v160q0 10 9 14t17 -1l54 -41v0l54 41v0q8 5 17 1t9 -14v-160v0
q-1 -15 -16 -16h-128v0q-15 1 -16 16v0z" />
</svg>
