<?xml version="1.0" standalone="no"?>
<!DOCTYPE svg PUBLIC "-//W3C//DTD SVG 1.1//EN" "http://www.w3.org/Graphics/SVG/1.1/DTD/svg11.dtd" >
<svg xmlns="http://www.w3.org/2000/svg" xmlns:xlink="http://www.w3.org/1999/xlink" version="1.1" viewBox="-10 -40 532 512">
   <path fill="currentColor"
d="M512 377q-1 27 -19 45v0v0q-18 18 -45 19h-384v0q-27 -1 -45 -19t-19 -45v-320v0q1 -27 19 -45t45 -19h128v0q32 1 51 26l19 25v0q10 13 26 13h160v0q27 1 45 19t19 45v256v0zM144 214q0 25 18 44l83 82v0q11 10 22 0l83 -82v0q17 -19 18 -44q-1 -26 -18 -43t-44 -18
q-25 0 -43 18l-7 7v0l-8 -7v0q-18 -18 -43 -18q-26 1 -43 18q-18 17 -18 43v0z" />
</svg>
