<?xml version="1.0" standalone="no"?>
<!DOCTYPE svg PUBLIC "-//W3C//DTD SVG 1.1//EN" "http://www.w3.org/Graphics/SVG/1.1/DTD/svg11.dtd" >
<svg xmlns="http://www.w3.org/2000/svg" xmlns:xlink="http://www.w3.org/1999/xlink" version="1.1" viewBox="-11 0 406 512">
   <path fill="currentColor"
d="M9 -29q9 -10 23 -10h320v0q14 0 23 10q10 10 9 24l-29 404v0q-3 32 -25 53q-22 20 -55 21h-166v0q-33 -1 -55 -21q-22 -21 -25 -53l-29 -404v0q-1 -14 9 -24v0zM66 25l27 369l-27 -369l27 369q2 14 16 15h166v0q14 -1 16 -15l27 -369v0h-252v0z" />
</svg>
