<?xml version="1.0" standalone="no"?>
<!DOCTYPE svg PUBLIC "-//W3C//DTD SVG 1.1//EN" "http://www.w3.org/Graphics/SVG/1.1/DTD/svg11.dtd" >
<svg xmlns="http://www.w3.org/2000/svg" xmlns:xlink="http://www.w3.org/1999/xlink" version="1.1" viewBox="-10 -40 468 512">
   <path fill="currentColor"
d="M64 -7q-27 1 -45 19v0v0q-18 18 -19 45v160v0v160v0q1 27 19 45t45 19h64h256q27 -1 45 -19t19 -45v-160v0v-160v0q-1 -27 -19 -45t-45 -19h-64h-256zM64 57h32h-32h32v128v0h-32v0v-128v0zM64 249h32h-32h32v128v0h-32v0v-128v0zM160 377v-128v128v-128h32v0v128v0h-32
v0zM256 377v-128v128v-128h32v0v128v0h-32v0zM352 377v-128v128v-128h32v0v128v0h-32v0zM384 185h-32h32h-32v-128v0h32v0v128v0zM288 57v128v-128v128h-32v0v-128v0h32v0zM192 57v128v-128v128h-32v0v-128v0h32v0z" />
</svg>
