<?xml version="1.0" standalone="no"?>
<!DOCTYPE svg PUBLIC "-//W3C//DTD SVG 1.1//EN" "http://www.w3.org/Graphics/SVG/1.1/DTD/svg11.dtd" >
<svg xmlns="http://www.w3.org/2000/svg" xmlns:xlink="http://www.w3.org/1999/xlink" version="1.1" viewBox="-10 -40 532 512">
   <path fill="currentColor"
d="M0 129q0 -17 12 -28v0v0q11 -12 28 -12h200h80q15 -1 16 -16q-1 -15 -16 -16h-56v0l4 -4q0 -1 1 -2l16 -19v0q19 -22 49 -23h38v0q59 1 98 46l5 6v0q36 44 37 102v118v0q-1 54 -37 91q-37 36 -91 37h-64h-32q-20 -1 -34 -14q-13 -14 -14 -34q0 -19 12 -32q-19 -2 -31 -15
q-13 -14 -13 -33t12 -32q-19 -2 -31 -15q-13 -14 -13 -33t12 -32h-148v0q-17 0 -28 -12q-12 -11 -12 -28v0z" />
</svg>
