<?xml version="1.0" standalone="no"?>
<!DOCTYPE svg PUBLIC "-//W3C//DTD SVG 1.1//EN" "http://www.w3.org/Graphics/SVG/1.1/DTD/svg11.dtd" >
<svg xmlns="http://www.w3.org/2000/svg" xmlns:xlink="http://www.w3.org/1999/xlink" version="1.1" viewBox="-10 -40 532 512">
   <path fill="currentColor"
d="M512 129q0 -17 -12 -28v0v0q-11 -12 -28 -12h-200h-80q-15 -1 -16 -16q1 -15 16 -16h56v0l-4 -4q0 -1 -1 -2l-16 -19v0q-19 -22 -49 -23h-38v0q-59 1 -98 46l-5 6v0q-36 44 -37 102v118v0q1 54 37 91q37 36 91 37h64h32q20 -1 34 -14q13 -14 14 -34q0 -19 -12 -32
q19 -2 31 -15q13 -14 13 -33t-12 -32q19 -2 31 -15q13 -14 13 -33t-12 -32h148v0q17 0 28 -12q12 -11 12 -28v0z" />
</svg>
