<?xml version="1.0" standalone="no"?>
<!DOCTYPE svg PUBLIC "-//W3C//DTD SVG 1.1//EN" "http://www.w3.org/Graphics/SVG/1.1/DTD/svg11.dtd" >
<svg xmlns="http://www.w3.org/2000/svg" xmlns:xlink="http://www.w3.org/1999/xlink" version="1.1" viewBox="-10 -40 597 512">
   <path fill="currentColor"
d="M372 193q-10 7 -8 18l4 21v0v2q-1 14 -15 15h-130v0q-14 -1 -15 -15v-2l4 -21v0q2 -11 -8 -18q-27 -18 -44 -44q-16 -27 -16 -60q2 -54 42 -91q41 -36 102 -37q61 1 102 37q40 37 42 91q0 33 -16 60q-17 26 -44 44v0zM240 137q14 0 23 -9v0v0q9 -9 9 -23t-9 -23t-23 -9
t-23 9t-9 23t9 23t23 9v0zM368 105q0 -14 -9 -23v0v0q-9 -9 -23 -9t-23 9t-9 23t9 23t23 9t23 -9t9 -23v0zM568 297q10 14 8 30v0v0q-3 16 -16 26l-127 94v0q-36 26 -81 26h-160h-160q-14 0 -23 -9t-9 -23v-64v0q0 -14 9 -23t23 -9h37v0l45 -36v0q35 -28 80 -28h78h80
q14 0 23 9t9 23t-9 23t-23 9h-64h-16q-15 1 -16 16q1 15 16 16h121v0l119 -88v0q14 -10 30 -8q16 3 26 16v0zM194 345v0v0v0h-1v0v0h1v0z" />
</svg>
