<?xml version="1.0" standalone="no"?>
<!DOCTYPE svg PUBLIC "-//W3C//DTD SVG 1.1//EN" "http://www.w3.org/Graphics/SVG/1.1/DTD/svg11.dtd" >
<svg xmlns="http://www.w3.org/2000/svg" xmlns:xlink="http://www.w3.org/1999/xlink" version="1.1" viewBox="-10 -40 596 512">
   <path fill="currentColor"
d="M0 57q1 -27 19 -45v0v0q18 -18 45 -19h448v0q27 1 45 19t19 45v320v0q-1 27 -19 45t-45 19h-448v0q-27 -1 -45 -19t-19 -45v-320v0zM304 145v144v-144v144q2 22 24 24h56v0q41 -1 68 -28t28 -68q-1 -41 -28 -68t-68 -28h-56v0q-22 2 -24 24v0zM384 169q20 1 34 14v0v0
q13 14 14 34q-1 20 -14 34q-14 13 -34 14h-32v0v-96v0h32v0zM160 145q-2 -22 -24 -24q-22 2 -24 24v72v0v72v0q2 22 24 24q22 -2 24 -24v-48v0h64v0v48v0q2 22 24 24q22 -2 24 -24v-72v0v-72v0q-2 -22 -24 -24q-22 2 -24 24v48v0h-64v0v-48v0z" />
</svg>
