<?xml version="1.0" standalone="no"?>
<!DOCTYPE svg PUBLIC "-//W3C//DTD SVG 1.1//EN" "http://www.w3.org/Graphics/SVG/1.1/DTD/svg11.dtd" >
<svg xmlns="http://www.w3.org/2000/svg" xmlns:xlink="http://www.w3.org/1999/xlink" version="1.1" viewBox="-10 -40 597 512">
   <path fill="currentColor"
d="M576 217q-1 13 -10 22v0v0q-9 9 -22 10h-32v0l1 160v0q-1 27 -19 45t-45 19h-321v0q-27 -1 -45 -19t-19 -45v-160v0h-32v0q-14 -1 -23 -10t-9 -22q0 -14 10 -24l256 -224v0q11 -9 22 -8q12 0 21 7l256 225v0q12 10 11 24v0zM352 185q-1 -36 -32 -55q-32 -18 -64 0
q-31 19 -32 55q1 36 32 55q32 18 64 0q31 -19 32 -55v0zM256 281q-34 1 -57 23v0v0q-22 23 -23 57q1 15 16 16h192v0q15 -1 16 -16q-1 -34 -23 -57q-23 -22 -57 -23h-64v0z" />
</svg>
