<?xml version="1.0" standalone="no"?>
<!DOCTYPE svg PUBLIC "-//W3C//DTD SVG 1.1//EN" "http://www.w3.org/Graphics/SVG/1.1/DTD/svg11.dtd" >
<svg xmlns="http://www.w3.org/2000/svg" xmlns:xlink="http://www.w3.org/1999/xlink" version="1.1" viewBox="-10 -40 660 512">
   <path fill="currentColor"
d="M256 425v-187v187v-187q0 -21 16 -35l144 -132v0q14 -13 32 -13t33 13l144 132v0q15 14 15 35v187v0q0 20 -14 34q-14 13 -34 14h-288v0q-20 -1 -34 -14q-13 -14 -14 -34v0zM424 233q-22 2 -24 24v48v0q2 22 24 24h48v0q22 -2 24 -24v-48v0q-2 -22 -24 -24h-48v0zM24 -39
q-22 2 -24 24v72v0v8v0v94v0q0 26 19 45l45 45v0v176v0q1 20 14 34q14 13 34 14h128v0q-15 -21 -16 -48v-187v0q1 -35 26 -59l102 -93v0v-21v0v-8v0v-72v0q-2 -22 -24 -24h-48v0q-22 2 -24 24v72v0h-32v0v-72v0q-2 -22 -24 -24h-48v0q-22 2 -24 24v72v0h-32v0v-72v0
q-2 -22 -24 -24h-48v0zM176 121q17 0 28 12v0v0q12 11 12 28v24v0q-1 15 -16 16h-48v0q-15 -1 -16 -16v-24v0q0 -17 12 -28q11 -12 28 -12v0z" />
</svg>
