<?xml version="1.0" standalone="no"?>
<!DOCTYPE svg PUBLIC "-//W3C//DTD SVG 1.1//EN" "http://www.w3.org/Graphics/SVG/1.1/DTD/svg11.dtd" >
<svg xmlns="http://www.w3.org/2000/svg" xmlns:xlink="http://www.w3.org/1999/xlink" version="1.1" viewBox="-10 -40 596 512">
   <path fill="currentColor"
d="M0 89q1 -27 19 -45v0v0q18 -18 45 -19h448v0q27 1 45 19t19 45v256v0q-1 27 -19 45t-45 19h-448v0q-27 -1 -45 -19t-19 -45v-256v0zM328 153q-13 0 -20 11l-56 84v0l-17 -22v0q-8 -9 -19 -9t-19 9l-64 80v0q-9 12 -3 25q7 13 22 14h80h192q14 0 21 -13q6 -12 -1 -24
l-96 -144v0q-7 -11 -20 -11v0zM160 185q14 0 23 -9v0v0q9 -9 9 -23t-9 -23t-23 -9t-23 9t-9 23t9 23t23 9v0z" />
</svg>
