<?xml version="1.0" standalone="no"?>
<!DOCTYPE svg PUBLIC "-//W3C//DTD SVG 1.1//EN" "http://www.w3.org/Graphics/SVG/1.1/DTD/svg11.dtd" >
<svg xmlns="http://www.w3.org/2000/svg" xmlns:xlink="http://www.w3.org/1999/xlink" version="1.1" viewBox="-10 -40 596 512">
   <path fill="currentColor"
d="M96 57v224v-224v224q1 27 19 45t45 19h352v0q27 -1 45 -19t19 -45v-224v0q-1 -27 -19 -45t-45 -19h-352v0q-27 1 -45 19t-19 45v0zM336 57q36 1 55 32q18 32 0 64q-19 31 -55 32q-36 -1 -55 -32q-18 -32 0 -64q19 -31 55 -32v0zM270 217h132h-132h132q20 0 33 13t13 33
q-2 16 -18 18h-188v0q-16 -2 -18 -18q0 -20 13 -33t33 -13v0zM48 81q-2 -22 -24 -24q-22 2 -24 24v224v0q1 58 40 96q38 39 96 40h320v0q22 -2 24 -24q-2 -22 -24 -24h-320v0q-37 -1 -62 -26t-26 -62v-224v0z" />
</svg>
