<?xml version="1.0" standalone="no"?>
<!DOCTYPE svg PUBLIC "-//W3C//DTD SVG 1.1//EN" "http://www.w3.org/Graphics/SVG/1.1/DTD/svg11.dtd" >
<svg xmlns="http://www.w3.org/2000/svg" xmlns:xlink="http://www.w3.org/1999/xlink" version="1.1" viewBox="-10 -40 650 512">
   <path fill="currentColor"
d="M320 153q14 0 23 -9v0v0q9 -9 9 -23t-9 -23t-23 -9t-23 9t-9 23t9 23t23 9v0zM160 217q14 0 23 -9v0v0q9 -9 9 -23t-9 -23t-23 -9t-23 9t-9 23t9 23t23 9v0zM512 185q0 -14 -9 -23v0v0q-9 -9 -23 -9t-23 9t-9 23t9 23t23 9t23 -9t9 -23v0zM544 377q14 0 23 -9v0v0
q9 -9 9 -23t-9 -23t-23 -9t-23 9t-9 23t9 23t23 9v0zM128 345q0 -14 -9 -23v0v0q-9 -9 -23 -9t-23 9t-9 23t9 23t23 9t23 -9t9 -23v0zM224 313q-14 0 -23 9v0v0q-9 9 -9 23t9 23t23 9h192v0q14 0 23 -9t9 -23t-9 -23t-23 -9h-192v0z" />
</svg>
