<?xml version="1.0" standalone="no"?>
<!DOCTYPE svg PUBLIC "-//W3C//DTD SVG 1.1//EN" "http://www.w3.org/Graphics/SVG/1.1/DTD/svg11.dtd" >
<svg xmlns="http://www.w3.org/2000/svg" xmlns:xlink="http://www.w3.org/1999/xlink" version="1.1" viewBox="-10 -40 596 512">
   <path fill="currentColor"
d="M291 -39h-3h3h-3q-80 1 -145 24q-65 24 -104 63q-38 40 -39 89q1 43 31 80q30 36 83 60v1v0l47 23v0q30 17 31 51q-1 24 -17 40t-40 17h-71v0q-14 0 -23 9t-9 23t9 23t23 9h71v0q51 -1 86 -35q34 -35 35 -86q0 -21 -7 -41q19 2 39 2q80 -1 145 -24t104 -63q38 -40 39 -89
q-1 -58 -54 -102q-52 -45 -137 -64l6 15v0l26 10v0q29 13 31 45q0 8 -3 16q64 32 67 80q-2 48 -66 79q-63 32 -158 33q-95 -1 -158 -33q-64 -31 -66 -79q1 -39 46 -68q44 -29 115 -40q7 -24 30 -33l26 -10v0l10 -25v0zM351 -29q-4 -9 -15 -10q-11 1 -15 10l-15 40v0l-40 15
v0q-10 4 -10 15q1 11 10 15l40 15v0l15 40v0q4 10 15 10q11 -1 15 -10l15 -40v0l40 -15v0q10 -4 10 -15q-1 -11 -10 -15l-40 -15v0l-15 -40v0zM496 313q-11 1 -15 10l-15 40v0l-40 15v0q-10 4 -10 15q1 11 10 15l40 15v0l15 40v0q4 10 15 10q11 -1 15 -10l15 -40v0l40 -15v0
q10 -4 10 -15q-1 -11 -10 -15l-40 -15v0l-15 -40v0q-4 -10 -15 -10v0z" />
</svg>
