<?xml version="1.0" standalone="no"?>
<!DOCTYPE svg PUBLIC "-//W3C//DTD SVG 1.1//EN" "http://www.w3.org/Graphics/SVG/1.1/DTD/svg11.dtd" >
<svg xmlns="http://www.w3.org/2000/svg" xmlns:xlink="http://www.w3.org/1999/xlink" version="1.1" viewBox="-11 0 662 512">
   <path fill="currentColor"
d="M39 -34q-19 -12 -34 4q-12 19 4 34l592 464v0q19 12 34 -4q12 -19 -4 -34l-99 -77v0q35 -22 55 -57q21 -35 21 -79q-2 -68 -47 -113t-113 -47h-64v0q-14 0 -23 9t-9 23t9 23t23 9h64v0q41 1 68 28t28 68q-1 33 -19 58q-19 24 -49 34l-76 -60v0h16v0q14 0 23 -9t9 -23
t-9 -23t-23 -9h-98v0l-82 -64v0h20v0q14 0 23 -9t9 -23t-9 -23t-23 -9h-64v0q-17 0 -33 3l-120 -94v0zM121 152l-50 -39l50 39l-50 -39q-38 43 -39 104q2 68 47 113t113 47h64v0q14 0 23 -9t9 -23t-9 -23t-23 -9h-64v0q-41 -1 -68 -28t-28 -68q1 -38 25 -65v0z" />
</svg>
