<?xml version="1.0" standalone="no"?>
<!DOCTYPE svg PUBLIC "-//W3C//DTD SVG 1.1//EN" "http://www.w3.org/Graphics/SVG/1.1/DTD/svg11.dtd" >
<svg xmlns="http://www.w3.org/2000/svg" xmlns:xlink="http://www.w3.org/1999/xlink" version="1.1" viewBox="-10 -40 404 512">
   <path fill="currentColor"
d="M128 25q0 -14 -9 -23v0v0q-9 -9 -23 -9t-23 9t-9 23v150v0l-41 11v0q-13 4 -19 15q-6 12 -3 25q4 13 15 19q12 6 25 3l23 -7v0v168v0q0 14 9 23t23 9h256v0q14 0 23 -9t9 -23t-9 -23t-23 -9h-224v0v-154v0l137 -39v0q13 -4 19 -15q6 -12 3 -25q-4 -13 -15 -19
q-12 -6 -25 -3l-119 34v0v-131v0z" />
</svg>
