<?xml version="1.0" standalone="no"?>
<!DOCTYPE svg PUBLIC "-//W3C//DTD SVG 1.1//EN" "http://www.w3.org/Graphics/SVG/1.1/DTD/svg11.dtd" >
<svg xmlns="http://www.w3.org/2000/svg" xmlns:xlink="http://www.w3.org/1999/xlink" version="1.1" viewBox="-10 -40 596 512">
   <path fill="currentColor"
d="M0 25q1 -27 19 -45v0v0q18 -18 45 -19h256v0q27 1 45 19t19 45v135v0q-56 16 -92 62q-35 45 -36 107q0 45 20 82t54 61q-5 1 -10 1h-256v0q-27 -1 -45 -19t-19 -45v-384v0zM64 105q1 15 16 16h224v0q15 -1 16 -16q-1 -15 -16 -16h-224v0q-15 1 -16 16v0zM80 185
q-15 1 -16 16q1 15 16 16h160v0q15 -1 16 -16q-1 -15 -16 -16h-160v0zM80 281q-15 1 -16 16q1 15 16 16h96v0q15 -1 16 -16q-1 -15 -16 -16h-96v0zM288 329q0 -39 19 -72v0v0q19 -33 53 -53q34 -19 72 -19t72 19q34 20 53 53t19 72t-19 72t-53 53q-34 19 -72 19t-72 -19
q-34 -20 -53 -53t-19 -72v0zM477 286l-61 60l61 -60l-61 60l-29 -28v0q-11 -10 -22 0q-10 11 0 22l40 40v0q11 10 22 0l72 -72v0q10 -11 0 -22q-11 -10 -22 0v0z" />
</svg>
