<?xml version="1.0" standalone="no"?>
<!DOCTYPE svg PUBLIC "-//W3C//DTD SVG 1.1//EN" "http://www.w3.org/Graphics/SVG/1.1/DTD/svg11.dtd" >
<svg xmlns="http://www.w3.org/2000/svg" xmlns:xlink="http://www.w3.org/1999/xlink" version="1.1" viewBox="-10 -40 468 512">
   <path fill="currentColor"
d="M0 25v32v-32v32h448v0v-32v0q-1 -27 -19 -45t-45 -19h-320v0q-27 1 -45 19t-19 45v0zM0 89v320v-320v320q1 27 19 45t45 19h320v0q27 -1 45 -19t19 -45v-320v0h-448v0zM96 185q1 -15 16 -16h224v0q15 1 16 16q-1 15 -16 16h-224v0q-15 -1 -16 -16v0zM96 281q1 -15 16 -16
h224v0q15 1 16 16q-1 15 -16 16h-224v0q-15 -1 -16 -16v0zM96 377q1 -15 16 -16h96v0q15 1 16 16q-1 15 -16 16h-96v0q-15 -1 -16 -16v0z" />
</svg>
