<?xml version="1.0" standalone="no"?>
<!DOCTYPE svg PUBLIC "-//W3C//DTD SVG 1.1//EN" "http://www.w3.org/Graphics/SVG/1.1/DTD/svg11.dtd" >
<svg xmlns="http://www.w3.org/2000/svg" xmlns:xlink="http://www.w3.org/1999/xlink" version="1.1" viewBox="-10 -40 660 512">
   <path fill="currentColor"
d="M256 473q56 0 104 -22v0v0q47 -21 83 -59l7 -15v0h-18v0q-33 -2 -45 -32q-10 -32 15 -53l110 -88v0q-5 -69 -39 -123q-35 -55 -91 -87q-57 -32 -126 -33q-72 1 -129 35q-58 34 -92 92q-34 57 -35 129q1 72 35 129q34 58 92 92q57 34 129 35v0zM192 121v32v-32v32
q0 14 -9 23t-23 9t-23 -9t-9 -23v-32v0q0 -14 9 -23t23 -9t23 9t9 23v0zM288 121v32v-32v32q0 14 -9 23t-23 9t-23 -9t-9 -23v-32v0q0 -14 9 -23t23 -9t23 9t9 23v0zM384 121v32v-32v32q0 14 -9 23t-23 9t-23 -9t-9 -23v-32v0q0 -14 9 -23t23 -9t23 9t9 23v0zM602 189
q-10 -7 -20 0l-160 128v0q-8 7 -5 17q4 10 15 11h70v0l-52 105v0q-5 11 4 19q10 7 20 1l160 -128v0q8 -8 5 -18q-4 -10 -15 -11h-70v0l52 -105v0q5 -11 -4 -19v0z" />
</svg>
