<?xml version="1.0" standalone="no"?>
<!DOCTYPE svg PUBLIC "-//W3C//DTD SVG 1.1//EN" "http://www.w3.org/Graphics/SVG/1.1/DTD/svg11.dtd" >
<svg xmlns="http://www.w3.org/2000/svg" xmlns:xlink="http://www.w3.org/1999/xlink" version="1.1" viewBox="-10 -40 468 512">
   <path fill="currentColor"
d="M0 57q1 -27 19 -45v0v0q18 -18 45 -19h320v0q27 1 45 19t19 45v320v0q-1 27 -19 45t-45 19h-320v0q-27 -1 -45 -19t-19 -45v-320v0zM64 105v224v-224v224q1 20 14 34q14 13 34 14h224v0q20 -1 34 -14q13 -14 14 -34v-224v0q-1 -20 -14 -34q-14 -13 -34 -14h-80v0
q-20 1 -34 14q-13 14 -14 34v67v0q-30 12 -32 45q1 20 14 34q14 13 34 14q20 -1 34 -14q13 -14 14 -34q-2 -33 -32 -45v-67v0q1 -15 16 -16h80v0q15 1 16 16v224v0q-1 15 -16 16h-224v0q-15 -1 -16 -16v-224v0q1 -15 16 -16h32v0q15 -1 16 -16q-1 -15 -16 -16h-32v0
q-20 1 -34 14q-13 14 -14 34v0z" />
</svg>
