<?xml version="1.0" standalone="no"?>
<!DOCTYPE svg PUBLIC "-//W3C//DTD SVG 1.1//EN" "http://www.w3.org/Graphics/SVG/1.1/DTD/svg11.dtd" >
<svg xmlns="http://www.w3.org/2000/svg" xmlns:xlink="http://www.w3.org/1999/xlink" version="1.1" viewBox="-10 -40 660 512">
   <path fill="currentColor"
d="M0 57q1 -27 19 -45v0v0q18 -18 45 -19h320v0q27 1 45 19t19 45v64v0q-34 0 -64 13v-29v0q-1 -20 -14 -34q-14 -13 -34 -14h-80v0q-20 1 -34 14q-13 14 -14 34v67v0q-30 12 -32 45q1 20 14 34q14 13 34 14q20 -1 34 -14q13 -14 14 -34q-2 -33 -32 -45v-67v0q1 -15 16 -16
h80v0q15 1 16 16v48v0q-30 22 -47 55t-17 73q0 34 13 64h-189v0q-15 -1 -16 -16v-224v0q1 -15 16 -16h32v0q15 -1 16 -16q-1 -15 -16 -16h-32v0q-20 1 -34 14q-13 14 -14 34v224v0q1 20 14 34q14 13 34 14h208v0q34 44 89 59q-12 5 -25 5h-320v0q-27 -1 -45 -19t-19 -45
v-320v0zM448 361q45 -1 69 -40q22 -40 0 -80q-24 -38 -69 -40q-45 2 -69 40q-22 40 0 80q24 39 69 40v0zM448 409q-54 -1 -91 -37v0v0q-36 -36 -37 -91q1 -54 37 -90q37 -36 91 -38q54 2 91 38q36 36 37 90q-1 41 -22 72l79 79v0q14 17 0 34q-17 14 -34 0l-79 -79v0
q-31 22 -72 22v0z" />
</svg>
