<?xml version="1.0" standalone="no"?>
<!DOCTYPE svg PUBLIC "-//W3C//DTD SVG 1.1//EN" "http://www.w3.org/Graphics/SVG/1.1/DTD/svg11.dtd" >
<svg xmlns="http://www.w3.org/2000/svg" xmlns:xlink="http://www.w3.org/1999/xlink" version="1.1" viewBox="-10 -40 596 512">
   <path fill="currentColor"
d="M0 57q1 -27 19 -45v0v0q18 -18 45 -19h320v0q27 1 45 19t19 45v140v0l-64 64v0v-156v0q-1 -20 -14 -34q-14 -13 -34 -14h-80v0q-20 1 -34 14q-13 14 -14 34v67v0q-30 12 -32 45q1 20 14 34q14 13 34 14q20 -1 34 -14q13 -14 14 -34q-2 -33 -32 -45v-67v0q1 -15 16 -16h80
v0q15 1 16 16v188v0l-52 52v0h-188v0q-15 -1 -16 -16v-224v0q1 -15 16 -16h32v0q15 -1 16 -16q-1 -15 -16 -16h-32v0q-20 1 -34 14q-13 14 -14 34v224v0q1 20 14 34q14 13 34 14h163v0l-2 8l-14 56v0h-195v0q-27 -1 -45 -19t-19 -45v-320v0zM550 197l14 14l-14 -14l14 14
q12 12 12 28t-12 29l-29 29v0l-71 -71v0l29 -29v0q13 -12 28 -12q16 0 29 12v0zM312 378l129 -129l-129 129l129 -129l71 71v0l-129 129v0q-6 6 -15 8l-60 15v0q-9 2 -15 -4t-5 -15l15 -60v0q3 -9 9 -15v0z" />
</svg>
