<?xml version="1.0" standalone="no"?>
<!DOCTYPE svg PUBLIC "-//W3C//DTD SVG 1.1//EN" "http://www.w3.org/Graphics/SVG/1.1/DTD/svg11.dtd" >
<svg xmlns="http://www.w3.org/2000/svg" xmlns:xlink="http://www.w3.org/1999/xlink" version="1.1" viewBox="-10 -40 532 512">
   <path fill="currentColor"
d="M0 57q1 -27 19 -45v0v0q18 -18 45 -19h320v0q27 1 45 19t19 45v131v0q-34 5 -64 18v-101v0q-1 -20 -14 -34q-14 -13 -34 -14h-80v0q-20 1 -34 14q-13 14 -14 34v67v0q-30 12 -32 45q1 20 14 34q14 13 34 14q20 -1 34 -14q13 -14 14 -34q-2 -33 -32 -45v-67v0
q1 -15 16 -16h80v0q15 1 16 16v118v0q-72 44 -107 122h-133v0q-15 -1 -16 -16v-224v0q1 -15 16 -16h32v0q15 -1 16 -16q-1 -15 -16 -16h-32v0q-20 1 -34 14q-13 14 -14 34v224v0q1 20 14 34q14 13 34 14h122v0q-9 31 -10 64h-160v0q-27 -1 -45 -19t-19 -45v-320v0zM488 217
q22 2 24 24q-2 22 -24 24q-78 2 -130 54t-54 130q-2 22 -24 24q-22 -2 -24 -24q1 -65 32 -117t83 -83t117 -32v0zM480 409q14 0 23 9v0v0q9 9 9 23t-9 23t-23 9t-23 -9t-9 -23t9 -23t23 -9v0zM512 337q-2 22 -24 24q-37 1 -62 26t-26 62q-2 22 -24 24q-22 -2 -24 -24
q1 -58 40 -96q38 -39 96 -40q22 2 24 24v0z" />
</svg>
