<?xml version="1.0" standalone="no"?>
<!DOCTYPE svg PUBLIC "-//W3C//DTD SVG 1.1//EN" "http://www.w3.org/Graphics/SVG/1.1/DTD/svg11.dtd" >
<svg xmlns="http://www.w3.org/2000/svg" xmlns:xlink="http://www.w3.org/1999/xlink" version="1.1" viewBox="-10 -40 522 512">
   <path fill="currentColor"
d="M64 9v56v-56v56h-40v0q-22 2 -24 24q2 22 24 24h40v0v80v0h-40v0q-22 2 -24 24q2 22 24 24h40v0v80v0h-40v0q-22 2 -24 24q2 22 24 24h40v0v56v0q1 20 14 34q14 13 34 14h80v0v-512v0h-80v0q-20 1 -34 14q-13 14 -14 34v0zM432 -39h-208h208h-208v512v0h208v0
q20 -1 34 -14q13 -14 14 -34v-416v0q-1 -20 -14 -34q-14 -13 -34 -14v0z" />
</svg>
