<?xml version="1.0" standalone="no"?>
<!DOCTYPE svg PUBLIC "-//W3C//DTD SVG 1.1//EN" "http://www.w3.org/Graphics/SVG/1.1/DTD/svg11.dtd" >
<svg xmlns="http://www.w3.org/2000/svg" xmlns:xlink="http://www.w3.org/1999/xlink" version="1.1" viewBox="-10 -40 532 512">
   <path fill="currentColor"
d="M141 -18q21 -20 51 -21h129v0q29 1 50 21l120 120v0q20 21 21 51v129v0q-1 29 -21 50l-120 120v0q-21 20 -50 21h-129v0q-30 -1 -51 -21l-120 -120v0q-20 -21 -21 -50v-129v0q1 -30 21 -51l120 -120v0zM256 89q-22 2 -24 24v112v0q2 22 24 24q22 -2 24 -24v-112v0
q-2 -22 -24 -24v0zM288 313q0 -14 -9 -23v0v0q-9 -9 -23 -9t-23 9t-9 23t9 23t23 9t23 -9t9 -23v0z" />
</svg>
