<?xml version="1.0" standalone="no"?>
<!DOCTYPE svg PUBLIC "-//W3C//DTD SVG 1.1//EN" "http://www.w3.org/Graphics/SVG/1.1/DTD/svg11.dtd" >
<svg xmlns="http://www.w3.org/2000/svg" xmlns:xlink="http://www.w3.org/1999/xlink" version="1.1" viewBox="-10 -40 660 512">
   <path fill="currentColor"
d="M352 57q0 14 -9 23v0v0q-9 9 -23 9h-32v0v32v0h81v0q15 0 29 7l50 25v0l167 -36v0q14 -2 21 9q6 11 -3 23l-182 206v0q-19 21 -48 22h-259v0q-20 -1 -34 -14q-13 -14 -14 -34v-21v0l-67 -30v0q-28 -14 -29 -44v-65v0q1 -20 14 -34q14 -13 34 -14h48h128v-32v0h-32v0
q-14 0 -23 -9t-9 -23t9 -23t23 -9h128v0q14 0 23 9t9 23v0zM48 169v65v-65v65l48 21v0v-86v0h-48v0zM592 409q-20 -1 -34 -14v0v0q-13 -14 -14 -34q1 -17 12 -42q11 -26 23 -47q5 -8 13 -8t13 8q12 21 23 47q11 25 12 42q-1 24 -14 36q-14 12 -34 12v0z" />
</svg>
