<?xml version="1.0" standalone="no"?>
<!DOCTYPE svg PUBLIC "-//W3C//DTD SVG 1.1//EN" "http://www.w3.org/Graphics/SVG/1.1/DTD/svg11.dtd" >
<svg xmlns="http://www.w3.org/2000/svg" xmlns:xlink="http://www.w3.org/1999/xlink" version="1.1" viewBox="-10 -40 660 512">
   <path fill="currentColor"
d="M64 -7q0 -14 9 -23v0v0q9 -9 23 -9h192v0q14 0 23 9t9 23v192v0q0 14 -9 23t-23 9h-192v0q-14 0 -23 -9t-9 -23v-192v0zM384 57q0 -14 9 -23v0v0q9 -9 23 -9h128v0q14 0 23 9t9 23v128v0q0 14 -9 23t-23 9h-128v0q-14 0 -23 -9t-9 -23v-128v0zM0 313q0 -14 9 -23v0v0
q9 -9 23 -9h64h512q14 0 23 9t9 23t-9 23t-23 9h-32v0v64v0h32v0q14 0 23 9t9 23t-9 23t-23 9h-64h-512q-14 0 -23 -9t-9 -23t9 -23t23 -9h32v0v-64v0h-32v0q-14 0 -23 -9t-9 -23v0zM128 409h160h-160h160v-64v0h-160v0v64v0zM352 409h160h-160h160v-64v0h-160v0v64v0z" />
</svg>
