<?xml version="1.0" standalone="no"?>
<!DOCTYPE svg PUBLIC "-//W3C//DTD SVG 1.1//EN" "http://www.w3.org/Graphics/SVG/1.1/DTD/svg11.dtd" >
<svg xmlns="http://www.w3.org/2000/svg" xmlns:xlink="http://www.w3.org/1999/xlink" version="1.1" viewBox="-10 -40 532 512">
   <path fill="currentColor"
d="M505 -32q14 17 0 34l-47 47v0q21 31 22 72q-1 47 -29 81q-23 28 -43 60q-21 33 -30 67q-13 49 -50 88q-59 56 -136 56t-136 -56q-56 -59 -56 -136t56 -136q39 -37 87 -50q35 -9 68 -30q32 -20 60 -43q34 -28 81 -29q41 1 72 22l47 -47v0q17 -14 34 0v0zM320 281
q-1 -15 -16 -16q-15 1 -16 16q-1 41 -28 68t-68 28q-15 1 -16 16q1 15 16 16q54 -1 91 -37q36 -37 37 -91v0z" />
</svg>
