<?xml version="1.0" standalone="no"?>
<!DOCTYPE svg PUBLIC "-//W3C//DTD SVG 1.1//EN" "http://www.w3.org/Graphics/SVG/1.1/DTD/svg11.dtd" >
<svg xmlns="http://www.w3.org/2000/svg" xmlns:xlink="http://www.w3.org/1999/xlink" version="1.1" viewBox="-10 -40 596 512">
   <path fill="currentColor"
d="M453 -20l40 40l-40 -40l40 40q18 19 18 45q0 25 -18 45l-49 49v0l-130 -130v0l49 -49v0q19 -18 45 -18q25 0 45 18v0zM59 285l233 -234l-233 234l233 -234l130 130v0l-233 233v0q-16 16 -38 23l-120 35v0q-14 4 -24 -6q-9 -10 -6 -24l35 -120v0q7 -22 23 -37v0zM248 425
h304h-304h304q22 2 24 24q-2 22 -24 24h-304v0q-22 -2 -24 -24q2 -22 24 -24v0z" />
</svg>
