<?xml version="1.0" standalone="no"?>
<!DOCTYPE svg PUBLIC "-//W3C//DTD SVG 1.1//EN" "http://www.w3.org/Graphics/SVG/1.1/DTD/svg11.dtd" >
<svg xmlns="http://www.w3.org/2000/svg" xmlns:xlink="http://www.w3.org/1999/xlink" version="1.1" viewBox="-11 0 662 512">
   <path fill="currentColor"
d="M39 -34q-19 -12 -34 4q-12 19 4 34l592 464v0q19 12 34 -4q12 -19 -4 -34l-221 -173v0l76 -76v0l-130 -130v0l-92 92v0l-225 -177v0zM341 326l-145 -115l145 115l-145 -115l-73 74v0q-16 15 -23 37l-35 120v0q-4 14 6 24q10 9 24 6l120 -35v0q22 -7 38 -23l88 -88v0z
M427 -20l-49 49l49 -49l-49 49l130 130v0l49 -49v0q18 -19 18 -45q0 -25 -18 -45l-40 -40v0q-19 -18 -45 -18q-25 0 -45 18v0z" />
</svg>
