<?xml version="1.0" standalone="no"?>
<!DOCTYPE svg PUBLIC "-//W3C//DTD SVG 1.1//EN" "http://www.w3.org/Graphics/SVG/1.1/DTD/svg11.dtd" >
<svg xmlns="http://www.w3.org/2000/svg" xmlns:xlink="http://www.w3.org/1999/xlink" version="1.1" viewBox="-10 -40 404 512">
   <path fill="currentColor"
d="M144 89q27 -1 42 -24q12 -24 0 -48q-15 -23 -42 -24q-27 1 -42 24q-12 24 0 48q15 23 42 24v0zM192 249v-32v32v-32h64v0q14 0 23 -9t9 -23t-9 -23t-23 -9h-67v0q-12 -30 -45 -32q-20 1 -34 14q-13 14 -14 34v80v0q1 27 19 45t45 19h86v0q13 1 16 14l10 86v0q5 26 32 28
h48v0q14 0 23 -9t9 -23t-9 -23t-23 -9h-20v0l-7 -58v0q-4 -31 -26 -50t-53 -20h-54v0zM64 121q0 -14 -9 -23v0v0q-9 -9 -23 -9t-23 9t-9 23v160v0q1 54 37 91q37 36 91 37h64v0q14 0 23 -9t9 -23t-9 -23t-23 -9h-64v0q-27 -1 -45 -19t-19 -45v-160v0z" />
</svg>
