<?xml version="1.0" standalone="no"?>
<!DOCTYPE svg PUBLIC "-//W3C//DTD SVG 1.1//EN" "http://www.w3.org/Graphics/SVG/1.1/DTD/svg11.dtd" >
<svg xmlns="http://www.w3.org/2000/svg" xmlns:xlink="http://www.w3.org/1999/xlink" version="1.1" viewBox="-10 -40 532 512">
   <path fill="currentColor"
d="M192 55q1 -29 19 -60v0v0q18 -31 45 -34q28 3 46 34q17 31 18 60v66v0l178 119v0q14 9 14 26v57v0q0 8 -7 13q-6 4 -14 2l-171 -57v0v80v0l58 43v0q6 5 6 13v42v0q-1 13 -14 14h-4l-110 -32v0l-110 32v0h-4q-13 -1 -14 -14v-42v0q0 -8 6 -13l58 -43v0v-80v0l-171 57v0
q-8 2 -14 -2q-7 -5 -7 -13v-57v0q0 -17 14 -26l178 -119v0v-66v0z" />
</svg>
