<?xml version="1.0" standalone="no"?>
<!DOCTYPE svg PUBLIC "-//W3C//DTD SVG 1.1//EN" "http://www.w3.org/Graphics/SVG/1.1/DTD/svg11.dtd" >
<svg xmlns="http://www.w3.org/2000/svg" xmlns:xlink="http://www.w3.org/1999/xlink" version="1.1" viewBox="-11 0 662 512">
   <path fill="currentColor"
d="M39 -34q-19 -12 -34 4q-12 19 4 34l592 464v0q19 12 34 -4q12 -19 -4 -34l-149 -116v0l73 24v0q8 2 14 -2q7 -5 7 -13v-57v0q0 -17 -14 -26l-178 -119v0v-66v0q-1 -29 -18 -60q-18 -31 -46 -34q-27 3 -45 34t-19 60v66v0l-11 7v0l-206 -162v0zM446 408l-285 -224l285 224
l-285 -224l-83 56v0q-14 9 -14 26v57v0q0 8 7 13q6 4 14 2l171 -57v0v80v0l-58 43v0q-6 5 -6 13v42v0q1 13 14 14h4l110 -32v0l110 32v0h4q13 -1 14 -14v-43v0q0 -4 -2 -8v0z" />
</svg>
