<?xml version="1.0" standalone="no"?>
<!DOCTYPE svg PUBLIC "-//W3C//DTD SVG 1.1//EN" "http://www.w3.org/Graphics/SVG/1.1/DTD/svg11.dtd" >
<svg xmlns="http://www.w3.org/2000/svg" xmlns:xlink="http://www.w3.org/1999/xlink" version="1.1" viewBox="-10 -40 596 512">
   <path fill="currentColor"
d="M88 -39q-37 1 -62 26v0v0q-25 25 -26 62v56v0v24v0v24v0q1 20 14 34q14 13 34 14h48v0q20 -1 34 -14q13 -14 14 -34v-48v0q-1 -20 -14 -34q-14 -13 -34 -14h-32v0v-8v0q2 -22 24 -24h8v0q14 0 23 -9t9 -23t-9 -23t-23 -9h-8v0zM264 -39q-37 1 -62 26v0v0q-25 25 -26 62
v56v0v24v0v24v0q1 20 14 34q14 13 34 14h48v0q20 -1 34 -14q13 -14 14 -34v-48v0q-1 -20 -14 -34q-14 -13 -34 -14h-32v0v-8v0q2 -22 24 -24h8v0q14 0 23 -9t9 -23t-9 -23t-23 -9h-8v0zM576 385v-56v56v-56v-24v0v-24v0q-1 -20 -14 -34q-14 -13 -34 -14h-48v0q-20 1 -34 14
q-13 14 -14 34v48v0q1 20 14 34q14 13 34 14h32v0v8v0q-2 22 -24 24h-8v0q-14 0 -23 9t-9 23t9 23t23 9h8v0q37 -1 62 -26t26 -62v0zM312 473q37 -1 62 -26v0v0q25 -25 26 -62v-56v0v-24v0v-24v0q-1 -20 -14 -34q-14 -13 -34 -14h-48v0q-20 1 -34 14q-13 14 -14 34v48v0
q1 20 14 34q14 13 34 14h32v0v8v0q-2 22 -24 24h-8v0q-14 0 -23 9t-9 23t9 23t23 9h8v0z" />
</svg>
