<?xml version="1.0" standalone="no"?>
<!DOCTYPE svg PUBLIC "-//W3C//DTD SVG 1.1//EN" "http://www.w3.org/Graphics/SVG/1.1/DTD/svg11.dtd" >
<svg xmlns="http://www.w3.org/2000/svg" xmlns:xlink="http://www.w3.org/1999/xlink" version="1.1" viewBox="-10 -40 532 512">
   <path fill="currentColor"
d="M0 57q1 -27 19 -45v0v0q18 -18 45 -19h384v0q27 1 45 19t19 45v320v0q-1 27 -19 45t-45 19h-384v0q-27 -1 -45 -19t-19 -45v-320v0zM224 57v320v-320v320h224v0v-320v0h-224v0zM88 57q-22 2 -24 24q2 22 24 24h48v0q22 -2 24 -24q-2 -22 -24 -24h-48v0zM64 177
q2 22 24 24h48v0q22 -2 24 -24q-2 -22 -24 -24h-48v0q-22 2 -24 24v0zM88 249q-22 2 -24 24q2 22 24 24h48v0q22 -2 24 -24q-2 -22 -24 -24h-48v0z" />
</svg>
