<?xml version="1.0" standalone="no"?>
<!DOCTYPE svg PUBLIC "-//W3C//DTD SVG 1.1//EN" "http://www.w3.org/Graphics/SVG/1.1/DTD/svg11.dtd" >
<svg xmlns="http://www.w3.org/2000/svg" xmlns:xlink="http://www.w3.org/1999/xlink" version="1.1" viewBox="-10 -40 532 512">
   <path fill="currentColor"
d="M352 121v192v-192v192h-32v0v-192v0h32v0zM320 57q-27 1 -45 19v0v0q-18 18 -19 45v192v0q1 27 19 45t45 19h32v0q27 -1 45 -19t19 -45v-64v0h64v0q14 0 23 -9t9 -23t-9 -23t-23 -9h-64v0v-64v0q-1 -27 -19 -45t-45 -19h-32v0zM0 217q0 14 9 23v0v0q9 9 23 9h192v0v-64v0
h-192v0q-14 0 -23 9t-9 23v0z" />
</svg>
