<?xml version="1.0" standalone="no"?>
<!DOCTYPE svg PUBLIC "-//W3C//DTD SVG 1.1//EN" "http://www.w3.org/Graphics/SVG/1.1/DTD/svg11.dtd" >
<svg xmlns="http://www.w3.org/2000/svg" xmlns:xlink="http://www.w3.org/1999/xlink" version="1.1" viewBox="-10 -40 468 512">
   <path fill="currentColor"
d="M0 57q1 -27 19 -45v0v0q18 -18 45 -19h320v0q27 1 45 19t19 45v320v0q-1 27 -19 45t-45 19h-320v0q-27 -1 -45 -19t-19 -45v-320v0zM192 90q-22 -5 -31 15l-48 144v0q-3 12 4 22t19 10h104v0v40v0q2 22 24 24q22 -2 24 -24v-40v0h8v0q22 -2 24 -24q-2 -22 -24 -24h-8v0
v-56v0q-2 -22 -24 -24q-22 2 -24 24v56v0h-71v0l38 -112v0q5 -22 -15 -31v0z" />
</svg>
