<?xml version="1.0" standalone="no"?>
<!DOCTYPE svg PUBLIC "-//W3C//DTD SVG 1.1//EN" "http://www.w3.org/Graphics/SVG/1.1/DTD/svg11.dtd" >
<svg xmlns="http://www.w3.org/2000/svg" xmlns:xlink="http://www.w3.org/1999/xlink" version="1.1" viewBox="-10 -40 468 512">
   <path fill="currentColor"
d="M64 -7q-27 1 -45 19v0v0q-18 18 -19 45v320v0q1 27 19 45t45 19h320v0q27 -1 45 -19t19 -45v-320v0q-1 -27 -19 -45t-45 -19h-320v0zM176 89h104h-104h104q22 2 24 24q-2 22 -24 24h-84v0l-8 43v0l62 7v0q30 4 50 26q19 22 20 53q-1 33 -23 56q-23 22 -56 23h-36v0
q-44 -1 -69 -37l-4 -6v0q-11 -19 7 -33q19 -11 33 7l4 6v0q10 14 29 15h36v0q13 0 22 -9t9 -22q-2 -27 -28 -31l-87 -10v0q-10 -2 -16 -10t-5 -18l16 -88v0q5 -19 24 -20v0z" />
</svg>
