<?xml version="1.0" standalone="no"?>
<!DOCTYPE svg PUBLIC "-//W3C//DTD SVG 1.1//EN" "http://www.w3.org/Graphics/SVG/1.1/DTD/svg11.dtd" >
<svg xmlns="http://www.w3.org/2000/svg" xmlns:xlink="http://www.w3.org/1999/xlink" version="1.1" viewBox="-10 -40 468 512">
   <path fill="currentColor"
d="M64 -7q-27 1 -45 19v0v0q-18 18 -19 45v320v0q1 27 19 45t45 19h320v0q27 -1 45 -19t19 -45v-320v0q-1 -27 -19 -45t-45 -19h-320v0zM128 113q2 -22 24 -24h92v0q32 1 54 22q21 22 22 54q0 25 -14 44q29 22 30 60q-1 32 -22 54q-22 21 -54 22h-108v0q-22 -2 -24 -24v-104
v0v-104v0zM272 165q0 -12 -8 -20v0v0q-8 -8 -20 -8h-68v0v56v0h68v0q12 0 20 -8t8 -20v0zM176 297h84h-84h84q12 0 20 -8t8 -20t-8 -20t-20 -8h-16h-68v56v0z" />
</svg>
