<?xml version="1.0" standalone="no"?>
<!DOCTYPE svg PUBLIC "-//W3C//DTD SVG 1.1//EN" "http://www.w3.org/Graphics/SVG/1.1/DTD/svg11.dtd" >
<svg xmlns="http://www.w3.org/2000/svg" xmlns:xlink="http://www.w3.org/1999/xlink" version="1.1" viewBox="-10 -40 468 512">
   <path fill="currentColor"
d="M64 441q-27 -1 -45 -19v0v0q-18 -18 -19 -45v-320v0q1 -27 19 -45t45 -19h320v0q27 1 45 19t19 45v320v0q-1 27 -19 45t-45 19h-320v0zM128 160v137v-137v137q1 15 16 16h137v0q21 -2 23 -23q0 -9 -7 -16l-33 -33v0l66 -66v0q6 -6 6 -14t-6 -14l-36 -36v0q-6 -6 -14 -6
t-14 6l-66 66v0l-33 -33v0q-7 -7 -16 -7q-21 2 -23 23v0z" />
</svg>
