<?xml version="1.0" standalone="no"?>
<!DOCTYPE svg PUBLIC "-//W3C//DTD SVG 1.1//EN" "http://www.w3.org/Graphics/SVG/1.1/DTD/svg11.dtd" >
<svg xmlns="http://www.w3.org/2000/svg" xmlns:xlink="http://www.w3.org/1999/xlink" version="1.1" viewBox="-10 -40 468 512">
   <path fill="currentColor"
d="M64 -7q-27 1 -45 19v0v0q-18 18 -19 45v320v0q1 27 19 45t45 19h320v0q27 -1 45 -19t19 -45v-320v0q-1 -27 -19 -45t-45 -19h-320v0zM144 217q1 34 23 57v0v0q23 22 57 23q27 0 48 -16q20 -15 28 -40h-52v0q-22 -2 -24 -24q2 -22 24 -24h80v0q22 2 24 24q-1 54 -37 91
q-37 36 -91 37q-54 -1 -91 -37q-36 -37 -37 -91q1 -54 37 -91q37 -36 91 -37q50 1 85 33q15 16 2 34q-16 14 -34 1q-22 -19 -53 -20q-34 1 -57 23q-22 23 -23 57v0z" />
</svg>
