<?xml version="1.0" standalone="no"?>
<!DOCTYPE svg PUBLIC "-//W3C//DTD SVG 1.1//EN" "http://www.w3.org/Graphics/SVG/1.1/DTD/svg11.dtd" >
<svg xmlns="http://www.w3.org/2000/svg" xmlns:xlink="http://www.w3.org/1999/xlink" version="1.1" viewBox="-10 -40 468 512">
   <path fill="currentColor"
d="M64 -7q-27 1 -45 19v0v0q-18 18 -19 45v320v0q1 27 19 45t45 19h320v0q27 -1 45 -19t19 -45v-320v0q-1 -27 -19 -45t-45 -19h-320v0zM313 130l-73 74l73 -74l-73 74l75 103v0q12 19 -5 33q-19 12 -33 -5l-71 -96v0l-30 30v0v52v0q-2 22 -24 24q-22 -2 -24 -24v-61v0v-147
v0q2 -22 24 -24q22 2 24 24v88v0l103 -105v0q17 -14 34 0q14 17 0 34v0z" />
</svg>
