<?xml version="1.0" standalone="no"?>
<!DOCTYPE svg PUBLIC "-//W3C//DTD SVG 1.1//EN" "http://www.w3.org/Graphics/SVG/1.1/DTD/svg11.dtd" >
<svg xmlns="http://www.w3.org/2000/svg" xmlns:xlink="http://www.w3.org/1999/xlink" version="1.1" viewBox="-10 -40 468 512">
   <path fill="currentColor"
d="M64 -7q-27 1 -45 19v0v0q-18 18 -19 45v320v0q1 27 19 45t45 19h320v0q27 -1 45 -19t19 -45v-320v0q-1 -27 -19 -45t-45 -19h-320v0zM154 98l134 158l-134 -158l134 158v-143v0q2 -22 24 -24q22 2 24 24v208v0q-1 16 -16 23q-15 4 -26 -7l-134 -158v0v142v0q-2 22 -24 24
q-22 -2 -24 -24v-208v0q1 -16 16 -22q15 -5 26 7v0z" />
</svg>
