<?xml version="1.0" standalone="no"?>
<!DOCTYPE svg PUBLIC "-//W3C//DTD SVG 1.1//EN" "http://www.w3.org/Graphics/SVG/1.1/DTD/svg11.dtd" >
<svg xmlns="http://www.w3.org/2000/svg" xmlns:xlink="http://www.w3.org/1999/xlink" version="1.1" viewBox="-10 -40 468 512">
   <path fill="currentColor"
d="M64 -7q-27 1 -45 19v0v0q-18 18 -19 45v320v0q1 27 19 45t45 19h320v0q27 -1 45 -19t19 -45v-320v0q-1 -27 -19 -45t-45 -19h-320v0zM144 217q1 45 40 69q40 22 80 0q39 -24 40 -69q-1 -45 -40 -69q-40 -22 -80 0q-39 24 -40 69v0zM224 345q-35 0 -64 -17v0v0
q-29 -17 -47 -47q-17 -30 -17 -64t17 -64q18 -30 47 -47t64 -17t64 17t47 47q17 30 17 64t-17 64q-18 30 -47 47t-64 17v0z" />
</svg>
