<?xml version="1.0" standalone="no"?>
<!DOCTYPE svg PUBLIC "-//W3C//DTD SVG 1.1//EN" "http://www.w3.org/Graphics/SVG/1.1/DTD/svg11.dtd" >
<svg xmlns="http://www.w3.org/2000/svg" xmlns:xlink="http://www.w3.org/1999/xlink" version="1.1" viewBox="-10 -40 468 512">
   <path fill="currentColor"
d="M64 -7q-27 1 -45 19v0v0q-18 18 -19 45v320v0q1 27 19 45t45 19h320v0q27 -1 45 -19t19 -45v-320v0q-1 -27 -19 -45t-45 -19h-320v0zM160 129v120v-120v120q1 27 19 45t45 19q27 -1 45 -19t19 -45v-120v0q2 -22 24 -24q22 2 24 24v120v0q-1 48 -33 79q-31 32 -79 33
q-48 -1 -79 -33q-32 -31 -33 -79v-120v0q2 -22 24 -24q22 2 24 24v0z" />
</svg>
