<?xml version="1.0" standalone="no"?>
<!DOCTYPE svg PUBLIC "-//W3C//DTD SVG 1.1//EN" "http://www.w3.org/Graphics/SVG/1.1/DTD/svg11.dtd" >
<svg xmlns="http://www.w3.org/2000/svg" xmlns:xlink="http://www.w3.org/1999/xlink" version="1.1" viewBox="-10 -40 468 512">
   <path fill="currentColor"
d="M64 -7q-27 1 -45 19v0v0q-18 18 -19 45v320v0q1 27 19 45t45 19h320v0q27 -1 45 -19t19 -45v-320v0q-1 -27 -19 -45t-45 -19h-320v0zM138 113l86 99l-86 -99l86 99l86 -99v0q16 -15 34 -2q15 16 2 34l-98 113v0v79v0q-2 22 -24 24q-22 -2 -24 -24v-79v0l-98 -113v0
q-13 -18 2 -34q18 -13 34 2v0z" />
</svg>
