<?xml version="1.0" standalone="no"?>
<!DOCTYPE svg PUBLIC "-//W3C//DTD SVG 1.1//EN" "http://www.w3.org/Graphics/SVG/1.1/DTD/svg11.dtd" >
<svg xmlns="http://www.w3.org/2000/svg" xmlns:xlink="http://www.w3.org/1999/xlink" version="1.1" viewBox="-10 -40 596 512">
   <path fill="currentColor"
d="M384 25q0 -14 9 -23v0v0q9 -9 23 -9h128v0q14 0 23 9t9 23t-9 23t-23 9h-96v0v96v0q0 14 -9 23t-23 9h-96v0v96v0q0 14 -9 23t-23 9h-96v0v96v0q0 14 -9 23t-23 9h-128v0q-14 0 -23 -9t-9 -23t9 -23t23 -9h96v0v-96v0q0 -14 9 -23t23 -9h96v0v-96v0q0 -14 9 -23t23 -9h96
v0v-96v0z" />
</svg>
