<?xml version="1.0" standalone="no"?>
<!DOCTYPE svg PUBLIC "-//W3C//DTD SVG 1.1//EN" "http://www.w3.org/Graphics/SVG/1.1/DTD/svg11.dtd" >
<svg xmlns="http://www.w3.org/2000/svg" xmlns:xlink="http://www.w3.org/1999/xlink" version="1.1" viewBox="-10 -40 532 512">
   <path fill="currentColor"
d="M64 -7q-27 1 -45 19v0v0q-18 18 -19 45v320v0q1 27 19 45t45 19h384v0q27 -1 45 -19t19 -45v-320v0q-1 -27 -19 -45t-45 -19h-384v0zM448 121v256v-256v256h-384v0v-256v0h32v0v64v0v96v0q1 20 14 34q14 13 34 14h96v0q15 -1 16 -16q-1 -15 -16 -16h-96v0q-15 -1 -16 -16
v-51v0q8 3 16 3h32v0q15 -1 16 -16q-1 -15 -16 -16h-32v0q-15 -1 -16 -16v-64v0h320v0zM224 201v32v-32v32q1 15 16 16h160v0q15 -1 16 -16v-32v0q-1 -15 -16 -16h-160v0q-15 1 -16 16v0zM304 281q-15 1 -16 16v32v0q1 15 16 16h96v0q15 -1 16 -16v-32v0q-1 -15 -16 -16h-96
v0z" />
</svg>
