<?xml version="1.0" standalone="no"?>
<!DOCTYPE svg PUBLIC "-//W3C//DTD SVG 1.1//EN" "http://www.w3.org/Graphics/SVG/1.1/DTD/svg11.dtd" >
<svg xmlns="http://www.w3.org/2000/svg" xmlns:xlink="http://www.w3.org/1999/xlink" version="1.1" viewBox="-10 -40 660 512">
   <path fill="currentColor"
d="M96 57v224v-224v224q1 27 19 45t45 19h416v0q27 -1 45 -19t19 -45v-48v0q-2 -14 -16 -19q-30 -11 -32 -45q2 -34 32 -45q14 -5 16 -19v-48v0q-1 -27 -19 -45t-45 -19h-416v0q-27 1 -45 19t-19 45v0zM512 73q1 -15 16 -16q15 1 16 16q-1 15 -16 16q-15 -1 -16 -16v0z
M512 137q1 -15 16 -16q15 1 16 16q-1 15 -16 16q-15 -1 -16 -16v0zM528 185q15 1 16 16q-1 15 -16 16q-15 -1 -16 -16q1 -15 16 -16v0zM512 265q1 -15 16 -16q15 1 16 16q-1 15 -16 16q-15 -1 -16 -16v0zM265 68q-1 -10 8 -11h31v0q13 0 21 12l39 68v0h41v0q25 0 42 18
q12 14 0 28q-17 18 -42 18h-41v0l-39 68v0q-7 11 -21 12h-31v0q-9 -1 -8 -11l23 -69v0h-42v0l-19 26v0q-5 6 -13 6h-14v0q-9 -1 -8 -10l13 -50v0q1 -4 0 -8l-13 -50v0q-1 -9 8 -10h14v0q8 0 13 6l19 26v0h43v0l-24 -69v0zM48 81q-2 -22 -24 -24q-22 2 -24 24v240v0
q1 51 35 85t85 35h400v0q22 -2 24 -24q-2 -22 -24 -24h-400v0q-31 -1 -51 -21t-21 -51v-240v0z" />
</svg>
