<?xml version="1.0" standalone="no"?>
<!DOCTYPE svg PUBLIC "-//W3C//DTD SVG 1.1//EN" "http://www.w3.org/Graphics/SVG/1.1/DTD/svg11.dtd" >
<svg xmlns="http://www.w3.org/2000/svg" xmlns:xlink="http://www.w3.org/1999/xlink" version="1.1" viewBox="-10 -40 660 512">
   <path fill="currentColor"
d="M148 -39h120h-120h120q20 1 29 18l7 14v0h80v0q14 0 23 9t9 23t-9 23t-23 9h-352v0q-14 0 -23 -9t-9 -23t9 -23t23 -9h80v0l7 -14v0q9 -17 29 -18v0zM32 89h352h-352h352l-21 339v0q-2 19 -15 32q-14 13 -33 13h-214v0q-19 0 -33 -13q-13 -13 -15 -32l-21 -339v0zM480 89
h128h-128h128q14 0 23 9t9 23t-9 23t-23 9h-128v0q-14 0 -23 -9t-9 -23t9 -23t23 -9v0zM480 217h96h-96h96q14 0 23 9t9 23t-9 23t-23 9h-96v0q-14 0 -23 -9t-9 -23t9 -23t23 -9v0zM448 377q0 -14 9 -23v0v0q9 -9 23 -9h32v0q14 0 23 9t9 23t-9 23t-23 9h-32v0q-14 0 -23 -9
t-9 -23v0z" />
</svg>
