<?xml version="1.0" standalone="no"?>
<!DOCTYPE svg PUBLIC "-//W3C//DTD SVG 1.1//EN" "http://www.w3.org/Graphics/SVG/1.1/DTD/svg11.dtd" >
<svg xmlns="http://www.w3.org/2000/svg" xmlns:xlink="http://www.w3.org/1999/xlink" version="1.1" viewBox="-10 -40 660 512">
   <path fill="currentColor"
d="M118 -38q14 -3 28 3v0v0q13 6 19 21l40 96v0q9 27 -12 46l-49 40v0q25 53 66 95q42 41 95 66l40 -49v0q19 -21 46 -12l96 40v0q14 6 21 19q6 14 3 29l-24 88v0q-10 27 -39 29q-125 -1 -226 -61t-161 -161t-61 -226q2 -29 30 -39l88 -24v0zM304 25h32h-32h32q15 1 16 16
v32v0q-1 15 -16 16h-32v0q-15 -1 -16 -16v-32v0q1 -15 16 -16v0zM304 121h32h-32h32q15 1 16 16v32v0q-1 15 -16 16h-32v0q-15 -1 -16 -16v-32v0q1 -15 16 -16v0zM384 41q1 -15 16 -16h32v0q15 1 16 16v32v0q-1 15 -16 16h-32v0q-15 -1 -16 -16v-32v0zM496 25h32h-32h32
q15 1 16 16v32v0q-1 15 -16 16h-32v0q-15 -1 -16 -16v-32v0q1 -15 16 -16v0zM576 41q1 -15 16 -16h32v0q15 1 16 16v32v0q-1 15 -16 16h-32v0q-15 -1 -16 -16v-32v0zM592 121h32h-32h32q15 1 16 16v32v0q-1 15 -16 16h-32v0q-15 -1 -16 -16v-32v0q1 -15 16 -16v0zM384 137
q1 -15 16 -16h128v0q15 1 16 16v32v0q-1 15 -16 16h-128v0q-15 -1 -16 -16v-32v0z" />
</svg>
