<?xml version="1.0" standalone="no"?>
<!DOCTYPE svg PUBLIC "-//W3C//DTD SVG 1.1//EN" "http://www.w3.org/Graphics/SVG/1.1/DTD/svg11.dtd" >
<svg xmlns="http://www.w3.org/2000/svg" xmlns:xlink="http://www.w3.org/1999/xlink" version="1.1" viewBox="-10 -40 404 512">
   <path fill="currentColor"
d="M32 -7q-14 0 -23 9v0v0q-9 9 -9 23t9 23t23 9h128v0v103v0l-104 26v0q-13 4 -19 15q-7 11 -4 24q4 13 15 19q10 7 24 4l88 -22v0v30v0l-104 26v0q-13 4 -19 15q-7 11 -4 24q4 13 15 19q10 7 24 4l88 -22v0v87v0q0 14 9 23t23 9t23 -9t9 -23v-103v0l104 -26v0
q13 -4 19 -15q7 -11 4 -24q-4 -13 -15 -19q-10 -7 -24 -4l-88 22v0v-30v0l104 -26v0q13 -4 19 -15q7 -11 4 -24q-4 -13 -15 -19q-10 -7 -24 -4l-88 22v0v-87v0h128v0q14 0 23 -9t9 -23t-9 -23t-23 -9h-160h-160z" />
</svg>
