<?xml version="1.0" standalone="no"?>
<!DOCTYPE svg PUBLIC "-//W3C//DTD SVG 1.1//EN" "http://www.w3.org/Graphics/SVG/1.1/DTD/svg11.dtd" >
<svg xmlns="http://www.w3.org/2000/svg" xmlns:xlink="http://www.w3.org/1999/xlink" version="1.1" viewBox="-10 -40 532 512">
   <path fill="currentColor"
d="M256 -39q14 0 23 9v0v0q9 9 9 23v32v0h96v0v-8v0q2 -22 24 -24q22 2 24 24v8v0h32v0v-8v0q2 -22 24 -24q22 2 24 24v40v0q0 14 -9 23t-23 9h-51v0l-141 94v0v66v0v192v0q0 14 -9 23t-23 9t-23 -9t-9 -23v-192v0v-66v0l-141 -94v0h-51v0q-14 0 -23 -9t-9 -23v-40v0
q2 -22 24 -24q22 2 24 24v8v0h32v0v-8v0q2 -22 24 -24q22 2 24 24v8v0h96v0v-32v0q0 -14 9 -23t23 -9v0zM141 89l83 55l-83 -55l83 55v-55v0h-83v0zM288 144l83 -55l-83 55l83 -55h-83v0v55v0z" />
</svg>
