<?xml version="1.0" standalone="no"?>
<!DOCTYPE svg PUBLIC "-//W3C//DTD SVG 1.1//EN" "http://www.w3.org/Graphics/SVG/1.1/DTD/svg11.dtd" >
<svg xmlns="http://www.w3.org/2000/svg" xmlns:xlink="http://www.w3.org/1999/xlink" version="1.1" viewBox="-10 -40 596 512">
   <path fill="currentColor"
d="M64 25q-27 1 -45 19v0v0q-18 18 -19 45v256v0q1 27 19 45t45 19h256v0q27 -1 45 -19t19 -45v-256v0q-1 -27 -19 -45t-45 -19h-256v0zM576 89q-1 -19 -17 -28q-17 -9 -33 1l-96 64v0l-14 10v0v17v0v128v0v17v0l14 10v0l96 64v0q16 9 33 1q16 -9 17 -28v-256v0zM152 121
h112h-112h112q22 2 24 24v112v0q-2 22 -24 24q-22 -2 -24 -24v-54v0l-103 103v0q-17 14 -34 0q-14 -17 0 -34l103 -103v0h-54v0q-22 -2 -24 -24q2 -22 24 -24v0z" />
</svg>
