<?xml version="1.0" standalone="no"?>
<!DOCTYPE svg PUBLIC "-//W3C//DTD SVG 1.1//EN" "http://www.w3.org/Graphics/SVG/1.1/DTD/svg11.dtd" >
<svg xmlns="http://www.w3.org/2000/svg" xmlns:xlink="http://www.w3.org/1999/xlink" version="1.1" viewBox="-10 -40 404 512">
   <path fill="currentColor"
d="M64 9h256h-256h256q-1 -20 -14 -34q-14 -13 -34 -14h-160v0q-20 1 -34 14q-13 14 -14 34v0zM80 41q-34 1 -57 23v0v0q-22 23 -23 57v192v0q1 34 23 57q23 22 57 23h224v0q34 -1 57 -23q22 -23 23 -57v-192v0q-1 -34 -23 -57q-23 -22 -57 -23h-224v0zM192 174q25 0 39 21
q12 22 0 44q-14 21 -39 21t-39 -21q-12 -22 0 -44q14 -21 39 -21v0zM213 313q1 -18 16 -28q16 -8 32 0q16 10 16 28q0 14 -9 23t-23 9q-13 0 -22 -9t-10 -23v0zM139 281q13 0 22 9v0v0q9 9 10 23q-1 14 -10 23t-22 9q-14 0 -23 -9t-9 -23t9 -23t23 -9v0zM213 121
q1 -18 16 -28q16 -8 32 0q16 10 16 28q0 14 -9 23t-23 9q-13 0 -22 -9t-10 -23v0zM139 89q13 0 22 9v0v0q9 9 10 23q-1 14 -10 23t-22 9q-14 0 -23 -9t-9 -23t9 -23t23 -9v0zM64 217q0 -14 9 -23v0v0q9 -9 23 -9t23 9t9 23t-9 23t-23 9t-23 -9t-9 -23v0zM288 185q14 0 23 9
v0v0q9 9 9 23t-9 23t-23 9t-23 -9t-9 -23t9 -23t23 -9v0zM112 473h160h-160h160q20 -1 34 -14q13 -14 14 -34h-256v0q1 20 14 34q14 13 34 14v0z" />
</svg>
