<?xml version="1.0" standalone="no"?>
<!DOCTYPE svg PUBLIC "-//W3C//DTD SVG 1.1//EN" "http://www.w3.org/Graphics/SVG/1.1/DTD/svg11.dtd" >
<svg xmlns="http://www.w3.org/2000/svg" xmlns:xlink="http://www.w3.org/1999/xlink" version="1.1" viewBox="-10 -40 660 512">
   <path fill="currentColor"
d="M320 -7q-21 1 -34 15v0v0q-14 14 -13 35l15 208v0q1 13 10 21q9 9 22 9t22 -9q9 -8 10 -21l15 -208v0q1 -21 -13 -35q-13 -14 -34 -15v0zM241 46q-1 -27 12 -48q-70 11 -132 42q-62 30 -111 78q-10 9 -10 22t9 23q10 10 22 10q13 0 23 -9q79 -75 189 -99l-2 -19v0z
M399 46l-2 19l2 -19l-2 19q110 24 189 99q10 9 23 9q12 0 22 -10q9 -10 9 -23t-10 -22q-49 -48 -111 -78q-62 -31 -132 -42q13 21 12 48v0zM130 225q-10 9 -11 22v0v0q-1 13 8 23t22 11q12 1 23 -8q36 -32 82 -46l-4 -65v0q-69 17 -120 63v0zM390 162l-4 65l4 -65l-4 65
q46 14 82 46q11 9 23 8q13 -1 22 -11t8 -23q0 -13 -10 -22q-52 -46 -121 -63v0zM384 377q-1 -36 -32 -55q-32 -18 -64 0q-31 19 -32 55q1 36 32 55q32 18 64 0q31 -19 32 -55v0z" />
</svg>
