<?xml version="1.0" standalone="no"?>
<!DOCTYPE svg PUBLIC "-//W3C//DTD SVG 1.1//EN" "http://www.w3.org/Graphics/SVG/1.1/DTD/svg11.dtd" >
<svg xmlns="http://www.w3.org/2000/svg" xmlns:xlink="http://www.w3.org/1999/xlink" version="1.1" viewBox="-10 -40 660 512">
   <path fill="currentColor"
d="M320 121q-2 -68 -47 -113v0v0q-45 -45 -113 -47q-68 2 -113 47t-47 113q1 47 24 87q22 41 50 70q27 29 44 43q9 8 4 20l-25 49v0q-1 3 -1 6q1 12 13 13h102v0q12 -1 13 -13q0 -3 -1 -6l-25 -49v0q-5 -12 4 -20q17 -14 44 -43q28 -29 50 -70q23 -40 24 -87v0zM144 57
q-20 1 -34 14v0v0q-13 14 -14 34q-1 15 -16 16q-15 -1 -16 -16q1 -34 23 -57q23 -22 57 -23q15 1 16 16q-1 15 -16 16v0zM438 385q9 8 4 20l-25 49v0q-1 3 -1 6q1 12 13 13h102v0q12 -1 13 -13q0 -3 -1 -6l-25 -49v0q-5 -12 4 -20q17 -14 44 -43q28 -29 50 -70
q23 -40 24 -87q-2 -68 -47 -113t-113 -47q-41 0 -74 18q-34 18 -56 49q2 14 2 29q-2 56 -27 102q16 58 53 101t60 61v0zM416 169q-1 15 -16 16q-15 -1 -16 -16q1 -34 23 -57q23 -22 57 -23q15 1 16 16q-1 15 -16 16q-20 1 -34 14q-13 14 -14 34v0z" />
</svg>
