<?xml version="1.0" standalone="no"?>
<!DOCTYPE svg PUBLIC "-//W3C//DTD SVG 1.1//EN" "http://www.w3.org/Graphics/SVG/1.1/DTD/svg11.dtd" >
<svg xmlns="http://www.w3.org/2000/svg" xmlns:xlink="http://www.w3.org/1999/xlink" version="1.1" viewBox="-10 -40 660 512">
   <path fill="currentColor"
d="M608 57q0 8 -1 15q31 23 33 65q-1 34 -23 57q-23 22 -57 23h-16v0v224v0q0 14 -9 23t-23 9t-23 -9t-9 -23v-224v0h-16v0q-34 -1 -57 -23q-22 -23 -23 -57q2 -42 33 -65q-1 -7 -1 -15q1 -41 28 -68t68 -28q41 1 68 28t28 68v0zM32 185q0 -14 9 -23v0v0q9 -9 23 -9h256v0
q14 0 23 9t9 23v64v0q0 14 -9 23t-23 9h-256v0q-14 0 -23 -9t-9 -23v-64v0zM32 313h320h-320h320q14 0 23 9t9 23t-9 23t-23 9v64v0q0 14 -9 23t-23 9t-23 -9t-9 -23v-64v0h-192v0v64v0q0 14 -9 23t-23 9t-23 -9t-9 -23v-64v0q-14 0 -23 -9t-9 -23t9 -23t23 -9v0z" />
</svg>
