<?xml version="1.0" standalone="no"?>
<!DOCTYPE svg PUBLIC "-//W3C//DTD SVG 1.1//EN" "http://www.w3.org/Graphics/SVG/1.1/DTD/svg11.dtd" >
<svg xmlns="http://www.w3.org/2000/svg" xmlns:xlink="http://www.w3.org/1999/xlink" version="1.1" viewBox="-10 -40 522 512">
   <path fill="currentColor"
d="M304 89h80h-80h80q41 -1 68 -28t28 -68v-16v0q-1 -15 -16 -16h-80v0q-41 1 -68 28t-28 68v16v0q1 15 16 16v0zM256 57q0 -35 17 -63q-8 -1 -17 -1q-67 1 -121 33t-86 86t-33 121q1 67 33 121t86 86t121 33q67 -1 121 -33t86 -86t33 -121q-1 -75 -41 -134q-31 21 -71 22
h-80v0q-20 -1 -34 -14q-13 -14 -14 -34v-16v0z" />
</svg>
