<?xml version="1.0" standalone="no"?>
<!DOCTYPE svg PUBLIC "-//W3C//DTD SVG 1.1//EN" "http://www.w3.org/Graphics/SVG/1.1/DTD/svg11.dtd" >
<svg xmlns="http://www.w3.org/2000/svg" xmlns:xlink="http://www.w3.org/1999/xlink" version="1.1" viewBox="-10 -40 532 512">
   <path fill="currentColor"
d="M141 102q-66 68 -86 134q-17 64 8 86q22 25 87 8q65 -20 133 -86q66 -68 86 -133q17 -65 -8 -87q-22 -25 -86 -8q-66 20 -134 86v0zM260 -29q38 -12 74 -9v0v0q35 3 61 28l41 41v0q37 37 56 84q20 47 20 99q-1 72 -35 131q-35 58 -93 93q-59 34 -131 35q-52 0 -99 -20
q-47 -19 -84 -56l-41 -41v0q-25 -26 -28 -61q-3 -36 9 -74q24 -78 97 -153q75 -73 153 -97v0zM324 59q18 20 -1 65v0v0q-19 44 -67 93q-49 48 -93 67q-45 19 -65 1q-18 -21 1 -65q19 -45 67 -93t93 -67q44 -19 65 -1v0zM419 166q-11 -10 -22 0q-10 11 0 22l32 32v0
q11 10 22 0q10 -11 0 -22l-32 -32v0zM363 302q-11 -10 -22 0q-10 11 0 22l32 32v0q11 10 22 0q10 -11 0 -22l-32 -32v0zM227 358q-11 -10 -22 0q-10 11 0 22l32 32v0q11 10 22 0q10 -11 0 -22l-32 -32v0z" />
</svg>
