<?xml version="1.0" standalone="no"?>
<!DOCTYPE svg PUBLIC "-//W3C//DTD SVG 1.1//EN" "http://www.w3.org/Graphics/SVG/1.1/DTD/svg11.dtd" >
<svg xmlns="http://www.w3.org/2000/svg" xmlns:xlink="http://www.w3.org/1999/xlink" version="1.1" viewBox="-10 -40 468 512">
   <path fill="currentColor"
d="M0 57q1 -27 19 -45v0v0q18 -18 45 -19h320v0q27 1 45 19t19 45v320v0q-1 27 -19 45t-45 19h-320v0q-27 -1 -45 -19t-19 -45v-320v0zM70 113q-13 17 2 34l77 70v0l-77 70v0q-15 17 -2 34q17 15 34 2l96 -88v0q8 -7 8 -18q0 -10 -8 -18l-96 -88v0q-17 -13 -34 2v0zM216 297
q-22 2 -24 24q2 22 24 24h144v0q22 -2 24 -24q-2 -22 -24 -24h-144v0z" />
</svg>
