<?xml version="1.0" standalone="no"?>
<!DOCTYPE svg PUBLIC "-//W3C//DTD SVG 1.1//EN" "http://www.w3.org/Graphics/SVG/1.1/DTD/svg11.dtd" >
<svg xmlns="http://www.w3.org/2000/svg" xmlns:xlink="http://www.w3.org/1999/xlink" version="1.1" viewBox="-10 -40 404 512">
   <path fill="currentColor"
d="M336 -7v128v-128v128h16v0q14 0 23 9t9 23t-9 23t-23 9h-48h-48q-14 0 -23 -9t-9 -23t9 -23t23 -9h16v0v-84v0l-6 2v0q-13 4 -24 -1q-12 -6 -16 -19t1 -24q6 -12 19 -16l48 -16v0q15 -5 29 4q13 10 13 26v0zM112 281v128v-128v128h16v0q14 0 23 9t9 23t-9 23t-23 9h-48
h-48q-14 0 -23 -9t-9 -23t9 -23t23 -9h16v0v-84v0l-6 2v0q-13 4 -24 -1q-12 -6 -16 -19t1 -24q6 -12 19 -16l48 -16v0q15 -5 29 4q12 10 13 26v0zM0 25q1 -27 19 -45v0v0q18 -18 45 -19h64v0q27 1 45 19t19 45v96v0q-1 27 -19 45t-45 19h-64v0q-27 -1 -45 -19t-19 -45v-96v0
zM128 25h-64h64h-64v96v0h64v0v-96v0zM256 249h64h-64h64q27 1 45 19t19 45v96v0q-1 27 -19 45t-45 19h-64v0q-27 -1 -45 -19t-19 -45v-96v0q1 -27 19 -45t45 -19v0zM256 313v96v-96v96h64v0v-96v0h-64v0z" />
</svg>
