<?xml version="1.0" standalone="no"?>
<!DOCTYPE svg PUBLIC "-//W3C//DTD SVG 1.1//EN" "http://www.w3.org/Graphics/SVG/1.1/DTD/svg11.dtd" >
<svg xmlns="http://www.w3.org/2000/svg" xmlns:xlink="http://www.w3.org/1999/xlink" version="1.1" viewBox="-10 -40 660 512">
   <path fill="currentColor"
d="M323 -33q13 10 13 26v128v0h16v0q14 0 23 9t9 23t-9 23t-23 9h-48h-48q-14 0 -23 -9t-9 -23t9 -23t23 -9h16v0v-84v0l-6 2v0q-13 4 -24 -1q-12 -6 -16 -19t1 -24q6 -12 19 -16l48 -16v0q15 -5 29 4v0zM99 255q13 10 13 26v128v0h16v0q14 0 23 9t9 23t-9 23t-23 9h-48h-48
q-14 0 -23 -9t-9 -23t9 -23t23 -9h16v0v-84v0l-6 2v0q-13 4 -24 -1q-12 -6 -16 -19t1 -24q6 -12 19 -16l48 -16v0q15 -5 29 4v0zM64 -39h64h-64h64q27 1 45 19t19 45v96v0q-1 27 -19 45t-45 19h-64v0q-27 -1 -45 -19t-19 -45v-96v0q1 -27 19 -45t45 -19v0zM64 25v96v-96v96
h64v0v-96v0h-64v0zM192 313q1 -27 19 -45v0v0q18 -18 45 -19h64v0q9 0 18 3q-17 34 -18 75v-14v0h-64v0v96v0h64v0v0v0h19v0q12 23 30 42q-19 21 -49 22h-64v0q-27 -1 -45 -19t-19 -45v-96v0zM321 345h-1h1h-1v-14v0q0 7 1 14v0zM352 329q0 -39 19 -72v0v0q19 -33 53 -53
q34 -19 72 -19t72 19q34 20 53 53t19 72t-19 72t-53 53q-34 19 -72 19t-72 -19q-34 -20 -53 -53t-19 -72v0zM563 286q-11 -10 -22 0l-61 60v0l-29 -28v0q-11 -10 -22 0q-10 11 0 22l40 40v0q11 10 22 0l72 -72v0q10 -11 0 -22v0z" />
</svg>
