<?xml version="1.0" standalone="no"?>
<!DOCTYPE svg PUBLIC "-//W3C//DTD SVG 1.1//EN" "http://www.w3.org/Graphics/SVG/1.1/DTD/svg11.dtd" >
<svg xmlns="http://www.w3.org/2000/svg" xmlns:xlink="http://www.w3.org/1999/xlink" version="1.1" viewBox="-10 -40 596 512">
   <path fill="currentColor"
d="M167 78q8 -20 30 -21h182v0q22 1 30 21l26 75v0h-294v0l26 -75v0zM32 185h9h-9h9q-9 14 -9 32v144v0v48v0q0 14 9 23t23 9h32v0q14 0 23 -9t9 -23v-48v0h320v0v48v0q0 14 9 23t23 9h32v0q14 0 23 -9t9 -23v-48v0v-144v0q0 -18 -9 -32h9v0q14 0 23 -9t9 -23t-9 -23t-23 -9
h-52v0l-23 -64v0q-10 -29 -35 -46q-24 -18 -55 -18h-182v0q-31 0 -55 18q-25 17 -35 46l-22 64v0h-53v0q-14 0 -23 9t-9 23t9 23t23 9v0zM96 249q0 -14 9 -23v0v0q9 -9 23 -9t23 9t9 23t-9 23t-23 9t-23 -9t-9 -23v0zM448 217q14 0 23 9v0v0q9 9 9 23t-9 23t-23 9t-23 -9
t-9 -23t9 -23t23 -9v0z" />
</svg>
