<?xml version="1.0" standalone="no"?>
<!DOCTYPE svg PUBLIC "-//W3C//DTD SVG 1.1//EN" "http://www.w3.org/Graphics/SVG/1.1/DTD/svg11.dtd" >
<svg xmlns="http://www.w3.org/2000/svg" xmlns:xlink="http://www.w3.org/1999/xlink" version="1.1" viewBox="-10 -40 532 512">
   <path fill="currentColor"
d="M256 473q-70 -1 -128 -34v0v0q-58 -34 -94 -94q-34 -61 -34 -128t34 -128q36 -60 94 -94q58 -33 128 -34q70 1 128 34q58 34 94 94q34 61 34 128t-34 128q-36 60 -94 94q-58 33 -128 34v0zM280 353v-57v57v-57l20 30v0q14 17 33 7q17 -14 7 -33l-64 -96v0
q-10 -14 -27 -10q-16 6 -17 23v136v0q2 22 24 24q22 -2 24 -24v0z" />
</svg>
