<?xml version="1.0" standalone="no"?>
<!DOCTYPE svg PUBLIC "-//W3C//DTD SVG 1.1//EN" "http://www.w3.org/Graphics/SVG/1.1/DTD/svg11.dtd" >
<svg xmlns="http://www.w3.org/2000/svg" xmlns:xlink="http://www.w3.org/1999/xlink" version="1.1" viewBox="-10 -40 660 512">
   <path fill="currentColor"
d="M144 441q-61 -2 -102 -42v0v0q-40 -41 -42 -102q1 -48 27 -84t69 -52v-8q2 -68 47 -113t113 -47q45 1 81 22q36 22 58 58q23 -16 53 -16q41 1 68 28t28 68q0 18 -6 35q44 9 73 44q28 34 29 81q-1 54 -37 91q-37 36 -91 37h-368v0zM239 168q-14 17 0 34l47 47v0l-47 47v0
q-14 17 0 34q17 14 34 0l47 -47v0l47 47v0q17 14 34 0q14 -17 0 -34l-47 -47v0l47 -47v0q14 -17 0 -34q-17 -14 -34 0l-47 47v0l-47 -47v0q-17 -14 -34 0v0z" />
</svg>
