<?xml version="1.0" standalone="no"?>
<!DOCTYPE svg PUBLIC "-//W3C//DTD SVG 1.1//EN" "http://www.w3.org/Graphics/SVG/1.1/DTD/svg11.dtd" >
<svg xmlns="http://www.w3.org/2000/svg" xmlns:xlink="http://www.w3.org/1999/xlink" version="1.1" viewBox="-10 -40 660 512">
   <path fill="currentColor"
d="M64 -7q-27 1 -45 19v0v0q-18 18 -19 45v320v0q1 27 19 45t45 19h512v0q27 -1 45 -19t19 -45v-320v0q-1 -27 -19 -45t-45 -19h-512v0zM192 57v320v-320v320h-128v0v-320v0h128v0zM256 57h128h-128h128v320v0h-128v0v-320v0zM576 57v320v-320v320h-128v0v-320v0h128v0z" />
</svg>
