<?xml version="1.0" standalone="no"?>
<!DOCTYPE svg PUBLIC "-//W3C//DTD SVG 1.1//EN" "http://www.w3.org/Graphics/SVG/1.1/DTD/svg11.dtd" >
<svg xmlns="http://www.w3.org/2000/svg" xmlns:xlink="http://www.w3.org/1999/xlink" version="1.1" viewBox="-10 -40 660 512">
   <path fill="currentColor"
d="M96 185q-17 0 -31 8q7 -56 35 -93q33 -43 76 -43t76 43q34 45 36 117q-2 72 -36 117q-33 43 -76 43t-76 -43q-8 -10 -14 -22q5 1 10 1q27 -1 45 -19t19 -45q-1 -27 -19 -45t-45 -19v0zM320 88q-7 -14 -17 -26q-23 -31 -55 -50q-33 -19 -72 -19t-72 19q-32 19 -55 50
q-48 64 -49 155q1 91 49 155q23 31 55 50q33 19 72 19t72 -19q32 -19 55 -50q9 -12 17 -26q7 14 17 26q23 31 55 50q33 19 72 19t72 -19q32 -19 55 -50q48 -64 49 -155q-1 -91 -49 -155q-23 -31 -55 -50q-33 -19 -72 -19t-72 19q-32 19 -55 50q-9 12 -17 26v0zM374 312
q5 1 10 1q27 -1 45 -19t19 -45q-1 -27 -19 -45t-45 -19q-17 0 -31 8q7 -56 35 -93q33 -43 76 -43t76 43q34 45 36 117q-2 72 -36 117q-33 43 -76 43t-76 -43q-8 -10 -14 -22v0z" />
</svg>
