<?xml version="1.0" standalone="no"?>
<!DOCTYPE svg PUBLIC "-//W3C//DTD SVG 1.1//EN" "http://www.w3.org/Graphics/SVG/1.1/DTD/svg11.dtd" >
<svg xmlns="http://www.w3.org/2000/svg" xmlns:xlink="http://www.w3.org/1999/xlink" version="1.1" viewBox="-10 -40 532 512">
   <path fill="currentColor"
d="M256 473q70 -1 128 -34v0v0q58 -34 94 -94q34 -61 34 -128t-34 -128q-36 -60 -94 -94q-58 -33 -128 -34q-70 1 -128 34q-58 34 -94 94q-34 61 -34 128t34 128q36 60 94 94q58 33 128 34v0zM256 281q34 1 57 23v0v0q22 23 23 57q-1 15 -16 16h-128v0q-15 -1 -16 -16
q1 -34 23 -57q23 -22 57 -23v0zM144 185q1 -14 10 -23v0v0q9 -9 22 -9q14 0 23 9t9 23t-9 23t-23 9q-13 0 -22 -9t-10 -23v0zM336 153q14 0 23 9v0v0q9 9 9 23t-9 23t-23 9q-13 0 -22 -9t-10 -23q1 -14 10 -23t22 -9v0zM192 89q-7 0 -13 1q-32 5 -56 27q-12 9 -23 -1
q-9 -12 1 -23q31 -29 74 -35q8 -1 17 -1q15 1 16 16q-1 15 -16 16v0zM333 90q-6 -1 -13 -1q-15 -1 -16 -16q1 -15 16 -16q9 0 17 1q43 6 74 35q10 11 1 23q-11 10 -23 1q-24 -22 -56 -27v0z" />
</svg>
