<?xml version="1.0" standalone="no"?>
<!DOCTYPE svg PUBLIC "-//W3C//DTD SVG 1.1//EN" "http://www.w3.org/Graphics/SVG/1.1/DTD/svg11.dtd" >
<svg xmlns="http://www.w3.org/2000/svg" xmlns:xlink="http://www.w3.org/1999/xlink" version="1.1" viewBox="-10 -40 586 512">
   <path fill="currentColor"
d="M288 473q72 -1 129 -35v0v0q58 -34 92 -92v0v0q34 -57 35 -129q-1 -72 -35 -129q-34 -58 -92 -92q-57 -34 -129 -35q-72 1 -129 35q-58 34 -92 92q-34 57 -35 129v2v1q28 -10 48 13q12 15 28 41q7 12 13 26q6 12 7 30q-1 38 -28 60q35 39 83 61q49 22 105 22v0zM80 366
q15 -14 16 -36q-1 -16 -16 -40q-14 -23 -26 -38q-6 -6 -12 0l-2 2l-4 6q-12 16 -24 36q-11 20 -12 34q1 20 14 33q14 14 34 14q18 0 32 -11v0zM208 361q1 -34 23 -57v0v0q23 -22 57 -23q34 1 57 23q22 23 23 57q-1 15 -16 16h-128v0q-15 -1 -16 -16v0zM368 201q13 0 22 9v0
v0q9 9 10 23q-1 14 -10 23t-22 9q-14 0 -23 -9t-9 -23t9 -23t23 -9v0zM240 233q-1 14 -10 23v0v0q-9 9 -22 9q-14 0 -23 -9t-9 -23t9 -23t23 -9q13 0 22 9t10 23v0zM227 132l-7 8l7 -8l-7 8q-37 36 -87 44l-2 1v0q-15 1 -19 -13q-1 -15 13 -19h3v0q40 -7 69 -36l8 -7v0
q11 -10 22 0q10 11 0 22v0zM349 110q11 -10 22 0l8 7v0q29 29 69 36h3v0q14 4 13 19q-4 14 -18 13l-3 -1v0q-50 -8 -87 -44l-7 -8v0q-9 -11 0 -22v0z" />
</svg>
