<?xml version="1.0" standalone="no"?>
<!DOCTYPE svg PUBLIC "-//W3C//DTD SVG 1.1//EN" "http://www.w3.org/Graphics/SVG/1.1/DTD/svg11.dtd" >
<svg xmlns="http://www.w3.org/2000/svg" xmlns:xlink="http://www.w3.org/1999/xlink" version="1.1" viewBox="-10 -40 522 512">
   <path fill="currentColor"
d="M216 -39q14 0 26 11q14 9 28 0q12 -11 26 -11q28 3 49 38q22 35 33 72q51 -16 89 -43q4 -3 8 -3q15 2 13 17q-22 63 -84 102q-63 40 -148 41q-85 -1 -148 -41q-62 -39 -84 -102q-3 -15 13 -17q4 0 8 3q38 27 89 43q11 -37 33 -72q21 -35 49 -38v0zM48 265q1 -57 28 -104
q76 54 180 56q104 -1 180 -56q27 47 28 104q-2 88 -61 147t-147 61q-88 -2 -147 -61t-61 -147v0zM348 326q-42 12 -92 12q-49 0 -91 -12q-10 -2 -16 3q-7 6 -3 16q16 30 45 49t65 19q37 0 66 -19t44 -50q4 -9 -2 -15t-16 -3v0zM216 265q-2 -22 -24 -24q-22 2 -24 24
q2 22 24 24q22 -2 24 -24v0zM320 289q22 -2 24 -24q-2 -22 -24 -24q-22 2 -24 24q2 22 24 24v0z" />
</svg>
