<?xml version="1.0" standalone="no"?>
<!DOCTYPE svg PUBLIC "-//W3C//DTD SVG 1.1//EN" "http://www.w3.org/Graphics/SVG/1.1/DTD/svg11.dtd" >
<svg xmlns="http://www.w3.org/2000/svg" xmlns:xlink="http://www.w3.org/1999/xlink" version="1.1" viewBox="-10 -40 532 512">
   <path fill="currentColor"
d="M256 473q70 -1 128 -34v0v0q58 -34 94 -94q34 -61 34 -128t-34 -128q-36 -60 -94 -94q-58 -33 -128 -34q-70 1 -128 34q-58 34 -94 94q-34 61 -34 128t34 128q36 60 94 94q58 33 128 34v0zM316 372q-9 -10 -24 -19v0v0q-15 -8 -36 -8t-36 8q-15 9 -24 19q-11 10 -23 1
q-10 -11 -1 -23q12 -14 33 -25t51 -12q30 1 51 12t33 25q9 12 -1 23q-12 9 -23 -1v0zM211 228l-7 8l7 -8l-7 8q-37 36 -87 44l-2 1v0q-15 1 -19 -13q-1 -15 13 -19h3v0q40 -7 69 -36l8 -7v0q11 -10 22 0q10 11 0 22v0zM301 228q-10 -11 0 -22q11 -10 22 0l8 7v0q29 29 69 36
h3v0q14 4 13 19q-4 14 -18 13l-3 -1v0q-50 -8 -87 -44l-7 -8v0z" />
</svg>
