<?xml version="1.0" standalone="no"?>
<!DOCTYPE svg PUBLIC "-//W3C//DTD SVG 1.1//EN" "http://www.w3.org/Graphics/SVG/1.1/DTD/svg11.dtd" >
<svg xmlns="http://www.w3.org/2000/svg" xmlns:xlink="http://www.w3.org/1999/xlink" version="1.1" viewBox="-10 -40 532 512">
   <path fill="currentColor"
d="M256 473q72 -1 129 -35v0v0q58 -34 92 -92v0v0q34 -57 35 -129q0 -25 -4 -48h-68v0q-1 38 -25 65q-25 26 -62 31q15 12 15 32q-1 25 -23 38l20 24v0q8 12 -3 23q-12 8 -22 -3l-24 -30v0l-8 4v0l11 26v0q4 14 -9 21q-14 4 -21 -9l-10 -25v0q-3 1 -7 2v25v0q-1 15 -16 16
q-15 -1 -16 -16v-25v0q-4 -1 -7 -2l-10 25v0q-7 13 -21 9q-13 -7 -9 -21l11 -26v0l-8 -4v0l-23 30v0q-11 11 -23 3q-11 -11 -2 -23l19 -24v0q-22 -13 -23 -38q0 -20 15 -32q-37 -5 -62 -31q-24 -27 -25 -65h-67v0q-5 23 -5 48q1 72 35 129q34 58 92 92q57 34 129 35v0z
M318 228q12 5 26 5q27 -1 45 -19t19 -45q-1 -27 -19 -45t-45 -19q-27 1 -45 19t-19 45v7q9 6 14 14l21 36v0q2 1 3 1v1zM232 169q-1 -27 -19 -45v0v0q-18 -18 -45 -19q-27 1 -45 19t-19 45q1 27 19 45t45 19q14 0 26 -5q0 -1 1 -1t2 -1l21 -35v0q5 -9 14 -15v-7v0zM13 137
h65h-65h65q8 -23 25 -38l-5 -11v0q-6 -13 7 -21q14 -6 21 7l4 7v0q7 -3 14 -5v-19v0q2 -15 16 -16q15 1 16 16v16v0q7 1 13 2l5 -9v0q8 -13 21 -7q13 7 7 21l-3 7v0q25 16 37 44q12 -28 37 -44l-3 -7v0q-5 -14 7 -21q14 -6 22 7l4 9v0q7 -1 13 -2v-16v0q2 -15 16 -16
q15 1 16 16v19v0q8 2 15 5l3 -7v0q8 -13 22 -7q12 7 7 21l-5 11v0q17 16 25 38h65v0q-27 -78 -92 -126q-66 -49 -152 -50q-86 1 -152 50q-65 48 -91 126v0zM256 201q-7 0 -10 6l-40 66v0l-3 4v0l-4 2v0l-18 9v0q-5 3 -5 9t5 9l54 26v0q21 10 42 0l54 -26v0q5 -3 5 -9t-5 -9
l-18 -9v0l-4 -2v0l-3 -4v0l-39 -66v0q-4 -6 -11 -6v0zM144 177q2 -22 24 -24q22 2 24 24q-2 22 -24 24q-22 -2 -24 -24v0zM344 153q22 2 24 24q-2 22 -24 24q-22 -2 -24 -24q2 -22 24 -24v0z" />
</svg>
