<?xml version="1.0" standalone="no"?>
<!DOCTYPE svg PUBLIC "-//W3C//DTD SVG 1.1//EN" "http://www.w3.org/Graphics/SVG/1.1/DTD/svg11.dtd" >
<svg xmlns="http://www.w3.org/2000/svg" xmlns:xlink="http://www.w3.org/1999/xlink" version="1.1" viewBox="-10 -40 532 512">
   <path fill="currentColor"
d="M35 87q6 2 13 2q20 0 34 -14q13 -13 14 -33q0 -8 -5 -18v-1v-1q-8 -16 -18 -32q-11 -16 -18 -26q-7 -6 -13 0q-12 15 -26 38q-15 24 -16 40q0 17 10 29t25 16v0zM256 -39q-78 1 -139 41l4 10q6 12 7 30q-1 34 -24 56t-56 23q-14 0 -27 -5q-21 47 -21 101q1 72 35 129
q34 58 92 92q57 34 129 35q72 -1 129 -35q58 -34 92 -92q34 -57 35 -129q-1 -72 -35 -129q-34 -58 -92 -92q-57 -34 -129 -35v0zM196 372q-11 10 -23 1q-10 -11 -1 -23q12 -14 33 -25t51 -12q30 1 51 12t33 25q9 12 -1 23q-12 9 -23 -1q-9 -10 -24 -19q-15 -8 -36 -8t-36 8
q-15 9 -24 19v0zM96 233q1 -15 16 -16h96v0q15 1 16 16q-1 15 -16 16h-96v0q-15 -1 -16 -16v0zM304 217h96h-96h96q15 1 16 16q-1 15 -16 16h-96v0q-15 -1 -16 -16q1 -15 16 -16v0z" />
</svg>
