<?xml version="1.0" standalone="no"?>
<!DOCTYPE svg PUBLIC "-//W3C//DTD SVG 1.1//EN" "http://www.w3.org/Graphics/SVG/1.1/DTD/svg11.dtd" >
<svg xmlns="http://www.w3.org/2000/svg" xmlns:xlink="http://www.w3.org/1999/xlink" version="1.1" viewBox="-10 -40 532 512">
   <path fill="currentColor"
d="M512 217q-1 72 -35 129v0v0q-34 58 -92 92v0v0q-57 34 -129 35q-72 -1 -129 -35q-58 -34 -92 -92q-34 -57 -35 -129q0 -33 8 -64h40v0v56v0q1 24 16 40q16 15 40 16h80v0q24 -1 40 -16q15 -16 16 -40v-56v0h32v0v56v0q1 24 16 40q16 15 40 16h80v0q24 -1 40 -16
q15 -16 16 -40v-56v0h40v0q8 31 8 64v0zM256 -39q82 1 145 45v0v0q63 43 92 115h-34v0q-16 -30 -51 -32h-80v0q-35 2 -51 32h-42v0q-16 -30 -51 -32h-80v0q-35 2 -51 32h-34v0q29 -72 92 -115q63 -44 145 -45v0zM80 153v-8v8v-8q2 -22 24 -24h80v0q22 2 24 24v64v0
q-2 22 -24 24h-80v0q-22 -2 -24 -24v-56v0zM142 301q-11 11 -2 23q17 20 46 36t70 17q41 -1 70 -17t46 -36q9 -12 -1 -23q-12 -9 -23 2q-14 16 -36 29q-23 12 -56 13q-33 -1 -56 -13q-22 -13 -36 -29q-11 -11 -22 -2v0zM304 145q2 -22 24 -24h80v0q22 2 24 24v8v0v56v0
q-2 22 -24 24h-80v0q-22 -2 -24 -24v-64v0zM184 185q-2 -22 -24 -24q-22 2 -24 24q2 22 24 24q22 -2 24 -24v0zM352 209q22 -2 24 -24q-2 -22 -24 -24q-22 2 -24 24q2 22 24 24v0z" />
</svg>
