<?xml version="1.0" standalone="no"?>
<!DOCTYPE svg PUBLIC "-//W3C//DTD SVG 1.1//EN" "http://www.w3.org/Graphics/SVG/1.1/DTD/svg11.dtd" >
<svg xmlns="http://www.w3.org/2000/svg" xmlns:xlink="http://www.w3.org/1999/xlink" version="1.1" viewBox="-10 -40 589 512">
   <path fill="currentColor"
d="M288 -39q-56 0 -104 22v0v0q-49 22 -84 60q-19 4 -37 9q-13 3 -20 14q-24 39 -35 84q-4 16 7 29q-4 4 -7 8q-7 9 -8 20v5v5q0 47 14 90q7 18 26 22q9 1 17 -2q32 66 92 105q61 40 139 41q72 -1 129 -35q58 -34 92 -92q34 -57 35 -129q0 -14 -1 -28q9 -2 16 -8
q13 -13 9 -31q-11 -45 -35 -84q-5 -8 -13 -12q-1 -9 -7 -17q-32 -40 -76 -67q-10 -5 -21 -4q-24 3 -48 8q-38 -13 -80 -13v0zM219 60v0v0v0v0v0v0q34 -3 69 -3q60 0 118 7q3 1 7 1q47 7 93 18v0v0q11 18 19 38q8 18 12 37q-18 -6 -36 -10q-89 -23 -185 -26v0v0
q-14 -1 -28 -1q-26 0 -51 2q-72 4 -141 20l-18 4q-1 0 -3 1q-18 4 -36 10q0 -2 1 -3v-3q5 -16 11 -31q8 -20 19 -38q35 -8 71 -14v0v0h1q0 -1 1 -1q38 -6 76 -8v0zM50 187q62 -18 127 -27q-61 45 -108 104q-13 16 -24 33q-7 -20 -10 -41q-3 -19 -3 -39v-9q9 -11 18 -21v0z
M176 201q21 -16 42 -30q21 7 22 30q0 14 -9 23t-23 9q-13 0 -22 -9t-10 -23v0zM476 43q-85 -17 -175 -18q57 -19 119 -27q21 12 39 28q9 8 17 17v0zM373 359q-12 -12 -32 -21v0v0q-19 -9 -45 -9q-20 0 -35 5q-15 3 -20 -10q-3 -15 10 -20q20 -7 45 -7q33 0 58 12
q25 11 41 26q10 11 1 22q-11 10 -23 2v0zM368 169q14 0 23 9v0v0q9 9 9 23t-9 23t-23 9q-13 0 -22 -9t-10 -23q1 -14 10 -23t22 -9v0z" />
</svg>
