<?xml version="1.0" standalone="no"?>
<!DOCTYPE svg PUBLIC "-//W3C//DTD SVG 1.1//EN" "http://www.w3.org/Graphics/SVG/1.1/DTD/svg11.dtd" >
<svg xmlns="http://www.w3.org/2000/svg" xmlns:xlink="http://www.w3.org/1999/xlink" version="1.1" viewBox="-10 -40 532 512">
   <path fill="currentColor"
d="M0 217q1 -70 34 -128v0v0q34 -58 94 -94q61 -34 128 -34t128 34q60 36 94 94q33 58 34 128q-1 70 -34 128q-34 58 -94 94q-61 34 -128 34t-128 -34q-60 -36 -94 -94q-33 -58 -34 -128v0zM303 389q10 -11 1 -23q-14 -18 -48 -21q-34 3 -48 21q-9 12 1 23q12 9 23 -1
q7 -10 24 -11q17 1 24 11q11 10 23 1v0zM240 201q-1 -32 -21 -54v0v0q-20 -22 -51 -26q15 -16 22 -38l1 -6v0q3 -14 -11 -19q-14 -3 -19 11l-2 5v0q-13 39 -54 46l-11 1v0q-14 3 -14 18q3 13 16 14q-15 21 -16 48q1 34 23 57q23 22 57 23q34 -1 57 -23q22 -23 23 -57v0z
M432 201q0 -27 -16 -48q13 -1 16 -14q0 -15 -14 -18l-11 -1v0q-41 -7 -54 -46l-2 -5v0q-5 -14 -19 -11q-14 5 -11 19l1 6v0q7 22 22 38q-31 4 -51 26t-21 54q1 34 23 57q23 22 57 23q34 -1 57 -23q22 -23 23 -57v0zM128 193q14 0 23 -9v0v0q9 -9 9 -23q0 -9 -4 -16h4
q24 1 40 16q15 16 16 40q-1 24 -16 40q-16 15 -40 16q-24 -1 -40 -16q-15 -16 -16 -40q0 -9 2 -16q9 8 22 8v0zM352 161q0 -9 -4 -16h4q24 1 40 16q15 16 16 40q-1 24 -16 40q-16 15 -40 16q-24 -1 -40 -16q-15 -16 -16 -40q0 -9 2 -16q9 8 22 8q14 0 23 -9t9 -23v0z" />
</svg>
