<?xml version="1.0" standalone="no"?>
<!DOCTYPE svg PUBLIC "-//W3C//DTD SVG 1.1//EN" "http://www.w3.org/Graphics/SVG/1.1/DTD/svg11.dtd" >
<svg xmlns="http://www.w3.org/2000/svg" xmlns:xlink="http://www.w3.org/1999/xlink" version="1.1" viewBox="-10 -40 532 512">
   <path fill="currentColor"
d="M256 473q70 -1 128 -34v0v0q58 -34 94 -94q34 -61 34 -128t-34 -128q-36 -60 -94 -94q-58 -33 -128 -34q-70 1 -128 34q-58 34 -94 94q-34 61 -34 128t34 128q36 60 94 94q58 33 128 34v0zM187 318q10 10 27 18v0v0q17 9 42 9t42 -9q17 -8 27 -18q11 -10 22 0q10 11 0 22
q-13 14 -36 25t-55 12q-32 -1 -55 -12t-36 -25q-10 -11 0 -22q11 -10 22 0v0zM387 199q10 -11 23 -3q11 10 3 23q-25 30 -61 30t-61 -30q-7 -13 3 -23q13 -7 23 3q14 18 35 18t35 -18v0zM125 199q14 18 35 18v0v0q21 0 35 -18q10 -11 23 -3q11 10 3 23q-25 30 -61 30
t-61 -30q-7 -13 3 -23q13 -7 23 3v0zM207 36q4 14 -10 20l-6 2v0q-36 13 -58 44l-8 12v0q-9 11 -22 4q-11 -9 -4 -22l7 -11v0q28 -41 75 -57l6 -2v0q14 -4 20 10v0zM315 56q-14 -6 -10 -20q6 -13 20 -10l6 2v0q47 16 75 57l7 11v0q7 13 -4 22q-13 7 -22 -4l-8 -12v0
q-21 -31 -58 -44l-6 -2v0z" />
</svg>
