<?xml version="1.0" standalone="no"?>
<!DOCTYPE svg PUBLIC "-//W3C//DTD SVG 1.1//EN" "http://www.w3.org/Graphics/SVG/1.1/DTD/svg11.dtd" >
<svg xmlns="http://www.w3.org/2000/svg" xmlns:xlink="http://www.w3.org/1999/xlink" version="1.1" viewBox="-11 0 662 512">
   <path fill="currentColor"
d="M320 473q72 -1 129 -35v0v0q58 -34 92 -92v0v0q34 -57 35 -129q0 -37 -10 -71q33 -46 51 -94q18 -47 23 -72q1 -10 -7 -16q-9 -6 -18 0q-31 19 -78 33q-37 10 -63 15q-66 -49 -154 -51q-88 2 -154 51q-27 -5 -63 -15q-47 -14 -78 -33q-9 -6 -18 0q-8 6 -7 16q5 25 23 72
q18 48 51 94q-10 34 -10 71q1 72 35 129q34 58 92 92q57 34 129 35v0zM228 311q14 16 36 29v0v0q23 12 56 13q33 -1 56 -13q22 -13 36 -29q11 -11 23 -2q10 11 1 23q-17 20 -46 36t-70 17q-41 -1 -70 -17t-46 -36q-9 -12 2 -23q11 -9 22 2v0zM272 233q0 14 -9 23v0v0
q-9 9 -23 9q-13 0 -22 -9t-10 -23q1 -14 10 -23l-31 -10v0q-13 -6 -10 -20q6 -13 20 -10l96 32v0q14 6 10 20q-6 13 -20 10l-11 -3v0v4v0zM400 265q-13 0 -22 -9v0v0q-9 -9 -10 -23q0 -2 1 -5l-12 4v0q-14 4 -20 -10q-4 -14 10 -20l96 -32v0q14 -3 20 10q3 14 -10 20l-30 10
v0q9 9 9 23t-9 23t-23 9v0z" />
</svg>
