<?xml version="1.0" standalone="no"?>
<!DOCTYPE svg PUBLIC "-//W3C//DTD SVG 1.1//EN" "http://www.w3.org/Graphics/SVG/1.1/DTD/svg11.dtd" >
<svg xmlns="http://www.w3.org/2000/svg" xmlns:xlink="http://www.w3.org/1999/xlink" version="1.1" viewBox="-10 -40 660 512">
   <path fill="currentColor"
d="M411 456q-26 -33 -27 -78v-31v0q-27 13 -64 14q-37 -1 -64 -14v31v0q-1 45 -27 78q43 17 91 17t91 -17v0zM320 -39q-69 1 -126 33v0v0q-56 32 -91 87v0v0q-34 54 -39 123q28 -9 50 11l47 47v0q15 -22 43 -23q22 1 37 16q14 14 15 36v20v0q25 17 64 18q39 -1 64 -18v-20v0
q1 -22 15 -36q15 -15 37 -16q28 1 43 23l47 -47v0q22 -20 50 -11q-5 -69 -39 -123q-35 -55 -91 -87q-57 -32 -126 -33v0zM282 190v0v0v0h-1v0v-1v0q-1 -2 -3 -4l-10 -10q-14 -13 -28 -14q-14 1 -28 14l-10 10q-2 2 -3 4v0v1h-1v0v0v0v0v0v0v0q-3 4 -8 3q-6 -2 -6 -8
q1 -28 17 -49q15 -21 39 -23q24 2 39 23q16 21 17 49q0 6 -5 8q-6 1 -9 -3v0v0v0v0v0v0zM442 190v0v0v0v0v0h-1v0v-1v0q-1 -2 -3 -4l-10 -10q-14 -13 -28 -14q-14 1 -28 14l-10 10q-2 2 -3 4v0v1h-1v0v0v0v0v0v0v0q-3 4 -9 3q-5 -2 -5 -8q1 -28 17 -49q15 -21 39 -23
q24 2 39 23q16 21 17 49q0 6 -6 8q-5 1 -8 -3v0v0v0v0zM69 260l51 52l-51 -52l51 52q4 4 0 9q-5 4 -9 0l-68 -67v0q-11 -10 -22 0q-10 11 0 22l67 68v0q4 4 0 9q-5 4 -9 0l-52 -51v0q-11 -10 -22 0q-10 11 0 22l51 52v0q4 4 0 9q-5 4 -9 0l-20 -19v0q-11 -10 -22 0
q-10 11 0 22l57 57v0q28 27 67 28q40 -1 67 -28t28 -67v-33v0v-54v0q-2 -18 -20 -20q-18 2 -20 20v20v0q0 6 -5 7q-4 2 -9 -1l-79 -79v0q-11 -9 -22 0q-10 11 0 22v0zM571 260q10 -11 0 -22q-11 -10 -22 0l-79 79v0q-4 3 -9 1q-5 -1 -5 -7v-20v0q-2 -18 -20 -20
q-18 2 -20 20v54v0v33v0q1 40 28 67t67 28q39 -1 68 -28l56 -57v0q10 -11 0 -22q-11 -10 -22 0l-20 19v0q-4 4 -9 0q-4 -5 0 -9l51 -52v0q10 -11 0 -22q-11 -10 -22 0l-52 51v0q-4 4 -9 0q-4 -5 0 -9l67 -68v0q10 -11 0 -22q-11 -10 -22 0l-68 67v0q-4 4 -9 0q-4 -5 0 -9
l51 -52v0z" />
</svg>
