<?xml version="1.0" standalone="no"?>
<!DOCTYPE svg PUBLIC "-//W3C//DTD SVG 1.1//EN" "http://www.w3.org/Graphics/SVG/1.1/DTD/svg11.dtd" >
<svg xmlns="http://www.w3.org/2000/svg" xmlns:xlink="http://www.w3.org/1999/xlink" version="1.1" viewBox="-10 -40 532 512">
   <path fill="currentColor"
d="M512 217q-1 72 -35 129v0v0q-34 58 -92 92v0v0q-57 34 -129 35q-16 0 -31 -2q6 -8 9 -19l21 -57v0l36 -13v0q18 -7 28 -23q10 -15 9 -33q-4 -39 -39 -56l-123 -52v0q-14 -4 -21 9q-4 14 9 21l82 35v0l-92 33v0v-3v0q-1 -24 -16 -40q-16 -15 -40 -16q-24 1 -40 16
q-15 16 -16 40v28v0q-31 -56 -32 -124q1 -72 35 -129q34 -58 92 -92q57 -34 129 -35q72 1 129 35q58 34 92 92q34 57 35 129v0zM208 137q0 -14 -9 -23v0v0q-9 -9 -23 -9q-13 0 -22 9t-10 23q1 14 10 23t22 9q14 0 23 -9t9 -23v0zM336 185q14 0 23 -9v0v0q9 -9 9 -23t-9 -23
t-23 -9q-13 0 -22 9t-10 23q1 14 10 23t22 9v0zM143 83q18 -10 38 -8v0v0q20 2 35 15l14 11v0q12 9 22 -1q9 -12 -1 -23l-14 -11v0q-24 -20 -53 -23q-30 -3 -57 12l-7 4v0q-12 9 -6 22q8 12 22 6l7 -4v0zM112 313v49v-49v49l152 -56v0q21 -5 31 15q5 21 -15 31l-50 18v0
l-26 71v0q-12 30 -45 32h-47v0q-20 -1 -34 -14q-13 -14 -14 -34v-112v0q2 -22 24 -24q22 2 24 24v0z" />
</svg>
