<?xml version="1.0" standalone="no"?>
<!DOCTYPE svg PUBLIC "-//W3C//DTD SVG 1.1//EN" "http://www.w3.org/Graphics/SVG/1.1/DTD/svg11.dtd" >
<svg xmlns="http://www.w3.org/2000/svg" xmlns:xlink="http://www.w3.org/1999/xlink" version="1.1" viewBox="-11 0 533 512">
   <path fill="currentColor"
d="M512 217q-1 72 -35 129v0v0q-34 58 -92 92v0v0q-57 34 -129 35q-17 0 -34 -2q1 -3 1 -6l19 -110v0l5 3v0q9 6 18 0l39 -26v0l39 26v0q8 5 16 1l32 -16v0q13 -8 7 -21q-7 -13 -21 -7l-24 11v0l-40 -26v0q-9 -6 -18 0l-39 26v0l-8 -6v0l7 -47v0q4 -24 -13 -42
q-18 -17 -42 -13l-192 32v0q-3 0 -6 1q-2 -17 -2 -34q1 -72 35 -129q34 -58 92 -92q57 -34 129 -35q72 1 129 35q58 34 92 92q34 57 35 129v0zM134 92q-7 -3 -12 0v0v0q-6 3 -6 10q0 5 3 8l36 43v0l-36 43v0q-3 3 -3 8q0 7 6 10q5 3 12 0l89 -48v0q8 -4 8 -13t-8 -13
l-89 -48v0zM396 102q0 -7 -6 -10v0v0q-5 -3 -11 0l-90 48v0q-8 4 -8 13q0 8 8 13l90 48v0q6 3 11 0q6 -3 6 -10q0 -5 -3 -8l-36 -43v0l36 -43v0q3 -4 3 -8v0zM219 254q6 6 5 14l-32 192v0q-2 10 -13 13q-11 1 -17 -8l-26 -46v0l-84 22v0q-9 1 -15 -5t-4 -15l21 -84v0
l-46 -26v0q-9 -6 -8 -17q3 -11 13 -13l192 -32v0q8 -1 14 5v0z" />
</svg>
