<?xml version="1.0" standalone="no"?>
<!DOCTYPE svg PUBLIC "-//W3C//DTD SVG 1.1//EN" "http://www.w3.org/Graphics/SVG/1.1/DTD/svg11.dtd" >
<svg xmlns="http://www.w3.org/2000/svg" xmlns:xlink="http://www.w3.org/1999/xlink" version="1.1" viewBox="-10 -40 532 512">
   <path fill="currentColor"
d="M0 217q1 83 46 146v0v0q44 64 117 93q-18 -28 -19 -63v-10v0q-34 -31 -47 -76q-3 -11 4 -18q6 -8 17 -8h276v0q11 0 17 8q7 7 4 18q-13 45 -47 76v10v0q-1 35 -19 63q73 -29 117 -93q45 -63 46 -146q-1 -72 -35 -129q-34 -58 -92 -92q-57 -34 -129 -35q-72 1 -129 35
q-58 34 -92 92q-34 57 -35 129v0zM192 65v10v-10v10q7 1 12 3q14 5 11 19q-5 14 -19 11t-27 -3q-6 1 -7 2q-4 4 0 8q10 6 22 8l1 1v0q13 2 24 9q7 5 12 15q4 10 2 21q-3 17 -17 26q-7 4 -14 5v9v0q-1 15 -16 16q-15 -1 -16 -16v-11v0q-12 -3 -19 -5q-1 -1 -2 -1
q-14 -6 -10 -20q6 -13 20 -10q15 6 32 7q7 0 9 -1v0v0q4 -4 0 -8q-5 -4 -19 -7l-1 -1v0q-13 -3 -27 -11q-7 -5 -12 -15t-2 -21q3 -15 14 -23q8 -6 17 -7v-10v0q1 -15 16 -16q15 1 16 16v0zM336 49q15 1 16 16v10v0q7 1 12 3q14 5 11 19q-5 14 -19 11t-27 -3q-6 1 -7 2
q-4 4 -1 8q11 6 23 8l1 1v0q13 2 24 9q7 5 12 15q4 10 2 21q-3 17 -17 26q-7 4 -14 5v9v0q-2 15 -16 16q-15 -1 -16 -16v-11v0q-12 -3 -19 -5q-1 -1 -2 -1q-14 -6 -10 -20q6 -13 20 -10q15 6 32 7q7 0 9 -1v0v0q4 -4 0 -8q-5 -4 -19 -7l-1 -1v0q-13 -3 -27 -11
q-7 -5 -12 -15t-2 -21q3 -15 14 -23q8 -6 17 -7v-10v0q1 -15 16 -16v0zM336 313h-160h160h-160v80v0q1 34 23 57q23 22 57 23q34 -1 57 -23q22 -23 23 -57v-80v0zM256 329q10 1 11 11v7v0q4 1 8 1q9 4 7 14q-3 9 -13 7q-9 -2 -18 -2q-4 1 -4 2q-3 2 0 4q6 5 14 7h1q9 1 16 6
q5 3 8 10t2 14q-2 12 -12 18q-4 3 -9 4v6v0q-1 10 -11 11q-10 -1 -11 -11v-7v0q-8 -3 -14 -5v0q-9 -4 -6 -13q3 -10 13 -7q10 4 21 5q5 -1 6 -1q3 -3 1 -6q-4 -2 -13 -5h-1v0q-9 -2 -18 -8q-5 -3 -8 -9q-3 -7 -2 -15q2 -10 10 -16q5 -4 11 -5v-6v0q1 -10 11 -11v0z" />
</svg>
