<?xml version="1.0" standalone="no"?>
<!DOCTYPE svg PUBLIC "-//W3C//DTD SVG 1.1//EN" "http://www.w3.org/Graphics/SVG/1.1/DTD/svg11.dtd" >
<svg xmlns="http://www.w3.org/2000/svg" xmlns:xlink="http://www.w3.org/1999/xlink" version="1.1" viewBox="-10 -40 586 512">
   <path fill="currentColor"
d="M544 217q-1 86 -49 151v0v0q-48 65 -125 92q14 -23 14 -51v-31v0q16 -11 16 -25q-1 -20 -33 -34q-31 -13 -79 -14q-48 1 -79 14q-32 14 -33 34q0 14 16 25v31v0q0 28 15 51q-63 -22 -107 -70q27 -22 28 -60q-1 -18 -7 -30q-6 -14 -13 -26q-16 -26 -28 -41
q-20 -23 -48 -13v-1v-2q1 -72 35 -129q34 -58 92 -92q57 -34 129 -35q72 1 129 35q58 34 92 92q34 57 35 129v0zM96 330q-1 22 -16 36q-14 11 -32 11q-20 0 -34 -14q-13 -13 -14 -33q1 -14 12 -34q12 -20 24 -36q1 -2 3 -4q1 -2 3 -4q6 -6 12 0q12 15 26 38q15 24 16 40v0z
M336 233q0 14 9 23v0v0q9 9 23 9q13 0 22 -9t10 -23q-1 -14 -10 -23t-22 -9q-14 0 -23 9t-9 23v0zM208 265q13 0 22 -9v0v0q9 -9 10 -23q-1 -14 -10 -23t-22 -9q-14 0 -23 9t-9 23t9 23t23 9v0zM227 110q-11 -10 -22 0l-8 7v0q-29 29 -69 36h-3v0q-14 4 -13 19q4 14 19 13
l2 -1v0q50 -8 87 -44l7 -8v0q9 -11 0 -22v0zM349 132l7 8l-7 -8l7 8q37 36 87 44l2 1v0q15 1 19 -13q1 -15 -13 -19h-3v0q-40 -7 -69 -36l-8 -7v0q-11 -10 -22 0q-10 11 0 22v0zM352 364v45v-45v45q-1 27 -19 45t-45 19q-27 -1 -45 -19t-19 -45v-45v0q2 -25 27 -27h2v0
q18 1 23 19q3 9 12 9t12 -9q5 -18 23 -19h2v0q25 2 27 27v0z" />
</svg>
