<?xml version="1.0" standalone="no"?>
<!DOCTYPE svg PUBLIC "-//W3C//DTD SVG 1.1//EN" "http://www.w3.org/Graphics/SVG/1.1/DTD/svg11.dtd" >
<svg xmlns="http://www.w3.org/2000/svg" xmlns:xlink="http://www.w3.org/1999/xlink" version="1.1" viewBox="-10 -40 532 512">
   <path fill="currentColor"
d="M256 473q70 -1 128 -34v0v0q58 -34 94 -94q34 -61 34 -128t-34 -128q-36 -60 -94 -94q-58 -33 -128 -34q-70 1 -128 34q-58 34 -94 94q-34 61 -34 128t34 128q36 60 94 94q58 33 128 34v0zM165 290q16 -17 40 -29v0v0q23 -12 51 -12t51 12q24 12 40 29q17 17 27 35t10 36
q0 8 -7 13t-15 2l-20 -8v0q-41 -15 -84 -15h-4v0q-43 0 -84 15l-20 8v0q-8 3 -15 -2t-7 -13q1 -18 10 -36q10 -18 27 -35v0zM211 126q10 11 0 22l-7 8v0q-37 36 -87 44l-2 1v0q-15 1 -19 -13q-1 -15 13 -19h3v0q40 -7 69 -36l8 -7v0q11 -10 22 0v0zM301 148q-10 -11 0 -22
q11 -10 22 0l8 7v0q29 29 69 36h3v0q14 4 13 19q-4 14 -18 13l-3 -1v0q-50 -8 -87 -44l-7 -8v0z" />
</svg>
