<?xml version="1.0" standalone="no"?>
<!DOCTYPE svg PUBLIC "-//W3C//DTD SVG 1.1//EN" "http://www.w3.org/Graphics/SVG/1.1/DTD/svg11.dtd" >
<svg xmlns="http://www.w3.org/2000/svg" xmlns:xlink="http://www.w3.org/1999/xlink" version="1.1" viewBox="-10 -40 596 512">
   <path fill="currentColor"
d="M0 25q1 -27 19 -45v0v0q18 -18 45 -19h160v0v128v0q0 14 9 23t23 9h128v0v34v0q-31 31 -32 78v25v0q-30 18 -32 55v128v0q0 17 8 32h-8h-256v0q-27 -1 -45 -19t-19 -45v-384v0zM384 89h-128h128h-128v-128v0l128 128v0zM464 201q-14 0 -23 9v0v0q-9 9 -9 23v48v0h64v0
v-48v0q0 -14 -9 -23t-23 -9v0zM384 233q1 -34 23 -57v0v0q23 -22 57 -23q34 1 57 23q22 23 23 57v48v0q14 0 23 9t9 23v128v0q0 14 -9 23t-23 9h-160v0q-14 0 -23 -9t-9 -23v-128v0q0 -14 9 -23t23 -9v-48v0z" />
</svg>
