<?xml version="1.0" standalone="no"?>
<!DOCTYPE svg PUBLIC "-//W3C//DTD SVG 1.1//EN" "http://www.w3.org/Graphics/SVG/1.1/DTD/svg11.dtd" >
<svg xmlns="http://www.w3.org/2000/svg" xmlns:xlink="http://www.w3.org/1999/xlink" version="1.1" viewBox="-10 -40 650 512">
   <path fill="currentColor"
d="M120 417q-37 -40 -17 -115q5 15 16 27q25 22 55 20q29 -1 59 -13q60 -25 121 -85q60 -61 85 -121q12 -30 13 -59q2 -30 -20 -55q-12 -11 -27 -16q75 -20 115 17q28 28 23 78q-4 49 -35 107q-32 59 -88 115t-115 88q-58 31 -107 36q-50 4 -78 -24v0zM331 228
q-57 56 -111 78v0v0q-53 22 -78 0q-22 -25 0 -78q22 -54 78 -111q57 -56 111 -78q53 -22 78 0q22 25 0 78q-22 54 -78 111v0z" />
</svg>
