<?xml version="1.0" standalone="no"?>
<!DOCTYPE svg PUBLIC "-//W3C//DTD SVG 1.1//EN" "http://www.w3.org/Graphics/SVG/1.1/DTD/svg11.dtd" >
<svg xmlns="http://www.w3.org/2000/svg" xmlns:xlink="http://www.w3.org/1999/xlink" version="1.1" viewBox="-10 -40 532 512">
   <path fill="currentColor"
d="M0 -15q2 -22 24 -24h464v0q22 2 24 24q-2 22 -24 24h-464v0q-22 -2 -24 -24v0zM64 57h64h-64h64q14 0 23 9t9 23v64v0q0 14 -9 23t-23 9h-64v0q-14 0 -23 -9t-9 -23v-64v0q0 -14 9 -23t23 -9v0zM64 345h64h-64h64q14 0 23 9t9 23v64v0q0 14 -9 23t-23 9h-64v0
q-14 0 -23 -9t-9 -23v-64v0q0 -14 9 -23t23 -9v0zM192 89q0 -14 9 -23v0v0q9 -9 23 -9h64v0q14 0 23 9t9 23v64v0q0 14 -9 23t-23 9h-64v0q-14 0 -23 -9t-9 -23v-64v0zM224 345h64h-64h64q14 0 23 9t9 23v64v0q0 14 -9 23t-23 9h-64v0q-14 0 -23 -9t-9 -23v-64v0
q0 -14 9 -23t23 -9v0zM352 89q0 -14 9 -23v0v0q9 -9 23 -9h64v0q14 0 23 9t9 23v64v0q0 14 -9 23t-23 9h-64v0q-14 0 -23 -9t-9 -23v-64v0zM384 345h64h-64h64q14 0 23 9t9 23v64v0q0 14 -9 23t-23 9h-64v0q-14 0 -23 -9t-9 -23v-64v0q0 -14 9 -23t23 -9v0zM24 249h464h-464
h464q22 2 24 24q-2 22 -24 24h-464v0q-22 -2 -24 -24q2 -22 24 -24v0z" />
</svg>
