<?xml version="1.0" standalone="no"?>
<!DOCTYPE svg PUBLIC "-//W3C//DTD SVG 1.1//EN" "http://www.w3.org/Graphics/SVG/1.1/DTD/svg11.dtd" >
<svg xmlns="http://www.w3.org/2000/svg" xmlns:xlink="http://www.w3.org/1999/xlink" version="1.1" viewBox="-10 -40 660 512">
   <path fill="currentColor"
d="M462 -36q12 7 16 19v0v0q4 12 -1 24l-215 431v0q-19 34 -58 35h-44h-64v-32v0v-128v0h156v0l167 -334v0q7 -12 19 -16t24 1v0zM0 345q0 -14 9 -23v0v0q9 -9 23 -9h32v0v160v0h-32v0q-14 0 -23 -9t-9 -23v-96v0zM416 377h192h-192h192q14 0 23 9t9 23v32v0q0 14 -9 23
t-23 9h-192v0q-14 0 -23 -9t-9 -23v-32v0q0 -14 9 -23t23 -9v0z" />
</svg>
