<?xml version="1.0" standalone="no"?>
<!DOCTYPE svg PUBLIC "-//W3C//DTD SVG 1.1//EN" "http://www.w3.org/Graphics/SVG/1.1/DTD/svg11.dtd" >
<svg xmlns="http://www.w3.org/2000/svg" xmlns:xlink="http://www.w3.org/1999/xlink" version="1.1" viewBox="-10 -40 522 512">
   <path fill="currentColor"
d="M256 -39q-22 2 -24 24v40v0h-152v0q-20 1 -34 14q-13 14 -14 34v64v0q1 20 14 34q14 13 34 14h152v0v64v0h-88v0q-20 1 -34 14q-13 14 -14 34v64v0q1 20 14 34q14 13 34 14h88v0v40v0q2 22 24 24q22 -2 24 -24v-40v0h88v0q20 -1 34 -14q13 -14 14 -34v-64v0
q-1 -20 -14 -34q-14 -13 -34 -14h-88v0v-64v0h152v0q20 -1 34 -14q13 -14 14 -34v-64v0q-1 -20 -14 -34q-14 -13 -34 -14h-152v0v-40v0q-2 -22 -24 -24v0z" />
</svg>
