<?xml version="1.0" standalone="no"?>
<!DOCTYPE svg PUBLIC "-//W3C//DTD SVG 1.1//EN" "http://www.w3.org/Graphics/SVG/1.1/DTD/svg11.dtd" >
<svg xmlns="http://www.w3.org/2000/svg" xmlns:xlink="http://www.w3.org/1999/xlink" version="1.1" viewBox="-10 -40 532 512">
   <path fill="currentColor"
d="M512 -15v464v-464v464q-2 22 -24 24q-22 -2 -24 -24v-464v0q2 -22 24 -24q22 2 24 24v0zM336 25q20 1 34 14v0v0q13 14 14 34v64v0q-1 20 -14 34q-14 13 -34 14h-288v0q-20 -1 -34 -14q-13 -14 -14 -34v-64v0q1 -20 14 -34q14 -13 34 -14h288v0zM336 249q20 1 34 14v0v0
q13 14 14 34v64v0q-1 20 -14 34q-14 13 -34 14h-160v0q-20 -1 -34 -14q-13 -14 -14 -34v-64v0q1 -20 14 -34q14 -13 34 -14h160v0z" />
</svg>
