<?xml version="1.0" standalone="no"?>
<!DOCTYPE svg PUBLIC "-//W3C//DTD SVG 1.1//EN" "http://www.w3.org/Graphics/SVG/1.1/DTD/svg11.dtd" >
<svg xmlns="http://www.w3.org/2000/svg" xmlns:xlink="http://www.w3.org/1999/xlink" version="1.1" viewBox="-10 -40 532 512">
   <path fill="currentColor"
d="M112 279v-63v63v-63l26 10v0q23 8 45 -3l77 -38v0h28h144q34 1 57 23q22 23 23 57v13v0l-23 10v0l-19 -10v0q-13 -6 -27 -1l-26 11v0l-19 -10v0q-13 -6 -27 -1l-26 11v0l-19 -10v0q-13 -6 -27 -1l-26 11v0l-19 -10v0q-13 -6 -27 -1l-26 11v0l-19 -10v0q-13 -6 -27 -1
l-26 11v0l-17 -9v0zM112 315l2 1l-2 -1l2 1q13 6 27 1l26 -10v0l19 9v0q13 6 27 1l26 -10v0l19 9v0q13 6 27 1l26 -10v0l19 9v0q13 6 27 1l26 -10v0l19 9v0q13 6 27 1l26 -10v0l19 9v0q13 6 27 1l11 -4v0v50v0l-24 12v0l-18 -9v0q-14 -6 -28 0l-17 9v0l-16 -11v0
q-4 -3 -9 -3h-176v0q-5 0 -9 3l-16 11v0l-17 -9v0q-14 -6 -28 0l-18 9v0l-24 -12v0v-48v0zM149 196l-115 -44l115 44l-115 -44q-33 -19 -34 -57v-6v0q1 -27 19 -45t45 -19h112v0v-32v0q0 -14 9 -23t23 -9t23 9t9 23v166v0l-71 36v0q-10 4 -20 1v0zM112 399l10 5l-10 -5l10 5
q14 6 28 0l18 -9v0l17 8v0q16 8 32 -2l7 -5v0v45v0q0 14 -9 23t-23 9h-48v0q-14 0 -23 -9t-9 -23v-42v0zM400 396l7 5l-7 -5l7 5q16 10 33 2l16 -8v0l18 9v0q14 6 28 0l10 -5v0v42v0q0 14 -9 23t-23 9h-48v0q-14 0 -23 -9t-9 -23v-45v0zM200 105q-2 -22 -24 -24
q-22 2 -24 24q2 22 24 24q22 -2 24 -24v0z" />
</svg>
