<?xml version="1.0" standalone="no"?>
<!DOCTYPE svg PUBLIC "-//W3C//DTD SVG 1.1//EN" "http://www.w3.org/Graphics/SVG/1.1/DTD/svg11.dtd" >
<svg xmlns="http://www.w3.org/2000/svg" xmlns:xlink="http://www.w3.org/1999/xlink" version="1.1" viewBox="-10 -40 660 512">
   <path fill="currentColor"
d="M575 25q-50 1 -80 43l-61 92v0q-6 -7 -14 -12l-24 -16v0q-8 -5 -15 -8l61 -92v0q23 -33 58 -52t75 -19h33v0q14 0 23 9t9 23t-9 23t-23 9h-33v0zM333 167q8 -11 21 -13v0v0q12 -3 24 4l24 16v0q11 8 13 21q3 12 -4 24l-123 184v0q-23 33 -57 51q-34 19 -74 19
q-67 -2 -111 -46t-46 -111v-83v0q1 -20 14 -34q14 -13 34 -14h160v0q20 1 34 14q13 14 14 34v50v0l77 -116v0z" />
</svg>
