<?xml version="1.0" standalone="no"?>
<!DOCTYPE svg PUBLIC "-//W3C//DTD SVG 1.1//EN" "http://www.w3.org/Graphics/SVG/1.1/DTD/svg11.dtd" >
<svg xmlns="http://www.w3.org/2000/svg" xmlns:xlink="http://www.w3.org/1999/xlink" version="1.1" viewBox="-10 -40 660 512">
   <path fill="currentColor"
d="M96 89q0 -14 9 -23v0v0q9 -9 23 -9t23 9t9 23v8v0q0 41 -7 82l-85 26v0q-31 9 -49 34q-19 25 -19 58v72v0q1 30 21 51q21 20 52 21q41 -1 62 -36l14 -25v0q41 -71 59 -150l94 -29v0l-12 38v0q-5 15 4 29q10 13 26 13h73v0q8 -15 23 -23v-25v0q0 -8 1 -16h-53v0l18 -54v0
q6 -18 -7 -32q-14 -13 -32 -9l-123 37v0q4 -31 4 -62v-8v0q-1 -41 -28 -68t-68 -28q-41 1 -68 28t-28 68v32v0q0 14 9 23t23 9t23 -9t9 -23v-32v0zM210 329q-10 24 -22 48h196v0v-48v0h-174v0zM87 266l49 -15l-49 15l49 -15q-16 51 -42 98l-14 24v0q-3 4 -7 4q-8 -1 -9 -8
v-72v0q1 -23 23 -31v0zM528 201q14 0 23 9v0v0q9 9 9 23v48v0h-64v0v-48v0q0 -14 9 -23t23 -9v0zM448 233v48v-48v48q-14 0 -23 9t-9 23v128v0q0 14 9 23t23 9h160v0q14 0 23 -9t9 -23v-128v0q0 -14 -9 -23t-23 -9v-48v0q-1 -34 -23 -57q-23 -22 -57 -23q-34 1 -57 23
q-22 23 -23 57v0z" />
</svg>
