<?xml version="1.0" standalone="no"?>
<!DOCTYPE svg PUBLIC "-//W3C//DTD SVG 1.1//EN" "http://www.w3.org/Graphics/SVG/1.1/DTD/svg11.dtd" >
<svg xmlns="http://www.w3.org/2000/svg" xmlns:xlink="http://www.w3.org/1999/xlink" version="1.1" viewBox="-11 0 662 512">
   <path fill="currentColor"
d="M39 -34q-19 -12 -34 4q-12 19 4 34l592 464v0q19 12 34 -4q12 -19 -4 -34l-68 -53v0h53v0q22 -2 24 -24q-2 -22 -24 -24h-114v0l-61 -48v0h103v0q14 0 23 -9t9 -23t-9 -23t-23 -9h-84v0l18 -54v0q6 -18 -7 -32q-14 -13 -32 -9l-123 37v0q4 -31 4 -62v-8v0q-1 -41 -28 -68
t-68 -28q-28 0 -50 14q-23 14 -35 38l-100 -79v0zM192 86q1 -12 10 -20v0v0q9 -9 22 -9q14 0 23 9t9 23v8v0q0 19 -1 38l-63 -49v0zM355 214l43 -13l-43 13l43 -13l-12 37v0l-31 -24v0zM164 205q-31 9 -49 34v0v0q-19 25 -19 58v72v0q1 30 21 51q21 20 52 21q41 -1 62 -36
l14 -25v0q27 -46 43 -96l-107 -84v0l-17 5v0zM232 251q-16 51 -42 98l-14 24v0q-3 4 -8 4q-7 -1 -8 -8v-72v0q1 -23 23 -31l49 -15v0zM24 329q-22 2 -24 24q2 22 24 24h40v0v-8v-40v0h-40v0z" />
</svg>
