<?xml version="1.0" standalone="no"?>
<!DOCTYPE svg PUBLIC "-//W3C//DTD SVG 1.1//EN" "http://www.w3.org/Graphics/SVG/1.1/DTD/svg11.dtd" >
<svg xmlns="http://www.w3.org/2000/svg" xmlns:xlink="http://www.w3.org/1999/xlink" version="1.1" viewBox="-10 -40 660 512">
   <path fill="currentColor"
d="M390 -38q14 3 21 13v0v0q7 11 4 24l-6 32v0l-12 58v0h-61v0q-15 1 -16 16q1 15 16 16h55v0l-10 48v0h-61v0q-15 1 -16 16q1 15 16 16h62v0l79 35v0q18 9 19 29v80v0q0 14 -9 23t-23 9h-328v0q-15 0 -25 -12q-9 -12 -6 -26l24 -124v0l10 -2q24 -5 58 -27q33 -21 62 -68
q28 -46 43 -125h65v0l2 -6v0q3 -14 13 -21q11 -7 24 -4v0zM163 160q-24 16 -43 21l33 -162v0q6 -24 31 -26h69v0q-14 71 -39 111q-25 39 -51 56v0zM640 377q-1 41 -28 68v0v0q-27 27 -68 28h-512v0q-14 0 -23 -9t-9 -23t9 -23t23 -9h512v0q14 0 23 -9t9 -23t9 -23t23 -9
t23 9t9 23v0z" />
</svg>
