<?xml version="1.0" standalone="no"?>
<!DOCTYPE svg PUBLIC "-//W3C//DTD SVG 1.1//EN" "http://www.w3.org/Graphics/SVG/1.1/DTD/svg11.dtd" >
<svg xmlns="http://www.w3.org/2000/svg" xmlns:xlink="http://www.w3.org/1999/xlink" version="1.1" viewBox="-10 -40 468 512">
   <path fill="currentColor"
d="M304 89v16v-16v16q-1 34 -23 57q-23 22 -57 23q-34 -1 -57 -23q-22 -23 -23 -57v-16v0q0 -8 2 -16h14v0q41 -1 64 -32q23 31 64 32h14v0q2 8 2 16v0zM84 153q11 0 20 -5q14 38 46 61t74 24q42 -1 74 -24t46 -61q9 5 20 5q19 0 31 -13q13 -12 13 -31v-40v0q0 -19 -13 -31
q-12 -13 -31 -13q-14 0 -25 8q-16 -33 -46 -52q-31 -19 -69 -20q-38 1 -69 20q-30 19 -46 52q-11 -8 -25 -8q-19 0 -31 13q-13 12 -13 31v40v0q0 19 13 31q12 13 31 13v0zM161 281q-68 2 -114 47v0v0q-45 46 -47 114q0 13 9 22t22 9h386v0q13 0 22 -9t9 -22q-2 -68 -47 -114
q-46 -45 -114 -47h-126v0z" />
</svg>
