<?xml version="1.0" standalone="no"?>
<!DOCTYPE svg PUBLIC "-//W3C//DTD SVG 1.1//EN" "http://www.w3.org/Graphics/SVG/1.1/DTD/svg11.dtd" >
<svg xmlns="http://www.w3.org/2000/svg" xmlns:xlink="http://www.w3.org/1999/xlink" version="1.1" viewBox="-10 -40 660 512">
   <path fill="currentColor"
d="M640 169q-2 88 -61 147v0v0q-59 59 -147 61h-11q9 -19 16 -39q7 -1 13 -5l21 -15v0q8 -5 17 -5l26 -1v0q21 -2 29 -21l8 -24v0q4 -9 11 -15l20 -15v0q16 -14 11 -35l-7 -24v0q-3 -9 0 -18l7 -24v0q5 -21 -11 -35l-20 -15v0q-8 -6 -11 -15l-8 -24v0q-8 -20 -29 -21l-26 -1
v0q-9 0 -17 -5l-21 -15v0q-18 -11 -36 0l-21 15v0q-8 5 -17 5l-25 1v0q-22 2 -30 21l-2 5v0q-21 -11 -45 -18q29 -34 69 -53q41 -20 89 -20q88 2 147 61t61 147v0zM396 116q16 -11 36 -11q27 1 45 19t19 45q0 23 -14 40t-36 23q-10 -66 -50 -116v0zM0 265q0 -57 28 -104v0v0
q27 -47 76 -76q49 -28 104 -28t104 28q49 29 76 76q28 47 28 104t-28 104q-27 47 -76 76q-49 28 -104 28t-104 -28q-49 -29 -76 -76q-28 -47 -28 -104v0zM256 265q-1 -27 -24 -42q-24 -12 -48 0q-23 15 -24 42q1 27 24 42q24 12 48 0q23 -15 24 -42v0zM112 377q15 -1 16 -16
q-1 -15 -16 -16q-15 1 -16 16q1 15 16 16v0zM256 393q-1 -15 -16 -16q-15 1 -16 16q1 15 16 16q15 -1 16 -16v0zM304 377q15 -1 16 -16q-1 -15 -16 -16q-15 1 -16 16q1 15 16 16v0zM320 201q-1 -15 -16 -16q-15 1 -16 16q1 15 16 16q15 -1 16 -16v0zM144 185q15 -1 16 -16
q-1 -15 -16 -16q-15 1 -16 16q1 15 16 16v0zM96 233q-1 -15 -16 -16q-15 1 -16 16q1 15 16 16q15 -1 16 -16v0z" />
</svg>
