<?xml version="1.0" standalone="no"?>
<!DOCTYPE svg PUBLIC "-//W3C//DTD SVG 1.1//EN" "http://www.w3.org/Graphics/SVG/1.1/DTD/svg11.dtd" >
<svg xmlns="http://www.w3.org/2000/svg" xmlns:xlink="http://www.w3.org/1999/xlink" version="1.1" viewBox="-11 0 662 512">
   <path fill="currentColor"
d="M583 196q44 -32 55 -82v0v0q10 -50 -19 -96q-32 -44 -82 -55q-50 -10 -96 20l-84 56v0l70 71v0q10 11 0 22q-11 10 -22 0l-76 -75v0l-88 59v0l74 74v0q10 11 0 22q-11 10 -22 0l-79 -78v0l-88 58v0l77 78v0q10 11 0 22q-11 9 -22 0l-82 -81v0l-42 28v0q-44 31 -55 81
q-10 50 20 96q31 44 81 55q50 10 96 -19l384 -256v0z" />
</svg>
