<?xml version="1.0" standalone="no"?>
<!DOCTYPE svg PUBLIC "-//W3C//DTD SVG 1.1//EN" "http://www.w3.org/Graphics/SVG/1.1/DTD/svg11.dtd" >
<svg xmlns="http://www.w3.org/2000/svg" xmlns:xlink="http://www.w3.org/1999/xlink" version="1.1" viewBox="-11 0 470 512">
   <path fill="currentColor"
d="M224 169q0 8 1 16h222v0q1 -8 1 -16q-1 -48 -33 -79q-31 -32 -79 -33h-1v0q-29 1 -53 14q-24 14 -40 37q-18 26 -18 61v0zM0 169q0 8 1 16h192v0q-1 -8 -1 -16q0 -33 14 -61q-22 -33 -60 -46q-16 -5 -34 -5q-48 1 -79 33q-32 31 -33 79v0zM325 25q-13 -29 -40 -46v0v0
q-27 -18 -61 -18t-61 18q-27 17 -40 46q63 7 101 54q38 -47 101 -54v0zM16 217q-7 0 -12 5q-5 6 -4 13l2 16v0q8 55 48 90q39 35 95 36h40v0l-68 69v0q-7 7 -4 17q5 9 15 10h192v0q10 0 15 -10q3 -10 -4 -17l-68 -69v0h40v0q56 -1 95 -36q40 -35 48 -90l2 -16v0q1 -7 -4 -13
q-5 -5 -12 -5h-416v0z" />
</svg>
