<?xml version="1.0" standalone="no"?>
<!DOCTYPE svg PUBLIC "-//W3C//DTD SVG 1.1//EN" "http://www.w3.org/Graphics/SVG/1.1/DTD/svg11.dtd" >
<svg xmlns="http://www.w3.org/2000/svg" xmlns:xlink="http://www.w3.org/1999/xlink" version="1.1" viewBox="-10 -40 660 512">
   <path fill="currentColor"
d="M64 89q1 -27 19 -45v0v0q18 -18 45 -19h320v0v224v0h-384v0v-160v0zM32 281h576h-576h576q14 0 23 9t9 23t-9 23t-23 9v32v0q0 14 -9 23t-23 9h-512v0q-14 0 -23 -9t-9 -23v-32v0q-14 0 -23 -9t-9 -23t9 -23t23 -9v0zM512 25q27 1 45 19v0v0q18 18 19 45v160v0h-96v0
v-224v0h32v0z" />
</svg>
