<?xml version="1.0" standalone="no"?>
<!DOCTYPE svg PUBLIC "-//W3C//DTD SVG 1.1//EN" "http://www.w3.org/Graphics/SVG/1.1/DTD/svg11.dtd" >
<svg xmlns="http://www.w3.org/2000/svg" xmlns:xlink="http://www.w3.org/1999/xlink" version="1.1" viewBox="-10 -40 660 512">
   <path fill="currentColor"
d="M0 281h128h-128h128v-96v0h-128v0v96v0zM0 345q1 27 19 45v0v0q18 18 45 19h64v0v-96v0h-128v0v32v0zM288 409v-96v96v-96h-128v0v96v0h128v0zM288 185h-128h128h-128v96v0h128v0v-96v0zM288 25h-128h128h-128v128v0h128v0v-128v0zM576 25h-256h256h-256v384v0h256v0
q27 -1 45 -19t19 -45v-256v0q-1 -27 -19 -45t-45 -19v0zM44 153h76h-76h76v0v0h8v0v-32v0v0v0v-52v0q-3 -12 -15 -7q-18 11 -41 11q-6 0 -12 -1q-12 1 -13 13q1 6 1 12q0 23 -11 41q-4 12 7 15v0z" />
</svg>
