<?xml version="1.0" standalone="no"?>
<!DOCTYPE svg PUBLIC "-//W3C//DTD SVG 1.1//EN" "http://www.w3.org/Graphics/SVG/1.1/DTD/svg11.dtd" >
<svg xmlns="http://www.w3.org/2000/svg" xmlns:xlink="http://www.w3.org/1999/xlink" version="1.1" viewBox="-10 -40 404 512">
   <path fill="currentColor"
d="M64 -39q-27 1 -45 19v0v0q-18 18 -19 45v384v0q1 27 19 45t45 19h256v0q27 -1 45 -19t19 -45v-384v0q-1 -27 -19 -45t-45 -19h-256v0zM80 182q1 -26 18 -43v0v0q17 -17 43 -18q25 0 44 18l7 7v0l7 -7v0q19 -18 44 -18q26 1 43 18t18 43q0 25 -18 44l-83 82v0
q-11 10 -22 0l-83 -82v0q-18 -19 -18 -44v0z" />
</svg>
