<?xml version="1.0" standalone="no"?>
<!DOCTYPE svg PUBLIC "-//W3C//DTD SVG 1.1//EN" "http://www.w3.org/Graphics/SVG/1.1/DTD/svg11.dtd" >
<svg xmlns="http://www.w3.org/2000/svg" xmlns:xlink="http://www.w3.org/1999/xlink" version="1.1" viewBox="-10 -40 660 512">
   <path fill="currentColor"
d="M8 156q-12 -21 -6 -42v0v0q6 -22 26 -34l193 -111v0q20 -12 42 -6q21 6 34 26l167 289v0q11 21 5 42q-5 22 -26 34l-192 112v0q-21 11 -43 5q-21 -6 -34 -26l-166 -289v0zM197 121q-19 -4 -26 14l-7 27v0l-20 76v0q-5 21 5 37q9 17 29 23q20 5 37 -5q17 -9 23 -29l2 -9v0
q0 -1 1 -1l17 31v0l-12 7v0q-10 7 -5 19q7 10 19 5l48 -28v0q11 -8 5 -19q-7 -11 -19 -5l-12 7v0l-17 -31v0h1l9 3v0q20 5 36 -5q17 -10 23 -30q5 -20 -5 -37q-9 -17 -29 -22l-76 -21v0l-27 -7v0zM459 382q32 -20 41 -53v0v0q9 -34 -8 -67l-137 -237v0h5h224v0q24 1 40 16
q15 16 16 40v336v0q-1 24 -16 40q-16 15 -40 16h-224v0q-21 0 -36 -13l135 -78v0zM534 199l48 -50l-48 50l48 -50q10 -12 10 -27q-1 -15 -12 -25q-11 -9 -24 -8t-23 11l-5 5v0l-5 -5v0q-10 -10 -23 -11t-24 8q-11 10 -12 25t10 27l48 50v0q6 4 12 0v0z" />
</svg>
