<?xml version="1.0" standalone="no"?>
<!DOCTYPE svg PUBLIC "-//W3C//DTD SVG 1.1//EN" "http://www.w3.org/Graphics/SVG/1.1/DTD/svg11.dtd" >
<svg xmlns="http://www.w3.org/2000/svg" xmlns:xlink="http://www.w3.org/1999/xlink" version="1.1" viewBox="-10 -40 532 512">
   <path fill="currentColor"
d="M0 169q3 61 75 102v0v0q72 40 181 42q109 -2 181 -42q72 -41 75 -102q-3 -61 -75 -102q-72 -40 -181 -42q-109 2 -181 42q-72 41 -75 102v0zM0 251v30v-30v30q1 42 48 75v-64v0q-28 -17 -48 -41v0zM80 374q41 19 96 29v-65v0q-53 -9 -96 -29v65v0zM208 407q23 2 48 2
t48 -2v-64v0q-24 2 -48 2t-48 -2v64v0zM336 403q55 -10 96 -29v-65v0q-43 20 -96 29v65v0zM464 356q47 -32 48 -75v-30v0q-20 24 -48 41v64v0z" />
</svg>
