<?xml version="1.0" standalone="no"?>
<!DOCTYPE svg PUBLIC "-//W3C//DTD SVG 1.1//EN" "http://www.w3.org/Graphics/SVG/1.1/DTD/svg11.dtd" >
<svg xmlns="http://www.w3.org/2000/svg" xmlns:xlink="http://www.w3.org/1999/xlink" version="1.1" viewBox="-10 -40 532 512">
   <path fill="currentColor"
d="M128 -39q-52 1 -88 35v0v0q-35 34 -40 85v1v7v0h8v0v0v0h-8v0v33v0q0 22 11 39q11 18 31 27l57 26v0q-6 9 -10 19h-37v0l-29 -14v0q-13 -6 -21 7q-6 14 7 21l32 16v0q3 2 7 2h33v0q-1 8 -1 16v10v0l-21 7v0q-4 1 -6 4l-32 32v0q-10 11 0 22q11 10 22 0l30 -29v0l28 -9v0
l30 30v0l-40 14v0q-4 1 -6 4l-32 32v0q-10 11 0 22q11 10 22 0l30 -29v0l52 -17v0l15 15v0l-36 22v0q-8 5 -8 14v32v0q1 15 16 16q15 -1 16 -16v-23v0l42 -25v0h108v0l42 25v0v23v0q1 15 16 16q15 -1 16 -16v-32v0q0 -9 -8 -14l-36 -22v0l15 -15v0l52 17v0l30 29v0
q11 10 22 0q9 -11 0 -22l-32 -32v0q-2 -3 -6 -4l-40 -14v0l30 -30v0l28 9v0l30 29v0q11 9 22 0q9 -11 0 -22l-32 -32v0q-3 -3 -6 -4l-21 -7v0v-10v0q0 -8 -1 -16h33v0q3 0 7 -2l32 -16v0q12 -8 7 -21q-8 -13 -21 -7l-29 14v0h-37v0q-4 -10 -10 -19l57 -26v0q20 -9 31 -27
q11 -17 11 -39v-33v0h-8v0v0v0h8v0v-7v0v-1v0v0v0v0v0q-5 -51 -40 -85q-36 -34 -88 -35h-45v0q-5 0 -7 5q-2 4 2 9l36 36v0q4 5 2 9q-2 5 -7 5h-37v0q-7 1 -7 8q3 24 20 40q18 16 43 16h80v0v33v0q-1 15 -14 22l-71 33v0q-26 -19 -59 -23v-49v0q-1 -15 -16 -16q-15 1 -16 16
v48v0h-64v0v-48v0q-1 -15 -16 -16q-15 1 -16 16v49v0q-33 4 -59 23l-71 -33v0q-13 -7 -14 -22v-33v0h80v0q25 -1 43 -16q17 -16 21 -40q-1 -7 -8 -8h-37v0q-5 0 -7 -5q-2 -4 2 -9l36 -36v0q4 -5 2 -9q-2 -5 -7 -5h-45v0z" />
</svg>
