<?xml version="1.0" standalone="no"?>
<!DOCTYPE svg PUBLIC "-//W3C//DTD SVG 1.1//EN" "http://www.w3.org/Graphics/SVG/1.1/DTD/svg11.dtd" >
<svg xmlns="http://www.w3.org/2000/svg" xmlns:xlink="http://www.w3.org/1999/xlink" version="1.1" viewBox="-10 -40 533 512">
   <path fill="currentColor"
d="M38 436q37 35 86 37v0v0q48 2 88 -31q22 15 43 -2q17 -21 2 -43l179 -179v0q22 15 43 -2q17 -21 2 -43q33 -40 31 -88q-2 -49 -37 -87q-40 -37 -91 -37t-90 37l-122 122v0q-22 -15 -43 2q-17 21 -2 43l-89 90v0q-38 39 -38 90t38 91v0zM400 49q22 2 24 24q-2 22 -24 24
q-22 -2 -24 -24q2 -22 24 -24v0zM304 209q22 2 24 24q-2 22 -24 24q-22 -2 -24 -24q2 -22 24 -24v0zM120 265q2 -22 24 -24q22 2 24 24q-2 22 -24 24q-22 -2 -24 -24v0z" />
</svg>
