<?xml version="1.0" standalone="no"?>
<!DOCTYPE svg PUBLIC "-//W3C//DTD SVG 1.1//EN" "http://www.w3.org/Graphics/SVG/1.1/DTD/svg11.dtd" >
<svg xmlns="http://www.w3.org/2000/svg" xmlns:xlink="http://www.w3.org/1999/xlink" version="1.1" viewBox="-10 -40 532 512">
   <path fill="currentColor"
d="M228 -27q12 -12 28 -12v0v0q16 0 28 12l216 216v0q12 12 12 28t-12 28l-216 216v0q-12 12 -28 12t-28 -12l-216 -216v0q-12 -12 -12 -28t12 -28l216 -216v0zM256 89q-22 2 -24 24v112v0q2 22 24 24q22 -2 24 -24v-112v0q-2 -22 -24 -24v0zM288 313q0 -14 -9 -23v0v0
q-9 -9 -23 -9t-23 9t-9 23t9 23t23 9t23 -9t9 -23v0z" />
</svg>
