<?xml version="1.0" standalone="no"?>
<!DOCTYPE svg PUBLIC "-//W3C//DTD SVG 1.1//EN" "http://www.w3.org/Graphics/SVG/1.1/DTD/svg11.dtd" >
<svg xmlns="http://www.w3.org/2000/svg" xmlns:xlink="http://www.w3.org/1999/xlink" version="1.1" viewBox="-10 -40 532 512">
   <path fill="currentColor"
d="M0 217q1 -70 34 -128v0v0q34 -58 94 -94q61 -34 128 -34t128 34q60 36 94 94q33 58 34 128q-1 70 -34 128q-34 58 -94 94q-61 34 -128 34t-128 -34q-60 -36 -94 -94q-33 -58 -34 -128v0zM204 121q-10 15 -28 16q-14 0 -23 -9t-9 -23t10 -23q-5 -1 -10 -1q-27 1 -45 19
t-19 45v10v0q0 13 9 21q8 9 21 9h68v0q13 0 21 -9q9 -8 9 -21v-10v0q0 -13 -5 -24h1zM384 137q-14 0 -23 -9v0v0q-9 -9 -9 -23q0 -13 9 -22q-8 -2 -17 -2q-31 1 -51 21t-21 51v8v0q2 22 25 24h95v0q22 -2 24 -24v-8v0q0 -16 -6 -29q-9 12 -26 13v0zM246 409h8h5v0
q41 0 77 -18q35 -18 60 -49v0v0q23 -31 32 -72q1 -19 -17 -21v0v0h-309v0v0v0q-19 2 -18 21q13 60 57 97q44 38 104 42h1zM240 376q2 -34 25 -56v0v0q23 -22 57 -23q31 0 53 19q-20 28 -50 44q-30 17 -67 17h-4v0q-7 0 -14 -1v0z" />
</svg>
