<?xml version="1.0" standalone="no"?>
<!DOCTYPE svg PUBLIC "-//W3C//DTD SVG 1.1//EN" "http://www.w3.org/Graphics/SVG/1.1/DTD/svg11.dtd" >
<svg xmlns="http://www.w3.org/2000/svg" xmlns:xlink="http://www.w3.org/1999/xlink" version="1.1" viewBox="-10 -40 532 512">
   <path fill="currentColor"
d="M256 473q70 -1 128 -34v0v0q58 -34 94 -94q34 -61 34 -128t-34 -128q-36 -60 -94 -94q-58 -33 -128 -34q-70 1 -128 34q-58 34 -94 94q-34 61 -34 128t34 128q36 60 94 94q58 33 128 34v0zM363 132l-192 192l192 -192l-192 192q-11 10 -22 0q-10 -11 0 -22l192 -192v0
q11 -10 22 0q10 11 0 22v0zM251 62q10 11 0 22l-128 128v0q-11 10 -22 0q-10 -11 0 -22l128 -128v0q11 -10 22 0v0zM411 244l-128 128l128 -128l-128 128q-11 10 -22 0q-10 -11 0 -22l128 -128v0q11 -10 22 0q10 11 0 22v0z" />
</svg>
