<?xml version="1.0" standalone="no"?>
<!DOCTYPE svg PUBLIC "-//W3C//DTD SVG 1.1//EN" "http://www.w3.org/Graphics/SVG/1.1/DTD/svg11.dtd" >
<svg xmlns="http://www.w3.org/2000/svg" xmlns:xlink="http://www.w3.org/1999/xlink" version="1.1" viewBox="-10 -40 532 512">
   <path fill="currentColor"
d="M83 130v0v0v0q-32 23 -57 51v0v0q-25 27 -26 68q1 52 23 79t50 37q27 10 44 11q-50 -37 -53 -111q0 -41 11 -66q9 -24 21 -41q0 -1 1 -2t1 -2q12 -19 21 -43q1 -6 3 -12q-17 15 -38 30q0 1 -1 1v0zM384 377q2 1 33 -5v0v0q31 -6 62 -33v0v0q31 -27 33 -90q-1 -41 -26 -68
q-25 -28 -57 -51v0q-31 -22 -53 -46q-23 -25 -24 -59v-16v0q-1 -20 -14 -34q-14 -13 -34 -14h-16v0v80v0q1 44 11 69q11 25 26 44l2 2t2 3v0v0v0v0v0q14 18 26 43q12 24 13 63q-3 74 -54 112h70v0zM256 41v-80v80v-80h-48v0q-20 1 -34 14q-13 14 -14 34v16v0v16v0
q0 49 -11 79q-10 30 -23 50l-3 4v0v1q-11 17 -18 35q-9 20 -9 55q1 52 35 82q35 29 85 30q50 -1 84 -30q35 -30 36 -82q0 -31 -10 -50q-9 -20 -24 -38v0v0v0v0v0l-1 -1q-1 -2 -2 -3q-16 -20 -29 -51t-14 -81v0zM136 409v40v-40v40q2 22 24 24q22 -2 24 -24v-40v0h-48v0z
M200 409v40v-40v40q2 22 24 24q22 -2 24 -24v-40v0h-48v0zM264 409v40v-40v40q2 22 24 24q22 -2 24 -24v-40v0h-48v0zM328 409v40v-40v40q2 22 24 24q22 -2 24 -24v-40v0h-48v0z" />
</svg>
