<?xml version="1.0" standalone="no"?>
<!DOCTYPE svg PUBLIC "-//W3C//DTD SVG 1.1//EN" "http://www.w3.org/Graphics/SVG/1.1/DTD/svg11.dtd" >
<svg xmlns="http://www.w3.org/2000/svg" xmlns:xlink="http://www.w3.org/1999/xlink" version="1.1" viewBox="-10 -40 468 512">
   <path fill="currentColor"
d="M288 65q2 22 24 24q22 -2 24 -24v-2v0l80 -12v0q3 13 16 14q15 -1 16 -16v-48v0q-1 -15 -16 -16q-13 1 -16 14l-80 -12v0v-2v0q-2 -22 -24 -24q-22 2 -24 24v80v0zM64 137q1 -34 23 -57v0v0q23 -22 57 -23h112v0v-64v0h-112v0q-61 2 -102 42q-40 41 -42 102q2 61 42 102
q41 40 102 42h272v0q14 0 23 -9t9 -23t-9 -23t-23 -9h-272v0q-34 -1 -57 -23q-22 -23 -23 -57v0zM32 313q-14 0 -23 9v0v0q-9 9 -9 23t9 23t23 9h384v0q14 0 23 -9t9 -23t-9 -23t-23 -9h-384v0zM32 409q-14 0 -23 9v0v0q-9 9 -9 23t9 23t23 9h384v0q14 0 23 -9t9 -23t-9 -23
t-23 -9h-384v0z" />
</svg>
