<?xml version="1.0" standalone="no"?>
<!DOCTYPE svg PUBLIC "-//W3C//DTD SVG 1.1//EN" "http://www.w3.org/Graphics/SVG/1.1/DTD/svg11.dtd" >
<svg xmlns="http://www.w3.org/2000/svg" xmlns:xlink="http://www.w3.org/1999/xlink" version="1.1" viewBox="-10 -40 650 512">
   <path fill="currentColor"
d="M320 25q-82 2 -136 56v0v0q-54 54 -56 136q2 82 56 136t136 56q62 -1 110 -34q11 -8 24 -6q12 3 20 14t6 23q-3 13 -14 21q-63 45 -146 46q-72 -1 -129 -35q-58 -34 -92 -92q-34 -57 -35 -129q1 -72 35 -129q34 -58 92 -92q57 -34 129 -35q72 1 129 35q58 34 92 92
q34 57 35 129v96v0h8v0q22 2 24 24q-2 22 -24 24h-2v0l-12 80v0q13 3 14 16q-1 15 -16 16h-48v0q-15 -1 -16 -16q1 -13 14 -16l-12 -80v0h-2v0q-22 -2 -24 -24q2 -22 24 -24h8v0v-96v0q-2 -82 -56 -136t-136 -56v0zM224 217q0 26 13 48v0v0q13 22 35 35q23 13 48 13t48 -13
q22 -13 35 -35t13 -48t-13 -48t-35 -35q-23 -13 -48 -13t-48 13q-22 13 -35 35t-13 48v0zM320 377q-43 0 -80 -21v0v0q-37 -22 -59 -59q-21 -38 -21 -80t21 -80q22 -37 59 -59q37 -21 80 -21t80 21q37 22 59 59q21 38 21 80t-21 80q-22 37 -59 59q-37 21 -80 21v0zM256 217
q1 -36 32 -55q32 -18 64 0q31 19 32 55q-1 36 -32 55q-32 18 -64 0q-31 -19 -32 -55v0z" />
</svg>
