<?xml version="1.0" standalone="no"?>
<!DOCTYPE svg PUBLIC "-//W3C//DTD SVG 1.1//EN" "http://www.w3.org/Graphics/SVG/1.1/DTD/svg11.dtd" >
<svg xmlns="http://www.w3.org/2000/svg" xmlns:xlink="http://www.w3.org/1999/xlink" version="1.1" viewBox="-10 -40 660 512">
   <path fill="currentColor"
d="M320 473q70 -1 128 -34v0v0q58 -34 94 -94q34 -61 34 -128t-34 -128q-36 -60 -94 -94q-58 -33 -128 -34q-70 1 -128 34q-58 34 -94 94q-34 61 -34 128t34 128q36 60 94 94q58 33 128 34v0zM320 25q29 1 50 18v0v0q21 17 27 45v3v0q1 12 -11 14h-132v0q-12 -2 -11 -14v-3
v0q6 -28 27 -45t50 -18v0zM230 147q12 14 0 28l-32 32v0q-14 12 -28 0q-12 -14 0 -28l32 -32v0q14 -12 28 0v0zM296 185q2 -22 24 -24q22 2 24 24q-2 22 -24 24q-22 -2 -24 -24v0zM416 321q22 2 24 24q-2 22 -24 24q-22 -2 -24 -24q2 -22 24 -24v0zM227 246q3 3 5 7q0 3 1 5
v1q1 8 6 14l3 3v0q5 5 11 5h27v0q24 1 40 16q15 16 16 40q-1 24 -16 39q-16 16 -40 17q-24 -1 -40 -17q-15 -15 -16 -39v-27v0q0 -6 -5 -11l-3 -3v0q-6 -5 -14 -6h-1q-2 -1 -5 -1q-4 -1 -7 -5q-9 -11 0 -22l8 -8v0l8 -8v0q11 -10 22 0v0zM456 145q8 -7 16 0l3 3v0
q21 21 21 51v4v0q-1 30 -23 49q-17 13 -39 13h-4v0q-30 0 -51 -21l-3 -3v0q-7 -8 0 -16l80 -80v0zM24 121q-22 2 -24 24v144v0q2 22 24 24q22 -2 24 -24v-144v0q-2 -22 -24 -24v0zM640 145q-2 -22 -24 -24q-22 2 -24 24v144v0q2 22 24 24q22 -2 24 -24v-144v0z" />
</svg>
