<?xml version="1.0" standalone="no"?>
<!DOCTYPE svg PUBLIC "-//W3C//DTD SVG 1.1//EN" "http://www.w3.org/Graphics/SVG/1.1/DTD/svg11.dtd" >
<svg xmlns="http://www.w3.org/2000/svg" xmlns:xlink="http://www.w3.org/1999/xlink" version="1.1" viewBox="-10 -40 532 512">
   <path fill="currentColor"
d="M256 153q0 -14 9 -23v0v0q9 -9 23 -10q83 -3 137 -21q53 -17 55 -42q-2 -27 -66 -45q-63 -18 -158 -19q-95 1 -158 19q-64 18 -66 45q1 21 41 37q22 9 23 32v107v0q0 14 9 23t23 9t23 -9t9 -23v-100v0q2 -16 18 -16q13 2 14 16v52v0q0 14 9 23t23 9t23 -9t9 -23v-32v0z
M192 41q1 -15 16 -16h96v0q15 1 16 16q-1 15 -16 16h-96v0q-15 -1 -16 -16v0zM15 94q-15 13 -15 27q2 31 64 53v-48v0v0v-1q-1 0 -3 -1q-22 -9 -39 -23q-4 -3 -7 -7v0zM286 201q98 -5 161 -27v0v0q63 -22 65 -53q0 -14 -15 -27q-6 7 -13 12q-20 14 -49 24q-59 19 -146 22
l-1 1v0v32v0q0 8 -2 16v0zM7 182q-7 9 -7 19q2 32 68 54q-4 -10 -4 -22v-25v0q-33 -10 -57 -26v0zM256 281q109 -1 181 -23v0v0q72 -23 75 -57q0 -10 -7 -19q-25 16 -58 26q-75 23 -181 25q-17 15 -42 16q-18 0 -32 -9q-3 22 -17 37q38 4 81 4v0zM512 281q0 -10 -7 -19
q-25 16 -58 26q-79 24 -191 25q-112 -1 -191 -25q-33 -10 -58 -26q-7 9 -7 19q3 34 75 57q72 22 181 23q109 -1 181 -23q72 -23 75 -57v0zM512 361q0 -10 -7 -19q-25 16 -58 26q-79 24 -191 25q-112 -1 -191 -25q-33 -10 -58 -26q-7 9 -7 19q3 34 75 57q72 22 181 23
q109 -1 181 -23q72 -23 75 -57v0z" />
</svg>
