<?xml version="1.0" standalone="no"?>
<!DOCTYPE svg PUBLIC "-//W3C//DTD SVG 1.1//EN" "http://www.w3.org/Graphics/SVG/1.1/DTD/svg11.dtd" >
<svg xmlns="http://www.w3.org/2000/svg" xmlns:xlink="http://www.w3.org/1999/xlink" version="1.1" viewBox="-10 -40 661 512">
   <path fill="currentColor"
d="M0 57q1 -27 19 -45v0v0q18 -18 45 -19h320v0q27 1 45 19t19 45v32v0q-20 -2 -35 12q-15 13 -29 27v-39v0q0 -14 -9 -23t-23 -9h-256v0q-14 0 -23 9t-9 23v64v0q0 14 9 23t23 9h242v0q-7 9 -13 19q-17 26 -27 55q-5 -2 -10 -2q-22 2 -24 24q2 22 24 24v0v0v6q2 76 50 130
h-274v0q-27 -1 -45 -19t-19 -45v-320v0zM120 281q-2 -22 -24 -24q-22 2 -24 24q2 22 24 24q22 -2 24 -24v0zM192 305q22 -2 24 -24q-2 -22 -24 -24q-22 2 -24 24q2 22 24 24v0zM480 473q-68 -2 -113 -47v0v0q-45 -45 -47 -113q3 -58 37 -106q34 -47 70 -73q8 -6 17 -6
q12 0 22 9l46 46v0l11 -11v0q10 -9 21 -10q12 0 22 9q43 44 59 81t15 61q-2 68 -47 113t-113 47v0zM544 361q-2 -28 -21 -52v0v0q-19 -24 -34 -36q-9 -7 -18 0q-15 12 -34 36t-21 52q1 27 19 45t45 19q27 -1 45 -19t19 -45v0z" />
</svg>
