<?xml version="1.0" standalone="no"?>
<!DOCTYPE svg PUBLIC "-//W3C//DTD SVG 1.1//EN" "http://www.w3.org/Graphics/SVG/1.1/DTD/svg11.dtd" >
<svg xmlns="http://www.w3.org/2000/svg" xmlns:xlink="http://www.w3.org/1999/xlink" version="1.1" viewBox="-11 0 661 512">
   <path fill="currentColor"
d="M120 467q-26 11 -50 2v0v0q-25 -10 -37 -35l-22 -51v0q-10 -23 -11 -46t8 -47q9 -23 25 -40q9 -9 20 -16q27 -17 40 -45q9 -30 0 -60q-3 -13 -3 -26q-1 -23 8 -46v-1v0q9 -23 25 -39q16 -17 39 -28l51 -22v0q25 -11 50 -2q24 10 36 35l23 51v0q-6 16 -9 31v0v0q-1 3 -1 6
l-2 6q-6 22 -16 32q-11 11 -33 17q-5 1 -12 3q-20 4 -42 13q-32 13 -58 39q-52 53 -53 127v68v0q1 43 27 73l-3 1v0zM492 -39h68h-68h68q34 1 57 23q22 23 23 57v68v0q-2 62 -43 104l-1 1v0q-21 21 -47 32q-15 6 -30 9q-39 5 -67 30q-25 28 -30 67q-3 15 -9 30
q-11 26 -31 47l-2 2q-42 40 -104 42h-68v0q-34 -1 -57 -23q-22 -23 -23 -57v-68v0q0 -30 11 -57q11 -26 32 -48q22 -21 48 -32q15 -6 30 -9q39 -5 67 -30q25 -28 30 -67q3 -15 9 -30q11 -26 32 -47l1 -1v0q21 -21 47 -32q27 -11 57 -11v0zM544 108q18 -1 19 -19
q-1 -18 -19 -19q-18 1 -19 19q1 18 19 19v0zM544 172q18 -1 19 -19q-1 -18 -19 -19q-11 0 -17 9q-5 10 0 20q6 9 17 9v0zM480 172q18 -1 19 -19q-1 -18 -19 -19q-11 0 -17 9q-5 10 0 20q6 9 17 9v0zM256 396q11 0 17 -9q5 -10 0 -20q-6 -9 -17 -9t-17 9q-5 10 0 20q6 9 17 9
v0zM339 377q0 -11 -9 -17q-10 -5 -20 0q-9 6 -9 17t9 17q10 5 20 0q9 -6 9 -17v0zM339 313q0 -11 -9 -17q-10 -5 -20 0q-9 6 -9 17t9 17q10 5 20 0q9 -6 9 -17v0z" />
</svg>
