<?xml version="1.0" standalone="no"?>
<!DOCTYPE svg PUBLIC "-//W3C//DTD SVG 1.1//EN" "http://www.w3.org/Graphics/SVG/1.1/DTD/svg11.dtd" >
<svg xmlns="http://www.w3.org/2000/svg" xmlns:xlink="http://www.w3.org/1999/xlink" version="1.1" viewBox="-10 -40 596 512">
   <path fill="currentColor"
d="M272 -39q27 1 42 24q12 24 0 48q-15 23 -42 24q-27 -1 -42 -24q-12 -24 0 -48q15 -23 42 -24v0zM163 121q-22 0 -37 16l-23 23v0q-10 9 -23 9t-23 -9q-9 -10 -9 -23t9 -23l23 -23v0q35 -33 83 -34q18 0 35 5l48 15v0q57 19 81 73l6 15v0q9 19 30 20h21v0q14 0 23 9t9 23
t-9 23t-23 9h-21v0q-30 0 -54 -16q-23 -16 -35 -43l-5 -12v0l-31 82v0l57 35v0q13 9 19 24q6 14 1 30l-28 101v0q-4 13 -15 19q-12 6 -25 3q-13 -4 -19 -15q-6 -12 -3 -25l26 -89v0l-87 -54v0q-19 -12 -26 -32t0 -42l31 -94v0h-6v0zM110 272q11 27 37 45l10 6v0l-12 26v0
q-13 27 -44 28h-69v0q-14 0 -23 -9t-9 -23t9 -23t23 -9h59v0l19 -41v0zM384 9q1 -20 14 -34v0v0q14 -13 34 -14h96v0q20 1 34 14q13 14 14 34v416v0q-1 20 -14 34q-14 13 -34 14h-96v0q-20 -1 -34 -14q-13 -14 -14 -34v-144v0v0v0q27 -1 45 -19t19 -45q-1 -27 -19 -45
t-45 -19v0v0v-144v0z" />
</svg>
