<?xml version="1.0" standalone="no"?>
<!DOCTYPE svg PUBLIC "-//W3C//DTD SVG 1.1//EN" "http://www.w3.org/Graphics/SVG/1.1/DTD/svg11.dtd" >
<svg xmlns="http://www.w3.org/2000/svg" xmlns:xlink="http://www.w3.org/1999/xlink" version="1.1" viewBox="-10 -40 532 512">
   <path fill="currentColor"
d="M288 25q0 -14 -9 -23v0v0q-9 -9 -23 -9t-23 9t-9 23v12v0l-96 -12v0q-14 0 -23 9t-9 23t9 23t23 9l128 -16v0l128 16v0q14 0 23 -9t9 -23t-9 -23t-23 -9l-96 12v0v-12v0zM288 109l-32 -4l32 4l-32 -4l-32 4v0v44v0h-128v0v256v0h320v0v-256v0h-128v0v-44v0zM32 121
q-14 0 -23 9v0v0q-9 9 -9 23v256v0q0 14 9 23t23 9t23 -9t9 -23v-256v0q0 -14 -9 -23t-23 -9v0zM512 153q0 -14 -9 -23v0v0q-9 -9 -23 -9t-23 9t-9 23v256v0q0 14 9 23t23 9t23 -9t9 -23v-256v0z" />
</svg>
