<?xml version="1.0" standalone="no"?>
<!DOCTYPE svg PUBLIC "-//W3C//DTD SVG 1.1//EN" "http://www.w3.org/Graphics/SVG/1.1/DTD/svg11.dtd" >
<svg xmlns="http://www.w3.org/2000/svg" xmlns:xlink="http://www.w3.org/1999/xlink" version="1.1" viewBox="-10 -40 404 512">
   <path fill="currentColor"
d="M224 -7q0 -14 -9 -23v0v0q-9 -9 -23 -9t-23 9t-9 23v112v0h-112v0q-14 0 -23 9t-9 23t9 23t23 9h112v0v112v0q0 14 9 23t23 9t23 -9t9 -23v-112v0h112v0q14 0 23 -9t9 -23t-9 -23t-23 -9h-112v0v-112v0zM0 441q0 14 9 23v0v0q9 9 23 9h320v0q14 0 23 -9t9 -23t-9 -23
t-23 -9h-320v0q-14 0 -23 9t-9 23v0z" />
</svg>
