<?xml version="1.0" standalone="no"?>
<!DOCTYPE svg PUBLIC "-//W3C//DTD SVG 1.1//EN" "http://www.w3.org/Graphics/SVG/1.1/DTD/svg11.dtd" >
<svg xmlns="http://www.w3.org/2000/svg" xmlns:xlink="http://www.w3.org/1999/xlink" version="1.1" viewBox="-10 -40 532 512">
   <path fill="currentColor"
d="M460 133q-36 -24 -82 -12v0v0q-45 12 -83 56q-11 14 -25 5q-13 -11 -5 -26q28 -52 23 -100t-41 -74q-46 -31 -100 -17q-53 14 -90 66q-43 65 -54 141q-10 76 14 145q23 70 84 115q62 43 134 41t138 -39t110 -101q34 -53 28 -110t-51 -90v0z" />
</svg>
