<?xml version="1.0" standalone="no"?>
<!DOCTYPE svg PUBLIC "-//W3C//DTD SVG 1.1//EN" "http://www.w3.org/Graphics/SVG/1.1/DTD/svg11.dtd" >
<svg xmlns="http://www.w3.org/2000/svg" xmlns:xlink="http://www.w3.org/1999/xlink" version="1.1" viewBox="-10 -40 532 512">
   <path fill="currentColor"
d="M139 -7q-59 1 -98 41v0v0q-40 39 -41 98q1 62 28 114q28 52 76 86l-33 46v0q-9 14 -6 30q2 16 16 26q14 9 30 6q16 -2 26 -16l40 -57v0q33 10 68 10h11h11q36 0 68 -10l40 57v0q10 14 26 16q16 3 30 -6q14 -10 16 -26q3 -16 -6 -30l-33 -46v0q48 -34 76 -86
q27 -52 28 -114q-1 -59 -41 -98q-39 -40 -98 -41h-9v0q-66 2 -108 47q-42 -45 -108 -47h-9v0zM216 141v7v-7v7q0 24 -14 44l-52 75v0q-32 -23 -51 -58t-19 -77q1 -25 17 -42q17 -16 42 -17h9v0q29 1 48 20t20 48v0zM256 255l29 41l-29 -41l29 41q-9 1 -18 1h-11h-11
q-9 0 -18 -1l29 -41v0zM310 192q-14 -20 -14 -44v-7v0q1 -29 20 -48t48 -20h9v0q25 1 42 17q16 17 17 42q0 42 -19 77t-51 58l-52 -75v0z" />
</svg>
