<?xml version="1.0" standalone="no"?>
<!DOCTYPE svg PUBLIC "-//W3C//DTD SVG 1.1//EN" "http://www.w3.org/Graphics/SVG/1.1/DTD/svg11.dtd" >
<svg xmlns="http://www.w3.org/2000/svg" xmlns:xlink="http://www.w3.org/1999/xlink" version="1.1" viewBox="-10 -40 660 512">
   <path fill="currentColor"
d="M640 57v320v-320v320q0 14 -9 23t-23 9t-23 -9t-9 -23v-320v0q0 -14 9 -23t23 -9t23 9t9 23v0zM361 370q-12 10 -26 5q-14 -7 -15 -22v-72v0h-288v0q-14 0 -23 -9t-9 -23v-64v0q0 -14 9 -23t23 -9h288v0v-72v0q1 -15 15 -22q14 -6 26 5l144 136v0q7 7 7 17t-7 17
l-144 136v0z" />
</svg>
