<?xml version="1.0" standalone="no"?>
<!DOCTYPE svg PUBLIC "-//W3C//DTD SVG 1.1//EN" "http://www.w3.org/Graphics/SVG/1.1/DTD/svg11.dtd" >
<svg xmlns="http://www.w3.org/2000/svg" xmlns:xlink="http://www.w3.org/1999/xlink" version="1.1" viewBox="-10 -40 468 512">
   <path fill="currentColor"
d="M304 105q-1 34 -23 57v0v0q-23 22 -57 23q-34 -1 -57 -23q-22 -23 -23 -57v-16v0q0 -8 2 -16h31v0q46 -1 71 -40l5 5v0q19 18 44 19q7 15 7 32v16v0zM224 -39q-54 1 -91 37v0v0q-36 37 -37 91v16v0q1 54 37 91q37 36 91 37q54 -1 91 -37q36 -37 37 -91v-16v0
q-1 -54 -37 -91q-37 -36 -91 -37v0zM288 281h-1h1h-128v50v0q18 6 29 20q11 15 11 34q-1 24 -16 40q-16 15 -40 16q-24 -1 -40 -16q-15 -16 -16 -40q0 -19 11 -34q11 -14 29 -20v-47v0q-56 13 -91 56q-36 43 -37 102q0 13 9 22t22 9h386v0q13 0 22 -9t9 -22q-1 -59 -37 -102
q-35 -43 -91 -55v38v0q21 6 34 22q14 17 14 40v40v0q-1 15 -16 16h-16v0q-15 -1 -16 -16q1 -15 16 -16v-24v0q0 -14 -9 -23t-23 -9t-23 9t-9 23v24v0q15 1 16 16q-1 15 -16 16h-16v0q-15 -1 -16 -16v-40v0q0 -23 14 -40q13 -16 34 -22v-42v0zM168 385q-2 -22 -24 -24
q-22 2 -24 24q2 22 24 24q22 -2 24 -24v0z" />
</svg>
