<?xml version="1.0" standalone="no"?>
<!DOCTYPE svg PUBLIC "-//W3C//DTD SVG 1.1//EN" "http://www.w3.org/Graphics/SVG/1.1/DTD/svg11.dtd" >
<svg xmlns="http://www.w3.org/2000/svg" xmlns:xlink="http://www.w3.org/1999/xlink" version="1.1" viewBox="-10 -40 468 512">
   <path fill="currentColor"
d="M224 -39q-35 0 -64 17v0v0q-29 17 -47 47q-17 30 -17 64t17 64q18 30 47 47t64 17t64 -17t47 -47q17 -30 17 -64t-17 -64q-18 -30 -47 -47t-64 -17v0zM157 288q-5 -7 -13 -6q-62 8 -102 52q-41 45 -42 108q0 13 9 22t22 9h386v0q13 0 22 -9t9 -22q-1 -63 -42 -108
q-40 -44 -102 -52q-8 -1 -13 6l-54 72v0q-13 13 -26 0l-54 -72v0z" />
</svg>
