<?xml version="1.0" standalone="no"?>
<!DOCTYPE svg PUBLIC "-//W3C//DTD SVG 1.1//EN" "http://www.w3.org/Graphics/SVG/1.1/DTD/svg11.dtd" >
<svg xmlns="http://www.w3.org/2000/svg" xmlns:xlink="http://www.w3.org/1999/xlink" version="1.1" viewBox="-10 -40 468 512">
   <path fill="currentColor"
d="M304 89v16v-16v16q-1 34 -23 57q-23 22 -57 23q-34 -1 -57 -23q-22 -23 -23 -57v-16v0q0 -8 2 -16h30v0q47 -2 70 -40q18 23 50 24h1v0q7 15 7 32v0zM96 89v16v-16v16q1 54 37 91q37 36 91 37q54 -1 91 -37q36 -37 37 -91v-16v0q-1 -54 -37 -91q-37 -36 -91 -37
q-54 1 -91 37q-36 37 -37 91v0zM157 288q-5 -7 -13 -6q-62 8 -102 52q-41 45 -42 108q0 13 9 22t22 9h386v0q13 0 22 -9t9 -22q-1 -63 -42 -108q-40 -44 -102 -52q-8 -1 -13 6l-54 72v0q-13 13 -26 0l-54 -72v0z" />
</svg>
