<?xml version="1.0" standalone="no"?>
<!DOCTYPE svg PUBLIC "-//W3C//DTD SVG 1.1//EN" "http://www.w3.org/Graphics/SVG/1.1/DTD/svg11.dtd" >
<svg xmlns="http://www.w3.org/2000/svg" xmlns:xlink="http://www.w3.org/1999/xlink" version="1.1" viewBox="-10 -40 660 512">
   <path fill="currentColor"
d="M64 89q1 -27 19 -45v0v0q18 -18 45 -19h384v0q27 1 45 19t19 45v32v0h32v0q14 0 23 9t9 23v128v0q0 14 -9 23t-23 9h-32v0v32v0q-1 27 -19 45t-45 19h-384v0q-27 -1 -45 -19t-19 -45v-32v0h-32v0q-14 0 -23 -9t-9 -23v-128v0q0 -14 9 -23t23 -9h32v0v-32v0zM184 105
q-22 2 -24 24q2 22 24 24h272v0q22 -2 24 -24q-2 -22 -24 -24h-272v0zM184 193q-22 2 -24 24q2 22 24 24h272v0q22 -2 24 -24q-2 -22 -24 -24h-272v0zM184 281q-22 2 -24 24q2 22 24 24h272v0q22 -2 24 -24q-2 -22 -24 -24h-272v0z" />
</svg>
