<?xml version="1.0" standalone="no"?>
<!DOCTYPE svg PUBLIC "-//W3C//DTD SVG 1.1//EN" "http://www.w3.org/Graphics/SVG/1.1/DTD/svg11.dtd" >
<svg xmlns="http://www.w3.org/2000/svg" xmlns:xlink="http://www.w3.org/1999/xlink" version="1.1" viewBox="-10 -40 596 512">
   <path fill="currentColor"
d="M128 -39q-14 0 -23 9v0v0q-9 9 -9 23v32v0h-48v0q-20 1 -34 14q-13 14 -14 34v48v0h448v0v-48v0q-1 -20 -14 -34q-14 -13 -34 -14h-48v0v-32v0q0 -14 -9 -23t-23 -9t-23 9t-9 23v32v0h-128v0v-32v0q0 -14 -9 -23t-23 -9v0zM256 329q2 -70 46 -119v0v0q45 -49 114 -56v-1
v0h-416v0v272v0q1 20 14 34q14 13 34 14h283v0q-35 -24 -55 -62q-20 -37 -20 -82v0zM432 473q39 0 72 -19v0v0q33 -19 53 -53q19 -34 19 -72t-19 -72q-20 -34 -53 -53t-72 -19t-72 19t-53 53q-19 34 -19 72t19 72q20 34 53 53t72 19v0zM448 265v48v-48v48h48v0q15 1 16 16
q-1 15 -16 16h-48v0v48v0q-1 15 -16 16q-15 -1 -16 -16v-48v0h-48v0q-15 -1 -16 -16q1 -15 16 -16h48v0v-48v0q1 -15 16 -16q15 1 16 16v0z" />
</svg>
