<?xml version="1.0" standalone="no"?>
<!DOCTYPE svg PUBLIC "-//W3C//DTD SVG 1.1//EN" "http://www.w3.org/Graphics/SVG/1.1/DTD/svg11.dtd" >
<svg xmlns="http://www.w3.org/2000/svg" xmlns:xlink="http://www.w3.org/1999/xlink" version="1.1" viewBox="-10 -40 660 512">
   <path fill="currentColor"
d="M128 -39q-37 2 -55 32h-9v0q-27 1 -45 19t-19 45q1 27 19 45t45 19h160v0q27 -1 45 -19t19 -45q-1 -27 -19 -45t-45 -19q-20 0 -36 11q-6 -19 -23 -31q-16 -12 -37 -12v0zM72 153q-8 31 -8 64q1 87 51 153q49 65 128 91q-18 -26 -19 -60q1 -39 24 -67q23 -27 60 -35
q11 -36 40 -59q29 -22 68 -23q45 1 76 29q13 -5 28 -5q31 1 52 20q4 -22 4 -44q-1 -72 -35 -129q-34 -58 -92 -92q-57 -34 -129 -35q-31 0 -60 7q27 11 43 35q17 23 17 54q0 30 -16 53q-16 24 -42 35q10 10 10 24t-9 23t-23 9q-13 0 -22 -9t-10 -23q0 -9 5 -16h-141v0z
M400 137q14 0 23 9v0v0q9 9 9 23t-9 23t-23 9q-13 0 -22 -9t-10 -23q1 -14 10 -23t22 -9v0zM336 329h-8h8h-8q-31 1 -51 21t-21 51q1 31 21 51t51 21h240v0q31 -1 51 -21t21 -51q-1 -31 -21 -51t-51 -21h-1v0q1 -4 1 -8q-1 -20 -14 -34q-14 -13 -34 -14q-21 1 -35 15
q-23 -37 -69 -39q-34 1 -57 23q-22 23 -23 57v0z" />
</svg>
