<?xml version="1.0" standalone="no"?>
<!DOCTYPE svg PUBLIC "-//W3C//DTD SVG 1.1//EN" "http://www.w3.org/Graphics/SVG/1.1/DTD/svg11.dtd" >
<svg xmlns="http://www.w3.org/2000/svg" xmlns:xlink="http://www.w3.org/1999/xlink" version="1.1" viewBox="-10 -40 532 512">
   <path fill="currentColor"
d="M216 -36q20 -3 40 -3t40 3q13 3 21 13q7 10 6 24q-3 13 -13 21q-10 7 -24 5q-15 -2 -30 -2t-30 2q-14 2 -24 -5q-10 -8 -13 -21q-2 -14 6 -24t21 -13v0zM150 17q8 11 6 24v0v0q-2 12 -13 21q-24 18 -42 42q-9 11 -21 13q-13 2 -24 -6t-13 -21q-2 -12 6 -24q24 -32 57 -56
q11 -8 23 -6q13 2 21 13v0zM362 17q8 -11 21 -13v0v0q12 -2 24 6q32 24 56 57q8 11 6 23q-2 13 -13 21t-24 6q-12 -2 -21 -13q-18 -24 -42 -42q-11 -9 -13 -21q-2 -13 6 -24v0zM472 150q14 -1 24 6v0v0q10 8 13 21q3 20 3 40t-3 40q-3 13 -13 21q-10 7 -24 6q-13 -3 -21 -13
q-7 -11 -5 -24q2 -15 2 -30q0 -16 -2 -30t5 -24q8 -10 21 -13v0zM40 150q13 3 21 13v0v0q7 10 5 24q-2 15 -2 30t2 30q2 14 -5 24q-8 10 -21 13q-14 2 -24 -6t-13 -21q-3 -20 -3 -40t3 -40q3 -13 13 -21q10 -7 24 -6v0zM56 323q11 -8 24 -6v0v0q12 2 21 13q18 24 42 42
q11 9 13 21q2 13 -6 24t-21 13q-12 2 -24 -6q-32 -24 -56 -57q-8 -11 -6 -23q2 -13 13 -21v0zM456 323q11 8 13 21v0v0q2 12 -6 24q-24 32 -57 56q-11 8 -23 6q-13 -2 -21 -13t-6 -24q2 -12 13 -21q24 -18 42 -42q8 -11 21 -13t24 6v0zM189 433q3 -13 13 -21v0v0
q10 -7 24 -5q15 2 30 2t30 -2q14 -2 24 5q10 8 13 21q2 14 -6 24t-21 13q-20 3 -40 3t-40 -3q-13 -3 -21 -13q-7 -10 -5 -24h-1zM176 137q14 0 23 9v0v0q9 9 9 23t-9 23t-23 9q-13 0 -22 -9t-10 -23q1 -14 10 -23t22 -9v0zM336 137q14 0 23 9v0v0q9 9 9 23t-9 23t-23 9
q-13 0 -22 -9t-10 -23q1 -14 10 -23t22 -9v0zM184 289h144h-144h144q22 2 24 24q-2 22 -24 24h-144v0q-22 -2 -24 -24q2 -22 24 -24v0z" />
</svg>
