<?xml version="1.0" standalone="no"?>
<!DOCTYPE svg PUBLIC "-//W3C//DTD SVG 1.1//EN" "http://www.w3.org/Graphics/SVG/1.1/DTD/svg11.dtd" >
<svg xmlns="http://www.w3.org/2000/svg" xmlns:xlink="http://www.w3.org/1999/xlink" version="1.1" viewBox="-10 -40 596 512">
   <path fill="currentColor"
d="M256 473q85 -1 150 -48q-17 -15 -21 -37l-42 -12v0q-22 -8 -23 -31q1 -23 23 -31l42 -12v0q4 -23 22 -38q17 -15 41 -15h1h1q21 -23 54 -24q4 0 8 1v-9q-1 -72 -35 -129q-34 -58 -92 -92q-57 -34 -129 -35q-72 1 -129 35q-58 34 -92 92q-34 57 -35 129q1 72 35 129
q34 58 92 92q57 34 129 35v0zM195 199q10 -11 23 -3q11 10 3 23q-25 30 -61 30t-61 -30q-8 -13 3 -23q13 -7 23 3q14 18 35 18t35 -18v0zM317 199q14 18 35 18v0v0q21 0 35 -18q10 -11 23 -3q11 10 3 23q-25 30 -61 30t-61 -30q-8 -13 3 -23q13 -7 23 3v0zM256 305
q23 1 35 20q10 20 0 40q-12 19 -35 20q-23 -1 -35 -20q-10 -20 0 -40q12 -19 35 -20v0zM543 300q1 -2 1 -3v0v0v0q-1 -17 -12 -28q-11 -12 -28 -12q-27 2 -38 25q-5 -1 -10 -1q-17 0 -28 12q-12 11 -12 28l-56 14v0q-7 2 -8 10q1 8 8 10l57 14v0q-1 4 -1 8q0 17 12 28
q11 11 28 12q7 0 14 -3q11 18 34 19q17 -1 28 -12t12 -28q0 -1 -1 -3q31 -11 33 -45q-2 -34 -33 -46v1z" />
</svg>
