<?xml version="1.0" standalone="no"?>
<!DOCTYPE svg PUBLIC "-//W3C//DTD SVG 1.1//EN" "http://www.w3.org/Graphics/SVG/1.1/DTD/svg11.dtd" >
<svg xmlns="http://www.w3.org/2000/svg" xmlns:xlink="http://www.w3.org/1999/xlink" version="1.1" viewBox="-10 -40 532 512">
   <path fill="currentColor"
d="M0 217q1 -70 34 -128v0v0q34 -58 94 -94q61 -34 128 -34t128 34q60 36 94 94q33 58 34 128q-1 70 -34 128q-34 58 -94 94q-61 34 -128 34t-128 -34q-60 -36 -94 -94q-33 -58 -34 -128v0zM345 329q-12 -9 -23 2q-10 11 -26 20q-17 9 -40 10q-23 -1 -40 -10q-16 -9 -26 -20
q-11 -11 -22 -2q-11 11 -2 23q13 15 35 28q23 12 55 13q32 -1 55 -13q22 -13 35 -28q9 -12 -1 -23v0zM240 233v-32v32v-32q-1 -32 -21 -54t-51 -26q15 -16 22 -38l1 -6v0q3 -14 -11 -19q-14 -3 -19 11l-2 5v0q-13 39 -54 46l-11 1v0q-14 3 -14 18q3 13 16 14q-15 21 -16 48
q1 27 16 48v32v0q1 15 16 16q15 -1 16 -16v-7v0q15 7 32 7q27 0 48 -16q1 15 16 16q15 -1 16 -16v-16v0v-16v0zM384 274v7v-7v7q1 15 16 16q15 -1 16 -16v-32v0q16 -21 16 -48t-16 -48q13 -1 16 -14q0 -15 -14 -18l-11 -1v0q-41 -7 -54 -46l-2 -5v0q-5 -14 -19 -11
q-14 5 -11 19l1 6v0q7 22 22 38q-31 4 -51 26t-21 54q1 34 23 57q23 22 57 23q17 0 32 -7v0zM128 193q14 0 23 -9v0v0q9 -9 9 -23q0 -9 -4 -16h4q24 1 40 16q15 16 16 40q-1 24 -16 40q-16 15 -40 16q-24 -1 -40 -16q-15 -16 -16 -40q0 -9 2 -16q9 8 22 8v0zM352 161
q0 -9 -4 -16h4q24 1 40 16q15 16 16 40q-1 24 -16 40q-16 15 -40 16q-24 -1 -40 -16q-15 -16 -16 -40q0 -9 2 -16q9 8 22 8q14 0 23 -9t9 -23v0z" />
</svg>
