<?xml version="1.0" standalone="no"?>
<!DOCTYPE svg PUBLIC "-//W3C//DTD SVG 1.1//EN" "http://www.w3.org/Graphics/SVG/1.1/DTD/svg11.dtd" >
<svg xmlns="http://www.w3.org/2000/svg" xmlns:xlink="http://www.w3.org/1999/xlink" version="1.1" viewBox="-10 -40 660 512">
   <path fill="currentColor"
d="M571 266q-3 18 8 32v0v0q10 14 28 15h1v0q14 0 23 9t9 23t-9 23t-23 9h-48v0q-15 1 -16 16q1 15 16 16h16v0q14 0 23 9t9 23t-9 23t-23 9h-256h-288q-14 0 -23 -9t-9 -23t9 -23t23 -9h13v0q28 -2 41 -30q13 -27 2 -54q-24 -50 -24 -108q1 -72 35 -129q34 -58 92 -92
q57 -34 129 -35q72 1 129 35q58 34 92 92q34 57 35 129q0 25 -5 49v0zM247 181q18 4 32 -8q12 -13 8 -31q-6 -18 -23 -23q-18 -4 -32 8q-12 13 -8 31q6 18 23 23v0zM441 200q4 -18 -8 -32q-13 -12 -31 -8q-18 5 -23 23q-4 18 8 31q14 13 31 9q18 -6 23 -23v0zM213 260
q-7 -12 -21 -7q-13 8 -8 21q11 24 35 47q24 24 64 35q40 10 72 2t54 -24q11 -9 4 -22q-9 -11 -22 -4q-17 12 -43 19q-25 6 -57 -2q-31 -9 -50 -27q-19 -19 -28 -38v0z" />
</svg>
