<?xml version="1.0" standalone="no"?>
<!DOCTYPE svg PUBLIC "-//W3C//DTD SVG 1.1//EN" "http://www.w3.org/Graphics/SVG/1.1/DTD/svg11.dtd" >
<svg xmlns="http://www.w3.org/2000/svg" xmlns:xlink="http://www.w3.org/1999/xlink" version="1.1" viewBox="-10 -40 532 512">
   <path fill="currentColor"
d="M256 473q70 -1 128 -34v0v0q58 -34 94 -94q34 -61 34 -128t-34 -128q-36 -60 -94 -94q-58 -33 -128 -34q-70 1 -128 34q-58 34 -94 94q-34 61 -34 128t34 128q36 60 94 94q58 33 128 34v0zM313 336l15 -10l-15 10l15 -10q23 -14 48 -3l15 8v0q13 8 7 21q-7 13 -21 7
l-15 -7v0q-9 -4 -16 1l-15 10v0q-27 16 -54 0l-12 -9v0q-9 -5 -18 0l-12 9v0q-27 16 -54 0l-14 -10v0q-8 -5 -16 -1l-16 7v0q-14 6 -21 -7q-6 -13 7 -21l15 -8v0q25 -11 48 3l15 10v0q9 5 18 0l12 -8v0q27 -16 54 0l12 8v0q9 5 18 0v0zM166 73q-1 11 -12 12q-36 3 -58 28
q-22 26 -20 56v1v0v0v0q3 31 26 50t51 17v0v0v0v0q28 -3 44 -22q17 -20 15 -43v0v0v0v0q-3 -23 -20 -37q-17 -13 -36 -11h-1v0v0v0q-20 3 -30 16q-11 14 -9 29v0v0v0v0q2 15 13 23t23 6v0v0v0v0q12 -2 17 -10t3 -14v0v0v-1v0q-2 -6 -7 -9q-1 -1 -2 -1q2 3 3 7q0 8 -5 12
t-9 4q-11 1 -18 -8q-7 -12 -2 -22q5 -11 18 -16q15 -5 28 3t17 25q4 18 -7 34q-11 15 -32 19q-22 4 -41 -10t-23 -39q-3 -26 14 -47t47 -25q30 -3 54 16q25 20 29 53q3 34 -20 61t-61 31q-38 3 -68 -23q-31 -25 -35 -66q-2 -42 26 -75q29 -33 75 -36q11 1 13 12v0zM358 253
q36 -3 58 -28v0v0q22 -25 20 -56v-1v0v0v0q-3 -31 -26 -50t-50 -17h-1v0v0v0q-28 3 -44 23q-17 19 -14 42v0v0v1v0q2 22 19 36q17 13 37 11v0v0v0v0q20 -3 30 -16q11 -14 9 -28v-1v0v0v0q-2 -15 -13 -23t-23 -6v0v0v0v0q-12 2 -17 10t-3 14v1v0v0v0q2 6 7 9q1 1 2 1
q-2 -2 -3 -6q0 -9 5 -13t9 -4q11 -1 18 9q7 11 2 21q-5 12 -18 16q-15 5 -28 -3q-13 -7 -17 -25t7 -34q11 -15 32 -19q22 -4 41 10t23 39q3 26 -14 47t-47 25q-30 3 -54 -16q-25 -20 -29 -53q-3 -34 20 -61t61 -30t68 22q31 25 35 67q2 42 -26 74q-29 33 -75 36
q-11 0 -13 -11q1 -11 12 -13v0z" />
</svg>
