<?xml version="1.0" standalone="no"?>
<!DOCTYPE svg PUBLIC "-//W3C//DTD SVG 1.1//EN" "http://www.w3.org/Graphics/SVG/1.1/DTD/svg11.dtd" >
<svg xmlns="http://www.w3.org/2000/svg" xmlns:xlink="http://www.w3.org/1999/xlink" version="1.1" viewBox="-10 -40 660 512">
   <path fill="currentColor"
d="M0 -23q1 -15 16 -16h32v0q15 1 16 16v48v0h32v0v-48v0q1 -15 16 -16h32v0q15 1 16 16v48v0h32v0v-48v0q1 -15 16 -16h32v0q15 1 16 16v80v0v16v0v48v0h128v0v-48v0v-16v0v-80v0q1 -15 16 -16h32v0q15 1 16 16v48v0h32v0v-48v0q1 -15 16 -16h32v0q15 1 16 16v48v0h32v0
v-48v0q1 -15 16 -16h32v0q15 1 16 16v80v0v16v0v64v0q-2 33 -32 45v243v0q-1 20 -14 34q-14 13 -34 14h-176v0v-128v0q-1 -27 -19 -45t-45 -19q-27 1 -45 19t-19 45v128v0h-176v0q-20 -1 -34 -14q-13 -14 -14 -34v-243v0q-30 -12 -32 -45v-64v0v-16v0v-80v0z" />
</svg>
