<?xml version="1.0" standalone="no"?>
<!DOCTYPE svg PUBLIC "-//W3C//DTD SVG 1.1//EN" "http://www.w3.org/Graphics/SVG/1.1/DTD/svg11.dtd" >
<svg xmlns="http://www.w3.org/2000/svg" xmlns:xlink="http://www.w3.org/1999/xlink" version="1.1" viewBox="-10 -40 596 512">
   <path fill="currentColor"
d="M0 57q1 -27 19 -45v0v0q18 -18 45 -19h320v0q27 1 45 19t19 45v97v0q-8 -1 -16 -1q-30 0 -57 10q-18 -47 -58 -76t-93 -30q-68 2 -113 47t-47 113q2 68 47 113t113 47q19 0 37 -4q10 38 35 68h-232v0q-27 -1 -45 -19t-19 -45v-320v0zM224 185q14 0 23 9v0v0q9 9 9 23
t-9 23t-23 9t-23 -9t-9 -23t9 -23t23 -9v0zM432 185q39 0 72 19v0v0q33 19 53 53q19 34 19 72t-19 72q-20 34 -53 53t-72 19t-72 -19t-53 -53q-19 -34 -19 -72t19 -72q20 -34 53 -53t72 -19v0zM448 265q-1 -15 -16 -16q-15 1 -16 16v48v0h-48v0q-15 1 -16 16q1 15 16 16h48
v0v48v0q1 15 16 16q15 -1 16 -16v-48v0h48v0q15 -1 16 -16q-1 -15 -16 -16h-48v0v-48v0z" />
</svg>
