<?xml version="1.0" standalone="no"?>
<!DOCTYPE svg PUBLIC "-//W3C//DTD SVG 1.1//EN" "http://www.w3.org/Graphics/SVG/1.1/DTD/svg11.dtd" >
<svg xmlns="http://www.w3.org/2000/svg" xmlns:xlink="http://www.w3.org/1999/xlink" version="1.1" viewBox="-10 -40 596 512">
   <path fill="currentColor"
d="M0 57q1 -27 19 -45v0v0q18 -18 45 -19h320v0q27 1 45 19t19 45v97v0q-8 -1 -16 -1q-30 0 -57 10q-18 -47 -58 -76t-93 -30q-68 2 -113 47t-47 113q2 68 47 113t113 47q19 0 37 -4q10 38 35 68h-232v0q-27 -1 -45 -19t-19 -45v-320v0zM224 185q14 0 23 9v0v0q9 9 9 23
t-9 23t-23 9t-23 -9t-9 -23t9 -23t23 -9v0zM288 329q0 -39 19 -72v0v0q19 -33 53 -53q34 -19 72 -19t72 19q34 20 53 53t19 72t-19 72t-53 53q-34 19 -72 19t-72 -19q-34 -20 -53 -53t-19 -72v0zM510 410q-12 -31 -45 -33h-66v0q-33 2 -45 33q32 30 78 31q46 -1 78 -31v0z
M480 297q-1 -27 -24 -42q-24 -12 -48 0q-23 15 -24 42q1 27 24 42q24 12 48 0q23 -15 24 -42v0z" />
</svg>
