<?xml version="1.0" standalone="no"?>
<!DOCTYPE svg PUBLIC "-//W3C//DTD SVG 1.1//EN" "http://www.w3.org/Graphics/SVG/1.1/DTD/svg11.dtd" >
<svg xmlns="http://www.w3.org/2000/svg" xmlns:xlink="http://www.w3.org/1999/xlink" version="1.1" viewBox="-10 -40 660 512">
   <path fill="currentColor"
d="M144 441q-61 -2 -102 -42v0v0q-40 -41 -42 -102q1 -48 27 -84t69 -52v-8q2 -68 47 -113t113 -47q45 1 81 22q36 22 58 58q23 -16 53 -16q41 1 68 28t28 68q0 18 -6 35q44 9 73 44q28 34 29 81q-1 54 -37 91q-37 36 -91 37h-368v0zM320 121q-22 2 -24 24v112v0q2 22 24 24
q22 -2 24 -24v-112v0q-2 -22 -24 -24v0zM352 345q0 -14 -9 -23v0v0q-9 -9 -23 -9t-23 9t-9 23t9 23t23 9t23 -9t9 -23v0z" />
</svg>
