<?xml version="1.0" standalone="no"?>
<!DOCTYPE svg PUBLIC "-//W3C//DTD SVG 1.1//EN" "http://www.w3.org/Graphics/SVG/1.1/DTD/svg11.dtd" >
<svg xmlns="http://www.w3.org/2000/svg" xmlns:xlink="http://www.w3.org/1999/xlink" version="1.1" viewBox="-10 -40 532 512">
   <path fill="currentColor"
d="M192 -15q2 -22 24 -24h80v0q22 2 24 24q-2 22 -24 24h-16v0v34v0q47 6 82 34l24 -24v0l-11 -11v0q-14 -17 0 -34q17 -14 34 0l56 56v0q14 17 0 34q-17 14 -34 0l-11 -11v0l-24 24v0q28 36 34 82h34v0v-16v0q2 -22 24 -24q22 2 24 24v80v0q-2 22 -24 24q-22 -2 -24 -24
v-16v0h-34v0q-6 47 -34 82l24 24v0l11 -11v0q17 -14 34 0q14 17 0 34l-56 56v0q-17 14 -34 0q-14 -17 0 -34l11 -11v0l-24 -24v0q-36 28 -82 34v34v0h16v0q22 2 24 24q-2 22 -24 24h-80v0q-22 -2 -24 -24q2 -22 24 -24h16v0v-34v0q-47 -6 -82 -34l-24 24v0l11 11v0
q14 17 0 34q-17 14 -34 0l-56 -56v0q-14 -17 0 -34q17 -14 34 0l11 11v0l24 -24v0q-28 -35 -34 -82h-34v0v16v0q-2 22 -24 24q-22 -2 -24 -24v-80v0q2 -22 24 -24q22 2 24 24v16v0h34v0q6 -47 34 -82l-24 -24v0l-11 11v0q-17 14 -34 0q-14 -17 0 -34l56 -56v0q17 -14 34 0
q14 17 0 34l-11 11v0l24 24v0q36 -28 82 -34v-34v0h-16v0q-22 -2 -24 -24v0zM240 185q-1 -27 -24 -42q-24 -12 -48 0q-23 15 -24 42q1 27 24 42q24 12 48 0q23 -15 24 -42v0zM304 289q22 -2 24 -24q-2 -22 -24 -24q-22 2 -24 24q2 22 24 24v0z" />
</svg>
