<?xml version="1.0" standalone="no"?>
<!DOCTYPE svg PUBLIC "-//W3C//DTD SVG 1.1//EN" "http://www.w3.org/Graphics/SVG/1.1/DTD/svg11.dtd" >
<svg xmlns="http://www.w3.org/2000/svg" xmlns:xlink="http://www.w3.org/1999/xlink" version="1.1" viewBox="-10 -40 532 512">
   <path fill="currentColor"
d="M448 217q-2 -82 -56 -136v0v0q-54 -54 -136 -56q-14 0 -23 -9t-9 -23t9 -23t23 -9q72 1 129 35q58 34 92 92q34 57 35 129q-1 72 -35 129q-34 58 -92 92q-57 34 -129 35q-14 0 -23 -9t-9 -23t9 -23t23 -9q82 -2 136 -56t56 -136v0zM231 82l112 112l-112 -112l112 112
q9 10 9 23t-9 23l-112 112v0q-10 9 -23 9t-23 -9q-9 -10 -9 -23t9 -23l58 -57v0h-211v0q-14 0 -23 -9t-9 -23t9 -23t23 -9h211v0l-58 -57v0q-9 -10 -9 -23t9 -23q10 -9 23 -9t23 9v0z" />
</svg>
