<?xml version="1.0" standalone="no"?>
<!DOCTYPE svg PUBLIC "-//W3C//DTD SVG 1.1//EN" "http://www.w3.org/Graphics/SVG/1.1/DTD/svg11.dtd" >
<svg xmlns="http://www.w3.org/2000/svg" xmlns:xlink="http://www.w3.org/1999/xlink" version="1.1" viewBox="-10 -40 596 512">
   <path fill="currentColor"
d="M544 377h-512h512h-512q-14 0 -23 9t-9 23t9 23t23 9h512v0q14 0 23 -9t9 -23t-9 -23t-23 -9v0zM567 240q9 -10 9 -23v0v0q0 -13 -9 -23q-10 -9 -23 -9t-23 9l-41 42v0v-211v0q0 -14 -9 -23t-23 -9t-23 9t-9 23v211v0l-41 -42v0q-10 -9 -23 -9t-23 9q-9 10 -9 23t9 23
l96 96v0q10 9 23 9t23 -9l96 -96v0zM247 194q-10 -9 -23 -9v0v0q-13 0 -23 9l-41 42v0v-211v0q0 -14 -9 -23t-23 -9t-23 9t-9 23v211v0l-41 -42v0q-10 -9 -23 -9t-23 9q-9 10 -9 23t9 23l96 96v0q10 9 23 9t23 -9l96 -96v0q9 -10 9 -23t-9 -23v0z" />
</svg>
