<?xml version="1.0" standalone="no"?>
<!DOCTYPE svg PUBLIC "-//W3C//DTD SVG 1.1//EN" "http://www.w3.org/Graphics/SVG/1.1/DTD/svg11.dtd" >
<svg xmlns="http://www.w3.org/2000/svg" xmlns:xlink="http://www.w3.org/1999/xlink" version="1.1" viewBox="-10 -40 532 512">
   <path fill="currentColor"
d="M256 -39q14 0 23 9v0v0q9 9 9 23v32v0h32v0q21 1 30 20q7 19 -7 35l-64 64v0q-10 9 -23 9t-23 -9l-64 -64v0q-14 -16 -6 -35t29 -20h32v0v-32v0q0 -14 9 -23t23 -9v0zM169 354l64 -64l-64 64l64 -64q10 -9 23 -9t23 9l64 64v0q14 16 7 35q-9 19 -30 20h-32v0v32v0
q0 14 -9 23t-23 9t-23 -9t-9 -23v-32v0h-32v0q-21 -1 -30 -20q-7 -19 7 -35v0zM32 185h32h-32h32v-32v0q1 -21 20 -30q19 -7 35 7l64 64v0q9 10 9 23t-9 23l-64 64v0q-16 14 -35 6t-20 -29v-32v0h-32v0q-14 0 -23 -9t-9 -23t9 -23t23 -9v0zM329 240q-9 -10 -9 -23v0v0
q0 -13 9 -23l64 -64v0q16 -14 35 -7q19 9 20 30v32v0h32v0q14 0 23 9t9 23t-9 23t-23 9h-32v0v32v0q-1 21 -20 30q-19 7 -35 -7l-64 -64v0zM256 185q14 0 23 9v0v0q9 9 9 23t-9 23t-23 9t-23 -9t-9 -23t9 -23t23 -9v0z" />
</svg>
