<?xml version="1.0" standalone="no"?>
<!DOCTYPE svg PUBLIC "-//W3C//DTD SVG 1.1//EN" "http://www.w3.org/Graphics/SVG/1.1/DTD/svg11.dtd" >
<svg xmlns="http://www.w3.org/2000/svg" xmlns:xlink="http://www.w3.org/1999/xlink" version="1.1" viewBox="-10 -40 660 512">
   <path fill="currentColor"
d="M48 -39q-20 1 -34 14v0v0q-13 14 -14 34v416v0q1 20 14 34q14 13 34 14h96v0v-80v0q1 -20 14 -34q14 -13 34 -14q20 1 34 14q13 14 14 34v80v0h96v0q20 -1 34 -14q13 -14 14 -34v-416v0q-1 -20 -14 -34q-14 -13 -34 -14h-288v0zM64 201q1 -15 16 -16h32v0q15 1 16 16v32
v0q-1 15 -16 16h-32v0q-15 -1 -16 -16v-32v0zM176 185h32h-32h32q15 1 16 16v32v0q-1 15 -16 16h-32v0q-15 -1 -16 -16v-32v0q1 -15 16 -16v0zM256 201q1 -15 16 -16h32v0q15 1 16 16v32v0q-1 15 -16 16h-32v0q-15 -1 -16 -16v-32v0zM80 57h32h-32h32q15 1 16 16v32v0
q-1 15 -16 16h-32v0q-15 -1 -16 -16v-32v0q1 -15 16 -16v0zM160 73q1 -15 16 -16h32v0q15 1 16 16v32v0q-1 15 -16 16h-32v0q-15 -1 -16 -16v-32v0zM272 57h32h-32h32q15 1 16 16v32v0q-1 15 -16 16h-32v0q-15 -1 -16 -16v-32v0q1 -15 16 -16v0zM448 -39q-14 0 -23 9v0v0
q-9 9 -9 23v480v0h64v0v-320v0h144v0q15 -1 16 -16v-128v0q-1 -15 -16 -16h-144v0q0 -14 -9 -23t-23 -9v0z" />
</svg>
