<?xml version="1.0" standalone="no"?>
<!DOCTYPE svg PUBLIC "-//W3C//DTD SVG 1.1//EN" "http://www.w3.org/Graphics/SVG/1.1/DTD/svg11.dtd" >
<svg xmlns="http://www.w3.org/2000/svg" xmlns:xlink="http://www.w3.org/1999/xlink" version="1.1" viewBox="-10 -40 596 512">
   <path fill="currentColor"
d="M48 -39q-20 1 -34 14v0v0q-13 14 -14 34v416v0q1 20 14 34q14 13 34 14h96v0v-80v0q1 -20 14 -34q14 -13 34 -14q20 1 34 14q13 14 14 34v80v0h89v0q-9 -14 -9 -32v-128v0q2 -37 32 -55v-25v0q1 -47 32 -78v-146v0q-1 -20 -14 -34q-14 -13 -34 -14h-288v0zM64 201
q1 -15 16 -16h32v0q15 1 16 16v32v0q-1 15 -16 16h-32v0q-15 -1 -16 -16v-32v0zM176 185h32h-32h32q15 1 16 16v32v0q-1 15 -16 16h-32v0q-15 -1 -16 -16v-32v0q1 -15 16 -16v0zM256 201q1 -15 16 -16h32v0q15 1 16 16v32v0q-1 15 -16 16h-32v0q-15 -1 -16 -16v-32v0zM80 57
h32h-32h32q15 1 16 16v32v0q-1 15 -16 16h-32v0q-15 -1 -16 -16v-32v0q1 -15 16 -16v0zM160 73q1 -15 16 -16h32v0q15 1 16 16v32v0q-1 15 -16 16h-32v0q-15 -1 -16 -16v-32v0zM272 57h32h-32h32q15 1 16 16v32v0q-1 15 -16 16h-32v0q-15 -1 -16 -16v-32v0q1 -15 16 -16v0z
M464 201q14 0 23 9v0v0q9 9 9 23v48v0h-64v0v-48v0q0 -14 9 -23t23 -9v0zM384 233v48v-48v48q-14 0 -23 9t-9 23v128v0q0 14 9 23t23 9h160v0q14 0 23 -9t9 -23v-128v0q0 -14 -9 -23t-23 -9v-48v0q-1 -34 -23 -57q-23 -22 -57 -23q-34 1 -57 23q-22 23 -23 57v0z" />
</svg>
