<?xml version="1.0" standalone="no"?>
<!DOCTYPE svg PUBLIC "-//W3C//DTD SVG 1.1//EN" "http://www.w3.org/Graphics/SVG/1.1/DTD/svg11.dtd" >
<svg xmlns="http://www.w3.org/2000/svg" xmlns:xlink="http://www.w3.org/1999/xlink" version="1.1" viewBox="-10 -40 597 512">
   <path fill="currentColor"
d="M0 9q1 -20 14 -34v0v0q14 -13 34 -14h288v0q20 1 34 14q13 14 14 34v159v0l-42 17v0h-38h-32q-15 1 -16 16v32v0v24v0v8v0v2v1q1 45 22 101q22 56 77 100q-9 4 -19 4h-96v0v-80v0q-1 -20 -14 -34q-14 -13 -34 -14q-20 1 -34 14q-13 14 -14 34v80v0h-96v0q-20 -1 -34 -14
q-13 -14 -14 -34v-416v0zM80 185q-15 1 -16 16v32v0q1 15 16 16h32v0q15 -1 16 -16v-32v0q-1 -15 -16 -16h-32v0zM160 201v32v-32v32q1 15 16 16h32v0q15 -1 16 -16v-32v0q-1 -15 -16 -16h-32v0q-15 1 -16 16v0zM64 73v32v-32v32q1 15 16 16h32v0q15 -1 16 -16v-32v0
q-1 -15 -16 -16h-32v0q-15 1 -16 16v0zM176 57q-15 1 -16 16v32v0q1 15 16 16h32v0q15 -1 16 -16v-32v0q-1 -15 -16 -16h-32v0zM256 73v32v-32v32q1 15 16 16h32v0q15 -1 16 -16v-32v0q-1 -15 -16 -16h-32v0q-15 1 -16 16v0zM423 187q9 -4 18 0l120 48v0q14 6 15 22
q1 33 -11 74q-11 41 -40 79q-30 38 -84 61q-9 4 -18 0q-54 -23 -84 -61q-29 -38 -40 -79q-12 -41 -11 -74q1 -16 15 -22l120 -48v0zM527 273l-95 -38l95 38l-95 -38v188v0q50 -27 72 -69q21 -41 23 -81v0z" />
</svg>
