<?xml version="1.0" standalone="no"?>
<!DOCTYPE svg PUBLIC "-//W3C//DTD SVG 1.1//EN" "http://www.w3.org/Graphics/SVG/1.1/DTD/svg11.dtd" >
<svg xmlns="http://www.w3.org/2000/svg" xmlns:xlink="http://www.w3.org/1999/xlink" version="1.1" viewBox="-10 -40 660 512">
   <path fill="currentColor"
d="M0 9q1 -20 14 -34v0v0q14 -13 34 -14h288v0q20 1 34 14q13 14 14 34v416v0q-1 20 -14 34q-14 13 -34 14h-96v0v-80v0q-1 -20 -14 -34q-14 -13 -34 -14q-20 1 -34 14q-13 14 -14 34v80v0h-96v0q-20 -1 -34 -14q-13 -14 -14 -34v-416v0zM80 185q-15 1 -16 16v32v0
q1 15 16 16h32v0q15 -1 16 -16v-32v0q-1 -15 -16 -16h-32v0zM160 201v32v-32v32q1 15 16 16h32v0q15 -1 16 -16v-32v0q-1 -15 -16 -16h-32v0q-15 1 -16 16v0zM272 185q-15 1 -16 16v32v0q1 15 16 16h32v0q15 -1 16 -16v-32v0q-1 -15 -16 -16h-32v0zM64 73v32v-32v32
q1 15 16 16h32v0q15 -1 16 -16v-32v0q-1 -15 -16 -16h-32v0q-15 1 -16 16v0zM176 57q-15 1 -16 16v32v0q1 15 16 16h32v0q15 -1 16 -16v-32v0q-1 -15 -16 -16h-32v0zM256 73v32v-32v32q1 15 16 16h32v0q15 -1 16 -16v-32v0q-1 -15 -16 -16h-32v0q-15 1 -16 16v0zM640 153v16
v-16v16q-1 34 -23 57q-23 22 -57 23h-16v0v-16v0q1 -34 23 -57q23 -22 57 -23h16v0zM640 281q-1 34 -23 57v0v0q-23 22 -57 23h-16v0v-16v0q1 -34 23 -57q23 -22 57 -23h16v0v16v0zM640 393q-1 34 -23 57v0v0q-23 22 -57 23h-16v0v-16v0q1 -34 23 -57q23 -22 57 -23h16v0v16
v0zM512 457v16v-16v16h-16v0q-34 -1 -57 -23q-22 -23 -23 -57v-16v0h16v0q34 1 57 23q22 23 23 57v0zM512 361h-16h16h-16q-34 -1 -57 -23q-22 -23 -23 -57v-16v0h16v0q34 1 57 23q22 23 23 57v16v0zM512 233v16v-16v16h-16v0q-34 -1 -57 -23q-22 -23 -23 -57v-16v0h16v0
q34 1 57 23q22 23 23 57v0zM528 -7q22 2 24 24v104v0q-2 22 -24 24q-22 -2 -24 -24v-104v0q2 -22 24 -24v0zM624 57v32v-32v32q-2 22 -24 24q-22 -2 -24 -24v-32v0q2 -22 24 -24q22 2 24 24v0zM456 33q22 2 24 24v32v0q-2 22 -24 24q-22 -2 -24 -24v-32v0q2 -22 24 -24v0z
" />
</svg>
