<?xml version="1.0" standalone="no"?>
<!DOCTYPE svg PUBLIC "-//W3C//DTD SVG 1.1//EN" "http://www.w3.org/Graphics/SVG/1.1/DTD/svg11.dtd" >
<svg xmlns="http://www.w3.org/2000/svg" xmlns:xlink="http://www.w3.org/1999/xlink" version="1.1" viewBox="-10 -40 404 512">
   <path fill="currentColor"
d="M192 -39q-32 1 -56 18v0v0q-24 18 -34 46h-38v0q-27 1 -45 19t-19 45v320v0q1 27 19 45t45 19h256v0q27 -1 45 -19t19 -45v-320v0q-1 -27 -19 -45t-45 -19h-37v0q-11 -28 -35 -46q-24 -17 -56 -18v0zM192 25q14 0 23 9v0v0q9 9 9 23t-9 23t-23 9t-23 -9t-9 -23t9 -23
t23 -9v0zM106 190q6 -17 20 -27v0v0q14 -10 33 -10h58v0q27 1 45 19q17 17 18 44q-1 36 -32 55l-32 18v0q-2 22 -24 24q-22 -2 -24 -24v-13v0q0 -14 12 -21l44 -26v0q8 -4 8 -13q-1 -14 -15 -15h-58v0q-6 0 -8 5v2v0q-10 20 -31 14q-20 -9 -14 -30v-2v0zM160 377
q0 -14 9 -23v0v0q9 -9 23 -9t23 9t9 23t-9 23t-23 9t-23 -9t-9 -23v0z" />
</svg>
