<?xml version="1.0" standalone="no"?>
<!DOCTYPE svg PUBLIC "-//W3C//DTD SVG 1.1//EN" "http://www.w3.org/Graphics/SVG/1.1/DTD/svg11.dtd" >
<svg xmlns="http://www.w3.org/2000/svg" xmlns:xlink="http://www.w3.org/1999/xlink" version="1.1" viewBox="-10 -40 596 512">
   <path fill="currentColor"
d="M224 -39h128h-128h128q14 0 23 9t9 23h75v0q16 1 22 14t-4 26l-21 24v0h-336v0l-21 -24v0q-10 -13 -4 -26t22 -14h75v0q0 -14 9 -23t23 -9v0zM96 89h384h-384h384q14 0 23 9t9 23v124v0q0 20 -12 37l-51 72v0q-3 1 -6 3q-24 17 -51 20h-16v0q-27 -3 -51 -20
q-17 -12 -37 -12t-37 12q-23 16 -50 20h-17v0q-27 -3 -51 -20q-3 -2 -6 -3v0l-51 -72v0q-12 -17 -12 -37v-124v0q0 -14 9 -23t23 -9v0zM128 153v96v-96v96h320v0v-96v0h-320v0zM307 383q35 25 77 26q42 -2 77 -26v0v0q21 -13 40 2q22 18 50 25q13 3 20 14t4 24t-14 20t-24 4
q-38 -10 -58 -25q-45 25 -95 26q-49 -3 -80 -19q-9 -4 -16 -8q-7 4 -16 8q-31 16 -80 19q-50 -1 -94 -26q-21 15 -59 25q-13 3 -24 -4t-14 -20t4 -24t20 -14q28 -7 50 -25q19 -14 40 -2v0v0q35 24 77 26q43 -1 78 -26q18 -12 37 0v0z" />
</svg>
