<?xml version="1.0" standalone="no"?>
<!DOCTYPE svg PUBLIC "-//W3C//DTD SVG 1.1//EN" "http://www.w3.org/Graphics/SVG/1.1/DTD/svg11.dtd" >
<svg xmlns="http://www.w3.org/2000/svg" xmlns:xlink="http://www.w3.org/1999/xlink" version="1.1" viewBox="-10 -40 596 512">
   <path fill="currentColor"
d="M0 25q1 -27 19 -45v0v0q18 -18 45 -19h160v0v128v0q0 14 9 23t23 9h128v0v39v0q-56 16 -92 62q-35 45 -36 107q0 45 20 82t54 61q-5 1 -10 1h-256v0q-27 -1 -45 -19t-19 -45v-384v0zM384 89h-128h128h-128v-128v0l128 128v0zM288 329q0 -39 19 -72v0v0q19 -33 53 -53
q34 -19 72 -19t72 19q34 20 53 53t19 72t-19 72t-53 53q-34 19 -72 19t-72 -19q-34 -20 -53 -53t-19 -72v0zM512 329q-1 -15 -16 -16h-128v0q-15 1 -16 16q1 15 16 16h128v0q15 -1 16 -16v0z" />
</svg>
