<?xml version="1.0" standalone="no"?>
<!DOCTYPE svg PUBLIC "-//W3C//DTD SVG 1.1//EN" "http://www.w3.org/Graphics/SVG/1.1/DTD/svg11.dtd" >
<svg xmlns="http://www.w3.org/2000/svg" xmlns:xlink="http://www.w3.org/1999/xlink" version="1.1" viewBox="-10 -40 660 512">
   <path fill="currentColor"
d="M320 -39q23 1 35 20q10 20 0 40q-12 19 -35 20q-23 -1 -35 -20q-10 -20 0 -40q12 -19 35 -20v0zM365 125l11 89l-11 -89l11 89q0 22 -21 27q-22 0 -27 -21l-4 -35v0h-8v0l-4 35v0q-5 22 -27 21q-22 -5 -21 -27l11 -89v0l-19 17v0q-19 13 -34 -3q-13 -18 3 -34l27 -23v0
q30 -25 68 -25t68 25l28 23v0q15 16 2 34q-15 16 -33 3l-20 -17v0zM40 25q17 0 28 12v0v0q12 11 12 28v40v0v80v0v40v0q0 27 19 46l51 51v0q14 12 31 3q10 -7 11 -18t-8 -20l-15 -15v0l-32 -32v0q-9 -10 -9 -23t9 -23q10 -9 23 -9t23 9l32 32v0l15 16v0v0v0l25 25v0
q32 33 33 79v79v0q-1 20 -14 34q-14 13 -34 14h-67v0q-26 0 -45 -19l-100 -100v0q-27 -28 -28 -67v-102v0v-64v0v-56v0q0 -17 12 -28q11 -12 28 -12v0zM600 25q17 0 28 12v0v0q12 11 12 28v56v0v64v0v102v0q-1 39 -28 67l-100 100v0q-19 19 -45 19h-67v0q-20 -1 -34 -14
q-13 -14 -14 -34v-79v0q1 -46 33 -79l25 -25v0v0v0l15 -16v0l32 -32v0q10 -9 23 -9t23 9q9 10 9 23t-9 23l-32 32v0l-16 15v0q-8 9 -7 20t11 18q17 9 31 -3l51 -51v0q19 -19 19 -46v-40v0v-80v0v-40v0q0 -17 12 -28q11 -12 28 -12v0z" />
</svg>
