<?xml version="1.0" standalone="no"?>
<!DOCTYPE svg PUBLIC "-//W3C//DTD SVG 1.1//EN" "http://www.w3.org/Graphics/SVG/1.1/DTD/svg11.dtd" >
<svg xmlns="http://www.w3.org/2000/svg" xmlns:xlink="http://www.w3.org/1999/xlink" version="1.1" viewBox="-10 -40 660 512">
   <path fill="currentColor"
d="M320 -39q35 0 64 17v0v0q29 17 47 47q17 30 17 64t-17 64q-18 30 -47 47t-64 17t-64 -17t-47 -47q-17 -30 -17 -64t17 -64q18 -30 47 -47t64 -17v0zM40 25q17 0 28 12v0v0q12 11 12 28v40v0v80v0v40v0q0 27 19 46l51 51v0q14 12 31 3q10 -7 11 -18t-8 -20l-15 -15v0
l-32 -32v0q-9 -10 -9 -23t9 -23q10 -9 23 -9t23 9l32 32v0l15 16v0v0v0l25 25v0q32 33 33 79v79v0q-1 20 -14 34q-14 13 -34 14h-67v0q-26 0 -45 -19l-100 -100v0q-27 -28 -28 -67v-102v0v-64v0v-56v0q0 -17 12 -28q11 -12 28 -12v0zM600 25q17 0 28 12v0v0q12 11 12 28v56
v0v64v0v102v0q-1 39 -28 67l-100 100v0q-19 19 -45 19h-67v0q-20 -1 -34 -14q-13 -14 -14 -34v-79v0q1 -46 33 -79l25 -25v0v0v0l15 -16v0l32 -32v0q10 -9 23 -9t23 9q9 10 9 23t-9 23l-32 32v0l-16 15v0q-8 9 -7 20t11 18q17 9 31 -3l51 -51v0q19 -19 19 -46v-40v0v-80v0
v-40v0q0 -17 12 -28q11 -12 28 -12v0z" />
</svg>
