<?xml version="1.0" standalone="no"?>
<!DOCTYPE svg PUBLIC "-//W3C//DTD SVG 1.1//EN" "http://www.w3.org/Graphics/SVG/1.1/DTD/svg11.dtd" >
<svg xmlns="http://www.w3.org/2000/svg" xmlns:xlink="http://www.w3.org/1999/xlink" version="1.1" viewBox="-10 -40 661 512">
   <path fill="currentColor"
d="M288 311v2v-2v2h-32v0q-14 0 -23 9t-9 23v64v0v24v0q0 17 -12 28q-11 12 -28 12h-24h-32h-2h-2h-4h-16v0q-17 0 -28 -12q-12 -11 -12 -28v-112v0v-3v-69v0h-32v0q-14 -1 -23 -10t-9 -22q0 -14 10 -24l256 -224v0q11 -9 22 -8q12 0 21 7l138 121v0q-19 -1 -34 12
q-54 49 -88 103q-16 25 -26 53q-11 27 -11 54v0zM480 473q-68 -2 -113 -47v0v0q-45 -45 -47 -113q3 -58 37 -105q34 -48 70 -74q8 -6 17 -6q12 0 22 9l46 46v0l11 -11v0q10 -9 21 -10q12 0 22 9q43 44 59 81t15 61q-2 68 -47 113t-113 47v0zM544 361q-2 -28 -21 -52v0v0
q-19 -24 -34 -36q-9 -7 -18 0q-15 12 -34 36t-21 52q1 27 19 45q18 19 45 19t45 -19q18 -18 19 -45v0z" />
</svg>
