<?xml version="1.0" standalone="no"?>
<!DOCTYPE svg PUBLIC "-//W3C//DTD SVG 1.1//EN" "http://www.w3.org/Graphics/SVG/1.1/DTD/svg11.dtd" >
<svg xmlns="http://www.w3.org/2000/svg" xmlns:xlink="http://www.w3.org/1999/xlink" version="1.1" viewBox="-10 -40 650 512">
   <path fill="currentColor"
d="M288 105q0 -39 -19 -72v0v0q-19 -33 -53 -53q-34 -19 -72 -19t-72 19q-34 20 -53 53t-19 72t19 72t53 53q34 19 72 19t72 -19q34 -20 53 -53t19 -72v0zM141 38q11 -10 22 0l56 56v0q10 11 0 22l-56 56v0q-11 10 -22 0q-10 -11 0 -22l28 -29v0h-89v0q-15 -1 -16 -16
q1 -15 16 -16h89v0l-28 -29v0q-10 -11 0 -22v0zM320 105q0 43 -19 80v0v0q-19 36 -51 60q18 -5 33 -16q17 -12 37 -12t37 12q29 20 59 20t59 -20q19 -12 40 -12q21 1 38 15q4 3 7 5v-84v0h16v0q22 -1 30 -22q6 -22 -11 -36l-176 -128v0q-19 -12 -38 0l-80 58v0q19 37 19 80
v0zM339 271q-19 -12 -37 0q-35 25 -78 26q-42 -2 -77 -26v0v0q-21 -13 -40 2q-22 18 -50 25q-13 3 -20 14t-4 24t14 20t24 4q38 -10 59 -25q44 25 94 26q49 -3 80 -19q9 -4 16 -8q7 4 16 8q31 16 80 19q50 -1 95 -26q20 15 58 25q13 3 24 -4t14 -20t-4 -24t-20 -14
q-28 -7 -50 -25q-19 -15 -40 -2v0v0q-35 24 -77 26q-42 -1 -77 -26v0zM339 383q-19 -12 -37 0q-35 25 -78 26q-42 -2 -77 -26v0v0q-21 -13 -40 2q-22 18 -50 25q-13 3 -20 14t-4 24t14 20t24 4q38 -10 59 -25q44 25 94 26q49 -3 80 -19q9 -4 16 -8q7 4 16 8q31 16 80 19
q50 -1 95 -26q20 15 58 25q13 3 24 -4t14 -20t-4 -24t-20 -14q-28 -7 -50 -25q-19 -14 -40 -2v0v0q-35 24 -77 26q-42 -1 -77 -26v0z" />
</svg>
