<?xml version="1.0" standalone="no"?>
<!DOCTYPE svg PUBLIC "-//W3C//DTD SVG 1.1//EN" "http://www.w3.org/Graphics/SVG/1.1/DTD/svg11.dtd" >
<svg xmlns="http://www.w3.org/2000/svg" xmlns:xlink="http://www.w3.org/1999/xlink" version="1.1" viewBox="-11 0 661 512">
   <path fill="currentColor"
d="M480 -39q14 0 23 9v0v0q9 9 9 23h112v0q15 1 16 16v128v0q-1 15 -16 16h-112v0v320v0h-64v0v-320v0v-160v0q0 -14 9 -23t23 -9v0zM277 1l139 119l-139 -119l139 119v353v0h1v0v0v0h-321v0q-14 0 -23 -9t-9 -23v-192v0h-32v0q-22 -1 -30 -21q-7 -21 9 -35l224 -192v0
q21 -16 42 0v0zM224 169v48v-48v48h-48v0q-15 1 -16 16v32v0q1 15 16 16h48v0v48v0q1 15 16 16h32v0q15 -1 16 -16v-48v0h48v0q15 -1 16 -16v-32v0q-1 -15 -16 -16h-48v0v-48v0q-1 -15 -16 -16h-32v0q-15 1 -16 16v0z" />
</svg>
