<?xml version="1.0" standalone="no"?>
<!DOCTYPE svg PUBLIC "-//W3C//DTD SVG 1.1//EN" "http://www.w3.org/Graphics/SVG/1.1/DTD/svg11.dtd" >
<svg xmlns="http://www.w3.org/2000/svg" xmlns:xlink="http://www.w3.org/1999/xlink" version="1.1" viewBox="-10 -40 532 512">
   <path fill="currentColor"
d="M216 460q17 -21 40 -52v-95v0q2 -37 32 -55v-25v0q1 -43 27 -73t67 -37q-13 -71 -65 -116q-52 -44 -125 -46q-82 2 -136 56t-56 136q2 45 32 104q31 59 70 114q39 56 66 89q10 12 24 12t24 -12v0zM192 89q36 1 55 32q18 32 0 64q-19 31 -55 32q-36 -1 -55 -32
q-18 -32 0 -64q19 -31 55 -32v0zM400 201q14 0 23 9v0v0q9 9 9 23v48v0h-64v0v-48v0q0 -14 9 -23t23 -9v0zM320 233v48v-48v48q-14 0 -23 9t-9 23v128v0q0 14 9 23t23 9h160v0q14 0 23 -9t9 -23v-128v0q0 -14 -9 -23t-23 -9v-48v0q-1 -34 -23 -57q-23 -22 -57 -23
q-34 1 -57 23q-22 23 -23 57v0z" />
</svg>
