<?xml version="1.0" standalone="no"?>
<!DOCTYPE svg PUBLIC "-//W3C//DTD SVG 1.1//EN" "http://www.w3.org/Graphics/SVG/1.1/DTD/svg11.dtd" >
<svg xmlns="http://www.w3.org/2000/svg" xmlns:xlink="http://www.w3.org/1999/xlink" version="1.1" viewBox="-11 0 597 512">
   <path fill="currentColor"
d="M312 -7q-22 2 -24 24q2 22 24 24h16v0q76 2 129 47q54 46 68 118q-14 -5 -29 -5h-64v0l-42 -97v0q-6 -13 -19 -15q-14 -1 -22 10l-41 55v0l-22 -50v0q-6 -13 -19 -15q-13 -1 -22 9l-240 304v0q-12 19 4 34q19 12 34 -4l79 -101v0l43 17v0l-40 55v0q-12 19 5 33
q19 12 33 -5l52 -70v0h75v0l-30 42v0q-10 19 6 34q20 11 34 -6l48 -70v0h80v0l39 68v0q13 18 33 9q18 -13 9 -33l-25 -44v0h12v0q34 -1 56 -23q23 -23 24 -57v0v0v-40v0q-1 -69 -34 -125t-89 -89t-125 -34h-16v0zM363 161l17 40l-17 -40l17 40h-47v0l30 -40v0zM275 199l-2 2
l2 -2l-2 2h-48v0l33 -41v0l17 39v0zM89 201q-24 1 -40 17v0v0q-16 16 -17 40q0 24 17 40l78 -97v0h-38v0zM496 249q15 1 16 16q-1 15 -16 16q-15 -1 -16 -16q1 -15 16 -16v0z" />
</svg>
