<?xml version="1.0" standalone="no"?>
<!DOCTYPE svg PUBLIC "-//W3C//DTD SVG 1.1//EN" "http://www.w3.org/Graphics/SVG/1.1/DTD/svg11.dtd" >
<svg xmlns="http://www.w3.org/2000/svg" xmlns:xlink="http://www.w3.org/1999/xlink" version="1.1" viewBox="-10 -40 660 512">
   <path fill="currentColor"
d="M535 2q-14 -17 0 -34q17 -14 34 0l64 64v0q7 7 7 17t-7 17l-64 64v0q-17 14 -34 0q-14 -17 0 -34l23 -23v0h-174v0q-22 -2 -24 -24q2 -22 24 -24h174v0l-23 -23v0zM105 338l-23 23l23 -23l-23 23h174v0q22 2 24 24q-2 22 -24 24h-174v0l23 23v0q14 17 0 34q-17 14 -34 0
l-64 -64v0q-7 -7 -7 -17t7 -17l64 -64v0q17 -14 34 0q14 17 0 34v0zM96 25h242h-242h242q-6 11 -6 24q1 22 15 37q15 14 37 15h117v0q-6 27 14 49q16 15 37 15t37 -15l19 -19v0v214v0q-1 27 -19 45t-45 19h-242v0q6 -11 6 -24q-1 -22 -15 -37q-15 -14 -37 -15h-117v0
q6 -27 -14 -49q-16 -15 -37 -15t-37 15l-19 20v0v-215v0q1 -27 19 -45t45 -19v0zM160 89h-64h64h-64v64v0q27 -1 45 -19t19 -45v0zM544 281q-27 1 -45 19v0v0q-18 18 -19 45h64v0v-64v0zM320 313q26 0 48 -13v0v0q22 -13 35 -35q13 -23 13 -48t-13 -48q-13 -22 -35 -35
t-48 -13t-48 13t-35 35q-13 23 -13 48t13 48q13 22 35 35t48 13v0z" />
</svg>
