<?xml version="1.0" standalone="no"?>
<!DOCTYPE svg PUBLIC "-//W3C//DTD SVG 1.1//EN" "http://www.w3.org/Graphics/SVG/1.1/DTD/svg11.dtd" >
<svg xmlns="http://www.w3.org/2000/svg" xmlns:xlink="http://www.w3.org/1999/xlink" version="1.1" viewBox="-10 -40 532 512">
   <path fill="currentColor"
d="M176 -39q34 1 57 23v0v0q22 23 23 57q-1 15 -16 16q-34 -1 -57 -23q-22 -23 -23 -57q1 -15 16 -16v0zM56 -23h48h-48h48q22 2 24 24q-2 22 -24 24h-48v0q-22 -2 -24 -24q2 -22 24 -24v0zM24 49h112h-112h112q22 2 24 24q-2 22 -24 24h-112v0q-22 -2 -24 -24q2 -22 24 -24
v0zM32 145q2 -22 24 -24h48v0q22 2 24 24q-2 22 -24 24h-48v0q-22 -2 -24 -24v0zM272 -23q1 -15 16 -16q34 1 57 23q22 23 23 57q-1 15 -16 16q-34 -1 -57 -23q-22 -23 -23 -57v0zM400 -39q34 1 57 23v0v0q22 23 23 57q-1 15 -16 16q-34 -1 -57 -23q-22 -23 -23 -57
q1 -15 16 -16v0zM480 105q-1 34 -23 57v0v0q-23 22 -57 23q-15 -1 -16 -16q1 -34 23 -57q23 -22 57 -23q15 1 16 16v0zM352 89q15 1 16 16q-1 34 -23 57q-23 22 -57 23q-15 -1 -16 -16q1 -34 23 -57q23 -22 57 -23v0zM256 105q-1 34 -23 57v0v0q-23 22 -57 23
q-15 -1 -16 -16q1 -34 23 -57q23 -22 57 -23q15 1 16 16v0zM0 265q1 -20 14 -34v0v0q14 -13 34 -14h416v0q20 1 34 14q13 14 14 34v160v0q-1 20 -14 34q-14 13 -34 14h-416v0q-20 -1 -34 -14q-13 -14 -14 -34v-160v0zM48 377v48v-48v48h48v0q-1 -20 -14 -34q-14 -13 -34 -14
v0zM96 265h-48h48h-48v48v0q20 -1 34 -14q13 -14 14 -34v0zM464 377q-20 1 -34 14v0v0q-13 14 -14 34h48v0v-48v0zM416 265q1 20 14 34v0v0q14 13 34 14v-48v0h-48v0zM320 345q-1 -36 -32 -55q-32 -18 -64 0q-31 19 -32 55q1 36 32 55q32 18 64 0q31 -19 32 -55v0z" />
</svg>
