<?xml version="1.0" standalone="no"?>
<!DOCTYPE svg PUBLIC "-//W3C//DTD SVG 1.1//EN" "http://www.w3.org/Graphics/SVG/1.1/DTD/svg11.dtd" >
<svg xmlns="http://www.w3.org/2000/svg" xmlns:xlink="http://www.w3.org/1999/xlink" version="1.1" viewBox="-10 -40 532 512">
   <path fill="currentColor"
d="M349 433q17 14 37 4q58 -34 91 -92q34 -57 35 -128q-1 -71 -35 -128q-33 -58 -91 -92q-12 -6 -24 -3t-19 15t-4 24q4 13 15 20q43 25 68 68t26 96q0 47 -20 86t-55 66l-160 -144v0q-10 -9 -23 -8q-12 1 -22 11q-9 10 -8 23q1 12 11 22l178 160v0zM163 1q-17 -14 -37 -4
q-58 34 -91 92q-34 57 -35 128q1 71 35 128q33 58 91 92q12 6 24 3t19 -15t4 -24q-4 -13 -15 -20q-43 -25 -68 -68t-26 -96q0 -47 20 -86t55 -66l160 144v0q10 9 23 8q12 -1 22 -11q9 -10 8 -23q-1 -12 -11 -22l-178 -160v0z" />
</svg>
