<?xml version="1.0" standalone="no"?>
<!DOCTYPE svg PUBLIC "-//W3C//DTD SVG 1.1//EN" "http://www.w3.org/Graphics/SVG/1.1/DTD/svg11.dtd" >
<svg xmlns="http://www.w3.org/2000/svg" xmlns:xlink="http://www.w3.org/1999/xlink" version="1.1" viewBox="-10 -40 596 512">
   <path fill="currentColor"
d="M528 22q-9 -32 -37 -48v0v0q-28 -16 -61 -8l-15 4v0q-13 4 -20 15q-6 11 -3 24l25 91v0l-108 29v0l-7 -19v0q-8 -20 -30 -21q-22 1 -30 21l-14 39v0l-132 35v0v-39v0q-2 -22 -24 -24q-22 2 -24 24v264v0h-16v0q-14 0 -23 9t-9 23t9 23t23 9h512v0q14 0 23 -9t9 -23
t-9 -23t-23 -9h-137v0l-67 -190v0l-62 16v0l27 78v0h-66v0l26 -75v0l-75 19v0l-53 152v0h-41v0v-159v0l337 -88v0l26 94v0q3 13 15 20q11 6 24 3l15 -4v0q33 -10 49 -37q16 -28 8 -61l-42 -155v0zM205 409l11 -32l-11 32l11 -32h112v0l11 32v0h-134v0z" />
</svg>
