<?xml version="1.0" standalone="no"?>
<!DOCTYPE svg PUBLIC "-//W3C//DTD SVG 1.1//EN" "http://www.w3.org/Graphics/SVG/1.1/DTD/svg11.dtd" >
<svg xmlns="http://www.w3.org/2000/svg" xmlns:xlink="http://www.w3.org/1999/xlink" version="1.1" viewBox="-10 -40 597 512">
   <path fill="currentColor"
d="M80 57q27 -1 42 -24q12 -24 0 -48q-15 -23 -42 -24q-27 1 -42 24q-12 24 0 48q15 23 42 24v0zM64 89q-27 1 -45 19v0v0q-18 18 -19 45v128v0q0 14 9 23t23 9q15 0 24 -11l24 144v0q3 14 13 21q11 7 24 6q14 -3 21 -13q7 -11 6 -24l-21 -123v0h16v0l30 135v0q3 13 14 20
t24 4t20 -14t4 -24l-57 -258v0l116 54v0h2v0q13 6 26 0q5 -3 9 -7q5 -5 7 -11v-1v0l3 -8v0q9 -26 35 -38l8 -4v0h1t2 -1l-17 64v0q-8 33 14 59l71 78v0l22 88v0q4 13 15 19q11 7 24 4q13 -4 20 -15q6 -11 3 -24l-23 -92v0q-3 -12 -11 -21l-50 -54v0l20 -65v0l9 23v0
q7 16 23 24l27 14v0q12 5 24 1t19 -16q6 -12 2 -24t-17 -19l-21 -10v0l-15 -37v0q-14 -31 -41 -49q-27 -19 -61 -19q-35 0 -66 14l-8 4v0q-38 17 -58 51l-131 -60v0q-19 -9 -40 -9h-53v0zM464 57q27 -1 42 -24q12 -24 0 -48q-15 -23 -42 -24q-27 1 -42 24q-12 24 0 48
q15 23 42 24v0zM350 297l-25 62l25 -62l-25 62l-60 59v0q-9 10 -9 23t9 23q10 9 23 9t23 -9l61 -62v0q7 -7 11 -16l14 -36v0l-40 -45v0q-4 -4 -7 -8v0z" />
</svg>
