<?xml version="1.0" standalone="no"?>
<!DOCTYPE svg PUBLIC "-//W3C//DTD SVG 1.1//EN" "http://www.w3.org/Graphics/SVG/1.1/DTD/svg11.dtd" >
<svg xmlns="http://www.w3.org/2000/svg" xmlns:xlink="http://www.w3.org/1999/xlink" version="1.1" viewBox="-10 -40 586 512">
   <path fill="currentColor"
d="M488 20q-8 31 -32 50v0v0q-24 18 -56 19q-32 -1 -56 -19q-24 -19 -32 -50l-9 -35v0q-4 -13 -15 -19q-10 -7 -24 -4q-13 4 -19 15q-7 10 -4 24l9 35v0q19 68 78 99v306v0q0 14 9 23t23 9t23 -9t9 -23v-128v0h16v0v128v0q0 14 9 23t23 9t23 -9t9 -23v-306v0q59 -31 78 -99
l9 -35v0q3 -13 -4 -24q-6 -11 -19 -15q-14 -3 -25 4q-10 6 -14 19l-9 35v0zM400 57q27 -1 42 -24q12 -24 0 -48q-15 -23 -42 -24q-27 1 -42 24q-12 24 0 48q15 23 42 24v0zM80 57q27 -1 42 -24q12 -24 0 -48q-15 -23 -42 -24q-27 1 -42 24q-12 24 0 48q15 23 42 24v0zM72 89
q-27 1 -45 19v0v0q-18 18 -19 45v96v0v1v0v191v0q0 14 9 23t23 9t23 -9t9 -23v-128v0h16v0v128v0q0 14 9 23t23 9t23 -9t9 -23v-227v0l13 20v0q10 15 27 15h48v0q14 0 23 -9t9 -23t-9 -23t-23 -9h-30v0l-38 -59v0q-24 -36 -67 -37h-33v0z" />
</svg>
