<?xml version="1.0" standalone="no"?>
<!DOCTYPE svg PUBLIC "-//W3C//DTD SVG 1.1//EN" "http://www.w3.org/Graphics/SVG/1.1/DTD/svg11.dtd" >
<svg xmlns="http://www.w3.org/2000/svg" xmlns:xlink="http://www.w3.org/1999/xlink" version="1.1" viewBox="-10 -40 660 512">
   <path fill="currentColor"
d="M336 -35l288 160l-288 -160l288 160q11 7 15 19q3 12 -3 25q-7 11 -19 15q-13 3 -25 -3l-272 -151v0l-272 151v0q-13 6 -25 3q-12 -4 -19 -15q-6 -12 -3 -25q4 -12 15 -19l289 -160v0q15 -8 31 0v0zM320 121q23 1 35 20q10 20 0 40q-12 19 -35 20q-23 -1 -35 -20
q-10 -20 0 -40q12 -19 35 -20v0zM144 217q23 1 35 20q10 20 0 40q-12 19 -35 20q-23 -1 -35 -20q-10 -20 0 -40q12 -19 35 -20v0zM456 257q1 -23 20 -35q20 -10 40 0q19 12 20 35q-1 23 -20 35q-20 10 -40 0q-19 -12 -20 -35v0zM227 452l-27 -49l27 49l-27 -49v38v0
q0 14 -9 23t-23 9h-48v0q-14 0 -23 -9t-9 -23v-38v0l-27 49v0q-12 19 -32 10q-19 -12 -10 -32l38 -71v0q12 -21 32 -33q21 -13 45 -13h20v0q25 0 45 13l34 -63v0q12 -21 32 -33q21 -13 45 -13h20v0q24 0 45 13q20 12 32 33l34 63v0q20 -13 45 -13h20v0q24 0 45 13
q20 12 32 33l38 71v0q9 20 -10 32q-20 9 -32 -10l-27 -49v0v38v0q0 14 -9 23t-23 9h-48v0q-14 0 -23 -9t-9 -23v-38v0l-27 49v0q-12 19 -32 10q-19 -12 -10 -32l36 -68v0q-2 -2 -4 -6l-27 -49v0v54v0q0 14 -9 23t-23 9h-48v0q-14 0 -23 -9t-9 -23v-54v0l-27 49v0q-2 4 -4 6
l36 68v0q9 20 -10 32q-20 9 -32 -10v0z" />
</svg>
