<?xml version="1.0" standalone="no"?>
<!DOCTYPE svg PUBLIC "-//W3C//DTD SVG 1.1//EN" "http://www.w3.org/Graphics/SVG/1.1/DTD/svg11.dtd" >
<svg xmlns="http://www.w3.org/2000/svg" xmlns:xlink="http://www.w3.org/1999/xlink" version="1.1" viewBox="-10 -40 596 512">
   <path fill="currentColor"
d="M112 9q1 -27 24 -42q24 -12 48 0q23 15 24 42q-1 27 -24 42q-24 12 -48 0q-23 -15 -24 -42v0zM152 313v128v-128v128q0 14 -9 23t-23 9t-23 -9t-9 -23v-223v0l-29 48v0q-7 11 -19 14q-13 3 -24 -4q-12 -7 -15 -19q-3 -13 4 -24l58 -97v0q13 -22 35 -35q22 -12 47 -12h30
v0q26 0 47 12q22 13 35 35l45 74v0q-24 27 -36 62q-3 -3 -5 -7l-29 -47v0v223v0q0 14 -9 23t-23 9t-23 -9t-9 -23v-128v0h-16v0zM432 185q39 0 72 19v0v0q33 19 53 53q19 34 19 72t-19 72q-20 34 -53 53t-72 19t-72 -19t-53 -53q-19 -34 -19 -72t19 -72q20 -34 53 -53
t72 -19v0zM491 292q10 -11 0 -22q-11 -10 -22 0l-37 36v0l-37 -36v0q-11 -10 -22 0q-10 11 0 22l36 37v0l-36 37v0q-10 11 0 22q11 10 22 0l37 -36v0l37 36v0q11 10 22 0q10 -11 0 -22l-36 -37v0l36 -37v0z" />
</svg>
