<?xml version="1.0" standalone="no"?>
<!DOCTYPE svg PUBLIC "-//W3C//DTD SVG 1.1//EN" "http://www.w3.org/Graphics/SVG/1.1/DTD/svg11.dtd" >
<svg xmlns="http://www.w3.org/2000/svg" xmlns:xlink="http://www.w3.org/1999/xlink" version="1.1" viewBox="-10 -40 522 512">
   <path fill="currentColor"
d="M160 0q2 -21 23 -25l152 -13v0q15 1 17 16v31v0q-1 15 -16 16h-151v0q-23 -2 -25 -25v0zM178 57h156h-156h156q2 8 2 16q-1 34 -23 57q-23 22 -57 23q-34 -1 -57 -23q-22 -23 -23 -57q0 -8 2 -16v0zM406 421l-54 -90l54 90l-54 -90v110v0v4v0l-174 -249v0q25 -11 53 -11
h50v0q24 0 46 8l95 -164v0q-12 -9 -6 -22q8 -12 22 -6l14 8v0l14 8v0q12 8 6 22l-56 96v0l2 1v0q11 7 15 19q3 13 -4 24l-36 64v0q3 4 5 9l76 129v0q9 14 5 30q-4 15 -19 24t-30 5t-24 -19v0zM320 473h-128h128h-128q-14 0 -23 -9t-9 -23v-110v0l-54 90v0q-9 15 -24 19
q-16 4 -30 -5q-15 -9 -19 -24q-4 -16 5 -30l76 -129v0q14 -24 36 -40l181 259v0q-5 2 -11 2v0zM296 281q22 -2 24 -24q-2 -22 -24 -24q-22 2 -24 24q2 22 24 24v0z" />
</svg>
