<?xml version="1.0" standalone="no"?>
<!DOCTYPE svg PUBLIC "-//W3C//DTD SVG 1.1//EN" "http://www.w3.org/Graphics/SVG/1.1/DTD/svg11.dtd" >
<svg xmlns="http://www.w3.org/2000/svg" xmlns:xlink="http://www.w3.org/1999/xlink" version="1.1" viewBox="-10 -40 596 512">
   <path fill="currentColor"
d="M96 -39q-14 0 -23 9v0v0q-9 9 -9 23v96v0h64v0v-96v0q0 -14 -9 -23t-23 -9v0zM288 -39q-14 0 -23 9v0v0q-9 9 -9 23v96v0h64v0v-96v0q0 -14 -9 -23t-23 -9v0zM32 121q-14 0 -23 9v0v0q-9 9 -9 23t9 23t23 9v32v0q1 59 37 102q35 43 91 55v67v0q0 14 9 23t23 9t23 -9
t9 -23v-67v0q19 -4 35 -12q-3 -16 -3 -33q1 -61 36 -107q35 -45 91 -62q1 -4 1 -7q0 -14 -9 -23t-23 -9h-320v0zM432 473q39 0 72 -19v0v0q33 -19 53 -53q19 -34 19 -72t-19 -72q-20 -34 -53 -53t-72 -19t-72 19t-53 53q-19 34 -19 72t19 72q20 34 53 53t72 19v0zM480 248
q7 6 3 15l-31 54v0h36v0q8 0 11 8t-4 14l-96 72v0q-7 5 -15 -1q-7 -7 -3 -15l31 -54v0h-36v0q-8 0 -11 -8t4 -14l96 -72v0q7 -5 15 1v0z" />
</svg>
