<?xml version="1.0" standalone="no"?>
<!DOCTYPE svg PUBLIC "-//W3C//DTD SVG 1.1//EN" "http://www.w3.org/Graphics/SVG/1.1/DTD/svg11.dtd" >
<svg xmlns="http://www.w3.org/2000/svg" xmlns:xlink="http://www.w3.org/1999/xlink" version="1.1" viewBox="-10 -40 660 512">
   <path fill="currentColor"
d="M352 -39h256h-256h256q14 0 23 9t9 23v448v0q0 14 -9 23t-23 9h-256v0q-14 0 -23 -9t-9 -23v-448v0q0 -14 9 -23t23 -9v0zM480 161q-22 2 -24 24v64v0q2 22 24 24q22 -2 24 -24v-64v0q-2 -22 -24 -24v0zM504 345q-2 -22 -24 -24q-22 2 -24 24v64v0q2 22 24 24
q22 -2 24 -24v-64v0zM480 1q-22 2 -24 24v64v0q2 22 24 24q22 -2 24 -24v-64v0q-2 -22 -24 -24v0zM32 57h256h-256h256v64v0h-40v0v64v0h40v0v96v0q-41 1 -68 28t-28 68v64v0q0 14 -9 23t-23 9h-32v0q-14 0 -23 -9t-9 -23v-64v0q-1 -41 -28 -68t-68 -28v-96v0h72v0v-64v0
h-40v0q-14 0 -23 -9t-9 -23t9 -23t23 -9v0zM200 121h-80h80h-80v64v0h80v0v-64v0z" />
</svg>
