<?xml version="1.0" standalone="no"?>
<!DOCTYPE svg PUBLIC "-//W3C//DTD SVG 1.1//EN" "http://www.w3.org/Graphics/SVG/1.1/DTD/svg11.dtd" >
<svg xmlns="http://www.w3.org/2000/svg" xmlns:xlink="http://www.w3.org/1999/xlink" version="1.1" viewBox="-10 -40 660 512">
   <path fill="currentColor"
d="M213 -7h75h-75h75v64v0q0 14 9 23t23 9t23 -9t9 -23v-64v0h75v0q21 0 37 12q16 11 23 31l43 120v0q-17 -3 -34 -3q-45 0 -82 20q-38 20 -62 55v-43v0q0 -14 -9 -23t-23 -9t-23 9t-9 23v64v0q0 14 9 23t23 9q3 0 7 -1q-7 24 -7 49q0 8 1 16h-1v0q-14 0 -23 9t-9 23v64v0
h-201v0q-24 -1 -39 -16t-16 -39q0 -9 3 -18l118 -332v0q7 -20 23 -31q17 -12 37 -12v0zM496 185q39 0 72 19v0v0q33 19 53 53q19 34 19 72t-19 72q-20 34 -53 53t-72 19t-72 -19t-53 -53q-19 -34 -19 -72t19 -72q20 -34 53 -53t72 -19v0zM496 425q22 -2 24 -24
q-2 -22 -24 -24q-22 2 -24 24q2 22 24 24v0zM496 233q-15 1 -16 16v80v0q1 15 16 16q15 -1 16 -16v-80v0q-1 -15 -16 -16v0z" />
</svg>
