<?xml version="1.0" standalone="no"?>
<!DOCTYPE svg PUBLIC "-//W3C//DTD SVG 1.1//EN" "http://www.w3.org/Graphics/SVG/1.1/DTD/svg11.dtd" >
<svg xmlns="http://www.w3.org/2000/svg" xmlns:xlink="http://www.w3.org/1999/xlink" version="1.1" viewBox="-10 -40 660 512">
   <path fill="currentColor"
d="M338 -34q-18 -10 -36 0l-136 91v0h-118v0q-20 1 -34 14q-13 14 -14 34v320v0q1 20 14 34q14 13 34 14h272v0v0v0h-64v0v-96v0q1 -27 19 -45t45 -19v0v0h1v0q6 -58 42 -99q-19 11 -43 11q-37 -1 -62 -26t-26 -62q1 -37 26 -62t62 -26q37 1 62 26t26 62q0 28 -15 49
q44 -32 103 -33q45 0 82 20q38 20 62 55v-123v0q-1 -20 -14 -34q-14 -13 -34 -14h-118v0l-136 -91v0zM96 153h32h-32h32q15 1 16 16v64v0q-1 15 -16 16h-32v0q-15 -1 -16 -16v-64v0q1 -15 16 -16v0zM96 281h32h-32h32q15 1 16 16v64v0q-1 15 -16 16h-32v0q-15 -1 -16 -16
v-64v0q1 -15 16 -16v0zM320 89q-15 1 -16 16v32v0q1 15 16 16h32v0q15 -1 16 -16q-1 -15 -16 -16h-16v0v-16v0q-1 -15 -16 -16v0zM496 473q39 0 72 -19v0v0q33 -19 53 -53q19 -34 19 -72t-19 -72q-20 -34 -53 -53t-72 -19t-72 19t-53 53q-19 34 -19 72t19 72q20 34 53 53
t72 19v0zM496 377q22 2 24 24q-2 22 -24 24q-22 -2 -24 -24q2 -22 24 -24v0zM496 233q15 1 16 16v80v0q-1 15 -16 16q-15 -1 -16 -16v-80v0q1 -15 16 -16v0z" />
</svg>
