<?xml version="1.0" standalone="no"?>
<!DOCTYPE svg PUBLIC "-//W3C//DTD SVG 1.1//EN" "http://www.w3.org/Graphics/SVG/1.1/DTD/svg11.dtd" >
<svg xmlns="http://www.w3.org/2000/svg" xmlns:xlink="http://www.w3.org/1999/xlink" version="1.1" viewBox="-10 -40 596 512">
   <path fill="currentColor"
d="M288 -39h112h-112h112q15 1 16 16v64v0q-1 15 -16 16h-79v0l89 64v0h102v0q27 1 45 19t19 45v224v0q-1 27 -19 45t-45 19h-176v0v-112v0q-1 -20 -14 -34q-14 -13 -34 -14q-20 1 -34 14q-13 14 -14 34v112v0h-176v0q-27 -1 -45 -19t-19 -45v-224v0q1 -27 19 -45t45 -19
h102v0l90 -64v0v-64v0q0 -14 9 -23t23 -9v0zM336 201q-1 -27 -24 -42q-24 -12 -48 0q-23 15 -24 42q1 27 24 42q24 12 48 0q23 -15 24 -42v0zM80 185q-15 1 -16 16v64v0q1 15 16 16h32v0q15 -1 16 -16v-64v0q-1 -15 -16 -16h-32v0zM448 201v64v-64v64q1 15 16 16h32v0
q15 -1 16 -16v-64v0q-1 -15 -16 -16h-32v0q-15 1 -16 16v0zM80 313q-15 1 -16 16v64v0q1 15 16 16h32v0q15 -1 16 -16v-64v0q-1 -15 -16 -16h-32v0zM464 313q-15 1 -16 16v64v0q1 15 16 16h32v0q15 -1 16 -16v-64v0q-1 -15 -16 -16h-32v0z" />
</svg>
