<?xml version="1.0" standalone="no"?>
<!DOCTYPE svg PUBLIC "-//W3C//DTD SVG 1.1//EN" "http://www.w3.org/Graphics/SVG/1.1/DTD/svg11.dtd" >
<svg xmlns="http://www.w3.org/2000/svg" xmlns:xlink="http://www.w3.org/1999/xlink" version="1.1" viewBox="-10 -40 660 512">
   <path fill="currentColor"
d="M302 -34q18 -10 36 0l136 91v0h118v0q20 1 34 14q13 14 14 34v128v0q-1 -48 -33 -79q-31 -32 -79 -33q-48 1 -79 33q-32 31 -33 79v25v0q-30 18 -32 55h-64v0v0v0q-27 1 -45 19t-19 45v96v0h64v0v0v0h-272v0q-20 -1 -34 -14q-13 -14 -14 -34v-320v0q1 -20 14 -34
q14 -13 34 -14h118v0l136 -91v0zM80 169v64v-64v64q1 15 16 16h32v0q15 -1 16 -16v-64v0q-1 -15 -16 -16h-32v0q-15 1 -16 16v0zM80 297v64v-64v64q1 15 16 16h32v0q15 -1 16 -16v-64v0q-1 -15 -16 -16h-32v0q-15 1 -16 16v0zM320 225q50 -2 76 -44q24 -44 0 -88
q-26 -42 -76 -44q-50 2 -76 44q-24 44 0 88q26 42 76 44v0zM336 105v16v-16v16h16v0q15 1 16 16q-1 15 -16 16h-32v0q-15 -1 -16 -16v-32v0q1 -15 16 -16q15 1 16 16v0zM528 201q-14 0 -23 9v0v0q-9 9 -9 23v48v0h64v0v-48v0q0 -14 -9 -23t-23 -9v0zM448 233q1 -34 23 -57v0
v0q23 -22 57 -23q34 1 57 23q22 23 23 57v48v0q14 0 23 9t9 23v128v0q0 14 -9 23t-23 9h-160v0q-14 0 -23 -9t-9 -23v-128v0q0 -14 9 -23t23 -9v-48v0z" />
</svg>
