<?xml version="1.0" standalone="no"?>
<!DOCTYPE svg PUBLIC "-//W3C//DTD SVG 1.1//EN" "http://www.w3.org/Graphics/SVG/1.1/DTD/svg11.dtd" >
<svg xmlns="http://www.w3.org/2000/svg" xmlns:xlink="http://www.w3.org/1999/xlink" version="1.1" viewBox="-10 -40 404 512">
   <path fill="currentColor"
d="M0 409q1 27 19 45v0v0q18 18 45 19h160v0v-128v0q0 -14 9 -23t23 -9h128v0v-288v0q-1 -27 -19 -45t-45 -19h-256v0q-27 1 -45 19t-19 45v384v0zM171 36l-96 96l96 -96l-96 96q-11 10 -22 0q-10 -11 0 -22l96 -96v0q11 -10 22 0q10 11 0 22v0zM267 68l-160 160l160 -160
l-160 160q-11 10 -22 0q-10 -11 0 -22l160 -160v0q11 -10 22 0q10 11 0 22v0zM384 345h-128h128h-128v128v0l128 -128v0z" />
</svg>
