<?xml version="1.0" standalone="no"?>
<!DOCTYPE svg PUBLIC "-//W3C//DTD SVG 1.1//EN" "http://www.w3.org/Graphics/SVG/1.1/DTD/svg11.dtd" >
<svg xmlns="http://www.w3.org/2000/svg" xmlns:xlink="http://www.w3.org/1999/xlink" version="1.1" viewBox="-10 -40 522 512">
   <path fill="currentColor"
d="M269 -36q-6 -3 -13 -3t-13 3l-189 80v0q-17 7 -27 22q-11 15 -11 35q-1 51 17 120t65 134q46 66 132 109q26 12 52 0q86 -43 132 -109q47 -65 65 -134t17 -120q0 -20 -11 -35q-10 -15 -27 -22l-189 -80v0zM144 182q1 -26 18 -43v0v0q17 -17 43 -18q25 0 44 18l7 7v0l7 -7
v0q19 -18 44 -18q26 1 43 18t18 43q0 25 -18 44l-83 82v0q-11 10 -22 0l-83 -82v0q-17 -19 -18 -44v0z" />
</svg>
