<?xml version="1.0" standalone="no"?>
<!DOCTYPE svg PUBLIC "-//W3C//DTD SVG 1.1//EN" "http://www.w3.org/Graphics/SVG/1.1/DTD/svg11.dtd" >
<svg xmlns="http://www.w3.org/2000/svg" xmlns:xlink="http://www.w3.org/1999/xlink" version="1.1" viewBox="-10 -40 522 512">
   <path fill="currentColor"
d="M269 -36q-6 -3 -13 -3t-13 3l-189 80v0q-17 7 -27 22q-11 15 -11 35q-1 51 17 120t65 134q46 66 132 109q26 12 52 0q86 -43 132 -109q47 -65 65 -134t17 -120q0 -20 -11 -35q-10 -15 -27 -22l-189 -80v0zM80 102l176 -74l-176 74l176 -74v157v0h-166v0q-10 -46 -10 -83
v0zM256 406v-221v221v-221h166v0q-13 62 -52 122q-39 61 -114 99v0z" />
</svg>
