<?xml version="1.0" standalone="no"?>
<!DOCTYPE svg PUBLIC "-//W3C//DTD SVG 1.1//EN" "http://www.w3.org/Graphics/SVG/1.1/DTD/svg11.dtd" >
<svg xmlns="http://www.w3.org/2000/svg" xmlns:xlink="http://www.w3.org/1999/xlink" version="1.1" viewBox="-10 -40 468 512">
   <path fill="currentColor"
d="M64 -7q-27 1 -45 19v0v0q-18 18 -19 45v320v0q1 27 19 45t45 19h320v0q27 -1 45 -19t19 -45v-320v0q-1 -27 -19 -45t-45 -19h-320v0zM160 105q1 -27 24 -42q24 -12 48 0q23 15 24 42q-1 27 -24 42q-24 12 -48 0q-23 -15 -24 -42v0zM240 209q1 -24 16 -40v0v0
q16 -15 40 -16q24 1 40 16q15 16 16 40v102v0q-1 28 -19 47q-19 18 -47 19q-27 0 -46 -19l-55 -55v0l-28 56v0q-7 12 -19 16t-24 -1q-12 -7 -16 -19t1 -24l49 -96v0q7 -15 23 -18q16 -2 28 9l41 42v0v-59v0z" />
</svg>
