<?xml version="1.0" standalone="no"?>
<!DOCTYPE svg PUBLIC "-//W3C//DTD SVG 1.1//EN" "http://www.w3.org/Graphics/SVG/1.1/DTD/svg11.dtd" >
<svg xmlns="http://www.w3.org/2000/svg" xmlns:xlink="http://www.w3.org/1999/xlink" version="1.1" viewBox="-11 0 598 512">
   <path fill="currentColor"
d="M269 -33q19 -12 38 0l224 160v0q11 8 13 23l32 288v0q1 14 -8 24q-10 11 -24 11h-80h-28q-20 -1 -29 -18l-100 -200v0q-3 -6 -9 -6q-9 1 -10 10v182v0q0 14 -9 23t-23 9h-16h-208q-14 0 -24 -11q-9 -10 -8 -25l32 -288v0q2 -14 13 -22l224 -160v0z" />
</svg>
