<?xml version="1.0" standalone="no"?>
<!DOCTYPE svg PUBLIC "-//W3C//DTD SVG 1.1//EN" "http://www.w3.org/Graphics/SVG/1.1/DTD/svg11.dtd" >
<svg xmlns="http://www.w3.org/2000/svg" xmlns:xlink="http://www.w3.org/1999/xlink" version="1.1" viewBox="-10 -40 596 512">
   <path fill="currentColor"
d="M32 -39h192h-192h192q14 0 23 9t9 23v32v0h-256v0v-32v0q0 -14 9 -23t23 -9v0zM0 57h24h-24h256v24v0v368v0q-2 22 -24 24q-22 -2 -24 -24v-8v0h-160v0v8v0q-2 22 -24 24q-22 -2 -24 -24v-368v0v-24v0zM192 185q-15 1 -16 16v64v0q1 15 16 16q15 -1 16 -16v-64v0
q-1 -15 -16 -16v0zM352 -39h192h-192h192q14 0 23 9t9 23v32v0h-256v0v-32v0q0 -14 9 -23t23 -9v0zM320 57h24h-24h256v24v0v368v0q-2 22 -24 24q-22 -2 -24 -24v-8v0h-160v0v8v0q-2 22 -24 24q-22 -2 -24 -24v-368v0v-24v0zM512 185q-15 1 -16 16v64v0q1 15 16 16
q15 -1 16 -16v-64v0q-1 -15 -16 -16v0z" />
</svg>
