<?xml version="1.0" standalone="no"?>
<!DOCTYPE svg PUBLIC "-//W3C//DTD SVG 1.1//EN" "http://www.w3.org/Graphics/SVG/1.1/DTD/svg11.dtd" >
<svg xmlns="http://www.w3.org/2000/svg" xmlns:xlink="http://www.w3.org/1999/xlink" version="1.1" viewBox="-10 -40 532 512">
   <path fill="currentColor"
d="M241 -34q15 9 15 27v72v0h89v0q7 -22 31 -24h88v0q20 1 34 14q13 14 14 34q-1 20 -14 34q-14 13 -34 14h-88v0q-24 -2 -31 -24h-89v0v72v0q0 18 -15 27t-31 2l-192 -96v0q-17 -10 -18 -29q1 -19 18 -29l192 -96v0q16 -7 31 2v0zM288 217q0 -14 9 -23v0v0q9 -9 23 -9h160
v0q14 0 23 9t9 23v64v0q0 14 -9 23t-23 9h-160v0q-14 0 -23 -9t-9 -23v-64v0zM32 345h96h-96h96q14 0 23 9t9 23v64v0q0 14 -9 23t-23 9h-96v0q-14 0 -23 -9t-9 -23v-64v0q0 -14 9 -23t23 -9v0zM224 345h256h-256h256q14 0 23 9t9 23v64v0q0 14 -9 23t-23 9h-256v0
q-14 0 -23 -9t-9 -23v-64v0q0 -14 9 -23t23 -9v0z" />
</svg>
