<?xml version="1.0" standalone="no"?>
<!DOCTYPE svg PUBLIC "-//W3C//DTD SVG 1.1//EN" "http://www.w3.org/Graphics/SVG/1.1/DTD/svg11.dtd" >
<svg xmlns="http://www.w3.org/2000/svg" xmlns:xlink="http://www.w3.org/1999/xlink" version="1.1" viewBox="-10 -40 660 512">
   <path fill="currentColor"
d="M200 -39q-24 2 -39 31v0v0q-16 29 -17 55v107v0l-136 81v0q-8 5 -8 14v64v0q0 8 6 13q7 4 15 2l123 -37v0v82v0l-50 40v0q-6 4 -6 12v32v0q0 8 6 13q7 5 15 2l91 -30v0l90 30v0q-2 -7 -2 -15v-33v0q-29 -17 -32 -51v0v0v-4v0v-82v0v-142v0v-1v0v0v0v-97v0q-1 -26 -16 -55
q-16 -29 -40 -31v0zM288 137v224v-224v224q2 33 32 45v43v0q2 22 24 24h16v0q22 -2 24 -24v-40v0h160v0v40v0q2 22 24 24h16v0q22 -2 24 -24v-43v0q30 -12 32 -45v-224v0q-1 -20 -14 -34q-14 -13 -34 -14h-256v0q-20 1 -34 14q-13 14 -14 34v0zM368 216q6 -14 20 -15h152v0
q14 1 20 15l16 49v0h-224v0l16 -49v0zM568 313q22 2 24 24q-2 22 -24 24q-22 -2 -24 -24q2 -22 24 -24v0zM336 337q2 -22 24 -24q22 2 24 24q-2 22 -24 24q-22 -2 -24 -24v0z" />
</svg>
