<?xml version="1.0" standalone="no"?>
<!DOCTYPE svg PUBLIC "-//W3C//DTD SVG 1.1//EN" "http://www.w3.org/Graphics/SVG/1.1/DTD/svg11.dtd" >
<svg xmlns="http://www.w3.org/2000/svg" xmlns:xlink="http://www.w3.org/1999/xlink" version="1.1" viewBox="-10 -40 660 512">
   <path fill="currentColor"
d="M0 -15q2 -22 24 -24h592v0q22 2 24 24q-2 22 -24 24h-592v0q-22 -2 -24 -24v0zM0 449q2 -22 24 -24h592v0q22 2 24 24q-2 22 -24 24h-592v0q-22 -2 -24 -24v0zM83 121q1 -36 32 -55q32 -18 64 0q31 19 32 55q-1 36 -32 55q-32 18 -64 0q-31 -19 -32 -55v0zM32 281
q1 -27 19 -45v0v0q18 -18 45 -19h96v0q19 0 33 9q-28 12 -48 35q-19 22 -27 52h-86v0q-14 0 -23 -9t-9 -23v0zM494 313q-8 -30 -29 -53v0v0q-20 -23 -49 -34q14 -9 32 -9h96v0q27 1 45 19t19 45q0 14 -9 23t-23 9h-82v0zM391 251q51 14 69 62q5 15 6 32q-1 14 -10 23t-22 9
h-224v0q-14 0 -23 -9t-9 -23q0 -17 5 -32q18 -47 66 -61q12 -3 25 -3h96v0q11 0 21 2v0zM435 121q1 -36 32 -55q32 -18 64 0q31 19 32 55q-1 36 -32 55q-32 18 -64 0q-31 -19 -32 -55v0zM322 57q45 1 69 40q21 40 0 80q-24 39 -69 40q-46 -1 -70 -40q-21 -40 0 -80
q24 -39 70 -40v0z" />
</svg>
