<?xml version="1.0" standalone="no"?>
<!DOCTYPE svg PUBLIC "-//W3C//DTD SVG 1.1//EN" "http://www.w3.org/Graphics/SVG/1.1/DTD/svg11.dtd" >
<svg xmlns="http://www.w3.org/2000/svg" xmlns:xlink="http://www.w3.org/1999/xlink" version="1.1" viewBox="-10 -40 660 512">
   <path fill="currentColor"
d="M211 57q-1 -36 -32 -55q-32 -18 -64 0q-31 19 -32 55q1 36 32 55q32 18 64 0q31 -19 32 -55v0zM32 217q0 14 9 23v0v0q9 9 23 9h86v0q7 -30 27 -52q20 -23 48 -35q-14 -9 -33 -9h-96v0q-27 1 -45 19t-19 45v0zM494 249h82h-82h82q14 0 23 -9t9 -23q-1 -27 -19 -45
t-45 -19h-96v0q-18 0 -32 9q29 11 49 34q21 23 29 53v0zM391 187q-10 -2 -21 -2h-96v0q-13 0 -25 3q-48 14 -66 61q-5 15 -5 32q0 14 9 23t23 9h224v0q13 0 22 -9t10 -23q-1 -17 -6 -32q-18 -48 -69 -62v0zM563 57q-1 -36 -32 -55q-32 -18 -64 0q-31 19 -32 55q1 36 32 55
q32 18 64 0q31 -19 32 -55v0zM322 153q45 -1 69 -40q21 -40 0 -80q-24 -39 -69 -40q-46 1 -70 40q-21 40 0 80q24 39 70 40v0zM32 377q-14 0 -23 9v0v0q-9 9 -9 23t9 23t23 9h576v0q14 0 23 -9t9 -23t-9 -23t-23 -9h-576v0z" />
</svg>
