<?xml version="1.0" standalone="no"?>
<!DOCTYPE svg PUBLIC "-//W3C//DTD SVG 1.1//EN" "http://www.w3.org/Graphics/SVG/1.1/DTD/svg11.dtd" >
<svg xmlns="http://www.w3.org/2000/svg" xmlns:xlink="http://www.w3.org/1999/xlink" version="1.1" viewBox="-10 -40 660 512">
   <path fill="currentColor"
d="M0 330v3v-3v3q1 46 32 76q30 31 76 32q38 -1 66 -23q29 -22 38 -59l4 -14v0h208v0l4 14v0q9 37 38 59q28 22 66 23q46 -1 76 -32q31 -30 32 -76v-3v0q0 -9 -2 -18l-32 -191v0q-7 -39 -30 -67q-23 -29 -61 -39q-69 -19 -195 -22q-126 3 -195 22q-38 10 -61 39
q-23 28 -30 67l-32 191v0q-2 9 -2 18v0zM432 193q23 1 35 20q10 20 0 40q-12 19 -35 20q-23 -1 -35 -20q-10 -20 0 -40q12 -19 35 -20v0zM456 137q1 -23 20 -35q20 -10 40 0q19 12 20 35q-1 23 -20 35q-20 10 -40 0q-19 -12 -20 -35v0zM216 129v32v-32v32h32v0q22 2 24 24
q-2 22 -24 24h-32v0v32v0q-2 22 -24 24q-22 -2 -24 -24v-32v0h-32v0q-22 -2 -24 -24q2 -22 24 -24h32v0v-32v0q2 -22 24 -24q22 2 24 24v0z" />
</svg>
