<?xml version="1.0" standalone="no"?>
<!DOCTYPE svg PUBLIC "-//W3C//DTD SVG 1.1//EN" "http://www.w3.org/Graphics/SVG/1.1/DTD/svg11.dtd" >
<svg xmlns="http://www.w3.org/2000/svg" xmlns:xlink="http://www.w3.org/1999/xlink" version="1.1" viewBox="-10 -40 532 512">
   <path fill="currentColor"
d="M288 81q1 -24 16 -40v0v0q16 -15 40 -16q24 1 40 16q15 16 16 40v13v0q-46 16 -48 70q0 22 18 53q17 30 48 59q6 5 14 5t14 -5q31 -29 48 -59q18 -31 18 -53q-2 -54 -48 -70v-13v0q-1 -51 -35 -85t-85 -35q-51 1 -85 35t-35 85v22v0q-25 -14 -56 -14q-51 1 -85 35t-35 85
v13v0q-46 16 -48 70q0 22 18 53q17 30 48 59q6 5 14 5t14 -5q31 -29 48 -59q18 -31 18 -53q-2 -54 -48 -70v-13v0q1 -24 16 -40q16 -15 40 -16q24 1 40 16q15 16 16 40v32v0v200v0q0 14 9 23t23 9t23 -9t9 -23v-200v0v-32v0v-128v0z" />
</svg>
