<?xml version="1.0" standalone="no"?>
<!DOCTYPE svg PUBLIC "-//W3C//DTD SVG 1.1//EN" "http://www.w3.org/Graphics/SVG/1.1/DTD/svg11.dtd" >
<svg xmlns="http://www.w3.org/2000/svg" xmlns:xlink="http://www.w3.org/1999/xlink" version="1.1" viewBox="-10 -40 532 512">
   <path fill="currentColor"
d="M96 -39h252h-252h252q-17 19 -28 42q-31 62 -32 150q1 88 32 150q11 23 28 42h-252v0q-41 -2 -68 -56t-28 -136q1 -82 28 -136t68 -56v0zM320 153q1 -64 18 -112v0v0q18 -48 46 -69q15 -11 32 -11q41 2 68 56t28 136q0 53 -13 96q-13 44 -34 70q-22 25 -49 26
q-17 0 -32 -11q-28 -21 -46 -69q-17 -48 -18 -112v0zM384 153q0 27 9 45v0v0q9 18 23 19q14 -1 23 -19t9 -45t-9 -45t-23 -19q-14 1 -23 19t-9 45v0zM160 377h256h-256h256q34 -1 58 -22q24 -22 38 -51v121v0q-1 20 -14 34q-14 13 -34 14h-256v0q-20 -1 -34 -14
q-13 -14 -14 -34v-48v0zM211 94q-11 -10 -22 0l-37 36v0l-37 -36v0q-11 -10 -22 0q-10 11 0 22l36 37v0l-36 37v0q-10 11 0 22q11 10 22 0l37 -36v0l37 36v0q11 10 22 0q10 -11 0 -22l-36 -37v0l36 -37v0q10 -11 0 -22v0z" />
</svg>
