<?xml version="1.0" standalone="no"?>
<!DOCTYPE svg PUBLIC "-//W3C//DTD SVG 1.1//EN" "http://www.w3.org/Graphics/SVG/1.1/DTD/svg11.dtd" >
<svg xmlns="http://www.w3.org/2000/svg" xmlns:xlink="http://www.w3.org/1999/xlink" version="1.1" viewBox="-10 -40 650 512">
   <path fill="currentColor"
d="M32 57q1 -27 19 -45v0v0q18 -18 45 -19h320v0q27 1 45 19t19 45v320v0q-1 27 -19 45t-45 19h-320v0q-27 -1 -45 -19t-19 -45v-320v0zM128 57q-14 0 -23 9v0v0q-9 9 -9 23v96v0q0 14 9 23t23 9h256v0q14 0 23 -9t9 -23v-96v0q0 -14 -9 -23t-23 -9h-256v0zM160 297
q-1 -15 -16 -16q-15 1 -16 16v16v0h-16v0q-15 1 -16 16q1 15 16 16h16v0v16v0q1 15 16 16q15 -1 16 -16v-16v0h16v0q15 -1 16 -16q-1 -15 -16 -16h-16v0v-16v0zM304 321q-2 -22 -24 -24q-22 2 -24 24q2 22 24 24q22 -2 24 -24v0zM360 345q22 -2 24 -24q-2 -22 -24 -24
q-22 2 -24 24q2 22 24 24v0zM512 129q2 -22 24 -24h48v0q22 2 24 24v32v0q-2 22 -24 24h-24v0v72v0q-2 22 -24 24h-24v0v-48v0v-16v0v-56v0v-32v0z" />
</svg>
