<?xml version="1.0" standalone="no"?>
<!DOCTYPE svg PUBLIC "-//W3C//DTD SVG 1.1//EN" "http://www.w3.org/Graphics/SVG/1.1/DTD/svg11.dtd" >
<svg xmlns="http://www.w3.org/2000/svg" xmlns:xlink="http://www.w3.org/1999/xlink" version="1.1" viewBox="-10 -40 660 512">
   <path fill="currentColor"
d="M320 -39q14 0 23 9v0v0q9 9 9 23v30v0l15 -15v0q17 -14 34 0q14 17 0 34l-49 49v0v70v0l61 -35v0l18 -67v0q8 -20 29 -17q21 8 17 30l-5 19v0l24 -14v0q12 -6 24 -3t20 15q6 12 3 24t-15 20l-25 14v0l22 6v0q20 8 17 30q-8 20 -30 17l-68 -18v0l-60 35v0l60 36v0l68 -19
v0q22 -3 30 17q3 22 -17 30l-22 6v0l21 12v0l-29 57v0l-23 -13v0l6 19v0q3 22 -17 30q-22 3 -30 -17l-18 -66v0l-61 -36v0v70v0l49 49v0q14 17 0 34q-17 14 -34 0l-15 -15v0v30v0q0 14 -9 23t-23 9t-23 -9t-9 -23v-30v0l-15 15v0q-17 14 -34 0q-14 -17 0 -34l49 -49v0v-70v0
l-61 36v0l-18 66v0q-8 20 -29 17q-21 -8 -17 -30l5 -19v0l-23 13v0l-29 -57v0l21 -12v0l-21 -6v0q-21 -8 -17 -30q7 -20 29 -17l68 18v0l61 -35v0l-61 -35v0l-68 18v0q-22 3 -29 -17q-4 -22 17 -30l21 -6v0l-25 -14v0q-12 -8 -15 -20t3 -24q8 -12 20 -15t24 3l24 14v0
l-5 -19v0q-4 -22 17 -30q21 -3 29 17l18 67v0l61 35v0v-70v0l-49 -49v0q-14 -17 0 -34q17 -14 34 0l15 15v0v-30v0q0 -14 9 -23t23 -9v0zM519 379l48 -92l-48 92l48 -92q3 -6 9 -6t9 6l48 92v0q7 14 7 30q-1 27 -19 45t-45 19q-27 -1 -45 -19q-19 -18 -19 -45q0 -16 7 -30v0
zM55 287q3 -6 9 -6t9 6l48 92v0q7 14 7 30q-1 27 -19 45t-45 19q-27 -1 -45 -19t-19 -45q0 -16 7 -30l48 -92v0z" />
</svg>
