<?xml version="1.0" standalone="no"?>
<!DOCTYPE svg PUBLIC "-//W3C//DTD SVG 1.1//EN" "http://www.w3.org/Graphics/SVG/1.1/DTD/svg11.dtd" >
<svg xmlns="http://www.w3.org/2000/svg" xmlns:xlink="http://www.w3.org/1999/xlink" version="1.1" viewBox="-10 -40 532 512">
   <path fill="currentColor"
d="M280 -7q-22 2 -24 24q2 22 24 24h74v0q13 1 14 14q0 7 -5 11l-43 37v0v0l-2 2h-11v0q-44 0 -84 17q-39 17 -70 48l-19 -33v0h2v0q22 -2 24 -24q-2 -22 -24 -24h-80v0q-22 2 -24 24q2 22 24 24h22v0l44 73v0l-2 4q-1 1 -2 3h-6q-48 1 -79 33q-32 31 -33 79q1 48 33 79
q31 32 79 33q48 -1 79 -33q32 -31 33 -79q0 -32 -16 -58t-42 -40q23 -37 60 -57q37 -21 81 -21h12v0l11 44v0q-33 16 -53 46q-20 31 -21 70q1 54 37 91q37 36 91 37q54 -1 91 -37q36 -37 37 -91q-1 -54 -37 -91q-37 -36 -91 -37h-7l-14 -55v0l31 -27v0q21 -19 22 -48
q-1 -26 -18 -44q-18 -17 -44 -18h-74v0zM344 253l17 66l-17 -66l17 66q7 21 29 17q21 -7 17 -29l-16 -66v0q28 4 46 23q18 20 19 49q-1 31 -21 51t-51 21q-31 -1 -51 -21t-21 -51q2 -39 32 -60v0zM112 273q32 1 48 28q16 28 0 56q-16 27 -48 28q-32 -1 -48 -28
q-16 -28 0 -56q16 -27 48 -28v0z" />
</svg>
