<?xml version="1.0" standalone="no"?>
<!DOCTYPE svg PUBLIC "-//W3C//DTD SVG 1.1//EN" "http://www.w3.org/Graphics/SVG/1.1/DTD/svg11.dtd" >
<svg xmlns="http://www.w3.org/2000/svg" xmlns:xlink="http://www.w3.org/1999/xlink" version="1.1" viewBox="-10 -40 532 512">
   <path fill="currentColor"
d="M256 473q70 -1 128 -34v0v0q58 -34 94 -94q34 -61 34 -128t-34 -128q-36 -60 -94 -94q-58 -33 -128 -34q-70 1 -128 34q-58 34 -94 94q-34 61 -34 128t34 128q36 60 94 94q58 33 128 34v0zM160 111q18 -13 34 2l62 68v0l62 -68v0q16 -15 34 -2q15 16 2 34l-66 72v0h32v0
q15 1 16 16q-1 15 -16 16h-40v0v32v0h40v0q15 1 16 16q-1 15 -16 16h-40v0v25v0q-2 22 -24 24q-22 -2 -24 -24v-25v0h-40v0q-15 -1 -16 -16q1 -15 16 -16h40v0v-32v0h-40v0q-15 -1 -16 -16q1 -15 16 -16h32v0l-66 -72v0q-13 -18 2 -34v0z" />
</svg>
