<?xml version="1.0" standalone="no"?>
<!DOCTYPE svg PUBLIC "-//W3C//DTD SVG 1.1//EN" "http://www.w3.org/Graphics/SVG/1.1/DTD/svg11.dtd" >
<svg xmlns="http://www.w3.org/2000/svg" xmlns:xlink="http://www.w3.org/1999/xlink" version="1.1" viewBox="-10 -40 532 512">
   <path fill="currentColor"
d="M503 -30q-10 -9 -23 -9v0v0q-13 0 -23 9l-128 128v0l-15 -15v0q-26 -24 -58 -8l-32 18v0l156 156v0l18 -32v0q8 -15 6 -30q-2 -16 -14 -28l-15 -15v0l128 -128v0q9 -10 9 -23t-9 -23v0zM188 113l-172 95l172 -95l-172 95q-15 9 -16 28q0 13 9 22l44 44v0q3 3 8 2l52 -18
v0q11 -1 10 10l-17 52v0q-2 5 1 9l108 107v0q9 9 22 9q19 -1 28 -16l95 -171v0l-172 -173v0z" />
</svg>
