<?xml version="1.0" standalone="no"?>
<!DOCTYPE svg PUBLIC "-//W3C//DTD SVG 1.1//EN" "http://www.w3.org/Graphics/SVG/1.1/DTD/svg11.dtd" >
<svg xmlns="http://www.w3.org/2000/svg" xmlns:xlink="http://www.w3.org/1999/xlink" version="1.1" viewBox="-11 0 597 512">
   <path fill="currentColor"
d="M400 -39q-14 0 -23 9v0v0q-9 9 -9 23t9 23t23 9h29v0l-110 88v0l-108 -82v0q-20 -13 -39 1l-160 128v0q-10 9 -12 21q-1 13 7 24q9 10 21 12q13 1 24 -7l141 -112v0l108 81v0q20 13 39 -1l140 -112v0v39v0q0 14 9 23t23 9t23 -9t9 -23v-112v0q0 -14 -9 -23t-23 -9h-112v0
zM192 185q-14 0 -23 9v0v0q-9 9 -9 23v192v0q0 14 9 23t23 9t23 -9t9 -23v-192v0q0 -14 -9 -23t-23 -9v0zM64 281q-14 0 -23 9v0v0q-9 9 -9 23v96v0q0 14 9 23t23 9t23 -9t9 -23v-96v0q0 -14 -9 -23t-23 -9v0zM432 473q39 0 72 -19v0v0q33 -19 53 -53q19 -34 19 -72t-19 -72
q-20 -34 -53 -53t-72 -19t-72 19t-53 53q-19 34 -19 72t19 72q20 34 53 53t72 19v0zM457 304q-14 -16 -35 -11q-20 6 -26 26q-5 21 11 35q14 16 35 11q20 -6 26 -26q5 -21 -11 -35v0zM397 387l-18 17l18 -17l-18 17q-11 10 -22 0q-9 -11 0 -22l17 -18v0q-20 -35 0 -70
l-17 -18v0q-10 -11 0 -22q11 -10 22 0l18 17v0q35 -20 70 0l18 -17v0q11 -10 22 0q10 11 0 22l-17 18v0q20 35 0 70l17 18v0q10 11 0 22q-11 10 -22 0l-18 -17v0q-35 20 -70 0v0z" />
</svg>
