<?xml version="1.0" standalone="no"?>
<!DOCTYPE svg PUBLIC "-//W3C//DTD SVG 1.1//EN" "http://www.w3.org/Graphics/SVG/1.1/DTD/svg11.dtd" >
<svg xmlns="http://www.w3.org/2000/svg" xmlns:xlink="http://www.w3.org/1999/xlink" version="1.1" viewBox="-11 0 597 512">
   <path fill="currentColor"
d="M400 -39q-14 0 -23 9v0v0q-9 9 -9 23t9 23t23 9h29v0l-110 88v0l-108 -82v0q-20 -13 -39 1l-160 128v0q-10 9 -12 21q-1 13 7 24q9 10 21 12q13 1 24 -7l141 -112v0l108 81v0q20 13 39 -1l140 -112v0v39v0q0 14 9 23t23 9t23 -9t9 -23v-112v0q0 -14 -9 -23t-23 -9h-112v0
zM192 185q-14 0 -23 9v0v0q-9 9 -9 23v192v0q0 14 9 23t23 9t23 -9t9 -23v-192v0q0 -14 -9 -23t-23 -9v0zM64 281q-14 0 -23 9v0v0q-9 9 -9 23v96v0q0 14 9 23t23 9t23 -9t9 -23v-96v0q0 -14 -9 -23t-23 -9v0zM432 473q39 0 72 -19v0v0q33 -19 53 -53q19 -34 19 -72t-19 -72
q-20 -34 -53 -53t-72 -19t-72 19t-53 53q-19 34 -19 72t19 72q20 34 53 53t72 19v0zM408 300v0v0v0q-1 1 5 5q8 4 22 7q1 1 2 1v0v0q15 3 31 11q17 9 20 33q-1 27 -22 37q-9 4 -18 6v11v0q-1 14 -16 16q-15 -2 -16 -16v-12v0q-13 -3 -24 -6v0v0v0v0l-4 -2h-1q-13 -6 -10 -20
q6 -14 20 -11l6 2v0v0q16 6 29 7q11 0 19 -4q3 -1 4 -3q1 -1 1 -4q1 -2 -5 -6q-8 -4 -23 -8l-2 -1v0q-14 -3 -28 -10q-18 -7 -22 -31q1 -28 22 -37q9 -5 18 -6v-10v0q1 -15 16 -16q14 1 16 16v9v0l18 4q14 5 11 20q-4 13 -19 11q-14 -3 -26 -4q-10 0 -19 4q-3 2 -4 4
q-1 0 -1 3v0z" />
</svg>
