<?xml version="1.0" standalone="no"?>
<!DOCTYPE svg PUBLIC "-//W3C//DTD SVG 1.1//EN" "http://www.w3.org/Graphics/SVG/1.1/DTD/svg11.dtd" >
<svg xmlns="http://www.w3.org/2000/svg" xmlns:xlink="http://www.w3.org/1999/xlink" version="1.1" viewBox="-10 -40 660 512">
   <path fill="currentColor"
d="M0 25q1 -27 19 -45v0v0q18 -18 45 -19h448v0q27 1 45 19t19 45v147v0q-29 -15 -64 -18v-129v0h-448v0v288v0h257v0q-1 8 -1 16q0 45 20 82q20 38 55 62h-235v0q-14 0 -23 -9t-9 -23t9 -23t23 -9h69v0l11 -32v0h-176v0q-27 -1 -45 -19t-19 -45v-288v0zM480 81v73v-73v73
q-25 2 -48 11v-4v-22v0l-111 111v0q-7 7 -17 7t-17 -7l-63 -63v0l-87 87v0q-17 14 -34 0q-14 -17 0 -34l104 -104v0q17 -14 34 0l63 63v0l94 -94v0h-22v0q-22 -2 -24 -24q2 -22 24 -24h80v0q22 2 24 24v0zM352 329q0 -39 19 -72v0v0q19 -33 53 -53q34 -19 72 -19t72 19
q34 20 53 53t19 72t-19 72t-53 53q-34 19 -72 19t-72 -19q-34 -20 -53 -53t-19 -72v0zM471 304q14 -16 35 -11q20 6 26 26q5 21 -11 35q-14 16 -35 11q-20 -6 -26 -26q-5 -21 11 -35v0zM531 387l18 17l-18 -17l18 17q11 10 22 0q10 -11 0 -22l-17 -18v0q20 -35 0 -70l17 -18
v0q10 -11 0 -22q-11 -10 -22 0l-18 17v0q-35 -20 -70 0l-18 -17v0q-11 -10 -22 0q-10 11 0 22l17 18v0q-20 35 0 70l-17 18v0q-10 11 0 22q11 10 22 0l18 -17v0q35 20 70 0v0z" />
</svg>
