<?xml version="1.0" standalone="no"?>
<!DOCTYPE svg PUBLIC "-//W3C//DTD SVG 1.1//EN" "http://www.w3.org/Graphics/SVG/1.1/DTD/svg11.dtd" >
<svg xmlns="http://www.w3.org/2000/svg" xmlns:xlink="http://www.w3.org/1999/xlink" version="1.1" viewBox="-10 -40 531 512">
   <path fill="currentColor"
d="M305 -17q-3 -17 -19 -20q-15 -2 -30 -2q-17 0 -33 2q-16 3 -19 20l-3 23v0q-2 10 -11 14q-15 5 -28 12q-10 4 -18 -2l-18 -14v0q-14 -10 -28 0q-25 19 -45 44q-9 14 1 28l14 19v0q6 8 2 17q-7 13 -12 28q-3 10 -13 11l-23 3v0q-17 3 -20 20q-2 15 -2 31t2 31q3 17 20 20
l23 3v0q10 1 13 11q5 15 12 28q4 9 -2 18l-14 18v0q-10 14 0 28q19 25 44 44q14 10 28 0l18 -14v0q8 -6 18 -2q13 7 28 12q9 4 11 14l3 23v0q3 17 19 20q17 2 33 2q15 0 30 -2q17 -3 20 -20l2 -22v0q2 -10 12 -14q15 -5 29 -12q10 -4 18 2l18 14v0q14 10 28 0l8 -6l31 -31v0
q2 -2 3 -5l2 -2q10 -14 0 -27l-14 -18v0q-6 -9 -2 -18q7 -15 13 -30q3 -10 13 -11l23 -3v0q17 -3 20 -20v-2q0 -2 1 -3v-52v0q-1 -1 -1 -3v-2q-3 -17 -20 -19l-23 -3v0q-10 -2 -13 -12q-6 -15 -13 -29q-4 -10 2 -18l14 -18v0q10 -14 0 -28q-3 -3 -5 -7l-31 -31v0l-8 -6
q-14 -10 -28 0l-18 14v0q-9 6 -18 2q-14 -7 -29 -12q-10 -4 -12 -14l-3 -22v0zM288 124l-32 192l32 -192l-32 192q-4 14 -19 13q-14 -4 -13 -19l32 -192v0q4 -14 19 -13q14 4 13 19v0zM187 188l-28 29l28 -29l-28 29l28 29v0q10 11 0 22q-11 10 -22 0l-40 -40v0
q-10 -11 0 -22l40 -40v0q11 -10 22 0q10 11 0 22v0zM347 166l40 40l-40 -40l40 40q10 11 0 22l-40 40v0q-11 10 -22 0q-10 -11 0 -22l28 -29v0l-28 -29v0q-10 -11 0 -22q11 -10 22 0v0z" />
</svg>
