<?xml version="1.0" standalone="no"?>
<!DOCTYPE svg PUBLIC "-//W3C//DTD SVG 1.1//EN" "http://www.w3.org/Graphics/SVG/1.1/DTD/svg11.dtd" >
<svg xmlns="http://www.w3.org/2000/svg" xmlns:xlink="http://www.w3.org/1999/xlink" version="1.1" viewBox="-10 -40 650 512">
   <path fill="currentColor"
d="M288 -39h-128h128h-160q-14 0 -23 9t-9 23t9 23t23 9v133v0q0 18 -9 33l-109 176v0q-10 17 -10 37q1 29 20 49q20 19 49 20h310v0q16 0 29 -7q-4 -9 -4 -19v-1v0q-14 7 -29 5q-16 -1 -28 -14q-14 -15 -24 -33q-11 -18 -17 -38q-5 -16 1 -30q6 -15 19 -23v0v0h-207v0
l54 -88v0q19 -31 19 -67v-133v0h64v0v133v0q0 36 19 67l29 47v0q0 -6 2 -12q6 -20 16 -38l14 -20l-6 -11v0q-10 -15 -10 -33v-133v0q14 0 23 -9t9 -23t-9 -23t-23 -9h-32v0zM436 179v18v-18v18q-1 12 -12 18q-11 7 -22 1l-13 -8v0q-11 -5 -19 3q-11 12 -20 27t-13 31
q-3 11 7 17l14 8v0q10 7 10 19t-10 18l-14 9v0q-10 6 -7 17q5 16 13 31q9 15 20 27q9 8 19 2l13 -7v0q11 -6 22 0q11 7 12 19v17v0q0 12 11 15q16 4 33 4t33 -4q10 -3 11 -15v-17v0q1 -13 11 -19q11 -6 22 -1l14 8v0q10 5 19 -2q11 -12 20 -28q8 -15 13 -31q3 -10 -7 -17
l-14 -8v0q-10 -6 -10 -18t10 -19l14 -8v0q10 -6 7 -17q-5 -16 -13 -31q-9 -15 -20 -28q-9 -7 -19 -2l-14 8v0q-11 6 -22 -1q-10 -6 -11 -18v-18v0q-1 -11 -11 -15q-16 -3 -33 -3t-33 3q-11 4 -11 15v0zM432 313q0 -28 23 -44q25 -13 50 0q23 16 23 44t-23 43q-25 14 -50 0
q-23 -15 -23 -43v0z" />
</svg>
