<?xml version="1.0" standalone="no"?>
<!DOCTYPE svg PUBLIC "-//W3C//DTD SVG 1.1//EN" "http://www.w3.org/Graphics/SVG/1.1/DTD/svg11.dtd" >
<svg xmlns="http://www.w3.org/2000/svg" xmlns:xlink="http://www.w3.org/1999/xlink" version="1.1" viewBox="-10 -40 660 512">
   <path fill="currentColor"
d="M152 -39h80h-80h80q22 2 24 24v8v0q15 1 16 16q-1 15 -16 16h-128v0q-15 -1 -16 -16q1 -15 16 -16v-8v0q2 -22 24 -24v0zM32 153q1 -41 28 -68v0v0q27 -27 68 -28h128v0q38 1 65 25l3 3q27 27 28 68h-320v0zM384 153q-2 -63 -49 -100q8 -9 19 -14l13 -6v0q8 -4 17 -6v-42
v0q2 -22 24 -24h80v0q22 2 24 24v42v0q8 2 16 6l13 6v0q33 17 35 54q-1 19 -10 34q7 11 9 26h-191v0zM0 217q0 -14 9 -23v0v0q9 -9 23 -9h576v0q14 0 23 9t9 23t-9 23t-23 9l-24 169v0q-4 24 -22 39q-17 16 -42 16h-401v0q-24 0 -42 -16q-17 -15 -21 -39l-24 -169v0
q-14 0 -23 -9t-9 -23v0z" />
</svg>
