<?xml version="1.0" standalone="no"?>
<!DOCTYPE svg PUBLIC "-//W3C//DTD SVG 1.1//EN" "http://www.w3.org/Graphics/SVG/1.1/DTD/svg11.dtd" >
<svg xmlns="http://www.w3.org/2000/svg" xmlns:xlink="http://www.w3.org/1999/xlink" version="1.1" viewBox="-10 -40 660 512">
   <path fill="currentColor"
d="M144 441q-61 -2 -102 -42v0v0q-40 -41 -42 -102q1 -48 27 -84t69 -52v-8q2 -68 47 -113t113 -47q45 1 81 22q36 22 58 58q23 -16 53 -16q41 1 68 28t28 68q0 18 -6 35q44 9 73 44q28 34 29 81q-1 54 -37 91q-37 36 -91 37h-368v0zM160 161v32v-32v32q0 17 12 28
q11 12 28 12h16v0q17 0 28 -12q12 -11 12 -28v-32v0q0 -17 -12 -28q-11 -12 -28 -12h-16v0q-17 0 -28 12q-12 11 -12 28v0zM200 153h16h-16h16q7 1 8 8v32v0q-1 7 -8 8h-16v0q-7 -1 -8 -8v-32v0q1 -7 8 -8v0zM288 137q1 15 16 16v64v0q1 15 16 16q15 -1 16 -16v-80v0
q-1 -15 -16 -16h-16v0q-15 1 -16 16v0zM424 121q-17 0 -28 12v0v0q-12 11 -12 28v32v0q0 17 12 28q11 12 28 12h16v0q17 0 28 -12q12 -11 12 -28v-32v0q0 -17 -12 -28q-11 -12 -28 -12h-16v0zM416 161q1 -7 8 -8h16v0q7 1 8 8v32v0q-1 7 -8 8h-16v0q-7 -1 -8 -8v-32v0z
M176 281q1 15 16 16v64v0q1 15 16 16q15 -1 16 -16v-80v0q-1 -15 -16 -16h-16v0q-15 1 -16 16v0zM272 305v32v-32v32q0 17 12 28q11 12 28 12h16v0q17 0 28 -12q12 -11 12 -28v-32v0q0 -17 -12 -28q-11 -12 -28 -12h-16v0q-17 0 -28 12q-12 11 -12 28v0zM312 297h16h-16h16
q7 1 8 8v32v0q-1 7 -8 8h-16v0q-7 -1 -8 -8v-32v0q1 -7 8 -8v0zM416 265q-15 1 -16 16q1 15 16 16v64v0q1 15 16 16q15 -1 16 -16v-80v0q-1 -15 -16 -16h-16v0z" />
</svg>
