<?xml version="1.0" standalone="no"?>
<!DOCTYPE svg PUBLIC "-//W3C//DTD SVG 1.1//EN" "http://www.w3.org/Graphics/SVG/1.1/DTD/svg11.dtd" >
<svg xmlns="http://www.w3.org/2000/svg" xmlns:xlink="http://www.w3.org/1999/xlink" version="1.1" viewBox="-10 -40 660 512">
   <path fill="currentColor"
d="M496 153q7 0 14 1q-14 -84 -74 -138q-61 -53 -148 -55q-15 2 -16 17v223v0h103v0q49 -46 121 -48v0zM320 329q0 -44 19 -80h-115v0v-221v0q0 -15 -10 -23q-10 -9 -24 -7q-83 19 -136 83q-52 64 -54 152q1 67 33 121t86 86t121 33q66 -1 120 -32q-39 -47 -40 -112v0z
M640 329q0 -39 -19 -72v0v0q-19 -33 -53 -53q-34 -19 -72 -19t-72 19q-34 20 -53 53t-19 72t19 72t53 53q34 19 72 19t72 -19q34 -20 53 -53t19 -72v0zM521 354q16 -14 11 -35q-6 -20 -26 -26q-21 -5 -35 11q-16 14 -11 35q6 20 26 26q21 5 35 -11v0zM531 387q-35 20 -70 0
l-18 17v0q-11 10 -22 0q-9 -11 0 -22l17 -18v0q-20 -35 0 -70l-17 -18v0q-10 -11 0 -22q11 -10 22 0l18 17v0q35 -20 70 0l18 -17v0q11 -10 22 0q10 11 0 22l-17 18v0q20 35 0 70l17 18v0q10 11 0 22q-11 10 -22 0l-18 -17v0z" />
</svg>
