<?xml version="1.0" standalone="no"?>
<!DOCTYPE svg PUBLIC "-//W3C//DTD SVG 1.1//EN" "http://www.w3.org/Graphics/SVG/1.1/DTD/svg11.dtd" >
<svg xmlns="http://www.w3.org/2000/svg" xmlns:xlink="http://www.w3.org/1999/xlink" version="1.1" viewBox="-10 -40 597 512">
   <path fill="currentColor"
d="M128 105q0 -39 19 -72v0v0q19 -33 53 -53q34 -19 72 -19t72 19q34 20 53 53t19 72t-19 72t-53 53q-34 19 -72 19t-72 -19q-34 -20 -53 -53t-19 -72v0zM249 72q1 -1 4 -3q9 -4 19 -4q12 0 26 4q15 2 20 -12q2 -14 -12 -19l-18 -4v-9v0q-2 -15 -16 -16q-15 1 -16 16v10v0
q-9 1 -18 6q-21 9 -22 37q4 23 22 31q14 6 28 10l2 1v0q15 4 23 8q6 4 5 5q0 4 -1 5t-4 3q-8 4 -18 4q-14 -1 -30 -7l-6 -2q-15 -3 -20 11q-3 14 10 20h1q2 1 4 1v0v0v0v0v0q11 4 24 7v11v0q1 15 16 16q15 -1 16 -16v-10v0q9 -2 18 -6q21 -10 22 -37q-3 -24 -20 -33
q-16 -8 -31 -11v0v0q-16 -4 -24 -8q-6 -4 -5 -5v0v0v0q0 -3 1 -4v0zM568 297q10 14 8 30v0v0q-3 16 -16 26l-127 94v0q-36 26 -81 26h-160h-160q-14 0 -23 -9t-9 -23v-64v0q0 -14 9 -23t23 -9h37v0l45 -36v0q35 -28 80 -28h78h80q14 0 23 9t9 23t-9 23t-23 9h-64h-16
q-15 1 -16 16q1 15 16 16h121v0l119 -88v0q14 -10 30 -8q16 3 26 16v0zM194 345v0v0v0h-1v0v0h1v0z" />
</svg>
