<?xml version="1.0" standalone="no"?>
<!DOCTYPE svg PUBLIC "-//W3C//DTD SVG 1.1//EN" "http://www.w3.org/Graphics/SVG/1.1/DTD/svg11.dtd" >
<svg xmlns="http://www.w3.org/2000/svg" xmlns:xlink="http://www.w3.org/1999/xlink" version="1.1" viewBox="-10 -40 528 512">
   <path fill="currentColor"
d="M224 -7q0 -14 9 -23v0v0q9 -9 23 -9t23 9t9 23v32v0h129v0q15 0 25 12l62 74v0q7 10 0 20l-62 74v0q-10 12 -25 12h-337v0q-20 -1 -34 -14q-13 -14 -14 -34v-96v0q1 -20 14 -34q14 -13 34 -14h144v0v-32v0zM288 441q0 14 -9 23v0v0q-9 9 -23 9t-23 -9t-9 -23v-192v0h64v0
v192v0z" />
</svg>
