<?xml version="1.0" standalone="no"?>
<!DOCTYPE svg PUBLIC "-//W3C//DTD SVG 1.1//EN" "http://www.w3.org/Graphics/SVG/1.1/DTD/svg11.dtd" >
<svg xmlns="http://www.w3.org/2000/svg" xmlns:xlink="http://www.w3.org/1999/xlink" version="1.1" viewBox="-10 -40 522 512">
   <path fill="currentColor"
d="M407 164q-12 -34 -38 -60q-49 -47 -113 -47t-113 47l-17 17v0h34v0q13 0 22 9t10 23q-1 14 -10 23t-22 9h-112v0v0v0v0v0q-14 0 -23 -9t-9 -23v-112v0q0 -14 9 -23t23 -9t23 9t9 23v35v0l17 -17v0q45 -44 102 -59q57 -14 114 0q56 15 101 59q37 37 53 83q4 13 -1 25
q-6 11 -18 16q-13 4 -25 -1q-11 -6 -16 -18v0zM473 250q7 2 13 8q6 7 9 14v4q1 3 1 5v112v0q-1 14 -10 23t-22 9q-14 0 -23 -9t-9 -23v-35v0l-18 17v0v0v0q-45 44 -101 59q-57 14 -114 0q-57 -15 -102 -59q-36 -37 -52 -83q-5 -13 1 -25q5 -11 18 -16q13 -4 24 1q12 6 17 18
q11 33 38 60q49 47 113 47t113 -47v0v0l17 -17v0h-34v0q-14 0 -23 -9t-9 -23t9 -23t23 -9h111v0h5q3 1 5 1v0z" />
</svg>
