<?xml version="1.0" standalone="no"?>
<!DOCTYPE svg PUBLIC "-//W3C//DTD SVG 1.1//EN" "http://www.w3.org/Graphics/SVG/1.1/DTD/svg11.dtd" >
<svg xmlns="http://www.w3.org/2000/svg" xmlns:xlink="http://www.w3.org/1999/xlink" version="1.1" viewBox="-10 -40 522 512">
   <path fill="currentColor"
d="M369 104q-49 -47 -113 -47v0v0q-63 0 -112 46l41 41v0q10 12 5 26q-7 14 -22 15h-120v0v0v0h-8v0q-22 -2 -24 -24v-128v0q0 -16 15 -22q14 -6 26 5l41 42v0q45 -44 102 -58q56 -14 113 0q57 15 101 59q37 37 53 83q4 13 -1 25q-6 11 -19 16q-12 4 -24 -1q-11 -6 -16 -18
q-12 -34 -38 -60v0zM496 273v8v-8v8v0v0v120v0q-1 16 -15 22q-15 6 -26 -5l-42 -42v0q-45 44 -101 58q-57 14 -113 0q-57 -15 -102 -59q-36 -37 -52 -83q-5 -13 1 -25q5 -11 18 -16q13 -4 24 1q12 6 17 18q11 33 38 60q49 47 112 47q64 0 113 -46l-41 -41v0q-11 -12 -5 -26
t22 -15h119h9q22 2 24 24v0z" />
</svg>
