<?xml version="1.0" standalone="no"?>
<!DOCTYPE svg PUBLIC "-//W3C//DTD SVG 1.1//EN" "http://www.w3.org/Graphics/SVG/1.1/DTD/svg11.dtd" >
<svg xmlns="http://www.w3.org/2000/svg" xmlns:xlink="http://www.w3.org/1999/xlink" version="1.1" viewBox="-10 -40 532 512">
   <path fill="currentColor"
d="M335 27q14 -5 26 5l144 136v0q7 7 7 17t-7 17l-144 136v0q-12 10 -26 5q-14 -7 -15 -22v-88v0h-192v0q-14 0 -23 9t-9 23v144v0q0 14 -9 23t-23 9h-32v0q-14 0 -23 -9t-9 -23v-144v0q1 -54 37 -91q37 -36 91 -37h192v0v-88v0q1 -15 15 -22v0z" />
</svg>
