<?xml version="1.0" standalone="no"?>
<!DOCTYPE svg PUBLIC "-//W3C//DTD SVG 1.1//EN" "http://www.w3.org/Graphics/SVG/1.1/DTD/svg11.dtd" >
<svg xmlns="http://www.w3.org/2000/svg" xmlns:xlink="http://www.w3.org/1999/xlink" version="1.1" viewBox="-10 -40 660 512">
   <path fill="currentColor"
d="M576 441h-240h240h-240v-113v0q42 -7 68 -37q27 -31 28 -74q-1 -43 -28 -74q-26 -30 -68 -37v-113v0h240v0q27 1 45 19t19 45v32v0h-64v0q-27 1 -45 19t-19 45v128v0q1 27 19 45t45 19h64v0v32v0q-1 27 -19 45t-45 19v0zM304 106q-42 7 -68 37v0v0q-27 31 -28 74
q1 43 28 74q26 30 68 37v113v0h-240v0q-27 -1 -45 -19t-19 -45v-32v0h64v0q27 -1 45 -19t19 -45v-128v0q-1 -27 -19 -45t-45 -19h-64v0v-32v0q1 -27 19 -45t45 -19h240v0v113v0zM304 295q-28 -6 -46 -27v0v0q-17 -21 -18 -51q1 -30 18 -51q18 -21 46 -27v156v0zM336 295
v-156v156v-156q28 6 46 27q17 21 18 51q-1 30 -18 51q-18 21 -46 27v0zM576 121h64h-64h64v192v0h-64v0q-14 0 -23 -9t-9 -23v-128v0q0 -14 9 -23t23 -9v0zM64 313h-64h64h-64v-192v0h64v0q14 0 23 9t9 23v128v0q0 14 -9 23t-23 9v0z" />
</svg>
