<?xml version="1.0" standalone="no"?>
<!DOCTYPE svg PUBLIC "-//W3C//DTD SVG 1.1//EN" "http://www.w3.org/Graphics/SVG/1.1/DTD/svg11.dtd" >
<svg xmlns="http://www.w3.org/2000/svg" xmlns:xlink="http://www.w3.org/1999/xlink" version="1.1" viewBox="-10 -40 524 512">
   <path fill="currentColor"
d="M0 25q1 -27 19 -45v0v0q18 -18 45 -19h160v0v128v0q0 14 9 23t23 9h128v0v144v0h-208v0q-27 1 -45 19t-19 45v144v0h-48v0q-27 -1 -45 -19t-19 -45v-384v0zM384 89h-128h128h-128v-128v0l128 128v0zM160 329q1 -15 16 -16h64v0q15 1 16 16q-1 15 -16 16h-48v0v32v0h32v0
q15 1 16 16q-1 15 -16 16h-32v0v32v0h48v0q15 1 16 16q-1 15 -16 16h-64v0q-15 -1 -16 -16v-64v0v-64v0zM304 313h32h-32h32q24 1 40 16q15 16 16 40q-1 24 -16 40q-16 15 -40 16h-16v0v32v0q-1 15 -16 16q-15 -1 -16 -16v-48v0v-80v0q1 -15 16 -16v0zM336 393q22 -2 24 -24
q-2 -22 -24 -24h-16v0v48v0h16v0zM454 313h26h-26h26q15 1 16 16q-1 15 -16 16h-26v0q-13 1 -14 14q0 8 8 12l31 16v0q24 13 25 40q0 20 -13 33t-33 13h-34v0q-15 -1 -16 -16q1 -15 16 -16h34v0q13 -1 14 -14q0 -8 -8 -12l-31 -16v0q-24 -13 -25 -40q0 -20 13 -33t33 -13v0z
" />
</svg>
