<?xml version="1.0" standalone="no"?>
<!DOCTYPE svg PUBLIC "-//W3C//DTD SVG 1.1//EN" "http://www.w3.org/Graphics/SVG/1.1/DTD/svg11.dtd" >
<svg xmlns="http://www.w3.org/2000/svg" xmlns:xlink="http://www.w3.org/1999/xlink" version="1.1" viewBox="-10 -40 404 512">
   <path fill="currentColor"
d="M64 -39q-27 1 -45 19v0v0q-18 18 -19 45v384v0q1 27 19 45t45 19h256v0q27 -1 45 -19t19 -45v-288v0h-128v0q-14 0 -23 -9t-9 -23v-128v0h-160v0zM256 -39v128v-128v128h128v0l-128 -128v0zM128 169v16v-16v16h128v0v-16v0q1 -15 16 -16h32v0q15 1 16 16v32v0
q-1 15 -16 16h-16v0v128v0h16v0q15 1 16 16v32v0q-1 15 -16 16h-32v0q-15 -1 -16 -16v-16v0h-128v0v16v0q-1 15 -16 16h-32v0q-15 -1 -16 -16v-32v0q1 -15 16 -16h16v0v-128v0h-16v0q-15 -1 -16 -16v-32v0q1 -15 16 -16h32v0q15 1 16 16v0zM128 345h128h-128h128v-128v0
h-128v0v128v0z" />
</svg>
