<?xml version="1.0" standalone="no"?>
<!DOCTYPE svg PUBLIC "-//W3C//DTD SVG 1.1//EN" "http://www.w3.org/Graphics/SVG/1.1/DTD/svg11.dtd" >
<svg xmlns="http://www.w3.org/2000/svg" xmlns:xlink="http://www.w3.org/1999/xlink" version="1.1" viewBox="-10 -40 524 512">
   <path fill="currentColor"
d="M0 25q1 -27 19 -45v0v0q18 -18 45 -19h160v0v128v0q0 14 9 23t23 9h128v0v144v0h-176v0q-27 1 -45 19t-19 45v144v0h-80v0q-27 -1 -45 -19t-19 -45v-384v0zM384 89h-128h128h-128v-128v0l128 128v0zM224 329q0 11 6 20l10 15v0l10 -15v0q6 -9 6 -20q1 -15 16 -16
q15 1 16 16q0 21 -12 38l-17 26v0l17 26v0q12 17 12 38q-1 15 -16 16q-15 -1 -16 -16q0 -11 -6 -20l-10 -15v0l-10 15v0q-6 9 -6 20q-1 14 -16 16q-15 -2 -16 -16q0 -21 12 -38l17 -26v0l-17 -26v0q-12 -17 -12 -38q1 -15 16 -16q15 1 16 16v0zM320 457v-128v128v-128
q1 -15 16 -16q15 1 16 16v112v0h32v0q15 1 16 16q-1 15 -16 16h-48v0q-15 -1 -16 -16v0zM408 359q0 -20 13 -33v0v0q13 -13 33 -13h26v0q15 1 16 16q-1 15 -16 16h-26v0q-13 1 -14 14q0 8 8 12l31 16v0q24 13 25 40q0 20 -13 33t-33 13h-26v0q-15 -1 -16 -16q1 -15 16 -16
h26v0q13 -1 14 -14q0 -8 -8 -12l-31 -16v0q-24 -13 -25 -40v0z" />
</svg>
