<?xml version="1.0" standalone="no"?>
<!DOCTYPE svg PUBLIC "-//W3C//DTD SVG 1.1//EN" "http://www.w3.org/Graphics/SVG/1.1/DTD/svg11.dtd" >
<svg xmlns="http://www.w3.org/2000/svg" xmlns:xlink="http://www.w3.org/1999/xlink" version="1.1" viewBox="-10 -40 660 512">
   <path fill="currentColor"
d="M0 -15q2 22 24 24h8v0v96v0h-8v0q-22 2 -24 24q2 22 24 24h304v0q22 -2 24 -24q-2 -22 -24 -24h-8v0v-96v0h8v0q22 -2 24 -24q-2 -22 -24 -24h-304v0q-22 2 -24 24v0zM272 105h-32h32h-32v-96v0h32v0v96v0zM160 9h32h-32h32v96v0h-32v0v-96v0zM112 105h-32h32h-32v-96v0
h32v0v96v0zM416 57q-14 0 -23 9v0v0q-9 9 -9 23v96v0h-336v0q-20 1 -34 14q-13 14 -14 34v96v0q1 20 14 34q14 13 34 14h16v0q1 41 28 68t68 28q41 -1 68 -28t28 -68h128v0q1 41 28 68t68 28q41 -1 68 -28t28 -68h16v0q20 -1 34 -14q13 -14 14 -34v-80v0v-32v0v-19v0
q0 -26 -19 -45l-77 -77v0q-19 -19 -45 -19h-83v0zM576 217h-128h128h-128v-32v0v-64v0h51v0l77 77v0v19v0zM112 377q1 -27 24 -42q24 -12 48 0q23 15 24 42q-1 27 -24 42q-24 12 -48 0q-23 -15 -24 -42v0zM480 329q27 1 42 24q12 24 0 48q-15 23 -42 24q-27 -1 -42 -24
q-12 -24 0 -48q15 -23 42 -24v0z" />
</svg>
