<?xml version="1.0" standalone="no"?>
<!DOCTYPE svg PUBLIC "-//W3C//DTD SVG 1.1//EN" "http://www.w3.org/Graphics/SVG/1.1/DTD/svg11.dtd" >
<svg xmlns="http://www.w3.org/2000/svg" xmlns:xlink="http://www.w3.org/1999/xlink" version="1.1" viewBox="-10 -40 596 512">
   <path fill="currentColor"
d="M0 297q0 -14 9 -23v0v0q9 -9 23 -9q27 -1 45 -19t19 -45q2 -88 61 -147t147 -61q64 1 115 34q50 34 75 89q7 18 -8 30q-16 9 -30 -3q-23 -21 -56 -22q-34 1 -57 23q-22 23 -23 57q1 27 19 45t45 19v0v0q42 -2 77 -26v0v0q21 -13 40 2q22 18 50 25q24 7 25 32v42v0
q-45 -3 -74 -18l-14 -7q-8 -4 -16 0q-6 4 -14 7q-30 15 -74 18q-44 -3 -74 -18l-14 -7q-8 -4 -16 0q-6 4 -14 7q-29 15 -74 18q-44 -3 -74 -18l-14 -7q-8 -4 -15 0t-15 7q-30 15 -74 18v-43v0zM0 372q26 -1 49 -7v0v0q22 -6 38 -14q4 -1 8 -3q0 -1 1 -1q3 1 6 3q1 1 3 1
q16 8 38 14t49 7q27 -1 49 -7t38 -14q4 -1 8 -3q0 -1 1 -1q3 1 6 3q1 1 3 1q16 8 38 14t49 7q27 -1 49 -7t38 -14q4 -1 8 -3q0 -1 1 -1q3 1 6 3q1 1 3 1q16 8 38 14t49 7v36v0q0 4 -1 8q-3 13 -14 20t-24 4q-38 -10 -58 -25q-45 25 -95 26q-49 -3 -80 -19q-9 -4 -16 -8
q-7 4 -16 8q-31 16 -80 19q-50 -1 -94 -26q-21 15 -59 25q-13 3 -24 -4t-14 -20q-1 -3 -1 -7v0v0v0v0v-37v0z" />
</svg>
