<?xml version="1.0" standalone="no"?>
<!DOCTYPE svg PUBLIC "-//W3C//DTD SVG 1.1//EN" "http://www.w3.org/Graphics/SVG/1.1/DTD/svg11.dtd" >
<svg xmlns="http://www.w3.org/2000/svg" xmlns:xlink="http://www.w3.org/1999/xlink" version="1.1" viewBox="-10 -40 532 512">
   <path fill="currentColor"
d="M74 117q-9 19 -29 20h-2v0q-5 0 -11 -2q-12 -5 -17 -17t-1 -25q24 -59 75 -95q52 -36 119 -37q81 2 138 52l29 -29v0q12 -11 26 -5t15 22v112v0q-2 22 -24 24h-112v0q-16 -1 -22 -15t5 -26l37 -37v0q-38 -33 -92 -34q-46 1 -82 26t-52 66v0zM342 221q9 -19 29 -20h2v0
q5 0 11 2q12 5 17 17q6 12 1 25q-10 25 -26 47l127 126v0q9 10 9 23t-9 23q-10 9 -23 9t-23 -9l-126 -127v0q-53 39 -123 40q-81 -2 -138 -52l-29 29v0q-12 11 -26 5t-15 -22v-112v0q2 -22 24 -24h112v0q16 1 22 15t-5 26l-37 37v0q38 33 92 34q47 -1 82 -26q36 -25 52 -66
v0z" />
</svg>
