<?xml version="1.0" standalone="no"?>
<!DOCTYPE svg PUBLIC "-//W3C//DTD SVG 1.1//EN" "http://www.w3.org/Graphics/SVG/1.1/DTD/svg11.dtd" >
<svg xmlns="http://www.w3.org/2000/svg" xmlns:xlink="http://www.w3.org/1999/xlink" version="1.1" viewBox="-10 -40 532 512">
   <path fill="currentColor"
d="M499 -33q13 10 13 26v72v0v264v0q-1 34 -28 57q-27 22 -68 23q-41 -1 -68 -23q-27 -23 -28 -57q1 -34 28 -57q27 -22 68 -23q17 0 32 5v-146v0l-256 77v0v208v0q-1 34 -28 57q-27 22 -68 23q-41 -1 -68 -23q-27 -23 -28 -57q1 -34 28 -57q27 -22 68 -23q17 0 32 5v-157v0
v-72v0q1 -23 23 -31l320 -96v0q15 -4 28 5v0z" />
</svg>
