<?xml version="1.0" standalone="no"?>
<!DOCTYPE svg PUBLIC "-//W3C//DTD SVG 1.1//EN" "http://www.w3.org/Graphics/SVG/1.1/DTD/svg11.dtd" >
<svg xmlns="http://www.w3.org/2000/svg" xmlns:xlink="http://www.w3.org/1999/xlink" version="1.1" viewBox="-10 -40 532 512">
   <path fill="currentColor"
d="M64 -7q-27 1 -45 19v0v0q-18 18 -19 45v320v0q1 27 19 45t45 19h384v0q27 -1 45 -19t19 -45v-320v0q-1 -27 -19 -45t-45 -19h-384v0zM152 57v64v-64v64h-88v0v-64v0h88v0zM208 57h88h-88h88v64v0h-88v0v-64v0zM448 57v64v-64v64h-88v0v-64v0h88v0zM64 185h88h-88h88v64v0
h-88v0v-64v0zM296 185v64v-64v64h-88v0v-64v0h88v0zM360 185h88h-88h88v64v0h-88v0v-64v0zM152 313v64v-64v64h-88v0v-64v0h88v0zM208 313h88h-88h88v64v0h-88v0v-64v0zM448 313v64v-64v64h-88v0v-64v0h88v0z" />
</svg>
