<?xml version="1.0" standalone="no"?>
<!DOCTYPE svg PUBLIC "-//W3C//DTD SVG 1.1//EN" "http://www.w3.org/Graphics/SVG/1.1/DTD/svg11.dtd" >
<svg xmlns="http://www.w3.org/2000/svg" xmlns:xlink="http://www.w3.org/1999/xlink" version="1.1" viewBox="-10 -40 532 512">
   <path fill="currentColor"
d="M0 217q1 -70 34 -128v0v0q34 -58 94 -94q61 -34 128 -34t128 34q60 36 94 94q33 58 34 128q-1 70 -34 128q-34 58 -94 94q-61 34 -128 34t-128 -34q-60 -36 -94 -94q-33 -58 -34 -128v0zM188 108q-12 7 -12 21v176v0q0 14 12 21q13 6 25 -1l144 -88v0q11 -7 11 -20
t-11 -21l-144 -88v0q-12 -6 -25 0v0z" />
</svg>
