<?xml version="1.0" standalone="no"?>
<!DOCTYPE svg PUBLIC "-//W3C//DTD SVG 1.1//EN" "http://www.w3.org/Graphics/SVG/1.1/DTD/svg11.dtd" >
<svg xmlns="http://www.w3.org/2000/svg" xmlns:xlink="http://www.w3.org/1999/xlink" version="1.1" viewBox="-10 -40 468 512">
   <path fill="currentColor"
d="M144 105v48v-48v48h160v0v-48v0q-1 -34 -23 -57q-23 -22 -57 -23q-34 1 -57 23q-22 23 -23 57v0zM80 153v-48v48v-48q2 -61 42 -102q41 -40 102 -42q61 2 102 42q40 41 42 102v48v0h16v0q27 1 45 19t19 45v192v0q-1 27 -19 45t-45 19h-320v0q-27 -1 -45 -19t-19 -45v-192
v0q1 -27 19 -45t45 -19h16v0z" />
</svg>
