<?xml version="1.0" standalone="no"?>
<!DOCTYPE svg PUBLIC "-//W3C//DTD SVG 1.1//EN" "http://www.w3.org/Graphics/SVG/1.1/DTD/svg11.dtd" >
<svg xmlns="http://www.w3.org/2000/svg" xmlns:xlink="http://www.w3.org/1999/xlink" version="1.1" viewBox="-10 -40 468 512">
   <path fill="currentColor"
d="M301 -4q18 9 19 29v384v0q-1 20 -19 29q-19 8 -34 -5l-135 -120v0h-68v0q-27 -1 -45 -19t-19 -45v-64v0q1 -27 19 -45t45 -19h68v0l135 -120v0q15 -13 34 -5v0zM413 143q33 27 35 74q-2 47 -35 75q-19 12 -34 -4q-12 -18 3 -34q17 -14 18 -37q-1 -23 -18 -37
q-15 -16 -3 -34q15 -16 34 -4v1z" />
</svg>
