<?xml version="1.0" standalone="no"?>
<!DOCTYPE svg PUBLIC "-//W3C//DTD SVG 1.1//EN" "http://www.w3.org/Graphics/SVG/1.1/DTD/svg11.dtd" >
<svg xmlns="http://www.w3.org/2000/svg" xmlns:xlink="http://www.w3.org/1999/xlink" version="1.1" viewBox="-10 -40 468 512">
   <path fill="currentColor"
d="M96 -39q-41 1 -68 28v0v0q-27 27 -28 68v320v0q1 41 28 68t68 28h288h32q14 0 23 -9t9 -23t-9 -23t-23 -9v-64v0q14 0 23 -9t9 -23v-320v0q0 -14 -9 -23t-23 -9h-32h-288zM96 345h256h-256h256v64v0h-256v0q-14 0 -23 -9t-9 -23t9 -23t23 -9v0zM128 105q1 -15 16 -16h192
v0q15 1 16 16q-1 15 -16 16h-192v0q-15 -1 -16 -16v0zM144 153h192h-192h192q15 1 16 16q-1 15 -16 16h-192v0q-15 -1 -16 -16q1 -15 16 -16v0z" />
</svg>
