<?xml version="1.0" standalone="no"?>
<!DOCTYPE svg PUBLIC "-//W3C//DTD SVG 1.1//EN" "http://www.w3.org/Graphics/SVG/1.1/DTD/svg11.dtd" >
<svg xmlns="http://www.w3.org/2000/svg" xmlns:xlink="http://www.w3.org/1999/xlink" version="1.1" viewBox="-10 -40 468 512">
   <path fill="currentColor"
d="M254 14q-9 -20 -30 -21q-21 1 -30 21l-136 363v0h-26v0q-14 0 -23 9t-9 23t9 23t23 9h96v0q14 0 23 -9t9 -23t-9 -23t-23 -9h-2v0l18 -48v0h160v0l18 48v0h-2v0q-14 0 -23 9t-9 23t9 23t23 9h96v0q14 0 23 -9t9 -23t-9 -23t-23 -9h-26v0l-136 -363v0zM280 265h-112h112
h-112l56 -149v0l56 149v0z" />
</svg>
