<?xml version="1.0" standalone="no"?>
<!DOCTYPE svg PUBLIC "-//W3C//DTD SVG 1.1//EN" "http://www.w3.org/Graphics/SVG/1.1/DTD/svg11.dtd" >
<svg xmlns="http://www.w3.org/2000/svg" xmlns:xlink="http://www.w3.org/1999/xlink" version="1.1" viewBox="-10 -40 597 512">
   <path fill="currentColor"
d="M64 89v-32v32v-32h64v0v320v0h-32v0q-14 0 -23 9t-9 23t9 23t23 9h128v0q14 0 23 -9t9 -23t-9 -23t-23 -9h-32v0v-320v0h64v0v32v0q0 14 9 23t23 9t23 -9t9 -23v-48v0q-1 -20 -14 -34q-14 -13 -34 -14h-112h-112q-20 1 -34 14q-13 14 -14 34v48v0q0 14 9 23t23 9t23 -9
t9 -23v0zM503 2q-10 -9 -23 -9v0v0q-13 0 -23 9l-64 64v0q-14 16 -7 35q9 19 30 20h32v0v192v0h-32v0q-21 1 -30 20q-7 19 7 35l64 64v0q10 9 23 9t23 -9l64 -64v0q14 -16 7 -35q-9 -19 -30 -20h-32v0v-192v0h32v0q21 -1 30 -20q7 -19 -7 -35l-64 -64v0z" />
</svg>
