<?xml version="1.0" standalone="no"?>
<!DOCTYPE svg PUBLIC "-//W3C//DTD SVG 1.1//EN" "http://www.w3.org/Graphics/SVG/1.1/DTD/svg11.dtd" >
<svg xmlns="http://www.w3.org/2000/svg" xmlns:xlink="http://www.w3.org/1999/xlink" version="1.1" viewBox="-10 -40 532 512">
   <path fill="currentColor"
d="M40 9q-22 2 -24 24v48v0q2 22 24 24h48v0q22 -2 24 -24v-48v0q-2 -22 -24 -24h-48v0zM192 25q-14 0 -23 9v0v0q-9 9 -9 23t9 23t23 9h288v0q14 0 23 -9t9 -23t-9 -23t-23 -9h-288v0zM192 185q-14 0 -23 9v0v0q-9 9 -9 23t9 23t23 9h288v0q14 0 23 -9t9 -23t-9 -23t-23 -9
h-288v0zM192 345q-14 0 -23 9v0v0q-9 9 -9 23t9 23t23 9h288v0q14 0 23 -9t9 -23t-9 -23t-23 -9h-288v0zM16 193v48v-48v48q2 22 24 24h48v0q22 -2 24 -24v-48v0q-2 -22 -24 -24h-48v0q-22 2 -24 24v0zM40 329q-22 2 -24 24v48v0q2 22 24 24h48v0q22 -2 24 -24v-48v0
q-2 -22 -24 -24h-48v0z" />
</svg>
