<?xml version="1.0" standalone="no"?>
<!DOCTYPE svg PUBLIC "-//W3C//DTD SVG 1.1//EN" "http://www.w3.org/Graphics/SVG/1.1/DTD/svg11.dtd" >
<svg xmlns="http://www.w3.org/2000/svg" xmlns:xlink="http://www.w3.org/1999/xlink" version="1.1" viewBox="-16 0 474 512">
   <path fill="currentColor"
d="M0 25q0 -14 9 -23v0v0q9 -9 23 -9h384v0q14 0 23 9t9 23t-9 23t-23 9h-384v0q-14 0 -23 -9t-9 -23v0zM192 153q0 -14 9 -23v0v0q9 -9 23 -9h192v0q14 0 23 9t9 23t-9 23t-23 9h-192v0q-14 0 -23 -9t-9 -23v0zM224 249h192h-192h192q14 0 23 9t9 23t-9 23t-23 9h-192v0
q-14 0 -23 -9t-9 -23t9 -23t23 -9v0zM0 409q0 -14 9 -23v0v0q9 -9 23 -9h384v0q14 0 23 9t9 23t-9 23t-23 9h-384v0q-14 0 -23 -9t-9 -23v0zM0 230q-12 -13 0 -26l102 -79v0q9 -6 17 -2t9 15v158v0q-1 11 -9 15t-17 -2l-102 -79v0z" />
</svg>
