<?xml version="1.0" standalone="no"?>
<!DOCTYPE svg PUBLIC "-//W3C//DTD SVG 1.1//EN" "http://www.w3.org/Graphics/SVG/1.1/DTD/svg11.dtd" >
<svg xmlns="http://www.w3.org/2000/svg" xmlns:xlink="http://www.w3.org/1999/xlink" version="1.1" viewBox="-10 -40 532 512">
   <path fill="currentColor"
d="M256 473q70 -1 128 -34v0v0q58 -34 94 -94q34 -61 34 -128t-34 -128q-36 -60 -94 -94q-58 -33 -128 -34q-70 1 -128 34q-58 34 -94 94q-34 61 -34 128t34 128q36 60 94 94q58 33 128 34v0zM170 126q6 -17 20 -27v0v0q14 -10 33 -10h58v0q27 1 45 19q17 17 18 44
q-1 36 -32 55l-32 18v0q-2 22 -24 24q-22 -2 -24 -24v-13v0q0 -14 12 -21l44 -26v0q8 -4 8 -13q-1 -14 -15 -15h-58v0q-6 0 -8 5v2v0q-10 20 -31 14q-20 -9 -14 -30v-2v0zM224 313q0 -14 9 -23v0v0q9 -9 23 -9t23 9t9 23t-9 23t-23 9t-23 -9t-9 -23v0z" />
</svg>
