<?xml version="1.0" standalone="no"?>
<!DOCTYPE svg PUBLIC "-//W3C//DTD SVG 1.1//EN" "http://www.w3.org/Graphics/SVG/1.1/DTD/svg11.dtd" >
<svg xmlns="http://www.w3.org/2000/svg" xmlns:xlink="http://www.w3.org/1999/xlink" version="1.1" viewBox="-10 -40 532 512">
   <path fill="currentColor"
d="M256 -39q14 0 23 9v0v0q9 9 9 23v10v0q72 12 121 61q49 50 61 121h10v0q14 0 23 9t9 23t-9 23t-23 9h-10v0q-12 72 -61 121q-50 49 -121 61v10v0q0 14 -9 23t-23 9t-23 -9t-9 -23v-10v0q-72 -12 -121 -61t-61 -121h-10v0q-14 0 -23 -9t-9 -23t9 -23t23 -9h10v0
q12 -72 61 -121t121 -61v-10v0q0 -14 9 -23t23 -9v0zM107 249q10 44 42 75v0v0q31 32 75 42v-21v0q0 -14 9 -23t23 -9t23 9t9 23v21v0q44 -10 75 -42q32 -31 42 -75h-21v0q-14 0 -23 -9t-9 -23t9 -23t23 -9h21v0q-10 -44 -42 -75q-31 -32 -75 -42v21v0q0 14 -9 23t-23 9
t-23 -9t-9 -23v-21v0q-44 10 -75 42q-32 31 -42 75h21v0q14 0 23 9t9 23t-9 23t-23 9h-21v0zM256 185q14 0 23 9v0v0q9 9 9 23t-9 23t-23 9t-23 -9t-9 -23t9 -23t23 -9v0z" />
</svg>
