<?xml version="1.0" standalone="no"?>
<!DOCTYPE svg PUBLIC "-//W3C//DTD SVG 1.1//EN" "http://www.w3.org/Graphics/SVG/1.1/DTD/svg11.dtd" >
<svg xmlns="http://www.w3.org/2000/svg" xmlns:xlink="http://www.w3.org/1999/xlink" version="1.1" viewBox="-10 -40 596 512">
   <path fill="currentColor"
d="M482 153q29 1 60 19v0v0q31 18 34 45q-3 28 -34 46q-31 17 -60 18h-116v0l-101 176v0q-9 15 -28 16h-56v0q-18 -3 -15 -20l49 -172v0h-103v0l-43 58v0q-5 6 -13 6h-42v0q-13 -1 -14 -14q0 -2 1 -4l31 -110v0l-31 -110v0q-1 -2 -1 -4q1 -13 14 -14h42v0q8 0 13 6l43 58v0
h103v0l-49 -172v0q-3 -17 15 -20h56v0q19 1 28 16l101 176v0h116v0z" />
</svg>
