<?xml version="1.0" standalone="no"?>
<!DOCTYPE svg PUBLIC "-//W3C//DTD SVG 1.1//EN" "http://www.w3.org/Graphics/SVG/1.1/DTD/svg11.dtd" >
<svg xmlns="http://www.w3.org/2000/svg" xmlns:xlink="http://www.w3.org/1999/xlink" version="1.1" viewBox="-10 -40 532 512">
   <path fill="currentColor"
d="M404 -5q19 -7 35 7l64 64v0q9 10 9 23t-9 23l-64 64v0q-16 14 -35 6t-20 -29v-32v0h-32v0q-16 0 -26 13l-42 56v0l-40 -53v0l31 -42v0q30 -37 77 -38h32v0v-32v0q1 -21 20 -30v0zM164 244l40 53l-40 -53l40 53l-31 42v0q-30 37 -77 38h-64v0q-14 0 -23 -9t-9 -23t9 -23
t23 -9h64v0q16 0 26 -13l42 -56v0zM439 432q-16 14 -35 7q-19 -9 -20 -30v-32v0h-32v0q-47 -1 -77 -38l-153 -205v0q-10 -13 -26 -13h-64v0q-14 0 -23 -9t-9 -23t9 -23t23 -9h64v0q47 1 77 38l153 205v0q10 13 26 13h32v0v-32v0q1 -21 20 -30q19 -7 35 7l64 64v0q9 10 9 23
t-9 23l-64 64v0z" />
</svg>
