<?xml version="1.0" standalone="no"?>
<!DOCTYPE svg PUBLIC "-//W3C//DTD SVG 1.1//EN" "http://www.w3.org/Graphics/SVG/1.1/DTD/svg11.dtd" >
<svg xmlns="http://www.w3.org/2000/svg" xmlns:xlink="http://www.w3.org/1999/xlink" version="1.1" viewBox="-10 -40 652 512">
   <path fill="currentColor"
d="M309 96q11 -10 6 -25q-4 -8 -8 -15l-3 -6v0l-10 -14q-10 -12 -24 -7l-29 9v0q-16 -13 -36 -21l-6 -29v0q-4 -15 -18 -18q-10 -1 -21 -1v0v0q-10 0 -20 1q-15 3 -19 18l-6 29v0q-20 8 -36 21l-28 -9v0q-15 -5 -25 7q-5 7 -10 15l-3 5v0q-4 7 -8 15q-5 15 7 25l22 20v0
q-2 10 -2 21t2 21l-22 20v0q-12 10 -7 25q4 8 8 15l3 6v0q4 7 10 14q10 12 25 7l28 -9v0q16 13 36 21l6 29v0q4 15 19 18q10 1 20 1t20 -1q15 -3 19 -18l6 -29v0q20 -8 36 -21l28 9v0q15 5 25 -7l10 -14l3 -6v0q4 -7 8 -15q5 -15 -7 -25l-22 -20v0q2 -10 2 -21t-2 -21
l22 -20h1zM112 137q1 -27 24 -42q24 -12 48 0q23 15 24 42q-1 27 -24 42q-24 12 -48 0q-23 -15 -24 -42v0zM505 462q10 11 25 6q8 -4 15 -8l6 -3v0l14 -10q12 -10 7 -24l-9 -29v0q13 -16 21 -36l29 -6v0q15 -4 18 -19q1 -10 1 -20t-1 -20q-3 -15 -18 -19l-29 -6v0
q-8 -20 -21 -36l9 -28v0q5 -15 -7 -25l-14 -10l-6 -3v0q-7 -4 -15 -8q-15 -5 -25 7l-20 22v0q-10 -2 -21 -2t-21 2l-20 -22v0q-10 -12 -25 -7q-8 4 -15 8l-5 3v0q-8 5 -15 10q-12 10 -7 25l9 28v0q-13 16 -21 36l-29 6v0q-15 4 -18 19q-1 10 -1 20t1 20q3 15 18 19l29 6v0
q8 20 21 36l-9 28v0q-5 15 7 25q7 5 15 10l5 3v0q7 4 15 8q15 5 25 -7l20 -22v0q10 2 21 2t21 -2l20 22v1zM464 265q27 1 42 24q12 24 0 48q-15 23 -42 24q-27 -1 -42 -24q-12 -24 0 -48q15 -23 42 -24v0z" />
</svg>
