<?xml version="1.0" standalone="no"?>
<!DOCTYPE svg PUBLIC "-//W3C//DTD SVG 1.1//EN" "http://www.w3.org/Graphics/SVG/1.1/DTD/svg11.dtd" >
<svg xmlns="http://www.w3.org/2000/svg" xmlns:xlink="http://www.w3.org/1999/xlink" version="1.1" viewBox="-10 -40 532 512">
   <path fill="currentColor"
d="M313 -6q20 4 31 20v0v0q11 16 7 36l-2 12v0q-8 40 -29 75h144v0q20 1 34 14q13 14 14 34q-1 29 -26 43q17 14 18 37q0 18 -11 31t-28 16q7 11 7 25q-2 34 -33 46q1 5 1 10q-1 20 -14 34q-14 13 -34 14h-97v0q-30 0 -54 -16l-38 -26v0q-42 -29 -43 -80v-38v0v-48v0v-25v0
q1 -46 36 -75l7 -6v0q41 -33 52 -84l2 -11v0q4 -20 20 -31t36 -7v0zM32 153h64h-64h64q14 0 23 9t9 23v224v0q0 14 -9 23t-23 9h-64v0q-14 0 -23 -9t-9 -23v-224v0q0 -14 9 -23t23 -9v0z" />
</svg>
