<?xml version="1.0" standalone="no"?>
<!DOCTYPE svg PUBLIC "-//W3C//DTD SVG 1.1//EN" "http://www.w3.org/Graphics/SVG/1.1/DTD/svg11.dtd" >
<svg xmlns="http://www.w3.org/2000/svg" xmlns:xlink="http://www.w3.org/1999/xlink" version="1.1" viewBox="-10 -40 596 512">
   <path fill="currentColor"
d="M400 -39h-224h224h-224q-20 1 -34 14q-13 14 -13 34q0 8 1 16h-106v0q-22 2 -24 24q1 69 22 119q22 49 57 82q33 32 70 50t68 26q17 5 28 17q11 13 11 28q0 16 -11 27t-27 11h-26v0q-14 0 -23 9t-9 23t9 23t23 9h192v0q14 0 23 -9t9 -23t-9 -23t-23 -9h-26v0
q-16 0 -27 -11t-11 -27q0 -15 11 -28q11 -12 28 -17q31 -8 68 -26t71 -50q34 -33 56 -82q21 -50 22 -119q-2 -22 -24 -24h-106v0q1 -8 1 -16q0 -20 -13 -34q-14 -13 -34 -14v0zM49 73h84h-84h84q7 67 21 114t31 77q-38 -16 -73 -49q-24 -23 -42 -58q-17 -35 -21 -84v0z
M464 215q-35 33 -73 49q17 -30 31 -77t21 -114h84v0q-4 49 -21 84t-42 58v0z" />
</svg>
