<?xml version="1.0" standalone="no"?>
<!DOCTYPE svg PUBLIC "-//W3C//DTD SVG 1.1//EN" "http://www.w3.org/Graphics/SVG/1.1/DTD/svg11.dtd" >
<svg xmlns="http://www.w3.org/2000/svg" xmlns:xlink="http://www.w3.org/1999/xlink" version="1.1" viewBox="-10 -40 532 512">
   <path fill="currentColor"
d="M165 -14q-6 -15 -19 -21v0v0q-14 -6 -29 -3l-88 24v0q-27 10 -29 39q1 125 61 226t161 161t226 61q29 -2 39 -29l24 -88v0q3 -15 -3 -29q-6 -13 -21 -19l-96 -40v0q-27 -9 -46 12l-40 49v0q-53 -25 -95 -66q-41 -42 -66 -95l49 -40v0q21 -19 12 -46l-40 -96v0z" />
</svg>
