<?xml version="1.0" standalone="no"?>
<!DOCTYPE svg PUBLIC "-//W3C//DTD SVG 1.1//EN" "http://www.w3.org/Graphics/SVG/1.1/DTD/svg11.dtd" >
<svg xmlns="http://www.w3.org/2000/svg" xmlns:xlink="http://www.w3.org/1999/xlink" version="1.1" viewBox="-10 -40 532 512">
   <path fill="currentColor"
d="M480 57q14 0 23 9v0v0q9 9 9 23t-9 23t-23 9h-208v0v-64v0h208v0zM320 249q14 0 23 9v0v0q9 9 9 23t-9 23t-23 9h-64v0q-14 0 -23 -9t-9 -23t9 -23t23 -9h64v0zM384 185q0 14 -9 23v0v0q-9 9 -23 9h-48v0q-14 0 -23 -9t-9 -23t9 -23t23 -9h48v0q14 0 23 9t9 23v0z
M288 345q14 0 23 9v0v0q9 9 9 23t-9 23t-23 9h-64v0q-14 0 -23 -9t-9 -23t9 -23t23 -9h64v0zM200 249h1h-1h1q-9 14 -9 32q0 20 11 36q-19 6 -31 23q-12 16 -12 37q0 18 9 32h-9v0q-68 -2 -113 -47t-47 -113v-62v0q1 -66 47 -113l12 -11v0q37 -37 90 -38h27v0q27 1 45 19
t19 45v88v0q0 17 -12 28q-11 12 -28 12t-28 -12q-12 -11 -12 -28v-56v0q-1 -15 -16 -16q-15 1 -16 16v56v0q1 31 21 51t51 21v0z" />
</svg>
