<?xml version="1.0" standalone="no"?>
<!DOCTYPE svg PUBLIC "-//W3C//DTD SVG 1.1//EN" "http://www.w3.org/Graphics/SVG/1.1/DTD/svg11.dtd" >
<svg xmlns="http://www.w3.org/2000/svg" xmlns:xlink="http://www.w3.org/1999/xlink" version="1.1" viewBox="-10 -40 532 512">
   <path fill="currentColor"
d="M152 -1q15 16 2 34l-72 80v0q-7 8 -17 8q-11 0 -18 -7l-40 -40v0q-14 -17 0 -34q17 -14 34 0l22 22v0l55 -61v0q16 -15 34 -2v0zM152 159q15 16 2 34l-72 80v0q-7 8 -17 8q-11 0 -18 -7l-40 -40v0q-14 -17 0 -34q17 -14 34 0l22 22v0l55 -61v0q16 -15 34 -2v0zM224 57
q0 -14 9 -23v0v0q9 -9 23 -9h224v0q14 0 23 9t9 23t-9 23t-23 9h-224v0q-14 0 -23 -9t-9 -23v0zM224 217q0 -14 9 -23v0v0q9 -9 23 -9h224v0q14 0 23 9t9 23t-9 23t-23 9h-224v0q-14 0 -23 -9t-9 -23v0zM160 377q0 -14 9 -23v0v0q9 -9 23 -9h288v0q14 0 23 9t9 23t-9 23
t-23 9h-288v0q-14 0 -23 -9t-9 -23v0zM48 329q27 1 42 24q12 24 0 48q-15 23 -42 24q-27 -1 -42 -24q-12 -24 0 -48q15 -23 42 -24v0z" />
</svg>
