<?xml version="1.0" standalone="no"?>
<!DOCTYPE svg PUBLIC "-//W3C//DTD SVG 1.1//EN" "http://www.w3.org/Graphics/SVG/1.1/DTD/svg11.dtd" >
<svg xmlns="http://www.w3.org/2000/svg" xmlns:xlink="http://www.w3.org/1999/xlink" version="1.1" viewBox="-10 -40 532 512">
   <path fill="currentColor"
d="M184 9h144h-144h144q7 1 8 8v40v0h-160v0v-40v0q1 -7 8 -8v0zM128 17v40v-40v40h-64v0q-27 1 -45 19t-19 45v96v0h192h320v-96v0q-1 -27 -19 -45t-45 -19h-64v0v-40v0q-1 -24 -16 -40q-16 -15 -40 -16h-144v0q-24 1 -40 16q-15 16 -16 40v0zM512 249h-192h192h-192v32v0
q0 14 -9 23t-23 9h-64v0q-14 0 -23 -9t-9 -23v-32v0h-192v0v128v0q1 27 19 45t45 19h384v0q27 -1 45 -19t19 -45v-128v0z" />
</svg>
