<?xml version="1.0" standalone="no"?>
<!DOCTYPE svg PUBLIC "-//W3C//DTD SVG 1.1//EN" "http://www.w3.org/Graphics/SVG/1.1/DTD/svg11.dtd" >
<svg xmlns="http://www.w3.org/2000/svg" xmlns:xlink="http://www.w3.org/1999/xlink" version="1.1" viewBox="-10 -40 650 512">
   <path fill="currentColor"
d="M580 229q42 -45 42 -103v0v0q0 -57 -42 -102q-39 -37 -91 -42q-51 -4 -95 27l-2 1v0q-11 8 -13 21q-2 12 6 24q8 10 20 12q13 3 24 -5l2 -1v0q25 -17 53 -15q29 2 51 23q23 25 23 57q0 33 -23 57l-113 113v0q-25 23 -57 23t-57 -23q-21 -22 -23 -51q-2 -28 15 -53l1 -2v0
q7 -11 5 -23q-2 -13 -13 -21t-23 -6q-13 2 -21 13l-1 2v0q-31 44 -27 96q4 51 42 90q45 42 102 42q58 0 103 -42l112 -112v0zM60 205q-42 45 -42 103v0v0q0 57 42 102q39 37 91 42q51 4 96 -27l1 -1v0q11 -8 13 -21q2 -12 -5 -24q-9 -10 -21 -12q-13 -3 -24 5l-2 1v0
q-25 17 -53 15q-29 -2 -51 -23q-23 -25 -23 -57q0 -33 24 -57l112 -113v0q25 -23 57 -23t57 23q21 22 23 51q2 28 -15 53l-1 2v0q-7 11 -5 24q2 12 13 20t23 6q13 -2 21 -13l1 -2v0q31 -44 27 -96q-4 -51 -42 -90q-45 -42 -102 -42q-58 0 -102 42l-113 112v0z" />
</svg>
