<?xml version="1.0" standalone="no"?>
<!DOCTYPE svg PUBLIC "-//W3C//DTD SVG 1.1//EN" "http://www.w3.org/Graphics/SVG/1.1/DTD/svg11.dtd" >
<svg xmlns="http://www.w3.org/2000/svg" xmlns:xlink="http://www.w3.org/1999/xlink" version="1.1" viewBox="-10 -40 532 512">
   <path fill="currentColor"
d="M64 105q27 -1 42 -24q12 -24 0 -48q-15 -23 -42 -24q-27 1 -42 24q-12 24 0 48q15 23 42 24v0zM192 25q-14 0 -23 9v0v0q-9 9 -9 23t9 23t23 9h288v0q14 0 23 -9t9 -23t-9 -23t-23 -9h-288v0zM192 185q-14 0 -23 9v0v0q-9 9 -9 23t9 23t23 9h288v0q14 0 23 -9t9 -23
t-9 -23t-23 -9h-288v0zM192 345q-14 0 -23 9v0v0q-9 9 -9 23t9 23t23 9h288v0q14 0 23 -9t9 -23t-9 -23t-23 -9h-288v0zM64 425q27 -1 42 -24q12 -24 0 -48q-15 -23 -42 -24q-27 1 -42 24q-12 24 0 48q15 23 42 24v0zM112 217q-1 -27 -24 -42q-24 -12 -48 0q-23 15 -24 42
q1 27 24 42q24 12 48 0q23 -15 24 -42v0z" />
</svg>
