<?xml version="1.0" standalone="no"?>
<!DOCTYPE svg PUBLIC "-//W3C//DTD SVG 1.1//EN" "http://www.w3.org/Graphics/SVG/1.1/DTD/svg11.dtd" >
<svg xmlns="http://www.w3.org/2000/svg" xmlns:xlink="http://www.w3.org/1999/xlink" version="1.1" viewBox="-10 -40 532 512">
   <path fill="currentColor"
d="M64 217v-96v96v-96h160v0v96v0h-160v0zM64 281h160h-160h160v96v0h-160v0v-96v0zM288 377v-96v96v-96h160v0v96v0h-160v0zM448 217h-160h160h-160v-96v0h160v0v96v0zM64 -7q-27 1 -45 19v0v0q-18 18 -19 45v320v0q1 27 19 45t45 19h384v0q27 -1 45 -19t19 -45v-320v0
q-1 -27 -19 -45t-45 -19h-384v0z" />
</svg>
