<?xml version="1.0" standalone="no"?>
<!DOCTYPE svg PUBLIC "-//W3C//DTD SVG 1.1//EN" "http://www.w3.org/Graphics/SVG/1.1/DTD/svg11.dtd" >
<svg xmlns="http://www.w3.org/2000/svg" xmlns:xlink="http://www.w3.org/1999/xlink" version="1.1" viewBox="-10 -40 532 512">
   <path fill="currentColor"
d="M14 424q-14 -14 -14 -34v0v0q0 -19 14 -34l381 -381v0q15 -14 34 -14t34 14l35 35v0q14 14 14 34q0 19 -14 34l-381 381v0q-15 14 -34 14q-20 0 -34 -14l-35 -35v0zM348 149l105 -105l-105 105l105 -105l-24 -24v0l-105 105v0l24 24v0z" />
</svg>
