<?xml version="1.0" standalone="no"?>
<!DOCTYPE svg PUBLIC "-//W3C//DTD SVG 1.1//EN" "http://www.w3.org/Graphics/SVG/1.1/DTD/svg11.dtd" >
<svg xmlns="http://www.w3.org/2000/svg" xmlns:xlink="http://www.w3.org/1999/xlink" version="1.1" viewBox="-10 -40 596 512">
   <path fill="currentColor"
d="M208 41q1 -20 14 -34v0v0q14 -13 34 -14h64v0q20 1 34 14q13 14 14 34v64v0q-1 20 -14 34q-14 13 -34 14h-8v0v40v0h152v0q24 1 40 16q15 16 16 40v32v0h8v0q20 1 34 14q13 14 14 34v64v0q-1 20 -14 34q-14 13 -34 14h-64v0q-20 -1 -34 -14q-13 -14 -14 -34v-64v0
q1 -20 14 -34q14 -13 34 -14h8v0v-32v0q-1 -7 -8 -8h-152v0v40v0h8v0q20 1 34 14q13 14 14 34v64v0q-1 20 -14 34q-14 13 -34 14h-64v0q-20 -1 -34 -14q-13 -14 -14 -34v-64v0q1 -20 14 -34q14 -13 34 -14h8v0v-40v0h-152v0q-7 1 -8 8v32v0h8v0q20 1 34 14q13 14 14 34v64v0
q-1 20 -14 34q-14 13 -34 14h-64v0q-20 -1 -34 -14q-13 -14 -14 -34v-64v0q1 -20 14 -34q14 -13 34 -14h8v0v-32v0q1 -24 16 -40q16 -15 40 -16h152v0v-40v0h-8v0q-20 -1 -34 -14q-13 -14 -14 -34v-64v0z" />
</svg>
