<?xml version="1.0" standalone="no"?>
<!DOCTYPE svg PUBLIC "-//W3C//DTD SVG 1.1//EN" "http://www.w3.org/Graphics/SVG/1.1/DTD/svg11.dtd" >
<svg xmlns="http://www.w3.org/2000/svg" xmlns:xlink="http://www.w3.org/1999/xlink" version="1.1" viewBox="-10 -40 594 512">
   <path fill="currentColor"
d="M288 -39q14 0 23 9v0v0q9 9 9 23v18v0q101 12 170 76q70 64 84 160q0 12 -9 16q-10 5 -19 -3q-11 -12 -29 -20q-18 -7 -37 -7q-30 1 -51 18q-21 18 -27 46q-4 15 -18 16q-14 -1 -18 -16q-6 -28 -27 -46q-21 -17 -51 -18q-30 1 -51 18q-21 18 -27 46q-4 15 -18 16
q-14 -1 -18 -16q-6 -28 -27 -46q-21 -17 -51 -18q-19 0 -37 7q-18 8 -29 20q-9 8 -19 4q-9 -5 -9 -17q14 -96 84 -160q69 -64 170 -76v-18v0q0 -14 9 -23t23 -9v0zM288 265q19 0 32 12v115v0q-1 34 -24 57t-57 24q-24 0 -43 -12t-30 -33l-2 -5v0q-6 -12 -2 -24t16 -19
q12 -5 24 -1t19 16l2 4v0q5 10 16 10q16 -1 17 -17v-115v0q13 -12 32 -12v0z" />
</svg>
