<?xml version="1.0" standalone="no"?>
<!DOCTYPE svg PUBLIC "-//W3C//DTD SVG 1.1//EN" "http://www.w3.org/Graphics/SVG/1.1/DTD/svg11.dtd" >
<svg xmlns="http://www.w3.org/2000/svg" xmlns:xlink="http://www.w3.org/1999/xlink" version="1.1" viewBox="-10 -40 660 512">
   <path fill="currentColor"
d="M0 9q1 -20 14 -34v0v0q14 -13 34 -14h320v0q20 1 34 14q13 14 14 34v48v0h51v0q26 0 45 19l77 77v0q19 19 19 45v19v0v32v0v64v0q14 0 23 9t9 23t-9 23t-23 9h-32v0q-1 41 -28 68t-68 28q-41 -1 -68 -28t-28 -68h-128v0q-1 41 -28 68t-68 28q-41 -1 -68 -28t-28 -68h-16
v0q-20 -1 -34 -14q-13 -14 -14 -34v-320v0zM416 217h128h-128h128v-19v0l-77 -77v0h-51v0v96v0zM160 425q27 -1 42 -24q12 -24 0 -48q-15 -23 -42 -24q-27 1 -42 24q-12 24 0 48q15 23 42 24v0zM528 377q-1 -27 -24 -42q-24 -12 -48 0q-23 15 -24 42q1 27 24 42q24 12 48 0
q23 -15 24 -42v0zM176 41v48v-48v48h-48v0q-15 1 -16 16v32v0q1 15 16 16h48v0v48v0q1 15 16 16h32v0q15 -1 16 -16v-48v0h48v0q15 -1 16 -16v-32v0q-1 -15 -16 -16h-48v0v-48v0q-1 -15 -16 -16h-32v0q-15 1 -16 16v0z" />
</svg>
