<?xml version="1.0" standalone="no"?>
<!DOCTYPE svg PUBLIC "-//W3C//DTD SVG 1.1//EN" "http://www.w3.org/Graphics/SVG/1.1/DTD/svg11.dtd" >
<svg xmlns="http://www.w3.org/2000/svg" xmlns:xlink="http://www.w3.org/1999/xlink" version="1.1" viewBox="-10 -40 458 512">
   <path fill="currentColor"
d="M247 2q-10 -9 -23 -9v0v0q-13 0 -23 9l-160 160v0q-9 10 -9 23t9 23q10 9 23 9t23 -9l137 -138v0l137 138v0q10 9 23 9t23 -9q9 -10 9 -23t-9 -23l-160 -160v0zM407 354l-160 -160l160 160l-160 -160q-10 -9 -23 -9t-23 9l-160 160v0q-9 10 -9 23t9 23q10 9 23 9t23 -9
l137 -138v0l137 138v0q10 9 23 9t23 -9q9 -10 9 -23t-9 -23v0z" />
</svg>
