<?xml version="1.0" standalone="no"?>
<!DOCTYPE svg PUBLIC "-//W3C//DTD SVG 1.1//EN" "http://www.w3.org/Graphics/SVG/1.1/DTD/svg11.dtd" >
<svg xmlns="http://www.w3.org/2000/svg" xmlns:xlink="http://www.w3.org/1999/xlink" version="1.1" viewBox="-10 -40 660 512">
   <path fill="currentColor"
d="M192 25q-82 2 -136 56v0v0q-54 54 -56 136q2 82 56 136t136 56h256v0q82 -2 136 -56t56 -136q-2 -82 -56 -136t-136 -56h-256v0zM496 129q23 1 35 20q10 20 0 40q-12 19 -35 20q-23 -1 -35 -20q-10 -20 0 -40q12 -19 35 -20v0zM392 265q1 -23 20 -35q20 -10 40 0
q19 12 20 35q-1 23 -20 35q-20 10 -40 0q-19 -12 -20 -35v0zM168 161q2 -22 24 -24q22 2 24 24v32v0h32v0q22 2 24 24q-2 22 -24 24h-32v0v32v0q-2 22 -24 24q-22 -2 -24 -24v-32v0h-32v0q-22 -2 -24 -24q2 -22 24 -24h32v0v-32v0z" />
</svg>
