<?xml version="1.0" standalone="no"?>
<!DOCTYPE svg PUBLIC "-//W3C//DTD SVG 1.1//EN" "http://www.w3.org/Graphics/SVG/1.1/DTD/svg11.dtd" >
<svg xmlns="http://www.w3.org/2000/svg" xmlns:xlink="http://www.w3.org/1999/xlink" version="1.1" viewBox="-10 -40 468 512">
   <path fill="currentColor"
d="M32 -39q14 0 23 9v0v0q9 9 9 23v16v0l69 -17v0q59 -14 114 12q35 18 73 18t74 -18l9 -4v0q17 -8 30 1q14 8 15 26v280v0q-1 21 -21 30l-34 13v0q-73 26 -142 -8q-59 -28 -123 -13l-64 16v0v96v0q0 14 -9 23t-23 9t-23 -9t-9 -23v-80v0v-66v0v-270v0v-32v0q0 -14 9 -23
t23 -9v0zM64 148l64 -14l-64 14l64 -14v66v0l-64 14v0v65v0l49 -12v0q7 -2 15 -3v-64v0l39 -9v0q12 -2 25 -2v-64v0q21 1 40 7l24 6v0v67v0l-42 -12v0q-11 -3 -22 -4v71v0q33 3 64 15v-70v0l23 7v0q20 6 41 7v-64v0q-12 -1 -23 -4l-41 -12v0v-62v0q-20 -6 -38 -15
q-13 -7 -26 -9v72v0q-20 0 -39 4l-25 5v0v-75v0l-64 16v0v73v0zM320 297q26 2 50 -7l14 -5v0v-72v0l-8 2v0q-28 6 -56 4v78v0zM384 147v-71v71v-71q-31 10 -64 10v69v0q21 2 42 -3l22 -5v0z" />
</svg>
