<?xml version="1.0" standalone="no"?>
<!DOCTYPE svg PUBLIC "-//W3C//DTD SVG 1.1//EN" "http://www.w3.org/Graphics/SVG/1.1/DTD/svg11.dtd" >
<svg xmlns="http://www.w3.org/2000/svg" xmlns:xlink="http://www.w3.org/1999/xlink" version="1.1" viewBox="-11 0 662 512">
   <path fill="currentColor"
d="M39 -34q-19 -12 -34 4q-12 19 4 34l592 464v0q19 12 34 -4q12 -19 -4 -34l-142 -111v0l91 -90v0q42 -45 42 -103q0 -57 -42 -102q-39 -37 -91 -42q-51 -4 -95 27l-2 1v0q-11 8 -13 21q-2 12 6 24q8 10 20 12q13 3 24 -5l2 -1v0q25 -17 53 -15q29 2 51 23q23 25 23 57
q0 33 -23 57l-96 96v0l-32 -25v0q18 -41 10 -84q-8 -44 -40 -77q-41 -39 -94 -42t-97 30l-147 -115v0zM239 123q23 -11 48 -7v0v0q25 3 45 22q30 33 22 75l-115 -90v0zM117 149l-57 56l57 -56l-57 56q-42 45 -42 103q0 57 42 102q39 37 91 42q51 4 96 -27l1 -1v0
q11 -8 13 -21q2 -12 -5 -24q-9 -10 -21 -12q-13 -3 -24 5l-2 1v0q-25 17 -53 15q-29 -2 -51 -23q-23 -25 -23 -57q0 -33 24 -57l61 -62v0l-50 -40v0zM221 231q-3 62 42 110q30 29 68 38t76 -2l-186 -146v0z" />
</svg>
