<?xml version="1.0" standalone="no"?>
<!DOCTYPE svg PUBLIC "-//W3C//DTD SVG 1.1//EN" "http://www.w3.org/Graphics/SVG/1.1/DTD/svg11.dtd" >
<svg xmlns="http://www.w3.org/2000/svg" xmlns:xlink="http://www.w3.org/1999/xlink" version="1.1" viewBox="-10 -40 532 512">
   <path fill="currentColor"
d="M192 66q-1 -14 -13 -23q-18 -14 -19 -34q1 -20 19 -34q18 -13 45 -14q27 1 45 14q18 14 19 34q-1 20 -19 34q-12 9 -13 23q2 21 23 23h57v0q20 1 34 14q13 14 14 34v57v0q2 21 23 23q14 -1 23 -13q14 -18 34 -19q20 1 34 19q13 18 14 45q-1 27 -14 45q-14 18 -34 19
q-20 -1 -34 -19q-9 -12 -23 -13q-21 2 -23 23v121v0q-1 20 -14 34q-14 13 -34 14h-57v0q-21 -2 -23 -23q1 -14 13 -23q18 -14 19 -34q-1 -20 -19 -34q-18 -13 -45 -14q-27 1 -45 14q-18 14 -19 34q1 20 19 34q12 9 13 23q-2 21 -23 23h-121v0q-20 -1 -34 -14
q-13 -14 -14 -34v-121v0q2 -21 23 -23q14 1 23 13q14 18 34 19q20 -1 34 -19q13 -18 14 -45q-1 -27 -14 -45q-14 -18 -34 -19q-20 1 -34 19q-9 12 -23 13q-21 -2 -23 -23v-57v0q1 -20 14 -34q14 -13 34 -14h121v0q21 -2 23 -23v0z" />
</svg>
