<?xml version="1.0" standalone="no"?>
<!DOCTYPE svg PUBLIC "-//W3C//DTD SVG 1.1//EN" "http://www.w3.org/Graphics/SVG/1.1/DTD/svg11.dtd" >
<svg xmlns="http://www.w3.org/2000/svg" xmlns:xlink="http://www.w3.org/1999/xlink" version="1.1" viewBox="-10 -40 468 512">
   <path fill="currentColor"
d="M448 57q-1 -27 -19 -45v0v0q-18 -18 -45 -19h-320v0q-27 1 -45 19t-19 45v320v0q1 27 19 45t45 19h320v0q27 -1 45 -19t19 -45v-320v0zM320 217q0 10 -8 18l-112 104v0q-11 10 -26 4q-13 -7 -14 -22v-208v0q1 -15 14 -22q15 -6 26 4l112 104v0q8 8 8 18v0z" />
</svg>
