<?xml version="1.0" standalone="no"?>
<!DOCTYPE svg PUBLIC "-//W3C//DTD SVG 1.1//EN" "http://www.w3.org/Graphics/SVG/1.1/DTD/svg11.dtd" >
<svg xmlns="http://www.w3.org/2000/svg" xmlns:xlink="http://www.w3.org/1999/xlink" version="1.1" viewBox="-10 -40 586 512">
   <path fill="currentColor"
d="M451 -1q13 10 13 26v96v0h16v0q14 0 23 9t9 23t-9 23t-23 9h-48h-48q-14 0 -23 -9t-9 -23t9 -23t23 -9h16v0v-52v0l-6 2v0q-13 4 -24 -1q-12 -6 -16 -19t1 -24q6 -12 19 -16l48 -16v0q15 -5 29 4v0zM160 -7q14 0 24 10l88 96v0q9 11 8 23q-1 13 -10 23q-11 9 -23 8
q-13 -1 -23 -10l-32 -36v0v302v0q0 14 -9 23t-23 9t-23 -9t-9 -23v-302v0l-32 36v0q-10 9 -23 10q-12 1 -23 -8q-9 -10 -10 -23q-1 -12 8 -23l88 -96v0q10 -10 24 -10v0zM446 326q12 -6 16 -18v0v0q4 -12 -1 -25q-6 -12 -18 -16q-12 -5 -25 1q-12 6 -16 18t1 25q6 12 18 16
t25 -1v0zM405 381q-27 -9 -44 -32v0v0q-17 -22 -17 -52q1 -37 26 -62t62 -26q37 1 62 26t26 62q0 36 -21 65l-49 66v0q-9 11 -21 13q-13 2 -24 -6q-11 -9 -13 -21q-2 -13 6 -24l7 -9v0z" />
</svg>
