<?xml version="1.0" standalone="no"?>
<!DOCTYPE svg PUBLIC "-//W3C//DTD SVG 1.1//EN" "http://www.w3.org/Graphics/SVG/1.1/DTD/svg11.dtd" >
<svg xmlns="http://www.w3.org/2000/svg" xmlns:xlink="http://www.w3.org/1999/xlink" version="1.1" viewBox="-10 -40 532 512">
   <path fill="currentColor"
d="M128 25v96v-96v96h64v0v-96v0h195v0l29 29v0v67v0h64v0v-67v0q0 -26 -19 -45l-29 -29v0q-19 -19 -45 -19h-195v0q-27 1 -45 19t-19 45v0zM0 121v320v-320v320q0 14 9 23t23 9h32v0q14 0 23 -9t9 -23v-320v0q0 -14 -9 -23t-23 -9h-32v0q-14 0 -23 9t-9 23v0zM480 153h-352
h352h-352v288v0q0 14 9 23t23 9h320v0q14 0 23 -9t9 -23v-256v0q0 -14 -9 -23t-23 -9v0zM256 217q14 0 23 9v0v0q9 9 9 23t-9 23t-23 9t-23 -9t-9 -23t9 -23t23 -9v0zM352 249q0 -14 9 -23v0v0q9 -9 23 -9t23 9t9 23t-9 23t-23 9t-23 -9t-9 -23v0zM384 345q14 0 23 9v0v0
q9 9 9 23t-9 23t-23 9t-23 -9t-9 -23t9 -23t23 -9v0zM224 377q0 -14 9 -23v0v0q9 -9 23 -9t23 9t9 23t-9 23t-23 9t-23 -9t-9 -23v0z" />
</svg>
