<?xml version="1.0" standalone="no"?>
<!DOCTYPE svg PUBLIC "-//W3C//DTD SVG 1.1//EN" "http://www.w3.org/Graphics/SVG/1.1/DTD/svg11.dtd" >
<svg xmlns="http://www.w3.org/2000/svg" xmlns:xlink="http://www.w3.org/1999/xlink" version="1.1" viewBox="-10 -40 404 512">
   <path fill="currentColor"
d="M64 -39q-27 1 -45 19v0v0q-18 18 -19 45v384v0q1 27 19 45t45 19h256v0q27 -1 45 -19t19 -45v-288v0h-128v0q-14 0 -23 -9t-9 -23v-128v0h-160v0zM256 -39v128v-128v128h128v0l-128 -128v0zM64 249q0 -14 9 -23v0v0q9 -9 23 -9h96v0q14 0 23 9t9 23v96v0q0 14 -9 23
t-23 9h-96v0q-14 0 -23 -9t-9 -23v-96v0zM301 359l-45 -30l45 30l-45 -30v-64v0l45 -30v0q3 -2 7 -2q11 1 12 12v104v0q-1 11 -12 12q-4 0 -7 -2v0z" />
</svg>
