<?xml version="1.0" standalone="no"?>
<!DOCTYPE svg PUBLIC "-//W3C//DTD SVG 1.1//EN" "http://www.w3.org/Graphics/SVG/1.1/DTD/svg11.dtd" >
<svg xmlns="http://www.w3.org/2000/svg" xmlns:xlink="http://www.w3.org/1999/xlink" version="1.1" viewBox="-10 -40 532 512">
   <path fill="currentColor"
d="M223 -7q3 13 -3 24v0v0q-6 12 -19 16q-60 19 -98 68q-38 50 -39 116q2 82 56 136t136 56q82 -2 136 -56t56 -136q-1 -66 -39 -116q-37 -49 -98 -68q-13 -4 -19 -16q-6 -11 -3 -24q5 -13 16 -19t24 -2q81 25 131 91q50 65 52 154q-1 72 -35 129q-34 58 -92 92
q-57 34 -129 35q-72 -1 -129 -35q-58 -34 -92 -92q-34 -57 -35 -129q2 -89 52 -154q50 -66 131 -91q13 -4 24 2q12 6 16 19v0z" />
</svg>
