<?xml version="1.0" standalone="no"?>
<!DOCTYPE svg PUBLIC "-//W3C//DTD SVG 1.1//EN" "http://www.w3.org/Graphics/SVG/1.1/DTD/svg11.dtd" >
<svg xmlns="http://www.w3.org/2000/svg" xmlns:xlink="http://www.w3.org/1999/xlink" version="1.1" viewBox="-10 -40 468 512">
   <path fill="currentColor"
d="M135 -21l-7 14l7 -14l-7 14h-96v0q-14 0 -23 9t-9 23t9 23t23 9h384v0q14 0 23 -9t9 -23t-9 -23t-23 -9h-96v0l-7 -14v0q-9 -17 -29 -18h-120v0q-20 1 -29 18v0zM416 89h-384h384h-384l21 339v0q2 19 15 32q14 13 33 13h246v0q19 0 33 -13q13 -13 15 -32l21 -339v0z" />
</svg>
