<?xml version="1.0" standalone="no"?>
<!DOCTYPE svg PUBLIC "-//W3C//DTD SVG 1.1//EN" "http://www.w3.org/Graphics/SVG/1.1/DTD/svg11.dtd" >
<svg xmlns="http://www.w3.org/2000/svg" xmlns:xlink="http://www.w3.org/1999/xlink" version="1.1" viewBox="-10 -40 468 512">
   <path fill="currentColor"
d="M86 -33l-24 42l24 -42l-24 42q-6 10 -6 21v3v0q0 17 12 28q11 12 28 12t28 -12q12 -11 12 -28v-3v0q0 -11 -6 -21l-24 -42v0q-4 -6 -10 -6t-10 6v0zM214 -33l-24 42l24 -42l-24 42q-6 10 -6 21v3v0q0 17 12 28q11 12 28 12t28 -12q12 -11 12 -28v-3v0q0 -11 -6 -21
l-24 -42v0q-4 -6 -10 -6t-10 6v0zM318 9q-6 10 -6 21v3v0q0 17 12 28q11 12 28 12t28 -12q12 -11 12 -28v-3v0q0 -11 -6 -21l-24 -42v0q-4 -6 -10 -6t-10 6l-24 42v0zM128 137q0 -14 -9 -23v0v0q-9 -9 -23 -9t-23 9t-9 23v48v0q-27 1 -45 19t-19 45v71v0q13 8 29 9
q21 -1 38 -13q8 -6 13 -10q2 -1 3 -2q0 -1 1 -1v-1h1v0v0v0v0v0v0v0v0q4 -5 12 -5q6 0 11 6v0v0v0v0v0v0v0h1l3 3q4 4 12 10q16 12 36 13q21 -1 36 -13q8 -6 12 -10l3 -3h1v0v0q5 -6 12 -6t12 6v0v0v0h1l3 3q4 4 12 10q16 12 36 13q21 -1 36 -13q8 -6 12 -10l3 -3h1v0v0
q5 -6 12 -6t12 5v0v0v0v0v0v0v0v0v0q0 1 1 1v1q1 1 3 2q5 4 13 10q17 12 38 13q17 -1 29 -9v-71v0q0 -27 -19 -45q-18 -18 -45 -19v-48v0q0 -14 -9 -23t-23 -9q-13 0 -22 9t-10 23v48v0h-64v0v-48v0q0 -14 -9 -23t-23 -9t-23 9t-9 23v48v0h-64v0v-48v0zM448 356q-13 5 -29 5
q-35 -3 -56 -19q-6 -4 -10 -7q-5 3 -10 7q-20 16 -55 19q-35 -3 -55 -19q-5 -4 -9 -7q-4 3 -9 7q-20 16 -55 19q-35 -3 -55 -19q-5 -4 -9 -7q-5 3 -11 7q-22 16 -56 19q-16 0 -29 -5v85v0q0 14 9 23t23 9h384v0q14 0 23 -9t9 -23v-85v0z" />
</svg>
