<?xml version="1.0" standalone="no"?>
<!DOCTYPE svg PUBLIC "-//W3C//DTD SVG 1.1//EN" "http://www.w3.org/Graphics/SVG/1.1/DTD/svg11.dtd" >
<svg xmlns="http://www.w3.org/2000/svg" xmlns:xlink="http://www.w3.org/1999/xlink" version="1.1" viewBox="-10 -40 660 512">
   <path fill="currentColor"
d="M312 -7q-22 2 -24 24q2 22 24 24h26v0l34 64v0h-149v0l-27 -38v0q-8 -10 -20 -10h-56v0q-22 2 -24 24q2 22 24 24h44v0l22 31v0l-27 53v0q-15 -4 -31 -4q-54 1 -91 37q-36 37 -37 91q1 54 37 91q37 36 91 37q50 -1 85 -32q35 -32 42 -80h49v0q13 0 21 -12l85 -143v0
l21 40v0q-45 37 -47 99q1 54 37 91q37 36 91 37q54 -1 91 -37q36 -37 37 -91q-1 -54 -37 -91q-37 -36 -91 -37q-20 0 -39 6l-98 -181v0q-9 -16 -28 -17h-35v0zM459 265l32 59l-32 -59l32 59q12 19 32 10q19 -12 10 -32l-32 -60v0q5 -1 11 -1q31 1 51 21t21 51q-1 31 -21 51
t-51 21q-31 -1 -51 -21t-21 -51q1 -28 19 -48v0zM133 329h65h-65h65q-6 25 -25 40q-19 16 -45 16q-31 -1 -51 -21t-21 -51q1 -31 21 -51t51 -21h5v0l-24 49v0q-6 14 1 26q8 12 23 13v0zM167 281l51 -101l-51 101l51 -101l73 101v0h-1h-123zM258 153h108h-108h108l-49 83v0
l-60 -83h1z" />
</svg>
