<?xml version="1.0" standalone="no"?>
<!DOCTYPE svg PUBLIC "-//W3C//DTD SVG 1.1//EN" "http://www.w3.org/Graphics/SVG/1.1/DTD/svg11.dtd" >
<svg xmlns="http://www.w3.org/2000/svg" xmlns:xlink="http://www.w3.org/1999/xlink" version="1.1" viewBox="-10 -40 586 512">
   <path fill="currentColor"
d="M288 -39q102 1 162 23v0v0q61 23 62 57v16v0v32v0q14 0 23 9t9 23v64v0q0 14 -9 23t-23 9v160v0q0 14 -9 23t-23 9v32v0q0 14 -9 23t-23 9h-32v0q-14 0 -23 -9t-9 -23v-32v0h-192v0v32v0q0 14 -9 23t-23 9h-32v0q-14 0 -23 -9t-9 -23v-32v0q-14 0 -23 -9t-9 -23v-160v0
q-14 0 -23 -9t-9 -23v-64v0q0 -14 9 -23t23 -9v0v0v-32v0v0v0v-16v0q1 -34 62 -57q60 -22 162 -23v0zM128 121v96v-96v96q0 14 9 23t23 9h112v0v-160v0h-112v0q-14 0 -23 9t-9 23v0zM304 249h112h-112h112q14 0 23 -9t9 -23v-96v0q0 -14 -9 -23t-23 -9h-112v0v160v0z
M144 361q14 0 23 -9v0v0q9 -9 9 -23t-9 -23t-23 -9t-23 9t-9 23t9 23t23 9v0zM432 361q14 0 23 -9v0v0q9 -9 9 -23t-9 -23t-23 -9t-23 9t-9 23t9 23t23 9v0zM384 41q-1 -15 -16 -16h-160v0q-15 1 -16 16q1 15 16 16h160v0q15 -1 16 -16v0z" />
</svg>
