<?xml version="1.0" standalone="no"?>
<!DOCTYPE svg PUBLIC "-//W3C//DTD SVG 1.1//EN" "http://www.w3.org/Graphics/SVG/1.1/DTD/svg11.dtd" >
<svg xmlns="http://www.w3.org/2000/svg" xmlns:xlink="http://www.w3.org/1999/xlink" version="1.1" viewBox="-10 -40 596 512">
   <path fill="currentColor"
d="M0 57q1 -27 19 -45v0v0q18 -18 45 -19h448v0q27 1 45 19t19 45v320v0q-1 27 -19 45t-45 19h-448v0q-27 -1 -45 -19t-19 -45v-320v0zM200 169q22 1 36 16q16 15 34 2q15 -16 2 -34q-28 -31 -72 -32q-41 1 -68 28t-28 68q1 41 28 68t68 28q44 -1 72 -32q13 -18 -2 -34
q-18 -13 -34 2q-14 15 -36 16q-20 -1 -34 -14q-13 -14 -14 -34q1 -20 14 -34q14 -13 34 -14v0zM344 217q1 -20 14 -34v0v0q14 -13 34 -14q22 1 36 16q16 15 34 2q15 -16 2 -34q-28 -31 -72 -32q-41 1 -68 28t-28 68q1 41 28 68t68 28q44 -1 72 -32q13 -18 -2 -34
q-18 -13 -34 2q-14 15 -36 16q-20 -1 -34 -14q-13 -14 -14 -34v0z" />
</svg>
