<?xml version="1.0" standalone="no"?>
<!DOCTYPE svg PUBLIC "-//W3C//DTD SVG 1.1//EN" "http://www.w3.org/Graphics/SVG/1.1/DTD/svg11.dtd" >
<svg xmlns="http://www.w3.org/2000/svg" xmlns:xlink="http://www.w3.org/1999/xlink" version="1.1" viewBox="-10 -40 592 512">
   <path fill="currentColor"
d="M24 -39q-22 2 -24 24q2 22 24 24h46v0q6 0 7 7l52 271v0q5 25 25 42q19 16 46 16h288v0q22 -2 24 -24q-2 -22 -24 -24h-288v0q-19 -1 -24 -19l-5 -29v0h288v0q25 0 44 -15q19 -14 26 -38l41 -153v0q4 -19 -7 -34q-12 -15 -32 -16h-171v0v102v0l23 -23v0q17 -14 34 0
q14 17 0 34l-64 64v0q-17 14 -34 0l-64 -64v0q-14 -17 0 -34q17 -14 34 0l23 23v0v-102v0h-192v0q-15 -30 -50 -32h-46v0zM176 473q27 -1 42 -24q12 -24 0 -48q-15 -23 -42 -24q-27 1 -42 24q-12 24 0 48q15 23 42 24v0zM512 425q-1 -27 -24 -42q-24 -12 -48 0
q-23 15 -24 42q1 27 24 42q24 12 48 0q23 -15 24 -42v0z" />
</svg>
