<?xml version="1.0" standalone="no"?>
<!DOCTYPE svg PUBLIC "-//W3C//DTD SVG 1.1//EN" "http://www.w3.org/Graphics/SVG/1.1/DTD/svg11.dtd" >
<svg xmlns="http://www.w3.org/2000/svg" xmlns:xlink="http://www.w3.org/1999/xlink" version="1.1" viewBox="-10 -40 660 512">
   <path fill="currentColor"
d="M32 -7q14 0 23 9v0v0q9 9 9 23v256v0h224v0v-160v0q0 -14 9 -23t23 -9h224v0q41 1 68 28t28 68v224v0q0 14 -9 23t-23 9t-23 -9t-9 -23v-32v0h-224h-288v32v0q0 14 -9 23t-23 9t-23 -9t-9 -23v-384v0q0 -14 9 -23t23 -9v0zM176 89q45 1 69 40q22 40 0 80q-24 39 -69 40
q-45 -1 -69 -40q-22 -40 0 -80q24 -39 69 -40v0z" />
</svg>
