<?xml version="1.0" standalone="no"?>
<!DOCTYPE svg PUBLIC "-//W3C//DTD SVG 1.1//EN" "http://www.w3.org/Graphics/SVG/1.1/DTD/svg11.dtd" >
<svg xmlns="http://www.w3.org/2000/svg" xmlns:xlink="http://www.w3.org/1999/xlink" version="1.1" viewBox="-10 -40 468 512">
   <path fill="currentColor"
d="M96 -39q-41 1 -68 28v0v0q-27 27 -28 68v256v0q1 37 23 63q23 26 58 32l-46 46v0q-5 6 -2 12q2 6 10 7h40v0q13 0 22 -9l55 -55v0h128v0l55 55v0q9 9 22 9h40v0q8 -1 10 -7q3 -6 -2 -12l-46 -46v0q35 -6 58 -32q22 -26 23 -63v-256v0q-1 -41 -28 -68t-68 -28h-256v0z
M64 89q0 -14 9 -23v0v0q9 -9 23 -9h80v0q14 0 23 9t9 23v96v0q0 14 -9 23t-23 9h-80v0q-14 0 -23 -9t-9 -23v-96v0zM272 57h80h-80h80q14 0 23 9t9 23v96v0q0 14 -9 23t-23 9h-80v0q-14 0 -23 -9t-9 -23v-96v0q0 -14 9 -23t23 -9v0zM64 313q0 -14 9 -23v0v0q9 -9 23 -9t23 9
t9 23t-9 23t-23 9t-23 -9t-9 -23v0zM352 281q14 0 23 9v0v0q9 9 9 23t-9 23t-23 9t-23 -9t-9 -23t9 -23t23 -9v0z" />
</svg>
