<?xml version="1.0" standalone="no"?>
<!DOCTYPE svg PUBLIC "-//W3C//DTD SVG 1.1//EN" "http://www.w3.org/Graphics/SVG/1.1/DTD/svg11.dtd" >
<svg xmlns="http://www.w3.org/2000/svg" xmlns:xlink="http://www.w3.org/1999/xlink" version="1.1" viewBox="-10 -40 532 512">
   <path fill="currentColor"
d="M0 73q1 -20 14 -34v0v0q14 -13 34 -14h112h127q57 1 92 48l113 164v0q20 29 20 64v12v0v16v0v48v0q0 14 -9 23t-23 9h-96v0q-14 0 -23 -9t-9 -23v-14v0l-78 -50v0h-34h-128q-20 -1 -34 -14q-13 -14 -14 -34q1 -20 14 -34q14 -13 34 -14h48h80q20 -1 34 -14q13 -14 14 -34
q-1 -20 -14 -34q-14 -13 -34 -14h-80h-112q-20 -1 -34 -14q-13 -14 -14 -34v0z" />
</svg>
