<?xml version="1.0" standalone="no"?>
<!DOCTYPE svg PUBLIC "-//W3C//DTD SVG 1.1//EN" "http://www.w3.org/Graphics/SVG/1.1/DTD/svg11.dtd" >
<svg xmlns="http://www.w3.org/2000/svg" xmlns:xlink="http://www.w3.org/1999/xlink" version="1.1" viewBox="-10 -40 586 512">
   <path fill="currentColor"
d="M247 -15q-4 -13 -15 -20v0v0q-11 -6 -24 -3q-13 4 -20 15q-6 11 -3 24l53 198v0q2 16 -14 18q-10 -1 -14 -10l-43 -143v0q-5 -13 -16 -19t-24 -3q-13 5 -19 16t-3 24l63 207v0q2 6 -3 9t-10 -1l-55 -53v0q-13 -11 -29 -11t-28 12q-11 13 -11 29t12 28l113 107v0
q67 63 160 64h11h8v0v0q45 -3 78 -30q34 -27 47 -70l82 -275v0q3 -13 -3 -24t-19 -16q-13 -3 -24 3q-12 6 -16 19l-37 128v0q-3 9 -12 9q-14 -2 -13 -15l36 -170v0q3 -14 -4 -24q-7 -11 -20 -14q-14 -3 -24 4q-11 7 -14 20l-38 178v0q-5 20 -26 21q-19 -1 -25 -19l-57 -213
v0z" />
</svg>
