<?xml version="1.0" standalone="no"?>
<!DOCTYPE svg PUBLIC "-//W3C//DTD SVG 1.1//EN" "http://www.w3.org/Graphics/SVG/1.1/DTD/svg11.dtd" >
<svg xmlns="http://www.w3.org/2000/svg" xmlns:xlink="http://www.w3.org/1999/xlink" version="1.1" viewBox="-10 -40 660 512">
   <path fill="currentColor"
d="M64 25v288v-288v288h512v0v-288v0h-512v0zM0 25q1 -27 19 -45v0v0q18 -18 45 -19h512v0q27 1 45 19t19 45v288v0q-1 27 -19 45t-45 19h-512v0q-27 -1 -45 -19t-19 -45v-288v0zM128 409h384h-384h384q14 0 23 9t9 23t-9 23t-23 9h-384v0q-14 0 -23 -9t-9 -23t9 -23t23 -9
v0z" />
</svg>
