<?xml version="1.0" standalone="no"?>
<!DOCTYPE svg PUBLIC "-//W3C//DTD SVG 1.1//EN" "http://www.w3.org/Graphics/SVG/1.1/DTD/svg11.dtd" >
<svg xmlns="http://www.w3.org/2000/svg" xmlns:xlink="http://www.w3.org/1999/xlink" version="1.1" viewBox="-10 -40 468 512">
   <path fill="currentColor"
d="M128 -39q14 0 23 9v0v0q9 9 9 23v32v0h128v0v-32v0q0 -14 9 -23t23 -9t23 9t9 23v32v0h48v0q20 1 34 14q13 14 14 34v48v0h-448v0v-48v0q1 -20 14 -34q14 -13 34 -14h48v0v-32v0q0 -14 9 -23t23 -9v0zM0 153h448h-448h448v272v0q-1 20 -14 34q-14 13 -34 14h-352v0
q-20 -1 -34 -14q-13 -14 -14 -34v-272v0zM329 266q14 -17 0 -34q-17 -14 -34 0l-95 95v0l-47 -47v0q-17 -14 -34 0q-14 17 0 34l64 64v0q17 14 34 0l112 -112v0z" />
</svg>
