<?xml version="1.0" standalone="no"?>
<!DOCTYPE svg PUBLIC "-//W3C//DTD SVG 1.1//EN" "http://www.w3.org/Graphics/SVG/1.1/DTD/svg11.dtd" >
<svg xmlns="http://www.w3.org/2000/svg" xmlns:xlink="http://www.w3.org/1999/xlink" version="1.1" viewBox="-10 -40 330 512">
   <path fill="currentColor"
d="M16 105q0 -39 19 -72v0v0q19 -33 53 -53q34 -19 72 -19t72 19q34 20 53 53t19 72t-19 72t-53 53q-34 19 -72 19t-72 -19q-34 -20 -53 -53t-19 -72v0zM160 41q15 -1 16 -16q-1 -15 -16 -16q-41 1 -68 28t-28 68q1 15 16 16q15 -1 16 -16q1 -27 19 -45t45 -19v0zM128 441
v-163v163v-163q16 3 32 3t32 -3v163v0q0 14 -9 23t-23 9t-23 -9t-9 -23v0z" />
</svg>
