<?xml version="1.0" standalone="no"?>
<!DOCTYPE svg PUBLIC "-//W3C//DTD SVG 1.1//EN" "http://www.w3.org/Graphics/SVG/1.1/DTD/svg11.dtd" >
<svg xmlns="http://www.w3.org/2000/svg" xmlns:xlink="http://www.w3.org/1999/xlink" version="1.1" viewBox="-10 -40 522 512">
   <path fill="currentColor"
d="M176 57q27 -1 42 -24q12 -24 0 -48q-15 -23 -42 -24q-27 1 -42 24q-12 24 0 48q15 23 42 24v0zM168 89q-28 0 -51 14v0v0q-23 14 -35 39l-47 93v0q-5 12 -1 24t16 19q12 5 24 1t19 -16l35 -70v0v43v0q0 26 19 45l77 77v0v83v0q0 14 9 23t23 9t23 -9t9 -23v-89v0
q0 -20 -14 -34l-50 -50v0v-94v0l70 94v0q9 11 21 13q13 1 24 -6q11 -9 13 -21q1 -13 -6 -24l-77 -103v0q-30 -37 -77 -38h-24v0zM128 308l-31 125l31 -125l-31 125q-3 13 4 24q6 11 19 15q14 3 25 -4q10 -6 14 -19l22 -88v0l-53 -53v0zM451 466q9 11 22 4q11 -9 4 -22
l-118 -171v0q-4 6 -10 10q-8 6 -16 8l118 171v0z" />
</svg>
