<?xml version="1.0" standalone="no"?>
<!DOCTYPE svg PUBLIC "-//W3C//DTD SVG 1.1//EN" "http://www.w3.org/Graphics/SVG/1.1/DTD/svg11.dtd" >
<svg xmlns="http://www.w3.org/2000/svg" xmlns:xlink="http://www.w3.org/1999/xlink" version="1.1" viewBox="-10 -40 532 512">
   <path fill="currentColor"
d="M503 16l-40 40l40 -40l-40 40q-10 9 -23 9t-23 -9q-9 -10 -9 -23t9 -23l40 -40v0q10 -9 23 -9t23 9q9 10 9 23t-9 23v0zM183 336l-128 128l128 -128l-128 128q-10 9 -23 9t-23 -9q-9 -10 -9 -23t9 -23l128 -128v0q10 -9 23 -9t23 9q9 10 9 23t-9 23v0zM240 89
q-44 1 -75 29v0v0q-31 28 -36 71q-2 13 -12 21t-24 7q-13 -2 -21 -12t-7 -23q9 -68 57 -112q49 -43 118 -45q75 2 124 52q50 49 52 124q-2 71 -47 119q-17 20 -17 35v6v0q-1 48 -33 79q-31 32 -79 33q-14 0 -23 -9t-9 -23t9 -23t23 -9q20 -1 34 -14q13 -14 14 -34v-6v0
q1 -25 11 -45q10 -19 23 -33q29 -31 30 -76q-1 -48 -33 -79q-31 -32 -79 -33v0zM240 169q-14 0 -23 9v0v0q-9 9 -9 23q-2 22 -24 24q-22 -2 -24 -24q1 -34 23 -57q23 -22 57 -23q34 1 57 23q22 23 23 57q-2 22 -24 24q-22 -2 -24 -24q0 -14 -9 -23t-23 -9v0z" />
</svg>
