<?xml version="1.0" standalone="no"?>
<!DOCTYPE svg PUBLIC "-//W3C//DTD SVG 1.1//EN" "http://www.w3.org/Graphics/SVG/1.1/DTD/svg11.dtd" >
<svg xmlns="http://www.w3.org/2000/svg" xmlns:xlink="http://www.w3.org/1999/xlink" version="1.1" viewBox="-10 -40 468 512">
   <path fill="currentColor"
d="M448 9v336v-336v336q-15 5 -27 10q-31 11 -50 17q-20 5 -42 5q-45 -2 -75 -16t-75 -16q-30 1 -51 8v-64v0q21 -7 51 -8q45 2 75 16t75 16q28 0 55 -9v-208v0q-27 9 -55 9q-45 -2 -75 -16t-75 -16q-23 0 -41 5q-17 5 -33 11q-19 8 -41 13v307v0q0 14 -9 23t-23 9t-23 -9
t-9 -23v-384v0q0 -14 9 -23t23 -9t23 9t9 23v13v0q22 -5 41 -13q16 -6 33 -11q18 -5 41 -5q45 2 75 16t75 16q22 0 42 -5q19 -6 51 -17q11 -5 26 -10v0z" />
</svg>
