<?xml version="1.0" standalone="no"?>
<!DOCTYPE svg PUBLIC "-//W3C//DTD SVG 1.1//EN" "http://www.w3.org/Graphics/SVG/1.1/DTD/svg11.dtd" >
<svg xmlns="http://www.w3.org/2000/svg" xmlns:xlink="http://www.w3.org/1999/xlink" version="1.1" viewBox="-10 -40 660 512">
   <path fill="currentColor"
d="M323 46l-96 79l96 -79l-96 79q-13 10 -15 25q-1 15 8 28q10 13 26 15q15 3 29 -7l99 -78v0q13 -8 23 3q8 12 -3 23l-21 16v0l139 128v0v-189v0h-1v0l-4 -2v0l-72 -47v0q-24 -15 -52 -15q-33 0 -60 21v0zM346 171l-52 40l52 -40l-52 40q-24 18 -53 14q-28 -4 -47 -28
q-17 -24 -13 -51q3 -27 25 -46l84 -67v0q-18 -8 -37 -8q-29 0 -53 16l-72 48v0v224v0h28v0l92 83v0q15 14 34 13t33 -16q9 -9 12 -20l17 15v0q15 14 34 13t33 -16q7 -7 10 -16q15 10 32 8q18 -2 30 -16q14 -15 13 -34t-16 -33l-134 -123v0zM16 89q-15 1 -16 16v208v0
q0 14 9 23t23 9h32v0q14 0 23 -9t9 -23v-224v0h-80v0zM48 281q15 1 16 16q-1 15 -16 16q-15 -1 -16 -16q1 -15 16 -16v0zM544 89v224v-224v224q0 14 9 23t23 9h32v0q14 0 23 -9t9 -23v-208v0q-1 -15 -16 -16h-80v0zM576 297q1 -15 16 -16q15 1 16 16q-1 15 -16 16
q-15 -1 -16 -16v0z" />
</svg>
