<?xml version="1.0" standalone="no"?>
<!DOCTYPE svg PUBLIC "-//W3C//DTD SVG 1.1//EN" "http://www.w3.org/Graphics/SVG/1.1/DTD/svg11.dtd" >
<svg xmlns="http://www.w3.org/2000/svg" xmlns:xlink="http://www.w3.org/1999/xlink" version="1.1" viewBox="-10 -40 596 512">
   <path fill="currentColor"
d="M64 -7q-27 1 -45 19v0v0q-18 18 -19 45v320v0q1 27 19 45t45 19h448v0q27 -1 45 -19t19 -45v-320v0q-1 -27 -19 -45t-45 -19h-448v0zM144 249h64h-64h64q34 1 57 23q22 23 23 57q-1 15 -16 16h-192v0q-15 -1 -16 -16q1 -34 23 -57q23 -22 57 -23v0zM112 153q1 -36 32 -55
q32 -18 64 0q31 19 32 55q-1 36 -32 55q-32 18 -64 0q-31 -19 -32 -55v0zM368 121h128h-128h128q15 1 16 16q-1 15 -16 16h-128v0q-15 -1 -16 -16q1 -15 16 -16v0zM368 185h128h-128h128q15 1 16 16q-1 15 -16 16h-128v0q-15 -1 -16 -16q1 -15 16 -16v0zM368 249h128h-128
h128q15 1 16 16q-1 15 -16 16h-128v0q-15 -1 -16 -16q1 -15 16 -16v0z" />
</svg>
