<?xml version="1.0" standalone="no"?>
<!DOCTYPE svg PUBLIC "-//W3C//DTD SVG 1.1//EN" "http://www.w3.org/Graphics/SVG/1.1/DTD/svg11.dtd" >
<svg xmlns="http://www.w3.org/2000/svg" xmlns:xlink="http://www.w3.org/1999/xlink" version="1.1" viewBox="-10 -40 330 512">
   <path fill="currentColor"
d="M160 25q-20 1 -34 14v0v0q-13 14 -14 34v165v0q-1 26 -15 42q-17 21 -17 49q1 34 23 57q23 22 57 23q34 -1 57 -23q22 -23 23 -57q0 -28 -17 -49q-13 -16 -15 -42v-165v0q-1 -20 -14 -34q-14 -13 -34 -14v0zM48 73q1 -48 33 -79v0v0q31 -32 79 -33q48 1 79 33
q32 31 33 79v165v0v0v0q1 1 2 3q29 37 30 88q-2 61 -42 102q-41 40 -102 42q-61 -2 -102 -42q-40 -41 -42 -102q1 -51 30 -88q1 -2 2 -3v0v0v-165v0zM208 329q-1 20 -14 34v0v0q-14 13 -34 14q-20 -1 -34 -14q-13 -14 -14 -34q2 -33 32 -45v-115v0q1 -15 16 -16q15 1 16 16
v115v0q30 12 32 45v0z" />
</svg>
