<?xml version="1.0" standalone="no"?>
<!DOCTYPE svg PUBLIC "-//W3C//DTD SVG 1.1//EN" "http://www.w3.org/Graphics/SVG/1.1/DTD/svg11.dtd" >
<svg xmlns="http://www.w3.org/2000/svg" xmlns:xlink="http://www.w3.org/1999/xlink" version="1.1" viewBox="-10 -40 468 512">
   <path fill="currentColor"
d="M319 333q37 -24 59 -62v0v0q22 -39 22 -86q-2 -75 -52 -124q-49 -50 -124 -52q-75 2 -124 52q-50 49 -52 124q0 47 22 86q22 38 59 62q2 27 7 57v1v0q-61 -27 -98 -81q-37 -55 -38 -125q1 -63 31 -113q29 -51 80 -80q50 -30 113 -31q63 1 113 31q51 29 80 80
q30 50 31 113q-1 70 -38 125q-37 54 -98 81v-1v0q5 -30 7 -57v0zM317 295q-2 -9 -7 -16q-9 -15 -22 -23q31 -27 32 -71q-1 -41 -28 -68t-68 -28q-41 1 -68 28t-28 68q1 44 32 71q-13 8 -22 23q-5 7 -7 16q-49 -42 -51 -110q2 -61 42 -102q41 -40 102 -42q61 2 102 42
q40 41 42 102q-2 68 -51 110v0zM224 273q26 -1 44 9v0v0q19 9 20 35q-1 27 -7 68q-7 41 -14 65q-4 14 -16 19q-12 4 -27 4t-27 -4q-12 -5 -16 -19q-7 -24 -14 -65q-6 -41 -7 -68q1 -26 20 -35q18 -9 44 -9v0zM224 129q32 1 48 28q16 28 0 56q-16 27 -48 28q-32 -1 -48 -28
q-16 -28 0 -56q16 -27 48 -28v0z" />
</svg>
