<?xml version="1.0" standalone="no"?>
<!DOCTYPE svg PUBLIC "-//W3C//DTD SVG 1.1//EN" "http://www.w3.org/Graphics/SVG/1.1/DTD/svg11.dtd" >
<svg xmlns="http://www.w3.org/2000/svg" xmlns:xlink="http://www.w3.org/1999/xlink" version="1.1" viewBox="-10 -40 468 512">
   <path fill="currentColor"
d="M64 -7q-27 1 -45 19v0v0q-18 18 -19 45v320v0q1 27 19 45t45 19h320v0q27 -1 45 -19t19 -45v-320v0q-1 -27 -19 -45t-45 -19h-320v0zM245 95v14v-14v14q14 2 29 6q3 1 5 2q19 7 16 27q-8 18 -27 15q-1 -1 -2 -1q-2 0 -3 -1q-10 -3 -21 -5q-21 -4 -41 4q-9 4 -12 11
q-4 7 5 14q15 8 32 12h1q2 1 4 1q1 1 3 1q26 6 50 20q30 22 24 58q-8 34 -38 45q-12 5 -25 6v16v0q-2 19 -22 21q-19 -2 -21 -21v-18v0q-22 -5 -43 -12q-18 -8 -14 -28q8 -18 27 -13q2 0 4 1q2 0 4 1q17 6 34 10q26 3 40 -3q9 -4 12 -12q2 -9 -6 -15q-16 -10 -35 -13l-6 -2
l-1 -1q-25 -5 -48 -18q-30 -20 -25 -56q9 -33 39 -45q8 -3 18 -5v-16v0q2 -20 21 -22q20 2 22 22v0z" />
</svg>
