<?xml version="1.0" standalone="no"?>
<!DOCTYPE svg PUBLIC "-//W3C//DTD SVG 1.1//EN" "http://www.w3.org/Graphics/SVG/1.1/DTD/svg11.dtd" >
<svg xmlns="http://www.w3.org/2000/svg" xmlns:xlink="http://www.w3.org/1999/xlink" version="1.1" viewBox="-10 -40 522 512">
   <path fill="currentColor"
d="M49 185h-9h9h-9q-22 -2 -24 -24v-128v0q1 -16 15 -22t26 5l42 42v0q44 -44 101 -58t113 0q57 15 101 59t59 101q14 57 0 114q-15 57 -59 101t-101 59q-57 14 -114 0q-57 -15 -101 -59q-10 -9 -10 -22t10 -23q9 -9 22 -9t23 9q49 47 113 47t113 -47q47 -49 47 -113
t-47 -113q-49 -47 -112 -47q-64 0 -113 46l41 41v0q11 12 5 26t-22 15h-119v0z" />
</svg>
