<?xml version="1.0" standalone="no"?>
<!DOCTYPE svg PUBLIC "-//W3C//DTD SVG 1.1//EN" "http://www.w3.org/Graphics/SVG/1.1/DTD/svg11.dtd" >
<svg xmlns="http://www.w3.org/2000/svg" xmlns:xlink="http://www.w3.org/1999/xlink" version="1.1" viewBox="-10 -40 586 512">
   <path fill="currentColor"
d="M288 -39q20 1 29 18l64 132v0l144 22v0q19 3 26 21q5 19 -8 33l-104 103v0l24 146v0q3 19 -13 31q-16 11 -34 2l-128 -68v0l-128 68v0q-18 9 -34 -2q-15 -12 -13 -31l25 -146v0l-104 -103v0q-14 -14 -8 -33q6 -18 25 -21l144 -22v0l64 -132v0q10 -17 29 -18v0zM288 89
q-22 2 -24 24v112v0q2 22 24 24q22 -2 24 -24v-112v0q-2 -22 -24 -24v0zM320 313q0 -14 -9 -23v0v0q-9 -9 -23 -9t-23 9t-9 23t9 23t23 9t23 -9t9 -23v0z" />
</svg>
