<?xml version="1.0" standalone="no"?>
<!DOCTYPE svg PUBLIC "-//W3C//DTD SVG 1.1//EN" "http://www.w3.org/Graphics/SVG/1.1/DTD/svg11.dtd" >
<svg xmlns="http://www.w3.org/2000/svg" xmlns:xlink="http://www.w3.org/1999/xlink" version="1.1" viewBox="-10 -40 532 512">
   <path fill="currentColor"
d="M141 -18q21 -20 51 -21h129v0q29 1 50 21l120 120v0q20 21 21 51v129v0q-1 29 -21 50l-120 120v0q-21 20 -50 21h-129v0q-30 -1 -51 -21l-120 -120v0q-20 -21 -21 -50v-129v0q1 -30 21 -51l120 -120v0zM232 305q2 22 24 24q22 -2 24 -24v-64v0h64v0q22 -2 24 -24
q-2 -22 -24 -24h-64v0v-64v0q-2 -22 -24 -24q-22 2 -24 24v64v0h-64v0q-22 2 -24 24q2 22 24 24h64v0v64v0z" />
</svg>
