<?xml version="1.0" standalone="no"?>
<!DOCTYPE svg PUBLIC "-//W3C//DTD SVG 1.1//EN" "http://www.w3.org/Graphics/SVG/1.1/DTD/svg11.dtd" >
<svg xmlns="http://www.w3.org/2000/svg" xmlns:xlink="http://www.w3.org/1999/xlink" version="1.1" viewBox="-10 -40 468 512">
   <path fill="currentColor"
d="M224 25q34 1 57 23v0v0q22 23 23 57v48v0h-160v0v-48v0q1 -34 23 -57q23 -22 57 -23v0zM80 105v48v-48v48h-16v0q-27 1 -45 19t-19 45v192v0q1 27 19 45t45 19h320v0q27 -1 45 -19t19 -45v-192v0q-1 -27 -19 -45t-45 -19h-16v0v-48v0q-2 -61 -42 -102q-41 -40 -102 -42
q-61 2 -102 42q-40 41 -42 102v0zM256 281v64v-64v64q0 14 -9 23t-23 9t-23 -9t-9 -23v-64v0q0 -14 9 -23t23 -9t23 9t9 23v0z" />
</svg>
