<?xml version="1.0" standalone="no"?>
<!DOCTYPE svg PUBLIC "-//W3C//DTD SVG 1.1//EN" "http://www.w3.org/Graphics/SVG/1.1/DTD/svg11.dtd" >
<svg xmlns="http://www.w3.org/2000/svg" xmlns:xlink="http://www.w3.org/1999/xlink" version="1.1" viewBox="-10 -40 596 512">
   <path fill="currentColor"
d="M235 65q25 -8 53 -8q34 0 65 12q-1 -3 -1 -7v-66v0q0 -11 -10 -15l-43 -19v0q-3 -1 -6 -1h-2v0q-11 0 -15 10l-41 94v0zM396 92q18 14 33 31q4 5 0 9t-10 1q-59 -35 -131 -36q-72 1 -130 36q-7 3 -11 -1t0 -9q15 -18 33 -31h-2q-13 -3 -26 -3q-65 2 -107 56
q-43 54 -45 136q2 82 45 136q42 54 107 56q29 0 55 -13q13 -6 26 0q26 13 55 13t55 -13q13 -6 26 0q26 13 55 13q64 -2 107 -56t45 -136q-2 -82 -45 -136t-107 -56q-14 0 -26 3h-2v0zM208 169q8 0 13 7l32 48v0q5 8 1 17q-5 8 -14 8h-64v0q-9 0 -14 -8q-4 -9 1 -17l32 -48v0
q5 -7 13 -7v0zM381 176l32 48l-32 -48l32 48q5 8 1 17q-5 8 -14 8h-64v0q-9 0 -14 -8q-4 -9 1 -17l32 -48v0q5 -7 13 -7t13 7v0zM368 399q-32 10 -80 10q-47 0 -80 -10v-22v0q-1 -15 -16 -16h-16v0q-14 1 -16 15q-27 -19 -39 -39t-15 -32q-2 -8 4 -14q10 -8 22 -2
q14 8 41 19q28 11 67 18v19v0q1 15 16 16h16v0q15 -1 16 -16v-16v0q59 -1 98 -15q40 -14 58 -25q12 -7 22 2q6 6 4 14q-3 12 -15 32t-39 39q-2 -14 -16 -15h-16v0q-15 1 -16 16v21v1z" />
</svg>
