<?xml version="1.0" standalone="no"?>
<!DOCTYPE svg PUBLIC "-//W3C//DTD SVG 1.1//EN" "http://www.w3.org/Graphics/SVG/1.1/DTD/svg11.dtd" >
<svg xmlns="http://www.w3.org/2000/svg" xmlns:xlink="http://www.w3.org/1999/xlink" version="1.1" viewBox="-10 -40 532 512">
   <path fill="currentColor"
d="M288 -7v179v-179v179l41 -42v0q10 -9 23 -9t23 9q9 10 9 23t-9 23l-96 96v0q-10 9 -23 9t-23 -9l-96 -96v0q-9 -10 -9 -23t9 -23q10 -9 23 -9t23 9l41 42v0v-179v0q0 -14 9 -23t23 -9t23 9t9 23v0zM48 281h76h-76h76q20 1 29 18l14 28v0q9 17 29 18h120v0q20 -1 29 -18
l14 -28v0q9 -17 29 -18h76v0q20 1 34 14q13 14 14 34v96v0q-1 20 -14 34q-14 13 -34 14h-416v0q-20 -1 -34 -14q-13 -14 -14 -34v-96v0q1 -20 14 -34q14 -13 34 -14v0z" />
</svg>
