<?xml version="1.0" standalone="no"?>
<!DOCTYPE svg PUBLIC "-//W3C//DTD SVG 1.1//EN" "http://www.w3.org/Graphics/SVG/1.1/DTD/svg11.dtd" >
<svg xmlns="http://www.w3.org/2000/svg" xmlns:xlink="http://www.w3.org/1999/xlink" version="1.1" viewBox="-10 -40 596 512">
   <path fill="currentColor"
d="M0 25q1 -27 19 -45v0v0q18 -18 45 -19h160v0v128v0q0 14 9 23t23 9h128v0v140v0l-95 94v0q-12 13 -16 30l-15 60v0q-4 14 1 28h-195v0q-27 -1 -45 -19t-19 -45v-384v0zM384 89h-128h128h-128v-128v0l128 128v0zM550 197l14 14l-14 -14l14 14q12 12 12 28t-12 29l-29 29v0
l-71 -71v0l29 -29v0q13 -12 28 -12q16 0 29 12v0zM312 378l129 -129l-129 129l129 -129l71 71v0l-129 129v0q-6 6 -15 8l-60 15v0q-9 2 -15 -4t-5 -15l15 -60v0q3 -9 9 -15v0z" />
</svg>
