<?xml version="1.0" standalone="no"?>
<!DOCTYPE svg PUBLIC "-//W3C//DTD SVG 1.1//EN" "http://www.w3.org/Graphics/SVG/1.1/DTD/svg11.dtd" >
<svg xmlns="http://www.w3.org/2000/svg" xmlns:xlink="http://www.w3.org/1999/xlink" version="1.1" viewBox="-10 -40 532 512">
   <path fill="currentColor"
d="M0 217q1 70 34 128v0v0q34 58 94 94q61 34 128 34t128 -34q60 -36 94 -94q33 -58 34 -128q-1 -70 -34 -128q-34 -58 -94 -94q-61 -34 -128 -34t-128 34q-60 36 -94 94q-33 58 -34 128v0zM368 217q0 10 -8 18l-112 104v0q-11 10 -26 4q-13 -7 -14 -22v-208v0q1 -15 14 -22
q15 -6 26 4l112 104v0q8 8 8 18v0z" />
</svg>
