<?xml version="1.0" standalone="no"?>
<!DOCTYPE svg PUBLIC "-//W3C//DTD SVG 1.1//EN" "http://www.w3.org/Graphics/SVG/1.1/DTD/svg11.dtd" >
<svg xmlns="http://www.w3.org/2000/svg" xmlns:xlink="http://www.w3.org/1999/xlink" version="1.1" viewBox="-10 -40 468 512">
   <path fill="currentColor"
d="M96 -7v32v-32v32h-48v0q-20 1 -34 14q-13 14 -14 34v48v0h448v0v-48v0q-1 -20 -14 -34q-14 -13 -34 -14h-48v0v-32v0q0 -14 -9 -23t-23 -9t-23 9t-9 23v32v0h-128v0v-32v0q0 -14 -9 -23t-23 -9t-23 9t-9 23v0zM448 153h-448h448h-448v272v0q1 20 14 34q14 13 34 14h352v0
q20 -1 34 -14q13 -14 14 -34v-272v0zM192 393q0 -14 9 -23v0v0q9 -9 23 -9t23 9t9 23t-9 23t-23 9t-23 -9t-9 -23v0zM248 217v96v-96v96q-2 22 -24 24q-22 -2 -24 -24v-96v0q2 -22 24 -24q22 2 24 24v0z" />
</svg>
