<?xml version="1.0" standalone="no"?>
<!DOCTYPE svg PUBLIC "-//W3C//DTD SVG 1.1//EN" "http://www.w3.org/Graphics/SVG/1.1/DTD/svg11.dtd" >
<svg xmlns="http://www.w3.org/2000/svg" xmlns:xlink="http://www.w3.org/1999/xlink" version="1.1" viewBox="-10 -40 468 512">
   <path fill="currentColor"
d="M0 377q1 27 19 45v0v0q18 18 45 19h320v0q27 -1 45 -19t19 -45v-320v0q-1 -27 -19 -45t-45 -19h-320v0q-27 1 -45 19t-19 45v320v0zM87 200l112 -112l-112 112l112 -112q17 -14 34 0q14 17 0 34l-71 71v0h182v0q22 2 24 24q-2 22 -24 24h-182v0l71 71v0q14 17 0 34
q-17 14 -34 0l-112 -112v0q-14 -17 0 -34v0z" />
</svg>
