<?xml version="1.0" standalone="no"?>
<!DOCTYPE svg PUBLIC "-//W3C//DTD SVG 1.1//EN" "http://www.w3.org/Graphics/SVG/1.1/DTD/svg11.dtd" >
<svg xmlns="http://www.w3.org/2000/svg" xmlns:xlink="http://www.w3.org/1999/xlink" version="1.1" viewBox="-10 -40 532 512">
   <path fill="currentColor"
d="M32 217q-14 0 -23 -9v0v0q-9 -9 -9 -23q2 -68 47 -113t113 -47h160v0v-32v0q1 -21 20 -30q19 -7 35 7l64 64v0q9 10 9 23t-9 23l-64 64v0q-16 14 -35 7q-19 -9 -20 -30v-32v0h-160v0q-41 1 -68 28t-28 68q0 14 -9 23t-23 9v0zM480 217q14 0 23 9v0v0q9 9 9 23
q-2 68 -47 113t-113 47h-160v0v32v0q-1 21 -20 30q-19 7 -35 -7l-64 -64v0q-9 -10 -9 -23t9 -23l64 -64v0q16 -14 35 -6t20 29v32v0h160v0q41 -1 68 -28t28 -68q0 -14 9 -23t23 -9v0zM288 177v80v-80v80q-2 22 -24 24q-22 -2 -24 -24v-48v0q-16 -1 -23 -16q-5 -22 15 -31
l24 -8v0q12 -3 22 4t10 19v0z" />
</svg>
