<?xml version="1.0" standalone="no"?>
<!DOCTYPE svg PUBLIC "-//W3C//DTD SVG 1.1//EN" "http://www.w3.org/Graphics/SVG/1.1/DTD/svg11.dtd" >
<svg xmlns="http://www.w3.org/2000/svg" xmlns:xlink="http://www.w3.org/1999/xlink" version="1.1" viewBox="-11 0 662 512">
   <path fill="currentColor"
d="M39 -34q-19 -12 -34 4q-12 19 4 34l592 464v0q19 12 34 -4q12 -19 -4 -34l-88 -69v0q32 -23 33 -64v-16v0q14 0 23 -9t9 -23v-64v0q0 -14 -9 -23t-23 -9v-16v0q-1 -34 -23 -57q-23 -22 -57 -23h-341v0l-116 -91v0zM236 121h260h-260h260q15 1 16 16v160v0q-1 15 -16 16
h-15v0l-245 -192v0zM325 313h-213h213h-213q-15 -1 -16 -16v-160v0q0 -2 1 -4l-52 -40v0q-13 19 -13 44v160v0q1 34 23 57q23 22 57 23h294v0l-81 -64v0z" />
</svg>
