<?xml version="1.0" standalone="no"?>
<!DOCTYPE svg PUBLIC "-//W3C//DTD SVG 1.1//EN" "http://www.w3.org/Graphics/SVG/1.1/DTD/svg11.dtd" >
<svg xmlns="http://www.w3.org/2000/svg" xmlns:xlink="http://www.w3.org/1999/xlink" version="1.1" viewBox="-10 -40 394 512">
   <path fill="currentColor"
d="M16 25q1 -27 19 -45v0v0q18 -18 45 -19h224v0q27 1 45 19t19 45v384v0q-1 27 -19 45t-45 19h-224v0q-27 -1 -45 -19t-19 -45v-384v0zM224 409q0 -14 -9 -23v0v0q-9 -9 -23 -9t-23 9t-9 23t9 23t23 9t23 -9t9 -23v0zM304 25h-224h224h-224v320v0h224v0v-320v0z" />
</svg>
