<?xml version="1.0" standalone="no"?>
<!DOCTYPE svg PUBLIC "-//W3C//DTD SVG 1.1//EN" "http://www.w3.org/Graphics/SVG/1.1/DTD/svg11.dtd" >
<svg xmlns="http://www.w3.org/2000/svg" xmlns:xlink="http://www.w3.org/1999/xlink" version="1.1" viewBox="-10 -40 394 512">
   <path fill="currentColor"
d="M80 -39q-27 1 -45 19v0v0q-18 18 -19 45v384v0q1 27 19 45t45 19h224v0q27 -1 45 -19t19 -45v-384v0q-1 -27 -19 -45t-45 -19h-224v0zM160 393h64h-64h64q15 1 16 16q-1 15 -16 16h-64v0q-15 -1 -16 -16q1 -15 16 -16v0z" />
</svg>
