<?xml version="1.0" standalone="no"?>
<!DOCTYPE svg PUBLIC "-//W3C//DTD SVG 1.1//EN" "http://www.w3.org/Graphics/SVG/1.1/DTD/svg11.dtd" >
<svg xmlns="http://www.w3.org/2000/svg" xmlns:xlink="http://www.w3.org/1999/xlink" version="1.1" viewBox="-10 -40 522 512">
   <path fill="currentColor"
d="M96 -39q14 0 23 9v0v0q9 9 9 23v55v0q22 9 35 29q13 19 13 44t-13 44q-13 20 -35 29v247v0q0 14 -9 23t-23 9t-23 -9t-9 -23v-247v0q-22 -9 -35 -29q-13 -19 -13 -44t13 -44q13 -20 35 -29v-55v0q0 -14 9 -23t23 -9v0zM96 153q14 0 23 -9v0v0q9 -9 9 -23t-9 -23t-23 -9
t-23 9t-9 23t9 23t23 9v0zM256 345q14 0 23 -9v0v0q9 -9 9 -23t-9 -23t-23 -9t-23 9t-9 23t9 23t23 9v0zM336 313q0 25 -13 44v0v0q-13 20 -35 29v55v0q0 14 -9 23t-23 9t-23 -9t-9 -23v-55v0q-22 -9 -35 -29q-13 -19 -13 -44t13 -44q13 -20 35 -29v-247v0q0 -14 9 -23
t23 -9t23 9t9 23v247v0q22 9 35 29q13 19 13 44v0zM448 153q0 -14 -9 -23v0v0q-9 -9 -23 -9t-23 9t-9 23t9 23t23 9t23 -9t9 -23v0zM448 226v215v-215v215q0 14 -9 23t-23 9t-23 -9t-9 -23v-215v0q-22 -9 -35 -29q-13 -19 -13 -44t13 -44q13 -20 35 -29v-87v0q0 -14 9 -23
t23 -9t23 9t9 23v87v0q22 9 35 29q13 19 13 44t-13 44q-13 20 -35 29v0z" />
</svg>
