<?xml version="1.0" standalone="no"?>
<!DOCTYPE svg PUBLIC "-//W3C//DTD SVG 1.1//EN" "http://www.w3.org/Graphics/SVG/1.1/DTD/svg11.dtd" >
<svg xmlns="http://www.w3.org/2000/svg" xmlns:xlink="http://www.w3.org/1999/xlink" version="1.1" viewBox="-10 -40 532 512">
   <path fill="currentColor"
d="M224 -7q0 -14 9 -23v0v0q9 -9 23 -9q72 1 129 35q58 34 92 92q34 57 35 129q-1 71 -34 128q-7 12 -20 15q-12 3 -24 -3q-12 -7 -15 -20q-3 -12 3 -24q25 -43 26 -96q-2 -82 -56 -136t-136 -56q-14 0 -23 -9t-9 -23v0z" />
</svg>
