<?xml version="1.0" standalone="no"?>
<!DOCTYPE svg PUBLIC "-//W3C//DTD SVG 1.1//EN" "http://www.w3.org/Graphics/SVG/1.1/DTD/svg11.dtd" >
<svg xmlns="http://www.w3.org/2000/svg" xmlns:xlink="http://www.w3.org/1999/xlink" version="1.1" viewBox="-10 -40 532 512">
   <path fill="currentColor"
d="M512 57q-1 -27 -19 -45v0v0q-18 -18 -45 -19h-384v0q-27 1 -45 19t-19 45v320v0q1 27 19 45t45 19h384v0q27 -1 45 -19t19 -45v-320v0zM96 57q14 0 23 9v0v0q9 9 9 23t-9 23t-23 9t-23 -9t-9 -23t9 -23t23 -9v0zM160 89q0 -14 9 -23v0v0q9 -9 23 -9t23 9t9 23t-9 23
t-23 9t-23 -9t-9 -23v0zM288 57q14 0 23 9v0v0q9 9 9 23t-9 23t-23 9t-23 -9t-9 -23t9 -23t23 -9v0z" />
</svg>
