<?xml version="1.0" standalone="no"?>
<!DOCTYPE svg PUBLIC "-//W3C//DTD SVG 1.1//EN" "http://www.w3.org/Graphics/SVG/1.1/DTD/svg11.dtd" >
<svg xmlns="http://www.w3.org/2000/svg" xmlns:xlink="http://www.w3.org/1999/xlink" version="1.1" viewBox="-10 -40 596 512">
   <path fill="currentColor"
d="M224 89q0 -14 9 -23v0v0q9 -9 23 -9h128v0q14 0 23 -9t9 -23t-9 -23t-23 -9h-128v0q-41 1 -68 28t-28 68v32v0q-27 1 -45 19t-19 45q-41 1 -68 28t-28 68v16v0h576v0v-16v0q-1 -41 -28 -68t-68 -28q-1 -27 -19 -45t-45 -19h-192v0v-32v0zM576 329h-576h576h-576v16v0
q1 41 28 68t68 28h384v0q41 -1 68 -28t28 -68v-16v0z" />
</svg>
