<?xml version="1.0" standalone="no"?>
<!DOCTYPE svg PUBLIC "-//W3C//DTD SVG 1.1//EN" "http://www.w3.org/Graphics/SVG/1.1/DTD/svg11.dtd" >
<svg xmlns="http://www.w3.org/2000/svg" xmlns:xlink="http://www.w3.org/1999/xlink" version="1.1" viewBox="-10 -40 532 512">
   <path fill="currentColor"
d="M491 -30q17 12 20 30v0v0q4 19 -8 36l-52 76v0l-80 -53v0l53 -77v0q12 -17 31 -20q19 -4 36 7v1zM353 85l80 53l-80 -53l80 53l-192 278v0q-19 27 -47 42t-61 15q-57 -1 -94 -39t-38 -94v-2v0q0 -40 21 -73l18 -26v0q11 -17 30 -21t36 7t21 30t-7 36l-17 27v0q-6 9 -6 20
v3v0q0 15 10 25t26 11q18 -1 29 -16l191 -276v0zM432 313q45 1 69 40q22 40 0 80q-24 39 -69 40q-45 -1 -69 -40q-22 -40 0 -80q24 -39 69 -40v0z" />
</svg>
