<?xml version="1.0" standalone="no"?>
<!DOCTYPE svg PUBLIC "-//W3C//DTD SVG 1.1//EN" "http://www.w3.org/Graphics/SVG/1.1/DTD/svg11.dtd" >
<svg xmlns="http://www.w3.org/2000/svg" xmlns:xlink="http://www.w3.org/1999/xlink" version="1.1" viewBox="-10 -40 404 512">
   <path fill="currentColor"
d="M384 153q-1 51 -24 92v0v0q-23 42 -62 68h-212v0q-39 -26 -62 -68q-23 -41 -24 -92q2 -82 56 -136t136 -56q82 2 136 56t56 136v0zM242 218q0 14 -10 23v0v0q-9 10 -23 10q-10 2 -6 9q9 8 22 8q15 0 24 -10q9 -9 10 -24q0 -13 -9 -22q-6 -3 -8 6v0zM190 168q-9 2 -6 9
q10 8 23 8q14 0 23 -10q10 -9 10 -23q0 -13 -8 -23q-7 -3 -9 6q0 14 -10 24q-9 9 -23 9v0zM303 151q0 14 -10 23v0v0q-9 10 -23 10q-9 2 -6 9q10 8 23 8q14 0 23 -10q10 -9 10 -23q0 -13 -8 -23q-7 -3 -9 6v0zM96 377q0 -14 9 -23v0v0q9 -9 23 -9h64h64q14 0 23 9t9 23
t-9 23t-23 9h-16v0q-15 1 -16 16v16v0q0 14 -9 23t-23 9t-23 -9t-9 -23v-16v0q-1 -15 -16 -16h-16v0q-14 0 -23 -9t-9 -23v0z" />
</svg>
