<?xml version="1.0" standalone="no"?>
<!DOCTYPE svg PUBLIC "-//W3C//DTD SVG 1.1//EN" "http://www.w3.org/Graphics/SVG/1.1/DTD/svg11.dtd" >
<svg xmlns="http://www.w3.org/2000/svg" xmlns:xlink="http://www.w3.org/1999/xlink" version="1.1" viewBox="-10 -40 532 512">
   <path fill="currentColor"
d="M509 7q5 -12 1 -24v0v0q-4 -12 -16 -19q-12 -5 -24 -1t-19 16l-187 375v0v-1v0l-222 -74v0q-16 -5 -29 4q-12 10 -13 26v28v0h48v0q15 1 16 16q-1 15 -16 16h-48v0v32v0h48v0q15 1 16 16q-1 15 -16 16h-48v0v8v0q0 14 9 23t23 9h223v0q20 0 30 -18l224 -448v0z" />
</svg>
