<?xml version="1.0" standalone="no"?>
<!DOCTYPE svg PUBLIC "-//W3C//DTD SVG 1.1//EN" "http://www.w3.org/Graphics/SVG/1.1/DTD/svg11.dtd" >
<svg xmlns="http://www.w3.org/2000/svg" xmlns:xlink="http://www.w3.org/1999/xlink" version="1.1" viewBox="-10 -40 596 512">
   <path fill="currentColor"
d="M567 -30q9 10 9 23v0v0q0 13 -9 23l-192 192v0l34 34v0q7 7 7 16q-2 21 -23 23h-29v0l-108 -108v0v-29v0q2 -21 23 -23q9 0 16 7l34 34v0l192 -192v0q10 -9 23 -9t23 9v0zM223 196l118 118l-118 -118l118 118q5 67 -42 116q-43 42 -103 43h-174v0q-20 -2 -22 -22
q0 -10 7 -17l127 -113v0q3 -3 0 -7q-2 -3 -6 -1l-51 25v0q-11 4 -13 -8q1 -49 35 -84l8 -8v0q49 -47 116 -42v0zM464 313q45 1 69 40q22 40 0 80q-24 39 -69 40q-45 -1 -69 -40q-22 -40 0 -80q24 -39 69 -40v0z" />
</svg>
