<?xml version="1.0" standalone="no"?>
<!DOCTYPE svg PUBLIC "-//W3C//DTD SVG 1.1//EN" "http://www.w3.org/Graphics/SVG/1.1/DTD/svg11.dtd" >
<svg xmlns="http://www.w3.org/2000/svg" xmlns:xlink="http://www.w3.org/1999/xlink" version="1.1" viewBox="-10 -40 660 512">
   <path fill="currentColor"
d="M44 150q-19 -7 -32 -23v0v0q-12 -16 -12 -38q1 -27 19 -45t45 -19q37 2 55 31q46 -30 105 -31q12 0 23 1q1 0 2 1q57 7 104 43l69 55v0q8 7 6 17l-7 24v0q-4 19 11 31q16 11 33 2l19 -12v0q10 -5 19 1l127 101v0q10 8 10 22q0 10 -7 18l-63 70v0q-10 10 -24 10h-2v0
q-8 0 -15 -3l-148 -78v0q-27 37 -67 59q-41 22 -90 22q-82 -2 -136 -56t-56 -136q0 -36 12 -67v0zM80 89q-1 -15 -16 -16q-15 1 -16 16q1 15 16 16q15 -1 16 -16v0zM224 281q36 -1 55 -32q18 -32 0 -64q-19 -31 -55 -32q-36 1 -55 32q-18 32 0 64q19 31 55 32v0z" />
</svg>
