<?xml version="1.0" standalone="no"?>
<!DOCTYPE svg PUBLIC "-//W3C//DTD SVG 1.1//EN" "http://www.w3.org/Graphics/SVG/1.1/DTD/svg11.dtd" >
<svg xmlns="http://www.w3.org/2000/svg" xmlns:xlink="http://www.w3.org/1999/xlink" version="1.1" viewBox="-10 -40 660 512">
   <path fill="currentColor"
d="M64 -7q0 -14 9 -23v0v0q9 -9 23 -9h192v0q14 0 23 9t9 23v192v0q0 14 -9 23t-23 9h-192v0q-14 0 -23 -9t-9 -23v-192v0zM384 57q0 -14 9 -23v0v0q9 -9 23 -9h128v0q14 0 23 9t9 23v128v0q0 14 -9 23t-23 9h-128v0q-14 0 -23 -9t-9 -23v-128v0zM0 377q1 -41 28 -68v0v0
q27 -27 68 -28h448v0q41 1 68 28t28 68q-1 41 -28 68t-68 28h-448v0q-41 -1 -68 -28t-28 -68v0zM160 377q0 -14 -9 -23v0v0q-9 -9 -23 -9t-23 9t-9 23t9 23t23 9t23 -9t9 -23v0zM320 409q14 0 23 -9v0v0q9 -9 9 -23t-9 -23t-23 -9t-23 9t-9 23t9 23t23 9v0zM544 377
q0 -14 -9 -23v0v0q-9 -9 -23 -9t-23 9t-9 23t9 23t23 9t23 -9t9 -23v0z" />
</svg>
