<?xml version="1.0" standalone="no"?>
<!DOCTYPE svg PUBLIC "-//W3C//DTD SVG 1.1//EN" "http://www.w3.org/Graphics/SVG/1.1/DTD/svg11.dtd" >
<svg xmlns="http://www.w3.org/2000/svg" xmlns:xlink="http://www.w3.org/1999/xlink" version="1.1" viewBox="-11 0 598 512">
   <path fill="currentColor"
d="M288 137q50 -2 76 -44q24 -44 0 -88q-26 -42 -76 -44q-50 2 -76 44q-24 44 0 88q26 42 76 44v0zM79 334q11 -10 36 -24v0v0q25 -14 61 -26v109v0h224v0v-109v0q36 12 61 26t36 24q16 12 35 11q19 -2 33 -17q13 -16 11 -35t-17 -33q-18 -16 -53 -35q-14 23 -42 24
q-20 -1 -34 -14q-13 -14 -14 -34q0 -6 2 -12q-59 -19 -130 -20q-91 2 -160 30v1v1q-1 20 -14 34q-14 13 -34 14q-18 0 -31 -11q-20 12 -32 22q-15 14 -17 33q-1 19 11 35q14 15 33 17q19 1 35 -11v0zM24 425q-22 2 -24 24q2 22 24 24h528v0q22 -2 24 -24q-2 -22 -24 -24
h-528v0zM224 241q2 -22 24 -24q22 2 24 24q-2 22 -24 24q-22 -2 -24 -24v0zM328 297q22 2 24 24q-2 22 -24 24q-22 -2 -24 -24q2 -22 24 -24v0zM96 201q-1 -15 -16 -16q-15 1 -16 16q1 15 16 16q15 -1 16 -16v0zM464 217q15 -1 16 -16q-1 -15 -16 -16q-15 1 -16 16
q1 15 16 16v0z" />
</svg>
