<?xml version="1.0" standalone="no"?>
<!DOCTYPE svg PUBLIC "-//W3C//DTD SVG 1.1//EN" "http://www.w3.org/Graphics/SVG/1.1/DTD/svg11.dtd" >
<svg xmlns="http://www.w3.org/2000/svg" xmlns:xlink="http://www.w3.org/1999/xlink" version="1.1" viewBox="-10 -40 596 512">
   <path fill="currentColor"
d="M32 -39q-14 0 -23 9v0v0q-9 9 -9 23t9 23t23 9h73v0l92 276v0q-35 28 -37 76q1 41 28 68t68 28q40 -1 67 -28q27 -26 29 -66l202 -68v0q13 -4 19 -16q5 -11 1 -24t-16 -19q-11 -5 -24 -1l-202 67v0q-28 -35 -74 -37l-92 -276v0q-7 -20 -24 -32q-16 -12 -37 -12h-73v0z
" />
</svg>
