<?xml version="1.0" standalone="no"?>
<!DOCTYPE svg PUBLIC "-//W3C//DTD SVG 1.1//EN" "http://www.w3.org/Graphics/SVG/1.1/DTD/svg11.dtd" >
<svg xmlns="http://www.w3.org/2000/svg" xmlns:xlink="http://www.w3.org/1999/xlink" version="1.1" viewBox="-10 -40 660 512">
   <path fill="currentColor"
d="M32 -39q-14 0 -23 9v0v0q-9 9 -9 23t9 23t23 9h16v0q15 1 16 16v288v0q1 34 23 57q23 22 57 23h19v0q-3 8 -3 16q1 20 14 34q14 13 34 14q20 -1 34 -14q13 -14 14 -34q0 -8 -3 -16h198v0q-3 8 -3 16q1 20 14 34q14 13 34 14q20 -1 34 -14q13 -14 14 -34q0 -8 -3 -16h67v0
q14 0 23 -9t9 -23t-9 -23t-23 -9h-464v0q-15 -1 -16 -16v-288v0q-1 -34 -23 -57q-23 -22 -57 -23h-16v0zM192 41v192v-192v192q1 20 14 34q14 13 34 14h320v0q20 -1 34 -14q13 -14 14 -34v-192v0q-1 -20 -14 -34q-14 -13 -34 -14h-96v0v144v0q0 9 -8 14q-9 4 -17 -1l-39 -26
v0l-39 26v0q-8 5 -16 1q-9 -5 -9 -14v-144v0h-96v0q-20 1 -34 14q-13 14 -14 34v0z" />
</svg>
