<?xml version="1.0" standalone="no"?>
<!DOCTYPE svg PUBLIC "-//W3C//DTD SVG 1.1//EN" "http://www.w3.org/Graphics/SVG/1.1/DTD/svg11.dtd" >
<svg xmlns="http://www.w3.org/2000/svg" xmlns:xlink="http://www.w3.org/1999/xlink" version="1.1" viewBox="-10 -40 522 512">
   <path fill="currentColor"
d="M96 313v-256v256v-256q1 -27 19 -45t45 -19h256v0q27 1 45 19t19 45v198v0q0 26 -19 45l-58 58v0q-19 19 -45 19h-198v0q-27 -1 -45 -19t-19 -45v0zM272 89q-15 1 -16 16v48v0h-48v0q-15 1 -16 16v32v0q1 15 16 16h48v0v48v0q1 15 16 16h32v0q15 -1 16 -16v-48v0h48v0
q15 -1 16 -16v-32v0q-1 -15 -16 -16h-48v0v-48v0q-1 -15 -16 -16h-32v0zM296 425q22 2 24 24q-2 22 -24 24h-160v0q-58 -1 -96 -40q-39 -38 -40 -96v-224v0q2 -22 24 -24q22 2 24 24v224v0q1 37 26 62t62 26h160v0z" />
</svg>
