<?xml version="1.0" standalone="no"?>
<!DOCTYPE svg PUBLIC "-//W3C//DTD SVG 1.1//EN" "http://www.w3.org/Graphics/SVG/1.1/DTD/svg11.dtd" >
<svg xmlns="http://www.w3.org/2000/svg" xmlns:xlink="http://www.w3.org/1999/xlink" version="1.1" viewBox="-10 -40 404 512">
   <path fill="currentColor"
d="M0 -7q0 -14 9 -23v0v0q9 -9 23 -9h320v0q14 0 23 9t9 23v32v0q0 14 -9 23t-23 9h-320v0q-14 0 -23 -9t-9 -23v-32v0zM32 89h320h-320h320v320v0q-1 27 -19 45t-45 19h-192v0q-27 -1 -45 -19t-19 -45v-32v0h112v0q15 -1 16 -16q-1 -15 -16 -16h-112v0v-64v0h112v0
q15 -1 16 -16q-1 -15 -16 -16h-112v0v-64v0h112v0q15 -1 16 -16q-1 -15 -16 -16h-112v0v-64v0z" />
</svg>
