<?xml version="1.0" standalone="no"?>
<!DOCTYPE svg PUBLIC "-//W3C//DTD SVG 1.1//EN" "http://www.w3.org/Graphics/SVG/1.1/DTD/svg11.dtd" >
<svg xmlns="http://www.w3.org/2000/svg" xmlns:xlink="http://www.w3.org/1999/xlink" version="1.1" viewBox="-10 -40 660 512">
   <path fill="currentColor"
d="M112 -39q-20 1 -34 14v0v0q-13 14 -14 34v48v0h-48v0q-15 1 -16 16q1 15 16 16h48h208q15 1 16 16q-1 15 -16 16h-208h-16q-15 1 -16 16q1 15 16 16h16h176q15 1 16 16q-1 15 -16 16h-176h-48q-15 1 -16 16q1 15 16 16h48h144q15 1 16 16q-1 15 -16 16h-144v0v128v0
q1 41 28 68t68 28q41 -1 68 -28t28 -68h128v0q1 41 28 68t68 28q41 -1 68 -28t28 -68h32v0q14 0 23 -9t9 -23t-9 -23t-23 -9v-64v0v-32v0v-19v0q0 -26 -19 -45l-77 -77v0q-19 -19 -45 -19h-51v0v-48v0q-1 -20 -14 -34q-14 -13 -34 -14h-256v0zM544 198v19v-19v19h-128v0v-96
v0h51v0l77 77v0zM160 329q27 1 42 24q12 24 0 48q-15 23 -42 24q-27 -1 -42 -24q-12 -24 0 -48q15 -23 42 -24v0zM432 377q1 -27 24 -42q24 -12 48 0q23 15 24 42q-1 27 -24 42q-24 12 -48 0q-23 -15 -24 -42v0z" />
</svg>
