<?xml version="1.0" standalone="no"?>
<!DOCTYPE svg PUBLIC "-//W3C//DTD SVG 1.1//EN" "http://www.w3.org/Graphics/SVG/1.1/DTD/svg11.dtd" >
<svg xmlns="http://www.w3.org/2000/svg" xmlns:xlink="http://www.w3.org/1999/xlink" version="1.1" viewBox="-10 -40 468 512">
   <path fill="currentColor"
d="M32 137l-23 -12l23 12l-23 -12q-9 -4 -9 -14v-76v0q0 -10 9 -14l25 -13v0q6 -21 23 -34t39 -13h256v0q22 0 39 13t23 34l25 13v0q9 4 9 14v76v0q0 10 -9 14l-23 12v0v16v0l23 12v0q9 4 9 14v76v0q0 10 -9 14l-23 12v0v16v0l23 12v0q9 4 9 14v76v0q0 10 -9 14l-25 13v0
q-6 21 -23 34t-39 13h-256v0q-22 0 -39 -13t-23 -34l-25 -13v0q-9 -4 -9 -14v-76v0q0 -10 9 -14l23 -12v0v-16v0l-23 -12v0q-9 -4 -9 -14v-76v0q0 -10 9 -14l23 -12v0v-16v0zM112 25q-15 1 -16 16v352v0q1 15 16 16h224v0q15 -1 16 -16v-352v0q-1 -15 -16 -16h-224v0z" />
</svg>
