<?xml version="1.0" standalone="no"?>
<!DOCTYPE svg PUBLIC "-//W3C//DTD SVG 1.1//EN" "http://www.w3.org/Graphics/SVG/1.1/DTD/svg11.dtd" >
<svg xmlns="http://www.w3.org/2000/svg" xmlns:xlink="http://www.w3.org/1999/xlink" version="1.1" viewBox="-10 -40 660 512">
   <path fill="currentColor"
d="M614 208q25 -38 26 -87q-2 -68 -47 -113t-113 -47q-49 1 -87 26q-12 10 -2 23l200 200v0q13 10 23 -2v0zM567 255q12 -10 2 -23l-200 -200v0q-13 -10 -23 2q-25 38 -26 87q2 68 47 113t113 47q49 -1 87 -26v0zM302 329h-283h283h-283q-17 2 -15 18q12 55 55 90
q42 35 101 36q59 -1 101 -36q43 -35 56 -90q1 -16 -15 -18v0zM302 297q16 -2 15 -17q-13 -56 -56 -91q-42 -35 -101 -36q-59 1 -101 36q-43 35 -55 91q-2 15 15 17h283v0z" />
</svg>
