<?xml version="1.0" standalone="no"?>
<!DOCTYPE svg PUBLIC "-//W3C//DTD SVG 1.1//EN" "http://www.w3.org/Graphics/SVG/1.1/DTD/svg11.dtd" >
<svg xmlns="http://www.w3.org/2000/svg" xmlns:xlink="http://www.w3.org/1999/xlink" version="1.1" viewBox="-10 -40 468 512">
   <path fill="currentColor"
d="M0 89v224v-224v224q1 54 37 91q37 36 91 37h288v0q14 0 23 -9t9 -23t-9 -23t-23 -9h-288v0q-27 -1 -45 -19t-19 -45q1 -27 19 -45t45 -19h240v0q15 1 16 16q-1 15 -16 16h-240v0q-14 0 -23 9t-9 23t9 23t23 9h240v0q34 -1 57 -23q22 -23 23 -57v-176v0q-1 -41 -28 -68
t-68 -28h-256v0q-41 1 -68 28t-28 68v0z" />
</svg>
