<?xml version="1.0" standalone="no"?>
<!DOCTYPE svg PUBLIC "-//W3C//DTD SVG 1.1//EN" "http://www.w3.org/Graphics/SVG/1.1/DTD/svg11.dtd" >
<svg xmlns="http://www.w3.org/2000/svg" xmlns:xlink="http://www.w3.org/1999/xlink" version="1.1" viewBox="-10 -40 532 512">
   <path fill="currentColor"
d="M0 25q1 -27 19 -45v0v0q18 -18 45 -19h384v0q27 1 45 19t19 45v288v0q-1 27 -19 45t-45 19h-139v0l-123 93v0q-8 5 -17 1t-9 -14v-80v0h-96v0q-27 -1 -45 -19t-19 -45v-288v0zM152 105q-22 2 -24 24q2 22 24 24h208v0q22 -2 24 -24q-2 -22 -24 -24h-208v0zM152 201
q-22 2 -24 24q2 22 24 24h112v0q22 -2 24 -24q-2 -22 -24 -24h-112v0z" />
</svg>
