<?xml version="1.0" standalone="no"?>
<!DOCTYPE svg PUBLIC "-//W3C//DTD SVG 1.1//EN" "http://www.w3.org/Graphics/SVG/1.1/DTD/svg11.dtd" >
<svg xmlns="http://www.w3.org/2000/svg" xmlns:xlink="http://www.w3.org/1999/xlink" version="1.1" viewBox="-10 -40 532 512">
   <path fill="currentColor"
d="M0 25q1 -27 19 -45v0v0q18 -18 45 -19h384v0q27 1 45 19t19 45v288v0q-1 27 -19 45t-45 19h-139v0l-123 93v0q-8 5 -17 1t-9 -14v-80v0h-96v0q-27 -1 -45 -19t-19 -45v-288v0zM175 88q-14 17 0 34l47 47v0l-47 47v0q-14 17 0 34q17 14 34 0l47 -47v0l47 47v0q17 14 34 0
q14 -17 0 -34l-47 -47v0l47 -47v0q14 -17 0 -34q-17 -14 -34 0l-47 47v0l-47 -47v0q-17 -14 -34 0v0z" />
</svg>
