<?xml version="1.0" standalone="no"?>
<!DOCTYPE svg PUBLIC "-//W3C//DTD SVG 1.1//EN" "http://www.w3.org/Graphics/SVG/1.1/DTD/svg11.dtd" >
<svg xmlns="http://www.w3.org/2000/svg" xmlns:xlink="http://www.w3.org/1999/xlink" version="1.1" viewBox="-11 0 662 512">
   <path fill="currentColor"
d="M39 -34q-19 -12 -34 4q-12 19 4 34l592 464v0q19 12 34 -4q12 -19 -4 -34l-118 -92v0q61 -57 63 -137q-1 -58 -35 -105t-92 -75q-57 -27 -129 -28q-104 2 -175 56l-106 -83v0zM424 391l-341 -269l341 269l-341 -269q-19 37 -19 79q1 69 48 121q-5 37 -22 63q-8 14 -15 21
q-3 4 -5 6q0 1 -1 1v1v0v0v0v0v0v0v0v0v0v0q-7 7 -4 17q5 10 15 10q44 -2 82 -19q35 -16 54 -31q48 18 104 18t104 -18v0z" />
</svg>
