<?xml version="1.0" standalone="no"?>
<!DOCTYPE svg PUBLIC "-//W3C//DTD SVG 1.1//EN" "http://www.w3.org/Graphics/SVG/1.1/DTD/svg11.dtd" >
<svg xmlns="http://www.w3.org/2000/svg" xmlns:xlink="http://www.w3.org/1999/xlink" version="1.1" viewBox="-10 -40 660 512">
   <path fill="currentColor"
d="M64 -39q-27 1 -45 19v0v0q-18 18 -19 45v192v0q1 27 19 45t45 19h32v0v48v0q0 10 9 14t17 -1l81 -61v0h149v0q27 -1 45 -19t19 -45v-192v0q-1 -27 -19 -45t-45 -19h-288v0zM352 313h-96h96h-96v32v0q1 27 19 45t45 19h117v0l81 61v0q8 5 17 1t9 -14v-48v0h32v0
q27 -1 45 -19t19 -45v-192v0q-1 -27 -19 -45t-45 -19h-128v0v128v0q-1 41 -28 68t-68 28v0z" />
</svg>
