<?xml version="1.0" standalone="no"?>
<!DOCTYPE svg PUBLIC "-//W3C//DTD SVG 1.1//EN" "http://www.w3.org/Graphics/SVG/1.1/DTD/svg11.dtd" >
<svg xmlns="http://www.w3.org/2000/svg" xmlns:xlink="http://www.w3.org/1999/xlink" version="1.1" viewBox="-10 -40 532 512">
   <path fill="currentColor"
d="M327 365q-34 12 -71 12t-71 -12v0v-1q-46 -17 -79 -51q-56 -58 -58 -144q2 -88 61 -147t147 -61q88 2 147 61t61 147q-2 86 -58 144q-1 1 -1 2q-1 0 -2 1q-32 33 -76 49v0zM256 45q-18 2 -20 20v14v0q-12 2 -22 9q-24 12 -26 43q3 30 25 41q18 10 35 14l2 1v0q19 5 28 10
q7 5 6 8q0 8 -6 11q-8 5 -21 5q-16 -1 -35 -9l-8 -2q-18 -4 -25 12q-4 18 13 26l6 2v0v0v0v0q12 5 28 8v15v0q2 18 20 20q18 -2 20 -20v-14v0q12 -2 23 -9q23 -13 25 -45q-3 -30 -25 -41q-18 -11 -37 -15v-1v0q-19 -5 -29 -10q-6 -4 -5 -7q-1 -5 6 -9q9 -5 22 -5q14 0 31 5
q18 3 24 -14q3 -18 -14 -25q-10 -2 -21 -4v-14v0q-2 -18 -20 -20v0zM48 313h16h-16h16q30 39 72 64h-72v0v32v0h192h192v-32v0h-72v0q43 -25 72 -64h16v0q20 1 34 14q13 14 14 34v64v0q-1 20 -14 34q-14 13 -34 14h-416v0q-20 -1 -34 -14q-13 -14 -14 -34v-64v0
q1 -20 14 -34q14 -13 34 -14v0z" />
</svg>
