<?xml version="1.0" standalone="no"?>
<!DOCTYPE svg PUBLIC "-//W3C//DTD SVG 1.1//EN" "http://www.w3.org/Graphics/SVG/1.1/DTD/svg11.dtd" >
<svg xmlns="http://www.w3.org/2000/svg" xmlns:xlink="http://www.w3.org/1999/xlink" version="1.1" viewBox="-10 -40 597 512">
   <path fill="currentColor"
d="M164 98q-22 -24 -22 -54v0v0q0 -31 22 -54q23 -22 53 -22t53 22l18 18v0l18 -18v0q23 -22 53 -22t53 22q22 23 22 54q0 30 -22 54l-101 103v0q-10 10 -23 10t-22 -10l-102 -103v0zM568 297q10 14 8 30v0v0q-3 16 -16 26l-127 94v0q-36 26 -81 26h-160h-160q-14 0 -23 -9
t-9 -23v-64v0q0 -14 9 -23t23 -9h37v0l45 -36v0q35 -28 80 -28h78h80q14 0 23 9t9 23t-9 23t-23 9h-64h-16q-15 1 -16 16q1 15 16 16h121v0l119 -88v0q14 -10 30 -8q16 3 26 16v0zM194 345v0v0v0h-1v0v0h1v0z" />
</svg>
