<?xml version="1.0" standalone="no"?>
<!DOCTYPE svg PUBLIC "-//W3C//DTD SVG 1.1//EN" "http://www.w3.org/Graphics/SVG/1.1/DTD/svg11.dtd" >
<svg xmlns="http://www.w3.org/2000/svg" xmlns:xlink="http://www.w3.org/1999/xlink" version="1.1" viewBox="-10 -40 597 512">
   <path fill="currentColor"
d="M96 -24q1 -14 15 -15h49v0q68 2 113 47t47 113v96v0q0 14 -9 23t-23 9t-23 -9t-9 -23v-96v0h-14v0q-62 -2 -103 -43t-43 -102v0zM480 -24q-1 57 -37 96v0v0q-36 40 -91 48q-2 -69 -42 -119q44 -39 106 -40h50v0q13 1 14 15v0zM568 297q10 14 8 30v0v0q-3 16 -16 26
l-127 94v0q-36 26 -81 26h-160h-160q-14 0 -23 -9t-9 -23v-64v0q0 -14 9 -23t23 -9h37v0l45 -36v0q35 -28 80 -28h78h80q14 0 23 9t9 23t-9 23t-23 9h-64h-16q-15 1 -16 16q1 15 16 16h121v0l119 -88v0q14 -10 30 -8q16 3 26 16v0zM194 345v0v0v0h-1v0v0h1v0z" />
</svg>
