<?xml version="1.0" standalone="no"?>
<!DOCTYPE svg PUBLIC "-//W3C//DTD SVG 1.1//EN" "http://www.w3.org/Graphics/SVG/1.1/DTD/svg11.dtd" >
<svg xmlns="http://www.w3.org/2000/svg" xmlns:xlink="http://www.w3.org/1999/xlink" version="1.1" viewBox="-10 -40 660 512">
   <path fill="currentColor"
d="M344 -15v11v-11v11q10 1 18 4q21 7 17 29q-7 21 -29 17q-17 -5 -30 -5q-12 0 -20 5q-3 2 -3 3q-1 0 -1 2v1v0v0q0 1 3 3q9 4 28 10h1v0q18 4 37 15q24 13 27 45q-2 34 -27 49q-10 6 -21 8v11v0q-2 22 -24 24q-22 -2 -24 -24v-11v0q-14 -4 -24 -8h-2v0v0q-1 -1 -3 -1
q-1 -1 -3 -1q-20 -9 -15 -31q9 -20 31 -15q1 1 3 1l4 2q19 7 34 8q12 0 19 -4q3 -2 3 -3q1 -1 1 -4v0v0q1 -1 -4 -5q-8 -5 -27 -10l-2 -1v0q-18 -4 -36 -14q-24 -12 -27 -44q3 -35 28 -48q9 -5 20 -8v-11v0q2 -22 24 -24q22 2 24 24v0zM40 25q17 0 28 12v0v0q12 11 12 28v40
v0v80v0v40v0q0 27 19 46l51 51v0q14 12 31 3q10 -7 11 -18t-8 -20l-15 -15v0l-32 -32v0q-9 -10 -9 -23t9 -23q10 -9 23 -9t23 9l32 32v0l15 16v0v0v0l25 25v0q32 33 33 79v79v0q-1 20 -14 34q-14 13 -34 14h-67v0q-26 0 -45 -19l-100 -100v0q-27 -28 -28 -67v-102v0v-64v0
v-56v0q0 -17 12 -28q11 -12 28 -12v0zM600 25q17 0 28 12v0v0q12 11 12 28v56v0v64v0v102v0q-1 39 -28 67l-100 100v0q-19 19 -45 19h-67v0q-20 -1 -34 -14q-13 -14 -14 -34v-79v0q1 -46 33 -79l25 -25v0v0v0l15 -16v0l32 -32v0q10 -9 23 -9t23 9q9 10 9 23t-9 23l-32 32v0
l-16 15v0q-8 9 -7 20t11 18q17 9 31 -3l51 -51v0q19 -19 19 -46v-40v0v-80v0v-40v0q0 -17 12 -28q11 -12 28 -12v0z" />
</svg>
