<?xml version="1.0" standalone="no"?>
<!DOCTYPE svg PUBLIC "-//W3C//DTD SVG 1.1//EN" "http://www.w3.org/Graphics/SVG/1.1/DTD/svg11.dtd" >
<svg xmlns="http://www.w3.org/2000/svg" xmlns:xlink="http://www.w3.org/1999/xlink" version="1.1" viewBox="-10 -40 532 512">
   <path fill="currentColor"
d="M272 57v0v0v0h104v0q32 0 58 -16t41 -43q3 -5 8 -5q6 0 8 5q21 55 21 120q-1 81 -33 146q-31 66 -85 105t-121 40h-1v0q-62 -1 -108 -37t-62 -94q-52 48 -54 123v16v0q-2 22 -24 24q-22 -2 -24 -24v-16v0q1 -57 26 -104q26 -46 70 -76q7 -70 56 -116q48 -46 120 -48v0v0z
M190 204q0 22 16 38l71 69v0q11 9 22 0l71 -69v0q16 -16 16 -38q0 -23 -15 -38q-16 -15 -38 -16h-2v0q-22 1 -38 16l-5 5v0l-5 -5v0q-16 -15 -38 -16h-2v0q-23 1 -38 16t-15 38v0z" />
</svg>
