<?xml version="1.0" standalone="no"?>
<!DOCTYPE svg PUBLIC "-//W3C//DTD SVG 1.1//EN" "http://www.w3.org/Graphics/SVG/1.1/DTD/svg11.dtd" >
<svg xmlns="http://www.w3.org/2000/svg" xmlns:xlink="http://www.w3.org/1999/xlink" version="1.1" viewBox="-10 -40 458 512">
   <path fill="currentColor"
d="M333 284v0v0v0l-134 -146v0v0v0l-53 -58v0q6 -5 27 -14q20 -8 51 -9q31 1 51 9q21 9 27 14l-56 61v0l85 93v0l28 -29v0q25 -28 25 -65v-30v0q0 -29 -16 -53l-40 -60v0q-25 -35 -67 -36h-76v0q-40 1 -65 34l-38 53v0q-18 25 -18 56v21v0q0 36 24 63l56 64v0v0v0l83 96v0v0
v0l92 105v0q17 18 40 7l54 -31v0q14 -8 16 -23q2 -14 -8 -26l-88 -96v0zM205 372l-83 -96l83 96l-83 -96l-95 104v0q-10 12 -8 26q2 15 16 23l55 31v0q22 11 39 -6l76 -82v0z" />
</svg>
