<?xml version="1.0" standalone="no"?>
<!DOCTYPE svg PUBLIC "-//W3C//DTD SVG 1.1//EN" "http://www.w3.org/Graphics/SVG/1.1/DTD/svg11.dtd" >
<svg xmlns="http://www.w3.org/2000/svg" xmlns:xlink="http://www.w3.org/1999/xlink" version="1.1" viewBox="-10 -40 532 512">
   <path fill="currentColor"
d="M512 -7q-2 87 -56 148v0v0q-54 61 -138 74q-12 -81 -66 -139q30 -52 81 -83t115 -32h32v0q14 0 23 9t9 23v0zM0 57q0 -14 9 -23v0v0q9 -9 23 -9h32v0q63 1 113 31q51 29 80 80q30 50 31 113v32v0v160v0q0 14 -9 23t-23 9t-23 -9t-9 -23v-160v0q-63 -1 -113 -31
q-51 -29 -80 -80q-30 -50 -31 -113v0z" />
</svg>
