<?xml version="1.0" standalone="no"?>
<!DOCTYPE svg PUBLIC "-//W3C//DTD SVG 1.1//EN" "http://www.w3.org/Graphics/SVG/1.1/DTD/svg11.dtd" >
<svg xmlns="http://www.w3.org/2000/svg" xmlns:xlink="http://www.w3.org/1999/xlink" version="1.1" viewBox="-10 -40 468 512">
   <path fill="currentColor"
d="M371 57q-19 -43 -58 -69v0v0q-39 -26 -89 -27q-50 1 -89 27t-58 69q-12 1 -20 10q-9 9 -9 22v64v0q0 13 9 22q8 9 20 10q19 43 58 69t89 27q50 -1 89 -27t58 -69q12 -1 21 -10q8 -9 8 -22v-64v0q0 -13 -8 -22q-9 -9 -21 -10v0zM336 105v16v-16v16q-1 41 -28 68t-68 28
h-32v0q-41 -1 -68 -28t-28 -68v-16v0q1 -20 14 -34q14 -13 34 -14h128v0q20 1 34 14q13 14 14 34v0zM189 124l-6 -21l6 21l-6 -21q-1 -6 -7 -6t-7 6l-6 21v0l-21 6v0q-6 1 -6 7t6 7l21 6v0l6 22v0q1 5 7 5t7 -5l6 -22v0l22 -6v0q5 -1 5 -7t-5 -7l-22 -6v0zM113 278
q-51 20 -81 64v0v0q-31 44 -32 101q0 13 9 21q8 9 21 9h98v0v-64v0q0 -14 9 -23t23 -9h128v0q14 0 23 9t9 23v64v0h98v0q13 0 21 -9q9 -8 9 -21q-1 -57 -32 -101q-30 -44 -81 -64q-48 34 -111 35q-63 -1 -111 -35v0zM176 409q-15 1 -16 16v48v0h32v0v-48v0q-1 -15 -16 -16v0
zM272 441q15 -1 16 -16q-1 -15 -16 -16q-15 1 -16 16q1 15 16 16v0z" />
</svg>
