<?xml version="1.0" standalone="no"?>
<!DOCTYPE svg PUBLIC "-//W3C//DTD SVG 1.1//EN" "http://www.w3.org/Graphics/SVG/1.1/DTD/svg11.dtd" >
<svg xmlns="http://www.w3.org/2000/svg" xmlns:xlink="http://www.w3.org/1999/xlink" version="1.1" viewBox="-10 -40 652 512">
   <path fill="currentColor"
d="M96 89q0 -35 17 -64v0v0q17 -29 47 -47q30 -17 64 -17t64 17q30 18 47 47t17 64t-17 64t-47 47q-30 17 -64 17t-64 -17q-30 -18 -47 -47t-17 -64v0zM0 443q2 -75 52 -126v0v0q51 -50 126 -52h92v0q75 2 126 52q50 51 52 126q0 13 -9 21q-8 9 -21 9h-388v0q-13 0 -21 -9
q-9 -8 -9 -21v0zM625 138l-128 128l128 -128l-128 128q-17 14 -34 0l-64 -64v0q-14 -17 0 -34q17 -14 34 0l47 47v0l111 -111v0q17 -14 34 0q14 17 0 34v0z" />
</svg>
