<?xml version="1.0" standalone="no"?>
<!DOCTYPE svg PUBLIC "-//W3C//DTD SVG 1.1//EN" "http://www.w3.org/Graphics/SVG/1.1/DTD/svg11.dtd" >
<svg xmlns="http://www.w3.org/2000/svg" xmlns:xlink="http://www.w3.org/1999/xlink" version="1.1" viewBox="-10 -40 660 512">
   <path fill="currentColor"
d="M224 217q35 0 64 -17v0v0q29 -17 47 -47q17 -30 17 -64t-17 -64q-18 -30 -47 -47t-64 -17t-64 17t-47 47q-17 30 -17 64t17 64q18 30 47 47t64 17v0zM178 265q-75 2 -126 52v0v0q-50 51 -52 126q0 13 9 21q8 9 21 9h363v0q-9 -14 -9 -32v-128v0v-6q-48 -41 -114 -42h-92
v0zM528 201q14 0 23 9v0v0q9 9 9 23v48v0h-64v0v-48v0q0 -14 9 -23t23 -9v0zM448 233v48v-48v48q-14 0 -23 9t-9 23v128v0q0 14 9 23t23 9h160v0q14 0 23 -9t9 -23v-128v0q0 -14 -9 -23t-23 -9v-48v0q-1 -34 -23 -57q-23 -22 -57 -23q-34 1 -57 23q-22 23 -23 57v0z" />
</svg>
