<?xml version="1.0" standalone="no"?>
<!DOCTYPE svg PUBLIC "-//W3C//DTD SVG 1.1//EN" "http://www.w3.org/Graphics/SVG/1.1/DTD/svg11.dtd" >
<svg xmlns="http://www.w3.org/2000/svg" xmlns:xlink="http://www.w3.org/1999/xlink" version="1.1" viewBox="-10 -40 468 512">
   <path fill="currentColor"
d="M96 89q0 35 17 64v0v0q17 29 47 47q30 17 64 17t64 -17q30 -18 47 -47t17 -64t-17 -64t-47 -47q-30 -17 -64 -17t-64 17q-30 18 -47 47t-17 64v0zM191 289l18 31l-18 -31l18 31l-33 124v0l-36 -147v0q-5 -13 -18 -11q-54 14 -87 56q-34 43 -35 100q0 13 9 22t22 9h132v0
q-1 0 0 0v0h5h118q-1 0 0 0v0h131v0q13 0 22 -9t9 -22q-1 -57 -35 -100q-33 -42 -87 -56q-13 -2 -18 11l-36 147v0l-33 -124v0l19 -31v0q4 -8 0 -16q-5 -7 -14 -8h-20h-20q-9 1 -14 8q-4 8 1 16v0z" />
</svg>
