<?xml version="1.0" standalone="no"?>
<!DOCTYPE svg PUBLIC "-//W3C//DTD SVG 1.1//EN" "http://www.w3.org/Graphics/SVG/1.1/DTD/svg11.dtd" >
<svg xmlns="http://www.w3.org/2000/svg" xmlns:xlink="http://www.w3.org/1999/xlink" version="1.1" viewBox="-10 -40 596 512">
   <path fill="currentColor"
d="M250 433q8 2 15 -3v0v0q7 -4 7 -13v-377v0q0 -7 -5 -11q-15 -13 -47 -24t-76 -12q-38 0 -71 8t-55 16q-17 8 -18 28v370v0q0 9 8 14q7 5 16 3q25 -9 57 -16q33 -7 63 -7q26 1 56 8q29 8 50 16v0zM326 433q21 -8 50 -16v0v0q30 -7 56 -8q30 0 63 7q32 7 57 16q9 2 16 -3
q8 -5 8 -14v-370v0q-1 -20 -18 -28q-22 -8 -55 -16t-71 -8q-44 1 -76 12t-47 24q-5 4 -5 11v377v0q0 9 7 13q7 5 15 3v0z" />
</svg>
