<?xml version="1.0" standalone="no"?>
<!DOCTYPE svg PUBLIC "-//W3C//DTD SVG 1.1//EN" "http://www.w3.org/Graphics/SVG/1.1/DTD/svg11.dtd" >
<svg xmlns="http://www.w3.org/2000/svg" xmlns:xlink="http://www.w3.org/1999/xlink" version="1.1" viewBox="-10 -40 596 512">
   <path fill="currentColor"
d="M96 -7q-27 1 -45 19v0v0q-18 18 -19 45v288v0h64v0v-288v0h384v0v288v0h64v0v-288v0q-1 -27 -19 -45t-45 -19h-384v0zM224 345v32v-32v32h-192v0q-14 0 -23 9t-9 23t9 23t23 9h512v0q14 0 23 -9t9 -23t-9 -23t-23 -9h-128v0v-32v0q0 -14 -9 -23t-23 -9h-128v0
q-14 0 -23 9t-9 23v0z" />
</svg>
