<?xml version="1.0" standalone="no"?>
<!DOCTYPE svg PUBLIC "-//W3C//DTD SVG 1.1//EN" "http://www.w3.org/Graphics/SVG/1.1/DTD/svg11.dtd" >
<svg xmlns="http://www.w3.org/2000/svg" xmlns:xlink="http://www.w3.org/1999/xlink" version="1.1" viewBox="-10 -40 532 512">
   <path fill="currentColor"
d="M0 217q1 -70 34 -128v0v0q34 -58 94 -94q61 -34 128 -34t128 34q60 36 94 94q33 58 34 128q-1 70 -34 128q-34 58 -94 94q-61 34 -128 34t-128 -34q-60 -36 -94 -94q-33 -58 -34 -128v0zM256 249q-14 0 -23 -9v0v0q-9 -9 -9 -23t9 -23t23 -9t23 9t9 23t-9 23t-23 9v0z
M160 217q0 26 13 48v0v0q13 22 35 35q23 13 48 13t48 -13q22 -13 35 -35t13 -48t-13 -48t-35 -35q-23 -13 -48 -13t-48 13q-22 13 -35 35t-13 48v0zM96 201q2 -55 45 -99q44 -43 99 -45q15 -1 16 -16q-1 -15 -16 -16q-34 0 -66 15q-31 15 -55 40q-25 24 -40 55
q-15 32 -15 66q1 15 16 16q15 -1 16 -16v0z" />
</svg>
