<?xml version="1.0" standalone="no"?>
<!DOCTYPE svg PUBLIC "-//W3C//DTD SVG 1.1//EN" "http://www.w3.org/Graphics/SVG/1.1/DTD/svg11.dtd" >
<svg xmlns="http://www.w3.org/2000/svg" xmlns:xlink="http://www.w3.org/1999/xlink" version="1.1" viewBox="-10 -40 596 512">
   <path fill="currentColor"
d="M368 -7q32 1 54 21v0v0q22 20 26 52l85 26v0q20 6 31 22q12 15 12 36q-1 34 -31 52l-144 83v0l92 92v0h51v0q14 0 23 9t9 23t-9 23t-23 9h-64v0q-13 0 -23 -9l-110 -111v0q9 -27 2 -55q-6 -28 -27 -50q-33 -31 -74 -31t-73 30l-74 70v0q-10 11 -1 23q11 10 23 1l74 -71v0
v0v0v0v0q5 -5 11 -9q22 -14 47 -12q25 3 44 21q18 19 21 44q2 25 -12 47q-4 6 -9 11l-37 37v0h90v0q14 0 23 9t9 23t-9 23t-23 9h-288v0q-27 -1 -45 -19t-19 -45q1 -84 39 -153t103 -113t147 -52q6 -29 28 -47q21 -18 51 -19v0zM368 97q22 -2 24 -24q-2 -22 -24 -24
q-22 2 -24 24q2 22 24 24v0z" />
</svg>
