<?xml version="1.0" standalone="no"?>
<!DOCTYPE svg PUBLIC "-//W3C//DTD SVG 1.1//EN" "http://www.w3.org/Graphics/SVG/1.1/DTD/svg11.dtd" >
<svg xmlns="http://www.w3.org/2000/svg" xmlns:xlink="http://www.w3.org/1999/xlink" version="1.1" viewBox="-10 -40 596 512">
   <path fill="currentColor"
d="M64 25q-27 1 -45 19v0v0q-18 18 -19 45v256v0q1 27 19 45t45 19h448v0q27 -1 45 -19t19 -45v-256v0q-1 -27 -19 -45t-45 -19h-448v0zM112 185h160h-160h160q15 1 16 16q-1 15 -16 16h-160v0q-15 -1 -16 -16q1 -15 16 -16v0zM96 297q1 -15 16 -16h352v0q15 1 16 16
q-1 15 -16 16h-352v0q-15 -1 -16 -16v0zM376 121h80h-80h80q22 2 24 24v48v0q-2 22 -24 24h-80v0q-22 -2 -24 -24v-48v0q2 -22 24 -24v0z" />
</svg>
