<?xml version="1.0" standalone="no"?>
<!DOCTYPE svg PUBLIC "-//W3C//DTD SVG 1.1//EN" "http://www.w3.org/Graphics/SVG/1.1/DTD/svg11.dtd" >
<svg xmlns="http://www.w3.org/2000/svg" xmlns:xlink="http://www.w3.org/1999/xlink" version="1.1" viewBox="-10 -40 468 512">
   <path fill="currentColor"
d="M64 -7q-27 1 -45 19v0v0q-18 18 -19 45v320v0q1 27 19 45t45 19h320v0q27 -1 45 -19t19 -45v-320v0q-1 -27 -19 -45t-45 -19h-320v0zM192 217h48h-48h48q14 0 23 -9t9 -23t-9 -23t-23 -9h-48v0v64v0zM240 281h-48h48h-48v32v0q0 14 -9 23t-23 9t-23 -9t-9 -23v-64v0v-120
v0q0 -17 12 -28q11 -12 28 -12h72v0q41 1 68 28t28 68q-1 41 -28 68t-68 28v0z" />
</svg>
