<?xml version="1.0" standalone="no"?>
<!DOCTYPE svg PUBLIC "-//W3C//DTD SVG 1.1//EN" "http://www.w3.org/Graphics/SVG/1.1/DTD/svg11.dtd" >
<svg xmlns="http://www.w3.org/2000/svg" xmlns:xlink="http://www.w3.org/1999/xlink" version="1.1" viewBox="-10 -40 532 512">
   <path fill="currentColor"
d="M0 430q2 18 16 31v0v0q13 12 32 12h96h320q20 -1 34 -14q13 -14 14 -34v-96v0q-1 -20 -14 -34q-14 -13 -34 -14h-48v0v80v0q-1 15 -16 16q-15 -1 -16 -16v-80v0h-64v0v80v0q-1 15 -16 16q-15 -1 -16 -16v-80v0h-64v0v80v0q-1 15 -16 16q-15 -1 -16 -16v-80v0h-80v0
q-15 -1 -16 -16q1 -15 16 -16h80v0v-64v0h-80v0q-15 -1 -16 -16q1 -15 16 -16h80v0v-64v0h-80v0q-15 -1 -16 -16q1 -15 16 -16h80v0v-48v0q-1 -20 -14 -34q-14 -13 -34 -14h-96v0q-20 1 -34 14q-13 14 -14 34v320v0v96v0v5v0v0z" />
</svg>
