<?xml version="1.0" standalone="no"?>
<!DOCTYPE svg PUBLIC "-//W3C//DTD SVG 1.1//EN" "http://www.w3.org/Graphics/SVG/1.1/DTD/svg11.dtd" >
<svg xmlns="http://www.w3.org/2000/svg" xmlns:xlink="http://www.w3.org/1999/xlink" version="1.1" viewBox="-10 -40 660 512">
   <path fill="currentColor"
d="M338 -34q-18 -10 -36 0l-136 91v0h-118v0q-20 1 -34 14q-13 14 -14 34v320v0q1 20 14 34q14 13 34 14h208v0v-96v0q1 -27 19 -45t45 -19q27 1 45 19t19 45v96v0h208v0q20 -1 34 -14q13 -14 14 -34v-320v0q-1 -20 -14 -34q-14 -13 -34 -14h-118v0l-136 -91v0zM96 153h32
h-32h32q15 1 16 16v64v0q-1 15 -16 16h-32v0q-15 -1 -16 -16v-64v0q1 -15 16 -16v0zM496 169q1 -15 16 -16h32v0q15 1 16 16v64v0q-1 15 -16 16h-32v0q-15 -1 -16 -16v-64v0zM96 281h32h-32h32q15 1 16 16v64v0q-1 15 -16 16h-32v0q-15 -1 -16 -16v-64v0q1 -15 16 -16v0z
M496 297q1 -15 16 -16h32v0q15 1 16 16v64v0q-1 15 -16 16h-32v0q-15 -1 -16 -16v-64v0zM232 137q2 -50 44 -76q44 -24 88 0q42 26 44 76q-2 50 -44 76q-44 24 -88 0q-42 -26 -44 -76v0zM320 89q-15 1 -16 16v32v0q1 15 16 16h32v0q15 -1 16 -16q-1 -15 -16 -16h-16v0v-16v0
q-1 -15 -16 -16v0z" />
</svg>
