<?xml version="1.0" standalone="no"?>
<!DOCTYPE svg PUBLIC "-//W3C//DTD SVG 1.1//EN" "http://www.w3.org/Graphics/SVG/1.1/DTD/svg11.dtd" >
<svg xmlns="http://www.w3.org/2000/svg" xmlns:xlink="http://www.w3.org/1999/xlink" version="1.1" viewBox="-10 -40 660 512">
   <path fill="currentColor"
d="M37 153h566h-566h566q16 0 26 -11q11 -10 11 -26q0 -11 -6 -20l-76 -114v0q-14 -20 -40 -21h-396v0q-26 1 -40 21l-76 114v0q-6 9 -6 20q0 16 11 26q10 11 26 11v0zM64 185v160v-160v160v80v0q1 20 14 34q14 13 34 14h224v0q20 -1 34 -14q13 -14 14 -34v-80v0v-160v0h-64
v0v160v0h-192v0v-160v0h-64v0zM512 185v256v-256v256q0 14 9 23t23 9t23 -9t9 -23v-256v0h-64v0z" />
</svg>
