<?xml version="1.0" standalone="no"?>
<!DOCTYPE svg PUBLIC "-//W3C//DTD SVG 1.1//EN" "http://www.w3.org/Graphics/SVG/1.1/DTD/svg11.dtd" >
<svg xmlns="http://www.w3.org/2000/svg" xmlns:xlink="http://www.w3.org/1999/xlink" version="1.1" viewBox="-10 -40 532 512">
   <path fill="currentColor"
d="M176 49v40v-40v40h160v0v-40v0q-1 -7 -8 -8h-144v0q-7 1 -8 8v0zM128 89v-40v40v-40q1 -24 16 -40q16 -15 40 -16h144v0q24 1 40 16q15 16 16 40v40v0h28v0q20 0 34 14l52 52v0q14 14 14 34v76v0h-128v0v-16v0q0 -14 -9 -23t-23 -9t-23 9t-9 23v16v0h-128v0v-16v0
q0 -14 -9 -23t-23 -9t-23 9t-9 23v16v0h-128v0v-76v0q0 -20 14 -34l52 -52v0q14 -14 34 -14h28v0zM0 377v-80v80v-80h128v0v16v0q0 14 9 23t23 9t23 -9t9 -23v-16v0h128v0v16v0q0 14 9 23t23 9t23 -9t9 -23v-16v0h128v0v80v0q-1 27 -19 45t-45 19h-384v0q-27 -1 -45 -19
t-19 -45v0z" />
</svg>
