<?xml version="1.0" standalone="no"?>
<!DOCTYPE svg PUBLIC "-//W3C//DTD SVG 1.1//EN" "http://www.w3.org/Graphics/SVG/1.1/DTD/svg11.dtd" >
<svg xmlns="http://www.w3.org/2000/svg" xmlns:xlink="http://www.w3.org/1999/xlink" version="1.1" viewBox="-10 -40 468 512">
   <path fill="currentColor"
d="M343 48q9 -10 9 -23v0v0q0 -13 -9 -23q-10 -9 -23 -9t-23 9l-137 138v0l-57 -58v0q-10 -9 -23 -9t-23 9q-9 10 -9 23t9 23l80 80v0q10 9 23 9t23 -9l160 -160v0zM439 176q9 -10 9 -23v0v0q0 -13 -9 -23q-10 -9 -23 -9t-23 9l-233 234v0l-105 -106v0q-10 -9 -23 -9t-23 9
q-9 10 -9 23t9 23l128 128v0q10 9 23 9t23 -9l256 -256v0z" />
</svg>
