<?xml version="1.0" standalone="no"?>
<!DOCTYPE svg PUBLIC "-//W3C//DTD SVG 1.1//EN" "http://www.w3.org/Graphics/SVG/1.1/DTD/svg11.dtd" >
<svg xmlns="http://www.w3.org/2000/svg" xmlns:xlink="http://www.w3.org/1999/xlink" version="1.1" viewBox="-10 -40 522 512">
   <path fill="currentColor"
d="M247 -22q-34 -5 -64 11l-74 40v0q-30 16 -46 47l-36 76v0q-15 31 -9 65l14 82v0q6 34 31 58l60 59v0q25 23 59 28l83 12v0q34 5 64 -11l74 -40v0q30 -16 46 -47l36 -76v0q15 -31 9 -64l-14 -83v0q-6 -34 -31 -58l-60 -58v0q-25 -24 -59 -29l-83 -12v0zM208 105q14 0 23 9
v0v0q9 9 9 23t-9 23t-23 9t-23 -9t-9 -23t9 -23t23 -9v0zM144 297q0 -14 9 -23v0v0q9 -9 23 -9t23 9t9 23t-9 23t-23 9t-23 -9t-9 -23v0zM368 233q14 0 23 9v0v0q9 9 9 23t-9 23t-23 9t-23 -9t-9 -23t9 -23t23 -9v0z" />
</svg>
