<?xml version="1.0" standalone="no"?>
<!DOCTYPE svg PUBLIC "-//W3C//DTD SVG 1.1//EN" "http://www.w3.org/Graphics/SVG/1.1/DTD/svg11.dtd" >
<svg xmlns="http://www.w3.org/2000/svg" xmlns:xlink="http://www.w3.org/1999/xlink" version="1.1" viewBox="-10 -40 660 512">
   <path fill="currentColor"
d="M64 25q-27 1 -45 19v0v0q-18 18 -19 45v256v0q1 27 19 45t45 19h512v0q27 -1 45 -19t19 -45v-256v0q-1 -27 -19 -45t-45 -19h-512v0zM96 89h224h-224h224q14 0 23 9t9 23v64v0q0 14 -9 23t-23 9h-224v0q-14 0 -23 -9t-9 -23v-64v0q0 -14 9 -23t23 -9v0zM64 329
q1 -15 16 -16h256v0q15 1 16 16q-1 15 -16 16h-256v0q-15 -1 -16 -16v0zM384 329q1 -15 16 -16h160v0q15 1 16 16q-1 15 -16 16h-160v0q-15 -1 -16 -16v0zM80 249q15 1 16 16q-1 15 -16 16q-15 -1 -16 -16q1 -15 16 -16v0zM128 265q1 -15 16 -16q15 1 16 16q-1 15 -16 16
q-15 -1 -16 -16v0zM208 249q15 1 16 16q-1 15 -16 16q-15 -1 -16 -16q1 -15 16 -16v0zM256 265q1 -15 16 -16q15 1 16 16q-1 15 -16 16q-15 -1 -16 -16v0zM336 249q15 1 16 16q-1 15 -16 16q-15 -1 -16 -16q1 -15 16 -16v0z" />
</svg>
