<?xml version="1.0" standalone="no"?>
<!DOCTYPE svg PUBLIC "-//W3C//DTD SVG 1.1//EN" "http://www.w3.org/Graphics/SVG/1.1/DTD/svg11.dtd" >
<svg xmlns="http://www.w3.org/2000/svg" xmlns:xlink="http://www.w3.org/1999/xlink" version="1.1" viewBox="-10 -40 532 512">
   <path fill="currentColor"
d="M256 473q70 -1 128 -34v0v0q58 -34 94 -94q34 -61 34 -128t-34 -128q-36 -60 -94 -94q-58 -33 -128 -34q-70 1 -128 34q-58 34 -94 94q-34 61 -34 128t34 128q36 60 94 94q58 33 128 34v0zM256 249q36 1 55 32q18 32 0 64q-19 31 -55 32q-36 -1 -55 -32q-18 -32 0 -64
q19 -31 55 -32v0zM101 94q11 -10 22 0l37 36v0l37 -36v0q11 -10 22 0q10 11 0 22l-36 37v0l36 37v0q10 11 0 22q-11 10 -22 0l-37 -36v0l-37 36v0q-11 10 -22 0q-10 -11 0 -22l36 -37v0l-36 -37v0q-10 -11 0 -22v0zM293 94q11 -10 22 0l37 36v0l37 -36v0q11 -10 22 0
q10 11 0 22l-36 37v0l36 37v0q10 11 0 22q-11 10 -22 0l-37 -36v0l-37 36v0q-11 10 -22 0q-10 -11 0 -22l36 -37v0l-36 -37v0q-10 -11 0 -22v0z" />
</svg>
