<?xml version="1.0" standalone="no"?>
<!DOCTYPE svg PUBLIC "-//W3C//DTD SVG 1.1//EN" "http://www.w3.org/Graphics/SVG/1.1/DTD/svg11.dtd" >
<svg xmlns="http://www.w3.org/2000/svg" xmlns:xlink="http://www.w3.org/1999/xlink" version="1.1" viewBox="-10 -40 532 512">
   <path fill="currentColor"
d="M352 57q0 22 -9 40l53 91v0q-36 39 -88 54l-52 -89v0v0v0v0v0l-68 118v0q32 10 68 10q54 0 99 -23q45 -22 76 -61q9 -10 21 -12q13 -1 24 7q10 9 12 21q1 13 -7 24q-40 50 -98 79q-58 28 -127 29q-53 0 -101 -18l-56 98v0q-8 12 -20 19l-56 27v0q-8 4 -15 0q-8 -5 -8 -14
v-55v0q0 -13 7 -24l60 -104v0q-20 -17 -36 -37q-8 -11 -7 -24q2 -12 12 -21q11 -8 24 -7q12 2 21 12q9 11 18 20l70 -120v0q-9 -18 -9 -40q1 -41 28 -68t68 -28q41 1 68 28t28 68v0zM373 355q49 -20 89 -53l44 76v0q6 11 6 24v55v0q0 9 -8 14q-7 4 -15 0l-56 -27v0
q-12 -7 -20 -19l-40 -70v0zM256 89q14 0 23 -9v0v0q9 -9 9 -23t-9 -23t-23 -9t-23 9t-9 23t9 23t23 9v0z" />
</svg>
