<?xml version="1.0" standalone="no"?>
<!DOCTYPE svg PUBLIC "-//W3C//DTD SVG 1.1//EN" "http://www.w3.org/Graphics/SVG/1.1/DTD/svg11.dtd" >
<svg xmlns="http://www.w3.org/2000/svg" xmlns:xlink="http://www.w3.org/1999/xlink" version="1.1" viewBox="-10 -40 532 512">
   <path fill="currentColor"
d="M48 217q2 -88 61 -147v0v0q59 -59 147 -61q48 0 88 20q41 19 70 53q16 15 34 2q15 -16 2 -34q-35 -41 -85 -65t-109 -24q-72 1 -129 35q-58 34 -92 92q-34 57 -35 129v40v0q2 22 24 24q22 -2 24 -24v-40v0zM507 164q-7 -21 -29 -18q-21 6 -18 28q4 21 4 43v40v0
q2 22 24 24q22 -2 24 -24v-40v0q0 -27 -5 -53v0zM256 41q-29 0 -54 9q-12 4 -14 15q-3 11 5 21q12 12 30 7q16 -4 33 -4q54 1 91 37q36 37 37 91v25v0q0 38 -4 75q-1 12 6 20q6 8 18 8q19 -1 23 -20q5 -41 5 -83v-25v0q-2 -75 -51 -124q-50 -50 -125 -52v0zM151 110
q-8 -8 -17 -9v0v0q-10 0 -17 8q-36 46 -37 108v25v0q0 36 -8 72q-2 12 5 21q7 10 19 10q17 -1 22 -17q10 -43 10 -86v-25v0q1 -41 23 -73q11 -18 0 -34v0zM256 121q-41 1 -68 28v0v0q-27 27 -28 68v25v0q0 54 -14 106q-2 11 4 20t18 9q15 -1 20 -15q16 -59 16 -120v-25v0
q1 -22 15 -37q15 -14 37 -15q22 1 37 15q14 15 15 37v25v0q0 54 -10 108q-2 11 4 19q7 8 17 8q17 -1 21 -17q12 -58 12 -118v-25v0q-1 -41 -28 -68t-68 -28v0zM280 217q-2 -22 -24 -24q-22 2 -24 24v25v0q0 91 -32 175l-6 15v0q-6 22 13 31q22 6 31 -13l6 -16v0
q36 -93 36 -192v-25v0z" />
</svg>
