<?xml version="1.0" standalone="no"?>
<!DOCTYPE svg PUBLIC "-//W3C//DTD SVG 1.1//EN" "http://www.w3.org/Graphics/SVG/1.1/DTD/svg11.dtd" >
<svg xmlns="http://www.w3.org/2000/svg" xmlns:xlink="http://www.w3.org/1999/xlink" version="1.1" viewBox="-10 -40 532 512">
   <path fill="currentColor"
d="M52 256l31 6l-31 -6l31 6q13 3 22 -6l16 -16v0q9 -8 20 -6q12 2 18 13l9 18v0q8 15 26 16q11 -1 18 -9q6 -9 3 -20l-6 -20v0q-3 -12 4 -22q7 -9 19 -9h3v0q21 -1 33 -18l11 -16v0q8 -14 -1 -28l-16 -21v0q-8 -11 -4 -23q4 -11 17 -15l17 -4v0q12 -4 17 -15l16 -41v0
q-33 -11 -69 -11q-88 2 -147 61t-61 147q0 20 4 39v0zM459 261q-2 -1 -4 0v0v0q-2 0 -5 1l-15 4v0q-11 2 -18 -7l-2 -3v0q-10 -15 -27 -15q-18 0 -28 15l-6 10v0q-2 3 -6 5l-36 20v0q-14 8 -18 22q-5 15 1 29l6 13v0q6 14 21 20q14 6 29 1l3 -1v0q16 -6 30 4l1 1v0
q57 -46 74 -119v0zM0 217q1 -70 34 -128v0v0q34 -58 94 -94q61 -34 128 -34t128 34q60 36 94 94q33 58 34 128q-1 70 -34 128q-34 58 -94 94q-61 34 -128 34t-128 -34q-60 -36 -94 -94q-33 -58 -34 -128v0zM145 309q-3 15 11 20l32 8v0q15 2 20 -12q2 -15 -12 -19l-32 -8v0
q-15 -3 -19 11v0zM237 289q-3 15 11 20q15 2 20 -12l8 -32v0q2 -15 -12 -19q-15 -3 -19 11l-8 32v0zM343 75q-13 -6 -21 7l-16 32v0q-6 14 7 21q14 6 21 -7l16 -32v0q6 -13 -7 -21v0z" />
</svg>
