<?xml version="1.0" standalone="no"?>
<!DOCTYPE svg PUBLIC "-//W3C//DTD SVG 1.1//EN" "http://www.w3.org/Graphics/SVG/1.1/DTD/svg11.dtd" >
<svg xmlns="http://www.w3.org/2000/svg" xmlns:xlink="http://www.w3.org/1999/xlink" version="1.1" viewBox="-10 -40 532 512">
   <path fill="currentColor"
d="M256 473q70 -1 128 -34v0v0q58 -34 94 -94q34 -61 34 -128t-34 -128q-36 -60 -94 -94q-58 -33 -128 -34q-70 1 -128 34q-58 34 -94 94q-34 61 -34 128t34 128q36 60 94 94q58 33 128 34v0zM388 274q10 -3 16 3v0v0q7 6 3 16q-19 45 -59 72t-92 28q-51 -1 -91 -28t-60 -72
q-3 -10 3 -16q7 -6 16 -3q61 18 132 19q72 -1 132 -19v0zM218 190v0v0v0v0v0h-1v0v-1v0q-1 -2 -3 -4l-10 -10q-14 -13 -28 -14q-14 1 -28 14l-10 10q-2 2 -3 4v0v1h-1v0v0v0v0v0v0v0q-3 4 -8 3q-6 -2 -6 -8q1 -28 17 -49q15 -21 39 -23q24 2 39 23q16 21 17 49q0 6 -5 8
q-6 1 -9 -3v0v0v0v0zM378 190v0v0v0h-1v0v-1v0q-1 -2 -3 -4l-10 -10q-14 -13 -28 -14q-14 1 -28 14l-10 10q-2 2 -3 4v0v1h-1v0v0v0v0v0v0v0q-3 4 -9 3q-5 -2 -5 -8q1 -28 17 -49q15 -21 39 -23q24 2 39 23q16 21 17 49q0 6 -6 8q-5 1 -8 -3v0v0v0v0v0v0z" />
</svg>
