<?xml version="1.0" standalone="no"?>
<!DOCTYPE svg PUBLIC "-//W3C//DTD SVG 1.1//EN" "http://www.w3.org/Graphics/SVG/1.1/DTD/svg11.dtd" >
<svg xmlns="http://www.w3.org/2000/svg" xmlns:xlink="http://www.w3.org/1999/xlink" version="1.1" viewBox="-10 -40 532 512">
   <path fill="currentColor"
d="M477 87q-6 2 -13 2q-20 0 -34 -14q-13 -13 -14 -33q0 -8 5 -18v-2h1q7 -16 17 -32q11 -16 19 -26q6 -6 12 0q12 15 26 38q15 24 16 40q0 17 -10 29t-25 16v0zM256 -39q78 1 139 41l-4 10q-6 12 -7 30q1 34 24 56t56 23q14 0 27 -5q21 47 21 101q-1 72 -35 129
q-34 58 -92 92q-57 34 -129 35q-72 -1 -129 -35q-58 -34 -92 -92q-34 -57 -35 -129q1 -72 35 -129q34 -58 92 -92q57 -34 129 -35v0zM388 274q-60 18 -132 19q-71 -1 -132 -19q-9 -3 -16 3q-6 6 -3 16q20 45 60 72t91 28q52 -1 92 -28t59 -72q4 -10 -3 -16q-6 -6 -16 -3v0z
M218 190v0v0v0v0v0q3 4 9 3q5 -2 5 -8q-1 -28 -17 -49q-15 -21 -39 -23q-24 2 -39 23q-16 21 -17 49q0 6 6 8q5 1 8 -3v0v0v0v0v0v0h1v0v-1v0q1 -2 3 -4l10 -10q14 -13 28 -14q14 1 28 14l10 10q2 2 3 4v0v1h1v0v0v0v0v0zM378 190v0v0v0v0v0v0v0q3 4 9 3q5 -2 5 -8
q-1 -28 -17 -49q-15 -21 -39 -23q-24 2 -39 23q-16 21 -17 49q0 6 6 8q5 1 8 -3v0v0v0v0v0v0h1v0v-1v0q1 -2 3 -4l10 -10q14 -13 28 -14q14 1 28 14l10 10q2 2 3 4v0v1h1v0v0v0z" />
</svg>
