<?xml version="1.0" standalone="no"?>
<!DOCTYPE svg PUBLIC "-//W3C//DTD SVG 1.1//EN" "http://www.w3.org/Graphics/SVG/1.1/DTD/svg11.dtd" >
<svg xmlns="http://www.w3.org/2000/svg" xmlns:xlink="http://www.w3.org/1999/xlink" version="1.1" viewBox="-10 -40 532 512">
   <path fill="currentColor"
d="M256 473q70 -1 128 -34v0v0q58 -34 94 -94q34 -61 34 -128t-34 -128q-36 -60 -94 -94q-58 -33 -128 -34q-70 1 -128 34q-58 34 -94 94q-34 61 -34 128t34 128q36 60 94 94q58 33 128 34v0zM388 274q10 -3 16 3v0v0q7 6 3 16q-19 45 -59 72t-92 28q-51 -1 -91 -28t-60 -72
q-3 -10 3 -16q7 -6 16 -3q61 18 132 19q72 -1 132 -19v0zM199 90q14 4 21 16v0v0q6 11 3 25l-17 65v0q-6 14 -20 11l-65 -17v0q-14 -4 -20 -16q-7 -11 -4 -25q4 -14 16 -20q11 -7 25 -4l16 5v0l4 -16v0q4 -14 16 -21q11 -6 25 -3v0zM354 114l4 16l-4 -16l4 16l16 -4v0
q14 -4 25 3q12 6 16 20q3 14 -4 25q-6 12 -20 16l-65 17v0q-14 3 -20 -11l-17 -65v0q-3 -14 3 -25q7 -12 21 -16q13 -3 25 4q12 6 16 20v0z" />
</svg>
