<?xml version="1.0" standalone="no"?>
<!DOCTYPE svg PUBLIC "-//W3C//DTD SVG 1.1//EN" "http://www.w3.org/Graphics/SVG/1.1/DTD/svg11.dtd" >
<svg xmlns="http://www.w3.org/2000/svg" xmlns:xlink="http://www.w3.org/1999/xlink" version="1.1" viewBox="-10 -40 532 512">
   <path fill="currentColor"
d="M175 460q-78 -27 -126 -92v0v0q-48 -65 -49 -151q1 -72 35 -129q34 -58 92 -92q57 -34 129 -35q72 1 129 35q58 34 92 92q34 57 35 129q-1 86 -49 151t-125 92q14 -23 14 -51v-47v0q37 -27 55 -69q4 -10 -3 -16q-6 -6 -16 -3q-60 18 -132 19q-71 -1 -132 -19q-9 -3 -16 3
q-6 6 -3 16q18 42 55 69v47v0q0 28 14 51h1zM195 195q10 10 23 3q11 -10 3 -23q-25 -30 -61 -30t-61 30q-8 13 3 23q13 7 23 -3q14 -18 35 -18t35 18v0zM336 233q36 -1 55 -32q18 -32 0 -64q-19 -31 -55 -32q-36 1 -55 32q-18 32 0 64q19 31 55 32v0zM320 364v45v-45v45
q-1 27 -19 45t-45 19q-27 -1 -45 -19t-19 -45v-45v0q2 -25 27 -27h2v0q18 1 23 19q3 9 12 9t12 -9q5 -18 23 -19h2v0q25 2 27 27v0zM336 145q22 2 24 24q-2 22 -24 24q-22 -2 -24 -24q2 -22 24 -24v0z" />
</svg>
