<?xml version="1.0" standalone="no"?>
<!DOCTYPE svg PUBLIC "-//W3C//DTD SVG 1.1//EN" "http://www.w3.org/Graphics/SVG/1.1/DTD/svg11.dtd" >
<svg xmlns="http://www.w3.org/2000/svg" xmlns:xlink="http://www.w3.org/1999/xlink" version="1.1" viewBox="-10 -40 532 512">
   <path fill="currentColor"
d="M256 473q70 -1 128 -34v0v0q58 -34 94 -94q34 -61 34 -128t-34 -128q-36 -60 -94 -94q-58 -33 -128 -34q-70 1 -128 34q-58 34 -94 94q-34 61 -34 128t34 128q36 60 94 94q58 33 128 34v0zM388 274q10 -3 16 3v0v0q7 6 3 16q-19 45 -59 72t-92 28q-51 -1 -91 -28t-60 -72
q-3 -10 3 -16q7 -6 16 -3q61 18 132 19q72 -1 132 -19v0zM371 195q-14 -18 -35 -18v0v0q-21 0 -35 18q-10 11 -23 3q-10 -10 -3 -23q25 -30 61 -30t61 30q8 13 -3 23q-13 8 -23 -3v0zM176 137q14 0 23 9v0v0q9 9 9 23t-9 23t-23 9q-13 0 -22 -9t-10 -23q1 -14 10 -23t22 -9
v0z" />
</svg>
