<?xml version="1.0" standalone="no"?>
<!DOCTYPE svg PUBLIC "-//W3C//DTD SVG 1.1//EN" "http://www.w3.org/Graphics/SVG/1.1/DTD/svg11.dtd" >
<svg xmlns="http://www.w3.org/2000/svg" xmlns:xlink="http://www.w3.org/1999/xlink" version="1.1" viewBox="-10 -40 468 512">
   <path fill="currentColor"
d="M128 97q0 -17 -12 -28v0v0q-11 -12 -28 -12h-48v0q-17 0 -28 12q-12 11 -12 28v48v0q0 17 12 28q11 12 28 12h48v0q17 0 28 -12q12 -11 12 -28v-48v0zM128 289q0 -17 -12 -28v0v0q-11 -12 -28 -12h-48v0q-17 0 -28 12q-12 11 -12 28v48v0q0 17 12 28q11 12 28 12h48v0
q17 0 28 -12q12 -11 12 -28v-48v0zM160 97v48v-48v48q0 17 12 28q11 12 28 12h48v0q17 0 28 -12q12 -11 12 -28v-48v0q0 -17 -12 -28q-11 -12 -28 -12h-48v0q-17 0 -28 12q-12 11 -12 28v0zM288 289q0 -17 -12 -28v0v0q-11 -12 -28 -12h-48v0q-17 0 -28 12q-12 11 -12 28v48
v0q0 17 12 28q11 12 28 12h48v0q17 0 28 -12q12 -11 12 -28v-48v0zM320 97v48v-48v48q0 17 12 28q11 12 28 12h48v0q17 0 28 -12q12 -11 12 -28v-48v0q0 -17 -12 -28q-11 -12 -28 -12h-48v0q-17 0 -28 12q-12 11 -12 28v0zM448 289q0 -17 -12 -28v0v0q-11 -12 -28 -12h-48v0
q-17 0 -28 12q-12 11 -12 28v48v0q0 17 12 28q11 12 28 12h48v0q17 0 28 -12q12 -11 12 -28v-48v0z" />
</svg>
