<?xml version="1.0" standalone="no"?>
<!DOCTYPE svg PUBLIC "-//W3C//DTD SVG 1.1//EN" "http://www.w3.org/Graphics/SVG/1.1/DTD/svg11.dtd" >
<svg xmlns="http://www.w3.org/2000/svg" xmlns:xlink="http://www.w3.org/1999/xlink" version="1.1" viewBox="-10 -40 340 512">
   <path fill="currentColor"
d="M40 313h48h-48h48q17 0 28 12q12 11 12 28v48v0q0 17 -12 28q-11 12 -28 12h-48v0q-17 0 -28 -12q-12 -11 -12 -28v-48v0q0 -17 12 -28q11 -12 28 -12v0zM232 313h48h-48h48q17 0 28 12q12 11 12 28v48v0q0 17 -12 28q-11 12 -28 12h-48v0q-17 0 -28 -12q-12 -11 -12 -28
v-48v0q0 -17 12 -28q11 -12 28 -12v0zM40 281q-17 0 -28 -12v0v0q-12 -11 -12 -28v-48v0q0 -17 12 -28q11 -12 28 -12h48v0q17 0 28 12q12 11 12 28v48v0q0 17 -12 28q-11 12 -28 12h-48v0zM232 153h48h-48h48q17 0 28 12q12 11 12 28v48v0q0 17 -12 28q-11 12 -28 12h-48v0
q-17 0 -28 -12q-12 -11 -12 -28v-48v0q0 -17 12 -28q11 -12 28 -12v0zM40 121q-17 0 -28 -12v0v0q-12 -11 -12 -28v-48v0q0 -17 12 -28q11 -12 28 -12h48v0q17 0 28 12q12 11 12 28v48v0q0 17 -12 28q-11 12 -28 12h-48v0zM232 -7h48h-48h48q17 0 28 12q12 11 12 28v48v0
q0 17 -12 28q-11 12 -28 12h-48v0q-17 0 -28 -12q-12 -11 -12 -28v-48v0q0 -17 12 -28q11 -12 28 -12v0z" />
</svg>
