<?xml version="1.0" standalone="no"?>
<!DOCTYPE svg PUBLIC "-//W3C//DTD SVG 1.1//EN" "http://www.w3.org/Graphics/SVG/1.1/DTD/svg11.dtd" >
<svg xmlns="http://www.w3.org/2000/svg" xmlns:xlink="http://www.w3.org/1999/xlink" version="1.1" viewBox="-10 -40 532 512">
   <path fill="currentColor"
d="M272 -15q-2 -22 -24 -24q-22 2 -24 24v5v0q1 53 40 89l16 15v0q23 22 24 54v13v0q2 22 24 24q22 -2 24 -24v-13v0q-1 -53 -40 -89l-16 -15v0q-23 -22 -24 -54v-5v0zM0 281v16v-16v16v112v0q1 27 19 45t45 19h384v0q27 -1 45 -19t19 -45v-128v0q-1 -27 -19 -45t-45 -19
h-171v0q-21 0 -38 -13l-85 -64v0q-26 -19 -58 -19q-41 1 -68 28t-28 68v64v0zM128 297v96v-96v96q-1 15 -16 16q-15 -1 -16 -16v-96v0q1 -15 16 -16q15 1 16 16v0zM208 281q15 1 16 16v96v0q-1 15 -16 16q-15 -1 -16 -16v-96v0q1 -15 16 -16v0zM320 297v96v-96v96
q-1 15 -16 16q-15 -1 -16 -16v-96v0q1 -15 16 -16q15 1 16 16v0zM400 281q15 1 16 16v96v0q-1 15 -16 16q-15 -1 -16 -16v-96v0q1 -15 16 -16v0zM360 -39q-22 2 -24 24v5v0q1 53 40 89l16 15v0q23 22 24 54v13v0q2 22 24 24q22 -2 24 -24v-13v0q-1 -53 -40 -89l-16 -15v0
q-23 -22 -24 -54v-5v0q-2 -22 -24 -24v0zM64 89q36 -1 55 -32q18 -32 0 -64q-19 -31 -55 -32q-36 1 -55 32q-18 32 0 64q19 31 55 32v0z" />
</svg>
