<?xml version="1.0" standalone="no"?>
<!DOCTYPE svg PUBLIC "-//W3C//DTD SVG 1.1//EN" "http://www.w3.org/Graphics/SVG/1.1/DTD/svg11.dtd" >
<svg xmlns="http://www.w3.org/2000/svg" xmlns:xlink="http://www.w3.org/1999/xlink" version="1.1" viewBox="-10 -40 532 512">
   <path fill="currentColor"
d="M0 -7q0 -14 9 -23v0v0q9 -9 23 -9h448v0q14 0 23 9t9 23t-9 23t-23 9v384v0q14 0 23 9t9 23t-9 23t-23 9h-176v0v-48v0q-1 -20 -14 -34q-14 -13 -34 -14q-20 1 -34 14q-13 14 -14 34v48v0h-176v0q-14 0 -23 -9t-9 -23t9 -23t23 -9v-384v0q-14 0 -23 -9t-9 -23v0zM96 73
v32v-32v32q1 15 16 16h32v0q15 -1 16 -16v-32v0q-1 -15 -16 -16h-32v0q-15 1 -16 16v0zM240 57q-15 1 -16 16v32v0q1 15 16 16h32v0q15 -1 16 -16v-32v0q-1 -15 -16 -16h-32v0zM352 73v32v-32v32q1 15 16 16h32v0q15 -1 16 -16v-32v0q-1 -15 -16 -16h-32v0q-15 1 -16 16v0z
M112 153q-15 1 -16 16v32v0q1 15 16 16h32v0q15 -1 16 -16v-32v0q-1 -15 -16 -16h-32v0zM224 169v32v-32v32q1 15 16 16h32v0q15 -1 16 -16v-32v0q-1 -15 -16 -16h-32v0q-15 1 -16 16v0zM368 153q-15 1 -16 16v32v0q1 15 16 16h32v0q15 -1 16 -16v-32v0q-1 -15 -16 -16h-32
v0zM328 345q10 0 17 -7v0v0q6 -7 4 -17q-9 -32 -34 -51q-25 -20 -59 -21q-34 1 -59 21q-25 19 -34 51q-2 10 4 17q7 7 17 7h144v0z" />
</svg>
