<?xml version="1.0" standalone="no"?>
<!DOCTYPE svg PUBLIC "-//W3C//DTD SVG 1.1//EN" "http://www.w3.org/Graphics/SVG/1.1/DTD/svg11.dtd" >
<svg xmlns="http://www.w3.org/2000/svg" xmlns:xlink="http://www.w3.org/1999/xlink" version="1.1" viewBox="-10 -40 660 512">
   <path fill="currentColor"
d="M448 -7q0 -14 -9 -23v0v0q-9 -9 -23 -9t-23 9t-9 23v11v0q1 86 61 147l21 21v0q14 14 14 34v11v0q0 14 9 23t23 9t23 -9t9 -23v-11v0q-1 -46 -33 -79l-21 -21v0q-41 -43 -42 -102v-11v0zM576 217q0 14 9 23v0v0q9 9 23 9t23 -9t9 -23v-11v0q-1 -86 -61 -147l-21 -21v0
q-14 -14 -14 -34v-11v0q0 -14 -9 -23t-23 -9t-23 9t-9 23v11v0q1 46 33 79l21 21v0q41 43 42 102v11v0zM230 321q-7 -3 -15 -2q-58 9 -107 23q-41 11 -66 19q-12 4 -19 7h-2q-2 1 -3 2h-2v0q-15 6 -16 23q1 17 16 23h2v0l1 1q2 0 4 1q7 2 19 7q25 8 66 19q40 11 87 20
q48 9 93 9h67v0q7 -2 4 -8l-102 -123v0q-12 -14 -27 -21v0zM445 473h19h-19h70q7 -2 4 -8l-102 -123v0q-25 -28 -62 -29h-19h-48h-2h-1q-7 2 -4 8l103 123v0q24 28 61 29v0zM441 321l103 123l-103 -123l103 123q23 27 58 29q16 -1 27 -12q11 -12 11 -28v-80v0q0 -17 -12 -28
q-11 -12 -28 -12h-155v0q-7 2 -4 8v0z" />
</svg>
