<?xml version="1.0" standalone="no"?>
<!DOCTYPE svg PUBLIC "-//W3C//DTD SVG 1.1//EN" "http://www.w3.org/Graphics/SVG/1.1/DTD/svg11.dtd" >
<svg xmlns="http://www.w3.org/2000/svg" xmlns:xlink="http://www.w3.org/1999/xlink" version="1.1" viewBox="-10 -40 532 512">
   <path fill="currentColor"
d="M256 473q70 -1 128 -34v0v0q58 -34 94 -94q34 -61 34 -128t-34 -128q-36 -60 -94 -94q-58 -33 -128 -34q-70 1 -128 34q-58 34 -94 94q-34 61 -34 128t34 128q36 60 94 94q58 33 128 34v0zM305 275q7 8 7 18q-1 11 -7 18q-7 8 -17 14q-4 2 -9 4q5 2 9 4q10 6 17 14t7 18
q-1 10 -7 18q-7 8 -17 14q-21 11 -48 12q-6 0 -8 -6q-1 -6 4 -9v0v0v0v0v0v0v0v0v0v0h1v-1h1q1 -1 3 -2q4 -3 10 -7q6 -5 9 -10q4 -6 4 -9t-4 -9q-3 -5 -9 -10q-6 -4 -10 -7q-2 -1 -3 -2h-1v-1h-1v0v0v0v0v0v0v0v0q-4 -2 -4 -7t4 -7v0v0v0v0v0v0v0v0v0v0v0v0h1v0v-1v0h1
q1 -1 3 -2q4 -3 10 -7q6 -5 9 -11q4 -5 4 -8t-4 -9q-3 -5 -9 -10t-10 -7q-2 -1 -3 -2l-1 -1v0v0h-1v0v0v0v0v0v0v0v0v0q-5 -3 -4 -9q2 -6 8 -6q27 0 48 12q10 6 17 13v1zM218 190v0v0v0v0v0h-1v0v-1v0q-1 -2 -3 -4l-10 -10q-14 -13 -28 -14q-14 1 -28 14l-10 10q-2 2 -3 4v0
v1h-1v0v0v0v0v0v0v0q-3 4 -8 3q-6 -2 -6 -8q1 -28 17 -49q15 -21 39 -23q24 2 39 23q16 21 17 49q0 6 -5 8q-6 1 -9 -3v0v0v0v0zM378 190v0v0v0h-1v0v-1v0q-1 -2 -3 -4l-10 -10q-14 -13 -28 -14q-14 1 -28 14l-10 10q-2 2 -3 4v0v1h-1v0v0v0v0v0v0v0q-3 4 -9 3q-5 -2 -5 -8
q1 -28 17 -49q15 -21 39 -23q24 2 39 23q16 21 17 49q0 6 -6 8q-5 1 -8 -3v0v0v0v0v0v0z" />
</svg>
