<?xml version="1.0" standalone="no"?>
<!DOCTYPE svg PUBLIC "-//W3C//DTD SVG 1.1//EN" "http://www.w3.org/Graphics/SVG/1.1/DTD/svg11.dtd" >
<svg xmlns="http://www.w3.org/2000/svg" xmlns:xlink="http://www.w3.org/1999/xlink" version="1.1" viewBox="-10 -40 532 512">
   <path fill="currentColor"
d="M256 473q70 -1 128 -34v0v0q58 -34 94 -94q34 -61 34 -128t-34 -128q-36 -60 -94 -94q-58 -33 -128 -34q-70 1 -128 34q-58 34 -94 94q-34 61 -34 128t34 128q36 60 94 94q58 33 128 34v0zM97 275q-3 -11 4 -18v0v0q6 -8 17 -8h276v0q11 0 17 8q7 7 4 18q-15 52 -58 85
q-43 32 -101 33q-58 -1 -101 -33q-43 -33 -58 -85v0zM134 76l89 48l-89 -48l89 48q8 4 8 13t-8 13l-89 48v0q-7 3 -12 0q-6 -3 -6 -10q0 -5 3 -8l36 -43v0l-36 -43v0q-3 -3 -3 -8q0 -7 6 -10q5 -3 12 0v0zM396 86q0 4 -3 8l-36 43v0l36 43v0q3 3 3 8q0 7 -6 10q-5 3 -11 0
l-90 -48v0q-8 -5 -8 -13q0 -9 8 -14l90 -47v0q6 -3 11 0q6 3 6 10v0z" />
</svg>
