<?xml version="1.0" standalone="no"?>
<!DOCTYPE svg PUBLIC "-//W3C//DTD SVG 1.1//EN" "http://www.w3.org/Graphics/SVG/1.1/DTD/svg11.dtd" >
<svg xmlns="http://www.w3.org/2000/svg" xmlns:xlink="http://www.w3.org/1999/xlink" version="1.1" viewBox="-10 -40 660 512">
   <path fill="currentColor"
d="M0 -7q0 -14 9 -23v0v0q9 -9 23 -9h16v0q34 1 57 23q22 23 23 57v288v0q1 15 16 16h464v0q14 0 23 9t9 23t-9 23t-23 9h-67v0q3 8 3 16q-1 20 -14 34q-14 13 -34 14q-20 -1 -34 -14q-13 -14 -14 -34q0 -8 3 -16h-198v0q3 8 3 16q-1 20 -14 34q-14 13 -34 14
q-20 -1 -34 -14q-13 -14 -14 -34q0 -8 3 -16h-19v0q-34 -1 -57 -23q-22 -23 -23 -57v-288v0q-1 -15 -16 -16h-16v0q-14 0 -23 -9t-9 -23v0zM432 57v-40v40v-40q-1 -7 -8 -8h-80v0q-7 1 -8 8v40v0h96v0zM288 57v-40v40v-40q1 -24 16 -40q16 -15 40 -16h80v0q24 1 40 16
q15 16 16 40v40v0v224v0h-192v0v-224v0zM512 281v-224v224v-224h16v0q20 1 34 14q13 14 14 34v128v0q-1 20 -14 34q-14 13 -34 14h-16v0zM240 57h16h-16h16v224v0h-16v0q-20 -1 -34 -14q-13 -14 -14 -34v-128v0q1 -20 14 -34q14 -13 34 -14v0z" />
</svg>
