<?xml version="1.0" standalone="no"?>
<!DOCTYPE svg PUBLIC "-//W3C//DTD SVG 1.1//EN" "http://www.w3.org/Graphics/SVG/1.1/DTD/svg11.dtd" >
<svg xmlns="http://www.w3.org/2000/svg" xmlns:xlink="http://www.w3.org/1999/xlink" version="1.1" viewBox="-11 0 529 512">
   <path fill="currentColor"
d="M481 -8q-28 -27 -65 -27v0v0q-37 0 -65 27l-15 15v0l-13 -13v0q-22 -21 -51 -21t-51 21l-86 86v0q-14 17 0 34q17 14 34 0l86 -86v0q17 -14 34 0l13 13v0l-116 116v0l130 130v0l165 -165v0q27 -28 27 -65t-27 -65v0zM294 309l-130 -130l130 130l-130 -130l-64 65v0
q-74 73 -95 175l-5 25v0q-2 13 7 22t22 7l25 -5v0q102 -21 176 -94l64 -65v0z" />
</svg>
