<?xml version="1.0" standalone="no"?>
<!DOCTYPE svg PUBLIC "-//W3C//DTD SVG 1.1//EN" "http://www.w3.org/Graphics/SVG/1.1/DTD/svg11.dtd" >
<svg xmlns="http://www.w3.org/2000/svg" xmlns:xlink="http://www.w3.org/1999/xlink" version="1.1" viewBox="-10 -40 404 512">
   <path fill="currentColor"
d="M181 -34q11 -10 22 0l80 80v0q4 4 5 9l40 322v0h-272v0l40 -322v0q1 -5 5 -9l80 -80v0zM152 233q-22 2 -24 24q2 22 24 24h80v0q22 -2 24 -24q-2 -22 -24 -24h-80v0zM32 409h320h-320h320q14 0 23 9t9 23t-9 23t-23 9h-320v0q-14 0 -23 -9t-9 -23t9 -23t23 -9v0z" />
</svg>
