<?xml version="1.0" standalone="no"?>
<!DOCTYPE svg PUBLIC "-//W3C//DTD SVG 1.1//EN" "http://www.w3.org/Graphics/SVG/1.1/DTD/svg11.dtd" >
<svg xmlns="http://www.w3.org/2000/svg" xmlns:xlink="http://www.w3.org/1999/xlink" version="1.1" viewBox="-10 -40 468 512">
   <path fill="currentColor"
d="M0 25q1 -27 19 -45v0v0q18 -18 45 -19h320v0q27 1 45 19t19 45v384v0q-1 27 -19 45t-45 19h-320v0q-27 -1 -45 -19t-19 -45v-384v0zM183 240q-44 -22 -54 -71h39v0q4 45 15 71v0zM224 249v0v0v0v0v0q-4 -5 -9 -16q-11 -21 -15 -64h48v0q-4 43 -15 64q-5 11 -9 16v0z
M265 240q11 -26 15 -71h39v0q-10 49 -54 71v0zM280 137q-4 -45 -15 -71q44 22 54 71h-39v0zM224 57v0v0v0v0v0q4 5 9 17q11 20 15 63h-47v0q3 -43 14 -63q5 -12 9 -17v0zM183 66q-11 26 -15 71h-39v0q10 -49 54 -71v0zM352 153q0 -35 -17 -64v0v0q-17 -29 -47 -47
q-30 -17 -64 -17t-64 17q-30 18 -47 47t-17 64t17 64t47 47q30 17 64 17t64 -17q30 -18 47 -47t17 -64v0zM112 345q-15 1 -16 16q1 15 16 16h224v0q15 -1 16 -16q-1 -15 -16 -16h-224v0z" />
</svg>
