<?xml version="1.0" standalone="no"?>
<!DOCTYPE svg PUBLIC "-//W3C//DTD SVG 1.1//EN" "http://www.w3.org/Graphics/SVG/1.1/DTD/svg11.dtd" >
<svg xmlns="http://www.w3.org/2000/svg" xmlns:xlink="http://www.w3.org/1999/xlink" version="1.1" viewBox="-10 -40 654 512">
   <path fill="currentColor"
d="M122 -39q-23 0 -40 14v0v0q-18 15 -22 37l-52 256v0q-5 31 14 54q18 22 49 23h217v0v64v0h-64v0q-14 0 -23 9t-9 23t9 23t23 9h192v0q14 0 23 -9t9 -23t-9 -23t-23 -9h-64v0v-64v0h217v0q31 -1 50 -23q18 -23 13 -54l-51 -256v0q-5 -22 -23 -37q-17 -14 -40 -14h-396v0z
M261 25h118h-118h118l11 104v0h-139v0l10 -104v0zM202 129h-101h101h-101l21 -104v0h91v0l-11 104v0zM92 177h106h-106h106l-11 104v0h-116v0l21 -104v0zM246 177h148h-148h148l11 104v0h-170v0l11 -104v0zM443 177h105h-105h105l21 104v0h-116v0l-10 -104v0zM539 129h-101
h101h-101l-11 -104v0h91v0l31 -6v0l-31 6v0l21 104v0z" />
</svg>
