<?xml version="1.0" standalone="no"?>
<!DOCTYPE svg PUBLIC "-//W3C//DTD SVG 1.1//EN" "http://www.w3.org/Graphics/SVG/1.1/DTD/svg11.dtd" >
<svg xmlns="http://www.w3.org/2000/svg" xmlns:xlink="http://www.w3.org/1999/xlink" version="1.1" viewBox="-10 -40 532 512">
   <path fill="currentColor"
d="M128 -39h64h-64h64q14 0 23 9t9 23v96v0h-128v0v-96v0q0 -14 9 -23t23 -9v0zM0 217q1 -41 28 -68v0v0q27 -27 68 -28h128v0q41 1 68 28t28 68v208v0q-1 20 -14 34q-14 13 -34 14h-224v0q-20 -1 -34 -14q-13 -14 -14 -34v-208v0zM240 297q-1 -45 -40 -69q-40 -22 -80 0
q-39 24 -40 69q1 45 40 69q40 22 80 0q39 -24 40 -69v0zM256 25q0 -14 9 -23v0v0q9 -9 23 -9t23 9t9 23t-9 23t-23 9t-23 -9t-9 -23v0zM384 -7q14 0 23 9v0v0q9 9 9 23t-9 23t-23 9t-23 -9t-9 -23t9 -23t23 -9v0zM448 25q0 -14 9 -23v0v0q9 -9 23 -9t23 9t9 23t-9 23t-23 9
t-23 -9t-9 -23v0zM480 89q14 0 23 9v0v0q9 9 9 23t-9 23t-23 9t-23 -9t-9 -23t9 -23t23 -9v0zM448 217q0 -14 9 -23v0v0q9 -9 23 -9t23 9t9 23t-9 23t-23 9t-23 -9t-9 -23v0zM384 89q14 0 23 9v0v0q9 9 9 23t-9 23t-23 9t-23 -9t-9 -23t9 -23t23 -9v0z" />
</svg>
