<?xml version="1.0" standalone="no"?>
<!DOCTYPE svg PUBLIC "-//W3C//DTD SVG 1.1//EN" "http://www.w3.org/Graphics/SVG/1.1/DTD/svg11.dtd" >
<svg xmlns="http://www.w3.org/2000/svg" xmlns:xlink="http://www.w3.org/1999/xlink" version="1.1" viewBox="-10 -40 586 512">
   <path fill="currentColor"
d="M288 337v0v0v0l27 14v0l85 46v0l-17 -98v0l-5 -28v0l21 -21v0l70 -69v0l-96 -14v0l-29 -5v0l-13 -26v0l-43 -88v0v0v0v289v0zM463 436q3 19 -13 31q-16 11 -34 2l-128 -68v0l-128 68v0q-18 9 -34 -2q-15 -12 -13 -31l25 -146v0l-104 -103v0q-14 -14 -8 -33q6 -18 25 -21
l144 -22v0l64 -132v0q10 -17 29 -18q20 1 29 18l64 132v0l144 22v0q19 3 26 21q5 19 -8 33l-104 103v0l24 146v0z" />
</svg>
