<?xml version="1.0" standalone="no"?>
<!DOCTYPE svg PUBLIC "-//W3C//DTD SVG 1.1//EN" "http://www.w3.org/Graphics/SVG/1.1/DTD/svg11.dtd" >
<svg xmlns="http://www.w3.org/2000/svg" xmlns:xlink="http://www.w3.org/1999/xlink" version="1.1" viewBox="-10 -40 596 512">
   <path fill="currentColor"
d="M154 106q5 12 15 22v0v0q10 9 23 9h192v0q13 0 23 -9q10 -10 15 -22q10 -22 29 -35q20 -14 45 -14q34 1 57 23q22 23 23 57q-2 48 -42 70q-6 4 -6 10t6 10q40 22 42 70q-1 34 -23 57q-23 22 -57 23q-25 0 -45 -14q-19 -13 -29 -35q-5 -12 -15 -22q-10 -9 -23 -9h-192v0
q-13 0 -23 9q-10 10 -15 22q-10 22 -29 35q-20 14 -45 14q-34 -1 -57 -23q-22 -23 -23 -57q2 -48 42 -70q6 -4 6 -10t-6 -10q-40 -22 -42 -70q1 -34 23 -57q23 -22 57 -23q25 0 45 14q19 13 29 35v0z" />
</svg>
