<?xml version="1.0" standalone="no"?>
<!DOCTYPE svg PUBLIC "-//W3C//DTD SVG 1.1//EN" "http://www.w3.org/Graphics/SVG/1.1/DTD/svg11.dtd" >
<svg xmlns="http://www.w3.org/2000/svg" xmlns:xlink="http://www.w3.org/1999/xlink" version="1.1" viewBox="-10 -40 522 512">
   <path fill="currentColor"
d="M469 65h-13h13h-13v0v0h-2h-1q-19 -4 -21 -24q2 -20 21 -24h2v0h1h30q9 0 13 -6t0 -14q-6 -8 -13 -14q-6 -6 -13 -11q-3 -2 -6 -3q-16 -8 -35 -8q-46 2 -68 39q-6 8 -16 9h-184v0q-10 -1 -15 -9q-23 -37 -69 -39q-19 0 -35 8q-3 1 -6 3q-7 4 -13 10q-8 7 -13 15
q-4 8 0 14t13 6h17h14h1h1q19 4 21 24q-2 20 -21 24h-2h-1h-30q-9 0 -13 6t0 14q5 8 12 15l14 10q3 2 6 3q16 8 35 8q45 -2 68 -39q6 -8 16 -9h184v0q10 0 16 9q23 37 68 39q19 0 35 -8q3 -2 6 -3q7 -5 13 -10q8 -7 13 -15q4 -8 0 -14t-13 -6h-17v0zM186 185h140h-140h140
q11 1 15 11l19 53v0h-208v0l19 -53v0q4 -10 15 -11v0zM111 174l-29 79l29 -79l-29 79q-32 15 -34 52v40v0v64v0v32v0q0 14 9 23t23 9h16v0q14 0 23 -9t9 -23v-32v0h256v0v32v0q0 14 9 23t23 9h16v0q14 0 23 -9t9 -23v-32v0v-64v0v-40v0q-2 -37 -34 -52l-28 -79v0
q-10 -24 -30 -38q-20 -15 -46 -15h-140v0q-26 0 -46 15q-21 14 -29 38v0zM128 305q22 2 24 24q-2 22 -24 24q-22 -2 -24 -24q2 -22 24 -24v0zM360 329q2 -22 24 -24q22 2 24 24q-2 22 -24 24q-22 -2 -24 -24v0z" />
</svg>
