<?xml version="1.0" standalone="no"?>
<!DOCTYPE svg PUBLIC "-//W3C//DTD SVG 1.1//EN" "http://www.w3.org/Graphics/SVG/1.1/DTD/svg11.dtd" >
<svg xmlns="http://www.w3.org/2000/svg" xmlns:xlink="http://www.w3.org/1999/xlink" version="1.1" viewBox="-10 -40 660 512">
   <path fill="currentColor"
d="M145 82l147 -40l-147 40l147 -40q21 -4 35 12l37 52v0l-249 67v0l7 -64v0q3 -21 23 -27v0zM58 102l-10 93l10 -93l-10 93q-16 12 -22 30q-7 18 -2 38l33 124v0l6 22v0h-15v0q-20 1 -34 14q-13 14 -14 34v16v0h640v0v-16v0q-1 -20 -14 -34q-14 -13 -34 -14h-429v0v0l-1 -1
l-12 -46v0l278 -75v0l13 47v0q3 13 15 19q11 7 24 3l31 -8v0q13 -4 19 -15q7 -11 3 -24l-12 -46v0l-33 -124v0q-6 -20 -21 -32q-14 -13 -34 -15l-55 -76v0q-18 -24 -45 -33q-28 -10 -57 -3l-147 40v0q-30 8 -48 30q-19 22 -23 52v0zM117 238q18 -4 31 8q13 14 9 31
q-6 18 -23 23q-18 5 -32 -8q-12 -13 -8 -31q5 -18 23 -23v0zM373 203q-5 -18 7 -31q14 -13 32 -9q17 6 22 23q5 18 -8 32q-13 12 -31 8q-17 -5 -22 -23v0z" />
</svg>
