<?xml version="1.0" standalone="no"?>
<!DOCTYPE svg PUBLIC "-//W3C//DTD SVG 1.1//EN" "http://www.w3.org/Graphics/SVG/1.1/DTD/svg11.dtd" >
<svg xmlns="http://www.w3.org/2000/svg" xmlns:xlink="http://www.w3.org/1999/xlink" version="1.1" viewBox="-10 -40 458 512">
   <path fill="currentColor"
d="M15 328q-14 17 0 34q17 14 34 0l18 -19v0q53 42 117 49v33v0h-96v0q-22 2 -24 24q2 22 24 24h240v0q22 -2 24 -24q-2 -22 -24 -24h-96v0v-33v0q76 -8 134 -65q62 -64 66 -147t-49 -151l18 -19v0q14 -17 0 -34q-17 -14 -34 0l-34 35v0q-15 17 0 34q51 54 51 124t-51 124
q-55 52 -125 52t-124 -52q-17 -14 -34 0l-35 35v0zM208 313q39 0 72 -19v0v0q33 -19 53 -53q19 -34 19 -72t-19 -72q-20 -34 -53 -53t-72 -19t-72 19t-53 53q-19 34 -19 72t19 72q20 34 53 53t72 19v0z" />
</svg>
