<?xml version="1.0" standalone="no"?>
<!DOCTYPE svg PUBLIC "-//W3C//DTD SVG 1.1//EN" "http://www.w3.org/Graphics/SVG/1.1/DTD/svg11.dtd" >
<svg xmlns="http://www.w3.org/2000/svg" xmlns:xlink="http://www.w3.org/1999/xlink" version="1.1" viewBox="-10 -40 660 512">
   <path fill="currentColor"
d="M319 -39q24 1 32 24l74 271v0l18 -36v0q18 -34 57 -35h108v0q14 0 23 9t9 23t-9 23t-23 9h-108v0l-55 110v0q-11 19 -32 18q-21 -3 -28 -24l-61 -225v0l-69 320v0q-6 23 -30 25q-24 -1 -32 -23l-57 -201v0h-104v0q-14 0 -23 -9t-9 -23t9 -23t23 -9h104v0q22 0 38 13
q17 12 23 33l23 78v0l69 -323v0q6 -23 30 -25v0z" />
</svg>
