<?xml version="1.0" standalone="no"?>
<!DOCTYPE svg PUBLIC "-//W3C//DTD SVG 1.1//EN" "http://www.w3.org/Graphics/SVG/1.1/DTD/svg11.dtd" >
<svg xmlns="http://www.w3.org/2000/svg" xmlns:xlink="http://www.w3.org/1999/xlink" version="1.1" viewBox="-10 -40 596 512">
   <path fill="currentColor"
d="M288 62q4 -3 10 -7q13 -10 34 -20q20 -9 44 -10q32 2 61 19q31 17 61 40q29 23 50 46q11 12 18 24q8 11 10 31q-1 14 -5 27q-5 14 -13 31q-16 33 -48 71q-31 37 -79 65q-47 29 -111 30h-64v0q-64 -1 -111 -30q-48 -28 -79 -65q-32 -37 -48 -71q-8 -17 -13 -30
q-4 -14 -5 -28q2 -20 10 -31q7 -12 18 -24q21 -23 50 -46q30 -23 61 -40q29 -17 61 -19q24 1 44 10q21 10 34 20q1 0 1 1q5 3 9 6v0zM64 185q0 6 26 28v0v0q26 23 76 45v0v0q50 21 122 23q72 -2 122 -23q50 -22 76 -45q26 -22 26 -28q0 -7 -35 -19q-34 -11 -104 -13
q-5 0 -10 2q-11 3 -33 8t-42 6q-20 -1 -42 -6t-33 -8q-5 -2 -10 -2q-70 2 -104 13q-35 12 -35 19v0z" />
</svg>
