<?xml version="1.0" standalone="no"?>
<!DOCTYPE svg PUBLIC "-//W3C//DTD SVG 1.1//EN" "http://www.w3.org/Graphics/SVG/1.1/DTD/svg11.dtd" >
<svg xmlns="http://www.w3.org/2000/svg" xmlns:xlink="http://www.w3.org/1999/xlink" version="1.1" viewBox="-10 -40 404 512">
   <path fill="currentColor"
d="M216 460q27 -33 66 -89v0v0q39 -55 70 -114v0v0q30 -59 32 -104q-2 -82 -56 -136t-136 -56q-82 2 -136 56t-56 136q2 45 32 104q31 59 70 114q39 56 66 89q10 12 24 12t24 -12v0zM305 106l-128 128l128 -128l-128 128q-17 14 -34 0l-64 -64v0q-14 -17 0 -34q17 -14 34 0
l47 47v0l111 -111v0q17 -14 34 0q14 17 0 34v0z" />
</svg>
