<?xml version="1.0" standalone="no"?>
<!DOCTYPE svg PUBLIC "-//W3C//DTD SVG 1.1//EN" "http://www.w3.org/Graphics/SVG/1.1/DTD/svg11.dtd" >
<svg xmlns="http://www.w3.org/2000/svg" xmlns:xlink="http://www.w3.org/1999/xlink" version="1.1" viewBox="-10 -40 404 512">
   <path fill="currentColor"
d="M216 460q27 -33 66 -89v0v0q39 -55 70 -114v0v0q30 -59 32 -104q-2 -82 -56 -136t-136 -56q-82 2 -136 56t-56 136q2 45 32 104q31 59 70 114q39 56 66 89q10 12 24 12t24 -12v0zM168 241v-64v64v-64h-64v0q-22 -2 -24 -24q2 -22 24 -24h64v0v-64v0q2 -22 24 -24
q22 2 24 24v64v0h64v0q22 2 24 24q-2 22 -24 24h-64v0v64v0q-2 22 -24 24q-22 -2 -24 -24v0z" />
</svg>
