<?xml version="1.0" standalone="no"?>
<!DOCTYPE svg PUBLIC "-//W3C//DTD SVG 1.1//EN" "http://www.w3.org/Graphics/SVG/1.1/DTD/svg11.dtd" >
<svg xmlns="http://www.w3.org/2000/svg" xmlns:xlink="http://www.w3.org/1999/xlink" version="1.1" viewBox="-11 0 662 512">
   <path fill="currentColor"
d="M39 -34q-19 -12 -34 4q-12 19 4 34l592 464v0q19 12 34 -4q12 -19 -4 -34l-172 -134v0q23 -40 38 -77q15 -36 15 -66q-2 -82 -56 -136t-136 -56q-54 1 -97 26q-43 26 -69 69l-115 -90v0zM406 377l-278 -219l278 219l-278 -219q4 45 34 103q31 59 69 112q39 54 65 87
q10 12 24 12t24 -12q25 -31 62 -83v0z" />
</svg>
