<?xml version="1.0" standalone="no"?>
<!DOCTYPE svg PUBLIC "-//W3C//DTD SVG 1.1//EN" "http://www.w3.org/Graphics/SVG/1.1/DTD/svg11.dtd" >
<svg xmlns="http://www.w3.org/2000/svg" xmlns:xlink="http://www.w3.org/1999/xlink" version="1.1" viewBox="-10 -40 532 512">
   <path fill="currentColor"
d="M160 -7q0 -14 9 -23v0v0q9 -9 23 -9h32v0q14 0 23 9t9 23q14 0 23 9t9 23v224v0q0 14 -9 23t-23 9q0 14 -9 23t-23 9h-32v0q-14 0 -23 -9t-9 -23q-14 0 -23 -9t-9 -23v-224v0q0 -14 9 -23t23 -9v0zM32 409h288h-288h288q54 -1 91 -37q36 -37 37 -91q-1 -54 -37 -91
q-37 -36 -91 -37v-64v0q82 2 136 56t56 136q-2 75 -49 128h17v0q14 0 23 9t9 23t-9 23t-23 9h-160h-288q-14 0 -23 -9t-9 -23t9 -23t23 -9v0zM112 345h192h-192h192q15 1 16 16q-1 15 -16 16h-192v0q-15 -1 -16 -16q1 -15 16 -16v0z" />
</svg>
