<?xml version="1.0" standalone="no"?>
<!DOCTYPE svg PUBLIC "-//W3C//DTD SVG 1.1//EN" "http://www.w3.org/Graphics/SVG/1.1/DTD/svg11.dtd" >
<svg xmlns="http://www.w3.org/2000/svg" xmlns:xlink="http://www.w3.org/1999/xlink" version="1.1" viewBox="-10 -40 532 512">
   <path fill="currentColor"
d="M448 217q0 -52 -26 -96v0v0q-25 -44 -70 -70t-96 -26t-96 26t-70 70q-26 44 -26 96t26 96q25 44 70 70t96 26t96 -26t70 -70q26 -44 26 -96v0zM0 217q1 -70 34 -128v0v0q34 -58 94 -94q61 -34 128 -34t128 34q60 36 94 94q33 58 34 128q-1 70 -34 128q-34 58 -94 94
q-61 34 -128 34t-128 -34q-60 -36 -94 -94q-33 -58 -34 -128v0zM232 217h48h-48h48q14 0 23 -9t9 -23t-9 -23t-23 -9h-48v0v64v0zM280 281h-48h48h-48v32v0q0 14 -9 23t-23 9t-23 -9t-9 -23v-64v0v-120v0q0 -17 12 -28q11 -12 28 -12h72v0q41 1 68 28t28 68q-1 41 -28 68
t-68 28v0z" />
</svg>
