<?xml version="1.0" standalone="no"?>
<!DOCTYPE svg PUBLIC "-//W3C//DTD SVG 1.1//EN" "http://www.w3.org/Graphics/SVG/1.1/DTD/svg11.dtd" >
<svg xmlns="http://www.w3.org/2000/svg" xmlns:xlink="http://www.w3.org/1999/xlink" version="1.1" viewBox="-10 -40 522 512">
   <path fill="currentColor"
d="M85 153h341h-341h341q-1 66 -22 114q-17 41 -53 75t-96 64q-60 -27 -96 -61t-53 -74q-20 -50 -21 -118v0zM277 -32q-21 -11 -42 0q-40 25 -73 30q-34 7 -84 -3q-17 -3 -30 7q-14 9 -17 27q-12 77 -9 143q2 67 25 123q47 113 193 174q17 7 33 0q142 -66 190 -176
q24 -56 27 -121q3 -66 -9 -143q-3 -18 -16 -27q-14 -10 -31 -7q-50 9 -84 3q-33 -5 -73 -30v0z" />
</svg>
