<?xml version="1.0" standalone="no"?>
<!DOCTYPE svg PUBLIC "-//W3C//DTD SVG 1.1//EN" "http://www.w3.org/Graphics/SVG/1.1/DTD/svg11.dtd" >
<svg xmlns="http://www.w3.org/2000/svg" xmlns:xlink="http://www.w3.org/1999/xlink" version="1.1" viewBox="-10 -40 532 512">
   <path fill="currentColor"
d="M387 -14q22 -24 54 -25q30 1 50 21t21 50v4v0q0 27 -18 48l-125 148v0q-14 17 -36 17h-133v0q-10 0 -14 -9q-4 -10 2 -17l199 -237v0zM169 281h7h-7h119v16v0q-2 56 -40 90q-38 35 -86 53t-89 26q-42 7 -57 7q-10 0 -15 -10q-3 -10 4 -17l160 -160v0l4 -5v0z" />
</svg>
