<?xml version="1.0" standalone="no"?>
<!DOCTYPE svg PUBLIC "-//W3C//DTD SVG 1.1//EN" "http://www.w3.org/Graphics/SVG/1.1/DTD/svg11.dtd" >
<svg xmlns="http://www.w3.org/2000/svg" xmlns:xlink="http://www.w3.org/1999/xlink" version="1.1" viewBox="-10 -40 532 512">
   <path fill="currentColor"
d="M315 -23q-9 -15 -27 -16q-18 1 -27 16l-96 160v0q-9 16 -1 32q10 15 28 16h192v0q18 -1 28 -16q8 -16 -1 -32l-96 -160v0zM288 273v144v-144v144q0 17 12 28q11 12 28 12h144v0q17 0 28 -12q12 -11 12 -28v-144v0q0 -17 -12 -28q-11 -12 -28 -12h-144v0q-17 0 -28 12
q-12 11 -12 28v0zM128 473q35 0 64 -17v0v0q29 -17 47 -47q17 -30 17 -64t-17 -64q-18 -30 -47 -47t-64 -17t-64 17t-47 47q-17 30 -17 64t17 64q18 30 47 47t64 17v0z" />
</svg>
