<?xml version="1.0" standalone="no"?>
<!DOCTYPE svg PUBLIC "-//W3C//DTD SVG 1.1//EN" "http://www.w3.org/Graphics/SVG/1.1/DTD/svg11.dtd" >
<svg xmlns="http://www.w3.org/2000/svg" xmlns:xlink="http://www.w3.org/1999/xlink" version="1.1" viewBox="-10 -40 660 512">
   <path fill="currentColor"
d="M75 334q32 29 77 54v0v0q44 24 89 20q9 -2 18 -5q-14 -18 -24 -35q-32 -54 -26 -114q-32 7 -55 26q-5 4 -10 1q-6 -2 -5 -8q5 -26 23 -44q19 -18 45 -22q4 -1 8 -1l20 -132v0q1 -23 25 -45q13 -12 39 -22q25 -10 64 -14v0l-2 -2q-14 -13 -58 -24q-44 -12 -127 0
q-83 14 -122 37q-39 24 -48 41q-8 12 -5 28l24 164v0q8 58 50 97v0zM162 115q9 -5 12 3v1v1q2 16 -7 29t-26 16q-16 2 -29 -8q-13 -9 -15 -26v0l-1 -1q1 -9 11 -7q13 5 28 2q15 -2 27 -10v0zM262 351q22 37 58 74v0v0q35 37 79 46q45 4 89 -20q45 -25 77 -54q42 -39 50 -97
l24 -165v0q3 -15 -5 -27q-10 -17 -48 -41q-39 -24 -122 -38q-83 -11 -127 0t-58 25q-11 10 -13 25l-24 164v0q-9 58 20 108v0zM405 196q-12 -8 -27 -10q-15 -3 -29 2q-9 2 -10 -7v-1v0q3 -17 15 -27q13 -9 30 -7q16 3 25 16q10 13 8 29v1l-1 1q-3 8 -11 3v0zM541 212
q-4 8 -12 3q-12 -8 -27 -11q-15 -2 -29 3q-9 2 -10 -7v-1v-1q3 -16 16 -26q12 -9 29 -7q16 3 26 16q9 12 7 29v1v1v0zM530 311q-15 34 -47 52v0v0q-32 18 -70 13q-38 -6 -63 -33q-25 -26 -30 -64q0 -6 5 -8t10 2q37 32 87 40q51 7 95 -13q6 -2 11 1q4 4 2 10v0z" />
</svg>
