<?xml version="1.0" standalone="no"?>
<!DOCTYPE svg PUBLIC "-//W3C//DTD SVG 1.1//EN" "http://www.w3.org/Graphics/SVG/1.1/DTD/svg11.dtd" >
<svg xmlns="http://www.w3.org/2000/svg" xmlns:xlink="http://www.w3.org/1999/xlink" version="1.1" viewBox="-10 -40 660 512">
   <path fill="currentColor"
d="M369 57l76 96l-76 -96l76 96h-157v0v-96v0h81v0zM224 41v112v-112v112h-160v0q-14 0 -23 9t-9 23v64v0q-14 0 -23 9t-9 23t9 23t23 9h33v0q-1 8 -1 16q1 48 33 79q31 32 79 33q48 -1 79 -33q32 -31 33 -79q0 -8 -1 -16h66v0q-1 8 -1 16q1 48 33 79q31 32 79 33
q48 -1 79 -33q32 -31 33 -79q0 -8 -1 -16h33v0q14 0 23 -9t9 -23t-9 -23t-23 -9v-64v0q0 -14 -9 -23t-23 -9h-49v0l-108 -136v0q-20 -23 -50 -24h-97v0q-20 1 -34 14q-13 14 -14 34v0zM224 329q-1 27 -24 42q-24 12 -48 0q-23 -15 -24 -42q1 -27 24 -42q24 -12 48 0
q23 15 24 42v0zM512 329q-1 27 -24 42q-24 12 -48 0q-23 -15 -24 -42q1 -27 24 -42q24 -12 48 0q23 15 24 42v0z" />
</svg>
