<?xml version="1.0" standalone="no"?>
<!DOCTYPE svg PUBLIC "-//W3C//DTD SVG 1.1//EN" "http://www.w3.org/Graphics/SVG/1.1/DTD/svg11.dtd" >
<svg xmlns="http://www.w3.org/2000/svg" xmlns:xlink="http://www.w3.org/1999/xlink" version="1.1" viewBox="-10 -40 532 512">
   <path fill="currentColor"
d="M335 206q1 5 1 11q-1 34 -23 57q-23 22 -57 23q-34 -1 -57 -23q-22 -23 -23 -57q1 -34 23 -57q23 -22 57 -23q6 0 11 1l32 -31v0l-5 -29v0q-18 -5 -38 -5q-61 2 -102 42q-40 41 -42 102q2 61 42 102q41 40 102 42q61 -2 102 -42q40 -41 42 -102q0 -20 -5 -38l-29 -4v0
l-31 31v0zM445 185q3 15 3 32q-2 82 -56 136t-136 56q-82 -2 -136 -56t-56 -136q2 -82 56 -136t136 -56q16 0 32 3l9 -10v0l44 -43v0q-40 -14 -85 -14q-72 1 -129 35q-58 34 -92 92q-34 57 -35 129q1 72 35 129q34 58 92 92q57 34 129 35q72 -1 129 -35q58 -34 92 -92
q34 -57 35 -129q0 -45 -14 -84l-43 43v0l-10 9v0zM365 142l51 8l-51 -8l51 8q16 2 28 -9l51 -51v0q6 -6 4 -14q-1 -8 -9 -12l-58 -23v0l-23 -57v0q-4 -9 -12 -10q-8 -2 -14 4l-51 51v0q-12 12 -9 28l8 51v0l-92 92v0q-14 17 0 34q17 14 34 0l92 -92v0z" />
</svg>
