<?xml version="1.0" standalone="no"?>
<!DOCTYPE svg PUBLIC "-//W3C//DTD SVG 1.1//EN" "http://www.w3.org/Graphics/SVG/1.1/DTD/svg11.dtd" >
<svg xmlns="http://www.w3.org/2000/svg" xmlns:xlink="http://www.w3.org/1999/xlink" version="1.1" viewBox="-10 -40 532 512">
   <path fill="currentColor"
d="M0 9q1 -20 14 -34v0v0q14 -13 34 -14h128v0q20 1 34 14q13 14 14 34v128v0q-1 20 -14 34q-14 13 -34 14h-128v0q-20 -1 -34 -14q-13 -14 -14 -34v-128v0zM288 9q1 -20 14 -34v0v0q14 -13 34 -14h128v0q20 1 34 14q13 14 14 34v128v0q-1 20 -14 34q-14 13 -34 14h-128v0
q-20 -1 -34 -14q-13 -14 -14 -34v-128v0zM336 249h128h-128h128q20 1 34 14q13 14 14 34v128v0q-1 20 -14 34q-14 13 -34 14h-128v0q-20 -1 -34 -14q-13 -14 -14 -34v-128v0q1 -20 14 -34q14 -13 34 -14v0zM0 297q1 -20 14 -34v0v0q14 -13 34 -14h128v0q20 1 34 14
q13 14 14 34v128v0q-1 20 -14 34q-14 13 -34 14h-128v0q-20 -1 -34 -14q-13 -14 -14 -34v-128v0zM416 25q-1 -15 -16 -16q-15 1 -16 16v32v0h-32v0q-15 1 -16 16q1 15 16 16h32v0v32v0q1 15 16 16q15 -1 16 -16v-32v0h32v0q15 -1 16 -16q-1 -15 -16 -16h-32v0v-32v0zM64 57
q-15 1 -16 16q1 15 16 16h96v0q15 -1 16 -16q-1 -15 -16 -16h-96v0zM83 310q-11 -10 -22 0q-10 11 0 22l28 29v0l-28 29v0q-10 11 0 22q11 10 22 0l29 -28v0l29 28v0q11 10 22 0q10 -11 0 -22l-28 -29v0l28 -29v0q10 -11 0 -22q-11 -10 -22 0l-29 28v0l-29 -28v0zM352 313
q-15 1 -16 16q1 15 16 16h96v0q15 -1 16 -16q-1 -15 -16 -16h-96v0zM352 377q-15 1 -16 16q1 15 16 16h96v0q15 -1 16 -16q-1 -15 -16 -16h-96v0z" />
</svg>
