<?xml version="1.0" standalone="no"?>
<!DOCTYPE svg PUBLIC "-//W3C//DTD SVG 1.1//EN" "http://www.w3.org/Graphics/SVG/1.1/DTD/svg11.dtd" >
<svg xmlns="http://www.w3.org/2000/svg" xmlns:xlink="http://www.w3.org/1999/xlink" version="1.1" viewBox="-10 -40 532 512">
   <path fill="currentColor"
d="M64 25q0 -14 -9 -23v0v0q-9 -9 -23 -9t-23 9t-9 23v336v0q1 34 23 57q23 22 57 23h400v0q14 0 23 -9t9 -23t-9 -23t-23 -9h-400v0q-15 -1 -16 -16v-336v0zM281 82l-73 74l73 -74l-73 74l-57 -58v0q-10 -9 -23 -9t-23 9q-9 10 -9 23t9 23l80 80v0q10 9 23 9t23 -9l73 -74
v0l57 58v0l-32 32v0q-11 12 -5 26q5 14 22 15h110v0q22 -2 24 -24v-110v0q-1 -17 -15 -22q-14 -6 -26 5l-32 32v0l-80 -80v0q-10 -9 -23 -9t-23 9v0z" />
</svg>
