<?xml version="1.0" standalone="no"?>
<!DOCTYPE svg PUBLIC "-//W3C//DTD SVG 1.1//EN" "http://www.w3.org/Graphics/SVG/1.1/DTD/svg11.dtd" >
<svg xmlns="http://www.w3.org/2000/svg" xmlns:xlink="http://www.w3.org/1999/xlink" version="1.1" viewBox="-10 -40 532 512">
   <path fill="currentColor"
d="M495 201h-223h223h-223v-223v0q1 -15 16 -17q63 1 113 31q51 29 80 80q30 50 31 113q-2 15 -17 16v0zM190 -2q14 -2 24 7v0v0q10 8 10 23v221v0h221v0q15 0 23 10q9 10 7 24q-19 83 -83 136q-64 52 -152 54q-67 -1 -121 -33t-86 -86t-33 -121q2 -88 54 -152
q53 -64 136 -83v0z" />
</svg>
