<?xml version="1.0" standalone="no"?>
<!DOCTYPE svg PUBLIC "-//W3C//DTD SVG 1.1//EN" "http://www.w3.org/Graphics/SVG/1.1/DTD/svg11.dtd" >
<svg xmlns="http://www.w3.org/2000/svg" xmlns:xlink="http://www.w3.org/1999/xlink" version="1.1" viewBox="-10 -40 404 512">
   <path fill="currentColor"
d="M64 -39q-27 1 -45 19v0v0q-18 18 -19 45v384v0q1 27 19 45t45 19h256v0q27 -1 45 -19t19 -45v-288v0h-128v0q-14 0 -23 -9t-9 -23v-128v0h-160v0zM256 -39v128v-128v128h128v0l-128 -128v0zM128 217q1 -36 32 -55q32 -18 64 0q31 19 32 55q-1 36 -32 55q-32 18 -64 0
q-31 -19 -32 -55v0zM80 393q1 -34 23 -57v0v0q23 -22 57 -23h64v0q34 1 57 23q22 23 23 57q-1 15 -16 16h-192v0q-15 -1 -16 -16v0z" />
</svg>
