<?xml version="1.0" standalone="no"?>
<!DOCTYPE svg PUBLIC "-//W3C//DTD SVG 1.1//EN" "http://www.w3.org/Graphics/SVG/1.1/DTD/svg11.dtd" >
<svg xmlns="http://www.w3.org/2000/svg" xmlns:xlink="http://www.w3.org/1999/xlink" version="1.1" viewBox="-10 -40 596 512">
   <path fill="currentColor"
d="M4 -16q11 -22 36 -23h432v0q25 1 36 23q10 23 -5 42l-107 131v0q-61 13 -100 60t-40 112q0 41 18 77q-3 -2 -5 -3l-64 -48v0q-13 -10 -13 -26v-79v0l-183 -224v0q-15 -19 -5 -42v0zM288 329q0 -39 19 -72v0v0q19 -33 53 -53q34 -19 72 -19t72 19q34 20 53 53t19 72
t-19 72t-53 53q-34 19 -72 19t-72 -19q-34 -20 -53 -53t-19 -72v0zM409 296q1 -1 4 -3q9 -4 19 -4q12 0 26 4q15 2 20 -12q2 -14 -12 -19l-18 -4v-9v0q-2 -15 -16 -16q-15 1 -16 16v10v0q-9 1 -18 6q-21 9 -22 37q4 23 22 31q14 7 28 10l2 1v0q15 4 23 8q6 4 5 5q0 4 -1 5
t-4 3q-8 4 -18 4q-14 -1 -30 -7l-6 -2q-15 -3 -20 11q-3 14 10 20h1q2 1 4 1v0v0v0v0q11 4 24 7v11v0q1 15 16 16q15 -1 16 -16v-10v0q9 -2 18 -6q21 -10 22 -37q-3 -24 -20 -33q-16 -8 -31 -11v0v0q-16 -4 -24 -8q-6 -4 -5 -5v0v0q0 -3 1 -4v0z" />
</svg>
