<?xml version="1.0" standalone="no"?>
<!DOCTYPE svg PUBLIC "-//W3C//DTD SVG 1.1//EN" "http://www.w3.org/Graphics/SVG/1.1/DTD/svg11.dtd" >
<svg xmlns="http://www.w3.org/2000/svg" xmlns:xlink="http://www.w3.org/1999/xlink" version="1.1" viewBox="-10 -40 532 512">
   <path fill="currentColor"
d="M120 -39q22 2 24 24v8v0h40v0v-8v0q2 -22 24 -24q22 2 24 24v8v0h48v0v-8v0q2 -22 24 -24q22 2 24 24v8v0h40v0v-8v0q2 -22 24 -24q22 2 24 24v8v0v32v0v64v0q14 0 23 9t9 23v64v0q14 0 23 9t9 23v96v0q14 0 23 9t9 23v96v0q0 14 -9 23t-23 9h-64v0v-160v0h-32v0v-128v0
h-32v0v-96v0h-32v0v96v0h32v0v128v0h32v0v160v0h-80v0v-48v0q-1 -20 -14 -34q-14 -13 -34 -14q-20 1 -34 14q-13 14 -14 34v48v0h-80v0v-160v0h32v0v-128v0h32v0v-96v0h-32v0v96v0h-32v0v128v0h-32v0v160v0h-64v0q-14 0 -23 -9t-9 -23v-96v0q0 -14 9 -23t23 -9v-96v0
q0 -14 9 -23t23 -9v-64v0q0 -14 9 -23t23 -9v-64v0v-32v0v-8v0q2 -22 24 -24v0zM256 233q-14 0 -23 9v0v0q-9 9 -9 23v48v0h64v0v-48v0q0 -14 -9 -23t-23 -9v0zM224 153v32v-32v32h64v0v-32v0q0 -14 -9 -23t-23 -9t-23 9t-9 23v0z" />
</svg>
