<?xml version="1.0" standalone="no"?>
<!DOCTYPE svg PUBLIC "-//W3C//DTD SVG 1.1//EN" "http://www.w3.org/Graphics/SVG/1.1/DTD/svg11.dtd" >
<svg xmlns="http://www.w3.org/2000/svg" xmlns:xlink="http://www.w3.org/1999/xlink" version="1.1" viewBox="-10 -40 586 512">
   <path fill="currentColor"
d="M246 277l-21 -32l21 32l-21 -32q-3 -6 1 -10t10 -1l29 19v0q4 2 5 -2l10 -282v0q1 -7 8 -8q7 1 8 8l10 282v0q1 4 5 3l29 -20v0q6 -3 10 1t1 10l-21 32v0q-2 3 2 5l38 7v0q6 2 6 8t-6 8l-38 7v0q-4 2 -2 5l21 32v0q3 6 -1 10t-10 1l-26 -17v0q-4 -2 -5 2l2 62v0
q46 -9 75 -43q29 -35 30 -83q-2 -57 -41 -94q-10 -12 1 -24q26 -20 41 -50q15 -29 15 -64q0 -25 -8 -48q-3 -11 5 -19q7 -8 16 -3q41 29 69 70q27 41 39 91q1 3 -2 6l-28 28v0q-5 8 4 11h26v0q6 0 7 6v0v10q0 26 -5 51q0 2 -2 3l-46 47v0q-5 8 4 11h15v0q8 1 6 9
q-35 68 -99 109t-145 42q-81 -1 -145 -42t-99 -109q-2 -8 6 -9h15v0q9 -2 4 -11l-46 -46v0q-2 -2 -2 -4q-5 -25 -5 -51v-10q1 -6 7 -6h26v0q9 -2 4 -11l-28 -28v0q-3 -3 -2 -6q12 -50 39 -91q28 -41 69 -70q9 -5 16 3q8 8 5 19q-8 23 -8 48q0 35 15 64q15 30 41 50
q11 12 1 24q-39 37 -41 94q1 48 30 83q29 34 75 43l2 -61v0q-1 -5 -5 -3l-26 17v0q-6 3 -10 -1t-1 -10l21 -32v0q2 -3 -2 -5l-38 -7v0q-6 -2 -6 -8t6 -8l38 -7v0q4 -2 2 -5v0z" />
</svg>
