<?xml version="1.0" standalone="no"?>
<!DOCTYPE svg PUBLIC "-//W3C//DTD SVG 1.1//EN" "http://www.w3.org/Graphics/SVG/1.1/DTD/svg11.dtd" >
<svg xmlns="http://www.w3.org/2000/svg" xmlns:xlink="http://www.w3.org/1999/xlink" version="1.1" viewBox="-10 -40 468 512">
   <path fill="currentColor"
d="M32 -7q-14 0 -23 9v0v0q-9 9 -9 23t9 23t23 9h108v0l17 33v0l-138 306v0q-6 12 -1 24t17 18q12 5 24 1q12 -5 18 -17l117 -258v0l121 242v0q18 34 57 35h44v0q14 0 23 -9t9 -23t-9 -23t-23 -9h-44v0l-174 -349v0q-19 -34 -58 -35h-108v0z" />
</svg>
