<?xml version="1.0" standalone="no"?>
<!DOCTYPE svg PUBLIC "-//W3C//DTD SVG 1.1//EN" "http://www.w3.org/Graphics/SVG/1.1/DTD/svg11.dtd" >
<svg xmlns="http://www.w3.org/2000/svg" xmlns:xlink="http://www.w3.org/1999/xlink" version="1.1" viewBox="-10 -40 394 512">
   <path fill="currentColor"
d="M272 345q17 -46 49 -85v0v0v-1v0v0l16 -22q30 -43 31 -100q-2 -75 -52 -124q-49 -50 -124 -52q-75 2 -124 52q-50 49 -52 124q1 57 31 100q8 11 16 21v1v0v0q32 39 49 86h160v0zM192 473q34 -1 57 -23v0v0q22 -23 23 -57v-16v0h-160v0v16v0q1 34 23 57q23 22 57 23v0z
M212 49v14v-14v14q11 2 21 5q17 6 14 24q-6 17 -24 14q-17 -4 -31 -5q-13 0 -22 5q-7 4 -6 9q-1 3 5 7q9 5 29 11v0v0h1q18 5 36 15q22 11 25 41q-2 32 -25 45q-11 7 -23 9v14v0q-2 18 -20 20q-18 -2 -20 -20v-15v0q-16 -3 -28 -8v0v0v0v0l-6 -2q-17 -7 -13 -25
q7 -17 25 -13q2 1 4 1q2 1 4 1q19 8 35 9q13 0 21 -5q6 -3 6 -10q1 -4 -6 -9q-9 -5 -28 -10l-2 -1v0v0q-18 -4 -35 -14q-22 -11 -25 -40q2 -32 26 -44q10 -6 22 -9v-14v0q2 -18 20 -20q18 2 20 20v0z" />
</svg>
