<?xml version="1.0" standalone="no"?>
<!DOCTYPE svg PUBLIC "-//W3C//DTD SVG 1.1//EN" "http://www.w3.org/Graphics/SVG/1.1/DTD/svg11.dtd" >
<svg xmlns="http://www.w3.org/2000/svg" xmlns:xlink="http://www.w3.org/1999/xlink" version="1.1" viewBox="-10 -40 650 512">
   <path fill="currentColor"
d="M128 -39q-14 0 -23 9v0v0q-9 9 -9 23v192v0h96v0v-32v0q1 -27 19 -45t45 -19h224v0v-96v0q0 -14 -9 -23t-23 -9h-320v0zM256 121q-14 0 -23 9v0v0q-9 9 -9 23v32v0h96v0q27 1 45 19t19 45v128v0h192v0q14 0 23 -9t9 -23v-192v0q0 -14 -9 -23t-23 -9h-320v0zM496 185h32
h-32h32q15 1 16 16v32v0q-1 15 -16 16h-32v0q-15 -1 -16 -16v-32v0q1 -15 16 -16v0zM64 217q-14 0 -23 9v0v0q-9 9 -9 23v13v0l155 115v0q2 1 5 2q3 -1 5 -2l155 -115v0v-13v0q0 -14 -9 -23t-23 -9h-256v0zM352 302l-136 101l136 -101l-136 101q-11 7 -24 8q-13 -1 -24 -8
l-136 -101v0v139v0q0 14 9 23t23 9h256v0q14 0 23 -9t9 -23v-139v0z" />
</svg>
