<?xml version="1.0" standalone="no"?>
<!DOCTYPE svg PUBLIC "-//W3C//DTD SVG 1.1//EN" "http://www.w3.org/Graphics/SVG/1.1/DTD/svg11.dtd" >
<svg xmlns="http://www.w3.org/2000/svg" xmlns:xlink="http://www.w3.org/1999/xlink" version="1.1" viewBox="-10 -40 660 512">
   <path fill="currentColor"
d="M240 17q-1 -24 -16 -40v0v0q-16 -15 -40 -16q-22 0 -38 14q-15 14 -18 36q-21 6 -34 22q-14 17 -14 40q0 9 2 17q-22 6 -36 23t-14 40t14 40q-21 10 -33 29q-13 19 -13 43q0 26 14 46q15 20 38 29q-4 10 -4 21q1 27 19 45t45 19q8 0 16 -2q3 22 18 36q16 14 38 14
q24 -1 40 -16q15 -16 16 -40v-400v0zM272 17v400v-400v400q1 24 16 40q16 15 40 16q5 0 10 -1q-13 -15 -23 -39t-11 -56q2 -61 42 -102q41 -40 102 -42h32v0v-16v0q0 -7 2 -14q-7 -6 -16 -10q14 -17 14 -40t-14 -40t-36 -23q2 -8 2 -17q0 -23 -14 -40q-13 -16 -34 -22
q-3 -22 -18 -36q-16 -14 -38 -14q-24 1 -40 16q-15 16 -16 40v0zM539 206q-7 -7 -17 -4q-9 5 -10 15v48v0h-64v0q-48 1 -79 33q-32 31 -33 79q2 41 19 64q16 24 26 30q3 2 7 2q11 -1 12 -12v-36v0q1 -27 19 -45t45 -19h48v0v48v0q0 10 10 15q10 3 17 -4l96 -96v0
q10 -11 0 -22l-96 -96v0z" />
</svg>
