<?xml version="1.0" standalone="no"?>
<!DOCTYPE svg PUBLIC "-//W3C//DTD SVG 1.1//EN" "http://www.w3.org/Graphics/SVG/1.1/DTD/svg11.dtd" >
<svg xmlns="http://www.w3.org/2000/svg" xmlns:xlink="http://www.w3.org/1999/xlink" version="1.1" viewBox="-10 -40 660 512">
   <path fill="currentColor"
d="M400 -39q8 0 13 6q26 34 59 60q33 25 74 52v0v0v0v0v0q4 2 8 5l8 6q45 31 46 86q-1 44 -30 73h-356v0q-29 -30 -30 -73q1 -55 46 -86q3 -3 7 -5q4 -3 9 -6v0v0v0v0v0q41 -27 74 -52q33 -26 59 -60q5 -6 13 -6v0zM288 473v-72v72v-72q-2 -22 -24 -24q-22 2 -24 24v72v0
h-48v0q-14 0 -23 -9t-9 -23v-128v0q0 -14 9 -23t23 -9h416v0q14 0 23 9t9 23v128v0q0 14 -9 23t-23 9h-48v0v-72v0q-2 -22 -24 -24q-22 2 -24 24v72v0h-64v0v-58v0q-1 -30 -23 -49l-25 -21v0l-25 21v0q-22 19 -23 49v58v0h-64v0zM70 -34q10 -6 20 0l16 12v0q25 20 40 48
q14 29 14 61v2v0h-160v0v-2v0q0 -32 14 -61q15 -28 40 -48l16 -12v0zM0 121h160h-160h160v137v0q-30 18 -32 55v128v0q0 14 6 27q-10 5 -22 5h-64v0q-20 -1 -34 -14q-13 -14 -14 -34v-288v0v-16v0z" />
</svg>
