<?xml version="1.0" standalone="no"?>
<!DOCTYPE svg PUBLIC "-//W3C//DTD SVG 1.1//EN" "http://www.w3.org/Graphics/SVG/1.1/DTD/svg11.dtd" >
<svg xmlns="http://www.w3.org/2000/svg" xmlns:xlink="http://www.w3.org/1999/xlink" version="1.1" viewBox="-10 -40 660 512">
   <path fill="currentColor"
d="M208 25q-1 -15 -16 -16q-15 1 -16 16q1 15 16 16q15 -1 16 -16v0zM256 25q0 25 -16 42l16 32v0q27 -10 64 -10t64 10l16 -32v0q-15 -17 -16 -42q1 -27 19 -45t45 -19q27 1 45 19t19 45q-1 27 -19 45t-45 19h-5v0l-15 30v0q31 21 51 46q9 11 17 21q1 2 2 3l2 2v0
q9 12 17 21q15 15 19 13q3 0 7 -3q5 -5 13 -18v-1v0q7 -12 20 -25q14 -16 40 -17q22 2 24 24q-2 22 -24 24q-3 0 -7 3q-5 5 -13 18v1v0q-7 12 -20 25q-14 16 -40 17q-27 -2 -44 -19q-5 6 -11 13q1 1 1 3q2 5 3 10q1 1 1 3q1 3 2 5q0 1 1 3q3 13 7 23q6 14 11 19q3 4 13 4
q11 0 34 -13q11 -7 27 -13q15 -6 35 -6q22 2 24 24q-2 22 -24 24q-19 1 -40 13q-1 1 -2 1l-1 1q-10 6 -23 11q-14 6 -30 6q-28 0 -45 -17t-23 -36q-6 -14 -10 -29q-24 19 -59 32q6 16 15 36q11 24 26 40q14 15 24 14q22 2 24 24q-2 22 -24 24q-38 -3 -59 -29
q-22 -24 -35 -53q-12 -26 -18 -47q-8 1 -16 1t-16 -1q-6 21 -18 47q-13 29 -34 53q-22 26 -60 29q-22 -2 -24 -24q2 -22 24 -24q10 1 25 -14q14 -16 25 -40q9 -20 15 -36q-35 -13 -59 -32v1l-10 28q-6 19 -22 36q-18 17 -46 17q-33 -3 -53 -17v0v0v0q-2 -1 -3 -2
q-21 -12 -40 -13q-22 -2 -24 -24q2 -22 24 -24q20 0 36 6q15 6 26 13q23 13 34 13q10 0 13 -4q5 -5 11 -19q4 -11 8 -26l2 -4q0 -2 1 -4q1 -5 3 -10q0 -2 1 -3q-6 -7 -11 -13q-17 17 -44 19q-26 -1 -40 -17q-13 -13 -20 -25v-1v0q-8 -13 -13 -18q-4 -3 -7 -3q-22 -2 -24 -24
q2 -22 24 -24q26 1 40 17q13 13 20 25v1v0q8 13 13 18q4 3 7 3q4 2 19 -13q8 -9 17 -21l2 -2v0q1 -1 2 -3q8 -10 17 -21q20 -25 51 -46l-15 -30v0h-5q-27 -1 -45 -19t-19 -45q1 -27 19 -45t45 -19q27 1 45 19t19 45v0zM464 25q-1 -15 -16 -16q-15 1 -16 16q1 15 16 16
q15 -1 16 -16v0z" />
</svg>
