<?xml version="1.0" standalone="no"?>
<!DOCTYPE svg PUBLIC "-//W3C//DTD SVG 1.1//EN" "http://www.w3.org/Graphics/SVG/1.1/DTD/svg11.dtd" >
<svg xmlns="http://www.w3.org/2000/svg" xmlns:xlink="http://www.w3.org/1999/xlink" version="1.1" viewBox="-10 -40 532 512">
   <path fill="currentColor"
d="M416 169q-1 70 -40 123l127 126v0q9 10 9 23t-9 23q-10 9 -23 9t-23 -9l-126 -127v0q-53 39 -123 40q-88 -2 -147 -61t-61 -147q2 -88 61 -147t147 -61q88 2 147 61t61 147v0zM288 137q-1 -34 -23 -57v0v0q-23 -22 -57 -23q-34 1 -57 23q-22 23 -23 57q2 38 26 77
q24 40 43 62q11 11 22 0q19 -22 43 -62q24 -39 26 -77v0zM176 137q0 -14 9 -23v0v0q9 -9 23 -9t23 9t9 23t-9 23t-23 9t-23 -9t-9 -23v0z" />
</svg>
