<?xml version="1.0" standalone="no"?>
<!DOCTYPE svg PUBLIC "-//W3C//DTD SVG 1.1//EN" "http://www.w3.org/Graphics/SVG/1.1/DTD/svg11.dtd" >
<svg xmlns="http://www.w3.org/2000/svg" xmlns:xlink="http://www.w3.org/1999/xlink" version="1.1" viewBox="-10 -40 650 512">
   <path fill="currentColor"
d="M400 89q-20 1 -34 14v0v0q-13 14 -14 34v288v0q1 20 14 34q14 13 34 14q20 -1 34 -14q13 -14 14 -34v-288v0q-1 -20 -14 -34q-14 -13 -34 -14v0zM192 265v160v-160v160q1 20 14 34q14 13 34 14q20 -1 34 -14q13 -14 14 -34v-160v0q-1 -20 -14 -34q-14 -13 -34 -14
q-20 1 -34 14q-13 14 -14 34v0zM32 393v32v-32v32q1 20 14 34q14 13 34 14q20 -1 34 -14q13 -14 14 -34v-32v0q-1 -20 -14 -34q-14 -13 -34 -14q-20 1 -34 14q-13 14 -14 34v0z" />
</svg>
