<?xml version="1.0" standalone="no"?>
<!DOCTYPE svg PUBLIC "-//W3C//DTD SVG 1.1//EN" "http://www.w3.org/Graphics/SVG/1.1/DTD/svg11.dtd" >
<svg xmlns="http://www.w3.org/2000/svg" xmlns:xlink="http://www.w3.org/1999/xlink" version="1.1" viewBox="-10 -40 596 512">
   <path fill="currentColor"
d="M283 39q6 -21 23 -33v0v0q16 -13 38 -13h200v0q14 0 23 9t9 23t-9 23t-23 9h-200v0l-105 361v0q-7 19 -27 23q-21 1 -32 -16l-102 -176v0h-46v0q-14 0 -23 -9t-9 -23t9 -23t23 -9h46v0q36 1 55 32l65 112v0l85 -290v0zM393 194q10 -9 23 -9v0v0q13 0 23 9l41 42v0l41 -42
v0q10 -9 23 -9t23 9q9 10 9 23t-9 23l-42 41v0l42 41v0q9 10 9 23t-9 23q-10 9 -23 9t-23 -9l-41 -42v0l-41 42v0q-10 9 -23 9t-23 -9q-9 -10 -9 -23t9 -23l42 -41v0l-42 -41v0q-9 -10 -9 -23t9 -23v0z" />
</svg>
