<?xml version="1.0" standalone="no"?>
<!DOCTYPE svg PUBLIC "-//W3C//DTD SVG 1.1//EN" "http://www.w3.org/Graphics/SVG/1.1/DTD/svg11.dtd" >
<svg xmlns="http://www.w3.org/2000/svg" xmlns:xlink="http://www.w3.org/1999/xlink" version="1.1" viewBox="-10 -40 660 512">
   <path fill="currentColor"
d="M160 25q1 -27 19 -45v0v0q18 -18 45 -19h352v0q27 1 45 19t19 45v288v0q-1 27 -19 45t-45 19h-239v0q-18 -39 -53 -64h292v0v-288v0h-352v0v49v0q-29 -17 -64 -17v-32v0zM413 100q-7 -7 -4 -17q5 -9 15 -10h88v0q15 1 16 16v88v0q0 10 -10 15q-10 3 -17 -4l-27 -27v0
l-73 73v0q-17 14 -34 0l-64 -64v0q-14 -17 0 -34q17 -14 34 0l47 47v0l56 -56v0l-27 -27v0zM64 185q0 -26 13 -48v0v0q13 -22 35 -35q23 -13 48 -13t48 13q22 13 35 35t13 48t-13 48t-35 35q-23 13 -48 13t-48 -13q-22 -13 -35 -35t-13 -48v0zM0 446q1 -56 39 -94v0v0
q38 -38 94 -39h54v0q56 1 94 39t39 94q-2 25 -27 27h-266v0q-25 -2 -27 -27v0z" />
</svg>
