<?xml version="1.0" standalone="no"?>
<!DOCTYPE svg PUBLIC "-//W3C//DTD SVG 1.1//EN" "http://www.w3.org/Graphics/SVG/1.1/DTD/svg11.dtd" >
<svg xmlns="http://www.w3.org/2000/svg" xmlns:xlink="http://www.w3.org/1999/xlink" version="1.1" viewBox="-10 -40 532 512">
   <path fill="currentColor"
d="M160 16q1 -23 16 -39v0v0q16 -15 39 -16q8 1 9 9q-1 23 -16 39q-16 15 -39 16q-8 -1 -9 -9v0zM32 132q0 -34 16 -62v0v0q15 -27 48 -29q25 2 47 11q17 6 34 0q21 -9 47 -11q33 2 48 29q16 28 16 62q0 11 -1 21h-254v0q-1 -10 -1 -21v0zM319 153q1 -10 1 -21
q1 -41 -20 -78q-4 -7 -9 -13q24 2 44 11q17 6 34 0q22 -9 47 -11q33 2 48 29q16 28 16 63q0 10 -1 20h-160v0zM407 -39q8 1 9 9q-1 23 -16 39q-16 15 -39 16q-8 -1 -9 -9q1 -23 16 -39q16 -15 39 -16v0zM0 233q1 -20 14 -34v0v0q14 -13 34 -14h416v0q20 1 34 14q13 14 14 34
v80v0h-512v0v-80v0zM0 345h512h-512h512v80v0q-1 20 -14 34q-14 13 -34 14h-416v0q-20 -1 -34 -14q-13 -14 -14 -34v-80v0zM80 249q-1 -15 -16 -16q-15 1 -16 16q1 15 16 16q15 -1 16 -16v0zM64 425q15 -1 16 -16q-1 -15 -16 -16q-15 1 -16 16q1 15 16 16v0zM464 249
q-1 -15 -16 -16q-15 1 -16 16q1 15 16 16q15 -1 16 -16v0zM448 425q15 -1 16 -16q-1 -15 -16 -16q-15 1 -16 16q1 15 16 16v0z" />
</svg>
