<?xml version="1.0" standalone="no"?>
<!DOCTYPE svg PUBLIC "-//W3C//DTD SVG 1.1//EN" "http://www.w3.org/Graphics/SVG/1.1/DTD/svg11.dtd" >
<svg xmlns="http://www.w3.org/2000/svg" xmlns:xlink="http://www.w3.org/1999/xlink" version="1.1" viewBox="-10 -40 468 512">
   <path fill="currentColor"
d="M160 25q14 0 23 -9v0v0q9 -9 9 -23t-9 -23t-23 -9t-23 9t-9 23t9 23t23 9v0zM272 89q27 -1 42 -24q12 -24 0 -48q-15 -23 -42 -24q-27 1 -42 24q-12 24 0 48q15 23 42 24v0zM35 185q-14 25 -24 54v0v0q-11 28 -11 56q1 57 32 96v58v0q2 22 24 24q22 -2 24 -24v-15v0
q63 39 144 39t144 -39v15v0q2 22 24 24q22 -2 24 -24v-58v0q31 -39 32 -96q0 -28 -11 -56q-10 -29 -24 -54h3v0q14 0 23 -9t9 -23t-9 -23t-23 -9h-48h-336q-14 0 -23 9t-9 23t9 23t23 9h3v0z" />
</svg>
