<?xml version="1.0" standalone="no"?>
<!DOCTYPE svg PUBLIC "-//W3C//DTD SVG 1.1//EN" "http://www.w3.org/Graphics/SVG/1.1/DTD/svg11.dtd" >
<svg xmlns="http://www.w3.org/2000/svg" xmlns:xlink="http://www.w3.org/1999/xlink" version="1.1" viewBox="-10 -40 655 512">
   <path fill="currentColor"
d="M496 -39q8 0 16 1q11 1 14 12q2 11 -7 18q-34 19 -54 52q-20 34 -21 75q2 63 43 104t103 43q13 0 26 -2q11 -2 17 8q4 11 -4 19q-53 52 -133 54q-14 0 -28 -1q-17 -35 -52 -52q-3 -45 -34 -75q-30 -30 -75 -32q-3 -15 -3 -32q2 -81 56 -136q54 -54 136 -56v0zM448 393
q-1 34 -24 56v0v0q-22 23 -56 24h-272v0q-41 -1 -68 -28t-28 -68q1 -37 23 -62q22 -26 57 -33v-1v0q1 -41 28 -68t68 -28q26 0 48 13q21 12 34 33q20 -14 46 -14q34 1 57 23q22 23 23 57q0 9 -2 17q29 6 47 27q18 22 19 52v0z" />
</svg>
