<?xml version="1.0" standalone="no"?>
<!DOCTYPE svg PUBLIC "-//W3C//DTD SVG 1.1//EN" "http://www.w3.org/Graphics/SVG/1.1/DTD/svg11.dtd" >
<svg xmlns="http://www.w3.org/2000/svg" xmlns:xlink="http://www.w3.org/1999/xlink" version="1.1" viewBox="-10 -40 532 512">
   <path fill="currentColor"
d="M401 185q-1 0 -1 1v24v0q0 10 7 17q32 36 33 86q-1 54 -37 91q-37 36 -91 37h-116v0q-83 -2 -139 -57q-55 -56 -57 -139v-5v0q2 -21 23 -23q9 0 16 7l15 15v0q10 10 24 6l172 -49v0q8 -3 11 -10q3 -6 -3 -12q-33 -30 -34 -77q1 -44 31 -74q29 -29 73 -30q41 1 70 27
t34 66v1q16 2 32 0l35 -4v0q12 -1 13 11q-1 39 -26 64q-26 26 -65 27h-20v0zM368 97q-2 -22 -24 -24q-22 2 -24 24q2 22 24 24q22 -2 24 -24v0zM341 258q-1 -15 -15 -17q-15 1 -17 15q-3 32 -23 56q-21 25 -55 34q-30 7 -58 -2q-27 -9 -45 -31q-10 -11 -23 -3q-10 10 -2 23
q24 29 60 41q36 13 76 3q44 -12 71 -44q28 -33 31 -75v0z" />
</svg>
