<?xml version="1.0" standalone="no"?>
<!DOCTYPE svg PUBLIC "-//W3C//DTD SVG 1.1//EN" "http://www.w3.org/Graphics/SVG/1.1/DTD/svg11.dtd" >
<svg xmlns="http://www.w3.org/2000/svg" xmlns:xlink="http://www.w3.org/1999/xlink" version="1.1" viewBox="-10 -40 532 512">
   <path fill="currentColor"
d="M337 118l1 1v0v0q1 1 3 2q15 13 33 3l68 -45v0q8 -6 10 -15q1 -10 -5 -18q-25 -28 -57 -47q-10 -6 -19 -2q-9 3 -13 13l-31 76v0q-5 19 10 32v0zM328 -2q4 -10 -1 -19v0v0q-4 -9 -14 -12q-28 -6 -57 -6t-57 6q-10 3 -15 12q-4 9 0 19l30 76v0q9 17 29 16q7 -1 13 -1t13 1
q20 1 29 -16l30 -76v0zM66 46q-7 8 -6 18v0v0q2 9 11 15l67 46v0q18 9 34 -4q0 -1 1 -1q1 -1 3 -2q15 -13 9 -32l-31 -76v0q-4 -10 -13 -13q-9 -4 -19 2q-32 19 -56 47v0zM380 183l2 10q5 22 26 24h80v0q22 -2 23 -24q-4 -41 -20 -77q-4 -10 -14 -12q-10 -3 -19 3l-69 46v0
q-14 11 -10 30h1zM54 107q-9 -6 -19 -4v0v0q-10 3 -14 13q-16 36 -20 77q1 22 23 24h80v0q21 -2 26 -24q1 -5 3 -10q4 -19 -10 -30l-69 -46v0zM104 249h-80h80h-80q-22 2 -24 24v48v0q2 22 24 24h80v0q22 -2 24 -24v-48v0q-2 -22 -24 -24v0zM408 249q-22 2 -24 24v48v0
q2 22 24 24h80v0q22 -2 24 -24v-48v0q-2 -22 -24 -24h-80v0zM24 377q-22 2 -24 24v48v0q2 22 24 24h80v0q22 -2 24 -24v-48v0q-2 -22 -24 -24h-80v0zM408 377q-22 2 -24 24v48v0q2 22 24 24h80v0q22 -2 24 -24v-48v0q-2 -22 -24 -24h-80v0zM272 153q-1 -15 -16 -16
q-15 1 -16 16v272v0q1 15 16 16q15 -1 16 -16v-272v0zM208 185q-1 -15 -16 -16q-15 1 -16 16v240v0q1 15 16 16q15 -1 16 -16v-240v0zM336 185q-1 -15 -16 -16q-15 1 -16 16v240v0q1 15 16 16q15 -1 16 -16v-240v0z" />
</svg>
