<?xml version="1.0" standalone="no"?>
<!DOCTYPE svg PUBLIC "-//W3C//DTD SVG 1.1//EN" "http://www.w3.org/Graphics/SVG/1.1/DTD/svg11.dtd" >
<svg xmlns="http://www.w3.org/2000/svg" xmlns:xlink="http://www.w3.org/1999/xlink" version="1.1" viewBox="-10 -40 660 512">
   <path fill="currentColor"
d="M304 -39q-48 1 -79 33v0v0q-32 31 -33 79q1 48 33 79q31 32 79 33q15 1 16 16q-1 15 -16 16q-61 -2 -102 -42q-40 -41 -42 -102q0 -38 18 -70q-31 11 -56 31q-41 30 -65 75t-25 100v19v0q0 19 -4 37q-3 14 -11 26l-12 16v0q-12 18 5 33q18 12 33 -5l12 -16v0q5 -6 9 -13
v135v0q0 14 9 23t23 9h64v0q14 0 23 -9t9 -23v-70v0q23 6 48 6t48 -6v70v0q0 14 9 23t23 9h64v0q14 0 23 -9t9 -23v-139v0q26 29 64 39v19v0q1 34 24 57t57 24q24 0 43 -12t30 -33l3 -5v0q5 -12 1 -24t-16 -19q-12 -5 -24 -1t-19 16l-2 4v0q-5 10 -16 10q-15 -1 -17 -17v-19
v0q35 -9 59 -34q10 -12 0 -23q-11 -9 -22 0l-4 4q-2 1 -3 3q-1 0 -2 1q-12 10 -28 16v0v0q-15 5 -32 5t-32 -5v0v0q-11 -4 -21 -11v0v0q-14 -9 -24 -22q-7 -13 4 -23q12 -7 22 4q18 24 51 25q18 0 32 -9v-119v0q-2 -68 -47 -113t-113 -47h-2v0q-31 -31 -78 -32v0zM464 153
q15 1 16 16q-1 15 -16 16q-15 -1 -16 -16q1 -15 16 -16v0z" />
</svg>
