<?xml version="1.0" standalone="no"?>
<!DOCTYPE svg PUBLIC "-//W3C//DTD SVG 1.1//EN" "http://www.w3.org/Graphics/SVG/1.1/DTD/svg11.dtd" >
<svg xmlns="http://www.w3.org/2000/svg" xmlns:xlink="http://www.w3.org/1999/xlink" version="1.1" viewBox="-10 -40 404 512">
   <path fill="currentColor"
d="M373 218l-1 -2l1 2l-1 -2q-52 -143 -163 -246l-3 -3v0q-6 -6 -14 -6t-14 6l-3 3v0q-111 103 -163 246v2v0q-12 31 -12 65q2 80 57 134q54 54 135 56q81 -2 135 -56q55 -54 57 -134q0 -34 -11 -65v0zM189 109q3 -4 8 -4q10 1 11 11v11v0q0 14 10 24l51 50v0q34 35 35 83
q-1 46 -32 77t-77 32h-3v0q-48 -1 -79 -33q-32 -31 -33 -79v-8v0q0 -33 22 -58l7 -7v0q3 -4 8 -4q10 1 11 11v44v0q0 19 13 31q12 12 31 13q19 -1 31 -13q13 -12 13 -31q0 -18 -13 -31l-13 -13v0q-21 -22 -22 -53q0 -25 15 -45l6 -8v0z" />
</svg>
