<?xml version="1.0" standalone="no"?>
<!DOCTYPE svg PUBLIC "-//W3C//DTD SVG 1.1//EN" "http://www.w3.org/Graphics/SVG/1.1/DTD/svg11.dtd" >
<svg xmlns="http://www.w3.org/2000/svg" xmlns:xlink="http://www.w3.org/1999/xlink" version="1.1" viewBox="-10 -40 404 512">
   <path fill="currentColor"
d="M40 428l-11 9l11 -9l-11 9q-5 4 -11 4q-16 -2 -18 -18v-270v0q2 -82 56 -136t136 -56q82 2 136 56t56 136v270v0q-2 16 -18 18q-6 0 -11 -4l-11 -9v0q-11 -8 -23 -7t-21 11l-31 35v0q-5 6 -13 6t-13 -6l-27 -30v0q-10 -11 -24 -11t-24 11l-27 30v0q-5 6 -13 6t-13 -6
l-31 -35v0q-9 -10 -21 -11t-23 7v0zM160 153q0 -14 -9 -23v0v0q-9 -9 -23 -9t-23 9t-9 23t9 23t23 9t23 -9t9 -23v0zM256 185q14 0 23 -9v0v0q9 -9 9 -23t-9 -23t-23 -9t-23 9t-9 23t9 23t23 9v0z" />
</svg>
