<?xml version="1.0" standalone="no"?>
<!DOCTYPE svg PUBLIC "-//W3C//DTD SVG 1.1//EN" "http://www.w3.org/Graphics/SVG/1.1/DTD/svg11.dtd" >
<svg xmlns="http://www.w3.org/2000/svg" xmlns:xlink="http://www.w3.org/1999/xlink" version="1.1" viewBox="-10 -40 596 512">
   <path fill="currentColor"
d="M201 142l-89 203l89 -203l-89 203h112v0v-48v0q1 -20 14 -34q14 -13 34 -14h32v0q20 1 34 14q13 14 14 34v48v0h112v0l-77 -178v0q-3 -6 -3 -13v0v0q0 -9 4 -16l19 -33v0q9 -15 28 -16h20v0q24 1 31 24l6 25v0q5 14 20 15q15 -1 19 -16l12 -61v0q1 -3 1 -6v-7v0
q0 -14 -10 -24l-77 -70v0q-9 -8 -21 -8h-3v0q-9 0 -17 5l-143 92v0q-49 31 -72 84v0zM320 345v-48v48v-48q-1 -15 -16 -16h-32v0q-15 1 -16 16v48v0h64v0zM23 377q-21 2 -23 23q0 9 7 15q15 14 55 35q39 21 98 23h256v0q59 -2 98 -23q40 -21 55 -35q7 -6 7 -15
q-2 -21 -23 -23h-530v0z" />
</svg>
