<?xml version="1.0" standalone="no"?>
<!DOCTYPE svg PUBLIC "-//W3C//DTD SVG 1.1//EN" "http://www.w3.org/Graphics/SVG/1.1/DTD/svg11.dtd" >
<svg xmlns="http://www.w3.org/2000/svg" xmlns:xlink="http://www.w3.org/1999/xlink" version="1.1" viewBox="-10 -40 532 512">
   <path fill="currentColor"
d="M0 185q1 -62 31 -113v0v0q29 -50 80 -80v0v0q50 -30 113 -31h24v0q73 1 128 46t69 114q3 20 15 36l42 53v0q10 12 10 27q0 19 -13 31q-12 13 -31 13h-20v0v64v0q-1 27 -19 45t-45 19h-64v0v32v0q0 14 -9 23t-23 9h-192v0q-14 0 -23 -9t-9 -23v-73v0q-1 -25 -17 -45
q-46 -61 -47 -138v0zM352 185q14 0 23 -9v0v0q9 -9 9 -23t-9 -23t-23 -9t-23 9t-9 23t9 23t23 9v0z" />
</svg>
