<?xml version="1.0" standalone="no"?>
<!DOCTYPE svg PUBLIC "-//W3C//DTD SVG 1.1//EN" "http://www.w3.org/Graphics/SVG/1.1/DTD/svg11.dtd" >
<svg xmlns="http://www.w3.org/2000/svg" xmlns:xlink="http://www.w3.org/1999/xlink" version="1.1" viewBox="-10 -40 532 512">
   <path fill="currentColor"
d="M46 89q23 -57 73 -92v0v0q50 -35 115 -36h22v0q60 1 106 32h-58v0q-48 1 -79 33q-32 31 -33 79q0 26 11 48h-171v0v0v0q-14 0 -23 -9t-9 -23t9 -23t23 -9h14v0zM304 217h203h-203h203q5 9 5 20q0 19 -13 31q-12 13 -31 13h-20v0v64v0q-1 27 -19 45t-45 19h-64v0v32v0
q0 14 -9 23t-23 9h-160v0q-14 0 -23 -9t-9 -23v-104v0q-1 -26 -17 -47q-37 -47 -45 -105h192v0q31 31 78 32v0zM304 25h112h-112h112v160v0h-112v0q-34 -1 -57 -23q-22 -23 -23 -57q1 -34 23 -57q23 -22 57 -23v0zM480 185h-32h32h-32v-160v0h32v0q14 0 23 9t9 23v96v0
q0 14 -9 23t-23 9v0z" />
</svg>
