<?xml version="1.0" standalone="no"?>
<!DOCTYPE svg PUBLIC "-//W3C//DTD SVG 1.1//EN" "http://www.w3.org/Graphics/SVG/1.1/DTD/svg11.dtd" >
<svg xmlns="http://www.w3.org/2000/svg" xmlns:xlink="http://www.w3.org/1999/xlink" version="1.1" viewBox="-10 -40 596 512">
   <path fill="currentColor"
d="M80 -22q0 -14 -14 -17q-13 -1 -18 12l-47 207v0q-1 3 -1 7q0 13 9 21q8 9 21 9h3v0q13 0 22 -9q9 -8 10 -21l15 -209v0zM320 313v136v-136v136q1 14 12 21q12 6 25 0l144 -88v0q14 -10 10 -28q-28 -90 -31 -185q-1 -43 -25 -78q-25 -35 -60 -63t-68 -48q-2 -1 -4 -3
q-1 0 -2 -1v0v0q-16 -12 -33 -15q-17 3 -33 15q-1 1 -2 1q-2 2 -4 3q-33 20 -68 48t-60 63q-24 35 -25 78q-3 95 -31 185q-4 17 11 28l144 88v0q12 6 24 0q11 -7 12 -21v-192v0v0v0v-28v0q-1 -12 -11 -16l-72 -24v0q-12 -4 -13 -17q2 -17 19 -19h218v0q17 2 19 19
q-1 13 -13 17l-72 24v0q-10 4 -11 16v84v0v0v0zM510 -39q-14 3 -14 17l15 209v0q1 13 10 21q9 9 22 9h3v0q13 0 21 -9q9 -8 9 -21q0 -4 -1 -7l-47 -207v0q-5 -13 -18 -12v0z" />
</svg>
