<?xml version="1.0" standalone="no"?>
<!DOCTYPE svg PUBLIC "-//W3C//DTD SVG 1.1//EN" "http://www.w3.org/Graphics/SVG/1.1/DTD/svg11.dtd" >
<svg xmlns="http://www.w3.org/2000/svg" xmlns:xlink="http://www.w3.org/1999/xlink" version="1.1" viewBox="-10 -40 532 512">
   <path fill="currentColor"
d="M340 -31l16 31l-16 -31l16 31q13 23 38 16l68 -22v0q2 -1 4 -1q13 1 14 14q0 2 -1 4l-22 68v0q-7 25 16 38l31 16v0q8 4 8 12t-6 12l-98 61v0q-5 4 -4 9q2 5 8 6h38v0q13 1 14 14q0 2 -1 4l-8 26v0q-6 20 9 34l35 29v0q5 5 5 12q0 9 -8 14l-29 16v0q-18 12 -15 33l4 25v0
v2q-2 13 -15 11l-155 -40v0q-13 -2 -19 10l-8 26v0q-3 8 -12 8q-7 0 -11 -6l-53 -95v0l-110 110v0q-17 14 -34 0q-14 -17 0 -34l200 -200v0q6 -11 -2 -20q-11 -9 -23 0l-84 84v0l-108 -59v0q-6 -4 -6 -11q0 -9 8 -12l26 -8v0q13 -6 10 -20l-40 -154v0q-2 -13 11 -15h2l25 4
v0q21 3 33 -15l17 -29v0q4 -8 13 -8q7 0 12 5l29 35v0q14 15 34 9l26 -8v0q2 -1 4 -1q13 1 14 14v38v0q1 6 6 8q5 1 9 -4l61 -98v0q4 -6 12 -6t12 8v0z" />
</svg>
