<?xml version="1.0" standalone="no"?>
<!DOCTYPE svg PUBLIC "-//W3C//DTD SVG 1.1//EN" "http://www.w3.org/Graphics/SVG/1.1/DTD/svg11.dtd" >
<svg xmlns="http://www.w3.org/2000/svg" xmlns:xlink="http://www.w3.org/1999/xlink" version="1.1" viewBox="-10 -40 650 512">
   <path fill="currentColor"
d="M336 25v8v-8v8q2 22 24 24q22 -2 24 -24v-8v0q1 -15 16 -16q15 1 16 16v24v0q-10 10 -18 21l-47 21v0q-20 10 -13 31q11 20 32 13l14 -6v0v72v0q1 34 23 57q23 22 57 23h32v0q34 -1 57 -23q22 -23 23 -57v-72v0l15 6v0q21 7 31 -13q7 -21 -13 -31l-47 -21v0
q-8 -11 -18 -21v-24v0q1 -15 16 -16q15 1 16 16v8v0q2 22 24 24q22 -2 24 -24v-8v0q-1 -27 -19 -45t-45 -19q-27 1 -45 19t-19 45v1v0q-8 -1 -16 -1t-16 1v-1v0q-1 -27 -19 -45t-45 -19q-27 1 -45 19t-19 45v0zM309 135q-13 -34 10 -60q-6 -22 -23 -36t-40 -14q-30 1 -48 22
q-17 -14 -40 -14t-40 14q-17 13 -22 35q-5 -1 -10 -1q-27 1 -45 19t-19 45q0 8 2 16q-32 17 -34 56q2 39 34 57q-2 7 -2 15q1 27 19 45t45 19h1h1l17 94v0q6 24 32 26h29v0q14 0 23 -9t9 -23v-54v0q18 21 48 22q30 -1 48 -22v54v0q0 14 9 23t23 9h29v0q26 -2 32 -26l18 -94
v0v0h1q20 0 36 -11t23 -29h-11v0q-48 -1 -79 -33q-32 -31 -33 -79v-33v0q-30 -4 -43 -33v0zM464 121q15 1 16 16q-1 15 -16 16q-15 -1 -16 -16q1 -15 16 -16v0zM512 137q1 -15 16 -16q15 1 16 16q-1 15 -16 16q-15 -1 -16 -16v0z" />
</svg>
