<?xml version="1.0" standalone="no"?>
<!DOCTYPE svg PUBLIC "-//W3C//DTD SVG 1.1//EN" "http://www.w3.org/Graphics/SVG/1.1/DTD/svg11.dtd" >
<svg xmlns="http://www.w3.org/2000/svg" xmlns:xlink="http://www.w3.org/1999/xlink" version="1.1" viewBox="-10 -40 660 512">
   <path fill="currentColor"
d="M615 -38q8 2 14 7q13 12 10 31l-4 22v0l-57 266v0l-35 160v0q-3 13 -14 20q-10 7 -24 4q-13 -3 -20 -14q-7 -10 -4 -24l26 -121v0h-91v0q-14 0 -23 -9t-9 -23t9 -23t23 -9h104v0l49 -227v0l8 -36v0v0v0l5 -25v0h26v0q3 0 7 1v0zM352 -39h197h-197h197l-4 19v0l-37 173v0
h-495v0q-12 -1 -13 -13q0 -3 2 -6q6 -13 44 -54q38 -42 113 -79t193 -40v0z" />
</svg>
