<?xml version="1.0" standalone="no"?>
<!DOCTYPE svg PUBLIC "-//W3C//DTD SVG 1.1//EN" "http://www.w3.org/Graphics/SVG/1.1/DTD/svg11.dtd" >
<svg xmlns="http://www.w3.org/2000/svg" xmlns:xlink="http://www.w3.org/1999/xlink" version="1.1" viewBox="-10 -40 650 512">
   <path fill="currentColor"
d="M384 97v72v-72v72q1 34 23 57q23 22 57 23h32v0q34 -1 57 -23q22 -23 23 -57v-72v0l15 6v0q21 7 31 -13q7 -21 -13 -31l-47 -21v0q-28 -43 -82 -45q-54 2 -82 45l-47 21v0q-20 10 -13 31q10 20 31 13l15 -6v0zM464 89q15 1 16 16q-1 15 -16 16q-15 -1 -16 -16
q1 -15 16 -16v0zM512 105q1 -15 16 -16q15 1 16 16q-1 15 -16 16q-15 -1 -16 -16v0zM352 136q-30 -4 -43 -33q-10 -25 1 -48q-18 -29 -54 -30q-30 1 -48 22q-17 -14 -40 -14t-40 14q-17 13 -22 35q-5 -1 -10 -1q-27 1 -45 19t-19 45q0 8 2 16q-32 17 -34 56q2 39 34 57
q-2 7 -2 15q1 27 19 45t45 19h1h1l17 94v0q6 24 32 26h29v0q14 0 23 -9t9 -23v-54v0q18 21 48 22q30 -1 48 -22v54v0q0 14 9 23t23 9h29v0q26 -2 32 -26l18 -94v0v0h1q27 -1 45 -19t19 -45v-8h-16v0q-48 -1 -79 -33q-32 -31 -33 -79v-33v0z" />
</svg>
