<?xml version="1.0" standalone="no"?>
<!DOCTYPE svg PUBLIC "-//W3C//DTD SVG 1.1//EN" "http://www.w3.org/Graphics/SVG/1.1/DTD/svg11.dtd" >
<svg xmlns="http://www.w3.org/2000/svg" xmlns:xlink="http://www.w3.org/1999/xlink" version="1.1" viewBox="-10 -40 468 512">
   <path fill="currentColor"
d="M240 41h103h-103h103q-12 -30 -36 -50l-67 50v0zM278 -27q-25 -12 -54 -12q-41 1 -72 22q-32 22 -47 58h82v0l91 -68v0zM224 217q54 -1 91 -37v0v0q36 -37 37 -91q0 -8 -1 -16h-254v0q-1 8 -1 16q1 54 37 91q37 36 91 37v0zM124 273q-15 5 -28 12v188v0h148v0l-62 -104v0
l-58 -96v0zM157 266l47 79l-47 -79l47 79h68v0q34 1 57 23q22 23 23 57q0 27 -16 48h82v0q13 0 21 -9q9 -8 9 -21q-2 -75 -52 -126q-51 -50 -126 -52h-92v0q-10 0 -21 1v0zM0 443q0 13 9 21v0v0q8 9 21 9h34v0v-167v0q-30 25 -47 60q-17 36 -17 77v0zM320 425
q-1 -20 -14 -34v0v0q-14 -13 -34 -14h-48v0l57 95v0q17 -3 28 -16t11 -31v0z" />
</svg>
