<?xml version="1.0" standalone="no"?>
<!DOCTYPE svg PUBLIC "-//W3C//DTD SVG 1.1//EN" "http://www.w3.org/Graphics/SVG/1.1/DTD/svg11.dtd" >
<svg xmlns="http://www.w3.org/2000/svg" xmlns:xlink="http://www.w3.org/1999/xlink" version="1.1" viewBox="-10 -40 533 512">
   <path fill="currentColor"
d="M497 -32q-16 -14 -33 -1l-275 246v0q-4 4 -10 4h-35v0q-15 1 -16 16v28v0q0 7 -5 12l-112 99v0q-11 10 -11 25q0 14 10 24l42 42v0q10 10 24 10q15 0 25 -11l271 -304v0q5 -5 12 -5h16v0q15 -1 16 -16v-21v0q0 -6 4 -11l86 -96v0q13 -17 -1 -33l-8 -8v0z" />
</svg>
