<?xml version="1.0" standalone="no"?>
<!DOCTYPE svg PUBLIC "-//W3C//DTD SVG 1.1//EN" "http://www.w3.org/Graphics/SVG/1.1/DTD/svg11.dtd" >
<svg xmlns="http://www.w3.org/2000/svg" xmlns:xlink="http://www.w3.org/1999/xlink" version="1.1" viewBox="-10 -40 532 512">
   <path fill="currentColor"
d="M472 -39q-37 1 -62 26v0v0q-25 25 -26 62v24v0q1 15 16 16h24v0q37 -1 62 -26t26 -62v-24v0q-1 -15 -16 -16h-24v0zM306 -12q-12 -9 -23 0l-11 12v0q-29 29 -29 68q0 38 29 67l10 11v0l-31 30v0q-5 -42 -36 -75l-11 -11v0q-12 -9 -23 0l-11 11v0q-28 30 -28 68
q0 39 28 68l10 11v0l-30 30v0q-5 -42 -37 -75l-11 -11v0q-11 -9 -23 0l-11 11v0q-28 30 -28 68q0 39 28 68l10 11v0l-69 68v0q-9 10 -9 23t9 23q10 9 23 9t23 -9l69 -69v0l12 12v0q29 28 68 28q38 0 68 -28l11 -11v0q9 -12 0 -23l-11 -11v0q-34 -33 -78 -37l31 -32v0l13 12
v0q29 28 67 28q39 0 68 -28l12 -11v0q9 -11 0 -23l-12 -11v0q-34 -33 -78 -37l32 -32v0l12 12v0q30 29 68 29q39 0 68 -29l12 -11v0q9 -11 0 -23l-12 -11v0q-26 -26 -59 -34q-34 -8 -67 2q10 -34 1 -67q-8 -33 -33 -59l-11 -12v0z" />
</svg>
