<?xml version="1.0" standalone="no"?>
<!DOCTYPE svg PUBLIC "-//W3C//DTD SVG 1.1//EN" "http://www.w3.org/Graphics/SVG/1.1/DTD/svg11.dtd" >
<svg xmlns="http://www.w3.org/2000/svg" xmlns:xlink="http://www.w3.org/1999/xlink" version="1.1" viewBox="-10 -40 532 512">
   <path fill="currentColor"
d="M0 185q1 41 28 68v0v0q27 27 68 28h45v0q7 -18 23 -29t36 -11h6q19 -23 50 -24q31 1 50 24h6q20 0 36 11t23 29h45v0q41 -1 68 -28t28 -68q-1 -41 -28 -68t-68 -28h-1h-1q2 -8 2 -16q-1 -34 -23 -57q-23 -22 -57 -23q-38 1 -61 28q-14 -27 -40 -43q-26 -17 -59 -17
q-48 1 -79 33q-32 31 -33 79q0 11 2 21q-29 10 -47 34q-18 25 -19 57v0zM288 281q0 -14 -9 -23v0v0q-9 -9 -23 -9t-23 9t-9 23v3l-2 -2q-10 -10 -23 -10q-12 0 -22 10t-10 22q0 13 10 23l2 2v0h-3q-14 0 -23 9t-9 23t9 23t23 9h1h2l-1 1q-1 0 -1 1q-10 10 -10 23t10 22
q10 10 22 10q13 0 23 -10l2 -2v0v3q0 14 9 23t23 9t23 -9t9 -23v-3v1q1 1 2 1q10 10 23 10q12 0 22 -10q10 -9 10 -22t-10 -23l-2 -2v0h3q14 0 23 -9t9 -23t-9 -23t-23 -9h-1h-2h1q1 -1 1 -2q10 -10 10 -23q0 -12 -10 -22t-22 -10q-13 0 -23 10l-2 2v0v-3v0zM48 409
q27 -1 42 -24q12 -24 0 -48q-15 -23 -42 -24q-27 1 -42 24q-12 24 0 48q15 23 42 24v0zM464 409q27 -1 42 -24q12 -24 0 -48q-15 -23 -42 -24q-27 1 -42 24q-12 24 0 48q15 23 42 24v0z" />
</svg>
