<?xml version="1.0" standalone="no"?>
<!DOCTYPE svg PUBLIC "-//W3C//DTD SVG 1.1//EN" "http://www.w3.org/Graphics/SVG/1.1/DTD/svg11.dtd" >
<svg xmlns="http://www.w3.org/2000/svg" xmlns:xlink="http://www.w3.org/1999/xlink" version="1.1" viewBox="-10 -40 532 512">
   <path fill="currentColor"
d="M96 281q-41 -1 -68 -28v0v0q-27 -27 -28 -68q1 -32 19 -57q18 -24 47 -34q-2 -10 -2 -21q1 -48 33 -79q31 -32 79 -33q33 0 59 17q26 16 40 43q23 -27 61 -28q34 1 57 23q22 23 23 57q0 8 -2 16h1h1q41 1 68 28t28 68q-1 41 -28 68t-68 28h-320v0zM112 313q22 2 24 24v80
v0q-2 22 -24 24q-22 -2 -24 -24v-80v0q2 -22 24 -24v0zM304 313q22 2 24 24v80v0q-2 22 -24 24q-22 -2 -24 -24v-80v0q2 -22 24 -24v0zM232 369v80v-80v80q-2 22 -24 24q-22 -2 -24 -24v-80v0q2 -22 24 -24q22 2 24 24v0zM400 345q22 2 24 24v80v0q-2 22 -24 24
q-22 -2 -24 -24v-80v0q2 -22 24 -24v0z" />
</svg>
