<?xml version="1.0" standalone="no"?>
<!DOCTYPE svg PUBLIC "-//W3C//DTD SVG 1.1//EN" "http://www.w3.org/Graphics/SVG/1.1/DTD/svg11.dtd" >
<svg xmlns="http://www.w3.org/2000/svg" xmlns:xlink="http://www.w3.org/1999/xlink" version="1.1" viewBox="-10 -40 660 512">
   <path fill="currentColor"
d="M304 121q-57 1 -96 37v0v0q-40 36 -47 91h-65v0q-41 -1 -68 -28t-28 -68q1 -41 28 -68t68 -28h1v0q7 -42 37 -68q31 -27 74 -28q36 1 64 20q28 20 41 52q18 -8 39 -8q41 1 68 28t28 68q0 18 -6 34q-17 4 -32 12q-42 -44 -106 -46v0zM224 473q-41 -1 -68 -28v0v0
q-27 -27 -28 -68q1 -32 19 -57q18 -24 47 -34q-2 -10 -2 -21q1 -48 33 -79q31 -32 79 -33q33 0 59 17q26 16 40 43q23 -27 61 -28q34 1 57 23q22 23 23 57q0 8 -2 16h1h1q41 1 68 28t28 68q-1 41 -28 68t-68 28h-320v0z" />
</svg>
