<?xml version="1.0" standalone="no"?>
<!DOCTYPE svg PUBLIC "-//W3C//DTD SVG 1.1//EN" "http://www.w3.org/Graphics/SVG/1.1/DTD/svg11.dtd" >
<svg xmlns="http://www.w3.org/2000/svg" xmlns:xlink="http://www.w3.org/1999/xlink" version="1.1" viewBox="-10 -40 650 512">
   <path fill="currentColor"
d="M352 121q0 17 4 33q40 7 69 35t37 68q21 9 38 24h12q66 -2 111 -45q8 -9 3 -19q-6 -10 -17 -8q-10 1 -20 1q-50 -1 -82 -34q-33 -33 -35 -83q1 -33 17 -60q16 -26 43 -42q9 -6 7 -17q-3 -11 -14 -12q-3 -1 -7 -1h-6q-68 2 -113 47t-47 113v0zM115 235q15 -23 39 -36v0v0
q25 -14 54 -14q19 0 37 6q30 -31 75 -37v-1v0q-1 -27 -19 -45t-45 -19q-11 0 -21 4q-9 -23 -29 -37t-46 -15q-30 1 -51 19q-22 18 -28 46q-4 -1 -9 -1q-31 1 -51 21t-21 51q1 31 21 51t51 21q24 0 43 -14v0zM64 393q1 34 23 56v0v0q23 23 57 24h272v0q41 -1 68 -28t28 -68
q-1 -37 -23 -62q-22 -26 -57 -33v-1v0q-1 -41 -28 -68t-68 -28q-27 0 -48 13q-21 12 -34 33q-20 -14 -46 -14q-34 1 -57 23q-22 23 -23 57q0 9 2 17q-29 6 -47 27q-18 22 -19 52v0z" />
</svg>
