<?xml version="1.0" standalone="no"?>
<!DOCTYPE svg PUBLIC "-//W3C//DTD SVG 1.1//EN" "http://www.w3.org/Graphics/SVG/1.1/DTD/svg11.dtd" >
<svg xmlns="http://www.w3.org/2000/svg" xmlns:xlink="http://www.w3.org/1999/xlink" version="1.1" viewBox="-10 -40 660 512">
   <path fill="currentColor"
d="M160 281q-41 -1 -68 -28v0v0q-27 -27 -28 -68q1 -32 19 -57q18 -24 47 -34q-2 -10 -2 -21q1 -48 33 -79q31 -32 79 -33q33 0 59 17q26 16 40 43q23 -27 61 -28q34 1 57 23q22 23 23 57q0 8 -2 16h1h1q41 1 68 28t28 68q-1 41 -28 68t-68 28h-320v0zM0 353q2 -22 24 -24
h528v0q22 2 24 24q-2 22 -24 24h-528v0q-22 -2 -24 -24v0zM64 449q2 -22 24 -24h112v0q22 2 24 24q-2 22 -24 24h-112v0q-22 -2 -24 -24v0zM272 449q2 -22 24 -24h320v0q22 2 24 24q-2 22 -24 24h-320v0q-22 -2 -24 -24v0z" />
</svg>
