<?xml version="1.0" standalone="no"?>
<!DOCTYPE svg PUBLIC "-//W3C//DTD SVG 1.1//EN" "http://www.w3.org/Graphics/SVG/1.1/DTD/svg11.dtd" >
<svg xmlns="http://www.w3.org/2000/svg" xmlns:xlink="http://www.w3.org/1999/xlink" version="1.1" viewBox="-10 -40 660 512">
   <path fill="currentColor"
d="M128 9q-1 -27 -24 -42q-24 -12 -48 0q-23 15 -24 42q1 27 24 42q24 12 48 0q23 -15 24 -42v0zM576 89h-96h96h-96v-32v0h96v0v32v0zM272 -7q-20 1 -34 14v0v0q-13 14 -14 34v64v0q1 20 14 34q14 13 34 14h320v0q20 -1 34 -14q13 -14 14 -34v-64v0q-1 -20 -14 -34
q-14 -13 -34 -14h-320v0zM576 377h-224h224h-224v-32v0h224v0v32v0zM272 281q-20 1 -34 14v0v0q-13 14 -14 34v64v0q1 20 14 34q14 13 34 14h320v0q20 -1 34 -14q13 -14 14 -34v-64v0q-1 -20 -14 -34q-14 -13 -34 -14h-320v0zM64 89q-27 1 -45 19v0v0q-18 18 -19 45
q0 14 9 23t23 9h96v0q14 0 23 -9t9 -23q-1 -27 -19 -45t-45 -19h-32v0zM128 297q-1 -27 -24 -42q-24 -12 -48 0q-23 15 -24 42q1 27 24 42q24 12 48 0q23 -15 24 -42v0zM64 377q-27 1 -45 19v0v0q-18 18 -19 45q0 14 9 23t23 9h96v0q14 0 23 -9t9 -23q-1 -27 -19 -45
t-45 -19h-32v0z" />
</svg>
