<?xml version="1.0" standalone="no"?>
<!DOCTYPE svg PUBLIC "-//W3C//DTD SVG 1.1//EN" "http://www.w3.org/Graphics/SVG/1.1/DTD/svg11.dtd" >
<svg xmlns="http://www.w3.org/2000/svg" xmlns:xlink="http://www.w3.org/1999/xlink" version="1.1" viewBox="-10 -40 660 512">
   <path fill="currentColor"
d="M0 153q2 -68 47 -113v0v0q45 -45 113 -47h224v0q68 2 113 47t47 113v64v0h-544v0v-64v0zM416 89q-4 0 -6 3l-12 25v0l-29 4v0q-3 1 -5 4q-1 4 2 7l20 19v0l-5 27v0q0 4 3 6t7 0l25 -12v0l25 12v0q4 2 7 0q3 -3 2 -6l-5 -27v0l21 -19v0q3 -3 2 -7q-2 -3 -6 -4l-28 -4v0
l-12 -25v0q-2 -3 -6 -3v0zM278 92q-2 -3 -6 -3t-6 3l-12 25v0l-29 4v0q-3 1 -5 4q-1 4 2 7l20 19v0l-5 27v0q0 4 3 6t7 0l25 -12v0l25 12v0q4 2 7 0q3 -3 2 -6l-5 -27v0l21 -19v0q3 -3 2 -7q-2 -3 -6 -4l-28 -4v0l-12 -25v0zM128 89q-4 0 -6 3l-12 25v0l-29 4v0q-3 1 -5 4
q-1 4 2 7l20 19v0l-5 27v0q0 4 3 6t7 0l25 -12v0l25 12v0q4 2 7 0q3 -3 2 -6l-5 -27v0l21 -19v0q3 -3 2 -7q-2 -3 -6 -4l-28 -4v0l-12 -25v0q-2 -3 -6 -3v0zM128 249h192h-192h416v32v0v80v0q1 15 16 16q15 -1 16 -16v-48v0q0 -14 9 -23t23 -9t23 9t9 23v48v0q-1 34 -23 57
q-23 22 -57 23q-34 -1 -57 -23q-22 -23 -23 -57v-48v0h-32v0v32v0v64v0q0 14 -9 23t-23 9h-64v0q-14 0 -23 -9t-9 -23v-64v0h-192v0v64v0q0 14 -9 23t-23 9h-64v0q-14 0 -23 -9t-9 -23v-64v0v-96v0h128v0z" />
</svg>
