<?xml version="1.0" standalone="no"?>
<!DOCTYPE svg PUBLIC "-//W3C//DTD SVG 1.1//EN" "http://www.w3.org/Graphics/SVG/1.1/DTD/svg11.dtd" >
<svg xmlns="http://www.w3.org/2000/svg" xmlns:xlink="http://www.w3.org/1999/xlink" version="1.1" viewBox="-11 0 533 512">
   <path fill="currentColor"
d="M371 -26l20 108l-20 -108l20 108l-44 45v0q-37 -37 -91 -38q-54 1 -91 37q-36 37 -37 91q1 54 38 91l-45 44v0l-108 -20v0q-8 -2 -12 -9q-3 -8 2 -16l62 -90v0l-62 -90v0q-5 -8 -2 -15q4 -8 12 -10l108 -20v0l20 -108v0q2 -8 10 -12q7 -3 15 2l90 62v0l90 -62v0
q8 -5 16 -2q7 4 9 12v0zM256 121q41 1 68 28l-136 136v0q-27 -27 -28 -68q1 -41 28 -68t68 -28v0zM448 121q0 -14 9 -23v0v0q9 -9 23 -9t23 9t9 23t-9 23t-23 9t-23 -9t-9 -23v0zM368 201q0 -14 9 -23v0v0q9 -9 23 -9t23 9t9 23t-9 23t-23 9t-23 -9t-9 -23v0zM480 249
q14 0 23 9v0v0q9 9 9 23t-9 23t-23 9t-23 -9t-9 -23t9 -23t23 -9v0zM240 329q14 0 23 9v0v0q9 9 9 23t-9 23t-23 9t-23 -9t-9 -23t9 -23t23 -9v0zM160 409q14 0 23 9v0v0q9 9 9 23t-9 23t-23 9t-23 -9t-9 -23t9 -23t23 -9v0zM288 441q0 -14 9 -23v0v0q9 -9 23 -9t23 9t9 23
t-9 23t-23 9t-23 -9t-9 -23v0zM480 409q14 0 23 9v0v0q9 9 9 23t-9 23t-23 9t-23 -9t-9 -23t9 -23t23 -9v0zM368 361q0 -14 9 -23v0v0q9 -9 23 -9t23 9t9 23t-9 23t-23 9t-23 -9t-9 -23v0zM320 249q14 0 23 9v0v0q9 9 9 23t-9 23t-23 9t-23 -9t-9 -23t9 -23t23 -9v0z" />
</svg>
