<?xml version="1.0" standalone="no"?>
<!DOCTYPE svg PUBLIC "-//W3C//DTD SVG 1.1//EN" "http://www.w3.org/Graphics/SVG/1.1/DTD/svg11.dtd" >
<svg xmlns="http://www.w3.org/2000/svg" xmlns:xlink="http://www.w3.org/1999/xlink" version="1.1" viewBox="-10 -40 532 512">
   <path fill="currentColor"
d="M0 185q1 41 28 68v0v0q27 27 68 28h47v0l147 -117v0q14 -11 30 -11q17 0 30 11t17 27q3 16 -4 32l-29 58v0h18h64q41 -1 68 -28t28 -68q-1 -41 -28 -68t-68 -28h-1h-1q2 -8 2 -16q-1 -34 -23 -57q-23 -22 -57 -23q-38 1 -61 28q-14 -27 -40 -43q-26 -17 -59 -17
q-48 1 -79 33q-32 31 -33 79q0 11 2 21q-29 10 -47 34q-18 25 -19 57v0zM330 189q-10 -7 -20 0l-160 128v0q-8 7 -5 17q4 10 15 11h70v0l-52 105v0q-5 11 4 19q10 7 20 1l160 -128v0q8 -8 5 -18q-4 -10 -15 -11h-70v0l52 -105v0q5 -11 -4 -19v0z" />
</svg>
