<?xml version="1.0" standalone="no"?>
<!DOCTYPE svg PUBLIC "-//W3C//DTD SVG 1.1//EN" "http://www.w3.org/Graphics/SVG/1.1/DTD/svg11.dtd" >
<svg xmlns="http://www.w3.org/2000/svg" xmlns:xlink="http://www.w3.org/1999/xlink" version="1.1" viewBox="-10 -40 596 512">
   <path fill="currentColor"
d="M96 41q1 -20 14 -34v0v0q14 -13 34 -14h288v0q20 1 34 14q13 14 14 34v304v0h-384v0v-304v0zM409 88q-17 -14 -34 0l-111 111v0l-47 -47v0q-17 -14 -34 0q-14 17 0 34l64 64v0q17 14 34 0l128 -128v0q14 -17 0 -34v0zM0 297q1 -20 14 -34v0v0q14 -13 34 -14h16v0v128v0
h448v0v-128v0h16v0q20 1 34 14q13 14 14 34v96v0q-1 20 -14 34q-14 13 -34 14h-480v0q-20 -1 -34 -14q-13 -14 -14 -34v-96v0z" />
</svg>
