<?xml version="1.0" standalone="no"?>
<!DOCTYPE svg PUBLIC "-//W3C//DTD SVG 1.1//EN" "http://www.w3.org/Graphics/SVG/1.1/DTD/svg11.dtd" >
<svg xmlns="http://www.w3.org/2000/svg" xmlns:xlink="http://www.w3.org/1999/xlink" version="1.1" viewBox="-10 -40 596 512">
   <path fill="currentColor"
d="M355 65l-35 32l35 -32l-35 32v-104v0q0 -14 -9 -23t-23 -9t-23 9t-9 23v104v0l-34 -32v0q-11 -8 -24 -8q-12 1 -22 11q-9 10 -8 23q1 12 11 22l88 80v0q21 16 43 0l88 -80v0q9 -10 10 -22q1 -13 -8 -23q-10 -10 -22 -11q-13 0 -23 8v0zM270 255q-35 25 -78 26
q-42 -2 -77 -26v0v0q-21 -13 -40 2q-22 18 -50 25q-13 3 -20 14t-4 24t14 20t24 4q38 -10 59 -25q44 25 94 26q49 -3 80 -19q9 -4 16 -8q7 4 16 8q31 16 80 19q50 -1 95 -26q20 15 58 25q13 3 24 -4t14 -20t-4 -24t-20 -14q-28 -7 -50 -25q-19 -15 -40 -2v0v0q-35 24 -77 26
q-42 -1 -77 -26q-19 -12 -37 0v0zM307 383q-19 -12 -37 0q-35 25 -78 26q-42 -2 -77 -26v0v0q-21 -13 -40 2q-22 18 -50 25q-13 3 -20 14t-4 24t14 20t24 4q38 -10 59 -25q44 25 94 26q49 -3 80 -19q9 -4 16 -8q7 4 16 8q31 16 80 19q50 -1 95 -26q20 15 58 25q13 3 24 -4
t14 -20t-4 -24t-20 -14q-28 -7 -50 -25q-19 -14 -40 -2v0v0q-35 24 -77 26q-42 -1 -77 -26v0z" />
</svg>
