<?xml version="1.0" standalone="no"?>
<!DOCTYPE svg PUBLIC "-//W3C//DTD SVG 1.1//EN" "http://www.w3.org/Graphics/SVG/1.1/DTD/svg11.dtd" >
<svg xmlns="http://www.w3.org/2000/svg" xmlns:xlink="http://www.w3.org/1999/xlink" version="1.1" viewBox="-10 -40 596 512">
   <path fill="currentColor"
d="M355 97l-35 -32l35 32l-35 -32v104v0q0 14 -9 23t-23 9t-23 -9t-9 -23v-104v0l-34 32v0q-11 9 -24 8q-12 -1 -22 -11q-9 -10 -8 -23q1 -12 11 -22l88 -80v0q21 -16 43 0l88 80v0q9 10 10 22q1 13 -8 23q-10 10 -22 11q-13 0 -23 -8v0zM270 255q18 -12 37 0q35 25 77 26
q42 -2 77 -26v0v0q21 -13 40 2q22 18 50 25q13 3 20 14t4 24t-14 20t-24 4q-38 -10 -58 -25q-45 25 -95 26q-49 -3 -80 -19q-9 -4 -16 -8q-7 4 -16 8q-31 16 -80 19q-50 -1 -94 -26q-21 15 -59 25q-13 3 -24 -4t-14 -20t4 -24t20 -14q28 -7 50 -25q19 -15 40 -2v0v0
q35 24 77 26q43 -1 78 -26v0zM307 383q35 25 77 26q42 -2 77 -26v0v0q21 -13 40 2q22 18 50 25q13 3 20 14t4 24t-14 20t-24 4q-38 -10 -58 -25q-45 25 -95 26q-49 -3 -80 -19q-9 -4 -16 -8q-7 4 -16 8q-31 16 -80 19q-50 -1 -94 -26q-21 15 -59 25q-13 3 -24 -4t-14 -20
t4 -24t20 -14q28 -7 50 -25q19 -14 40 -2v0v0q35 24 77 26q43 -1 78 -26q18 -12 37 0v0z" />
</svg>
