<?xml version="1.0" standalone="no"?>
<!DOCTYPE svg PUBLIC "-//W3C//DTD SVG 1.1//EN" "http://www.w3.org/Graphics/SVG/1.1/DTD/svg11.dtd" >
<svg xmlns="http://www.w3.org/2000/svg" xmlns:xlink="http://www.w3.org/1999/xlink" version="1.1" viewBox="-10 -40 596 512">
   <path fill="currentColor"
d="M384 25v0v0v0v0v0v1q-1 1 -2 3q-3 3 -7 6q10 12 17 28q23 -17 24 -38q-1 -27 -37 -45q-37 -18 -91 -19q-54 1 -91 19q-36 18 -37 45q1 21 24 38q6 -16 17 -28q-4 -3 -7 -6q-2 -2 -2 -3v-1v0v0v0v0v-1v0q0 -1 2 -3q5 -6 18 -13q28 -14 76 -15q48 1 76 15q13 7 18 13
q1 2 2 3v1v0v0v0v0zM368 105q-1 -45 -40 -69q-40 -22 -80 0q-39 24 -40 69q1 45 40 69q40 22 80 0q39 -24 40 -69v0zM120 425h-70h70h-70l38 -76v0q8 -17 8 -36v0v0q0 -19 -8 -36l-19 -37v0q-5 -10 -5 -22q1 -21 14 -35q14 -13 34 -14q20 0 34 14l67 67v0q-11 10 -18 24
l-75 151v0zM254 223l-74 -74l74 74l-74 -74q-28 -27 -68 -28q-41 1 -68 29q-27 27 -28 68q0 23 10 44l19 36v0q3 7 3 15v0v0q0 8 -3 15l-40 79v0q-5 10 -5 21q0 19 13 32t32 13h51h435q19 0 32 -13t13 -32q0 -11 -5 -21l-40 -79v0q-3 -7 -3 -15v0v0q0 -8 3 -15l19 -36v0
q10 -21 10 -44q-1 -41 -28 -68q-27 -28 -68 -29q-40 1 -68 28l-74 74v0q-16 -6 -34 -6t-34 6v0zM381 274q-7 -14 -18 -25l67 -66v0q14 -14 34 -14q20 1 34 14q13 14 14 35q0 12 -5 22l-19 37v0q-8 17 -8 35v1v0q0 19 8 36l38 76v0h-70v0l-75 -151v0z" />
</svg>
