<?xml version="1.0" standalone="no"?>
<!DOCTYPE svg PUBLIC "-//W3C//DTD SVG 1.1//EN" "http://www.w3.org/Graphics/SVG/1.1/DTD/svg11.dtd" >
<svg xmlns="http://www.w3.org/2000/svg" xmlns:xlink="http://www.w3.org/1999/xlink" version="1.1" viewBox="-10 -40 532 512">
   <path fill="currentColor"
d="M192 -7q0 14 9 23v0v0q9 9 23 9q63 1 113 31q51 29 80 80q30 50 31 113q0 14 9 23t23 9t23 -9t9 -23q-1 -80 -39 -145q-39 -65 -104 -104q-65 -38 -145 -39q-14 0 -23 9t-9 23v0zM192 89q0 14 9 23v0v0q9 9 23 9q54 1 91 37q36 37 37 91q0 14 9 23t23 9t23 -9t9 -23
q-2 -82 -56 -136t-136 -56q-14 0 -23 9t-9 23v0zM96 105q-1 -20 -14 -34v0v0q-14 -13 -34 -14q-20 1 -34 14q-13 14 -14 34v224v0q2 61 42 102q41 40 102 42q61 -2 102 -42q40 -41 42 -102q-2 -61 -42 -102q-41 -40 -102 -42h-16v0v96v0h16v0q20 1 34 14q13 14 14 34
q-1 20 -14 34q-14 13 -34 14q-20 -1 -34 -14q-13 -14 -14 -34v-224v0z" />
</svg>
