<?xml version="1.0" standalone="no"?>
<!DOCTYPE svg PUBLIC "-//W3C//DTD SVG 1.1//EN" "http://www.w3.org/Graphics/SVG/1.1/DTD/svg11.dtd" >
<svg xmlns="http://www.w3.org/2000/svg" xmlns:xlink="http://www.w3.org/1999/xlink" version="1.1" viewBox="-10 -40 586 512">
   <path fill="currentColor"
d="M256 -23q-1 -15 -16 -16q-15 1 -16 16v24v0q1 24 16 40q16 15 40 16h8h32l-50 13v0q-13 4 -14 17q2 16 18 18h38v0l-10 32v0h-106v0h-1h-1h-1h-1h-64h-22q-42 1 -71 28q-28 26 -33 68l-2 30v0q0 22 22 26q22 0 26 -21q4 4 8 9q13 16 2 34q-26 46 -10 97l16 44v0
q8 20 30 21h34v0q17 -1 26 -13q9 -13 4 -30l-19 -54v0q-3 -10 4 -18l11 -11v0q18 -18 21 -44q33 25 77 26h36v0v112v0q0 14 9 23t23 9h32v0q14 0 23 -9t9 -23v-112v0v-64v0l27 -80v0h5h51q19 0 32 -13t13 -32v-4q4 1 8 1q17 -1 28 -12q12 -11 12 -28t-12 -28
q-11 -12 -28 -12q-15 0 -26 9q-10 9 -13 24l-38 -38v0v0l-1 -1q28 -16 30 -50v-24v0q-1 -15 -16 -16q-15 1 -16 16v24v0q-2 22 -24 24h-39h-30q5 -11 5 -24v-24v0q-1 -15 -16 -16q-15 1 -16 16v24v0q-2 22 -24 24h-8h-8q-22 -2 -24 -24v-24v0zM384 105q1 -15 16 -16
q15 1 16 16q-1 15 -16 16q-15 -1 -16 -16v0z" />
</svg>
