<?xml version="1.0" standalone="no"?>
<!DOCTYPE svg PUBLIC "-//W3C//DTD SVG 1.1//EN" "http://www.w3.org/Graphics/SVG/1.1/DTD/svg11.dtd" >
<svg xmlns="http://www.w3.org/2000/svg" xmlns:xlink="http://www.w3.org/1999/xlink" version="1.1" viewBox="-10 -40 660 512">
   <path fill="currentColor"
d="M201 -7q5 -21 -15 -31q-21 -5 -31 15l-10 30v0l-10 -30v0q-9 -20 -31 -15q-20 9 -15 31l9 25v0l-28 -20v0q-19 -12 -33 5q-12 19 5 33l28 21v0h-22v0q-20 1 -34 14q-13 14 -14 34v320v0q1 20 14 34q14 13 34 14h153v0q-9 -14 -9 -32v-224v0q0 -23 14 -40q13 -16 34 -22
q4 -48 40 -76q-14 -21 -40 -22h-22v0l28 -21v0q17 -14 5 -33q-14 -17 -33 -5l-25 18v0l8 -23v0zM364 147l29 38l-29 -38l29 38h-49v0q-22 -2 -24 -24q2 -22 24 -24q12 0 20 10v0zM272 161q0 13 4 24h-4v0q-20 1 -34 14q-13 14 -14 34v80v0h192v0v-96v0h32v0v96v0h192v0v-80
v0q-1 -20 -14 -34q-14 -13 -34 -14h-4v0q4 -11 4 -24q-1 -31 -21 -51q-21 -20 -51 -21q-35 1 -57 28l-31 40v0l-30 -40v0q-23 -27 -58 -28q-30 1 -51 21q-20 20 -21 51v0zM224 425q1 20 14 34v0v0q14 13 34 14h144v0v-128v0h-192v0v80v0zM448 473h144h-144h144q20 -1 34 -14
q13 -14 14 -34v-80v0h-192v0v128v0zM544 161q-2 22 -24 24h-49v0l30 -38v0q7 -10 19 -10q22 2 24 24v0z" />
</svg>
