<?xml version="1.0" standalone="no"?>
<!DOCTYPE svg PUBLIC "-//W3C//DTD SVG 1.1//EN" "http://www.w3.org/Graphics/SVG/1.1/DTD/svg11.dtd" >
<svg xmlns="http://www.w3.org/2000/svg" xmlns:xlink="http://www.w3.org/1999/xlink" version="1.1" viewBox="-10 -40 532 512">
   <path fill="currentColor"
d="M280 -17q-3 -20 -24 -22q-21 2 -24 22q-17 -12 -32 1q-14 16 -2 33q-20 3 -22 24q2 21 22 24q-12 17 1 33q16 13 33 1q3 20 24 22q21 -2 24 -22q17 12 33 -1q13 -16 1 -33q20 -3 22 -24q-2 -21 -22 -24q12 -17 -1 -32q-16 -14 -33 -2v0zM0 441q0 14 9 23v0v0q9 9 23 9
h448v0q14 0 23 -9t9 -23t-9 -23t-23 -9h-448v0q-14 0 -23 9t-9 23v0zM216 137q-22 0 -39 -16q-47 21 -75 59q-29 38 -44 80q7 3 13 0l36 -18v0q21 -10 43 0l35 18v0q7 3 14 0l36 -18v0q21 -10 43 0l35 18v0q7 3 14 0l36 -18v0q21 -10 42 0l36 18v0q6 3 13 0q-15 -42 -44 -80
q-28 -38 -75 -59q-17 16 -39 16q-16 15 -40 16q-24 -1 -40 -16v0zM48 291q-10 36 -13 61v0v0q-3 24 -3 25v0v0v0h448v0q0 -1 -3 -25q-3 -25 -13 -61q-19 6 -37 -3l-36 -18v0q-7 -3 -14 0l-35 18v0q-22 10 -43 0l-36 -18v0q-7 -3 -14 0l-35 18v0q-22 10 -43 0l-36 -18v0
q-7 -3 -14 0l-35 18v0q-19 9 -38 3v0z" />
</svg>
