<?xml version="1.0" standalone="no"?>
<!DOCTYPE svg PUBLIC "-//W3C//DTD SVG 1.1//EN" "http://www.w3.org/Graphics/SVG/1.1/DTD/svg11.dtd" >
<svg xmlns="http://www.w3.org/2000/svg" xmlns:xlink="http://www.w3.org/1999/xlink" version="1.1" viewBox="-10 -40 468 512">
   <path fill="currentColor"
d="M352 345h-288h288h-288l-59 -205v0q-5 -19 -5 -39q2 -59 41 -99q40 -39 99 -41h4v0q50 1 88 30q38 30 51 79l32 126v0l17 -20v0q20 -23 50 -23h3v0q27 1 45 19q17 17 18 44q0 25 -17 43l-79 86v0zM32 409q0 -14 9 -23v0v0q9 -9 23 -9h288v0q14 0 23 9t9 23v32v0
q0 14 -9 23t-23 9h-288v0q-14 0 -23 -9t-9 -23v-32v0z" />
</svg>
