<?xml version="1.0" standalone="no"?>
<!DOCTYPE svg PUBLIC "-//W3C//DTD SVG 1.1//EN" "http://www.w3.org/Graphics/SVG/1.1/DTD/svg11.dtd" >
<svg xmlns="http://www.w3.org/2000/svg" xmlns:xlink="http://www.w3.org/1999/xlink" version="1.1" viewBox="-10 -40 532 512">
   <path fill="currentColor"
d="M192 -7q11 0 20 7l-37 37v0q-15 15 -15 36q0 8 3 16h-131v0v-64v0q0 -14 9 -23t23 -9h128v0zM198 87q-6 -6 -6 -14t6 -14l60 -60v0q6 -6 14 -6t14 6l60 60v0q6 6 6 14t-6 14l-2 2v0h-144v0l-2 -2v0zM0 153q0 -14 9 -23v0v0q9 -9 23 -9h64v0v64v0q0 14 9 23t23 9t23 -9
t9 -23v-64v0h192h48q48 1 79 33q32 31 33 79q-1 48 -33 79q-31 32 -79 33h-16v0q-1 41 -28 68t-68 28h-192v0q-41 -1 -68 -28t-28 -68v-192v0zM384 185v96v-96v96h16v0q20 -1 34 -14q13 -14 14 -34q-1 -20 -14 -34q-14 -13 -34 -14h-16v0z" />
</svg>
