<?xml version="1.0" standalone="no"?>
<!DOCTYPE svg PUBLIC "-//W3C//DTD SVG 1.1//EN" "http://www.w3.org/Graphics/SVG/1.1/DTD/svg11.dtd" >
<svg xmlns="http://www.w3.org/2000/svg" xmlns:xlink="http://www.w3.org/1999/xlink" version="1.1" viewBox="-10 -40 404 512">
   <path fill="currentColor"
d="M64 -39h179h-179h179q26 0 45 19l77 77v0q19 19 19 45v307v0q-1 27 -19 45t-45 19h-256v0q-27 -1 -45 -19t-19 -45v-384v0q1 -27 19 -45t45 -19v0zM96 153q-14 0 -23 9v0v0q-9 9 -9 23v32v0h64v0v-64v0h-32v0zM64 313h80h-80h256v-64v0h-80h-176v64v0zM320 185
q0 -14 -9 -23v0v0q-9 -9 -23 -9h-32v0v64v0h64v0v-32v0zM160 153v64v-64v64h64v0v-64v0h-64v0zM288 409q14 0 23 -9v0v0q9 -9 9 -23v-32v0h-64v0v64v0h32v0zM160 345v64v-64v64h64v0v-64v0h-64v0zM64 377q0 14 9 23v0v0q9 9 23 9h32v0v-64v0h-64v0v32v0z" />
</svg>
