<?xml version="1.0" standalone="no"?>
<!DOCTYPE svg PUBLIC "-//W3C//DTD SVG 1.1//EN" "http://www.w3.org/Graphics/SVG/1.1/DTD/svg11.dtd" >
<svg xmlns="http://www.w3.org/2000/svg" xmlns:xlink="http://www.w3.org/1999/xlink" version="1.1" viewBox="-10 -40 468 512">
   <path fill="currentColor"
d="M352 9q1 -27 24 -42q24 -12 48 0q23 15 24 42q-1 27 -24 42q-24 12 -48 0q-23 -15 -24 -42v0zM128 89q0 -14 9 -23v0v0q9 -9 23 -9h159v0q34 2 45 30t-12 53l-74 70v0l60 60v0q14 14 14 34v73v0q0 14 -9 23t-23 9t-23 -9t-9 -23v-67v0l-78 -77v0q-20 -22 -18 -49
q1 -27 23 -46l20 -17v0h-75v0q-14 0 -23 -9t-9 -23v0zM81 314l87 -86l-87 86l87 -86q7 15 20 27l21 22v0l-82 83v0q-10 9 -23 9t-23 -9q-9 -10 -9 -23t9 -23v0zM404 410q14 4 12 19l-1 2v0q-5 19 -20 30q-15 12 -34 12h-89v0q-15 -1 -16 -16q1 -15 16 -16h89v0q18 -1 23 -18
v-2v0q5 -14 20 -12v1zM135 439l-6 3l6 -3l-6 3q-17 8 -34 6q-17 -3 -31 -16l-59 -60v0q-10 -11 0 -22q11 -10 22 0l60 59v0q12 11 28 5l6 -3v0q13 -6 21 7q6 14 -7 21v0z" />
</svg>
