<?xml version="1.0" standalone="no"?>
<!DOCTYPE svg PUBLIC "-//W3C//DTD SVG 1.1//EN" "http://www.w3.org/Graphics/SVG/1.1/DTD/svg11.dtd" >
<svg xmlns="http://www.w3.org/2000/svg" xmlns:xlink="http://www.w3.org/1999/xlink" version="1.1" viewBox="-10 -40 532 512">
   <path fill="currentColor"
d="M352 9q1 -27 24 -42q24 -12 48 0q23 15 24 42q-1 27 -24 42q-24 12 -48 0q-23 -15 -24 -42v0zM128 89q0 -14 9 -23v0v0q9 -9 23 -9h145v0q35 3 45 33t-16 53l-104 79v0l-6 7v0q-4 5 -6 10l-38 103v0l254 -132v0q29 -16 30 -50v-7v0q2 -22 24 -24q22 2 24 24v7v0
q0 30 -15 54q-15 25 -41 39l-421 217v0q-20 9 -32 -10q-9 -20 10 -32l111 -58v0q-17 -14 -10 -36l44 -118v0q6 -15 17 -28l57 -67v0h-72v0q-14 0 -23 -9t-9 -23v0z" />
</svg>
