<?xml version="1.0" standalone="no"?>
<!DOCTYPE svg PUBLIC "-//W3C//DTD SVG 1.1//EN" "http://www.w3.org/Graphics/SVG/1.1/DTD/svg11.dtd" >
<svg xmlns="http://www.w3.org/2000/svg" xmlns:xlink="http://www.w3.org/1999/xlink" version="1.1" viewBox="-10 -40 660 512">
   <path fill="currentColor"
d="M32 -7q-14 0 -23 9v0v0q-9 9 -9 23t9 23t23 9v160v0q1 41 28 68t68 28v32v0h64v0v-32v0h192v0v32v0h64v0v-32v0q41 -1 68 -28t28 -68v-96v0q14 0 23 -9t9 -23t-9 -23t-23 -9h-32h-32q-14 0 -23 9t-9 23v41v0q-1 24 -16 39t-39 16q-57 0 -106 -27t-79 -76l-5 -7v0
q-22 -35 -57 -56q-34 -21 -75 -25q-4 -1 -7 -1h-9h-23zM640 345q0 -14 -9 -23v0v0q-9 -9 -23 -9t-23 9t-9 23v8v0q-2 22 -24 24h-488v0q-14 0 -23 9t-9 23t9 23t23 9h488v0q37 -1 62 -26t26 -62v-8v0z" />
</svg>
