<?xml version="1.0" standalone="no"?>
<!DOCTYPE svg PUBLIC "-//W3C//DTD SVG 1.1//EN" "http://www.w3.org/Graphics/SVG/1.1/DTD/svg11.dtd" >
<svg xmlns="http://www.w3.org/2000/svg" xmlns:xlink="http://www.w3.org/1999/xlink" version="1.1" viewBox="-10 -40 660 512">
   <path fill="currentColor"
d="M224 -39q14 0 23 9v0v0q9 9 9 23v30v0l15 -15v0q17 -14 34 0q14 17 0 34l-49 49v0v70v0l61 -35v0l18 -67v0q8 -20 29 -17q21 8 17 30l-5 19v0l24 -14v0q12 -6 24 -3t20 15q6 12 3 24t-15 20l-25 14v0l22 6v0q20 8 17 30q-8 20 -30 17l-68 -18v0l-60 35v0l60 36v0l68 -19
v0q22 -3 29 17q4 22 -17 30l-21 6v0l25 14v0q12 8 15 20t-3 24q-8 12 -20 15t-24 -3l-24 -14v0l5 19v0q4 22 -17 30q-21 3 -29 -17l-18 -67v0l-61 -35v0v70v0l49 49v0q14 17 0 34q-17 14 -34 0l-15 -15v0v30v0q0 14 -9 23t-23 9t-23 -9t-9 -23v-30v0l-15 15v0q-17 14 -34 0
q-14 -17 0 -34l49 -49v0v-70v0l-61 36v0l-18 66v0q-8 20 -29 17q-21 -8 -17 -30l5 -19v0l-24 14v0q-12 6 -24 3q-13 -3 -20 -15q-6 -12 -3 -24q3 -13 15 -20l25 -14v0l-22 -6v0q-20 -8 -17 -30q8 -20 30 -17l67 18v0l62 -35v0l-61 -35v0l-68 18v0q-22 3 -29 -17
q-4 -22 17 -30l21 -6v0l-25 -14v0q-12 -8 -15 -20t3 -24q8 -12 20 -15t24 3l24 14v0l-5 -19v0q-4 -22 17 -30q21 -3 29 17l18 67v0l61 35v0v-70v0l-49 -49v0q-14 -17 0 -34q17 -14 34 0l15 15v0v-30v0q0 -14 9 -23t23 -9v0zM487 -32q17 -14 34 0l23 23v0l23 -23v0
q17 -14 34 0q14 17 0 34l-23 23v0l23 23v0q14 17 0 34q-17 14 -34 0l-23 -23v0l-23 23v0q-17 14 -34 0q-14 -17 0 -34l23 -23v0l-23 -23v0q-14 -17 0 -34v0zM519 160q17 -14 34 0l23 23v0l23 -23v0q17 -14 34 0q14 17 0 34l-23 23v0l23 23v0q14 17 0 34q-17 14 -34 0
l-23 -23v0l-23 23v0q-17 14 -34 0q-14 -17 0 -34l23 -23v0l-23 -23v0q-14 -17 0 -34v0z" />
</svg>
