<?xml version="1.0" standalone="no"?>
<!DOCTYPE svg PUBLIC "-//W3C//DTD SVG 1.1//EN" "http://www.w3.org/Graphics/SVG/1.1/DTD/svg11.dtd" >
<svg xmlns="http://www.w3.org/2000/svg" xmlns:xlink="http://www.w3.org/1999/xlink" version="1.1" viewBox="-10 -40 660 512">
   <path fill="currentColor"
d="M240 57q27 -1 42 -24q12 -24 0 -48q-15 -23 -42 -24q-27 1 -42 24q-12 24 0 48q15 23 42 24v0zM374 46q-12 -18 -33 -10q-18 11 -10 32l37 75v0l-8 10v0h-56v0l-62 -56v0q-18 -16 -42 -16h-1v0q-38 1 -57 34l-35 67v0q-17 35 5 67h-12v0q-20 1 -29 18l-32 64v0
q-4 7 -3 15q6 -1 12 -1h224v0q41 2 64 32h114v0l36 48v0h-46v0q-22 2 -24 24q2 22 24 24h136v0q10 0 17 -7l40 -40v0q14 -17 0 -34q-17 -14 -34 0l-33 33v0h-20v0l-46 -61v0l69 -46v0q7 -5 7 -13v-78v0q0 -10 -9 -14l-147 -74v0l-46 -93v0zM299 217h13h-13h13l-24 32v0h-24
v0l-72 -32v0l32 -48v0l29 29v0q19 19 46 19v0zM48 377q-20 1 -34 14v0v0q-13 14 -14 34q1 20 14 34q14 13 34 14h224v0q20 -1 34 -14q13 -14 14 -34q-1 -20 -14 -34q-14 -13 -34 -14h-224v0z" />
</svg>
