<?xml version="1.0" standalone="no"?>
<!DOCTYPE svg PUBLIC "-//W3C//DTD SVG 1.1//EN" "http://www.w3.org/Graphics/SVG/1.1/DTD/svg11.dtd" >
<svg xmlns="http://www.w3.org/2000/svg" xmlns:xlink="http://www.w3.org/1999/xlink" version="1.1" viewBox="-10 -40 468 512">
   <path fill="currentColor"
d="M150 32l47 -18l-47 18l47 -18l18 -47v0q3 -6 9 -6t9 6l18 47v0l47 18v0q6 3 6 9t-6 9l-47 18v0l-18 47v0q-3 6 -9 6t-9 -6l-18 -47v0l-47 -18v0q-6 -3 -6 -9t6 -9v0zM263 126l12 -31l-12 31l12 -31l144 180v0q5 6 5 14q-2 22 -24 24h-32v0l76 122v0q4 6 4 13
q-2 23 -25 25h-398v0q-23 -2 -25 -25q0 -7 4 -13l76 -122v0h-32v0q-22 -2 -24 -24q0 -8 5 -14l144 -180v0l12 31v0q11 26 39 27q28 -1 39 -27v0zM184 249q-2 -22 -24 -24q-22 2 -24 24q2 22 24 24q22 -2 24 -24v0zM288 401q22 -2 24 -24q-2 -22 -24 -24q-22 2 -24 24
q2 22 24 24v0z" />
</svg>
