<?xml version="1.0" standalone="no"?>
<!DOCTYPE svg PUBLIC "-//W3C//DTD SVG 1.1//EN" "http://www.w3.org/Graphics/SVG/1.1/DTD/svg11.dtd" >
<svg xmlns="http://www.w3.org/2000/svg" xmlns:xlink="http://www.w3.org/1999/xlink" version="1.1" viewBox="-10 -40 468 512">
   <path fill="currentColor"
d="M0 57q1 -41 28 -68v0v0q27 -27 68 -28h288h32q14 0 23 9t9 23v320v0q0 14 -9 23t-23 9v64v0q14 0 23 9t9 23t-9 23t-23 9h-32h-288q-41 -1 -68 -28t-28 -68v-320v0zM64 377q0 14 9 23v0v0q9 9 23 9h256v0v-64v0h-256v0q-14 0 -23 9t-9 23v0zM304 89q-1 -36 -32 -55
q-32 -18 -64 0q-31 19 -32 55q1 36 32 55q32 18 64 0q31 -19 32 -55v0zM128 265q1 15 16 16h192v0q15 -1 16 -16q-1 -34 -23 -57q-23 -22 -57 -23h-64v0q-34 1 -57 23q-22 23 -23 57v0z" />
</svg>
