<?xml version="1.0" standalone="no"?>
<!DOCTYPE svg PUBLIC "-//W3C//DTD SVG 1.1//EN" "http://www.w3.org/Graphics/SVG/1.1/DTD/svg11.dtd" >
<svg xmlns="http://www.w3.org/2000/svg" xmlns:xlink="http://www.w3.org/1999/xlink" version="1.1" viewBox="-10 -40 532 512">
   <path fill="currentColor"
d="M64 25q0 -14 -9 -23v0v0q-9 -9 -23 -9t-23 9t-9 23v336v0q1 34 23 57q23 22 57 23h400v0q14 0 23 -9t9 -23t-9 -23t-23 -9h-400v0q-15 -1 -16 -16v-336v0zM192 153q14 0 23 -9v0v0q9 -9 9 -23t-9 -23t-23 -9t-23 9t-9 23t9 23t23 9v0zM320 217q0 -14 -9 -23v0v0
q-9 -9 -23 -9t-23 9t-9 23t9 23t23 9t23 -9t9 -23v0zM384 313q14 0 23 -9v0v0q9 -9 9 -23t-9 -23t-23 -9t-23 9t-9 23t9 23t23 9v0zM448 89q0 -14 -9 -23v0v0q-9 -9 -23 -9t-23 9t-9 23t9 23t23 9t23 -9t9 -23v0zM160 313q14 0 23 -9v0v0q9 -9 9 -23t-9 -23t-23 -9t-23 9
t-9 23t9 23t23 9v0z" />
</svg>
