<?xml version="1.0" standalone="no"?>
<!DOCTYPE svg PUBLIC "-//W3C//DTD SVG 1.1//EN" "http://www.w3.org/Graphics/SVG/1.1/DTD/svg11.dtd" >
<svg xmlns="http://www.w3.org/2000/svg" xmlns:xlink="http://www.w3.org/1999/xlink" version="1.1" viewBox="-10 -40 532 512">
   <path fill="currentColor"
d="M451 54q59 59 61 147v16v0h-16h-496q0 -8 2 -16q6 -21 25 -34l69 -46v0l23 -15v0q13 -7 26 3q13 12 31 12q20 -1 34 -14q13 -14 14 -34q0 -8 -2 -15q-5 -15 6 -25l47 -31v0q13 -9 29 -9q86 2 144 58q1 1 2 1q0 1 1 2v0zM432 249h16h-16h80v16v0v112v0q-1 27 -19 45
t-45 19h-384v0q-27 -1 -45 -19t-19 -45v-112v0v-16v0h16h288q14 2 19 16q11 30 45 32q34 -2 45 -32q5 -14 19 -16v0zM224 345q-1 -27 -24 -42q-24 -12 -48 0q-23 15 -24 42q1 27 24 42q24 12 48 0q23 -15 24 -42v0z" />
</svg>
