<?xml version="1.0" standalone="no"?>
<!DOCTYPE svg PUBLIC "-//W3C//DTD SVG 1.1//EN" "http://www.w3.org/Graphics/SVG/1.1/DTD/svg11.dtd" >
<svg xmlns="http://www.w3.org/2000/svg" xmlns:xlink="http://www.w3.org/1999/xlink" version="1.1" viewBox="-10 -40 660 512">
   <path fill="currentColor"
d="M471 -30l160 160l-160 -160l160 160q9 10 9 23t-9 23q-10 9 -23 9t-23 -9l-160 -160v0q-9 -10 -9 -23t9 -23q10 -9 23 -9t23 9v0zM295 149l109 -109l-109 109l109 -109l45 45v0l-52 52v0l67 67v0l52 -52v0l45 45v0l-74 75v0v0v0v0v0l-35 34v0q-20 20 -47 26l-108 24v0
q-9 2 -16 9l-98 99v0q-10 9 -23 9t-23 -9q-9 -10 -9 -23t9 -23l99 -98v0q7 -7 9 -16l24 -108v0q6 -27 25 -47h1zM340 195q-7 6 -9 15l-17 77v0l77 -17v0q9 -2 16 -9l12 -12v0l-67 -67v0l-12 13v0zM169 -30q10 -9 23 -9v0v0q13 0 23 9q9 10 9 23t-9 23l-2 1v0l84 84v0l-25 26
v0q-10 10 -18 22l-86 -87v0l-67 67v0l123 122v0l-10 46v0l-17 17v0q-5 -4 -9 -8l-132 -132v0l-1 2v0q-10 9 -23 9t-23 -9q-9 -10 -9 -23t9 -23l160 -160v0zM412 364q14 -4 27 -10l64 64v0q9 10 9 23t-9 23q-10 9 -23 9t-23 -9l-90 -90v0l45 -10v0z" />
</svg>
