<?xml version="1.0" standalone="no"?>
<!DOCTYPE svg PUBLIC "-//W3C//DTD SVG 1.1//EN" "http://www.w3.org/Graphics/SVG/1.1/DTD/svg11.dtd" >
<svg xmlns="http://www.w3.org/2000/svg" xmlns:xlink="http://www.w3.org/1999/xlink" version="1.1" viewBox="-10 -40 532 512">
   <path fill="currentColor"
d="M236 22l-9 15l9 -15l-9 15q-17 24 -42 35q-26 11 -55 7l-60 -10v0q-28 -4 -49 13q-20 17 -21 46q0 25 18 43l29 29v0q17 17 17 41q0 25 -18 42l-13 13v0q-17 17 -17 41q1 29 22 45q20 17 48 11l62 -13v0q12 -3 24 -3h10v0q42 0 75 26l31 25v0q16 13 37 13q25 -1 42 -17
q16 -17 17 -42v-25v0q0 -27 15 -48q14 -21 39 -31l37 -15v0q35 -15 37 -54q0 -21 -13 -37q-14 -16 -35 -20l-28 -5v0q-27 -6 -47 -25q-20 -18 -26 -46l-7 -31v0q-6 -23 -24 -38q-17 -14 -41 -14q-34 1 -55 29v0zM160 153q14 0 23 9v0v0q9 9 9 23t-9 23t-23 9t-23 -9t-9 -23
t9 -23t23 -9v0zM288 169q1 -15 16 -16q15 1 16 16q-1 15 -16 16q-15 -1 -16 -16v0zM288 249q14 0 23 9v0v0q9 9 9 23t-9 23t-23 9t-23 -9t-9 -23t9 -23t23 -9v0z" />
</svg>
