<?xml version="1.0" standalone="no"?>
<!DOCTYPE svg PUBLIC "-//W3C//DTD SVG 1.1//EN" "http://www.w3.org/Graphics/SVG/1.1/DTD/svg11.dtd" >
<svg xmlns="http://www.w3.org/2000/svg" xmlns:xlink="http://www.w3.org/1999/xlink" version="1.1" viewBox="-11 0 534 512">
   <path fill="currentColor"
d="M284 0q24 25 62 46v0v0q37 22 70 31q42 11 71 48q31 44 24 95q-8 50 -51 84q-27 20 -58 24q-29 4 -59 22q-29 18 -44 43q-36 58 -98 75q-61 16 -121 -16q-58 -36 -75 -97q-16 -62 16 -122q19 -33 30 -75q10 -42 14 -80q3 -46 38 -81q40 -37 92 -36q51 1 89 39v0zM336 201
q0 -30 -15 -56v0v0q-15 -26 -41 -41t-56 -15t-56 15t-41 41t-15 56t15 56t41 41t56 15t56 -15t41 -41t15 -56v0zM176 193q-1 15 -16 16q-15 -1 -16 -16q1 -31 21 -51t51 -21q15 1 16 16q-1 15 -16 16q-17 0 -28 12q-12 11 -12 28v0z" />
</svg>
