<?xml version="1.0" standalone="no"?>
<!DOCTYPE svg PUBLIC "-//W3C//DTD SVG 1.1//EN" "http://www.w3.org/Graphics/SVG/1.1/DTD/svg11.dtd" >
<svg xmlns="http://www.w3.org/2000/svg" xmlns:xlink="http://www.w3.org/1999/xlink" version="1.1" viewBox="-10 -40 532 512">
   <path fill="currentColor"
d="M96 5v84v-84v84q1 54 37 91q37 36 91 37v139v0q-24 -35 -62 -55q-37 -20 -82 -20h-50v0q-13 0 -21 9q-9 8 -9 21q2 69 48 114q45 46 115 48h61h126q69 -2 114 -48q46 -45 48 -114q0 -13 -9 -21q-8 -9 -20 -9h-51v0q-45 0 -82 20q-38 20 -62 55v-139v0q54 -1 91 -37
q36 -37 37 -91v-84v0q-1 -11 -12 -12q-4 0 -7 2l-61 46v0l-67 -75v0q-5 -5 -12 -5h-2v0q-7 0 -12 5l-67 75v0l-61 -46v0q-3 -2 -7 -2q-11 1 -12 12v0z" />
</svg>
