<?xml version="1.0" standalone="no"?>
<!DOCTYPE svg PUBLIC "-//W3C//DTD SVG 1.1//EN" "http://www.w3.org/Graphics/SVG/1.1/DTD/svg11.dtd" >
<svg xmlns="http://www.w3.org/2000/svg" xmlns:xlink="http://www.w3.org/1999/xlink" version="1.1" viewBox="-10 -40 532 512">
   <path fill="currentColor"
d="M0 185q1 -62 31 -113v0v0q29 -50 80 -80v0v0q50 -30 113 -31h24v0q73 1 128 46t69 114q3 20 15 36l42 53v0q10 12 10 27q0 19 -13 31q-12 13 -31 13h-20v0v64v0q-1 27 -19 45t-45 19h-64v0v32v0q0 14 -9 23t-23 9h-192v0q-14 0 -23 -9t-9 -23v-73v0q-1 -25 -17 -45
q-46 -61 -47 -138v0zM285 169h51h-51h51q20 -1 34 -14q13 -14 14 -34q-1 -20 -14 -34q-14 -13 -34 -14h-3q-12 -30 -45 -32q-13 0 -23 6q-14 -21 -41 -22q-27 1 -40 22q-11 -6 -24 -6q-20 1 -34 14q-13 14 -14 34q-20 1 -34 14q-13 14 -14 34q2 33 32 45v2v1q1 20 14 34
q14 13 34 14q8 0 16 -3v19v0q0 14 9 23t23 9t23 -9t9 -23v-19v0q8 3 16 3q20 -1 34 -14q13 -14 14 -34q0 -8 -3 -16v0zM160 137v3v-3v3v0v0v-2v-1v0z" />
</svg>
