<?xml version="1.0" standalone="no"?>
<!DOCTYPE svg PUBLIC "-//W3C//DTD SVG 1.1//EN" "http://www.w3.org/Graphics/SVG/1.1/DTD/svg11.dtd" >
<svg xmlns="http://www.w3.org/2000/svg" xmlns:xlink="http://www.w3.org/1999/xlink" version="1.1" viewBox="-10 -40 458 512">
   <path fill="currentColor"
d="M367 121q1 -8 1 -16q-2 -61 -42 -102q-41 -40 -102 -42q-61 2 -102 42q-40 41 -42 102q0 8 1 16h-1v0q-20 1 -34 14q-13 14 -14 34q1 20 14 34q14 13 34 14h54h234q20 -1 34 -14q13 -14 14 -34q-1 -20 -14 -34q-14 -13 -34 -14h-1v0zM96 249l105 210l-105 -210l105 210
q7 13 23 14q16 -1 23 -14l105 -210v0h-256v0z" />
</svg>
