<?xml version="1.0" standalone="no"?>
<!DOCTYPE svg PUBLIC "-//W3C//DTD SVG 1.1//EN" "http://www.w3.org/Graphics/SVG/1.1/DTD/svg11.dtd" >
<svg xmlns="http://www.w3.org/2000/svg" xmlns:xlink="http://www.w3.org/1999/xlink" version="1.1" viewBox="-10 -40 532 512">
   <path fill="currentColor"
d="M244 -19q32 -30 87 -15v0v0q56 14 110 67q52 53 66 109q15 55 -15 87l-40 41v0q-37 36 -83 55q-47 20 -98 20h-58v0q-11 0 -19 8q-14 18 -5 41q3 9 3 19q-1 25 -18 42t-42 18q-26 -1 -43 -18q-16 -17 -17 -42q-1 -11 -12 -12q-26 -1 -43 -18q-16 -17 -17 -42
q1 -25 17 -42q17 -17 43 -18q10 0 19 3q23 9 41 -5q8 -8 8 -19v-58v0q0 -51 19 -98q20 -46 56 -83l41 -40v0zM308 165q38 38 78 49v0v0q41 10 64 -11q21 -23 11 -64q-11 -40 -49 -78t-78 -49q-41 -10 -64 11q-21 23 -11 64q11 40 49 78v0zM344 129q-12 -12 -15 -24v0v0
q-3 -13 3 -20q8 -6 20 -3t24 15t15 24t-3 20q-7 6 -20 3q-12 -3 -24 -15v0z" />
</svg>
