<?xml version="1.0" standalone="no"?>
<!DOCTYPE svg PUBLIC "-//W3C//DTD SVG 1.1//EN" "http://www.w3.org/Graphics/SVG/1.1/DTD/svg11.dtd" >
<svg xmlns="http://www.w3.org/2000/svg" xmlns:xlink="http://www.w3.org/1999/xlink" version="1.1" viewBox="-10 -40 532 512">
   <path fill="currentColor"
d="M170 -38q-18 -1 -31 9v0v0q-12 10 -17 26l-12 44v0h1h1q89 1 161 44q73 42 115 115q43 72 44 161v1v1l44 -12v0q16 -5 26 -17q10 -13 9 -31q-7 -92 -53 -167q-47 -74 -121 -121q-75 -46 -167 -53v0zM400 371v-10q-1 -80 -39 -145q-39 -65 -104 -104q-65 -38 -145 -39h-10
v0l-101 380v0q-3 9 4 15q6 6 15 4l380 -101v0zM176 169q14 0 23 9v0v0q9 9 9 23t-9 23t-23 9t-23 -9t-9 -23t9 -23t23 -9v0zM240 297q0 -14 9 -23v0v0q9 -9 23 -9t23 9t9 23t-9 23t-23 9t-23 -9t-9 -23v0zM96 345q0 -14 9 -23v0v0q9 -9 23 -9t23 9t9 23t-9 23t-23 9t-23 -9
t-9 -23v0z" />
</svg>
