<?xml version="1.0" standalone="no"?>
<!DOCTYPE svg PUBLIC "-//W3C//DTD SVG 1.1//EN" "http://www.w3.org/Graphics/SVG/1.1/DTD/svg11.dtd" >
<svg xmlns="http://www.w3.org/2000/svg" xmlns:xlink="http://www.w3.org/1999/xlink" version="1.1" viewBox="-10 -40 532 512">
   <path fill="currentColor"
d="M114 -30q4 -9 14 -9h96v0q10 0 14 9l16 32v0q4 7 0 14l-24 49v0q54 18 87 63q34 45 35 105q0 40 -16 73q-16 34 -43 59q-29 -19 -36 -55q30 -31 31 -77q0 -18 -5 -34q-27 14 -43 40t-16 58q1 48 33 79q31 32 79 33q48 -1 79 -33q32 -31 33 -79q0 -35 -19 -62
q-18 -28 -49 -41q-7 -39 -28 -72q69 7 114 56q44 48 46 119q-2 75 -52 124q-49 50 -124 52q-42 0 -77 -18q-35 -17 -60 -47q-11 1 -23 1q-75 -2 -124 -52q-50 -49 -52 -124q1 -60 35 -105q33 -45 87 -63l-24 -49v0q-4 -7 0 -14l16 -32v0zM176 121q-48 1 -79 33v0v0
q-32 31 -33 79q1 45 30 76q28 31 73 36q-7 -23 -7 -48q1 -49 24 -88q23 -40 62 -63q-29 -24 -70 -25v0z" />
</svg>
