<?xml version="1.0" standalone="no"?>
<!DOCTYPE svg PUBLIC "-//W3C//DTD SVG 1.1//EN" "http://www.w3.org/Graphics/SVG/1.1/DTD/svg11.dtd" >
<svg xmlns="http://www.w3.org/2000/svg" xmlns:xlink="http://www.w3.org/1999/xlink" version="1.1" viewBox="-10 -40 532 512">
   <path fill="currentColor"
d="M320 121q1 -32 18 -56v0v0q18 -24 47 -35l-16 -42v0q-1 -3 -1 -7q2 -18 20 -20h56v0q18 2 20 20q0 4 -1 7l-15 42v0q28 11 46 35q17 24 18 56q-1 98 -48 178q-47 79 -126 126q-80 47 -178 48q-32 -1 -56 -18q-24 -18 -35 -46l-42 15v0q-3 1 -7 1q-18 -2 -20 -20v-56v0
q2 -18 20 -20q4 0 7 1l42 15v0q11 -28 35 -46q24 -17 56 -18q68 -2 113 -47t47 -113v0zM400 121q-1 -15 -16 -16q-15 1 -16 16q-2 88 -61 147t-147 61q-15 1 -16 16q1 15 16 16q67 -1 121 -33t86 -86t33 -121v0z" />
</svg>
