<?xml version="1.0" standalone="no"?>
<!DOCTYPE svg PUBLIC "-//W3C//DTD SVG 1.1//EN" "http://www.w3.org/Graphics/SVG/1.1/DTD/svg11.dtd" >
<svg xmlns="http://www.w3.org/2000/svg" xmlns:xlink="http://www.w3.org/1999/xlink" version="1.1" viewBox="-10 -40 595 512">
   <path fill="currentColor"
d="M103 52l30 51l-30 -51l30 51q-3 3 -6 5l-6 6q-51 55 -53 107q-2 53 21 84q9 11 21 1l138 -138v0q7 16 10 47q4 35 -3 88q-7 54 -30 129q-4 15 5 28q10 13 26 13h64v0q26 -2 32 -28q9 -75 0 -151t-32 -141h127v0q4 0 7 -4l19 -33v0q7 -7 14 0l20 33v0q2 4 6 4h47v0
q15 -1 14 -16q-6 -38 -45 -74q-38 -35 -113 -38q-65 2 -103 30q-12 -35 -50 -64q-37 -28 -103 -30q-75 3 -113 38q-39 36 -45 74q-1 15 14 16h47v0q4 0 7 -4l19 -33v0q7 -7 14 0v0z" />
</svg>
