<?xml version="1.0" standalone="no"?>
<!DOCTYPE svg PUBLIC "-//W3C//DTD SVG 1.1//EN" "http://www.w3.org/Graphics/SVG/1.1/DTD/svg11.dtd" >
<svg xmlns="http://www.w3.org/2000/svg" xmlns:xlink="http://www.w3.org/1999/xlink" version="1.1" viewBox="-10 -40 660 512">
   <path fill="currentColor"
d="M96 89q0 -35 17 -64v0v0q17 -29 47 -47q30 -17 64 -17t64 17q30 18 47 47t17 64t-17 64t-47 47q-30 17 -64 17t-64 -17q-30 -18 -47 -47t-17 -64v0zM0 443q1 -62 36 -107v0v0q35 -46 92 -64v59v0q-18 6 -29 20q-11 15 -11 34q1 24 16 40q16 15 40 16q24 -1 40 -16
q15 -16 16 -40q0 -19 -11 -34q-11 -14 -29 -20v-65v0q9 -1 18 -1h92v0q9 0 18 1v57v0q-21 6 -34 22q-14 17 -14 40v40v0q1 15 16 16h16v0q15 -1 16 -16q-1 -15 -16 -16v-24v0q0 -14 9 -23t23 -9t23 9t9 23v24v0q-15 1 -16 16q1 15 16 16h16v0q15 -1 16 -16v-40v0
q0 -23 -14 -40q-13 -16 -34 -22v-51v0q57 18 92 64q35 45 36 107q0 13 -9 21q-8 9 -21 9h-388v0q-13 0 -21 -9q-9 -8 -9 -21v0zM120 385q2 -22 24 -24q22 2 24 24q-2 22 -24 24q-22 -2 -24 -24v0zM432 -39h160h-160h160q20 1 34 14q13 14 14 34v128v0q-1 20 -14 34
q-14 13 -34 14h-48v0l-83 62v0q-4 3 -9 1q-4 -2 -4 -7v-56v0h-16v0q-20 -1 -34 -14q-13 -14 -14 -34v-128v0q1 -20 14 -34q14 -13 34 -14v0z" />
</svg>
