<?xml version="1.0" standalone="no"?>
<!DOCTYPE svg PUBLIC "-//W3C//DTD SVG 1.1//EN" "http://www.w3.org/Graphics/SVG/1.1/DTD/svg11.dtd" >
<svg xmlns="http://www.w3.org/2000/svg" xmlns:xlink="http://www.w3.org/1999/xlink" version="1.1" viewBox="-10 -40 660 512">
   <path fill="currentColor"
d="M144 121q45 -1 69 -40q22 -40 0 -80q-24 -39 -69 -40q-45 1 -69 40q-22 40 0 80q24 39 69 40v0zM512 121q45 -1 69 -40q22 -40 0 -80q-24 -39 -69 -40q-45 1 -69 40q-22 40 0 80q24 39 69 40v0zM0 260q2 19 21 21h214v0v0v0q-41 -37 -43 -96q0 -11 2 -22q-21 -10 -45 -10
h-42v0q-46 1 -76 31t-31 76v0zM405 281h78h-78h78q12 -30 45 -32h32v0q33 2 45 32h14v0q19 -2 21 -21q-1 -46 -31 -76t-76 -31h-42v0q-24 0 -45 10q2 11 2 22q-2 59 -43 96v0v0v0zM416 361q1 -23 17 -36q-25 -12 -54 -12h-118v0q-56 1 -94 39t-39 94q2 25 27 27h328v0
q-3 -8 -3 -16v-16v0h-16v0q-20 -1 -34 -14q-13 -14 -14 -34v-32v0zM416 185q0 -26 -13 -48v0v0q-13 -22 -35 -35q-23 -13 -48 -13t-48 13q-22 13 -35 35t-13 48t13 48t35 35q23 13 48 13t48 -13q22 -13 35 -35t13 -48v0zM512 297v48v-48v48h-48v0q-15 1 -16 16v32v0
q1 15 16 16h48v0v48v0q1 15 16 16h32v0q15 -1 16 -16v-48v0h48v0q15 -1 16 -16v-32v0q-1 -15 -16 -16h-48v0v-48v0q-1 -15 -16 -16h-32v0q-15 1 -16 16v0z" />
</svg>
