<?xml version="1.0" standalone="no"?>
<!DOCTYPE svg PUBLIC "-//W3C//DTD SVG 1.1//EN" "http://www.w3.org/Graphics/SVG/1.1/DTD/svg11.dtd" >
<svg xmlns="http://www.w3.org/2000/svg" xmlns:xlink="http://www.w3.org/1999/xlink" version="1.1" viewBox="-10 -40 596 512">
   <path fill="currentColor"
d="M176 57v64v-64v64h96v0v-64v0q-1 -20 -14 -34q-14 -13 -34 -14q-20 1 -34 14q-13 14 -14 34v0zM128 121v-64v64v-64q1 -41 28 -68t68 -28q41 1 68 28t28 68v64v0h64v0q27 1 45 19t19 45h-208v0q-34 1 -57 23q-22 23 -23 57v160v0q0 8 2 16h-98v0q-27 -1 -45 -19t-19 -45
v-192v0q1 -27 19 -45t45 -19h64v0zM256 217h256h-256h256q27 1 45 19t19 45v128v0q-1 27 -19 45t-45 19h-256v0q-27 -1 -45 -19t-19 -45v-128v0q1 -27 19 -45t45 -19v0zM320 297q-1 -15 -16 -16q-15 1 -16 16v16v0q1 41 28 68t68 28q41 -1 68 -28t28 -68v-16v0
q-1 -15 -16 -16q-15 1 -16 16v16v0q-1 27 -19 45t-45 19q-27 -1 -45 -19t-19 -45v-16v0z" />
</svg>
