<?xml version="1.0" standalone="no"?>
<!DOCTYPE svg PUBLIC "-//W3C//DTD SVG 1.1//EN" "http://www.w3.org/Graphics/SVG/1.1/DTD/svg11.dtd" >
<svg xmlns="http://www.w3.org/2000/svg" xmlns:xlink="http://www.w3.org/1999/xlink" version="1.1" viewBox="-10 -40 660 512">
   <path fill="currentColor"
d="M448 9q-1 -27 -24 -42q-24 -12 -48 0q-23 15 -24 42q1 27 24 42q24 12 48 0q23 -15 24 -42v0zM427 121l-62 -49l62 49l-62 -49q-13 -10 -29 -10t-30 10l-83 64v0q-23 19 -21 47q1 28 26 45l60 38v0v111v0q0 14 9 23t23 9t23 -9t9 -23v-128v0q0 -17 -14 -27l-43 -28v0
l60 -49v0l41 33v0q9 7 20 7h64v0q14 0 23 -9t9 -23t-9 -23t-23 -9h-53v0zM188 128l103 -77l-103 77l103 -77q11 -10 3 -23l-15 -19v0q-17 -20 -42 -23t-47 12l-65 49v0q-11 10 -3 23l44 55v0q10 10 22 3v0zM120 217q-20 2 -24 21q-11 3 -21 9q-17 -11 -32 2l-11 11v0
q-13 15 -2 31q-6 11 -9 22q-19 4 -21 24v16v0q2 20 21 24q3 11 9 22q-11 16 2 31l11 11v0q15 13 32 2q10 6 21 9q4 19 24 21h16v0q20 -2 24 -21q11 -3 22 -9q16 11 31 -2l11 -11v0q13 -15 2 -31q6 -11 9 -22q19 -4 21 -24v-16v0q-2 -20 -21 -24q-3 -11 -9 -21q11 -17 -2 -32
l-11 -11v0q-15 -13 -32 -2q-10 -6 -21 -9q-4 -19 -24 -21h-16v0zM128 281q36 1 55 32q18 32 0 64q-19 31 -55 32q-36 -1 -55 -32q-18 -32 0 -64q19 -31 55 -32v0zM480 238q-11 3 -21 9q-17 -11 -32 2l-11 11v0q-13 15 -2 31q-6 11 -9 22q-20 4 -21 24v16v0q2 20 21 24
q3 11 9 22q-11 16 2 31l11 11v0q15 13 31 2q11 6 22 9q4 19 24 21h16v0q20 -2 24 -21q11 -3 22 -9q16 11 31 -2l11 -11v0q13 -15 2 -31q6 -11 9 -22q19 -4 21 -24v-16v0q-2 -20 -21 -24q-3 -11 -9 -21q11 -17 -2 -32l-11 -11v0q-15 -13 -31 -2q-11 -6 -22 -9q-4 -19 -24 -21
h-16v0q-20 2 -24 21v0zM448 345q1 -36 32 -55q32 -18 64 0q31 19 32 55q-1 36 -32 55q-32 18 -64 0q-31 -19 -32 -55v0z" />
</svg>
