<?xml version="1.0" standalone="no"?>
<!DOCTYPE svg PUBLIC "-//W3C//DTD SVG 1.1//EN" "http://www.w3.org/Graphics/SVG/1.1/DTD/svg11.dtd" >
<svg xmlns="http://www.w3.org/2000/svg" xmlns:xlink="http://www.w3.org/1999/xlink" version="1.1" viewBox="-10 -40 660 512">
   <path fill="currentColor"
d="M249 -39q-20 0 -34 12v0v0q-15 12 -20 31l-20 85v0h-143v0q-14 0 -23 9t-9 23t9 23t23 9h301v0q21 -12 49 -21q2 -5 2 -11q0 -14 -9 -23t-23 -9h-128v0l18 -74v0q1 -6 7 -6h31v0q22 -2 24 -24q-2 -22 -24 -24h-31v0zM40 185l20 244l-20 -244l20 244q2 19 16 31
q13 13 32 13h164v0q-15 -21 -16 -48q1 -23 17 -37q-16 -17 -17 -43q1 -28 20 -47q-19 -17 -20 -45q0 -9 4 -21q6 -16 33 -47h-253v0zM640 253q0 -4 -2 -8q-3 -11 -21 -32q-17 -22 -54 -40q-37 -19 -99 -20q-62 1 -99 20q-37 18 -54 40q-18 21 -21 32q-2 4 -2 8q0 12 8 20
t20 8h297v0q11 0 19 -8t8 -20v0zM384 201q9 0 14 8q4 8 0 16q-5 8 -14 8q-15 -2 -16 -16q1 -15 16 -16v0zM448 201q1 -15 16 -16q15 1 16 16q-1 14 -16 16q-15 -2 -16 -16v0zM544 201q9 0 14 8q4 8 0 16q-5 8 -14 8q-15 -2 -16 -16q1 -15 16 -16v0zM320 313q-14 0 -23 9v0v0
q-9 9 -9 23q0 13 9 22t23 10h288v0q14 -1 23 -10t9 -22q0 -14 -9 -23t-23 -9h-288v0zM304 409q-15 1 -16 16q1 20 14 34q14 13 34 14h256v0q20 -1 34 -14q13 -14 14 -34q-1 -15 -16 -16h-320v0z" />
</svg>
