<?xml version="1.0" standalone="no"?>
<!DOCTYPE svg PUBLIC "-//W3C//DTD SVG 1.1//EN" "http://www.w3.org/Graphics/SVG/1.1/DTD/svg11.dtd" >
<svg xmlns="http://www.w3.org/2000/svg" xmlns:xlink="http://www.w3.org/1999/xlink" version="1.1" viewBox="-10 -40 660 512">
   <path fill="currentColor"
d="M156 73q-9 -15 -28 -16q-19 1 -28 16h-76v0q-22 2 -24 24q2 22 24 24h240v0q22 -2 24 -24q-2 -22 -24 -24h-108v0zM376 73q-22 2 -24 24q2 22 24 24h240v0q22 -2 24 -24q-2 -22 -24 -24h-76v0q-9 -15 -28 -16q-19 1 -28 16h-108v0zM96 153v64v-64v64q1 20 19 29l57 25v0
q-28 34 -28 77v5v0q2 22 24 24q22 -2 24 -24v-5v0q0 -26 17 -46l8 -10v0l42 18v0q6 3 13 3h96v0q7 0 13 -3l42 -18v0l8 10v0q17 20 17 46v5v0q2 22 24 24q22 -2 24 -24v-5v0q0 -43 -27 -77l56 -25v0q18 -9 19 -29v-64v0h-64v0v43v0l-18 8v0l-40 -24v0q-48 -27 -102 -27
t-102 28l-40 23v0l-18 -8v0v-43v0h-64v0z" />
</svg>
