<?xml version="1.0" standalone="no"?>
<!DOCTYPE svg PUBLIC "-//W3C//DTD SVG 1.1//EN" "http://www.w3.org/Graphics/SVG/1.1/DTD/svg11.dtd" >
<svg xmlns="http://www.w3.org/2000/svg" xmlns:xlink="http://www.w3.org/1999/xlink" version="1.1" viewBox="-10 -40 404 512">
   <path fill="currentColor"
d="M64 -39q-27 1 -45 19v0v0q-18 18 -19 45v384v0q1 27 19 45t45 19h256v0q27 -1 45 -19t19 -45v-288v0h-128v0q-14 0 -23 -9t-9 -23v-128v0h-160v0zM256 -39v128v-128v128h128v0l-128 -128v0zM272 265q0 27 -13 49l38 38v0q14 17 0 34q-17 14 -34 0l-38 -38v0
q-22 13 -49 13q-41 -1 -68 -28t-28 -68q1 -41 28 -68t68 -28q41 1 68 28t28 68v0zM176 313q27 -1 42 -24q12 -24 0 -48q-15 -23 -42 -24q-27 1 -42 24q-12 24 0 48q15 23 42 24v0z" />
</svg>
