<?xml version="1.0" standalone="no"?>
<!DOCTYPE svg PUBLIC "-//W3C//DTD SVG 1.1//EN" "http://www.w3.org/Graphics/SVG/1.1/DTD/svg11.dtd" >
<svg xmlns="http://www.w3.org/2000/svg" xmlns:xlink="http://www.w3.org/1999/xlink" version="1.1" viewBox="-11 0 533 512">
   <path fill="currentColor"
d="M500 -32q12 10 12 25v144v0q-1 20 -19 34q-18 13 -45 14q-27 -1 -45 -14q-18 -14 -19 -34q1 -20 19 -34q18 -13 45 -14v-57v0l-96 19v0v118v0q-1 20 -19 34q-18 13 -45 14q-27 -1 -45 -14q-18 -14 -19 -34q1 -20 19 -34q18 -13 45 -14v-96v0q2 -25 26 -31l160 -32v0
q14 -3 26 6v0zM75 265l12 -18l-12 18l12 -18q9 -14 26 -14h62v0q17 0 26 14l12 18v0h27v0q20 1 34 14q13 14 14 34v112v0q-1 20 -14 34q-14 13 -34 14h-192v0q-20 -1 -34 -14q-13 -14 -14 -34v-112v0q1 -20 14 -34q14 -13 34 -14h27v0zM192 369q-1 -27 -24 -42
q-24 -12 -48 0q-23 15 -24 42q1 27 24 42q24 12 48 0q23 -15 24 -42v0zM479 239l-39 90l39 -90l-39 90h56v0q11 0 15 10q3 11 -4 18l-128 112v0q-10 8 -20 1q-10 -8 -6 -19l39 -90v0h-56v0q-11 0 -15 -10q-3 -11 4 -18l128 -112v0q10 -8 20 -1q10 8 6 19v0zM140 180
q-12 10 -23 0l-97 -100v0q-21 -23 -20 -53q1 -29 25 -51q21 -17 47 -15q27 2 46 22l10 10v0l10 -10v0q19 -20 46 -22q26 -2 48 15q23 22 24 51q1 30 -20 53l-96 100v0z" />
</svg>
