<?xml version="1.0" standalone="no"?>
<!DOCTYPE svg PUBLIC "-//W3C//DTD SVG 1.1//EN" "http://www.w3.org/Graphics/SVG/1.1/DTD/svg11.dtd" >
<svg xmlns="http://www.w3.org/2000/svg" xmlns:xlink="http://www.w3.org/1999/xlink" version="1.1" viewBox="-10 -40 660 512">
   <path fill="currentColor"
d="M0 89q1 -27 19 -45v0v0q18 -18 45 -19h448v0q27 1 45 19t19 45v65v0q-23 3 -41 20l-182 181v0q-12 13 -16 30l-6 24v0h-267v0q-27 -1 -45 -19t-19 -45v-256v0zM256 265q1 15 16 16h64v0q15 -1 16 -16q-1 -15 -16 -16h-64v0q-15 1 -16 16v0zM272 153q-15 1 -16 16
q1 15 16 16h160v0q15 -1 16 -16q-1 -15 -16 -16h-160v0zM144 93q-18 2 -20 20v14v0q-12 2 -22 9q-24 12 -26 43q3 30 25 41q18 10 35 14l2 1v0q19 5 28 10q7 5 6 9q0 7 -6 10q-8 5 -21 5q-16 -1 -36 -9q-3 -1 -7 -2q-18 -4 -25 12q-4 18 13 26l6 2v0v0v0v0q12 5 28 8v15v0
q2 18 20 20q18 -2 20 -20v-14v0q12 -2 23 -9q23 -13 25 -45q-3 -30 -25 -41q-18 -11 -37 -15l-1 -1v0q-18 -5 -28 -10q-6 -4 -5 -7q-1 -5 6 -9q9 -5 22 -5q14 0 31 5q18 3 24 -14q3 -18 -14 -25q-10 -2 -21 -4v-14v0q-2 -18 -20 -20v0zM614 197l14 14l-14 -14l14 14
q12 12 12 28t-12 29l-29 29v0l-71 -71v0l29 -29v0q13 -12 28 -12q16 0 29 12v0zM376 378l129 -129l-129 129l129 -129l71 71v0l-129 129v0q-6 6 -15 8l-60 15v0q-9 2 -15 -4t-5 -15l15 -60v0q3 -9 9 -15v0z" />
</svg>
