<?xml version="1.0" standalone="no"?>
<!DOCTYPE svg PUBLIC "-//W3C//DTD SVG 1.1//EN" "http://www.w3.org/Graphics/SVG/1.1/DTD/svg11.dtd" >
<svg xmlns="http://www.w3.org/2000/svg" xmlns:xlink="http://www.w3.org/1999/xlink" version="1.1" viewBox="-10 -40 596 512">
   <path fill="currentColor"
d="M144 25v51v-51v51q0 13 -9 22l-30 30v0q-9 9 -9 22v67v0q0 14 9 23t23 9h64v0q14 0 23 -9t9 -23v-67v0q0 -13 -9 -22l-30 -30v0q-9 -9 -9 -22v-51v0h208h64q54 1 91 37q36 37 37 91q-1 54 -37 91q-37 36 -91 37h-32v0v32v0q-1 41 -28 68t-68 28h-192v0q-41 -1 -68 -28
t-28 -68v-256v0q0 -14 9 -23t23 -9h80v0zM416 217h32h-32h32q27 -1 45 -19t19 -45q-1 -27 -19 -45t-45 -19h-32v0v128v0z" />
</svg>
