<?xml version="1.0" standalone="no"?>
<!DOCTYPE svg PUBLIC "-//W3C//DTD SVG 1.1//EN" "http://www.w3.org/Graphics/SVG/1.1/DTD/svg11.dtd" >
<svg xmlns="http://www.w3.org/2000/svg" xmlns:xlink="http://www.w3.org/1999/xlink" version="1.1" viewBox="-10 -40 532 512">
   <path fill="currentColor"
d="M347 -14q6 -15 19 -21v0v0q14 -6 29 -3l88 24v0q27 10 29 39q-1 125 -61 226t-161 161t-226 61q-29 -2 -39 -29l-24 -88v0q-3 -15 3 -29q6 -13 21 -19l96 -40v0q27 -9 46 12l40 49v0q53 -25 95 -66q41 -42 66 -95l-49 -40v0q-21 -19 -12 -46l40 -96v0z" />
</svg>
