<?xml version="1.0" standalone="no"?>
<!DOCTYPE svg PUBLIC "-//W3C//DTD SVG 1.1//EN" "http://www.w3.org/Graphics/SVG/1.1/DTD/svg11.dtd" >
<svg xmlns="http://www.w3.org/2000/svg" xmlns:xlink="http://www.w3.org/1999/xlink" version="1.1" viewBox="-10 -40 660 512">
   <path fill="currentColor"
d="M128 -39q-27 1 -45 19v0v0q-18 18 -19 45v224v0h-45v0q-17 2 -19 19q1 33 23 55q21 21 54 22h275v0v-96v0h-224v0v-224v0h320v0v32v0h64v0v-32v0q-1 -27 -19 -45t-45 -19h-320v0zM448 409v-256v256v-256h128v0v256v0h-128v0zM384 137v288v-288v288q1 20 14 34
q14 13 34 14h160v0q20 -1 34 -14q13 -14 14 -34v-288v0q-1 -20 -14 -34q-14 -13 -34 -14h-160v0q-20 1 -34 14q-13 14 -14 34v0z" />
</svg>
