<?xml version="1.0" standalone="no"?>
<!DOCTYPE svg PUBLIC "-//W3C//DTD SVG 1.1//EN" "http://www.w3.org/Graphics/SVG/1.1/DTD/svg11.dtd" >
<svg xmlns="http://www.w3.org/2000/svg" xmlns:xlink="http://www.w3.org/1999/xlink" version="1.1" viewBox="-10 -40 468 512">
   <path fill="currentColor"
d="M384 -7q27 1 45 19v0v0q18 18 19 45v320v0q-1 27 -19 45t-45 19h-320v0q-27 -1 -45 -19t-19 -45v-320v0q1 -27 19 -45t45 -19h320v0zM293 90q-16 -3 -23 11l-20 48v0q-5 14 5 24l25 20v0q-26 54 -80 80l-20 -25v0q-10 -10 -24 -5l-48 20v0q-14 7 -11 23l12 44v0
q4 14 19 15q63 -1 113 -31q51 -29 80 -80q30 -50 31 -113q-1 -15 -15 -19l-44 -12v0z" />
</svg>
