<?xml version="1.0" standalone="no"?>
<!DOCTYPE svg PUBLIC "-//W3C//DTD SVG 1.1//EN" "http://www.w3.org/Graphics/SVG/1.1/DTD/svg11.dtd" >
<svg xmlns="http://www.w3.org/2000/svg" xmlns:xlink="http://www.w3.org/1999/xlink" version="1.1" viewBox="-10 -40 468 512">
   <path fill="currentColor"
d="M64 57v32v-32v32q0 14 -9 23t-23 9t-23 -9t-9 -23v-48v0q1 -20 14 -34q14 -13 34 -14h176h176q20 1 34 14q13 14 14 34v48v0q0 14 -9 23t-23 9t-23 -9t-9 -23v-32v0h-128v0v320v0h48v0q14 0 23 9t9 23t-9 23t-23 9h-160v0q-14 0 -23 -9t-9 -23t9 -23t23 -9h48v0v-320v0
h-128v0z" />
</svg>
