<?xml version="1.0" standalone="no"?>
<!DOCTYPE svg PUBLIC "-//W3C//DTD SVG 1.1//EN" "http://www.w3.org/Graphics/SVG/1.1/DTD/svg11.dtd" >
<svg xmlns="http://www.w3.org/2000/svg" xmlns:xlink="http://www.w3.org/1999/xlink" version="1.1" viewBox="-10 -40 532 512">
   <path fill="currentColor"
d="M465 -32q-17 -14 -34 0l-48 48v0q-4 4 -5 9l-16 41v0l-76 76v0q-31 -22 -70 -27v-2v0q-2 -22 -24 -24q-22 2 -24 24v2v0q-43 6 -77 31l-1 -1v0q-17 -14 -34 0q-14 17 0 34l2 1v0q-26 34 -32 77h-2v0q-22 2 -24 24q2 22 24 24h2v0q6 43 31 77l-1 1v0q-14 17 0 34
q17 14 34 0l1 -1v0q34 25 77 31v2v0q2 22 24 24q22 -2 24 -24v-2v0q43 -6 77 -31l1 1v0q17 14 34 0q14 -17 0 -34l-2 -1v0q26 -34 32 -77h2v0q22 -2 24 -24q-2 -22 -24 -24h-2v0q-6 -39 -27 -70l76 -76v0l41 -15v0q5 -2 9 -6l48 -48v0q14 -17 0 -34l-40 -40v0zM192 169
q30 0 56 15v0v0q26 15 41 41t15 56t-15 56t-41 41t-56 15t-56 -15t-41 -41t-15 -56t15 -56t41 -41t56 -15v0zM155 270q-11 -10 -22 0q-10 11 0 22l48 48v0q11 10 22 0q10 -11 0 -22l-48 -48v0z" />
</svg>
