<?xml version="1.0" standalone="no"?>
<!DOCTYPE svg PUBLIC "-//W3C//DTD SVG 1.1//EN" "http://www.w3.org/Graphics/SVG/1.1/DTD/svg11.dtd" >
<svg xmlns="http://www.w3.org/2000/svg" xmlns:xlink="http://www.w3.org/1999/xlink" version="1.1" viewBox="-11 0 597 512">
   <path fill="currentColor"
d="M140 -36q-25 -9 -40 13l-96 168v0q-7 13 -2 26q5 14 18 20l158 66v0l-40 104v0h-74v0v-16v0q0 -14 -9 -23t-23 -9t-23 9t-9 23v48v0v48v0q0 14 9 23t23 9t23 -9t9 -23v-16v0h96v0q21 -1 30 -21l47 -123v0l71 30v0q16 6 30 -3l192 -128v0q15 -11 14 -30q-2 -19 -20 -27
l-384 -160v1zM513 360q7 2 13 0q6 -3 9 -9l40 -96v0q4 -14 -8 -21l-37 -16v0l-133 89v0l116 53v0z" />
</svg>
