<?xml version="1.0" standalone="no"?>
<!DOCTYPE svg PUBLIC "-//W3C//DTD SVG 1.1//EN" "http://www.w3.org/Graphics/SVG/1.1/DTD/svg11.dtd" >
<svg xmlns="http://www.w3.org/2000/svg" xmlns:xlink="http://www.w3.org/1999/xlink" version="1.1" viewBox="-10 -40 532 512">
   <path fill="currentColor"
d="M0 25q1 -27 19 -45v0v0q18 -18 45 -19h384v0q27 1 45 19t19 45v288v0q-1 27 -19 45t-45 19h-139v0l-123 93v0q-8 5 -17 1t-9 -14v-80v0h-96v0q-27 -1 -45 -19t-19 -45v-288v0zM352 57q0 -8 -7 -13t-15 -2l-128 48v0q-9 4 -10 15v32v0v82v0q-8 -2 -16 -2q-20 0 -34 9
q-13 9 -14 23q1 14 14 23q14 9 34 9t34 -9q13 -9 14 -23v-101v0l96 -36v0v75v0q-8 -2 -16 -2q-20 0 -34 9q-13 9 -14 23q1 14 14 23q14 9 34 9t34 -9q13 -9 14 -23v-128v0v-32v0z" />
</svg>
