<?xml version="1.0" standalone="no"?>
<!DOCTYPE svg PUBLIC "-//W3C//DTD SVG 1.1//EN" "http://www.w3.org/Graphics/SVG/1.1/DTD/svg11.dtd" >
<svg xmlns="http://www.w3.org/2000/svg" xmlns:xlink="http://www.w3.org/1999/xlink" version="1.1" viewBox="-10 -40 532 512">
   <path fill="currentColor"
d="M256 409q72 -1 129 -28v0v0q58 -28 92 -75v0v0q34 -47 35 -105q-1 -58 -35 -105t-92 -75q-57 -27 -129 -28q-72 1 -129 28q-58 28 -92 75t-35 105q1 69 48 121q-5 37 -22 63q-8 14 -15 21q-3 4 -5 6q0 1 -1 1v1v0v0v0v0v0v0v0v0v0v0q-7 7 -4 17q5 10 15 10q44 -2 82 -19
q35 -16 54 -31q48 18 104 18v0zM352 89v32v-32v32v128v0q-1 14 -14 23q-14 9 -34 9t-34 -9q-13 -9 -14 -23q1 -14 14 -23q14 -9 34 -9q8 0 16 2v-75v0l-96 36v0v101v0q-1 14 -14 23q-14 9 -34 9t-34 -9q-13 -9 -14 -23q1 -14 14 -23q14 -9 34 -9q8 0 16 2v-82v0v-32v0
q0 -11 10 -15l128 -48v0q8 -3 15 2t7 13v0z" />
</svg>
