<?xml version="1.0" standalone="no"?>
<!DOCTYPE svg PUBLIC "-//W3C//DTD SVG 1.1//EN" "http://www.w3.org/Graphics/SVG/1.1/DTD/svg11.dtd" >
<svg xmlns="http://www.w3.org/2000/svg" xmlns:xlink="http://www.w3.org/1999/xlink" version="1.1" viewBox="-10 -40 660 512">
   <path fill="currentColor"
d="M288 393v-16v16v-16h-160v0q-14 0 -23 9t-9 23t9 23t23 9h176v0q-15 -21 -16 -48v0zM64 -7q-27 1 -45 19v0v0q-18 18 -19 45v224v0q1 27 19 45t45 19h224v0v-64v0h-224v0v-224v0h224v0v-16v0q1 -27 16 -48h-240v0zM368 -7q-20 1 -34 14v0v0q-13 14 -14 34v352v0
q1 20 14 34q14 13 34 14h224v0q20 -1 34 -14q13 -14 14 -34v-352v0q-1 -20 -14 -34q-14 -13 -34 -14h-224v0zM544 281q-1 -36 -32 -55q-32 -18 -64 0q-31 19 -32 55q1 36 32 55q32 18 64 0q31 -19 32 -55v0zM384 281q0 -26 13 -48v0v0q13 -22 35 -35q23 -13 48 -13t48 13
q22 13 35 35t13 48t-13 48t-35 35q-23 13 -48 13t-48 -13q-22 -13 -35 -35t-13 -48v0zM448 89q0 -14 9 -23v0v0q9 -9 23 -9t23 9t9 23t-9 23t-23 9t-23 -9t-9 -23v0z" />
</svg>
