<?xml version="1.0" standalone="no"?>
<!DOCTYPE svg PUBLIC "-//W3C//DTD SVG 1.1//EN" "http://www.w3.org/Graphics/SVG/1.1/DTD/svg11.dtd" >
<svg xmlns="http://www.w3.org/2000/svg" xmlns:xlink="http://www.w3.org/1999/xlink" version="1.1" viewBox="-10 -40 596 512">
   <path fill="currentColor"
d="M112 57h16h-16h16v-56v0q0 -17 12 -28q11 -12 28 -12h112v0q17 0 28 12q12 11 12 28v56v0h16v0q16 0 29 10q12 9 17 25l19 64v0q-63 12 -104 60q-40 47 -41 113q0 25 7 48h-215v0q-24 -1 -38 -19q-14 -19 -8 -42l64 -224v0q5 -16 17 -25q13 -10 29 -10v0zM286 427
q-7 20 -23 33v0v0q-17 13 -39 13q-27 -1 -45 -19t-19 -45h115v0q5 9 11 18v0zM272 57v-48v48v-48h-96v0v48v0h96v0zM432 185q39 0 72 19v0v0q33 19 53 53q19 34 19 72t-19 72q-20 34 -53 53t-72 19t-72 -19t-53 -53q-19 -34 -19 -72t19 -72q20 -34 53 -53t72 -19v0zM448 265
q-1 -15 -16 -16q-15 1 -16 16v48v0h-48v0q-15 1 -16 16q1 15 16 16h48v0v48v0q1 15 16 16q15 -1 16 -16v-48v0h48v0q15 -1 16 -16q-1 -15 -16 -16h-48v0v-48v0z" />
</svg>
