<?xml version="1.0" standalone="no"?>
<!DOCTYPE svg PUBLIC "-//W3C//DTD SVG 1.1//EN" "http://www.w3.org/Graphics/SVG/1.1/DTD/svg11.dtd" >
<svg xmlns="http://www.w3.org/2000/svg" xmlns:xlink="http://www.w3.org/1999/xlink" version="1.1" viewBox="-10 -40 404 512">
   <path fill="currentColor"
d="M127 -39q17 0 24 16v0v0v1v0q0 1 1 3q2 4 6 13q9 17 28 45q20 28 55 59t87 58q26 13 40 40q8 17 8 35v0v0v1v0q-1 34 -24 57t-57 24h-111v0q-22 -2 -24 -24q2 -22 24 -24h110v0q14 0 24 -10q10 -9 10 -24q0 -8 -4 -15q-5 -8 -12 -9q-34 -8 -97 3t-145 66q0 1 -1 1
q-4 3 -9 4q-4 1 -10 -1q-1 0 -3 -1v0h-1h-1l-2 -2q-2 -1 -3 -2q-2 -2 -4 -5q-3 -4 -4 -9q0 -4 1 -9v-1v0l72 -272v0q5 -16 22 -18v0zM32 377q0 -14 9 -23v0v0q9 -9 23 -9h256v0q14 0 23 9t9 23v32v0q14 0 23 9t9 23t-9 23t-23 9h-320v0q-14 0 -23 -9t-9 -23t9 -23t23 -9v-32
v0z" />
</svg>
