<?xml version="1.0" standalone="no"?>
<!DOCTYPE svg PUBLIC "-//W3C//DTD SVG 1.1//EN" "http://www.w3.org/Graphics/SVG/1.1/DTD/svg11.dtd" >
<svg xmlns="http://www.w3.org/2000/svg" xmlns:xlink="http://www.w3.org/1999/xlink" version="1.1" viewBox="-10 -40 532 512">
   <path fill="currentColor"
d="M352 42v34v-34v34l-108 108v0q-10 -20 -7 -37t10 -28q8 -13 -2 -25q-11 -10 -23 0l-30 30v0q-13 15 -20 33v1v0v0v0v0l-2 2q-1 3 -2 5q-5 12 -17 24q-19 19 -45 31q-25 11 -45 17q-22 6 -38 22q-23 24 -23 55t23 55l80 81v0q23 23 54 23t54 -23q16 -16 23 -39
q5 -20 17 -45q11 -26 30 -46q15 -14 28 -19h1v0v0v0q18 -6 32 -18l21 -22v0q10 -12 0 -24q-11 -9 -25 -3q-18 10 -49 -5l172 -172v0h3v0q20 -1 34 -14q13 -14 14 -34q-1 -20 -14 -34q-14 -13 -34 -14h-1v0q-15 0 -27 8l-70 47v0q-14 9 -14 26v0zM195 230l48 48l-48 -48
l48 48q10 11 0 22q-11 10 -22 0l-48 -48v0q-10 -11 0 -22q11 -10 22 0v0zM131 294l48 48l-48 -48l48 48q10 11 0 22q-11 10 -22 0l-48 -48v0q-10 -11 0 -22q11 -10 22 0v0z" />
</svg>
