<?xml version="1.0" standalone="no"?>
<!DOCTYPE svg PUBLIC "-//W3C//DTD SVG 1.1//EN" "http://www.w3.org/Graphics/SVG/1.1/DTD/svg11.dtd" >
<svg xmlns="http://www.w3.org/2000/svg" xmlns:xlink="http://www.w3.org/1999/xlink" version="1.1" viewBox="-10 -40 660 512">
   <path fill="currentColor"
d="M153 97l-11 57l11 -57l-11 57q10 -1 21 -1h11v0q60 0 110 35l278 195v0l36 24v0q18 -4 30 -19t12 -35q-1 -38 -26 -67t-56 -49t-53 -29l-31 -163v0q-5 -23 -22 -37q-17 -15 -41 -15h-3v0q-8 0 -16 2l-193 52v0q-38 11 -46 50v0zM0 345q1 27 19 45v0v0q18 18 45 19h480v0
l-279 -195v0q-41 -29 -92 -29h-10v0q-46 0 -84 24q-38 23 -59 64l-6 13v0q-14 27 -14 57v2v0z" />
</svg>
