<?xml version="1.0" standalone="no"?>
<!DOCTYPE svg PUBLIC "-//W3C//DTD SVG 1.1//EN" "http://www.w3.org/Graphics/SVG/1.1/DTD/svg11.dtd" >
<svg xmlns="http://www.w3.org/2000/svg" xmlns:xlink="http://www.w3.org/1999/xlink" version="1.1" viewBox="-10 -40 532 512">
   <path fill="currentColor"
d="M160 48v-78v78v-78q-71 22 -115 80t-45 135q1 77 47 138q16 20 17 45v73v0q0 14 9 23t23 9h192v0q14 0 23 -9t9 -23v-32v0h64v0q27 -1 45 -19t19 -45v-64v0h20v0q19 0 31 -13q13 -12 13 -31q0 -15 -10 -27l-42 -53v0q-12 -16 -15 -36q-13 -67 -66 -112q-52 -44 -123 -48
v87v0q1 19 17 30q45 33 47 91q-1 48 -33 79q-31 32 -79 33q-48 -1 -79 -33q-32 -31 -33 -79q2 -58 47 -91q16 -11 17 -30v0zM176 169q0 -14 9 -23v0v0q9 -9 23 -9t23 9t9 23t-9 23t-23 9t-23 -9t-9 -23v0zM272 169q-1 -36 -32 -55q-32 -18 -64 0q-31 19 -32 55q1 36 32 55
q32 18 64 0q31 -19 32 -55v0z" />
</svg>
