<?xml version="1.0" standalone="no"?>
<!DOCTYPE svg PUBLIC "-//W3C//DTD SVG 1.1//EN" "http://www.w3.org/Graphics/SVG/1.1/DTD/svg11.dtd" >
<svg xmlns="http://www.w3.org/2000/svg" xmlns:xlink="http://www.w3.org/1999/xlink" version="1.1" viewBox="-10 -40 404 512">
   <path fill="currentColor"
d="M0 25q1 -27 19 -45v0v0q18 -18 45 -19h256v0q27 1 45 19t19 45v384v0q-1 27 -19 45t-45 19h-256v0q-27 -1 -45 -19t-19 -45v-384v0zM192 281q14 0 23 9v0v0q9 9 9 23t-9 23t-23 9t-23 -9t-9 -23t9 -23t23 -9v0zM192 409q26 0 48 -13v0v0q22 -13 35 -35q13 -23 13 -48
t-13 -48q-13 -22 -35 -35t-48 -13t-48 13t-35 35q-13 23 -13 48t13 48q13 22 35 35t48 13v0zM96 25q-14 0 -23 9v0v0q-9 9 -9 23v64v0q0 14 9 23t23 9h192v0q14 0 23 -9t9 -23v-64v0q0 -14 -9 -23t-23 -9h-192v0z" />
</svg>
