<?xml version="1.0" standalone="no"?>
<!DOCTYPE svg PUBLIC "-//W3C//DTD SVG 1.1//EN" "http://www.w3.org/Graphics/SVG/1.1/DTD/svg11.dtd" >
<svg xmlns="http://www.w3.org/2000/svg" xmlns:xlink="http://www.w3.org/1999/xlink" version="1.1" viewBox="-10 -40 660 512">
   <path fill="currentColor"
d="M440 -15q-2 -22 -24 -24q-22 2 -24 24v80v0q2 22 24 24q22 -2 24 -24v-80v0zM281 0q-17 -14 -34 0q-14 17 0 34l56 56v0q17 14 34 0q14 -17 0 -34l-56 -56v0zM585 34q14 -17 0 -34q-17 -14 -34 0l-56 56v0q-14 17 0 34q17 14 34 0l56 -56v0zM576 153h-64h64h-64
q-41 -31 -96 -32q-55 1 -96 32h-256v0q-27 1 -45 19t-19 45v128v0q1 27 19 45t45 19l10 40v0q7 23 31 24h14v0q24 -1 31 -24l10 -40v0h160v0q41 31 96 32q37 0 68 -15l6 23v0q7 23 31 24h14v0q24 -1 31 -24l10 -40v0q27 -1 45 -19t19 -45v-128v0q-1 -27 -19 -45t-45 -19v0z
M416 185q26 0 48 13v0v0q22 13 35 35q13 23 13 48t-13 48q-13 22 -35 35t-48 13t-48 -13t-35 -35q-13 -23 -13 -48t13 -48q13 -22 35 -35t48 -13v0zM64 281q0 -14 9 -23v0v0q9 -9 23 -9t23 9t9 23t-9 23t-23 9t-23 -9t-9 -23v0zM192 249q14 0 23 9v0v0q9 9 9 23t-9 23t-23 9
t-23 -9t-9 -23t9 -23t23 -9v0z" />
</svg>
