<?xml version="1.0" standalone="no"?>
<!DOCTYPE svg PUBLIC "-//W3C//DTD SVG 1.1//EN" "http://www.w3.org/Graphics/SVG/1.1/DTD/svg11.dtd" >
<svg xmlns="http://www.w3.org/2000/svg" xmlns:xlink="http://www.w3.org/1999/xlink" version="1.1" viewBox="-10 -40 596 512">
   <path fill="currentColor"
d="M352 9q90 2 153 58q18 13 34 -2q13 -18 -2 -34q-37 -33 -84 -51q-48 -19 -101 -19t-101 19q-47 18 -84 51q-15 16 -2 34q16 15 34 2q63 -56 153 -58v0zM376 209q-2 -22 -24 -24q-22 2 -24 24v72v0h-264v0q-27 1 -45 19t-19 45v64v0q1 27 19 45t45 19h448v0q27 -1 45 -19
t19 -45v-64v0q-1 -27 -19 -45t-45 -19h-136v0v-72v0zM96 345q14 0 23 9v0v0q9 9 9 23t-9 23t-23 9t-23 -9t-9 -23t9 -23t23 -9v0zM160 377q0 -14 9 -23v0v0q9 -9 23 -9t23 9t9 23t-9 23t-23 9t-23 -9t-9 -23v0zM277 148q31 -26 75 -27q44 1 76 27q18 12 33 -4q13 -18 -3 -34
q-45 -36 -106 -37q-61 1 -106 37q-15 16 -3 34q15 16 34 4v0z" />
</svg>
