<?xml version="1.0" standalone="no"?>
<!DOCTYPE svg PUBLIC "-//W3C//DTD SVG 1.1//EN" "http://www.w3.org/Graphics/SVG/1.1/DTD/svg11.dtd" >
<svg xmlns="http://www.w3.org/2000/svg" xmlns:xlink="http://www.w3.org/1999/xlink" version="1.1" viewBox="-10 -40 660 512">
   <path fill="currentColor"
d="M64 -39h216h-216h216q-23 26 -24 64v194v0q-32 -33 -80 -34q-48 1 -79 33q-32 31 -33 79q1 48 33 79q31 32 79 33q48 -1 80 -34v34v0q1 38 24 64h-216v0q-27 -1 -45 -19t-19 -45v-384v0q1 -27 19 -45t45 -19v0zM320 464q-30 -18 -32 -55v-112v0v-272v0q2 -37 32 -55
q14 -9 32 -9h224v0q27 1 45 19t19 45v384v0q-1 27 -19 45t-45 19h-224v0q-18 0 -32 -9v0zM352 297q0 30 15 56v0v0q15 26 41 41t56 15t56 -15t41 -41t15 -56t-15 -56t-41 -41t-56 -15t-56 15t-41 41t-15 56v0zM176 233q36 1 55 32q18 32 0 64q-19 31 -55 32q-36 -1 -55 -32
q-18 -32 0 -64q19 -31 55 -32v0zM176 121q27 -1 42 -24q12 -24 0 -48q-15 -23 -42 -24q-27 1 -42 24q-12 24 0 48q15 23 42 24v0zM400 297q1 -36 32 -55q32 -18 64 0q31 19 32 55q-1 36 -32 55q-32 18 -64 0q-31 -19 -32 -55v0zM512 73q-1 -27 -24 -42q-24 -12 -48 0
q-23 15 -24 42q1 27 24 42q24 12 48 0q23 -15 24 -42v0z" />
</svg>
