<?xml version="1.0" standalone="no"?>
<!DOCTYPE svg PUBLIC "-//W3C//DTD SVG 1.1//EN" "http://www.w3.org/Graphics/SVG/1.1/DTD/svg11.dtd" >
<svg xmlns="http://www.w3.org/2000/svg" xmlns:xlink="http://www.w3.org/1999/xlink" version="1.1" viewBox="-10 -40 586 512">
   <path fill="currentColor"
d="M320 -7q0 -14 -9 -23v0v0q-9 -9 -23 -9t-23 9t-9 23v38v0q-28 11 -44 36l-165 262v0q-15 23 -15 50q1 40 28 66q26 27 66 28h324v0q40 -1 66 -28q27 -26 28 -66q0 -27 -14 -50l-82 -129v0l-46 46v0l73 117v0q5 7 5 16q0 13 -9 21q-8 9 -21 9h-324v0q-13 0 -21 -9
q-9 -8 -9 -21q0 -9 5 -16l165 -262v0q8 -12 22 -12t22 12l48 76v0l-51 51v0q-9 -3 -19 -3q-24 1 -40 16q-15 16 -16 40q1 24 16 40q16 15 40 16q24 -1 40 -16q15 -16 16 -40q0 -10 -3 -19l43 -43v0l47 -47v0l106 -106v0q14 -17 0 -34q-17 -14 -34 0l-98 99v0l-41 -64v0
q-16 -26 -44 -36v-38v0z" />
</svg>
