<?xml version="1.0" standalone="no"?>
<!DOCTYPE svg PUBLIC "-//W3C//DTD SVG 1.1//EN" "http://www.w3.org/Graphics/SVG/1.1/DTD/svg11.dtd" >
<svg xmlns="http://www.w3.org/2000/svg" xmlns:xlink="http://www.w3.org/1999/xlink" version="1.1" viewBox="-10 -40 660 512">
   <path fill="currentColor"
d="M629 26q10 4 11 15v288v0q-1 11 -11 15q-11 3 -18 -6v0v0v0v0v0v0l-1 -1v0l-1 -1t-2 -3q-4 -5 -11 -14q-14 -18 -41 -42q-26 -24 -60 -42q-33 -17 -71 -18h-24v0v126v0q21 -6 34 -22q14 -17 14 -40v-29v0q33 8 64 31q-2 54 -38 89q-36 36 -90 37h-96v0v0v0h-96v0
q-54 -1 -91 -37q-36 -37 -37 -91q0 -35 17 -64h-34v0q-6 15 -23 16q-22 -2 -24 -24v-48v0q2 -22 24 -24q17 1 23 16h129v0v-32v0q2 -22 24 -24q22 2 24 24v32v0h40v0v-32v0q2 -22 24 -24q22 2 24 24v32v0h40v0v-32v0q2 -22 24 -24q22 2 24 24v32v0h24v0q38 -1 71 -18
q34 -18 60 -42q27 -24 41 -42q7 -9 11 -14l2 -2t1 -2l1 -1v0v0v0v0v0v0v0q7 -9 18 -6v0zM312 345h40h-40h40v-128v0h-40v0v128v0zM224 217v128v-128v128h40v0v-128v0h-40v0zM128 281q0 23 14 40v0v0q13 16 34 22v-124v0q-21 6 -34 22q-14 17 -14 40v0z" />
</svg>
