<?xml version="1.0" standalone="no"?>
<!DOCTYPE svg PUBLIC "-//W3C//DTD SVG 1.1//EN" "http://www.w3.org/Graphics/SVG/1.1/DTD/svg11.dtd" >
<svg xmlns="http://www.w3.org/2000/svg" xmlns:xlink="http://www.w3.org/1999/xlink" version="1.1" viewBox="-10 -40 660 512">
   <path fill="currentColor"
d="M576 25v288v-288v288h-512v0v-288v0h512v0zM64 -39q-27 1 -45 19v0v0q-18 18 -19 45v288v0q1 27 19 45t45 19h512v0q27 -1 45 -19t19 -45v-288v0q-1 -27 -19 -45t-45 -19h-512v0zM96 441q0 14 9 23v0v0q9 9 23 9h384v0q14 0 23 -9t9 -23t-9 -23t-23 -9h-384v0
q-14 0 -23 9t-9 23v0zM416 73q0 -8 -7 -13t-15 -2l-128 48v0q-9 4 -10 15v48v0v50v0q-8 -2 -16 -2q-20 0 -34 9q-13 9 -14 23q1 14 14 23q14 9 34 9t34 -9q13 -9 14 -23v-69v0l96 -36v0v43v0q-8 -2 -16 -2q-20 0 -34 9q-13 9 -14 23q1 14 14 23q14 9 34 9t34 -9
q13 -9 14 -23v-96v0v-48v0z" />
</svg>
