<?xml version="1.0" standalone="no"?>
<!DOCTYPE svg PUBLIC "-//W3C//DTD SVG 1.1//EN" "http://www.w3.org/Graphics/SVG/1.1/DTD/svg11.dtd" >
<svg xmlns="http://www.w3.org/2000/svg" xmlns:xlink="http://www.w3.org/1999/xlink" version="1.1" viewBox="-10 -40 660 512">
   <path fill="currentColor"
d="M64 57q-27 1 -45 19v0v0q-18 18 -19 45v192v0q1 27 19 45t45 19h352v0q14 0 23 -9t9 -23v-256v0q0 -14 -9 -23t-23 -9h-352v0zM608 89h-128h128h-128v256v0h128v0q14 0 23 -9t9 -23v-192v0q0 -14 -9 -23t-23 -9v0zM560 193q-22 -2 -24 -24q2 -22 24 -24q22 2 24 24
q-2 22 -24 24v0zM584 265q-2 22 -24 24q-22 -2 -24 -24q2 -22 24 -24q22 2 24 24v0z" />
</svg>
