<?xml version="1.0" standalone="no"?>
<!DOCTYPE svg PUBLIC "-//W3C//DTD SVG 1.1//EN" "http://www.w3.org/Graphics/SVG/1.1/DTD/svg11.dtd" >
<svg xmlns="http://www.w3.org/2000/svg" xmlns:xlink="http://www.w3.org/1999/xlink" version="1.1" viewBox="-10 -40 660 512">
   <path fill="currentColor"
d="M631 16q9 -10 9 -23v0v0q0 -13 -9 -23q-10 -9 -23 -9t-23 9l-168 169v0q-29 -18 -65 -18q-31 0 -58 14q-10 6 -7 19q1 7 1 15q-1 34 -23 57q-23 22 -57 23q-18 0 -33 -7q-12 -5 -21 4q-25 36 -26 83q0 23 7 43l44 -33v0q15 -11 32 -10q18 1 31 14l16 16v0q13 13 14 31
q1 17 -10 32l-33 44v0q20 7 43 7q47 -1 83 -26q9 -9 4 -21q-7 -15 -7 -33q1 -34 23 -57q23 -22 57 -23q8 0 15 1q13 3 19 -7q14 -27 14 -58q-1 -36 -18 -65l169 -168v0zM520 9q22 -2 24 -24q-2 -22 -24 -24q-22 2 -24 24q2 22 24 24v0zM345 2q14 -17 0 -34q-17 -14 -34 0
l-304 304v0q-14 17 0 34q17 14 34 0l304 -304v0zM472 57q22 -2 24 -24q-2 -22 -24 -24q-22 2 -24 24q2 22 24 24v0zM592 129q-2 -22 -24 -24q-22 2 -24 24q2 22 24 24q22 -2 24 -24v0zM640 81q-2 -22 -24 -24q-22 2 -24 24q2 22 24 24q22 -2 24 -24v0zM198 364l-64 48
l64 -48l-64 48q-5 5 -6 12q0 7 5 12l32 32v0q5 5 12 5q7 -1 12 -6l48 -64v0q7 -12 -2 -21l-16 -16v0q-10 -9 -21 -2v0z" />
</svg>
