<?xml version="1.0" standalone="no"?>
<!DOCTYPE svg PUBLIC "-//W3C//DTD SVG 1.1//EN" "http://www.w3.org/Graphics/SVG/1.1/DTD/svg11.dtd" >
<svg xmlns="http://www.w3.org/2000/svg" xmlns:xlink="http://www.w3.org/1999/xlink" version="1.1" viewBox="-10 -40 404 512">
   <path fill="currentColor"
d="M112 -15q-2 -22 -24 -24q-22 2 -24 24v72v0h-16v0q-20 1 -34 14q-13 14 -14 34v156v0q0 20 14 34l4 4v0q14 14 14 34v92v0q1 20 14 34q14 13 34 14h224v0q20 -1 34 -14q13 -14 14 -34v-92v0q0 -20 14 -34l4 -4v0q14 -14 14 -34v-156v0q0 -20 -14 -34q-14 -13 -34 -14h-16
v0q0 -14 -9 -23t-23 -9t-23 9t-9 23h-32v0q0 -14 -9 -23t-23 -9t-23 9t-9 23h-48v0v-72v0zM112 121h160h-160h160q15 1 16 16q-1 15 -16 16h-160v0q-15 -1 -16 -16q1 -15 16 -16v0zM112 185h160h-160h160q15 1 16 16q-1 15 -16 16h-160v0q-15 -1 -16 -16q1 -15 16 -16v0z
M112 249h160h-160h160q15 1 16 16q-1 15 -16 16h-160v0q-15 -1 -16 -16q1 -15 16 -16v0z" />
</svg>
