<?xml version="1.0" standalone="no"?>
<!DOCTYPE svg PUBLIC "-//W3C//DTD SVG 1.1//EN" "http://www.w3.org/Graphics/SVG/1.1/DTD/svg11.dtd" >
<svg xmlns="http://www.w3.org/2000/svg" xmlns:xlink="http://www.w3.org/1999/xlink" version="1.1" viewBox="-10 -40 596 512">
   <path fill="currentColor"
d="M79 -3q-12 -6 -24 -3v0v0q-13 4 -19 16t-3 24q4 13 16 19l367 196v0h-352v0q-27 1 -45 19t-19 45v64v0q1 27 19 45t45 19h448v0q27 -1 45 -19t19 -45v-77v0q-1 -37 -34 -56l-463 -247v0zM64 345q0 -14 9 -23v0v0q9 -9 23 -9t23 9t9 23t-9 23t-23 9t-23 -9t-9 -23v0z
M192 313q14 0 23 9v0v0q9 9 9 23t-9 23t-23 9t-23 -9t-9 -23t9 -23t23 -9v0z" />
</svg>
