<?xml version="1.0" standalone="no"?>
<!DOCTYPE svg PUBLIC "-//W3C//DTD SVG 1.1//EN" "http://www.w3.org/Graphics/SVG/1.1/DTD/svg11.dtd" >
<svg xmlns="http://www.w3.org/2000/svg" xmlns:xlink="http://www.w3.org/1999/xlink" version="1.1" viewBox="-10 -40 532 512">
   <path fill="currentColor"
d="M32 41q1 -20 14 -34v0v0q14 -13 34 -14h352v0q20 1 34 14q13 14 14 34v129v0q-22 -13 -48 -16v0v-1v-32v0q0 -14 -9 -23t-23 -9h-96v0q-14 0 -23 9t-9 23v32v0h-32v0v-32v0q0 -14 -9 -23t-23 -9h-96v0q-14 0 -23 9t-9 23v32v0v1v0q-26 3 -48 16v-129v0zM0 281
q1 -41 28 -68v0v0q27 -27 68 -28h320v0q41 1 68 28t28 68v128v0q0 14 -9 23t-23 9t-23 -9t-9 -23v-32v0h-384v0v32v0q0 14 -9 23t-23 9t-23 -9t-9 -23v-128v0z" />
</svg>
