<?xml version="1.0" standalone="no"?>
<!DOCTYPE svg PUBLIC "-//W3C//DTD SVG 1.1//EN" "http://www.w3.org/Graphics/SVG/1.1/DTD/svg11.dtd" >
<svg xmlns="http://www.w3.org/2000/svg" xmlns:xlink="http://www.w3.org/1999/xlink" version="1.1" viewBox="-10 -40 660 512">
   <path fill="currentColor"
d="M31 205q1 0 -2 0v0v0q-2 -1 -13 -4t-13 -4q-3 0 -2 0v0v0v0v0v0v0v-1v0v0v-1l2 -6q2 -8 7 -21q10 -27 30 -63t54 -65q33 -29 82 -31q38 1 65 19q26 19 43 49q17 28 29 63t22 71v0v2v0q20 75 48 128q28 51 81 52q35 -1 62 -24t46 -56t28 -58q4 -12 7 -19v-3q1 -1 1 -2
l1 -2v0v0v0v0v0v0v0q-1 0 2 0q2 1 13 4t13 4q3 0 2 0v0v0v0v0v0v0v1v0v1v1q-1 2 -2 5q-2 8 -7 21q-10 27 -30 63t-54 65q-33 29 -82 31q-38 -1 -65 -19q-26 -19 -43 -49q-17 -28 -29 -63t-22 -71v0v-1v0q-20 -76 -48 -129q-28 -51 -81 -52q-35 1 -62 24t-46 56t-28 58
q-4 12 -6 19q-1 2 -1 3q-1 1 -1 2v2v0h-1v0v0v0v0v0z" />
</svg>
