<?xml version="1.0" standalone="no"?>
<!DOCTYPE svg PUBLIC "-//W3C//DTD SVG 1.1//EN" "http://www.w3.org/Graphics/SVG/1.1/DTD/svg11.dtd" >
<svg xmlns="http://www.w3.org/2000/svg" xmlns:xlink="http://www.w3.org/1999/xlink" version="1.1" viewBox="-10 -40 404 512">
   <path fill="currentColor"
d="M64 -39h16h-16h256v16v0v96v0h-1v0q30 27 47 64q18 37 18 80t-18 80q-17 37 -47 64h1v0v96v0v16v0h-16h-240v-16v0v-96v0h1v0q-30 -27 -47 -64q-18 -37 -18 -80t18 -80q17 -37 47 -64h-1v0v-96v0v-16v0zM96 383v58v-58v58h192v0v-58v0q-43 25 -96 26q-53 -1 -96 -26v0z
M288 -7h-192h192h-192v58v0q43 -25 96 -26q53 1 96 26v-58v0zM352 217q0 -43 -21 -80v0v0q-22 -37 -59 -59q-38 -21 -80 -21t-80 21q-37 22 -59 59q-21 37 -21 80t21 80q22 37 59 59q38 21 80 21t80 -21q37 -22 59 -59q21 -37 21 -80v0zM208 137v71v-71v71l41 28v0l13 9v0
l-18 26v0l-13 -9v0l-48 -32v0l-7 -5v0v-8v0v-80v0v-16v0h32v0v16v0z" />
</svg>
