<?xml version="1.0" standalone="no"?>
<!DOCTYPE svg PUBLIC "-//W3C//DTD SVG 1.1//EN" "http://www.w3.org/Graphics/SVG/1.1/DTD/svg11.dtd" >
<svg xmlns="http://www.w3.org/2000/svg" xmlns:xlink="http://www.w3.org/1999/xlink" version="1.1" viewBox="-10 -40 532 512">
   <path fill="currentColor"
d="M96 121h-32h32h-32v-128v0v-32v0h32h288l64 64v0v96v0h-32v0v-83v0l-45 -45v0h-275v0v128v0zM480 185h-448h448h-448v160v0h32v0v-32v0v-32v0h32h352v32v0v32v0h32v0v-160v0zM448 377v64v-64v64v32v0h-32h-352v-32v0v-64v0h-32h-32v-32v0v-160v0v-32v0h32h480v32v0v160v0
v32v0h-32h-32zM96 313v128v-128v128h320v0v-128v0h-320v0zM448 217v32v-32v32h-32v0v-32v0h32v0z" />
</svg>
