<?xml version="1.0" standalone="no"?>
<!DOCTYPE svg PUBLIC "-//W3C//DTD SVG 1.1//EN" "http://www.w3.org/Graphics/SVG/1.1/DTD/svg11.dtd" >
<svg xmlns="http://www.w3.org/2000/svg" xmlns:xlink="http://www.w3.org/1999/xlink" version="1.1" viewBox="-10 -40 660 512">
   <path fill="currentColor"
d="M544 221l16 9l-16 -9l16 9q22 13 35 34q13 22 13 49v96v0h-96h-480v-112v0q1 -37 21 -65t54 -41l21 -7v0v-23v0v-8v0q1 -54 37 -91q37 -36 91 -37q34 0 62 16t46 43l14 22v0l24 -10v0q18 -7 38 -7q44 1 74 31q29 29 30 73v9v0v19v0zM96 161q-43 16 -69 52v0v0
q-26 36 -27 84v112v0v32v0h32h608v-32v0v-96v0q0 -36 -18 -65q-17 -29 -46 -46v-9v0q-1 -58 -40 -96q-38 -39 -96 -40q-26 0 -49 9q-22 -33 -57 -53t-78 -20q-68 2 -113 47t-47 113v8v0z" />
</svg>
