<?xml version="1.0" standalone="no"?>
<!DOCTYPE svg PUBLIC "-//W3C//DTD SVG 1.1//EN" "http://www.w3.org/Graphics/SVG/1.1/DTD/svg11.dtd" >
<svg xmlns="http://www.w3.org/2000/svg" xmlns:xlink="http://www.w3.org/1999/xlink" version="1.1" viewBox="-10 -40 340 512">
   <path fill="currentColor"
d="M64 89q1 36 17 66v0v0q15 30 38 53q22 22 40 34l1 1v0l1 -1v0q18 -12 40 -34q23 -23 38 -53q16 -30 17 -66q-1 -41 -28 -68t-68 -28q-41 1 -68 28t-28 68v0zM116 249q-29 -24 -56 -65v0v0q-26 -40 -28 -95q1 -54 37 -91q37 -36 91 -37q54 1 91 37q36 37 37 91
q-2 55 -28 95q-27 41 -56 65h100h16v32v0h-16h-128v176v0v16v0h-32v0v-16v0v-176v0h-128h-16v-32v0h16h100z" />
</svg>
