<?xml version="1.0" standalone="no"?>
<!DOCTYPE svg PUBLIC "-//W3C//DTD SVG 1.1//EN" "http://www.w3.org/Graphics/SVG/1.1/DTD/svg11.dtd" >
<svg xmlns="http://www.w3.org/2000/svg" xmlns:xlink="http://www.w3.org/1999/xlink" version="1.1" viewBox="-10 -40 541 512">
   <path fill="currentColor"
d="M328 9h12q60 5 107 37q-41 -45 -100 -68q-42 -17 -91 -17q-72 1 -129 35q-58 34 -92 92q-34 57 -35 129q1 72 35 129q34 58 92 92q57 34 129 35q49 0 91 -17q58 -22 100 -68q-47 32 -107 37h-12q-88 -2 -147 -61q-59 -58 -61 -147q2 -88 61 -147t147 -61v0zM88 217
q1 77 43 137v0v0q41 59 109 87q-89 -9 -147 -71q-59 -62 -61 -153q2 -91 61 -153q58 -62 147 -70q-68 27 -109 86q-42 60 -43 137v0zM402 117l-18 -36l18 36l-18 -36l-18 36v0l-24 50v0l-55 8v0l-40 6v0l29 28v0l40 38v0l-10 55v0l-7 39v0l36 -18v0l49 -26v0l49 26v0l36 19
v0l-7 -40v0l-9 -55v0l39 -38v0l29 -28v0l-40 -6v0l-55 -8v0l-24 -50v0zM422 199l30 4l-30 -4l30 4l-22 21v0l-12 12v0l3 17v0l5 30v0l-27 -14v0l-15 -8v0l-15 8v0l-27 14v0l5 -30v0l3 -17v0l-12 -12v0l-22 -21v0l30 -4v0l17 -3v0l7 -15v0l14 -28v0l14 28v0l7 15v0l17 2v1z
" />
</svg>
