<?xml version="1.0" standalone="no"?>
<!DOCTYPE svg PUBLIC "-//W3C//DTD SVG 1.1//EN" "http://www.w3.org/Graphics/SVG/1.1/DTD/svg11.dtd" >
<svg xmlns="http://www.w3.org/2000/svg" xmlns:xlink="http://www.w3.org/1999/xlink" version="1.1" viewBox="-10 -40 468 512">
   <path fill="currentColor"
d="M240 -23v-16v16v-16h-32v0v16v0v32v0h-40h-16v32v0h16h40v48v0h-176h-32v32v0v40v0l66 152v0h35v0l-69 -159v0v-33v0h176h208v33v0l-69 159v0h35v0l66 -152v0v-40v0v-32v0h-32h-176v-48v0h40h16v-32v0h-16h-40v-32v0zM64 432l34 -55l-34 55l34 -55h252v0l34 55v0v9v0
h-320v0v-9v0zM80 345l-48 77l48 -77l-48 77v19v0v32v0h32h352v-32v0v-19v0l-48 -77v0h-288v0z" />
</svg>
