<?xml version="1.0" standalone="no"?>
<!DOCTYPE svg PUBLIC "-//W3C//DTD SVG 1.1//EN" "http://www.w3.org/Graphics/SVG/1.1/DTD/svg11.dtd" >
<svg xmlns="http://www.w3.org/2000/svg" xmlns:xlink="http://www.w3.org/1999/xlink" version="1.1" viewBox="-10 -40 340 512">
   <path fill="currentColor"
d="M104 -39h-16h16h-16v32v0h16h12q-19 17 -40 41q-29 32 -52 77t-24 99q1 39 22 61q20 22 42 31v11v0h32v0v-22v0v-11v0l-10 -4v0q-19 -6 -36 -21q-17 -16 -18 -45q1 -45 21 -85q20 -39 47 -70t48 -48q6 -5 10 -8l2 -2q5 4 12 10q21 17 48 48q11 12 21 26l-76 77v0l-12 11
v0l23 23v0l11 -12v0l72 -71v0q27 46 29 101q-1 29 -18 45q-17 15 -36 21l-10 4v0v11v0v22v0h32v0v-11v0q22 -9 42 -31q21 -22 22 -61q-1 -54 -24 -99t-52 -77q-21 -25 -40 -41h12h16v-32v0h-16h-112zM32 441v-9v9v-9l34 -55v0h188v0l34 55v0v9v0h-256v0zM272 345h-224h224
h-224l-48 77v0v19v0v32v0h32h288v-32v0v-19v0l-48 -77v0z" />
</svg>
