<?xml version="1.0" standalone="no"?>
<!DOCTYPE svg PUBLIC "-//W3C//DTD SVG 1.1//EN" "http://www.w3.org/Graphics/SVG/1.1/DTD/svg11.dtd" >
<svg xmlns="http://www.w3.org/2000/svg" xmlns:xlink="http://www.w3.org/1999/xlink" version="1.1" viewBox="-13 0 538 512">
   <path fill="currentColor"
d="M215 -39h9h-9h82l5 8v0l94 155v0l11 -54v0l3 -16v0l32 7v0l-3 15v0l-20 95v0l-3 17v0l-18 -5v0l-91 -31v0l-15 -5v0l10 -30v0l15 5v0l51 17v0l-89 -146v0h-46v0l-51 84v0l-28 -16v0l56 -92v0l5 -8v0zM421 227l28 -16l-28 16l28 -16l61 99v0l5 9v0l-6 9v0l-39 58v0l-5 7v0
h-9h-190l41 36v0l12 11v0l-22 24v0l-12 -11v0l-72 -64v0l-13 -12v0l13 -12v0l72 -64v0l12 -11v0l22 24v0l-12 11v0l-41 36v0h182v0l29 -43v0l-56 -91v0zM101 148l-56 19l56 -19l-56 19l-15 5v0l-10 -31v0l15 -5v0l91 -30v0l18 -6v0l3 18v0l20 94v0l3 16v0l-32 6v0l-3 -15v0
l-10 -49v0l-90 148v0l29 43v0h96v0v32v0h-104h-9l-5 -7v0l-39 -58v0l-6 -9v0l5 -9v0l99 -162v0z" />
</svg>
