<?xml version="1.0" standalone="no"?>
<!DOCTYPE svg PUBLIC "-//W3C//DTD SVG 1.1//EN" "http://www.w3.org/Graphics/SVG/1.1/DTD/svg11.dtd" >
<svg xmlns="http://www.w3.org/2000/svg" xmlns:xlink="http://www.w3.org/1999/xlink" version="1.1" viewBox="-10 -40 532 512">
   <path fill="currentColor"
d="M256 23l20 -17l-20 17l20 -17q15 -13 36 -13q24 1 40 16q15 16 16 40q0 21 -13 36l-17 20v0l17 20v0q13 15 13 36q-1 24 -16 40q-16 15 -40 16q-21 0 -36 -13l-20 -17v0l-20 17v0q-15 13 -36 13q-24 -1 -40 -16q-15 -16 -16 -40q0 -21 13 -36l17 -20v0l-17 -20v0
q-13 -15 -13 -36q1 -24 16 -40q16 -15 40 -16q21 0 36 13l20 17v0zM380 105q19 -23 20 -56q-1 -37 -26 -62t-62 -26q-33 1 -56 20q-23 -19 -56 -20q-37 1 -62 26t-26 62q1 33 20 56q-19 23 -20 56q1 37 26 62t62 26q22 0 40 -10v119v0q-30 -50 -80 -79t-112 -30h-16h-32
q0 16 2 32q14 83 75 137q61 53 147 55h16h48q86 -2 147 -55q61 -54 75 -137q2 -16 2 -32h-32h-16q-62 1 -112 30t-80 79v-119v0q18 10 40 10q37 -1 62 -26t26 -62q-1 -33 -20 -56v0zM237 441h-13h13h-13q-73 -1 -125 -46q-51 -44 -64 -114h13v0q73 1 125 46q51 44 64 114v0z
M275 441q12 -70 64 -114v0v0q52 -45 125 -46h13v0q-13 70 -64 114q-52 45 -125 46h-13v0zM256 145l40 -40l-40 40l40 -40l-40 -40v0l-40 40v0l40 40v0z" />
</svg>
