<?xml version="1.0" standalone="no"?>
<!DOCTYPE svg PUBLIC "-//W3C//DTD SVG 1.1//EN" "http://www.w3.org/Graphics/SVG/1.1/DTD/svg11.dtd" >
<svg xmlns="http://www.w3.org/2000/svg" xmlns:xlink="http://www.w3.org/1999/xlink" version="1.1" viewBox="-10 -40 660 512">
   <path fill="currentColor"
d="M304 -7h16h-16h144v16v0v112v0v16v0h-32v0v-16v0v-73v0l-105 104v0q40 47 41 113q-2 75 -52 124q-49 50 -124 52q-75 -2 -124 -52q-50 -49 -52 -124q2 -75 52 -124q49 -50 124 -52q66 1 113 41l104 -105v0h-73h-16v-32v0zM176 409q39 0 72 -19v0v0q33 -19 53 -53
q19 -34 19 -72t-19 -72q-20 -34 -53 -53t-72 -19t-72 19t-53 53q-19 34 -19 72t19 72q20 34 53 53t72 19v0zM480 164v-34v34v-34l105 -105v0h-73h-16v-32v0h16h128v16v0v112v0v16v0h-32v0v-16v0v-73v0l-100 100v0q35 47 36 109q-2 78 -54 130t-130 54q-31 0 -59 -10
q15 -11 28 -25q15 3 31 3q64 -2 107 -45q43 -42 45 -107q-1 -54 -32 -93v0z" />
</svg>
