<?xml version="1.0" standalone="no"?>
<!DOCTYPE svg PUBLIC "-//W3C//DTD SVG 1.1//EN" "http://www.w3.org/Graphics/SVG/1.1/DTD/svg11.dtd" >
<svg xmlns="http://www.w3.org/2000/svg" xmlns:xlink="http://www.w3.org/1999/xlink" version="1.1" viewBox="-10 -40 532 512">
   <path fill="currentColor"
d="M384 89v32v-32v32h32v0q27 1 45 19t19 45v64v0h-64h-384v-64v0q0 -21 12 -37t31 -23l21 -8v0v-22v0v-22v0q1 -34 23 -57q23 -22 57 -23q42 2 66 34l17 25v0l26 -17v0q15 -10 35 -10q27 1 45 19t19 45v0zM0 281h32h-32h512v-32v0v-64v0q-1 -41 -28 -68t-68 -28
q-1 -41 -28 -68t-68 -28q-29 0 -52 16q-33 -46 -92 -48q-48 1 -79 33q-32 31 -33 79v22v0q-28 10 -46 34q-17 24 -18 56v64v0v32v0zM83 414l13 -23l-13 23l13 -23l13 23v0q3 4 3 9v2v0q-1 15 -16 16q-15 -1 -16 -16v-2v0q0 -5 3 -9v0zM55 397q-7 12 -7 26v2v0q1 20 14 34
q14 13 34 14q20 -1 34 -14q13 -14 14 -34v-2v0q0 -14 -7 -26l-22 -37v0l-19 -31v0l-19 31v0l-22 37v0zM243 414l13 -23l-13 23l13 -23l13 23v0q3 4 3 9v2v0q-1 15 -16 16q-15 -1 -16 -16v-2v0q0 -5 3 -9v0zM215 397q-7 12 -7 26v2v0q1 20 14 34q14 13 34 14q20 -1 34 -14
q13 -14 14 -34v-2v0q0 -14 -7 -26l-22 -37v0l-19 -31v0l-19 31v0l-22 37v0zM416 391l13 23l-13 -23l13 23q3 4 3 9v2v0q-1 15 -16 16q-15 -1 -16 -16v-2v0q0 -5 3 -9l13 -23v0zM397 360l-22 37l22 -37l-22 37q-7 12 -7 26v2v0q1 20 14 34q14 13 34 14q20 -1 34 -14
q13 -14 14 -34v-2v0q0 -14 -7 -26l-22 -37v0l-19 -31v0l-19 31v0z" />
</svg>
