<?xml version="1.0" standalone="no"?>
<!DOCTYPE svg PUBLIC "-//W3C//DTD SVG 1.1//EN" "http://www.w3.org/Graphics/SVG/1.1/DTD/svg11.dtd" >
<svg xmlns="http://www.w3.org/2000/svg" xmlns:xlink="http://www.w3.org/1999/xlink" version="1.1" viewBox="-10 -40 522 512">
   <path fill="currentColor"
d="M424 41q22 -2 24 -24q-2 -22 -24 -24q-22 2 -24 24q2 22 24 24v0zM424 -39q32 1 48 28q16 28 0 56q-16 27 -48 28q-32 -1 -48 -28q-16 -28 0 -56q16 -27 48 -28v0zM417 468l-408 -205l408 205l-408 -205l14 -28v0l213 107v0l70 -84v0l-97 -97v0q-11 -12 -13 -27l61 29v0
l72 72v0q9 10 9 22q1 12 -7 22l-65 78v0l159 80v0l49 -19v0l15 -6v0l12 30v0l-15 6v0l-56 21v0l-7 3v0l-6 -4v0zM119 27l18 8l-18 -8l18 8l9 -17v0l7 -14v0l29 14v0l-8 14v0l-8 17v0l63 30v0l83 -52v0l15 -9v0l8 17v0l52 119v0l68 32v0v1v0l14 6v0v0v0v0v0l-7 15v0l-7 14v0
v0v0v0v0l-14 -7v0v0v0l-289 -137v0l-10 18v0l-7 15v0l-28 -15v0l7 -14v0l9 -18v0l-18 -9v0l-14 -6v0l14 -29v0l14 7v0zM263 95l80 38l-80 -38l80 38l-30 -68v0l-50 30v0z" />
</svg>
