<?xml version="1.0" standalone="no"?>
<!DOCTYPE svg PUBLIC "-//W3C//DTD SVG 1.1//EN" "http://www.w3.org/Graphics/SVG/1.1/DTD/svg11.dtd" >
<svg xmlns="http://www.w3.org/2000/svg" xmlns:xlink="http://www.w3.org/1999/xlink" version="1.1" viewBox="-10 -40 522 512">
   <path fill="currentColor"
d="M214 -27l-16 -1l16 1l-16 -1l-1 16v0l-5 39v0l-11 114v0l-27 -106v0l-10 -39v0l-4 -15v0l-16 4v0l-77 20v0l-16 4v0l4 15v0l10 39v0l35 138v0v0v0h-16v0v16v0v96v0q2 68 47 113t113 47h64v0q68 -2 113 -47t47 -113v-32v0v-80v0v-16v0v-16v0v-16v0h-16h-64v-16v0h-16h-58
l10 -98v0l4 -40v0l1 -16v0l-15 -1v0l-80 -9v0zM368 185h48h-48h48v16v0v80v0v16v0h-48v0v-112v0zM415 329q-7 48 -42 80v0v0q-35 31 -85 32h-64v0q-54 -1 -91 -37q-36 -37 -37 -91v-80v0h160v0v48v0h-80h-16v32v0h16h160v16v0h16h63zM336 281h-48h48h-48v-64v0v-16v0v-32v0
h48v0v112v0zM123 43l40 158l-40 -158l40 158h-50v0l-37 -146v0l-6 -23v0l47 -12v0l5 23h1zM256 189l-1 12l1 -12l-1 12h-48v0l17 -170v0l3 -24v0l47 5v0l-2 23v0l-11 102v0h-5v0v16v0v36v0z" />
</svg>
