<?xml version="1.0" standalone="no"?>
<!DOCTYPE svg PUBLIC "-//W3C//DTD SVG 1.1//EN" "http://www.w3.org/Graphics/SVG/1.1/DTD/svg11.dtd" >
<svg xmlns="http://www.w3.org/2000/svg" xmlns:xlink="http://www.w3.org/1999/xlink" version="1.1" viewBox="-10 -40 468 512">
   <path fill="currentColor"
d="M32 25v384v-384v384h384v0v-384v0h-384v0zM0 -7h32h-32h448v32v0v384v0v32v0h-32h-416v-32v0v-384v0v-32v0zM159 130l12 11l-12 -11l12 11l53 53v0l53 -53v0l12 -11v0l22 22v0l-11 12v0l-53 53v0l53 53v0l11 12v0l-22 22v0l-12 -11v0l-53 -53v0l-53 53v0l-12 11v0
l-22 -22v0l11 -12v0l53 -53v0l-53 -53v0l-11 -12v0l22 -22v0z" />
</svg>
