<?xml version="1.0" standalone="no"?>
<!DOCTYPE svg PUBLIC "-//W3C//DTD SVG 1.1//EN" "http://www.w3.org/Graphics/SVG/1.1/DTD/svg11.dtd" >
<svg xmlns="http://www.w3.org/2000/svg" xmlns:xlink="http://www.w3.org/1999/xlink" version="1.1" viewBox="-10 -40 468 512">
   <path fill="currentColor"
d="M416 25h-384h384h-384v384v0h384v0v-384v0zM448 -7v32v-32v32v384v0v32v0h-32h-416v-32v0v-384v0v-32v0h32h416zM224 185h-96h96h-96v64v0h96h32v32v0v19v0l83 -83v0l-83 -83v0v19v0v32v0h-32v0zM384 217l-23 23l23 -23l-23 23l-105 105v0h-32v0v-32v0v-32v0h-32h-96v-32
v0v-64v0v-32v0h32h96v-32v0v-32v0h32v0l105 105v0l23 23v0z" />
</svg>
