<?xml version="1.0" standalone="no"?>
<!DOCTYPE svg PUBLIC "-//W3C//DTD SVG 1.1//EN" "http://www.w3.org/Graphics/SVG/1.1/DTD/svg11.dtd" >
<svg xmlns="http://www.w3.org/2000/svg" xmlns:xlink="http://www.w3.org/1999/xlink" version="1.1" viewBox="-10 -40 394 512">
   <path fill="currentColor"
d="M160 313v-32v32v-32v-192v0v-32v0h-32h-96v-64v0h192v0v288v0v32v0h32h51l-115 115v0l-115 -115v0h51h32zM64 281h-32h32h-32v32v0l137 137v0l23 23v0l23 -23v0l137 -137v0v-32v0h-32h-64v-32v0v-256v0v-32v0h-32h-224v32v0v64v0v32v0h32h96v32v0v128v0v32v0h-32h-32z
" />
</svg>
