<?xml version="1.0" standalone="no"?>
<!DOCTYPE svg PUBLIC "-//W3C//DTD SVG 1.1//EN" "http://www.w3.org/Graphics/SVG/1.1/DTD/svg11.dtd" >
<svg xmlns="http://www.w3.org/2000/svg" xmlns:xlink="http://www.w3.org/1999/xlink" version="1.1" viewBox="-10 -40 468 512">
   <path fill="currentColor"
d="M416 409v-384v384v-384h-384v0v384v0h384v0zM448 441h-32h32h-448v-32v0v-384v0v-32v0h32h416v32v0v384v0v32v0zM256 217v-96v96v-96h-64v0v96v0v32v0h-32h-19l83 83v0l83 -83v0h-19h-32v-32v0zM224 377l-23 -23l23 23l-23 -23l-105 -105v0v-32v0h32h32v-32v0v-64v0v-32
v0h32h96v32v0v64v0v32v0h32h32v32v0l-105 105v0l-23 23v0z" />
</svg>
