<?xml version="1.0" standalone="no"?>
<!DOCTYPE svg PUBLIC "-//W3C//DTD SVG 1.1//EN" "http://www.w3.org/Graphics/SVG/1.1/DTD/svg11.dtd" >
<svg xmlns="http://www.w3.org/2000/svg" xmlns:xlink="http://www.w3.org/1999/xlink" version="1.1" viewBox="-10 -40 650 512">
   <path fill="currentColor"
d="M448 249q-54 -1 -91 -37v0v0q-36 -37 -37 -91q1 -50 32 -85v85v0q1 41 28 68t68 28q41 -1 68 -28t28 -68v-85v0q31 35 32 85q-1 54 -37 91q-37 36 -91 37v0zM608 121q0 -40 -17 -73v0v0q-17 -33 -47 -55v-1v0h-1v0q-41 -30 -95 -31q-54 1 -95 31h-1v0v1v0q-30 22 -47 55
t-17 73q0 7 1 14q-53 14 -94 47q-42 32 -67 78v-123v0q-1 -34 -23 -57q-23 -22 -57 -23h-16v0v32v0h16v0q20 1 34 14q13 14 14 34v248v0v72v0v16v0h16h64v0v0h128h80v-16v0v-21v0q-2 -37 -33 -53l65 -29v0v103v0v16v0h16h80v-16v0v-189v0q43 -20 69 -58q26 -39 27 -89v0z
M480 278v163v-163v163h-32v0v-112v0v-25v0l-22 10v0l-122 54v0v-15v0q-1 -31 -21 -51t-51 -21h-8h-16v32v0h16h8q17 0 28 12q12 11 12 28v24v0v16v0v16v0h16h37q25 2 27 27v5v0h-48v0v0v0h-128h-48v-56v0q1 -79 47 -138q45 -59 120 -81q15 51 56 82q42 32 97 33q17 0 32 -3
v0zM414 41l-35 -28l35 28l-35 -28q30 -19 69 -20q39 1 69 20l-35 28v0h-68v0zM240 -23v-16v16v-16h-32v0v16v0v32v0h-32h-16v32v0h16h32v32v0v16v0h32v0v-16v0v-32v0h32h16v-32v0h-16h-32v-32v0zM384 58l14 12l-14 -12l14 12l4 3v0h6h86l4 -3v0l14 -12v0v63v0q-1 27 -19 45
t-45 19q-27 -1 -45 -19t-19 -45v-63v0zM416 129q15 -1 16 -16q-1 -15 -16 -16q-15 1 -16 16q1 15 16 16v0zM496 113q-1 -15 -16 -16q-15 1 -16 16q1 15 16 16q15 -1 16 -16v0z" />
</svg>
