<?xml version="1.0" standalone="no"?>
<!DOCTYPE svg PUBLIC "-//W3C//DTD SVG 1.1//EN" "http://www.w3.org/Graphics/SVG/1.1/DTD/svg11.dtd" >
<svg xmlns="http://www.w3.org/2000/svg" xmlns:xlink="http://www.w3.org/1999/xlink" version="1.1" viewBox="-10 -40 468 512">
   <path fill="currentColor"
d="M32 185q0 -52 26 -96v0v0q25 -44 70 -70t96 -26t96 26t70 70q26 44 26 96t-26 96q-25 44 -70 70t-96 26t-96 -26t-70 -70q-26 -44 -26 -96v0zM240 408q89 -8 148 -70v0v0q58 -62 60 -153q-1 -63 -31 -113q-29 -51 -80 -80q-50 -30 -113 -31q-63 1 -113 31q-51 29 -80 80
q-30 50 -31 113q2 91 60 153q59 62 148 70v33v0h-128h-16v32v0h16h304v-32v0h-16h-128v-33v0zM195 24l-14 6l14 -6l-14 6l-23 9v0q-37 16 -52 51t-1 74q16 36 51 57l-44 57v0l-10 12v0l12 10v0l19 15v0q33 24 71 20q38 -5 64 -36q24 -32 25 -73l71 10v0l16 2v0l2 -16v0
l3 -24v0q5 -40 -18 -71q-23 -30 -64 -37q-39 -5 -75 15l-27 -66v0l-6 -15v0zM178 65l28 70l-28 -70l28 70l8 20v0l17 -13v0q14 -12 32 -17q19 -6 36 -3q27 4 42 24q15 21 12 48l-1 8v0l-74 -11v0l-22 -3v0l4 22v0q3 18 -2 37q-5 18 -15 32q-17 21 -43 24q-25 3 -47 -13
l-6 -5v0l46 -59v0l14 -18v0l-21 -7v0q-17 -7 -31 -20q-13 -13 -20 -29q-10 -26 0 -49q10 -24 35 -35l8 -3v0zM224 201q15 -1 16 -16q-1 -15 -16 -16q-15 1 -16 16q1 15 16 16v0z" />
</svg>
