<?xml version="1.0" standalone="no"?>
<!DOCTYPE svg PUBLIC "-//W3C//DTD SVG 1.1//EN" "http://www.w3.org/Graphics/SVG/1.1/DTD/svg11.dtd" >
<svg xmlns="http://www.w3.org/2000/svg" xmlns:xlink="http://www.w3.org/1999/xlink" version="1.1" viewBox="-10 -40 659 512">
   <path fill="currentColor"
d="M114 -39h-1v0v0h-1q-48 1 -79 33q-32 31 -33 79q1 48 33 79q31 32 79 33q47 -1 78 -32l2 -2q14 -14 23 -33q-11 3 -23 3q-8 0 -15 -1q-28 -6 -46 -28q-18 -21 -19 -51q0 -27 15 -47q11 -15 29 -24q-20 -9 -42 -9v0zM32 73q0 -28 16 -48v0v0q16 -21 41 -29q-9 21 -9 45
q1 35 19 63q19 27 50 40q-17 9 -37 9q-34 -1 -57 -23q-22 -23 -23 -57v0zM410 69l-10 -9l10 9l-10 -9l-10 9v0l-216 176v0l-12 10v0l20 25v0l12 -11v0l30 -24v0v212v0v16v0h16h336v-16v0v-212v0l30 24v0l12 11v0l21 -25v0l-13 -10v0l-216 -176v0zM544 219v222v-222v222h-288
v0v-222v0l144 -117v0l144 117v0zM336 233v16v-16v16v96v0v16v0h16h112v-16v0v-96v0v-16v0h-16h-112zM368 265h64h-64h64v64v0h-64v0v-64v0zM272 -39h-32h32h-32v16v0v32v0h-32h-16v32v0h16h32v32v0v16v0h32v0v-16v0v-32v0h32h16v-32v0h-16h-32v-32v0v-16v0zM112 281h-32h32
h-32v16v0v32v0h-32h-16v32v0h16h32v32v0v16v0h32v0v-16v0v-32v0h32h16v-32v0h-16h-32v-32v0v-16v0z" />
</svg>
