<?xml version="1.0" standalone="no"?>
<!DOCTYPE svg PUBLIC "-//W3C//DTD SVG 1.1//EN" "http://www.w3.org/Graphics/SVG/1.1/DTD/svg11.dtd" >
<svg xmlns="http://www.w3.org/2000/svg" xmlns:xlink="http://www.w3.org/1999/xlink" version="1.1" viewBox="-10 -40 656 512">
   <path fill="currentColor"
d="M437 -7q22 2 24 24q-2 22 -24 24q-22 -2 -24 -24q2 -22 24 -24v0zM437 73q32 -1 49 -28q15 -28 0 -56q-17 -27 -49 -28q-32 1 -48 28q-15 28 0 56q16 27 48 28v0zM560 156l31 68l-31 -68l31 68l6 14v0l29 -13v0l-6 -14v0l-32 -72v0l-2 -5v0l-4 -2v0l-72 -48v0l-6 -4v0
l-7 2v0l-88 24v0l-9 2v0l-2 8v0l-31 99v0l-43 29v0l18 26v0l48 -32v0l5 -3v0l1 -5v0l15 -49v0l39 111v0l-47 41v0l-4 3v0l-1 4v0l-32 108v0l-5 15v0l31 9v0l5 -15v0l30 -103v0l101 -87v0q22 -21 14 -51l-29 -92v0l47 32v0zM512 226q2 10 -5 17l-31 26v0l-47 -136v0l50 -13v0
l33 106v0zM570 384l-38 -78l38 78l-38 -78l-25 22v0l36 72v0q1 2 3 4l56 56v0l11 12v0l23 -23v0l-12 -11v0l-54 -54v0zM250 -27l-10 -9l10 9l-10 -9l-10 9v0l-216 176v0l-12 10v0l20 25v0l12 -11v0l30 -24v0v212v0v16v0h16h267l9 -32v0h-36h-224v-222v0l144 -117v0l121 98v0
l9 -29v0l4 -1v0l-124 -101v0zM256 153v64v-64v64h-64v0v-64v0h64v0zM192 121h-32h32h-32v32v0v64v0v32v0h32h96v-32v0v-64v0v-32v0h-32h-64z" />
</svg>
