<?xml version="1.0" standalone="no"?>
<!DOCTYPE svg PUBLIC "-//W3C//DTD SVG 1.1//EN" "http://www.w3.org/Graphics/SVG/1.1/DTD/svg11.dtd" >
<svg xmlns="http://www.w3.org/2000/svg" xmlns:xlink="http://www.w3.org/1999/xlink" version="1.1" viewBox="-10 -40 404 512">
   <path fill="currentColor"
d="M352 -7v128v-128v128h-64v0v-48v0v-16v0h-32v0v16v0v48v0h-224v0v-128v0h320v0zM256 153v176v-176v176v16v0h32v0v-16v0v-176v0h64v0v288v0h-320v0v-288v0h224v0zM32 -39h-32h32h-32v32v0v448v0v32v0h32h352v-32v0v-448v0v-32v0h-32h-320z" />
</svg>
