<?xml version="1.0" standalone="no"?>
<!DOCTYPE svg PUBLIC "-//W3C//DTD SVG 1.1//EN" "http://www.w3.org/Graphics/SVG/1.1/DTD/svg11.dtd" >
<svg xmlns="http://www.w3.org/2000/svg" xmlns:xlink="http://www.w3.org/1999/xlink" version="1.1" viewBox="-10 -40 661 512">
   <path fill="currentColor"
d="M32 25h384h-384h384v79v0q8 -6 15 -10l17 -11v0v-58v0v-32v0h-32h-416v32v0v384v0v32v0h32h305q-13 -15 -23 -32h-282v0v-384v0zM128 105v-16v16v-16h-32v0v16v0v128v0v16v0h32v0v-16v0v-128v0zM192 105v-16v16v-16h-32v0v16v0v128v0v16v0h32v0v-16v0v-128v0zM489 162
l-41 -41l41 41l-41 -41q-23 14 -52 42q-30 28 -52 66q-23 39 -24 84q2 65 44 110t107 50h9h9q65 -5 107 -50t44 -110q1 -22 -19 -66q-21 -45 -77 -94l-9 9v0l-23 23v0l-23 -23v0zM480 441h-7q-26 -3 -41 -20q-16 -16 -16 -37q2 -35 39 -72q14 -13 25 -23q11 9 25 23
q37 37 39 72q0 21 -16 37q-15 17 -41 20h-7v0zM576 384q-2 -36 -25 -67v0v0q-23 -30 -46 -49v0v0q-23 -18 -25 -19q-2 1 -25 19q-23 19 -46 49q-23 31 -25 67q0 8 2 15q-33 -35 -34 -86q2 -53 41 -100q26 -31 51 -50l45 45v0l23 22v0l23 -22v0l10 -11v0q38 40 51 72t12 44
q-1 51 -33 86q1 -7 1 -15v0z" />
</svg>
