<?xml version="1.0" standalone="no"?>
<!DOCTYPE svg PUBLIC "-//W3C//DTD SVG 1.1//EN" "http://www.w3.org/Graphics/SVG/1.1/DTD/svg11.dtd" >
<svg xmlns="http://www.w3.org/2000/svg" xmlns:xlink="http://www.w3.org/1999/xlink" version="1.1" viewBox="-10 -40 532 512">
   <path fill="currentColor"
d="M32 217q1 63 31 113v0v0q29 51 80 80v0v0q50 30 113 31q47 0 89 -18q6 13 17 24l2 2q-50 24 -108 24q-72 -1 -129 -35q-58 -34 -92 -92q-34 -57 -35 -129q1 -77 41 -138q-9 -13 -9 -30q1 -24 16 -40q16 -15 40 -16q17 0 30 9v0v0q5 3 9 7h1v0v1v0q7 7 11 16v0v0
q5 10 5 23q-1 24 -16 40q-16 15 -40 16q-12 0 -23 -5q-32 52 -33 117v0zM394 433v0v0v0q-5 -4 -9 -8l9 8v0zM424 441q-17 0 -30 -8l-21 -25v0q-5 -11 -5 -23q1 -24 16 -40q16 -15 40 -16q12 0 23 5q32 -52 33 -117q-1 -63 -31 -113q-29 -51 -80 -80q-50 -30 -113 -31
q-47 0 -88 18q-7 -13 -18 -24l-2 -2q50 -24 108 -24q72 1 129 35q58 34 92 92q34 57 35 129q-1 77 -40 138q8 13 8 30q-1 24 -16 40q-16 15 -40 16v0zM448 385q-2 -22 -24 -24q-22 2 -24 24q2 22 24 24q22 -2 24 -24v0zM88 73q22 -2 24 -24q-2 -22 -24 -24q-22 2 -24 24
q2 22 24 24v0zM352 153q-17 0 -28 -12v0v0q-12 -11 -12 -28q0 -5 1 -10q-26 -14 -57 -14q-54 1 -91 37q-36 37 -37 91q1 54 37 91q37 36 91 37q54 -1 91 -37q36 -37 37 -91q0 -37 -18 -66q-7 2 -14 2v0zM416 217q-2 68 -47 113v0v0q-45 45 -113 47q-68 -2 -113 -47t-47 -113
q2 -68 47 -113t113 -47q43 0 78 20q8 -4 18 -4q17 0 28 12q12 11 12 28q0 8 -3 15q26 39 27 89v0zM256 297l-23 -23l23 23l-23 -23l-34 -34v0l-23 -23v0l23 -23v0l34 -34v0l23 -23v0l23 23v0l34 34v0l23 23v0l-23 23v0l-34 34v0l-23 23v0zM256 182l-35 35l35 -35l-35 35
l35 35v0l35 -35v0l-35 -35v0z" />
</svg>
