<?xml version="1.0" standalone="no"?>
<!DOCTYPE svg PUBLIC "-//W3C//DTD SVG 1.1//EN" "http://www.w3.org/Graphics/SVG/1.1/DTD/svg11.dtd" >
<svg xmlns="http://www.w3.org/2000/svg" xmlns:xlink="http://www.w3.org/1999/xlink" version="1.1" viewBox="-10 -40 532 512">
   <path fill="currentColor"
d="M32 217q1 -63 31 -113v0v0q29 -51 80 -80v0v0q50 -30 113 -31q46 0 86 17t71 47h-45h-16v32v0h16h80l13 -26v0q-36 -47 -89 -74t-116 -28q-72 1 -129 35q-58 34 -92 92q-34 57 -35 129q1 72 35 129q34 58 92 92q57 34 129 35q69 -1 126 -33q56 -32 91 -86l-14 -25v0h-43
h-16v32v0h16h12q-32 37 -76 58q-44 22 -96 22q-72 -1 -128 -40q-55 -39 -81 -103q29 11 80 21q51 11 129 12q89 -2 143 -14q54 -13 81 -24q1 0 2 -1q6 -2 11 -4l9 -3v0l2 -8v0q7 -28 8 -60q0 -8 -1 -17l-1 -15v0h-15h-79v32v0h16h48q0 22 -6 44l-5 2v0v0q-26 11 -78 22
q-51 12 -135 13q-85 -1 -136 -13t-77 -22q-2 -1 -3 -1l-4 -2q-4 -21 -4 -43v0zM136 121q1 -32 28 -48q28 -16 56 0q27 16 28 48q-1 32 -28 48q-28 16 -56 0q-27 -16 -28 -48v0zM280 121q-2 -50 -44 -76q-44 -24 -88 0q-42 26 -44 76q2 50 44 76q44 24 88 0q42 -26 44 -76v0z
M216 121q-2 -22 -24 -24q-22 2 -24 24q2 22 24 24q22 -2 24 -24v0zM368 121h-16h16h-16v32v0h16h96v-32v0h-16h-80z" />
</svg>
