<?xml version="1.0" standalone="no"?>
<!DOCTYPE svg PUBLIC "-//W3C//DTD SVG 1.1//EN" "http://www.w3.org/Graphics/SVG/1.1/DTD/svg11.dtd" >
<svg xmlns="http://www.w3.org/2000/svg" xmlns:xlink="http://www.w3.org/1999/xlink" version="1.1" viewBox="-10 -40 532 512">
   <path fill="currentColor"
d="M64 -23v16v-16v16h16h16v32v0h-16h-16v16v0v16v0h-32v0v-16v0v-16v0h-16h-16v-32v0h16h16v-16v0v-16v0h32v0v16v0zM480 297v16v-16v16h16h16v32v0h-16h-16v16v0v16v0h-32v0v-16v0v-16v0h-16h-16v-32v0h16h16v-16v0v-16v0h32v0v16v0zM256 41q22 -2 24 -24q-2 -22 -24 -24
q-22 2 -24 24q2 22 24 24v0zM256 -39q32 1 48 28q16 28 0 56q-16 27 -48 28q-32 -1 -48 -28q-16 -28 0 -56q16 -27 48 -28v0zM96 425v-16v16v-16h16h304v16v0v32v0v16v0h-32v0v-16v0v-16v0h-256v0v16v0v16v0h-32v0v-16v0v-32v0zM384 185h-40h40h-40l-24 -31v0v31v0h-32v0
v-48v0h-64v0v48v0h-32v0v-31v0l-23 31v0h-41v0l56 -74v0l5 -6v0h8h126l5 6v0l56 74v0zM96 217h16h-16h320v32v0h-16h-304v-32v0zM160 281h16h-16h192v32v0h-16h-176v-32v0zM160 345h16h-16h192v32v0h-16h-176v-32v0z" />
</svg>
