<?xml version="1.0" standalone="no"?>
<!DOCTYPE svg PUBLIC "-//W3C//DTD SVG 1.1//EN" "http://www.w3.org/Graphics/SVG/1.1/DTD/svg11.dtd" >
<svg xmlns="http://www.w3.org/2000/svg" xmlns:xlink="http://www.w3.org/1999/xlink" version="1.1" viewBox="-10 -40 532 512">
   <path fill="currentColor"
d="M480 217q-1 -61 -30 -112v0v0q-30 -51 -82 -82q-53 -30 -112 -30t-112 30q-52 31 -82 82q-29 51 -30 112q1 61 30 112q30 51 82 82q53 30 112 30t112 -30q52 -31 82 -82q29 -51 30 -112v0zM0 217q1 -70 34 -128v0v0q34 -58 94 -94q61 -34 128 -34t128 34q60 36 94 94
q33 58 34 128q-1 70 -34 128q-34 58 -94 94q-61 34 -128 34t-128 -34q-60 -36 -94 -94q-33 -58 -34 -128v0zM357 116q-44 -41 -101 -41v0v0q-57 0 -101 41l-22 -22v0q53 -51 123 -51t123 51q51 53 51 123t-51 123l-22 -22v0q41 -44 41 -101t-41 -101v0zM224 162l11 12
l-11 -12l11 12l64 64v0l12 11v0l-23 23v0l-11 -12v0l-64 -64v0l-12 -11v0l23 -23v0zM144 178l11 12l-11 -12l11 12l128 128v0l12 11v0l-23 23v0l-11 -12v0l-128 -128v0l-12 -11v0l23 -23v0zM128 258l11 12l-11 -12l11 12l64 64v0l12 11v0l-23 23v0l-11 -12v0l-64 -64v0
l-12 -11v0l23 -23v0z" />
</svg>
