<?xml version="1.0" standalone="no"?>
<!DOCTYPE svg PUBLIC "-//W3C//DTD SVG 1.1//EN" "http://www.w3.org/Graphics/SVG/1.1/DTD/svg11.dtd" >
<svg xmlns="http://www.w3.org/2000/svg" xmlns:xlink="http://www.w3.org/1999/xlink" version="1.1" viewBox="-10 -40 404 512">
   <path fill="currentColor"
d="M35 112l93 -119l-93 119l93 -119h128v0l93 119v0l-93 329v0h-128v0l-93 -329v0zM104 473h176h-176h176l104 -368v0l-112 -144v0h-160v0l-112 144v0l104 368v0zM208 73v-16v16v-16h-32v0v16v0v64v0h-64h-16v32v0h16h64v128v0v16v0h32v0v-16v0v-128v0h64h16v-32v0h-16h-64
v-64v0z" />
</svg>
