<?xml version="1.0" standalone="no"?>
<!DOCTYPE svg PUBLIC "-//W3C//DTD SVG 1.1//EN" "http://www.w3.org/Graphics/SVG/1.1/DTD/svg11.dtd" >
<svg xmlns="http://www.w3.org/2000/svg" xmlns:xlink="http://www.w3.org/1999/xlink" version="1.1" viewBox="-10 -40 594 512">
   <path fill="currentColor"
d="M251 -39h74h-74h90v16v0v59v0h59h16v16v0v74v0v16v0h-16h-59v59v0v16v0h-16h-90v-16v0v-59v0h-59h-16v-16v0v-74v0v-16v0h16h59v-59v0v-16v0h16v0zM267 52v16v-16v16h-16h-59v42v0h59h16v16v0v59v0h42v0v-59v0v-16v0h16h59v-42v0h-59h-16v-16v0v-59v0h-42v0v59v0z
M171 265h5h-5h229v16v0v64v0v0v0l104 -62v0l13 -8v0l9 14v0l40 64v0l8 13v0l-13 9v0l-152 96v0l-4 2v0h-5h-400v-32v0h16h379l135 -85v0l-23 -37v0l-94 56v0l-4 2v0h-4h-165v-32v0h16h112v-48v0h-187v0l-92 61v0l-4 3v0h-5h-80v-32v0h16h59l92 -61v0l4 -3v0z" />
</svg>
