<?xml version="1.0" standalone="no"?>
<!DOCTYPE svg PUBLIC "-//W3C//DTD SVG 1.1//EN" "http://www.w3.org/Graphics/SVG/1.1/DTD/svg11.dtd" >
<svg xmlns="http://www.w3.org/2000/svg" xmlns:xlink="http://www.w3.org/1999/xlink" version="1.1" viewBox="-10 -40 660 512">
   <path fill="currentColor"
d="M32 185q2 -82 56 -136v0v0q54 -54 136 -56h24v0q68 2 113 47t47 113v7v0l5 5v0l67 59v0v41v0h-48h-16v16v0v8v0v8v0v10v0l-98 14v0l-14 2v0v14v0v40v0v15v0l15 1v0l81 7v0v17v0h-96h-16v16v0v24v0v16v0h32v0v-16v0v-8v0h96h16v-16v0v-48v0v-15v0l-15 -1v0l-81 -7v0v-11v0
l98 -14v0l14 -2v0v-14v0v-24v0v0v0h48h16v-16v0v-64v0v-7v0l-5 -5v0l-67 -59v0q-5 -79 -59 -131q-53 -52 -133 -54h-24v0q-63 1 -113 31q-51 29 -80 80q-30 50 -31 113q0 46 17 86t47 71v115v0v16v0h32v0v-16v0v-122v0v-7v0l-5 -4v0q-57 -55 -59 -139v0zM344 185
q22 -2 24 -24q-2 -22 -24 -24q-22 2 -24 24q2 22 24 24v0zM512 353q-2 -22 -24 -24q-22 2 -24 24q2 22 24 24q22 -2 24 -24v0zM616 377q22 -2 24 -24q-2 -22 -24 -24q-22 2 -24 24q2 22 24 24v0zM640 449q-2 -22 -24 -24q-22 2 -24 24q2 22 24 24q22 -2 24 -24v0zM552 329
q22 -2 24 -24q-2 -22 -24 -24q-22 2 -24 24q2 22 24 24v0zM640 257q-2 -22 -24 -24q-22 2 -24 24q2 22 24 24q22 -2 24 -24v0zM552 425q22 -2 24 -24q-2 -22 -24 -24q-22 2 -24 24q2 22 24 24v0z" />
</svg>
