<?xml version="1.0" standalone="no"?>
<!DOCTYPE svg PUBLIC "-//W3C//DTD SVG 1.1//EN" "http://www.w3.org/Graphics/SVG/1.1/DTD/svg11.dtd" >
<svg xmlns="http://www.w3.org/2000/svg" xmlns:xlink="http://www.w3.org/1999/xlink" version="1.1" viewBox="-10 -40 532 512">
   <path fill="currentColor"
d="M32 185q2 -82 56 -136v0v0q54 -54 136 -56h24v0q68 2 113 47t47 113v7v0l5 5v0l67 59v0v41v0h-48h-16v16v0v96v0h-112h-16v16v0v64v0v16v0h32v0v-16v0v-48v0h112h16v-16v0v-96v0h48h16v-16v0v-64v0v-7v0l-5 -5v0l-67 -59v0q-5 -79 -59 -131q-53 -52 -133 -54h-24v0
q-63 1 -113 31q-51 29 -80 80q-30 50 -31 113q0 46 17 86t47 71v115v0v16v0h32v0v-16v0v-122v0v-7v0l-5 -4v0q-57 -55 -59 -139v0zM337 79l-22 -23l22 23l-22 -23l-12 11v0q-19 17 -40 8t-23 -34v-16v0h-32v0v16v0q-2 25 -23 34t-40 -8l-11 -11v0l-23 23v0l11 11v0
q17 19 8 40t-34 23h-16v0v32v0h16v0q25 2 34 23t-8 40l-11 12v0l23 22v0l11 -11v0q19 -17 40 -8t23 34v16v0h32v0v-16v0q2 -25 23 -34t40 8l12 11v0l22 -23v0l-11 -11v0q-17 -19 -8 -40t34 -23h16v0v-32v0h-16v0q-25 -2 -34 -23t8 -40l11 -11v0zM283 110q-2 35 25 59
q-27 24 -25 59q-35 -2 -59 25q-24 -27 -59 -25q2 -35 -25 -59q27 -24 25 -59q35 2 59 -25q11 14 27 20q15 6 32 5v0zM208 177q22 -2 24 -24q-2 -22 -24 -24q-22 2 -24 24q2 22 24 24v0zM240 217q15 -1 16 -16q-1 -15 -16 -16q-15 1 -16 16q1 15 16 16v0z" />
</svg>
