<?xml version="1.0" standalone="no"?>
<!DOCTYPE svg PUBLIC "-//W3C//DTD SVG 1.1//EN" "http://www.w3.org/Graphics/SVG/1.1/DTD/svg11.dtd" >
<svg xmlns="http://www.w3.org/2000/svg" xmlns:xlink="http://www.w3.org/1999/xlink" version="1.1" viewBox="-10 -40 660 512">
   <path fill="currentColor"
d="M336 -23v128v-128v128h-32v0v-128v0v-16v0h32v0v16v0zM256 89v60v-60v60l-32 -32v0v-28v0h-56v0q-34 46 -62 96q-29 49 -51 99q-22 51 -23 100q1 24 17 40t40 17q34 -1 76 -13q14 -5 31 -10q4 -1 9 -3v0l26 26v0q-8 2 -17 5q-4 1 -7 2v0v0q-30 10 -59 17q-30 8 -59 8
q-38 -1 -63 -26t-26 -63q2 -56 26 -112q24 -55 52 -103q34 -58 74 -112h72h32v32v0zM444 418q17 5 32 10q41 12 75 13q24 -1 40 -17t17 -40q-1 -49 -23 -100q-22 -50 -51 -99q-28 -50 -62 -96h-56v0v28v0l-32 32v0v-60v0v-32v0h32h72q40 54 74 112q28 48 52 103
q24 56 26 112q-1 38 -26 63t-63 26q-29 0 -59 -8q-29 -7 -59 -17l-8 -2q-8 -3 -16 -5l26 -26v0q2 1 5 2q2 0 5 1h-1zM433 191l-11 11l11 -11l-11 11q-17 19 -8 40t34 23h16v0v32v0h-16v0q-25 2 -34 23t8 40l11 12v0l-23 22v0l-11 -11v0q-19 -17 -40 -8t-23 34v16v0h-32v0
v-16v0q-2 -25 -23 -34t-40 8l-11 11v0l-23 -23v0l11 -11v0q17 -19 8 -40t-34 -23h-16v0v-32v0h16v0q25 -2 34 -23t-8 -40l-11 -11v0l23 -23v0l11 11v0q19 17 40 8t23 -34v-16v0h32v0v16v0q2 25 23 34t40 -8l12 -11v0l22 23v0zM379 222q-17 1 -32 -5q-16 -6 -27 -19
q-24 26 -59 24q2 35 -25 59q27 24 25 59q35 -2 59 25q24 -27 59 -25q-2 -35 25 -59q-27 -24 -25 -59v0zM304 241q22 2 24 24q-2 22 -24 24q-22 -2 -24 -24q2 -22 24 -24v0zM336 297q15 1 16 16q-1 15 -16 16q-15 -1 -16 -16q1 -15 16 -16v0z" />
</svg>
