<?xml version="1.0" standalone="no"?>
<!DOCTYPE svg PUBLIC "-//W3C//DTD SVG 1.1//EN" "http://www.w3.org/Graphics/SVG/1.1/DTD/svg11.dtd" >
<svg xmlns="http://www.w3.org/2000/svg" xmlns:xlink="http://www.w3.org/1999/xlink" version="1.1" viewBox="-10 -40 458 512">
   <path fill="currentColor"
d="M144 -39h96h-96h112v16v0v32v0h96h7l4 5v0l48 48v0l12 11v0l-23 23v0l-11 -12v0l-44 -43v0h-89v0v48v0h-32v0v-96v0h-64v0v96v0h-32v0v-112v0v-16v0h16v0zM64 473h-32h32h-32l2 -32v0l22 -320v0h272v0l22 320v0l2 32v0h-32h-256zM66 441h252h-252h252l-20 -288v0h-212v0
l-20 288v0zM192 198l13 18l-13 -18l13 18l45 62v0q14 19 14 43q-1 30 -21 51q-20 20 -51 21q-31 -1 -51 -21q-20 -21 -21 -51q0 -24 14 -43l45 -62v0l13 -18v0zM192 252l-32 45l32 -45l-32 45q-8 11 -8 24q0 17 12 28q11 12 28 12t28 -12q12 -11 12 -28q0 -13 -8 -24
l-32 -45v0z" />
</svg>
