<?xml version="1.0" standalone="no"?>
<!DOCTYPE svg PUBLIC "-//W3C//DTD SVG 1.1//EN" "http://www.w3.org/Graphics/SVG/1.1/DTD/svg11.dtd" >
<svg xmlns="http://www.w3.org/2000/svg" xmlns:xlink="http://www.w3.org/1999/xlink" version="1.1" viewBox="-10 -40 660 512">
   <path fill="currentColor"
d="M608 185h32h-32h32v-32v0v-16v0l-96 -176v0h-445v0l41 32v0h385v0l83 152v0v8v0h-48h-218l41 32v0h161v0v127v0l32 26v0v-153v0h32v0zM0 137v16v-16v16v32v0h32h32v272v0v16v0h16h304v-16v0v-108v0l-46 -36v0h-242v0v-128v0h80v0l-40 -32v0h-40h-64v-8v0l28 -51v0
l-25 -21v0l-35 64v0zM96 441v-96v96v-96h256v0v96v0h-256v0zM40 -21l-12 -10l12 10l-12 -10l-20 25v0l13 10v0l579 451v0l12 10v0l20 -25v0l-12 -10v0l-580 -451v0z" />
</svg>
