<?xml version="1.0" standalone="no"?>
<!DOCTYPE svg PUBLIC "-//W3C//DTD SVG 1.1//EN" "http://www.w3.org/Graphics/SVG/1.1/DTD/svg11.dtd" >
<svg xmlns="http://www.w3.org/2000/svg" xmlns:xlink="http://www.w3.org/1999/xlink" version="1.1" viewBox="-10 -40 532 512">
   <path fill="currentColor"
d="M384 44v0v0v0q-30 25 -61 12q-32 -13 -35 -51v-12v0v0v0v-32v0h-32v0v0v0v0v0h-32v0v32v0v0v0v12v0q-3 38 -35 51q-31 13 -61 -12l-8 -8v0v0v0l-22 -23v0l-23 23v0v0v0v0v0v0v0v0v0l-23 23v0l23 22v0v0v0l8 8v0v0v0q25 30 12 61q-13 32 -51 35h-12v0v0v0h-32v0v32v0v0v0
v0v0v32v0h32v0v0v0h12v0q38 3 51 35q13 31 -12 61l-8 8v0v0v0l-23 22v0l23 23v0v0v0v0v0v0v0l23 23v0l22 -23v0v0v0l8 -8v0v0v0q30 -26 61 -12q32 13 35 51v12v0v0v0v32v0h32v0v0v0v0v0h32v0v-32v0v0v0v-11v0q3 -39 35 -52q31 -13 61 12l8 8v0v0v0l22 23v0l23 -23v0v0v0v0v0
l23 -22v0l-23 -23v0v0v0l-8 -8v0q-26 -30 -12 -61q13 -32 51 -35h12v0v0v0h32v0v-32v0v0v0v0v0v-32v0h-32v0v0v0h-11v0q-39 -3 -52 -35q-13 -31 12 -61l8 -8v0v0v0l23 -22v0l-23 -23v0v0v0v0v0l-23 -23v0l-22 23v0v0v0l-8 8v0zM414 58h1h-1h1v0v0v1v0l-9 8v0q-27 29 -25 63
q1 35 24 60q24 25 63 27h12v0v0v0v0v0v0v0v0v0h-11v0q-40 1 -64 27q-23 25 -24 60q-2 34 26 63l8 8v0v0v0v1v0v0v0h-1v0l-8 -9v0q-29 -27 -63 -26q-35 2 -60 25q-25 24 -27 63v12v0v0v0v0v0v0v0v0v0v-11v0q-2 -40 -27 -64q-25 -23 -60 -24q-34 -2 -63 26v0v0v0v0v0v0l-8 8v0
v0v0v0v0v0v0v0v0v0v0l-1 -1v0h1v0l8 -8v0q27 -29 26 -63q-2 -35 -25 -60q-24 -26 -63 -27h-12v0v0v0v0v0v0v0v0v0h12v0q39 -2 63 -27q23 -25 24 -60q2 -34 -25 -63v0v0v0v0l-9 -8v0v0v0v-1v0v0v0v0v0h1v0v0v0l8 9v0q29 27 63 25q35 -1 60 -24q25 -24 27 -63v-12v0v0v0v0v0v0
v0v0v0v12v0q1 39 27 63q25 23 59 24q35 2 64 -25v0v0v0v0l8 -9v0v0v0zM224 169q15 1 16 16q-1 15 -16 16q-15 -1 -16 -16q1 -15 16 -16v0zM224 233q27 -1 42 -24q12 -24 0 -48q-15 -23 -42 -24q-27 1 -42 24q-12 24 0 48q15 23 42 24v0zM304 289q22 -2 24 -24
q-2 -22 -24 -24q-22 2 -24 24q2 22 24 24v0z" />
</svg>
