<?xml version="1.0" standalone="no"?>
<!DOCTYPE svg PUBLIC "-//W3C//DTD SVG 1.1//EN" "http://www.w3.org/Graphics/SVG/1.1/DTD/svg11.dtd" >
<svg xmlns="http://www.w3.org/2000/svg" xmlns:xlink="http://www.w3.org/1999/xlink" version="1.1" viewBox="-10 -40 652 512">
   <path fill="currentColor"
d="M533 249h11h-11h11v0v0h32v0v-32v0v0v0v0v0v-32v0h-32v0v0v0h-11v0q-39 -3 -52 -35q-13 -31 12 -61l8 -8v0v0v0l23 -22v0l-23 -23v0v0v0v0v0l-23 -23v0l-22 23v0v0v0l-8 8v0v0v0q-30 25 -61 12q-32 -13 -35 -51v-12v0v0v0v-32v0h-32v0v0v0v0v0h-32v0v32v0v0v0v12v0
q-1 27 -20 42q-19 16 -43 13l35 28v0q25 -9 42 -30q17 -22 18 -53v-12v0v0v0v0v0v0v0v0v0v12v0q2 39 27 63q25 23 60 24q34 2 63 -25v0v0v0v0l8 -9v0v0v0h1v0v1v0v0v0l-9 8v0q-27 29 -26 63q2 35 25 60q24 25 63 27h12v0v0v0v0v0v0v0v0v0h-11v0q-45 2 -68 32l24 20v0
q16 -19 44 -20v0zM151 165q-16 19 -43 20h-12v0v0v0h-32v0v32v0v0v0v0v0v32v0h32v0v0v0h12v0q38 3 51 35q13 31 -12 61l-8 8v0v0v0l-23 22v0l23 23v0v0v0v0v0v0v0l23 23v0l22 -23v0v0v0l8 -8v0v0v0q30 -26 61 -12q32 13 35 51v12v0v0v0v32v0h32v0v0v0v0v0h32v0v-32v0v0v0
v-11v0q1 -28 20 -43q19 -16 43 -13l-35 -28v0q-25 9 -42 31q-17 21 -18 53v11v0v0v0v0v0v0v0v0v0v-11v0q-2 -40 -27 -64q-25 -23 -60 -24q-34 -2 -63 26v0v0v0v0v0v0l-8 8v0v0v0v0v0v0v0v0v0v0v0l-1 -1v0h1v0l8 -8v0q27 -29 26 -63q-2 -35 -25 -60q-24 -26 -63 -27h-12v0v0
v0v0v0v0v0v0v0h12v0q44 -2 68 -32l-25 -20v0zM40 -21l-12 -10l12 10l-12 -10l-20 25v0l13 10v0l579 451v0l12 10v0l20 -25v0l-12 -10v0l-580 -451v0z" />
</svg>
