<?xml version="1.0" standalone="no"?>
<!DOCTYPE svg PUBLIC "-//W3C//DTD SVG 1.1//EN" "http://www.w3.org/Graphics/SVG/1.1/DTD/svg11.dtd" >
<svg xmlns="http://www.w3.org/2000/svg" xmlns:xlink="http://www.w3.org/1999/xlink" version="1.1" viewBox="-10 -40 660 512">
   <path fill="currentColor"
d="M345 34l-27 27l27 -27l-27 27q-18 21 -9 43q9 23 37 25h38v0v48v0h-38v0q-28 2 -37 25q-9 22 9 43l27 27v0l-34 34v0l-27 -27v0q-21 -18 -43 -9q-23 9 -25 37v38v0h-48v0v-38v0q-2 -28 -25 -37q-22 -9 -43 9l-27 27v0l-34 -34v0l27 -27v0q18 -21 9 -43q-9 -23 -37 -25
h-38v0v-48v0h38v0q28 -2 39 -24q10 -21 -11 -44l-27 -27v0l34 -34v0l27 27v0q21 18 43 9q23 -9 25 -37v-38v0h48v0v38v0q2 28 25 37q22 9 43 -9l27 -27v0l34 34v0zM278 67q-23 7 -44 0q-28 -8 -42 -34q-13 23 -36 32q-23 10 -48 3q9 26 -2 51q-11 23 -34 34q23 13 33 37
q9 24 1 49q26 -8 49 2q24 9 37 32q13 -23 37 -32q23 -10 49 -2q-8 -26 2 -49q9 -24 32 -37q-23 -13 -32 -37q-10 -23 -2 -49v0zM168 105q22 2 24 24q-2 22 -24 24q-22 -2 -24 -24q2 -22 24 -24v0zM208 185q1 -15 16 -16q15 1 16 16q-1 15 -16 16q-15 -1 -16 -16v0zM464 313
q1 -15 16 -16q15 1 16 16q-1 15 -16 16q-15 -1 -16 -16v0zM587 216l22 23l-22 -23l22 23l-11 11v0q-17 19 -8 40t34 23h16v0v32v0h-16v0q-25 2 -34 23t8 40l11 12v0l-22 22v0l-12 -11v0q-19 -17 -40 -8t-23 34v16v0h-32v0v-16v0q-2 -25 -23 -34t-40 8l-11 11v0l-23 -23v0
l11 -11v0q17 -19 8 -40t-34 -23h-16v0v-32v0h16v0q25 -2 34 -23t-8 -40l-11 -11v0l23 -23v0l11 11v0q19 17 40 8t23 -34v-16v0h32v0v16v0q2 25 23 34t40 -8l12 -11v0zM555 270q-14 1 -27 -3q-19 -6 -32 -21q-24 26 -59 24q2 35 -25 59q27 24 25 59q35 -2 59 25
q24 -27 59 -25q-2 -35 25 -59q-27 -24 -25 -59v0z" />
</svg>
