<?xml version="1.0" standalone="no"?>
<!DOCTYPE svg PUBLIC "-//W3C//DTD SVG 1.1//EN" "http://www.w3.org/Graphics/SVG/1.1/DTD/svg11.dtd" >
<svg xmlns="http://www.w3.org/2000/svg" xmlns:xlink="http://www.w3.org/1999/xlink" version="1.1" viewBox="-10 -40 394 512">
   <path fill="currentColor"
d="M178 89h-18h18h-18v-18v0v-14v0v-16v0q1 -34 23 -57q23 -22 57 -23h16h32v18v0v14v0v16v0q-1 34 -23 57q-23 22 -57 23h-16h-14zM240 -7q-20 1 -34 14v0v0q-13 14 -14 34v16v0h16v0q20 -1 34 -14q13 -14 14 -34v-16v0h-16v0zM80 89l112 32l-112 -32l112 32l112 -32v0
q21 0 38 8q15 7 28 19q-14 9 -26 20q-54 50 -56 129q0 41 17 75q16 35 45 59q7 6 15 12q-10 13 -22 24q-40 37 -87 38l-64 -16v0l-64 16v0q-47 -1 -87 -39q-12 -10 -22 -24q8 -5 15 -11q29 -24 45 -59q17 -34 17 -75q-2 -79 -56 -129q-12 -11 -26 -20q12 -12 28 -19
q17 -8 38 -8v0zM201 152l-9 2l9 -2l-9 2l-9 -2v0l-107 -31v0q-3 0 -5 1v0q55 58 57 143q0 44 -17 82q-16 38 -46 67q30 26 59 27l60 -15v0l8 -2v0l8 2v0l60 15v0q29 -2 59 -27q-30 -29 -46 -67q-17 -38 -17 -82q2 -85 57 -143q-2 -1 -5 -1l-107 31v0z" />
</svg>
