<?xml version="1.0" standalone="no"?>
<!DOCTYPE svg PUBLIC "-//W3C//DTD SVG 1.1//EN" "http://www.w3.org/Graphics/SVG/1.1/DTD/svg11.dtd" >
<svg xmlns="http://www.w3.org/2000/svg" xmlns:xlink="http://www.w3.org/1999/xlink" version="1.1" viewBox="-10 -40 532 512">
   <path fill="currentColor"
d="M267 -26l-11 -12l11 12l-11 -12l-11 12v0l-104 104v0l-12 11v0l23 23v0l11 -12v0l77 -76v0v257v0v16v0h32v0v-16v0v-257v0l77 76v0l11 12v0l23 -23v0l-12 -11v0l-104 -104v0zM16 -7h-16h16h-16v16v0v448v0v16v0h16h496v-16v0v-448v0v-16v0h-16h-96v32v0h16h64v416v0h-448
v0v-416v0h64h16v-32v0h-16h-80z" />
</svg>
