<?xml version="1.0" standalone="no"?>
<!DOCTYPE svg PUBLIC "-//W3C//DTD SVG 1.1//EN" "http://www.w3.org/Graphics/SVG/1.1/DTD/svg11.dtd" >
<svg xmlns="http://www.w3.org/2000/svg" xmlns:xlink="http://www.w3.org/1999/xlink" version="1.1" viewBox="-10 -40 532 512">
   <path fill="currentColor"
d="M16 -39h-16h16h-16v16v0v160v0v16v0h32v0v-16v0v-121v0l269 268v0l11 12v0l23 -23v0l-12 -11v0l-268 -269v0h121h16v-32v0h-16h-160zM288 25h-16h16h-16v32v0h16v0q82 2 136 56t56 136q-2 82 -56 136t-136 56q-82 -2 -136 -56t-56 -136v-16v0h-32v0v16v0q1 63 31 113
q29 51 80 80q50 30 113 31q63 -1 113 -31q51 -29 80 -80q30 -50 31 -113q-1 -63 -31 -113q-29 -51 -80 -80q-50 -30 -113 -31v0z" />
</svg>
