<?xml version="1.0" standalone="no"?>
<!DOCTYPE svg PUBLIC "-//W3C//DTD SVG 1.1//EN" "http://www.w3.org/Graphics/SVG/1.1/DTD/svg11.dtd" >
<svg xmlns="http://www.w3.org/2000/svg" xmlns:xlink="http://www.w3.org/1999/xlink" version="1.1" viewBox="-10 -40 522 512">
   <path fill="currentColor"
d="M56 -6l11 12l-11 -12l11 12l125 124v0v-105v0v-16v0h32v0v16v0v144v0v16v0h-16h-160v-32v0h16h105l-124 -125v0l-12 -11v0l23 -23v0zM479 17l-12 11l12 -11l-12 11l-124 125v0h105h16v32v0h-16h-160v-16v0v-144v0v-16v0h32v0v16v0v105v0l125 -124v0l11 -12v0l23 23v0z
M48 281v-32v32v-32h16h160v16v0v144v0v16v0h-32v0v-16v0v-105v0l-125 124v0l-11 12v0l-23 -23v0l12 -11v0l124 -125v0h-105h-16zM288 249h16h-16h176v32v0h-16h-105l124 125v0l12 11v0l-23 23v0l-11 -12v0l-125 -124v0v105v0v16v0h-32v0v-16v0v-144v0v-16v0z" />
</svg>
