<?xml version="1.0" standalone="no"?>
<!DOCTYPE svg PUBLIC "-//W3C//DTD SVG 1.1//EN" "http://www.w3.org/Graphics/SVG/1.1/DTD/svg11.dtd" >
<svg xmlns="http://www.w3.org/2000/svg" xmlns:xlink="http://www.w3.org/1999/xlink" version="1.1" viewBox="-10 -40 596 512">
   <path fill="currentColor"
d="M254 -21l-8 14l8 -14l-8 14l-91 160v0h266v0l-91 -160v0l-8 -14v0l28 -16v0l8 14v0l99 176v0h54h65v32v0h-40v0l-72 288v0h-352v0l-72 -288v0h-40v0v-32v0h32h87l99 -176v0l8 -14v0l28 16v0zM503 185h-430h430h-430l64 256v0h302v0l64 -256v0zM144 257q2 -22 24 -24
q22 2 24 24q-2 22 -24 24q-22 -2 -24 -24v0zM408 233q22 2 24 24q-2 22 -24 24q-22 -2 -24 -24q2 -22 24 -24v0z" />
</svg>
