<?xml version="1.0" standalone="no"?>
<!DOCTYPE svg PUBLIC "-//W3C//DTD SVG 1.1//EN" "http://www.w3.org/Graphics/SVG/1.1/DTD/svg11.dtd" >
<svg xmlns="http://www.w3.org/2000/svg" xmlns:xlink="http://www.w3.org/1999/xlink" version="1.1" viewBox="-10 -40 596 512">
   <path fill="currentColor"
d="M227 -26l-11 -12l11 12l-11 -12l-23 23v0l12 11v0l23 24v0q-19 22 -20 53q0 5 1 9q-36 -24 -81 -25q-51 1 -88 31q-38 30 -40 81q1 47 34 76q33 30 79 35q-1 -7 -1 -15q0 -9 1 -17q-36 -5 -58 -27t-23 -52q1 -34 28 -56q27 -23 68 -24q31 0 55 14q23 14 34 37
q-33 19 -53 51q-20 33 -20 74q3 49 37 97q35 47 70 78q34 32 37 33q3 -1 37 -33q35 -31 70 -78q34 -48 37 -97q0 -41 -20 -74q-20 -32 -53 -51q11 -23 34 -37q24 -14 55 -14q41 1 68 24q27 22 28 56q-1 30 -23 52t-58 27q1 8 1 17q0 8 -1 15q46 -5 79 -35q33 -29 34 -76
q-2 -51 -40 -81q-37 -30 -88 -31q-45 1 -80 25v-9q-1 -31 -20 -53l23 -24v0l12 -11v0l-23 -23v0l-11 12v0l-27 27v0q-16 -8 -34 -8t-34 8l-27 -27v0zM288 25q27 1 42 24q12 24 0 48q-15 23 -42 24q-27 -1 -42 -24q-12 -24 0 -48q15 -23 42 -24v0zM177 249q3 -17 10 -32h202
v0q7 15 10 32h-222v0zM210 185q31 -31 78 -32q47 1 78 32h-156v0zM398 281q-3 15 -11 32h-197v0q-9 -17 -12 -32h220v0zM367 345q-12 17 -25 32h-108v0q-13 -15 -25 -32h158v0zM312 409q-13 12 -23 21l-1 1v0l-1 -1v0q-10 -9 -23 -21h48v0z" />
</svg>
