<?xml version="1.0" standalone="no"?>
<!DOCTYPE svg PUBLIC "-//W3C//DTD SVG 1.1//EN" "http://www.w3.org/Graphics/SVG/1.1/DTD/svg11.dtd" >
<svg xmlns="http://www.w3.org/2000/svg" xmlns:xlink="http://www.w3.org/1999/xlink" version="1.1" viewBox="-10 -40 532 512">
   <path fill="currentColor"
d="M208 -39q-41 1 -69 29q-19 -13 -43 -13q-34 1 -57 23q-22 23 -23 57q1 34 23 57q23 22 57 23q24 0 43 -13q28 28 69 29q41 -1 69 -29q19 13 43 13q34 -1 57 -23q22 -23 23 -57q-1 -34 -23 -57q-23 -22 -57 -23q-24 0 -43 13q-28 -28 -69 -29v0zM155 21q19 -27 53 -28
q34 1 53 28l11 16v0l14 -14v0q13 -13 34 -14q20 1 34 14q13 14 14 34q-1 20 -14 34q-14 13 -34 14q-21 -1 -34 -14l-14 -14v0l-11 16v0q-19 27 -53 28q-34 -1 -53 -28l-11 -16v0l-14 14v0q-13 13 -34 14q-20 -1 -34 -14q-13 -14 -14 -34q1 -20 14 -34q14 -13 34 -14
q21 1 34 14l14 14v0l11 -16v0zM32 149v292v-292v292v32v0h32h320v-32v0v-45v0l118 -52v0l10 -4v0v-11v0v-160v0v-16v0h-16h-112v-4v0q-15 10 -32 15v221v0v0v0v56v0h-288v0v-277v0q-17 -5 -32 -15v0zM208 185h-16h16h-16v16v0v160v0v16v0h32v0v-16v0v-160v0v-16v0h-16v0z
M480 319l-96 42l96 -42l-96 42v-176v0h96v0v134v0zM160 201v-16v16v-16h-32v0v16v0v160v0v16v0h32v0v-16v0v-160v0zM288 201v-16v16v-16h-32v0v16v0v160v0v16v0h32v0v-16v0v-160v0z" />
</svg>
