<?xml version="1.0" standalone="no"?>
<!DOCTYPE svg PUBLIC "-//W3C//DTD SVG 1.1//EN" "http://www.w3.org/Graphics/SVG/1.1/DTD/svg11.dtd" >
<svg xmlns="http://www.w3.org/2000/svg" xmlns:xlink="http://www.w3.org/1999/xlink" version="1.1" viewBox="-10 -40 593 512">
   <path fill="currentColor"
d="M339 11l-35 134l35 -134l-35 134l-9 32v0l33 2v0l88 6v0v48v0l-279 209v0l-41 31v0l13 -50v0l36 -134v0l8 -32v0l-33 -2v0l-88 -6v0v-48v0l279 -209v0l41 -31v0l-13 50v0zM293 209l-39 -3l39 3l-39 -3l10 -37v0l34 -127v0l-234 175v0v2v0l91 6v0l39 3v0l-10 37v0l-34 127
v0l234 -175v0v-2v0l-91 -6v0zM454 249h21h-21h21l4 10v0l94 214v0h-35v0l-21 -48v0h-106v0l-21 48v0h-35v0l94 -214v0l5 -10v0zM464 305l-39 88l39 -88l-39 88h78v0l-39 -88v0z" />
</svg>
