<?xml version="1.0" standalone="no"?>
<!DOCTYPE svg PUBLIC "-//W3C//DTD SVG 1.1//EN" "http://www.w3.org/Graphics/SVG/1.1/DTD/svg11.dtd" >
<svg xmlns="http://www.w3.org/2000/svg" xmlns:xlink="http://www.w3.org/1999/xlink" version="1.1" viewBox="-10 -40 652 512">
   <path fill="currentColor"
d="M544 233v-48v48v-48l-88 -6v0l-33 -2v0l9 -32v0l35 -134v0l13 -50v0l-41 31v0l-154 116v0l26 20v0l115 -86v0l-34 127v0l-5 19v0l25 20v0l9 1v0l91 6v0v2v0l-45 34v0l26 21v0l51 -39v0zM179 187l-19 14l19 -14l-19 14v48v0l88 6v0l18 1v0l-44 -35v0l-30 -2v0v-2v0l13 -9
v0l-26 -21v0zM279 266l-6 23l6 -23l-6 23l-36 134v0l-13 50v0l41 -31v0l122 -91v0l-26 -20v0l-83 61v0l28 -104v0l-27 -22v0zM40 -21l-12 -10l12 10l-12 -10l-20 25v0l13 10v0l579 451v0l12 10v0l20 -25v0l-12 -10v0l-580 -451v0z" />
</svg>
