<?xml version="1.0" standalone="no"?>
<!DOCTYPE svg PUBLIC "-//W3C//DTD SVG 1.1//EN" "http://www.w3.org/Graphics/SVG/1.1/DTD/svg11.dtd" >
<svg xmlns="http://www.w3.org/2000/svg" xmlns:xlink="http://www.w3.org/1999/xlink" version="1.1" viewBox="-10 -40 660 512">
   <path fill="currentColor"
d="M144 -36l23 12l-23 -12l23 12l64 32v0l9 4v0v10v0v195v0v16v0h-32v0v-16v0v-185v0l-32 -16v0v201v0v16v0h-32v0v-16v0v-227v0v-26v0zM302 167l-30 42l30 -42l-30 42v-39v0l27 -124v0l-27 5v0v-33v0l45 -9v0l24 -4v0l-5 23v0l-29 131v0l-5 8v0zM333 153l19 -99l-19 99
l19 -99l32 6v0l-16 77v0q-19 7 -35 16v0v0zM112 265h144h-144h144v32v0h-144h-18l-9 -15v0l-39 -65v0h-6v0l50 224v0h166v0v32v0h-192v0l-57 -256v0l-7 -32v0h33h31l48 80v0zM19 153l-19 -93l19 93l-19 -93l32 -6v0l20 99v0h-33v0zM82 167l-2 -3l2 3l-2 -3l-24 -144v0
l-2 -12v0l11 -5v0l47 -24v0v36v0l-22 11v0l33 199v0l-41 -58v0zM326 247q-4 4 -6 7v11v0h288v0v-11v0q-2 -3 -5 -7q-9 -11 -27 -25q-7 -6 -16 -12q-2 14 -16 15q-14 -2 -16 -16q0 -7 5 -12q-23 -9 -55 -12q2 4 2 8q-1 15 -16 16q-14 -1 -16 -16q0 -4 2 -8q-31 3 -55 12
q5 5 5 12q-1 14 -16 16q-13 -1 -16 -15q-9 6 -16 12q-18 14 -26 25v0zM638 241l2 3l-2 -3l2 3v5v0v32v0v16v0h-16h-336v-16v0v-32v0v-5v0l2 -3v0l14 8v0q-10 -6 -12 -7q-2 -2 -2 -1v0v0v0v0v-1v0h1v0v-1q1 0 1 -2q1 0 1 -1v0q3 -4 8 -10q10 -13 31 -30t54 -30q33 -12 78 -13
q45 1 78 13q33 13 54 30t31 30q5 6 8 10v0q1 2 2 3q0 1 1 1v0v0v1v0v0v0v0v0q0 -1 -2 1q-2 1 -12 7l14 -8v0zM288 321h16h-16h352v32v0h-16h-336v-32v0zM288 377h16h-16h352v16v0v64v0v16v0h-16h-336v-16v0v-64v0v-16v0zM320 409v32v-32v32h288v0v-32v0h-288v0z" />
</svg>
