<?xml version="1.0" standalone="no"?>
<!DOCTYPE svg PUBLIC "-//W3C//DTD SVG 1.1//EN" "http://www.w3.org/Graphics/SVG/1.1/DTD/svg11.dtd" >
<svg xmlns="http://www.w3.org/2000/svg" xmlns:xlink="http://www.w3.org/1999/xlink" version="1.1" viewBox="-10 -40 468 512">
   <path fill="currentColor"
d="M128 -23v-16v16v-16h-32v0v16v0v48v0h-64h-32v32v0v64v0v32v0v288v0v32v0h32h416v-32v0v-288v0v-32v0v-64v0v-32v0h-32h-64v-48v0v-16v0h-32v0v16v0v48v0h-192v0v-48v0zM32 153h384h-384h384v288v0h-384v0v-288v0zM32 57h384h-384h384v64v0h-384v0v-64v0zM216 218
q-18 -17 -42 -17h-3v0q-25 1 -42 17q-16 17 -17 42q0 25 18 43l83 80v0l11 10v0l11 -11v0l83 -79v0q18 -18 18 -43q-1 -25 -17 -42q-17 -16 -42 -17h-2v0q-25 0 -43 17l-8 7v0l-8 -7v0zM296 280l-72 69l72 -69l-72 69l-72 -69v0q-8 -8 -8 -20q0 -11 8 -19t19 -8h3v0
q12 0 20 8l8 8v0l22 21v0l22 -21v0l8 -8v0q9 -8 20 -8h3v0q11 0 19 8t8 19q0 12 -8 20v0z" />
</svg>
