<?xml version="1.0" standalone="no"?>
<!DOCTYPE svg PUBLIC "-//W3C//DTD SVG 1.1//EN" "http://www.w3.org/Graphics/SVG/1.1/DTD/svg11.dtd" >
<svg xmlns="http://www.w3.org/2000/svg" xmlns:xlink="http://www.w3.org/1999/xlink" version="1.1" viewBox="-10 -40 532 512">
   <path fill="currentColor"
d="M32 9v-16v16v-16h-32v0v16v0v416v0v16v0h16h496v-32v0h-16h-464v-400v0zM320 9v-16v16v-16h-32v0v16v0v48v0h-32v0v32v0v96v0v32v0h32v0v48v0v16v0h32v0v-16v0v-48v0h32v0v-32v0v-96v0v-32v0h-32v0v-48v0zM192 25h-32h32h-32v16v0v48v0h-32v0v32v0v128v0v32v0h32v0v48v0
v16v0h32v0v-16v0v-48v0h32v0v-32v0v-128v0v-32v0h-32v0v-48v0v-16v0zM320 89v96v-96v96h-32v0v-96v0h32v0zM448 185v64v-64v64h-32v0v-64v0h32v0zM416 153h-32h32h-32v32v0v64v0v32v0h32v0v48v0v16v0h32v0v-16v0v-48v0h32v0v-32v0v-64v0v-32v0h-32v0v-48v0v-16v0h-32v0v16v0
v48v0zM160 121h32h-32h32v128v0h-32v0v-128v0z" />
</svg>
