<?xml version="1.0" standalone="no"?>
<!DOCTYPE svg PUBLIC "-//W3C//DTD SVG 1.1//EN" "http://www.w3.org/Graphics/SVG/1.1/DTD/svg11.dtd" >
<svg xmlns="http://www.w3.org/2000/svg" xmlns:xlink="http://www.w3.org/1999/xlink" version="1.1" viewBox="-10 -40 532 512">
   <path fill="currentColor"
d="M18 409l-18 32l18 -32l-18 32h37h475l-18 -32v0l-220 -384v0l-18 -32v0l-18 32v0l-220 384v0zM311 153h-110h110h-110l55 -95v0l55 95v0zM329 185l55 96l-55 -96l55 96h-256v0l55 -96v0h146v0zM402 313l55 96l-55 -96l55 96h-402v0l55 -96v0h292v0z" />
</svg>
