<?xml version="1.0" standalone="no"?>
<!DOCTYPE svg PUBLIC "-//W3C//DTD SVG 1.1//EN" "http://www.w3.org/Graphics/SVG/1.1/DTD/svg11.dtd" >
<svg xmlns="http://www.w3.org/2000/svg" xmlns:xlink="http://www.w3.org/1999/xlink" version="1.1" viewBox="-13 0 537 512">
   <path fill="currentColor"
d="M136 -7h-9h9h-9l-5 8v0l-120 208v0l-5 8v0l5 8v0l120 208v0l5 8v0h9h249l5 -8v0l120 -208v0l4 -8v0l-4 -8v0l-120 -208v0l-5 -8v0h-9h-240zM35 217l110 -192l-110 192l110 -192h222v0l111 192v0l-111 192v0h-222v0l-110 -192v0zM312 121q-1 -24 -16 -40v0v0
q-16 -15 -40 -16q-24 1 -40 16q-15 16 -16 40q0 19 11 33l-32 42v0q-9 -3 -19 -3q-24 1 -40 16q-15 16 -16 40q1 24 16 39q16 16 40 17q34 -2 50 -30l54 11v0q3 22 18 36q16 14 38 15q24 -1 40 -17q15 -15 16 -39q-1 -24 -16 -40q-16 -16 -40 -16h-5v0l-24 -60v0
q20 -16 21 -44v0zM271 255l-55 -11l55 11l-55 -11q-2 -16 -11 -28l32 -42v0q9 3 19 3h5v0l24 60v0q-9 7 -14 18v0zM256 97q22 2 24 24q-2 22 -24 24q-22 -2 -24 -24q2 -22 24 -24v0zM296 281q2 -22 24 -24q22 2 24 24q-2 22 -24 24q-22 -2 -24 -24v0zM160 225q22 2 24 24
q-2 22 -24 24q-22 -2 -24 -24q2 -22 24 -24v0z" />
</svg>
