<?xml version="1.0" standalone="no"?>
<!DOCTYPE svg PUBLIC "-//W3C//DTD SVG 1.1//EN" "http://www.w3.org/Graphics/SVG/1.1/DTD/svg11.dtd" >
<svg xmlns="http://www.w3.org/2000/svg" xmlns:xlink="http://www.w3.org/1999/xlink" version="1.1" viewBox="-10 -40 532 512">
   <path fill="currentColor"
d="M480 217q-1 -61 -30 -112v0v0q-30 -51 -82 -82q-53 -30 -112 -30t-112 30q-52 31 -82 82q-29 51 -30 112q1 61 30 112q30 51 82 82q53 30 112 30t112 -30q52 -31 82 -82q29 -51 30 -112v0zM0 217q1 -70 34 -128v0v0q34 -58 94 -94q61 -34 128 -34t128 34q60 36 94 94
q33 58 34 128q-1 70 -34 128q-34 58 -94 94q-61 34 -128 34t-128 -34q-60 -36 -94 -94q-33 -58 -34 -128v0zM268 89q29 1 48 20v0v0q19 19 20 48q-1 31 -23 51q30 22 31 61q-1 32 -22 54q-22 21 -54 22h-24v0q-32 -1 -54 -22q-21 -22 -22 -54q1 -39 31 -61q-22 -20 -23 -51
q1 -29 20 -48t48 -20h24v0zM244 193v0v0v0v0h24v0q15 0 25 -11q11 -10 11 -25t-11 -25q-10 -11 -25 -11h-24v0q-15 0 -25 11q-11 10 -11 25t11 25q10 11 25 11v0zM268 225h-24h24h-24q-19 0 -31 13q-13 12 -13 31t13 31q12 13 31 13h24v0q19 0 31 -13q13 -12 13 -31t-13 -31
q-12 -13 -31 -13v0z" />
</svg>
