<?xml version="1.0" standalone="no"?>
<!DOCTYPE svg PUBLIC "-//W3C//DTD SVG 1.1//EN" "http://www.w3.org/Graphics/SVG/1.1/DTD/svg11.dtd" >
<svg xmlns="http://www.w3.org/2000/svg" xmlns:xlink="http://www.w3.org/1999/xlink" version="1.1" viewBox="-10 -40 532 512">
   <path fill="currentColor"
d="M256 441q-61 -1 -112 -30v0v0q-51 -30 -82 -82q-30 -53 -30 -112t30 -112q31 -52 82 -82q51 -29 112 -30q61 1 112 30q51 30 82 82q30 53 30 112t-30 112q-31 52 -82 82q-51 29 -112 30v0zM256 -39q-70 1 -128 34v0v0q-58 34 -94 94q-34 61 -34 128t34 128q36 60 94 94
q58 33 128 34q70 -1 128 -34q58 -34 94 -94q34 -61 34 -128t-34 -128q-36 -60 -94 -94q-58 -33 -128 -34v0zM319 265q32 -34 33 -80q-1 -41 -28 -68t-68 -28q-41 1 -68 28t-28 68q1 41 28 68t68 28h1h1l-61 63v0l-2 1v0h45v0l79 -80v0zM192 185q1 -36 32 -55q32 -18 64 0
q31 19 32 55q-1 36 -32 55q-32 18 -64 0q-31 -19 -32 -55v0z" />
</svg>
