<?xml version="1.0" standalone="no"?>
<!DOCTYPE svg PUBLIC "-//W3C//DTD SVG 1.1//EN" "http://www.w3.org/Graphics/SVG/1.1/DTD/svg11.dtd" >
<svg xmlns="http://www.w3.org/2000/svg" xmlns:xlink="http://www.w3.org/1999/xlink" version="1.1" viewBox="-10 -40 532 512">
   <path fill="currentColor"
d="M480 217q-1 -61 -30 -112v0v0q-30 -51 -82 -82q-53 -30 -112 -30t-112 30q-52 31 -82 82q-29 51 -30 112q1 61 30 112q30 51 82 82q53 30 112 30t112 -30q52 -31 82 -82q29 -51 30 -112v0zM0 217q1 -70 34 -128v0v0q34 -58 94 -94q61 -34 128 -34t128 34q60 36 94 94
q33 58 34 128q-1 70 -34 128q-34 58 -94 94q-61 34 -128 34t-128 -34q-60 -36 -94 -94q-33 -58 -34 -128v0zM296 73h8h-8h26l-2 18v0l-14 94v0h46h16v16v0v8v0v7v0l-5 4v0l-136 136v0l-4 5v0h-7h-26l2 -18v0l14 -94v0h-46h-16v-16v0v-8v0v-7v0l5 -4v0l136 -136v0l4 -5v0h7v0
zM191 217h33h-33h51l-2 18v0l-11 74v0l92 -92v0h-33h-18l2 -18v0l11 -74v0l-92 92v0z" />
</svg>
