<?xml version="1.0" standalone="no"?>
<!DOCTYPE svg PUBLIC "-//W3C//DTD SVG 1.1//EN" "http://www.w3.org/Graphics/SVG/1.1/DTD/svg11.dtd" >
<svg xmlns="http://www.w3.org/2000/svg" xmlns:xlink="http://www.w3.org/1999/xlink" version="1.1" viewBox="-10 -40 532 512">
   <path fill="currentColor"
d="M256 441q61 -1 112 -30v0v0q51 -30 82 -82q30 -53 30 -112t-30 -112q-31 -52 -82 -82q-51 -29 -112 -30q-61 1 -112 30q-51 30 -82 82q-30 53 -30 112t30 112q31 52 82 82q51 29 112 30v0zM256 -39q70 1 128 34v0v0q58 34 94 94q34 61 34 128t-34 128q-36 60 -94 94
q-58 33 -128 34q-70 -1 -128 -34q-58 -34 -94 -94q-34 -61 -34 -128t34 -128q36 -60 94 -94q58 -33 128 -34v0zM184 193v48v-48v48h-48v0v-48v0h48v0zM376 193v48v-48v48h-48v0v-48v0h48v0zM232 193h48h-48h48v48v0h-48v0v-48v0z" />
</svg>
