<?xml version="1.0" standalone="no"?>
<!DOCTYPE svg PUBLIC "-//W3C//DTD SVG 1.1//EN" "http://www.w3.org/Graphics/SVG/1.1/DTD/svg11.dtd" >
<svg xmlns="http://www.w3.org/2000/svg" xmlns:xlink="http://www.w3.org/1999/xlink" version="1.1" viewBox="-10 -40 651 512">
   <path fill="currentColor"
d="M32 217q1 -63 31 -113v0v0q29 -51 80 -80v0v0q50 -30 113 -31q73 1 128 40q56 39 81 103l30 -11v0q-29 -73 -93 -118q-63 -45 -146 -46q-72 1 -129 35q-58 34 -92 92q-34 57 -35 129q1 72 35 129q34 58 92 92q57 34 129 35q57 0 106 -23t85 -62l-24 -22v0q-31 35 -74 55
t-93 20q-63 -1 -113 -31q-51 -29 -80 -80q-30 -50 -31 -113v0zM272 105v-16v16v-16h-32v0v16v0v128v0v16v0h32v0v-16v0v-128v0zM280 329v-48v48v-48h-48v0v48v0h48v0zM631 153l-23 -23l23 23l-23 -23l-11 12v0l-117 116v0l-53 -52v0l-11 -12v0l-23 23v0l12 11v0l64 64v0
l11 12v0l11 -12v0l128 -128v0l12 -11v0z" />
</svg>
