<?xml version="1.0" standalone="no"?>
<!DOCTYPE svg PUBLIC "-//W3C//DTD SVG 1.1//EN" "http://www.w3.org/Graphics/SVG/1.1/DTD/svg11.dtd" >
<svg xmlns="http://www.w3.org/2000/svg" xmlns:xlink="http://www.w3.org/1999/xlink" version="1.1" viewBox="-10 -40 532 512">
   <path fill="currentColor"
d="M256 -7q61 1 112 30v0v0q51 30 82 82q30 53 30 112t-30 112q-31 52 -82 82q-51 29 -112 30q-61 -1 -112 -30q-51 -30 -82 -82q-30 -53 -30 -112t30 -112q31 -52 82 -82q51 -29 112 -30v0zM256 473q70 -1 128 -34v0v0q58 -34 94 -94q34 -61 34 -128t-34 -128
q-36 -60 -94 -94q-58 -33 -128 -34q-70 1 -128 34q-58 34 -94 94q-34 61 -34 128t34 128q36 60 94 94q58 33 128 34v0zM160 217q1 -41 28 -68v0v0q27 -27 68 -28q38 1 64 24l12 11v0l21 -24v0l-12 -10v0q-35 -32 -85 -33q-54 1 -91 37q-36 37 -37 91q1 54 37 91q37 36 91 37
q54 -1 91 -37q36 -37 37 -91v-16v0h-16h-96v32v0h16h63q-7 35 -33 57t-62 23q-41 -1 -68 -28t-28 -68v0z" />
</svg>
