<?xml version="1.0" standalone="no"?>
<!DOCTYPE svg PUBLIC "-//W3C//DTD SVG 1.1//EN" "http://www.w3.org/Graphics/SVG/1.1/DTD/svg11.dtd" >
<svg xmlns="http://www.w3.org/2000/svg" xmlns:xlink="http://www.w3.org/1999/xlink" version="1.1" viewBox="-10 -40 532 512">
   <path fill="currentColor"
d="M256 -7q61 1 112 30v0v0q51 30 82 82q30 53 30 112t-30 112q-31 52 -82 82q-51 29 -112 30q-61 -1 -112 -30q-51 -30 -82 -82q-30 -53 -30 -112t30 -112q31 -52 82 -82q51 -29 112 -30v0zM256 473q70 -1 128 -34v0v0q58 -34 94 -94q34 -61 34 -128t-34 -128
q-36 -60 -94 -94q-58 -33 -128 -34q-70 1 -128 34q-58 34 -94 94q-34 61 -34 128t34 128q36 60 94 94q58 33 128 34v0zM208 57h-16h16h-16v16v0v144v0q1 27 19 45t45 19q27 -1 45 -19t19 -45v-32v0v-32v0v-32v0v-48v0v-16v0h-16h-96zM288 121h-16h16h-32v32v0h16h16v32v0
h-16h-16v32v0h16h16q0 14 -9 23t-23 9t-23 -9t-9 -23v-128v0h64v0v32v0zM160 201v-16v16v-16h-32v0v16v0v16v0q1 50 32 85q32 35 80 42v17v0v16v0h32v0v-16v0v-17v0q48 -7 80 -42q31 -35 32 -85v-16v0v-16v0h-32v0v16v0v16v0q-1 41 -28 68t-68 28q-41 -1 -68 -28t-28 -68
v-16v0z" />
</svg>
