<?xml version="1.0" standalone="no"?>
<!DOCTYPE svg PUBLIC "-//W3C//DTD SVG 1.1//EN" "http://www.w3.org/Graphics/SVG/1.1/DTD/svg11.dtd" >
<svg xmlns="http://www.w3.org/2000/svg" xmlns:xlink="http://www.w3.org/1999/xlink" version="1.1" viewBox="-10 -40 532 512">
   <path fill="currentColor"
d="M32 153h448h-448h448v256v0h-448v0v-256v0zM383 121l96 -96l-96 96l96 -96h1v0v96v0h-97v0zM337 121h-106h106h-106l96 -96v0h106v0l-96 96v0zM281 25l-96 96l96 -96l-96 96h-106v0l96 -96v0h106v0zM129 25l-96 96l96 -96l-96 96h-1v0v-96v0h97v0zM512 137v-16v16v-16
v-96v0v-32v0h-32h-480v32v0v96v0v16v0v16v0v256v0v32v0h32h480v-32v0v-256v0v-16v0z" />
</svg>
