<?xml version="1.0" standalone="no"?>
<!DOCTYPE svg PUBLIC "-//W3C//DTD SVG 1.1//EN" "http://www.w3.org/Graphics/SVG/1.1/DTD/svg11.dtd" >
<svg xmlns="http://www.w3.org/2000/svg" xmlns:xlink="http://www.w3.org/1999/xlink" version="1.1" viewBox="-10 -40 532 512">
   <path fill="currentColor"
d="M480 153h-448h448h-448v256v0h448v0v-256v0zM480 121v-96v96v-96h-1v0l-96 96v0h97v0zM231 121h106h-106h106l96 -96v0h-106v0l-96 96v0zM185 121l96 -96l-96 96l96 -96h-106v0l-96 96v0h106v0zM32 25v96v-96v96h1v0l96 -96v0h-97v0zM512 121v16v-16v16v16v0v256v0v32v0
h-32h-480v-32v0v-256v0v-16v0v-16v0v-96v0v-32v0h32h480v32v0v96v0zM216 187l136 80l-136 -80l136 80l24 14v0l-24 14v0l-136 80v0l-24 14v0v-28v0v-160v0v-28v0l24 14v0zM312 281l-88 -52l88 52l-88 -52v104v0l88 -52v0z" />
</svg>
