<?xml version="1.0" standalone="no"?>
<!DOCTYPE svg PUBLIC "-//W3C//DTD SVG 1.1//EN" "http://www.w3.org/Graphics/SVG/1.1/DTD/svg11.dtd" >
<svg xmlns="http://www.w3.org/2000/svg" xmlns:xlink="http://www.w3.org/1999/xlink" version="1.1" viewBox="-10 -40 660 512">
   <path fill="currentColor"
d="M212 47q7 -38 35 -62v0v0q28 -23 66 -24q44 1 73 30t30 73v8v0q-1 57 -47 90l-21 15v0l285 195v0l7 5v0v8v0v72v0v16v0h-16h-624v-16v0v-72v0v-8v0l7 -5v0l304 -208v0l39 -28v0q33 -24 34 -64v-8v0q-1 -31 -21 -50q-20 -20 -50 -21q-26 0 -45 17q-19 16 -24 42l-4 24v0
l-3 15v0l-31 -5v0l2 -16v0l4 -23v0zM320 196l-288 197l288 -197l-288 197v48v0h576v0v-48v0l-288 -197v0z" />
</svg>
