<?xml version="1.0" standalone="no"?>
<!DOCTYPE svg PUBLIC "-//W3C//DTD SVG 1.1//EN" "http://www.w3.org/Graphics/SVG/1.1/DTD/svg11.dtd" >
<svg xmlns="http://www.w3.org/2000/svg" xmlns:xlink="http://www.w3.org/1999/xlink" version="1.1" viewBox="-10 -40 532 512">
   <path fill="currentColor"
d="M87 343l7 -19l-7 19l7 -19l-14 -15v0q-47 -47 -48 -108q2 -71 63 -122q62 -52 161 -54q99 2 161 54q61 51 63 122q-2 71 -63 122q-62 52 -161 54q-43 0 -80 -12l-9 -2v0l-10 2v0l-88 27v0l18 -49v0zM16 441l39 -12l-39 12l39 -12l111 -33v0q42 13 90 13q72 -1 129 -28
q58 -28 92 -75t35 -105q-1 -58 -35 -105t-92 -75q-57 -27 -129 -28q-72 1 -129 28q-58 28 -92 75t-35 105q2 76 57 131l-27 71v0l-14 38v0zM192 121h-16h16h-16v32v0h16h48v112v0v16v0h32v0v-16v0v-112v0h48h16v-32v0h-16h-128z" />
</svg>
