<?xml version="1.0" standalone="no"?>
<!DOCTYPE svg PUBLIC "-//W3C//DTD SVG 1.1//EN" "http://www.w3.org/Graphics/SVG/1.1/DTD/svg11.dtd" >
<svg xmlns="http://www.w3.org/2000/svg" xmlns:xlink="http://www.w3.org/1999/xlink" version="1.1" viewBox="-10 -40 532 512">
   <path fill="currentColor"
d="M480 345h-448h448h-448v96v0h448v0v-96v0zM480 313v-96v96v-96h-448v0v96v0h448v0zM512 313v16v-16v16v16v0v96v0v32v0h-32h-480v-32v0v-96v0v-16v0v-16v0v-96v0v-32v0h32h480v32v0v96v0zM64 265q1 -15 16 -16q15 1 16 16q-1 15 -16 16q-15 -1 -16 -16v0zM432 249
q15 1 16 16q-1 15 -16 16q-15 -1 -16 -16q1 -15 16 -16v0zM64 393q1 -15 16 -16q15 1 16 16q-1 15 -16 16q-15 -1 -16 -16v0zM432 377q15 1 16 16q-1 15 -16 16q-15 -1 -16 -16q1 -15 16 -16v0z" />
</svg>
