<?xml version="1.0" standalone="no"?>
<!DOCTYPE svg PUBLIC "-//W3C//DTD SVG 1.1//EN" "http://www.w3.org/Graphics/SVG/1.1/DTD/svg11.dtd" >
<svg xmlns="http://www.w3.org/2000/svg" xmlns:xlink="http://www.w3.org/1999/xlink" version="1.1" viewBox="-10 -40 596 512">
   <path fill="currentColor"
d="M327 -7l-5 8l5 -8l-5 8l-91 152v0h-215h-16v32v0h16h233l5 -8v0l91 -152v0h215h16v-32v0h-16h-233zM182 249v0v0v0h-1h-181v32v0h16h148l94 152v0l5 8v0h9h304v-32v0h-16h-279l-79 -128v0h358h16v-32v0h-16h-378z" />
</svg>
