<?xml version="1.0" standalone="no"?>
<!DOCTYPE svg PUBLIC "-//W3C//DTD SVG 1.1//EN" "http://www.w3.org/Graphics/SVG/1.1/DTD/svg11.dtd" >
<svg xmlns="http://www.w3.org/2000/svg" xmlns:xlink="http://www.w3.org/1999/xlink" version="1.1" viewBox="-10 -40 588 512">
   <path fill="currentColor"
d="M312 -31h-48h48h-48v48v0h48v0v-48v0zM120 33h-48h48h-48v48v0h48v0v-48v0zM456 33v48v-48v48h48v0v-48v0h-48v0zM568 225h-48h48h-48v48v0h48v0v-48v0zM8 225v48v-48v48h48v0v-48v0h-48v0zM120 417h-48h48h-48v48v0h48v0v-48v0zM456 417v48v-48v48h48v0v-48v0h-48v0z
M198 159q36 -35 83 -38v0v0q46 -2 86 27l-90 90v0l-12 11v0l23 23v0l11 -12v0l90 -89v0q29 39 27 86q-3 46 -38 83q-39 37 -90 37t-91 -37q-37 -40 -37 -91t37 -90h1zM401 136q-31 -32 -72 -44v0v0q-41 -12 -84 -1q-43 12 -73 42t-42 73q-11 43 1 84t44 72q31 32 72 44t84 1
q43 -12 73 -42t42 -73q11 -43 -1 -84t-44 -72v0z" />
</svg>
