<?xml version="1.0" standalone="no"?>
<!DOCTYPE svg PUBLIC "-//W3C//DTD SVG 1.1//EN" "http://www.w3.org/Graphics/SVG/1.1/DTD/svg11.dtd" >
<svg xmlns="http://www.w3.org/2000/svg" xmlns:xlink="http://www.w3.org/1999/xlink" version="1.1" viewBox="-10 -40 588 512">
   <path fill="currentColor"
d="M312 -31v48v-48v48h-48v0v-48v0h48v0zM120 33v48v-48v48h-48v0v-48v0h48v0zM456 33h48h-48h48v48v0h-48v0v-48v0zM568 225v48v-48v48h-48v0v-48v0h48v0zM8 225h48h-48h48v48v0h-48v0v-48v0zM120 417v48v-48v48h-48v0v-48v0h48v0zM456 417h48h-48h48v48v0h-48v0v-48v0z
M299 238l12 11l-12 -11l12 11l-23 23v0l-11 -12v0l-90 -89v0q-29 39 -27 86q3 46 38 83q39 37 90 37t91 -37q37 -40 37 -91t-37 -90q-37 -35 -83 -38q-47 -2 -86 27l89 90v0zM401 362q-31 32 -72 44v0v0q-41 12 -84 1q-43 -12 -73 -42t-42 -73q-11 -43 1 -84t44 -72
q31 -32 72 -44t84 -1q43 12 73 42t42 73q11 43 -1 84t-44 72v0z" />
</svg>
