<?xml version="1.0" standalone="no"?>
<!DOCTYPE svg PUBLIC "-//W3C//DTD SVG 1.1//EN" "http://www.w3.org/Graphics/SVG/1.1/DTD/svg11.dtd" >
<svg xmlns="http://www.w3.org/2000/svg" xmlns:xlink="http://www.w3.org/1999/xlink" version="1.1" viewBox="-10 -40 596 512">
   <path fill="currentColor"
d="M32 -7v352v-352v352h200v0v0v0h112v0v0v0h200v0v-352v0h-512v0zM213 377h-181h181h-213v-32v0v-352v0v-32v0h32h544v32v0v352v0v32v0h-32h-181l11 64v0h58h16v32v0h-16h-304v-32v0h16h58l11 -64v0zM246 377l-11 64l11 -64l-11 64h106v0l-11 -64v0h-84v0z" />
</svg>
