<?xml version="1.0" standalone="no"?>
<!DOCTYPE svg PUBLIC "-//W3C//DTD SVG 1.1//EN" "http://www.w3.org/Graphics/SVG/1.1/DTD/svg11.dtd" >
<svg xmlns="http://www.w3.org/2000/svg" xmlns:xlink="http://www.w3.org/1999/xlink" version="1.1" viewBox="-10 -40 596 512">
   <path fill="currentColor"
d="M544 -7v352v-352v352h-200v0v0v0h-112v0v0v0h-200v0v-352v0h512v0zM32 377h181h-181h181l-11 64v0h-58h-16v32v0h16h304v-32v0h-16h-58l-11 -64v0h181h32v-32v0v-352v0v-32v0h-32h-544v32v0v352v0v32v0h32v0zM235 441l11 -64l-11 64l11 -64h85v0l10 64v0h-106v0zM256 57
h-16h16h-16v16v0v48v0h-48h-16v16v0v64v0v16v0h16h48v48v0v16v0h16h80v-16v0v-48v0h48h16v-16v0v-64v0v-16v0h-16h-48v-48v0v-16v0h-16h-64zM272 137v-48v48v-48h32v0v48v0v16v0h16h48v32v0h-48h-16v16v0v48v0h-32v0v-48v0v-16v0h-16h-48v-32v0h48h16v-16v0z" />
</svg>
