<?xml version="1.0" standalone="no"?>
<!DOCTYPE svg PUBLIC "-//W3C//DTD SVG 1.1//EN" "http://www.w3.org/Graphics/SVG/1.1/DTD/svg11.dtd" >
<svg xmlns="http://www.w3.org/2000/svg" xmlns:xlink="http://www.w3.org/1999/xlink" version="1.1" viewBox="-10 -40 404 512">
   <path fill="currentColor"
d="M320 -7h-32h32h-32v32v0h-96v0v32v0h96v0v107v0q-37 -41 -96 -43q-54 1 -91 37q-36 37 -37 91q1 54 37 91q37 36 91 37q59 -2 96 -43v43v0h32v0v-128v0v-192v0h32v0v-32v0h-32v0v-32v0zM96 249q0 -26 13 -48v0v0q13 -22 35 -35q23 -13 48 -13t48 13q22 13 35 35t13 48
t-13 48t-35 35q-23 13 -48 13t-48 -13q-22 -13 -35 -35t-13 -48v0zM384 441v-32v32v-32h-384v0v32v0h384v0z" />
</svg>
