<?xml version="1.0" standalone="no"?>
<!DOCTYPE svg PUBLIC "-//W3C//DTD SVG 1.1//EN" "http://www.w3.org/Graphics/SVG/1.1/DTD/svg11.dtd" >
<svg xmlns="http://www.w3.org/2000/svg" xmlns:xlink="http://www.w3.org/1999/xlink" version="1.1" viewBox="-10 -40 404 512">
   <path fill="currentColor"
d="M352 441h-320h320h-320v-448v0h160v0v144v0v16v0h16h144v288v0zM224 -2l123 123l-123 -123l123 123h-123v0v-123v0zM232 -39h-200h200h-232v32v0v448v0v32v0h32h352v-32v0v-328v0l-152 -152v0zM80 217h-16h16h-16v16v0v128v0v16v0h16h112v-16v0v-128v0v-16v0h-16h-96z
M96 345v-96v96v-96h64v0v96v0h-64v0zM240 217h-16h16h-16v32v0h16h16v96v0h-16h-16v32v0h16h80v-32v0h-16h-16v-112v0v-16v0h-16h-32z" />
</svg>
