<?xml version="1.0" standalone="no"?>
<!DOCTYPE svg PUBLIC "-//W3C//DTD SVG 1.1//EN" "http://www.w3.org/Graphics/SVG/1.1/DTD/svg11.dtd" >
<svg xmlns="http://www.w3.org/2000/svg" xmlns:xlink="http://www.w3.org/1999/xlink" version="1.1" viewBox="-10 -40 652 512">
   <path fill="currentColor"
d="M40 -21l-12 -10l12 10l-12 -10l-20 25v0l13 10v0l579 451v0l12 10v0l20 -25v0l-12 -10v0l-580 -451v0zM576 57v-32v32v-32v-32v0h-32h-404l40 32v0h364v0v20v0l-137 160v0l26 19v0l143 -167v0zM352 324v79v-79v79l-64 -56v0v-74v0l-32 -25v0v113v0l96 84v0l32 28v0v-42v0
v-82v0l-32 -25v0z" />
</svg>
