<?xml version="1.0" standalone="no"?>
<!DOCTYPE svg PUBLIC "-//W3C//DTD SVG 1.1//EN" "http://www.w3.org/Graphics/SVG/1.1/DTD/svg11.dtd" >
<svg xmlns="http://www.w3.org/2000/svg" xmlns:xlink="http://www.w3.org/1999/xlink" version="1.1" viewBox="-10 -40 532 512">
   <path fill="currentColor"
d="M32 -7h192h-192h192l48 64v0h208h32v32v0v320v0v32v0h-32h-480v-32v0v-384v0v-32v0h32v0zM272 89h-16h16h-16l-10 -13v0l-38 -51v0h-176v0v384v0h448v0v-320v0h-208v0zM240 297q36 -1 55 -32q18 -32 0 -64q-19 -31 -55 -32q-36 1 -55 32q-18 32 0 64q19 31 55 32v0z
M240 329q-41 -1 -68 -28v0v0q-27 -27 -28 -68q1 -41 28 -68t68 -28q41 1 68 28t28 68q-1 32 -18 56l45 45v0l12 11v0l-23 23v0l-11 -11v0l-45 -46v0q-24 18 -56 18v0z" />
</svg>
