<?xml version="1.0" standalone="no"?>
<!DOCTYPE svg PUBLIC "-//W3C//DTD SVG 1.1//EN" "http://www.w3.org/Graphics/SVG/1.1/DTD/svg11.dtd" >
<svg xmlns="http://www.w3.org/2000/svg" xmlns:xlink="http://www.w3.org/1999/xlink" version="1.1" viewBox="-10 -40 532 512">
   <path fill="currentColor"
d="M32 -7h192h-192h192l48 64v0h208h32v32v0v320v0v32v0h-32h-480v-32v0v-384v0v-32v0h32v0zM272 89h-16h16h-16l-10 -13v0l-38 -51v0h-176v0v384v0h448v0v-320v0h-208v0zM256 217q14 0 23 -9v0v0q9 -9 9 -23t-9 -23t-23 -9t-23 9t-9 23t9 23t23 9v0zM256 121q36 1 55 32
q18 32 0 64q-19 31 -55 32q-36 -1 -55 -32q-18 -32 0 -64q19 -31 55 -32v0zM178 377h-34h34h-34l32 -96v0h160v0l32 96v0h-34v0l-21 -64v0h-114v0l-21 64v0z" />
</svg>
