<?xml version="1.0" standalone="no"?>
<!DOCTYPE svg PUBLIC "-//W3C//DTD SVG 1.1//EN" "http://www.w3.org/Graphics/SVG/1.1/DTD/svg11.dtd" >
<svg xmlns="http://www.w3.org/2000/svg" xmlns:xlink="http://www.w3.org/1999/xlink" version="1.1" viewBox="-10 -40 468 512">
   <path fill="currentColor"
d="M24 17v42v-42v42h42v0v-42v0h-42v0zM24 137v41v-41v41h42v0v-41v0h-42v0zM0 232h24h-24h90v24v0v42v0v24v0h-24h-66v-24v0v-42v0v-24v0zM66 298v-42v42v-42h-42v0v42v0h42v0zM24 375v42v-42v42h42v0v-42v0h-42v0zM90 -7v24v-24v24v42v0v24v0h-24h-66v-24v0v-42v0v-24v0
h24h66zM90 113v24v-24v24v41v0v24v0h-24h-66v-24v0v-41v0v-24v0h24h66zM90 351v24v-24v24v42v0v24v0h-24h-66v-24v0v-42v0v-24v0h24h66zM144 17v42v-42v42h41v0v-42v0h-41v0zM144 137v41v-41v41h41v0v-41v0h-41v0zM120 232h24h-24h89v24v0v42v0v24v0h-24h-65v-24v0v-42v0
v-24v0zM185 298v-42v42v-42h-41v0v42v0h41v0zM144 376v41v-41v41h41v0v-42v0h-41v1zM209 -7v24v-24v24v42v0v24v0h-24h-65v-24v0v-42v0v-24v0h24h65zM209 113v24v-24v24v41v0v24v0h-24h-65v-24v0v-41v0v-24v0h24h65zM209 351v24v-24v24v42v0v24v0h-24h-65v-24v0v-42v0v-24v0
h24h65zM305 17h-42h42h-42v42v0h42v0v-42v0zM305 137h-42h42h-42v41v0h42v0v-41v0zM239 256v-24v24v-24h24h66v24v0v42v0v24v0h-24h-66v-24v0v-42v0zM263 298h42h-42h42v-42v0h-42v0v42v0zM305 375h-42h42h-42v42v0h42v0v-42v0zM305 -7h24h-24h24v24v0v42v0v24v0h-24h-66
v-24v0v-42v0v-24v0h24h42zM305 113h24h-24h24v24v0v41v0v24v0h-24h-66v-24v0v-41v0v-24v0h24h42zM305 351h24h-24h24v24v0v42v0v24v0h-24h-66v-24v0v-42v0v-24v0h24h42zM382 17v42v-42v42h42v0v-42v0h-42v0zM382 137v41v-41v41h42v0v-41v0h-42v0zM358 232h24h-24h90v24v0v42
v0v24v0h-24h-66v-24v0v-42v0v-24v0zM424 298v-42v42v-42h-42v0v42v0h42v0zM382 375v42v-42v42h42v0v-42v0h-42v0zM448 -7v24v-24v24v42v0v24v0h-24h-66v-24v0v-42v0v-24v0h24h66zM448 113v24v-24v24v41v0v24v0h-24h-66v-24v0v-41v0v-24v0h24h66zM448 351v24v-24v24v42v0v24
v0h-24h-66v-24v0v-42v0v-24v0h24h66z" />
</svg>
