<?xml version="1.0" standalone="no"?>
<!DOCTYPE svg PUBLIC "-//W3C//DTD SVG 1.1//EN" "http://www.w3.org/Graphics/SVG/1.1/DTD/svg11.dtd" >
<svg xmlns="http://www.w3.org/2000/svg" xmlns:xlink="http://www.w3.org/1999/xlink" version="1.1" viewBox="-10 -40 468 512">
   <path fill="currentColor"
d="M40 17v16v-16v16h-16v0v-16v0h16v0zM24 -7h-24h24h-24v24v0v16v0v24v0h24h40v-24v0v-16v0v-24v0h-24h-16zM40 113v16v-16v16h-16v0v-16v0h16v0zM24 89h-24h24h-24v24v0v16v0v24v0h24h40v-24v0v-16v0v-24v0h-24h-16zM24 209h16h-16h16v16v0h-16v0v-16v0zM0 185v24v-24v24
v16v0v24v0h24h40v-24v0v-16v0v-24v0h-24h-40zM40 305v16v-16v16h-16v0v-16v0h16v0zM24 281h-24h24h-24v24v0v16v0v24v0h24h40v-24v0v-16v0v-24v0h-24h-16zM24 401h16h-16h16v16v0h-16v0v-16v0zM0 377v24v-24v24v16v0v24v0h24h40v-24v0v-16v0v-24v0h-24h-40zM136 17v16v-16
v16h-16v0v-16v0h16v0zM120 -7h-24h24h-24v24v0v16v0v24v0h24h40v-24v0v-16v0v-24v0h-24h-16zM120 113h16h-16h16v16v0h-16v0v-16v0zM96 89v24v-24v24v16v0v24v0h24h40v-24v0v-16v0v-24v0h-24h-40zM136 209v16v-16v16h-16v0v-16v0h16v0zM120 185h-24h24h-24v24v0v16v0v24v0
h24h40v-24v0v-16v0v-24v0h-24h-16zM120 305h16h-16h16v16v0h-16v0v-16v0zM96 281v24v-24v24v16v0v24v0h24h40v-24v0v-16v0v-24v0h-24h-40zM136 401v16v-16v16h-16v0v-16v0h16v0zM120 377h-24h24h-24v24v0v16v0v24v0h24h40v-24v0v-16v0v-24v0h-24h-16zM216 17h16h-16h16v16v0
h-16v0v-16v0zM192 -7v24v-24v24v16v0v24v0h24h40v-24v0v-16v0v-24v0h-24h-40zM232 113v16v-16v16h-16v0v-16v0h16v0zM216 89h-24h24h-24v24v0v16v0v24v0h24h40v-24v0v-16v0v-24v0h-24h-16zM216 209h16h-16h16v16v0h-16v0v-16v0zM192 185v24v-24v24v16v0v24v0h24h40v-24v0
v-16v0v-24v0h-24h-40zM232 305v16v-16v16h-16v0v-16v0h16v0zM216 281h-24h24h-24v24v0v16v0v24v0h24h40v-24v0v-16v0v-24v0h-24h-16zM216 401h16h-16h16v16v0h-16v0v-16v0zM192 377v24v-24v24v16v0v24v0h24h40v-24v0v-16v0v-24v0h-24h-40zM328 17v16v-16v16h-16v0v-16v0h16
v0zM312 -7h-24h24h-24v24v0v16v0v24v0h24h40v-24v0v-16v0v-24v0h-24h-16zM312 113h16h-16h16v16v0h-16v0v-16v0zM288 89v24v-24v24v16v0v24v0h24h40v-24v0v-16v0v-24v0h-24h-40zM328 209v16v-16v16h-16v0v-16v0h16v0zM312 185h-24h24h-24v24v0v16v0v24v0h24h40v-24v0v-16v0
v-24v0h-24h-16zM312 305h16h-16h16v16v0h-16v0v-16v0zM288 281v24v-24v24v16v0v24v0h24h40v-24v0v-16v0v-24v0h-24h-40zM328 401v16v-16v16h-16v0v-16v0h16v0zM312 377h-24h24h-24v24v0v16v0v24v0h24h40v-24v0v-16v0v-24v0h-24h-16zM408 17h16h-16h16v16v0h-16v0v-16v0z
M384 -7v24v-24v24v16v0v24v0h24h40v-24v0v-16v0v-24v0h-24h-40zM424 113v16v-16v16h-16v0v-16v0h16v0zM408 89h-24h24h-24v24v0v16v0v24v0h24h40v-24v0v-16v0v-24v0h-24h-16zM408 209h16h-16h16v16v0h-16v0v-16v0zM384 185v24v-24v24v16v0v24v0h24h40v-24v0v-16v0v-24v0h-24
h-40zM424 305v16v-16v16h-16v0v-16v0h16v0zM408 281h-24h24h-24v24v0v16v0v24v0h24h40v-24v0v-16v0v-24v0h-24h-16zM408 401h16h-16h16v16v0h-16v0v-16v0zM384 377v24v-24v24v16v0v24v0h24h40v-24v0v-16v0v-24v0h-24h-40z" />
</svg>
