<?xml version="1.0" standalone="no"?>
<!DOCTYPE svg PUBLIC "-//W3C//DTD SVG 1.1//EN" "http://www.w3.org/Graphics/SVG/1.1/DTD/svg11.dtd" >
<svg xmlns="http://www.w3.org/2000/svg" xmlns:xlink="http://www.w3.org/1999/xlink" version="1.1" viewBox="-10 -40 532 512">
   <path fill="currentColor"
d="M512 89v-16v16v-16h-16h-241q-3 -5 -6 -9l-36 -49v0l-5 -6v0h-8h-51q-41 0 -74 20q-34 20 -53 56l-5 8v0q-17 32 -17 68v136v0q1 48 33 79q31 32 79 33h96h64v-16v0v-48v0h16h16v-16v0v-56v0h16h16v-16v0v-72v0h160h16v-16v0v-80v0zM216 73h-48h48h-64v32v0h16h312v48v0
h-160h-16v16v0v72v0h-16h-16v16v0v56v0h-16h-16v16v0v48v0h-32h-96q-34 -1 -57 -23q-22 -23 -23 -57v-136v0q0 -28 13 -53l-14 -7v0l14 7v0l5 -8v0q15 -28 41 -43q26 -16 58 -16h43v0l24 32v0z" />
</svg>
