<?xml version="1.0" standalone="no"?>
<!DOCTYPE svg PUBLIC "-//W3C//DTD SVG 1.1//EN" "http://www.w3.org/Graphics/SVG/1.1/DTD/svg11.dtd" >
<svg xmlns="http://www.w3.org/2000/svg" xmlns:xlink="http://www.w3.org/1999/xlink" version="1.1" viewBox="-10 -40 458 512">
   <path fill="currentColor"
d="M80 -39h-16h16h-16v16v0v48v0h-13h-33l21 26v0l24 30v0l-24 30v0l-21 26v0h33h13v64v0h-16h-16v16v0v96v0q2 68 47 113t113 47h64v0q68 -2 113 -47t47 -113v0v0v-16v0v-64v0v-16v0v-48v0v-16v0h-16h-64v-16v0h-16h-64v-16v0v-16v0h-16h-64v-48v0v-32v0v-48v0v-16v0h-16
h-80zM144 25h-48h48h-48v-32v0h48v0v32v0zM144 57v48v-48v48h-59v0l11 -14v0l8 -10v0l-8 -10v0l-11 -14v0h59v0zM144 137v64v-64v64h-48v0v-64v0h48v0zM176 137h48h-48h48v16v0v48v0h-48v0v-64v0zM224 233v0v0v0v48v0h-80h-16v32v0h16h240q-1 54 -37 91q-37 36 -91 37h-64v0
q-54 -1 -91 -37q-36 -37 -37 -91v-80v0h80v0v0v0h32v0v0v0h48v0zM256 233v-16v16v-16v-16v0v-32v0h48v0v112v0h-48v0v-48v0zM384 233v48v-48v48h-48v0v-96v0h48v0v32v0v16v0z" />
</svg>
