<?xml version="1.0" standalone="no"?>
<!DOCTYPE svg PUBLIC "-//W3C//DTD SVG 1.1//EN" "http://www.w3.org/Graphics/SVG/1.1/DTD/svg11.dtd" >
<svg xmlns="http://www.w3.org/2000/svg" xmlns:xlink="http://www.w3.org/1999/xlink" version="1.1" viewBox="-10 -40 554 512">
   <path fill="currentColor"
d="M332 -39q45 2 66 41l-28 14v0q-12 -22 -38 -23h-12h-16v-32v0h16h12zM62 343l2 16l-2 -16l2 16l1 8v0q7 34 41 41l8 1v0l16 2v0l-4 32v0l-16 -2v0l-9 -1v0q-27 -5 -45 -23t-23 -45l-1 -9v0l-2 -16v0l32 -4v0zM146 5l11 -11l-11 11l11 -11l11 11v0l20 20v0l45 -46v0
l11 -11v0l11 11v0l145 145v0v-11v0v-40v0v-16v0h16h96v16v0v40v0v160v0v0v0v1v0v0v0v14v0q-2 78 -54 131q-53 52 -131 54q-77 -1 -132 -55l-151 -152v0l-11 -12v0l11 -11v0l45 -45v0l-34 -34v0l-11 -12v0l11 -11v0l45 -45v0l-11 -11v0l-11 -12v0l11 -11v0l57 -57v0zM165 273
l-53 -53l53 53l-53 -53l-34 34v0l140 142v0q45 44 109 45q65 -2 108 -45t45 -108v-14v0v0v0v-1v0v0v0v-160v0v-24v0h-48v0v24v0v50v0v22v0h-16v0l-11 -11v0l-161 -161v0l-34 34v0l133 133v0l11 11v0l-23 23v0l-11 -12v0l-137 -137v0l-11 -11v0v0v0l-15 -15v0l-34 34v0
l116 117v0l28 27v0v0v0l19 19v0l11 12v0l-22 22v0l-12 -11v0l-137 -137v0l-3 -3v0l-34 33v0l37 38v0l12 11v0l49 50v0l5 4v0l38 38v0l11 11v0l-23 23v0l-11 -11v0l-15 -15v0v0v0l-27 -28v0z" />
</svg>
