<?xml version="1.0" standalone="no"?>
<!DOCTYPE svg PUBLIC "-//W3C//DTD SVG 1.1//EN" "http://www.w3.org/Graphics/SVG/1.1/DTD/svg11.dtd" >
<svg xmlns="http://www.w3.org/2000/svg" xmlns:xlink="http://www.w3.org/1999/xlink" version="1.1" viewBox="-10 -40 591 512">
   <path fill="currentColor"
d="M288 -36l11 9l-11 -9l11 9l272 240v0l-22 24v0l-37 -33v0v253v0v16v0h-16h-432v-16v0v-253v0l-37 33v0l-22 -24v0l272 -240v0l11 -9v0zM96 176v265v-265v265h384v0v-265v0l-192 -170v0l-192 170v0zM288 217q14 0 23 -9v0v0q9 -9 9 -23t-9 -23t-23 -9t-23 9t-9 23t9 23
t23 9v0zM288 121q36 1 55 32q18 32 0 64q-19 31 -55 32q-36 -1 -55 -32q-18 -32 0 -64q19 -31 55 -32v0zM231 313l-21 64l21 -64l-21 64h-34v0l32 -96v0h160v0l32 96v0h-34v0l-21 -64v0h-114v0z" />
</svg>
