<?xml version="1.0" standalone="no"?>
<!DOCTYPE svg PUBLIC "-//W3C//DTD SVG 1.1//EN" "http://www.w3.org/Graphics/SVG/1.1/DTD/svg11.dtd" >
<svg xmlns="http://www.w3.org/2000/svg" xmlns:xlink="http://www.w3.org/1999/xlink" version="1.1" viewBox="-10 -40 660 512">
   <path fill="currentColor"
d="M115 134l-11 -12l11 12l-11 -12l-23 23v0l12 11v0l88 88v0l11 12v0l23 -23v0l-12 -11v0l-88 -88v0zM304 185v16v-16v16h32v0v-16v0v-128v0v-16v0h-32v0v16v0v128v0zM437 222l-12 11l12 -11l-12 11l23 23v0l11 -12v0l88 -88v0l12 -11v0l-23 -23v0l-11 12v0l-88 88v0z
M0 345v32v-32v32h16h112v-32v0h-16h-112zM208 345h-16h16h-16v32v0h16h240v-32v0h-16h-224zM528 345h-16h16h-16v32v0h16h112v-32v0h-16h-96z" />
</svg>
