<?xml version="1.0" standalone="no"?>
<!DOCTYPE svg PUBLIC "-//W3C//DTD SVG 1.1//EN" "http://www.w3.org/Graphics/SVG/1.1/DTD/svg11.dtd" >
<svg xmlns="http://www.w3.org/2000/svg" xmlns:xlink="http://www.w3.org/1999/xlink" version="1.1" viewBox="-10 -40 596 512">
   <path fill="currentColor"
d="M32 -7v224v-224v224h512v0v-224v0h-512v0zM0 -39h32h-32h576v32v0v224v0v32v0h-32h-544v-32v0v-224v0v-32v0zM216 33v48v-48v48h-48v0v-48v0h48v0zM72 129h48h-48h48v48v0h-48v0v-48v0zM120 33v48v-48v48h-48v0v-48v0h48v0zM264 33h48h-48h48v48v0h-48v0v-48v0zM408 33
v48v-48v48h-48v0v-48v0h48v0zM456 33h48h-48h48v48v0h-48v0v-48v0zM504 129v48v-48v48h-48v0v-48v0h48v0zM176 137h224h-224h240v32v0h-16h-240v-32v0h16v0zM171 310l117 116l-117 -116l117 116l117 -116v0l11 -12v0l23 23v0l-12 11v0l-128 128v0l-11 12v0l-11 -12v0
l-128 -128v0l-12 -11v0l23 -23v0l11 12v0z" />
</svg>
