<?xml version="1.0" standalone="no"?>
<!DOCTYPE svg PUBLIC "-//W3C//DTD SVG 1.1//EN" "http://www.w3.org/Graphics/SVG/1.1/DTD/svg11.dtd" >
<svg xmlns="http://www.w3.org/2000/svg" xmlns:xlink="http://www.w3.org/1999/xlink" version="1.1" viewBox="-10 -40 660 512">
   <path fill="currentColor"
d="M608 57v320v-320v320h-416v0v-320v0h416v0zM192 25h-32h32h-32v32v0v320v0v32v0h32h448v-32v0v-320v0v-32v0h-32h-416zM232 97v48v-48v48h48v0v-48v0h-48v0zM280 193h-48h48h-48v48v0h48v0v-48v0zM232 289v48v-48v48h48v0v-48v0h-48v0zM376 97h-48h48h-48v48v0h48v0v-48
v0zM328 193v48v-48v48h48v0v-48v0h-48v0zM472 97h-48h48h-48v48v0h48v0v-48v0zM424 193v48v-48v48h48v0v-48v0h-48v0zM568 97h-48h48h-48v48v0h48v0v-48v0zM520 193v48v-48v48h48v0v-48v0h-48v0zM568 289h-48h48h-48v48v0h48v0v-48v0zM336 297h-16h16h-16v32v0h16h144v-32v0
h-16h-128zM115 148l12 -11l-12 11l12 -11l-23 -23v0l-11 12v0l-80 80v0l-12 11v0l12 11v0l80 80v0l11 12v0l23 -23v0l-12 -11v0l-68 -69v0l68 -69v0z" />
</svg>
