<?xml version="1.0" standalone="no"?>
<!DOCTYPE svg PUBLIC "-//W3C//DTD SVG 1.1//EN" "http://www.w3.org/Graphics/SVG/1.1/DTD/svg11.dtd" >
<svg xmlns="http://www.w3.org/2000/svg" xmlns:xlink="http://www.w3.org/1999/xlink" version="1.1" viewBox="-10 -40 660 512">
   <path fill="currentColor"
d="M96 -7h176h-176h176v32v0h-176v0v288v0h-32v0v-288v0v-32v0h32v0zM544 25h-176h176h-176v-32v0h176h32v32v0v288v0h-32v0v-288v0zM61 409h518h-518h518l29 -29v0v-3v0h-576v0v3v0l29 29v0zM640 345v32v-32v32v16v0l-48 48v0h-544v0l-48 -48v0v-16v0v-32v0h32h608zM336 9
v217v-217v217l53 -52v0l11 -12v0l23 23v0l-12 11v0l-80 80v0l-11 12v0l-11 -12v0l-80 -80v0l-12 -11v0l23 -23v0l11 12v0l53 52v0v-217v0v-16v0h32v0v16v0z" />
</svg>
