<?xml version="1.0" standalone="no"?>
<!DOCTYPE svg PUBLIC "-//W3C//DTD SVG 1.1//EN" "http://www.w3.org/Graphics/SVG/1.1/DTD/svg11.dtd" >
<svg xmlns="http://www.w3.org/2000/svg" xmlns:xlink="http://www.w3.org/1999/xlink" version="1.1" viewBox="-10 -40 660 512">
   <path fill="currentColor"
d="M438 219q25 -35 26 -82q-2 -61 -42 -102q-41 -40 -102 -42q-61 2 -102 42q-40 41 -42 102q1 47 26 82q4 6 9 13l4 6v0v0q1 1 1 2q20 26 37 55q13 25 17 50h-33v0q-3 -18 -12 -34q-15 -27 -34 -52v0v0v0v0v0v0v0l-16 -22q-30 -43 -31 -100q2 -75 52 -124q49 -50 124 -52
q75 2 124 52q50 49 52 124q-1 57 -31 100q-8 11 -16 21v1v0v0v0v0v0v0v0v0q-19 25 -34 51q-9 17 -12 35h-32v0q3 -25 16 -50q17 -30 37 -57h1q7 -10 13 -19v0zM272 441h96h-96h96v-32v0h-96v0v32v0zM240 377h32h-32h160v32v0v32v0v32v0h-32h-128v-32v0v-32v0v-32v0zM336 73
v128v-128v128v16v0h-32v0v-16v0v-128v0v-16v0h32v0v16v0zM296 249h48h-48h48v48v0h-48v0v-48v0zM67 -31l52 26l-52 -26l52 26l15 7v0l-15 29v0l-14 -8v0l-52 -26v0l-14 -7v0l14 -28v0l14 7v0zM587 -3l-52 26l52 -26l-52 26l-14 8v0l-14 -29v0l14 -7v0l52 -26v0l14 -7v0
l15 28v0l-15 7v0zM16 121h64h-64h80v32v0h-16h-80v-32v0h16v0zM560 121h64h-64h80v32v0h-16h-80v-32v0h16v0zM119 279l-52 26l52 -26l-52 26l-14 8v0l-14 -29v0l14 -7v0l52 -26v0l14 -8v0l14 29v0l-14 7v0zM535 251l52 26l-52 -26l52 26l15 7v0l-15 29v0l-14 -8v0l-52 -26v0
l-14 -7v0l14 -29v0l14 8v0z" />
</svg>
