<?xml version="1.0" standalone="no"?>
<!DOCTYPE svg PUBLIC "-//W3C//DTD SVG 1.1//EN" "http://www.w3.org/Graphics/SVG/1.1/DTD/svg11.dtd" >
<svg xmlns="http://www.w3.org/2000/svg" xmlns:xlink="http://www.w3.org/1999/xlink" version="1.1" viewBox="-10 -40 532 512">
   <path fill="currentColor"
d="M32 25h448h-448h448v112v0h-448v0v-112v0zM512 169v-32v32v-32v-112v0v-32v0h-32h-480v32v0v384v0v32v0h32h480v-32v0v-240v0zM32 169h448h-448h448v240v0h-448v0v-240v0zM128 217h-16h16h-16v32v0h16h272v-32v0h-16h-256zM128 313h-16h16h-16v32v0h16h272v-32v0h-16
h-256zM400 105l48 -48l-48 48l48 -48h-96v0l48 48v0z" />
</svg>
