<?xml version="1.0" standalone="no"?>
<!DOCTYPE svg PUBLIC "-//W3C//DTD SVG 1.1//EN" "http://www.w3.org/Graphics/SVG/1.1/DTD/svg11.dtd" >
<svg xmlns="http://www.w3.org/2000/svg" xmlns:xlink="http://www.w3.org/1999/xlink" version="1.1" viewBox="-10 -40 532 512">
   <path fill="currentColor"
d="M256 -7q61 1 112 30v0v0q51 30 82 82q30 53 30 112t-30 112q-31 52 -82 82q-51 29 -112 30q-61 -1 -112 -30q-51 -30 -82 -82q-30 -53 -30 -112t30 -112q31 -52 82 -82q51 -29 112 -30v0zM256 473q70 -1 128 -34v0v0q58 -34 94 -94q34 -61 34 -128t-34 -128
q-36 -60 -94 -94q-58 -33 -128 -34q-70 1 -128 34q-58 34 -94 94q-34 61 -34 128t34 128q36 60 94 94q58 33 128 34v0zM202 84q22 20 54 21q32 -1 54 -21q41 16 65 52q24 35 25 81q-1 46 -25 81q-24 36 -65 52q-22 -20 -54 -21q-32 1 -54 21q-41 -16 -65 -52
q-24 -35 -25 -81q1 -46 25 -81q24 -36 65 -52v0zM213 46q-58 16 -95 62v0v0q-37 46 -38 109q1 63 38 109t95 62q13 -25 43 -27q30 2 43 27q58 -16 95 -62t38 -109q-1 -63 -38 -109t-95 -62q-13 26 -43 27q-30 -1 -43 -27v0zM208 137h-32h32h-32v32v0h32v0v-32v0zM208 201
h-32h32h-32v32v0h32v0v-32v0zM176 265v32v-32v32h32v0v-32v0h-32v0zM272 169v-32v32v-32h-32v0v32v0h32v0zM272 297v-32v32v-32h-32v0v32v0h32v0zM304 137v32v-32v32h32v0v-32v0h-32v0zM240 201v32v-32v32h32v0v-32v0h-32v0zM336 201h-32h32h-32v32v0h32v0v-32v0zM304 265
v32v-32v32h32v0v-32v0h-32v0z" />
</svg>
