<?xml version="1.0" standalone="no"?>
<!DOCTYPE svg PUBLIC "-//W3C//DTD SVG 1.1//EN" "http://www.w3.org/Graphics/SVG/1.1/DTD/svg11.dtd" >
<svg xmlns="http://www.w3.org/2000/svg" xmlns:xlink="http://www.w3.org/1999/xlink" version="1.1" viewBox="-10 -40 404 512">
   <path fill="currentColor"
d="M32 -7v448v-448v448h320v0v-448v0h-320v0zM0 -39h32h-32h384v32v0v448v0v32v0h-32h-352v-32v0v-448v0v-32v0zM80 89h224h-224h240v32v0h-16h-240v-32v0h16v0zM80 185h224h-224h240v32v0h-16h-240v-32v0h16v0zM80 281h128h-128h144v32v0h-16h-144v-32v0h16v0z" />
</svg>
