<?xml version="1.0" standalone="no"?>
<!DOCTYPE svg PUBLIC "-//W3C//DTD SVG 1.1//EN" "http://www.w3.org/Graphics/SVG/1.1/DTD/svg11.dtd" >
<svg xmlns="http://www.w3.org/2000/svg" xmlns:xlink="http://www.w3.org/1999/xlink" version="1.1" viewBox="-10 -40 468 512">
   <path fill="currentColor"
d="M32 89h384h-384h384v352v0h-384v0v-352v0zM32 57v-64v64v-64h384v0v64v0h-384v0zM448 73v-16v16v-16v-64v0v-32v0h-32h-416v32v0v64v0v16v0v16v0v352v0v32v0h32h416v-32v0v-352v0v-16v0zM112 153h-16h16h-16v32v0h16h240v-32v0h-16h-224zM112 249h-16h16h-16v32v0h16h240
v-32v0h-16h-224zM112 345h-16h16h-16v32v0h16h144v-32v0h-16h-128z" />
</svg>
