<?xml version="1.0" standalone="no"?>
<!DOCTYPE svg PUBLIC "-//W3C//DTD SVG 1.1//EN" "http://www.w3.org/Graphics/SVG/1.1/DTD/svg11.dtd" >
<svg xmlns="http://www.w3.org/2000/svg" xmlns:xlink="http://www.w3.org/1999/xlink" version="1.1" viewBox="-10 -40 532 512">
   <path fill="currentColor"
d="M160 377h-32h32h-160v-32v0v-352v0v-32v0h32h480v32v0v352v0v32v0h-32h-176l-112 75v0l-32 21v0v-38v0v-26v0v-32v0zM160 345h32h-32h32v32v0v36v0l94 -63v0l8 -5v0h10h176v-352v0h-448v0v352v0h128v0zM80 185h224h-224h240v32v0h-16h-240v-32v0h16v0zM368 185h64h-64h80
v32v0h-16h-80v-32v0h16v0zM80 249h96h-96h112v32v0h-16h-112v-32v0h16v0zM240 249h192h-192h208v32v0h-16h-208v-32v0h16v0z" />
</svg>
