<?xml version="1.0" standalone="no"?>
<!DOCTYPE svg PUBLIC "-//W3C//DTD SVG 1.1//EN" "http://www.w3.org/Graphics/SVG/1.1/DTD/svg11.dtd" >
<svg xmlns="http://www.w3.org/2000/svg" xmlns:xlink="http://www.w3.org/1999/xlink" version="1.1" viewBox="-10 -40 532 512">
   <path fill="currentColor"
d="M160 377h-32h32h-160v-32v0v-352v0v-32v0h32h480v32v0v352v0v32v0h-32h-176l-112 75v0l-32 21v0v-38v0v-26v0v-32v0zM160 345h32h-32h32v32v0v36v0l94 -63v0l8 -5v0h10h176v-352v0h-448v0v352v0h128v0zM104 89q2 -22 24 -24q22 2 24 24q-2 22 -24 24q-22 -2 -24 -24v0z
M288 80l13 15l-13 -15l13 15l112 144v0l3 5v0v5v0v16v0v16v0h-16h-304v-16v0v-16v0v-6v0l4 -4v0l64 -80v0l11 -14v0l12 13v0l20 19v0l69 -82v0l12 -16v1zM288 131l-68 80l68 -80l-68 80l-11 14v0l-12 -13v0l-20 -19v0l-44 56v0h247v0l-92 -118v0z" />
</svg>
