<?xml version="1.0" standalone="no"?>
<!DOCTYPE svg PUBLIC "-//W3C//DTD SVG 1.1//EN" "http://www.w3.org/Graphics/SVG/1.1/DTD/svg11.dtd" >
<svg xmlns="http://www.w3.org/2000/svg" xmlns:xlink="http://www.w3.org/1999/xlink" version="1.1" viewBox="-10 -40 660 512">
   <path fill="currentColor"
d="M256 441q76 -1 133 -43q4 16 12 30q-63 44 -145 45q-72 -1 -129 -35q-58 -34 -92 -92q-34 -57 -35 -129q1 -72 35 -129q34 -58 92 -92q57 -34 129 -35q87 1 152 50t92 127l-24 36v0q-17 -79 -77 -129t-143 -52q-63 1 -113 31q-51 29 -80 80q-30 50 -31 113q1 63 31 113
q29 51 80 80q50 30 113 31v0zM176 105v64v-64v64v16v0h-32v0v-16v0v-64v0v-16v0h32v0v16v0zM272 105v64v-64v64v16v0h-32v0v-16v0v-64v0v-16v0h32v0v16v0zM368 105v64v-64v64v16v0h-32v0v-16v0v-64v0v-16v0h32v0v16v0zM461 314q-13 21 -13 45v2v0q1 34 23 57q23 22 57 23
q34 -1 57 -23q22 -23 23 -57v-2v0q0 -24 -13 -45l-67 -102v0l-67 102v0zM435 297l74 -115l-74 115l74 -115l19 -29v0l19 29v0l75 115v0q18 28 18 62v2v0q-1 48 -33 79q-31 32 -79 33q-48 -1 -79 -33q-32 -31 -33 -79v-2v0q0 -34 19 -62v0z" />
</svg>
