<?xml version="1.0" standalone="no"?>
<!DOCTYPE svg PUBLIC "-//W3C//DTD SVG 1.1//EN" "http://www.w3.org/Graphics/SVG/1.1/DTD/svg11.dtd" >
<svg xmlns="http://www.w3.org/2000/svg" xmlns:xlink="http://www.w3.org/1999/xlink" version="1.1" viewBox="-10 -40 661 512">
   <path fill="currentColor"
d="M256 -7q57 1 105 26v0v0q48 26 79 69l13 -8v0l40 41v0q-29 -72 -92 -115q-63 -44 -145 -45q-72 1 -129 35q-58 34 -92 92q-34 57 -35 129q1 72 35 129q34 58 92 92q57 34 129 35q51 0 95 -18q-13 -12 -24 -26q-33 12 -71 12q-63 -1 -113 -31q-51 -29 -80 -80
q-30 -50 -31 -113q1 -63 31 -113q29 -51 80 -80q50 -30 113 -31v0zM368 105v-16v16v-16h-32v0v16v0v64v0v13v0q3 -4 7 -9q12 -15 25 -28v-40v0zM176 105v-16v16v-16h-32v0v16v0v64v0v16v0h32v0v-16v0v-64v0zM272 105v-16v16v-16h-32v0v16v0v64v0v16v0h32v0v-16v0v-64v0z
M489 162l-41 -41l41 41l-41 -41q-23 14 -52 42q-30 28 -52 66q-23 39 -24 84q2 65 44 110t107 50h9h9q65 -5 107 -50t44 -110q1 -22 -19 -66q-21 -45 -77 -94l-9 9v0l-23 23v0l-23 -23v0zM480 441h-7q-26 -3 -41 -20q-16 -16 -16 -37q2 -35 39 -72q14 -13 25 -23q11 9 25 23
q37 37 39 72q0 21 -16 37q-15 17 -41 20h-7v0zM576 384q-2 -36 -25 -67v0v0q-23 -30 -46 -49v0v0q-23 -18 -25 -19q-2 1 -25 19q-23 19 -46 49q-23 31 -25 67q0 8 2 15q-33 -35 -34 -86q2 -53 41 -100q26 -31 51 -50l45 45v0l23 22v0l23 -22v0l10 -11v0q38 40 51 72t12 44
q-1 51 -33 86q1 -7 1 -15v0z" />
</svg>
