<?xml version="1.0" standalone="no"?>
<!DOCTYPE svg PUBLIC "-//W3C//DTD SVG 1.1//EN" "http://www.w3.org/Graphics/SVG/1.1/DTD/svg11.dtd" >
<svg xmlns="http://www.w3.org/2000/svg" xmlns:xlink="http://www.w3.org/1999/xlink" version="1.1" viewBox="-10 -40 404 512">
   <path fill="currentColor"
d="M176 203l-87 257l87 -257l-87 257l30 10v0l57 -168v0v91v0v16v0h32v0v-16v0v-185v0l37 -110v0q16 -9 35 -9q31 1 51 21t21 51v232v0v16v0h32v0v-16v0v-232v0q-1 -44 -30 -74q-30 -29 -74 -30q-11 0 -22 2l29 -85v0l-30 -10v0l-38 113v0q-16 12 -27 29q-14 -23 -37 -36
t-51 -13q-43 1 -72 29v-29v0h-32v0v104v0v8v0v224v0v16v0h32v0v-16v0v-224v0v-8v0q1 -31 21 -51t51 -21q31 1 51 21t21 51v42v0z" />
</svg>
