<?xml version="1.0" standalone="no"?>
<!DOCTYPE svg PUBLIC "-//W3C//DTD SVG 1.1//EN" "http://www.w3.org/Graphics/SVG/1.1/DTD/svg11.dtd" >
<svg xmlns="http://www.w3.org/2000/svg" xmlns:xlink="http://www.w3.org/1999/xlink" version="1.1" viewBox="-10 -40 468 512">
   <path fill="currentColor"
d="M80 -7h-16h16h-16v16v0v208v0h-48h-16v32v0h16h48v176v0v16v0h32v0v-16v0v-176v0h130v0l123 185v0l5 7v0h9h21v-16v0v-176v0h48h16v-32v0h-16h-48v-208v0v-16v0h-32v0v16v0v208v0h-109v0l-144 -217v0l-5 -7v0h-9h-5zM265 249h87h-87h87v131v0l-87 -131v0zM205 217h-109
h109h-109v-163v0l109 163v0z" />
</svg>
