<?xml version="1.0" standalone="no"?>
<!DOCTYPE svg PUBLIC "-//W3C//DTD SVG 1.1//EN" "http://www.w3.org/Graphics/SVG/1.1/DTD/svg11.dtd" >
<svg xmlns="http://www.w3.org/2000/svg" xmlns:xlink="http://www.w3.org/1999/xlink" version="1.1" viewBox="-10 -40 596 512">
   <path fill="currentColor"
d="M416 25h-384h384h-384v384v0h288v0v32v0h-288h-32v-32v0v-384v0v-32v0h32h416v32v0v97v0q-17 3 -32 10v-107v0zM384 73v82v-82v82q-31 31 -32 78v-144v0h-112v0v83v0q30 12 32 45q-1 20 -14 34q-14 13 -34 14q-20 -1 -34 -14q-13 -14 -14 -34q2 -33 32 -45v-99v0v-16v0
h16h160v16v0zM96 345h224h-224h224v32v0h-240h-16v-16v0v-288v0v-16v0h16h80v32v0h-16h-48v256v0zM224 201q-15 1 -16 16q1 15 16 16q15 -1 16 -16q-1 -15 -16 -16v0zM464 185q-20 1 -34 14v0v0q-13 14 -14 34v48v0h96v0v-48v0q-1 -20 -14 -34q-14 -13 -34 -14v0zM384 233
q1 -34 23 -57v0v0q23 -22 57 -23q34 1 57 23q22 23 23 57v48v0h32v0v32v0v128v0v32v0h-32h-192v-32v0v-128v0v-32v0h32v0v-48v0zM544 313h-160h160h-160v128v0h160v0v-128v0z" />
</svg>
