<?xml version="1.0" standalone="no"?>
<!DOCTYPE svg PUBLIC "-//W3C//DTD SVG 1.1//EN" "http://www.w3.org/Graphics/SVG/1.1/DTD/svg11.dtd" >
<svg xmlns="http://www.w3.org/2000/svg" xmlns:xlink="http://www.w3.org/1999/xlink" version="1.1" viewBox="-10 -40 658 512">
   <path fill="currentColor"
d="M416 25h-384h384h-384v384v0h320v0q41 31 96 32h-32h-416v-32v0v-384v0v-32v0h32h416v32v0v96v0q-17 0 -32 3v-99v0zM384 73v61v-61v61q-17 8 -32 19v-64v0h-112v0v83v0q30 12 32 45q-1 20 -14 34q-14 13 -34 14q-20 -1 -34 -14q-13 -14 -14 -34q2 -33 32 -45v-99v0v-16
v0h16h160v16v0zM320 377h-240h240h-256v-16v0v-288v0v-16v0h16h80v32v0h-16h-48v256v0h205v0q8 17 19 32v0zM224 201q-15 1 -16 16q1 15 16 16q15 -1 16 -16q-1 -15 -16 -16v0zM448 377q26 0 48 -13v0v0q22 -12 35 -35t13 -48t-13 -48q-13 -22 -35 -35t-48 -13t-48 13
t-35 35q-13 23 -13 48t13 48t35 35q22 13 48 13v0zM448 409q-54 -1 -91 -37v0v0q-36 -36 -37 -91q1 -54 37 -90q37 -36 91 -38q54 2 91 38q36 36 37 90q-1 45 -27 79l78 77v0l11 12v0l-22 22v0l-11 -11v0l-78 -78v0q-34 26 -79 27v0z" />
</svg>
