<?xml version="1.0" standalone="no"?>
<!DOCTYPE svg PUBLIC "-//W3C//DTD SVG 1.1//EN" "http://www.w3.org/Graphics/SVG/1.1/DTD/svg11.dtd" >
<svg xmlns="http://www.w3.org/2000/svg" xmlns:xlink="http://www.w3.org/1999/xlink" version="1.1" viewBox="-10 -40 532 512">
   <path fill="currentColor"
d="M32 300v-166v166v-166l141 -141v0h166v0l141 141v0v166v0l-141 141v0h-166v0l-141 -141v0zM160 -39l-160 160l160 -160l-160 160v192v0l160 160v0h192v0l160 -160v0v-192v0l-160 -160v0h-192v0zM280 97h-48h48h-48v48v0h48v0v-48v0zM160 201h-16h16h-16v32v0h16h208v-32
v0h-16h-192zM232 289v48v-48v48h48v0v-48v0h-48v0z" />
</svg>
