<?xml version="1.0" standalone="no"?>
<!DOCTYPE svg PUBLIC "-//W3C//DTD SVG 1.1//EN" "http://www.w3.org/Graphics/SVG/1.1/DTD/svg11.dtd" >
<svg xmlns="http://www.w3.org/2000/svg" xmlns:xlink="http://www.w3.org/1999/xlink" version="1.1" viewBox="-10 -40 660 512">
   <path fill="currentColor"
d="M294 279l-6 34l6 -34l-6 34l34 -6v0l94 -18v0l201 -201v0l23 -23v0l-23 -23v0l-58 -58v0l-23 -23v0l-23 23v0l-201 201v0l-18 94v0zM328 273l14 -72l-14 72l14 -72l137 -138v0l59 59v0l-138 137v0l-72 14v0zM595 65l-34 34l34 -34l-34 34l-59 -59v0l34 -34v0l59 59v0z
M16 89h-16h16h-16v16v0v352v0v16v0h16h560v-16v0v-224v0v-16v0h-32v0v16v0v208v0h-512v0v-320v0h272h16v-32v0h-16h-288zM152 257h-48h48h-48v48v0h48v0v-48v0zM200 257v48v-48v48h48v0v-48v0h-48v0z" />
</svg>
