<?xml version="1.0" standalone="no"?>
<!DOCTYPE svg PUBLIC "-//W3C//DTD SVG 1.1//EN" "http://www.w3.org/Graphics/SVG/1.1/DTD/svg11.dtd" >
<svg xmlns="http://www.w3.org/2000/svg" xmlns:xlink="http://www.w3.org/1999/xlink" version="1.1" viewBox="-10 -40 652 512">
   <path fill="currentColor"
d="M553 112l23 -23l-23 23l23 -23l-23 -23v0l-82 -82v0l-23 -23v0l-23 23v0l-131 131v0l25 20v0l60 -60v0l83 83v0l-50 50v0l25 20v0l116 -116v0zM321 299l-113 113l113 -113l-113 113l-103 20v0l21 -103v0l102 -103v0l-25 -20v0l-107 107v0l-25 126v0l-7 34v0l34 -7v0
l126 -25v0l122 -122v0l-25 -20v0zM485 135l-83 -83l83 83l-83 -83l46 -46v0l83 83v0l-46 46v0zM40 -21l-12 -10l12 10l-12 -10l-20 25v0l13 10v0l579 451v0l12 10v0l20 -25v0l-12 -10v0l-580 -451v0z" />
</svg>
