<?xml version="1.0" standalone="no"?>
<!DOCTYPE svg PUBLIC "-//W3C//DTD SVG 1.1//EN" "http://www.w3.org/Graphics/SVG/1.1/DTD/svg11.dtd" >
<svg xmlns="http://www.w3.org/2000/svg" xmlns:xlink="http://www.w3.org/1999/xlink" version="1.1" viewBox="-10 -40 404 512">
   <path fill="currentColor"
d="M48 -7h-16h16h-16v16v0v112v0h-32v0v32v0h32v0v112v0v160v0v16v0h32v0v-16v0v-144v0h144v0q57 -1 96 -37q40 -36 47 -91h33v0v-32v0h-33v0q-7 -55 -47 -91q-39 -36 -96 -37h-160v0zM319 121h-255h255h-255v-96v0h144v0q43 1 74 28q30 26 37 68v0zM64 153h255h-255h255
q-7 42 -37 68q-31 27 -74 28h-144v0v-96v0z" />
</svg>
