<?xml version="1.0" standalone="no"?>
<!DOCTYPE svg PUBLIC "-//W3C//DTD SVG 1.1//EN" "http://www.w3.org/Graphics/SVG/1.1/DTD/svg11.dtd" >
<svg xmlns="http://www.w3.org/2000/svg" xmlns:xlink="http://www.w3.org/1999/xlink" version="1.1" viewBox="-10 -40 596 512">
   <path fill="currentColor"
d="M0 49q1 -37 26 -62v0v0q25 -25 62 -26h8h16v32v0h-16h-8q-24 1 -40 16q-15 16 -16 40v8v0h64h32v32v0v64v0v32v0h-32h-96v-32v0v-24v0v-40v0v-32v0v-8v0zM32 89v40v-40v40v24v0h64v0v-64v0h-64v0zM160 49q1 -37 26 -62v0v0q25 -25 62 -26h8h16v32v0h-16h-8q-24 1 -40 16
q-15 16 -16 40v8v0h64h32v32v0v64v0v32v0h-32h-96v-32v0v-24v0v-40v0v-32v0v-8v0zM192 129v24v-24v24h64v0v-64v0h-64v0v40v0zM576 385q-1 37 -26 62v0v0q-25 25 -62 26h-8h-16v-32v0h16h8q24 -1 40 -16q15 -16 16 -40v-8v0h-64h-32v-32v0v-64v0v-32v0h32h96v32v0v24v0v40v0
v32v0v8v0zM544 345v-40v40v-40v-24v0h-64v0v64v0h64v0zM416 385q-1 37 -26 62v0v0q-25 25 -62 26h-8h-16v-32v0h16h8q24 -1 40 -16q15 -16 16 -40v-8v0h-64h-32v-32v0v-64v0v-32v0h32h96v32v0v24v0v40v0v32v0v8v0zM384 305v-24v24v-24h-64v0v64v0h64v0v-40v0z" />
</svg>
