<?xml version="1.0" standalone="no"?>
<!DOCTYPE svg PUBLIC "-//W3C//DTD SVG 1.1//EN" "http://www.w3.org/Graphics/SVG/1.1/DTD/svg11.dtd" >
<svg xmlns="http://www.w3.org/2000/svg" xmlns:xlink="http://www.w3.org/1999/xlink" version="1.1" viewBox="-10 -40 532 512">
   <path fill="currentColor"
d="M279 -16l52 52l-52 -52l52 52h74h32v32v0v74v0l52 52v0l23 23v0l-23 23v0l-52 52v0v74v0v32v0h-32h-74l-52 52v0l-23 23v0l-23 -23v0l-52 -52v0h-74h-32v-32v0v-74v0l-52 -52v0l-23 -23v0l23 -23v0l52 -52v0v-74v0v-32v0h32h74l52 -52v0l23 -23v0l23 23v0zM331 68h-13h13
h-13l-10 -9v0l-52 -53v0l-52 53v0l-10 9v0h-13h-74v74v0v13v0l-9 10v0l-53 52v0l53 52v0l9 10v0v13v0v74v0h74h13l10 9v0l52 53v0l52 -53v0l10 -9v0h13h74v-74v0v-13v0l9 -10v0l53 -52v0l-53 -52v0l-9 -10v0v-13v0v-74v0h-74v0zM272 89v16v-16v16v128v0v16v0h-32v0v-16v0
v-128v0v-16v0h32v0zM232 281h48h-48h48v48v0h-48v0v-48v0z" />
</svg>
