<?xml version="1.0" standalone="no"?>
<!DOCTYPE svg PUBLIC "-//W3C//DTD SVG 1.1//EN" "http://www.w3.org/Graphics/SVG/1.1/DTD/svg11.dtd" >
<svg xmlns="http://www.w3.org/2000/svg" xmlns:xlink="http://www.w3.org/1999/xlink" version="1.1" viewBox="-10 -40 532 512">
   <path fill="currentColor"
d="M279 -16l44 44l-44 -44l44 44h82h32v32v0v82v0l52 52v0l23 23v0l-23 23v0l-52 52v0v82v0v32v0h-32h-82l-44 44v0l-23 23v0l-23 -23v0l-44 -44v0h-82h-32v-32v0v-82v0l-52 -52v0l-23 -23v0l23 -23v0l52 -52v0v-82v0v-32v0h32h82l44 -44v0l23 -23v0l23 23v0zM323 60h-13h13
h-13l-10 -9v0l-44 -45v0l-44 45v0l-10 9v0h-13h-82v82v0v13v0l-9 10v0l-53 52v0l53 52v0l9 10v0v13v0v82v0h82h13l10 9v0l44 45v0l44 -45v0l10 -9v0h13h82v-82v0v-13v0l9 -10v0l53 -52v0l-53 -52v0l-9 -10v0v-13v0v-82v0h-82v0zM168 145q1 -24 16 -40v0v0q16 -15 40 -16h56
v0q27 1 45 19t19 45v16v0h-2v0q-7 28 -33 42l-37 18v0v4v0v16v0h-32v0v-16v0v-13v0v-10v0l9 -5v0l46 -23v0q16 -10 17 -29q0 -14 -9 -23t-23 -9h-56v0q-22 2 -24 24v8v0h-32v0v-8v0zM232 281h48h-48h48v48v0h-48v0v-48v0z" />
</svg>
