<?xml version="1.0" standalone="no"?>
<!DOCTYPE svg PUBLIC "-//W3C//DTD SVG 1.1//EN" "http://www.w3.org/Graphics/SVG/1.1/DTD/svg11.dtd" >
<svg xmlns="http://www.w3.org/2000/svg" xmlns:xlink="http://www.w3.org/1999/xlink" version="1.1" viewBox="-10 -40 660 512">
   <path fill="currentColor"
d="M32 -23v-16v16v-16h-32v0v16v0v144v0v16v0v16v0v224v0v16v0v16v0v48v0v16v0h32v0v-16v0v-48v0h576v0v48v0v16v0h32v0v-16v0v-48v0v-16v0v-16v0v-224v0v-16v0v-16v0v-144v0v-16v0h-32v0v16v0v144v0h-576v0v-144v0zM32 153h576h-576h576v224v0h-576v0v-224v0z" />
</svg>
