<?xml version="1.0" standalone="no"?>
<!DOCTYPE svg PUBLIC "-//W3C//DTD SVG 1.1//EN" "http://www.w3.org/Graphics/SVG/1.1/DTD/svg11.dtd" >
<svg xmlns="http://www.w3.org/2000/svg" xmlns:xlink="http://www.w3.org/1999/xlink" version="1.1" viewBox="-10 -40 404 512">
   <path fill="currentColor"
d="M208 -39v16v-16v16v17v0q62 7 102 51q41 44 42 108h16h16v32v0h-16h-368v-32v0h16h16q1 -64 42 -108q40 -44 102 -51v-17v0v-16v0h32v0zM192 25q-54 1 -91 37v0v0q-36 37 -37 91h256v0q-1 -54 -37 -91q-37 -36 -91 -37v0zM243 415q-3 5 -3 10q1 15 16 16q15 -1 16 -16
q0 -5 -3 -10l-13 -17v0l-13 17v0zM218 396l18 -24l-18 24l18 -24l20 -27v0l20 27v0l18 24v0q10 13 10 29q-1 20 -14 34q-14 13 -34 14q-20 -1 -34 -14q-13 -14 -14 -34q0 -16 10 -29v0zM320 270l-13 17l13 -17l-13 17q-3 5 -3 10q1 15 16 16q15 -1 16 -16q0 -5 -3 -10
l-13 -17v0zM300 244l20 -27l-20 27l20 -27l20 27v0l18 24v0q10 13 10 29q-1 20 -14 34q-14 13 -34 14q-20 -1 -34 -14q-13 -14 -14 -34q0 -16 10 -29l18 -24v0zM115 415q-3 5 -3 10q1 15 16 16q15 -1 16 -16q0 -5 -3 -10l-13 -17v0l-13 17v0zM90 396l18 -24l-18 24l18 -24
l20 -27v0l20 27v0l18 24v0q10 13 10 29q-1 20 -14 34q-14 13 -34 14q-20 -1 -34 -14q-13 -14 -14 -34q0 -16 10 -29v0zM192 270l-13 17l13 -17l-13 17q-3 5 -3 10q1 15 16 16q15 -1 16 -16q0 -5 -3 -10l-13 -17v0zM172 244l20 -27l-20 27l20 -27l20 27v0l18 24v0
q10 13 10 29q-1 20 -14 34q-14 13 -34 14q-20 -1 -34 -14q-13 -14 -14 -34q0 -16 10 -29l18 -24v0zM51 287q-3 5 -3 10q1 15 16 16q15 -1 16 -16q0 -5 -3 -10l-13 -17v0l-13 17v0zM26 268l18 -24l-18 24l18 -24l20 -27v0l20 27v0l18 24v0q10 13 10 29q-1 20 -14 34
q-14 13 -34 14q-20 -1 -34 -14q-13 -14 -14 -34q0 -16 10 -29v0z" />
</svg>
