<?xml version="1.0" standalone="no"?>
<!DOCTYPE svg PUBLIC "-//W3C//DTD SVG 1.1//EN" "http://www.w3.org/Graphics/SVG/1.1/DTD/svg11.dtd" >
<svg xmlns="http://www.w3.org/2000/svg" xmlns:xlink="http://www.w3.org/1999/xlink" version="1.1" viewBox="-10 -40 532 512">
   <path fill="currentColor"
d="M480 25v384v-384v384h-256v0v-384v0h256v0zM32 25h160h-160h160v384v0h-160v0v-384v0zM32 -7h-32h32h-32v32v0v384v0v32v0h32h480v-32v0v-384v0v-32v0h-32h-448zM160 57h-96h96h-96v32v0h96v0v-32v0zM64 121v32v-32v32h96v0v-32v0h-96v0zM160 185h-96h96h-96v32v0h96v0
v-32v0z" />
</svg>
