<?xml version="1.0" standalone="no"?>
<!DOCTYPE svg PUBLIC "-//W3C//DTD SVG 1.1//EN" "http://www.w3.org/Graphics/SVG/1.1/DTD/svg11.dtd" >
<svg xmlns="http://www.w3.org/2000/svg" xmlns:xlink="http://www.w3.org/1999/xlink" version="1.1" viewBox="-10 -40 532 512">
   <path fill="currentColor"
d="M32 25v384v-384v384h256v0v-384v0h-256v0zM480 25h-160h160h-160v384v0h160v0v-384v0zM480 -7h32h-32h32v32v0v384v0v32v0h-32h-480v-32v0v-384v0v-32v0h32h448zM352 57h96h-96h96v32v0h-96v0v-32v0zM448 121v32v-32v32h-96v0v-32v0h96v0zM352 185h96h-96h96v32v0h-96v0
v-32v0z" />
</svg>
