<?xml version="1.0" standalone="no"?>
<!DOCTYPE svg PUBLIC "-//W3C//DTD SVG 1.1//EN" "http://www.w3.org/Graphics/SVG/1.1/DTD/svg11.dtd" >
<svg xmlns="http://www.w3.org/2000/svg" xmlns:xlink="http://www.w3.org/1999/xlink" version="1.1" viewBox="-10 -40 532 512">
   <path fill="currentColor"
d="M32 377h96h-96h96v-32v0v-32v0v-32v0h-96v0v96v0zM160 345v32v-32v32v32v0h-32h-128v-32v0v-96v0v-32v0h32h128v32v0v32v0h336h16v32v0h-16h-336zM16 121h-16h16h-16v-32v0h16h336v-32v0v-32v0h32h128v32v0v96v0v32v0h-32h-128v-32v0v-32v0h-336v0zM384 57v96v-96v96h96
v0v-96v0h-96v0z" />
</svg>
