<?xml version="1.0" standalone="no"?>
<!DOCTYPE svg PUBLIC "-//W3C//DTD SVG 1.1//EN" "http://www.w3.org/Graphics/SVG/1.1/DTD/svg11.dtd" >
<svg xmlns="http://www.w3.org/2000/svg" xmlns:xlink="http://www.w3.org/1999/xlink" version="1.1" viewBox="-10 -40 531 512">
   <path fill="currentColor"
d="M416 -6l11 12l-11 -12l11 12l68 67v0h1v0v1v0l3 4v0l12 11v0l-12 11v0l-3 4v0v1v0h-1v0l-68 67v0l-11 12v0l-23 -23v0l12 -11v0l44 -45v0h-49h-73l-112 112v0l112 112v0h73h49l-44 -45v0l-12 -11v0l23 -23v0l11 12v0l68 67v0h1v0v1v0l3 4v0l12 11v0l-12 11v0l-3 4v0v1v0
h-1v0l-68 67v0l-11 12v0l-23 -23v0l12 -11v0l44 -45v0h-49h-87l-4 -5v0l-124 -123v0h-137h-48v-32v0h16h169l124 -123v0l4 -5v0h7h129l-44 -45v0l-12 -11v0l23 -23v0z" />
</svg>
