<?xml version="1.0" standalone="no"?>
<!DOCTYPE svg PUBLIC "-//W3C//DTD SVG 1.1//EN" "http://www.w3.org/Graphics/SVG/1.1/DTD/svg11.dtd" >
<svg xmlns="http://www.w3.org/2000/svg" xmlns:xlink="http://www.w3.org/1999/xlink" version="1.1" viewBox="-10 -40 468 512">
   <path fill="currentColor"
d="M32 25v384v-384v384h384v0v-384v0h-384v0zM0 -7h32h-32h448v32v0v384v0v32v0h-32h-416v-32v0v-384v0v-32v0zM219 121q-22 0 -37 15l-23 24v0l-23 -23v0l23 -23v0q25 -24 60 -25h5v0q33 1 55 23q23 22 24 56l-2 16v0q-5 22 -20 38l-85 91v0h123v0v32v0h-176v0v-22v0
l115 -123v0q12 -13 13 -32q-1 -20 -14 -33t-33 -14h-5v0z" />
</svg>
