<?xml version="1.0" standalone="no"?>
<!DOCTYPE svg PUBLIC "-//W3C//DTD SVG 1.1//EN" "http://www.w3.org/Graphics/SVG/1.1/DTD/svg11.dtd" >
<svg xmlns="http://www.w3.org/2000/svg" xmlns:xlink="http://www.w3.org/1999/xlink" version="1.1" viewBox="-10 -40 468 512">
   <path fill="currentColor"
d="M16 -7h112h-112h112v32v0h-96v0v96v0h-32v0v-112v0v-16v0h16v0zM0 153h32h-32h32v128v0h-32v0v-128v0zM416 153h32h-32h32v128v0h-32v0v-128v0zM448 121h-32h32h-32v-96v0h-96v0v-32v0h112h16v16v0v112v0zM448 313v112v-112v112v16v0h-16h-112v-32v0h96v0v-96v0h32v0z
M32 313v96v-96v96h96v0v32v0h-112h-16v-16v0v-112v0h32v0zM288 441h-128h128h-128v-32v0h128v0v32v0zM160 25v-32v32v-32h128v0v32v0h-128v0z" />
</svg>
