<?xml version="1.0" standalone="no"?>
<!DOCTYPE svg PUBLIC "-//W3C//DTD SVG 1.1//EN" "http://www.w3.org/Graphics/SVG/1.1/DTD/svg11.dtd" >
<svg xmlns="http://www.w3.org/2000/svg" xmlns:xlink="http://www.w3.org/1999/xlink" version="1.1" viewBox="-10 -40 468 512">
   <path fill="currentColor"
d="M416 25h-384h384h-384v384v0h384v0v-384v0zM448 -7v32v-32v32v384v0v32v0h-32h-416v-32v0v-384v0v-32v0h32h416zM152 193v48v-48v48h-48v0v-48v0h48v0zM200 193h48h-48h48v48v0h-48v0v-48v0zM344 193v48v-48v48h-48v0v-48v0h48v0z" />
</svg>
