<?xml version="1.0" standalone="no"?>
<!DOCTYPE svg PUBLIC "-//W3C//DTD SVG 1.1//EN" "http://www.w3.org/Graphics/SVG/1.1/DTD/svg11.dtd" >
<svg xmlns="http://www.w3.org/2000/svg" xmlns:xlink="http://www.w3.org/1999/xlink" version="1.1" viewBox="-10 -40 468 512">
   <path fill="currentColor"
d="M32 25v384v-384v384h384v0v-384v0h-384v0zM0 -7h32h-32h448v32v0v384v0v32v0h-32h-416v-32v0v-384v0v-32v0zM128 217q1 41 28 68v0v0q27 27 68 28q36 -1 62 -23t33 -57h-63h-16v-32v0h16h96v16v0q-1 54 -37 91q-37 36 -91 37q-54 -1 -91 -37q-36 -37 -37 -91
q1 -54 37 -91q37 -36 91 -37q50 1 85 33l12 10v0l-21 24v0l-12 -11v0q-26 -23 -64 -24q-41 1 -68 28t-28 68v0z" />
</svg>
