<?xml version="1.0" standalone="no"?>
<!DOCTYPE svg PUBLIC "-//W3C//DTD SVG 1.1//EN" "http://www.w3.org/Graphics/SVG/1.1/DTD/svg11.dtd" >
<svg xmlns="http://www.w3.org/2000/svg" xmlns:xlink="http://www.w3.org/1999/xlink" version="1.1" viewBox="-10 -40 468 512">
   <path fill="currentColor"
d="M32 25v384v-384v384h384v0v-384v0h-384v0zM0 -7h32h-32h448v32v0v384v0v32v0h-32h-416v-32v0v-384v0v-32v0zM128 217q0 26 13 48v0v0q13 22 35 35q23 13 48 13t48 -13q22 -13 35 -35t13 -48t-13 -48t-35 -35q-23 -13 -48 -13t-48 13q-22 13 -35 35t-13 48v0zM224 345
q-35 0 -64 -17v0v0q-29 -17 -47 -47q-17 -30 -17 -64t17 -64q18 -30 47 -47t64 -17t64 17t47 47q17 30 17 64t-17 64q-18 30 -47 47t-64 17v0z" />
</svg>
