<?xml version="1.0" standalone="no"?>
<!DOCTYPE svg PUBLIC "-//W3C//DTD SVG 1.1//EN" "http://www.w3.org/Graphics/SVG/1.1/DTD/svg11.dtd" >
<svg xmlns="http://www.w3.org/2000/svg" xmlns:xlink="http://www.w3.org/1999/xlink" version="1.1" viewBox="-10 -40 468 512">
   <path fill="currentColor"
d="M32 25v384v-384v384h384v0v-384v0h-384v0zM0 -7h32h-32h448v32v0v384v0v32v0h-32h-416v-32v0v-384v0v-32v0zM144 121v128v-128v128q1 34 23 57q23 22 57 23q34 -1 57 -23q22 -23 23 -57v-128v0v-16v0h32v0v16v0v128v0q-1 48 -33 79q-31 32 -79 33q-48 -1 -79 -33
q-32 -31 -33 -79v-128v0v-16v0h32v0v16v0z" />
</svg>
