<?xml version="1.0" standalone="no"?>
<!DOCTYPE svg PUBLIC "-//W3C//DTD SVG 1.1//EN" "http://www.w3.org/Graphics/SVG/1.1/DTD/svg11.dtd" >
<svg xmlns="http://www.w3.org/2000/svg" xmlns:xlink="http://www.w3.org/1999/xlink" version="1.1" viewBox="-10 -40 468 512">
   <path fill="currentColor"
d="M32 25v384v-384v384h384v0v-384v0h-384v0zM0 -7h32h-32h448v32v0v384v0v32v0h-32h-416v-32v0v-384v0v-32v0zM304 89h16h-16h16v21v0l-3 4v0l-142 199v0h129h16v32v0h-16h-176v-21v0l3 -4v0l142 -199v0h-129h-16v-32v0h16h160z" />
</svg>
