<?xml version="1.0" standalone="no"?>
<!DOCTYPE svg PUBLIC "-//W3C//DTD SVG 1.1//EN" "http://www.w3.org/Graphics/SVG/1.1/DTD/svg11.dtd" >
<svg xmlns="http://www.w3.org/2000/svg" xmlns:xlink="http://www.w3.org/1999/xlink" version="1.1" viewBox="-10 -40 532 512">
   <path fill="currentColor"
d="M256 -39h-16h16h-16v16v0v96v0v16v0h32v0v-16v0v-79v0q89 8 148 70q58 62 60 153q-1 63 -31 113q-29 51 -80 80q-50 30 -113 31q-63 -1 -113 -31q-51 -29 -80 -80q-30 -50 -31 -113q0 -47 18 -87q17 -41 48 -71l-23 -23v0q-35 35 -55 81q-20 47 -20 100q1 72 35 129
q34 58 92 92q57 34 129 35q72 -1 129 -35q58 -34 92 -92q34 -57 35 -129q-1 -72 -35 -129q-34 -58 -92 -92q-57 -34 -129 -35v0zM171 110l-11 -12l11 12l-11 -12l-23 23v0l12 11v0l96 96v0l11 12v0l23 -23v0l-12 -11v0l-96 -96v0z" />
</svg>
