<?xml version="1.0" standalone="no"?>
<!DOCTYPE svg PUBLIC "-//W3C//DTD SVG 1.1//EN" "http://www.w3.org/Graphics/SVG/1.1/DTD/svg11.dtd" >
<svg xmlns="http://www.w3.org/2000/svg" xmlns:xlink="http://www.w3.org/1999/xlink" version="1.1" viewBox="-10 -40 532 512">
   <path fill="currentColor"
d="M58 36q-25 46 -26 117q1 71 26 117q26 44 54 43h225v0q-11 -12 -19 -28q-29 -54 -30 -132q1 -78 30 -132q9 -15 19 -28h-225v0q-28 -1 -54 43v0zM400 -7q-28 -1 -54 43q-25 46 -26 117q1 71 26 117q26 44 54 43q28 1 54 -43q25 -46 26 -117q-1 -71 -26 -117
q-26 -44 -54 -43v0zM480 441v-152v152v-152q-14 24 -34 40t-46 16h-288v0q-26 -1 -47 -17q-21 -17 -35 -43q-29 -54 -30 -132q1 -78 30 -132q14 -26 35 -43q21 -16 47 -17h288v0q26 1 47 17q21 17 35 43q29 54 30 132v304v0v16v0h-16h-368v-16v0v-80v0h32v0v64v0h320v0z
M400 201q10 -2 15 -28q1 -9 1 -20t-1 -20q-5 -26 -15 -28q-10 2 -14 28q-2 9 -2 20t2 20q4 26 14 28v0zM400 233q-12 0 -20 -6v0v0q-8 -5 -11 -10q-8 -10 -11 -20q-6 -20 -6 -44t6 -44q3 -10 11 -20q3 -5 11 -10q8 -6 20 -6t20 6q8 5 11 10q8 10 11 20q6 20 6 44t-6 44
q-3 10 -11 20q-3 5 -11 10q-8 6 -20 6v0z" />
</svg>
