<?xml version="1.0" standalone="no"?>
<!DOCTYPE svg PUBLIC "-//W3C//DTD SVG 1.1//EN" "http://www.w3.org/Graphics/SVG/1.1/DTD/svg11.dtd" >
<svg xmlns="http://www.w3.org/2000/svg" xmlns:xlink="http://www.w3.org/1999/xlink" version="1.1" viewBox="-10 -40 652 512">
   <path fill="currentColor"
d="M541 473l-40 -32l40 32l-40 -32h-277v0v-64v0h-32v0v80v0v16v0h16h333zM509 284l25 20l-25 -20l25 20q5 -7 10 -16v24v0l32 25v0v-184v0q-1 -78 -30 -132q-14 -26 -35 -43q-21 -16 -47 -17h-288v0q-29 1 -51 20l26 21v0q13 -9 25 -9h225v0q-11 12 -19 28q-29 54 -30 132
v8l34 27v0q-2 -17 -2 -35q1 -71 26 -117q26 -44 54 -43q28 -1 54 43q25 46 26 117q-1 71 -26 117q-5 8 -9 14v0zM64 153q1 78 30 132q14 26 35 43q21 16 47 17h203v0l-41 -32v0h-162v0q-28 1 -54 -43q-25 -46 -26 -117q0 -15 2 -30l-30 -23v0q-4 25 -4 53v0zM464 201
q-10 -2 -14 -28q-2 -9 -2 -20t2 -20q4 -26 14 -28q10 2 15 28q1 9 1 20t-1 20q-5 26 -15 28v0zM464 233q12 0 20 -6v0v0q8 -5 11 -10q8 -10 11 -20q6 -20 6 -44t-6 -44q-3 -10 -11 -20q-3 -5 -11 -10q-8 -6 -20 -6t-20 6q-8 5 -11 10q-8 10 -11 20q-6 20 -6 44t6 44
q3 10 11 20q3 5 11 10q8 6 20 6v0zM40 -21l-12 -10l12 10l-12 -10l-20 25v0l13 10v0l579 451v0l12 10v0l20 -25v0l-12 -10v0l-580 -451v0z" />
</svg>
