<?xml version="1.0" standalone="no"?>
<!DOCTYPE svg PUBLIC "-//W3C//DTD SVG 1.1//EN" "http://www.w3.org/Graphics/SVG/1.1/DTD/svg11.dtd" >
<svg xmlns="http://www.w3.org/2000/svg" xmlns:xlink="http://www.w3.org/1999/xlink" version="1.1" viewBox="-10 -40 532 512">
   <path fill="currentColor"
d="M256 -7q-63 1 -113 31v0v0q-51 29 -80 80v0v0q-30 50 -31 113v240v0v16v0h-32v0v-16v0v-240v0q1 -72 35 -129q34 -58 92 -92q57 -34 129 -35q72 1 129 35q58 34 92 92q34 57 35 129v240v0v16v0h-32v0v-16v0v-240v0q-1 -63 -31 -113q-29 -51 -80 -80q-50 -30 -113 -31v0z
M144 121v96v-96v96h224v0v-96v0h-224v0zM144 249v128v-128v128h49h175v-128v0h-224v0zM351 409l52 53l-52 -53l52 53l12 11v0h-46v0l-64 -64v0h-98v0l-64 64v0h-46v0v0v0l12 -11v0l52 -53v0h-17h-32v-32v0v-256v0v-32v0h32h256v32v0v256v0v32v0h-32h-17zM176 321
q2 -22 24 -24q22 2 24 24q-2 22 -24 24q-22 -2 -24 -24v0zM312 297q22 2 24 24q-2 22 -24 24q-22 -2 -24 -24q2 -22 24 -24v0z" />
</svg>
