<?xml version="1.0" standalone="no"?>
<!DOCTYPE svg PUBLIC "-//W3C//DTD SVG 1.1//EN" "http://www.w3.org/Graphics/SVG/1.1/DTD/svg11.dtd" >
<svg xmlns="http://www.w3.org/2000/svg" xmlns:xlink="http://www.w3.org/1999/xlink" version="1.1" viewBox="-10 -40 468 512">
   <path fill="currentColor"
d="M160 -39h-9h9h-9l-5 8v0l-35 56v0h-47h-64v32v0h32v0v384v0v32v0h32h352v-32v0v-384v0h32v0v-32v0h-32h-79l-35 -56v0l-5 -8v0h-9h-128zM299 25h-150h150h-150l20 -32v0h110v0l20 32v0zM64 441v-384v384v-384h320v0v384v0h-320v0zM159 162l-22 22l22 -22l-22 22l11 12v0
l53 53v0l-53 53v0l-11 12v0l22 22v0l12 -11v0l53 -53v0l53 53v0l12 11v0l22 -22v0l-11 -12v0l-53 -53v0l53 -53v0l11 -12v0l-22 -22v0l-12 11v0l-53 53v0l-53 -53v0l-12 -11v0z" />
</svg>
