<?xml version="1.0" standalone="no"?>
<!DOCTYPE svg PUBLIC "-//W3C//DTD SVG 1.1//EN" "http://www.w3.org/Graphics/SVG/1.1/DTD/svg11.dtd" >
<svg xmlns="http://www.w3.org/2000/svg" xmlns:xlink="http://www.w3.org/1999/xlink" version="1.1" viewBox="-10 -40 660 512">
   <path fill="currentColor"
d="M64 -7v-16v16v-16v-16v0h16h80l224 252v0v-140v0v-16v0h16h120l5 6v0l112 144v0l3 5v0v5v0v144v0v16v0h-16h-48q-1 41 -28 68t-68 28q-41 -1 -68 -28t-28 -68h-128v0q-1 41 -28 68t-68 28q-41 -1 -68 -28t-28 -68h-48h-16v-16v0v-128v0v-16v0h16h176l-96 -192v0v112v0
q-2 33 -32 45v3v0h-16v0q-20 -1 -34 -14q-13 -14 -14 -34v-16v0v-16v0h32v0v16v0v16v0q1 15 16 16q15 -1 16 -16v-144v0zM251 345h139h-139h139q10 -28 34 -46q24 -17 56 -18q32 1 56 18q24 18 35 46h37v0v-96v0h-192h-384v96v0h38v0q10 -28 34 -46q24 -17 56 -18
q32 1 56 18q24 18 35 46v0zM416 377q1 36 32 55q32 18 64 0q31 -19 32 -55q-1 -36 -32 -55q-32 -18 -64 0q-31 19 -32 55v0zM416 89v128v-128v128h188v0l-100 -128v0h-88v0zM116 -7l112 224l-112 -224l112 224h117v0l-199 -224v0h-30v0zM224 377q-1 -36 -32 -55
q-32 -18 -64 0q-31 19 -32 55q1 36 32 55q32 18 64 0q31 -19 32 -55v0z" />
</svg>
