<?xml version="1.0" standalone="no"?>
<!DOCTYPE svg PUBLIC "-//W3C//DTD SVG 1.1//EN" "http://www.w3.org/Graphics/SVG/1.1/DTD/svg11.dtd" >
<svg xmlns="http://www.w3.org/2000/svg" xmlns:xlink="http://www.w3.org/1999/xlink" version="1.1" viewBox="-10 -40 404 512">
   <path fill="currentColor"
d="M144 236l23 22l-23 -22l23 22l105 106v0l67 -67v0l-106 -105v0l-22 -23v0l22 -23v0l50 -49v0l-8 -8v0h-211v0v211v0l8 8v0l49 -50v0l23 -22v0zM95 330l-23 23l23 -23l-23 23l-23 -23v0l-17 -17v0v-224v0v-32v0h32h224l17 17v0l23 23v0l-23 23v0l-26 26v0l-23 23v0l23 23
v0l82 82v0l23 23v0l-23 23v0l-66 66v0l-23 23v0l-23 -23v0l-82 -82v0l-23 -23v0l-23 23v0l-26 26v0z" />
</svg>
