<?xml version="1.0" standalone="no"?>
<!DOCTYPE svg PUBLIC "-//W3C//DTD SVG 1.1//EN" "http://www.w3.org/Graphics/SVG/1.1/DTD/svg11.dtd" >
<svg xmlns="http://www.w3.org/2000/svg" xmlns:xlink="http://www.w3.org/1999/xlink" version="1.1" viewBox="-10 -40 532 512">
   <path fill="currentColor"
d="M208 -39h16h-16h96v16v0v80v0h80v0v-48v0v-16v0h32v0v16v0v48v0h16v0v0v0h48v0v-48v0v-16v0h32v0v16v0v64v0v16v0h-16h-58l-134 104v0v264v0v16v0h-32v0v-16v0v-272v0v0v0v-96v0h-32v0v96v0v0v0v272v0v16v0h-32v0v-16v0v-264v0l-133 -104v0h-59h-16v-16v0v-64v0v-16v0h32
v0v16v0v48v0h48v0v0v0h16v0v-48v0v-16v0h32v0v16v0v48v0h80v0v-80v0v-16v0zM127 89l81 63l-81 -63l81 63v-63v0h-81v0zM304 152l81 -63l-81 63l81 -63h-81v0v63v0zM272 -7h-32h32h-32v64v0h32v0v-64v0z" />
</svg>
