<?xml version="1.0" standalone="no"?>
<!DOCTYPE svg PUBLIC "-//W3C//DTD SVG 1.1//EN" "http://www.w3.org/Graphics/SVG/1.1/DTD/svg11.dtd" >
<svg xmlns="http://www.w3.org/2000/svg" xmlns:xlink="http://www.w3.org/1999/xlink" version="1.1" viewBox="-10 -40 596 512">
   <path fill="currentColor"
d="M32 -7v416v-416v416h512v0v-416v0h-512v0zM0 -39h32h-32h576v32v0v416v0v32v0h-32h-32v16v0v16v0h-32v0v-16v0v-16v0h-384v0v16v0v16v0h-32v0v-16v0v-16v0h-32h-32v-32v0v-416v0v-32v0zM352 201q0 -35 -17 -64v0v0q-17 -29 -47 -47q-30 -17 -64 -17t-64 17q-30 18 -47 47
t-17 64t17 64t47 47q30 17 64 17t64 -17q30 -18 47 -47t17 -64v0zM64 201q0 -43 21 -80v0v0q22 -37 59 -59q38 -21 80 -21t80 21q37 22 59 59q21 37 21 80t-21 80q-22 37 -59 59q-38 21 -80 21t-80 -21q-37 -22 -59 -59q-21 -37 -21 -80v0zM224 233q14 0 23 -9v0v0
q9 -9 9 -23t-9 -23t-23 -9t-23 9t-9 23t9 23t23 9v0zM224 137q36 1 55 32q18 32 0 64q-19 31 -55 32q-36 -1 -55 -32q-18 -32 0 -64q19 -31 55 -32v0zM480 137q-1 -15 -16 -16q-15 1 -16 16q1 15 16 16q15 -1 16 -16v0zM512 137q-2 33 -32 45v115v0v16v0h-32v0v-16v0v-115v0
q-30 -12 -32 -45q1 -20 14 -34q14 -13 34 -14q20 1 34 14q13 14 14 34v0z" />
</svg>
