<?xml version="1.0" standalone="no"?>
<!DOCTYPE svg PUBLIC "-//W3C//DTD SVG 1.1//EN" "http://www.w3.org/Graphics/SVG/1.1/DTD/svg11.dtd" >
<svg xmlns="http://www.w3.org/2000/svg" xmlns:xlink="http://www.w3.org/1999/xlink" version="1.1" viewBox="-10 -40 468 512">
   <path fill="currentColor"
d="M416 25v64v-64v64h-64v0v-64v0h64v0zM352 -7h-32h32h-32v32v0v16v0h-192v0v-16v0v-32v0h-32h-96v32v0v64v0v32v0h32h16v192v0h-16h-32v32v0v64v0v32v0h32h96v-32v0v-16v0h192v0v16v0v32v0h32h96v-32v0v-64v0v-32v0h-32h-52l-19 -32v0h7v0v-32v0v-64v0v-32v0h-7v0l19 -32
v0h52h32v-32v0v-64v0v-32v0h-32h-64zM308 281l19 32l-19 -32l19 32h-7v0v32v0v16v0h-192v0v-16v0v-32v0h-32h-16v-192v0h16h32v-32v0v-16v0h192v0v16v0v32v0h7v0l-19 32v0h-52h-32v32v0v64v0v32v0h32h52zM32 345h64h-64h64v64v0h-64v0v-64v0zM352 345h64h-64h64v64v0h-64v0
v-64v0zM256 185h64h-64h64v64v0h-64v0v-64v0zM96 25v64v-64v64h-64v0v-64v0h64v0z" />
</svg>
