<?xml version="1.0" standalone="no"?>
<!DOCTYPE svg PUBLIC "-//W3C//DTD SVG 1.1//EN" "http://www.w3.org/Graphics/SVG/1.1/DTD/svg11.dtd" >
<svg xmlns="http://www.w3.org/2000/svg" xmlns:xlink="http://www.w3.org/1999/xlink" version="1.1" viewBox="-10 -40 404 512">
   <path fill="currentColor"
d="M80 -39h-16h16h-16v16v0v48v0h-32h-32v32v0v320v0v32v0h32h32v48v0v16v0h16h240v-16v0v-48v0h32h32v-32v0v-320v0v-32v0h-32h-32v-48v0v-16v0h-16h-224zM96 441v-32v32v-32h192v0v32v0h-192v0zM288 25h-192h192h-192v-32v0h192v0v32v0zM32 57h320h-320h320v320v0h-320v0
v-320v0zM208 137v-16v16v-16h-32v0v16v0v80v0v9v0l7 4v0l48 32v0l13 9v0l18 -26v0l-13 -9v0l-41 -28v0v-71v0z" />
</svg>
