<?xml version="1.0" standalone="no"?>
<!DOCTYPE svg PUBLIC "-//W3C//DTD SVG 1.1//EN" "http://www.w3.org/Graphics/SVG/1.1/DTD/svg11.dtd" >
<svg xmlns="http://www.w3.org/2000/svg" xmlns:xlink="http://www.w3.org/1999/xlink" version="1.1" viewBox="-10 -40 522 512">
   <path fill="currentColor"
d="M78 372l-73 74l73 -74l-73 74l22 22v0l74 -73v0v0v0l34 34v0q29 28 68 28q38 0 68 -28l22 -23v0l23 -23v0l-18 -17v0q36 -2 63 -28l23 -23v0l22 -22v0l-17 -17v0q35 -2 62 -28l23 -23v0l23 -23v0l-23 -22v0l-11 -12v0q-9 -8 -19 -15l47 -47v0l11 -11v0l-22 -23v0l-12 12
v0l-54 54v0q-24 -8 -50 -7l127 -127v0l-23 -22v0l-126 127v0q1 -26 -7 -50l54 -55v0l12 -11v0l-23 -23v0l-11 12v0l-47 47v0q-7 -10 -16 -19l-11 -11v0l-22 -23v0l-23 23v0l-23 22v0q-26 28 -28 63l-17 -17v0l-23 22v0l-22 23v0q-26 27 -28 62l-17 -17v0l-23 23v0l-23 22v0
q-28 30 -28 68q0 39 28 68l34 34v0v0v0zM192 259h-1h1h-1l-34 -34v0q-18 -20 -18 -45q0 -26 18 -46l23 -22v0l11 11v0q28 30 28 68q1 38 -27 68v0zM271 21l11 12l-11 -12l11 12q28 29 28 67q0 39 -28 68l-34 -34v0q-19 -19 -19 -45q0 -25 19 -45l23 -23v0zM101 214
q28 29 28 67v0v0q0 39 -28 68l-34 -34v0q-19 -19 -19 -45q0 -25 19 -45l23 -23v0l11 12v0zM259 372l12 11l-12 -11l12 11l-23 23v0q-20 19 -45 19q-26 0 -46 -19l-33 -34v0q29 -28 67 -28q39 0 68 28v0zM350 282l11 11l-11 -11l11 11l-23 22v0q-19 19 -45 19q-25 0 -45 -19
l-34 -33v0q30 -29 68 -29t68 29v0zM440 191l11 11l-11 -11l11 11l-22 23v0q-20 19 -45 19q-26 0 -46 -19l-34 -34v0q30 -28 68 -28q39 0 68 28v0z" />
</svg>
