<?xml version="1.0" standalone="no"?>
<!DOCTYPE svg PUBLIC "-//W3C//DTD SVG 1.1//EN" "http://www.w3.org/Graphics/SVG/1.1/DTD/svg11.dtd" >
<svg xmlns="http://www.w3.org/2000/svg" xmlns:xlink="http://www.w3.org/1999/xlink" version="1.1" viewBox="-10 -40 660 512">
   <path fill="currentColor"
d="M640 -7q0 -14 -9 -23v0v0q-9 -9 -23 -9t-23 9t-9 23t9 23t23 9t23 -9t9 -23v0zM544 329q-1 20 -14 34v0v0q-14 13 -34 14q-20 -1 -34 -14q-13 -14 -14 -34v-224v0q1 -20 14 -34q14 -13 34 -14q20 1 34 14q13 14 14 34v224v0zM496 25q-34 1 -57 23v0v0q-22 23 -23 57v224
v0q1 34 23 57q23 22 57 23q34 -1 57 -23q22 -23 23 -57v-224v0q-1 -34 -23 -57q-23 -22 -57 -23v0zM337 28v0v0v0v0v0v0v0v0v0h-1v1h-2h-2q-5 1 -13 3q-16 5 -38 18q-22 14 -39 41t-18 70v72v0v16v0v16v0v64v0q1 34 23 57q23 22 57 23q34 -1 57 -23q22 -23 23 -57v-96v0
q-1 -34 -23 -57q-23 -22 -57 -23q-27 1 -48 16v-8v0q1 -34 13 -54q13 -20 29 -30q17 -10 30 -14q7 -2 10 -2q1 -1 2 -1h1v0v0v0v0v0v0l16 -2v0l-4 -32v0l-16 2v0l2 16v0q-1 -11 -2 -14v-2v0v0zM256 329v-64v64v-64v-16v0v-16v0q1 -20 14 -34q14 -13 34 -14q20 1 34 14
q13 14 14 34v96v0q-1 20 -14 34q-14 13 -34 14q-20 -1 -34 -14q-13 -14 -14 -34v0zM176 47v-22v22v-22h-16h-160v32v0h16h111l-92 118v0l-3 5v0v21v0h16h32q34 1 57 23q22 23 23 57v16v0q-1 34 -23 57q-23 22 -57 23q-24 -1 -38 -13q-6 -5 -10 -9l-2 -2l-1 -1v0v-1v0v0v0v0
v0v0v0l-2 2q-2 1 -11 8t-11 8l-2 2v0v0v0v0v0v0v0v0h1v0v1l1 1l4 4q5 6 14 13q20 16 57 19q48 -1 79 -33q32 -31 33 -79v-16v0q-1 -47 -33 -79q-31 -32 -78 -33l92 -118v0l3 -4v0z" />
</svg>
