<?xml version="1.0" standalone="no"?>
<!DOCTYPE svg PUBLIC "-//W3C//DTD SVG 1.1//EN" "http://www.w3.org/Graphics/SVG/1.1/DTD/svg11.dtd" >
<svg xmlns="http://www.w3.org/2000/svg" xmlns:xlink="http://www.w3.org/1999/xlink" version="1.1" viewBox="-10 -40 404 512">
   <path fill="currentColor"
d="M206 367v0v0v0v0v0v0v0l-14 9v0l-14 -9v0v0v0v0v0v0v0v0v0v0v0l-1 -1v0q-1 -1 -5 -4q-6 -4 -17 -13q-22 -18 -51 -49q-30 -33 -51 -70q-20 -38 -21 -77q2 -68 47 -113t113 -47q68 2 113 47t47 113q-1 39 -21 77q-21 37 -51 70q-29 31 -52 49q-10 9 -17 13v0l-4 4l-1 1v0
v0v0v0v0zM192 399l2 6l-2 -6l2 6l15 36v0h-34v0l15 -36v0l2 -6v0zM256 473l-13 -32l13 32l-13 -32l-19 -48v0q3 -1 41 -34q39 -33 78 -87q38 -54 41 -119q-2 -82 -56 -136t-136 -56q-82 2 -136 56t-56 136q3 65 41 119q39 54 78 87q38 33 41 34l-19 48v0l-13 32v0h35h93z
M112 153q1 -34 23 -57v0v0q23 -22 57 -23v-32v0q-48 1 -79 33q-32 31 -33 79h32v0z" />
</svg>
