<?xml version="1.0" standalone="no"?>
<!DOCTYPE svg PUBLIC "-//W3C//DTD SVG 1.1//EN" "http://www.w3.org/Graphics/SVG/1.1/DTD/svg11.dtd" >
<svg xmlns="http://www.w3.org/2000/svg" xmlns:xlink="http://www.w3.org/1999/xlink" version="1.1" viewBox="-10 -40 404 512">
   <path fill="currentColor"
d="M32 25h16h-16h16q20 1 34 14q13 14 14 34v80v0h-64v0v32v0h64v0v176v0q1 34 23 57q23 22 57 23h32v0q75 -2 124 -52q50 -49 52 -124v-32v0q-1 -34 -23 -57q-23 -22 -57 -23h-48v0v32v0h48v0q20 1 34 14q13 14 14 34v32v0q-2 61 -42 102q-41 40 -102 42h-32v0
q-20 -1 -34 -14q-13 -14 -14 -34v-176v0h64v0v-32v0h-64v0v-80v0q-1 -34 -23 -57q-23 -22 -57 -23h-16v0v32v0z" />
</svg>
