<?xml version="1.0" standalone="no"?>
<!DOCTYPE svg PUBLIC "-//W3C//DTD SVG 1.1//EN" "http://www.w3.org/Graphics/SVG/1.1/DTD/svg11.dtd" >
<svg xmlns="http://www.w3.org/2000/svg" xmlns:xlink="http://www.w3.org/1999/xlink" version="1.1" viewBox="-10 -40 522 512">
   <path fill="currentColor"
d="M304 89h16h-16h80q41 -1 68 -28t28 -68v-16v0v-16v0h-16h-80q-48 2 -76 38q-25 -6 -52 -6q-67 1 -121 33t-86 86t-33 121q1 67 33 121t86 86t121 33q67 -1 121 -33t86 -86t33 -121q-1 -75 -41 -134q-13 9 -29 15q37 51 38 119q-2 88 -61 147t-147 61q-88 -2 -147 -61
t-61 -147q2 -88 61 -147t147 -61q19 0 36 3q-4 14 -4 29v16v0v16v0h16v0zM384 -7h64h-64h64q-1 27 -19 45t-45 19h-64v0q1 -27 19 -45t45 -19v0z" />
</svg>
