<?xml version="1.0" standalone="no"?>
<!DOCTYPE svg PUBLIC "-//W3C//DTD SVG 1.1//EN" "http://www.w3.org/Graphics/SVG/1.1/DTD/svg11.dtd" >
<svg xmlns="http://www.w3.org/2000/svg" xmlns:xlink="http://www.w3.org/1999/xlink" version="1.1" viewBox="-10 -40 532 512">
   <path fill="currentColor"
d="M136 105q-17 0 -28 -12v0v0q-12 -11 -12 -28t12 -28q11 -12 28 -12h1h1q19 1 30 16q0 -19 13 -32q13 -15 35 -16q8 0 14 2q17 6 26 20q9 -14 26 -20q6 -2 14 -2q19 0 32 12q12 11 15 29q11 -9 25 -9q3 0 7 1q14 2 23 13q10 11 10 26q0 17 -12 28q-11 12 -28 12h-48h-32
v32v0v32v0h32v0v-32v0h48v0q31 -1 51 -21t21 -51q-1 -31 -21 -51t-51 -21h-8q-23 -31 -64 -32q-22 0 -40 11q-18 -11 -40 -11q-42 2 -65 34q-7 -2 -15 -2q-31 1 -51 21t-21 51q1 31 21 51t51 21h56v0v32v0h32v0v-32v0h16v0v-32v0h-16h-88zM0 217q0 17 2 33q14 96 84 159
q70 62 170 64q100 -2 170 -64q70 -63 84 -159q2 -16 2 -33v-2v0l-5 2v0l-23 8v0l-4 -2v0l-53 -30v0l-57 32v0l-57 -32v0l-57 32v0l-57 -32v0l-57 32v0l-57 -32v0l-53 30v0l-4 2v0l-23 -8v0l-5 -2v0v2v0zM468 253l8 5l-8 -5l8 5q-16 80 -76 130q-60 51 -144 53
q-84 -2 -144 -53q-60 -50 -76 -130l8 -5v0l41 -23v0l42 23v0l15 9v0l16 -9v0l41 -23v0l41 23v0l16 9v0l16 -9v0l41 -23v0l41 23v0l16 9v0l16 -9v0l41 -23v0l41 23v0zM176 321q22 -2 24 -24q-2 -22 -24 -24q-22 2 -24 24q2 22 24 24v0zM360 297q-2 -22 -24 -24q-22 2 -24 24
q2 22 24 24q22 -2 24 -24v0zM256 313q-27 1 -45 19v0v0q-18 18 -19 45v16v0v16v0h16h112v-16v0v-16v0q-1 -27 -19 -45t-45 -19v0zM224 377q0 -14 9 -23v0v0q9 -9 23 -9t23 9t9 23h-64v0z" />
</svg>
