<?xml version="1.0" standalone="no"?>
<!DOCTYPE svg PUBLIC "-//W3C//DTD SVG 1.1//EN" "http://www.w3.org/Graphics/SVG/1.1/DTD/svg11.dtd" >
<svg xmlns="http://www.w3.org/2000/svg" xmlns:xlink="http://www.w3.org/1999/xlink" version="1.1" viewBox="-10 -40 660 512">
   <path fill="currentColor"
d="M249 20q-13 -16 -43 -36v0v0q-31 -21 -78 -23q-40 1 -69 18q-28 16 -44 33q-15 16 -15 17q0 2 20 20q20 17 57 32q-35 21 -56 57q-21 35 -21 79v16v0v16v0h16h32q68 -2 113 -47t47 -113v-14v0l172 -82v0h244h16v-32v0h-16h-252l-3 2v0l-120 57v0zM45 28q4 -4 9 -8
q28 -24 74 -27q46 3 74 27q3 2 5 4l4 4q-3 2 -7 5q-28 21 -76 24q-48 -3 -76 -24q-3 -2 -6 -5h-1v0zM412 398q-33 43 -76 43t-76 -43q-34 -45 -36 -117q2 -72 36 -117q33 -43 76 -43t76 43q34 45 36 117q-2 72 -36 117v0zM336 473q61 -2 102 -56v0v0q40 -54 42 -136
q-2 -82 -42 -136q-41 -54 -102 -56q-61 2 -102 56q-40 54 -42 136q2 82 42 136q41 54 102 56v0zM466 433q40 12 77 6v0v0q36 -7 62 -33q42 -47 33 -116q-10 -70 -67 -131q-32 -33 -70 -51q-37 -18 -74 -19q21 16 36 37l1 1l1 1q44 13 83 54q50 54 58 112q7 58 -24 89
q-30 31 -84 24q-7 -1 -15 -3q-8 15 -17 29v0zM32 217q1 -54 37 -91v0v0q37 -36 91 -37h16v0q-1 54 -37 91q-37 36 -91 37h-16v0z" />
</svg>
