<?xml version="1.0" standalone="no"?>
<!DOCTYPE svg PUBLIC "-//W3C//DTD SVG 1.1//EN" "http://www.w3.org/Graphics/SVG/1.1/DTD/svg11.dtd" >
<svg xmlns="http://www.w3.org/2000/svg" xmlns:xlink="http://www.w3.org/1999/xlink" version="1.1" viewBox="-10 -40 532 512">
   <path fill="currentColor"
d="M480 25v384v-384v384h-448v0v-384v0h448v0zM32 -7h-32h32h-32v32v0v384v0v32v0h32h480v-32v0v-384v0v-32v0h-32h-448zM281 144l11 12l-11 -12l11 12l55 61v0l-55 61v0l-11 12v0l24 22v0l11 -12v0l64 -72v0l9 -11v0l-9 -11v0l-64 -72v0l-11 -12v0l-23 22h-1zM220 156
l11 -12l-11 12l11 -12l-24 -22v0l-11 12v0l-64 72v0l-9 11v0l9 11v0l64 72v0l11 12v0l24 -22v0l-11 -12v0l-55 -61v0l55 -61v0z" />
</svg>
