<?xml version="1.0" standalone="no"?>
<!DOCTYPE svg PUBLIC "-//W3C//DTD SVG 1.1//EN" "http://www.w3.org/Graphics/SVG/1.1/DTD/svg11.dtd" >
<svg xmlns="http://www.w3.org/2000/svg" xmlns:xlink="http://www.w3.org/1999/xlink" version="1.1" viewBox="-10 -40 532 512">
   <path fill="currentColor"
d="M64 25h16h-16h384v32v0h-16h-89l50 128v0h103h16v32v0h-16h-496v-32v0h16h103l50 -128v0h-89h-16v-32v0zM153 185h206h-206h206l-50 -128v0h-106v0l-50 128v0zM418 249l62 160l-62 -160l62 160h-34v0l-62 -160v0h34v0zM128 249l-62 160l62 -160l-62 160h-34v0l62 -160v0
h34v0z" />
</svg>
