<?xml version="1.0" standalone="no"?>
<!DOCTYPE svg PUBLIC "-//W3C//DTD SVG 1.1//EN" "http://www.w3.org/Graphics/SVG/1.1/DTD/svg11.dtd" >
<svg xmlns="http://www.w3.org/2000/svg" xmlns:xlink="http://www.w3.org/1999/xlink" version="1.1" viewBox="-10 -40 652 512">
   <path fill="currentColor"
d="M524 240l22 -23l-22 23l22 -23l23 -23v0l-23 -22v0l-11 -12v0q-28 -27 -63 -34l16 -1v0q35 -3 58 -26t26 -58l2 -48v0l2 -32v0l-32 2v0l-48 2v0q-35 3 -58 26t-26 58l-1 17v0q-7 -36 -35 -64l-11 -11v0l-22 -23v0l-23 23v0l-23 22v0q-28 31 -28 70l42 33v0
q-12 -19 -10 -41t19 -39l22 -23v0l12 12v0q26 27 28 63q1 36 -23 66l27 21v0q29 -22 64 -20t62 28l11 11v0l-22 23v0q-17 16 -39 18l31 25v0q17 -7 30 -20h1zM287 272l-25 -20l25 20l-25 -20l-29 29v0q2 -31 -11 -60l-74 -58v0l-9 9v0l-23 22v0q-28 30 -28 68t28 68l34 34v0
l-81 82v0l22 22v0l82 -81v0v0v0l34 34v0q29 28 68 28q38 0 68 -28l22 -23v0l23 -23v0l-23 -22v0l-11 -12v0q-43 -40 -99 -37l32 -32v0zM542 -5l-2 45l2 -45l-2 45q-2 22 -16 37q-15 14 -37 16l-45 2v0l2 -45v0q2 -22 16 -37q15 -14 37 -16l45 -2v0zM173 341l-34 -34l34 34
l-34 -34q-19 -19 -19 -45q0 -25 19 -45l23 -23v0l11 12v0q28 29 28 67t-27 68h-1v0zM342 375l-22 23l22 -23l-22 23q-20 19 -45 19q-26 0 -46 -19l-33 -34v0q29 -28 67 -28q39 0 68 28l12 11h-1zM40 -21l-12 -10l12 10l-12 -10l-20 25v0l13 10v0l579 451v0l12 10v0l20 -25v0
l-12 -10v0l-580 -451v0z" />
</svg>
