<?xml version="1.0" standalone="no"?>
<!DOCTYPE svg PUBLIC "-//W3C//DTD SVG 1.1//EN" "http://www.w3.org/Graphics/SVG/1.1/DTD/svg11.dtd" >
<svg xmlns="http://www.w3.org/2000/svg" xmlns:xlink="http://www.w3.org/1999/xlink" version="1.1" viewBox="-10 -40 660 512">
   <path fill="currentColor"
d="M112 -7h-12h12h-12l-3 11v0l-45 149v0h-20h-32v32v0v160v0v16v0v16v0v64v0h32v0v-64v0h295v0q-5 -15 -6 -32h-289v0v-160v0h363v0q29 -21 66 -28l-46 -153v0l-3 -11v0h-12h-288zM427 153h-11h11h-341l38 -128v0h264v0l39 128v0zM104 281q22 -2 24 -24q-2 -22 -24 -24
q-22 2 -24 24q2 22 24 24v0zM384 329q0 -30 15 -56v0v0q15 -26 41 -41t56 -15t56 15t41 41t15 56t-15 56t-41 41t-56 15t-56 -15t-41 -41t-15 -56v0zM640 329q0 -39 -19 -72v0v0q-19 -33 -53 -53q-34 -19 -72 -19t-72 19q-34 20 -53 53t-19 72t19 72t53 53q34 19 72 19
t72 -19q34 -20 53 -53t19 -72v0zM520 249l-104 96l104 -96l-104 96h67v0l-11 64v0l104 -96v0h-67v0l11 -64v0z" />
</svg>
