<?xml version="1.0" standalone="no"?>
<!DOCTYPE svg PUBLIC "-//W3C//DTD SVG 1.1//EN" "http://www.w3.org/Graphics/SVG/1.1/DTD/svg11.dtd" >
<svg xmlns="http://www.w3.org/2000/svg" xmlns:xlink="http://www.w3.org/1999/xlink" version="1.1" viewBox="-10 -40 532 512">
   <path fill="currentColor"
d="M480 217q-1 -61 -30 -112v0v0q-30 -51 -82 -82q-53 -30 -112 -30t-112 30q-52 31 -82 82q-29 51 -30 112q1 61 30 112q30 51 82 82q53 30 112 30t112 -30q52 -31 82 -82q29 -51 30 -112v0zM0 217q1 -70 34 -128v0v0q34 -58 94 -94q61 -34 128 -34t128 34q60 36 94 94
q33 58 34 128q-1 70 -34 128q-34 58 -94 94q-61 34 -128 34t-128 -34q-60 -36 -94 -94q-33 -58 -34 -128v0zM171 357l-1 1l1 -1l-1 1l-20 -25v0l1 -1v0q84 -66 190 -67h11v0v32v0h-11v0q-95 1 -170 60v0zM152 169q2 -22 24 -24q22 2 24 24q-2 22 -24 24q-22 -2 -24 -24v0z
M336 145q22 2 24 24q-2 22 -24 24q-22 -2 -24 -24q2 -22 24 -24v0z" />
</svg>
