<?xml version="1.0" standalone="no"?>
<!DOCTYPE svg PUBLIC "-//W3C//DTD SVG 1.1//EN" "http://www.w3.org/Graphics/SVG/1.1/DTD/svg11.dtd" >
<svg xmlns="http://www.w3.org/2000/svg" xmlns:xlink="http://www.w3.org/1999/xlink" version="1.1" viewBox="-10 -40 532 512">
   <path fill="currentColor"
d="M64 9l24 27l-24 -27l24 27q8 9 8 21q0 14 -9 23t-23 9t-23 -9t-9 -23q0 -12 8 -21l24 -27v0zM43 -15l-27 30l27 -30l-27 30q-16 18 -16 42q1 27 19 45t45 19q27 -1 45 -19t19 -45q0 -24 -16 -42l-27 -30v0l-21 -24v0l-21 24v0zM96 217v32v-32v32h16h112v-32v0h-16h-112z
M288 217v32v-32v32h16h112v-32v0h-16h-112zM196 372q9 -10 24 -19v0v0q15 -8 36 -8t36 8q15 9 24 19l11 12v0l24 -22v0l-11 -12v0q-12 -14 -33 -25t-51 -12q-30 1 -51 12t-33 25l-11 12v0l24 22v0l11 -12v0zM256 -39q-70 1 -127 34l12 14v0q4 5 8 11q48 -26 107 -27
q63 1 113 31q51 29 80 80q30 50 31 113q-1 63 -31 113q-29 51 -80 80q-50 30 -113 31q-63 -1 -113 -31q-51 -29 -80 -80q-30 -50 -31 -113q0 -34 10 -65q-17 -3 -30 -11q-12 36 -12 76q1 72 35 129q34 58 92 92q57 34 129 35q72 -1 129 -35q58 -34 92 -92q34 -57 35 -129
q-1 -72 -35 -129q-34 -58 -92 -92q-57 -34 -129 -35v0z" />
</svg>
