<?xml version="1.0" standalone="no"?>
<!DOCTYPE svg PUBLIC "-//W3C//DTD SVG 1.1//EN" "http://www.w3.org/Graphics/SVG/1.1/DTD/svg11.dtd" >
<svg xmlns="http://www.w3.org/2000/svg" xmlns:xlink="http://www.w3.org/1999/xlink" version="1.1" viewBox="-10 -40 532 512">
   <path fill="currentColor"
d="M480 217q-1 -61 -30 -112v0v0q-30 -51 -82 -82q-53 -30 -112 -30t-112 30q-52 31 -82 82q-29 51 -30 112q1 61 30 112q30 51 82 82q53 30 112 30t112 -30q52 -31 82 -82q29 -51 30 -112v0zM0 217q1 -70 34 -128v0v0q34 -58 94 -94q61 -34 128 -34t128 34q60 36 94 94
q33 58 34 128q-1 70 -34 128q-34 58 -94 94q-61 34 -128 34t-128 -34q-60 -36 -94 -94q-33 -58 -34 -128v0zM248 265h16h-16h16q37 1 62 26t26 62v8v0v16v0h-16h-176v-16v0v-8v0q1 -37 26 -62t62 -26v0zM264 297h-16h16h-16q-22 0 -37 14q-15 13 -18 34h126v0
q-3 -21 -18 -34q-15 -14 -37 -14v0zM137 153l-36 -37l36 37l-36 -37l22 -22v0l37 36v0l37 -36v0l22 22v0l-36 37v0l36 37v0l-22 22v0l-37 -36v0l-37 36v0l-22 -22v0l36 -37v0zM329 153l-36 -37l36 37l-36 -37l22 -22v0l37 36v0l37 -36v0l22 22v0l-36 37v0l36 37v0l-22 22v0
l-37 -36v0l-37 36v0l-22 -22v0l36 -37v0z" />
</svg>
