<?xml version="1.0" standalone="no"?>
<!DOCTYPE svg PUBLIC "-//W3C//DTD SVG 1.1//EN" "http://www.w3.org/Graphics/SVG/1.1/DTD/svg11.dtd" >
<svg xmlns="http://www.w3.org/2000/svg" xmlns:xlink="http://www.w3.org/1999/xlink" version="1.1" viewBox="-27 0 564 512">
   <path fill="currentColor"
d="M32 217q1 -63 31 -113v0v0q29 -51 80 -80v0v0q50 -30 113 -31q63 1 113 31q51 29 80 80q30 50 31 113q0 15 -2 30l32 4v0q2 -17 2 -34q-1 -72 -35 -129q-34 -58 -92 -92q-57 -34 -129 -35q-72 1 -129 35q-58 34 -92 92q-34 57 -35 129q0 17 2 34l32 -4v0q-2 -15 -2 -30v0
zM256 441q-23 0 -45 -4l-6 31v0q25 5 51 5t51 -5l-6 -31v0q-22 4 -45 4v0zM182 251l-67 41l67 -41l-67 41q-2 -3 -4 -5q-15 -14 -34 -14t-34 14q-4 5 -7 9q-21 -2 -38 14q-13 14 -14 32q-1 19 12 33q-8 18 -5 37q4 19 18 34q15 15 34 18t37 -4q15 12 33 11q18 0 32 -14
q16 -17 14 -38q5 -3 9 -7q14 -15 14 -34t-14 -34l-4 -4l40 -67v0l-22 -22v0zM117 328l27 -16l-27 16l27 -16l-17 26v0l-11 19v0l21 5v0q5 1 8 5q9 11 0 22q-3 4 -8 5l-20 4v0l9 18v0q4 10 -4 18q-11 10 -22 0q-2 -1 -3 -3l-9 -16v0l-14 11v0q-22 15 -42 -2q-18 -21 -3 -42
l11 -15v0l-16 -9v0q-2 -1 -3 -3q-10 -11 0 -22q8 -8 18 -3l18 9v0l4 -21v0q1 -4 5 -8q11 -9 22 0q4 3 5 8l5 21v0l19 -11v0zM328 252l-22 22l22 -22l-22 22l41 67v0q-3 2 -5 4q-14 15 -14 34t14 34q5 4 9 7q-2 21 14 38q14 14 32 14q19 1 33 -11q18 7 37 4q20 -3 34 -18
q15 -15 18 -34t-4 -37q12 -15 11 -33q0 -18 -14 -32q-17 -16 -38 -14q-3 -5 -7 -9q-15 -14 -34 -14t-34 14q-2 2 -4 5l-67 -41v0zM383 340l-16 -27l16 27l-16 -27l27 16v0l18 11v0l5 -21v0q1 -5 5 -8q11 -9 22 0q4 4 5 8l4 21v0l18 -9v0q10 -5 19 3q9 11 0 22q-2 2 -4 3
l-16 9v0l11 14v0q15 22 -2 43q-21 17 -43 2l-14 -11v0l-9 16v0q-1 2 -3 3q-11 10 -22 0q-8 -8 -3 -18l9 -18v0l-21 -4v0q-4 -1 -8 -5q-9 -11 0 -22q4 -4 8 -5l21 -5v0l-11 -18v0zM96 185v32v-32v32h16h112v-32v0h-16h-112zM288 185v32v-32v32h16h112v-32v0h-16h-112z
M315 148q8 -7 27 -21v0v0q20 -13 47 -23l15 -5v0l-5 -15v0l-5 -15v0l-15 5v0q-32 11 -54 26q-23 16 -32 26l-12 11v0l12 11v0v0v0v0v0l11 12v0l11 -12v0zM123 104q27 10 47 23v0v0q19 14 27 21l11 12v0l23 -23v0l-12 -11v0q-9 -10 -32 -26q-23 -15 -54 -26l-15 -5v0l-10 30
v0l15 5v0z" />
</svg>
