<?xml version="1.0" standalone="no"?>
<!DOCTYPE svg PUBLIC "-//W3C//DTD SVG 1.1//EN" "http://www.w3.org/Graphics/SVG/1.1/DTD/svg11.dtd" >
<svg xmlns="http://www.w3.org/2000/svg" xmlns:xlink="http://www.w3.org/1999/xlink" version="1.1" viewBox="-10 -40 532 512">
   <path fill="currentColor"
d="M480 217q-1 -61 -30 -112v0v0q-30 -51 -82 -82q-53 -30 -112 -30t-112 30q-52 31 -82 82q-29 51 -30 112q1 61 30 112q30 51 82 82q53 30 112 30t112 -30q52 -31 82 -82q29 -51 30 -112v0zM0 217q1 -70 34 -128v0v0q34 -58 94 -94q61 -34 128 -34t128 34q60 36 94 94
q33 58 34 128q-1 70 -34 128q-34 58 -94 94q-61 34 -128 34t-128 -34q-60 -36 -94 -94q-33 -58 -34 -128v0zM280 372q-7 -10 -24 -11q-17 1 -24 11l-11 12v0l-24 -22v0l11 -12v0q14 -18 48 -21q34 3 48 21l11 12v0l-24 22v0l-11 -12v0zM316 62l31 -9l-31 9l31 -9l4 16v0l2 5
v0q13 39 54 46l11 1v0l16 2v0l-4 32v0l-14 -2v0q16 21 16 48q-1 34 -23 57q-23 22 -57 23q-34 -1 -57 -23q-22 -23 -23 -57q1 -32 21 -54t51 -25q-15 -17 -22 -39l-1 -5v0l-5 -16v0zM191 77l-1 6l1 -6l-1 6q-7 22 -22 38q31 4 51 26t21 54q-1 34 -23 57q-23 22 -57 23
q-34 -1 -57 -23q-22 -23 -23 -57q0 -27 16 -48l-14 2v0l-4 -32v0l16 -2v0l12 -1v0q40 -7 53 -46l2 -5v0l4 -16v0l31 9v0l-5 15v0zM160 249q27 -1 42 -24q12 -24 0 -48q-15 -23 -42 -24q-27 1 -42 24q-12 24 0 48q15 23 42 24v0zM400 201q-1 -27 -24 -42q-24 -12 -48 0
q-23 15 -24 42q1 27 24 42q24 12 48 0q23 -15 24 -42v0zM128 201q14 0 23 -9v0v0q9 -9 9 -23q14 0 23 9t9 23t-9 23t-23 9t-23 -9t-9 -23v0zM352 169q14 0 23 9v0v0q9 9 9 23t-9 23t-23 9t-23 -9t-9 -23q14 0 23 -9t9 -23v0z" />
</svg>
