<?xml version="1.0" standalone="no"?>
<!DOCTYPE svg PUBLIC "-//W3C//DTD SVG 1.1//EN" "http://www.w3.org/Graphics/SVG/1.1/DTD/svg11.dtd" >
<svg xmlns="http://www.w3.org/2000/svg" xmlns:xlink="http://www.w3.org/1999/xlink" version="1.1" viewBox="-10 -40 532 512">
   <path fill="currentColor"
d="M480 217q-1 -61 -30 -112v0v0q-30 -51 -82 -82q-53 -30 -112 -30t-112 30q-52 31 -82 82q-29 51 -30 112q1 61 30 112q30 51 82 82q53 30 112 30t112 -30q52 -31 82 -82q29 -51 30 -112v0zM0 217q1 -70 34 -128v0v0q34 -58 94 -94q61 -34 128 -34t128 34q60 36 94 94
q33 58 34 128q-1 70 -34 128q-34 58 -94 94q-61 34 -128 34t-128 -34q-60 -36 -94 -94q-33 -58 -34 -128v0zM187 310q10 10 27 18v0v0q17 9 42 9t42 -9q17 -8 27 -18l11 -12v0l23 23v0l-12 11v0q-13 14 -36 25t-55 12q-32 -1 -55 -12t-36 -25l-12 -11v0l23 -23v0l11 12v0z
M395 195l26 20l-26 -20l26 20q-28 34 -69 34t-69 -34l26 -20v0q17 22 43 22t43 -22v0zM117 195q17 22 43 22v0v0q26 0 43 -22l26 20v0q-28 34 -69 34t-69 -34l26 -20v0zM212 83l-15 5l15 -5l-15 5l-6 2v0q-37 13 -58 44l-8 12v0l-9 13v0l-26 -18v0l9 -13v0l7 -11v0
q28 -41 75 -57l6 -2v0l15 -5v0l10 30v0zM315 88l-15 -5l15 5l-15 -5l10 -30v0l15 5v0l6 2v0q47 16 75 57l7 11v0l9 13v0l-26 18v0l-9 -13v0l-8 -12v0q-21 -31 -58 -44l-6 -2v0z" />
</svg>
