<?xml version="1.0" standalone="no"?>
<!DOCTYPE svg PUBLIC "-//W3C//DTD SVG 1.1//EN" "http://www.w3.org/Graphics/SVG/1.1/DTD/svg11.dtd" >
<svg xmlns="http://www.w3.org/2000/svg" xmlns:xlink="http://www.w3.org/1999/xlink" version="1.1" viewBox="-10 -40 660 512">
   <path fill="currentColor"
d="M542 187q2 15 2 30q0 28 -7 55q4 1 7 3q13 -7 27 -9q5 -24 5 -49q0 -30 -6 -58l-28 28v0zM320 441q-71 -1 -126 -38l-23 23v0q65 46 149 47q78 -1 139 -41l-17 -17v0l-6 -6q-51 31 -116 32v0zM423 -17q-48 -22 -103 -22q-72 1 -129 35q-58 34 -92 92q-34 57 -35 129
q0 17 2 33q16 2 30 9l4 -2q-4 -20 -4 -40q1 -63 31 -113q29 -51 80 -80q50 -30 113 -31q52 0 96 22q1 -18 7 -32v0zM320 361q54 -2 85 -27v0v0q32 -25 41 -46l-28 -14v0q-7 15 -31 34q-25 19 -67 21q-42 -2 -67 -21q-24 -19 -31 -34l-28 14v0q9 21 41 46q31 25 85 27v0z
M197 199q17 -22 43 -22v0v0q26 0 43 22l26 -20v0q-28 -34 -69 -34t-69 34l26 20v0zM443 199l26 -20l-26 20l26 -20q-28 -34 -69 -34t-69 34l26 20v0q17 -22 43 -22t43 22v0zM56 281q-24 1 -40 16v0v0q-15 16 -16 40q0 22 16 39l69 68v0l11 12v0l11 -12v0l69 -68v0
q16 -17 16 -39q-1 -24 -16 -40q-16 -15 -40 -16q-22 0 -39 16l-1 1v0l-1 -1v0q-17 -16 -39 -16v0zM32 337q2 -22 24 -24q9 0 16 7l13 12v0l11 12v0l11 -12v0l13 -12v0q7 -7 16 -7q22 2 24 24q0 9 -7 16l-57 57v0l-57 -57v0q-7 -7 -7 -16v0zM448 17q0 22 16 39l69 68v0l11 12
v0l11 -12v0l69 -68v0q16 -17 16 -39q-1 -24 -16 -40q-16 -15 -40 -16q-22 0 -39 16l-1 1v0l-1 -1v0q-17 -16 -39 -16q-24 1 -40 16q-15 16 -16 40v0zM504 -7q9 0 16 7l13 12v0l11 12v0l11 -12v0l13 -12v0q7 -7 16 -7q22 2 24 24q0 9 -7 16l-57 57v0l-57 -57v0q-7 -7 -7 -16
q2 -22 24 -24v0zM543 313q-17 -16 -39 -16q-24 1 -40 16q-15 16 -16 40q0 22 16 39l69 68v0l11 12v0l11 -12v0l69 -68v0q16 -17 16 -39q-1 -24 -16 -40q-16 -15 -40 -16q-22 0 -39 16l-1 1v0l-1 -1v0zM487 369q-7 -7 -7 -16q2 -22 24 -24q9 0 16 7l13 12v0l11 12v0l11 -12v0
l13 -12v0q7 -7 16 -7q22 2 24 24q0 9 -7 16l-57 57v0l-57 -57v0z" />
</svg>
