<?xml version="1.0" standalone="no"?>
<!DOCTYPE svg PUBLIC "-//W3C//DTD SVG 1.1//EN" "http://www.w3.org/Graphics/SVG/1.1/DTD/svg11.dtd" >
<svg xmlns="http://www.w3.org/2000/svg" xmlns:xlink="http://www.w3.org/1999/xlink" version="1.1" viewBox="-10 -40 532 512">
   <path fill="currentColor"
d="M256 -7q61 1 112 30v0v0q51 30 82 82q30 53 30 112t-30 112q-31 52 -82 82q-51 29 -112 30q-61 -1 -112 -30q-51 -30 -82 -82q-30 -53 -30 -112t30 -112q31 -52 82 -82q51 -29 112 -30v0zM256 473q70 -1 128 -34v0v0q58 -34 94 -94q34 -61 34 -128t-34 -128
q-36 -60 -94 -94q-58 -33 -128 -34q-70 1 -128 34q-58 34 -94 94q-34 61 -34 128t34 128q36 60 94 94q58 33 128 34v0zM154 274l-25 21l25 -21l-25 21l11 13v0q17 20 46 36t70 17h16v0v-32v0h-16v0q-33 -1 -56 -13q-22 -13 -36 -29l-10 -13v0zM326 301l26 -33l-26 33l26 -33
l26 33v0q6 7 6 17q0 11 -8 19t-19 8h-10v0q-11 0 -19 -8t-8 -19q0 -10 6 -17v0zM301 281q-13 16 -13 37q1 25 17 42q17 16 42 17h10v0q25 -1 42 -17q16 -17 17 -42q0 -21 -13 -37l-31 -38v0l-20 -26v0l-20 26v0l-31 38v0zM200 169q-2 -22 -24 -24q-22 2 -24 24q2 22 24 24
q22 -2 24 -24v0zM336 193q22 -2 24 -24q-2 -22 -24 -24q-22 2 -24 24q2 22 24 24v0z" />
</svg>
