<?xml version="1.0" standalone="no"?>
<!DOCTYPE svg PUBLIC "-//W3C//DTD SVG 1.1//EN" "http://www.w3.org/Graphics/SVG/1.1/DTD/svg11.dtd" >
<svg xmlns="http://www.w3.org/2000/svg" xmlns:xlink="http://www.w3.org/1999/xlink" version="1.1" viewBox="-10 -40 532 512">
   <path fill="currentColor"
d="M32 217q1 -61 30 -112v0v0q30 -51 82 -82q53 -30 112 -30t112 30q52 31 82 82q29 51 30 112q-1 61 -30 112q-30 51 -82 82q-53 30 -112 30t-112 -30q-52 -31 -82 -82q-29 -51 -30 -112v0zM512 217q-1 -70 -34 -128v0v0q-34 -58 -94 -94q-61 -34 -128 -34t-128 34
q-60 36 -94 94q-33 58 -34 128q1 70 34 128q34 58 94 94q61 34 128 34t128 -34q60 -36 94 -94q33 -58 34 -128v0zM130 146l28 14l-28 -14l28 14q7 -15 31 -34q25 -19 67 -21q42 2 67 21q24 19 31 34l28 -14v0q-9 -21 -41 -46q-31 -25 -85 -27q-54 2 -85 27q-32 25 -41 46v0z
M200 265q-2 -22 -24 -24q-22 2 -24 24q2 22 24 24q22 -2 24 -24v0zM336 241q-22 2 -24 24q2 22 24 24q22 -2 24 -24q-2 -22 -24 -24v0z" />
</svg>
