<?xml version="1.0" standalone="no"?>
<!DOCTYPE svg PUBLIC "-//W3C//DTD SVG 1.1//EN" "http://www.w3.org/Graphics/SVG/1.1/DTD/svg11.dtd" >
<svg xmlns="http://www.w3.org/2000/svg" xmlns:xlink="http://www.w3.org/1999/xlink" version="1.1" viewBox="-10 -40 660 512">
   <path fill="currentColor"
d="M320 -7q73 1 128 40v0v0q56 39 81 103l30 -11v0q-29 -73 -93 -118q-63 -45 -146 -46q-83 1 -146 46q-64 45 -93 118l30 11v0q25 -64 81 -103q55 -39 128 -40v0zM290 439l-4 32l4 -32l-4 32q17 2 34 2t34 -2l-4 -32v0q-15 2 -30 2t-30 -2v0zM288 358q15 3 32 3t33 -3
q5 49 40 81q35 33 86 34h1v0q52 -1 89 -37l49 -49v0l11 -11v0l11 -11v0v-24v0l-11 -11v0l-9 -9v0l9 -9v0l11 -11v0v-24v0l-11 -11v0l-9 -9v0l16 -16v0l-23 -23v0l-22 -22v0l-23 -23v0l-16 16v0l-9 -9v0l-23 -23v0l-23 23v0l-11 11v0l-40 40v0h-22h-72v32v0v20v0v30v0v12v0
q-14 4 -32 4t-32 -4v-12v0v-30v0v-20v0v-32v0h-32h-62l-40 -40v0l-11 -11v0l-23 -23v0l-23 23v0l-9 9v0l-16 -16v0l-23 23v0l-22 22v0l-23 23v0l16 16v0l-9 9v0l-11 11v0v24v0l11 11v0l9 9v0l-9 9v0l-11 11v0v24v0l11 11v0l11 11v0l49 49v0q37 36 89 37h1v0q51 -1 86 -34
q35 -32 40 -82zM384 346v-36v36v-36v0v0v-15v0v-12v0v-20v0h8h32v20v0v12v0v3v0l6 -6v0l9 -9v0l14 -13v0l3 -4v0l41 -41v0l12 -11v0l11 -12v0l9 10v0l14 13v0l-12 11v0l-11 12v0l-22 22v0l-23 22v0l10 10v0l22 -23v0l34 -33v0l4 -5v0l7 -7v0l5 -4v0l11 -12v0l9 10v0l4 4v0
l10 9v0l-12 11v0l-4 5v0l-7 7v0l-5 4v0l-33 34v0l-23 22v0l10 10v0l22 -23v0l22 -22v0l12 -11v0l11 -12v0l13 14v0l10 9v0l-10 9v0l-2 2v0l-11 12v0l-9 9v0l-12 11v0l-1 2v0l-23 22v0l10 10v0l12 -13v0l10 -10v0l2 -1v0l11 -12v0l13 14v0l10 9v0l-12 11v0l-11 12v0l-13 12v0
l-22 23v0l-2 2v0q-29 27 -68 28q-40 -1 -67 -28t-28 -67v0zM208 165q3 -14 12 -25q10 -11 20 -11t19 11q10 11 13 25l31 -8v0q-4 -20 -20 -38q-15 -20 -43 -22q-28 2 -44 22q-15 18 -20 38l31 8h1zM380 140q10 -11 20 -11t19 11q10 11 13 25l31 -8v0q-4 -20 -20 -38
q-15 -20 -43 -22q-28 2 -44 22q-15 18 -20 38l31 8v0q4 -14 13 -25v0zM72 218l11 12l-11 -12l11 12l5 4v0l7 7v0l4 5v0l34 33v0l22 23v0l10 -10v0l-23 -22v0l-22 -22v0l-11 -12v0l-12 -11v0l14 -13v0l9 -10v0l11 12v0l12 11v0l41 41v0l3 4v0l14 13v0l9 9v0l6 6v0v-3v0v-12v0
v-20v0h8h32v20v0v12v0v18v0v20v0v13v0q-1 40 -28 67t-67 28q-39 -1 -67 -28l-3 -2v0l-22 -23v0l-13 -12v0l-11 -12v0l-12 -11v0l10 -9v0l13 -14v0l11 12v0l2 1v0l10 10v0l12 13v0l10 -10v0l-23 -22v0l-1 -2v0l-12 -11v0l-9 -9v0l-11 -12v0l-2 -2v0l-10 -9v0l10 -9v0l13 -14
v0l11 12v0l12 11v0l22 22v0l22 23v0l10 -10v0l-23 -22v0l-33 -34v0l-5 -4v0l-7 -7v0l-4 -5v0l-12 -11v0l10 -9v0l4 -4v0l9 -10v0z" />
</svg>
