<?xml version="1.0" standalone="no"?>
<!DOCTYPE svg PUBLIC "-//W3C//DTD SVG 1.1//EN" "http://www.w3.org/Graphics/SVG/1.1/DTD/svg11.dtd" >
<svg xmlns="http://www.w3.org/2000/svg" xmlns:xlink="http://www.w3.org/1999/xlink" version="1.1" viewBox="-10 -40 468 512">
   <path fill="currentColor"
d="M402 39q11 11 14 35v0v0q2 24 -10 62q-12 37 -39 78q-26 41 -65 81q-40 39 -81 65q-41 27 -78 39q-38 12 -62 10q-24 -3 -35 -14q-20 -18 -10 -74q4 9 12 17q15 15 32 18q18 4 31 2q28 -4 53 -17q52 -26 105 -79t79 -105q13 -25 17 -53q2 -13 -2 -31q-3 -17 -18 -32
q-8 -8 -17 -13q56 -9 74 11v0zM105 137q-73 82 -96 160v0v0q-23 79 15 120q28 28 78 24q49 -5 107 -36q59 -32 115 -88t88 -115q31 -58 35 -107q5 -50 -23 -78q-41 -38 -120 -15q-78 23 -160 96q-10 9 -20 19t-19 20v0zM129 158q8 -9 17 -18q10 -10 19 -18q41 -37 78 -55
q22 -12 42 -14q21 -4 37 10q14 17 11 38q-3 19 -14 42q-23 46 -73 96t-96 73q-23 12 -43 14q-20 4 -37 -10q-14 -17 -10 -38q2 -19 14 -42q18 -37 55 -78v0z" />
</svg>
