<?xml version="1.0" standalone="no"?>
<!DOCTYPE svg PUBLIC "-//W3C//DTD SVG 1.1//EN" "http://www.w3.org/Graphics/SVG/1.1/DTD/svg11.dtd" >
<svg xmlns="http://www.w3.org/2000/svg" xmlns:xlink="http://www.w3.org/1999/xlink" version="1.1" viewBox="-10 -40 532 512">
   <path fill="currentColor"
d="M0 -39h512h-512h512v32v0h-512v0v-32v0zM64 89v64v-64v64h64v0v-64v0h-64v0zM32 57h32h-32h128v32v0v64v0v32v0h-32h-96v-32v0v-64v0v-32v0zM64 377v64v-64v64h64v0v-64v0h-64v0zM32 345h32h-32h128v32v0v64v0v32v0h-32h-96v-32v0v-64v0v-32v0zM288 89h-64h64h-64v64v0
h64v0v-64v0zM224 57h64h-64h96v32v0v64v0v32v0h-32h-96v-32v0v-64v0v-32v0h32v0zM224 377v64v-64v64h64v0v-64v0h-64v0zM192 345h32h-32h128v32v0v64v0v32v0h-32h-96v-32v0v-64v0v-32v0zM448 89h-64h64h-64v64v0h64v0v-64v0zM384 57h64h-64h96v32v0v64v0v32v0h-32h-96v-32v0
v-64v0v-32v0h32v0zM384 377v64v-64v64h64v0v-64v0h-64v0zM352 345h32h-32h128v32v0v64v0v32v0h-32h-96v-32v0v-64v0v-32v0zM512 249v32v-32v32h-512v0v-32v0h512v0z" />
</svg>
