<?xml version="1.0" standalone="no"?>
<!DOCTYPE svg PUBLIC "-//W3C//DTD SVG 1.1//EN" "http://www.w3.org/Graphics/SVG/1.1/DTD/svg11.dtd" >
<svg xmlns="http://www.w3.org/2000/svg" xmlns:xlink="http://www.w3.org/1999/xlink" version="1.1" viewBox="-10 -40 591 512">
   <path fill="currentColor"
d="M299 -27l-11 -9l11 9l-11 -9l-11 9v0l-272 240v0l22 24v0l37 -33v0v253v0v16v0h16h432v-16v0v-253v0l37 33v0l22 -24v0l-272 -240v0zM96 441v-265v265v-265l192 -170v0l192 170v0v265v0h-384v0zM256 137h-16h16h-16v16v0v48v0h-48h-16v16v0v64v0v16v0h16h48v48v0v16v0h16
h80v-16v0v-48v0h48h16v-16v0v-64v0v-16v0h-16h-48v-48v0v-16v0h-16h-64zM272 217v-48v48v-48h32v0v48v0v16v0h16h48v32v0h-48h-16v16v0v48v0h-32v0v-48v0v-16v0h-16h-48v-32v0h48h16v-16v0z" />
</svg>
