<?xml version="1.0" standalone="no"?>
<!DOCTYPE svg PUBLIC "-//W3C//DTD SVG 1.1//EN" "http://www.w3.org/Graphics/SVG/1.1/DTD/svg11.dtd" >
<svg xmlns="http://www.w3.org/2000/svg" xmlns:xlink="http://www.w3.org/1999/xlink" version="1.1" viewBox="-10 -40 660 512">
   <path fill="currentColor"
d="M192 -7q41 1 68 28v0v0q27 27 28 68v80v0v16v0h32v0v-16v0v-80v0q-1 -54 -37 -91q-37 -36 -91 -37q-54 1 -91 37q-36 37 -37 91v80v0v16v0h32v0v-16v0v-80v0q1 -41 28 -68t68 -28v0zM317 249q8 -17 19 -32h-294v0q0 1 -1 3q-2 3 -3 6v0v0v0v0q-14 26 -26 56
q-11 30 -12 63q3 61 24 94q21 34 24 34h203v0l10 -16v0v0v0v0v0v0v0v0v0v-1v0v0v0v-1q1 0 1 -2q1 0 1 -1q2 -3 5 -8v0q0 -1 1 -3h-206v0q-5 -7 -11 -17q-18 -28 -20 -79q3 -48 30 -96h255v0zM71 450v1v-1v1v0v0v-1v0v0v0zM206 29h-28h28h-28q-16 31 -51 36l-16 1v0l2 16v0
q3 27 22 48q25 23 57 23t57 -23q19 -21 22 -48l2 -16v0l-16 -1v0q-35 -5 -51 -36v0zM148 93q26 -9 44 -28q18 20 44 28q-4 8 -10 14q-15 14 -34 14t-34 -14q-6 -6 -10 -14v0zM450 269q-16 31 -51 36l-16 1v0l2 16v0q3 27 23 48q24 23 56 23t57 -23q19 -21 23 -48l1 -16v0
l-16 -1v0q-35 -5 -50 -36h-29v0zM464 305q18 20 44 28q-4 8 -10 14q-15 14 -34 14t-34 -14q-6 -6 -10 -14q26 -8 44 -28v0zM640 473q-2 -2 -17 -32q-11 -21 -21 -48q-9 -26 -10 -48v-32v0q-1 -54 -37 -91q-37 -36 -91 -37q-54 1 -91 37q-36 37 -37 91v32v0q-1 22 -10 48
q-10 27 -21 48q-15 30 -17 32h37h315zM587 440v1v-1v1h-246v0v-1v0q10 -20 18 -45q8 -26 9 -50v-32v0q1 -41 28 -68t68 -28q41 1 68 28t28 68v32v0q1 24 9 50q8 25 18 45v0z" />
</svg>
