<?xml version="1.0" standalone="no"?>
<!DOCTYPE svg PUBLIC "-//W3C//DTD SVG 1.1//EN" "http://www.w3.org/Graphics/SVG/1.1/DTD/svg11.dtd" >
<svg xmlns="http://www.w3.org/2000/svg" xmlns:xlink="http://www.w3.org/1999/xlink" version="1.1" viewBox="-10 -40 532 512">
   <path fill="currentColor"
d="M512 473h-512h512h-512v-32v0h512v0v32v0zM192 313v-320v320v-320h-96v0v320v0h96v0zM96 345h-32h32h-32v-32v0v-320v0v-32v0h32h128v32v0v320v0v32v0h-32h-96zM416 313v-192v192v-192h-96v0v192v0h96v0zM320 345h-32h32h-32v-32v0v-192v0v-32v0h32h128v32v0v192v0v32v0
h-32h-96z" />
</svg>
