<?xml version="1.0" standalone="no"?>
<!DOCTYPE svg PUBLIC "-//W3C//DTD SVG 1.1//EN" "http://www.w3.org/Graphics/SVG/1.1/DTD/svg11.dtd" >
<svg xmlns="http://www.w3.org/2000/svg" xmlns:xlink="http://www.w3.org/1999/xlink" version="1.1" viewBox="-10 -40 522 512">
   <path fill="currentColor"
d="M448 153h-176h176h-384v-96v0h176h208v96v0zM272 185h176h-176h208v-32v0v-96v0v-32v0h-32h-176v-64v0h-32v0v64v0h-176h-32v32v0v96v0v32v0h32h176v64v0h-112h-32v32v0v96v0v32v0h32h112v64v0h32v0v-64v0h112h32v-32v0v-96v0v-32v0h-32h-112v-64v0zM272 281h112h-112
h112v96v0h-112h-144v-96v0h112h32z" />
</svg>
