<?xml version="1.0" standalone="no"?>
<!DOCTYPE svg PUBLIC "-//W3C//DTD SVG 1.1//EN" "http://www.w3.org/Graphics/SVG/1.1/DTD/svg11.dtd" >
<svg xmlns="http://www.w3.org/2000/svg" xmlns:xlink="http://www.w3.org/1999/xlink" version="1.1" viewBox="-10 -40 532 512">
   <path fill="currentColor"
d="M192 25v176v-176v176v32v0v176v0h-96v0v-176v0v-32v0v-176v0h96v0zM224 201v-176v176v-176v-32v0h-32h-128v32v0v176v0h-64v0v32v0h64v0v176v0v32v0h32h128v-32v0v-176v0h64v0v112v0v32v0h32h128v-32v0v-112v0h64v0v-32v0h-64v0v-112v0v-32v0h-32h-128v32v0v112v0h-64v0z
M320 201v-112v112v-112h96v0v112v0v32v0v112v0h-96v0v-112v0v-32v0z" />
</svg>
