<?xml version="1.0" standalone="no"?>
<!DOCTYPE svg PUBLIC "-//W3C//DTD SVG 1.1//EN" "http://www.w3.org/Graphics/SVG/1.1/DTD/svg11.dtd" >
<svg xmlns="http://www.w3.org/2000/svg" xmlns:xlink="http://www.w3.org/1999/xlink" version="1.1" viewBox="-10 -40 660 512">
   <path fill="currentColor"
d="M515 -39h8h-8h125v32v0h-16h-93l-136 180v0l22 15v0l13 8v0l-9 14v0l-125 191v0q-23 34 -58 53t-76 19h-2v0q-68 -2 -113 -47t-47 -113v-112v0v-16v0h16h240v16v0v32v0l67 -90v0l9 -12v0l13 9v0l24 15v0l141 -188v0l5 -6v0zM253 291l-29 -10l29 10l-29 -10v-64v0h-192v0
v96v0q1 54 37 91q37 36 91 37h2v0q33 0 61 -15t46 -43l117 -177v0l-46 -31v0l-87 116v0z" />
</svg>
