<?xml version="1.0" standalone="no"?>
<!DOCTYPE svg PUBLIC "-//W3C//DTD SVG 1.1//EN" "http://www.w3.org/Graphics/SVG/1.1/DTD/svg11.dtd" >
<svg xmlns="http://www.w3.org/2000/svg" xmlns:xlink="http://www.w3.org/1999/xlink" version="1.1" viewBox="-10 -40 660 512">
   <path fill="currentColor"
d="M124 -39h-10h10h-10l-4 8v0l-108 196v0l-2 4v0v4v0v188v0v16v0h16h112v-16v0v-16v0v-96v0v-48v0l32 -58v0v106v0h32v0v-168v0l-30 -8v0l-64 117v0l-2 3v0v4v0v148v0h-64v0v-168v0l101 -184v0h97v0l72 144v0l-56 112v0h36v0l52 -105v0l76 -151v0h97v0l101 184v0v168v0h-64
v0v-148v0v-4v0l-2 -3v0l-64 -117v0l-30 8v0v168v0h32v0v-106v0l32 59v0v47v0v96v0v16v0v16v0h16h112v-16v0v-188v0v-4v0l-2 -4v0l-108 -196v0l-4 -8v0h-10h-392zM266 -7h108h-108h108l-54 108v0l-54 -108v0zM480 345h-32h32h-32v96v0h-256v0v-96v0h-32v0v112v0v16v0h16h304
v-16v0v-112v0zM144 281v32v-32v32h16h130l-47 71v0l-9 13v0l26 18v0l9 -13v0l51 -76v0l51 76v0l9 13v0l26 -18v0l-9 -13v0l-47 -71v0h130h16v-32v0h-16h-336z" />
</svg>
