<?xml version="1.0" standalone="no"?>
<!DOCTYPE svg PUBLIC "-//W3C//DTD SVG 1.1//EN" "http://www.w3.org/Graphics/SVG/1.1/DTD/svg11.dtd" >
<svg xmlns="http://www.w3.org/2000/svg" xmlns:xlink="http://www.w3.org/1999/xlink" version="1.1" viewBox="-10 -40 660 512">
   <path fill="currentColor"
d="M640 41v352v-352v352v16v0h-32v0v-16v0v-352v0v-16v0h32v0v16v0zM512 217l-11 11l11 -11l-11 11l-144 144v0l-12 12v0l-22 -23v0l11 -11v0l117 -117v0h-435h-16v-32v0h16h435l-117 -117v0l-11 -11v0l22 -23v0l12 12v0l144 144v0l11 11v0z" />
</svg>
