<?xml version="1.0" standalone="no"?>
<!DOCTYPE svg PUBLIC "-//W3C//DTD SVG 1.1//EN" "http://www.w3.org/Graphics/SVG/1.1/DTD/svg11.dtd" >
<svg xmlns="http://www.w3.org/2000/svg" xmlns:xlink="http://www.w3.org/1999/xlink" version="1.1" viewBox="-10 -40 660 512">
   <path fill="currentColor"
d="M608 169q-2 -75 -52 -124v0v0q-49 -50 -124 -52q-76 2 -126 53q-16 -7 -32 -12q29 -34 69 -53q41 -20 89 -20q88 2 147 61t61 147q-2 88 -61 147t-147 61h-11q8 -16 13 -32q74 -3 123 -52q49 -50 51 -124v0zM343 46l49 -1l-49 1l49 -1l40 -28v0l40 28v0l49 1v0l17 46v0
l39 30v0l-14 47v0l14 47v0l-39 30v0l-17 46v0l-49 1v0l-29 21v0q4 -21 5 -43l6 -4v0l8 -5v0l9 -1v0h27v0l10 -26v0l3 -9v0l7 -5v0l22 -17v0l-8 -26v0l-3 -9v0l3 -9v0l8 -26v0l-22 -16v0l-7 -6v0l-4 -9v0l-9 -26v0h-27v0l-9 -1v0l-8 -5v0l-22 -15v0l-22 15v0l-8 5v0l-9 1v0
h-27v0l-2 5v0q-13 -11 -27 -20l6 -16v0zM384 265q0 -48 -24 -88v0v0q-23 -40 -64 -64q-42 -24 -88 -24t-88 24q-41 24 -64 64q-24 40 -24 88t24 88q23 40 64 64q42 24 88 24t88 -24q41 -24 64 -64q24 -40 24 -88v0zM0 265q0 -57 28 -104v0v0q27 -47 76 -76q49 -28 104 -28
t104 28q49 29 76 76q28 47 28 104t-28 104q-27 47 -76 76q-49 28 -104 28t-104 -28q-49 -29 -76 -76q-28 -47 -28 -104v0zM208 185q45 1 69 40q22 40 0 80q-24 39 -69 40q-45 -1 -69 -40q-22 -40 0 -80q24 -39 69 -40v0zM256 265q-1 -27 -24 -42q-24 -12 -48 0
q-23 15 -24 42q1 27 24 42q24 12 48 0q23 -15 24 -42v0zM128 153l16 -16l-16 16l16 -16l16 16v0l-16 16v0l-16 -16v0zM320 217l-16 -16l16 16l-16 -16l16 -16v0l16 16v0l-16 16v0zM112 377l-16 -16l16 16l-16 -16l16 -16v0l16 16v0l-16 16v0zM240 409l-16 -16l16 16l-16 -16
l16 -16v0l16 16v0l-16 16v0zM288 361l16 -16l-16 16l16 -16l16 16v0l-16 16v0l-16 -16v0zM80 249l-16 -16l16 16l-16 -16l16 -16v0l16 16v0l-16 16v0z" />
</svg>
