<?xml version="1.0" standalone="no"?>
<!DOCTYPE svg PUBLIC "-//W3C//DTD SVG 1.1//EN" "http://www.w3.org/Graphics/SVG/1.1/DTD/svg11.dtd" >
<svg xmlns="http://www.w3.org/2000/svg" xmlns:xlink="http://www.w3.org/1999/xlink" version="1.1" viewBox="-10 -40 532 512">
   <path fill="currentColor"
d="M256 -39q-28 0 -51 14v0v0q-22 15 -34 38q-13 -4 -27 -4q-37 1 -62 26t-26 62q0 16 5 30q-27 11 -44 35t-17 55q1 41 28 68t68 28h8v0q3 1 32 44q30 43 56 116h128v0q27 -73 56 -116q30 -43 32 -44h8v0q41 -1 68 -28t28 -68q0 -31 -17 -55t-44 -35q5 -14 5 -30
q-1 -37 -26 -62t-62 -26q-14 0 -27 4q-12 -23 -34 -38q-23 -14 -51 -14v0zM283 313l-9 16l9 -16l-9 16l-18 32v0l-18 -32v0l-9 -16v0h55h-1zM192 313v1v-1v1l4 7v0l32 56v0l9 16v0h38v0l9 -16v0l32 -56v0l4 -7v0v-1v0h47v0q-8 11 -18 27q-26 38 -51 101h-83v0
q-26 -63 -52 -101q-10 -16 -18 -27h47v0zM195 39q6 -20 22 -33v0v0q17 -13 39 -13t39 13q16 13 22 33l6 19v0l18 -10v0q12 -7 27 -7q24 1 40 16q15 16 16 40q0 18 -10 32l-14 21v0l25 4v0q24 3 39 21q15 17 16 42q-1 27 -19 45t-45 19h-320v0q-27 -1 -45 -19t-19 -45
q1 -25 16 -42q15 -18 39 -21l26 -4v0l-15 -21v0q-10 -14 -10 -32q1 -24 16 -40q16 -15 40 -16q15 0 27 7l18 10v0l6 -19v0zM256 426v-1v1v-1v0v0v1v0z" />
</svg>
