<?xml version="1.0" standalone="no"?>
<!DOCTYPE svg PUBLIC "-//W3C//DTD SVG 1.1//EN" "http://www.w3.org/Graphics/SVG/1.1/DTD/svg11.dtd" >
<svg xmlns="http://www.w3.org/2000/svg" xmlns:xlink="http://www.w3.org/1999/xlink" version="1.1" viewBox="-10 -40 660 512">
   <path fill="currentColor"
d="M480 57v192v-192v192h-32v0v-192v0h-352v0v192v0h-32v0v-192v0v-32v0h32h480v32v0v192v0h-32v0v-192v0h-64v0zM0 281h16h-16h640v32v0h-16h-16v64v0v32v0h-32h-544v-32v0v-64v0h-16h-16v-32v0zM64 313v64v-64v64h512v0v-64v0h-512v0z" />
</svg>
