<?xml version="1.0" standalone="no"?>
<!DOCTYPE svg PUBLIC "-//W3C//DTD SVG 1.1//EN" "http://www.w3.org/Graphics/SVG/1.1/DTD/svg11.dtd" >
<svg xmlns="http://www.w3.org/2000/svg" xmlns:xlink="http://www.w3.org/1999/xlink" version="1.1" viewBox="-10 -40 468 512">
   <path fill="currentColor"
d="M32 -7v96v-96v96h96v0v-96v0h-96v0zM0 -39h32h-32h160v32v0v96v0v32v0h-32h-32v192v0h32h32v32v0v96v0v32v0h-32h-128v-32v0v-96v0v-32v0h32h32v-192v0h-32h-32v-32v0v-96v0v-32v0zM336 -7h32h-32h64v32v0v32v0h-32h-32v-32v0v-32v0zM416 345h-96h96h-96v96v0h96v0v-96v0
zM288 313h32h-32h160v32v0v96v0v32v0h-32h-128v-32v0v-96v0v-32v0zM368 153h32h-32h32v32v0v32v0h-32h-32v-32v0v-32v0h32v0zM128 345h-96h96h-96v96v0h96v0v-96v0z" />
</svg>
