<?xml version="1.0" standalone="no"?>
<!DOCTYPE svg PUBLIC "-//W3C//DTD SVG 1.1//EN" "http://www.w3.org/Graphics/SVG/1.1/DTD/svg11.dtd" >
<svg xmlns="http://www.w3.org/2000/svg" xmlns:xlink="http://www.w3.org/1999/xlink" version="1.1" viewBox="-10 -40 404 512">
   <path fill="currentColor"
d="M256 217q-2 -102 -38 -165q-37 -61 -74 -59q-37 -2 -74 59q-36 63 -38 165q2 102 38 165q37 61 74 59q37 2 74 -59q36 -63 38 -165v0zM281 297h64h-64h64q6 -30 7 -64h-64v0q-2 33 -7 64v0zM274 329q-8 26 -18 48h65v0q10 -21 17 -48h-64v0zM214 441h42h-42h42
q20 2 47 -32h-64v0q-12 18 -25 32v0zM288 201h64h-64h64q-1 -34 -7 -64h-64v0q5 31 7 64v0zM214 -7q14 14 25 32h64v0q-27 -34 -47 -32h-42v0zM274 105h64h-64h64q-7 -27 -17 -48h-65v0q10 22 18 48v0zM144 473q-61 -3 -102 -75v0v0q-40 -72 -42 -181q2 -109 42 -181
q41 -72 102 -75h32h80q54 3 91 75q36 72 37 181q-1 109 -37 181q-37 72 -91 75h-80h-32zM88 217q1 72 19 119q9 22 18 32q10 10 15 9q5 1 15 -9q9 -10 18 -32q18 -47 19 -119q-1 -72 -19 -119q-9 -22 -18 -32q-10 -10 -15 -9q-5 -1 -15 9q-9 10 -18 32q-18 47 -19 119v0z
M140 25q23 1 38 19q15 17 25 43q20 53 21 130q-1 77 -21 130q-10 26 -25 43t-38 19q-23 -2 -38 -19t-25 -43q-20 -53 -21 -130q1 -77 21 -130q10 -26 25 -43q15 -18 38 -19v0z" />
</svg>
