<?xml version="1.0" standalone="no"?>
<!DOCTYPE svg PUBLIC "-//W3C//DTD SVG 1.1//EN" "http://www.w3.org/Graphics/SVG/1.1/DTD/svg11.dtd" >
<svg xmlns="http://www.w3.org/2000/svg" xmlns:xlink="http://www.w3.org/1999/xlink" version="1.1" viewBox="-10 -40 596 512">
   <path fill="currentColor"
d="M131 152l57 -14l-57 14l57 -14l5 -2v0l4 2v0l91 30v0l91 -30v0l4 -2v0l5 1v0l57 15v0l-22 -95v0h-270v0l-22 95v0zM122 187l-38 158l38 -158l-38 158h-32v0l76 -320v0h320v0l77 320v0h-33v0l-38 -158v0l-69 -17v0l-92 30v0l-5 2v0l-5 -2v0l-92 -30v0l-69 17v0zM0 377h16
h-16h576v32v0h-16h-560v-32v0z" />
</svg>
