<?xml version="1.0" standalone="no"?>
<!DOCTYPE svg PUBLIC "-//W3C//DTD SVG 1.1//EN" "http://www.w3.org/Graphics/SVG/1.1/DTD/svg11.dtd" >
<svg xmlns="http://www.w3.org/2000/svg" xmlns:xlink="http://www.w3.org/1999/xlink" version="1.1" viewBox="-10 -40 532 512">
   <path fill="currentColor"
d="M256 -7q61 1 112 30v0v0q51 30 82 82q30 53 30 112t-30 112q-31 52 -82 82q-51 29 -112 30q-61 -1 -112 -30q-51 -30 -82 -82q-30 -53 -30 -112t30 -112q31 -52 82 -82q51 -29 112 -30v0zM256 473q70 -1 128 -34v0v0q58 -34 94 -94q34 -61 34 -128t-34 -128
q-36 -60 -94 -94q-58 -33 -128 -34q-70 1 -128 34q-58 34 -94 94q-34 61 -34 128t34 128q36 60 94 94q58 33 128 34v0zM184 169h-80h80h-80v-16v0q0 -17 12 -28q11 -12 28 -12h1v0q-1 4 -1 8q2 22 24 24q8 0 14 -4q2 5 2 12v16v0zM144 81q-31 1 -51 21v0v0q-20 20 -21 51v16
v0v32v0h32h112v-32v0v-16v0q-1 -31 -21 -51t-51 -21v0zM380 134q4 9 4 19v16v0h-96v0v-16v0q1 -20 14 -34q14 -13 34 -14h6q-6 7 -6 16q2 22 24 24q13 0 20 -11v0zM256 153v16v-16v16v32v0h32h128v-32v0v-16v0q-1 -34 -23 -57q-23 -22 -57 -23q-34 1 -57 23q-22 23 -23 57v0
zM248 377h-3v0v0h-3q6 -21 22 -34q17 -14 40 -14q22 0 38 13q-39 34 -94 35v0zM364 318q-25 -20 -60 -21q-35 1 -60 21q-26 21 -34 54q-38 -11 -65 -39q-28 -28 -37 -68h280v0q-7 29 -24 53v0zM376 353q35 -36 44 -88q2 -7 3 -15l1 -17v0h-32h-320l2 17v0q0 8 2 15
q12 63 59 103q48 40 113 41h8v0q36 0 67 -15t53 -41v0z" />
</svg>
