<?xml version="1.0" standalone="no"?>
<!DOCTYPE svg PUBLIC "-//W3C//DTD SVG 1.1//EN" "http://www.w3.org/Graphics/SVG/1.1/DTD/svg11.dtd" >
<svg xmlns="http://www.w3.org/2000/svg" xmlns:xlink="http://www.w3.org/1999/xlink" version="1.1" viewBox="-10 -40 593 512">
   <path fill="currentColor"
d="M152 113l16 -32l-16 32l16 -32l-1 -36v0l28 -21v0l14 -33v0l34 -7v0l27 -23v0l34 9v0l34 -9v0l27 23v0l34 7v0l14 33v0l28 21v0l-1 36v0l16 32v0l-14 29v0l-10 3v0l-24 -6v0v-1v0l4 -7v0l8 -18v0l-8 -18v0l-4 -7v0v-7v0l1 -20v0l-16 -12v0l-6 -5v0l-3 -7v0l-8 -18v0
l-18 -4v0l-8 -2v0l-6 -5v0l-14 -12v0l-18 5v0l-8 2v0l-8 -2v0l-18 -5v0l-14 12v0l-6 5v0l-8 2v0l-18 4v0l-8 18v0l-3 7v0l-6 5v0l-16 12v0l1 20v0v7v0l-4 7v0l-8 18v0l8 18v0l4 7v0v1v0l-6 -5v0l-16 4v0l-12 3v0l-14 -28v0zM270 232v0v0v0l-7 6v0v16v0v13v0l-13 -10v0l-6 -5
v0l-3 -7v0l-9 -18v0l-19 -4v0l-8 -1v0l-6 -5v0l-15 -13v0l-19 5v0l-8 1v0l-8 -1v0l-19 -5v0l-15 13v0l-6 5v0l-8 1v0l-20 4v0l-8 18v0l-3 7v0l-6 5v0l-16 12v0v20v0v8v0l-3 7v0l-9 17v0l9 18v0l3 7v0v8v0v19v0l15 12v0l7 5v0l3 7v0l8 18v0l20 4v0l7 2v0l7 5v0l15 12v0l19 -4
v0l8 -2v0l7 2v0l20 4v0l15 -12v0l6 -5v0l8 -2v0l19 -4v0l8 -18v0l4 -7v0l6 -5v0l13 -10v0v13v0v16v0l7 6v0l-1 1v0l-15 32v0l-35 7v0l-27 23v0l-35 -9v0l-35 9v0l-28 -23v0l-35 -7v0l-15 -33v0l-28 -21v0v-36v0l-16 -32v0l16 -32v0v-36v0l28 -21v0l15 -33v0l35 -7v0l28 -23
v0l35 9v0l35 -9v0l27 23v0l36 7v0l15 33v0zM541 331q18 6 32 4l-5 18v0v14v0l1 22v0l-28 21v0l-14 33v0l-34 7v0l-27 23v0l-34 -9v0l-34 9v0l-27 -23v0l-34 -7v0l-14 -33v0l-28 -21v0l1 -36v0l-16 -32v0l16 -32v0l-1 -36v0l28 -21v0l14 -33v0l34 -7v0l27 -23v0h1v0l31 8v0
q-4 8 -4 18q0 21 12 46q13 26 34 48q33 31 69 42v0zM537 363q-14 -3 -26 -9q-33 -15 -61 -43q-32 -32 -47 -70q-5 -13 -8 -27l-3 2v0l-6 5v0l-8 2v0l-18 4v0l-8 18v0l-3 7v0l-7 5v0l-15 12v0l1 20v0v7v0l-4 7v0l-8 18v0l8 18v0l4 7v0v7v0l-1 20v0l16 12v0l6 5v0l3 7v0l8 18
v0l18 4v0l8 2v0l6 5v0l14 12v0l18 -4v0l8 -2v0l8 2v0l18 4v0l14 -12v0l6 -5v0l8 -2v0l18 -4v0l8 -18v0l3 -7v0l7 -5v0l15 -12v0v-10v0zM224 105q1 -15 16 -16q15 1 16 16q-1 15 -16 16q-15 -1 -16 -16v0zM64 329q1 -15 16 -16q15 1 16 16q-1 15 -16 16q-15 -1 -16 -16v0z
M96 393q1 -15 16 -16q15 1 16 16q-1 15 -16 16q-15 -1 -16 -16v0zM144 313q15 1 16 16q-1 15 -16 16q-15 -1 -16 -16q1 -15 16 -16v0zM368 313q15 1 16 16q-1 15 -16 16q-15 -1 -16 -16q1 -15 16 -16v0zM384 393q1 -15 16 -16q15 1 16 16q-1 15 -16 16q-15 -1 -16 -16v0z
" />
</svg>
