<?xml version="1.0" standalone="no"?>
<!DOCTYPE svg PUBLIC "-//W3C//DTD SVG 1.1//EN" "http://www.w3.org/Graphics/SVG/1.1/DTD/svg11.dtd" >
<svg xmlns="http://www.w3.org/2000/svg" xmlns:xlink="http://www.w3.org/1999/xlink" version="1.1" viewBox="-10 -40 650 512">
   <path fill="currentColor"
d="M285 321l7 -34l-7 34l7 -34l14 7v0l28 14v0l7 -13v0l33 -16v0l23 -11v0l16 20v0l37 45v0l13 -57v0l6 -24v0h25v0l59 -1v0l-36 -46v0l-16 -20v0l16 -20v0l36 -46v0h-59v0l-25 -1v0l-6 -24v0l-13 -57v0l-22 26v0l-6 -3v0l-23 -11v0l41 -51v0l26 -31v0l9 39v0l19 81v0h84v0
l40 1v0l-25 32v0l-51 65v0l51 65v0l25 32v0l-40 1v0h-83v0l-20 81v0l-9 39v0l-26 -31v0l-52 -64v0l-75 35v0l-37 17v0l9 -39v0zM43 91l263 131l-263 -131l263 131l59 -119v0l-189 -94v0h-92v0l-41 82v0zM29 119l-29 -14l29 14l-29 -14l14 -29v0l50 -99v0h120v0l195 98v0
l29 14v0l-14 29v0l-60 118v0l-14 29v0v0v0l-29 -14v0l-262 -132v0zM109 195l29 15l-29 -15l29 15l-95 189v0l29 15v0l94 -190v0l29 14v0l-95 190v0l-14 29v0l-29 -15v0l-28 -14v0l-29 -14v0l14 -29v0l95 -190v0z" />
</svg>
