<?xml version="1.0" standalone="no"?>
<!DOCTYPE svg PUBLIC "-//W3C//DTD SVG 1.1//EN" "http://www.w3.org/Graphics/SVG/1.1/DTD/svg11.dtd" >
<svg xmlns="http://www.w3.org/2000/svg" xmlns:xlink="http://www.w3.org/1999/xlink" version="1.1" viewBox="-10 -40 532 512">
   <path fill="currentColor"
d="M37 217l110 -192l-110 192l110 -192h218v0l110 192v0l-110 192v0h-218v0l-110 -192v0zM128 -7l-128 224l128 -224l-128 224l128 224v0h256v0l128 -224v0l-128 -224v0h-256v0zM363 164l12 -11l-12 11l12 -11l-23 -23v0l-11 12v0l-117 116v0l-53 -52v0l-11 -12v0l-23 23v0
l12 11v0l64 64v0l11 12v0l11 -12v0l128 -128v0z" />
</svg>
