<?xml version="1.0" standalone="no"?>
<!DOCTYPE svg PUBLIC "-//W3C//DTD SVG 1.1//EN" "http://www.w3.org/Graphics/SVG/1.1/DTD/svg11.dtd" >
<svg xmlns="http://www.w3.org/2000/svg" xmlns:xlink="http://www.w3.org/1999/xlink" version="1.1" viewBox="-10 -40 532 512">
   <path fill="currentColor"
d="M32 300v-166v166v-166l141 -141v0h166v0l141 141v0v166v0l-141 141v0h-166v0l-141 -141v0zM160 -39l-160 160l160 -160l-160 160v192v0l160 160v0h192v0l160 -160v0v-192v0l-160 -160v0h-192v0zM363 164l12 -11l-12 11l12 -11l-23 -23v0l-11 12v0l-117 116v0l-53 -52v0
l-11 -12v0l-23 23v0l12 11v0l64 64v0l11 12v0l11 -12v0l128 -128v0z" />
</svg>
