<?xml version="1.0" standalone="no"?>
<!DOCTYPE svg PUBLIC "-//W3C//DTD SVG 1.1//EN" "http://www.w3.org/Graphics/SVG/1.1/DTD/svg11.dtd" >
<svg xmlns="http://www.w3.org/2000/svg" xmlns:xlink="http://www.w3.org/1999/xlink" version="1.1" viewBox="-10 -40 532 512">
   <path fill="currentColor"
d="M512 109q-2 63 -44 105q-21 21 -47 32q-17 6 -35 10v0q-35 6 -62 29q-25 28 -30 67q-9 45 -42 78q-42 41 -104 43h-116h-32v-32v0v-116v0q0 -30 11 -57q11 -26 32 -48q34 -33 78 -41q39 -5 67 -30q23 -27 29 -62q4 -18 10 -35q11 -26 32 -48q22 -21 48 -32q27 -11 57 -11
h116h32v32v0v116v0zM148 441q49 -1 81 -33l21 21v0l-21 -21v0q27 -27 33 -62v0v0v0v0q4 -20 12 -43q9 -22 27 -41q30 -26 60 -32q11 -3 20 -5v0q14 -4 27 -9v0v0q21 -8 38 -25v0v0q33 -32 34 -82v-116v0h-116v0q-24 0 -44 9v0v0q-21 8 -38 25t-25 38v0v0q-5 12 -8 27v0v0v0
q-2 8 -6 20q-6 30 -32 60q-19 18 -41 27q-22 8 -42 12v0v0h-1v0q-35 6 -61 32q-17 17 -25 38v0v0q-9 20 -9 44v116v0h116v0zM397 89q0 -11 9 -17q10 -5 20 0q9 6 9 17t-9 17q-10 5 -20 0q-9 -6 -9 -17v0zM333 153q0 -11 9 -17q10 -5 20 0q9 6 9 17t-9 17q-10 5 -20 0
q-9 -6 -9 -17v0zM109 377q0 -11 9 -17q10 -5 20 0q9 6 9 17q-1 18 -19 19q-18 -1 -19 -19v0zM192 358q11 0 17 9q5 10 0 20q-6 9 -17 9t-17 -9q-5 -10 0 -20q6 -9 17 -9v0zM397 153q0 -11 9 -17q10 -5 20 0q9 6 9 17t-9 17q-10 5 -20 0q-9 -6 -9 -17v0zM192 294q11 0 17 9
q5 10 0 20q-6 9 -17 9t-17 -9q-5 -10 0 -20q6 -9 17 -9v0z" />
</svg>
