<?xml version="1.0" standalone="no"?>
<!DOCTYPE svg PUBLIC "-//W3C//DTD SVG 1.1//EN" "http://www.w3.org/Graphics/SVG/1.1/DTD/svg11.dtd" >
<svg xmlns="http://www.w3.org/2000/svg" xmlns:xlink="http://www.w3.org/1999/xlink" version="1.1" viewBox="-11 0 661 512">
   <path fill="currentColor"
d="M307 101q-1 -19 -9 -38l-33 -73v0l-13 -29v0l-29 13v0l-74 33v0q-21 9 -35 25q-15 15 -24 37v0v0q-8 21 -7 43q0 12 3 24q8 28 0 55q-12 26 -37 42q-10 6 -18 15q-15 15 -24 37q-8 21 -7 43t10 43l32 73v0l13 29v0l30 -13v0l11 -5v0v-35v0l-24 11v0l-33 -73v0
q-7 -15 -7 -31v0v0q0 -15 5 -31q6 -15 17 -26v0v0q6 -6 13 -11v0v0v0v0q13 -9 27 -23q13 -13 22 -33q7 -21 6 -40t-5 -34v-1v0v0v0q-2 -8 -2 -17v0v0q0 -15 5 -30v0v0v0v0q6 -16 17 -27v0v0q10 -11 25 -18l74 -32v0l32 73v0q13 31 2 61v0v0v0v0v0v0l-2 4v0q16 -6 26 -15
q8 -8 13 -26v0zM596 214q42 -42 44 -105v-116v0v-32v0h-32h-116q-30 0 -57 11q-26 11 -47 32q-22 22 -33 48q-6 17 -10 35v0q-6 35 -29 62q-28 25 -66 30q-45 8 -79 41q-21 22 -32 48q-11 27 -11 57v116v0v32v0h32h116q62 -2 104 -42q33 -34 42 -79q5 -39 30 -67
q27 -23 62 -29q18 -4 35 -10q26 -11 47 -32v0zM160 441v-116v116v-116q0 -24 9 -44v0v0q8 -21 25 -38q26 -26 61 -32v0v0h1v0q19 -4 42 -12q22 -9 41 -27q26 -30 32 -60q4 -11 6 -20v0v0v0v0v0q3 -14 8 -27v0v0q8 -21 25 -38t38 -25v0v0q20 -9 44 -9h116v0v116v0
q-1 50 -34 82v0v0q-17 17 -38 25v0v0q-12 5 -27 8v0q-8 2 -20 6q-29 6 -60 32q-18 19 -27 41q-8 22 -12 42v1v0v0v0q-6 35 -32 62l21 21v0l-21 -21v0q-33 32 -82 33h-116v0zM544 108q18 -1 19 -19q-1 -18 -19 -19q-18 1 -19 19q1 18 19 19v0zM480 172q18 -1 19 -19
q-1 -18 -19 -19q-11 0 -17 9q-5 10 0 20q6 9 17 9v0zM256 396q11 0 17 -9q5 -10 0 -20q-6 -9 -17 -9t-17 9q-5 10 0 20q6 9 17 9v0zM339 377q0 -11 -9 -17q-10 -5 -20 0q-9 6 -9 17t9 17q10 5 20 0q9 -6 9 -17v0zM544 172q18 -1 19 -19q-1 -18 -19 -19q-11 0 -17 9
q-5 10 0 20q6 9 17 9v0zM339 313q0 -11 -9 -17q-10 -5 -20 0q-9 6 -9 17t9 17q10 5 20 0q9 -6 9 -17v0z" />
</svg>
