<?xml version="1.0" standalone="no"?>
<!DOCTYPE svg PUBLIC "-//W3C//DTD SVG 1.1//EN" "http://www.w3.org/Graphics/SVG/1.1/DTD/svg11.dtd" >
<svg xmlns="http://www.w3.org/2000/svg" xmlns:xlink="http://www.w3.org/1999/xlink" version="1.1" viewBox="-10 -40 586 512">
   <path fill="currentColor"
d="M140 322l-13 14l13 -14l-13 14l-66 65v0l27 27v0l65 -66v0l14 -13v0l19 5v0l91 29v0q4 20 14 38l-115 -36v0l-65 65v0l-23 23v0l-23 -23v0l-26 -26v0l-23 -23v0l23 -23v0l65 -65v0l-40 -128v0l201 -201v0l23 -23v0l23 23v0l194 194v0l23 23v0l-9 10v0q-22 -14 -47 -21
l-184 -184v0l-142 142v0l138 137v0q-7 17 -10 36l-151 -150v0l-23 23v0l35 109v0l5 19v0zM432 441q26 0 48 -13v0v0q22 -12 35 -35t13 -48t-13 -48q-13 -22 -35 -35t-48 -13t-48 13t-35 35q-13 23 -13 48t13 48t35 35q22 13 48 13v0zM432 217q35 0 64 17v0v0q29 17 47 47
q17 30 17 64t-17 64q-18 30 -47 47t-64 17t-64 -17t-47 -47q-17 -30 -17 -64t17 -64q18 -30 47 -47t64 -17v0zM368 345q-15 -1 -16 -16q1 -15 16 -16q15 1 16 16q-1 15 -16 16v0zM432 409q-1 15 -16 16q-15 -1 -16 -16q1 -15 16 -16q15 1 16 16v0zM432 361q-15 -1 -16 -16
q1 -15 16 -16q15 1 16 16q-1 15 -16 16v0zM512 361q-1 15 -16 16q-15 -1 -16 -16q1 -15 16 -16q15 1 16 16v0zM448 297q-15 -1 -16 -16q1 -15 16 -16q15 1 16 16q-1 15 -16 16v0z" />
</svg>
