<?xml version="1.0" standalone="no"?>
<!DOCTYPE svg PUBLIC "-//W3C//DTD SVG 1.1//EN" "http://www.w3.org/Graphics/SVG/1.1/DTD/svg11.dtd" >
<svg xmlns="http://www.w3.org/2000/svg" xmlns:xlink="http://www.w3.org/1999/xlink" version="1.1" viewBox="-10 -40 660 512">
   <path fill="currentColor"
d="M32 -23h-32h32h-32v16v0v144v0q1 20 14 34q14 13 34 14h16v0v256v0v16v0h32v0v-16v0v-256v0h16v0q20 -1 34 -14q13 -14 14 -34v-144v0v-16v0h-32v0v16v0v144v0q-1 15 -16 16h-16v0v-160v0v-16v0h-32v0v16v0v160v0h-16v0q-15 -1 -16 -16v-144v0v-16v0zM640 -23
q-2 -1 -32 8q-31 10 -62 41q-32 31 -34 95v128v0v32v0h32h64v160v0v16v0h32v0v-16v0v-160v0v-16v0v-16v0v-239v0v-33v0zM608 249h-64h64h-64v-128v0q1 -38 15 -60q15 -22 34 -33q8 -5 15 -8v229v0zM498 40q-66 -61 -162 -63q-82 1 -144 48v42v0q58 -56 144 -58q44 0 83 17
q38 17 67 47q4 -18 12 -33v0zM521 313q-27 51 -76 81v0v0q-48 30 -109 31q-59 -1 -107 -29q-47 -29 -75 -77l-23 23v0q32 52 86 83q53 31 119 32q75 -1 133 -40t87 -104h-12h-23zM480 217q0 -39 -19 -72v0v0q-19 -33 -53 -53q-34 -19 -72 -19t-72 19q-34 20 -53 53t-19 72
t19 72t53 53q34 19 72 19t72 -19q34 -20 53 -53t19 -72v0zM224 217q0 -30 15 -56v0v0q15 -26 41 -41t56 -15t56 15t41 41t15 56t-15 56t-41 41t-56 15t-56 -15t-41 -41t-15 -56v0z" />
</svg>
