<?xml version="1.0" standalone="no"?>
<!DOCTYPE svg PUBLIC "-//W3C//DTD SVG 1.1//EN" "http://www.w3.org/Graphics/SVG/1.1/DTD/svg11.dtd" >
<svg xmlns="http://www.w3.org/2000/svg" xmlns:xlink="http://www.w3.org/1999/xlink" version="1.1" viewBox="-10 -40 532 512">
   <path fill="currentColor"
d="M149 25q-49 1 -83 34v0v0q-33 34 -34 83q0 49 20 91q19 42 53 72l27 -40v0q-50 -48 -52 -123q1 -29 20 -49q20 -19 49 -20h7v0q32 1 54 22q21 22 22 54v4v0q0 24 -14 45l-18 26v0l-33 48v0l-10 14v0l-27 39v0l-9 13v0l-20 28v0l40 27v0l25 -36v0l7 -10v0l11 4v0
q32 10 67 10h5h5q24 0 46 -5l-31 -44v0q-7 1 -15 1h-5h-5q-13 0 -25 -2l-26 -4v0l15 -21v0l28 -40v0l13 -19v0l13 19v0l13 19v0l15 21v0l15 21v0l27 40v0l7 10v0l25 36v0l40 -27v0l-20 -28v0l-9 -13v0l12 -9v0q40 -31 63 -75q23 -45 23 -99q-1 -49 -34 -83q-34 -33 -83 -34
h-7v0q-53 1 -89 37l-11 12v0l-11 -12v0q-36 -36 -89 -37h-7v0zM326 385q-31 8 -65 8h-5h-5q-34 0 -65 -8l-28 40v0l-9 13v0l-13 -9v0l-66 -46v0l-13 -9v0l9 -13v0v0v0l20 -29v0q-40 -35 -63 -84q-23 -48 -23 -106q2 -63 44 -105t105 -44h7v0q58 1 100 36q42 -35 100 -36h7v0
q63 2 105 44t44 105q0 58 -23 106q-23 49 -63 84l20 29v0l9 13v0l-13 9v0l-66 46v0l-13 9v0l-9 -13v0v0v0l-28 -40v0zM173 206l19 -26l-19 26l19 -26q8 -13 8 -27v-4v0q0 -19 -13 -31q-12 -13 -31 -13h-7v0q-16 0 -26 11q-11 10 -11 26q1 58 39 97l22 -33v0zM356 105
q-19 0 -31 13v0v0q-13 12 -13 31v4v0q0 14 9 27l40 59v0q38 -39 39 -97q0 -16 -11 -26q-10 -11 -26 -11h-7v0zM280 149q1 -32 22 -54v0v0q22 -21 54 -22h7v0q29 1 49 20q19 20 20 49q0 41 -17 75t-46 58l-14 11v0l-10 -14v0l-51 -74v0q-14 -20 -14 -45v-4v0z" />
</svg>
