<?xml version="1.0" standalone="no"?>
<!DOCTYPE svg PUBLIC "-//W3C//DTD SVG 1.1//EN" "http://www.w3.org/Graphics/SVG/1.1/DTD/svg11.dtd" >
<svg xmlns="http://www.w3.org/2000/svg" xmlns:xlink="http://www.w3.org/1999/xlink" version="1.1" viewBox="-10 -40 276 512">
   <path fill="currentColor"
d="M33 46q5 -30 36 -44q33 -14 85 -6q9 1 27 5q18 3 27 6l8 -31v0q-10 -3 -29 -7q-18 -3 -28 -5q-58 -9 -102 9q-46 19 -56 68v0v1q-3 28 7 50q12 20 31 33q7 5 15 9q-42 18 -52 63v1v0q-4 27 7 48q12 20 31 32q38 21 83 32v0l4 1v0q47 12 76 29q12 9 18 21q5 11 2 30
q-5 28 -37 41q-33 14 -84 6q-13 -2 -32 -7q-19 -6 -36 -12v0v0v0v0q-5 -1 -9 -3q-2 0 -4 -1l-10 30v0q1 1 2 1q4 2 10 3q17 6 38 12q20 6 36 9v0v0q58 9 101 -8q46 -18 56 -65q5 -28 -4 -49q-10 -21 -29 -34q-3 -2 -6 -3q31 -20 39 -59q5 -29 -4 -51q-10 -22 -29 -36
q-18 -12 -41 -21q-22 -8 -45 -15v0v0h-2q-46 -12 -76 -30q-14 -10 -20 -22q-6 -11 -5 -31h1zM178 293q-21 -7 -43 -13v0v0q-47 -12 -78 -29q-14 -9 -19 -20q-7 -10 -5 -29q6 -27 37 -40q15 -6 35 -8q9 2 18 5v0v0l3 1v0q47 13 76 31q13 10 18 22q6 12 3 33q-6 34 -45 47v0z
" />
</svg>
