<?xml version="1.0" standalone="no"?>
<!DOCTYPE svg PUBLIC "-//W3C//DTD SVG 1.1//EN" "http://www.w3.org/Graphics/SVG/1.1/DTD/svg11.dtd" >
<svg xmlns="http://www.w3.org/2000/svg" xmlns:xlink="http://www.w3.org/1999/xlink" version="1.1" viewBox="-10 -40 586 512">
   <path fill="currentColor"
d="M395 -7h-33h33h-33l22 64v0h-192v0l23 -64v0h-34v0l-22 64v0h-47h-16v32v0h16h35l-33 96v0h-42h-16v32v0h16h31l-33 96v0h-38h-16v32v0h16h27l-33 96v0h33v0l34 -96v0h390v0l34 96v0h34v0l-34 -96v0h27h16v-32v0h-16h-38l-33 -96v0h31h16v-32v0h-16h-42l-33 -96v0h35h16
v-32v0h-16h-46l-23 -64v0zM395 89l33 96l-33 -96l33 96h-280v0l33 -96v0h214v0zM439 217l33 96l-33 -96l33 96h-368v0l33 -96v0h302v0z" />
</svg>
