<?xml version="1.0" standalone="no"?>
<!DOCTYPE svg PUBLIC "-//W3C//DTD SVG 1.1//EN" "http://www.w3.org/Graphics/SVG/1.1/DTD/svg11.dtd" >
<svg xmlns="http://www.w3.org/2000/svg" xmlns:xlink="http://www.w3.org/1999/xlink" version="1.1" viewBox="-10 -40 468 512">
   <path fill="currentColor"
d="M319 73h-47h47h-51l-3 -2v0l-20 -10v0l-16 22v0l-5 6v0h-8h-88v16v0q1 41 28 68t68 28q41 -1 68 -28t28 -68v-16v0q0 -8 -1 -16v0zM334 171q-18 28 -46 45v0v0q-29 17 -64 17t-64 -17q-28 -17 -46 -45l-50 38v0v8v0h64h16v32v0h-16h-96v-16v0v-32v0v-8v0l6 -5v0l58 -43v0
v-40v0v-16v0q1 -54 37 -91q37 -36 91 -37q54 1 91 37q36 37 37 91v16v0v40v0l58 43v0l6 5v0v8v0v32v0v16v0h-16h-96v-32v0h16h64v-8v0l-50 -38v0zM307 41q-13 -22 -34 -35v0v0q-22 -13 -49 -13q-32 1 -56 18q-24 18 -34 46h74v0l19 -26v0l8 -10v0l12 6v0l29 14v0h31v0z
M43 441h362h-362h362l-45 -144v0h-40v0v34v0q18 6 29 20q11 15 11 34v24v0v16v0h-16h-32v-32v0h16v0v-8v0q-2 -22 -24 -24q-22 2 -24 24v8v0h16v0v32v0h-16h-32v-16v0v-24v0q0 -19 11 -34q11 -14 29 -20v-34v0h-112v0v35v0q30 12 32 45q-1 20 -14 34q-14 13 -34 14
q-20 -1 -34 -14q-13 -14 -14 -34q2 -33 32 -45v-35v0h-56v0l-45 144v0zM144 377q1 15 16 16q15 -1 16 -16q-1 -15 -16 -16q-15 1 -16 16v0zM64 265h320h-320h320l54 176v0l10 32v0h-33h-415l10 -32v0l54 -176v0z" />
</svg>
