<?xml version="1.0" standalone="no"?>
<!DOCTYPE svg PUBLIC "-//W3C//DTD SVG 1.1//EN" "http://www.w3.org/Graphics/SVG/1.1/DTD/svg11.dtd" >
<svg xmlns="http://www.w3.org/2000/svg" xmlns:xlink="http://www.w3.org/1999/xlink" version="1.1" viewBox="-10 -40 652 512">
   <path fill="currentColor"
d="M544 297v-16v16v-16v-288v0v-32v0h-32v0q-10 -1 -40 14q-31 14 -58 52q-28 39 -30 110v49v0l32 25v0v-74v0q1 -46 15 -75q14 -28 32 -43q19 -15 35 -21q11 -4 14 -5v0v0v0v288v0h-8v0l40 31v0v-15v0zM224 223l-48 -38l48 38l-48 -38v0v0q-17 0 -30 -11q-13 -10 -17 -26
l-33 -26v0v4v0v11v0q1 34 23 57q23 22 57 23h16v0v240v0v16v0h32v0v-16v0v-234v0zM168 -24l-2 38l2 -38l-2 38l31 24v0l3 -60v0l1 -17v0h-32v0l-1 15v0zM120 -23l28 23l-28 -23l28 23l7 -39v0h-33v0l-2 16v0zM320 126q0 -6 -1 -13l-25 -152v0h-33v0l25 147v0l34 28v0v-10v0z
M248 -24l-1 -15l1 15l-1 -15h-32v0l1 17v0l4 79v0l33 26v0l-5 -107v0zM40 -21l-12 -10l12 10l-12 -10l-20 25v0l13 10v0l579 451v0l12 10v0l20 -25v0l-12 -10v0l-580 -451v0z" />
</svg>
