<?xml version="1.0" standalone="no"?>
<!DOCTYPE svg PUBLIC "-//W3C//DTD SVG 1.1//EN" "http://www.w3.org/Graphics/SVG/1.1/DTD/svg11.dtd" >
<svg xmlns="http://www.w3.org/2000/svg" xmlns:xlink="http://www.w3.org/1999/xlink" version="1.1" viewBox="-10 -40 522 512">
   <path fill="currentColor"
d="M256 -39h-30h30h-30l17 25v0l11 16v0q2 4 2 8q-1 14 -15 15h-74v0q-30 1 -50 21t-21 50q0 14 5 26q-30 5 -49 26q-19 22 -20 53v64v0v16v0h16h432v-16v0v-64v0q-1 -32 -21 -54q-19 -22 -50 -25q7 -15 7 -32q-1 -55 -38 -91q-36 -37 -91 -38h-31v0zM288 10q0 -9 -3 -17h2
v0q41 1 69 28q27 28 28 69q-1 19 -14 31h-90h-16v32v0h16h120q20 1 34 14q13 14 14 34v48v0h-384v0v-48v0q1 -20 14 -34q14 -13 34 -14h16h56v-32v0h-16h-31q-9 -10 -9 -25q0 -16 12 -28q11 -11 27 -11h74v0q20 0 33 -14q13 -13 14 -33v0zM32 313q1 41 28 68v0v0
q27 27 68 28h54v0l-20 41v0l-12 23v0h26h186l-12 -23v0l-20 -41v0h54v0q41 -1 68 -28t28 -68h-32v0q-1 27 -19 45t-45 19h-80h-26l12 23v0l20 41v0h-108v0l20 -41v0l12 -23v0h-26h-80q-27 -1 -45 -19t-19 -45h-32v0z" />
</svg>
