<?xml version="1.0" standalone="no"?>
<!DOCTYPE svg PUBLIC "-//W3C//DTD SVG 1.1//EN" "http://www.w3.org/Graphics/SVG/1.1/DTD/svg11.dtd" >
<svg xmlns="http://www.w3.org/2000/svg" xmlns:xlink="http://www.w3.org/1999/xlink" version="1.1" viewBox="-10 -40 596 512">
   <path fill="currentColor"
d="M128 -23v-16v16v-16h-32v0v16v0v48v0h-64h-32v32v0v64v0v32v0v288v0v32v0h32h299q-20 -14 -35 -32h-264v0v-288v0h320h96v-32v0v-64v0v-32v0h-32h-64v-48v0v-16v0h-32v0v16v0v48v0h-192v0v-48v0zM32 57h384h-384h384v64v0h-384v0v-64v0zM320 329q0 -30 15 -56v0v0
q15 -26 41 -41t56 -15t56 15t41 41t15 56t-15 56t-41 41t-56 15t-56 -15t-41 -41t-15 -56v0zM576 329q0 -39 -19 -72v0v0q-19 -33 -53 -53q-34 -19 -72 -19t-72 19q-34 20 -53 53t-19 72t19 72t53 53q34 19 72 19t72 -19q34 -20 53 -53t19 -72v0zM448 409v-32v32v-32h-32v0
v32v0h32v0zM448 249h-32h32h-32v16v0v80v0v16v0h32v0v-16v0v-80v0v-16v0z" />
</svg>
