<?xml version="1.0" standalone="no"?>
<!DOCTYPE svg PUBLIC "-//W3C//DTD SVG 1.1//EN" "http://www.w3.org/Graphics/SVG/1.1/DTD/svg11.dtd" >
<svg xmlns="http://www.w3.org/2000/svg" xmlns:xlink="http://www.w3.org/1999/xlink" version="1.1" viewBox="-10 -40 596 512">
   <path fill="currentColor"
d="M128 -23v-16v16v-16h-32v0v16v0v48v0h-64h-32v32v0v64v0v32v0v288v0v32v0h32h221l5 -32v0h-226v0v-288v0h352h64v-32v0v-64v0v-32v0h-32h-64v-48v0v-16v0h-32v0v16v0v48v0h-192v0v-48v0zM32 57h384h-384h384v64v0h-384v0v-64v0zM112 313h-16h16h-16v32v0h16h144v-32v0
h-16h-128zM96 217v32v-32v32h16h240v-32v0h-16h-240zM489 230l42 42l-42 -42l42 42l-23 23v0l-41 -42v0l22 -23v0zM334 386l110 -110l-110 110l110 -110l41 41v0l-109 110v0l-50 8v0l8 -49v0zM553 249l-64 -64l64 64l-64 -64l-185 185v0l-11 70v0l-5 33v0l33 -5v0l70 -11v0
l162 -163v0l23 -22v0l-23 -23v0z" />
</svg>
