<?xml version="1.0" standalone="no"?>
<!DOCTYPE svg PUBLIC "-//W3C//DTD SVG 1.1//EN" "http://www.w3.org/Graphics/SVG/1.1/DTD/svg11.dtd" >
<svg xmlns="http://www.w3.org/2000/svg" xmlns:xlink="http://www.w3.org/1999/xlink" version="1.1" viewBox="-10 -40 532 512">
   <path fill="currentColor"
d="M480 153h-208h208h-448v-128v0h448v0v128v0zM272 185h208h-208h240v-32v0v-128v0v-32v0h-32h-480v32v0v128v0v32v0h32h208v105v0l-37 -36v0l-11 -12v0l-23 23v0l12 11v0l64 64v0l11 12v0l11 -12v0l64 -64v0l12 -11v0l-23 -23v0l-11 12v0l-37 36v0v-105v0zM512 441v-16v16
v-16v-160v0v-16v0h-16h-112v32v0h16h80v128v0h-448v0v-128v0h80h16v-32v0h-16h-112v16v0v160v0v16v0h16h496z" />
</svg>
