<?xml version="1.0" standalone="no"?>
<!DOCTYPE svg PUBLIC "-//W3C//DTD SVG 1.1//EN" "http://www.w3.org/Graphics/SVG/1.1/DTD/svg11.dtd" >
<svg xmlns="http://www.w3.org/2000/svg" xmlns:xlink="http://www.w3.org/1999/xlink" version="1.1" viewBox="-10 -40 660 512">
   <path fill="currentColor"
d="M136 -39q31 1 52 22q13 -6 28 -6q31 1 51 21t21 51v56v0v16v0h-16h-272v-16v0v-48v0q1 -27 19 -45t45 -19h12v0q21 -30 60 -32v0zM100 16l-4 9l4 -9l-4 9h-11h-21q-14 0 -23 9t-9 23v32v0h32h192v-40v0q0 -17 -12 -28q-11 -12 -28 -12q-13 0 -23 7l-14 10v0l-9 -14v0
q-12 -18 -34 -19q-25 1 -36 23v0zM288 -37q16 -2 32 -2q72 1 129 35q58 34 92 92q34 57 35 129q0 11 -1 22q-14 -9 -31 -12v-10q-1 -63 -31 -113q-29 -51 -80 -80q-50 -30 -113 -31h-10h-1q-8 -17 -21 -30v0zM224 419v35v-35v35q-72 -29 -115 -92q-44 -63 -45 -145
q0 -33 8 -64h33v0q-9 30 -9 64q1 68 36 121q34 53 92 81v0zM216 169q2 -22 24 -24q22 2 24 24q-2 22 -24 24q-22 -2 -24 -24v0zM400 145q22 2 24 24q-2 22 -24 24q-22 -2 -24 -24q2 -22 24 -24v0zM321 314q6 -35 32 -58v0v0q26 -22 63 -23q44 1 72 33q14 -9 32 -9
q26 1 44 17q18 17 20 43q25 8 40 28q16 21 16 48v64v0v16v0h-16h-368v-16v0v-64v0q1 -30 19 -51q18 -22 46 -28v0zM416 265q-27 1 -45 19v0v0q-18 18 -19 45v16v0h-16v0q-20 1 -34 14q-13 14 -14 34v48v0h48h272v-48v0q0 -19 -12 -32t-30 -16l-17 -2v0l3 -16v0v-6
q0 -14 -9 -23t-23 -9t-23 10l-15 16v0l-11 -19v0q-18 -29 -55 -31v0z" />
</svg>
