<?xml version="1.0" standalone="no"?>
<!DOCTYPE svg PUBLIC "-//W3C//DTD SVG 1.1//EN" "http://www.w3.org/Graphics/SVG/1.1/DTD/svg11.dtd" >
<svg xmlns="http://www.w3.org/2000/svg" xmlns:xlink="http://www.w3.org/1999/xlink" version="1.1" viewBox="-10 -40 596 512">
   <path fill="currentColor"
d="M32 217q1 -63 31 -113v0v0q29 -51 80 -80v0v0q50 -30 113 -31q63 1 113 31q51 29 80 80q30 50 31 113v1v0q7 -1 15 -1q9 0 17 2v-2v0q-1 -71 -35 -129t-92 -92q-57 -34 -129 -35q-72 1 -129 35q-58 34 -92 92q-34 57 -35 129q1 72 35 129q34 58 92 92q57 34 129 35
q76 -1 136 -39q-11 -12 -17 -27q-53 33 -119 34q-63 -1 -113 -31q-51 -29 -80 -80q-30 -50 -31 -113v0zM117 196l-26 19l26 -19l-26 19q28 34 69 34t69 -34l-26 -19v0q-17 21 -43 21t-43 -21v0zM395 196q-17 21 -43 21v0v0q-26 0 -43 -21l-26 19v0q28 34 69 34t69 -34
l-26 -19v0zM256 321q22 2 24 24q-2 22 -24 24q-22 -2 -24 -24q2 -22 24 -24v0zM256 401q32 -1 49 -28q15 -28 0 -56q-17 -27 -49 -28q-32 1 -48 28q-15 28 0 56q16 27 48 28v0zM453 271h-1h1h-1q-19 0 -32 11q-14 11 -18 28l-41 21v0l-29 14v0l29 14v0l39 20v0q2 20 17 34
q14 13 35 14q3 0 7 -1q14 15 36 15q20 0 34 -13q14 -12 17 -31q29 -17 30 -52q-1 -35 -30 -52q-3 -19 -17 -31t-34 -13q-27 1 -42 22v0zM495 281q18 2 20 21v1l-1 12v0l12 4v0q17 6 18 26q-1 20 -18 26l-12 4v0l1 12v0v2q-2 18 -20 20q-11 0 -17 -9l-7 -11v0l-12 4v0
q-3 1 -7 2q-18 -2 -20 -21v-3v0l2 -11v0l-11 -5v0l-19 -10v0l19 -10v0l8 -4v0l1 -9v0q3 -18 20 -19q3 0 5 1l14 3v0l5 -13v0q5 -12 19 -13v0z" />
</svg>
