<?xml version="1.0" standalone="no"?>
<!DOCTYPE svg PUBLIC "-//W3C//DTD SVG 1.1//EN" "http://www.w3.org/Graphics/SVG/1.1/DTD/svg11.dtd" >
<svg xmlns="http://www.w3.org/2000/svg" xmlns:xlink="http://www.w3.org/1999/xlink" version="1.1" viewBox="-10 -40 532 512">
   <path fill="currentColor"
d="M480 217q-1 -61 -30 -112v0v0q-30 -51 -82 -82q-53 -30 -112 -30t-112 30q-52 31 -82 82q-29 51 -30 112q1 61 30 112q30 51 82 82q53 30 112 30t112 -30q52 -31 82 -82q29 -51 30 -112v0zM0 217q1 -70 34 -128v0v0q34 -58 94 -94q61 -34 128 -34t128 34q60 36 94 94
q33 58 34 128q-1 70 -34 128q-34 58 -94 94q-61 34 -128 34t-128 -34q-60 -36 -94 -94q-33 -58 -34 -128v0zM322 83l-1 -6l1 6l-1 -6l30 -8v0l2 5v0q13 39 54 46l11 1v0l-4 30v0q17 21 18 50q0 27 -16 48v32v0v16v0h-32v0v-16v0v-7v0q-15 7 -32 7q-34 -1 -57 -23
q-22 -23 -23 -57q1 -32 21 -54t51 -26q-15 -16 -22 -38v0zM191 77l-1 6l1 -6l-1 6q-7 22 -22 38q31 4 51 26t21 54v32v0v16v0v16v0v16v0h-32v0v-16v0q-21 16 -48 16q-17 0 -32 -7v7v0v16v0h-32v0v-16v0v-32v0q-15 -21 -16 -48q1 -29 18 -50l-4 -30v0l12 -1v0q40 -7 53 -46
l2 -5v0l30 8v0zM208 201q-1 -27 -24 -42q-24 -12 -48 0q-23 15 -24 42q1 27 24 42q24 12 48 0q23 -15 24 -42v0zM352 249q27 -1 42 -24q12 -24 0 -48q-15 -23 -42 -24q-27 1 -42 24q-12 24 0 48q15 23 42 24v0zM160 169q14 0 23 9v0v0q9 9 9 23t-9 23t-23 9t-23 -9t-9 -23
q14 0 23 -9t9 -23v0zM320 201q14 0 23 -9v0v0q9 -9 9 -23q14 0 23 9t9 23t-9 23t-23 9t-23 -9t-9 -23v0zM354 336q-7 17 -32 36v0v0q-24 19 -66 21q-42 -2 -66 -21q-25 -19 -32 -36l28 -14v0q5 10 22 24q18 14 48 15q30 -1 48 -15q17 -14 22 -24l28 14v0z" />
</svg>
