<?xml version="1.0" standalone="no"?>
<!DOCTYPE svg PUBLIC "-//W3C//DTD SVG 1.1//EN" "http://www.w3.org/Graphics/SVG/1.1/DTD/svg11.dtd" >
<svg xmlns="http://www.w3.org/2000/svg" xmlns:xlink="http://www.w3.org/1999/xlink" version="1.1" viewBox="-10 -40 660 512">
   <path fill="currentColor"
d="M535 279q9 -29 9 -62q-1 -63 -31 -113q-29 -51 -80 -80q-50 -30 -113 -31q-63 1 -113 31q-51 29 -80 80q-30 50 -31 113q0 54 23 100q11 23 10 48q-2 26 -11 47q-6 15 -17 29h219h185q-9 -14 -9 -32q0 -23 14 -40q15 -17 37 -23q-1 0 -1 -1l-1 -1q-19 -29 -10 -65v0z
M320 473h-256h256h-320v-16v0v-16v0h16h25q21 -1 36 -20q14 -20 18 -45q5 -25 -4 -45q-26 -52 -27 -114q1 -72 35 -129q34 -58 92 -92q57 -34 129 -35q72 1 129 35q58 34 92 92q34 57 35 129q0 37 -10 71q-5 21 6 38q11 18 32 19v0v0h20h16v16v0v0v0v0v0v16v0h-16v0v0v0h-20
h-44q-14 0 -23 9t-9 23t9 23t23 9h16v0v16v0v16v0h-16h-240zM232 144q8 -21 30 -17q20 7 17 29q-8 21 -30 17q-20 -7 -17 -29v0zM416 168q21 8 17 30q-7 20 -29 17q-21 -8 -17 -30q7 -20 29 -17v0zM283 340q-40 -12 -64 -35v0v0q-24 -23 -35 -47l29 -14v0q9 20 28 38t50 27
q32 8 57 2q26 -7 43 -19l18 27v0q-22 15 -54 23t-72 -2v0z" />
</svg>
