<?xml version="1.0" standalone="no"?>
<!DOCTYPE svg PUBLIC "-//W3C//DTD SVG 1.1//EN" "http://www.w3.org/Graphics/SVG/1.1/DTD/svg11.dtd" >
<svg xmlns="http://www.w3.org/2000/svg" xmlns:xlink="http://www.w3.org/1999/xlink" version="1.1" viewBox="-11 0 651 512">
   <path fill="currentColor"
d="M240 67l-15 9l15 -9l-15 9l33 53v0l-41 25v0l-93 59v0q-34 20 -69 8t-50 -49q-10 -28 -1 -55q10 -27 36 -43l152 -90v0l41 -24v0l49 82v0l-42 25v0zM224 39l14 -8l-14 8l14 -8l-16 -27v0l-14 8v0l-152 90v0q-16 9 -22 26q-5 16 1 33q9 22 30 30q21 7 42 -5l94 -59v0
l13 -8v0l-17 -27v0l-13 8v0l-56 35v0v-39v0l96 -57v0zM369 -6q-15 -2 -30 -1l-2 -32v0q17 -1 34 1q71 6 126 44q55 39 85 99t25 131q-6 71 -44 126q-39 55 -99 85t-131 25q-85 -7 -145 -59q-61 -51 -83 -129l31 -8v0q19 68 72 113t127 51q63 4 115 -22q53 -26 86 -74
q34 -48 39 -110q4 -63 -22 -115q-26 -53 -74 -86q-48 -34 -110 -39v0zM352 362q-51 -2 -83 -17v0v0q-31 -15 -41 -29l25 -20v0q5 8 30 20q24 12 69 14q45 -2 69 -14q25 -12 31 -20l25 20v0q-11 14 -42 29q-32 15 -83 17v0zM272 146q22 2 24 24q-2 21 -24 24q-22 -3 -24 -24
q2 -22 24 -24v0zM408 170q2 -22 24 -24q22 2 24 24q-2 21 -24 24q-22 -3 -24 -24v0z" />
</svg>
