<?xml version="1.0" standalone="no"?>
<!DOCTYPE svg PUBLIC "-//W3C//DTD SVG 1.1//EN" "http://www.w3.org/Graphics/SVG/1.1/DTD/svg11.dtd" >
<svg xmlns="http://www.w3.org/2000/svg" xmlns:xlink="http://www.w3.org/1999/xlink" version="1.1" viewBox="-10 -40 532 512">
   <path fill="currentColor"
d="M480 217q-1 -61 -30 -112v0v0q-30 -51 -82 -82q-53 -30 -112 -30t-112 30q-52 31 -82 82q-29 51 -30 112q1 61 30 112q30 51 82 82q53 30 112 30t112 -30q52 -31 82 -82q29 -51 30 -112v0zM0 217q1 -70 34 -128v0v0q34 -58 94 -94q61 -34 128 -34t128 34q60 36 94 94
q33 58 34 128q-1 70 -34 128q-34 58 -94 94q-61 34 -128 34t-128 -34q-60 -36 -94 -94q-33 -58 -34 -128v0zM295 374l-39 -26l39 26l-39 -26l-39 26v0l-9 6v0l-9 -6v0l-40 -26v0l-24 11v0l-14 8v0l-14 -29v0l14 -7v0l32 -16v0l8 -4v0l8 5v0l39 26v0l39 -26v0l9 -6v0l9 6v0
l39 26v0l39 -26v0l8 -6v0l8 5v0l32 16v0l14 7v0l-14 29v0l-14 -8v0l-24 -11v0l-40 26v0l-9 6v0l-9 -6v0zM174 85h-12h12h-12q-36 3 -58 28t-20 56v1v0v0v0q3 31 26 50t51 17v0v0v0v0q28 -3 44 -23q17 -19 15 -42v0v0v0v0q-3 -23 -20 -37q-17 -13 -36 -11h-1v0v0v0
q-20 3 -30 16q-11 14 -9 29v0v0v0v0q2 15 13 23t23 6v0v0v0v0q12 -2 17 -10t3 -14v-1v0v0v0q-2 -6 -7 -9v0v0l1 6v0q0 8 -5 12t-9 4q-11 1 -18 -9q-7 -11 -2 -21q5 -12 18 -16q15 -5 28 3q13 7 17 25t-7 34q-11 15 -32 19q-22 4 -41 -10t-23 -39q-3 -26 14 -47t47 -25
q30 -3 54 16q25 20 29 53q3 34 -20 61t-61 31q-38 2 -68 -23q-31 -25 -35 -67q-2 -42 26 -74q29 -33 75 -36l12 -1v0l1 24v1zM350 253q36 -3 58 -28v0v0q22 -25 20 -56v-1v0v0v0q-3 -31 -26 -50t-50 -17h-1v0v0v0q-28 3 -44 23q-17 19 -14 42v0v0v1v0q2 22 19 36
q17 13 37 11v0v0v0v0q20 -3 30 -16q11 -14 9 -28v-1v0v0v0q-2 -15 -13 -23t-23 -6v0v0v0v0q-12 2 -17 10t-3 14v1v0v0v0q2 6 7 9v0v0l-1 -5v0q0 -9 5 -13t9 -4q11 -1 18 9q7 11 2 21q-5 12 -18 16q-15 5 -28 -3q-13 -7 -17 -25t7 -34q11 -15 32 -19q22 -4 41 10t23 39
q3 26 -14 47t-47 25q-30 3 -54 -16q-25 -20 -29 -53q-3 -34 20 -61t61 -30t68 22q31 25 35 67q2 42 -26 74q-29 33 -75 36l-12 1v0l-1 -24v0l12 -1v0z" />
</svg>
