<?xml version="1.0" standalone="no"?>
<!DOCTYPE svg PUBLIC "-//W3C//DTD SVG 1.1//EN" "http://www.w3.org/Graphics/SVG/1.1/DTD/svg11.dtd" >
<svg xmlns="http://www.w3.org/2000/svg" xmlns:xlink="http://www.w3.org/1999/xlink" version="1.1" viewBox="-10 -40 468 512">
   <path fill="currentColor"
d="M32 409v-384v384v-384h384v0v384v0h-384v0zM0 441h32h-32h448v-32v0v-384v0v-32v0h-32h-416v32v0v384v0v32v0zM144 249v-160v160v-160h-32v0v160v0h32v0zM304 313h32h-32h32v-224v0h-32v0v224v0zM240 217v-128v128v-128h-32v0v128v0h32v0z" />
</svg>
