<?xml version="1.0" standalone="no"?>
<!DOCTYPE svg PUBLIC "-//W3C//DTD SVG 1.1//EN" "http://www.w3.org/Graphics/SVG/1.1/DTD/svg11.dtd" >
<svg xmlns="http://www.w3.org/2000/svg" xmlns:xlink="http://www.w3.org/1999/xlink" version="1.1" viewBox="-10 -40 660 512">
   <path fill="currentColor"
d="M32 -39h16h-16h448v32v0h-16h-432v-32v0zM16 25h16h-16h480v32v0h-16h-464v-32v0zM36 121l33 320l-33 -320l33 320h291v0q15 18 35 32h-355v0l-37 -352v0l-3 -32v0h32h480l-3 32v0l-4 32v0h-9q-12 0 -23 2l4 -34v0h-441v0zM256 153q76 2 122 45q-12 11 -22 24
q-34 -35 -100 -37q-59 2 -93 30q-34 29 -35 66q1 37 35 66q34 28 93 30q39 0 67 -14q3 16 9 31q-34 15 -76 15q-68 -1 -113 -37q-45 -37 -47 -91q2 -54 47 -91q45 -36 113 -37v0zM256 305q-22 -2 -24 -20q2 -18 24 -20q22 2 24 20q-2 18 -24 20v0zM608 329q0 -30 -15 -56v0
v0q-15 -26 -41 -41t-56 -15t-56 15t-41 41t-15 56t15 56t41 41t56 15t56 -15t41 -41t15 -56v0zM352 329q0 -39 19 -72v0v0q19 -33 53 -53q34 -19 72 -19t72 19q34 20 53 53t19 72t-19 72t-53 53q-34 19 -72 19t-72 -19q-34 -20 -53 -53t-19 -72v0zM512 265v48v-48v48h48h16
v32v0h-16h-48v48v0v16v0h-32v0v-16v0v-48v0h-48h-16v-32v0h16h48v-48v0v-16v0h32v0v16v0z" />
</svg>
