<?xml version="1.0" standalone="no"?>
<!DOCTYPE svg PUBLIC "-//W3C//DTD SVG 1.1//EN" "http://www.w3.org/Graphics/SVG/1.1/DTD/svg11.dtd" >
<svg xmlns="http://www.w3.org/2000/svg" xmlns:xlink="http://www.w3.org/1999/xlink" version="1.1" viewBox="-10 -40 596 512">
   <path fill="currentColor"
d="M352 153v19v-19v19q15 -8 32 -12v-47v0l-152 -152v0h-200h-32v32v0v448v0v32v0h32h299q-20 -14 -35 -32h-264v0v-448v0h160v0v144v0v16v0h16h144zM347 121h-123h123h-123v-123v0l123 123v0zM320 329q0 -30 15 -56v0v0q15 -26 41 -41t56 -15t56 15t41 41t15 56t-15 56
t-41 41t-56 15t-56 -15t-41 -41t-15 -56v0zM576 329q0 -39 -19 -72v0v0q-19 -33 -53 -53q-34 -19 -72 -19t-72 19q-34 20 -53 53t-19 72t19 72t53 53q34 19 72 19t72 -19q34 -20 53 -53t19 -72v0zM448 265v-16v16v-16h-32v0v16v0v48v0h-48h-16v32v0h16h48v48v0v16v0h32v0
v-16v0v-48v0h48h16v-32v0h-16h-48v-48v0z" />
</svg>
