<?xml version="1.0" standalone="no"?>
<!DOCTYPE svg PUBLIC "-//W3C//DTD SVG 1.1//EN" "http://www.w3.org/Graphics/SVG/1.1/DTD/svg11.dtd" >
<svg xmlns="http://www.w3.org/2000/svg" xmlns:xlink="http://www.w3.org/1999/xlink" version="1.1" viewBox="-10 -40 468 512">
   <path fill="currentColor"
d="M448 89v-32v32v-32h-64v0v-64v0h-32v0v64v0h-256v0v-64v0h-32v0v64v0h-64v0v32v0h64v0v256v0h-64v0v32v0h64v0v64v0h32v0v-64v0h256v0v64v0h32v0v-64v0h64v0v-32v0h-64v0v-256v0h64v0zM96 345v-256v256v-256h256v0v256v0h-256v0z" />
</svg>
