<?xml version="1.0" standalone="no"?>
<!DOCTYPE svg PUBLIC "-//W3C//DTD SVG 1.1//EN" "http://www.w3.org/Graphics/SVG/1.1/DTD/svg11.dtd" >
<svg xmlns="http://www.w3.org/2000/svg" xmlns:xlink="http://www.w3.org/1999/xlink" version="1.1" viewBox="-10 -40 660 512">
   <path fill="currentColor"
d="M256 441q49 0 91 -19q8 14 19 26q-50 24 -110 25q-72 -1 -129 -35q-58 -34 -92 -92q-34 -57 -35 -129q1 -72 35 -129q34 -58 92 -92q57 -34 129 -35q91 2 158 55t90 137h-8q-13 0 -25 2q-21 -72 -79 -116q-58 -45 -136 -46q-63 1 -113 31q-51 29 -80 80q-30 50 -31 113
q1 63 31 113q29 51 80 80q50 30 113 31v0zM256 345q14 0 23 -9v0v0q9 -9 9 -23t-9 -23t-23 -9t-23 9t-9 23t9 23t23 9v0zM256 377q-27 -1 -45 -19v0v0q-18 -18 -19 -45q0 -23 14 -40q13 -16 34 -22v-194v0v-16v0h32v0v16v0v194v0q21 6 34 22q14 17 14 40q-1 27 -19 45
t-45 19v0zM144 81q22 2 24 24q-2 22 -24 24q-22 -2 -24 -24q2 -22 24 -24v0zM72 217q2 -22 24 -24q22 2 24 24q-2 22 -24 24q-22 -2 -24 -24v0zM344 105q2 -22 24 -24q22 2 24 24q-2 22 -24 24q-22 -2 -24 -24v0zM496 441q30 0 56 -15v0v0q26 -15 41 -41t15 -56t-15 -56
t-41 -41t-56 -15t-56 15t-41 41t-15 56t15 56t41 41t56 15v0zM496 185q39 0 72 19v0v0q33 19 53 53q19 34 19 72t-19 72q-20 34 -53 53t-72 19t-72 -19t-53 -53q-19 -34 -19 -72t19 -72q20 -34 53 -53t72 -19v0zM576 345h-16h16h-160v-32v0h16h144v32v0z" />
</svg>
