<?xml version="1.0" standalone="no"?>
<!DOCTYPE svg PUBLIC "-//W3C//DTD SVG 1.1//EN" "http://www.w3.org/Graphics/SVG/1.1/DTD/svg11.dtd" >
<svg xmlns="http://www.w3.org/2000/svg" xmlns:xlink="http://www.w3.org/1999/xlink" version="1.1" viewBox="-10 -40 532 512">
   <path fill="currentColor"
d="M216 -39h-16h16h-16v32v0h16h24v41v0q-59 6 -102 42l-29 -29v0v0v0l17 -17v0l11 -11v0l-22 -23v0l-12 12v0l-56 56v0l-12 12v0l23 22v0l11 -11v0l17 -17v0v0v0l29 29v0q-36 43 -42 102h-41v0v-24v0v-16v0h-32v0v16v0v80v0v16v0h32v0v-16v0v-24v0h41v0q6 59 42 102l-29 29
v0v0v0l-17 -17v0l-11 -11v0l-23 22v0l12 12v0l56 56v0l12 12v0l22 -23v0l-11 -11v0l-17 -17v0v0v0l29 -29v0q43 36 102 42v41v0h-24h-16v32v0h16h96v-32v0h-16h-24v-41v0q59 -6 102 -42l29 29v0v0v0l-17 17v0l-11 11v0l22 23v0l12 -12v0l56 -56v0l12 -12v0l-23 -22v0l-11 11
v0l-17 17v0v0v0l-29 -29v0q36 -43 42 -102h41v0v24v0v16v0h32v0v-16v0v-80v0v-16v0h-32v0v16v0v24v0h-41v0q-6 -59 -42 -102l29 -29v0v0v0l17 17v0l11 11v0l23 -22v0l-12 -12v0l-56 -56v0l-12 -12v0l-22 23v0l11 11v0l17 17v0v0v0l-29 29v0q-43 -36 -102 -42v-41v0h24h16
v-32v0h-16h-80zM256 65q41 0 76 20v0v0q35 20 56 56q20 36 20 76t-20 76q-21 36 -56 56t-76 20t-76 -20t-56 -56q-20 -36 -20 -76t20 -76q21 -36 56 -56t76 -20v0zM192 169q15 1 16 16q-1 15 -16 16q-15 -1 -16 -16q1 -15 16 -16v0zM192 233q27 -1 42 -24q12 -24 0 -48
q-15 -23 -42 -24q-27 1 -42 24q-12 24 0 48q15 23 42 24v0zM304 289q22 -2 24 -24q-2 -22 -24 -24q-22 2 -24 24q2 22 24 24v0z" />
</svg>
