<?xml version="1.0" standalone="no"?>
<!DOCTYPE svg PUBLIC "-//W3C//DTD SVG 1.1//EN" "http://www.w3.org/Graphics/SVG/1.1/DTD/svg11.dtd" >
<svg xmlns="http://www.w3.org/2000/svg" xmlns:xlink="http://www.w3.org/1999/xlink" version="1.1" viewBox="-10 -40 532 512">
   <path fill="currentColor"
d="M32 217q1 -63 31 -113v0v0q29 -51 80 -80v0v0q50 -30 113 -31h16v0v-32v0h-16v0q-72 1 -129 35q-58 34 -92 92q-34 57 -35 129q1 72 35 129q34 58 92 92q57 34 129 35h16v0v-32v0h-16v0q-63 -1 -113 -31q-51 -29 -80 -80q-30 -50 -31 -113v0zM355 77l-12 -11l12 11
l-12 -11l-22 24v0l12 11v0l113 100v0h-270h-16v32v0h16h270l-113 100v0l-12 11v0l22 24v0l12 -11v0l144 -128v0l13 -12v0l-13 -12v0l-144 -128v0z" />
</svg>
