<?xml version="1.0" standalone="no"?>
<!DOCTYPE svg PUBLIC "-//W3C//DTD SVG 1.1//EN" "http://www.w3.org/Graphics/SVG/1.1/DTD/svg11.dtd" >
<svg xmlns="http://www.w3.org/2000/svg" xmlns:xlink="http://www.w3.org/1999/xlink" version="1.1" viewBox="-10 -40 596 512">
   <path fill="currentColor"
d="M144 -39h-16h16h-16v32v0h16h121l-252 253v0l-12 11v0l23 23v0l11 -12v0l253 -252v0v121v0v16v0h32v0v-16v0v-160v0v-16v0h-16h-160zM528 25q15 1 16 16q-1 15 -16 16q-15 -1 -16 -16q1 -15 16 -16v0zM528 89q27 -1 42 -24q12 -24 0 -48q-15 -23 -42 -24q-27 1 -42 24
q-12 24 0 48q15 23 42 24v0zM400 153q15 1 16 16q-1 15 -16 16q-15 -1 -16 -16q1 -15 16 -16v0zM400 217q27 -1 42 -24q12 -24 0 -48q-15 -23 -42 -24q-27 1 -42 24q-12 24 0 48q15 23 42 24v0zM384 297q1 -15 16 -16q15 1 16 16q-1 15 -16 16q-15 -1 -16 -16v0zM448 297
q-1 -27 -24 -42q-24 -12 -48 0q-23 15 -24 42q1 27 24 42q24 12 48 0q23 -15 24 -42v0zM400 409q15 1 16 16q-1 15 -16 16q-15 -1 -16 -16q1 -15 16 -16v0zM400 473q27 -1 42 -24q12 -24 0 -48q-15 -23 -42 -24q-27 1 -42 24q-12 24 0 48q15 23 42 24v0zM528 409q15 1 16 16
q-1 15 -16 16q-15 -1 -16 -16q1 -15 16 -16v0zM528 473q27 -1 42 -24q12 -24 0 -48q-15 -23 -42 -24q-27 1 -42 24q-12 24 0 48q15 23 42 24v0zM256 297q1 -15 16 -16q15 1 16 16q-1 15 -16 16q-15 -1 -16 -16v0zM320 297q-1 -27 -24 -42q-24 -12 -48 0q-23 15 -24 42
q1 27 24 42q24 12 48 0q23 -15 24 -42v0zM272 409q15 1 16 16q-1 15 -16 16q-15 -1 -16 -16q1 -15 16 -16v0zM272 473q27 -1 42 -24q12 -24 0 -48q-15 -23 -42 -24q-27 1 -42 24q-12 24 0 48q15 23 42 24v0zM128 425q1 -15 16 -16q15 1 16 16q-1 15 -16 16q-15 -1 -16 -16v0
zM192 425q-1 -27 -24 -42q-24 -12 -48 0q-23 15 -24 42q1 27 24 42q24 12 48 0q23 -15 24 -42v0zM528 281q15 1 16 16q-1 15 -16 16q-15 -1 -16 -16q1 -15 16 -16v0zM528 345q27 -1 42 -24q12 -24 0 -48q-15 -23 -42 -24q-27 1 -42 24q-12 24 0 48q15 23 42 24v0zM512 169
q1 -15 16 -16q15 1 16 16q-1 15 -16 16q-15 -1 -16 -16v0zM576 169q-1 -27 -24 -42q-24 -12 -48 0q-23 15 -24 42q1 27 24 42q24 12 48 0q23 -15 24 -42v0z" />
</svg>
