<?xml version="1.0" standalone="no"?>
<!DOCTYPE svg PUBLIC "-//W3C//DTD SVG 1.1//EN" "http://www.w3.org/Graphics/SVG/1.1/DTD/svg11.dtd" >
<svg xmlns="http://www.w3.org/2000/svg" xmlns:xlink="http://www.w3.org/1999/xlink" version="1.1" viewBox="-10 -40 650 512">
   <path fill="currentColor"
d="M128 -23v129v-129v129l-37 -36v0l-11 -12v0l-23 23v0l12 11v0l64 64v0l11 12v0l11 -12v0l64 -64v0l12 -11v0l-23 -23v0l-11 12v0l-37 36v0v-129v0v-16v0h-32v0v16v0zM409 81l12 11l-12 -11l12 11l64 64v0l11 12v0l11 -12v0l64 -64v0l12 -11v0l-23 -23v0l-11 12v0l-37 36
v0v-129v0v-16v0h-32v0v16v0v129v0l-37 -36v0l-11 -12v0l-23 23v0zM304 153q1 -15 16 -16q15 1 16 16q-1 15 -16 16q-15 -1 -16 -16v0zM368 153q-1 -27 -24 -42q-24 -12 -48 0q-23 15 -24 42q1 27 24 42q24 12 48 0q23 -15 24 -42v0zM272 217h-9h9h-9l-5 8v0l-55 91v0l-2 -3
v0h-9h-105l-5 8v0l-64 104v0l-8 13v0l27 17v0l9 -14v0l42 -68v0v84v0v16v0h16h96v-16v0v-84v0l42 68v0l9 14v0l27 -17v0l-8 -13v0l-49 -79v0l1 -1v0l42 -68v0v100v0v16v0h16h96v-16v0v-100v0l42 68v0l1 1v0l-49 79v0l-8 13v0l27 17v0l9 -14v0l42 -68v0v84v0v16v0h16h96v-16
v0v-84v0l42 68v0l9 14v0l27 -17v0l-8 -13v0l-64 -104v0l-5 -8v0h-9h-105l-1 3v0l-56 -91v0l-5 -8v0h-9h-96zM296 361v-112v112v-112h48v0v112v0h-48v0zM144 233q15 1 16 16q-1 15 -16 16q-15 -1 -16 -16q1 -15 16 -16v0zM144 297q27 -1 42 -24q12 -24 0 -48q-15 -23 -42 -24
q-27 1 -42 24q-12 24 0 48q15 23 42 24v0zM120 345h48h-48h48v96v0h-48v0v-96v0zM480 249q1 -15 16 -16q15 1 16 16q-1 15 -16 16q-15 -1 -16 -16v0zM544 249q-1 -27 -24 -42q-24 -12 -48 0q-23 15 -24 42q1 27 24 42q24 12 48 0q23 -15 24 -42v0zM520 441h-48h48h-48v-96v0
h48v0v96v0z" />
</svg>
