<?xml version="1.0" standalone="no"?>
<!DOCTYPE svg PUBLIC "-//W3C//DTD SVG 1.1//EN" "http://www.w3.org/Graphics/SVG/1.1/DTD/svg11.dtd" >
<svg xmlns="http://www.w3.org/2000/svg" xmlns:xlink="http://www.w3.org/1999/xlink" version="1.1" viewBox="-10 -40 477 512">
   <path fill="currentColor"
d="M323 -27l-13 -11l13 11l-13 -11l-21 25v0l13 10v0l87 76v0h-373h-16v16v0v144v0v16v0h32v0v-16v0v-128v0h357v0l-87 76v0l-13 10v0l21 25v0l13 -11v0l120 -104v0l14 -12v0l-14 -12v0l-120 -104v0zM227 229l-13 -11l13 11l-13 -11l-21 25v0l13 10v0l87 76v0h-277h-16v16v0
v112v0v16v0h32v0v-16v0v-96v0h261v0l-87 76v0l-13 10v0l21 25v0l13 -11v0l120 -104v0l14 -12v0l-14 -12v0l-120 -104v0z" />
</svg>
