<?xml version="1.0" standalone="no"?>
<!DOCTYPE svg PUBLIC "-//W3C//DTD SVG 1.1//EN" "http://www.w3.org/Graphics/SVG/1.1/DTD/svg11.dtd" >
<svg xmlns="http://www.w3.org/2000/svg" xmlns:xlink="http://www.w3.org/1999/xlink" version="1.1" viewBox="-10 -40 596 512">
   <path fill="currentColor"
d="M16 25h-16h16h-16v-32v0h16h560v32v0h-16h-544zM128 66l11 12l-11 -12l11 12l104 104v0l12 11v0l-23 23v0l-11 -12v0l-77 -76v0v297v0v16v0h-32v0v-16v0v-297v0l-77 76v0l-11 12v0l-23 -23v0l12 -11v0l104 -104v0l11 -12v0zM448 66l11 12l-11 -12l11 12l104 104v0l12 11
v0l-23 23v0l-11 -12v0l-77 -76v0v297v0v16v0h-32v0v-16v0v-297v0l-77 76v0l-11 12v0l-23 -23v0l12 -11v0l104 -104v0l11 -12v0z" />
</svg>
