<?xml version="1.0" standalone="no"?>
<!DOCTYPE svg PUBLIC "-//W3C//DTD SVG 1.1//EN" "http://www.w3.org/Graphics/SVG/1.1/DTD/svg11.dtd" >
<svg xmlns="http://www.w3.org/2000/svg" xmlns:xlink="http://www.w3.org/1999/xlink" version="1.1" viewBox="-10 -40 660 512">
   <path fill="currentColor"
d="M608 -7h-320h320h-320v96v0h-32v0v-96v0v-32v0h32h352v32v0v448v0v32v0h-32h-224v-32v0h224v0v-448v0zM491 214l64 64l-64 -64l64 64l-22 22v0l-37 -36v0v129v0v16v0h-32v0v-16v0v-129v0l-37 36v0l-22 -22v0l64 -64v0l11 -12v0l11 12v0zM352 153h-320h320h-320v64v0h32
h288v-64v0zM0 249v-32v32v-32v-64v0v-32v0h32h352v32v0v64v0v32v0h-32v0v192v0v32v0h-32h-288v-32v0v-192v0h-32v0zM64 441h256h-256h256v-192v0h-256v0v192v0zM256 281v32v-32v32h-128v0v-32v0h128v0z" />
</svg>
