<?xml version="1.0" standalone="no"?>
<!DOCTYPE svg PUBLIC "-//W3C//DTD SVG 1.1//EN" "http://www.w3.org/Graphics/SVG/1.1/DTD/svg11.dtd" >
<svg xmlns="http://www.w3.org/2000/svg" xmlns:xlink="http://www.w3.org/1999/xlink" version="1.1" viewBox="-10 -40 660 512">
   <path fill="currentColor"
d="M32 -7h16h-16h576v32v0h-16h-64v64v0h64h16v32v0h-16h-560v-32v0h16h64v-64v0h-64h-16v-32v0zM384 225v24v-24v24v48v0q-1 -27 -19 -45t-45 -19q-27 1 -45 19t-19 45v128v0v16v0h-16h-112v-16v0v-128v0q-1 -27 -19 -45t-45 -19h-16h-16v-32v0h16h16q41 1 68 28t28 68v112
v0h64v0v-112v0q1 -41 28 -68t68 -28q38 1 64 24v0zM400 25v64v-64v64h96v0v-64v0h-96v0zM368 89v-64v64v-64h-96v0v64v0h96v0zM144 25v64v-64v64h96v0v-64v0h-96v0zM528 185q-20 1 -34 14v0v0q-13 14 -14 34v48v0h96v0v-48v0q-1 -20 -14 -34q-14 -13 -34 -14v0zM448 233
q1 -34 23 -57v0v0q23 -22 57 -23q34 1 57 23q22 23 23 57v48v0h32v0v32v0v128v0v32v0h-32h-192v-32v0v-128v0v-32v0h32v0v-48v0zM448 313v128v-128v128h160v0v-128v0h-160v0z" />
</svg>
