<?xml version="1.0" standalone="no"?>
<!DOCTYPE svg PUBLIC "-//W3C//DTD SVG 1.1//EN" "http://www.w3.org/Graphics/SVG/1.1/DTD/svg11.dtd" >
<svg xmlns="http://www.w3.org/2000/svg" xmlns:xlink="http://www.w3.org/1999/xlink" version="1.1" viewBox="-10 -40 660 512">
   <path fill="currentColor"
d="M32 -7h320h-320h320v235v0q14 -20 32 -35v-200v0v-32v0h-32h-352v32v0v448v0v32v0h32h352v-8v0q-18 -15 -32 -35v11v0h-96v0v-80v0v-32v0h-32h-96v32v0v80v0h-96v0v-448v0zM160 441v-80v80v-80h64v0v80v0h-64v0zM64 57v16v-16v16v64v0v16v0h16h80v-16v0v-64v0v-16v0h-16
h-80zM96 89h32h-32h32v32v0h-32v0v-32v0zM240 57h-16h16h-16v16v0v64v0v16v0h16h80v-16v0v-64v0v-16v0h-16h-64zM256 121v-32v32v-32h32v0v32v0h-32v0zM64 185v16v-16v16v64v0v16v0h16h80v-16v0v-64v0v-16v0h-16h-80zM96 217h32h-32h32v32v0h-32v0v-32v0zM240 185h-16h16
h-16v16v0v64v0v16v0h16h80v-16v0v-64v0v-16v0h-16h-64zM256 249v-32v32v-32h32v0v32v0h-32v0zM496 217q30 0 56 15v0v0q26 15 41 41t15 56t-15 56t-41 41t-56 15t-56 -15t-41 -41t-15 -56t15 -56t41 -41t56 -15v0zM496 473q39 0 72 -19v0v0q33 -19 53 -53q19 -34 19 -72
t-19 -72q-20 -34 -53 -53t-72 -19t-72 19t-53 53q-19 34 -19 72t19 72q20 34 53 53t72 19v0zM575 297l-23 -23l23 23l-23 -23l-11 12v0l-61 60v0l-29 -28v0l-11 -12v0l-23 23v0l12 11v0l40 40v0l11 12v0l11 -12v0l72 -72v0l12 -11v0z" />
</svg>
