<?xml version="1.0" standalone="no"?>
<!DOCTYPE svg PUBLIC "-//W3C//DTD SVG 1.1//EN" "http://www.w3.org/Graphics/SVG/1.1/DTD/svg11.dtd" >
<svg xmlns="http://www.w3.org/2000/svg" xmlns:xlink="http://www.w3.org/1999/xlink" version="1.1" viewBox="-10 -40 660 512">
   <path fill="currentColor"
d="M352 -7v448v-448v448h-96v0v-80v0v-32v0h-32h-96v32v0v80v0h-96v0v-448v0h320v0zM224 441h-64h64h-64v-80v0h64v0v80v0zM32 473h96h-96h352v-32v0v-448v0v-32v0h-32h-352v32v0v448v0v32v0h32v0zM80 57h-16h16h-16v16v0v64v0v16v0h16h80v-16v0v-64v0v-16v0h-16h-64z
M96 121v-32v32v-32h32v0v32v0h-32v0zM224 57v16v-16v16v64v0v16v0h16h80v-16v0v-64v0v-16v0h-16h-80zM256 89h32h-32h32v32v0h-32v0v-32v0zM80 185h-16h16h-16v16v0v64v0v16v0h16h80v-16v0v-64v0v-16v0h-16h-64zM96 249v-32v32v-32h32v0v32v0h-32v0zM224 185v16v-16v16v64v0
v16v0h16h80v-16v0v-64v0v-16v0h-16h-80zM256 217h32h-32h32v32v0h-32v0v-32v0zM640 153h-16h16h-32q-52 2 -80 43q-28 -41 -80 -43h-16h-16v16v0v16v0q1 38 24 64h-8h-16v16v0v16v0q1 38 24 64h-8h-16v16v0v16v0q1 41 28 68t68 28h16h16q41 -1 68 -28t28 -68v-16v0v-16v0
h-16h-8q23 -26 24 -64v-16v0v-16v0h-16h-8q23 -26 24 -64v-16v0v-16v0zM544 249q1 -27 19 -45v0v0q18 -18 45 -19q-1 27 -19 45t-45 19v0v0zM536 281q-4 5 -8 11q-4 -6 -8 -11h8h8zM512 249q-27 -1 -45 -19v0v0q-18 -18 -19 -45q27 1 45 19t19 45v0zM544 345v0v0v0
q1 -27 19 -45t45 -19q-1 27 -19 45t-45 19v0zM528 377h8h-8h8q-4 5 -8 11q-4 -6 -8 -11h8v0zM544 441q1 -27 19 -45v0v0q18 -18 45 -19q-1 27 -19 45t-45 19v0v0zM512 441q-27 -1 -45 -19v0v0q-18 -18 -19 -45q27 1 45 19t19 45v0zM512 345q-27 -1 -45 -19v0v0
q-18 -18 -19 -45q27 1 45 19t19 45v0zM544 -7h-32h32h-32v16v0v112v0v16v0h32v0v-16v0v-112v0v-16v0zM576 57v48v-48v48v16v0h32v0v-16v0v-48v0v-16v0h-32v0v16v0zM448 105v16v-16v16h32v0v-16v0v-48v0v-16v0h-32v0v16v0v48v0z" />
</svg>
