<?xml version="1.0" standalone="no"?>
<!DOCTYPE svg PUBLIC "-//W3C//DTD SVG 1.1//EN" "http://www.w3.org/Graphics/SVG/1.1/DTD/svg11.dtd" >
<svg xmlns="http://www.w3.org/2000/svg" xmlns:xlink="http://www.w3.org/1999/xlink" version="1.1" viewBox="-10 -40 532 512">
   <path fill="currentColor"
d="M313 80l-39 -82l39 82l-39 -82l-18 -37v0l-18 37v0l-25 53v0l-14 29v0l-27 -17v0l-114 -67v0l-58 -35v0l35 58v0l67 114v0l17 27v0l-29 14v0l-53 25v0l-37 18v0l37 18v0l82 39v0l-30 85v0l-14 39v0l39 -14v0l85 -30v0l39 82v0l18 37v0l18 -37v0l39 -82v0l85 30v0l39 14v0
l-14 -39v0l-30 -85v0l82 -39v0l37 -18v0l-37 -18v0l-82 -39v0l30 -85v0l14 -39v0l-39 14v0l-85 30v0zM385 88l-22 62l22 -62l-22 62l-10 27v0l26 12v0l59 28v0l-59 28v0l-25 12v0l9 28v0l22 61v0l-61 -22v0l-28 -10v0l-12 26v0l-28 59v0l-28 -59v0l-12 -25v0l-27 9v0l-62 22
v0l22 -61v0l10 -28v0l-26 -12v0l-59 -28v0l59 -28v0l31 -15v0l-18 -30v0l-54 -91v0l91 54v0l30 18v0l15 -31v0l28 -59v0l28 59v0l12 26v0l28 -10v0l61 -22v0z" />
</svg>
