<?xml version="1.0" standalone="no"?>
<!DOCTYPE svg PUBLIC "-//W3C//DTD SVG 1.1//EN" "http://www.w3.org/Graphics/SVG/1.1/DTD/svg11.dtd" >
<svg xmlns="http://www.w3.org/2000/svg" xmlns:xlink="http://www.w3.org/1999/xlink" version="1.1" viewBox="-10 -40 596 512">
   <path fill="currentColor"
d="M352 153v19v-19v19q15 -8 32 -12v-47v0l-152 -152v0h-200h-32v32v0v448v0v32v0h32h299q-20 -14 -35 -32h-264v0v-448v0h160v0v144v0v16v0h16h144zM347 121h-123h123h-123v-123v0l123 123v0zM320 329q0 -30 15 -56v0v0q15 -26 41 -41t56 -15t56 15t41 41t15 56t-15 56
t-41 41t-56 15t-56 -15t-41 -41t-15 -56v0zM576 329q0 -39 -19 -72v0v0q-19 -33 -53 -53q-34 -19 -72 -19t-72 19q-34 20 -53 53t-19 72t19 72t53 53q34 19 72 19t72 -19q34 -20 53 -53t19 -72v0zM448 409v-32v32v-32h-32v0v32v0h32v0zM368 291v6v-6v6h32v0v-6v0
q1 -9 10 -10h40v0q13 1 14 14q0 8 -7 12l-32 17v0l-9 4v0v10v0v7v0v16v0h32v0v-13v0l24 -12v0q23 -14 24 -41q0 -20 -13 -33t-33 -13h-40v0q-18 0 -30 12t-12 30v0z" />
</svg>
