<?xml version="1.0" standalone="no"?>
<!DOCTYPE svg PUBLIC "-//W3C//DTD SVG 1.1//EN" "http://www.w3.org/Graphics/SVG/1.1/DTD/svg11.dtd" >
<svg xmlns="http://www.w3.org/2000/svg" xmlns:xlink="http://www.w3.org/1999/xlink" version="1.1" viewBox="-10 -40 660 512">
   <path fill="currentColor"
d="M224 -7h32h-32h32v-32v0h-32h-224v32v0h32v0v320v0q1 41 28 68t68 28q17 0 32 -5v-11v0v-14v0l7 -11v0l6 -9v0q-18 17 -45 18q-27 -1 -45 -19t-19 -45v-160v0h128v0v160v0q0 10 -3 19l35 -57v0v-282v0zM64 -7h128h-128h128v128v0h-128v0v-128v0zM304 -39h-16h16h-16v32v0
h16h16v188v0l-126 204v0l-2 4v0v4v0v64v0v16v0h16h432v-16v0v-64v0v-4v0l-2 -4v0l-126 -204v0v-188v0h16h16v-32v0h-16h-224zM480 -7v192v-192v192v5v0l2 3v0l54 88v0h-240v0l54 -88v0l2 -3v0v-5v0v-192v0h128v0zM224 398l52 -85l-52 85l52 -85h280v0l52 85v0v43v0h-384v0
v-43v0z" />
</svg>
