<?xml version="1.0" standalone="no"?>
<!DOCTYPE svg PUBLIC "-//W3C//DTD SVG 1.1//EN" "http://www.w3.org/Graphics/SVG/1.1/DTD/svg11.dtd" >
<svg xmlns="http://www.w3.org/2000/svg" xmlns:xlink="http://www.w3.org/1999/xlink" version="1.1" viewBox="-10 -40 660 512">
   <path fill="currentColor"
d="M336 9q-1 -15 -16 -16q-15 1 -16 16q1 15 16 16q15 -1 16 -16v0zM272 9q1 -27 24 -42q24 -12 48 0q23 15 24 42q-1 27 -24 42q-24 12 -48 0q-23 -15 -24 -42v0zM291 73h59h-59h65l5 5v0l50 50v0l12 12v0l-23 22v0l-11 -11v0l-27 -27v0l6 108v0l1 16v0l-32 2v0l-1 -16v0
l-2 -33v0h-28v0l-2 33v0l-1 16v0l-32 -2v0l1 -16v0l6 -108v0l-27 27v0l-11 11v0l-23 -22v0l12 -12v0l50 -50v0l5 -5v0h6h1zM332 169l-4 -64l4 64l-4 -64h-16v0l-4 64v0h24v0zM112 25h16h-16h16v16v0v185v0l37 -36v0l11 -12v0l11 12v0l133 132v0l133 -132v0l11 -12v0l11 12v0
l37 36v0v-185v0v-16v0h16h112v16v0v304v0v7v0l-5 4v0l-104 104v0l-11 12v0l-23 -23v0l12 -11v0l99 -100v0v-281v0h-64v0v192v0v7v0l-1 1v0l-4 3v0l-8 8v0l-72 72v0l-11 12v0l-5 4v0l-11 12v0l-23 -23v0l12 -11v0l4 -5v0l12 -11v0l60 -61v0l-33 -33v0l-128 128v0v105v0v16v0
h-32v0v-16v0v-105v0l-128 -128v0l-33 33v0l60 61v0v0v0l16 16v0l12 11v0l-23 23v0l-11 -12v0l-16 -16v0v0v0l-72 -72v0l-8 -8v0l-4 -3v0l-1 -1v0v-7v0v-192v0h-64v0v281v0l99 100v0l12 11v0l-23 23v0l-11 -12v0l-104 -104v0l-5 -4v0v-7v0v-304v0v-16v0h16h96z" />
</svg>
