<?xml version="1.0" standalone="no"?>
<!DOCTYPE svg PUBLIC "-//W3C//DTD SVG 1.1//EN" "http://www.w3.org/Graphics/SVG/1.1/DTD/svg11.dtd" >
<svg xmlns="http://www.w3.org/2000/svg" xmlns:xlink="http://www.w3.org/1999/xlink" version="1.1" viewBox="-10 -40 650 512">
   <path fill="currentColor"
d="M144 -7q30 0 56 15v0v0q26 15 41 41t15 56t-15 56t-41 41t-56 15t-56 -15t-41 -41t-15 -56t15 -56t41 -41t56 -15v0zM144 249q39 0 72 -19v0v0q33 -19 53 -53q19 -34 19 -72t-19 -72q-20 -34 -53 -53t-72 -19t-72 19t-53 53q-19 34 -19 72t19 72q20 34 53 53t72 19v0z
M152 26l-23 23l23 -23l-23 23l12 11v0l28 29v0h-89h-16v32v0h16h89l-28 29v0l-12 11v0l23 23v0l11 -12v0l56 -56v0l12 -11v0l-12 -11v0l-56 -56v0l-11 -12v0zM312 51l72 -47l-72 47l72 -47l144 94v0v115v0l4 2v0v0v0v0v0v1q16 11 28 18v-115v0l23 15v0l18 -26v0l-208 -136v0
l-9 -6v0l-9 6v0l-76 50v0q8 14 13 29v0zM224 329q-32 -2 -58 -21q-21 -15 -38 -34q-17 19 -38 34q-26 19 -58 21v32v0q23 0 42 -9q20 -8 34 -18q12 -8 20 -15q8 7 20 15q14 10 34 18q19 9 42 9t42 -9q20 -8 34 -18q12 -8 20 -15q8 7 20 15q14 10 34 18q19 9 42 9t42 -9
q20 -8 34 -18q12 -8 20 -15q8 7 20 15q14 10 34 18q19 9 42 9v-32v0q-32 -2 -58 -21q-21 -15 -38 -34q-17 19 -38 34q-26 19 -58 21q-32 -2 -58 -21q-21 -15 -38 -34q-17 19 -38 34q-26 19 -58 21v0zM166 420q-21 -15 -38 -34q-17 19 -38 34q-26 19 -58 21v32v0q23 0 42 -9
q20 -8 34 -18q12 -8 20 -15q8 7 20 15q14 10 34 18q19 9 42 9t42 -9q20 -8 34 -18q12 -8 20 -15q8 7 20 15q14 10 34 18q19 9 42 9t42 -9q20 -8 34 -18q12 -8 20 -15q8 7 20 15q14 10 34 18q19 9 42 9v-32v0q-32 -2 -58 -21q-21 -15 -38 -34q-17 19 -38 34q-26 19 -58 21
q-32 -2 -58 -21q-21 -15 -38 -34q-17 19 -38 34q-26 19 -58 21q-32 -2 -58 -21v0z" />
</svg>
