<?xml version="1.0" standalone="no"?>
<!DOCTYPE svg PUBLIC "-//W3C//DTD SVG 1.1//EN" "http://www.w3.org/Graphics/SVG/1.1/DTD/svg11.dtd" >
<svg xmlns="http://www.w3.org/2000/svg" xmlns:xlink="http://www.w3.org/1999/xlink" version="1.1" viewBox="-10 -40 660 512">
   <path fill="currentColor"
d="M299 -27l-11 -9l11 9l-11 -9l-11 9v0l-272 240v0l22 24v0l37 -33v0v253v0v16v0h16h304v-32v0h-16v0v-176v0v-16v0h-16h-144v16v0v176v0h-112v0v-265v0l192 -170v0l164 145v0q12 -11 27 -19l-180 -159v0zM336 441h-96h96h-96v-160v0h96v0v160v0zM528 185q20 1 34 14v0v0
q13 14 14 34v48v0h-96v0v-48v0q1 -20 14 -34q14 -13 34 -14v0zM448 233v48v-48v48h-32v0v32v0v128v0v32v0h32h192v-32v0v-128v0v-32v0h-32v0v-48v0q-1 -34 -23 -57q-23 -22 -57 -23q-34 1 -57 23q-22 23 -23 57v0zM448 313h160h-160h160v128v0h-160v0v-128v0z" />
</svg>
