<?xml version="1.0" standalone="no"?>
<!DOCTYPE svg PUBLIC "-//W3C//DTD SVG 1.1//EN" "http://www.w3.org/Graphics/SVG/1.1/DTD/svg11.dtd" >
<svg xmlns="http://www.w3.org/2000/svg" xmlns:xlink="http://www.w3.org/1999/xlink" version="1.1" viewBox="-10 -40 660 512">
   <path fill="currentColor"
d="M480 -23v16v-16v16h128h32v32v0v96v0v32v0h-32h-128v320v0h-32v0v-320v0v-32v0v-96v0v-32v0v-16v0v-16v0h32v0v16v0zM608 121v-96v96v-96h-128v0v96v0h128v0zM282 -4l134 101l-134 -101l134 101v40v0l-144 -108v0l-176 132v0v280v0h312v0q4 0 8 -1v33v0h-8h-328h-16v-16
v0v-272v0l-38 29v0l-20 -26v0l256 -192v0l10 -7v0l10 7v0zM240 137h64h-64h80v16v0v48v0h48h16v16v0v64v0v16v0h-16h-48v48v0v16v0h-16h-80v-16v0v-48v0h-48h-16v-16v0v-64v0v-16v0h16h48v-48v0v-16v0h16v0zM256 217v16v-16v16h-16h-48v32v0h48h16v16v0v48v0h32v0v-48v0v-16
v0h16h48v-32v0h-48h-16v-16v0v-48v0h-32v0v48v0z" />
</svg>
