<?xml version="1.0" standalone="no"?>
<!DOCTYPE svg PUBLIC "-//W3C//DTD SVG 1.1//EN" "http://www.w3.org/Graphics/SVG/1.1/DTD/svg11.dtd" >
<svg xmlns="http://www.w3.org/2000/svg" xmlns:xlink="http://www.w3.org/1999/xlink" version="1.1" viewBox="-10 -40 340 512">
   <path fill="currentColor"
d="M272 -39v32v-32v32h-224v0v-32v0h224v0zM32 57v96v-96v96h256v0v-96v0h-256v0zM32 185v128v-128v128h256v0v-128v0h-256v0zM32 345v96v-96v96h256v0v-96v0h-256v0zM0 25h32h-32h320v32v0v384v0v32v0h-32h-288v-32v0v-384v0v-32v0z" />
</svg>
