<?xml version="1.0" standalone="no"?>
<!DOCTYPE svg PUBLIC "-//W3C//DTD SVG 1.1//EN" "http://www.w3.org/Graphics/SVG/1.1/DTD/svg11.dtd" >
<svg xmlns="http://www.w3.org/2000/svg" xmlns:xlink="http://www.w3.org/1999/xlink" version="1.1" viewBox="-10 -40 532 512">
   <path fill="currentColor"
d="M248 -39h-10h10h-10l-5 10v0l-56 128v0l-1 3v0v3v0v66v0v0v0l-144 89v0v-27v0v-16v0h-32v0v16v0v56v0v40v0v32v0v16v0h32v0v-16v0v-16v0h144v0v3v0l-45 64v0l-3 4v0v5v0v36v0v16v0h16h240v-16v0v-36v0v-5v0l-3 -4v0l-45 -64v0v-3v0h144v0v16v0v16v0h32v0v-16v0v-32v0v-40
v0v-56v0v-16v0h-32v0v16v0v27v0l-144 -89v0v0v0v-66v0v-3v0l-1 -3v0l-56 -128v0l-4 -10v0h-11h-16zM32 298l144 -89l-144 89l144 -89v104v0h-144v0v-15v0zM336 209l144 89l-144 -89l144 89v15v0h-144v0v-104v0zM208 108l48 -109l-48 109l48 -109l48 109v0v245v0v5v0l3 4v0
l45 64v0v15v0h-80v0v-48v0v-16v0h-32v0v16v0v48v0h-80v0v-15v0l45 -64v0l3 -4v0v-5v0v-245v0z" />
</svg>
