<?xml version="1.0" standalone="no"?>
<!DOCTYPE svg PUBLIC "-//W3C//DTD SVG 1.1//EN" "http://www.w3.org/Graphics/SVG/1.1/DTD/svg11.dtd" >
<svg xmlns="http://www.w3.org/2000/svg" xmlns:xlink="http://www.w3.org/1999/xlink" version="1.1" viewBox="-10 -40 586 512">
   <path fill="currentColor"
d="M144 217q30 0 56 -15v0v0q26 -15 41 -41t15 -56t-15 -56t-41 -41t-56 -15t-56 15t-41 41t-15 56t15 56t41 41t56 15v0zM287 121q-7 55 -47 91v0v0q-39 36 -96 37q-61 -2 -102 -42q-40 -41 -42 -102q2 -61 42 -102q41 -40 102 -42q57 1 96 37q40 36 47 91h65v0v-32v0h32
h160v32v0v32v0v32v0h-32h-160v-32v0h-65v0zM288 281h32h-32h32v-48v0v-16v0h16h144v16v0v48v0h32h32v32v0h-32v0v128v0v32v0h-32h-192v-32v0v-128v0h-32v0v-32v0h32v0zM352 281h96h-96h96v-32v0h-96v0v32v0zM480 313h-160h160h-160v128v0h160v0v-128v0zM512 89h-128h128
h-128v32v0h128v0v-32v0zM192 105q-1 -27 -24 -42q-24 -12 -48 0q-23 15 -24 42q1 27 24 42q24 12 48 0q23 -15 24 -42v0zM64 105q1 -45 40 -69q40 -22 80 0q39 24 40 69q-1 45 -40 69q-40 22 -80 0q-39 -24 -40 -69v0zM0 441h224h-224h224v32v0h-224v0v-32v0zM160 313v32
v-32v32h16v0q15 -1 16 -16q-1 -15 -16 -16h-16v0zM176 377h-16h16h-16v32v0h-32h-96v-32v0v-64v0v-32v0h32h112q20 1 34 14q13 14 14 34q-1 20 -14 34q-14 13 -34 14v0zM64 313v64v-64v64h64v0v-32v0v-32v0h-64v0z" />
</svg>
