<?xml version="1.0" standalone="no"?>
<!DOCTYPE svg PUBLIC "-//W3C//DTD SVG 1.1//EN" "http://www.w3.org/Graphics/SVG/1.1/DTD/svg11.dtd" >
<svg xmlns="http://www.w3.org/2000/svg" xmlns:xlink="http://www.w3.org/1999/xlink" version="1.1" viewBox="-10 -40 660 512">
   <path fill="currentColor"
d="M480 -7h-384h384h-384v256v0h224v0v32v0h-224h-64v3v0l29 29v0h259v0v32v0h-272v0l-48 -48v0v-16v0v-32v0h32h32v-256v0v-32v0h32h416v32v0v64v0h-32v0v-64v0zM480 121h-96h96h-96v320v0h224v0v-192v0h-112h-16v-16v0v-112v0zM512 121v96v-96v96h96v0v-3v0l-93 -93v0h-3
v0zM528 89l112 112l-112 -112l112 112v240v0v32v0h-32h-256v-32v0v-320v0v-32v0h32h144z" />
</svg>
