<?xml version="1.0" standalone="no"?>
<!DOCTYPE svg PUBLIC "-//W3C//DTD SVG 1.1//EN" "http://www.w3.org/Graphics/SVG/1.1/DTD/svg11.dtd" >
<svg xmlns="http://www.w3.org/2000/svg" xmlns:xlink="http://www.w3.org/1999/xlink" version="1.1" viewBox="-10 -40 458 512">
   <path fill="currentColor"
d="M200 17q2 -22 24 -24q22 2 24 24q-2 22 -24 24q-22 -2 -24 -24v0zM280 17q-1 -32 -28 -48q-28 -16 -56 0q-27 16 -28 48q1 32 28 48q28 16 56 0q27 -16 28 -48v0zM125 89h-10h10h-10l-4 9v0l-77 144v0l28 15v0l50 -94v0v294v0v16v0h32v0v-16v0v-144v0h64v0v144v0v16v0h32
v0v-16v0v-312v0l84 98v0l24 -20v0l-109 -128v0l-5 -6v0h-7h-102zM208 121v160v-160v160h-64v0v-160v0h64v0zM368 313q15 1 16 16v128v0v16v0h32v0v-16v0v-128v0q-1 -20 -14 -34q-14 -13 -34 -14q-20 1 -34 14q-13 14 -14 34v8v0v16v0h32v0v-16v0v-8v0q1 -15 16 -16v0z" />
</svg>
