<?xml version="1.0" standalone="no"?>
<!DOCTYPE svg PUBLIC "-//W3C//DTD SVG 1.1//EN" "http://www.w3.org/Graphics/SVG/1.1/DTD/svg11.dtd" >
<svg xmlns="http://www.w3.org/2000/svg" xmlns:xlink="http://www.w3.org/1999/xlink" version="1.1" viewBox="-10 -40 596 512">
   <path fill="currentColor"
d="M160 41q22 -2 24 -24q-2 -22 -24 -24q-22 2 -24 24q2 22 24 24v0zM160 -39q32 1 48 28q16 28 0 56q-16 27 -48 28q-32 -1 -48 -28q-16 -28 0 -56q16 -27 48 -28v0zM99 89h10h-10h122l4 9v0l67 124v0q-11 15 -19 32l-49 -91v0v294v0v16v0h-32v0v-16v0v-144v0h-64v0v144v0
v16v0h-32v0v-16v0v-294v0l-50 94v0l-7 14v0l-29 -15v0l8 -14v0l77 -144v0l4 -9v0zM128 281h64h-64h64v-160v0h-64v0v160v0zM432 441q30 0 56 -15v0v0q26 -15 41 -41t15 -56t-15 -56t-41 -41t-56 -15t-56 15t-41 41t-15 56t15 56t41 41t56 15v0zM432 185q39 0 72 19v0v0
q33 19 53 53q19 34 19 72t-19 72q-20 34 -53 53t-72 19t-72 -19t-53 -53q-19 -34 -19 -72t19 -72q20 -34 53 -53t72 -19v0zM512 345h-16h16h-160v-32v0h16h144v32v0z" />
</svg>
