<?xml version="1.0" standalone="no"?>
<!DOCTYPE svg PUBLIC "-//W3C//DTD SVG 1.1//EN" "http://www.w3.org/Graphics/SVG/1.1/DTD/svg11.dtd" >
<svg xmlns="http://www.w3.org/2000/svg" xmlns:xlink="http://www.w3.org/1999/xlink" version="1.1" viewBox="-10 -40 596 512">
   <path fill="currentColor"
d="M168 17q2 -22 24 -24q22 2 24 24q-2 22 -24 24q-22 -2 -24 -24v0zM248 17q-1 -32 -28 -48q-28 -16 -56 0q-27 16 -28 48q1 32 28 48q28 16 56 0q27 -16 28 -48v0zM93 89h-10h10h-10l-4 9v0l-77 144v0l28 15v0l50 -94v0v294v0v16v0h32v0v-16v0v-144v0h64v0v144v0v16v0h32
v0v-16v0v-312v0l84 98v0l24 -20v0l-109 -128v0l-5 -6v0h-7h-102zM112 281v-160v160v-160h64v0v160v0h-64v0zM304 -7h-16h16h-16v32v0h16h72v-32v0h-16h-56zM432 185q22 2 24 24q-2 22 -24 24q-22 -2 -24 -24q2 -22 24 -24v0zM432 265q32 -1 48 -28q16 -28 0 -56
q-16 -27 -48 -28q-32 1 -48 28q-16 28 0 56q16 27 48 28v0zM512 249h-7h7h-7l-4 5v0l-32 32v0l-5 4v0v7v0v104v0l-51 -66v0l-27 2v0l-64 112v0l28 16v0l52 -91v0l54 68v0q25 30 64 31q24 -1 40 -16q15 -16 16 -40v-152v0v-16v0h-16h-48zM520 441q-22 -2 -24 -24v-113v0
l23 -23v0h25v0v136v0q-2 22 -24 24v0zM273 52l-14 28l14 -28l-14 28l14 7v0l48 24v0l14 7v0l14 -28v0l-14 -7v0l-48 -24v0l-14 -8v1z" />
</svg>
