<?xml version="1.0" standalone="no"?>
<!DOCTYPE svg PUBLIC "-//W3C//DTD SVG 1.1//EN" "http://www.w3.org/Graphics/SVG/1.1/DTD/svg11.dtd" >
<svg xmlns="http://www.w3.org/2000/svg" xmlns:xlink="http://www.w3.org/1999/xlink" version="1.1" viewBox="-10 -40 586 512">
   <path fill="currentColor"
d="M256 20v5v-5v5v0v0h128v0v0v0v-26v0l-128 21v0zM398 57q2 8 2 16q-1 34 -23 57q-23 22 -57 23q-34 -1 -57 -23q-22 -23 -23 -57q0 -8 2 -16h-18v0v-32v0v-32v0l160 -27v0l32 -5v0v32v0v32v0v32v0h-18v0zM365 57h-90h90h-90q-3 8 -3 16q1 20 14 34q14 13 34 14
q20 -1 34 -14q13 -14 14 -34q0 -8 -3 -16v0zM32 185h16h-16h386l4 9v0l112 224v0l8 14v0l-29 14v0l-7 -14v0l-90 -179v0v188v0v32v0h-32h-160v-32v0v-48v0v0v0v-176v0h-176h-16v-32v0zM256 441h128h-128h128v-32v0h-128v0v32v0zM384 242l-110 135l110 -135l-110 135h110v0
v-135v0zM256 217v131v-131v131l107 -131v0h-107v0z" />
</svg>
