<?xml version="1.0" standalone="no"?>
<!DOCTYPE svg PUBLIC "-//W3C//DTD SVG 1.1//EN" "http://www.w3.org/Graphics/SVG/1.1/DTD/svg11.dtd" >
<svg xmlns="http://www.w3.org/2000/svg" xmlns:xlink="http://www.w3.org/1999/xlink" version="1.1" viewBox="-10 -40 660 512">
   <path fill="currentColor"
d="M256 -39q-20 1 -35 13q-14 12 -24 29q-20 34 -21 68v44v0l-168 96v0l-8 5v0v9v0v96v0v22v0l21 -7v0l155 -50v0v51v0l-58 43v0l-6 5v0v8v0v64v0v16v0h16h18l2 -1v0l108 -30v0l108 30v0l2 1v0h2h27q-22 -15 -38 -36l-96 -27v0l-5 -2v0l-4 2v0l-108 30v0v-39v0l58 -43v0
l6 -5v0v-8v0v-81v0v-21v0l-21 6v0l-155 50v0v-65v0l168 -96v0l8 -4v0v-10v0v-53v0q0 -23 17 -52q8 -13 16 -20q9 -6 15 -6q15 0 32 26q16 29 16 52v61v0v10v0l8 4v0l76 44v0q15 -11 31 -19l-83 -48v0v-52v0q-1 -34 -21 -68q-9 -16 -24 -29q-15 -12 -35 -13v0zM384 329
q0 -30 15 -56v0v0q15 -26 41 -41t56 -15t56 15t41 41t15 56t-15 56t-41 41t-56 15t-56 -15t-41 -41t-15 -56v0zM640 329q0 -39 -19 -72v0v0q-19 -33 -53 -53q-34 -19 -72 -19t-72 19q-34 20 -53 53t-19 72t19 72t53 53q34 19 72 19t72 -19q34 -20 53 -53t19 -72v0zM512 409
v-32v32v-32h-32v0v32v0h32v0zM512 249h-32h32h-32v16v0v80v0v16v0h32v0v-16v0v-80v0v-16v0z" />
</svg>
