<?xml version="1.0" standalone="no"?>
<!DOCTYPE svg PUBLIC "-//W3C//DTD SVG 1.1//EN" "http://www.w3.org/Graphics/SVG/1.1/DTD/svg11.dtd" >
<svg xmlns="http://www.w3.org/2000/svg" xmlns:xlink="http://www.w3.org/1999/xlink" version="1.1" viewBox="-10 -40 660 512">
   <path fill="currentColor"
d="M256 -39q-20 1 -35 13q-14 12 -24 29q-20 34 -21 68v44v0l-168 96v0l-8 5v0v9v0v96v0v22v0l21 -7v0l155 -50v0v51v0l-58 43v0l-6 5v0v8v0v64v0v16v0h16h18l2 -1v0l108 -30v0l108 30v0l2 1v0h2v0v-33v0l-108 -30v0l-4 -2v0l-4 2v0l-108 30v0v-39v0l58 -43v0l6 -5v0v-8v0
v-81v0v-21v0l-21 6v0l-155 50v0v-65v0l168 -96v0l8 -4v0v-10v0v-53v0q0 -23 17 -52q8 -13 16 -20q9 -6 15 -6q15 0 32 26q16 29 16 52v61v0v10v0l8 4v0l107 61v0q4 -16 12 -30l-95 -54v0v-52v0q-1 -34 -21 -68q-9 -16 -24 -29q-15 -12 -35 -13v0zM336 337v-48v48v-48l48 17
v0v-34v0l-59 -21v0l-21 -8v0v23v0v79v0v8v0l6 5v0l58 43v0v-40v0l-32 -24v0zM528 185q20 1 34 14v0v0q13 14 14 34v48v0h-96v0v-48v0q1 -20 14 -34q14 -13 34 -14v0zM448 233v48v-48v48h-32v0v32v0v128v0v32v0h32h192v-32v0v-128v0v-32v0h-32v0v-48v0q-1 -34 -23 -57
q-23 -22 -57 -23q-34 1 -57 23q-22 23 -23 57v0zM448 313h160h-160h160v128v0h-160v0v-128v0z" />
</svg>
