<?xml version="1.0" standalone="no"?>
<!DOCTYPE svg PUBLIC "-//W3C//DTD SVG 1.1//EN" "http://www.w3.org/Graphics/SVG/1.1/DTD/svg11.dtd" >
<svg xmlns="http://www.w3.org/2000/svg" xmlns:xlink="http://www.w3.org/1999/xlink" version="1.1" viewBox="-10 -40 596 512">
   <path fill="currentColor"
d="M128 -23v-16v16v-16h-32v0v16v0v96v0h32v0v-96v0zM288 -23v-16v16v-16h-32v0v16v0v96v0h32v0v-96v0zM16 105h-16h16h-16v32v0h16h16v64v0q1 64 42 108q40 44 102 51v97v0v16v0h32v0v-16v0v-97v0q26 -3 49 -13q-1 -9 -1 -18t1 -18q-29 18 -65 18q-54 -1 -91 -37
q-36 -37 -37 -91v-64v0h256v0v56v0q15 -12 32 -21v-35v0h16h16v-32v0h-16h-352zM320 329q0 -30 15 -56v0v0q15 -26 41 -41t56 -15t56 15t41 41t15 56t-15 56t-41 41t-56 15t-56 -15t-41 -41t-15 -56v0zM576 329q0 -39 -19 -72v0v0q-19 -33 -53 -53q-34 -19 -72 -19t-72 19
q-34 20 -53 53t-19 72t19 72t53 53q34 19 72 19t72 -19q34 -20 53 -53t19 -72v0zM491 292l12 -11l-12 11l12 -11l-23 -23v0l-11 12v0l-37 36v0l-37 -36v0l-11 -12v0l-23 23v0l12 11v0l36 37v0l-36 37v0l-12 11v0l23 23v0l11 -12v0l37 -36v0l37 36v0l11 12v0l23 -23v0
l-12 -11v0l-36 -37v0l36 -37v0z" />
</svg>
