<?xml version="1.0" standalone="no"?>
<!DOCTYPE svg PUBLIC "-//W3C//DTD SVG 1.1//EN" "http://www.w3.org/Graphics/SVG/1.1/DTD/svg11.dtd" >
<svg xmlns="http://www.w3.org/2000/svg" xmlns:xlink="http://www.w3.org/1999/xlink" version="1.1" viewBox="-10 -40 660 512">
   <path fill="currentColor"
d="M184 25l-110 384l110 -384l-110 384h265v0q9 17 21 32h-295h-33l9 -32v0l119 -416v0h144h176l47 163v0q-15 -3 -31 -3h-2h-2l-36 -128v0h-120v0v48v0v16v0h-32v0v-16v0v-48v0h-120v0zM327 281h-23h23h-23v-16v0v-96v0v-16v0h32v0v16v0v87v0q-6 12 -9 25v0zM608 329
q0 -30 -15 -56v0v0q-15 -26 -41 -41t-56 -15t-56 15t-41 41t-15 56t15 56t41 41t56 15t56 -15t41 -41t15 -56v0zM352 329q0 -39 19 -72v0v0q19 -33 53 -53q34 -19 72 -19t72 19q34 20 53 53t19 72t-19 72t-53 53q-34 19 -72 19t-72 -19q-34 -20 -53 -53t-19 -72v0zM512 409
h-32h32h-32v-32v0h32v0v32v0zM512 249v16v-16v16v80v0v16v0h-32v0v-16v0v-80v0v-16v0h32v0z" />
</svg>
