<?xml version="1.0" standalone="no"?>
<!DOCTYPE svg PUBLIC "-//W3C//DTD SVG 1.1//EN" "http://www.w3.org/Graphics/SVG/1.1/DTD/svg11.dtd" >
<svg xmlns="http://www.w3.org/2000/svg" xmlns:xlink="http://www.w3.org/1999/xlink" version="1.1" viewBox="-10 -40 660 512">
   <path fill="currentColor"
d="M160 57h-128h128h-160v32v0v352v0v32v0h32h363q-20 -14 -35 -32h-8h-64v-96v0q0 -14 9 -23t23 -9h1v0q1 -16 6 -32h-7q-27 1 -45 19t-19 45v96v0h-224v0v-352v0h128v0q9 0 17 -5l143 -86v0l144 86v0q7 5 16 5h128v0v104v0q18 15 32 35v-139v0v-32v0h-32h-128l-160 -96v0
l-160 96v0zM340 247q26 -48 74 -74q2 -9 2 -20q-1 -41 -28 -68t-68 -28q-41 1 -68 28t-28 68q1 41 28 68t68 28q11 0 20 -2v0zM112 121h-16h16h-16v16v0v96v0v16v0h16h80v-16v0v-96v0v-16v0h-16h-64zM128 217v-64v64v-64h32v0v64v0h-32v0zM96 281v16v-16v16v96v0v16v0h16h80
v-16v0v-96v0v-16v0h-16h-80zM128 313h32h-32h32v64v0h-32v0v-64v0zM320 89q36 1 55 32q18 32 0 64q-19 31 -55 32q-36 -1 -55 -32q-18 -32 0 -64q19 -31 55 -32v0zM336 121v-16v16v-16h-32v0v16v0v32v0v16v0h16h40v-32v0h-16h-8v-16v0zM384 329q0 -30 15 -56v0v0
q15 -26 41 -41t56 -15t56 15t41 41t15 56t-15 56t-41 41t-56 15t-56 -15t-41 -41t-15 -56v0zM640 329q0 -39 -19 -72v0v0q-19 -33 -53 -53q-34 -19 -72 -19t-72 19q-34 20 -53 53t-19 72t19 72t53 53q34 19 72 19t72 -19q34 -20 53 -53t19 -72v0zM512 249h-32h32h-32v16v0
v80v0v16v0h32v0v-16v0v-80v0v-16v0zM512 409v-32v32v-32h-32v0v32v0h32v0z" />
</svg>
