<?xml version="1.0" standalone="no"?>
<!DOCTYPE svg PUBLIC "-//W3C//DTD SVG 1.1//EN" "http://www.w3.org/Graphics/SVG/1.1/DTD/svg11.dtd" >
<svg xmlns="http://www.w3.org/2000/svg" xmlns:xlink="http://www.w3.org/1999/xlink" version="1.1" viewBox="-10 -40 468 512">
   <path fill="currentColor"
d="M32 25v384v-384v384h384v0v-384v0h-384v0zM0 -7h32h-32h448v32v0v384v0v32v0h-32h-416v-32v0v-384v0v-32v0zM296 153h40h-40h56v16v0v152v0q-1 24 -16 40q-16 15 -40 16q-39 -1 -64 -31l-54 -68v0l-52 91v0l-8 14v0l-28 -16v0l8 -14v0l64 -112v0l27 -2v0l51 66v0v-96v0
v-7v0l5 -4v0l40 -40v0l4 -5v0h7v0zM320 321v-136v136v-136h-17v0l-31 31v0v105v0q2 22 24 24q22 -2 24 -24v0zM232 113q-2 -22 -24 -24q-22 2 -24 24q2 22 24 24q22 -2 24 -24v0zM152 113q1 -32 28 -48q28 -16 56 0q27 16 28 48q-1 32 -28 48q-28 16 -56 0q-27 -16 -28 -48
v0z" />
</svg>
