<?xml version="1.0" standalone="no"?>
<!DOCTYPE svg PUBLIC "-//W3C//DTD SVG 1.1//EN" "http://www.w3.org/Graphics/SVG/1.1/DTD/svg11.dtd" >
<svg xmlns="http://www.w3.org/2000/svg" xmlns:xlink="http://www.w3.org/1999/xlink" version="1.1" viewBox="-10 -40 404 512">
   <path fill="currentColor"
d="M208 -39h-32h32h-32v48v0h-56h-56q-27 1 -45 19t-19 45v32v0v32v0h32h48q27 -1 45 -19t19 -45v-32v0h32v0v112v0v32v0v64v0h-48v0q-14 0 -23 -9t-9 -23t9 -23t23 -9h16v0v-32v0h-16v0q-27 1 -45 19t-19 45q1 27 19 45t45 19h48v0v96v0h-64h-16v32v0h16h64v64v0h32v0v-64
v0v-32v0v-96v0h32v0q20 1 34 14q13 14 14 34q-1 20 -14 34q-14 13 -34 14v32v0q34 -1 57 -23q22 -23 23 -57q-1 -34 -23 -57q-23 -22 -57 -23h-32v0v-64v0v-32v0v-112v0h88v0q24 1 40 16q15 16 16 40q-1 24 -16 40q-16 15 -40 16h-56v0v32v0h56v0q37 -1 62 -26t26 -62
q-1 -37 -26 -62t-62 -26h-88v0v-48v0zM112 41v32v-32v32q0 14 -9 23t-23 9h-48v0v-32v0q0 -14 9 -23t23 -9h8h40zM72 81q15 -1 16 -16q-1 -15 -16 -16q-15 1 -16 16q1 15 16 16v0z" />
</svg>
