<?xml version="1.0" standalone="no"?>
<!DOCTYPE svg PUBLIC "-//W3C//DTD SVG 1.1//EN" "http://www.w3.org/Graphics/SVG/1.1/DTD/svg11.dtd" >
<svg xmlns="http://www.w3.org/2000/svg" xmlns:xlink="http://www.w3.org/1999/xlink" version="1.1" viewBox="-10 -40 596 512">
   <path fill="currentColor"
d="M32 377v-320v320v-320h512v0v160v0h-144h-16v16v0v144v0h-352v0zM419 377h-3h3h-3v-128v0h128v0v3v0l-125 125v0zM576 265v-208v208v-208v-32v0h-32h-544v32v0v320v0v32v0h32h400l144 -144v0zM96 145q22 -2 24 -24q-2 -22 -24 -24q-22 2 -24 24q2 22 24 24v0z" />
</svg>
