<?xml version="1.0" standalone="no"?>
<!DOCTYPE svg PUBLIC "-//W3C//DTD SVG 1.1//EN" "http://www.w3.org/Graphics/SVG/1.1/DTD/svg11.dtd" >
<svg xmlns="http://www.w3.org/2000/svg" xmlns:xlink="http://www.w3.org/1999/xlink" version="1.1" viewBox="-10 -40 660 512">
   <path fill="currentColor"
d="M115 89q1 -14 10 -23v0v0q9 -9 22 -9q14 0 23 9t9 23t-9 23t-23 9q-13 0 -22 -9t-10 -23v0zM211 89q-1 -36 -32 -55q-32 -18 -64 0q-31 19 -32 55q1 36 32 55q32 18 64 0q31 -19 32 -55v0zM467 89q1 -14 10 -23v0v0q9 -9 22 -9q14 0 23 9t9 23t-9 23t-23 9q-13 0 -22 -9
t-10 -23v0zM563 89q-1 -36 -32 -55q-32 -18 -64 0q-31 19 -32 55q1 36 32 55q32 18 64 0q31 -19 32 -55v0zM222 313l24 -64l-24 64l24 -64h148v0l24 64v0h-196v0zM416 217h-192h192h-192l-36 96v0l-12 32v0h34h254l-12 -32v0l-36 -96v0zM274 105q0 -27 24 -42q24 -12 48 0
q23 15 24 42q-1 27 -24 42q-24 12 -48 0q-24 -15 -24 -42v0zM402 105q-2 -45 -40 -69q-40 -22 -80 0q-39 24 -40 69q1 45 40 69q40 22 80 0q38 -24 40 -69v0zM87 217h103h-103h103l4 -11v0l8 -21v0h-138v0l-32 96v0h34v0l21 -64v0zM450 217h103h-103h103l21 64v0h34v0
l-32 -96v0h-138v0l8 21v0l4 11v0zM16 409q-15 1 -16 16q1 15 16 16h608v0q15 -1 16 -16q-1 -15 -16 -16h-608v0z" />
</svg>
