<?xml version="1.0" standalone="no"?>
<!DOCTYPE svg PUBLIC "-//W3C//DTD SVG 1.1//EN" "http://www.w3.org/Graphics/SVG/1.1/DTD/svg11.dtd" >
<svg xmlns="http://www.w3.org/2000/svg" xmlns:xlink="http://www.w3.org/1999/xlink" version="1.1" viewBox="-10 -40 532 512">
   <path fill="currentColor"
d="M16 -7h-16h16h-16v32v0h16h16v320v0q1 41 28 68t68 28q35 -1 60 -21l-11 -11v0l22 -22v0l17 -17v0v-1v0v0v0v0v0v0v0v0v0v0v0v0v0v0v0h-24h-5q-7 18 -23 29t-36 11q-27 -1 -45 -19t-19 -45v-160v0h128v0v17v0l7 -8v0l17 -17v0l8 -8v0v-144v0h16h16v-32v0h-16h-224z
M192 153h-128h128h-128v-128v0h128v0v128v0zM320 305q22 -2 24 -24q-2 -22 -24 -24q-22 2 -24 24q2 22 24 24v0zM384 369q22 -2 24 -24q-2 -22 -24 -24q-22 2 -24 24q2 22 24 24v0zM216 289h-24h24h-24v48v0h24v0q22 2 30 20q7 18 -7 35l-17 17v0l34 34v0l17 -17v0
q17 -15 35 -7t20 30v0v0v24v0h48v0v-24v0q2 -22 20 -30q18 -7 35 7l17 17v0l34 -34v0l-17 -17v0q-14 -17 -7 -35q8 -18 30 -20h24v0v-48v0h-24v0q-22 -2 -30 -20t7 -35l17 -17v0l-34 -34v0l-17 17v0q-17 14 -35 7q-18 -8 -20 -30v-24v0h-48v0v24v0v0v0q-2 22 -20 30
q-18 7 -35 -7l-17 -17v0l-34 34v0l17 17v0q15 17 7 35t-30 20v0zM248 313q19 -11 27 -32v0v0q9 -20 3 -42q22 6 42 -3q21 -8 32 -27q11 19 32 28q20 8 42 2q-6 22 3 42q8 21 28 32q-20 11 -28 32q-9 20 -3 42q-22 -6 -42 3q-21 8 -32 28q-11 -20 -32 -28q-20 -9 -42 -3
q6 -22 -3 -42q-8 -21 -27 -32v0z" />
</svg>
