<?xml version="1.0" standalone="no"?>
<!DOCTYPE svg PUBLIC "-//W3C//DTD SVG 1.1//EN" "http://www.w3.org/Graphics/SVG/1.1/DTD/svg11.dtd" >
<svg xmlns="http://www.w3.org/2000/svg" xmlns:xlink="http://www.w3.org/1999/xlink" version="1.1" viewBox="-10 -40 660 512">
   <path fill="currentColor"
d="M78 372l-73 74l73 -74l-73 74l22 22v0l74 -73v0v0v0l34 34v0q29 28 68 28q38 0 68 -28l22 -23v0l23 -23v0l-18 -17v0q13 -1 25 -5q-3 -15 -3 -32v-1v0q-18 8 -38 5q-19 -3 -34 -18l-34 -33v0q25 -24 57 -28t60 13q7 -18 17 -34q-5 -3 -10 -8l-34 -34v0q24 -22 53 -27
q30 -4 58 9q17 -9 37 -14l-8 -6l47 -47v0l11 -11v0l-22 -23v0l-12 12v0l-54 54v0q-24 -8 -50 -7l127 -127v0l-23 -22v0l-126 127v0q1 -26 -7 -50l54 -55v0l12 -11v0l-23 -23v0l-11 12v0l-47 47v0q-7 -10 -16 -19l-11 -11v0l-22 -23v0l-23 23v0l-23 22v0q-26 28 -28 63
l-17 -17v0l-23 22v0l-22 23v0q-26 27 -28 62l-17 -17v0l-23 23v0l-23 22v0q-28 30 -28 68q0 39 28 68l34 34v0v0v0zM192 259h-1h1h-1l-34 -34v0q-18 -20 -18 -45q0 -26 18 -46l23 -22v0l11 11v0q28 30 28 68q1 38 -27 68v0zM271 21l11 12l-11 -12l11 12q28 29 28 67
q0 39 -28 68l-34 -34v0q-19 -19 -19 -45q0 -25 19 -45l23 -23v0zM101 214q28 29 28 67v0v0q0 39 -28 68l-34 -34v0q-19 -19 -19 -45q0 -25 19 -45l23 -23v0l11 12v0zM259 372l12 11l-12 -11l12 11l-23 23v0q-20 19 -45 19q-26 0 -46 -19l-33 -34v0q29 -28 67 -28q39 0 68 28
v0zM384 329q0 -30 15 -56v0v0q15 -26 41 -41t56 -15t56 15t41 41t15 56t-15 56t-41 41t-56 15t-56 -15t-41 -41t-15 -56v0zM640 329q0 -39 -19 -72v0v0q-19 -33 -53 -53q-34 -19 -72 -19t-72 19q-34 20 -53 53t-19 72t19 72t53 53q34 19 72 19t72 -19q34 -20 53 -53t19 -72
v0zM512 409v-32v32v-32h-32v0v32v0h32v0zM512 249h-32h32h-32v16v0v80v0v16v0h32v0v-16v0v-80v0v-16v0z" />
</svg>
