<?xml version="1.0" standalone="no"?>
<!DOCTYPE svg PUBLIC "-//W3C//DTD SVG 1.1//EN" "http://www.w3.org/Graphics/SVG/1.1/DTD/svg11.dtd" >
<svg xmlns="http://www.w3.org/2000/svg" xmlns:xlink="http://www.w3.org/1999/xlink" version="1.1" viewBox="-10 -40 394 512">
   <path fill="currentColor"
d="M224 25q0 -14 -9 -23v0v0q-9 -9 -23 -9t-23 9t-9 23t9 23t23 9t23 -9t9 -23v0zM128 25q1 -36 32 -55q32 -18 64 0q31 19 32 55q-1 36 -32 55q-32 18 -64 0q-31 -19 -32 -55v0zM112 153h-9h9h-19l-4 -8v0l-47 -80v0l-8 -14v0l28 -16v0l8 14v0l42 72v0h159v0l43 -72v0
l9 -14v0l27 17v0l-8 13v0l-48 80v0l-5 8v0h-9h-8v304v0v16v0h-32v0v-16v0v-112v0h-96v0v112v0v16v0h-32v0v-16v0v-304v0zM144 153v160v-160v160h96v0v-160v0h-96v0z" />
</svg>
