<?xml version="1.0" standalone="no"?>
<!DOCTYPE svg PUBLIC "-//W3C//DTD SVG 1.1//EN" "http://www.w3.org/Graphics/SVG/1.1/DTD/svg11.dtd" >
<svg xmlns="http://www.w3.org/2000/svg" xmlns:xlink="http://www.w3.org/1999/xlink" version="1.1" viewBox="-10 -40 597 512">
   <path fill="currentColor"
d="M416 25h-384h384h-384v32v0q2 82 56 136t136 56h12q-6 15 -9 32h-2h-1q-30 0 -58 -7l-26 57v0q7 6 11 14h76v0q2 16 8 32h-75v0q-1 27 -19 45t-45 19q-27 -1 -45 -19t-19 -45q1 -27 19 -45t45 -19q9 0 16 2l24 -52v0q-61 -27 -98 -81q-37 -55 -38 -125v-32v0v-32v0h32
h416v32v0v32v0q0 37 -11 71l-26 -26v0q5 -22 5 -45v-32v0zM96 345q-14 0 -23 9v0v0q-9 9 -9 23t9 23t23 9t23 -9t9 -23t-9 -23t-23 -9v0zM425 162l23 23l-23 -23l23 23l23 -23v0l9 -9v0q56 49 77 94q20 44 19 66q-2 65 -44 110t-107 50h-9h-9q-65 -5 -107 -50t-44 -110
q1 -45 24 -84q22 -38 52 -66q29 -28 52 -42l41 41v0zM416 441h7q26 -3 41 -20q16 -16 16 -37q-2 -35 -39 -72q-14 -13 -25 -23q-11 9 -25 23q-37 37 -39 72q0 21 16 37q15 17 41 20h7v0zM512 384q0 8 -1 15q32 -35 33 -86q1 -12 -12 -44t-51 -72l-10 11v0l-23 22v0l-23 -22
v0l-45 -45v0q-25 19 -51 50q-39 47 -41 100q1 51 34 86q-2 -7 -2 -15q2 -36 25 -67q23 -30 46 -49q23 -18 25 -19v0q2 1 25 19q23 19 46 49q23 31 25 67v0z" />
</svg>
