<?xml version="1.0" standalone="no"?>
<!DOCTYPE svg PUBLIC "-//W3C//DTD SVG 1.1//EN" "http://www.w3.org/Graphics/SVG/1.1/DTD/svg11.dtd" >
<svg xmlns="http://www.w3.org/2000/svg" xmlns:xlink="http://www.w3.org/1999/xlink" version="1.1" viewBox="-10 -40 532 512">
   <path fill="currentColor"
d="M288 57q1 -27 19 -45v0v0q18 -18 45 -19q27 1 45 19t19 45v33v0q-29 5 -46 24q-18 19 -18 50q1 23 23 55q23 33 57 62q34 -29 57 -62q22 -32 23 -55q0 -31 -18 -50q-17 -20 -46 -24v-33v0q-1 -41 -28 -68t-68 -28q-41 1 -68 28t-28 68v66v0q-32 -33 -80 -34q-48 1 -79 33
q-32 31 -33 79v17v0q-29 5 -46 24q-18 19 -18 50q1 23 23 55q23 33 57 62q34 -29 57 -62q22 -32 23 -55q0 -31 -18 -50q-17 -19 -46 -24v-17v0q1 -34 23 -57q23 -22 57 -23q34 1 57 23q22 23 23 57v40v0v16v0v200v0v16v0h32v0v-16v0v-200v0v-16v0v-40v0v-144v0zM416 123v30
v-30v30v16v0h32v0v-16v0v-30v0q13 3 20 10q11 8 12 31q2 7 -18 37q-12 18 -30 36q-18 -18 -30 -36q-19 -30 -18 -37q1 -23 12 -31q7 -7 20 -10v0zM44 261q7 -7 20 -10v30v0v16v0h32v0v-16v0v-30v0q13 3 20 10q11 8 12 31q2 7 -18 37q-12 18 -30 36q-18 -18 -30 -36
q-19 -30 -18 -37q1 -23 12 -31v0z" />
</svg>
