<?xml version="1.0" standalone="no"?>
<!DOCTYPE svg PUBLIC "-//W3C//DTD SVG 1.1//EN" "http://www.w3.org/Graphics/SVG/1.1/DTD/svg11.dtd" >
<svg xmlns="http://www.w3.org/2000/svg" xmlns:xlink="http://www.w3.org/1999/xlink" version="1.1" viewBox="-10 -40 596 512">
   <path fill="currentColor"
d="M544 89h-256h256h-256v256v0h256v0v-256v0zM288 377h-32h32h-288v-32v0v-256v0v-32v0h32h544v32v0v256v0v32v0h-32h-256zM256 345v-256v256v-256h-224v0v256v0h224v0zM352 153v128v-128v128h128v0v-128v0h-128v0zM320 121h32h-32h192v32v0v128v0v32v0h-32h-160v-32v0
v-128v0v-32v0z" />
</svg>
