<?xml version="1.0" standalone="no"?>
<!DOCTYPE svg PUBLIC "-//W3C//DTD SVG 1.1//EN" "http://www.w3.org/Graphics/SVG/1.1/DTD/svg11.dtd" >
<svg xmlns="http://www.w3.org/2000/svg" xmlns:xlink="http://www.w3.org/1999/xlink" version="1.1" viewBox="-10 -40 532 512">
   <path fill="currentColor"
d="M23 240l-23 -23l23 23l-23 -23l23 -23v0l210 -210v0l7 -7v0l16 -16v0l16 16v0l7 7v0l210 210v0l23 23v0l-23 23v0l-210 210v0l-7 7v0l-16 16v0l-16 -16v0l-7 -7v0l-210 -210v0zM272 412l195 -195l-195 195l195 -195l-195 -195v0v390v0zM240 22l-195 195l195 -195
l-195 195l195 195v0v-390v0z" />
</svg>
