<?xml version="1.0" standalone="no"?>
<!DOCTYPE svg PUBLIC "-//W3C//DTD SVG 1.1//EN" "http://www.w3.org/Graphics/SVG/1.1/DTD/svg11.dtd" >
<svg xmlns="http://www.w3.org/2000/svg" xmlns:xlink="http://www.w3.org/1999/xlink" version="1.1" viewBox="-10 -40 596 512">
   <path fill="currentColor"
d="M16 -7h112h-112h112v32v0h-96v0v96v0h-32v0v-112v0v-16v0h16v0zM0 153h32h-32h32v128v0h-32v0v-128v0zM0 313h32h-32h32v96v0h96v0v32v0h-112h-16v-16v0v-112v0zM416 25h-96h96h-96v-32v0h112h16v16v0v144v0q-16 0 -32 3v-131v0zM288 441h-128h128h-128v-32v0h128v0v32v0
zM160 25v-32v32v-32h128v0v32v0h-128v0zM544 329q0 -30 -15 -56v0v0q-15 -26 -41 -41t-56 -15t-56 15t-41 41t-15 56t15 56t41 41t56 15t56 -15t41 -41t15 -56v0zM288 329q0 -39 19 -72v0v0q19 -33 53 -53q34 -19 72 -19t72 19q34 20 53 53t19 72t-19 72t-53 53
q-34 19 -72 19t-72 -19q-34 -20 -53 -53t-19 -72v0zM448 265v48v-48v48h48h16v32v0h-16h-48v48v0v16v0h-32v0v-16v0v-48v0h-48h-16v-32v0h16h48v-48v0v-16v0h32v0v16v0z" />
</svg>
