<?xml version="1.0" standalone="no"?>
<!DOCTYPE svg PUBLIC "-//W3C//DTD SVG 1.1//EN" "http://www.w3.org/Graphics/SVG/1.1/DTD/svg11.dtd" >
<svg xmlns="http://www.w3.org/2000/svg" xmlns:xlink="http://www.w3.org/1999/xlink" version="1.1" viewBox="-10 -40 532 512">
   <path fill="currentColor"
d="M87 343l7 -19l-7 19l7 -19l-14 -15v0q-47 -47 -48 -108q2 -71 63 -122q62 -52 161 -54q99 2 161 54q61 51 63 122q-2 71 -63 122q-62 52 -161 54q-43 0 -80 -12l-9 -2v0l-10 2v0l-88 27v0l18 -49v0zM16 441l39 -12l-39 12l39 -12l111 -33v0q42 13 90 13q72 -1 129 -28
q58 -28 92 -75t35 -105q-1 -58 -35 -105t-92 -75q-57 -27 -129 -28q-72 1 -129 28q-58 28 -92 75t-35 105q2 76 57 131l-27 71v0l-14 38v0zM248 138q-18 -17 -42 -17h-3v0q-25 1 -42 17q-16 17 -17 42q0 25 18 43l83 80v0l11 10v0l11 -11v0l83 -79v0q18 -18 18 -43
q-1 -25 -17 -42q-17 -16 -42 -17h-2v0q-25 0 -43 17l-8 7v0l-8 -7v0zM328 200l-72 69l72 -69l-72 69l-72 -69v0q-8 -8 -8 -20q0 -11 8 -19t19 -8h3v0q12 0 20 8l8 8v0l22 21v0l22 -21v0l8 -8v0q9 -8 20 -8h3v0q11 0 19 8t8 19q0 12 -8 20v0z" />
</svg>
