<?xml version="1.0" standalone="no"?>
<!DOCTYPE svg PUBLIC "-//W3C//DTD SVG 1.1//EN" "http://www.w3.org/Graphics/SVG/1.1/DTD/svg11.dtd" >
<svg xmlns="http://www.w3.org/2000/svg" xmlns:xlink="http://www.w3.org/1999/xlink" version="1.1" viewBox="-10 -40 532 512">
   <path fill="currentColor"
d="M340 109l148 -148l-148 148l148 -148l24 24v0l-148 148v0l52 52v0l-159 260v0l-17 28v0l-23 -23v0l-194 -194v0l-23 -23v0l28 -17v0l260 -159v0l52 52v0zM51 239l48 48l-48 -48l48 48l34 -33v0l11 -12v0l23 23v0l-12 11v0l-33 34v0l112 112v0l90 -147v0l-126 -125v0
l-147 89v0zM341 247l35 -57l-35 57l35 -57l-93 -93v0l-57 35v0l115 115v0z" />
</svg>
