<?xml version="1.0" standalone="no"?>
<!DOCTYPE svg PUBLIC "-//W3C//DTD SVG 1.1//EN" "http://www.w3.org/Graphics/SVG/1.1/DTD/svg11.dtd" >
<svg xmlns="http://www.w3.org/2000/svg" xmlns:xlink="http://www.w3.org/1999/xlink" version="1.1" viewBox="-10 -40 532 512">
   <path fill="currentColor"
d="M32 9v-16v16v-16h-32v0v16v0v416v0v16v0h16h496v-32v0h-16h-464v-400v0zM352 25v32v-32v32h16h57l-137 137v0l-69 -68v0l-11 -12v0l-11 12v0l-96 96v0l-12 11v0l23 23v0l11 -12v0l85 -84v0l69 68v0l11 12v0l11 -12v0l149 -148v0v57v0v16v0h32v0v-16v0v-96v0v-16v0h-16
h-112zM352 345h16h-16h128v-16v0v-96v0v-16v0h-32v0v16v0v57v0l-61 -60v0l-11 -12v0l-23 23v0l12 11v0l60 61v0h-57h-16v32v0z" />
</svg>
