<?xml version="1.0" standalone="no"?>
<!DOCTYPE svg PUBLIC "-//W3C//DTD SVG 1.1//EN" "http://www.w3.org/Graphics/SVG/1.1/DTD/svg11.dtd" >
<svg xmlns="http://www.w3.org/2000/svg" xmlns:xlink="http://www.w3.org/1999/xlink" version="1.1" viewBox="-10 -40 522 512">
   <path fill="currentColor"
d="M128 153q36 -1 55 -32q18 -32 0 -64q-19 -31 -55 -32q-36 1 -55 32q-18 32 0 64q19 31 55 32v0zM224 89q0 26 -13 48v0v0q-13 22 -35 35q-23 13 -48 13t-48 -13q-22 -13 -35 -35t-13 -48t13 -48t35 -35q23 -13 48 -13t48 13q22 13 35 35t13 48v0zM128 409q36 -1 55 -32
q18 -32 0 -64q-19 -31 -55 -32q-36 1 -55 32q-18 32 0 64q19 31 55 32v0zM224 345q0 26 -13 48v0v0q-13 22 -35 35q-23 13 -48 13t-48 -13q-22 -13 -35 -35t-13 -48t13 -48t35 -35q23 -13 48 -13t48 13q22 13 35 35t13 48v0zM320 89q1 36 32 55q32 18 64 0q31 -19 32 -55
q-1 -36 -32 -55q-32 -18 -64 0q-31 19 -32 55v0zM384 185q-26 0 -48 -13v0v0q-22 -13 -35 -35q-13 -23 -13 -48t13 -48q13 -22 35 -35t48 -13t48 13t35 35q13 23 13 48t-13 48q-13 22 -35 35t-48 13v0zM384 409q36 -1 55 -32q18 -32 0 -64q-19 -31 -55 -32q-36 1 -55 32
q-18 32 0 64q19 31 55 32v0zM480 345q0 26 -13 48v0v0q-13 22 -35 35q-23 13 -48 13t-48 -13q-22 -13 -35 -35t-13 -48t13 -48t35 -35q23 -13 48 -13t48 13q22 13 35 35t13 48v0z" />
</svg>
