<?xml version="1.0" standalone="no"?>
<!DOCTYPE svg PUBLIC "-//W3C//DTD SVG 1.1//EN" "http://www.w3.org/Graphics/SVG/1.1/DTD/svg11.dtd" >
<svg xmlns="http://www.w3.org/2000/svg" xmlns:xlink="http://www.w3.org/1999/xlink" version="1.1" viewBox="-10 -40 532 512">
   <path fill="currentColor"
d="M416 -7v64v-64v64h64v0v-64v0h-64v0zM384 -39h32h-32h128v32v0v64v0v32v0h-32h-96v-32v0v-64v0v-32v0zM286 -37l12 10l-12 -10l12 10l48 40v0l15 12v0l-15 12v0l-48 40v0l-12 11v0l-20 -25v0l12 -10v0l14 -12v0h-260v0v160v0h464h16v16v0v192v0v16v0h-16h-80v16v0v32v0
h-32h-96v-32v0v-64v0v-32v0h32h96v32v0v16v0h64v0v-160v0h-464h-16v-16v0v-192v0v-16v0h16h276l-14 -12v0l-12 -10v0l20 -24v0zM128 377v16v-16v16h68v0l-14 -12v0l-12 -10v0l20 -24v0l12 10v0l48 40v0l15 12v0l-15 12v0l-48 40v0l-12 11v0l-20 -25v0l12 -10v0l14 -12v0h-68
v0v16v0v32v0h-32h-96v-32v0v-64v0v-32v0h32h96v32v0zM96 377h-64h64h-64v64v0h64v0v-64v0zM320 377v64v-64v64h64v0v-64v0h-64v0z" />
</svg>
