<?xml version="1.0" standalone="no"?>
<!DOCTYPE svg PUBLIC "-//W3C//DTD SVG 1.1//EN" "http://www.w3.org/Graphics/SVG/1.1/DTD/svg11.dtd" >
<svg xmlns="http://www.w3.org/2000/svg" xmlns:xlink="http://www.w3.org/1999/xlink" version="1.1" viewBox="-10 -40 660 512">
   <path fill="currentColor"
d="M32 -7h512h-512h512v167v0q17 4 32 12v-179v0v-32v0h-32h-544v32v0v352v0v32v0h32h181l-11 64v0h-58h-16v32v0h16h251q-20 -14 -35 -32h-19h-106l11 -64v0h42h39q-5 -15 -6 -32h-89v0v0v0h-200v0v-352v0zM480 154v-81v81v-81v-16v0h-16h-112v32v0h16h57l-121 121v0
l-69 -68v0l-11 -12v0l-11 12v0l-112 112v0l-12 11v0l23 23v0l11 -12v0l101 -100v0l69 68v0l11 12v0l11 -12v0l133 -132v0v48v0q15 -5 32 -6v0zM496 217q30 0 56 15v0v0q26 15 41 41t15 56t-15 56t-41 41t-56 15t-56 -15t-41 -41t-15 -56t15 -56t41 -41t56 -15v0zM496 473
q39 0 72 -19v0v0q33 -19 53 -53q19 -34 19 -72t-19 -72q-20 -34 -53 -53t-72 -19t-72 19t-53 53q-19 34 -19 72t19 72q20 34 53 53t72 19v0zM471 304q14 -16 35 -11q20 6 26 26q5 21 -11 35q-14 16 -35 11q-20 -6 -26 -26q-5 -21 11 -35v0zM531 387l18 17l-18 -17l18 17
l22 -22v0l-17 -18v0q20 -35 0 -70l17 -18v0l-22 -22v0l-18 17v0q-35 -20 -70 0l-18 -17v0l-22 22v0l17 18v0q-20 35 0 70l-17 18v0l22 22v0l18 -17v0q35 20 70 0v0z" />
</svg>
