<?xml version="1.0" standalone="no"?>
<!DOCTYPE svg PUBLIC "-//W3C//DTD SVG 1.1//EN" "http://www.w3.org/Graphics/SVG/1.1/DTD/svg11.dtd" >
<svg xmlns="http://www.w3.org/2000/svg" xmlns:xlink="http://www.w3.org/1999/xlink" version="1.1" viewBox="-10 -40 660 512">
   <path fill="currentColor"
d="M96 25h448h-448h448v288v0h32v0v-288v0v-32v0h-32h-480v32v0v288v0h32v0v-288v0zM32 380v-3v3v-3h576v0v3v0l-29 29v0h-518v0l-29 -29v0zM608 345h-576h576h-608v32v0v16v0l48 48v0h544v0l48 -48v0v-16v0v-32v0h-32v0zM176 89h-16h16h-16v16v0v80v0v16v0h16h80v-16v0v-80
v0v-16v0h-16h-64zM192 169v-48v48v-48h32v0v48v0h-32v0zM304 89h-16h16h-16v32v0h16v0v64v0v16v0h32v0v-16v0v-80v0v-16v0h-16h-16zM384 89v16v-16v16v80v0v16v0h16h80v-16v0v-80v0v-16v0h-16h-80zM416 121h32h-32h32v48v0h-32v0v-48v0zM192 233h-16h16h-16v32v0h16v0v48v0
h32v0v-64v0v-16v0h-16h-16zM448 249v-16v16v-16h-16h-32v32v0h16v0v48v0h32v0v-64v0zM368 249v-16v16v-16h-16h-80v16v0v64v0h32v0v-48v0h32v0v48v0h32v0v-64v0z" />
</svg>
