<?xml version="1.0" standalone="no"?>
<!DOCTYPE svg PUBLIC "-//W3C//DTD SVG 1.1//EN" "http://www.w3.org/Graphics/SVG/1.1/DTD/svg11.dtd" >
<svg xmlns="http://www.w3.org/2000/svg" xmlns:xlink="http://www.w3.org/1999/xlink" version="1.1" viewBox="-10 -40 660 512">
   <path fill="currentColor"
d="M128 -39v32v-32v32h16h77l-5 33v0q-18 3 -29 16t-11 31q1 20 14 34q14 13 34 14q29 -1 43 -26l181 24v0v50v0v16v0h32v0v-16v0v-64v0v-14v0l-14 -2v0l-195 -26v0q-5 -21 -24 -32l7 -38v0h82h16v-32v0h-16h-208zM200 73q2 -22 24 -24q22 2 24 24q-2 22 -24 24
q-22 -2 -24 -24v0zM480 249v32v-32v32h-32v0v-32v0h32v0zM416 249v32v-32v32h-64v0v-32v0v-32v0h-32h-64v32v0v32v0h-64v0v-32v0v-32v0h-32h-64v32v0v32v0q-41 1 -68 28t-28 68q1 41 28 68t68 28h448v0q41 -1 68 -28t28 -68q-1 -41 -28 -68t-68 -28h-32v0v-32v0v-32v0h-32
h-64v32v0zM96 313h32h-32h448q27 1 45 19t19 45q-1 27 -19 45t-45 19h-448v0q-27 -1 -45 -19t-19 -45q1 -27 19 -45t45 -19v0zM160 249v32v-32v32h-32v0v-32v0h32v0zM288 281v-32v32v-32h32v0v32v0h-32v0zM128 401q22 -2 24 -24q-2 -22 -24 -24q-22 2 -24 24q2 22 24 24v0z
M344 377q-2 -22 -24 -24q-22 2 -24 24q2 22 24 24q22 -2 24 -24v0zM512 401q22 -2 24 -24q-2 -22 -24 -24q-22 2 -24 24q2 22 24 24v0z" />
</svg>
