<?xml version="1.0" standalone="no"?>
<!DOCTYPE svg PUBLIC "-//W3C//DTD SVG 1.1//EN" "http://www.w3.org/Graphics/SVG/1.1/DTD/svg11.dtd" >
<svg xmlns="http://www.w3.org/2000/svg" xmlns:xlink="http://www.w3.org/1999/xlink" version="1.1" viewBox="-10 -40 660 512">
   <path fill="currentColor"
d="M192 -7v32v-32v32h-64v0v-32v0h64v0zM96 -7v32v-32v32h-32v0v32v0h32h160v-32v0h-32v0v-32v0v-32v0h-32h-96v32v0zM416 136v35v-35v35l39 -18v0h114v0l39 19v0v32v0l-15 14v0l-22 23v0l22 23v0l15 14v0v38v0l-15 14v0l-22 23v0l22 23v0l15 14v0v38v0l-13 13v0h-179v0v32
v0h192v0l32 -32v0v-64v0l-1 -1v0l-23 -23v0l23 -23v0l1 -1v0v-64v0l-1 -1v0l-23 -23v0l23 -23v0l1 -1v0v-66v0l-64 -30v0h-128v0l-32 15v0zM384 473v-32v32v-32v-290v0v-30v0v-32v0h-32h-224q-54 1 -91 37q-36 37 -37 91v224v0v32v0h32h352zM128 121h224h-224h224v320v0
h-320v0v-224v0q1 -41 28 -68t68 -28v0zM208 169v16v-16v16v160v0v16v0h16h80v-16v0v-160v0v-16v0h-16h-80zM240 201h32h-32h32v128v0h-32v0v-128v0zM448 25v16v-16v16v48v0h32v0v-32v0h64v0v32v0h32v0v-48v0v-16v0h-16h-112z" />
</svg>
