<?xml version="1.0" standalone="no"?>
<!DOCTYPE svg PUBLIC "-//W3C//DTD SVG 1.1//EN" "http://www.w3.org/Graphics/SVG/1.1/DTD/svg11.dtd" >
<svg xmlns="http://www.w3.org/2000/svg" xmlns:xlink="http://www.w3.org/1999/xlink" version="1.1" viewBox="-10 -40 660 512">
   <path fill="currentColor"
d="M232 377q-39 -56 -40 -128q1 -76 43 -132q42 -57 111 -81q-51 -42 -122 -43q-82 2 -136 56t-56 136q2 82 56 136t136 56h8v0zM268 372q65 -16 106 -67v0v0q41 -51 42 -120q-1 -71 -44 -123q-65 16 -106 67t-42 120q1 71 44 123v0zM257 407q-16 2 -33 2q-63 -1 -113 -31
q-51 -29 -80 -80q-30 -50 -31 -113q1 -63 31 -113q29 -51 80 -80q50 -30 113 -31q47 0 88 18q40 17 71 48q16 -2 33 -2q63 1 113 31q51 29 80 80q30 50 31 113q-1 63 -31 113q-29 51 -80 80q-50 30 -113 31q-47 0 -88 -18q-40 -17 -71 -48v0zM408 57q39 56 40 128
q-1 76 -43 132q-42 57 -110 81q51 42 121 43q82 -2 136 -56t56 -136q-2 -82 -56 -136t-136 -56h-8v0z" />
</svg>
