<?xml version="1.0" standalone="no"?>
<!DOCTYPE svg PUBLIC "-//W3C//DTD SVG 1.1//EN" "http://www.w3.org/Graphics/SVG/1.1/DTD/svg11.dtd" >
<svg xmlns="http://www.w3.org/2000/svg" xmlns:xlink="http://www.w3.org/1999/xlink" version="1.1" viewBox="-10 -40 660 512">
   <path fill="currentColor"
d="M80 -7q-34 1 -57 23v0v0q-22 23 -23 57v288v0q1 34 23 57q23 22 57 23q34 -1 57 -23q22 -23 23 -57v-16v0h-32v0v16v0q-1 20 -14 34q-14 13 -34 14q-20 -1 -34 -14q-13 -14 -14 -34v-288v0q1 -20 14 -34q14 -13 34 -14q20 1 34 14q13 14 14 34v16v0h32v0v-16v0
q-1 -34 -23 -57q-23 -22 -57 -23v0zM224 9v-16v16v-16h-32v0v16v0v416v0v16v0h32v0v-16v0v-208v0h160v0v208v0v16v0h32v0v-16v0v-416v0v-16v0h-32v0v16v0v176v0h-160v0v-176v0zM464 -7h-16h16h-16v16v0v416v0v16v0h32v0v-16v0v-208v0h112h16v-32v0h-16h-112v-160v0h144h16
v-32v0h-16h-160z" />
</svg>
