<?xml version="1.0" standalone="no"?>
<!DOCTYPE svg PUBLIC "-//W3C//DTD SVG 1.1//EN" "http://www.w3.org/Graphics/SVG/1.1/DTD/svg11.dtd" >
<svg xmlns="http://www.w3.org/2000/svg" xmlns:xlink="http://www.w3.org/1999/xlink" version="1.1" viewBox="-10 -40 660 512">
   <path fill="currentColor"
d="M88 97q1 -41 36 -62q36 -20 72 0q35 21 36 62q-1 41 -36 62q-36 20 -72 0q-35 -21 -36 -62v0zM264 97q0 -28 -14 -52v0v0q-14 -24 -38 -38q-25 -14 -52 -14t-52 14q-24 14 -38 38t-14 52t14 52t38 38q25 14 52 14t52 -14q24 -14 38 -38t14 -52v0zM408 97q1 -41 36 -62
q36 -20 72 0q35 21 36 62q-1 41 -36 62q-36 20 -72 0q-35 -21 -36 -62v0zM584 97q0 -28 -14 -52v0v0q-14 -24 -38 -38q-25 -14 -52 -14t-52 14q-24 14 -38 38t-14 52t14 52t38 38q25 14 52 14t52 -14q24 -14 38 -38t14 -52v0zM87 281h146h-146h146l43 128v0h-232v0l43 -128
v0zM256 249h-192h192h-192l-53 160v0l-11 32v0h34h286l-11 -32v0l-53 -160v0zM364 281h232h-232h232l-43 128v0h-146v0l-43 -128v0zM384 441h192h-192h192l53 -160v0l11 -32v0h-34h-286l11 32v0l53 160v0z" />
</svg>
