<?xml version="1.0" standalone="no"?>
<!DOCTYPE svg PUBLIC "-//W3C//DTD SVG 1.1//EN" "http://www.w3.org/Graphics/SVG/1.1/DTD/svg11.dtd" >
<svg xmlns="http://www.w3.org/2000/svg" xmlns:xlink="http://www.w3.org/1999/xlink" version="1.1" viewBox="-10 -40 660 512">
   <path fill="currentColor"
d="M288 -6v191v-191v191h107v0q-20 14 -35 32h-72h-32v-32v0v-223v0q8 -1 17 -1q89 2 153 55q63 53 82 137h-12q-11 0 -21 1q-16 -67 -66 -111q-51 -43 -121 -49v0zM256 249h83h-83h83q-8 15 -12 32h-103h-32v-32v0v-218v0q-70 17 -114 72q-45 55 -46 130q2 88 61 147
t147 61q56 -1 102 -27q8 14 18 27q-54 31 -120 32q-67 -1 -121 -33t-86 -86t-33 -121q2 -89 55 -153t137 -82q16 -3 32 -4v32v0v191v0v32v0h32v0zM496 441q30 0 56 -15v0v0q26 -15 41 -41t15 -56t-15 -56t-41 -41t-56 -15t-56 15t-41 41t-15 56t15 56t41 41t56 15v0z
M496 185q39 0 72 19v0v0q33 19 53 53q19 34 19 72t-19 72q-20 34 -53 53t-72 19t-72 -19t-53 -53q-19 -34 -19 -72t19 -72q20 -34 53 -53t72 -19v0zM473 296q-1 1 -1 4v0v0q-1 1 5 5q8 4 22 7q1 1 2 1v0v0q15 3 30 11q18 9 21 33q-2 27 -22 37q-9 4 -18 6v11v0v16v0h-32v0
v-16v0v-12v0q-13 -3 -24 -6v0v0v0v0l-4 -2h-1l-15 -5v0l10 -30v0l15 4v0l6 2v0v0q16 6 29 7q11 0 19 -4q3 -1 4 -3q1 -1 1 -4q1 -2 -5 -6q-8 -4 -23 -8l-2 -1v0q-14 -3 -28 -10q-18 -7 -22 -31q1 -28 22 -37q9 -5 18 -6v-10v0v-16v0h32v0v16v0v9v0l18 4l15 4v0l-7 31v0
l-16 -4v0q-14 -3 -26 -4q-10 0 -19 4q-3 2 -4 4v-1z" />
</svg>
