<?xml version="1.0" standalone="no"?>
<!DOCTYPE svg PUBLIC "-//W3C//DTD SVG 1.1//EN" "http://www.w3.org/Graphics/SVG/1.1/DTD/svg11.dtd" >
<svg xmlns="http://www.w3.org/2000/svg" xmlns:xlink="http://www.w3.org/1999/xlink" version="1.1" viewBox="-10 -40 596 512">
   <path fill="currentColor"
d="M32 25v384v-384v384h512v0v-384v0h-512v0zM0 -7h32h-32h576v32v0v384v0v32v0h-32h-544v-32v0v-384v0v-32v0zM112 217h192h-192h208v32v0h-16h-208v-32v0h16v0zM368 217h96h-96h112v32v0h-16h-112v-32v0h16v0zM112 313h96h-96h112v32v0h-16h-112v-32v0h16v0zM272 313h192
h-192h208v32v0h-16h-208v-32v0h16v0z" />
</svg>
