<?xml version="1.0" standalone="no"?>
<!DOCTYPE svg PUBLIC "-//W3C//DTD SVG 1.1//EN" "http://www.w3.org/Graphics/SVG/1.1/DTD/svg11.dtd" >
<svg xmlns="http://www.w3.org/2000/svg" xmlns:xlink="http://www.w3.org/1999/xlink" version="1.1" viewBox="-10 -40 532 512">
   <path fill="currentColor"
d="M160 217h32h-32h256v32v0v160v0h64v0v-256v0h-288h-32v-32v0v-51v0l-115 115v0l115 115v0v-51v0v-32v0zM192 313v32v-32v32h-32v0l-137 -137v0l-23 -23v0l23 -23v0l137 -137v0h32v0v32v0v32v0v32v0h32h288v32v0v256v0v32v0h-32h-96v-32v0v-128v0v-32v0h-32h-160v32v0v32
v0z" />
</svg>
