<?xml version="1.0" standalone="no"?>
<!DOCTYPE svg PUBLIC "-//W3C//DTD SVG 1.1//EN" "http://www.w3.org/Graphics/SVG/1.1/DTD/svg11.dtd" >
<svg xmlns="http://www.w3.org/2000/svg" xmlns:xlink="http://www.w3.org/1999/xlink" version="1.1" viewBox="-10 -40 404 512">
   <path fill="currentColor"
d="M224 121v32v-32v32v192v0v32v0h32h96v64v0h-192v0v-288v0v-32v0h-32h-51l115 -115v0l115 115v0h-51h-32zM320 153h32h-32h32v-32v0l-137 -137v0l-23 -23v0l-23 23v0l-137 137v0v32v0h32h64v32v0v256v0v32v0h32h224v-32v0v-64v0v-32v0h-32h-96v-32v0v-128v0v-32v0h32h32z
" />
</svg>
