<?xml version="1.0" standalone="no"?>
<!DOCTYPE svg PUBLIC "-//W3C//DTD SVG 1.1//EN" "http://www.w3.org/Graphics/SVG/1.1/DTD/svg11.dtd" >
<svg xmlns="http://www.w3.org/2000/svg" xmlns:xlink="http://www.w3.org/1999/xlink" version="1.1" viewBox="-10 -40 660 512">
   <path fill="currentColor"
d="M0 25v32v-32v32v320v0v32v0h32h608v-32v0v-80v0v-32v0h-16v0q-20 -1 -34 -14q-13 -14 -14 -34q1 -20 14 -34q14 -13 34 -14h16v0v-32v0v-80v0v-32v0h-32h-608zM608 377h-576h576h-576v-320v0h576v0v82v0q-28 6 -46 27q-17 21 -18 51q1 30 18 51q18 21 46 27v82v0z
M480 121q-1 -15 -16 -16q-15 1 -16 16q1 15 16 16q15 -1 16 -16v0zM480 185q-1 -15 -16 -16q-15 1 -16 16q1 15 16 16q15 -1 16 -16v0zM464 265q15 -1 16 -16q-1 -15 -16 -16q-15 1 -16 16q1 15 16 16v0zM480 313q-1 -15 -16 -16q-15 1 -16 16q1 15 16 16q15 -1 16 -16v0z
" />
</svg>
