<?xml version="1.0" standalone="no"?>
<!DOCTYPE svg PUBLIC "-//W3C//DTD SVG 1.1//EN" "http://www.w3.org/Graphics/SVG/1.1/DTD/svg11.dtd" >
<svg xmlns="http://www.w3.org/2000/svg" xmlns:xlink="http://www.w3.org/1999/xlink" version="1.1" viewBox="-10 -40 660 512">
   <path fill="currentColor"
d="M608 25v80v-80v80q-38 19 -40 64q2 45 40 65v79v0h-480v0v-288v0h480v0zM640 97v-72v72v-72v-32v0h-32h-512v32v0v288v0v32v0h32h512v-32v0v-72v0v-32v0q-17 0 -28 -12q-12 -11 -12 -28t12 -28q11 -12 28 -12v-32v0zM496 89q15 -1 16 -16q-1 -15 -16 -16q-15 1 -16 16
q1 15 16 16v0zM496 153q15 -1 16 -16q-1 -15 -16 -16q-15 1 -16 16q1 15 16 16v0zM512 201q-1 -15 -16 -16q-15 1 -16 16q1 15 16 16q15 -1 16 -16v0zM496 281q15 -1 16 -16q-1 -15 -16 -16q-15 1 -16 16q1 15 16 16v0zM32 73v-16v16v-16h-32v0v16v0v352v0v16v0h16h528v-32
v0h-16h-496v-336v0z" />
</svg>
