<?xml version="1.0" standalone="no"?>
<!DOCTYPE svg PUBLIC "-//W3C//DTD SVG 1.1//EN" "http://www.w3.org/Graphics/SVG/1.1/DTD/svg11.dtd" >
<svg xmlns="http://www.w3.org/2000/svg" xmlns:xlink="http://www.w3.org/1999/xlink" version="1.1" viewBox="-10 -40 660 512">
   <path fill="currentColor"
d="M144 168q26 -12 92 -36v0v0q65 -24 139 -49v0v0q75 -26 128 -44v0v0q54 -18 56 -19l81 162v0q-1 1 -33 23l-80 55q-8 -14 -19 -26q14 -10 27 -18q21 -15 38 -27q8 -5 14 -9l12 -8l-56 -113v0q-7 3 -14 5q-7 3 -16 5q-53 18 -127 44q-75 26 -139 49t-89 35q-42 22 -56 65
q-14 42 6 85q22 42 64 56q43 14 86 -6q5 -2 12 -6q7 14 17 27q-9 5 -15 8q-40 19 -82 14q-42 -6 -75 -33l-29 15v0l-29 14v0l-14 -29v0l-29 -57v0l-14 -29v0l29 -14v0l35 -18v0v0v0q2 -38 23 -70q20 -32 57 -51v0zM67 324l-24 12l24 -12l-24 12l29 57v0l20 -10v0
q-7 -10 -13 -22q-9 -18 -12 -37v0zM480 329q-1 -45 -40 -69q-40 -22 -80 0q-39 24 -40 69q1 45 40 69q40 22 80 0q39 -24 40 -69v0zM288 329q0 -30 15 -56v0v0q15 -26 41 -41t56 -15t56 15t41 41t15 56t-15 56t-41 41t-56 15t-56 -15t-41 -41t-15 -56v0zM400 305q22 2 24 24
q-2 22 -24 24q-22 -2 -24 -24q2 -22 24 -24v0z" />
</svg>
