<?xml version="1.0" standalone="no"?>
<!DOCTYPE svg PUBLIC "-//W3C//DTD SVG 1.1//EN" "http://www.w3.org/Graphics/SVG/1.1/DTD/svg11.dtd" >
<svg xmlns="http://www.w3.org/2000/svg" xmlns:xlink="http://www.w3.org/1999/xlink" version="1.1" viewBox="-10 -40 522 512">
   <path fill="currentColor"
d="M352 153v96v-96v96h32v0v-136v0l-152 -152v0h-200h-32v32v0v448v0v32v0h32h128v-32v0h-128v0v-448v0h160v0v144v0v16v0h16h144zM347 121h-123h123h-123v-123v0l123 123v0zM224 353v80v-80v80q0 17 12 28q11 12 28 12h16v0q17 0 28 -12q12 -11 12 -28v-24v0v-16v0h-16h-32
v32v0h16v0v8v0q-1 7 -8 8h-16v0q-7 -1 -8 -8v-80v0q1 -7 8 -8h16v0q7 1 8 8v16v0h32v0v-16v0q0 -17 -12 -28q-11 -12 -28 -12h-16v0q-17 0 -28 12q-12 11 -12 28v0zM384 329v-16v16v-16h-32v0v16v0v128v0v16v0h32v0v-16v0v-128v0zM432 313h-16h16h-16v16v0v64v0v64v0v16v0
h32v0v-16v0v-48v0h32h16v-32v0h-16h-32v-32v0h32h16v-32v0h-16h-48z" />
</svg>
