<?xml version="1.0" standalone="no"?>
<!DOCTYPE svg PUBLIC "-//W3C//DTD SVG 1.1//EN" "http://www.w3.org/Graphics/SVG/1.1/DTD/svg11.dtd" >
<svg xmlns="http://www.w3.org/2000/svg" xmlns:xlink="http://www.w3.org/1999/xlink" version="1.1" viewBox="-10 -40 532 512">
   <path fill="currentColor"
d="M352 153v96v-96v96h32v0v-136v0l-152 -152v0h-200h-32v32v0v448v0v32v0h32h32v-32v0h-32v0v-448v0h160v0v144v0v16v0h16h144zM347 121h-123h123h-123v-123v0l123 123v0zM256 329v-16v16v-16h-16h-15l-5 9v0l-28 53v0l-30 -54v0l-5 -8v0h-9h-20v16v0v128v0v16v0h32v0v-16
v0v-73v0l18 33v0l14 26v0l14 -26v0l18 -34v0v74v0v16v0h32v0v-16v0v-128v0zM304 313h-16h16h-16v16v0v80v0v48v0v16v0h32v0v-16v0v-32v0h16v0q24 -1 40 -16q15 -16 16 -40q-1 -24 -16 -40q-16 -15 -40 -16h-32v0zM336 393h-16h16h-16v-48v0h16v0q22 2 24 24q-2 22 -24 24v0z
M416 409h16h-16h64v48v0v16v0h32v0v-16v0v-64v0v-64v0v-16v0h-32v0v16v0v48v0h-32v0v-48v0v-16v0h-32v0v16v0v64v0v16v0z" />
</svg>
