<?xml version="1.0" standalone="no"?>
<!DOCTYPE svg PUBLIC "-//W3C//DTD SVG 1.1//EN" "http://www.w3.org/Graphics/SVG/1.1/DTD/svg11.dtd" >
<svg xmlns="http://www.w3.org/2000/svg" xmlns:xlink="http://www.w3.org/1999/xlink" version="1.1" viewBox="-10 -40 468 512">
   <path fill="currentColor"
d="M224 -7q27 1 45 19v0v0q18 18 19 45v32v0h-128v0v-32v0q1 -27 19 -45t45 -19v0zM128 57v32v-32v32h-96h-32v32v0v320v0v32v0h32h416v-32v0v-320v0v-32v0h-32h-96v-32v0q-1 -36 -23 -62t-57 -33v-1v0h-16v0q-41 1 -68 28t-28 68v0zM32 121h96h-96h384v320v0h-384v0v-320v0
zM144 265h-16h16h-16v32v0h16h176v-32v0h-16h-160z" />
</svg>
