<?xml version="1.0" standalone="no"?>
<!DOCTYPE svg PUBLIC "-//W3C//DTD SVG 1.1//EN" "http://www.w3.org/Graphics/SVG/1.1/DTD/svg11.dtd" >
<svg xmlns="http://www.w3.org/2000/svg" xmlns:xlink="http://www.w3.org/1999/xlink" version="1.1" viewBox="-10 -40 596 512">
   <path fill="currentColor"
d="M254 -21l-8 14l8 -14l-8 14l-91 160v0h266v0l-91 -160v0l-8 -14v0l28 -16v0l8 14v0l99 176v0h54h65v32v0h-40v0l-72 288v0h-352v0l-72 -288v0h-40v0v-32v0h32h87l99 -176v0l8 -14v0l28 16v0zM503 185h-430h430h-430l64 256v0h302v0l64 -256v0zM192 297h16h-16h80v-64v0
v-16v0h32v0v16v0v64v0h64h16v32v0h-16h-64v64v0v16v0h-32v0v-16v0v-64v0h-64h-16v-32v0z" />
</svg>
