<?xml version="1.0" standalone="no"?>
<!DOCTYPE svg PUBLIC "-//W3C//DTD SVG 1.1//EN" "http://www.w3.org/Graphics/SVG/1.1/DTD/svg11.dtd" >
<svg xmlns="http://www.w3.org/2000/svg" xmlns:xlink="http://www.w3.org/1999/xlink" version="1.1" viewBox="-10 -40 656 512">
   <path fill="currentColor"
d="M32 -7h16h-16h170l4 9v0l76 151v0h54v0v-64v0v-16v0h32v0v16v0v64v0h64h16v16v0v96v0h80v0v-64v0v-6v0l4 -4v0l80 -96v0l24 20v0l-76 92v0v148v0l76 92v0l-24 20v0l-80 -96v0l-4 -4v0v-6v0v-64v0h-68v0q19 28 20 64q-1 48 -33 79q-31 32 -79 33h-256v0q-48 -1 -79 -33
q-32 -31 -33 -79q1 -47 32 -78v-98v0v-16v0v-16v0v-144v0v-16v0zM272 185v0v0v0v0h-208v0v75v0q22 -11 48 -11h256v0q26 0 48 11v-75v0h-144v0zM182 25h-118h118h-118v128v0h182v0l-64 -128v0zM112 281q-34 1 -57 23v0v0q-22 23 -23 57q1 34 23 57q23 22 57 23h256v0
q34 -1 57 -23q22 -23 23 -57q-1 -34 -23 -57q-23 -22 -57 -23h-256v0zM96 361q2 -22 24 -24q22 2 24 24q-2 22 -24 24q-22 -2 -24 -24v0zM360 337q22 2 24 24q-2 22 -24 24q-22 -2 -24 -24q2 -22 24 -24v0zM256 361q2 -22 24 -24q22 2 24 24q-2 22 -24 24q-22 -2 -24 -24v0z
M200 337q22 2 24 24q-2 22 -24 24q-22 -2 -24 -24q2 -22 24 -24v0z" />
</svg>
