<?xml version="1.0" standalone="no"?>
<!DOCTYPE svg PUBLIC "-//W3C//DTD SVG 1.1//EN" "http://www.w3.org/Graphics/SVG/1.1/DTD/svg11.dtd" >
<svg xmlns="http://www.w3.org/2000/svg" xmlns:xlink="http://www.w3.org/1999/xlink" version="1.1" viewBox="-10 -40 660 512">
   <path fill="currentColor"
d="M352 -7v32v-32v32h-16v0v96v0h16v0v32v0h-352v0v-32v0h16v0v-96v0h-16v0v-32v0h352v0zM304 25h-64h64h-64v96v0h64v0v-96v0zM208 25h-64h64h-64v96v0h64v0v-96v0zM112 25h-64h64h-64v96v0h64v0v-96v0zM384 57h16h-16h119l4 5v0l128 128v0l5 4v0v7v0v160v0v16v0h-16h-48
q-1 41 -28 68t-68 28q-41 -1 -68 -28t-28 -68h-128v0q-1 41 -28 68t-68 28q-41 -1 -68 -28t-28 -68h-48h-16v-16v0v-160v0v-16v0h16h368v-112v0v-16v0zM416 185h169h-169h169l-96 -96v0h-73v0v96v0zM608 217h-576h576h-576v128v0h38v0q10 -28 34 -46q24 -17 56 -18
q32 1 56 18q24 18 35 46h139v0q10 -28 34 -46q24 -17 56 -18q32 1 56 18q24 18 35 46h37v0v-128v0zM224 377q-1 -36 -32 -55q-32 -18 -64 0q-31 19 -32 55q1 36 32 55q32 18 64 0q31 -19 32 -55v0zM480 441q36 -1 55 -32q18 -32 0 -64q-19 -31 -55 -32q-36 1 -55 32
q-18 32 0 64q19 31 55 32v0z" />
</svg>
