<?xml version="1.0" standalone="no"?>
<!DOCTYPE svg PUBLIC "-//W3C//DTD SVG 1.1//EN" "http://www.w3.org/Graphics/SVG/1.1/DTD/svg11.dtd" >
<svg xmlns="http://www.w3.org/2000/svg" xmlns:xlink="http://www.w3.org/1999/xlink" version="1.1" viewBox="-10 -40 596 512">
   <path fill="currentColor"
d="M304 41q-68 2 -113 47v0v0q-45 45 -47 113q-1 48 -33 79q-31 32 -79 33h-16v0v-32v0h16v0q34 -1 57 -23q22 -23 23 -57q2 -82 56 -136t136 -56q49 0 90 22t67 60l-20 23v0q-19 -9 -41 -9q-41 1 -68 28t-28 68q1 34 24 57q22 22 56 23q32 -2 58 -21q21 -15 38 -34
q17 19 38 34q26 19 58 21v32v0q-23 0 -42 -9q-20 -8 -34 -18q-12 -8 -20 -15q-8 7 -20 15q-14 10 -34 18q-19 9 -42 9q-48 -1 -79 -33q-32 -31 -33 -79q1 -54 37 -91q37 -36 91 -37v0v0q-41 -31 -96 -32v0zM134 388q26 19 58 21q32 -2 58 -21q21 -15 38 -34q17 19 38 34
q26 19 58 21q32 -2 58 -21q21 -15 38 -34q17 19 38 34q26 19 58 21v32v0q-23 0 -42 -9q-20 -8 -34 -18q-12 -8 -20 -15q-8 7 -20 15q-14 10 -34 18q-19 9 -42 9t-42 -9q-20 -8 -34 -18q-12 -8 -20 -15q-8 7 -20 15q-14 10 -34 18q-19 9 -42 9t-42 -9q-20 -8 -34 -18
q-12 -8 -20 -15q-8 7 -20 15q-14 10 -34 18q-19 9 -42 9v-32v0q32 -2 58 -21q21 -15 38 -34q17 19 38 34v0z" />
</svg>
