<?xml version="1.0" standalone="no"?>
<!DOCTYPE svg PUBLIC "-//W3C//DTD SVG 1.1//EN" "http://www.w3.org/Graphics/SVG/1.1/DTD/svg11.dtd" >
<svg xmlns="http://www.w3.org/2000/svg" xmlns:xlink="http://www.w3.org/1999/xlink" version="1.1" viewBox="-10 -40 532 512">
   <path fill="currentColor"
d="M192 25v96v-96v96h288v0v-96v0h-288v0zM160 25h-128h128h-128v96v0h128v0v-96v0zM32 153v128v-128v128h128v0v-128v0h-128v0zM32 313v96v-96v96h128v0v-96v0h-128v0zM192 409h288h-288h288v-96v0h-288v0v96v0zM480 281v-128v128v-128h-288v0v128v0h288v0zM0 -7h32h-32
h512v32v0v384v0v32v0h-32h-480v-32v0v-384v0v-32v0z" />
</svg>
