<?xml version="1.0" standalone="no"?>
<!DOCTYPE svg PUBLIC "-//W3C//DTD SVG 1.1//EN" "http://www.w3.org/Graphics/SVG/1.1/DTD/svg11.dtd" >
<svg xmlns="http://www.w3.org/2000/svg" xmlns:xlink="http://www.w3.org/1999/xlink" version="1.1" viewBox="-10 -40 532 512">
   <path fill="currentColor"
d="M272 -23v-16v16v-16h-32v0v16v0v313v0l-101 -100v0l-11 -12v0l-23 23v0l12 11v0l128 128v0l11 12v0l11 -12v0l128 -128v0l12 -11v0l-23 -23v0l-11 12v0l-101 100v0v-313v0zM140 281h-108h108h-140v32v0v128v0v32v0h32h480v-32v0v-128v0v-32v0h-32h-108l-32 32v0h140v0
v128v0h-448v0v-128v0h140v0l-32 -32v0zM432 377q-2 -22 -24 -24q-22 2 -24 24q2 22 24 24q22 -2 24 -24v0z" />
</svg>
