<?xml version="1.0" standalone="no"?>
<!DOCTYPE svg PUBLIC "-//W3C//DTD SVG 1.1//EN" "http://www.w3.org/Graphics/SVG/1.1/DTD/svg11.dtd" >
<svg xmlns="http://www.w3.org/2000/svg" xmlns:xlink="http://www.w3.org/1999/xlink" version="1.1" viewBox="-10 -40 532 512">
   <path fill="currentColor"
d="M256 -7q-61 1 -112 30v0v0q-51 30 -82 82q-30 53 -30 112t30 112q31 52 82 82q51 29 112 30q61 -1 112 -30q51 -30 82 -82q30 -53 30 -112t-30 -112q-31 -52 -82 -82q-51 -29 -112 -30v0zM256 473q-70 -1 -128 -34v0v0q-58 -34 -94 -94q-34 -61 -34 -128t34 -128
q36 -60 94 -94q58 -33 128 -34q70 1 128 34q58 34 94 94q34 61 34 128t-34 128q-36 60 -94 94q-58 33 -128 34v0zM224 217v32v-32v32h-32h-19l83 83v0l83 -83v0h-19h-32v-32v0v-96v0h-64v0v96v0zM256 377l-23 -23l23 23l-23 -23l-105 -105v0v-32v0h32h32v-32v0v-64v0v-32v0
h32h96v32v0v64v0v32v0h32h32v32v0l-105 105v0l-23 23v0z" />
</svg>
