<?xml version="1.0" standalone="no"?>
<!DOCTYPE svg PUBLIC "-//W3C//DTD SVG 1.1//EN" "http://www.w3.org/Graphics/SVG/1.1/DTD/svg11.dtd" >
<svg xmlns="http://www.w3.org/2000/svg" xmlns:xlink="http://www.w3.org/1999/xlink" version="1.1" viewBox="-10 -40 522 512">
   <path fill="currentColor"
d="M67 185q13 -70 64 -114v0v0q52 -45 125 -46q54 1 97 26q44 26 69 70h-54h-16v32v0h16h112v-16v0v-96v0v-16v0h-32v0v16v0v61v0q-30 -50 -80 -79t-112 -30q-86 2 -147 55q-61 54 -75 137h33v0zM256 409q-54 -1 -97 -26v0v0q-44 -26 -69 -70h54h16v-32v0h-16h-112v16v0v96
v0v16v0h32v0v-16v0v-60v0q30 49 80 78t112 30q86 -2 147 -55q61 -54 75 -137h-33v0q-13 70 -64 114q-52 45 -125 46v0z" />
</svg>
