<?xml version="1.0" standalone="no"?>
<!DOCTYPE svg PUBLIC "-//W3C//DTD SVG 1.1//EN" "http://www.w3.org/Graphics/SVG/1.1/DTD/svg11.dtd" >
<svg xmlns="http://www.w3.org/2000/svg" xmlns:xlink="http://www.w3.org/1999/xlink" version="1.1" viewBox="-10 -40 404 512">
   <path fill="currentColor"
d="M0 -7h16h-16h232q51 1 85 35t35 85q-2 60 -47 95q35 13 57 43q21 30 22 70q-1 51 -35 85t-85 35h-184h-80v-32v0h16h16v-192v0v-192v0h-16h-16v-32v0zM64 409h16h-16h200q37 -1 62 -26t26 -62q-1 -37 -26 -62t-62 -26h-32h-168v176v0zM64 201h168h-168h168q37 -1 62 -26
t26 -62q-1 -37 -26 -62t-62 -26h-152h-16v176v0z" />
</svg>
