<?xml version="1.0" standalone="no"?>
<!DOCTYPE svg PUBLIC "-//W3C//DTD SVG 1.1//EN" "http://www.w3.org/Graphics/SVG/1.1/DTD/svg11.dtd" >
<svg xmlns="http://www.w3.org/2000/svg" xmlns:xlink="http://www.w3.org/1999/xlink" version="1.1" viewBox="-10 -40 532 512">
   <path fill="currentColor"
d="M32 25v265v-265v265l85 -84v0l11 -12v0l11 12v0l85 84v0l149 -148v0l11 -12v0l11 12v0l85 84v0v-201v0h-448v0zM32 336v73v-73v73h73v0l96 -96v0l-73 -73v0l-96 96v0zM384 176l-233 233l233 -233l-233 233h329v0v-137v0l-96 -96v0zM0 -7h32h-32h512v32v0v384v0v32v0h-32
h-480v-32v0v-384v0v-32v0zM160 105q-1 -15 -16 -16q-15 1 -16 16q1 15 16 16q15 -1 16 -16v0zM96 105q1 -27 24 -42q24 -12 48 0q23 15 24 42q-1 27 -24 42q-24 12 -48 0q-23 -15 -24 -42v0z" />
</svg>
