<?xml version="1.0" standalone="no"?>
<!DOCTYPE svg PUBLIC "-//W3C//DTD SVG 1.1//EN" "http://www.w3.org/Graphics/SVG/1.1/DTD/svg11.dtd" >
<svg xmlns="http://www.w3.org/2000/svg" xmlns:xlink="http://www.w3.org/1999/xlink" version="1.1" viewBox="-10 -40 532 512">
   <path fill="currentColor"
d="M403 386l-316 -316l316 316l-316 -316q-53 61 -55 147q1 63 31 113q29 51 80 80q50 30 113 31q86 -2 147 -55v0zM425 364q53 -61 55 -147q-1 -63 -31 -113q-29 -51 -80 -80q-50 -30 -113 -31q-86 2 -147 55l316 316v0zM0 217q1 -70 34 -128v0v0q34 -58 94 -94
q61 -34 128 -34t128 34q60 36 94 94q33 58 34 128q-1 70 -34 128q-34 58 -94 94q-61 34 -128 34t-128 -34q-60 -36 -94 -94q-33 -58 -34 -128v0z" />
</svg>
