<?xml version="1.0" standalone="no"?>
<!DOCTYPE svg PUBLIC "-//W3C//DTD SVG 1.1//EN" "http://www.w3.org/Graphics/SVG/1.1/DTD/svg11.dtd" >
<svg xmlns="http://www.w3.org/2000/svg" xmlns:xlink="http://www.w3.org/1999/xlink" version="1.1" viewBox="-10 -40 468 512">
   <path fill="currentColor"
d="M144 -7h16h-16h16v32v0h-16h-112v112v0v16v0h-32v0v-16v0v-128v0v-16v0h16h128zM0 297v-16v16v-16h32v0v16v0v112v0h112h16v32v0h-16h-144v-16v0v-128v0zM432 -7h16h-16h16v16v0v128v0v16v0h-32v0v-16v0v-112v0h-112h-16v-32v0h16h128zM416 297v-16v16v-16h32v0v16v0v128
v0v16v0h-16h-144v-32v0h16h112v-112v0z" />
</svg>
