<?xml version="1.0" standalone="no"?>
<!DOCTYPE svg PUBLIC "-//W3C//DTD SVG 1.1//EN" "http://www.w3.org/Graphics/SVG/1.1/DTD/svg11.dtd" >
<svg xmlns="http://www.w3.org/2000/svg" xmlns:xlink="http://www.w3.org/1999/xlink" version="1.1" viewBox="-10 -40 468 512">
   <path fill="currentColor"
d="M240 70q-9 -10 -22 -24v0v0l-29 -29q-7 -6 -13 -12l-5 5v0q-25 24 -58 64t-57 86q-23 46 -24 86q2 84 56 139q54 54 136 56q82 -2 136 -56q54 -55 56 -139q-1 -36 -18 -73q-18 -38 -43 -71q-26 -32 -45 -51v0v0q-15 13 -20 19l-25 32v0l-25 -32v0zM0 246q1 -51 28 -101v0
v0q26 -50 60 -91v0v0q34 -42 61 -67v0v0q26 -25 27 -26q2 1 23 21l44 44q13 14 22 24q8 -10 23 -22q9 -8 16 -14l8 -6q3 1 35 35q33 35 66 89q32 54 35 114q-2 98 -65 161q-63 64 -159 66q-96 -2 -159 -66t-65 -161v0zM188 143q2 3 16 20v0v0q13 17 29 38l29 36v0l1 1v0
l38 -44v0l13 -15v0l12 16v0q6 10 10 18q1 0 1 1v0v0q21 41 13 84q-9 44 -46 71v0v0v0v0q-36 24 -78 24q-54 0 -92 -33q-37 -34 -38 -92q0 -30 18 -59q17 -28 49 -66l12 -15v0l13 15v0zM250 274v0v0v0v0v0v-1v0v0v0l-1 -1v0l-3 -3v0l-9 -12v0l-29 -36v0q-10 -13 -19 -25
q-8 -10 -14 -17q-22 27 -33 46q-14 24 -14 43q1 45 28 68q27 24 70 25q32 0 60 -18q25 -19 32 -50q7 -30 -8 -61l-36 42v0l-12 15v0l-12 -15v0l12 -10v0q-9 7 -11 8q-2 2 -1 2v0z" />
</svg>
