<?xml version="1.0" standalone="no"?>
<!DOCTYPE svg PUBLIC "-//W3C//DTD SVG 1.1//EN" "http://www.w3.org/Graphics/SVG/1.1/DTD/svg11.dtd" >
<svg xmlns="http://www.w3.org/2000/svg" xmlns:xlink="http://www.w3.org/1999/xlink" version="1.1" viewBox="-10 -40 530 512">
   <path fill="currentColor"
d="M499 228l11 -11l-11 11l11 -11l-10 -11v0l-96 -104v0l-11 -12v0l-24 22v0l11 12v0l72 77v0h-389v0l68 -69v0l12 -11v0l-23 -23v0l-11 12v0l-96 96v0l-12 11v0l12 11v0l96 96v0l11 12v0l23 -23v0l-12 -11v0l-68 -69v0h386v0l-68 69v0l-12 11v0l23 23v0l11 -12v0l96 -96v0z
" />
</svg>
