<?xml version="1.0" standalone="no"?>
<!DOCTYPE svg PUBLIC "-//W3C//DTD SVG 1.1//EN" "http://www.w3.org/Graphics/SVG/1.1/DTD/svg11.dtd" >
<svg xmlns="http://www.w3.org/2000/svg" xmlns:xlink="http://www.w3.org/1999/xlink" version="1.1" viewBox="-10 -40 660 512">
   <path fill="currentColor"
d="M71 254l7 -18l-7 18l7 -18l-13 -15v0q-32 -37 -33 -84q1 -58 50 -100q48 -42 126 -44q78 2 126 44q49 42 50 100q-1 58 -50 100q-48 42 -126 44q-22 0 -42 -4l-7 -2v0l-7 2v0l-100 23v0l19 -46v0zM0 345l38 -9l-38 9l38 -9l122 -28v0q23 5 48 5q88 -2 147 -52
q59 -49 61 -124q-2 -75 -61 -124q-59 -50 -147 -52q-88 2 -147 52q-59 49 -61 124q1 60 41 105l-26 67v0l-15 36v0zM432 441q25 0 49 -5l121 28v0l38 9v0l-14 -36v0l-27 -67v0q40 -45 41 -105q-2 -73 -58 -122q-55 -49 -140 -54q4 16 5 33q72 6 116 47t45 96q-1 47 -33 84
l-13 15v0l7 18v0l19 46v0l-100 -23v0l-7 -1v0l-7 1v0q-20 4 -42 4q-52 0 -91 -20q-40 -21 -62 -53q-17 4 -34 7q26 44 76 71q49 26 111 27v0z" />
</svg>
