<?xml version="1.0" standalone="no"?>
<!DOCTYPE svg PUBLIC "-//W3C//DTD SVG 1.1//EN" "http://www.w3.org/Graphics/SVG/1.1/DTD/svg11.dtd" >
<svg xmlns="http://www.w3.org/2000/svg" xmlns:xlink="http://www.w3.org/1999/xlink" version="1.1" viewBox="-10 -40 532 512">
   <path fill="currentColor"
d="M336 -39h-16h16h-16v32v0h16h121l-244 245v0l-12 11v0l23 23v0l11 -12v0l245 -244v0v121v0v16v0h32v0v-16v0v-160v0v-16v0h-16h-160zM16 -7h-16h16h-16v16v0v448v0v16v0h16h464v-16v0v-192v0v-16v0h-32v0v16v0v176v0h-416v0v-416v0h176h16v-32v0h-16h-192z" />
</svg>
