<?xml version="1.0" standalone="no"?>
<!DOCTYPE svg PUBLIC "-//W3C//DTD SVG 1.1//EN" "http://www.w3.org/Graphics/SVG/1.1/DTD/svg11.dtd" >
<svg xmlns="http://www.w3.org/2000/svg" xmlns:xlink="http://www.w3.org/1999/xlink" version="1.1" viewBox="-10 -40 532 512">
   <path fill="currentColor"
d="M318 245l-18 -5l18 5l-18 -5l-13 13v0l-175 175v0l-67 -67v0l175 -175v0l13 -13v0l-4 -18v0q-5 -16 -5 -34q1 -54 37 -90q37 -37 91 -38q16 0 31 4l-54 53v0l-9 10v0v13v0v48v0v32v0h32h61l10 -9v0l53 -54v0q4 15 4 31q-1 54 -37 91q-37 36 -91 37q-18 0 -34 -4v0z
M112 473l23 -23l-23 23l23 -23l175 -175v0q20 6 42 6q68 -2 113 -47t47 -113q0 -30 -10 -56q-6 -16 -16 -30l-23 23v0l-63 63v0h-16h-32v-32v0v-16v0l63 -63v0l24 -24v0q-15 -9 -31 -15q-26 -10 -56 -10q-68 2 -113 47t-47 113q0 22 6 42l-175 175v0l-23 23v0l23 23v0l66 66
v0l23 23v0zM120 376l23 -23l-23 23l23 -23l-23 -23v0l-23 23v0l23 23v0z" />
</svg>
