<?xml version="1.0" standalone="no"?>
<!DOCTYPE svg PUBLIC "-//W3C//DTD SVG 1.1//EN" "http://www.w3.org/Graphics/SVG/1.1/DTD/svg11.dtd" >
<svg xmlns="http://www.w3.org/2000/svg" xmlns:xlink="http://www.w3.org/1999/xlink" version="1.1" viewBox="-10 -40 532 512">
   <path fill="currentColor"
d="M224 269l-8 -9l8 9l-8 -9l-184 -215v0v-20v0h448v0v20v0l-184 215v0l-8 9v0v12v0v122v0l-64 -56v0v-66v0v-12v0zM0 57l192 224l-192 -224l192 224v80v0l96 84v0l32 28v0v-42v0v-150v0l192 -224v0v-32v0v-32v0h-32h-480v32v0v32v0z" />
</svg>
