<?xml version="1.0" standalone="no"?>
<!DOCTYPE svg PUBLIC "-//W3C//DTD SVG 1.1//EN" "http://www.w3.org/Graphics/SVG/1.1/DTD/svg11.dtd" >
<svg xmlns="http://www.w3.org/2000/svg" xmlns:xlink="http://www.w3.org/1999/xlink" version="1.1" viewBox="-10 -40 532 512">
   <path fill="currentColor"
d="M32 -7h16h-16h64v16v0v144v0h32h16v32v0h-16h-112v-32v0h16h32v-128v0h-16h-16v-32v0zM192 41h16h-16h320v32v0h-16h-304v-32v0zM192 201h16h-16h320v32v0h-16h-304v-32v0zM192 361h16h-16h320v32v0h-16h-304v-32v0zM80 249h5h-5h5q25 1 42 17q16 17 17 43q-1 27 -22 45
l-66 55v0h72h16v32v0h-16h-112v-16v0v-17v0v-7v0l6 -5v0l80 -66v0q10 -9 10 -21t-8 -20t-19 -8h-5v0q-14 0 -23 9t-9 23h-32v0q1 -27 19 -45t45 -19v0z" />
</svg>
