<?xml version="1.0" standalone="no"?>
<!DOCTYPE svg PUBLIC "-//W3C//DTD SVG 1.1//EN" "http://www.w3.org/Graphics/SVG/1.1/DTD/svg11.dtd" >
<svg xmlns="http://www.w3.org/2000/svg" xmlns:xlink="http://www.w3.org/1999/xlink" version="1.1" viewBox="-10 -40 468 512">
   <path fill="currentColor"
d="M0 -7h16h-16h160v32v0h-16h-48v160v0q1 54 37 91q37 36 91 37q54 -1 91 -37q36 -37 37 -91v-160v0h-48h-16v-32v0h16h144v32v0h-16h-48v160v0q-2 68 -47 113t-113 47q-68 -2 -113 -47t-47 -113v-160v0h-48h-16v-32v0zM0 409h16h-16h448v32v0h-16h-432v-32v0z" />
</svg>
