<?xml version="1.0" standalone="no"?>
<!DOCTYPE svg PUBLIC "-//W3C//DTD SVG 1.1//EN" "http://www.w3.org/Graphics/SVG/1.1/DTD/svg11.dtd" >
<svg xmlns="http://www.w3.org/2000/svg" xmlns:xlink="http://www.w3.org/1999/xlink" version="1.1" viewBox="-10 -40 532 512">
   <path fill="currentColor"
d="M96 473l23 -23l-23 23l23 -23l370 -370v0l23 -23v0l-23 -23v0l-50 -50v0l-23 -23v0l-23 23v0l-370 370v0l-23 23v0l23 23v0l50 50v0l23 23v0zM357 167l-51 -51l51 51l-51 -51l110 -110v0l51 51v0l-110 110v0zM334 190l-238 238l238 -238l-238 238l-51 -51v0l238 -238v0
l51 51v0z" />
</svg>
