<?xml version="1.0" standalone="no"?>
<!DOCTYPE svg PUBLIC "-//W3C//DTD SVG 1.1//EN" "http://www.w3.org/Graphics/SVG/1.1/DTD/svg11.dtd" >
<svg xmlns="http://www.w3.org/2000/svg" xmlns:xlink="http://www.w3.org/1999/xlink" version="1.1" viewBox="-10 -40 596 512">
   <path fill="currentColor"
d="M480 57q1 27 19 45v0v0q18 18 45 19v-64v0h-64v0zM448 57h-320h320h-320q-1 41 -28 68t-68 28v128v0q41 1 68 28t28 68h320v0q1 -41 28 -68t68 -28v-128v0q-41 -1 -68 -28t-28 -68v0zM32 377h64h-64h64q-1 -27 -19 -45t-45 -19v64v0zM544 313q-27 1 -45 19v0v0
q-18 18 -19 45h64v0v-64v0zM32 57v64v-64v64q27 -1 45 -19t19 -45h-64v0zM0 25h32h-32h576v32v0v320v0v32v0h-32h-544v-32v0v-320v0v-32v0zM352 217q-1 -36 -32 -55q-32 -18 -64 0q-31 19 -32 55q1 36 32 55q32 18 64 0q31 -19 32 -55v0zM192 217q0 -26 13 -48v0v0
q13 -22 35 -35q23 -13 48 -13t48 13q22 13 35 35t13 48t-13 48t-35 35q-23 13 -48 13t-48 -13q-22 -13 -35 -35t-13 -48v0z" />
</svg>
