<?xml version="1.0" standalone="no"?>
<!DOCTYPE svg PUBLIC "-//W3C//DTD SVG 1.1//EN" "http://www.w3.org/Graphics/SVG/1.1/DTD/svg11.dtd" >
<svg xmlns="http://www.w3.org/2000/svg" xmlns:xlink="http://www.w3.org/1999/xlink" version="1.1" viewBox="-10 -40 531 512">
   <path fill="currentColor"
d="M319 -15l-12 11l12 -11l-12 11l-12 13v0l169 169v0l13 -12v0l11 -12v0l23 23v0l-12 11v0l-24 24v0l-96 96v0l-24 24v0l-11 12v0l-23 -23v0l12 -11v0l12 -13v0l-169 -169v0l-13 12v0l-11 12v0l-23 -23v0l12 -11v0l24 -24v0l96 -96v0l24 -24v0l11 -12v0l23 23v0zM199 105
l169 169l-169 -169l169 169l73 -73v0l-169 -169v0l-73 73v0zM119 450l-23 23l23 -23l-23 23l-23 -23v0l-50 -50v0l-23 -23v0l23 -23v0l98 -98v0l23 -23v0l23 23v0l14 14v0l40 -41v0l23 23v0l-41 40v0l14 14v0l23 23v0l-23 23v0l-98 98v0zM195 329l-51 -51l51 51l-51 -51
l-99 99v0l51 51v0l99 -99v0z" />
</svg>
