<?xml version="1.0" standalone="no"?>
<!DOCTYPE svg PUBLIC "-//W3C//DTD SVG 1.1//EN" "http://www.w3.org/Graphics/SVG/1.1/DTD/svg11.dtd" >
<svg xmlns="http://www.w3.org/2000/svg" xmlns:xlink="http://www.w3.org/1999/xlink" version="1.1" viewBox="-10 -40 596 512">
   <path fill="currentColor"
d="M304 -39v16v-16v16v32v0q103 7 176 69q73 61 92 155l2 14l2 18v0h-18h-14v-1v0l-4 -4v0q-23 -26 -60 -27q-34 1 -57 23q-22 23 -23 57h-16h-16q-1 -34 -23 -57q-23 -22 -57 -23q-34 1 -57 23q-22 23 -23 57h-16h-16q-1 -34 -23 -57q-23 -22 -57 -23q-37 1 -60 27l-4 4v0
v1v0h-8h-24l2 -18v0l2 -14q19 -94 92 -155q73 -62 176 -69v-32v0v-16v0h32v0zM288 41q-90 2 -156 50v0v0q-66 48 -90 124q24 -14 54 -14q31 0 56 15t40 39q15 -24 40 -39t56 -15t56 15t40 39q15 -24 40 -39t56 -15q30 0 54 14q-24 -76 -90 -124t-156 -50v0zM272 268
q8 -3 16 -3t16 3v140v0q-1 27 -19 46q-19 18 -46 19q-40 -1 -59 -36l-2 -5v0l-7 -14v0l28 -14v0l7 14v0l3 5v0q9 17 30 18q14 0 23 -10q10 -9 10 -23v-140v0z" />
</svg>
