<?xml version="1.0" standalone="no"?>
<!DOCTYPE svg PUBLIC "-//W3C//DTD SVG 1.1//EN" "http://www.w3.org/Graphics/SVG/1.1/DTD/svg11.dtd" >
<svg xmlns="http://www.w3.org/2000/svg" xmlns:xlink="http://www.w3.org/1999/xlink" version="1.1" viewBox="-10 -40 468 512">
   <path fill="currentColor"
d="M198 -39h-33h33h-33l26 157v0q1 4 1 8v11v0q-1 20 -14 34q-14 13 -34 14h-64v0q-20 -1 -34 -14q-13 -14 -14 -34v-11v0q0 -4 1 -8l26 -157v0h-33v0l-25 152v0q-1 7 -1 13v11v0q1 34 23 57q23 22 57 23h16v0v240v0v16v0h32v0v-16v0v-240v0h16v0q34 -1 57 -23
q22 -23 23 -57v-11v0q0 -6 -1 -13l-25 -152v0zM151 -39h-32h32h-32l1 17v0l9 170v0v5v0h32v0v-7v0l-9 -170v0l-1 -15v0zM105 -39h-32h32h-32l-1 15v0l-8 170v0l-1 7v0h32v0l1 -5v0l8 -170v0l1 -17v0zM320 137q1 -46 15 -75v0v0q14 -28 32 -43q19 -15 35 -21q11 -4 14 -5v0v0
v0v288v0h-96v0v-144v0zM448 281v-288v288v-288v-32v0h-32v0q-10 -1 -40 14q-31 14 -58 52q-28 39 -30 110v144v0v32v0h32h96v144v0v16v0h32v0v-16v0v-144v0v-16v0v-16v0z" />
</svg>
