<?xml version="1.0" standalone="no"?>
<!DOCTYPE svg PUBLIC "-//W3C//DTD SVG 1.1//EN" "http://www.w3.org/Graphics/SVG/1.1/DTD/svg11.dtd" >
<svg xmlns="http://www.w3.org/2000/svg" xmlns:xlink="http://www.w3.org/1999/xlink" version="1.1" viewBox="-10 -40 660 512">
   <path fill="currentColor"
d="M160 -39h16h-16h320v16v0v80v0h144h16v16v0v80v0v32v0v64v0v32v0v176v0v16v0h-16h-208v0v0h-32h-160v0v0h-208h-16v-16v0v-176v0v-32v0v-64v0v-32v0v-80v0v-16v0h16h144v-80v0v-16v0zM608 89h-128h128h-128v208v0v144v0h128v0v-160v0h-80h-16v-32v0h16h80v-64v0h-80h-16
v-32v0h16h80v-64v0zM32 185v64v-64v64h80h16v32v0h-16h-80v160v0h128v0v-352v0h-128v0v64v0h80h16v32v0h-16h-80zM448 441v-144v144v-144v-304v0h-256v0v448v0h64v0v-112v0v-16v0h16h112v16v0v112v0h64v0zM352 441v-96v96v-96h-64v0v96v0h64v0zM296 25h48h-48h64v16v0v24v0
h24h16v16v0v48v0v16v0h-16h-24v24v0v16v0h-16h-64v-16v0v-24v0h-24h-16v-16v0v-48v0v-16v0h16h24v-24v0v-16v0h16v0zM312 81v16v-16v16h-16h-24v16v0h24h16v16v0v24v0h16v0v-24v0v-16v0h16h24v-16v0h-24h-16v-16v0v-24v0h-16v0v24v0z" />
</svg>
