<?xml version="1.0" standalone="no"?>
<!DOCTYPE svg PUBLIC "-//W3C//DTD SVG 1.1//EN" "http://www.w3.org/Graphics/SVG/1.1/DTD/svg11.dtd" >
<svg xmlns="http://www.w3.org/2000/svg" xmlns:xlink="http://www.w3.org/1999/xlink" version="1.1" viewBox="-10 -40 532 512">
   <path fill="currentColor"
d="M128 -39h16h-16h256v16v0v80v0h96h32v32v0v320v0v32v0h-32h-480v-32v0v-320v0v-32v0h32h96v-80v0v-16v0zM352 -7h-192h192h-192v64v0h192v0v-64v0zM368 89h-224h224h-240v320v0h256v0v-320v0h-16v0zM96 89h-64h64h-64v320v0h64v0v-320v0zM416 409h64h-64h64v-320v0h-64v0
v320v0zM224 137h64h-64h80v16v0v48v0h48h16v16v0v64v0v16v0h-16h-48v48v0v16v0h-16h-80v-16v0v-48v0h-48h-16v-16v0v-64v0v-16v0h16h48v-48v0v-16v0h16v0zM240 217v16v-16v16h-16h-48v32v0h48h16v16v0v48v0h32v0v-48v0v-16v0h16h48v-32v0h-48h-16v-16v0v-48v0h-32v0v48v0z
" />
</svg>
