<?xml version="1.0" standalone="no"?>
<!DOCTYPE svg PUBLIC "-//W3C//DTD SVG 1.1//EN" "http://www.w3.org/Graphics/SVG/1.1/DTD/svg11.dtd" >
<svg xmlns="http://www.w3.org/2000/svg" xmlns:xlink="http://www.w3.org/1999/xlink" version="1.1" viewBox="-10 -40 532 512">
   <path fill="currentColor"
d="M240 25h32h-32h32v-32v0h-32v0v32v0zM208 57v-32v32v-32v-32v0v-32v0h32h64v32v0v32v0v32v0h-32h-64zM64 201h-32h32h-32v32v0h32v0v-32v0zM32 169h32h-32h64v32v0v32v0v32v0h-32h-64v-32v0v-32v0v-32v0h32v0zM240 409v32v-32v32h32v0v-32v0h-32v0zM208 441v-32v32v-32
v-32v0h32h64v32v0v32v0v32v0h-32h-64v-32v0zM448 201v32v-32v32h32v0v-32v0h-32v0zM416 169h32h-32h96v32v0v32v0v32v0h-32h-64v-32v0v-32v0v-32v0zM109 342l-23 22l23 -22l-23 22l23 23v0l23 -23v0l-23 -22v0zM64 342l22 -23l-22 23l22 -23l23 -23v0l22 23v0l23 23v0l23 22
v0l-23 23v0l-23 22v0l-22 23v0l-23 -23v0l-22 -22v0l-23 -23v0l23 -22v0zM380 364l23 23l-23 -23l23 23l23 -23v0l-23 -22v0l-23 22v0zM380 409l-22 -22l22 22l-22 -22l-23 -23v0l23 -22v0l22 -23v0l23 -23v0l23 23v0l22 23v0l23 22v0l-23 23v0l-22 22v0l-23 23v0l-22 -23
h-1zM109 93l23 -23l-23 23l23 -23l-23 -23v0l-23 23v0l23 23v0zM109 138l-23 -23l23 23l-23 -23l-22 -22v0l-23 -23v0l23 -23v0l22 -22v0l23 -23v0l23 23v0l22 22v0l23 23v0l-23 22v0l-22 23v0l-23 23v0z" />
</svg>
