<?xml version="1.0" standalone="no"?>
<!DOCTYPE svg PUBLIC "-//W3C//DTD SVG 1.1//EN" "http://www.w3.org/Graphics/SVG/1.1/DTD/svg11.dtd" >
<svg xmlns="http://www.w3.org/2000/svg" xmlns:xlink="http://www.w3.org/1999/xlink" version="1.1" viewBox="-10 -40 532 512">
   <path fill="currentColor"
d="M128 -39v16v-16v16v345v0l233 -233v0h-201v0v-32v0h233v0l84 -83v0l11 -12v0l23 23v0l-12 11v0l-83 84v0v265v0h80h16v32v0h-16h-80v80v0v16v0h-32v0v-16v0v-345v0l-233 233v0h201v0v32v0h-240h-16v-16v0v-272v0h-80h-16v-32v0h16h80v-80v0v-16v0h32v0z" />
</svg>
