<?xml version="1.0" standalone="no"?>
<!DOCTYPE svg PUBLIC "-//W3C//DTD SVG 1.1//EN" "http://www.w3.org/Graphics/SVG/1.1/DTD/svg11.dtd" >
<svg xmlns="http://www.w3.org/2000/svg" xmlns:xlink="http://www.w3.org/1999/xlink" version="1.1" viewBox="-10 -40 468 512">
   <path fill="currentColor"
d="M416 25v384v-384v384h-384v0v-384v0h384v0zM448 -7h-32h32h-448v32v0v384v0v32v0h32h416v-32v0v-384v0v-32v0zM304 121h-136h136h-152v32v0h16h97l-132 133v0l-12 11v0l23 23v0l11 -12v0l133 -132v0v105v0v16v0h32v0v-16v0v-144v0v-16v0h-16v0z" />
</svg>
