<?xml version="1.0" standalone="no"?>
<!DOCTYPE svg PUBLIC "-//W3C//DTD SVG 1.1//EN" "http://www.w3.org/Graphics/SVG/1.1/DTD/svg11.dtd" >
<svg xmlns="http://www.w3.org/2000/svg" xmlns:xlink="http://www.w3.org/1999/xlink" version="1.1" viewBox="-10 -40 330 512">
   <path fill="currentColor"
d="M160 41q22 -2 24 -24q-2 -22 -24 -24q-22 2 -24 24q2 22 24 24v0zM160 -39q32 1 48 28q16 28 0 56q-16 27 -48 28q-32 -1 -48 -28q-16 -28 0 -56q16 -27 48 -28v0zM99 89h10h-10h122l4 9v0l77 144v0l8 14v0l-29 15v0l-7 -14v0l-50 -94v0v294v0v16v0h-32v0v-16v0v-144v0
h-64v0v144v0v16v0h-32v0v-16v0v-294v0l-50 94v0l-7 14v0l-29 -15v0l8 -14v0l77 -144v0l4 -9v0zM128 281h64h-64h64v-160v0h-64v0v160v0z" />
</svg>
