<?xml version="1.0" standalone="no"?>
<!DOCTYPE svg PUBLIC "-//W3C//DTD SVG 1.1//EN" "http://www.w3.org/Graphics/SVG/1.1/DTD/svg11.dtd" >
<svg xmlns="http://www.w3.org/2000/svg" xmlns:xlink="http://www.w3.org/1999/xlink" version="1.1" viewBox="-10 -40 532 512">
   <path fill="currentColor"
d="M480 25h-448h448h-448v64v0h32h416v-64v0zM480 121h-32h32h-480v-32v0v-64v0v-32v0h32h480v32v0v64v0v32v0h-32v0zM160 185h16h-16h192v32v0h-16h-176v-32v0zM448 153h32h-32h32v256v0v32v0h-32h-416v-32v0v-256v0h32v0v256v0h384v0v-256v0z" />
</svg>
