<?xml version="1.0" standalone="no"?>
<!DOCTYPE svg PUBLIC "-//W3C//DTD SVG 1.1//EN" "http://www.w3.org/Graphics/SVG/1.1/DTD/svg11.dtd" >
<svg xmlns="http://www.w3.org/2000/svg" xmlns:xlink="http://www.w3.org/1999/xlink" version="1.1" viewBox="-10 -40 532 512">
   <path fill="currentColor"
d="M32 217q1 -61 30 -112v0v0q30 -51 82 -82q53 -30 112 -30t112 30q52 31 82 82q29 51 30 112q-1 61 -30 112q-30 51 -82 82q-53 30 -112 30t-112 -30q-52 -31 -82 -82q-29 -51 -30 -112v0zM512 217q-1 -70 -34 -128v0v0q-34 -58 -94 -94q-61 -34 -128 -34t-128 34
q-60 36 -94 94q-33 58 -34 128q1 70 34 128q34 58 94 94q61 34 128 34t128 -34q60 -36 94 -94q33 -58 34 -128v0zM256 249h-32h32h-32v32v0v19v0l-83 -83v0l83 -83v0v19v0v32v0h32h96v64v0h-96v0zM96 217l23 23l-23 -23l23 23l105 105v0h32v0v-32v0v-32v0h32h96v-32v0v-64v0
v-32v0h-32h-96v-32v0v-32v0h-32v0l-105 105v0l-23 23v0z" />
</svg>
