<?xml version="1.0" standalone="no"?>
<!DOCTYPE svg PUBLIC "-//W3C//DTD SVG 1.1//EN" "http://www.w3.org/Graphics/SVG/1.1/DTD/svg11.dtd" >
<svg xmlns="http://www.w3.org/2000/svg" xmlns:xlink="http://www.w3.org/1999/xlink" version="1.1" viewBox="-10 -40 468 512">
   <path fill="currentColor"
d="M416 25v384v-384v384h-384v0v-384v0h384v0zM32 -7h-32h32h-32v32v0v384v0v32v0h32h416v-32v0v-384v0v-32v0h-32h-384zM352 121v29v-29v29l-128 67v0l-128 -67v0v-29v0h256v0zM352 186v127v-127v127h-256v0v-127v0l121 63v0l7 4v0l7 -4v0l121 -63v0zM96 89h-32h32h-32v32
v0v192v0v32v0h32h288v-32v0v-192v0v-32v0h-32h-256z" />
</svg>
