<?xml version="1.0" standalone="no"?>
<!DOCTYPE svg PUBLIC "-//W3C//DTD SVG 1.1//EN" "http://www.w3.org/Graphics/SVG/1.1/DTD/svg11.dtd" >
<svg xmlns="http://www.w3.org/2000/svg" xmlns:xlink="http://www.w3.org/1999/xlink" version="1.1" viewBox="-10 -40 522 512">
   <path fill="currentColor"
d="M352 153v112v-112v112h32v0v-152v0l-152 -152v0h-200h-32v32v0v448v0v32v0h32h80v-32v0h-80v0v-448v0h160v0v144v0v16v0h16h144zM347 121h-123h123h-123v-123v0l123 123v0zM176 313h-16h16h-16v16v0v80v0v64v0h32v0v-48v0h16v0q24 -1 40 -16q15 -16 16 -40
q-1 -24 -16 -40q-16 -15 -40 -16h-32v0zM208 393h-16h16h-16v-48v0h16v0q22 2 24 24q-2 22 -24 24v0zM304 313h-16h16h-16v16v0v128v0v16v0h16h32q20 -1 34 -14q13 -14 14 -34v-64v0q-1 -20 -14 -34q-14 -13 -34 -14h-32v0zM336 441h-16h16h-16v-96v0h16v0q15 1 16 16v64v0
q-1 15 -16 16v0zM416 313v16v-16v16v64v0v64v0v16v0h32v0v-16v0v-48v0h32h16v-32v0h-16h-32v-32v0h32h16v-32v0h-16h-64z" />
</svg>
