<?xml version="1.0" standalone="no"?>
<!DOCTYPE svg PUBLIC "-//W3C//DTD SVG 1.1//EN" "http://www.w3.org/Graphics/SVG/1.1/DTD/svg11.dtd" >
<svg xmlns="http://www.w3.org/2000/svg" xmlns:xlink="http://www.w3.org/1999/xlink" version="1.1" viewBox="-10 -40 532 512">
   <path fill="currentColor"
d="M0 249l37 16l-37 -16l37 16l155 66v0v0v0v46v0v72v0l64 24v0l56 -90v0l-30 -13v0l-39 64v0l-19 -7v0v-50v0v-32v0v0v0l194 83v0l30 13v0l4 -33v0l55 -407v0l5 -40v0l-35 20v0l-442 248v0l-35 20v0zM239 317l229 -268l-229 268l229 -268l-46 346v0l-183 -78v0zM430 44
l-221 260l221 -260l-221 260l-137 -59v0l358 -201v0z" />
</svg>
