<?xml version="1.0" standalone="no"?>
<!DOCTYPE svg PUBLIC "-//W3C//DTD SVG 1.1//EN" "http://www.w3.org/Graphics/SVG/1.1/DTD/svg11.dtd" >
<svg xmlns="http://www.w3.org/2000/svg" xmlns:xlink="http://www.w3.org/1999/xlink" version="1.1" viewBox="-10 -40 468 512">
   <path fill="currentColor"
d="M448 73q-1 34 -23 57v0v0q-23 22 -57 23q-35 -1 -58 -25l-151 76v0q1 6 1 13t-1 14l151 75v0q23 -24 58 -25q34 1 57 23q22 23 23 57q-1 34 -23 57q-23 22 -57 23q-34 -1 -57 -23q-22 -23 -23 -57q0 -15 5 -28l-146 -72v0q-23 34 -67 36q-34 -1 -57 -23q-22 -23 -23 -57
q1 -34 23 -57q23 -22 57 -23q44 2 67 37l146 -73v0q-5 -13 -5 -28q1 -34 23 -57q23 -22 57 -23q34 1 57 23q22 23 23 57v0zM80 265q27 -1 42 -24q12 -24 0 -48q-15 -23 -42 -24q-27 1 -42 24q-12 24 0 48q15 23 42 24v0zM416 73q-1 -27 -24 -42q-24 -12 -48 0q-23 15 -24 42
q1 27 24 42q24 12 48 0q23 -15 24 -42v0zM368 409q27 -1 42 -24q12 -24 0 -48q-15 -23 -42 -24q-27 1 -42 24q-12 24 0 48q15 23 42 24v0z" />
</svg>
