<?xml version="1.0" standalone="no"?>
<!DOCTYPE svg PUBLIC "-//W3C//DTD SVG 1.1//EN" "http://www.w3.org/Graphics/SVG/1.1/DTD/svg11.dtd" >
<svg xmlns="http://www.w3.org/2000/svg" xmlns:xlink="http://www.w3.org/1999/xlink" version="1.1" viewBox="-10 -40 532 512">
   <path fill="currentColor"
d="M464 -39v16v-16v16v32v0h32h16v32v0h-16h-32v32v0v16v0h-32v0v-16v0v-32v0h-32h-16v-32v0h16h32v-32v0v-16v0h32v0zM304 89l-3 3l3 -3l-3 3l-14 14v0l-19 -7v0q-28 -10 -60 -10q-75 2 -124 52q-50 49 -52 124q2 75 52 124q49 50 124 52q75 -2 124 -52q50 -49 52 -124
q0 -32 -10 -60l-7 -19v0l14 -14v0l3 -3v0l-80 -80v0zM407 192l-3 3l3 -3l-3 3q12 33 12 70q-2 88 -61 147t-147 61q-88 -2 -147 -61t-61 -147q2 -88 61 -147t147 -61q37 0 71 12l2 -3v0l23 -22v0l23 22v0l28 29v0l18 -17v0l11 -12v0l23 23v0l-12 11v0l-17 18v0l29 28v0
l22 23v0l-22 23v0zM96 257v8v-8v8h-32v0v-8v0q1 -58 40 -96q38 -39 96 -40h8v0v32v0h-8v0q-44 1 -74 30q-29 30 -30 74v0z" />
</svg>
