<?xml version="1.0" standalone="no"?>
<!DOCTYPE svg PUBLIC "-//W3C//DTD SVG 1.1//EN" "http://www.w3.org/Graphics/SVG/1.1/DTD/svg11.dtd" >
<svg xmlns="http://www.w3.org/2000/svg" xmlns:xlink="http://www.w3.org/1999/xlink" version="1.1" viewBox="-10 -40 404 512">
   <path fill="currentColor"
d="M352 121v320v-320v320h-320v0v-320v0h320v0zM352 89h-320h320h-320v-96v0h320v0v96v0zM384 89v-96v96v-96v-32v0h-32h-352v32v0v96v0v16v0v16v0v320v0v32v0h32h352v-32v0v-320v0v-16v0v-16v0zM72 185q2 22 24 24q22 -2 24 -24q-2 -22 -24 -24q-22 2 -24 24v0zM96 257
q-22 2 -24 24q2 22 24 24q22 -2 24 -24q-2 -22 -24 -24v0zM168 185q2 22 24 24q22 -2 24 -24q-2 -22 -24 -24q-22 2 -24 24v0zM192 257q-22 2 -24 24q2 22 24 24q22 -2 24 -24q-2 -22 -24 -24v0zM264 185q2 22 24 24q22 -2 24 -24q-2 -22 -24 -24q-22 2 -24 24v0zM288 257
q-22 2 -24 24q2 22 24 24q22 -2 24 -24q-2 -22 -24 -24v0zM264 377q2 22 24 24q22 -2 24 -24q-2 -22 -24 -24q-22 2 -24 24v0zM208 361h-128h128h-144v32v0h16h144v-32v0h-16v0z" />
</svg>
