<?xml version="1.0" standalone="no"?>
<!DOCTYPE svg PUBLIC "-//W3C//DTD SVG 1.1//EN" "http://www.w3.org/Graphics/SVG/1.1/DTD/svg11.dtd" >
<svg xmlns="http://www.w3.org/2000/svg" xmlns:xlink="http://www.w3.org/1999/xlink" version="1.1" viewBox="-10 -40 468 512">
   <path fill="currentColor"
d="M83 31q-3 5 -3 10q1 15 16 16q15 -1 16 -16q0 -5 -3 -10l-13 -17v0l-13 17v0zM58 12l18 -24l-18 24l18 -24l20 -27v0l20 27v0l18 24v0q10 13 10 29q-1 20 -14 34q-14 13 -34 14q-20 -1 -34 -14q-13 -14 -14 -34q0 -16 10 -29v0zM211 31q-3 5 -3 10q1 15 16 16
q15 -1 16 -16q0 -5 -3 -10l-13 -17v0l-13 17v0zM186 12l18 -24l-18 24l18 -24l20 -27v0l20 27v0l18 24v0q10 13 10 29q-1 20 -14 34q-14 13 -34 14q-20 -1 -34 -14q-13 -14 -14 -34q0 -16 10 -29v0zM352 14l-13 17l13 -17l-13 17q-3 5 -3 10q1 15 16 16q15 -1 16 -16
q0 -5 -3 -10l-13 -17v0zM332 -12l20 -27l-20 27l20 -27l20 27v0l18 24v0q10 13 10 29q-1 20 -14 34q-14 13 -34 14q-20 -1 -34 -14q-13 -14 -14 -34q0 -16 10 -29l18 -24v0zM32 334l57 -27l-57 27l57 -27l7 -4v0l7 4v0l57 28v0l57 -28v0l7 -4v0l7 4v0l57 28v0l57 -28v0l7 -4
v0l7 4v0l57 27v0v-117v0h-48v0v16v0v16v0h-32v0v-16v0v-16v0h-96v0v16v0v16v0h-32v0v-16v0v-16v0h-96v0v16v0v16v0h-32v0v-16v0v-16v0h-48v0v117v0zM32 369v72v-72v72h384v0v-72v0q-2 -1 -4 -1l-60 -29v0l-57 28v0l-7 4v0l-7 -4v0l-57 -28v0l-57 28v0l-7 4v0l-7 -4v0
l-57 -28v0l-60 28v0l-4 2v0zM32 185h48h-48h48v-48v0v-16v0h32v0v16v0v48v0h96v0v-48v0v-16v0h32v0v16v0v48v0h96v0v-48v0v-16v0h32v0v16v0v48v0h48h32v32v0v224v0v32v0h-32h-416v-32v0v-224v0v-32v0h32v0z" />
</svg>
