<?xml version="1.0" standalone="no"?>
<!DOCTYPE svg PUBLIC "-//W3C//DTD SVG 1.1//EN" "http://www.w3.org/Graphics/SVG/1.1/DTD/svg11.dtd" >
<svg xmlns="http://www.w3.org/2000/svg" xmlns:xlink="http://www.w3.org/1999/xlink" version="1.1" viewBox="-10 -40 596 512">
   <path fill="currentColor"
d="M543 169q1 8 1 16t-1 16h-207h-32v-32v0v-207v0q8 -1 16 -1t16 1q85 7 142 65q58 57 65 142v0zM336 169h175h-175h175q-7 -71 -55 -120q-49 -48 -120 -55v175v0zM224 262v-13v13v-13v-218v0q-70 17 -114 72q-45 55 -46 130q2 88 61 147t147 61q57 -1 103 -27l-142 -142v0
l-9 -10v0zM402 395l23 23l-23 -23l23 23q-12 10 -26 19q-56 35 -127 36q-67 -1 -121 -33t-86 -86t-33 -121q2 -89 55 -153t137 -82q16 -3 32 -4v32v0v223v0l146 146v0zM320 249h45h-45h256q-2 16 -5 32q-18 84 -82 137l-137 -137v0l-32 -32v0zM397 281l93 92l-93 -92l93 92
q35 -39 49 -92h-142v0z" />
</svg>
