<?xml version="1.0" standalone="no"?>
<!DOCTYPE svg PUBLIC "-//W3C//DTD SVG 1.1//EN" "http://www.w3.org/Graphics/SVG/1.1/DTD/svg11.dtd" >
<svg xmlns="http://www.w3.org/2000/svg" xmlns:xlink="http://www.w3.org/1999/xlink" version="1.1" viewBox="-10 -40 596 512">
   <path fill="currentColor"
d="M544 89v256v-256v256h-512v0v-256v0h512v0zM576 57h-32h32h-576v32v0v256v0v32v0h32h544v-32v0v-256v0v-32v0zM224 153v128v-128v128h-128v0v-128v0h128v0zM256 121h-32h32h-192v32v0v128v0v32v0h32h160v-32v0v-128v0v-32v0z" />
</svg>
