<?xml version="1.0" standalone="no"?>
<!DOCTYPE svg PUBLIC "-//W3C//DTD SVG 1.1//EN" "http://www.w3.org/Graphics/SVG/1.1/DTD/svg11.dtd" >
<svg xmlns="http://www.w3.org/2000/svg" xmlns:xlink="http://www.w3.org/1999/xlink" version="1.1" viewBox="-10 -40 532 512">
   <path fill="currentColor"
d="M352 185q-1 -27 -19 -45v0v0q-18 -18 -45 -19h-32h-32q-27 1 -45 19t-19 45v56v0v32v0h27v0l13 120v0h112v0l13 -120v0h27v0v-32v0v-56v0zM320 185v56v-56v56h-23v0l-3 29v0l-11 91v0h-54v0l-11 -91v0l-3 -29v0h-23v0v-56v0q0 -14 9 -23t23 -9h64v0q14 0 23 9t9 23v0z
M224 25q0 -14 9 -23v0v0q9 -9 23 -9t23 9t9 23t-9 23t-23 9t-23 -9t-9 -23v0zM256 89q36 -1 55 -32q18 -32 0 -64q-19 -31 -55 -32q-36 1 -55 32q-18 32 0 64q19 31 55 32v0zM32 387q-1 -1 4 -7q4 -5 17 -12q26 -14 74 -23l-7 -32v0q-50 10 -82 27q-16 8 -26 19
q-11 11 -12 28q3 27 26 41q22 14 56 24q70 20 174 21q104 -1 174 -21q34 -10 56 -24q23 -14 26 -41q-1 -16 -12 -28q-10 -11 -26 -19q-32 -17 -83 -27l-6 32v0q48 9 74 23q12 7 17 12q4 6 4 7q2 3 -12 14q-15 11 -47 20q-65 19 -165 20q-100 -1 -165 -20q-32 -9 -47 -20
q-14 -11 -12 -14v0z" />
</svg>
