<?xml version="1.0" standalone="no"?>
<!DOCTYPE svg PUBLIC "-//W3C//DTD SVG 1.1//EN" "http://www.w3.org/Graphics/SVG/1.1/DTD/svg11.dtd" >
<svg xmlns="http://www.w3.org/2000/svg" xmlns:xlink="http://www.w3.org/1999/xlink" version="1.1" viewBox="-10 -40 532 512">
   <path fill="currentColor"
d="M32 25v128v-128v128h448v0v-128v0h-448v0zM0 -7h32h-32h512v32v0v128v0v32v0h-32h-480v-32v0v-128v0v-32v0zM32 281v128v-128v128h448v0v-128v0h-448v0zM0 249h32h-32h512v32v0v128v0v32v0h-32h-480v-32v0v-128v0v-32v0zM304 345q2 -22 24 -24q22 2 24 24q-2 22 -24 24
q-22 -2 -24 -24v0zM328 65q22 2 24 24q-2 22 -24 24q-22 -2 -24 -24q2 -22 24 -24v0zM384 345q2 -22 24 -24q22 2 24 24q-2 22 -24 24q-22 -2 -24 -24v0zM408 65q22 2 24 24q-2 22 -24 24q-22 -2 -24 -24q2 -22 24 -24v0z" />
</svg>
