<?xml version="1.0" standalone="no"?>
<!DOCTYPE svg PUBLIC "-//W3C//DTD SVG 1.1//EN" "http://www.w3.org/Graphics/SVG/1.1/DTD/svg11.dtd" >
<svg xmlns="http://www.w3.org/2000/svg" xmlns:xlink="http://www.w3.org/1999/xlink" version="1.1" viewBox="-10 -40 458 512">
   <path fill="currentColor"
d="M37 126l59 -60l-59 60l59 -60v-41v0v-16v0v-32v0v-16v0h16h112v16v0v16v0h48h16v16v0v16v0h48h16v16v0v16v0h48h16v16v0v64v0v16v0v16v0v48v0q0 38 -18 69q-17 31 -46 51v120v0v16v0h-32v0v-16v0v-129v0v-9v0l8 -5v0q25 -15 41 -40q15 -25 15 -57v-48v0v-16v0v-16v0v-48
v0h-48h-16v-16v0v-16v0h-48h-16v-16v0v-16v0h-32h-32v-16v0v-16v0h-64v0v16v0v16v0v48v0v96v0v16v0h-32v0v-16v0v-57v0l-32 32v0v73v0v16v0q1 37 24 63t58 32l14 2v0v14v0v113v0v16v0h-32v0v-16v0v-100v0q-42 -11 -69 -45q-26 -33 -27 -79v-16v0v-80v0v-7v0l5 -4v0z" />
</svg>
