<?xml version="1.0" standalone="no"?>
<!DOCTYPE svg PUBLIC "-//W3C//DTD SVG 1.1//EN" "http://www.w3.org/Graphics/SVG/1.1/DTD/svg11.dtd" >
<svg xmlns="http://www.w3.org/2000/svg" xmlns:xlink="http://www.w3.org/1999/xlink" version="1.1" viewBox="-10 -40 468 512">
   <path fill="currentColor"
d="M160 57v32v-32v32h128v0v-32v0q-1 -27 -19 -45t-45 -19q-27 1 -45 19t-19 45v0zM128 121h-96h96h-96v320v0h384v0v-320v0h-96v0v80v0v16v0h-32v0v-16v0v-80v0h-128v0v80v0v16v0h-32v0v-16v0v-80v0zM128 89v-32v32v-32q1 -41 28 -68t68 -28q41 1 68 28t28 68v32v0h96h32
v32v0v320v0v32v0h-32h-416v-32v0v-320v0v-32v0h32h96z" />
</svg>
