<?xml version="1.0" standalone="no"?>
<!DOCTYPE svg PUBLIC "-//W3C//DTD SVG 1.1//EN" "http://www.w3.org/Graphics/SVG/1.1/DTD/svg11.dtd" >
<svg xmlns="http://www.w3.org/2000/svg" xmlns:xlink="http://www.w3.org/1999/xlink" version="1.1" viewBox="-10 -40 532 512">
   <path fill="currentColor"
d="M280 316l22 13l-22 -13l22 13l17 -18v0l41 -40v0l116 46v0l-23 124v0h-5v0q-116 -1 -210 -57q-94 -55 -149 -149q-56 -94 -57 -210v-5v0l124 -23v0l47 116v0l-41 41v0l-17 17v0l12 22v0q45 78 124 123h-1zM512 297l-160 -64l160 64l-160 -64l-56 56v0q-70 -42 -112 -112
l56 -56v0l-64 -160v0l-176 32v0v32v0q1 125 61 226t161 161t226 61h32v0l32 -176v0zM256 -7q63 1 113 31v0v0q51 29 80 80v0v0q30 50 31 113h32v0q-1 -72 -35 -129q-34 -58 -92 -92q-57 -34 -129 -35v32v0zM288 217q14 0 23 -9v0v0q9 -9 9 -23t-9 -23t-23 -9t-23 9t-9 23
t9 23t23 9v0zM384 217h32h-32h32q-2 -68 -47 -113t-113 -47v32v0q54 1 91 37q36 37 37 91v0z" />
</svg>
