<?xml version="1.0" standalone="no"?>
<!DOCTYPE svg PUBLIC "-//W3C//DTD SVG 1.1//EN" "http://www.w3.org/Graphics/SVG/1.1/DTD/svg11.dtd" >
<svg xmlns="http://www.w3.org/2000/svg" xmlns:xlink="http://www.w3.org/1999/xlink" version="1.1" viewBox="-10 -40 532 512">
   <path fill="currentColor"
d="M480 201v16v-16v16h32v0v-16v0q-1 -78 -39 -140t-101 -98l-16 28v0q56 32 90 87q33 54 34 123v0zM96 201q2 -61 42 -102v0v0q41 -40 102 -42q61 2 102 42q40 41 42 102q0 36 -16 65q-15 30 -42 50l-6 5v0v8v0v16v0q-1 41 -28 68t-68 28h-16h-16v32v0h16h16q54 -1 91 -37
q36 -37 37 -91v-8v0q30 -25 47 -60t17 -76q-2 -75 -52 -124q-49 -50 -124 -52q-75 2 -124 52q-50 49 -52 124v16v0h32v0v-16v0zM160 337q22 -2 24 -24q-2 -22 -24 -24q-22 2 -24 24q2 22 24 24v0zM32 465q22 -2 24 -24q-2 -22 -24 -24q-22 2 -24 24q2 22 24 24v0zM64 322
l-23 23l23 -23l-23 23l12 11v0l64 64v0l11 12v0l23 -23v0l-12 -11v0l-64 -64v0l-11 -12v0zM160 201q1 -34 23 -57v0v0q23 -22 57 -23q34 1 57 23q22 23 23 57v16v0h32v0v-16v0q-1 -48 -33 -79q-31 -32 -79 -33q-48 1 -79 33q-32 31 -33 79v16v0h32v0v-16v0z" />
</svg>
