<?xml version="1.0" standalone="no"?>
<!DOCTYPE svg PUBLIC "-//W3C//DTD SVG 1.1//EN" "http://www.w3.org/Graphics/SVG/1.1/DTD/svg11.dtd" >
<svg xmlns="http://www.w3.org/2000/svg" xmlns:xlink="http://www.w3.org/1999/xlink" version="1.1" viewBox="-10 -40 531 512">
   <path fill="currentColor"
d="M499 -4l-56 56l56 -56l-56 56l-11 12v0l-23 -23v0l12 -11v0l56 -56v0l11 -12v0l23 23v0l-12 11v0zM187 308l-152 152l152 -152l-152 152l-11 12v0l-23 -23v0l12 -11v0l152 -152v0l11 -12v0l23 23v0l-12 11v0zM240 57q-61 2 -102 42v0v0q-40 41 -42 102v16v0h-32v0v-16v0
q2 -75 52 -124q49 -50 124 -52q75 2 124 52q50 49 52 124q0 41 -17 76t-47 60v8v0q-1 54 -37 91q-37 36 -91 37h-16h-16v-32v0h16h16q41 -1 68 -28t28 -68v-16v0v-8v0l6 -5v0q27 -20 42 -50q16 -29 16 -65q-2 -61 -42 -102q-41 -40 -102 -42v0zM240 121q-34 1 -57 23v0v0
q-22 23 -23 57v16v0h-32v0v-16v0q1 -48 33 -79q31 -32 79 -33q48 1 79 33q32 31 33 79v16v0h-32v0v-16v0q-1 -34 -23 -57q-23 -22 -57 -23v0z" />
</svg>
