<?xml version="1.0" standalone="no"?>
<!DOCTYPE svg PUBLIC "-//W3C//DTD SVG 1.1//EN" "http://www.w3.org/Graphics/SVG/1.1/DTD/svg11.dtd" >
<svg xmlns="http://www.w3.org/2000/svg" xmlns:xlink="http://www.w3.org/1999/xlink" version="1.1" viewBox="-10 -40 652 512">
   <path fill="currentColor"
d="M28 -31l12 10l-12 -10l12 10l580 451v0l12 10v0l-20 25v0l-12 -10v0l-579 -451v0l-13 -10v0l20 -25v0zM576 217q-14 36 -47 83l-25 -19v0q24 -35 37 -64q-11 -26 -32 -57t-51 -60q-33 -33 -76 -54q-43 -20 -94 -21q-46 0 -85 18l-29 -22v0q51 -27 114 -28q79 2 138 41
q60 40 97 92q38 52 53 91v0zM0 217v0v0v0v0v0v0v0zM288 89q53 1 89 36v0v0q35 34 39 86l-39 -31v0q-10 -23 -29 -38q-20 -16 -45 -20l-39 -31v0q12 -2 24 -2v0zM106 125l320 256l-320 -256l320 256l13 10v0l-20 25v0l-13 -10v0l-320 -256v0l-12 -10v0l20 -25v0l12 10v0z
M78 187l12 10l-12 -10l12 10l250 200v0l13 10v0l-20 25v0l-13 -10v0l-250 -200v0l-12 -10v0l20 -25v0zM106 297l124 100l-124 -100l124 100l13 10v0l-20 25v0l-13 -10v0l-124 -100v0l-12 -10v0l20 -25v0l12 10v0z" />
</svg>
