<?xml version="1.0" standalone="no"?>
<!DOCTYPE svg PUBLIC "-//W3C//DTD SVG 1.1//EN" "http://www.w3.org/Graphics/SVG/1.1/DTD/svg11.dtd" >
<svg xmlns="http://www.w3.org/2000/svg" xmlns:xlink="http://www.w3.org/1999/xlink" version="1.1" viewBox="-10 -40 596 512">
   <path fill="currentColor"
d="M544 25v384v-384v384h-512v0v-384v0h512v0zM32 -7h-32h32h-32v32v0v384v0v32v0h32h544v-32v0v-384v0v-32v0h-32h-512zM160 153q0 -14 9 -23v0v0q9 -9 23 -9t23 9t9 23t-9 23t-23 9t-23 -9t-9 -23v0zM256 153q-1 -36 -32 -55q-32 -18 -64 0q-31 19 -32 55q1 36 32 55
q32 18 64 0q31 -19 32 -55v0zM135 281h114h-114h114l21 64v0h34v0l-32 -96v0h-160v0l-32 96v0h34v0l21 -64v0zM352 121h-16h16h-16v32v0h16h144v-32v0h-16h-128zM352 185h-16h16h-16v32v0h16h144v-32v0h-16h-128zM352 249h-16h16h-16v32v0h16h144v-32v0h-16h-128z" />
</svg>
