<?xml version="1.0" standalone="no"?>
<!DOCTYPE svg PUBLIC "-//W3C//DTD SVG 1.1//EN" "http://www.w3.org/Graphics/SVG/1.1/DTD/svg11.dtd" >
<svg xmlns="http://www.w3.org/2000/svg" xmlns:xlink="http://www.w3.org/1999/xlink" version="1.1" viewBox="-10 -40 404 512">
   <path fill="currentColor"
d="M32 -7v448v-448v448h320v0v-448v0h-320v0zM0 -39h32h-32h384v32v0v448v0v32v0h-32h-352v-32v0v-448v0v-32v0zM128 25h16h-16h128v32v0h-16h-112v-32v0zM224 185q0 -14 -9 -23v0v0q-9 -9 -23 -9t-23 9t-9 23t9 23t23 9t23 -9t9 -23v0zM128 185q1 -36 32 -55q32 -18 64 0
q31 19 32 55q-1 36 -32 55q-32 18 -64 0q-31 -19 -32 -55v0zM135 313l-21 64l21 -64l-21 64h-34v0l32 -96v0h160v0l32 96v0h-34v0l-21 -64v0h-114v0z" />
</svg>
