<?xml version="1.0" standalone="no"?>
<!DOCTYPE svg PUBLIC "-//W3C//DTD SVG 1.1//EN" "http://www.w3.org/Graphics/SVG/1.1/DTD/svg11.dtd" >
<svg xmlns="http://www.w3.org/2000/svg" xmlns:xlink="http://www.w3.org/1999/xlink" version="1.1" viewBox="-10 -40 532 512">
   <path fill="currentColor"
d="M480 -7h-320h320h-320v64v0h-32v0v-64v0v-32v0h32h352v32v0v320v0v32v0h-32h-64v-32v0h64v0v-320v0zM352 121h-320h320h-320v96v0h320v0v-96v0zM32 441h320h-320h320v-192v0h-320v0v192v0zM32 89h320h-320h352v32v0v320v0v32v0h-32h-352v-32v0v-320v0v-32v0h32v0z" />
</svg>
