<?xml version="1.0" standalone="no"?>
<!DOCTYPE svg PUBLIC "-//W3C//DTD SVG 1.1//EN" "http://www.w3.org/Graphics/SVG/1.1/DTD/svg11.dtd" >
<svg xmlns="http://www.w3.org/2000/svg" xmlns:xlink="http://www.w3.org/1999/xlink" version="1.1" viewBox="-10 -40 532 512">
   <path fill="currentColor"
d="M37 217l110 -192l-110 192l110 -192h218v0l110 192v0l-110 192v0h-218v0l-110 -192v0zM128 -7l-128 224l128 -224l-128 224l128 224v0h256v0l128 -224v0l-128 -224v0h-256v0zM272 121h-32h32h-32v16v0v64v0h-64h-16v32v0h16h64v64v0v16v0h32v0v-16v0v-64v0h64h16v-32v0
h-16h-64v-64v0v-16v0z" />
</svg>
