<?xml version="1.0" standalone="no"?>
<!DOCTYPE svg PUBLIC "-//W3C//DTD SVG 1.1//EN" "http://www.w3.org/Graphics/SVG/1.1/DTD/svg11.dtd" >
<svg xmlns="http://www.w3.org/2000/svg" xmlns:xlink="http://www.w3.org/1999/xlink" version="1.1" viewBox="-10 -40 532 512">
   <path fill="currentColor"
d="M0 473l7 -34l-7 34l7 -34l25 -126v0l329 -329v0l23 -23v0l23 23v0l82 82v0l23 23v0l-23 23v0l-329 329v0l-126 25v0l-34 7v0zM144 412l254 -254l-254 254l254 -254l-83 -83v0l-253 254v0l-21 103v0l103 -20v0zM421 135l46 -46l-46 46l46 -46l-83 -83v0l-46 46v0l83 83v0z
" />
</svg>
