<?xml version="1.0" standalone="no"?>
<!DOCTYPE svg PUBLIC "-//W3C//DTD SVG 1.1//EN" "http://www.w3.org/Graphics/SVG/1.1/DTD/svg11.dtd" >
<svg xmlns="http://www.w3.org/2000/svg" xmlns:xlink="http://www.w3.org/1999/xlink" version="1.1" viewBox="-10 -40 532 512">
   <path fill="currentColor"
d="M272 265v16v-16v16h-32v0v-16v0v-241v0l-85 84v0l-11 12v0l-23 -23v0l12 -11v0l112 -112v0l11 -12v0l11 12v0l112 112v0l12 11v0l-23 23v0l-11 -12v0l-85 -84v0v241v0zM32 281h112h-112h112l32 64v0h160v0l32 -64v0h112h32v32v0v128v0v32v0h-32h-480v-32v0v-128v0v-32v0
h32v0zM365 359l-9 18l9 -18l-9 18h-20h-180l-9 -18v0l-23 -46v0h-92v0v128v0h448v0v-128v0h-92v0l-23 46v0z" />
</svg>
