<?xml version="1.0" standalone="no"?>
<!DOCTYPE svg PUBLIC "-//W3C//DTD SVG 1.1//EN" "http://www.w3.org/Graphics/SVG/1.1/DTD/svg11.dtd" >
<svg xmlns="http://www.w3.org/2000/svg" xmlns:xlink="http://www.w3.org/1999/xlink" version="1.1" viewBox="-10 -40 404 512">
   <path fill="currentColor"
d="M352 441h-320h320h-320v-448v0h160v0v144v0v16v0h16h144v288v0zM224 -2l123 123l-123 -123l123 123h-123v0v-123v0zM232 -39h-200h200h-232v32v0v448v0v32v0h32h352v-32v0v-328v0l-152 -152v0zM127 210l-22 22l22 -22l-22 22l11 12v0l53 53v0l-53 53v0l-11 12v0l22 22v0
l12 -11v0l53 -53v0l53 53v0l12 11v0l22 -22v0l-11 -12v0l-53 -53v0l53 -53v0l11 -12v0l-22 -22v0l-12 11v0l-53 53v0l-53 -53v0l-12 -11v0z" />
</svg>
