<?xml version="1.0" standalone="no"?>
<!DOCTYPE svg PUBLIC "-//W3C//DTD SVG 1.1//EN" "http://www.w3.org/Graphics/SVG/1.1/DTD/svg11.dtd" >
<svg xmlns="http://www.w3.org/2000/svg" xmlns:xlink="http://www.w3.org/1999/xlink" version="1.1" viewBox="-10 -40 522 512">
   <path fill="currentColor"
d="M336 -7h-16h16h-16v32v0h16h89l-169 169v0l-169 -169v0h89h16v-32v0h-16h-144v16v0v128v0v16v0h32v0v-16v0v-89v0l169 169v0l-169 169v0v-89v0v-16v0h-32v0v16v0v128v0v16v0h16h144v-32v0h-16h-89l169 -169v0l169 169v0h-89h-16v32v0h16h144v-16v0v-128v0v-16v0h-32v0v16
v0v89v0l-169 -169v0l169 -169v0v89v0v16v0h32v0v-16v0v-128v0v-16v0h-16h-128z" />
</svg>
