<?xml version="1.0" standalone="no"?>
<!DOCTYPE svg PUBLIC "-//W3C//DTD SVG 1.1//EN" "http://www.w3.org/Graphics/SVG/1.1/DTD/svg11.dtd" >
<svg xmlns="http://www.w3.org/2000/svg" xmlns:xlink="http://www.w3.org/1999/xlink" version="1.1" viewBox="-10 -40 468 512">
   <path fill="currentColor"
d="M32 409h384h-384h384v-384v0h-384v0v384v0zM0 441v-32v32v-32v-384v0v-32v0h32h416v32v0v384v0v32v0h-32h-416zM101 206l96 -96l-96 96l96 -96l11 -12v0l23 23v0l-12 11v0l-68 69v0h185h16v32v0h-16h-185l68 69v0l12 11v0l-23 23v0l-11 -12v0l-96 -96v0l-12 -11v0l12 -11
v0z" />
</svg>
