<?xml version="1.0" standalone="no"?>
<!DOCTYPE svg PUBLIC "-//W3C//DTD SVG 1.1//EN" "http://www.w3.org/Graphics/SVG/1.1/DTD/svg11.dtd" >
<svg xmlns="http://www.w3.org/2000/svg" xmlns:xlink="http://www.w3.org/1999/xlink" version="1.1" viewBox="-10 -40 468 512">
   <path fill="currentColor"
d="M208 169h-32h32h-32v-32v0v-48v0h-18v0l-115 128v0l115 128v0h18v0v-48v0v-32v0h32h112v-96v0h-112v0zM208 57v32v-32v32v16v0v32v0h32h112v32v0v96v0v32v0h-32h-112v32v0v16v0v32v0h-32h-32l-144 -160v0l144 -160v0h32h32zM448 393v16v-16v16h-32v0v-16v0v-352v0v-16v0
h32v0v16v0v352v0z" />
</svg>
