<?xml version="1.0" standalone="no"?>
<!DOCTYPE svg PUBLIC "-//W3C//DTD SVG 1.1//EN" "http://www.w3.org/Graphics/SVG/1.1/DTD/svg11.dtd" >
<svg xmlns="http://www.w3.org/2000/svg" xmlns:xlink="http://www.w3.org/1999/xlink" version="1.1" viewBox="-10 -40 404 512">
   <path fill="currentColor"
d="M240 233v32v-32v32h32h48v18v0l-128 115v0l-128 -115v0v-18v0h48h32v-32v0v-112v0h96v0v112v0zM352 233h-32h32h-80v-32v0v-80v0v-32v0h-32h-128v32v0v80v0v32v0h-32h-48v32v0v32v0l160 144v0l160 -144v0v-32v0v-32v0zM16 -7h-16h16h-16v32v0h16h368v-32v0h-16h-352z" />
</svg>
