<?xml version="1.0" standalone="no"?>
<!DOCTYPE svg PUBLIC "-//W3C//DTD SVG 1.1//EN" "http://www.w3.org/Graphics/SVG/1.1/DTD/svg11.dtd" >
<svg xmlns="http://www.w3.org/2000/svg" xmlns:xlink="http://www.w3.org/1999/xlink" version="1.1" viewBox="-10 -40 404 512">
   <path fill="currentColor"
d="M16 25h-16h16h-16v-32v0h16h368v32v0h-16h-352zM240 297v-32v32v-32h32h48v-18v0l-128 -115v0l-128 115v0v18v0h48h32v32v0v112v0h96v0v-112v0zM352 297h-32h32h-80v32v0v80v0v32v0h-32h-128v-32v0v-80v0v-32v0h-32h-48v-32v0v-32v0l160 -144v0l160 144v0v32v0v32v0z" />
</svg>
