<?xml version="1.0" standalone="no"?>
<!DOCTYPE svg PUBLIC "-//W3C//DTD SVG 1.1//EN" "http://www.w3.org/Graphics/SVG/1.1/DTD/svg11.dtd" >
<svg xmlns="http://www.w3.org/2000/svg" xmlns:xlink="http://www.w3.org/1999/xlink" version="1.1" viewBox="-10 -40 650 512">
   <path fill="currentColor"
d="M128 26l11 12l-11 -12l11 12l80 80v0l12 11v0l-23 23v0l-11 -12v0l-53 -52v0v257v0h192h16v32v0h-16h-224v-16v0v-273v0l-53 52v0l-11 12v0l-23 -23v0l12 -11v0l80 -80v0l11 -12v0zM528 346l53 -52l-53 52l53 -52l11 -12v0l23 23v0l-12 11v0l-80 80v0l-11 12v0l-11 -12v0
l-80 -80v0l-12 -11v0l23 -23v0l11 12v0l53 52v0v-257v0h-192h-16v-32v0h16h224v16v0v273v0z" />
</svg>
