<?xml version="1.0" standalone="no"?>
<!DOCTYPE svg PUBLIC "-//W3C//DTD SVG 1.1//EN" "http://www.w3.org/Graphics/SVG/1.1/DTD/svg11.dtd" >
<svg xmlns="http://www.w3.org/2000/svg" xmlns:xlink="http://www.w3.org/1999/xlink" version="1.1" viewBox="-10 -40 596 512">
   <path fill="currentColor"
d="M373 27l-12 -11l12 11l-12 -11l22 -24v0l12 11v0l168 154v0l13 12v0l-13 12v0l-168 154v0l-12 11v0l-22 -24v0l12 -11v0l155 -142v0l-155 -142v0zM128 441q-1 0 -17 -8v0v0q-17 -8 -39 -25q-27 -21 -49 -56t-23 -87q2 -75 52 -124q49 -50 124 -52h48h32v-32v0v-32v0v-32
v0h32v0l168 154v0l24 22v0l-24 22v0l-168 154v0h-32v0v-32v0v-32v0v-32v0h-32h-16q-48 1 -79 33q-32 31 -33 79q0 15 4 27q7 25 17 39t11 14v0zM32 265q2 57 32 90q4 -59 44 -98t100 -40h48h32v32v0v53v0l145 -133v0l-145 -133v0v53v0v32v0h-32h-80q-61 2 -102 42
q-40 41 -42 102v0z" />
</svg>
