<?xml version="1.0" standalone="no"?>
<!DOCTYPE svg PUBLIC "-//W3C//DTD SVG 1.1//EN" "http://www.w3.org/Graphics/SVG/1.1/DTD/svg11.dtd" >
<svg xmlns="http://www.w3.org/2000/svg" xmlns:xlink="http://www.w3.org/1999/xlink" version="1.1" viewBox="-10 -40 596 512">
   <path fill="currentColor"
d="M352 89q1 -41 28 -68v0v0q27 -27 68 -28q41 1 68 28t28 68v80v0v16v0h32v0v-16v0v-80v0q-1 -54 -37 -91q-37 -36 -91 -37q-54 1 -91 37q-36 37 -37 91v64v0h-288h-32v32v0v256v0v32v0h32h416v-32v0v-256v0v-32v0h-32h-64v-64v0zM336 185h80h-80h80v256v0h-384v0v-256v0
h304v0z" />
</svg>
