<?xml version="1.0" standalone="no"?>
<!DOCTYPE svg PUBLIC "-//W3C//DTD SVG 1.1//EN" "http://www.w3.org/Graphics/SVG/1.1/DTD/svg11.dtd" >
<svg xmlns="http://www.w3.org/2000/svg" xmlns:xlink="http://www.w3.org/1999/xlink" version="1.1" viewBox="-10 -40 522 512">
   <path fill="currentColor"
d="M240 2v429v-429v429q-60 -31 -98 -75t-59 -94q-22 -53 -29 -102q-8 -49 -5 -84l191 -74v0zM272 431v-429v429v-429l192 74v0q2 35 -6 84q-7 49 -29 102q-21 50 -59 94t-98 75v0zM496 74l-2 -20l2 20l-2 -20l-19 -8v0l-207 -80v0l-12 -5v0l-12 5v0l-207 80v0l-19 8v0
l-1 20v0q-3 38 5 91t32 110t70 108q46 52 119 85l13 5v0l13 -5v0q73 -33 119 -85q46 -51 70 -108t32 -110t5 -91h1z" />
</svg>
