<?xml version="1.0" standalone="no"?>
<!DOCTYPE svg PUBLIC "-//W3C//DTD SVG 1.1//EN" "http://www.w3.org/Graphics/SVG/1.1/DTD/svg11.dtd" >
<svg xmlns="http://www.w3.org/2000/svg" xmlns:xlink="http://www.w3.org/1999/xlink" version="1.1" viewBox="-10 -40 468 512">
   <path fill="currentColor"
d="M416 25v384v-384v384h-384v0v-384v0h384v0zM32 -7h-32h32h-32v32v0v384v0v32v0h32h416v-32v0v-384v0v-32v0h-32h-384zM160 89h-32h32h-32v16v0v48v0h-24h-16v32v0h16h96v-32v0h-16h-24v-48v0v-16v0zM160 217h-32h32h-32v16v0v96v0v16v0h32v0v-16v0v-96v0v-16v0zM320 89
h-32h32h-32v16v0v112v0h-24h-16v32v0h16h96v-32v0h-16h-24v-112v0v-16v0zM320 281h-32h32h-32v16v0v32v0v16v0h32v0v-16v0v-32v0v-16v0z" />
</svg>
