<?xml version="1.0" standalone="no"?>
<!DOCTYPE svg PUBLIC "-//W3C//DTD SVG 1.1//EN" "http://www.w3.org/Graphics/SVG/1.1/DTD/svg11.dtd" >
<svg xmlns="http://www.w3.org/2000/svg" xmlns:xlink="http://www.w3.org/1999/xlink" version="1.1" viewBox="-10 -40 596 512">
   <path fill="currentColor"
d="M0 57v-32v32v-32h32h544v32v0v80v0v32v0q-20 1 -34 14q-13 14 -14 34q1 20 14 34q14 13 34 14v32v0v80v0v32v0h-32h-544v-32v0v-80v0v-32v0q20 -1 34 -14q13 -14 14 -34q-1 -20 -14 -34q-14 -13 -34 -14v-32v0v-80v0zM32 144q22 9 35 29v0v0q13 19 13 44t-13 44
q-13 20 -35 29v87v0h512v0v-87v0q-22 -9 -35 -29q-13 -19 -13 -44t13 -44q13 -20 35 -29v-87v0h-512v0v87v0z" />
</svg>
