<?xml version="1.0" standalone="no"?>
<!DOCTYPE svg PUBLIC "-//W3C//DTD SVG 1.1//EN" "http://www.w3.org/Graphics/SVG/1.1/DTD/svg11.dtd" >
<svg xmlns="http://www.w3.org/2000/svg" xmlns:xlink="http://www.w3.org/1999/xlink" version="1.1" viewBox="-10 -40 532 512">
   <path fill="currentColor"
d="M32 25v384v-384v384h448v0v-384v0h-448v0zM0 -7h32h-32h512v32v0v384v0v32v0h-32h-480v-32v0v-384v0v-32v0zM120 65v48v-48v48h-48v0v-48v0h48v0zM168 65h48h-48h48v48v0h-48v0v-48v0zM312 65v48v-48v48h-48v0v-48v0h48v0z" />
</svg>
