<?xml version="1.0" standalone="no"?>
<!DOCTYPE svg PUBLIC "-//W3C//DTD SVG 1.1//EN" "http://www.w3.org/Graphics/SVG/1.1/DTD/svg11.dtd" >
<svg xmlns="http://www.w3.org/2000/svg" xmlns:xlink="http://www.w3.org/1999/xlink" version="1.1" viewBox="-10 -40 532 512">
   <path fill="currentColor"
d="M480 25v384v-384v384h-448v0v-384v0h448v0zM512 -7h-32h32h-512v32v0v384v0v32v0h32h480v-32v0v-384v0v-32v0zM392 65v48v-48v48h48v0v-48v0h-48v0zM344 65h-48h48h-48v48v0h48v0v-48v0zM200 65v48v-48v48h48v0v-48v0h-48v0z" />
</svg>
