<?xml version="1.0" standalone="no"?>
<!DOCTYPE svg PUBLIC "-//W3C//DTD SVG 1.1//EN" "http://www.w3.org/Graphics/SVG/1.1/DTD/svg11.dtd" >
<svg xmlns="http://www.w3.org/2000/svg" xmlns:xlink="http://www.w3.org/1999/xlink" version="1.1" viewBox="-10 -40 532 512">
   <path fill="currentColor"
d="M489 80l-26 26l26 -26l-26 26l-23 23v0l23 23v0l2 2v0l23 23v0l-23 23v0l-17 17v0h-160h-32v-32v0v-160v0l17 -17v0l23 -23v0l23 23v0l2 2v0l23 23v0l23 -23v0l26 -26v0l23 -23v0l23 23v0l50 50v0l23 23v0l-23 23v0zM256 217v32v-32v32v160v0l-17 17v0l-23 23v0l-23 -23
v0l-2 -2v0l-23 -23v0l-23 23v0l-26 26v0l-23 23v0l-23 -23v0l-50 -50v0l-23 -23v0l23 -23v0l26 -26v0l23 -23v0l-23 -23v0l-2 -2v0l-23 -23v0l23 -23v0l17 -17v0h160h32zM417 152l-22 -23l22 23l-22 -23l22 -23v0l50 -49v0l-51 -51v0l-49 50v0l-23 22v0l-23 -22v0l-25 -26v0
l-8 8v0v147v0h147v0l8 -8v0l-26 -25v0zM95 282l22 23l-22 -23l22 23l-22 23v0l-50 49v0l51 51v0l49 -50v0l23 -22v0l23 22v0l25 26v0l8 -8v0v-147v0h-147v0l-8 8v0l26 25v0z" />
</svg>
