<?xml version="1.0" standalone="no"?>
<!DOCTYPE svg PUBLIC "-//W3C//DTD SVG 1.1//EN" "http://www.w3.org/Graphics/SVG/1.1/DTD/svg11.dtd" >
<svg xmlns="http://www.w3.org/2000/svg" xmlns:xlink="http://www.w3.org/1999/xlink" version="1.1" viewBox="-10 -40 532 512">
   <path fill="currentColor"
d="M232 -39h-10h10h-10l-4 9v0l-126 251v0l-19 19v0l-40 40v0q-32 33 -33 80q1 48 33 80t80 33q47 -1 80 -33l40 -40v0l19 -19v0l251 -126v0l9 -4v0v-10v0v-72v0v-16v0h-16h-72v-88v0v-16v0h-16h-88v-72v0v-16v0h-16h-72zM309 317l-76 37l76 -37l-76 37v0v0l-46 -46v0
l78 -77v0l103 -32v0l-59 118v0zM390 153l-3 6l3 -6l-3 6l-106 34v0l33 -107v0l6 -3v0v-2v0h72v0v72v0h-2v0zM357 293l53 -108l-53 108l53 -108v0v0h70v0v46v0l-123 62v0zM288 63v0v0v0l-108 54v0l62 -124v0h46v0v70v0zM274 106l-32 103l32 -103l-32 103l-77 77v0l-46 -46v0
v0v0l37 -76v0l118 -58v0zM62 296l34 -34l-34 34l34 -34l115 115v0l-34 34v0l-115 -115v0zM152 431q-18 10 -39 10q-34 -1 -57 -24t-24 -57q0 -21 10 -39l110 110v0z" />
</svg>
