<?xml version="1.0" standalone="no"?>
<!DOCTYPE svg PUBLIC "-//W3C//DTD SVG 1.1//EN" "http://www.w3.org/Graphics/SVG/1.1/DTD/svg11.dtd" >
<svg xmlns="http://www.w3.org/2000/svg" xmlns:xlink="http://www.w3.org/1999/xlink" version="1.1" viewBox="-10 -40 532 512">
   <path fill="currentColor"
d="M431 357l-49 18l49 -18l-49 18l-4 2v0l-4 -1v0l-189 -24v0l-8 75v0q37 14 79 14q54 0 99 -23q45 -22 76 -61v0zM459 312q21 -44 21 -95v-1v-2l-73 34v0l-4 1v0h-5v0l-135 -15v0l-64 87v0l176 23v0l84 -32v0zM477 180q-13 -72 -64 -122v0v0q-50 -50 -123 -62l40 33v0l3 2
v0l2 4v0l73 177v0l69 -32v0zM237 -6q-52 5 -95 30l65 47v0l4 3v0l2 4v0l54 124v0l108 12v0l-68 -163v0l-70 -57v0zM114 44q-38 31 -60 76v0v0q-22 44 -22 97q0 43 15 82l9 -52v0v-4v0l3 -3v0l116 -152v0l-61 -44v0zM72 345q30 42 74 67l8 -80v0l1 -4v0l2 -4v0l81 -109v0
l-44 -99v0l-107 140v0l-15 89v0zM0 217q1 -70 34 -128v0v0q34 -58 94 -94q61 -34 128 -34t128 34q60 36 94 94q33 58 34 128q-1 70 -34 128q-34 58 -94 94q-61 34 -128 34t-128 -34q-60 -36 -94 -94q-33 -58 -34 -128v0z" />
</svg>
