<?xml version="1.0" standalone="no"?>
<!DOCTYPE svg PUBLIC "-//W3C//DTD SVG 1.1//EN" "http://www.w3.org/Graphics/SVG/1.1/DTD/svg11.dtd" >
<svg xmlns="http://www.w3.org/2000/svg" xmlns:xlink="http://www.w3.org/1999/xlink" version="1.1" viewBox="-10 -40 468 512">
   <path fill="currentColor"
d="M42 121h166h-166h166v-96v0h-123v0l-43 96v0zM208 153h-176h176h-176v256v0h384v0v-256v0h-176h-32zM363 25h-123h123h-123v96v0h166v0l-43 -96v0zM64 -7h320h-320h320l64 144v0v272v0v32v0h-32h-416v-32v0v-272v0l64 -144v0zM331 212l-128 128l128 -128l-128 128l-11 12
v0l-11 -12v0l-64 -64v0l-12 -11v0l23 -23v0l11 12v0l53 52v0l117 -116v0l11 -12v0l23 23v0l-12 11v0z" />
</svg>
