<?xml version="1.0" standalone="no"?>
<!DOCTYPE svg PUBLIC "-//W3C//DTD SVG 1.1//EN" "http://www.w3.org/Graphics/SVG/1.1/DTD/svg11.dtd" >
<svg xmlns="http://www.w3.org/2000/svg" xmlns:xlink="http://www.w3.org/1999/xlink" version="1.1" viewBox="-10 -40 660 512">
   <path fill="currentColor"
d="M320 -7v224v-224v224h-224v0v-224v0h224v0zM96 -39h-32h32h-32v32v0v224v0v32v0h32h256v-32v0v-224v0v-32v0h-32h-224zM544 57v160v-160v160h-128v0v-160v0h128v0zM416 25h-32h32h-32v32v0v160v0v32v0h32h160v-32v0v-160v0v-32v0h-32h-128zM608 377q-1 27 -19 45v0v0
q-18 18 -45 19h-448v0q-27 -1 -45 -19t-19 -45q1 -27 19 -45t45 -19h448v0q27 1 45 19t19 45v0zM96 281q-41 1 -68 28v0v0q-27 27 -28 68q1 41 28 68t68 28h448v0q41 -1 68 -28t28 -68q-1 -41 -28 -68t-68 -28h-448v0zM152 377q-2 -22 -24 -24q-22 2 -24 24q2 22 24 24
q22 -2 24 -24v0zM320 401q22 -2 24 -24q-2 -22 -24 -24q-22 2 -24 24q2 22 24 24v0zM536 377q-2 -22 -24 -24q-22 2 -24 24q2 22 24 24q22 -2 24 -24v0z" />
</svg>
