<?xml version="1.0" standalone="no"?>
<!DOCTYPE svg PUBLIC "-//W3C//DTD SVG 1.1//EN" "http://www.w3.org/Graphics/SVG/1.1/DTD/svg11.dtd" >
<svg xmlns="http://www.w3.org/2000/svg" xmlns:xlink="http://www.w3.org/1999/xlink" version="1.1" viewBox="-10 -40 660 512">
   <path fill="currentColor"
d="M16 -39h-16h16h-16v32v0h16h80v368v0v16v0h16h57q-9 14 -9 32q1 27 19 45t45 19q27 -1 45 -19t19 -45q0 -18 -9 -32h178v0q-9 14 -9 32q1 27 19 45t45 19q27 -1 45 -19t19 -45q0 -18 -9 -32h57h16v-32v0h-16h-496v-368v0v-16v0h-16h-96zM544 409q0 14 -9 23v0v0
q-9 9 -23 9t-23 -9t-9 -23t9 -23t23 -9t23 9t9 23v0zM224 441q-14 0 -23 -9v0v0q-9 -9 -9 -23t9 -23t23 -9t23 9t9 23t-9 23t-23 9v0zM224 25h128h-128h128v224v0h-128v0v-224v0zM192 -7v32v-32v32v224v0v32v0h32h160v-32v0v-224v0v-32v0h-32h-160zM448 25h64h-64h64v64v0
h-64v0v-64v0zM416 -7v32v-32v32v64v0v32v0h32h96v-32v0v-64v0v-32v0h-32h-96zM448 185h128h-128h128v64v0h-128v0v-64v0zM448 153h-32h32h-32v32v0v64v0v32v0h32h160v-32v0v-64v0v-32v0h-32h-128z" />
</svg>
