<?xml version="1.0" standalone="no"?>
<!DOCTYPE svg PUBLIC "-//W3C//DTD SVG 1.1//EN" "http://www.w3.org/Graphics/SVG/1.1/DTD/svg11.dtd" >
<svg xmlns="http://www.w3.org/2000/svg" xmlns:xlink="http://www.w3.org/1999/xlink" version="1.1" viewBox="-10 -40 468 512">
   <path fill="currentColor"
d="M416 153v288v-288v288h-320v0v-96v0h-32v0v96v0v32v0h32h352v-32v0v-328v0l-152 -152v0h-200h-32v32v0v256v0h32v0v-256v0h160v0v144v0v16v0h16h144zM411 121h-123h123h-123v-123v0l123 123v0zM270 226l-14 -29l14 29l-14 -29l-14 29v0l-53 105v0l-32 -44v0l-5 -6v0h-8
h-144v32v0h16h120l43 58v0l16 20v0l11 -23v0l50 -99v0l18 35v0l4 9v0h10h80v-32v0h-16h-54l-28 -55v0z" />
</svg>
