<?xml version="1.0" standalone="no"?>
<!DOCTYPE svg PUBLIC "-//W3C//DTD SVG 1.1//EN" "http://www.w3.org/Graphics/SVG/1.1/DTD/svg11.dtd" >
<svg xmlns="http://www.w3.org/2000/svg" xmlns:xlink="http://www.w3.org/1999/xlink" version="1.1" viewBox="-10 -40 596 512">
   <path fill="currentColor"
d="M320 -7h-64h64h-64v64v0h64v0v-64v0zM256 -39h64h-64h96v32v0v64v0v32v0h-32h-96v-32v0v-64v0v-32v0h32v0zM320 217q0 -14 -9 -23v0v0q-9 -9 -23 -9t-23 9t-9 23t9 23t23 9t23 -9t9 -23v0zM224 217q1 -36 32 -55q32 -18 64 0q31 19 32 55q-1 36 -32 55q-32 18 -64 0
q-31 -19 -32 -55v0zM231 345l-21 64l21 -64l-21 64h-34v0l32 -96v0h160v0l32 96v0h-34v0l-21 -64v0h-114v0zM32 25h160h-160h160v32v0h-160v0v384v0h512v0v-384v0h-160v0v-32v0h160h32v32v0v384v0v32v0h-32h-544v-32v0v-384v0v-32v0h32v0z" />
</svg>
