<?xml version="1.0" standalone="no"?>
<!DOCTYPE svg PUBLIC "-//W3C//DTD SVG 1.1//EN" "http://www.w3.org/Graphics/SVG/1.1/DTD/svg11.dtd" >
<svg xmlns="http://www.w3.org/2000/svg" xmlns:xlink="http://www.w3.org/1999/xlink" version="1.1" viewBox="-10 -40 596 512">
   <path fill="currentColor"
d="M32 105q1 -34 23 -57v0v0q23 -22 57 -23q34 1 57 23q22 23 23 57v112v0h-160v0v-112v0zM32 249h160h-160h160v80v0q-1 34 -23 57q-23 22 -57 23q-34 -1 -57 -23q-22 -23 -23 -57v-80v0zM112 -7q-48 1 -79 33v0v0q-32 31 -33 79v224v0q1 48 33 79q31 32 79 33
q48 -1 79 -33q32 -31 33 -79v-224v0q-1 -48 -33 -79q-31 -32 -79 -33v0zM517 360l-179 -180l179 180l-179 -180q33 -26 78 -27q54 1 91 37q36 37 37 91q-1 45 -27 79v0zM494 382q-33 26 -78 27q-54 -1 -91 -37q-36 -37 -37 -91q1 -45 27 -78l180 179h-1zM416 441
q43 0 80 -21v0v0q37 -22 59 -59q21 -38 21 -80t-21 -80q-22 -37 -59 -59q-37 -21 -80 -21t-80 21q-37 22 -59 59q-21 38 -21 80t21 80q22 37 59 59q37 21 80 21v0z" />
</svg>
