<?xml version="1.0" standalone="no"?>
<!DOCTYPE svg PUBLIC "-//W3C//DTD SVG 1.1//EN" "http://www.w3.org/Graphics/SVG/1.1/DTD/svg11.dtd" >
<svg xmlns="http://www.w3.org/2000/svg" xmlns:xlink="http://www.w3.org/1999/xlink" version="1.1" viewBox="-10 -40 532 512">
   <path fill="currentColor"
d="M128 -39v64v-64v64h32v0v-64v0h-32v0zM320 -39v64v-64v64h32v0v-64v0h-32v0zM224 -39h-32h32h-32v64v0h32v0v-64v0zM400 -39v288v-288v288h32v0v-288v0h-32v0zM512 -39h-32h32h-32v288v0h32v0v-288v0zM320 89v352v-352v352h-288v0v-352v0h288v0zM32 57h-32h32h-32v32v0
v352v0v32v0h32h320v-32v0v-352v0v-32v0h-32h-288zM96 153h160h-160h160v224v0h-160v0v-224v0zM64 121v32v-32v32v224v0v32v0h32h192v-32v0v-224v0v-32v0h-32h-192z" />
</svg>
