<?xml version="1.0" standalone="no"?>
<!DOCTYPE svg PUBLIC "-//W3C//DTD SVG 1.1//EN" "http://www.w3.org/Graphics/SVG/1.1/DTD/svg11.dtd" >
<svg xmlns="http://www.w3.org/2000/svg" xmlns:xlink="http://www.w3.org/1999/xlink" version="1.1" viewBox="-10 -40 532 512">
   <path fill="currentColor"
d="M16 -7h-16h16h-16v32v0h16h16v208v0v128v0q1 34 23 57q23 22 57 23q34 -1 57 -23q22 -23 23 -57v-128v0v-208v0h16h16v-32v0h-16h-192zM64 217v-192v192v-192h96v0v192v0h-96v0zM64 249h96h-96h96v112v0q-1 20 -14 34q-14 13 -34 14q-20 -1 -34 -14q-13 -14 -14 -34v-112
v0zM304 -7h-16h16h-16v32v0h16h16v208v0v128v0q1 34 23 57q23 22 57 23q34 -1 57 -23q22 -23 23 -57v-128v0v-208v0h16h16v-32v0h-16h-192zM352 217v-192v192v-192h96v0v192v0h-96v0zM352 249h96h-96h96v112v0q-1 20 -14 34q-14 13 -34 14q-20 -1 -34 -14q-13 -14 -14 -34
v-112v0z" />
</svg>
