<?xml version="1.0" standalone="no"?>
<!DOCTYPE svg PUBLIC "-//W3C//DTD SVG 1.1//EN" "http://www.w3.org/Graphics/SVG/1.1/DTD/svg11.dtd" >
<svg xmlns="http://www.w3.org/2000/svg" xmlns:xlink="http://www.w3.org/1999/xlink" version="1.1" viewBox="-10 -40 660 512">
   <path fill="currentColor"
d="M320 -32l6 2l-6 -2l6 2l304 120v0l10 4v0v11v0v352v0v16v0h-32v0v-16v0v-341v0l-288 -114v0l-288 114v0v341v0v16v0h-32v0v-16v0v-352v0v-11v0l10 -4v0l304 -120v0l6 -2v0zM96 153h16h-16h448v16v0v288v0v16v0h-32v0v-16v0v-272v0h-384v0v272v0v16v0h-32v0v-16v0v-288v0
v-16v0zM352 329h32h-32h128v32v0v80v0v32v0h-32h-288v-32v0v-192v0v-32v0h32h160v32v0v48v0v32v0zM320 361h-128h128h-128v80v0h128v0v-80v0zM352 441h96h-96h96v-80v0h-96v0v80v0zM320 329v-80v80v-80h-128v0v80v0h128v0z" />
</svg>
