<?xml version="1.0" standalone="no"?>
<!DOCTYPE svg PUBLIC "-//W3C//DTD SVG 1.1//EN" "http://www.w3.org/Graphics/SVG/1.1/DTD/svg11.dtd" >
<svg xmlns="http://www.w3.org/2000/svg" xmlns:xlink="http://www.w3.org/1999/xlink" version="1.1" viewBox="-10 -40 468 512">
   <path fill="currentColor"
d="M32 25v384v-384v384h384v0v-384v0h-384v0zM0 -7h32h-32h448v32v0v384v0v32v0h-32h-416v-32v0v-384v0v-32v0zM352 329v32v-32v32h-256v0v-32v0h256v0zM144 66l11 12l-11 -12l11 12l64 64v0l-22 22v0l-37 -36v0v137v0v16v0h-32v0v-16v0v-137v0l-37 36v0l-22 -22v0l64 -64v0
l11 -12v0zM304 66l11 12l-11 -12l11 12l64 64v0l-22 22v0l-37 -36v0v137v0v16v0h-32v0v-16v0v-137v0l-37 36v0l-22 -22v0l64 -64v0l11 -12v0z" />
</svg>
