<?xml version="1.0" standalone="no"?>
<!DOCTYPE svg PUBLIC "-//W3C//DTD SVG 1.1//EN" "http://www.w3.org/Graphics/SVG/1.1/DTD/svg11.dtd" >
<svg xmlns="http://www.w3.org/2000/svg" xmlns:xlink="http://www.w3.org/1999/xlink" version="1.1" viewBox="-10 -40 532 512">
   <path fill="currentColor"
d="M160 377h-32h32h-160v-32v0v-352v0v-32v0h32h480v32v0v352v0v32v0h-32h-176l-112 75v0l-32 21v0v-38v0v-26v0v-32v0zM160 345h32h-32h32v32v0v36v0l94 -63v0l8 -5v0h10h176v-352v0h-448v0v352v0h128v0zM272 41v16v-16v16v128v0v16v0h-32v0v-16v0v-128v0v-16v0h32v0z
M232 233h48h-48h48v48v0h-48v0v-48v0z" />
</svg>
