<?xml version="1.0" standalone="no"?>
<!DOCTYPE svg PUBLIC "-//W3C//DTD SVG 1.1//EN" "http://www.w3.org/Graphics/SVG/1.1/DTD/svg11.dtd" >
<svg xmlns="http://www.w3.org/2000/svg" xmlns:xlink="http://www.w3.org/1999/xlink" version="1.1" viewBox="-10 -40 660 512">
   <path fill="currentColor"
d="M16 -7h-16h16h-16v32v0h16h16v384v0h-16h-16v32v0h16h624v-32v0h-16h-16v-384v0h16h16v-32v0h-16h-608zM64 409v-384v384v-384h512v0v384v0h-512v0zM192 105v-16v16v-16h-32v0v16v0v224v0v16v0h32v0v-16v0v-224v0zM288 105v-16v16v-16h-32v0v16v0v224v0v16v0h32v0v-16v0
v-224v0zM384 105v-16v16v-16h-32v0v16v0v224v0v16v0h32v0v-16v0v-224v0zM480 105v-16v16v-16h-32v0v16v0v224v0v16v0h32v0v-16v0v-224v0z" />
</svg>
