<?xml version="1.0" standalone="no"?>
<!DOCTYPE svg PUBLIC "-//W3C//DTD SVG 1.1//EN" "http://www.w3.org/Graphics/SVG/1.1/DTD/svg11.dtd" >
<svg xmlns="http://www.w3.org/2000/svg" xmlns:xlink="http://www.w3.org/1999/xlink" version="1.1" viewBox="-10 -40 594 512">
   <path fill="currentColor"
d="M263 21l-9 -12l9 12l-9 -12q-14 -16 -34 -16q-19 0 -31 13q-13 12 -13 31v3v0q0 19 14 34l25 24v0l73 74v0l73 -74v0l25 -25v0q14 -14 14 -33v-3v0q0 -19 -13 -31q-12 -13 -31 -13q-20 0 -34 16l-9 12v0l-25 31v0l-25 -31v0zM384 121l-73 73l73 -73l-73 73l-23 23v0
l-23 -23v0l-73 -73v0l-25 -25v0q-23 -23 -23 -56v-3v0q1 -33 22 -54q22 -21 54 -22q26 0 46 16q7 5 13 12l9 12v0l9 -12v0q6 -7 13 -12q20 -16 46 -16q32 1 54 22q21 21 22 54v3v0q0 33 -23 56l-25 25v0zM171 265h5h-5h229v16v0v64v0v0v0l104 -62v0l13 -8v0l9 14v0l40 64v0
l8 13v0l-13 9v0l-152 96v0l-4 2v0h-5h-400v-32v0h16h379l135 -85v0l-23 -37v0l-94 56v0l-4 2v0h-4h-165v-32v0h16h112v-48v0h-187v0l-92 61v0l-4 3v0h-5h-80v-32v0h16h59l92 -61v0l4 -3v0z" />
</svg>
