<?xml version="1.0" standalone="no"?>
<!DOCTYPE svg PUBLIC "-//W3C//DTD SVG 1.1//EN" "http://www.w3.org/Graphics/SVG/1.1/DTD/svg11.dtd" >
<svg xmlns="http://www.w3.org/2000/svg" xmlns:xlink="http://www.w3.org/1999/xlink" version="1.1" viewBox="-10 -40 594 512">
   <path fill="currentColor"
d="M304 -7v10v-10v10q5 0 12 2q8 1 12 3l16 4v0l-9 31v0l-15 -5v0q-4 -1 -11 -2t-11 -2q-20 -3 -31 3q-10 5 -11 11q0 6 1 7q1 2 5 5q10 7 31 12l1 1v0q20 4 39 17q10 6 16 18q5 13 2 28q-6 26 -29 35q-8 4 -18 5v9v0v16v0h-32v0v-16v0v-10v0q-16 -3 -31 -9h-1v0v0v0v0v0v0
q-3 -1 -5 -2l-15 -5v0l10 -30v0l15 5v0l6 2v0v0v0v0v0v0h1q15 6 26 8q21 3 31 -2q10 -4 11 -12q0 -7 -1 -9q-1 -3 -5 -6q-10 -6 -30 -12l-2 -1v0h-1q-19 -5 -37 -15q-10 -6 -16 -18t-3 -27q6 -25 29 -34q8 -4 18 -6v-9v0v-16v0h32v0v16v0zM171 265h5h-5h229v16v0v64v0v0v0
l104 -62v0l13 -8v0l9 14v0l40 64v0l8 13v0l-13 9v0l-152 96v0l-4 2v0h-5h-400v-32v0h16h379l135 -85v0l-23 -37v0l-94 56v0l-4 2v0h-4h-165v-32v0h16h112v-48v0h-187v0l-92 61v0l-4 3v0h-5h-80v-32v0h16h59l92 -61v0l4 -3v0z" />
</svg>
