<?xml version="1.0" standalone="no"?>
<!DOCTYPE svg PUBLIC "-//W3C//DTD SVG 1.1//EN" "http://www.w3.org/Graphics/SVG/1.1/DTD/svg11.dtd" >
<svg xmlns="http://www.w3.org/2000/svg" xmlns:xlink="http://www.w3.org/1999/xlink" version="1.1" viewBox="-10 -40 660 512">
   <path fill="currentColor"
d="M128 25h-16h16h-128v16v0v304v0v7v0l5 4v0l104 104v0l11 12v0l23 -23v0l-12 -11v0l-99 -100v0v-281v0h64v0v192v0v7v0l1 1v0l4 3v0l8 8v0l72 72v0v0v0l16 16v0l11 12v0l23 -23v0l-12 -11v0l-16 -16v0v0v0l-60 -61v0l33 -33v0l128 128v0v105v0v16v0h32v0v-16v0v-105v0
l128 -128v0l33 33v0l-60 61v0l-12 11v0l-4 5v0l-12 11v0l23 23v0l11 -12v0l5 -4v0l11 -12v0l72 -72v0l8 -8v0l4 -3v0l1 -1v0v-7v0v-192v0h64v0v281v0l-99 100v0l-12 11v0l23 23v0l11 -12v0l104 -104v0l5 -4v0v-7v0v-304v0v-16v0h-16h-112v16v0v185v0l-37 -36v0l-11 -12v0
l-11 12v0l-133 132v0l-133 -132v0l-11 -12v0l-11 12v0l-37 36v0v-185v0v-16v0z" />
</svg>
