<?xml version="1.0" standalone="no"?>
<!DOCTYPE svg PUBLIC "-//W3C//DTD SVG 1.1//EN" "http://www.w3.org/Graphics/SVG/1.1/DTD/svg11.dtd" >
<svg xmlns="http://www.w3.org/2000/svg" xmlns:xlink="http://www.w3.org/1999/xlink" version="1.1" viewBox="-10 -40 660 512">
   <path fill="currentColor"
d="M336 -7v10v-10v10q5 0 12 2q8 1 12 3l16 4v0l-9 31v0l-15 -5v0q-4 -1 -11 -2t-11 -2q-20 -3 -31 3q-10 5 -11 11q0 6 1 7q1 2 5 5q10 7 31 12l1 1v0q20 4 39 17q10 6 16 18q5 13 2 28q-6 26 -29 35q-8 4 -18 5v9v0v16v0h-32v0v-16v0v-10v0q-16 -3 -31 -9h-1v0v0v0v0v0v0
q-3 -1 -5 -2l-15 -5v0l10 -30v0l15 5v0l6 2v0v0v0v0v0v0h1q15 6 26 8q21 3 31 -2q10 -4 11 -12q0 -7 -1 -9q-1 -3 -5 -6q-10 -6 -30 -12l-2 -1v0h-1q-19 -5 -37 -15q-10 -6 -16 -18t-3 -27q6 -25 29 -34q8 -4 18 -6v-9v0v-16v0h32v0v16v0zM112 25h16h-16h16v16v0v185v0
l37 -36v0l11 -12v0l11 12v0l133 132v0l133 -132v0l11 -12v0l11 12v0l37 36v0v-185v0v-16v0h16h112v16v0v304v0v7v0l-5 4v0l-104 104v0l-11 12v0l-23 -23v0l12 -11v0l99 -100v0v-281v0h-64v0v192v0v7v0l-1 1v0l-4 3v0l-8 8v0l-72 72v0l-11 12v0l-5 4v0l-11 12v0l-23 -23v0
l12 -11v0l4 -5v0l12 -11v0l60 -61v0l-33 -33v0l-128 128v0v105v0v16v0h-32v0v-16v0v-105v0l-128 -128v0l-33 33v0l60 61v0v0v0l16 16v0l12 11v0l-23 23v0l-11 -12v0l-16 -16v0v0v0l-72 -72v0l-8 -8v0l-4 -3v0l-1 -1v0v-7v0v-192v0h-64v0v281v0l99 100v0l12 11v0l-23 23v0
l-11 -12v0l-104 -104v0l-5 -4v0v-7v0v-304v0v-16v0h16h96z" />
</svg>
