<?xml version="1.0" standalone="no"?>
<!DOCTYPE svg PUBLIC "-//W3C//DTD SVG 1.1//EN" "http://www.w3.org/Graphics/SVG/1.1/DTD/svg11.dtd" >
<svg xmlns="http://www.w3.org/2000/svg" xmlns:xlink="http://www.w3.org/1999/xlink" version="1.1" viewBox="-10 -40 468 512">
   <path fill="currentColor"
d="M32 25v384v-384v384h384v0v-384v0h-384v0zM0 -7h32h-32h448v32v0v384v0v32v0h-32h-416v-32v0v-384v0v-32v0zM199 157l-9 -12l9 12l-9 -12q-14 -16 -34 -16q-19 0 -31 13q-13 12 -13 31v3v0q0 20 14 34l25 24v0l73 74v0l73 -74v0l25 -24v0q14 -14 14 -34v-3v0
q0 -19 -13 -31q-12 -13 -31 -13q-20 0 -34 16l-9 12v0l-25 31v0l-25 -31v0zM320 257l-73 73l73 -73l-73 73l-23 23v0l-23 -23v0l-73 -73v0l-25 -25v0q-23 -23 -23 -56v-3v0q1 -33 22 -54q22 -21 54 -22q26 0 46 16q7 5 13 12l9 12v0l9 -12v0q6 -7 13 -12q20 -16 46 -16
q33 1 54 22t22 54v3v0q0 33 -23 56l-25 25v0z" />
</svg>
