<?xml version="1.0" standalone="no"?>
<!DOCTYPE svg PUBLIC "-//W3C//DTD SVG 1.1//EN" "http://www.w3.org/Graphics/SVG/1.1/DTD/svg11.dtd" >
<svg xmlns="http://www.w3.org/2000/svg" xmlns:xlink="http://www.w3.org/1999/xlink" version="1.1" viewBox="-10 -40 468 512">
   <path fill="currentColor"
d="M34 217h-34h34h-34l12 -32v0l84 -224v0h256v0l84 224v0l12 32v0h-34h-380zM46 185h356h-356h356l-72 -192v0h-212v0l-72 192v0zM160 281v-32v32v-32h32v0v32v0v16v0l-12 9v0v0v0v0v0q-1 0 -1 1l-1 1q-2 1 -6 5q-8 8 -19 21q-23 28 -25 59q1 26 12 42l2 4q1 1 1 2h162v0
q1 -3 3 -6q11 -16 12 -42q-2 -31 -25 -59q-11 -14 -19 -21q-4 -4 -6 -5q0 -1 -1 -1l-1 -1v0v0v0v0l-12 -9v0v-16v0v-32v0h32v0v32v0q1 0 17 15q15 15 30 41q16 25 17 56q-2 37 -16 58q-14 22 -16 22h-192v0q-2 0 -16 -22q-14 -21 -16 -58q1 -31 17 -56q15 -26 30 -41
q16 -15 17 -15v0z" />
</svg>
