<?xml version="1.0" standalone="no"?>
<!DOCTYPE svg PUBLIC "-//W3C//DTD SVG 1.1//EN" "http://www.w3.org/Graphics/SVG/1.1/DTD/svg11.dtd" >
<svg xmlns="http://www.w3.org/2000/svg" xmlns:xlink="http://www.w3.org/1999/xlink" version="1.1" viewBox="-10 -40 532 512">
   <path fill="currentColor"
d="M304 89h-32h32h-32q-61 2 -102 42q-40 41 -42 102q2 61 42 102q41 40 102 42v0v0h1v0q55 -1 102 -34q47 -34 76 -92q28 -58 29 -133q0 -35 -7 -67q-40 37 -97 38h-72v0v0v0zM463 15q13 -16 20 -37q9 21 16 43q13 45 13 97q-1 81 -33 146q-31 66 -85 105t-121 40h-1v0
q-68 -1 -116 -43q-47 -42 -58 -107q-31 24 -48 59q-18 36 -18 78v29v0v16v0h-32v0v-16v0v-29v0q1 -56 26 -102q26 -46 71 -74q6 -70 55 -116q49 -45 120 -47h32h72q55 -2 87 -42v0zM266 193l-5 -4l5 4l-5 -4q-7 -7 -16 -7h-3v0q-18 2 -20 20q0 9 6 15l60 56v0l60 -56v0
q6 -6 6 -15q-1 -18 -19 -20h-4v0q-9 0 -16 7l-5 4v0l-22 21v0l-22 -20v-1zM190 202q0 -22 15 -37v0v0q15 -14 37 -15h3v0q22 1 38 15l5 5v0l5 -5v0q16 -14 38 -15h4v0q22 1 36 15q15 15 15 37t-16 38l-71 66v0l-11 11v0l-11 -11v0l-71 -66v0q-16 -16 -16 -38v0z" />
</svg>
