<?xml version="1.0" standalone="no"?>
<!DOCTYPE svg PUBLIC "-//W3C//DTD SVG 1.1//EN" "http://www.w3.org/Graphics/SVG/1.1/DTD/svg11.dtd" >
<svg xmlns="http://www.w3.org/2000/svg" xmlns:xlink="http://www.w3.org/1999/xlink" version="1.1" viewBox="-10 -40 532 512">
   <path fill="currentColor"
d="M416 25h-320h320h-320v128v0h-32v0v-128v0v-32v0h32h352v32v0v128v0h-32v0v-128v0zM32 409h64h-64h64v-32v0v-96v0v-32v0v-32v0h-64v0v192v0zM128 217v32v-32v32h256v0v-32v0v-32v0h32h96v32v0v192v0v32v0h-32h-96v-32v0h-256v0v32v0h-32h-96v-32v0v-192v0v-32v0h32h96
v32v0zM128 377h256h-256h256v-96v0h-256v0v96v0zM416 377v32v-32v32h64v0v-192v0h-64v0v32v0v32v0v96v0z" />
</svg>
