<?xml version="1.0" standalone="no"?>
<!DOCTYPE svg PUBLIC "-//W3C//DTD SVG 1.1//EN" "http://www.w3.org/Graphics/SVG/1.1/DTD/svg11.dtd" >
<svg xmlns="http://www.w3.org/2000/svg" xmlns:xlink="http://www.w3.org/1999/xlink" version="1.1" viewBox="-10 -40 404 512">
   <path fill="currentColor"
d="M56 17q2 -22 24 -24q22 2 24 24q-2 22 -24 24q-22 -2 -24 -24v0zM136 17q-1 -32 -28 -48q-28 -16 -56 0q-27 16 -28 48q1 32 28 48q28 16 56 0q27 -16 28 -48v0zM0 457v16v-16v16h32v0v-16v0v-130v0l-30 -24v0l-1 -1q-1 0 -1 -1v156v0zM16 105h-16h16h-16v16v0v119v0
q1 25 21 40l101 67v0l25 126v0h33v0l-28 -139v0l-2 -7v0l-5 -3v0l-33 -22v0v-126v0l43 66v0l4 7v0h9h216v-32v0v-128v0v-32v0h-32h-160v32v0v128v0h-15v0l-67 -105v0l-5 -7v0h-9h-80zM224 217v-128v128v-128h128v0v128v0h-96h-32zM80 137v143v-143v143l-41 -27v0
q-7 -5 -7 -13v-103v0h48v0z" />
</svg>
