<?xml version="1.0" standalone="no"?>
<!DOCTYPE svg PUBLIC "-//W3C//DTD SVG 1.1//EN" "http://www.w3.org/Graphics/SVG/1.1/DTD/svg11.dtd" >
<svg xmlns="http://www.w3.org/2000/svg" xmlns:xlink="http://www.w3.org/1999/xlink" version="1.1" viewBox="-10 -40 522 512">
   <path fill="currentColor"
d="M56 17q2 -22 24 -24q22 2 24 24q-2 22 -24 24q-22 -2 -24 -24v0zM136 17q-1 -32 -28 -48q-28 -16 -56 0q-27 16 -28 48q1 32 28 48q28 16 56 0q27 -16 28 -48v0zM0 457v16v-16v16h32v0v-16v0v-130v0l-30 -24v0l-1 -1q-1 0 -1 -1v156v0zM16 105h-16h16h-16v16v0v119v0
q1 25 21 40l101 67v0l25 126v0h33v0l-28 -139v0l-2 -7v0l-5 -3v0l-33 -22v0v-126v0l43 66v0l4 7v0h9h61l25 106v0q-28 18 -30 54q1 27 19 45t45 19q26 -1 44 -17q17 -17 20 -42l148 -37v0l-8 -31v0l-146 36v0q-17 -35 -58 -37h-3l-53 -220v0l-4 -15v0l-31 7v0l4 16v0l20 84
v0h-44v0l-67 -105v0l-5 -7v0h-9h-80zM80 137v143v-143v143l-41 -27v0q-7 -5 -7 -13v-103v0h48v0zM256 409q0 -14 9 -23v0v0q9 -9 23 -9t23 9t9 23t-9 23t-23 9t-23 -9t-9 -23v0zM480 307l-8 -31l8 31l-8 -31l-23 -92v0l-7 -31v0l-31 8v0l-92 23v0l-31 7v0l8 31v0l23 92v0
l7 31v0l31 -8v0l92 -23v0l31 -7v0zM350 306l-23 -91l23 91l-23 -91l91 -23v0l23 91v0l-91 23v0z" />
</svg>
