<?xml version="1.0" standalone="no"?>
<!DOCTYPE svg PUBLIC "-//W3C//DTD SVG 1.1//EN" "http://www.w3.org/Graphics/SVG/1.1/DTD/svg11.dtd" >
<svg xmlns="http://www.w3.org/2000/svg" xmlns:xlink="http://www.w3.org/1999/xlink" version="1.1" viewBox="-10 -40 468 512">
   <path fill="currentColor"
d="M256 73h-32h32h-64v32v0v4v0l235 260v0l21 24v0l-26 19v0l-86 61v0l-288 -320v0v-64v0l88 -128v0h56h120l88 128v0v64v0l-62 69v0l-22 -23v0l52 -58v0v-42v0l-73 -106v0h-7h-135l-73 106v0v42v0l261 289v0l59 -42v0l-232 -258v0l-8 -9v0v-12v0v-36v0v-32v0h32h96v32v0v36
v0v12v0l-8 9v0l-13 14v0l-21 -24v0l10 -11v0v-4v0v-32v0zM111 270l21 24l-21 -24l21 24l-84 94v0l59 42v0l74 -81v0l21 23v0l-90 101v0l-86 -61v0l-26 -19v0l22 -24v0l88 -99h1z" />
</svg>
