<?xml version="1.0" standalone="no"?>
<!DOCTYPE svg PUBLIC "-//W3C//DTD SVG 1.1//EN" "http://www.w3.org/Graphics/SVG/1.1/DTD/svg11.dtd" >
<svg xmlns="http://www.w3.org/2000/svg" xmlns:xlink="http://www.w3.org/1999/xlink" version="1.1" viewBox="-10 -40 660 512">
   <path fill="currentColor"
d="M32 25v240v-240v240v32v0q21 -15 48 -16q41 1 64 32q23 -31 64 -32q25 0 44 13q20 13 29 35h167v0v-112v0v-32v0v-160v0h-416v0zM480 297q21 -15 48 -16q25 0 44 13q20 13 29 35h7v0v-64v0v-48v0h-128v0v80v0zM480 185h123h-123h123l-58 -64v0h-65v0v64v0zM640 179v6v-6
v6v32v0v48v0v64v0v32v0h-32v0q-1 34 -23 57q-23 22 -57 23q-34 -1 -57 -23q-22 -23 -23 -57h-160v0q-1 34 -23 57q-23 22 -57 23q-41 -1 -64 -32q-23 31 -64 32q-34 -1 -57 -23q-22 -23 -23 -57v-32v0v-64v0v-240v0v-32v0h32h448v32v0v64v0h72h7l5 5v0l72 80v0l4 5v0z
M528 409q27 -1 42 -24q12 -24 0 -48q-15 -23 -42 -24q-27 1 -42 24q-12 24 0 48q15 23 42 24v0zM256 361q-1 -27 -24 -42q-24 -12 -48 0q-23 15 -24 42q1 27 24 42q24 12 48 0q23 -15 24 -42v0zM80 409q27 -1 42 -24q12 -24 0 -48q-15 -23 -42 -24q-27 1 -42 24q-12 24 0 48
q15 23 42 24v0z" />
</svg>
