<?xml version="1.0" standalone="no"?>
<!DOCTYPE svg PUBLIC "-//W3C//DTD SVG 1.1//EN" "http://www.w3.org/Graphics/SVG/1.1/DTD/svg11.dtd" >
<svg xmlns="http://www.w3.org/2000/svg" xmlns:xlink="http://www.w3.org/1999/xlink" version="1.1" viewBox="-10 -40 468 512">
   <path fill="currentColor"
d="M368 137q0 -39 -19 -72v0v0q-19 -33 -53 -53q-34 -19 -72 -19t-72 19q-34 20 -53 53t-19 72t19 72t53 53q34 19 72 19t72 -19q34 -20 53 -53t19 -72v0zM48 137q0 -48 24 -88v0v0q23 -40 64 -64q42 -24 88 -24t88 24q41 24 64 64q24 40 24 88t-24 88q-23 40 -64 64
q-42 24 -88 24t-88 -24q-41 -24 -64 -64q-24 -40 -24 -88v0zM32 73v128v-128v128h-32v0v-128v0h32v0zM448 73v128v-128v128h-32v0v-128v0h32v0zM48 265h12h-12h12q14 18 31 32h-17v0l-34 144v0h56v0v-64v0v-16v0h16h240v16v0v64v0h56v0l-33 -144v0h-18v0q17 -14 31 -32h12v0
l41 176v0l7 32v0h-33h-415l7 -32v0l41 -176v0zM320 393h-192h192h-192v48v0h32v0v-16v0v-16v0h32v0v16v0v16v0h64v0v-16v0v-16v0h32v0v16v0v16v0h32v0v-48v0zM240 217q34 -1 57 -23v0v0q22 -23 23 -57v-19v0l-29 -29v0h-134v0l-29 29v0v19v0q1 34 23 57q23 22 57 23h32v0z
M96 105l48 -48l-48 48l48 -48h160v0l48 48v0v32v0q-1 48 -33 79q-31 32 -79 33h-32v0q-48 -1 -79 -33q-32 -31 -33 -79v-32v0zM192 105l13 27l-13 -27l13 27l27 13v0l-27 13v0l-13 27v0l-13 -27v0l-27 -13v0l27 -13v0l13 -27v0z" />
</svg>
