<?xml version="1.0" standalone="no"?>
<!DOCTYPE svg PUBLIC "-//W3C//DTD SVG 1.1//EN" "http://www.w3.org/Graphics/SVG/1.1/DTD/svg11.dtd" >
<svg xmlns="http://www.w3.org/2000/svg" xmlns:xlink="http://www.w3.org/1999/xlink" version="1.1" viewBox="-10 -40 650 512">
   <path fill="currentColor"
d="M224 185q26 0 48 -13v0v0q22 -13 35 -35q13 -23 13 -48t-13 -48q-13 -22 -35 -35t-48 -13t-48 13t-35 35q-13 23 -13 48t13 48q13 22 35 35t48 13v0zM224 -39q35 0 64 17v0v0q29 17 47 47q17 30 17 64t-17 64q-18 30 -47 47t-64 17t-64 -17t-47 -47q-17 -30 -17 -64
t17 -64q18 -30 47 -47t64 -17v0zM88 297l-45 144l45 -144l-45 144h309v0v32v0h-318h-34l10 -32v0l54 -176v0h241v0l-15 27v0l9 5v0h-211v0zM528 199v4v-4v4q12 5 22 12l4 -3v0l27 -16v0l16 28v0l32 57v0l-30 18v0q1 7 1 14t-1 14l30 17v0l-32 57v0l-15 28v0l-28 -16v0l-4 -2
v0q-10 7 -22 12v3v0v32v0h-32h-64v-32v0v-3v0q-11 -5 -22 -12l-4 2v0l-28 16v0l-15 -28v0l-32 -57v0l30 -17v0q-1 -7 -1 -14t1 -14l-30 -18v0l32 -57v0l16 -28v0l27 16v0l4 3v0q11 -7 22 -12v-4v0v-32v0h32h64v32v0zM566 243l-18 10l18 -10l-18 10l-17 -12v0q-7 -5 -16 -9
l-19 -8v0v-21v0v-3v0h-32v0v3v0v21v0l-19 8v0q-9 4 -16 9l-17 12v0l-18 -10v0l-4 -3v0l-16 29v0l3 2v0l18 11v0l-2 20v0q-1 5 -1 11q0 5 1 10l2 21v0l-18 10v0l-3 2v0l16 29v0l4 -2v0l18 -11v0l17 12v0q7 6 16 9l19 9v0v21v0v3v0h32v0v-3v0v-21v0l19 -9v0q9 -3 16 -9l17 -12
v0l18 11v0l4 2v0l16 -29v0l-3 -2v0l-18 -10v0l2 -21v0q1 -5 1 -10q0 -6 -1 -11l-2 -20v0l18 -11v0l3 -2v0l-16 -29v0l-4 3v0zM480 257q32 1 49 28q15 28 0 56q-17 27 -49 28q-32 -1 -48 -28q-15 -28 0 -56q16 -27 48 -28v0zM480 337q22 -2 24 -24q-2 -22 -24 -24
q-22 2 -24 24q2 22 24 24v0z" />
</svg>
