<?xml version="1.0" standalone="no"?>
<!DOCTYPE svg PUBLIC "-//W3C//DTD SVG 1.1//EN" "http://www.w3.org/Graphics/SVG/1.1/DTD/svg11.dtd" >
<svg xmlns="http://www.w3.org/2000/svg" xmlns:xlink="http://www.w3.org/1999/xlink" version="1.1" viewBox="-10 -40 660 512">
   <path fill="currentColor"
d="M128 89q0 -26 13 -48v0v0q13 -22 35 -35q23 -13 48 -13t48 13q22 13 35 35t13 48t-13 48t-35 35q-23 13 -48 13t-48 -13q-22 -13 -35 -35t-13 -48v0zM352 89q0 -35 -17 -64v0v0q-17 -29 -47 -47q-30 -17 -64 -17t-64 17q-30 18 -47 47t-17 64t17 64t47 47q30 17 64 17
t64 -17q30 -18 47 -47t17 -64v0zM43 441l45 -144l-45 144l45 -144h272v0l9 28v0l26 -26v0l-11 -34v0h-320v0l-54 176v0l-10 32v0h34h284l5 -32v0h-280v0zM553 230l42 42l-42 -42l42 42l-23 23v0l-41 -42v0l22 -23v0zM398 386l110 -110l-110 110l110 -110l41 41v0l-109 110v0
l-50 8v0l8 -49v0zM617 249l-64 -64l64 64l-64 -64l-185 185v0l-11 70v0l-5 33v0l33 -5v0l70 -11v0l162 -163v0l23 -22v0l-23 -23v0z" />
</svg>
