<?xml version="1.0" standalone="no"?>
<!DOCTYPE svg PUBLIC "-//W3C//DTD SVG 1.1//EN" "http://www.w3.org/Graphics/SVG/1.1/DTD/svg11.dtd" >
<svg xmlns="http://www.w3.org/2000/svg" xmlns:xlink="http://www.w3.org/1999/xlink" version="1.1" viewBox="-10 -40 660 512">
   <path fill="currentColor"
d="M128 89q0 -26 13 -48v0v0q13 -22 35 -35q23 -13 48 -13t48 13q22 13 35 35t13 48t-13 48t-35 35q-23 13 -48 13t-48 -13q-22 -13 -35 -35t-13 -48v0zM352 89q0 -35 -17 -64v0v0q-17 -29 -47 -47q-30 -17 -64 -17t-64 17q-30 18 -47 47t-17 64t17 64t47 47q30 17 64 17
t64 -17q30 -18 47 -47t17 -64v0zM43 441l45 -144l-45 144l45 -144h232v0v-32v0h-256v0l-54 176v0l-10 32v0h34h414l-8 -27v0l-49 -48v0l14 43v0h-362v0zM617 322l-137 -137l137 137l-137 -137h-96v0l-32 32v0v96v0l137 137v0l23 23v0l23 -23v0l82 -82v0l23 -23v0l-23 -23v0z
M467 217l128 128l-128 -128l128 128l-83 83v0l-128 -128v0v-70v0l13 -13v0h70v0zM440 257q-1 -15 -16 -16q-15 1 -16 16q1 15 16 16q15 -1 16 -16v0z" />
</svg>
