<?xml version="1.0" standalone="no"?>
<!DOCTYPE svg PUBLIC "-//W3C//DTD SVG 1.1//EN" "http://www.w3.org/Graphics/SVG/1.1/DTD/svg11.dtd" >
<svg xmlns="http://www.w3.org/2000/svg" xmlns:xlink="http://www.w3.org/1999/xlink" version="1.1" viewBox="-10 -40 660 512">
   <path fill="currentColor"
d="M257 25q0 10 3 20l-136 45v0l10 30v0l144 -48v0q11 11 27 15v370v0q1 15 16 16h208h16v-32v0h-16h-192v-354v0q38 -11 47 -50l134 -45v0l-10 -30v0l-127 42v0q-7 -19 -23 -31t-37 -12q-28 1 -46 19t-18 45v0zM32 386v-9v9v-9h192v0v9v0l-55 55v0h-82v0l-55 -55v0z
M129 215l80 130l-80 -130l80 130h-162v0l82 -130v0zM513 27l-14 22l14 -22l-14 22l-112 179v0l-3 4v0v4v0v29v0v7v0l5 4v0l64 64v0l5 5v0h6h103l4 -5v0l64 -64v0l5 -4v0v-7v0v-29v0v-4v0l-2 -4v0l-112 -179v0l-13 -22v0zM416 249h192h-192h192v9v0l-55 55v0h-82v0l-55 -55v0
v-9v0zM431 217l82 -130l-82 130l82 -130l80 130v0h-162v0zM129 155l-14 22l14 -22l-14 22l-112 179v0l-3 4v0v4v0v29v0v7v0l5 4v0l64 64v0l4 5v0h7h103l4 -5v0l64 -64v0l5 -4v0v-7v0v-29v0v-4v0l-2 -4v0l-112 -179v0l-13 -22v0zM321 -7q13 0 22 9v0v0q9 9 10 23
q-1 14 -10 23t-22 9q-14 0 -23 -9t-9 -23t9 -23t23 -9v0z" />
</svg>
