<?xml version="1.0" standalone="no"?>
<!DOCTYPE svg PUBLIC "-//W3C//DTD SVG 1.1//EN" "http://www.w3.org/Graphics/SVG/1.1/DTD/svg11.dtd" >
<svg xmlns="http://www.w3.org/2000/svg" xmlns:xlink="http://www.w3.org/1999/xlink" version="1.1" viewBox="-10 -40 596 512">
   <path fill="currentColor"
d="M320 -39l-32 8l32 -8l-32 8l-224 56v0v416v0h-48h-16v32v0h16h304v-32v0v-447v0v-33v0zM288 2v439v-439v439h-192v0v-391v0l192 -48v0zM232 249q10 0 17 -9v0v0q7 -9 7 -23t-7 -23t-17 -9t-17 9t-7 23t7 23t17 9v0zM496 25h-144h144h-144v32v0h128v0v400v0v16v0h16h80
v-32v0h-16h-48v-400v0v-16v0h-16v0z" />
</svg>
