<?xml version="1.0" standalone="no"?>
<!DOCTYPE svg PUBLIC "-//W3C//DTD SVG 1.1//EN" "http://www.w3.org/Graphics/SVG/1.1/DTD/svg11.dtd" >
<svg xmlns="http://www.w3.org/2000/svg" xmlns:xlink="http://www.w3.org/1999/xlink" version="1.1" viewBox="-10 -40 596 512">
   <path fill="currentColor"
d="M68 -6l14 2l-14 -2l14 2l73 13v0l16 3v0l-6 32v0l-16 -3v0l-59 -11v0l-57 187v0h191h32v32v0h64v0v-32v0h32h191l-57 -187v0l-59 11v0l-16 3v0l-6 -32v0l16 -3v0l73 -13v0l14 -3v0l4 14v0l63 205v0l1 3v0v2v0v0v0v32v0v48v0v16v0v96v0v32v0h-32h-224v-32v0v-128v0h-64v0
v128v0v32v0h-32h-224v-32v0v-96v0v-16v0v-48v0v-32v0v0v0v-2v0l1 -3v0l63 -205v0l4 -13v0zM544 313v-16v16v-16v-48v0h-192v0v160v0h192v0v-96v0zM32 297v16v-16v16v96v0h192v0v-160v0h-192v0v48v0z" />
</svg>
