<?xml version="1.0" standalone="no"?>
<!DOCTYPE svg PUBLIC "-//W3C//DTD SVG 1.1//EN" "http://www.w3.org/Graphics/SVG/1.1/DTD/svg11.dtd" >
<svg xmlns="http://www.w3.org/2000/svg" xmlns:xlink="http://www.w3.org/1999/xlink" version="1.1" viewBox="-10 -40 532 512">
   <path fill="currentColor"
d="M512 121l-23 -23l23 23l-23 -23l-114 -114v0l-23 -23v0l-23 23v0l-306 306v0l-23 23v0l23 23v0l114 114v0l23 23v0l23 -23v0l306 -306v0l23 -23v0zM352 6l115 115l-115 -115l115 115l-307 307v0l-115 -115v0l46 -46v0l42 41v0l11 12v0l23 -23v0l-12 -11v0l-41 -42v0
l41 -41v0l42 41v0l11 12v0l23 -23v0l-12 -11v0l-41 -42v0l41 -41v0l42 41v0l11 12v0l23 -23v0l-12 -11v0l-41 -42v0l41 -41v0l42 41v0l11 12v0l23 -23v0l-12 -11v0l-41 -42v0l46 -46v0z" />
</svg>
