<?xml version="1.0" standalone="no"?>
<!DOCTYPE svg PUBLIC "-//W3C//DTD SVG 1.1//EN" "http://www.w3.org/Graphics/SVG/1.1/DTD/svg11.dtd" >
<svg xmlns="http://www.w3.org/2000/svg" xmlns:xlink="http://www.w3.org/1999/xlink" version="1.1" viewBox="-10 -40 660 512">
   <path fill="currentColor"
d="M32 57h128h-128h128l160 -96v0l160 96v0h128h32v32v0v352v0v32v0h-32h-608v-32v0v-352v0v-32v0h32v0zM352 345q0 -14 -9 -23v0v0q-9 -9 -23 -9t-23 9t-9 23v96v0h64v0v-96v0zM384 441h224h-224h224v-352v0h-128v0q-9 0 -16 -5l-144 -86v0l-143 86v0q-8 5 -17 5h-128v0
v352v0h224v0v-96v0q1 -27 19 -45t45 -19q27 1 45 19t19 45v96v0zM96 121h16h-16h96v16v0v96v0v16v0h-16h-80v-16v0v-96v0v-16v0zM128 153v64v-64v64h32v0v-64v0h-32v0zM464 121h64h-64h80v16v0v96v0v16v0h-16h-80v-16v0v-96v0v-16v0h16v0zM480 217h32h-32h32v-64v0h-32v0v64
v0zM96 281h16h-16h96v16v0v96v0v16v0h-16h-80v-16v0v-96v0v-16v0zM128 313v64v-64v64h32v0v-64v0h-32v0zM464 281h64h-64h80v16v0v96v0v16v0h-16h-80v-16v0v-96v0v-16v0h16v0zM512 377v-64v64v-64h-32v0v64v0h32v0zM320 217q36 -1 55 -32q18 -32 0 -64q-19 -31 -55 -32
q-36 1 -55 32q-18 32 0 64q19 31 55 32v0zM320 57q26 0 48 13v0v0q22 13 35 35q13 23 13 48t-13 48q-13 22 -35 35t-48 13t-48 -13t-35 -35q-13 -23 -13 -48t13 -48q13 -22 35 -35t48 -13v0zM336 121v16v-16v16h8h16v32v0h-16h-40v-16v0v-32v0v-16v0h32v0v16v0z" />
</svg>
