<?xml version="1.0" standalone="no"?>
<!DOCTYPE svg PUBLIC "-//W3C//DTD SVG 1.1//EN" "http://www.w3.org/Graphics/SVG/1.1/DTD/svg11.dtd" >
<svg xmlns="http://www.w3.org/2000/svg" xmlns:xlink="http://www.w3.org/1999/xlink" version="1.1" viewBox="-10 -40 532 512">
   <path fill="currentColor"
d="M256 -7q61 1 112 30v0v0q51 30 82 82q30 53 30 112t-30 112q-31 52 -82 82q-51 29 -112 30q-61 -1 -112 -30q-51 -30 -82 -82q-30 -53 -30 -112t30 -112q31 -52 82 -82q51 -29 112 -30v0zM256 473q70 -1 128 -34v0v0q58 -34 94 -94q34 -61 34 -128t-34 -128
q-36 -60 -94 -94q-58 -33 -128 -34q-70 1 -128 34q-58 34 -94 94q-34 61 -34 128t34 128q36 60 94 94q58 33 128 34v0zM327 368l24 -22l-24 22l24 -22l-11 -12v0q-12 -14 -33 -25t-51 -12q-30 1 -51 12t-33 25l-11 12v0l24 22v0l11 -12v0q9 -10 24 -19q15 -8 36 -8t36 8
q15 9 24 19l11 12v0zM176 225q22 -2 24 -24q0 -4 -1 -7l20 6v0l15 5v0l10 -30v0l-15 -5v0l-96 -32v0l-15 -5v0l-10 30v0l15 5v0l40 13v0q-10 7 -11 20q2 22 24 24v0zM360 201q0 -13 -10 -20l39 -13v0l15 -5v0l-10 -30v0l-15 5v0l-96 32v0l-15 5v0l10 30v0l15 -5v0l21 -7v0
q-2 4 -2 8q2 22 24 24q22 -2 24 -24v0z" />
</svg>
