<?xml version="1.0" standalone="no"?>
<!DOCTYPE svg PUBLIC "-//W3C//DTD SVG 1.1//EN" "http://www.w3.org/Graphics/SVG/1.1/DTD/svg11.dtd" >
<svg xmlns="http://www.w3.org/2000/svg" xmlns:xlink="http://www.w3.org/1999/xlink" version="1.1" viewBox="-11 0 534 512">
   <path fill="currentColor"
d="M153 192q-12 -13 -38 -24q-25 -11 -53 -18q-12 -3 -23 -6l4 16q7 26 19 52q13 26 33 46l27 28v0l-32 22v0l-35 23v0q2 1 4 3q36 24 85 27h32v0v32v0v6q29 -12 62 -33l2 -1v0v-68v0v-16v0h32v0v16v0v68v0l2 1v0q33 21 62 33v-6v-32v0h32v0q49 -3 85 -27q3 -2 5 -3l-36 -23
v0l-32 -22v0l27 -28v0q20 -20 33 -46q12 -26 19 -51q3 -9 4 -16q-11 2 -23 5q-28 7 -53 18q-26 12 -38 24l-55 54v0v-77v0q-1 -43 -11 -77q-11 -35 -25 -59q-6 -12 -12 -20q-6 8 -12 20q-14 24 -25 58q-10 35 -11 78v77v0l-55 -54v0zM240 403q-34 19 -60 29v0v0q-27 9 -28 9
t-6 -20q-1 -5 -1 -11q-1 -8 -1 -17q-37 -1 -68 -14q-30 -14 -50 -29q-25 -19 -26 -21l27 -18v0l18 -12v0l27 -18v0q-11 -12 -21 -25q-20 -30 -31 -62t-15 -56q-6 -31 -5 -33q2 0 33 6q24 4 54 13q31 9 58 23q18 10 31 22q0 -20 3 -39q7 -50 24 -86q17 -37 33 -58
q19 -25 20 -25t20 25q16 21 33 58q17 36 25 86q2 19 2 39q13 -13 31 -22q27 -14 58 -23q30 -9 54 -14q31 -5 33 -5v0q1 2 -5 33q-4 24 -15 56t-31 62q-10 13 -21 25l27 18v0l18 12v0l27 18v0q-1 2 -26 21q-20 15 -50 29q-31 13 -68 14q0 9 -1 17q0 6 -1 11q-5 20 -6 20v0
q-1 0 -28 -10q-26 -9 -60 -28v54v0v16v0h-32v0v-16v0v-54v0z" />
</svg>
