<?xml version="1.0" standalone="no"?>
<!DOCTYPE svg PUBLIC "-//W3C//DTD SVG 1.1//EN" "http://www.w3.org/Graphics/SVG/1.1/DTD/svg11.dtd" >
<svg xmlns="http://www.w3.org/2000/svg" xmlns:xlink="http://www.w3.org/1999/xlink" version="1.1" viewBox="-10 -40 522 512">
   <path fill="currentColor"
d="M220 10l-114 61l114 -61l-114 61l-57 117v0l23 128v0l93 90v0l127 18v0l114 -61v0l57 -117v0l-1 -2v0q-43 -13 -73 -44t-41 -75q-44 -10 -75 -40q-31 -31 -43 -73l-10 -2v0zM376 97q4 47 35 80v0v0q32 33 79 39l6 35v0l-66 135v0l-132 71v0l-148 -21v0l-108 -105v0
l-26 -148v0l66 -135v0l132 -71v0l43 6v0q6 47 39 79q32 31 80 35v0zM168 313l24 -24l-24 24l24 -24l24 24v0l-24 24v0l-24 -24v0zM160 177l-24 -24l24 24l-24 -24l24 -24v0l24 24v0l-24 24v0zM264 217l24 -24l-24 24l24 -24l24 24v0l-24 24v0l-24 -24v0zM352 337l-24 -24
l24 24l-24 -24l24 -24v0l24 24v0l-24 24v0z" />
</svg>
