<?xml version="1.0" standalone="no"?>
<!DOCTYPE svg PUBLIC "-//W3C//DTD SVG 1.1//EN" "http://www.w3.org/Graphics/SVG/1.1/DTD/svg11.dtd" >
<svg xmlns="http://www.w3.org/2000/svg" xmlns:xlink="http://www.w3.org/1999/xlink" version="1.1" viewBox="-10 -40 530 512">
   <path fill="currentColor"
d="M282 115v0v0v0l13 -7v0q24 -19 25 -51q-1 -27 -19 -45t-45 -19q-27 1 -45 19t-19 45q1 32 25 51l13 7v0h-1v0q13 6 27 6t26 -6v0zM298 143q-19 10 -42 10t-42 -10l-72 125v0q52 28 114 29q67 -1 122 -33q54 -32 86 -87l28 16v0q-37 62 -98 98q-62 37 -138 38
q-71 -1 -130 -33l-96 169v0l-28 -16v0l97 -170v0q-49 -34 -79 -86l28 -16v0q26 44 67 74l73 -126v0q-27 -28 -28 -68q1 -41 28 -68t68 -28q41 1 68 28t28 68q-1 40 -28 67l57 99v0q-13 10 -27 18l-56 -98v0zM482 465l-80 -141l80 141l-80 -141q14 -8 27 -17l81 142v0l-28 16
v0z" />
</svg>
