<?xml version="1.0" standalone="no"?>
<!DOCTYPE svg PUBLIC "-//W3C//DTD SVG 1.1//EN" "http://www.w3.org/Graphics/SVG/1.1/DTD/svg11.dtd" >
<svg xmlns="http://www.w3.org/2000/svg" xmlns:xlink="http://www.w3.org/1999/xlink" version="1.1" viewBox="-10 -40 596 512">
   <path fill="currentColor"
d="M544 121q1 -15 -14 -32v0v0q-15 -17 -51 -32q-37 -16 -88 -24l-14 86v0l38 83v0l1 3v0q36 -8 63 -19q36 -16 51 -33t14 -32v0zM347 130l-53 22l53 -22l-53 22l-6 2v0l-6 -2v0l-52 -22v0l-37 81v0q44 6 95 6t95 -6l-36 -81v0zM348 95l11 -66l-11 66l11 -66q-34 -4 -71 -4
t-71 4l11 66v0l60 25v0l60 -25v0zM97 186q27 11 63 19l2 -3v0l38 -83v0l-15 -86v0q-51 8 -88 24q-36 15 -51 32t-14 32q-1 15 14 32t51 33v0zM576 121v184v-184v184q-1 36 -26 61q-25 26 -63 42q-81 33 -199 33t-198 -33q-39 -16 -64 -42q-25 -25 -26 -61v-184v0
q3 -60 84 -94q82 -33 204 -34q122 1 204 34q81 34 84 94v0zM544 184q-37 31 -104 48v0v0q-67 17 -152 17t-152 -17t-104 -48v121v0q-1 42 70 73q73 30 186 31q113 -1 186 -31q71 -31 70 -73v-121v0z" />
</svg>
