<?xml version="1.0" standalone="no"?>
<!DOCTYPE svg PUBLIC "-//W3C//DTD SVG 1.1//EN" "http://www.w3.org/Graphics/SVG/1.1/DTD/svg11.dtd" >
<svg xmlns="http://www.w3.org/2000/svg" xmlns:xlink="http://www.w3.org/1999/xlink" version="1.1" viewBox="-10 -40 404 512">
   <path fill="currentColor"
d="M352 441h-320h320h-320v-448v0h160v0v144v0v16v0h16h144v288v0zM224 -2l123 123l-123 -123l123 123h-123v0v-123v0zM232 -39h-200h200h-232v32v0v448v0v32v0h32h352v-32v0v-328v0l-152 -152v0zM80 25h-16h16h-16v32v0h16h80v-32v0h-16h-64zM80 89h-16h16h-16v32v0h16h80
v-32v0h-16h-64zM136 265h-12h12h-12l-3 11v0l-21 69v0h-20h-16v32v0h16h44l3 -11v0l17 -56v0l17 56v0l3 11v0h12h18l4 -9v0l12 -23v0h4v0l12 23v0l4 9v0h10h80v-32v0h-16h-54l-12 -23v0l-4 -9v0h-10h-34l-4 9v0l-3 6v0l-16 -52v0l-3 -11v0h-12h-16z" />
</svg>
