<?xml version="1.0" standalone="no"?>
<!DOCTYPE svg PUBLIC "-//W3C//DTD SVG 1.1//EN" "http://www.w3.org/Graphics/SVG/1.1/DTD/svg11.dtd" >
<svg xmlns="http://www.w3.org/2000/svg" xmlns:xlink="http://www.w3.org/1999/xlink" version="1.1" viewBox="-10 -40 532 512">
   <path fill="currentColor"
d="M336 153h144h-144h144v288v0h-320v0v-112v0h-32v0v112v0v32v0h32h352v-32v0v-328v0l-152 -152v0h-200h-32v32v0v224v0h32v0v-224v0h160v0v144v0v16v0h16v0zM475 121h-123h123h-123v-123v0l123 123v0zM283 174l-11 -12l11 12l-11 -12l-23 23v0l12 11v0l68 69v0h-313h-16
v32v0h16h313l-68 69v0l-12 11v0l23 23v0l11 -12v0l96 -96v0l12 -11v0l-12 -11v0l-96 -96v0z" />
</svg>
