<?xml version="1.0" standalone="no"?>
<!DOCTYPE svg PUBLIC "-//W3C//DTD SVG 1.1//EN" "http://www.w3.org/Graphics/SVG/1.1/DTD/svg11.dtd" >
<svg xmlns="http://www.w3.org/2000/svg" xmlns:xlink="http://www.w3.org/1999/xlink" version="1.1" viewBox="-10 -40 596 512">
   <path fill="currentColor"
d="M352 153v29v-29v29l32 -32v0v-37v0l-152 -152v0h-200h-32v32v0v448v0v32v0h32h352v-32v0v-45v0l-32 5v0v40v0h-320v0v-448v0h160v0v144v0v16v0h16h144zM347 121h-123h123h-123v-123v0l123 123v0zM136 265h-12h12h-12l-3 11v0l-21 69v0h-20h-16v32v0h16h44l3 -11v0l17 -56
v0l17 56v0l3 11v0h12h18l4 -9v0l12 -23v0h4v0l12 23v0l4 9v0h10h48v0v0l33 -5v0l70 -11v0l162 -163v0l23 -22v0l-23 -23v0l-64 -64v0l-185 185v0l-11 70v0v1v0h-5h-38l-12 -23v0l-4 -9v0h-10h-34l-4 9v0l-3 6v0l-16 -52v0l-3 -11v0h-12h-16zM467 157l22 -23l-22 23l22 -23
l42 42v0l-23 23v0l-41 -42v0zM444 180l41 41l-41 -41l41 41l-109 110v0l-50 8v0l8 -49v0l110 -110v0z" />
</svg>
