<?xml version="1.0" standalone="no"?>
<!DOCTYPE svg PUBLIC "-//W3C//DTD SVG 1.1//EN" "http://www.w3.org/Graphics/SVG/1.1/DTD/svg11.dtd" >
<svg xmlns="http://www.w3.org/2000/svg" xmlns:xlink="http://www.w3.org/1999/xlink" version="1.1" viewBox="-10 -40 532 512">
   <path fill="currentColor"
d="M480 217q-1 -61 -30 -112v0v0q-30 -51 -82 -82q-53 -30 -112 -30t-112 30q-52 31 -82 82q-29 51 -30 112q1 61 30 112q30 51 82 82q53 30 112 30t112 -30q52 -31 82 -82q29 -51 30 -112v0zM0 217q1 -70 34 -128v0v0q34 -58 94 -94q61 -34 128 -34t128 34q60 36 94 94
q33 58 34 128q-1 70 -34 128q-34 58 -94 94q-61 34 -128 34t-128 -34q-60 -36 -94 -94q-33 -58 -34 -128v0zM160 161q22 2 24 24q-2 22 -24 24q-22 -2 -24 -24q2 -22 24 -24v0zM328 185q2 -22 24 -24q22 2 24 24q-2 22 -24 24q-22 -2 -24 -24v0zM192 329h128h-128h144v32v0
h-16h-144v-32v0h16v0zM160 233q27 -1 42 -24q12 -24 0 -48q-15 -23 -42 -24q-27 1 -42 24q-12 24 0 48q15 23 42 24v0zM160 105q45 1 69 40q22 40 0 80q-24 39 -69 40q-45 -1 -69 -40q-22 -40 0 -80q24 -39 69 -40v0zM400 185q-1 -27 -24 -42q-24 -12 -48 0q-23 15 -24 42
q1 27 24 42q24 12 48 0q23 -15 24 -42v0zM272 185q1 -45 40 -69q40 -22 80 0q39 24 40 69q-1 45 -40 69q-40 22 -80 0q-39 -24 -40 -69v0z" />
</svg>
