<?xml version="1.0" standalone="no"?>
<!DOCTYPE svg PUBLIC "-//W3C//DTD SVG 1.1//EN" "http://www.w3.org/Graphics/SVG/1.1/DTD/svg11.dtd" >
<svg xmlns="http://www.w3.org/2000/svg" xmlns:xlink="http://www.w3.org/1999/xlink" version="1.1" viewBox="-10 -40 532 512">
   <path fill="currentColor"
d="M256 -7q-61 1 -112 30v0v0q-51 30 -82 82q-30 53 -30 112t30 112q31 52 82 82q51 29 112 30q61 -1 112 -30q51 -30 82 -82q30 -53 30 -112t-30 -112q-31 -52 -82 -82q-51 -29 -112 -30v0zM512 217q-1 70 -34 128v0v0q-34 58 -94 94q-61 34 -128 34t-128 -34
q-60 -36 -94 -94q-33 -58 -34 -128q1 -70 34 -128q34 -58 94 -94q61 -34 128 -34t128 34q60 36 94 94q33 58 34 128v0zM144 281v48v-48v48h32v0v-48v0h-32v0zM208 281v48v-48v48h32v0v-48v0h-32v0zM304 329v-48v48v-48h-32v0v48v0h32v0zM336 329h32h-32h32v-48v0h-32v0v48v0
zM144 249h224h-224h256v32v0v48v0v32v0h-32h-256v-32v0v-48v0v-32v0h32v0zM152 169q2 -22 24 -24q22 2 24 24q-2 22 -24 24q-22 -2 -24 -24v0zM336 145q22 2 24 24q-2 22 -24 24q-22 -2 -24 -24q2 -22 24 -24v0z" />
</svg>
