<?xml version="1.0" standalone="no"?>
<!DOCTYPE svg PUBLIC "-//W3C//DTD SVG 1.1//EN" "http://www.w3.org/Graphics/SVG/1.1/DTD/svg11.dtd" >
<svg xmlns="http://www.w3.org/2000/svg" xmlns:xlink="http://www.w3.org/1999/xlink" version="1.1" viewBox="-10 -40 532 512">
   <path fill="currentColor"
d="M473 36v0v0v0v0v0zM472 1q-18 -15 -34 -1v0h-1v0q0 1 -4 9q-4 12 -7 28q-2 7 -3 14q7 -2 14 -3q16 -4 27 -8q8 -3 9 -4v0h1v0v0v0q13 -17 -2 -35v0zM496 59q-10 9 -33 15v0v0q-22 6 -46 10q-20 3 -33 5q2 -13 5 -33q4 -24 11 -46q6 -23 15 -33q17 -16 40 -16q22 0 40 17
q17 18 17 41q0 22 -16 40v0zM480 217q-1 -59 -27 -107q16 -4 31 -9q27 53 28 116q-1 72 -35 129q-34 58 -92 92q-57 34 -129 35q-64 -1 -116 -28q5 -15 8 -31q49 26 108 27q63 -1 113 -31q51 -29 80 -80q30 -50 31 -113v0zM256 -39q64 1 117 28q-6 15 -9 32
q-49 -27 -108 -28q-63 1 -113 31q-51 29 -80 80q-30 50 -31 113q1 59 27 107q-16 4 -31 9q-27 -53 -28 -116q1 -72 35 -129q34 -58 92 -92q57 -34 129 -35v0zM325 286q-33 33 -69 58q51 1 91 -36q37 -40 36 -91q-24 36 -57 69h-1zM303 264q43 -44 71 -92q10 -18 17 -35
q11 18 17 38q12 40 3 82q-10 41 -42 73t-73 42q-42 10 -82 -2q-20 -7 -38 -18q17 -7 35 -17q48 -28 92 -71v0zM109 260l-9 -31l9 31l-9 -31l16 -5v0l62 -17v0l27 -7v0l-8 27v0l-17 62v0l-4 16v0l-31 -9v0l5 -15v0l9 -35v0l-35 9v0l-15 5v0zM294 85l-9 35l9 -35l-9 35l35 -9
v0l15 -4v0l9 30v0l-16 5v0l-62 17v0l-27 7v0l7 -27v0l17 -62v0l5 -16v0l31 9v0l-5 15v0zM39 398v0v0v0v0v0v0v0zM39 398q-14 17 1 35q18 15 35 1v0v0v0v0q-1 0 0 0q1 -1 4 -9q4 -12 7 -28q2 -7 3 -13q-7 1 -13 2q-17 4 -28 8q-8 3 -9 4v0v0v0v0v0v0v0zM95 350q20 -3 33 -5
q-2 13 -5 33q-4 24 -10 46q-7 23 -16 33q-17 16 -40 16q-22 0 -40 -17q-17 -18 -17 -41q0 -22 16 -40q10 -9 33 -15q22 -6 46 -10v0z" />
</svg>
