<?xml version="1.0" standalone="no"?>
<!DOCTYPE svg PUBLIC "-//W3C//DTD SVG 1.1//EN" "http://www.w3.org/Graphics/SVG/1.1/DTD/svg11.dtd" >
<svg xmlns="http://www.w3.org/2000/svg" xmlns:xlink="http://www.w3.org/1999/xlink" version="1.1" viewBox="-10 -40 660 512">
   <path fill="currentColor"
d="M320 -7q-78 1 -136 46v0v0q-58 45 -80 117q-15 2 -34 6q21 -88 88 -144q68 -55 162 -57q94 2 162 57q67 56 88 144q-19 -4 -34 -6q-22 -72 -80 -117t-136 -46v0zM120 319h1h-1h1q28 55 81 88q52 33 118 34q66 -1 118 -34q53 -33 82 -88v0v0q12 12 26 18q-33 62 -92 98
q-60 37 -134 38q-74 -1 -134 -38q-59 -36 -92 -98q14 -6 26 -18v0zM208 181l-31 -8l31 8l-31 -8q4 -20 19 -38q16 -20 44 -22q28 2 44 22q15 18 20 38l-31 8v0q-4 -14 -13 -25q-10 -11 -20 -11t-19 11q-10 11 -13 25v0zM320 315q-47 0 -90 -8q35 37 90 38q55 -1 90 -38
q-43 8 -90 8v0zM320 283q62 0 115 -15q19 -5 37 -12q-5 21 -14 39q-21 37 -57 59q-36 23 -81 23t-82 -23q-36 -22 -56 -59q-10 -18 -14 -39q17 7 37 12q53 15 115 15v0zM380 156q-9 11 -12 25l-31 -8v0q4 -20 19 -38q16 -20 44 -22q28 2 44 22q15 18 20 38l-31 8v0
q-4 -14 -13 -25q-10 -11 -20 -11t-19 11h-1zM39 238v0v0v0v0v0v0v0zM39 238q-14 17 1 35q18 15 35 1h-1h1q0 -1 4 -9q4 -12 7 -28q2 -7 3 -13q-7 1 -13 2q-17 4 -28 8q-8 3 -9 4v0v0v0v0v0v0v0zM95 190q21 -3 33 -5q-2 13 -5 33q-4 24 -10 46q-7 23 -15 33q-18 16 -41 16
q-22 0 -40 -17q-17 -18 -17 -41q0 -22 16 -40q10 -9 33 -15q22 -6 46 -10v0zM601 238v0v0v0v0v0zM600 273q15 -18 1 -35v0v0v0v0q-1 -1 -9 -4q-11 -4 -28 -8q-6 -1 -13 -3v3q1 5 3 11q3 16 7 28q3 8 4 9h1v0h-1v0q17 14 35 -1v0zM624 215q16 18 16 40v0v0q0 23 -17 41
q-18 17 -40 17q-23 0 -40 -16q-9 -10 -16 -33q-6 -22 -10 -46q-3 -20 -5 -33h2q13 2 31 5q24 4 46 10q23 6 33 15v0z" />
</svg>
