<?xml version="1.0" standalone="no"?>
<!DOCTYPE svg PUBLIC "-//W3C//DTD SVG 1.1//EN" "http://www.w3.org/Graphics/SVG/1.1/DTD/svg11.dtd" >
<svg xmlns="http://www.w3.org/2000/svg" xmlns:xlink="http://www.w3.org/1999/xlink" version="1.1" viewBox="-10 -40 532 512">
   <path fill="currentColor"
d="M32 217q1 -63 31 -113v0v0q29 -51 80 -80v0v0q50 -30 113 -31q63 1 113 31q51 29 80 80q30 50 31 113q-1 58 -27 107q-26 48 -72 79q-5 26 -20 48q68 -31 109 -93t42 -141q-1 -72 -35 -129q-34 -58 -92 -92q-57 -34 -129 -35q-72 1 -129 35q-58 34 -92 92q-34 57 -35 129
q1 79 42 141t109 93q-15 -22 -20 -48q-46 -31 -72 -79q-26 -49 -27 -107v0zM352 344q26 -20 42 -49q10 -18 14 -39q-17 7 -37 12q-53 15 -115 15t-115 -15q-19 -5 -37 -12q5 21 15 39q15 29 41 49v33v0q1 41 28 68q28 27 68 28q41 -1 68 -28t28 -68v-33v0zM320 313v64v-64
v64q-1 27 -19 45t-45 19q-27 -1 -45 -19t-19 -45v-64v0h48v0v24v0h32v0v-24v0h48v0zM336 121q27 1 42 24q12 24 0 48q-15 23 -42 24q-27 -1 -42 -24q-12 -24 0 -48q15 -23 42 -24v0zM336 249q45 -1 69 -40q22 -40 0 -80q-24 -39 -69 -40q-45 1 -69 40q-22 40 0 80
q24 39 69 40v0zM117 199q17 -22 43 -22v0v0q26 0 43 22l26 -20v0q-28 -34 -69 -34t-69 34l26 20v0zM336 193q22 -2 24 -24q-2 -22 -24 -24q-22 2 -24 24q2 22 24 24v0z" />
</svg>
