<?xml version="1.0" standalone="no"?>
<!DOCTYPE svg PUBLIC "-//W3C//DTD SVG 1.1//EN" "http://www.w3.org/Graphics/SVG/1.1/DTD/svg11.dtd" >
<svg xmlns="http://www.w3.org/2000/svg" xmlns:xlink="http://www.w3.org/1999/xlink" version="1.1" viewBox="-10 -40 660 512">
   <path fill="currentColor"
d="M0 -39h16h-16h128v16v0v368v0h96h416v32v0h-16h-57q9 14 9 32q-1 27 -19 45t-45 19q-27 -1 -45 -19t-19 -45q0 -18 9 -32h-178v0q9 14 9 32q-1 27 -19 45t-45 19q-27 -1 -45 -19t-19 -45q0 -18 9 -32h-57h-16v-16v0v-368v0h-80h-16v-32v0zM512 377q-14 0 -23 9v0v0
q-9 9 -9 23t9 23t23 9t23 -9t9 -23t-9 -23t-23 -9v0zM192 409q0 14 9 23v0v0q9 9 23 9t23 -9t9 -23t-9 -23t-23 -9t-23 9t-9 23v0zM288 -39h16h-16h192v16v0v64v0h64h32v32v0v176v0v32v0h-32h-352v-32v0v-176v0v-32v0h32h64v-64v0v-16v0zM320 41h128h-128h128v-48v0h-128v0
v48v0zM272 73h-48h48h-48v176v0h48v0v-176v0zM304 249h160h-160h160v-176v0h-160v0v176v0zM496 249h48h-48h48v-176v0h-48v0v176v0z" />
</svg>
