<?xml version="1.0" standalone="no"?>
<!DOCTYPE svg PUBLIC "-//W3C//DTD SVG 1.1//EN" "http://www.w3.org/Graphics/SVG/1.1/DTD/svg11.dtd" >
<svg xmlns="http://www.w3.org/2000/svg" xmlns:xlink="http://www.w3.org/1999/xlink" version="1.1" viewBox="-10 -40 596 512">
   <path fill="currentColor"
d="M376 81q0 15 -15 46q-16 31 -39 61q-18 26 -34 44q-15 -18 -34 -44q-23 -30 -39 -61q-15 -31 -15 -46q1 -37 26 -62t62 -26q37 1 62 26t26 62v0zM408 81q-1 -51 -35 -85v0v0q-34 -34 -85 -35q-51 1 -85 35t-35 85q1 26 18 59t40 64q23 32 41 53q20 23 21 24q1 -1 21 -24
q18 -21 41 -53q23 -31 40 -64t18 -59v0zM401 187v0v0v0l10 -4v0l133 -48v0v252v0l-128 46v0v-184v0h-32v0v186v0l-192 -55v0v-131v0h-32v0v132v0l-128 46v0v-252v0l116 -42v0q-6 -15 -10 -30l-138 50v0v286v0v34v0l32 -12v0l144 -52v0l224 64v0l176 -64v0v-286v0v-34v0
l-32 12v0l-120 43v0l-6 12q-8 15 -17 30v1z" />
</svg>
