<?xml version="1.0" standalone="no"?>
<!DOCTYPE svg PUBLIC "-//W3C//DTD SVG 1.1//EN" "http://www.w3.org/Graphics/SVG/1.1/DTD/svg11.dtd" >
<svg xmlns="http://www.w3.org/2000/svg" xmlns:xlink="http://www.w3.org/1999/xlink" version="1.1" viewBox="-10 -40 532 512">
   <path fill="currentColor"
d="M384 -7v32v-32v32v32v0v32v0h-352v0v-96v0h352v0zM416 25v-32v32v-32v-32v0h-32h-384v32v0v96v0v32v0h32h384v-32v0v-32v0v-32v0zM256 441h-64h64h-64v-128v0h64v0v128v0zM192 281h-32h32h-32v32v0v128v0v32v0h32h96v-32v0v-128v0v-32v0h-32h-16v-64v0h256h16v-16v0v-160
v0v-16v0h-16h-48v32v0h32v0v128v0h-256h-16v16v0v80v0h-16v0z" />
</svg>
