<?xml version="1.0" standalone="no"?>
<!DOCTYPE svg PUBLIC "-//W3C//DTD SVG 1.1//EN" "http://www.w3.org/Graphics/SVG/1.1/DTD/svg11.dtd" >
<svg xmlns="http://www.w3.org/2000/svg" xmlns:xlink="http://www.w3.org/1999/xlink" version="1.1" viewBox="-10 -40 467 512">
   <path fill="currentColor"
d="M16 -39h-16h16h-16v16v0v192v0v96v0v16v0h32v0v-16v0v-80v0h105v0l4 3v0l124 125v0l-124 125v0l-12 11v0l23 23v0l11 -12v0l125 -124v0l125 124v0l11 12v0l23 -23v0l-12 -11v0l-124 -125v0l124 -125v0l12 -11v0l-23 -23v0l-11 12v0l-125 124v0l-106 -105v0q46 -4 75 -35
q30 -31 31 -77q-1 -48 -33 -79q-31 -32 -79 -33h-160v0zM176 153h-144h144h-144v-160v0h144v0q34 1 57 23q22 23 23 57q-1 34 -23 57q-23 22 -57 23v0z" />
</svg>
