<?xml version="1.0" standalone="no"?>
<!DOCTYPE svg PUBLIC "-//W3C//DTD SVG 1.1//EN" "http://www.w3.org/Graphics/SVG/1.1/DTD/svg11.dtd" >
<svg xmlns="http://www.w3.org/2000/svg" xmlns:xlink="http://www.w3.org/1999/xlink" version="1.1" viewBox="-10 -40 404 512">
   <path fill="currentColor"
d="M112 -39h-16h16h-16v16v0v112v0h-64h-32v32v0v288v0v32v0h32h32v16v0v16v0h32v0v-16v0v-16v0h192v0v16v0v16v0h32v0v-16v0v-16v0h32h32v-32v0v-288v0v-32v0h-32h-64v-112v0v-16v0h-16h-160zM320 409h-32h32h-288v-288v0h80h240v288v0h-32v0zM256 89h-128h128h-128v-96v0
h128v0v96v0zM96 201v32v-32v32h16h176v-32v0h-16h-176zM96 297v32v-32v32h16h176v-32v0h-16h-176z" />
</svg>
