<?xml version="1.0" standalone="no"?>
<!DOCTYPE svg PUBLIC "-//W3C//DTD SVG 1.1//EN" "http://www.w3.org/Graphics/SVG/1.1/DTD/svg11.dtd" >
<svg xmlns="http://www.w3.org/2000/svg" xmlns:xlink="http://www.w3.org/1999/xlink" version="1.1" viewBox="-10 -40 652 512">
   <path fill="currentColor"
d="M437 391q-46 48 -117 50q-68 -2 -113 -47t-47 -113q0 -28 27 -80l2 -6l-25 -20v0q-34 60 -36 106q2 82 56 136t136 56q42 0 79 -17q36 -16 63 -45l-25 -20v0zM299 -15q-26 31 -65 83l25 19v0q32 -42 56 -71l2 -2q1 -2 3 -4q3 3 5 6q28 34 65 84t64 101q17 34 23 58l35 28
v0v-3v-3q-2 -44 -33 -101q-32 -57 -71 -110q-40 -54 -67 -85q-20 -23 -21 -24q-1 1 -21 24v0zM320 361q-34 -1 -57 -23v0v0q-22 -23 -23 -57h-32v0q1 48 33 79q31 32 79 33v-32v0zM40 -21l-12 -10l12 10l-12 -10l-20 25v0l13 10v0l579 451v0l12 10v0l20 -25v0l-12 -10v0
l-580 -451v0z" />
</svg>
