<?xml version="1.0" standalone="no"?>
<!DOCTYPE svg PUBLIC "-//W3C//DTD SVG 1.1//EN" "http://www.w3.org/Graphics/SVG/1.1/DTD/svg11.dtd" >
<svg xmlns="http://www.w3.org/2000/svg" xmlns:xlink="http://www.w3.org/1999/xlink" version="1.1" viewBox="-10 -40 660 512">
   <path fill="currentColor"
d="M336 -39h-32h32h-32v16v0v96v0v16v0h32v0v-16v0v-96v0v-16v0zM176 18l-23 23l23 -23l-23 23l12 11v0l64 64v0l11 12v0l23 -23v0l-12 -11v0l-64 -64v0l-11 -12v0zM487 41l-23 -23l23 23l-23 -23l-11 12v0l-64 64v0l-12 11v0l23 23v0l11 -12v0l64 -64v0l12 -11v0zM267 190
l-96 26l96 -26l-96 26q-13 -33 -42 -48q-30 -15 -64 -7q-36 11 -53 41q-18 30 -9 67q8 26 27 43q12 11 28 17q-11 12 -16 28q-8 24 -2 51q11 36 41 53q31 18 67 9q34 -10 52 -38q17 -28 12 -62l96 -25v0l-8 -31v0l-124 33v0l5 29v0q3 21 -8 39q-12 18 -33 24q-23 6 -43 -5
q-19 -12 -26 -34q-6 -29 11 -51l7 -8v0l-11 -39v0l-9 -3v0q-26 -10 -35 -38q-6 -24 5 -43q12 -19 34 -26q22 -5 41 4q19 10 27 31l10 27v0l124 -33v0l-8 -31v0zM469 216l-95 -26l95 26l-95 -26l-9 31v0l124 33v0l11 -27v0q8 -21 26 -31q19 -9 41 -4q22 7 34 26q11 19 5 42
q-9 29 -35 39l-9 3v0l-11 39v0l7 8v0q17 22 11 50q-7 23 -26 35q-20 11 -43 5q-21 -6 -33 -24q-11 -18 -8 -40l5 -28v0l-124 -33v0l-8 30v0l96 26v0q-5 34 12 62q18 28 52 38q36 9 67 -9q30 -17 41 -53q7 -27 -2 -51q-5 -16 -16 -28q16 -6 28 -17q20 -17 27 -43
q9 -37 -9 -67q-17 -30 -53 -41q-34 -8 -64 7q-29 15 -42 47v1z" />
</svg>
