<?xml version="1.0" standalone="no"?>
<!DOCTYPE svg PUBLIC "-//W3C//DTD SVG 1.1//EN" "http://www.w3.org/Graphics/SVG/1.1/DTD/svg11.dtd" >
<svg xmlns="http://www.w3.org/2000/svg" xmlns:xlink="http://www.w3.org/1999/xlink" version="1.1" viewBox="-10 -40 532 512">
   <path fill="currentColor"
d="M100 -7h12h-12h312l3 11v0l45 149v0h20h32v32v0v64v0v32v0v64v0v32v0h-32v0v64v0h-32v0v-64v0h-96h-288v64v0h-32v0v-64v0h-32v0v-32v0v-64v0v-32v0v-64v0v-32v0h32h20l45 -149v0l3 -11v0zM32 281v64v-64v64h128v0v-48v0v-16v0h16h176v16v0v48v0h128v0v-64v0h-48h-16v-32
v0h16h48v-64v0h-448v0v64v0h48h16v32v0h-16h-48zM192 345h128h-128h128v-32v0h-128v0v32v0zM388 25h-264h264h-264l-38 128v0h341v0l-39 -128v0z" />
</svg>
