<?xml version="1.0" standalone="no"?>
<!DOCTYPE svg PUBLIC "-//W3C//DTD SVG 1.1//EN" "http://www.w3.org/Graphics/SVG/1.1/DTD/svg11.dtd" >
<svg xmlns="http://www.w3.org/2000/svg" xmlns:xlink="http://www.w3.org/1999/xlink" version="1.1" viewBox="-10 -40 659 512">
   <path fill="currentColor"
d="M194 -3l25 51l-25 -51l25 51l51 -11v0l-23 38v0l-16 3v0l-17 -4v0l-21 -6v0l-3 -6v0l-14 -29v0l-14 29v0l-11 23v0l-25 -6v0l-31 -7v0l13 30v0l11 22v0l-19 16v0l-25 20v0l31 8v0l24 5v0l1 25v0v33v0l10 -8v0l-14 51v0l-27 22v0l-1 -41v0v-56v0l-55 -13v0l-40 -10v0
l32 -25v0l44 -36v0l-24 -51v0l-18 -37v0l40 9v0l55 12v0l25 -51v0l18 -36v0l18 36v0zM327 5l11 3l-11 -3l11 3l235 62v0l11 3v0v13v0l2 121v0l22 5v0l31 9v0l-9 30v0l-36 137v0l-9 31v0l-14 54v0l-36 -10v0l14 -54v0l-360 -96v0l-15 54v0l-36 -10v0l15 -54v0l5 -19v0l3 -12
v0l37 -136v0l8 -31v0l31 8v0l21 6v0l62 -104v0l7 -10v0zM553 98l-211 -56l211 56l-211 -56l-52 85v0l264 71v0l-1 -100v0zM599 243l-370 -99l370 99l-370 -99l-37 136v0l371 100v0l36 -137v0zM277 201q15 4 20 20q4 15 -7 27q-12 11 -28 7q-11 -3 -17 -13q-5 -10 -3 -21
q4 -12 14 -17q9 -6 21 -3v0zM495 288q3 -11 13 -17v0v0q10 -5 21 -2q12 3 17 13q6 9 3 21q-3 11 -13 17q-10 5 -21 3q-12 -4 -17 -13q-6 -10 -3 -22v0z" />
</svg>
