<?xml version="1.0" standalone="no"?>
<!DOCTYPE svg PUBLIC "-//W3C//DTD SVG 1.1//EN" "http://www.w3.org/Graphics/SVG/1.1/DTD/svg11.dtd" >
<svg xmlns="http://www.w3.org/2000/svg" xmlns:xlink="http://www.w3.org/1999/xlink" version="1.1" viewBox="-10 -40 404 512">
   <path fill="currentColor"
d="M146 29q4 -16 16 -26v0v0q13 -10 30 -10t30 10q12 10 17 26l3 12v0h12h34v48v0h-96h-96v-48v0h34h12l4 -12v0zM192 -39q-25 0 -44 13v0v0q-20 13 -29 35h-39h-16v16v0v16v0h-32h-32v32v0v368v0v32v0h32h352v-32v0v-368v0v-32v0h-32h-32v-16v0v-16v0h-16h-39
q-9 -22 -29 -35q-19 -13 -44 -13v0zM320 105v-32v32v-32h32v0v368v0h-320v0v-368v0h32v0v32v0v16v0h16h240v-16v0zM208 41q-1 -15 -16 -16q-15 1 -16 16q1 15 16 16q15 -1 16 -16v0zM112 169h-16h16h-16v16v0v80v0v64v0v16v0h32v0v-16v0v-48v0h41v0l48 48v0l-36 37v0l-12 11
v0l23 23v0l11 -12v0l37 -36v0l37 36v0l11 12v0l23 -23v0l-12 -11v0l-36 -37v0l36 -37v0l12 -11v0l-23 -23v0l-11 12v0l-37 36v0l-31 -31v0q29 -15 31 -50q-1 -24 -16 -40q-16 -15 -40 -16h-72v0zM184 249h-56h56h-56v-48v0h56v0q22 2 24 24q-2 22 -24 24v0z" />
</svg>
