<?xml version="1.0" standalone="no"?>
<!DOCTYPE svg PUBLIC "-//W3C//DTD SVG 1.1//EN" "http://www.w3.org/Graphics/SVG/1.1/DTD/svg11.dtd" >
<svg xmlns="http://www.w3.org/2000/svg" xmlns:xlink="http://www.w3.org/1999/xlink" version="1.1" viewBox="-10 -40 468 512">
   <path fill="currentColor"
d="M96 57q0 -14 -9 -23v0v0q-9 -9 -23 -9t-23 9t-9 23t9 23t23 9t23 -9t9 -23v0zM80 119v196v-196v196q36 10 46 46h196v0q5 -17 16 -29l-32 -54v0q-9 3 -18 3q-27 -1 -45 -19t-19 -45q1 -27 19 -45t45 -19q9 0 18 3l32 -54v0q-11 -12 -16 -29h-196v0q-10 36 -46 46v0z
M366 316q9 -3 18 -3q27 1 45 19t19 45q-1 27 -19 45t-45 19q-23 0 -40 -14q-16 -13 -22 -34h-196v0q-6 21 -22 34q-17 14 -40 14q-27 -1 -45 -19t-19 -45q0 -23 14 -40q13 -16 34 -22v-196v0q-21 -6 -34 -22q-14 -17 -14 -40q1 -27 19 -45t45 -19q23 0 40 14q16 13 22 34
h196v0q6 -21 22 -34q17 -14 40 -14q27 1 45 19t19 45q-1 27 -19 45t-45 19q-9 0 -18 -3l-32 54v0q17 18 18 45q-1 27 -18 45l32 54v0zM64 345q-14 0 -23 9v0v0q-9 9 -9 23t9 23t23 9t23 -9t9 -23t-9 -23t-23 -9v0zM352 57q0 14 9 23v0v0q9 9 23 9t23 -9t9 -23t-9 -23t-23 -9
t-23 9t-9 23v0zM384 409q14 0 23 -9v0v0q9 -9 9 -23t-9 -23t-23 -9t-23 9t-9 23t9 23t23 9v0zM288 249q14 0 23 -9v0v0q9 -9 9 -23t-9 -23t-23 -9t-23 9t-9 23t9 23t23 9v0z" />
</svg>
