<?xml version="1.0" standalone="no"?>
<!DOCTYPE svg PUBLIC "-//W3C//DTD SVG 1.1//EN" "http://www.w3.org/Graphics/SVG/1.1/DTD/svg11.dtd" >
<svg xmlns="http://www.w3.org/2000/svg" xmlns:xlink="http://www.w3.org/1999/xlink" version="1.1" viewBox="-10 -40 652 512">
   <path fill="currentColor"
d="M512 153q-2 -82 -56 -136v0v0q-54 -54 -136 -56q-42 0 -79 17q-36 16 -63 46l25 19v0q46 -48 117 -50q68 2 113 47t47 113q0 24 -17 63l-10 24l25 20v0q32 -61 34 -107v0zM177 216q-10 -23 -14 -42l-35 -27v0v3v3q2 45 32 104q31 59 70 114q39 56 66 89q10 12 24 12
t24 -12q27 -34 67 -90l-25 -19v0q-39 54 -66 88q-20 -25 -47 -62q-27 -36 -53 -78q-27 -43 -44 -82zM40 -21l-12 -10l12 10l-12 -10l-20 25v0l13 10v0l579 451v0l12 10v0l20 -25v0l-12 -10v0l-580 -451v0z" />
</svg>
