<?xml version="1.0" standalone="no"?>
<!DOCTYPE svg PUBLIC "-//W3C//DTD SVG 1.1//EN" "http://www.w3.org/Graphics/SVG/1.1/DTD/svg11.dtd" >
<svg xmlns="http://www.w3.org/2000/svg" xmlns:xlink="http://www.w3.org/1999/xlink" version="1.1" viewBox="-10 -40 660 512">
   <path fill="currentColor"
d="M272 57h80h-80h80v-32v0h-192v0v32v0h80v0v64v0h-112h-128v32v0v112v0l96 48v0v32v0v32v0h32h304l208 -224v0l-32 -32v0l-160 32v0l-64 -32v0h-112v0v-64v0zM32 153h64h-64h64v124v0l-64 -32v0v-92v0zM434 182l10 5l-10 -5l10 5l10 -3v0l139 -27v0l-175 188v0h-34h-256
v-16v0v-36v0v-140v0h248v0l58 29v0z" />
</svg>
