<?xml version="1.0" standalone="no"?>
<!DOCTYPE svg PUBLIC "-//W3C//DTD SVG 1.1//EN" "http://www.w3.org/Graphics/SVG/1.1/DTD/svg11.dtd" >
<svg xmlns="http://www.w3.org/2000/svg" xmlns:xlink="http://www.w3.org/1999/xlink" version="1.1" viewBox="-10 -40 652 512">
   <path fill="currentColor"
d="M40 -21l-12 -10l12 10l-12 -10l-20 25v0l13 10v0l579 451v0l12 10v0l20 -25v0l-12 -10v0l-580 -451v0zM500 441l-40 -32l40 32l-40 -32h-332v0v-262v0l-32 -25v0v287v0v32v0h32h372zM140 -7l40 32l-40 -32l40 32h332v0v262v0l32 25v0v-287v0v-32v0h-32h-372zM240 235v14
v-14v14v32v0v48v0v16v0h32v0v-16v0v-16v0v-32v0v-20v0l-32 -26v0zM438 228q10 -19 10 -43q-1 -41 -28 -68t-68 -28h-88v0h-3l41 32v0h50v0q27 1 45 19t19 45q0 12 -4 23l26 20v0z" />
</svg>
