<?xml version="1.0" standalone="no"?>
<!DOCTYPE svg PUBLIC "-//W3C//DTD SVG 1.1//EN" "http://www.w3.org/Graphics/SVG/1.1/DTD/svg11.dtd" >
<svg xmlns="http://www.w3.org/2000/svg" xmlns:xlink="http://www.w3.org/1999/xlink" version="1.1" viewBox="-10 -40 532 512">
   <path fill="currentColor"
d="M185 -39h39h-39h47q55 1 94 35q39 33 48 86q23 11 36 32q14 20 14 47q0 11 -2 21q26 10 42 32t16 51q0 24 -12 44q42 25 44 76v72v0v16v0h-16h-496v-16v0v-72v0q2 -51 44 -76q-12 -20 -12 -44q0 -29 16 -51t43 -32q-3 -10 -3 -21q1 -37 26 -62t62 -26h1h18q16 0 26 -11
q11 -10 11 -26v-9v0q0 -19 -13 -33l-6 -6v0l-28 -27v0zM258 -4q6 15 6 31v9v0q-1 29 -20 49q-20 19 -49 20h-18h-1q-24 1 -40 16q-15 16 -16 40q0 14 6 25l10 21v0l-22 2v0q-22 3 -36 19q-14 15 -14 37q1 24 16 39l19 20v0l-26 7v0q-18 5 -29 20q-12 14 -12 34v56v0h448v0
v-56v0q0 -20 -12 -34q-11 -15 -29 -20l-26 -7v0l19 -20v0q16 -15 16 -39q0 -22 -14 -37q-14 -16 -35 -19l-23 -2v0l10 -21v0q6 -11 6 -25q0 -19 -11 -33q-10 -14 -27 -20l-10 -3v0l-1 -11v0q-4 -36 -27 -63q-23 -26 -58 -35v0z" />
</svg>
