<?xml version="1.0" standalone="no"?>
<!DOCTYPE svg PUBLIC "-//W3C//DTD SVG 1.1//EN" "http://www.w3.org/Graphics/SVG/1.1/DTD/svg11.dtd" >
<svg xmlns="http://www.w3.org/2000/svg" xmlns:xlink="http://www.w3.org/1999/xlink" version="1.1" viewBox="-10 -40 532 512">
   <path fill="currentColor"
d="M471 56q9 -11 9 -24v-5v0q0 -14 -10 -24t-24 -10q-15 0 -26 12l-189 212v0h106v0l134 -161v0zM496 77l-144 172l144 -172l-144 172h-149h-43l28 -32v0l208 -234v0q20 -21 50 -22q28 1 47 19q18 19 19 47v4v0q0 26 -16 45v1zM33 437l145 -156l-145 156l145 -156h44v0
l-136 147v0q30 -7 63 -19q50 -18 87 -49t49 -79h32v0q-13 65 -61 104q-48 38 -106 57t-101 25q-47 7 -49 6l33 -36v0z" />
</svg>
