<?xml version="1.0" standalone="no"?>
<!DOCTYPE svg PUBLIC "-//W3C//DTD SVG 1.1//EN" "http://www.w3.org/Graphics/SVG/1.1/DTD/svg11.dtd" >
<svg xmlns="http://www.w3.org/2000/svg" xmlns:xlink="http://www.w3.org/1999/xlink" version="1.1" viewBox="-10 -40 340 512">
   <path fill="currentColor"
d="M32 -7v320v-320v320q1 54 37 91q37 36 91 37q54 -1 91 -37q36 -37 37 -91v-320v0h-256v0zM0 -39h32h-32h320v32v0v320v0q-2 68 -47 113t-113 47q-68 -2 -113 -47t-47 -113v-320v0v-32v0zM136 353q2 22 24 24q22 -2 24 -24q-2 -22 -24 -24q-22 2 -24 24v0zM216 353
q-1 32 -28 48q-28 16 -56 0q-27 -16 -28 -48q1 -32 28 -48q28 -16 56 0q27 16 28 48v0zM216 217q-1 32 -28 48q-28 16 -56 0q-27 -16 -28 -48q1 -32 28 -48q28 -16 56 0q27 16 28 48v0zM136 81q2 22 24 24q22 -2 24 -24q-2 -22 -24 -24q-22 2 -24 24v0zM216 81q-1 32 -28 48
q-28 16 -56 0q-27 -16 -28 -48q1 -32 28 -48q28 -16 56 0q27 16 28 48v0z" />
</svg>
