<?xml version="1.0" standalone="no"?>
<!DOCTYPE svg PUBLIC "-//W3C//DTD SVG 1.1//EN" "http://www.w3.org/Graphics/SVG/1.1/DTD/svg11.dtd" >
<svg xmlns="http://www.w3.org/2000/svg" xmlns:xlink="http://www.w3.org/1999/xlink" version="1.1" viewBox="-10 -40 532 512">
   <path fill="currentColor"
d="M323 -30q-32 -9 -67 -9q-72 1 -129 35q-58 34 -92 92q-34 57 -35 129q1 72 35 129q34 58 92 92q57 34 129 35q72 -1 129 -35q58 -34 92 -92q34 -57 35 -129q0 -35 -9 -67l-27 27v0q4 19 4 40q-1 63 -31 113q-29 51 -80 80q-50 30 -113 31q-63 -1 -113 -31
q-51 -29 -80 -80q-30 -50 -31 -113q1 -63 31 -113q29 -51 80 -80q50 -30 113 -31q21 0 41 4l26 -27v0zM273 58q-8 -1 -17 -1q-68 2 -113 47t-47 113q2 68 47 113t113 47q68 -2 113 -47t47 -113q0 -9 -1 -17l-32 -3v0q1 10 1 20q-1 54 -37 91q-37 36 -91 37q-54 -1 -91 -37
q-36 -37 -37 -91q1 -54 37 -91q37 -36 91 -37q10 0 20 2l-3 -33v0zM437 36v0v0v0v0v0v0v0zM381 69l-40 40l40 -40l-40 40l-4 -62v0l25 -25v0l19 47v0zM334 162l97 7l-97 -7l97 7l7 1v0l5 -6v0l48 -48v0l18 -17v0l-23 -9v0l-74 -29v0l-29 -74v0l-9 -22v0l-17 17v0l-48 48v0
l-5 5v0v7v0l8 97v0l-67 67v0l-12 11v0l23 23v0l11 -12v0l67 -66v0zM364 132l40 -40l-40 40l40 -40l48 19v0l-26 26v0l-62 -5v0z" />
</svg>
