<?xml version="1.0" standalone="no"?>
<!DOCTYPE svg PUBLIC "-//W3C//DTD SVG 1.1//EN" "http://www.w3.org/Graphics/SVG/1.1/DTD/svg11.dtd" >
<svg xmlns="http://www.w3.org/2000/svg" xmlns:xlink="http://www.w3.org/1999/xlink" version="1.1" viewBox="-10 -40 532 512">
   <path fill="currentColor"
d="M256 441q63 -1 113 -31v0v0q51 -29 80 -80v0v0q30 -50 31 -113q-1 -63 -31 -113q-29 -51 -80 -80q-50 -30 -113 -31q-63 1 -113 31q-51 29 -80 80q-30 50 -31 113q0 18 3 36l-31 11v0q-4 -23 -4 -47q1 -72 35 -129q34 -58 92 -92q57 -34 129 -35q72 1 129 35q58 34 92 92
q34 57 35 129q-1 72 -35 129q-34 58 -92 92q-57 34 -129 35q-24 0 -47 -4l11 -31v0q17 3 36 3v0zM241 376l11 -31l-11 31l11 -31h2h2q54 -1 91 -37q36 -37 37 -91q-1 -54 -37 -91q-37 -36 -91 -37q-54 1 -91 37q-36 37 -37 91v4l-31 11v0q-1 -8 -1 -15q2 -68 47 -113
t113 -47q68 2 113 47t47 113q-2 68 -47 113t-113 47q-8 0 -15 -1v0zM255 238l-64 184l64 -184l-64 184l-13 37v0l-16 -35v0l-29 -61v0l-106 105v0l-22 -22v0l105 -106v0l-60 -29v0l-34 -17v0l36 -13v0l183 -63v0l31 -11v0l-11 31v0zM144 321l5 3l-5 -3l5 3l3 5v0l22 46v0
l40 -116v0l-115 40v0l45 22v0z" />
</svg>
