<?xml version="1.0" standalone="no"?>
<!DOCTYPE svg PUBLIC "-//W3C//DTD SVG 1.1//EN" "http://www.w3.org/Graphics/SVG/1.1/DTD/svg11.dtd" >
<svg xmlns="http://www.w3.org/2000/svg" xmlns:xlink="http://www.w3.org/1999/xlink" version="1.1" viewBox="-10 -40 660 512">
   <path fill="currentColor"
d="M96 -23v-16v16v-16h-32v0v16v0v48v0h-48h-16v16v0v416v0v16v0h16h176v-32v0h-160v0v-384v0h160v0v-16v0v-16v0v-48v0v-16v0h-32v0v16v0v48v0h-64v0v-48v0zM544 121h-32h32h-32v-32v0v-96v0v-32v0h-32h-256v32v0v448v0v32v0h32h384v-32v0v-288v0v-32v0h-32h-64zM480 -7
v128v-128v128v32v0h32h96v288v0h-96h-256v-448v0h224v0zM320 377h16h-16h96v-16v0v-64v0v-16v0h-16h-80v16v0v64v0v16v0zM352 345v-32v32v-32h32v0v32v0h-32v0zM336 25h-16h16h-16v16v0v64v0v16v0h16h80v-16v0v-64v0v-16v0h-16h-64zM352 89v-32v32v-32h32v0v32v0h-32v0z
M320 249h16h-16h96v-16v0v-64v0v-16v0h-16h-80v16v0v64v0v16v0zM352 217v-32v32v-32h32v0v32v0h-32v0zM496 409h64h-64h80v-16v0v-64v0v-16v0h-16h-80v16v0v64v0v16v0h16v0zM544 345v32v-32v32h-32v0v-32v0h32v0zM480 281h16h-16h96v-16v0v-64v0v-16v0h-16h-80v16v0v64v0v16
v0zM512 249v-32v32v-32h32v0v32v0h-32v0zM80 313h64h-64h80v-16v0v-64v0v-16v0h-16h-80v16v0v64v0v16v0h16v0zM96 249h32h-32h32v32v0h-32v0v-32v0zM64 185h16h-16h96v-16v0v-64v0v-16v0h-16h-80v16v0v64v0v16v0zM96 153v-32v32v-32h32v0v32v0h-32v0z" />
</svg>
