<?xml version="1.0" standalone="no"?>
<!DOCTYPE svg PUBLIC "-//W3C//DTD SVG 1.1//EN" "http://www.w3.org/Graphics/SVG/1.1/DTD/svg11.dtd" >
<svg xmlns="http://www.w3.org/2000/svg" xmlns:xlink="http://www.w3.org/1999/xlink" version="1.1" viewBox="-10 -40 532 512">
   <path fill="currentColor"
d="M87 343l7 -19l-7 19l7 -19l-14 -15v0q-47 -47 -48 -108q2 -71 63 -122q62 -52 161 -54q99 2 161 54q61 51 63 122q-2 71 -63 122q-62 52 -161 54q-43 0 -80 -12l-9 -2v0l-10 2v0l-88 27v0l18 -49v0zM16 441l39 -12l-39 12l39 -12l111 -33v0q42 13 90 13q72 -1 129 -28
q58 -28 92 -75t35 -105q-1 -58 -35 -105t-92 -75q-57 -27 -129 -28q-72 1 -129 28q-58 28 -92 75t-35 105q2 76 57 131l-27 71v0l-14 38v0zM272 105v-16v16v-16h-32v0v16v0v9v0q-10 2 -18 6q-23 9 -29 34q-3 15 3 27t16 18q18 10 37 15h1v0v0l2 1v0q20 6 30 12q4 3 5 6
q2 2 1 9q-1 8 -11 12q-10 5 -31 2q-11 -2 -27 -8v0v0v0v0l-6 -2l-15 -5v0l-10 30v0l15 5v0q1 1 2 1t3 1v0v0v0v0v0v0q1 0 2 1q15 5 30 8v10v0v16v0h32v0v-16v0v-9v0q10 -1 18 -5q23 -9 29 -35q3 -15 -2 -28q-6 -12 -16 -19q-19 -11 -39 -16h-1v-1v0q-21 -5 -31 -12
q-4 -3 -5 -5q-1 -1 -1 -7q1 -6 11 -11q11 -6 31 -3q4 1 11 2q7 2 11 2l15 5v0l9 -31v0l-16 -4v0q-4 -2 -12 -3q-7 -2 -12 -2v-10v0z" />
</svg>
