<?xml version="1.0" standalone="no"?>
<!DOCTYPE svg PUBLIC "-//W3C//DTD SVG 1.1//EN" "http://www.w3.org/Graphics/SVG/1.1/DTD/svg11.dtd" >
<svg xmlns="http://www.w3.org/2000/svg" xmlns:xlink="http://www.w3.org/1999/xlink" version="1.1" viewBox="-10 -40 660 512">
   <path fill="currentColor"
d="M78 236l-7 18l7 -18l-7 18l-19 46v0l100 -23v0l7 -1v0l7 1v0q20 4 42 4q78 -2 126 -44q49 -42 50 -100q-1 -58 -50 -100q-48 -42 -126 -44q-78 2 -126 44q-49 42 -50 100q1 47 33 84l13 15v0zM38 336l-38 9l38 -9l-38 9l15 -36v0l26 -67v0q-40 -45 -41 -105
q2 -75 61 -124q59 -50 147 -52q88 2 147 52q59 49 61 124q-2 75 -61 124q-59 50 -147 52q-25 0 -48 -5l-122 28v0zM245 342q17 -2 34 -6q22 32 62 52q39 20 91 21q22 0 42 -4l7 -2v0l7 2v0l100 23v0l-19 -46v0l-7 -18v0l13 -15v0q32 -37 33 -84q-1 -55 -45 -96t-116 -48
q-1 -16 -5 -32q85 5 140 54q56 49 58 122q-1 60 -41 105l27 67v0l14 36v0l-38 -9v0l-121 -28v0q-24 5 -49 5q-62 -1 -111 -27q-50 -27 -76 -71v-1zM224 52v7v-7v7q11 2 21 4l15 4v0l-8 31v0l-16 -4v0q-3 -1 -9 -2q-7 -2 -10 -2q-18 -2 -27 2q-9 5 -9 9v5l4 4q9 6 28 11v0v0
h1q18 4 35 15q9 6 15 17q5 12 3 26q-6 24 -28 33q-7 3 -15 4v6v0v16v0h-32v0v-16v0v-7v0q-14 -3 -28 -8v0v0v0v0v0q-2 -1 -3 -1t-1 -1l-15 -5v0l10 -30v0l15 5v0l1 1q2 0 4 1v0v0q15 5 25 7q17 2 27 -2q7 -3 8 -9q1 -5 0 -7l-4 -4q-9 -5 -27 -11h-2v0h-1q-17 -5 -34 -14
q-9 -6 -14 -17q-6 -11 -3 -25q5 -23 27 -32q7 -3 15 -5v-6v0v-16v0h32v0v16v0z" />
</svg>
