<?xml version="1.0" standalone="no"?>
<!DOCTYPE svg PUBLIC "-//W3C//DTD SVG 1.1//EN" "http://www.w3.org/Graphics/SVG/1.1/DTD/svg11.dtd" >
<svg xmlns="http://www.w3.org/2000/svg" xmlns:xlink="http://www.w3.org/1999/xlink" version="1.1" viewBox="-10 -40 404 512">
   <path fill="currentColor"
d="M352 441h-48h48h-48l-32 -96v0h-160v0l-32 96v0h-48v0v-448v0h160v0v144v0v16v0h16h144v288v0zM270 441h-156h156h-156l21 -64v0h114v0l21 64v0zM224 -2l123 123l-123 -123l123 123h-123v0v-123v0zM232 -39h-200h200h-232v32v0v448v0v32v0h32h352v-32v0v-328v0l-152 -152
v0zM192 217q14 0 23 9v0v0q9 9 9 23t-9 23t-23 9t-23 -9t-9 -23t9 -23t23 -9v0zM192 313q36 -1 55 -32q18 -32 0 -64q-19 -31 -55 -32q-36 1 -55 32q-18 32 0 64q19 31 55 32v0z" />
</svg>
