<?xml version="1.0" standalone="no"?>
<!DOCTYPE svg PUBLIC "-//W3C//DTD SVG 1.1//EN" "http://www.w3.org/Graphics/SVG/1.1/DTD/svg11.dtd" >
<svg xmlns="http://www.w3.org/2000/svg" xmlns:xlink="http://www.w3.org/1999/xlink" version="1.1" viewBox="-10 -40 596 512">
   <path fill="currentColor"
d="M304 -7h-176h176h-208v32v0v288v0v32v0h32h448v-32v0v-224v0v-32v0h-32h-176l-64 -64v0zM368 89h176h-176h176v224v0h-416v0v-288v0h163v0l54 55v0l10 9v0h13v0zM32 73v-16v16v-16h-32v0v16v0v352v0v16v0h16h464v-32v0h-16h-432v-336v0z" />
</svg>
