<?xml version="1.0" standalone="no"?>
<!DOCTYPE svg PUBLIC "-//W3C//DTD SVG 1.1//EN" "http://www.w3.org/Graphics/SVG/1.1/DTD/svg11.dtd" >
<svg xmlns="http://www.w3.org/2000/svg" xmlns:xlink="http://www.w3.org/1999/xlink" version="1.1" viewBox="-10 -40 596 512">
   <path fill="currentColor"
d="M224 237v12v-12v12v66v0l33 28v0q2 29 13 54l-78 -68v0v-80v0l-192 -224v0v-32v0v-32v0h32h480v32v0v32v0l-112 131v0q-36 7 -64 26l144 -169v0v-20v0h-448v0v20v0l184 215v0l8 9v0zM432 441q30 0 56 -15v0v0q26 -15 41 -41t15 -56t-15 -56t-41 -41t-56 -15t-56 15
t-41 41t-15 56t15 56t41 41t56 15v0zM432 185q39 0 72 19v0v0q33 19 53 53q19 34 19 72t-19 72q-20 34 -53 53t-72 19t-72 -19t-53 -53q-19 -34 -19 -72t19 -72q20 -34 53 -53t72 -19v0zM409 296q-1 1 -1 4v0v0q-1 1 5 5q8 4 22 7q1 1 2 1v0v0q15 3 30 11q18 9 21 33
q-2 27 -22 37q-9 4 -18 6v11v0v16v0h-32v0v-16v0v-12v0q-13 -3 -24 -6v0v0v0v0l-4 -2h-1l-15 -5v0l10 -30v0l15 4v0l6 2v0v0q16 6 29 7q11 0 19 -4q3 -1 4 -3q1 -1 1 -4q1 -2 -5 -6q-8 -4 -23 -8l-2 -1v0q-14 -3 -28 -10q-18 -7 -22 -31q1 -28 22 -37q9 -5 18 -6v-10v0v-16
v0h32v0v16v0v9v0l18 4l15 4v0l-7 31v0l-16 -4v0q-14 -3 -26 -4q-10 0 -19 4q-3 2 -4 4v-1z" />
</svg>
