<?xml version="1.0" standalone="no"?>
<!DOCTYPE svg PUBLIC "-//W3C//DTD SVG 1.1//EN" "http://www.w3.org/Graphics/SVG/1.1/DTD/svg11.dtd" >
<svg xmlns="http://www.w3.org/2000/svg" xmlns:xlink="http://www.w3.org/1999/xlink" version="1.1" viewBox="-10 -40 586 512">
   <path fill="currentColor"
d="M321 78l-16 -58l16 58l-16 -58l-17 -59v0l-17 59v0l-16 58v0l-9 33v0l-28 -19v0l-51 -34v0l-51 -35v0l26 56v0l25 54v0l14 31v0l-33 3v0l-61 6v0l-63 6v0l57 27v0l55 26v0l31 14v0l-24 24v0l-43 43v0l-44 44v0l61 -16v0l59 -15v0l33 -8v0l-3 34v0l-5 60v0l-5 61v0l36 -50
v0l36 -49v0l20 -28v0l20 28v0l36 49v0l36 50v0l-5 -61v0l-5 -60v0l-3 -34v0l33 8v0l60 16v0l60 15v0l-44 -44v0l-43 -43v0l-24 -24v0l31 -14v0l55 -26v0l57 -27v0l-63 -6v0l-60 -5v0l-34 -4v0l14 -30v0l25 -55v0l26 -56v0l-51 35v0l-51 34v0l-28 19v0l-9 -33v0zM383 114
l-17 37l17 -37l-17 37l-19 41v0l45 4v0l40 4v0l-36 17v0l-41 19v0l32 33v0l28 28v0l-40 -10v0l-43 -11v0l3 45v0l4 41v0l-25 -34v0l-26 -36v0l-26 36v0l-25 34v0l4 -41v0l3 -45v0l-43 11v0l-40 10v0l28 -28v0l32 -32v0l-41 -20v0l-36 -17v0l40 -4v0l45 -4v0l-19 -41v0
l-17 -37v0l35 23v0l37 25v0l12 -42v0l11 -41v0l11 41v0l12 42v0l37 -25v0l35 -23v0z" />
</svg>
