<?xml version="1.0" standalone="no"?>
<!DOCTYPE svg PUBLIC "-//W3C//DTD SVG 1.1//EN" "http://www.w3.org/Graphics/SVG/1.1/DTD/svg11.dtd" >
<svg xmlns="http://www.w3.org/2000/svg" xmlns:xlink="http://www.w3.org/1999/xlink" version="1.1" viewBox="-10 -40 394 512">
   <path fill="currentColor"
d="M336 137q-1 47 -26 82q-4 6 -9 13l-4 6q-1 1 -1 2q-20 26 -37 55q-13 25 -17 50h33v0q3 -18 12 -34q15 -27 34 -52v0v0v0v0v0v0v0l16 -22q30 -43 31 -100q-2 -75 -52 -124q-49 -50 -124 -52q-75 2 -124 52q-50 49 -52 124q1 57 31 100q8 11 16 21v1v0v0v0v0v0v0
q19 25 34 51q9 17 12 35h33v0q-4 -25 -17 -50q-17 -30 -37 -57h-1v0v0q-7 -10 -13 -19q-25 -35 -26 -82q2 -61 42 -102q41 -40 102 -42q61 2 102 42q40 41 42 102v0zM144 409h96h-96h96v32v0h-96v0v-32v0zM112 409v32v-32v32v32v0h32h128v-32v0v-32v0v-32v0h-32h-128v32v0z
M208 57v-16v16v-16h-32v0v16v0v9v0q-10 2 -18 6q-23 9 -29 34q-3 15 3 27t16 18q18 10 37 15h1v0v0l2 1v0q20 6 30 12q4 3 5 6q2 2 1 9q-1 8 -11 12q-10 5 -31 2q-11 -2 -27 -8v0v0v0v0l-6 -2l-15 -5v0l-10 30v0l15 5v0q1 1 2 1t3 1v0v0v0v0v0v0q1 0 2 1q15 5 30 8v10v0v16
v0h32v0v-16v0v-9v0q10 -1 18 -5q23 -9 29 -35q3 -15 -2 -28q-6 -12 -16 -18q-19 -12 -39 -17v0v0v0l-1 -1v0q-21 -5 -31 -12q-4 -3 -5 -5q-1 -1 -1 -7q1 -6 11 -11q11 -6 31 -3q4 1 11 2q7 2 11 2l15 5v0l9 -31v0l-16 -4v0q-4 -2 -12 -3q-7 -2 -12 -2v-10v0z" />
</svg>
