<?xml version="1.0" standalone="no"?>
<!DOCTYPE svg PUBLIC "-//W3C//DTD SVG 1.1//EN" "http://www.w3.org/Graphics/SVG/1.1/DTD/svg11.dtd" >
<svg xmlns="http://www.w3.org/2000/svg" xmlns:xlink="http://www.w3.org/1999/xlink" version="1.1" viewBox="-10 -40 394 512">
   <path fill="currentColor"
d="M336 137q-1 47 -26 82q-4 6 -9 13l-4 6q-1 1 -1 2q-20 26 -37 55q-13 25 -17 50h33v0q3 -18 12 -34q15 -27 34 -52v0v0v0v0v0v0v0l16 -22q30 -43 31 -100q-2 -75 -52 -124q-49 -50 -124 -52q-75 2 -124 52q-50 49 -52 124q1 57 31 100q8 11 16 21v1v0v0v0v0v0v0
q19 25 34 51q9 17 12 35h33v0q-4 -25 -17 -50q-17 -30 -37 -57h-1v0v0q-7 -10 -13 -19q-25 -35 -26 -82q2 -61 42 -102q41 -40 102 -42q61 2 102 42q40 41 42 102v0zM144 409h96h-96h96v32v0h-96v0v-32v0zM112 409v32v-32v32v32v0h32h128v-32v0v-32v0v-32v0h-32h-128v32v0z
M208 57h-32h32h-32v16v0v128v0v16v0h32v0v-16v0v-128v0v-16v0zM168 297h48h-48h48v-48v0h-48v0v48v0z" />
</svg>
