<?xml version="1.0" standalone="no"?>
<!DOCTYPE svg PUBLIC "-//W3C//DTD SVG 1.1//EN" "http://www.w3.org/Graphics/SVG/1.1/DTD/svg11.dtd" >
<svg xmlns="http://www.w3.org/2000/svg" xmlns:xlink="http://www.w3.org/1999/xlink" version="1.1" viewBox="-10 -40 660 512">
   <path fill="currentColor"
d="M464 137q-1 47 -26 82q-6 9 -13 19q-1 1 -1 2q-20 26 -37 55q-13 25 -17 50h33v0q3 -18 12 -34q15 -27 34 -52v0v0v0v0v0v0l16 -22q30 -43 31 -100q-2 -75 -52 -124q-49 -50 -124 -52q-75 2 -124 52q-50 49 -52 124q1 57 31 100l16 22v0v0v0v0v0v0q19 25 34 51
q9 17 12 35h33v0q-4 -25 -17 -50q-17 -30 -37 -57h-1v0v0q-7 -10 -13 -19q-25 -35 -26 -82q2 -61 42 -102q41 -40 102 -42q61 2 102 42q40 41 42 102v0zM240 137q1 -34 23 -57v0v0q23 -22 57 -23v-32v0q-48 1 -79 33q-32 31 -33 79h32v0zM272 441v-32v32v-32h96v0v32v0h-96
v0zM240 377v32v-32v32v32v0v32v0h32h128v-32v0v-32v0v-32v0h-32h-128zM67 -31l-14 -7l14 7l-14 -7l-14 28v0l14 7v0l52 26v0l14 8v0l14 -29v0l-14 -7v0l-52 -26v0zM587 -3l15 -7l-15 7l15 -7l-15 -28v0l-14 7v0l-52 26v0l-14 7v0l14 29v0l14 -8v0l52 -26v0zM16 121h-16h16
h-16v32v0h16h80v-32v0h-16h-64zM560 121h-16h16h-16v32v0h16h80v-32v0h-16h-64zM119 279l15 -7l-15 7l15 -7l-15 -29v0l-14 8v0l-52 26v0l-14 7v0l14 29v0l14 -8v0l52 -26v0zM535 251l-14 -8l14 8l-14 -8l-14 29v0l14 7v0l52 26v0l14 8v0l15 -29v0l-15 -7v0l-52 -26v0z" />
</svg>
