<?xml version="1.0" standalone="no"?>
<!DOCTYPE svg PUBLIC "-//W3C//DTD SVG 1.1//EN" "http://www.w3.org/Graphics/SVG/1.1/DTD/svg11.dtd" >
<svg xmlns="http://www.w3.org/2000/svg" xmlns:xlink="http://www.w3.org/1999/xlink" version="1.1" viewBox="-10 -40 650 512">
   <path fill="currentColor"
d="M48 -23v64v-64v64v16v0h-32v0v-16v0v-64v0v-16v0h32v0v16v0zM144 -23v64v-64v64v16v0h-32v0v-16v0v-64v0v-16v0h32v0v16v0zM240 -23v64v-64v64v16v0h-32v0v-16v0v-64v0v-16v0h32v0v16v0zM336 -23v64v-64v64v16v0h-32v0v-16v0v-64v0v-16v0h32v0v16v0zM432 -23v64v-64v64
v16v0h-32v0v-16v0v-64v0v-16v0h32v0v16v0zM528 -23v64v-64v64v16v0h-32v0v-16v0v-64v0v-16v0h32v0v16v0zM624 -23v64v-64v64v16v0h-32v0v-16v0v-64v0v-16v0h32v0v16v0zM48 89v16v-16v16v160v0q1 20 14 34q14 13 34 14h16v0v-208v0v-16v0h32v0v16v0v208v0h64v0v-208v0v-16v0
h32v0v16v0v208v0h64v0v-208v0v-16v0h32v0v16v0v208v0h64v0v-208v0v-16v0h32v0v16v0v208v0h64v0v-208v0v-16v0h32v0v16v0v208v0h16v0q20 -1 34 -14q13 -14 14 -34v-160v0v-16v0h32v0v16v0v160v0q-1 34 -23 57q-23 22 -57 23h-16h-192v96v0h160h16v32v0h-16h-368v-32v0h16h160
v-96v0h-64h-144q-34 -1 -57 -23q-22 -23 -23 -57v-160v0v-16v0h32v0z" />
</svg>
