<?xml version="1.0" standalone="no"?>
<!DOCTYPE svg PUBLIC "-//W3C//DTD SVG 1.1//EN" "http://www.w3.org/Graphics/SVG/1.1/DTD/svg11.dtd" >
<svg xmlns="http://www.w3.org/2000/svg" xmlns:xlink="http://www.w3.org/1999/xlink" version="1.1" viewBox="-10 -40 468 512">
   <path fill="currentColor"
d="M288 -7h-80h80h-80v32v0h80v0q15 -1 16 -16q-1 -15 -16 -16v0zM176 25h-8h8h-8q-20 1 -34 14q-13 14 -14 34v48v0h312h16v32v0h-16h-432v-32v0h16h72v-48v0q1 -34 23 -57q23 -22 57 -23h8v0v-32v0h32h80q20 1 34 14q13 14 14 34q-1 20 -14 34q-14 13 -34 14h-80h-32v-32
v0zM80 473l-33 -288l33 288l-33 -288h33v0l29 256v0h230v0l30 -256v0h32v0l-33 288v0h-288v0z" />
</svg>
