<?xml version="1.0" standalone="no"?>
<!DOCTYPE svg PUBLIC "-//W3C//DTD SVG 1.1//EN" "http://www.w3.org/Graphics/SVG/1.1/DTD/svg11.dtd" >
<svg xmlns="http://www.w3.org/2000/svg" xmlns:xlink="http://www.w3.org/1999/xlink" version="1.1" viewBox="-10 -40 532 512">
   <path fill="currentColor"
d="M96 -7v160v-160v160h320v0v-115v0l-45 -45v0h-275v0zM448 153h32h-32h64v32v0v128v0v32v0h-32h-480v-32v0v-128v0v-32v0h32h32v-160v0v-32v0h32h288l64 64v0v128v0zM32 185v128v-128v128h448v0v-128v0h-448v0zM416 217h32h-32h32v32v0h-32v0v-32v0zM96 457v-80v80v-80h32
v0v80v0v16v0h-32v0v-16v0zM192 457v-80v80v-80h32v0v80v0v16v0h-32v0v-16v0zM288 457v-80v80v-80h32v0v80v0v16v0h-32v0v-16v0zM384 457v-80v80v-80h32v0v80v0v16v0h-32v0v-16v0z" />
</svg>
