<?xml version="1.0" standalone="no"?>
<!DOCTYPE svg PUBLIC "-//W3C//DTD SVG 1.1//EN" "http://www.w3.org/Graphics/SVG/1.1/DTD/svg11.dtd" >
<svg xmlns="http://www.w3.org/2000/svg" xmlns:xlink="http://www.w3.org/1999/xlink" version="1.1" viewBox="-10 -40 650 512">
   <path fill="currentColor"
d="M464 73v-16v16v-16h-32v0v16v0v384v0v16v0h32v0v-16v0v-384v0zM336 153h-32h32h-32v16v0v288v0v16v0h32v0v-16v0v-288v0v-16v0zM208 265v-16v16v-16h-32v0v16v0v192v0v16v0h32v0v-16v0v-192v0zM80 361v-16v16v-16h-32v0v16v0v96v0v16v0h32v0v-16v0v-96v0z" />
</svg>
