<?xml version="1.0" standalone="no"?>
<!DOCTYPE svg PUBLIC "-//W3C//DTD SVG 1.1//EN" "http://www.w3.org/Graphics/SVG/1.1/DTD/svg11.dtd" >
<svg xmlns="http://www.w3.org/2000/svg" xmlns:xlink="http://www.w3.org/1999/xlink" version="1.1" viewBox="-10 -40 650 512">
   <path fill="currentColor"
d="M416 121v320v-320v320h-32v0v-320v0h32v0zM384 89h-32h32h-32v32v0v320v0v32v0h32h64v-32v0v-320v0v-32v0h-32h-32zM256 249v192v-192v192h-32v0v-192v0h32v0zM224 217h-32h32h-32v32v0v192v0v32v0h32h64v-32v0v-192v0v-32v0h-32h-32zM64 377h32h-32h32v64v0h-32v0v-64v0
zM32 345v32v-32v32v64v0v32v0h32h64v-32v0v-64v0v-32v0h-32h-64z" />
</svg>
