<?xml version="1.0" standalone="no"?>
<!DOCTYPE svg PUBLIC "-//W3C//DTD SVG 1.1//EN" "http://www.w3.org/Graphics/SVG/1.1/DTD/svg11.dtd" >
<svg xmlns="http://www.w3.org/2000/svg" xmlns:xlink="http://www.w3.org/1999/xlink" version="1.1" viewBox="-10 -40 660 512">
   <path fill="currentColor"
d="M192 249v192v-192v192h64v0v-96v0q1 -27 19 -45t45 -19q27 1 45 19t19 45v96v0h64v0v-192v0v-145v0l-128 -102v0l-128 102v0v145v0zM160 217v-128v128v-128l160 -128v0l160 128v0v128v0l41 -41v0l23 -23v0l23 23v0l73 73v0v192v0v32v0h-32h-608v-32v0v-192v0l73 -73v0
l23 -23v0l23 23v0l41 41v0zM160 262l-64 -64l64 64l-64 -64l-64 64v0v179v0h128v0v-179v0zM480 262v179v-179v179h128v0v-179v0l-64 -64v0l-64 64v0zM288 441h64h-64h64v-96v0q0 -14 -9 -23t-23 -9t-23 9t-9 23v96v0zM349 106l25 -1l-25 1l25 -1h32v0l-16 27v0l-13 21v0
l13 21v0l16 27v0h-32h-25l-13 21v0l-16 27v0l-16 -27v0l-12 -22v0l-26 1v0h-32v0l16 -27v0l13 -21v0l-13 -21v0l-16 -27v0h32v0l26 1v0l12 -22v0l16 -27v0l16 27v0l13 22v0zM358 133h-9h9h-25l-8 -14v0l-5 -8v0l-5 8v0l-8 14v0h-16h-8l3 6v0l9 14v0l-9 14v0l-3 6v0h8h16
l8 14v0l5 8v0l5 -8v0l8 -14v0h16h9l-4 -6v0l-9 -14v0l9 -14v0l4 -6v0z" />
</svg>
