<?xml version="1.0" standalone="no"?>
<!DOCTYPE svg PUBLIC "-//W3C//DTD SVG 1.1//EN" "http://www.w3.org/Graphics/SVG/1.1/DTD/svg11.dtd" >
<svg xmlns="http://www.w3.org/2000/svg" xmlns:xlink="http://www.w3.org/1999/xlink" version="1.1" viewBox="-10 -40 596 512">
   <path fill="currentColor"
d="M181 289l-9 -8l9 8l-9 -8h-12h-96v-128v0h96h12l9 -8v0l135 -120v0h4v0v384v0h-4v0l-135 -120v0zM32 313h32h-32h128l144 128v0h16h32v-32v0v-384v0v-32v0h-32h-16l-144 128v0h-96h-32v32v0v128v0v32v0zM442 294q36 -28 38 -77q-2 -49 -38 -77l-20 26v0q25 19 26 51
q-1 32 -26 51l20 26v0zM499 371q36 -27 56 -67v0v0q21 -39 21 -87t-21 -87q-20 -40 -56 -67l-19 26v0q30 22 47 55t17 73t-17 73t-47 55l19 26v0z" />
</svg>
