<?xml version="1.0" standalone="no"?>
<!DOCTYPE svg PUBLIC "-//W3C//DTD SVG 1.1//EN" "http://www.w3.org/Graphics/SVG/1.1/DTD/svg11.dtd" >
<svg xmlns="http://www.w3.org/2000/svg" xmlns:xlink="http://www.w3.org/1999/xlink" version="1.1" viewBox="-10 -40 468 512">
   <path fill="currentColor"
d="M263 -8l4 -4l-4 4l4 -4l-22 -22v0l-4 4v0q-23 23 -30 55h-115v0q-41 1 -68 28t-28 68v16v0v32v0h32h416v-32v0v-16v0q-1 -41 -28 -68t-68 -28h-108v0q5 -19 19 -33v0zM352 57q27 1 45 19v0v0q18 18 19 45v16v0h-384v0v-16v0q1 -27 19 -45t45 -19h256v0zM48 201
q2 41 18 88v0v0q16 47 54 88v0v0q37 41 104 64q67 -23 104 -64q38 -41 54 -88t18 -88h-32v0q-2 55 -33 114t-111 92q-80 -33 -111 -92t-32 -114h-32h-1z" />
</svg>
