<?xml version="1.0" standalone="no"?>
<!DOCTYPE svg PUBLIC "-//W3C//DTD SVG 1.1//EN" "http://www.w3.org/Graphics/SVG/1.1/DTD/svg11.dtd" >
<svg xmlns="http://www.w3.org/2000/svg" xmlns:xlink="http://www.w3.org/1999/xlink" version="1.1" viewBox="-10 -40 532 512">
   <path fill="currentColor"
d="M219 -12l-22 -22l22 22l-22 -22l-32 32v0l-12 11v0l23 23v0l11 -12v0l32 -32v0zM411 -12l-22 -22l22 22l-22 -22l-32 32v0l-12 11v0l23 23v0l11 -12v0l32 -32v0zM160 59l-64 -18l64 18l-64 -18q-33 2 -48 29q-16 28 -16 62q0 11 1 21h33v0q-2 -10 -2 -21q0 -27 11 -45
q8 -13 17 -14l59 17v0l9 3v0l9 -3v0l59 -17v0q9 1 17 14q11 18 11 45q0 11 -1 21h32v0q1 -10 1 -21q0 -34 -16 -62q-15 -27 -48 -29l-64 18v0zM479 153q1 -10 1 -21q0 -34 -16 -62q-15 -27 -48 -29l-64 18v0l-61 -17v0q5 6 9 12q7 13 12 27l31 9v0l9 3v0l9 -3v0l59 -17v0
q9 1 17 14q11 18 11 46q0 10 -2 20h33v0zM32 441v-96v96v-96h448v0v96v0h-448v0zM32 217h448h-448h448v96v0h-448v0v-96v0zM512 329v-16v16v-16v-96v0v-32v0h-32h-480v32v0v96v0v16v0v16v0v96v0v32v0h32h480v-32v0v-96v0v-16v0zM80 281q15 -1 16 -16q-1 -15 -16 -16
q-15 1 -16 16q1 15 16 16v0zM448 265q-1 -15 -16 -16q-15 1 -16 16q1 15 16 16q15 -1 16 -16v0zM80 409q15 -1 16 -16q-1 -15 -16 -16q-15 1 -16 16q1 15 16 16v0zM448 393q-1 -15 -16 -16q-15 1 -16 16q1 15 16 16q15 -1 16 -16v0z" />
</svg>
