<?xml version="1.0" standalone="no"?>
<!DOCTYPE svg PUBLIC "-//W3C//DTD SVG 1.1//EN" "http://www.w3.org/Graphics/SVG/1.1/DTD/svg11.dtd" >
<svg xmlns="http://www.w3.org/2000/svg" xmlns:xlink="http://www.w3.org/1999/xlink" version="1.1" viewBox="-10 -40 596 512">
   <path fill="currentColor"
d="M272 73l-8 -4l8 4l-8 -4l-19 -11v0l-14 56v0l-10 38v0l-35 -17v0l-81 -38v0q-70 94 -73 212l50 -25v0l26 -13v0l15 26v0l27 44v0l35 -35v0l26 -25v0l22 29v0l55 71v0l55 -71v0l22 -29v0l26 25v0l35 35v0l26 -44v0l16 -26v0l26 13v0l50 25v0q-4 -118 -73 -212l-81 38v0
l-35 17v0l-10 -38v0l-14 -56v0l-19 11v0l-7 4v0h-9h-24zM323 26l29 -17l-29 17l29 -17l8 32v0l9 34v0l7 31v0l30 -14v0l74 -35v0q47 55 71 121q25 67 25 139v8v0v36v0l-32 -16v0l-64 -32v0l-31 52v0l-17 28v0l-23 -23v0l-18 -18v0l-23 -23v0l-20 26v0l-40 52v0l-20 26v0
l-20 -26v0l-40 -52v0l-20 -26v0l-23 23v0l-18 18v0l-23 23v0l-17 -28v0l-31 -52v0l-64 32v0l-32 16v0v-36v0v-8v0q0 -72 25 -139q24 -66 71 -121l74 35v0l30 14v0l8 -31v0l8 -34v0l8 -32v0l29 17v0l27 15v0h16v0l27 -15v0z" />
</svg>
