<?xml version="1.0" standalone="no"?>
<!DOCTYPE svg PUBLIC "-//W3C//DTD SVG 1.1//EN" "http://www.w3.org/Graphics/SVG/1.1/DTD/svg11.dtd" >
<svg xmlns="http://www.w3.org/2000/svg" xmlns:xlink="http://www.w3.org/1999/xlink" version="1.1" viewBox="-10 -40 468 512">
   <path fill="currentColor"
d="M64 -39q-27 1 -45 19v0v0q-18 18 -19 45v384v0v0v0q1 27 19 45t45 19h368h16v-32v0h-16h-16v-64v0h16h16v-16v0v-384v0v-16v0h-16h-368zM384 377v64v-64v64h-320v0q-14 0 -23 -9t-9 -23t9 -23t23 -9h320v0zM64 345q-18 0 -32 9v-329v0q0 -14 9 -23t23 -9h352v0v352v0
h-352v0zM288 105l-14 24l14 -24l-14 24l-24 42v0l-42 24v0l-24 14v0l24 14v0l42 24v0l24 42v0l14 24v0l14 -24v0l24 -42v0l42 -24v0l24 -14v0l-24 -14v0l-42 -24v0l-24 -42v0l-14 -24v0zM288 169l13 22l-13 -22l13 22l2 3v0l3 3v0l22 12v0l-22 13v0l-3 2v0l-2 3v0l-13 22v0
l-13 -22v0l-2 -3v0l-3 -2v0l-22 -13v0l22 -13v0l3 -2v0l2 -3v0l13 -22v0zM174 41l-14 -23l14 23l-14 -23l-14 23v0l-16 26v0l-26 16v0l-23 14v0l23 14v0l26 16v0l16 26v0l14 23v0l14 -23v0l16 -26v0l26 -16v0l23 -14v0l-23 -14v0l-26 -16v0l-16 -26v0zM155 87l5 -7l-5 7
l5 -7l5 7v0l2 3v0l3 2v0l7 5v0l-7 5v0l-3 2v0l-2 3v0l-5 7v0l-5 -7v0l-2 -3v0l-3 -2v0l-7 -5v0l7 -5v0l3 -2v0l2 -3v0z" />
</svg>
