<?xml version="1.0" standalone="no"?>
<!DOCTYPE svg PUBLIC "-//W3C//DTD SVG 1.1//EN" "http://www.w3.org/Graphics/SVG/1.1/DTD/svg11.dtd" >
<svg xmlns="http://www.w3.org/2000/svg" xmlns:xlink="http://www.w3.org/1999/xlink" version="1.1" viewBox="-10 -40 468 512">
   <path fill="currentColor"
d="M160 121q20 -1 34 -14v0v0q13 -14 14 -34q1 -6 -8 -21q-10 -16 -24 -31q-8 -10 -16 -17q-8 7 -16 17q-15 15 -24 31t-8 21q1 20 14 34q14 13 34 14v0zM160 -39q1 1 21 18v0v0q19 18 38 44v0v0q20 25 21 50q-1 34 -23 57q-23 22 -57 23q-34 -1 -57 -23q-22 -23 -23 -57
q1 -25 21 -50q19 -26 38 -44q20 -17 21 -18v0zM0 441h16h-16h64v-208v0q1 -20 14 -34q14 -13 34 -14h16h80q20 1 34 14q13 14 14 34v208v0h73v0q-9 -14 -9 -32q1 -27 19 -45t45 -19q27 1 45 19t19 45q-1 27 -19 45t-45 19h-128h-256v-32v0zM128 217h-16h16h-16q-15 1 -16 16
v208v0h128v0v-208v0q-1 -15 -16 -16h-48v0v48v0v16v0h-32v0v-16v0v-48v0zM384 441q14 0 23 -9v0v0q9 -9 9 -23t-9 -23t-23 -9t-23 9t-9 23t9 23t23 9v0z" />
</svg>
