<?xml version="1.0" standalone="no"?>
<!DOCTYPE svg PUBLIC "-//W3C//DTD SVG 1.1//EN" "http://www.w3.org/Graphics/SVG/1.1/DTD/svg11.dtd" >
<svg xmlns="http://www.w3.org/2000/svg" xmlns:xlink="http://www.w3.org/1999/xlink" version="1.1" viewBox="-10 -40 586 512">
   <path fill="currentColor"
d="M336 -39h24h-24h31l4 5v0l44 43v0h34v0l44 -43v0l4 -5v0h7h40v16v0v128v0q-1 48 -33 79q-31 32 -79 33q-48 -1 -79 -33q-32 -31 -33 -79v-128v0v-16v0h16v0zM352 105q1 34 23 57v0v0q23 22 57 23q34 -1 57 -23q22 -23 23 -57v-112v0h-1v0l-44 43v0l-4 5v0h-7h-55l-4 -5v0
l-44 -43v0h-1v0v112v0zM128 260q26 -46 68 -79v0v0q41 -33 95 -47q3 16 10 31q-77 20 -124 80q-48 59 -49 140v56v0h48h128v0v0h48v0v-5v0q-2 -25 -27 -27h-37h-16v-16v0v-16v0v-24v0q0 -17 -12 -28q-11 -12 -28 -12h-8h-16v-32v0h16h8q31 1 51 21t21 51v7v0l118 -92v0
l26 -20v0v33v0v160v0h32v0v-200v0q17 -6 32 -16v232v0v16v0h-16h-80v-16v0v-143v0l-82 64v0q22 3 36 19t14 39v21v0v16v0h-16h-192v0v0h-64h-16v-16v0v-72v0v-248v0q-1 -20 -14 -34q-14 -13 -34 -14h-16v0v-32v0h16v0q34 1 57 23q22 23 23 57v123v0zM384 89q1 -15 16 -16
q15 1 16 16q-1 15 -16 16q-15 -1 -16 -16v0zM464 73q15 1 16 16q-1 15 -16 16q-15 -1 -16 -16q1 -15 16 -16v0z" />
</svg>
