<?xml version="1.0" standalone="no"?>
<!DOCTYPE svg PUBLIC "-//W3C//DTD SVG 1.1//EN" "http://www.w3.org/Graphics/SVG/1.1/DTD/svg11.dtd" >
<svg xmlns="http://www.w3.org/2000/svg" xmlns:xlink="http://www.w3.org/1999/xlink" version="1.1" viewBox="-10 -40 468 512">
   <path fill="currentColor"
d="M160 17q22 -2 24 -24q-2 -22 -24 -24q-22 2 -24 24q2 22 24 24v0zM256 41q1 -15 16 -16q15 1 16 16q-1 15 -16 16q-15 -1 -16 -16v0zM320 41q-1 -27 -24 -42q-24 -12 -48 0q-23 15 -24 42q1 27 24 42q24 12 48 0q23 -15 24 -42v0zM60 206q19 -34 35 -53h129h129
q16 19 35 53q26 47 28 89q-2 68 -56 106q-56 39 -136 40q-80 -1 -136 -40q-54 -38 -56 -106q2 -42 28 -89v0zM55 153q-20 28 -37 66v0v0q-17 38 -18 76q1 57 32 96v82v0h32v0v-50v0q32 24 74 37q41 13 86 13t86 -13q42 -13 74 -37v50v0h32v0v-82v0q31 -39 32 -96
q-1 -38 -18 -76t-37 -66h55v0v-32v0h-80h-368v32v0h55v0z" />
</svg>
