<?xml version="1.0" standalone="no"?>
<!DOCTYPE svg PUBLIC "-//W3C//DTD SVG 1.1//EN" "http://www.w3.org/Graphics/SVG/1.1/DTD/svg11.dtd" >
<svg xmlns="http://www.w3.org/2000/svg" xmlns:xlink="http://www.w3.org/1999/xlink" version="1.1" viewBox="-10 -40 404 512">
   <path fill="currentColor"
d="M208 -39v16v-16v16v112v0h32h144v16v0v32v0q-1 20 -14 34q-14 13 -34 14q-20 -1 -34 -14q-13 -14 -14 -34v-16v0h-16h-176v16v0q-1 20 -14 34q-14 13 -34 14q-20 -1 -34 -14q-13 -14 -14 -34v-32v0v-16v0h16h160v-112v0v-16v0h32v0zM64 121h-32h32h-32v16v0q1 15 16 16
q15 -1 16 -16v-16v0zM320 121v16v-16v16q1 15 16 16q15 -1 16 -16v-16v0h-32v0zM144 365l48 58l-48 -58l48 58l48 -58v0v-212v0h32v0v224v0l-59 71v0l-21 25v0l-21 -25v0l-59 -71v0v-224v0h32v0v212v0z" />
</svg>
