<?xml version="1.0" standalone="no"?>
<!DOCTYPE svg PUBLIC "-//W3C//DTD SVG 1.1//EN" "http://www.w3.org/Graphics/SVG/1.1/DTD/svg11.dtd" >
<svg xmlns="http://www.w3.org/2000/svg" xmlns:xlink="http://www.w3.org/1999/xlink" version="1.1" viewBox="-10 -40 532 512">
   <path fill="currentColor"
d="M0 148v24v-24v24v114v0l69 118v0l98 57v0l20 12v0h138v0l20 -12v0l98 -57v0l69 -118v0v-114v0v-24v0l-69 -118v0l-18 -11v0l-100 -58v0h-138v0l-100 58v0l-18 11v0l-69 118v0zM92 54l148 47l-148 -47l148 47v106v0l-109 59v0l-99 -107v0v-2v0l60 -103v0zM272 101l148 -47
l-148 47l148 -47l60 103v0v2v0l-99 107v0l-109 -59v0v-106v0zM383 32l-127 40l127 -40l-127 40l-127 -40v0l67 -39v0h120v0l67 39v0zM480 206v71v-71v71l-60 104v0l-60 35v0l38 -122v0l82 -88v0zM318 440l-2 1l2 -1l-2 1h-120v0l-2 -1v0l-47 -147v0l109 -58v0l109 59v0
l-47 146v0zM153 416l-61 -35l61 35l-61 -35l-60 -104v0v-71v0l82 88v0l39 122v0z" />
</svg>
