<?xml version="1.0" standalone="no"?>
<!DOCTYPE svg PUBLIC "-//W3C//DTD SVG 1.1//EN" "http://www.w3.org/Graphics/SVG/1.1/DTD/svg11.dtd" >
<svg xmlns="http://www.w3.org/2000/svg" xmlns:xlink="http://www.w3.org/1999/xlink" version="1.1" viewBox="-10 -40 468 512">
   <path fill="currentColor"
d="M208 464l16 9l-16 -9l16 9l16 -9v0l208 -119v0v-244v0v-19v0l-16 -8v0l-208 -113v0l-208 116v0l-16 9v0v19v0v240v0l208 119v0zM32 326v-203v203v-203l176 103v0v201v0l-176 -101v0zM48 96l176 -98l-176 98l176 -98l176 95v0l-176 105v0l-176 -102v0zM416 120v206v-206
v206l-176 101v0v-201v0l176 -106v0z" />
</svg>
