<?xml version="1.0" standalone="no"?>
<!DOCTYPE svg PUBLIC "-//W3C//DTD SVG 1.1//EN" "http://www.w3.org/Graphics/SVG/1.1/DTD/svg11.dtd" >
<svg xmlns="http://www.w3.org/2000/svg" xmlns:xlink="http://www.w3.org/1999/xlink" version="1.1" viewBox="-10 -40 404 512">
   <path fill="currentColor"
d="M181 -29l11 -10l-11 10l11 -10l11 10v0q117 102 170 248q11 30 11 62q-2 81 -57 136q-54 54 -135 56q-81 -2 -135 -56q-55 -55 -57 -136q0 -32 11 -62q53 -146 170 -248v0zM41 230q-9 25 -9 51q2 68 47 113q46 45 113 47q67 -2 113 -47q45 -45 47 -113q0 -26 -9 -51
q-48 -131 -151 -226q-103 95 -151 226v0zM222 105v12v-12v12q0 13 9 23l51 52v0q37 39 38 92q-1 53 -37 88q-35 36 -88 37h-6v0q-53 -1 -88 -37q-36 -35 -37 -88q1 -51 43 -80l13 -8v0l25 -16v0v29v0v46v0q2 24 26 26h2v0q22 -2 24 -23q-1 -10 -7 -16l-9 -10v0
q-25 -26 -25 -63q0 -43 33 -70l7 -6v0l26 -22v0v34v0zM187 169q1 24 17 41l9 9v0q15 17 16 39q-1 23 -17 39q-15 16 -39 16h-2v0q-25 -1 -41 -17t-17 -41v-14v0q-17 18 -17 43q1 39 27 66q27 26 66 27h6v0q40 -1 66 -27t27 -66q-1 -40 -29 -70l-51 -52v0q-9 -9 -14 -21
q-7 13 -7 28v0z" />
</svg>
