<?xml version="1.0" standalone="no"?>
<!DOCTYPE svg PUBLIC "-//W3C//DTD SVG 1.1//EN" "http://www.w3.org/Graphics/SVG/1.1/DTD/svg11.dtd" >
<svg xmlns="http://www.w3.org/2000/svg" xmlns:xlink="http://www.w3.org/1999/xlink" version="1.1" viewBox="-10 -40 532 512">
   <path fill="currentColor"
d="M422 2l-38 151l38 -151l-38 151l63 176v0h-34v0l-59 -165v0l-3 -9v0l2 -10v0l31 -124v0l-183 92v0l-97 216v0h-35v0l107 -240v0l218 -109v0l38 -19v0l-10 41v0zM480 441v-48v48v-48h-448v0v48v0h448v0zM32 361h448h-448h480v32v0v48v0v32v0h-32h-480v-32v0v-48v0v-32v0
h32v0zM288 137v16v-16v16h16h16v32v0h-16h-16v16v0v16v0h-32v0v-16v0v-16v0h-16h-16v-32v0h16h16v-16v0v-16v0h32v0v16v0zM240 265v32v-32v32h32h16v32v0h-16h-112v-32v0h16h32v-32v0v-16v0h32v0v16v0z" />
</svg>
