<?xml version="1.0" standalone="no"?>
<!DOCTYPE svg PUBLIC "-//W3C//DTD SVG 1.1//EN" "http://www.w3.org/Graphics/SVG/1.1/DTD/svg11.dtd" >
<svg xmlns="http://www.w3.org/2000/svg" xmlns:xlink="http://www.w3.org/1999/xlink" version="1.1" viewBox="-10 -40 596 512">
   <path fill="currentColor"
d="M0 425l64 -80l-64 80l64 -80v-96v0q1 -81 30 -146t79 -103t115 -39h147h45l-32 32v0l-18 18v0l-23 23v0q14 9 26 20q36 33 57 82q22 49 22 113v96v0l64 80v0v16v0v32v0h-32h-544v-32v0v-16v0zM288 -7q-80 2 -135 72v0v0q-55 69 -57 184v96v0v11v0l-7 9v0l-57 71v0v5v0
h128v0v-160v0q1 -54 37 -91q37 -36 91 -37q54 1 91 37q36 37 37 91v160v0h128v0v-5v0l-57 -71v0l-7 -9v0v-11v0v-96v0q-1 -67 -26 -114q-24 -48 -65 -75l-32 -21v0l28 -28v0l18 -18v0h-115v0zM192 441h192h-192h192v-160v0q-1 -41 -28 -68t-68 -28q-41 1 -68 28t-28 68v160
v0z" />
</svg>
