<?xml version="1.0" standalone="no"?>
<!DOCTYPE svg PUBLIC "-//W3C//DTD SVG 1.1//EN" "http://www.w3.org/Graphics/SVG/1.1/DTD/svg11.dtd" >
<svg xmlns="http://www.w3.org/2000/svg" xmlns:xlink="http://www.w3.org/1999/xlink" version="1.1" viewBox="-10 -40 591 512">
   <path fill="currentColor"
d="M288 -36l11 9l-11 -9l11 9l85 75v0v-39v0v-16v0h16h112v16v0v152v0v0v0l59 52v0l-22 24v0l-37 -33v0v253v0v16v0h-16h-432v-16v0v-253v0l-37 33v0l-22 -24v0l272 -240v0l11 -9v0zM480 133v-108v108v-108h-64v0v52v0l64 56v0zM96 176v265v-265v265h178v0l-47 -71v0l-9 -13
v0l13 -9v0l80 -53v0l-82 -83v0l-12 -11v0l23 -23v0l11 12v0l96 96v0l14 14v0l-16 10v0l-83 55v0l51 76v0h167v0v-265v0l-192 -170v0l-192 170v0z" />
</svg>
