<?xml version="1.0" standalone="no"?>
<!DOCTYPE svg PUBLIC "-//W3C//DTD SVG 1.1//EN" "http://www.w3.org/Graphics/SVG/1.1/DTD/svg11.dtd" >
<svg xmlns="http://www.w3.org/2000/svg" xmlns:xlink="http://www.w3.org/1999/xlink" version="1.1" viewBox="-11 0 598 512">
   <path fill="currentColor"
d="M252 281h20h-20h72l9 18v0l39 78v0h28v0q63 -1 102 -37q40 -35 42 -107q2 -76 -49 -122q-26 -23 -76 -38q-50 -16 -131 -16t-131 16q-50 15 -76 38q-51 46 -49 122q2 72 42 107q39 36 102 37h28v0l39 -78v0l9 -18v0zM224 409h-48h48h-48q-74 0 -124 -46q-50 -45 -52 -130
q-1 -57 25 -104t89 -75t174 -29q111 1 174 29t89 75t25 104q-2 85 -52 130q-50 46 -124 46h-48v0l-48 -96v0h-32v0l-48 96v0zM160 249q14 0 23 -9v0v0q9 -9 9 -23t-9 -23t-23 -9t-23 9t-9 23t9 23t23 9v0zM160 153q36 1 55 32q18 32 0 64q-19 31 -55 32q-36 -1 -55 -32
q-18 -32 0 -64q19 -31 55 -32v0zM448 217q0 -14 -9 -23v0v0q-9 -9 -23 -9t-23 9t-9 23t9 23t23 9t23 -9t9 -23v0zM352 217q1 -36 32 -55q32 -18 64 0q31 19 32 55q-1 36 -32 55q-32 18 -64 0q-31 -19 -32 -55v0z" />
</svg>
