<?xml version="1.0" standalone="no"?>
<!DOCTYPE svg PUBLIC "-//W3C//DTD SVG 1.1//EN" "http://www.w3.org/Graphics/SVG/1.1/DTD/svg11.dtd" >
<svg xmlns="http://www.w3.org/2000/svg" xmlns:xlink="http://www.w3.org/1999/xlink" version="1.1" viewBox="-10 -40 597 512">
   <path fill="currentColor"
d="M448 -7q-48 1 -79 33v0v0q-32 31 -33 79v16v0h-16h-12l-4 -2v0l-134 -81v0q6 39 22 68q16 30 36 50q23 24 41 36q9 5 14 8l1 1t2 1l1 1v0v0v0v0v0v0v0v0v0v0v0l15 7v0l-15 28v0l-14 -7v0l7 -14v0q-5 10 -6 13q-1 2 -1 1v0v0v0v0v0v0h-1v0l-1 -1v0h-1q-1 -1 -3 -2
q-6 -4 -16 -10q-20 -13 -47 -40q-26 -27 -47 -69q-20 -42 -21 -100v-28v0l24 14v0l146 88v0q9 -53 48 -87t94 -35h24h88v32v0h-16h-5l21 21v0l4 4v0l1 6v0l11 120v0l1 9v0l-9 6v0l-64 40v0l-13 8v0l-8 -13v0l-28 -41v0h-7v0v48v0q-1 47 -32 78v178v0v16v0h-16h-96v-16v0
v-148v0l-88 -20v0v8v0v8v0v4v0l-1 3v0l-3 7v0l-17 38v0l27 96v0l5 20v0h-21h-95l-3 -12v0l-26 -93v0l-4 -13v0l-1 -6v0l2 -5v0l6 -13v0l19 -45v0v-2v0l-34 -80v0q-6 -16 -6 -32q-30 12 -32 45v48v0v16v0h-32v0v-16v0v-48v0q1 -32 21 -54t50 -25q15 -31 46 -44q6 16 12 30
q-31 13 -33 48q0 10 4 19l35 84v0l1 3v0v3v0v8v0v3v0l-1 3v0l-21 49v0l-3 7v0l2 8v0l23 82v0h49v0l-22 -81v0l-2 -5v0l3 -5v0l18 -44v0l2 -4v0v-5v0v-24v0v-4v0v-20v0l19 4v0l115 26v0q2 0 5 1l13 2v0v14v0v145v0h48v0v-168v0v-8v0l5 -4v0q26 -23 27 -60v-64v0v-16v0h16h41
l4 7v0l24 35v0l42 -26v0l-10 -105v0l-39 -39v0h-14h-32zM480 41q15 1 16 16q-1 15 -16 16q-15 -1 -16 -16q1 -15 16 -16v0z" />
</svg>
