<?xml version="1.0" standalone="no"?>
<!DOCTYPE svg PUBLIC "-//W3C//DTD SVG 1.1//EN" "http://www.w3.org/Graphics/SVG/1.1/DTD/svg11.dtd" >
<svg xmlns="http://www.w3.org/2000/svg" xmlns:xlink="http://www.w3.org/1999/xlink" version="1.1" viewBox="-10 -40 596 512">
   <path fill="currentColor"
d="M474 108l17 13l-17 -13l17 13q-4 -51 -41 -89l-4 -4v0l-11 2v0q-12 -13 -27 -23l2 -5v0l9 -2v0l29 -5v0l8 -2v0l6 6v0l11 11v0q27 27 40 62q12 35 9 72l48 35v0l6 5v0v8v0v89v0v16v0h-16h-161l-38 32v0h95h16v16v0v64v0v16v0h-16h-183l-4 -5v0l-32 -31v0l-72 48v0l-2 1v0
l-4 3v0h-5h-44l-5 -7v0l-25 -37v0l-9 -13v0l14 -9v0l26 -18v0l57 -38v0l-55 -55v0q-15 -14 -23 -33q-9 2 -18 2q-31 -1 -51 -21t-21 -51q1 -31 21 -51t51 -21q25 0 43 15q31 -30 77 -31h9v0q26 0 50 11l66 30v0q-3 -8 -5 -17l-16 -56v0l-3 -12v0l10 -7v0l28 -16v0l6 -3v0
l7 2v0q37 13 64 39q27 27 40 63q7 -1 15 -2l6 -1v0l5 4v0zM81 200q-1 -7 -1 -15q0 -31 15 -56q-10 -8 -23 -8q-17 0 -28 12q-12 11 -12 28t12 28q11 12 28 12q5 0 9 -1v0zM129 384l-13 9l13 -9l-13 9l11 16v0h22v0l65 -43v0l-23 -23v0l-62 41v0zM330 44l12 45l-12 -45l12 45
q9 30 32 51l-18 27v0l-118 -54v0q-18 -8 -37 -8h-9v0q-34 1 -57 23q-22 23 -23 57q0 33 24 57l151 151v0h153v0v-32v0h-88h-32v-16v0v-15v0q-1 -39 -23 -68t-58 -40l-19 -6v0l-16 -4v0l9 -31v0l15 5v0l20 5v0q39 12 65 40q27 28 36 67l34 -29v0l5 -4v0h6h150v-65v0l-84 -62
v0q-9 1 -18 4l-16 5v0l-4 -16v0l-1 -2v0q-8 -32 -29 -55q-21 -24 -51 -36l-11 6v0zM480 185q15 1 16 16q-1 15 -16 16q-15 -1 -16 -16q1 -15 16 -16v0z" />
</svg>
