<?xml version="1.0" standalone="no"?>
<!DOCTYPE svg PUBLIC "-//W3C//DTD SVG 1.1//EN" "http://www.w3.org/Graphics/SVG/1.1/DTD/svg11.dtd" >
<svg xmlns="http://www.w3.org/2000/svg" xmlns:xlink="http://www.w3.org/1999/xlink" version="1.1" viewBox="-10 -40 458 512">
   <path fill="currentColor"
d="M280 41q22 -2 24 -24q-2 -22 -24 -24q-22 2 -24 24q2 22 24 24v0zM280 -39q32 1 48 28q16 28 0 56q-16 27 -48 28q-32 -1 -48 -28q-16 -28 0 -56q16 -27 48 -28v0zM121 73h7h-7h57l2 1v0l112 32v0l9 2v0l2 9v0l29 100v0h68h16v32v0h-16h-92l-3 -12v0l-21 -70v0l-37 111v0
v1v0l49 28v0l12 7v0l-5 12v0l-52 147v0h-34v0l52 -145v0l-94 -52v0q-15 -9 -21 -25q-6 -15 -1 -32l37 -109v0l-16 -5v0h-39v0l-60 59v0l-11 12v0l-23 -23v0l12 -11v0l64 -64v0l4 -5v0zM220 118l-36 111l36 -111l-36 111q-4 12 7 19l27 15v0l45 -133v0l-43 -12v0zM130 275
q9 15 24 26l-27 66v0l-4 10v0h-11h-112v-32v0h16h85l29 -70v0z" />
</svg>
