<?xml version="1.0" standalone="no"?>
<!DOCTYPE svg PUBLIC "-//W3C//DTD SVG 1.1//EN" "http://www.w3.org/Graphics/SVG/1.1/DTD/svg11.dtd" >
<svg xmlns="http://www.w3.org/2000/svg" xmlns:xlink="http://www.w3.org/1999/xlink" version="1.1" viewBox="-10 -40 658 512">
   <path fill="currentColor"
d="M352 -39q-103 2 -172 36v0v0q-69 34 -109 79v0v0q-39 44 -56 77q-15 30 -15 32h35h493l6 -32v0h-482v0q16 -27 45 -58q36 -39 99 -70q62 -30 156 -32h214v0l7 -32v0h-221v0zM638 -39h-33h33h-33l-60 304v0h-1h-160v32v0h16h138l-35 176v0h33v0l102 -512v0z" />
</svg>
