<?xml version="1.0" standalone="no"?>
<!DOCTYPE svg PUBLIC "-//W3C//DTD SVG 1.1//EN" "http://www.w3.org/Graphics/SVG/1.1/DTD/svg11.dtd" >
<svg xmlns="http://www.w3.org/2000/svg" xmlns:xlink="http://www.w3.org/1999/xlink" version="1.1" viewBox="-10 -40 650 512">
   <path fill="currentColor"
d="M21 441l5 -12l-5 12l5 -12q25 -65 32 -136q7 -72 6 -140q1 -82 28 -136t68 -56h332v0v0v0h4q31 1 52 20t33 45q26 53 27 127q-1 74 -27 127q-12 26 -33 45t-52 20q-34 -1 -57 -24q3 -23 5 -46q22 37 52 38q34 -2 57 -47q22 -45 23 -113q-1 -68 -23 -113q-23 -45 -57 -47
q-5 0 -10 1q-30 9 -50 53q-19 43 -20 106q1 63 -5 129q-6 90 -37 171l-9 20v0h-322h-35l13 -32v0zM384 153q1 -74 27 -127q8 -18 21 -33h-272v0q-6 -1 -17 8q-10 8 -22 31q-24 46 -25 121q1 68 -6 143q-8 75 -34 145v0v0h288v0v0v0q26 -65 33 -139q8 -75 7 -149v0zM482 173
q4 26 14 28q10 -2 15 -28q1 -9 1 -20t-1 -20q-5 -26 -15 -28q-10 2 -14 28q-2 9 -2 20t2 20v0zM527 217q-3 5 -11 10v0v0q-8 6 -20 6t-20 -6q-8 -5 -11 -10q-8 -10 -11 -20q-6 -20 -6 -44t6 -44q3 -10 11 -20q3 -5 11 -10q8 -6 20 -6t20 6q8 5 11 10q8 10 11 20q6 20 6 44
t-6 44q-3 10 -11 20v0z" />
</svg>
