<?xml version="1.0" standalone="no"?>
<!DOCTYPE svg PUBLIC "-//W3C//DTD SVG 1.1//EN" "http://www.w3.org/Graphics/SVG/1.1/DTD/svg11.dtd" >
<svg xmlns="http://www.w3.org/2000/svg" xmlns:xlink="http://www.w3.org/1999/xlink" version="1.1" viewBox="-10 -40 660 512">
   <path fill="currentColor"
d="M448 -7h24h-24h46l39 39v0l10 105v0l-42 26v0l-24 -35v0l-4 -7v0h-9h-48v16v0v64v0q-1 37 -27 60l-5 4v0v8v0v168v0h-48v0v-145v0v-14v0l-13 -2v0q-2 0 -4 -1h-1l-114 -26v0l-20 -4v0v20v0v4v0v24v0v5v0l-2 4v0l-18 44v0l-3 5v0l2 5v0l22 81v0h-49v0l-23 -82v0l-2 -8v0
l3 -7v0l21 -49v0l1 -3v0v-3v0v-8v0v-3v0l-1 -3v0l-35 -84v0q-4 -9 -4 -19q1 -22 15 -36t36 -15h45h144v-16v0q1 -48 33 -79q31 -32 79 -33v0zM560 14l-21 -21l21 21l-21 -21h5h16v-32v0h-16h-96q-57 1 -96 37q-40 36 -47 91h-49h-109q-26 0 -46 14q-20 13 -30 35
q-30 3 -50 25t-21 54v48v0v16v0h32v0v-16v0v-48v0q2 -33 32 -45q0 16 6 31l34 81v0v2v0l-19 45v0l-6 13v0l-2 5v0l1 5v0l4 14v0l26 93v0l3 12v0h13h104l-6 -20v0l-27 -96v0l16 -38v0l4 -7v0l1 -3v0v-4v0v-8v0v-8v0l88 20v0v148v0v16v0h16h96v-16v0v-178v0q31 -31 32 -78v-48
v0h7v0l28 41v0l8 13v0l13 -8v0l64 -40v0l9 -6v0l-1 -9v0l-8 -79v0l72 -24v0v-16v0h-75v0v-1v0l-1 -6v0l-4 -4v0zM480 73q15 -1 16 -16q-1 -15 -16 -16q-15 1 -16 16q1 15 16 16v0z" />
</svg>
