<?xml version="1.0" standalone="no"?>
<!DOCTYPE svg PUBLIC "-//W3C//DTD SVG 1.1//EN" "http://www.w3.org/Graphics/SVG/1.1/DTD/svg11.dtd" >
<svg xmlns="http://www.w3.org/2000/svg" xmlns:xlink="http://www.w3.org/1999/xlink" version="1.1" viewBox="-10 -40 532 512">
   <path fill="currentColor"
d="M376 121h14h-14h40v-32v0v-13v0l8 -9v0l44 -49v0l-13 -13v0l-264 236v0l-9 8v0h-12h-42v34v0v14v0l-11 10v0l-70 63v0l56 57v0l264 -295v0l9 -11v0zM125 449l-21 24l21 -24l-21 24l-23 -23v0l-58 -58v0l-23 -23v0l24 -21v0l72 -65v0v-34v0v-32v0h32h42l286 -256v0l56 56
v0l-64 72v0v32v0v32v0h-32h-26l-265 296v0z" />
</svg>
