<?xml version="1.0" standalone="no"?>
<!DOCTYPE svg PUBLIC "-//W3C//DTD SVG 1.1//EN" "http://www.w3.org/Graphics/SVG/1.1/DTD/svg11.dtd" >
<svg xmlns="http://www.w3.org/2000/svg" xmlns:xlink="http://www.w3.org/1999/xlink" version="1.1" viewBox="-10 -40 532 512">
   <path fill="currentColor"
d="M288 -39v32v-32v32h16h64q20 1 34 14q13 14 14 34q-1 20 -14 34q-14 13 -34 14h-352h-16v32v0h16h352q34 -1 57 -23q22 -23 23 -57q-1 -34 -23 -57q-23 -22 -57 -23h-64h-16zM352 377h16h-16h72q37 -1 62 -26t26 -62q-1 -37 -26 -62t-62 -26h-408h-16v32v0h16h408
q24 1 40 16q15 16 16 40q-1 24 -16 40q-16 15 -40 16h-56h-16v32v0zM112 473h64h-64h64q34 -1 57 -23q22 -23 23 -57q-1 -34 -23 -57q-23 -22 -57 -23h-160h-16v32v0h16h160q20 1 34 14q13 14 14 34q-1 20 -14 34q-14 13 -34 14h-64h-16v32v0h16v0z" />
</svg>
