<?xml version="1.0" standalone="no"?>
<!DOCTYPE svg PUBLIC "-//W3C//DTD SVG 1.1//EN" "http://www.w3.org/Graphics/SVG/1.1/DTD/svg11.dtd" >
<svg xmlns="http://www.w3.org/2000/svg" xmlns:xlink="http://www.w3.org/1999/xlink" version="1.1" viewBox="-10 -40 532 512">
   <path fill="currentColor"
d="M0 -39v16v-16v16v480v0v16v0h32v0v-16v0v-464v0h32v0v-32v0h-48h-16zM288 -7v352v-352v352q0 14 -9 23t-23 9t-23 -9t-9 -23v-352v0h64v0zM256 409q30 -1 48 -22q18 21 48 22q30 -1 48 -22q18 21 48 22q18 0 32 -9v57v0v16v0h32v0v-16v0v-112v0v-336v0v-32v0v-16v0h-16
h-400v16v0v16v0v352v0q1 27 19 45t45 19q30 -1 48 -22q18 21 48 22v0zM480 9v336v-336v336q0 14 -9 23t-23 9t-23 -9t-9 -23v-352v0h64v0v16v0zM384 -7v352v-352v352q0 14 -9 23t-23 9t-23 -9t-9 -23v-352v0h64v0zM192 345q0 14 -9 23v0v0q-9 9 -23 9t-23 -9t-9 -23v-352v0
h64v0v352v0z" />
</svg>
