<?xml version="1.0" standalone="no"?>
<!DOCTYPE svg PUBLIC "-//W3C//DTD SVG 1.1//EN" "http://www.w3.org/Graphics/SVG/1.1/DTD/svg11.dtd" >
<svg xmlns="http://www.w3.org/2000/svg" xmlns:xlink="http://www.w3.org/1999/xlink" version="1.1" viewBox="-10 -40 532 512">
   <path fill="currentColor"
d="M384 121v-32v32v-32q-1 -27 -19 -45t-45 -19q-20 0 -35 10l-26 17v0l-17 -25v0q-24 -32 -66 -34q-34 1 -57 23q-22 23 -23 57v22v0v22v0l-21 8v0q-19 7 -31 23t-12 37v64v0h64h384v-64v0q-1 -27 -19 -45t-45 -19h-32v0zM32 281h-32h32h-32v-32v0v-64v0q1 -32 18 -56
q18 -24 46 -34v-22v0q1 -48 33 -79q31 -32 79 -33q59 2 92 48q23 -16 52 -16q41 1 68 28t28 68q41 1 68 28t28 68v64v0v32v0h-32h-448zM96 353q2 -22 24 -24q22 2 24 24q-2 22 -24 24q-22 -2 -24 -24v0zM56 425q22 2 24 24q-2 22 -24 24q-22 -2 -24 -24q2 -22 24 -24v0z
M224 353q2 -22 24 -24q22 2 24 24q-2 22 -24 24q-22 -2 -24 -24v0zM184 425q22 2 24 24q-2 22 -24 24q-22 -2 -24 -24q2 -22 24 -24v0zM352 353q2 -22 24 -24q22 2 24 24q-2 22 -24 24q-22 -2 -24 -24v0zM312 425q22 2 24 24q-2 22 -24 24q-22 -2 -24 -24q2 -22 24 -24v0z
" />
</svg>
