<?xml version="1.0" standalone="no"?>
<!DOCTYPE svg PUBLIC "-//W3C//DTD SVG 1.1//EN" "http://www.w3.org/Graphics/SVG/1.1/DTD/svg11.dtd" >
<svg xmlns="http://www.w3.org/2000/svg" xmlns:xlink="http://www.w3.org/1999/xlink" version="1.1" viewBox="-10 -40 660 512">
   <path fill="currentColor"
d="M161 249q2 -17 7 -32h-72h-64v-64v0q1 -27 19 -45t45 -19h1h28l4 -27v0q5 -30 26 -49q22 -19 53 -20q24 0 43 13q19 12 29 33l9 18v0h20h43q27 1 45 19t19 45q0 22 -13 39l1 1v0q18 -7 39 -8q5 -15 5 -32q-1 -41 -28 -68t-68 -28h-43v0q-14 -29 -40 -46q-27 -18 -61 -18
q-43 1 -74 28q-30 26 -37 68h-1v0q-41 1 -68 28t-28 68v64v0v32v0h32h129zM512 281v32v-32v32h32v0q27 1 45 19t19 45v64v0h-64h-384v-64v0q0 -21 12 -37t31 -23l21 -8v0v-22v0v-22v0q1 -34 23 -57q23 -22 57 -23q42 2 65 34l18 25v0l26 -17v0q15 -10 35 -10q27 1 45 19
t19 45v0zM128 473h32h-32h512v-32v0v-64v0q-1 -41 -28 -68t-68 -28q-1 -41 -28 -68t-68 -28q-29 0 -52 16q-33 -46 -92 -48q-48 1 -79 33q-32 31 -33 79v22v0q-28 10 -46 34q-17 24 -18 56v64v0v32v0z" />
</svg>
