<?xml version="1.0" standalone="no"?>
<!DOCTYPE svg PUBLIC "-//W3C//DTD SVG 1.1//EN" "http://www.w3.org/Graphics/SVG/1.1/DTD/svg11.dtd" >
<svg xmlns="http://www.w3.org/2000/svg" xmlns:xlink="http://www.w3.org/1999/xlink" version="1.1" viewBox="-10 -40 532 512">
   <path fill="currentColor"
d="M352 281q0 -28 -26 -80q-27 -51 -64 -101t-65 -84l-2 -2q-2 -2 -3 -4q-3 3 -5 6q-28 34 -65 84t-64 101q-26 52 -26 80q2 68 47 113t113 47q68 -2 113 -47t47 -113v0zM0 281q2 -44 33 -101v0v0q32 -57 71 -110v0v0q40 -54 67 -85q20 -23 21 -24v0q1 1 21 24q27 31 67 85
q39 53 71 110q31 57 33 101q-2 82 -56 136t-136 56q-82 -2 -136 -56t-56 -136v0zM480 73q-1 -27 -24 -42q-24 -12 -48 0q-23 15 -24 42q1 27 24 42q24 12 48 0q23 -15 24 -42v0zM352 73q1 -45 40 -69q40 -22 80 0q39 24 40 69q-1 45 -40 69q-40 22 -80 0q-39 -24 -40 -69v0z
" />
</svg>
