<?xml version="1.0" standalone="no"?>
<!DOCTYPE svg PUBLIC "-//W3C//DTD SVG 1.1//EN" "http://www.w3.org/Graphics/SVG/1.1/DTD/svg11.dtd" >
<svg xmlns="http://www.w3.org/2000/svg" xmlns:xlink="http://www.w3.org/1999/xlink" version="1.1" viewBox="-10 -40 660 512">
   <path fill="currentColor"
d="M353 74l24 -28l-24 28l24 -28q3 -4 6 -7h1q11 11 23 26q18 23 29 46q12 23 12 42q-1 39 -20 69q11 9 21 19q4 -3 8 -5q22 -37 23 -83q-2 -38 -25 -74t-46 -61q-23 -24 -25 -25l-9 9q-9 8 -22 23q-11 -13 -22 -24q-18 -18 -30 -29t-13 -11v0q-2 1 -33 30t-62 73t-33 89
q1 46 23 83q4 2 8 5q10 -10 21 -19q-19 -30 -20 -69q0 -22 16 -52q17 -29 40 -56q22 -25 40 -41q18 16 41 42l24 28v0zM232 163q0 23 9 41q15 -8 30 -12q-7 -12 -7 -29q0 -10 8 -25q6 -10 16 -23q4 5 9 11l4 6q5 6 9 12q4 5 7 9l5 6v0l1 2v0l1 1v0v0v0v0v0v0v0v0v0l13 -10v0
l-13 10v0l9 12v0l13 -9v0l26 -19v0q9 25 -3 46q16 4 30 12q18 -39 -1 -78v-1v0q-3 -5 -8 -12l-10 -13v0l-12 9v0l-28 21v0l-13 -18v0q-4 -4 -8 -9q-14 -19 -18 -24l-12 -16v0l-13 16v0q-20 24 -32 43t-12 41v0zM214 325q12 -34 40 -55v0v0q28 -20 66 -21q38 1 66 21
q28 21 40 55l13 37v0l17 -35v0q10 -21 29 -33q19 -13 43 -13q34 1 57 23q22 23 23 57v80v0h-80h-496v-80v0q1 -34 23 -57q23 -22 57 -23q24 0 43 13q19 12 29 33l17 35v0l13 -37v0zM320 217q-40 0 -72 19v0v0q-32 19 -52 51q-32 -36 -84 -38q-48 1 -79 33q-32 31 -33 79v96
v0v16v0h16h624v-16v0v-96v0q-1 -48 -33 -79q-31 -32 -79 -33q-52 2 -84 38q-20 -32 -52 -51t-72 -19v0z" />
</svg>
