<?xml version="1.0" standalone="no"?>
<!DOCTYPE svg PUBLIC "-//W3C//DTD SVG 1.1//EN" "http://www.w3.org/Graphics/SVG/1.1/DTD/svg11.dtd" >
<svg xmlns="http://www.w3.org/2000/svg" xmlns:xlink="http://www.w3.org/1999/xlink" version="1.1" viewBox="-10 -40 468 512">
   <path fill="currentColor"
d="M32 -23v-16v16v-16h-32v0v16v0v48v0v303v0v33v0v96v0v16v0h32v0v-16v0v-104v0l96 -24v0q64 -15 123 13q69 34 142 8l55 -21v0v-316v0v-36v0l-32 16v0l-22 11v0q-36 18 -74 18t-73 -18q-55 -26 -114 -12l-101 25v0v-40v0zM32 276l107 -23l-107 23l107 -23q52 -11 101 8
l26 10v0q70 26 141 3l9 -3v0v36v0l-35 13v0q-59 21 -116 -6q-69 -34 -144 -16l-89 22v0v-44v0zM32 243v-39v39v-39l102 -22v0q56 -12 109 11l13 6v0q79 34 160 4v35v0l-19 6v0q-61 19 -120 -3l-25 -10v0q-59 -22 -119 -9l-101 21v0zM32 171v-121v121v-121l109 -27v0
q9 -3 19 -3v126v0q-16 1 -32 4l-96 21v0zM192 147v-48v48v-48q26 3 51 14l13 6v0q79 34 160 4v46v0l-11 4v0q-69 26 -136 -3l-13 -6v0q-31 -14 -64 -17v0zM192 67v-47v47v-47q21 3 40 13q42 21 88 21t88 -21l8 -4v0v60v0l-11 4v0q-69 26 -136 -3l-13 -6v0q-31 -14 -64 -17v0
zM88 81q-1 -15 -16 -16q-15 1 -16 16q1 15 16 16q15 -1 16 -16v0zM120 81q15 -1 16 -16q-1 -15 -16 -16q-15 1 -16 16q1 15 16 16v0zM88 129q-1 -15 -16 -16q-15 1 -16 16q1 15 16 16q15 -1 16 -16v0zM120 129q15 -1 16 -16q-1 -15 -16 -16q-15 1 -16 16q1 15 16 16v0z" />
</svg>
