<?xml version="1.0" standalone="no"?>
<!DOCTYPE svg PUBLIC "-//W3C//DTD SVG 1.1//EN" "http://www.w3.org/Graphics/SVG/1.1/DTD/svg11.dtd" >
<svg xmlns="http://www.w3.org/2000/svg" xmlns:xlink="http://www.w3.org/1999/xlink" version="1.1" viewBox="-10 -40 596 512">
   <path fill="currentColor"
d="M299 -27l-11 -9l11 9l-11 -9l-11 9v0l-272 240v0l22 24v0l37 -33v0v148v0q4 -3 9 -6q1 -2 3 -3v0v0l1 -1v0l19 -13v0v-153v0l192 -170v0l192 170v0v153v0l20 14v0v0v0v0v0q6 5 12 9v-148v0l37 33v0l22 -24v0l-272 -240v0zM208 137v16v-16v16v128v0v16v0h16h144v-16v0
v-128v0v-16v0h-16h-144zM240 169h96h-96h96v96v0h-96v0v-96v0zM192 441q-32 -2 -58 -21q-21 -15 -38 -34q-17 19 -38 34q-26 19 -58 21v32v0q23 0 42 -9q20 -8 34 -18q12 -8 20 -15q8 7 20 15q14 10 34 18q19 9 42 9t42 -9q20 -8 34 -18q12 -8 20 -15q8 7 20 15q14 10 34 18
q19 9 42 9t42 -9q20 -8 34 -18q12 -8 20 -15q8 7 20 15q14 10 34 18q19 9 42 9v-32v0q-32 -2 -58 -21q-21 -15 -38 -34q-17 19 -38 34q-26 19 -58 21q-32 -2 -58 -21q-21 -15 -38 -34q-17 19 -38 34q-26 19 -58 21v0z" />
</svg>
