<?xml version="1.0" standalone="no"?>
<!DOCTYPE svg PUBLIC "-//W3C//DTD SVG 1.1//EN" "http://www.w3.org/Graphics/SVG/1.1/DTD/svg11.dtd" >
<svg xmlns="http://www.w3.org/2000/svg" xmlns:xlink="http://www.w3.org/1999/xlink" version="1.1" viewBox="-10 -40 660 512">
   <path fill="currentColor"
d="M544 2q-30 -9 -63 -9h-1v0q-91 2 -153 61q-62 58 -70 147q16 2 31 8q4 -66 43 -113q39 -48 101 -65q-30 31 -47 71t-17 86q1 78 45 135q44 58 115 80q-23 6 -48 6q-76 -2 -128 -49v41v0q55 39 128 40q61 -1 110 -29l1 -1v0q27 -15 49 -37q-24 6 -49 6h-9v0
q-78 -6 -129 -59q-52 -54 -53 -133q0 -52 24 -95q25 -42 66 -68q25 -16 54 -23v0zM64 249q-27 1 -45 19v0v0q-18 18 -19 45v32v0v32v0h32h288v-32v0v-40v0q-1 -31 -21 -51t-51 -21q-10 0 -19 2q-5 2 -9 4q-2 -6 -5 -11q-10 -19 -29 -31t-42 -12q-30 1 -51 18q-21 18 -27 46
h-1h-1v0zM288 305v40v-40v40h-40h-216v-32v0q0 -14 9 -23t23 -9v0h1l27 1v0l5 -27v0q4 -16 16 -27q13 -11 31 -11q34 2 45 32l12 33v0l31 -14v0q8 -3 16 -3q17 0 28 12q12 11 12 28v0z" />
</svg>
