<?xml version="1.0" standalone="no"?>
<!DOCTYPE svg PUBLIC "-//W3C//DTD SVG 1.1//EN" "http://www.w3.org/Graphics/SVG/1.1/DTD/svg11.dtd" >
<svg xmlns="http://www.w3.org/2000/svg" xmlns:xlink="http://www.w3.org/1999/xlink" version="1.1" viewBox="-10 -40 660 512">
   <path fill="currentColor"
d="M64 89q1 43 31 71q-17 5 -32 13q-30 -35 -31 -84q1 -54 37 -91q37 -36 91 -37q62 2 99 47q28 -15 61 -15q34 0 61 16q28 15 45 41q-13 9 -25 20q-28 -43 -81 -45q-32 0 -56 18l-14 10v0l-9 -15v0q-27 -43 -81 -45q-41 1 -68 28t-28 68v0zM512 89q-31 0 -55 18v0v0
q-24 17 -35 45l-10 26v0l-18 -22v0q-28 -33 -74 -35q-29 0 -52 16q-23 15 -35 40q-14 -8 -29 -14q15 -33 46 -53t70 -21q48 1 82 30q17 -28 46 -45t64 -17q54 1 91 37q36 37 37 91q0 32 -14 59q-14 26 -38 44q-8 -14 -19 -26q37 -28 39 -77q-1 -41 -28 -68t-68 -28v0z
M144 217q-48 1 -79 33v0v0q-32 31 -33 79v112v0h112h400v-80v0q-1 -34 -23 -57q-23 -22 -57 -23q-18 0 -33 7l-15 7v0l-6 -16v0q-11 -28 -35 -45t-55 -17q-45 1 -72 33l-12 13v0l-12 -12v0q-32 -33 -80 -34v0zM0 329q2 -61 42 -102v0v0q41 -40 102 -42q53 1 91 32
q35 -31 85 -32q37 0 67 19q30 18 46 49q15 -4 31 -4q48 1 79 33q32 31 33 79v96v0v16v0h-16h-560v-16v0v-128v0z" />
</svg>
