<?xml version="1.0" standalone="no"?>
<!DOCTYPE svg PUBLIC "-//W3C//DTD SVG 1.1//EN" "http://www.w3.org/Graphics/SVG/1.1/DTD/svg11.dtd" >
<svg xmlns="http://www.w3.org/2000/svg" xmlns:xlink="http://www.w3.org/1999/xlink" version="1.1" viewBox="-10 -40 660 512">
   <path fill="currentColor"
d="M192 25v16v-16v16v41v0l21 -20v0l11 -12v0l23 23v0l-12 11v0l-43 44v0v61v0l53 -30v0l16 -60v0l4 -15v0l31 8v0l-4 16v0l-7 28v0l35 -21v0l14 -8v0l16 28v0l-14 8v0l-35 21v0l28 7v0l15 4v0l-8 31v0l-15 -4v0l-60 -16v0l-53 31v0l53 31v0l60 -16v0l15 -4v0l8 31v0l-15 4
v0l-28 8v0l35 20v0l14 8v0l-16 28v0l-14 -8v0l-35 -21v0l7 29v0l4 15v0l-31 8v0l-4 -15v0l-16 -59v0l-53 -31v0v61v0l43 44v0l12 11v0l-23 23v0l-11 -12v0l-21 -20v0v41v0v16v0h-32v0v-16v0v-41v0l-21 20v0l-11 12v0l-23 -23v0l12 -11v0l43 -44v0v-61v0l-53 31v0l-16 59v0
l-4 15v0l-31 -8v0l4 -16v0l7 -28v0l-35 21v0l-14 8v0l-16 -28v0l14 -8v0l35 -21v0l-28 -7v0l-15 -4v0l8 -31v0l15 4v0l60 16v0l53 -31v0l-53 -31v0l-60 16v0l-15 4v0l-8 -31v0l15 -4v0l29 -7v0l-36 -21v0l-14 -8v0l16 -28v0l14 8v0l35 21v0l-7 -28v0l-4 -16v0l31 -8v0l4 15
v0l16 59v0l53 31v0v-61v0l-43 -44v0l-12 -11v0l23 -23v0l11 12v0l21 20v0v-41v0v-16v0h32v0zM480 409v-32v32v-32h16h64q20 -1 34 -14q13 -14 14 -34q-1 -20 -14 -34q-14 -13 -34 -14h-160h-16v-32v0h16h160q34 1 57 23q22 23 23 57q-1 34 -23 57q-23 22 -57 23h-64h-16z
M496 25h64h-64h64q34 1 57 23q22 23 23 57q-1 34 -23 57q-23 22 -57 23h-160h-16v-32v0h16h160q20 -1 34 -14q13 -14 14 -34q-1 -20 -14 -34q-14 -13 -34 -14h-64h-16v-32v0h16v0z" />
</svg>
