<?xml version="1.0" standalone="no"?>
<!DOCTYPE svg PUBLIC "-//W3C//DTD SVG 1.1//EN" "http://www.w3.org/Graphics/SVG/1.1/DTD/svg11.dtd" >
<svg xmlns="http://www.w3.org/2000/svg" xmlns:xlink="http://www.w3.org/1999/xlink" version="1.1" viewBox="-10 -40 660 512">
   <path fill="currentColor"
d="M179 -23l77 41l-77 -41l77 41l77 -41v0l29 -16v0l9 31v0l26 84v0l84 26v0l31 9v0l-15 29v0l-9 16v0q-12 -3 -24 -3q-6 0 -11 1l12 -24v0l-78 -23v0l-16 -5v0l-5 -16v0l-23 -78v0l-72 38v0l-15 9v0l-15 -9v0l-72 -38v0l-23 78v0l-5 16v0l-16 5v0l-78 23v0l38 72v0l9 15v0
l-9 15v0l-38 72v0l78 23v0l16 5v0l5 17v0l23 77v0l72 -38v0l15 -8v0l15 8v0l72 38v0l5 -17v0h33v0l-9 33v0l-10 31v0l-29 -15v0l-77 -42v0l-77 42v0l-29 15v0l-9 -31v0l-26 -84v0l-84 -26v0l-31 -9v0l16 -29v0l41 -77v0l-41 -77v0l-16 -29v0l31 -9v0l84 -26v0l26 -84v0
l9 -31v0l29 16v0zM256 89q47 1 81 29v0v0q34 28 44 72q-12 13 -19 30q-5 1 -10 3v-6q-1 -41 -28 -68t-68 -28q-41 1 -68 28t-28 68q1 41 28 68t68 28q17 0 32 -5v5v28v0q-15 4 -32 4q-54 -1 -90 -37q-37 -37 -38 -91q1 -54 38 -91q36 -36 90 -37v0zM416 265v1v0v0v1l1 24v0
l-22 -8v0q-5 -2 -11 -2q-14 0 -23 9t-9 23v32v0h32h224v-48v0q-1 -20 -14 -34q-14 -13 -34 -14q-15 0 -27 8l-17 12v0l-7 -20v0q-12 -30 -45 -32q-20 1 -34 14q-13 14 -14 34v0zM464 185q45 2 68 37q13 -5 28 -5q34 1 57 23q22 23 23 57v64v0v16v0h-16h-304v-16v0v-48v0
q1 -27 19 -45t45 -19h1h1q6 -28 27 -46q21 -17 51 -18v0z" />
</svg>
