<?xml version="1.0" standalone="no"?>
<!DOCTYPE svg PUBLIC "-//W3C//DTD SVG 1.1//EN" "http://www.w3.org/Graphics/SVG/1.1/DTD/svg11.dtd" >
<svg xmlns="http://www.w3.org/2000/svg" xmlns:xlink="http://www.w3.org/1999/xlink" version="1.1" viewBox="-10 -40 524 512">
   <path fill="currentColor"
d="M179 -23l77 41l-77 -41l77 41l77 -41v0l29 -16v0l9 31v0l26 84v0v0v0l-26 26v0v0v0l-5 -16v0l-23 -78v0l-72 38v0l-15 9v0l-15 -9v0l-72 -38v0l-23 78v0l-5 16v0l-16 5v0l-78 23v0l38 72v0l9 15v0l-9 15v0l-38 72v0l78 23v0l16 5v0v0v0l-26 26v0v0v0l-84 -26v0l-31 -9v0
l16 -29v0l41 -77v0l-41 -77v0l-16 -29v0l31 -9v0l84 -26v0l26 -84v0l9 -31v0l29 16v0zM256 89q54 1 91 38l-23 22v0q-27 -27 -68 -28q-41 1 -68 28t-28 68q1 41 28 68l-22 23v0q-37 -37 -38 -91q1 -54 37 -91q37 -36 91 -37v0zM456 121q2 -22 24 -24q22 2 24 24
q-2 22 -24 24q-22 -2 -24 -24v0zM400 177q22 2 24 24q-2 22 -24 24q-22 -2 -24 -24q2 -22 24 -24v0zM456 281q2 -22 24 -24q22 2 24 24q-2 22 -24 24q-22 -2 -24 -24v0zM400 337q22 2 24 24q-2 22 -24 24q-22 -2 -24 -24q2 -22 24 -24v0zM160 417q22 2 24 24q-2 22 -24 24
q-22 -2 -24 -24q2 -22 24 -24v0zM320 417q22 2 24 24q-2 22 -24 24q-22 -2 -24 -24q2 -22 24 -24v0zM456 441q2 -22 24 -24q22 2 24 24q-2 22 -24 24q-22 -2 -24 -24v0zM240 337q22 2 24 24q-2 22 -24 24q-22 -2 -24 -24q2 -22 24 -24v0zM296 281q2 -22 24 -24q22 2 24 24
q-2 22 -24 24q-22 -2 -24 -24v0z" />
</svg>
