<?xml version="1.0" standalone="no"?>
<!DOCTYPE svg PUBLIC "-//W3C//DTD SVG 1.1//EN" "http://www.w3.org/Graphics/SVG/1.1/DTD/svg11.dtd" >
<svg xmlns="http://www.w3.org/2000/svg" xmlns:xlink="http://www.w3.org/1999/xlink" version="1.1" viewBox="-10 -40 660 512">
   <path fill="currentColor"
d="M243 -23l77 41l-77 -41l77 41l77 -41v0l29 -16v0l9 31v0l26 84v0l84 26v0l31 9v0l-15 29v0l-42 77v0v0v0h-36v0v0v0l8 -15v0l38 -72v0l-78 -23v0l-16 -5v0l-5 -16v0l-23 -78v0l-72 38v0l-15 9v0l-15 -9v0l-72 -38v0l-23 78v0l-5 16v0l-16 5v0l-78 23v0l38 72v0l8 15v0v0
v0h-36v0v0v0l-41 -77v0l-16 -29v0l31 -9v0l84 -26v0l26 -84v0l9 -31v0l29 16v0zM448 217v0v0v0h-32v0v0v0q-1 -41 -28 -68t-68 -28q-41 1 -68 28t-28 68v0v0h-32v0v0v0q1 -54 37 -91q37 -36 91 -37q54 1 91 37q36 37 37 91v0zM80 249h320h-320h336v32v0h-16h-336v-32v0h16v0
zM496 249h128h-128h144v32v0h-16h-144v-32v0h16v0zM16 345h544h-544h560v32v0h-16h-560v-32v0h16v0zM80 441h128h-128h144v32v0h-16h-144v-32v0h16v0zM304 441h320h-320h336v32v0h-16h-336v-32v0h16v0z" />
</svg>
