<?xml version="1.0" standalone="no"?>
<!DOCTYPE svg PUBLIC "-//W3C//DTD SVG 1.1//EN" "http://www.w3.org/Graphics/SVG/1.1/DTD/svg11.dtd" >
<svg xmlns="http://www.w3.org/2000/svg" xmlns:xlink="http://www.w3.org/1999/xlink" version="1.1" viewBox="-10 -40 596 512">
   <path fill="currentColor"
d="M288 192l11 -12l-11 12l11 -12l96 -96v0l12 -11v0l-23 -23v0l-11 12v0l-69 68v0v-153v0v-16v0h-32v0v16v0v153v0l-69 -68v0l-11 -12v0l-23 23v0l12 11v0l96 96v0l11 12v0zM288 242l-77 -41l77 41l-77 -41l-29 -16v0l-9 31v0l-26 84v0l-84 26v0l-31 9v0l16 29v0l24 45v0
h36v0l-29 -55v0l78 -23v0l16 -5v0l5 -16v0l23 -78v0l72 38v0l15 8v0l15 -8v0l72 -38v0l23 78v0l5 16v0l17 5v0l77 23v0l-29 55v0h36v0l25 -45v0l15 -29v0l-31 -9v0l-84 -26v0l-26 -84v0l-9 -31v0l-29 16v0l-77 41v0zM412 409q-11 -42 -45 -69v0v0q-33 -26 -79 -27
q-46 1 -79 27q-34 27 -45 69h33v0q11 -28 35 -46q24 -17 56 -18q32 1 56 18q24 18 34 46h34v0zM16 441h-16h16h-16v32v0h16h560v-32v0h-16h-544z" />
</svg>
