<?xml version="1.0" standalone="no"?>
<!DOCTYPE svg PUBLIC "-//W3C//DTD SVG 1.1//EN" "http://www.w3.org/Graphics/SVG/1.1/DTD/svg11.dtd" >
<svg xmlns="http://www.w3.org/2000/svg" xmlns:xlink="http://www.w3.org/1999/xlink" version="1.1" viewBox="-10 -40 650 512">
   <path fill="currentColor"
d="M312 65l-11 -69l11 69l-11 -69l-6 -35v0l-29 20v0l-58 41v0l-58 -41v0l-29 -20v0l-5 35v0l-12 69v0l-69 12v0l-35 5v0l20 29v0l41 58v0l-41 58v0l-20 29v0l35 6v0l69 11v0l12 69v0l5 35v0l29 -20v0l58 -41v0l58 41v0l9 6v0q-3 -17 -3 -34v-8v0v0v1v0l-46 -32v0l-18 -13v0
l-18 13v0l-45 32v0l-9 -54v0l-4 -23v0l-23 -3v0l-54 -9v0l32 -46v0l13 -18v0l-13 -18v0l-32 -45v0l54 -9v0l23 -4v0l4 -23v0l9 -54v0l45 32v0l18 13v0l18 -13v0l46 -32v0l9 54v0l3 23v0l23 4v0l29 4v0v-32v0l-24 -4v0zM256 169q-1 27 -24 42q-24 12 -48 0q-23 -15 -24 -42
q1 -27 24 -42q24 -12 48 0q23 15 24 42v0zM208 89q-45 1 -69 40q-22 40 0 80q24 39 69 40q45 -1 69 -40q22 -40 0 -80q-24 -39 -69 -40v0zM389 246l11 -10l-11 10l11 -10v-14v0v-229v0h128v0v229v0v14v0l11 10v0q36 32 37 83q-1 48 -33 79q-31 32 -79 33q-48 -1 -79 -33
q-32 -31 -33 -79q1 -51 37 -83v0zM560 -39h-32h32h-192v32v0v229v0q-46 41 -48 107q2 61 42 102q41 40 102 42q61 -2 102 -42q40 -41 42 -102q-2 -66 -48 -107v-229v0v-32v0zM432 329q0 -14 9 -23v0v0q9 -9 23 -9t23 9t9 23t-9 23t-23 9t-23 -9t-9 -23v0zM528 329
q0 -23 -14 -40v0v0q-13 -16 -34 -22v-210v0v-16v0h-32v0v16v0v210v0q-21 6 -34 22q-14 17 -14 40q1 27 19 45t45 19q27 -1 45 -19t19 -45v0z" />
</svg>
