<?xml version="1.0" standalone="no"?>
<!DOCTYPE svg PUBLIC "-//W3C//DTD SVG 1.1//EN" "http://www.w3.org/Graphics/SVG/1.1/DTD/svg11.dtd" >
<svg xmlns="http://www.w3.org/2000/svg" xmlns:xlink="http://www.w3.org/1999/xlink" version="1.1" viewBox="-10 -40 468 512">
   <path fill="currentColor"
d="M352 84q0 21 13 38l55 74v0q28 37 28 83q-1 65 -52 107l-71 57v0l-37 30v0l8 -47v0l2 -12v0q6 -37 -11 -71q-15 -30 -44 -47l-117 -69v0q-59 -35 -92 -93t-34 -127v-14v0v-32v0h32h384v32v0l-45 45v0q-19 19 -19 46v0zM376 361q39 -32 40 -82q0 -7 -1 -14h-161v0l5 3v0
q37 22 57 61q16 32 15 68l45 -36v0zM406 233q-5 -9 -11 -17l-56 -75v0q-7 -9 -11 -20h-265v0q29 49 79 79l58 34v0v-1v0h206v0zM320 84q1 -40 28 -68l23 -23v0h-339v0v14v0q0 43 16 82h272v0v-5v0z" />
</svg>
