<?xml version="1.0" standalone="no"?>
<!DOCTYPE svg PUBLIC "-//W3C//DTD SVG 1.1//EN" "http://www.w3.org/Graphics/SVG/1.1/DTD/svg11.dtd" >
<svg xmlns="http://www.w3.org/2000/svg" xmlns:xlink="http://www.w3.org/1999/xlink" version="1.1" viewBox="-10 -40 522 512">
   <path fill="currentColor"
d="M192 25q72 1 129 35v0v0q58 34 92 92v0v0q34 57 35 129h32v0q-1 -80 -39 -145q-39 -65 -104 -104q-65 -38 -145 -39v32v0zM384 281q-2 -82 -56 -136v0v0q-54 -54 -136 -56v32v0q68 2 113 47t47 113h32v0zM32 81v-16v16v-16h-32v0v16v0v248v0q2 61 42 102q41 40 102 42
q61 -2 102 -42q40 -41 42 -102q-2 -61 -42 -102q-41 -40 -102 -42h-8h-16v32v0h16h8q48 1 79 33q32 31 33 79q-1 48 -33 79q-31 32 -79 33q-48 -1 -79 -33q-32 -31 -33 -79v-248v0z" />
</svg>
