<?xml version="1.0" standalone="no"?>
<!DOCTYPE svg PUBLIC "-//W3C//DTD SVG 1.1//EN" "http://www.w3.org/Graphics/SVG/1.1/DTD/svg11.dtd" >
<svg xmlns="http://www.w3.org/2000/svg" xmlns:xlink="http://www.w3.org/1999/xlink" version="1.1" viewBox="-10 -40 532 512">
   <path fill="currentColor"
d="M32 -7h320h-320h320v64v0h-320v0v-64v0zM0 -39v32v-32v32v64v0v32v0h32h352v-32v0v-64v0v-32v0h-32h-352zM240 121h-16h16h-16v32v0h16h80v32v0h-80h-16v32v0h16h81l22 7v0l137 41v0v80v0h-448v0v-224v0h-32v0v224v0v32v0v64v0l32 32v0h64v0l9 -9v0l23 -23v0l23 23v0l9 9
v0h64v0l9 -9v0l23 -23v0l23 23v0l9 9v0h64v0l9 -9v0l23 -23v0l23 23v0l9 9v0h64v0l32 -32v0v-64v0v-32v0v-104v0l-160 -48v0v-8v0v-64v0h-16h-96zM32 377h64h-64h448v51v0l-13 13v0h-38v0l-22 -23v0l-10 -9v0h-26v0l-10 9v0l-22 23v0h-38v0l-22 -23v0l-10 -9v0h-26v0l-10 9
v0l-22 23v0h-38v0l-22 -23v0l-10 -9v0h-26v0l-10 9v0l-22 23v0h-38v0l-13 -13v0v-51v0z" />
</svg>
