<?xml version="1.0" standalone="no"?>
<!DOCTYPE svg PUBLIC "-//W3C//DTD SVG 1.1//EN" "http://www.w3.org/Graphics/SVG/1.1/DTD/svg11.dtd" >
<svg xmlns="http://www.w3.org/2000/svg" xmlns:xlink="http://www.w3.org/1999/xlink" version="1.1" viewBox="-10 -40 468 512">
   <path fill="currentColor"
d="M128 -23v-16v16v-16h-32v0v16v0v48v0h-64h-32v32v0v64v0v32v0v288v0v32v0h32h416v-32v0v-288v0v-32v0v-64v0v-32v0h-32h-64v-48v0v-16v0h-32v0v16v0v48v0h-192v0v-48v0zM32 153h384h-384h384v288v0h-384v0v-288v0zM32 57h384h-384h384v64v0h-384v0v-64v0zM96 217h96h-96
h96v96v0h-96v0v-96v0zM64 185v32v-32v32v96v0v32v0h32h128v-32v0v-96v0v-32v0h-32h-128z" />
</svg>
