<?xml version="1.0" standalone="no"?>
<!DOCTYPE svg PUBLIC "-//W3C//DTD SVG 1.1//EN" "http://www.w3.org/Graphics/SVG/1.1/DTD/svg11.dtd" >
<svg xmlns="http://www.w3.org/2000/svg" xmlns:xlink="http://www.w3.org/1999/xlink" version="1.1" viewBox="-10 -40 660 512">
   <path fill="currentColor"
d="M112 -39h16h-16h416v16v0v186v0q-15 -8 -32 -10v-160v0h-352v0v160v0q-17 2 -32 10v-186v0v-16v0zM496 186q14 2 24 9q8 -2 16 -2q31 1 47 26q18 6 29 20q12 15 12 34q0 8 -2 15q17 16 18 41q-1 25 -18 41q2 7 2 15q0 20 -12 34q-11 15 -29 20q-16 25 -47 26q-8 0 -16 -2
q-14 10 -32 10q-24 -1 -40 -16q-15 -16 -16 -40q0 -15 8 -28q-8 -12 -8 -28q0 -18 10 -32q-10 -14 -10 -32q0 -15 8 -28q-8 -12 -8 -28q1 -24 16 -40q16 -15 40 -16q4 0 8 1v0zM152 185q24 1 40 16v0v0q15 16 16 40q0 16 -7 28q7 13 7 28q0 18 -10 32q10 14 10 32
q0 16 -7 28q7 13 7 28q-1 24 -16 40q-16 15 -40 16q-18 0 -32 -10q-8 2 -16 2q-31 -1 -47 -26q-18 -5 -29 -20q-12 -14 -12 -34q0 -8 2 -15q-17 -16 -18 -41q1 -25 18 -41q-2 -7 -2 -15q0 -20 12 -34q11 -15 29 -20q16 -25 47 -26q8 0 16 2q10 -7 24 -9q4 -1 8 -1v0z
M164 269l9 -16l-9 16l9 -16q3 -5 3 -12q-2 -22 -24 -24q-8 0 -14 4l-12 9v0l-15 -4v0q-3 -1 -7 -1q-13 0 -20 11l-7 11v0l-12 3v0q-16 5 -17 23q0 3 1 6l5 19v0l-14 13v0q-8 7 -8 18t8 18l14 13v0l-5 19v0q-1 3 -1 6q1 18 17 23l12 3v0l7 11v0q7 11 20 11q4 0 7 -1l15 -4v0
l12 9v0q6 4 14 4q22 -2 24 -24q0 -7 -3 -12l-9 -16v0l9 -16v0q3 -5 3 -12q0 -8 -4 -14l-13 -18v0l13 -18v0q4 -6 4 -14q0 -7 -3 -12l-9 -16v0zM467 253l10 16l-10 -16l10 16l-10 16v0q-3 5 -3 12q0 8 4 14l13 18v0l-13 18v0q-4 6 -4 14q0 7 3 12l10 16v0l-10 16v0
q-3 5 -3 12q2 22 24 24q8 0 14 -4l12 -9v0l15 4v0q3 1 7 1q13 0 20 -11l7 -10v0l12 -4v0q16 -5 17 -23q0 -3 -1 -6l-5 -19v0l14 -13v0q8 -7 8 -18t-8 -18l-14 -13v0l5 -19v0q1 -3 1 -6q-1 -18 -17 -23l-12 -3v0l-7 -11v0q-7 -11 -20 -11q-4 0 -7 1l-15 4v0l-12 -9v0
q-6 -4 -14 -4q-22 2 -24 24q0 7 3 12v0z" />
</svg>
