<?xml version="1.0" standalone="no"?>
<!DOCTYPE svg PUBLIC "-//W3C//DTD SVG 1.1//EN" "http://www.w3.org/Graphics/SVG/1.1/DTD/svg11.dtd" >
<svg xmlns="http://www.w3.org/2000/svg" xmlns:xlink="http://www.w3.org/1999/xlink" version="1.1" viewBox="-10 -40 468 512">
   <path fill="currentColor"
d="M352 -7v128v-128v128h32v0v-128v0v-32v0h-32h-288v32v0v128v0h32v0v-128v0h256v0zM353 185q45 49 47 120q0 41 -17 76t-47 60h-224v0q-30 -25 -47 -60t-17 -76q2 -71 47 -120h1h257zM394 185h38h-38h54v-32v0h-16h-432v32v0h16h38q-37 52 -38 120q0 52 23 96q23 43 62 72
h246v0q39 -29 62 -72q23 -44 23 -96q-1 -68 -38 -120v0zM168 265q-2 -22 -24 -24q-22 2 -24 24q2 22 24 24q22 -2 24 -24v0zM304 289q22 -2 24 -24q-2 -22 -24 -24q-22 2 -24 24q2 22 24 24v0zM176 329q0 12 6 23l28 49v0l14 24v0l14 -24v0l28 -49v0q6 -11 6 -23
q-1 -21 -14 -34t-34 -14v0v0q-21 1 -34 14t-14 34v0zM224 313v0v0v0q15 1 16 16q0 4 -2 7l-14 25v0l-14 -25v0q-2 -3 -2 -7q1 -15 16 -16v0z" />
</svg>
