<?xml version="1.0" standalone="no"?>
<!DOCTYPE svg PUBLIC "-//W3C//DTD SVG 1.1//EN" "http://www.w3.org/Graphics/SVG/1.1/DTD/svg11.dtd" >
<svg xmlns="http://www.w3.org/2000/svg" xmlns:xlink="http://www.w3.org/1999/xlink" version="1.1" viewBox="-10 -40 468 512">
   <path fill="currentColor"
d="M224 -39q-48 1 -79 33v0v0q-32 31 -33 79q0 26 11 48h-43h-80v16v0v128v0v16v0h16h85l-65 79v0l-4 4v0v6v0v87v0v16v0h16h102l4 -6v0l62 -74v0h16v0l62 74v0l5 6v0h7h110v-16v0v-87v0v-6v0l-4 -4v0l-65 -79v0h21h80v-16v0v-128v0v-16v0h-16h-107q11 -22 11 -48
q-1 -48 -33 -79q-31 -32 -79 -33v0zM144 73q1 -34 23 -57v0v0q23 -22 57 -23q34 1 57 23q22 23 23 57q-1 31 -20 53l-24 27v0h36h120v96v0h-48h-64v16v0v9v0v6v0l4 4v0l76 92v0v65v0h-70v0l-62 -74v0l-5 -6v0h-8h-38l-5 6v0l-61 74v0h-71v0v-65v0l76 -92v0l4 -4v0v-6v0v-9v0
v-16v0h-16h-96v-96v0h48h108l-24 -27v0q-19 -22 -20 -53v0zM224 201q15 -1 16 -16q-1 -15 -16 -16q-15 1 -16 16q1 15 16 16v0zM208 57q-1 -15 -16 -16q-15 1 -16 16q1 15 16 16q15 -1 16 -16v0zM256 73q15 -1 16 -16q-1 -15 -16 -16q-15 1 -16 16q1 15 16 16v0zM240 313
q-1 -15 -16 -16q-15 1 -16 16q1 15 16 16q15 -1 16 -16v0zM224 265q15 -1 16 -16q-1 -15 -16 -16q-15 1 -16 16q1 15 16 16v0z" />
</svg>
