<?xml version="1.0" standalone="no"?>
<!DOCTYPE svg PUBLIC "-//W3C//DTD SVG 1.1//EN" "http://www.w3.org/Graphics/SVG/1.1/DTD/svg11.dtd" >
<svg xmlns="http://www.w3.org/2000/svg" xmlns:xlink="http://www.w3.org/1999/xlink" version="1.1" viewBox="-10 -40 468 512">
   <path fill="currentColor"
d="M416 185q-2 75 -49 128h41v0q39 -56 40 -128q-1 -63 -31 -113q-29 -51 -80 -80q-50 -30 -113 -31q-63 1 -113 31q-51 29 -80 80q-30 50 -31 113q1 72 40 128h41v0q-47 -53 -49 -128q2 -82 56 -136t136 -56q82 2 136 56t56 136v0zM264 41q-2 -22 -24 -24q-22 2 -24 24
q2 22 24 24q22 -2 24 -24v0zM235 110l-11 -12l11 12l-11 -12l-11 12v0l-64 64v0l-12 11v0l23 23v0l11 -12v0l37 -36v0v34v0l-59 60v0l-12 11v0l23 23v0l11 -12v0l37 -36v0v73v0h32v0v-73v0l37 36v0l11 12v0l23 -23v0l-12 -11v0l-59 -60v0v-34v0l37 36v0l11 12v0l23 -23v0
l-12 -11v0l-64 -64v0zM36 473h376h-376h412l-16 -32v0l-48 -96v0h-320v0l-48 96v0l-16 32v0h36v0zM364 377l32 64l-32 -64l32 64h-344v0l32 -64v0h280v0zM336 161q22 -2 24 -24q-2 -22 -24 -24q-22 2 -24 24q2 22 24 24v0zM104 201q-2 -22 -24 -24q-22 2 -24 24q2 22 24 24
q22 -2 24 -24v0z" />
</svg>
