<?xml version="1.0" standalone="no"?>
<!DOCTYPE svg PUBLIC "-//W3C//DTD SVG 1.1//EN" "http://www.w3.org/Graphics/SVG/1.1/DTD/svg11.dtd" >
<svg xmlns="http://www.w3.org/2000/svg" xmlns:xlink="http://www.w3.org/1999/xlink" version="1.1" viewBox="-10 -40 532 512">
   <path fill="currentColor"
d="M431 68l-33 7l33 -7l-33 7l7 -33v0l42 -37v0l21 21v0l-37 42v0zM448 -39l-72 64l72 -64l-72 64l-14 64v0l-36 36v0q-40 -33 -84 -36t-74 26q-18 18 -24 43q-3 14 -14 24q-11 9 -25 11q-43 2 -74 31q-36 39 -30 94q6 56 51 103q47 46 103 51q55 6 94 -30q29 -31 31 -74
q1 -14 11 -25t24 -14q25 -6 43 -24q29 -30 26 -74t-35 -84l36 -36v0l63 -14v0l64 -72v0l-64 -64v0zM190 138q18 -18 49 -17v0v0q31 1 64 26l-74 75v0q-10 -5 -21 -5q-20 0 -34 14q-13 14 -14 34q1 20 14 34q14 13 34 14q20 -1 34 -14q14 -14 14 -34q0 -11 -5 -21l75 -74v0
q25 33 26 64t-16 49q-12 11 -28 15q-24 5 -41 24q-17 18 -18 45q-2 32 -22 52q-26 25 -69 21q-43 -3 -83 -41q-39 -41 -42 -84q-4 -43 21 -69q20 -20 52 -21q27 -2 45 -19q19 -17 24 -41q4 -16 15 -27v0zM192 265q1 -15 16 -16q15 1 16 16q-1 15 -16 16q-15 -1 -16 -16v0z
" />
</svg>
