<?xml version="1.0" standalone="no"?>
<!DOCTYPE svg PUBLIC "-//W3C//DTD SVG 1.1//EN" "http://www.w3.org/Graphics/SVG/1.1/DTD/svg11.dtd" >
<svg xmlns="http://www.w3.org/2000/svg" xmlns:xlink="http://www.w3.org/1999/xlink" version="1.1" viewBox="-10 -40 531 512">
   <path fill="currentColor"
d="M256 -7q-14 0 -23 9v0v0q-9 9 -9 23t9 23t23 9t23 -9t9 -23t-9 -23t-23 -9v0zM320 25q-1 36 -32 55q-32 18 -64 0q-31 -19 -32 -55q1 -36 32 -55q32 -18 64 0q31 19 32 55v0zM47 305l49 -17l-49 17l49 -17l1 -46v0v-32v0l32 5v0l47 7v0l44 -21v0l36 -16v0l-7 39v0l-9 48
v0l18 43v0l5 12v0l6 -12v0l18 -43v0l-9 -48v0l-7 -39v0l35 16v0l45 21v0l46 -7v0l32 -5v0l1 33v0l1 45v0l49 17v0l31 10v0l-14 29v0l-20 40v0l10 50v0l8 39v0l-36 -17v0l-46 -22v0l-44 9v0l-32 7v0l-1 -33v0l-1 -47v0l-48 -15v0l-24 -8v0l-23 8v0l-48 15v0l-2 47v0l-1 33v0
l-31 -7v0l-44 -9v0l-46 22v0l-36 17v0l8 -39v0l10 -50v0l-20 -40v0l-14 -29v0l31 -10v0zM128 289v22v-22v22l-22 8v0l-45 15v0l18 36v0l4 10v0l-2 10v0l-5 27v0l24 -12v0l10 -5v0l10 3v0l39 8v0l1 -42v0l1 -23v0l21 -7v0l46 -14v0l-17 -41v0l-4 -9v0l2 -9v0l4 -26v0l-24 11
v0l-8 4v0l-10 -1v0l-42 -7v0l-1 42v0zM399 289l-1 -42l1 42l-1 -42l-43 7v0l-9 1v0l-9 -4v0l-24 -11v0l5 26v0l2 9v0l-4 9v0l-17 41v0l45 14v0l22 7v0l1 23v0l1 42v0l38 -8v0l11 -3v0l10 5v0l24 12v0l-6 -27v0l-2 -10v0l5 -10v0l18 -36v0l-46 -16v0l-21 -7v0v-22v0zM112 105
q0 -23 14 -40v0v0q14 -17 36 -22q3 16 11 30q-13 2 -21 10q-8 9 -8 22q0 14 9 23t23 9q13 0 22 -8q8 -8 10 -21q14 8 30 11q-5 22 -22 36t-40 14q-27 -1 -45 -19t-19 -45v0zM336 169q-23 0 -40 -14v0v0q-17 -14 -22 -36q16 -3 30 -11q2 13 10 21q9 8 22 8q14 0 23 -9t9 -23
q0 -13 -8 -22q-8 -8 -21 -10q8 -14 11 -30q22 5 36 22t14 40q-1 27 -19 45t-45 19v0z" />
</svg>
