<?xml version="1.0" standalone="no"?>
<!DOCTYPE svg PUBLIC "-//W3C//DTD SVG 1.1//EN" "http://www.w3.org/Graphics/SVG/1.1/DTD/svg11.dtd" >
<svg xmlns="http://www.w3.org/2000/svg" xmlns:xlink="http://www.w3.org/1999/xlink" version="1.1" viewBox="-10 -40 532 512">
   <path fill="currentColor"
d="M224 -7h-160h160h-192v32v0v64v0h32v0v-64v0h131v0l32 -32v0h-3v0zM345 66l-50 -50l50 50l-50 -50l-23 -23v0l-23 23v0l-50 50v0l-23 23v0h45v0l51 -51v0l51 51v0h45v0l-23 -23v0zM32 409v-256v256v-256h64v0v80v0v16v0h32v0v-16v0v-80v0h208h16v256v0h-320v0zM128 121
h-32h32h-128v32v0v256v0v32v0h32h352v-32v0v-64v0h16v0q48 -1 79 -33q32 -31 33 -79q-1 -48 -33 -79q-31 -32 -79 -33h-16h-256zM384 313v-160v160v-160h16v0q34 1 57 23q22 23 23 57q-1 34 -23 57q-23 22 -57 23h-16v0z" />
</svg>
