<?xml version="1.0" standalone="no"?>
<!DOCTYPE svg PUBLIC "-//W3C//DTD SVG 1.1//EN" "http://www.w3.org/Graphics/SVG/1.1/DTD/svg11.dtd" >
<svg xmlns="http://www.w3.org/2000/svg" xmlns:xlink="http://www.w3.org/1999/xlink" version="1.1" viewBox="-10 -40 522 512">
   <path fill="currentColor"
d="M392 73q22 -2 24 -24q-2 -22 -24 -24q-22 2 -24 24q2 22 24 24v0zM392 -7q32 1 48 28q16 28 0 56q-16 27 -48 28q-32 -1 -48 -28q-16 -28 0 -56q16 -27 48 -28v0zM417 436l-408 -205l408 205l-408 -205l14 -28v0l402 202v0l49 -19v0l15 -6v0l12 30v0l-15 6v0l-56 21v0
l-7 3v0l-6 -4v0zM160 105h160h-160h160l11 27v0l-100 101v0h121h16v16v0v80v0v16v0h-32v0v-16v0v-64v0h-105v0q-22 -2 -30 -20t7 -35l73 -73v0h-121h-16v-32v0h16v0z" />
</svg>
