<?xml version="1.0" standalone="no"?>
<!DOCTYPE svg PUBLIC "-//W3C//DTD SVG 1.1//EN" "http://www.w3.org/Graphics/SVG/1.1/DTD/svg11.dtd" >
<svg xmlns="http://www.w3.org/2000/svg" xmlns:xlink="http://www.w3.org/1999/xlink" version="1.1" viewBox="-17 0 533 512">
   <path fill="currentColor"
d="M194 -23l48 80l-48 -80l48 80l4 6v0l7 2v0l50 10v0l-84 39v0q-26 14 -27 43v83v0l-89 60v0l-13 9v0v0v0l-25 -9v0l-37 -45v0l-10 -12v0l-25 20v0l11 12v0l40 48v0l2 3v0l4 2v0l368 144v0l3 1v0h3h72v-32v0h-16h-53l-101 -40v0l1 -2v0l56 -128v0l5 -11v0l-10 -8v0l-68 -53
v0l96 -54v0l80 68v0l20 -24v0l-160 -136v0l-3 -3v0l-4 -1v0l-73 -14v0l-44 -74v0l-28 16v0zM282 178l-46 -36l46 36l-46 -36l106 -51v0l38 32v0l-98 55v0zM224 173l124 97l-124 -97l124 97l-51 117v0l-1 3v0l-170 -67v0l91 -61v0l7 -4v0v-9v0v-76v0zM424 -7q22 2 24 24
q-2 22 -24 24q-22 -2 -24 -24q2 -22 24 -24v0zM424 73q32 -1 48 -28q16 -28 0 -56q-16 -27 -48 -28q-32 1 -48 28q-16 28 0 56q16 27 48 28v0z" />
</svg>
