<?xml version="1.0" standalone="no"?>
<!DOCTYPE svg PUBLIC "-//W3C//DTD SVG 1.1//EN" "http://www.w3.org/Graphics/SVG/1.1/DTD/svg11.dtd" >
<svg xmlns="http://www.w3.org/2000/svg" xmlns:xlink="http://www.w3.org/1999/xlink" version="1.1" viewBox="-10 -40 659 512">
   <path fill="currentColor"
d="M256 17q-2 -22 -24 -24q-22 2 -24 24q2 22 24 24q22 -2 24 -24v0zM176 17q1 -32 28 -48q28 -16 56 0q27 16 28 48q-1 32 -28 48q-28 16 -56 0q-27 -16 -28 -48v0zM350 27l8 14l-8 -14l8 14l44 73v0l174 87v0v96v0l-90 60v0l63 82v0q0 1 1 2h11v0l44 -43v0l11 -12v0l23 23
v0l-12 11v0l-48 48v0l-4 5v0h-7h-152v-32v0h16h78l-62 -80v0h-135v0q7 15 7 32q-1 34 -23 57q-23 22 -57 23h-160v0q-34 -1 -57 -23q-22 -23 -23 -57q1 -41 32 -64l48 -96v0h208v0l36 -48v0h-44h-8l-5 -6v0l-43 -58v0h-38v0l-27 63v0l-7 14v0l-29 -13v0l6 -14v0l32 -72v0
l5 -10v0h10h64l5 6v0l43 58v0h60v0l22 -29v0l-40 -67v0l-8 -13v0l28 -17v0zM395 146l-3 2l3 -2l-3 2l-78 104v0q-10 13 -26 13h-188v0l-24 48v0h4h160v0q27 1 48 16h168v0v0v0h14v0l74 -49v0v-59v0l-149 -75v0zM80 345q-20 1 -34 14v0v0q-13 14 -14 34q1 20 14 34
q14 13 34 14h160v0q20 -1 34 -14q13 -14 14 -34q-1 -20 -14 -34q-14 -13 -34 -14h-160v0z" />
</svg>
