<?xml version="1.0" standalone="no"?>
<!DOCTYPE svg PUBLIC "-//W3C//DTD SVG 1.1//EN" "http://www.w3.org/Graphics/SVG/1.1/DTD/svg11.dtd" >
<svg xmlns="http://www.w3.org/2000/svg" xmlns:xlink="http://www.w3.org/1999/xlink" version="1.1" viewBox="-10 -40 656 512">
   <path fill="currentColor"
d="M128 -39h16h-16h202l5 10v0l96 216v0l1 3v0v3v0v56v0h96v0v-48v0v-6v0l4 -4v0l80 -96v0l24 20v0l-76 92v0v42v0v32v0v74v0l76 92v0l-24 20v0l-80 -96v0l-4 -4v0v-6v0v-80v0h-82v0q33 32 34 80q-1 48 -33 79q-31 32 -79 33h-256v0q-48 -1 -79 -33q-32 -31 -33 -79
q0 -34 18 -61q17 -26 46 -40v-155v0v-16v0h16h48v-112v0v-16v0zM400 254v-5v5v-5v-32v0h-192h-9l-4 -7v0l-60 -89v0h-7h-32v129v0q8 -1 16 -1h256v0q17 0 32 5v0zM160 100l57 85l-57 -85l57 85h178v0l-85 -192v0h-150v0v107v0zM368 281h-256h256h-256q-34 1 -57 23
q-22 23 -23 57q1 34 23 57q23 22 57 23h256v0q34 -1 57 -23q22 -23 23 -57q-1 -34 -23 -57q-23 -22 -57 -23v0zM120 337q22 2 24 24q-2 22 -24 24q-22 -2 -24 -24q2 -22 24 -24v0zM176 361q2 -22 24 -24q22 2 24 24q-2 22 -24 24q-22 -2 -24 -24v0zM280 337q22 2 24 24
q-2 22 -24 24q-22 -2 -24 -24q2 -22 24 -24v0zM336 361q2 -22 24 -24q22 2 24 24q-2 22 -24 24q-22 -2 -24 -24v0z" />
</svg>
