<?xml version="1.0" standalone="no"?>
<!DOCTYPE svg PUBLIC "-//W3C//DTD SVG 1.1//EN" "http://www.w3.org/Graphics/SVG/1.1/DTD/svg11.dtd" >
<svg xmlns="http://www.w3.org/2000/svg" xmlns:xlink="http://www.w3.org/1999/xlink" version="1.1" viewBox="-10 -40 468 512">
   <path fill="currentColor"
d="M0 -39v32v-32v32h16h432v-32v0h-16h-432zM32 25v147v-147v147q-3 1 -6 3q-23 14 -26 42q1 53 24 90t58 59q1 1 2 1q2 2 4 3l-16 71v0l-8 32v0h33h287l-7 -32v0l-17 -71v0l6 -4q35 -22 58 -59t24 -90q-3 -28 -26 -42q-3 -2 -6 -3v-147v0h-32v0v133v0q-8 -3 -15 -5
q-32 -8 -70 -12q-37 -4 -75 -4t-75 4q-38 4 -70 12q-8 2 -15 5v-133v0h-32v0zM331 386l13 55l-13 -55l13 55h-240v0l14 -55v0q57 23 106 23t107 -23v0zM100 340q-41 -26 -60 -73q18 8 39 14q32 8 70 12q37 4 75 4t75 -4q38 -4 70 -12q21 -6 39 -14q-19 47 -60 73
q-30 19 -63 28t-61 9t-61 -9t-63 -28v0zM404 232q-15 10 -44 18q-29 7 -64 11q-36 4 -72 4t-72 -4q-35 -4 -64 -11q-29 -8 -44 -18q-14 -10 -12 -15q-2 -5 12 -15q15 -10 44 -18q29 -7 64 -11q36 -4 72 -4t72 4q35 4 64 11q29 8 44 18q14 10 12 15q2 5 -12 15v0zM112 25h-16
h16h-16v32v0h16h48v-32v0h-16h-32z" />
</svg>
