<?xml version="1.0" standalone="no"?>
<!DOCTYPE svg PUBLIC "-//W3C//DTD SVG 1.1//EN" "http://www.w3.org/Graphics/SVG/1.1/DTD/svg11.dtd" >
<svg xmlns="http://www.w3.org/2000/svg" xmlns:xlink="http://www.w3.org/1999/xlink" version="1.1" viewBox="-10 -40 660 512">
   <path fill="currentColor"
d="M96 185h-32h32h-32q-14 0 -23 -9t-9 -23q0 -34 21 -59q21 -24 56 -40q37 -16 73 -23q36 -6 58 -6t58 6q36 7 73 23q35 16 56 41q21 24 21 58q0 14 -9 23t-23 9h-32v0v32v0v192v0h-64h-224v-192v0v-32v0zM416 217h128h-128h128v192v0h-128v0v-160v0v-32v0zM568 185h-24h24
h-97q9 -14 9 -32q-1 -48 -28 -79q-28 -31 -68 -49h16v0q22 0 58 6q36 7 73 23q35 16 56 41q21 24 21 58q0 14 -9 23t-23 9h-8v0zM96 441h224h-224h480v-32v0v-160v0v-32v0q27 -1 45 -19t19 -45q-3 -63 -48 -98t-101 -49t-91 -13h-160v0q-35 -1 -91 13t-101 49t-48 98
q1 27 19 45t45 19v32v0v160v0v32v0h32v0z" />
</svg>
