<?xml version="1.0" standalone="no"?>
<!DOCTYPE svg PUBLIC "-//W3C//DTD SVG 1.1//EN" "http://www.w3.org/Graphics/SVG/1.1/DTD/svg11.dtd" >
<svg xmlns="http://www.w3.org/2000/svg" xmlns:xlink="http://www.w3.org/1999/xlink" version="1.1" viewBox="-10 -40 532 512">
   <path fill="currentColor"
d="M269 41l-237 237l237 -237l-237 237q37 19 80 19q60 -1 106 -35q45 -34 62 -89q8 -25 8 -52q0 -43 -19 -80v0zM32 313v35v-35v35l93 93v0h70v0l237 -237v0q-36 -19 -80 -19q-23 0 -44 6q-22 61 -75 99q-52 38 -121 39q-43 0 -80 -16v0zM450 231l-242 242l242 -242
l-242 242h-96v0l-112 -112v0v-96v0l242 -242v0q7 -27 28 -44t50 -18q17 0 32 7q15 -7 32 -7q26 0 46 15q20 14 29 38q24 9 38 29q15 20 15 46q0 17 -7 32q7 15 7 32q-1 29 -18 50t-44 28v0zM320 121q0 18 -3 35q17 -3 35 -3q64 1 114 34q13 -14 14 -34q0 -13 -6 -24l-5 -8v0
l5 -8v0q6 -11 6 -24q0 -18 -11 -30q-10 -13 -26 -17l-10 -2v0l-2 -10v0q-4 -16 -17 -26q-13 -11 -30 -11q-13 0 -24 6l-8 5v0l-8 -5v0q-11 -6 -24 -6q-20 1 -34 14q33 50 34 114v0z" />
</svg>
