<?xml version="1.0" standalone="no"?>
<!DOCTYPE svg PUBLIC "-//W3C//DTD SVG 1.1//EN" "http://www.w3.org/Graphics/SVG/1.1/DTD/svg11.dtd" >
<svg xmlns="http://www.w3.org/2000/svg" xmlns:xlink="http://www.w3.org/1999/xlink" version="1.1" viewBox="-10 -40 404 512">
   <path fill="currentColor"
d="M146 29q4 -16 16 -26v0v0q13 -10 30 -10t30 10q12 10 17 26l3 12v0h12h34v48v0h-96h-96v-48v0h34h12l4 -12v0zM192 -39q-25 0 -44 13v0v0q-20 13 -29 35h-39h-16v16v0v16v0h-32h-32v32v0v368v0v32v0h32h352v-32v0v-368v0v-32v0h-32h-32v-16v0v-16v0h-16h-39
q-9 -22 -29 -35q-19 -13 -44 -13v0zM320 105v-32v32v-32h32v0v368v0h-320v0v-368v0h32v0v32v0v16v0h16h240v-16v0zM208 41q-1 -15 -16 -16q-15 1 -16 16q1 15 16 16q15 -1 16 -16v0zM192 185q14 0 23 9v0v0q9 9 9 23t-9 23t-23 9t-23 -9t-9 -23t9 -23t23 -9v0zM192 281
q36 -1 55 -32q18 -32 0 -64q-19 -31 -55 -32q-36 1 -55 32q-18 32 0 64q19 31 55 32v0zM114 409l21 -64l-21 64l21 -64h114v0l21 64v0h34v0l-32 -96v0h-160v0l-32 96v0h34v0z" />
</svg>
