<?xml version="1.0" standalone="no"?>
<!DOCTYPE svg PUBLIC "-//W3C//DTD SVG 1.1//EN" "http://www.w3.org/Graphics/SVG/1.1/DTD/svg11.dtd" >
<svg xmlns="http://www.w3.org/2000/svg" xmlns:xlink="http://www.w3.org/1999/xlink" version="1.1" viewBox="-10 -40 659 512">
   <path fill="currentColor"
d="M189 -26l11 -12l-11 12l11 -12l23 23v0l-12 11v0l-12 13v0l98 99v0l-22 22v0l-99 -98v0l-105 105v0l105 105v0l65 -64v0l-12 57v0l-30 30v0l20 20v0l-7 36v0l-1 1v0l-46 -46v0l-117 -116v0l-13 12v0l-11 12v0l-23 -23v0l12 -11v0l176 -176v0zM385 368l37 -7l-37 7l37 -7
l77 77v0l12 11v0l-23 23v0l-11 -12v0l-92 -92v0zM451 -26l176 176l-176 -176l176 176l12 11v0l-23 23v0l-11 -12v0l-176 -176v0l-12 -11v0l23 -23v0l11 12v0zM277 174l48 -48l-48 48l48 -48v0v0v0v0l94 -94v0l22 22v0l-82 83v0l105 105v0l83 -82v0l22 22v0l-94 94v0l-48 48
v0l-3 4v0l-5 1v0l-155 31v0l-101 100v0l-11 12v0l-23 -23v0l12 -11v0l100 -101v0l31 -155v0l1 -5v0l4 -3v0zM303 193l-27 132l27 -132l-27 132l132 -27v0l33 -33v0l-105 -105v0l-33 33v0z" />
</svg>
