<?xml version="1.0" standalone="no"?>
<!DOCTYPE svg PUBLIC "-//W3C//DTD SVG 1.1//EN" "http://www.w3.org/Graphics/SVG/1.1/DTD/svg11.dtd" >
<svg xmlns="http://www.w3.org/2000/svg" xmlns:xlink="http://www.w3.org/1999/xlink" version="1.1" viewBox="-10 -40 532 512">
   <path fill="currentColor"
d="M64 241q0 -24 -17 -41l-29 -29v0q-18 -18 -18 -43q1 -29 21 -46q21 -17 49 -13l60 10v0q29 4 55 -7t42 -35l9 -15v0q20 -28 55 -29q24 0 42 14q17 15 23 38l7 31v0q6 28 26 46q20 19 47 25l28 5v0q21 4 35 20q13 16 13 37q-2 39 -37 54l-37 15v0q-25 10 -39 31
q-15 21 -15 48v25v0q-1 25 -17 42q-17 16 -42 17q-21 0 -37 -13l-31 -25v0q-33 -26 -75 -26h-10v0q-12 0 -24 3l-62 13v0q-28 6 -48 -11q-21 -16 -22 -45q0 -24 17 -41l13 -13v0q18 -17 18 -42v0zM254 54q-22 32 -57 47v0v0q-34 15 -73 9l-59 -10v0q-14 -1 -23 7
q-10 8 -10 21q0 12 8 20l30 29v0q26 27 26 64q0 38 -27 65l-13 13v0q-8 7 -8 18q0 13 10 20q9 7 21 5l62 -14v0q16 -3 31 -3h10v0q53 0 95 33l31 25v0q7 6 17 6q11 0 19 -8t8 -19v-25v0q1 -37 20 -66q20 -29 54 -43l37 -14v0q16 -7 17 -25q-1 -21 -22 -26l-28 -5v0
q-37 -7 -63 -33q-27 -25 -36 -62l-7 -32v0q-7 -24 -33 -26q-18 0 -28 15l-9 14v0zM160 217l-32 -32l32 32l-32 -32l32 -32v0l32 32v0l-32 32v0zM256 281l32 -32l-32 32l32 -32l32 32v0l-32 32v0l-32 -32v0zM304 193l-24 -24l24 24l-24 -24l24 -24v0l24 24v0l-24 24v0z" />
</svg>
