<?xml version="1.0" standalone="no"?>
<!DOCTYPE svg PUBLIC "-//W3C//DTD SVG 1.1//EN" "http://www.w3.org/Graphics/SVG/1.1/DTD/svg11.dtd" >
<svg xmlns="http://www.w3.org/2000/svg" xmlns:xlink="http://www.w3.org/1999/xlink" version="1.1" viewBox="-10 -40 404 512">
   <path fill="currentColor"
d="M192 425q-66 -2 -112 -54v0v0q-46 -51 -48 -122q0 -39 11 -82q11 -42 33 -80q43 -75 116 -78q73 3 117 78q21 38 32 80q11 43 11 82q-2 71 -48 122q-46 52 -112 54v0zM0 249q1 54 26 101v0v0q26 47 69 77v0v0q43 29 97 30q54 -1 97 -30q43 -30 69 -77q25 -47 26 -101
q0 -58 -21 -120q-22 -63 -64 -106q-43 -44 -107 -46q-64 2 -107 46q-42 43 -64 106q-21 62 -21 120v0zM112 249q0 -38 15 -83q16 -44 44 -71l-22 -24v0q-35 35 -52 85q-17 49 -17 93v16v0h32v0v-16v0z" />
</svg>
