<?xml version="1.0" standalone="no"?>
<!DOCTYPE svg PUBLIC "-//W3C//DTD SVG 1.1//EN" "http://www.w3.org/Graphics/SVG/1.1/DTD/svg11.dtd" >
<svg xmlns="http://www.w3.org/2000/svg" xmlns:xlink="http://www.w3.org/1999/xlink" version="1.1" viewBox="-10 -40 532 512">
   <path fill="currentColor"
d="M295 61l18 23l-18 -23l18 23l25 -16v0l46 -31v0v84v0q-1 41 -28 68t-68 28h-64v0q-41 -1 -68 -28t-28 -68v-84v0l46 31v0l25 16v0l18 -23v0l39 -49v0l39 49v0zM416 -23l-32 21l32 -21l-32 21l-64 43v0l-43 -54v0l-21 -26v0l-20 26v0l-44 54v0l-64 -43v0l-32 -21v0v39v0
v105v0q1 54 37 91q37 36 91 37h16v0v109v0q-30 -50 -80 -79t-112 -30h-16h-32q0 16 2 32q14 83 75 137q61 53 147 55h16h48q86 -2 147 -55q61 -54 75 -137q2 -16 2 -32h-32h-16q-62 1 -112 30t-80 79v-109v0h16v0q54 -1 91 -37q36 -37 37 -91v-105v0v-39v0zM48 281
q73 1 125 46v0v0q51 44 64 114h-13v0q-73 -1 -125 -46q-51 -44 -64 -114h13v0zM464 281h13h-13h13q-13 70 -64 114q-52 45 -125 46h-13v0q13 -70 64 -114q52 -45 125 -46v0z" />
</svg>
