<?xml version="1.0" standalone="no"?>
<!DOCTYPE svg PUBLIC "-//W3C//DTD SVG 1.1//EN" "http://www.w3.org/Graphics/SVG/1.1/DTD/svg11.dtd" >
<svg xmlns="http://www.w3.org/2000/svg" xmlns:xlink="http://www.w3.org/1999/xlink" version="1.1" viewBox="-10 -40 458 512">
   <path fill="currentColor"
d="M208 -39h-16h16h-16v16v0v176v0h-64h-16v16v0v36v0l-74 55v0l-6 5v0v8v0v52v0q0 40 20 73q20 34 56 53l8 5v0q32 17 68 17h136v0q48 -1 79 -33q32 -31 33 -79v-96v0v-48v0v-16v0h-16h-48v-16v0v-16v0h-16h-48v-192v0v-16v0h-16h-80zM288 201h48h-48h48v16v0v16v0h16h48
v32v0v96v0q-1 34 -23 57q-23 22 -57 23h-136v0q-28 0 -53 -13l-7 14v0l7 -14v0l-8 -5v0q-28 -15 -43 -41q-16 -26 -16 -57v-44v0l48 -36v0v60v0v16v0h32v0v-16v0v-80v0v-4v0v-8v0v-4v0v-24v0h64h16v-16v0v-176v0h48v0v192v0v16v0h16v0z" />
</svg>
