<?xml version="1.0" standalone="no"?>
<!DOCTYPE svg PUBLIC "-//W3C//DTD SVG 1.1//EN" "http://www.w3.org/Graphics/SVG/1.1/DTD/svg11.dtd" >
<svg xmlns="http://www.w3.org/2000/svg" xmlns:xlink="http://www.w3.org/1999/xlink" version="1.1" viewBox="-10 -40 532 512">
   <path fill="currentColor"
d="M32 185q2 -82 56 -136v0v0q54 -54 136 -56h24v0q68 2 113 47t47 113v7v0l5 5v0l67 59v0v41v0h-48h-16v16v0v96v0h-112h-16v16v0v64v0v16v0h32v0v-16v0v-48v0h112h16v-16v0v-96v0h48h16v-16v0v-64v0v-7v0l-5 -5v0l-67 -59v0q-5 -79 -59 -131q-53 -52 -133 -54h-24v0
q-63 1 -113 31q-51 29 -80 80q-30 50 -31 113q0 46 17 86t47 71v115v0v16v0h32v0v-16v0v-122v0v-7v0l-5 -4v0q-57 -55 -59 -139v0zM208 57h-16h16h-16v16v0v48v0h-48h-16v16v0v64v0v16v0h16h48v48v0v16v0h16h80v-16v0v-48v0h48h16v-16v0v-64v0v-16v0h-16h-48v-48v0v-16v0
h-16h-64zM224 137v-48v48v-48h32v0v48v0v16v0h16h48v32v0h-48h-16v16v0v48v0h-32v0v-48v0v-16v0h-16h-48v-32v0h48h16v-16v0z" />
</svg>
