<?xml version="1.0" standalone="no"?>
<!DOCTYPE svg PUBLIC "-//W3C//DTD SVG 1.1//EN" "http://www.w3.org/Graphics/SVG/1.1/DTD/svg11.dtd" >
<svg xmlns="http://www.w3.org/2000/svg" xmlns:xlink="http://www.w3.org/1999/xlink" version="1.1" viewBox="-10 -40 458 512">
   <path fill="currentColor"
d="M224 -39q-65 1 -109 43v0v0q-44 41 -51 105q-21 8 -34 26q-14 18 -14 42v56v0v16v0h16h400v-16v0v-56v0q0 -24 -14 -42q-13 -18 -34 -26q-7 -64 -51 -105q-44 -42 -109 -43v0zM96 121v0v0v0q1 -54 37 -91q37 -36 91 -37q54 1 91 37q36 37 37 91v1v0v13v0l14 2v0
q15 3 24 14q10 11 10 26v40v0h-16h-336v-40v0q0 -15 10 -26q9 -11 24 -14l14 -2v0v-13v0v-1v0zM205 443l19 30l-19 -30l19 30l19 -30v0l104 -162v0h-38v0l-85 133v0l-85 -133v0h-38v0l104 162v0z" />
</svg>
