<?xml version="1.0" standalone="no"?>
<!DOCTYPE svg PUBLIC "-//W3C//DTD SVG 1.1//EN" "http://www.w3.org/Graphics/SVG/1.1/DTD/svg11.dtd" >
<svg xmlns="http://www.w3.org/2000/svg" xmlns:xlink="http://www.w3.org/1999/xlink" version="1.1" viewBox="-10 -40 522 512">
   <path fill="currentColor"
d="M166 87q17 -17 34 -26l-16 -28v0q-17 9 -33 24h-84v0q7 -22 33 -42q26 -21 76 -22q34 0 57 11q23 10 35 25l8 8v0l10 -4v0q20 -8 50 -8q50 1 76 22q26 20 33 42h-184h-7l-5 5v0l-115 115v0q-11 -20 -7 -53t39 -69v0v0v0v0zM176 -39q-73 3 -109 39v0v0q-35 36 -35 73v16v0
h16h74q-32 48 -28 91t27 65l11 12v0l11 -12v0l95 -94v0q-1 4 -1 9q-1 2 -1 3q-6 63 -42 150h-34v0q-54 1 -91 37q-36 37 -37 91v32v0h32h352v-32v0q-1 -50 -32 -85t-79 -42q14 -48 17 -91t-1 -78q-1 -13 -3 -24h146h16v-16v0q0 -37 -35 -73q-36 -36 -109 -39q-28 0 -51 7
q-36 -36 -109 -39v0zM285 121q3 13 4 28q4 33 1 75t-18 89h-43v0q33 -84 39 -146q3 -27 4 -46h13v0zM160 345h128h-128h128q41 1 68 28t28 68h-320v0q1 -41 28 -68t68 -28v0z" />
</svg>
