<?xml version="1.0" standalone="no"?>
<!DOCTYPE svg PUBLIC "-//W3C//DTD SVG 1.1//EN" "http://www.w3.org/Graphics/SVG/1.1/DTD/svg11.dtd" >
<svg xmlns="http://www.w3.org/2000/svg" xmlns:xlink="http://www.w3.org/1999/xlink" version="1.1" viewBox="-10 -40 533 512">
   <path fill="currentColor"
d="M289 184q47 46 99 60q19 5 38 5l-17 17v0q-47 46 -113 47h-91v0l-45 -45v0v-91v0q1 -66 47 -113l17 -17v0q0 19 5 38q14 52 60 99v0zM465 202q-25 23 -69 11v0v0q-43 -11 -84 -51q-41 -42 -52 -85q-12 -44 11 -69q15 -14 39 -15q14 0 28 4q44 12 86 52q40 41 52 86
q3 14 4 27q-1 24 -15 40v0zM348 -34q-19 -5 -38 -5q-40 -2 -74 28l-52 52v0q-55 57 -56 136v98v0l-8 8v0q-20 -17 -48 -18q-31 1 -51 21t-21 51q1 29 19 48q18 20 45 24q4 27 24 45q19 18 48 19q31 -1 51 -21t21 -51q-1 -28 -18 -47l9 -9v0h97v0q79 -1 136 -56l52 -52v0
q30 -34 28 -75q0 -19 -5 -37q-14 -52 -60 -99q-47 -46 -99 -60v0zM173 326l-18 17l18 -17l-18 17l-13 14v0l16 11v0q17 11 18 33q0 17 -12 28q-11 12 -28 12t-28 -12q-12 -11 -12 -28v-8v0v-16v0h-16h-8q-17 0 -28 -12q-12 -11 -12 -28t12 -28q11 -12 28 -12q22 1 33 18
l11 16v0l14 -13v0l17 -18v0l26 26v0zM352 121q12 12 24 15v0v0q13 3 20 -3q6 -8 3 -20t-15 -24t-24 -15t-20 3q-6 7 -3 20q3 12 15 24v0z" />
</svg>
