<?xml version="1.0" standalone="no"?>
<!DOCTYPE svg PUBLIC "-//W3C//DTD SVG 1.1//EN" "http://www.w3.org/Graphics/SVG/1.1/DTD/svg11.dtd" >
<svg xmlns="http://www.w3.org/2000/svg" xmlns:xlink="http://www.w3.org/1999/xlink" version="1.1" viewBox="-10 -40 532 512">
   <path fill="currentColor"
d="M480 57v320v-320v320h-448v0v-320v0h448v0zM32 25h-32h32h-32v32v0v320v0v32v0h32h480v-32v0v-320v0v-32v0h-32h-448zM64 281v32v-32v32h16h80v-32v0h-16h-80zM192 281v32v-32v32h16h80v-32v0h-16h-80zM96 121h320h-320h320v96v0h-320v0v-96v0zM64 89v32v-32v32v96v0v32
v0h32h352v-32v0v-96v0v-32v0h-32h-352z" />
</svg>
