<?xml version="1.0" standalone="no"?>
<!DOCTYPE svg PUBLIC "-//W3C//DTD SVG 1.1//EN" "http://www.w3.org/Graphics/SVG/1.1/DTD/svg11.dtd" >
<svg xmlns="http://www.w3.org/2000/svg" xmlns:xlink="http://www.w3.org/1999/xlink" version="1.1" viewBox="-10 -40 532 512">
   <path fill="currentColor"
d="M9 438l-9 35l9 -35l-9 35l35 -9v0l477 -119v0q-1 -107 -52 -194q-52 -86 -138 -138q-87 -51 -194 -52l-119 477v0zM44 429l89 -355l-89 355l89 -355q72 5 130 42q58 36 94 94q37 58 42 130l-355 89v0zM141 42l12 -48l-12 48l12 -48q88 7 159 51q72 44 116 116
q44 71 51 159l-48 12v0q-8 -77 -47 -140q-40 -63 -103 -103q-63 -39 -140 -47v0zM176 225q22 -2 24 -24q-2 -22 -24 -24q-22 2 -24 24q2 22 24 24v0zM296 297q-2 -22 -24 -24q-22 2 -24 24q2 22 24 24q22 -2 24 -24v0zM144 353q22 -2 24 -24q-2 -22 -24 -24q-22 2 -24 24
q2 22 24 24v0z" />
</svg>
