<?xml version="1.0" standalone="no"?>
<!DOCTYPE svg PUBLIC "-//W3C//DTD SVG 1.1//EN" "http://www.w3.org/Graphics/SVG/1.1/DTD/svg11.dtd" >
<svg xmlns="http://www.w3.org/2000/svg" xmlns:xlink="http://www.w3.org/1999/xlink" version="1.1" viewBox="-10 -40 532 512">
   <path fill="currentColor"
d="M320 -39q-82 2 -136 56v0v0q-54 54 -56 136q1 54 26 97q26 44 70 69l10 6v0l9 -8v0l36 -36v0l9 -9v0l-7 -11v0q-17 -27 -17 -60q1 -48 33 -79q31 -32 79 -33q37 1 65 20q28 20 40 53l31 -5v0v-2v-2q-2 -82 -56 -136t-136 -56v0zM160 153q2 -68 47 -113v0v0
q45 -45 113 -47q50 1 89 27t58 69q-38 -31 -91 -32q-61 2 -102 42q-40 41 -42 102q0 36 16 66l-18 18v0q-32 -22 -51 -56q-19 -35 -19 -76v0zM104 250l-23 23l23 -23l-23 23l12 11v0l4 5v0l-84 85v0l-12 11v0l12 11v0l64 64v0l11 12v0l11 -12v0l85 -84v0l5 4v0l11 12v0
l23 -23v0l-12 -11v0l-4 -5v0l-12 -11v0l-64 -64v0l-11 -12v0l-5 -4v0l-11 -12v0zM120 312l41 41l-41 -41l41 41l-73 73v0l-41 -41v0l73 -73v0z" />
</svg>
