<?xml version="1.0" standalone="no"?>
<!DOCTYPE svg PUBLIC "-//W3C//DTD SVG 1.1//EN" "http://www.w3.org/Graphics/SVG/1.1/DTD/svg11.dtd" >
<svg xmlns="http://www.w3.org/2000/svg" xmlns:xlink="http://www.w3.org/1999/xlink" version="1.1" viewBox="-10 -40 660 512">
   <path fill="currentColor"
d="M36 30l-11 -12l11 12l-11 -12l-24 22v0l11 12v0l152 160v0l5 5v0h7h464v-32v0h-16h-96v0v0h-320v0v0v0h-25v0l-147 -155v0zM224 409q0 -14 9 -23v0v0q9 -9 23 -9t23 9t9 23t-9 23t-23 9t-23 -9t-9 -23v0zM320 409q0 -13 -5 -25l53 -40v0l53 40v0q-5 12 -5 25q1 27 19 45
t45 19q27 -1 45 -19t19 -45q-1 -27 -19 -45t-45 -19q-23 0 -39 14l-47 -36v0l98 -74v0h-53v0l-71 54v0l-71 -54v0h-53v0l98 74v0l-47 36v0q-16 -14 -39 -14q-27 1 -45 19t-19 45q1 27 19 45t45 19q27 -1 45 -19t19 -45v0zM480 377q14 0 23 9v0v0q9 9 9 23t-9 23t-23 9
t-23 -9t-9 -23t9 -23t23 -9v0z" />
</svg>
