<?xml version="1.0" standalone="no"?>
<!DOCTYPE svg PUBLIC "-//W3C//DTD SVG 1.1//EN" "http://www.w3.org/Graphics/SVG/1.1/DTD/svg11.dtd" >
<svg xmlns="http://www.w3.org/2000/svg" xmlns:xlink="http://www.w3.org/1999/xlink" version="1.1" viewBox="-10 -40 468 512">
   <path fill="currentColor"
d="M384 -39q27 1 45 19v0v0q18 18 19 45v384v0v0v0q-1 27 -19 45t-45 19h-368h-16v-32v0h16h16v-64v0h-16h-16v-16v0v-384v0v-16v0h16h368zM64 377v64v-64v64h320v0q14 0 23 -9t9 -23t-9 -23t-23 -9h-320v0zM384 345q18 0 32 9v-329v0q0 -14 -9 -23t-23 -9h-352v0v352v0h352
v0zM216 25l14 24l-14 -24l14 24l28 48v0h55h28l-14 24v0l-28 48v0l28 48v0l14 24v0h-28h-55l-28 48v0l-14 24v0l-14 -24v0l-28 -48v0h-55h-28l14 -24v0l28 -48v0l-28 -48v0l-14 -24v0h28h55l28 -48v0l14 -24v0zM244 121h-56h56h-56l-27 48v0l27 48v0h56v0l27 -48v0l-27 -48
v0zM230 97l-14 -24l14 24l-14 -24l-14 24v0h28v0zM285 145l14 -24l-14 24l14 -24h-28v0l14 24v0zM285 193l-14 24l14 -24l-14 24h28v0l-14 -24v0zM230 241h-28h28h-28l14 24v0l14 -24v0zM161 217l-14 -24l14 24l-14 -24l-14 24v0h27h1zM147 145l14 -24l-14 24l14 -24h-28v0
l14 24v0z" />
</svg>
