<?xml version="1.0" standalone="no"?>
<!DOCTYPE svg PUBLIC "-//W3C//DTD SVG 1.1//EN" "http://www.w3.org/Graphics/SVG/1.1/DTD/svg11.dtd" >
<svg xmlns="http://www.w3.org/2000/svg" xmlns:xlink="http://www.w3.org/1999/xlink" version="1.1" viewBox="-10 -40 532 512">
   <path fill="currentColor"
d="M480 57v96v-96v96h-160v0v-96v0h160v0zM32 57h256h-256h256v96v0h-256v0v-96v0zM32 25h-32h32h-32v32v0v96v0v32v0h32h480v-32v0v-96v0v-32v0h-32h-448zM480 281v96v-96v96h-288v0v-96v0h288v0zM32 281h128h-128h128v96v0h-128v0v-96v0zM32 249h-32h32h-32v32v0v96v0v32
v0h32h480v-32v0v-96v0v-32v0h-32h-448z" />
</svg>
