<?xml version="1.0" standalone="no"?>
<!DOCTYPE svg PUBLIC "-//W3C//DTD SVG 1.1//EN" "http://www.w3.org/Graphics/SVG/1.1/DTD/svg11.dtd" >
<svg xmlns="http://www.w3.org/2000/svg" xmlns:xlink="http://www.w3.org/1999/xlink" version="1.1" viewBox="-10 -40 468 512">
   <path fill="currentColor"
d="M115 -39h13h-13h285v16v0v370v0q21 6 34 22q14 17 14 40q-1 27 -19 45t-45 19q-27 -1 -45 -19t-19 -45q0 -23 14 -40q13 -16 34 -22v-162v0h-269v0l-59 267v0l-4 16v0l-31 -7v0l3 -15v0l104 -472v0l3 -13v0zM106 153h262h-262h262v-160v0h-227v0l-35 160v0zM352 409
q0 14 9 23v0v0q9 9 23 9t23 -9t9 -23t-9 -23t-23 -9t-23 9t-9 23v0z" />
</svg>
