<?xml version="1.0" standalone="no"?>
<!DOCTYPE svg PUBLIC "-//W3C//DTD SVG 1.1//EN" "http://www.w3.org/Graphics/SVG/1.1/DTD/svg11.dtd" >
<svg xmlns="http://www.w3.org/2000/svg" xmlns:xlink="http://www.w3.org/1999/xlink" version="1.1" viewBox="-10 -40 596 512">
   <path fill="currentColor"
d="M160 57q1 -27 19 -45v0v0q18 -18 45 -19q27 1 45 19t19 45v64v0h-128v0v-64v0zM128 121h-96h96h-128v32v0v256v0v32v0h32h128v-32v0h-128v0v-256v0h384v0v32v0h32v0v-32v0v-32v0h-32h-96v-64v0q-1 -41 -28 -68t-68 -28q-41 1 -68 28t-28 68v64v0zM224 249h320h-320h320
v192v0h-320v0v-192v0zM192 217v32v-32v32v192v0v32v0h32h352v-32v0v-192v0v-32v0h-32h-352zM320 297v-16v16v-16h-32v0v16v0v16v0q1 41 28 68t68 28q41 -1 68 -28t28 -68v-16v0v-16v0h-32v0v16v0v16v0q-1 27 -19 45t-45 19q-27 -1 -45 -19t-19 -45v-16v0z" />
</svg>
