<?xml version="1.0" standalone="no"?>
<!DOCTYPE svg PUBLIC "-//W3C//DTD SVG 1.1//EN" "http://www.w3.org/Graphics/SVG/1.1/DTD/svg11.dtd" >
<svg xmlns="http://www.w3.org/2000/svg" xmlns:xlink="http://www.w3.org/1999/xlink" version="1.1" viewBox="-10 -40 660 512">
   <path fill="currentColor"
d="M392 41q22 -2 24 -24q-2 -22 -24 -24q-22 2 -24 24q2 22 24 24v0zM392 -39q32 1 48 28q16 28 0 56q-16 27 -48 28q-32 -1 -48 -28q-16 -28 0 -56q16 -27 48 -28v0zM320 76l11 9l-11 -9l11 9l75 68v0h74h16v32v0h-16h-86l-5 -4v0l-69 -63v0l-70 60v0q-12 13 1 25l94 65v0
l7 5v0v8v0v96v0v16v0h-32v0v-16v0v-88v0l-87 -59v0q-19 -15 -21 -37q-1 -23 17 -39l81 -69v0l10 -9v0zM263 42l24 22l-24 -22l24 22l-24 22v0l-95 86v0l-49 -51v0l-22 -23v0l25 -21v0l62 -52v0h61v0l18 17v0zM232 57h-36h36h-36l-52 43v0l25 27v0l70 -63v0l-7 -7v0zM421 435
q-36 -36 -37 -90q1 -54 37 -91q37 -36 91 -37q54 1 91 37q36 37 37 91q-1 54 -37 90l-1 1v0q-36 36 -90 37q-54 -1 -90 -37l-1 -1v0zM430 291l4 3l-4 -3l4 3l7 8v0l-4 10v0q-1 2 -1 3l-4 11v0h-11h-5v39v0h5h11l4 10v0q0 1 1 3l4 10v0l-7 8v0l-4 3v0l28 28v0l3 -4v0l8 -7v0
l10 4v0q2 1 3 1l11 4v0v11v0v5v0h38v0v-5v0v-11v0l11 -4v0q1 0 3 -1l10 -4v0l8 7v0l3 4v0l28 -28v0l-4 -3v0l-7 -8v0l4 -10v0q1 -1 1 -3l4 -10v0h11h5v-39v0h-5h-11l-4 -11v0q0 -1 -1 -3l-4 -10v0l7 -8v0l4 -3v0l-28 -28v0l-3 4v0l-8 7v0l-10 -4v0q-1 -1 -3 -1l-10 -4v0v-11
v0v-5v0h-39v0v5v0v11v0l-11 4v0q-1 0 -3 1l-10 4v0l-8 -7v0l-3 -4v0l-28 28v0zM493 345q2 17 19 19q17 -2 19 -19q-2 -17 -19 -19q-17 2 -19 19v0zM512 396q-29 -1 -44 -25q-14 -26 0 -51q15 -25 44 -26q29 1 44 26q14 25 0 51q-15 24 -44 25v0zM0 345q1 -54 37 -91v0v0
q37 -36 91 -37q54 1 91 37q36 37 37 91q-1 54 -37 90v1v0q-37 36 -91 37q-54 -1 -90 -37l-1 -1v0q-36 -36 -37 -90v0zM74 263l-28 28l28 -28l-28 28l4 3v0l8 8v0l-5 10v0q-1 2 -1 3l-4 11v0h-11h-5v38v0h5h11l4 11v0q0 1 1 3l4 10v0l-7 8v0l-4 3v0l28 28v0l3 -4v0l8 -7v0
l10 4v0q2 1 3 1l11 4v0v11v0v5v0h38v0v-5v0v-11v0l11 -4v0q1 0 3 -1l10 -4v0l8 7v0l3 4v0l28 -28v0l-4 -3v0l-7 -8v0l4 -10v0q1 -1 1 -3l4 -10v0h11h5v-39v0h-5h-11l-4 -11v0q0 -1 -1 -3l-4 -10v0l7 -8v0l4 -3v0l-28 -28v0l-3 4v0l-8 7v0l-10 -4v0q-2 -1 -3 -1l-10 -4v0v-11
v0v-5v0h-39v0v5v0v11v0l-11 4v0q-1 0 -3 1l-10 4v0l-8 -7v0l-3 -4v0zM128 326q-17 2 -19 19q2 17 19 19q17 -2 19 -19q-2 -17 -19 -19v0zM179 345q-1 29 -25 44q-26 14 -51 0q-25 -15 -26 -44q1 -29 26 -44q25 -14 51 0q24 15 25 44v0z" />
</svg>
