<?xml version="1.0" standalone="no"?>
<!DOCTYPE svg PUBLIC "-//W3C//DTD SVG 1.1//EN" "http://www.w3.org/Graphics/SVG/1.1/DTD/svg11.dtd" >
<svg xmlns="http://www.w3.org/2000/svg" xmlns:xlink="http://www.w3.org/1999/xlink" version="1.1" viewBox="-10 -40 468 512">
   <path fill="currentColor"
d="M208 201v-192v192v-192v-16v0h32v0v16v0v192v0h192h16v32v0h-16h-192v192v0v16v0h-32v0v-16v0v-192v0h-192h-16v-32v0h16h192zM8 433v-48v48v-48h48v0v48v0h-48v0zM392 433v-48v48v-48h48v0v48v0h-48v0zM8 337v-48v48v-48h48v0v48v0h-48v0zM392 337v-48v48v-48h48v0v48v0
h-48v0zM440 145h-48h48h-48v-48v0h48v0v48v0zM8 145v-48v48v-48h48v0v48v0h-48v0zM440 49h-48h48h-48v-48v0h48v0v48v0zM56 49h-48h48h-48v-48v0h48v0v48v0zM344 49h-48h48h-48v-48v0h48v0v48v0zM296 433v-48v48v-48h48v0v48v0h-48v0zM152 49h-48h48h-48v-48v0h48v0v48v0z
M104 433v-48v48v-48h48v0v48v0h-48v0z" />
</svg>
