<?xml version="1.0" standalone="no"?>
<!DOCTYPE svg PUBLIC "-//W3C//DTD SVG 1.1//EN" "http://www.w3.org/Graphics/SVG/1.1/DTD/svg11.dtd" >
<svg xmlns="http://www.w3.org/2000/svg" xmlns:xlink="http://www.w3.org/1999/xlink" version="1.1" viewBox="-10 -40 468 512">
   <path fill="currentColor"
d="M0 -7h448h-448h448v32v0h-448v0v-32v0zM8 97h48h-48h48v48v0h-48v0v-48v0zM440 97v48v-48v48h-48v0v-48v0h48v0zM200 97h48h-48h48v48v0h-48v0v-48v0zM56 289v48v-48v48h-48v0v-48v0h48v0zM392 289h48h-48h48v48v0h-48v0v-48v0zM248 289v48v-48v48h-48v0v-48v0h48v0z
M8 193h48h-48h48v48v0h-48v0v-48v0zM440 193v48v-48v48h-48v0v-48v0h48v0zM200 193h48h-48h48v48v0h-48v0v-48v0zM56 385v48v-48v48h-48v0v-48v0h48v0zM392 385h48h-48h48v48v0h-48v0v-48v0zM248 385v48v-48v48h-48v0v-48v0h48v0zM104 193h48h-48h48v48v0h-48v0v-48v0z
M152 385v48v-48v48h-48v0v-48v0h48v0zM296 385h48h-48h48v48v0h-48v0v-48v0zM344 193v48v-48v48h-48v0v-48v0h48v0z" />
</svg>
