<?xml version="1.0" standalone="no"?>
<!DOCTYPE svg PUBLIC "-//W3C//DTD SVG 1.1//EN" "http://www.w3.org/Graphics/SVG/1.1/DTD/svg11.dtd" >
<svg xmlns="http://www.w3.org/2000/svg" xmlns:xlink="http://www.w3.org/1999/xlink" version="1.1" viewBox="-10 -40 596 512">
   <path fill="currentColor"
d="M224 25q0 14 9 23v0v0q9 9 23 9t23 -9t9 -23t-9 -23t-23 -9t-23 9t-9 23v0zM256 89q-36 -1 -55 -32q-18 -32 0 -64q19 -31 55 -32q36 1 55 32q18 32 0 64q-19 31 -55 32v0zM139 69l12 6l-12 -6l12 6l96 48v0l6 3v0l2 6v0l54 154v0l79 43v0l40 -53v0l20 -27v0l20 27v0
l108 149v0v16v0v32v0h-32h-288l11 -32v0l21 -64v0h64v0l17 -22v0l-345 -188v0l-14 -8v0l16 -28v0l14 8v0l35 19v0l56 -78v0l8 -11v0zM227 148l-78 -39l78 39l-78 -39l-46 65v0l164 89v0l-40 -115v0zM448 303l-70 93l70 -93l-70 93l-10 13v0h-16h-41l-11 32v0h244v0v-6v0
l-96 -132v0zM53 241l19 10l-19 -10l19 10l144 80v0l8 5v0v9v0v112v0v16v0h-32v0v-16v0v-103v0l-117 -65v0l-41 184v0h-33v0l47 -211v0l5 -21v0z" />
</svg>
