<?xml version="1.0" standalone="no"?>
<!DOCTYPE svg PUBLIC "-//W3C//DTD SVG 1.1//EN" "http://www.w3.org/Graphics/SVG/1.1/DTD/svg11.dtd" >
<svg xmlns="http://www.w3.org/2000/svg" xmlns:xlink="http://www.w3.org/1999/xlink" version="1.1" viewBox="-10 -40 468 512">
   <path fill="currentColor"
d="M416 -7v448v-448v448h-384v0v-448v0h384v0zM32 -39h-32h32h-32v32v0v448v0v32v0h32h416v-32v0v-448v0v-32v0h-32h-384zM128 57q-2 -22 -24 -24q-22 2 -24 24q2 22 24 24q22 -2 24 -24v0zM184 81q22 -2 24 -24q-2 -22 -24 -24q-22 2 -24 24q2 22 24 24v0zM224 377
q-43 -1 -74 -28v0v0q-30 -26 -37 -68h63h16v-32v0h-16h-63q7 -42 37 -68q31 -27 74 -28q48 1 79 33q32 31 33 79q-1 48 -33 79q-31 32 -79 33v0zM224 409q39 0 72 -19v0v0q33 -19 53 -53q19 -34 19 -72t-19 -72q-20 -34 -53 -53t-72 -19t-72 19t-53 53q-19 34 -19 72t19 72
q20 34 53 53t72 19v0z" />
</svg>
