<?xml version="1.0" standalone="no"?>
<!DOCTYPE svg PUBLIC "-//W3C//DTD SVG 1.1//EN" "http://www.w3.org/Graphics/SVG/1.1/DTD/svg11.dtd" >
<svg xmlns="http://www.w3.org/2000/svg" xmlns:xlink="http://www.w3.org/1999/xlink" version="1.1" viewBox="-10 -40 596 512">
   <path fill="currentColor"
d="M32 441v-288v288v-288h124v0l17 -32v0h-141v0v-48v0q1 -34 23 -57q23 -22 57 -23q34 1 57 23q22 23 23 57v12v0l6 -11v0l7 -14v0l16 -7v0l1 -1v0q-8 -39 -38 -65q-30 -25 -72 -26q-48 1 -79 33q-32 31 -33 79v368v0v32v0h32h96v-16v0v-16v0h-96v0zM374 26l-6 -2l6 2
l-6 -2l-6 2v0l-128 56v0l-5 3v0l-3 4v0l-64 120v0l-2 4v0v4v0v240v0v16v0h16h400v-16v0v-240v0v-4v0l-2 -3v0l-64 -120v0l-3 -5v0l-5 -3v0l-128 -56v0zM192 221l60 -112l-60 112l60 -112l116 -50v0l117 51v0l59 111v0v220v0h-96v0v-96v0v-16v0h-16h-144v16v0v96v0h-96v0
v-220v0zM416 441h-96h96h-96v-80v0h96v0v80v0zM336 153h-32h32h-32v32v0v64v0v32v0h32h96v-32v0v-64v0v-32v0h-32h-64zM400 185v64v-64v64h-64v0v-64v0h64v0z" />
</svg>
