<?xml version="1.0" standalone="no"?>
<!DOCTYPE svg PUBLIC "-//W3C//DTD SVG 1.1//EN" "http://www.w3.org/Graphics/SVG/1.1/DTD/svg11.dtd" >
<svg xmlns="http://www.w3.org/2000/svg" xmlns:xlink="http://www.w3.org/1999/xlink" version="1.1" viewBox="-10 -40 404 512">
   <path fill="currentColor"
d="M352 441h-320h320h-320v-448v0h160v0v144v0v16v0h16h144v288v0zM224 -2l123 123l-123 -123l123 123h-123v0v-123v0zM232 -39h-200h200h-232v32v0v448v0v32v0h32h352v-32v0v-328v0l-152 -152v0zM176 217q36 1 55 32q18 32 0 64q-19 31 -55 32q-36 -1 -55 -32
q-18 -32 0 -64q19 -31 55 -32v0zM176 377q32 0 56 -18l45 45v0l11 12v0l23 -23v0l-12 -11v0l-45 -45v0q17 -24 18 -56q-1 -41 -28 -68t-68 -28q-41 1 -68 28t-28 68q1 41 28 68t68 28v0z" />
</svg>
