<?xml version="1.0" standalone="no"?>
<!DOCTYPE svg PUBLIC "-//W3C//DTD SVG 1.1//EN" "http://www.w3.org/Graphics/SVG/1.1/DTD/svg11.dtd" >
<svg xmlns="http://www.w3.org/2000/svg" xmlns:xlink="http://www.w3.org/1999/xlink" version="1.1" viewBox="-10 -40 532 512">
   <path fill="currentColor"
d="M73 -39q31 0 53 22l2 2v0l3 -2v0q21 -22 52 -22q31 1 51 21q21 21 22 52q0 31 -23 53l-105 98v0l-105 -98v0q-22 -22 -23 -53q1 -31 22 -52q20 -20 51 -21v0zM211 63q13 -12 13 -29t-12 -29t-29 -12q-18 0 -30 12l-2 3v0l-23 22v0l-23 -22v0l-2 -3v0l21 -21v0l-21 21v0
q-12 -12 -30 -12q-17 0 -29 12t-12 29t13 29l83 78v0l83 -78v0zM512 -34v19v-19v19v144v0v0v0v4q-1 22 -19 37q-18 14 -45 15q-27 -1 -45 -15q-18 -15 -19 -37q1 -22 19 -37q18 -14 45 -15q18 0 32 7v-83v0l-128 25v0v131v0v0v0v4q-1 22 -19 37q-18 14 -45 15
q-27 -1 -45 -15q-18 -15 -19 -37q1 -22 19 -37q18 -14 45 -15q18 0 32 7v-103v0v-13v0l13 -3v0l160 -32v0l19 -3v0zM480 133q1 -5 -7 -12t-25 -8q-16 1 -25 8q-8 7 -7 12q-1 5 7 12t25 8q16 -1 25 -8q8 -7 7 -12v0zM320 165q1 -5 -7 -12t-25 -8q-16 1 -25 8q-8 7 -7 12
q-1 5 7 12t25 8q16 -1 25 -8q8 -7 7 -12v0zM200 217l16 32l-16 -32l16 32h40h32v32v0v160v0v32v0h-32h-256v-32v0v-160v0v-32v0h32h40l16 -32v0h112v0zM216 281h-20h20h-20l-9 -18v0l-7 -14v0h-72v0l-7 14v0l-9 18v0h-20h-40v160v0h224v0v-160v0h-40v0zM144 321q-14 0 -23 9
v0v0q-9 9 -9 23t9 23t23 9t23 -9t9 -23t-9 -23t-23 -9v0zM144 417q-36 -1 -55 -32q-18 -32 0 -64q19 -31 55 -32q36 1 55 32q18 32 0 64q-19 31 -55 32v0zM452 222l24 22l-24 -22l24 22l-79 85v0h75h37l-25 27v0l-104 112v0l-24 -22v0l79 -85v0h-75h-37l25 -27v0l104 -112v0
z" />
</svg>
