<?xml version="1.0" standalone="no"?>
<!DOCTYPE svg PUBLIC "-//W3C//DTD SVG 1.1//EN" "http://www.w3.org/Graphics/SVG/1.1/DTD/svg11.dtd" >
<svg xmlns="http://www.w3.org/2000/svg" xmlns:xlink="http://www.w3.org/1999/xlink" version="1.1" viewBox="-10 -40 596 512">
   <path fill="currentColor"
d="M107 6l-11 -12l11 12l-11 -12l-11 12v0l-72 72v0l-12 11v0l23 23v0l11 -12v0l45 -44v0v322v0l-45 -44v0l-11 -12v0l-23 23v0l12 11v0l72 72v0l11 12v0l11 -12v0l72 -72v0l12 -11v0l-23 -23v0l-11 12v0l-45 44v0v-322v0l45 44v0l11 12v0l23 -23v0l-12 -11v0l-72 -72v0z
M272 41h-16h16h-16v32v0h16h304v-32v0h-16h-288zM272 201h-16h16h-16v32v0h16h304v-32v0h-16h-288zM256 361v32v-32v32h16h304v-32v0h-16h-304z" />
</svg>
