<?xml version="1.0" standalone="no"?>
<!DOCTYPE svg PUBLIC "-//W3C//DTD SVG 1.1//EN" "http://www.w3.org/Graphics/SVG/1.1/DTD/svg11.dtd" >
<svg xmlns="http://www.w3.org/2000/svg" xmlns:xlink="http://www.w3.org/1999/xlink" version="1.1" viewBox="-10 -40 652 512">
   <path fill="currentColor"
d="M40 -21l-12 -10l12 10l-12 -10l-20 25v0l13 10v0l579 451v0l12 10v0l20 -25v0l-12 -10v0l-580 -451v0zM352 161l38 -136l-38 136l38 -136h150v0l-16 64v0h33v0l19 -76v0l5 -20v0h-21h-420l40 32v0h177v0l-32 115v0l27 21v0zM315 295l-27 -22l27 22l-27 -22l-38 136v0h-74
h-16v32v0h16h176v-32v0h-16h-53l32 -114v0z" />
</svg>
