<?xml version="1.0" standalone="no"?>
<!DOCTYPE svg PUBLIC "-//W3C//DTD SVG 1.1//EN" "http://www.w3.org/Graphics/SVG/1.1/DTD/svg11.dtd" >
<svg xmlns="http://www.w3.org/2000/svg" xmlns:xlink="http://www.w3.org/1999/xlink" version="1.1" viewBox="-10 -40 468 512">
   <path fill="currentColor"
d="M160 -39h16h-16h160v16v0v8v0v7v0l-5 5v0l-106 92v0h95h16v32v0h-16h-144v-16v0v-8v0v-7v0l6 -5v0l105 -92v0h-95h-16v-32v0zM0 185h16h-16h224v16v0v8v0v6v0l-3 4v0l-178 222v0h165h16v32v0h-16h-208v-16v0v-8v0v-6v0l4 -4v0l177 -222v0h-165h-16v-32v0zM304 185h128
h-128h144v16v0v8v0v6v0l-4 5v0l-111 125v0h99h16v32v0h-16h-144v-16v0v-8v0v-6v0l4 -5v0l112 -125v0h-100h-16v-32v0h16v0z" />
</svg>
