<?xml version="1.0" standalone="no"?>
<!DOCTYPE svg PUBLIC "-//W3C//DTD SVG 1.1//EN" "http://www.w3.org/Graphics/SVG/1.1/DTD/svg11.dtd" >
<svg xmlns="http://www.w3.org/2000/svg" xmlns:xlink="http://www.w3.org/1999/xlink" version="1.1" viewBox="-10 -40 586 512">
   <path fill="currentColor"
d="M160 440l11 -12l-11 12l11 -12l88 -88v0l12 -11v0l-23 -23v0l-11 12v0l-61 60v0v-369v0v-16v0h-32v0v16v0v369v0l-61 -60v0l-11 -12v0l-23 23v0l12 11v0l88 88v0l11 12v0zM336 -7v32v-32v32h16h100l-112 125v0l-4 5v0v6v0v8v0v16v0h16h144v-32v0h-16h-99l111 -125v0l4 -5
v0v-6v0v-8v0v-16v0h-16h-144zM401 259l-80 180l80 -180l-80 180l-1 2v0h35v0l15 -32v0h93v0l14 32v0h35v0l-1 -2v0l-80 -180v0l-5 -10v0h-20v0l-5 10v0zM416 304l32 73l-32 -73l32 73h-64v0l32 -73v0z" />
</svg>
