<?xml version="1.0" standalone="no"?>
<!DOCTYPE svg PUBLIC "-//W3C//DTD SVG 1.1//EN" "http://www.w3.org/Graphics/SVG/1.1/DTD/svg11.dtd" >
<svg xmlns="http://www.w3.org/2000/svg" xmlns:xlink="http://www.w3.org/1999/xlink" version="1.1" viewBox="-10 -40 596 512">
   <path fill="currentColor"
d="M139 6l-11 -12l11 12l-11 -12l-11 12v0l-88 88v0l-12 11v0l23 23v0l11 -12v0l61 -60v0v369v0v16v0h32v0v-16v0v-369v0l61 60v0l11 12v0l23 -23v0l-12 -11v0l-88 -88v0zM304 9h-16h16h-16v32v0h16h80v-32v0h-16h-64zM304 137h-16h16h-16v32v0h16h144v-32v0h-16h-128z
M304 265h-16h16h-16v32v0h16h208v-32v0h-16h-192zM304 393h-16h16h-16v32v0h16h272v-32v0h-16h-256z" />
</svg>
