<?xml version="1.0" standalone="no"?>
<!DOCTYPE svg PUBLIC "-//W3C//DTD SVG 1.1//EN" "http://www.w3.org/Graphics/SVG/1.1/DTD/svg11.dtd" >
<svg xmlns="http://www.w3.org/2000/svg" xmlns:xlink="http://www.w3.org/1999/xlink" version="1.1" viewBox="-10 -40 586 512">
   <path fill="currentColor"
d="M296 185l20 -32l-20 32l20 -32l81 -130v0l19 -30v0l19 30v0l81 130v0l20 32v0h-38h-202zM478 153l-62 -100l62 100l-62 -100l-62 100v0h124v0zM160 -6l11 12l-11 -12l11 12l88 88v0l12 11v0l-23 23v0l-11 -12v0l-61 -60v0v369v0v16v0h-32v0v-16v0v-369v0l-61 60v0l-11 12
v0l-23 -23v0l12 -11v0l88 -88v0l11 -12v0zM352 409h128h-128h128v-128v0h-128v0v128v0zM320 249h32h-32h192v32v0v128v0v32v0h-32h-160v-32v0v-128v0v-32v0z" />
</svg>
