<?xml version="1.0" standalone="no"?>
<!DOCTYPE svg PUBLIC "-//W3C//DTD SVG 1.1//EN" "http://www.w3.org/Graphics/SVG/1.1/DTD/svg11.dtd" >
<svg xmlns="http://www.w3.org/2000/svg" xmlns:xlink="http://www.w3.org/1999/xlink" version="1.1" viewBox="-10 -40 586 512">
   <path fill="currentColor"
d="M160 440l11 -12l-11 12l11 -12l88 -88v0l12 -11v0l-23 -23v0l-11 12v0l-61 60v0v-369v0v-16v0h-32v0v16v0v369v0l-61 -60v0l-11 -12v0l-23 23v0l12 11v0l88 88v0l11 12v0zM352 153h96h-96h128v-32v0v-96v0v-32v0h-32h-128v32v0v96v0v32v0h32v0zM448 121h-96h96h-96v-96v0
h96v0v96v0zM320 441h32h-32h224v-32v0v-160v0v-32v0h-32h-192v32v0v160v0v32v0zM352 249h160h-160h160v160v0h-160v0v-160v0z" />
</svg>
