<?xml version="1.0" standalone="no"?>
<!DOCTYPE svg PUBLIC "-//W3C//DTD SVG 1.1//EN" "http://www.w3.org/Graphics/SVG/1.1/DTD/svg11.dtd" >
<svg xmlns="http://www.w3.org/2000/svg" xmlns:xlink="http://www.w3.org/1999/xlink" version="1.1" viewBox="-10 -40 660 512">
   <path fill="currentColor"
d="M16 -7h-16h16h-16v16v0v80v0v16v0h32v0v-16v0v-64v0h144v0v384v0h-64h-16v32v0h16h176v-32v0h-16h-64v-384v0h144v0v64v0v16v0h32v0v-16v0v-80v0v-16v0h-16h-352zM336 185h-16h16h-16v16v0v48v0v16v0h32v0v-16v0v-32v0h112v0v192v0h-48h-16v32v0h16h144v-32v0h-16h-48
v-192v0h112v0v32v0v16v0h32v0v-16v0v-48v0v-16v0h-16h-288z" />
</svg>
