<?xml version="1.0" standalone="no"?>
<!DOCTYPE svg PUBLIC "-//W3C//DTD SVG 1.1//EN" "http://www.w3.org/Graphics/SVG/1.1/DTD/svg11.dtd" >
<svg xmlns="http://www.w3.org/2000/svg" xmlns:xlink="http://www.w3.org/1999/xlink" version="1.1" viewBox="-10 -40 468 512">
   <path fill="currentColor"
d="M432 201h-416h416h-432v32v0h16h432v-32v0h-16v0zM8 49h48h-48h48v-48v0h-48v0v48v0zM8 433h48h-48h48v-48v0h-48v0v48v0zM104 49h48h-48h48v-48v0h-48v0v48v0zM104 433h48h-48h48v-48v0h-48v0v48v0zM296 385v48v-48v48h48v0v-48v0h-48v0zM296 49h48h-48h48v-48v0h-48v0
v48v0zM200 385v48v-48v48h48v0v-48v0h-48v0zM200 49h48h-48h48v-48v0h-48v0v48v0zM392 385v48v-48v48h48v0v-48v0h-48v0zM392 1v48v-48v48h48v0v-48v0h-48v0zM200 289v48v-48v48h48v0v-48v0h-48v0zM392 337h48h-48h48v-48v0h-48v0v48v0zM8 289v48v-48v48h48v0v-48v0h-48v0z
M392 145h48h-48h48v-48v0h-48v0v48v0zM8 97v48v-48v48h48v0v-48v0h-48v0zM200 145h48h-48h48v-48v0h-48v0v48v0z" />
</svg>
