<?xml version="1.0" standalone="no"?>
<!DOCTYPE svg PUBLIC "-//W3C//DTD SVG 1.1//EN" "http://www.w3.org/Graphics/SVG/1.1/DTD/svg11.dtd" >
<svg xmlns="http://www.w3.org/2000/svg" xmlns:xlink="http://www.w3.org/1999/xlink" version="1.1" viewBox="-10 -40 468 512">
   <path fill="currentColor"
d="M249 45l-13 17l13 -17l-13 17l11 18v0l19 33v0l9 15v0l19 1v0h35h18l9 -16v0q4 -7 12 -12q12 -6 24 -3q13 3 20 15q6 12 3 24q-3 13 -15 20q-9 5 -19 4l-21 -2v0l-11 18v0l-13 24v0l-10 16v0l9 16v0l14 24v0l11 19v0l20 -3v0q11 -1 20 4q12 7 15 20q3 12 -3 24
q-8 12 -20 15t-24 -3q-8 -5 -12 -12l-9 -16v0h-18v0l-36 1v0h-18v0l-9 15v0l-19 33v0l-11 18v0l13 17v0q7 9 7 20q0 14 -9 23t-23 9t-23 -9t-9 -23q0 -11 7 -20l13 -17v0l-11 -18v0l-19 -33v0l-9 -15v0h-18v0l-36 -1v0h-18v0l-9 16v0q-4 7 -12 12l16 27v0l-16 -27v0
q-12 6 -24 3q-13 -3 -20 -15q-6 -12 -3 -24q3 -13 15 -20q9 -5 19 -4l21 2v0l11 -18v0l14 -24v0l9 -16v0l-9 -16v0l-14 -24v0l-11 -18v0l-21 2v0q-10 1 -19 -4q-12 -7 -15 -20q-3 -12 3 -24q7 -11 20 -15q12 -3 24 3q8 5 12 12l9 16v0h18h36l18 -1v0l9 -15v0l19 -33v0
l11 -18v0l-13 -17v0q-7 -9 -7 -20q0 -14 9 -23t23 -9t23 9t9 23q0 11 -7 20v0zM9 337q14 23 38 30v0v0q25 6 49 -7q15 -8 23 -23l35 1v0l19 32v0q-13 17 -13 39q1 27 19 45t45 19q27 -1 45 -19t19 -45q0 -22 -13 -39l19 -32v0h35v0q8 14 23 23q24 13 49 6q24 -7 38 -30
q13 -24 7 -48q-7 -25 -30 -39q-19 -11 -39 -8l-14 -25v0l14 -24v0q20 2 39 -9q23 -14 30 -38q6 -25 -7 -49q-14 -23 -38 -30q-25 -6 -49 7q-15 8 -23 23h-35v0l-19 -33v0q13 -17 13 -39q-1 -27 -19 -45t-45 -19q-27 1 -45 19t-19 45q0 22 13 39l-19 32v0l-35 1v0
q-8 -15 -23 -23q-24 -13 -49 -7q-24 7 -38 30q-13 24 -7 49q7 24 30 38q19 11 39 9l14 24v0l-14 24v0q-20 -2 -39 9q-23 14 -30 38q-6 25 7 49v0zM235 150l-11 -12l11 12l-11 -12l-11 12v0l-56 56v0l-12 11v0l12 11v0l56 56v0l11 12v0l11 -12v0l56 -56v0l12 -11v0l-12 -11v0
l-56 -56v0zM224 250l-33 -33l33 33l-33 -33l33 -33v0l33 33v0l-33 33v0z" />
</svg>
