<?xml version="1.0" standalone="no"?>
<!DOCTYPE svg PUBLIC "-//W3C//DTD SVG 1.1//EN" "http://www.w3.org/Graphics/SVG/1.1/DTD/svg11.dtd" >
<svg xmlns="http://www.w3.org/2000/svg" xmlns:xlink="http://www.w3.org/1999/xlink" version="1.1" viewBox="-10 -40 596 512">
   <path fill="currentColor"
d="M32 121h512h-512h512v288v0h-512v0v-288v0zM32 89v-64v64v-64h512v0v64v0h-512v0zM576 105v-16v16v-16v-64v0v-32v0h-32h-544v32v0v64v0v16v0v16v0v288v0v32v0h32h544v-32v0v-288v0v-16v0zM112 265q1 -36 32 -55q32 -18 64 0q31 19 32 55q-1 36 -32 55q-32 18 -64 0
q-31 -19 -32 -55v0zM272 265q0 -26 -13 -48v0v0q-13 -22 -35 -35q-23 -13 -48 -13t-48 13q-22 13 -35 35t-13 48t13 48t35 35q23 13 48 13t48 -13q22 -13 35 -35t13 -48v0zM200 265q-2 -22 -24 -24q-22 2 -24 24q2 22 24 24q22 -2 24 -24v0zM352 217h96h-96h96v96v0h-96v0
v-96v0zM320 185v32v-32v32v96v0v32v0h32h128v-32v0v-96v0v-32v0h-32h-128z" />
</svg>
