<?xml version="1.0" standalone="no"?>
<!DOCTYPE svg PUBLIC "-//W3C//DTD SVG 1.1//EN" "http://www.w3.org/Graphics/SVG/1.1/DTD/svg11.dtd" >
<svg xmlns="http://www.w3.org/2000/svg" xmlns:xlink="http://www.w3.org/1999/xlink" version="1.1" viewBox="-10 -40 660 512">
   <path fill="currentColor"
d="M64 -39h16h-16h512v16v0v144v0h32h32v32v0v288v0v32v0h-32h-608v-32v0v-288v0v-32v0h32h32v-144v0v-16v0zM96 -7v128v-128v128h448v0v-128v0h-448v0zM32 153v288v-288v288h576v0v-288v0h-48h-528zM256 297q-1 -45 -40 -69q-40 -22 -80 0q-39 24 -40 69q1 45 40 69
q40 22 80 0q39 -24 40 -69v0zM64 297q0 -30 15 -56v0v0q15 -26 41 -41t56 -15t56 15t41 41t15 56t-15 56t-41 41t-56 15t-56 -15t-41 -41t-15 -56v0zM464 377q45 -1 69 -40q22 -40 0 -80q-24 -39 -69 -40q-45 1 -69 40q-22 40 0 80q24 39 69 40v0zM464 185q30 0 56 15v0v0
q26 15 41 41t15 56t-15 56t-41 41t-56 15t-56 -15t-41 -41t-15 -56t15 -56t41 -41t56 -15v0zM208 57h32h-32h48v32v0h-16h-48v-32v0h16v0zM304 57h32h-32h48v32v0h-16h-48v-32v0h16v0zM400 57h32h-32h48v32v0h-16h-48v-32v0h16v0z" />
</svg>
