<?xml version="1.0" standalone="no"?>
<!DOCTYPE svg PUBLIC "-//W3C//DTD SVG 1.1//EN" "http://www.w3.org/Graphics/SVG/1.1/DTD/svg11.dtd" >
<svg xmlns="http://www.w3.org/2000/svg" xmlns:xlink="http://www.w3.org/1999/xlink" version="1.1" viewBox="-10 -40 532 512">
   <path fill="currentColor"
d="M160 377h-32h32h-160v-32v0v-352v0v-32v0h32h480v32v0v352v0v32v0h-32h-176l-112 75v0l-32 21v0v-38v0v-26v0v-32v0zM160 345h32h-32h32v32v0v36v0l94 -63v0l8 -5v0h10h176v-352v0h-448v0v352v0h128v0zM352 57v144v-144v144v1v1v1v1q-1 19 -14 31q-14 13 -34 13t-34 -13
q-13 -12 -14 -31q1 -19 14 -31q14 -13 34 -13q8 0 16 3v-84v0l-96 36v0v117v0v1v1v1v1q-1 19 -14 31q-14 13 -34 13t-34 -13q-13 -12 -14 -31q1 -19 14 -31q14 -13 34 -13q8 0 16 3v-91v0v-11v0l10 -4v0l128 -48v0l22 -8v0v23v0zM192 237q1 -9 -16 -12q-17 3 -16 12
q-1 9 16 12q17 -3 16 -12v0zM304 217q17 -3 16 -12q1 -9 -16 -12q-17 3 -16 12q-1 9 16 12v0z" />
</svg>
