<?xml version="1.0" standalone="no"?>
<!DOCTYPE svg PUBLIC "-//W3C//DTD SVG 1.1//EN" "http://www.w3.org/Graphics/SVG/1.1/DTD/svg11.dtd" >
<svg xmlns="http://www.w3.org/2000/svg" xmlns:xlink="http://www.w3.org/1999/xlink" version="1.1" viewBox="-10 -40 532 512">
   <path fill="currentColor"
d="M87 343l7 -19l-7 19l7 -19l-14 -15v0q-47 -47 -48 -108q2 -71 63 -122q62 -52 161 -54q99 2 161 54q61 51 63 122q-2 71 -63 122q-62 52 -161 54q-43 0 -80 -12l-9 -2v0l-10 2v0l-88 27v0l18 -49v0zM16 441l39 -12l-39 12l39 -12l111 -33v0q42 13 90 13q72 -1 129 -28
q58 -28 92 -75t35 -105q-1 -58 -35 -105t-92 -75q-57 -27 -129 -28q-72 1 -129 28q-58 28 -92 75t-35 105q2 76 57 131l-27 71v0l-14 38v0zM352 89v-23v23v-23l-22 8v0l-128 48v0l-10 4v0v11v0v91v0q-8 -3 -16 -3q-20 0 -34 13q-13 12 -14 31q1 19 14 31q14 13 34 13t34 -13
q13 -12 14 -31v-2v-1v-1v-117v0l96 -36v0v84v0q-8 -3 -16 -3q-20 0 -34 13q-13 12 -14 31q1 19 14 31q14 13 34 13t34 -13q13 -12 14 -31v-2v-1v-1v-144v0zM192 269q1 9 -16 12q-17 -3 -16 -12q-1 -9 16 -12q17 3 16 12v0zM304 249q-17 -3 -16 -12q-1 -9 16 -12q17 3 16 12
q1 9 -16 12v0z" />
</svg>
