<?xml version="1.0" standalone="no"?>
<!DOCTYPE svg PUBLIC "-//W3C//DTD SVG 1.1//EN" "http://www.w3.org/Graphics/SVG/1.1/DTD/svg11.dtd" >
<svg xmlns="http://www.w3.org/2000/svg" xmlns:xlink="http://www.w3.org/1999/xlink" version="1.1" viewBox="-10 -40 532 512">
   <path fill="currentColor"
d="M32 -7h16h-16h448v16v0v400v0h16h16v32v0h-16h-496v-32v0h16h16v-400v0v-16v0zM64 409h384h-384h384v-384v0h-384v0v384v0zM256 89q-35 0 -64 17v0v0q-29 17 -47 47q-17 30 -17 64t17 64q18 30 47 47t64 17t64 -17t47 -47q17 -30 17 -64t-17 -64q-18 -30 -47 -47t-64 -17
v0zM416 217q0 43 -21 80v0v0q-22 37 -59 59q-38 21 -80 21t-80 -21q-37 -22 -59 -59q-21 -37 -21 -80t21 -80q22 -37 59 -59q38 -21 80 -21t80 21q37 22 59 59q21 37 21 80v0zM256 185q14 0 23 9v0v0q9 9 9 23t-9 23t-23 9t-23 -9t-9 -23t9 -23t23 -9v0z" />
</svg>
