<?xml version="1.0" standalone="no"?>
<!DOCTYPE svg PUBLIC "-//W3C//DTD SVG 1.1//EN" "http://www.w3.org/Graphics/SVG/1.1/DTD/svg11.dtd" >
<svg xmlns="http://www.w3.org/2000/svg" xmlns:xlink="http://www.w3.org/1999/xlink" version="1.1" viewBox="-10 -40 404 512">
   <path fill="currentColor"
d="M32 -7v448v-448v448h320v0v-448v0h-320v0zM0 -39h32h-32h384v32v0v448v0v32v0h-32h-352v-32v0v-448v0v-32v0zM96 57v128v-128v128h192v0v-128v0h-192v0zM64 25h32h-32h256v32v0v128v0v32v0h-32h-224v-32v0v-128v0v-32v0zM208 321q2 -22 24 -24q22 2 24 24q-2 22 -24 24
q-22 -2 -24 -24v0zM296 249q22 2 24 24q-2 22 -24 24q-22 -2 -24 -24q2 -22 24 -24v0zM96 249h32h-32h32v32v0h32v0v32v0h-32v0v32v0h-32v0v-32v0h-32v0v-32v0h32v0v-32v0z" />
</svg>
