<?xml version="1.0" standalone="no"?>
<!DOCTYPE svg PUBLIC "-//W3C//DTD SVG 1.1//EN" "http://www.w3.org/Graphics/SVG/1.1/DTD/svg11.dtd" >
<svg xmlns="http://www.w3.org/2000/svg" xmlns:xlink="http://www.w3.org/1999/xlink" version="1.1" viewBox="-10 -40 532 512">
   <path fill="currentColor"
d="M176 -1v63v-63v63q15 -5 32 -5t32 5v-69v0h-16v0q-25 0 -48 6v0zM144 10q-50 24 -81 70v0v0q-30 46 -31 105q2 84 59 139l5 4v0v7v0v122v0v16v0h-32v0v-16v0v-115v0q-30 -31 -47 -71t-17 -86q1 -63 31 -113q29 -51 80 -80q50 -30 113 -31h24v0q80 2 133 54q54 52 59 131
l67 59v0l5 5v0v7v0v64v0v16v0h-16h-48v96v0v16v0h-16h-112v48v0v16v0h-32v0v-16v0v-64v0v-16v0h16h112v-96v0v-16v0h16h48v-41v0l-67 -59v0l-5 -5v0v-7v0q-1 -61 -39 -105q-38 -43 -97 -53v82v0q46 33 48 92q-1 48 -33 79q-31 32 -79 33q-48 -1 -79 -33q-32 -31 -33 -79
q2 -59 48 -92v-67v0zM288 169q-1 -45 -40 -69q-40 -22 -80 0q-39 24 -40 69q1 45 40 69q40 22 80 0q39 -24 40 -69v0zM208 185q15 -1 16 -16q-1 -15 -16 -16q-15 1 -16 16q1 15 16 16v0zM208 121q27 1 42 24q12 24 0 48q-15 23 -42 24q-27 -1 -42 -24q-12 -24 0 -48
q15 -23 42 -24v0z" />
</svg>
