<?xml version="1.0" standalone="no"?>
<!DOCTYPE svg PUBLIC "-//W3C//DTD SVG 1.1//EN" "http://www.w3.org/Graphics/SVG/1.1/DTD/svg11.dtd" >
<svg xmlns="http://www.w3.org/2000/svg" xmlns:xlink="http://www.w3.org/1999/xlink" version="1.1" viewBox="-10 -40 660 512">
   <path fill="currentColor"
d="M102 -39q-18 11 -41 33v0v0q-24 23 -42 54v0v0q-18 30 -19 67q0 20 6 38h34v0q-8 -18 -8 -38q1 -40 31 -76q18 -22 36 -36l32 32v0l23 22v0l22 -22v0l4 -4v0q27 30 36 53t8 31q0 20 -8 38h34v0q6 -18 6 -38q1 -18 -15 -53q-17 -36 -62 -75l-3 3v0l-22 22v0l-23 -22v0
l-29 -29v0zM128 64q-1 0 -16 12v0v0q-16 12 -33 32v0v0q-18 20 -25 45h34v0q7 -17 25 -35q8 -8 15 -14q7 6 15 14q18 18 25 35h34v0q-7 -25 -25 -45q-17 -20 -33 -32q-15 -12 -16 -12v0v0zM496 25h-6h6h-6l-5 5v0l-255 247v0l-4 -3v0l11 -57v0h3h16v-32v0h-16h-240v32v0h13
v0l-10 56v0q-3 15 -3 30v8v0q2 69 48 114q46 46 115 48q37 0 69 -16q33 -15 56 -44l240 -292v0h96h16v-16v0v-16v0v-7v0l-5 -4v0l-48 -48v0l-4 -5v0h-7h-80zM45 217h160h-160h160l-13 61v0l-2 10v0l9 6v0l24 16v0l11 8v0l9 -9v0l260 -252v0h66v0l32 32v0h-81h-8l-4 6v0
l-244 298v0q-40 47 -101 48q-56 -1 -93 -38t-38 -93v-7v0q0 -13 2 -25l11 -61v0zM144 289q-2 -22 -24 -24q-22 2 -24 24q2 22 24 24q22 -2 24 -24v0z" />
</svg>
