<?xml version="1.0" standalone="no"?>
<!DOCTYPE svg PUBLIC "-//W3C//DTD SVG 1.1//EN" "http://www.w3.org/Graphics/SVG/1.1/DTD/svg11.dtd" >
<svg xmlns="http://www.w3.org/2000/svg" xmlns:xlink="http://www.w3.org/1999/xlink" version="1.1" viewBox="-10 -40 660 512">
   <path fill="currentColor"
d="M496 -7h-6h6h-6l-5 4v0l-266 243v0l33 -119v0h20h16v-32v0h-16h-272v32v0h16h12l-24 117v0q-4 17 -4 35v5v0q2 69 48 115t115 48q37 0 69 -16q33 -15 56 -44l240 -292v0h96h16v-16v0v-16v0v-7v0l-5 -4v0l-48 -48v0l-4 -5v0h-7h-80zM61 121h158h-158h158l-34 124v0l-3 9v0
l7 6v0l16 16v0l11 11v0l11 -10v0l275 -252v0h67v0l32 32v0h-81h-8l-4 6v0l-244 298v0q-40 47 -101 48q-56 -1 -93 -38t-38 -93v-5v0q0 -14 3 -28l26 -124v0zM104 297q22 -2 24 -24q-2 -22 -24 -24q-22 2 -24 24q2 22 24 24v0zM144 193q-2 -22 -24 -24q-22 2 -24 24
q2 22 24 24q22 -2 24 -24v0z" />
</svg>
