<?xml version="1.0" standalone="no"?>
<!DOCTYPE svg PUBLIC "-//W3C//DTD SVG 1.1//EN" "http://www.w3.org/Graphics/SVG/1.1/DTD/svg11.dtd" >
<svg xmlns="http://www.w3.org/2000/svg" xmlns:xlink="http://www.w3.org/1999/xlink" version="1.1" viewBox="-10 -40 596 512">
   <path fill="currentColor"
d="M544 217q-2 92 -55 159l25 19v0q60 -75 62 -178q-2 -103 -62 -178l-25 19v0q53 67 55 159v0zM32 217q2 -92 55 -159l-25 -19v0q-60 75 -62 178q2 103 62 179l25 -20v0q-53 -68 -55 -159v0zM96 217q1 69 41 119l25 -20v0q-33 -42 -34 -99q1 -57 34 -99l-25 -20v0
q-40 50 -41 119v0zM480 217q-1 -69 -41 -119l-25 20v0q33 42 34 99q-1 57 -34 99l25 20v0q40 -50 41 -119v0zM288 281q36 -1 55 -32q18 -32 0 -64q-19 -31 -55 -32q-36 1 -55 32q-18 32 0 64q19 31 55 32v0zM256 217q0 -14 9 -23v0v0q9 -9 23 -9t23 9t9 23t-9 23t-23 9
t-23 -9t-9 -23v0z" />
</svg>
