<?xml version="1.0" standalone="no"?>
<!DOCTYPE svg PUBLIC "-//W3C//DTD SVG 1.1//EN" "http://www.w3.org/Graphics/SVG/1.1/DTD/svg11.dtd" >
<svg xmlns="http://www.w3.org/2000/svg" xmlns:xlink="http://www.w3.org/1999/xlink" version="1.1" viewBox="-10 -40 660 512">
   <path fill="currentColor"
d="M256 -39v32v-32v32h-224v0v448v0h224v0v32v0h-224h-32v-32v0v-448v0v-32v0h32h224zM256 218v63v-63v63q-6 -28 -28 -45q-22 -18 -52 -19q-34 1 -57 23q-22 23 -23 57q1 34 23 57q23 22 57 23q30 -1 52 -19q22 -17 28 -45v63v0q-32 32 -80 33q-48 -1 -79 -33
q-32 -31 -33 -79q1 -48 33 -79q31 -32 79 -33q48 1 80 33v0zM176 121q14 0 23 -9v0v0q9 -9 9 -23t-9 -23t-23 -9t-23 9t-9 23t9 23t23 9v0zM176 25q36 1 55 32q18 32 0 64q-19 31 -55 32q-36 -1 -55 -32q-18 -32 0 -64q19 -31 55 -32v0zM152 297q2 -22 24 -24q22 2 24 24
q-2 22 -24 24q-22 -2 -24 -24v0zM320 -7v448v-448v448h288v0v-448v0h-288v0zM288 -39h32h-32h352v32v0v448v0v32v0h-32h-320v-32v0v-448v0v-32v0zM464 121q14 0 23 -9v0v0q9 -9 9 -23t-9 -23t-23 -9t-23 9t-9 23t9 23t23 9v0zM464 25q36 1 55 32q18 32 0 64q-19 31 -55 32
q-36 -1 -55 -32q-18 -32 0 -64q19 -31 55 -32v0zM464 377q45 -1 69 -40q22 -40 0 -80q-24 -39 -69 -40q-45 1 -69 40q-22 40 0 80q24 39 69 40v0zM464 185q30 0 56 15v0v0q26 15 41 41t15 56t-15 56t-41 41t-56 15t-56 -15t-41 -41t-15 -56t15 -56t41 -41t56 -15v0zM440 297
q2 -22 24 -24q22 2 24 24q-2 22 -24 24q-22 -2 -24 -24v0z" />
</svg>
