<?xml version="1.0" standalone="no"?>
<!DOCTYPE svg PUBLIC "-//W3C//DTD SVG 1.1//EN" "http://www.w3.org/Graphics/SVG/1.1/DTD/svg11.dtd" >
<svg xmlns="http://www.w3.org/2000/svg" xmlns:xlink="http://www.w3.org/1999/xlink" version="1.1" viewBox="-10 -40 660 512">
   <path fill="currentColor"
d="M320 89q0 -26 -13 -48v0v0q-13 -22 -35 -35q-23 -13 -48 -13t-48 13q-22 13 -35 35t-13 48t13 48t35 35q23 13 48 13t48 -13q22 -13 35 -35t13 -48v0zM96 89q0 -35 17 -64v0v0q17 -29 47 -47q30 -17 64 -17t64 17q30 18 47 47t17 64t-17 64t-47 47q-30 17 -64 17t-64 -17
q-30 -18 -47 -47t-17 -64v0zM43 441h247h-247h247q4 18 16 32h-272h-34l10 -32v0l54 -176v0h320v0v81v0h-8l-16 -49v0h-272v0l-45 144v0zM640 116v22v-22v22v72v0v144v0v4v4q-1 21 -19 34q-18 14 -45 14t-45 -14q-18 -13 -19 -34q1 -20 19 -34q18 -13 45 -14q18 0 32 7v-88
v0l-160 53v0v140v0q-1 21 -19 34q-18 14 -45 14t-45 -14q-18 -13 -19 -34q1 -20 19 -34q18 -13 45 -14q18 0 32 7v-111v0v-72v0v-11v0l11 -4v0l192 -64v0l21 -7v0zM410 418q-8 -7 -26 -8q-17 1 -26 8q-7 7 -6 8q-1 2 6 9q8 7 26 7q17 0 26 -7q7 -7 6 -9q1 -1 -6 -8v0z
M448 252l160 -53l-160 53l160 -53v-38v0l-160 53v0v38v0zM608 362q1 -1 -6 -8q-8 -7 -26 -8q-17 1 -26 8q-7 7 -6 8q-1 2 6 9q8 7 26 7q17 0 26 -7q7 -7 6 -9v0z" />
</svg>
