<?xml version="1.0" standalone="no"?>
<!DOCTYPE svg PUBLIC "-//W3C//DTD SVG 1.1//EN" "http://www.w3.org/Graphics/SVG/1.1/DTD/svg11.dtd" >
<svg xmlns="http://www.w3.org/2000/svg" xmlns:xlink="http://www.w3.org/1999/xlink" version="1.1" viewBox="-10 -40 532 512">
   <path fill="currentColor"
d="M16 -39h-16h16h-16v16v0v64v0v16v0h16h112v163v0q-30 12 -32 45q1 20 14 34q14 13 34 14q20 -1 34 -14q13 -14 14 -34q-2 -33 -32 -45v-163v0h336h16v-16v0v-64v0v-16v0h-16h-480zM32 25v-32v32v-32h448v0v32v0h-448v0zM128 265q1 -15 16 -16q15 1 16 16q-1 15 -16 16
q-15 -1 -16 -16v0zM16 121h-16h16h-16v32v0h16h80v-32v0h-80v0zM192 153h304h-304h320v-32v0h-16h-304v32v0zM0 441v32v-32v32h16h496v-32v0h-16h-496zM16 281h-16h16h-16v32v0h16h64q-11 -14 -14 -32h-50v0zM496 313h16h-16h16v-32v0h-16h-274q-3 18 -14 32h288v0z" />
</svg>
