<?xml version="1.0" standalone="no"?>
<!DOCTYPE svg PUBLIC "-//W3C//DTD SVG 1.1//EN" "http://www.w3.org/Graphics/SVG/1.1/DTD/svg11.dtd" >
<svg xmlns="http://www.w3.org/2000/svg" xmlns:xlink="http://www.w3.org/1999/xlink" version="1.1" viewBox="-10 -40 532 512">
   <path fill="currentColor"
d="M16 -39h-16h16h-16v16v0v64v0v16v0h16h112v323v0q-30 12 -32 45q1 20 14 34q14 13 34 14q20 -1 34 -14q13 -14 14 -34q-2 -33 -32 -45v-323v0h336h16v-16v0v-64v0v-16v0h-16h-480zM32 25v-32v32v-32h448v0v32v0h-448v0zM128 425q1 -15 16 -16q15 1 16 16q-1 15 -16 16
q-15 -1 -16 -16v0zM41 121l8 -32l-8 32l8 -32h-33v0l-8 32v0l-8 32v0h33h63v-32v0h-55v0zM41 217l8 -32l-8 32l8 -32h-33v0l-8 32v0l-8 32v0h33h63v-32v0h-55v0zM192 217v32v-32v32h287h33l-8 -32v0l-8 -32v0h-33v0l8 32v0h-279v0zM192 121v32v-32v32h287h33l-8 -32v0
l-8 -32v0h-33v0l8 32v0h-279v0z" />
</svg>
