<?xml version="1.0" standalone="no"?>
<!DOCTYPE svg PUBLIC "-//W3C//DTD SVG 1.1//EN" "http://www.w3.org/Graphics/SVG/1.1/DTD/svg11.dtd" >
<svg xmlns="http://www.w3.org/2000/svg" xmlns:xlink="http://www.w3.org/1999/xlink" version="1.1" viewBox="-10 -40 404 512">
   <path fill="currentColor"
d="M0 9q1 -15 16 -16h352v0q15 1 16 16q-1 15 -16 16h-352v0q-15 -1 -16 -16v0zM0 137q1 -15 16 -16h176h176q15 1 16 16q-1 15 -16 16h-160v0v272v0q-1 15 -16 16q-15 -1 -16 -16v-272v0h-160v0q-15 -1 -16 -16v0z" />
</svg>
