<?xml version="1.0" standalone="no"?>
<!DOCTYPE svg PUBLIC "-//W3C//DTD SVG 1.1//EN" "http://www.w3.org/Graphics/SVG/1.1/DTD/svg11.dtd" >
<svg xmlns="http://www.w3.org/2000/svg" xmlns:xlink="http://www.w3.org/1999/xlink" version="1.1" viewBox="-10 -40 468 512">
   <path fill="currentColor"
d="M5 206q-10 11 0 22l128 128v0q11 10 22 0q10 -11 0 -22l-100 -101v0h105h176q15 -1 16 -16q-1 -15 -16 -16h-176h-105l100 -101v0q10 -11 0 -22q-11 -10 -22 0l-128 128v0zM416 393q1 15 16 16q15 -1 16 -16v-352v0q-1 -15 -16 -16q-15 1 -16 16v352v0z" />
</svg>
