<?xml version="1.0" standalone="no"?>
<!DOCTYPE svg PUBLIC "-//W3C//DTD SVG 1.1//EN" "http://www.w3.org/Graphics/SVG/1.1/DTD/svg11.dtd" >
<svg xmlns="http://www.w3.org/2000/svg" xmlns:xlink="http://www.w3.org/1999/xlink" version="1.1" viewBox="-10 -40 404 512">
   <path fill="currentColor"
d="M128 -7h128h-128h128q14 0 23 9t9 23v26v0q-43 -25 -96 -26q-53 1 -96 26v-26v0q0 -14 9 -23t23 -9v0zM64 73h1h-1h1q-30 27 -47 64q-18 37 -18 80t18 80q17 37 47 64h-1v0v48v0q1 27 19 45t45 19h128v0q27 -1 45 -19t19 -45v-48v0h-1v0q30 -27 47 -64q18 -37 18 -80
t-18 -80q-17 -37 -47 -64h1v0v-48v0q-1 -27 -19 -45t-45 -19h-128v0q-27 1 -45 19t-19 45v48v0zM288 383v26v-26v26q0 14 -9 23t-23 9h-128v0q-14 0 -23 -9t-9 -23v-26v0q43 25 96 26q53 -1 96 -26v0zM32 217q0 -43 21 -80v0v0q22 -37 59 -59q38 -21 80 -21t80 21
q37 22 59 59q21 37 21 80t-21 80q-22 37 -59 59q-38 21 -80 21t-80 -21q-37 -22 -59 -59q-21 -37 -21 -80v0zM208 137q-1 -15 -16 -16q-15 1 -16 16v80v0q0 8 7 13l48 32v0q13 7 22 -4q7 -13 -4 -22l-41 -28v0v-71v0z" />
</svg>
