<?xml version="1.0" standalone="no"?>
<!DOCTYPE svg PUBLIC "-//W3C//DTD SVG 1.1//EN" "http://www.w3.org/Graphics/SVG/1.1/DTD/svg11.dtd" >
<svg xmlns="http://www.w3.org/2000/svg" xmlns:xlink="http://www.w3.org/1999/xlink" version="1.1" viewBox="-10 -40 532 512">
   <path fill="currentColor"
d="M96 121h-32h32h-32v-96v0q1 -27 19 -45t45 -19h230v0q26 0 45 19l26 26v0q19 19 19 46v69v0h-32v0v-69v0q0 -14 -9 -23l-27 -27v0q-9 -9 -22 -9h-230v0q-14 0 -23 9t-9 23v96v0zM448 185h-384h384h-384q-14 0 -23 9t-9 23v128v0h32v0v-32v0q0 -14 9 -23t23 -9h320v0
q14 0 23 9t9 23v32v0h32v0v-128v0q0 -14 -9 -23t-23 -9v0zM448 377v64v-64v64q0 14 -9 23t-23 9h-320v0q-14 0 -23 -9t-9 -23v-64v0h-32v0q-14 0 -23 -9t-9 -23v-128v0q1 -27 19 -45t45 -19h384v0q27 1 45 19t19 45v128v0q0 14 -9 23t-23 9h-32v0zM96 313v128v-128v128h320
v0v-128v0h-320v0zM432 209q22 2 24 24q-2 22 -24 24q-22 -2 -24 -24q2 -22 24 -24v0z" />
</svg>
