<?xml version="1.0" standalone="no"?>
<!DOCTYPE svg PUBLIC "-//W3C//DTD SVG 1.1//EN" "http://www.w3.org/Graphics/SVG/1.1/DTD/svg11.dtd" >
<svg xmlns="http://www.w3.org/2000/svg" xmlns:xlink="http://www.w3.org/1999/xlink" version="1.1" viewBox="-10 -40 532 512">
   <path fill="currentColor"
d="M496 25q-15 1 -16 16v136v0l-179 -146v0q-7 -6 -17 -6q-12 0 -20 8t-8 20v150v0l-211 -172v0q-7 -6 -17 -6q-12 0 -20 8t-8 20v328v0q0 12 8 20t20 8q10 0 17 -6l211 -172v0v150v0q0 12 8 20t20 8q10 0 17 -6l179 -146v0v136v0q1 15 16 16q15 -1 16 -16v-162v0v-28v0
v-162v0q-1 -15 -16 -16v0zM479 217l-191 155l191 -155l-191 155v-310v0l191 155v0zM32 62l191 155l-191 -155l191 155l-191 155v0v-310v0z" />
</svg>
