<?xml version="1.0" standalone="no"?>
<!DOCTYPE svg PUBLIC "-//W3C//DTD SVG 1.1//EN" "http://www.w3.org/Graphics/SVG/1.1/DTD/svg11.dtd" >
<svg xmlns="http://www.w3.org/2000/svg" xmlns:xlink="http://www.w3.org/1999/xlink" version="1.1" viewBox="-10 -40 404 512">
   <path fill="currentColor"
d="M16 -39q-15 1 -16 16q1 15 16 16h16v0v42v0q0 37 16 70t46 56l72 56v0l-72 56v0q-30 23 -46 56t-16 70v42v0h-16v0q-15 1 -16 16q1 15 16 16h32h320q15 -1 16 -16q-1 -15 -16 -16h-16v0v-42v0q0 -37 -16 -70t-46 -56l-72 -56v0l72 -56v0q30 -23 46 -56t16 -70v-42v0h16v0
q15 -1 16 -16q-1 -15 -16 -16h-32h-320zM320 -7v42v-42v42q-1 62 -49 101l-79 61v0l-79 -61v0q-48 -39 -49 -101v-42v0h256v0zM192 237l79 61l-79 -61l79 61q48 39 49 101v42v0h-256v0v-42v0q1 -62 49 -101l79 -61v0z" />
</svg>
