<?xml version="1.0" standalone="no"?>
<!DOCTYPE svg PUBLIC "-//W3C//DTD SVG 1.1//EN" "http://www.w3.org/Graphics/SVG/1.1/DTD/svg11.dtd" >
<svg xmlns="http://www.w3.org/2000/svg" xmlns:xlink="http://www.w3.org/1999/xlink" version="1.1" viewBox="-10 -40 340 512">
   <path fill="currentColor"
d="M48 57q-15 1 -16 16v288v0q1 15 16 16h48v0q15 -1 16 -16v-288v0q-1 -15 -16 -16h-48v0zM0 73q1 -20 14 -34v0v0q14 -13 34 -14h48v0q20 1 34 14q13 14 14 34v288v0q-1 20 -14 34q-14 13 -34 14h-48v0q-20 -1 -34 -14q-13 -14 -14 -34v-288v0zM224 57q-15 1 -16 16v288v0
q1 15 16 16h48v0q15 -1 16 -16v-288v0q-1 -15 -16 -16h-48v0zM176 73q1 -20 14 -34v0v0q14 -13 34 -14h48v0q20 1 34 14q13 14 14 34v288v0q-1 20 -14 34q-14 13 -34 14h-48v0q-20 -1 -34 -14q-13 -14 -14 -34v-288v0z" />
</svg>
