<?xml version="1.0" standalone="no"?>
<!DOCTYPE svg PUBLIC "-//W3C//DTD SVG 1.1//EN" "http://www.w3.org/Graphics/SVG/1.1/DTD/svg11.dtd" >
<svg xmlns="http://www.w3.org/2000/svg" xmlns:xlink="http://www.w3.org/1999/xlink" version="1.1" viewBox="-10 -40 404 512">
   <path fill="currentColor"
d="M191 28q-30 28 -46 67v0v0q-17 38 -17 82q2 84 55 141q53 58 135 66q-43 24 -94 25q-82 -2 -136 -56t-56 -136q1 -73 46 -124q44 -52 113 -65v0zM257 6q-3 -11 -15 -12q-9 -1 -19 -1q-62 1 -112 31q-51 29 -81 80q-29 50 -30 113q1 63 31 113q29 51 80 80q50 30 113 31
q93 -2 155 -63q8 -9 3 -19t-17 -9q-14 3 -30 3q-74 -2 -124 -52q-49 -49 -51 -124q0 -50 24 -90q25 -40 65 -63q10 -6 8 -18v0z" />
</svg>
