<?xml version="1.0" standalone="no"?>
<!DOCTYPE svg PUBLIC "-//W3C//DTD SVG 1.1//EN" "http://www.w3.org/Graphics/SVG/1.1/DTD/svg11.dtd" >
<svg xmlns="http://www.w3.org/2000/svg" xmlns:xlink="http://www.w3.org/1999/xlink" version="1.1" viewBox="-10 -40 458 512">
   <path fill="currentColor"
d="M96 -3q0 -4 4 -4h131v0q65 2 108 45t45 108q0 14 -2 27l-25 140v0h33v0l23 -135v0q3 -16 3 -32q-2 -78 -54 -131q-53 -52 -131 -54h-131v0q-15 0 -26 10q-10 11 -10 26q1 21 20 32h1v0q-21 23 -21 54v105v0q0 36 30 58l2 2v0q6 4 14 7l-7 5v0q-27 21 -36 53h34v0
q7 -16 21 -27l54 -39v0l90 -65v0q11 -10 3 -23q-10 -11 -22 -3l-90 65v0q-21 14 -43 1l-2 -2v0q-16 -12 -16 -32v-105v0q0 -19 14 -33l13 -14v0q6 -6 5 -14q-2 -8 -9 -11l-21 -11v0q-2 -1 -2 -3v0zM366 377l33 53l-33 -53l33 53q1 2 1 4q-1 6 -7 7h-338v0q-6 -1 -7 -7
q0 -3 1 -4l33 -53v0h284v0zM82 345q-18 1 -27 15l-33 53v0q-6 9 -6 21q0 16 12 27q11 12 27 12h338v0q16 0 27 -12q12 -11 12 -27q0 -12 -6 -21l-33 -53v0q-9 -14 -27 -15h-284v0zM148 129q18 -2 20 -20q-2 -18 -20 -20q-18 2 -20 20q2 18 20 20v0z" />
</svg>
