<?xml version="1.0" standalone="no"?>
<!DOCTYPE svg PUBLIC "-//W3C//DTD SVG 1.1//EN" "http://www.w3.org/Graphics/SVG/1.1/DTD/svg11.dtd" >
<svg xmlns="http://www.w3.org/2000/svg" xmlns:xlink="http://www.w3.org/1999/xlink" version="1.1" viewBox="-10 -40 532 512">
   <path fill="currentColor"
d="M194 -4q22 -34 62 -35q40 1 62 35l78 128v0l11 -54v0q4 -14 19 -13q14 5 12 19l-19 95v0q-1 7 -8 10q-6 4 -13 2l-91 -31v0q-13 -6 -10 -20q6 -13 20 -10l51 17v0l-77 -126v0q-12 -19 -35 -20q-23 1 -35 20l-31 51v0q-9 12 -22 5q-12 -9 -5 -22l31 -51v0zM435 219
q13 -7 22 5l46 76v0q9 14 9 31q0 26 -18 44q-17 17 -43 18h-185v0l41 36v0q10 11 1 23q-11 10 -23 1l-72 -64v0q-5 -5 -5 -12t5 -12l72 -64v0q12 -9 23 1q9 12 -1 23l-41 36v0h185v0q12 0 21 -9q8 -8 8 -21q0 -8 -4 -15l-46 -75v0q-7 -14 5 -22v0zM135 219l-10 -49l10 49
l-10 -49l-89 146v0q-4 7 -4 15q0 13 9 21q8 9 20 9h83v0q15 1 16 16q-1 15 -16 16h-83v0q-26 -1 -43 -18q-18 -18 -18 -44q0 -17 9 -31l92 -152v0l-56 19v0q-14 3 -20 -11q-4 -14 10 -20l91 -30v0q7 -2 13 1q6 4 8 11l19 94v0q2 15 -12 19q-14 2 -19 -12v0z" />
</svg>
