<?xml version="1.0" standalone="no"?>
<!DOCTYPE svg PUBLIC "-//W3C//DTD SVG 1.1//EN" "http://www.w3.org/Graphics/SVG/1.1/DTD/svg11.dtd" >
<svg xmlns="http://www.w3.org/2000/svg" xmlns:xlink="http://www.w3.org/1999/xlink" version="1.1" viewBox="-10 -40 596 512">
   <path fill="currentColor"
d="M336 41q-1 27 -24 42q-24 12 -48 0q-23 -15 -24 -42q1 -27 24 -42q24 -12 48 0q23 15 24 42v0zM288 -39q-34 1 -57 23v0v0q-22 23 -23 57q1 30 18 51q18 21 46 27v2v32v0h-64v0q-15 1 -16 16q1 15 16 16h64v0v256v0h-32v0q-61 -2 -102 -42q-40 -41 -42 -102v-25v0l37 36
v0q11 10 22 0q10 -11 0 -22l-64 -64v0q-11 -10 -22 0l-64 64v0q-10 11 0 22q11 10 22 0l37 -36v0v25v0q2 75 52 124q49 50 124 52h48h48q75 -2 124 -52q50 -49 52 -124v-25v0l37 36v0q11 10 22 0q10 -11 0 -22l-64 -64v0q-11 -10 -22 0l-64 64v0q-10 11 0 22q11 10 22 0
l37 -36v0v25v0q-2 61 -42 102q-41 40 -102 42h-32v0v-256v0h64v0q15 -1 16 -16q-1 -15 -16 -16h-64v0v-32v0v-2q28 -6 46 -27q17 -21 18 -51q-1 -34 -23 -57q-23 -22 -57 -23v0z" />
</svg>
