<?xml version="1.0" standalone="no"?>
<!DOCTYPE svg PUBLIC "-//W3C//DTD SVG 1.1//EN" "http://www.w3.org/Graphics/SVG/1.1/DTD/svg11.dtd" >
<svg xmlns="http://www.w3.org/2000/svg" xmlns:xlink="http://www.w3.org/1999/xlink" version="1.1" viewBox="-10 -40 660 512">
   <path fill="currentColor"
d="M384 25q0 23 -14 40v0v0q-13 16 -34 22v354v0h192v0q15 1 16 16q-1 15 -16 16h-208h-208q-15 -1 -16 -16q1 -15 16 -16h192v0v-354v0q-21 -6 -34 -22q-14 -17 -14 -40h-144v0q-15 -1 -16 -16q1 -15 16 -16h153v0q18 -30 55 -32q37 2 55 32h137v0q15 1 16 16q-1 15 -16 16
h-128v0zM441 323q26 21 71 22q45 -1 71 -22q25 -20 25 -42h-192v0v-2v0v1v0v1v0q0 22 25 42v0zM512 108l-86 141l86 -141l-86 141h172v0l-86 -141v0zM384 281v-2v2v-2q0 -22 12 -41l92 -151v0q8 -14 24 -14t24 14l92 151v0q12 19 12 41v2v0q-1 41 -37 68q-37 27 -91 28
q-54 -1 -91 -28q-36 -27 -37 -68v0zM32 281q0 22 25 42q26 21 71 22q45 -1 71 -22q25 -20 25 -42h-192v0v-2v0v1v0v1v0zM42 249h172h-172h172l-86 -141v0l-86 141v0zM128 377q-54 -1 -91 -28v0v0q-36 -27 -37 -68v-2v0q0 -22 12 -41l92 -151v0q8 -14 24 -14t24 14l92 151v0
q12 19 12 41v2v0q-1 41 -37 68q-37 27 -91 28v0zM320 57q14 0 23 -9v0v0q9 -9 9 -23t-9 -23t-23 -9t-23 9t-9 23t9 23t23 9v0z" />
</svg>
