<?xml version="1.0" standalone="no"?>
<!DOCTYPE svg PUBLIC "-//W3C//DTD SVG 1.1//EN" "http://www.w3.org/Graphics/SVG/1.1/DTD/svg11.dtd" >
<svg xmlns="http://www.w3.org/2000/svg" xmlns:xlink="http://www.w3.org/1999/xlink" version="1.1" viewBox="-10 -40 660 512">
   <path fill="currentColor"
d="M176 281q39 0 72 -19v0v0q33 -19 53 -53q19 -34 19 -72t-19 -72q-20 -34 -53 -53t-72 -19t-72 19t-53 53q-19 34 -19 72t19 72q20 34 53 53t72 19v0zM352 137q-2 70 -46 119v0v0q-45 49 -114 56v65v0h64v0q15 1 16 16q-1 15 -16 16h-64v0v48v0q-1 15 -16 16
q-15 -1 -16 -16v-48v0h-64v0q-15 -1 -16 -16q1 -15 16 -16h64v0v-65v0q-69 -7 -114 -56q-44 -49 -46 -119q2 -75 52 -124q49 -50 124 -52q75 2 124 52q50 49 52 124v0zM272 322q14 -8 28 -18q40 40 100 41q61 -2 102 -42q40 -41 42 -102q-2 -61 -42 -102q-41 -40 -102 -42
q-16 0 -31 3q-6 -15 -14 -29q22 -6 45 -6q66 1 113 41l72 -73v0h-89v0q-15 -1 -16 -16q1 -15 16 -16h128v0q15 1 16 16v128v0q-1 15 -16 16q-15 -1 -16 -16v-89v0l-73 72v0q40 48 41 113q-2 75 -52 124q-49 50 -124 52q-78 -2 -128 -55v0z" />
</svg>
