<?xml version="1.0" standalone="no"?>
<!DOCTYPE svg PUBLIC "-//W3C//DTD SVG 1.1//EN" "http://www.w3.org/Graphics/SVG/1.1/DTD/svg11.dtd" >
<svg xmlns="http://www.w3.org/2000/svg" xmlns:xlink="http://www.w3.org/1999/xlink" version="1.1" viewBox="-10 -40 532 512">
   <path fill="currentColor"
d="M368 -39q-15 1 -16 16q1 15 16 16h89v0l-73 73v0l-37 -36v0q-11 -10 -22 0q-10 11 0 22l36 37v0l-40 41v0q-47 -40 -113 -41q-75 2 -124 52q-50 49 -52 124q2 75 52 124q49 50 124 52q75 -2 124 -52q50 -49 52 -124q-1 -66 -41 -113l41 -40v0l37 36v0q11 10 22 0
q10 -11 0 -22l-36 -37v0l73 -73v0v89v0q1 15 16 16q15 -1 16 -16v-128v0q-1 -15 -16 -16h-128v0zM64 265q0 -39 19 -72v0v0q19 -33 53 -53q34 -19 72 -19t72 19q34 20 53 53t19 72t-19 72t-53 53q-34 19 -72 19t-72 -19q-34 -20 -53 -53t-19 -72v0z" />
</svg>
