<?xml version="1.0" standalone="no"?>
<!DOCTYPE svg PUBLIC "-//W3C//DTD SVG 1.1//EN" "http://www.w3.org/Graphics/SVG/1.1/DTD/svg11.dtd" >
<svg xmlns="http://www.w3.org/2000/svg" xmlns:xlink="http://www.w3.org/1999/xlink" version="1.1" viewBox="-10 -40 522 512">
   <path fill="currentColor"
d="M144 -7q15 -1 16 -16q-1 -15 -16 -16h-112v0q-15 1 -16 16v112v0q1 15 16 16q15 -1 16 -16v-73v0l41 41v0l-4 5v0q-10 11 0 22q11 10 22 0l5 -4v0l13 13v0q-28 40 -29 92q1 64 42 108q40 44 102 51v33v0h-32v0q-15 1 -16 16q1 15 16 16h32v0v48v0q1 15 16 16
q15 -1 16 -16v-48v0h32v0q15 -1 16 -16q-1 -15 -16 -16h-32v0v-33v0q62 -7 102 -51q41 -44 42 -108q-1 -52 -29 -92l77 -77v0v73v0q1 15 16 16q15 -1 16 -16v-112v0q-1 -15 -16 -16h-112v0q-15 1 -16 16q1 15 16 16h73v0l-75 76v0q-45 -42 -110 -44q-65 2 -110 44l-11 -12v0
l4 -5v0q10 -11 0 -22q-11 -10 -22 0l-5 4v0l-41 -41v0h73v0zM256 57q35 0 64 17v0v0q29 17 47 47q17 30 17 64t-17 64q-18 30 -47 47t-64 17t-64 -17t-47 -47q-17 -30 -17 -64t17 -64q18 -30 47 -47t64 -17v0z" />
</svg>
