<?xml version="1.0" standalone="no"?>
<!DOCTYPE svg PUBLIC "-//W3C//DTD SVG 1.1//EN" "http://www.w3.org/Graphics/SVG/1.1/DTD/svg11.dtd" >
<svg xmlns="http://www.w3.org/2000/svg" xmlns:xlink="http://www.w3.org/1999/xlink" version="1.1" viewBox="-10 -40 532 512">
   <path fill="currentColor"
d="M299 437v0v0v0q0 -2 1 -3l21 -86v0q3 -9 -2 -17l-4 -5v0q-11 -13 -29 -12h-60v0q-18 -1 -29 12l-4 5v0q-5 8 -2 17l21 86v0v0q1 2 1 3q21 4 43 4t43 -4v0zM335 427q58 -22 96 -70l-72 -5v0q-2 0 -4 1t-3 3l-17 71v0zM452 326q21 -38 26 -82q-1 -1 -2 -1l-75 -48v0
q-8 -5 -17 -3l-6 2v0q-16 7 -21 25l-18 56v0q-7 17 2 32l4 5v0q6 7 16 8l88 6v0h3v0zM480 207q-4 -63 -37 -113l-27 67v0q-1 2 0 4v0v0v0v0q0 2 2 4l62 38v0zM420 65q-30 -33 -70 -51v0q-1 1 -2 1l-68 57v0q-7 6 -8 15v7v0q2 17 17 27l48 35v0q14 11 31 8l6 -2v0
q9 -4 12 -13l33 -82v0q0 -1 1 -2v0zM316 1q-29 -8 -60 -8t-60 8l56 47v0q2 1 4 1t4 -1l56 -47v0zM162 14q-40 19 -70 51q0 1 1 2l33 82v0q3 9 12 13l6 2v0q17 3 31 -8l48 -35v0q15 -10 17 -27v-7v0q-1 -9 -8 -15l-68 -57v0q-1 0 -2 -1v0v0zM69 94q-33 49 -37 113l62 -39v0
q2 -1 2 -3v0v0v0v0q1 -2 0 -4l-27 -67v0zM34 244q5 44 26 82h3l88 -6v0q10 -1 16 -8l4 -5v0q9 -15 2 -32l-18 -56v0q-5 -18 -21 -25l-6 -2v0q-9 -2 -17 4l-75 47v0q-1 0 -2 1v0zM81 357q38 48 96 70l-17 -71v0q-1 -2 -3 -3q-1 -1 -4 -1l-72 4v1zM0 217q1 -70 34 -128v0v0
q34 -58 94 -94q61 -34 128 -34t128 34q60 36 94 94q33 58 34 128q-1 70 -34 128q-34 58 -94 94q-61 34 -128 34t-128 -34q-60 -36 -94 -94q-33 -58 -34 -128v0zM242 147l-48 35l48 -35l-48 35q-13 11 -9 27l19 56v0q6 16 22 17h60v0q16 -1 22 -17l19 -56v0q4 -16 -9 -27
l-48 -35v0q-14 -9 -28 0v0z" />
</svg>
