<?xml version="1.0" standalone="no"?>
<!DOCTYPE svg PUBLIC "-//W3C//DTD SVG 1.1//EN" "http://www.w3.org/Graphics/SVG/1.1/DTD/svg11.dtd" >
<svg xmlns="http://www.w3.org/2000/svg" xmlns:xlink="http://www.w3.org/1999/xlink" version="1.1" viewBox="-10 -40 532 512">
   <path fill="currentColor"
d="M257 441q-1 -8 -1 -16q0 -9 1 -17q2 -15 17 -15q15 3 15 17q-1 8 -1 15t1 14q74 -12 125 -63q52 -52 64 -126q-7 -1 -14 -1t-15 1q-14 0 -17 -15q0 -14 15 -17q8 -1 17 -1q8 0 16 1v0v-1q-1 -62 -31 -113q-29 -51 -80 -80q-50 -30 -113 -31v0h-1q1 8 1 16q0 9 -1 17
q-2 15 -17 15q-14 -3 -15 -17q1 -8 1 -15v-14q-75 12 -126 64q-52 51 -64 126h14t15 -1q14 1 17 15q0 15 -15 17q-8 1 -17 1q-8 0 -16 -1v1q1 63 31 113q30 51 80 80q51 30 113 31v0h1v0zM0 217q1 -70 34 -128v0v0q34 -58 94 -94q61 -34 128 -34t128 34q60 36 94 94
q33 58 34 128q-1 70 -34 128q-34 58 -94 94q-61 34 -128 34t-128 -34q-60 -36 -94 -94q-33 -58 -34 -128v0zM121 169q59 -28 87 -87q7 -12 21 -8q13 8 8 22q-33 69 -102 102q-14 5 -22 -8q-4 -14 8 -21v0zM391 265q-59 28 -87 87q-7 12 -21 8q-13 -8 -8 -22q33 -69 102 -102
q14 -5 22 8q4 14 -8 21v0z" />
</svg>
