<?xml version="1.0" standalone="no"?>
<!DOCTYPE svg PUBLIC "-//W3C//DTD SVG 1.1//EN" "http://www.w3.org/Graphics/SVG/1.1/DTD/svg11.dtd" >
<svg xmlns="http://www.w3.org/2000/svg" xmlns:xlink="http://www.w3.org/1999/xlink" version="1.1" viewBox="-10 -40 532 512">
   <path fill="currentColor"
d="M32 73q0 14 9 23v0v0q9 9 23 9h176h208q14 0 23 -9t9 -23v-71v0l-23 9v0q-35 14 -72 14h-258v0q-37 0 -71 -14l-24 -9v0v71v0zM240 137h-144h144h-144v80v0h144v0v-80v0zM64 137q-27 -1 -45 -19v0v0q-18 -18 -19 -45v-99v0q1 -12 13 -13q3 0 5 1l49 20v0q29 11 60 11h258
v0q31 0 60 -11l49 -20v0q2 -1 5 -1q12 1 13 13v99v0q-1 27 -19 45t-45 19v80v0h48v0q15 1 16 16q-1 15 -16 16h-48v0v208v0q-1 15 -16 16q-15 -1 -16 -16v-208v0h-160h-160v208v0q-1 15 -16 16q-15 -1 -16 -16v-208v0h-48v0q-15 -1 -16 -16q1 -15 16 -16h48v0v-80v0z
M416 137h-144h144h-144v80v0h144v0v-80v0z" />
</svg>
