<?xml version="1.0" standalone="no"?>
<!DOCTYPE svg PUBLIC "-//W3C//DTD SVG 1.1//EN" "http://www.w3.org/Graphics/SVG/1.1/DTD/svg11.dtd" >
<svg xmlns="http://www.w3.org/2000/svg" xmlns:xlink="http://www.w3.org/1999/xlink" version="1.1" viewBox="-10 -40 596 512">
   <path fill="currentColor"
d="M320 -23q-1 -15 -16 -16q-15 1 -16 16v7v0l-4 2v0l-216 57v0q-16 5 -26 17q-10 13 -10 30v207v0q1 20 14 34q14 13 34 14h384v0q20 -1 34 -14q13 -14 14 -34v-30v0q0 -28 -17 -49q-16 -21 -44 -29l-131 -32v0v-52v0v-128v0zM76 74l212 -56l-212 56l212 -56v71v0h-48v0
q-15 1 -16 16q1 15 16 16h48v0v32v0h-48v0q-15 1 -16 16q1 15 16 16h62v0l142 35v0q16 5 26 17q10 13 10 30v30v0q-1 15 -16 16h-384v0q-15 -1 -16 -16v-207v0q1 -12 12 -16v0zM128 393v-16v16v-16h-32v0v16v0v48v0h-80v0q-15 1 -16 16q1 15 16 16h96h384q34 -1 57 -23
q22 -23 23 -57q-1 -15 -16 -16q-15 1 -16 16q-1 20 -14 34q-14 13 -34 14h-80v0v-48v0v-16v0h-32v0v16v0v48v0h-256v0v-48v0z" />
</svg>
