<?xml version="1.0" standalone="no"?>
<!DOCTYPE svg PUBLIC "-//W3C//DTD SVG 1.1//EN" "http://www.w3.org/Graphics/SVG/1.1/DTD/svg11.dtd" >
<svg xmlns="http://www.w3.org/2000/svg" xmlns:xlink="http://www.w3.org/1999/xlink" version="1.1" viewBox="-10 -40 522 512">
   <path fill="currentColor"
d="M418 248l-50 81l50 -81l-50 81h91v0q4 0 5 -5q0 -2 -1 -3l-45 -73v0zM400 217l-69 -112l69 112l-69 -112h-150v0l-68 112v0l68 112v0h150v0l69 -112v0zM437 217l53 87l-53 -87l53 87q6 9 6 20q-1 16 -11 26q-11 11 -26 11h-110v0l-56 92v0q-13 19 -37 20q-24 -1 -37 -20
l-56 -92v0h-110v0q-15 0 -26 -11t-11 -26q0 -11 6 -20l53 -87v0l-53 -87v0q-6 -9 -6 -20q0 -15 11 -26t26 -11h110v0l57 -91v0q12 -20 36 -21q24 1 37 21l56 91v0h110v0q16 0 26 11q11 11 11 26q0 11 -5 20l-54 87v0zM368 105l50 81l-50 -81l50 81l45 -73v0q1 -1 1 -3
q0 -4 -5 -5h-91v0zM311 73l-46 -75l46 75l-46 -75q-3 -5 -9 -5t-9 5l-46 75v0h110v0zM144 105h-91h91h-91q-5 0 -5 5q0 2 1 3l45 73v0l50 -81v0zM94 248l-45 73l45 -73l-45 73q-1 1 -1 3q0 4 5 5h91v0l-50 -81v0zM201 361l46 75l-46 -75l46 75q3 5 9 5t9 -5l46 -75v0h-110v0
z" />
</svg>
