<?xml version="1.0" standalone="no"?>
<!DOCTYPE svg PUBLIC "-//W3C//DTD SVG 1.1//EN" "http://www.w3.org/Graphics/SVG/1.1/DTD/svg11.dtd" >
<svg xmlns="http://www.w3.org/2000/svg" xmlns:xlink="http://www.w3.org/1999/xlink" version="1.1" viewBox="-10 -40 468 512">
   <path fill="currentColor"
d="M448 129q-1 51 -32 88q31 37 32 88q-1 58 -40 96q-38 39 -96 40q-51 -1 -88 -32q-37 31 -88 32q-58 -1 -96 -40q-39 -38 -40 -96q1 -51 32 -88q-31 -37 -32 -88q1 -58 40 -96q38 -39 96 -40q51 1 88 32q37 -31 88 -32q58 1 96 40q39 38 40 96v0zM203 50q-28 -24 -67 -25
q-44 1 -74 30q-29 30 -30 74q1 39 25 67q15 21 0 42q-24 28 -25 67q1 44 30 74q30 29 74 30q39 -1 67 -25q21 -15 42 0q28 24 67 25q44 -1 74 -30q29 -30 30 -74q-1 -39 -25 -67q-15 -21 0 -42q24 -28 25 -67q-1 -44 -30 -74q-30 -29 -74 -30q-39 1 -67 25q-21 15 -42 0v0z
M272 217q-1 -27 -24 -42q-24 -12 -48 0q-23 15 -24 42q1 27 24 42q24 12 48 0q23 -15 24 -42v0zM144 217q1 -45 40 -69q40 -22 80 0q39 24 40 69q-1 45 -40 69q-40 22 -80 0q-39 -24 -40 -69v0z" />
</svg>
