<?xml version="1.0" standalone="no"?>
<!DOCTYPE svg PUBLIC "-//W3C//DTD SVG 1.1//EN" "http://www.w3.org/Graphics/SVG/1.1/DTD/svg11.dtd" >
<svg xmlns="http://www.w3.org/2000/svg" xmlns:xlink="http://www.w3.org/1999/xlink" version="1.1" viewBox="-10 -40 525 512">
   <path fill="currentColor"
d="M16 185q-17 32 0 64l92 160v0q19 31 56 32h184v0q37 -1 56 -32l92 -160v0q17 -32 0 -64l-92 -160v0q-19 -31 -56 -32h-184v0q-37 1 -56 32l-92 160v0zM44 233q-9 -16 0 -32l92 -160v0q10 -15 28 -16h184v0q18 1 28 16l92 160v0q9 16 0 32l-92 160v0q-10 15 -28 16h-184v0
q-18 -1 -28 -16l-92 -160v0z" />
</svg>
