<?xml version="1.0" standalone="no"?>
<!DOCTYPE svg PUBLIC "-//W3C//DTD SVG 1.1//EN" "http://www.w3.org/Graphics/SVG/1.1/DTD/svg11.dtd" >
<svg xmlns="http://www.w3.org/2000/svg" xmlns:xlink="http://www.w3.org/1999/xlink" version="1.1" viewBox="-10 -40 650 512">
   <path fill="currentColor"
d="M448 249q-54 -1 -91 -37v0v0q-36 -37 -37 -91q1 -50 32 -85v85v0q1 41 28 68t68 28q41 -1 68 -28t28 -68v-85v0q31 35 32 85q-1 54 -37 91q-37 36 -91 37v0zM448 -7q39 1 69 20l-35 28v0h-68v0l-35 -28v0q30 -19 69 -20v0zM512 268q43 -20 69 -58v0v0q26 -39 27 -89
q-2 -68 -47 -113t-113 -47q-68 2 -113 47t-47 113q0 7 1 14q-53 14 -94 47q-42 32 -67 78v-122v0q-1 -31 -20 -53t-50 -27l-8 -1v0q-15 0 -18 14q0 15 14 18l8 1v0q18 3 30 16t12 32v247v0v8v0q1 34 23 57q23 22 57 23v0v0h128h43q16 0 26 -11q11 -10 11 -26q0 -20 -11 -35
t-29 -21l72 -40v0v85v0q1 20 14 34q14 13 34 14q20 -1 34 -14q13 -14 14 -34v-157v0zM480 278v147v-147v147q-1 15 -16 16q-15 -1 -16 -16v-112v0q0 -9 -8 -14q-8 -4 -16 0l-120 67v0v-13v0q-1 -31 -21 -51t-51 -21h-8v0q-15 1 -16 16q1 15 16 16h8v0q17 0 28 12
q12 11 12 28v40v0v0v0q1 15 16 16h37v0q25 2 27 27q0 5 -5 5h-43v0v0v0h-128v0q-20 -1 -34 -14q-13 -14 -14 -34v-8v0q1 -79 47 -138q45 -59 120 -81q15 51 56 82q42 32 97 33q17 0 32 -3v0zM240 -23q-1 -15 -16 -16q-15 1 -16 16v32v0h-32v0q-15 1 -16 16q1 15 16 16h32v0
v32v0q1 15 16 16q15 -1 16 -16v-32v0h32v0q15 -1 16 -16q-1 -15 -16 -16h-32v0v-32v0zM384 58l14 12l-14 -12l14 12q4 3 10 3h80v0q6 0 10 -3l14 -12v0v63v0q-1 27 -19 45t-45 19q-27 -1 -45 -19t-19 -45v-63v0zM416 129q15 -1 16 -16q-1 -15 -16 -16q-15 1 -16 16
q1 15 16 16v0zM496 113q-1 -15 -16 -16q-15 1 -16 16q1 15 16 16q15 -1 16 -16v0z" />
</svg>
