<?xml version="1.0" standalone="no"?>
<!DOCTYPE svg PUBLIC "-//W3C//DTD SVG 1.1//EN" "http://www.w3.org/Graphics/SVG/1.1/DTD/svg11.dtd" >
<svg xmlns="http://www.w3.org/2000/svg" xmlns:xlink="http://www.w3.org/1999/xlink" version="1.1" viewBox="-10 -40 532 512">
   <path fill="currentColor"
d="M240 -23q-1 -15 -16 -16q-15 1 -16 16v16v0h-128v0q-15 1 -16 16q1 15 16 16h128v0v48v0h-19v0q-19 0 -34 14l-34 34v0h-105v0q-15 1 -16 16q1 15 16 16h112v0q7 0 11 -5l39 -38v0q5 -5 11 -5h35h35q6 0 11 5l39 38v0q4 5 11 5h48v0q48 1 79 33q32 31 33 79q-2 15 -16 16
h-32v0q-15 -1 -16 -16q-1 -20 -14 -34q-14 -13 -34 -14h-61v0q-9 0 -14 8q-22 38 -69 40q-46 -2 -69 -40q-5 -8 -14 -8h-125v0q-15 1 -16 16q1 15 16 16h116v0q33 46 92 48q59 -2 92 -48h52v0q15 1 16 16q1 20 14 34q14 13 34 14h32v0q20 -1 34 -14q13 -14 14 -34
q-2 -61 -42 -102q-41 -40 -102 -42h-41v0l-34 -34v0q-14 -14 -34 -14h-19v0v-48v0h128v0q15 -1 16 -16q-1 -15 -16 -16h-128v0v-16v0zM448 393l13 21l-13 -21l13 21q3 4 3 9v2v0q-1 15 -16 16q-15 -1 -16 -16v-2v0q0 -5 3 -9l13 -21v0zM436 352l-28 45l28 -45l-28 45
q-8 12 -8 26v2v0q1 20 14 34q14 13 34 14q20 -1 34 -14q13 -14 14 -34v-2v0q0 -14 -8 -26l-28 -45v0q-4 -7 -12 -7t-12 7v0z" />
</svg>
