<?xml version="1.0" standalone="no"?>
<!DOCTYPE svg PUBLIC "-//W3C//DTD SVG 1.1//EN" "http://www.w3.org/Graphics/SVG/1.1/DTD/svg11.dtd" >
<svg xmlns="http://www.w3.org/2000/svg" xmlns:xlink="http://www.w3.org/1999/xlink" version="1.1" viewBox="-10 -40 661 512">
   <path fill="currentColor"
d="M192 -23q-1 -15 -16 -16q-15 1 -16 16v48v0q1 15 16 16q15 -1 16 -16v-48v0zM16 121q-15 1 -16 16q1 15 16 16h48v0q15 -1 16 -16q-1 -15 -16 -16h-48v0zM277 14l-32 32l32 -32l-32 32q-10 11 0 22q11 10 22 0l32 -32v0q10 -11 0 -22q-11 -10 -22 0v0zM410 61
q-10 -8 -20 0l-224 192v0q-11 11 -2 23q11 10 23 1l37 -32v0v164v0q1 27 19 45t45 19h224v0q27 -1 45 -19t19 -45v-164v0l38 32v0q12 9 22 -2q9 -12 -2 -22l-224 -192v0zM544 218v191v-191v191q0 14 -9 23t-23 9h-224v0q-14 0 -23 -9t-9 -23v-191v0l144 -124v0l144 124v0z
M336 265v64v-64v64q0 14 9 23t23 9h64v0q14 0 23 -9t9 -23v-64v0q0 -14 -9 -23t-23 -9h-64v0q-14 0 -23 9t-9 23v0zM432 265v64v-64v64h-64v0v-64v0h64v0zM144 137q0 -14 9 -23v0v0q9 -9 23 -9q22 1 30 21q6 14 21 10q13 -6 9 -20q-7 -19 -23 -31t-37 -12q-27 1 -45 19
t-19 45q0 21 12 37t31 23q14 4 20 -9q4 -15 -10 -21q-20 -8 -21 -30v0zM107 228q10 -11 0 -22q-11 -10 -22 0l-32 32v0q-10 11 0 22q11 10 22 0l32 -32v0zM53 14q-10 11 0 22l32 32v0q11 10 22 0q10 -11 0 -22l-32 -32v0q-11 -10 -22 0v0z" />
</svg>
