<?xml version="1.0" standalone="no"?>
<!DOCTYPE svg PUBLIC "-//W3C//DTD SVG 1.1//EN" "http://www.w3.org/Graphics/SVG/1.1/DTD/svg11.dtd" >
<svg xmlns="http://www.w3.org/2000/svg" xmlns:xlink="http://www.w3.org/1999/xlink" version="1.1" viewBox="-10 -40 531 512">
   <path fill="currentColor"
d="M256 -39q15 1 16 16v145v0q94 7 160 69q65 61 78 154q1 14 -8 23q-8 9 -22 9h-448v0q-14 0 -22 -9q-9 -9 -8 -23q13 -93 78 -154q66 -62 160 -69v-145v0q1 -15 16 -16v0zM34 345h444h-444h444q-14 -83 -75 -137q-61 -53 -147 -55q-86 2 -147 55q-61 54 -75 137v0z
M256 473q-30 -1 -51 -18v0v0q-21 -18 -27 -46h33v0q12 30 45 32q33 -2 45 -32h33v0q-6 28 -27 46q-21 17 -51 18v0z" />
</svg>
