<?xml version="1.0" standalone="no"?>
<!DOCTYPE svg PUBLIC "-//W3C//DTD SVG 1.1//EN" "http://www.w3.org/Graphics/SVG/1.1/DTD/svg11.dtd" >
<svg xmlns="http://www.w3.org/2000/svg" xmlns:xlink="http://www.w3.org/1999/xlink" version="1.1" viewBox="-10 -40 468 512">
   <path fill="currentColor"
d="M64 25q-14 0 -23 9v0v0q-9 9 -9 23v320v0q0 14 9 23t23 9h320v0q14 0 23 -9t9 -23v-320v0q0 -14 -9 -23t-23 -9h-320v0zM0 57q1 -27 19 -45v0v0q18 -18 45 -19h320v0q27 1 45 19t19 45v320v0q-1 27 -19 45t-45 19h-320v0q-27 -1 -45 -19t-19 -45v-320v0zM96 217
q1 37 14 60v0v0q13 23 26 33q1 2 10 3h156v0q9 -1 11 -3q12 -10 25 -33t14 -60q-1 -37 -14 -60t-25 -33q-2 -2 -11 -3h-156v0q-9 1 -10 3q-13 10 -26 33t-14 60v0zM64 217q1 -46 18 -75v0v0q16 -29 32 -42q14 -11 32 -11h156v0q18 0 32 11q16 13 32 42q17 29 18 75
q-1 46 -18 75q-16 28 -32 42q-14 11 -32 11h-156v0q-18 0 -32 -11q-16 -14 -32 -42q-17 -29 -18 -75v0zM176 153q15 1 16 16v48v0q-1 15 -16 16q-15 -1 -16 -16v-48v0q1 -15 16 -16v0zM272 153q15 1 16 16v48v0q-1 15 -16 16q-15 -1 -16 -16v-48v0q1 -15 16 -16v0zM224 249
q22 2 24 24v16v0q-1 7 -8 8h-32v0q-7 -1 -8 -8v-16v0q2 -22 24 -24v0z" />
</svg>
