<?xml version="1.0" standalone="no"?>
<!DOCTYPE svg PUBLIC "-//W3C//DTD SVG 1.1//EN" "http://www.w3.org/Graphics/SVG/1.1/DTD/svg11.dtd" >
<svg xmlns="http://www.w3.org/2000/svg" xmlns:xlink="http://www.w3.org/1999/xlink" version="1.1" viewBox="-10 -40 660 512">
   <path fill="currentColor"
d="M384 25q14 0 23 9v0v0q9 9 9 23v320v0q0 14 -9 23t-23 9h-320v0q-14 0 -23 -9t-9 -23v-320v0q0 -14 9 -23t23 -9h320v0zM64 -7q-27 1 -45 19v0v0q-18 18 -19 45v320v0q1 27 19 45t45 19h320v0q27 -1 45 -19t19 -45v-320v0q-1 -27 -19 -45t-45 -19h-320v0zM112 89
q-15 1 -16 16v128v0q1 15 16 16q15 -1 16 -16v-128v0q-1 -15 -16 -16v0zM176 89q-15 1 -16 16v128v0q1 15 16 16q15 -1 16 -16v-128v0q-1 -15 -16 -16v0zM600 55q12 -9 6 -22q-9 -12 -22 -6l-80 48v0q-12 9 -6 22q9 12 22 6l80 -48v0zM528 201q-15 1 -16 16q1 15 16 16h96v0
q15 -1 16 -16q-1 -15 -16 -16h-96v0zM520 331q-13 -6 -22 6q-6 13 6 22l80 48v0q13 6 22 -6q6 -13 -6 -22l-80 -48v0z" />
</svg>
