<?xml version="1.0" standalone="no"?>
<!DOCTYPE svg PUBLIC "-//W3C//DTD SVG 1.1//EN" "http://www.w3.org/Graphics/SVG/1.1/DTD/svg11.dtd" >
<svg xmlns="http://www.w3.org/2000/svg" xmlns:xlink="http://www.w3.org/1999/xlink" version="1.1" viewBox="-10 -40 532 512">
   <path fill="currentColor"
d="M32 217q1 63 31 113v0v0q29 51 80 80v0v0q50 30 113 31q47 0 89 -18q6 13 17 24l2 2q-50 24 -108 24q-72 -1 -129 -35q-58 -34 -92 -92q-34 -57 -35 -129q1 -77 41 -138q-9 -13 -9 -30q1 -24 16 -40q16 -15 40 -16q17 0 30 9q5 3 9 7v0v0h1v0l11 17v0q-4 -9 -11 -16v0v0
q7 7 11 16v0v0q5 10 5 23q-1 24 -16 40q-16 15 -40 16q-12 0 -23 -5q-32 52 -33 117v0zM394 433v0v0v0l-10 -8v0v0q-7 -8 -11 -17v0v0q-5 -11 -5 -23q1 -24 16 -40q16 -15 40 -16q12 0 23 5q32 -52 33 -117q-1 -63 -31 -113q-29 -51 -80 -80q-50 -30 -113 -31q-47 0 -88 18
q-7 -13 -18 -24l-2 -2q50 -24 108 -24q72 1 129 35q58 34 92 92q34 57 35 129q-1 77 -40 138q8 13 8 30q-1 24 -16 40q-16 15 -40 16q-17 0 -30 -8v0zM112 49q-2 -22 -24 -24q-22 2 -24 24q2 22 24 24q22 -2 24 -24v0zM366 151q-7 2 -14 2q-17 0 -28 -12q-12 -11 -12 -28
q0 -5 1 -10q-26 -14 -57 -14q-54 1 -91 37q-36 37 -37 91q1 54 37 91q37 36 91 37q54 -1 91 -37q36 -37 37 -91q0 -37 -18 -66v0zM389 128q26 39 27 89q-2 68 -47 113t-113 47q-68 -2 -113 -47t-47 -113q2 -68 47 -113t113 -47q43 0 78 20q8 -4 18 -4q17 0 28 12
q12 11 12 28q0 8 -3 15v0zM208 217q1 27 24 42q24 12 48 0q23 -15 24 -42q-1 -27 -24 -42q-24 -12 -48 0q-23 15 -24 42v0zM256 297q-45 -1 -69 -40q-22 -40 0 -80q24 -39 69 -40q45 1 69 40q22 40 0 80q-24 39 -69 40v0zM424 409q22 -2 24 -24q-2 -22 -24 -24q-22 2 -24 24
q2 22 24 24v0z" />
</svg>
