<?xml version="1.0" standalone="no"?>
<!DOCTYPE svg PUBLIC "-//W3C//DTD SVG 1.1//EN" "http://www.w3.org/Graphics/SVG/1.1/DTD/svg11.dtd" >
<svg xmlns="http://www.w3.org/2000/svg" xmlns:xlink="http://www.w3.org/1999/xlink" version="1.1" viewBox="-10 -40 532 512">
   <path fill="currentColor"
d="M32 217q1 -63 31 -113v0v0q29 -51 80 -80v0v0q50 -30 113 -31q63 1 113 31q51 29 80 80q30 50 31 113q0 22 -4 43l-4 2q-1 0 -3 1q-26 10 -77 22t-136 13q-85 -1 -136 -13t-77 -22v0v0q-2 -1 -3 -1l-4 -2q-4 -21 -4 -43v0zM256 330q78 0 129 -11v0v0q51 -10 80 -21
q-26 64 -81 103q-56 39 -128 40q-72 -1 -128 -40q-55 -39 -81 -103q29 11 80 21q51 11 129 12v-1zM256 -39q-70 1 -128 34v0v0q-58 34 -94 94q-34 61 -34 128t34 128q36 60 94 94q58 33 128 34q70 -1 128 -34q58 -34 94 -94q34 -61 34 -128t-34 -128q-36 -60 -94 -94
q-58 -33 -128 -34v0zM136 121q1 -32 28 -48q28 -16 56 0q27 16 28 48q-1 32 -28 48q-28 16 -56 0q-27 -16 -28 -48v0zM280 121q-2 -50 -44 -76q-44 -24 -88 0q-42 26 -44 76q2 50 44 76q44 24 88 0q42 -26 44 -76v0zM192 145q22 -2 24 -24q-2 -22 -24 -24q-22 2 -24 24
q2 22 24 24v0z" />
</svg>
