<?xml version="1.0" standalone="no"?>
<!DOCTYPE svg PUBLIC "-//W3C//DTD SVG 1.1//EN" "http://www.w3.org/Graphics/SVG/1.1/DTD/svg11.dtd" >
<svg xmlns="http://www.w3.org/2000/svg" xmlns:xlink="http://www.w3.org/1999/xlink" version="1.1" viewBox="-10 -40 660 512">
   <path fill="currentColor"
d="M394 138q-7 4 -9 11l-200 -180v0q-9 -8 -21 -8h-4v0q-14 0 -23 9t-9 23v4v0q0 12 8 21l248 275v0v7v0q0 20 14 34l126 126v0q13 13 32 13t32 -13l39 -39v0q13 -13 13 -32t-13 -32l-216 -215v0q-7 -7 -17 -4v0zM160 -3v-4v4v-4h4v0l220 199v0v53v0l-224 -248v0zM513 289
l-28 29l28 -29l-28 29l-29 28v0l-35 -35v0q-5 -5 -5 -11v-108v0l97 97v0zM536 312l68 68l-68 -68l68 68q4 4 4 9t-4 9l-8 8v0l-77 -77v0l17 -17v0zM573 429l-8 8l8 -8l-8 8q-4 4 -9 4t-9 -4l-68 -68v0l17 -17v0l77 77v0zM198 201l-11 -11l11 11l-11 -11q-11 -10 -22 0
q-9 11 0 22l5 5v0l-58 58v0q-10 -5 -19 3l-77 76v0q-16 16 -16 39t16 39l25 25v0q16 16 39 16t39 -16l76 -77v0q5 -4 5 -11q0 -4 -2 -7l58 -58v0l5 4v0q11 10 22 0q10 -11 0 -22l-11 -11v0l27 -29v0l-22 -24v0l-27 30v0l-29 -29v0l32 -28v0l-22 -24v0l-33 30v0zM480 -3
l-97 108l97 -108l-97 108l3 2v0q18 -5 35 3l83 -92v0q8 -9 8 -21v-4v0q0 -14 -9 -23t-23 -9h-4v0q-12 0 -21 8l-111 100v0l24 22v0l108 -98v0h4v0v4v0zM152 280l41 41l-41 -41l41 41l-17 17v0l-41 -41v0l17 -17v0zM175 257l17 -17l-17 17l17 -17l41 41v0l-17 17v0l-41 -41v0
zM39 377l65 -65l-65 65l65 -65l57 57v0l-65 65v0q-7 7 -16 7t-16 -7l-25 -25v0q-7 -7 -7 -16t7 -16v0z" />
</svg>
