<?xml version="1.0" standalone="no"?>
<!DOCTYPE svg PUBLIC "-//W3C//DTD SVG 1.1//EN" "http://www.w3.org/Graphics/SVG/1.1/DTD/svg11.dtd" >
<svg xmlns="http://www.w3.org/2000/svg" xmlns:xlink="http://www.w3.org/1999/xlink" version="1.1" viewBox="-10 -40 652 512">
   <path fill="currentColor"
d="M56 25h400h-400h400q22 2 24 24v264v0h-197v0q-11 -28 -35 -46q-24 -17 -56 -18q-32 1 -56 18q-24 18 -34 46h-46v0q-22 -2 -24 -24v-240v0q2 -22 24 -24v0zM288 345h328h-328h328q15 -1 16 -16q-1 -15 -16 -16h-104v0v-264v0q-1 -24 -16 -40q-16 -15 -40 -16h-400v0
q-24 1 -40 16q-15 16 -16 40v240v0q1 24 16 40q16 15 40 16h40v0q1 41 28 68t68 28q41 -1 68 -28t28 -68v0zM256 345q-1 36 -32 55q-32 18 -64 0q-31 -19 -32 -55q1 -36 32 -55q32 -18 64 0q31 19 32 55v0zM112 57q-15 1 -16 16v128v0q1 15 16 16q15 -1 16 -16v-128v0
q-1 -15 -16 -16v0zM208 57q-15 1 -16 16v128v0q1 15 16 16q15 -1 16 -16v-128v0q-1 -15 -16 -16v0zM304 57q-15 1 -16 16v160v0q1 15 16 16q15 -1 16 -16v-160v0q-1 -15 -16 -16v0zM400 57q-15 1 -16 16v160v0q1 15 16 16q15 -1 16 -16v-160v0q-1 -15 -16 -16v0z" />
</svg>
