<?xml version="1.0" standalone="no"?>
<!DOCTYPE svg PUBLIC "-//W3C//DTD SVG 1.1//EN" "http://www.w3.org/Graphics/SVG/1.1/DTD/svg11.dtd" >
<svg xmlns="http://www.w3.org/2000/svg" xmlns:xlink="http://www.w3.org/1999/xlink" version="1.1" viewBox="-10 -40 532 512">
   <path fill="currentColor"
d="M464 -39q15 1 16 16v16v0h16v0q15 1 16 16q-1 15 -16 16h-16v0v16v0q-1 15 -16 16q-15 -1 -16 -16v-16v0h-16v0q-15 -1 -16 -16q1 -15 16 -16h16v0v-16v0q1 -15 16 -16v0zM48 25q15 1 16 16v16v0h16v0q15 1 16 16q-1 15 -16 16h-16v0v16v0q-1 15 -16 16q-15 -1 -16 -16
v-16v0h-16v0q-15 -1 -16 -16q1 -15 16 -16h16v0v-16v0q1 -15 16 -16v0zM256 41q22 -2 24 -24q-2 -22 -24 -24q-22 2 -24 24q2 22 24 24v0zM256 -39q32 1 48 28q16 28 0 56q-16 27 -48 28q-32 -1 -48 -28q-16 -28 0 -56q16 -27 48 -28v0zM128 457q-1 15 -16 16
q-15 -1 -16 -16q1 -20 14 -34q14 -13 34 -14h224v0q20 1 34 14q13 14 14 34q-1 15 -16 16q-15 -1 -16 -16t-16 -16h-224v0q-15 1 -16 16v0zM192 154q0 1 -1 1v0v0v1l-66 87v0q-10 10 -23 3q-10 -10 -3 -23l66 -86v0q24 -31 64 -32h54v0q40 1 64 32l66 86v0q7 13 -3 23
q-13 8 -23 -3l-65 -87v0l-1 -1q-1 0 -1 -1v111v0v96v0v16v0h-32v0v-16v0v-80v0h-64v0v80v0v16v0h-32v0v-16v0v-96v0v-111v0zM224 137v112v-112v112h64v0v-112v0h-5v0h-54v0h-5v0z" />
</svg>
