<?xml version="1.0" standalone="no"?>
<!DOCTYPE svg PUBLIC "-//W3C//DTD SVG 1.1//EN" "http://www.w3.org/Graphics/SVG/1.1/DTD/svg11.dtd" >
<svg xmlns="http://www.w3.org/2000/svg" xmlns:xlink="http://www.w3.org/1999/xlink" version="1.1" viewBox="-10 -40 468 512">
   <path fill="currentColor"
d="M224 185q32 -1 56 -18v0v0q24 -18 35 -46h-181v0q10 28 34 46q24 17 56 18v0zM224 217q-46 -1 -80 -28v0v0q-34 -27 -45 -71q-18 -8 -19 -29v-32v0q0 -14 9 -23t23 -9h1v0q17 -29 46 -46q29 -18 65 -18t65 18q29 17 46 46h1v0q14 0 23 9t9 23v32v0q-1 21 -19 29
q-11 44 -45 71t-80 28v0zM152 25h144h-144h144q-28 -31 -72 -32q-44 1 -72 32v0zM178 297q-61 2 -102 42v0v0q-42 41 -44 102h384v0q-2 -61 -44 -102q-41 -40 -102 -42h-92v0zM0 443q2 -75 52 -126v0v0q51 -50 126 -52h92v0q75 2 126 52q50 51 52 126q0 13 -9 21q-8 9 -21 9
h-388v0q-13 0 -21 -9q-9 -8 -9 -21v0zM336 57h-224h224h-224v32v0h224v0v-32v0zM329 398q-7 1 -16 7v0v0q-9 6 -16 13l-2 2q-3 2 -4 4q-6 2 -7 -4q6 -55 36 -89q3 -3 6 0q28 37 30 90q-2 6 -7 2q-18 -24 -20 -25v0z" />
</svg>
