<?xml version="1.0" standalone="no"?>
<!DOCTYPE svg PUBLIC "-//W3C//DTD SVG 1.1//EN" "http://www.w3.org/Graphics/SVG/1.1/DTD/svg11.dtd" >
<svg xmlns="http://www.w3.org/2000/svg" xmlns:xlink="http://www.w3.org/1999/xlink" version="1.1" viewBox="-10 -40 660 512">
   <path fill="currentColor"
d="M224 185q26 0 48 -13v0v0q22 -13 35 -35q13 -23 13 -48t-13 -48q-13 -22 -35 -35t-48 -13t-48 13t-35 35q-13 23 -13 48t13 48q13 22 35 35t48 13v0zM224 -39q35 0 64 17v0v0q29 17 47 47q17 30 17 64t-17 64q-18 30 -47 47t-64 17t-64 -17t-47 -47q-17 -30 -17 -64
t17 -64q18 -30 47 -47t64 -17v0zM178 297q-61 2 -102 42v0v0q-42 41 -44 102h352v0q0 18 9 32h-363v0q-13 0 -21 -9q-9 -8 -9 -21q2 -75 52 -126q51 -50 126 -52h92v0q66 1 114 42v6v39v0q-20 -25 -50 -40q-29 -15 -64 -15h-92v0zM480 233v48v-48v48h32h96q14 0 23 9t9 23
v128v0q0 14 -9 23t-23 9h-160v0q-14 0 -23 -9t-9 -23v-128v0q0 -14 9 -23t23 -9v-48v0q1 -34 23 -57q23 -22 57 -23q34 1 57 23q22 23 23 57h-32v0q-1 -20 -14 -34q-14 -13 -34 -14q-20 1 -34 14q-13 14 -14 34v0zM448 441h160h-160h160v-128v0h-160v0v128v0z" />
</svg>
