<?xml version="1.0" standalone="no"?>
<!DOCTYPE svg PUBLIC "-//W3C//DTD SVG 1.1//EN" "http://www.w3.org/Graphics/SVG/1.1/DTD/svg11.dtd" >
<svg xmlns="http://www.w3.org/2000/svg" xmlns:xlink="http://www.w3.org/1999/xlink" version="1.1" viewBox="-10 -40 532 512">
   <path fill="currentColor"
d="M415 -19q3 -14 -11 -19q-14 -3 -19 11l-6 21v0q-18 -2 -36 2q-21 5 -40 11l-8 -20v0q-7 -13 -21 -9q-13 7 -9 21l8 19v0q-41 16 -73 38l-11 -16v0q-9 -11 -22 -4q-11 9 -4 22l11 16v0q-37 29 -63 61l-13 -10v0q-12 -9 -22 2q-9 12 2 23l14 11v0l-10 16q-16 27 -27 56
l-17 -7v0q-14 -4 -21 9q-4 14 9 21l18 7v0q-8 28 -11 56q-2 15 1 28l-22 7v0q-14 5 -11 19q5 14 19 11l23 -6v0q17 34 52 52l-6 23v0q-3 14 11 19q14 3 19 -11l7 -22v0q4 1 8 1q41 3 72 -18l15 14v0q11 10 22 0q10 -11 0 -22l-13 -13v0q21 -25 25 -60q2 -11 6 -22l21 9v0
q14 4 21 -9q4 -14 -9 -21l-18 -8v0q14 -27 58 -54l3 9v0q5 14 20 11q13 -5 11 -19l-4 -14v0q13 -5 29 -9q27 -6 47 -23l13 13v0q11 10 22 0q10 -11 0 -22l-14 -15v0q24 -35 18 -80l21 -7v0q14 -5 11 -19q-5 -14 -19 -11l-23 6v0q-20 -39 -59 -55l5 -20v0zM341 197q-1 0 -1 1
v0v0v0q-3 0 -5 2q-35 16 -56 36q-21 21 -32 40q-17 26 -23 60v1v1q-5 33 -29 53q-25 20 -58 18q-34 -4 -54 -29q-21 -24 -19 -58q9 -68 45 -128q30 -52 88 -98t153 -69q33 -7 60 10t36 50q7 33 -10 60t-50 36q-25 6 -46 14h1zM264 169q-2 -22 -24 -24q-22 2 -24 24
q2 22 24 24q22 -2 24 -24v0zM176 281q-1 15 -16 16q-15 -1 -16 -16q1 -15 16 -16q15 1 16 16v0zM160 233q-27 1 -42 24q-12 24 0 48q15 23 42 24q27 -1 42 -24q12 -24 0 -48q-15 -23 -42 -24v0z" />
</svg>
