<?xml version="1.0" standalone="no"?>
<!DOCTYPE svg PUBLIC "-//W3C//DTD SVG 1.1//EN" "http://www.w3.org/Graphics/SVG/1.1/DTD/svg11.dtd" >
<svg xmlns="http://www.w3.org/2000/svg" xmlns:xlink="http://www.w3.org/1999/xlink" version="1.1" viewBox="-10 -40 628 512">
   <path fill="currentColor"
d="M432 -15q-2 -22 -24 -24q-22 2 -24 24q2 22 24 24q22 -2 24 -24v0zM240 409v10q49 52 126 54h130v0q20 -1 34 -14q13 -14 14 -34q0 -9 -3 -18q15 -4 25 -17q10 -12 10 -29q0 -9 -3 -18q15 -4 25 -17q10 -12 10 -29t-10 -29q-10 -13 -25 -17q3 -9 3 -18q-1 -20 -14 -34
q-14 -13 -34 -14h-108v0q19 -23 8 -51q-9 -19 -27 -26t-36 1l-70 31v0q-47 22 -75 64q-27 42 -28 95q0 14 2 28q44 28 46 82v0zM32 185q0 42 18 78v0v0q17 36 49 61q19 -10 42 -11q-36 -19 -56 -53q-21 -33 -21 -75v-75v0q2 -15 16 -16q15 1 16 16v46v0q1 12 13 16
q12 2 18 -9l71 -158v0q7 -12 21 -8q13 7 8 21l-39 88v0q-5 14 8 21q14 5 21 -8l40 -87v0l13 -29v0q7 -13 21 -8q13 7 8 21l-13 29v0l-39 86v0q16 -12 35 -20v0v0h1v0l10 -5v0l22 -48v0q7 -13 21 -8q13 7 8 21l-7 16v0l40 -17v0q2 -33 -28 -49q-8 -4 -17 -4q2 -16 -5 -30
q-8 -14 -23 -22q-16 -6 -31 -3q-15 4 -26 16q-6 -6 -14 -10q-19 -8 -37 -1t-27 25l-45 99v0q-12 -27 -43 -29q-21 0 -34 14q-14 13 -14 34l-1 75v0zM378 138q13 -4 21 8q4 14 -8 22l-43 18v0q-11 6 -9 18q3 12 16 13h173v0q15 1 16 16q-1 14 -16 16h-96v0q-15 1 -16 16
q1 14 16 16h96v0v0v0h32v0q15 1 16 16q-1 14 -16 16h-16v0v0v0h-112v0q-15 1 -16 16q1 14 16 16h96v0v0v0q15 1 16 16q-1 14 -16 16h-16v0v0v0h-16h-64q-15 1 -16 16q1 15 16 16h64v0v0v0q15 1 16 16q-2 15 -16 16h-130v0q-60 -2 -100 -42t-42 -100q0 -43 23 -77
q22 -35 61 -53l70 -31v0zM112 409q0 -14 9 -23v0v0q9 -9 23 -9t23 9t9 23t-9 23t-23 9t-23 -9t-9 -23v0zM208 409q-1 -36 -32 -55q-32 -18 -64 0q-31 19 -32 55q1 36 32 55q32 18 64 0q31 -19 32 -55v0zM480 105q1 -15 16 -16q15 1 16 16q-1 15 -16 16q-15 -1 -16 -16v0z
M544 105q-1 -27 -24 -42q-24 -12 -48 0q-23 15 -24 42q1 27 24 42q24 12 48 0q23 -15 24 -42v0z" />
</svg>
