<?xml version="1.0" standalone="no"?>
<!DOCTYPE svg PUBLIC "-//W3C//DTD SVG 1.1//EN" "http://www.w3.org/Graphics/SVG/1.1/DTD/svg11.dtd" >
<svg xmlns="http://www.w3.org/2000/svg" xmlns:xlink="http://www.w3.org/1999/xlink" version="1.1" viewBox="-11 0 662 512">
   <path fill="currentColor"
d="M26 -36q-12 -7 -23 3q-8 12 3 23l608 480v0q12 8 23 -3q8 -12 -3 -22l-608 -481v0zM369 174l11 -11l-11 11l11 -11q10 -11 1 -23q-11 -10 -22 -1l-16 15v0l25 20h1zM287 109l27 -26l-27 26l27 -26q28 -26 66 -26q35 0 62 23l45 37v0q5 4 10 4h95v0q15 -1 16 -16
q-1 -14 -16 -16h-89v0l-40 -34v0q-36 -30 -83 -30q-50 1 -88 35l-31 29v0l26 20v0zM228 63q5 -2 9 -3l36 -35v0h-9v0q-34 0 -65 15l29 23v0zM55 89h-7h7h-7q-15 1 -16 16q1 15 16 16h47v0l-40 -32v0zM194 199v2h3v0l-3 -2v0zM370 338q3 15 -7 27q-10 10 -24 11
q-13 0 -23 -10l-8 -8v0q-6 -5 -14 -4t-12 8q-3 6 -7 10q-11 9 -25 9q-13 -1 -23 -10l-40 -40v0l-29 -29v0q-21 -20 -51 -21h-59v0q-15 2 -16 16q1 15 16 16h59v0q17 0 29 12l28 28v0l16 16v0v0v0l24 24v0q20 19 46 20q25 0 46 -17l2 -2q21 16 46 14q24 -2 43 -22
q9 -11 13 -24l-29 -24h-1zM503 280l40 32l-40 -32l40 32h49v0q15 -2 16 -16q-1 -15 -16 -16h-89v0z" />
</svg>
