<?xml version="1.0" standalone="no"?>
<!DOCTYPE svg PUBLIC "-//W3C//DTD SVG 1.1//EN" "http://www.w3.org/Graphics/SVG/1.1/DTD/svg11.dtd" >
<svg xmlns="http://www.w3.org/2000/svg" xmlns:xlink="http://www.w3.org/1999/xlink" version="1.1" viewBox="-10 -40 660 512">
   <path fill="currentColor"
d="M32 185q2 -82 56 -136v0v0q54 -54 136 -56h16v0q50 1 92 27q41 27 62 70q4 9 9 19q0 1 1 3v0v0v0v0v0v0v0q9 21 19 42q16 32 44 59l4 3v0q9 8 9 21q0 12 -8 20t-20 8h-20v0q-15 2 -16 16v8v0v8v0v10v0l-79 12v0q-14 2 -24 12q-9 11 -9 26t10 26q10 10 25 12l60 5v0
q-5 16 -23 17h-72v0q-15 1 -16 16v24v0q1 15 16 16q15 -1 16 -16v-8v0h56v0q24 -1 40 -16q15 -16 16 -40v-8v0q-1 -14 -15 -16l-75 -6v0q-6 -1 -6 -7q0 -5 6 -6l92 -13v0q13 -3 14 -16v-24v0v0v0h4v0q25 -1 42 -18t18 -42q0 -27 -20 -45l-3 -3v0q-22 -20 -37 -50
q-9 -17 -17 -35l-2 -4v0v0v0v0v0v0v0v0v0v0v0v0v0v0q0 -2 -1 -4q-5 -10 -9 -20q-25 -52 -74 -83t-109 -32h-16v0q-63 1 -113 31q-51 29 -80 80q-30 50 -31 113q2 81 49 140q15 18 15 37v95v0q1 15 16 16q15 -1 16 -16v-95v0q-2 -33 -22 -57q-41 -51 -42 -120v0zM344 185
q22 -2 24 -24q-2 -22 -24 -24q-22 2 -24 24q2 22 24 24v0zM512 353q-2 -22 -24 -24q-22 2 -24 24q2 22 24 24q22 -2 24 -24v0zM616 377q22 -2 24 -24q-2 -22 -24 -24q-22 2 -24 24q2 22 24 24v0zM640 449q-2 -22 -24 -24q-22 2 -24 24q2 22 24 24q22 -2 24 -24v0zM552 329
q22 -2 24 -24q-2 -22 -24 -24q-22 2 -24 24q2 22 24 24v0zM640 257q-2 -22 -24 -24q-22 2 -24 24q2 22 24 24q22 -2 24 -24v0zM552 425q22 -2 24 -24q-2 -22 -24 -24q-22 2 -24 24q2 22 24 24v0z" />
</svg>
