<?xml version="1.0" standalone="no"?>
<!DOCTYPE svg PUBLIC "-//W3C//DTD SVG 1.1//EN" "http://www.w3.org/Graphics/SVG/1.1/DTD/svg11.dtd" >
<svg xmlns="http://www.w3.org/2000/svg" xmlns:xlink="http://www.w3.org/1999/xlink" version="1.1" viewBox="-10 -40 532 512">
   <path fill="currentColor"
d="M32 185q2 -82 56 -136v0v0q54 -54 136 -56h16v0q50 1 92 27q41 27 62 70q4 9 9 19q0 1 1 3v0v0v0v0v0q9 21 19 42q16 32 44 59l4 3v0q9 8 9 21q0 12 -8 20t-20 8h-20v0q-15 2 -16 16v64v0q0 14 -9 23t-23 9h-80v0q-15 2 -16 16v64v0q1 15 16 16q15 -1 16 -16v-48v0h64v0
q27 -1 45 -19t19 -45v-48v0h4v0q25 -1 42 -18t18 -42q0 -27 -20 -45l-3 -3v0q-22 -20 -37 -50q-9 -17 -17 -35l-2 -4v0v0q0 -2 -1 -4q-5 -10 -9 -20q-25 -52 -74 -83t-109 -32h-16v0q-63 1 -113 31q-51 29 -80 80q-30 50 -31 113q2 81 49 140q15 18 15 37v95v0q1 15 16 16
q15 -1 16 -16v-95v0q-2 -33 -22 -57q-41 -51 -42 -120v0zM326 248q-17 -19 -8 -40v0v0q9 -21 34 -23q15 -1 16 -16q-1 -15 -16 -16q-25 -2 -34 -23t8 -40q9 -11 0 -23q-12 -9 -23 0q-19 17 -40 8t-23 -34q-1 -15 -16 -16q-15 1 -16 16q-2 25 -23 34t-40 -8q-11 -9 -23 0
q-9 11 0 23q17 19 8 40t-34 23q-15 1 -16 16q1 15 16 16q25 2 34 23t-8 40q-9 12 0 23q12 9 23 0q19 -17 40 -8t23 34q1 15 16 16q15 -1 16 -16q2 -25 23 -34t40 8q12 9 23 0q9 -12 0 -23v0zM308 169q-27 24 -25 59q-35 -2 -59 25q-24 -27 -59 -25q2 -35 -25 -59
q27 -24 25 -59q35 2 59 -25q10 12 24 19q17 7 35 6q-2 35 25 59v0zM208 177q22 -2 24 -24q-2 -22 -24 -24q-22 2 -24 24q2 22 24 24v0zM256 201q-1 -15 -16 -16q-15 1 -16 16q1 15 16 16q15 -1 16 -16v0z" />
</svg>
