<?xml version="1.0" standalone="no"?>
<!DOCTYPE svg PUBLIC "-//W3C//DTD SVG 1.1//EN" "http://www.w3.org/Graphics/SVG/1.1/DTD/svg11.dtd" >
<svg xmlns="http://www.w3.org/2000/svg" xmlns:xlink="http://www.w3.org/1999/xlink" version="1.1" viewBox="-10 -40 650 512">
   <path fill="currentColor"
d="M128 57q14 0 23 -9v0v0q9 -9 9 -23t-9 -23t-23 -9t-23 9t-9 23t9 23t23 9v0zM128 -39q36 1 55 32q18 32 0 64q-19 31 -55 32q-36 -1 -55 -32q-18 -32 0 -64q19 -31 55 -32v0zM106 153q-20 0 -33 13v0v0q-13 12 -15 31l-4 49v0q-1 15 8 25t24 10h45v0q3 10 11 18l14 14v0
h-60v0v144v0q-1 15 -16 16q-15 -1 -16 -16v-148v0q-20 -7 -32 -25t-10 -40l4 -50v0q3 -31 25 -52q23 -20 55 -21h44v0q45 2 68 37q-6 4 -12 9l-13 13v0q-13 -26 -43 -27h-44v0zM160 457v-140v140v-140l32 32v0v108v0q-1 15 -16 16q-15 -1 -16 -16v0zM448 457v-108v108v-108
l32 -32v0v140v0q-1 15 -16 16q-15 -1 -16 -16v0zM544 313h-60h60h-60l14 -14v0q8 -8 11 -18h46v0q14 0 23 -10t8 -25l-4 -49v0q-2 -19 -15 -31q-13 -13 -33 -13h-44v0q-30 1 -43 27l-13 -13v0q-5 -5 -12 -9q23 -35 68 -37h45v0q31 1 54 21q22 21 25 52l4 50v0q2 22 -10 40
t-32 25v148v0q-1 15 -16 16q-14 -1 -16 -16v-144v0zM512 57q14 0 23 -9v0v0q9 -9 9 -23t-9 -23t-23 -9t-23 9t-9 23t9 23t23 9v0zM512 -39q36 1 55 32q18 32 0 64q-19 31 -55 32q-36 -1 -55 -32q-18 -32 0 -64q19 -31 55 -32v0zM251 212l-36 37l36 -37l-36 37h210v0l-36 -37
v0q-10 -11 0 -22q11 -10 22 0l64 64v0q10 11 0 22l-64 64v0q-11 10 -22 0q-10 -11 0 -22l36 -37v0h-210v0l36 37v0q10 11 0 22q-11 10 -22 0l-64 -64v0q-10 -11 0 -22l64 -64v0q11 -10 22 0q10 11 0 22v0z" />
</svg>
