<?xml version="1.0" standalone="no"?>
<!DOCTYPE svg PUBLIC "-//W3C//DTD SVG 1.1//EN" "http://www.w3.org/Graphics/SVG/1.1/DTD/svg11.dtd" >
<svg xmlns="http://www.w3.org/2000/svg" xmlns:xlink="http://www.w3.org/1999/xlink" version="1.1" viewBox="-10 -40 532 512">
   <path fill="currentColor"
d="M272 41q1 -20 14 -34v0v0q14 -13 34 -14q20 1 34 14q13 14 14 34v32v0q1 15 16 16q15 -1 16 -16v-32v0q-1 -34 -23 -57q-23 -22 -57 -23q-34 1 -57 23q-22 23 -23 57v208v0h-80v0v-16v0q-1 -20 -14 -34q-14 -13 -34 -14h-64v0q-15 1 -16 16q1 15 16 16h64v0q15 1 16 16
v16v0h-112v0q-15 1 -16 16q1 15 16 16h128h352q15 -1 16 -16q-1 -15 -16 -16h-112v0v-16v0q1 -15 16 -16h64v0q15 -1 16 -16q-1 -15 -16 -16h-64v0q-20 1 -34 14q-13 14 -14 34v16v0h-80v0v-208v0zM32 313v48v-48v48q1 48 33 79q31 32 79 33h224v0q48 -1 79 -33
q32 -31 33 -79v-48v0h-32v0v48v0q-1 34 -23 57q-23 22 -57 23h-224v0q-34 -1 -57 -23q-22 -23 -23 -57v-48v0h-32v0z" />
</svg>
