<?xml version="1.0" standalone="no"?>
<!DOCTYPE svg PUBLIC "-//W3C//DTD SVG 1.1//EN" "http://www.w3.org/Graphics/SVG/1.1/DTD/svg11.dtd" >
<svg xmlns="http://www.w3.org/2000/svg" xmlns:xlink="http://www.w3.org/1999/xlink" version="1.1" viewBox="-10 -40 458 512">
   <path fill="currentColor"
d="M144 -39q-15 1 -16 16q1 15 16 16h64v0v65v0q-82 8 -136 65q-54 58 -56 142q2 88 61 147t147 61q88 -2 147 -61t61 -147q-1 -73 -43 -126l38 -39v0q10 -11 0 -22q-11 -10 -22 0l-37 37v0q-52 -50 -128 -57v-65v0h64v0q15 -1 16 -16q-1 -15 -16 -16h-160v0zM224 441
q-48 0 -88 -24v0v0q-40 -23 -64 -64q-24 -42 -24 -88t24 -88q24 -41 64 -64q40 -24 88 -24t88 24q40 23 64 64q24 42 24 88t-24 88q-24 41 -64 64q-40 24 -88 24v0zM240 201v128v-128v128q1 20 14 34q14 13 34 14q20 -1 34 -14q13 -14 14 -34v-128v0q-1 -20 -14 -34
q-14 -13 -34 -14q-20 1 -34 14q-13 14 -14 34v0zM288 185q15 1 16 16v128v0q-1 15 -16 16q-15 -1 -16 -16v-128v0q1 -15 16 -16v0zM152 196q4 -10 16 -11q15 1 16 17v14v0q0 11 -7 20l-32 41v0q-25 30 -25 70v14v0q1 15 16 16h64v0q15 -1 16 -16q-1 -15 -16 -16h-48v0
q1 -27 18 -48l32 -41v0q14 -17 14 -40v-14v0q-1 -21 -14 -35q-14 -13 -34 -14q-34 2 -47 33v2v0q-4 14 10 20q14 3 20 -10l1 -2v0z" />
</svg>
