<?xml version="1.0" standalone="no"?>
<!DOCTYPE svg PUBLIC "-//W3C//DTD SVG 1.1//EN" "http://www.w3.org/Graphics/SVG/1.1/DTD/svg11.dtd" >
<svg xmlns="http://www.w3.org/2000/svg" xmlns:xlink="http://www.w3.org/1999/xlink" version="1.1" viewBox="-10 -40 660 512">
   <path fill="currentColor"
d="M79 289l15 -15l-15 15l15 -15q25 -22 52 -11q28 12 30 44v22v0q1 15 16 16q15 -1 16 -16v-21v0q2 -34 30 -45q27 -11 52 11l15 15v0q11 9 23 0q9 -11 0 -23l-15 -15v0q-22 -25 -11 -52q11 -28 44 -30h22v0q15 -1 16 -16q-1 -15 -16 -16h-21v0q-34 -2 -45 -30
q-11 -27 11 -52l15 -15v0q9 -11 0 -23q-11 -9 -23 0l-15 15v0q-25 22 -52 11q-28 -11 -30 -44v-22v0q-1 -15 -16 -16q-15 1 -16 16v22v0q-2 33 -30 44q-27 11 -52 -11l-15 -15v0q-11 -9 -23 0q-9 12 0 23l15 15v0q22 25 11 52q-12 28 -44 30h-22v0q-15 1 -16 16q1 15 16 16
h22v0q33 2 44 30q11 27 -11 52l-15 15v0q-9 11 0 23q12 9 23 0v0zM86 153q17 -13 25 -33v0v0q9 -20 6 -42q22 3 42 -6q20 -8 33 -25q13 17 32 25q21 9 43 6q-3 22 6 42q8 19 25 33q-17 13 -25 33q-9 20 -6 42q-22 -3 -42 5q-20 9 -33 26q-13 -17 -33 -26q-20 -8 -42 -5
q3 -22 -6 -42q-8 -20 -25 -33v0zM168 153q22 -2 24 -24q-2 -22 -24 -24q-22 2 -24 24q2 22 24 24v0zM240 185q-1 -15 -16 -16q-15 1 -16 16q1 15 16 16q15 -1 16 -16v0zM496 313q-1 -15 -16 -16q-15 1 -16 16q1 15 16 16q15 -1 16 -16v0zM598 408q-17 -19 -8 -40v0v0
q9 -21 34 -23q15 -1 16 -16q-1 -15 -16 -16q-25 -2 -34 -23t8 -40q9 -12 0 -23q-11 -9 -23 0q-19 17 -40 8t-23 -34q-1 -15 -16 -16q-15 1 -16 16q-2 25 -23 34t-40 -8q-12 -9 -23 0q-9 12 0 23q17 19 8 40t-34 23q-15 1 -16 16q1 15 16 16q25 2 34 23t-8 40q-9 12 0 23
q12 9 23 0q19 -17 40 -8t23 34q1 15 16 16q15 -1 16 -16q2 -25 23 -34t40 8q12 9 23 0q9 -12 0 -23v0zM580 329q-27 24 -25 59q-35 -2 -59 25q-24 -27 -59 -25q2 -35 -25 -59q27 -24 25 -59q35 2 59 -25q13 16 32 22q13 4 27 3q-2 35 25 59v0z" />
</svg>
