<?xml version="1.0" standalone="no"?>
<!DOCTYPE svg PUBLIC "-//W3C//DTD SVG 1.1//EN" "http://www.w3.org/Graphics/SVG/1.1/DTD/svg11.dtd" >
<svg xmlns="http://www.w3.org/2000/svg" xmlns:xlink="http://www.w3.org/1999/xlink" version="1.1" viewBox="-10 -40 468 512">
   <path fill="currentColor"
d="M96 -39h18h-18h24q16 0 28 8q12 7 19 17q7 8 20 15q14 8 37 8t37 -8q13 -7 20 -15q7 -10 19 -17q12 -8 28 -8h6h18q20 1 34 14q13 14 14 34v80v0v59v0q0 9 5 16l34 57v0q9 16 9 33v171v0q-1 20 -14 34q-14 13 -34 14h-160v0q-20 -1 -34 -14q-13 -14 -14 -34v-167v0
q0 -12 4 -23l79 -205v0q-20 10 -51 11q-31 -1 -51 -11l34 88v0l-17 44v0l-61 -159v0q-4 -10 -15 -10h-18v0q-15 1 -16 16v80v0v59v0q0 17 -9 33l-34 57v0q-5 7 -5 16v132v0l69 -68v0q11 -10 22 0q10 11 0 22l-88 88v0l-2 2q4 10 15 11h114v0q3 18 14 32h-128v0
q-20 -1 -34 -14q-13 -14 -14 -34v-171v0q0 -17 9 -33l34 -57v0q5 -7 5 -16v-59v0v-80v0q1 -20 14 -34q14 -13 34 -14v0zM368 9q-1 -15 -16 -16h-18v0q-11 0 -15 10l-93 243v0q-2 6 -2 12v167v0q1 15 16 16h160v0q11 -1 15 -11l-2 -2l-88 -88v0q-10 -11 0 -22q11 -10 22 0
l69 68v0v-132v0q0 -9 -5 -16l-34 -57v0q-9 -16 -9 -33v-59v0v-80v0z" />
</svg>
