<?xml version="1.0" standalone="no"?>
<!DOCTYPE svg PUBLIC "-//W3C//DTD SVG 1.1//EN" "http://www.w3.org/Graphics/SVG/1.1/DTD/svg11.dtd" >
<svg xmlns="http://www.w3.org/2000/svg" xmlns:xlink="http://www.w3.org/1999/xlink" version="1.1" viewBox="-10 -40 468 512">
   <path fill="currentColor"
d="M238 16q6 -13 -7 -21q-14 -6 -21 7l-208 416v0q-4 8 0 16q5 7 14 7h416v0q15 -1 16 -16q-1 -14 -16 -16h-390v0l196 -393v0zM295 200q-25 -31 -56 -55q-14 -9 -23 5q-5 12 5 21q27 21 48 48q10 10 22 4q12 -10 4 -23v0zM310 285q14 33 21 70q3 13 17 14q16 -2 15 -18
q-7 -42 -25 -81q-8 -13 -22 -6q-11 8 -6 21v0z" />
</svg>
