<?xml version="1.0" standalone="no"?>
<!DOCTYPE svg PUBLIC "-//W3C//DTD SVG 1.1//EN" "http://www.w3.org/Graphics/SVG/1.1/DTD/svg11.dtd" >
<svg xmlns="http://www.w3.org/2000/svg" xmlns:xlink="http://www.w3.org/1999/xlink" version="1.1" viewBox="-10 -40 460 512">
   <path fill="currentColor"
d="M363 180l-128 128l128 -128l-128 128q-11 10 -22 0l-128 -128v0q-10 -11 0 -22q11 -10 22 0l101 100v0v-105v0v-144v0q1 -15 16 -16q15 1 16 16v144v0v105v0l101 -100v0q11 -10 22 0q10 11 0 22v0zM32 385q22 2 24 24q-2 22 -24 24q-22 -2 -24 -24q2 -22 24 -24v0z
M416 385q22 2 24 24q-2 22 -24 24q-22 -2 -24 -24q2 -22 24 -24v0zM104 409q2 -22 24 -24q22 2 24 24q-2 22 -24 24q-22 -2 -24 -24v0zM224 385q22 2 24 24q-2 22 -24 24q-22 -2 -24 -24q2 -22 24 -24v0zM296 409q2 -22 24 -24q22 2 24 24q-2 22 -24 24q-22 -2 -24 -24v0z
" />
</svg>
