<?xml version="1.0" standalone="no"?>
<!DOCTYPE svg PUBLIC "-//W3C//DTD SVG 1.1//EN" "http://www.w3.org/Graphics/SVG/1.1/DTD/svg11.dtd" >
<svg xmlns="http://www.w3.org/2000/svg" xmlns:xlink="http://www.w3.org/1999/xlink" version="1.1" viewBox="-10 -40 532 512">
   <path fill="currentColor"
d="M293 158q-10 11 0 22q11 10 22 0l165 -164v0v105v0q1 15 16 16q15 -1 16 -16v-144v0q-1 -15 -16 -16h-144v0q-15 1 -16 16q1 15 16 16h105v0l-164 165v0zM219 276q10 -11 0 -22q-11 -10 -22 0l-165 164v0v-105v0q-1 -15 -16 -16q-15 1 -16 16v144v0q1 15 16 16h144v0
q15 -1 16 -16q-1 -15 -16 -16h-105v0l164 -165v0z" />
</svg>
