<?xml version="1.0" standalone="no"?>
<!DOCTYPE svg PUBLIC "-//W3C//DTD SVG 1.1//EN" "http://www.w3.org/Graphics/SVG/1.1/DTD/svg11.dtd" >
<svg xmlns="http://www.w3.org/2000/svg" xmlns:xlink="http://www.w3.org/1999/xlink" version="1.1" viewBox="-10 -40 532 512">
   <path fill="currentColor"
d="M480 105q-2 54 -41 87q-36 28 -49 77q-7 37 -22 68q-15 32 -35 53q-55 51 -125 51t-124 -51q-52 -55 -52 -125t52 -124q20 -21 52 -36q31 -15 68 -22q50 -13 78 -49q32 -39 86 -41q48 1 79 33q32 31 33 79v0zM421 275q9 -35 38 -59q51 -42 53 -111q-2 -61 -42 -102
q-41 -40 -102 -42q-69 2 -111 53q-24 29 -59 38q-40 8 -76 25t-61 41q-61 64 -61 147t61 147q64 61 147 61t147 -61q24 -25 42 -61q17 -36 24 -75v-1zM176 201q30 -28 61 -31v0v0q32 -4 51 15t15 50q-3 32 -31 62q-30 28 -62 31q-31 4 -50 -15t-15 -51q3 -31 31 -61v0z
M311 162q-33 -30 -77 -24v0v0q-45 6 -80 41t-41 80q-6 44 24 77q33 30 77 24q45 -6 81 -40q34 -36 40 -81q6 -44 -24 -77v0z" />
</svg>
