<?xml version="1.0" standalone="no"?>
<!DOCTYPE svg PUBLIC "-//W3C//DTD SVG 1.1//EN" "http://www.w3.org/Graphics/SVG/1.1/DTD/svg11.dtd" >
<svg xmlns="http://www.w3.org/2000/svg" xmlns:xlink="http://www.w3.org/1999/xlink" version="1.1" viewBox="-10 -40 404 512">
   <path fill="currentColor"
d="M167 -32q25 -14 51 0l16 10v0q4 3 9 3l19 -1v0q30 1 45 26l9 17v0q2 4 7 6l16 10v0q26 14 26 44l-1 19v0q0 5 3 9l10 17v0q14 25 0 51l-10 16v0q-3 4 -3 9l1 20v0q0 29 -26 44l-16 9v0q-5 2 -7 7l-9 17v0q-15 25 -45 25h-19v0q-5 -1 -9 2l-16 10v0q-26 14 -51 0l-17 -10
v0q-4 -3 -9 -2h-19v0q-30 0 -45 -25l-9 -17v0q-2 -5 -7 -7l-16 -9v0q-26 -15 -26 -44l1 -20v0q0 -5 -3 -9l-10 -16v0q-14 -26 0 -51l10 -17v0l14 9v0l-14 -9v0q3 -4 3 -9l-1 -19v0q0 -30 26 -44l16 -10v0q5 -2 7 -6l9 -17v0q15 -25 45 -26l19 1v0q5 0 9 -3l17 -10v0zM201 -4
q-9 -5 -18 0l-16 10v0q-13 7 -27 7l-19 -1v0q-10 0 -15 9l-10 17v0q-7 12 -19 19l-17 10v0q-9 5 -9 15l1 19v0q0 14 -7 27l-10 16v0q-5 9 0 18l10 16v0q7 13 7 27l-1 19v0q0 10 9 15l17 10v0q12 7 19 19l10 17v0q5 9 15 9l19 -1v0q14 0 27 7l16 10v0q9 5 18 0l16 -10v0
q12 -7 27 -7l19 1v0q10 0 15 -9l10 -17v0q7 -12 19 -19l17 -10v0q9 -5 9 -15l-1 -19v0q0 -14 7 -27l10 -16v0q5 -9 0 -18l-10 -16v0q-7 -13 -7 -27l1 -19v0q0 -10 -9 -15l-17 -10v0q-12 -7 -19 -19l-10 -17v0q-5 -9 -15 -9l-19 1v0q-14 0 -27 -7l-16 -10v0zM192 97
q-32 1 -48 28q-16 28 0 56q16 27 48 28q32 -1 48 -28q16 -28 0 -56q-16 -27 -48 -28v0zM280 153q-2 50 -44 76q-44 24 -88 0q-42 -26 -44 -76q2 -50 44 -76q44 -24 88 0q42 26 44 76v0zM88 351q15 6 31 7l-16 72v0l83 -36v0q6 -2 12 0l83 36v0l-16 -72v0q16 -1 31 -7l24 102
v0q1 10 -6 16t-16 3l-106 -46v0l-106 46v0q-9 3 -16 -3q-8 -6 -6 -16l24 -102v0z" />
</svg>
