<?xml version="1.0" standalone="no"?>
<!DOCTYPE svg PUBLIC "-//W3C//DTD SVG 1.1//EN" "http://www.w3.org/Graphics/SVG/1.1/DTD/svg11.dtd" >
<svg xmlns="http://www.w3.org/2000/svg" xmlns:xlink="http://www.w3.org/1999/xlink" version="1.1" viewBox="-10 -40 340 512">
   <path fill="currentColor"
d="M64 -23q1 -15 16 -16q15 1 16 16v48v0h64v0v-48v0q1 -15 16 -16q15 1 16 16v48v0q41 4 68 33t28 71q-1 48 -36 79q30 11 49 37q18 26 19 60q-1 44 -30 74q-30 29 -74 30h-24v0v48v0q-1 15 -16 16q-15 -1 -16 -16v-48v0h-64v0v48v0q-1 15 -16 16q-15 -1 -16 -16v-48v0h-22
v0q-18 0 -30 -12t-12 -30v-134v0v-32v0v-138v0q0 -16 11 -27t27 -11h26v0v-48v0zM176 377h40h-40h40q31 -1 51 -21t21 -51q-1 -31 -21 -51t-51 -21h-32h-152v134v0q1 9 10 10h38h96zM176 57h-96h96h-138q-6 0 -6 6v138v0h152v0q31 -1 51 -21t21 -51q-1 -31 -21 -51t-51 -21
h-8v0z" />
</svg>
