<?xml version="1.0" standalone="no"?>
<!DOCTYPE svg PUBLIC "-//W3C//DTD SVG 1.1//EN" "http://www.w3.org/Graphics/SVG/1.1/DTD/svg11.dtd" >
<svg xmlns="http://www.w3.org/2000/svg" xmlns:xlink="http://www.w3.org/1999/xlink" version="1.1" viewBox="-10 -40 660 512">
   <path fill="currentColor"
d="M64 -39q-27 1 -45 19v0v0q-18 18 -19 45v384v0v0v0q1 27 19 45t45 19h331v0q-20 -14 -35 -32h-296v0q-14 0 -23 -9t-9 -23t9 -23t23 -9h263v0q-5 -15 -6 -32h-257v0q-18 0 -32 9v-329v0q0 -14 9 -23t23 -9h336v0q15 1 16 16v163v0q15 -8 32 -12v-151v0q-1 -20 -14 -34
q-14 -13 -34 -14h-336v0zM496 217q30 0 56 15v0v0q26 15 41 41t15 56t-15 56t-41 41t-56 15t-56 -15t-41 -41t-15 -56t15 -56t41 -41t56 -15v0zM496 473q39 0 72 -19v0v0q33 -19 53 -53q19 -34 19 -72t-19 -72q-20 -34 -53 -53t-72 -19t-72 19t-53 53q-19 34 -19 72t19 72
q20 34 53 53t72 19v0zM493 262q-10 11 0 22l28 29v0h-89v0q-15 1 -16 16q1 15 16 16h89v0l-28 29v0q-10 11 0 22q11 10 22 0l56 -56v0q10 -11 0 -22l-56 -56v0q-11 -10 -22 0v0z" />
</svg>
