<?xml version="1.0" standalone="no"?>
<!DOCTYPE svg PUBLIC "-//W3C//DTD SVG 1.1//EN" "http://www.w3.org/Graphics/SVG/1.1/DTD/svg11.dtd" >
<svg xmlns="http://www.w3.org/2000/svg" xmlns:xlink="http://www.w3.org/1999/xlink" version="1.1" viewBox="-10 -40 596 512">
   <path fill="currentColor"
d="M224 25q0 -14 9 -23v0v0q9 -9 23 -9h272v0q15 1 16 16v224v0q-1 15 -16 16h-272v0q-18 0 -32 9v-233v0zM192 25v288v-288v288q1 27 19 45t45 19h272h32q15 -1 16 -16q-1 -15 -16 -16h-16v0v-67v0q30 -12 32 -45v-224v0q-1 -20 -14 -34q-14 -13 -34 -14h-272v0
q-27 1 -45 19t-19 45v0zM256 345q-14 0 -23 -9v0v0q-9 -9 -9 -23t9 -23t23 -9h256v0v64v0h-256v0zM352 441v-32v32v-32h-32v0v32v0h-256v0q-14 0 -23 -9t-9 -23t9 -23t23 -9h120v0q-12 -14 -19 -32h-101v0q-18 0 -32 9v-233v0q0 -14 9 -23t23 -9h96v0v-32v0h-96v0
q-27 1 -45 19t-19 45v288v0q1 27 19 45t45 19h272h32q15 -1 16 -16q-1 -15 -16 -16h-16v0z" />
</svg>
