<?xml version="1.0" standalone="no"?>
<!DOCTYPE svg PUBLIC "-//W3C//DTD SVG 1.1//EN" "http://www.w3.org/Graphics/SVG/1.1/DTD/svg11.dtd" >
<svg xmlns="http://www.w3.org/2000/svg" xmlns:xlink="http://www.w3.org/1999/xlink" version="1.1" viewBox="-11 0 662 512">
   <path fill="currentColor"
d="M152 -37q7 -4 15 0l64 32v0q9 4 9 14v218v0q-13 4 -32 6v-214v0l-32 -16v0v230v0q-19 -2 -32 -6v-250v0q0 -9 8 -14v0zM279 195q-1 6 -7 14v-39v0l27 -124v0l-27 5v0v-33v0l45 -9v0q8 -1 15 5q5 6 4 14l-29 130v0q-23 15 -28 37v0zM368 139q-15 6 -28 14h-8v0l20 -99v0
q5 -14 19 -13q14 4 13 19l-16 79v0zM192 265q41 0 65 -9q-1 9 -1 18q0 8 2 15q-28 8 -66 8q-73 -1 -109 -28q-32 -26 -38 -52h-10v0l54 224v0h171v0q6 18 18 32h-189v0q-24 -1 -31 -24l-57 -237v0q-1 -3 -1 -6q2 -19 21 -21h33v0q15 2 20 18q3 19 28 40q25 20 90 22v0z
M21 153h-2l-19 -93v0q-1 -14 13 -19q15 -1 19 13l20 99v0h-31v0zM120 217q-14 -12 -15 -22q-5 -20 -25 -35l-24 -140v0q-1 -12 9 -17l47 -24v0v36v0l-22 11v0l32 192v0q-1 -1 -2 -1v0v0zM331 241q-9 9 -10 24h287v0q-2 -15 -11 -24q-12 -15 -37 -31q-2 14 -16 15
q-14 -2 -16 -16q0 -7 5 -12q-23 -9 -55 -12q2 4 2 8q-1 15 -16 16q-14 -1 -16 -16q0 -4 2 -8q-31 3 -55 12q5 5 5 12q-1 14 -16 16q-13 -1 -16 -15q-25 16 -37 31v0zM464 153q61 1 100 23v0v0q39 22 57 43q20 25 19 54q-2 22 -23 24h-306v0q-21 -2 -23 -24q-1 -29 20 -54
q17 -21 56 -43q39 -21 100 -23v0zM288 337q1 -15 16 -16h320v0q15 1 16 16q-1 14 -16 16h-320v0q-15 -2 -16 -16v0zM288 414q0 -16 11 -26v0v0q10 -11 26 -11h278v0q16 0 26 11q11 10 11 26q-1 25 -17 42q-17 16 -42 17h-234v0q-25 -1 -42 -17q-16 -17 -17 -42v0zM325 409
q-5 0 -5 5q2 24 27 27h234v0q25 -2 27 -27q0 -5 -5 -5h-278v0z" />
</svg>
