<?xml version="1.0" standalone="no"?>
<!DOCTYPE svg PUBLIC "-//W3C//DTD SVG 1.1//EN" "http://www.w3.org/Graphics/SVG/1.1/DTD/svg11.dtd" >
<svg xmlns="http://www.w3.org/2000/svg" xmlns:xlink="http://www.w3.org/1999/xlink" version="1.1" viewBox="-10 -40 596 512">
   <path fill="currentColor"
d="M112 -39q15 1 16 16v48v0h192v0v-48v0q1 -15 16 -16q15 1 16 16v48v0h32v0q27 1 45 19t19 45v32v0v32v0v1v0q-8 -1 -16 -1t-16 1v-1v0h-384v0v256v0q0 14 9 23t23 9h232v0q15 18 35 32h-267v0q-27 -1 -45 -19t-19 -45v-256v0v-32v0v-32v0q1 -27 19 -45t45 -19h32v0v-48v0
q1 -15 16 -16v0zM384 57h-320h320h-320q-14 0 -23 9t-9 23v32v0h384v0v-32v0q0 -14 -9 -23t-23 -9v0zM432 441q30 0 56 -15v0v0q26 -15 41 -41t15 -56t-15 -56t-41 -41t-56 -15t-56 15t-41 41t-15 56t15 56t41 41t56 15v0zM432 185q39 0 72 19v0v0q33 19 53 53q19 34 19 72
t-19 72q-20 34 -53 53t-72 19t-72 -19t-53 -53q-19 -34 -19 -72t19 -72q20 -34 53 -53t72 -19v0zM432 249q15 1 16 16v48v0h32v0q15 1 16 16q-1 15 -16 16h-48v0q-15 -1 -16 -16v-64v0q1 -15 16 -16v0z" />
</svg>
