<?xml version="1.0" standalone="no"?>
<!DOCTYPE svg PUBLIC "-//W3C//DTD SVG 1.1//EN" "http://www.w3.org/Graphics/SVG/1.1/DTD/svg11.dtd" >
<svg xmlns="http://www.w3.org/2000/svg" xmlns:xlink="http://www.w3.org/1999/xlink" version="1.1" viewBox="-10 -40 468 512">
   <path fill="currentColor"
d="M112 -39q15 1 16 16v48v0h192v0v-48v0q1 -15 16 -16q15 1 16 16v48v0h32v0q27 1 45 19t19 45v32v0v32v0v256v0q-1 27 -19 45t-45 19h-320v0q-27 -1 -45 -19t-19 -45v-256v0v-32v0v-32v0q1 -27 19 -45t45 -19h32v0v-48v0q1 -15 16 -16v0zM416 153h-384h384h-384v256v0
q0 14 9 23t23 9h320v0q14 0 23 -9t9 -23v-256v0zM384 57h-320h320h-320q-14 0 -23 9t-9 23v32v0h384v0v-32v0q0 -14 -9 -23t-23 -9v0zM230 226q10 -13 26 -13v0v0q16 -1 26 13l97 132v0q10 17 2 34q-8 16 -28 17h-258v0q-20 -1 -28 -17q-9 -17 2 -34l51 -71v0q9 -12 24 -13
q14 -1 25 9l13 13v0l48 -70v0zM353 377l-97 -132l97 132l-97 -132l-59 85v0q-4 6 -12 7q-7 0 -12 -5l-27 -26v0l-51 71v0h258v0zM96 193q22 2 24 24q-2 22 -24 24q-22 -2 -24 -24q2 -22 24 -24v0z" />
</svg>
