<?xml version="1.0" standalone="no"?>
<!DOCTYPE svg PUBLIC "-//W3C//DTD SVG 1.1//EN" "http://www.w3.org/Graphics/SVG/1.1/DTD/svg11.dtd" >
<svg xmlns="http://www.w3.org/2000/svg" xmlns:xlink="http://www.w3.org/1999/xlink" version="1.1" viewBox="-10 -40 650 512">
   <path fill="currentColor"
d="M255 -7q-33 2 -45 33l-11 31v0h-71v0q-27 1 -45 19t-19 45v256v0q1 27 19 45t45 19h384v0q27 -1 45 -19t19 -45v-256v0q-1 -27 -19 -45t-45 -19h-71v0l-10 -31v0q-13 -31 -46 -33h-130v0zM240 36q4 -10 15 -11h130v0q11 1 15 11l14 42v0q4 10 15 11h83v0q14 0 23 9t9 23
v256v0q0 14 -9 23t-23 9h-384v0q-14 0 -23 -9t-9 -23v-256v0q0 -14 9 -23t23 -9h83v0q11 -1 15 -11l14 -42v0zM416 233q15 -1 16 -16v-64v0q-1 -15 -16 -16q-15 1 -16 16v25v0l-14 -14v0q-28 -26 -66 -27q-30 0 -54 14q-24 13 -39 36q-7 13 4 22q13 7 22 -4q24 -34 67 -36
q25 0 43 18l14 14v0h-25v0q-15 1 -16 16q1 15 16 16h64v0zM224 265q-15 1 -16 16v64v0q1 15 16 16q15 -1 16 -16v-25v0l14 14v0q28 26 66 27q30 0 54 -14q24 -13 39 -36q7 -13 -4 -22q-13 -7 -22 4q-24 34 -67 36q-25 0 -43 -18l-14 -14v0h25v0q15 -1 16 -16q-1 -15 -16 -16
h-64v0z" />
</svg>
