<?xml version="1.0" standalone="no"?>
<!DOCTYPE svg PUBLIC "-//W3C//DTD SVG 1.1//EN" "http://www.w3.org/Graphics/SVG/1.1/DTD/svg11.dtd" >
<svg xmlns="http://www.w3.org/2000/svg" xmlns:xlink="http://www.w3.org/1999/xlink" version="1.1" viewBox="-10 -40 656 512">
   <path fill="currentColor"
d="M64 -23q1 -15 16 -16h38v0q33 2 45 32h441v0q16 1 25 12q9 12 6 28l-42 168v0q-6 21 -23 34q-17 14 -39 14h-315v0l8 38v0q6 24 31 26h305v0q15 1 16 16q-1 15 -16 16h-305v0q-23 0 -40 -14t-22 -37l-59 -288v0q-4 -12 -16 -13h-38v0q-15 -1 -16 -16v0zM531 217
q23 -1 31 -24l42 -168v0h-434v0l39 192v0h322v0zM256 441q22 -2 24 -24q-2 -22 -24 -24q-22 2 -24 24q2 22 24 24v0zM256 361q32 1 48 28q16 28 0 56q-16 27 -48 28q-32 -1 -48 -28q-16 -28 0 -56q16 -27 48 -28v0zM536 417q-2 -22 -24 -24q-22 2 -24 24q2 22 24 24
q22 -2 24 -24v0zM456 417q1 -32 28 -48q28 -16 56 0q27 16 28 48q-1 32 -28 48q-28 16 -56 0q-27 -16 -28 -48v0zM16 89h96h-96h96q15 1 16 16q-1 15 -16 16h-96v0q-15 -1 -16 -16q1 -15 16 -16v0zM16 153h112h-112h112q15 1 16 16q-1 15 -16 16h-112v0q-15 -1 -16 -16
q1 -15 16 -16v0zM16 217h128h-128h128q15 1 16 16q-1 15 -16 16h-128v0q-15 -1 -16 -16q1 -15 16 -16v0z" />
</svg>
