<?xml version="1.0" standalone="no"?>
<!DOCTYPE svg PUBLIC "-//W3C//DTD SVG 1.1//EN" "http://www.w3.org/Graphics/SVG/1.1/DTD/svg11.dtd" >
<svg xmlns="http://www.w3.org/2000/svg" xmlns:xlink="http://www.w3.org/1999/xlink" version="1.1" viewBox="-10 -40 394 512">
   <path fill="currentColor"
d="M208 -39q15 1 16 16v48v0h2h2q67 1 118 38q11 10 3 23q-10 11 -22 3q-43 -31 -99 -32h-2h-2v320v0h2h2q56 -1 99 -32q12 -8 22 3q8 13 -3 23q-51 37 -118 38h-2h-2v48v0q-1 15 -16 16q-15 -1 -16 -16v-51v0q-70 -14 -114 -65q-45 -52 -46 -124q1 -72 46 -124
q44 -51 114 -65v-51v0q1 -15 16 -16v0zM64 217q1 58 36 101v0v0q36 42 92 55v-312v0q-56 13 -92 55q-35 43 -36 101v0z" />
</svg>
