<?xml version="1.0" standalone="no"?>
<!DOCTYPE svg PUBLIC "-//W3C//DTD SVG 1.1//EN" "http://www.w3.org/Graphics/SVG/1.1/DTD/svg11.dtd" >
<svg xmlns="http://www.w3.org/2000/svg" xmlns:xlink="http://www.w3.org/1999/xlink" version="1.1" viewBox="-10 -40 532 512">
   <path fill="currentColor"
d="M272 -7q15 1 16 16v16v0h176v0q20 1 34 14q13 14 14 34v64v0q-1 20 -14 34q-14 13 -34 14h-176v0v16v0q-1 15 -16 16q-15 -1 -16 -16v-16v0h-208v0q-20 -1 -34 -14q-13 -14 -14 -34v-64v0q1 -20 14 -34q14 -13 34 -14h208v0v-16v0q1 -15 16 -16v0zM160 57v96v-96v96h96v0
v-96v0h-96v0zM288 57v96v-96v96h176v0q15 -1 16 -16v-64v0q-1 -15 -16 -16h-176v0zM128 57h-80h80h-80q-15 1 -16 16v64v0q1 15 16 16h80v0v-96v0zM368 217q15 1 16 16v16v0h80v0q20 1 34 14q13 14 14 34v64v0q-1 20 -14 34q-14 13 -34 14h-80v0v16v0q-1 15 -16 16
q-15 -1 -16 -16v-16v0h-304v0q-20 -1 -34 -14q-13 -14 -14 -34v-64v0q1 -20 14 -34q14 -13 34 -14h304v0v-16v0q1 -15 16 -16v0zM224 377h128h-128h128v-96v0h-128v0v96v0zM384 281v96v-96v96h80v0q15 -1 16 -16v-64v0q-1 -15 -16 -16h-80v0zM192 281h-144h144h-144
q-15 1 -16 16v64v0q1 15 16 16h144v0v-96v0z" />
</svg>
