<?xml version="1.0" standalone="no"?>
<!DOCTYPE svg PUBLIC "-//W3C//DTD SVG 1.1//EN" "http://www.w3.org/Graphics/SVG/1.1/DTD/svg11.dtd" >
<svg xmlns="http://www.w3.org/2000/svg" xmlns:xlink="http://www.w3.org/1999/xlink" version="1.1" viewBox="-10 -40 532 512">
   <path fill="currentColor"
d="M32 9q-1 -15 -16 -16q-15 1 -16 16v352v0q1 34 23 57q23 22 57 23h416v0q15 -1 16 -16q-1 -15 -16 -16h-416v0q-20 -1 -34 -14q-13 -14 -14 -34v-352v0zM320 105q1 15 16 16h89v0l-105 105v0l-85 -84v0q-11 -10 -22 0l-112 112v0q-10 11 0 22q11 10 22 0l101 -100v0
l85 84v0q11 10 22 0l117 -116v0v89v0q1 15 16 16q15 -1 16 -16v-128v0q-1 -15 -16 -16h-128v0q-15 1 -16 16v0z" />
</svg>
