<?xml version="1.0" standalone="no"?>
<!DOCTYPE svg PUBLIC "-//W3C//DTD SVG 1.1//EN" "http://www.w3.org/Graphics/SVG/1.1/DTD/svg11.dtd" >
<svg xmlns="http://www.w3.org/2000/svg" xmlns:xlink="http://www.w3.org/1999/xlink" version="1.1" viewBox="-10 -40 522 512">
   <path fill="currentColor"
d="M270 49q-5 -8 -14 -8v0v0q-9 0 -14 8l-61 104v0h150v0l-61 -104v0zM107 281h298h-298h298l-56 -96v0h-186v0l-56 96v0zM88 313l-42 72l42 -72l-42 72q-4 8 0 16q4 7 14 8h392v0q10 -1 14 -8q4 -8 0 -16l-42 -72v0h-336v0zM215 33q15 -24 41 -24v0v0q26 0 41 24l197 336v0
q13 25 0 48q-13 22 -42 24h-392v0q-29 -2 -42 -24q-13 -23 0 -48l197 -336v0z" />
</svg>
