<?xml version="1.0" standalone="no"?>
<!DOCTYPE svg PUBLIC "-//W3C//DTD SVG 1.1//EN" "http://www.w3.org/Graphics/SVG/1.1/DTD/svg11.dtd" >
<svg xmlns="http://www.w3.org/2000/svg" xmlns:xlink="http://www.w3.org/1999/xlink" version="1.1" viewBox="-10 -40 525 512">
   <path fill="currentColor"
d="M16 249q-17 -32 0 -64l92 -160v0q19 -31 56 -32h184v0q37 1 56 32l92 160v0q17 32 0 64l-92 160v0q-19 31 -56 32h-184v0q-37 -1 -56 -32l-92 -160v0zM44 201q-9 16 0 32l92 160v0q10 15 28 16h184v0q18 -1 28 -16l92 -160v0q9 -16 0 -32l-92 -160v0q-10 -15 -28 -16
h-184v0q-18 1 -28 16l-92 160v0zM312 121q-1 28 -21 44l24 60v0h5q24 1 40 16q15 16 16 40q-1 24 -16 40q-16 15 -40 16q-22 -1 -38 -15q-15 -14 -18 -36l-54 -11v0q-16 28 -50 30q-24 -1 -40 -16q-15 -16 -16 -40q1 -24 16 -39q16 -16 40 -17q10 0 19 4l32 -43v0
q-11 -14 -11 -33q1 -24 16 -40q16 -15 40 -16q24 1 40 16q15 16 16 40v0zM271 255q5 -11 14 -18l-24 -60v0h-5q-10 0 -19 -4l-32 43v0q9 12 11 28l55 11v0zM256 145q22 -2 24 -24q-2 -22 -24 -24q-22 2 -24 24q2 22 24 24v0zM344 281q-2 -22 -24 -24q-22 2 -24 24
q2 22 24 24q22 -2 24 -24v0zM160 273q22 -2 24 -24q-2 -22 -24 -24q-22 2 -24 24q2 22 24 24v0z" />
</svg>
