<?xml version="1.0" standalone="no"?>
<!DOCTYPE svg PUBLIC "-//W3C//DTD SVG 1.1//EN" "http://www.w3.org/Graphics/SVG/1.1/DTD/svg11.dtd" >
<svg xmlns="http://www.w3.org/2000/svg" xmlns:xlink="http://www.w3.org/1999/xlink" version="1.1" viewBox="-10 -40 532 512">
   <path fill="currentColor"
d="M256 -7q61 1 112 30v0v0q51 30 82 82q30 53 30 112t-30 112q-31 52 -82 82q-51 29 -112 30q-61 -1 -112 -30q-51 -30 -82 -82q-30 -53 -30 -112t30 -112q31 -52 82 -82q51 -29 112 -30v0zM256 473q70 -1 128 -34v0v0q58 -34 94 -94q34 -61 34 -128t-34 -128
q-36 -60 -94 -94q-58 -33 -128 -34q-70 1 -128 34q-58 34 -94 94q-34 61 -34 128t34 128q36 60 94 94q58 33 128 34v0zM176 89q-15 1 -16 16q1 15 16 16h101v0l-79 68v0q-8 7 -5 18q4 9 15 10h64v0q20 0 34 14q13 13 14 34q-1 20 -14 34q-14 14 -34 14h-36v0q-28 0 -45 -22
l-2 -3v0q-10 -11 -23 -4q-11 10 -3 23l3 3v0q26 34 70 35h36v0q34 -1 56 -23q23 -23 24 -57q-1 -34 -24 -57q-22 -23 -57 -23h-20v0l79 -68v0q8 -7 5 -18q-4 -9 -15 -10h-144v0z" />
</svg>
