<?xml version="1.0" standalone="no"?>
<!DOCTYPE svg PUBLIC "-//W3C//DTD SVG 1.1//EN" "http://www.w3.org/Graphics/SVG/1.1/DTD/svg11.dtd" >
<svg xmlns="http://www.w3.org/2000/svg" xmlns:xlink="http://www.w3.org/1999/xlink" version="1.1" viewBox="-10 -40 532 512">
   <path fill="currentColor"
d="M256 -7q61 1 112 30v0v0q51 30 82 82q30 53 30 112t-30 112q-31 52 -82 82q-51 29 -112 30q-61 -1 -112 -30q-51 -30 -82 -82q-30 -53 -30 -112t30 -112q31 -52 82 -82q51 -29 112 -30v0zM256 473q70 -1 128 -34v0v0q58 -34 94 -94q34 -61 34 -128t-34 -128
q-36 -60 -94 -94q-58 -33 -128 -34q-70 1 -128 34q-58 34 -94 94q-34 61 -34 128t34 128q36 60 94 94q58 33 128 34v0zM208 89q-12 1 -15 12l-24 96v0q-2 7 2 13t11 7l99 10v0q17 2 28 14t11 29q0 18 -13 30q-12 13 -30 13h-44v0q-27 -1 -42 -22l-2 -3v0q-9 -11 -22 -4
q-11 9 -4 22l1 3v0q25 35 69 36h44v0q32 -1 53 -22t22 -53q-1 -30 -19 -51q-19 -20 -49 -24l-80 -8v0l17 -66v0h99v0q15 -1 16 -16q-1 -15 -16 -16h-112v0z" />
</svg>
