<?xml version="1.0" standalone="no"?>
<!DOCTYPE svg PUBLIC "-//W3C//DTD SVG 1.1//EN" "http://www.w3.org/Graphics/SVG/1.1/DTD/svg11.dtd" >
<svg xmlns="http://www.w3.org/2000/svg" xmlns:xlink="http://www.w3.org/1999/xlink" version="1.1" viewBox="-10 -40 532 512">
   <path fill="currentColor"
d="M480 217q-1 -61 -30 -112v0v0q-30 -51 -82 -82q-53 -30 -112 -30t-112 30q-52 31 -82 82q-29 51 -30 112q1 61 30 112q30 51 82 82q53 30 112 30t112 -30q52 -31 82 -82q29 -51 30 -112v0zM0 217q1 -70 34 -128v0v0q34 -58 94 -94q61 -34 128 -34t128 34q60 36 94 94
q33 58 34 128q-1 70 -34 128q-34 58 -94 94q-61 34 -128 34t-128 -34q-60 -36 -94 -94q-33 -58 -34 -128v0zM144 147v130v-130v130h1v0q19 -3 47 -4q28 1 48 12v-138v0q-4 -1 -8 -3q-17 -6 -40 -7q-23 1 -39 7q-5 2 -9 3v0zM246 326v-1v1v-1h-1v0v0q-1 -1 -3 -2
q-5 -4 -13 -8q-16 -9 -37 -10q-24 0 -42 4q-8 1 -13 2q-2 1 -3 1h-1h-1v0v0v0v0v0v0v0q-8 2 -14 -2q-6 -5 -6 -13v-160v0q0 -9 9 -14l7 14v0q-5 -10 -7 -12q-1 -3 0 -2v0v0v0v0v0v0v0v0v0v0q0 -1 1 -1t2 -1t3 -1q5 -3 15 -6q20 -8 50 -9q30 1 50 9q8 3 14 5q5 -2 14 -5
q20 -8 50 -9q30 1 50 9q9 3 15 6q3 1 5 2l1 1v0v0v0v0v0v0v0v0v0v0q1 -1 -1 2l-6 12l7 -14v0q8 5 9 14v160v0q0 8 -6 13q-7 4 -14 3v0v0v0v0v0v0l-1 -1v0v0h-4q-5 -2 -13 -3q-18 -3 -42 -4q-21 1 -38 10q-8 5 -12 8q-2 1 -3 2v0h-1v1v0v0h-1v0l-1 1q-4 2 -8 2h-1q-4 0 -8 -2
l-1 -1v0v0zM272 285q20 -11 48 -12q28 1 47 4h1v0v-130v0q-4 -1 -8 -3q-17 -6 -40 -7q-23 1 -39 7q-5 2 -9 3v138v0z" />
</svg>
