<?xml version="1.0" standalone="no"?>
<!DOCTYPE svg PUBLIC "-//W3C//DTD SVG 1.1//EN" "http://www.w3.org/Graphics/SVG/1.1/DTD/svg11.dtd" >
<svg xmlns="http://www.w3.org/2000/svg" xmlns:xlink="http://www.w3.org/1999/xlink" version="1.1" viewBox="-10 -40 529 512">
   <path fill="currentColor"
d="M19 193q13 -1 16 -14q9 -51 38 -91q7 -12 -2 -22q-12 -10 -23 2q-34 47 -45 107q0 16 16 18v0zM127 34q40 -29 91 -38q13 -3 14 -16q-2 -16 -17 -16q-61 11 -108 45q-12 11 -2 23q10 9 22 2v0zM280 454q2 16 18 16q60 -11 107 -45q12 -11 2 -23q-11 -9 -22 -2
q-40 29 -91 38q-13 3 -14 16v0zM439 346q-7 12 2 22q12 10 23 -2q34 -47 45 -107q0 -16 -16 -18q-13 1 -16 14q-9 51 -38 91v0zM105 402q-10 12 2 23q47 34 107 45q16 0 18 -16q-1 -13 -14 -16q-51 -9 -91 -38q-12 -7 -22 2v0zM48 366q11 12 23 2q9 -10 2 -22
q-29 -40 -38 -91q-3 -13 -16 -14q-16 2 -16 18q11 60 45 107v0zM407 32q10 -12 -2 -23q-47 -34 -107 -45q-16 0 -18 16q1 13 14 16q51 9 91 38q12 7 22 -2v0zM439 88q29 40 38 91q3 13 16 14q16 -2 16 -18q-11 -60 -45 -107q-11 -12 -23 -2q-9 10 -2 22v0z" />
</svg>
