<?xml version="1.0" standalone="no"?>
<!DOCTYPE svg PUBLIC "-//W3C//DTD SVG 1.1//EN" "http://www.w3.org/Graphics/SVG/1.1/DTD/svg11.dtd" >
<svg xmlns="http://www.w3.org/2000/svg" xmlns:xlink="http://www.w3.org/1999/xlink" version="1.1" viewBox="-10 -40 532 512">
   <path fill="currentColor"
d="M256 441q-61 -1 -112 -30v0v0q-51 -30 -82 -82q-30 -53 -30 -112t30 -112q31 -52 82 -82q51 -29 112 -30q61 1 112 30q51 30 82 82q30 53 30 112t-30 112q-31 52 -82 82q-51 29 -112 30v0zM256 -39q-70 1 -128 34v0v0q-58 34 -94 94q-34 61 -34 128t34 128q36 60 94 94
q58 33 128 34q70 -1 128 -34q58 -34 94 -94q34 -61 34 -128t-34 -128q-36 -60 -94 -94q-58 -33 -128 -34v0zM336 289q-1 7 -8 8h-113v0q-6 -1 -7 -7q0 -2 2 -4l25 -26v0q10 -11 0 -22l-59 -59v0q-5 -6 -3 -14q1 -3 3 -6l22 -22v0q3 -2 6 -3q8 -2 13 3l60 59v0q11 10 22 0
l26 -25v0q2 -2 4 -2q6 1 7 7v113v0zM328 329q17 0 28 -12v0v0q12 -11 12 -28v-113v0q0 -17 -11 -28t-28 -11q-15 0 -27 11l-14 14v0l-48 -47v0q-20 -19 -46 -11q-11 3 -18 11l-22 22v0q-8 7 -11 18q-8 26 11 46l47 48v0l-14 14v0q-11 12 -11 27q0 17 11 28t28 11h113v0z" />
</svg>
