<?xml version="1.0" standalone="no"?>
<!DOCTYPE svg PUBLIC "-//W3C//DTD SVG 1.1//EN" "http://www.w3.org/Graphics/SVG/1.1/DTD/svg11.dtd" >
<svg xmlns="http://www.w3.org/2000/svg" xmlns:xlink="http://www.w3.org/1999/xlink" version="1.1" viewBox="-10 -40 532 512">
   <path fill="currentColor"
d="M256 -7q61 1 112 30v0v0q51 30 82 82q30 53 30 112t-30 112q-31 52 -82 82q-51 29 -112 30q-61 -1 -112 -30q-51 -30 -82 -82q-30 -53 -30 -112t30 -112q31 -52 82 -82q51 -29 112 -30v0zM256 473q70 -1 128 -34v0v0q58 -34 94 -94q34 -61 34 -128t-34 -128
q-36 -60 -94 -94q-58 -33 -128 -34q-70 1 -128 34q-58 34 -94 94q-34 61 -34 128t34 128q36 60 94 94q58 33 128 34v0zM256 57q-27 1 -45 19v0v0q-18 18 -19 45v96v0q1 27 19 45t45 19q27 -1 45 -19t19 -45v-16v0v-64v0v-16v0q-1 -27 -19 -45t-45 -19v0zM288 121h-16h16h-16
q-15 1 -16 16q1 15 16 16h16v0v32v0h-16v0q-15 1 -16 16q1 15 16 16h16v0q0 14 -9 23t-23 9t-23 -9t-9 -23v-96v0q0 -14 9 -23t23 -9t23 9t9 23v0zM160 201q-1 -15 -16 -16q-15 1 -16 16v16v0q1 50 32 85q32 35 80 42v17v0q1 15 16 16q15 -1 16 -16v-17v0q48 -7 80 -42
q31 -35 32 -85v-16v0q-1 -15 -16 -16q-15 1 -16 16v16v0q-1 41 -28 68t-68 28q-41 -1 -68 -28t-28 -68v-16v0z" />
</svg>
