<?xml version="1.0" standalone="no"?>
<!DOCTYPE svg PUBLIC "-//W3C//DTD SVG 1.1//EN" "http://www.w3.org/Graphics/SVG/1.1/DTD/svg11.dtd" >
<svg xmlns="http://www.w3.org/2000/svg" xmlns:xlink="http://www.w3.org/1999/xlink" version="1.1" viewBox="-10 -40 532 512">
   <path fill="currentColor"
d="M256 -7q61 1 112 30v0v0q51 30 82 82q30 53 30 112t-30 112q-31 52 -82 82q-51 29 -112 30q-61 -1 -112 -30q-51 -30 -82 -82q-30 -53 -30 -112t30 -112q31 -52 82 -82q51 -29 112 -30v0zM256 473q70 -1 128 -34v0v0q58 -34 94 -94q34 -61 34 -128t-34 -128
q-36 -60 -94 -94q-58 -33 -128 -34q-70 1 -128 34q-58 34 -94 94q-34 61 -34 128t34 128q36 60 94 94q58 33 128 34v0zM112 210q0 -1 1 -2q62 -55 143 -55t143 55q1 1 1 2v1l-22 36v0q-2 3 -8 2l-46 -18v0q-3 -2 -3 -3l3 -19v0q1 -13 -11 -17q-57 -18 -114 0q-12 5 -11 17
l3 19v0q0 1 -3 3l-46 18v0q-6 1 -8 -2l-21 -36v0l-1 -1v0zM421 184q-47 -42 -106 -56v0v0q-59 -14 -118 0v0v0q-59 14 -106 56q-19 20 -6 44l22 35v0q8 12 20 16q13 4 26 -1l46 -17v0q24 -10 23 -37v0v-1v-4v0q34 -8 68 0l-1 4v0v1v0q0 27 24 37l46 18v0q13 4 26 0
q12 -4 20 -15l22 -36v0q12 -24 -6 -44v0z" />
</svg>
