<?xml version="1.0" standalone="no"?>
<!DOCTYPE svg PUBLIC "-//W3C//DTD SVG 1.1//EN" "http://www.w3.org/Graphics/SVG/1.1/DTD/svg11.dtd" >
<svg xmlns="http://www.w3.org/2000/svg" xmlns:xlink="http://www.w3.org/1999/xlink" version="1.1" viewBox="-10 -40 340 512">
   <path fill="currentColor"
d="M288 217q0 -35 -17 -64v0v0q-17 -29 -47 -47q-30 -17 -64 -17t-64 17q-30 18 -47 47t-17 64t17 64t47 47q30 17 64 17t64 -17q30 -18 47 -47t17 -64v0zM0 217q0 -43 21 -80v0v0q22 -37 59 -59q38 -21 80 -21t80 21q37 22 59 59q21 37 21 80t-21 80q-22 37 -59 59
q-38 21 -80 21t-80 -21q-37 -22 -59 -59q-21 -37 -21 -80v0z" />
</svg>
