<?xml version="1.0" standalone="no"?>
<!DOCTYPE svg PUBLIC "-//W3C//DTD SVG 1.1//EN" "http://www.w3.org/Graphics/SVG/1.1/DTD/svg11.dtd" >
<svg xmlns="http://www.w3.org/2000/svg" xmlns:xlink="http://www.w3.org/1999/xlink" version="1.1" viewBox="-10 -40 660 512">
   <path fill="currentColor"
d="M212 47q7 -38 35 -62v0v0q28 -23 66 -24q44 1 73 30t30 73v8v0q-1 57 -47 90l-21 15v0l265 181v0q26 19 27 52q-1 27 -18 45q-18 17 -45 18h-514v0q-27 -1 -44 -18q-18 -18 -19 -45q1 -33 28 -52l283 -194v0l39 -28v0q33 -24 34 -64v-8v0q-1 -31 -21 -50q-20 -20 -50 -21
q-26 0 -45 17q-19 16 -24 42l-4 24v0q-4 14 -19 13q-14 -4 -13 -19l4 -23v0zM320 196l-274 188l274 -188l-274 188q-14 10 -14 26q0 13 9 22t22 9h514v0q13 0 22 -9t9 -22q0 -16 -14 -26l-274 -188v0z" />
</svg>
