<?xml version="1.0" standalone="no"?>
<!DOCTYPE svg PUBLIC "-//W3C//DTD SVG 1.1//EN" "http://www.w3.org/Graphics/SVG/1.1/DTD/svg11.dtd" >
<svg xmlns="http://www.w3.org/2000/svg" xmlns:xlink="http://www.w3.org/1999/xlink" version="1.1" viewBox="-10 -40 468 512">
   <path fill="currentColor"
d="M171 25q-13 0 -22 9v0v0q-8 9 -9 22v3v0q0 12 6 23l44 79v0q5 11 -3 19t-19 3l-79 -44v0q-11 -6 -23 -6h-3v0q-13 1 -22 9q-9 9 -9 22t9 22l20 20v0q4 4 4 11t-4 11l-20 20v0q-9 9 -9 22t9 22q9 8 22 9h3v0q12 0 23 -6l79 -44v0q11 -5 19 3t3 19l-44 79v0q-6 11 -6 23v3
v0q1 13 9 22q9 9 22 9t22 -9l20 -20v0q5 -4 11 -4q7 0 11 4l20 20v0q9 9 22 9t22 -9q8 -9 9 -22v-3v0q0 -12 -6 -23l-44 -79v0q-5 -11 3 -19t19 -3l79 44v0q11 6 23 6h3v0q13 -1 22 -9q9 -9 9 -22t-9 -22l-20 -20v0q-4 -5 -4 -11q0 -7 4 -11l20 -20v0q9 -9 9 -22t-9 -22
q-9 -8 -22 -9h-3v0q-12 0 -23 6l-78 44v0q-10 5 -19 -3q-8 -8 -3 -19l43 -79v0q6 -11 6 -22v-4v0q-1 -13 -9 -22q-9 -9 -22 -9t-22 9l-20 20v0q-4 4 -11 4t-11 -4l-20 -20v0q-9 -9 -22 -9v0zM171 -7q26 0 45 19l8 8v0l8 -8v0q19 -19 45 -19q26 1 44 18q18 18 19 45v4v0
q0 19 -10 37l-16 31v0l30 -17v0q17 -10 38 -10h3v0q27 1 45 19q17 18 18 44q0 26 -18 45l-9 8v0l9 8v0q18 19 18 45q-1 26 -18 44q-18 18 -45 19h-3v0q-21 0 -38 -10l-31 -17v0l17 31v0q10 18 10 38v3v0q-1 27 -19 45q-18 17 -44 18q-26 0 -45 -18l-8 -9v0l-8 9v0
q-19 18 -45 18q-26 -1 -44 -18q-18 -18 -19 -45v-3v0q0 -21 10 -38l17 -31v0l-31 17v0q-18 10 -38 10h-3v0q-27 -1 -45 -19q-17 -18 -18 -44q0 -26 19 -45l8 -8v0l-8 -8v0q-19 -19 -19 -45q1 -26 18 -44q18 -18 45 -19h3v0q21 0 38 10l31 17v0l-17 -31v0q-10 -18 -10 -38v-3
v0q1 -27 19 -45q18 -17 44 -18v0z" />
</svg>
