<?xml version="1.0" standalone="no"?>
<!DOCTYPE svg PUBLIC "-//W3C//DTD SVG 1.1//EN" "http://www.w3.org/Graphics/SVG/1.1/DTD/svg11.dtd" >
<svg xmlns="http://www.w3.org/2000/svg" xmlns:xlink="http://www.w3.org/1999/xlink" version="1.1" viewBox="-10 -40 532 512">
   <path fill="currentColor"
d="M324 -34q9 12 -1 23l-58 52v0h71v0q48 1 79 33q32 31 33 79v162v0q28 6 46 27q17 21 18 51q-1 34 -23 57q-23 22 -57 23q-34 -1 -57 -23q-22 -23 -23 -57q1 -30 18 -51q18 -21 46 -27v-162v0q-1 -34 -23 -57q-23 -22 -57 -23h-71v0l58 52v0q10 11 1 23q-11 10 -23 1
l-88 -80v0q-5 -5 -5 -12t5 -12l88 -80v0q12 -9 23 1v0zM432 345q-27 1 -42 24q-12 24 0 48q15 23 42 24q27 -1 42 -24q12 -24 0 -48q-15 -23 -42 -24v0zM128 41q-1 -27 -24 -42q-24 -12 -48 0q-23 15 -24 42q1 27 24 42q24 12 48 0q23 -15 24 -42v0zM96 119v196v-196v196
q28 6 46 27q17 21 18 51q-1 34 -23 57q-23 22 -57 23q-34 -1 -57 -23q-22 -23 -23 -57q1 -30 18 -51q18 -21 46 -27v-196v0q-28 -6 -46 -27q-17 -21 -18 -51q1 -34 23 -57q23 -22 57 -23q34 1 57 23q22 23 23 57q-1 30 -18 51q-18 21 -46 27v0zM128 393q-1 -27 -24 -42
q-24 -12 -48 0q-23 15 -24 42q1 27 24 42q24 12 48 0q23 -15 24 -42v0z" />
</svg>
