<?xml version="1.0" standalone="no"?>
<!DOCTYPE svg PUBLIC "-//W3C//DTD SVG 1.1//EN" "http://www.w3.org/Graphics/SVG/1.1/DTD/svg11.dtd" >
<svg xmlns="http://www.w3.org/2000/svg" xmlns:xlink="http://www.w3.org/1999/xlink" version="1.1" viewBox="-10 -40 596 512">
   <path fill="currentColor"
d="M203 52q10 -11 0 -22q-11 -10 -22 0l-176 176v0q-10 11 0 22l176 176v0q11 10 22 0q10 -11 0 -22l-164 -165v0l164 -165v0zM373 52l164 165l-164 -165l164 165l-164 165v0q-10 11 0 22q11 10 22 0l176 -176v0q10 -11 0 -22l-176 -176v0q-11 -10 -22 0q-10 11 0 22v0z" />
</svg>
