<?xml version="1.0" standalone="no"?>
<!DOCTYPE svg PUBLIC "-//W3C//DTD SVG 1.1//EN" "http://www.w3.org/Graphics/SVG/1.1/DTD/svg11.dtd" >
<svg xmlns="http://www.w3.org/2000/svg" xmlns:xlink="http://www.w3.org/1999/xlink" version="1.1" viewBox="-10 -40 532 512">
   <path fill="currentColor"
d="M32 201q2 -71 63 -122v0v0q62 -52 161 -54q99 2 161 54q61 51 63 122q-2 71 -63 122q-62 52 -161 54q-48 0 -93 -16q-16 -5 -30 4q-23 16 -48 27l6 15v0l-6 -15v0q-16 7 -33 12q1 -1 1 -2l1 -1q21 -35 25 -76q1 -14 -7 -24q-38 -44 -40 -100v0zM256 -7q-72 1 -129 28v0v0
q-58 28 -92 75v0v0q-34 47 -35 105q3 70 47 121v0h1q-4 34 -22 63q-9 16 -21 29q-7 8 -4 17q5 10 15 10q44 -2 82 -19q28 -13 53 -31h1q50 17 104 18q72 -1 129 -28q58 -28 92 -75t35 -105q-1 -58 -35 -105t-92 -75q-57 -27 -129 -28v0zM208 137v24v-24v24v24v0h-48v0v-48v0
h48v0zM160 217h48h-48h48q-3 34 -36 45l-16 4v0q-14 4 -11 19q5 14 19 12l15 -4v0q28 -8 44 -29q17 -21 17 -49v-30v0v-24v0v-24v0q0 -14 -9 -23t-23 -9h-48v0q-14 0 -23 9t-9 23v48v0q0 14 9 23t23 9v0zM304 137h48h-48h48v24v0v24v0h-48v0v-48v0zM352 217q-3 34 -36 45
l-16 4v0q-14 4 -11 19q5 14 19 12l16 -4v0q27 -8 43 -29q17 -21 17 -49v-30v0v-24v0v-24v0q0 -14 -9 -23t-23 -9h-48v0q-14 0 -23 9t-9 23v48v0q0 14 9 23t23 9h48v0z" />
</svg>
