<?xml version="1.0" standalone="no"?>
<!DOCTYPE svg PUBLIC "-//W3C//DTD SVG 1.1//EN" "http://www.w3.org/Graphics/SVG/1.1/DTD/svg11.dtd" >
<svg xmlns="http://www.w3.org/2000/svg" xmlns:xlink="http://www.w3.org/1999/xlink" version="1.1" viewBox="-10 -40 661 512">
   <path fill="currentColor"
d="M208 -7q-78 2 -126 44v0v0q-49 42 -50 100q2 55 45 97q7 8 3 18q-16 31 -38 60q48 -6 92 -26l18 -9q4 -2 10 -1q23 5 46 5q78 -2 126 -44q49 -42 50 -100q-1 -58 -50 -100q-48 -42 -126 -44v0zM0 137q2 -75 61 -124v0v0q59 -50 147 -52q88 2 147 52q59 49 61 124
q-2 75 -61 124q-59 50 -147 52q-24 0 -47 -5q-7 4 -14 7q-57 27 -123 30q-15 -1 -22 -14q-5 -15 4 -26h1v0v0v0q22 -26 39 -58q-20 -22 -33 -50q-13 -27 -13 -60v0zM442 89q85 5 140 54v0v0q56 49 58 122q0 33 -13 60q-13 28 -33 50q17 32 40 58v0v0v0v0q10 11 4 25
q-7 14 -22 15q-66 -3 -123 -30q-7 -3 -14 -7q-23 5 -47 5q-62 -1 -112 -27q-49 -27 -75 -71q17 -3 34 -7q22 32 62 52q39 20 91 21q23 0 46 -5q6 -1 11 1q9 5 18 9q43 21 91 26q-22 -29 -38 -60q-4 -10 3 -18q43 -42 45 -97q-1 -55 -45 -96t-116 -47q-1 -17 -5 -33v0z
M148 65q10 -24 36 -26h42v0q18 1 31 13q12 13 12 31q0 25 -22 38l-23 13v0v1v0q-1 14 -16 16q-15 -2 -16 -16v-10v0q0 -9 8 -14l31 -18v0q6 -3 6 -10q-1 -11 -11 -12h-42v0q-4 1 -6 5v1v0q-7 13 -21 9q-13 -6 -9 -20v-1v0zM185 197q0 -13 11 -21q12 -7 24 0q11 8 11 21
t-11 21q-12 7 -24 0q-11 -8 -11 -21v0z" />
</svg>
