<?xml version="1.0" standalone="no"?>
<!DOCTYPE svg PUBLIC "-//W3C//DTD SVG 1.1//EN" "http://www.w3.org/Graphics/SVG/1.1/DTD/svg11.dtd" >
<svg xmlns="http://www.w3.org/2000/svg" xmlns:xlink="http://www.w3.org/1999/xlink" version="1.1" viewBox="-10 -40 468 512">
   <path fill="currentColor"
d="M144 25q15 1 16 16v96v0q-1 15 -16 16h-32h-64q-15 -1 -16 -16v-96v0q1 -15 16 -16h96v0zM112 185h32h-32h32q20 -1 34 -14q13 -14 14 -34v-96v0q-1 -20 -14 -34q-14 -13 -34 -14h-96v0q-20 1 -34 14q-13 14 -14 34v96v0q1 20 14 34q14 13 34 14h32v0v96v0q1 34 23 57
q23 22 57 23h96v0v32v0q1 20 14 34q14 13 34 14h96v0q20 -1 34 -14q13 -14 14 -34v-96v0q-1 -20 -14 -34q-14 -13 -34 -14h-96v0q-20 1 -34 14q-13 14 -14 34v32v0h-96v0q-20 -1 -34 -14q-13 -14 -14 -34v-96v0zM288 329v-32v32v-32q1 -15 16 -16h96v0q15 1 16 16v96v0
q-1 15 -16 16h-96v0q-15 -1 -16 -16v-32v0v-32v0z" />
</svg>
