<?xml version="1.0" standalone="no"?>
<!DOCTYPE svg PUBLIC "-//W3C//DTD SVG 1.1//EN" "http://www.w3.org/Graphics/SVG/1.1/DTD/svg11.dtd" >
<svg xmlns="http://www.w3.org/2000/svg" xmlns:xlink="http://www.w3.org/1999/xlink" version="1.1" viewBox="-10 -40 596 512">
   <path fill="currentColor"
d="M354 25q-9 0 -14 8l-77 129v0q-14 22 -41 23h-206v0q-15 -1 -16 -16q1 -15 16 -16h206v0q9 0 14 -8l77 -129v0q14 -22 41 -23h206v0q15 1 16 16q-1 15 -16 16h-206v0zM202 281l74 120l-74 -120l74 120q5 8 14 8h270v0q15 1 16 16q-1 15 -16 16h-270v0q-27 -1 -41 -23
l-85 -137v0h-148v0q-15 -1 -16 -16q1 -15 16 -16h165h1v0v0h378v0q15 1 16 16q-1 15 -16 16h-358v0z" />
</svg>
