<?xml version="1.0" standalone="no"?>
<!DOCTYPE svg PUBLIC "-//W3C//DTD SVG 1.1//EN" "http://www.w3.org/Graphics/SVG/1.1/DTD/svg11.dtd" >
<svg xmlns="http://www.w3.org/2000/svg" xmlns:xlink="http://www.w3.org/1999/xlink" version="1.1" viewBox="-10 -40 588 512">
   <path fill="currentColor"
d="M288 17q22 -2 24 -24q-2 -22 -24 -24q-22 2 -24 24q2 22 24 24v0zM288 377q-50 -1 -85 -32v0v0q-35 -32 -42 -80h127v0q15 -1 16 -16q-1 -15 -16 -16h-127v0q7 -48 42 -80q35 -31 85 -32q54 1 91 37q36 37 37 91q-1 54 -37 91q-37 36 -91 37v0zM128 249q0 43 21 80v0v0
q22 37 59 59q38 21 80 21t80 -21q37 -22 59 -59q21 -37 21 -80t-21 -80q-22 -37 -59 -59q-38 -21 -80 -21t-80 21q-37 22 -59 59q-21 37 -21 80v0zM568 249q-2 -22 -24 -24q-22 2 -24 24q2 22 24 24q22 -2 24 -24v0zM32 273q22 -2 24 -24q-2 -22 -24 -24q-22 2 -24 24
q2 22 24 24v0zM120 57q-2 -22 -24 -24q-22 2 -24 24q2 22 24 24q22 -2 24 -24v0zM480 81q22 -2 24 -24q-2 -22 -24 -24q-22 2 -24 24q2 22 24 24v0zM120 441q-2 -22 -24 -24q-22 2 -24 24q2 22 24 24q22 -2 24 -24v0zM480 465q22 -2 24 -24q-2 -22 -24 -24q-22 2 -24 24
q2 22 24 24v0z" />
</svg>
