<?xml version="1.0" standalone="no"?>
<!DOCTYPE svg PUBLIC "-//W3C//DTD SVG 1.1//EN" "http://www.w3.org/Graphics/SVG/1.1/DTD/svg11.dtd" >
<svg xmlns="http://www.w3.org/2000/svg" xmlns:xlink="http://www.w3.org/1999/xlink" version="1.1" viewBox="-10 -40 588 512">
   <path fill="currentColor"
d="M288 17q22 -2 24 -24q-2 -22 -24 -24q-22 2 -24 24q2 22 24 24v0zM277 238l-90 90l90 -90l-90 90q-29 -40 -27 -87q3 -46 38 -82q39 -38 90 -38t91 38q37 39 37 90t-37 91q-37 34 -83 37q-47 2 -86 -27l89 -90v0q10 -11 0 -22q-11 -10 -22 0v0zM175 362q31 32 72 44v0v0
q41 12 84 1q43 -12 73 -42t42 -73q11 -43 -1 -84t-44 -72q-31 -32 -72 -44t-84 -1q-43 12 -73 42t-42 73q-11 43 1 84t44 72v0zM568 249q-2 -22 -24 -24q-22 2 -24 24q2 22 24 24q22 -2 24 -24v0zM32 273q22 -2 24 -24q-2 -22 -24 -24q-22 2 -24 24q2 22 24 24v0zM120 57
q-2 -22 -24 -24q-22 2 -24 24q2 22 24 24q22 -2 24 -24v0zM480 81q22 -2 24 -24q-2 -22 -24 -24q-22 2 -24 24q2 22 24 24v0zM120 441q-2 -22 -24 -24q-22 2 -24 24q2 22 24 24q22 -2 24 -24v0zM480 465q22 -2 24 -24q-2 -22 -24 -24q-22 2 -24 24q2 22 24 24v0z" />
</svg>
