<?xml version="1.0" standalone="no"?>
<!DOCTYPE svg PUBLIC "-//W3C//DTD SVG 1.1//EN" "http://www.w3.org/Graphics/SVG/1.1/DTD/svg11.dtd" >
<svg xmlns="http://www.w3.org/2000/svg" xmlns:xlink="http://www.w3.org/1999/xlink" version="1.1" viewBox="-10 -40 660 512">
   <path fill="currentColor"
d="M264 17q-2 -22 -24 -24q-22 2 -24 24q2 22 24 24q22 -2 24 -24v0zM184 17q1 -32 28 -48q28 -16 56 0q27 16 28 48q-1 32 -28 48q-28 16 -56 0q-27 -16 -28 -48v0zM395 109q23 -20 53 -20h112v0q34 1 57 23q22 23 23 57q-1 34 -23 57q-23 22 -57 23h-82v0l-233 204v0
q-23 20 -53 20h-112v0q-34 -1 -57 -23q-22 -23 -23 -57q1 -34 23 -57q23 -22 57 -23h82v0l233 -204v0zM448 121q-18 0 -32 12l-237 208v0q-5 4 -11 4h-88v0q-20 1 -34 14q-13 14 -14 34q1 20 14 34q14 13 34 14h112v0q18 0 32 -12l238 -208v0q4 -4 10 -4h88v0q20 -1 34 -14
q13 -14 14 -34q-1 -20 -14 -34q-14 -13 -34 -14h-112v0zM308 143l-25 21l25 -21l-25 21q-13 -25 -43 -27q-20 1 -34 14q-13 14 -14 34v59v0l-32 28v0v-87v0q1 -34 23 -57q23 -22 57 -23q45 2 68 38v0z" />
</svg>
