<?xml version="1.0" standalone="no"?>
<!DOCTYPE svg PUBLIC "-//W3C//DTD SVG 1.1//EN" "http://www.w3.org/Graphics/SVG/1.1/DTD/svg11.dtd" >
<svg xmlns="http://www.w3.org/2000/svg" xmlns:xlink="http://www.w3.org/1999/xlink" version="1.1" viewBox="-10 -40 596 512">
   <path fill="currentColor"
d="M0 1q0 -17 12 -28v0v0q11 -12 28 -12h433v0q16 0 27 12q12 11 12 28q0 14 -9 25l-109 131v0q-37 8 -66 30l150 -182v0q2 -2 2 -4q-1 -7 -7 -8h-433v0q-7 1 -8 8q0 2 2 4l186 226v0q4 4 4 10v88v0l34 27v0q4 27 16 51q-5 -2 -9 -5l-61 -47v0q-12 -10 -12 -26v-82v0
l-183 -221v0q-9 -11 -9 -25v0zM544 329q0 -30 -15 -56v0v0q-15 -26 -41 -41t-56 -15t-56 15t-41 41t-15 56t15 56t41 41t56 15t56 -15t41 -41t15 -56v0zM288 329q0 -39 19 -72v0v0q19 -33 53 -53q34 -19 72 -19t72 19q34 20 53 53t19 72t-19 72t-53 53q-34 19 -72 19
t-72 -19q-34 -20 -53 -53t-19 -72v0zM491 292l-36 37l36 -37l-36 37l36 37v0q10 11 0 22q-11 10 -22 0l-37 -36v0l-37 36v0q-11 10 -22 0q-10 -11 0 -22l36 -37v0l-36 -37v0q-10 -11 0 -22q11 -10 22 0l37 36v0l37 -36v0q11 -10 22 0q10 11 0 22v0z" />
</svg>
