<?xml version="1.0" standalone="no"?>
<!DOCTYPE svg PUBLIC "-//W3C//DTD SVG 1.1//EN" "http://www.w3.org/Graphics/SVG/1.1/DTD/svg11.dtd" >
<svg xmlns="http://www.w3.org/2000/svg" xmlns:xlink="http://www.w3.org/1999/xlink" version="1.1" viewBox="-10 -40 532 512">
   <path fill="currentColor"
d="M32 57v320v-320v320q0 14 9 23t23 9h384v0q14 0 23 -9t9 -23v-256v0q0 -14 -9 -23t-23 -9h-32v0v176v0q0 9 -8 14q-7 4 -15 0l-57 -28v0l-57 28v0q-8 4 -15 0q-8 -5 -8 -14v-187v0q-5 -3 -9 -8l-36 -36v0q-10 -9 -23 -9h-124v0q-14 0 -23 9t-9 23v0zM384 89h-92h92h-92
h-4v150v0l41 -20v0q7 -4 14 0l41 20v0v-150v0zM400 57h48h-48h48q27 1 45 19t19 45v256v0q-1 27 -19 45t-45 19h-384v0q-27 -1 -45 -19t-19 -45v-320v0q1 -27 19 -45t45 -19h124v0q27 0 45 19l36 36v0q10 9 23 9h108v0z" />
</svg>
