<?xml version="1.0" standalone="no"?>
<!DOCTYPE svg PUBLIC "-//W3C//DTD SVG 1.1//EN" "http://www.w3.org/Graphics/SVG/1.1/DTD/svg11.dtd" >
<svg xmlns="http://www.w3.org/2000/svg" xmlns:xlink="http://www.w3.org/1999/xlink" version="1.1" viewBox="-10 -40 532 512">
   <path fill="currentColor"
d="M32 57q0 -14 9 -23v0v0q9 -9 23 -9h124v0q13 0 23 9l36 36v0q19 19 45 19h156v0q14 0 23 9t9 23v256v0q0 14 -9 23t-23 9h-384v0q-14 0 -23 -9t-9 -23v-320v0zM64 -7q-27 1 -45 19v0v0q-18 18 -19 45v320v0q1 27 19 45t45 19h384v0q27 -1 45 -19t19 -45v-256v0
q-1 -27 -19 -45t-45 -19h-156v0q-13 0 -23 -9l-36 -36v0q-19 -19 -45 -19h-124v0zM208 153v1v-1v1q0 2 -4 5q-5 2 -7 1v0v0q-12 -7 -24 -4q-13 4 -20 15l-16 28v0q-6 12 -3 24q3 13 15 20v0v0q2 1 3 6q-1 5 -3 6v0v0q-12 7 -15 20q-3 12 3 24l16 28v0q7 11 20 15q12 3 24 -3
v-1v0q2 -1 7 1q4 3 4 5v1v0q0 14 9 23t23 9h32v0q14 0 23 -9t9 -23v-1v0q0 -2 4 -5q5 -2 7 -1v1v0q12 6 24 3q13 -4 20 -15l16 -28v0q6 -12 3 -24q-3 -13 -15 -20v0v0q-2 -1 -3 -6q1 -5 3 -6v0v0q12 -7 15 -20q3 -12 -3 -24l-16 -28v0q-7 -11 -20 -15q-12 -3 -24 4v0v0
q-2 1 -7 -1q-4 -3 -4 -5v-1v0q0 -14 -9 -23t-23 -9h-32v0q-14 0 -23 9t-9 23v0zM272 153v1v-1v1q2 23 20 33t39 1v-1v0l16 28v0v0v0q-20 13 -19 34q-1 21 19 34v0v0l-16 28v0v0v0q-21 -10 -39 0t-20 33v1v0h-32v0v-1v0q-2 -23 -20 -33t-38 0h-1v0l-16 -28v0h1v0
q19 -13 18 -34q1 -21 -18 -34h-1v0l16 -28v0l1 1v0q20 9 38 -1t20 -33v-1v0h32v0zM280 249q-2 -22 -24 -24q-22 2 -24 24q2 22 24 24q22 -2 24 -24v0z" />
</svg>
