<?xml version="1.0" standalone="no"?>
<!DOCTYPE svg PUBLIC "-//W3C//DTD SVG 1.1//EN" "http://www.w3.org/Graphics/SVG/1.1/DTD/svg11.dtd" >
<svg xmlns="http://www.w3.org/2000/svg" xmlns:xlink="http://www.w3.org/1999/xlink" version="1.1" viewBox="-10 -40 532 512">
   <path fill="currentColor"
d="M32 57q0 -14 9 -23v0v0q9 -9 23 -9h124v0q13 0 23 9l36 36v0q19 19 45 19h156v0q14 0 23 9t9 23v256v0q0 14 -9 23t-23 9h-384v0q-14 0 -23 -9t-9 -23v-320v0zM64 -7q-27 1 -45 19v0v0q-18 18 -19 45v320v0q1 27 19 45t45 19h384v0q27 -1 45 -19t19 -45v-256v0
q-1 -27 -19 -45t-45 -19h-156v0q-13 0 -23 -9l-36 -36v0q-19 -19 -45 -19h-124v0zM152 153q-2 -22 -24 -24q-22 2 -24 24q2 22 24 24q22 -2 24 -24v0zM288 185l92 128l-92 -128l92 128h-248v0l44 -64v0l19 26v0q5 6 13 6t13 -6l67 -90v0zM262 166l-54 72l54 -72l-54 72
l-6 -8v0q-10 -13 -26 -13t-26 13l-49 71v0q-5 7 -5 16q0 12 8 20t20 8h264v0q12 0 20 -8t8 -20q0 -9 -5 -16l-97 -135v0q-10 -13 -26 -13t-26 13v0z" />
</svg>
