<?xml version="1.0" standalone="no"?>
<!DOCTYPE svg PUBLIC "-//W3C//DTD SVG 1.1//EN" "http://www.w3.org/Graphics/SVG/1.1/DTD/svg11.dtd" >
<svg xmlns="http://www.w3.org/2000/svg" xmlns:xlink="http://www.w3.org/1999/xlink" version="1.1" viewBox="-10 -40 532 512">
   <path fill="currentColor"
d="M32 57q0 -14 9 -23v0v0q9 -9 23 -9h124v0q13 0 23 9l36 36v0q19 19 45 19h156v0q14 0 23 9t9 23v256v0q0 14 -9 23t-23 9h-384v0q-14 0 -23 -9t-9 -23v-320v0zM64 -7q-27 1 -45 19v0v0q-18 18 -19 45v320v0q1 27 19 45t45 19h384v0q27 -1 45 -19t19 -45v-256v0
q-1 -27 -19 -45t-45 -19h-156v0q-13 0 -23 -9l-36 -36v0q-19 -19 -45 -19h-124v0zM256 153q14 0 23 9v0v0q9 9 9 23t-9 23t-23 9t-23 -9t-9 -23t9 -23t23 -9v0zM256 249q36 -1 55 -32q18 -32 0 -64q-19 -31 -55 -32q-36 1 -55 32q-18 32 0 64q19 31 55 32v0zM224 313h64h-64
h64q20 1 34 14q13 14 14 34q1 15 16 16q15 -1 16 -16q-1 -34 -23 -57q-23 -22 -57 -23h-64v0q-34 1 -57 23q-22 23 -23 57q1 15 16 16q15 -1 16 -16q1 -20 14 -34q14 -13 34 -14v0z" />
</svg>
