<?xml version="1.0" standalone="no"?>
<!DOCTYPE svg PUBLIC "-//W3C//DTD SVG 1.1//EN" "http://www.w3.org/Graphics/SVG/1.1/DTD/svg11.dtd" >
<svg xmlns="http://www.w3.org/2000/svg" xmlns:xlink="http://www.w3.org/1999/xlink" version="1.1" viewBox="-10 -40 340 512">
   <path fill="currentColor"
d="M104 -7q-17 0 -28 12v0v0q-12 11 -12 28v136v0v112v0h-48v0q-15 1 -16 16q1 15 16 16h48v0v112v0q1 15 16 16q15 -1 16 -16v-112v0h112v0q15 -1 16 -16q-1 -15 -16 -16h-112v0v-96v0h176v0q15 -1 16 -16q-1 -15 -16 -16h-176v0v-120v0q1 -7 8 -8h200v0q15 -1 16 -16
q-1 -15 -16 -16h-200v0z" />
</svg>
