<?xml version="1.0" standalone="no"?>
<!DOCTYPE svg PUBLIC "-//W3C//DTD SVG 1.1//EN" "http://www.w3.org/Graphics/SVG/1.1/DTD/svg11.dtd" >
<svg xmlns="http://www.w3.org/2000/svg" xmlns:xlink="http://www.w3.org/1999/xlink" version="1.1" viewBox="-10 -40 468 512">
   <path fill="currentColor"
d="M64 25q-14 0 -23 9v0v0q-9 9 -9 23v320v0q0 14 9 23t23 9h320v0q14 0 23 -9t9 -23v-320v0q0 -14 -9 -23t-23 -9h-320v0zM0 57q1 -27 19 -45v0v0q18 -18 45 -19h320v0q27 1 45 19t19 45v320v0q-1 27 -19 45t-45 19h-320v0q-27 -1 -45 -19t-19 -45v-320v0zM96 57h56h-56
h256q14 0 23 9t9 23v128v0v128v0q0 14 -9 23t-23 9h-56h-200q-14 0 -23 -9t-9 -23v-128v0v-128v0q0 -14 9 -23t23 -9v0zM96 89v112v-112v112h40v0v-112v0h-40v0zM168 201h40h-40h40v-112v0h-40v0v112v0zM240 201h40h-40h40v-112v0h-40v0v112v0zM312 201h40h-40h40v-112v0
h-40v0v112v0zM312 233v112v-112v112h40v0v-112v0h-40v0zM280 233h-40h40h-40v112v0h40v0v-112v0zM208 233h-40h40h-40v112v0h40v0v-112v0zM136 233h-40h40h-40v112v0h40v0v-112v0z" />
</svg>
