<?xml version="1.0" standalone="no"?>
<!DOCTYPE svg PUBLIC "-//W3C//DTD SVG 1.1//EN" "http://www.w3.org/Graphics/SVG/1.1/DTD/svg11.dtd" >
<svg xmlns="http://www.w3.org/2000/svg" xmlns:xlink="http://www.w3.org/1999/xlink" version="1.1" viewBox="-10 -40 468 512">
   <path fill="currentColor"
d="M88 25q7 1 8 8v48v0q-1 7 -8 8h-48v0q-7 -1 -8 -8v-48v0q1 -7 8 -8h48v0zM40 -7q-17 0 -28 12v0v0q-12 11 -12 28v48v0q0 17 12 28q11 12 28 12h48v0q17 0 28 -12q12 -11 12 -28v-48v0q0 -17 -12 -28q-11 -12 -28 -12h-48v0zM88 185q7 1 8 8v48v0q-1 7 -8 8h-48v0
q-7 -1 -8 -8v-48v0q1 -7 8 -8h48v0zM40 153q-17 0 -28 12v0v0q-12 11 -12 28v48v0q0 17 12 28q11 12 28 12h48v0q17 0 28 -12q12 -11 12 -28v-48v0q0 -17 -12 -28q-11 -12 -28 -12h-48v0zM40 345h48h-48h48q7 1 8 8v48v0q-1 7 -8 8h-48v0q-7 -1 -8 -8v-48v0q1 -7 8 -8v0z
M0 353v48v-48v48q0 17 12 28q11 12 28 12h48v0q17 0 28 -12q12 -11 12 -28v-48v0q0 -17 -12 -28q-11 -12 -28 -12h-48v0q-17 0 -28 12q-12 11 -12 28v0zM248 25q7 1 8 8v48v0q-1 7 -8 8h-48v0q-7 -1 -8 -8v-48v0q1 -7 8 -8h48v0zM200 -7q-17 0 -28 12v0v0q-12 11 -12 28v48
v0q0 17 12 28q11 12 28 12h48v0q17 0 28 -12q12 -11 12 -28v-48v0q0 -17 -12 -28q-11 -12 -28 -12h-48v0zM200 185h48h-48h48q7 1 8 8v48v0q-1 7 -8 8h-48v0q-7 -1 -8 -8v-48v0q1 -7 8 -8v0zM160 193v48v-48v48q0 17 12 28q11 12 28 12h48v0q17 0 28 -12q12 -11 12 -28v-48
v0q0 -17 -12 -28q-11 -12 -28 -12h-48v0q-17 0 -28 12q-12 11 -12 28v0zM248 345q7 1 8 8v48v0q-1 7 -8 8h-48v0q-7 -1 -8 -8v-48v0q1 -7 8 -8h48v0zM200 313q-17 0 -28 12v0v0q-12 11 -12 28v48v0q0 17 12 28q11 12 28 12h48v0q17 0 28 -12q12 -11 12 -28v-48v0
q0 -17 -12 -28q-11 -12 -28 -12h-48v0zM360 25h48h-48h48q7 1 8 8v48v0q-1 7 -8 8h-48v0q-7 -1 -8 -8v-48v0q1 -7 8 -8v0zM320 33v48v-48v48q0 17 12 28q11 12 28 12h48v0q17 0 28 -12q12 -11 12 -28v-48v0q0 -17 -12 -28q-11 -12 -28 -12h-48v0q-17 0 -28 12q-12 11 -12 28
v0zM408 185q7 1 8 8v48v0q-1 7 -8 8h-48v0q-7 -1 -8 -8v-48v0q1 -7 8 -8h48v0zM360 153q-17 0 -28 12v0v0q-12 11 -12 28v48v0q0 17 12 28q11 12 28 12h48v0q17 0 28 -12q12 -11 12 -28v-48v0q0 -17 -12 -28q-11 -12 -28 -12h-48v0zM360 345h48h-48h48q7 1 8 8v48v0
q-1 7 -8 8h-48v0q-7 -1 -8 -8v-48v0q1 -7 8 -8v0zM320 353v48v-48v48q0 17 12 28q11 12 28 12h48v0q17 0 28 -12q12 -11 12 -28v-48v0q0 -17 -12 -28q-11 -12 -28 -12h-48v0q-17 0 -28 12q-12 11 -12 28v0z" />
</svg>
