<?xml version="1.0" standalone="no"?>
<!DOCTYPE svg PUBLIC "-//W3C//DTD SVG 1.1//EN" "http://www.w3.org/Graphics/SVG/1.1/DTD/svg11.dtd" >
<svg xmlns="http://www.w3.org/2000/svg" xmlns:xlink="http://www.w3.org/1999/xlink" version="1.1" viewBox="-10 -40 522 512">
   <path fill="currentColor"
d="M176 25h-96h96h-96q-15 1 -16 16v96v0q1 15 16 16h96v0q15 -1 16 -16v-96v0q-1 -15 -16 -16v0zM80 -7h96h-96h96q20 1 34 14q13 14 14 34v96v0q-1 20 -14 34q-14 13 -34 14h-96v0q-20 -1 -34 -14q-13 -14 -14 -34v-96v0q1 -20 14 -34q14 -13 34 -14v0zM176 281h-96h96
h-96q-15 1 -16 16v96v0q1 15 16 16h96v0q15 -1 16 -16v-96v0q-1 -15 -16 -16v0zM80 249h96h-96h96q20 1 34 14q13 14 14 34v96v0q-1 20 -14 34q-14 13 -34 14h-96v0q-20 -1 -34 -14q-13 -14 -14 -34v-96v0q1 -20 14 -34q14 -13 34 -14v0zM336 25q-15 1 -16 16v96v0
q1 15 16 16h96v0q15 -1 16 -16v-96v0q-1 -15 -16 -16h-96v0zM288 41q1 -20 14 -34v0v0q14 -13 34 -14h96v0q20 1 34 14q13 14 14 34v96v0q-1 20 -14 34q-14 13 -34 14h-96v0q-20 -1 -34 -14q-13 -14 -14 -34v-96v0zM384 233q15 1 16 16v80v0h80v0q15 1 16 16q-1 15 -16 16
h-80v0v80v0q-1 15 -16 16q-15 -1 -16 -16v-80v0h-80v0q-15 -1 -16 -16q1 -15 16 -16h80v0v-80v0q1 -15 16 -16v0z" />
</svg>
