<?xml version="1.0" standalone="no"?>
<!DOCTYPE svg PUBLIC "-//W3C//DTD SVG 1.1//EN" "http://www.w3.org/Graphics/SVG/1.1/DTD/svg11.dtd" >
<svg xmlns="http://www.w3.org/2000/svg" xmlns:xlink="http://www.w3.org/1999/xlink" version="1.1" viewBox="-10 -40 468 512">
   <path fill="currentColor"
d="M24 17h16h-16h16v16v0h-16v0v-16v0zM16 -7q-15 1 -16 16v32v0q1 15 16 16h32v0q15 -1 16 -16v-32v0q-1 -15 -16 -16h-32v0zM24 113h16h-16h16v16v0h-16v0v-16v0zM16 89q-15 1 -16 16v32v0q1 15 16 16h32v0q15 -1 16 -16v-32v0q-1 -15 -16 -16h-32v0zM24 225v-16v16v-16
h16v0v16v0h-16v0zM0 201v32v-32v32q1 15 16 16h32v0q15 -1 16 -16v-32v0q-1 -15 -16 -16h-32v0q-15 1 -16 16v0zM24 305h16h-16h16v16v0h-16v0v-16v0zM16 281q-15 1 -16 16v32v0q1 15 16 16h32v0q15 -1 16 -16v-32v0q-1 -15 -16 -16h-32v0zM24 417v-16v16v-16h16v0v16v0h-16
v0zM0 393v32v-32v32q1 15 16 16h32v0q15 -1 16 -16v-32v0q-1 -15 -16 -16h-32v0q-15 1 -16 16v0zM120 17h16h-16h16v16v0h-16v0v-16v0zM112 -7q-15 1 -16 16v32v0q1 15 16 16h32v0q15 -1 16 -16v-32v0q-1 -15 -16 -16h-32v0zM120 129v-16v16v-16h16v0v16v0h-16v0zM96 105v32
v-32v32q1 15 16 16h32v0q15 -1 16 -16v-32v0q-1 -15 -16 -16h-32v0q-15 1 -16 16v0zM120 209h16h-16h16v16v0h-16v0v-16v0zM112 185q-15 1 -16 16v32v0q1 15 16 16h32v0q15 -1 16 -16v-32v0q-1 -15 -16 -16h-32v0zM120 321v-16v16v-16h16v0v16v0h-16v0zM96 297v32v-32v32
q1 15 16 16h32v0q15 -1 16 -16v-32v0q-1 -15 -16 -16h-32v0q-15 1 -16 16v0zM120 401h16h-16h16v16v0h-16v0v-16v0zM112 377q-15 1 -16 16v32v0q1 15 16 16h32v0q15 -1 16 -16v-32v0q-1 -15 -16 -16h-32v0zM216 33v-16v16v-16h16v0v16v0h-16v0zM192 9v32v-32v32q1 15 16 16
h32v0q15 -1 16 -16v-32v0q-1 -15 -16 -16h-32v0q-15 1 -16 16v0zM216 113h16h-16h16v16v0h-16v0v-16v0zM208 89q-15 1 -16 16v32v0q1 15 16 16h32v0q15 -1 16 -16v-32v0q-1 -15 -16 -16h-32v0zM216 225v-16v16v-16h16v0v16v0h-16v0zM192 201v32v-32v32q1 15 16 16h32v0
q15 -1 16 -16v-32v0q-1 -15 -16 -16h-32v0q-15 1 -16 16v0zM216 305h16h-16h16v16v0h-16v0v-16v0zM208 281q-15 1 -16 16v32v0q1 15 16 16h32v0q15 -1 16 -16v-32v0q-1 -15 -16 -16h-32v0zM216 417v-16v16v-16h16v0v16v0h-16v0zM192 393v32v-32v32q1 15 16 16h32v0
q15 -1 16 -16v-32v0q-1 -15 -16 -16h-32v0q-15 1 -16 16v0zM312 17h16h-16h16v16v0h-16v0v-16v0zM304 -7q-15 1 -16 16v32v0q1 15 16 16h32v0q15 -1 16 -16v-32v0q-1 -15 -16 -16h-32v0zM312 129v-16v16v-16h16v0v16v0h-16v0zM288 105v32v-32v32q1 15 16 16h32v0
q15 -1 16 -16v-32v0q-1 -15 -16 -16h-32v0q-15 1 -16 16v0zM312 209h16h-16h16v16v0h-16v0v-16v0zM304 185q-15 1 -16 16v32v0q1 15 16 16h32v0q15 -1 16 -16v-32v0q-1 -15 -16 -16h-32v0zM312 321v-16v16v-16h16v0v16v0h-16v0zM288 297v32v-32v32q1 15 16 16h32v0
q15 -1 16 -16v-32v0q-1 -15 -16 -16h-32v0q-15 1 -16 16v0zM312 401h16h-16h16v16v0h-16v0v-16v0zM304 377q-15 1 -16 16v32v0q1 15 16 16h32v0q15 -1 16 -16v-32v0q-1 -15 -16 -16h-32v0zM408 33v-16v16v-16h16v0v16v0h-16v0zM384 9v32v-32v32q1 15 16 16h32v0
q15 -1 16 -16v-32v0q-1 -15 -16 -16h-32v0q-15 1 -16 16v0zM408 113h16h-16h16v16v0h-16v0v-16v0zM400 89q-15 1 -16 16v32v0q1 15 16 16h32v0q15 -1 16 -16v-32v0q-1 -15 -16 -16h-32v0zM408 225v-16v16v-16h16v0v16v0h-16v0zM384 201v32v-32v32q1 15 16 16h32v0
q15 -1 16 -16v-32v0q-1 -15 -16 -16h-32v0q-15 1 -16 16v0zM408 305h16h-16h16v16v0h-16v0v-16v0zM400 281q-15 1 -16 16v32v0q1 15 16 16h32v0q15 -1 16 -16v-32v0q-1 -15 -16 -16h-32v0zM408 417v-16v16v-16h16v0v16v0h-16v0zM384 393v32v-32v32q1 15 16 16h32v0
q15 -1 16 -16v-32v0q-1 -15 -16 -16h-32v0q-15 1 -16 16v0z" />
</svg>
