<?xml version="1.0" standalone="no"?>
<!DOCTYPE svg PUBLIC "-//W3C//DTD SVG 1.1//EN" "http://www.w3.org/Graphics/SVG/1.1/DTD/svg11.dtd" >
<svg xmlns="http://www.w3.org/2000/svg" xmlns:xlink="http://www.w3.org/1999/xlink" version="1.1" viewBox="-10 -40 458 512">
   <path fill="currentColor"
d="M136 473q-24 -1 -40 -16v0v0q-15 -16 -16 -40v-201v0q-5 -3 -9 -6l-23 -17v0q-31 -24 -32 -64v-19v0q0 -41 20 -74q20 -34 56 -53l8 -5v0q32 -17 68 -17h136v0q48 1 79 33q32 31 33 79v8v0v88v0q-1 27 -19 45t-45 19h-8q-18 30 -56 32q-8 0 -15 -2q-18 32 -57 34
q-13 0 -24 -5v125v0q-1 24 -16 40q-16 15 -40 16v0zM112 417q2 22 24 24q22 -2 24 -24v-157v0q1 -12 11 -16q12 -2 18 7q10 13 27 14q25 -2 31 -26q2 -8 10 -11q7 -4 14 0q8 5 17 5q24 -2 31 -24q2 -6 8 -10q7 -3 13 0q6 2 12 2q14 0 23 -9t9 -23v-88v0v-8v0q-1 -34 -23 -57
q-23 -22 -57 -23h-136v0q-28 0 -53 13l-7 -14v0l7 14v0l-8 5v0q-28 15 -43 41q-16 26 -16 58v19v0q1 24 19 38l13 10v0v-48v0q1 -15 16 -16q15 1 16 16v78v0v2v0v208v0z" />
</svg>
