<?xml version="1.0" standalone="no"?>
<!DOCTYPE svg PUBLIC "-//W3C//DTD SVG 1.1//EN" "http://www.w3.org/Graphics/SVG/1.1/DTD/svg11.dtd" >
<svg xmlns="http://www.w3.org/2000/svg" xmlns:xlink="http://www.w3.org/1999/xlink" version="1.1" viewBox="-10 -40 458 512">
   <path fill="currentColor"
d="M136 -39q-24 1 -40 16v0v0q-15 16 -16 40v201v0q-5 3 -9 6l-23 17v0q-31 24 -32 64v20v0q0 40 20 73q20 34 56 53l8 5v0q32 17 68 17h136v0q48 -1 79 -33q32 -31 33 -79v-8v0v-88v0q-1 -27 -19 -45t-45 -19q-4 0 -8 1q-18 -31 -56 -33q-8 0 -15 2q-18 -32 -57 -34
q-13 0 -24 5v-125v0q-1 -24 -16 -40q-16 -15 -40 -16v0zM112 17q2 -22 24 -24q22 2 24 24v158v0q1 11 11 15q12 2 18 -7q10 -13 27 -14q25 2 31 26q2 8 10 12q7 3 14 -1q8 -5 17 -5q24 2 31 24q2 6 8 10q7 3 13 0q6 -2 12 -2q14 0 23 9t9 23v88v0v8v0q-1 34 -23 57
q-23 22 -57 23h-136v0q-28 0 -53 -13l-7 14v0l7 -14v0l-8 -5v0q-28 -15 -43 -41q-16 -26 -16 -57v-20v0q1 -24 19 -38l13 -10v0v48v0q1 15 16 16q15 -1 16 -16v-78v0v-2v0v-208v0z" />
</svg>
