<?xml version="1.0" standalone="no"?>
<!DOCTYPE svg PUBLIC "-//W3C//DTD SVG 1.1//EN" "http://www.w3.org/Graphics/SVG/1.1/DTD/svg11.dtd" >
<svg xmlns="http://www.w3.org/2000/svg" xmlns:xlink="http://www.w3.org/1999/xlink" version="1.1" viewBox="-10 -40 522 512">
   <path fill="currentColor"
d="M256 413v-1v1v-1v-355v0l-12 -12v0q-25 -25 -57 -35q-33 -10 -68 -5q-52 10 -85 49q-33 38 -34 92v6v0q1 65 48 109l176 165v0v0v0l4 4v0l9 8v0q3 3 8 3q10 -1 11 -11v-13v0v-4v0zM224 382l-155 -144l155 144l-155 -144q-36 -35 -37 -86v-6v0q1 -41 26 -72q26 -30 67 -37
q56 -8 96 31l3 2v0v312v0z" />
</svg>
