<?xml version="1.0" standalone="no"?>
<!DOCTYPE svg PUBLIC "-//W3C//DTD SVG 1.1//EN" "http://www.w3.org/Graphics/SVG/1.1/DTD/svg11.dtd" >
<svg xmlns="http://www.w3.org/2000/svg" xmlns:xlink="http://www.w3.org/1999/xlink" version="1.1" viewBox="-10 -40 660 512">
   <path fill="currentColor"
d="M320 -7h256h-256h256q14 0 23 9t9 23v384v0q0 14 -9 23t-23 9h-162v0q-3 18 -14 32h176v0q27 -1 45 -19t19 -45v-384v0q-1 -27 -19 -45t-45 -19h-256v0q-27 1 -45 19t-19 45v31v0l32 30v0v-61v0q0 -14 9 -23t23 -9v0zM496 169q-14 0 -23 9v0v0q-9 9 -9 23v32v0q0 14 9 23
t23 9h32v0q14 0 23 -9t9 -23v-32v0q0 -14 -9 -23t-23 -9h-32v0zM496 201h32h-32h32v32v0h-32v0v-32v0zM464 329v32v-32v32q0 14 9 23t23 9h32v0q14 0 23 -9t9 -23v-32v0q0 -14 -9 -23t-23 -9h-32v0q-14 0 -23 9t-9 23v0zM528 329v32v-32v32h-32v0v-32v0h32v0zM368 41
q-14 0 -23 9v0v0q-9 9 -9 23v32v0q0 14 9 23t23 9h32v0q14 0 23 -9t9 -23v-32v0q0 -14 -9 -23t-23 -9h-32v0zM368 73h32h-32h32v32v0h-32v0v-32v0zM464 73v32v-32v32q0 14 9 23t23 9h32v0q14 0 23 -9t9 -23v-32v0q0 -14 -9 -23t-23 -9h-32v0q-14 0 -23 9t-9 23v0zM528 73v32
v-32v32h-32v0v-32v0h32v0zM32 245q0 -14 10 -23l128 -118v0q10 -8 22 -8t22 8l128 118v0q10 9 10 23v164v0q0 14 -9 23t-23 9h-256v0q-14 0 -23 -9t-9 -23v-164v0zM0 409q1 27 19 45v0v0q18 18 45 19h256v0q27 -1 45 -19t19 -45v-164v0q0 -28 -21 -47l-128 -117v0
q-19 -17 -43 -17t-43 17l-128 117v0q-21 19 -21 47v164v0zM224 249v64v-64v64h-64v0v-64v0h64v0zM160 217q-14 0 -23 9v0v0q-9 9 -9 23v64v0q0 14 9 23t23 9h64v0q14 0 23 -9t9 -23v-64v0q0 -14 -9 -23t-23 -9h-64v0z" />
</svg>
