<?xml version="1.0" standalone="no"?>
<!DOCTYPE svg PUBLIC "-//W3C//DTD SVG 1.1//EN" "http://www.w3.org/Graphics/SVG/1.1/DTD/svg11.dtd" >
<svg xmlns="http://www.w3.org/2000/svg" xmlns:xlink="http://www.w3.org/1999/xlink" version="1.1" viewBox="-10 -40 532 512">
   <path fill="currentColor"
d="M35 153l-2 3l2 -3l-2 3q-1 3 -1 7v70v0q2 15 16 16h416v0q15 -1 16 -16v-70v0q0 -4 -1 -7l-2 -3v0h-73v0q-10 0 -14 9l-15 28v0q-14 26 -43 27h-152v0q-29 -1 -43 -26l-14 -29v0q-5 -9 -15 -9h-73v0zM48 121h60h-60h60q29 1 43 27l14 28v0q5 9 15 9h152v0q10 0 15 -9
l14 -28v0q14 -26 43 -27h60v0l-49 -118v0l29 -12v0l-29 12v0q-5 -10 -15 -10h-288v0q-10 0 -15 10l-49 118v0zM4 144l64 -153l-64 153l64 -153q13 -29 44 -30h288v0q31 1 44 30l64 153v0q4 9 4 19v70v0q-1 20 -14 34q-14 13 -34 14h-416v0q-20 -1 -34 -14q-13 -14 -14 -34
v-70v0q0 -10 4 -19v0zM114 345h-66h66h-66q-15 1 -16 16v64v0q1 15 16 16h416v0q15 -1 16 -16v-64v0q-1 -15 -16 -16h-66v0q-10 0 -15 9l-14 29v0l-29 -15v0l15 -28v0q14 -26 43 -27h66v0q20 1 34 14q13 14 14 34v64v0q-1 20 -14 34q-14 14 -34 14h-416v0q-20 0 -34 -14
q-13 -14 -14 -34v-64v0q1 -20 14 -34q14 -13 34 -14h66v0q29 1 43 27l15 28v0q4 9 14 9h140v0q10 0 14 -9l29 15v0q-14 25 -43 26h-140v0q-29 -1 -43 -26l-14 -29v0q-5 -9 -15 -9v0z" />
</svg>
