<?xml version="1.0" standalone="no"?>
<!DOCTYPE svg PUBLIC "-//W3C//DTD SVG 1.1//EN" "http://www.w3.org/Graphics/SVG/1.1/DTD/svg11.dtd" >
<svg xmlns="http://www.w3.org/2000/svg" xmlns:xlink="http://www.w3.org/1999/xlink" version="1.1" viewBox="-10 -40 660 512">
   <path fill="currentColor"
d="M576 57q14 0 23 9v0v0q9 9 9 23v256v0q0 14 -9 23t-23 9h-512v0q-14 0 -23 -9t-9 -23v-256v0q0 -14 9 -23t23 -9h512v0zM64 25q-27 1 -45 19v0v0q-18 18 -19 45v256v0q1 27 19 45t45 19h512v0q27 -1 45 -19t19 -45v-256v0q-1 -27 -19 -45t-45 -19h-512v0zM96 137
q1 15 16 16h16v0v128v0h-16v0q-15 1 -16 16q1 15 16 16h64v0q15 -1 16 -16q-1 -15 -16 -16h-16v0v-144v0q-1 -15 -16 -16h-32v0q-15 1 -16 16v0zM265 164q7 -8 18 -9v0v0q10 -1 19 7q16 17 2 36l-76 89v0q-6 7 -3 17q5 9 15 9h96v0q15 -1 16 -16q-1 -15 -16 -16h-61v0
l54 -62v0q15 -19 14 -42q-2 -23 -20 -40q-19 -16 -43 -14q-23 2 -40 21l-12 15v0q-9 12 2 22q12 8 22 -2l13 -15v0z" />
</svg>
