<?xml version="1.0" standalone="no"?>
<!DOCTYPE svg PUBLIC "-//W3C//DTD SVG 1.1//EN" "http://www.w3.org/Graphics/SVG/1.1/DTD/svg11.dtd" >
<svg xmlns="http://www.w3.org/2000/svg" xmlns:xlink="http://www.w3.org/1999/xlink" version="1.1" viewBox="-10 -40 650 512">
   <path fill="currentColor"
d="M320 145q22 -2 24 -24q-2 -22 -24 -24q-22 2 -24 24q2 22 24 24v0zM208 345q-15 1 -16 16q1 15 16 16h224v0q15 -1 16 -16q-1 -15 -16 -16h-224v0zM184 185q-2 -22 -24 -24q-22 2 -24 24q2 22 24 24q22 -2 24 -24v0zM480 209q22 -2 24 -24q-2 -22 -24 -24q-22 2 -24 24
q2 22 24 24v0zM568 345q-2 -22 -24 -24q-22 2 -24 24q2 22 24 24q22 -2 24 -24v0zM96 369q22 -2 24 -24q-2 -22 -24 -24q-22 2 -24 24q2 22 24 24v0z" />
</svg>
