<?xml version="1.0" standalone="no"?>
<!DOCTYPE svg PUBLIC "-//W3C//DTD SVG 1.1//EN" "http://www.w3.org/Graphics/SVG/1.1/DTD/svg11.dtd" >
<svg xmlns="http://www.w3.org/2000/svg" xmlns:xlink="http://www.w3.org/1999/xlink" version="1.1" viewBox="-11 0 662 512">
   <path fill="currentColor"
d="M26 -36q-12 -7 -23 3q-8 12 3 23l608 480v0q12 8 23 -3q8 -12 -3 -22l-608 -481v0zM640 281q-1 -54 -37 -91v0v0q-37 -36 -91 -37h-32v0q-15 1 -16 16q1 15 16 16h32v0q41 1 68 28t28 68q-1 37 -24 63l26 20v0q29 -34 30 -83v0zM460 409l-41 -32l41 32l-41 -32h-83v0
q-41 -1 -68 -28t-28 -68q0 -21 8 -39l-25 -20v0q-15 27 -15 59q1 54 37 91q37 36 91 37h124v0zM400 153q0 21 -8 39l25 20v0q15 -27 15 -59q-1 -54 -37 -91q-37 -36 -91 -37h-124v0l41 32v0h83v0q41 1 68 28t28 68v0zM56 90l-25 -20l25 20l-25 -20q-30 35 -31 83q1 54 37 91
q37 36 91 37h32v0q15 -1 16 -16q-1 -15 -16 -16h-32v0q-41 -1 -68 -28t-28 -68q1 -37 24 -63v0z" />
</svg>
