<?xml version="1.0" standalone="no"?>
<!DOCTYPE svg PUBLIC "-//W3C//DTD SVG 1.1//EN" "http://www.w3.org/Graphics/SVG/1.1/DTD/svg11.dtd" >
<svg xmlns="http://www.w3.org/2000/svg" xmlns:xlink="http://www.w3.org/1999/xlink" version="1.1" viewBox="-11 0 662 512">
   <path fill="currentColor"
d="M26 -36q-12 -7 -23 3q-8 12 3 23l608 480v0q12 8 23 -3q8 -12 -3 -22l-608 -481v0zM608 217q-2 -68 -47 -113v0v0q-45 -45 -113 -47h-80v0q-15 1 -16 16q1 15 16 16h80v0q54 1 91 37q36 37 37 91q-1 55 -38 91l26 20v0q42 -45 44 -111v0zM456 233q15 -1 16 -16
q-1 -15 -16 -16h-53v0l41 32v0h12v0zM196 201h-12h12h-12q-15 1 -16 16q1 15 16 16h53v0l-40 -32h-1zM102 126l-25 -20l25 20l-25 -20q-43 45 -45 111q2 68 47 113t113 47h80v0q15 -1 16 -16q-1 -15 -16 -16h-80v0q-54 -1 -91 -37q-36 -37 -37 -91q1 -55 38 -91v0z" />
</svg>
