<?xml version="1.0" standalone="no"?>
<!DOCTYPE svg PUBLIC "-//W3C//DTD SVG 1.1//EN" "http://www.w3.org/Graphics/SVG/1.1/DTD/svg11.dtd" >
<svg xmlns="http://www.w3.org/2000/svg" xmlns:xlink="http://www.w3.org/1999/xlink" version="1.1" viewBox="-10 -40 532 512">
   <path fill="currentColor"
d="M32 57q0 -14 9 -23v0v0q9 -9 23 -9t23 9t9 23t-9 23t-23 9t-23 -9t-9 -23v0zM128 57q-1 -36 -32 -55q-32 -18 -64 0q-31 19 -32 55q1 36 32 55q32 18 64 0q31 -19 32 -55v0zM192 57q1 15 16 16h288v0q15 -1 16 -16q-1 -15 -16 -16h-288v0q-15 1 -16 16v0zM192 217
q1 15 16 16h288v0q15 -1 16 -16q-1 -15 -16 -16h-288v0q-15 1 -16 16v0zM192 377q1 15 16 16h288v0q15 -1 16 -16q-1 -15 -16 -16h-288v0q-15 1 -16 16v0zM64 249q-14 0 -23 -9v0v0q-9 -9 -9 -23t9 -23t23 -9t23 9t9 23t-9 23t-23 9v0zM64 153q-36 1 -55 32q-18 32 0 64
q19 31 55 32q36 -1 55 -32q18 -32 0 -64q-19 -31 -55 -32v0zM80 57q-1 -15 -16 -16q-15 1 -16 16q1 15 16 16q15 -1 16 -16v0zM32 377q0 -14 9 -23v0v0q9 -9 23 -9t23 9t9 23t-9 23t-23 9t-23 -9t-9 -23v0zM128 377q-1 -36 -32 -55q-32 -18 -64 0q-31 19 -32 55q1 36 32 55
q32 18 64 0q31 -19 32 -55v0z" />
</svg>
