<?xml version="1.0" standalone="no"?>
<!DOCTYPE svg PUBLIC "-//W3C//DTD SVG 1.1//EN" "http://www.w3.org/Graphics/SVG/1.1/DTD/svg11.dtd" >
<svg xmlns="http://www.w3.org/2000/svg" xmlns:xlink="http://www.w3.org/1999/xlink" version="1.1" viewBox="-10 -40 596 512">
   <path fill="currentColor"
d="M320 -7h-256h256h-256q-14 0 -23 9t-9 23v384v0q0 14 9 23t23 9h232v0q15 18 34 31q-5 1 -10 1h-256v0q-27 -1 -45 -19t-19 -45v-384v0q1 -27 19 -45t45 -19h256v0q27 1 45 19t19 45v135v0q-17 4 -32 12v-147v0q0 -14 -9 -23t-23 -9v0zM64 105q1 -15 16 -16h224v0
q15 1 16 16q-1 15 -16 16h-224v0q-15 -1 -16 -16v0zM80 185h192h-192h192q15 1 16 16q-1 15 -16 16h-192v0q-15 -1 -16 -16q1 -15 16 -16v0zM80 281h128h-128h128q15 1 16 16q-1 15 -16 16h-128v0q-15 -1 -16 -16q1 -15 16 -16v0zM432 441q30 0 56 -15v0v0q26 -15 41 -41
t15 -56t-15 -56t-41 -41t-56 -15t-56 15t-41 41t-15 56t15 56t41 41t56 15v0zM432 185q39 0 72 19v0v0q33 19 53 53q19 34 19 72t-19 72q-20 34 -53 53t-72 19t-72 -19t-53 -53q-19 -34 -19 -72t19 -72q20 -34 53 -53t72 -19v0zM477 286q11 -10 22 0q10 11 0 22l-72 72v0
q-11 10 -22 0l-40 -40v0q-10 -11 0 -22q11 -10 22 0l29 28v0l61 -60v0z" />
</svg>
