<?xml version="1.0" standalone="no"?>
<!DOCTYPE svg PUBLIC "-//W3C//DTD SVG 1.1//EN" "http://www.w3.org/Graphics/SVG/1.1/DTD/svg11.dtd" >
<svg xmlns="http://www.w3.org/2000/svg" xmlns:xlink="http://www.w3.org/1999/xlink" version="1.1" viewBox="-10 -40 532 512">
   <path fill="currentColor"
d="M192 377q0 -14 -9 -23v0v0q-9 -9 -23 -9h-96v0q-14 0 -23 -9t-9 -23v-288v0q0 -14 9 -23t23 -9h384v0q14 0 23 9t9 23v288v0q0 14 -9 23t-23 9h-139v0q-10 0 -19 6l-98 74v0v-48v0zM64 -39q-27 1 -45 19v0v0q-18 18 -19 45v288v0q1 27 19 45t45 19h64h32v32v0v48v0
q0 10 9 14t17 -1l123 -93v0h139v0q27 -1 45 -19t19 -45v-288v0q-1 -27 -19 -45t-45 -19h-384v0zM152 89q-2 -22 -24 -24q-22 2 -24 24q2 22 24 24q22 -2 24 -24v0zM288 121l92 128l-92 -128l92 128h-248v0l44 -64v0l19 26v0q5 6 13 6t13 -6l67 -90v0zM262 102l-54 72l54 -72
l-54 72l-6 -8v0q-10 -13 -26 -13t-26 13l-49 71v0q-5 7 -5 16q0 12 8 20t20 8h264v0q12 0 20 -8t8 -20q0 -9 -5 -16l-97 -135v0q-10 -13 -26 -13t-26 13v0z" />
</svg>
