<?xml version="1.0" standalone="no"?>
<!DOCTYPE svg PUBLIC "-//W3C//DTD SVG 1.1//EN" "http://www.w3.org/Graphics/SVG/1.1/DTD/svg11.dtd" >
<svg xmlns="http://www.w3.org/2000/svg" xmlns:xlink="http://www.w3.org/1999/xlink" version="1.1" viewBox="-10 -40 660 512">
   <path fill="currentColor"
d="M256 441q76 -1 133 -43q4 16 12 30q-63 44 -145 45q-72 -1 -129 -35q-58 -34 -92 -92q-34 -57 -35 -129q1 -72 35 -129q34 -58 92 -92q57 -34 129 -35q84 1 149 48q64 46 92 121q-13 8 -21 22l-4 7v0q-20 -73 -78 -119q-59 -46 -138 -47q-63 1 -113 31q-51 29 -80 80
q-30 50 -31 113q1 63 31 113q29 51 80 80q50 30 113 31v0zM176 105v64v-64v64q-1 15 -16 16q-15 -1 -16 -16v-64v0q1 -15 16 -16q15 1 16 16v0zM272 105v64v-64v64q-1 15 -16 16q-15 -1 -16 -16v-64v0q1 -15 16 -16q15 1 16 16v0zM368 105v64v-64v64q-1 15 -16 16
q-15 -1 -16 -16v-64v0q1 -15 16 -16q15 1 16 16v0zM457 323q-9 18 -9 38q1 34 23 57q23 22 57 23q34 -1 57 -23q22 -23 23 -57q0 -20 -9 -38l-71 -132v0l-71 132v0zM429 308l76 -141l-76 141l76 -141q7 -13 23 -14q16 1 24 14l75 141v0q13 25 13 53q-1 48 -33 79
q-31 32 -79 33q-48 -1 -79 -33q-32 -31 -33 -79q0 -28 13 -53v0z" />
</svg>
