<?xml version="1.0" standalone="no"?>
<!DOCTYPE svg PUBLIC "-//W3C//DTD SVG 1.1//EN" "http://www.w3.org/Graphics/SVG/1.1/DTD/svg11.dtd" >
<svg xmlns="http://www.w3.org/2000/svg" xmlns:xlink="http://www.w3.org/1999/xlink" version="1.1" viewBox="-10 -40 394 512">
   <path fill="currentColor"
d="M256 -7v16v-16v16q0 14 -9 23t-23 9h-64v0q-14 0 -23 -9t-9 -23v-16v0h-32v0q-14 0 -23 9t-9 23v384v0q0 14 9 23t23 9h192v0q14 0 23 -9t9 -23v-384v0q0 -14 -9 -23t-23 -9h-32v0zM224 -7h-64h64h-64v16v0h64v0v-16v0zM32 25q1 -27 19 -45v0v0q18 -18 45 -19h192v0
q27 1 45 19t19 45v384v0q-1 27 -19 45t-45 19h-192v0q-27 -1 -45 -19t-19 -45v-384v0z" />
</svg>
