<?xml version="1.0" standalone="no"?>
<!DOCTYPE svg PUBLIC "-//W3C//DTD SVG 1.1//EN" "http://www.w3.org/Graphics/SVG/1.1/DTD/svg11.dtd" >
<svg xmlns="http://www.w3.org/2000/svg" xmlns:xlink="http://www.w3.org/1999/xlink" version="1.1" viewBox="-10 -40 596 512">
   <path fill="currentColor"
d="M32 383q1 10 6 12q55 19 111 13q57 -6 120 -24q7 -1 13 -3v0q59 -16 123 -26q64 -9 131 8q3 1 7 -1l1 -1v-1v0v0v0v-309v0q-1 -10 -6 -12q-55 -19 -111 -13q-57 6 -120 24q-7 1 -13 3v0q-59 16 -123 25q-64 10 -131 -7q-3 -1 -7 1l-1 1v0v0v0v0v0v310v0zM0 383v-309v309
v-309q1 -19 16 -29q14 -9 33 -5q60 15 119 6q60 -8 120 -25q65 -18 131 -26q65 -8 130 14q26 12 27 42v310v0q-1 18 -16 28q-14 9 -33 5q-60 -15 -119 -6q-60 8 -120 25q-65 18 -130 26q-66 8 -131 -14q-26 -12 -27 -42v0zM224 217q1 36 20 58v0v0q19 21 44 22q25 -1 44 -22
q19 -22 20 -58q-1 -36 -20 -58q-19 -21 -44 -22q-25 1 -44 22q-19 22 -20 58v0zM288 105q42 1 69 34v0v0q26 32 27 78q-1 46 -27 78q-27 33 -69 34q-42 -1 -69 -34q-26 -32 -27 -78q1 -46 27 -78q27 -33 69 -34v0z" />
</svg>
