<?xml version="1.0" standalone="no"?>
<!DOCTYPE svg PUBLIC "-//W3C//DTD SVG 1.1//EN" "http://www.w3.org/Graphics/SVG/1.1/DTD/svg11.dtd" >
<svg xmlns="http://www.w3.org/2000/svg" xmlns:xlink="http://www.w3.org/1999/xlink" version="1.1" viewBox="-10 -40 468 512">
   <path fill="currentColor"
d="M384 25q14 0 23 9v0v0q9 9 9 23v320v0q0 14 -9 23t-23 9h-320v0q-14 0 -23 -9t-9 -23v-320v0q0 -14 9 -23t23 -9h320v0zM64 -7q-27 1 -45 19v0v0q-18 18 -19 45v320v0q1 27 19 45t45 19h320v0q27 -1 45 -19t19 -45v-320v0q-1 -27 -19 -45t-45 -19h-320v0zM64 89v256v-256
v256q0 14 9 23t23 9h256v0q14 0 23 -9t9 -23v-256v0q0 -14 -9 -23t-23 -9h-112v0q-14 0 -23 9t-9 23v83v0q-30 12 -32 45q1 20 14 34q14 13 34 14q20 -1 34 -14q13 -14 14 -34q-2 -33 -32 -45v-83v0h112v0v256v0h-256v0v-256v0h48v0q15 -1 16 -16q-1 -15 -16 -16h-48v0
q-14 0 -23 9t-9 23v0zM224 233q-15 -1 -16 -16q1 -15 16 -16q15 1 16 16q-1 15 -16 16v0z" />
</svg>
