<?xml version="1.0" standalone="no"?>
<!DOCTYPE svg PUBLIC "-//W3C//DTD SVG 1.1//EN" "http://www.w3.org/Graphics/SVG/1.1/DTD/svg11.dtd" >
<svg xmlns="http://www.w3.org/2000/svg" xmlns:xlink="http://www.w3.org/1999/xlink" version="1.1" viewBox="-11 0 662 512">
   <path fill="currentColor"
d="M26 -36q-12 -7 -23 3q-8 12 3 23l608 480v0q12 8 23 -3q8 -12 -3 -22l-608 -481v0zM544 312v-255v255v-255q-1 -27 -19 -45t-45 -19h-320v0q-9 0 -17 2l37 30v0h12h288q14 0 23 9t9 23v230v0l32 25v0zM480 262v-173v173v-173q0 -14 -9 -23t-23 -9h-112v0q-14 0 -23 9
t-9 23v34v0l32 25v0v-59v0h112v0v148v0l32 25v0zM379 345h-187h187h-187v-147v0l-32 -26v0v173v0q0 14 9 23t23 9h227v0l-40 -32v0zM128 147l-32 -25l32 25l-32 -25v255v0q1 27 19 45t45 19h320v0q9 0 17 -2l-37 -30v0h-300v0q-14 0 -23 -9t-9 -23v-230v0z" />
</svg>
