<?xml version="1.0" standalone="no"?>
<!DOCTYPE svg PUBLIC "-//W3C//DTD SVG 1.1//EN" "http://www.w3.org/Graphics/SVG/1.1/DTD/svg11.dtd" >
<svg xmlns="http://www.w3.org/2000/svg" xmlns:xlink="http://www.w3.org/1999/xlink" version="1.1" viewBox="-10 -40 660 512">
   <path fill="currentColor"
d="M64 25h320h-320h320q14 0 23 9t9 23v104v0l3 -7v0q8 -22 29 -30v-67v0q-1 -27 -19 -45t-45 -19h-320v0q-27 1 -45 19t-19 45v320v0q1 27 19 45t45 19h318v0l-3 -32v0h-315v0q-14 0 -23 -9t-9 -23v-320v0q0 -14 9 -23t23 -9v0zM384 169v-80v80v-80q0 -14 -9 -23t-23 -9
h-112v0q-14 0 -23 9t-9 23v83v0q-30 12 -32 45q1 20 14 34q14 13 34 14q20 -1 34 -14q13 -14 14 -34q-2 -33 -32 -45v-83v0h112v0v80v0h32v0zM352 345h-256h256h-256v-256v0h48v0q15 -1 16 -16q-1 -15 -16 -16h-48v0q-14 0 -23 9t-9 23v256v0q0 14 9 23t23 9h256v0
q15 0 24 -11l-7 -101v0h-17v0v80v0zM240 217q-1 15 -16 16q-15 -1 -16 -16q1 -15 16 -16q15 1 16 16v0zM449 164l-12 37l12 -37l-12 37h-37v0q-15 1 -16 16q1 15 16 16h48h176q15 -1 16 -16q-1 -15 -16 -16h-36v0l-13 -37v0q-4 -10 -15 -11h-96v0q-11 1 -15 11v0zM470 201
l6 -16l-6 16l6 -16h72v0l6 16v0h-84v0zM401 265l13 178l-13 -178l13 178q1 13 10 21q9 9 22 9h132v0q13 0 22 -9q9 -8 10 -21l13 -178v0h-32v0l-13 176v0h-132v0l-13 -176v0h-32v0z" />
</svg>
