<?xml version="1.0" standalone="no"?>
<!DOCTYPE svg PUBLIC "-//W3C//DTD SVG 1.1//EN" "http://www.w3.org/Graphics/SVG/1.1/DTD/svg11.dtd" >
<svg xmlns="http://www.w3.org/2000/svg" xmlns:xlink="http://www.w3.org/1999/xlink" version="1.1" viewBox="-10 -40 660 512">
   <path fill="currentColor"
d="M352 41q-1 15 -16 16h-64v0v64v0h97v0q15 0 29 7l50 25v0l167 -36v0q14 -2 21 9q6 11 -3 23l-182 206v0q-19 21 -48 22h-259v0q-20 -1 -34 -14q-13 -14 -14 -34v-28v0l-65 -24v0q-29 -13 -31 -45v-63v0q1 -20 14 -34q14 -13 34 -14h48h144v-64v0h-64v0q-15 -1 -16 -16
q1 -15 16 -16h160v0q15 1 16 16v0zM455 184q-11 3 -21 -2l-51 -26v0q-6 -3 -14 -3h-241v0v126v0v34v0v16v0q1 15 16 16h259v0q14 0 24 -11l157 -177v0l-129 27v0zM96 153h-48h48h-48q-15 1 -16 16v63v0q0 10 10 15l54 20v0v-114v0zM608 361v0v0v0v0v0v-1v0v-2q-1 -3 -2 -7
q-3 -9 -7 -20q-3 -7 -7 -14q-3 6 -5 11q-1 2 -1 3q-10 25 -10 30q2 14 16 16q10 -1 12 -4q3 0 4 -12v0zM640 361q-1 24 -14 36v0v0q-14 12 -34 12q-20 -1 -34 -14q-13 -14 -14 -34q1 -17 12 -42q11 -26 23 -47q5 -8 13 -8t13 8q12 21 23 47q11 25 12 42v0z" />
</svg>
