<?xml version="1.0" standalone="no"?>
<!DOCTYPE svg PUBLIC "-//W3C//DTD SVG 1.1//EN" "http://www.w3.org/Graphics/SVG/1.1/DTD/svg11.dtd" >
<svg xmlns="http://www.w3.org/2000/svg" xmlns:xlink="http://www.w3.org/1999/xlink" version="1.1" viewBox="-10 -40 596 512">
   <path fill="currentColor"
d="M535 48l-165 164l165 -164l-165 164l-45 -45v0l164 -165v0q10 -9 23 -9t23 9q9 10 9 23t-9 23v0zM347 235l-36 37l36 -37l-36 37l-36 36v0v0v0l-5 4v0l-45 -45v0l40 -41v0v0v0l37 -36v0l45 45v0zM176 281q10 0 20 3l58 57v0q2 10 2 20q-1 34 -23 57q-23 22 -57 23h-139v0
q32 -2 47 -25q15 -21 13 -47q-1 -4 -1 -8q1 -34 24 -56q22 -23 56 -24v0zM286 341l271 -271l-271 271l271 -271q19 -19 19 -45q0 -25 -19 -45q-20 -19 -45 -19q-26 0 -45 19l-271 271v0q-10 -2 -20 -2q-48 1 -79 33q-32 31 -33 79q0 6 1 12q1 13 -7 24t-21 12h-5v0
q-14 0 -23 9t-9 23t9 23t23 9h144v0q48 -1 79 -33q32 -31 33 -79q0 -10 -2 -20v0zM171 -22q-17 -16 -40 -16v0v0q-22 0 -39 16l-43 43v0q-16 17 -16 39q0 23 16 40l118 117v0h9h8v0l14 -14v0l-49 -48v0l77 -77v0l48 49v0l23 -23v0l-126 -126v0zM410 263l51 50l-51 -50l51 50
q11 12 16 28l27 92v0l-92 -27v0q-16 -5 -28 -16l-50 -51v0l-14 14v0v8v10l42 42v0q17 17 40 24l121 35v0q9 3 16 -4q7 -6 4 -15l-35 -121v0q-7 -24 -25 -41l-50 -51v0l-23 23v0zM114 1q17 -14 34 0l55 54v0l-77 77v0l-54 -55v0q-15 -17 0 -34l42 -42v0z" />
</svg>
