<?xml version="1.0" standalone="no"?>
<!DOCTYPE svg PUBLIC "-//W3C//DTD SVG 1.1//EN" "http://www.w3.org/Graphics/SVG/1.1/DTD/svg11.dtd" >
<svg xmlns="http://www.w3.org/2000/svg" xmlns:xlink="http://www.w3.org/1999/xlink" version="1.1" viewBox="-10 -40 660 512">
   <path fill="currentColor"
d="M304 -7h-192h192h-192q-15 1 -16 16v192v0q1 15 16 16h192v0q15 -1 16 -16v-192v0q-1 -15 -16 -16v0zM112 -39h192h-192h192q20 1 34 14q13 14 14 34v192v0q-1 20 -14 34q-14 13 -34 14h-192v0q-20 -1 -34 -14q-13 -14 -14 -34v-192v0q1 -20 14 -34q14 -13 34 -14v0z
M528 89h-96h96h-96q-15 1 -16 16v96v0q1 15 16 16h96v0q15 -1 16 -16v-96v0q-1 -15 -16 -16v0zM432 57h96h-96h96q20 1 34 14q13 14 14 34v96v0q-1 20 -14 34q-14 13 -34 14h-96v0q-20 -1 -34 -14q-13 -14 -14 -34v-96v0q1 -20 14 -34q14 -13 34 -14v0zM0 329q1 -15 16 -16
h64h544q15 1 16 16q-1 15 -16 16h-48v0v96v0h48v0q15 1 16 16q-1 15 -16 16h-64h-544q-15 -1 -16 -16q1 -15 16 -16h48v0v-96v0h-48v0q-15 -1 -16 -16v0zM96 441h208h-208h208v-96v0h-208v0v96v0zM336 441h208h-208h208v-96v0h-208v0v96v0z" />
</svg>
