<?xml version="1.0" standalone="no"?>
<!DOCTYPE svg PUBLIC "-//W3C//DTD SVG 1.1//EN" "http://www.w3.org/Graphics/SVG/1.1/DTD/svg11.dtd" >
<svg xmlns="http://www.w3.org/2000/svg" xmlns:xlink="http://www.w3.org/1999/xlink" version="1.1" viewBox="-10 -40 532 512">
   <path fill="currentColor"
d="M128 -39q-20 1 -34 14v0v0q-13 14 -14 34q0 26 11 48q14 -7 30 -11q-9 -16 -9 -37q1 -15 16 -16h32v0q28 1 49 17q21 17 28 43q19 4 38 0q7 -26 28 -43q21 -16 49 -17h32v0q15 1 16 16q0 20 -9 38q16 3 30 10q11 -22 11 -48q-1 -20 -14 -34q-14 -13 -34 -14h-32v0
q-31 0 -56 15t-40 39q-15 -24 -40 -39t-56 -15h-32v0zM168 105q53 1 91 35v0v0q37 33 44 85q3 15 17 16q15 -1 15 -16q-7 -66 -54 -108q11 -2 21 -5q20 -7 42 -7q58 1 96 40q39 38 40 96q-1 39 -26 73q-25 33 -65 61q-40 27 -76 44q-36 16 -52 21q-2 1 -5 1t-5 -1
q-16 -5 -52 -21q-36 -17 -76 -44q-40 -28 -65 -61q-25 -34 -26 -73q1 -58 40 -96q38 -39 96 -40v0zM292 81q-36 12 -72 0q-24 -8 -52 -8q-71 2 -119 49q-47 48 -49 119q1 51 32 91q30 40 73 69q42 29 81 46q38 18 55 23q7 3 15 3t15 -3q17 -5 55 -23q39 -17 81 -46
q43 -29 73 -69q31 -40 32 -91q-2 -71 -49 -119q-48 -47 -119 -49q-28 0 -52 8v0z" />
</svg>
