<?xml version="1.0" standalone="no"?>
<!DOCTYPE svg PUBLIC "-//W3C//DTD SVG 1.1//EN" "http://www.w3.org/Graphics/SVG/1.1/DTD/svg11.dtd" >
<svg xmlns="http://www.w3.org/2000/svg" xmlns:xlink="http://www.w3.org/1999/xlink" version="1.1" viewBox="-11 0 662 512">
   <path fill="currentColor"
d="M26 -36q-12 -7 -23 3q-8 12 3 23l608 480v0q12 8 23 -3q8 -12 -3 -22l-608 -481v0zM559 100q16 -17 16 -40v0v0q0 -22 -16 -39l-43 -43v0q-17 -16 -39 -16q-23 0 -40 16l-139 140v0l25 20v0l59 -60v0l77 77v0l-51 50v0l26 20v0l125 -125v0zM317 296l-93 94l93 -94l-93 94
q-12 12 -28 16l-92 27v0l27 -92v0q5 -16 16 -28l85 -84v0l-26 -20v0l-82 82v0q-17 17 -24 40l-35 121v0q-3 10 4 16q6 7 15 4l121 -35v0q24 -7 41 -25l96 -96v0l-25 -20v0zM460 1q17 -14 34 0l42 42v0q14 17 0 34l-54 55v0l-77 -77v0l55 -54v0z" />
</svg>
