<?xml version="1.0" standalone="no"?>
<!DOCTYPE svg PUBLIC "-//W3C//DTD SVG 1.1//EN" "http://www.w3.org/Graphics/SVG/1.1/DTD/svg11.dtd" >
<svg xmlns="http://www.w3.org/2000/svg" xmlns:xlink="http://www.w3.org/1999/xlink" version="1.1" viewBox="-10 -40 528 512">
   <path fill="currentColor"
d="M455 7q-10 -10 -23 -10v0v0q-13 0 -23 10l-26 26v0l57 57v0l27 -26v0q9 -10 9 -23t-9 -23l-12 -11v0zM218 200q-6 7 -8 16l-13 62v0l61 -13v0q10 -2 16 -9l143 -143v0l-56 -57v0l-143 144v0zM387 -16q19 -19 45 -19v0v0q26 0 46 19l11 12v0q19 19 19 45q0 25 -19 45
l-192 193v0q-14 13 -32 17l-86 18v0q-8 2 -14 -4t-5 -15l18 -86v0q4 -18 17 -31l192 -194v0zM301 14q-22 -5 -45 -5q-88 2 -147 61t-61 147q2 88 61 147t147 61q15 1 16 16q-1 15 -16 16q-67 -1 -121 -33t-86 -86t-33 -121q1 -67 33 -121t86 -86t121 -33q37 0 71 11l-26 26
v0zM486 147q10 33 10 70q-2 61 -42 102q-41 40 -102 42q-19 0 -36 -4q-14 -5 -11 -20q4 -14 19 -11q13 3 28 3q48 -1 79 -33q32 -31 33 -79q0 -23 -5 -44l27 -26v0z" />
</svg>
