<?xml version="1.0" standalone="no"?>
<!DOCTYPE svg PUBLIC "-//W3C//DTD SVG 1.1//EN" "http://www.w3.org/Graphics/SVG/1.1/DTD/svg11.dtd" >
<svg xmlns="http://www.w3.org/2000/svg" xmlns:xlink="http://www.w3.org/1999/xlink" version="1.1" viewBox="-10 -40 522 512">
   <path fill="currentColor"
d="M128 -7q14 0 23 9v0v0q9 9 9 23t-9 23t-23 9t-23 -9t-9 -23t9 -23t23 -9v0zM128 89q36 -1 55 -32q18 -32 0 -64q-19 -31 -55 -32q-36 1 -55 32q-18 32 0 64q19 31 55 32v0zM112 153h32h-32h32q23 1 31 23l39 137v0h-172v0l40 -137v0q7 -22 30 -23v0zM112 121
q-22 0 -38 13v0v0q-17 12 -23 33l-39 137v0q-4 16 5 28t25 13h22v0v112v0q1 15 16 16q15 -1 16 -16v-112v0h64v0v112v0q1 15 16 16q15 -1 16 -16v-112v0h22v0q16 -1 25 -13t5 -28l-39 -137v0q-6 -21 -23 -33q-16 -13 -38 -13h-32v0zM384 -7q14 0 23 9v0v0q9 9 9 23t-9 23
t-23 9t-23 -9t-9 -23t9 -23t23 -9v0zM384 89q36 -1 55 -32q18 -32 0 -64q-19 -31 -55 -32q-36 1 -55 32q-18 32 0 64q19 31 55 32v0zM368 153h32h-32h32q23 1 30 23l40 137v0h-172v0l40 -137v0q7 -22 30 -23v0zM368 121q-22 0 -38 13v0v0q-17 12 -23 33l-39 137v0
q-4 16 5 28t26 13h21v0v112v0q1 15 16 16q15 -1 16 -16v-112v0h64v0v112v0q1 15 16 16q15 -1 16 -16v-112v0h22v0q16 -1 25 -13t5 -28l-39 -137v0q-6 -21 -23 -33q-16 -13 -38 -13h-32v0z" />
</svg>
