<?xml version="1.0" standalone="no"?>
<!DOCTYPE svg PUBLIC "-//W3C//DTD SVG 1.1//EN" "http://www.w3.org/Graphics/SVG/1.1/DTD/svg11.dtd" >
<svg xmlns="http://www.w3.org/2000/svg" xmlns:xlink="http://www.w3.org/1999/xlink" version="1.1" viewBox="-10 -40 522 512">
   <path fill="currentColor"
d="M128 -7q14 0 23 9v0v0q9 9 9 23t-9 23t-23 9t-23 -9t-9 -23t9 -23t23 -9v0zM128 89q36 -1 55 -32q18 -32 0 -64q-19 -31 -55 -32q-36 1 -55 32q-18 32 0 64q19 31 55 32v0zM106 153h44h-44h44q20 0 33 13q13 12 15 31l4 49v0q1 15 -8 25t-24 10h-84v0q-15 0 -24 -10
t-8 -25l4 -49v0q2 -19 15 -31q13 -13 33 -13v0zM106 121q-32 1 -55 21v0v0q-22 21 -25 52l-4 50v0q-2 22 10 40t32 25v148v0q1 15 16 16q15 -1 16 -16v-144v0h64v0v144v0q1 15 16 16q15 -1 16 -16v-148v0q20 -7 32 -25t10 -40l-4 -50v0q-3 -31 -25 -52q-23 -20 -55 -21h-44
v0zM384 -7q14 0 23 9v0v0q9 9 9 23t-9 23t-23 9t-23 -9t-9 -23t9 -23t23 -9v0zM384 89q36 -1 55 -32q18 -32 0 -64q-19 -31 -55 -32q-36 1 -55 32q-18 32 0 64q19 31 55 32v0zM368 153h32h-32h32q23 1 30 23l40 137v0h-172v0l40 -137v0q7 -22 30 -23v0zM368 121
q-22 0 -38 13v0v0q-17 12 -23 33l-39 137v0q-4 16 5 28t26 13h21v0v112v0q1 15 16 16q15 -1 16 -16v-112v0h64v0v112v0q1 15 16 16q15 -1 16 -16v-112v0h22v0q16 -1 25 -13t5 -28l-39 -137v0q-6 -21 -23 -33q-16 -13 -38 -13h-32v0z" />
</svg>
