<?xml version="1.0" standalone="no"?>
<!DOCTYPE svg PUBLIC "-//W3C//DTD SVG 1.1//EN" "http://www.w3.org/Graphics/SVG/1.1/DTD/svg11.dtd" >
<svg xmlns="http://www.w3.org/2000/svg" xmlns:xlink="http://www.w3.org/1999/xlink" version="1.1" viewBox="-10 -40 596 512">
   <path fill="currentColor"
d="M270 -39q-26 2 -32 28l-2 20v0h-12v0q-20 1 -34 14q-13 14 -14 34q0 20 14 34q13 13 33 14l-5 37v0l-67 9v0l-4 -28v0q-3 -15 -14 -24q-11 -10 -26 -10h-22v0q-15 0 -26 10q-11 9 -14 24l-6 43v0q-17 5 -28 19t-11 32t11 32t28 19l6 43v0q3 15 14 24q11 10 26 10h22v0
q15 0 26 -10q11 -9 14 -24l4 -28v0l67 9v0l5 37v0q-20 1 -33 15q-14 13 -14 33t14 34t34 14h11v0l3 20v0q6 26 32 28h36v0q26 -2 32 -28l7 -52v0h23v0v32v0q1 15 16 16q15 -1 16 -16v-32v0q15 -1 16 -16q-1 -15 -16 -16v-32v0q-1 -15 -16 -16q-15 1 -16 16v32v0h-19v0l8 -64
v0h109v0q34 -1 68 -21q16 -9 29 -24q12 -15 13 -35q-1 -20 -13 -35q-12 -14 -29 -24q-34 -20 -68 -21h-108v0l-9 -64v0h19v0v32v0q1 15 16 16q15 -1 16 -16v-32v0q15 -1 16 -16q-1 -15 -16 -16v-32v0q-1 -15 -16 -16q-15 1 -16 16v32v0h-23v0l-7 -52v0q-6 -26 -32 -28h-36v0
zM224 361h3h-3h3l4 32v0h-7v0q-15 -1 -16 -16q1 -15 16 -16v0zM224 41h7h-7h7l-4 32v0h-3v0q-15 -1 -16 -16q1 -15 16 -16v0zM325 137h-69h69h-69h-2l-3 1v0l19 -145v0h36v0l19 144v0zM325 297l-19 144l19 -144l-19 144h-36v0l-19 -145v0l3 1v0h2v0h69v0zM77 128q1 -6 8 -7
h22v0q7 0 8 7l6 43v0q4 14 18 14l118 -16v0h209v0q23 0 52 17q13 8 20 16q6 9 6 15q0 15 -26 32q-29 16 -52 16h-209v0l-118 -16v0q-14 0 -18 14l-6 43v0q-1 6 -8 7h-22v0q-7 0 -8 -7l-8 -54v0q-2 -12 -14 -14l-5 -1v0q-17 -3 -18 -20q1 -17 18 -20l5 -1v0q12 -2 14 -14
l8 -54v0z" />
</svg>
