<?xml version="1.0" standalone="no"?>
<!DOCTYPE svg PUBLIC "-//W3C//DTD SVG 1.1//EN" "http://www.w3.org/Graphics/SVG/1.1/DTD/svg11.dtd" >
<svg xmlns="http://www.w3.org/2000/svg" xmlns:xlink="http://www.w3.org/1999/xlink" version="1.1" viewBox="-10 -40 468 512">
   <path fill="currentColor"
d="M0 -23q1 -15 16 -16h64h352q15 1 16 16q-1 15 -16 16h-48v0v64v0q-1 15 -16 16h-288v0q-15 -1 -16 -16v-64v0h-48v0q-15 -1 -16 -16v0zM96 -7v48v-48v48h256v0v-48v0h-256v0zM64 121q1 -15 16 -16h288v0q15 1 16 16q-1 15 -16 16h-288v0q-15 -1 -16 -16v0zM64 185
q1 -15 16 -16h352v0q15 1 16 16q-1 15 -16 16h-352v0q-15 -1 -16 -16v0zM64 249q1 -15 16 -16h288v0q15 1 16 16q-1 15 -16 16h-288v0q-15 -1 -16 -16v0zM64 313q1 -15 16 -16h288v0q15 1 16 16q-1 15 -16 16h-288v0q-15 -1 -16 -16v0zM16 473q-15 -1 -16 -16q1 -15 16 -16
h48v0v-64v0q1 -15 16 -16h288v0q15 1 16 16v64v0h48v0q15 1 16 16q-1 15 -16 16h-64h-352zM96 393v48v-48v48h256v0v-48v0h-256v0z" />
</svg>
