<?xml version="1.0" standalone="no"?>
<!DOCTYPE svg PUBLIC "-//W3C//DTD SVG 1.1//EN" "http://www.w3.org/Graphics/SVG/1.1/DTD/svg11.dtd" >
<svg xmlns="http://www.w3.org/2000/svg" xmlns:xlink="http://www.w3.org/1999/xlink" version="1.1" viewBox="-10 -40 660 512">
   <path fill="currentColor"
d="M496 -7q30 0 56 15v0v0q26 15 41 41t15 56t-15 56t-41 41t-56 15t-56 -15t-41 -41t-15 -56t15 -56t41 -41t56 -15v0zM496 249q39 0 72 -19v0v0q33 -19 53 -53q19 -34 19 -72t-19 -72q-20 -34 -53 -53t-72 -19t-72 19t-53 53q-19 34 -19 72t19 72q20 34 53 53t72 19v0z
M496 25q-15 1 -16 16v64v0q1 15 16 16h48v0q15 -1 16 -16q-1 -15 -16 -16h-32v0v-48v0q-1 -15 -16 -16v0zM512 297q0 -8 -1 -17q-7 1 -15 1q-9 0 -17 -1q1 8 1 17q0 35 -10 60q-10 26 -24 43q2 -10 2 -23q-1 -54 -37 -91q-37 -36 -91 -37h-96h-8q-22 2 -24 24v8v0v16v0v48v0
l-160 -144v0l160 -144v0v48v0v16v0v8v0q2 22 24 24h8h103q-5 -15 -6 -32h-65h-32v-16v0v-16v0v-32v0q-1 -20 -19 -29q-19 -8 -34 5l-160 144v0q-11 10 -11 24t11 24l160 144v0q15 13 34 5q18 -9 19 -29v-32v0v-16v0v-16v0h32h64q41 1 68 28t28 68q-1 23 -8 36q-7 14 -14 21
q-9 8 -10 19q2 18 20 20q4 0 8 -2q10 -5 34 -24q24 -20 44 -57q21 -37 22 -93v0z" />
</svg>
