<?xml version="1.0" standalone="no"?>
<!DOCTYPE svg PUBLIC "-//W3C//DTD SVG 1.1//EN" "http://www.w3.org/Graphics/SVG/1.1/DTD/svg11.dtd" >
<svg xmlns="http://www.w3.org/2000/svg" xmlns:xlink="http://www.w3.org/1999/xlink" version="1.1" viewBox="-10 -40 650 512">
   <path fill="currentColor"
d="M96 25q0 -14 9 -23v0v0q9 -9 23 -9t23 9t9 23t-9 23t-23 9t-23 -9t-9 -23v0zM192 25q-1 -36 -32 -55q-32 -18 -64 0q-31 19 -32 55q1 36 32 55q32 18 64 0q31 -19 32 -55v0zM58 197q2 -19 15 -31v0v0q13 -13 33 -13h44v0q20 0 33 13q13 12 15 31l4 49v0q1 15 -8 25
t-24 10h-84v0q-15 0 -24 -10t-8 -25l4 -49v0zM26 194l-4 50l4 -50l-4 50q-2 22 10 40t32 25v148v0q1 15 16 16q15 -1 16 -16v-144v0h64v0v144v0q1 15 16 16q15 -1 16 -16v-148v0q20 -7 32 -25t10 -40l-4 -50v0q-3 -31 -25 -52q-23 -20 -55 -21h-44v0q-32 1 -55 21
q-22 21 -25 52v0zM320 -39q-15 1 -16 16v480v0q1 15 16 16q15 -1 16 -16v-480v0q-1 -15 -16 -16v0zM512 -7q14 0 23 9v0v0q9 9 9 23t-9 23t-23 9t-23 -9t-9 -23t9 -23t23 -9v0zM512 89q36 -1 55 -32q18 -32 0 -64q-19 -31 -55 -32q-36 1 -55 32q-18 32 0 64q19 31 55 32v0z
M496 153h32h-32h32q23 1 31 23l39 137v0h-172v0l40 -137v0q7 -22 30 -23v0zM496 121q-22 0 -38 13v0v0q-17 12 -23 33l-39 137v0q-4 16 5 28t26 13h21v0v112v0q1 15 16 16q15 -1 16 -16v-112v0h64v0v112v0q1 15 16 16q15 -1 16 -16v-112v0h22v0q16 -1 25 -13t5 -28l-39 -137
v0q-6 -21 -23 -33q-16 -13 -38 -13h-32v0z" />
</svg>
