<?xml version="1.0" standalone="no"?>
<!DOCTYPE svg PUBLIC "-//W3C//DTD SVG 1.1//EN" "http://www.w3.org/Graphics/SVG/1.1/DTD/svg11.dtd" >
<svg xmlns="http://www.w3.org/2000/svg" xmlns:xlink="http://www.w3.org/1999/xlink" version="1.1" viewBox="-10 -40 532 512">
   <path fill="currentColor"
d="M87 160q9 -10 9 -23v-64v0q1 -15 16 -16h64v0q13 0 23 -9l52 -53v0q2 -2 5 -2t5 2l52 53v0q10 9 23 9h64v0q15 1 16 16v64v0q0 13 9 23l53 52v0q2 2 2 5t-2 5l-53 52v0q-9 10 -9 23v64v0q-1 15 -16 16h-64v0q-13 0 -23 9l-52 53v0q-2 2 -5 2t-5 -2l-52 -53v0
q-10 -9 -23 -9h-64v0q-15 -1 -16 -16v-64v0q0 -13 -9 -23l-53 -52v0q-2 -2 -2 -5t2 -5l53 -52v0zM64 73v64v-64v64l-53 53v0q-11 11 -11 27t11 27l53 53v0v64v0q1 20 14 34q14 13 34 14h64v0l53 53v0q11 11 27 11t27 -11l53 -53v0h64v0q20 -1 34 -14q13 -14 14 -34v-64v0
l53 -53v0q11 -11 11 -27t-11 -27l-53 -53v0v-64v0q-1 -20 -14 -34q-14 -13 -34 -14h-64v0l-53 -53v0q-11 -11 -27 -11t-27 11l-53 53v0h-64v0q-20 1 -34 14q-13 14 -14 34v0zM169 131v1v-1v1q-3 14 11 19q14 2 19 -11l1 -1v0q5 -17 23 -18h57v0q13 0 23 9q9 10 9 23
q-1 20 -18 29l-45 23v0q-9 5 -9 15v29v0q1 15 16 16q14 -1 16 -16v-19v0l37 -19v0q34 -19 35 -58q-1 -27 -19 -45t-45 -19h-57v0q-20 0 -34 12q-15 11 -20 30v0zM280 313q-2 -22 -24 -24q-22 2 -24 24q2 22 24 24q22 -2 24 -24v0z" />
</svg>
