<?xml version="1.0" standalone="no"?>
<!DOCTYPE svg PUBLIC "-//W3C//DTD SVG 1.1//EN" "http://www.w3.org/Graphics/SVG/1.1/DTD/svg11.dtd" >
<svg xmlns="http://www.w3.org/2000/svg" xmlns:xlink="http://www.w3.org/1999/xlink" version="1.1" viewBox="-10 -40 469 512">
   <path fill="currentColor"
d="M32 -23q-1 -15 -16 -16q-15 1 -16 16v126v0q0 22 9 41l87 187v0q11 21 30 33q19 13 43 13h55v0v64v0h-112v0q-15 1 -16 16q1 15 16 16h256v0q15 -1 16 -16q-1 -15 -16 -16h-112v0v-64v0h102v0q21 0 37 -12q16 -11 24 -30l28 -81v0q3 -7 -2 -14t-13 -7h-346v0l-22 -48v0
h272v0q15 -1 16 -16q-1 -15 -16 -16h-287v0l-11 -23v0q-6 -13 -6 -27v-126v0zM240 345h-71h71h-71q-30 -1 -44 -28l-24 -52v0h308v0l-21 59v0q-8 20 -30 21h-118v0z" />
</svg>
