<?xml version="1.0" standalone="no"?>
<!DOCTYPE svg PUBLIC "-//W3C//DTD SVG 1.1//EN" "http://www.w3.org/Graphics/SVG/1.1/DTD/svg11.dtd" >
<svg xmlns="http://www.w3.org/2000/svg" xmlns:xlink="http://www.w3.org/1999/xlink" version="1.1" viewBox="-10 -40 532 512">
   <path fill="currentColor"
d="M448 25q14 0 23 9v0v0q9 9 9 23v320v0q0 14 -9 23t-23 9h-224v0v-384v0h224v0zM64 25h128h-128h128v384v0h-128v0q-14 0 -23 -9t-9 -23v-320v0q0 -14 9 -23t23 -9v0zM64 -7q-27 1 -45 19v0v0q-18 18 -19 45v320v0q1 27 19 45t45 19h384v0q27 -1 45 -19t19 -45v-320v0
q-1 -27 -19 -45t-45 -19h-384v0zM80 57q-15 1 -16 16q1 15 16 16h64v0q15 -1 16 -16q-1 -15 -16 -16h-64v0zM64 137q1 15 16 16h64v0q15 -1 16 -16q-1 -15 -16 -16h-64v0q-15 1 -16 16v0zM80 185q-15 1 -16 16q1 15 16 16h64v0q15 -1 16 -16q-1 -15 -16 -16h-64v0z" />
</svg>
