<?xml version="1.0" standalone="no"?>
<!DOCTYPE svg PUBLIC "-//W3C//DTD SVG 1.1//EN" "http://www.w3.org/Graphics/SVG/1.1/DTD/svg11.dtd" >
<svg xmlns="http://www.w3.org/2000/svg" xmlns:xlink="http://www.w3.org/1999/xlink" version="1.1" viewBox="-10 -40 532 512">
   <path fill="currentColor"
d="M64 25q-14 0 -23 9v0v0q-9 9 -9 23v320v0q0 14 9 23t23 9h224v0v-384v0h-224v0zM448 25h-128h128h-128v384v0h128v0q14 0 23 -9t9 -23v-320v0q0 -14 -9 -23t-23 -9v0zM448 -7q27 1 45 19v0v0q18 18 19 45v320v0q-1 27 -19 45t-45 19h-384v0q-27 -1 -45 -19t-19 -45v-320
v0q1 -27 19 -45t45 -19h384v0zM432 57q15 1 16 16q-1 15 -16 16h-64v0q-15 -1 -16 -16q1 -15 16 -16h64v0zM448 137q-1 15 -16 16h-64v0q-15 -1 -16 -16q1 -15 16 -16h64v0q15 1 16 16v0zM432 185q15 1 16 16q-1 15 -16 16h-64v0q-15 -1 -16 -16q1 -15 16 -16h64v0z" />
</svg>
