<?xml version="1.0" standalone="no"?>
<!DOCTYPE svg PUBLIC "-//W3C//DTD SVG 1.1//EN" "http://www.w3.org/Graphics/SVG/1.1/DTD/svg11.dtd" >
<svg xmlns="http://www.w3.org/2000/svg" xmlns:xlink="http://www.w3.org/1999/xlink" version="1.1" viewBox="-10 -40 532 512">
   <path fill="currentColor"
d="M80 281q-27 1 -42 24q-12 24 0 48q15 23 42 24q27 -1 42 -24q12 -24 0 -48q-15 -23 -42 -24v0zM158 313h338h-338h338q15 1 16 16q-1 15 -16 16h-338v0q-6 28 -27 46q-21 17 -51 18q-34 -1 -57 -23q-22 -23 -23 -57q1 -34 23 -57q23 -22 57 -23q30 1 51 18q21 18 27 46v0
zM384 105q1 27 24 42q24 12 48 0q23 -15 24 -42q-1 -27 -24 -42q-24 -12 -48 0q-23 15 -24 42v0zM354 89q6 -28 27 -46v0v0q21 -17 51 -18q34 1 57 23q22 23 23 57q-1 34 -23 57q-23 22 -57 23q-30 -1 -51 -18q-21 -18 -27 -46h-338v0q-15 -1 -16 -16q1 -15 16 -16h338v0z
" />
</svg>
