<?xml version="1.0" standalone="no"?>
<!DOCTYPE svg PUBLIC "-//W3C//DTD SVG 1.1//EN" "http://www.w3.org/Graphics/SVG/1.1/DTD/svg11.dtd" >
<svg xmlns="http://www.w3.org/2000/svg" xmlns:xlink="http://www.w3.org/1999/xlink" version="1.1" viewBox="-10 -40 532 512">
   <path fill="currentColor"
d="M405 -2q11 -10 22 0l80 80v0q10 11 0 22l-80 80v0q-11 10 -22 0q-10 -11 0 -22l52 -53v0h-57h-60q-13 0 -23 9l-102 103v0l102 103v0q10 9 23 9h60h57l-52 -53v0q-10 -11 0 -22q11 -10 22 0l80 80v0q10 11 0 22l-80 80v0q-11 10 -22 0q-10 -11 0 -22l52 -53v0h-57h-60
q-26 0 -45 -19l-105 -104v0q-5 -5 -11 -5h-131h-32q-15 -1 -16 -16q1 -15 16 -16h32h131q6 0 11 -5l105 -104v0q19 -19 45 -19h60h57l-52 -53v0q-10 -11 0 -22v0z" />
</svg>
