<?xml version="1.0" standalone="no"?>
<!DOCTYPE svg PUBLIC "-//W3C//DTD SVG 1.1//EN" "http://www.w3.org/Graphics/SVG/1.1/DTD/svg11.dtd" >
<svg xmlns="http://www.w3.org/2000/svg" xmlns:xlink="http://www.w3.org/1999/xlink" version="1.1" viewBox="-10 -40 468 512">
   <path fill="currentColor"
d="M64 25q-14 0 -23 9v0v0q-9 9 -9 23v320v0q0 14 9 23t23 9h320v0q14 0 23 -9t9 -23v-320v0q0 -14 -9 -23t-23 -9h-320v0zM0 57q1 -27 19 -45v0v0q18 -18 45 -19h320v0q27 1 45 19t19 45v320v0q-1 27 -19 45t-45 19h-320v0q-27 -1 -45 -19t-19 -45v-320v0zM185 135l-14 14
l14 -14l-14 14q-12 9 -23 -1q-9 -12 1 -23l14 -13v0q25 -23 59 -22q35 1 58 24q23 24 24 59q0 34 -24 59l-81 81v0h105v0q15 1 16 16q-1 15 -16 16h-144v0q-10 0 -15 -10q-3 -10 4 -17l108 -108v0q15 -16 15 -37q-1 -22 -15 -36q-14 -15 -36 -16q-21 0 -36 14v0z" />
</svg>
