<?xml version="1.0" standalone="no"?>
<!DOCTYPE svg PUBLIC "-//W3C//DTD SVG 1.1//EN" "http://www.w3.org/Graphics/SVG/1.1/DTD/svg11.dtd" >
<svg xmlns="http://www.w3.org/2000/svg" xmlns:xlink="http://www.w3.org/1999/xlink" version="1.1" viewBox="-10 -40 468 512">
   <path fill="currentColor"
d="M384 409q14 0 23 -9v0v0q9 -9 9 -23v-320v0q0 -14 -9 -23t-23 -9h-320v0q-14 0 -23 9t-9 23v320v0q0 14 9 23t23 9h320v0zM448 377q-1 27 -19 45v0v0q-18 18 -45 19h-320v0q-27 -1 -45 -19t-19 -45v-320v0q1 -27 19 -45t45 -19h320v0q27 1 45 19t19 45v320v0zM168 313
q-15 -1 -16 -16q1 -15 16 -16h97v0l-132 -133v0q-10 -11 0 -22q11 -10 22 0l133 132v0v-105v0q1 -15 16 -16q15 1 16 16v144v0q-1 15 -16 16h-136v0z" />
</svg>
