<?xml version="1.0" standalone="no"?>
<!DOCTYPE svg PUBLIC "-//W3C//DTD SVG 1.1//EN" "http://www.w3.org/Graphics/SVG/1.1/DTD/svg11.dtd" >
<svg xmlns="http://www.w3.org/2000/svg" xmlns:xlink="http://www.w3.org/1999/xlink" version="1.1" viewBox="-10 -40 468 512">
   <path fill="currentColor"
d="M64 25q-14 0 -23 9v0v0q-9 9 -9 23v320v0q0 14 9 23t23 9h320v0q14 0 23 -9t9 -23v-320v0q0 -14 -9 -23t-23 -9h-320v0zM0 57q1 -27 19 -45v0v0q18 -18 45 -19h320v0q27 1 45 19t19 45v320v0q-1 27 -19 45t-45 19h-320v0q-27 -1 -45 -19t-19 -45v-320v0zM128 217
q0 26 13 48v0v0q13 22 35 35q23 13 48 13t48 -13q22 -13 35 -35t13 -48t-13 -48t-35 -35q-23 -13 -48 -13t-48 13q-22 13 -35 35t-13 48v0zM224 345q-35 0 -64 -17v0v0q-29 -17 -47 -47q-17 -30 -17 -64t17 -64q18 -30 47 -47t64 -17t64 17t47 47q17 30 17 64t-17 64
q-18 30 -47 47t-64 17v0z" />
</svg>
