<?xml version="1.0" standalone="no"?>
<!DOCTYPE svg PUBLIC "-//W3C//DTD SVG 1.1//EN" "http://www.w3.org/Graphics/SVG/1.1/DTD/svg11.dtd" >
<svg xmlns="http://www.w3.org/2000/svg" xmlns:xlink="http://www.w3.org/1999/xlink" version="1.1" viewBox="-10 -40 468 512">
   <path fill="currentColor"
d="M64 25q-14 0 -23 9v0v0q-9 9 -9 23v320v0q0 14 9 23t23 9h320v0q14 0 23 -9t9 -23v-320v0q0 -14 -9 -23t-23 -9h-320v0zM0 57q1 -27 19 -45v0v0q18 -18 45 -19h320v0q27 1 45 19t19 45v320v0q-1 27 -19 45t-45 19h-320v0q-27 -1 -45 -19t-19 -45v-320v0zM128 217
q1 41 28 68v0v0q27 27 68 28q32 -1 56 -18l-51 -51v0q-10 -11 0 -22q11 -9 22 0l51 51v0q17 -24 18 -56q-1 -41 -28 -68t-68 -28q-41 1 -68 28t-28 68v0zM352 217q-1 45 -27 79l22 22v0q10 11 0 22q-11 10 -22 0l-22 -22v0q-34 26 -79 27q-54 -1 -91 -37q-36 -37 -37 -91
q1 -54 37 -91q37 -36 91 -37q54 1 91 37q36 37 37 91v0z" />
</svg>
