<?xml version="1.0" standalone="no"?>
<!DOCTYPE svg PUBLIC "-//W3C//DTD SVG 1.1//EN" "http://www.w3.org/Graphics/SVG/1.1/DTD/svg11.dtd" >
<svg xmlns="http://www.w3.org/2000/svg" xmlns:xlink="http://www.w3.org/1999/xlink" version="1.1" viewBox="-10 -40 468 512">
   <path fill="currentColor"
d="M64 25q-14 0 -23 9v0v0q-9 9 -9 23v320v0q0 14 9 23t23 9h320v0q14 0 23 -9t9 -23v-320v0q0 -14 -9 -23t-23 -9h-320v0zM0 57q1 -27 19 -45v0v0q18 -18 45 -19h320v0q27 1 45 19t19 45v320v0q-1 27 -19 45t-45 19h-320v0q-27 -1 -45 -19t-19 -45v-320v0zM161 151
q-2 12 1 18t12 13q20 11 54 20h2v0q33 8 62 24q14 9 23 25q8 17 4 38q-9 36 -43 48q-33 12 -74 6h-1v0v0v0q-13 -2 -31 -7t-30 -9q-13 -6 -10 -20q5 -14 20 -11q12 4 28 9q17 4 28 6q36 5 58 -4q21 -8 23 -24q2 -13 -1 -18q-3 -7 -12 -13q-20 -11 -54 -20h-2v0v0v0
q-33 -8 -62 -24q-14 -9 -23 -25q-8 -17 -4 -38q9 -36 43 -48q33 -12 74 -6q7 1 18 3q10 2 17 4q13 5 11 20q-5 13 -19 11q-7 -1 -16 -3t-15 -3q-36 -5 -58 4q-21 8 -23 24v0z" />
</svg>
