<?xml version="1.0" standalone="no"?>
<!DOCTYPE svg PUBLIC "-//W3C//DTD SVG 1.1//EN" "http://www.w3.org/Graphics/SVG/1.1/DTD/svg11.dtd" >
<svg xmlns="http://www.w3.org/2000/svg" xmlns:xlink="http://www.w3.org/1999/xlink" version="1.1" viewBox="-10 -40 468 512">
   <path fill="currentColor"
d="M384 25q14 0 23 9v0v0q9 9 9 23v320v0q0 14 -9 23t-23 9q-1 -54 -37 -91q-37 -36 -91 -37h-64v0q-54 1 -91 37q-36 37 -37 91q-14 0 -23 -9t-9 -23v-320v0q0 -14 9 -23t23 -9h320v0zM352 409h-256h256h-256q1 -41 28 -68t68 -28h64v0q41 1 68 28t28 68v0zM64 -7
q-27 1 -45 19v0v0q-18 18 -19 45v320v0q1 27 19 45t45 19h320v0q27 -1 45 -19t19 -45v-320v0q-1 -27 -19 -45t-45 -19h-320v0zM224 217q-27 -1 -42 -24q-12 -24 0 -48q15 -23 42 -24q27 1 42 24q12 24 0 48q-15 23 -42 24v0zM144 169q1 45 40 69q40 22 80 0q39 -24 40 -69
q-1 -45 -40 -69q-40 -22 -80 0q-39 24 -40 69v0z" />
</svg>
