<?xml version="1.0" standalone="no"?>
<!DOCTYPE svg PUBLIC "-//W3C//DTD SVG 1.1//EN" "http://www.w3.org/Graphics/SVG/1.1/DTD/svg11.dtd" >
<svg xmlns="http://www.w3.org/2000/svg" xmlns:xlink="http://www.w3.org/1999/xlink" version="1.1" viewBox="-10 -40 468 512">
   <path fill="currentColor"
d="M64 25q-14 0 -23 9v0v0q-9 9 -9 23v320v0q0 14 9 23t23 9h320v0q14 0 23 -9t9 -23v-320v0q0 -14 -9 -23t-23 -9h-320v0zM0 57q1 -27 19 -45v0v0q18 -18 45 -19h320v0q27 1 45 19t19 45v320v0q-1 27 -19 45t-45 19h-320v0q-27 -1 -45 -19t-19 -45v-320v0zM124 111l100 114
l-100 -114l100 114l100 -114v0q11 -11 23 -2q10 11 1 23l-108 123v0v90v0q-1 15 -16 16q-15 -1 -16 -16v-90v0l-108 -123v0q-9 -12 2 -23q11 -9 22 1v1z" />
</svg>
