<?xml version="1.0" standalone="no"?>
<!DOCTYPE svg PUBLIC "-//W3C//DTD SVG 1.1//EN" "http://www.w3.org/Graphics/SVG/1.1/DTD/svg11.dtd" >
<svg xmlns="http://www.w3.org/2000/svg" xmlns:xlink="http://www.w3.org/1999/xlink" version="1.1" viewBox="-10 -40 596 512">
   <path fill="currentColor"
d="M416 9q1 -15 16 -16h128v0q15 1 16 16q-1 15 -16 16h-112v0v112v0q-1 15 -16 16h-128v0v144v0q-1 15 -16 16h-128v0v112v0q-1 15 -16 16h-128v0q-15 -1 -16 -16q1 -15 16 -16h112v0v-112v0q1 -15 16 -16h128v0v-144v0q1 -15 16 -16h128v0v-112v0z" />
</svg>
