<?xml version="1.0" standalone="no"?>
<!DOCTYPE svg PUBLIC "-//W3C//DTD SVG 1.1//EN" "http://www.w3.org/Graphics/SVG/1.1/DTD/svg11.dtd" >
<svg xmlns="http://www.w3.org/2000/svg" xmlns:xlink="http://www.w3.org/1999/xlink" version="1.1" viewBox="-10 -40 532 512">
   <path fill="currentColor"
d="M32 57q0 -14 9 -23v0v0q9 -9 23 -9h64v0v176v0v32v0v176v0h-64v0q-14 0 -23 -9t-9 -23v-320v0zM160 233h320h-320h320v144v0q0 14 -9 23t-23 9h-288v0v-176v0zM480 201h-320h320h-320v-176v0h288v0q14 0 23 9t9 23v144v0zM0 377q1 27 19 45v0v0q18 18 45 19h384v0
q27 -1 45 -19t19 -45v-320v0q-1 -27 -19 -45t-45 -19h-384v0q-27 1 -45 19t-19 45v320v0z" />
</svg>
