<?xml version="1.0" standalone="no"?>
<!DOCTYPE svg PUBLIC "-//W3C//DTD SVG 1.1//EN" "http://www.w3.org/Graphics/SVG/1.1/DTD/svg11.dtd" >
<svg xmlns="http://www.w3.org/2000/svg" xmlns:xlink="http://www.w3.org/1999/xlink" version="1.1" viewBox="-10 -40 660 512">
   <path fill="currentColor"
d="M128 57v224v-224v224q0 14 9 23t23 9h416v0q14 0 23 -9t9 -23v-47v0q-38 -20 -40 -65q2 -45 40 -64v-48v0q0 -14 -9 -23t-23 -9h-416v0q-14 0 -23 9t-9 23v0zM612 103v0v0v0v0v0v0v0v0zM612 236v0v0v0v0v0v0zM160 -7h416h-416h416q27 1 45 19t19 45v56v0q-2 14 -16 19
q-23 11 -24 37q1 26 24 37q14 5 16 19v56v0q-1 27 -19 45t-45 19h-416v0q-27 -1 -45 -19t-19 -45v-224v0q1 -27 19 -45t45 -19v0zM480 73q1 -15 16 -16q15 1 16 16q-1 15 -16 16q-15 -1 -16 -16v0zM480 137q1 -15 16 -16q15 1 16 16q-1 15 -16 16q-15 -1 -16 -16v0zM496 185
q15 1 16 16q-1 15 -16 16q-15 -1 -16 -16q1 -15 16 -16v0zM480 265q1 -15 16 -16q15 1 16 16q-1 15 -16 16q-15 -1 -16 -16v0zM16 57q15 1 16 16v256v0q1 34 23 57q23 22 57 23h416v0q15 1 16 16q-1 15 -16 16h-416v0q-48 -1 -79 -33q-32 -31 -33 -79v-256v0q1 -15 16 -16v0
zM290 132q3 8 -2 14q-5 7 -13 7h-45v0q-7 0 -11 -5l-12 -11v0h-11v0l7 22v0q4 10 0 20l-7 22v0h11v0l12 -11v0q4 -5 11 -5h45v0q8 0 13 7q5 6 2 14l-14 43v0h20v0q4 0 7 -4l30 -52v0q5 -8 14 -8h42v0q18 0 31 -13q3 -3 0 -6q-13 -13 -31 -13h-42v0q-9 0 -14 -8l-30 -52v0
q-2 -4 -7 -4h-20v0l14 43v0zM265 57h31h-31h31q23 1 35 20l-14 8v0l14 -8v0l25 44v0h33v0q31 0 54 22q10 12 10 26t-10 26q-23 22 -54 22h-33v0l-25 44v0q-12 19 -35 20h-31v0q-13 -1 -20 -10q-6 -9 -3 -22l11 -32v0h-17v0l-6 7v0q-10 9 -23 9h-22v0q-13 -1 -20 -10
q-6 -9 -3 -22l11 -32v0l-11 -32v0q-3 -13 3 -22q7 -9 20 -10h22v0q13 0 23 9l6 7v0h17v0l-11 -32v0q-3 -13 3 -22q7 -9 20 -10v0z" />
</svg>
