<?xml version="1.0" standalone="no"?>
<!DOCTYPE svg PUBLIC "-//W3C//DTD SVG 1.1//EN" "http://www.w3.org/Graphics/SVG/1.1/DTD/svg11.dtd" >
<svg xmlns="http://www.w3.org/2000/svg" xmlns:xlink="http://www.w3.org/1999/xlink" version="1.1" viewBox="-10 -40 532 512">
   <path fill="currentColor"
d="M32 153q1 -71 26 -117q26 -44 54 -43h225v0q-11 12 -19 28q-29 54 -30 132q1 78 30 132q9 15 19 28h-225v0q-28 1 -54 -43q-25 -46 -26 -117v0zM346 36q26 -44 54 -43q28 -1 54 43q25 46 26 117q-1 71 -26 117q-26 44 -54 43q-28 1 -54 -43q-25 -46 -26 -117
q1 -71 26 -117v0zM480 289v136v-136v136q-1 15 -16 16h-288v0q-15 -1 -16 -16v-48v0h-32v0v48v0q1 20 14 34q14 13 34 14h288v0q20 -1 34 -14q13 -14 14 -34v-272v0q-1 -78 -30 -132q-14 -26 -35 -43q-21 -16 -47 -17h-288v0q-26 1 -47 17q-21 17 -35 43q-29 54 -30 132
q1 78 30 132q14 26 35 43q21 16 47 17h288v0q26 0 46 -16t34 -40v0zM386 173q-2 -9 -2 -20t2 -20q4 -26 14 -28q10 2 15 28q1 9 1 20t-1 20q-5 26 -15 28q-10 -2 -14 -28v0zM431 217q8 -10 11 -20q6 -20 6 -44t-6 -44q-3 -10 -11 -20q-3 -5 -11 -10q-8 -6 -20 -6t-20 6
q-8 5 -11 10q-8 10 -11 20q-6 20 -6 44t6 44q3 10 11 20q3 5 11 10q8 6 20 6t20 -6q8 -5 11 -10v0zM96 185q15 -1 16 -16q-1 -15 -16 -16q-15 1 -16 16q1 15 16 16v0zM160 185q15 -1 16 -16q-1 -15 -16 -16q-15 1 -16 16q1 15 16 16v0zM240 169q-1 -15 -16 -16q-15 1 -16 16
q1 15 16 16q15 -1 16 -16v0z" />
</svg>
