<?xml version="1.0" standalone="no"?>
<!DOCTYPE svg PUBLIC "-//W3C//DTD SVG 1.1//EN" "http://www.w3.org/Graphics/SVG/1.1/DTD/svg11.dtd" >
<svg xmlns="http://www.w3.org/2000/svg" xmlns:xlink="http://www.w3.org/1999/xlink" version="1.1" viewBox="-11 0 662 512">
   <path fill="currentColor"
d="M500 441h-260h260h-260q-15 -1 -16 -16v-48v0h-32v0v48v0q1 20 14 34q14 13 34 14h288v0q6 0 11 -1l-39 -31v0zM544 289v23v-23v23l32 26v0v-185v0q-1 -78 -30 -132q-14 -26 -35 -43q-21 -16 -47 -17h-288v0q-29 1 -51 20l26 21v0q13 -9 25 -9h225v0q-11 12 -19 28
q-29 54 -30 132v8l34 27v0q-2 -17 -2 -35q1 -71 26 -117q26 -44 54 -43q28 -1 54 43q25 46 26 117q-1 71 -26 117q-5 8 -9 14l25 20v0q5 -7 10 -16v1zM64 153q1 78 30 132q14 26 35 43q21 16 47 17h203v0l-41 -32v0h-162v0q-28 1 -54 -43q-25 -46 -26 -117q0 -15 2 -30
l-30 -23v0q-4 25 -4 53v0zM464 201q-10 -2 -14 -28q-2 -9 -2 -20t2 -20q4 -26 14 -28q10 2 15 28q1 9 1 20t-1 20q-5 26 -15 28v0zM464 233q12 0 20 -6v0v0q8 -5 11 -10q8 -10 11 -20q6 -20 6 -44t-6 -44q-3 -10 -11 -20q-3 -5 -11 -10q-8 -6 -20 -6t-20 6q-8 5 -11 10
q-8 10 -11 20q-6 20 -6 44t6 44q3 10 11 20q3 5 11 10q8 6 20 6v0zM26 -36q-12 -7 -23 3q-8 12 3 23l608 480v0q12 8 23 -3q8 -12 -3 -22l-608 -481v0z" />
</svg>
