<?xml version="1.0" standalone="no"?>
<!DOCTYPE svg PUBLIC "-//W3C//DTD SVG 1.1//EN" "http://www.w3.org/Graphics/SVG/1.1/DTD/svg11.dtd" >
<svg xmlns="http://www.w3.org/2000/svg" xmlns:xlink="http://www.w3.org/1999/xlink" version="1.1" viewBox="-10 -40 532 512">
   <path fill="currentColor"
d="M32 217q1 -63 31 -113v0v0q29 -51 80 -80v0v0q50 -30 113 -31q63 1 113 31q51 29 80 80q30 50 31 113v240v0q1 15 16 16q15 -1 16 -16v-240v0q-1 -72 -35 -129q-34 -58 -92 -92q-57 -34 -129 -35q-72 1 -129 35q-58 34 -92 92q-34 57 -35 129v240v0q1 15 16 16
q15 -1 16 -16v-240v0zM368 169v48v-48v48h-96v0v-96v0h48v0q20 1 34 14q13 14 14 34v0zM240 249h32h-32h128v80v0q-1 20 -14 34q-14 13 -34 14h-128v0q-20 -1 -34 -14q-13 -14 -14 -34v-80v0h96v0zM240 121v96v-96v96h-96v0v-48v0q1 -20 14 -34q14 -13 34 -14h48v0zM192 89
q-34 1 -57 23v0v0q-22 23 -23 57v160v0q0 25 13 44q13 20 35 29l-43 44v0q-10 11 0 22q11 10 22 0l60 -59v0h114v0l60 59v0q11 10 22 0q10 -11 0 -22l-43 -44v0q22 -9 35 -29q13 -19 13 -44v-160v0q-1 -34 -23 -57q-23 -22 -57 -23h-128v0zM200 345q22 -2 24 -24
q-2 -22 -24 -24q-22 2 -24 24q2 22 24 24v0zM336 321q-2 -22 -24 -24q-22 2 -24 24q2 22 24 24q22 -2 24 -24v0z" />
</svg>
