<?xml version="1.0" standalone="no"?>
<!DOCTYPE svg PUBLIC "-//W3C//DTD SVG 1.1//EN" "http://www.w3.org/Graphics/SVG/1.1/DTD/svg11.dtd" >
<svg xmlns="http://www.w3.org/2000/svg" xmlns:xlink="http://www.w3.org/1999/xlink" version="1.1" viewBox="-10 -40 404 512">
   <path fill="currentColor"
d="M128 -23q-1 -15 -16 -16q-15 1 -16 16v16v0h-32v0q-15 1 -16 16q1 15 16 16h96v0q15 -1 16 -16q-1 -15 -16 -16h-32v0v-16v0zM288 -23q-1 -15 -16 -16q-15 1 -16 16v16v0h-32v0q-15 1 -16 16q1 15 16 16h96v0q15 -1 16 -16q-1 -15 -16 -16h-32v0v-16v0zM48 73q1 15 16 16
h96v0q15 -1 16 -16q-1 -15 -16 -16h-96v0q-15 1 -16 16v0zM208 73q1 15 16 16h96v0q15 -1 16 -16q-1 -15 -16 -16h-96v0q-15 1 -16 16v0zM16 121q-15 1 -16 16q1 15 16 16h16v0v288v0h-16v0q-15 1 -16 16q1 15 16 16h32h320q15 -1 16 -16q-1 -15 -16 -16h-16v0v-288v0h16v0
q15 -1 16 -16q-1 -15 -16 -16h-32h-320zM64 441v-288v288v-288h256v0v288v0h-256v0zM143 297l62 -62l-62 62l62 -62l-5 44v0q0 7 4 13q5 5 12 5h26v0l-62 62v0l4 -44v0q1 -7 -4 -13q-5 -5 -12 -5h-25v0zM218 185q-8 0 -15 6l-101 101v0q-6 6 -6 15q2 20 22 22h32v0l-5 57v0
q0 21 21 23q9 0 15 -6l101 -101v0q6 -6 6 -15q-2 -20 -22 -22h-32v0l5 -57v0q0 -21 -21 -23v0z" />
</svg>
