<?xml version="1.0" standalone="no"?>
<!DOCTYPE svg PUBLIC "-//W3C//DTD SVG 1.1//EN" "http://www.w3.org/Graphics/SVG/1.1/DTD/svg11.dtd" >
<svg xmlns="http://www.w3.org/2000/svg" xmlns:xlink="http://www.w3.org/1999/xlink" version="1.1" viewBox="-10 -40 660 512">
   <path fill="currentColor"
d="M170 -7h76h-76h76q9 0 14 8l15 24v0h-134v0l15 -24v0q5 -8 14 -8v0zM313 25l-26 -41l26 41l-26 -41q-15 -22 -41 -23h-76v0q-26 1 -41 23l-26 41v0h-39h-48q-15 1 -16 16q1 15 16 16h16v0v336v0q1 34 23 57q23 22 57 23h192v0q34 -1 57 -23q22 -23 23 -57v-336v0h16v0
q15 -1 16 -16q-1 -15 -16 -16h-16h-71zM352 57v336v-336v336q-1 20 -14 34q-14 13 -34 14h-192v0q-20 -1 -34 -14q-13 -14 -14 -34v-336v0h288v0zM160 121q-15 1 -16 16v224v0q1 15 16 16q15 -1 16 -16v-224v0q-1 -15 -16 -16v0zM256 121q-15 1 -16 16v224v0q1 15 16 16
q15 -1 16 -16v-224v0q-1 -15 -16 -16v0zM464 89q-15 1 -16 16q1 15 16 16h160v0q15 -1 16 -16q-1 -15 -16 -16h-160v0zM464 217q-15 1 -16 16q1 15 16 16h128v0q15 -1 16 -16q-1 -15 -16 -16h-128v0zM448 361q1 15 16 16h64v0q15 -1 16 -16q-1 -15 -16 -16h-64v0
q-15 1 -16 16v0z" />
</svg>
