<?xml version="1.0" standalone="no"?>
<!DOCTYPE svg PUBLIC "-//W3C//DTD SVG 1.1//EN" "http://www.w3.org/Graphics/SVG/1.1/DTD/svg11.dtd" >
<svg xmlns="http://www.w3.org/2000/svg" xmlns:xlink="http://www.w3.org/1999/xlink" version="1.1" viewBox="-10 -40 468 512">
   <path fill="currentColor"
d="M164 1l-15 24l15 -24l-15 24h150v0l-15 -24v0q-5 -8 -14 -8h-92v0q-9 0 -14 8v0zM311 -16l26 41l-26 -41l26 41h47h48q15 1 16 16q-1 15 -16 16h-16v0v336v0q-1 34 -23 57q-23 22 -57 23h-224v0q-34 -1 -57 -23q-22 -23 -23 -57v-336v0h-16v0q-15 -1 -16 -16
q1 -15 16 -16h16h79l26 -41v0q15 -22 41 -23h92v0q26 1 41 23v0zM64 57v336v-336v336q1 20 14 34q14 13 34 14h224v0q20 -1 34 -14q13 -14 14 -34v-336v0h-320v0zM149 174q11 -10 22 0l53 52v0l53 -52v0q11 -10 22 0q10 11 0 22l-52 53v0l52 53v0q10 11 0 22q-11 10 -22 0
l-53 -52v0l-53 52v0q-11 10 -22 0q-10 -11 0 -22l52 -53v0l-52 -53v0q-10 -11 0 -22v0z" />
</svg>
