<?xml version="1.0" standalone="no"?>
<!DOCTYPE svg PUBLIC "-//W3C//DTD SVG 1.1//EN" "http://www.w3.org/Graphics/SVG/1.1/DTD/svg11.dtd" >
<svg xmlns="http://www.w3.org/2000/svg" xmlns:xlink="http://www.w3.org/1999/xlink" version="1.1" viewBox="-10 -40 660 512">
   <path fill="currentColor"
d="M96 25v112v-112v112q-1 20 -14 34q-14 13 -34 14q-20 -1 -34 -14q-13 -14 -14 -34v-16v0q1 -15 16 -16q15 1 16 16v16v0q1 15 16 16q15 -1 16 -16v-144v0q1 -19 16 -28q7 -4 16 -4h4h46q14 0 24 11l214 241v0v-108v0q1 -20 14 -34q14 -13 34 -14h57v0q31 1 50 25l91 117
v0q10 13 10 29v101v0q-1 20 -14 34q-14 13 -34 14h-16v0q-1 41 -28 68t-68 28q-41 -1 -68 -28t-28 -68h-128v0q-1 41 -28 68t-68 28q-41 -1 -68 -28t-28 -68h-16v0q-20 -1 -34 -14q-13 -14 -14 -34v-64v0q1 -20 14 -34q14 -13 34 -14h144v0l-96 -192v0zM251 345h139h-139
h139q10 -28 34 -46q24 -17 56 -18q32 1 56 18q24 18 35 46h21v0q15 -1 16 -16v-80v0h-192h-368q-15 1 -16 16v64v0q1 15 16 16h22v0q10 -28 34 -46q24 -17 56 -18q32 1 56 18q24 18 35 46v0zM416 377q1 36 32 55q32 18 64 0q31 -19 32 -55q-1 -36 -32 -55q-32 -18 -64 0
q-31 19 -32 55v0zM514 101q-10 -12 -25 -12h-57v0q-15 1 -16 16v112v0h188v0l-90 -116v0zM146 -7h-30h30h-30l112 224v0h117v0l-199 -224v0zM224 377q-1 -36 -32 -55q-32 -18 -64 0q-31 19 -32 55q1 36 32 55q32 18 64 0q31 -19 32 -55v0z" />
</svg>
