<?xml version="1.0" standalone="no"?>
<!DOCTYPE svg PUBLIC "-//W3C//DTD SVG 1.1//EN" "http://www.w3.org/Graphics/SVG/1.1/DTD/svg11.dtd" >
<svg xmlns="http://www.w3.org/2000/svg" xmlns:xlink="http://www.w3.org/1999/xlink" version="1.1" viewBox="-10 -40 531 512">
   <path fill="currentColor"
d="M272 -23q-1 -15 -16 -16q-15 1 -16 16v17v0q-94 7 -160 69q-65 61 -78 154q-1 14 8 23q8 9 22 9h448v0q14 0 22 -9q9 -9 8 -23q-13 -93 -78 -154q-66 -62 -160 -69v-17v0zM272 408v-127v127v-127h-32v0v127v0q0 14 -10 23q-9 10 -23 10q-21 -1 -30 -18l-3 -5v0
q-7 -13 -21 -7q-13 7 -7 21l2 5v0q19 35 59 36q27 -1 46 -19q18 -19 19 -46v0zM256 25q86 2 147 55v0v0q61 54 75 137h-444v0q14 -83 75 -137q61 -53 147 -55v0z" />
</svg>
