<?xml version="1.0" standalone="no"?>
<!DOCTYPE svg PUBLIC "-//W3C//DTD SVG 1.1//EN" "http://www.w3.org/Graphics/SVG/1.1/DTD/svg11.dtd" >
<svg xmlns="http://www.w3.org/2000/svg" xmlns:xlink="http://www.w3.org/1999/xlink" version="1.1" viewBox="-10 -40 468 512">
   <path fill="currentColor"
d="M80 -39q-15 1 -16 16v248v0v2v1v4v0q0 19 19 25l115 23v0q26 4 52 0l115 -23v0q19 -6 19 -25l-8 -129v0q-6 -61 -48 -101t-104 -41q-41 0 -74 19t-54 51v-38v0q15 -1 16 -16q-1 -15 -16 -16h-16v0zM101 154q11 7 25 18q31 25 41 69l-70 -14v0l4 -73v0zM200 247
q-4 -34 -19 -58v0v0q-16 -25 -34 -41q-21 -17 -36 -25l-1 -1q-1 0 -2 -1h100v0v128v0q-2 -1 -4 -1l-4 -1v0zM240 249v-128v128v-128h100v0q-1 0 -2 1l-1 1q-15 8 -35 25q-19 16 -35 40q-15 25 -19 59l-4 1v0q-2 0 -4 1v0zM281 241q10 -44 42 -69q13 -11 24 -18l5 73v0
l-71 14v0zM342 89h-118h118h-236q10 -42 42 -69q32 -26 76 -27q44 1 76 27q32 27 42 69v0zM134 345h180h-180h180q41 1 70 28q28 27 32 68h-105v0l-70 -70v0q-17 -14 -34 0l-70 70v0h-105v0q4 -41 32 -68q29 -27 70 -28v0zM224 400l41 41l-41 -41l41 41h-82v0l41 -41v0z
M26 473h118h-118h396q24 -2 26 -26q-1 -57 -39 -95t-95 -39h-180v0q-57 1 -95 39t-39 95q2 24 26 26v0z" />
</svg>
