<?xml version="1.0" standalone="no"?>
<!DOCTYPE svg PUBLIC "-//W3C//DTD SVG 1.1//EN" "http://www.w3.org/Graphics/SVG/1.1/DTD/svg11.dtd" >
<svg xmlns="http://www.w3.org/2000/svg" xmlns:xlink="http://www.w3.org/1999/xlink" version="1.1" viewBox="-10 -40 468 512">
   <path fill="currentColor"
d="M231 -38q-7 -2 -14 0l-144 32v0q-18 4 -24 22q-4 18 8 32l23 22v0v2v0q0 25 23 40q17 9 46 17t75 8t75 -8t46 -17q23 -14 23 -40v-2v0l23 -22v0l-7 -6v0l7 6v0q12 -14 8 -32q-6 -18 -24 -22l-144 -32v0zM80 25l144 -32l-144 32l144 -32l144 32v0l-27 27v0q-5 5 -5 12v8v0
q-1 9 -6 12q-13 7 -39 14q-25 7 -67 7t-67 -7q-26 -7 -39 -14q-5 -3 -6 -12v-8v0q0 -7 -5 -12l-27 -27v0zM122 346l70 62l-70 -62l70 62q15 12 32 12t32 -12l71 -62v0q37 5 61 31q25 26 28 64h-384v0q3 -38 28 -64q24 -26 62 -31v0zM137 317q-4 -4 -10 -4q-55 5 -90 42
q-36 37 -37 92q2 24 26 26h396v0q24 -2 26 -26q-1 -55 -37 -92q-35 -37 -89 -42q-7 0 -11 4l-77 67v0q-10 8 -21 0l-76 -67v0zM304 393q1 15 16 16h32v0q15 -1 16 -16q-1 -15 -16 -16h-32v0q-15 1 -16 16v0zM96 153q1 54 37 91v0v0q37 36 91 37q54 -1 91 -37q36 -37 37 -91
v-9q-14 7 -32 12q-2 40 -29 66t-67 27q-40 -1 -67 -27t-29 -66q-18 -5 -32 -12v9v0zM183 27q-13 -6 -21 7q-6 14 7 21l48 24v0q7 4 14 0l48 -24v0q13 -7 7 -21q-7 -13 -21 -7l-41 20v0l-41 -20v0z" />
</svg>
