<?xml version="1.0" standalone="no"?>
<!DOCTYPE svg PUBLIC "-//W3C//DTD SVG 1.1//EN" "http://www.w3.org/Graphics/SVG/1.1/DTD/svg11.dtd" >
<svg xmlns="http://www.w3.org/2000/svg" xmlns:xlink="http://www.w3.org/1999/xlink" version="1.1" viewBox="-10 -40 468 512">
   <path fill="currentColor"
d="M408 25q7 1 8 8v48v0q-1 7 -8 8h-48v0q-7 -1 -8 -8v-48v0q1 -7 8 -8h48v0zM360 -7q-17 0 -28 12v0v0q-12 11 -12 28v8v0h-192v0v-8v0q0 -17 -12 -28q-11 -12 -28 -12h-48v0q-17 0 -28 12q-12 11 -12 28v48v0q0 17 12 28q11 12 28 12h8v0v192v0h-8v0q-17 0 -28 12
q-12 11 -12 28v48v0q0 17 12 28q11 12 28 12h48v0q17 0 28 -12q12 -11 12 -28v-8v0h192v0v8v0q0 17 12 28q11 12 28 12h48v0q17 0 28 -12q12 -11 12 -28v-48v0q0 -17 -12 -28q-11 -12 -28 -12h-44v0l-25 -42v0q13 -12 13 -30v-48v0q0 -18 -13 -30l25 -42v0h44v0q17 0 28 -12
q12 -11 12 -28v-48v0q0 -17 -12 -28q-11 -12 -28 -12h-48v0zM308 281l25 42l-25 -42l25 42q-13 12 -13 30v8v0h-192v0v-8v0q0 -17 -12 -28q-11 -12 -28 -12h-8v0v-192v0h8v0q17 0 28 -12q12 -11 12 -28v-8v0h192v0v8v0q1 18 13 30l-25 42v0h-44v0q-17 0 -28 12
q-12 11 -12 28v48v0q0 17 12 28q11 12 28 12h44v0zM40 345h48h-48h48q7 1 8 8v48v0q-1 7 -8 8h-48v0q-7 -1 -8 -8v-48v0q1 -7 8 -8v0zM360 345h48h-48h48q7 1 8 8v48v0q-1 7 -8 8h-48v0q-7 -1 -8 -8v-48v0q1 -7 8 -8v0zM264 185h48h-48h48q7 1 8 8v48v0q-1 7 -8 8h-48v0
q-7 -1 -8 -8v-48v0q1 -7 8 -8v0zM88 25q7 1 8 8v48v0q-1 7 -8 8h-48v0q-7 -1 -8 -8v-48v0q1 -7 8 -8h48v0z" />
</svg>
