<?xml version="1.0" standalone="no"?>
<!DOCTYPE svg PUBLIC "-//W3C//DTD SVG 1.1//EN" "http://www.w3.org/Graphics/SVG/1.1/DTD/svg11.dtd" >
<svg xmlns="http://www.w3.org/2000/svg" xmlns:xlink="http://www.w3.org/1999/xlink" version="1.1" viewBox="-10 -40 404 512">
   <path fill="currentColor"
d="M96 9v16v-16v16h192v0v-16v0q-1 -15 -16 -16h-160v0q-15 1 -16 16v0zM64 27v-18v18v-18q1 -20 14 -34q14 -13 34 -14h160v0q20 1 34 14q13 14 14 34v18v0q28 6 46 27q17 21 18 51v224v0q-1 30 -18 51q-18 21 -46 27v18v0q-1 20 -14 34q-14 13 -34 14h-160v0
q-20 -1 -34 -14q-13 -14 -14 -34v-18v0q-28 -6 -46 -27q-17 -21 -18 -51v-224v0q1 -30 18 -51q18 -21 46 -27v0zM96 425q1 15 16 16h160v0q15 -1 16 -16v-16v0h-192v0v16v0zM80 57q-20 1 -34 14v0v0q-13 14 -14 34v224v0q1 20 14 34q14 13 34 14h224v0q20 -1 34 -14
q13 -14 14 -34v-224v0q-1 -20 -14 -34q-14 -13 -34 -14h-224v0zM208 137v71v-71v71l41 28v0q11 9 4 22q-9 11 -22 4l-48 -32v0q-7 -5 -7 -13v-80v0q1 -15 16 -16q15 1 16 16v0z" />
</svg>
