<?xml version="1.0" standalone="no"?>
<!DOCTYPE svg PUBLIC "-//W3C//DTD SVG 1.1//EN" "http://www.w3.org/Graphics/SVG/1.1/DTD/svg11.dtd" >
<svg xmlns="http://www.w3.org/2000/svg" xmlns:xlink="http://www.w3.org/1999/xlink" version="1.1" viewBox="-10 -40 522 512">
   <path fill="currentColor"
d="M491 4q9 -11 0 -22q-11 -10 -23 0l-126 127v0q1 -26 -7 -50l54 -55v0q10 -11 0 -22q-11 -10 -22 0l-47 47v0q-7 -10 -16 -19l-22 -23v0q-12 -9 -23 0l-34 34v0q-26 28 -28 63l-6 -6v0q-11 -9 -22 0l-34 34v0q-26 27 -28 62l-6 -6v0q-12 -9 -23 0l-34 34v0q-28 30 -28 68
q0 39 28 68l34 34v0v0v0l-73 74v0q-10 11 0 22q11 9 22 0l74 -73v0v0v0l34 34v0q29 28 68 28q38 0 68 -28l33 -34v0q10 -12 0 -23l-6 -6v0q36 -2 63 -28l34 -34v0q9 -11 0 -22l-6 -6v0q35 -2 62 -28l34 -34v0q10 -12 0 -23l-22 -23v0q-9 -8 -19 -15l47 -47v0q9 -11 0 -22
q-11 -10 -23 0l-54 54v0q-24 -8 -50 -7l127 -127v0zM192 259h-1h1h-1l-34 -34v0q-18 -20 -18 -45q0 -26 18 -46l23 -22v0l11 11v0q28 30 28 68q1 38 -27 68v0zM248 44l23 -23l-23 23l23 -23l11 12v0q28 29 28 67q0 39 -28 68l-34 -34v0q-19 -19 -19 -45q0 -25 19 -45v0z
M90 202l11 12l-11 -12l11 12q28 29 28 67q0 39 -28 68l-34 -34v0q-19 -19 -19 -45q0 -25 19 -45l23 -23v0zM271 383l-23 23l23 -23l-23 23q-20 19 -45 19q-26 0 -46 -19l-33 -34v0q29 -28 67 -28q39 0 68 28l12 11v0zM361 293l-23 22l23 -22l-23 22q-19 19 -45 19
q-25 0 -45 -19l-34 -33v0q30 -29 68 -29t68 29l11 11v0zM452 202l-23 23l23 -23l-23 23q-20 19 -45 19q-26 0 -46 -19l-34 -34v0q30 -28 68 -28q39 0 68 28l11 11h1z" />
</svg>
