<?xml version="1.0" standalone="no"?>
<!DOCTYPE svg PUBLIC "-//W3C//DTD SVG 1.1//EN" "http://www.w3.org/Graphics/SVG/1.1/DTD/svg11.dtd" >
<svg xmlns="http://www.w3.org/2000/svg" xmlns:xlink="http://www.w3.org/1999/xlink" version="1.1" viewBox="-10 -40 660 512">
   <path fill="currentColor"
d="M608 25q14 0 23 -9v0v0q9 -9 9 -23t-9 -23t-23 -9t-23 9t-9 23t9 23t23 9v0zM16 25q-15 1 -16 16q1 15 16 16h111v0l-92 118v0q-5 8 -1 17t14 9h32v0q34 1 57 24q22 22 23 56v16v0q-1 34 -23 57q-23 22 -57 23h-5v0q-20 0 -34 -14l-14 -13v0q-11 -10 -22 0q-10 11 0 22
l13 14v0q24 23 57 23h5v0q48 -1 79 -33q32 -31 33 -79v-16v0q-1 -47 -33 -79q-31 -32 -78 -33l92 -118v0q5 -8 1 -17t-14 -9h-144v0zM448 105q1 -20 14 -34v0v0q14 -13 34 -14q20 1 34 14q13 14 14 34v224v0q-1 20 -14 34q-14 13 -34 14q-20 -1 -34 -14q-13 -14 -14 -34
v-224v0zM576 329v-224v224v-224q-1 -34 -23 -57q-23 -22 -57 -23q-34 1 -57 23q-22 23 -23 57v224v0q1 34 23 57q23 22 57 23q34 -1 57 -23q22 -23 23 -57v0zM256 137q1 -34 23 -57v0v0q23 -22 57 -23q15 -1 16 -16q-1 -15 -16 -16q-48 1 -79 33q-32 31 -33 79v112v0v0v0v80
v0q1 34 23 57q23 22 57 23q34 -1 57 -23q22 -23 23 -57v-96v0q-1 -34 -23 -57q-23 -22 -57 -23q-27 1 -48 16v-32v0zM304 185q20 1 34 14v0v0q13 14 14 34v96v0q-1 20 -14 34q-14 13 -34 14q-20 -1 -34 -14q-13 -14 -14 -34v-96v0q1 -20 14 -34q14 -13 34 -14v0z" />
</svg>
