<?xml version="1.0" standalone="no"?>
<!DOCTYPE svg PUBLIC "-//W3C//DTD SVG 1.1//EN" "http://www.w3.org/Graphics/SVG/1.1/DTD/svg11.dtd" >
<svg xmlns="http://www.w3.org/2000/svg" xmlns:xlink="http://www.w3.org/1999/xlink" version="1.1" viewBox="-10 -40 532 512">
   <path fill="currentColor"
d="M176 41q1 15 16 16h32v0q15 -1 16 -16q-1 -15 -16 -16h-32v0q-15 1 -16 16v0zM192 89q-15 1 -16 16q1 15 16 16h32v0q15 -1 16 -16q-1 -15 -16 -16h-32v0zM48 153q-15 1 -16 16q1 15 16 16h32v0q15 -1 16 -16q-1 -15 -16 -16h-32v0zM129 386q-4 -14 -17 -20
q-35 -16 -57 -46q-21 -31 -23 -71h448v0q-2 40 -23 71q-22 30 -56 46q-14 6 -18 20q-8 22 -31 23h-192v0q-23 -1 -31 -23v0zM27 217q-11 0 -19 8v0v0q-8 8 -8 19q1 52 28 92q26 39 71 59q6 20 22 33q17 13 39 13h192v0q22 0 39 -13q16 -13 22 -33q45 -19 71 -59
q27 -40 28 -91q0 -12 -8 -20t-19 -8h-458v0zM224 169q1 15 16 16h32v0q15 -1 16 -16q-1 -15 -16 -16h-32v0q-15 1 -16 16v0zM128 169q1 15 16 16h32v0q15 -1 16 -16q-1 -15 -16 -16h-32v0q-15 1 -16 16v0zM96 89q-15 1 -16 16q1 15 16 16h32v0q15 -1 16 -16q-1 -15 -16 -16
h-32v0zM320 169q1 15 16 16h32v0q15 -1 16 -16q-1 -15 -16 -16h-32v0q-15 1 -16 16v0zM288 89q-15 1 -16 16q1 15 16 16h32v0q15 -1 16 -16q-1 -15 -16 -16h-32v0zM416 169q1 15 16 16h32v0q15 -1 16 -16q-1 -15 -16 -16h-32v0q-15 1 -16 16v0zM384 89q-15 1 -16 16
q1 15 16 16h32v0q15 -1 16 -16q-1 -15 -16 -16h-32v0zM288 25q-15 1 -16 16q1 15 16 16h32v0q15 -1 16 -16q-1 -15 -16 -16h-32v0z" />
</svg>
