<?xml version="1.0" standalone="no"?>
<!DOCTYPE svg PUBLIC "-//W3C//DTD SVG 1.1//EN" "http://www.w3.org/Graphics/SVG/1.1/DTD/svg11.dtd" >
<svg xmlns="http://www.w3.org/2000/svg" xmlns:xlink="http://www.w3.org/1999/xlink" version="1.1" viewBox="-10 -40 532 512">
   <path fill="currentColor"
d="M296 -7q-17 0 -29 12q-4 5 -11 5t-11 -5q-12 -12 -29 -12t-28 12q-12 11 -12 28v4v0q0 10 -9 15q-10 4 -18 -3q-8 -8 -21 -8q-14 0 -23 9t-9 23t9 23t23 9h32h80q15 1 16 16q-1 15 -16 16h-19v0q3 8 3 16v16v0q-1 15 -16 16q-15 -1 -16 -16v-16v0q-1 -15 -16 -16h-16h-32
q-27 -1 -45 -19t-19 -45q1 -27 19 -45t45 -19q10 0 19 3q7 -23 26 -37q18 -14 43 -14q23 0 40 12q17 -12 40 -12q25 0 43 14q19 14 26 37q9 -3 19 -3q27 1 45 19t19 45q-1 27 -19 45t-45 19h-48v0q-15 1 -16 16v16v0q-1 15 -16 16q-15 -1 -16 -16v-16v0q1 -20 14 -34
q14 -13 34 -14h48v0q14 0 23 -9t9 -23t-9 -23t-23 -9q-13 0 -21 8q-8 7 -17 3q-10 -5 -10 -15v-4v0q0 -17 -12 -28q-11 -12 -28 -12v0zM32 221q5 -1 9 -3l29 -16v0q15 -8 31 0l26 14v0q15 8 31 0l26 -14v0q15 -8 31 0l25 14v0q16 8 32 0l25 -14v0q16 -8 32 0l25 14v0
q16 8 32 0l25 -14v0q16 -8 31 0l29 16v0q4 2 9 3q9 2 17 -1l10 -3v0l5 -2v0v2v0q0 17 -2 33q-14 96 -84 159q-70 62 -170 64q-100 -2 -170 -64q-70 -63 -84 -159q-2 -16 -2 -33v-2v0l5 2v0l10 3v0q8 3 17 1v0zM85 230l-28 16l28 -16l-28 16q-11 5 -22 7q15 82 75 134
q61 52 146 54q85 -2 146 -54q60 -52 75 -134q-11 -2 -22 -7l-28 -16v0l-26 14v0q-31 17 -63 0l-25 -14v0l-26 14v0q-31 17 -62 0l-26 -14v0l-25 14v0q-32 17 -63 0l-26 -14v0zM176 273q22 2 24 24q-2 22 -24 24q-22 -2 -24 -24q2 -22 24 -24v0zM312 297q2 -22 24 -24
q22 2 24 24q-2 22 -24 24q-22 -2 -24 -24v0zM256 313q27 1 45 19v0v0q18 18 19 45v5v0q-2 25 -27 27h-74v0q-25 -2 -27 -27v-5v0q1 -27 19 -45t45 -19v0zM224 377h64h-64h64q0 -14 -9 -23t-23 -9t-23 9t-9 23v0z" />
</svg>
