<?xml version="1.0" standalone="no"?>
<!DOCTYPE svg PUBLIC "-//W3C//DTD SVG 1.1//EN" "http://www.w3.org/Graphics/SVG/1.1/DTD/svg11.dtd" >
<svg xmlns="http://www.w3.org/2000/svg" xmlns:xlink="http://www.w3.org/1999/xlink" version="1.1" viewBox="-10 -40 532 512">
   <path fill="currentColor"
d="M448 182q-7 -16 -18 -29q16 -2 29 -9q13 -8 21 -14v0v0v-1v-1v0q-8 -7 -24 -14q-17 -8 -40 -9q-21 1 -27 3q-2 1 -3 1q-11 8 -21 -1q-9 -10 -1 -21v0q0 -1 1 -3q2 -5 3 -27q-1 -23 -8 -39q-8 -17 -15 -25v0h-1h-1v0v0q-6 8 -14 21q-7 13 -9 29q-13 -11 -29 -17
q5 -19 13 -33q8 -13 14 -20q11 -12 26 -12t26 12q8 10 19 31q10 22 11 53q0 9 -1 17q8 -1 17 -1q31 1 53 11q21 11 31 19q12 11 12 26t-12 26q-7 6 -20 14q-14 8 -32 13v0zM320 417q-28 -1 -48 -18q-9 19 -27 30q-18 12 -41 12q-29 -1 -50 -18q-9 22 -29 36q-19 14 -45 14
q-34 -1 -57 -23q-22 -23 -23 -57q0 -26 14 -45q14 -20 36 -29q-17 -21 -18 -50q0 -23 12 -41q11 -17 30 -27q-17 -20 -18 -48q1 -31 21 -51t51 -21q27 1 46 17q10 -22 29 -35q20 -14 45 -14q34 1 57 23q22 23 23 57q0 9 -2 18q9 -2 18 -2q34 1 57 23q22 23 23 57
q0 25 -14 45q-13 19 -35 29q17 19 17 46q-1 31 -21 51t-51 21v0zM296 129q-1 -27 -24 -42q-24 -12 -48 0q-23 15 -24 42q1 27 24 42q24 12 48 0q23 -15 24 -42v0zM128 193q23 -1 35 -20q10 -20 0 -40q-12 -19 -35 -20q-23 1 -35 20q-10 20 0 40q12 19 35 20v0zM272 249
q-1 -27 -24 -42q-24 -12 -48 0q-23 15 -24 42q1 27 24 42q24 12 48 0q23 -15 24 -42v0zM108 313q25 -1 38 -22q12 -22 0 -44q-13 -21 -38 -22q-25 1 -38 22q-12 22 0 44q13 21 38 22v0zM80 441q27 -1 42 -24q12 -24 0 -48q-15 -23 -42 -24q-27 1 -42 24q-12 24 0 48
q15 23 42 24v0zM204 409q25 -1 38 -22q12 -22 0 -44q-13 -21 -38 -22q-25 1 -38 22q-12 22 0 44q13 21 38 22v0zM360 345q-1 -23 -20 -35q-20 -10 -40 0q-19 12 -20 35q1 23 20 35q20 10 40 0q19 -12 20 -35v0zM344 273q27 -1 42 -24q12 -24 0 -48q-15 -23 -42 -24
q-27 1 -42 24q-12 24 0 48q15 23 42 24v0z" />
</svg>
