<?xml version="1.0" standalone="no"?>
<!DOCTYPE svg PUBLIC "-//W3C//DTD SVG 1.1//EN" "http://www.w3.org/Graphics/SVG/1.1/DTD/svg11.dtd" >
<svg xmlns="http://www.w3.org/2000/svg" xmlns:xlink="http://www.w3.org/1999/xlink" version="1.1" viewBox="-10 -40 468 512">
   <path fill="currentColor"
d="M160 409q-54 -1 -91 -37v0v0q-36 -37 -37 -91q1 -64 26 -111q26 -48 66 -80q40 -33 82 -49q43 -16 74 -16q29 2 59 23q14 9 23 17q4 3 6 5l1 1v0v1v0h1v0v0l1 1q2 2 6 7q7 8 16 22q21 30 23 59q0 31 -16 74q-16 42 -49 82q-32 40 -80 66q-47 25 -111 26v0zM0 281
q2 68 47 113v0v0q45 45 113 47q96 -2 160 -51q64 -48 96 -113q32 -64 32 -116q-1 -29 -15 -54q-13 -25 -26 -41q-14 -16 -15 -17t-17 -15q-16 -13 -41 -26q-25 -14 -54 -15q-52 0 -116 32q-65 32 -113 96q-49 64 -51 160v0zM260 93q5 -6 25 -3q20 5 41 25q20 21 25 41
q3 19 -3 24q-6 7 -25 3q-20 -4 -41 -24q-20 -21 -25 -41q-3 -20 3 -25v0zM348 93q-26 -26 -56 -34t-54 12q-20 24 -12 54t34 56t56 34t54 -12q20 -24 12 -54t-34 -56v0z" />
</svg>
