<?xml version="1.0" standalone="no"?>
<!DOCTYPE svg PUBLIC "-//W3C//DTD SVG 1.1//EN" "http://www.w3.org/Graphics/SVG/1.1/DTD/svg11.dtd" >
<svg xmlns="http://www.w3.org/2000/svg" xmlns:xlink="http://www.w3.org/1999/xlink" version="1.1" viewBox="-10 -40 660 512">
   <path fill="currentColor"
d="M128 57q-29 -1 -51 -11v0v0q-22 -10 -35 -21q13 -11 35 -21t51 -11q29 1 51 11t35 21q-13 11 -35 21t-51 11v0zM128 -39q-52 2 -84 24v0v0q-32 21 -41 33q-3 3 -3 7t3 7q6 8 25 23q19 14 49 25q-35 22 -56 58q-21 35 -21 79v16v0q1 15 16 16h32v0q68 -2 113 -47t47 -113
v-14v0l122 -58v0q50 -24 104 -24h190v0q15 -1 16 -16q-1 -15 -16 -16h-190v0q-62 0 -117 27l-63 30v0h-1v0q-9 -12 -41 -33q-32 -22 -84 -24v0zM176 89v0v0v0v0q-1 54 -37 91q-37 36 -91 37h-16v0q1 -54 37 -91q37 -36 91 -37h16v0zM412 398q-33 43 -76 43t-76 -43
q-34 -45 -36 -117q2 -72 36 -117q33 -43 76 -43t76 43q34 45 36 117q-2 72 -36 117v0zM336 473q61 -2 102 -56v0v0q40 -54 42 -136q-2 -82 -42 -136q-41 -54 -102 -56q-61 2 -102 56q-40 54 -42 136q2 82 42 136q41 54 102 56v0zM466 433q40 12 77 6v0v0q36 -7 62 -33
q42 -47 33 -116q-10 -70 -67 -131q-32 -33 -70 -51q-37 -18 -74 -19q21 16 36 37l1 1l1 1q44 13 83 54q50 54 58 112q7 58 -24 89q-30 31 -84 24q-7 -1 -15 -3q-8 15 -17 29v0z" />
</svg>
