<?xml version="1.0" standalone="no"?>
<!DOCTYPE svg PUBLIC "-//W3C//DTD SVG 1.1//EN" "http://www.w3.org/Graphics/SVG/1.1/DTD/svg11.dtd" >
<svg xmlns="http://www.w3.org/2000/svg" xmlns:xlink="http://www.w3.org/1999/xlink" version="1.1" viewBox="-10 -40 525 512">
   <path fill="currentColor"
d="M32 185q2 -82 56 -136v0v0q54 -54 136 -56q46 0 85 20q11 6 11 19q0 9 -7 16l-226 226v0q-7 7 -16 7q-13 0 -19 -11q-20 -39 -20 -85v0zM224 -39q-63 1 -113 31v0v0q-51 29 -80 80v0v0q-30 50 -31 113q0 53 23 99q17 29 48 29q22 0 38 -16l227 -227v0q16 -16 16 -38
q0 -31 -29 -48q-46 -23 -99 -23v0zM480 49q22 -2 24 -24q-2 -22 -24 -24q-22 2 -24 24q2 22 24 24v0zM352 465q22 -2 24 -24q-2 -22 -24 -24q-22 2 -24 24q2 22 24 24v0zM40 441q2 22 24 24q22 -2 24 -24q-2 -22 -24 -24q-22 2 -24 24v0zM365 134q-10 11 0 22l8 9v0
q36 35 86 41l27 3v0q15 0 18 -14q0 -15 -14 -18l-27 -3v0q-39 -5 -67 -32l-8 -8v0q-12 -10 -23 0v0zM195 326q-11 -10 -22 0q-10 11 0 22l8 9v0q27 28 32 66l3 28v0q3 14 18 14q14 -3 14 -18l-3 -27v0q-6 -50 -41 -86l-9 -8v0zM498 461q11 -10 2 -22l-8 -10v0
q-10 -12 -9 -26q0 -30 -19 -50q-19 -21 -48 -23l-30 -2v0q-16 -1 -26 -12q-11 -12 -11 -28q1 -27 -16 -47l-9 -10v0q-10 -11 -22 -2q-11 10 -2 22l8 10v0q10 12 10 26q-1 30 18 50q19 21 48 23l30 2v0q16 1 26 12q11 11 11 28q-1 26 16 47l9 10v0q10 10 22 2v0z" />
</svg>
