<?xml version="1.0" standalone="no"?>
<!DOCTYPE svg PUBLIC "-//W3C//DTD SVG 1.1//EN" "http://www.w3.org/Graphics/SVG/1.1/DTD/svg11.dtd" >
<svg xmlns="http://www.w3.org/2000/svg" xmlns:xlink="http://www.w3.org/1999/xlink" version="1.1" viewBox="-10 -40 525 512">
   <path fill="currentColor"
d="M40 -7q2 -22 24 -24q22 2 24 24q-2 22 -24 24q-22 -2 -24 -24v0zM456 121q2 -22 24 -24q22 2 24 24q-2 22 -24 24q-22 -2 -24 -24v0zM480 385q22 2 24 24q-2 22 -24 24q-22 -2 -24 -24q2 -22 24 -24v0zM173 108q-10 -11 0 -22l8 -9v0q27 -28 32 -66l3 -28v0q3 -14 18 -14
q14 3 14 18l-3 27v0q-6 50 -41 86l-9 8v0q-11 10 -22 0v0zM365 278l8 -9l-8 9l8 -9q36 -35 86 -41l27 -3v0q15 0 18 14q0 15 -14 18l-27 3v0q-39 5 -67 32l-8 8v0q-12 10 -23 0q-9 -11 0 -22v0zM500 -25q9 12 -2 22l-10 9v0q-20 17 -47 16q-16 0 -28 11q-11 10 -12 26l-2 30
v0q-2 29 -23 48q-20 19 -49 19q-15 -1 -27 9l-10 8v0q-12 9 -22 -2q-9 -12 2 -22l10 -9v0q21 -17 48 -16q16 0 27 -11q11 -10 12 -26l2 -30v0q3 -29 23 -48t50 -18q14 0 26 -10l10 -8v0q12 -9 22 2v0zM32 441v0v0l76 -29v0l-47 -48v0l-29 77v0zM202 377l-106 -106l106 106
l-106 -106l-23 61v0l2 2l64 64v0l2 2l61 -23v0zM235 365l53 -20l-53 20l53 -20v0v0v0l-160 -160v0v0v0v0l-20 53v0l127 127v0zM98 174q7 -17 23 -20v0v0q17 -4 30 8l160 160v0q12 13 8 30q-3 16 -19 23l-257 96v0q-20 6 -33 -8q-14 -13 -8 -33l96 -256v0z" />
</svg>
