<?xml version="1.0" standalone="no"?>
<!DOCTYPE svg PUBLIC "-//W3C//DTD SVG 1.1//EN" "http://www.w3.org/Graphics/SVG/1.1/DTD/svg11.dtd" >
<svg xmlns="http://www.w3.org/2000/svg" xmlns:xlink="http://www.w3.org/1999/xlink" version="1.1" viewBox="-10 -40 532 512">
   <path fill="currentColor"
d="M416 -7q-107 1 -194 52v0v0q-86 52 -138 138v0v0q-51 87 -52 194v48v0q1 15 16 16h48v0q107 -1 194 -52q86 -52 138 -138q51 -87 52 -194v-48v0q-1 -15 -16 -16h-48v0zM416 -39h48h-48h48q20 1 34 14q13 14 14 34v48v0q-1 116 -57 210q-55 94 -149 149q-94 56 -210 57
h-48v0q-20 -1 -34 -14q-13 -14 -14 -34v-48v0q1 -116 57 -210q55 -94 149 -149q94 -56 210 -57v0zM368 73q-14 0 -23 9v0v0q-9 9 -9 23t9 23t23 9t23 -9t9 -23t-9 -23t-23 -9v0zM432 105q-1 36 -32 55q-32 18 -64 0q-31 -19 -32 -55q1 -36 32 -55q32 -18 64 0q31 19 32 55v0
zM224 217q0 14 9 23v0v0q9 9 23 9t23 -9t9 -23t-9 -23t-23 -9t-23 9t-9 23v0zM256 281q-36 -1 -55 -32q-18 -32 0 -64q19 -31 55 -32q36 1 55 32q18 32 0 64q-19 31 -55 32v0zM112 329q0 14 9 23v0v0q9 9 23 9t23 -9t9 -23t-9 -23t-23 -9t-23 9t-9 23v0zM144 393
q-36 -1 -55 -32q-18 -32 0 -64q19 -31 55 -32q36 1 55 32q18 32 0 64q-19 31 -55 32v0z" />
</svg>
