<?xml version="1.0" standalone="no"?>
<!DOCTYPE svg PUBLIC "-//W3C//DTD SVG 1.1//EN" "http://www.w3.org/Graphics/SVG/1.1/DTD/svg11.dtd" >
<svg xmlns="http://www.w3.org/2000/svg" xmlns:xlink="http://www.w3.org/1999/xlink" version="1.1" viewBox="-10 -40 468 512">
   <path fill="currentColor"
d="M384 25q14 0 23 9v0v0q9 9 9 23v320v0q0 14 -9 23t-23 9h-320v0q-14 0 -23 -9t-9 -23v-320v0q0 -14 9 -23t23 -9h320v0zM64 -7q-27 1 -45 19v0v0q-18 18 -19 45v320v0q1 27 19 45t45 19h320v0q27 -1 45 -19t19 -45v-320v0q-1 -27 -19 -45t-45 -19h-320v0zM208 247v-54v54
v-54v-16v0v-16v0q0 -17 -12 -28q-11 -12 -28 -12h-32v0q-17 0 -28 12q-12 11 -12 28v32v0q0 17 12 28q11 12 28 12h32v0q4 0 8 -1v15v0q-2 26 -27 32l-15 2v0q-15 4 -14 18q4 15 18 14l15 -2v0q24 -4 39 -22q15 -17 16 -42v0zM176 193q-1 7 -8 8h-32v0q-7 -1 -8 -8v-32v0
q1 -7 8 -8h32v0q7 1 8 8v16v0v16v0zM352 193v-16v16v-16v-16v0q0 -17 -12 -28q-11 -12 -28 -12h-32v0q-17 0 -28 12q-12 11 -12 28v32v0q0 17 12 28q11 12 28 12h32v0q4 0 8 -1v15v0q-2 26 -27 32l-15 2v0q-15 4 -14 18q4 15 18 14l15 -2v0q24 -4 39 -22q15 -17 16 -42v-54
v0zM320 177v16v-16v16q-1 7 -8 8h-32v0q-7 -1 -8 -8v-32v0q1 -7 8 -8h32v0q7 1 8 8v16v0z" />
</svg>
