<?xml version="1.0" standalone="no"?>
<!DOCTYPE svg PUBLIC "-//W3C//DTD SVG 1.1//EN" "http://www.w3.org/Graphics/SVG/1.1/DTD/svg11.dtd" >
<svg xmlns="http://www.w3.org/2000/svg" xmlns:xlink="http://www.w3.org/1999/xlink" version="1.1" viewBox="-10 -40 532 512">
   <path fill="currentColor"
d="M235 -34l-11 11l11 -11l-11 11l10 -10t1 -1v0v0v0v0v0v0h1v0v0v0q0 1 1 1v1l5 5q5 7 12 21q10 18 15 47q81 3 146 36q21 12 17 36q-7 23 -31 24h-5v0q10 19 -3 37q-16 16 -38 8l-99 -42v0l-99 42v0q-22 8 -38 -8q-13 -18 -2 -37h-1v0q-21 2 -33 -17q-6 -13 -2 -25t16 -18
v0v0l1 -1v0v0v0q62 -31 139 -34q-5 -21 -11 -34q-6 -10 -10 -15q-2 -3 -3 -4v0v-1h-1v0q-9 -11 1 -22q11 -10 22 0v0zM240 73q-72 4 -128 32v0v0v0v0v0v0v0v0h3h31v0q10 0 14 8q4 9 0 17l-16 23v0l106 -45v0q6 -3 12 0l106 45v0l-15 -23v0q-5 -8 -1 -16q5 -9 14 -9h35v0
q-57 -28 -129 -32q-2 15 -16 16q-14 -1 -16 -16v0zM73 156q-40 43 -41 109q2 83 63 128q61 47 161 48q100 -1 162 -48q60 -45 62 -128q-1 -66 -41 -109q13 -9 20 -25q51 52 53 134q-3 99 -75 153t-181 55q-109 -1 -181 -55t-75 -153q2 -82 53 -134q1 2 1 3q8 14 19 22v0z
" />
</svg>
