<?xml version="1.0" standalone="no"?>
<!DOCTYPE svg PUBLIC "-//W3C//DTD SVG 1.1//EN" "http://www.w3.org/Graphics/SVG/1.1/DTD/svg11.dtd" >
<svg xmlns="http://www.w3.org/2000/svg" xmlns:xlink="http://www.w3.org/1999/xlink" version="1.1" viewBox="-11 0 662 512">
   <path fill="currentColor"
d="M26 -36q-12 -7 -23 3q-8 12 3 23l608 480v0q12 8 23 -3q8 -12 -3 -22l-608 -481v0zM524 240l33 -34l-33 34l33 -34q10 -12 0 -23l-22 -23v0q-28 -27 -63 -34l17 -1v0q34 -3 57 -26q24 -23 26 -58l3 -54v0q0 -10 -7 -18q-8 -7 -18 -7l-54 3v0q-35 3 -58 26t-26 58l-1 17v0
q-7 -36 -35 -64l-22 -23v0q-12 -9 -23 0l-34 34v0q-28 30 -28 68l41 32v0q-11 -19 -8 -40q2 -21 18 -37l23 -23v0l11 12v0q26 27 28 63q1 36 -22 65l27 21v0q29 -21 64 -19q34 2 61 28l12 11v0l-23 23v0q-16 15 -37 18l31 24v0q16 -7 29 -19v0zM287 272l-25 -20l25 20
l-25 -20l-29 29v0q2 -31 -11 -60l-74 -58v0l-32 31v0q-28 30 -28 68t28 68l34 34v0l-81 82v0q-10 11 0 22q11 9 22 0l82 -81v0v0v0l34 34v0q29 28 68 28q38 0 68 -28l33 -34v0q10 -12 0 -23l-22 -23v0q-43 -40 -99 -37l32 -32v0zM542 -5l-2 45l2 -45l-2 45q-2 22 -16 37
q-15 14 -37 16l-45 2v0l2 -45v0q2 -22 16 -37q15 -14 37 -16l45 -2v0zM173 341l-34 -34l34 34l-34 -34q-19 -19 -19 -45q0 -25 19 -45l23 -23v0l11 12v0q28 29 28 67t-27 68h-1v0zM320 398q-20 19 -45 19v0v0q-26 0 -46 -19l-33 -34v0q29 -28 67 -28q39 0 68 28l12 11v0
l-23 23v0z" />
</svg>
