<?xml version="1.0" standalone="no"?>
<!DOCTYPE svg PUBLIC "-//W3C//DTD SVG 1.1//EN" "http://www.w3.org/Graphics/SVG/1.1/DTD/svg11.dtd" >
<svg xmlns="http://www.w3.org/2000/svg" xmlns:xlink="http://www.w3.org/1999/xlink" version="1.1" viewBox="-10 -40 660 512">
   <path fill="currentColor"
d="M320 -23q0 -8 -7 -13q-6 -5 -14 -2l-48 16v0q-13 6 -10 20q6 13 20 10l27 -9v0v154v0h-48v0q-15 1 -16 16q1 15 16 16h64h64q15 -1 16 -16q-1 -15 -16 -16h-48v0v-176v0zM96 265q0 -8 -7 -13q-6 -5 -14 -2l-48 16v0q-13 6 -10 20q6 13 20 10l27 -9v0v154v0h-48v0
q-15 1 -16 16q1 15 16 16h64h64q15 -1 16 -16q-1 -15 -16 -16h-48v0v-176v0zM0 41v64v-64v64q1 34 23 57q23 22 57 23h32v0q34 -1 57 -23q22 -23 23 -57v-64v0q-1 -34 -23 -57q-23 -22 -57 -23h-32v0q-34 1 -57 23q-22 23 -23 57v0zM80 -7h32h-32h32q20 1 34 14q13 14 14 34
v64v0q-1 20 -14 34q-14 13 -34 14h-32v0q-20 -1 -34 -14q-13 -14 -14 -34v-64v0q1 -20 14 -34q14 -13 34 -14v0zM272 249q-34 1 -57 23v0v0q-22 23 -23 57v64v0q1 34 23 57q23 22 57 23h32v0q37 -1 60 -27q-11 -13 -19 -27q-14 21 -41 22h-32v0q-20 -1 -34 -14
q-13 -14 -14 -34v-64v0q1 -20 14 -34q14 -13 34 -14h32v0q12 0 21 5q4 -16 11 -30q-15 -7 -32 -7h-32v0zM496 217q30 0 56 15v0v0q26 15 41 41t15 56t-15 56t-41 41t-56 15t-56 -15t-41 -41t-15 -56t15 -56t41 -41t56 -15v0zM496 473q39 0 72 -19v0v0q33 -19 53 -53
q19 -34 19 -72t-19 -72q-20 -34 -53 -53t-72 -19t-72 19t-53 53q-19 34 -19 72t19 72q20 34 53 53t72 19v0zM563 286q-11 -10 -22 0l-61 60v0l-29 -28v0q-11 -10 -22 0q-10 11 0 22l40 40v0q11 10 22 0l72 -72v0q10 -11 0 -22v0z" />
</svg>
