<?xml version="1.0" standalone="no"?>
<!DOCTYPE svg PUBLIC "-//W3C//DTD SVG 1.1//EN" "http://www.w3.org/Graphics/SVG/1.1/DTD/svg11.dtd" >
<svg xmlns="http://www.w3.org/2000/svg" xmlns:xlink="http://www.w3.org/1999/xlink" version="1.1" viewBox="-10 -40 660 512">
   <path fill="currentColor"
d="M313 -36q-6 -5 -14 -2l-48 16v0q-13 6 -10 20q6 13 20 10l27 -9v0v154v0h-48v0q-15 1 -16 16q1 15 16 16h64h64q15 -1 16 -16q-1 -15 -16 -16h-48v0v-176v0q0 -8 -7 -13v0zM89 252q-6 -5 -14 -2l-48 16v0q-13 6 -10 20q6 13 20 10l27 -9v0v154v0h-48v0q-15 1 -16 16
q1 15 16 16h64h64q15 -1 16 -16q-1 -15 -16 -16h-48v0v-176v0q0 -8 -7 -13v0zM80 -39q-34 1 -57 23v0v0q-22 23 -23 57v64v0q1 34 23 57q23 22 57 23h32v0q34 -1 57 -23q22 -23 23 -57v-64v0q-1 -34 -23 -57q-23 -22 -57 -23h-32v0zM32 41q1 -20 14 -34v0v0q14 -13 34 -14
h32v0q20 1 34 14q13 14 14 34v64v0q-1 20 -14 34q-14 13 -34 14h-32v0q-20 -1 -34 -14q-13 -14 -14 -34v-64v0zM192 329v64v-64v64q1 34 23 57q23 22 57 23h32v0q34 -1 57 -23q22 -23 23 -57v-64v0q-1 -34 -23 -57q-23 -22 -57 -23h-32v0q-34 1 -57 23q-22 23 -23 57v0z
M272 281h32h-32h32q20 1 34 14q13 14 14 34v64v0q-1 20 -14 34q-14 13 -34 14h-32v0q-20 -1 -34 -14q-13 -14 -14 -34v-64v0q1 -20 14 -34q14 -13 34 -14v0zM528 185q20 1 34 14v0v0q13 14 14 34v48v0h-96v0v-48v0q1 -20 14 -34q14 -13 34 -14v0zM448 233v48v-48v48
q-14 0 -23 9t-9 23v128v0q0 14 9 23t23 9h160v0q14 0 23 -9t9 -23v-128v0q0 -14 -9 -23t-23 -9v-48v0q-1 -34 -23 -57q-23 -22 -57 -23q-34 1 -57 23q-22 23 -23 57v0zM448 313h160h-160h160v128v0h-160v0v-128v0z" />
</svg>
