<?xml version="1.0" standalone="no"?>
<!DOCTYPE svg PUBLIC "-//W3C//DTD SVG 1.1//EN" "http://www.w3.org/Graphics/SVG/1.1/DTD/svg11.dtd" >
<svg xmlns="http://www.w3.org/2000/svg" xmlns:xlink="http://www.w3.org/1999/xlink" version="1.1" viewBox="-10 -40 660 512">
   <path fill="currentColor"
d="M390 86q-20 -28 -51 -44v0v0q-30 -17 -67 -17q-59 1 -100 40q-40 39 -44 98q-2 20 -21 28q-33 12 -54 41q-20 28 -21 65q1 48 33 79q31 32 79 33h368v0q41 -1 68 -28t28 -68q0 -28 -14 -50t-37 -35q-21 -13 -16 -37q3 -10 3 -22q-1 -34 -23 -57q-23 -22 -57 -23
q-19 0 -34 8q-24 9 -40 -11v0zM272 -7q45 0 82 20v0v0q38 20 62 55q22 -11 48 -11q48 1 79 33q32 31 33 79q0 16 -4 31q31 16 49 46q19 30 19 67q-1 54 -37 91q-37 36 -91 37h-368v0q-61 -2 -102 -42q-40 -41 -42 -102q1 -48 27 -84t69 -52q5 -72 54 -119t122 -49v0z
M427 196l-128 128l128 -128l-128 128q-11 10 -22 0l-64 -64v0q-10 -11 0 -22q11 -10 22 0l53 52v0l117 -116v0q11 -10 22 0q10 11 0 22v0z" />
</svg>
