<?xml version="1.0" standalone="no"?>
<!DOCTYPE svg PUBLIC "-//W3C//DTD SVG 1.1//EN" "http://www.w3.org/Graphics/SVG/1.1/DTD/svg11.dtd" >
<svg xmlns="http://www.w3.org/2000/svg" xmlns:xlink="http://www.w3.org/1999/xlink" version="1.1" viewBox="-10 -40 404 512">
   <path fill="currentColor"
d="M249 -39q-17 0 -30 10v0v0q-12 10 -17 26l-22 92v0h-164v0q-15 1 -16 16q1 15 16 16h176v0v0v0h176v0q15 -1 16 -16q-1 -15 -16 -16h-155v0l21 -84v0q3 -11 15 -12h23v0q15 -1 16 -16q-1 -15 -16 -16h-23v0zM37 153l23 276l-23 -276l23 276q2 19 16 31q13 13 32 13h168v0
q19 0 32 -13q14 -12 16 -31l23 -276v0h-32v0l-23 273v0q-2 14 -16 15h-168v0q-14 -1 -16 -15l-23 -273v0h-32v0z" />
</svg>
