<?xml version="1.0" standalone="no"?>
<!DOCTYPE svg PUBLIC "-//W3C//DTD SVG 1.1//EN" "http://www.w3.org/Graphics/SVG/1.1/DTD/svg11.dtd" >
<svg xmlns="http://www.w3.org/2000/svg" xmlns:xlink="http://www.w3.org/1999/xlink" version="1.1" viewBox="-10 -40 404 512">
   <path fill="currentColor"
d="M202 -3q5 -16 17 -26v0v0q13 -10 30 -10h23v0q15 1 16 16q-1 15 -16 16h-23v0q-12 1 -15 12l-21 84v0h155v0q15 1 16 16q-1 15 -16 16h-176v0v0v0h-176v0q-15 -1 -16 -16q1 -15 16 -16h164v0l22 -92v0zM60 429l-23 -276l23 276l-23 -276h32v0l15 173v0q42 -6 62 -18
q24 -15 39 -37l2 -2v0q15 -21 43 -41q27 -19 80 -25l5 -50v0h32v0l-23 276v0q-2 19 -16 31q-13 13 -32 13h-168v0q-19 0 -32 -13q-14 -12 -16 -31v0zM308 236q-42 6 -61 19q-20 14 -35 35v0l-2 2v0q-16 23 -48 43q-27 17 -75 23l5 68v0q2 14 16 15h168v0q14 -1 16 -15
l16 -191v1z" />
</svg>
