<?xml version="1.0" standalone="no"?>
<!DOCTYPE svg PUBLIC "-//W3C//DTD SVG 1.1//EN" "http://www.w3.org/Graphics/SVG/1.1/DTD/svg11.dtd" >
<svg xmlns="http://www.w3.org/2000/svg" xmlns:xlink="http://www.w3.org/1999/xlink" version="1.1" viewBox="-10 -40 660 512">
   <path fill="currentColor"
d="M304 217q-2 85 -43 139q-40 52 -93 53q-53 -1 -93 -53q-11 -14 -19 -31q11 4 24 4q34 -1 57 -23q22 -23 23 -57q-1 -34 -23 -56q-23 -23 -57 -24q-26 1 -46 15q9 -64 41 -106q40 -53 93 -53q53 1 93 53q41 54 43 139v0zM320 122q-21 -58 -61 -93v0v0q-40 -35 -91 -36
q-71 2 -119 66q-47 63 -49 158q2 95 49 158q48 64 119 66q51 -1 91 -36t61 -92q21 57 61 92t91 36q71 -2 119 -66q47 -63 49 -158q-2 -95 -49 -158q-48 -64 -119 -66q-51 1 -91 36t-61 93v0zM379 356q-11 -14 -19 -31q11 4 24 4q34 -1 57 -23q22 -23 23 -57q-1 -34 -23 -56
q-23 -23 -57 -24q-26 1 -46 15q9 -64 41 -106q40 -53 93 -53q53 1 93 53q41 54 43 139q-2 85 -43 139q-40 52 -93 53q-53 -1 -93 -53v0zM32 249q1 -27 24 -42q24 -12 48 0q23 15 24 42q-1 27 -24 42q-24 12 -48 0q-23 -15 -24 -42v0zM384 201q27 1 42 24q12 24 0 48
q-15 23 -42 24q-27 -1 -42 -24q-12 -24 0 -48q15 -23 42 -24v0z" />
</svg>
