<?xml version="1.0" standalone="no"?>
<!DOCTYPE svg PUBLIC "-//W3C//DTD SVG 1.1//EN" "http://www.w3.org/Graphics/SVG/1.1/DTD/svg11.dtd" >
<svg xmlns="http://www.w3.org/2000/svg" xmlns:xlink="http://www.w3.org/1999/xlink" version="1.1" viewBox="-10 -40 532 512">
   <path fill="currentColor"
d="M32 217q1 -63 31 -113v0v0q29 -51 80 -80v0v0q50 -30 113 -31q63 1 113 31q51 29 80 80q30 50 31 113q-2 88 -57 149q-9 12 1 23q12 9 23 -1q63 -70 65 -171q-1 -72 -35 -129q-34 -58 -92 -92q-57 -34 -129 -35q-72 1 -129 35q-58 34 -92 92q-34 57 -35 129q1 72 35 129
q34 58 92 92q57 34 129 35q15 -1 16 -16q-1 -15 -16 -16q-63 -1 -113 -31q-51 -29 -80 -80q-30 -50 -31 -113v0zM352 332v125v-125v125q1 15 16 16q15 -1 16 -16v-152v0q7 -7 13 -14q8 -12 -3 -22q-12 -9 -22 2q-18 22 -46 40q-29 17 -70 18q-41 -1 -70 -18q-28 -18 -45 -40
q-11 -11 -23 -2q-11 10 -2 22q20 26 55 48q35 21 85 22q17 0 32 -3v67v0q1 15 16 16q15 -1 16 -16v-76v0q18 -7 32 -17v0zM159 151q12 -13 33 -14q15 -1 16 -16q-1 -15 -16 -16q-36 2 -55 22t-24 37q-4 14 10 20q14 3 20 -10q3 -10 16 -24v1zM369 174q6 14 20 10
q13 -6 10 -20q-5 -17 -24 -36q-19 -21 -55 -23q-15 1 -16 16q1 15 16 16q21 1 33 14q13 13 16 23v0z" />
</svg>
