<?xml version="1.0" standalone="no"?>
<!DOCTYPE svg PUBLIC "-//W3C//DTD SVG 1.1//EN" "http://www.w3.org/Graphics/SVG/1.1/DTD/svg11.dtd" >
<svg xmlns="http://www.w3.org/2000/svg" xmlns:xlink="http://www.w3.org/1999/xlink" version="1.1" viewBox="-10 -40 532 512">
   <path fill="currentColor"
d="M480 217q-1 -61 -30 -112v0v0q-30 -51 -82 -82q-53 -30 -112 -30t-112 30q-52 31 -82 82q-29 51 -30 112q1 61 30 112q30 51 82 82q53 30 112 30t112 -30q52 -31 82 -82q29 -51 30 -112v0zM0 217q1 -70 34 -128v0v0q34 -58 94 -94q61 -34 128 -34t128 34q60 36 94 94
q33 58 34 128q-1 70 -34 128q-34 58 -94 94q-61 34 -128 34t-128 -34q-60 -36 -94 -94q-33 -58 -34 -128v0zM176 193q22 2 24 24q-2 22 -24 24q-22 -2 -24 -24q2 -22 24 -24v0zM312 217q2 -22 24 -24q22 2 24 24q-2 22 -24 24q-22 -2 -24 -24v0zM179 122q-32 5 -56 27
q-12 9 -23 -1q-9 -12 1 -23q31 -29 74 -35q8 -1 17 -1q15 1 16 16q-1 15 -16 16q-7 0 -13 1v0zM320 121q-15 -1 -16 -16q1 -15 16 -16q9 0 17 1q43 6 74 35q10 11 1 23q-11 10 -23 1q-24 -22 -56 -27q-6 -1 -13 -1v0zM288 345q0 -14 -9 -23v0v0q-9 -9 -23 -9t-23 9t-9 23
t9 23t23 9t23 -9t9 -23v0zM192 345q1 -36 32 -55q32 -18 64 0q31 19 32 55q-1 36 -32 55q-32 18 -64 0q-31 -19 -32 -55v0z" />
</svg>
