<?xml version="1.0" standalone="no"?>
<!DOCTYPE svg PUBLIC "-//W3C//DTD SVG 1.1//EN" "http://www.w3.org/Graphics/SVG/1.1/DTD/svg11.dtd" >
<svg xmlns="http://www.w3.org/2000/svg" xmlns:xlink="http://www.w3.org/1999/xlink" version="1.1" viewBox="-10 -40 532 512">
   <path fill="currentColor"
d="M480 217q-1 -61 -30 -112v0v0q-30 -51 -82 -82q-53 -30 -112 -30t-112 30q-52 31 -82 82q-29 51 -30 112q1 61 30 112q30 51 82 82q53 30 112 30t112 -30q52 -31 82 -82q29 -51 30 -112v0zM0 217q1 -70 34 -128v0v0q34 -58 94 -94q61 -34 128 -34t128 34q60 36 94 94
q33 58 34 128q-1 70 -34 128q-34 58 -94 94q-61 34 -128 34t-128 -34q-60 -36 -94 -94q-33 -58 -34 -128v0zM276 268q-17 -8 -38 -11q-15 -3 -14 -18q3 -14 18 -14q25 3 48 14q11 5 20 14t10 24q-1 15 -10 24q-7 7 -16 12q9 5 16 12q9 9 10 24q-1 15 -10 24t-20 14
q-23 11 -48 14q-14 1 -18 -14q-1 -14 14 -18q21 -3 38 -10q7 -4 10 -8q2 -1 2 -2v0l-2 -2q-3 -3 -10 -7q-17 -8 -38 -11q-2 0 -3 -1q-4 -1 -6 -3q-3 -3 -4 -6t-1 -6t1 -5q1 -3 4 -6q2 -3 6 -4h3q21 -4 38 -11q7 -4 10 -7l2 -2v-1l-2 -2q-3 -3 -10 -7v0zM288 277v0v0v0v0v0z
M288 277v0v0v0v0v0v0v0v0v0zM288 349v0v0v0v0v0v0v0v0v0zM288 349v0v0v0v0v0v0v0zM211 195q-14 -18 -35 -18v0v0q-21 0 -35 18q-10 11 -23 3q-11 -10 -3 -23q25 -30 61 -30t61 30q8 13 -3 23q-13 7 -23 -3v0zM301 195q-10 11 -23 3q-10 -10 -3 -23q25 -30 61 -30t61 30
q7 13 -3 23q-13 7 -23 -3q-14 -18 -35 -18t-35 18v0z" />
</svg>
