<?xml version="1.0" standalone="no"?>
<!DOCTYPE svg PUBLIC "-//W3C//DTD SVG 1.1//EN" "http://www.w3.org/Graphics/SVG/1.1/DTD/svg11.dtd" >
<svg xmlns="http://www.w3.org/2000/svg" xmlns:xlink="http://www.w3.org/1999/xlink" version="1.1" viewBox="-10 -40 532 512">
   <path fill="currentColor"
d="M448 332v-147v147v-147q-1 -15 -16 -16h-3v0q-8 -35 -36 -57q-27 -22 -65 -23q-44 1 -74 30q-29 30 -30 74q1 44 30 74q30 29 74 30q28 0 51 -13t37 -35v106v0q0 9 1 18q-31 31 -72 50q-41 18 -89 18q-63 -1 -113 -31q-51 -29 -80 -80q-30 -50 -31 -113q1 -63 31 -113
q29 -51 80 -80q50 -30 113 -31q63 1 113 31q51 29 80 80q30 50 31 113q-1 64 -32 115v0zM452 382q58 -69 60 -165q-1 -72 -35 -129q-34 -58 -92 -92q-57 -34 -129 -35q-72 1 -129 35q-58 34 -92 92q-34 57 -35 129q1 72 35 129q34 58 92 92q57 34 129 35q101 -2 171 -66
q16 35 49 56l12 8v0q13 6 22 -6q6 -13 -6 -22l-11 -7v0q-31 -20 -41 -54v0zM176 145q-2 -22 -24 -24q-22 2 -24 24q2 22 24 24q22 -2 24 -24v0zM312 201q22 -2 24 -24q-2 -22 -24 -24q-22 2 -24 24q2 22 24 24v0zM328 121q41 1 62 36q20 36 0 72q-21 35 -62 36
q-41 -1 -62 -36q-20 -36 0 -72q21 -35 62 -36v0zM160 313q1 15 16 16q24 -1 61 12q35 12 53 43q8 13 21 7q13 -7 7 -21q-12 -23 -30 -37q-19 -15 -40 -22q-43 -15 -72 -14q-15 1 -16 16v0zM305 67q13 -10 28 -10q14 0 26 8l8 5v0q13 7 22 -4q7 -13 -4 -22l-9 -6v0
q-19 -13 -42 -13q-27 0 -49 17l-23 19v0q-11 10 -2 22q10 11 22 3l23 -19v0z" />
</svg>
