<?xml version="1.0" standalone="no"?>
<!DOCTYPE svg PUBLIC "-//W3C//DTD SVG 1.1//EN" "http://www.w3.org/Graphics/SVG/1.1/DTD/svg11.dtd" >
<svg xmlns="http://www.w3.org/2000/svg" xmlns:xlink="http://www.w3.org/1999/xlink" version="1.1" viewBox="-27 0 564 512">
   <path fill="currentColor"
d="M32 217q1 -63 31 -113v0v0q29 -51 80 -80v0v0q50 -30 113 -31q63 1 113 31q51 29 80 80q30 50 31 113q0 15 -2 30q-1 15 14 18q14 0 18 -14q2 -17 2 -34q-1 -71 -35 -129t-92 -92q-57 -34 -129 -35q-72 1 -129 35q-58 34 -92 92q-34 57 -35 129q0 17 2 34q4 14 18 14
q15 -3 14 -18q-2 -15 -2 -30v0zM211 437q-14 -2 -19 12q-1 15 13 19q25 5 51 5t51 -5q14 -4 13 -19q-5 -14 -19 -12q-22 4 -45 4t-45 -4v0zM204 273q6 -10 -2 -19q-9 -8 -20 -3l-67 41v0q-2 -3 -4 -4q-14 -15 -34 -15q-19 0 -34 15q-4 4 -6 8q-22 -2 -39 14q-13 14 -14 32
q-1 19 12 33q-8 18 -5 37q4 19 18 34q15 15 34 18t37 -4q15 12 33 11q18 0 32 -14q16 -17 14 -38q5 -3 9 -7q14 -15 14 -34t-14 -34l-4 -4l40 -67v0zM328 252q-10 -5 -19 3q-8 9 -3 19l41 67v0l-4 4q-14 15 -14 34t14 34q4 4 8 7q-1 21 14 38q14 13 33 14q18 1 32 -12
q18 8 38 5q19 -4 33 -18q15 -15 18 -34t-4 -37q12 -15 11 -33q0 -18 -14 -32q-16 -16 -38 -14q-3 -5 -7 -9q-15 -14 -34 -14t-34 14l-4 4l-67 -40v0zM117 328l27 -16l-27 16l27 -16l-17 26v0q-4 8 -1 15q4 7 11 9q5 1 8 5q9 11 0 22q-4 4 -8 5q-8 1 -11 8q-4 7 0 14
q4 10 -4 18q-11 10 -22 0q-2 -1 -3 -3q-3 -6 -10 -8q-8 -1 -13 3q-22 15 -42 -3q-18 -20 -3 -42q4 -5 3 -13q-2 -6 -8 -10q-2 -1 -3 -3q-10 -11 0 -22q8 -8 18 -4q7 4 14 0q7 -3 8 -11q1 -4 5 -8q11 -9 22 0q4 3 5 8q2 7 9 11q7 3 15 -1v0zM383 340l-16 -27l16 27l-16 -27
l27 16v0q7 4 14 1t9 -11q1 -5 5 -8q11 -9 22 0q4 4 5 8q1 8 8 12q7 3 14 0q10 -5 18 3q10 11 0 22q-1 2 -3 3q-6 4 -8 11q-1 7 3 13q15 21 -2 42q-21 17 -43 2q-5 -4 -12 -3q-7 2 -11 8q-1 2 -3 4q-11 9 -22 0q-8 -9 -4 -19q4 -7 0 -14q-3 -7 -11 -8q-4 -1 -8 -5
q-9 -11 0 -22q3 -4 8 -5q7 -2 11 -9q3 -7 -1 -14v0zM96 201q1 15 16 16h96v0q15 -1 16 -16q-1 -15 -16 -16h-96v0q-15 1 -16 16v0zM288 201q1 15 16 16h96v0q15 -1 16 -16q-1 -15 -16 -16h-96v0q-15 1 -16 16v0zM389 104q14 -6 10 -20q-6 -13 -20 -10q-31 11 -54 27
q-23 15 -32 25q-10 11 0 22q11 10 22 0q8 -7 27 -21q20 -13 47 -23v0zM123 104q27 10 47 23v0v0q19 14 27 21q11 10 22 0q10 -11 0 -22q-9 -10 -32 -26q-23 -15 -54 -26q-14 -4 -20 10q-4 14 10 20v0z" />
</svg>
