<?xml version="1.0" standalone="no"?>
<!DOCTYPE svg PUBLIC "-//W3C//DTD SVG 1.1//EN" "http://www.w3.org/Graphics/SVG/1.1/DTD/svg11.dtd" >
<svg xmlns="http://www.w3.org/2000/svg" xmlns:xlink="http://www.w3.org/1999/xlink" version="1.1" viewBox="-10 -40 532 512">
   <path fill="currentColor"
d="M480 217q-1 -61 -30 -112v0v0q-30 -51 -82 -82q-53 -30 -112 -30t-112 30q-52 31 -82 82q-29 51 -30 112q1 61 30 112q30 51 82 82q53 30 112 30t112 -30q52 -31 82 -82q29 -51 30 -112v0zM0 217q1 -70 34 -128v0v0q34 -58 94 -94q61 -34 128 -34t128 34q60 36 94 94
q33 58 34 128q-1 70 -34 128q-34 58 -94 94q-61 34 -128 34t-128 -34q-60 -36 -94 -94q-33 -58 -34 -128v0zM208 345h96h-96h96q15 1 16 16q-1 15 -16 16h-96v0q-15 -1 -16 -16q1 -15 16 -16v0zM387 231q10 -10 23 -3q11 10 3 23q-25 30 -61 30t-61 -30q-7 -13 3 -23
q13 -8 23 3q14 18 35 18t35 -18v0zM125 231q14 18 35 18v0v0q21 0 35 -18q10 -10 23 -3q11 10 3 23q-25 30 -61 30t-61 -30q-7 -13 3 -23q13 -8 23 3v0zM82 176q-6 -13 7 -21l23 -12v0q22 -11 37 -30l15 -18v0q10 -10 22 -2q11 10 3 22l-15 18v0q-20 25 -48 39l-23 11v0
q-13 6 -21 -7v0zM423 155q13 8 7 21q-7 13 -21 7l-23 -11v0q-28 -14 -48 -39l-14 -18v0q-9 -12 2 -22q12 -8 23 2l14 18v0q15 19 37 30l23 12v0z" />
</svg>
