<?xml version="1.0" standalone="no"?>
<!DOCTYPE svg PUBLIC "-//W3C//DTD SVG 1.1//EN" "http://www.w3.org/Graphics/SVG/1.1/DTD/svg11.dtd" >
<svg xmlns="http://www.w3.org/2000/svg" xmlns:xlink="http://www.w3.org/1999/xlink" version="1.1" viewBox="-10 -40 532 512">
   <path fill="currentColor"
d="M480 217q-1 -61 -30 -112v0v0q-30 -51 -82 -82q-53 -30 -112 -30t-112 30q-52 31 -82 82q-29 51 -30 112q1 61 30 112q30 51 82 82q53 30 112 30t112 -30q52 -31 82 -82q29 -51 30 -112v0zM0 217q1 -70 34 -128v0v0q34 -58 94 -94q61 -34 128 -34t128 34q60 36 94 94
q33 58 34 128q-1 70 -34 128q-34 58 -94 94q-61 34 -128 34t-128 -34q-60 -36 -94 -94q-33 -58 -34 -128v0zM316 372q-9 -10 -24 -19v0v0q-15 -8 -36 -8t-36 8q-15 9 -24 19q-11 10 -23 1q-10 -11 -1 -23q12 -14 33 -25t51 -12q30 1 51 12t33 25q9 12 -1 23q-12 9 -23 -1v0z
M129 194q8 -13 22 -7l64 32v0q8 4 9 14q-1 10 -9 14l-64 32v0q-14 6 -22 -7q-5 -14 8 -22l35 -17v0l-35 -18v0q-13 -8 -8 -21v0zM376 215l-36 18l36 -18l-36 18l36 18v0q12 8 7 21q-8 13 -22 7l-64 -32v0q-8 -4 -8 -14t8 -14l64 -32v0q14 -6 22 7q5 14 -7 22v-1zM211 62
q10 11 0 22l-7 8v0q-37 36 -87 44l-2 1v0q-15 1 -19 -13q-1 -15 13 -19h3v0q40 -7 69 -36l8 -7v0q11 -10 22 0v0zM301 84q-10 -11 0 -22q11 -10 22 0l8 7v0q29 29 69 36h3v0q14 4 13 19q-4 14 -18 13l-3 -1v0q-50 -8 -87 -44l-7 -8v0z" />
</svg>
