<?xml version="1.0" standalone="no"?>
<!DOCTYPE svg PUBLIC "-//W3C//DTD SVG 1.1//EN" "http://www.w3.org/Graphics/SVG/1.1/DTD/svg11.dtd" >
<svg xmlns="http://www.w3.org/2000/svg" xmlns:xlink="http://www.w3.org/1999/xlink" version="1.1" viewBox="-10 -40 532 512">
   <path fill="currentColor"
d="M480 217q-1 -61 -30 -112v0v0q-30 -51 -82 -82q-53 -30 -112 -30t-112 30q-52 31 -82 82q-29 51 -30 112q1 61 30 112q30 51 82 82q53 30 112 30t112 -30q52 -31 82 -82q29 -51 30 -112v0zM0 217q1 -70 34 -128v0v0q34 -58 94 -94q61 -34 128 -34t128 34q60 36 94 94
q33 58 34 128q-1 70 -34 128q-34 58 -94 94q-61 34 -128 34t-128 -34q-60 -36 -94 -94q-33 -58 -34 -128v0zM280 372q-7 -10 -24 -11q-17 1 -24 11q-11 10 -23 1q-10 -11 -1 -23q14 -18 48 -21q34 3 48 21q9 12 -1 23q-12 9 -23 -1v0zM332 58q14 -3 19 11l2 5v0q13 39 54 46
l11 1v0q14 3 14 18q-3 13 -16 14q16 21 16 48q-1 34 -23 57q-23 22 -57 23q-34 -1 -57 -23q-22 -23 -23 -57q1 -32 21 -54t51 -26q-15 -16 -22 -38l-1 -6v0q-3 -14 11 -19v0zM191 77l-1 6l1 -6l-1 6q-7 22 -22 38q31 4 51 26t21 54q-1 34 -23 57q-23 22 -57 23
q-34 -1 -57 -23q-22 -23 -23 -57q1 -27 16 -48q-13 -1 -16 -14q0 -15 14 -18l12 -1v0q40 -7 53 -46l2 -5v0q5 -14 19 -11q14 5 11 19v0zM160 249q27 -1 42 -24q12 -24 0 -48q-15 -23 -42 -24q-27 1 -42 24q-12 24 0 48q15 23 42 24v0zM400 201q-1 -27 -24 -42q-24 -12 -48 0
q-23 15 -24 42q1 27 24 42q24 12 48 0q23 -15 24 -42v0zM128 201q14 0 23 -9v0v0q9 -9 9 -23q14 0 23 9t9 23t-9 23t-23 9t-23 -9t-9 -23v0zM352 169q14 0 23 9v0v0q9 9 9 23t-9 23t-23 9t-23 -9t-9 -23q14 0 23 -9t9 -23v0z" />
</svg>
