<?xml version="1.0" standalone="no"?>
<!DOCTYPE svg PUBLIC "-//W3C//DTD SVG 1.1//EN" "http://www.w3.org/Graphics/SVG/1.1/DTD/svg11.dtd" >
<svg xmlns="http://www.w3.org/2000/svg" xmlns:xlink="http://www.w3.org/1999/xlink" version="1.1" viewBox="-10 -40 586 512">
   <path fill="currentColor"
d="M288 -7q-87 2 -148 56v0v0q-61 54 -74 138q-3 14 -18 14q-14 -3 -14 -18q15 -96 85 -158t169 -64q72 1 129 35q58 34 92 92q34 57 35 129q-1 72 -35 129q-34 58 -92 92q-57 34 -129 35q-88 -2 -154 -51q-11 -10 -3 -23q10 -10 23 -3q57 44 134 45q63 -1 113 -31
q51 -29 80 -80q30 -50 31 -113q-1 -63 -31 -113q-29 -51 -80 -80q-50 -30 -113 -31v0zM64 279q-8 10 -16 23q-8 12 -13 23q-3 7 -3 9v0v0v0q0 10 8 18q9 8 24 9q15 -1 24 -9q8 -8 8 -18v0v0q0 -1 -3 -9q-5 -11 -13 -24q-8 -12 -16 -23v1zM55 237q9 -8 18 0q15 18 34 47
q19 30 21 50q-1 25 -19 42q-18 16 -45 17q-27 -1 -45 -17q-18 -17 -19 -42q2 -20 21 -50q20 -29 35 -47h-1zM348 372q-9 -10 -24 -19v0v0q-15 -8 -36 -8t-36 8q-15 9 -24 19q-11 10 -23 1q-10 -11 -1 -23q12 -14 33 -25t51 -12q30 1 51 12t33 25q9 12 -1 23q-12 9 -23 -1v0z
M392 233q-2 22 -24 24q-22 -2 -24 -24q2 -22 24 -24q22 2 24 24v0zM208 209q22 2 24 24q-2 22 -24 24q-22 -2 -24 -24q2 -22 24 -24v0zM211 110q10 11 0 22l-7 8v0q-37 36 -87 44l-2 1v0q-15 1 -19 -13q-1 -15 13 -19h3v0q40 -7 69 -36l8 -7v0q11 -10 22 0v0zM365 132
q-10 -11 0 -22q11 -10 22 0l8 7v0q29 29 69 36h3v0q14 4 13 19q-4 14 -18 13l-3 -1v0q-50 -8 -87 -44l-7 -8v0z" />
</svg>
