<?xml version="1.0" standalone="no"?>
<!DOCTYPE svg PUBLIC "-//W3C//DTD SVG 1.1//EN" "http://www.w3.org/Graphics/SVG/1.1/DTD/svg11.dtd" >
<svg xmlns="http://www.w3.org/2000/svg" xmlns:xlink="http://www.w3.org/1999/xlink" version="1.1" viewBox="-10 -40 650 512">
   <path fill="currentColor"
d="M543 236q1 -10 1 -19q-1 -63 -31 -113q-29 -51 -80 -80q-50 -30 -113 -31q-63 1 -113 31q-51 29 -80 80q-30 50 -31 113q0 9 1 19q-16 -4 -32 -2q-1 -9 -1 -17q1 -72 35 -129q34 -58 92 -92q57 -34 129 -35q72 1 129 35q58 34 92 92q34 57 35 129v17q-17 -2 -33 2v0z
M408 423q-5 19 -7 37q-38 13 -81 13t-81 -13q-2 -18 -6 -37q40 18 87 18t88 -18v0zM224 125q-20 9 -36 33q-14 25 -12 46q3 19 15 26t33 -1q20 -9 36 -33q14 -25 12 -46q-3 -19 -15 -26q-13 -7 -33 1v0zM211 96q31 -14 61 0q29 18 32 51q2 33 -17 65q-20 32 -50 46
q-31 14 -61 0q-29 -18 -32 -51q-2 -33 17 -65q20 -32 50 -46v0zM416 125q-21 -8 -33 -1t-15 26q-2 21 12 46q16 24 36 33q21 8 33 1t15 -26q2 -21 -12 -46q-16 -24 -36 -33v0zM429 96q30 14 50 46q19 32 17 65q-3 33 -32 51q-30 14 -61 0q-30 -14 -50 -46q-19 -32 -17 -65
q3 -33 32 -51q30 -14 61 0v0zM352 313q0 -14 -9 -23v0v0q-9 -9 -23 -9t-23 9t-9 23v32v0q0 14 9 23t23 9t23 -9t9 -23v-32v0zM256 313q1 -27 19 -45v0v0q18 -18 45 -19q27 1 45 19t19 45v32v0q-1 27 -19 45t-45 19q-27 -1 -45 -19t-19 -45v-32v0zM114 279v0v0v0q44 39 69 98
q21 49 24 96h-32v0q-3 -40 -22 -84q-23 -53 -60 -86q-15 -11 -33 -2v0v0q-12 9 -12 23q0 7 4 14v0v0q40 60 46 135h-32v0q-6 -65 -40 -117q-10 -15 -10 -32q0 -31 27 -49v0v0q17 -11 36 -10q20 2 35 14v0zM614 356q-34 52 -40 117h-32v0q6 -75 46 -135v0v0q4 -6 4 -13
q0 -15 -12 -24v0v0q-18 -9 -33 2q-37 33 -60 86q-19 44 -22 84h-32v0q3 -47 24 -96q25 -59 69 -98v0v0q16 -12 35 -14q19 -1 36 10v0v0q28 19 27 52q-1 15 -10 29v0z" />
</svg>
