<?xml version="1.0" standalone="no"?>
<!DOCTYPE svg PUBLIC "-//W3C//DTD SVG 1.1//EN" "http://www.w3.org/Graphics/SVG/1.1/DTD/svg11.dtd" >
<svg xmlns="http://www.w3.org/2000/svg" xmlns:xlink="http://www.w3.org/1999/xlink" version="1.1" viewBox="-10 -40 532 512">
   <path fill="currentColor"
d="M32 217q1 -63 31 -113v0v0q29 -51 80 -80v0v0q50 -30 113 -31q63 1 113 31q51 29 80 80q30 50 31 113q-1 70 -37 124q-7 13 4 22q13 7 22 -4q42 -62 43 -142q-1 -72 -35 -129q-34 -58 -92 -92q-57 -34 -129 -35q-72 1 -129 35q-58 34 -92 92q-34 57 -35 129q1 63 28 116
t74 89q13 7 23 -3q8 -13 -3 -23q-42 -31 -66 -77q-24 -47 -24 -102v0zM200 105q-2 -22 -24 -24q-22 2 -24 24q2 22 24 24q22 -2 24 -24v0zM360 105q-2 -22 -24 -24q-22 2 -24 24q2 22 24 24q22 -2 24 -24v0zM165 190q-10 11 0 22q15 17 43 28v29v0q-25 8 -40 28
q-16 21 -16 48v48v0q1 34 23 57q23 22 57 23h56h2q44 -1 73 -34l26 -31v0q12 -16 11 -35q-2 -19 -17 -33q-19 -14 -40 -10q-8 -36 -39 -54v-36v0q28 -11 43 -28q10 -11 0 -22q-11 -10 -22 0q-8 8 -21 15v-4v0q-1 -20 -14 -34q-14 -13 -34 -14q-20 1 -34 14q-13 14 -14 34v4
v0q-13 -7 -21 -15q-11 -10 -22 0v0zM256 185q15 1 16 16v64v0h-32v0v-64v0q1 -15 16 -16v0zM217 339l77 70l-77 -70l77 70q12 -2 20 -11l26 -31v0q10 -11 22 -2q11 10 2 22l-25 31v0q-20 22 -49 23h-2h-56q-20 -1 -34 -14q-13 -14 -14 -34v-48v0q1 -20 14 -34q14 -13 34 -14
h32v0q20 1 34 14q13 14 14 34v8v0q-1 15 -16 16q-15 -1 -16 -16v-8v0q-1 -15 -16 -16h-32v0q-11 1 -15 10v0z" />
</svg>
