<?xml version="1.0" standalone="no"?>
<!DOCTYPE svg PUBLIC "-//W3C//DTD SVG 1.1//EN" "http://www.w3.org/Graphics/SVG/1.1/DTD/svg11.dtd" >
<svg xmlns="http://www.w3.org/2000/svg" xmlns:xlink="http://www.w3.org/1999/xlink" version="1.1" viewBox="-10 -40 532 512">
   <path fill="currentColor"
d="M256 -7q-63 1 -113 31v0v0q-51 29 -80 80v0v0q-30 50 -31 113q1 63 31 113q29 51 80 80q50 30 113 31q48 0 90 -19q14 -4 21 9q4 14 -9 21q-47 21 -102 21q-72 -1 -129 -35q-58 -34 -92 -92q-34 -57 -35 -129q1 -72 35 -129q34 -58 92 -92q57 -34 129 -35q72 1 129 35
q58 34 92 92q34 57 35 129q0 36 -9 68q-5 14 -20 12q-14 -6 -11 -20q8 -29 8 -60q-1 -63 -31 -113q-29 -51 -80 -80q-50 -30 -113 -31v0zM320 278q3 -12 16 -13q22 0 50 10q29 9 57 27q28 17 48 44t21 63q-1 27 -19 45t-45 19q-27 -1 -45 -19t-19 -45q2 -26 -7 -61t-47 -52
q-11 -6 -10 -18v0zM396 313q7 12 11 25q7 21 8 39q1 19 1 32v0v0q0 14 9 23t23 9t23 -9t9 -23q0 -24 -15 -44q-15 -21 -40 -37q-14 -9 -29 -15v0zM309 391q-24 -9 -53 -10q-28 1 -53 10q-18 6 -32 -5q-7 -5 -10 -15q-2 -10 3 -19q13 -25 37 -40q25 -15 55 -15t55 15
q24 15 38 40q4 9 2 19q-3 10 -10 15q-14 11 -32 5v0zM256 329q-39 2 -60 30q28 -9 60 -10q32 1 60 10q-21 -29 -60 -30v0zM387 199q10 -11 23 -3q11 10 3 23q-25 30 -61 30t-61 -30q-7 -13 3 -23q13 -7 23 3q14 18 35 18t35 -18v0zM125 199q14 18 35 18v0v0q21 0 35 -18
q10 -11 23 -3q11 10 3 23q-25 30 -61 30t-61 -30q-7 -13 3 -23q13 -7 23 3v0z" />
</svg>
