<?xml version="1.0" standalone="no"?>
<!DOCTYPE svg PUBLIC "-//W3C//DTD SVG 1.1//EN" "http://www.w3.org/Graphics/SVG/1.1/DTD/svg11.dtd" >
<svg xmlns="http://www.w3.org/2000/svg" xmlns:xlink="http://www.w3.org/1999/xlink" version="1.1" viewBox="-10 -40 660 512">
   <path fill="currentColor"
d="M423 -18q-48 -21 -103 -21q-72 1 -129 35q-58 34 -92 92q-34 57 -35 129q0 17 2 33q16 2 30 9h1q2 -1 3 -1q-4 -20 -4 -41q1 -63 31 -113q29 -51 80 -80q50 -30 113 -31q52 0 96 22q0 -17 7 -32v-1zM535 152q9 31 9 65q0 37 -11 69q6 3 11 5q11 -6 23 -8q9 -32 9 -66
q0 -35 -9 -68q-16 6 -32 3v0zM429 413q-49 27 -109 28q-71 -1 -126 -39l-23 23v0q64 47 149 48q72 -1 130 -35l-9 -8v0q-7 -8 -13 -17h1zM275 195q10 11 23 3q11 -10 3 -23q-25 -30 -61 -30t-61 30q-7 13 3 23q13 7 23 -3q14 -18 35 -18t35 18v0zM206 285q-11 11 -2 23
q17 20 46 36t70 17q41 -1 70 -17t46 -36q9 -12 -1 -23q-12 -9 -23 2q-14 16 -36 29q-23 12 -56 13q-33 -1 -56 -13q-22 -13 -36 -29q-11 -11 -22 -2v0zM365 195q14 -18 35 -18v0v0q21 0 35 18q10 11 23 3q11 -10 3 -23q-25 -30 -61 -30t-61 30q-7 13 3 23q13 8 23 -3v0z
M487 0q16 -14 32 0l14 14v0q11 9 22 0l14 -14v0q16 -14 32 0q14 16 0 32l-55 56v0q-2 2 -4 0l-55 -56v0q-14 -16 0 -32v0zM542 -23q-17 -16 -39 -16v0v0q-22 0 -39 16q-16 17 -16 39t16 39l56 56v0q10 10 24 10t25 -10l55 -56v0q16 -17 16 -39t-16 -39q-17 -16 -39 -16
t-39 16l-2 3v0l-2 -3v0zM94 297q-17 -16 -39 -16v0v0q-22 0 -39 16q-16 17 -16 39t16 39l56 56v0q10 10 24 10t25 -10l55 -56v0q16 -17 16 -39t-16 -39q-17 -16 -39 -16t-39 16l-2 3v0l-2 -3v0zM39 320q16 -14 32 0l14 14v0q11 9 22 0l14 -14v0q16 -14 32 0q14 16 0 32
l-55 56v0q-2 2 -4 0l-55 -56v0q-14 -16 0 -32v0zM487 352q16 -14 32 0l14 14v0q11 9 22 0l14 -14v0q16 -14 32 0q14 16 0 32l-55 56v0q-2 2 -4 0l-55 -56v0q-14 -16 0 -32v0zM542 329q-17 -16 -39 -16v0v0q-22 0 -39 16q-16 17 -16 39t16 39l56 56v0q10 10 24 10t25 -10
l55 -56v0q16 -17 16 -39t-16 -39q-17 -16 -39 -16t-39 16l-2 3v0l-2 -3v0z" />
</svg>
