<?xml version="1.0" standalone="no"?>
<!DOCTYPE svg PUBLIC "-//W3C//DTD SVG 1.1//EN" "http://www.w3.org/Graphics/SVG/1.1/DTD/svg11.dtd" >
<svg xmlns="http://www.w3.org/2000/svg" xmlns:xlink="http://www.w3.org/1999/xlink" version="1.1" viewBox="-10 -40 660 512">
   <path fill="currentColor"
d="M111 136q25 -64 81 -103v0v0q55 -39 128 -40q73 1 128 40q56 39 81 103q7 14 21 10q13 -7 9 -21q-29 -73 -93 -118q-63 -45 -146 -46q-83 1 -146 46q-64 45 -93 118q-4 14 9 21q14 4 21 -10v0zM290 439q-15 -1 -18 14q0 14 14 18q17 2 34 2t34 -2q14 -4 14 -18
q-4 -15 -18 -14q-15 2 -30 2t-30 -2v0zM384 346v-33v33v-33v-2v0v-52v0q2 -18 20 -20q15 1 19 15v1l1 1v3v12v0v8v0q0 6 5 7q4 2 9 -1l5 -6v0l11 -10v0l2 -3v0l10 -9v0v0v0l51 -51v0q10 -9 20 -2l2 2q10 11 0 22v0v0l-34 34v0l-17 18v0v0v0q-4 4 0 9q5 4 9 0v0v0l18 -17v0
l34 -34v0l16 -16v0q5 -5 11 -5t11 5t5 11t-5 11v0v0l-16 16v0l-34 34v0l-17 18v0q-4 4 0 9q5 4 9 0v0v0l18 -17v0l34 -34v0v0v0v0v0q11 -10 22 0l2 2q7 11 -2 20v0v0l-5 5v0l-27 27v0l-2 2v0l-17 18v0q-4 4 0 9q5 4 9 0l18 -17v0l2 -2v0q11 -10 22 0l2 2q7 11 -2 20l-19 20
v0l-37 37v0q-29 27 -68 28q-40 -1 -67 -28t-28 -67v0zM320 361q17 0 33 -3q5 49 40 82q35 32 86 33q53 -1 90 -37l57 -57v0q13 -14 14 -33q0 -18 -12 -33q12 -15 12 -33q-1 -19 -14 -33q-1 -1 -2 -1q0 -1 -1 -2q5 -25 -13 -45q-20 -18 -45 -13l-3 -3q-15 -14 -34 -14t-34 14
l-47 47v0q-15 -22 -43 -23q-22 1 -37 16q-14 14 -15 36v54v0v12v0q-15 4 -32 4t-32 -4v-12v0v-54v0q-1 -22 -15 -36q-15 -15 -37 -16q-28 1 -43 23l-47 -47v0q-15 -14 -34 -14t-34 14q-1 2 -3 3v0q-25 -5 -45 13q-18 20 -13 45l-3 3q-14 14 -14 33q0 18 12 33q-12 15 -12 33
q0 19 14 33l57 57v0q37 36 90 37q51 -1 86 -33q35 -33 40 -82q16 3 33 3v0zM221 140q9 -11 19 -11t20 11q9 11 12 25q5 14 20 12q14 -5 11 -20q-4 -20 -19 -38q-16 -20 -44 -22q-28 2 -44 22q-15 18 -20 38q-2 15 12 20q15 2 19 -12t13 -25h1zM368 165q3 -14 13 -25
q9 -11 19 -11t20 11q9 11 12 25q5 14 20 12q14 -5 11 -20q-4 -20 -19 -38q-16 -20 -44 -22q-28 2 -44 22q-15 18 -20 38q-2 15 12 20q14 2 19 -12h1zM101 228v0v0v0q-10 -11 0 -22l2 -2q10 -7 20 2l52 51v0v0v0l9 9v0l2 3v0l11 10v0l5 6v0q5 3 9 2q5 -2 5 -8v-8v0v-12v0v-3
q0 -1 1 -2q4 -14 19 -15q18 2 20 20v52v0v2v0v33v0q-1 40 -28 67t-67 28q-39 -1 -67 -28l-38 -37v0l-19 -20v0q-9 -9 -2 -20l2 -2q11 -10 22 0l2 2v0l18 17v0q4 4 9 0q4 -5 0 -9l-17 -18v0l-2 -2v0l-27 -27v0l-5 -5v0v0v0q-9 -9 -2 -20l2 -2q11 -10 22 0v0v0v0v0l34 34v0
l18 17v0v0v0q4 4 9 0q4 -5 0 -9l-17 -18v0l-34 -34v0l-16 -16v0v0v0q-5 -5 -5 -11t5 -11t11 -5t11 5l16 16v0l34 34v0l18 17v0v0v0q4 4 9 0q4 -5 0 -9v0v0l-17 -18v0l-34 -34v0z" />
</svg>
