<?xml version="1.0" standalone="no"?>
<!DOCTYPE svg PUBLIC "-//W3C//DTD SVG 1.1//EN" "http://www.w3.org/Graphics/SVG/1.1/DTD/svg11.dtd" >
<svg xmlns="http://www.w3.org/2000/svg" xmlns:xlink="http://www.w3.org/1999/xlink" version="1.1" viewBox="-10 -40 532 512">
   <path fill="currentColor"
d="M480 217q-1 -61 -30 -112v0v0q-30 -51 -82 -82q-53 -30 -112 -30t-112 30q-52 31 -82 82q-29 51 -30 112q1 61 30 112q30 51 82 82q53 30 112 30t112 -30q52 -31 82 -82q29 -51 30 -112v0zM0 217q1 -70 34 -128v0v0q34 -58 94 -94q61 -34 128 -34t128 34q60 36 94 94
q33 58 34 128q-1 70 -34 128q-34 58 -94 94q-61 34 -128 34t-128 -34q-60 -36 -94 -94q-33 -58 -34 -128v0zM376 300v1v-1v1q-5 26 -25 43q-19 16 -46 17h-113v0q-15 -1 -16 -16q1 -15 16 -16h113v0q15 0 25 -9q11 -10 14 -24v-2v0q4 -14 19 -13q14 4 13 19v0zM112 153h64
h-64h64q14 0 23 9t9 23t-9 23t-23 9t-23 -9t-9 -23h-32v0q-15 -1 -16 -16q1 -15 16 -16v0zM288 169q1 -15 16 -16h64v0q14 0 23 9t9 23t-9 23t-23 9t-23 -9t-9 -23h-32v0q-15 -1 -16 -16v0z" />
</svg>
