<?xml version="1.0" standalone="no"?>
<!DOCTYPE svg PUBLIC "-//W3C//DTD SVG 1.1//EN" "http://www.w3.org/Graphics/SVG/1.1/DTD/svg11.dtd" >
<svg xmlns="http://www.w3.org/2000/svg" xmlns:xlink="http://www.w3.org/1999/xlink" version="1.1" viewBox="-10 -40 532 512">
   <path fill="currentColor"
d="M480 217q-1 -61 -30 -112v0v0q-30 -51 -82 -82q-53 -30 -112 -30t-112 30q-52 31 -82 82q-29 51 -30 112q1 61 30 112q30 51 82 82q53 30 112 30t112 -30q52 -31 82 -82q29 -51 30 -112v0zM0 217q1 -70 34 -128v0v0q34 -58 94 -94q61 -34 128 -34t128 34q60 36 94 94
q33 58 34 128q-1 70 -34 128q-34 58 -94 94q-61 34 -128 34t-128 -34q-60 -36 -94 -94q-33 -58 -34 -128v0zM256 311q36 0 71 10q-5 -8 -12 -15q-24 -25 -59 -27q-34 2 -59 27q-7 7 -12 15q35 -10 71 -10v0zM256 247q25 0 46 11v0v0q21 10 35 25q15 15 24 32q8 16 9 32
q0 8 -7 13t-14 2l-17 -6v0q-37 -13 -76 -13t-76 13l-17 6v0q-7 3 -14 -2t-7 -13q0 -16 9 -32q9 -17 24 -32q14 -15 35 -25q21 -11 46 -11v0zM211 126q10 11 0 22l-7 8v0q-37 36 -87 44l-2 1v0q-15 1 -19 -13q-1 -15 13 -19h3v0q40 -7 69 -36l8 -7v0q11 -10 22 0v0zM301 148
q-10 -11 0 -22q11 -10 22 0l8 7v0q29 29 69 36h3v0q14 4 13 19q-4 14 -18 13l-3 -1v0q-50 -8 -87 -44l-7 -8v0z" />
</svg>
