<?xml version="1.0" standalone="no"?>
<!DOCTYPE svg PUBLIC "-//W3C//DTD SVG 1.1//EN" "http://www.w3.org/Graphics/SVG/1.1/DTD/svg11.dtd" >
<svg xmlns="http://www.w3.org/2000/svg" xmlns:xlink="http://www.w3.org/1999/xlink" version="1.1" viewBox="-10 -40 532 512">
   <path fill="currentColor"
d="M480 217q-1 -61 -30 -112v0v0q-30 -51 -82 -82q-53 -30 -112 -30t-112 30q-52 31 -82 82q-29 51 -30 112q1 61 30 112q30 51 82 82q53 30 112 30t112 -30q52 -31 82 -82q29 -51 30 -112v0zM0 217q1 -70 34 -128v0v0q34 -58 94 -94q61 -34 128 -34t128 34q60 36 94 94
q33 58 34 128q-1 70 -34 128q-34 58 -94 94q-61 34 -128 34t-128 -34q-60 -36 -94 -94q-33 -58 -34 -128v0zM205 82q-22 31 -47 48v0v0q-26 18 -41 22q-14 4 -20 -10q-4 -14 10 -20q11 -3 32 -18q21 -14 40 -40q9 -11 22 -4q11 9 4 22v0zM212 201l-64 16l64 -16l-64 16
q-15 2 -19 -12q-3 -15 11 -19l64 -16v0q15 -3 20 11q2 15 -12 20v0zM411 308l-39 40l39 -40l-39 40q-22 21 -52 21q-21 0 -38 -11l-15 -9v0q-29 -17 -60 -5q-49 18 -92 -10l-12 -8v0q-11 -9 -4 -22q9 -11 22 -4l12 7v0q29 19 62 7q47 -18 90 8l14 9v0q10 6 22 6q16 0 29 -12
l39 -39v0q11 -10 22 0q10 11 0 22v0zM328 131q-8 14 -8 38t8 38q3 7 6 9q1 1 2 1v0v0v0v0v0v0v0v0q1 0 2 -1q3 -2 6 -9q8 -14 8 -38t-8 -38q-3 -7 -6 -9q-1 -1 -2 -1v0v0v0v0v0v0v0v0v0v0q-1 0 -2 1q-3 2 -6 9v0zM299 117q5 -11 14 -19v0v0q9 -9 23 -9t23 9q9 8 14 19
q11 22 11 52t-11 52q-5 11 -14 19q-9 9 -23 9t-23 -9q-9 -8 -14 -19q-11 -22 -11 -52t11 -52v0z" />
</svg>
