<?xml version="1.0" standalone="no"?>
<!DOCTYPE svg PUBLIC "-//W3C//DTD SVG 1.1//EN" "http://www.w3.org/Graphics/SVG/1.1/DTD/svg11.dtd" >
<svg xmlns="http://www.w3.org/2000/svg" xmlns:xlink="http://www.w3.org/1999/xlink" version="1.1" viewBox="-10 -40 532 512">
   <path fill="currentColor"
d="M32 217q1 -63 31 -113v0v0q29 -51 80 -80v0v0q50 -30 113 -31q63 1 113 31q51 29 80 80q30 50 31 113q0 15 -2 30q-1 15 14 18q14 0 18 -14q2 -17 2 -34q-1 -71 -35 -129t-92 -92q-57 -34 -129 -35q-72 1 -129 35q-58 34 -92 92q-34 57 -35 129q1 72 35 129q34 58 92 92
q57 34 129 35q49 0 92 -17q13 -7 9 -21q-6 -13 -20 -9q-38 15 -81 15q-63 -1 -113 -31q-51 -29 -80 -80q-30 -50 -31 -113v0zM224 297q-1 -15 -16 -16q-15 1 -16 16v32v0q1 15 16 16q15 -1 16 -16v-32v0zM272 281q-15 1 -16 16v32v0q1 15 16 16q15 -1 16 -16v-32v0
q-1 -15 -16 -16v0zM160 297q-1 -15 -16 -16q-15 1 -16 16v32v0q1 15 16 16q15 -1 16 -16v-32v0zM200 169q-2 -22 -24 -24q-22 2 -24 24q2 22 24 24q22 -2 24 -24v0zM336 193q22 -2 24 -24q-2 -22 -24 -24q-22 2 -24 24q2 22 24 24v0zM371 278l-22 22l22 -22l-22 22
q-15 16 -7 37l30 61v0q18 35 53 41q36 6 65 -20q26 -29 20 -65q-6 -35 -41 -53l-62 -30v0q-20 -8 -36 7v0zM456 330q19 10 23 30v0v0q3 20 -12 36q-16 15 -36 12q-20 -4 -30 -23l-30 -62v0l23 -23v0l62 29v1zM457 370q7 -9 0 -17q-9 -8 -17 0l-16 16v0q-8 8 0 17q8 7 17 0
l16 -16v0z" />
</svg>
