<?xml version="1.0" standalone="no"?>
<!DOCTYPE svg PUBLIC "-//W3C//DTD SVG 1.1//EN" "http://www.w3.org/Graphics/SVG/1.1/DTD/svg11.dtd" >
<svg xmlns="http://www.w3.org/2000/svg" xmlns:xlink="http://www.w3.org/1999/xlink" version="1.1" viewBox="-10 -40 532 512">
   <path fill="currentColor"
d="M136 -37q7 -4 15 0l224 112v0q9 4 9 14t-9 14l-215 108v0v62v0q45 -8 96 -8q109 1 181 30q72 30 75 74q-3 44 -75 74q-72 29 -181 30q-109 -1 -181 -30q-72 -30 -75 -74q1 -25 26 -46q26 -21 70 -35v34v0q-5 1 -9 3q-31 13 -45 27q-12 13 -10 17q-2 4 10 17q14 14 45 27
q65 27 169 28q104 -1 169 -28q31 -13 45 -27q12 -13 10 -17q2 -4 -10 -17q-14 -14 -45 -27q-65 -27 -169 -28q-52 0 -96 8v28v0q26 -12 64 -12q41 1 68 14q27 14 28 34q-1 20 -28 34q-27 13 -68 14q-41 -1 -68 -14q-27 -14 -28 -34v-57v0v-33v0v-78v0v-224v0q0 -9 8 -14v0z
M160 175l172 -86l-172 86l172 -86l-172 -86v0v172v0zM288 366v1v-1v1v-1v0zM278 364q-19 -10 -54 -11q-35 1 -54 11q-6 3 -8 5q2 2 8 5q19 10 54 11q35 -1 54 -11q6 -3 8 -5q-2 -2 -8 -5v0zM288 372h1v-1v0q-1 0 -1 1v0z" />
</svg>
