<?xml version="1.0" standalone="no"?>
<!DOCTYPE svg PUBLIC "-//W3C//DTD SVG 1.1//EN" "http://www.w3.org/Graphics/SVG/1.1/DTD/svg11.dtd" >
<svg xmlns="http://www.w3.org/2000/svg" xmlns:xlink="http://www.w3.org/1999/xlink" version="1.1" viewBox="-10 -40 660 512">
   <path fill="currentColor"
d="M503 -37q13 8 7 21l-234 454v0q-19 34 -57 35h-163v0q-24 -1 -40 -16q-15 -16 -16 -40v-80v0q1 -24 16 -40q16 -15 40 -16h265v0l161 -311v0q8 -13 21 -7v0zM304 313h-176h176h-176v128v0h91v0q19 -1 28 -17l57 -111v0zM56 313q-22 2 -24 24v80v0q2 22 24 24h40v0v-128v0
h-40v0zM432 393q-15 1 -16 16v16v0q1 15 16 16h160v0q15 -1 16 -16v-16v0q-1 -15 -16 -16h-160v0zM384 409q1 -20 14 -34v0v0q14 -13 34 -14h160v0q20 1 34 14q13 14 14 34v16v0q-1 20 -14 34q-14 13 -34 14h-160v0q-20 -1 -34 -14q-13 -14 -14 -34v-16v0z" />
</svg>
