<?xml version="1.0" standalone="no"?>
<!DOCTYPE svg PUBLIC "-//W3C//DTD SVG 1.1//EN" "http://www.w3.org/Graphics/SVG/1.1/DTD/svg11.dtd" >
<svg xmlns="http://www.w3.org/2000/svg" xmlns:xlink="http://www.w3.org/1999/xlink" version="1.1" viewBox="-11 0 598 512">
   <path fill="currentColor"
d="M299 -35q-11 -8 -22 0l-272 240v0q-10 11 -1 23q11 10 23 1l37 -33v0v197v0q1 34 23 57q23 22 57 23h288v0q34 -1 57 -23q22 -23 23 -57v-197v0l37 33v0q12 9 23 -1q9 -12 -1 -23l-59 -52v0v-136v0q-2 -22 -24 -24h-80v0q-22 2 -24 24v23v0l-85 -75v0zM416 69v-44v44v-44
h64v0v100v0l-64 -56v0zM96 393v-225v225v-225l192 -170v0l192 170v0v225v0q-1 20 -14 34q-14 13 -34 14h-288v0q-20 -1 -34 -14q-13 -14 -14 -34v0z" />
</svg>
