<?xml version="1.0" standalone="no"?>
<!DOCTYPE svg PUBLIC "-//W3C//DTD SVG 1.1//EN" "http://www.w3.org/Graphics/SVG/1.1/DTD/svg11.dtd" >
<svg xmlns="http://www.w3.org/2000/svg" xmlns:xlink="http://www.w3.org/1999/xlink" version="1.1" viewBox="-10 -40 660 512">
   <path fill="currentColor"
d="M608 89q0 -26 -13 -48v0v0q-13 -22 -35 -35q-23 -13 -48 -13t-48 13q-22 13 -35 35t-13 48t13 48t35 35q23 13 48 13t48 -13q22 -13 35 -35t13 -48v0zM640 89q-1 54 -37 91v0v0q-37 36 -91 37q-54 -1 -91 -37q-36 -37 -37 -91v0v0h-96v0v64v0q-1 15 -16 16
q-15 -1 -16 -16v-64v0h-64v0v64v0q-1 15 -16 16q-15 -1 -16 -16v-80v0q1 -15 16 -16h212v0q11 -42 45 -69q33 -26 79 -27q54 1 91 37q36 37 37 91v0zM32 345q0 26 13 48v0v0q13 22 35 35q23 13 48 13t48 -13q22 -13 35 -35t13 -48t-13 -48t-35 -35q-23 -13 -48 -13t-48 13
q-22 13 -35 35t-13 48v0zM0 345q1 -54 37 -91v0v0q37 -36 91 -37q54 1 91 37q36 37 37 91v0v0h96v0v-64v0q1 -15 16 -16q15 1 16 16v64v0h64v0v-64v0q1 -15 16 -16q15 1 16 16v80v0q-1 15 -16 16h-212v0q-11 42 -45 69q-33 26 -79 27q-54 -1 -91 -37q-36 -37 -37 -91v0z" />
</svg>
