<?xml version="1.0" standalone="no"?>
<!DOCTYPE svg PUBLIC "-//W3C//DTD SVG 1.1//EN" "http://www.w3.org/Graphics/SVG/1.1/DTD/svg11.dtd" >
<svg xmlns="http://www.w3.org/2000/svg" xmlns:xlink="http://www.w3.org/1999/xlink" version="1.1" viewBox="-10 -40 660 512">
   <path fill="currentColor"
d="M224 345q14 0 23 9v0v0q9 9 9 23v48v0l98 -74v0q9 -6 19 -6h107v0q14 0 23 -9t9 -23v-160v0v-128v0q0 -14 -9 -23t-23 -9h-320v0q-14 0 -23 9t-9 23v128v0v160v0q0 14 9 23t23 9h64v0zM544 25v112v-112v112h36v0q9 -15 28 -16q14 0 23 9t9 23t-9 23t-23 9q-19 -1 -28 -16
h-36v0v144v0q-1 27 -19 45t-45 19h-107v0l-123 93v0q-8 5 -17 1t-9 -14v-48v0v-32v0h-32h-32q-27 -1 -45 -19t-19 -45v-144v0h-36v0q-9 15 -28 16q-14 0 -23 -9t-9 -23t9 -23t23 -9q19 1 28 16h36v0v-112v0q1 -27 19 -45t45 -19h320v0q27 1 45 19t19 45v0zM208 89
q-15 1 -16 16v96v0q1 15 16 16h224v0q15 -1 16 -16v-96v0q-1 -15 -16 -16h-224v0zM160 105q1 -20 14 -34v0v0q14 -13 34 -14h224v0q20 1 34 14q13 14 14 34v96v0q-1 20 -14 34q-14 13 -34 14h-224v0q-20 -1 -34 -14q-13 -14 -14 -34v-96v0zM216 153q0 -14 9 -23v0v0
q9 -9 23 -9t23 9t9 23t-9 23t-23 9t-23 -9t-9 -23v0zM392 121q14 0 23 9v0v0q9 9 9 23t-9 23t-23 9t-23 -9t-9 -23t9 -23t23 -9v0z" />
</svg>
