<?xml version="1.0" standalone="no"?>
<!DOCTYPE svg PUBLIC "-//W3C//DTD SVG 1.1//EN" "http://www.w3.org/Graphics/SVG/1.1/DTD/svg11.dtd" >
<svg xmlns="http://www.w3.org/2000/svg" xmlns:xlink="http://www.w3.org/1999/xlink" version="1.1" viewBox="-10 -40 650 512">
   <path fill="currentColor"
d="M336 9q1 -15 16 -16h41v0q33 2 45 33l6 15v0l56 -28v0q8 -4 17 -4q25 2 27 27v74v0q0 12 -8 19q-7 8 -19 8q-9 0 -17 -4l-31 -16v0l26 77v0q8 -1 17 -1q64 2 107 44q9 11 0 22q-12 10 -23 0q-34 -33 -84 -34q-43 1 -75 26q-31 25 -42 66l-2 14q-3 13 -16 14h-41h-80
q-1 41 -28 68t-68 28q-41 -1 -68 -28t-28 -68h-32v0q-14 0 -23 -9t-9 -23v-32v0q1 -54 37 -91q37 -36 91 -37h96v0q14 0 23 9t9 23v96v0q0 14 9 23t23 9h32h43q1 -1 1 -2v-2q10 -38 36 -67q26 -28 63 -41l-55 -165v0q-4 -10 -15 -11h-41v0q-15 -1 -16 -16v0zM455 75v0v0v0v0
l57 28v0v-60v0l-57 28v0v1h-1l1 3v0zM112 89h128h-128h128q15 1 16 16q-1 15 -16 16h-128v0q-15 -1 -16 -16q1 -15 16 -16v0zM224 185h-96h96h-96q-41 1 -68 28t-28 68v32v0h38h163q-9 -14 -9 -32v-96v0zM160 409q27 -1 45 -19v0v0q18 -18 19 -45h-128v0q1 27 19 45t45 19v0
zM512 409q36 -1 55 -32q18 -32 0 -64q-19 -31 -55 -32q-36 1 -55 32q-18 32 0 64q19 31 55 32v0zM512 249q26 0 48 13v0v0q22 13 35 35q13 23 13 48t-13 48q-13 22 -35 35t-48 13t-48 -13t-35 -35q-13 -23 -13 -48t13 -48q13 -22 35 -35t48 -13v0z" />
</svg>
