<?xml version="1.0" standalone="no"?>
<!DOCTYPE svg PUBLIC "-//W3C//DTD SVG 1.1//EN" "http://www.w3.org/Graphics/SVG/1.1/DTD/svg11.dtd" >
<svg xmlns="http://www.w3.org/2000/svg" xmlns:xlink="http://www.w3.org/1999/xlink" version="1.1" viewBox="-10 -40 532 512">
   <path fill="currentColor"
d="M16 -39q-15 1 -16 16q1 15 16 16h480v0q15 -1 16 -16q-1 -15 -16 -16h-480v0zM176 121q15 1 16 16v288v0q-1 15 -16 16h-64v0q-15 -1 -16 -16v-288v0q1 -15 16 -16h64v0zM112 89q-20 1 -34 14v0v0q-13 14 -14 34v288v0q1 20 14 34q14 13 34 14h64v0q20 -1 34 -14
q13 -14 14 -34v-288v0q-1 -20 -14 -34q-14 -13 -34 -14h-64v0zM400 121q15 1 16 16v160v0q-1 15 -16 16h-64v0q-15 -1 -16 -16v-160v0q1 -15 16 -16h64v0zM336 89q-20 1 -34 14v0v0q-13 14 -14 34v160v0q1 20 14 34q14 13 34 14h64v0q20 -1 34 -14q13 -14 14 -34v-160v0
q-1 -20 -14 -34q-14 -13 -34 -14h-64v0z" />
</svg>
