<?xml version="1.0" standalone="no"?>
<!DOCTYPE svg PUBLIC "-//W3C//DTD SVG 1.1//EN" "http://www.w3.org/Graphics/SVG/1.1/DTD/svg11.dtd" >
<svg xmlns="http://www.w3.org/2000/svg" xmlns:xlink="http://www.w3.org/1999/xlink" version="1.1" viewBox="-10 -40 660 512">
   <path fill="currentColor"
d="M176 -39h-3v0v0v0q-29 2 -53 17q-23 15 -38 41l-66 121v0q-16 29 -16 61v128v0q1 20 14 34q14 13 34 14h32v0q20 -1 34 -14q13 -14 14 -34v-80v0v-48v0l32 -58v0v106v0h32v0v-167v0q-1 -11 -10 -15q-11 -3 -18 5q-3 3 -5 7l-59 107v0q-4 7 -4 15v128v0q-1 15 -16 16h-32
v0q-15 -1 -16 -16v-128v0q0 -24 12 -46l66 -121v0q23 -38 67 -41h1h52v0l72 144v0l-56 112v0h36v0l52 -105v0l76 -151v0h52v0h1v0q44 3 67 42l66 120v0q12 22 12 47v127v0q-1 15 -16 16h-32v0q-15 -1 -16 -16v-128v0q0 -8 -4 -15l-59 -107v0q-2 -4 -5 -7q-7 -8 -17 -5
q-10 4 -11 15v167v0h32v0v-106v0l32 59v0v47v0v80v0q1 20 14 34q14 13 34 14h32v0q20 -1 34 -14q14 -14 14 -34v-128v0q0 -32 -16 -61l-66 -121v0q-14 -26 -38 -41t-53 -17h-3h-64h-224zM266 -7h108h-108h108l-54 108v0l-54 -108v0zM448 345v72v-72v72q-2 22 -24 24h-208v0
q-22 -2 -24 -24v-72v0h-32v0v72v0q1 24 16 40q16 15 40 16h208v0q24 -1 40 -16q15 -16 16 -40v-72v0h-32v0zM144 297q1 15 16 16h130v0l-47 71v0q-7 13 4 22q13 7 22 -4l51 -76v0l51 76v0q9 11 22 4q11 -9 4 -22l-47 -71v0h130v0q15 -1 16 -16q-1 -15 -16 -16h-160h-160
q-15 1 -16 16v0z" />
</svg>
