<?xml version="1.0" standalone="no"?>
<!DOCTYPE svg PUBLIC "-//W3C//DTD SVG 1.1//EN" "http://www.w3.org/Graphics/SVG/1.1/DTD/svg11.dtd" >
<svg xmlns="http://www.w3.org/2000/svg" xmlns:xlink="http://www.w3.org/1999/xlink" version="1.1" viewBox="-10 -40 468 512">
   <path fill="currentColor"
d="M96 25q1 22 21 30q10 4 11 15v35v0h192v0v-35v0q1 -11 11 -15q20 -8 21 -30q0 -14 -9 -23t-23 -9t-23 9t-9 23q-1 15 -16 16q-15 -1 -16 -16q0 -14 -9 -23t-23 -9t-23 9t-9 23q-1 15 -16 16q-15 -1 -16 -16q0 -14 -9 -23t-23 -9t-23 9t-9 23v0zM128 -39q30 1 48 22
q18 -21 48 -22q30 1 48 22q18 -21 48 -22q27 1 45 19t19 45q-2 37 -32 55v41v0v16v0q-1 54 -37 91q-37 36 -91 37q-54 -1 -91 -37q-36 -37 -37 -91v-16v0v-41v0q-30 -18 -32 -55q1 -27 19 -45t45 -19v0zM224 233q41 -1 68 -28v0v0q27 -27 28 -68h-192v0q1 41 28 68t68 28v0z
M112 334q-1 11 -11 15q-31 9 -50 34q-18 25 -19 58h96v0v-43v0q1 -30 28 -44l33 -15v0l-77 -37v0v32v0zM160 441h256h-256h256q-1 -33 -19 -58q-19 -25 -50 -34q-10 -4 -11 -15v-28v0l-167 77v0q-9 4 -9 14v44v0zM337 270l-1 -3l1 3l-1 -3q4 -2 9 -2q21 2 23 23v34v0
q36 15 57 47q22 31 23 72q0 14 -9 23t-23 9h-384v0q-14 0 -23 -9t-9 -23q1 -41 22 -72q22 -32 58 -47v-34v0q2 -21 23 -23q4 0 9 2l112 52v0l112 -52v0l1 3v0zM240 377q15 1 16 16q-1 15 -16 16q-15 -1 -16 -16q1 -15 16 -16v0zM288 393q1 -15 16 -16q15 1 16 16
q-1 15 -16 16q-15 -1 -16 -16v0z" />
</svg>
