<?xml version="1.0" standalone="no"?>
<!DOCTYPE svg PUBLIC "-//W3C//DTD SVG 1.1//EN" "http://www.w3.org/Graphics/SVG/1.1/DTD/svg11.dtd" >
<svg xmlns="http://www.w3.org/2000/svg" xmlns:xlink="http://www.w3.org/1999/xlink" version="1.1" viewBox="-10 -40 660 512">
   <path fill="currentColor"
d="M168 25v64v-64v64h72h104v-64v0h-176v0zM136 25h-40h40h-40q-14 0 -23 9t-9 23v32v0h72v0v-64v0zM64 121v80v-80v80h72h104v-80v0h-176v0zM64 313h72h-72h72v-80v0h-72v0v80v0zM64 345v32v-32v32q0 14 9 23t23 9h144v0v-64v0h-72h-104zM168 313h120h-120h120q0 16 3 32
h-19v0v64v0h42v0q10 17 24 32h-242v0q-27 -1 -45 -19t-19 -45v-320v0q1 -27 19 -45t45 -19h320v0q27 1 45 19t19 45v49v0q-2 -3 -5 -5q-12 -10 -27 -12v-32v0q0 -14 -9 -23t-23 -9h-40v0v64v0v32v0h-104v0v80v0h55v0l-1 1q0 1 -1 2q-9 14 -16 29h-141v0v80v0zM447 154
q-34 30 -64 72q-30 44 -31 87q1 52 34 87q-2 -8 -2 -16q1 -29 17 -55q17 -26 37 -45q21 -20 33 -29q9 -6 18 0q12 9 33 29q20 19 37 45q16 26 17 55q0 8 -1 16q32 -35 33 -87q-1 -35 -22 -72q-21 -36 -47 -61l-21 24v0q-5 5 -12 5t-12 -5l-47 -50v0zM480 441h7q26 -3 41 -20
q16 -16 16 -37q-1 -27 -27 -59q-20 -22 -37 -36q-17 14 -37 36q-26 32 -27 59q0 21 16 37q15 17 41 20h7v0zM320 313q3 -57 37 -104q33 -48 71 -80q19 -16 39 0v0h1l38 40v0l12 -13v0q0 -1 1 -1v-1q20 -15 40 0q31 29 55 71t26 88q-2 66 -44 110q-42 45 -107 50h-9h-9
q-65 -5 -107 -50q-43 -44 -44 -110v0z" />
</svg>
