<?xml version="1.0" standalone="no"?>
<!DOCTYPE svg PUBLIC "-//W3C//DTD SVG 1.1//EN" "http://www.w3.org/Graphics/SVG/1.1/DTD/svg11.dtd" >
<svg xmlns="http://www.w3.org/2000/svg" xmlns:xlink="http://www.w3.org/1999/xlink" version="1.1" viewBox="-10 -40 468 512">
   <path fill="currentColor"
d="M64 25q-14 0 -23 9v0v0q-9 9 -9 23v320v0q0 14 9 23t23 9h320v0q14 0 23 -9t9 -23v-320v0q0 -14 -9 -23t-23 -9h-320v0zM0 57q1 -27 19 -45v0v0q18 -18 45 -19h320v0q27 1 45 19t19 45v320v0q-1 27 -19 45t-45 19h-320v0q-27 -1 -45 -19t-19 -45v-320v0zM88 57
q22 2 24 24q-2 22 -24 24q-22 -2 -24 -24q2 -22 24 -24v0zM336 81q2 -22 24 -24q22 2 24 24q-2 22 -24 24q-22 -2 -24 -24v0zM88 329q22 2 24 24q-2 22 -24 24q-22 -2 -24 -24q2 -22 24 -24v0zM336 353q2 -22 24 -24q22 2 24 24q-2 22 -24 24q-22 -2 -24 -24v0zM137 139
q5 -19 20 -30v0v0q14 -12 34 -12h57v0q27 1 45 19t19 45q-1 39 -35 58l-37 18v0v20v0q-1 15 -16 16q-15 -1 -16 -16v-29v0q0 -10 9 -15l46 -23v0q16 -10 17 -29q0 -14 -9 -23t-23 -9h-57v0q-18 1 -23 18v0v0q-6 14 -20 12q-14 -5 -11 -20v0v0zM200 321q2 -22 24 -24
q22 2 24 24q-2 22 -24 24q-22 -2 -24 -24v0z" />
</svg>
