<?xml version="1.0" standalone="no"?>
<!DOCTYPE svg PUBLIC "-//W3C//DTD SVG 1.1//EN" "http://www.w3.org/Graphics/SVG/1.1/DTD/svg11.dtd" >
<svg xmlns="http://www.w3.org/2000/svg" xmlns:xlink="http://www.w3.org/1999/xlink" version="1.1" viewBox="-10 -40 404 512">
   <path fill="currentColor"
d="M320 -7q14 0 23 9v0v0q9 9 9 23v384v0q0 14 -9 23t-23 9h-256v0q-14 0 -23 -9t-9 -23v-384v0q0 -14 9 -23t23 -9h256v0zM64 -39q-27 1 -45 19v0v0q-18 18 -19 45v384v0q1 27 19 45t45 19h256v0q27 -1 45 -19t19 -45v-384v0q-1 -27 -19 -45t-45 -19h-256v0zM208 293
q11 4 24 4q31 -1 51 -21t21 -51q-2 -45 -40 -64q-1 -31 -21 -51q-21 -20 -51 -21q-30 1 -51 21q-20 20 -21 51q-38 19 -40 64q1 31 21 51t51 21q13 0 24 -4v20v0h-16v0q-15 1 -16 16q1 15 16 16h64v0q15 -1 16 -16q-1 -15 -16 -16h-16v0v-20v0zM152 161q0 -17 12 -28v0v0
q11 -12 28 -12t28 12q12 11 12 28q0 4 -1 7q-1 14 12 19q27 9 29 38q0 17 -12 28q-11 12 -28 12t-29 -12q-4 -5 -11 -5t-11 5q-12 12 -29 12t-28 -12q-12 -11 -12 -28q2 -29 29 -38q13 -5 12 -19q-1 -3 -1 -7v0z" />
</svg>
