<?xml version="1.0" standalone="no"?>
<!DOCTYPE svg PUBLIC "-//W3C//DTD SVG 1.1//EN" "http://www.w3.org/Graphics/SVG/1.1/DTD/svg11.dtd" >
<svg xmlns="http://www.w3.org/2000/svg" xmlns:xlink="http://www.w3.org/1999/xlink" version="1.1" viewBox="-10 -40 404 512">
   <path fill="currentColor"
d="M64 -7q-14 0 -23 9v0v0q-9 9 -9 23v384v0q0 14 9 23t23 9h256v0q14 0 23 -9t9 -23v-384v0q0 -14 -9 -23t-23 -9h-256v0zM0 25q1 -27 19 -45v0v0q18 -18 45 -19h256v0q27 1 45 19t19 45v384v0q-1 27 -19 45t-45 19h-256v0q-27 -1 -45 -19t-19 -45v-384v0zM181 93
q11 -9 22 0l34 34v0l60 60v0q19 20 19 45q0 26 -19 45t-44 19q-25 1 -45 -17v34v0h16v0q15 1 16 16q-1 15 -16 16h-64v0q-15 -1 -16 -16q1 -15 16 -16h16v0v-34v0q-20 17 -45 17t-44 -19t-19 -45q0 -25 19 -45l60 -60v0l34 -34v0zM192 127l-23 23l23 -23l-23 23l-59 59v0
q-10 10 -10 23t10 23q10 9 22 9q13 0 23 -9l26 -26v0q5 -5 11 -5q7 0 11 5l26 26v0q10 9 23 9t23 -9q9 -10 9 -23t-9 -23l-60 -59v0l-23 -23v0z" />
</svg>
