<?xml version="1.0" standalone="no"?>
<!DOCTYPE svg PUBLIC "-//W3C//DTD SVG 1.1//EN" "http://www.w3.org/Graphics/SVG/1.1/DTD/svg11.dtd" >
<svg xmlns="http://www.w3.org/2000/svg" xmlns:xlink="http://www.w3.org/1999/xlink" version="1.1" viewBox="-11 0 661 512">
   <path fill="currentColor"
d="M202 429q13 17 32 9h1l192 -111v0l1 -1q17 -12 8 -32l-167 -289v0q-13 -18 -33 -9l-192 111v0q-18 13 -9 33v0v0l167 289v0v0v0v0zM175 446v-1v0v0h-1l-166 -289v0h-1v-1q-11 -20 -5 -42q6 -21 26 -33l193 -111v0q20 -12 42 -6q21 6 34 26l167 289v0q11 21 5 42
q-5 22 -25 34h-1v0l-192 111v0l-1 1v0q-20 11 -42 5q-21 -5 -33 -25v0zM360 473q-21 0 -36 -13l33 -19v0h3h224v0q22 -2 24 -24v-336v0q-2 -22 -24 -24h-211v0l-18 -32v0h5h224v0q24 1 40 16q15 16 16 40v336v0q-1 24 -16 40q-16 15 -40 16h-224v0zM469 124v0v0v0v0v0
q-10 11 -1 22v0v0l36 37v0l36 -37v0v0v0q9 -11 -1 -22q-9 -7 -19 2l-4 4v0q-5 5 -12 5t-12 -5l-4 -4v0q-10 -9 -19 -2v0zM448 100q13 -11 28 -11v0v0q15 0 28 8q13 -8 28 -8t28 11v0v0v0v0q15 14 16 34q1 19 -13 34v0v0l-42 44v0h-1v0v0v0q-16 14 -33 0l-42 -44v0v0v0
q-14 -15 -13 -35q1 -19 16 -33v0zM252 301l48 -27l-48 27l48 -27q14 -7 22 6q6 13 -6 21l-48 28v0q-13 6 -22 -6q-6 -13 6 -22v0zM225 261l6 -27l-6 27l6 -27q2 -7 8 -10q6 -4 12 -2l28 8v0q22 4 30 -13v0v0q3 -11 -2 -21t-16 -13v0v0l-90 -26v0l-23 91v0v0v0q-2 11 4 20
q5 9 17 12q18 2 26 -19v0zM256 269q-6 22 -23 34v0v0q-18 12 -40 9h-1v0v0v0q-25 -6 -38 -27q-12 -20 -7 -45l27 -107v0q1 -6 7 -10q6 -3 13 -1l106 30v0v0v0q24 8 35 29q12 22 4 46q-9 22 -29 31q-20 8 -40 3v0v0v0v0l-11 -3v0l-3 11v0v0v0v0z" />
</svg>
