<?xml version="1.0" standalone="no"?>
<!DOCTYPE svg PUBLIC "-//W3C//DTD SVG 1.1//EN" "http://www.w3.org/Graphics/SVG/1.1/DTD/svg11.dtd" >
<svg xmlns="http://www.w3.org/2000/svg" xmlns:xlink="http://www.w3.org/1999/xlink" version="1.1" viewBox="-10 -40 597 512">
   <path fill="currentColor"
d="M0 -23q1 -15 16 -16h38v0q17 0 30 11q13 10 17 27l44 218v0h322v0q23 -1 31 -24l47 -188v0q4 -14 19 -11q14 4 12 19l-47 188v0q-6 21 -23 34q-17 14 -39 14h-315v0l8 38v0q6 24 31 26h305v0q15 1 16 16q-1 15 -16 16h-305v0q-23 0 -40 -14t-22 -37l-59 -288v0
q-4 -12 -16 -13h-38v0q-15 -1 -16 -16v0zM192 441q22 -2 24 -24q-2 -22 -24 -24q-22 2 -24 24q2 22 24 24v0zM192 361q32 1 48 28q16 28 0 56q-16 27 -48 28q-32 -1 -48 -28q-16 -28 0 -56q16 -27 48 -28v0zM472 417q-2 -22 -24 -24q-22 2 -24 24q2 22 24 24q22 -2 24 -24v0
zM392 417q1 -32 28 -48q28 -16 56 0q27 16 28 48q-1 32 -28 48q-28 16 -56 0q-27 -16 -28 -48v0zM304 169v-121v121v-121l-37 36v0q-11 10 -22 0q-10 -11 0 -22l64 -64v0q11 -10 22 0l64 64v0q10 11 0 22q-11 10 -22 0l-37 -36v0v121v0q-1 15 -16 16q-15 -1 -16 -16v0z" />
</svg>
