<?xml version="1.0" standalone="no"?>
<!DOCTYPE svg PUBLIC "-//W3C//DTD SVG 1.1//EN" "http://www.w3.org/Graphics/SVG/1.1/DTD/svg11.dtd" >
<svg xmlns="http://www.w3.org/2000/svg" xmlns:xlink="http://www.w3.org/1999/xlink" version="1.1" viewBox="-10 -40 522 512">
   <path fill="currentColor"
d="M160 41q-1 -27 -24 -42q-24 -12 -48 0q-23 15 -24 42q1 27 24 42q24 12 48 0q23 -15 24 -42v0zM192 41q-1 30 -18 51v0v0q-18 21 -46 27v196v0q28 6 46 27q17 21 18 51q-1 34 -23 57q-23 22 -57 23q-34 -1 -57 -23q-22 -23 -23 -57q1 -30 18 -51q18 -21 46 -27v-196v0
q-28 -6 -46 -27q-17 -21 -18 -51q1 -34 23 -57q23 -22 57 -23q34 1 57 23q22 23 23 57v0zM64 393q1 27 24 42q24 12 48 0q23 -15 24 -42q-1 -27 -24 -42q-24 -12 -48 0q-23 15 -24 42v0zM400 441q27 -1 42 -24q12 -24 0 -48q-15 -23 -42 -24q-27 1 -42 24q-12 24 0 48
q15 23 42 24v0zM384 315v-146v146v-146q1 -15 16 -16q15 1 16 16v146v0q28 6 46 27q17 21 18 51q-1 34 -23 57q-23 22 -57 23q-34 -1 -57 -23q-22 -23 -23 -57q1 -30 18 -51q18 -21 46 -27v0zM333 -26q11 -10 22 0l45 44v0l45 -44v0q11 -10 22 0q10 11 0 22l-44 45v0l44 45
v0q10 11 0 22q-11 10 -22 0l-45 -44v0l-45 44v0q-11 10 -22 0q-10 -11 0 -22l44 -45v0l-44 -45v0q-10 -11 0 -22v0z" />
</svg>
