<?xml version="1.0" standalone="no"?>
<!DOCTYPE svg PUBLIC "-//W3C//DTD SVG 1.1//EN" "http://www.w3.org/Graphics/SVG/1.1/DTD/svg11.dtd" >
<svg xmlns="http://www.w3.org/2000/svg" xmlns:xlink="http://www.w3.org/1999/xlink" version="1.1" viewBox="-10 -40 532 512">
   <path fill="currentColor"
d="M112 -7q-30 1 -51 18v0v0q-21 18 -27 46h97v0q6 0 11 -5l7 -6v0q11 -10 22 0q10 11 0 22l-6 7v0q-15 14 -34 14h-99v0v20v0q1 18 16 28l79 45v0q28 -23 65 -28v-49v0q1 -15 16 -16q15 1 16 16v48v0h64v0v-48v0q1 -15 16 -16q15 1 16 16v49v0q37 5 65 28l79 -45v0
q15 -10 16 -28v-20v0h-99v0q-19 0 -34 -14l-6 -7v0q-9 -11 0 -22q11 -10 22 0l7 6v0q5 5 11 5h97v0q-6 -28 -27 -46q-21 -17 -51 -18h-16v0l26 19v0q11 10 3 23q-10 11 -23 3l-64 -48v0q-8 -7 -5 -18q4 -11 15 -11h64v0q48 1 79 33q32 31 33 79v36v0q-1 37 -32 56l-72 41v0
q9 12 15 27h37v0l29 -14v0q13 -6 21 7q6 14 -7 21l-32 16v0q-3 2 -7 2h-33v0q1 8 1 16v8v0l22 9v0q3 2 5 4l32 32v0q10 11 0 22q-11 10 -22 0l-30 -29v0l-26 -11v0l-31 31v0l40 15v0q3 1 5 4l32 32v0q10 11 0 22q-11 9 -22 0l-30 -29v0l-50 -19v0l-15 15v0l35 25v0q7 5 7 13
v32v0q-1 15 -16 16q-15 -1 -16 -16v-24v0l-34 -24v0h-124v0l-34 24v0v24v0q-1 15 -16 16q-15 -1 -16 -16v-32v0q0 -8 7 -13l35 -25v0l-15 -15v0l-50 19v0l-30 29v0q-11 10 -22 0q-10 -11 0 -22l32 -32v0q2 -3 5 -4l40 -15v0l-31 -31v0l-26 11v0l-30 29v0q-11 10 -22 0
q-10 -11 0 -22l32 -32v0q2 -2 5 -4l22 -9v0v-8v0q0 -8 1 -16h-33v0q-4 0 -7 -2l-32 -16v0q-13 -8 -7 -21q7 -13 21 -7l29 14v0h37v0q6 -15 15 -27l-72 -41v0q-31 -19 -32 -56v-36v0q1 -48 33 -79q31 -32 79 -33h64v0q11 1 15 11q3 11 -5 18l-64 48v0q-13 8 -23 -3
q-8 -13 3 -23l26 -19v0h-16v0zM304 185h-96h96h-96q-41 1 -68 28t-28 68v3v0l93 93v0h102v0l93 -93v0v-3v0q-1 -41 -28 -68t-68 -28v0z" />
</svg>
