<?xml version="1.0" standalone="no"?>
<!DOCTYPE svg PUBLIC "-//W3C//DTD SVG 1.1//EN" "http://www.w3.org/Graphics/SVG/1.1/DTD/svg11.dtd" >
<svg xmlns="http://www.w3.org/2000/svg" xmlns:xlink="http://www.w3.org/1999/xlink" version="1.1" viewBox="-10 -40 404 512">
   <path fill="currentColor"
d="M192 -39q-9 0 -14 9q-4 8 1 16l11 16v0q2 4 2 8q-1 14 -15 15h-61v0q-29 1 -48 20t-20 48q0 17 8 32q-25 8 -40 28q-16 21 -16 48q0 25 13 44q13 20 35 29v39v0q0 17 10 30q10 12 26 16l9 72v0q2 18 15 30q14 12 32 12h104v0q18 0 32 -12q13 -12 15 -30l9 -72v0
q16 -4 26 -16q10 -13 10 -30v-39v0q22 -9 35 -29q13 -19 13 -44q-1 -28 -17 -49t-43 -28q12 -19 12 -42q-1 -51 -35 -86q-35 -34 -86 -35h-23v0zM304 249h-224h224h-224q-20 -1 -34 -14q-13 -14 -14 -34q1 -20 14 -34q14 -13 34 -14h8h24q15 -1 16 -16q-1 -15 -16 -16h-19v0
q-12 -10 -13 -28q0 -15 11 -25q10 -11 25 -11h61v0q20 0 33 -14q14 -13 14 -33q0 -9 -3 -17q36 3 59 28t24 61q-1 25 -21 39h-43v0q-15 1 -16 16q1 15 16 16h48v0v0v0h16v0q20 1 34 14q13 14 14 34q-1 20 -14 34q-14 13 -34 14v0zM80 281h224h-224h224v32v0q-1 15 -16 16h-2
v0q-13 1 -16 14l-10 84v0q-3 13 -16 14h-104v0q-13 -1 -16 -14l-10 -84v0q-3 -13 -16 -14h-2v0q-15 -1 -16 -16v-32v0z" />
</svg>
