<?xml version="1.0" standalone="no"?>
<!DOCTYPE svg PUBLIC "-//W3C//DTD SVG 1.1//EN" "http://www.w3.org/Graphics/SVG/1.1/DTD/svg11.dtd" >
<svg xmlns="http://www.w3.org/2000/svg" xmlns:xlink="http://www.w3.org/1999/xlink" version="1.1" viewBox="-10 -40 532 512">
   <path fill="currentColor"
d="M262 -5q-6 -4 -12 0l-216 216v0q-4 6 0 12l216 216v0q6 4 12 0l216 -216v0q4 -6 0 -12l-216 -216v0zM228 -27q12 -12 28 -12v0v0q16 0 28 12l216 216v0q12 12 12 28t-12 28l-216 216v0q-12 12 -28 12t-28 -12l-216 -216v0q-12 -12 -12 -28t12 -28l216 -216v0zM256 89
q15 1 16 16v128v0q-1 15 -16 16q-15 -1 -16 -16v-128v0q1 -15 16 -16v0zM232 313q2 -22 24 -24q22 2 24 24q-2 22 -24 24q-22 -2 -24 -24v0z" />
</svg>
