<?xml version="1.0" standalone="no"?>
<!DOCTYPE svg PUBLIC "-//W3C//DTD SVG 1.1//EN" "http://www.w3.org/Graphics/SVG/1.1/DTD/svg11.dtd" >
<svg xmlns="http://www.w3.org/2000/svg" xmlns:xlink="http://www.w3.org/1999/xlink" version="1.1" viewBox="-10 -40 532 512">
   <path fill="currentColor"
d="M256 -7q61 1 112 30v0v0q51 30 82 82q30 53 30 112t-30 112q-31 52 -82 82q-51 29 -112 30q-61 -1 -112 -30q-51 -30 -82 -82q-30 -53 -30 -112t30 -112q31 -52 82 -82q51 -29 112 -30v0zM256 473q70 -1 128 -34v0v0q58 -34 94 -94q34 -61 34 -128t-34 -128
q-36 -60 -94 -94q-58 -33 -128 -34q-70 1 -128 34q-58 34 -94 94q-34 61 -34 128t34 128q36 60 94 94q58 33 128 34v0zM184 169h-80h80h-80v-16v0q0 -17 12 -28q11 -12 28 -12h1v0q-1 4 -1 8q2 22 24 24q8 0 14 -4q2 5 2 12v16v0zM144 81q-31 1 -51 21v0v0q-20 20 -21 51v16
v0q0 14 9 23t23 9h80v0q14 0 23 -9t9 -23v-16v0q-1 -31 -21 -51t-51 -21v0zM380 134q4 9 4 19v16v0h-96v0v-16v0q1 -20 14 -34q14 -13 34 -14h6q-6 7 -6 16q2 22 24 24q13 0 20 -11v0zM256 153v18v-18v18q0 13 9 21q8 9 21 9h100v0q13 0 21 -9q9 -8 9 -21v-18v0
q-1 -34 -23 -57q-23 -22 -57 -23q-34 1 -57 23q-22 23 -23 57v0zM261 377h-13h13h-13h-6q6 -21 23 -34q16 -14 39 -14q24 0 42 16q-4 4 -9 7q-33 24 -76 25v0zM210 373q-39 -10 -66 -39v0v0q-28 -29 -36 -69h281v0q-5 31 -22 56q-26 -23 -63 -24q-35 1 -61 22q-25 21 -33 54
v0zM356 378q57 -42 65 -116q1 -12 -7 -20q-7 -9 -19 -9h-302v0q-19 2 -19 21q7 67 55 110q47 44 115 45h4h17q53 -1 91 -31v0z" />
</svg>
