<?xml version="1.0" standalone="no"?>
<!DOCTYPE svg PUBLIC "-//W3C//DTD SVG 1.1//EN" "http://www.w3.org/Graphics/SVG/1.1/DTD/svg11.dtd" >
<svg xmlns="http://www.w3.org/2000/svg" xmlns:xlink="http://www.w3.org/1999/xlink" version="1.1" viewBox="-10 -40 586 512">
   <path fill="currentColor"
d="M257 -7l60 33l-60 -33l60 33q18 10 38 7l52 -6v0l17 -18v0q8 -6 16 -11q-9 -6 -21 -4l-68 8v0q-10 1 -19 -4l-60 -33v0q-21 -10 -38 6l-47 50v0q-7 7 -17 9l-68 14v0q-23 6 -25 29l-4 69v0q-1 10 -7 18l-43 53v0q-14 19 -1 39l41 55v0q6 8 7 19l1 41v0q4 -8 10 -13
l21 -22v0v-7v0q-1 -21 -13 -37l-41 -55v0l43 -53v0q13 -16 14 -37l4 -68v0l67 -13v0q20 -4 34 -19l47 -50v0zM427 98l36 -37l-36 37l36 -37q47 60 49 140q-1 67 -33 121t-86 86t-121 33q-80 -2 -140 -49l80 -79v0l86 -86v0l86 -86v0l43 -43v0zM483 34q-7 -8 -18 -9
q-10 0 -18 7l-43 43v0l-43 43v0l-86 86v0l-86 86v0l-86 86v0q-7 8 -7 18q1 11 9 18q34 27 76 44t91 17q76 -1 137 -37q62 -36 98 -98q36 -61 37 -137q0 -49 -17 -91t-44 -76v0zM272 377q15 -1 16 -16q-1 -15 -16 -16q-15 1 -16 16q1 15 16 16v0zM352 361q-1 -15 -16 -16
q-15 1 -16 16q1 15 16 16q15 -1 16 -16v0zM304 313q15 -1 16 -16q-1 -15 -16 -16q-15 1 -16 16q1 15 16 16v0zM232 105q-51 1 -85 35v0v0q-34 34 -35 85q1 42 24 73l23 -23v0q-15 -22 -15 -50q1 -37 26 -62t62 -26q28 0 50 15l22 -23v0q-30 -23 -72 -24v0z" />
</svg>
