<?xml version="1.0" standalone="no"?>
<!DOCTYPE svg PUBLIC "-//W3C//DTD SVG 1.1//EN" "http://www.w3.org/Graphics/SVG/1.1/DTD/svg11.dtd" >
<svg xmlns="http://www.w3.org/2000/svg" xmlns:xlink="http://www.w3.org/1999/xlink" version="1.1" viewBox="-10 -40 650 512">
   <path fill="currentColor"
d="M96 217q1 -63 31 -113v0v0q29 -51 80 -80v0v0q50 -30 113 -31q63 1 113 31q51 29 80 80q30 50 31 113v96v0h-32v0q-15 1 -16 16q1 15 16 16h2v0l12 96v0q-13 3 -14 16q1 15 16 16h2h62q15 -1 16 -16q-1 -13 -14 -16l12 -96v0h2v0q15 -1 16 -16q-1 -15 -16 -16h-32v0v-96
v0q-1 -72 -35 -129q-34 -58 -92 -92q-57 -34 -129 -35q-72 1 -129 35q-58 34 -92 92q-34 57 -35 129q1 72 35 129q34 58 92 92q57 34 129 35q88 -1 154 -51q11 -10 3 -23q-10 -10 -23 -3q-57 44 -134 45q-63 -1 -113 -31q-51 -29 -80 -80q-30 -50 -31 -113v0zM574 345
l-12 96l12 -96l-12 96h-4v0l-12 -96v0h14h14zM464 217q0 39 -19 72v0v0q-19 33 -53 53q-34 19 -72 19t-72 -19q-34 -20 -53 -53t-19 -72t19 -72t53 -53q34 -19 72 -19t72 19q34 20 53 53t19 72v0zM320 41q-48 0 -88 24v0v0q-40 23 -64 64q-24 42 -24 88t24 88q24 41 64 64
q40 24 88 24t88 -24q40 -23 64 -64q24 -42 24 -88t-24 -88q-24 -41 -64 -64q-40 -24 -88 -24v0zM320 281q-36 -1 -55 -32q-18 -32 0 -64q19 -31 55 -32q36 1 55 32q18 32 0 64q-19 31 -55 32v0zM224 217q0 26 13 48v0v0q13 22 35 35q23 13 48 13t48 -13q22 -13 35 -35
t13 -48t-13 -48t-35 -35q-23 -13 -48 -13t-48 13q-22 13 -35 35t-13 48v0z" />
</svg>
