<?xml version="1.0" standalone="no"?>
<!DOCTYPE svg PUBLIC "-//W3C//DTD SVG 1.1//EN" "http://www.w3.org/Graphics/SVG/1.1/DTD/svg11.dtd" >
<svg xmlns="http://www.w3.org/2000/svg" xmlns:xlink="http://www.w3.org/1999/xlink" version="1.1" viewBox="-10 -40 660 512">
   <path fill="currentColor"
d="M55 -5q-13 -6 -21 7q-6 14 7 21l64 32v0q14 6 21 -7q6 -13 -7 -21l-64 -32v0zM599 23q13 -8 7 -21q-7 -13 -21 -7l-64 32v0q-13 7 -7 21q7 13 21 7l64 -32v0zM16 153q-15 1 -16 16q1 15 16 16h64v0q15 -1 16 -16q-1 -15 -16 -16h-64v0zM560 153q-15 1 -16 16q1 15 16 16
h64v0q15 -1 16 -16q-1 -15 -16 -16h-64v0zM448 153v128v-128v128h32v0v-128v0q-2 -68 -47 -113t-113 -47q-68 2 -113 47t-47 113v128v0h32v0v-128v0q1 -54 37 -91q37 -36 91 -37q54 1 91 37q36 37 37 91v0zM128 361q1 -15 16 -16h352v0q15 1 16 16v32v0q-1 15 -16 16h-352v0
q-15 -1 -16 -16v-32v0zM96 361v32v-32v32q1 20 14 34q14 13 34 14h352v0q20 -1 34 -14q13 -14 14 -34v-32v0q-1 -20 -14 -34q-14 -13 -34 -14h-352v0q-20 1 -34 14q-13 14 -14 34v0zM320 89q15 -1 16 -16q-1 -15 -16 -16q-41 1 -68 28t-28 68q1 15 16 16q15 -1 16 -16
q1 -27 19 -45t45 -19v0z" />
</svg>
