<?xml version="1.0" standalone="no"?>
<!DOCTYPE svg PUBLIC "-//W3C//DTD SVG 1.1//EN" "http://www.w3.org/Graphics/SVG/1.1/DTD/svg11.dtd" >
<svg xmlns="http://www.w3.org/2000/svg" xmlns:xlink="http://www.w3.org/1999/xlink" version="1.1" viewBox="-10 -40 468 512">
   <path fill="currentColor"
d="M128 89v64v-64v64h192v0v-64v0q-1 -41 -28 -68t-68 -28q-41 1 -68 28t-28 68v0zM96 153v-64v64v-64q1 -54 37 -91q37 -36 91 -37q54 1 91 37q36 37 37 91v64v0h16v0q34 1 57 23q22 23 23 57v160v0q-1 34 -23 57q-23 22 -57 23h-288v0q-34 -1 -57 -23q-22 -23 -23 -57
v-160v0q1 -34 23 -57q23 -22 57 -23h16v0zM32 233v160v-160v160q1 20 14 34q14 13 34 14h288v0q20 -1 34 -14q13 -14 14 -34v-160v0q-1 -20 -14 -34q-14 -13 -34 -14h-288v0q-20 1 -34 14q-13 14 -14 34v0zM176 201q15 1 16 16v32v0h64v0v-32v0q1 -15 16 -16q15 1 16 16v32
v0h32v0q15 1 16 16q-1 15 -16 16h-32v0v64v0h32v0q15 1 16 16q-1 15 -16 16h-32v0v32v0q-1 15 -16 16q-15 -1 -16 -16v-32v0h-64v0v32v0q-1 15 -16 16q-15 -1 -16 -16v-32v0h-32v0q-15 -1 -16 -16q1 -15 16 -16h32v0v-64v0h-32v0q-15 -1 -16 -16q1 -15 16 -16h32v0v-32v0
q1 -15 16 -16v0zM192 345h64h-64h64v-64v0h-64v0v64v0z" />
</svg>
