<?xml version="1.0" standalone="no"?>
<!DOCTYPE svg PUBLIC "-//W3C//DTD SVG 1.1//EN" "http://www.w3.org/Graphics/SVG/1.1/DTD/svg11.dtd" >
<svg xmlns="http://www.w3.org/2000/svg" xmlns:xlink="http://www.w3.org/1999/xlink" version="1.1" viewBox="-10 -40 404 512">
   <path fill="currentColor"
d="M64 441h256h-256h256q14 0 23 -9t9 -23v-309v0q0 -14 -9 -23l-75 -75v0q-9 -9 -22 -9h-182v0q-14 0 -23 9t-9 23v384v0q0 14 9 23t23 9v0zM320 473h-256h256h-256q-27 -1 -45 -19t-19 -45v-384v0q1 -27 19 -45t45 -19h182v0q26 0 45 19l74 74v0q19 19 19 46v309v0
q-1 27 -19 45t-45 19v0z" />
</svg>
