<?xml version="1.0" standalone="no"?>
<!DOCTYPE svg PUBLIC "-//W3C//DTD SVG 1.1//EN" "http://www.w3.org/Graphics/SVG/1.1/DTD/svg11.dtd" >
<svg xmlns="http://www.w3.org/2000/svg" xmlns:xlink="http://www.w3.org/1999/xlink" version="1.1" viewBox="-10 -40 660 512">
   <path fill="currentColor"
d="M522 313q7 -14 12 -29v-2l1 -1q9 -31 9 -64t-9 -64q-5 -16 -12 -31v-1v0q-28 -58 -82 -92q-53 -35 -121 -36q-68 1 -121 36q-54 34 -81 92q-8 15 -13 32v0v0q-9 31 -9 64t9 64q5 16 12 31l1 1v0q27 58 81 92q53 35 121 36q68 -1 121 -36q53 -34 81 -92v0zM557 313
q-29 72 -92 115v0v0q-63 44 -145 45q-82 -1 -145 -45q-63 -43 -92 -115h-43v0q-17 0 -28 -12q-12 -11 -12 -28v-112v0q0 -17 12 -28q11 -12 28 -12h43v0q29 -72 92 -115q63 -44 145 -45q82 1 145 45q63 43 92 115h43v0q17 0 28 12q12 11 12 28v112v0q0 17 -12 28
q-11 12 -28 12h-43v0zM568 153q8 31 8 64t-8 64h32v0q7 -1 8 -8v-112v0q-1 -7 -8 -8h-32v0zM72 153h-32h32h-32q-7 1 -8 8v112v0q1 7 8 8h32v0q-8 -31 -8 -64t8 -64v0zM418 297q-34 -1 -58 -24q-7 -8 0 -16l96 -96v0q8 -7 16 0q23 24 24 57v3v0q-1 43 -38 66q-18 10 -38 10
h-2v0zM464 218q0 -8 -3 -17l-61 61v0q9 3 18 3h2v0q12 0 22 -6q21 -13 22 -38v-3v0zM203 164l-32 32l32 -32l-32 32q-11 10 -22 0q-10 -11 0 -22l32 -32v0q11 -10 22 0q10 11 0 22v0zM296 185q2 -22 24 -24q22 2 24 24q-2 22 -24 24q-22 -2 -24 -24v0zM416 321q22 2 24 24
q-2 22 -24 24q-22 -2 -24 -24q2 -22 24 -24v0zM235 260q-4 5 0 10l7 6v0q5 5 11 5h3h32q27 1 45 19t19 45q-1 27 -19 45t-45 19q-27 -1 -45 -19t-19 -45v-32v0v-3v0q0 -6 -5 -11l-6 -7v0q-5 -4 -10 0q-11 10 -22 0q-10 -11 0 -22l16 -16v0l16 -16v0q11 -10 22 0q10 11 0 22
v0zM320 345q0 -14 -9 -23v0v0q-9 -9 -23 -9h-16v0q-15 1 -16 16v16v0q0 14 9 23t23 9t23 -9t9 -23v0zM320 57q-33 2 -45 32h90v0q-12 -30 -45 -32v0zM240 105q1 -34 23 -57v0v0q23 -22 57 -23q34 1 57 23q22 23 23 57q-1 15 -16 16h-128v0q-15 -1 -16 -16v0z" />
</svg>
