<?xml version="1.0" standalone="no"?>
<!DOCTYPE svg PUBLIC "-//W3C//DTD SVG 1.1//EN" "http://www.w3.org/Graphics/SVG/1.1/DTD/svg11.dtd" >
<svg xmlns="http://www.w3.org/2000/svg" xmlns:xlink="http://www.w3.org/1999/xlink" version="1.1" viewBox="-10 -40 596 512">
   <path fill="currentColor"
d="M224 -7q52 0 96 26v0v0q44 25 70 70t26 96t-26 96t-70 70q-44 26 -96 26t-96 -26q-44 -25 -70 -70t-26 -96t26 -96t70 -70q44 -26 96 -26v0zM224 409q81 -2 140 -49l77 87v0q23 25 58 26q33 -1 54 -23q22 -21 23 -54q-1 -42 -36 -66l-107 -65v0q15 -37 15 -80
q-1 -63 -31 -113q-29 -51 -80 -80q-50 -30 -113 -31q-63 1 -113 31q-51 29 -80 80q-30 50 -31 113q1 63 31 113q29 51 80 80q50 30 113 31v0zM465 426l-78 -88l78 88l-78 -88q19 -20 33 -44l103 64v0q20 13 21 38q0 19 -13 32q-13 12 -32 13q-21 0 -34 -15v0zM496 409
q15 -1 16 -16q-1 -15 -16 -16q-15 1 -16 16q1 15 16 16v0zM153 63q-22 22 -25 51q-1 18 -6 37q-5 20 -13 34q-20 36 -10 73t45 58q36 20 73 10t58 -45q5 -8 17 -16q12 -7 23 -9q20 -2 37 -15q26 -21 31 -52q5 -32 -15 -60q-18 -23 -44 -29q-14 -4 -31 -14t-27 -20
q-24 -24 -56 -25t-57 22v0zM243 88q14 14 34 26q19 11 39 17q16 4 27 17q11 17 8 36q-2 19 -18 32q-11 7 -22 9q-19 2 -36 13q-17 10 -28 27q-14 23 -38 30q-25 6 -49 -7q-23 -14 -30 -38q-6 -25 7 -49q10 -19 16 -42q6 -22 7 -42q2 -17 15 -31q15 -13 34 -13t34 15v0z
M200 185q2 -22 24 -24q22 2 24 24q-2 22 -24 24q-22 -2 -24 -24v0zM280 185q-1 -32 -28 -48q-28 -16 -56 0q-27 16 -28 48q1 32 28 48q28 16 56 0q27 -16 28 -48v0z" />
</svg>
