<?xml version="1.0" standalone="no"?>
<!DOCTYPE svg PUBLIC "-//W3C//DTD SVG 1.1//EN" "http://www.w3.org/Graphics/SVG/1.1/DTD/svg11.dtd" >
<svg xmlns="http://www.w3.org/2000/svg" xmlns:xlink="http://www.w3.org/1999/xlink" version="1.1" viewBox="-10 -40 532 512">
   <path fill="currentColor"
d="M74 61q13 -10 40 -18q20 -6 47 -11q-1 5 -1 9q1 20 14 34q14 13 34 14h96v0q20 -1 34 -14q14 -14 14 -34q0 -5 -1 -9q27 5 48 11q27 8 39 18t10 12q1 2 -6 10q-9 7 -29 15q-42 16 -111 21q-19 2 -32 16q-13 13 -14 33v81v0q-1 15 -16 16q-15 -1 -16 -16v-86v0
q0 -19 -13 -31q-13 -13 -30 -15q-22 -2 -37 11q-15 14 -16 36v133v0q-1 15 -16 16q-14 -1 -16 -16v-170v0q-3 -29 -23 -43q-11 -9 -9 -11q-2 -2 10 -12v0zM200 28q26 -3 56 -3t57 3q7 4 7 13q-1 15 -16 16h-96v0q-15 -1 -16 -16q0 -9 8 -13v0zM104 13q-30 8 -49 22
q-21 13 -23 38q2 23 21 37q11 8 11 17v170v0q1 20 14 34q14 13 34 14q20 -1 34 -14q13 -14 14 -34v-133v0q2 -16 17 -16q14 4 15 15v86v0q1 20 14 34q14 13 34 14q20 -1 34 -14q13 -14 14 -34v-81v0q1 -14 16 -17q72 -5 120 -23q23 -9 38 -21q16 -13 18 -34q-2 -25 -23 -38
q-19 -13 -49 -23q-62 -18 -152 -19q-90 1 -152 20v0zM427 172q-43 14 -107 19v32v0q100 -7 154 -38q6 9 6 16q1 8 -10 20q-11 11 -43 23q-44 14 -108 19q-4 18 -14 33q54 -3 97 -13q44 -9 72 -26q6 9 6 16q1 8 -10 20q-11 11 -43 23q-65 21 -171 21q-39 0 -73 -3
q-10 18 -26 29q46 6 99 6q70 0 127 -10q56 -9 91 -29q6 8 6 15q1 8 -10 20q-11 11 -43 23q-65 21 -171 21t-171 -21q-32 -12 -43 -23q-11 -12 -10 -20q0 -7 6 -15h1v0q-7 -15 -7 -33v-24v0v-72v0v-67v0q-15 -11 -25 -31q-7 12 -7 26q0 20 13 36q-13 16 -13 36t13 36
q-13 16 -13 36t13 36q-13 16 -13 36q3 50 75 73t181 23t181 -23t75 -73q0 -20 -13 -36q13 -16 13 -36t-13 -36q13 -16 13 -36t-13 -36q13 -16 13 -36q0 -14 -7 -26q-9 18 -22 28l-2 2q-1 0 -2 1q-1 8 -13 18q-11 10 -39 20v0z" />
</svg>
