<?xml version="1.0" standalone="no"?>
<!DOCTYPE svg PUBLIC "-//W3C//DTD SVG 1.1//EN" "http://www.w3.org/Graphics/SVG/1.1/DTD/svg11.dtd" >
<svg xmlns="http://www.w3.org/2000/svg" xmlns:xlink="http://www.w3.org/1999/xlink" version="1.1" viewBox="-10 -40 532 512">
   <path fill="currentColor"
d="M64 -7q-14 0 -23 9v0v0q-9 9 -9 23v226v0q28 6 46 27q17 21 18 51v16v0q0 14 9 23t23 9t23 -9t9 -23v-32v0h-16v0q-14 0 -23 -9t-9 -23v-64v0q0 -14 9 -23t23 -9h64v0q14 0 23 9t9 23v64v0q0 14 -9 23t-23 9h-16v0v32v0q-1 27 -19 45t-45 19q-27 -1 -45 -19t-19 -45v-16
v0q-2 -33 -32 -45v125v0q0 14 9 23t23 9h384v0q14 0 23 -9t9 -23v-384v0q0 -14 -9 -23t-23 -9h-384v0zM0 25q1 -27 19 -45v0v0q18 -18 45 -19h384v0q27 1 45 19t19 45v384v0q-1 27 -19 45t-45 19h-384v0q-27 -1 -45 -19t-19 -45v-384v0zM112 41h96h-96h96q15 1 16 16
q-1 15 -16 16h-96v0q-15 -1 -16 -16q1 -15 16 -16v0zM304 41h96h-96h96q15 1 16 16q-1 15 -16 16h-96v0q-15 -1 -16 -16q1 -15 16 -16v0zM112 105h96h-96h96q15 1 16 16q-1 15 -16 16h-96v0q-15 -1 -16 -16q1 -15 16 -16v0zM304 105h96h-96h96q15 1 16 16q-1 15 -16 16h-96
v0q-15 -1 -16 -16q1 -15 16 -16v0zM208 281v-64v64v-64h-64v0v64v0h32h32zM320 217v160v-160v160h64v0v-160v0h-64v0zM288 217q0 -14 9 -23v0v0q9 -9 23 -9h64v0q14 0 23 9t9 23v160v0q0 14 -9 23t-23 9h-64v0q-14 0 -23 -9t-9 -23v-160v0z" />
</svg>
