<?xml version="1.0" standalone="no"?>
<!DOCTYPE svg PUBLIC "-//W3C//DTD SVG 1.1//EN" "http://www.w3.org/Graphics/SVG/1.1/DTD/svg11.dtd" >
<svg xmlns="http://www.w3.org/2000/svg" xmlns:xlink="http://www.w3.org/1999/xlink" version="1.1" viewBox="-11 0 661 512">
   <path fill="currentColor"
d="M298 122q7 -29 -5 -58l-23 -51v0q-6 -13 -19 -18q-12 -5 -25 1l-51 23v0q-17 7 -29 20v0v0q-12 12 -18 29v0v0v0v0q-7 17 -6 35v0v0q0 9 2 18v0v0v1v0q5 16 6 36q0 21 -7 42q-9 21 -23 36q-15 14 -29 24v0v0v0v0q-8 5 -14 12v0v0q-12 13 -19 30q-6 17 -6 34v0v0
q1 17 8 34l23 51v0q6 13 18 17q12 5 25 0q7 15 17 28l-3 1v0q-26 11 -50 1q-25 -9 -37 -34l-22 -51v0q-10 -23 -11 -46t8 -47q9 -23 25 -40q9 -9 20 -16q27 -17 40 -45q9 -30 0 -60q-3 -13 -3 -26q-1 -23 8 -46v-1v0q9 -23 25 -39q16 -17 39 -28l51 -22v0q25 -11 50 -2
q24 10 36 35l23 51v0q-5 12 -7 26q-6 29 -17 45v0zM255 211v0v0v0q-12 2 -23 7v0v0q-21 8 -38 25t-25 38v0v0q-9 20 -9 44v68v0q1 20 14 34q14 13 34 14h68v0q50 -1 83 -35v0v0q16 -16 24 -37v0v0q5 -11 7 -23v0v0v-1v0q4 -19 12 -42q9 -22 27 -41q19 -18 41 -27
q22 -8 42 -12v0v0h1v0q12 -2 23 -7v0v0q21 -8 38 -25t25 -37v0v0q9 -21 9 -45v-68v0q-1 -20 -14 -34q-14 -13 -34 -14h-68v0q-50 1 -83 35v0v0q-16 16 -24 37v0v0q-5 11 -7 23v0v0v0v0q-4 20 -12 43q-9 22 -27 41q-19 18 -41 26q-22 9 -42 13h-1v0zM382 429q-42 42 -106 44
h-68v0q-34 -1 -57 -23q-22 -23 -23 -57v-68v0q0 -30 11 -57q11 -26 32 -48q22 -21 48 -32q15 -6 30 -9q39 -5 67 -30q25 -28 30 -67q3 -15 9 -30q11 -26 31 -47q42 -42 106 -44h68v0q34 1 57 23q22 23 23 57v68v0q0 30 -11 57q-11 26 -32 48q-22 21 -48 32q-15 6 -30 9
q-39 5 -67 30q-25 28 -30 67q-3 15 -9 30q-11 26 -31 47v0zM544 70q18 1 19 19q-1 18 -19 19q-18 -1 -19 -19q1 -18 19 -19v0zM480 134q18 1 19 19q-1 18 -19 19q-11 0 -17 -9q-5 -10 0 -20q6 -9 17 -9v0zM256 358q11 0 17 9q5 10 0 20q-6 9 -17 9t-17 -9q-5 -10 0 -20
q6 -9 17 -9v0zM301 377q0 -11 9 -17q10 -5 20 0q9 6 9 17t-9 17q-10 5 -20 0q-9 -6 -9 -17v0zM544 134q18 1 19 19q-1 18 -19 19q-11 0 -17 -9q-5 -10 0 -20q6 -9 17 -9v0zM301 313q0 -11 9 -17q10 -5 20 0q9 6 9 17t-9 17q-10 5 -20 0q-9 -6 -9 -17v0z" />
</svg>
