<?xml version="1.0" standalone="no"?>
<!DOCTYPE svg PUBLIC "-//W3C//DTD SVG 1.1//EN" "http://www.w3.org/Graphics/SVG/1.1/DTD/svg11.dtd" >
<svg xmlns="http://www.w3.org/2000/svg" xmlns:xlink="http://www.w3.org/1999/xlink" version="1.1" viewBox="-10 -40 532 512">
   <path fill="currentColor"
d="M68 127q9 -20 -6 -36l-16 -16v0q-14 -15 -14 -34t14 -34q15 -14 34 -14t34 14l16 16v0q16 15 36 6q41 -20 90 -20t90 20q20 9 36 -6l16 -16v0q15 -14 34 -14t34 14q14 15 14 34t-14 34l-16 16v0q-15 16 -6 36q20 41 20 90t-20 90q-9 20 6 36l16 16v0q14 15 14 34t-14 34
q-15 14 -34 14t-34 -14l-16 -16v0q-16 -15 -36 -6q-41 20 -90 20t-90 -20q-20 -9 -36 6l-16 16v0q-15 14 -34 14t-34 -14q-14 -15 -14 -34t14 -34l16 -16v0q15 -16 6 -36q-20 -41 -20 -90t20 -90v0zM137 -16q-25 -23 -57 -23v0v0q-32 0 -57 23q-23 25 -23 57t23 57l16 16v0
q-23 47 -23 103t23 104l-16 16v0q-23 24 -23 56t23 57q25 23 57 23t57 -23l16 -16v0q47 23 103 23t104 -23l16 16v0q24 23 56 23t57 -23q23 -25 23 -57t-23 -56l-16 -16v0q23 -48 23 -104t-23 -103l16 -16v0q23 -25 23 -57t-23 -57q-25 -23 -57 -23t-56 23l-16 16v0
q-48 -23 -104 -23t-103 23l-16 -16v0zM128 217q0 -35 17 -64v0v0q17 -29 47 -47q30 -17 64 -17t64 17q30 18 47 47t17 64t-17 64t-47 47q-30 17 -64 17t-64 -17q-30 -18 -47 -47t-17 -64v0zM416 217q0 -43 -21 -80v0v0q-22 -37 -59 -59q-38 -21 -80 -21t-80 21
q-37 22 -59 59q-21 37 -21 80t21 80q22 37 59 59q38 21 80 21t80 -21q37 -22 59 -59q21 -37 21 -80v0zM96 393q-1 -15 -16 -16q-15 1 -16 16q1 15 16 16q15 -1 16 -16v0zM432 409q15 -1 16 -16q-1 -15 -16 -16q-15 1 -16 16q1 15 16 16v0zM448 41q-1 -15 -16 -16
q-15 1 -16 16q1 15 16 16q15 -1 16 -16v0zM80 57q15 -1 16 -16q-1 -15 -16 -16q-15 1 -16 16q1 15 16 16v0z" />
</svg>
