<?xml version="1.0" standalone="no"?>
<!DOCTYPE svg PUBLIC "-//W3C//DTD SVG 1.1//EN" "http://www.w3.org/Graphics/SVG/1.1/DTD/svg11.dtd" >
<svg xmlns="http://www.w3.org/2000/svg" xmlns:xlink="http://www.w3.org/1999/xlink" version="1.1" viewBox="-10 -40 660 512">
   <path fill="currentColor"
d="M32 73q-1 -15 -16 -16q-15 1 -16 16v32v0v224v0v32v0q1 15 16 16q15 -1 16 -16v-16v0h576v0v16v0q1 15 16 16q15 -1 16 -16v-32v0v-224v0v-32v0q-1 -15 -16 -16q-15 1 -16 16v16v0h-352h-224v-16v0zM608 313h-576h576h-576v-192v0h224h352v192v0z" />
</svg>
