<?xml version="1.0" standalone="no"?>
<!DOCTYPE svg PUBLIC "-//W3C//DTD SVG 1.1//EN" "http://www.w3.org/Graphics/SVG/1.1/DTD/svg11.dtd" >
<svg xmlns="http://www.w3.org/2000/svg" xmlns:xlink="http://www.w3.org/1999/xlink" version="1.1" viewBox="-11 0 533 512">
   <path fill="currentColor"
d="M257 -16q40 29 45 80v0v0q4 52 -23 103l-1 1v0v1v0q-1 1 0 2v0v0h1v0v0v0v0l1 -1v0v0v0q38 -45 86 -59q49 -13 90 14q48 37 55 96q6 59 -29 114v0v0q-43 62 -109 99q-65 37 -137 39t-135 -42l9 -13v0l-9 13v0v0v0q-61 -45 -85 -114q-23 -70 -13 -145q11 -75 53 -138v0v0
l13 9v0l-13 -9v0v0v0q37 -53 94 -68q57 -16 107 18v0zM239 10q-37 -25 -81 -14v0v0q-44 11 -75 56v0v0q-39 58 -48 125q-9 68 12 129t73 99v0v0q53 37 116 36t122 -34q58 -33 98 -90q29 -46 23 -92q-5 -47 -41 -74v0v0q-26 -18 -63 -9t-69 48q-9 11 -22 13t-24 -6
q-12 -8 -14 -21t5 -25q24 -45 19 -84q-5 -38 -31 -57v0v0v0v0z" />
</svg>
