<?xml version="1.0" standalone="no"?>
<!DOCTYPE svg PUBLIC "-//W3C//DTD SVG 1.1//EN" "http://www.w3.org/Graphics/SVG/1.1/DTD/svg11.dtd" >
<svg xmlns="http://www.w3.org/2000/svg" xmlns:xlink="http://www.w3.org/1999/xlink" version="1.1" viewBox="-10 -40 532 512">
   <path fill="currentColor"
d="M320 -39q-14 0 -23 9v0v0q-9 9 -9 23v24v0q0 14 9 23t23 9h16v0q15 1 16 16q-1 15 -16 16h-16v0q-14 0 -23 9t-9 23v24v0q0 14 9 23t23 9h32v0q1 20 14 34q14 13 34 14q20 -1 34 -14q13 -14 14 -34h32v0q14 0 23 -9t9 -23v-112v0q-1 -27 -19 -45t-45 -19h-128v0zM320 -7
h128h-128h128q14 0 23 9t9 23v112v0h-48v0q-15 1 -16 16v16v0q-1 15 -16 16q-15 -1 -16 -16v-16v0q-1 -15 -16 -16h-48v0v-24v0h16v0q20 -1 34 -14q13 -14 14 -34q-1 -20 -14 -34q-14 -13 -34 -14h-16v0v-24v0zM64 25q-27 1 -45 19v0v0q-18 18 -19 45v160v0v160v0
q1 27 19 45t45 19h160h160q27 -1 45 -19t19 -45v-144v0q0 -14 -9 -23t-23 -9h-48v0q-14 0 -23 9t-9 23v16v0q-1 15 -16 16q-15 -1 -16 -16v-16v0q0 -14 -9 -23t-23 -9h-32v0v-176v0q0 -14 -9 -23t-23 -9h-144v0zM208 57v176v-176v176h-32v0v-16v0q-1 -20 -14 -34
q-14 -13 -34 -14q-20 1 -34 14q-13 14 -14 34v16v0h-48v0v-144v0q0 -14 9 -23t23 -9h144v0zM80 265q14 0 23 -9v0v0q9 -9 9 -23v-16v0q1 -15 16 -16q15 1 16 16v16v0q0 14 9 23t23 9h32v0v32v0h-16v0q-20 1 -34 14q-13 14 -14 34q1 20 14 34q14 13 34 14h16v0v48v0h-144v0
q-14 0 -23 -9t-9 -23v-144v0h48v0zM240 393q0 -14 -9 -23v0v0q-9 -9 -23 -9h-16v0q-15 -1 -16 -16q1 -15 16 -16h16v0q14 0 23 -9t9 -23v-32v0h32v0v16v0q1 20 14 34q14 13 34 14q20 -1 34 -14q13 -14 14 -34v-16v0h48v0v144v0q0 14 -9 23t-23 9h-144v0v-48v0z" />
</svg>
