<?xml version="1.0" standalone="no"?>
<!DOCTYPE svg PUBLIC "-//W3C//DTD SVG 1.1//EN" "http://www.w3.org/Graphics/SVG/1.1/DTD/svg11.dtd" >
<svg xmlns="http://www.w3.org/2000/svg" xmlns:xlink="http://www.w3.org/1999/xlink" version="1.1" viewBox="-10 -40 522 512">
   <path fill="currentColor"
d="M437 13l-94 95l94 -95l-94 95q-37 -42 -49 -97q61 -9 143 2v0zM262 16q15 66 58 114l-64 64v0l-118 -117v0q33 -30 82 -49q20 -7 42 -12v0zM116 100l117 117l-117 -117l117 117l-64 64v0q-48 -43 -112 -58q11 -48 36 -92q10 -16 23 -31v0zM51 255q54 13 96 49l-95 94v0
q-11 -66 -1 -143v0zM75 421l94 -95l-94 95l94 -95q37 42 50 98q-62 8 -144 -3v0zM250 418q-15 -66 -58 -114l64 -64v0l118 117v0q-33 30 -82 49q-20 7 -42 12v0zM396 334l-117 -117l117 117l-117 -117l64 -64v0q48 43 112 58q-11 48 -36 92q-10 16 -23 31v0zM461 179
q-54 -13 -96 -49l95 -94v0q11 66 1 143v0zM462 -15q-156 -25 -253 13q-98 39 -143 117q-44 75 -50 159t8 150q6 21 27 25q155 25 252 -13q98 -39 143 -117q44 -75 50 -159t-8 -150q-6 -21 -26 -25v0z" />
</svg>
