<?xml version="1.0" standalone="no"?>
<!DOCTYPE svg PUBLIC "-//W3C//DTD SVG 1.1//EN" "http://www.w3.org/Graphics/SVG/1.1/DTD/svg11.dtd" >
<svg xmlns="http://www.w3.org/2000/svg" xmlns:xlink="http://www.w3.org/1999/xlink" version="1.1" viewBox="-10 -40 404 512">
   <path fill="currentColor"
d="M0 -39h32h-32h32v84v0l96 26v0v33v0l-116 -32v0q-11 -3 -12 -15v-96v0zM256 71l96 -26l-96 26l96 -26v-84v0h32v0v96v0q-1 12 -12 15l-116 32v0v-33v0zM192 -7q15 1 16 16v176v0h96v0q15 1 16 16q-1 15 -16 16h-112h-112q-15 -1 -16 -16q1 -15 16 -16h96v0v-176v0
q1 -15 16 -16v0zM144 281q15 1 16 16q-1 15 -16 16q-15 -1 -16 -16q1 -15 16 -16v0zM80 345q15 1 16 16q-1 15 -16 16q-15 -1 -16 -16q1 -15 16 -16v0zM224 297q1 -15 16 -16q15 1 16 16q-1 15 -16 16q-15 -1 -16 -16v0zM192 345q15 1 16 16q-1 15 -16 16q-15 -1 -16 -16
q1 -15 16 -16v0zM128 425q1 -15 16 -16q15 1 16 16q-1 15 -16 16q-15 -1 -16 -16v0zM240 409q15 1 16 16q-1 15 -16 16q-15 -1 -16 -16q1 -15 16 -16v0zM352 425q1 -15 16 -16q15 1 16 16q-1 15 -16 16q-15 -1 -16 -16v0zM304 345q15 1 16 16q-1 15 -16 16q-15 -1 -16 -16
q1 -15 16 -16v0zM0 425q1 -15 16 -16q15 1 16 16q-1 15 -16 16q-15 -1 -16 -16v0z" />
</svg>
