<?xml version="1.0" standalone="no"?>
<!DOCTYPE svg PUBLIC "-//W3C//DTD SVG 1.1//EN" "http://www.w3.org/Graphics/SVG/1.1/DTD/svg11.dtd" >
<svg xmlns="http://www.w3.org/2000/svg" xmlns:xlink="http://www.w3.org/1999/xlink" version="1.1" viewBox="-10 -40 468 512">
   <path fill="currentColor"
d="M384 25q14 0 23 9v0v0q9 9 9 23v320v0q0 14 -9 23t-23 9h-320v0q-14 0 -23 -9t-9 -23v-320v0q0 -14 9 -23t23 -9h320v0zM64 -7q-27 1 -45 19v0v0q-18 18 -19 45v320v0q1 27 19 45t45 19h320v0q27 -1 45 -19t19 -45v-320v0q-1 -27 -19 -45t-45 -19h-320v0zM224 89
q35 0 64 17v0v0q29 17 47 47q17 30 17 64t-17 64q-18 30 -47 47t-64 17t-64 -17t-47 -47q-17 -30 -17 -64t17 -64q18 -30 47 -47t64 -17v0zM224 377q43 0 80 -21v0v0q37 -22 59 -59q21 -38 21 -80t-21 -80q-22 -37 -59 -59q-37 -21 -80 -21t-80 21q-37 22 -59 59
q-21 38 -21 80t21 80q22 37 59 59q37 21 80 21v0zM160 217q1 -36 32 -55q32 -18 64 0q31 19 32 55q-1 36 -32 55q-32 18 -64 0q-31 -19 -32 -55v0zM320 217q0 -26 -13 -48v0v0q-13 -22 -35 -35q-23 -13 -48 -13t-48 13q-22 13 -35 35t-13 48t13 48t35 35q23 13 48 13t48 -13
q22 -13 35 -35t13 -48v0z" />
</svg>
