<?xml version="1.0" standalone="no"?>
<!DOCTYPE svg PUBLIC "-//W3C//DTD SVG 1.1//EN" "http://www.w3.org/Graphics/SVG/1.1/DTD/svg11.dtd" >
<svg xmlns="http://www.w3.org/2000/svg" xmlns:xlink="http://www.w3.org/1999/xlink" version="1.1" viewBox="-10 -40 534 512">
   <path fill="currentColor"
d="M246 -34q5 -6 13 -5l132 16v0q42 -10 94 -15q12 -1 19 7q8 8 7 19q-5 52 -15 94l17 133v0q1 8 -5 13q-5 6 -13 5l-58 -7v0q-11 16 -23 29q-33 36 -69 53t-68 20l40 40v0q11 9 23 0l66 -62v0q15 -13 34 -13q19 1 33 15l34 34v0q9 10 1 22l-11 12v0q-24 26 -58 27
q-33 1 -59 -23l-3 -3v0l-16 15v0q-15 13 -33 13q-19 -1 -33 -14l-51 -51v0l-30 21v0l38 38v0q14 15 14 34t-14 34l-1 1v0q-11 10 -23 0q-9 -11 0 -22l2 -2v0q9 -11 0 -22l-42 -42v0l-35 23v0q-9 7 -9 18q2 18 21 20h12v0q14 1 16 16q-2 15 -16 16h-12v0q-22 -1 -37 -15
q-15 -15 -16 -37q1 -28 23 -44l30 -21v0l-48 -48v0l-21 30v0q-16 22 -43 23q-22 -1 -37 -15q-15 -15 -15 -37v-12v0q1 -15 16 -16q15 1 16 16v12v0q2 18 20 20q10 0 17 -9l24 -35v0l-43 -42v0q-11 -9 -22 0l-2 1v0q-11 10 -22 0q-10 -11 0 -22l1 -2v0q15 -14 34 -14t34 14
l38 38v0l21 -30v0l-50 -50v0q-14 -14 -15 -33q0 -19 13 -33l15 -16v0l-3 -3v0q-24 -26 -23 -60q1 -33 27 -57l13 -11v0q11 -8 21 1l35 34v0q13 14 14 33q0 19 -13 34l-62 66v0q-9 12 0 23l40 40v0q3 -33 20 -68q17 -36 53 -69q13 -12 29 -23l-6 -57v0q-1 -8 5 -13v0zM278 18
q17 -10 38 -18l-41 -5v0l3 23v0zM135 282l57 56l-57 -56l57 56l45 -31v0q14 -10 30 -10q28 -2 60 -16q33 -14 64 -48q30 -32 53 -90q24 -58 34 -148q-90 10 -148 34q-58 23 -90 54q-34 30 -48 63q-14 32 -16 60q0 16 -10 30l-31 46v0zM455 196l24 3l-24 -3l24 3l-6 -42v0
q-8 21 -18 39v0zM118 72l25 -27l-25 27l25 -27q9 -12 0 -23l-24 -23v0l-1 1v0q-16 15 -16 35q-1 20 14 35l2 2v0zM401 355l2 2l-2 -2l2 2q15 15 35 14q20 0 35 -16l1 -1v0l-23 -24v0q-11 -9 -23 0l-27 25v0zM209 281q1 -15 16 -16q15 1 16 16q-1 15 -16 16q-15 -1 -16 -16v0
zM193 233q15 1 16 16q-1 15 -16 16q-15 -1 -16 -16q1 -15 16 -16v0z" />
</svg>
