<?xml version="1.0" standalone="no"?>
<!DOCTYPE svg PUBLIC "-//W3C//DTD SVG 1.1//EN" "http://www.w3.org/Graphics/SVG/1.1/DTD/svg11.dtd" >
<svg xmlns="http://www.w3.org/2000/svg" xmlns:xlink="http://www.w3.org/1999/xlink" version="1.1" viewBox="-11 0 342 512">
   <path fill="currentColor"
d="M296 265l24 139l-24 -139l24 139q2 16 -9 28q-29 26 -72 34q-42 8 -79 7q-37 1 -79 -7q-43 -8 -72 -34q-11 -12 -9 -28l24 -139v0v0v0h29v0l-24 144v0q0 1 1 2q19 19 57 27q37 7 73 6q36 1 73 -6q38 -8 57 -27q1 -1 1 -2l-24 -144v0h29v0v0v0zM320 30l-24 139l24 -139
l-24 139v0v0h-29v0l24 -143v0q0 -2 -1 -3q-19 -19 -56 -27q-38 -7 -74 -6q-36 -1 -73 6q-37 8 -57 27q-1 1 -1 3l24 143v0h-29v0v0v0l-24 -139v0q-2 -16 9 -28q29 -26 72 -34q42 -8 79 -7q37 -1 79 7q43 8 72 34q11 12 9 28v0zM8 217q1 -15 16 -16h136h136q15 1 16 16
q-1 15 -16 16h-104v0l29 38v0q7 13 -3 23q-13 7 -23 -3l-35 -47v0l-35 47v0q-10 11 -23 3q-10 -10 -3 -23l29 -38v0h-104v0q-15 -1 -16 -16v0zM160 17q15 1 16 16v136v0h-16h-16v-136v0q1 -15 16 -16v0zM170 310q2 4 6 7v84v0q-1 15 -16 16q-15 -1 -16 -16v-84v0q4 -3 6 -7
l10 -13v0l10 13v0zM96 40l12 129l-12 -129l12 129h-32v0l-12 -127v0q0 -14 15 -17q14 0 17 15v0zM83 319q9 7 19 9l-6 67v0q-3 14 -17 14q-15 -3 -15 -17l8 -85v0q4 7 11 12v0zM237 319q7 -5 11 -12l8 85v0q0 14 -14 17q-15 0 -18 -15l-6 -66v0q10 -2 19 -9v0zM212 169
l12 -129l-12 129l12 -129q3 -15 18 -15q14 3 14 18l-12 126v0h-32v0z" />
</svg>
