<?xml version="1.0" standalone="no"?>
<!DOCTYPE svg PUBLIC "-//W3C//DTD SVG 1.1//EN" "http://www.w3.org/Graphics/SVG/1.1/DTD/svg11.dtd" >
<svg xmlns="http://www.w3.org/2000/svg" xmlns:xlink="http://www.w3.org/1999/xlink" version="1.1" viewBox="-10 -40 468 512">
   <path fill="currentColor"
d="M320 89q0 -8 -1 -16h-30v0q-23 0 -40 -16l-6 -7v0q-31 38 -81 39h-34v0v16v0q1 41 28 68t68 28q41 -1 68 -28t28 -68v-16v0zM229 14q11 -10 22 0l21 20v0q7 7 17 7h18v0q-13 -22 -34 -35q-22 -13 -49 -13q-32 1 -56 18q-24 18 -34 46h28v0q43 -2 64 -39q1 -2 3 -4v0z
M96 89q1 -54 37 -91v0v0q37 -36 91 -37q54 1 91 37q36 37 37 91v16v0q-1 54 -37 91q-37 36 -91 37q-54 -1 -91 -37q-36 -37 -37 -91v-16v0zM176 297v35v-35v35q30 12 32 45q-1 20 -14 34q-14 13 -34 14q-20 -1 -34 -14q-13 -14 -14 -34q2 -33 32 -45v-31v0q-49 12 -80 50
t-32 90h384v0q-1 -48 -27 -84q-27 -36 -69 -51v25v0q18 6 29 20q11 15 11 34v24v0q-1 15 -16 16h-16v0q-15 -1 -16 -16q1 -15 16 -16v-8v0q-2 -22 -24 -24q-22 2 -24 24v8v0q15 1 16 16q-1 15 -16 16h-16v0q-15 -1 -16 -16v-24v0q0 -19 11 -34q11 -14 29 -20v-33v0
q-8 -1 -17 -1h-94h-1zM144 377q1 15 16 16q15 -1 16 -16q-1 -15 -16 -16q-15 1 -16 16v0zM0 442q2 -75 52 -125v0v0q50 -50 125 -52h94v0q75 2 125 52t52 125q0 13 -9 22t-22 9h-386v0q-13 0 -22 -9t-9 -22v0z" />
</svg>
