<?xml version="1.0" standalone="no"?>
<!DOCTYPE svg PUBLIC "-//W3C//DTD SVG 1.1//EN" "http://www.w3.org/Graphics/SVG/1.1/DTD/svg11.dtd" >
<svg xmlns="http://www.w3.org/2000/svg" xmlns:xlink="http://www.w3.org/1999/xlink" version="1.1" viewBox="-10 -40 468 512">
   <path fill="currentColor"
d="M320 105q-1 41 -28 68v0v0q-27 27 -68 28q-41 -1 -68 -28t-28 -68v-16v0q0 -8 1 -16h12v0q50 -1 83 -37q33 36 83 37h12v0q1 8 1 16v16v0zM97 72q-1 8 -1 17v16v0q0 24 8 45q-1 37 -21 66q-4 6 -3 13q2 7 9 10l16 8v0q13 6 21 -7q6 -14 -7 -21l-1 -1v0q7 -13 12 -27
q8 10 19 17l-12 36v0q-4 14 10 20q14 3 20 -10l10 -30v0q22 9 47 9t47 -9l10 30v0q6 13 20 10q13 -6 10 -20l-12 -36v0q11 -7 19 -17q5 14 11 27v1v0q-13 7 -7 21q7 13 21 7l16 -8v0q6 -3 8 -10t-2 -13q-20 -29 -21 -66q8 -21 8 -45v-16v0q0 -9 -1 -17q8 -5 9 -15
q-2 -15 -16 -16h-1v0q-15 -36 -47 -58q-31 -21 -72 -22q-41 1 -73 22q-31 22 -46 58h-1v0q-15 1 -16 16q1 10 9 15v0zM141 41q13 -22 34 -35v0v0q22 -13 49 -13t49 13q21 13 34 35q-42 -1 -66 -36l-4 -5v0q-5 -7 -13 -7t-13 7l-4 5v0q-24 35 -66 36v0zM164 313h120h-120h120
q55 1 92 37t40 91h-384v0q3 -55 40 -91t92 -37v0zM164 281q-70 2 -116 48v0v0q-46 46 -48 116q0 12 8 20t20 8h392v0q12 0 20 -8t8 -20q-2 -70 -48 -116t-116 -48h-120v0z" />
</svg>
