<?xml version="1.0" standalone="no"?>
<!DOCTYPE svg PUBLIC "-//W3C//DTD SVG 1.1//EN" "http://www.w3.org/Graphics/SVG/1.1/DTD/svg11.dtd" >
<svg xmlns="http://www.w3.org/2000/svg" xmlns:xlink="http://www.w3.org/1999/xlink" version="1.1" viewBox="-10 -40 468 512">
   <path fill="currentColor"
d="M128 105v-67v67v-67l96 -42v0l96 42v0v67v0h-192v0zM96 38v67v-67v67v16v0q-1 55 -45 90l-4 3v0q-15 11 -15 30q0 16 11 26q10 11 26 11h59v0q15 -1 16 -16q-1 -15 -16 -16h-59v0q-5 0 -5 -5q0 -3 2 -5l4 -3v0q24 -18 39 -43q16 32 46 52q30 19 69 20q39 0 69 -20t46 -52
q15 25 39 43l4 3v0q2 2 2 5q0 4 -5 5h-59v0q-15 1 -16 16q1 14 16 16h59v0q16 -1 26 -11q11 -11 11 -26q0 -19 -15 -30l-4 -3v0q-44 -35 -45 -90v-16v0v-67v0q-1 -20 -19 -29l-96 -42v0q-13 -6 -26 0l-96 42v0q-18 9 -19 29v0zM320 137v0v0v0q-1 41 -28 68t-68 28
q-27 0 -49 -13q-21 -13 -34 -35h21v0q27 0 50 -13t37 -35h71v0zM207 137q-19 16 -45 16h-33v0q-1 -8 -1 -16v0v0h79v0zM131 343l59 59l-59 -59l59 59q15 14 34 14t34 -14l59 -59v0q41 2 68 29t31 67h-384v0q4 -40 31 -67t68 -29v0zM151 318q-7 -7 -17 -7q-57 1 -95 39
t-39 95q2 24 26 26h396v0q24 -2 26 -26q-1 -57 -39 -95t-95 -39q-10 0 -17 7l-62 62v0q-11 9 -22 0l-62 -62v0zM208 17v16v-16v16h-16v0q-7 1 -8 8v16v0q1 7 8 8h16v0v16v0q1 7 8 8h16v0q7 -1 8 -8v-16v0h16v0q7 -1 8 -8v-16v0q-1 -7 -8 -8h-16v0v-16v0q-1 -7 -8 -8h-16v0
q-7 1 -8 8v0z" />
</svg>
