<?xml version="1.0" standalone="no"?>
<!DOCTYPE svg PUBLIC "-//W3C//DTD SVG 1.1//EN" "http://www.w3.org/Graphics/SVG/1.1/DTD/svg11.dtd" >
<svg xmlns="http://www.w3.org/2000/svg" xmlns:xlink="http://www.w3.org/1999/xlink" version="1.1" viewBox="-10 -40 660 512">
   <path fill="currentColor"
d="M512 57h-384h384h-384q-14 0 -23 9t-9 23v16v0v224v0v16v0q0 14 9 23t23 9h384v0q14 0 23 -9t9 -23v-16v0v-224v0v-16v0q0 -14 -9 -23t-23 -9v0zM48 89h16h-16h16q1 -27 19 -45t45 -19h384v0q27 1 45 19t19 45h16v0q20 1 34 14q13 14 14 34v160v0q-1 20 -14 34
q-14 13 -34 14h-16v0q-1 27 -19 45t-45 19h-384v0q-27 -1 -45 -19t-19 -45h-16v0q-20 -1 -34 -14q-13 -14 -14 -34v-160v0q1 -20 14 -34q14 -13 34 -14v0zM592 313q15 -1 16 -16v-160v0q-1 -15 -16 -16h-16v0v192v0h16v0zM48 313h16h-16h16v-192v0h-16v0q-15 1 -16 16v160v0
q1 15 16 16v0zM176 121h288h-288h288q15 1 16 16q-1 15 -16 16h-288v0q-15 -1 -16 -16q1 -15 16 -16v0zM176 201h288h-288h288q15 1 16 16q-1 15 -16 16h-288v0q-15 -1 -16 -16q1 -15 16 -16v0zM176 281h288h-288h288q15 1 16 16q-1 15 -16 16h-288v0q-15 -1 -16 -16
q1 -15 16 -16v0z" />
</svg>
