<?xml version="1.0" standalone="no"?>
<!DOCTYPE svg PUBLIC "-//W3C//DTD SVG 1.1//EN" "http://www.w3.org/Graphics/SVG/1.1/DTD/svg11.dtd" >
<svg xmlns="http://www.w3.org/2000/svg" xmlns:xlink="http://www.w3.org/1999/xlink" version="1.1" viewBox="-10 -40 660 512">
   <path fill="currentColor"
d="M144 -7q-61 2 -102 42v0v0q-40 41 -42 102v160v0q2 61 42 102q41 40 102 42q61 -2 102 -42q40 -41 42 -102v-160v0q-2 -61 -42 -102q-41 -40 -102 -42v0zM32 137q1 -48 33 -79v0v0q31 -32 79 -33q48 1 79 33q32 31 33 79v160v0q-1 48 -33 79q-31 32 -79 33
q-48 -1 -79 -33q-32 -31 -33 -79v-160v0zM496 -7q-61 2 -102 42v0v0q-40 41 -42 102v160v0q2 61 42 102q41 40 102 42q61 -2 102 -42q40 -41 42 -102v-160v0q-2 -61 -42 -102q-41 -40 -102 -42v0zM384 137q1 -48 33 -79v0v0q31 -32 79 -33q48 1 79 33q32 31 33 79v160v0
q-1 48 -33 79q-31 32 -79 33q-48 -1 -79 -33q-32 -31 -33 -79v-160v0z" />
</svg>
