<?xml version="1.0" standalone="no"?>
<!DOCTYPE svg PUBLIC "-//W3C//DTD SVG 1.1//EN" "http://www.w3.org/Graphics/SVG/1.1/DTD/svg11.dtd" >
<svg xmlns="http://www.w3.org/2000/svg" xmlns:xlink="http://www.w3.org/1999/xlink" version="1.1" viewBox="-10 -40 532 512">
   <path fill="currentColor"
d="M237 -29q19 -12 38 0l77 57v0v-11v0q2 -22 24 -24h80v0q22 2 24 24v104v0h-1v0l13 10v0q19 14 20 38q-2 34 -33 46q1 5 1 10v16v0q0 14 -8 24q8 10 8 24v16v0q0 14 -8 24q8 10 8 24v16v0q0 14 -8 24q8 10 8 24v16v0q0 17 -12 28q-11 12 -28 12h-80v0q-17 0 -28 -12
q-12 -11 -12 -28v-16v0q0 -14 8 -24q-8 -10 -8 -24v-16v0q0 -14 8 -24q-8 -10 -8 -24v-16v0q0 -14 8 -24q-8 -10 -8 -24v-16v0q0 -4 1 -8h-130v0q1 4 1 8v16v0q0 14 -8 24q8 10 8 24v16v0q0 14 -8 24q8 10 8 24v16v0q0 14 -8 24q8 10 8 24v16v0q0 17 -12 28q-11 12 -28 12
h-80v0q-17 0 -28 -12q-12 -11 -12 -28v-16v0q0 -14 8 -24q-8 -10 -8 -24v-16v0q0 -14 8 -24q-8 -10 -8 -24v-16v0q0 -14 8 -24q-8 -10 -8 -24v-16v0q0 -5 1 -10q-31 -12 -33 -46q1 -24 20 -38l217 -160v0zM360 377h80h-80h80q7 -1 8 -8v-16v0q-1 -7 -8 -8h-80v0q-7 1 -8 8
v16v0q1 7 8 8v0zM440 409h-80h80h-80q-7 1 -8 8v16v0q1 7 8 8h80v0q7 -1 8 -8v-16v0q-1 -7 -8 -8v0zM448 305v-16v16v-16q-1 -7 -8 -8h-80v0q-7 1 -8 8v16v0q1 7 8 8h80v0q7 -1 8 -8v0zM360 185h80h-80h104q15 -1 16 -16q0 -8 -6 -13l-218 -159v0l-217 159v0q-7 5 -7 13
q1 15 16 16h24h288zM360 217q-7 1 -8 8v16v0q1 7 8 8h80v0q7 -1 8 -8v-16v0q-1 -7 -8 -8h-80v0zM72 377h80h-80h80q7 -1 8 -8v-16v0q-1 -7 -8 -8h-80v0q-7 1 -8 8v16v0q1 7 8 8v0zM152 409h-80h80h-80q-7 1 -8 8v16v0q1 7 8 8h80v0q7 -1 8 -8v-16v0q-1 -7 -8 -8v0zM160 305
v-16v16v-16q-1 -7 -8 -8h-80v0q-7 1 -8 8v16v0q1 7 8 8h80v0q7 -1 8 -8v0zM72 217q-7 1 -8 8v16v0q1 7 8 8h80v0q7 -1 8 -8v-16v0q-1 -7 -8 -8h-80v0zM448 98v-73v73v-73h-64v0v26v0l64 47v0zM256 89q-15 1 -16 16q1 15 16 16q15 -1 16 -16q-1 -15 -16 -16v0zM304 105
q-1 27 -24 42q-24 12 -48 0q-23 -15 -24 -42q1 -27 24 -42q24 -12 48 0q23 15 24 42v0z" />
</svg>
