<?xml version="1.0" standalone="no"?>
<!DOCTYPE svg PUBLIC "-//W3C//DTD SVG 1.1//EN" "http://www.w3.org/Graphics/SVG/1.1/DTD/svg11.dtd" >
<svg xmlns="http://www.w3.org/2000/svg" xmlns:xlink="http://www.w3.org/1999/xlink" version="1.1" viewBox="-10 -40 596 512">
   <path fill="currentColor"
d="M128 -23q-1 -15 -16 -16q-15 1 -16 16v48v0h-32v0q-27 1 -45 19t-19 45v32v0v32v0v256v0q1 27 19 45t45 19h267v0q-20 -14 -35 -32h-232v0q-14 0 -23 -9t-9 -23v-256v0h320h96v-32v0v-32v0q-1 -27 -19 -45t-45 -19h-32v0v-48v0q-1 -15 -16 -16q-15 1 -16 16v48v0h-192v0
v-48v0zM64 57h320h-320h320q14 0 23 9t9 23v32v0h-384v0v-32v0q0 -14 9 -23t23 -9v0zM432 217q30 0 56 15v0v0q26 15 41 41t15 56t-15 56t-41 41t-56 15t-56 -15t-41 -41t-15 -56t15 -56t41 -41t56 -15v0zM432 473q39 0 72 -19v0v0q33 -19 53 -53q19 -34 19 -72t-19 -72
q-20 -34 -53 -53t-72 -19t-72 19t-53 53q-19 34 -19 72t19 72q20 34 53 53t72 19v0zM512 329q-1 -15 -16 -16h-128v0q-15 1 -16 16q1 15 16 16h128v0q15 -1 16 -16v0z" />
</svg>
