<?xml version="1.0" standalone="no"?>
<!DOCTYPE svg PUBLIC "-//W3C//DTD SVG 1.1//EN" "http://www.w3.org/Graphics/SVG/1.1/DTD/svg11.dtd" >
<svg xmlns="http://www.w3.org/2000/svg" xmlns:xlink="http://www.w3.org/1999/xlink" version="1.1" viewBox="-10 -40 532 512">
   <path fill="currentColor"
d="M448 25q14 0 23 9v0v0q9 9 9 23v64v0q0 14 -9 23t-23 9h-304h-80q-14 0 -23 -9t-9 -23v-64v0q0 -14 9 -23t23 -9h384v0zM144 185h304h-304h304q27 -1 45 -19t19 -45v-64v0q-1 -27 -19 -45t-45 -19h-384v0q-27 1 -45 19t-19 45v64v0q1 27 19 45t45 19h48v0v96v0
q1 34 23 57q23 22 57 23h32v0v16v0q1 27 19 45t45 19h160v0q27 -1 45 -19t19 -45v-64v0q-1 -27 -19 -45t-45 -19h-160v0q-27 1 -45 19t-19 45v16v0h-32v0q-20 -1 -34 -14q-13 -14 -14 -34v-96v0zM448 281q14 0 23 9v0v0q9 9 9 23v64v0q0 14 -9 23t-23 9h-160v0q-14 0 -23 -9
t-9 -23v-64v0q0 -14 9 -23t23 -9h160v0z" />
</svg>
