<?xml version="1.0" standalone="no"?>
<!DOCTYPE svg PUBLIC "-//W3C//DTD SVG 1.1//EN" "http://www.w3.org/Graphics/SVG/1.1/DTD/svg11.dtd" >
<svg xmlns="http://www.w3.org/2000/svg" xmlns:xlink="http://www.w3.org/1999/xlink" version="1.1" viewBox="-10 -40 532 512">
   <path fill="currentColor"
d="M32 217q1 -63 31 -113v0v0q29 -51 80 -80v0v0q50 -30 113 -31q63 1 113 31q51 29 80 80q30 50 31 113q-2 88 -57 149q-9 12 1 23q12 9 23 -1q63 -70 65 -171q-1 -72 -35 -129q-34 -58 -92 -92q-57 -34 -129 -35q-72 1 -129 35q-58 34 -92 92q-34 57 -35 129q2 88 51 154
q10 11 23 3q11 -10 3 -23q-44 -57 -45 -134v0zM144 141q3 -14 12 -25q10 -11 20 -11t19 11q10 11 13 25q5 14 20 12q14 -5 11 -20q-4 -20 -20 -38q-15 -20 -43 -22q-28 2 -44 22q-15 18 -20 38q-2 15 12 20q15 2 19 -12h1zM316 116q10 -11 20 -11t19 11q10 11 13 25
q5 14 20 12q14 -5 11 -20q-4 -20 -20 -38q-15 -20 -43 -22q-28 2 -44 22q-15 18 -20 38q-2 15 12 20q14 2 19 -12q4 -14 13 -25v0zM265 262l-17 18l17 -18l-17 18v0v0q-4 4 0 9q5 4 9 0v0v0l18 -17v0l34 -34v0l16 -16v0q5 -5 11 -5t11 5t5 11t-5 11v0v0l-16 16v0l-34 34v0
l-17 18v0q-4 4 0 9q5 4 9 0v0v0l18 -17v0l34 -34v0v0v0v0v0q11 -10 22 0l2 2q7 11 -2 20v0v0l-5 5v0l-27 27v0l-2 2v0l-17 18v0q-4 4 0 9q5 4 9 0l18 -17v0l2 -2v0q11 -10 22 0l2 2q7 11 -2 20l-19 20v0l-37 37v0q-29 27 -68 28q-40 -1 -67 -28t-28 -67v-33v0v-54v0
q2 -18 20 -20q15 1 19 15v1l1 1v3v12v0v8v0q0 6 5 7q4 2 9 -1l5 -6v0l11 -10v0l2 -3v0l9 -9v0v0v0l52 -51v0q10 -9 20 -2l2 2q10 11 0 22v0v0l-34 34v0zM254 183l-47 47l47 -47l-47 47q-15 -22 -43 -23q-22 1 -37 16q-14 14 -15 36v54v0v33v0q1 54 37 90t90 37q53 -1 90 -37
l57 -57v0q13 -14 14 -33q0 -18 -12 -33q12 -15 12 -33q-1 -19 -14 -33q-1 -1 -2 -1q0 -1 -1 -2q5 -25 -13 -45q-20 -18 -45 -13l-3 -3q-15 -14 -34 -14t-34 14v0z" />
</svg>
