<?xml version="1.0" standalone="no"?>
<!DOCTYPE svg PUBLIC "-//W3C//DTD SVG 1.1//EN" "http://www.w3.org/Graphics/SVG/1.1/DTD/svg11.dtd" >
<svg xmlns="http://www.w3.org/2000/svg" xmlns:xlink="http://www.w3.org/1999/xlink" version="1.1" viewBox="-10 -40 660 512">
   <path fill="currentColor"
d="M100 16q-5 9 -15 9h-21v0q-14 0 -23 9t-9 23t9 23t23 9h152v0q17 0 28 -12q12 -11 12 -28t-12 -28q-11 -12 -28 -12q-13 0 -23 7q-6 4 -13 3q-6 -1 -10 -7q-12 -18 -34 -19q-25 1 -36 23v0zM136 -39q31 1 52 22q13 -6 28 -6q31 1 51 21t21 51q-1 31 -21 51t-51 21h-152v0
q-27 -1 -45 -19t-19 -45q1 -27 19 -45t45 -19h12v0q21 -30 60 -32v0zM288 -37q16 -2 32 -2q72 1 129 35q58 34 92 92q34 57 35 129q0 11 -1 22q-14 -9 -31 -12v-10q-1 -63 -31 -113q-29 -51 -80 -80q-50 -30 -113 -31h-10h-1q-8 -17 -21 -30v0zM96 217q1 69 37 123v0v0
q35 54 95 81q6 24 21 42q-82 -25 -133 -91q-50 -66 -52 -155q0 -33 8 -64h33v0q-9 31 -9 64v0zM216 169q2 -22 24 -24q22 2 24 24q-2 22 -24 24q-22 -2 -24 -24v0zM400 145q22 2 24 24q-2 22 -24 24q-22 -2 -24 -24q2 -22 24 -24v0zM416 265q-27 1 -45 19v0v0q-18 18 -19 45
q-1 15 -16 16q-20 1 -34 14q-13 14 -14 34q1 20 14 34q14 13 34 14h224v0q20 -1 34 -14q13 -14 14 -34q0 -19 -12 -32t-30 -16q-7 -1 -11 -6q-4 -6 -3 -12v-6q0 -14 -9 -23t-23 -9t-23 10q-6 6 -14 5t-12 -8q-18 -29 -55 -31v0zM321 314q6 -35 32 -58v0v0q26 -22 63 -23
q44 1 72 33q14 -9 32 -9q26 1 44 17q18 17 20 43q25 8 40 28q16 21 16 48q-1 34 -23 57q-23 22 -57 23h-224v0q-34 -1 -57 -23q-22 -23 -23 -57q1 -30 19 -51q18 -22 46 -28v0z" />
</svg>
