<?xml version="1.0" standalone="no"?>
<!DOCTYPE svg PUBLIC "-//W3C//DTD SVG 1.1//EN" "http://www.w3.org/Graphics/SVG/1.1/DTD/svg11.dtd" >
<svg xmlns="http://www.w3.org/2000/svg" xmlns:xlink="http://www.w3.org/1999/xlink" version="1.1" viewBox="-10 -40 660 512">
   <path fill="currentColor"
d="M186 38q57 -44 134 -45q50 0 93 20t74 55q11 10 23 1q10 -11 1 -23q-36 -39 -85 -62t-106 -23q-88 2 -154 51q-11 10 -3 23q10 11 23 3v0zM131 337q-9 -12 -23 -5q-11 8 -5 22q35 54 91 86q57 32 126 33q101 -2 171 -65q10 -11 1 -23q-11 -10 -23 -1q-61 55 -149 57
q-60 -1 -110 -29q-49 -28 -79 -76v1zM415 193q1 -4 1 -8v-5l18 13v0h-19v0zM361 208q-9 10 -9 25q1 21 17 33q-1 3 -1 7q0 17 12 28q11 12 28 12h8v0v0v1q0 17 12 28q11 11 28 12h65v0q49 -1 84 -35q35 -36 35 -84q0 -47 -34 -84v0v0v0v0l-1 -1v0v0v0l-45 -45v0
q-14 -13 -31 -13q-18 0 -31 13q-11 12 -13 27l-38 -28v0q-14 -9 -30 -7q-15 3 -25 17q-13 19 -4 39h-4q-14 0 -23 9t-9 23q0 13 9 22v1zM290 338q11 -8 30 -9q19 1 30 9t10 15q1 7 -10 15t-30 9q-19 -1 -30 -9t-10 -15q-1 -7 10 -15v0zM271 312q-21 14 -23 41q2 27 23 41
q21 15 49 15t49 -15q21 -14 23 -41q-2 -27 -23 -41q-21 -15 -49 -15t-49 15v0zM379 105q-4 -10 -15 -8q-28 10 -46 33q-17 24 -18 55q0 32 18 55q8 8 17 3q8 -8 3 -17q-14 -18 -14 -41t13 -41q14 -17 35 -24q10 -4 8 -15h-1zM96 49l-61 61l61 -61l-61 61v0v0l-1 1v0v0v0v0v0
q-34 37 -34 84q0 48 35 84q35 34 84 35h65v0q17 -1 28 -12q12 -11 12 -28v-1v0h8v0q17 0 28 -12q12 -11 12 -28q0 -4 -1 -7q16 -12 17 -33q-1 -21 -17 -32q1 -4 1 -8q0 -17 -12 -28q-11 -12 -28 -12h-75v0l1 -1v0q13 -14 13 -32q0 -17 -13 -31q-13 -13 -31 -13q-17 0 -31 13
v0zM189 259q10 3 11 14v0v1q-1 14 -16 16h-65v0q-39 -1 -67 -28q-28 -29 -28 -67t27 -67l1 -1v0l61 -61v0q14 -11 28 0q12 14 0 29l-18 18v0l-1 1v0l-4 4v0l-6 5v0q-3 5 -1 9q2 5 7 5h8h106q15 2 16 16v0v0v0v0v0v0q-1 15 -16 16h-43h-19q-4 0 -4 4t4 4h19h59q7 0 12 5
q4 5 4 11q0 7 -4 11q-5 5 -12 5h-16h-62q-4 0 -4 4t4 4h19h43q15 1 16 16v0v0v0v0v0v0q-1 15 -16 16h-17h-45q-4 0 -4 5q0 4 4 4h14v0q3 0 5 1v0zM376 233q1 -15 16 -16h75v0q12 -1 13 -13q0 -7 -6 -11l-59 -43v0q-11 -10 -4 -22q10 -11 22 -4l73 52v0l4 3v0l4 2v0l1 1v0
q4 3 8 2q7 -1 9 -7t-3 -12l-1 -1v0l-3 -3v0l-3 -3v0l-7 -8v0q-12 -14 0 -28q14 -12 28 0l45 45v0l1 1v0q27 29 27 67t-28 67q-28 27 -67 28h-65v0q-15 -2 -16 -16v-1v0q2 -14 16 -15h1h19q4 -1 4 -5t-4 -4h-19h-49q-15 -2 -16 -16v0v0q1 -15 16 -16h48h20q4 -1 4 -4
q0 -4 -4 -4h-20h-64q-7 0 -12 -5q-4 -5 -4 -11v0z" />
</svg>
