<?xml version="1.0" standalone="no"?>
<!DOCTYPE svg PUBLIC "-//W3C//DTD SVG 1.1//EN" "http://www.w3.org/Graphics/SVG/1.1/DTD/svg11.dtd" >
<svg xmlns="http://www.w3.org/2000/svg" xmlns:xlink="http://www.w3.org/1999/xlink" version="1.1" viewBox="-10 -40 596 512">
   <path fill="currentColor"
d="M384 25h-320h320h-320q-14 0 -23 9t-9 23v320v0q0 14 9 23t23 9h211v0q9 17 21 32h-232v0q-27 -1 -45 -19t-19 -45v-320v0q1 -27 19 -45t45 -19h320v0q27 1 45 19t19 45v97v0q-8 -1 -16 -1t-16 1v-97v0q0 -14 -9 -23t-23 -9v0zM224 57q53 1 93 30v0v0q40 29 58 76
q-16 5 -30 13q-13 -39 -46 -63q-32 -23 -75 -24q-54 1 -91 37q-36 37 -37 91q1 54 37 91q37 36 91 37q17 0 32 -4q1 16 5 32q-18 4 -37 4q-68 -2 -113 -47t-47 -113q2 -68 47 -113t113 -47v0zM224 193q22 2 24 24q-2 22 -24 24q-22 -2 -24 -24q2 -22 24 -24v0zM492 424
q-12 -15 -32 -15h-56v0q-19 0 -32 15q26 17 60 17t60 -17v0zM516 403q27 -31 28 -74q-1 -48 -33 -79q-31 -32 -79 -33q-48 1 -79 33q-32 31 -33 79q1 43 28 74q22 -25 56 -26h56v0q34 1 56 26v0zM288 329q0 -39 19 -72v0v0q19 -33 53 -53q34 -19 72 -19t72 19q34 20 53 53
t19 72t-19 72t-53 53q-34 19 -72 19t-72 -19q-34 -20 -53 -53t-19 -72v0zM432 329q22 -2 24 -24q-2 -22 -24 -24q-22 2 -24 24q2 22 24 24v0zM432 249q32 1 48 28q16 28 0 56q-16 27 -48 28q-32 -1 -48 -28q-16 -28 0 -56q16 -27 48 -28v0z" />
</svg>
