<?xml version="1.0" standalone="no"?>
<!DOCTYPE svg PUBLIC "-//W3C//DTD SVG 1.1//EN" "http://www.w3.org/Graphics/SVG/1.1/DTD/svg11.dtd" >
<svg xmlns="http://www.w3.org/2000/svg" xmlns:xlink="http://www.w3.org/1999/xlink" version="1.1" viewBox="-10 -40 468 512">
   <path fill="currentColor"
d="M448 73q-1 -15 -16 -16h-48v0v-48v0q-1 -15 -16 -16q-15 1 -16 16v48v0h-256v0v-48v0q-1 -15 -16 -16q-15 1 -16 16v48v0h-48v0q-15 1 -16 16q1 15 16 16h48v0v256v0h-48v0q-15 1 -16 16q1 15 16 16h48v0v48v0q1 15 16 16q15 -1 16 -16v-48v0h256v0v48v0q1 15 16 16
q15 -1 16 -16v-48v0h48v0q15 -1 16 -16q-1 -15 -16 -16h-48v0v-256v0h48v0q15 -1 16 -16v0zM96 345v-256v256v-256h256v0v256v0h-256v0z" />
</svg>
