<?xml version="1.0" standalone="no"?>
<!DOCTYPE svg PUBLIC "-//W3C//DTD SVG 1.1//EN" "http://www.w3.org/Graphics/SVG/1.1/DTD/svg11.dtd" >
<svg xmlns="http://www.w3.org/2000/svg" xmlns:xlink="http://www.w3.org/1999/xlink" version="1.1" viewBox="-10 -40 596 512">
   <path fill="currentColor"
d="M320 -7h-256h256h-256q-14 0 -23 9t-9 23v384v0q0 14 9 23t23 9h232v0q15 18 34 31q-5 1 -10 1h-256v0q-27 -1 -45 -19t-19 -45v-384v0q1 -27 19 -45t45 -19h256v0q27 1 45 19t19 45v135v0q-17 4 -32 12v-147v0q0 -14 -9 -23t-23 -9v0zM64 105q1 -15 16 -16h224v0
q15 1 16 16q-1 15 -16 16h-224v0q-15 -1 -16 -16v0zM80 185h192h-192h192q15 1 16 16q-1 15 -16 16h-192v0q-15 -1 -16 -16q1 -15 16 -16v0zM80 281h128h-128h128q15 1 16 16q-1 15 -16 16h-128v0q-15 -1 -16 -16q1 -15 16 -16v0zM544 329q0 -30 -15 -56v0v0
q-15 -26 -41 -41t-56 -15t-56 15t-41 41t-15 56t15 56t41 41t56 15t56 -15t41 -41t15 -56v0zM288 329q0 -39 19 -72v0v0q19 -33 53 -53q34 -19 72 -19t72 19q34 20 53 53t19 72t-19 72t-53 53q-34 19 -72 19t-72 -19q-34 -20 -53 -53t-19 -72v0zM432 297q-22 -2 -24 -24
q2 -22 24 -24q22 2 24 24q-2 22 -24 24v0zM400 393q1 -15 16 -16v-32v0q-15 -1 -16 -16q1 -15 16 -16h16v0q15 1 16 16v48v0v0v0q15 1 16 16q-1 15 -16 16h-16h-16q-15 -1 -16 -16v0z" />
</svg>
