<?xml version="1.0" standalone="no"?>
<!DOCTYPE svg PUBLIC "-//W3C//DTD SVG 1.1//EN" "http://www.w3.org/Graphics/SVG/1.1/DTD/svg11.dtd" >
<svg xmlns="http://www.w3.org/2000/svg" xmlns:xlink="http://www.w3.org/1999/xlink" version="1.1" viewBox="-10 -40 532 512">
   <path fill="currentColor"
d="M64 -7h32h-32h32v-32v0h-32v0q-27 1 -45 19t-19 45v32v0h32v0v-32v0q0 -14 9 -23t23 -9v0zM224 -7v-32v32v-32h-96v0v32v0h96v0zM32 89h-32h32h-32v96v0h32v0v-96v0zM32 217h-32h32h-32v32v0q1 27 19 45t45 19h32v0v-32v0h-32v0q-14 0 -23 -9t-9 -23v-32v0zM128 313h32
h-32h96v-32v0h-32h-64v32v0zM160 345v64v-64v64q1 27 19 45t45 19h224v0q27 -1 45 -19t19 -45v-224v0q-1 -27 -19 -45t-45 -19h-64v0v32v0h64v0q14 0 23 9t9 23v224v0q0 14 -9 23t-23 9h-224v0q-14 0 -23 -9t-9 -23v-64v0h-32v0zM352 153v-32v32v-32v-32v0h-32v0v32v0v32v0
v32v0h32v0v-32v0zM352 25q-1 -27 -19 -45v0v0q-18 -18 -45 -19h-32v0v32v0h32v0q14 0 23 9t9 23v32v0h32v0v-32v0zM256 281v32v-32v32h32v0q27 -1 45 -19t19 -45v-32v0h-32v0v32v0q0 14 -9 23t-23 9h-32v0z" />
</svg>
