<?xml version="1.0" standalone="no"?>
<!DOCTYPE svg PUBLIC "-//W3C//DTD SVG 1.1//EN" "http://www.w3.org/Graphics/SVG/1.1/DTD/svg11.dtd" >
<svg xmlns="http://www.w3.org/2000/svg" xmlns:xlink="http://www.w3.org/1999/xlink" version="1.1" viewBox="-10 -40 660 512">
   <path fill="currentColor"
d="M480 153v1v-1v1q8 -1 16 -1t16 1v-1v0q-1 -27 -19 -45t-45 -19h-384v0q-27 1 -45 19t-19 45v256v0q1 27 19 45t45 19h331v0q-20 -14 -35 -32h-296v0q-14 0 -23 -9t-9 -23v-256v0q0 -14 9 -23t23 -9h384v0q14 0 23 9t9 23v0zM448 25h-384h384h-384q-15 1 -16 16
q1 15 16 16h384v0q15 -1 16 -16q-1 -15 -16 -16v0zM400 -39h-288h288h-288q-15 1 -16 16q1 15 16 16h288v0q15 -1 16 -16q-1 -15 -16 -16v0zM556 424q-26 17 -60 17t-60 -17q12 -15 32 -15h56v0q19 0 32 15v0zM580 403q-22 -25 -56 -26h-56v0q-34 1 -56 26q-27 -31 -28 -74
q1 -48 33 -79q31 -32 79 -33q48 1 79 33q32 31 33 79q-1 43 -28 74v0zM640 329q0 -39 -19 -72v0v0q-19 -33 -53 -53q-34 -19 -72 -19t-72 19q-34 20 -53 53t-19 72t19 72t53 53q34 19 72 19t72 -19q34 -20 53 -53t19 -72v0zM496 281q22 2 24 24q-2 22 -24 24q-22 -2 -24 -24
q2 -22 24 -24v0zM496 361q32 -1 48 -28q16 -28 0 -56q-16 -27 -48 -28q-32 1 -48 28q-16 28 0 56q16 27 48 28v0z" />
</svg>
