<?xml version="1.0" standalone="no"?>
<!DOCTYPE svg PUBLIC "-//W3C//DTD SVG 1.1//EN" "http://www.w3.org/Graphics/SVG/1.1/DTD/svg11.dtd" >
<svg xmlns="http://www.w3.org/2000/svg" xmlns:xlink="http://www.w3.org/1999/xlink" version="1.1" viewBox="-10 -40 468 512">
   <path fill="currentColor"
d="M240 -23q-1 -15 -16 -16q-15 1 -16 16v48v0h-64v0q-34 1 -57 23q-22 23 -23 57v96v0q1 34 23 57q23 22 57 23h160v0q34 -1 57 -23q22 -23 23 -57v-96v0q-1 -34 -23 -57q-23 -22 -57 -23h-64v0v-48v0zM96 105q1 -20 14 -34v0v0q14 -13 34 -14h160v0q20 1 34 14
q13 14 14 34v96v0q-1 20 -14 34q-14 13 -34 14v-32v0q-1 -15 -16 -16q-15 1 -16 16v32v0h-32v0v-32v0q-1 -15 -16 -16q-15 1 -16 16v32v0h-32v0v-32v0q-1 -15 -16 -16q-15 1 -16 16v32v0q-20 -1 -34 -14q-13 -14 -14 -34v-96v0zM16 89q-15 1 -16 16v96v0q1 15 16 16
q15 -1 16 -16v-96v0q-1 -15 -16 -16v0zM448 105q-1 -15 -16 -16q-15 1 -16 16v96v0q1 15 16 16q15 -1 16 -16v-96v0zM96 345h256h-256h256q27 1 45 19t19 45v16v0q-1 15 -16 16h-32v0v-32v0q0 -14 -9 -23t-23 -9h-48h-176q-14 0 -23 9t-9 23v32v0h-32v0q-15 -1 -16 -16v-16
v0q1 -27 19 -45t45 -19v0zM112 409h32h-32h32v32v0h-32v0v-32v0zM208 409v32v-32v32h-32v0v-32v0h32v0zM224 473h64h-64h176q20 -1 34 -14q13 -14 14 -34v-16v0q-1 -41 -28 -68t-68 -28h-256v0q-41 1 -68 28t-28 68v16v0q1 20 14 34q14 13 34 14h32h144zM240 409h32h-32h32
v32v0h-32v0v-32v0zM336 409v32v-32v32h-32v0v-32v0h32v0zM137 80q-9 -8 -18 0q-8 9 0 18l22 23v0l-22 23v0q-8 9 0 18q9 8 18 0l23 -22v0l23 22v0q9 8 18 0q8 -9 0 -18l-22 -23v0l22 -23v0q8 -9 0 -18q-9 -8 -18 0l-23 22v0l-23 -22v0zM247 80q-8 9 0 18l22 23v0l-22 23v0
q-8 9 0 18q9 8 18 0l23 -22v0l23 22v0q9 8 18 0q8 -9 0 -18l-22 -23v0l22 -23v0q8 -9 0 -18q-9 -8 -18 0l-23 22v0l-23 -22v0q-9 -8 -18 0v0z" />
</svg>
