<?xml version="1.0" standalone="no"?>
<!DOCTYPE svg PUBLIC "-//W3C//DTD SVG 1.1//EN" "http://www.w3.org/Graphics/SVG/1.1/DTD/svg11.dtd" >
<svg xmlns="http://www.w3.org/2000/svg" xmlns:xlink="http://www.w3.org/1999/xlink" version="1.1" viewBox="-10 -40 660 512">
   <path fill="currentColor"
d="M336 41q-1 27 -24 42q-24 12 -48 0q-23 -15 -24 -42q1 -27 24 -42q24 -12 48 0q23 15 24 42v0zM288 -39q-34 1 -57 23v0v0q-22 23 -23 57q1 30 18 51q18 21 46 27v2v32v0h-64v0q-15 1 -16 16q1 15 16 16h64v0v256v0h-32v0q-61 -2 -102 -42q-40 -41 -42 -102v-25v0l37 36
v0q11 10 22 0q10 -11 0 -22l-64 -64v0q-11 -10 -22 0l-64 64v0q-10 11 0 22q11 10 22 0l37 -36v0v25v0q2 75 52 124q49 50 124 52h48h48q26 0 50 -7q-15 -12 -27 -27q-11 2 -23 2h-32v0v-256v0h64v0q15 -1 16 -16q-1 -15 -16 -16h-64v0v-32v0v-2q28 -6 46 -27q17 -21 18 -51
q-1 -34 -23 -57q-23 -22 -57 -23v0zM384 329q0 -30 15 -56v0v0q15 -26 41 -41t56 -15t56 15t41 41t15 56t-15 56t-41 41t-56 15t-56 -15t-41 -41t-15 -56v0zM640 329q0 -39 -19 -72v0v0q-19 -33 -53 -53q-34 -19 -72 -19t-72 19q-34 20 -53 53t-19 72t19 72t53 53
q34 19 72 19t72 -19q34 -20 53 -53t19 -72v0zM496 409q22 -2 24 -24q-2 -22 -24 -24q-22 2 -24 24q2 22 24 24v0zM496 249q-15 1 -16 16v64v0q1 15 16 16q15 -1 16 -16v-64v0q-1 -15 -16 -16v0z" />
</svg>
