<?xml version="1.0" standalone="no"?>
<!DOCTYPE svg PUBLIC "-//W3C//DTD SVG 1.1//EN" "http://www.w3.org/Graphics/SVG/1.1/DTD/svg11.dtd" >
<svg xmlns="http://www.w3.org/2000/svg" xmlns:xlink="http://www.w3.org/1999/xlink" version="1.1" viewBox="-10 -40 660 512">
   <path fill="currentColor"
d="M320 9q1 -15 16 -16h128v0q15 1 16 16v160v0q1 15 16 16h64h32q15 1 16 16v256v0q1 15 16 16q15 -1 16 -16v-256v0q-1 -20 -14 -34q-14 -13 -34 -14h-16v0v-80v0q-1 -15 -16 -16q-15 1 -16 16v80v0h-32v0v-144v0q-1 -20 -14 -34q-14 -13 -34 -14h-128v0q-20 1 -34 14
q-13 14 -14 34v448v0q1 15 16 16q15 -1 16 -16v-448v0zM352 57v32v-32v32q0 14 9 23t23 9h32v0q14 0 23 -9t9 -23v-32v0q0 -14 -9 -23t-23 -9h-32v0q-14 0 -23 9t-9 23v0zM416 57v32v-32v32h-32v0v-32v0h32v0zM512 217q-14 0 -23 9v0v0q-9 9 -9 23v32v0q0 14 9 23t23 9h32v0
q14 0 23 -9t9 -23v-32v0q0 -14 -9 -23t-23 -9h-32v0zM512 249h32h-32h32v32v0h-32v0v-32v0zM480 377v32v-32v32q0 14 9 23t23 9h32v0q14 0 23 -9t9 -23v-32v0q0 -14 -9 -23t-23 -9h-32v0q-14 0 -23 9t-9 23v0zM544 377v32v-32v32h-32v0v-32v0h32v0zM384 153q-14 0 -23 9v0v0
q-9 9 -9 23v32v0q0 14 9 23t23 9h32v0q14 0 23 -9t9 -23v-32v0q0 -14 -9 -23t-23 -9h-32v0zM384 185h32h-32h32v32v0h-32v0v-32v0zM352 313v32v-32v32q0 14 9 23t23 9h32v0q14 0 23 -9t9 -23v-32v0q0 -14 -9 -23t-23 -9h-32v0q-14 0 -23 9t-9 23v0zM416 313v32v-32v32h-32v0
v-32v0h32v0zM155 110q-11 -10 -22 0q-10 11 0 22l68 69v0h-185v0q-15 1 -16 16q1 15 16 16h185v0l-68 69v0q-10 11 0 22q11 10 22 0l96 -96v0q10 -11 0 -22l-96 -96v0z" />
</svg>
