<?xml version="1.0" standalone="no"?>
<!DOCTYPE svg PUBLIC "-//W3C//DTD SVG 1.1//EN" "http://www.w3.org/Graphics/SVG/1.1/DTD/svg11.dtd" >
<svg xmlns="http://www.w3.org/2000/svg" xmlns:xlink="http://www.w3.org/1999/xlink" version="1.1" viewBox="-10 -40 660 512">
   <path fill="currentColor"
d="M592 -7h-288h288h-288q-15 1 -16 16v80v0h-32v0v-80v0q1 -20 14 -34q14 -13 34 -14h288v0q20 1 34 14q13 14 14 34v416v0q-1 20 -14 34q-14 13 -34 14h-211v0q3 -8 3 -16v-16v0h208v0q15 -1 16 -16v-416v0q-1 -15 -16 -16v0zM555 278q10 11 0 22q-11 10 -22 0l-37 -36v0
v129v0q-1 15 -16 16q-15 -1 -16 -16v-129v0l-37 36v0q-11 10 -22 0q-10 -11 0 -22l64 -64v0q11 -10 22 0l64 64v0zM352 153h-320h320h-320v64v0h32h288v-64v0zM0 217v-64v64v-64q0 -14 9 -23t23 -9h320v0q14 0 23 9t9 23v64v0q0 14 -9 23t-23 9v192v0q0 14 -9 23t-23 9h-256
v0q-14 0 -23 -9t-9 -23v-192v0q-14 0 -23 -9t-9 -23v0zM64 249v192v-192v192h256v0v-192v0h-256v0zM144 281h96h-96h96q15 1 16 16q-1 15 -16 16h-96v0q-15 -1 -16 -16q1 -15 16 -16v0z" />
</svg>
