<?xml version="1.0" standalone="no"?>
<!DOCTYPE svg PUBLIC "-//W3C//DTD SVG 1.1//EN" "http://www.w3.org/Graphics/SVG/1.1/DTD/svg11.dtd" >
<svg xmlns="http://www.w3.org/2000/svg" xmlns:xlink="http://www.w3.org/1999/xlink" version="1.1" viewBox="-10 -40 660 512">
   <path fill="currentColor"
d="M48 -7q-15 1 -16 16q1 15 16 16h64v0v64v0h-64v0q-15 1 -16 16q1 15 16 16h80h464q15 -1 16 -16q-1 -15 -16 -16h-64v0v-64v0h64v0q15 -1 16 -16q-1 -15 -16 -16h-80h-464zM496 25v64v-64v64h-96v0v-64v0h96v0zM368 25v64v-64v64h-96v0v-64v0h96v0zM240 25v64v-64v64h-96
v0v-64v0h96v0zM48 201q-15 1 -16 16q1 15 16 16h16v0q27 1 45 19t19 45v96v0q1 20 14 34q14 13 34 14h32v0q20 -1 34 -14q13 -14 14 -34v-96v0q1 -27 19 -45t45 -19q14 0 25 5q9 -14 20 -26q-21 -11 -45 -11q-41 1 -68 28t-28 68v96v0q-1 15 -16 16h-32v0q-15 -1 -16 -16
v-96v0q-1 -41 -28 -68t-68 -28h-16v0zM496 217q30 0 56 15v0v0q26 15 41 41t15 56t-15 56t-41 41t-56 15t-56 -15t-41 -41t-15 -56t15 -56t41 -41t56 -15v0zM496 473q39 0 72 -19v0v0q33 -19 53 -53q19 -34 19 -72t-19 -72q-20 -34 -53 -53t-72 -19t-72 19t-53 53
q-19 34 -19 72t19 72q20 34 53 53t72 19v0zM541 286l-61 60l61 -60l-61 60l-29 -28v0q-11 -10 -22 0q-10 11 0 22l40 40v0q11 10 22 0l72 -72v0q10 -11 0 -22q-11 -10 -22 0v0z" />
</svg>
