<?xml version="1.0" standalone="no"?>
<!DOCTYPE svg PUBLIC "-//W3C//DTD SVG 1.1//EN" "http://www.w3.org/Graphics/SVG/1.1/DTD/svg11.dtd" >
<svg xmlns="http://www.w3.org/2000/svg" xmlns:xlink="http://www.w3.org/1999/xlink" version="1.1" viewBox="-11 0 597 512">
   <path fill="currentColor"
d="M157 64l34 -81l-34 81l34 -81q4 -14 -9 -21q-14 -4 -21 9l-33 79v0l-33 -79v0q-7 -13 -21 -9q-13 7 -9 21l34 81v0q-21 11 -30 33h-32v0l-5 -27v0q-5 -14 -19 -13q-14 5 -13 19l8 40v0q4 12 16 13h40v0v50v0l-45 15v0q-9 3 -11 13l-8 56v0q-1 14 14 18q14 1 18 -14l6 -46
v0l31 -10v0q18 36 59 38q42 -2 59 -38l31 10v0l6 46v0q4 14 18 14q14 -4 14 -18l-8 -56v0q-2 -10 -11 -13l-45 -15v0v-50v0h40v0q12 -1 16 -13l8 -40v0q1 -15 -13 -19q-15 -1 -19 13l-5 27v0h-32v0q-9 -22 -30 -33v0zM160 185q0 14 -9 23v0v0q-9 9 -23 9t-23 -9t-9 -23v-64
v0q0 -14 9 -23t23 -9t23 9t9 23v64v0zM492 240l70 -52l-70 52l70 -52q11 -10 3 -23q-10 -11 -22 -3l-69 52v0l11 -85v0q1 -15 -14 -18q-15 -1 -18 14l-11 87v0q-23 -1 -43 13l-27 -16v0l9 -26v0q3 -14 -10 -20q-14 -4 -20 10l-13 38v0q-4 12 7 19l34 20v0l-24 43v0l-47 -9v0
q-10 -1 -16 6l-35 44v0q-8 13 3 23q12 8 23 -3l28 -37v0l32 7v0q-3 40 32 62q37 19 70 -3l21 24v0l-17 43v0q-4 14 9 21q14 4 21 -9l21 -52v0q3 -9 -3 -17l-32 -35v0l25 -44v0l35 20v0q11 6 20 -3l27 -30v0q8 -12 -2 -23q-12 -9 -22 1l-19 21v0l-27 -16v0q3 -23 -10 -44v0z
M435 347q-7 12 -20 15v0v0q-12 3 -24 -3q-12 -7 -15 -20q-3 -12 3 -24l32 -55v0q7 -12 20 -15q12 -4 24 3q11 7 15 19q3 13 -3 25l-32 55v0z" />
</svg>
