<?xml version="1.0" standalone="no"?>
<!DOCTYPE svg PUBLIC "-//W3C//DTD SVG 1.1//EN" "http://www.w3.org/Graphics/SVG/1.1/DTD/svg11.dtd" >
<svg xmlns="http://www.w3.org/2000/svg" xmlns:xlink="http://www.w3.org/1999/xlink" version="1.1" viewBox="-10 -40 660 512">
   <path fill="currentColor"
d="M64 -7h256h-256h256q14 0 23 9t9 23v203v0q14 -20 32 -35v-168v0q-1 -27 -19 -45t-45 -19h-256v0q-27 1 -45 19t-19 45v384v0q1 27 19 45t45 19h64h192q30 -1 49 -22q-12 -13 -21 -27q-9 16 -28 17h-64v0v-64v0q-1 -27 -19 -45t-45 -19q-27 1 -45 19t-19 45v64v0h-64v0
q-14 0 -23 -9t-9 -23v-384v0q0 -14 9 -23t23 -9v0zM224 377v64v-64v64h-64v0v-64v0q0 -14 9 -23t23 -9t23 9t9 23v0zM64 81v48v-48v48q2 22 24 24h48v0q22 -2 24 -24v-48v0q-2 -22 -24 -24h-48v0q-22 2 -24 24v0zM96 89h32h-32h32v32v0h-32v0v-32v0zM248 57q-22 2 -24 24v48
v0q2 22 24 24h48v0q22 -2 24 -24v-48v0q-2 -22 -24 -24h-48v0zM256 121v-32v32v-32h32v0v32v0h-32v0zM64 209v48v-48v48q2 22 24 24h48v0q22 -2 24 -24v-48v0q-2 -22 -24 -24h-48v0q-22 2 -24 24v0zM96 217h32h-32h32v32v0h-32v0v-32v0zM248 185q-22 2 -24 24v48v0
q2 22 24 24h48v0q22 -2 24 -24v-48v0q-2 -22 -24 -24h-48v0zM256 249v-32v32v-32h32v0v32v0h-32v0zM496 217q30 0 56 15v0v0q26 15 41 41t15 56t-15 56t-41 41t-56 15t-56 -15t-41 -41t-15 -56t15 -56t41 -41t56 -15v0zM496 473q39 0 72 -19v0v0q33 -19 53 -53
q19 -34 19 -72t-19 -72q-20 -34 -53 -53t-72 -19t-72 19t-53 53q-19 34 -19 72t19 72q20 34 53 53t72 19v0zM563 286q-11 -10 -22 0l-61 60v0l-29 -28v0q-11 -10 -22 0q-10 11 0 22l40 40v0q11 10 22 0l72 -72v0q10 -11 0 -22v0z" />
</svg>
