<?xml version="1.0" standalone="no"?>
<!DOCTYPE svg PUBLIC "-//W3C//DTD SVG 1.1//EN" "http://www.w3.org/Graphics/SVG/1.1/DTD/svg11.dtd" >
<svg xmlns="http://www.w3.org/2000/svg" xmlns:xlink="http://www.w3.org/1999/xlink" version="1.1" viewBox="-10 -40 404 512">
   <path fill="currentColor"
d="M320 -7h-256h256h-256q-19 1 -28 16h-34v0q6 -21 22 -34q17 -14 40 -14h256v0q23 0 40 14q16 13 22 34h-34v0q-9 -15 -28 -16v0zM0 201h32h-32h32v208v0q0 14 9 23t23 9h64v0v-64v0q1 -27 19 -45t45 -19q27 1 45 19t19 45v64v0h64v0q14 0 23 -9t9 -23v-208v0h32v0v208v0
q-1 27 -19 45t-45 19h-64h-192q-27 -1 -45 -19t-19 -45v-208v0zM192 345q-14 0 -23 9v0v0q-9 9 -9 23v64v0h64v0v-64v0q0 -14 -9 -23t-23 -9v0zM168 41h48h-48h48q15 1 16 16q-1 15 -16 16h-32v0v64v0h16v0v-16v0q1 -15 16 -16q15 1 16 16v24v0q-2 22 -24 24h-32v0
q-22 -2 -24 -24v-88v0q1 -15 16 -16v0zM304 73q-15 1 -16 16v32v0q1 15 16 16q15 -1 16 -16v-32v0q-1 -15 -16 -16v0zM256 89q1 -20 14 -34v0v0q14 -13 34 -14q20 1 34 14q13 14 14 34v32v0q-1 20 -14 34q-14 13 -34 14q-20 -1 -34 -14q-13 -14 -14 -34v-32v0zM61 48l35 52
l-35 -52l35 52v-43v0q1 -15 16 -16q15 1 16 16v96v0q-1 11 -11 15q-12 3 -18 -6l-35 -52v0v43v0q-1 15 -16 16q-15 -1 -16 -16v-96v0q1 -11 11 -15q12 -3 18 6v0zM208 225q2 -22 24 -24h48v0q22 2 24 24v48v0q-2 22 -24 24h-48v0q-22 -2 -24 -24v-48v0zM240 233v32v-32v32
h32v0v-32v0h-32v0zM104 201h48h-48h48q22 2 24 24v48v0q-2 22 -24 24h-48v0q-22 -2 -24 -24v-48v0q2 -22 24 -24v0zM112 265h32h-32h32v-32v0h-32v0v32v0z" />
</svg>
