<?xml version="1.0" standalone="no"?>
<!DOCTYPE svg PUBLIC "-//W3C//DTD SVG 1.1//EN" "http://www.w3.org/Graphics/SVG/1.1/DTD/svg11.dtd" >
<svg xmlns="http://www.w3.org/2000/svg" xmlns:xlink="http://www.w3.org/1999/xlink" version="1.1" viewBox="-10 -40 404 512">
   <path fill="currentColor"
d="M64 -7q-14 0 -23 9v0v0q-9 9 -9 23v384v0q0 14 9 23t23 9h64v0v-64v0q1 -27 19 -45t45 -19q27 1 45 19t19 45v64v0h64v0q14 0 23 -9t9 -23v-384v0q0 -14 -9 -23t-23 -9h-256v0zM224 377q0 -14 -9 -23v0v0q-9 -9 -23 -9t-23 9t-9 23v64v0h64v0v-64v0zM128 473h-64h64h-64
q-27 -1 -45 -19t-19 -45v-384v0q1 -27 19 -45t45 -19h256v0q27 1 45 19t19 45v384v0q-1 27 -19 45t-45 19h-64h-128zM248 185h48h-48h48q22 2 24 24v48v0q-2 22 -24 24h-48v0q-22 -2 -24 -24v-48v0q2 -22 24 -24v0zM256 249h32h-32h32v-32v0h-32v0v32v0zM64 209
q2 -22 24 -24h48v0q22 2 24 24v48v0q-2 22 -24 24h-48v0q-22 -2 -24 -24v-48v0zM96 217v32v-32v32h32v0v-32v0h-32v0zM237 32l35 52l-35 -52l35 52v-43v0q1 -15 16 -16q15 1 16 16v96v0q-1 11 -11 15q-12 3 -18 -6l-35 -52v0v43v0q-1 15 -16 16q-15 -1 -16 -16v-96v0
q1 -11 11 -15q12 -3 18 6v0zM112 41v64v-64v64q1 15 16 16q15 -1 16 -16v-64v0q1 -15 16 -16q15 1 16 16v64v0q-1 20 -14 34q-14 13 -34 14q-20 -1 -34 -14q-13 -14 -14 -34v-64v0q1 -15 16 -16q15 1 16 16v0z" />
</svg>
