<?xml version="1.0" standalone="no"?>
<!DOCTYPE svg PUBLIC "-//W3C//DTD SVG 1.1//EN" "http://www.w3.org/Graphics/SVG/1.1/DTD/svg11.dtd" >
<svg xmlns="http://www.w3.org/2000/svg" xmlns:xlink="http://www.w3.org/1999/xlink" version="1.1" viewBox="-10 -40 660 512">
   <path fill="currentColor"
d="M64 -7h256h-256h256q14 0 23 9t9 23v329v0q14 -15 32 -25v-96v0v-208v0q-1 -27 -19 -45t-45 -19h-256v0q-27 1 -45 19t-19 45v384v0q1 27 19 45t45 19h64h192q5 0 10 -1q-9 -14 -10 -31v0v0h-64v0v-64v0q-1 -27 -19 -45t-45 -19q-27 1 -45 19t-19 45v64v0h-64v0
q-14 0 -23 -9t-9 -23v-384v0q0 -14 9 -23t23 -9v0zM224 377v64v-64v64h-64v0v-64v0q0 -14 9 -23t23 -9t23 9t9 23v0zM64 81v48v-48v48q2 22 24 24h48v0q22 -2 24 -24v-48v0q-2 -22 -24 -24h-48v0q-22 2 -24 24v0zM96 89h32h-32h32v32v0h-32v0v-32v0zM248 57q-22 2 -24 24v48
v0q2 22 24 24h48v0q22 -2 24 -24v-48v0q-2 -22 -24 -24h-48v0zM256 121v-32v32v-32h32v0v32v0h-32v0zM64 209v48v-48v48q2 22 24 24h48v0q22 -2 24 -24v-48v0q-2 -22 -24 -24h-48v0q-22 2 -24 24v0zM96 217h32h-32h32v32v0h-32v0v-32v0zM248 185q-22 2 -24 24v48v0
q2 22 24 24h48v0q22 -2 24 -24v-48v0q-2 -22 -24 -24h-48v0zM256 249v-32v32v-32h32v0v32v0h-32v0zM448 233q1 -27 24 -42q24 -12 48 0q23 15 24 42q-1 27 -24 42q-24 12 -48 0q-23 -15 -24 -42v0zM576 233q-1 -45 -40 -69q-40 -22 -80 0q-39 24 -40 69q1 45 40 69
q40 22 80 0q39 -24 40 -69v0zM384 438q1 -26 18 -43v0v0q17 -17 43 -18h102v0q26 1 43 18t18 43q0 3 -3 3h-218v0q-3 0 -3 -3v0zM445 345q-39 1 -66 27v0v0q-26 27 -27 66q0 15 10 25t25 10h218v0q15 0 25 -10t10 -25q-1 -39 -27 -66q-27 -26 -66 -27h-51h-51z" />
</svg>
