<?xml version="1.0" standalone="no"?>
<!DOCTYPE svg PUBLIC "-//W3C//DTD SVG 1.1//EN" "http://www.w3.org/Graphics/SVG/1.1/DTD/svg11.dtd" >
<svg xmlns="http://www.w3.org/2000/svg" xmlns:xlink="http://www.w3.org/1999/xlink" version="1.1" viewBox="-10 -40 532 512">
   <path fill="currentColor"
d="M147 172q4 -15 -4 -28l-88 -128v0l128 88v0q13 8 28 4q15 -6 20 -21l25 -76v0l27 83v0q4 13 16 19q13 6 25 1l55 -20v0l-20 55v0q-5 12 1 25q6 12 19 16l83 27v0l-80 26v0q-14 5 -19 18q-6 14 1 27l41 78v0l-78 -41v0q-13 -7 -27 -1t-18 20l-26 79v0l-26 -80v0
q-5 -14 -18 -19q-14 -6 -27 1l-78 41v0l41 -78v0q7 -13 1 -27t-19 -18l-80 -26v0l76 -25v0q15 -5 21 -20v0zM173 58l-135 -93l135 93l-135 -93q-17 -9 -31 3q-12 14 -3 31l93 135v0l19 28v0l-31 10v0l-68 22v0q-16 6 -17 23q1 17 17 23l72 23v0l31 10v0l-15 29v0l-38 72v0
q-7 15 4 28q13 11 28 4l72 -38v0l29 -15v0l10 31v0l23 72v0q6 16 23 17q17 -1 23 -17l23 -72v0l10 -31v0l29 15v0l72 38v0q15 7 28 -4q11 -13 4 -28l-38 -72v0l-15 -29v0l31 -10v0l72 -23v0q16 -6 17 -23q-1 -17 -17 -23l-76 -24v0l-30 -10v0l11 -30v0l14 -41v0
q5 -14 -5 -25q-11 -10 -25 -6l-41 15v0l-30 11v0l-10 -30v0l-24 -76v0q-6 -16 -23 -17q-17 1 -23 17l-22 68v0l-10 31v0l-28 -19v0z" />
</svg>
