<?xml version="1.0" standalone="no"?>
<!DOCTYPE svg PUBLIC "-//W3C//DTD SVG 1.1//EN" "http://www.w3.org/Graphics/SVG/1.1/DTD/svg11.dtd" >
<svg xmlns="http://www.w3.org/2000/svg" xmlns:xlink="http://www.w3.org/1999/xlink" version="1.1" viewBox="-10 -40 532 512">
   <path fill="currentColor"
d="M256 -7q-63 1 -113 31v0v0q-51 29 -80 80v0v0q-30 50 -31 113v240v0q-1 15 -16 16q-15 -1 -16 -16v-240v0q1 -72 35 -129q34 -58 92 -92q57 -34 129 -35q72 1 129 35q58 34 92 92q34 57 35 129v240v0q-1 15 -16 16q-15 -1 -16 -16v-240v0q-1 -63 -31 -113
q-29 -51 -80 -80q-50 -30 -113 -31v0zM175 228l-19 54l19 -54l-19 54q6 -1 12 -1h176v0q6 0 12 1l-19 -54v0q-4 -10 -15 -11h-132v0q-11 1 -15 11v0zM114 306l31 -89l-31 89l31 -89q12 -30 45 -32h132v0q33 2 46 32l31 89v0q16 19 17 47v104v0q-1 15 -16 16q-15 -1 -16 -16
v-16v0h-256v0v16v0q-1 15 -16 16q-15 -1 -16 -16v-104v0q1 -28 18 -47v0zM128 409h256h-256h256v-56v0q0 -17 -12 -28q-11 -12 -28 -12h-176v0q-17 0 -28 12q-12 11 -12 28v56v0zM160 361q2 -22 24 -24q22 2 24 24q-2 22 -24 24q-22 -2 -24 -24v0zM328 337q22 2 24 24
q-2 22 -24 24q-22 -2 -24 -24q2 -22 24 -24v0z" />
</svg>
