<?xml version="1.0" standalone="no"?>
<!DOCTYPE svg PUBLIC "-//W3C//DTD SVG 1.1//EN" "http://www.w3.org/Graphics/SVG/1.1/DTD/svg11.dtd" >
<svg xmlns="http://www.w3.org/2000/svg" xmlns:xlink="http://www.w3.org/1999/xlink" version="1.1" viewBox="-10 -40 650 512">
   <path fill="currentColor"
d="M192 25q0 -14 -9 -23v0v0q-9 -9 -23 -9t-23 9t-9 23t9 23t23 9t23 -9t9 -23v0zM96 25q1 -36 32 -55q32 -18 64 0q31 19 32 55q-1 36 -32 55q-32 18 -64 0q-31 -19 -32 -55v0zM512 25q0 -14 -9 -23v0v0q-9 -9 -23 -9t-23 9t-9 23t9 23t23 9t23 -9t9 -23v0zM416 25
q1 -36 32 -55q32 -18 64 0q31 19 32 55q-1 36 -32 55q-32 18 -64 0q-31 -19 -32 -55v0zM480 153q-18 0 -32 10v150v0h64v0v-150v0q-14 -10 -32 -10v0zM448 457q-1 15 -16 16q-15 -1 -16 -16v-253v0l-42 69v0q-9 12 -22 6q-12 -9 -6 -22l57 -93v0q27 -42 77 -43q50 1 77 43
l57 93v0q6 13 -6 22q-13 6 -22 -6l-42 -69v0v253v0q-1 15 -16 16q-15 -1 -16 -16v-112v0h-64v0v112v0zM96 361h-24h24h-24q-8 0 -13 -6q-4 -7 -2 -14l38 -141v0l-50 74v0q-9 11 -22 4q-11 -9 -4 -22l61 -92v0q27 -39 74 -43h5h1h1h4h1q47 4 74 43l61 92v0q7 13 -4 22
q-13 7 -22 -4l-50 -74v0l38 141v0q2 7 -2 14q-5 6 -13 6h-24v0v96v0q-1 15 -16 16q-15 -1 -16 -16v-96v0h-64v0v96v0q-1 15 -16 16q-15 -1 -16 -16v-96v0zM157 153q-17 2 -22 18l-42 158v0h134v0l-42 -158v0q-5 -16 -22 -18h-3h-4h1z" />
</svg>
