<?xml version="1.0" standalone="no"?>
<!DOCTYPE svg PUBLIC "-//W3C//DTD SVG 1.1//EN" "http://www.w3.org/Graphics/SVG/1.1/DTD/svg11.dtd" >
<svg xmlns="http://www.w3.org/2000/svg" xmlns:xlink="http://www.w3.org/1999/xlink" version="1.1" viewBox="-10 -40 522 512">
   <path fill="currentColor"
d="M376 83v0v0v0q11 6 24 6q4 0 8 -1v0v0q17 -3 28 -16q12 -13 12 -31q-1 -20 -14 -34q-14 -13 -34 -14q-20 1 -34 14q-13 14 -14 34v1v1v0v0q1 17 12 30v0v0q5 6 12 10v0zM370 115q-23 -9 -37 -30l-174 70v0q1 7 1 14q0 22 -10 40l138 120v0q19 -15 46 -16l36 -198v0z
M366 319q22 9 36 29v0v0q14 19 14 45q-1 34 -23 57q-23 22 -57 23q-34 -1 -57 -23q-22 -23 -23 -57q0 -22 11 -40l-138 -120v0q-21 16 -49 16q-34 -1 -57 -23q-22 -23 -23 -57q1 -34 23 -57q23 -22 57 -23q44 2 67 36l174 -70v0q-1 -7 -1 -14q1 -34 23 -57q23 -22 57 -23
q34 1 57 23q22 23 23 57q-1 34 -23 56t-55 24l-36 198v0zM120 196q1 -2 2 -3q6 -11 6 -24q-1 -20 -14 -34q-14 -14 -34 -14t-34 14q-13 14 -14 34q1 20 14 34q14 13 34 14q13 0 24 -6v0v0q9 -6 16 -15v0zM291 375q-3 9 -3 18q1 20 14 34q14 13 34 14q20 -1 34 -14
q13 -14 14 -34q-1 -20 -14 -34q-14 -13 -34 -14q-22 1 -35 16q-4 4 -7 9q-2 3 -3 5v0v0z" />
</svg>
