<?xml version="1.0" standalone="no"?>
<!DOCTYPE svg PUBLIC "-//W3C//DTD SVG 1.1//EN" "http://www.w3.org/Graphics/SVG/1.1/DTD/svg11.dtd" >
<svg xmlns="http://www.w3.org/2000/svg" xmlns:xlink="http://www.w3.org/1999/xlink" version="1.1" viewBox="-10 -40 596 512">
   <path fill="currentColor"
d="M64 441h232h-232h232q15 18 34 31q-5 1 -10 1h-256v0q-27 -1 -45 -19t-19 -45v-384v0q1 -27 19 -45t45 -19h156v0q20 0 34 14l116 116v0q14 14 14 34v34v0q-17 5 -32 13v-19v0h-112v0q-20 -1 -34 -14q-13 -14 -14 -34v-112v0h-128v0q-14 0 -23 9t-9 23v384v0q0 14 9 23
t23 9v0zM352 121q-2 -4 -5 -7l-116 -116v0q-3 -3 -7 -4v111v0q1 15 16 16h112v0zM432 441q30 0 56 -15v0v0q26 -15 41 -41t15 -56t-15 -56t-41 -41t-56 -15t-56 15t-41 41t-15 56t15 56t41 41t56 15v0zM432 185q39 0 72 19v0v0q33 19 53 53q19 34 19 72t-19 72
q-20 34 -53 53t-72 19t-72 -19t-53 -53q-19 -34 -19 -72t19 -72q20 -34 53 -53t72 -19v0zM512 329q-1 15 -16 16h-128v0q-15 -1 -16 -16q1 -15 16 -16h128v0q15 1 16 16v0z" />
</svg>
