<?xml version="1.0" standalone="no"?>
<!DOCTYPE svg PUBLIC "-//W3C//DTD SVG 1.1//EN" "http://www.w3.org/Graphics/SVG/1.1/DTD/svg11.dtd" >
<svg xmlns="http://www.w3.org/2000/svg" xmlns:xlink="http://www.w3.org/1999/xlink" version="1.1" viewBox="-10 -40 596 512">
   <path fill="currentColor"
d="M64 441h232h-232h232q15 18 34 31q-5 1 -10 1h-256v0q-27 -1 -45 -19t-19 -45v-384v0q1 -27 19 -45t45 -19h156v0q20 0 34 14l116 116v0q14 14 14 34v34v0q-17 5 -32 13v-19v0h-112v0q-20 -1 -34 -14q-13 -14 -14 -34v-112v0h-128v0q-14 0 -23 9t-9 23v384v0q0 14 9 23
t23 9v0zM352 121q-2 -4 -5 -7l-116 -116v0q-3 -3 -7 -4v111v0q1 15 16 16h112v0zM544 329q0 -30 -15 -56v0v0q-15 -26 -41 -41t-56 -15t-56 15t-41 41t-15 56t15 56t41 41t56 15t56 -15t41 -41t15 -56v0zM288 329q0 -39 19 -72v0v0q19 -33 53 -53q34 -19 72 -19t72 19
q34 20 53 53t19 72t-19 72t-53 53q-34 19 -72 19t-72 -19q-34 -20 -53 -53t-19 -72v0zM432 377q15 1 16 16q-1 15 -16 16q-15 -1 -16 -16q1 -15 16 -16v0zM368 291q0 -18 12 -30v0v0q12 -12 30 -12h40v0q20 0 33 13t13 33q-1 27 -24 41l-24 12v0q-3 12 -16 13
q-14 -2 -16 -16v-7v0q0 -9 9 -14l32 -17v0q7 -4 7 -12q-1 -13 -14 -14h-40v0q-9 1 -10 10v6v0q-1 15 -16 16q-15 -1 -16 -16v-6v0z" />
</svg>
