<?xml version="1.0" standalone="no"?>
<!DOCTYPE svg PUBLIC "-//W3C//DTD SVG 1.1//EN" "http://www.w3.org/Graphics/SVG/1.1/DTD/svg11.dtd" >
<svg xmlns="http://www.w3.org/2000/svg" xmlns:xlink="http://www.w3.org/1999/xlink" version="1.1" viewBox="-10 -40 596 512">
   <path fill="currentColor"
d="M248 109q21 -11 18 -35l-10 -49v0l78 58v0q7 6 17 7q71 8 120 47q27 21 45 42q19 22 28 38q-9 16 -28 38q-18 21 -45 42q-49 39 -120 48q-10 0 -17 6l-78 58v0l10 -49v0q3 -23 -18 -35q-26 -12 -47 -28t-37 -33q-17 -16 -39 -5l-93 54v0l46 -80v0q8 -16 0 -32l-46 -80v0
l93 54v0q22 11 39 -5q16 -17 37 -33t47 -28v0zM10 98q-16 18 -6 39l46 80v0l-46 80v0q-10 21 6 39q17 15 38 5l93 -55v0q18 19 41 37q23 17 52 31l-9 49v0q-4 21 14 33q18 11 36 -1l78 -59v0q41 -3 76 -18q34 -15 61 -35q29 -23 50 -47t32 -43q8 -16 0 -32q-11 -19 -32 -43
t-50 -47q-27 -20 -61 -35q-35 -15 -76 -18l-78 -59v0q-17 -12 -36 -1q-18 12 -14 33l9 49v0q-29 14 -52 31q-23 18 -41 37l-93 -55v0q-21 -10 -38 5v0zM416 241q22 -2 24 -24q-2 -22 -24 -24q-22 2 -24 24q2 22 24 24v0z" />
</svg>
