<?xml version="1.0" standalone="no"?>
<!DOCTYPE svg PUBLIC "-//W3C//DTD SVG 1.1//EN" "http://www.w3.org/Graphics/SVG/1.1/DTD/svg11.dtd" >
<svg xmlns="http://www.w3.org/2000/svg" xmlns:xlink="http://www.w3.org/1999/xlink" version="1.1" viewBox="-10 -40 650 512">
   <path fill="currentColor"
d="M17 9q0 -21 14 -34v0v0q14 -14 35 -14q20 1 33 15q13 15 14 35l-1 105v0l62 73v0q6 6 12 1q6 -4 2 -12l-29 -39v0q-10 -14 -10 -31q1 -17 12 -30q20 -20 42 -16q21 4 33 20l42 58v0q25 34 26 77v96v0h32v0v-96v0q0 -43 26 -77l42 -58v0q11 -16 33 -20q21 -4 41 16
q12 13 12 30q1 17 -9 31l-29 39v0q-4 8 2 12q6 5 12 -1l62 -73v0l-1 -105v0q1 -21 14 -35t33 -15q21 0 35 14q13 13 14 34l1 138v0q0 17 -11 30l-107 134v0v1q-1 0 -1 1h23v0q15 1 16 16q-1 15 -16 16h-416v0q-15 -1 -16 -16q1 -15 16 -16h23v0l-2 -2l-106 -134v0
q-11 -13 -11 -30l1 -138v0zM170 313h102h-102h102v-96v0q0 -32 -20 -58l-42 -58v0q-10 -12 -22 -4q-12 11 -4 22l31 43v0v0q12 21 2 39q-11 18 -32 21q-21 4 -40 -17l-58 -69v0q-7 -9 -7 -20l1 -106v0q-2 -17 -16 -17t-16 16l-1 138v0q0 6 4 10l106 134v0q8 9 12 22v0z
M481 291l107 -134l-107 134l107 -134q4 -4 4 -10l-1 -138v0q-2 -16 -16 -16t-16 17l1 106v0q0 11 -8 20l-57 69v0q-19 21 -40 17q-21 -3 -32 -21t1 -39q1 0 1 -1l30 -42v0q8 -11 -3 -22q-12 -8 -22 4l-43 58v0q-19 26 -19 58v96v0h102v0q4 -12 12 -22h-1zM112 377h416h-416
h416q15 1 16 16q-1 15 -16 16h-32v0v48v0q-1 15 -16 16q-15 -1 -16 -16v-48v0h-96v0v48v0q-1 15 -16 16q-15 -1 -16 -16v-48v0h-32v0v48v0q-1 15 -16 16q-15 -1 -16 -16v-48v0h-96v0v48v0q-1 15 -16 16q-15 -1 -16 -16v-48v0h-32v0q-15 -1 -16 -16q1 -15 16 -16v0z" />
</svg>
