<?xml version="1.0" standalone="no"?>
<!DOCTYPE svg PUBLIC "-//W3C//DTD SVG 1.1//EN" "http://www.w3.org/Graphics/SVG/1.1/DTD/svg11.dtd" >
<svg xmlns="http://www.w3.org/2000/svg" xmlns:xlink="http://www.w3.org/1999/xlink" version="1.1" viewBox="-10 -40 596 512">
   <path fill="currentColor"
d="M244 92l-12 -14l12 14l-12 -14l-4 -5v0q-20 -22 -47 -31q-28 -9 -57 -4q-41 8 -66 38t-26 72v3v0q1 51 37 86l184 171v0q1 1 3 1t3 -1l11 -10v0q6 15 16 29l-5 4v0q-2 1 -3 2q-10 8 -22 8q-14 0 -25 -10l-184 -171v0q-5 -5 -10 -11q-36 -42 -37 -98v-3v0q1 -53 33 -92
q33 -39 85 -50q64 -10 115 29q10 7 19 17l4 5v0l4 -5v0q6 -7 13 -13q2 -1 3 -2t3 -2q51 -39 115 -29q52 11 85 50q32 39 33 92v3v0q0 11 -1 21q-15 -8 -31 -12v-9v-3v0q-1 -42 -26 -72t-66 -38q-29 -5 -57 4q-27 9 -47 31l-4 5v0l-12 14v0q-5 5 -12 5t-12 -5v0zM544 329
q0 -30 -15 -56v0v0q-15 -26 -41 -41t-56 -15t-56 15t-41 41t-15 56t15 56t41 41t56 15t56 -15t41 -41t15 -56v0zM288 329q0 -39 19 -72v0v0q19 -33 53 -53q34 -19 72 -19t72 19q34 20 53 53t19 72t-19 72t-53 53q-34 19 -72 19t-72 -19q-34 -20 -53 -53t-19 -72v0zM480 248
q7 6 3 15l-31 54v0h36v0q8 0 11 8t-4 14l-96 72v0q-7 5 -15 -1q-7 -7 -3 -15l31 -54v0h-36v0q-8 0 -11 -8t4 -14l96 -72v0q7 -5 15 1v0z" />
</svg>
