<?xml version="1.0" standalone="no"?>
<!DOCTYPE svg PUBLIC "-//W3C//DTD SVG 1.1//EN" "http://www.w3.org/Graphics/SVG/1.1/DTD/svg11.dtd" >
<svg xmlns="http://www.w3.org/2000/svg" xmlns:xlink="http://www.w3.org/1999/xlink" version="1.1" viewBox="-10 -40 596 512">
   <path fill="currentColor"
d="M244 92l-12 -14l12 14l-12 -14l-4 -5v0q-20 -22 -47 -31q-28 -9 -57 -4q-41 8 -66 38t-26 72v3v0q1 51 37 86l184 171v0q1 1 3 1t3 -1l11 -10v0q6 15 16 29l-5 4v0q-2 1 -3 2q-10 8 -22 8q-14 0 -25 -10l-184 -171v0q-5 -5 -10 -11q-36 -42 -37 -98v-3v0q1 -53 33 -92
q33 -39 85 -50q64 -10 115 29q10 7 19 17l4 5v0l4 -5v0q6 -7 13 -13q2 -1 3 -2t3 -2q51 -39 115 -29q52 11 85 50q32 39 33 92v3v0q0 11 -1 21q-15 -8 -31 -12v-9v-3v0q-1 -42 -26 -72t-66 -38q-29 -5 -57 4q-27 9 -47 31l-4 5v0l-12 14v0q-5 5 -12 5t-12 -5v0zM432 441
q30 0 56 -15v0v0q26 -15 41 -41t15 -56t-15 -56t-41 -41t-56 -15t-56 15t-41 41t-15 56t15 56t41 41t56 15v0zM432 185q39 0 72 19v0v0q33 19 53 53q19 34 19 72t-19 72q-20 34 -53 53t-72 19t-72 -19t-53 -53q-19 -34 -19 -72t19 -72q20 -34 53 -53t72 -19v0zM512 329
q-1 15 -16 16h-128v0q-15 -1 -16 -16q1 -15 16 -16h128v0q15 1 16 16v0z" />
</svg>
