<?xml version="1.0" standalone="no"?>
<!DOCTYPE svg PUBLIC "-//W3C//DTD SVG 1.1//EN" "http://www.w3.org/Graphics/SVG/1.1/DTD/svg11.dtd" >
<svg xmlns="http://www.w3.org/2000/svg" xmlns:xlink="http://www.w3.org/1999/xlink" version="1.1" viewBox="-10 -40 586 512">
   <path fill="currentColor"
d="M192 9q-19 0 -32 12v0v0q-13 12 -16 30l304 304v0q14 14 32 14q19 1 34 -12l4 -3v0q14 -14 14 -32q1 -19 -14 -33q-24 -19 -51 -4l-3 2v0q-13 6 -22 -5q-7 -14 5 -23l3 -1v0q22 -14 46 -12t44 19q25 24 25 57q-1 32 -26 56l-4 3v0q-25 21 -56 20q-30 -1 -53 -23
l-309 -310v0q-5 -5 -5 -12q1 -34 23 -56q23 -22 57 -23q25 0 45 14q23 -14 51 -14q40 1 67 28t28 68v12q22 13 35 35t13 49q0 33 -19 58q-10 10 -22 3q-11 -10 -3 -23q12 -16 12 -38q0 -21 -11 -37q-11 -15 -29 -23q-12 -6 -10 -19q2 -8 2 -17q0 -27 -18 -45t-46 -19
q-23 0 -40 15q-11 7 -22 -1q-13 -14 -33 -14v0zM415 25q1 -14 10 -23v0v0q9 -9 22 -9q14 0 23 9t9 23t-9 23t-23 9q-13 0 -22 -9t-10 -23v0zM447 121q0 -14 9 -23v0v0q9 -9 23 -9t23 9t9 23t-9 23t-23 9t-23 -9t-9 -23v0zM55 57l360 361l-360 -361l360 361q15 17 7 35
q-7 18 -29 20h-329v0q-27 -1 -45 -19t-19 -45v-329v0q2 -22 20 -30q18 -7 35 7v0zM32 409q0 14 9 23v0v0q9 9 23 9h329v0l-361 -361v0v329v0z" />
</svg>
