<?xml version="1.0" standalone="no"?>
<!DOCTYPE svg PUBLIC "-//W3C//DTD SVG 1.1//EN" "http://www.w3.org/Graphics/SVG/1.1/DTD/svg11.dtd" >
<svg xmlns="http://www.w3.org/2000/svg" xmlns:xlink="http://www.w3.org/1999/xlink" version="1.1" viewBox="-10 -40 596 512">
   <path fill="currentColor"
d="M297 -36q-9 -6 -18 0l-208 144v0q-11 9 -4 22q9 11 22 4l23 -16v0v102v0q11 2 21 9q5 4 11 7v-140v0l144 -99v0l144 99v0v140v0q6 -3 11 -7q10 -7 21 -9v-102v0l23 16v0q13 7 22 -4q7 -13 -4 -22l-208 -144v0zM134 308q-14 -10 -26 -22q-12 -10 -24 0q-11 12 -26 22
q-19 14 -44 20q-13 3 -14 15q2 17 18 16q35 -8 58 -25q12 -8 20 -15q8 7 20 15q14 10 34 18q19 9 42 9t42 -9q20 -8 34 -18q12 -8 20 -15q8 7 20 15q14 10 34 18q19 9 42 9t42 -9q20 -8 34 -18q12 -8 20 -15q8 7 20 15q23 17 58 25q16 1 18 -16q-1 -12 -14 -15
q-25 -6 -44 -20q-15 -10 -26 -22q-12 -10 -24 0q-11 12 -26 22q-26 19 -58 21q-32 -2 -58 -21q-15 -10 -26 -22q-12 -10 -24 0q-11 12 -26 22q-26 19 -58 21q-32 -2 -58 -21v0zM192 441q-32 -2 -58 -21q-14 -10 -26 -22q-12 -10 -24 0q-11 12 -26 22q-19 14 -44 20
q-13 3 -14 15q2 17 18 16q35 -8 58 -25q12 -8 20 -15q8 7 20 15q14 10 34 18q19 9 42 9t42 -9q20 -8 34 -18q12 -8 20 -15q8 7 20 15q14 10 34 18q19 9 42 9t42 -9q20 -8 34 -18q12 -8 20 -15q8 7 20 15q23 17 58 25q16 1 18 -16q-1 -12 -14 -15q-25 -6 -44 -20
q-15 -10 -26 -22q-12 -10 -24 0q-11 12 -26 22q-26 19 -58 21q-32 -2 -58 -21q-15 -10 -26 -22q-12 -10 -24 0q-11 12 -26 22q-26 19 -58 21v0z" />
</svg>
