<?xml version="1.0" standalone="no"?>
<!DOCTYPE svg PUBLIC "-//W3C//DTD SVG 1.1//EN" "http://www.w3.org/Graphics/SVG/1.1/DTD/svg11.dtd" >
<svg xmlns="http://www.w3.org/2000/svg" xmlns:xlink="http://www.w3.org/1999/xlink" version="1.1" viewBox="-11 0 661 512">
   <path fill="currentColor"
d="M299 -35q-11 -8 -22 0l-272 240v0q-10 11 -1 23q11 10 23 1l37 -33v0v197v0q1 34 23 57q23 22 57 23h251v0q-20 -14 -35 -32h-216v0q-20 -1 -34 -14q-13 -14 -14 -34v-225v0l192 -170v0l178 158v0q15 -3 30 -3q8 0 17 1l-214 -189v0zM368 201h-32h32h-32v-32v0
q0 -14 -9 -23t-23 -9h-32v0q-14 0 -23 9t-9 23v32v0h-32v0q-14 0 -23 9t-9 23v32v0q0 14 9 23t23 9h32v0v32v0q0 14 9 23t23 9h32v0q10 0 18 -5q-2 -13 -2 -27q0 -34 12 -64h-12v0q-15 1 -16 16v48v0h-32v0v-48v0q-1 -15 -16 -16h-48v0v-32v0h48v0q7 0 11 -5q5 -4 5 -11v-48
v0h32v0v48v0q1 15 16 16h29v0q11 -17 26 -31q-4 -1 -7 -1v0zM384 329q0 -30 15 -56v0v0q15 -26 41 -41t56 -15t56 15t41 41t15 56t-15 56t-41 41t-56 15t-56 -15t-41 -41t-15 -56v0zM640 329q0 -39 -19 -72v0v0q-19 -33 -53 -53q-34 -19 -72 -19t-72 19q-34 20 -53 53
t-19 72t19 72t53 53q34 19 72 19t72 -19q34 -20 53 -53t19 -72v0zM519 329l36 -37l-36 37l36 -37q10 -11 0 -22q-11 -10 -22 0l-37 36v0l-37 -36v0q-11 -10 -22 0q-10 11 0 22l36 37v0l-36 37v0q-10 11 0 22q11 10 22 0l37 -36v0l37 36v0q11 10 22 0q10 -11 0 -22l-36 -37v0
z" />
</svg>
