<?xml version="1.0" standalone="no"?>
<!DOCTYPE svg PUBLIC "-//W3C//DTD SVG 1.1//EN" "http://www.w3.org/Graphics/SVG/1.1/DTD/svg11.dtd" >
<svg xmlns="http://www.w3.org/2000/svg" xmlns:xlink="http://www.w3.org/1999/xlink" version="1.1" viewBox="-10 -40 596 512">
   <path fill="currentColor"
d="M32 161q2 -71 52 -118v0v0q50 -48 126 -50q31 0 59 9q14 4 20 -10q3 -14 -10 -20q-33 -11 -69 -11q-89 2 -148 58q-60 57 -62 142q1 84 52 141q50 57 139 59v0h1v0v0h1v0q23 -1 42 -9t33 -18q12 -8 20 -15q8 7 20 15q14 10 34 18q19 9 42 9t42 -9q20 -8 34 -18
q12 -8 20 -15q8 7 20 15q23 17 58 25q16 1 18 -16q-1 -12 -14 -15q-25 -6 -44 -20q-15 -10 -26 -22q-12 -10 -24 0q-11 12 -26 22q-26 19 -58 21q-32 -2 -58 -21q-15 -10 -26 -22q-12 -10 -24 0q-11 12 -26 22q-26 19 -58 21v0v0q-51 -1 -85 -35t-35 -85q1 -51 35 -85
t86 -35q27 0 51 11q13 5 21 -7q5 -14 -8 -22q-30 -14 -64 -14q-65 2 -108 45q-43 42 -45 107v9q-8 -27 -8 -57v0zM352 105l96 -72l-96 72l96 -72l96 72v0v141v0q7 3 15 5q9 2 17 7v-153v0q-1 -16 -13 -26l-96 -71v0q-19 -13 -38 0l-96 72v0q-13 9 -13 25v121v0q2 1 5 3
q13 9 27 14v-138v0zM192 441q-32 -2 -58 -21q-14 -10 -26 -22q-12 -10 -24 0q-11 12 -26 22q-19 14 -44 20q-13 3 -14 15q2 17 18 16q35 -8 58 -25q12 -8 20 -15q8 7 20 15q14 10 34 18q19 9 42 9t42 -9q20 -8 34 -18q12 -8 20 -15q8 7 20 15q14 10 34 18q19 9 42 9t42 -9
q20 -8 34 -18q12 -8 20 -15q8 7 20 15q23 17 58 25q16 1 18 -16q-1 -12 -14 -15q-25 -6 -44 -20q-15 -10 -26 -22q-12 -10 -24 0q-11 12 -26 22q-26 19 -58 21q-32 -2 -58 -21q-15 -10 -26 -22q-12 -10 -24 0q-11 12 -26 22q-26 19 -58 21v0z" />
</svg>
