<?xml version="1.0" standalone="no"?>
<!DOCTYPE svg PUBLIC "-//W3C//DTD SVG 1.1//EN" "http://www.w3.org/Graphics/SVG/1.1/DTD/svg11.dtd" >
<svg xmlns="http://www.w3.org/2000/svg" xmlns:xlink="http://www.w3.org/1999/xlink" version="1.1" viewBox="-10 -40 532 512">
   <path fill="currentColor"
d="M272 -7v32v-32v32h64v0v-32v0h-64v0zM352 57h-80h80h-80v32v0h192v0q15 1 16 16q-1 15 -16 16h-416v0q-15 -1 -16 -16q1 -15 16 -16h192v0v-32v0v-32v0v-40v0v-8v0q1 -15 16 -16h8h88q15 1 16 16v64v0q-1 15 -16 16v0zM48 329q1 -15 16 -16v-160v0h32v0v160v0h80v0v-160
v0h32v0v160v0h96v0v-160v0h32v0v160v0h80v0v-160v0h32v0v160v0q15 1 16 16q-1 15 -16 16h-384v0q-15 -1 -16 -16v0zM24 393q1 -15 16 -16h432v0q15 1 16 16q-1 15 -16 16h-432v0q-15 -1 -16 -16v0zM0 457q1 -15 16 -16h480v0q15 1 16 16q-1 15 -16 16h-480v0q-15 -1 -16 -16
v0z" />
</svg>
