<?xml version="1.0" standalone="no"?>
<!DOCTYPE svg PUBLIC "-//W3C//DTD SVG 1.1//EN" "http://www.w3.org/Graphics/SVG/1.1/DTD/svg11.dtd" >
<svg xmlns="http://www.w3.org/2000/svg" xmlns:xlink="http://www.w3.org/1999/xlink" version="1.1" viewBox="-10 -40 660 512">
   <path fill="currentColor"
d="M528 -39q-15 1 -16 16q1 15 16 16h57v0l-75 76v0q-45 -42 -110 -44q-68 2 -113 47t-47 113q1 64 42 108q40 44 102 51v33v0h-40v0q-15 1 -16 16q1 15 16 16h40v0v48v0q1 15 16 16q15 -1 16 -16v-48v0h40v0q15 -1 16 -16q-1 -15 -16 -16h-40v0v-33v0q62 -7 102 -51
q41 -44 42 -108q-1 -52 -29 -92l77 -77v0v49v0q1 15 16 16q15 -1 16 -16v-88v0q-1 -15 -16 -16h-96v0zM272 185q0 -35 17 -64v0v0q17 -29 47 -47q30 -17 64 -17t64 17q30 18 47 47t17 64t-17 64t-47 47q-30 17 -64 17t-64 -17q-30 -18 -47 -47t-17 -64v0zM176 -31
q-10 0 -14 9l-33 70v0l-74 -18v0q-10 -2 -17 5q-5 8 -1 18l34 68v0l-61 47v0q-7 6 -5 16t12 12l75 16v0l-1 77v0q0 10 9 15q9 3 17 -3l59 -49v0l59 49v0q7 6 15 4q-21 -27 -32 -60l-32 -26v0q-10 -7 -20 0l-43 36v0l1 -56v0q0 -12 -12 -16l-55 -11v0l44 -34v0q10 -8 5 -19
l-25 -50v0l54 13v0q12 3 18 -8l23 -51v0l23 51v0q6 11 19 8l24 -6v0q17 -24 40 -43l-59 15v0l-32 -70v0q-5 -9 -15 -9v0z" />
</svg>
