<?xml version="1.0" standalone="no"?>
<!DOCTYPE svg PUBLIC "-//W3C//DTD SVG 1.1//EN" "http://www.w3.org/Graphics/SVG/1.1/DTD/svg11.dtd" >
<svg xmlns="http://www.w3.org/2000/svg" xmlns:xlink="http://www.w3.org/1999/xlink" version="1.1" viewBox="-10 -40 532 512">
   <path fill="currentColor"
d="M352 -23q1 15 16 16h57v0l-138 138v0l-101 -86v0q-10 -8 -20 0l-112 96v0q-11 11 -2 23q11 10 22 1l102 -87v0l102 87v0q11 8 21 -1l149 -148v0v57v0q1 15 16 16q15 -1 16 -16v-96v0q-1 -15 -16 -16h-96v0q-15 1 -16 16v0zM480 265v32v-32v32q-20 -1 -34 -14
q-13 -14 -14 -34h32v0q15 1 16 16v0zM112 249h288h-288h288q1 34 23 57q23 22 57 23v32v0q-34 1 -57 23q-22 23 -23 57h-288v0q-1 -34 -23 -57q-23 -22 -57 -23v-32v0q34 -1 57 -23q22 -23 23 -57v0zM432 441q1 -20 14 -34v0v0q14 -13 34 -14v32v0q-1 15 -16 16h-32v0z
M32 393q20 1 34 14v0v0q13 14 14 34h-32v0q-15 -1 -16 -16v-32v0zM80 249q-1 20 -14 34v0v0q-14 13 -34 14v-32v0q1 -15 16 -16h32v0zM48 217q-20 1 -34 14v0v0q-13 14 -14 34v160v0q1 20 14 34q14 13 34 14h416v0q20 -1 34 -14q13 -14 14 -34v-160v0q-1 -20 -14 -34
q-14 -13 -34 -14h-416v0zM224 345q0 -14 9 -23v0v0q9 -9 23 -9t23 9t9 23t-9 23t-23 9t-23 -9t-9 -23v0zM320 345q-1 -36 -32 -55q-32 -18 -64 0q-31 19 -32 55q1 36 32 55q32 18 64 0q31 -19 32 -55v0z" />
</svg>
