<?xml version="1.0" standalone="no"?>
<!DOCTYPE svg PUBLIC "-//W3C//DTD SVG 1.1//EN" "http://www.w3.org/Graphics/SVG/1.1/DTD/svg11.dtd" >
<svg xmlns="http://www.w3.org/2000/svg" xmlns:xlink="http://www.w3.org/1999/xlink" version="1.1" viewBox="-10 -40 660 512">
   <path fill="currentColor"
d="M182 -36q-10 11 -2 23l42 56v0l-28 55v0q-5 10 3 19l45 45v0l-163 25v0q-34 5 -56 32q-22 26 -23 62q1 43 27 69q27 25 62 26q36 2 66 -28l117 -107v0v24v0l-44 53v0q-4 5 -4 11v58v0l-44 59v0q-8 13 2 23q13 8 22 -3l48 -64v0q4 -4 4 -10v-57v0l16 -20v0v46v0
q1 20 14 33q14 14 34 15q20 -1 34 -15q13 -13 14 -33v-46v0l16 20v0v57v0q0 6 4 10l48 64v0q9 11 22 3q10 -10 2 -23l-44 -59v0v-58v0q0 -6 -4 -11l-44 -53v0v-24v0l117 107v0q30 30 66 28q35 -1 62 -26q26 -26 27 -69q-1 -36 -23 -63q-22 -26 -56 -31l-163 -25v0l45 -45v0
q8 -9 3 -19l-27 -55v0l42 -56v0q7 -13 -3 -23q-13 -8 -22 3l-48 64v0q-6 8 -2 18l27 53v0l-45 44v0v-9v0q0 -18 -11 -31q-12 -13 -29 -16v-65v0q-1 -8 -8 -8t-8 8v65v0q-17 3 -29 16q-11 13 -11 31v9v0l-45 -44v0l27 -53v0q4 -10 -1 -18l-48 -64v0q-10 -11 -23 -3v0z
M272 198l-139 127l139 -127l-139 127l-1 1v0q-30 27 -63 14q-34 -14 -37 -59q1 -25 15 -42q15 -17 37 -20v0v0l186 -29v0l2 2v0v6v0zM507 325l-139 -127l139 127l-139 -127v-6v0l2 -2v0l186 29v0v0h1q21 3 36 20q14 17 15 42q-3 45 -37 59q-33 13 -62 -14q-1 0 -2 -1v0z
M304 361v-224v224v-224q1 -15 16 -16q15 1 16 16v224v0q-1 14 -16 16q-15 -2 -16 -16v0z" />
</svg>
