<?xml version="1.0" standalone="no"?>
<!DOCTYPE svg PUBLIC "-//W3C//DTD SVG 1.1//EN" "http://www.w3.org/Graphics/SVG/1.1/DTD/svg11.dtd" >
<svg xmlns="http://www.w3.org/2000/svg" xmlns:xlink="http://www.w3.org/1999/xlink" version="1.1" viewBox="-10 -40 586 512">
   <path fill="currentColor"
d="M513 345h-450h450h-450l109 -189v0q18 -31 49 -49t67 -18t67 18t49 49l109 189v0zM288 57q-45 0 -83 22v0v0q-38 22 -61 61l-108 189v0q-9 17 0 32q8 15 27 16h450v0q19 -1 27 -16q9 -15 0 -32l-108 -189v0q-23 -39 -61 -61t-83 -22v0z" />
</svg>
