<?xml version="1.0" standalone="no"?>
<!DOCTYPE svg PUBLIC "-//W3C//DTD SVG 1.1//EN" "http://www.w3.org/Graphics/SVG/1.1/DTD/svg11.dtd" >
<svg xmlns="http://www.w3.org/2000/svg" xmlns:xlink="http://www.w3.org/1999/xlink" version="1.1" viewBox="-10 -40 596 512">
   <path fill="currentColor"
d="M104 17q-2 -22 -24 -24q-22 2 -24 24q2 22 24 24q22 -2 24 -24v0zM24 17q1 -32 28 -48q28 -16 56 0q27 16 28 48q-1 32 -28 48q-28 16 -56 0q-27 -16 -28 -48v0zM34 130q-2 3 -2 7v160v0q-1 15 -16 16q-15 -1 -16 -16v-160v0q1 -20 14 -34q14 -13 34 -14h63v0q25 0 46 15
l122 87v0q19 -52 67 -79l12 -7v0q30 -16 64 -16q28 0 50 16t31 43l17 51v0q6 16 19 25l30 20v0q11 9 4 22q-9 11 -22 4l-30 -19v0q-22 -16 -31 -42l-9 -26v0l-38 109v0l44 38v0q7 6 10 15l30 108v0q3 14 -11 19q-14 3 -19 -11l-31 -107v0l-101 -87v0q-22 -21 -14 -51l27 -85
v0l-4 2l-13 7v0q-42 24 -55 71l-2 9v0q-1 2 -1 3q-1 3 -4 5q-5 5 -12 5q-3 0 -6 -2q-1 0 -2 -1l-131 -93v0l76 316v0q2 15 -12 20q-15 2 -20 -12l-35 -148v0h-56v0l27 141v0q1 15 -13 19q-15 1 -19 -13l-62 -330v0zM113 125q-1 -2 -1 -4h-1v0h-47v0l31 160v0h55v0l-38 -156
h1zM480 17q-2 -22 -24 -24q-22 2 -24 24q2 22 24 24q22 -2 24 -24v0zM400 17q1 -32 28 -48q28 -16 56 0q27 16 28 48q-1 32 -28 48q-28 16 -56 0q-27 -16 -28 -48v0zM382 226q-3 10 4 17l31 26v0l45 -130v0q-16 -17 -40 -18h-4h-4l-32 105v0zM375 315q13 8 7 21l-30 62v0
q-3 5 -6 8l-63 62v0q-11 10 -22 0q-10 -11 0 -22l62 -62v0l31 -62v0q8 -13 21 -7v0z" />
</svg>
