<?xml version="1.0" standalone="no"?>
<!DOCTYPE svg PUBLIC "-//W3C//DTD SVG 1.1//EN" "http://www.w3.org/Graphics/SVG/1.1/DTD/svg11.dtd" >
<svg xmlns="http://www.w3.org/2000/svg" xmlns:xlink="http://www.w3.org/1999/xlink" version="1.1" viewBox="-10 -40 586 512">
   <path fill="currentColor"
d="M400 105q42 -1 73 -25v0v0q32 -24 43 -63l13 -44v0q5 -14 19 -11q14 5 11 19l-12 44v0q-21 68 -83 98v334v0q-1 15 -16 16q-14 -1 -16 -16v-144v0h-64v0v144v0q-1 15 -16 16q-15 -1 -16 -16v-334v0q-62 -30 -83 -98l-12 -44v0q-3 -14 11 -19q14 -3 19 11l13 44v0
q11 39 43 63q31 24 73 25v0zM432 134q-16 3 -32 3t-32 -3v147v0h64v0v-147v0zM85 105q35 1 56 28l51 68v0h48v0q15 1 16 16q-1 15 -16 16h-56v0q-8 0 -13 -6l-56 -75v0q-11 -15 -30 -15q-16 0 -26 11q-11 10 -11 26v107v0h64v0v-40v0q1 -15 16 -16q15 1 16 16v216v0
q-1 15 -16 16q-15 -1 -16 -16v-144v0h-64v0v144v0q-1 15 -16 16q-15 -1 -16 -16v-283v0q1 -29 20 -49q20 -19 49 -20v0zM80 41q22 -2 24 -24q-2 -22 -24 -24q-22 2 -24 24q2 22 24 24v0zM80 -39q32 1 48 28q16 28 0 56q-16 27 -48 28q-32 -1 -48 -28q-16 -28 0 -56
q16 -27 48 -28v0zM424 17q-2 -22 -24 -24q-22 2 -24 24q2 22 24 24q22 -2 24 -24v0zM344 17q1 -32 28 -48q28 -16 56 0q27 16 28 48q-1 32 -28 48q-28 16 -56 0q-27 -16 -28 -48v0z" />
</svg>
