<?xml version="1.0" standalone="no"?>
<!DOCTYPE svg PUBLIC "-//W3C//DTD SVG 1.1//EN" "http://www.w3.org/Graphics/SVG/1.1/DTD/svg11.dtd" >
<svg xmlns="http://www.w3.org/2000/svg" xmlns:xlink="http://www.w3.org/1999/xlink" version="1.1" viewBox="-10 -40 660 512">
   <path fill="currentColor"
d="M168 17q2 -22 24 -24q22 2 24 24q-2 22 -24 24q-22 -2 -24 -24v0zM248 17q-1 -32 -28 -48q-28 -16 -56 0q-27 16 -28 48q1 32 28 48q28 16 56 0q27 -16 28 -48v0zM179 121h45h-45h45v160v0h-64v0v-156v0q9 -4 19 -4v0zM160 457v-144v144v-144h64v0v144v0q1 15 16 16
q15 -1 16 -16v-336v0h144v0q15 -1 16 -16q-1 -15 -16 -16h-48v0v-80v0q1 -15 16 -16h224v0q15 1 16 16v224v0q-1 15 -16 16h-224v0q-15 -1 -16 -16v-80v0h-32v0v80v0q1 20 14 34q14 13 34 14h224v0q20 -1 34 -14q13 -14 14 -34v-224v0q-1 -20 -14 -34q-14 -13 -34 -14h-224
v0q-20 1 -34 14q-13 14 -14 34v80v0h-77h-64q-47 2 -70 42l-59 111v0q-6 13 7 21q13 6 21 -6l50 -94v0v294v0q1 15 16 16q15 -1 16 -16v0z" />
</svg>
