<?xml version="1.0" standalone="no"?>
<!DOCTYPE svg PUBLIC "-//W3C//DTD SVG 1.1//EN" "http://www.w3.org/Graphics/SVG/1.1/DTD/svg11.dtd" >
<svg xmlns="http://www.w3.org/2000/svg" xmlns:xlink="http://www.w3.org/1999/xlink" version="1.1" viewBox="-10 -40 596 512">
   <path fill="currentColor"
d="M160 41q22 -2 24 -24q-2 -22 -24 -24q-22 2 -24 24q2 22 24 24v0zM160 -39q32 1 48 28q16 28 0 56q-16 27 -48 28q-32 -1 -48 -28q-16 -28 0 -56q16 -27 48 -28v0zM128 125v156v-156v156h64v0v-156v0q-9 -4 -19 -4h-26v0q-10 0 -19 4v0zM128 313v144v-144v144
q-1 15 -16 16q-15 -1 -16 -16v-294v0l-50 94v0q-8 12 -22 6q-12 -8 -6 -22l59 -110v0q23 -40 70 -42h26v0q47 2 70 42l49 91v0q-11 15 -19 32l-49 -91v0v294v0q-1 15 -16 16q-15 -1 -16 -16v-144v0h-64v0zM544 329q0 -30 -15 -56v0v0q-15 -26 -41 -41t-56 -15t-56 15t-41 41
t-15 56t15 56t41 41t56 15t56 -15t41 -41t15 -56v0zM288 329q0 -39 19 -72v0v0q19 -33 53 -53q34 -19 72 -19t72 19q34 20 53 53t19 72t-19 72t-53 53q-34 19 -72 19t-72 -19q-34 -20 -53 -53t-19 -72v0zM432 361q22 2 24 24q-2 22 -24 24q-22 -2 -24 -24q2 -22 24 -24v0z
M432 249q15 1 16 16v64v0q-1 15 -16 16q-15 -1 -16 -16v-64v0q1 -15 16 -16v0z" />
</svg>
