<?xml version="1.0" standalone="no"?>
<!DOCTYPE svg PUBLIC "-//W3C//DTD SVG 1.1//EN" "http://www.w3.org/Graphics/SVG/1.1/DTD/svg11.dtd" >
<svg xmlns="http://www.w3.org/2000/svg" xmlns:xlink="http://www.w3.org/1999/xlink" version="1.1" viewBox="-10 -40 650 512">
   <path fill="currentColor"
d="M456 17q2 -22 24 -24q22 2 24 24q-2 22 -24 24q-22 -2 -24 -24v0zM536 17q-1 -32 -28 -48q-28 -16 -56 0q-27 16 -28 48q1 32 28 48q28 16 56 0q27 -16 28 -48v0zM446 224q6 -13 -7 -21q-14 -6 -21 7l-64 128v0q-4 8 0 16q5 7 14 7h48v0v96v0q1 15 16 16q14 -1 16 -16
v-96v0h64v0v96v0q1 15 16 16q15 -1 16 -16v-96v0h48v0q9 0 14 -8q4 -7 0 -15l-64 -128v0q-8 -13 -21 -7q-13 7 -7 21l52 105v0h-38h-134l52 -105v0zM480 121q41 1 61 37l53 99v0q8 12 22 6q12 -8 6 -22l-53 -98v0q-13 -25 -37 -40q-24 -14 -52 -14t-52 14q-24 15 -37 40
l-53 98v0q-6 14 6 22q14 6 22 -6l53 -99v0q20 -36 61 -37v0zM191 -22q-5 -9 -15 -9t-14 9l-33 70v0l-74 -18v0q-10 -2 -17 5q-5 8 -1 18l34 68v0l-61 47v0q-7 6 -5 16t12 12l75 16v0l-1 77v0q0 10 9 15q9 3 17 -3l59 -49v0l59 49v0q8 6 17 3q9 -5 9 -15l-1 -77v0l75 -16v0
q10 -2 13 -12q1 -10 -6 -16l-61 -47v0l34 -69v0q5 -9 -1 -17q-7 -7 -17 -5l-74 18v0l-32 -70v0zM153 74l23 -51l-23 51l23 -51l23 51v0q6 11 19 8l53 -13v0l-25 50v0q-5 11 5 19l44 34v0l-54 11v0q-13 4 -13 16l1 56v0l-43 -36v0q-10 -7 -20 0l-43 36v0l1 -56v0
q0 -12 -12 -16l-55 -11v0l44 -34v0q10 -8 5 -19l-25 -50v0l54 13v0q12 3 18 -8v0z" />
</svg>
