<?xml version="1.0" standalone="no"?>
<!DOCTYPE svg PUBLIC "-//W3C//DTD SVG 1.1//EN" "http://www.w3.org/Graphics/SVG/1.1/DTD/svg11.dtd" >
<svg xmlns="http://www.w3.org/2000/svg" xmlns:xlink="http://www.w3.org/1999/xlink" version="1.1" viewBox="-10 -40 596 512">
   <path fill="currentColor"
d="M216 17q-2 -22 -24 -24q-22 2 -24 24q2 22 24 24q22 -2 24 -24v0zM136 17q1 -32 28 -48q28 -16 56 0q27 16 28 48q-1 32 -28 48q-28 16 -56 0q-27 -16 -28 -48v0zM112 281h64h-64h64v-159v0q-5 -1 -10 -1h-35v0q-10 0 -19 4v156v0zM292 243l-84 -98l84 98l-84 -98v312v0
q-1 15 -16 16q-15 -1 -16 -16v-144v0h-64v0v144v0q-1 15 -16 16q-15 -1 -16 -16v-294v0l-50 94v0q-8 12 -22 6q-12 -8 -6 -22l59 -110v0q23 -40 70 -42h35v0q36 1 60 28l90 106v0q9 12 -2 22q-12 9 -22 -1v-1zM304 -7h56h-56h56q15 1 16 16q-1 15 -16 16h-56v0
q-15 -1 -16 -16q1 -15 16 -16v0zM432 233q22 -2 24 -24q-2 -22 -24 -24q-22 2 -24 24q2 22 24 24v0zM432 153q32 1 48 28q16 28 0 56q-16 27 -48 28q-32 -1 -48 -28q-16 -28 0 -56q16 -27 48 -28v0zM520 249q24 1 40 16v0v0q15 16 16 40v112v0q-1 24 -16 40q-16 15 -40 16
q-39 -1 -64 -31l-54 -68v0l-52 91v0q-9 12 -22 6q-12 -9 -6 -22l64 -112v0q4 -7 13 -8q8 0 14 6l51 66v0v-96v0q1 -24 16 -40q16 -15 40 -16v0zM520 441q22 -2 24 -24v-112v0q-2 -22 -24 -24q-22 2 -24 24v112v0q2 22 24 24v0zM266 66q8 -13 21 -7l48 24v0q13 7 7 21
q-7 13 -21 7l-48 -24v0q-13 -8 -7 -21v0z" />
</svg>
