<?xml version="1.0" standalone="no"?>
<!DOCTYPE svg PUBLIC "-//W3C//DTD SVG 1.1//EN" "http://www.w3.org/Graphics/SVG/1.1/DTD/svg11.dtd" >
<svg xmlns="http://www.w3.org/2000/svg" xmlns:xlink="http://www.w3.org/1999/xlink" version="1.1" viewBox="-10 -40 586 512">
   <path fill="currentColor"
d="M256 20v5v-5v5v0v0h128v0v0v0v-26v0l-128 21v0zM398 56q2 8 2 17q-1 34 -23 57q-23 22 -57 23q-34 -1 -57 -23q-22 -23 -23 -57q0 -9 2 -17q-17 -5 -18 -23v-20v0q1 -19 20 -23l144 -24v0q11 -2 20 5q8 7 8 18v44v0q-1 18 -18 23v0zM365 57h-90h90h-90q-3 8 -3 16
q1 20 14 34q14 13 34 14q20 -1 34 -14q13 -14 14 -34q0 -8 -3 -16v0zM32 201q1 -15 16 -16h192h104v0v0q31 0 57 15q25 15 41 41l100 176v0q6 13 -6 22q-13 6 -22 -6l-98 -172v0v164v0q-1 20 -14 34q-14 13 -34 14h-96v0q-20 -1 -34 -14q-13 -14 -14 -34v-32v0v0v0v-176v0
h-176v0q-15 -1 -16 -16v0zM256 425q1 15 16 16h96v0q15 -1 16 -16v-16v0h-128v0v16v0zM384 257q0 -6 -2 -12l-108 132v0h110v0v-120v0zM344 217h-88h88h-88v131v0l104 -127v0q-7 -4 -16 -4v0z" />
</svg>
