<?xml version="1.0" standalone="no"?>
<!DOCTYPE svg PUBLIC "-//W3C//DTD SVG 1.1//EN" "http://www.w3.org/Graphics/SVG/1.1/DTD/svg11.dtd" >
<svg xmlns="http://www.w3.org/2000/svg" xmlns:xlink="http://www.w3.org/1999/xlink" version="1.1" viewBox="-10 -40 532 512">
   <path fill="currentColor"
d="M176 -6v14v-14v14h-88v0v-2v0l88 -12v0zM181 -39l-104 14l104 -14l-104 14q-20 4 -21 24v17v0q2 22 24 24h104v0q22 -2 24 -24v-31v0q0 -11 -8 -18t-19 -6v0zM352 58q0 -14 9 -23v0v0q9 -9 23 -9t23 9t9 23q0 13 -9 22t-23 10q-14 -1 -23 -10t-9 -22v0zM448 58
q-1 -37 -32 -56q-32 -17 -64 0q-31 19 -32 56q1 36 32 55q32 17 64 0q31 -19 32 -55v0zM320 218q0 -14 9 -23v0v0q9 -9 23 -9h64v0q14 0 23 9t9 23v31v0h-128v0v-31v0zM288 218v31v-31v31q0 14 9 23t23 9h128v0q14 0 23 -9t9 -23v-31v0q-1 -28 -19 -46t-45 -18h-64v0
q-27 0 -45 18t-19 46v0zM117 186h43h-43h43q14 0 23 9t9 23v13v0l-75 -45v0zM161 249h-97h97h-97v-31v0q0 -13 8 -22l89 53v0zM96 154q-27 0 -45 18v0v0q-18 18 -19 46v31v0q0 14 9 23t23 9h128v0q14 0 23 -9t9 -23v-31v0q-1 -28 -19 -46t-45 -18h-64v0zM64 58q1 27 19 45v0
v0q18 18 45 19q27 -1 45 -19t19 -45h-32v0q0 13 -9 22t-23 10q-14 -1 -23 -10t-9 -22h-32v0zM147 317q-12 -9 -23 2q-9 11 1 22l41 36v0h-150v0q-15 1 -16 16q1 15 16 16h150v0l-41 36v0q-10 11 -1 23q11 10 23 1l72 -64v0q5 -5 5 -12t-5 -12l-72 -64v0zM365 317l-72 64
l72 -64l-72 64q-5 5 -5 12t5 12l72 64v0q12 9 23 -1q9 -12 -1 -23l-41 -36v0h150v0q15 -1 16 -16q-1 -14 -16 -16h-150v0l41 -36v0q10 -10 1 -22q-11 -10 -23 -2v0z" />
</svg>
