<?xml version="1.0" standalone="no"?>
<!DOCTYPE svg PUBLIC "-//W3C//DTD SVG 1.1//EN" "http://www.w3.org/Graphics/SVG/1.1/DTD/svg11.dtd" >
<svg xmlns="http://www.w3.org/2000/svg" xmlns:xlink="http://www.w3.org/1999/xlink" version="1.1" viewBox="-10 -40 532 512">
   <path fill="currentColor"
d="M5 -34q-10 11 0 22l96 96v0q11 10 22 0q10 -11 0 -22l-96 -96v0q-11 -10 -22 0v0zM507 -34q-11 -10 -22 0l-96 96v0q-10 11 0 22q11 10 22 0l96 -96v0q10 -11 0 -22v0zM27 468l96 -96l-96 96l96 -96q10 -11 0 -22q-11 -10 -22 0l-96 96v0q-10 11 0 22q11 10 22 0v0z
M507 468q10 -11 0 -22l-96 -96v0q-11 -10 -22 0q-10 11 0 22l96 96v0q11 10 22 0v0zM232 17q2 -22 24 -24q22 2 24 24q-2 22 -24 24q-22 -2 -24 -24v0zM312 17q-1 -32 -28 -48q-28 -16 -56 0q-27 16 -28 48q1 32 28 48q28 16 56 0q27 -16 28 -48v0zM243 121h26h-26h26
q10 0 19 4v156v0h-64v0v-156v0q9 -4 19 -4v0zM224 457v-144v144v-144h64v0v144v0q1 15 16 16q15 -1 16 -16v-294v0l50 94v0q8 12 22 6q12 -8 6 -21l-59 -111v0q-23 -40 -70 -42h-26v0q-47 2 -70 42l-59 111v0q-6 13 7 21q13 6 21 -6l50 -94v0v294v0q1 15 16 16q15 -1 16 -16
v0z" />
</svg>
