<?xml version="1.0" standalone="no"?>
<!DOCTYPE svg PUBLIC "-//W3C//DTD SVG 1.1//EN" "http://www.w3.org/Graphics/SVG/1.1/DTD/svg11.dtd" >
<svg xmlns="http://www.w3.org/2000/svg" xmlns:xlink="http://www.w3.org/1999/xlink" version="1.1" viewBox="-10 -40 660 512">
   <path fill="currentColor"
d="M256 -39q-20 1 -35 13q-14 12 -24 29q-20 34 -21 68v52v0l-152 87v0q-23 14 -24 42v56v0q1 16 13 25t28 6l135 -39v0v37v0l-51 38v0q-13 10 -13 26v42v0q0 13 9 21q8 9 21 9q4 0 8 -1v0v0l106 -30v0l106 30v0v0v0q4 1 8 1q10 0 17 -5q-17 -14 -30 -31l-97 -27v0
q-4 -2 -8 0l-108 30v0v-39v0l58 -43v0q6 -5 6 -13v-66v0q0 -8 -6 -13q-7 -5 -14 -3l-156 45v0v-56v0q0 -9 8 -14l160 -92v0q8 -4 8 -14v-61v0q1 -23 17 -52q8 -13 16 -20q9 -6 15 -6q15 0 32 26q16 29 16 52v61v0q0 9 8 14l76 44v0q15 -11 31 -19l-83 -48v0v-52v0
q-1 -34 -21 -68q-9 -16 -24 -29q-15 -12 -35 -13v0zM496 217q30 0 56 15v0v0q26 15 41 41t15 56t-15 56t-41 41t-56 15t-56 -15t-41 -41t-15 -56t15 -56t41 -41t56 -15v0zM496 473q39 0 72 -19v0v0q33 -19 53 -53q19 -34 19 -72t-19 -72q-20 -34 -53 -53t-72 -19t-72 19
t-53 53q-19 34 -19 72t19 72q20 34 53 53t72 19v0zM563 286q-11 -10 -22 0l-61 60v0l-29 -28v0q-11 -10 -22 0q-10 11 0 22l40 40v0q11 10 22 0l72 -72v0q10 -11 0 -22v0z" />
</svg>
