<?xml version="1.0" standalone="no"?>
<!DOCTYPE svg PUBLIC "-//W3C//DTD SVG 1.1//EN" "http://www.w3.org/Graphics/SVG/1.1/DTD/svg11.dtd" >
<svg xmlns="http://www.w3.org/2000/svg" xmlns:xlink="http://www.w3.org/1999/xlink" version="1.1" viewBox="-10 -40 660 512">
   <path fill="currentColor"
d="M256 -39q-20 1 -35 13q-14 12 -24 29q-20 34 -21 68v52v0l-152 87v0q-23 14 -24 42v56v0q1 16 13 25t28 6l135 -39v0v37v0l-51 38v0q-13 10 -13 26v42v0q0 13 9 21q8 9 21 9q4 0 8 -1v0v0l106 -30v0l106 30v0v0v0q3 1 6 1v-33v0l-108 -30v0q-4 -2 -8 0l-108 30v0v-39v0
l58 -43v0q6 -5 6 -13v-66v0q0 -8 -6 -13q-7 -5 -14 -3l-156 45v0v-56v0q0 -9 8 -14l160 -92v0q8 -4 8 -14v-61v0q1 -23 17 -52q8 -13 16 -20q9 -6 15 -6q15 0 32 26q16 29 16 52v61v0q0 9 8 14l107 61v0q4 -16 12 -30l-95 -54v0v-52v0q-1 -34 -21 -68q-9 -16 -24 -29
q-15 -12 -35 -13v0zM336 337v-37v37v-37l48 14v0v-1v0q0 -17 8 -30l-68 -20v0q-7 -2 -14 3q-6 5 -6 13v66v0q0 8 6 13l58 43v0v-40v0l-32 -24v0zM528 185q20 1 34 14v0v0q13 14 14 34v48v0h-96v0v-48v0q1 -20 14 -34q14 -13 34 -14v0zM448 233v48v-48v48q-14 0 -23 9t-9 23
v128v0q0 14 9 23t23 9h160v0q14 0 23 -9t9 -23v-128v0q0 -14 -9 -23t-23 -9v-48v0q-1 -34 -23 -57q-23 -22 -57 -23q-34 1 -57 23q-22 23 -23 57v0zM448 313h160h-160h160v128v0h-160v0v-128v0z" />
</svg>
