<?xml version="1.0" standalone="no"?>
<!DOCTYPE svg PUBLIC "-//W3C//DTD SVG 1.1//EN" "http://www.w3.org/Graphics/SVG/1.1/DTD/svg11.dtd" >
<svg xmlns="http://www.w3.org/2000/svg" xmlns:xlink="http://www.w3.org/1999/xlink" version="1.1" viewBox="-10 -40 596 512">
   <path fill="currentColor"
d="M432 217q30 0 56 15v0v0q26 15 41 41t15 56t-15 56t-41 41t-56 15t-56 -15t-41 -41t-15 -56t15 -56t41 -41t56 -15v0zM432 473q39 0 72 -19v0v0q33 -19 53 -53q19 -34 19 -72t-19 -72q-20 -34 -53 -53t-72 -19t-72 19t-53 53q-19 34 -19 72t19 72q20 34 53 53t72 19v0z
M432 249q-15 1 -16 16v48v0h-48v0q-15 1 -16 16q1 15 16 16h48v0v48v0q1 15 16 16q15 -1 16 -16v-48v0h48v0q15 -1 16 -16q-1 -15 -16 -16h-48v0v-48v0q-1 -15 -16 -16v0zM112 -39q15 1 16 16v96v0h-32v0v-96v0q1 -15 16 -16v0zM272 -39q15 1 16 16v96v0h-32v0v-96v0
q1 -15 16 -16v0zM0 121q1 -15 16 -16h16h336q15 1 16 16q-1 15 -16 16h-16v0v35v0q-17 9 -32 21v-56v0h-256v0v64v0q1 54 37 91q37 36 91 37q36 0 65 -18q-1 9 -1 18t1 18q-23 11 -49 13v97v0q-1 15 -16 16q-15 -1 -16 -16v-97v0q-62 -7 -102 -51q-41 -44 -42 -108v-64v0
h-16v0q-15 -1 -16 -16v0z" />
</svg>
