<?xml version="1.0" standalone="no"?>
<!DOCTYPE svg PUBLIC "-//W3C//DTD SVG 1.1//EN" "http://www.w3.org/Graphics/SVG/1.1/DTD/svg11.dtd" >
<svg xmlns="http://www.w3.org/2000/svg" xmlns:xlink="http://www.w3.org/1999/xlink" version="1.1" viewBox="-10 -40 660 512">
   <path fill="currentColor"
d="M301 38l-4 8l4 -8l-4 8l-8 1v0l-44 6v0l32 31v0l6 6v0l-2 8v0l-7 44v0l39 -21v0l7 -4v0l8 4v0l38 20v0l-7 -43v0l-1 -8v0l6 -6v0l31 -31v0l-43 -6v0l-9 -1v0l-3 -8v0l-20 -39v0l-19 39v0zM296 -24q8 -15 24 -15v0v0q16 0 25 15l20 41v0l44 6v0v0v0v0v0q17 3 22 18t-7 29
v0v0v0v0l-32 31v0l7 43v0v1v0v0v0q2 17 -11 26q-12 10 -28 3l-1 -1v0v0v0l-39 -20v0l-39 21v0h-1v0v0v0q-16 7 -28 -2q-13 -10 -11 -27v0v0v0v0l7 -44v0l-32 -31v0v0v0v0v0q-12 -13 -7 -28t22 -19h1v0v0v0l44 -6v0l19 -41v0v0h1zM192 329v96v-96v96q-1 20 -14 34
q-14 13 -34 14h-96v0q-20 -1 -34 -14q-13 -14 -14 -34v-96v0q1 -20 14 -34q14 -13 34 -14h96v0q20 1 34 14q13 14 14 34v0zM416 393v32v-32v32q-1 20 -14 34q-14 13 -34 14h-96v0q-20 -1 -34 -14q-13 -14 -14 -34v-96v0v-64v0q1 -20 14 -34q14 -13 34 -14h96v0q20 1 34 14
q13 14 14 34v128v0zM256 265v160v-160v160q1 15 16 16h96v0q15 -1 16 -16v-160v0q-1 -15 -16 -16h-96v0q-15 1 -16 16v0zM32 329v96v-96v96q1 15 16 16h96v0q15 -1 16 -16v-96v0q-1 -15 -16 -16h-96v0q-15 1 -16 16v0zM480 393v32v-32v32q1 15 16 16h96v0q15 -1 16 -16v-32
v0q-1 -15 -16 -16h-96v0q-15 1 -16 16v0zM496 345h96h-96h96q20 1 34 14q13 14 14 34v32v0q-1 20 -14 34q-14 13 -34 14h-96v0q-20 -1 -34 -14q-13 -14 -14 -34v-32v0q1 -20 14 -34q14 -13 34 -14v0z" />
</svg>
