<?xml version="1.0" standalone="no"?>
<!DOCTYPE svg PUBLIC "-//W3C//DTD SVG 1.1//EN" "http://www.w3.org/Graphics/SVG/1.1/DTD/svg11.dtd" >
<svg xmlns="http://www.w3.org/2000/svg" xmlns:xlink="http://www.w3.org/1999/xlink" version="1.1" viewBox="-10 -40 596 512">
   <path fill="currentColor"
d="M304 25h80h-80h80v-32v0h-80v0v32v0zM272 -23q1 -15 16 -16h112v0q15 1 16 16v64v0q-1 15 -16 16h-84v0l89 64v0h107v0q27 1 45 19t19 45v224v0q-1 27 -19 45t-45 19h-160h-288q-27 -1 -45 -19t-19 -45v-224v0q1 -27 19 -45t45 -19h107v0l101 -72v0v-24v0v-48v0zM320 377
q0 -14 -9 -23v0v0q-9 -9 -23 -9t-23 9t-9 23v64v0h64v0v-64v0zM352 441h160h-160h160q14 0 23 -9t9 -23v-224v0q0 -14 -9 -23t-23 -9h-112v0q-5 0 -9 -3l-103 -73v0l-103 73v0q-4 3 -9 3h-112v0q-14 0 -23 9t-9 23v224v0q0 14 9 23t23 9h160v0v-64v0q1 -27 19 -45t45 -19
q27 1 45 19t19 45v64v0zM256 201q0 14 9 23v0v0q9 9 23 9t23 -9t9 -23t-9 -23t-23 -9t-23 9t-9 23v0zM288 265q-36 -1 -55 -32q-18 -32 0 -64q19 -31 55 -32q36 1 55 32q18 32 0 64q-19 31 -55 32v0zM64 217q0 -14 9 -23v0v0q9 -9 23 -9h32v0q14 0 23 9t9 23v32v0
q0 14 -9 23t-23 9h-32v0q-14 0 -23 -9t-9 -23v-32v0zM128 217h-32h32h-32v32v0h32v0v-32v0zM448 185h32h-32h32q14 0 23 9t9 23v32v0q0 14 -9 23t-23 9h-32v0q-14 0 -23 -9t-9 -23v-32v0q0 -14 9 -23t23 -9v0zM448 217v32v-32v32h32v0v-32v0h-32v0zM64 345q0 -14 9 -23v0v0
q9 -9 23 -9h32v0q14 0 23 9t9 23v32v0q0 14 -9 23t-23 9h-32v0q-14 0 -23 -9t-9 -23v-32v0zM128 345h-32h32h-32v32v0h32v0v-32v0zM448 313h32h-32h32q14 0 23 9t9 23v32v0q0 14 -9 23t-23 9h-32v0q-14 0 -23 -9t-9 -23v-32v0q0 -14 9 -23t23 -9v0zM448 345v32v-32v32h32v0
v-32v0h-32v0z" />
</svg>
