<?xml version="1.0" standalone="no"?>
<!DOCTYPE svg PUBLIC "-//W3C//DTD SVG 1.1//EN" "http://www.w3.org/Graphics/SVG/1.1/DTD/svg11.dtd" >
<svg xmlns="http://www.w3.org/2000/svg" xmlns:xlink="http://www.w3.org/1999/xlink" version="1.1" viewBox="-10 -40 660 512">
   <path fill="currentColor"
d="M311 -36q9 -6 18 0l140 93v0h107v0q27 1 45 19t19 45v112v0q-1 -47 -32 -78v-34v0q0 -14 -9 -23t-23 -9h-112v0q-5 0 -9 -3l-135 -90v0l-135 90v0q-4 3 -9 3h-112v0q-14 0 -23 9t-9 23v288v0q0 14 9 23t23 9h192v0v-96v0q1 -27 19 -45t45 -19q27 1 45 19t19 45v96v0
q0 18 9 32h-9h-320q-27 -1 -45 -19t-19 -45v-288v0q1 -27 19 -45t45 -19h107v0l140 -93v0zM352 345q0 -14 -9 -23v0v0q-9 -9 -23 -9t-23 9t-9 23v96v0h64v0v-96v0zM128 121h32h-32h32q14 0 23 9t9 23v64v0q0 14 -9 23t-23 9h-32v0q-14 0 -23 -9t-9 -23v-64v0q0 -14 9 -23
t23 -9v0zM128 153v64v-64v64h32v0v-64v0h-32v0zM96 313q0 -14 9 -23v0v0q9 -9 23 -9h32v0q14 0 23 9t9 23v64v0q0 14 -9 23t-23 9h-32v0q-14 0 -23 -9t-9 -23v-64v0zM160 313h-32h32h-32v64v0h32v0v-64v0zM320 217q36 -1 55 -32q18 -32 0 -64q-19 -31 -55 -32q-36 1 -55 32
q-18 32 0 64q19 31 55 32v0zM320 57q26 0 48 13v0v0q22 13 35 35q13 23 13 48t-13 48q-13 22 -35 35t-48 13t-48 -13t-35 -35q-13 -23 -13 -48t13 -48q13 -22 35 -35t48 -13v0zM336 121v16v-16v16h8v0q15 1 16 16q-1 15 -16 16h-24v0q-15 -1 -16 -16v-32v0q1 -15 16 -16
q15 1 16 16v0zM528 185q-20 1 -34 14v0v0q-13 14 -14 34v48v0h96v0v-48v0q-1 -20 -14 -34q-14 -13 -34 -14v0zM448 233q1 -34 23 -57v0v0q23 -22 57 -23q34 1 57 23q22 23 23 57v48v0q14 0 23 9t9 23v128v0q0 14 -9 23t-23 9h-160v0q-14 0 -23 -9t-9 -23v-128v0q0 -14 9 -23
t23 -9v-48v0zM608 313h-160h160h-160v128v0h160v0v-128v0z" />
</svg>
