<?xml version="1.0" standalone="no"?>
<!DOCTYPE svg PUBLIC "-//W3C//DTD SVG 1.1//EN" "http://www.w3.org/Graphics/SVG/1.1/DTD/svg11.dtd" >
<svg xmlns="http://www.w3.org/2000/svg" xmlns:xlink="http://www.w3.org/1999/xlink" version="1.1" viewBox="-10 -40 522 512">
   <path fill="currentColor"
d="M244 -2q12 -5 25 0l176 75v0q18 9 19 28q0 48 -16 112q-17 63 -60 123q-42 61 -119 99q-13 6 -26 0q-77 -39 -120 -99q-42 -60 -59 -123q-16 -64 -16 -112q1 -19 19 -28l177 -75v0zM281 -31q-25 -10 -50 0l-177 75v0q-17 7 -27 22q-11 15 -11 35q-1 51 17 120t65 134
q46 66 132 109q26 12 52 0q86 -43 132 -109q47 -65 65 -134t17 -120q0 -20 -11 -35q-10 -15 -27 -22l-177 -75v0zM171 94q-7 -7 -17 -4q-9 5 -10 15v128v0q1 48 33 79q31 32 79 33q48 -1 79 -33q32 -31 33 -79v-128v0q0 -10 -10 -15q-10 -3 -17 4l-60 59v0h-50v0l-60 -59v0z
M176 233v-89v89v-89l37 36v0q4 5 11 5h64v0q7 0 11 -5l37 -36v0v89v0q-1 34 -23 57q-23 22 -57 23q-34 -1 -57 -23q-22 -23 -23 -57v0zM232 233q-1 -15 -16 -16q-15 1 -16 16q1 15 16 16q15 -1 16 -16v0zM296 249q15 -1 16 -16q-1 -15 -16 -16q-15 1 -16 16q1 15 16 16v0z
" />
</svg>
