<?xml version="1.0" standalone="no"?>
<!DOCTYPE svg PUBLIC "-//W3C//DTD SVG 1.1//EN" "http://www.w3.org/Graphics/SVG/1.1/DTD/svg11.dtd" >
<svg xmlns="http://www.w3.org/2000/svg" xmlns:xlink="http://www.w3.org/1999/xlink" version="1.1" viewBox="-10 -40 586 512">
   <path fill="currentColor"
d="M204 78q-11 -10 -23 -1l-53 48v0v-148v0q-1 -15 -16 -16q-15 1 -16 16v148v0l-53 -48v0q-12 -9 -23 1q-9 12 1 23l80 72v0q11 8 22 0l80 -72v0q10 -11 1 -23v0zM556 78q-11 -10 -23 -1l-53 48v0v-148v0q-1 -15 -16 -16q-15 1 -16 16v148v0l-53 -48v0q-12 -9 -23 1
q-9 12 1 23l80 72v0q11 8 22 0l80 -72v0q10 -11 1 -23v0zM298 124q-10 -6 -19 0l-174 128v0q-16 12 -19 32l-17 135v0q-2 22 11 38q14 15 36 16h344v0q22 -1 36 -16q13 -16 11 -38l-17 -135v0q-3 -20 -19 -32l-173 -128v0zM125 278l147 -109l-147 109l147 -109v112v0v0v0
v160v0h-156v0q-16 -2 -15 -18l17 -134v0q1 -7 6 -11h1zM304 276v-107v107v-107l148 109v0q5 4 6 11l17 134v0q1 16 -15 18h-54v0v0v0l-102 -165v0zM304 441v-104v104v-104l64 104v0h-64v0z" />
</svg>
