<?xml version="1.0" standalone="no"?>
<!DOCTYPE svg PUBLIC "-//W3C//DTD SVG 1.1//EN" "http://www.w3.org/Graphics/SVG/1.1/DTD/svg11.dtd" >
<svg xmlns="http://www.w3.org/2000/svg" xmlns:xlink="http://www.w3.org/1999/xlink" version="1.1" viewBox="-10 -40 532 512">
   <path fill="currentColor"
d="M32 89l192 -96l-192 96l192 -96v192v0l-192 -96v0zM256 -7q0 -18 -15 -27t-31 -2l-192 96v0q-17 10 -18 29q1 19 18 29l192 96v0q16 7 31 -2q14 -9 15 -27v-80v0h88v0q0 14 9 23t23 9h88v0q20 -1 34 -14q13 -14 14 -34q-1 -20 -14 -34q-14 -13 -34 -14h-88v0q-14 0 -23 9
t-9 23h-88v0v-80v0zM464 73q15 1 16 16q-1 15 -16 16h-88v0v-32v0h88v0zM288 345h16h-16h192v8v0v88v0h-224v0v-96v0h32v0zM224 345v96v-96v96h-192v0v-96v0h192v0zM480 313h-160h160h-160v-96v0h160v0v96v0zM288 217v64v-64v64v32v0h-32h-224q-14 0 -23 9t-9 23v96v0
q0 14 9 23t23 9h448v0q14 0 23 -9t9 -23v-88v0v-8v0v-128v0q0 -14 -9 -23t-23 -9h-160v0q-14 0 -23 9t-9 23v0z" />
</svg>
