<?xml version="1.0" standalone="no"?>
<!DOCTYPE svg PUBLIC "-//W3C//DTD SVG 1.1//EN" "http://www.w3.org/Graphics/SVG/1.1/DTD/svg11.dtd" >
<svg xmlns="http://www.w3.org/2000/svg" xmlns:xlink="http://www.w3.org/1999/xlink" version="1.1" viewBox="-10 -40 660 512">
   <path fill="currentColor"
d="M352 -7q14 0 23 9v0v0q9 9 9 23v320v0h-133v0q-11 -28 -35 -46q-24 -17 -56 -18q-32 1 -56 18q-24 18 -34 46h-6v0q-14 0 -23 -9t-9 -23v-288v0q0 -14 9 -23t23 -9h288v0zM0 313q1 27 19 45v0v0q18 18 45 19q1 41 28 68t68 28q41 -1 68 -28t28 -68h128v0q1 41 28 68
t68 28q41 -1 68 -28t28 -68h48v0q15 -1 16 -16q-1 -15 -16 -16h-16v0v-148v0q0 -18 -12 -31l-78 -92v0q-15 -17 -37 -17h-65v0v-32v0q-1 -27 -19 -45t-45 -19h-288v0q-27 1 -45 19t-19 45v288v0zM481 89q8 0 12 6l78 90v0h-155v0v-96v0h65v0zM416 305v-88v88v-88h160v0v128
v0h-5v0q-11 -28 -35 -46q-24 -17 -56 -18q-38 1 -64 24v0zM160 313q36 1 55 32q18 32 0 64q-19 31 -55 32q-36 -1 -55 -32q-18 -32 0 -64q19 -31 55 -32v0zM416 377q1 -36 32 -55q32 -18 64 0q31 19 32 55q-1 36 -32 55q-32 18 -64 0q-31 -19 -32 -55v0zM235 46
q-11 -10 -22 0q-10 11 0 22l52 53v0h-153v0q-15 1 -16 16q1 15 16 16h153v0l-52 53v0q-10 11 0 22q11 10 22 0l80 -80v0q10 -11 0 -22l-80 -80v0z" />
</svg>
