<?xml version="1.0" standalone="no"?>
<!DOCTYPE svg PUBLIC "-//W3C//DTD SVG 1.1//EN" "http://www.w3.org/Graphics/SVG/1.1/DTD/svg11.dtd" >
<svg xmlns="http://www.w3.org/2000/svg" xmlns:xlink="http://www.w3.org/1999/xlink" version="1.1" viewBox="-10 -40 660 512">
   <path fill="currentColor"
d="M320 25q14 0 23 9v0v0q9 9 9 23v96v0v32v0v128v0h-101v0q-11 -28 -35 -46q-24 -17 -56 -18q-32 1 -56 18q-24 18 -34 46h-6v0v-64v0v-160v0v-32v0q0 -14 9 -23t23 -9h224v0zM32 89q-14 0 -23 9v0v0q-9 9 -9 23v96v0q0 14 9 23t23 9v64v0h-16v0q-15 1 -16 16q1 15 16 16
h16h32q1 41 28 68t68 28q41 -1 68 -28t28 -68h96h32q1 41 28 68t68 28q41 -1 68 -28t28 -68h32h16q15 -1 16 -16q-1 -15 -16 -16h-16v0v-96v0q-1 -27 -19 -45t-45 -19h-22v0l-43 -79v0q-14 -24 -42 -25h-53v0q-4 -24 -21 -40q-18 -15 -43 -16h-224v0q-27 1 -45 19t-19 45v32
v0zM384 153v-72v72v-72h53v0q9 0 14 8l34 64v0h-101v0zM390 313h-6h6h-6v-128v0h128v0v0v0h32v0q14 0 23 9t9 23v96v0h-5v0q-11 -28 -35 -46q-24 -17 -56 -18q-32 1 -56 18q-24 18 -34 46v0zM96 345q1 -36 32 -55q32 -18 64 0q31 19 32 55q-1 36 -32 55q-32 18 -64 0
q-31 -19 -32 -55v0zM480 281q36 1 55 32q18 32 0 64q-19 31 -55 32q-36 -1 -55 -32q-18 -32 0 -64q19 -31 55 -32v0z" />
</svg>
