<?xml version="1.0" standalone="no"?>
<!DOCTYPE svg PUBLIC "-//W3C//DTD SVG 1.1//EN" "http://www.w3.org/Graphics/SVG/1.1/DTD/svg11.dtd" >
<svg xmlns="http://www.w3.org/2000/svg" xmlns:xlink="http://www.w3.org/1999/xlink" version="1.1" viewBox="-10 -40 660 512">
   <path fill="currentColor"
d="M189 -26q15 -12 35 -13q20 1 35 13q15 13 24 29q16 27 20 56q-19 5 -31 20v-8v0q0 -23 -16 -52q-17 -26 -32 -26q-6 0 -15 6q-9 7 -16 20q-17 29 -17 52v80v0q0 9 -8 14l-128 73v0q-8 4 -8 14v56v0l124 -35v0q7 -2 14 2q6 5 6 13v57v0q0 8 -6 13l-58 43v0v39v0l108 -30v0
q4 -1 8 0l39 11v0q8 12 21 19v20v0l-64 -18v0l-106 30v0v0v0q-4 1 -8 1q-13 0 -21 -9q-9 -8 -9 -21v-42v0q0 -16 13 -26l51 -38v0v-28v0l-103 30v0q-16 3 -28 -6t-13 -25v-56v0q1 -28 24 -42l120 -69v0v-70v0q1 -34 21 -68q10 -17 24 -29v0zM592 121h-256h256h-256
q-15 1 -16 16v137v0q6 -4 14 -6l3 -12v0l13 -41v0q6 -21 23 -33q16 -13 38 -13h106v0q22 0 38 13q17 12 23 33l13 41v0l3 12v0q8 2 14 6v-137v0q-1 -15 -16 -16v0zM640 329v48v-48v48q-2 33 -32 45v35v0q-1 15 -16 16q-15 -1 -16 -16v-32v0h-224v0v32v0q-1 15 -16 16
q-15 -1 -16 -16v-35v0q-30 -12 -32 -45v-48v0v-192v0q1 -20 14 -34q14 -13 34 -14h256v0q20 1 34 14q13 14 14 34v192v0zM608 377v-48v48v-48q0 -14 -9 -23t-23 -9h-16h-208q-14 0 -23 9t-9 23v48v0q1 15 16 16h256v0q15 -1 16 -16v0zM560 265l-10 -32l10 32l-10 -32l-2 -9
v0q-8 -22 -31 -23h-106v0q-23 1 -31 23l-2 9v0l-10 32v0h33h159zM376 321q22 2 24 24q-2 22 -24 24q-22 -2 -24 -24q2 -22 24 -24v0zM528 345q2 -22 24 -24q22 2 24 24q-2 22 -24 24q-22 -2 -24 -24v0z" />
</svg>
