<?xml version="1.0" standalone="no"?>
<!DOCTYPE svg PUBLIC "-//W3C//DTD SVG 1.1//EN" "http://www.w3.org/Graphics/SVG/1.1/DTD/svg11.dtd" >
<svg xmlns="http://www.w3.org/2000/svg" xmlns:xlink="http://www.w3.org/1999/xlink" version="1.1" viewBox="-10 -40 660 512">
   <path fill="currentColor"
d="M0 -23q1 -15 16 -16h608v0q15 1 16 16q-1 15 -16 16h-608v0q-15 -1 -16 -16v0zM0 457q1 -15 16 -16h608v0q15 1 16 16q-1 15 -16 16h-608v0q-15 -1 -16 -16v0zM147 153q14 0 23 -9v0v0q9 -9 9 -23t-9 -23t-23 -9q-13 0 -22 9t-10 23q1 14 10 23t22 9v0zM147 57
q36 1 56 32q17 32 0 64q-20 31 -56 32q-36 -1 -55 -32q-17 -32 0 -64q19 -31 55 -32v0zM499 153q14 0 23 -9v0v0q9 -9 9 -23t-9 -23t-23 -9q-13 0 -22 9t-10 23q1 14 10 23t22 9v0zM499 57q36 1 56 32q17 32 0 64q-20 31 -56 32q-36 -1 -55 -32q-17 -32 0 -64q19 -31 55 -32
v0zM370 281h-96h96h-96q-28 1 -46 19t-18 45h224v0q-1 -27 -19 -45t-45 -19v0zM178 345q1 -41 28 -68v0v0q27 -27 68 -28h96v0q40 1 67 28q28 27 29 68q-1 14 -10 23t-22 9h-224v0q-14 0 -23 -9t-9 -23v0zM322 185q27 -1 41 -24q13 -24 0 -48q-14 -23 -41 -24q-28 1 -42 24
q-13 24 0 48q14 23 42 24v0zM322 57q45 1 69 40q21 40 0 80q-24 39 -69 40q-46 -1 -70 -40q-21 -40 0 -80q24 -39 70 -40v0zM64 281v16v-16v16q-1 15 -16 16q-15 -1 -16 -16v-16v0q1 -27 19 -45t45 -19h88v0q15 1 16 16q-1 15 -16 16h-88v0q-14 0 -23 9t-9 23v0zM544 249
h-88h88h-88q-15 -1 -16 -16q1 -15 16 -16h88v0q27 1 45 19t19 45v16v0q-1 15 -16 16q-15 -1 -16 -16v-16v0q0 -14 -9 -23t-23 -9v0z" />
</svg>
