<?xml version="1.0" standalone="no"?>
<!DOCTYPE svg PUBLIC "-//W3C//DTD SVG 1.1//EN" "http://www.w3.org/Graphics/SVG/1.1/DTD/svg11.dtd" >
<svg xmlns="http://www.w3.org/2000/svg" xmlns:xlink="http://www.w3.org/1999/xlink" version="1.1" viewBox="-10 -40 660 512">
   <path fill="currentColor"
d="M491 4q9 -11 0 -22q-11 -10 -22 0l-127 127v0q1 -26 -7 -50l54 -55v0q10 -11 0 -22q-11 -10 -22 0l-47 47v0q-7 -10 -15 -19l-23 -23v0q-11 -9 -23 0l-34 34v0q-26 28 -28 63l-6 -6v0q-11 -9 -22 0l-34 34v0q-26 27 -28 62l-6 -6v0q-11 -9 -23 0l-34 34v0q-28 30 -28 68
q0 39 28 68l34 34v0v0v0l-73 74v0q-9 11 0 22q11 9 23 0l73 -73v0v0v0l34 34v0q29 28 68 28q38 0 68 -28l34 -34v0q9 -12 0 -23l-6 -6v0q12 -1 24 -5q-3 -15 -3 -32v-1v0q-18 8 -38 5q-19 -3 -34 -18l-34 -33v0q25 -24 57 -28t60 13q7 -18 17 -34q-5 -3 -10 -8l-33 -34v0
q23 -22 53 -27q29 -4 57 9q17 -9 37 -14l-8 -6l47 -47v0q9 -11 0 -22q-11 -10 -22 0l-55 54v0q-24 -8 -50 -7l127 -127v0zM192 259v0v0v0l-34 -34v0q-19 -20 -19 -45q0 -26 19 -46l22 -22v0l12 11v0q28 30 28 68t-28 68v0zM248 44l23 -23l-23 23l23 -23l11 12v0q28 29 28 67
q0 39 -28 68l-34 -34v0q-19 -19 -19 -45q0 -25 19 -45v0zM90 202l11 12l-11 -12l11 12q28 29 28 67q0 39 -28 68l-34 -34v0q-19 -19 -19 -45q0 -25 19 -45l23 -23v0zM271 383l-23 23l23 -23l-23 23q-20 19 -45 19q-26 0 -45 -19l-34 -34v0q29 -28 67 -28q39 0 68 28l12 11v0
zM384 329q0 -30 15 -56v0v0q15 -26 41 -41t56 -15t56 15t41 41t15 56t-15 56t-41 41t-56 15t-56 -15t-41 -41t-15 -56v0zM640 329q0 -39 -19 -72v0v0q-19 -33 -53 -53q-34 -19 -72 -19t-72 19q-34 20 -53 53t-19 72t19 72t53 53q34 19 72 19t72 -19q34 -20 53 -53t19 -72v0z
M496 409q22 -2 24 -24q-2 -22 -24 -24q-22 2 -24 24q2 22 24 24v0zM496 249q-15 1 -16 16v64v0q1 15 16 16q15 -1 16 -16v-64v0q-1 -15 -16 -16v0z" />
</svg>
