<?xml version="1.0" standalone="no"?>
<!DOCTYPE svg PUBLIC "-//W3C//DTD SVG 1.1//EN" "http://www.w3.org/Graphics/SVG/1.1/DTD/svg11.dtd" >
<svg xmlns="http://www.w3.org/2000/svg" xmlns:xlink="http://www.w3.org/1999/xlink" version="1.1" viewBox="-10 -40 394 512">
   <path fill="currentColor"
d="M224 25q0 -14 -9 -23v0v0q-9 -9 -23 -9t-23 9t-9 23t9 23t23 9t23 -9t9 -23v0zM128 25q1 -36 32 -55q32 -18 64 0q31 19 32 55q-1 36 -32 55q-32 18 -64 0q-31 -19 -32 -55v0zM112 149q-43 -23 -67 -66l-11 -18v0q-6 -14 6 -22q14 -6 22 6l10 18v0q19 33 51 51
q31 19 69 19q37 0 68 -18q32 -18 51 -50l11 -20v0q9 -12 22 -6q12 9 6 22l-12 20v0q-25 42 -66 64v308v0q-1 15 -16 16q-15 -1 -16 -16v-112v0h-96v0v112v0q-1 15 -16 16q-15 -1 -16 -16v-308v0zM144 162v151v-151v151h96v0v-151v0q-23 7 -48 7t-48 -7v0z" />
</svg>
