<?xml version="1.0" standalone="no"?>
<!DOCTYPE svg PUBLIC "-//W3C//DTD SVG 1.1//EN" "http://www.w3.org/Graphics/SVG/1.1/DTD/svg11.dtd" >
<svg xmlns="http://www.w3.org/2000/svg" xmlns:xlink="http://www.w3.org/1999/xlink" version="1.1" viewBox="-10 -40 660 512">
   <path fill="currentColor"
d="M216 313h208h-208h208q24 1 31 24l4 15v0q6 25 26 41q21 15 47 16q32 -1 54 -22q21 -22 22 -54v-3v0q0 -6 -1 -13l-33 -191v0q-5 -31 -23 -52q-17 -21 -43 -28q-66 -18 -188 -21q-122 3 -188 21q-26 7 -43 28q-18 21 -23 52l-33 191v0q-1 7 -1 13v3v0q1 32 22 54
q22 21 54 22q26 0 46 -16t27 -41l4 -15v0q7 -22 31 -24v0zM428 359l-4 -14l4 14l-4 -14h-208v0l-4 14v0q-9 37 -38 59q-28 22 -66 23q-46 -1 -76 -32q-31 -30 -32 -76v-3v0q0 -9 2 -18l32 -191v0q7 -39 30 -67q23 -29 61 -39q69 -19 195 -22q126 3 195 22q38 10 61 39
q23 28 30 67l32 191v0q2 9 2 18v3v0q-1 46 -32 76q-30 31 -76 32q-38 -1 -66 -23q-29 -22 -38 -59v0zM208 121v48v-48v48h48v0q15 1 16 16q-1 15 -16 16h-48v0v48v0q-1 15 -16 16q-15 -1 -16 -16v-48v0h-48v0q-15 -1 -16 -16q1 -15 16 -16h48v0v-48v0q1 -15 16 -16
q15 1 16 16v0zM408 233q2 -22 24 -24q22 2 24 24q-2 22 -24 24q-22 -2 -24 -24v0zM496 113q22 2 24 24q-2 22 -24 24q-22 -2 -24 -24q2 -22 24 -24v0z" />
</svg>
