<?xml version="1.0" standalone="no"?>
<!DOCTYPE svg PUBLIC "-//W3C//DTD SVG 1.1//EN" "http://www.w3.org/Graphics/SVG/1.1/DTD/svg11.dtd" >
<svg xmlns="http://www.w3.org/2000/svg" xmlns:xlink="http://www.w3.org/1999/xlink" version="1.1" viewBox="-10 -40 596 512">
   <path fill="currentColor"
d="M408 25h-368h368h-368q-7 1 -8 8v24v0q2 82 56 136t136 56h14q-7 16 -10 32h-2h-2q-30 0 -58 -7l-26 57v0q7 6 11 14h76v0q3 16 9 32h-76v0q-1 27 -19 45t-45 19q-27 -1 -45 -19t-19 -45q1 -27 19 -45t45 -19q9 0 16 2l24 -52v0q-61 -27 -98 -81q-37 -55 -38 -125v-24v0
q0 -17 12 -28q11 -12 28 -12h368v0q17 0 28 12q12 11 12 28v24v0q0 36 -11 69q-13 -13 -26 -25v0v0q5 -21 5 -44v-24v0q-1 -7 -8 -8v0zM96 345q-14 0 -23 9v0v0q-9 9 -9 23t9 23t23 9t23 -9t9 -23t-9 -23t-23 -9v0zM383 154q-34 30 -64 72q-30 44 -31 87q1 52 34 87
q-2 -8 -2 -16q1 -29 17 -55q17 -26 37 -45q21 -20 33 -29q9 -6 18 0q12 9 33 29q20 19 37 45q16 26 17 55q0 8 -2 16q33 -35 34 -87q-1 -35 -22 -72q-21 -36 -47 -61l-21 24v0q-5 5 -12 5t-12 -5l-47 -50v0zM416 441h7q26 -3 41 -20q16 -16 16 -37q-1 -27 -27 -59
q-20 -22 -37 -36q-17 14 -37 36q-26 32 -27 59q0 21 16 37q15 17 41 20h7v0zM256 313q3 -57 37 -104q33 -48 71 -80q19 -16 39 0v0h1l38 40v0l12 -13v0q0 -1 1 -1v-1q20 -15 40 0q31 29 55 71t26 88q-2 66 -44 110q-42 45 -107 50h-9h-9q-65 -5 -107 -50q-43 -44 -44 -110v0
z" />
</svg>
