<?xml version="1.0" standalone="no"?>
<!DOCTYPE svg PUBLIC "-//W3C//DTD SVG 1.1//EN" "http://www.w3.org/Graphics/SVG/1.1/DTD/svg11.dtd" >
<svg xmlns="http://www.w3.org/2000/svg" xmlns:xlink="http://www.w3.org/1999/xlink" version="1.1" viewBox="-10 -40 650 512">
   <path fill="currentColor"
d="M16 440q0 -8 5 -15v0v0q3 -7 7 -15q26 -58 31 -127q6 -68 5 -130q1 -82 28 -136t68 -56h304h32q31 1 52 20t33 45q26 53 27 127q-1 74 -27 127q-12 26 -33 45t-52 20q-36 -2 -59 -27q3 -22 5 -46q22 40 54 41q34 -2 57 -47q22 -45 23 -113q-1 -68 -23 -113
q-23 -45 -57 -47q-34 2 -57 47q-22 45 -23 113q0 67 -6 118v3v4q-8 62 -18 101t-19 58q-8 18 -23 27t-32 9h-270v0q-18 -1 -28 -16q-4 -8 -4 -17v0zM160 -7q-6 -1 -17 8v0v0q-10 8 -22 31q-24 46 -25 121q1 66 -6 142q-7 77 -41 145q-1 0 -1 1v0v0h270v0q18 -1 26 -16
q11 -24 25 -90t15 -182q1 -74 27 -127q8 -18 21 -33h-272v0zM496 201q10 -2 15 -28q1 -9 1 -20t-1 -20q-5 -26 -15 -28q-10 2 -14 28q-2 9 -2 20t2 20q4 26 14 28v0zM496 233q-12 0 -20 -6v0v0q-8 -5 -11 -10q-8 -10 -11 -20q-6 -20 -6 -44t6 -44q3 -10 11 -20q3 -5 11 -10
q8 -6 20 -6t20 6q8 5 11 10q8 10 11 20q6 20 6 44t-6 44q-3 10 -11 20q-3 5 -11 10q-8 6 -20 6v0zM307 148l-72 72l72 -72l-72 72q-11 10 -22 0l-40 -40v0q-10 -11 0 -22q11 -10 22 0l29 28v0l61 -60v0q11 -10 22 0q10 11 0 22v0z" />
</svg>
