<?xml version="1.0" standalone="no"?>
<!DOCTYPE svg PUBLIC "-//W3C//DTD SVG 1.1//EN" "http://www.w3.org/Graphics/SVG/1.1/DTD/svg11.dtd" >
<svg xmlns="http://www.w3.org/2000/svg" xmlns:xlink="http://www.w3.org/1999/xlink" version="1.1" viewBox="-10 -40 596 512">
   <path fill="currentColor"
d="M64 25q-14 0 -23 9v0v0q-9 9 -9 23v320v0q0 14 9 23t23 9h320v0q14 0 23 -9t9 -23v-144v0v-176v0q0 -14 -9 -23t-23 -9h-320v0zM448 57v160v-160v160h32v0v-48v0v-48v0q0 -14 9 -23t23 -9h32v0q14 0 23 9t9 23v32v0q0 14 -9 23t-23 9h-32v0v48v0q-1 15 -16 16h-48v0v128
v0q-1 27 -19 45t-45 19h-320v0q-27 -1 -45 -19t-19 -45v-320v0q1 -27 19 -45t45 -19h320v0q27 1 45 19t19 45v0zM96 89v128v-128v128h256v0v-128v0h-256v0zM64 89q0 -14 9 -23v0v0q9 -9 23 -9h256v0q14 0 23 9t9 23v128v0q0 14 -9 23t-23 9h-256v0q-14 0 -23 -9t-9 -23v-128
v0zM512 153h32h-32h32v-32v0h-32v0v32v0zM128 297v16v-16v16h16v0q15 1 16 16q-1 15 -16 16h-16v0v16v0q-1 15 -16 16q-15 -1 -16 -16v-16v0h-16v0q-15 -1 -16 -16q1 -15 16 -16h16v0v-16v0q1 -15 16 -16q15 1 16 16v0zM224 321q2 -22 24 -24q22 2 24 24q-2 22 -24 24
q-22 -2 -24 -24v0zM328 297q22 2 24 24q-2 22 -24 24q-22 -2 -24 -24q2 -22 24 -24v0z" />
</svg>
