<?xml version="1.0" standalone="no"?>
<!DOCTYPE svg PUBLIC "-//W3C//DTD SVG 1.1//EN" "http://www.w3.org/Graphics/SVG/1.1/DTD/svg11.dtd" >
<svg xmlns="http://www.w3.org/2000/svg" xmlns:xlink="http://www.w3.org/1999/xlink" version="1.1" viewBox="-10 -40 532 512">
   <path fill="currentColor"
d="M272 -7q-15 1 -16 16q1 15 16 16h85v0q25 2 27 27q0 13 -11 21l-42 32v0h-28v0q-44 0 -83 17q-39 18 -69 49l-33 -50v0h10v0q15 -1 16 -16q-1 -15 -16 -16h-80v0q-15 1 -16 16q1 15 16 16h31v0l51 77v0q-4 6 -7 12l-4 7v0h-7q-48 1 -79 33q-32 31 -33 79q1 48 33 79
q31 32 79 33q48 -1 79 -33q32 -31 33 -79q-1 -37 -20 -64q-20 -28 -52 -41q24 -41 64 -64t87 -23h21v0l14 57v0q-37 14 -59 46t-23 73q1 54 37 91q37 36 91 37q54 -1 91 -37q36 -37 37 -91q-1 -54 -37 -91q-37 -36 -91 -37q-8 0 -15 1l-15 -59v0l39 -28v0q22 -18 23 -47
q-1 -25 -17 -42q-17 -16 -42 -17h-85v0zM346 225l23 92l-23 -92l23 92q4 14 19 12q14 -5 12 -20l-23 -92v0h7q41 1 68 28t28 68q-1 41 -28 68t-68 28q-41 -1 -68 -28t-28 -68q0 -30 16 -53t41 -35h1zM112 249q45 1 69 40q22 40 0 80q-24 39 -69 40q-45 -1 -69 -40
q-22 -40 0 -80q24 -39 69 -40v0z" />
</svg>
