<?xml version="1.0" standalone="no"?>
<!DOCTYPE svg PUBLIC "-//W3C//DTD SVG 1.1//EN" "http://www.w3.org/Graphics/SVG/1.1/DTD/svg11.dtd" >
<svg xmlns="http://www.w3.org/2000/svg" xmlns:xlink="http://www.w3.org/1999/xlink" version="1.1" viewBox="-10 -40 532 512">
   <path fill="currentColor"
d="M32 201q2 -71 63 -122v0v0q62 -52 161 -54q99 2 161 54q61 51 63 122q-2 71 -63 122q-62 52 -161 54q-48 0 -93 -16q-16 -5 -30 4q-23 16 -48 27l6 15v0l-6 -15v0q-16 7 -33 12q1 -1 1 -2l1 -1q21 -35 25 -76q1 -14 -7 -24q-38 -44 -40 -100v0zM256 -7q-72 1 -129 28v0v0
q-58 28 -92 75v0v0q-34 47 -35 105q3 70 47 121v0h1q-4 34 -22 63q-9 16 -21 29q-7 8 -4 17q5 10 15 10q44 -2 82 -19q28 -13 53 -31h1q50 17 104 18q72 -1 129 -28q58 -28 92 -75t35 -105q-1 -58 -35 -105t-92 -75q-57 -27 -129 -28v0zM176 182q0 -12 9 -20v0v0q8 -9 20 -9
t21 9l19 18v0q11 10 22 0l19 -18v0q9 -9 21 -9t20 9q9 8 9 20t-9 21l-71 71v0l-71 -71v0q-9 -9 -9 -21v0zM205 121q-26 1 -43 18v0v0q-17 17 -18 43q0 25 18 44l83 82v0q11 10 22 0l83 -82v0q17 -19 18 -44q-1 -26 -18 -43t-44 -18q-25 0 -43 18l-7 7v0l-8 -7v0
q-18 -18 -43 -18v0z" />
</svg>
