<?xml version="1.0" standalone="no"?>
<!DOCTYPE svg PUBLIC "-//W3C//DTD SVG 1.1//EN" "http://www.w3.org/Graphics/SVG/1.1/DTD/svg11.dtd" >
<svg xmlns="http://www.w3.org/2000/svg" xmlns:xlink="http://www.w3.org/1999/xlink" version="1.1" viewBox="-10 -40 532 512">
   <path fill="currentColor"
d="M440 -39q-15 0 -25 10l-39 39v0q-4 -1 -8 -1q-16 0 -27 11l-30 30v0l-29 -30v0q-15 -14 -34 -14t-34 14l-105 106v0q-10 11 0 22q11 10 22 0l106 -105v0q11 -9 22 0l30 29v0l-209 209v0q-8 8 -11 19l-37 117v0l1 1v0l-28 28v0q-10 11 0 22q11 10 22 0l28 -28v0l1 1v0
l117 -36v0q11 -4 19 -12l261 -261v0q11 -11 11 -27q0 -4 -1 -8l39 -39v0q10 -10 10 -25t-10 -25l-37 -37v0q-10 -10 -25 -10v0zM445 70l-42 -42l42 42l-42 -42l35 -34v0q1 -1 2 -1t2 1l37 37v0q1 1 1 2t-1 2l-34 35v0zM430 100q2 2 2 5t-2 5l-241 241v0l-67 -67v0l241 -241
v0q2 -2 5 -2t5 2l57 57v0zM99 310q0 -1 1 -2l65 65v0q-1 1 -2 1l-93 29v0l29 -93v0z" />
</svg>
