<?xml version="1.0" standalone="no"?>
<!DOCTYPE svg PUBLIC "-//W3C//DTD SVG 1.1//EN" "http://www.w3.org/Graphics/SVG/1.1/DTD/svg11.dtd" >
<svg xmlns="http://www.w3.org/2000/svg" xmlns:xlink="http://www.w3.org/1999/xlink" version="1.1" viewBox="-10 -40 660 512">
   <path fill="currentColor"
d="M336 -23q-1 -15 -16 -16q-15 1 -16 16v48v0h-50v0q-22 0 -41 11q-18 12 -29 32q-11 23 -26 58q-15 34 -29 74t-23 81q-10 42 -10 80v11v0q1 29 20 49q20 19 49 20q14 0 28 -6l82 -36v0q14 -6 29 -9v67v0q1 15 16 16q15 -1 16 -16v-67v0q15 2 30 9l81 36v0q14 6 28 6
q29 -1 49 -20q19 -20 20 -49v-11v0q0 -38 -10 -80q-9 -41 -23 -81t-29 -74q-15 -35 -26 -58q-11 -20 -29 -32q-19 -11 -41 -11h-50v0v-48v0zM304 57v83v-83v83l-128 25v0q21 -50 37 -83q13 -24 41 -25h50v0zM163 201v0v0v0l141 -28v0v72v0l-168 49v0q9 -41 24 -84q0 -2 1 -4
q1 -3 2 -5v0zM130 329q1 0 2 -1l172 -50v0v80v0q-22 2 -43 12l-81 36v0q-8 3 -15 3q-16 0 -26 -11q-11 -10 -11 -26v-11v0q0 -15 2 -32v0zM336 358v-80v80v-80l172 50v0q1 1 2 1q2 17 2 32v11v0q0 16 -11 26q-10 11 -26 11q-8 0 -15 -3l-81 -37v0q-21 -9 -43 -11v0zM504 294
l-168 -49l168 49l-168 -49v-72v0l141 28v0v0v0l2 4l2 6q14 42 23 83v0zM464 165l-128 -25l128 25l-128 -25v-83v0h50v0q28 1 41 25q16 33 37 83v0zM0 89v112v-112v112v256v0q1 15 16 16q15 -1 16 -16v-256v0q1 -14 13 -20l44 -23v0q37 -20 39 -63v-6v0q-1 -27 -19 -45
t-45 -19q-27 1 -45 19t-19 45v0zM32 151v-62v62v-62q0 -14 9 -23t23 -9t23 9t9 23v6v0q-1 24 -21 35l-43 21v0zM576 25q-27 1 -45 19v0v0q-18 18 -19 45v6v0q2 43 39 63l44 23v0q12 6 13 20v256v0q1 15 16 16q15 -1 16 -16v-256v0v-112v0q-1 -27 -19 -45t-45 -19v0zM565 130
q-20 -11 -21 -35v-6v0q0 -14 9 -23t23 -9t23 9t9 23v62v0l-43 -21v0z" />
</svg>
