<?xml version="1.0" standalone="no"?>
<!DOCTYPE svg PUBLIC "-//W3C//DTD SVG 1.1//EN" "http://www.w3.org/Graphics/SVG/1.1/DTD/svg11.dtd" >
<svg xmlns="http://www.w3.org/2000/svg" xmlns:xlink="http://www.w3.org/1999/xlink" version="1.1" viewBox="-10 -40 532 512">
   <path fill="currentColor"
d="M507 -12q10 -11 0 -22q-11 -10 -22 0l-144 144v0l-19 -19v0q-16 -15 -36 -18q-21 -3 -40 7l-230 128v0q-15 9 -16 28q0 13 9 22l206 206v0q9 9 22 9q19 -1 28 -16l128 -230v0q10 -19 7 -40q-3 -20 -18 -36l-19 -19v0l144 -144v0zM300 114l59 60l-59 -60l59 60q16 17 6 38
l-22 38v0l-120 -120v0l38 -22v0q21 -10 39 6v0zM194 146l133 133l-133 -133l133 133l-90 162v0l-123 -123v0l41 -42v0q10 -11 0 -22q-11 -10 -22 0l-42 41v0l-59 -59v0l162 -90v0z" />
</svg>
