<?xml version="1.0" standalone="no"?>
<!DOCTYPE svg PUBLIC "-//W3C//DTD SVG 1.1//EN" "http://www.w3.org/Graphics/SVG/1.1/DTD/svg11.dtd" >
<svg xmlns="http://www.w3.org/2000/svg" xmlns:xlink="http://www.w3.org/1999/xlink" version="1.1" viewBox="-10 -40 532 512">
   <path fill="currentColor"
d="M478 249h-206h206h-206q-20 -1 -34 -14q-13 -14 -14 -34v-206v0q-83 14 -137 75q-53 61 -55 147q1 63 31 113q29 51 80 80q50 30 113 31q86 -2 147 -55q61 -54 75 -137v0zM480 217q-1 -63 -31 -113v0v0q-29 -51 -80 -80v0v0q-50 -30 -113 -31v208v0q1 15 16 16h208v0z
M0 217q1 -70 34 -128v0v0q34 -58 94 -94q61 -34 128 -34t128 34q60 36 94 94q33 58 34 128q-1 70 -34 128q-34 58 -94 94q-61 34 -128 34t-128 -34q-60 -36 -94 -94q-33 -58 -34 -128v0z" />
</svg>
