<?xml version="1.0" standalone="no"?>
<!DOCTYPE svg PUBLIC "-//W3C//DTD SVG 1.1//EN" "http://www.w3.org/Graphics/SVG/1.1/DTD/svg11.dtd" >
<svg xmlns="http://www.w3.org/2000/svg" xmlns:xlink="http://www.w3.org/1999/xlink" version="1.1" viewBox="-10 -40 596 512">
   <path fill="currentColor"
d="M192 89q1 -41 28 -68v0v0q27 -27 68 -28q41 1 68 28t28 68q1 15 16 16q15 -1 16 -16q-1 -54 -37 -91q-37 -36 -91 -37q-54 1 -91 37q-36 37 -37 91q2 62 47 99l-60 96v0q-9 -3 -19 -3q-27 1 -45 19t-19 45q1 27 19 45t45 19q27 -1 45 -19t19 -45q-1 -26 -18 -44l64 -102
v0q9 -19 -6 -32q-38 -28 -40 -78v0zM160 345q0 14 -9 23v0v0q-9 9 -23 9t-23 -9t-9 -23t9 -23t23 -9t23 9t9 23v0zM288 121q-14 0 -23 -9v0v0q-9 -9 -9 -23t9 -23t23 -9t23 9t9 23t-9 23t-23 9v0zM224 89q1 27 19 45v0v0q18 18 45 19q10 0 19 -3l64 102v0q13 17 32 8
q20 -11 45 -11q41 1 68 28t28 68q-1 41 -28 68t-68 28q-28 0 -51 -15q-13 -6 -22 6q-7 13 5 22q30 19 68 19q54 -1 91 -37q36 -37 37 -91q-1 -54 -37 -90q-37 -37 -91 -38q-29 0 -54 12l-60 -96v0q17 -18 18 -44q-1 -27 -19 -45t-45 -19q-27 1 -45 19t-19 45v0zM73 266
q11 -9 4 -22q-9 -11 -22 -4q-25 18 -40 45t-15 60q1 54 37 91q37 36 91 37q50 -1 85 -32q35 -32 42 -80h131v0q6 21 22 34q17 14 40 14q27 -1 45 -19t19 -45q-1 -27 -19 -45t-45 -19q-23 0 -40 14q-16 13 -22 34h-138v0q-22 2 -24 23q-4 38 -30 63q-27 25 -66 26
q-41 -1 -68 -28t-28 -68q2 -51 41 -79v0zM480 345q0 14 -9 23v0v0q-9 9 -23 9t-23 -9t-9 -23t9 -23t23 -9t23 9t9 23v0z" />
</svg>
