<?xml version="1.0" standalone="no"?>
<!DOCTYPE svg PUBLIC "-//W3C//DTD SVG 1.1//EN" "http://www.w3.org/Graphics/SVG/1.1/DTD/svg11.dtd" >
<svg xmlns="http://www.w3.org/2000/svg" xmlns:xlink="http://www.w3.org/1999/xlink" version="1.1" viewBox="-10 -40 468 512">
   <path fill="currentColor"
d="M45 17q19 2 21 21q-2 19 -21 21q-19 -2 -21 -21q2 -19 21 -21v0zM0 38q1 25 22 39q23 12 45 0q22 -14 23 -39q-1 -26 -23 -39q-22 -12 -45 0q-21 13 -22 39v0zM45 137q19 1 21 20q-2 19 -21 21q-19 -2 -21 -21q2 -19 21 -20v0zM0 157q1 26 22 39q23 12 45 0
q22 -13 23 -39q-1 -25 -23 -38t-45 0q-21 13 -22 38v0zM66 277q-2 19 -21 21q-19 -2 -21 -21q2 -19 21 -21q19 2 21 21v0zM45 232q-26 1 -39 22q-12 23 0 45q13 22 39 23q25 -1 39 -23q12 -22 0 -45q-14 -21 -39 -22v0zM45 375q19 2 21 21q-2 19 -21 21q-19 -2 -21 -21
q2 -19 21 -21v0zM0 396q1 26 22 39q23 12 45 0q22 -13 23 -39q-1 -25 -23 -39q-22 -12 -45 0q-21 14 -22 39v0zM185 38q-2 19 -21 21q-19 -2 -20 -21q1 -19 20 -21q19 2 21 21v0zM164 -7q-25 1 -38 22q-13 23 0 45t38 23q26 -1 39 -23q12 -22 0 -45q-13 -21 -39 -22v0z
M164 137q19 1 21 20q-2 19 -21 21q-19 -2 -20 -21q1 -19 20 -20v0zM120 157q0 26 22 39q22 12 45 0q21 -13 22 -39q-1 -25 -22 -38q-23 -13 -45 0t-22 38v0zM185 277q-2 19 -21 21q-19 -2 -20 -21q1 -19 20 -21q19 2 21 21v0zM164 232q-25 1 -38 22q-13 23 0 45t38 23
q26 -1 39 -23q12 -22 0 -45q-13 -21 -39 -22v0zM164 376q19 1 21 20q-2 19 -21 21q-19 -2 -20 -21q1 -19 20 -20v0zM120 396q0 26 22 39q22 12 45 0q21 -13 22 -39q-1 -25 -22 -38q-23 -13 -45 0t-22 38v0zM305 38q-2 19 -21 21q-19 -2 -21 -21q2 -19 21 -21q19 2 21 21v0z
M284 -7q-26 1 -39 22q-12 23 0 45q13 22 39 23q25 -1 38 -23t0 -45q-13 -21 -38 -22v0zM284 137q19 1 21 20q-2 19 -21 21q-19 -2 -21 -21q2 -19 21 -20v0zM239 157q1 26 22 39q23 12 45 0q22 -13 23 -39q-1 -25 -23 -38t-45 0q-21 13 -22 38v0zM305 277q-2 19 -21 21
q-19 -2 -21 -21q2 -19 21 -21q19 2 21 21v0zM284 232q-26 1 -39 22q-12 23 0 45q13 22 39 23q25 -1 38 -23t0 -45q-13 -21 -38 -22v0zM284 376q19 1 21 20q-2 19 -21 21q-19 -2 -21 -21q2 -19 21 -20v0zM239 396q1 26 22 39q23 12 45 0q22 -13 23 -39q-1 -25 -23 -38t-45 0
q-21 13 -22 38v0zM424 38q-2 19 -21 21q-19 -2 -21 -21q2 -19 21 -21q19 2 21 21v0zM403 -7q-25 1 -39 22q-12 23 0 45q14 22 39 23q26 -1 39 -23q12 -22 0 -45q-13 -21 -39 -22v0zM403 137q19 1 21 20q-2 19 -21 21q-19 -2 -21 -21q2 -19 21 -20v0zM358 157q1 26 23 39
q22 12 45 0q21 -13 22 -39q-1 -25 -22 -38q-23 -13 -45 0t-23 38v0zM424 277q-2 19 -21 21q-19 -2 -21 -21q2 -19 21 -21q19 2 21 21v0zM403 232q-25 1 -39 22q-12 23 0 45q14 22 39 23q26 -1 39 -23q12 -22 0 -45q-13 -21 -39 -22v0zM403 375q19 2 21 21q-2 19 -21 21
q-19 -2 -21 -21q2 -19 21 -21v0zM358 396q1 26 23 39q22 12 45 0q21 -13 22 -39q-1 -25 -22 -39q-23 -12 -45 0q-22 14 -23 39v0z" />
</svg>
