<?xml version="1.0" standalone="no"?>
<!DOCTYPE svg PUBLIC "-//W3C//DTD SVG 1.1//EN" "http://www.w3.org/Graphics/SVG/1.1/DTD/svg11.dtd" >
<svg xmlns="http://www.w3.org/2000/svg" xmlns:xlink="http://www.w3.org/1999/xlink" version="1.1" viewBox="-10 -40 596 512">
   <path fill="currentColor"
d="M512 -7q14 0 23 9v0v0q9 9 9 23v288v0q0 14 -9 23t-23 9h-168v0v0v0h-112v0v0v0h-168v0q-14 0 -23 -9t-9 -23v-288v0q0 -14 9 -23t23 -9h448v0zM64 377h149h-149h149l-11 64v0h-58v0q-15 1 -16 16q1 15 16 16h72h216q15 -1 16 -16q-1 -15 -16 -16h-58v0l-11 -64v0h149v0
q27 -1 45 -19t19 -45v-288v0q-1 -27 -19 -45t-45 -19h-448v0q-27 1 -45 19t-19 45v288v0q1 27 19 45t45 19v0zM235 441l11 -64l-11 64l11 -64h85v0l10 64v0h-106v0zM368 57q-15 1 -16 16q1 15 16 16h57v0l-121 121v0l-69 -68v0q-11 -10 -22 0l-112 112v0q-10 11 0 22
q11 10 22 0l101 -100v0l69 68v0q4 5 11 5t11 -5l133 -132v0v57v0q1 15 16 16q15 -1 16 -16v-96v0q-1 -15 -16 -16h-96v0z" />
</svg>
