<?xml version="1.0" standalone="no"?>
<!DOCTYPE svg PUBLIC "-//W3C//DTD SVG 1.1//EN" "http://www.w3.org/Graphics/SVG/1.1/DTD/svg11.dtd" >
<svg xmlns="http://www.w3.org/2000/svg" xmlns:xlink="http://www.w3.org/1999/xlink" version="1.1" viewBox="-10 -40 660 512">
   <path fill="currentColor"
d="M64 -7h448h-448h448q14 0 23 9t9 23v135v0q17 4 32 12v-147v0q-1 -27 -19 -45t-45 -19h-448v0q-27 1 -45 19t-19 45v288v0q1 27 19 45t45 19h149v0l-11 64v0h-58v0q-15 1 -16 16q1 15 16 16h72h179q-20 -14 -35 -32h-19h-106l11 -64v0h42h39q-5 -15 -6 -32h-89v0v0v0
h-168v0q-14 0 -23 -9t-9 -23v-288v0q0 -14 9 -23t23 -9v0zM480 154v-81v81v-81q-1 -15 -16 -16h-96v0q-15 1 -16 16q1 15 16 16h57v0l-121 121v0l-69 -68v0q-11 -10 -22 0l-112 112v0q-10 11 0 22q11 10 22 0l101 -100v0l69 68v0q4 5 11 5t11 -5l133 -132v0v48v0
q15 -5 32 -6v0zM496 217q30 0 56 15v0v0q26 15 41 41t15 56t-15 56t-41 41t-56 15t-56 -15t-41 -41t-15 -56t15 -56t41 -41t56 -15v0zM496 473q39 0 72 -19v0v0q33 -19 53 -53q19 -34 19 -72t-19 -72q-20 -34 -53 -53t-72 -19t-72 19t-53 53q-19 34 -19 72t19 72
q20 34 53 53t72 19v0zM471 304q14 -16 35 -11q20 6 26 26q5 21 -11 35q-14 16 -35 11q-20 -6 -26 -26q-5 -21 11 -35v0zM531 387l10 9l-10 -9l10 9q11 10 22 0q10 -11 0 -22l-9 -10v0q20 -35 0 -70l9 -10v0q10 -11 0 -22q-11 -9 -22 0l-10 9v0q-35 -20 -70 0l-10 -9v0
q-11 -9 -22 0q-10 11 0 22l9 10v0q-20 35 0 70l-9 10v0q-10 11 0 22q11 10 22 0l10 -9v0q35 20 70 0v0z" />
</svg>
