<?xml version="1.0" standalone="no"?>
<!DOCTYPE svg PUBLIC "-//W3C//DTD SVG 1.1//EN" "http://www.w3.org/Graphics/SVG/1.1/DTD/svg11.dtd" >
<svg xmlns="http://www.w3.org/2000/svg" xmlns:xlink="http://www.w3.org/1999/xlink" version="1.1" viewBox="-10 -40 660 512">
   <path fill="currentColor"
d="M128 25h384h-384h384q14 0 23 9t9 23v256v0h32v0v-256v0q-1 -27 -19 -45t-45 -19h-384v0q-27 1 -45 19t-19 45v256v0h32v0v-256v0q0 -14 9 -23t23 -9v0zM34 377h572h-572h572q-10 30 -43 32h-486v0q-33 -2 -43 -32v0zM19 345q-17 2 -19 19q1 33 23 55q21 21 54 22h486v0
q33 -1 55 -22q21 -22 22 -55q-2 -17 -19 -19h-602v0zM200 89q-17 0 -28 12v0v0q-12 11 -12 28v32v0q0 17 12 28q11 12 28 12h16v0q17 0 28 -12q12 -11 12 -28v-32v0q0 -17 -12 -28q-11 -12 -28 -12h-16v0zM192 129q1 -7 8 -8h16v0q7 1 8 8v32v0q-1 7 -8 8h-16v0q-7 -1 -8 -8
v-32v0zM304 89q-15 1 -16 16q1 15 16 16v64v0q1 15 16 16q15 -1 16 -16v-80v0q-1 -15 -16 -16h-16v0zM384 129v32v-32v32q0 17 12 28q11 12 28 12h16v0q17 0 28 -12q12 -11 12 -28v-32v0q0 -17 -12 -28q-11 -12 -28 -12h-16v0q-17 0 -28 12q-12 11 -12 28v0zM424 121h16h-16
h16q7 1 8 8v32v0q-1 7 -8 8h-16v0q-7 -1 -8 -8v-32v0q1 -7 8 -8v0zM192 233q-15 1 -16 16q1 15 16 16v48v0h32v0v-64v0q-1 -15 -16 -16h-16v0zM448 249q-1 -15 -16 -16h-16v0q-15 1 -16 16q1 15 16 16v48v0h32v0v-64v0zM368 273q0 -17 -12 -28v0v0q-11 -12 -28 -12h-16v0
q-17 0 -28 12q-12 11 -12 28v40v0h32v0v-40v0q1 -7 8 -8h16v0q7 1 8 8v40v0h32v0v-40v0z" />
</svg>
