<?xml version="1.0" standalone="no"?>
<!DOCTYPE svg PUBLIC "-//W3C//DTD SVG 1.1//EN" "http://www.w3.org/Graphics/SVG/1.1/DTD/svg11.dtd" >
<svg xmlns="http://www.w3.org/2000/svg" xmlns:xlink="http://www.w3.org/1999/xlink" version="1.1" viewBox="-10 -40 522 512">
   <path fill="currentColor"
d="M226 -5q-2 2 -3 4l-13 48v0q-7 18 -23 26q-11 5 -22 12q-14 10 -33 7l-49 -12v0q-2 -1 -4 0q-8 10 -15 22l-4 7v0q-7 11 -11 23q0 3 2 4l34 36v0q13 14 12 33q-1 6 -1 12t1 13q1 18 -12 32l-34 36v0q-2 2 -2 4q5 12 11 23l4 7v0q7 12 15 22q2 1 4 0l49 -12v0q19 -3 34 7
q10 7 21 12q17 8 23 27l13 47v0q1 3 3 4q15 2 30 2q16 0 30 -2q2 -1 3 -4l13 -47v0q7 -19 23 -27q11 -5 22 -12q15 -10 34 -7l48 12v0q2 1 4 0q8 -10 15 -22l4 -7v0q7 -11 12 -23q-1 -2 -3 -4l-34 -36v0q-13 -14 -11 -32v-13v-12q-2 -19 11 -33l34 -36v0q2 -1 2 -4
q-5 -12 -11 -23l-4 -7v0q-7 -12 -15 -22q-2 -1 -4 0l-49 12v0q-19 3 -33 -7q-11 -7 -22 -12q-17 -8 -23 -26l-13 -48v0q-1 -2 -3 -4q-15 -2 -30 -2t-30 2v0zM218 -36q18 -3 38 -3t38 3q3 0 5 2q15 7 20 24l14 48v0q1 3 6 6q13 6 26 15q4 2 8 2l48 -12v0q17 -4 31 5q2 1 4 3
q11 13 19 28h1v0l4 8v0v0v0q8 15 14 31q1 2 2 5q0 17 -12 30l-34 35v0q-3 3 -3 8q1 4 1 8v7q0 8 -1 15q0 5 3 8l34 36v0q12 12 12 29q-1 3 -2 5q-6 16 -14 31v0v0l-4 8v0v0v0q-9 15 -20 28q-2 2 -4 3q-14 9 -31 5l-48 -12v0q-4 0 -8 2q-13 9 -26 15q-5 3 -6 6l-14 48v0
q-5 17 -20 25q-2 1 -5 1q-18 3 -38 3t-38 -3q-3 0 -5 -1q-15 -8 -20 -25l-14 -48v0q-1 -3 -6 -6q-13 -6 -26 -15q-4 -2 -8 -1l-48 12v0q-17 3 -31 -6q-2 -1 -4 -3q-11 -13 -19 -28h-1v0l-4 -8v0v0v0q-8 -15 -14 -31q-1 -2 -2 -5q0 -17 12 -29l34 -36v0q3 -3 3 -8
q-1 -7 -1 -15t1 -15q0 -5 -3 -8l-34 -36v0q-12 -13 -11 -29q0 -3 1 -5q6 -16 14 -31v0v0l4 -8v0h1v0q8 -15 19 -28q2 -2 4 -3q14 -9 31 -5l48 12v0q4 0 8 -2q13 -9 26 -15q5 -3 6 -6l14 -48v0q5 -17 20 -24q2 -2 5 -2v0zM288 124l-32 192l32 -192l-32 192q-4 14 -19 13
q-14 -4 -13 -18l32 -192v0q4 -15 19 -14q14 4 13 19v0zM187 188l-28 29l28 -29l-28 29l28 29v0q10 11 0 22q-11 10 -22 0l-40 -40v0q-10 -11 0 -22l40 -40v0q11 -10 22 0q10 11 0 22v0zM347 166l40 40l-40 -40l40 40q10 11 0 22l-40 40v0q-11 10 -22 0q-10 -11 0 -22l28 -29
v0l-28 -29v0q-10 -11 0 -22q11 -10 22 0v0z" />
</svg>
