<?xml version="1.0" standalone="no"?>
<!DOCTYPE svg PUBLIC "-//W3C//DTD SVG 1.1//EN" "http://www.w3.org/Graphics/SVG/1.1/DTD/svg11.dtd" >
<svg xmlns="http://www.w3.org/2000/svg" xmlns:xlink="http://www.w3.org/1999/xlink" version="1.1" viewBox="-10 -40 650 512">
   <path fill="currentColor"
d="M288 158v-165v165v-165h-128v0v165v0q0 27 -14 50l-45 73v0h204v0q4 21 21 32h-245v0l-43 71v0q-6 9 -6 20q0 16 11 26q10 11 26 11h282v0q26 19 53 5v1v0q0 10 4 19q-13 7 -29 7h-310v0q-29 -1 -49 -20q-19 -20 -20 -49q0 -20 10 -37l109 -176v0q9 -15 9 -33v-165v0h-16
v0q-15 -1 -16 -16q1 -15 16 -16h48h176q15 1 16 16q-1 15 -16 16h-16v0v165v0q0 18 10 33l6 11v0l-14 20q-2 5 -5 10l-15 -24v0q-14 -23 -14 -50v0zM463 201q-6 25 -26 37q-21 12 -46 3l-18 31v0q19 18 19 42t-19 43l18 30v0q25 -8 46 4q20 11 26 36h34v0q6 -25 27 -36
q20 -12 45 -4l18 -30v0q-19 -19 -19 -43q0 -23 19 -42l-18 -31v0q-25 9 -45 -3q-21 -12 -27 -37h-34v0zM507 169q19 2 21 21v2v0q1 12 11 18q11 6 21 0l2 -1v0q19 -9 31 8l26 47v0q8 18 -8 29q-11 8 -11 21q0 14 11 21q16 11 8 29l-26 47v0q-12 17 -31 8l-2 -1v0
q-10 -5 -21 1q-10 6 -11 18v1v0q-2 20 -21 21h-54v0q-19 -1 -21 -21v-1v0q-1 -12 -11 -18q-11 -6 -21 -1l-2 1v0q-19 9 -30 -8l-27 -47v0q-8 -18 8 -29q11 -7 11 -21t-11 -21q-16 -11 -8 -29l26 -47v0q12 -17 31 -8l2 1v0q10 6 21 0q10 -7 11 -18v-2v0q2 -19 21 -21h54v0z
M424 314q1 -32 28 -48q28 -15 56 0q27 16 28 48q-1 32 -28 49q-28 15 -56 0q-27 -17 -28 -49v0zM480 338q22 -2 24 -24q-2 -22 -24 -24q-22 2 -24 24q2 22 24 24v0z" />
</svg>
