<?xml version="1.0" standalone="no"?>
<!DOCTYPE svg PUBLIC "-//W3C//DTD SVG 1.1//EN" "http://www.w3.org/Graphics/SVG/1.1/DTD/svg11.dtd" >
<svg xmlns="http://www.w3.org/2000/svg" xmlns:xlink="http://www.w3.org/1999/xlink" version="1.1" viewBox="-10 -40 522 512">
   <path fill="currentColor"
d="M89 57h334h-334h334l13 50v0q12 50 12 101v18v0q0 51 -12 101l-13 50v0h-334v0l-13 -50v0q-12 -50 -12 -101v-18v0q0 -51 12 -101l13 -50v0zM431 25h-350h350h-350l-16 -24v0q-1 -2 -1 -3q0 -5 5 -5h374v0q5 0 5 5q0 1 -1 3l-16 24v0zM81 409h350h-350h350l16 25v0
q1 1 1 2q0 5 -5 5h-374v0q-5 0 -5 -5q0 -1 1 -2l16 -25v0zM38 18l20 30l-20 -30l20 30l-13 52v0q-13 53 -13 108v18v0q0 55 13 109l13 51v0l-20 30v0q-6 9 -6 20q0 16 11 26q10 11 26 11h374v0q16 0 26 -11q11 -10 11 -26q0 -11 -6 -20l-20 -30v0l13 -51v0q13 -54 13 -109
v-18v0q0 -55 -13 -108l-13 -52v0l20 -30v0q6 -9 6 -20q0 -16 -11 -26q-10 -11 -26 -11h-374v0q-16 0 -26 11q-11 10 -11 26q0 11 6 20v0zM272 280q48 -7 80 -42v0v0q31 -35 32 -85v-2v0q0 -13 -9 -21q-8 -9 -21 -9h-9v0q-58 2 -89 45q-31 -43 -89 -45h-9v0q-13 0 -21 9
q-9 8 -9 21v2v0q1 50 32 85q32 35 80 42v33v0q1 15 16 16q15 -1 16 -16v-33v0zM240 248q-35 -7 -57 -33v0v0q-22 -26 -23 -62h7v0q26 0 45 14q19 13 28 34v47v0zM272 248v-47v47v-47q9 -21 28 -34q19 -14 45 -14h7v0q-1 36 -23 62t-57 33v0z" />
</svg>
