<?xml version="1.0" standalone="no"?>
<!DOCTYPE svg PUBLIC "-//W3C//DTD SVG 1.1//EN" "http://www.w3.org/Graphics/SVG/1.1/DTD/svg11.dtd" >
<svg xmlns="http://www.w3.org/2000/svg" xmlns:xlink="http://www.w3.org/1999/xlink" version="1.1" viewBox="-10 -40 660 512">
   <path fill="currentColor"
d="M384 -23q1 -15 16 -16h96v0q15 1 16 16q-1 15 -16 16h-96v0q-15 -1 -16 -16v0zM352 153h-32h32h-32q-1 -27 -19 -45t-45 -19h-128v0q-27 1 -45 19t-19 45h-32v0q1 -41 28 -68t68 -28h128v0q38 1 65 25q30 28 31 71v0zM575 153h-32h32h-32q-2 -5 -4 -9q-11 -18 0 -35
q5 -7 5 -16q-1 -17 -16 -25l-13 -6v0q-11 -5 -22 -5h-91v0q-11 0 -21 5l-13 6v0q-6 3 -10 8q-10 -13 -23 -23q8 -9 19 -14l13 -6v0q17 -8 35 -8h91v0q18 0 35 8l13 6v0q33 17 35 54q-1 19 -10 34q7 11 9 26v0zM578 185h18h-18h46q15 1 16 16q-1 15 -16 16h-18v0l-22 185v0
q-4 31 -26 51q-22 19 -53 20h-370v0q-31 -1 -53 -20q-22 -20 -26 -51l-22 -185v0h-18v0q-15 -1 -16 -16q1 -15 16 -16h18h544zM66 217l22 182l-22 -182l22 182q2 18 15 30t32 12h370v0q19 0 32 -12t16 -30l21 -182v0h-508v0zM160 -39h64h-64h64q14 0 23 9t9 23q15 1 16 16
q-1 15 -16 16h-16v0q-15 -1 -16 -16v-16v0h-64v0v16v0q-1 15 -16 16h-16v0q-15 -1 -16 -16q1 -15 16 -16q0 -14 9 -23t23 -9v0z" />
</svg>
