<?xml version="1.0" standalone="no"?>
<!DOCTYPE svg PUBLIC "-//W3C//DTD SVG 1.1//EN" "http://www.w3.org/Graphics/SVG/1.1/DTD/svg11.dtd" >
<svg xmlns="http://www.w3.org/2000/svg" xmlns:xlink="http://www.w3.org/1999/xlink" version="1.1" viewBox="-10 -40 660 512">
   <path fill="currentColor"
d="M384 -23q1 15 16 16h96v0q15 -1 16 -16q-1 -15 -16 -16h-96v0q-15 1 -16 16v0zM352 153q-1 -43 -31 -71q-27 -24 -65 -25h-128v0q-41 1 -68 28t-28 68h32v0q1 -27 19 -45t45 -19h128v0q27 1 45 19t19 45h32v0zM575 153q-2 -15 -9 -26q9 -15 10 -34q-2 -37 -35 -54l-13 -6
v0q-17 -8 -35 -8h-91v0q-18 0 -35 8l-13 6v0q-11 5 -18 14q12 10 22 23q4 -5 10 -8l13 -6v0q10 -5 21 -5h91v0q11 0 22 5l13 6v0q15 8 16 25q0 9 -5 16q-11 17 -1 35q3 4 4 9h33v0zM596 185h-18h18h-580q-15 1 -16 16q1 15 16 16h18v0l22 185v0q4 31 26 51q22 19 53 20h370
v0q31 -1 53 -20q22 -20 26 -51l22 -185v0h18v0q15 -1 16 -16q-1 -15 -16 -16h-18h-10zM88 399l-22 -182l22 182l-22 -182h508v0l-21 182v0q-3 18 -16 30t-32 12h-370v0q-19 0 -32 -12t-16 -30h1zM320 281q7 0 11 6l9 13v0q9 11 22 5q12 -9 5 -22l-9 -13v0q-14 -20 -38 -21
q-24 1 -38 20l-8 12v0q-7 13 5 22q13 7 22 -5l7 -11v0q5 -6 12 -6v0zM261 329q-13 -6 -22 5l-8 12v0q-7 10 -7 23q0 17 12 28q11 12 29 12h25v0q14 -1 16 -16q-2 -14 -16 -16h-25v0q-8 -1 -9 -8q0 -3 1 -5l8 -12v0q7 -13 -4 -22v-1zM338 393q1 15 16 16h21v0q17 0 28 -12
q12 -11 12 -29q0 -12 -6 -22l-7 -10v0q-9 -11 -22 -5q-12 9 -5 23l7 10v0q1 2 1 4q-1 8 -8 9h-21v0q-15 1 -16 16v0zM160 -39q-14 0 -23 9v0v0q-9 9 -9 23q-15 1 -16 16q1 15 16 16h16v0q15 -1 16 -16v-16v0h64v0v16v0q1 15 16 16h16v0q15 -1 16 -16q-1 -15 -16 -16
q0 -14 -9 -23t-23 -9h-64v0z" />
</svg>
