<?xml version="1.0" standalone="no"?>
<!DOCTYPE svg PUBLIC "-//W3C//DTD SVG 1.1//EN" "http://www.w3.org/Graphics/SVG/1.1/DTD/svg11.dtd" >
<svg xmlns="http://www.w3.org/2000/svg" xmlns:xlink="http://www.w3.org/1999/xlink" version="1.1" viewBox="-10 -40 596 512">
   <path fill="currentColor"
d="M536 25q7 1 8 8v16v0q-1 7 -8 8h-24h-472q-7 -1 -8 -8v-16v0q1 -7 8 -8h496v0zM0 49q0 16 10 26v0v0q10 11 25 14v0v0l24 293v0q3 26 21 42q17 16 43 17h330v0q26 -1 43 -17q18 -16 21 -42l24 -293v0v0v0q15 -3 25 -14q10 -10 10 -26v-16v0q0 -17 -12 -28
q-11 -12 -28 -12h-496v0q-17 0 -28 12q-12 11 -12 28v16v0zM91 380l-24 -291l24 291l-24 -291h442v0l-24 291v0q-4 27 -32 29h-330v0q-13 0 -22 -8q-9 -9 -10 -21v0zM288 153q8 0 13 6l31 43v0q9 10 21 4q12 -10 4 -23l-31 -43v0q-14 -18 -38 -19q-24 1 -38 19l-31 43v0
q-8 13 4 23q12 6 21 -4l31 -43v0q5 -6 13 -6v0zM202 230q-12 -6 -21 4l-28 38v0q-9 12 -9 27q0 20 13 33t33 13h66v0q15 -1 16 -16q-1 -15 -16 -16h-66v0q-13 -1 -14 -14q0 -5 3 -8l27 -38v0q8 -13 -4 -23v0zM304 329q1 15 16 16h66v0q20 0 33 -13t13 -33q0 -15 -9 -27
l-28 -38v0q-9 -10 -21 -4q-12 10 -4 23l27 38v0q3 3 3 8q-1 13 -14 14h-66v0q-15 1 -16 16v0z" />
</svg>
