<?xml version="1.0" standalone="no"?>
<!DOCTYPE svg PUBLIC "-//W3C//DTD SVG 1.1//EN" "http://www.w3.org/Graphics/SVG/1.1/DTD/svg11.dtd" >
<svg xmlns="http://www.w3.org/2000/svg" xmlns:xlink="http://www.w3.org/1999/xlink" version="1.1" viewBox="-10 -40 532 512">
   <path fill="currentColor"
d="M352 17q2 -22 24 -24q22 2 24 24q-2 22 -24 24q-22 -2 -24 -24v0zM432 17q-1 -32 -28 -48q-28 -16 -56 0q-27 16 -28 48q1 32 28 48q28 16 56 0q27 -16 28 -48v0zM275 77q-19 -4 -38 0l-2 1v0q-19 5 -33 17l-52 46v0q-11 11 -2 23q11 10 23 1l52 -46v0q9 -7 20 -10h2v0
q11 -3 23 0l17 4v0l-36 106v0q-5 17 1 32q6 16 21 25l94 52v0l-44 124v0q-4 14 10 20q14 4 20 -10l44 -123v0q6 -25 -15 -38l-37 -22v0v-1l37 -111v0l14 47v0q11 33 46 35h56v0q15 -1 16 -16q-1 -15 -16 -16h-56v0q-11 -1 -15 -12l-21 -71v0q-8 -26 -34 -33l-95 -24v0z
M358 131l-44 132l44 -132l-44 132l-27 -15v0q-11 -7 -7 -19l36 -109v0l43 11h-1zM226 275l-29 70l29 -70l-29 70h-85v0q-15 1 -16 16q1 15 16 16h85v0q21 -1 30 -20l23 -56v0q-15 -11 -24 -26v0zM16 57q-15 1 -16 16q1 14 16 16h128v0q15 -2 16 -16q-1 -15 -16 -16h-128v0z
M0 137q1 14 16 16h64v0q15 -2 16 -16q-1 -15 -16 -16h-64v0q-15 1 -16 16v0zM16 185q-15 1 -16 16q1 14 16 16h128v0q15 -2 16 -16q-1 -15 -16 -16h-128v0z" />
</svg>
