<?xml version="1.0" standalone="no"?>
<!DOCTYPE svg PUBLIC "-//W3C//DTD SVG 1.1//EN" "http://www.w3.org/Graphics/SVG/1.1/DTD/svg11.dtd" >
<svg xmlns="http://www.w3.org/2000/svg" xmlns:xlink="http://www.w3.org/1999/xlink" version="1.1" viewBox="-10 -40 660 512">
   <path fill="currentColor"
d="M0 73q1 -34 23 -57v0v0q23 -22 57 -23h4v0q45 2 66 41q6 13 -7 21q-14 6 -21 -7q-12 -22 -38 -23h-4v0q-20 1 -34 14q-13 14 -14 34v288v0q1 20 14 34q14 13 34 14h4v0q26 -1 38 -23q8 -13 21 -7q13 7 7 21q-21 39 -66 41h-4v0q-34 -1 -57 -24q-22 -22 -23 -56v-288v0z
M208 -7q15 1 16 16v176v0h160v0v-176v0q1 -15 16 -16q15 1 16 16v416v0q-1 15 -16 16q-15 -1 -16 -16v-208v0h-160v0v208v0q-1 15 -16 16q-15 -1 -16 -16v-416v0q1 -15 16 -16v0zM448 9q1 -15 16 -16h160v0q15 1 16 16q-1 15 -16 16h-144v0v160v0h112v0q15 1 16 16
q-1 15 -16 16h-112v0v208v0q-1 15 -16 16q-15 -1 -16 -16v-416v0z" />
</svg>
