<?xml version="1.0" standalone="no"?>
<!DOCTYPE svg PUBLIC "-//W3C//DTD SVG 1.1//EN" "http://www.w3.org/Graphics/SVG/1.1/DTD/svg11.dtd" >
<svg xmlns="http://www.w3.org/2000/svg" xmlns:xlink="http://www.w3.org/1999/xlink" version="1.1" viewBox="-10 -40 660 512">
   <path fill="currentColor"
d="M288 185h107h-107h107q-20 14 -35 32h-88v0q-15 -1 -16 -16v-222v0q1 -16 17 -18q89 2 153 55q63 53 82 137h-12q-11 0 -21 1q-16 -67 -66 -111q-51 -43 -121 -49v191v0zM256 249h83h-83h83q-8 15 -12 32h-103v0q-14 0 -23 -9t-9 -23v-218v0q-70 17 -114 72
q-45 55 -46 130q2 88 61 147t147 61q56 -1 102 -27q8 14 18 27q-54 31 -120 32q-67 -1 -121 -33t-86 -86t-33 -121q2 -88 54 -152q53 -64 136 -83q14 -2 24 7q10 8 10 23v189v0v32v0h32v0zM496 441q30 0 56 -15v0v0q26 -15 41 -41t15 -56t-15 -56t-41 -41t-56 -15t-56 15
t-41 41t-15 56t15 56t41 41t56 15v0zM496 185q39 0 72 19v0v0q33 19 53 53q19 34 19 72t-19 72q-20 34 -53 53t-72 19t-72 -19t-53 -53q-19 -34 -19 -72t19 -72q20 -34 53 -53t72 -19v0zM521 354q16 -14 11 -35q-6 -20 -26 -26q-21 -5 -35 11q-16 14 -11 35q6 20 26 26
q21 5 35 -11v0zM531 387q-35 20 -70 0l-10 9v0q-11 10 -22 0q-9 -11 0 -22l9 -10v0q-20 -35 0 -70l-9 -10v0q-9 -11 0 -22q11 -9 22 0l10 9v0q35 -20 70 0l10 -9v0q11 -9 22 0q10 11 0 22l-9 10v0q20 35 0 70l9 10v0q10 11 0 22q-11 10 -22 0l-10 -9v0z" />
</svg>
