<?xml version="1.0" standalone="no"?>
<!DOCTYPE svg PUBLIC "-//W3C//DTD SVG 1.1//EN" "http://www.w3.org/Graphics/SVG/1.1/DTD/svg11.dtd" >
<svg xmlns="http://www.w3.org/2000/svg" xmlns:xlink="http://www.w3.org/1999/xlink" version="1.1" viewBox="-10 -40 458 512">
   <path fill="currentColor"
d="M234 -19q-10 -8 -20 0l-160 128v0q-11 10 -2 22q10 11 22 3l150 -120v0l150 120v0q12 8 23 -3q8 -12 -3 -22l-160 -128v0zM394 326q11 -11 3 -23q-11 -11 -23 -2l-150 120v0l-150 -120v0q-12 -9 -22 2q-9 12 2 23l160 128v0q10 7 20 0l160 -128v0z" />
</svg>
