<?xml version="1.0" standalone="no"?>
<!DOCTYPE svg PUBLIC "-//W3C//DTD SVG 1.1//EN" "http://www.w3.org/Graphics/SVG/1.1/DTD/svg11.dtd" >
<svg xmlns="http://www.w3.org/2000/svg" xmlns:xlink="http://www.w3.org/1999/xlink" version="1.1" viewBox="-11 0 662 512">
   <path fill="currentColor"
d="M26 -36q-12 -7 -23 3q-8 12 3 23l608 480v0q12 8 23 -3q8 -12 -3 -22l-608 -481v0zM460 409h-364h364h-364q-14 0 -23 -9t-9 -23v-281v0l-32 -25v0v306v0q1 27 19 45t45 19h404v0l-40 -32v0zM544 -7h-404h404h-404l40 32v0h364v0q14 0 23 9t9 23v281v0l32 25v0v-306v0
q-1 -27 -19 -45t-45 -19v0zM423 217l41 32l-41 -32l41 32h32v0q15 -1 16 -16q-1 -15 -16 -16h-73v0zM144 217q-15 1 -16 16q1 15 16 16h113v0l-40 -32v0h-73v0zM304 313q-15 1 -16 16q1 15 16 16h75v0l-41 -32v0h-34v0zM144 313q-15 1 -16 16q1 15 16 16h96v0q15 -1 16 -16
q-1 -15 -16 -16h-96v0z" />
</svg>
