<?xml version="1.0" standalone="no"?>
<!DOCTYPE svg PUBLIC "-//W3C//DTD SVG 1.1//EN" "http://www.w3.org/Graphics/SVG/1.1/DTD/svg11.dtd" >
<svg xmlns="http://www.w3.org/2000/svg" xmlns:xlink="http://www.w3.org/1999/xlink" version="1.1" viewBox="-10 -40 660 512">
   <path fill="currentColor"
d="M144 -39q-61 2 -102 42v0v0q-40 41 -42 102v24v0q0 8 7 13t15 2l52 -19v0q12 15 29 22l-5 262v0q0 27 17 45q18 18 45 19q27 -1 45 -19q17 -18 18 -45l-6 -259v0q25 -7 40 -29h63v0v16v0q1 15 16 16q15 -1 16 -16v-160v0q-1 -15 -16 -16q-15 1 -16 16v16v0h-63v0
q-22 -31 -61 -32h-52v0zM320 25v64v-64v64h-72v0q-10 0 -14 9q-12 22 -38 23h-64v0q-26 -1 -38 -23q-7 -12 -20 -8l-42 16v0v-1v0q1 -48 33 -79q31 -32 79 -33h52v0q26 1 38 23q4 9 14 9h72v0zM185 153l6 257l-6 -257l6 257q-1 13 -9 22q-9 9 -22 9t-22 -9t-9 -22l6 -257v0
h50v0zM528 181l12 10l-12 -10l12 10l57 47v0q5 5 8 11h-218v0q3 -6 9 -11l57 -47v0l11 -10v0v-15v0v-141v0q0 -14 9 -23t23 -9t23 9t9 23v141v0v15v0zM384 281h224h-224h224v144v0q-1 15 -16 16h-112v0v-64v0q-1 -15 -16 -16q-15 1 -16 16v64v0h-48v0q-15 -1 -16 -16v-144v0
zM560 166v-141v141v-141q-1 -27 -19 -45t-45 -19q-27 1 -45 19t-19 45v141v0l-57 48v0q-22 19 -23 49v162v0q1 20 14 34q14 13 34 14h192v0q20 -1 34 -14q13 -14 14 -34v-162v0q-1 -30 -23 -49l-57 -48v0zM512 41q-1 -15 -16 -16q-15 1 -16 16q1 15 16 16q15 -1 16 -16v0z
" />
</svg>
