<?xml version="1.0" standalone="no"?>
<!DOCTYPE svg PUBLIC "-//W3C//DTD SVG 1.1//EN" "http://www.w3.org/Graphics/SVG/1.1/DTD/svg11.dtd" >
<svg xmlns="http://www.w3.org/2000/svg" xmlns:xlink="http://www.w3.org/1999/xlink" version="1.1" viewBox="-10 -40 596 512">
   <path fill="currentColor"
d="M272 217q30 0 56 -15v0v0q26 -15 41 -41t15 -56t-15 -56t-41 -41t-56 -15t-56 15t-41 41t-15 56t15 56t41 41t56 15v0zM272 -39q39 0 72 19v0v0q33 19 53 53q19 34 19 72t-19 72q-20 34 -53 53t-72 19t-72 -19t-53 -53q-19 -34 -19 -72t19 -72q20 -34 53 -53t72 -19v0z
M249 72q-1 1 -1 4v0v0q-1 1 5 5q8 4 22 7q1 1 2 1v0v0q15 3 30 11q18 9 21 33q-2 27 -22 37q-9 4 -18 6v11v0q-1 14 -16 16q-15 -2 -16 -16v-12v0q-13 -3 -24 -6v0v0v0v0l-4 -2h-1q-13 -6 -10 -20q5 -14 20 -11l6 2l1 1q15 5 28 6q11 0 19 -4q3 -1 4 -3q1 -1 1 -4
q1 -2 -5 -6q-8 -4 -23 -8l-2 -1v0q-14 -3 -28 -10q-18 -7 -22 -31q1 -28 22 -37q9 -5 18 -6v-10v0q1 -15 16 -16q14 1 16 16v9v0l18 4q14 5 11 20q-4 13 -19 11q-14 -4 -26 -4q-11 0 -19 4q-4 2 -4 4v-1zM151 278q20 -13 44 -13h149v0q24 1 40 16q15 16 16 40q0 13 -5 24h5
v0l95 -56v0q13 -8 27 -8h2v0q22 1 37 15q14 15 15 37q-1 28 -24 44l-119 78v0q-28 18 -61 18h-356v0q-15 -1 -16 -16q1 -15 16 -16h356v0q23 0 43 -13l120 -78v0q9 -6 9 -17q-2 -18 -20 -20h-2v0q-6 0 -11 3l-98 59v0q-4 2 -8 2h-61h-88q-15 -1 -16 -16q1 -15 16 -16h64h24
q22 -2 24 -24q-2 -22 -24 -24h-149v0q-14 0 -26 8l-80 53v0q-4 3 -9 3h-64v0q-15 -1 -16 -16q1 -15 16 -16h59v0l76 -51v0z" />
</svg>
