<?xml version="1.0" standalone="no"?>
<!DOCTYPE svg PUBLIC "-//W3C//DTD SVG 1.1//EN" "http://www.w3.org/Graphics/SVG/1.1/DTD/svg11.dtd" >
<svg xmlns="http://www.w3.org/2000/svg" xmlns:xlink="http://www.w3.org/1999/xlink" version="1.1" viewBox="-10 -40 660 512">
   <path fill="currentColor"
d="M448 249q-17 0 -32 -3v67v0h-80v0v-110v0q-9 -8 -16 -18h-16v0v128v0h-96v0v-128v0h-32v0v128v0h-80v0v-128v0h-32v0v128v0q-15 1 -16 16q1 15 16 16h384v0q15 -1 16 -16q-1 -15 -16 -16v-64v0zM264 -37q-8 -4 -16 0l-232 132v0q-15 9 -16 27q0 13 9 22t22 9h270v0
q-6 -15 -10 -32h-257v0l222 -126v0l47 27v0q7 -15 16 -28l-55 -31v0zM24 393q1 15 16 16h432v0q15 -1 16 -16q-1 -15 -16 -16h-432v0q-15 1 -16 16v0zM0 457q1 15 16 16h480v0q15 -1 16 -16q-1 -15 -16 -16h-480v0q-15 1 -16 16v0zM448 -7q26 0 48 13v0v0q22 13 35 35
q13 23 13 48t-13 48t-35 35q-22 13 -48 13t-48 -13q-22 -12 -35 -35t-13 -48t13 -48q13 -22 35 -35t48 -13v0zM448 217q45 -1 79 -27l86 86v0q11 10 22 0q10 -11 0 -22l-86 -86v0q26 -34 27 -79q-1 -54 -37 -90q-37 -36 -91 -38q-54 2 -91 38q-36 36 -37 90q1 55 37 91
q37 36 91 37v0z" />
</svg>
