<?xml version="1.0" standalone="no"?>
<!DOCTYPE svg PUBLIC "-//W3C//DTD SVG 1.1//EN" "http://www.w3.org/Graphics/SVG/1.1/DTD/svg11.dtd" >
<svg xmlns="http://www.w3.org/2000/svg" xmlns:xlink="http://www.w3.org/1999/xlink" version="1.1" viewBox="-10 -40 660 512">
   <path fill="currentColor"
d="M64 25h-16h16h-16q-15 1 -16 16v288v0q1 15 16 16h284v0q7 17 17 32h-253v0v80v0q-1 15 -16 16q-15 -1 -16 -16v-80v0h-16v0q-20 -1 -34 -14q-13 -14 -14 -34v-288v0q1 -20 14 -34q14 -13 34 -14h16v0v-16v0q1 -15 16 -16q15 1 16 16v16v0h384v0v-16v0q1 -15 16 -16
q15 1 16 16v16v0h16v0q20 1 34 14q13 14 14 34v83v0q-15 -8 -32 -12v-71v0q-1 -15 -16 -16h-16h-448zM464 162v87v-87v87q0 14 9 23t23 9t23 -9t9 -23v-87v0q0 -8 7 -13t15 -2q40 17 65 53q24 35 25 81q-2 66 -48 107v69v0q-1 15 -16 16q-15 -1 -16 -16v-76v0q0 -8 6 -13
q40 -32 42 -87q-2 -59 -48 -92v60v0q-1 27 -19 45t-45 19q-27 -1 -45 -19t-19 -45v-60v0q-46 33 -48 92q2 55 42 87q6 5 6 13v76v0q-1 15 -16 16q-15 -1 -16 -16v-69v0q-46 -41 -48 -107q1 -46 25 -81q25 -36 65 -52q8 -3 15 1q7 5 7 13v0z" />
</svg>
