<?xml version="1.0" standalone="no"?>
<!DOCTYPE svg PUBLIC "-//W3C//DTD SVG 1.1//EN" "http://www.w3.org/Graphics/SVG/1.1/DTD/svg11.dtd" >
<svg xmlns="http://www.w3.org/2000/svg" xmlns:xlink="http://www.w3.org/1999/xlink" version="1.1" viewBox="-10 -40 660 512">
   <path fill="currentColor"
d="M32 89q0 -14 9 -23v0v0q9 -9 23 -9h512v0q14 0 23 9t9 23v50v0q-28 6 -46 27q-17 21 -18 51q1 30 18 51q18 21 46 27v50v0q0 14 -9 23t-23 9h-512v0q-14 0 -23 -9t-9 -23v-256v0zM64 25q-27 1 -45 19v0v0q-18 18 -19 45v256v0q1 27 19 45t45 19h512v0q27 -1 45 -19
t19 -45v-66v0q-2 -13 -16 -14q-20 -1 -34 -14q-13 -14 -14 -34q1 -20 14 -34q14 -13 34 -14q14 -1 16 -14v-66v0q-1 -27 -19 -45t-45 -19h-512v0zM480 121q-1 -15 -16 -16q-15 1 -16 16q1 15 16 16q15 -1 16 -16v0zM480 185q-1 -15 -16 -16q-15 1 -16 16q1 15 16 16
q15 -1 16 -16v0zM464 265q15 -1 16 -16q-1 -15 -16 -16q-15 1 -16 16q1 15 16 16v0zM480 313q-1 -15 -16 -16q-15 1 -16 16q1 15 16 16q15 -1 16 -16v0z" />
</svg>
