<?xml version="1.0" standalone="no"?>
<!DOCTYPE svg PUBLIC "-//W3C//DTD SVG 1.1//EN" "http://www.w3.org/Graphics/SVG/1.1/DTD/svg11.dtd" >
<svg xmlns="http://www.w3.org/2000/svg" xmlns:xlink="http://www.w3.org/1999/xlink" version="1.1" viewBox="-10 -40 532 512">
   <path fill="currentColor"
d="M32 409q0 14 9 23v0v0q9 9 23 9v32v0q-27 -1 -45 -19t-19 -45v-384v0q1 -27 19 -45t45 -19h156v0q20 0 34 14l116 116v0q14 14 14 34v124v0h-32v0v-96v0h-112v0q-20 -1 -34 -14q-13 -14 -14 -34v-112v0h-128v0q-14 0 -23 9t-9 23v384v0zM352 121q-2 -4 -5 -7l-116 -116v0
q-3 -3 -7 -4v111v0q1 15 16 16h112v0zM158 321l34 57l-34 -57l34 57l34 -57v0q7 -10 18 -7t12 15v128v0q-1 15 -16 16q-15 -1 -16 -16v-70v0l-18 30v0q-5 8 -14 8t-14 -8l-18 -30v0v70v0q-1 15 -16 16q-15 -1 -16 -16v-128v0q1 -12 12 -15t18 7v0zM448 329v32v-32v32
q0 35 16 66q16 -31 16 -66v-32v0q1 -15 16 -16q15 1 16 16v32v0q0 53 -30 97l-5 8v0q-5 7 -13 7t-13 -7l-5 -8v0q-30 -44 -30 -97v-32v0q1 -15 16 -16q15 1 16 16v0zM288 353q0 -17 12 -28v0v0q11 -12 28 -12h16v0q17 0 28 12q12 11 12 28v80v0q0 17 -12 28q-11 12 -28 12
h-16v0q-17 0 -28 -12q-12 -11 -12 -28v-80v0zM328 345q-7 1 -8 8v80v0q1 7 8 8h16v0q7 -1 8 -8v-80v0q-1 -7 -8 -8h-16v0z" />
</svg>
