<?xml version="1.0" standalone="no"?>
<!DOCTYPE svg PUBLIC "-//W3C//DTD SVG 1.1//EN" "http://www.w3.org/Graphics/SVG/1.1/DTD/svg11.dtd" >
<svg xmlns="http://www.w3.org/2000/svg" xmlns:xlink="http://www.w3.org/1999/xlink" version="1.1" viewBox="-10 -40 468 512">
   <path fill="currentColor"
d="M160 57v32v-32v32h128v0v-32v0q-1 -27 -19 -45t-45 -19q-27 1 -45 19t-19 45v0zM128 89v-32v32v-32q1 -41 28 -68t68 -28q41 1 68 28t28 68v32v0h80v0q20 1 34 14q13 14 14 34v240v0q-1 41 -28 68t-68 28h-256v0q-41 -1 -68 -28t-28 -68v-240v0q1 -20 14 -34
q14 -13 34 -14h80v0zM144 121h-96h96h-96q-15 1 -16 16v240v0q1 27 19 45t45 19h256v0q27 -1 45 -19t19 -45v-240v0q-1 -15 -16 -16h-96h-160zM128 281q1 -15 16 -16h64v0v-64v0q1 -15 16 -16q15 1 16 16v64v0h64v0q15 1 16 16q-1 15 -16 16h-64v0v64v0q-1 15 -16 16
q-15 -1 -16 -16v-64v0h-64v0q-15 -1 -16 -16v0z" />
</svg>
