<?xml version="1.0" standalone="no"?>
<!DOCTYPE svg PUBLIC "-//W3C//DTD SVG 1.1//EN" "http://www.w3.org/Graphics/SVG/1.1/DTD/svg11.dtd" >
<svg xmlns="http://www.w3.org/2000/svg" xmlns:xlink="http://www.w3.org/1999/xlink" version="1.1" viewBox="-10 -40 660 512">
   <path fill="currentColor"
d="M128 -39q-14 0 -23 9v0v0q-9 9 -9 23v128v0h-48v0q-20 1 -34 14q-13 14 -14 34v64v0q1 20 14 34q14 13 34 14h288v0q20 -1 34 -14q13 -14 14 -34v-48v0v-16v0v-19v0q0 -17 -9 -33l-80 -133v0q-14 -22 -41 -23h-126v0zM340 121v0v0v0h-4h-208v0v-128v0h126v0q9 0 14 8
l72 120v0zM32 233v-64v64v-64q1 -15 16 -16h288v0q15 1 16 16v16v0v48v0q-1 15 -16 16h-288v0q-15 -1 -16 -16v0zM336 345q20 1 34 14v0v0q13 14 14 34q-1 20 -14 34q-14 13 -34 14h-256v0q-20 -1 -34 -14q-13 -14 -14 -34q1 -20 14 -34q14 -13 34 -14h256v0zM80 313
q-34 1 -57 23v0v0q-22 23 -23 57q1 34 23 57q23 22 57 23h256v0q34 -1 57 -23q22 -23 23 -57q-1 -34 -23 -57q-23 -22 -57 -23h-256v0zM481 438l127 -128l-127 128l127 -128v3v0v32v0v48v0q-1 20 -14 34q-14 13 -34 14h-78v0q-2 0 -2 -2q0 -1 1 -1v0zM458 415q-10 10 -10 24
t10 24t24 10h78v0q34 -1 57 -23q22 -23 23 -57v-48v0v-32v0v-32v0v-3v0v-45v0v-144v0v-71v0v-10v0q-1 -20 -14 -33t-33 -14q-17 0 -30 11l-147 128v0v42v0l168 -145v0q4 -4 9 -4q14 1 15 15v38v0l-21 19v0l-171 151v0v42v0l160 -141v0l32 -28v0v43v0v133v0l-150 150v0z
M112 417q22 -2 24 -24q-2 -22 -24 -24q-22 2 -24 24q2 22 24 24v0zM232 393q-2 -22 -24 -24q-22 2 -24 24q2 22 24 24q22 -2 24 -24v0zM304 417q22 -2 24 -24q-2 -22 -24 -24q-22 2 -24 24q2 22 24 24v0z" />
</svg>
