<?xml version="1.0" standalone="no"?>
<!DOCTYPE svg PUBLIC "-//W3C//DTD SVG 1.1//EN" "http://www.w3.org/Graphics/SVG/1.1/DTD/svg11.dtd" >
<svg xmlns="http://www.w3.org/2000/svg" xmlns:xlink="http://www.w3.org/1999/xlink" version="1.1" viewBox="-10 -40 660 512">
   <path fill="currentColor"
d="M16 -7h320h-320h320q15 1 16 16q-1 15 -16 16v96v0q15 1 16 16q-1 15 -16 16h-320v0q-15 -1 -16 -16q1 -15 16 -16v-96v0q-15 -1 -16 -16q1 -15 16 -16v0zM304 25h-64h64h-64v96v0h64v0v-96v0zM208 25h-64h64h-64v96v0h64v0v-96v0zM112 25h-64h64h-64v96v0h64v0v-96v0z
M384 97q0 -17 12 -28v0v0q11 -12 28 -12h59v0q19 0 34 14l109 109v0q14 14 14 34v115v0q-1 20 -14 34q-14 13 -34 14h-16v0q-1 41 -28 68t-68 28q-41 -1 -68 -28t-28 -68h-128v0q-1 41 -28 68t-68 28q-41 -1 -68 -28t-28 -68h-16v0q-20 -1 -34 -14q-13 -14 -14 -34v-96v0
q1 -20 14 -34q14 -13 34 -14h336v0v-88v0zM416 185h169h-169h169l-91 -91v0q-5 -5 -11 -5h-59v0q-7 1 -8 8v88v0zM608 217h-560h560h-560q-15 1 -16 16v96v0q1 15 16 16h22v0q10 -28 34 -46q24 -17 56 -18q32 1 56 18q24 18 35 46h139v0q10 -28 34 -46q24 -17 56 -18
q32 1 56 18q24 18 35 46h21v0q15 -1 16 -16v-112v0zM224 377q-1 -36 -32 -55q-32 -18 -64 0q-31 19 -32 55q1 36 32 55q32 18 64 0q31 -19 32 -55v0zM480 441q36 -1 55 -32q18 -32 0 -64q-19 -31 -55 -32q-36 1 -55 32q-18 32 0 64q19 31 55 32v0z" />
</svg>
