<?xml version="1.0" standalone="no"?>
<!DOCTYPE svg PUBLIC "-//W3C//DTD SVG 1.1//EN" "http://www.w3.org/Graphics/SVG/1.1/DTD/svg11.dtd" >
<svg xmlns="http://www.w3.org/2000/svg" xmlns:xlink="http://www.w3.org/1999/xlink" version="1.1" viewBox="-10 -40 532 512">
   <path fill="currentColor"
d="M33 233q8 -90 70 -148v0v0q62 -58 153 -60q91 2 153 60t70 148q-20 -16 -47 -16q-20 1 -34 14q-13 14 -14 34v128v0q1 20 14 34q14 13 34 14q34 -1 57 -23q22 -23 23 -57v-32v0v-32v0v-48v0q-1 -72 -35 -129q-34 -58 -92 -92q-57 -34 -129 -35q-72 1 -129 35
q-58 34 -92 92q-34 57 -35 129v48v0v32v0v32v0q1 34 23 57q23 22 57 23q20 -1 34 -14q13 -14 14 -34v-128v0q-1 -20 -14 -34q-14 -13 -34 -14q-27 0 -47 16v0zM32 297q1 -20 14 -34v0v0q14 -13 34 -14q15 1 16 16v128v0q-1 15 -16 16q-20 -1 -34 -14q-13 -14 -14 -34v-32v0
v-32v0zM480 297v32v-32v32v32v0q-1 20 -14 34q-14 13 -34 14q-15 -1 -16 -16v-128v0q1 -15 16 -16q20 1 34 14q13 14 14 34v0z" />
</svg>
