<?xml version="1.0" standalone="no"?>
<!DOCTYPE svg PUBLIC "-//W3C//DTD SVG 1.1//EN" "http://www.w3.org/Graphics/SVG/1.1/DTD/svg11.dtd" >
<svg xmlns="http://www.w3.org/2000/svg" xmlns:xlink="http://www.w3.org/1999/xlink" version="1.1" viewBox="-10 -40 340 512">
   <path fill="currentColor"
d="M288 28l-136 121l136 -121l-136 121q-5 4 -11 4h-85v0q-22 2 -24 24v80v0q2 22 24 24h85v0q6 0 11 4l136 121v0v-378v0zM270 1q9 -8 20 -8q13 0 21 9q9 8 9 21v388v0q0 13 -9 21q-8 9 -21 9q-11 0 -20 -7l11 -12v0l-11 12v0l-135 -121v0h-79v0q-24 -1 -40 -16
q-15 -16 -16 -40v-80v0q1 -24 16 -40q16 -15 40 -16h79v0l135 -120v0z" />
</svg>
