<?xml version="1.0" standalone="no"?>
<!DOCTYPE svg PUBLIC "-//W3C//DTD SVG 1.1//EN" "http://www.w3.org/Graphics/SVG/1.1/DTD/svg11.dtd" >
<svg xmlns="http://www.w3.org/2000/svg" xmlns:xlink="http://www.w3.org/1999/xlink" version="1.1" viewBox="-10 -40 458 512">
   <path fill="currentColor"
d="M32 191v-150v150v-150q1 -15 16 -16h150v0q13 0 22 9l176 176v0q9 10 9 23t-9 23l-133 133v0q-10 9 -23 9t-23 -9l-176 -176v0l-22 23v0l22 -23v0q-9 -9 -9 -22v0zM0 191q0 26 19 45l176 176v0q19 19 45 19q25 0 45 -19l134 -134v0q18 -19 18 -45q0 -25 -18 -45
l-176 -176v0q-19 -19 -46 -19h-149v0q-20 1 -34 14q-13 14 -14 34v150v0zM112 129q22 -2 24 -24q-2 -22 -24 -24q-22 2 -24 24q2 22 24 24v0z" />
</svg>
