<?xml version="1.0" standalone="no"?>
<!DOCTYPE svg PUBLIC "-//W3C//DTD SVG 1.1//EN" "http://www.w3.org/Graphics/SVG/1.1/DTD/svg11.dtd" >
<svg xmlns="http://www.w3.org/2000/svg" xmlns:xlink="http://www.w3.org/1999/xlink" version="1.1" viewBox="-10 -40 468 512">
   <path fill="currentColor"
d="M64 -39q-27 1 -45 19v0v0q-18 18 -19 45v384v0v0v0q1 27 19 45t45 19h368v0q15 -1 16 -16q-1 -15 -16 -16h-16v0v-67v0q30 -12 32 -45v-320v0q-1 -20 -14 -34q-14 -13 -34 -14h-336v0zM384 377v64v-64v64h-320v0q-14 0 -23 -9t-9 -23t9 -23t23 -9h320v0zM64 345
q-18 0 -32 9v-329v0q0 -14 9 -23t23 -9h32v0v352v0h-32v0zM128 345v-352v352v-352h272v0q15 1 16 16v320v0q-1 15 -16 16h-272v0zM176 105q1 15 16 16h160v0q15 -1 16 -16q-1 -15 -16 -16h-160v0q-15 1 -16 16v0zM176 201q1 15 16 16h160v0q15 -1 16 -16q-1 -15 -16 -16
h-160v0q-15 1 -16 16v0z" />
</svg>
