<?xml version="1.0" standalone="no"?>
<!DOCTYPE svg PUBLIC "-//W3C//DTD SVG 1.1//EN" "http://www.w3.org/Graphics/SVG/1.1/DTD/svg11.dtd" >
<svg xmlns="http://www.w3.org/2000/svg" xmlns:xlink="http://www.w3.org/1999/xlink" version="1.1" viewBox="-10 -40 596 512">
   <path fill="currentColor"
d="M64 57q-14 0 -23 9v0v0q-9 9 -9 23v256v0q0 14 9 23t23 9h256v0q14 0 23 -9t9 -23v-256v0q0 -14 -9 -23t-23 -9h-256v0zM0 89q1 -27 19 -45v0v0q18 -18 45 -19h256v0q27 1 45 19t19 45v47v0v162v0v47v0q-1 27 -19 45t-45 19h-256v0q-27 -1 -45 -19t-19 -45v-256v0z
M519 372l-103 -57l103 57l-103 -57v-36v0l119 65v0q1 1 3 1q5 0 6 -6v-244v0q-1 -5 -6 -6q-2 0 -3 1l-119 65v0v-36v0l103 -57v0q9 -5 19 -5q16 0 27 11t11 27v244v0q0 16 -11 27t-27 11q-10 0 -19 -5v0z" />
</svg>
