<?xml version="1.0" standalone="no"?>
<!DOCTYPE svg PUBLIC "-//W3C//DTD SVG 1.1//EN" "http://www.w3.org/Graphics/SVG/1.1/DTD/svg11.dtd" >
<svg xmlns="http://www.w3.org/2000/svg" xmlns:xlink="http://www.w3.org/1999/xlink" version="1.1" viewBox="-10 -40 468 512">
   <path fill="currentColor"
d="M160 9q-1 -15 -16 -16q-15 1 -16 16v112v0h-112v0q-15 1 -16 16q1 15 16 16h128v0q15 -1 16 -16v-128v0zM16 281q-15 1 -16 16q1 15 16 16h112v0v112v0q1 15 16 16q15 -1 16 -16v-128v0q-1 -15 -16 -16h-128v0zM320 9q-1 -15 -16 -16q-15 1 -16 16v128v0q1 15 16 16h128
v0q15 -1 16 -16q-1 -15 -16 -16h-112v0v-112v0zM304 281q-15 1 -16 16v128v0q1 15 16 16q15 -1 16 -16v-112v0h112v0q15 -1 16 -16q-1 -15 -16 -16h-128v0z" />
</svg>
