<?xml version="1.0" standalone="no"?>
<!DOCTYPE svg PUBLIC "-//W3C//DTD SVG 1.1//EN" "http://www.w3.org/Graphics/SVG/1.1/DTD/svg11.dtd" >
<svg xmlns="http://www.w3.org/2000/svg" xmlns:xlink="http://www.w3.org/1999/xlink" version="1.1" viewBox="-10 -40 468 512">
   <path fill="currentColor"
d="M240 70q10 12 25 12t25 -12q13 -17 26 -31q42 45 70 101q29 62 30 98q-2 86 -57 143q-54 58 -135 60q-82 -2 -136 -60q-54 -57 -56 -143q1 -47 41 -116q38 -64 100 -125q35 34 67 73v0zM265 50q-11 -12 -21 -25q-27 -31 -57 -58q-14 -11 -28 -1q-71 67 -114 140
q-43 72 -45 132q1 64 30 117q30 53 80 85q51 32 114 33q63 -1 113 -33q51 -32 81 -85q29 -53 30 -117q0 -23 -9 -52t-25 -60q-15 -32 -37 -63q-21 -30 -47 -55q-14 -12 -28 0q-9 8 -17 17q-11 13 -20 25v0zM128 268q0 -17 11 -38v0v0q11 -20 36 -51q13 17 32 40q18 23 31 39
q10 12 24 12q15 1 25 -11l24 -27v0q13 30 7 61q-7 31 -32 50q-28 18 -60 18q-43 -1 -70 -25q-27 -23 -28 -68v0zM200 159q-10 -12 -25 -13v0v0q-14 0 -25 12q-25 31 -39 57q-15 26 -15 53q1 58 38 92q38 33 92 33q42 0 77 -24v0v0h1v0q38 -28 45 -72q8 -43 -11 -83
q-9 -15 -25 -16q-15 0 -25 11l-25 29v0v0v0q-13 -16 -31 -39q-19 -23 -32 -40v0z" />
</svg>
