<?xml version="1.0" standalone="no"?>
<!DOCTYPE svg PUBLIC "-//W3C//DTD SVG 1.1//EN" "http://www.w3.org/Graphics/SVG/1.1/DTD/svg11.dtd" >
<svg xmlns="http://www.w3.org/2000/svg" xmlns:xlink="http://www.w3.org/1999/xlink" version="1.1" viewBox="-10 -40 468 512">
   <path fill="currentColor"
d="M48 25q-15 1 -16 16v48v0h80v0v-48v0q-1 -15 -16 -16h-48v0zM32 217q2 82 56 136v0v0q54 54 136 56q82 -2 136 -56t56 -136v-96v0h-80v0v96v0q-1 48 -33 79q-31 32 -79 33q-48 -1 -79 -33q-32 -31 -33 -79v-96v0h-80v0v96v0zM416 89v-48v48v-48q-1 -15 -16 -16h-48v0
q-15 1 -16 16v48v0h80v0zM0 41q1 -20 14 -34v0v0q14 -13 34 -14h48v0q20 1 34 14q13 14 14 34v176v0q1 34 23 57q23 22 57 23q34 -1 57 -23q22 -23 23 -57v-176v0q1 -20 14 -34q14 -13 34 -14h48v0q20 1 34 14q13 14 14 34v176v0q-1 63 -31 113q-29 51 -80 80
q-50 30 -113 31q-63 -1 -113 -31q-51 -29 -80 -80q-30 -50 -31 -113v-176v0z" />
</svg>
