<?xml version="1.0" standalone="no"?>
<!DOCTYPE svg PUBLIC "-//W3C//DTD SVG 1.1//EN" "http://www.w3.org/Graphics/SVG/1.1/DTD/svg11.dtd" >
<svg xmlns="http://www.w3.org/2000/svg" xmlns:xlink="http://www.w3.org/1999/xlink" version="1.1" viewBox="-10 -40 532 512">
   <path fill="currentColor"
d="M64 25q-14 0 -23 9v0v0q-9 9 -9 23v320v0q0 14 9 23t23 9h384v0q14 0 23 -9t9 -23v-256v0q0 -14 -9 -23t-23 -9h-156v0q-26 0 -45 -19l-36 -36v0q-10 -9 -23 -9h-124v0zM0 57q1 -27 19 -45v0v0q18 -18 45 -19h124v0q27 0 45 19l36 36v0q10 9 23 9h156v0q27 1 45 19t19 45
v256v0q-1 27 -19 45t-45 19h-384v0q-27 -1 -45 -19t-19 -45v-320v0z" />
</svg>
