<?xml version="1.0" standalone="no"?>
<!DOCTYPE svg PUBLIC "-//W3C//DTD SVG 1.1//EN" "http://www.w3.org/Graphics/SVG/1.1/DTD/svg11.dtd" >
<svg xmlns="http://www.w3.org/2000/svg" xmlns:xlink="http://www.w3.org/1999/xlink" version="1.1" viewBox="-10 -40 532 512">
   <path fill="currentColor"
d="M16 -7q15 1 16 16v352v0q1 20 14 34q14 13 34 14h416v0q15 1 16 16q-1 15 -16 16h-416v0q-34 -1 -57 -23q-22 -23 -23 -57v-352v0q1 -15 16 -16v0zM128 105q1 -15 16 -16h224v0q15 1 16 16q-1 15 -16 16h-224v0q-15 -1 -16 -16v0zM144 185h160h-160h160q15 1 16 16
q-1 15 -16 16h-160v0q-15 -1 -16 -16q1 -15 16 -16v0zM144 281h288h-288h288q15 1 16 16q-1 15 -16 16h-288v0q-15 -1 -16 -16q1 -15 16 -16v0z" />
</svg>
