<?xml version="1.0" standalone="no"?>
<!DOCTYPE svg PUBLIC "-//W3C//DTD SVG 1.1//EN" "http://www.w3.org/Graphics/SVG/1.1/DTD/svg11.dtd" >
<svg xmlns="http://www.w3.org/2000/svg" xmlns:xlink="http://www.w3.org/1999/xlink" version="1.1" viewBox="-10 -40 532 512">
   <path fill="currentColor"
d="M192 73h-128h128h-128q-14 0 -23 9t-9 23v80v0h113v0q17 -29 46 -46q29 -18 65 -18t65 18q29 17 46 46h113v0v-128v0q0 -14 -9 -23t-23 -9h-171v0q-10 0 -19 6l-47 36v0q-8 6 -19 6v0zM32 217v160v-160v160q0 14 9 23t23 9h384v0q14 0 23 -9t9 -23v-160v0h-100v0
q4 15 4 32q-1 54 -37 91q-37 36 -91 37q-54 -1 -91 -37q-36 -37 -37 -91q0 -17 4 -32h-100v0zM0 377v-272v272v-272q1 -27 19 -45t45 -19h128v0l47 -35v0q17 -13 38 -13h171v0q27 1 45 19t19 45v320v0q-1 27 -19 45t-45 19h-384v0q-27 -1 -45 -19t-19 -45v0zM352 249
q0 -26 -13 -48v0v0q-13 -22 -35 -35q-23 -13 -48 -13t-48 13q-22 13 -35 35t-13 48t13 48t35 35q23 13 48 13t48 -13q22 -13 35 -35t13 -48v0zM64 9q1 -15 16 -16h64v0q15 1 16 16q-1 15 -16 16h-64v0q-15 -1 -16 -16v0z" />
</svg>
