<?xml version="1.0" standalone="no"?>
<!DOCTYPE svg PUBLIC "-//W3C//DTD SVG 1.1//EN" "http://www.w3.org/Graphics/SVG/1.1/DTD/svg11.dtd" >
<svg xmlns="http://www.w3.org/2000/svg" xmlns:xlink="http://www.w3.org/1999/xlink" version="1.1" viewBox="-10 -40 652 512">
   <path fill="currentColor"
d="M146 2l-7 25l7 -25l-7 25q-2 8 -10 11q-22 7 -39 22q-7 6 -15 4l-25 -7v0q-4 5 -7 10l-2 4v0q-3 5 -5 10l18 19v0q6 6 5 14q-3 11 -3 23t2 23q2 8 -4 14l-18 19v0q2 5 5 10l2 4v0q3 5 7 10l25 -7v0q8 -2 15 4q17 15 39 22q8 3 10 11l7 25v0q7 1 14 1t14 -1l7 -25v0
q2 -8 10 -11q23 -7 39 -22q7 -6 15 -4l26 7v0l6 -10l2 -4v0q3 -5 5 -10l-18 -19v0q-6 -6 -4 -14q2 -11 2 -23t-2 -23q-2 -8 4 -14l18 -19v0q-2 -5 -5 -9l-2 -5v0l-6 -10l-26 7v0q-8 2 -15 -4q-17 -15 -39 -22q-8 -3 -10 -11l-7 -25v0q-7 -1 -14 -1t-14 1v0zM131 -28
q14 -3 29 -3t29 3q10 2 13 11l7 27v0q20 8 36 21l28 -7v0q9 -2 16 5q8 10 15 21v1v0v0v0l3 5v0v0v0v0v0q6 11 11 24q3 9 -4 16l-19 20v0q1 11 1 21q0 11 -1 21l19 20v0q7 7 4 17q-5 12 -11 23v1v0v0v0l-3 5v0v0v0v0v0q-7 11 -15 21q-7 8 -17 5l-27 -7v0q-16 13 -36 21l-7 27
v0q-3 10 -13 12q-14 2 -29 2t-29 -2q-10 -3 -13 -12l-7 -27v0q-20 -8 -36 -21l-27 7v0q-10 2 -17 -5q-8 -10 -15 -22v0v0v0v0l-3 -4v0v-1v0v0v0q-6 -11 -11 -23q-3 -10 4 -17l20 -20v0q-2 -11 -2 -21t2 -21l-20 -20v0q-7 -7 -4 -16q5 -13 11 -24v-1v0v0v0l3 -4v0v0v0v0v0
q7 -12 15 -22q7 -7 17 -5l27 7v0q16 -13 36 -21l7 -27v0q3 -9 13 -11v0zM104 137q1 -32 28 -48q28 -16 56 0q27 16 28 48q-1 32 -28 48q-28 16 -56 0q-27 -16 -28 -48v0zM160 161q22 -2 24 -24q-2 -22 -24 -24q-22 2 -24 24q2 22 24 24v0zM329 327l25 7l-25 -7l25 7
q8 2 11 10q7 22 22 39q6 7 4 15l-7 25v0q5 4 10 7l4 2v0q5 3 10 5l19 -18v0q6 -6 14 -4q11 2 23 2t22 -2q9 -2 15 4l19 18v0q5 -2 10 -5l4 -2v0q5 -3 10 -7l-7 -25v0q-2 -8 4 -15q15 -17 22 -39q3 -8 11 -10l25 -7v0q1 -7 1 -14t-1 -14l-25 -7v0q-8 -2 -11 -10
q-7 -23 -22 -39q-6 -7 -4 -15l7 -25v0q-5 -4 -10 -7l-4 -2v0q-5 -3 -10 -5l-19 18v0q-6 6 -14 4q-11 -2 -23 -2t-23 2q-8 2 -14 -4l-19 -18v0q-5 2 -10 5l-4 2v0q-5 3 -10 7l7 25v0q2 8 -4 15q-15 16 -22 39q-3 8 -11 10l-25 7v0q-1 7 -1 14t1 14v0zM299 342q-3 -14 -3 -29
t3 -29q2 -10 11 -13l27 -7v0q8 -20 21 -36l-7 -28v0q-2 -9 5 -16q10 -8 21 -15h1v0v0v0l5 -3v0v0v0v0v0q11 -6 24 -11q9 -3 16 4l20 19v0q11 -1 21 -1q11 0 21 1l20 -19v0q7 -7 17 -4q12 5 23 11h1v0v0v0l5 3v0v0v0v0v0q11 7 21 15q7 7 5 17l-7 27v0q13 16 21 36l27 7v0
q10 3 12 13q2 14 2 29t-2 29q-2 10 -12 13l-27 7v0q-8 20 -21 36l7 27v0q3 10 -5 17q-10 8 -21 15h-1v0v0v0l-4 3v0v0v0v0v0q-12 6 -24 11q-10 3 -17 -4l-20 -20v0q-10 2 -21 2q-10 0 -20 -2l-21 20v0q-7 7 -16 4q-13 -5 -24 -11v0v0v0v0l-5 -3v0v0v0v0v0q-11 -7 -22 -15
q-7 -7 -5 -17l7 -27v0q-13 -16 -20 -36l-28 -7v0q-9 -3 -11 -13v0zM464 369q-32 -1 -48 -28q-16 -28 0 -56q16 -27 48 -28q32 1 48 28q16 28 0 56q-16 27 -48 28v0zM488 313q-2 -22 -24 -24q-22 2 -24 24q2 22 24 24q22 -2 24 -24v0z" />
</svg>
