<?xml version="1.0" standalone="no"?>
<!DOCTYPE svg PUBLIC "-//W3C//DTD SVG 1.1//EN" "http://www.w3.org/Graphics/SVG/1.1/DTD/svg11.dtd" >
<svg xmlns="http://www.w3.org/2000/svg" xmlns:xlink="http://www.w3.org/1999/xlink" version="1.1" viewBox="-10 -40 532 512">
   <path fill="currentColor"
d="M289 391q8 21 29 17q21 -8 17 -29l-4 -17v0q-9 -30 -25 -57q-5 -8 -1 -16q5 -8 14 -8h129v0q14 0 23 -9t9 -23q-1 -18 -15 -27q-11 -9 -5 -21q4 -7 4 -16q-1 -20 -17 -29q-7 -3 -9 -10q-1 -8 3 -14q7 -8 7 -19q-1 -23 -22 -31q-12 -5 -11 -18q1 -3 1 -7q0 -14 -9 -23
t-23 -9h-89v0q-25 0 -45 13l-38 26v0q-14 9 -23 23q-9 11 -22 4q-11 -9 -5 -22q13 -19 32 -32l38 -25v0q29 -19 62 -19h90v0q27 1 45 19t19 45v1v0q30 18 32 55q0 13 -5 25q20 18 21 47q0 10 -3 19q18 18 19 45q-1 27 -19 45t-45 19h-102v0q10 20 16 41l4 16v0q6 23 -5 43
q-12 19 -34 26q-23 6 -43 -5q-19 -11 -26 -34l-5 -17v0q-14 -50 -58 -79l-3 -2v0l8 -12v0l-8 12v0q-18 -11 -29 -28q-8 -13 4 -22q12 -7 22 4q8 12 20 19l3 2v0q55 36 72 98l5 16v0zM32 313h64h-64h64v-224v0h-64v0v224v0zM0 313v-224v224v-224q0 -14 9 -23t23 -9h64v0
q14 0 23 9t9 23v224v0q0 14 -9 23t-23 9h-64v0q-14 0 -23 -9t-9 -23v0z" />
</svg>
