<?xml version="1.0" standalone="no"?>
<!DOCTYPE svg PUBLIC "-//W3C//DTD SVG 1.1//EN" "http://www.w3.org/Graphics/SVG/1.1/DTD/svg11.dtd" >
<svg xmlns="http://www.w3.org/2000/svg" xmlns:xlink="http://www.w3.org/1999/xlink" version="1.1" viewBox="-10 -40 586 512">
   <path fill="currentColor"
d="M227 130q-8 15 -25 18l-137 20v0l100 99v0q11 11 9 28l-24 139v0l130 -69v0v-345v0l-53 110v0zM293 -38q18 5 19 23v385v0q-1 14 -13 21l-148 79v0q-13 7 -25 -2t-10 -23l26 -156v0l-111 -110v0q-10 -10 -6 -24q5 -14 20 -16l153 -23v0l68 -141v0q9 -16 27 -13v0z" />
</svg>
