<?xml version="1.0" standalone="no"?>
<!DOCTYPE svg PUBLIC "-//W3C//DTD SVG 1.1//EN" "http://www.w3.org/Graphics/SVG/1.1/DTD/svg11.dtd" >
<svg xmlns="http://www.w3.org/2000/svg" xmlns:xlink="http://www.w3.org/1999/xlink" version="1.1" viewBox="-10 -40 532 512">
   <path fill="currentColor"
d="M336 -39q-15 1 -16 16q1 15 16 16h121v0l-244 245v0q-10 11 0 22q11 10 22 0l245 -244v0v121v0q1 15 16 16q15 -1 16 -16v-160v0q-1 -15 -16 -16h-160v0zM64 -7q-27 1 -45 19v0v0q-18 18 -19 45v352v0q1 27 19 45t45 19h352v0q27 -1 45 -19t19 -45v-144v0q-1 -15 -16 -16
q-15 1 -16 16v144v0q0 14 -9 23t-23 9h-352v0q-14 0 -23 -9t-9 -23v-352v0q0 -14 9 -23t23 -9h144v0q15 -1 16 -16q-1 -15 -16 -16h-144v0z" />
</svg>
