<?xml version="1.0" standalone="no"?>
<!DOCTYPE svg PUBLIC "-//W3C//DTD SVG 1.1//EN" "http://www.w3.org/Graphics/SVG/1.1/DTD/svg11.dtd" >
<svg xmlns="http://www.w3.org/2000/svg" xmlns:xlink="http://www.w3.org/1999/xlink" version="1.1" viewBox="-10 -40 532 512">
   <path fill="currentColor"
d="M347 228q10 -11 0 -22l-128 -128v0q-11 -10 -22 0q-10 11 0 22l100 101v0h-281v0q-15 1 -16 16q1 15 16 16h281v0l-100 101v0q-10 11 0 22q11 10 22 0l128 -128v0zM336 409q-15 1 -16 16q1 15 16 16h96v0q34 -1 57 -23q22 -23 23 -57v-288v0q-1 -34 -23 -57
q-23 -22 -57 -23h-96v0q-15 1 -16 16q1 15 16 16h96v0q20 1 34 14q13 14 14 34v288v0q-1 20 -14 34q-14 13 -34 14h-96v0z" />
</svg>
