<?xml version="1.0" standalone="no"?>
<!DOCTYPE svg PUBLIC "-//W3C//DTD SVG 1.1//EN" "http://www.w3.org/Graphics/SVG/1.1/DTD/svg11.dtd" >
<svg xmlns="http://www.w3.org/2000/svg" xmlns:xlink="http://www.w3.org/1999/xlink" version="1.1" viewBox="-10 -40 468 512">
   <path fill="currentColor"
d="M368 25q-9 0 -16 3q-30 13 -70 7q-47 -10 -94 7q-47 16 -85 54t-54 85q-17 47 -7 94q6 40 -7 70q-3 7 -3 16q1 20 14 34q14 13 34 14q9 0 16 -3q30 -13 70 -7q47 10 94 -7q47 -16 85 -54t54 -85q17 -47 7 -94q-6 -40 7 -70q3 -7 3 -16q-1 -20 -14 -34q-14 -13 -34 -14v0z
M368 -7q34 1 57 23v0v0q22 23 23 57q0 14 -5 27q-10 26 -6 53q12 56 -7 110q-20 55 -62 98q-43 42 -98 62q-54 19 -111 7q-26 -4 -52 6q-13 5 -27 5q-34 -1 -57 -23q-22 -23 -23 -57q0 -14 5 -27q10 -26 6 -52q-12 -57 7 -111q20 -55 62 -98q43 -42 98 -62q54 -19 111 -7
q26 4 52 -6q13 -5 27 -5v0zM247 96l-19 8l19 -8l-19 8q-79 38 -117 117l-8 19v0q-8 12 -22 7q-12 -7 -7 -21l8 -18v0q43 -90 133 -133l18 -9v0q14 -4 22 8q4 14 -8 21v1z" />
</svg>
