<?xml version="1.0" standalone="no"?>
<!DOCTYPE svg PUBLIC "-//W3C//DTD SVG 1.1//EN" "http://www.w3.org/Graphics/SVG/1.1/DTD/svg11.dtd" >
<svg xmlns="http://www.w3.org/2000/svg" xmlns:xlink="http://www.w3.org/1999/xlink" version="1.1" viewBox="-10 -40 468 512">
   <path fill="currentColor"
d="M128 89q1 -41 28 -68v0v0q27 -27 68 -28q33 1 58 19q25 19 34 50q5 13 20 10q14 -5 11 -19q-13 -41 -46 -66t-77 -26q-54 1 -91 37q-36 37 -37 91v64v0h-16v0q-34 1 -57 23q-22 23 -23 57v160v0q1 34 23 57q23 22 57 23h288v0q34 -1 57 -23q22 -23 23 -57v-160v0
q-1 -34 -23 -57q-23 -22 -57 -23h-240v0v-64v0zM32 233q1 -20 14 -34v0v0q14 -13 34 -14h288v0q20 1 34 14q13 14 14 34v160v0q-1 20 -14 34q-14 13 -34 14h-288v0q-20 -1 -34 -14q-13 -14 -14 -34v-160v0z" />
</svg>
