<?xml version="1.0" standalone="no"?>
<!DOCTYPE svg PUBLIC "-//W3C//DTD SVG 1.1//EN" "http://www.w3.org/Graphics/SVG/1.1/DTD/svg11.dtd" >
<svg xmlns="http://www.w3.org/2000/svg" xmlns:xlink="http://www.w3.org/1999/xlink" version="1.1" viewBox="-10 -40 404 512">
   <path fill="currentColor"
d="M64 417q2 22 24 24q22 -2 24 -24v-144v0v-40v0h-32v0q-8 0 -16 -2v186v0zM112 201v0v0v0h32v0v0v0h24v0q22 -2 24 -24v0v0q-2 -22 -24 -24h-56v0q-15 -1 -16 -16q1 -15 16 -16h56v0q24 1 40 17q16 -16 40 -17q21 0 36 13q16 -20 44 -21q13 0 24 5q-2 -53 -38 -88
q-36 -36 -90 -37h-64v0q-54 1 -91 37q-36 37 -37 91v32v0q1 20 14 34q14 13 34 14h32v0zM144 233v40v-40v40q2 22 24 24q22 -2 24 -24v-32v0v0v0v-13v0q-11 5 -24 5h-24v0zM144 324v93v-93v93q-1 24 -16 40q-16 15 -40 16q-24 -1 -40 -16q-15 -16 -16 -40v-200v0
q-31 -23 -32 -64v-32v0q2 -68 47 -113t113 -47h64v0q68 2 113 47t47 113v48v0v32v0v24v0q-1 24 -16 40q-16 15 -40 16q-18 0 -32 -10q-17 25 -48 26q-15 0 -27 -7q-5 17 -20 28q-14 11 -33 11q-13 0 -24 -5v0zM224 201v40v-40v40q2 22 24 24q22 -2 24 -24v-16v0v-48v0
q-2 -22 -24 -24q-22 2 -24 24v0v0v24v0zM352 201v-32v32v-32q-2 -22 -24 -24q-22 2 -24 24v8v0v48v0q2 22 24 24q22 -2 24 -24v-24v0z" />
</svg>
