<?xml version="1.0" standalone="no"?>
<!DOCTYPE svg PUBLIC "-//W3C//DTD SVG 1.1//EN" "http://www.w3.org/Graphics/SVG/1.1/DTD/svg11.dtd" >
<svg xmlns="http://www.w3.org/2000/svg" xmlns:xlink="http://www.w3.org/1999/xlink" version="1.1" viewBox="-10 -40 532 512">
   <path fill="currentColor"
d="M480 121q0 -16 -4 -31l-49 49v0q-14 14 -34 14h-25v0q-20 -1 -34 -14q-13 -14 -14 -34v-25v0q0 -20 14 -34l49 -49v0q-15 -4 -31 -4q-54 1 -91 37q-36 37 -37 91q0 14 3 27q5 24 -13 45l-168 167v0q-14 14 -14 34q1 20 14 33t33 14q20 0 34 -14l168 -168v0q20 -18 44 -13
q13 3 27 3q54 -1 91 -37q36 -37 37 -91v0zM512 121q-2 68 -47 113v0v0q-45 45 -113 47q-17 0 -33 -3q-9 -2 -16 4l-168 168v0q-23 23 -56 23q-33 -1 -56 -23q-22 -23 -23 -56q0 -33 23 -56l168 -168v0q6 -7 5 -16q-4 -16 -4 -33q2 -68 47 -113t113 -47q38 0 69 16q14 9 4 23
l-68 68v0q-5 5 -5 12v25v0q1 15 16 16h25v0q7 0 12 -5l68 -68v0q14 -10 23 4q16 32 16 69v0zM88 369q15 1 16 16q-1 15 -16 16q-15 -1 -16 -16q1 -15 16 -16v0z" />
</svg>
