<?xml version="1.0" standalone="no"?>
<!DOCTYPE svg PUBLIC "-//W3C//DTD SVG 1.1//EN" "http://www.w3.org/Graphics/SVG/1.1/DTD/svg11.dtd" >
<svg xmlns="http://www.w3.org/2000/svg" xmlns:xlink="http://www.w3.org/1999/xlink" version="1.1" viewBox="-10 -40 532 512">
   <path fill="currentColor"
d="M253 -6l-57 63l57 -63l-57 63h120v0l-57 -63v0q-1 -1 -3 -1t-3 1v0zM283 -27l61 68l-61 -68l61 68q8 8 8 19q0 12 -9 21q-8 8 -20 8h-51v0v112v0h112v0v32v0h-112v0v112v0h51v0q12 0 21 8q8 9 8 21q0 11 -7 19l-62 68v0q-11 12 -27 12t-27 -12l-62 -68v0q-7 -8 -7 -19
q0 -12 8 -21q9 -8 21 -8h51v0v-112v0h-112v0v51v0q0 12 -8 21q-9 8 -21 8q-11 0 -19 -7l-68 -62v0q-12 -11 -12 -27t12 -27l68 -61v0q8 -8 19 -8q12 0 20 8q9 9 9 21v51v0h112v0v-112v0h-51v0q-12 0 -21 -8q-8 -9 -8 -21q0 -11 8 -19l61 -68v0q11 -12 27 -12t27 12v0z
M316 377h-120h120h-120l57 63v0q1 1 3 1t3 -1l57 -63v0zM479 220q1 -1 1 -3t-1 -3l-63 -57v0v120v0l63 -57v0zM432 306q-8 7 -19 7q-12 0 -21 -8q-8 -9 -8 -21v-134v0q0 -12 8 -21q9 -8 21 -8q11 0 19 8l68 61v0q12 11 12 27t-12 27l-68 62v0zM33 214q-1 1 -1 3t1 3l63 57v0
v-120v0l-63 57v0z" />
</svg>
