<?xml version="1.0" standalone="no"?>
<!DOCTYPE svg PUBLIC "-//W3C//DTD SVG 1.1//EN" "http://www.w3.org/Graphics/SVG/1.1/DTD/svg11.dtd" >
<svg xmlns="http://www.w3.org/2000/svg" xmlns:xlink="http://www.w3.org/1999/xlink" version="1.1" viewBox="-10 -40 660 512">
   <path fill="currentColor"
d="M96 41q1 -27 24 -42q24 -12 48 0q23 15 24 42q-1 27 -24 42q-24 12 -48 0q-23 -15 -24 -42v0zM224 41q-1 -45 -40 -69q-40 -22 -80 0q-39 24 -40 69q1 45 40 69q40 22 80 0q39 -24 40 -69v0zM320 121q36 1 55 32q18 32 0 64q-19 31 -55 32q-36 -1 -55 -32q-18 -32 0 -64
q19 -31 55 -32v0zM320 281q26 0 48 -13v0v0q22 -13 35 -35q13 -23 13 -48t-13 -48q-13 -22 -35 -35t-48 -13t-48 13t-35 35q-13 23 -13 48t13 48q13 22 35 35t48 13v0zM261 345h118h-118h118q41 1 70 28q28 27 31 68h-320v0q3 -41 31 -68q29 -27 70 -28v0zM261 313
q-56 1 -94 39v0v0q-38 38 -39 94q2 25 27 27h330v0q25 -2 27 -27q-1 -56 -39 -94t-94 -39h-118v0zM512 -7q27 1 42 24q12 24 0 48q-15 23 -42 24q-27 -1 -42 -24q-12 -24 0 -48q15 -23 42 -24v0zM512 121q45 -1 69 -40q22 -40 0 -80q-24 -39 -69 -40q-45 1 -69 40
q-22 40 0 80q24 39 69 40v0zM528 185q34 1 57 23v0v0q22 23 23 57q1 15 16 16q15 -1 16 -16q-1 -48 -33 -79q-31 -32 -79 -33h-84v0q4 15 4 32h80v0zM192 185q0 -17 4 -32h-84v0q-48 1 -79 33q-32 31 -33 79q1 15 16 16q15 -1 16 -16q1 -34 23 -57q23 -22 57 -23h80v0z" />
</svg>
