<?xml version="1.0" standalone="no"?>
<!DOCTYPE svg PUBLIC "-//W3C//DTD SVG 1.1//EN" "http://www.w3.org/Graphics/SVG/1.1/DTD/svg11.dtd" >
<svg xmlns="http://www.w3.org/2000/svg" xmlns:xlink="http://www.w3.org/1999/xlink" version="1.1" viewBox="-10 -40 650 512">
   <path fill="currentColor"
d="M592 217q37 -39 37 -90v0v0q0 -52 -37 -91q-40 -37 -91 -37t-90 37l-23 23v0q-9 11 0 22q11 10 23 0l22 -22v0q30 -29 68 -29t68 29q28 29 28 68q0 38 -28 67l-125 125v0q-29 28 -67 28q-39 0 -68 -28q-27 -28 -28 -64q-2 -37 23 -67l5 -6v0q9 -12 -1 -22q-12 -9 -23 1
l-5 6v0q-33 40 -31 89q1 48 37 85q39 38 90 38t91 -38l125 -124v0zM49 217q-38 39 -38 91v0v0q0 51 38 90q39 38 90 38t91 -38l22 -23v0q9 -11 0 -22q-11 -9 -22 0l-23 22v0q-30 29 -68 29t-68 -29q-28 -29 -28 -67q0 -39 28 -68l125 -125v0q29 -28 67 -28q39 0 68 28
q27 28 28 65q2 36 -23 66l-5 6v0q-9 12 1 22q12 9 23 -1l5 -6v0q33 -40 31 -89q-1 -48 -37 -85q-40 -38 -91 -38t-90 37l-124 125v0z" />
</svg>
