<?xml version="1.0" standalone="no"?>
<!DOCTYPE svg PUBLIC "-//W3C//DTD SVG 1.1//EN" "http://www.w3.org/Graphics/SVG/1.1/DTD/svg11.dtd" >
<svg xmlns="http://www.w3.org/2000/svg" xmlns:xlink="http://www.w3.org/1999/xlink" version="1.1" viewBox="-10 -40 532 512">
   <path fill="currentColor"
d="M64 25q-14 0 -23 9v0v0q-9 9 -9 23v64v0h448v0v-64v0q0 -14 -9 -23t-23 -9h-384v0zM32 153v112v-112v112h208v0v-112v0h-208v0zM272 153v112v-112v112h208v0v-112v0h-208v0zM240 297h-208h208h-208v80v0q0 14 9 23t23 9h176v0v-112v0zM272 409h176h-176h176q14 0 23 -9
t9 -23v-80v0h-208v0v112v0zM0 57q1 -27 19 -45v0v0q18 -18 45 -19h384v0q27 1 45 19t19 45v320v0q-1 27 -19 45t-45 19h-384v0q-27 -1 -45 -19t-19 -45v-320v0z" />
</svg>
