<?xml version="1.0" standalone="no"?>
<!DOCTYPE svg PUBLIC "-//W3C//DTD SVG 1.1//EN" "http://www.w3.org/Graphics/SVG/1.1/DTD/svg11.dtd" >
<svg xmlns="http://www.w3.org/2000/svg" xmlns:xlink="http://www.w3.org/1999/xlink" version="1.1" viewBox="-10 -40 340 512">
   <path fill="currentColor"
d="M166 311q-3 2 -6 2t-6 -2l-120 -114v0q-2 -2 -2 -5q1 -6 7 -7h242v0q6 1 7 7q0 3 -2 5l-120 114v0zM188 334l120 -113l-120 113l120 -113q12 -12 12 -29q0 -16 -11 -27t-28 -12h-242v0q-17 0 -28 11t-11 28t12 29l120 113v0q12 11 28 11t28 -11v0z" />
</svg>
