<?xml version="1.0" standalone="no"?>
<!DOCTYPE svg PUBLIC "-//W3C//DTD SVG 1.1//EN" "http://www.w3.org/Graphics/SVG/1.1/DTD/svg11.dtd" >
<svg xmlns="http://www.w3.org/2000/svg" xmlns:xlink="http://www.w3.org/1999/xlink" version="1.1" viewBox="-10 -40 532 512">
   <path fill="currentColor"
d="M137 12q4 -18 23 -19q19 1 24 19q3 12 15 13h9v0q15 1 16 16v16v0h-128v0v-16v0q1 -15 16 -16h9v0q12 -1 16 -13v0zM160 -39q-35 2 -51 32h-45v0q-27 1 -45 19t-19 45v288v0q1 27 19 45t45 19h128v0v-32v0h-128v0q-14 0 -23 -9t-9 -23v-288v0q0 -14 9 -23t23 -9h3v0
q-3 8 -3 16v16v0q0 14 9 23t23 9h112v0q18 -24 48 -30v-1v-1v-16v0q0 -8 -3 -16h3v0q14 0 23 9t9 23h32v0q-1 -27 -19 -45t-45 -19h-45v0q-16 -30 -51 -32v0zM448 441h-160h160h-160q-14 0 -23 -9t-9 -23v-256v0q0 -14 9 -23t23 -9h108v0q7 0 11 5l68 68v0q5 4 5 11v204v0
q0 14 -9 23t-23 9v0zM498 171l-68 -68l68 68l-68 -68q-14 -14 -34 -14h-108v0q-27 1 -45 19t-19 45v256v0q1 27 19 45t45 19h160v0q27 -1 45 -19t19 -45v-204v0q0 -20 -14 -34v0z" />
</svg>
