<?xml version="1.0" standalone="no"?>
<!DOCTYPE svg PUBLIC "-//W3C//DTD SVG 1.1//EN" "http://www.w3.org/Graphics/SVG/1.1/DTD/svg11.dtd" >
<svg xmlns="http://www.w3.org/2000/svg" xmlns:xlink="http://www.w3.org/1999/xlink" version="1.1" viewBox="-10 -40 596 512">
   <path fill="currentColor"
d="M512 -7h-448h448h-448q-14 0 -23 9t-9 23v192v0h512v0v-192v0q0 -14 -9 -23t-23 -9v0zM576 217v32v-32v32v64v0q-1 27 -19 45t-45 19h-149v0l11 64v0h58v0q15 1 16 16q-1 15 -16 16h-72h-216q-15 -1 -16 -16q1 -15 16 -16h58v0l11 -64v0h-149v0q-27 -1 -45 -19t-19 -45
v-64v0v-32v0v-192v0q1 -27 19 -45t45 -19h448v0q27 1 45 19t19 45v192v0zM32 249v64v-64v64q0 14 9 23t23 9h168v0v0v0h112v0v0v0h168v0q14 0 23 -9t9 -23v-64v0h-512v0zM235 441h106h-106h106l-11 -64v0h-84v0l-11 64v0z" />
</svg>
