<?xml version="1.0" standalone="no"?>
<!DOCTYPE svg PUBLIC "-//W3C//DTD SVG 1.1//EN" "http://www.w3.org/Graphics/SVG/1.1/DTD/svg11.dtd" >
<svg xmlns="http://www.w3.org/2000/svg" xmlns:xlink="http://www.w3.org/1999/xlink" version="1.1" viewBox="-10 -40 660 512">
   <path fill="currentColor"
d="M512 25h-384h384h-384q-14 0 -23 9t-9 23v256v0h-32v0v-256v0q1 -27 19 -45t45 -19h384v0q27 1 45 19t19 45v256v0h-32v0v-256v0q0 -14 -9 -23t-23 -9v0zM77 409h486h-486h486q33 -2 43 -32h-572v0q10 30 43 32v0zM0 364q2 -17 19 -19h602v0q17 2 19 19q-1 33 -22 55
q-22 21 -55 22h-486v0q-33 -1 -54 -22q-22 -22 -23 -55v0z" />
</svg>
