<?xml version="1.0" standalone="no"?>
<!DOCTYPE svg PUBLIC "-//W3C//DTD SVG 1.1//EN" "http://www.w3.org/Graphics/SVG/1.1/DTD/svg11.dtd" >
<svg xmlns="http://www.w3.org/2000/svg" xmlns:xlink="http://www.w3.org/1999/xlink" version="1.1" viewBox="-10 -40 532 512">
   <path fill="currentColor"
d="M256 25q15 -1 16 -16q-1 -15 -16 -16q-15 1 -16 16q1 15 16 16v0zM256 -39q27 1 42 24q12 24 0 48q-15 23 -42 24q-27 -1 -42 -24q-12 -24 0 -48q15 -23 42 -24v0zM256 441q15 -1 16 -16q-1 -15 -16 -16q-15 1 -16 16q1 15 16 16v0zM256 377q27 1 42 24q12 24 0 48
q-15 23 -42 24q-27 -1 -42 -24q-12 -24 0 -48q15 -23 42 -24v0zM64 217q-1 -15 -16 -16q-15 1 -16 16q1 15 16 16q15 -1 16 -16v0zM0 217q1 -27 24 -42q24 -12 48 0q23 15 24 42q-1 27 -24 42q-24 12 -48 0q-23 -15 -24 -42v0zM464 233q15 -1 16 -16q-1 -15 -16 -16
q-15 1 -16 16q1 15 16 16v0zM464 169q27 1 42 24q12 24 0 48q-15 23 -42 24q-27 -1 -42 -24q-12 -24 0 -48q15 -23 42 -24v0zM120 353q-6 -7 -16 -5q-9 3 -11 12t5 15q6 7 15 5t12 -11q2 -10 -5 -16v0zM75 398q-19 -20 -12 -46t34 -34q26 -7 46 12q19 20 12 46q-8 27 -34 34
t-46 -12v0zM98 81q6 7 15 5q9 -3 12 -12q2 -9 -5 -15q-6 -7 -16 -5q-9 2 -11 11q-2 10 5 16v0zM143 36q19 20 12 46q-8 26 -34 34q-26 7 -46 -12q-19 -20 -12 -46q7 -27 34 -34q26 -7 46 12v0zM414 375q7 -6 5 -15t-11 -12q-10 -2 -16 5q-7 6 -5 16q3 9 12 11t15 -5v0z
M369 330q20 -19 46 -12q27 8 34 34t-12 46q-20 19 -46 12t-34 -34q-7 -26 12 -46v0z" />
</svg>
