<?xml version="1.0" standalone="no"?>
<!DOCTYPE svg PUBLIC "-//W3C//DTD SVG 1.1//EN" "http://www.w3.org/Graphics/SVG/1.1/DTD/svg11.dtd" >
<svg xmlns="http://www.w3.org/2000/svg" xmlns:xlink="http://www.w3.org/1999/xlink" version="1.1" viewBox="-10 -40 532 512">
   <path fill="currentColor"
d="M216 121q-22 -2 -24 -24v-8v0v-16v0v-48v0l-160 144v0l160 144v0v-48v0v-16v0v-8v0q2 -22 24 -24h8h96q54 1 91 37q36 37 37 91q0 13 -2 23q14 -17 24 -43q10 -25 10 -60q-2 -61 -42 -102q-41 -40 -102 -42h-112h-8zM224 265v16v-16v16v32v0q-1 20 -19 29q-19 8 -34 -5
l-160 -144v0q-11 -10 -11 -24t11 -24l160 -144v0q15 -13 34 -5q18 9 19 29v32v0v16v0v16v0h32h80q75 2 124 52q50 49 52 124q-1 56 -22 93q-20 37 -44 57q-24 19 -34 24q-4 2 -8 2q-18 -2 -20 -20q1 -11 10 -19q7 -7 14 -20q7 -14 8 -37q-1 -41 -28 -68t-68 -28h-64h-32v16
v0z" />
</svg>
