<?xml version="1.0" standalone="no"?>
<!DOCTYPE svg PUBLIC "-//W3C//DTD SVG 1.1//EN" "http://www.w3.org/Graphics/SVG/1.1/DTD/svg11.dtd" >
<svg xmlns="http://www.w3.org/2000/svg" xmlns:xlink="http://www.w3.org/1999/xlink" version="1.1" viewBox="-10 -40 532 512">
   <path fill="currentColor"
d="M480 217q-1 61 -30 112v0v0q-30 51 -82 82q-53 30 -112 30t-112 -30q-52 -31 -82 -82q-29 -51 -30 -112q1 -61 30 -112q30 -51 82 -82q53 -30 112 -30t112 30q52 31 82 82q29 51 30 112v0zM256 -39q-70 1 -128 34v0v0q-58 34 -94 94q-34 61 -34 128t34 128q36 60 94 94
q58 33 128 34q70 -1 128 -34q58 -34 94 -94q34 -61 34 -128t-34 -128q-36 -60 -94 -94q-58 -33 -128 -34v0zM176 193q22 -2 24 -24q-2 -22 -24 -24q-22 2 -24 24q2 22 24 24v0zM360 169q-2 -22 -24 -24q-22 2 -24 24q2 22 24 24q22 -2 24 -24v0zM176 297q-15 1 -16 16
q1 15 16 16h160v0q15 -1 16 -16q-1 -15 -16 -16h-160v0z" />
</svg>
