<?xml version="1.0" standalone="no"?>
<!DOCTYPE svg PUBLIC "-//W3C//DTD SVG 1.1//EN" "http://www.w3.org/Graphics/SVG/1.1/DTD/svg11.dtd" >
<svg xmlns="http://www.w3.org/2000/svg" xmlns:xlink="http://www.w3.org/1999/xlink" version="1.1" viewBox="-10 -40 468 512">
   <path fill="currentColor"
d="M80 89q27 -1 42 -24q12 -24 0 -48q-15 -23 -42 -24q-27 1 -42 24q-12 24 0 48q15 23 42 24v0zM160 41q-1 30 -18 51v0v0q-18 21 -46 27v116v0q32 -33 80 -34h96v0q34 -1 57 -23q22 -23 23 -57v-2v0q-28 -6 -46 -27q-17 -21 -18 -51q1 -34 23 -57q23 -22 57 -23
q34 1 57 23q22 23 23 57q-1 30 -18 51q-18 21 -46 27v2v0q-1 48 -33 79q-31 32 -79 33h-96v0q-34 1 -57 23q-22 23 -23 57v2v0q28 6 46 27q17 21 18 51q-1 34 -23 57q-23 22 -57 23q-34 -1 -57 -23q-22 -23 -23 -57q1 -30 18 -51q18 -21 46 -27v-2v0v-194v0q-28 -6 -46 -27
q-17 -21 -18 -51q1 -34 23 -57q23 -22 57 -23q34 1 57 23q22 23 23 57v0zM368 89q27 -1 42 -24q12 -24 0 -48q-15 -23 -42 -24q-27 1 -42 24q-12 24 0 48q15 23 42 24v0zM80 441q27 -1 42 -24q12 -24 0 -48q-15 -23 -42 -24q-27 1 -42 24q-12 24 0 48q15 23 42 24v0z" />
</svg>
