<?xml version="1.0" standalone="no"?>
<!DOCTYPE svg PUBLIC "-//W3C//DTD SVG 1.1//EN" "http://www.w3.org/Graphics/SVG/1.1/DTD/svg11.dtd" >
<svg xmlns="http://www.w3.org/2000/svg" xmlns:xlink="http://www.w3.org/1999/xlink" version="1.1" viewBox="-10 -40 212 512">
   <path fill="currentColor"
d="M64 25q0 -14 9 -23v0v0q9 -9 23 -9t23 9t9 23t-9 23t-23 9t-23 -9t-9 -23v0zM16 137q1 -15 16 -16h64v0q15 1 16 16v272v0h64v0q15 1 16 16q-1 15 -16 16h-160v0q-15 -1 -16 -16q1 -15 16 -16h64v0v-256v0h-48v0q-15 -1 -16 -16v0z" />
</svg>
