<?xml version="1.0" standalone="no"?>
<!DOCTYPE svg PUBLIC "-//W3C//DTD SVG 1.1//EN" "http://www.w3.org/Graphics/SVG/1.1/DTD/svg11.dtd" >
<svg xmlns="http://www.w3.org/2000/svg" xmlns:xlink="http://www.w3.org/1999/xlink" version="1.1" viewBox="-10 -40 468 512">
   <path fill="currentColor"
d="M224 -7q-41 1 -68 28v0v0q-27 27 -28 68v64v0h240v0q34 1 57 23q22 23 23 57v160v0q-1 34 -23 57q-23 22 -57 23h-288v0q-34 -1 -57 -23q-22 -23 -23 -57v-160v0q1 -34 23 -57q23 -22 57 -23h16v0v-64v0q1 -54 37 -91q37 -36 91 -37q44 1 77 26t46 65q3 15 -11 20
q-15 3 -20 -10q-9 -31 -34 -50q-25 -18 -58 -19v0zM80 185q-20 1 -34 14v0v0q-13 14 -14 34v160v0q1 20 14 34q14 13 34 14h288v0q20 -1 34 -14q13 -14 14 -34v-160v0q-1 -20 -14 -34q-14 -13 -34 -14h-288v0zM264 329h-80h80h-80q-15 -1 -16 -16q1 -15 16 -16h80v0
q15 1 16 16q-1 15 -16 16v0z" />
</svg>
