<?xml version="1.0" standalone="no"?>
<!DOCTYPE svg PUBLIC "-//W3C//DTD SVG 1.1//EN" "http://www.w3.org/Graphics/SVG/1.1/DTD/svg11.dtd" >
<svg xmlns="http://www.w3.org/2000/svg" xmlns:xlink="http://www.w3.org/1999/xlink" version="1.1" viewBox="-10 -40 596 512">
   <path fill="currentColor"
d="M64 25q-27 1 -45 19v0v0q-18 18 -19 45v66v0q1 12 12 16q16 4 26 16q10 13 10 30t-10 30q-10 12 -26 17q-11 3 -12 15v66v0q1 27 19 45t45 19h448v0q27 -1 45 -19t19 -45v-66v0q-1 -12 -12 -15q-16 -5 -26 -17q-10 -13 -10 -30t10 -30q10 -12 26 -16q11 -4 12 -16v-66v0
q-1 -27 -19 -45t-45 -19h-448v0zM32 89q0 -14 9 -23v0v0q9 -9 23 -9h448v0q14 0 23 9t9 23v55v0q-22 9 -35 29q-13 19 -13 44t13 44q13 20 35 29v55v0q0 14 -9 23t-23 9h-448v0q-14 0 -23 -9t-9 -23v-55v0q22 -9 35 -29q13 -19 13 -44t-13 -44q-13 -20 -35 -29v-55v0z
M160 153h256h-256h256v128v0h-256v0v-128v0zM128 153v128v-128v128q0 14 9 23t23 9h256v0q14 0 23 -9t9 -23v-128v0q0 -14 -9 -23t-23 -9h-256v0q-14 0 -23 9t-9 23v0z" />
</svg>
