<?xml version="1.0" standalone="no"?>
<!DOCTYPE svg PUBLIC "-//W3C//DTD SVG 1.1//EN" "http://www.w3.org/Graphics/SVG/1.1/DTD/svg11.dtd" >
<svg xmlns="http://www.w3.org/2000/svg" xmlns:xlink="http://www.w3.org/1999/xlink" version="1.1" viewBox="-10 -40 596 512">
   <path fill="currentColor"
d="M235 340l-96 96l96 -96l-96 96q-11 10 -22 0l-96 -96v0q-10 -11 0 -22q11 -10 22 0l69 68v0v-377v0q1 -15 16 -16q15 1 16 16v377v0l69 -68v0q11 -10 22 0q10 11 0 22v0zM304 425q-15 -1 -16 -16q1 -15 16 -16h64v0q15 1 16 16q-1 15 -16 16h-64v0zM304 297
q-15 -1 -16 -16q1 -15 16 -16h128v0q15 1 16 16q-1 15 -16 16h-128v0zM304 169q-15 -1 -16 -16q1 -15 16 -16h192v0q15 1 16 16q-1 15 -16 16h-192v0zM304 41q-15 -1 -16 -16q1 -15 16 -16h256v0q15 1 16 16q-1 15 -16 16h-256v0z" />
</svg>
