<?xml version="1.0" standalone="no"?>
<!DOCTYPE svg PUBLIC "-//W3C//DTD SVG 1.1//EN" "http://www.w3.org/Graphics/SVG/1.1/DTD/svg11.dtd" >
<svg xmlns="http://www.w3.org/2000/svg" xmlns:xlink="http://www.w3.org/1999/xlink" version="1.1" viewBox="-10 -40 532 512">
   <path fill="currentColor"
d="M480 25h-448h448h-448v64v0h32h416v-64v0zM480 121h-32h32h-448q-14 0 -23 -9t-9 -23v-64v0q0 -14 9 -23t23 -9h448v0q14 0 23 9t9 23v64v0q0 14 -9 23t-23 9v0zM160 201q1 -15 16 -16h160v0q15 1 16 16q-1 15 -16 16h-160v0q-15 -1 -16 -16v0zM448 153h32h-32h32v224v0
q-1 27 -19 45t-45 19h-320v0q-27 -1 -45 -19t-19 -45v-224v0h32v0v224v0q0 14 9 23t23 9h320v0q14 0 23 -9t9 -23v-224v0z" />
</svg>
