<?xml version="1.0" standalone="no"?>
<!DOCTYPE svg PUBLIC "-//W3C//DTD SVG 1.1//EN" "http://www.w3.org/Graphics/SVG/1.1/DTD/svg11.dtd" >
<svg xmlns="http://www.w3.org/2000/svg" xmlns:xlink="http://www.w3.org/1999/xlink" version="1.1" viewBox="-10 -40 532 512">
   <path fill="currentColor"
d="M197 104q-6 15 -13 16q-7 4 -21 -5t-23 -33q-7 -24 -1 -40q6 -15 13 -16q7 -4 21 5q15 10 23 33q7 24 1 40v0zM194 151q24 -9 34 -37v0v0q9 -27 -1 -60q-12 -33 -36 -49q-24 -17 -49 -10q-24 9 -34 37q-9 27 2 60t35 49q24 17 49 10v0zM80 205q-2 10 -6 11q-2 3 -13 -1
t-22 -21q-9 -16 -7 -29q3 -10 6 -11q2 -2 13 1q12 5 22 21q9 17 7 29v0zM90 244q19 -12 22 -35v0v0q2 -24 -12 -49q-15 -25 -37 -34q-22 -10 -41 0q-19 12 -21 35q-3 24 11 49q15 25 37 34q22 10 41 0v0zM256 217q14 -1 41 11v0v0q28 13 59 47v0v0q32 34 57 98q3 9 3 20v4v0
q-1 11 -12 12q-15 0 -30 -5l-80 -25v0q-38 -11 -76 0l-80 25v0q-15 5 -30 5q-11 -1 -12 -12v-4v0q0 -11 3 -20q25 -64 57 -98q31 -34 59 -47q27 -12 41 -11v0zM256 185q-22 -1 -55 15v0v0q-34 15 -69 53v0v0q-36 39 -63 109q-5 15 -5 31v4v0q0 19 13 31q12 13 31 13
q20 0 39 -6l80 -25v0q29 -9 58 0l80 25v0q19 6 39 6q19 0 31 -13q13 -12 13 -31v-4v0q0 -16 -5 -31q-27 -70 -63 -109q-35 -38 -69 -53q-33 -16 -55 -15v0zM439 176q11 -16 22 -21q11 -3 13 -1q4 1 6 11q2 13 -7 29q-10 17 -22 21q-11 4 -13 1q-3 -1 -6 -11q-2 -12 7 -29v0z
M412 160q-14 25 -12 49v0v0q3 23 22 35q19 10 41 0q22 -9 37 -34q14 -25 11 -49q-2 -23 -21 -35q-19 -10 -41 0q-22 9 -37 34v0zM308 64q9 -23 23 -33q14 -8 21 -5q7 1 13 16q6 16 -1 40q-9 24 -23 33t-21 5q-7 -1 -13 -16q-6 -16 1 -40v0zM278 54q-11 33 -2 60v0v0
q10 28 34 37q25 7 49 -9q24 -17 36 -50q10 -33 1 -60q-10 -28 -34 -37q-25 -7 -49 10q-24 16 -35 49v0z" />
</svg>
