<?xml version="1.0" standalone="no"?>
<!DOCTYPE svg PUBLIC "-//W3C//DTD SVG 1.1//EN" "http://www.w3.org/Graphics/SVG/1.1/DTD/svg11.dtd" >
<svg xmlns="http://www.w3.org/2000/svg" xmlns:xlink="http://www.w3.org/1999/xlink" version="1.1" viewBox="-10 -40 468 512">
   <path fill="currentColor"
d="M235 -34q-11 -10 -22 0l-141 140v0q-8 8 -8 20q0 11 8 19t19 8h18v0l-70 82v0q-7 8 -7 18q0 12 8 20t20 8h17v0l-70 82v0q-7 8 -7 18q0 12 8 20t20 8h132h48v48v0q1 15 16 16q15 -1 16 -16v-48v0h48h132q12 0 20 -8t8 -20q0 -10 -7 -18l-70 -82v0h17v0q12 0 20 -8t8 -20
q0 -10 -7 -18l-70 -82v0h18v0q11 0 19 -8t8 -19q0 -12 -8 -20l-141 -140v0zM240 377v-208v208v-208q-1 -15 -16 -16q-15 1 -16 16v208v0h-48h-123l87 -102v0q6 -7 3 -17q-5 -9 -15 -9h-43v0l87 -102v0q6 -7 3 -17q-5 -9 -15 -9h-41v0l121 -121v0l121 121v0h-41v0
q-10 0 -14 9q-4 10 2 17l87 102v0h-43v0q-10 0 -14 9q-4 10 2 17l87 102v0h-123h-48z" />
</svg>
