<?xml version="1.0" standalone="no"?>
<!DOCTYPE svg PUBLIC "-//W3C//DTD SVG 1.1//EN" "http://www.w3.org/Graphics/SVG/1.1/DTD/svg11.dtd" >
<svg xmlns="http://www.w3.org/2000/svg" xmlns:xlink="http://www.w3.org/1999/xlink" version="1.1" viewBox="-10 -40 404 512">
   <path fill="currentColor"
d="M352 409v-256v256v-256h-112v0q-20 -1 -34 -14q-13 -14 -14 -34v-112v0h-128v0q-14 0 -23 9t-9 23v384v0q0 14 9 23t23 9h256v0q14 0 23 -9t9 -23v0zM352 121q-2 -4 -5 -7l-116 -116v0q-3 -3 -7 -4v111v0q1 15 16 16h112v0zM0 25q1 -27 19 -45v0v0q18 -18 45 -19h156v0
q20 0 34 14l116 116v0q14 14 14 34v284v0q-1 27 -19 45t-45 19h-256v0q-27 -1 -45 -19t-19 -45v-384v0zM64 41q1 -15 16 -16h64v0q15 1 16 16q-1 15 -16 16h-64v0q-15 -1 -16 -16v0zM64 105q1 -15 16 -16h64v0q15 1 16 16q-1 15 -16 16h-64v0q-15 -1 -16 -16v0zM64 169
q1 -15 16 -16h64v0q15 1 16 16q-1 15 -16 16h-64v0q-15 -1 -16 -16v0zM96 217h32h-32h32q12 1 15 12l15 51v0q2 7 2 14v3v0q-1 20 -14 34q-14 13 -34 14q-20 -1 -34 -14q-13 -14 -14 -34v-3v0q0 -7 2 -14l15 -51v0q3 -11 15 -12v0zM97 289q-1 2 -1 5v3v0q1 15 16 16
q15 -1 16 -16v-3v0q0 -3 -1 -5l-11 -40v0h-8v0l-11 40v0z" />
</svg>
