<?xml version="1.0" standalone="no"?>
<!DOCTYPE svg PUBLIC "-//W3C//DTD SVG 1.1//EN" "http://www.w3.org/Graphics/SVG/1.1/DTD/svg11.dtd" >
<svg xmlns="http://www.w3.org/2000/svg" xmlns:xlink="http://www.w3.org/1999/xlink" version="1.1" viewBox="-10 -40 404 512">
   <path fill="currentColor"
d="M320 441h-256h256h-256q-14 0 -23 -9t-9 -23v-384v0q0 -14 9 -23t23 -9h128v0v112v0q1 20 14 34q14 13 34 14h112v0v256v0q0 14 -9 23t-23 9v0zM240 121q-15 -1 -16 -16v-111v0q4 1 7 4l116 116v0q3 3 5 7h-112v0zM64 -39q-27 1 -45 19v0v0q-18 18 -19 45v384v0
q1 27 19 45t45 19h256v0q27 -1 45 -19t19 -45v-284v0q0 -20 -14 -34l-116 -116v0q-14 -14 -34 -14h-156v0zM258 187q-13 -6 -22 6q-6 13 5 22q22 13 34 34q13 22 13 48t-13 48q-12 21 -33 34q-12 9 -6 22q9 12 22 6q28 -17 45 -46t17 -64t-17 -64t-45 -46v0zM240 254
q-11 -10 -23 -1q-10 11 -1 23q8 8 8 21t-8 21q-9 12 1 23q12 9 23 -1q15 -18 16 -43q-1 -25 -16 -43v0zM183 210q-9 -3 -17 3l-44 36v0h-42v0q-15 1 -16 16v64v0q1 15 16 16h42v0l44 36v0q8 6 17 3q9 -5 9 -15v-144v0q0 -10 -9 -14v-1zM160 259v76v-76v76l-22 -18v0
q-4 -4 -10 -4h-32v0v-32v0h32v0q6 0 10 -4l22 -18v0z" />
</svg>
