<?xml version="1.0" standalone="no"?>
<!DOCTYPE svg PUBLIC "-//W3C//DTD SVG 1.1//EN" "http://www.w3.org/Graphics/SVG/1.1/DTD/svg11.dtd" >
<svg xmlns="http://www.w3.org/2000/svg" xmlns:xlink="http://www.w3.org/1999/xlink" version="1.1" viewBox="-10 -40 532 512">
   <path fill="currentColor"
d="M403 386q-61 53 -147 55q-86 -2 -147 -55l91 -91v0q24 17 56 18q32 -1 56 -18l91 91v0zM425 364l-91 -91l91 91l-91 -91q17 -24 18 -56q-1 -32 -18 -56l91 -91v0q53 61 55 147q-2 86 -55 147v0zM448 386q62 -69 64 -169q-2 -100 -64 -169l11 -12v0q10 -11 0 -22
q-11 -10 -22 0l-12 11v0q-70 -62 -169 -64q-99 2 -169 64l-12 -11v0q-11 -10 -22 0q-10 11 0 22l11 12v0q-62 70 -64 169q2 99 64 169l-11 12v0q-10 11 0 22q11 10 22 0l12 -11v0q69 62 169 64q100 -2 169 -64l12 11v0q11 10 22 0q10 -11 0 -22l-11 -12v0zM403 48l-91 91
l91 -91l-91 91q-24 -17 -56 -18q-32 1 -56 18l-91 -91v0q61 -53 147 -55q86 2 147 55v0zM178 273l-91 91l91 -91l-91 91q-53 -61 -55 -147q2 -86 55 -147l91 91v0q-17 24 -18 56q1 32 18 56v0zM192 217q1 -36 32 -55q32 -18 64 0q31 19 32 55q-1 36 -32 55q-32 18 -64 0
q-31 -19 -32 -55v0z" />
</svg>
