<?xml version="1.0" standalone="no"?>
<!DOCTYPE svg PUBLIC "-//W3C//DTD SVG 1.1//EN" "http://www.w3.org/Graphics/SVG/1.1/DTD/svg11.dtd" >
<svg xmlns="http://www.w3.org/2000/svg" xmlns:xlink="http://www.w3.org/1999/xlink" version="1.1" viewBox="-10 -40 532 512">
   <path fill="currentColor"
d="M32 9q-1 -15 -16 -16q-15 1 -16 16v352v0q1 34 23 57q23 22 57 23h416v0q15 -1 16 -16q-1 -15 -16 -16h-416v0q-20 -1 -34 -14q-13 -14 -14 -34v-352v0zM297 176q10 9 23 9t23 -9l39 -40v0l62 72v0q4 5 4 11v94v0h-320v0v-108v0q0 -7 5 -11l91 -92v0l73 74v0zM297 130
l-50 -50l50 50l-50 -50q-10 -10 -23 -10t-23 10l-91 91v0q-14 14 -14 34v108v0q0 14 9 23t23 9h320v0q14 0 23 -9t9 -23v-94v0q0 -18 -12 -31l-62 -73v0q-9 -10 -23 -11q-13 0 -23 9l-17 17v0l-23 23v0l-23 -23v0z" />
</svg>
