<?xml version="1.0" standalone="no"?>
<!DOCTYPE svg PUBLIC "-//W3C//DTD SVG 1.1//EN" "http://www.w3.org/Graphics/SVG/1.1/DTD/svg11.dtd" >
<svg xmlns="http://www.w3.org/2000/svg" xmlns:xlink="http://www.w3.org/1999/xlink" version="1.1" viewBox="-10 -40 468 512">
   <path fill="currentColor"
d="M169 -1q-9 10 -18 32t-15 47q36 10 88 11q51 -1 88 -12q-6 -24 -15 -46t-18 -32q-6 -7 -7 -6q-7 0 -8 1q-2 0 -4 2h-1v0q-3 3 -12 8q-9 4 -23 5q-14 -1 -23 -5q-9 -5 -12 -8v0v0h-1v0q-2 -2 -3 -2q-2 -1 -9 -1q-1 0 -7 6v0zM272 -39q26 2 43 34v0v0q18 32 28 72h1
q0 -1 1 -1q23 -9 34 -16q4 -2 7 -3l2 -2h2q0 -1 1 -1v0v0q4 -3 9 -3q15 1 16 16q0 9 -7 14v0h-1v0q-1 0 -1 1q-1 0 -2 1q-1 0 -1 1q-4 2 -9 5q-14 7 -38 17q-25 10 -58 17q-34 8 -75 8q-88 -3 -136 -25q-24 -10 -36 -18q-6 -3 -10 -6q-1 -1 -2 -1l-1 -1v0v0v0q-7 -5 -7 -13
q2 -15 16 -16q6 0 10 3v0v0q0 1 1 1l1 1q3 2 8 5q11 6 32 15q1 1 2 1q1 1 3 1q10 -40 28 -73q17 -32 43 -34q25 2 32 10h1q6 5 15 6q9 -1 16 -6v0q7 -8 32 -10v0zM272 -7v0v0v0v0v0v0v0zM176 -7v0v0v0v0v0v0v0zM100 185q-4 -15 -4 -32q0 -10 2 -20q14 5 31 9q-1 5 -1 11
q1 41 28 68t68 28q41 -1 68 -28t28 -68q0 -6 -1 -12q17 -4 31 -9q2 10 2 21q0 17 -4 32h71v0q12 1 13 13q0 3 -1 6l-46 87v0q29 26 46 63q17 36 17 79v8v0q0 14 -9 23t-23 9h-144v0v0v0h-96v0v0v0h-144v0q-14 0 -23 -9t-9 -23v-8v0q0 -43 17 -79q17 -37 46 -63l-45 -87v0
q-2 -3 -2 -6q1 -12 13 -13h71v0zM335 217q-17 29 -46 46v0v0q-29 18 -65 18t-65 -18q-29 -17 -46 -46h-53v0l31 59v0q10 21 -6 38q-51 46 -53 119v8v0h123v0l-26 -92v0q-3 -14 11 -19q14 -3 19 11l21 71v0l22 -67v0h-10v0q-15 -1 -16 -16q1 -15 16 -16h32h32q15 1 16 16
q-1 15 -16 16h-10v0l22 67v0l21 -71v0q5 -14 19 -11q14 5 11 19l-26 92v0h123v0v-8v0q-2 -73 -53 -119q-16 -17 -6 -38l30 -59v0h-52v0zM245 441l-21 -61l21 61l-21 -61l-20 61v0h40h1zM144 145q15 3 32 5v9v0q1 12 13 13q9 -1 12 -9l3 -11v0q10 1 20 1t20 -1l3 11v0
q4 8 12 9q12 -1 13 -13v-9v0q17 -2 32 -5v14v0q0 19 -13 32q-13 12 -32 13q-22 -1 -35 -18q-13 17 -35 18q-19 -1 -32 -13q-13 -13 -13 -32v-14v0z" />
</svg>
