<?xml version="1.0" standalone="no"?>
<!DOCTYPE svg PUBLIC "-//W3C//DTD SVG 1.1//EN" "http://www.w3.org/Graphics/SVG/1.1/DTD/svg11.dtd" >
<svg xmlns="http://www.w3.org/2000/svg" xmlns:xlink="http://www.w3.org/1999/xlink" version="1.1" viewBox="-10 -40 660 512">
   <path fill="currentColor"
d="M412 57h68h-68h68v-32v0h-27v0l-41 32v0zM488 89h-76h76h-76l55 104v0q21 -8 45 -8q54 1 91 37q36 37 37 91q-1 54 -37 91q-37 36 -91 37q-54 -1 -91 -37q-36 -37 -37 -91q0 -33 15 -60t40 -45l-15 -28v0q-33 21 -52 56q-20 35 -20 77v16v0q-1 15 -16 16h-32v0
q-15 -1 -16 -16v-8v0q-2 -71 -49 -119q-48 -47 -119 -49h-72v0q-15 -1 -16 -16q1 -15 16 -16h72v0q63 1 112 34l127 -98v0l-17 -32v0h-70v0q-15 -1 -16 -16q1 -15 16 -16h70v0q19 1 29 17l14 27v0l51 -39v0q7 -5 15 -5h37v0q22 2 24 24v48v0q-2 22 -24 24v0zM258 176
q57 54 62 137v0v0q1 -52 24 -94q24 -42 65 -68l-35 -65v0l-116 90v0zM498 321l-44 -84l44 84l-44 -84q-36 28 -38 76q1 41 28 68t68 28q41 -1 68 -28t28 -68q-1 -41 -28 -68t-68 -28q-16 0 -30 5l44 84v0q6 13 -7 21q-13 6 -21 -7v1zM128 217q-41 1 -68 28v0v0
q-27 27 -28 68q1 41 28 68t68 28q36 -1 62 -23t33 -57h-67v0q-9 15 -28 16q-14 0 -23 -9t-9 -23t9 -23t23 -9q19 1 28 16h67v0q-7 -35 -33 -57t-62 -23v0zM0 313q0 -35 17 -64v0v0q17 -29 47 -47q30 -17 64 -17t64 17q30 18 47 47t17 64t-17 64t-47 47q-30 17 -64 17
t-64 -17q-30 -18 -47 -47t-17 -64v0z" />
</svg>
