<?xml version="1.0" standalone="no"?>
<!DOCTYPE svg PUBLIC "-//W3C//DTD SVG 1.1//EN" "http://www.w3.org/Graphics/SVG/1.1/DTD/svg11.dtd" >
<svg xmlns="http://www.w3.org/2000/svg" xmlns:xlink="http://www.w3.org/1999/xlink" version="1.1" viewBox="-10 -40 532 512">
   <path fill="currentColor"
d="M256 -7q14 0 23 9v0v0q9 9 9 23t-9 23t-23 9t-23 -9t-9 -23t9 -23t23 -9v0zM256 89q36 -1 55 -32q18 -32 0 -64q-19 -31 -55 -32q-36 1 -55 32q-18 32 0 64q19 31 55 32v0zM192 241v0v0v0v-56v0q0 -14 9 -23t23 -9h64v0q14 0 23 9t9 23v56v0v0v0q-23 5 -27 28l-9 85v0
q-1 6 -8 7h-40v0q-7 -1 -8 -7l-9 -85v0q-4 -23 -27 -28v0zM160 185v56v-56v56q2 26 27 32l9 84v0q2 16 13 26t27 10h40v0q16 0 27 -10t13 -26l9 -84v0q25 -6 27 -32v-56v0q-1 -27 -19 -45t-45 -19h-64v0q-27 1 -45 19t-19 45v0zM127 345q14 -4 12 -19q-4 -14 -18 -13
q-51 10 -83 27q-16 8 -26 19q-11 11 -12 28q3 27 26 41q22 14 56 24q70 20 174 21q104 -1 174 -21q34 -10 56 -24q23 -14 26 -41q-1 -16 -12 -28q-10 -11 -26 -19q-32 -17 -83 -27q-14 -1 -18 13q-2 15 12 19q48 9 74 23q12 7 17 12q4 6 4 7q2 3 -12 14q-15 11 -47 20
q-65 19 -165 20q-100 -1 -165 -20q-32 -9 -47 -20q-14 -11 -12 -14q0 -1 4 -7q5 -5 17 -12q26 -14 74 -23v0z" />
</svg>
