<?xml version="1.0" standalone="no"?>
<!DOCTYPE svg PUBLIC "-//W3C//DTD SVG 1.1//EN" "http://www.w3.org/Graphics/SVG/1.1/DTD/svg11.dtd" >
<svg xmlns="http://www.w3.org/2000/svg" xmlns:xlink="http://www.w3.org/1999/xlink" version="1.1" viewBox="-10 -40 468 512">
   <path fill="currentColor"
d="M208 -7v192v-192v192h-176v0v-128v0q1 -27 19 -45t45 -19h112v0zM240 -7h112h-112h112q27 1 45 19t19 45v128v0h-176v0v-192v0zM32 313v-96v96v-96h384v0v96v0q-1 27 -19 45t-45 19h-256v0q-27 -1 -45 -19t-19 -45v0zM96 -39q-41 1 -68 28v0v0q-27 27 -28 68v256v0
q1 35 22 61q21 25 54 33l-39 39v0q-10 11 0 22q11 10 22 0l60 -59v0h210v0l60 59v0q11 10 22 0q10 -11 0 -22l-39 -39v0q33 -8 54 -33q21 -26 22 -61v-256v0q-1 -41 -28 -68t-68 -28h-256v0zM120 313q22 -2 24 -24q-2 -22 -24 -24q-22 2 -24 24q2 22 24 24v0zM352 289
q-2 -22 -24 -24q-22 2 -24 24q2 22 24 24q22 -2 24 -24v0z" />
</svg>
