<?xml version="1.0" standalone="no"?>
<!DOCTYPE svg PUBLIC "-//W3C//DTD SVG 1.1//EN" "http://www.w3.org/Graphics/SVG/1.1/DTD/svg11.dtd" >
<svg xmlns="http://www.w3.org/2000/svg" xmlns:xlink="http://www.w3.org/1999/xlink" version="1.1" viewBox="-10 -40 458 512">
   <path fill="currentColor"
d="M96 25q1 -27 19 -45v0v0q18 -18 45 -19q38 2 56 33q4 -1 8 -1q38 2 56 33q4 -1 8 -1q38 2 56 33q4 -1 8 -1q27 1 45 19t19 45v80v0q0 38 -17 68q-17 31 -46 51l-1 1v0v0v0v0v136v0q-1 15 -16 16q-15 -1 -16 -16v-136v0q1 -18 15 -27q22 -16 36 -40q13 -24 13 -53v-80v0
q0 -14 -9 -23t-23 -9q-6 0 -12 2q-6 3 -13 0q-6 -4 -8 -11q-7 -21 -31 -23q-6 0 -12 2q-6 3 -13 0q-6 -4 -8 -10q-7 -22 -31 -24q-6 0 -12 2q-6 3 -13 0q-6 -4 -8 -10q-7 -22 -31 -24q-14 0 -23 9t-9 23v48v0v96v0q-1 15 -16 16q-15 -1 -16 -16v-57v0l-18 18v0
q-14 14 -14 34v53v0q1 34 20 59t51 34q22 6 25 32v115v0q-1 15 -16 16q-15 -1 -16 -16v-115v0v0v0v-1q-1 0 -2 -1q-41 -11 -67 -45q-26 -33 -27 -78v-53v0q0 -33 23 -57l41 -41v0v-41v0z" />
</svg>
