<?xml version="1.0" standalone="no"?>
<!DOCTYPE svg PUBLIC "-//W3C//DTD SVG 1.1//EN" "http://www.w3.org/Graphics/SVG/1.1/DTD/svg11.dtd" >
<svg xmlns="http://www.w3.org/2000/svg" xmlns:xlink="http://www.w3.org/1999/xlink" version="1.1" viewBox="-10 -40 532 512">
   <path fill="currentColor"
d="M160 345q14 0 23 9v0v0q9 9 9 23v48v0l98 -74v0q9 -6 19 -6h139v0q14 0 23 -9t9 -23v-288v0q0 -14 -9 -23t-23 -9h-384v0q-14 0 -23 9t-9 23v288v0q0 14 9 23t23 9h96v0zM0 25q1 -27 19 -45v0v0q18 -18 45 -19h384v0q27 1 45 19t19 45v288v0q-1 27 -19 45t-45 19h-139v0
l-123 93v0q-8 5 -17 1t-9 -14v-48v0v-32v0h-32h-64q-27 -1 -45 -19t-19 -45v-288v0z" />
</svg>
