<?xml version="1.0" standalone="no"?>
<!DOCTYPE svg PUBLIC "-//W3C//DTD SVG 1.1//EN" "http://www.w3.org/Graphics/SVG/1.1/DTD/svg11.dtd" >
<svg xmlns="http://www.w3.org/2000/svg" xmlns:xlink="http://www.w3.org/1999/xlink" version="1.1" viewBox="-10 -40 660 512">
   <path fill="currentColor"
d="M147 -35q-20 -8 -37 0v0v0q-18 7 -26 26l-74 177v0q-10 23 -10 49q1 54 37 91q37 36 91 37h80v0q31 0 57 -15q25 -16 40 -41q15 -31 -6 -56q21 -25 6 -56q-8 -14 -20 -26l31 -7v0q19 -6 29 -22q10 -17 6 -37q-6 -19 -22 -29q-17 -10 -37 -6l-16 5v0l10 -8v0
q15 -13 18 -32q2 -19 -10 -36l-13 10v0l13 -10v0q-13 -15 -32 -18q-19 -2 -36 10l-50 40v0q0 -32 -29 -46v0zM264 217v0v0v0h-1v0q-9 0 -13 -8q-14 -23 -42 -24q-20 1 -34 14q-13 14 -14 34q1 20 14 34q14 13 34 14q28 -1 42 -24q4 -8 13 -8h1v0v0v0q4 0 8 2q11 9 5 22
q-22 38 -69 40h-80v0q-41 -1 -68 -28t-28 -68q0 -19 7 -37l74 -177v0q7 -13 21 -9q13 7 9 21l-15 36v0q-4 11 5 19q10 6 20 0l93 -74v0q13 -7 23 3q8 12 -3 23l-69 54v0q-9 8 -5 19q6 11 19 9l89 -22v0q15 -3 20 11q2 15 -12 20l-66 16v0q-11 3 -12 14q-1 12 9 16
q25 11 38 34q6 13 -5 22q-4 2 -8 2v0zM222 225q2 4 6 8l-6 8q-5 8 -14 8q-15 -1 -16 -16q1 -15 16 -16q9 0 14 8v0zM494 469q19 8 36 0v0v0q18 -7 26 -25l74 -178v0q10 -23 10 -49q-1 -54 -38 -90q-36 -37 -90 -38h-80v0q-31 0 -57 16q-25 15 -40 40q-15 31 6 56
q-21 26 -6 56q8 14 20 26l-31 7v0q-19 6 -29 22q-10 17 -5 37q5 19 21 29q17 10 37 6l17 -5v0l-10 8v0q-16 13 -19 32q-2 19 10 36q13 15 32 18q19 2 36 -10l50 -40v0q0 32 30 46v0zM376 217h1h-1h1v0v0q9 0 13 8q14 23 42 24q20 -1 34 -14q13 -14 14 -34q-1 -20 -14 -34
q-14 -13 -34 -14q-28 1 -42 24q-4 8 -13 8v0v0h-1v0q-4 0 -7 -2q-12 -9 -6 -22q22 -38 69 -40h80v0q41 1 68 28t28 68q0 19 -7 37l-74 177v0q-7 13 -21 9q-13 -7 -9 -21l15 -36v0q4 -11 -5 -19q-10 -6 -19 0l-94 74v0q-12 7 -23 -3q-8 -12 3 -23l69 -54v0q10 -8 5 -19
q-6 -11 -18 -9l-90 23v0q-15 2 -20 -12q-2 -15 12 -19l66 -17v0q11 -3 12 -14q1 -12 -9 -16q-25 -11 -38 -34q-6 -13 6 -22q3 -2 7 -2v0zM418 209q-2 -4 -6 -8q4 -4 6 -8q5 -8 14 -8q15 1 16 16q-1 15 -16 16q-9 0 -14 -8v0z" />
</svg>
