<?xml version="1.0" standalone="no"?>
<!DOCTYPE svg PUBLIC "-//W3C//DTD SVG 1.1//EN" "http://www.w3.org/Graphics/SVG/1.1/DTD/svg11.dtd" >
<svg xmlns="http://www.w3.org/2000/svg" xmlns:xlink="http://www.w3.org/1999/xlink" version="1.1" viewBox="-10 -40 532 512">
   <path fill="currentColor"
d="M507 -12l-64 64l64 -64l-64 64q-11 10 -22 0q-10 -11 0 -22l64 -64v0q11 -10 22 0q10 11 0 22v0zM187 308l-160 160l160 -160l-160 160q-11 10 -22 0q-10 -11 0 -22l160 -160v0q11 -10 22 0q10 11 0 22v0zM240 57q-61 2 -102 42v0v0q-40 41 -42 102q-1 15 -16 16
q-15 -1 -16 -16q2 -75 52 -124q49 -50 124 -52q75 2 124 52q50 49 52 124q-2 79 -57 130q-7 7 -7 14q-1 54 -37 91q-37 36 -91 37h-16v0q-15 -1 -16 -16q1 -15 16 -16h16v0q41 -1 68 -28t28 -68q1 -24 18 -38q44 -41 46 -106q-2 -61 -42 -102q-41 -40 -102 -42v0zM240 121
q-34 1 -57 23v0v0q-22 23 -23 57q-1 15 -16 16q-15 -1 -16 -16q1 -48 33 -79q31 -32 79 -33q48 1 79 33q32 31 33 79q-1 15 -16 16q-15 -1 -16 -16q-1 -34 -23 -57q-23 -22 -57 -23v0z" />
</svg>
