<?xml version="1.0" standalone="no"?>
<!DOCTYPE svg PUBLIC "-//W3C//DTD SVG 1.1//EN" "http://www.w3.org/Graphics/SVG/1.1/DTD/svg11.dtd" >
<svg xmlns="http://www.w3.org/2000/svg" xmlns:xlink="http://www.w3.org/1999/xlink" version="1.1" viewBox="-10 -40 661 512">
   <path fill="currentColor"
d="M3 -33q11 -10 23 -3l608 480v0q11 11 3 23q-11 11 -23 3l-608 -480v0q-10 -11 -3 -23v0zM606 229q-16 39 -54 89l-25 -19v0q35 -47 49 -82q-10 -25 -31 -57q-22 -32 -54 -63q-33 -31 -75 -51q-43 -20 -96 -21q-60 1 -107 26l-27 -21v0q57 -35 134 -37q61 1 109 24t84 57
q35 33 58 68t35 63q5 12 0 24v0zM448 217q0 9 -1 19l-31 -25v0q-3 -39 -30 -64t-66 -26q-8 0 -16 1l-31 -24v0q22 -9 47 -9q54 1 91 37q36 37 37 91v0zM106 125l320 256l-320 -256l320 256q11 10 3 22q-11 11 -23 3l-320 -256v0q-11 -11 -2 -23q10 -11 22 -2v0zM68 199
q10 -11 22 -2l250 200v0q11 10 3 22q-11 11 -23 3l-250 -200v0q-11 -11 -2 -23v0zM106 297l124 100l-124 -100l124 100q11 10 3 22q-11 11 -23 3l-124 -100v0q-11 -10 -2 -22q10 -11 22 -3v0z" />
</svg>
