<?xml version="1.0" standalone="no"?>
<!DOCTYPE svg PUBLIC "-//W3C//DTD SVG 1.1//EN" "http://www.w3.org/Graphics/SVG/1.1/DTD/svg11.dtd" >
<svg xmlns="http://www.w3.org/2000/svg" xmlns:xlink="http://www.w3.org/1999/xlink" version="1.1" viewBox="-10 -40 468 512">
   <path fill="currentColor"
d="M32 9q-1 -15 -16 -16q-15 1 -16 16v416v0q1 15 16 16q15 -1 16 -16v-352v0q38 -1 75 -13l35 -12v0q21 -7 42 -7t42 7l46 15v0q29 10 60 10t60 -10l24 -8v0v122v0v24v0v125v0l-34 11v0q-25 8 -50 8t-49 -8l-47 -16v0q-25 -8 -52 -8t-52 8l-25 9v0q-13 6 -10 20q6 13 20 10
l25 -8v0q21 -7 42 -7t42 7l46 15v0q29 10 60 10t60 -10l45 -15v0l11 -3v0v-12v0v-136v0v-24v0v-144v0v-22v0l-21 7v0l-45 15v0q-25 8 -50 8t-49 -8l-47 -16v0q-25 -8 -52 -8t-52 8l-35 12v0q-32 11 -65 12v-32v0z" />
</svg>
