<?xml version="1.0" standalone="no"?>
<!DOCTYPE svg PUBLIC "-//W3C//DTD SVG 1.1//EN" "http://www.w3.org/Graphics/SVG/1.1/DTD/svg11.dtd" >
<svg xmlns="http://www.w3.org/2000/svg" xmlns:xlink="http://www.w3.org/1999/xlink" version="1.1" viewBox="-10 -40 660 512">
   <path fill="currentColor"
d="M264 25q-52 1 -93 34l-27 23v0v39v0q4 -1 7 -4l41 -34v0q20 -17 45 -23l36 -35v0h-9v0zM112 313q14 2 24 12l28 28v0l16 16v0v0v0l24 24v0q20 19 45 20q26 0 47 -17q1 -1 2 -3q21 16 46 15q24 -2 43 -22q8 -10 13 -22q30 6 55 -15q17 -16 21 -37h52v0v17v0q1 20 14 34
q14 13 34 14h16v0q20 -1 34 -14q13 -14 14 -34v-208v0q0 -14 -9 -23t-23 -9h-48h-32v32v0v159v0h-55v0q-5 -13 -15 -24l-86 -86v0l9 -7v0q9 -11 0 -23q-11 -10 -22 -1l-76 70v0q-11 10 -24 10t-23 -9q-12 -11 -12 -26t11 -26l79 -75v0q28 -25 66 -26q35 0 62 23l45 37v0
q4 4 9 4v-38v0l-33 -28v0q-36 -30 -83 -30q-50 1 -88 35l-79 75v0q-22 21 -21 50q0 28 22 49q21 17 46 17q25 -1 44 -18l45 -41v0l86 87v0q10 10 10 23q-1 13 -11 23q-19 14 -39 3q-8 -5 -16 0q-8 4 -8 14q0 13 -8 23q-10 10 -23 11q-14 0 -24 -10l-8 -8v0q-6 -5 -14 -4
t-12 8q-3 6 -7 10q-11 9 -25 9q-13 -1 -23 -10l-40 -40v0l-29 -29v0q-19 -19 -46 -21v-160v0v-32v0h-32h-48q-14 0 -23 9t-9 23v208v0q1 20 14 34q14 13 34 14h16v0q20 -1 34 -14q13 -14 14 -34v-16v0zM80 121v208v-208v208q-1 15 -16 16h-16v0q-15 -1 -16 -16v-208v0h48v0z
M608 121v208v-208v208q-1 15 -16 16h-16v0q-15 -1 -16 -16v-208v0h48v0z" />
</svg>
