<?xml version="1.0" standalone="no"?>
<!DOCTYPE svg PUBLIC "-//W3C//DTD SVG 1.1//EN" "http://www.w3.org/Graphics/SVG/1.1/DTD/svg11.dtd" >
<svg xmlns="http://www.w3.org/2000/svg" xmlns:xlink="http://www.w3.org/1999/xlink" version="1.1" viewBox="-10 -40 596 512">
   <path fill="currentColor"
d="M512 25q14 0 23 9v0v0q9 9 9 23v320v0q0 14 -9 23t-23 9h-448v0q-14 0 -23 -9t-9 -23v-320v0q0 -14 9 -23t23 -9h448v0zM64 -7q-27 1 -45 19v0v0q-18 18 -19 45v320v0q1 27 19 45t45 19h448v0q27 -1 45 -19t19 -45v-320v0q-1 -27 -19 -45t-45 -19h-448v0zM160 153
q0 -14 9 -23v0v0q9 -9 23 -9t23 9t9 23t-9 23t-23 9t-23 -9t-9 -23v0zM256 153q-1 -36 -32 -55q-32 -18 -64 0q-31 19 -32 55q1 36 32 55q32 18 64 0q31 -19 32 -55v0zM112 329q1 -20 14 -34v0v0q14 -13 34 -14h64v0q20 1 34 14q13 14 14 34q1 15 16 16q15 -1 16 -16
q-1 -34 -23 -57q-23 -22 -57 -23h-64v0q-34 1 -57 23q-22 23 -23 57q1 15 16 16q15 -1 16 -16v0zM352 121q-15 1 -16 16q1 15 16 16h128v0q15 -1 16 -16q-1 -15 -16 -16h-128v0zM352 185q-15 1 -16 16q1 15 16 16h128v0q15 -1 16 -16q-1 -15 -16 -16h-128v0zM352 249
q-15 1 -16 16q1 15 16 16h128v0q15 -1 16 -16q-1 -15 -16 -16h-128v0z" />
</svg>
