<?xml version="1.0" standalone="no"?>
<!DOCTYPE svg PUBLIC "-//W3C//DTD SVG 1.1//EN" "http://www.w3.org/Graphics/SVG/1.1/DTD/svg11.dtd" >
<svg xmlns="http://www.w3.org/2000/svg" xmlns:xlink="http://www.w3.org/1999/xlink" version="1.1" viewBox="-10 -40 404 512">
   <path fill="currentColor"
d="M64 -7q-14 0 -23 9v0v0q-9 9 -9 23v384v0q0 14 9 23t23 9h256v0q14 0 23 -9t9 -23v-384v0q0 -14 -9 -23t-23 -9h-256v0zM0 25q1 -27 19 -45v0v0q18 -18 45 -19h256v0q27 1 45 19t19 45v384v0q-1 27 -19 45t-45 19h-256v0q-27 -1 -45 -19t-19 -45v-384v0zM224 185
q0 -14 -9 -23v0v0q-9 -9 -23 -9t-23 9t-9 23t9 23t23 9t23 -9t9 -23v0zM128 185q1 -36 32 -55q32 -18 64 0q31 19 32 55q-1 36 -32 55q-32 18 -64 0q-31 -19 -32 -55v0zM128 41q1 -15 16 -16h96v0q15 1 16 16q-1 15 -16 16h-96v0q-15 -1 -16 -16v0zM112 361q-1 15 -16 16
q-15 -1 -16 -16q1 -34 23 -57q23 -22 57 -23h64v0q34 1 57 23q22 23 23 57q-1 15 -16 16q-15 -1 -16 -16q-1 -20 -14 -34q-14 -13 -34 -14h-64v0q-20 1 -34 14q-13 14 -14 34v0z" />
</svg>
