<?xml version="1.0" standalone="no"?>
<!DOCTYPE svg PUBLIC "-//W3C//DTD SVG 1.1//EN" "http://www.w3.org/Graphics/SVG/1.1/DTD/svg11.dtd" >
<svg xmlns="http://www.w3.org/2000/svg" xmlns:xlink="http://www.w3.org/1999/xlink" version="1.1" viewBox="-10 -40 330 512">
   <path fill="currentColor"
d="M96 57q1 -27 19 -45v0v0q18 -18 45 -19q27 1 45 19t19 45v157v0q1 22 16 37q31 31 32 78q-1 48 -33 79q-31 32 -79 33q-48 -1 -79 -33q-32 -31 -33 -79q1 -47 32 -78q15 -15 16 -37v-157v0zM160 -39q-41 1 -68 28v0v0q-27 27 -28 68v157v0q0 7 -7 14q-40 41 -41 101
q2 61 42 102q41 40 102 42q61 -2 102 -42q40 -41 42 -102q-1 -60 -41 -101q-7 -7 -7 -14v-157v0q-1 -41 -28 -68t-68 -28v0zM128 329q0 -14 9 -23v0v0q9 -9 23 -9t23 9t9 23t-9 23t-23 9t-23 -9t-9 -23v0zM224 329q-1 -36 -32 -55q-32 -18 -64 0q-31 19 -32 55q1 36 32 55
q32 18 64 0q31 -19 32 -55v0z" />
</svg>
