<?xml version="1.0" standalone="no"?>
<!DOCTYPE svg PUBLIC "-//W3C//DTD SVG 1.1//EN" "http://www.w3.org/Graphics/SVG/1.1/DTD/svg11.dtd" >
<svg xmlns="http://www.w3.org/2000/svg" xmlns:xlink="http://www.w3.org/1999/xlink" version="1.1" viewBox="-10 -40 532 512">
   <path fill="currentColor"
d="M32 77q1 -22 15 -37v0v0q15 -14 37 -15q21 0 37 15l28 28v0q0 1 1 2q-24 34 -22 74q3 41 33 72l5 5v0l-17 17v0q-10 11 0 22q11 10 22 0l192 -192v0q10 -11 0 -22q-11 -10 -22 0l-17 16v0l-5 -4v0q-31 -30 -71 -33q-41 -2 -75 22q-1 -1 -2 -1l-28 -28v0q-25 -25 -59 -25
q-36 1 -59 25q-24 23 -25 59v348v0q1 15 16 16q15 -1 16 -16v-348v0zM183 80q25 -23 57 -23v0v0q32 0 57 23l4 5v0l-113 113v0l-5 -4v0q-23 -25 -23 -57t23 -56v-1zM416 161q-2 -22 -24 -24q-22 2 -24 24q2 22 24 24q22 -2 24 -24v0zM328 249q22 -2 24 -24q-2 -22 -24 -24
q-22 2 -24 24q2 22 24 24v0zM288 289q-2 -22 -24 -24q-22 2 -24 24q2 22 24 24q22 -2 24 -24v0zM360 345q22 -2 24 -24q-2 -22 -24 -24q-22 2 -24 24q2 22 24 24v0zM296 409q22 -2 24 -24q-2 -22 -24 -24q-22 2 -24 24q2 22 24 24v0zM424 281q22 -2 24 -24q-2 -22 -24 -24
q-22 2 -24 24q2 22 24 24v0zM512 193q-2 -22 -24 -24q-22 2 -24 24q2 22 24 24q22 -2 24 -24v0z" />
</svg>
