<?xml version="1.0" standalone="no"?>
<!DOCTYPE svg PUBLIC "-//W3C//DTD SVG 1.1//EN" "http://www.w3.org/Graphics/SVG/1.1/DTD/svg11.dtd" >
<svg xmlns="http://www.w3.org/2000/svg" xmlns:xlink="http://www.w3.org/1999/xlink" version="1.1" viewBox="-10 -40 525 512">
   <path fill="currentColor"
d="M16 249q-17 -32 0 -64l92 -160v0q19 -31 56 -32h184v0q37 1 56 32l92 160v0q17 32 0 64l-92 160v0q-19 31 -56 32h-184v0q-37 -1 -56 -32l-92 -160v0zM44 201q-9 16 0 32l92 160v0q10 15 28 16h184v0q18 -1 28 -16l92 -160v0q9 -16 0 -32l-92 -160v0q-10 -15 -28 -16
h-184v0q-18 1 -28 16l-92 160v0zM181 142q11 -10 22 0l53 52v0l53 -52v0q11 -10 22 0q10 11 0 22l-52 53v0l52 53v0q10 11 0 22q-11 10 -22 0l-53 -52v0l-53 52v0q-11 10 -22 0q-10 -11 0 -22l52 -53v0l-52 -53v0q-10 -11 0 -22v0z" />
</svg>
