<?xml version="1.0" standalone="no"?>
<!DOCTYPE svg PUBLIC "-//W3C//DTD SVG 1.1//EN" "http://www.w3.org/Graphics/SVG/1.1/DTD/svg11.dtd" >
<svg xmlns="http://www.w3.org/2000/svg" xmlns:xlink="http://www.w3.org/1999/xlink" version="1.1" viewBox="-10 -40 660 512">
   <path fill="currentColor"
d="M576 57q14 0 23 9v0v0q9 9 9 23v256v0q0 14 -9 23t-23 9h-512v0q-14 0 -23 -9t-9 -23v-256v0q0 -14 9 -23t23 -9h512v0zM64 25q-27 1 -45 19v0v0q-18 18 -19 45v256v0q1 27 19 45t45 19h512v0q27 -1 45 -19t19 -45v-256v0q-1 -27 -19 -45t-45 -19h-512v0z" />
</svg>
