<?xml version="1.0" standalone="no"?>
<!DOCTYPE svg PUBLIC "-//W3C//DTD SVG 1.1//EN" "http://www.w3.org/Graphics/SVG/1.1/DTD/svg11.dtd" >
<svg xmlns="http://www.w3.org/2000/svg" xmlns:xlink="http://www.w3.org/1999/xlink" version="1.1" viewBox="-10 -40 532 512">
   <path fill="currentColor"
d="M160 289v49v-49v49q-1 6 -7 7q-3 0 -5 -2l-112 -126v0l112 -126v0q2 -2 5 -2q6 1 7 7v49v0q0 14 9 23t23 9h272v0q15 1 16 16v48v0q-1 15 -16 16h-272v0q-14 0 -23 9t-9 23v0zM5 203q-5 6 -5 14t5 14l120 133v0q11 13 28 13t28 -11t11 -28v-17v0v-32v0h32h240
q20 -1 34 -14q13 -14 14 -34v-48v0q-1 -20 -14 -34q-14 -13 -34 -14h-240h-32v-32v0v-17v0q0 -17 -11 -28t-28 -11t-28 13l-120 133v0z" />
</svg>
