<?xml version="1.0" standalone="no"?>
<!DOCTYPE svg PUBLIC "-//W3C//DTD SVG 1.1//EN" "http://www.w3.org/Graphics/SVG/1.1/DTD/svg11.dtd" >
<svg xmlns="http://www.w3.org/2000/svg" xmlns:xlink="http://www.w3.org/1999/xlink" version="1.1" viewBox="-10 -40 532 512">
   <path fill="currentColor"
d="M256 441q-61 -1 -112 -30v0v0q-51 -30 -82 -82q-30 -53 -30 -112t30 -112q31 -52 82 -82q51 -29 112 -30q61 1 112 30q51 30 82 82q30 53 30 112t-30 112q-31 52 -82 82q-51 29 -112 30v0zM256 -39q-70 1 -128 34v0v0q-58 34 -94 94q-34 61 -34 128t34 128q36 60 94 94
q58 33 128 34q70 -1 128 -34q58 -34 94 -94q34 -61 34 -128t-34 -128q-36 -60 -94 -94q-58 -33 -128 -34v0zM256 313q15 0 25 -11l96 -103v0q7 -8 7 -18q0 -12 -8 -20t-19 -8h-201v0q-12 0 -20 8t-8 20q0 10 7 18l96 103v0q10 11 25 11v0zM258 280q-1 1 -2 1t-2 -1l-88 -95
v0h180v0l-88 95v0z" />
</svg>
