<?xml version="1.0" standalone="no"?>
<!DOCTYPE svg PUBLIC "-//W3C//DTD SVG 1.1//EN" "http://www.w3.org/Graphics/SVG/1.1/DTD/svg11.dtd" >
<svg xmlns="http://www.w3.org/2000/svg" xmlns:xlink="http://www.w3.org/1999/xlink" version="1.1" viewBox="-10 -40 468 512">
   <path fill="currentColor"
d="M112 -39q15 1 16 16v48v0h192v0v-48v0q1 -15 16 -16q15 1 16 16v48v0h32v0q27 1 45 19t19 45v32v0v32v0v256v0q-1 27 -19 45t-45 19h-320v0q-27 -1 -45 -19t-19 -45v-256v0v-32v0v-32v0q1 -27 19 -45t45 -19h32v0v-48v0q1 -15 16 -16v0zM416 153h-384h384h-384v256v0
q0 14 9 23t23 9h320v0q14 0 23 -9t9 -23v-256v0zM384 57h-320h320h-320q-14 0 -23 9t-9 23v32v0h384v0v-32v0q0 -14 -9 -23t-23 -9v0zM296 219q-12 -9 -23 0l-12 12v0l29 29v0l12 -12v0q9 -11 0 -23l-6 -6v0zM267 283l-29 -29l29 29l-29 -29l-88 88v0l-9 38v0l38 -9v0
l88 -88v0zM250 196q15 -14 34 -14v0v0q19 0 34 14l7 7v0q14 14 14 34q0 19 -14 34l-123 123v0q-7 6 -16 8l-50 12v0q-14 2 -22 -7q-9 -9 -7 -22l12 -50v0q2 -9 8 -16l123 -123v0z" />
</svg>
