<?xml version="1.0" standalone="no"?>
<!DOCTYPE svg PUBLIC "-//W3C//DTD SVG 1.1//EN" "http://www.w3.org/Graphics/SVG/1.1/DTD/svg11.dtd" >
<svg xmlns="http://www.w3.org/2000/svg" xmlns:xlink="http://www.w3.org/1999/xlink" version="1.1" viewBox="-10 -40 532 512">
   <path fill="currentColor"
d="M191 32q20 -37 65 -39q45 2 65 39q7 11 19 8q41 -11 74 19q30 33 19 74q-3 12 7 19q38 20 40 65q-2 45 -39 65q-11 7 -8 19q11 41 -19 74q-33 30 -74 19q-12 -3 -18 7q-21 38 -66 40q-45 -2 -65 -39q-7 -11 -19 -8q-41 11 -74 -19q-30 -33 -19 -74q3 -12 -7 -18
q-38 -21 -40 -66q2 -45 39 -65q11 -7 8 -19q-11 -41 19 -74q33 -30 74 -19q12 3 19 -7v-1zM256 -39q-56 2 -87 46q-53 -9 -94 29q-38 41 -29 94q-44 31 -46 87q2 56 46 87q-9 53 29 94q41 38 94 29q31 44 87 46q56 -2 87 -46q53 9 94 -29q38 -41 29 -94q44 -31 46 -87
q-2 -56 -46 -87q9 -53 -29 -94q-41 -38 -94 -29q-31 -44 -87 -46v0zM363 164q10 -11 0 -22q-11 -10 -22 0l-117 116v0l-53 -52v0q-11 -10 -22 0q-10 11 0 22l64 64v0q11 10 22 0l128 -128v0z" />
</svg>
