<?xml version="1.0" standalone="no"?>
<!DOCTYPE svg PUBLIC "-//W3C//DTD SVG 1.1//EN" "http://www.w3.org/Graphics/SVG/1.1/DTD/svg11.dtd" >
<svg xmlns="http://www.w3.org/2000/svg" xmlns:xlink="http://www.w3.org/1999/xlink" version="1.1" viewBox="-10 -40 532 512">
   <path fill="currentColor"
d="M160 25v64v-64v64h320v0v-32v0q0 -14 -9 -23t-23 -9h-288v0zM128 25h-64h64h-64q-14 0 -23 9t-9 23v32v0h96v0v-64v0zM32 121v256v-256v256q0 14 9 23t23 9h384v0q14 0 23 -9t9 -23v-256v0h-336h-112zM0 57q1 -27 19 -45v0v0q18 -18 45 -19h384v0q27 1 45 19t19 45v320v0
q-1 27 -19 45t-45 19h-384v0q-27 -1 -45 -19t-19 -45v-320v0z" />
</svg>
