<?xml version="1.0" standalone="no"?>
<!DOCTYPE svg PUBLIC "-//W3C//DTD SVG 1.1//EN" "http://www.w3.org/Graphics/SVG/1.1/DTD/svg11.dtd" >
<svg xmlns="http://www.w3.org/2000/svg" xmlns:xlink="http://www.w3.org/1999/xlink" version="1.1" viewBox="-10 -40 596 512">
   <path fill="currentColor"
d="M512 25q14 0 23 9v0v0q9 9 9 23v320v0q0 14 -9 23t-23 9h-448v0q-14 0 -23 -9t-9 -23v-320v0q0 -14 9 -23t23 -9h448v0zM64 -7q-27 1 -45 19v0v0q-18 18 -19 45v320v0q1 27 19 45t45 19h448v0q27 -1 45 -19t19 -45v-320v0q-1 -27 -19 -45t-45 -19h-448v0zM96 265
q1 15 16 16h352v0q15 -1 16 -16q-1 -15 -16 -16h-352v0q-15 1 -16 16v0zM96 329q1 15 16 16h64v0q15 -1 16 -16q-1 -15 -16 -16h-64v0q-15 1 -16 16v0zM240 313q-15 1 -16 16q1 15 16 16h128v0q15 -1 16 -16q-1 -15 -16 -16h-128v0zM400 105h64h-64h64q7 1 8 8v48v0
q-1 7 -8 8h-64v0q-7 -1 -8 -8v-48v0q1 -7 8 -8v0zM360 113v48v-48v48q0 17 12 28q11 12 28 12h64v0q17 0 28 -12q12 -11 12 -28v-48v0q0 -17 -12 -28q-11 -12 -28 -12h-64v0q-17 0 -28 12q-12 11 -12 28v0z" />
</svg>
