<?xml version="1.0" standalone="no"?>
<!DOCTYPE svg PUBLIC "-//W3C//DTD SVG 1.1//EN" "http://www.w3.org/Graphics/SVG/1.1/DTD/svg11.dtd" >
<svg xmlns="http://www.w3.org/2000/svg" xmlns:xlink="http://www.w3.org/1999/xlink" version="1.1" viewBox="-10 -40 586 512">
   <path fill="currentColor"
d="M64 41q1 -15 16 -16h64v0q15 1 16 16v149v0q0 10 9 14q8 5 16 0l139 -93v0q10 -4 12 7v82v0q0 9 9 14q8 4 16 -1l138 -100v0q11 -4 13 7v145v0v16v0v96v0q0 14 -9 23t-23 9h-384v0q-14 0 -23 -9t-9 -23v-64v0v-48v0v-224v0zM80 -7q-20 1 -34 14v0v0q-13 14 -14 34v224v0
v48v0v64v0q1 27 19 45t45 19h384v0q27 -1 45 -19t19 -45v-96v0v-16v0v-145v0q-1 -25 -22 -36q-20 -10 -41 3l-113 82v0v-51v0q-1 -25 -21 -35q-20 -11 -41 2l-114 75v0v-119v0q-1 -20 -14 -34q-14 -13 -34 -14h-64v0zM136 265q-22 2 -24 24v48v0q2 22 24 24h48v0
q22 -2 24 -24v-48v0q-2 -22 -24 -24h-48v0zM240 289v48v-48v48q2 22 24 24h48v0q22 -2 24 -24v-48v0q-2 -22 -24 -24h-48v0q-22 2 -24 24v0zM272 329v-32v32v-32h32v0v32v0h-32v0zM392 265q-22 2 -24 24v48v0q2 22 24 24h48v0q22 -2 24 -24v-48v0q-2 -22 -24 -24h-48v0z
M432 329h-32h32h-32v-32v0h32v0v32v0zM144 329v-32v32v-32h32v0v32v0h-32v0z" />
</svg>
