<?xml version="1.0" standalone="no"?>
<!DOCTYPE svg PUBLIC "-//W3C//DTD SVG 1.1//EN" "http://www.w3.org/Graphics/SVG/1.1/DTD/svg11.dtd" >
<svg xmlns="http://www.w3.org/2000/svg" xmlns:xlink="http://www.w3.org/1999/xlink" version="1.1" viewBox="-10 -40 394 512">
   <path fill="currentColor"
d="M96 -7q-14 0 -23 9v0v0q-9 9 -9 23v384v0q0 14 9 23t23 9h192v0q14 0 23 -9t9 -23v-384v0q0 -14 -9 -23t-23 -9h-192v0zM32 25q1 -27 19 -45v0v0q18 -18 45 -19h192v0q27 1 45 19t19 45v384v0q-1 27 -19 45t-45 19h-192v0q-27 -1 -45 -19t-19 -45v-384v0zM160 361h64h-64
h64q15 1 16 16q-1 15 -16 16h-64v0q-15 -1 -16 -16q1 -15 16 -16v0z" />
</svg>
