<?xml version="1.0" standalone="no"?>
<!DOCTYPE svg PUBLIC "-//W3C//DTD SVG 1.1//EN" "http://www.w3.org/Graphics/SVG/1.1/DTD/svg11.dtd" >
<svg xmlns="http://www.w3.org/2000/svg" xmlns:xlink="http://www.w3.org/1999/xlink" version="1.1" viewBox="-11 0 662 512">
   <path fill="currentColor"
d="M480 472q-72 -5 -136 -31v0v0q-64 -26 -116 -70l26 -20v0q53 43 119 66q65 24 139 24v0v0q6 0 8 -6l24 -112v0q1 -6 -5 -9l-112 -48v0q-5 -2 -9 2l-33 41v0q-18 18 -41 7q-13 -7 -26 -16l27 -21v0q7 5 15 9l33 -40v0q20 -22 47 -12l112 48v0q13 6 20 19q6 12 3 26
l-24 112v0q-8 30 -39 32v0v0h-18v0v0v0v0q-7 -1 -14 -1v0zM141 277q-75 -110 -77 -252v0v0q2 -31 32 -39l112 -24v0q14 -3 26 4q13 6 19 19l48 112v0q10 27 -12 47l-40 33v0l6 10l-25 20v0q-5 -7 -9 -14q-11 -23 8 -41l40 -33v0q4 -4 2 -9l-48 -112v0q-2 -6 -9 -5l-112 24v0
q-6 2 -6 8v0v0v0v0v0v0v0v0v0v0v0v0v0v0v0v0v0v0v0v0v0v0v0v0v0v0v0v0v0v0v0v0v0v0v0v0v0v0v0v0v0v0v0v0v0v0v0v0q2 131 70 232l-25 20v0zM614 -36q12 -8 23 3q8 12 -3 23l-608 480v0q-12 7 -22 -3q-9 -12 2 -23l608 -480v0z" />
</svg>
