<?xml version="1.0" standalone="no"?>
<!DOCTYPE svg PUBLIC "-//W3C//DTD SVG 1.1//EN" "http://www.w3.org/Graphics/SVG/1.1/DTD/svg11.dtd" >
<svg xmlns="http://www.w3.org/2000/svg" xmlns:xlink="http://www.w3.org/1999/xlink" version="1.1" viewBox="-10 -40 468 512">
   <path fill="currentColor"
d="M32 377q0 14 9 23v0v0q9 9 23 9h320v0q14 0 23 -9t9 -23v-320v0q0 -14 -9 -23t-23 -9h-320v0q-14 0 -23 9t-9 23v320v0zM0 57q1 -27 19 -45v0v0q18 -18 45 -19h320v0q27 1 45 19t19 45v320v0q-1 27 -19 45t-45 19h-320v0q-27 -1 -45 -19t-19 -45v-320v0zM96 137
q1 -15 16 -16h48v0v-24v0q1 -15 16 -16q15 1 16 16v40v0v40v0q-1 15 -16 16q-15 -1 -16 -16v-24v0h-48v0q-15 -1 -16 -16v0zM224 137q1 -15 16 -16h96v0q15 1 16 16q-1 15 -16 16h-96v0q-15 -1 -16 -16v0zM96 297q1 -15 16 -16h112v0v-24v0q1 -15 16 -16q15 1 16 16v40v0v40
v0q-1 15 -16 16q-15 -1 -16 -16v-24v0h-112v0q-15 -1 -16 -16v0zM288 297q1 -15 16 -16h32v0q15 1 16 16q-1 15 -16 16h-32v0q-15 -1 -16 -16v0z" />
</svg>
