<?xml version="1.0" standalone="no"?>
<!DOCTYPE svg PUBLIC "-//W3C//DTD SVG 1.1//EN" "http://www.w3.org/Graphics/SVG/1.1/DTD/svg11.dtd" >
<svg xmlns="http://www.w3.org/2000/svg" xmlns:xlink="http://www.w3.org/1999/xlink" version="1.1" viewBox="-10 -40 522 512">
   <path fill="currentColor"
d="M96 -39q15 1 16 16v66v0q28 6 46 27q17 21 18 51q-1 30 -18 51q-18 21 -46 27v258v0q-1 15 -16 16q-15 -1 -16 -16v-258v0q-28 -6 -46 -27q-17 -21 -18 -51q1 -30 18 -51q18 -21 46 -27v-66v0q1 -15 16 -16v0zM96 169q27 -1 42 -24q12 -24 0 -48q-15 -23 -42 -24
q-27 1 -42 24q-12 24 0 48q15 23 42 24v0zM256 361q27 -1 42 -24q12 -24 0 -48q-15 -23 -42 -24q-27 1 -42 24q-12 24 0 48q15 23 42 24v0zM336 313q-1 30 -18 51v0v0q-18 21 -46 27v66v0q-1 15 -16 16q-15 -1 -16 -16v-66v0q-28 -6 -46 -27q-17 -21 -18 -51q1 -30 18 -51
q18 -21 46 -27v-258v0q1 -15 16 -16q15 1 16 16v258v0q28 6 46 27q17 21 18 51v0zM464 153q-1 -27 -24 -42q-24 -12 -48 0q-23 15 -24 42q1 27 24 42q24 12 48 0q23 -15 24 -42v0zM432 231v226v-226v226q-1 15 -16 16q-15 -1 -16 -16v-226v0q-28 -6 -46 -27q-17 -21 -18 -51
q1 -30 18 -51q18 -21 46 -27v-98v0q1 -15 16 -16q15 1 16 16v98v0q28 6 46 27q17 21 18 51q-1 30 -18 51q-18 21 -46 27v0z" />
</svg>
