<?xml version="1.0" standalone="no"?>
<!DOCTYPE svg PUBLIC "-//W3C//DTD SVG 1.1//EN" "http://www.w3.org/Graphics/SVG/1.1/DTD/svg11.dtd" >
<svg xmlns="http://www.w3.org/2000/svg" xmlns:xlink="http://www.w3.org/1999/xlink" version="1.1" viewBox="-10 -40 532 512">
   <path fill="currentColor"
d="M178 57q-2 7 -8 10q-6 4 -13 1q-10 -3 -21 -3q-27 1 -45 19t-19 45q0 20 11 36q4 6 2 14q-3 7 -10 10q-19 6 -31 23q-12 16 -12 37q1 27 19 45t45 19h144v0v-32v0v-64v0v-112v0q1 -15 16 -16q15 1 16 16v112v0v64v0v32v0h144v0q27 -1 45 -19t19 -45q0 -21 -12 -37
q-12 -17 -31 -23q-7 -3 -10 -10q-2 -8 2 -14q11 -16 11 -36q-1 -27 -19 -45t-45 -19q-11 0 -21 4q-7 2 -13 -2q-6 -3 -8 -10q-6 -28 -27 -46q-22 -17 -51 -18q-29 1 -51 18q-21 18 -27 46v0zM240 345h-144h144h-144q-41 -1 -68 -28t-28 -68q0 -27 13 -48q13 -22 35 -35
q-8 -17 -8 -37q1 -41 28 -68t68 -28q8 0 15 1q12 -32 40 -52t65 -21q37 1 65 21t40 52q7 -1 15 -1q41 1 68 28t28 68q0 20 -7 37q21 13 34 35q13 21 13 48q-1 41 -28 68t-68 28h-144v0v112v0q-1 15 -16 16q-15 -1 -16 -16v-112v0z" />
</svg>
