<?xml version="1.0" standalone="no"?>
<!DOCTYPE svg PUBLIC "-//W3C//DTD SVG 1.1//EN" "http://www.w3.org/Graphics/SVG/1.1/DTD/svg11.dtd" >
<svg xmlns="http://www.w3.org/2000/svg" xmlns:xlink="http://www.w3.org/1999/xlink" version="1.1" viewBox="-10 -40 532 512">
   <path fill="currentColor"
d="M321 -39q-14 0 -23 10v0v0q-10 9 -10 23t10 23l27 28v0l-71 72v0q-12 12 -12 28t12 28l46 46v0q12 12 28 12t28 -12l72 -71v0l28 27v0q9 10 23 10t23 -10q10 -9 10 -23v-159v0q0 -14 -9 -23t-23 -9h-159v0zM320 -6q0 -1 1 -1h159v0v159v0q0 1 -1 1h-1l-39 -39v0
q-11 -10 -22 0l-83 83v0q-6 4 -12 0l-46 -46v0q-4 -6 0 -12l83 -83v0q5 -4 5 -11t-5 -11l-39 -39v0v-1v0zM32 473h159h-159h159q14 0 23 -10q10 -9 10 -23t-10 -23l-27 -28v0l71 -72v0q12 -12 12 -28t-12 -28l-46 -46v0q-12 -12 -28 -12t-28 12l-72 71v0l-28 -27v0
q-9 -10 -23 -10t-23 10q-10 9 -10 23v159v0q0 14 9 23t23 9v0zM192 440q0 1 -1 1h-159v0v-159v0q0 -1 1 -1h1l39 39v0q11 10 22 0l83 -83v0q6 -4 12 0l46 46v0q4 6 0 12l-83 83v0q-5 4 -5 11t5 11l39 39v0v1v0z" />
</svg>
