<?xml version="1.0" standalone="no"?>
<!DOCTYPE svg PUBLIC "-//W3C//DTD SVG 1.1//EN" "http://www.w3.org/Graphics/SVG/1.1/DTD/svg11.dtd" >
<svg xmlns="http://www.w3.org/2000/svg" xmlns:xlink="http://www.w3.org/1999/xlink" version="1.1" viewBox="-10 -40 532 512">
   <path fill="currentColor"
d="M416 -39q-23 0 -39 16l-151 151v0q-14 15 -26 32l-75 112v0q-9 15 -22 27l-71 71v0l-5 -4v0q-11 -10 -22 0q-10 11 0 22l4 5v0l12 11v0l48 48v0l11 12v0l5 4v0q11 10 22 0q10 -11 0 -22l-4 -5v0l71 -71v0q12 -13 27 -22l112 -75v0q17 -12 32 -26l151 -151v0
q16 -16 16 -39t-16 -39l-41 -41v0q-16 -16 -39 -16v0zM80 418l-25 -25l25 25l-25 -25l71 -71v0v-1q1 -1 2 -1l25 25v0q0 1 -1 1q0 1 -1 1l-71 71v0zM178 325l-29 -30l29 30l-29 -30v-2q2 -1 3 -3l75 -112v0q9 -15 22 -27l151 -151v0q7 -7 16 -7t16 7l41 41v0q7 7 7 16t-7 16
l-151 151v0q-12 13 -27 22l-112 75v0l-2 2q-2 1 -3 1v1zM384 393q1 -27 24 -42q24 -12 48 0q23 15 24 42q-1 27 -24 42q-24 12 -48 0q-23 -15 -24 -42v0zM512 393q-1 -45 -40 -69q-40 -22 -80 0q-39 24 -40 69q1 45 40 69q40 22 80 0q39 -24 40 -69v0z" />
</svg>
