<?xml version="1.0" standalone="no"?>
<!DOCTYPE svg PUBLIC "-//W3C//DTD SVG 1.1//EN" "http://www.w3.org/Graphics/SVG/1.1/DTD/svg11.dtd" >
<svg xmlns="http://www.w3.org/2000/svg" xmlns:xlink="http://www.w3.org/1999/xlink" version="1.1" viewBox="-10 -40 660 512">
   <path fill="currentColor"
d="M35 163q8 -18 40 -58v0v0q32 -40 93 -75v0v0q60 -35 152 -37q92 2 152 37q61 35 93 75t40 58q3 6 3 13v116v0q-1 20 -19 29l-79 36v0l-5 37v0l97 -43v0q36 -18 38 -59v-116v0q0 -14 -7 -28q-8 -20 -44 -64q-35 -44 -101 -82q-67 -38 -168 -41q-101 3 -168 41
q-66 38 -101 82q-36 45 -44 64q-7 14 -7 28v116v0q2 41 38 59l97 43v0l-5 -37v0l-79 -36v0q-18 -9 -19 -29v-116v0q0 -7 3 -13v0zM192 137q1 -15 16 -16h224v0q15 1 16 16v32v0h32v0v-32v0q-1 -20 -14 -34q-14 -13 -34 -14h-224v0q-20 1 -34 14q-13 14 -14 34v32v0h32v0v-32
v0zM144 201h-16h16h-16q-15 1 -16 16q1 15 16 16h18v0l30 226v0q2 10 11 13q10 3 17 -4l48 -56v0l57 56v0q4 5 11 5t11 -5l57 -56v0l48 56v0q7 7 17 4q9 -3 11 -13l30 -226v0h18v0q15 -1 16 -16q-1 -15 -16 -16h-16h-16v0v0h-32h-48v0v0h-32v0v0v0h-96v0v0v0h-32v0v0v0h-48
h-32v0v0h-16v0zM178 233h55h-55h55l1 2v0l-48 53v0l-8 -55v0zM279 233h82h-82h82l2 2v0l-43 50v0l-43 -50v0l2 -2v0zM407 233h55h-55h55l-8 55v0l-48 -53v0l1 -2v0zM320 434l-47 -46l47 46l-47 -46l47 -54v0l47 54v0l-47 46v0zM251 365l-48 -48l48 48l-48 -48l52 -58v0
l44 50v0l-48 56v0zM230 389l-27 31l27 -31l-27 31l-9 -66v0l36 35v0zM389 365l-48 -56l48 56l-48 -56l44 -50v0l52 58v0l-48 48v0zM410 389l36 -35l-36 35l36 -35l-9 66v0l-27 -31v0z" />
</svg>
