<?xml version="1.0" standalone="no"?>
<!DOCTYPE svg PUBLIC "-//W3C//DTD SVG 1.1//EN" "http://www.w3.org/Graphics/SVG/1.1/DTD/svg11.dtd" >
<svg xmlns="http://www.w3.org/2000/svg" xmlns:xlink="http://www.w3.org/1999/xlink" version="1.1" viewBox="-10 -40 276 512">
   <path fill="currentColor"
d="M96 -7h32h-32h64q15 1 16 16q0 9 -8 14q6 6 12 14q17 19 30 46q13 28 14 62q-1 25 -11 41q10 4 11 15q-1 15 -16 16h-12v0l10 96v0h-32v0l-10 -96v0h-72v0l-9 96v0h-33v0l10 -96v0h-12v0q-15 -1 -16 -16q1 -11 11 -15q-10 -16 -11 -41q1 -34 14 -62q13 -27 30 -46
q6 -8 12 -14q-8 -5 -8 -14q1 -15 16 -16v0zM172 185q17 -10 20 -40q-1 -29 -13 -52l-32 31v0q-11 10 -22 0q-10 -11 0 -22l37 -37v0l-1 -1q-3 -4 -5 -7q-15 -17 -26 -26l-2 -2l-2 2q-11 9 -26 26q-14 17 -25 40q-11 22 -11 48q3 30 21 40h87v0zM217 360l33 53l-33 -53l33 53
q6 9 6 21q0 16 -12 27q-11 12 -27 12h-178v0q-16 0 -27 -12q-12 -11 -12 -27q0 -12 6 -21l33 -53v0q9 -14 27 -15h124v0q18 1 27 15v0zM66 377l-33 53l33 -53l-33 53q-1 2 -1 4q1 6 7 7h178v0q6 -1 7 -7q0 -3 -1 -4l-33 -53v0h-124v0z" />
</svg>
