<?xml version="1.0" standalone="no"?>
<!DOCTYPE svg PUBLIC "-//W3C//DTD SVG 1.1//EN" "http://www.w3.org/Graphics/SVG/1.1/DTD/svg11.dtd" >
<svg xmlns="http://www.w3.org/2000/svg" xmlns:xlink="http://www.w3.org/1999/xlink" version="1.1" viewBox="-10 -40 660 512">
   <path fill="currentColor"
d="M400 -7q-15 1 -16 16q1 15 16 16h48v0v64v0h-384v0q-27 1 -45 19t-19 45v224v0q1 27 19 45t45 19h512v0q27 -1 45 -19t19 -45v-224v0q-1 -27 -19 -45t-45 -19h-96v0v-64v0h48v0q15 -1 16 -16q-1 -15 -16 -16h-64h-64zM96 41q1 15 16 16h128v0q15 -1 16 -16
q-1 -15 -16 -16h-128v0q-15 1 -16 16v0zM576 121q14 0 23 9v0v0q9 9 9 23v224v0q0 14 -9 23t-23 9h-512v0q-14 0 -23 -9t-9 -23v-224v0q0 -14 9 -23t23 -9h512v0zM464 185q45 1 69 40q22 40 0 80q-24 39 -69 40q-45 -1 -69 -40q-22 -40 0 -80q24 -39 69 -40v0zM464 377
q30 0 56 -15v0v0q26 -15 41 -41t15 -56t-15 -56t-41 -41t-56 -15t-56 15t-41 41t-15 56t15 56t41 41t56 15v0zM119 208q34 -31 78 -20q43 13 56 56q11 44 -20 78q-34 31 -78 20q-43 -13 -56 -56q-11 -44 20 -78v0zM255 344q22 -22 29 -50v0v0q8 -29 0 -58t-29 -50t-50 -29
t-58 0q-28 7 -50 29t-29 50q-8 29 0 58t29 50t50 29t58 0q28 -7 50 -29v0zM464 201q-15 1 -16 16v48v0q1 15 16 16q15 -1 16 -16v-48v0q-1 -15 -16 -16v0zM221 242q10 -11 0 -22q-11 -9 -22 0l-34 34v0q-9 11 0 22q11 10 22 0l34 -34v0z" />
</svg>
