<?xml version="1.0" standalone="no"?>
<!DOCTYPE svg PUBLIC "-//W3C//DTD SVG 1.1//EN" "http://www.w3.org/Graphics/SVG/1.1/DTD/svg11.dtd" >
<svg xmlns="http://www.w3.org/2000/svg" xmlns:xlink="http://www.w3.org/1999/xlink" version="1.1" viewBox="-10 -40 532 512">
   <path fill="currentColor"
d="M507 -34q10 11 0 22l-152 153v0l34 34v0q14 15 14 34t-14 34l-34 33v0v0v0l-182 183v0q-14 14 -34 14h-3v0q-58 -1 -96 -40q-39 -38 -40 -96v-3v0q0 -19 14 -34l183 -182v0v0l33 -34v0q15 -14 34 -14t34 14l34 34v0l153 -152v0q11 -10 22 0v0zM192 168l-155 155l155 -155
l-155 155q-5 5 -5 11v3v0q1 44 30 73q30 30 74 31h3v0q6 0 11 -5l155 -155v0h-65v0q-20 -1 -34 -14q-13 -14 -14 -34v-65v0zM337 249l29 -29l-29 29l29 -29q9 -11 0 -22l-91 -91v0q-11 -9 -22 0l-29 29v0v97v0q1 15 16 16h97v0zM480 393q-1 -27 -24 -42q-24 -12 -48 0
q-23 15 -24 42q1 27 24 42q24 12 48 0q23 -15 24 -42v0zM352 393q1 -45 40 -69q40 -22 80 0q39 24 40 69q-1 45 -40 69q-40 22 -80 0q-39 -24 -40 -69v0z" />
</svg>
