<?xml version="1.0" standalone="no"?>
<!DOCTYPE svg PUBLIC "-//W3C//DTD SVG 1.1//EN" "http://www.w3.org/Graphics/SVG/1.1/DTD/svg11.dtd" >
<svg xmlns="http://www.w3.org/2000/svg" xmlns:xlink="http://www.w3.org/1999/xlink" version="1.1" viewBox="-10 -40 532 512">
   <path fill="currentColor"
d="M456 160l-179 22l179 -22l-179 22q-23 3 -38 20t-15 40q0 15 6 27l39 77v0q3 6 3 14v1v0q0 14 -9 23t-23 9h-3v0q-6 0 -12 -3l-94 -40v0q-12 -5 -26 -5h-13v0q-43 -54 -44 -128q2 -88 61 -147t147 -61q73 1 126 43q54 41 74 108v0zM462 191q14 -2 22 -12v0v0q7 -10 4 -23
q-22 -79 -84 -128q-63 -49 -148 -51q-67 1 -121 33t-86 86t-33 121q2 86 52 149q9 11 23 11h14v0q7 0 13 3l94 40v0q12 5 25 5h3v0q27 -1 45 -19t19 -45v-1v0q0 -15 -7 -28l-9 -19v0h40v0l9 51v0q9 41 40 67q30 25 72 26h17v0q20 0 33 -13t13 -33v-50v0v-32v0
q-1 -20 -14 -34q-14 -13 -34 -14h-110v0l-14 -74v0l123 -16h-1zM308 210l14 71l-14 -71l14 71h-50v0l-13 -26v0q-3 -6 -3 -13q2 -23 25 -28l28 -4h-1zM200 297q-2 -22 -24 -24q-22 2 -24 24q2 22 24 24q22 -2 24 -24v0zM366 345l-6 -32l6 32l-6 -32h104v0q15 1 16 16v16v0
h-114v0zM375 377h105h-105h105v34v0q-1 13 -14 14h-17v0q-25 0 -44 -13q-20 -13 -30 -35v0z" />
</svg>
