<?xml version="1.0" standalone="no"?>
<!DOCTYPE svg PUBLIC "-//W3C//DTD SVG 1.1//EN" "http://www.w3.org/Graphics/SVG/1.1/DTD/svg11.dtd" >
<svg xmlns="http://www.w3.org/2000/svg" xmlns:xlink="http://www.w3.org/1999/xlink" version="1.1" viewBox="-10 -40 404 512">
   <path fill="currentColor"
d="M288 281q30 -22 47 -55v0v0q17 -33 17 -73q-2 -68 -47 -113t-113 -47q-68 2 -113 47t-47 113q0 40 17 73t47 55h-47v0q-47 -53 -49 -128q2 -82 56 -136t136 -56q82 2 136 56t56 136q-2 75 -49 128h-47v0zM80 313h112h-112h224q15 1 16 16q-1 15 -16 16h-80v0
q-15 1 -16 16v96v0q-1 15 -16 16q-15 -1 -16 -16v-96v0q-1 -15 -16 -16h-80v0q-15 -1 -16 -16q1 -15 16 -16v0zM226 210q2 -10 9 -6q8 9 8 22q0 15 -10 24q-9 9 -24 10q-13 -1 -22 -9q-3 -6 6 -8q14 0 23 -10q10 -9 10 -23v0zM174 160q14 0 23 -10v0v0q10 -9 10 -23
q2 -9 9 -6q8 10 8 23q0 14 -10 23q-9 10 -23 10q-13 0 -23 -8q-3 -7 6 -9v0zM287 143q2 -9 9 -6q8 10 8 23q0 14 -10 23q-9 10 -23 10q-13 0 -23 -8q-3 -7 6 -9q14 0 24 -10q9 -9 9 -23v0z" />
</svg>
