<?xml version="1.0" standalone="no"?>
<!DOCTYPE svg PUBLIC "-//W3C//DTD SVG 1.1//EN" "http://www.w3.org/Graphics/SVG/1.1/DTD/svg11.dtd" >
<svg xmlns="http://www.w3.org/2000/svg" xmlns:xlink="http://www.w3.org/1999/xlink" version="1.1" viewBox="-10 -40 532 512">
   <path fill="currentColor"
d="M32 145q-1 14 14 29q16 16 47 30q64 28 163 29q99 -1 163 -29q31 -14 47 -30q15 -15 14 -29q1 -14 -14 -29q-16 -16 -47 -30q-64 -28 -163 -29q-99 1 -163 29q-31 14 -47 30q-15 15 -14 29v0zM0 145q1 -30 23 -52q22 -21 57 -36q71 -31 176 -32q105 1 176 32q35 15 57 36
q22 22 23 52v144v0q-1 30 -23 52q-22 21 -57 36q-71 31 -176 32q-105 -1 -176 -32q-35 -15 -57 -36q-22 -22 -23 -52v-144v0zM480 205q-20 16 -48 28q-71 31 -176 32q-105 -1 -176 -32q-28 -12 -48 -28v84v0q-1 14 14 29q16 16 47 30q64 28 163 29q99 -1 163 -29
q31 -14 47 -30q15 -15 14 -29v-84v0z" />
</svg>
