<?xml version="1.0" standalone="no"?>
<!DOCTYPE svg PUBLIC "-//W3C//DTD SVG 1.1//EN" "http://www.w3.org/Graphics/SVG/1.1/DTD/svg11.dtd" >
<svg xmlns="http://www.w3.org/2000/svg" xmlns:xlink="http://www.w3.org/1999/xlink" version="1.1" viewBox="-10 -40 468 512">
   <path fill="currentColor"
d="M288 441h-128h128h-128q-54 -1 -91 -37q-36 -37 -37 -91v-128v0q2 -82 56 -136t136 -56q82 2 136 56t56 136v128v0q-1 54 -37 91q-37 36 -91 37v0zM224 -39q-63 1 -113 31v0v0q-51 29 -80 80v0v0q-30 50 -31 113v128v0q2 68 47 113t113 47h128v0q68 -2 113 -47t47 -113
v-128v0q-1 -63 -31 -113q-29 -51 -80 -80q-50 -30 -113 -31v0zM160 313h35h-35h128q14 0 23 9t9 23t-9 23t-23 9h-128v0q-14 0 -23 -9t-9 -23t9 -23t23 -9v0zM154 281q-25 3 -41 21v0v0q-16 18 -17 43q1 27 19 45t45 19h128v0q27 -1 45 -19t19 -45q-1 -25 -17 -43t-41 -21
q2 -5 2 -11q0 -11 -5 -21h13v0q34 -1 57 -23q22 -23 23 -57q-1 -20 -14 -34q-14 -13 -34 -14h-32v0q-34 1 -57 23q-22 23 -23 57q-1 -34 -23 -57q-23 -22 -57 -23h-32v0q-20 1 -34 14q-13 14 -14 34q1 34 23 57q23 22 57 23h13v0q-5 10 -5 21q0 6 2 11v0zM195 281
q-10 -1 -11 -11q0 -5 3 -8l8 -8v0l5 -4v0v-1v0l10 -10v0q6 -6 14 -6t14 6l10 10v0v0v0l5 5v0l8 8v0q3 3 3 8q-1 10 -11 11h-12h-6v0v0h-22v0v0v0h-6h-12zM96 169q1 -15 16 -16h32v0q20 1 34 14q13 14 14 34q-1 15 -16 16h-32v0q-20 -1 -34 -14q-13 -14 -14 -34v0zM336 153
q15 1 16 16q-1 20 -14 34q-14 13 -34 14h-32v0q-15 -1 -16 -16q1 -20 14 -34q14 -13 34 -14h32v0z" />
</svg>
