<?xml version="1.0" standalone="no"?>
<!DOCTYPE svg PUBLIC "-//W3C//DTD SVG 1.1//EN" "http://www.w3.org/Graphics/SVG/1.1/DTD/svg11.dtd" >
<svg xmlns="http://www.w3.org/2000/svg" xmlns:xlink="http://www.w3.org/1999/xlink" version="1.1" viewBox="-10 -40 532 512">
   <path fill="currentColor"
d="M349 -7q55 0 94 37q37 39 37 94q0 34 -15 68q-14 34 -43 63q-53 52 -117 57q-63 6 -108 -36q-37 -39 -37 -94q0 -34 15 -68q14 -34 43 -63t63 -43q34 -15 68 -15v0zM349 -39q-41 0 -81 17v0v0q-40 17 -73 50t-50 73t-17 81q0 43 20 81q12 24 -5 44l-12 12v0l-4 -5v0
q-10 -9 -23 -9t-23 9l-72 72v0q-9 10 -9 23t9 23l32 32v0q10 9 23 9t23 -9l72 -72v0q9 -10 9 -23t-9 -23l-5 -4v0l12 -12v0q20 -17 44 -5q56 29 121 16q64 -14 114 -63q33 -33 50 -73t17 -81q0 -67 -47 -117q-49 -47 -116 -46v0zM104 337l32 32l-32 -32l32 32l-72 72v0
l-32 -32v0l72 -72v0z" />
</svg>
