<?xml version="1.0" standalone="no"?>
<!DOCTYPE svg PUBLIC "-//W3C//DTD SVG 1.1//EN" "http://www.w3.org/Graphics/SVG/1.1/DTD/svg11.dtd" >
<svg xmlns="http://www.w3.org/2000/svg" xmlns:xlink="http://www.w3.org/1999/xlink" version="1.1" viewBox="-10 -40 532 512">
   <path fill="currentColor"
d="M242 -39q-19 1 -29 18l-121 242v0l-19 19v0l-40 40v0q-32 33 -33 80q1 48 33 80t80 33q47 -1 80 -33l40 -40v0l19 -19v0l242 -121v0q17 -9 18 -29v-46v0q0 -14 -9 -23t-23 -9h-56v0v-72v0q0 -14 -9 -23t-23 -9h-72v0v-56v0q0 -14 -9 -23t-23 -9h-46v0zM309 317l-76 37
l76 -37l-76 37v0v0l-46 -46v0l78 -77v0l103 -32v0l-59 118v0zM357 293l53 -108l-53 108l53 -108v0v0h70v0v46v0l-123 62v0zM288 63v0v0v0l-108 54v0l62 -124v0h46v0v70v0zM274 106l-32 103l32 -103l-32 103l-77 77v0l-46 -46v0v0v0l37 -76v0l118 -58v0zM281 193l35 -112
l-35 112l35 -112h76v0v76v0l-111 36v0zM62 296l34 -34l-34 34l34 -34l115 115v0l-34 34v0l-115 -115v0zM152 431q-18 10 -39 10q-34 -1 -57 -24t-24 -57q0 -21 10 -39l110 110v0z" />
</svg>
