<?xml version="1.0" standalone="no"?>
<!DOCTYPE svg PUBLIC "-//W3C//DTD SVG 1.1//EN" "http://www.w3.org/Graphics/SVG/1.1/DTD/svg11.dtd" >
<svg xmlns="http://www.w3.org/2000/svg" xmlns:xlink="http://www.w3.org/1999/xlink" version="1.1" viewBox="-10 -40 522 512">
   <path fill="currentColor"
d="M211 0q5 -17 20 -28v0v0q14 -11 33 -11t33 11q15 11 20 28q12 -7 27 -7q24 1 40 16q15 16 16 40v13v0q11 -5 24 -5q24 1 40 16q15 16 16 40v184v0q-2 75 -52 124q-49 50 -124 52h-8v0q-50 0 -95 -19q-46 -19 -81 -54l-104 -103v0q-16 -18 -16 -40t16 -40q18 -16 40 -16
t40 16l32 33v0v-201v0q1 -24 16 -40q16 -15 40 -16q15 0 27 7v0zM208 49q-2 -22 -24 -24q-22 2 -24 24v239v0q0 11 -10 15t-17 -3l-60 -60v0q-17 -14 -34 0q-14 17 0 34l104 104v0q31 30 70 47q39 16 83 16h8v0q61 -2 102 -42q40 -41 42 -102v-184v0q-2 -22 -24 -24
q-22 2 -24 24v88v0q-1 15 -16 16q-15 -1 -16 -16v-88v0v0v0v-64v0q-2 -22 -24 -24q-22 2 -24 24v152v0q-1 15 -16 16q-15 -1 -16 -16v-152v0v0v0v-32v0q-2 -22 -24 -24q-22 2 -24 24v24v0v0v0v160v0q-1 15 -16 16q-15 -1 -16 -16v-152v0v0v0zM240 281q1 -15 16 -16
q15 1 16 16q-1 15 -16 16q-15 -1 -16 -16v0zM288 329q1 -15 16 -16q15 1 16 16q-1 15 -16 16q-15 -1 -16 -16v0zM368 265q15 1 16 16q-1 15 -16 16q-15 -1 -16 -16q1 -15 16 -16v0zM320 377q1 -15 16 -16q15 1 16 16q-1 15 -16 16q-15 -1 -16 -16v0zM256 361q15 1 16 16
q-1 15 -16 16q-15 -1 -16 -16q1 -15 16 -16v0zM176 329q1 -15 16 -16q15 1 16 16q-1 15 -16 16q-15 -1 -16 -16v0z" />
</svg>
