<?xml version="1.0" standalone="no"?>
<!DOCTYPE svg PUBLIC "-//W3C//DTD SVG 1.1//EN" "http://www.w3.org/Graphics/SVG/1.1/DTD/svg11.dtd" >
<svg xmlns="http://www.w3.org/2000/svg" xmlns:xlink="http://www.w3.org/1999/xlink" version="1.1" viewBox="-10 -40 468 512">
   <path fill="currentColor"
d="M240 25h102h-102h102q21 1 30 19l34 77v0h-166v0v-96v0zM240 153h176h-176h176v224v0q0 14 -9 23t-23 9h-320v0q-14 0 -23 -9t-9 -23v-224v0h176h32zM208 121h-166h166h-166l34 -77v0q9 -18 30 -19h102v0v96v0zM401 31q-18 -36 -59 -38h-236v0q-41 2 -59 38l-41 94v0
q-6 12 -6 26v226v0q1 27 19 45t45 19h320v0q27 -1 45 -19t19 -45v-226v0q0 -14 -5 -26l-42 -94v0zM331 212q10 -11 0 -22q-11 -10 -22 0l-117 116v0l-53 -52v0q-11 -10 -22 0q-10 11 0 22l64 64v0q11 10 22 0l128 -128v0z" />
</svg>
