<?xml version="1.0" standalone="no"?>
<!DOCTYPE svg PUBLIC "-//W3C//DTD SVG 1.1//EN" "http://www.w3.org/Graphics/SVG/1.1/DTD/svg11.dtd" >
<svg xmlns="http://www.w3.org/2000/svg" xmlns:xlink="http://www.w3.org/1999/xlink" version="1.1" viewBox="-10 -40 596 512">
   <path fill="currentColor"
d="M384 -7q14 0 23 9v0v0q9 9 9 23v128v0h32v0v-128v0q-1 -27 -19 -45t-45 -19h-64h-128q-27 1 -45 19t-19 45v128v0h32v0v-128v0q0 -14 9 -23t23 -9h32v0v56v0q0 17 12 28q11 12 28 12h48v0q17 0 28 -12q12 -11 12 -28v-56v0h32v0zM256 -7h64h-64h64v56v0q-1 7 -8 8h-48v0
q-7 -1 -8 -8v-56v0zM328 473h184h-184h184q27 -1 45 -19t19 -45v-160v0q-1 -27 -19 -45t-45 -19h-64h-120q12 14 19 32h5v0v32v0v0v0v24v0q0 17 12 28q11 12 28 12h48v0q17 0 28 -12q12 -11 12 -28v-56v0h32v0q14 0 23 9t9 23v160v0q0 14 -9 23t-23 9h-165v0q-7 18 -19 32v0
zM384 217h64h-64h64v56v0q-1 7 -8 8h-48v0q-7 -1 -8 -8v-56v0zM256 217q14 0 23 9v0v0q9 9 9 23v160v0q0 14 -9 23t-23 9h-192v0q-14 0 -23 -9t-9 -23v-160v0q0 -14 9 -23t23 -9h32v0v56v0q0 17 12 28q11 12 28 12h48v0q17 0 28 -12q12 -11 12 -28v-56v0h32v0zM128 273v-56
v56v-56h64v0v56v0q-1 7 -8 8h-48v0q-7 -1 -8 -8v0zM256 185h-32h32h-192q-27 1 -45 19t-19 45v160v0q1 27 19 45t45 19h192v0q27 -1 45 -19t19 -45v-160v0q-1 -27 -19 -45t-45 -19v0z" />
</svg>
