<?xml version="1.0" standalone="no"?>
<!DOCTYPE svg PUBLIC "-//W3C//DTD SVG 1.1//EN" "http://www.w3.org/Graphics/SVG/1.1/DTD/svg11.dtd" >
<svg xmlns="http://www.w3.org/2000/svg" xmlns:xlink="http://www.w3.org/1999/xlink" version="1.1" viewBox="-10 -40 596 512">
   <path fill="currentColor"
d="M32 201h160h-160h160v-96v0q-1 -34 -23 -57q-23 -22 -57 -23q-34 1 -57 23q-22 23 -23 57v96v0zM0 217v-112v112v-112q1 -48 33 -79q31 -32 79 -33q48 1 79 33q32 31 33 79v24v0q5 -50 47 -83q40 -27 84 -19t72 47l129 188v0q26 40 18 85q-7 45 -46 74q-39 27 -83 19
q-45 -8 -73 -47l-128 -188v0q-17 -25 -20 -54v66v0v112v0q-1 48 -33 79q-31 32 -79 33q-48 -1 -79 -33q-32 -31 -33 -79v-112v0zM192 233h-160h160h-160v96v0q1 34 23 57q23 22 57 23q34 -1 57 -23q22 -23 23 -57v-96v0zM399 375q20 28 51 33v0v0q31 6 60 -13q27 -21 33 -54
q5 -32 -14 -61l-52 -77v0l-3 1v0l-130 92v0l55 79v0zM456 178l3 -1l-3 1l3 -1l-58 -85v0q-20 -28 -52 -33q-31 -6 -59 13q-28 21 -33 53q-6 33 13 62l56 82v0l130 -91v0z" />
</svg>
