<?xml version="1.0" standalone="no"?>
<!DOCTYPE svg PUBLIC "-//W3C//DTD SVG 1.1//EN" "http://www.w3.org/Graphics/SVG/1.1/DTD/svg11.dtd" >
<svg xmlns="http://www.w3.org/2000/svg" xmlns:xlink="http://www.w3.org/1999/xlink" version="1.1" viewBox="-10 -40 404 512">
   <path fill="currentColor"
d="M320 441h-256h256h-256q-14 0 -23 -9t-9 -23v-384v0q0 -14 9 -23t23 -9h128v0v112v0q1 20 14 34q14 13 34 14h112v0v256v0q0 14 -9 23t-23 9v0zM240 121q-15 -1 -16 -16v-111v0q4 1 7 4l116 116v0q3 3 5 7h-112v0zM64 -39q-27 1 -45 19v0v0q-18 18 -19 45v384v0
q1 27 19 45t45 19h256v0q27 -1 45 -19t19 -45v-284v0q0 -20 -14 -34l-116 -116v0q-14 -14 -34 -14h-156v0zM176 185q-14 0 -23 9v0v0q-9 9 -9 23v32v0h-32v0q-14 0 -23 9t-9 23v32v0q0 14 9 23t23 9h32v0v32v0q0 14 9 23t23 9h32v0q14 0 23 -9t9 -23v-32v0h32v0q14 0 23 -9
t9 -23v-32v0q0 -14 -9 -23t-23 -9h-32v0v-32v0q0 -14 -9 -23t-23 -9h-32v0zM176 265v-48v48v-48h32v0v48v0q1 15 16 16h48v0v32v0h-48v0q-15 1 -16 16v48v0h-32v0v-48v0q-1 -15 -16 -16h-48v0v-32v0h48v0q7 0 11 -5q5 -4 5 -11v0z" />
</svg>
