<?xml version="1.0" standalone="no"?>
<!DOCTYPE svg PUBLIC "-//W3C//DTD SVG 1.1//EN" "http://www.w3.org/Graphics/SVG/1.1/DTD/svg11.dtd" >
<svg xmlns="http://www.w3.org/2000/svg" xmlns:xlink="http://www.w3.org/1999/xlink" version="1.1" viewBox="-10 -40 660 512">
   <path fill="currentColor"
d="M16 313q-15 1 -16 16q1 15 16 16h48v0v96v0h-48v0q-15 1 -16 16q1 15 16 16h64h544q15 -1 16 -16q-1 -15 -16 -16h-48v0v-96v0h48v0q15 -1 16 -16q-1 -15 -16 -16h-64h-544zM96 345h208h-208h208v96v0h-208v0v-96v0zM336 345h208h-208h208v96v0h-208v0v-96v0z" />
</svg>
