<?xml version="1.0" standalone="no"?>
<!DOCTYPE svg PUBLIC "-//W3C//DTD SVG 1.1//EN" "http://www.w3.org/Graphics/SVG/1.1/DTD/svg11.dtd" >
<svg xmlns="http://www.w3.org/2000/svg" xmlns:xlink="http://www.w3.org/1999/xlink" version="1.1" viewBox="-10 -40 596 512">
   <path fill="currentColor"
d="M112 25q34 1 57 23v0v0q22 23 23 57v112v0h-160v0v-112v0q1 -34 23 -57q23 -22 57 -23v0zM32 329v-80v80v-80h160v0v80v0q-1 34 -23 57q-23 22 -57 23q-34 -1 -57 -23q-22 -23 -23 -57v0zM0 105v224v-224v224q1 48 33 79q31 32 79 33q48 -1 79 -33q32 -31 33 -79v-224v0
q-1 -48 -33 -79q-31 -32 -79 -33q-48 1 -79 33q-32 31 -33 79v0zM416 409q-54 -1 -91 -37v0v0q-36 -37 -37 -91q1 -45 27 -78l180 179v0q-34 26 -79 27v0zM338 180q33 -26 78 -27q54 1 91 37q36 37 37 91q-1 45 -27 79l-179 -180v0zM416 441q43 0 80 -21v0v0q37 -22 59 -59
q21 -38 21 -80t-21 -80q-22 -37 -59 -59q-37 -21 -80 -21t-80 21q-37 22 -59 59q-21 38 -21 80t21 80q22 37 59 59q37 21 80 21v0z" />
</svg>
