<?xml version="1.0" standalone="no"?>
<!DOCTYPE svg PUBLIC "-//W3C//DTD SVG 1.1//EN" "http://www.w3.org/Graphics/SVG/1.1/DTD/svg11.dtd" >
<svg xmlns="http://www.w3.org/2000/svg" xmlns:xlink="http://www.w3.org/1999/xlink" version="1.1" viewBox="-10 -40 661 512">
   <path fill="currentColor"
d="M604 222q-5 6 -11 12t-12 11q-49 39 -109 36q-59 -3 -105 -47q-44 -46 -47 -105q-3 -60 36 -109q5 -6 11 -12t12 -11q49 -39 108 -36q60 3 106 47q44 46 47 106q3 59 -36 108v0zM571 31q-37 -35 -83 -38v0v0q-47 -2 -86 27l179 180v0q29 -40 27 -86q-3 -47 -37 -83v0z
M559 222l-180 -179l180 179l-180 -179q-29 39 -27 86q3 46 38 83q36 34 82 37q47 2 87 -27v0zM319 297q1 8 1 16t-1 16q-7 62 -51 102q-44 41 -108 42q-64 -1 -108 -42q-44 -40 -51 -102q-1 -8 -1 -16t1 -16q7 -62 51 -102q44 -41 108 -42q64 1 108 42q44 40 51 102v0z
M160 185q-50 1 -85 32v0v0q-35 32 -42 80h254v0q-7 -48 -42 -80q-35 -31 -85 -32v0zM160 441q50 -1 85 -32v0v0q35 -32 42 -80h-254v0q7 48 42 80q35 31 85 32v0z" />
</svg>
