<?xml version="1.0" standalone="no"?>
<!DOCTYPE svg PUBLIC "-//W3C//DTD SVG 1.1//EN" "http://www.w3.org/Graphics/SVG/1.1/DTD/svg11.dtd" >
<svg xmlns="http://www.w3.org/2000/svg" xmlns:xlink="http://www.w3.org/1999/xlink" version="1.1" viewBox="-10 -40 532 512">
   <path fill="currentColor"
d="M112 137q0 -39 19 -72v0v0q19 -33 53 -53q34 -19 72 -19t72 19q34 20 53 53t19 72t-19 72t-53 53q-34 19 -72 19t-72 -19q-34 -20 -53 -53t-19 -72v0zM432 137q0 -44 -19 -80h35v0q14 0 23 9t9 23v320v0q0 14 -9 23t-23 9h-384v0q-14 0 -23 -9t-9 -23v-320v0q0 -14 9 -23
t23 -9h35v0q-19 36 -19 80q2 75 52 124q49 50 124 52q75 -2 124 -52q50 -49 52 -124v0zM392 25q-25 -30 -60 -47v0v0q-35 -17 -76 -17t-76 17t-60 47h-56v0q-27 1 -45 19t-19 45v320v0q1 27 19 45t45 19h384v0q27 -1 45 -19t19 -45v-320v0q-1 -27 -19 -45t-45 -19h-56v0z
M320 185q-1 -32 -25 -51l24 -55v0q4 -14 -9 -21q-14 -4 -21 9l-23 55v0q-5 -1 -10 -1q-27 1 -45 19t-19 45q1 27 19 45t45 19q27 -1 45 -19t19 -45v0zM256 153q14 0 23 9v0v0q9 9 9 23t-9 23t-23 9t-23 -9t-9 -23t9 -23t23 -9v0z" />
</svg>
