<?xml version="1.0" standalone="no"?>
<!DOCTYPE svg PUBLIC "-//W3C//DTD SVG 1.1//EN" "http://www.w3.org/Graphics/SVG/1.1/DTD/svg11.dtd" >
<svg xmlns="http://www.w3.org/2000/svg" xmlns:xlink="http://www.w3.org/1999/xlink" version="1.1" viewBox="-10 -40 532 512">
   <path fill="currentColor"
d="M0 9q1 -15 16 -16h32h448q15 1 16 16q-1 15 -16 16h-16v0v384v0h16v0q15 1 16 16q-1 15 -16 16h-32h-448q-15 -1 -16 -16q1 -15 16 -16h16v0v-384v0h-16v0q-15 -1 -16 -16v0zM64 25v384v-384v384h384v0v-384v0h-384v0zM256 57q15 1 16 16v32v0h64v0q15 1 16 16
q-1 15 -16 16h-64v0v32v0h96v0q15 1 16 16q-1 15 -16 16h-96v0v54v0l45 -18v0q11 -4 22 -4h2v0q25 1 42 17q16 17 17 42q0 20 -12 36l-19 23v0q-20 25 -53 26h-120v0q-33 -1 -53 -26l-18 -23v0q-13 -16 -13 -36q1 -25 17 -42q17 -16 42 -17h2v0q11 0 22 4l45 18v0v-54v0h-96
v0q-15 -1 -16 -16q1 -15 16 -16h96v0v-32v0h-64v0q-15 -1 -16 -16q1 -15 16 -16h64v0v-32v0q1 -15 16 -16v0zM144 292q0 9 6 16l18 24v0q11 13 28 13h120v0q17 0 28 -13l18 -24v0q6 -7 6 -16q0 -12 -8 -19q-7 -8 -19 -8h-2v0q-5 0 -10 2l-56 21v0q-17 7 -34 0l-55 -21v0
q-6 -2 -11 -2h-2v0q-25 2 -27 27v0zM192 313q1 -15 16 -16q15 1 16 16q-1 15 -16 16q-15 -1 -16 -16v0zM304 297q15 1 16 16q-1 15 -16 16q-15 -1 -16 -16q1 -15 16 -16v0z" />
</svg>
