<?xml version="1.0" standalone="no"?>
<!DOCTYPE svg PUBLIC "-//W3C//DTD SVG 1.1//EN" "http://www.w3.org/Graphics/SVG/1.1/DTD/svg11.dtd" >
<svg xmlns="http://www.w3.org/2000/svg" xmlns:xlink="http://www.w3.org/1999/xlink" version="1.1" viewBox="-10 -40 468 512">
   <path fill="currentColor"
d="M0 25q1 -27 19 -45v0v0q18 -18 45 -19h336v0q20 1 34 14q13 14 14 34v320v0q-2 33 -32 45v67v0h16v0q15 1 16 16q-1 15 -16 16h-368v0q-27 -1 -45 -19t-19 -45v0v0v-384v0zM64 377q-14 0 -23 9v0v0q-9 9 -9 23t9 23t23 9h320v0v-64v0h-320v0zM32 354q14 -9 32 -9h336v0
q15 -1 16 -16v-320v0q-1 -15 -16 -16h-336v0q-14 0 -23 9t-9 23v329v0zM160 134q0 12 9 21l71 71v0l71 -71v0q9 -9 9 -21t-9 -20q-8 -9 -20 -9t-21 9l-19 18v0q-11 10 -22 0l-19 -18v0q-9 -9 -21 -9t-20 9q-9 8 -9 20v0zM189 73q25 0 44 18l7 7v0l7 -7v0q19 -18 44 -18
q26 1 43 18t18 43q0 25 -18 44l-83 82v0q-11 10 -22 0l-83 -82v0q-17 -19 -18 -44q1 -26 18 -43t43 -18v0z" />
</svg>
