<?xml version="1.0" standalone="no"?>
<!DOCTYPE svg PUBLIC "-//W3C//DTD SVG 1.1//EN" "http://www.w3.org/Graphics/SVG/1.1/DTD/svg11.dtd" >
<svg xmlns="http://www.w3.org/2000/svg" xmlns:xlink="http://www.w3.org/1999/xlink" version="1.1" viewBox="-10 -40 468 512">
   <path fill="currentColor"
d="M64 25q-14 0 -23 9v0v0q-9 9 -9 23v320v0q0 14 9 23t23 9h320v0q14 0 23 -9t9 -23v-320v0q0 -14 -9 -23t-23 -9h-320v0zM0 57q1 -27 19 -45v0v0q18 -18 45 -19h320v0q27 1 45 19t19 45v320v0q-1 27 -19 45t-45 19h-320v0q-27 -1 -45 -19t-19 -45v-320v0zM144 89v80v-80
v80q1 34 23 57q23 22 57 23q34 -1 57 -23q22 -23 23 -57v-80v0h-73v0l20 21v0q6 5 5 13q-1 7 -7 11l-30 20v0l31 27v0q11 10 2 22q-10 11 -22 2l-48 -40v0q-6 -5 -6 -13q1 -8 7 -12l32 -22v0l-30 -29v0h-41v0zM143 57h162h-162h162q13 0 22 9t9 22v81v0q-1 43 -28 74
q-26 30 -68 37v65v0h32v0q15 1 16 16q-1 15 -16 16h-96v0q-15 -1 -16 -16q1 -15 16 -16h32v0v-65v0q-42 -7 -68 -37q-27 -31 -28 -74v-81v0q0 -13 9 -22t22 -9v0z" />
</svg>
