<?xml version="1.0" standalone="no"?>
<!DOCTYPE svg PUBLIC "-//W3C//DTD SVG 1.1//EN" "http://www.w3.org/Graphics/SVG/1.1/DTD/svg11.dtd" >
<svg xmlns="http://www.w3.org/2000/svg" xmlns:xlink="http://www.w3.org/1999/xlink" version="1.1" viewBox="-10 -40 532 512">
   <path fill="currentColor"
d="M192 377q0 -14 -9 -23v0v0q-9 -9 -23 -9h-96v0q-14 0 -23 -9t-9 -23v-288v0q0 -14 9 -23t23 -9h384v0q14 0 23 9t9 23v288v0q0 14 -9 23t-23 9h-139v0q-10 0 -19 6l-98 74v0v-48v0zM64 -39q-27 1 -45 19v0v0q-18 18 -19 45v288v0q1 27 19 45t45 19h64h32v32v0v48v0
q0 10 9 14t17 -1l123 -93v0h139v0q27 -1 45 -19t19 -45v-288v0q-1 -27 -19 -45t-45 -19h-384v0zM316 109q8 9 0 18l-8 8v0l-18 -18v0l9 -8v0q8 -8 17 0v0zM207 200l61 -61l-61 61l61 -61l18 18v0l-61 61v0q-3 3 -8 4l-19 5v0l5 -19v0q1 -5 4 -8v0zM276 86l-92 92l92 -92
l-92 92q-9 9 -12 22l-12 45v0q-1 9 5 15t15 5l45 -12v0q13 -3 22 -12l92 -92v0q13 -14 13 -31q0 -18 -13 -32q-14 -13 -32 -13q-17 0 -31 13v0z" />
</svg>
