<?xml version="1.0" standalone="no"?>
<!DOCTYPE svg PUBLIC "-//W3C//DTD SVG 1.1//EN" "http://www.w3.org/Graphics/SVG/1.1/DTD/svg11.dtd" >
<svg xmlns="http://www.w3.org/2000/svg" xmlns:xlink="http://www.w3.org/1999/xlink" version="1.1" viewBox="-10 -40 532 512">
   <path fill="currentColor"
d="M256 -7q48 0 88 24v0v0q40 23 64 64q24 42 24 88t-24 88q-24 41 -64 64q-40 24 -88 24t-88 -24q-40 -23 -64 -64q-24 -42 -24 -88t24 -88q24 -41 64 -64q40 -24 88 -24v0zM256 377q57 0 104 -28v0v0q47 -27 76 -76q28 -49 28 -104t-28 -104q-29 -49 -76 -76
q-47 -28 -104 -28t-104 28q-47 27 -76 76q-28 49 -28 104t28 104q29 49 76 76q47 28 104 28v0zM64 313h-8h8h-8q-24 1 -40 16q-15 16 -16 40v48v0q1 24 16 40q16 15 40 16h400v0q24 -1 40 -16q15 -16 16 -40v-48v0q-1 -24 -16 -40q-16 -15 -40 -16h-8v0q-13 17 -29 32h37v0
q22 2 24 24v48v0q-2 22 -24 24h-400v0q-22 -2 -24 -24v-48v0q2 -22 24 -24h37v0q-16 -15 -29 -32v0zM272 65q-1 -15 -16 -16q-15 1 -16 16v17v0q-13 2 -24 9q-22 11 -24 41q3 27 23 37q17 9 35 14v0v0v0v0h1v0q19 5 29 11q8 5 8 12q0 9 -8 14q-9 5 -24 5q-16 -1 -36 -9v0v0
v0v0v0v0v0q-3 -1 -7 -2q-14 -3 -20 10q-4 14 10 20l6 2v0v0v0q14 6 31 9v18v0q1 15 16 16q15 -1 16 -16v-17v0q13 -2 25 -9q22 -13 23 -42q-2 -27 -23 -38q-18 -10 -36 -15v0v0v0v0v0v0q-19 -5 -30 -11q-8 -5 -7 -10q0 -8 8 -13q10 -5 24 -5q15 1 32 5q14 3 19 -11
q3 -14 -11 -20q-11 -3 -24 -5v-17v0z" />
</svg>
