<?xml version="1.0" standalone="no"?>
<!DOCTYPE svg PUBLIC "-//W3C//DTD SVG 1.1//EN" "http://www.w3.org/Graphics/SVG/1.1/DTD/svg11.dtd" >
<svg xmlns="http://www.w3.org/2000/svg" xmlns:xlink="http://www.w3.org/1999/xlink" version="1.1" viewBox="-10 -40 596 512">
   <path fill="currentColor"
d="M125 -39h19h-19h19q68 2 113 47t47 113v96v0q-1 15 -16 16q-15 -1 -16 -16v-80v0h-29v0q-63 -2 -104 -43t-43 -104q0 -12 9 -20q8 -9 20 -9v0zM144 -7h-16h16h-16q2 48 35 79q32 32 80 33h28v0q-7 -48 -42 -80q-35 -31 -85 -32v0zM336 137v-16v16v-16q0 -8 -1 -16
q48 -2 79 -33q32 -32 34 -79h-16v0q-35 0 -63 16q-28 17 -45 44q-7 -17 -16 -33q22 -27 54 -43t70 -16h19v0q12 0 20 9q9 8 9 20q-2 62 -42 103q-41 41 -102 44v0zM151 278q20 -13 44 -13h149v0q24 1 40 16q15 16 16 40q0 13 -5 24h5v0l95 -56v0q13 -8 27 -8h2v0q22 1 37 15
q14 15 15 37q-1 28 -24 44l-119 78v0q-28 18 -61 18h-356v0q-15 -1 -16 -16q1 -15 16 -16h356v0q23 0 43 -13l120 -78v0q9 -6 9 -17q-2 -18 -20 -20h-2v0q-6 0 -11 3l-98 59v0q-4 2 -8 2h-61h-88q-15 -1 -16 -16q1 -15 16 -16h64h24q22 -2 24 -24q-2 -22 -24 -24h-149v0
q-14 0 -26 8l-80 53v0q-4 3 -9 3h-64v0q-15 -1 -16 -16q1 -15 16 -16h59v0l76 -51v0z" />
</svg>
