<?xml version="1.0" standalone="no"?>
<!DOCTYPE svg PUBLIC "-//W3C//DTD SVG 1.1//EN" "http://www.w3.org/Graphics/SVG/1.1/DTD/svg11.dtd" >
<svg xmlns="http://www.w3.org/2000/svg" xmlns:xlink="http://www.w3.org/1999/xlink" version="1.1" viewBox="-10 -40 660 512">
   <path fill="currentColor"
d="M196 -10q22 -21 50 -22v0v0q28 -2 51 17q8 7 15 15q1 1 2 1q0 1 1 2q3 2 5 5q2 -2 3 -4q2 -1 3 -3q8 -8 17 -16q23 -19 51 -17q28 1 50 22q22 23 22 54q0 30 -22 54l-101 103v0q-10 10 -23 10t-22 -10l-102 -103v0q-22 -24 -22 -54q0 -31 22 -54v0zM280 12
q-14 -12 -31 -12v0v0q-17 0 -30 12q-13 14 -13 32t13 32l101 102v0l101 -103v0q13 -13 13 -31t-13 -32q-13 -13 -30 -13t-30 13l-30 30v0q-11 10 -22 0l-29 -30v0zM64 25q27 1 45 19v0v0q18 18 19 45v124v0q0 7 1 14q3 -5 8 -9q17 -17 39 -17t39 17l92 91v0q7 8 13 17
q6 -9 13 -17l92 -91v0q17 -17 39 -17t39 17q5 4 8 9q1 -7 1 -14v-124v0q1 -27 19 -45t45 -19q27 1 45 19t19 45v216v0q-1 46 -33 79l-84 84v0q-11 10 -22 0q-10 -11 0 -22l84 -84v0q23 -24 23 -57v-216v0q0 -14 -9 -23t-23 -9t-23 9t-9 23v124v0q-1 42 -30 73l-11 10v0
l-44 44v0l-16 16v0q-11 10 -22 0q-10 -11 0 -22l16 -16v0v0v0l44 -44v0v0v0q14 -17 0 -34q-17 -13 -34 0l-91 92v0q-20 20 -20 48v77v0q-1 15 -16 16q-15 -1 -16 -16v-77v0q0 -28 -20 -48l-91 -92v0q-17 -14 -34 0q-13 17 0 34l44 44v0l16 16v0q10 11 0 22q-11 10 -22 0
l-16 -16v0v0v0l-44 -44v0v0v0l-11 -10v0q-29 -31 -30 -73v-124v0q0 -14 -9 -23t-23 -9t-23 9t-9 23v216v0q0 33 23 57l84 84v0q10 11 0 22q-11 10 -22 0l-84 -84v0q-32 -33 -33 -79v-216v0q1 -27 19 -45t45 -19v0z" />
</svg>
