<?xml version="1.0" standalone="no"?>
<!DOCTYPE svg PUBLIC "-//W3C//DTD SVG 1.1//EN" "http://www.w3.org/Graphics/SVG/1.1/DTD/svg11.dtd" >
<svg xmlns="http://www.w3.org/2000/svg" xmlns:xlink="http://www.w3.org/1999/xlink" version="1.1" viewBox="-10 -40 660 512">
   <path fill="currentColor"
d="M320 -39q15 1 16 16v17v0q17 2 31 6q14 5 11 20q-5 14 -19 11q-19 -5 -35 -6q-15 0 -26 6q-10 6 -10 16q-1 7 9 13q11 7 32 12v0v0q20 6 39 17q22 11 24 40q-1 31 -24 45q-15 9 -32 11v16v0q-1 15 -16 16q-15 -1 -16 -16v-19v0q-17 -4 -30 -9q-4 -1 -7 -2q-14 -6 -10 -21
q6 -13 20 -10q4 2 8 3v0v0v0v0v0v0v0q21 8 40 10q15 0 26 -6q9 -5 9 -17q0 -9 -9 -15q-12 -7 -32 -12l-2 -1v0v0q-19 -5 -37 -15q-22 -11 -24 -40q2 -31 25 -43q11 -7 23 -9v-18v0q1 -15 16 -16v0zM64 25q27 1 45 19v0v0q18 18 19 45v124v0q0 7 1 14q3 -5 8 -9
q17 -17 39 -17t39 17l92 91v0q7 8 13 17q6 -9 13 -17l92 -91v0q17 -17 39 -17t39 17q5 4 8 9q1 -7 1 -14v-124v0q1 -27 19 -45t45 -19q27 1 45 19t19 45v216v0q-1 46 -33 79l-84 84v0q-11 10 -22 0q-10 -11 0 -22l84 -84v0q23 -24 23 -57v-216v0q0 -14 -9 -23t-23 -9t-23 9
t-9 23v124v0q-1 42 -30 73l-11 10v0l-44 44v0l-16 16v0q-11 10 -22 0q-10 -11 0 -22l16 -16v0v0v0l44 -44v0v0v0q14 -17 0 -34q-17 -13 -34 0l-91 92v0q-20 20 -20 48v77v0q-1 15 -16 16q-15 -1 -16 -16v-77v0q0 -28 -20 -48l-91 -92v0q-17 -14 -34 0q-13 17 0 34l44 44v0
l16 16v0q10 11 0 22q-11 10 -22 0l-16 -16v0v0v0l-44 -44v0v0v0l-11 -10v0q-29 -31 -30 -73v-124v0q0 -14 -9 -23t-23 -9t-23 9t-9 23v216v0q0 33 23 57l84 84v0q10 11 0 22q-11 10 -22 0l-84 -84v0q-32 -33 -33 -79v-216v0q1 -27 19 -45t45 -19v0z" />
</svg>
