<?xml version="1.0" standalone="no"?>
<!DOCTYPE svg PUBLIC "-//W3C//DTD SVG 1.1//EN" "http://www.w3.org/Graphics/SVG/1.1/DTD/svg11.dtd" >
<svg xmlns="http://www.w3.org/2000/svg" xmlns:xlink="http://www.w3.org/1999/xlink" version="1.1" viewBox="-10 -40 468 512">
   <path fill="currentColor"
d="M64 25q-14 0 -23 9v0v0q-9 9 -9 23v320v0q0 14 9 23t23 9h320v0q14 0 23 -9t9 -23v-320v0q0 -14 -9 -23t-23 -9h-320v0zM0 57q1 -27 19 -45v0v0q18 -18 45 -19h320v0q27 1 45 19t19 45v320v0q-1 27 -19 45t-45 19h-320v0q-27 -1 -45 -19t-19 -45v-320v0zM100 126
q22 -21 50 -22v0v0q28 -2 51 17q8 7 15 15q1 1 2 1q0 1 1 2q3 2 5 5q2 -2 3 -4q2 -1 3 -3q8 -8 17 -16q23 -19 51 -17q28 1 50 22q22 23 22 54q0 30 -22 54l-101 103v0q-10 10 -23 10t-22 -10l-102 -103v0q-22 -24 -22 -54q0 -31 22 -54v0zM184 148q-14 -12 -31 -12v0v0
q-17 0 -30 12q-13 14 -13 32t13 32l101 102v0l101 -103v0q13 -13 13 -31t-13 -32q-13 -13 -30 -13t-30 13l-30 30v0q-11 10 -22 0l-30 -30h1z" />
</svg>
