<?xml version="1.0" standalone="no"?>
<!DOCTYPE svg PUBLIC "-//W3C//DTD SVG 1.1//EN" "http://www.w3.org/Graphics/SVG/1.1/DTD/svg11.dtd" >
<svg xmlns="http://www.w3.org/2000/svg" xmlns:xlink="http://www.w3.org/1999/xlink" version="1.1" viewBox="-11 0 598 512">
   <path fill="currentColor"
d="M299 -35q-11 -8 -22 0l-272 240v0q-10 11 -1 23q11 10 23 1l37 -33v0v197v0q1 34 23 57q23 22 57 23h288v0q34 -1 57 -23q22 -23 23 -57v-197v0l37 33v0q12 9 23 -1q9 -12 -1 -23l-272 -240v0zM96 393v-225v225v-225l192 -170v0l192 170v0v225v0q-1 20 -14 34
q-14 13 -34 14h-288v0q-20 -1 -34 -14q-13 -14 -14 -34v0zM208 246q0 -12 9 -20v0v0q8 -9 20 -9t21 9l19 18v0q11 10 22 0l19 -18v0q9 -9 21 -9t20 9q9 8 9 20t-9 21l-71 71v0l-71 -71v0q-9 -9 -9 -21v0zM237 185q-26 1 -43 18v0v0q-17 17 -18 43q0 25 18 44l83 82v0
q11 10 22 0l83 -82v0q17 -19 18 -44q-1 -26 -18 -43t-44 -18q-25 0 -43 18l-7 7v0l-8 -7v0q-18 -18 -43 -18v0z" />
</svg>
