<?xml version="1.0" standalone="no"?>
<!DOCTYPE svg PUBLIC "-//W3C//DTD SVG 1.1//EN" "http://www.w3.org/Graphics/SVG/1.1/DTD/svg11.dtd" >
<svg xmlns="http://www.w3.org/2000/svg" xmlns:xlink="http://www.w3.org/1999/xlink" version="1.1" viewBox="-10 -40 596 512">
   <path fill="currentColor"
d="M272 -7q27 0 47 15v0v0q20 15 29 38q6 14 20 10q13 -6 10 -20q-12 -34 -41 -54q-28 -20 -65 -21q-42 1 -73 27q-30 26 -37 66q-2 15 13 19q14 1 18 -13q5 -29 27 -48q22 -18 52 -19v0zM55 151q13 -8 7 -21q-7 -13 -21 -7l-5 2v0q-35 19 -36 59q1 27 19 45q18 19 45 20v0
v0q0 40 17 73q18 33 47 55v48v0q1 20 14 34q14 13 34 14h32v0q20 -1 34 -14q13 -14 14 -34v-16v0h64v0v16v0q1 20 14 34q14 13 34 14h32v0q20 -1 34 -14q13 -14 14 -34v-29v0q39 -17 64 -51h32v0q14 0 23 -9t9 -23v-96v0q0 -14 -9 -23t-23 -9h-13v0q-17 -37 -49 -62l8 -25v0
q3 -16 -6 -28t-25 -13h-3v0q-47 1 -78 32h-154v0q-59 1 -102 37q-43 35 -55 91h-2v0q-14 0 -23 -10q-10 -9 -10 -23q1 -21 19 -30l4 -3v0zM424 249q22 -2 24 -24q-2 -22 -24 -24q-22 2 -24 24q2 22 24 24v0zM396 116q23 -26 60 -27h3v0l-10 36v0q-3 11 6 18q35 23 50 63
q4 10 15 11h24v0v96v0h-40v0q-9 0 -13 7q-24 35 -64 50q-10 4 -11 15v40v0q-1 15 -16 16h-32v0q-15 -1 -16 -16v-32v0q-1 -15 -16 -16h-96v0q-15 1 -16 16v32v0q-1 15 -16 16h-32v0q-15 -1 -16 -16v-56v0q0 -9 -7 -13q-26 -18 -41 -46q-16 -27 -16 -61q1 -54 37 -91
q37 -36 91 -37h160v0v0v0v0v0q8 0 12 -5v0z" />
</svg>
