<?xml version="1.0" standalone="no"?>
<!DOCTYPE svg PUBLIC "-//W3C//DTD SVG 1.1//EN" "http://www.w3.org/Graphics/SVG/1.1/DTD/svg11.dtd" >
<svg xmlns="http://www.w3.org/2000/svg" xmlns:xlink="http://www.w3.org/1999/xlink" version="1.1" viewBox="-10 -40 532 512">
   <path fill="currentColor"
d="M480 -7q-1 73 -46 125v0v0q-45 52 -114 64q4 16 6 32q81 -15 132 -76q52 -60 54 -145q0 -14 -9 -23t-23 -9h-32v0q-61 1 -111 30q-50 28 -80 78q11 12 21 26q25 -46 70 -74q44 -27 100 -28h32v0zM64 57q82 2 136 56v0v0q54 54 56 136h-32v0q-82 -2 -136 -56t-56 -136h32
v0zM32 25q-14 0 -23 9v0v0q-9 9 -9 23q1 63 31 113q29 51 80 80q50 30 113 31h32v0v176v0q1 15 16 16q15 -1 16 -16v-176v0v-16v0v-16v0q-1 -63 -31 -113q-29 -51 -80 -80q-50 -30 -113 -31h-32v0z" />
</svg>
