<?xml version="1.0" standalone="no"?>
<!DOCTYPE svg PUBLIC "-//W3C//DTD SVG 1.1//EN" "http://www.w3.org/Graphics/SVG/1.1/DTD/svg11.dtd" >
<svg xmlns="http://www.w3.org/2000/svg" xmlns:xlink="http://www.w3.org/1999/xlink" version="1.1" viewBox="-10 -40 660 512">
   <path fill="currentColor"
d="M72 25q-17 0 -28 12v0v0q-12 11 -12 28v200v0v32v0q21 -15 48 -16q41 1 64 32q23 -31 64 -32q25 0 44 13q20 13 29 35h167v0v-112v0v-32v0v-120v0q0 -17 -12 -28q-11 -12 -28 -12h-336v0zM480 297q21 -15 48 -16q25 0 44 13q20 13 29 35q6 -2 7 -8v-56v0v-48v0h-128v0v80
v0zM480 121v64v-64v64h112v0l-43 -58v0q-5 -6 -13 -6h-56v0zM640 212v5v-5v5v48v0v56v0q-2 31 -32 39v1v0q-1 34 -23 57q-23 22 -57 23q-34 -1 -57 -23q-22 -23 -23 -57h-160v0q-1 34 -23 57q-23 22 -57 23q-41 -1 -64 -32q-23 31 -64 32q-34 -1 -57 -23q-22 -23 -23 -57
v-32v0v-64v0v-200v0q1 -31 21 -51t51 -21h336v0q31 1 51 21t21 51v24v0h56v0q24 1 38 19l56 75v0q10 13 10 29v0zM528 409q27 -1 42 -24q12 -24 0 -48q-15 -23 -42 -24q-27 1 -42 24q-12 24 0 48q15 23 42 24v0zM256 361q-1 -27 -24 -42q-24 -12 -48 0q-23 15 -24 42
q1 27 24 42q24 12 48 0q23 -15 24 -42v0zM80 409q27 -1 42 -24q12 -24 0 -48q-15 -23 -42 -24q-27 1 -42 24q-12 24 0 48q15 23 42 24v0z" />
</svg>
