<?xml version="1.0" standalone="no"?>
<!DOCTYPE svg PUBLIC "-//W3C//DTD SVG 1.1//EN" "http://www.w3.org/Graphics/SVG/1.1/DTD/svg11.dtd" >
<svg xmlns="http://www.w3.org/2000/svg" xmlns:xlink="http://www.w3.org/1999/xlink" version="1.1" viewBox="-10 -40 660 512">
   <path fill="currentColor"
d="M432 -39q-34 1 -57 23v0v0q-22 23 -23 57v304v0v4v0l-340 93v0q-14 5 -11 19q5 14 19 11l396 -107v0q3 46 34 76q31 31 78 32q48 -1 79 -33q32 -31 33 -79q-1 -48 -33 -79q-31 -32 -79 -33q-39 1 -68 23t-40 58v0v0l-36 10v0v-299v0q1 -20 14 -34q14 -13 34 -14h192v0
q15 -1 16 -16q-1 -15 -16 -16h-192v0zM528 281q45 1 69 40q22 40 0 80q-24 39 -69 40q-45 -1 -69 -40q-22 -40 0 -80q24 -39 69 -40v0z" />
</svg>
