<?xml version="1.0" standalone="no"?>
<!DOCTYPE svg PUBLIC "-//W3C//DTD SVG 1.1//EN" "http://www.w3.org/Graphics/SVG/1.1/DTD/svg11.dtd" >
<svg xmlns="http://www.w3.org/2000/svg" xmlns:xlink="http://www.w3.org/1999/xlink" version="1.1" viewBox="-11 0 662 512">
   <path fill="currentColor"
d="M26 -36q-12 -7 -23 3q-8 12 3 23l608 480v0q12 8 23 -3q8 -12 -3 -22l-608 -481v0zM416 136v-47v47v-47q-1 -27 -19 -45t-45 -19h-172v0l41 32v0h131v0q14 0 23 9t9 23v97v0l32 25v0v-75v0zM64 345v-249v249v-249l-30 -23v0q-2 8 -2 16v256v0q1 27 19 45t45 19h256v0
q42 -2 59 -39l-27 -21v0q-5 26 -32 28h-256v0q-14 0 -23 -9t-9 -23v0zM576 95v243v-243v243l27 21v0q5 -9 5 -20v-244v0q0 -16 -11 -27t-27 -11q-10 0 -19 5l-103 57v0v36v0l119 -65v0q1 -1 3 -1q5 0 6 6v0z" />
</svg>
