<?xml version="1.0" standalone="no"?>
<!DOCTYPE svg PUBLIC "-//W3C//DTD SVG 1.1//EN" "http://www.w3.org/Graphics/SVG/1.1/DTD/svg11.dtd" >
<svg xmlns="http://www.w3.org/2000/svg" xmlns:xlink="http://www.w3.org/1999/xlink" version="1.1" viewBox="-10 -40 468 512">
   <path fill="currentColor"
d="M368 137q0 -39 -19 -72v0v0q-19 -33 -53 -53q-34 -19 -72 -19t-72 19q-34 20 -53 53t-19 72t19 72t53 53q34 19 72 19t72 -19q34 -20 53 -53t19 -72v0zM48 137q0 -48 24 -88v0v0q23 -40 64 -64q42 -24 88 -24t88 24q41 24 64 64q24 40 24 88t-24 88q-23 40 -64 64
q-42 24 -88 24t-88 -24q-41 -24 -64 -64q-24 -40 -24 -88v0zM16 73q15 1 16 16v96v0q-1 15 -16 16q-15 -1 -16 -16v-96v0q1 -15 16 -16v0zM448 89v96v-96v96q-1 15 -16 16q-15 -1 -16 -16v-96v0q1 -15 16 -16q15 1 16 16v0zM0 443q1 -48 23 -88v0v0q23 -39 62 -63
q13 11 27 21q-35 18 -57 52q-22 33 -23 76h64v0v-32v0q1 -20 14 -34q14 -13 34 -14h160v0q20 1 34 14q13 14 14 34v32v0h64v0q-1 -43 -23 -76q-22 -34 -57 -52q14 -10 27 -21q39 24 62 63q22 40 23 88q0 13 -9 21q-8 9 -21 9h-388v0q-13 0 -21 -9q-9 -8 -9 -21v0zM288 441
h32h-32h32v-32v0q-1 -15 -16 -16h-160v0q-15 1 -16 16v32v0h32v0v-16v0q1 -15 16 -16q15 1 16 16v16v0h64v0v-16v0q1 -15 16 -16q15 1 16 16v16v0zM205 124l22 6l-22 -6l22 6q5 1 5 7t-5 7l-22 6v0l-6 22v0q-1 5 -7 5t-7 -5l-6 -22v0l-21 -6v0q-6 -1 -6 -7t6 -7l21 -6v0
l6 -21v0q1 -6 7 -6t7 6l6 21v0zM160 89q-14 0 -23 9v0v0q-9 9 -9 23v16v0q1 34 23 57q23 22 57 23h32v0q34 -1 57 -23q22 -23 23 -57v-16v0q0 -14 -9 -23t-23 -9h-128v0zM96 121q1 -27 19 -45v0v0q18 -18 45 -19h128v0q27 1 45 19t19 45v16v0q-1 48 -33 79q-31 32 -79 33
h-32v0q-48 -1 -79 -33q-32 -31 -33 -79v-16v0z" />
</svg>
