<?xml version="1.0" standalone="no"?>
<!DOCTYPE svg PUBLIC "-//W3C//DTD SVG 1.1//EN" "http://www.w3.org/Graphics/SVG/1.1/DTD/svg11.dtd" >
<svg xmlns="http://www.w3.org/2000/svg" xmlns:xlink="http://www.w3.org/1999/xlink" version="1.1" viewBox="-10 -40 660 512">
   <path fill="currentColor"
d="M224 -7q26 0 48 13v0v0q22 13 35 35q13 23 13 48t-13 48q-13 22 -35 35t-48 13t-48 -13t-35 -35q-13 -23 -13 -48t13 -48q13 -22 35 -35t48 -13v0zM224 217q35 0 64 -17v0v0q29 -17 47 -47q17 -30 17 -64t-17 -64q-18 -30 -47 -47t-64 -17t-64 17t-47 47q-17 30 -17 64
t17 64q18 30 47 47t64 17v0zM178 297h92h-92h92q61 2 102 42q42 41 44 102h-384v0q2 -61 44 -102q41 -40 102 -42v0zM178 265q-75 2 -126 52v0v0q-50 51 -52 126q0 13 9 21q8 9 21 9h388v0q13 0 21 -9q9 -8 9 -21q-2 -75 -52 -126q-51 -50 -126 -52h-92v0zM635 148
q10 -11 0 -22q-11 -10 -22 0l-117 116v0l-53 -52v0q-11 -10 -22 0q-10 11 0 22l64 64v0q11 10 22 0l128 -128v0z" />
</svg>
