<?xml version="1.0" standalone="no"?>
<!DOCTYPE svg PUBLIC "-//W3C//DTD SVG 1.1//EN" "http://www.w3.org/Graphics/SVG/1.1/DTD/svg11.dtd" >
<svg xmlns="http://www.w3.org/2000/svg" xmlns:xlink="http://www.w3.org/1999/xlink" version="1.1" viewBox="-10 -40 660 512">
   <path fill="currentColor"
d="M128 89q0 -26 13 -48v0v0q13 -22 35 -35q23 -13 48 -13t48 13q22 13 35 35t13 48t-13 48t-35 35q-23 13 -48 13t-48 -13q-22 -13 -35 -35t-13 -48v0zM352 89q0 -35 -17 -64v0v0q-17 -29 -47 -47q-30 -17 -64 -17t-64 17q-30 18 -47 47t-17 64t17 64t47 47q30 17 64 17
t64 -17q30 -18 47 -47t17 -64v0zM32 441q2 -61 44 -102v0v0q41 -40 102 -42h92v0q27 0 51 9q3 -16 7 -31q-27 -10 -58 -10h-92v0q-75 2 -126 52q-50 51 -52 126q0 13 9 21q8 9 21 9h365v0q-20 -14 -35 -32h-328v0zM496 217q30 0 56 15v0v0q26 15 41 41t15 56t-15 56t-41 41
t-56 15t-56 -15t-41 -41t-15 -56t15 -56t41 -41t56 -15v0zM496 473q39 0 72 -19v0v0q33 -19 53 -53q19 -34 19 -72t-19 -72q-20 -34 -53 -53t-72 -19t-72 19t-53 53q-19 34 -19 72t19 72q20 34 53 53t72 19v0zM496 249q-15 1 -16 16v64v0q1 15 16 16h48v0q15 -1 16 -16
q-1 -15 -16 -16h-32v0v-48v0q-1 -15 -16 -16v0z" />
</svg>
