<?xml version="1.0" standalone="no"?>
<!DOCTYPE svg PUBLIC "-//W3C//DTD SVG 1.1//EN" "http://www.w3.org/Graphics/SVG/1.1/DTD/svg11.dtd" >
<svg xmlns="http://www.w3.org/2000/svg" xmlns:xlink="http://www.w3.org/1999/xlink" version="1.1" viewBox="-10 -40 650 512">
   <path fill="currentColor"
d="M128 89q0 -26 13 -48v0v0q13 -22 35 -35q23 -13 48 -13t48 13q22 13 35 35t13 48t-13 48t-35 35q-23 13 -48 13t-48 -13q-22 -13 -35 -35t-13 -48v0zM352 89q0 -35 -17 -64v0v0q-17 -29 -47 -47q-30 -17 -64 -17t-64 17q-30 18 -47 47t-17 64t17 64t47 47q30 17 64 17
t64 -17q30 -18 47 -47t17 -64v0zM32 441q2 -61 44 -102v0v0q41 -40 102 -42h92v0q24 0 46 7q-13 -14 -12 -36q-16 -3 -34 -3h-92v0q-75 2 -126 52q-50 51 -52 126q0 13 9 21q8 9 21 9h382v0q-8 -12 -8 -26v-1v0q-27 14 -53 -5h-319v0zM374 355q18 -19 18 -42q0 -24 -18 -43
l17 -30v0q25 8 46 -4q20 -11 26 -37h34v0q6 26 27 37q20 12 45 4l18 30v0q-19 19 -19 43q0 23 19 42l-18 31v0q-25 -9 -46 3q-20 12 -26 37h-34v0q-6 -26 -26 -37q-21 -12 -46 -3l-18 -31h1zM400 417q10 -6 21 0q10 6 11 18v2v0q2 19 21 21h54v0q19 -2 21 -21v-2v0
q1 -12 11 -18q11 -6 21 0l2 1v0q19 8 31 -8l26 -47v0q8 -18 -8 -29q-11 -8 -11 -21q0 -14 11 -21q16 -12 8 -29l-26 -47v0q-12 -17 -31 -8l-2 1v0q-10 5 -21 -1q-10 -6 -11 -18v-1v0q-2 -20 -21 -22h-54v0q-19 2 -21 22v1v0q-1 12 -11 18q-11 6 -21 1l-2 -1v0q-19 -9 -30 8
l-27 47v0q-8 17 8 29q11 7 11 21q0 13 -11 21q-16 11 -8 29l26 47v0q12 17 31 8l2 -1v0zM480 369q32 -1 49 -28q15 -28 0 -56q-17 -27 -49 -28q-32 1 -48 28q-15 28 0 56q16 27 48 28v0zM480 289q22 2 24 24q-2 22 -24 24q-22 -2 -24 -24q2 -22 24 -24v0z" />
</svg>
