<?xml version="1.0" standalone="no"?>
<!DOCTYPE svg PUBLIC "-//W3C//DTD SVG 1.1//EN" "http://www.w3.org/Graphics/SVG/1.1/DTD/svg11.dtd" >
<svg xmlns="http://www.w3.org/2000/svg" xmlns:xlink="http://www.w3.org/1999/xlink" version="1.1" viewBox="-10 -40 660 512">
   <path fill="currentColor"
d="M128 89q0 -26 13 -48v0v0q13 -22 35 -35q23 -13 48 -13t48 13q22 13 35 35t13 48t-13 48t-35 35q-23 13 -48 13t-48 -13q-22 -13 -35 -35t-13 -48v0zM352 89q0 -35 -17 -64v0v0q-17 -29 -47 -47q-30 -17 -64 -17t-64 17q-30 18 -47 47t-17 64t17 64t47 47q30 17 64 17
t64 -17q30 -18 47 -47t17 -64v0zM32 441q2 -61 44 -102v0v0q41 -40 102 -42h92v0q35 0 64 15q30 15 50 40v-39v0v-6q-48 -41 -114 -42h-92v0q-75 2 -126 52q-50 51 -52 126q0 13 9 21q8 9 21 9h363v0q-9 -14 -9 -32h-352v0zM528 185q20 1 34 14v0v0q13 14 14 34v48v0h-96v0
v-48v0q1 -20 14 -34q14 -13 34 -14v0zM448 233v48v-48v48q-14 0 -23 9t-9 23v128v0q0 14 9 23t23 9h160v0q14 0 23 -9t9 -23v-128v0q0 -14 -9 -23t-23 -9v-48v0q-1 -34 -23 -57q-23 -22 -57 -23q-34 1 -57 23q-22 23 -23 57v0zM448 313h160h-160h160v128v0h-160v0v-128v0z
" />
</svg>
