<?xml version="1.0" standalone="no"?>
<!DOCTYPE svg PUBLIC "-//W3C//DTD SVG 1.1//EN" "http://www.w3.org/Graphics/SVG/1.1/DTD/svg11.dtd" >
<svg xmlns="http://www.w3.org/2000/svg" xmlns:xlink="http://www.w3.org/1999/xlink" version="1.1" viewBox="-10 -40 661 512">
   <path fill="currentColor"
d="M128 89q0 -26 13 -48v0v0q13 -22 35 -35q23 -13 48 -13t48 13q22 13 35 35t13 48t-13 48t-35 35q-23 13 -48 13t-48 -13q-22 -13 -35 -35t-13 -48v0zM352 89q0 -35 -17 -64v0v0q-17 -29 -47 -47q-30 -17 -64 -17t-64 17q-30 18 -47 47t-17 64t17 64t47 47q30 17 64 17
t64 -17q30 -18 47 -47t17 -64v0zM32 441q2 -61 44 -102v0v0q41 -40 102 -42h92v0q29 0 55 11q-4 -19 -4 -36q-25 -7 -51 -7h-92v0q-75 2 -126 52q-50 51 -52 126q0 13 9 21q8 9 21 9h388v0h6q-20 -15 -36 -32h-356v0zM384 262l96 -38l-96 38l96 -38v208v0q-54 -32 -75 -80
t-21 -90v0zM608 262q0 42 -21 90v0v0q-21 48 -75 80v-208v0l96 38v0zM505 187q-9 -4 -18 0l-120 48v0q-14 6 -15 22q-1 33 11 74q11 41 40 79q30 38 84 61q9 4 18 0q54 -23 84 -61q29 -38 40 -79q12 -41 11 -74q-1 -16 -15 -22l-120 -48v0z" />
</svg>
