<?xml version="1.0" standalone="no"?>
<!DOCTYPE svg PUBLIC "-//W3C//DTD SVG 1.1//EN" "http://www.w3.org/Graphics/SVG/1.1/DTD/svg11.dtd" >
<svg xmlns="http://www.w3.org/2000/svg" xmlns:xlink="http://www.w3.org/1999/xlink" version="1.1" viewBox="-10 -40 653 512">
   <path fill="currentColor"
d="M128 89q0 -26 13 -48v0v0q13 -22 35 -35q23 -13 48 -13t48 13q22 13 35 35t13 48t-13 48t-35 35q-23 13 -48 13t-48 -13q-22 -13 -35 -35t-13 -48v0zM352 89q0 -35 -17 -64v0v0q-17 -29 -47 -47q-30 -17 -64 -17t-64 17q-30 18 -47 47t-17 64t17 64t47 47q30 17 64 17
t64 -17q30 -18 47 -47t17 -64v0zM32 441q2 -61 44 -102v0v0q41 -40 102 -42h92v0q26 0 50 9v-1v0v-33v0q-24 -7 -50 -7h-92v0q-75 2 -126 52q-50 51 -52 126q0 13 9 21q8 9 21 9h388v0q16 -1 25 -12l-27 -27v0v4v3h-384v0zM546 452l73 -73l-73 73l73 -73q14 -15 14 -34
t-14 -34l-107 -107v0q-19 -19 -45 -19h-83v0q-14 0 -23 9t-9 23v83v0q0 26 19 45l107 107v0q15 14 34 14t34 -14v0zM384 217h83h-83h83q13 0 22 9l108 108v0q9 11 0 22l-74 74v0q-11 9 -22 0l-108 -108v0q-9 -9 -9 -22v-83v0zM440 257q-1 -15 -16 -16q-15 1 -16 16
q1 15 16 16q15 -1 16 -16v0z" />
</svg>
