<?xml version="1.0" standalone="no"?>
<!DOCTYPE svg PUBLIC "-//W3C//DTD SVG 1.1//EN" "http://www.w3.org/Graphics/SVG/1.1/DTD/svg11.dtd" >
<svg xmlns="http://www.w3.org/2000/svg" xmlns:xlink="http://www.w3.org/1999/xlink" version="1.1" viewBox="-10 -40 660 512">
   <path fill="currentColor"
d="M528 -28q3 14 -10 20l-134 45v0q-10 39 -47 50v354v0h192v0q14 1 16 16q-2 15 -16 16h-208v0q-15 -1 -16 -16v-370v0q-16 -4 -28 -15l-143 48v0q-15 4 -20 -10q-4 -14 10 -20l136 -45v0q-3 -10 -3 -20q0 -27 18 -45q19 -18 46 -19q21 0 37 12t23 31l127 -42v0
q14 -3 20 10v0zM441 291q26 21 71 22q45 -1 71 -22q25 -20 25 -42h-192v0v-2v0v1v0v1v0q0 22 25 42v0zM512 76l-86 141l86 -141l-86 141h172v0l-86 -141v0zM384 249v-2v2v-2q0 -22 12 -41l92 -151v0q8 -14 24 -14t24 14l92 151v0q12 19 12 42v1v0q-1 41 -37 68
q-37 27 -91 28q-54 -1 -91 -28q-36 -27 -37 -68v0zM32 377q0 22 25 42q26 21 71 22q45 -1 71 -22q25 -20 25 -42h-192v0v-2v0v1v0v1v0zM42 345h172h-172h172l-86 -141v0l-86 141v0zM128 473q-54 -1 -91 -28v0v0q-36 -27 -37 -68v-2v0q0 -22 12 -41l92 -151v0q8 -14 24 -14
t24 14l92 151v0q12 19 12 41v2v0q-1 41 -37 68q-37 27 -91 28v0zM321 57q13 0 22 -9v0v0q9 -9 10 -23q-1 -14 -10 -23t-22 -9q-14 0 -23 9t-9 23t9 23t23 9v0z" />
</svg>
