<?xml version="1.0" standalone="no"?>
<!DOCTYPE svg PUBLIC "-//W3C//DTD SVG 1.1//EN" "http://www.w3.org/Graphics/SVG/1.1/DTD/svg11.dtd" >
<svg xmlns="http://www.w3.org/2000/svg" xmlns:xlink="http://www.w3.org/1999/xlink" version="1.1" viewBox="-10 -40 660 512">
   <path fill="currentColor"
d="M112 -28q-3 14 10 20l135 45v0q9 39 46 50v354v0h-192v0q-14 1 -16 16q2 15 16 16h208v0q15 -1 16 -16v-370v0q16 -4 28 -15l143 48v0q15 4 21 -10q3 -14 -10 -20l-137 -45v0q3 -10 3 -20q0 -27 -18 -45q-19 -18 -46 -19q-21 0 -37 12t-23 31l-127 -42v0q-14 -3 -20 10v0
zM199 291q-26 21 -71 22q-45 -1 -71 -22q-25 -20 -25 -42h192v0v-2v0v1v0v1v0q0 22 -25 42v0zM128 76l86 141l-86 -141l86 141h-172v0l86 -141v0zM256 249v-2v2v-2q0 -22 -12 -41l-92 -151v0q-8 -14 -24 -14t-24 14l-92 151v0q-12 19 -12 41v2v0q1 41 37 68q37 27 91 28
q54 -1 91 -28q36 -27 37 -68v0zM608 377q0 22 -25 42q-26 21 -71 22q-45 -1 -71 -22q-25 -20 -25 -42h192v0v-2v0v1v0v1v0zM598 345h-172h172h-172l86 -141v0l86 141v0zM512 473q54 -1 91 -28v0v0q36 -27 37 -68v-2v0q0 -22 -12 -41l-92 -151v0q-8 -14 -24 -14t-24 14
l-92 151v0q-12 19 -12 41v2v0q1 41 37 68q37 27 91 28v0zM319 -7q14 0 23 9v0v0q9 9 9 23t-9 23t-23 9q-13 0 -22 -9t-10 -23q1 -14 10 -23t22 -9v0z" />
</svg>
