<?xml version="1.0" standalone="no"?>
<!DOCTYPE svg PUBLIC "-//W3C//DTD SVG 1.1//EN" "http://www.w3.org/Graphics/SVG/1.1/DTD/svg11.dtd" >
<svg xmlns="http://www.w3.org/2000/svg" xmlns:xlink="http://www.w3.org/1999/xlink" version="1.1" viewBox="-10 -40 596 512">
   <path fill="currentColor"
d="M47 -38q-14 -4 -21 8q-26 55 -26 119t26 119q7 12 21 8q12 -8 8 -22q-23 -48 -23 -105t23 -105q4 -14 -8 -22v0zM529 -38q-12 8 -8 22q23 48 23 105t-23 105q-4 14 8 22q14 4 22 -8q25 -55 25 -119t-25 -119q-8 -12 -22 -8v0zM256 89q0 -14 9 -23v0v0q9 -9 23 -9t23 9
t9 23t-9 23t-23 9t-23 -9t-9 -23v0zM304 151q21 -6 34 -22v0v0q14 -17 14 -40q-1 -27 -19 -45t-45 -19q-27 1 -45 19t-19 45q0 23 14 40q13 16 34 22v306v0q1 15 16 16q15 -1 16 -16v-306v0zM139 31q4 -14 -9 -21q-14 -4 -21 9q-13 33 -13 70t13 70q7 13 21 9q13 -7 9 -21
q-11 -27 -11 -58t11 -58v0zM467 19q-7 -13 -21 -9q-13 7 -9 21q11 27 11 58t-11 58q-4 14 9 21q14 4 21 -9q13 -33 13 -70t-13 -70v0z" />
</svg>
