<?xml version="1.0" standalone="no"?>
<!DOCTYPE svg PUBLIC "-//W3C//DTD SVG 1.1//EN" "http://www.w3.org/Graphics/SVG/1.1/DTD/svg11.dtd" >
<svg xmlns="http://www.w3.org/2000/svg" xmlns:xlink="http://www.w3.org/1999/xlink" version="1.1" viewBox="-10 -40 660 512">
   <path fill="currentColor"
d="M576 -7h-352h352h-352q-14 0 -23 9t-9 23v36v0q-15 -4 -32 -4v-32v0q1 -27 19 -45t45 -19h352v0q27 1 45 19t19 45v288v0q-1 27 -19 45t-45 19h-16h-223q-8 -17 -20 -32h67v0v-48v0q1 -20 14 -34q14 -13 34 -14h96v0q20 1 34 14q13 14 14 34v48v0q14 0 23 -9t9 -23v-288
v0q0 -14 -9 -23t-23 -9v0zM544 345v-48v48v-48q-1 -15 -16 -16h-96v0q-15 1 -16 16v48v0h128v0zM224 185q-1 -36 -32 -55q-32 -18 -64 0q-31 19 -32 55q1 36 32 55q32 18 64 0q31 -19 32 -55v0zM64 185q0 -26 13 -48v0v0q13 -22 35 -35q23 -13 48 -13t48 13q22 13 35 35
t13 48t-13 48t-35 35q-23 13 -48 13t-48 -13q-22 -13 -35 -35t-13 -48v0zM32 441h256h-256h256q-3 -41 -31 -68q-29 -27 -70 -28h-54v0q-41 1 -70 28q-28 27 -31 68v0zM0 446q1 -56 39 -94v0v0q38 -38 94 -39h54v0q56 1 94 39t39 94q-2 25 -27 27h-266v0q-25 -2 -27 -27v0z
" />
</svg>
