<?xml version="1.0" standalone="no"?>
<!DOCTYPE svg PUBLIC "-//W3C//DTD SVG 1.1//EN" "http://www.w3.org/Graphics/SVG/1.1/DTD/svg11.dtd" >
<svg xmlns="http://www.w3.org/2000/svg" xmlns:xlink="http://www.w3.org/1999/xlink" version="1.1" viewBox="-10 -40 532 512">
   <path fill="currentColor"
d="M160 41q-1 4 8 13q2 2 5 3q-23 1 -45 4v-20v0q2 -23 19 -37t43 -23q53 -19 130 -20q77 1 130 20q26 9 43 23t19 37v104v0v0v0v114v0q-1 23 -19 38q-17 15 -43 24q-15 6 -34 11v-33v0q12 -4 23 -8q22 -8 33 -18q9 -9 8 -14v-66v0q-13 8 -30 14q-15 6 -34 11v-33v0
q12 -4 23 -8q22 -8 33 -18q9 -9 8 -14v-58v0q-13 8 -30 14q-26 10 -60 15l-6 -6q-15 -13 -34 -22q54 -4 89 -17q22 -8 33 -17q9 -9 8 -13q1 -4 -8 -13q-11 -9 -33 -17q-46 -17 -119 -18q-73 1 -119 18q-22 8 -33 17q-9 9 -8 13v0zM32 169q-1 4 8 13q11 9 33 17q46 17 119 18
q73 -1 119 -18q22 -8 33 -17q9 -9 8 -13q1 -4 -8 -13q-11 -9 -33 -17q-46 -17 -119 -18q-73 1 -119 18q-22 8 -33 17q-9 9 -8 13v0zM0 169q2 -23 19 -37t43 -23q53 -19 130 -20q77 1 130 20q26 9 43 23t19 37v104v0v0v0v114v0q-1 23 -19 38q-17 14 -43 24q-53 20 -130 21
q-77 -1 -130 -21q-26 -9 -43 -24q-18 -15 -19 -38v-114v0v-104v0zM352 215q-13 8 -30 14q-53 19 -130 20q-77 -1 -130 -20q-17 -6 -30 -14v58v0q-1 5 9 14q10 10 32 18q46 18 119 19q73 -1 119 -19q22 -8 33 -18q9 -9 8 -14v-58v0zM32 387q-1 5 9 14q10 10 32 18
q46 18 119 19q73 -1 119 -19q22 -8 33 -18q9 -9 8 -14v-66v0q-13 8 -30 14q-53 20 -130 21q-77 -1 -130 -21q-17 -6 -30 -14v66v0z" />
</svg>
