<?xml version="1.0" standalone="no"?>
<!DOCTYPE svg PUBLIC "-//W3C//DTD SVG 1.1//EN" "http://www.w3.org/Graphics/SVG/1.1/DTD/svg11.dtd" >
<svg xmlns="http://www.w3.org/2000/svg" xmlns:xlink="http://www.w3.org/1999/xlink" version="1.1" viewBox="-10 -40 532 512">
   <path fill="currentColor"
d="M326 125l-230 229l230 -229l-230 229v-63v0q0 -45 17 -86t49 -72l103 -104v0q37 -35 87 -36q51 1 87 36l5 5v0q35 37 36 87q0 35 -18 64h-151v0l37 -38v0q9 -11 0 -22q-11 -9 -22 0v0zM279 217h156h-156h156l-64 64v0h-156v0l64 -64v0zM339 313q-32 31 -72 47v0v0
q-41 17 -85 17h-63v0l64 -64v0h156v0zM64 291v95v-95v95l-59 60v0q-10 11 0 22q11 10 22 0l60 -59v0h95v0q51 0 98 -19q47 -20 83 -56l104 -104v0q44 -45 45 -109q-1 -64 -45 -109l-6 -6v0q-45 -44 -109 -45q-64 1 -109 45l-104 104v0q-36 36 -55 83q-20 47 -20 98v0z" />
</svg>
