<?xml version="1.0" standalone="no"?>
<!DOCTYPE svg PUBLIC "-//W3C//DTD SVG 1.1//EN" "http://www.w3.org/Graphics/SVG/1.1/DTD/svg11.dtd" >
<svg xmlns="http://www.w3.org/2000/svg" xmlns:xlink="http://www.w3.org/1999/xlink" version="1.1" viewBox="-10 -40 596 512">
   <path fill="currentColor"
d="M32 89q0 -14 9 -23v0v0q9 -9 23 -9h448v0q14 0 23 9t9 23q-31 23 -32 64q1 41 32 64v32v0h-512v0v-32v0q31 -23 32 -64q-1 -41 -32 -64v0zM0 210v55v-55v55v112v0q0 14 9 23t23 9h512v0q14 0 23 -9t9 -23v-112v0v-55v0q-1 -11 -10 -17q-21 -14 -22 -40q1 -26 22 -40
q9 -6 10 -17v-7v0q-1 -27 -19 -45t-45 -19h-448v0q-27 1 -45 19t-19 45v7v0q1 11 10 17q21 14 22 40q-1 26 -22 40q-9 6 -10 17v0zM544 377h-64h64h-64v-16v0q-1 -15 -16 -16q-15 1 -16 16v16v0h-56v0v-16v0q-1 -15 -16 -16q-15 1 -16 16v16v0h-56v0v-16v0q-1 -15 -16 -16
q-15 1 -16 16v16v0h-56v0v-16v0q-1 -15 -16 -16q-15 1 -16 16v16v0h-56v0v-16v0q-1 -15 -16 -16q-15 1 -16 16v16v0h-64v0v-96v0h512v0v96v0zM176 105q-1 -15 -16 -16q-15 1 -16 16v96v0q1 15 16 16q15 -1 16 -16v-96v0zM304 105q-1 -15 -16 -16q-15 1 -16 16v96v0
q1 15 16 16q15 -1 16 -16v-96v0zM432 105q-1 -15 -16 -16q-15 1 -16 16v96v0q1 15 16 16q15 -1 16 -16v-96v0z" />
</svg>
