<?xml version="1.0" standalone="no"?>
<!DOCTYPE svg PUBLIC "-//W3C//DTD SVG 1.1//EN" "http://www.w3.org/Graphics/SVG/1.1/DTD/svg11.dtd" >
<svg xmlns="http://www.w3.org/2000/svg" xmlns:xlink="http://www.w3.org/1999/xlink" version="1.1" viewBox="-10 -40 532 512">
   <path fill="currentColor"
d="M480 219q0 11 -10 20v0v0q-10 9 -28 10h-98v0q-34 1 -57 23q-22 23 -23 57q0 8 2 17q5 21 13 36v1l2 4q7 17 7 24q-1 14 -8 22t-15 8h-9q-63 -1 -113 -31q-51 -29 -80 -80q-30 -50 -31 -113q1 -63 31 -113q29 -51 80 -80q50 -30 113 -31q63 1 113 31q51 29 80 80
q30 50 31 113v1v1v0zM512 220v-2v0v0v-1q-1 -72 -35 -129q-34 -58 -92 -92q-57 -34 -129 -35q-72 1 -129 35q-58 34 -92 92q-34 57 -35 129q1 72 35 129q34 58 92 92q57 34 129 35h11q24 -2 38 -20q15 -18 15 -42q-2 -22 -12 -42v0v-1q-7 -14 -11 -29q-1 -5 -1 -10
q1 -20 14 -34q14 -13 34 -14h98v0q28 0 49 -17q20 -17 21 -44v0zM152 217q-2 -22 -24 -24q-22 2 -24 24q2 22 24 24q22 -2 24 -24v0zM160 145q22 -2 24 -24q-2 -22 -24 -24q-22 2 -24 24q2 22 24 24v0zM280 89q-2 -22 -24 -24q-22 2 -24 24q2 22 24 24q22 -2 24 -24v0z
M352 145q22 -2 24 -24q-2 -22 -24 -24q-22 2 -24 24q2 22 24 24v0z" />
</svg>
