<?xml version="1.0" standalone="no"?>
<!DOCTYPE svg PUBLIC "-//W3C//DTD SVG 1.1//EN" "http://www.w3.org/Graphics/SVG/1.1/DTD/svg11.dtd" >
<svg xmlns="http://www.w3.org/2000/svg" xmlns:xlink="http://www.w3.org/1999/xlink" version="1.1" viewBox="-10 -40 660 512">
   <path fill="currentColor"
d="M320 -39q15 1 16 16v80v0h112v0q41 1 68 28t28 68v224v0q-1 41 -28 68t-68 28h-256v0q-41 -1 -68 -28t-28 -68v-224v0q1 -41 28 -68t68 -28h112v0v-80v0q1 -15 16 -16v0zM192 89q-27 1 -45 19v0v0q-18 18 -19 45v224v0q1 27 19 45t45 19h256v0q27 -1 45 -19t19 -45v-224
v0q-1 -27 -19 -45t-45 -19h-128h-128zM208 345h32h-32h32q15 1 16 16q-1 15 -16 16h-32v0q-15 -1 -16 -16q1 -15 16 -16v0zM304 345h32h-32h32q15 1 16 16q-1 15 -16 16h-32v0q-15 -1 -16 -16q1 -15 16 -16v0zM400 345h32h-32h32q15 1 16 16q-1 15 -16 16h-32v0
q-15 -1 -16 -16q1 -15 16 -16v0zM224 185q-14 0 -23 9v0v0q-9 9 -9 23t9 23t23 9t23 -9t9 -23t-9 -23t-23 -9v0zM288 217q-1 36 -32 55q-32 18 -64 0q-31 -19 -32 -55q1 -36 32 -55q32 -18 64 0q31 19 32 55v0zM384 217q0 14 9 23v0v0q9 9 23 9t23 -9t9 -23t-9 -23t-23 -9
t-23 9t-9 23v0zM416 281q-36 -1 -55 -32q-18 -32 0 -64q19 -31 55 -32q36 1 55 32q18 32 0 64q-19 31 -55 32v0zM48 185h16h-16h16v32v0h-16v0q-15 1 -16 16v96v0q1 15 16 16h16v0v32v0h-16v0q-20 -1 -34 -14q-13 -14 -14 -34v-96v0q1 -20 14 -34q14 -13 34 -14v0zM592 345
q15 -1 16 -16v-96v0q-1 -15 -16 -16h-16v0v-32v0h16v0q20 1 34 14q13 14 14 34v96v0q-1 20 -14 34q-14 13 -34 14h-16v0v-32v0h16v0z" />
</svg>
