<?xml version="1.0" standalone="no"?>
<!DOCTYPE svg PUBLIC "-//W3C//DTD SVG 1.1//EN" "http://www.w3.org/Graphics/SVG/1.1/DTD/svg11.dtd" >
<svg xmlns="http://www.w3.org/2000/svg" xmlns:xlink="http://www.w3.org/1999/xlink" version="1.1" viewBox="-10 -40 660 512">
   <path fill="currentColor"
d="M329 -36q-9 -6 -18 0l-140 93v0h-107v0q-27 1 -45 19t-19 45v288v0q1 27 19 45t45 19h192h320q27 -1 45 -19t19 -45v-288v0q-1 -27 -19 -45t-45 -19h-107v0l-140 -93v0zM384 345q-1 -27 -19 -45v0v0q-18 -18 -45 -19q-27 1 -45 19t-19 45v96v0h-192v0q-14 0 -23 -9
t-9 -23v-288v0q0 -14 9 -23t23 -9h112v0q5 0 9 -3l135 -90v0l135 90v0q4 3 9 3h112v0q14 0 23 9t9 23v288v0q0 14 -9 23t-23 9h-192v0v-96v0zM352 441h-64h64h-64v-96v0q0 -14 9 -23t23 -9t23 9t9 23v96v0zM96 153v64v-64v64q0 14 9 23t23 9h32v0q14 0 23 -9t9 -23v-64v0
q0 -14 -9 -23t-23 -9h-32v0q-14 0 -23 9t-9 23v0zM160 153v64v-64v64h-32v0v-64v0h32v0zM480 121q-14 0 -23 9v0v0q-9 9 -9 23v64v0q0 14 9 23t23 9h32v0q14 0 23 -9t9 -23v-64v0q0 -14 -9 -23t-23 -9h-32v0zM480 153h32h-32h32v64v0h-32v0v-64v0zM96 313v64v-64v64
q0 14 9 23t23 9h32v0q14 0 23 -9t9 -23v-64v0q0 -14 -9 -23t-23 -9h-32v0q-14 0 -23 9t-9 23v0zM160 313v64v-64v64h-32v0v-64v0h32v0zM480 281q-14 0 -23 9v0v0q-9 9 -9 23v64v0q0 14 9 23t23 9h32v0q14 0 23 -9t9 -23v-64v0q0 -14 -9 -23t-23 -9h-32v0zM480 313h32h-32h32
v64v0h-32v0v-64v0zM320 89q36 1 55 32q18 32 0 64q-19 31 -55 32q-36 -1 -55 -32q-18 -32 0 -64q19 -31 55 -32v0zM320 249q26 0 48 -13v0v0q22 -13 35 -35q13 -23 13 -48t-13 -48q-13 -22 -35 -35t-48 -13t-48 13t-35 35q-13 23 -13 48t13 48q13 22 35 35t48 13v0zM336 121
q-1 -15 -16 -16q-15 1 -16 16v32v0q1 15 16 16h24v0q15 -1 16 -16q-1 -15 -16 -16h-8v0v-16v0z" />
</svg>
