<?xml version="1.0" standalone="no"?>
<!DOCTYPE svg PUBLIC "-//W3C//DTD SVG 1.1//EN" "http://www.w3.org/Graphics/SVG/1.1/DTD/svg11.dtd" >
<svg xmlns="http://www.w3.org/2000/svg" xmlns:xlink="http://www.w3.org/1999/xlink" version="1.1" viewBox="-10 -40 468 512">
   <path fill="currentColor"
d="M0 25q1 -27 19 -45v0v0q18 -18 45 -19h336v0q20 1 34 14q13 14 14 34v320v0q-2 33 -32 45v67v0h16v0q15 1 16 16q-1 15 -16 16h-368v0q-27 -1 -45 -19t-19 -45v0v0v-384v0zM64 377q-14 0 -23 9v0v0q-9 9 -9 23t9 23t23 9h320v0v-64v0h-320v0zM32 354q14 -9 32 -9h336v0
q15 -1 16 -16v-320v0q-1 -15 -16 -16h-336v0q-14 0 -23 9t-9 23v329v0zM177 185h-31h31h-31q8 41 43 61q-10 -26 -12 -61v0zM177 153q2 -35 12 -61q-35 20 -43 61h31v0zM112 169q0 -33 16 -60v0v0q16 -27 44 -44q28 -16 60 -16t60 16q28 17 44 44t16 60t-16 60t-44 44
q-28 16 -60 16t-60 -16q-28 -17 -44 -44t-16 -60v0zM319 185h-31h31h-31q-3 35 -13 61q35 -20 44 -61v0zM275 92q10 26 13 61h31v0q-9 -41 -44 -61v0zM255 185h-46h46h-46q2 34 12 55q8 15 11 16q3 -1 11 -16q10 -21 12 -55v0zM209 153h46h-46h46q-2 -34 -12 -55
q-8 -15 -11 -16q-3 1 -11 16q-10 21 -12 55v0z" />
</svg>
