<?xml version="1.0" standalone="no"?>
<!DOCTYPE svg PUBLIC "-//W3C//DTD SVG 1.1//EN" "http://www.w3.org/Graphics/SVG/1.1/DTD/svg11.dtd" >
<svg xmlns="http://www.w3.org/2000/svg" xmlns:xlink="http://www.w3.org/1999/xlink" version="1.1" viewBox="-10 -40 404 512">
   <path fill="currentColor"
d="M256 313q-14 0 -23 9v0v0q-9 9 -9 23v64v0q0 14 -9 23t-23 9t-23 -9t-9 -23v-64v0q0 -14 -9 -23t-23 -9h-48v0q-20 -1 -34 -14q-13 -14 -14 -34v-16v0h320v0v16v0q-1 20 -14 34q-14 13 -34 14h-48v0zM352 217h-320h320h-320v-192v0q0 -14 9 -23t23 -9h32v0v112v0
q1 15 16 16q15 -1 16 -16v-112v0h64v0v80v0q1 15 16 16q15 -1 16 -16v-80v0h96v0q14 0 23 9t9 23v192v0zM80 345h16h-16h48v32v0v32v0q1 27 19 45t45 19q27 -1 45 -19t19 -45v-32v0v-32v0h32h16q34 -1 57 -23q22 -23 23 -57v-240v0q-1 -27 -19 -45t-45 -19h-256v0
q-27 1 -45 19t-19 45v240v0q1 34 23 57q23 22 57 23v0z" />
</svg>
