<?xml version="1.0" standalone="no"?>
<!DOCTYPE svg PUBLIC "-//W3C//DTD SVG 1.1//EN" "http://www.w3.org/Graphics/SVG/1.1/DTD/svg11.dtd" >
<svg xmlns="http://www.w3.org/2000/svg" xmlns:xlink="http://www.w3.org/1999/xlink" version="1.1" viewBox="-10 -40 525 512">
   <path fill="currentColor"
d="M269 -32q-5 -7 -13 -7t-13 7q-11 16 -24 44q-13 27 -24 60q-17 49 -19 102q-40 -27 -81 -43q-41 -15 -68 -20q-8 -1 -14 4q-6 7 -5 15q6 28 22 70q16 43 45 83q-33 15 -53 27v0v0q-2 1 -3 2q-2 1 -3 1q-8 5 -8 14q0 10 8 14q11 7 30 16t42 18q32 11 68 11l-12 33v0
q-4 10 4 18q7 6 17 3l75 -35v0v52v0q1 15 16 16q15 -1 16 -16v-52v0l75 35v0q10 3 18 -3q7 -8 4 -18l-13 -33v0q36 0 68 -12q23 -8 42 -17t30 -16q8 -4 8 -14q0 -9 -8 -14q-21 -12 -61 -27q30 -41 47 -84q17 -44 22 -72q1 -8 -4 -15q-7 -5 -15 -4q-27 5 -68 20
q-41 16 -81 43q-2 -53 -18 -102q-11 -33 -24 -60q-14 -28 -24 -44h-1zM272 370v-73v73v-73q-1 -15 -16 -16q-15 1 -16 16v73v0l-52 24v0l8 -23v0q4 -9 -3 -17q-7 -6 -17 -3q-33 9 -77 -7q-23 -8 -41 -17q22 -12 49 -21q8 -3 10 -11t-3 -15q-26 -30 -43 -66q-17 -35 -25 -65
q32 8 70 26q37 18 68 46q8 7 18 2q10 -6 8 -17q-4 -28 0 -60q5 -32 15 -64q15 -44 31 -74q16 30 31 74q10 32 15 64q4 32 0 60q-2 11 8 17q10 5 19 -2q30 -28 68 -46q37 -18 69 -27q-8 32 -26 69t-45 67q-6 7 -4 15q3 9 12 11q28 7 50 18q-18 8 -40 16q-44 16 -77 7
q-9 -3 -17 3q-6 8 -3 17l9 23v0l-53 -24v0z" />
</svg>
