<?xml version="1.0" standalone="no"?>
<!DOCTYPE svg PUBLIC "-//W3C//DTD SVG 1.1//EN" "http://www.w3.org/Graphics/SVG/1.1/DTD/svg11.dtd" >
<svg xmlns="http://www.w3.org/2000/svg" xmlns:xlink="http://www.w3.org/1999/xlink" version="1.1" viewBox="-10 -40 468 512">
   <path fill="currentColor"
d="M331 36q10 -11 0 -22q-11 -10 -22 0l-149 148v0l-69 -68v0q-11 -10 -22 0q-10 11 0 22l80 80v0q11 10 22 0l160 -160v0zM443 148q10 -11 0 -22q-11 -10 -22 0l-261 260v0l-133 -132v0q-11 -10 -22 0q-10 11 0 22l144 144v0q11 10 22 0l272 -272v0z" />
</svg>
