<?xml version="1.0" standalone="no"?>
<!DOCTYPE svg PUBLIC "-//W3C//DTD SVG 1.1//EN" "http://www.w3.org/Graphics/SVG/1.1/DTD/svg11.dtd" >
<svg xmlns="http://www.w3.org/2000/svg" xmlns:xlink="http://www.w3.org/1999/xlink" version="1.1" viewBox="-10 -40 532 512">
   <path fill="currentColor"
d="M128 -23q-1 -15 -16 -16q-15 1 -16 16v80v0h-80v0q-15 1 -16 16q1 15 16 16h80v0v240v0q1 20 14 34q14 13 34 14h208v0v-32v0h-208v0q-15 -1 -16 -16v-352v0zM384 457q1 15 16 16q15 -1 16 -16v-80v0h80v0q15 -1 16 -16q-1 -15 -16 -16h-80v0v-240v0q-1 -20 -14 -34
q-14 -13 -34 -14h-208v0v32v0h208v0q15 1 16 16v352v0z" />
</svg>
