<?xml version="1.0" standalone="no"?>
<!DOCTYPE svg PUBLIC "-//W3C//DTD SVG 1.1//EN" "http://www.w3.org/Graphics/SVG/1.1/DTD/svg11.dtd" >
<svg xmlns="http://www.w3.org/2000/svg" xmlns:xlink="http://www.w3.org/1999/xlink" version="1.1" viewBox="-10 -40 532 512">
   <path fill="currentColor"
d="M480 217q-1 -61 -30 -112v0v0q-30 -51 -82 -82q-53 -30 -112 -30t-112 30q-52 31 -82 82q-29 51 -30 112q1 61 30 112q30 51 82 82q53 30 112 30t112 -30q52 -31 82 -82q29 -51 30 -112v0zM0 217q1 -70 34 -128v0v0q34 -58 94 -94q61 -34 128 -34t128 34q60 36 94 94
q33 58 34 128q-1 70 -34 128q-34 58 -94 94q-61 34 -128 34t-128 -34q-60 -36 -94 -94q-33 -58 -34 -128v0zM208 313q1 27 24 42q24 12 48 0q23 -15 24 -42q-1 -27 -24 -42q-24 -12 -48 0q-23 15 -24 42v0zM256 393q-45 -1 -69 -40q-22 -40 0 -80q24 -39 69 -40q45 1 69 40
q22 40 0 80q-24 39 -69 40v0zM101 94q11 -10 22 0l37 36v0l37 -36v0q11 -10 22 0q10 11 0 22l-36 37v0l36 37v0q10 11 0 22q-11 10 -22 0l-37 -36v0l-37 36v0q-11 10 -22 0q-10 -11 0 -22l36 -37v0l-36 -37v0q-10 -11 0 -22v0zM293 94q11 -10 22 0l37 36v0l37 -36v0
q11 -10 22 0q10 11 0 22l-36 37v0l36 37v0q10 11 0 22q-11 10 -22 0l-37 -36v0l-37 36v0q-11 10 -22 0q-10 -11 0 -22l36 -37v0l-36 -37v0q-10 -11 0 -22v0z" />
</svg>
