<?xml version="1.0" standalone="no"?>
<!DOCTYPE svg PUBLIC "-//W3C//DTD SVG 1.1//EN" "http://www.w3.org/Graphics/SVG/1.1/DTD/svg11.dtd" >
<svg xmlns="http://www.w3.org/2000/svg" xmlns:xlink="http://www.w3.org/1999/xlink" version="1.1" viewBox="-10 -40 596 512">
   <path fill="currentColor"
d="M544 121q1 -15 -14 -32v0v0q-15 -17 -51 -32q-37 -16 -89 -24q-33 93 22 173q38 -8 67 -20q36 -16 51 -33t14 -32v0zM348 136q-24 15 -60 17q-36 -2 -60 -17q-6 39 -29 75q42 6 89 6t89 -6q-23 -36 -29 -75v0zM346 99q0 -35 12 -71q-33 -3 -70 -3t-70 3q12 36 12 71
q5 4 13 8q20 13 45 14q25 -1 46 -14q7 -4 12 -8v0zM97 186q29 12 68 20q54 -80 21 -173q-52 8 -89 24q-36 15 -51 32t-14 32q-1 15 14 32t51 33v0zM576 121v184v-184v184q-1 36 -26 61q-25 26 -63 42q-81 33 -199 33t-198 -33q-39 -16 -64 -42q-25 -25 -26 -61v-184v0
q3 -60 84 -94q82 -33 204 -34q122 1 204 34q81 34 84 94v0zM544 184q-37 31 -104 48v0v0q-67 17 -152 17t-152 -17t-104 -48v121v0q-1 42 70 73q73 30 186 31q113 -1 186 -31q71 -31 70 -73v-121v0z" />
</svg>
