<?xml version="1.0" standalone="no"?>
<!DOCTYPE svg PUBLIC "-//W3C//DTD SVG 1.1//EN" "http://www.w3.org/Graphics/SVG/1.1/DTD/svg11.dtd" >
<svg xmlns="http://www.w3.org/2000/svg" xmlns:xlink="http://www.w3.org/1999/xlink" version="1.1" viewBox="-10 -40 596 512">
   <path fill="currentColor"
d="M37 -34q11 -10 22 0l98 97v0l64 -64v0q22 -21 51 -21t51 21l151 151v0q21 22 21 51t-21 51l-190 190v0q-30 29 -68 29t-68 -29l-117 -117v0q-29 -30 -29 -68t29 -68l103 -103v0l-97 -98v0q-10 -11 0 -22v0zM245 196l-88 -88l88 88l-88 -88l-104 104v0q-15 16 -18 37h397
v0l20 -20v0q11 -12 11 -28t-11 -28l-152 -152v0q-12 -11 -28 -11t-28 11l-65 65v0l88 88v0q10 11 0 22q-11 10 -22 0v0zM39 281q5 12 14 21l118 118v0q19 18 45 18q25 0 45 -18l139 -139v0h-361v0zM544 409v0v0v0v0v0v0l-1 -3q0 -4 -2 -9q-5 -12 -12 -26q-8 -16 -17 -31
q-9 15 -17 31q-7 14 -12 26q-2 5 -2 9l-1 3v0v0q0 14 9 23t23 9t23 -9t9 -23v0zM576 409q-1 27 -19 45v0v0q-18 18 -45 19q-27 -1 -45 -19t-19 -45q1 -21 19 -53q17 -32 32 -56q5 -7 13 -7t13 7q15 24 32 56q18 32 19 53v0z" />
</svg>
