<?xml version="1.0" standalone="no"?>
<!DOCTYPE svg PUBLIC "-//W3C//DTD SVG 1.1//EN" "http://www.w3.org/Graphics/SVG/1.1/DTD/svg11.dtd" >
<svg xmlns="http://www.w3.org/2000/svg" xmlns:xlink="http://www.w3.org/1999/xlink" version="1.1" viewBox="-10 -40 532 512">
   <path fill="currentColor"
d="M480 217q-1 -61 -30 -112v0v0q-30 -51 -82 -82q-53 -30 -112 -30t-112 30q-52 31 -82 82q-29 51 -30 112q1 61 30 112q30 51 82 82q53 30 112 30t112 -30q52 -31 82 -82q29 -51 30 -112v0zM0 217q1 -70 34 -128v0v0q34 -58 94 -94q61 -34 128 -34t128 34q60 36 94 94
q33 58 34 128q-1 70 -34 128q-34 58 -94 94q-61 34 -128 34t-128 -34q-60 -36 -94 -94q-33 -58 -34 -128v0zM176 145q22 2 24 24q-2 22 -24 24q-22 -2 -24 -24q2 -22 24 -24v0zM312 169q2 -22 24 -24q22 2 24 24q-2 22 -24 24q-22 -2 -24 -24v0zM334 361q-34 -14 -74 -15
q-41 1 -74 15q-19 7 -33 -3q-16 -13 -9 -34q15 -34 45 -54q31 -21 71 -21q39 0 70 21q31 20 46 54q7 21 -9 34q-15 10 -33 3v0zM260 281q-28 0 -50 14v0v0q-22 13 -34 35q39 -15 84 -16q45 1 84 16q-12 -22 -34 -35q-22 -14 -50 -14v0z" />
</svg>
