<?xml version="1.0" standalone="no"?>
<!DOCTYPE svg PUBLIC "-//W3C//DTD SVG 1.1//EN" "http://www.w3.org/Graphics/SVG/1.1/DTD/svg11.dtd" >
<svg xmlns="http://www.w3.org/2000/svg" xmlns:xlink="http://www.w3.org/1999/xlink" version="1.1" viewBox="-10 -40 532 512">
   <path fill="currentColor"
d="M256 -7q-61 1 -112 30v0v0q-51 30 -82 82q-30 53 -30 112t30 112q31 52 82 82q51 29 112 30q61 -1 112 -30q51 -30 82 -82q30 -53 30 -112t-30 -112q-31 -52 -82 -82q-51 -29 -112 -30v0zM512 217q-1 70 -34 128v0v0q-34 58 -94 94q-61 34 -128 34t-128 -34
q-60 -36 -94 -94q-33 -58 -34 -128q1 -70 34 -128q34 -58 94 -94q61 -34 128 -34t128 34q60 36 94 94q33 58 34 128v0zM168 281q-22 2 -24 24q2 22 24 24h8v0v-48v0h-8v0zM208 329h32h-32h32v-48v0h-32v0v48v0zM304 329v-48v48v-48h-32v0v48v0h32v0zM336 329h8h-8h8
q22 -2 24 -24q-2 -22 -24 -24h-8v0v48v0zM168 249h176h-176h176q24 1 40 16q15 16 16 40q-1 24 -16 40q-16 15 -40 16h-176v0q-24 -1 -40 -16q-15 -16 -16 -40q1 -24 16 -40q16 -15 40 -16v0zM152 169q2 -22 24 -24q22 2 24 24q-2 22 -24 24q-22 -2 -24 -24v0zM336 145
q22 2 24 24q-2 22 -24 24q-22 -2 -24 -24q2 -22 24 -24v0z" />
</svg>
