<?xml version="1.0" standalone="no"?>
<!DOCTYPE svg PUBLIC "-//W3C//DTD SVG 1.1//EN" "http://www.w3.org/Graphics/SVG/1.1/DTD/svg11.dtd" >
<svg xmlns="http://www.w3.org/2000/svg" xmlns:xlink="http://www.w3.org/1999/xlink" version="1.1" viewBox="-10 -40 532 512">
   <path fill="currentColor"
d="M421 52q2 -10 5 -20q3 -14 7 -23q3 -8 4 -9v0q1 0 0 0q17 -14 35 1q15 18 1 35v0v0q0 1 -9 4q-9 4 -23 8l-20 4v0zM384 78q0 11 11 11q22 -3 54 -10q32 -8 47 -21q16 -17 16 -40q0 -22 -17 -40q-18 -17 -40 -17q-23 0 -40 16q-13 15 -21 47q-7 33 -10 54v0zM32 217
q1 -63 31 -113v0v0q29 -51 80 -80v0v0q50 -30 113 -31q47 0 88 18q14 5 21 -8q5 -14 -8 -21q-47 -21 -101 -21q-72 1 -129 35q-58 34 -92 92q-34 57 -35 129q0 55 21 102q7 13 21 9q13 -7 9 -21q-19 -42 -19 -90v0zM491 115q-7 -13 -21 -9q-13 7 -9 21q19 42 19 90
q-1 63 -31 113q-30 51 -80 80q-51 30 -113 31q-49 0 -91 -19q-14 -5 -21 8q-5 14 8 21q48 22 104 22q71 -1 129 -35t92 -92q34 -57 35 -129q0 -55 -21 -102v0zM325 286q34 -33 58 -69q1 51 -36 91q-40 37 -91 36q36 -24 69 -58v0zM405 164q-4 -9 -13 -9v0v0q-9 0 -14 9
q-28 52 -75 100q-48 47 -100 75q-9 5 -9 14q0 8 9 13q42 16 87 7t79 -43q34 -35 43 -79q9 -45 -7 -87v0zM105 245q6 13 20 10l38 -12v0l-13 37v0q-3 14 10 20q14 4 20 -10l23 -68v0q3 -9 -4 -16t-16 -4l-68 23v0q-14 6 -10 20v0zM294 86q3 -14 -10 -20q-14 -4 -20 10l-23 68
v0q-2 9 4 16q7 7 16 4l68 -23v0q14 -5 10 -20q-5 -13 -20 -10l-37 13v0l12 -38v0zM71 386l20 -4l-4 20q-4 14 -8 23q-3 8 -4 9v0q-1 0 0 0q-17 14 -35 -1q-15 -18 -1 -35v0v0l8 -4q10 -4 24 -8v0zM117 345q-22 3 -54 10v0v0q-32 8 -47 21q-16 17 -16 40q0 22 17 40
q18 17 40 17q23 0 40 -16q13 -15 21 -47q7 -33 10 -54q0 -11 -11 -11v0z" />
</svg>
