<?xml version="1.0" standalone="no"?>
<!DOCTYPE svg PUBLIC "-//W3C//DTD SVG 1.1//EN" "http://www.w3.org/Graphics/SVG/1.1/DTD/svg11.dtd" >
<svg xmlns="http://www.w3.org/2000/svg" xmlns:xlink="http://www.w3.org/1999/xlink" version="1.1" viewBox="-10 -40 532 512">
   <path fill="currentColor"
d="M256 -7q-63 1 -113 31v0v0q-51 29 -80 80v0v0q-30 50 -31 113q1 60 29 110q28 49 76 80q11 8 5 22q-9 11 -23 5q-54 -35 -86 -91q-32 -57 -33 -126q1 -72 35 -129q34 -58 92 -92q57 -34 129 -35q72 1 129 35q58 34 92 92q34 57 35 129q-1 69 -33 126q-32 56 -86 91
q-14 6 -23 -5q-6 -14 5 -22q48 -31 76 -80q28 -50 29 -110q-1 -63 -31 -113q-29 -51 -80 -80q-50 -30 -113 -31v0zM352 344v33v-33v33q-1 41 -28 68t-68 28q-41 -1 -68 -28t-28 -68v-33v0q-31 -24 -47 -59q-3 -10 3 -16q7 -6 16 -3q57 17 124 17t124 -17q10 -3 16 3t3 16
q-16 35 -47 59v0zM320 340q-2 -25 -27 -27h-2v0q-18 1 -23 19q-3 9 -12 9t-12 -9q-5 -18 -23 -19h-2v0q-25 2 -27 27v37v0q1 27 19 45t45 19q27 -1 45 -19t19 -45v-37v0zM336 217q27 -1 42 -24q12 -24 0 -48q-15 -23 -42 -24q-27 1 -42 24q-12 24 0 48q15 23 42 24v0z
M336 89q45 1 69 40q22 40 0 80q-24 39 -69 40q-45 -1 -69 -40q-22 -40 0 -80q24 -39 69 -40v0zM125 195q-10 11 -23 3q-10 -10 -3 -23q25 -30 61 -30t61 30q7 13 -3 23q-13 7 -23 -3q-14 -18 -35 -18t-35 18v0zM336 145q22 2 24 24q-2 22 -24 24q-22 -2 -24 -24
q2 -22 24 -24v0z" />
</svg>
