<?xml version="1.0" standalone="no"?>
<!DOCTYPE svg PUBLIC "-//W3C//DTD SVG 1.1//EN" "http://www.w3.org/Graphics/SVG/1.1/DTD/svg11.dtd" >
<svg xmlns="http://www.w3.org/2000/svg" xmlns:xlink="http://www.w3.org/1999/xlink" version="1.1" viewBox="-10 -40 532 512">
   <path fill="currentColor"
d="M32 249q1 -63 31 -113v0v0q29 -51 80 -80v0v0q50 -30 113 -31q63 1 113 31q51 29 80 80q30 50 31 113v112v0q1 15 16 16q15 -1 16 -16v-112v0q-1 -72 -35 -129q-34 -58 -92 -92q-57 -34 -129 -35q-72 1 -129 35q-58 34 -92 92q-34 57 -35 129v112v0q1 15 16 16
q15 -1 16 -16v-112v0zM160 249v160v-160v160h-16v0q-20 -1 -34 -14q-13 -14 -14 -34v-64v0q1 -20 14 -34q14 -13 34 -14h16v0zM144 217q-34 1 -57 23v0v0q-22 23 -23 57v64v0q1 34 23 57q23 22 57 23h16v0q14 0 23 -9t9 -23v-160v0q0 -14 -9 -23t-23 -9h-16v0zM352 249h16
h-16h16q20 1 34 14q13 14 14 34v64v0q-1 20 -14 34q-14 13 -34 14h-16v0v-160v0zM368 217h-16h16h-16q-14 0 -23 9t-9 23v160v0q0 14 9 23t23 9h16v0q34 -1 57 -23q22 -23 23 -57v-64v0q-1 -34 -23 -57q-23 -22 -57 -23v0z" />
</svg>
