<?xml version="1.0" standalone="no"?>
<!DOCTYPE svg PUBLIC "-//W3C//DTD SVG 1.1//EN" "http://www.w3.org/Graphics/SVG/1.1/DTD/svg11.dtd" >
<svg xmlns="http://www.w3.org/2000/svg" xmlns:xlink="http://www.w3.org/1999/xlink" version="1.1" viewBox="-10 -40 532 512">
   <path fill="currentColor"
d="M240 -39q-15 1 -16 16q2 56 47 88l16 11v0q32 22 33 61q1 15 16 16q15 -1 16 -16q-2 -56 -47 -88l-16 -11v0q-32 -22 -33 -61q-1 -15 -16 -16v0zM32 297v-16v16v-16v-32v0h240v0h2h2h1h171v0q14 0 23 9t9 23v128v0q0 14 -9 23t-23 9h-384v0q-14 0 -23 -9t-9 -23v-112v0z
M203 217h-171h171h-171q1 -27 19 -45t45 -19q21 0 38 13l69 51v0zM0 233v48v-48v48v16v0v112v0q1 27 19 45t45 19h384v0q27 -1 45 -19t19 -45v-128v0q-1 -27 -19 -45t-45 -19h-171v0q-21 0 -38 -13l-85 -64v0q-26 -19 -58 -19q-41 1 -68 28t-28 68v16v0zM384 -23
q-1 -15 -16 -16q-15 1 -16 16q2 56 47 88l16 11v0q32 22 33 61q1 15 16 16q15 -1 16 -16q-2 -56 -47 -88l-16 -11v0q-32 -22 -33 -61v0zM112 297q-15 1 -16 16v80v0q1 15 16 16q15 -1 16 -16v-80v0q-1 -15 -16 -16v0zM208 297q-15 1 -16 16v80v0q1 15 16 16q15 -1 16 -16
v-80v0q-1 -15 -16 -16v0zM304 297q-15 1 -16 16v80v0q1 15 16 16q15 -1 16 -16v-80v0q-1 -15 -16 -16v0zM400 297q-15 1 -16 16v80v0q1 15 16 16q15 -1 16 -16v-80v0q-1 -15 -16 -16v0zM32 25q0 -14 9 -23v0v0q9 -9 23 -9t23 9t9 23t-9 23t-23 9t-23 -9t-9 -23v0zM128 25
q-1 -36 -32 -55q-32 -18 -64 0q-31 19 -32 55q1 36 32 55q32 18 64 0q31 -19 32 -55v0z" />
</svg>
