<?xml version="1.0" standalone="no"?>
<!DOCTYPE svg PUBLIC "-//W3C//DTD SVG 1.1//EN" "http://www.w3.org/Graphics/SVG/1.1/DTD/svg11.dtd" >
<svg xmlns="http://www.w3.org/2000/svg" xmlns:xlink="http://www.w3.org/1999/xlink" version="1.1" viewBox="-10 -40 660 512">
   <path fill="currentColor"
d="M0 -23q1 -15 16 -16h64v0q20 1 34 14q13 14 14 34v320v0q1 15 16 16h80h400q15 1 16 16q-1 15 -16 16h-57v0q9 14 9 32q-1 27 -19 45t-45 19q-27 -1 -45 -19t-19 -45q0 -18 9 -32h-178v0q9 14 9 32q-1 27 -19 45t-45 19q-27 -1 -45 -19t-19 -45q0 -18 9 -32h-25v0
q-20 -1 -34 -14q-13 -14 -14 -34v-320v0q-1 -15 -16 -16h-64v0q-15 -1 -16 -16v0zM512 377q-14 0 -23 9v0v0q-9 9 -9 23t9 23t23 9t23 -9t9 -23t-9 -23t-23 -9v0zM192 409q0 14 9 23v0v0q9 9 23 9t23 -9t9 -23t-9 -23t-23 -9t-23 9t-9 23v0zM336 -7q-15 1 -16 16v32v0h128v0
v-32v0q-1 -15 -16 -16h-96v0zM480 41h32h-32h32q27 1 45 19t19 45v112v0q-1 27 -19 45t-45 19h-256v0q-27 -1 -45 -19t-19 -45v-112v0q1 -27 19 -45t45 -19h32v0v-32v0q1 -20 14 -34q14 -13 34 -14h96v0q20 1 34 14q13 14 14 34v32v0zM272 73h-16h16h-16q-14 0 -23 9t-9 23
v112v0q0 14 9 23t23 9h16v0v-176v0zM304 249h160h-160h160v-176v0h-160v0v176v0zM496 249h16h-16h16q14 0 23 -9t9 -23v-112v0q0 -14 -9 -23t-23 -9h-16v0v176v0z" />
</svg>
