<?xml version="1.0" standalone="no"?>
<!DOCTYPE svg PUBLIC "-//W3C//DTD SVG 1.1//EN" "http://www.w3.org/Graphics/SVG/1.1/DTD/svg11.dtd" >
<svg xmlns="http://www.w3.org/2000/svg" xmlns:xlink="http://www.w3.org/1999/xlink" version="1.1" viewBox="-10 -40 532 512">
   <path fill="currentColor"
d="M106 153q12 -12 25 -22l-92 -138v0h103v0l62 103v0q16 -5 33 -6l-68 -113v0q-9 -15 -27 -16h-117v0q-23 2 -25 25q0 7 4 13l102 154v0zM275 90q17 1 34 6l61 -103v0h104v0l-92 138v0q12 10 24 22l102 -154v0q4 -6 4 -13q-2 -23 -25 -25h-117v0q-18 1 -27 16l-68 113v0z
M256 153q39 0 72 19v0v0q33 19 53 53q19 34 19 72t-19 72q-20 34 -53 53t-72 19t-72 -19t-53 -53q-19 -34 -19 -72t19 -72q20 -34 53 -53t72 -19v0zM256 473q48 0 88 -24v0v0q40 -23 64 -64q24 -42 24 -88t-24 -88q-24 -41 -64 -64q-40 -24 -88 -24t-88 24q-40 23 -64 64
q-24 42 -24 88t24 88q24 41 64 64q40 24 88 24v0zM295 244l-17 -36l17 36l-17 -36q-8 -13 -22 -13t-21 13l-18 36v0l-38 5v0q-16 3 -20 16q-4 14 6 25l28 27v0l-6 39v0q-2 15 9 23q11 9 25 2l35 -18v0l35 18v0q14 7 25 -2q11 -8 9 -23l-6 -39v0l28 -27v0q10 -11 6 -25
q-4 -13 -19 -16l-39 -5v0zM244 262l12 -25l-12 25l12 -25l12 25v0q6 11 18 13l27 4v0l-19 18v0q-9 9 -7 22l4 26v0l-24 -12v0q-11 -6 -22 0l-24 12v0l5 -26v0q1 -13 -7 -22l-20 -18v0l27 -4v0q12 -2 18 -13v0z" />
</svg>
