<?xml version="1.0" standalone="no"?>
<!DOCTYPE svg PUBLIC "-//W3C//DTD SVG 1.1//EN" "http://www.w3.org/Graphics/SVG/1.1/DTD/svg11.dtd" >
<svg xmlns="http://www.w3.org/2000/svg" xmlns:xlink="http://www.w3.org/1999/xlink" version="1.1" viewBox="-10 -40 596 512">
   <path fill="currentColor"
d="M535 2q-10 -9 -23 -9v0v0q-13 0 -23 9l-164 165v0l45 45v0l165 -164v0q9 -10 9 -23t-9 -23v0zM302 190l-37 36l37 -36l-37 36v0v0l-40 41v0l45 45v0l5 -4v0v0v0l36 -36v0l36 -37v0l-45 -45v0zM196 284q-10 -3 -20 -3q-34 1 -57 23q-22 23 -23 57v8q3 26 -12 47
q-15 23 -47 25h139v0q34 -1 57 -23q22 -23 23 -57q0 -10 -2 -20l-58 -58v1zM557 70l-271 271l271 -271l-271 271q2 10 2 20q-1 48 -33 79q-31 32 -79 33h-144v0q-14 0 -23 -9t-9 -23t9 -23t23 -9h5v0q13 -1 21 -12t7 -24q-1 -6 -1 -12q1 -48 33 -79q31 -32 79 -33q10 0 20 2
l271 -271v0q19 -19 45 -19q25 0 45 19q19 19 19 45q0 25 -19 45v0z" />
</svg>
