<?xml version="1.0" standalone="no"?>
<!DOCTYPE svg PUBLIC "-//W3C//DTD SVG 1.1//EN" "http://www.w3.org/Graphics/SVG/1.1/DTD/svg11.dtd" >
<svg xmlns="http://www.w3.org/2000/svg" xmlns:xlink="http://www.w3.org/1999/xlink" version="1.1" viewBox="-10 -40 660 512">
   <path fill="currentColor"
d="M159 66q18 -7 36 -1l180 66v0q7 2 13 -1l88 -45v0q24 -12 51 -12h61v0q10 0 14 8q5 7 2 17q-25 51 -75 77l-273 136v0q-4 2 -8 2h-139v0q-6 0 -11 -5l-64 -63v0l24 -14v0q7 -4 14 -1l57 26v0q7 3 14 -1l115 -59v0q8 -4 9 -13q0 -9 -8 -15l-137 -85v0l-7 -14v0l7 14v0
l37 -17v0zM206 35q-31 -11 -60 2l-37 17v0q-18 9 -19 27t15 29l114 71v0l-83 42v0l-51 -22v0l-6 14v0l6 -14v0q-22 -9 -43 2l-24 14v0q-14 8 -16 23t9 27l64 64v0q14 14 34 14h139v0q12 0 22 -5l273 -137v0q61 -31 90 -92q10 -26 -4 -47q-13 -22 -41 -23h-61v0q-35 0 -66 16
l-81 42v0l-174 -64v0zM16 441q-15 1 -16 16q1 15 16 16h608v0q15 -1 16 -16q-1 -15 -16 -16h-608v0z" />
</svg>
