<?xml version="1.0" standalone="no"?>
<!DOCTYPE svg PUBLIC "-//W3C//DTD SVG 1.1//EN" "http://www.w3.org/Graphics/SVG/1.1/DTD/svg11.dtd" >
<svg xmlns="http://www.w3.org/2000/svg" xmlns:xlink="http://www.w3.org/1999/xlink" version="1.1" viewBox="-10 -40 660 512">
   <path fill="currentColor"
d="M32 49v104v-104v104h128v0v-128v0h-104v0q-22 2 -24 24v0zM32 185v104v-104v104q2 22 24 24h14v0q10 -28 34 -46q24 -17 56 -18q32 1 56 18q24 18 35 46h139v0q10 -28 34 -46q24 -17 56 -18q32 1 56 18q24 18 35 46h13v0q22 -2 24 -24v-104v0h-240h-336zM192 153h160
h-160h160v-128v0h-160v0v128v0zM384 153h204h-204h204l-110 -123v0q-5 -5 -12 -5h-82v0v128v0zM584 345h-8h8h-8q-1 41 -28 68t-68 28q-41 -1 -68 -28t-28 -68h-128v0q-1 41 -28 68t-68 28q-41 -1 -68 -28t-28 -68h-8v0q-24 -1 -40 -16q-15 -16 -16 -40v-240v0q1 -24 16 -40
q16 -15 40 -16h120h290q21 0 35 16l127 140v0q12 14 12 32v108v0q-1 24 -16 40q-16 15 -40 16v0zM544 345q-1 -36 -32 -55q-32 -18 -64 0q-31 19 -32 55q1 36 32 55q32 18 64 0q31 -19 32 -55v0zM160 409q36 -1 55 -32q18 -32 0 -64q-19 -31 -55 -32q-36 1 -55 32
q-18 32 0 64q19 31 55 32v0z" />
</svg>
