<?xml version="1.0" standalone="no"?>
<!DOCTYPE svg PUBLIC "-//W3C//DTD SVG 1.1//EN" "http://www.w3.org/Graphics/SVG/1.1/DTD/svg11.dtd" >
<svg xmlns="http://www.w3.org/2000/svg" xmlns:xlink="http://www.w3.org/1999/xlink" version="1.1" viewBox="-10 -40 532 512">
   <path fill="currentColor"
d="M480 217q-1 -61 -30 -112v0v0q-30 -51 -82 -82q-53 -30 -112 -30t-112 30q-52 31 -82 82q-29 51 -30 112q1 61 30 112q30 51 82 82q53 30 112 30t112 -30q52 -31 82 -82q29 -51 30 -112v0zM0 217q1 -70 34 -128v0v0q34 -58 94 -94q61 -34 128 -34t128 34q60 36 94 94
q33 58 34 128q-1 70 -34 128q-34 58 -94 94q-61 34 -128 34t-128 -34q-60 -36 -94 -94q-33 -58 -34 -128v0zM164 287q14 16 36 29v0v0q23 12 56 13q33 -1 56 -13q22 -13 36 -29q11 -11 23 -2q10 11 1 23q-17 20 -46 36t-70 17q-41 -1 -70 -17t-46 -36q-9 -12 2 -23
q11 -9 22 2v0zM157 156q-10 11 -13 25q-5 14 -20 12q-14 -5 -11 -20q4 -20 20 -38q15 -20 43 -22q28 2 44 22q15 18 20 38q2 15 -12 20q-15 2 -19 -12t-13 -25q-10 -11 -20 -11t-19 11v0zM304 181q-5 14 -20 12q-14 -5 -11 -20q4 -20 20 -38q15 -20 43 -22q28 2 44 22
q15 18 20 38q2 15 -12 20q-14 2 -19 -12q-4 -14 -13 -25q-10 -11 -20 -11t-19 11q-10 11 -13 25v0z" />
</svg>
