<?xml version="1.0" standalone="no"?>
<!DOCTYPE svg PUBLIC "-//W3C//DTD SVG 1.1//EN" "http://www.w3.org/Graphics/SVG/1.1/DTD/svg11.dtd" >
<svg xmlns="http://www.w3.org/2000/svg" xmlns:xlink="http://www.w3.org/1999/xlink" version="1.1" viewBox="-10 -40 660 512">
   <path fill="currentColor"
d="M560 -23v64v-64v64h64v0q15 1 16 16q-1 15 -16 16h-64v0v64v0q-1 15 -16 16q-15 -1 -16 -16v-64v0h-64v0q-15 -1 -16 -16q1 -15 16 -16h64v0v-64v0q1 -15 16 -16q15 1 16 16v0zM416 249q0 -52 -26 -96v0v0q-25 -44 -70 -70t-96 -26t-96 26t-70 70q-26 44 -26 96t26 96
q25 44 70 70t96 26t96 -26t70 -70q26 -44 26 -96v0zM0 249q1 -61 30 -112v0v0q30 -51 82 -82q53 -30 112 -30t112 30q52 31 82 82q29 51 30 112q-1 61 -30 112q-30 51 -82 82q-53 30 -112 30t-112 -30q-52 -31 -82 -82q-29 -51 -30 -112v0zM144 177q22 2 24 24q-2 22 -24 24
q-22 -2 -24 -24q2 -22 24 -24v0zM280 201q2 -22 24 -24q22 2 24 24q-2 22 -24 24q-22 -2 -24 -24v0zM127 291q7 19 32 44q24 24 65 26q41 -2 65 -26q25 -25 32 -44q7 -13 21 -9q13 7 9 21q-9 26 -40 56q-32 31 -87 34q-55 -3 -87 -34q-31 -30 -40 -56q-4 -14 9 -21
q14 -4 21 9v0z" />
</svg>
