<?xml version="1.0" standalone="no"?>
<!DOCTYPE svg PUBLIC "-//W3C//DTD SVG 1.1//EN" "http://www.w3.org/Graphics/SVG/1.1/DTD/svg11.dtd" >
<svg xmlns="http://www.w3.org/2000/svg" xmlns:xlink="http://www.w3.org/1999/xlink" version="1.1" viewBox="-10 -40 522 512">
   <path fill="currentColor"
d="M175 399q-38 12 -62 10v0v0q-24 -3 -35 -14t-14 -35q-2 -24 10 -62q8 -24 23 -51q25 36 59 70t70 60q-26 14 -51 22v0zM56 17q-29 30 -23 84v0v0q7 53 44 116q-37 63 -44 116q-6 54 23 84q30 29 84 23q53 -7 116 -44q63 37 116 44q54 6 84 -23q29 -30 23 -84
q-7 -53 -44 -116q37 -63 44 -116q6 -54 -23 -84q-30 -29 -84 -23q-53 7 -116 44q-63 -37 -116 -44q-54 -6 -84 23v0zM179 295q-38 -39 -64 -78q26 -39 64 -77t77 -64q39 26 78 64q37 38 63 77q-26 39 -63 78q-39 37 -78 63q-39 -26 -77 -63v0zM156 117q-34 34 -60 70
q-14 -27 -22 -51q-12 -38 -10 -62q3 -24 14 -35t35 -14q24 -2 62 10q24 8 51 22q-36 26 -70 60v0zM356 117q-34 -34 -70 -60q27 -14 51 -22q38 -12 62 -10q24 3 35 14t14 35q2 24 -10 62q-8 24 -23 51q-25 -36 -59 -70v0zM356 317q34 -34 60 -70q14 27 22 51q12 38 10 62
q-3 24 -14 35t-35 14q-24 2 -62 -10q-24 -8 -51 -23q36 -25 70 -59v0zM256 241q22 -2 24 -24q-2 -22 -24 -24q-22 2 -24 24q2 22 24 24v0z" />
</svg>
