<?xml version="1.0" standalone="no"?>
<!DOCTYPE svg PUBLIC "-//W3C//DTD SVG 1.1//EN" "http://www.w3.org/Graphics/SVG/1.1/DTD/svg11.dtd" >
<svg xmlns="http://www.w3.org/2000/svg" xmlns:xlink="http://www.w3.org/1999/xlink" version="1.1" viewBox="-10 -40 660 512">
   <path fill="currentColor"
d="M320 -39q-15 1 -16 16v96v0q1 15 16 16q15 -1 16 -16v-96v0q-1 -15 -16 -16v0zM165 30q-10 11 0 22l64 64v0q11 10 22 0q10 -11 0 -22l-64 -64v0q-11 -10 -22 0v0zM475 30q-11 -10 -22 0l-64 64v0q-10 11 0 22q11 10 22 0l64 -64v0q10 -11 0 -22v0zM271 205
q-5 -13 -20 -11l-73 20v0q-7 1 -10 -5q-14 -29 -42 -43q-28 -13 -61 -5q-36 11 -53 41q-18 30 -9 67q11 38 44 55q8 5 4 14q-20 31 -11 70q11 36 41 53q31 18 67 9q32 -9 50 -35q17 -25 15 -58q0 -6 6 -9l74 -19v0q13 -6 11 -20q-5 -14 -20 -11l-73 19v0q-16 5 -23 17
q-8 12 -7 26q2 21 -10 37q-11 16 -31 22q-23 6 -43 -5q-19 -11 -26 -34q-6 -25 7 -45q10 -16 5 -33q-4 -17 -21 -26q-21 -11 -28 -35q-6 -24 6 -43q11 -19 34 -26q20 -5 38 3q18 9 27 27q6 13 19 20q12 6 28 3l74 -20v0q13 -5 11 -20v0zM389 194q-15 -2 -20 11q-2 15 12 20
l73 20v0q16 3 28 -3q13 -7 19 -20q9 -18 27 -27q18 -8 39 -3q22 7 34 26q11 19 5 43q-7 24 -28 35q-16 9 -21 26t5 33q13 20 7 45q-7 22 -26 34q-20 11 -43 5q-20 -6 -31 -22t-10 -37q1 -14 -7 -26q-7 -12 -23 -17l-73 -19v0q-15 -3 -20 11q-2 14 12 20l73 19v0q6 3 6 9
q-2 32 15 58q18 26 50 35q36 9 67 -9q30 -17 41 -53q9 -39 -11 -70q-4 -9 4 -14q33 -17 44 -55q9 -37 -9 -67q-17 -31 -53 -41q-32 -8 -60 5q-29 14 -43 43q-3 6 -10 5l-73 -20v0z" />
</svg>
