<?xml version="1.0" standalone="no"?>
<!DOCTYPE svg PUBLIC "-//W3C//DTD SVG 1.1//EN" "http://www.w3.org/Graphics/SVG/1.1/DTD/svg11.dtd" >
<svg xmlns="http://www.w3.org/2000/svg" xmlns:xlink="http://www.w3.org/1999/xlink" version="1.1" viewBox="-10 -40 532 512">
   <path fill="currentColor"
d="M144 36q-1 11 -12 14q-16 5 -26 17q-10 13 -10 30q0 5 1 9q2 13 -10 18q-29 12 -31 45q0 8 2 15q3 10 -4 17q-21 18 -22 48q1 36 30 54q11 8 7 20q-5 10 -5 22q1 24 16 40q16 15 40 16q5 0 10 -1q12 -1 17 10q12 29 45 31q20 -1 34 -14q13 -14 14 -34v-352v0
q-1 -20 -14 -34q-14 -13 -34 -14q-19 0 -33 13q-13 12 -15 30v0zM256 441q-23 31 -64 32q-47 -2 -69 -40h-2h-1q-37 -1 -62 -26t-26 -62q0 -11 3 -22q-33 -28 -35 -74q1 -39 25 -65q-1 -7 -1 -15q2 -47 40 -69v-2v-1q0 -26 14 -45q14 -20 36 -29q7 -27 28 -44t50 -18
q41 1 64 32q23 -31 64 -32q29 1 50 18t28 44q22 9 36 29q14 19 14 45v1v2q38 22 40 69q0 8 -1 15q24 27 25 65q-1 46 -35 74q3 11 3 22q-1 37 -26 62t-62 26h-1h-2q-22 38 -69 40q-41 -1 -64 -32v0zM272 393q1 20 14 34v0v0q14 13 34 14q33 -2 45 -31q5 -11 17 -10q5 1 10 1
q24 -1 39 -16q16 -16 17 -40q0 -12 -4 -22q-5 -12 6 -20q29 -18 30 -54q-1 -30 -22 -48q-7 -7 -4 -17q2 -7 2 -15q-2 -33 -31 -45q-11 -5 -10 -18q1 -4 1 -9q0 -17 -10 -30q-10 -12 -26 -17q-11 -3 -12 -14q-2 -18 -16 -30q-13 -13 -32 -13q-20 1 -34 14q-13 14 -14 34v352
v0z" />
</svg>
