<?xml version="1.0" standalone="no"?>
<!DOCTYPE svg PUBLIC "-//W3C//DTD SVG 1.1//EN" "http://www.w3.org/Graphics/SVG/1.1/DTD/svg11.dtd" >
<svg xmlns="http://www.w3.org/2000/svg" xmlns:xlink="http://www.w3.org/1999/xlink" version="1.1" viewBox="-10 -40 650 512">
   <path fill="currentColor"
d="M132 49l172 -46l-172 46l172 -46q34 -7 54 21l48 78v0q-7 1 -14 3l-285 76v0q-7 2 -13 5l2 -92v0q3 -34 36 -45v0zM61 204v5v-5v5q-34 38 -22 90l22 82v0l4 16v0v0v0l16 59v0q5 13 19 11q13 -5 11 -19l-12 -44v0l1 -1v0l409 -109v0h1v0l12 44v0q5 13 19 10q13 -4 10 -18
l-11 -44v0v0v0l-9 -31v0l-22 -82v0q-16 -51 -63 -67l-3 -4v0l-58 -95v0q-15 -23 -39 -32q-24 -10 -50 -3l-173 46v0q-26 8 -42 28t-17 47l-3 111v0zM115 212l285 -76l-285 76l285 -76q26 -7 49 6q22 13 29 39l22 82v0l-408 110v0l-22 -83v0q-6 -26 6 -48q13 -22 39 -30v0z
M157 270q-7 -20 -28 -16q-19 7 -16 28q8 19 28 16q20 -7 16 -28v0zM420 223q20 -7 17 -28q-8 -20 -28 -16q-20 7 -17 28q8 20 28 16v0zM464 459q3 -22 19 -36v0v0q16 -14 39 -14t39 14q15 14 19 36q4 14 18 14q14 -4 14 -18q-6 -34 -30 -56q-25 -21 -60 -22q-35 1 -60 22
q-24 22 -30 56q-1 14 14 18q15 1 18 -14v0z" />
</svg>
