<?xml version="1.0" standalone="no"?>
<!DOCTYPE svg PUBLIC "-//W3C//DTD SVG 1.1//EN" "http://www.w3.org/Graphics/SVG/1.1/DTD/svg11.dtd" >
<svg xmlns="http://www.w3.org/2000/svg" xmlns:xlink="http://www.w3.org/1999/xlink" version="1.1" viewBox="-10 -40 532 512">
   <path fill="currentColor"
d="M256 57q14 0 23 -9v0v0q9 -9 9 -23t-9 -23t-23 -9t-23 9t-9 23t9 23t23 9v0zM315 51q-18 36 -59 38q-41 -2 -58 -38q-38 14 -66 42t-42 66q36 17 38 58q-2 41 -38 59q14 37 42 65t66 42q17 -36 58 -38q41 2 59 38q37 -14 65 -42t42 -65q-36 -18 -38 -59q2 -41 38 -58
q-14 -38 -42 -66t-65 -42v0zM454 153q25 3 41 21v0v0q16 17 17 43q-1 26 -17 43q-16 18 -41 21q-16 48 -51 83t-83 51q-3 25 -21 41q-17 16 -43 17q-26 -1 -43 -17q-18 -16 -21 -41q-48 -16 -83 -51t-51 -83q-25 -3 -41 -21q-16 -17 -17 -43q1 -26 17 -43q16 -18 41 -21
q16 -48 51 -83t83 -51q3 -25 21 -41q17 -16 43 -17q26 1 43 17q18 16 21 41q48 16 83 51t51 83v0zM256 441q14 0 23 -9v0v0q9 -9 9 -23t-9 -23t-23 -9t-23 9t-9 23t9 23t23 9v0zM96 217q0 -14 -9 -23v0v0q-9 -9 -23 -9t-23 9t-9 23t9 23t23 9t23 -9t9 -23v0zM448 249
q14 0 23 -9v0v0q9 -9 9 -23t-9 -23t-23 -9t-23 9t-9 23t9 23t23 9v0z" />
</svg>
