<?xml version="1.0" standalone="no"?>
<!DOCTYPE svg PUBLIC "-//W3C//DTD SVG 1.1//EN" "http://www.w3.org/Graphics/SVG/1.1/DTD/svg11.dtd" >
<svg xmlns="http://www.w3.org/2000/svg" xmlns:xlink="http://www.w3.org/1999/xlink" version="1.1" viewBox="-10 -40 404 512">
   <path fill="currentColor"
d="M352 153q-2 -68 -47 -113v0v0q-45 -45 -113 -47q-68 2 -113 47t-47 113v176v0q1 48 33 79q31 32 79 33q48 -1 79 -33q32 -31 33 -79q1 -26 23 -41q33 -22 53 -57t20 -78v0zM384 153q-1 51 -24 93v0v0q-24 42 -64 69q-8 5 -8 14q-2 61 -42 102q-41 40 -102 42
q-61 -2 -102 -42q-40 -41 -42 -102v-176v0q2 -82 56 -136t136 -56q82 2 136 56t56 136v0zM112 153v6v-6v6q0 17 14 27l9 6v0q24 17 25 46q-1 26 -20 43l-34 28v0q-12 9 -22 -2q-9 -12 2 -22l33 -28v0q9 -8 9 -19q0 -12 -11 -19l-9 -6v0q-27 -20 -28 -54v-6v0q1 -48 33 -79
q31 -32 79 -33q48 1 79 33q32 31 33 79v16v0q-1 15 -16 16q-15 -1 -16 -16v-16v0q-1 -34 -23 -57q-23 -22 -57 -23q-34 1 -57 23q-22 23 -23 57v0z" />
</svg>
