<?xml version="1.0" standalone="no"?>
<!DOCTYPE svg PUBLIC "-//W3C//DTD SVG 1.1//EN" "http://www.w3.org/Graphics/SVG/1.1/DTD/svg11.dtd" >
<svg xmlns="http://www.w3.org/2000/svg" xmlns:xlink="http://www.w3.org/1999/xlink" version="1.1" viewBox="-10 -40 660 512">
   <path fill="currentColor"
d="M416 41q-1 15 -16 16h-80v0v32v0h16h61q19 0 35 11l52 34v0q27 20 28 53v158v0q-1 27 -19 45t-45 19h-193v0q-31 -1 -50 -24l-32 -40v0h-29v0q-20 -1 -34 -14q-13 -14 -14 -34v-64v0h-8h-56v80v0q-1 15 -16 16q-15 -1 -16 -16v-192v0q1 -15 16 -16q15 1 16 16v80v0h56h8
v-64v0q1 -20 14 -34q14 -13 34 -14h16h128v-32v0h-80v0q-15 -1 -16 -16q1 -15 16 -16h192v0q15 1 16 16v0zM304 121h-144h144h-160q-15 1 -16 16v160v0q1 15 16 16h29v0q15 0 25 12l32 40v0q10 12 25 12h193v0q14 0 23 -9t9 -23v-158v0q0 -17 -14 -26l-52 -35v0
q-8 -5 -17 -5h-61h-32v0v0v0v0zM608 185h-32h32h-32v192v0h32v0v-192v0zM576 153h32h-32h32q14 0 23 9t9 23v192v0q0 14 -9 23t-23 9h-32v0q-14 0 -23 -9t-9 -23v-192v0q0 -14 9 -23t23 -9v0zM304 153q15 1 16 16v80v0q-1 15 -16 16q-15 -1 -16 -16v-80v0q1 -15 16 -16v0z
M280 313q2 -22 24 -24q22 2 24 24q-2 22 -24 24q-22 -2 -24 -24v0z" />
</svg>
