<?xml version="1.0" standalone="no"?>
<!DOCTYPE svg PUBLIC "-//W3C//DTD SVG 1.1//EN" "http://www.w3.org/Graphics/SVG/1.1/DTD/svg11.dtd" >
<svg xmlns="http://www.w3.org/2000/svg" xmlns:xlink="http://www.w3.org/1999/xlink" version="1.1" viewBox="-10 -40 660 512">
   <path fill="currentColor"
d="M320 -39q12 1 16 12l84 336v0l37 -94v0q13 -29 45 -30h122v0q15 1 16 16q-1 15 -16 16h-122v0q-11 0 -15 10l-56 140v0q-5 10 -16 10q-11 -1 -14 -12l-79 -315v0l-82 410v0q-3 12 -15 13q-13 -1 -16 -12l-58 -232v0q-4 -11 -16 -12h-119v0q-15 -1 -16 -16q1 -15 16 -16
h119v0q17 0 30 10q12 10 17 26l40 163v0l82 -410v0q3 -12 16 -13v0z" />
</svg>
