<?xml version="1.0" standalone="no"?>
<!DOCTYPE svg PUBLIC "-//W3C//DTD SVG 1.1//EN" "http://www.w3.org/Graphics/SVG/1.1/DTD/svg11.dtd" >
<svg xmlns="http://www.w3.org/2000/svg" xmlns:xlink="http://www.w3.org/1999/xlink" version="1.1" viewBox="-10 -40 597 512">
   <path fill="currentColor"
d="M543 55l-113 -29l113 29l-113 -29l-17 63v0l-26 -26v0l14 -52v0q8 -20 29 -17l128 32v0q10 2 15 11t2 18l-42 154v0l-26 -26v0l36 -128v0zM381 147l-10 35l10 -35l-10 35q-4 16 -17 25q-12 10 -29 10h-93v0q-7 1 -8 8v176v0q1 7 8 8h224v0q6 0 8 -6l37 -136v0l-120 -120
v0zM530 251q6 7 4 16l-39 145v0q-10 27 -39 29h-224v0q-17 0 -28 -12q-12 -11 -12 -28v-176v0q0 -17 12 -28q11 -12 28 -12h93v0q12 -1 16 -12l16 -61v0q3 -9 11 -11q9 -3 16 4l146 146v0zM8 217q2 -22 24 -24q22 2 24 24q-2 22 -24 24q-22 -2 -24 -24v0zM104 265
q2 -22 24 -24q22 2 24 24q-2 22 -24 24q-22 -2 -24 -24v0zM32 289q22 2 24 24q-2 22 -24 24q-22 -2 -24 -24q2 -22 24 -24v0zM104 361q2 -22 24 -24q22 2 24 24q-2 22 -24 24q-22 -2 -24 -24v0zM32 385q22 2 24 24q-2 22 -24 24q-22 -2 -24 -24q2 -22 24 -24v0z" />
</svg>
