<?xml version="1.0" standalone="no"?>
<!DOCTYPE svg PUBLIC "-//W3C//DTD SVG 1.1//EN" "http://www.w3.org/Graphics/SVG/1.1/DTD/svg11.dtd" >
<svg xmlns="http://www.w3.org/2000/svg" xmlns:xlink="http://www.w3.org/1999/xlink" version="1.1" viewBox="-11 0 662 512">
   <path fill="currentColor"
d="M116 313q-48 -2 -65 -36q-19 -38 -19 -92q0 -30 9 -64q9 -35 27 -65q35 -61 92 -63q30 0 54 15t32 38q8 34 -26 75q-20 25 -23 51q-2 26 1 45v2t1 2q2 38 -22 65q-23 26 -61 27v0zM116 345q52 -2 85 -38v0v0q33 -36 29 -89v-3v0l-2 -18l19 10v0q9 4 9 14v236v0
q1 15 16 16q15 -1 16 -16v-236v0q-1 -29 -26 -43l-30 -15v0q3 -11 12 -21q20 -23 30 -50q9 -28 2 -55q-12 -37 -45 -56q-34 -20 -71 -20q-53 2 -89 38q-35 37 -53 88q-18 52 -18 98q-1 59 24 108q24 49 92 52v0zM394 47v0v0v0l1 -1q7 -23 31 -38t54 -15q57 2 92 63
q18 30 27 65q9 34 9 64q1 54 -19 92q-17 34 -65 36q-38 -1 -61 -27q-24 -27 -21 -65v-3v-1v0v0v0v0q3 -19 1 -45t-23 -51q-35 -42 -26 -74v0zM364 37q-8 27 2 55v0v0q10 27 30 50q9 10 12 21l-29 15v0q-26 14 -27 43v236v0q1 15 16 16q15 -1 16 -16v-236v0q0 -10 9 -15
l19 -9v0l-2 18v3v0q-4 53 29 89t85 38q68 -3 92 -52q25 -49 24 -108q0 -46 -18 -98q-18 -51 -53 -88q-36 -36 -89 -38q-37 0 -71 20q-33 19 -45 56v0z" />
</svg>
