<?xml version="1.0" standalone="no"?>
<!DOCTYPE svg PUBLIC "-//W3C//DTD SVG 1.1//EN" "http://www.w3.org/Graphics/SVG/1.1/DTD/svg11.dtd" >
<svg xmlns="http://www.w3.org/2000/svg" xmlns:xlink="http://www.w3.org/1999/xlink" version="1.1" viewBox="-10 -40 660 512">
   <path fill="currentColor"
d="M128 25h384h-384h384q14 0 23 9t9 23v256v0h32v0v-256v0q-1 -27 -19 -45t-45 -19h-384v0q-27 1 -45 19t-19 45v256v0h32v0v-256v0q0 -14 9 -23t23 -9v0zM34 377h572h-572h572q-10 30 -43 32h-486v0q-33 -2 -43 -32v0zM19 345q-17 2 -19 19q1 33 23 55q21 21 54 22h486v0
q33 -1 55 -22q21 -22 22 -55q-2 -17 -19 -19h-602v0zM283 132q10 -11 0 -22q-11 -10 -22 0l-64 64v0q-10 11 0 22l64 64v0q11 10 22 0q10 -11 0 -22l-52 -53v0l52 -53v0zM379 110q-11 -10 -22 0q-10 11 0 22l52 53v0l-52 53v0q-10 11 0 22q11 10 22 0l64 -64v0q10 -11 0 -22
l-64 -64v0z" />
</svg>
