<?xml version="1.0" standalone="no"?>
<!DOCTYPE svg PUBLIC "-//W3C//DTD SVG 1.1//EN" "http://www.w3.org/Graphics/SVG/1.1/DTD/svg11.dtd" >
<svg xmlns="http://www.w3.org/2000/svg" xmlns:xlink="http://www.w3.org/1999/xlink" version="1.1" viewBox="-10 -40 596 512">
   <path fill="currentColor"
d="M268 87q-35 -29 -68 -30q-12 0 -43 12q-29 13 -60 35q-30 22 -48 45q-18 24 -17 36q0 23 18 54q18 29 40 54q29 34 70 59q42 24 96 25h64v0q54 -1 96 -25q41 -25 70 -59q22 -24 40 -55q18 -30 18 -53q1 -12 -16 -36q-19 -23 -49 -45t-60 -35q-31 -12 -43 -12
q-33 1 -68 30q-20 14 -40 0v0zM510 314q-31 37 -79 65v0v0q-47 29 -111 30h-64v0q-64 -1 -111 -30q-48 -28 -79 -65q-23 -26 -44 -59q-21 -34 -22 -70q2 -37 39 -74q37 -36 84 -61q46 -24 77 -25q25 0 47 11t41 26q19 -15 41 -26t47 -11q31 1 77 25q47 25 84 61q37 37 39 74
q-1 35 -22 69q-21 35 -44 60v0zM356 178q-9 3 -29 8v0v0q-20 5 -39 5t-39 -5t-29 -8q-3 -1 -6 -1q-57 2 -84 11q-7 2 -11 4q0 1 1 2q11 11 34 26t57 26q33 10 77 11q44 -1 77 -11q34 -11 57 -26t34 -26q0 -1 1 -1v-1q-4 -2 -11 -4q-27 -9 -84 -11q-3 0 -6 1v0zM362 145
q61 2 93 13q16 5 26 10q4 3 8 7q5 2 7 14q0 5 -1 7v0q-1 2 -2 3q-1 3 -3 5q-5 6 -11 13q-14 14 -40 30q-26 17 -64 29t-87 13q-49 -1 -87 -13t-64 -29q-26 -16 -40 -30q-7 -7 -11 -13q-2 -2 -3 -5q-1 -1 -2 -3v0q-1 -2 -1 -7q2 -12 7 -14q4 -4 8 -7q10 -5 26 -10
q32 -11 93 -13q8 0 15 2q10 4 27 8t32 4t32 -4t27 -8q7 -2 15 -2v0z" />
</svg>
