<?xml version="1.0" standalone="no"?>
<!DOCTYPE svg PUBLIC "-//W3C//DTD SVG 1.1//EN" "http://www.w3.org/Graphics/SVG/1.1/DTD/svg11.dtd" >
<svg xmlns="http://www.w3.org/2000/svg" xmlns:xlink="http://www.w3.org/1999/xlink" version="1.1" viewBox="-10 -40 532 512">
   <path fill="currentColor"
d="M256 -39q15 1 16 16v49v0q71 7 120 55q48 49 55 120h49v0q15 1 16 16q-1 15 -16 16h-49v0q-7 71 -55 120q-49 48 -120 55v49v0q-1 15 -16 16q-15 -1 -16 -16v-49v0q-71 -7 -120 -55q-48 -49 -55 -120h-49v0q-15 -1 -16 -16q1 -15 16 -16h49v0q7 -71 55 -120
q49 -48 120 -55v-49v0q1 -15 16 -16v0zM96 217q0 43 21 80v0v0q22 37 59 59q38 21 80 21t80 -21q37 -22 59 -59q21 -37 21 -80t-21 -80q-22 -37 -59 -59q-38 -21 -80 -21t-80 21q-37 22 -59 59q-21 37 -21 80v0zM320 217q-1 -36 -32 -55q-32 -18 -64 0q-31 19 -32 55
q1 36 32 55q32 18 64 0q31 -19 32 -55v0zM160 217q0 -26 13 -48v0v0q13 -22 35 -35q23 -13 48 -13t48 13q22 13 35 35t13 48t-13 48t-35 35q-23 13 -48 13t-48 -13q-22 -13 -35 -35t-13 -48v0z" />
</svg>
