<?xml version="1.0" standalone="no"?>
<!DOCTYPE svg PUBLIC "-//W3C//DTD SVG 1.1//EN" "http://www.w3.org/Graphics/SVG/1.1/DTD/svg11.dtd" >
<svg xmlns="http://www.w3.org/2000/svg" xmlns:xlink="http://www.w3.org/1999/xlink" version="1.1" viewBox="-11 0 662 512">
   <path fill="currentColor"
d="M512 153q-2 -82 -56 -136v0v0q-54 -54 -136 -56q-42 0 -79 17q-36 16 -63 46l25 19v0q46 -48 117 -50q68 2 113 47t47 113q0 24 -17 63l-10 24l25 20v0q32 -61 34 -107v0zM177 216q-10 -23 -14 -42l-35 -27v0v3v3q2 45 32 104q31 59 70 114q39 56 66 89q10 12 24 12
t24 -12q27 -34 67 -90l-25 -19v0q-39 54 -66 88q-20 -25 -47 -62q-27 -36 -53 -78q-27 -43 -44 -82zM26 -36q-12 -7 -23 3q-8 12 3 23l608 480v0q12 8 23 -3q8 -12 -3 -22l-608 -481v0z" />
</svg>
