<?xml version="1.0" standalone="no"?>
<!DOCTYPE svg PUBLIC "-//W3C//DTD SVG 1.1//EN" "http://www.w3.org/Graphics/SVG/1.1/DTD/svg11.dtd" >
<svg xmlns="http://www.w3.org/2000/svg" xmlns:xlink="http://www.w3.org/1999/xlink" version="1.1" viewBox="-10 -40 596 512">
   <path fill="currentColor"
d="M272 -7q0 -14 9 -23v0v0q9 -9 23 -9h64v0q15 1 16 16q-1 15 -16 16h-64v0v64v0h64v0q15 1 16 16q-1 15 -16 16h-64v0v98v0q28 6 46 27q17 21 18 51q-1 34 -23 57q-23 22 -57 23q-34 -1 -57 -23q-22 -23 -23 -57q1 -30 18 -51q18 -21 46 -27v-114v0v-80v0zM288 313
q27 -1 42 -24q12 -24 0 -48q-15 -23 -42 -24q-27 1 -42 24q-12 24 0 48q15 23 42 24v0zM134 276q21 15 46 20q6 18 16 33h-4q-23 0 -42 -9q-20 -8 -34 -18q-12 -8 -20 -15q-8 7 -20 15q-23 17 -58 25q-16 1 -18 -16q1 -12 14 -15q25 -6 44 -20q14 -10 26 -22q12 -10 24 0
q11 12 26 22v0zM384 329h-4q10 -15 16 -33q25 -5 46 -20q15 -10 26 -22q12 -10 24 0q11 12 26 22q19 14 44 20q13 3 14 15q-2 17 -18 17q-35 -8 -58 -26q-12 -8 -20 -15q-8 7 -20 15q-14 10 -34 18q-19 9 -42 9v0zM192 441q32 -2 58 -21q15 -10 26 -22q12 -10 24 0
q11 12 26 22q26 19 58 21q32 -2 58 -21q15 -10 26 -22q12 -10 24 0q11 12 26 22q19 14 44 20q13 3 14 15q-2 17 -18 17q-35 -8 -58 -26q-12 -8 -20 -15q-8 7 -20 15q-14 10 -34 18q-19 9 -42 9t-42 -9q-20 -8 -34 -18q-12 -8 -20 -15q-8 7 -20 15q-14 10 -34 18q-19 9 -42 9
t-42 -9q-20 -8 -34 -18q-12 -8 -20 -15q-8 7 -20 15q-23 17 -58 25q-16 1 -18 -16q1 -12 14 -15q25 -6 44 -20q14 -10 26 -22q12 -10 24 0q11 12 26 22q26 19 58 21v0z" />
</svg>
