<?xml version="1.0" standalone="no"?>
<!DOCTYPE svg PUBLIC "-//W3C//DTD SVG 1.1//EN" "http://www.w3.org/Graphics/SVG/1.1/DTD/svg11.dtd" >
<svg xmlns="http://www.w3.org/2000/svg" xmlns:xlink="http://www.w3.org/1999/xlink" version="1.1" viewBox="-10 -40 596 512">
   <path fill="currentColor"
d="M321 371q4 30 26 50v0v0q22 19 53 20h139v0q-32 -2 -47 -25q-15 -21 -13 -47q1 -4 1 -8q-1 -31 -20 -53q-20 -22 -50 -26l26 -27v0q34 12 55 40q20 29 21 66q0 6 -1 12q-1 13 7 24t21 12h5v0q13 0 22 9t10 23q-1 14 -10 23t-22 9h-144v0q-38 -1 -66 -21q-28 -21 -40 -54
l27 -27v0zM134 185l-115 -115l115 115l-115 -115q-19 -19 -19 -45q0 -25 19 -45q19 -19 45 -19q25 0 45 19l115 115v0l-23 22v0l-114 -115v0q-10 -9 -23 -9t-23 9q-9 10 -9 23t9 23l115 114v0l-22 23v0zM462 1q-17 -14 -34 0l-55 54v0l77 77v0l54 -55v0q14 -17 0 -34
l-42 -42v0zM115 313q-11 12 -16 28l-27 92v0l92 -27v0q16 -5 28 -16l235 -235v0l-77 -77v0l-235 235v0zM405 -22q17 -16 40 -16v0v0q22 0 39 16l43 43v0q16 17 16 39q0 23 -16 40l-313 313v0q-17 17 -40 24l-121 35v0q-10 3 -16 -4q-7 -6 -4 -15l35 -121v0q7 -24 25 -41
l312 -313v0z" />
</svg>
