<?xml version="1.0" standalone="no"?>
<!DOCTYPE svg PUBLIC "-//W3C//DTD SVG 1.1//EN" "http://www.w3.org/Graphics/SVG/1.1/DTD/svg11.dtd" >
<svg xmlns="http://www.w3.org/2000/svg" xmlns:xlink="http://www.w3.org/1999/xlink" version="1.1" viewBox="-10 -40 532 512">
   <path fill="currentColor"
d="M160 -23q-1 -15 -16 -16q-15 1 -16 16v64v0q1 48 33 79q31 32 79 33h20v0q-4 15 -4 32v48v0q-1 34 -23 57q-23 22 -57 23h-64v0q-42 1 -72 26t-38 65q-2 9 -2 19v2v0v32v0q1 15 16 16q15 -1 16 -16v-32v0q0 -8 1 -15q7 -26 31 -39q19 -9 40 -5t38 20q30 30 76 58
q46 27 102 29q82 -2 136 -56t56 -136v-96v0q-1 -54 -37 -91q-37 -36 -91 -37q-36 0 -65 18q-29 17 -46 46h-33v0q-34 -1 -57 -23q-22 -23 -23 -57v-64v0zM165 363q-12 -11 -25 -18h36v0q32 0 58 -16t41 -43q37 -16 58 -11t42 19v0v0q21 15 53 21q22 3 50 -7q-11 58 -54 95
t-104 38q-46 -1 -86 -25t-69 -53v0zM480 272q-32 15 -49 11q-19 -3 -40 -17h-1v0q-21 -15 -52 -22q-23 -4 -51 3q1 -7 1 -14v-48v0q1 -41 28 -68t68 -28q41 1 68 28t28 68v87v0z" />
</svg>
