<?xml version="1.0" standalone="no"?>
<!DOCTYPE svg PUBLIC "-//W3C//DTD SVG 1.1//EN" "http://www.w3.org/Graphics/SVG/1.1/DTD/svg11.dtd" >
<svg xmlns="http://www.w3.org/2000/svg" xmlns:xlink="http://www.w3.org/1999/xlink" version="1.1" viewBox="-10 -40 532 512">
   <path fill="currentColor"
d="M32 421q2 18 20 20h80h328q18 -2 20 -20q0 -4 -2 -9l-18 -35v0q-8 -18 0 -35q20 -43 20 -93q-1 -63 -31 -113q-29 -51 -80 -80q-50 -30 -113 -31q-63 1 -113 31q-51 29 -80 80q-30 50 -31 113q0 50 20 93q8 17 0 35l-18 35v0l-28 -14v0l28 14v0q-2 5 -2 9v0zM512 249
q0 58 -23 107q-2 3 0 7l18 35v0q5 11 5 23q0 22 -15 37q-15 14 -37 15h-80h-328q-22 -1 -37 -15q-14 -15 -15 -37q0 -12 6 -23l17 -35v0q2 -4 0 -7q-23 -49 -23 -107q1 -72 35 -129q34 -58 92 -92q57 -34 129 -35q72 1 129 35q58 34 92 92q34 57 35 129v0zM384 249
q-2 -57 -40 -93l-38 52v0q14 17 14 41v4l62 20v0q2 -12 2 -24v0zM310 283q-14 21 -38 28v65v0q33 -4 60 -24q26 -19 40 -48l-62 -20v-1zM240 311q-24 -7 -38 -28l-62 21v0q14 29 40 48t60 24v-65v0zM128 249q0 12 2 24l62 -20v0v-4q1 -24 15 -41l-11 -13v0l-28 -39v0
q-38 36 -40 93v0zM256 185q13 0 24 5l38 -53v0q-28 -16 -62 -16t-62 16l28 39v0l10 14v0q11 -5 24 -5v0zM96 249q0 -43 21 -80v0v0q22 -37 59 -59q38 -21 80 -21t80 21q37 22 59 59q21 37 21 80t-21 80q-22 37 -59 59q-38 21 -80 21t-80 -21q-37 -22 -59 -59
q-21 -37 -21 -80v0zM288 249q0 -14 -9 -23v0v0q-9 -9 -23 -9t-23 9t-9 23t9 23t23 9t23 -9t9 -23v0z" />
</svg>
