<?xml version="1.0" standalone="no"?>
<!DOCTYPE svg PUBLIC "-//W3C//DTD SVG 1.1//EN" "http://www.w3.org/Graphics/SVG/1.1/DTD/svg11.dtd" >
<svg xmlns="http://www.w3.org/2000/svg" xmlns:xlink="http://www.w3.org/1999/xlink" version="1.1" viewBox="-10 -40 522 512">
   <path fill="currentColor"
d="M416 -39q-15 1 -16 16v12v0q0 64 29 121l5 10v0v1v0q14 23 25 54t11 67q0 34 -17 72q-17 39 -59 79h-276v0q-42 -40 -59 -79q-17 -38 -17 -72q0 -36 11 -67t25 -54v0v-1l5 -10v0q29 -57 29 -121v-12v0q-1 -15 -16 -16q-15 1 -16 16v12v0q0 56 -25 107l-5 9v0
q-15 25 -27 60q-13 35 -13 77q0 41 20 86q19 44 66 88v1v0v40v0q1 15 16 16q15 -1 16 -16v-32v0h64v0v32v0q1 15 16 16q15 -1 16 -16v-32v0h64v0v32v0q1 15 16 16q15 -1 16 -16v-32v0h64v0v32v0q1 15 16 16q15 -1 16 -16v-40v0v0v-1q47 -44 66 -88q20 -45 20 -86
q0 -42 -12 -77q-13 -35 -28 -60l-5 -9v0q-25 -51 -25 -107v-12v0q-1 -15 -16 -16v0zM256 57q-15 1 -16 16v128v0q1 15 16 16q15 -1 16 -16v-128v0q-1 -15 -16 -16v0zM280 281q-2 -22 -24 -24q-22 2 -24 24q2 22 24 24q22 -2 24 -24v0z" />
</svg>
