<?xml version="1.0" standalone="no"?>
<!DOCTYPE svg PUBLIC "-//W3C//DTD SVG 1.1//EN" "http://www.w3.org/Graphics/SVG/1.1/DTD/svg11.dtd" >
<svg xmlns="http://www.w3.org/2000/svg" xmlns:xlink="http://www.w3.org/1999/xlink" version="1.1" viewBox="-10 -40 340 512">
   <path fill="currentColor"
d="M64 -7q-14 0 -23 9v0v0q-9 9 -9 23v288v0q1 54 37 91q37 36 91 37q54 -1 91 -37q36 -37 37 -91v-288v0q0 -14 -9 -23t-23 -9h-192v0zM0 25q1 -27 19 -45v0v0q18 -18 45 -19h192v0q27 1 45 19t19 45v288v0q-2 68 -47 113t-113 47q-68 -2 -113 -47t-47 -113v-288v0z
M136 353q2 22 24 24q22 -2 24 -24q-2 -22 -24 -24q-22 2 -24 24v0zM216 353q-1 32 -28 48q-28 16 -56 0q-27 -16 -28 -48q1 -32 28 -48q28 -16 56 0q27 16 28 48v0zM160 193q-22 2 -24 24q2 22 24 24q22 -2 24 -24q-2 -22 -24 -24v0zM160 273q-32 -1 -48 -28q-16 -28 0 -56
q16 -27 48 -28q32 1 48 28q16 28 0 56q-16 27 -48 28v0zM136 81q2 22 24 24q22 -2 24 -24q-2 -22 -24 -24q-22 2 -24 24v0zM216 81q-1 32 -28 48q-28 16 -56 0q-27 -16 -28 -48q1 -32 28 -48q28 -16 56 0q27 16 28 48v0z" />
</svg>
