<?xml version="1.0" standalone="no"?>
<!DOCTYPE svg PUBLIC "-//W3C//DTD SVG 1.1//EN" "http://www.w3.org/Graphics/SVG/1.1/DTD/svg11.dtd" >
<svg xmlns="http://www.w3.org/2000/svg" xmlns:xlink="http://www.w3.org/1999/xlink" version="1.1" viewBox="-10 -40 532 512">
   <path fill="currentColor"
d="M191 32q20 -37 65 -39q45 2 65 39q7 11 19 8q41 -11 74 19q30 33 19 74q-3 12 7 19q38 20 40 65q-2 45 -39 65q-11 7 -8 19q11 41 -19 74q-33 30 -74 19q-12 -3 -18 7q-21 38 -66 40q-45 -2 -65 -39q-7 -11 -19 -8q-41 11 -74 -19q-30 -33 -19 -74q3 -12 -7 -18
q-38 -21 -40 -66q2 -45 39 -65q11 -7 8 -19q-11 -41 19 -74q33 -30 74 -19q12 3 19 -7v-1zM256 -39q-56 2 -87 46q-53 -9 -94 29q-38 41 -29 94q-44 31 -46 87q2 56 46 87q-9 53 29 94q41 38 94 29q31 44 87 46q56 -2 87 -46q53 9 94 -29q38 -41 29 -94q44 -31 46 -87
q-2 -56 -46 -87q9 -53 -29 -94q-41 -38 -94 -29q-31 -44 -87 -46v0zM273 101q-2 -14 -16 -16q-15 2 -16 16v21v0q-15 2 -28 10q-23 12 -25 43q2 29 24 40q19 10 38 15l2 1v0q21 5 33 12q10 6 9 15q0 11 -9 17q-11 6 -28 6q-18 -2 -39 -10h-1v0v0v0v0q-4 -1 -8 -3v0
q-15 -3 -21 10q-3 15 11 21l6 2q17 6 36 10v21v0q1 15 16 16q14 -1 16 -16v-20v0q15 -2 29 -10q23 -14 24 -45q-2 -29 -24 -41q-20 -10 -40 -16v0h-1v0q-21 -6 -32 -12q-10 -6 -9 -13q0 -10 10 -16q11 -6 27 -6q17 1 36 6q14 3 19 -11q3 -15 -11 -20q-13 -3 -28 -6v-21v0z
" />
</svg>
