<?xml version="1.0" standalone="no"?>
<!DOCTYPE svg PUBLIC "-//W3C//DTD SVG 1.1//EN" "http://www.w3.org/Graphics/SVG/1.1/DTD/svg11.dtd" >
<svg xmlns="http://www.w3.org/2000/svg" xmlns:xlink="http://www.w3.org/1999/xlink" version="1.1" viewBox="-10 -40 468 512">
   <path fill="currentColor"
d="M0 25q1 -27 19 -45v0v0q18 -18 45 -19h336v0q20 1 34 14q13 14 14 34v320v0q-2 33 -32 45v67v0h16v0q15 1 16 16q-1 15 -16 16h-368v0q-27 -1 -45 -19t-19 -45v0v0v-384v0zM64 377q-14 0 -23 9v0v0q-9 9 -9 23t9 23t23 9h320v0v-64v0h-320v0zM32 354q14 -9 32 -9h336v0
q15 -1 16 -16v-320v0q-1 -15 -16 -16h-336v0q-14 0 -23 9t-9 23v329v0zM224 33h32h-32h32q14 0 23 9t9 23v32v0h32v0q14 0 23 9t9 23v32v0q0 14 -9 23t-23 9h-32v0v80v0q0 14 -9 23t-23 9h-32v0q-14 0 -23 -9t-9 -23v-80v0h-32v0q-14 0 -23 -9t-9 -23v-32v0q0 -14 9 -23
t23 -9h32v0v-32v0q0 -14 9 -23t23 -9v0zM224 65v48v-48v48q-1 15 -16 16h-48v0v32v0h48v0q15 1 16 16v96v0h32v0v-96v0q1 -15 16 -16h48v0v-32v0h-48v0q-15 -1 -16 -16v-48v0h-32v0z" />
</svg>
