<?xml version="1.0" standalone="no"?>
<!DOCTYPE svg PUBLIC "-//W3C//DTD SVG 1.1//EN" "http://www.w3.org/Graphics/SVG/1.1/DTD/svg11.dtd" >
<svg xmlns="http://www.w3.org/2000/svg" xmlns:xlink="http://www.w3.org/1999/xlink" version="1.1" viewBox="-10 -40 532 512">
   <path fill="currentColor"
d="M326 -29q-33 -10 -70 -10q-72 1 -129 35q-58 34 -92 92q-34 57 -35 129q1 72 35 129q34 58 92 92q57 34 129 35q72 -1 129 -35q58 -34 92 -92q34 -57 35 -129q0 -37 -10 -70l-23 25v0v0q-1 2 -3 3q4 21 4 42q-1 63 -31 113q-30 51 -80 80q-51 30 -113 31q-63 -1 -113 -31
q-51 -29 -80 -80q-30 -50 -31 -113q1 -63 31 -113q29 -51 80 -80q50 -30 113 -31q21 0 42 4q1 -2 3 -3l25 -23v0zM275 58q-10 -1 -19 -1q-68 2 -113 47t-47 113q2 68 47 113t113 47q68 -2 113 -47t47 -113q0 -9 -1 -19h-8l-25 -5v0q2 12 2 24q-1 54 -37 91q-37 36 -91 37
q-54 -1 -91 -37q-36 -37 -37 -91q1 -54 37 -91q37 -36 91 -37q12 0 24 2l-4 -25v0q-1 -4 -1 -8v0zM342 154l70 12l-70 -12l70 12q26 3 44 -16l44 -49v0q8 -11 5 -22q-4 -12 -16 -17l-60 -18v0l-18 -60v0q-5 -12 -17 -16q-11 -3 -22 5l-49 44v0q-19 18 -16 44l12 71v0l-74 74
v0q-10 11 0 22q11 10 22 0l74 -74h1zM369 126l52 -51l-52 51l52 -51l46 14v0l-35 40v0q-6 6 -15 5l-48 -8v0zM398 52l-51 52l51 -52l-51 52l-8 -48v0q-2 -9 5 -15l40 -35v0l14 46v0z" />
</svg>
