<?xml version="1.0" standalone="no"?>
<!DOCTYPE svg PUBLIC "-//W3C//DTD SVG 1.1//EN" "http://www.w3.org/Graphics/SVG/1.1/DTD/svg11.dtd" >
<svg xmlns="http://www.w3.org/2000/svg" xmlns:xlink="http://www.w3.org/1999/xlink" version="1.1" viewBox="-10 -40 532 512">
   <path fill="currentColor"
d="M256 441q63 -1 113 -31v0v0q51 -29 80 -80v0v0q30 -50 31 -113q-1 -63 -31 -113q-29 -51 -80 -80q-50 -30 -113 -31q-63 1 -113 31q-51 29 -80 80q-30 50 -31 113q0 16 2 31l-10 3v0q-11 5 -19 14q-5 -23 -5 -48q1 -72 35 -129q34 -58 92 -92q57 -34 129 -35q72 1 129 35
q58 34 92 92q34 57 35 129q-1 72 -35 129q-34 58 -92 92q-57 34 -129 35q-25 0 -48 -4q9 -9 14 -20l3 -10v0q15 2 31 2v0zM248 377l12 -32l-12 32l12 -32q53 -3 88 -39t36 -89q-1 -54 -37 -91q-37 -36 -91 -37q-53 1 -89 36t-39 88l-32 12v0v-1v-7q2 -68 47 -113t113 -47
q68 2 113 47t47 113q-2 68 -47 113t-113 47h-8v0zM271 223l-79 215l79 -215l-79 215q-4 9 -15 10q-11 0 -15 -10l-30 -74v0l-105 104v0q-11 10 -22 0q-10 -11 0 -22l104 -104v0l-74 -31v0q-10 -4 -10 -15q1 -11 11 -15l215 -79v0q9 -3 16 4t4 16v1zM143 321q6 3 9 9l24 58v0
l53 -144v0l-144 53v0l58 24v0z" />
</svg>
