<?xml version="1.0" standalone="no"?>
<!DOCTYPE svg PUBLIC "-//W3C//DTD SVG 1.1//EN" "http://www.w3.org/Graphics/SVG/1.1/DTD/svg11.dtd" >
<svg xmlns="http://www.w3.org/2000/svg" xmlns:xlink="http://www.w3.org/1999/xlink" version="1.1" viewBox="-10 -40 660 512">
   <path fill="currentColor"
d="M80 41q1 -34 23 -57v0v0q23 -22 57 -23h48v0q15 1 16 16q-1 15 -16 16h-48v0q-20 1 -34 14q-13 14 -14 34v112v0h64v0q15 1 16 16q-1 15 -16 16h-64v0v174v0q-1 32 -21 54t-51 26l-22 2v0q-15 0 -18 -14q0 -15 14 -18l23 -2v0q19 -2 31 -16q12 -13 12 -32v-174v0h-64v0
q-15 -1 -16 -16q1 -15 16 -16h64v0v-112v0zM302 122q-45 69 -46 159q1 90 46 160q6 13 -5 22q-14 6 -23 -5q-49 -78 -50 -177q1 -99 51 -176q8 -12 22 -5q11 8 5 22v0zM562 122q-6 -14 5 -23q14 -6 23 5q49 78 50 177q-1 99 -50 177q-9 11 -23 5q-11 -9 -5 -23
q45 -69 46 -159q-1 -90 -45 -159h-1zM379 206l53 52l-53 -52l53 52l53 -52v0q11 -10 22 0q10 11 0 22l-52 53v0l52 53v0q10 11 0 22q-11 10 -22 0l-53 -52v0l-53 52v0q-11 10 -22 0q-10 -11 0 -22l52 -53v0l-52 -53v0q-10 -11 0 -22q11 -10 22 0v0z" />
</svg>
