<?xml version="1.0" standalone="no"?>
<!DOCTYPE svg PUBLIC "-//W3C//DTD SVG 1.1//EN" "http://www.w3.org/Graphics/SVG/1.1/DTD/svg11.dtd" >
<svg xmlns="http://www.w3.org/2000/svg" xmlns:xlink="http://www.w3.org/1999/xlink" version="1.1" viewBox="-10 -40 468 512">
   <path fill="currentColor"
d="M64 -39q-27 1 -45 19v0v0q-18 18 -19 45v384v0v0v0q1 27 19 45t45 19h368v0q15 -1 16 -16q-1 -15 -16 -16h-16v0v-67v0q30 -12 32 -45v-320v0q-1 -20 -14 -34q-14 -13 -34 -14h-336v0zM384 377v64v-64v64h-320v0q-14 0 -23 -9t-9 -23t9 -23t23 -9h320v0zM64 345
q-18 0 -32 9v-329v0q0 -14 9 -23t23 -9h336v0q15 1 16 16v320v0q-1 15 -16 16h-336v0zM191 47q-7 -6 -15 -2q-34 17 -55 50q-20 33 -21 74q2 59 41 99q40 39 99 41q59 -2 99 -41q39 -40 41 -99q-1 -41 -21 -74q-21 -33 -55 -50q-8 -4 -14 2q-6 7 -1 15q11 15 11 35
q-1 27 -20 45q-7 8 -1 17q13 14 13 34q0 18 -10 31t-26 19l-1 -24v0l2 2v0q6 5 11 0t0 -11l-9 -9v0h13v0q7 -1 8 -8q-1 -7 -8 -8h-13v0l9 -9v0q5 -6 0 -11t-11 0l-4 4v0l-5 -120v0q-1 -7 -8 -8q-7 1 -8 8l-5 120v0l-4 -4v0q-6 -5 -11 0t0 11l9 9v0h-13v0q-7 1 -8 8q1 7 8 8
h13v0l-9 9v0q-5 6 0 11t11 0l2 -2v0l-1 23v0q-16 -5 -26 -18t-10 -31q0 -20 13 -35q6 -8 -1 -16q-19 -18 -20 -45q0 -20 11 -35q5 -8 -1 -15h1zM324 89q16 17 25 40l-19 18v0q-4 6 0 12q6 4 12 0l12 -13v0q2 11 2 23v1v0l-26 25v0q-4 6 0 12q6 4 12 0l11 -12v0
q-10 40 -40 64q-31 25 -73 26q-42 -1 -73 -26q-30 -24 -40 -64l11 12v0q6 4 12 0q4 -6 0 -12l-26 -25v0v-1v0q0 -12 2 -22l12 12v0q6 4 12 0q4 -6 0 -12l-19 -18v0q9 -23 26 -40q-1 4 -1 8q1 32 20 55q-12 18 -12 41q1 32 22 54q22 21 54 22q32 -1 54 -22q21 -22 22 -54
q0 -23 -12 -41q19 -23 20 -55v-8v0z" />
</svg>
