<?xml version="1.0" standalone="no"?>
<!DOCTYPE svg PUBLIC "-//W3C//DTD SVG 1.1//EN" "http://www.w3.org/Graphics/SVG/1.1/DTD/svg11.dtd" >
<svg xmlns="http://www.w3.org/2000/svg" xmlns:xlink="http://www.w3.org/1999/xlink" version="1.1" viewBox="-10 -40 468 512">
   <path fill="currentColor"
d="M16 -7q-15 1 -16 16q1 15 16 16h124v0q9 0 14 9l8 17v0h-1v0l-160 368v0q-4 14 9 21q14 4 21 -8l148 -343v0l150 324v0q14 27 44 28h59v0q15 -1 16 -16q-1 -15 -16 -16h-59v0q-10 0 -15 -9l-175 -379v0q-14 -27 -43 -28h-124v0z" />
</svg>
