<?xml version="1.0" standalone="no"?>
<!DOCTYPE svg PUBLIC "-//W3C//DTD SVG 1.1//EN" "http://www.w3.org/Graphics/SVG/1.1/DTD/svg11.dtd" >
<svg xmlns="http://www.w3.org/2000/svg" xmlns:xlink="http://www.w3.org/1999/xlink" version="1.1" viewBox="-10 -40 660 512">
   <path fill="currentColor"
d="M55 -37q-13 -6 -21 7q-6 14 7 21l64 32v0q14 6 21 -7q6 -13 -7 -21l-64 -32v0zM599 -9q13 -8 7 -21q-7 -13 -21 -7l-64 32v0q-13 7 -7 21q7 13 21 7l64 -32v0zM16 121q-15 1 -16 16q1 15 16 16h64v0q15 -1 16 -16q-1 -15 -16 -16h-64v0zM560 121q-15 1 -16 16q1 15 16 16
h64v0q15 -1 16 -16q-1 -15 -16 -16h-64v0zM119 279q13 -8 7 -21q-7 -13 -21 -7l-64 32v0q-13 7 -7 21q7 13 21 7l64 -32v0zM535 251q-13 -6 -21 7q-6 14 7 21l64 32v0q14 6 21 -7q6 -13 -7 -21l-64 -32v0zM464 137q-1 47 -26 82q-6 9 -13 19q-1 1 -1 2q-20 26 -37 55
q-13 25 -17 50h33v0q3 -18 12 -34q15 -27 34 -52v0v0v0v0v0v0l16 -22q30 -43 31 -100q-2 -75 -52 -124q-49 -50 -124 -52q-75 2 -124 52q-50 49 -52 124q1 57 31 100l16 22v0v0v0v0v0v0q19 25 34 51q9 17 12 35h33v0q-4 -25 -17 -50q-17 -30 -37 -57h-1v0v0q-7 -10 -13 -19
q-25 -35 -26 -82q2 -61 42 -102q41 -40 102 -42q61 2 102 42q40 41 42 102v0zM240 137q1 -34 23 -57v0v0q23 -22 57 -23q15 -1 16 -16q-1 -15 -16 -16q-48 1 -79 33q-32 31 -33 79q1 15 16 16q15 -1 16 -16v0zM320 441q-33 -2 -45 -32h90v0q-12 30 -45 32v0zM240 388v5v-5v5
q1 34 23 57q23 22 57 23q34 -1 57 -23q22 -23 23 -57v-5v0q-1 -10 -11 -11h-138v0q-10 1 -11 11v0z" />
</svg>
