<?xml version="1.0" standalone="no"?>
<!DOCTYPE svg PUBLIC "-//W3C//DTD SVG 1.1//EN" "http://www.w3.org/Graphics/SVG/1.1/DTD/svg11.dtd" >
<svg xmlns="http://www.w3.org/2000/svg" xmlns:xlink="http://www.w3.org/1999/xlink" version="1.1" viewBox="-10 -40 650 512">
   <path fill="currentColor"
d="M48 -23v64v-64v64q-1 15 -16 16q-15 -1 -16 -16v-64v0q1 -15 16 -16q15 1 16 16v0zM144 -23v64v-64v64q-1 15 -16 16q-15 -1 -16 -16v-64v0q1 -15 16 -16q15 1 16 16v0zM240 -23v64v-64v64q-1 15 -16 16q-15 -1 -16 -16v-64v0q1 -15 16 -16q15 1 16 16v0zM336 -23v64v-64
v64q-1 15 -16 16q-15 -1 -16 -16v-64v0q1 -15 16 -16q15 1 16 16v0zM432 -23v64v-64v64q-1 15 -16 16q-15 -1 -16 -16v-64v0q1 -15 16 -16q15 1 16 16v0zM528 -23v64v-64v64q-1 15 -16 16q-15 -1 -16 -16v-64v0q1 -15 16 -16q15 1 16 16v0zM624 -23v64v-64v64q-1 15 -16 16
q-15 -1 -16 -16v-64v0q1 -15 16 -16q15 1 16 16v0zM32 89q15 1 16 16v160v0q1 20 14 34q14 13 34 14h16v0v-208v0q1 -15 16 -16q15 1 16 16v208v0h64v0v-208v0q1 -15 16 -16q15 1 16 16v208v0h64v0v-208v0q1 -15 16 -16q15 1 16 16v208v0h64v0v-208v0q1 -15 16 -16
q15 1 16 16v208v0h64v0v-208v0q1 -15 16 -16q15 1 16 16v208v0h16v0q20 -1 34 -14q13 -14 14 -34v-160v0q1 -15 16 -16q15 1 16 16v160v0q-1 34 -23 57q-23 22 -57 23h-208v0v96v0h160v0q15 1 16 16q-1 15 -16 16h-176h-176q-15 -1 -16 -16q1 -15 16 -16h160v0v-96v0h-208v0
q-34 -1 -57 -23q-22 -23 -23 -57v-160v0q1 -15 16 -16v0z" />
</svg>
