<?xml version="1.0" standalone="no"?>
<!DOCTYPE svg PUBLIC "-//W3C//DTD SVG 1.1//EN" "http://www.w3.org/Graphics/SVG/1.1/DTD/svg11.dtd" >
<svg xmlns="http://www.w3.org/2000/svg" xmlns:xlink="http://www.w3.org/1999/xlink" version="1.1" viewBox="-10 -40 660 512">
   <path fill="currentColor"
d="M144 36q-1 11 -12 14q-16 5 -26 17q-10 13 -10 30q0 5 1 9q2 13 -10 18q-29 12 -31 45q0 8 2 15q3 10 -4 17q-21 18 -22 48q1 36 30 54q11 8 7 20q-5 10 -5 22q1 24 16 40q16 15 40 16q5 0 10 -1q12 -1 17 10q12 29 45 31q20 -1 34 -14q13 -14 14 -34v-352v0
q-1 -20 -14 -34q-14 -13 -34 -14q-19 0 -33 13q-13 12 -15 30v0zM256 441q-23 31 -64 32q-47 -2 -69 -40h-2h-1q-37 -1 -62 -26t-26 -62q0 -11 3 -22q-33 -28 -35 -74q1 -39 25 -65q-1 -7 -1 -15q2 -47 40 -69v-2v-1q0 -26 14 -45q14 -20 36 -29q7 -27 28 -44t50 -18
q41 1 64 32q23 -31 64 -32q29 1 50 18t28 44q22 9 36 29q14 19 14 45v1v2q32 19 39 56q-24 9 -34 33q0 -3 1 -5q2 -7 2 -15q-2 -33 -31 -45q-11 -5 -10 -18q1 -4 1 -9q0 -17 -10 -30q-10 -12 -26 -17q-11 -3 -12 -14q-2 -18 -16 -30q-13 -13 -32 -13q-20 1 -34 14
q-13 14 -14 34v352v0q0 20 13 33t32 15q8 18 17 31q-7 1 -14 1q-41 -1 -64 -32v0zM527 193l108 109l-108 -109l108 109q5 4 5 11t-5 11l-108 109v0q-8 8 -20 8q-11 0 -19 -8t-8 -19v-53v0h-16v0q-27 1 -45 19t-19 45v32v0q0 10 -10 15q-10 3 -17 -3q-12 -11 -24 -35t-13 -57
q1 -48 33 -79q31 -32 79 -33h32v0v-53v0q0 -11 8 -19t19 -8q12 0 20 8v0zM512 281q-1 15 -16 16h-48v0q-34 1 -57 23q-22 23 -23 57q0 13 3 24q9 -32 34 -52q25 -19 59 -20h32v0q15 1 16 16v57v0l89 -89v0l-89 -89v0v57v0z" />
</svg>
