<?xml version="1.0" standalone="no"?>
<!DOCTYPE svg PUBLIC "-//W3C//DTD SVG 1.1//EN" "http://www.w3.org/Graphics/SVG/1.1/DTD/svg11.dtd" >
<svg xmlns="http://www.w3.org/2000/svg" xmlns:xlink="http://www.w3.org/1999/xlink" version="1.1" viewBox="-10 -40 468 512">
   <path fill="currentColor"
d="M288 -7h-64h64h-64q-15 1 -16 16q1 15 16 16h64v0q15 -1 16 -16q-1 -15 -16 -16v0zM179 25h-11h11h-11q-20 1 -34 14q-13 14 -14 34v48v0h312v0q15 1 16 16q-1 15 -16 16h-416v0q-15 -1 -16 -16q1 -15 16 -16h72v0v-48v0q1 -34 23 -57q23 -22 57 -23h11v0q12 -30 45 -32
h64v0q20 1 34 14q13 14 14 34q-1 20 -14 34q-14 13 -34 14h-64v0q-33 -2 -45 -32v0zM74 416l-27 -231l27 231l-27 -231h33v0l25 228v0q5 26 32 28h174v0q27 -2 32 -28l26 -228v0h32v0l-26 231v0q-4 25 -21 41q-18 15 -43 16h-174v0q-25 -1 -43 -16q-17 -16 -20 -41v0z" />
</svg>
