<?xml version="1.0" standalone="no"?>
<!DOCTYPE svg PUBLIC "-//W3C//DTD SVG 1.1//EN" "http://www.w3.org/Graphics/SVG/1.1/DTD/svg11.dtd" >
<svg xmlns="http://www.w3.org/2000/svg" xmlns:xlink="http://www.w3.org/1999/xlink" version="1.1" viewBox="-10 -40 468 512">
   <path fill="currentColor"
d="M416 57q0 -14 -9 -23v0v0q-9 -9 -23 -9h-320v0q-14 0 -23 9t-9 23v320v0q0 14 9 23t23 9h320v0q14 0 23 -9t9 -23v-320v0zM384 -7q27 1 45 19v0v0q18 18 19 45v320v0q-1 27 -19 45t-45 19h-320v0q-27 -1 -45 -19t-19 -45v-320v0q1 -27 19 -45t45 -19h320v0zM256 121
q-1 15 -16 16h-128v0q-15 -1 -16 -16q1 -15 16 -16h128v0q15 1 16 16v0zM336 201q15 1 16 16q-1 15 -16 16h-224v0q-15 -1 -16 -16q1 -15 16 -16h224v0zM192 313q-1 15 -16 16h-64v0q-15 -1 -16 -16q1 -15 16 -16h64v0q15 1 16 16v0z" />
</svg>
