<?xml version="1.0" standalone="no"?>
<!DOCTYPE svg PUBLIC "-//W3C//DTD SVG 1.1//EN" "http://www.w3.org/Graphics/SVG/1.1/DTD/svg11.dtd" >
<svg xmlns="http://www.w3.org/2000/svg" xmlns:xlink="http://www.w3.org/1999/xlink" version="1.1" viewBox="-10 -40 660 512">
   <path fill="currentColor"
d="M283 -7q-10 0 -17 9l-86 127v0q-20 29 -20 64v50v0q-2 32 -31 45l-107 40v0q-15 4 -21 -9q-4 -15 9 -21l108 -40v0q9 -4 10 -15v-50v0q0 -45 25 -82l87 -127v0q16 -22 43 -23q22 1 37 15q15 -14 37 -15q27 1 43 23l87 127v0q25 37 25 82v50v0q0 11 10 15l108 40v0
q13 6 9 21q-6 13 -21 9l-107 -40v0q-29 -13 -31 -45v-50v0q0 -35 -19 -64l-87 -127v0q-7 -9 -17 -9q-19 2 -21 21v6v0q0 8 5 15l51 77v0q24 36 24 80v1v0v72v0q-1 15 -16 16q-15 -1 -16 -16v-72v0q-2 -22 -24 -24q-22 2 -24 24v74v0q1 38 22 66q21 29 56 41l215 68v0
q13 5 10 20q-5 14 -20 10l-214 -67v0q-58 -20 -85 -72q-27 52 -85 72l-214 67v0q-15 3 -20 -10q-3 -14 10 -20l215 -68v0q35 -12 56 -41q21 -28 22 -66v-74v0q-2 -22 -24 -24q-22 2 -24 24v72v0q-1 15 -16 16q-15 -1 -16 -16v-72v0v-1v0q0 -44 24 -80l52 -77v0q4 -7 4 -15
v-6v0q-2 -19 -21 -21v0zM320 62l-45 68l45 -68l-45 68q-3 4 -5 8q5 -1 10 -1q24 1 40 17q16 -16 40 -17q5 0 10 1q-2 -4 -5 -8l-45 -68v0z" />
</svg>
