<?xml version="1.0" standalone="no"?>
<!DOCTYPE svg PUBLIC "-//W3C//DTD SVG 1.1//EN" "http://www.w3.org/Graphics/SVG/1.1/DTD/svg11.dtd" >
<svg xmlns="http://www.w3.org/2000/svg" xmlns:xlink="http://www.w3.org/1999/xlink" version="1.1" viewBox="-11 0 662 512">
   <path fill="currentColor"
d="M480 425v16v-16v16h-320v0v-128v0h178v0l-40 -32v0h-138v0q-14 0 -23 9t-9 23v32v0h-32v0v-128v0q0 -14 9 -23t23 -9h48v0l-40 -32v0h-8v0q-27 1 -45 19t-19 45v128v0q0 14 9 23t23 9h32v0v64v0q0 14 9 23t23 9h320v0q24 -2 31 -24l-31 -24v0zM138 -9l25 21l-25 -21
l25 21q9 -18 29 -19h230v0q13 0 22 9l27 27v0q9 9 9 23v69v0h32v0v-69v0q0 -27 -19 -46l-26 -26v0q-19 -19 -45 -19h-230v0q-36 2 -54 30v0zM512 153h-170h170h-170l41 32v0h129v0q14 0 23 9t9 23v95v0l32 26v0v-121v0q-1 -27 -19 -45t-45 -19v0zM496 257q22 -2 24 -24
q-2 -22 -24 -24q-22 2 -24 24q2 22 24 24v0zM26 -36q-12 -7 -23 3q-8 12 3 23l608 480v0q12 8 23 -3q8 -12 -3 -22l-608 -481v0z" />
</svg>
