<?xml version="1.0" standalone="no"?>
<!DOCTYPE svg PUBLIC "-//W3C//DTD SVG 1.1//EN" "http://www.w3.org/Graphics/SVG/1.1/DTD/svg11.dtd" >
<svg xmlns="http://www.w3.org/2000/svg" xmlns:xlink="http://www.w3.org/1999/xlink" version="1.1" viewBox="-10 -40 532 512">
   <path fill="currentColor"
d="M208 -7q48 0 88 24v0v0q40 23 64 64q24 42 24 88t-24 88q-24 41 -64 64q-40 24 -88 24t-88 -24q-40 -23 -64 -64q-24 -42 -24 -88t24 -88q24 -41 64 -64q40 -24 88 -24v0zM208 377q79 -2 135 -50l142 141v0q11 10 22 0q10 -11 0 -22l-141 -142v0q48 -56 50 -135
q-2 -88 -61 -147t-147 -61q-88 2 -147 61t-61 147q2 88 61 147t147 61v0zM224 65q-1 -15 -16 -16q-15 1 -16 16v17v0q-13 2 -24 9q-22 11 -24 41q3 27 23 37q17 9 35 14v0v0v0v0h1v0q19 5 29 11q8 5 8 12q0 9 -8 14q-9 5 -24 5q-16 -1 -36 -9v0v0v0v0v0v0v0q-3 -1 -7 -2
q-14 -3 -20 10q-4 14 10 20l6 2v0v0v0q14 6 31 9v18v0q1 15 16 16q15 -1 16 -16v-17v0q13 -2 25 -9q22 -13 23 -42q-2 -27 -23 -38q-18 -10 -36 -15v0v0v0v0v0v0q-19 -5 -30 -11q-8 -5 -7 -10q0 -8 8 -13q10 -5 24 -5q15 1 32 5q14 3 19 -11q3 -14 -11 -20q-11 -3 -24 -5
v-17v0z" />
</svg>
