<?xml version="1.0" standalone="no"?>
<!DOCTYPE svg PUBLIC "-//W3C//DTD SVG 1.1//EN" "http://www.w3.org/Graphics/SVG/1.1/DTD/svg11.dtd" >
<svg xmlns="http://www.w3.org/2000/svg" xmlns:xlink="http://www.w3.org/1999/xlink" version="1.1" viewBox="-10 -40 650 512">
   <path fill="currentColor"
d="M336 169q-1 -15 -16 -16q-15 1 -16 16v288v0q1 15 16 16q15 -1 16 -16v-288v0zM192 249q-15 1 -16 16v192v0q1 15 16 16q15 -1 16 -16v-192v0q-1 -15 -16 -16v0zM64 345q-15 1 -16 16v96v0q1 15 16 16q15 -1 16 -16v-96v0q-1 -15 -16 -16v0z" />
</svg>
