<?xml version="1.0" standalone="no"?>
<!DOCTYPE svg PUBLIC "-//W3C//DTD SVG 1.1//EN" "http://www.w3.org/Graphics/SVG/1.1/DTD/svg11.dtd" >
<svg xmlns="http://www.w3.org/2000/svg" xmlns:xlink="http://www.w3.org/1999/xlink" version="1.1" viewBox="-10 -40 650 512">
   <path fill="currentColor"
d="M240 249q-15 1 -16 16v160v0q1 15 16 16q15 -1 16 -16v-160v0q-1 -15 -16 -16v0zM192 265q1 -20 14 -34v0v0q14 -13 34 -14q20 1 34 14q13 14 14 34v160v0q-1 20 -14 34q-14 13 -34 14q-20 -1 -34 -14q-13 -14 -14 -34v-160v0zM96 393q-1 -15 -16 -16q-15 1 -16 16v32v0
q1 15 16 16q15 -1 16 -16v-32v0zM32 393q1 -20 14 -34v0v0q14 -13 34 -14q20 1 34 14q13 14 14 34v32v0q-1 20 -14 34q-14 13 -34 14q-20 -1 -34 -14q-13 -14 -14 -34v-32v0z" />
</svg>
