<?xml version="1.0" standalone="no"?>
<!DOCTYPE svg PUBLIC "-//W3C//DTD SVG 1.1//EN" "http://www.w3.org/Graphics/SVG/1.1/DTD/svg11.dtd" >
<svg xmlns="http://www.w3.org/2000/svg" xmlns:xlink="http://www.w3.org/1999/xlink" version="1.1" viewBox="-10 -40 532 512">
   <path fill="currentColor"
d="M141 427q-19 14 -41 14h-4v0q-27 -1 -45 -19t-19 -45q1 -32 26 -51l57 -43v0q44 -35 45 -90v-104v0h128v0v-32v0h-128v0v-48v0q1 -15 16 -16h114v0q3 -18 14 -32h-3h-125v0q-20 1 -34 14q-13 14 -14 34v184v0q-1 40 -32 64l-58 43v0q-37 30 -38 77q1 41 28 68t68 28h4v0
q33 0 60 -21l16 -12v0q-8 -15 -12 -31v0v0l-23 18v0zM368 -39q-20 1 -34 14v0v0q-13 14 -14 34v184v0q-1 40 -32 64l-58 43v0q-37 30 -38 77q1 41 28 68t68 28h4v0q33 0 60 -21l116 -89v0q43 -35 44 -89v-265v0q-1 -20 -14 -34q-14 -13 -34 -14h-96v0zM352 9q1 -15 16 -16
h96v0q15 1 16 16v48v0h-128v0v-48v0zM352 89h128h-128h128v185v0q-1 39 -31 63l-116 90v0q-19 14 -41 14h-4v0q-27 -1 -45 -19t-19 -45q1 -32 26 -51l57 -43v0q44 -35 45 -90v-104v0z" />
</svg>
