<?xml version="1.0" standalone="no"?>
<!DOCTYPE svg PUBLIC "-//W3C//DTD SVG 1.1//EN" "http://www.w3.org/Graphics/SVG/1.1/DTD/svg11.dtd" >
<svg xmlns="http://www.w3.org/2000/svg" xmlns:xlink="http://www.w3.org/1999/xlink" version="1.1" viewBox="-10 -40 531 512">
   <path fill="currentColor"
d="M74 13q-20 32 -31 68v0v0q-11 36 -11 72q0 37 11 74q12 37 33 69q11 -23 26 -41q16 -21 42 -39q26 -17 64 -26v33v0q-57 18 -82 52q-21 26 -30 58q-3 9 -12 12q-10 1 -16 -6q-32 -38 -50 -87t-18 -99t18 -99q18 -48 50 -87q7 -8 17 -5q9 3 11 13q5 31 25 56q11 17 33 31
q21 15 54 22v33v0q-42 -8 -70 -26q-27 -18 -43 -40q-12 -17 -21 -38v0zM304 223v-33v33v-33q38 8 64 26t43 39q15 18 26 41q31 -50 40 -108l-12 -12v0q-9 -10 -9 -23t9 -23l12 -12v0q-8 -56 -39 -105q-9 21 -21 38q-16 22 -44 40q-27 18 -69 26v-33v0q33 -7 54 -22
q22 -14 33 -31q20 -25 25 -56q2 -10 11 -13q10 -3 17 5q28 34 46 76q17 43 21 87v0v0l-23 23v0l23 23v0v0v0q-4 44 -21 87q-18 42 -46 76q-6 7 -15 6q-10 -3 -12 -12q-10 -32 -31 -58q-25 -35 -82 -52v0zM272 9v448v-448v448q-1 15 -16 16q-15 -1 -16 -16v-448v0
q1 -15 16 -16q15 1 16 16v0z" />
</svg>
