<?xml version="1.0" standalone="no"?>
<!DOCTYPE svg PUBLIC "-//W3C//DTD SVG 1.1//EN" "http://www.w3.org/Graphics/SVG/1.1/DTD/svg11.dtd" >
<svg xmlns="http://www.w3.org/2000/svg" xmlns:xlink="http://www.w3.org/1999/xlink" version="1.1" viewBox="-10 -40 468 512">
   <path fill="currentColor"
d="M64 -39q-27 1 -45 19v0v0q-18 18 -19 45v384v0v0v0q1 27 19 45t45 19h368v0q15 -1 16 -16q-1 -15 -16 -16h-16v0v-67v0q30 -12 32 -45v-320v0q-1 -20 -14 -34q-14 -13 -34 -14h-336v0zM384 377v64v-64v64h-320v0q-14 0 -23 -9t-9 -23t9 -23t23 -9h320v0zM64 345
q-18 0 -32 9v-329v0q0 -14 9 -23t23 -9h336v0q15 1 16 16v320v0q-1 15 -16 16h-336v0zM266 132l-17 39l17 -39l-17 39l-38 16v0q-15 7 -15 22t15 22l38 17v0l17 38v0q7 15 22 15t22 -15l17 -38v0l38 -17v0q15 -7 15 -22t-15 -22l-38 -16v0l-17 -39v0q-7 -15 -22 -15t-22 15
v0zM288 162l12 27l-12 -27l12 27q2 6 8 8l27 12v0l-27 12v0q-6 2 -8 8l-12 27v0l-12 -27v0q-2 -6 -8 -8l-27 -12v0l27 -12v0q6 -2 8 -8l12 -27v0zM153 83l7 -14l-7 14l7 -14l7 14v0q2 5 7 7l14 7v0l-14 7v0q-5 2 -7 7l-7 14v0l-7 -14v0q-2 -5 -7 -7l-14 -7v0l14 -7v0
q5 -2 7 -7v0zM182 40q-8 -13 -22 -13v0v0q-14 0 -21 13l-12 24v0l-24 12v0q-13 7 -13 21t13 21l24 12v0l12 24v0q7 13 21 13t22 -13l11 -24v0l24 -12v0q13 -7 13 -21t-13 -21l-24 -12v0l-11 -24v0z" />
</svg>
