<?xml version="1.0" standalone="no"?>
<!DOCTYPE svg PUBLIC "-//W3C//DTD SVG 1.1//EN" "http://www.w3.org/Graphics/SVG/1.1/DTD/svg11.dtd" >
<svg xmlns="http://www.w3.org/2000/svg" xmlns:xlink="http://www.w3.org/1999/xlink" version="1.1" viewBox="-11 0 470 512">
   <path fill="currentColor"
d="M192 -7v192v-192v192h-32v0v-186v0q-28 10 -46 34q-17 24 -18 56v96v0h-32v0v-96v0q1 -54 37 -91q37 -36 91 -37h64v0q54 1 91 37q36 37 37 91v96v0h-32v0v-96v0q-1 -32 -18 -56q-18 -24 -46 -34v186v0h-32v0v-192v0h-64v0zM64 249l-32 64l32 -64l-32 64h384v0l-32 -64v0
h-320v0zM35 235q10 -17 29 -18h320v0q19 1 29 18l32 64v0q7 16 -2 31q-9 14 -27 15v112v0q-1 15 -16 16q-15 -1 -16 -16v-112v0h-320v0v112v0q-1 15 -16 16q-15 -1 -16 -16v-112v0q-18 0 -27 -15t-2 -31l32 -64v0z" />
</svg>
