<?xml version="1.0" standalone="no"?>
<!DOCTYPE svg PUBLIC "-//W3C//DTD SVG 1.1//EN" "http://www.w3.org/Graphics/SVG/1.1/DTD/svg11.dtd" >
<svg xmlns="http://www.w3.org/2000/svg" xmlns:xlink="http://www.w3.org/1999/xlink" version="1.1" viewBox="-10 -40 655 512">
   <path fill="currentColor"
d="M461 -3q-47 50 -49 122q2 70 45 119q43 48 110 59q-32 16 -71 16q-37 0 -69 -15q27 17 41 46q14 1 28 1q80 -2 133 -54q8 -8 4 -19q-6 -9 -17 -8q-13 2 -26 2q-62 -2 -103 -43t-43 -104q1 -41 21 -75q20 -33 54 -53q9 -6 7 -17q-3 -11 -14 -12q-8 -1 -16 -1
q-82 2 -136 56q-54 55 -56 136q0 16 3 32q17 1 34 6q-5 -18 -5 -38q1 -58 36 -101q34 -42 89 -55v0zM112 281q1 -27 19 -45v0v0q18 -18 45 -19q22 0 39 13q16 13 22 33q3 9 13 11q9 2 16 -6q14 -18 38 -19q20 1 34 14q13 14 14 34q0 13 -6 24q-5 8 0 16q4 8 14 8h8v0v0v0v0
v0q20 1 34 14q13 14 14 34q-1 20 -14 34q-14 13 -34 14h-2v0v0v0v0h-267v0h-1h-2q-27 -1 -45 -19t-19 -45q1 -27 19 -45t45 -19h1q8 0 13 -6t3 -13q-1 -6 -1 -13v0zM176 185q-41 1 -68 28v0v0q-27 27 -28 68v1v0q-35 7 -57 33t-23 62q1 41 28 68t68 28h3h266v0h3
q34 -1 57 -24q22 -22 23 -56q-1 -30 -19 -52q-18 -21 -47 -27q2 -8 2 -17q-1 -34 -23 -57q-23 -22 -57 -23q-26 0 -46 14q-13 -21 -34 -33q-22 -13 -48 -13v0z" />
</svg>
