<?xml version="1.0" standalone="no"?>
<!DOCTYPE svg PUBLIC "-//W3C//DTD SVG 1.1//EN" "http://www.w3.org/Graphics/SVG/1.1/DTD/svg11.dtd" >
<svg xmlns="http://www.w3.org/2000/svg" xmlns:xlink="http://www.w3.org/1999/xlink" version="1.1" viewBox="-10 -40 530 512">
   <path fill="currentColor"
d="M192 233q1 20 14 34v0v0q14 13 34 14h88v0q-8 -23 -8 -48q2 -61 42 -102q41 -40 102 -42h8q-16 -43 -52 -69t-84 -27q-61 2 -102 42q-40 41 -42 102v96v0zM160 233v-96v96v-96q2 -75 52 -124q49 -50 124 -52q66 1 114 42q47 40 59 103q1 9 -6 14t-16 3q-11 -2 -23 -2
q-48 1 -79 33q-32 31 -33 79q0 29 13 53q4 8 2 16q-3 9 -12 10q-10 1 -19 1h-96v0h-9l-39 39v0v0v0v0v0v0v1q0 2 2 5q14 19 14 43q-1 31 -21 51t-51 21q-28 -1 -48 -19t-24 -45q-27 -4 -45 -24q-18 -19 -19 -48q1 -31 21 -51t51 -21q25 0 43 14q3 2 5 2h1v0v0v0l40 -39v0
q-1 -4 -1 -9v0zM172 275l-28 29l28 -29l-28 29q-12 10 -25 9q-14 -1 -23 -8q-10 -8 -24 -8q-17 0 -28 12q-12 11 -12 28t12 28q11 12 28 12q22 2 24 24q0 17 12 28q11 12 28 12t28 -12q12 -11 12 -28q0 -14 -8 -24q-7 -9 -8 -23q-1 -13 9 -25l29 -28v0q-16 -10 -26 -25v-1z
" />
</svg>
