<?xml version="1.0" standalone="no"?>
<!DOCTYPE svg PUBLIC "-//W3C//DTD SVG 1.1//EN" "http://www.w3.org/Graphics/SVG/1.1/DTD/svg11.dtd" >
<svg xmlns="http://www.w3.org/2000/svg" xmlns:xlink="http://www.w3.org/1999/xlink" version="1.1" viewBox="-10 -40 404 512">
   <path fill="currentColor"
d="M342 227q-49 -132 -150 -230q-101 98 -150 230v1v0q-10 27 -10 55q2 67 47 111q45 45 113 47q68 -2 113 -47q45 -44 47 -111q0 -28 -9 -54l27 -10v0l-27 10v0l-1 -2v0zM372 216l1 2l-1 -2l1 2q11 31 11 65q-2 80 -57 134q-54 54 -135 56q-81 -2 -135 -56
q-55 -54 -57 -134q0 -34 12 -65v-2v0q52 -143 163 -246l3 -3v0q6 -6 14 -6t14 6l3 3v0q111 103 163 246v0zM187 167v1v-1v1q1 25 18 43l8 8v0q15 17 16 39q-1 23 -17 39q-15 16 -39 16h-2v0q-25 -1 -41 -17t-17 -41v-22v0q-17 19 -17 45v3v0q1 41 28 68t68 28h7v0
q38 -1 63 -26t26 -63q-1 -43 -33 -72l-45 -38v0q-15 -13 -19 -32q-4 10 -4 21v0zM197 89q23 2 25 24v21v0q0 12 9 19l44 39v0q44 38 45 96q-1 52 -35 86t-86 35h-7v0q-54 -1 -91 -37q-36 -37 -37 -91v-3v0q1 -44 33 -74l5 -4v0q7 -7 17 -7q24 2 26 26v36v0q2 24 26 26h2v0
q22 -2 24 -23q0 -10 -7 -16l-8 -9v0q-26 -28 -26 -65v-1v0q0 -21 9 -40l10 -24v0q7 -13 23 -14h-1z" />
</svg>
