<?xml version="1.0" standalone="no"?>
<!DOCTYPE svg PUBLIC "-//W3C//DTD SVG 1.1//EN" "http://www.w3.org/Graphics/SVG/1.1/DTD/svg11.dtd" >
<svg xmlns="http://www.w3.org/2000/svg" xmlns:xlink="http://www.w3.org/1999/xlink" version="1.1" viewBox="-10 -40 458 512">
   <path fill="currentColor"
d="M160 -7h128h-128h128v126v0q1 28 24 42q40 23 64 63q23 40 24 89q-2 73 -49 122q-5 5 -17 6h-220v0q-12 -1 -17 -6q-47 -49 -49 -122q1 -49 24 -89q24 -40 64 -63q23 -14 24 -42v-126v0zM320 119v-126v126v-126h16v0q15 -1 16 -16q-1 -15 -16 -16h-32h-192q-15 1 -16 16
q1 15 16 16h16v0v126v0q0 9 -8 14q-48 28 -75 75q-28 47 -29 105q2 86 58 144q17 16 40 16h220v0q23 0 40 -16q56 -58 58 -144q-1 -58 -29 -105q-27 -47 -74 -75q-9 -5 -9 -14v0zM128 273q1 -28 27 -50v0v0q26 -21 69 -22q43 1 69 22q26 22 27 50q-1 32 -33 54q-14 9 -15 28
v22v0h-96v0v-22v0q-1 -19 -15 -28q-32 -22 -33 -54v0zM224 169q-52 1 -89 29v0v0q-37 29 -39 75q3 52 47 81q1 0 1 1v0v0v22v0q0 14 9 23t23 9h96v0q14 0 23 -9t9 -23v-22v0v0q0 -1 1 -1q44 -29 47 -81q-2 -46 -39 -75q-37 -28 -89 -29v0zM288 273q-2 -22 -24 -24
q-22 2 -24 24q2 22 24 24q22 -2 24 -24v0zM184 297q22 -2 24 -24q-2 -22 -24 -24q-22 2 -24 24q2 22 24 24v0z" />
</svg>
