<?xml version="1.0" standalone="no"?>
<!DOCTYPE svg PUBLIC "-//W3C//DTD SVG 1.1//EN" "http://www.w3.org/Graphics/SVG/1.1/DTD/svg11.dtd" >
<svg xmlns="http://www.w3.org/2000/svg" xmlns:xlink="http://www.w3.org/1999/xlink" version="1.1" viewBox="-10 -40 458 512">
   <path fill="currentColor"
d="M160 -7h128h-128h128v126v0q1 28 24 42q40 23 64 63q23 40 24 89q-41 -1 -68 -10t-48 -20l-4 -2q-2 -2 -4 -3v0q-20 -11 -44 -20q-23 -9 -56 -9q-71 3 -108 26q-10 5 -18 10q7 -40 29 -72q23 -32 57 -52q23 -14 24 -42v-126v0zM397 345q-10 53 -46 90q-5 5 -17 6h-220v0
q-12 -1 -17 -6q-42 -44 -49 -108q2 -1 3 -3v0v0v0v0v0v0q1 0 2 -1v0q2 -2 6 -5q7 -6 23 -15q32 -19 94 -22q26 0 46 8q19 7 39 18q3 1 6 3q1 0 3 1q22 13 52 22q30 10 75 12v0zM51 324v0v0v0v0v0v0v0zM51 324v0v0v0v0v0zM320 119v-126v126v-126h16v0q15 -1 16 -16
q-1 -15 -16 -16h-32h-192q-15 1 -16 16q1 15 16 16h16v0v126v0q0 9 -8 14q-48 28 -75 75q-28 47 -29 105q2 86 58 144q17 16 40 16h220v0q23 0 40 -16q56 -58 58 -144q-1 -58 -29 -105q-27 -47 -74 -75q-9 -5 -9 -14v0z" />
</svg>
