<?xml version="1.0" standalone="no"?>
<!DOCTYPE svg PUBLIC "-//W3C//DTD SVG 1.1//EN" "http://www.w3.org/Graphics/SVG/1.1/DTD/svg11.dtd" >
<svg xmlns="http://www.w3.org/2000/svg" xmlns:xlink="http://www.w3.org/1999/xlink" version="1.1" viewBox="-10 -40 596 512">
   <path fill="currentColor"
d="M399 168q13 0 22 9l51 51v0l43 -43v0l-49 -48v0q-10 -11 -9 -25q2 -27 -18 -46l-45 -43v0q-33 -29 -77 -30h-18v0q-24 0 -45 10l-18 8v0l51 27v0q16 10 17 29v12v0q0 19 14 33l38 38v0q19 18 42 18h1zM537 162l4 4l-4 -4l4 4l8 -8v0q11 -10 22 0q10 11 0 22l-112 112v0
q-11 10 -22 0q-10 -11 0 -22l16 -16v0l-4 -4v0l-50 -50v0q-37 0 -66 -27l-38 -38v0q-22 -24 -23 -56v-12v0l-80 -44v0q-8 -5 -8 -15q1 -9 10 -14l47 -21v0q28 -12 58 -12h18v0q57 1 99 39l45 42v0q30 31 28 72l48 48v0zM27 338l234 -194l-234 194l234 -194q5 7 12 14l9 9v0
l-234 196v0q-16 13 -16 34q0 19 13 31q12 13 31 13q21 0 34 -16l196 -234v0l5 5v0q9 9 19 15l-195 235v0q-23 26 -59 27q-32 -1 -54 -22q-21 -22 -22 -54q1 -36 27 -59v0z" />
</svg>
