<?xml version="1.0" standalone="no"?>
<!DOCTYPE svg PUBLIC "-//W3C//DTD SVG 1.1//EN" "http://www.w3.org/Graphics/SVG/1.1/DTD/svg11.dtd" >
<svg xmlns="http://www.w3.org/2000/svg" xmlns:xlink="http://www.w3.org/1999/xlink" version="1.1" viewBox="-10 -40 532 512">
   <path fill="currentColor"
d="M409 329l-61 -141l61 141l-61 -141q-14 -34 -3 -68l38 -112v0l-136 78v0q-46 26 -67 74l-76 169v0h-35v0l82 -182v0q25 -58 80 -89l165 -94v0q4 -3 9 -3q17 2 19 19v2v0q0 3 -1 6l-47 142v0q-8 23 2 45l65 154v0h-34v0zM480 417q-2 -22 -24 -24h-400v0q-22 2 -24 24
q2 22 24 24h400v0q22 -2 24 -24v0zM56 361h400h-400h400q24 1 40 16q15 16 16 40q-1 24 -16 40q-16 15 -40 16h-400v0q-24 -1 -40 -16q-15 -16 -16 -40q1 -24 16 -40q16 -15 40 -16v0zM288 137v16v-16v16h16v0q15 1 16 16q-1 15 -16 16h-16v0v16v0q-1 15 -16 16
q-15 -1 -16 -16v-16v0h-16v0q-15 -1 -16 -16q1 -15 16 -16h16v0v-16v0q1 -15 16 -16q15 1 16 16v0zM240 265v32v-32v32h32v0q15 1 16 16q-1 15 -16 16h-32h-64q-15 -1 -16 -16q1 -15 16 -16h32v0v-32v0q1 -15 16 -16q15 1 16 16v0z" />
</svg>
