<?xml version="1.0" standalone="no"?>
<!DOCTYPE svg PUBLIC "-//W3C//DTD SVG 1.1//EN" "http://www.w3.org/Graphics/SVG/1.1/DTD/svg11.dtd" >
<svg xmlns="http://www.w3.org/2000/svg" xmlns:xlink="http://www.w3.org/1999/xlink" version="1.1" viewBox="-11 0 661 512">
   <path fill="currentColor"
d="M427 6q-11 -10 -22 0q-10 11 0 22l12 12v0q-7 5 -12 11l-23 -9v0q-43 -17 -89 -17h-69v0q-82 2 -136 56t-56 136v8v0v0v0v19v0q0 39 -24 70l-4 5v0q-9 12 2 23q12 8 23 -3l3 -5v0q32 -39 32 -90v-19v0v0v0v-8v0q2 -68 47 -113t113 -47h69v0q40 0 77 15l18 7v0
q-4 12 -4 26v5v0q-1 15 -11 26q-20 23 -21 57q1 35 23 60q23 24 57 28v16v0q1 15 16 16q15 -1 16 -16v-16v0h88v0h8v16v0q1 15 16 16q15 -1 16 -16v-26v0q22 -11 35 -31q13 -21 13 -47q-2 -48 -40 -74q-8 -5 -8 -14q-1 -34 -24 -57l11 -12v0q10 -11 0 -22q-11 -10 -22 0
l-17 16v0q-13 -5 -28 -5h-48v0q-8 0 -16 2l-21 -21v0zM448 249h-8h8h-8q-24 -1 -40 -16q-15 -16 -16 -40q0 -21 14 -36q16 -17 18 -47v-5v0q1 -20 14 -34q14 -13 34 -14h48v0q20 1 34 14q13 14 14 34t13 33q-19 4 -32 19t-13 36q1 15 16 16q15 -1 16 -16q2 -22 24 -24
q22 2 24 24q-1 24 -16 40q-16 15 -40 16h-104v0zM416 333v52v-52v52q-2 22 -24 24h-32v0q-22 -2 -24 -24v-60v0q0 -8 -6 -13q-7 -5 -15 -2l-11 3v0q-48 15 -96 0l-11 -3v0q-8 -3 -14 2q-7 5 -7 13v60v0q-2 22 -24 24h-32v0q-22 -2 -24 -24v-72v0q-1 -15 -16 -16
q-15 1 -16 16v72v0q1 24 16 40q16 15 40 16h32v0q24 -1 40 -16q15 -16 16 -40v-39v0q48 13 96 0v39v0q1 24 16 40q16 15 40 16h32v0q24 -1 40 -16q15 -16 16 -40v-40v0q-19 0 -32 -12v0zM480 105q-1 -15 -16 -16q-15 1 -16 16q1 15 16 16q15 -1 16 -16v0zM440 137
q-15 1 -16 16q1 15 16 16q22 2 24 24q1 15 16 16q15 -1 16 -16q-1 -24 -16 -40q-16 -15 -40 -16v0zM528 121q15 -1 16 -16q-1 -15 -16 -16q-15 1 -16 16q1 15 16 16v0z" />
</svg>
