<?xml version="1.0" standalone="no"?>
<!DOCTYPE svg PUBLIC "-//W3C//DTD SVG 1.1//EN" "http://www.w3.org/Graphics/SVG/1.1/DTD/svg11.dtd" >
<svg xmlns="http://www.w3.org/2000/svg" xmlns:xlink="http://www.w3.org/1999/xlink" version="1.1" viewBox="-11 0 598 512">
   <path fill="currentColor"
d="M277 -35q11 -8 22 0l85 75v0v-23v0q2 -22 24 -24h80v0q22 2 24 24v136v0l59 52v0q10 11 1 23q-11 10 -23 1l-37 -33v0v197v0q-1 34 -23 57q-23 22 -57 23h-288v0q-34 -1 -57 -23q-22 -23 -23 -57v-197v0l-37 33v0q-12 9 -23 -1q-9 -12 1 -23l272 -240v0zM480 125v-100
v100v-100h-64v0v44v0l64 56v0zM96 168v225v-225v225q1 20 14 34q14 13 34 14h130v0l-47 -71v0q-7 -13 4 -22l80 -54v0l-82 -82v0q-10 -11 0 -22q11 -10 22 0l96 96v0q6 5 5 13q-1 7 -7 11l-83 55v0l51 76v0h119v0q20 -1 34 -14q13 -14 14 -34v-225v0l-192 -170v0l-192 170v0
z" />
</svg>
