<?xml version="1.0" standalone="no"?>
<!DOCTYPE svg PUBLIC "-//W3C//DTD SVG 1.1//EN" "http://www.w3.org/Graphics/SVG/1.1/DTD/svg11.dtd" >
<svg xmlns="http://www.w3.org/2000/svg" xmlns:xlink="http://www.w3.org/1999/xlink" version="1.1" viewBox="-10 -40 596 512">
   <path fill="currentColor"
d="M486 -6l-175 175l175 -175l-175 175l76 76v0l45 -25v0q8 -5 8 -14v-32v0q0 -19 14 -34l89 -89v0q1 -1 1 -2t-1 -2l-53 -53v0q-1 -1 -2 -1t-2 1v0zM488 -39q15 0 25 10l53 53v0q10 10 10 25t-10 25l-89 89v0q-5 5 -5 11v32v0q-1 28 -25 42l-45 25v0q-21 10 -38 -5l-76 -76
v0q-9 -10 -9 -23t9 -23l175 -175v0q10 -10 25 -10v0zM5 430l238 -238l-238 238l238 -238l22 22v0l-218 219v0q32 8 65 8q74 -1 129 -28q54 -27 104 -74l-9 -9v0q-10 -10 -10 -23t10 -23l33 33v0q8 10 8 23q0 12 -10 21q-52 51 -112 81q-61 30 -143 31q-52 -1 -101 -17
q-8 -3 -10 -11t4 -15v0zM416 105q1 -15 16 -16q15 1 16 16q-1 15 -16 16q-15 -1 -16 -16v0zM480 41q15 1 16 16q-1 15 -16 16q-15 -1 -16 -16q1 -15 16 -16v0z" />
</svg>
