<?xml version="1.0" standalone="no"?>
<!DOCTYPE svg PUBLIC "-//W3C//DTD SVG 1.1//EN" "http://www.w3.org/Graphics/SVG/1.1/DTD/svg11.dtd" >
<svg xmlns="http://www.w3.org/2000/svg" xmlns:xlink="http://www.w3.org/1999/xlink" version="1.1" viewBox="-10 -40 529 512">
   <path fill="currentColor"
d="M300 -39q-26 0 -44 16v0v0q-19 16 -23 41l-2 8v0l-13 -10v0q-19 -14 -40 -12q-22 1 -39 17q-20 22 -17 51l7 47v0q-35 -7 -60 19l-7 8v0q-14 17 -17 38t7 41l12 25v0q12 24 12 50v74v0l-71 72v0q-10 11 0 22q11 10 22 0l75 -74v0h68v0q26 0 50 11l25 13v0q20 10 41 7
t38 -17l8 -7v0q26 -25 18 -60l48 6v0q29 4 51 -17q15 -16 17 -38q1 -22 -12 -40l-10 -14v0l8 -1v0q25 -5 41 -23q15 -19 16 -44q-1 -36 -31 -57l-10 -7v0l5 -25v0q8 -38 -19 -65q-28 -27 -65 -20l-25 6v0l-7 -11v0q-21 -29 -57 -30v0zM134 362l181 -182l-181 182l181 -182
q10 -11 0 -22q-11 -10 -22 0l-185 184v0v-42v0q0 -34 -15 -64l-12 -25v0q-11 -24 5 -44l7 -8v0q17 -16 37 -5q12 7 23 1q11 -7 10 -22l-9 -65v0q-2 -14 8 -24q17 -15 37 -3l24 18v0q11 8 23 3q12 -4 15 -18l3 -21v0q7 -28 36 -30q19 1 30 16l7 11v0q13 17 34 13l24 -5v0
q21 -4 37 10q14 16 10 36l-5 25v0q-4 21 13 34l11 6v0q15 12 16 31q-2 29 -30 35l-22 4v0q-13 3 -18 15t3 23l18 24v0q13 19 -2 37q-10 10 -24 8l-66 -10v0q-14 -1 -21 10t0 24q12 20 -5 37l-7 7v0q-21 16 -44 5l-25 -12v0q-30 -15 -64 -15h-36v0z" />
</svg>
