<?xml version="1.0" standalone="no"?>
<!DOCTYPE svg PUBLIC "-//W3C//DTD SVG 1.1//EN" "http://www.w3.org/Graphics/SVG/1.1/DTD/svg11.dtd" >
<svg xmlns="http://www.w3.org/2000/svg" xmlns:xlink="http://www.w3.org/1999/xlink" version="1.1" viewBox="-10 -40 532 512">
   <path fill="currentColor"
d="M314 -30q-6 13 7 21q15 7 32 34q-23 -2 -44 15q-21 16 -31 46q-11 33 -2 60q10 28 34 37q25 7 49 -10q24 -16 36 -49q5 -18 5 -35v0v0q-2 -52 -22 -84q-21 -32 -43 -42q-13 -6 -21 7v0zM308 96q9 -23 23 -33q14 -8 21 -5q7 1 13 16q6 16 -1 40q-9 24 -23 33t-21 5
q-7 -1 -13 -16q-6 -16 1 -40v0zM205 136q-6 15 -13 16q-7 4 -21 -5t-23 -33q-7 -24 -1 -40q6 -15 13 -16q7 -3 21 5q15 10 23 33q7 24 1 40v0zM202 183q24 -9 34 -37v0v0q9 -27 -1 -60q-11 -30 -32 -46q-21 -17 -44 -15q17 -27 32 -34q13 -7 7 -21q-7 -13 -21 -7
q-22 10 -43 42q-20 32 -22 84v0v0q0 17 6 35q11 33 35 49q24 17 49 10v0zM80 237q-2 10 -6 11q-2 3 -13 -1t-22 -21q-9 -16 -7 -29q3 -10 6 -11q2 -2 13 1q12 5 22 21q9 17 7 29v0zM90 276q19 -12 22 -35v0v0q2 -24 -12 -49q-11 -19 -27 -29q-16 -11 -33 -10q8 -21 20 -33
q11 -13 19 -17q13 -8 7 -21q-7 -13 -21 -7q-22 10 -43 42q-20 32 -22 84v0v0q0 20 12 41q15 25 37 34q22 10 41 0v0zM256 249q14 -1 41 11v0v0q28 13 59 47v0v0q32 34 57 98q3 9 3 20v4v0q-1 11 -12 12q-15 0 -30 -5l-80 -25v0q-38 -11 -76 0l-80 25v0q-15 5 -30 5
q-11 -1 -12 -12v-4v0q0 -11 3 -20q25 -64 57 -98q31 -34 59 -47q27 -12 41 -11v0zM256 217q-22 -1 -55 15v0v0q-34 15 -69 53v0v0q-36 39 -63 109q-5 15 -5 31v4v0q0 19 13 31q12 13 31 13q20 0 39 -6l80 -25v0q29 -9 58 0l80 25v0q19 6 39 6q19 0 31 -13q13 -12 13 -31v-4
v0q0 -16 -5 -31q-27 -70 -63 -109q-35 -38 -69 -53q-33 -16 -55 -15v0zM439 208q11 -16 22 -21q11 -3 13 -1q4 1 6 11q2 13 -7 29q-10 17 -22 21q-11 4 -13 1q-3 -1 -6 -11q-2 -12 7 -29v0zM412 192q-14 25 -12 49v0v0q3 23 22 35q19 10 41 0q22 -9 37 -34q12 -21 12 -41v0
v0q-2 -52 -22 -84q-21 -32 -43 -42q-14 -6 -21 7q-6 14 7 21q8 4 19 17q12 12 20 33q-17 0 -33 10t-27 29v0z" />
</svg>
