<?xml version="1.0" standalone="no"?>
<!DOCTYPE svg PUBLIC "-//W3C//DTD SVG 1.1//EN" "http://www.w3.org/Graphics/SVG/1.1/DTD/svg11.dtd" >
<svg xmlns="http://www.w3.org/2000/svg" xmlns:xlink="http://www.w3.org/1999/xlink" version="1.1" viewBox="-10 -40 596 512">
   <path fill="currentColor"
d="M299 -3l21 9l-21 -9l21 9v54v0q17 3 32 9v-73v0q0 -11 -10 -15l-43 -19v0q-3 -1 -6 -1h-2v0q-11 0 -15 10l-42 94v0q19 -5 39 -7l26 -61v0zM166 106q14 -14 32 -24q-22 -9 -46 -9q-33 0 -61 17q-28 16 -48 43q-42 57 -43 140q1 83 43 140q20 27 48 43q28 17 61 17
q37 -1 68 -21q31 21 68 21q37 -1 68 -21q31 21 68 21q33 0 61 -17q28 -16 48 -43q42 -57 43 -140q-1 -83 -43 -140q-20 -27 -48 -43q-28 -17 -61 -17q-24 0 -45 9q17 10 31 24q7 -1 14 -1q48 1 83 47q35 48 37 121q-2 73 -37 121q-35 46 -83 47q-31 0 -58 -21q-10 -7 -20 0
q-27 21 -58 21t-58 -21q-10 -7 -20 0q-27 21 -58 21q-48 -1 -83 -47q-35 -48 -37 -121q2 -73 37 -121q35 -46 83 -47q7 0 14 1v0zM288 121q60 2 93 49q9 11 22 4q11 -9 4 -22q-20 -29 -51 -46t-68 -17q-38 0 -68 17q-31 17 -51 46q-7 13 4 22q13 7 22 -4q33 -47 93 -49v0z
" />
</svg>
