<?xml version="1.0" standalone="no"?>
<!DOCTYPE svg PUBLIC "-//W3C//DTD SVG 1.1//EN" "http://www.w3.org/Graphics/SVG/1.1/DTD/svg11.dtd" >
<svg xmlns="http://www.w3.org/2000/svg" xmlns:xlink="http://www.w3.org/1999/xlink" version="1.1" viewBox="-10 -40 468 512">
   <path fill="currentColor"
d="M224 137q41 -1 62 -36q20 -36 0 -72q-21 -35 -62 -36q-41 1 -62 36q-20 36 0 72q21 35 62 36v0zM224 169q-28 0 -51 -13v0v0q-23 -13 -37 -35h-74v0q6 12 -4 21l-15 11v0l15 11v0q10 9 4 21h63v0q15 1 24 12t7 26l-21 107v0l25 -15v0q8 -4 16 0l48 28v0l48 -28v0
q8 -4 16 0l26 15v0l-22 -107v0q-2 -15 7 -26t25 -12h62v0q-6 -12 4 -21l15 -11v0l-15 -11v0q-10 -9 -4 -21h-74v0q-14 22 -37 35t-51 13v0zM328 65q0 12 -3 24h91v0q9 0 14 9q4 8 -1 16l-7 11v0l20 15v0q6 5 6 13t-6 13l-20 15v0l7 11v0q5 8 1 16q-5 9 -14 9h-92v0l28 141v0
q1 10 -7 16q-8 5 -17 1l-48 -28v0l-48 28v0q-8 4 -16 0l-48 -28v0l-48 28v0q-9 5 -17 -1t-7 -16l29 -141v0h-93v0q-9 0 -14 -8q-4 -9 1 -17l7 -11v0l-20 -15v0q-6 -5 -6 -13t6 -13l20 -15v0l-7 -11v0q-5 -8 -1 -16q5 -9 14 -9h91v0q-3 -12 -3 -24q1 -44 30 -74
q30 -29 74 -30q44 1 74 30q29 30 30 74v0zM176 49q1 -15 16 -16q15 1 16 16q-1 15 -16 16q-15 -1 -16 -16v0zM256 49q15 1 16 16q-1 15 -16 16q-15 -1 -16 -16q1 -15 16 -16v0zM208 457v-51v51v-51q16 6 32 0v51v0q-1 15 -16 16q-15 -1 -16 -16v0z" />
</svg>
