<?xml version="1.0" standalone="no"?>
<!DOCTYPE svg PUBLIC "-//W3C//DTD SVG 1.1//EN" "http://www.w3.org/Graphics/SVG/1.1/DTD/svg11.dtd" >
<svg xmlns="http://www.w3.org/2000/svg" xmlns:xlink="http://www.w3.org/1999/xlink" version="1.1" viewBox="-10 -40 661 512">
   <path fill="currentColor"
d="M640 -20q1 -15 -13 -19q-15 -1 -19 13l-58 291v0h-150v0q-15 1 -16 16q1 15 16 16h144v0l-32 157v0q-1 15 13 19q15 1 19 -13l96 -480v0zM352 -39q-115 3 -189 42v0v0q-74 38 -113 83v0v0q-39 44 -47 62q-3 5 -3 11q2 24 26 26h507v0l7 -32v0h-503v0q14 -23 51 -60
q38 -38 103 -68t161 -32h220v0l5 -25v0q1 -4 2 -7h-227v0z" />
</svg>
