<?xml version="1.0" standalone="no"?>
<!DOCTYPE svg PUBLIC "-//W3C//DTD SVG 1.1//EN" "http://www.w3.org/Graphics/SVG/1.1/DTD/svg11.dtd" >
<svg xmlns="http://www.w3.org/2000/svg" xmlns:xlink="http://www.w3.org/1999/xlink" version="1.1" viewBox="-10 -40 650 512">
   <path fill="currentColor"
d="M544 97q-1 -31 -21 -51v0v0q-20 -20 -51 -21q-28 1 -47 18q-20 17 -24 43v0v0v0v0q-1 6 -1 11v72v0q1 27 19 45t45 19h16v0q27 -1 45 -19t19 -45v-72v0zM373 67q10 -33 37 -53v0v0q26 -20 62 -21q34 1 60 19q25 18 37 48l48 32v0q11 9 4 22q-9 11 -22 4l-23 -15v0v66v0
q-1 41 -28 68t-68 28h-16v0q-41 -1 -68 -28t-28 -68v-61v0l-15 10v0q-13 7 -22 -4q-7 -13 4 -22l37 -25h1zM448 105q15 1 16 16q-1 15 -16 16q-15 -1 -16 -16q1 -15 16 -16v0zM496 121q1 -15 16 -16q15 1 16 16q-1 15 -16 16q-15 -1 -16 -16v0zM416 305q15 0 25 -12
q15 4 31 4h2h1q-15 34 -52 40l-25 100v0q-5 16 -17 26q-13 10 -30 10h-15v0q-20 -1 -34 -14q-13 -14 -14 -34v-41v0q-14 9 -32 9t-32 -9v41v0q-1 20 -14 34q-14 13 -34 14h-15v0q-17 0 -30 -10q-12 -10 -17 -26l-25 -100v0q-24 -3 -40 -21t-17 -43q0 -8 2 -15
q-32 -18 -34 -57q2 -39 34 -56q-2 -8 -2 -16q1 -27 19 -45t45 -19q5 0 10 1q5 -22 22 -35q17 -14 40 -14t40 14q18 -21 48 -22q30 1 48 22q17 -14 40 -14q9 0 17 2q-10 14 -16 30h-1v0q-12 0 -20 7q-10 8 -23 7q-12 -1 -21 -11q-9 -11 -24 -11t-24 11q-9 10 -21 11
q-13 1 -23 -7q-8 -7 -20 -7q-24 2 -31 24q-3 13 -13 19q-10 7 -23 5h-5q-14 0 -23 9t-9 23q0 4 1 8q4 23 -16 36q-16 9 -17 28q1 19 17 28q20 13 16 36q-1 4 -1 8q0 14 9 23t23 9h5q13 -2 23 5q10 6 13 19q7 22 31 24q12 0 20 -7q10 -8 23 -7q12 1 21 11q9 11 24 11t24 -11
q9 -10 21 -11q13 -1 23 7q8 7 20 7q24 -2 31 -24q3 -13 13 -19q10 -7 23 -5h5v0zM344 385q-13 0 -24 -5v45v0q1 15 16 16h15v0q12 -1 16 -12l13 -55v0q-15 11 -36 11v0zM132 374l14 55l-14 -55l14 55q3 11 15 12h15v0q15 -1 16 -16v-45v0q-11 5 -24 5q-21 0 -36 -11v0z" />
</svg>
