<?xml version="1.0" standalone="no"?>
<!DOCTYPE svg PUBLIC "-//W3C//DTD SVG 1.1//EN" "http://www.w3.org/Graphics/SVG/1.1/DTD/svg11.dtd" >
<svg xmlns="http://www.w3.org/2000/svg" xmlns:xlink="http://www.w3.org/1999/xlink" version="1.1" viewBox="-10 -40 532 512">
   <path fill="currentColor"
d="M144 -7q-48 1 -79 33v0v0q-32 31 -33 79q1 48 33 79q31 32 79 33q25 1 38 22q12 28 -5 51q-17 24 -17 55q1 41 28 68t68 28h112v0q27 -1 45 -19t19 -45q-1 -27 -19 -45t-45 -19q-10 0 -19 3q-15 3 -20 -11q-3 -14 10 -20q14 -4 29 -4q17 0 32 5v-85v0q1 -15 16 -16h11v0
q34 -1 51 -31l2 -4v0l-1 -3v0q-3 -25 -20 -41q-18 -16 -43 -17h-16v0q-15 -1 -16 -16v-32v0q1 -15 16 -16q15 1 16 16v16v0q38 1 64 25q27 24 31 61l1 8v0q0 5 -2 9l-4 8v0q-11 22 -30 35q-20 12 -44 14v88v0q31 28 32 72q-1 38 -24 64h40v0q15 1 16 16q-1 15 -16 16h-112
h-112q-54 -1 -91 -37q-36 -37 -37 -91q1 -42 23 -74q6 -10 3 -16q-4 -6 -10 -6q-61 -2 -102 -42q-40 -41 -42 -102q2 -61 42 -102q41 -40 102 -42q61 2 102 42q40 41 42 102v32v0q-1 15 -16 16q-15 -1 -16 -16v-32v0q-1 -48 -33 -79q-31 -32 -79 -33v0zM352 41v76v-76v76
q0 56 -21 92q-19 31 -48 63v0v0v0v0l-1 1q-4 5 -8 9l-11 13v0q-22 28 -23 66q-1 15 -16 16q-15 -1 -16 -16q0 -23 8 -46q7 -23 23 -41l11 -13v0q4 -4 7 -9q1 0 2 -1v-1q29 -32 44 -56q17 -27 17 -77v-76v0q1 -15 16 -16q15 1 16 16v0zM416 105q15 1 16 16q-1 15 -16 16
q-15 -1 -16 -16q1 -15 16 -16v0z" />
</svg>
