<?xml version="1.0" standalone="no"?>
<!DOCTYPE svg PUBLIC "-//W3C//DTD SVG 1.1//EN" "http://www.w3.org/Graphics/SVG/1.1/DTD/svg11.dtd" >
<svg xmlns="http://www.w3.org/2000/svg" xmlns:xlink="http://www.w3.org/1999/xlink" version="1.1" viewBox="-10 -40 532 512">
   <path fill="currentColor"
d="M284 5l-7 15l7 -15l-7 15q-9 18 -3 36t25 28q18 9 36 3q18 -7 28 -25q3 -5 9 -5h28v0q15 1 16 16v48v0q-1 11 -12 15l-169 49v0q-20 5 -35 20l-39 39v0q-5 5 -11 5h-38v0q-15 2 -16 16v38v0q0 6 -5 11l-77 77v0q-14 15 -14 34t14 34q15 14 34 14t34 -14l180 -180v0
q3 -3 7 -4l86 -25v0q6 -2 12 2l33 18v0q13 6 21 -6l19 -33v0q4 -6 10 -8l4 -1v0q26 -8 42 -29q15 -21 16 -48v-104v0q-1 -34 -24 -57q-22 -22 -56 -23h-76v0q-23 0 -42 12t-30 32v0zM356 -7h76h-76h76q20 1 34 14q13 14 14 34v104v0q0 16 -10 29q-9 12 -25 17l-4 1v0
q-18 6 -28 23l-11 20v0l-19 -11v0q-18 -10 -37 -5l-86 25v0q-11 3 -20 12l-181 180v0q-11 10 -22 0q-10 -11 0 -22l77 -78v0q14 -14 14 -34v-21v0h22v0q19 0 34 -14l39 -39v0q9 -9 21 -13l169 -48v0q33 -12 35 -46v-48v0q0 -20 -14 -34q-14 -13 -34 -14h-28v0q-26 1 -38 23
q-8 13 -21 7q-13 -7 -7 -21l7 -14v0q14 -26 43 -27v0z" />
</svg>
