<?xml version="1.0" standalone="no"?>
<!DOCTYPE svg PUBLIC "-//W3C//DTD SVG 1.1//EN" "http://www.w3.org/Graphics/SVG/1.1/DTD/svg11.dtd" >
<svg xmlns="http://www.w3.org/2000/svg" xmlns:xlink="http://www.w3.org/1999/xlink" version="1.1" viewBox="-10 -40 650 512">
   <path fill="currentColor"
d="M21 425q-5 7 -5 15q0 9 4 17q10 15 28 16h270v0q17 0 32 -9t23 -27q9 -19 19 -58t18 -101v-4v-3q6 -51 6 -118q1 -68 23 -113q23 -45 57 -47q34 2 57 47q22 45 23 113q-1 68 -23 113q-23 45 -57 47q-32 -2 -54 -41q-2 24 -5 46q23 25 59 27q31 -1 52 -20t33 -45
q26 -53 27 -127q-1 -74 -27 -127q-12 -26 -33 -45t-52 -20h-32h-304q-41 2 -68 56t-28 136q1 62 -5 130q-5 69 -31 127q-4 8 -7 15v0v0zM432 -7q-13 15 -21 33q-26 53 -27 127q-1 116 -15 182t-25 90q-8 16 -26 16h-270v0v0v0l1 -1q34 -68 41 -145q7 -76 6 -142
q1 -75 25 -121q12 -23 22 -31q11 -9 17 -8h272v0zM482 173q-2 -9 -2 -20t2 -20q4 -26 14 -28q10 2 15 28q1 9 1 20t-1 20q-5 26 -15 28q-10 -2 -14 -28v0zM527 217q8 -10 11 -20q6 -20 6 -44t-6 -44q-3 -10 -11 -20q-3 -5 -11 -10q-8 -6 -20 -6t-20 6q-8 5 -11 10
q-8 10 -11 20q-6 20 -6 44t6 44q3 10 11 20q3 5 11 10q8 6 20 6t20 -6q8 -5 11 -10v0z" />
</svg>
