<?xml version="1.0" standalone="no"?>
<!DOCTYPE svg PUBLIC "-//W3C//DTD SVG 1.1//EN" "http://www.w3.org/Graphics/SVG/1.1/DTD/svg11.dtd" >
<svg xmlns="http://www.w3.org/2000/svg" xmlns:xlink="http://www.w3.org/1999/xlink" version="1.1" viewBox="-10 -40 468 512">
   <path fill="currentColor"
d="M384 409v-256v256v-256q-2 -68 -47 -113t-113 -47q-68 2 -113 47t-47 113v256v0h-32v0v-256v0q2 -82 56 -136t136 -56q82 2 136 56t56 136v256v0h-32v0zM0 457q1 -15 16 -16h416v0q15 1 16 16q-1 15 -16 16h-416v0q-15 -1 -16 -16v0zM240 105v64v-64v64h64v0q15 1 16 16
q-1 15 -16 16h-64v0v128v0q-1 15 -16 16q-15 -1 -16 -16v-128v0h-64v0q-15 -1 -16 -16q1 -15 16 -16h64v0v-64v0q1 -15 16 -16q15 1 16 16v0z" />
</svg>
