<?xml version="1.0" standalone="no"?>
<!DOCTYPE svg PUBLIC "-//W3C//DTD SVG 1.1//EN" "http://www.w3.org/Graphics/SVG/1.1/DTD/svg11.dtd" >
<svg xmlns="http://www.w3.org/2000/svg" xmlns:xlink="http://www.w3.org/1999/xlink" version="1.1" viewBox="-10 -40 596 512">
   <path fill="currentColor"
d="M128 25v192v-192v192h64v0v-32v0q1 -27 19 -45t45 -19h64v0q27 1 45 19t19 45v32v0h64v0v-192v0h-320v0zM320 345h-64h64h-64q-27 -1 -45 -19t-19 -45v-32v0h-64v0v160v0h320v0v-160v0h-64v0v32v0q-1 27 -19 45t-45 19v0zM96 31q-28 10 -46 34v0v0q-17 24 -18 56v96v0h64
v0v-186v0zM32 249v144v-144v144q1 15 16 16h48v0v-160v0h-64v0zM480 409h48h-48h48q15 -1 16 -16v-144v0h-64v0v160v0zM544 217v-96v96v-96q-1 -32 -18 -56q-18 -24 -46 -34v186v0h64v0zM0 121q1 -54 37 -91v0v0q37 -36 91 -37h320v0q54 1 91 37q36 37 37 91v272v0
q-1 20 -14 34q-14 13 -34 14h-480v0q-20 -1 -34 -14q-13 -14 -14 -34v-272v0zM320 153h-64h64h-64q-14 0 -23 9t-9 23v96v0q0 14 9 23t23 9h64v0q14 0 23 -9t9 -23v-96v0q0 -14 -9 -23t-23 -9v0zM304 201v64v-64v64q-1 15 -16 16q-15 -1 -16 -16v-64v0q1 -15 16 -16
q15 1 16 16v0z" />
</svg>
