<?xml version="1.0" standalone="no"?>
<!DOCTYPE svg PUBLIC "-//W3C//DTD SVG 1.1//EN" "http://www.w3.org/Graphics/SVG/1.1/DTD/svg11.dtd" >
<svg xmlns="http://www.w3.org/2000/svg" xmlns:xlink="http://www.w3.org/1999/xlink" version="1.1" viewBox="-10 -40 660 512">
   <path fill="currentColor"
d="M168 -27q10 -11 24 -11v0v0q14 0 24 11l103 120v0q6 7 6 17q0 12 -8 19q-8 8 -19 8h-12v0l62 67v0q6 8 7 18q-3 25 -27 27h-15v0l65 84v0q6 8 6 17q0 11 -8 19t-19 8h-122h-27v80v0q-1 15 -16 16q-15 -1 -16 -16v-80v0h-27h-122q-11 0 -19 -8t-8 -19q0 -9 6 -17l65 -84v0
h-15v0q-24 -2 -26 -27q0 -10 7 -17l61 -68v0h-12v0q-11 0 -19 -8q-8 -7 -8 -19q0 -10 7 -17l102 -120v0zM235 345h112h-112h112l-80 -102v0q-5 -8 -1 -17t14 -9h36v0l-78 -85v0q-7 -8 -3 -17q5 -9 15 -10h37v0l-95 -111v0l-95 111v0h37v0q10 0 15 10q3 9 -3 17l-78 85v0h36
v0q10 0 14 9t-1 17l-80 102v0h112h27v-176v0q1 -15 16 -16q15 1 16 16v176v0h27v0zM424 -26q10 -12 24 -12v0v0q14 0 25 11l102 120v0q6 7 6 17q0 12 -8 19q-7 8 -19 8h-12v0l62 68v0q6 7 7 17q-3 25 -27 27h-15v0l65 84v0q6 8 6 17q0 11 -8 19t-19 8h-149v0v80v0
q-1 15 -16 16q-15 -1 -16 -16v-96v0v-192v0q1 -15 16 -16q15 1 16 16v176v0h139v0l-80 -102v0q-5 -8 -1 -17t14 -9h36v0l-78 -85v0q-7 -8 -3 -17q5 -9 15 -10h37v0l-95 -111v0l-60 73v0q-10 11 -22 2q-11 -10 -3 -22l61 -73v0z" />
</svg>
