<?xml version="1.0" standalone="no"?>
<!DOCTYPE svg PUBLIC "-//W3C//DTD SVG 1.1//EN" "http://www.w3.org/Graphics/SVG/1.1/DTD/svg11.dtd" >
<svg xmlns="http://www.w3.org/2000/svg" xmlns:xlink="http://www.w3.org/1999/xlink" version="1.1" viewBox="-10 -40 468 512">
   <path fill="currentColor"
d="M320 89q-1 41 -28 68v0v0q-27 27 -68 28q-41 -1 -68 -28t-28 -68q0 -8 1 -16h63h127q1 8 1 16v0zM307 41h-69h69h-69l39 -32v0q19 13 30 32v0zM244 -5l-58 46l58 -46l-58 46h-45v0q13 -22 34 -35q22 -13 49 -13q10 0 20 2v0zM352 89q0 -35 -17 -64v0v0q-17 -29 -47 -47
q-30 -17 -64 -17t-64 17q-30 18 -47 47t-17 64t17 64t47 47q30 17 64 17t64 -17q30 -18 47 -47t17 -64v0zM32 441q2 -51 32 -89v89v0h-32v0zM96 441v-119v119v-119q19 -13 43 -20l88 139v0h-131v0zM320 409q0 14 -9 23v0v0q-9 9 -23 9h-23v0l-41 -64v0h64v0q14 0 23 9t9 23
v0zM80 473h80h-80h338q13 0 21 -9q9 -8 9 -21q-2 -75 -52 -126q-51 -50 -126 -52h-92v0q-75 2 -126 52q-50 51 -52 126q0 13 9 21q8 9 21 9h50v0zM416 441h-73h73h-73q9 -14 9 -32q-1 -27 -19 -45t-45 -19h-84v0l-31 -48v0h5v0h92v0q61 2 102 42q42 41 44 102v0z" />
</svg>
