<?xml version="1.0" standalone="no"?>
<!DOCTYPE svg PUBLIC "-//W3C//DTD SVG 1.1//EN" "http://www.w3.org/Graphics/SVG/1.1/DTD/svg11.dtd" >
<svg xmlns="http://www.w3.org/2000/svg" xmlns:xlink="http://www.w3.org/1999/xlink" version="1.1" viewBox="-10 -40 660 512">
   <path fill="currentColor"
d="M576 57h-512h512h-512q-14 0 -23 9t-9 23v256v0q0 14 9 23t23 9h136v0q20 -1 29 -18l39 -78v0q17 -31 52 -32q35 1 52 32l-22 11v0l22 -11v0l39 78v0q9 17 29 18h136v0q14 0 23 -9t9 -23v-256v0q0 -14 -9 -23t-23 -9v0zM64 25h512h-512h512q27 1 45 19t19 45v256v0
q-1 27 -19 45t-45 19h-136v0q-39 -1 -58 -35l-39 -79v0q-7 -13 -23 -14q-16 1 -23 14l-39 79v0q-19 34 -58 35h-136v0q-27 -1 -45 -19t-19 -45v-256v0q1 -27 19 -45t45 -19v0zM176 249q27 -1 42 -24q12 -24 0 -48q-15 -23 -42 -24q-27 1 -42 24q-12 24 0 48q15 23 42 24v0z
M176 121q45 1 69 40q22 40 0 80q-24 39 -69 40q-45 -1 -69 -40q-22 -40 0 -80q24 -39 69 -40v0zM512 201q-1 -27 -24 -42q-24 -12 -48 0q-23 15 -24 42q1 27 24 42q24 12 48 0q23 -15 24 -42v0zM384 201q1 -45 40 -69q40 -22 80 0q39 24 40 69q-1 45 -40 69q-40 22 -80 0
q-39 -24 -40 -69v0z" />
</svg>
