<?xml version="1.0" standalone="no"?>
<!DOCTYPE svg PUBLIC "-//W3C//DTD SVG 1.1//EN" "http://www.w3.org/Graphics/SVG/1.1/DTD/svg11.dtd" >
<svg xmlns="http://www.w3.org/2000/svg" xmlns:xlink="http://www.w3.org/1999/xlink" version="1.1" viewBox="-10 -40 660 512">
   <path fill="currentColor"
d="M165 -38q9 3 11 12l14 85v0l85 14v0q9 2 12 11t-4 16l-40 41v0q-30 28 -70 22l-62 -10v0l-40 58v0q-14 22 -3 45q13 24 39 25h4v0q17 0 31 -11l129 -103v0q47 -38 104 -58t117 -20q63 2 105 43q41 42 43 105v108v0q-1 41 -28 68t-68 28h-382v0q-69 -2 -114 -48
q-46 -45 -48 -114q1 -62 44 -106l46 -46v0l4 -3v0l-8 -48v0q-6 -40 22 -70l41 -40v0q7 -7 16 -4v0zM149 10l-18 19l18 -19l-18 19q-17 18 -14 42l9 52v0l52 9v0q24 3 42 -14l19 -18v0l-66 -11v0q-10 -3 -13 -13l-11 -66v0zM368 257q2 -22 24 -24q22 2 24 24q-2 22 -24 24
q-22 -2 -24 -24v0zM34 258q-2 10 -2 21q1 55 38 92t92 38h382v0q27 -1 45 -19t19 -45v-108v0q-1 -49 -34 -82t-82 -34q-112 1 -201 71l-129 103v0q-23 18 -51 18h-3v0q-23 0 -41 -11q-18 -12 -28 -31q-3 -7 -5 -13v0z" />
</svg>
