<?xml version="1.0" standalone="no"?>
<!DOCTYPE svg PUBLIC "-//W3C//DTD SVG 1.1//EN" "http://www.w3.org/Graphics/SVG/1.1/DTD/svg11.dtd" >
<svg xmlns="http://www.w3.org/2000/svg" xmlns:xlink="http://www.w3.org/1999/xlink" version="1.1" viewBox="-10 -40 532 512">
   <path fill="currentColor"
d="M176 -7q-34 1 -57 23v0v0q-22 23 -23 57q0 8 2 16q1 14 -12 18q-24 7 -39 26q-15 18 -15 44q1 31 21 51t51 21h304v0q31 -1 51 -21t21 -51q-1 -31 -21 -51t-51 -21h-7q-7 1 -12 -4t-5 -12v0v0q-1 -27 -19 -45t-45 -19q-27 1 -46 19q-5 6 -14 5q-8 -2 -11 -9
q-10 -21 -29 -34q-20 -13 -44 -13v0zM415 73q41 4 69 33v0v0q27 29 28 71q-1 44 -30 74q-30 29 -74 30h-304v0q-44 -1 -74 -30q-29 -30 -30 -74q0 -33 18 -58q18 -26 46 -38v-8q1 -48 33 -79q31 -32 79 -33q59 2 92 48q23 -16 52 -16q36 1 62 23t33 57v0zM96 353
q2 -22 24 -24q22 2 24 24q-2 22 -24 24q-22 -2 -24 -24v0zM56 425q22 2 24 24q-2 22 -24 24q-22 -2 -24 -24q2 -22 24 -24v0zM224 353q2 -22 24 -24q22 2 24 24q-2 22 -24 24q-22 -2 -24 -24v0zM184 425q22 2 24 24q-2 22 -24 24q-22 -2 -24 -24q2 -22 24 -24v0zM352 353
q2 -22 24 -24q22 2 24 24q-2 22 -24 24q-22 -2 -24 -24v0zM312 425q22 2 24 24q-2 22 -24 24q-22 -2 -24 -24q2 -22 24 -24v0z" />
</svg>
