<?xml version="1.0" standalone="no"?>
<!DOCTYPE svg PUBLIC "-//W3C//DTD SVG 1.1//EN" "http://www.w3.org/Graphics/SVG/1.1/DTD/svg11.dtd" >
<svg xmlns="http://www.w3.org/2000/svg" xmlns:xlink="http://www.w3.org/1999/xlink" version="1.1" viewBox="-10 -40 532 512">
   <path fill="currentColor"
d="M96 73q1 -34 23 -57v0v0q23 -22 57 -23q24 0 44 13q19 13 29 33q3 8 11 9q9 2 15 -4q18 -18 45 -19q27 1 45 19t19 45v0v0q0 7 5 12t12 4h7q31 1 51 21t21 51q-1 30 -21 51q-20 20 -51 21h-304v0q-31 -1 -51 -21q-20 -21 -21 -51q0 -26 15 -45q15 -18 39 -25
q13 -5 12 -19q-2 -7 -2 -15v0zM512 177q-1 -42 -28 -71v0v0q-28 -29 -69 -33q-7 -35 -33 -57t-62 -23q-29 0 -52 16q-33 -46 -92 -48q-48 1 -79 33q-32 31 -33 79v8q-28 12 -46 38q-18 25 -18 58q1 44 30 74q30 29 74 30h304v0q44 -1 74 -30q29 -30 30 -74v0zM24 473
q22 -2 24 -24q-2 -22 -24 -24q-22 2 -24 24q2 22 24 24v0zM240 449q-2 -22 -24 -24q-22 2 -24 24q2 22 24 24q22 -2 24 -24v0zM408 473q22 -2 24 -24q-2 -22 -24 -24q-22 2 -24 24q2 22 24 24v0zM184 331q-13 -6 -22 6l-64 112v0q-6 13 6 22q13 6 22 -6l64 -112v0
q6 -13 -6 -22v0zM376 331q-13 -6 -22 6l-64 112v0q-6 13 6 22q13 6 22 -6l64 -112v0q6 -13 -6 -22v0zM94 353q6 -13 -6 -22q-13 -6 -22 6l-18 32v0q-6 13 6 22q13 6 22 -6l18 -32v0zM286 353q6 -13 -6 -22q-13 -6 -22 6l-18 32v0q-6 13 6 22q13 6 22 -6l18 -32v0zM478 353
q6 -13 -6 -22q-13 -6 -22 6l-18 32v0q-6 13 6 22q13 6 22 -6l18 -32v0z" />
</svg>
