<?xml version="1.0" standalone="no"?>
<!DOCTYPE svg PUBLIC "-//W3C//DTD SVG 1.1//EN" "http://www.w3.org/Graphics/SVG/1.1/DTD/svg11.dtd" >
<svg xmlns="http://www.w3.org/2000/svg" xmlns:xlink="http://www.w3.org/1999/xlink" version="1.1" viewBox="-11 0 661 512">
   <path fill="currentColor"
d="M371 -26q-2 -8 -9 -12q-8 -3 -16 2l-90 62v0l-90 -62v0q-8 -5 -15 -2q-8 4 -10 12l-20 108v0l-108 20v0q-8 2 -12 9q-3 8 2 16l62 90v0l-62 90v0q-5 8 -2 16q4 7 12 9l108 20v0l20 108v0q2 8 9 12q8 3 16 -2l90 -62v0l90 62v0q8 5 16 2q7 -4 9 -12l10 -52v0
q-16 -7 -30 -16l-7 38v0l-79 -55v0q-9 -5 -18 0l-79 55v0l-18 -95v0q-2 -10 -12 -12l-95 -18v0l55 -79v0q5 -9 0 -18l-55 -79v0l95 -18v0q10 -2 13 -12l17 -95v0l79 55v0q9 5 18 0l79 -55v0l7 38v0q14 -9 30 -16l-10 -52v0zM256 89q-54 1 -91 37v0v0q-36 37 -37 91
q1 54 37 91q37 36 91 37q21 0 39 -6q-9 -14 -17 -29q-11 3 -22 3q-41 -1 -68 -28t-28 -68q1 -41 28 -68t68 -28q11 0 22 3q8 -15 17 -29q-18 -6 -39 -6v0zM320 217q0 -39 19 -72v0v0q19 -33 53 -53q34 -19 72 -19t72 19q34 20 53 53t19 72t-19 72t-53 53q-34 19 -72 19
t-72 -19q-34 -20 -53 -53t-19 -72v0zM640 217q0 -48 -24 -88v0v0q-23 -40 -64 -64q-42 -24 -88 -24t-88 24q-41 24 -64 64q-24 40 -24 88t24 88q23 40 64 64q42 24 88 24t88 -24q41 -24 64 -64q24 -40 24 -88v0z" />
</svg>
