<?xml version="1.0" standalone="no"?>
<!DOCTYPE svg PUBLIC "-//W3C//DTD SVG 1.1//EN" "http://www.w3.org/Graphics/SVG/1.1/DTD/svg11.dtd" >
<svg xmlns="http://www.w3.org/2000/svg" xmlns:xlink="http://www.w3.org/1999/xlink" version="1.1" viewBox="-10 -40 468 512">
   <path fill="currentColor"
d="M32 -23q-1 -15 -16 -16q-15 1 -16 16v16v0v32v0v256v0v32v0v144v0q1 15 16 16q15 -1 16 -16v-144v0h392v0q22 -2 24 -24q0 -8 -5 -14l-91 -122v0l91 -122v0q5 -6 5 -14q-2 -22 -24 -24h-392v0v-16v0zM32 25h376h-376h376l-82 109v0q-12 19 0 38l82 109v0h-376v0v-256v0z
" />
</svg>
