<?xml version="1.0" standalone="no"?>
<!DOCTYPE svg PUBLIC "-//W3C//DTD SVG 1.1//EN" "http://www.w3.org/Graphics/SVG/1.1/DTD/svg11.dtd" >
<svg xmlns="http://www.w3.org/2000/svg" xmlns:xlink="http://www.w3.org/1999/xlink" version="1.1" viewBox="-10 -40 532 512">
   <path fill="currentColor"
d="M256 -39q15 1 16 16v17v0q67 6 114 50t59 109h19v0q15 1 16 16q-1 15 -16 16h-16h-400q-15 -1 -16 -16q1 -15 16 -16h19v0q12 -66 59 -109q47 -44 114 -50v-17v0q1 -15 16 -16v0zM99 153h314h-314h314q-12 -56 -55 -91q-43 -36 -102 -37q-59 1 -102 37q-43 35 -55 91v0z
M64 313v-96v96v-96h32v0v96v0h80v0v-96v0h32v0v96v0h96v0v-96v0h32v0v96v0h80v0v-96v0h32v0v96v0q15 1 16 16q-1 15 -16 16h-384v0q-15 -1 -16 -16q1 -15 16 -16v0zM24 393q1 -15 16 -16h432v0q15 1 16 16q-1 15 -16 16h-432v0q-15 -1 -16 -16v0zM0 457q1 -15 16 -16h480v0
q15 1 16 16q-1 15 -16 16h-480v0q-15 -1 -16 -16v0z" />
</svg>
