<?xml version="1.0" standalone="no"?>
<!DOCTYPE svg PUBLIC "-//W3C//DTD SVG 1.1//EN" "http://www.w3.org/Graphics/SVG/1.1/DTD/svg11.dtd" >
<svg xmlns="http://www.w3.org/2000/svg" xmlns:xlink="http://www.w3.org/1999/xlink" version="1.1" viewBox="-10 -40 660 512">
   <path fill="currentColor"
d="M447 28q-67 13 -111 62v0v0q-44 49 -48 119q-15 -6 -31 -8q8 -89 70 -147q62 -59 153 -61q9 0 19 1q11 1 14 12q2 11 -8 18q-40 23 -65 63q-24 40 -24 90q2 75 51 124q50 50 124 52q16 0 30 -3q12 -1 17 9t-3 19q-62 61 -155 63q-46 0 -86 -17t-71 -47q11 -12 19 -27
q54 57 138 59q51 -1 94 -25q-82 -8 -135 -66q-53 -57 -55 -141q0 -44 17 -82q16 -39 46 -67v0zM144 185q27 0 47 15v0v0q20 15 29 39q13 -6 28 -6q31 1 51 21t21 51q-1 31 -21 51t-51 21h-184v0q-27 -1 -45 -19t-19 -45q1 -27 19 -45t45 -19h1h1q6 -28 27 -46q21 -17 51 -18
v0zM144 217q-20 1 -34 14v0v0q-13 14 -14 34v1v1q0 9 -6 14q-7 4 -15 2q-5 -2 -11 -2q-14 0 -23 9t-9 23t9 23t23 9h184v0q17 0 28 -12q12 -11 12 -28t-12 -28q-11 -12 -28 -12t-29 12q-7 7 -17 4q-10 -5 -10 -15v-1v0q-1 -20 -14 -34q-14 -14 -34 -14v0z" />
</svg>
