<?xml version="1.0" standalone="no"?>
<!DOCTYPE svg PUBLIC "-//W3C//DTD SVG 1.1//EN" "http://www.w3.org/Graphics/SVG/1.1/DTD/svg11.dtd" >
<svg xmlns="http://www.w3.org/2000/svg" xmlns:xlink="http://www.w3.org/1999/xlink" version="1.1" viewBox="-10 -40 532 512">
   <path fill="currentColor"
d="M304 -39q15 1 16 16v32v0h32v0q15 1 16 16q-1 15 -16 16h-32v0v32v0q-1 15 -16 16q-15 -1 -16 -16v-32v0h-32v0q-15 -1 -16 -16q1 -15 16 -16h32v0v-32v0q1 -15 16 -16v0zM157 125q-55 13 -89 55v0v0q-35 43 -36 101q2 68 47 113q45 46 113 47q39 0 71 -16
q-67 -10 -110 -59t-45 -119q2 -72 49 -122v0zM0 281q2 -81 56 -136v0v0q54 -54 136 -56q8 0 16 1q11 1 14 12q2 11 -7 18q-34 19 -54 52q-20 34 -21 75q2 63 43 104t104 43q12 0 25 -2q11 -2 17 8q4 11 -3 19q-54 52 -134 54q-82 -2 -136 -56t-56 -136v0zM432 121v64v-64v64
h64v0q15 1 16 16q-1 15 -16 16h-64v0v64v0q-1 15 -16 16q-15 -1 -16 -16v-64v0h-64v0q-15 -1 -16 -16q1 -15 16 -16h64v0v-64v0q1 -15 16 -16q15 1 16 16v0z" />
</svg>
