<?xml version="1.0" standalone="no"?>
<!DOCTYPE svg PUBLIC "-//W3C//DTD SVG 1.1//EN" "http://www.w3.org/Graphics/SVG/1.1/DTD/svg11.dtd" >
<svg xmlns="http://www.w3.org/2000/svg" xmlns:xlink="http://www.w3.org/1999/xlink" version="1.1" viewBox="-10 -40 468 512">
   <path fill="currentColor"
d="M224 -7h64h-64h64q15 1 16 16q-1 15 -16 16h-64v0q-15 -1 -16 -16q1 -15 16 -16v0zM224 57h64h-64h64q20 -1 34 -14q13 -14 14 -34q-1 -20 -14 -34q-14 -13 -34 -14h-64v0q-33 2 -45 32h-11v0q-34 1 -57 23q-22 23 -23 57v48v0h-72v0q-15 1 -16 16q1 15 16 16h416v0
q15 -1 16 -16q-1 -15 -16 -16h-312v0v-48v0q1 -20 14 -34q14 -13 34 -14h11v0q12 30 45 32v0zM47 185l27 231l-27 -231l27 231q3 25 20 41q18 15 43 16h174v0q25 -1 43 -16q17 -16 21 -41l26 -231v0h-32v0l-26 228v0q-5 26 -32 28h-174v0q-27 -2 -32 -28l-25 -228v0h-33v0z
M262 244l-17 -37l17 37l-17 -37q-7 -14 -21 -14t-21 14l-16 37v0l-38 5v0q-16 2 -20 16q-4 13 6 24l29 28v0l-8 40v0q-2 14 9 23t26 2l33 -20v0l33 20v0q15 7 26 -2t9 -23l-8 -40v0l29 -28v0q10 -11 6 -24t-19 -16l-39 -5h1zM214 261l10 -23l-10 23l10 -23l10 23v0
q5 12 19 14l25 3v0l-19 19v0q-9 9 -7 21l5 27v0l-21 -13v0q-12 -6 -24 0l-21 12v0l5 -26v0q2 -12 -7 -21l-19 -19v0l26 -3v0q13 -2 18 -14v0z" />
</svg>
