<?xml version="1.0" standalone="no"?>
<!DOCTYPE svg PUBLIC "-//W3C//DTD SVG 1.1//EN" "http://www.w3.org/Graphics/SVG/1.1/DTD/svg11.dtd" >
<svg xmlns="http://www.w3.org/2000/svg" xmlns:xlink="http://www.w3.org/1999/xlink" version="1.1" viewBox="-10 -40 660 512">
   <path fill="currentColor"
d="M80 9q1 -15 16 -16q15 1 16 16q-1 15 -16 16q-15 -1 -16 -16v0zM144 9q-1 -27 -24 -42q-24 -12 -48 0q-23 15 -24 42q1 27 24 42q24 12 48 0q23 -15 24 -42v0zM592 25q15 1 16 16v64v0q-1 15 -16 16h-80v0v-96v0h80v0zM272 25h208h-208h208v96v0h-208v0q-15 -1 -16 -16
v-64v0q1 -15 16 -16v0zM272 -7q-20 1 -34 14v0v0q-13 14 -14 34v64v0q1 20 14 34q14 13 34 14h320v0q20 -1 34 -14q13 -14 14 -34v-64v0q-1 -20 -14 -34q-14 -13 -34 -14h-320v0zM592 313q15 1 16 16v64v0q-1 15 -16 16h-208v0v-96v0h208v0zM272 313h80h-80h80v96v0h-80v0
q-15 -1 -16 -16v-64v0q1 -15 16 -16v0zM272 281q-20 1 -34 14v0v0q-13 14 -14 34v64v0q1 20 14 34q14 13 34 14h320v0q20 -1 34 -14q13 -14 14 -34v-64v0q-1 -20 -14 -34q-14 -13 -34 -14h-320v0zM1 447l-1 8l1 -8l-1 8q0 15 14 18q15 0 18 -14l1 -8v0q3 -18 16 -30t32 -12
h31v0q18 0 31 12t16 30l1 8v0q3 14 18 14q14 -3 14 -18l-1 -8v0q-5 -31 -27 -50q-21 -19 -53 -20h-31v0q-30 1 -52 20t-27 50v0zM1 159l-1 8l1 -8l-1 8q0 15 14 18q15 0 18 -14l1 -8v0q3 -18 16 -30t32 -12h31v0q18 0 31 12t16 30l1 8v0q3 14 18 14q14 -3 14 -18l-1 -8v0
q-5 -31 -27 -50q-21 -19 -53 -20h-31v0q-30 1 -52 20t-27 50v0zM80 297q1 -15 16 -16q15 1 16 16q-1 15 -16 16q-15 -1 -16 -16v0zM144 297q-1 -27 -24 -42q-24 -12 -48 0q-23 15 -24 42q1 27 24 42q24 12 48 0q23 -15 24 -42v0z" />
</svg>
