<?xml version="1.0" standalone="no"?>
<!DOCTYPE svg PUBLIC "-//W3C//DTD SVG 1.1//EN" "http://www.w3.org/Graphics/SVG/1.1/DTD/svg11.dtd" >
<svg xmlns="http://www.w3.org/2000/svg" xmlns:xlink="http://www.w3.org/1999/xlink" version="1.1" viewBox="-10 -40 660 512">
   <path fill="currentColor"
d="M435 -26q-2 -8 -9 -12q-8 -3 -16 2l-90 62v0l-90 -62v0q-8 -5 -15 -2q-8 4 -10 12l-20 108v0l-108 20v0q-8 2 -12 9q-3 8 2 16l62 90v0v0v0h36v0q0 -5 -3 -9l-55 -79v0l95 -18v0q10 -2 13 -12l17 -95v0l79 55v0q9 5 18 0l79 -55v0l18 95v0q2 10 13 12l94 18v0l-54 79v0
q-3 4 -3 9h35v0v0v0l62 -90v0q5 -8 2 -15q-4 -8 -12 -10l-108 -20v0l-20 -108v0zM448 217q-1 -54 -37 -91v0v0q-37 -36 -91 -37q-54 1 -91 37q-36 37 -37 91v0v0h32v0v0v0q1 -41 28 -68t68 -28q41 1 68 28t28 68v0v0h32v0v0v0zM80 249q-15 1 -16 16q1 15 16 16h320v0
q15 -1 16 -16q-1 -15 -16 -16h-320v0zM496 249q-15 1 -16 16q1 15 16 16h128v0q15 -1 16 -16q-1 -15 -16 -16h-128v0zM16 345q-15 1 -16 16q1 15 16 16h544v0q15 -1 16 -16q-1 -15 -16 -16h-544v0zM80 441q-15 1 -16 16q1 15 16 16h128v0q15 -1 16 -16q-1 -15 -16 -16h-128
v0zM304 441q-15 1 -16 16q1 15 16 16h320v0q15 -1 16 -16q-1 -15 -16 -16h-320v0z" />
</svg>
