<?xml version="1.0" standalone="no"?>
<!DOCTYPE svg PUBLIC "-//W3C//DTD SVG 1.1//EN" "http://www.w3.org/Graphics/SVG/1.1/DTD/svg11.dtd" >
<svg xmlns="http://www.w3.org/2000/svg" xmlns:xlink="http://www.w3.org/1999/xlink" version="1.1" viewBox="-11 0 651 512">
   <path fill="currentColor"
d="M336 62l-18 -3l18 3l-18 -3l-14 -85v0q-2 -8 -10 -12q-8 -3 -15 2l-71 50v0l-71 -50v0q-7 -5 -15 -2q-8 4 -10 12l-14 85v0l-85 14v0q-8 2 -12 10q-3 8 2 15l50 71v0l-50 71v0q-5 7 -2 15q4 8 12 10l85 14v0l14 85v0q2 8 10 12q8 3 15 -2l71 -49v0l69 48v0q-5 -21 -5 -43
l-55 -38v0q-9 -6 -18 0l-59 41v0l-12 -71v0q-3 -11 -13 -13l-71 -12v0l41 -59v0q6 -9 0 -18l-41 -59v0l71 -12v0q10 -3 13 -13l12 -71v0l59 41v0q9 6 18 0l60 -41v0l11 71v0q3 10 14 13l34 6v0v-33v0zM208 225q-32 -1 -48 -28q-16 -28 0 -56q16 -27 48 -28q32 1 48 28
q16 28 0 56q-16 27 -48 28v0zM120 169q2 50 44 76q44 24 88 0q42 -26 44 -76q-2 -50 -44 -76q-44 -24 -88 0q-42 26 -44 76v0zM400 57q1 -27 19 -45v0v0q18 -18 45 -19q27 1 45 19t19 45v157v0q1 22 16 37q31 31 32 78q-1 48 -33 79q-31 32 -79 33q-48 -1 -79 -33
q-32 -31 -33 -79q1 -47 32 -78q15 -15 16 -37v-157v0zM464 -39q-41 1 -68 28v0v0q-27 27 -28 68v157v0q0 7 -7 14q-40 41 -41 101q2 61 42 102q41 40 102 42q61 -2 102 -42q40 -41 42 -102q-1 -60 -41 -101q-7 -7 -7 -14v-157v0q-1 -41 -28 -68t-68 -28v0zM432 329
q0 -14 9 -23v0v0q9 -9 23 -9t23 9t9 23t-9 23t-23 9t-23 -9t-9 -23v0zM528 329q0 -23 -14 -40v0v0q-13 -16 -34 -22v-210v0q-1 -15 -16 -16q-15 1 -16 16v210v0q-21 6 -34 22q-14 17 -14 40q1 27 19 45t45 19q27 -1 45 -19t19 -45v0z" />
</svg>
