<?xml version="1.0" standalone="no"?>
<!DOCTYPE svg PUBLIC "-//W3C//DTD SVG 1.1//EN" "http://www.w3.org/Graphics/SVG/1.1/DTD/svg11.dtd" >
<svg xmlns="http://www.w3.org/2000/svg" xmlns:xlink="http://www.w3.org/1999/xlink" version="1.1" viewBox="-10 -40 596 512">
   <path fill="currentColor"
d="M134 68q26 19 58 21q32 -2 58 -21q15 -10 26 -22q12 -10 24 0q11 12 26 22q26 19 58 21q32 -2 58 -21q15 -10 26 -22q12 -10 24 0q11 12 26 22q19 14 44 20q13 3 14 15q-2 17 -18 17q-35 -8 -58 -26q-12 -8 -20 -15q-8 7 -20 15q-14 10 -34 18q-19 9 -42 9t-42 -9
q-20 -8 -34 -18q-12 -8 -20 -15q-8 7 -20 15q-14 10 -34 18q-19 9 -42 9t-42 -9q-20 -8 -34 -18q-12 -8 -20 -15q-8 7 -20 15q-23 17 -58 25q-16 1 -18 -16q1 -12 14 -15q25 -6 44 -20q14 -10 26 -22q12 -10 24 0q11 12 26 22v0zM134 356q26 19 58 21q32 -2 58 -21
q15 -10 26 -22q12 -10 24 0q11 12 26 22q26 19 58 21q32 -2 58 -21q15 -10 26 -22q12 -10 24 0q11 12 26 22q19 14 44 20q13 3 14 15q-2 17 -18 17q-35 -8 -58 -26q-12 -8 -20 -15q-8 7 -20 15q-14 10 -34 18q-19 9 -42 9t-42 -9q-20 -8 -34 -18q-12 -8 -20 -15q-8 7 -20 15
q-14 10 -34 18q-19 9 -42 9t-42 -9q-20 -8 -34 -18q-12 -8 -20 -15q-8 7 -20 15q-23 17 -58 25q-16 1 -18 -16q1 -12 14 -15q25 -6 44 -20q14 -10 26 -22q12 -10 24 0q11 12 26 22v0zM192 233q32 -2 58 -21q15 -10 26 -22q12 -10 24 0q11 12 26 22q26 19 58 21q32 -2 58 -21
q15 -10 26 -22q12 -10 24 0q11 12 26 22q19 14 44 20q13 3 14 15q-2 17 -18 17q-35 -8 -58 -26q-12 -8 -20 -15q-8 7 -20 15q-14 10 -34 18q-19 9 -42 9t-42 -9q-20 -8 -34 -18q-12 -8 -20 -15q-8 7 -20 15q-14 10 -34 18q-19 9 -42 9t-42 -9q-20 -8 -34 -18q-12 -8 -20 -15
q-8 7 -20 15q-23 17 -58 25q-16 1 -18 -16q1 -12 14 -15q25 -6 44 -20q14 -10 26 -22q12 -10 24 0q11 12 26 22q26 19 58 21v0z" />
</svg>
