<?xml version="1.0" standalone="no"?>
<!DOCTYPE svg PUBLIC "-//W3C//DTD SVG 1.1//EN" "http://www.w3.org/Graphics/SVG/1.1/DTD/svg11.dtd" >
<svg xmlns="http://www.w3.org/2000/svg" xmlns:xlink="http://www.w3.org/1999/xlink" version="1.1" viewBox="-10 -40 596 512">
   <path fill="currentColor"
d="M352 57q-1 -36 -32 -55q-32 -18 -64 0q-31 19 -32 55q1 36 32 55q32 18 64 0q31 -19 32 -55v0zM317 149q-14 4 -29 4t-29 -4q28 27 29 68q-1 41 -29 68q14 -4 29 -4t29 4q-28 -27 -29 -68q1 -41 29 -68v0zM384 313q-15 0 -29 -4q28 27 29 68q-1 41 -28 68t-68 28
q-41 -1 -68 -28t-28 -68q1 -41 29 -68q-14 4 -29 4t-29 -4q28 27 29 68q-1 41 -28 68t-68 28q-41 -1 -68 -28t-28 -68q1 -41 28 -68t68 -28q15 0 29 4q-28 -27 -29 -68q1 -41 28 -68t68 -28q15 0 29 4q-28 -27 -29 -68q1 -41 28 -68t68 -28q41 1 68 28t28 68q-1 41 -29 68
q14 -4 29 -4q41 1 68 28t28 68q-1 41 -29 68q14 -4 29 -4q41 1 68 28t28 68q-1 41 -28 68t-68 28q-41 -1 -68 -28t-28 -68q1 -41 29 -68q-14 4 -29 4v0zM256 217q-1 -36 -32 -55q-32 -18 -64 0q-31 19 -32 55q1 36 32 55q32 18 64 0q31 -19 32 -55v0zM160 377
q-1 -36 -32 -55q-32 -18 -64 0q-31 19 -32 55q1 36 32 55q32 18 64 0q31 -19 32 -55v0zM384 281q36 -1 55 -32q18 -32 0 -64q-19 -31 -55 -32q-36 1 -55 32q-18 32 0 64q19 31 55 32v0zM288 441q36 -1 55 -32q18 -32 0 -64q-19 -31 -55 -32q-36 1 -55 32q-18 32 0 64
q19 31 55 32v0zM544 377q-1 -36 -32 -55q-32 -18 -64 0q-31 19 -32 55q1 36 32 55q32 18 64 0q31 -19 32 -55v0z" />
</svg>
