<?xml version="1.0" standalone="no"?>
<!DOCTYPE svg PUBLIC "-//W3C//DTD SVG 1.1//EN" "http://www.w3.org/Graphics/SVG/1.1/DTD/svg11.dtd" >
<svg xmlns="http://www.w3.org/2000/svg" xmlns:xlink="http://www.w3.org/1999/xlink" version="1.1" viewBox="-10 -40 660 512">
   <path fill="currentColor"
d="M283 1q-54 -18 -102 4v0v0q-47 23 -68 75l-15 40v0q-22 59 -75 95l-8 5v0q-16 11 -14 31q3 19 20 26l231 84v0l1 -4v0q4 -14 5 -28l-226 -82v0l9 -6v0q61 -41 87 -110l15 -40v0q15 -39 51 -56q35 -17 75 -5q12 -13 28 -23l-14 -6v0zM354 50q42 -15 80 3v0v0q39 18 55 60
l19 51v0q26 68 86 109l14 9v0v0v0l-298 108v0l5 -15v0q19 -71 -5 -139l-19 -51v0q-14 -43 3 -81q18 -38 60 -55v1zM519 102q-21 -55 -71 -78v0v0q-50 -23 -105 -5q-55 22 -78 71q-23 50 -4 106l19 51v0q21 59 4 119l-5 16v0q-4 18 9 32q15 12 33 6l298 -108v0q17 -7 20 -26
q2 -19 -14 -30l-13 -10v0q-52 -35 -74 -93l-19 -52v1zM435 399q-10 10 -2 22q14 15 33 20t39 -2q20 -8 30 -25q11 -17 11 -37q-2 -15 -17 -15q-15 1 -15 16q-1 22 -21 31q-21 7 -36 -9q-10 -10 -22 -1v0zM180 368q-15 15 -36 9q-20 -10 -20 -31q-1 -15 -16 -17q-14 1 -16 15
q-1 21 10 37q11 17 30 25q20 8 39 3q20 -5 33 -20q9 -12 -2 -23q-12 -9 -22 2v0z" />
</svg>
