<?xml version="1.0" standalone="no"?>
<!DOCTYPE svg PUBLIC "-//W3C//DTD SVG 1.1//EN" "http://www.w3.org/Graphics/SVG/1.1/DTD/svg11.dtd" >
<svg xmlns="http://www.w3.org/2000/svg" xmlns:xlink="http://www.w3.org/1999/xlink" version="1.1" viewBox="-11 0 533 512">
   <path fill="currentColor"
d="M320 49q1 -18 8 -33v0v0q8 -15 15 -23v0v0h1h1v0q7 8 14 24q8 17 9 40q-1 21 -3 27q-1 2 -1 3q-8 11 1 21q10 9 21 1v0q1 0 3 -1q5 -2 27 -3q23 1 39 8q17 8 25 15v0v1v1v0v0q-8 7 -23 15q-15 7 -33 8q-25 0 -38 -9q-13 -8 -31 -26t-27 -31q-8 -13 -8 -38v0zM370 -27
q-11 -12 -26 -12t-26 12q-8 9 -18 29q-11 20 -12 47q0 29 10 48q-22 -8 -46 -8q-39 0 -70 20q-32 20 -49 55l-131 275v0q-6 15 5 27q12 11 27 5l275 -131v0q35 -17 55 -49q20 -31 20 -70q0 -24 -8 -46q19 10 48 10q27 -1 47 -12q20 -10 29 -18q12 -11 12 -26t-12 -26
q-10 -8 -31 -19q-22 -10 -53 -11q-9 0 -17 1q1 -8 1 -17q-1 -31 -11 -53q-11 -21 -19 -31v0zM252 121q43 1 71 29v0v0q28 28 29 71q0 29 -15 53q-16 24 -42 37l-121 58v0l-35 -35v0q-11 -10 -22 0q-10 11 0 22l27 27v0l-103 49v0l111 -233v0l29 29v0q11 10 22 0
q10 -11 0 -22l-36 -37v0q14 -22 36 -35t49 -13v0z" />
</svg>
