<?xml version="1.0" standalone="no"?>
<!DOCTYPE svg PUBLIC "-//W3C//DTD SVG 1.1//EN" "http://www.w3.org/Graphics/SVG/1.1/DTD/svg11.dtd" >
<svg xmlns="http://www.w3.org/2000/svg" xmlns:xlink="http://www.w3.org/1999/xlink" version="1.1" viewBox="-10 -40 660 512">
   <path fill="currentColor"
d="M224 -7q14 0 23 9v0v0q9 9 9 23t-9 23t-23 9t-23 -9t-9 -23t9 -23t23 -9v0zM224 89q7 0 13 -1l38 83v0q-41 27 -50 78h-99v0q-6 -21 -22 -34q-17 -14 -40 -14q-27 1 -45 19t-19 45q1 27 19 45t45 19q23 0 40 -14q16 -13 22 -34h99v0q7 42 37 68q31 27 74 28q54 -2 87 -41
l92 55v0q-3 9 -3 18q1 27 19 45t45 19q27 -1 45 -19t19 -45q-1 -27 -19 -45t-45 -19q-27 1 -45 18l-92 -55v0q9 -20 9 -43q0 -28 -13 -52l102 -73v0q17 13 39 13q27 -1 45 -19t19 -45q-1 -27 -19 -45t-45 -19q-27 1 -45 19t-19 45q0 14 5 26l-100 72v0q-32 -33 -81 -34
q-17 0 -32 5l-38 -85v0q21 -18 22 -48q-1 -27 -19 -45t-45 -19q-27 1 -45 19t-19 45q1 27 19 45t45 19v0zM576 57q14 0 23 9v0v0q9 9 9 23t-9 23t-23 9t-23 -9t-9 -23t9 -23t23 -9v0zM544 409q0 -14 9 -23v0v0q9 -9 23 -9t23 9t9 23t-9 23t-23 9t-23 -9t-9 -23v0zM64 233
q14 0 23 9v0v0q9 9 9 23t-9 23t-23 9t-23 -9t-9 -23t9 -23t23 -9v0zM336 185q45 1 69 40q22 40 0 80q-24 39 -69 40q-45 -1 -69 -40q-22 -40 0 -80q24 -39 69 -40v0z" />
</svg>
