<?xml version="1.0" standalone="no"?>
<!DOCTYPE svg PUBLIC "-//W3C//DTD SVG 1.1//EN" "http://www.w3.org/Graphics/SVG/1.1/DTD/svg11.dtd" >
<svg xmlns="http://www.w3.org/2000/svg" xmlns:xlink="http://www.w3.org/1999/xlink" version="1.1" viewBox="-10 -40 532 512">
   <path fill="currentColor"
d="M256 -23q-1 -15 -16 -16q-15 1 -16 16v24v0q1 24 16 40q16 15 40 16h8h31l-40 27v0q-11 9 -4 22q9 11 22 4l14 -9v0l-10 36v0h-181h-21q-39 1 -66 26q-26 25 -30 64l-3 53v0q0 15 15 17q15 0 17 -15l1 -10v0l2 2l4 4v0q9 10 9 23v4v0q0 5 -1 10l-9 26v0q-7 20 0 40l22 65
v0q9 26 37 27h30v0q21 -1 32 -17q12 -15 6 -36l-12 -34v0q-5 -18 10 -29q23 -17 25 -45q33 17 69 17h15v0v104v0q0 17 12 28q11 12 28 12h32v0q17 0 28 -12q12 -11 12 -28v-161v0q0 -5 1 -9l19 -62v0h52v0q24 -1 40 -16q15 -16 16 -40q0 -22 -16 -39l-55 -55v0
q29 -15 31 -50v-24v0q-1 -15 -16 -16q-15 1 -16 16v24v0q-2 22 -24 24h-31h-38q5 -11 5 -24v-24v0q-1 -15 -16 -16q-15 1 -16 16v24v0q-2 22 -24 24h-8h-8q-22 -2 -24 -24v-24v0zM385 57q16 0 28 11l60 61v0q7 7 7 16q-2 22 -24 24h-64v0q-11 1 -15 11l-22 74v0q-3 9 -3 18
v161v0q-1 7 -8 8h-32v0q-7 -1 -8 -8v-120v0q-1 -15 -16 -16h-31v0q-36 0 -66 -20l-14 -9v0q-9 -6 -18 -1q-8 6 -7 17l4 21v0q2 16 -11 25q-16 11 -22 29t0 37l11 34v0q2 10 -7 11h-30v0q-5 0 -7 -6l-22 -64v0q-3 -10 0 -20l9 -25v0q3 -10 3 -21v-4v0q0 -26 -19 -45l-4 -4v0
q-9 -10 -9 -23v-4v0q1 -24 16 -40q16 -15 40 -16h16h193q12 -1 15 -12l20 -72v0q9 -26 37 -28v0zM416 105q-1 -15 -16 -16q-15 1 -16 16q1 15 16 16q15 -1 16 -16v0z" />
</svg>
