<?xml version="1.0" standalone="no"?>
<!DOCTYPE svg PUBLIC "-//W3C//DTD SVG 1.1//EN" "http://www.w3.org/Graphics/SVG/1.1/DTD/svg11.dtd" >
<svg xmlns="http://www.w3.org/2000/svg" xmlns:xlink="http://www.w3.org/1999/xlink" version="1.1" viewBox="-10 -40 596 512">
   <path fill="currentColor"
d="M423 -7h-135h135h-135v0v0v0v0h-136v0v0v0h-95v0q-24 1 -31 24l-25 101v0q-1 3 -1 7q0 12 8 20t21 8h5h94v0v0h160h160v0v0h62h38q12 0 20 -8t8 -20q0 -4 -1 -7l-25 -101v0q-7 -23 -31 -24h-95v0v0h-1v0zM38 185l3 32l-3 -32l3 32h-25v0q-15 1 -16 16q1 15 16 16h29v0
l19 161v0v15v0q1 15 16 16q15 -1 16 -16v-16v0h384v0v16v0q1 15 16 16q15 -1 16 -16v-15v0l19 -161v0h29v0q15 -1 16 -16q-1 -15 -16 -16h-25v0l4 -32v0h-33v0l-22 192v0h-392v0l-22 -192v0h-32v0zM528 121h-67h67h-67l-18 -96v0h76v0l24 96v0h-15v0v0v0zM410 25l19 96
l-19 -96l19 96h-125v0v-96v0h106v0zM272 25v96v-96v96h-125v0l18 -96v0h107v0zM133 25l-18 96l18 -96l-18 96h-67v0v0v0h-15v0l24 -96v0h76v0z" />
</svg>
