<?xml version="1.0" standalone="no"?>
<!DOCTYPE svg PUBLIC "-//W3C//DTD SVG 1.1//EN" "http://www.w3.org/Graphics/SVG/1.1/DTD/svg11.dtd" >
<svg xmlns="http://www.w3.org/2000/svg" xmlns:xlink="http://www.w3.org/1999/xlink" version="1.1" viewBox="-10 -40 660 512">
   <path fill="currentColor"
d="M0 -7q0 -14 9 -23v0v0q9 -9 23 -9h576v0q14 0 23 9t9 23v64v0q0 14 -9 23t-23 9v352v0q0 14 -9 23t-23 9h-64v0q-14 0 -23 -9t-9 -23v-128v0q-2 -68 -47 -113t-113 -47q-68 2 -113 47t-47 113v128v0q0 14 -9 23t-23 9h-64v0q-14 0 -23 -9t-9 -23v-352v0q-14 0 -23 -9
t-9 -23v-64v0zM64 89v352v-352v352h64v0v-128v0q2 -82 56 -136t136 -56q82 2 136 56t56 136v128v0h64v0v-352v0h-512v0zM608 -7h-576h576h-576v64v0h576v0v-64v0zM297 249q-22 20 -41 46q-20 30 -21 58q1 30 18 52v-1v-2q2 -30 24 -55q22 -24 37 -34q6 -4 12 0q15 10 37 34
q22 25 24 55v3q17 -22 18 -52q-1 -22 -15 -48q-13 -22 -28 -38l-12 13v0q-5 5 -12 5t-11 -5l-30 -31v0zM280 220q17 -13 34 0v1h1l23 24v0l5 -5v0q0 -1 1 -1v-1q17 -13 34 0q23 21 40 51t19 64q-2 50 -34 83q-33 32 -83 34q-50 -2 -83 -34q-33 -33 -34 -83q2 -42 27 -76
q24 -34 50 -57v0zM320 433q16 0 26 -10v0v0q9 -9 9 -21q0 -13 -17 -34q-9 -11 -18 -19q-9 8 -18 19q-17 21 -17 34q0 12 9 21q10 10 26 10v0z" />
</svg>
