<?xml version="1.0" standalone="no"?>
<!DOCTYPE svg PUBLIC "-//W3C//DTD SVG 1.1//EN" "http://www.w3.org/Graphics/SVG/1.1/DTD/svg11.dtd" >
<svg xmlns="http://www.w3.org/2000/svg" xmlns:xlink="http://www.w3.org/1999/xlink" version="1.1" viewBox="-10 -40 468 512">
   <path fill="currentColor"
d="M128 -7h192h-192h192q14 0 23 9t9 23v96v0h32v0v-96v0q-1 -27 -19 -45t-45 -19h-192v0q-27 1 -45 19t-19 45v96v0h32v0v-96v0q0 -14 9 -23t23 -9v0zM352 185h1h-1h1q45 49 47 120q0 39 -16 73q-15 34 -42 58q-5 5 -16 5h-204v0q-11 0 -16 -5q-27 -24 -42 -58
q-16 -34 -16 -73q2 -71 47 -120h1h256zM16 153q-15 1 -16 16q1 15 16 16h38v0q-37 52 -38 120q0 46 19 86q18 40 50 69q16 13 37 13h204v0q21 0 37 -13q32 -29 50 -69q19 -40 19 -86q-1 -68 -38 -120h38v0q15 -1 16 -16q-1 -15 -16 -16h-48h-368zM144 289q22 -2 24 -24
q-2 -22 -24 -24q-22 2 -24 24q2 22 24 24v0zM328 265q-2 -22 -24 -24q-22 2 -24 24q2 22 24 24q22 -2 24 -24v0zM224 281q-20 1 -34 14v0v0q-13 14 -14 34v1v0q0 10 4 20l29 66v0q5 9 15 9t15 -9l29 -66v0q4 -10 4 -20v-1v0q-1 -20 -14 -34q-14 -13 -34 -14v0zM208 329
q1 -15 16 -16q15 1 16 16v1v0q0 4 -1 7l-15 33v0l-14 -33v0q-2 -3 -2 -7v-1v0z" />
</svg>
