<?xml version="1.0" standalone="no"?>
<!DOCTYPE svg PUBLIC "-//W3C//DTD SVG 1.1//EN" "http://www.w3.org/Graphics/SVG/1.1/DTD/svg11.dtd" >
<svg xmlns="http://www.w3.org/2000/svg" xmlns:xlink="http://www.w3.org/1999/xlink" version="1.1" viewBox="-10 -40 660 512">
   <path fill="currentColor"
d="M193 -18q4 -14 -10 -20q-14 -4 -20 10l-18 52v0l-18 -52v0q-6 -13 -20 -10q-14 6 -10 20l16 49v0l-48 -35v0q-12 -7 -22 4q-7 12 4 22l48 35v0h-31v0q-27 1 -45 19t-19 45v288v0q1 27 19 45t45 19h137v0q-9 -14 -9 -32h-128v0q-14 0 -23 -9t-9 -23v-288v0q0 -14 9 -23
t23 -9h160v0q22 1 30 20q8 -15 21 -26q-18 -25 -51 -26h-31v0l48 -35v0q11 -10 4 -22q-10 -12 -22 -4l-47 34v0l17 -48v0zM362 134l39 51l-39 -51l39 51h-9h-56q-14 0 -23 -9t-9 -23t9 -23q10 -9 23 -9q16 0 26 13v0zM272 153q0 18 9 32h-9v0q-20 1 -34 14q-13 14 -14 34
v192v0q1 20 14 34q14 13 34 14h320v0q20 -1 34 -14q13 -14 14 -34v-192v0q-1 -20 -14 -34q-14 -13 -34 -14h-9v0q9 -14 9 -32q-1 -27 -19 -45t-45 -19q-31 1 -51 25l-45 58v0l-45 -58v0q-20 -24 -51 -25q-27 1 -45 19t-19 45v0zM256 233q1 -15 16 -16h64h80v96v0h-160v0v-80
v0zM256 425v-80v80v-80h160v0v96v0h-144v0q-15 -1 -16 -16v0zM608 425q-1 15 -16 16h-144v0v-96v0h160v0v80v0zM608 233v80v-80v80h-160v0v-96v0h24h120q15 1 16 16v0zM472 185h-9h9h-9l39 -51v0q10 -13 26 -13q13 0 23 9q9 9 9 23t-9 23t-23 9h-56v0z" />
</svg>
