<?xml version="1.0" standalone="no"?>
<!DOCTYPE svg PUBLIC "-//W3C//DTD SVG 1.1//EN" "http://www.w3.org/Graphics/SVG/1.1/DTD/svg11.dtd" >
<svg xmlns="http://www.w3.org/2000/svg" xmlns:xlink="http://www.w3.org/1999/xlink" version="1.1" viewBox="-10 -40 468 512">
   <path fill="currentColor"
d="M144 73q1 -34 23 -57v0v0q23 -22 57 -23q34 1 57 23q22 23 23 57q-1 31 -20 53q-7 8 -3 18q4 9 15 9h72v0q20 1 34 14q13 14 14 34q-1 20 -14 34q-14 13 -34 14h-7v0q-25 2 -35 22q-9 20 5 41l42 51v0q13 16 11 35t-18 32t-35 11t-32 -17l-46 -55v0q-12 -15 -29 -15
t-30 15l-45 55v0q-13 15 -33 17q-19 2 -35 -11q-15 -13 -17 -32t11 -35l42 -51v0q14 -21 5 -41q-10 -20 -35 -22h-7v0q-20 -1 -34 -14q-13 -14 -14 -34q1 -20 14 -34q14 -13 34 -14h72v0q10 0 15 -9q4 -10 -3 -18q-19 -22 -20 -53v0zM224 -39q-48 1 -79 33v0v0
q-32 31 -33 79q0 26 11 48h-43v0q-34 1 -57 23q-22 23 -23 57q1 34 23 57q23 22 57 23h7v0q9 2 5 11l-42 50v0q-21 27 -18 59t29 54l9 -11v0l-9 11v0q27 21 59 18q31 -3 54 -29l45 -55v0q5 -5 10 0l45 55v0q22 26 54 29t59 -18q25 -22 29 -54q3 -32 -18 -59l-42 -50v0
q-4 -9 5 -11h7v0q34 -1 56 -23q23 -23 24 -57q-1 -34 -24 -57q-22 -22 -56 -23h-43v0q11 -22 11 -48q-1 -48 -33 -79q-31 -32 -79 -33v0zM192 73q15 -1 16 -16q-1 -15 -16 -16q-15 1 -16 16q1 15 16 16v0zM224 201q15 -1 16 -16q-1 -15 -16 -16q-15 1 -16 16q1 15 16 16v0z
M272 57q-1 -15 -16 -16q-15 1 -16 16q1 15 16 16q15 -1 16 -16v0zM224 329q15 -1 16 -16q-1 -15 -16 -16q-15 1 -16 16q1 15 16 16v0zM240 249q-1 -15 -16 -16q-15 1 -16 16q1 15 16 16q15 -1 16 -16v0z" />
</svg>
