<?xml version="1.0" standalone="no"?>
<!DOCTYPE svg PUBLIC "-//W3C//DTD SVG 1.1//EN" "http://www.w3.org/Graphics/SVG/1.1/DTD/svg11.dtd" >
<svg xmlns="http://www.w3.org/2000/svg" xmlns:xlink="http://www.w3.org/1999/xlink" version="1.1" viewBox="-10 -40 660 512">
   <path fill="currentColor"
d="M98 147q-18 37 -4 73v0v0q14 36 52 51q39 13 73 -5q33 -19 44 -59l10 -50v0l-151 -55v0l-24 45v0zM280 125l19 -88l-19 88l19 -88l-120 -44v0l-42 80v0l143 52v0zM70 132l81 -154l-81 154l81 -154q14 -22 39 -15l120 44v0q6 2 10 5q4 -3 10 -5l120 -44v0q25 -7 39 15
l81 154v0q23 47 9 93q-15 45 -59 70l42 115v0l57 -20v0q14 -4 20 9q4 14 -9 21l-72 26v0l-72 26v0q-15 4 -21 -10q-4 -14 10 -20l57 -21v0l-42 -115v0q-50 9 -91 -16q-40 -26 -53 -76l-26 -121v0l-26 121v0q-13 50 -53 76q-41 26 -91 16l-42 115v0l57 21v0q14 6 10 21
q-6 13 -20 9l-72 -26v0l-72 -26v0q-14 -7 -10 -21q6 -13 20 -9l57 20v0l42 -115v0q-44 -25 -59 -70q-14 -46 9 -93v0zM542 147l-24 -45l24 45l-24 -45l-151 55v0l11 50v0q9 40 43 59q34 18 73 5q38 -15 52 -51t-4 -73v0zM360 125l143 -52l-143 52l143 -52l-42 -80v0l-120 44
v0l19 88v0z" />
</svg>
