<?xml version="1.0" standalone="no"?>
<!DOCTYPE svg PUBLIC "-//W3C//DTD SVG 1.1//EN" "http://www.w3.org/Graphics/SVG/1.1/DTD/svg11.dtd" >
<svg xmlns="http://www.w3.org/2000/svg" xmlns:xlink="http://www.w3.org/1999/xlink" version="1.1" viewBox="-11 0 534 512">
   <path fill="currentColor"
d="M480 25l-50 343l50 -343l-50 343q-3 18 -16 29q-13 12 -31 12h-253v0q-19 0 -32 -12q-13 -11 -16 -29l-50 -343v0h448v0zM32 -7q-14 0 -24 11t-8 26l50 343v0q5 30 27 48q22 19 53 20h253v0q30 -1 52 -19q22 -19 27 -49l50 -343v0q2 -15 -8 -26t-24 -11h-448v0zM255 156
h1h-1h1q-8 -3 -16 -3h-96v0q-20 1 -34 14q-13 14 -14 34v96v0q1 20 14 34q14 13 34 14h74v0l-19 -19v0q-6 -6 -11 -13h-44v0q-15 -1 -16 -16v-96v0q1 -15 16 -16h83v0l28 -29v0zM323 202l57 56l-57 -56l57 56q9 12 0 23l-57 56v0q-11 10 -22 0l-57 -56v0q-9 -11 0 -23
l57 -56v0q11 -10 22 0v0zM278 179l-57 57l57 -57l-57 57q-14 14 -14 34q0 19 14 34l57 56v0q15 14 34 14t34 -14l57 -57v0q14 -14 14 -34q0 -19 -14 -33l-57 -57v0q-15 -14 -34 -14t-34 14v0z" />
</svg>
