<?xml version="1.0" standalone="no"?>
<!DOCTYPE svg PUBLIC "-//W3C//DTD SVG 1.1//EN" "http://www.w3.org/Graphics/SVG/1.1/DTD/svg11.dtd" >
<svg xmlns="http://www.w3.org/2000/svg" xmlns:xlink="http://www.w3.org/1999/xlink" version="1.1" viewBox="-10 -40 656 512">
   <path fill="currentColor"
d="M358 204l38 77l-38 -77l38 77h36v0l-45 -91v0q-3 -5 -3 -11v-2v0q2 -22 24 -24h4v0q4 0 8 1l39 13v0q3 -3 5 -6q0 -22 17 -39q3 -3 7 -6l-54 -63v0q-24 -29 -57 -44q-34 -16 -71 -16q-53 1 -94 29q-42 28 -62 77l-73 182v0h34v0l68 -170v0q17 -40 51 -63q33 -23 76 -23
q63 1 104 48l52 62v0l-32 -11v0q-9 -3 -18 -3h-4v0q-24 1 -40 16q-15 16 -16 40v2v0q0 14 6 25v0zM448 345q14 0 23 9v0v0q9 9 9 23t-9 23t-23 9h-384v0q-14 0 -23 -9t-9 -23t9 -23t23 -9h384v0zM64 313q-27 1 -45 19v0v0q-18 18 -19 45q1 27 19 45t45 19h384v0
q27 -1 45 -19t19 -45q-1 -27 -19 -45t-45 -19h-384v0zM589 230q-17 16 -40 11q-22 -7 -29 -29q-5 -23 11 -40q17 -16 40 -11q22 7 29 29q5 23 -11 40v0zM506 147q-11 13 -6 29q-15 8 -16 25q1 17 16 25q-5 16 6 29q13 11 29 7q8 14 25 15q17 -1 25 -15q16 4 29 -7
q11 -13 7 -29q14 -8 15 -25q-1 -17 -15 -25q4 -16 -7 -29q-13 -11 -29 -7q-8 -14 -25 -15q-17 1 -25 16q-16 -5 -29 6v0z" />
</svg>
