<?xml version="1.0" standalone="no"?>
<!DOCTYPE svg PUBLIC "-//W3C//DTD SVG 1.1//EN" "http://www.w3.org/Graphics/SVG/1.1/DTD/svg11.dtd" >
<svg xmlns="http://www.w3.org/2000/svg" xmlns:xlink="http://www.w3.org/1999/xlink" version="1.1" viewBox="-10 -40 596 512">
   <path fill="currentColor"
d="M288 -39q15 1 16 16v73v0l91 92v0h1v0l6 2v0l83 15v0q40 9 65 39q25 31 26 72q-1 32 -22 53t-53 22q-41 -1 -72 -26q-30 -25 -38 -65l-16 -83v0l-1 -6v0h-1v-1l-69 -68v0v142v0l4 6v0l57 75v0q19 26 19 58q-1 41 -28 68t-68 28q-41 -1 -68 -28t-28 -68q0 -32 19 -58
l57 -75v0l4 -6v0v-142v0l-69 68v0v0v1l-1 6v0l-1 2v0q-12 -4 -25 -4q-27 1 -48 16l-31 6v0q-29 6 -47 28q-17 21 -18 51q0 18 13 30q12 13 30 13q22 0 41 -11q11 13 27 20q-29 22 -68 23q-32 -1 -53 -22t-22 -53q1 -41 26 -72q25 -30 65 -38l83 -16v0l6 -1v0v-1h1l91 -92v0
v-73v0q1 -15 16 -16v0zM479 191l-71 -14l71 14l-71 -14l14 71v0q6 29 28 47q21 17 51 18q18 0 30 -13q13 -12 13 -30q-1 -30 -18 -51q-18 -22 -47 -28v0zM237 339q-13 17 -13 38q1 27 19 45t45 19q27 -1 45 -19t19 -45q0 -21 -13 -38l-51 -69v0l-51 69v0zM368 25q1 15 16 16
q15 -1 16 -16q-1 -15 -16 -16q-15 1 -16 16v0zM384 73q-27 -1 -42 -24q-12 -24 0 -48q15 -23 42 -24q27 1 42 24q12 24 0 48q-15 23 -42 24v0zM176 233q-15 1 -16 16q1 15 16 16q15 -1 16 -16q-1 -15 -16 -16v0zM224 249q-1 27 -24 42q-24 12 -48 0q-23 -15 -24 -42
q1 -27 24 -42q24 -12 48 0q23 15 24 42v0z" />
</svg>
