<?xml version="1.0" standalone="no"?>
<!DOCTYPE svg PUBLIC "-//W3C//DTD SVG 1.1//EN" "http://www.w3.org/Graphics/SVG/1.1/DTD/svg11.dtd" >
<svg xmlns="http://www.w3.org/2000/svg" xmlns:xlink="http://www.w3.org/1999/xlink" version="1.1" viewBox="-10 -40 468 512">
   <path fill="currentColor"
d="M0 105q2 -61 42 -102v0v0q41 -40 103 -42q48 1 86 28q37 28 52 74l24 82v0q24 -23 58 -24h2v0q34 1 57 24t24 57q0 29 -18 51l-62 76v0h-40v0q1 -3 3 -5l74 -91v0q11 -14 11 -31q-1 -21 -14 -35q-14 -13 -35 -14h-2v0q-28 1 -43 24l-7 12v0q-5 8 -16 7q-10 -2 -13 -11
l-34 -112v0q-11 -36 -40 -58q-30 -21 -67 -22q-48 1 -80 33t-33 79q0 14 3 27l50 197v0h-33v0l-48 -189v0q-4 -17 -4 -35v0zM64 393v48v-48v48h288v0v-48v0h-288v0zM32 393q0 -14 9 -23v0v0q9 -9 23 -9h288v0q14 0 23 9t9 23v48v0q0 14 -9 23t-23 9h-288v0q-14 0 -23 -9
t-9 -23v-48v0z" />
</svg>
