<?xml version="1.0" standalone="no"?>
<!DOCTYPE svg PUBLIC "-//W3C//DTD SVG 1.1//EN" "http://www.w3.org/Graphics/SVG/1.1/DTD/svg11.dtd" >
<svg xmlns="http://www.w3.org/2000/svg" xmlns:xlink="http://www.w3.org/1999/xlink" version="1.1" viewBox="-10 -40 532 512">
   <path fill="currentColor"
d="M358 64q10 10 10 25h-32v0q0 -1 -1 -2l-58 -58v0q-4 -4 -9 -4t-9 4l-58 58v0q-1 1 -1 2h-32v0q0 -15 10 -25l58 -58v0q13 -13 32 -13t32 13l58 58v0zM64 41v48v-48v48h-32v0v-48v0q1 -20 14 -34q14 -13 34 -14h124v0l-32 32v0h-92v0q-15 1 -16 16v0zM32 345q1 27 19 45v0
v0q18 18 45 19h192v0q27 -1 45 -19t19 -45v-192v0h-16h-208v80v0q-1 15 -16 16q-15 -1 -16 -16v-80v0h-64v0v192v0zM32 121h80h-80h368q48 1 79 33q32 31 33 79q-1 48 -33 79q-31 32 -79 33h-16v0q-1 41 -28 68t-68 28h-192v0q-41 -1 -68 -28t-28 -68v-192v0q0 -14 9 -23
t23 -9v0zM384 313h16h-16h16q34 -1 57 -23q22 -23 23 -57q-1 -34 -23 -57q-23 -22 -57 -23h-16v0v160v0z" />
</svg>
