<?xml version="1.0" standalone="no"?>
<!DOCTYPE svg PUBLIC "-//W3C//DTD SVG 1.1//EN" "http://www.w3.org/Graphics/SVG/1.1/DTD/svg11.dtd" >
<svg xmlns="http://www.w3.org/2000/svg" xmlns:xlink="http://www.w3.org/1999/xlink" version="1.1" viewBox="-10 -40 404 512">
   <path fill="currentColor"
d="M352 25v384v-384v384q0 14 -9 23t-23 9h-256v0q-14 0 -23 -9t-9 -23v-293v0q0 -14 9 -23l91 -91v0q9 -9 23 -9h165v0q14 0 23 9t9 23v0zM384 409v-384v384v-384q-1 -27 -19 -45t-45 -19h-165v0q-27 0 -46 19l-90 90v0q-19 19 -19 46v293v0q1 27 19 45t45 19h256v0
q27 -1 45 -19t19 -45v0zM192 41q-1 -15 -16 -16q-15 1 -16 16v64v0q1 15 16 16q15 -1 16 -16v-64v0zM256 41q-1 -15 -16 -16q-15 1 -16 16v64v0q1 15 16 16q15 -1 16 -16v-64v0zM320 41q-1 -15 -16 -16q-15 1 -16 16v64v0q1 15 16 16q15 -1 16 -16v-64v0z" />
</svg>
