<?xml version="1.0" standalone="no"?>
<!DOCTYPE svg PUBLIC "-//W3C//DTD SVG 1.1//EN" "http://www.w3.org/Graphics/SVG/1.1/DTD/svg11.dtd" >
<svg xmlns="http://www.w3.org/2000/svg" xmlns:xlink="http://www.w3.org/1999/xlink" version="1.1" viewBox="-10 -40 532 512">
   <path fill="currentColor"
d="M419 -34q-11 -10 -22 0l-38 38v0q-23 22 -23 55q0 24 13 43l-77 76v0l-42 -41v0q-13 -13 -29 -14q-17 -2 -32 8l-148 103v0q-20 15 -21 40v2v0q0 19 14 34l149 149v0q14 14 34 14h2v0q25 -1 40 -21l103 -148v0q10 -15 8 -32q-1 -16 -14 -29l-41 -42v0l76 -77v0
q19 13 43 13q32 0 56 -23l37 -38v0q10 -11 0 -22l-88 -88v0zM382 26l26 -26l-26 26l26 -26l65 65v0l-26 27v0q-14 13 -33 13t-32 -14q-14 -13 -14 -32t13 -33h1zM187 157q11 -6 21 2l106 106v0q8 10 2 21l-104 148v0q-5 7 -13 7h-2v0q-6 0 -11 -5l-149 -149v0q-5 -5 -5 -11
v-2v0q0 -8 7 -13l148 -104v0zM203 228q10 -11 0 -22q-11 -10 -22 0l-80 80v0q-9 11 0 22q11 10 22 0l80 -80v0zM267 292q10 -11 0 -22q-11 -10 -22 0l-80 80v0q-9 11 0 22q11 10 22 0l80 -80v0z" />
</svg>
