<?xml version="1.0" standalone="no"?>
<!DOCTYPE svg PUBLIC "-//W3C//DTD SVG 1.1//EN" "http://www.w3.org/Graphics/SVG/1.1/DTD/svg11.dtd" >
<svg xmlns="http://www.w3.org/2000/svg" xmlns:xlink="http://www.w3.org/1999/xlink" version="1.1" viewBox="-10 -40 532 512">
   <path fill="currentColor"
d="M432 17q-2 -22 -24 -24q-22 2 -24 24q2 22 24 24q22 -2 24 -24v0zM352 17q1 -32 28 -48q28 -16 56 0q27 16 28 48q-1 32 -28 48q-28 16 -56 0q-27 -16 -28 -48v0zM112 73q1 -15 16 -16h160h19q19 0 32 13t13 32q-1 29 -27 41l-118 50v0q-2 3 -4 7l-60 136v0q-8 12 -21 8
q-13 -8 -9 -21l61 -136v0q4 -9 10 -16v-1l1 -1v-1h1l67 -79v0h-125v0q-15 -1 -16 -16v0zM295 89l-42 50l42 -50l-42 50l59 -25v0q8 -4 8 -12q-1 -12 -13 -13h-12v0zM496 137q15 1 16 16v7v0q0 28 -14 50q-14 23 -38 36l-437 225v0q-13 6 -21 -7q-6 -13 7 -21l436 -226v0
q34 -19 35 -57v-7v0q1 -15 16 -16v0z" />
</svg>
