<?xml version="1.0" standalone="no"?>
<!DOCTYPE svg PUBLIC "-//W3C//DTD SVG 1.1//EN" "http://www.w3.org/Graphics/SVG/1.1/DTD/svg11.dtd" >
<svg xmlns="http://www.w3.org/2000/svg" xmlns:xlink="http://www.w3.org/1999/xlink" version="1.1" viewBox="-10 -40 660 512">
   <path fill="currentColor"
d="M256 17q-2 -22 -24 -24q-22 2 -24 24q2 22 24 24q22 -2 24 -24v0zM176 17q1 -32 28 -48q28 -16 56 0q27 16 28 48q-1 32 -28 48q-28 16 -56 0q-27 -16 -28 -48v0zM336 35q13 -6 22 6l43 73v0l157 78v0q17 9 18 29v59v0q0 17 -14 27l-76 50v0l63 82v0q0 1 1 2v0h20v0
l43 -43v0q11 -9 22 0q10 11 0 22l-48 48v0q-4 5 -11 5h-144v0q-15 -1 -16 -16q1 -14 16 -16h78v0l-62 -80v0h-135v0q7 15 7 32q-1 34 -23 57q-23 22 -57 23h-160v0q-34 -1 -57 -23q-22 -23 -23 -57q1 -41 32 -64l39 -78v0q9 -17 29 -18h188v0l36 -48v0h-44v0q-8 0 -13 -6
l-33 -45v0q-10 -13 -26 -13q-21 1 -30 19l-19 44v0q-8 12 -21 8q-13 -8 -9 -21l20 -44v0q18 -36 59 -38q32 1 51 26l29 38v0h60v0l22 -29v0l-40 -67v0q-6 -13 6 -22v0zM470 329l74 -49l-74 49l74 -49v-59v0l-150 -75v0l-80 106v0q-10 13 -26 13h-188v0l-24 48v0h4h160v0
q27 1 48 16h168v0v0v0h14v0zM80 345q-20 1 -34 14v0v0q-13 14 -14 34q1 20 14 34q14 13 34 14h160v0q20 -1 34 -14q13 -14 14 -34q-1 -20 -14 -34q-14 -13 -34 -14h-160v0z" />
</svg>
