<?xml version="1.0" standalone="no"?>
<!DOCTYPE svg PUBLIC "-//W3C//DTD SVG 1.1//EN" "http://www.w3.org/Graphics/SVG/1.1/DTD/svg11.dtd" >
<svg xmlns="http://www.w3.org/2000/svg" xmlns:xlink="http://www.w3.org/1999/xlink" version="1.1" viewBox="-10 -40 650 512">
   <path fill="currentColor"
d="M176 25h94h-94h94q9 0 14 8l73 120v0h-197v0v-112v0q1 -15 16 -16v0zM395 153l-5 -8l5 8l-5 -8l-79 -129v0q-14 -22 -41 -23h-94v0q-20 1 -34 14q-13 14 -14 34v112v0h-72v0q-24 1 -40 16q-15 16 -16 40v96v0q2 31 32 39v1v0q1 41 28 68t68 28q41 -1 68 -28t28 -68h48v0
q1 41 28 68t68 28q41 -1 68 -28t28 -68h57v0l75 90v0q10 11 22 2q11 -10 2 -22l-76 -92v0v-10v0v-138v0l76 -92v0q9 -12 -2 -22q-12 -9 -22 2l-80 96v0q-4 4 -4 10v144v0h-33v0q1 -4 1 -8v-96v0q-1 -24 -16 -40q-16 -15 -40 -16h-29v0zM448 292q-28 -41 -80 -43
q-32 1 -56 18q-24 18 -34 46h-59v0q-11 -28 -35 -46q-24 -17 -56 -18q-32 0 -56 18q-24 17 -34 46q-6 -2 -6 -8v-96v0q2 -22 24 -24h368v0q22 2 24 24v83v0zM64 345q1 -36 32 -55q32 -18 64 0q31 19 32 55q-1 36 -32 55q-32 18 -64 0q-31 -19 -32 -55v0zM368 281q36 1 55 32
q18 32 0 64q-19 31 -55 32q-36 -1 -55 -32q-18 -32 0 -64q19 -31 55 -32v0z" />
</svg>
