<?xml version="1.0" standalone="no"?>
<!DOCTYPE svg PUBLIC "-//W3C//DTD SVG 1.1//EN" "http://www.w3.org/Graphics/SVG/1.1/DTD/svg11.dtd" >
<svg xmlns="http://www.w3.org/2000/svg" xmlns:xlink="http://www.w3.org/1999/xlink" version="1.1" viewBox="-10 -40 468 512">
   <path fill="currentColor"
d="M335 34q-13 4 -24 -2v0v0q-11 -5 -15 -18q-8 -20 -31 -21q-12 0 -20 8q-21 15 -42 0q-8 -8 -20 -8q-23 1 -31 21q-4 13 -15 18q-11 6 -24 2q-4 -1 -9 -1q-14 0 -23 9t-9 23q0 5 1 9q4 13 -2 24q-5 11 -18 15q-20 8 -21 31q0 12 8 20q15 21 0 42q-8 8 -8 20q1 23 21 31
q13 4 18 15q6 11 2 24q-1 4 -1 9q0 14 9 23t23 9v0v0q-8 13 -8 29v3v0q-24 -4 -40 -21q-15 -18 -16 -43q0 -9 3 -18q-19 -7 -31 -23t-12 -38q0 -24 15 -41q-15 -17 -15 -41q0 -22 12 -38t31 -23q-3 -8 -3 -18q1 -27 19 -45t45 -19q10 0 18 3q7 -19 23 -31t38 -12q24 0 41 15
q17 -15 41 -15q22 0 38 12t23 31q8 -3 18 -3q27 1 45 19t19 45q0 10 -3 18q19 7 31 23t12 38q-1 24 -15 41q14 17 15 41q0 22 -12 38t-31 23q3 8 3 18q-1 25 -16 42q-16 18 -40 21v-3v0q0 -16 -9 -28h1v0q14 -1 23 -10t9 -22q0 -5 -1 -9q-4 -13 2 -24q5 -11 18 -16
q20 -8 21 -30q0 -12 -8 -21q-15 -20 0 -41q8 -9 8 -21q-1 -22 -21 -30q-13 -5 -18 -16q-6 -11 -2 -23q1 -5 1 -9q0 -14 -9 -23t-23 -9q-5 0 -9 1v0zM235 419l53 20l-53 -20l53 20v-60v0l-53 20v0q-11 4 -22 0l-53 -20v0v60v0l53 -20v0q11 -4 22 0v0zM128 372q0 -11 8 -19v0
v0q8 -8 19 -8q5 0 10 2l59 22v0l59 -22v0q5 -2 10 -2q11 0 19 8t8 19v74v0q0 11 -8 19t-19 8q-5 0 -10 -2l-59 -22v0l-59 22v0q-5 2 -10 2q-11 0 -19 -8t-8 -19v-74v0zM184 145q-1 23 -17 40q16 17 17 41q23 0 40 16q17 -16 41 -16q0 -24 16 -41q-16 -17 -16 -40
q-13 -1 -24 -6q-9 -4 -17 -11q-17 16 -40 17v0zM203 103q9 -9 21 -9v0v0q12 0 21 9q9 10 22 10q13 -1 21 8q8 8 8 21t10 22q9 9 9 21t-9 21q-10 9 -10 22q1 13 -8 21q-8 8 -21 8t-22 10q-9 9 -21 9t-21 -9q-9 -10 -22 -10q-13 1 -21 -8q-9 -8 -8 -21q0 -13 -10 -22
q-9 -9 -9 -21t9 -21q10 -9 10 -22q-1 -13 8 -21q8 -9 21 -8q13 0 22 -10v0z" />
</svg>
