<?xml version="1.0" standalone="no"?>
<!DOCTYPE svg PUBLIC "-//W3C//DTD SVG 1.1//EN" "http://www.w3.org/Graphics/SVG/1.1/DTD/svg11.dtd" >
<svg xmlns="http://www.w3.org/2000/svg" xmlns:xlink="http://www.w3.org/1999/xlink" version="1.1" viewBox="-10 -40 468 512">
   <path fill="currentColor"
d="M0 25q1 -27 19 -45v0v0q18 -18 45 -19h336v0q20 1 34 14q13 14 14 34v320v0q-2 33 -32 45v67v0h16v0q15 1 16 16q-1 15 -16 16h-368v0q-27 -1 -45 -19t-19 -45v0v0v-384v0zM64 377q-14 0 -23 9v0v0q-9 9 -9 23t9 23t23 9h320v0v-64v0h-320v0zM32 354q14 -9 32 -9h336v0
q15 -1 16 -16v-320v0q-1 -15 -16 -16h-336v0q-14 0 -23 9t-9 23v329v0zM240 137q14 0 23 -9v0v0q9 -9 9 -23t-9 -23t-23 -9t-23 9t-9 23t9 23t23 9v0zM240 41q36 1 55 32q18 32 0 64q-19 31 -55 32q-36 -1 -55 -32q-18 -32 0 -64q19 -31 55 -32v0zM208 233q-20 1 -34 14v0v0
q-13 14 -14 34q-1 15 -16 16q-15 -1 -16 -16q1 -34 23 -57q23 -22 57 -23h64v0q34 1 57 23q22 23 23 57q-1 15 -16 16q-15 -1 -16 -16q-1 -20 -14 -34q-14 -13 -34 -14h-64v0z" />
</svg>
