<?xml version="1.0" standalone="no"?>
<!DOCTYPE svg PUBLIC "-//W3C//DTD SVG 1.1//EN" "http://www.w3.org/Graphics/SVG/1.1/DTD/svg11.dtd" >
<svg xmlns="http://www.w3.org/2000/svg" xmlns:xlink="http://www.w3.org/1999/xlink" version="1.1" viewBox="-10 -40 596 512">
   <path fill="currentColor"
d="M192 425q-1 15 -16 16h-64v0q-15 -1 -16 -16v-48v0h96v0v48v0zM176 473q19 0 32 -12q13 12 32 12h64v0q20 -1 34 -14q13 -14 14 -34v-48v0v-16v0v-16v0v-190v0l51 198v0l4 15v0l18 70v0q6 19 22 29q16 9 35 4l60 -16v0q19 -6 28 -22q9 -17 4 -37l-13 -53v0l-4 -16v0
l-64 -246v0l-4 -15v0l-18 -69v0q-6 -20 -22 -30q-16 -9 -35 -4l-60 16v0l-10 4q-13 -21 -40 -22h-64v0q-19 0 -32 12q-13 -12 -32 -12h-64v0q-20 1 -34 14q-13 14 -14 34v48v0v16v0v16v0h32h96v48v0h32v0v-48v0h96v0v256v0h-96v0v-48v0h-32v0v48v0h-16h-112v16v0v16v0v48v0
q1 20 14 34q14 13 34 14h64v0zM352 26v-1v1v-1q1 -12 11 -15l59 -17v0q12 -2 18 11l14 55v0l-88 24v0l-13 -53v0q-1 -2 -1 -4v0zM320 25v0v0v0v32v0h-96v0v-48v0q1 -15 16 -16h64v0q15 1 16 16v16v0zM240 441q-15 -1 -16 -16v-48v0h96v0v48v0q-1 15 -16 16h-64v0zM192 9v48
v-48v48h-96v0v-48v0q1 -15 16 -16h64v0q15 1 16 16v0zM462 90l60 230l-60 -230l60 230l-88 24v0l-60 -230v0l88 -24v0zM530 351l13 53l-13 -53l13 53q2 16 -10 20l-59 17v0q-12 2 -18 -11l-14 -55v0l88 -24v0zM80 121q-14 0 -23 9v0v0q-9 9 -9 23v16v0h-16v0q-14 0 -23 9
t-9 23v32v0q0 14 9 23t23 9h16v0v16v0q0 14 9 23t23 9h32v0q14 0 23 -9t9 -23v-16v0h16v0q14 0 23 -9t9 -23v-32v0q0 -14 -9 -23t-23 -9h-16v0v-16v0q0 -14 -9 -23t-23 -9h-32v0zM80 153h32h-32h32v32v0q1 15 16 16h32v0v32v0h-32v0q-15 1 -16 16v32v0h-32v0v-32v0
q-1 -15 -16 -16h-32v0v-32v0h32v0q7 0 11 -5q5 -4 5 -11v-32v0z" />
</svg>
