<?xml version="1.0" standalone="no"?>
<!DOCTYPE svg PUBLIC "-//W3C//DTD SVG 1.1//EN" "http://www.w3.org/Graphics/SVG/1.1/DTD/svg11.dtd" >
<svg xmlns="http://www.w3.org/2000/svg" xmlns:xlink="http://www.w3.org/1999/xlink" version="1.1" viewBox="-10 -40 596 512">
   <path fill="currentColor"
d="M144 -7q-34 1 -57 23v0v0q-22 23 -23 57v54v0q0 19 -14 33l-45 46v0q-5 4 -5 11t5 11l45 46v0q14 14 14 33v54v0q1 34 24 57q22 22 56 23h64v0q15 -1 16 -16q-1 -15 -16 -16h-64v0q-20 -1 -34 -14q-13 -14 -14 -34v-53v0q0 -33 -23 -57l-34 -34v0l34 -34v0q22 -24 23 -56
v-54v0q0 -20 14 -34q14 -13 34 -14h64v0q15 -1 16 -16q-1 -15 -16 -16h-64v0zM432 -7h-64h64h-64q-15 1 -16 16q1 15 16 16h64v0q20 1 34 14q13 14 14 34v54v0q0 32 23 56l34 34v0l-33 34v0q-23 24 -24 57v53v0q0 20 -14 34q-14 13 -34 14h-64v0q-15 1 -16 16q1 15 16 16h64
v0q34 -1 57 -23q22 -23 23 -57v-53v0q0 -20 14 -34l45 -46v0q5 -4 5 -11t-5 -11l-45 -46v0q-14 -14 -14 -33v-54v0q-1 -34 -23 -57q-23 -22 -57 -23v0z" />
</svg>
