<?xml version="1.0" standalone="no"?>
<!DOCTYPE svg PUBLIC "-//W3C//DTD SVG 1.1//EN" "http://www.w3.org/Graphics/SVG/1.1/DTD/svg11.dtd" >
<svg xmlns="http://www.w3.org/2000/svg" xmlns:xlink="http://www.w3.org/1999/xlink" version="1.1" viewBox="-10 -40 596 512">
   <path fill="currentColor"
d="M32 -23q-1 -15 -16 -16q-15 1 -16 16v96v0v256v0q1 20 14 34q14 13 34 14h208v0v-32v0h-208v0q-15 -1 -16 -16v-240v0h224v0v-32v0h-224v0v-80v0zM395 -7l21 22l-21 -22l21 22q11 10 25 10h103v0v128v0h-224v0v-160v0h75v0zM288 -7v160v-160v160q0 14 9 23t23 9h224v0
q14 0 23 -9t9 -23v-128v0q0 -14 -9 -23t-23 -9h-103v0q-1 0 -2 -1l-22 -22v0q-9 -9 -22 -9h-75v0q-14 0 -23 9t-9 23v0zM320 281h75h-75h75l21 22v0q11 10 25 10h103v0v128v0h-224v0v-160v0zM288 281v160v-160v160q0 14 9 23t23 9h224v0q14 0 23 -9t9 -23v-128v0
q0 -14 -9 -23t-23 -9h-103v0q-1 0 -2 -1l-22 -22v0q-9 -9 -22 -9h-75v0q-14 0 -23 9t-9 23v0z" />
</svg>
