<?xml version="1.0" standalone="no"?>
<!DOCTYPE svg PUBLIC "-//W3C//DTD SVG 1.1//EN" "http://www.w3.org/Graphics/SVG/1.1/DTD/svg11.dtd" >
<svg xmlns="http://www.w3.org/2000/svg" xmlns:xlink="http://www.w3.org/1999/xlink" version="1.1" viewBox="-11 0 406 512">
   <path fill="currentColor"
d="M32 2q0 -8 8 -9h304v0q8 1 8 9l-5 55v0h-310v0l-5 -55v0zM40 89h305h-305h305l-28 323v0q-1 12 -10 21q-9 8 -22 8h-186v0q-13 0 -22 -8q-9 -9 -10 -21l-27 -323v0zM40 -39q-18 1 -29 13v0v0q-12 12 -11 30l35 410v0q3 26 20 42q18 16 44 17h186v0q26 -1 44 -17
q17 -16 20 -42l35 -410v0q1 -18 -11 -30q-11 -12 -29 -13h-304v0z" />
</svg>
