<?xml version="1.0" standalone="no"?>
<!DOCTYPE svg PUBLIC "-//W3C//DTD SVG 1.1//EN" "http://www.w3.org/Graphics/SVG/1.1/DTD/svg11.dtd" >
<svg xmlns="http://www.w3.org/2000/svg" xmlns:xlink="http://www.w3.org/1999/xlink" version="1.1" viewBox="-10 -40 596 512">
   <path fill="currentColor"
d="M240 41v192v-192v192q-1 15 -16 16q-15 -1 -16 -16v-192v0q1 -20 14 -34q14 -13 34 -14h64v0q20 1 34 14q13 14 14 34v192v0q-1 15 -16 16q-15 -1 -16 -16v-192v0q-1 -15 -16 -16h-64v0q-15 1 -16 16v0zM176 40v34v-34v34q-50 24 -81 70q-30 46 -31 105v32v0h-32v0v-32v0
q1 -73 40 -128q40 -56 104 -81v0zM400 74v-34v34v-34q64 25 103 80t41 127v2v0v32v0h-32v0v-34v0q-1 -58 -32 -104q-30 -45 -80 -69v0zM537 345h-498h498h-498q-6 1 -7 7v1q19 14 81 34t175 22q113 -2 175 -22t81 -34v-1v0q-1 -6 -7 -7v0zM39 313h498h-498h498q17 0 28 11
t11 28t-14 27q-22 17 -89 38q-66 22 -185 24q-119 -2 -185 -24q-67 -21 -89 -38q-14 -10 -14 -27t11 -28t28 -11v0z" />
</svg>
