<?xml version="1.0" standalone="no"?>
<!DOCTYPE svg PUBLIC "-//W3C//DTD SVG 1.1//EN" "http://www.w3.org/Graphics/SVG/1.1/DTD/svg11.dtd" >
<svg xmlns="http://www.w3.org/2000/svg" xmlns:xlink="http://www.w3.org/1999/xlink" version="1.1" viewBox="-10 -40 532 512">
   <path fill="currentColor"
d="M423 94l11 8l-11 -8l11 8l10 10v0q35 36 36 89v9q-17 -24 -47 -25h-65v0v-72v0q-1 -24 -17 -40h1v0q40 1 71 21v0zM512 201q-2 -67 -45 -111l-1 -1v0q3 -5 5 -10q14 -39 2 -80q-1 -6 -4 -12l-6 -16v0v0v0v0v0q-7 -13 -21 -9q-13 7 -9 21v0v0l7 16v0q3 10 5 20q1 7 2 15
q0 18 -6 34q-14 -9 -29 -15q-28 -12 -60 -12q-37 0 -68 15q-14 8 -10 20t21 13h17v0q22 2 24 24v80v0q2 22 24 24h73v0q15 1 22 13l11 24v0q8 12 20 12q12 1 17 -12q9 -25 9 -53v0zM262 121l-90 146l90 -146l-90 146q-28 45 -81 58l-35 8v0q-25 6 -40 25q-16 18 -16 44
q1 30 21 50t50 21h32v0q107 -1 198 -48q90 -46 151 -128l-16 -33v0q-56 82 -143 129q-86 47 -190 48h-32v0q-17 0 -28 -11t-11 -28q2 -30 31 -38l35 -8v0q65 -16 102 -73l99 -162v0h-37v0z" />
</svg>
