<?xml version="1.0" standalone="no"?>
<!DOCTYPE svg PUBLIC "-//W3C//DTD SVG 1.1//EN" "http://www.w3.org/Graphics/SVG/1.1/DTD/svg11.dtd" >
<svg xmlns="http://www.w3.org/2000/svg" xmlns:xlink="http://www.w3.org/1999/xlink" version="1.1" viewBox="-10 -40 532 512">
   <path fill="currentColor"
d="M202 105h109h-109h109l5 3v0q29 18 67 53t67 89q28 53 30 127q-1 27 -19 45t-45 19h-320v0q-27 -1 -45 -19t-19 -45q2 -74 30 -127q29 -54 67 -89t67 -53l6 -3v0zM300 73h-88h88h-88l-7 -10v0l-48 -70v0h198v0l-48 70v0l-7 10v0zM153 100q-32 22 -67 60v0v0
q-35 38 -60 92v0v0q-25 54 -26 125q1 41 28 68t68 28h320v0q41 -1 68 -28t28 -68q-1 -71 -26 -125t-60 -92t-67 -60q-14 -11 -26 -19l18 -26v0l39 -56v0q8 -13 2 -25q-7 -12 -22 -13h-228v0q-15 1 -22 13q-6 12 2 25l39 56v0l18 26v0q-12 8 -26 19v0zM272 177
q-1 -15 -16 -16q-15 1 -16 16v17v0q-13 2 -24 9q-22 11 -24 41q3 27 23 37q17 9 35 14v0v0h1v0q19 5 29 11q8 5 8 12q0 9 -8 14q-9 5 -24 5q-16 -1 -36 -9v0v0v0v0v0v0v0q-3 -1 -7 -2q-14 -3 -20 10q-4 14 10 20l6 2v0v0q14 6 31 9v18v0q1 15 16 16q15 -1 16 -16v-17v0
q13 -2 25 -9q22 -13 23 -42q-2 -27 -23 -38q-18 -10 -36 -15v0v0v0v0v0v0q-19 -5 -30 -11q-8 -5 -7 -10q0 -8 8 -13q10 -5 24 -5q15 1 32 5q14 3 19 -11q3 -14 -11 -20q-11 -3 -24 -5v-17v0z" />
</svg>
