<?xml version="1.0" standalone="no"?>
<!DOCTYPE svg PUBLIC "-//W3C//DTD SVG 1.1//EN" "http://www.w3.org/Graphics/SVG/1.1/DTD/svg11.dtd" >
<svg xmlns="http://www.w3.org/2000/svg" xmlns:xlink="http://www.w3.org/1999/xlink" version="1.1" viewBox="-10 -40 532 512">
   <path fill="currentColor"
d="M241 -7q28 0 50 15v0v0q22 15 32 40q6 10 17 10q6 -1 12 -1q11 0 21 2q13 -2 27 -2q23 0 44 7q-37 -38 -92 -39h-4q-16 -29 -44 -46q-28 -18 -63 -18t-63 18q-28 17 -44 46h-6v0q-54 1 -91 37q-36 37 -37 91q0 35 17 64h39v0q-23 -26 -24 -64q1 -41 28 -68t68 -28
q7 0 14 1q11 1 17 -10q10 -24 32 -40q22 -15 50 -15v0zM400 121q34 1 57 23v0v0q22 23 23 57q0 8 -2 16h33v0q1 -8 1 -16q-1 -48 -33 -79q-31 -32 -79 -33q-48 1 -79 33q-32 31 -33 79q0 8 1 16h33v0q-2 -8 -2 -16q1 -34 23 -57q23 -22 57 -23v0zM129 418q-4 -14 -17 -20
q-35 -16 -57 -46q-21 -31 -23 -71h448v0q-2 40 -23 71q-22 30 -56 46q-14 6 -18 20q-8 22 -31 23h-192v0q-23 -1 -31 -23v0zM27 249q-11 0 -19 8v0v0q-8 8 -8 19q1 52 28 92q26 39 71 59q6 20 22 33q17 13 39 13h192v0q22 0 39 -13q16 -13 22 -33q45 -19 71 -59
q27 -40 28 -91q0 -12 -8 -20t-19 -8h-458v0zM256 73q-1 -15 -16 -16q-15 1 -16 16v128v0q1 15 16 16q15 -1 16 -16v-128v0zM107 110q-11 -10 -22 0q-10 11 0 22l80 80v0q11 10 22 0q10 -11 0 -22l-80 -80v0z" />
</svg>
