<?xml version="1.0" standalone="no"?>
<!DOCTYPE svg PUBLIC "-//W3C//DTD SVG 1.1//EN" "http://www.w3.org/Graphics/SVG/1.1/DTD/svg11.dtd" >
<svg xmlns="http://www.w3.org/2000/svg" xmlns:xlink="http://www.w3.org/1999/xlink" version="1.1" viewBox="-10 -40 532 512">
   <path fill="currentColor"
d="M400 -39q-15 1 -16 16q1 15 16 16h64v0q15 -1 16 -16q-1 -15 -16 -16h-64v0zM32 361q-1 -15 -16 -16q-15 1 -16 16v64v0q1 15 16 16q15 -1 16 -16v-64v0zM480 121q-1 89 -44 161v0v0q-42 73 -115 115v0v0q-72 43 -161 44q-27 -1 -45 -19t-19 -45q1 -27 19 -45t45 -19
q82 -2 136 -56t56 -136q1 -27 19 -45t45 -19q27 1 45 19t19 45v0zM512 121q-1 -41 -28 -68v0v0q-27 -27 -68 -28q-41 1 -68 28t-28 68q-2 68 -47 113t-113 47q-41 1 -68 28t-28 68q1 41 28 68t68 28q98 -1 178 -48q79 -47 126 -126q47 -80 48 -178v0zM400 121q-15 1 -16 16
q-2 88 -61 147t-147 61q-15 1 -16 16q1 15 16 16q67 -1 121 -33t86 -86t33 -121q-1 -15 -16 -16v0z" />
</svg>
