<?xml version="1.0" standalone="no"?>
<!DOCTYPE svg PUBLIC "-//W3C//DTD SVG 1.1//EN" "http://www.w3.org/Graphics/SVG/1.1/DTD/svg11.dtd" >
<svg xmlns="http://www.w3.org/2000/svg" xmlns:xlink="http://www.w3.org/1999/xlink" version="1.1" viewBox="-10 -40 596 512">
   <path fill="currentColor"
d="M368 -7q-47 0 -77 29l-22 -24v0q41 -37 99 -37q49 1 87 25q39 23 64 55t41 73t16 87q-2 63 -35 113t-78 83q-46 34 -104 55q-57 20 -119 21q-28 0 -62 -4q-35 -4 -68 -15q-19 -6 -45 -22q-25 -15 -45 -42q-19 -27 -20 -69q3 -58 43 -88q29 -23 63 -38q42 -18 78 -51
q9 -10 16 -22q6 -12 14 -30q0 -3 1 -5q4 -10 10 -22q5 -14 16 -32q10 -18 28 -35l22 24v0q-27 28 -37 56q-6 13 -10 23q0 1 -1 3l-1 2v0v0q-11 34 -36 61q-39 35 -78 52q-4 2 -8 5v0v0v0v0v0q-33 15 -58 34q-28 22 -30 63q2 46 31 70t57 32q30 10 62 14q31 4 58 4
q56 0 109 -19q52 -19 95 -50q41 -31 70 -75t30 -96q0 -40 -14 -76t-36 -64q-23 -28 -55 -48q-32 -19 -71 -20v0zM352 185q0 -14 9 -23v0v0q9 -9 23 -9t23 9t9 23t-9 23t-23 9t-23 -9t-9 -23v0zM122 259q21 -9 48 -24v0v0q28 -15 59 -45q32 -37 47 -82v0v0v0v0q1 -1 1 -3
l6 -14q10 -26 29 -46q21 -20 56 -20q29 0 55 16q26 15 45 40q20 25 32 56t12 64q-1 42 -25 79t-63 66q-38 29 -86 46t-98 17q-25 0 -54 -4q-29 -3 -55 -12q-26 -8 -46 -26q-20 -17 -21 -46q0 -11 5 -24q6 -12 13 -17q17 -13 38 -21h1v0v0v0h1v0v0v0zM134 288l-1 1l1 -1l-1 1
q-22 9 -30 15q-7 5 -7 17q-1 25 45 42q23 7 49 11q26 3 50 3q44 0 87 -16q43 -15 78 -41t55 -57t20 -62q-2 -56 -36 -100q-36 -43 -76 -44q-23 1 -34 12q-12 11 -21 34q-3 6 -5 12q-1 3 -2 5q-1 0 -1 1q-8 21 -20 45q-13 24 -34 46q-34 34 -64 51q-31 17 -53 25v0z" />
</svg>
