<?xml version="1.0" standalone="no"?>
<!DOCTYPE svg PUBLIC "-//W3C//DTD SVG 1.1//EN" "http://www.w3.org/Graphics/SVG/1.1/DTD/svg11.dtd" >
<svg xmlns="http://www.w3.org/2000/svg" xmlns:xlink="http://www.w3.org/1999/xlink" version="1.1" viewBox="-10 -40 532 512">
   <path fill="currentColor"
d="M257 22l44 34l-44 -34l44 34l17 -22v0l-17 22v0q17 13 38 13l56 -2v0q2 0 2 1l16 54v0q6 20 23 33l46 31v0q1 1 1 2l-6 15q-3 6 -6 14q11 13 21 27q4 -16 11 -30q0 -1 1 -1q3 -8 6 -15q6 -22 -12 -36l-46 -31v0q-9 -7 -12 -17l-15 -54v0q-8 -21 -31 -22l-55 2v0
q-11 0 -20 -6l-44 -35v0q-19 -12 -38 0l-44 35v0q-9 6 -20 6l-55 -2v0q-23 1 -31 22l-15 54v0q-3 10 -13 17l-46 31v0q-18 14 -11 36q3 7 7 16v1q7 14 11 29q10 -14 21 -27q-3 -8 -6 -14l-6 -15q0 -1 1 -2l46 -31v0q17 -13 23 -33l16 -54v0q0 -1 2 -1l56 2v0q21 0 38 -13
l44 -34v0q1 -1 2 0v0zM256 185q63 1 113 31v0v0q51 29 80 80v0v0q30 50 31 113h-448v0q1 -63 31 -113q29 -51 80 -80q50 -30 113 -31v0zM32 441h448h-448h448q14 0 23 -9t9 -23q-1 -72 -35 -129q-34 -58 -92 -92q-57 -34 -129 -35q-72 1 -129 35q-58 34 -92 92
q-34 57 -35 129q0 14 9 23t23 9v0zM112 345q15 -1 16 -16q-1 -15 -16 -16q-15 1 -16 16q1 15 16 16v0zM192 265q-1 -15 -16 -16q-15 1 -16 16q1 15 16 16q15 -1 16 -16v0z" />
</svg>
