<?xml version="1.0" standalone="no"?>
<!DOCTYPE svg PUBLIC "-//W3C//DTD SVG 1.1//EN" "http://www.w3.org/Graphics/SVG/1.1/DTD/svg11.dtd" >
<svg xmlns="http://www.w3.org/2000/svg" xmlns:xlink="http://www.w3.org/1999/xlink" version="1.1" viewBox="-10 -40 532 512">
   <path fill="currentColor"
d="M464 57q15 1 16 16v64v0q-1 15 -16 16h-144v0v-96v0h144v0zM48 57h240h-240h240v96v0h-240v0q-15 -1 -16 -16v-64v0q1 -15 16 -16v0zM48 25q-20 1 -34 14v0v0q-13 14 -14 34v64v0q1 20 14 34q14 13 34 14h416v0q20 -1 34 -14q13 -14 14 -34v-64v0q-1 -20 -14 -34
q-14 -13 -34 -14h-416v0zM464 281q15 1 16 16v64v0q-1 15 -16 16h-272v0v-96v0h272v0zM48 281h112h-112h112v96v0h-112v0q-15 -1 -16 -16v-64v0q1 -15 16 -16v0zM48 249q-20 1 -34 14v0v0q-13 14 -14 34v64v0q1 20 14 34q14 13 34 14h416v0q20 -1 34 -14q13 -14 14 -34v-64
v0q-1 -20 -14 -34q-14 -13 -34 -14h-416v0z" />
</svg>
