<?xml version="1.0" standalone="no"?>
<!DOCTYPE svg PUBLIC "-//W3C//DTD SVG 1.1//EN" "http://www.w3.org/Graphics/SVG/1.1/DTD/svg11.dtd" >
<svg xmlns="http://www.w3.org/2000/svg" xmlns:xlink="http://www.w3.org/1999/xlink" version="1.1" viewBox="-10 -40 595 512">
   <path fill="currentColor"
d="M116 89v-1v0v0q1 0 2 -1q31 -31 64 -45q14 -4 21 9q5 14 -8 21q-27 11 -54 37q-6 6 -10 11l-2 2v0q-37 46 -37 88q-1 42 16 68l136 -136v0q5 -5 12 -5v0v0h176v0v-32v0q1 -15 16 -16q15 1 16 16v32v0h78v0q-6 -33 -41 -63q-34 -31 -101 -33q-47 1 -77 17q-13 5 -21 -5
q-15 -24 -46 -42q-31 -17 -80 -18q-67 2 -101 33q-35 30 -41 63h82v0zM544 169h-96h96h-203q12 36 21 75q11 49 15 100q5 52 1 101q-6 26 -32 28h-100v0q-17 -1 -26 -13t-5 -28q38 -142 31 -216q-1 -15 -3 -28l-114 114v0q-9 9 -23 9q-13 0 -23 -12q-21 -31 -24 -79
q-2 -47 31 -99h-58v0q-13 0 -23 -10q-9 -9 -7 -25q7 -44 50 -83t124 -42q51 1 87 18q36 18 57 45q34 -15 80 -15q81 3 124 42t50 83q2 16 -7 25q-10 10 -23 10v0zM272 169q4 19 6 45q7 81 -32 227v0v0v0v0v0v0v0h100v0q4 -46 -1 -94q-4 -49 -14 -96q-10 -44 -24 -82h-35v0z
" />
</svg>
