<?xml version="1.0" standalone="no"?>
<!DOCTYPE svg PUBLIC "-//W3C//DTD SVG 1.1//EN" "http://www.w3.org/Graphics/SVG/1.1/DTD/svg11.dtd" >
<svg xmlns="http://www.w3.org/2000/svg" xmlns:xlink="http://www.w3.org/1999/xlink" version="1.1" viewBox="-10 -40 660 512">
   <path fill="currentColor"
d="M128 89q0 26 13 48v0v0q13 22 35 35q23 13 48 13t48 -13q22 -13 35 -35t13 -48t-13 -48t-35 -35q-23 -13 -48 -13t-48 13q-22 13 -35 35t-13 48v0zM224 217q-35 0 -64 -17v0v0q-29 -17 -47 -47q-17 -30 -17 -64t17 -64q18 -30 47 -47t64 -17t64 17t47 47q17 30 17 64
t-17 64q-18 30 -47 47t-64 17v0zM160 393q15 -1 16 -16q-1 -15 -16 -16q-15 1 -16 16q1 15 16 16v0zM176 297v35v-35v35q30 12 32 45q-1 20 -14 34q-14 13 -34 14q-20 -1 -34 -14q-13 -14 -14 -34q2 -33 32 -45v-31v0q-49 12 -80 50t-32 90h384v0q-1 -48 -27 -84
q-27 -36 -69 -51v25v0q18 6 29 20q11 15 11 34v24v0q-1 15 -16 16h-16v0q-15 -1 -16 -16q1 -15 16 -16v-8v0q-2 -22 -24 -24q-22 2 -24 24v8v0q15 1 16 16q-1 15 -16 16h-16v0q-15 -1 -16 -16v-24v0q0 -19 11 -34q11 -14 29 -20v-33v0q-8 -1 -17 -1h-94h-1zM0 442
q2 -75 52 -125v0v0q50 -50 125 -52h94v0q75 2 125 52t52 125q0 13 -9 22t-22 9h-386v0q-13 0 -22 -9t-9 -22v0zM544 153h48h-48h48q15 -1 16 -16v-128v0q-1 -15 -16 -16h-160v0q-15 1 -16 16v128v0q1 15 16 16h16v0q14 0 23 9t9 23v8v0l45 -34v0q8 -6 19 -6v0zM479 234
l-10 7l10 -7l-10 7l-8 6v0q-4 3 -9 1q-4 -2 -4 -7v-11v0v-12v0v-1v0v-32v0h-16v0q-20 -1 -34 -14q-13 -14 -14 -34v-128v0q1 -20 14 -34q14 -13 34 -14h160v0q20 1 34 14q13 14 14 34v128v0q-1 20 -14 34q-14 13 -34 14h-48v0l-64 48v0l-1 1v0z" />
</svg>
