<?xml version="1.0" standalone="no"?>
<!DOCTYPE svg PUBLIC "-//W3C//DTD SVG 1.1//EN" "http://www.w3.org/Graphics/SVG/1.1/DTD/svg11.dtd" >
<svg xmlns="http://www.w3.org/2000/svg" xmlns:xlink="http://www.w3.org/1999/xlink" version="1.1" viewBox="-10 -40 660 512">
   <path fill="currentColor"
d="M192 25q-15 1 -16 16v144v0q-1 20 -14 34q-14 13 -34 14h-112v0q-15 -1 -16 -16q1 -15 16 -16h112v0q15 -1 16 -16v-144v0q1 -20 14 -34q14 -13 34 -14h96v0q20 1 34 14q13 14 14 34v352v0q1 15 16 16h96v0q15 -1 16 -16v-144v0q1 -20 14 -34q14 -13 34 -14h112v0
q15 1 16 16q-1 15 -16 16h-112v0q-15 1 -16 16v144v0q-1 20 -14 34q-14 13 -34 14h-96v0q-20 -1 -34 -14q-13 -14 -14 -34v-352v0q-1 -15 -16 -16h-96v0z" />
</svg>
