<?xml version="1.0" standalone="no"?>
<!DOCTYPE svg PUBLIC "-//W3C//DTD SVG 1.1//EN" "http://www.w3.org/Graphics/SVG/1.1/DTD/svg11.dtd" >
<svg xmlns="http://www.w3.org/2000/svg" xmlns:xlink="http://www.w3.org/1999/xlink" version="1.1" viewBox="-10 -40 660 512">
   <path fill="currentColor"
d="M392 -7q22 2 24 24q-2 22 -24 24q-22 -2 -24 -24q2 -22 24 -24v0zM392 73q32 -1 48 -28q16 -28 0 -56q-16 -27 -48 -28q-32 1 -48 28q-16 28 0 56q16 27 48 28v0zM224 345q0 26 -13 48v0v0q-13 22 -35 35q-23 13 -48 13t-48 -13q-22 -13 -35 -35t-13 -48t13 -48t35 -35
q23 -13 48 -13t48 13q22 13 35 35t13 48v0zM128 217q-35 0 -64 17v0v0q-29 17 -47 47q-17 30 -17 64t17 64q18 30 47 47t64 17t64 -17t47 -47q17 -30 17 -64t-17 -64q-18 -30 -47 -47t-64 -17v0zM608 345q0 26 -13 48v0v0q-13 22 -35 35q-23 13 -48 13t-48 -13
q-22 -13 -35 -35t-13 -48t13 -48t35 -35q23 -13 48 -13t48 13q22 13 35 35t13 48v0zM512 217q-35 0 -64 17v0v0q-29 17 -47 47q-17 30 -17 64t17 64q18 30 47 47t64 17t64 -17t47 -47q17 -30 17 -64t-17 -64q-18 -30 -47 -47t-64 -17v0zM309 127q11 -7 21 1l59 53v0
q5 4 11 4h80v0q15 -1 16 -16q-1 -15 -16 -16h-74v0l-54 -49v0q-14 -12 -32 -12q-17 -1 -32 11l-59 51v0q-18 16 -16 39q1 22 20 37l87 59v0v88v0q1 15 16 16q15 -1 16 -16v-96v0q0 -8 -7 -13l-94 -65v0q-13 -12 -1 -25l59 -50v-1z" />
</svg>
