<?xml version="1.0" standalone="no"?>
<!DOCTYPE svg PUBLIC "-//W3C//DTD SVG 1.1//EN" "http://www.w3.org/Graphics/SVG/1.1/DTD/svg11.dtd" >
<svg xmlns="http://www.w3.org/2000/svg" xmlns:xlink="http://www.w3.org/1999/xlink" version="1.1" viewBox="-10 -40 660 512">
   <path fill="currentColor"
d="M416 17q-2 -22 -24 -24q-22 2 -24 24q2 22 24 24q22 -2 24 -24v0zM336 17q1 -32 28 -48q28 -16 56 0q27 16 28 48q-1 32 -28 48q-28 16 -56 0q-27 -16 -28 -48v0zM130 233q-6 0 -8 6q-2 10 -11 13q-9 2 -18 7q-8 4 -16 -1q-5 -3 -10 1l-9 9v0q-4 4 -1 10q5 8 1 16
q-5 9 -7 18q-3 9 -13 11q-5 2 -6 8v12v0q0 6 6 8q10 2 13 11q2 9 7 18q4 8 -1 16q-3 5 1 10l9 9v0q4 4 10 1q8 -5 16 -1q9 5 18 7q9 3 11 13q2 6 8 6h12v0q6 0 8 -6q2 -10 11 -13q9 -2 18 -7q8 -4 16 1q5 3 10 -1l9 -9v0q4 -4 1 -10q-5 -8 -1 -16q5 -9 7 -18q3 -9 13 -11
q6 -2 6 -8v-12v0q0 -6 -6 -8q-10 -2 -13 -11q-2 -9 -7 -18q-4 -8 1 -16q3 -5 -1 -10l-9 -9v0q-4 -4 -10 -1q-8 5 -16 1q-9 -5 -18 -7q-9 -3 -11 -13q-2 -6 -8 -6h-12v0zM94 224q11 -22 36 -23h12v0q25 1 36 23q4 1 9 3q22 -7 41 10l8 8v0q17 19 10 41q2 5 4 9q21 11 22 36
v12v0q-1 25 -22 36q-2 4 -4 9q7 22 -10 41l-8 8v0q-19 17 -41 10q-5 2 -9 4q-11 21 -36 22h-12v0q-25 -1 -36 -22q-4 -2 -9 -4q-22 7 -41 -10l-8 -8v0q-17 -19 -10 -41q-2 -5 -3 -9q-22 -11 -23 -36v-12v0q1 -25 23 -36q1 -4 3 -9q-7 -22 10 -41l8 -8v0q19 -17 41 -10
q5 -2 9 -3v0zM136 316q-20 1 -21 21q1 20 21 22q20 -2 22 -22q-2 -20 -22 -21v0zM190 337q-1 30 -27 46q-27 15 -54 0q-26 -16 -26 -46t26 -46q27 -15 54 0q26 16 27 46v0zM498 233q-6 0 -8 6q-2 10 -11 13q-9 2 -18 7q-8 4 -16 -1q-5 -3 -10 1l-9 9v0q-4 4 -1 10q5 8 1 16
q-5 9 -7 18q-3 9 -13 11q-6 2 -6 8v12v0q0 6 6 8q10 2 13 11q2 9 7 18q4 8 -1 16q-3 5 1 10l9 9v0q4 4 10 1q8 -5 16 -1q9 5 18 7q9 3 11 13q2 6 8 6h12v0q6 0 8 -6q2 -10 11 -13q9 -2 18 -7q8 -4 16 1q5 3 10 -1l9 -9v0q4 -4 1 -10q-5 -8 -1 -16q5 -9 7 -18q3 -9 13 -11
q5 -2 6 -8v-12v0q0 -6 -6 -8q-10 -2 -13 -11q-2 -9 -7 -18q-4 -8 1 -16q3 -5 -1 -10l-9 -9v0q-4 -4 -10 -1q-8 5 -16 1q-9 -5 -18 -7q-9 -3 -11 -13q-2 -6 -8 -6h-12v0zM462 224q11 -22 36 -23h12v0q25 1 36 23q4 1 9 3q22 -7 41 10l8 8v0q17 19 10 41q2 5 3 9q22 11 23 36
v12v0q-1 25 -23 36q-1 4 -3 9q7 22 -10 41l-8 8v0q-19 17 -41 10q-5 2 -9 4q-11 21 -36 22h-12v0q-25 -1 -36 -22q-4 -2 -9 -4q-22 7 -41 -10l-8 -8v0q-17 -19 -10 -41q-2 -5 -3 -9q-22 -11 -23 -36v-12v0q1 -25 23 -36q1 -4 3 -9q-7 -22 10 -41l8 -8v0q19 -17 41 -10
q5 -2 9 -3v0zM504 316q-20 1 -21 21q1 20 21 22q20 -2 22 -22q-2 -20 -22 -21v0zM558 337q-1 30 -27 46q-27 15 -54 0q-26 -16 -26 -46t26 -46q27 -15 54 0q26 16 27 46v0zM330 128q-10 -8 -21 -1l-59 51v0q-12 13 1 25l94 65v0q7 5 7 13v96v0q-2 15 -16 16q-15 -1 -16 -16
v-88v0l-87 -59v0q-19 -15 -21 -37q-1 -23 17 -39l59 -51v0q14 -12 32 -11q18 0 31 12l55 49v0h74v0q15 1 16 16q-1 15 -16 16h-80v0q-6 0 -11 -4l-59 -53v0zM169 127l70 -63l-70 63l70 -63l-3 -4v0q-21 -16 -43 -1l-49 41v0l25 27v0zM274 76l-95 85l95 -85l-95 85
q-11 9 -22 -1l-48 -50v0q-10 -12 1 -23l63 -53v0q19 -15 43 -14q23 1 41 17l17 15v0q10 12 0 24v0z" />
</svg>
