<?xml version="1.0" standalone="no"?>
<!DOCTYPE svg PUBLIC "-//W3C//DTD SVG 1.1//EN" "http://www.w3.org/Graphics/SVG/1.1/DTD/svg11.dtd" >
<svg xmlns="http://www.w3.org/2000/svg" xmlns:xlink="http://www.w3.org/1999/xlink" version="1.1" viewBox="-10 -40 468 512">
   <path fill="currentColor"
d="M432 -7q15 1 16 16v416v0q-1 15 -16 16q-15 -1 -16 -16v-416v0q1 -15 16 -16v0zM320 49q-22 -2 -24 -24q2 -22 24 -24q22 2 24 24q-2 22 -24 24v0zM320 385q22 2 24 24q-2 22 -24 24q-22 -2 -24 -24q2 -22 24 -24v0zM320 241q-22 -2 -24 -24q2 -22 24 -24q22 2 24 24
q-2 22 -24 24v0zM128 1q22 2 24 24q-2 22 -24 24q-22 -2 -24 -24q2 -22 24 -24v0zM128 433q-22 -2 -24 -24q2 -22 24 -24q22 2 24 24q-2 22 -24 24v0zM128 193q22 2 24 24q-2 22 -24 24q-22 -2 -24 -24q2 -22 24 -24v0zM224 49q-22 -2 -24 -24q2 -22 24 -24q22 2 24 24
q-2 22 -24 24v0zM224 385q22 2 24 24q-2 22 -24 24q-22 -2 -24 -24q2 -22 24 -24v0zM224 241q-22 -2 -24 -24q2 -22 24 -24q22 2 24 24q-2 22 -24 24v0zM32 1q22 2 24 24q-2 22 -24 24q-22 -2 -24 -24q2 -22 24 -24v0zM32 433q-22 -2 -24 -24q2 -22 24 -24q22 2 24 24
q-2 22 -24 24v0zM32 193q22 2 24 24q-2 22 -24 24q-22 -2 -24 -24q2 -22 24 -24v0zM224 145q-22 -2 -24 -24q2 -22 24 -24q22 2 24 24q-2 22 -24 24v0zM32 97q22 2 24 24q-2 22 -24 24q-22 -2 -24 -24q2 -22 24 -24v0zM32 337q-22 -2 -24 -24q2 -22 24 -24q22 2 24 24
q-2 22 -24 24v0zM224 289q22 2 24 24q-2 22 -24 24q-22 -2 -24 -24q2 -22 24 -24v0z" />
</svg>
