<?xml version="1.0" standalone="no"?>
<!DOCTYPE svg PUBLIC "-//W3C//DTD SVG 1.1//EN" "http://www.w3.org/Graphics/SVG/1.1/DTD/svg11.dtd" >
<svg xmlns="http://www.w3.org/2000/svg" xmlns:xlink="http://www.w3.org/1999/xlink" version="1.1" viewBox="-10 -40 529 512">
   <path fill="currentColor"
d="M243 95q-2 17 11 28q13 10 29 6q25 -8 69 -8v0v0q46 0 78 26q33 25 45 66l-97 -10v0q-17 -1 -28 12q-10 13 -6 29q8 25 8 69v0v0q-1 45 -26 78t-66 45l10 -97v0q1 -17 -12 -28q-13 -10 -29 -6q-25 8 -69 8v0v0q-46 -1 -78 -26q-33 -25 -45 -66l97 10v0q17 1 28 -12
q10 -13 6 -29q-8 -25 -8 -69v0v0q0 -46 26 -78q25 -33 66 -45l-10 97h1zM480 214v0v0v0zM32 220v0v0v0v0v0v0zM253 -7v0v0v0v0v0v0zM274 99l4 -34l-4 34l4 -34l6 -69v0q2 -14 -8 -24q-9 -10 -23 -7q-56 12 -90 55q-34 42 -35 101q0 25 3 45q2 18 6 33l-34 -4v0l-68 -6v0
q-14 -2 -24 8q-10 9 -7 23q12 56 55 90q42 34 101 35q25 0 45 -3q18 -2 33 -6l-4 33v0l-6 69v0q-2 14 8 24q9 10 23 7q56 -12 90 -55q34 -42 35 -101q0 -25 -3 -45q-2 -18 -6 -33l33 4v0l69 7v0q14 1 24 -9q10 -9 7 -23q-12 -56 -55 -90q-42 -34 -101 -35q-25 0 -45 3
q-18 2 -33 6v1zM256 241q22 -2 24 -24q-2 -22 -24 -24q-22 2 -24 24q2 22 24 24v0z" />
</svg>
