<?xml version="1.0" standalone="no"?>
<!DOCTYPE svg PUBLIC "-//W3C//DTD SVG 1.1//EN" "http://www.w3.org/Graphics/SVG/1.1/DTD/svg11.dtd" >
<svg xmlns="http://www.w3.org/2000/svg" xmlns:xlink="http://www.w3.org/1999/xlink" version="1.1" viewBox="-10 -40 468 512">
   <path fill="currentColor"
d="M64 25q-14 0 -23 9v0v0q-9 9 -9 23v320v0q0 14 9 23t23 9h320v0q14 0 23 -9t9 -23v-320v0q0 -14 -9 -23t-23 -9h-320v0zM0 57q1 -27 19 -45v0v0q18 -18 45 -19h320v0q27 1 45 19t19 45v320v0q-1 27 -19 45t-45 19h-320v0q-27 -1 -45 -19t-19 -45v-320v0zM144 73v32v-32
v32h64v0v-32v0q1 -15 16 -16q15 1 16 16v32v0h64v0v-32v0q1 -15 16 -16q15 1 16 16v32v0h32v0q15 1 16 16q-1 15 -16 16h-32v0v64v0h32v0q15 1 16 16q-1 15 -16 16h-32v0v64v0h32v0q15 1 16 16q-1 15 -16 16h-32v0v32v0q-1 15 -16 16q-15 -1 -16 -16v-32v0h-64v0v32v0
q-1 15 -16 16q-15 -1 -16 -16v-32v0h-64v0v32v0q-1 15 -16 16q-15 -1 -16 -16v-32v0h-32v0q-15 -1 -16 -16q1 -15 16 -16h32v0v-64v0h-32v0q-15 -1 -16 -16q1 -15 16 -16h32v0v-64v0h-32v0q-15 -1 -16 -16q1 -15 16 -16h32v0v-32v0q1 -15 16 -16q15 1 16 16v0zM144 201h64
h-64h64v-64v0h-64v0v64v0zM240 201h64h-64h64v-64v0h-64v0v64v0zM240 233v64v-64v64h64v0v-64v0h-64v0zM208 233h-64h64h-64v64v0h64v0v-64v0z" />
</svg>
