<?xml version="1.0" standalone="no"?>
<!DOCTYPE svg PUBLIC "-//W3C//DTD SVG 1.1//EN" "http://www.w3.org/Graphics/SVG/1.1/DTD/svg11.dtd" >
<svg xmlns="http://www.w3.org/2000/svg" xmlns:xlink="http://www.w3.org/1999/xlink" version="1.1" viewBox="-10 -40 657 512">
   <path fill="currentColor"
d="M512 57h-448h448h-448q-14 0 -23 9t-9 23v256v0q0 14 9 23t23 9h274v0l-8 32v0h-266v0q-27 -1 -45 -19t-19 -45v-256v0q1 -27 19 -45t45 -19h448v0q27 1 45 19t19 45v64v0q-17 0 -32 6v-70v0q0 -14 -9 -23t-23 -9v0zM256 265q1 -15 16 -16h96v0q15 1 16 16q-1 15 -16 16
h-96v0q-15 -1 -16 -16v0zM272 153h192h-192h192q15 1 16 16q-1 15 -16 16h-192v0q-15 -1 -16 -16q1 -15 16 -16v0zM144 97q15 1 16 16v17v0q13 2 24 5q14 5 11 20q-5 14 -19 11q-17 -5 -32 -5q-14 0 -24 6q-8 4 -8 12q-1 5 7 10q11 6 30 11v0v0v0v0v0v0v0q18 5 36 15
q21 11 23 38q-1 29 -23 42q-12 7 -25 9v17v0q-1 15 -16 16q-15 -1 -16 -16v-18v0q-17 -3 -31 -9v0v0l-6 -2q-14 -6 -10 -20q6 -13 20 -10q4 1 7 2v0v0v0v0v0v0v0q1 0 1 1q19 7 35 8q15 0 24 -5q8 -5 8 -14q0 -7 -8 -12q-10 -6 -29 -11l-1 -1v0v0v0v0v0q-18 -4 -35 -13
q-20 -11 -23 -38q2 -29 24 -40q11 -7 24 -9v-17v0q1 -15 16 -16v0zM583 225q-11 -9 -23 0l-25 25v0l40 40v0l25 -25v0q10 -11 0 -23l-17 -17v0zM407 379q-4 3 -5 7l-12 49v0l49 -12v0q4 -1 7 -4l107 -107v0l-40 -40v0l-106 107v0zM538 202q14 -14 33 -14v0v0q20 0 34 14
l18 18v0q14 15 14 34t-14 34l-154 153v0q-9 10 -22 13l-75 19v0q-9 2 -15 -5q-6 -6 -4 -15l18 -75v0q4 -12 13 -22l154 -154v0z" />
</svg>
