<?xml version="1.0" standalone="no"?>
<!DOCTYPE svg PUBLIC "-//W3C//DTD SVG 1.1//EN" "http://www.w3.org/Graphics/SVG/1.1/DTD/svg11.dtd" >
<svg xmlns="http://www.w3.org/2000/svg" xmlns:xlink="http://www.w3.org/1999/xlink" version="1.1" viewBox="-10 -40 660 512">
   <path fill="currentColor"
d="M192 -7q14 0 23 9v0v0q9 9 9 23v128v0q0 14 -9 23t-23 9h-128v0q-14 0 -23 -9t-9 -23v-128v0q0 -14 9 -23t23 -9h128v0zM64 -39q-27 1 -45 19v0v0q-18 18 -19 45v128v0q1 27 19 45t45 19h128v0q27 -1 45 -19t19 -45v-128v0q-1 -27 -19 -45t-45 -19h-128v0zM576 249
q14 0 23 9v0v0q9 9 9 23v128v0q0 14 -9 23t-23 9h-128v0q-14 0 -23 -9t-9 -23v-128v0q0 -14 9 -23t23 -9h128v0zM448 217q-27 1 -45 19v0v0q-18 18 -19 45v128v0q1 27 19 45t45 19h128v0q27 -1 45 -19t19 -45v-128v0q-1 -27 -19 -45t-45 -19h-128v0zM160 249v64v-64v64
q1 27 19 45t45 19h128v0v-32v0h-128v0q-14 0 -23 -9t-9 -23v-64v0h-32v0zM416 57h-128h128h-128v32v0h128v0q14 0 23 9t9 23v64v0h32v0v-64v0q-1 -27 -19 -45t-45 -19v0zM152 57q7 1 8 8v48v0q-1 7 -8 8h-48v0q-7 -1 -8 -8v-48v0q1 -7 8 -8h48v0zM104 25q-17 0 -28 12v0v0
q-12 11 -12 28v48v0q0 17 12 28q11 12 28 12h48v0q17 0 28 -12q12 -11 12 -28v-48v0q0 -17 -12 -28q-11 -12 -28 -12h-48v0zM488 313h48h-48h48q7 1 8 8v48v0q-1 7 -8 8h-48v0q-7 -1 -8 -8v-48v0q1 -7 8 -8v0zM448 321v48v-48v48q0 17 12 28q11 12 28 12h48v0q17 0 28 -12
q12 -11 12 -28v-48v0q0 -17 -12 -28q-11 -12 -28 -12h-48v0q-17 0 -28 12q-12 11 -12 28v0z" />
</svg>
