<?xml version="1.0" standalone="no"?>
<!DOCTYPE svg PUBLIC "-//W3C//DTD SVG 1.1//EN" "http://www.w3.org/Graphics/SVG/1.1/DTD/svg11.dtd" >
<svg xmlns="http://www.w3.org/2000/svg" xmlns:xlink="http://www.w3.org/1999/xlink" version="1.1" viewBox="-10 -40 586 512">
   <path fill="currentColor"
d="M171 -2q-11 -10 -22 0l-96 96v0q-10 11 0 22q11 10 22 0l69 -68v0v377v0q1 15 16 16q15 -1 16 -16v-377v0l69 68v0q11 10 22 0q10 -11 0 -22l-96 -96v0zM352 137v-96v96v-96q1 -15 16 -16h96v0q15 1 16 16v96v0q-1 15 -16 16h-96v0q-15 -1 -16 -16v0zM416 285l75 124
l-75 -124l75 124h-150v0l75 -124v0zM320 137q1 20 14 34v0v0q14 13 34 14h96v0q20 -1 34 -14q13 -14 14 -34v-96v0q-1 -20 -14 -34q-14 -13 -34 -14h-96v0q-20 1 -34 14q-13 14 -14 34v96v0zM308 403q-4 6 -4 13q2 23 25 25h174v0q23 -2 25 -25q0 -7 -4 -13l-84 -140v0
q-8 -14 -24 -14t-24 14l-84 140v0z" />
</svg>
