<?xml version="1.0" standalone="no"?>
<!DOCTYPE svg PUBLIC "-//W3C//DTD SVG 1.1//EN" "http://www.w3.org/Graphics/SVG/1.1/DTD/svg11.dtd" >
<svg xmlns="http://www.w3.org/2000/svg" xmlns:xlink="http://www.w3.org/1999/xlink" version="1.1" viewBox="-10 -40 596 512">
   <path fill="currentColor"
d="M86 49q7 -23 31 -24q7 0 14 3l22 11v0q14 6 21 -7q6 -14 -7 -21l-22 -11v0q-13 -7 -28 -7q-22 0 -39 13t-23 35l-50 196v0q-5 18 -5 36v0v0v0v0v40v0v16v0q1 48 33 79q31 32 79 33h44v0q46 -1 77 -31q32 -29 35 -75l4 -54v0h32v0l4 54v0q3 46 35 75q31 30 77 31h44v0
q48 -1 79 -33q32 -31 33 -79v-15v0v-1v0v-40v0q0 -18 -5 -36l-50 -196v0q-6 -22 -23 -35t-39 -13q-15 0 -28 7l-22 11v0q-13 8 -7 21q7 13 21 7l22 -11v0q7 -3 14 -3q24 1 31 24l48 187v0q-48 -19 -98 -19q-62 0 -118 27q-4 2 -7 5h-54v0q-3 -3 -7 -5q-56 -27 -118 -27
q-50 0 -98 18l48 -186v0zM32 273v0v0v0q49 -24 104 -24q54 0 104 24v0v0v0v0l-4 60v0v0v0v1v0q-2 32 -25 53q-22 21 -55 22h-44v0q-12 0 -22 -3l9 -5v0l12 -6v0l24 -12v0l48 -24v0q13 -7 7 -21q-7 -13 -21 -7l-48 24v0l-24 12v0l-12 6v0l-12 6v0l-12 6v0l-4 2
q-12 -11 -19 -27q1 0 1 -1l96 -48v0q13 -8 7 -21q-7 -13 -21 -7l-89 44v0v-14v0v-40v0zM544 329q-1 34 -23 57v0v0q-23 22 -57 23h-44v0q-13 0 -25 -4l92 -46v0q13 -8 7 -21q-7 -13 -21 -7l-96 48v0l-12 6v0q-1 0 -2 1q-12 -12 -18 -28l94 -47v0q13 -8 7 -21q-7 -13 -21 -7
l-86 42v0l-3 -52v0v0v0v0v0q50 -24 104 -24q55 0 104 24v56v0z" />
</svg>
