<?xml version="1.0" standalone="no"?>
<!DOCTYPE svg PUBLIC "-//W3C//DTD SVG 1.1//EN" "http://www.w3.org/Graphics/SVG/1.1/DTD/svg11.dtd" >
<svg xmlns="http://www.w3.org/2000/svg" xmlns:xlink="http://www.w3.org/1999/xlink" version="1.1" viewBox="-10 -40 468 512">
   <path fill="currentColor"
d="M178 -7h92h-92h92q9 0 14 8l15 24v0h-150v0l15 -24v0q5 -8 14 -8v0zM337 25l-26 -41l26 41l-26 -41q-15 -22 -41 -23h-92v0q-26 1 -41 23l-26 41v0h-47h-48q-15 1 -16 16q1 15 16 16h18v0l26 357v0q2 25 20 42q18 16 44 17h200v0q26 -1 44 -17q18 -17 20 -42l26 -357v0
h18v0q15 -1 16 -16q-1 -15 -16 -16h-16h-79zM382 57l-26 354l26 -354l-26 354q-1 13 -10 21q-9 9 -22 9h-200v0q-13 0 -22 -9q-9 -8 -10 -21l-26 -354v0h316v0zM220 150q-11 -10 -23 -1l-80 72v0q-5 5 -5 12t5 12l80 72v0q12 9 23 -1q9 -12 -1 -23l-49 -44v0h70v0
q20 1 34 14q13 14 14 34v40v0q1 15 16 16q15 -1 16 -16v-40v0q-1 -34 -23 -57q-23 -22 -57 -23h-70v0l49 -44v0q10 -11 1 -23v0z" />
</svg>
