<?xml version="1.0" standalone="no"?>
<!DOCTYPE svg PUBLIC "-//W3C//DTD SVG 1.1//EN" "http://www.w3.org/Graphics/SVG/1.1/DTD/svg11.dtd" >
<svg xmlns="http://www.w3.org/2000/svg" xmlns:xlink="http://www.w3.org/1999/xlink" version="1.1" viewBox="-10 -40 468 512">
   <path fill="currentColor"
d="M64 -7q-14 0 -23 9v0v0q-9 9 -9 23v384v0q0 14 9 23t23 9h320v0q14 0 23 -9t9 -23v-384v0q0 -14 -9 -23t-23 -9h-320v0zM0 25q1 -27 19 -45v0v0q18 -18 45 -19h320v0q27 1 45 19t19 45v384v0q-1 27 -19 45t-45 19h-320v0q-27 -1 -45 -19t-19 -45v-384v0zM104 33
q22 2 24 24q-2 22 -24 24q-22 -2 -24 -24q2 -22 24 -24v0zM160 57q2 -22 24 -24q22 2 24 24q-2 22 -24 24q-22 -2 -24 -24v0zM326 312q-11 1 -22 1q-31 -1 -55 -12q-24 -12 -41 -24v0l-2 -1v0q-18 -13 -32 -20q-15 -7 -30 -7t-31 4q-1 6 -1 12q1 48 33 79q31 32 79 33
q34 0 61 -18t41 -47v0zM335 279q1 -7 1 -14q-1 -48 -33 -79q-31 -32 -79 -33q-34 1 -61 18q-27 18 -41 48q11 -2 22 -2q24 1 43 10q19 10 37 22q18 13 37 22q19 10 43 10q16 0 31 -2v0zM80 265q0 -39 19 -72v0v0q19 -33 53 -53q34 -19 72 -19t72 19q34 20 53 53t19 72
t-19 72t-53 53q-34 19 -72 19t-72 -19q-34 -20 -53 -53t-19 -72v0z" />
</svg>
