<?xml version="1.0" standalone="no"?>
<!DOCTYPE svg PUBLIC "-//W3C//DTD SVG 1.1//EN" "http://www.w3.org/Graphics/SVG/1.1/DTD/svg11.dtd" >
<svg xmlns="http://www.w3.org/2000/svg" xmlns:xlink="http://www.w3.org/1999/xlink" version="1.1" viewBox="-10 -40 468 512">
   <path fill="currentColor"
d="M16 201q-15 1 -16 16q1 15 16 16h416v0q15 -1 16 -16q-1 -15 -16 -16h-416v0zM32 49q22 -2 24 -24q-2 -22 -24 -24q-22 2 -24 24q2 22 24 24v0zM32 433q22 -2 24 -24q-2 -22 -24 -24q-22 2 -24 24q2 22 24 24v0zM128 49q22 -2 24 -24q-2 -22 -24 -24q-22 2 -24 24
q2 22 24 24v0zM128 433q22 -2 24 -24q-2 -22 -24 -24q-22 2 -24 24q2 22 24 24v0zM320 385q-22 2 -24 24q2 22 24 24q22 -2 24 -24q-2 -22 -24 -24v0zM320 49q22 -2 24 -24q-2 -22 -24 -24q-22 2 -24 24q2 22 24 24v0zM224 385q-22 2 -24 24q2 22 24 24q22 -2 24 -24
q-2 -22 -24 -24v0zM224 49q22 -2 24 -24q-2 -22 -24 -24q-22 2 -24 24q2 22 24 24v0zM416 385q-22 2 -24 24q2 22 24 24q22 -2 24 -24q-2 -22 -24 -24v0zM416 1q-22 2 -24 24q2 22 24 24q22 -2 24 -24q-2 -22 -24 -24v0zM224 289q-22 2 -24 24q2 22 24 24q22 -2 24 -24
q-2 -22 -24 -24v0zM416 337q22 -2 24 -24q-2 -22 -24 -24q-22 2 -24 24q2 22 24 24v0zM32 289q-22 2 -24 24q2 22 24 24q22 -2 24 -24q-2 -22 -24 -24v0zM416 145q22 -2 24 -24q-2 -22 -24 -24q-22 2 -24 24q2 22 24 24v0zM32 97q-22 2 -24 24q2 22 24 24q22 -2 24 -24
q-2 -22 -24 -24v0zM224 145q22 -2 24 -24q-2 -22 -24 -24q-22 2 -24 24q2 22 24 24v0z" />
</svg>
