<?xml version="1.0" standalone="no"?>
<!DOCTYPE svg PUBLIC "-//W3C//DTD SVG 1.1//EN" "http://www.w3.org/Graphics/SVG/1.1/DTD/svg11.dtd" >
<svg xmlns="http://www.w3.org/2000/svg" xmlns:xlink="http://www.w3.org/1999/xlink" version="1.1" viewBox="-10 -40 532 512">
   <path fill="currentColor"
d="M140 13q21 -20 51 -35v0v0q30 -16 65 -17q35 1 65 17q30 15 51 35q8 6 14 12h62v0q27 1 45 19t19 45v128v0v16v0v16v0v160v0q-1 27 -19 45t-45 19h-384v0q-27 -1 -45 -19t-19 -45v-160v0v-16v0v-16v0v-128v0q1 -27 19 -45t45 -19h62v0l14 -12v0zM176 25h160h-160h160
q-37 -29 -80 -32q-43 3 -80 32v0zM480 249h-448h448h-448v160v0q0 14 9 23t23 9h384v0q14 0 23 -9t9 -23v-160v0zM480 217v-128v128v-128q0 -14 -9 -23t-23 -9h-384v0q-14 0 -23 9t-9 23v128v0h448v0zM80 297q1 -15 16 -16q15 1 16 16q-1 15 -16 16q-15 -1 -16 -16v0z
M80 393q1 -15 16 -16q15 1 16 16q-1 15 -16 16q-15 -1 -16 -16v0zM128 329q15 1 16 16q-1 15 -16 16q-15 -1 -16 -16q1 -15 16 -16v0zM144 297q1 -15 16 -16q15 1 16 16q-1 15 -16 16q-15 -1 -16 -16v0zM160 377q15 1 16 16q-1 15 -16 16q-15 -1 -16 -16q1 -15 16 -16v0z
M176 345q1 -15 16 -16q15 1 16 16q-1 15 -16 16q-15 -1 -16 -16v0zM224 281q15 1 16 16q-1 15 -16 16q-15 -1 -16 -16q1 -15 16 -16v0zM208 393q1 -15 16 -16q15 1 16 16q-1 15 -16 16q-15 -1 -16 -16v0zM256 329q15 1 16 16q-1 15 -16 16q-15 -1 -16 -16q1 -15 16 -16v0z
M272 297q1 -15 16 -16q15 1 16 16q-1 15 -16 16q-15 -1 -16 -16v0zM288 377q15 1 16 16q-1 15 -16 16q-15 -1 -16 -16q1 -15 16 -16v0zM304 345q1 -15 16 -16q15 1 16 16q-1 15 -16 16q-15 -1 -16 -16v0zM384 329q15 1 16 16q-1 15 -16 16q-15 -1 -16 -16q1 -15 16 -16v0z
M336 297q1 -15 16 -16q15 1 16 16q-1 15 -16 16q-15 -1 -16 -16v0zM416 281q15 1 16 16q-1 15 -16 16q-15 -1 -16 -16q1 -15 16 -16v0zM336 393q1 -15 16 -16q15 1 16 16q-1 15 -16 16q-15 -1 -16 -16v0zM416 377q15 1 16 16q-1 15 -16 16q-15 -1 -16 -16q1 -15 16 -16v0z
M96 113q22 2 24 24q-2 22 -24 24q-22 -2 -24 -24q2 -22 24 -24v0zM168 137q2 -22 24 -24q22 2 24 24q-2 22 -24 24q-22 -2 -24 -24v0zM320 113q22 2 24 24q-2 22 -24 24q-22 -2 -24 -24q2 -22 24 -24v0zM392 137q2 -22 24 -24q22 2 24 24q-2 22 -24 24q-22 -2 -24 -24v0z
" />
</svg>
