<?xml version="1.0" standalone="no"?>
<!DOCTYPE svg PUBLIC "-//W3C//DTD SVG 1.1//EN" "http://www.w3.org/Graphics/SVG/1.1/DTD/svg11.dtd" >
<svg xmlns="http://www.w3.org/2000/svg" xmlns:xlink="http://www.w3.org/1999/xlink" version="1.1" viewBox="-10 -40 532 512">
   <path fill="currentColor"
d="M320 425q-1 15 -16 16h-96v0q-15 -1 -16 -16v-144v0v-32v0v-32v0v-32v0v-128v0q1 -27 19 -45t45 -19q27 1 45 19t19 45v256v0v32v0v32v0v32v0v16v0zM352 313v-256v256v-256q-1 -41 -28 -68t-68 -28q-41 1 -68 28t-28 68v128v0h-48v0q-15 -1 -16 -16v-64v0q-1 -20 -14 -34
q-14 -13 -34 -14q-20 1 -34 14q-13 14 -14 34v64v0q1 48 33 79q31 32 79 33h48v0v144v0q1 20 14 34q14 13 34 14h96v0q20 -1 34 -14q13 -14 14 -34v-16v0h48v0q48 -1 79 -33q32 -31 33 -79v-64v0q-1 -20 -14 -34q-14 -13 -34 -14q-20 1 -34 14q-13 14 -14 34v64v0
q-1 15 -16 16h-48v0zM352 345h48h-48h48q20 -1 34 -14q13 -14 14 -34v-64v0q1 -15 16 -16q15 1 16 16v64v0q-1 34 -23 57q-23 22 -57 23h-48v0v-32v0zM112 249q-34 -1 -57 -23v0v0q-22 -23 -23 -57v-64v0q1 -15 16 -16q15 1 16 16v64v0q1 20 14 34q14 13 34 14h48v0v32v0
h-48v0zM256 105q-1 -15 -16 -16q-15 1 -16 16q1 15 16 16q15 -1 16 -16v0zM272 345q15 -1 16 -16q-1 -15 -16 -16q-15 1 -16 16q1 15 16 16v0z" />
</svg>
