<?xml version="1.0" standalone="no"?>
<!DOCTYPE svg PUBLIC "-//W3C//DTD SVG 1.1//EN" "http://www.w3.org/Graphics/SVG/1.1/DTD/svg11.dtd" >
<svg xmlns="http://www.w3.org/2000/svg" xmlns:xlink="http://www.w3.org/1999/xlink" version="1.1" viewBox="-10 -40 596 512">
   <path fill="currentColor"
d="M64 409h448h-448h448q14 0 23 -9t9 -23v-45v0q0 -9 -5 -17l-1 -2v0h-499v0l-2 2v0q-5 8 -5 17v45v0q0 14 9 23t23 9v0zM516 281l-28 -42l28 42l-28 -42q-8 -12 -8 -27v-155v0q0 -14 -9 -23t-23 -9h-320v0q-14 0 -23 9t-9 23v155v0q0 15 -8 27l-28 42v0h456v0zM512 441
h-448h448h-448q-27 -1 -45 -19t-19 -45v-45v0q0 -19 11 -35l50 -76v0q3 -4 3 -9v-155v0q1 -27 19 -45t45 -19h320v0q27 1 45 19t19 45v155v0q0 5 3 9l50 76v0q11 16 11 35v45v0q-1 27 -19 45t-45 19v0zM416 113q-22 -2 -24 -24q2 -22 24 -24q22 2 24 24q-2 22 -24 24v0z
M288 105q-27 1 -42 24q-12 24 0 48q15 23 42 24q27 -1 42 -24q12 -24 0 -48q-15 -23 -42 -24v0zM368 153q-1 45 -40 69q-40 22 -80 0q-39 -24 -40 -69q1 -45 40 -69q40 -22 80 0q39 24 40 69v0zM112 345h352h-352h352q15 1 16 16q-1 15 -16 16h-352v0q-15 -1 -16 -16
q1 -15 16 -16v0z" />
</svg>
