<?xml version="1.0" standalone="no"?>
<!DOCTYPE svg PUBLIC "-//W3C//DTD SVG 1.1//EN" "http://www.w3.org/Graphics/SVG/1.1/DTD/svg11.dtd" >
<svg xmlns="http://www.w3.org/2000/svg" xmlns:xlink="http://www.w3.org/1999/xlink" version="1.1" viewBox="-10 -40 660 512">
   <path fill="currentColor"
d="M224 73q1 -15 16 -16h32h224q15 1 16 16q-1 15 -16 16h-16v0v32v0h45v0q12 0 22 -7l56 -37v0q12 -7 24 -1q12 7 13 21v240v0q-1 14 -13 21q-12 6 -24 -1l-56 -37v0q-10 -7 -22 -7h-412v0q-13 0 -25 -4l-71 -21v0q-16 -6 -17 -23v-96v0q1 -17 17 -23l71 -21v0q12 -4 25 -4
h143v0v-32v0h-16v0q-15 -1 -16 -16v0zM448 89h-64h64h-64v32v0h64v0v-32v0zM352 89h-64h64h-64v32v0h64v0v-32v0zM608 112l-43 29l43 -29l-43 29q-19 12 -40 12h-412v0q-8 0 -16 2l-65 20v0v84v0l65 20v0q8 2 16 2h412v0q21 0 40 12l43 29v0v-210v0zM272 193q22 2 24 24
q-2 22 -24 24q-22 -2 -24 -24q2 -22 24 -24v0zM344 217q2 -22 24 -24q22 2 24 24q-2 22 -24 24q-22 -2 -24 -24v0zM464 193q22 2 24 24q-2 22 -24 24q-22 -2 -24 -24q2 -22 24 -24v0z" />
</svg>
