<?xml version="1.0" standalone="no"?>
<!DOCTYPE svg PUBLIC "-//W3C//DTD SVG 1.1//EN" "http://www.w3.org/Graphics/SVG/1.1/DTD/svg11.dtd" >
<svg xmlns="http://www.w3.org/2000/svg" xmlns:xlink="http://www.w3.org/1999/xlink" version="1.1" viewBox="-10 -40 404 512">
   <path fill="currentColor"
d="M352 409v-256v256v-256h-112v0q-20 -1 -34 -14q-13 -14 -14 -34v-112v0h-128v0q-14 0 -23 9t-9 23v384v0q0 14 9 23t23 9h256v0q14 0 23 -9t9 -23v0zM352 121q-2 -4 -5 -7l-116 -116v0q-3 -3 -7 -4v111v0q1 15 16 16h112v0zM0 25q1 -27 19 -45v0v0q18 -18 45 -19h156v0
q20 0 34 14l116 116v0q14 14 14 34v284v0q-1 27 -19 45t-45 19h-256v0q-27 -1 -45 -19t-19 -45v-384v0zM304 193q0 -8 -7 -13t-15 -2l-128 48v0q-9 4 -10 15v91v0q-8 -3 -16 -3q-20 0 -34 13q-13 12 -14 31q1 19 14 31q14 13 34 13t34 -13q13 -12 14 -31v-2v-1v-1v-117v0
l96 -36v0v84v0q-8 -3 -16 -3q-20 0 -34 13q-13 12 -14 31q1 19 14 31q14 13 34 13t34 -13q13 -12 14 -31v-2v-1v-1v-144v0zM256 353q-17 -3 -16 -12q-1 -9 16 -12q17 3 16 12q1 9 -16 12v0zM128 385q-17 -3 -16 -12q-1 -9 16 -12q17 3 16 12q1 9 -16 12v0z" />
</svg>
