<?xml version="1.0" standalone="no"?>
<!DOCTYPE svg PUBLIC "-//W3C//DTD SVG 1.1//EN" "http://www.w3.org/Graphics/SVG/1.1/DTD/svg11.dtd" >
<svg xmlns="http://www.w3.org/2000/svg" xmlns:xlink="http://www.w3.org/1999/xlink" version="1.1" viewBox="-10 -40 532 512">
   <path fill="currentColor"
d="M80 -7v51v-51v51q0 10 5 18l27 40v0v36v0q-42 5 -68 29q-27 24 -28 58q0 21 12 39q6 10 5 22q-1 13 -8 22q-24 26 -25 61q1 44 37 74q37 29 91 30q45 -1 78 -21q-8 -15 -12 -31q-25 19 -66 20q-45 -1 -70 -23q-26 -22 -26 -49q0 -21 17 -40q15 -18 16 -41q1 -22 -10 -41
q-7 -11 -7 -22q0 -17 16 -33q17 -17 48 -22v66v0q-30 12 -32 45q1 21 14 34q14 14 34 14t34 -14q13 -13 14 -34q-2 -33 -32 -45v-66v0q31 5 48 22q16 16 16 33q0 11 -7 22q-11 19 -10 41q1 23 17 41v1l1 1q2 -5 4 -9q1 -3 2 -4v-1v0q0 -2 1 -3q5 -11 8 -19q-4 -16 4 -31
q2 -2 4 -5q-2 -7 -6 -19l-1 -2v0v0q-7 -17 -9 -44v-23v0q-27 -27 -72 -33v-36v0l27 -40v0q5 -8 5 -18v-51v0q0 -14 -9 -23t-23 -9h-32v0q-14 0 -23 9t-9 23v0zM144 281q-1 15 -16 16q-15 -1 -16 -16q1 -15 16 -16q15 1 16 16v0zM128 68l-16 -24l16 24l-16 -24v-51v0h32v0v51
v0l-16 24v0zM345 12q5 -18 23 -19h4v0q18 2 20 20q-2 18 -20 20t-20 20v57v0l-17 -19v0q-5 -7 -4 -14l14 -65v0zM311 112l41 47l-41 -47l41 47v42v0h-8v0q-32 -1 -45 -17q-14 -16 -17 -31q-4 -15 -18 -16q-15 1 -16 16v41v0q1 18 8 35t8 36q-2 30 -19 63v0q-18 35 -21 71
q1 32 22 52q20 21 52 22h140v0q32 -1 52 -22q21 -20 22 -52q-3 -36 -21 -71v0v-1q-17 -32 -19 -62q1 -18 8 -34v0v0q7 -16 8 -33v-29v0q-1 -15 -16 -16q-14 2 -19 16q-4 11 -18 21t-43 11h-8v0v-48v0v-89v0q18 -5 29 -18q11 -14 11 -33q-1 -22 -15 -37q-15 -14 -37 -15h-4v0
q-20 0 -35 12t-19 32l-14 65v0q-5 23 11 42v0zM365 233h3h3h21v0q36 -1 60 -16q-1 2 -2 3v2v0q-8 16 -10 43q1 20 8 40q6 19 13 34l2 4v0q17 34 17 56q0 18 -12 30t-30 12h-140v0q-18 0 -30 -12t-12 -30q0 -22 17 -56l2 -4v0v-1q7 -15 14 -34q6 -19 7 -39q-2 -28 -10 -45v-1
v0q-1 -3 -2 -5q23 18 60 19h21v0zM320 313q1 15 16 16h64v0q15 -1 16 -16q-1 -15 -16 -16h-64v0q-15 1 -16 16v0zM320 377q1 15 16 16h64v0q15 -1 16 -16q-1 -15 -16 -16h-64v0q-15 1 -16 16v0z" />
</svg>
