<?xml version="1.0" standalone="no"?>
<!DOCTYPE svg PUBLIC "-//W3C//DTD SVG 1.1//EN" "http://www.w3.org/Graphics/SVG/1.1/DTD/svg11.dtd" >
<svg xmlns="http://www.w3.org/2000/svg" xmlns:xlink="http://www.w3.org/1999/xlink" version="1.1" viewBox="-10 -40 468 512">
   <path fill="currentColor"
d="M416 345v32v-32v32q0 14 -9 23t-23 9h-320v0q-14 0 -23 -9t-9 -23v-32v0h384v0zM105 313h-73h73h-73v-9v0l96 -96v0l41 41v0l-60 61v0l-4 3v0zM151 313l52 -53l-52 53l52 -53l85 -84v0l128 128v0v9v0h-265v0zM416 258l-105 -105l105 105l-105 -105q-10 -9 -23 -9t-23 9
l-73 73v0l-41 -41v0q-10 -9 -23 -9t-23 9l-73 73v0v-201v0q0 -14 9 -23t23 -9h320v0q14 0 23 9t9 23v201v0zM448 297v-240v240v-240q-1 -27 -19 -45t-45 -19h-320v0q-27 1 -45 19t-19 45v240v0v0v0v16v0v16v0v16v0v32v0q1 27 19 45t45 19h320v0q27 -1 45 -19t19 -45v-32v0
v-16v0v-16v0v-16v0v0v0v0zM128 97q-2 -22 -24 -24q-22 2 -24 24q2 22 24 24q22 -2 24 -24v0z" />
</svg>
