<?xml version="1.0" standalone="no"?>
<!DOCTYPE svg PUBLIC "-//W3C//DTD SVG 1.1//EN" "http://www.w3.org/Graphics/SVG/1.1/DTD/svg11.dtd" >
<svg xmlns="http://www.w3.org/2000/svg" xmlns:xlink="http://www.w3.org/1999/xlink" version="1.1" viewBox="-10 -40 532 512">
   <path fill="currentColor"
d="M500 -7q14 -6 11 -20q-5 -14 -19 -11l-433 115v0q-23 7 -39 24q-16 18 -19 42q-1 5 -1 10v1v0v47v0v208v0q1 27 19 45t45 19h384v0q27 -1 45 -19t19 -45v-256v0q-1 -27 -19 -45t-45 -19h-310v0l362 -96v0zM32 154v-6q6 -25 32 -27h384v0q14 0 23 9t9 23v256v0q0 14 -9 23
t-23 9h-384v0q-14 0 -23 -9t-9 -23v-208v0v-47v0zM96 201q-15 1 -16 16q1 15 16 16h96v0q15 -1 16 -16q-1 -15 -16 -16h-96v0zM80 265q-15 1 -16 16q1 15 16 16h128v0q15 -1 16 -16q-1 -15 -16 -16h-128v0zM96 329q-15 1 -16 16q1 15 16 16h96v0q15 -1 16 -16
q-1 -15 -16 -16h-96v0zM352 345q-36 -1 -55 -32q-18 -32 0 -64q19 -31 55 -32q36 1 55 32q18 32 0 64q-19 31 -55 32v0zM256 281q0 26 13 48v0v0q13 22 35 35q23 13 48 13t48 -13q22 -13 35 -35t13 -48t-13 -48t-35 -35q-23 -13 -48 -13t-48 13q-22 13 -35 35t-13 48v0z" />
</svg>
