<?xml version="1.0" standalone="no"?>
<!DOCTYPE svg PUBLIC "-//W3C//DTD SVG 1.1//EN" "http://www.w3.org/Graphics/SVG/1.1/DTD/svg11.dtd" >
<svg xmlns="http://www.w3.org/2000/svg" xmlns:xlink="http://www.w3.org/1999/xlink" version="1.1" viewBox="-10 -40 660 512">
   <path fill="currentColor"
d="M125 22q10 10 24 10q14 -1 24 -11q0 -1 1 -2l2 -2v0v0v0v0v0v0v0v0q17 18 31 43q16 29 17 55q0 20 -8 38h34v0q6 -18 6 -38q-1 -37 -21 -71q-19 -34 -44 -56q-7 -7 -16 -7q-6 0 -10 3q-8 5 -14 12v0v0l-2 4l-16 -16v0l-4 -6q-1 0 -1 -1q-1 0 -1 -1q-10 -13 -25 -15
q-9 0 -16 6q-30 26 -57 64t-29 84q0 20 6 38h34v0q-8 -18 -8 -38q1 -32 24 -66q21 -30 46 -53v1h1l1 2v0v0v0l1 1q2 3 5 6l15 16v0zM135 69q-7 -5 -14 0q-14 9 -36 32t-31 52h34v0q5 -11 16 -25q12 -14 24 -24q12 10 24 24q11 14 16 25h34v0q-9 -29 -31 -52t-36 -32v0z
M522 25q-32 0 -56 23l-245 237v0q-3 4 -9 4q-11 -1 -12 -13v-2v0q0 -5 2 -8l31 -49v0h7v0q15 -1 16 -16q-1 -15 -16 -16h-16h-208q-15 1 -16 16q1 12 13 16l-10 56v0q-3 15 -3 30v8v0q2 69 48 114q46 46 115 48q37 0 69 -16q33 -15 56 -44l235 -286v0q5 -6 12 -6h78v0
q11 0 19 -8t8 -19q0 -12 -8 -20l-26 -26v0q-24 -23 -56 -23h-28v0zM45 217h150h-150h150l-20 32v0q-7 11 -7 25v2v0q0 19 13 32q13 12 32 13q17 0 31 -13l245 -237v0q14 -14 33 -14h28v0q19 0 33 14l18 18v0h-66v0q-22 0 -37 18l-234 286v0q-40 47 -101 48q-56 -1 -93 -38
t-38 -93v-7v0q0 -13 2 -25l11 -61v0zM144 289q-2 -22 -24 -24q-22 2 -24 24q2 22 24 24q22 -2 24 -24v0z" />
</svg>
