<?xml version="1.0" standalone="no"?>
<!DOCTYPE svg PUBLIC "-//W3C//DTD SVG 1.1//EN" "http://www.w3.org/Graphics/SVG/1.1/DTD/svg11.dtd" >
<svg xmlns="http://www.w3.org/2000/svg" xmlns:xlink="http://www.w3.org/1999/xlink" version="1.1" viewBox="-10 -40 404 512">
   <path fill="currentColor"
d="M64 -7q-14 0 -23 9v0v0q-9 9 -9 23v384v0q0 14 9 23t23 9h256v0q14 0 23 -9t9 -23v-384v0q0 -14 -9 -23t-23 -9h-256v0zM0 25q1 -27 19 -45v0v0q18 -18 45 -19h256v0q27 1 45 19t19 45v384v0q-1 27 -19 45t-45 19h-256v0q-27 -1 -45 -19t-19 -45v-384v0zM272 297
q-1 -45 -40 -69q-40 -22 -80 0q-39 24 -40 69q1 45 40 69q40 22 80 0q39 -24 40 -69v0zM80 297q0 -30 15 -56v0v0q15 -26 41 -41t56 -15t56 15t41 41t15 56t-15 56t-41 41t-56 15t-56 -15t-41 -41t-15 -56v0zM168 297q2 -22 24 -24q22 2 24 24q-2 22 -24 24q-22 -2 -24 -24
v0zM224 89q0 -14 -9 -23v0v0q-9 -9 -23 -9t-23 9t-9 23t9 23t23 9t23 -9t9 -23v0zM128 89q1 -36 32 -55q32 -18 64 0q31 19 32 55q-1 36 -32 55q-32 18 -64 0q-31 -19 -32 -55v0z" />
</svg>
