<?xml version="1.0" standalone="no"?>
<!DOCTYPE svg PUBLIC "-//W3C//DTD SVG 1.1//EN" "http://www.w3.org/Graphics/SVG/1.1/DTD/svg11.dtd" >
<svg xmlns="http://www.w3.org/2000/svg" xmlns:xlink="http://www.w3.org/1999/xlink" version="1.1" viewBox="-10 -40 596 512">
   <path fill="currentColor"
d="M512 25q14 0 23 9v0v0q9 9 9 23v320v0q0 14 -9 23t-23 9h-448v0q-14 0 -23 -9t-9 -23v-320v0q0 -14 9 -23t23 -9h448v0zM64 -7q-27 1 -45 19v0v0q-18 18 -19 45v320v0q1 27 19 45t45 19h448v0q27 -1 45 -19t19 -45v-320v0q-1 -27 -19 -45t-45 -19h-448v0zM224 345
q-35 0 -64 -17v0v0q-29 -17 -47 -47q-17 -30 -17 -64t17 -64q18 -30 47 -47t64 -17t64 17t47 47q17 30 17 64t-17 64q-18 30 -47 47t-64 17v0zM64 217q0 43 21 80v0v0q22 37 59 59q38 21 80 21t80 -21q37 -22 59 -59q21 -37 21 -80t-21 -80q-22 -37 -59 -59q-38 -21 -80 -21
t-80 21q-37 22 -59 59q-21 37 -21 80v0zM224 241q22 -2 24 -24q-2 -22 -24 -24q-22 2 -24 24q2 22 24 24v0zM480 258v-185v185v-185q-1 -15 -16 -16q-15 1 -16 16v177v0q-26 2 -39 26l-16 32v0q-8 18 -2 36t24 28q18 8 36 2t28 -24l16 -32v0q7 -16 3 -32q-4 -17 -18 -27v-1z
M452 281q4 0 7 2q13 8 7 21l-16 32v0q-8 13 -21 7q-13 -7 -7 -21l16 -32v0q4 -9 14 -9v0v0z" />
</svg>
