<?xml version="1.0" standalone="no"?>
<!DOCTYPE svg PUBLIC "-//W3C//DTD SVG 1.1//EN" "http://www.w3.org/Graphics/SVG/1.1/DTD/svg11.dtd" >
<svg xmlns="http://www.w3.org/2000/svg" xmlns:xlink="http://www.w3.org/1999/xlink" version="1.1" viewBox="-10 -40 660 512">
   <path fill="currentColor"
d="M64 89q-14 0 -23 9v0v0q-9 9 -9 23v192v0q0 14 9 23t23 9h352v0v-256v0h-352v0zM0 121q1 -27 19 -45v0v0q18 -18 45 -19h352v0q14 0 23 9t9 23v256v0q0 14 -9 23t-23 9h-352v0q-27 -1 -45 -19t-19 -45v-192v0zM480 345v-32v32v-32h128v0v-192v0h-128v0v-32v0h128v0
q14 0 23 9t9 23v192v0q0 14 -9 23t-23 9h-128v0zM576 169q-1 15 -16 16q-15 -1 -16 -16q1 -15 16 -16q15 1 16 16v0zM560 281q-15 -1 -16 -16q1 -15 16 -16q15 1 16 16q-1 15 -16 16v0z" />
</svg>
