<?xml version="1.0" standalone="no"?>
<!DOCTYPE svg PUBLIC "-//W3C//DTD SVG 1.1//EN" "http://www.w3.org/Graphics/SVG/1.1/DTD/svg11.dtd" >
<svg xmlns="http://www.w3.org/2000/svg" xmlns:xlink="http://www.w3.org/1999/xlink" version="1.1" viewBox="-10 -40 650 512">
   <path fill="currentColor"
d="M239 -5q18 -32 57 -34h48v0q39 2 57 34q20 -19 50 -22l115 -8v0q32 0 49 24t6 54l-61 142v0q15 1 16 16v32v0q-1 15 -16 16q-15 -1 -16 -16v-16v0h-8h-440v16v0q-1 15 -16 16q-15 -1 -16 -16v-32v0q1 -14 16 -16l-61 -142v0q-11 -30 6 -54t49 -24l115 8v0q30 3 50 22v0z
M115 185h117h-117h117v-132v0q0 -20 -13 -33q-12 -13 -32 -15l-115 -8v0q-14 0 -21 10q-7 11 -3 24l67 154v0zM408 185h117h-117h117l67 -154v0q4 -13 -3 -24q-7 -10 -21 -10l-115 8v0q-20 2 -32 15q-13 13 -13 33v132v0zM264 53v132v-132v132h112v0v-160v0q0 -14 -9 -23
t-23 -9h-48v0q-14 0 -23 9t-9 23v28v0zM176 473q-48 -1 -79 -33v0v0q-32 -31 -33 -79q1 -48 33 -79q31 -32 79 -33q43 1 74 28q30 26 37 68h66v0q7 -42 37 -68q31 -27 74 -28q48 1 79 33q32 31 33 79q-1 48 -33 79q-31 32 -79 33q-43 -1 -74 -28q-30 -26 -37 -68h-66v0
q-7 42 -37 68q-31 27 -74 28v0zM192 439q24 -5 41 -21v0v0q16 -17 21 -41h-62v0v62v0zM160 439v-62v62v-62h-62v0q5 24 21 41q17 16 41 21v0zM96 361v0v0v0v0v0v0v0zM98 345h62h-62h62v-62v0q-24 5 -41 21q-16 17 -21 41v0zM192 283v62v-62v62h62v0q-5 -24 -21 -41
q-17 -16 -41 -21v0zM542 377h-62h62h-62v62v0q24 -5 41 -21q16 -17 21 -41v0zM448 377h-62h62h-62q5 24 21 41q17 16 41 21v-62v0zM384 361v0v0v0v0v0v0v0zM448 345v-62v62v-62q-24 5 -41 21q-16 17 -21 41h62v0zM480 345h62h-62h62q-5 -24 -21 -41q-17 -16 -41 -21v62v0z
" />
</svg>
