<?xml version="1.0" standalone="no"?>
<!DOCTYPE svg PUBLIC "-//W3C//DTD SVG 1.1//EN" "http://www.w3.org/Graphics/SVG/1.1/DTD/svg11.dtd" >
<svg xmlns="http://www.w3.org/2000/svg" xmlns:xlink="http://www.w3.org/1999/xlink" version="1.1" viewBox="-10 -40 596 512">
   <path fill="currentColor"
d="M64 -7q-14 0 -23 9v0v0q-9 9 -9 23v128v0q0 14 9 23t23 9h448v0q14 0 23 -9t9 -23v-128v0q0 -14 -9 -23t-23 -9h-448v0zM0 25q1 -27 19 -45v0v0q18 -18 45 -19h448v0q27 1 45 19t19 45v128v0q-1 27 -19 45t-45 19h-448v0q-27 -1 -45 -19t-19 -45v-128v0zM112 89h352h-352
h352q15 1 16 16q-1 15 -16 16h-352v0q-15 -1 -16 -16q1 -15 16 -16v0zM256 249v144v-144v144q-1 34 -23 57q-23 22 -57 23q-34 -1 -57 -23q-22 -23 -23 -57q2 -46 40 -69q13 -6 22 6q6 13 -6 21q-23 14 -24 42q1 20 14 34q14 13 34 14q20 -1 34 -14q14 -14 14 -34v-144v0h32
v0zM320 361v-112v112v-112h32v0v112v0q1 20 14 34q14 13 34 14q20 -1 34 -14q13 -14 14 -34q-1 -28 -24 -42q-12 -8 -6 -21q9 -13 22 -6q38 22 40 69q-1 34 -23 57q-23 22 -57 23q-34 -1 -56 -23q-23 -23 -24 -57v0z" />
</svg>
