<?xml version="1.0" standalone="no"?>
<!DOCTYPE svg PUBLIC "-//W3C//DTD SVG 1.1//EN" "http://www.w3.org/Graphics/SVG/1.1/DTD/svg11.dtd" >
<svg xmlns="http://www.w3.org/2000/svg" xmlns:xlink="http://www.w3.org/1999/xlink" version="1.1" viewBox="-10 -40 596 512">
   <path fill="currentColor"
d="M32 -23q-1 -15 -16 -16q-15 1 -16 16v160v0v256v0v64v0q1 15 16 16q15 -1 16 -16v-48v0h208h304v48v0q1 15 16 16q15 -1 16 -16v-64v0v-160v0v-96v0v-64v0q-1 -48 -33 -79q-31 -32 -79 -33h-208v0q-14 0 -23 9t-9 23v128v0h-192v0v-144v0zM224 249v128v-128v128h-192v0
v-224v0h208h304v64v0h-288v0q-14 0 -23 9t-9 23v0zM544 73v48v-48v48h-288v0v-128v0h208v0q34 1 57 23q22 23 23 57v0zM256 249h288h-288h288v128v0h-288v0v-128v0zM128 -7q14 0 23 9v0v0q9 9 9 23t-9 23t-23 9t-23 -9t-9 -23t9 -23t23 -9v0zM128 89q36 -1 55 -32
q18 -32 0 -64q-19 -31 -55 -32q-36 1 -55 32q-18 32 0 64q19 31 55 32v0zM128 249q14 0 23 9v0v0q9 9 9 23t-9 23t-23 9t-23 -9t-9 -23t9 -23t23 -9v0zM128 345q36 -1 55 -32q18 -32 0 -64q-19 -31 -55 -32q-36 1 -55 32q-18 32 0 64q19 31 55 32v0z" />
</svg>
