<?xml version="1.0" standalone="no"?>
<!DOCTYPE svg PUBLIC "-//W3C//DTD SVG 1.1//EN" "http://www.w3.org/Graphics/SVG/1.1/DTD/svg11.dtd" >
<svg xmlns="http://www.w3.org/2000/svg" xmlns:xlink="http://www.w3.org/1999/xlink" version="1.1" viewBox="-10 -40 532 512">
   <path fill="currentColor"
d="M32 -39q-14 0 -23 9v0v0q-9 9 -9 23v32v0q0 14 9 23t23 9h96v0v163v0q-30 12 -32 45q1 20 14 34q14 13 34 14q20 -1 34 -14q13 -14 14 -34q-2 -33 -32 -45v-163v0h320v0q14 0 23 -9t9 -23v-32v0q0 -14 -9 -23t-23 -9h-448v0zM32 -7h448h-448h448v32v0h-448v0v-32v0z
M128 265q1 -15 16 -16q15 1 16 16q-1 15 -16 16q-15 -1 -16 -16v0zM16 121q-15 1 -16 16q1 15 16 16h80v0v-32v0h-80v0zM192 153h304h-304h304q15 -1 16 -16q-1 -15 -16 -16h-304v0v32v0zM0 457q1 15 16 16h480v0q15 -1 16 -16q-1 -15 -16 -16h-480v0q-15 1 -16 16v0z
M16 281q-15 1 -16 16q1 15 16 16h64v0q-11 -14 -14 -32h-50v0zM496 313q15 -1 16 -16q-1 -15 -16 -16h-274v0q-3 18 -14 32h288v0z" />
</svg>
