<?xml version="1.0" standalone="no"?>
<!DOCTYPE svg PUBLIC "-//W3C//DTD SVG 1.1//EN" "http://www.w3.org/Graphics/SVG/1.1/DTD/svg11.dtd" >
<svg xmlns="http://www.w3.org/2000/svg" xmlns:xlink="http://www.w3.org/1999/xlink" version="1.1" viewBox="-10 -40 660 512">
   <path fill="currentColor"
d="M416 25q54 1 91 37v0v0q36 37 37 91v192v0h-64v0v-216v0q0 -17 -12 -28q-11 -12 -28 -12h-80v0q-17 0 -28 12q-12 11 -12 28v216v0h-37v0q-11 -28 -35 -46q-24 -17 -56 -18q-32 1 -56 18q-24 18 -34 46h-22v0q-20 -1 -34 -14q-13 -14 -14 -34v-224v0q1 -20 14 -34
q14 -13 34 -14h336v0zM80 377h16h-16h16q1 41 28 68t68 28q41 -1 68 -28t28 -68h64h272q15 -1 16 -16q-1 -15 -16 -16h-48v0v-192v0q-2 -68 -47 -113t-113 -47h-336v0q-34 1 -57 23q-22 23 -23 57v224v0q1 34 23 57q23 22 57 23v0zM448 185h-32h32h-32q-15 1 -16 16
q1 15 16 16h32v0v128v0h-96v0v-216v0q1 -7 8 -8h80v0q7 1 8 8v56v0zM128 121h128h-128h128v64v0h-128v0v-64v0zM96 121v64v-64v64q0 14 9 23t23 9h128v0q14 0 23 -9t9 -23v-64v0q0 -14 -9 -23t-23 -9h-128v0q-14 0 -23 9t-9 23v0zM192 313q36 1 55 32q18 32 0 64
q-19 31 -55 32q-36 -1 -55 -32q-18 -32 0 -64q19 -31 55 -32v0z" />
</svg>
