<?xml version="1.0" standalone="no"?>
<!DOCTYPE svg PUBLIC "-//W3C//DTD SVG 1.1//EN" "http://www.w3.org/Graphics/SVG/1.1/DTD/svg11.dtd" >
<svg xmlns="http://www.w3.org/2000/svg" xmlns:xlink="http://www.w3.org/1999/xlink" version="1.1" viewBox="-10 -40 330 512">
   <path fill="currentColor"
d="M144 41q-34 1 -57 23v0v0q-22 23 -23 57q-2 22 -24 24q-22 -2 -24 -24q1 -54 37 -91q37 -36 91 -37h32v0q54 1 91 37q36 37 37 91v5v0q0 30 -14 56t-39 43l-53 35v0q-13 10 -14 27v2v0v16v0q-2 22 -24 24q-22 -2 -24 -24v-16v0v-2v0v-158v0q2 -22 24 -24q22 2 24 24v83v0
l40 -26v0q31 -22 32 -60v-5v0q-1 -34 -23 -57q-23 -22 -57 -23h-32v0zM128 409q0 -14 9 -23v0v0q9 -9 23 -9t23 9t9 23t-9 23t-23 9t-23 -9t-9 -23v0z" />
</svg>
