<?xml version="1.0" standalone="no"?>
<!DOCTYPE svg PUBLIC "-//W3C//DTD SVG 1.1//EN" "http://www.w3.org/Graphics/SVG/1.1/DTD/svg11.dtd" >
<svg xmlns="http://www.w3.org/2000/svg" xmlns:xlink="http://www.w3.org/1999/xlink" version="1.1" viewBox="-10 -40 404 512">
   <path fill="currentColor"
d="M0 17q2 -22 24 -24h336v0q22 2 24 24q-2 22 -24 24h-336v0q-22 -2 -24 -24v0zM0 145q2 -22 24 -24h168h168q22 2 24 24q-2 22 -24 24h-144v0v248v0q-2 22 -24 24q-22 -2 -24 -24v-248v0h-144v0q-22 -2 -24 -24v0z" />
</svg>
