<?xml version="1.0" standalone="no"?>
<!DOCTYPE svg PUBLIC "-//W3C//DTD SVG 1.1//EN" "http://www.w3.org/Graphics/SVG/1.1/DTD/svg11.dtd" >
<svg xmlns="http://www.w3.org/2000/svg" xmlns:xlink="http://www.w3.org/1999/xlink" version="1.1" viewBox="-10 -40 468 512">
   <path fill="currentColor"
d="M8 200q-8 7 -8 17t8 18l136 128v0q17 13 34 -1q13 -18 -1 -34l-92 -87v0h83h128q22 -2 24 -24q-2 -22 -24 -24h-128h-83l91 -86v0q15 -17 1 -34q-16 -15 -33 -1l-136 128v0zM400 385q2 22 24 24q22 -2 24 -24v-336v0q-2 -22 -24 -24q-22 2 -24 24v336v0z" />
</svg>
