<?xml version="1.0" standalone="no"?>
<!DOCTYPE svg PUBLIC "-//W3C//DTD SVG 1.1//EN" "http://www.w3.org/Graphics/SVG/1.1/DTD/svg11.dtd" >
<svg xmlns="http://www.w3.org/2000/svg" xmlns:xlink="http://www.w3.org/1999/xlink" version="1.1" viewBox="-10 -40 660 512">
   <path fill="currentColor"
d="M47 199v0v0v0v0v0v0v0l1 -1v0v-2t1 -3q2 -6 6 -17q7 -22 24 -51q16 -29 41 -48q24 -19 56 -20q48 1 74 46q27 49 47 121l1 2v0v1q10 34 22 67q12 34 29 62q18 30 46 49t69 20q51 -2 86 -30q34 -28 53 -62t28 -59q4 -12 6 -19q0 -1 1 -2q0 -2 1 -4v-1v-1v0v0v0v0v0v0v0v0
q1 0 -3 -1q-3 -1 -20 -5l23 6v0q4 -22 -17 -29q-22 -4 -29 17v0v0v0v0v0v0l-1 1v0v2q-1 1 -1 3q-2 6 -6 17q-7 22 -24 51t-41 48t-56 20q-48 -1 -74 -46q-28 -49 -47 -121l-1 -2v0q-10 -34 -22 -68t-29 -62q-18 -30 -46 -49t-69 -20q-51 2 -86 30q-34 28 -53 62t-28 59
q-4 12 -6 19q0 1 -1 2q0 2 -1 4v1v1v0v0v0v0v0v0v0v0q-1 0 3 1q3 1 20 5l-23 -6v0q-4 22 17 29q22 4 29 -17v0z" />
</svg>
