<?xml version="1.0" standalone="no"?>
<!DOCTYPE svg PUBLIC "-//W3C//DTD SVG 1.1//EN" "http://www.w3.org/Graphics/SVG/1.1/DTD/svg11.dtd" >
<svg xmlns="http://www.w3.org/2000/svg" xmlns:xlink="http://www.w3.org/1999/xlink" version="1.1" viewBox="-10 -40 404 512">
   <path fill="currentColor"
d="M112 -39q-20 1 -34 14v0v0q-13 14 -14 34v64v0h1v0q-30 27 -47 64q-18 37 -18 80t18 80q17 37 47 64h-1v0v64v0q1 20 14 34q14 13 34 14h160v0q20 -1 34 -14q13 -14 14 -34v-64v0h-1v0q30 -27 47 -64q18 -37 18 -80t-18 -80q-17 -37 -47 -64h1v0v-64v0q-1 -20 -14 -34
q-14 -13 -34 -14h-160v0zM48 217q0 -39 19 -72v0v0q19 -33 53 -53q34 -19 72 -19t72 19q34 20 53 53t19 72t-19 72t-53 53q-34 19 -72 19t-72 -19q-34 -20 -53 -53t-19 -72v0zM216 137q-2 -22 -24 -24q-22 2 -24 24v80v0q0 13 11 20l48 32v0q19 11 33 -7q11 -19 -7 -33
l-37 -25v0v-67v0z" />
</svg>
