<?xml version="1.0" standalone="no"?>
<!DOCTYPE svg PUBLIC "-//W3C//DTD SVG 1.1//EN" "http://www.w3.org/Graphics/SVG/1.1/DTD/svg11.dtd" >
<svg xmlns="http://www.w3.org/2000/svg" xmlns:xlink="http://www.w3.org/1999/xlink" version="1.1" viewBox="-10 -40 404 512">
   <path fill="currentColor"
d="M145 60q-33 52 -33 117q1 75 42 131q41 57 108 81q-19 4 -39 4q-74 -2 -124 -52q-49 -49 -51 -124q1 -52 27 -94q26 -41 70 -63v0zM207 -6q-89 8 -147 70v0v0q-58 62 -60 153q1 63 31 113q29 51 80 80q50 30 113 31q72 -1 128 -41q2 -1 3 -2l2 -2q8 -5 14 -11q4 -4 8 -7
q8 -9 3 -19t-17 -8q-5 0 -11 1q-7 1 -15 1h-4v0q-75 -2 -124 -52q-49 -49 -51 -124q0 -41 17 -76t47 -60l2 -2h1q6 -5 12 -9q5 -4 10 -6q10 -6 8 -18q-3 -10 -15 -12q-5 -1 -10 -1h-8v0h-10v0q-4 1 -7 1v0z" />
</svg>
