<?xml version="1.0" standalone="no"?>
<!DOCTYPE svg PUBLIC "-//W3C//DTD SVG 1.1//EN" "http://www.w3.org/Graphics/SVG/1.1/DTD/svg11.dtd" >
<svg xmlns="http://www.w3.org/2000/svg" xmlns:xlink="http://www.w3.org/1999/xlink" version="1.1" viewBox="-10 -40 532 512">
   <path fill="currentColor"
d="M88 -39q22 2 24 24q0 12 6 20t18 18l1 1v0q13 10 25 27q13 17 14 46q-2 22 -24 24q-22 -2 -24 -24q0 -12 -6 -20t-18 -18l-1 -1v0q-13 -10 -25 -27q-13 -17 -14 -46q2 -22 24 -24v0zM48 377q1 20 14 34v0v0q14 13 34 14h192v0q20 -1 34 -14q13 -14 14 -34v-176v0h-288v0
v176v0zM0 185q0 -14 9 -23v0v0q9 -9 23 -9h320h48q48 1 79 33q32 31 33 79q-1 48 -33 79q-31 32 -79 33h-16v0q-1 41 -28 68t-68 28h-192v0q-41 -1 -68 -28t-28 -68v-192v0zM384 329h16h-16h16q27 -1 45 -19t19 -45q-1 -27 -19 -45t-45 -19h-16v0v128v0zM224 -15q0 12 6 20
v0v0q6 8 18 18l1 1v0q13 10 25 27q13 17 14 46q-2 22 -24 24q-22 -2 -24 -24q0 -12 -6 -20t-18 -18l-1 -1v0q-13 -10 -25 -27q-13 -17 -14 -46q2 -22 24 -24q22 2 24 24v0z" />
</svg>
