<?xml version="1.0" standalone="no"?>
<!DOCTYPE svg PUBLIC "-//W3C//DTD SVG 1.1//EN" "http://www.w3.org/Graphics/SVG/1.1/DTD/svg11.dtd" >
<svg xmlns="http://www.w3.org/2000/svg" xmlns:xlink="http://www.w3.org/1999/xlink" version="1.1" viewBox="-10 -40 532 512">
   <path fill="currentColor"
d="M232 -14l1 8l-1 -8l1 8q-68 8 -118 49l-6 -6v0q-17 -15 -34 -1q-14 17 1 34l6 6v0q-41 50 -49 118l-8 -1v0q-23 2 -25 24q2 22 25 24l8 -1v0q8 68 49 118l-6 6v0q-15 17 -1 34q17 14 34 -1l6 -6v0q50 41 118 49l-1 8v0q2 23 24 25q22 -2 24 -25l-1 -8v0q68 -8 118 -49
l6 6v0q16 15 34 1q14 -17 -1 -34l-6 -6v0q41 -50 49 -118l8 1v0q23 -2 25 -24q-2 -22 -25 -24l-8 1v0q-8 -68 -49 -118l6 -6v0q15 -17 1 -34q-18 -14 -34 1l-6 6v0q-50 -41 -118 -49l1 -8v0q-2 -23 -24 -25q-22 2 -24 25v0zM147 355l55 -59l-55 59l55 -59q16 11 37 15l-4 81
v0q-50 -7 -88 -37v0zM177 271l-59 55l59 -55l-59 55q-30 -38 -37 -88l81 -4v0q3 21 15 38v-1zM81 196q7 -50 37 -88l59 54v0q-12 17 -15 38l-81 -4v0zM202 138l-55 -60l55 60l-55 -60q38 -29 88 -36l4 81v0q-21 3 -37 15v0zM310 138q-16 -12 -37 -15l4 -81v0q50 7 88 37
l-55 59v0zM365 355q-38 30 -88 37l-4 -81v0q21 -3 37 -15l55 59v0zM394 326l-59 -55l59 55l-59 -55q11 -16 15 -37l81 4v0q-7 50 -37 88v0zM394 108q30 38 37 88l-81 4v0q-3 -21 -15 -38l59 -54v0zM208 217q1 -27 24 -42q24 -12 48 0q23 15 24 42q-1 27 -24 42q-24 12 -48 0
q-23 -15 -24 -42v0z" />
</svg>
