<?xml version="1.0" standalone="no"?>
<!DOCTYPE svg PUBLIC "-//W3C//DTD SVG 1.1//EN" "http://www.w3.org/Graphics/SVG/1.1/DTD/svg11.dtd" >
<svg xmlns="http://www.w3.org/2000/svg" xmlns:xlink="http://www.w3.org/1999/xlink" version="1.1" viewBox="-10 -40 340 512">
   <path fill="currentColor"
d="M104 -39q-22 2 -24 24q1 18 18 23q-12 12 -24 27q-28 32 -50 77q-23 46 -24 100q1 33 15 55q15 21 33 33v13v0h48v0v-27v0q0 -14 -13 -21q-14 -7 -24 -20q-10 -12 -11 -33q1 -42 19 -79t43 -67q25 -29 45 -45q1 -2 3 -3l2 -2q1 1 3 2q1 1 2 3q19 16 44 45l16 20l-66 66v0
q-14 17 0 34q17 14 34 0l58 -58v0q20 39 21 84q-1 21 -11 33q-10 13 -24 20q-13 7 -13 21v27v0h48v0v-13v0q18 -12 33 -33q14 -22 15 -55q-1 -54 -24 -100q-22 -45 -50 -77q-12 -15 -24 -27q17 -5 18 -23q-2 -22 -24 -24h-56h-56zM53 425l16 -32l-16 32l16 -32h182v0l16 32
v0h-214v0zM261 345h-201h201h-201q-20 1 -29 17l-26 52v0q-5 8 -5 18q0 18 12 29q11 12 29 12h238v0q18 0 29 -12q12 -11 12 -29q0 -10 -5 -18l-26 -52v0q-10 -16 -28 -17v0z" />
</svg>
