<?xml version="1.0" standalone="no"?>
<!DOCTYPE svg PUBLIC "-//W3C//DTD SVG 1.1//EN" "http://www.w3.org/Graphics/SVG/1.1/DTD/svg11.dtd" >
<svg xmlns="http://www.w3.org/2000/svg" xmlns:xlink="http://www.w3.org/1999/xlink" version="1.1" viewBox="-10 -40 532 512">
   <path fill="currentColor"
d="M182 2q26 -40 74 -41q48 1 75 41l62 98v0l6 -32v0q7 -21 29 -18q21 6 18 28l-19 94v0q-2 11 -11 16q-10 5 -20 2l-91 -30v0q-21 -9 -16 -31q9 -20 31 -15l32 11v0l-62 -97v0q-12 -18 -34 -19q-22 1 -34 19l-21 34v0q-14 17 -33 7q-18 -13 -8 -33l22 -34v0zM439 217
q19 -10 33 7l26 42v0q14 22 14 47q-1 37 -25 62q-25 25 -63 26h-137v0l25 22v0q15 16 2 34q-16 15 -34 2l-72 -64v0q-8 -7 -8 -18t8 -18l72 -64v0q18 -13 34 2q13 18 -2 34l-25 22v0h137v0q17 0 29 -12q11 -11 11 -28q0 -11 -6 -21l-27 -42v0q-10 -20 8 -33v0zM127 220
l-6 -33l6 33l-6 -33l-67 105v0q-6 10 -6 21q0 17 12 28q11 12 28 12h48v0q22 2 24 24q-2 22 -24 24h-48v0q-38 -1 -63 -26q-24 -25 -25 -62q0 -25 14 -46l65 -103v0l-31 10v0q-22 5 -31 -15q-5 -22 16 -30l91 -31v0q10 -3 20 2q9 6 11 16l19 95v0q3 21 -18 28q-22 2 -29 -19
v0z" />
</svg>
