<?xml version="1.0" standalone="no"?>
<!DOCTYPE svg PUBLIC "-//W3C//DTD SVG 1.1//EN" "http://www.w3.org/Graphics/SVG/1.1/DTD/svg11.dtd" >
<svg xmlns="http://www.w3.org/2000/svg" xmlns:xlink="http://www.w3.org/1999/xlink" version="1.1" viewBox="-10 -40 659 512">
   <path fill="currentColor"
d="M520 9h-127h127h-127q-9 -22 -29 -35q-19 -13 -44 -13t-44 13q-20 13 -29 35h-127v0q-22 2 -24 24q2 22 24 24h122v0q11 45 54 60v308v0h-176v0q-22 2 -24 24q2 22 24 24h200h200q22 -2 24 -24q-2 -22 -24 -24h-176v0v-308v0q43 -15 54 -60h122v0q22 -2 24 -24
q-2 -22 -24 -24v0zM512 157l72 124l-72 -124l72 124h-144v0l72 -124v0zM386 298q9 34 43 56v0v0q35 22 83 23q48 -1 83 -23q34 -22 43 -56q3 -17 -7 -32l-95 -163v0q-8 -14 -24 -14q-16 1 -24 14l-95 163v0q-10 15 -7 32v0zM54 281l73 -124l-73 124l73 -124l72 124v0h-145v0
zM127 377q48 -1 82 -23v0v0q35 -22 44 -56q3 -17 -7 -32l-95 -163v0q-8 -14 -24 -14q-16 1 -24 14l-95 163v0q-10 15 -7 32q9 35 43 56q35 22 83 23v0zM320 9q14 0 23 9v0v0q9 9 9 23t-9 23t-23 9t-23 -9t-9 -23t9 -23t23 -9v0z" />
</svg>
