<?xml version="1.0" standalone="no"?>
<!DOCTYPE svg PUBLIC "-//W3C//DTD SVG 1.1//EN" "http://www.w3.org/Graphics/SVG/1.1/DTD/svg11.dtd" >
<svg xmlns="http://www.w3.org/2000/svg" xmlns:xlink="http://www.w3.org/1999/xlink" version="1.1" viewBox="-10 -40 532 512">
   <path fill="currentColor"
d="M112 49q1 -37 26 -62v0v0q25 -25 62 -26q33 1 56 20q23 -19 56 -20q37 1 62 26t26 62q-1 33 -20 56q19 23 20 56q-1 37 -26 62t-62 26q-17 0 -32 -6v91v0q31 -39 77 -62q45 -23 99 -23h28v0q12 0 20 8t8 20q-2 83 -57 139q-56 55 -139 57h-36h-84q-83 -2 -139 -57
q-55 -56 -57 -139q0 -12 8 -20t20 -8h28v0q54 0 99 23q46 23 77 62v-91v0q-15 6 -32 6q-37 -1 -62 -26t-26 -62q1 -33 20 -56q-19 -23 -20 -56v0zM200 9q-17 0 -28 12v0v0q-12 11 -12 28q1 24 21 35q12 7 12 21t-12 21q-20 11 -21 35q0 17 12 28q11 12 28 12q24 -1 35 -21
q7 -12 21 -12t21 12q11 20 35 21q17 0 28 -12q12 -11 12 -28q-1 -24 -21 -35q-12 -7 -12 -21t12 -21q20 -11 21 -35q0 -17 -12 -28q-11 -12 -28 -12q-24 1 -35 21q-7 12 -21 12t-21 -12q-11 -20 -35 -21v0zM49 297q9 55 49 91v0v0q41 36 98 37h29v0q-16 -56 -62 -92
q-45 -35 -107 -36h-7v0zM463 297h-7h7h-7q-62 1 -107 36q-46 36 -62 92h29v0q57 -1 98 -37q40 -36 49 -91v0zM256 73q14 0 23 9v0v0q9 9 9 23t-9 23t-23 9t-23 -9t-9 -23t9 -23t23 -9v0z" />
</svg>
