<?xml version="1.0" standalone="no"?>
<!DOCTYPE svg PUBLIC "-//W3C//DTD SVG 1.1//EN" "http://www.w3.org/Graphics/SVG/1.1/DTD/svg11.dtd" >
<svg xmlns="http://www.w3.org/2000/svg" xmlns:xlink="http://www.w3.org/1999/xlink" version="1.1" viewBox="-10 -40 532 512">
   <path fill="currentColor"
d="M352 -15q2 -22 24 -24h112v0q22 2 24 24v112v0q-2 22 -24 24q-22 -2 -24 -24v-54v0l-54 54v0l31 31v0q14 17 0 34q-17 14 -34 0l-31 -31v0l-28 28v0q35 45 36 106q-2 75 -52 124q-49 50 -124 52q-75 -2 -124 -52q-50 -49 -52 -124q2 -75 52 -124q49 -50 124 -52
q61 1 106 36l28 -28v0l-31 -31v0q-14 -17 0 -34q17 -14 34 0l31 31v0l54 -54v0h-54v0q-22 -2 -24 -24v0zM208 393q35 0 64 -17v0v0q29 -17 47 -47q17 -30 17 -64t-17 -64q-18 -30 -47 -47t-64 -17t-64 17t-47 47q-17 30 -17 64t17 64q18 30 47 47t64 17v0z" />
</svg>
