<?xml version="1.0" standalone="no"?>
<!DOCTYPE svg PUBLIC "-//W3C//DTD SVG 1.1//EN" "http://www.w3.org/Graphics/SVG/1.1/DTD/svg11.dtd" >
<svg xmlns="http://www.w3.org/2000/svg" xmlns:xlink="http://www.w3.org/1999/xlink" version="1.1" viewBox="-10 -40 532 512">
   <path fill="currentColor"
d="M248 425q0 -9 1 -18q4 -22 26 -22q21 4 22 26q-1 5 -1 10q63 -13 107 -57t57 -107q-5 0 -10 1q-22 -1 -26 -22q0 -22 22 -26q9 -1 18 -1q-5 -83 -61 -139t-139 -61q0 9 -1 18q-4 22 -26 22q-21 -4 -21 -26v-10q-63 13 -107 57t-57 107h10q22 0 26 21q0 22 -22 26
q-9 1 -18 1q5 83 61 139t139 61v0zM0 217q1 -70 34 -128v0v0q34 -58 94 -94q61 -34 128 -34t128 34q60 36 94 94q33 58 34 128q-1 70 -34 128q-34 58 -94 94q-61 34 -128 34t-128 -34q-60 -36 -94 -94q-33 -58 -34 -128v0zM118 162q56 -27 83 -83q11 -19 32 -12q19 11 11 32
q-34 72 -106 106q-21 8 -32 -11q-7 -21 12 -32v0zM394 272q-56 27 -83 83q-11 19 -32 12q-19 -11 -11 -32q34 -72 106 -106q21 -8 32 11q7 21 -12 32v0z" />
</svg>
