<?xml version="1.0" standalone="no"?>
<!DOCTYPE svg PUBLIC "-//W3C//DTD SVG 1.1//EN" "http://www.w3.org/Graphics/SVG/1.1/DTD/svg11.dtd" >
<svg xmlns="http://www.w3.org/2000/svg" xmlns:xlink="http://www.w3.org/1999/xlink" version="1.1" viewBox="-10 -40 532 512">
   <path fill="currentColor"
d="M48 73q1 15 16 16h384v0q15 -1 16 -16v-47v0h-2v0q-37 15 -77 15h-258v0q-40 0 -77 -15h-2v0v47v0zM0 73v-99v99v-99q1 -12 13 -13q3 0 5 1l49 20v0q29 11 60 11h258v0q31 0 60 -11l49 -20v0q2 -1 5 -1q12 1 13 13v99v0q-1 27 -19 45t-45 19v64v0h40v0q22 2 24 24
q-2 22 -24 24h-40v0v200v0q-2 22 -24 24q-22 -2 -24 -24v-200v0h-144h-144v200v0q-2 22 -24 24q-22 -2 -24 -24v-200v0h-40v0q-22 -2 -24 -24q2 -22 24 -24h40v0v-64v0q-27 -1 -45 -19t-19 -45v0zM112 201h120h-120h120v-64v0h-120v0v64v0zM280 137v64v-64v64h120v0v-64v0
h-120v0z" />
</svg>
