<?xml version="1.0" standalone="no"?>
<!DOCTYPE svg PUBLIC "-//W3C//DTD SVG 1.1//EN" "http://www.w3.org/Graphics/SVG/1.1/DTD/svg11.dtd" >
<svg xmlns="http://www.w3.org/2000/svg" xmlns:xlink="http://www.w3.org/1999/xlink" version="1.1" viewBox="-10 -40 532 512">
   <path fill="currentColor"
d="M381 9q1 -27 24 -42q24 -12 48 0q23 15 24 42q-1 27 -24 42q-24 12 -48 0q-23 -15 -24 -42v0zM3 230q12 -19 32 -10l205 106v0l49 -74v0l-82 -88v0q-14 -16 -15 -35l87 42v0l50 52v0q19 24 4 50l-50 75v0l136 71v0q21 10 43 0l15 -8v0q21 -8 33 11q7 21 -11 32l-15 8v0
q-44 20 -88 -1l-383 -199v0q-19 -12 -10 -32v0zM119 27l18 8l-18 -8l18 8l9 -17v0q8 -13 21 -7q13 7 7 21l-8 17v0l55 27v0q3 -2 6 -3l81 -32v0q25 -9 47 2q22 12 28 38l13 60v0l62 30v0q19 11 12 32q-11 19 -32 12l-54 -26v0q-2 -1 -3 -1l-229 -110v0l-10 18v0q-7 12 -21 7
q-12 -8 -7 -21l9 -18v0l-18 -9v0q-12 -7 -7 -21q7 -13 21 -7v0zM336 91q-2 -8 -11 -6l-45 19v0l65 31v0l-9 -44v0z" />
</svg>
