<?xml version="1.0" standalone="no"?>
<!DOCTYPE svg PUBLIC "-//W3C//DTD SVG 1.1//EN" "http://www.w3.org/Graphics/SVG/1.1/DTD/svg11.dtd" >
<svg xmlns="http://www.w3.org/2000/svg" xmlns:xlink="http://www.w3.org/1999/xlink" version="1.1" viewBox="-10 -40 522 512">
   <path fill="currentColor"
d="M256 -39q-40 2 -58 36q-10 -4 -22 -4q-27 1 -45 19t-19 45v166v0l-3 -3v0q-19 -19 -45 -19q-25 0 -45 19q-19 20 -19 45q0 26 19 45l88 88v0q36 36 83 56q46 19 98 19h8h8h2h3q70 -7 117 -54q48 -47 54 -117v-3v-2v-176v0q-1 -27 -19 -45t-45 -19q-8 0 -16 2v-2v0
q-1 -27 -19 -45t-45 -19q-12 0 -22 4q-18 -34 -58 -36v0zM240 57v0v0v0v0v-32v0q1 -15 16 -16q15 1 16 16v32v0v0v0v136v0q2 22 24 24q22 -2 24 -24v-136v0v0v0q1 -15 16 -16q15 1 16 16v56v0v0v0v80v0q2 22 24 24q22 -2 24 -24v-72v0v0v0q1 -15 16 -16q15 1 16 16v173v0v1
v1q-4 53 -40 89t-89 40h-2h-5h-8q-86 -1 -148 -61l-87 -88v0q-10 -11 0 -22q11 -10 22 0l44 43v0q12 11 26 6q14 -7 15 -23v-223v0q1 -15 16 -16q15 1 16 16v136v0q2 22 24 24q22 -2 24 -24v-136v0z" />
</svg>
