<?xml version="1.0" standalone="no"?>
<!DOCTYPE svg PUBLIC "-//W3C//DTD SVG 1.1//EN" "http://www.w3.org/Graphics/SVG/1.1/DTD/svg11.dtd" >
<svg xmlns="http://www.w3.org/2000/svg" xmlns:xlink="http://www.w3.org/1999/xlink" version="1.1" viewBox="-10 -40 522 512">
   <path fill="currentColor"
d="M251 -38q-27 -2 -47 14v0v0q-20 16 -23 43l-7 61v0l-17 -49v0q-10 -26 -33 -37t-49 -2q-25 9 -36 32t-3 49l53 150v0q-24 23 -25 58v0v0v24v0q2 71 49 119q48 47 119 49h48v0q71 -2 119 -49q47 -48 49 -119v-72v0v-16v0v-32v0q-1 -27 -19 -45t-45 -19q-12 0 -22 4
q-18 -34 -58 -36h-1h-1l6 -56v0q2 -27 -14 -47t-43 -24v0zM251 118q-11 15 -11 35v48v0v1v1q-8 -2 -16 -2h-7v0l-6 -15v0l17 -162v0q3 -14 18 -14q14 3 14 18l-9 90v0zM111 47l55 154l-55 -154l55 154h-22v0q-6 0 -12 1l-51 -145v0q-3 -14 10 -20q14 -4 20 10v0zM288 153
q1 -15 16 -16q15 1 16 16v32v0v16v0q-1 15 -16 16q-15 -1 -16 -16v-48v0zM326 261q18 34 58 36q8 0 16 -2v10v0q-1 51 -35 85t-85 35h-48v0q-51 -1 -85 -35t-35 -85v-24v0v0v0q0 -14 9 -23t23 -9h80v0q15 1 16 16q-1 15 -16 16h-40v0q-22 2 -24 24q2 22 24 24h40v0
q27 -1 45 -19t19 -45v-1v-1q8 2 16 2q12 0 22 -4v0zM400 233q-1 15 -16 16q-15 -1 -16 -16v-32v0v-16v0q1 -15 16 -16q15 1 16 16v32v0v16v0z" />
</svg>
