<?xml version="1.0" standalone="no"?>
<!DOCTYPE svg PUBLIC "-//W3C//DTD SVG 1.1//EN" "http://www.w3.org/Graphics/SVG/1.1/DTD/svg11.dtd" >
<svg xmlns="http://www.w3.org/2000/svg" xmlns:xlink="http://www.w3.org/1999/xlink" version="1.1" viewBox="-10 -40 530 512">
   <path fill="currentColor"
d="M368 -21q18 -16 40 -16v0v0q22 0 40 16l46 46v0q16 18 16 40t-16 40l-71 71v0l-11 10v0l-40 149v0q-9 28 -36 38l-264 93v0q-30 9 -53 -12q-21 -23 -12 -53l93 -264v0q10 -27 38 -36l149 -40v0l10 -11v0l71 -71v0zM297 108l-146 40l146 -40l-146 40q-4 1 -6 5l-82 235v0
l102 -102v0q-5 -10 -5 -21q1 -20 14 -34q14 -13 34 -14q20 1 34 14q13 14 14 34q-1 20 -14 34q-14 13 -34 14q-11 0 -21 -5l-102 103v0l235 -83v0q4 -2 5 -5l40 -147v0l-68 -68v0z" />
</svg>
