<?xml version="1.0" standalone="no"?>
<!DOCTYPE svg PUBLIC "-//W3C//DTD SVG 1.1//EN" "http://www.w3.org/Graphics/SVG/1.1/DTD/svg11.dtd" >
<svg xmlns="http://www.w3.org/2000/svg" xmlns:xlink="http://www.w3.org/1999/xlink" version="1.1" viewBox="-10 -40 394 512">
   <path fill="currentColor"
d="M176 -32q16 -14 33 0l129 121v0q14 14 14 34q0 19 -13 32q-14 13 -33 14h-42v0v144v0q-2 68 -47 113t-113 47h-48v0q-24 -1 -40 -16q-15 -16 -16 -40v-32v0q1 -24 16 -40q16 -15 40 -16h56v0q7 -1 8 -8v-152v0h-42v0q-19 0 -32 -14q-14 -13 -14 -32q0 -20 15 -34
l129 -121v0zM83 121h61h-61h61q22 2 24 24v176v0q-1 24 -16 40q-16 15 -40 16h-56v0q-7 1 -8 8v32v0q1 7 8 8h48v0q48 -1 79 -33q32 -31 33 -79v-168v0q2 -22 24 -24h62v0l-110 -103v0l-109 103v0z" />
</svg>
