<?xml version="1.0" standalone="no"?>
<!DOCTYPE svg PUBLIC "-//W3C//DTD SVG 1.1//EN" "http://www.w3.org/Graphics/SVG/1.1/DTD/svg11.dtd" >
<svg xmlns="http://www.w3.org/2000/svg" xmlns:xlink="http://www.w3.org/1999/xlink" version="1.1" viewBox="-10 -40 468 512">
   <path fill="currentColor"
d="M224 361q48 0 88 -24v0v0q40 -23 64 -64q24 -42 24 -88t-24 -88q-24 -41 -64 -64q-40 -24 -88 -24t-88 24q-40 23 -64 64q-24 42 -24 88t24 88q24 41 64 64q40 24 88 24v0zM448 185q-2 89 -58 150v0v0q-56 62 -142 73v17v0h112v0q22 2 24 24q-2 22 -24 24h-136h-136
q-22 -2 -24 -24q2 -22 24 -24h112v0v-17v0q-86 -11 -142 -73q-56 -61 -58 -150q1 -63 31 -113q29 -51 80 -80q50 -30 113 -31q63 1 113 31q51 29 80 80q30 50 31 113v0zM118 159q-12 -32 1 -62v0v0q12 -29 44 -42q21 -7 31 13l29 72v0q13 -18 33 -27t44 -6q33 5 52 31
q20 25 16 59q-5 22 -27 21l-77 -11v0q9 20 6 42q-2 22 -16 41q-22 26 -53 30q-32 4 -59 -16q-16 -16 -5 -34l48 -62v0q-22 -2 -40 -15t-27 -34v0zM224 201q15 -1 16 -16q-1 -15 -16 -16q-15 1 -16 16q1 15 16 16v0z" />
</svg>
