<?xml version="1.0" standalone="no"?>
<!DOCTYPE svg PUBLIC "-//W3C//DTD SVG 1.1//EN" "http://www.w3.org/Graphics/SVG/1.1/DTD/svg11.dtd" >
<svg xmlns="http://www.w3.org/2000/svg" xmlns:xlink="http://www.w3.org/1999/xlink" version="1.1" viewBox="-10 -40 468 512">
   <path fill="currentColor"
d="M176 -7q22 2 24 24v88v0q0 56 34 101l19 25v0q42 58 43 130v56v0q-2 22 -24 24q-22 -2 -24 -24v-56v0q0 -56 -34 -101l-19 -25v0q-42 -58 -43 -130v-88v0q2 -22 24 -24v0zM24 57q22 2 24 24v38v0q0 51 28 93l32 47v0q36 55 36 120v38v0q-2 22 -24 24q-22 -2 -24 -24v-38
v0q0 -51 -28 -93l-32 -47v0q-36 -55 -36 -120v-38v0q2 -22 24 -24v0zM352 81v38v-38v38q0 51 28 93l32 47v0q36 55 36 120v38v0q-2 22 -24 24q-22 -2 -24 -24v-38v0q0 -51 -28 -93l-32 -47v0q-36 -55 -36 -120v-38v0q2 -22 24 -24q22 2 24 24v0z" />
</svg>
