<?xml version="1.0" standalone="no"?>
<!DOCTYPE svg PUBLIC "-//W3C//DTD SVG 1.1//EN" "http://www.w3.org/Graphics/SVG/1.1/DTD/svg11.dtd" >
<svg xmlns="http://www.w3.org/2000/svg" xmlns:xlink="http://www.w3.org/1999/xlink" version="1.1" viewBox="-10 -40 531 512">
   <path fill="currentColor"
d="M280 -15q-2 -22 -24 -24q-22 2 -24 24v137v0q-91 10 -154 71t-76 152q-1 14 8 23q8 9 22 9h448v0q14 0 22 -9q9 -9 8 -23q-13 -91 -76 -152t-154 -71v-137v0zM458 329h-404h404h-404q17 -70 72 -114q55 -45 130 -46q75 1 130 46q55 44 72 114v0zM256 473q27 -1 45 -19v0
v0q18 -18 19 -45h-128v0q1 27 19 45t45 19v0z" />
</svg>
