<?xml version="1.0" standalone="no"?>
<!DOCTYPE svg PUBLIC "-//W3C//DTD SVG 1.1//EN" "http://www.w3.org/Graphics/SVG/1.1/DTD/svg11.dtd" >
<svg xmlns="http://www.w3.org/2000/svg" xmlns:xlink="http://www.w3.org/1999/xlink" version="1.1" viewBox="-10 -40 468 512">
   <path fill="currentColor"
d="M352 9q20 1 34 14v0v0q13 14 14 34v64v0h-352v0v-64v0q1 -20 14 -34q14 -13 34 -14h256v0zM400 169v240v-240v240q-1 15 -16 16h-320v0q-15 -1 -16 -16v-240v0h352v0zM96 -39q-41 1 -68 28v0v0q-27 27 -28 68v352v0q1 27 19 45t45 19h320v0q27 -1 45 -19t19 -45v-352v0
q-1 -41 -28 -68t-68 -28h-256v0zM128 65q-2 -22 -24 -24q-22 2 -24 24q2 22 24 24q22 -2 24 -24v0zM184 89q22 -2 24 -24q-2 -22 -24 -24q-22 2 -24 24q2 22 24 24v0zM288 65q-2 -22 -24 -24q-22 2 -24 24q2 22 24 24q22 -2 24 -24v0zM344 89q22 -2 24 -24q-2 -22 -24 -24
q-22 2 -24 24q2 22 24 24v0zM112 201q-14 0 -23 9v0v0q-9 9 -9 23v128v0q0 14 9 23t23 9h224v0q14 0 23 -9t9 -23v-128v0q0 -14 -9 -23t-23 -9h-224v0zM144 249h160h-160h160q15 1 16 16q-1 15 -16 16h-160v0q-15 -1 -16 -16q1 -15 16 -16v0z" />
</svg>
