<?xml version="1.0" standalone="no"?>
<!DOCTYPE svg PUBLIC "-//W3C//DTD SVG 1.1//EN" "http://www.w3.org/Graphics/SVG/1.1/DTD/svg11.dtd" >
<svg xmlns="http://www.w3.org/2000/svg" xmlns:xlink="http://www.w3.org/1999/xlink" version="1.1" viewBox="-10 -40 404 512">
   <path fill="currentColor"
d="M192 -39q15 1 16 16v16v0h80v0q14 0 23 9t9 23q14 0 23 9t9 23v368v0h8v0q22 2 24 24q-2 22 -24 24h-40h-296q-22 -2 -24 -24q2 -22 24 -24h8v0v-368v0q0 -14 9 -23t23 -9q0 -14 9 -23t23 -9h80v0v-16v0q1 -15 16 -16v0zM80 425h224h-224h224v-352v0h-224v0v352v0z
M104 105q1 -7 8 -8h24v0v32v0h-32v0v-24v0zM104 145h32h-32h32v32v0h-24v0q-7 -1 -8 -8v-24v0zM176 97q7 1 8 8v24v0h-32v0v-32v0h24v0zM152 145h32h-32h32v24v0q-1 7 -8 8h-24v0v-32v0zM208 97h24h-24h24v32v0h-32v0v-24v0q1 -7 8 -8v0zM232 145v32v-32v32h-24v0
q-7 -1 -8 -8v-24v0h32v0zM248 97h24h-24h24q7 1 8 8v24v0h-32v0v-32v0zM280 145v24v-24v24q-1 7 -8 8h-24v0v-32v0h32v0zM104 209q1 -15 16 -16h48v0q15 1 16 16v48v0q-1 15 -16 16h-48v0q-15 -1 -16 -16v-48v0z" />
</svg>
