<?xml version="1.0" standalone="no"?>
<!DOCTYPE svg PUBLIC "-//W3C//DTD SVG 1.1//EN" "http://www.w3.org/Graphics/SVG/1.1/DTD/svg11.dtd" >
<svg xmlns="http://www.w3.org/2000/svg" xmlns:xlink="http://www.w3.org/1999/xlink" version="1.1" viewBox="-10 -40 532 512">
   <path fill="currentColor"
d="M272 57q27 -1 42 -24q12 -24 0 -48q-15 -23 -42 -24q-27 1 -42 24q-12 24 0 48q15 23 42 24v0zM181 70q-21 -6 -42 0h-2v0q-20 5 -36 19l-45 38v0q-15 16 -2 34q16 15 34 2l44 -38v0q7 -6 16 -8l2 -1v0q10 -2 20 0l8 2v0l-32 98v0q-7 20 0 38t25 29l88 49v0l-34 110v0
q-4 21 16 30q21 5 30 -16l36 -115v0q7 -30 -19 -47l-32 -18v0l28 -85v0l6 19v0q6 17 20 28q15 11 34 11h8h40q22 -2 24 -24q-2 -22 -24 -24h-24v0q4 -122 24 -164q10 -21 16 -25q7 -4 8 -3v0v0v0v0q1 -1 8 3q6 4 16 25q10 23 17 67t7 113t-7 113t-17 67q-10 21 -16 25
q-7 4 -8 3v0v0v0v0q-1 1 -8 -3q-6 -4 -16 -25q-16 -34 -22 -116h-18h-30q7 104 33 149q25 44 61 43q41 2 68 -57t28 -199q-1 -140 -28 -199t-68 -57q-35 -1 -61 43q-25 43 -33 146l-6 -19v0q-10 -29 -40 -38l-95 -23v0zM252 137l-38 115l38 -115l-38 115l-19 -11v0
q-5 -3 -4 -9l34 -102v0l27 7v0zM123 278l-20 51l20 -51l-20 51h-79v0q-22 2 -24 24q2 22 24 24h85v0q27 -1 37 -26l14 -37v0l-4 -3v0q-22 -13 -33 -33v0z" />
</svg>
