<?xml version="1.0" standalone="no"?>
<!DOCTYPE svg PUBLIC "-//W3C//DTD SVG 1.1//EN" "http://www.w3.org/Graphics/SVG/1.1/DTD/svg11.dtd" >
<svg xmlns="http://www.w3.org/2000/svg" xmlns:xlink="http://www.w3.org/1999/xlink" version="1.1" viewBox="-10 -40 532 512">
   <path fill="currentColor"
d="M316 123q-26 -18 -60 -18q-48 1 -79 33q-32 31 -33 79q1 48 33 79q31 32 79 33q48 -1 79 -33q32 -31 33 -79h48v0q-1 60 -37 103t-93 54q-12 -12 -30 -13q-18 1 -30 13q-49 -10 -83 -44t-44 -83q12 -12 13 -30q-1 -18 -13 -30q11 -57 54 -93t103 -37q54 1 95 31l34 -34v0
q-54 -44 -129 -45q-79 2 -135 50q-57 48 -70 124q-18 12 -19 34q1 22 19 34q12 67 58 113t113 58q12 18 34 19q22 -1 34 -19q76 -13 124 -70q48 -56 50 -135h48v0q-1 72 -35 129q-34 58 -92 92q-57 34 -129 35q-72 -1 -129 -35q-58 -34 -92 -92q-34 -57 -35 -129
q1 -72 35 -129q34 -58 92 -92q57 -34 129 -35q95 2 163 59l44 -44v0q17 -14 34 0q14 17 0 34l-182 182v0q5 12 5 25q-1 27 -19 45t-45 19q-27 -1 -45 -19t-19 -45q1 -27 19 -45t45 -19q13 0 25 5l35 -35v0z" />
</svg>
