<?xml version="1.0" standalone="no"?>
<!DOCTYPE svg PUBLIC "-//W3C//DTD SVG 1.1//EN" "http://www.w3.org/Graphics/SVG/1.1/DTD/svg11.dtd" >
<svg xmlns="http://www.w3.org/2000/svg" xmlns:xlink="http://www.w3.org/1999/xlink" version="1.1" viewBox="-10 -40 532 512">
   <path fill="currentColor"
d="M256 9q-25 0 -48 6q29 10 46 34q18 24 18 56q-1 41 -28 68t-68 28q-41 -1 -68 -28t-28 -67q-31 49 -32 111q0 19 3 37l1 1h1q25 10 74 22q48 11 129 12q81 -1 129 -12q49 -12 74 -22v0v0h1q0 -1 1 -1q3 -18 3 -37q-2 -88 -61 -147t-147 -61v0zM441 312q-29 9 -74 17v0v0
q-46 8 -111 8t-111 -8q-45 -8 -74 -17q26 51 75 82q49 30 110 31q61 -1 110 -31q49 -31 75 -82v0zM512 217q-1 70 -34 128v0v0q-34 58 -94 94q-61 34 -128 34t-128 -34q-60 -36 -94 -94q-33 -58 -34 -128q1 -70 34 -128q34 -58 94 -94q61 -34 128 -34t128 34q60 36 94 94
q33 58 34 128v0zM176 153q27 -1 42 -24q12 -24 0 -48q-15 -23 -42 -24q-27 1 -42 24q-12 24 0 48q15 23 42 24v0z" />
</svg>
