<?xml version="1.0" standalone="no"?>
<!DOCTYPE svg PUBLIC "-//W3C//DTD SVG 1.1//EN" "http://www.w3.org/Graphics/SVG/1.1/DTD/svg11.dtd" >
<svg xmlns="http://www.w3.org/2000/svg" xmlns:xlink="http://www.w3.org/1999/xlink" version="1.1" viewBox="-10 -40 532 512">
   <path fill="currentColor"
d="M0 -15q2 -22 24 -24q22 2 24 24q-2 22 -24 24q-22 -2 -24 -24v0zM24 65q22 2 24 24q-2 22 -24 24q-22 -2 -24 -24q2 -22 24 -24v0zM24 169q22 2 24 24q-2 22 -24 24q-22 -2 -24 -24q2 -22 24 -24v0zM88 9q22 2 24 24q-2 22 -24 24q-22 -2 -24 -24q2 -22 24 -24v0zM64 145
q2 -22 24 -24q22 2 24 24q-2 22 -24 24q-22 -2 -24 -24v0zM152 65q22 2 24 24q-2 22 -24 24q-22 -2 -24 -24q2 -22 24 -24v0zM512 193q-2 22 -24 24q-22 -2 -24 -24q2 -22 24 -24q22 2 24 24v0zM488 65q22 2 24 24q-2 22 -24 24q-22 -2 -24 -24q2 -22 24 -24v0zM512 -15
q-2 22 -24 24q-22 -2 -24 -24q2 -22 24 -24q22 2 24 24v0zM424 9q22 2 24 24q-2 22 -24 24q-22 -2 -24 -24q2 -22 24 -24v0zM448 145q-2 22 -24 24q-22 -2 -24 -24q2 -22 24 -24q22 2 24 24v0zM360 65q22 2 24 24q-2 22 -24 24q-22 -2 -24 -24q2 -22 24 -24v0zM98 232
q6 -14 22 -15h112v0v-168v0q2 -22 24 -24q22 2 24 24v168v0h112v0q16 1 22 15t-5 26l-89 89v0v86v0q0 17 -12 28q-11 12 -28 12h-48v0q-17 0 -28 -12q-12 -11 -12 -28v-86v0l-89 -89v0q-11 -12 -5 -26v0zM256 265h-78h78h-78l55 55v0q7 7 7 17v88v0h32v0v-88v0q0 -10 7 -17
l55 -55v0h-78v0z" />
</svg>
