<?xml version="1.0" standalone="no"?>
<!DOCTYPE svg PUBLIC "-//W3C//DTD SVG 1.1//EN" "http://www.w3.org/Graphics/SVG/1.1/DTD/svg11.dtd" >
<svg xmlns="http://www.w3.org/2000/svg" xmlns:xlink="http://www.w3.org/1999/xlink" version="1.1" viewBox="-10 -40 533 512">
   <path fill="currentColor"
d="M506 1q13 -17 -1 -33q-16 -14 -33 -1l-247 226v0h105v0l176 -192v0zM13 421l39 39l-39 -39l39 39q13 13 32 13t32 -13l195 -195v0l1 -1v0l8 -8v0l11 -12v0q7 -7 4 -17q-5 -9 -15 -10h-16h-131q-19 0 -34 14l-126 126v0q-13 13 -13 32t13 32v0zM243 265l-70 70l70 -70
l-70 70l-35 -35v0l35 -35v0h70v0zM150 358l-66 66l66 -66l-66 66l-35 -35v0l66 -66v0l35 35v0z" />
</svg>
