<?xml version="1.0" standalone="no"?>
<!DOCTYPE svg PUBLIC "-//W3C//DTD SVG 1.1//EN" "http://www.w3.org/Graphics/SVG/1.1/DTD/svg11.dtd" >
<svg xmlns="http://www.w3.org/2000/svg" xmlns:xlink="http://www.w3.org/1999/xlink" version="1.1" viewBox="-10 -40 595 512">
   <path fill="currentColor"
d="M460 193l61 -36l-61 36l61 -36l-80 -138v0l-61 35v0l80 139v0zM328 61q-8 -25 14 -40l89 -52v0q12 -6 24 -3q13 3 20 15l96 166v0q6 12 3 24q-3 13 -15 20l-89 51v0q-12 7 -24 3q-13 -3 -20 -14v-1v0l-43 23v0q1 6 1 12q-1 31 -20 53l50 122v0q7 21 -13 31q-21 7 -31 -13
l-47 -115v0q-9 2 -19 2t-19 -2l-47 115v0q-10 20 -31 13q-20 -10 -13 -31l44 -109v0l-88 48v0q-12 6 -24 3q-13 -4 -19 -15l-1 -1v0l-44 25v0q-20 9 -33 -9l-26 -45v0q-9 -20 9 -32l44 -26v0l-4 -7v0q-6 -11 -3 -23t14 -20l265 -168v0zM402 188l-50 -86l50 86l-50 -86
l-251 160v0l39 67v0l86 -46v0q-2 -9 -2 -18q1 -34 23 -57q23 -22 57 -23q35 1 58 25l40 -22v0zM304 297q14 0 23 -9v0v0q9 -9 9 -23t-9 -23t-23 -9t-23 9t-9 23t9 23t23 9v0z" />
</svg>
