<?xml version="1.0" standalone="no"?>
<!DOCTYPE svg PUBLIC "-//W3C//DTD SVG 1.1//EN" "http://www.w3.org/Graphics/SVG/1.1/DTD/svg11.dtd" >
<svg xmlns="http://www.w3.org/2000/svg" xmlns:xlink="http://www.w3.org/1999/xlink" version="1.1" viewBox="-10 -40 586 512">
   <path fill="currentColor"
d="M176 9q-27 1 -45 19v0v0q-18 18 -19 45v162v0q-1 22 -13 37q-18 24 -19 57q1 41 28 68t68 28q41 -1 68 -28t28 -68q-1 -33 -19 -57q-12 -15 -13 -37v-162v0q-1 -27 -19 -45t-45 -19v0zM64 73q1 -48 33 -79v0v0q31 -32 79 -33q48 1 79 33q32 31 33 79v162v0q0 3 3 8
q28 37 29 86q-2 61 -42 102q-41 41 -102 42q-61 -1 -102 -42q-40 -41 -42 -102q1 -49 29 -86q3 -6 3 -8v-162v0zM224 329q-1 20 -14 34v0v0q-14 13 -34 14q-20 -1 -34 -14q-13 -14 -14 -34q2 -33 32 -45v-51v0q1 -15 16 -16q15 1 16 16v51v0q30 12 32 45v0zM448 441
q-11 0 -18 -8l-72 -80v0q-13 -18 2 -34q18 -13 34 2l30 34v0v-338v0q2 -22 24 -24q22 2 24 24v338v0l30 -34v0q16 -15 34 -2q15 16 2 34l-72 80v0q-7 8 -18 8v0z" />
</svg>
