<?xml version="1.0" standalone="no"?>
<!DOCTYPE svg PUBLIC "-//W3C//DTD SVG 1.1//EN" "http://www.w3.org/Graphics/SVG/1.1/DTD/svg11.dtd" >
<svg xmlns="http://www.w3.org/2000/svg" xmlns:xlink="http://www.w3.org/1999/xlink" version="1.1" viewBox="-10 -40 532 512">
   <path fill="currentColor"
d="M464 217q0 -57 -28 -104v0v0q-27 -47 -76 -76q-49 -28 -104 -28t-104 28q-49 29 -76 76q-28 47 -28 104t28 104q27 47 76 76q49 28 104 28t104 -28q49 -29 76 -76q28 -47 28 -104v0zM0 217q1 -70 34 -128v0v0q34 -58 94 -94q61 -34 128 -34t128 34q60 36 94 94
q33 58 34 128q-1 70 -34 128q-34 58 -94 94q-61 34 -128 34t-128 -34q-60 -36 -94 -94q-33 -58 -34 -128v0zM335 138q-34 -33 -79 -33v0v0q-45 0 -79 33q-17 14 -34 0q-14 -17 0 -34q49 -47 113 -47t113 47q47 49 47 113t-47 113q-17 14 -34 0q-14 -17 0 -34q33 -34 33 -79
t-33 -79v0zM213 174q11 -10 22 0l64 64v0q10 11 0 22q-11 10 -22 0l-64 -64v0q-10 -11 0 -22v0zM133 190q11 -10 22 0l128 128v0q10 11 0 22q-11 10 -22 0l-128 -128v0q-10 -11 0 -22v0zM117 292q-10 -11 0 -22q11 -10 22 0l64 64v0q10 11 0 22q-11 10 -22 0l-64 -64v0z" />
</svg>
