<?xml version="1.0" standalone="no"?>
<!DOCTYPE svg PUBLIC "-//W3C//DTD SVG 1.1//EN" "http://www.w3.org/Graphics/SVG/1.1/DTD/svg11.dtd" >
<svg xmlns="http://www.w3.org/2000/svg" xmlns:xlink="http://www.w3.org/1999/xlink" version="1.1" viewBox="-10 -40 532 512">
   <path fill="currentColor"
d="M432 201h-152h152h-152v-192v0h136v0q15 1 16 16v176v0zM232 201h-152h152h-152v-176v0q1 -15 16 -16h136v0v192v0zM480 249v-48v48v-48v-176v0q-1 -27 -19 -45t-45 -19h-320v0q-27 1 -45 19t-19 45v176v0v48v0h48h400zM24 425q-22 2 -24 24q2 22 24 24h32h432
q22 -2 24 -24q-2 -22 -24 -24h-8v0v-144v0h-48v0v144v0h-352v0v-144v0h-48v0v144v0h-8v0z" />
</svg>
