<?xml version="1.0" standalone="no"?>
<!DOCTYPE svg PUBLIC "-//W3C//DTD SVG 1.1//EN" "http://www.w3.org/Graphics/SVG/1.1/DTD/svg11.dtd" >
<svg xmlns="http://www.w3.org/2000/svg" xmlns:xlink="http://www.w3.org/1999/xlink" version="1.1" viewBox="-11 0 662 512">
   <path fill="currentColor"
d="M39 -34q-19 -12 -34 4q-12 19 4 34l592 464v0q19 12 34 -4q12 -19 -4 -34l-129 -101v0h82v0q22 -2 24 -24q-2 -22 -24 -24h-128h-15l-100 -78v0l35 -32v0q15 -17 2 -34q-17 -15 -34 -2l-41 38v0l-39 -30v0l45 -43v0q29 -26 68 -27q38 1 66 25l37 33v0q7 6 16 6h88v0
q22 -2 24 -24q-2 -22 -24 -24h-79v0l-30 -27v0q-42 -36 -98 -37q-58 1 -101 40l-50 48v0l-31 -25v0q12 -7 26 -11l51 -51v0q-6 -1 -13 -1h-10v0q-53 1 -94 32l-116 -91v0zM389 363l-42 -33l42 33l-42 -33q1 14 -9 24q-9 9 -21 9t-21 -9l-10 -11v0q-10 -9 -23 -6
q-12 3 -17 15q-1 3 -4 6q-11 9 -22 0l-27 -27v0v0v0l-7 -7v0l-36 -35v0q-23 -23 -56 -24h-38v0q-22 2 -24 24q2 22 24 24h38v0q13 0 22 10l36 35v0l7 7v0l27 27v0q18 18 42 19t44 -15q24 17 51 15q28 -2 49 -23q11 -11 17 -24v-1zM102 137l-58 -45l58 45l-58 -45
q-11 7 -12 21q2 22 24 24h46v0z" />
</svg>
