<?xml version="1.0" standalone="no"?>
<!DOCTYPE svg PUBLIC "-//W3C//DTD SVG 1.1//EN" "http://www.w3.org/Graphics/SVG/1.1/DTD/svg11.dtd" >
<svg xmlns="http://www.w3.org/2000/svg" xmlns:xlink="http://www.w3.org/1999/xlink" version="1.1" viewBox="-11 0 662 512">
   <path fill="currentColor"
d="M39 -34q-19 -12 -34 4q-12 19 4 34l592 464v0q19 12 34 -4q12 -19 -4 -34l-129 -101v0h46v0q9 15 28 16h32v0q14 0 23 -9t9 -23v-208v0q-1 -15 -16 -16h-40h-79l-30 -27v0q-42 -36 -98 -37q-58 1 -101 40l-50 48v0l-31 -25v0q12 -7 26 -11l51 -51v0q-6 -1 -13 -1h-10v0
q-53 1 -94 32l-116 -91v0zM264 143l45 -43l-45 43l45 -43q29 -26 68 -27q38 0 66 25l37 33v0q7 6 16 6h48v0v144v0h-88h-15l-100 -78v0l35 -32v0q15 -17 2 -34q-17 -15 -34 -2l-41 38v0l-39 -30v0zM96 133l-55 -44l55 44l-55 -44h-25v0q-15 1 -16 16v208v0q0 14 9 23t23 9
h32v0q14 0 23 -9t9 -23q12 1 20 9l36 36v0l7 7v0l27 27v0q18 18 42 19t44 -15q24 17 51 15q28 -2 49 -23q11 -11 17 -24l-42 -34v0q1 14 -9 24q-9 9 -21 9t-21 -9l-10 -11v0q-10 -8 -23 -6q-12 3 -17 15q-1 3 -4 6q-11 9 -22 0l-27 -27v0v0v0l-7 -7v0l-36 -35v0
q-22 -23 -54 -24v-80v0v-48v0v-4v0zM32 297q1 -15 16 -16q15 1 16 16q-1 15 -16 16q-15 -1 -16 -16v0zM592 281q15 1 16 16q-1 15 -16 16q-15 -1 -16 -16q1 -15 16 -16v0z" />
</svg>
