<?xml version="1.0" standalone="no"?>
<!DOCTYPE svg PUBLIC "-//W3C//DTD SVG 1.1//EN" "http://www.w3.org/Graphics/SVG/1.1/DTD/svg11.dtd" >
<svg xmlns="http://www.w3.org/2000/svg" xmlns:xlink="http://www.w3.org/1999/xlink" version="1.1" viewBox="-11 0 662 512">
   <path fill="currentColor"
d="M129 37q42 -27 95 -28h24v0q46 1 83 25q38 24 57 63q4 9 7 18l4 8l2 4v0q6 15 13 31q15 32 41 60l4 4v0q5 5 5 11q-1 15 -16 16h-24v0q-10 0 -16 6l-279 -218v0zM460 296q22 -4 37 -22v0v0q15 -17 15 -41q0 -26 -19 -45l-4 -4v0q-18 -19 -31 -47q-7 -14 -13 -29l-2 -4v0
q-6 -13 -12 -27q-25 -52 -74 -84q-49 -31 -109 -32h-24v0q-77 1 -134 45l-51 -40v0q-19 -12 -34 4q-12 19 4 34l592 464v0q19 12 34 -4q12 -19 -4 -34l-171 -134v0zM27 78q-26 48 -27 107q2 82 50 142q14 16 14 33v89v0q2 22 24 24q22 -2 24 -24v-89v0q-2 -38 -24 -64
q-39 -47 -40 -111q0 -41 17 -76l-38 -31v0zM339 324l-1 1l1 -1l-1 1q-17 5 -18 22q2 20 22 24l58 5v0v9v0v8v0q-1 15 -16 16h-88v0q-22 2 -24 24v16v0q2 22 24 24q17 -1 23 -16h65v0q23 0 40 -14q17 -13 22 -34l-107 -85v0zM640 345q-2 -22 -24 -24q-22 2 -24 24q2 22 24 24
q22 -2 24 -24v0zM552 321q22 -2 24 -24q-2 -22 -24 -24q-22 2 -24 24q2 22 24 24v0zM640 249q-2 -22 -24 -24q-22 2 -24 24q2 22 24 24q22 -2 24 -24v0z" />
</svg>
