<?xml version="1.0" standalone="no"?>
<!DOCTYPE svg PUBLIC "-//W3C//DTD SVG 1.1//EN" "http://www.w3.org/Graphics/SVG/1.1/DTD/svg11.dtd" >
<svg xmlns="http://www.w3.org/2000/svg" xmlns:xlink="http://www.w3.org/1999/xlink" version="1.1" viewBox="-10 -40 660 512">
   <path fill="currentColor"
d="M344 -15v126v-126v126q-11 -6 -24 -6t-24 6v-126v0q2 -22 24 -24q22 2 24 24v0zM256 126v24v-24v24q-23 -14 -48 -2v-22v0q-2 -19 -21 -21q-11 0 -17 8q-11 17 -30 46q-18 29 -37 66q-20 37 -35 76q-15 40 -20 77v6v0q0 17 12 29t29 12q5 0 10 -1l73 -18v0q9 -3 17 -9
q3 5 7 9q17 16 39 13q-20 25 -52 33l-72 18v0q-11 3 -22 3q-38 -1 -63 -26t-26 -63v-7v0v-4q6 -44 23 -88q16 -44 37 -82q20 -39 39 -70q20 -30 32 -47q21 -28 56 -29q29 1 49 20q19 20 20 49v0zM529 470l-72 -18l72 18l-72 -18q-32 -8 -52 -33q22 3 39 -14l-22 -22v0l22 22
v0q4 -3 7 -8q8 6 17 8l73 19v0q5 1 10 1q17 -1 29 -12q11 -12 12 -29v-6v0q-5 -37 -20 -77q-15 -39 -34 -76q-20 -37 -38 -66q-19 -30 -30 -46q-6 -8 -17 -8q-19 2 -21 21v21v0q-25 -11 -48 3v-24v0q1 -29 20 -49q20 -19 49 -20q35 0 56 29q12 17 31 47q20 31 40 70
q21 38 37 82q17 44 23 88v4v7v0q-1 38 -26 63t-63 26q-11 0 -22 -3v0zM320 137q15 1 16 16q2 25 23 34t40 -8q12 -9 23 0q9 12 0 23q-17 19 -8 40t34 23q15 1 16 16q-1 15 -16 16q-25 2 -34 23t8 40q9 12 0 23q-12 9 -23 0q-19 -17 -40 -8t-23 34q-1 15 -16 16
q-15 -1 -16 -16q-2 -25 -23 -34t-40 8q-11 9 -23 0q-9 -12 0 -23q17 -19 8 -40t-34 -23q-15 -1 -16 -16q1 -15 16 -16q25 -2 34 -23t-8 -40q-9 -11 0 -23q12 -9 23 0q19 17 40 8t23 -34q1 -15 16 -16v0zM296 281q22 -2 24 -24q-2 -22 -24 -24q-22 2 -24 24q2 22 24 24v0z
M368 313q-1 -15 -16 -16q-15 1 -16 16q1 15 16 16q15 -1 16 -16v0z" />
</svg>
