<?xml version="1.0" standalone="no"?>
<!DOCTYPE svg PUBLIC "-//W3C//DTD SVG 1.1//EN" "http://www.w3.org/Graphics/SVG/1.1/DTD/svg11.dtd" >
<svg xmlns="http://www.w3.org/2000/svg" xmlns:xlink="http://www.w3.org/1999/xlink" version="1.1" viewBox="-10 -40 650 512">
   <path fill="currentColor"
d="M64 25q1 -36 32 -55q32 -18 64 0q31 19 32 55q-1 36 -32 55q-32 18 -64 0q-31 -19 -32 -55v0zM106 169q-13 0 -22 8v0v0q-9 9 -10 21l-4 50v0q0 15 16 17h2h40q0 22 16 40l48 47v0v97v0q-2 22 -24 24q-22 -2 -24 -24v-136v0h-32v0v136v0q-2 22 -24 24q-22 -2 -24 -24
v-140v0q-20 -7 -32 -25t-10 -40l4 -50v0q3 -31 25 -52q23 -20 55 -21h44v0q43 2 66 34l-8 6l-28 29v0q-8 -20 -30 -21h-44v0zM448 449v-97v97v-97l48 -47v0q16 -18 16 -40h40h2q16 -2 16 -17l-4 -50v0q-1 -12 -10 -21q-9 -8 -22 -8h-44v0q-22 1 -30 21l-28 -29v0l-8 -6
q24 -32 66 -34h44v0q32 1 55 21q22 21 25 52l4 50v0q2 22 -10 40t-32 25v140v0q-2 22 -24 24q-22 -2 -24 -24v-136v0h-32v0v136v0q-2 22 -24 24q-22 -2 -24 -24v0zM448 25q1 -36 32 -55q32 -18 64 0q31 19 32 55q-1 36 -32 55q-32 18 -64 0q-31 -19 -32 -55v0zM265 218
l-23 23l23 -23l-23 23h156v0l-23 -23v0q-14 -17 0 -34q17 -14 34 0l64 64v0q14 17 0 34l-64 64v0q-17 14 -34 0q-14 -17 0 -34l23 -23v0h-156v0l23 23v0q14 17 0 34q-17 14 -34 0l-64 -64v0q-14 -17 0 -34l64 -64v0q17 -14 34 0q14 17 0 34v0z" />
</svg>
