<?xml version="1.0" standalone="no"?>
<!DOCTYPE svg PUBLIC "-//W3C//DTD SVG 1.1//EN" "http://www.w3.org/Graphics/SVG/1.1/DTD/svg11.dtd" >
<svg xmlns="http://www.w3.org/2000/svg" xmlns:xlink="http://www.w3.org/1999/xlink" version="1.1" viewBox="-10 -40 522 512">
   <path fill="currentColor"
d="M73 88l183 -78l-183 78l183 -78l183 78v0q9 5 9 13q0 47 -16 108q-16 60 -56 118q-41 57 -114 94q-6 2 -12 0q-73 -37 -114 -94q-40 -58 -56 -118q-16 -61 -16 -108q0 -8 9 -13v0zM458 44l-189 -80l189 80l-189 -80q-6 -3 -13 -3t-13 3l-189 80v0q-17 7 -27 22
q-11 15 -11 35q-1 51 17 120t65 134q46 66 132 109q26 12 52 0q86 -43 132 -109q47 -65 65 -134t17 -120q0 -20 -11 -35q-10 -15 -27 -22v0zM256 57q-15 1 -16 16q-2 25 -23 34t-40 -8q-11 -9 -23 0q-9 12 0 23q17 19 8 40t-34 23q-15 1 -16 16q1 15 16 16q25 2 34 23t-8 40
q-9 12 0 23q12 9 23 0q19 -17 40 -8t23 34q1 15 16 16q15 -1 16 -16q2 -25 23 -34t40 8q12 9 23 0q9 -12 0 -23q-17 -19 -8 -40t34 -23q15 -1 16 -16q-1 -15 -16 -16q-25 -2 -34 -23t8 -40q9 -11 0 -23q-12 -9 -23 0q-19 17 -40 8t-23 -34q-1 -15 -16 -16v0zM232 153
q22 2 24 24q-2 22 -24 24q-22 -2 -24 -24q2 -22 24 -24v0zM272 233q1 -15 16 -16q15 1 16 16q-1 15 -16 16q-15 -1 -16 -16v0z" />
</svg>
