<?xml version="1.0" standalone="no"?>
<!DOCTYPE svg PUBLIC "-//W3C//DTD SVG 1.1//EN" "http://www.w3.org/Graphics/SVG/1.1/DTD/svg11.dtd" >
<svg xmlns="http://www.w3.org/2000/svg" xmlns:xlink="http://www.w3.org/1999/xlink" version="1.1" viewBox="-11 0 662 512">
   <path fill="currentColor"
d="M39 -34q-19 -12 -34 4q-12 19 4 34l592 464v0q19 12 34 -4q12 -19 -4 -34l-87 -68v0v-17v0v-48v0v-83v0l-12 2v0v0q-8 1 -17 1q-10 0 -19 -2v82v0h-35v0l-160 -125v0l6 -4q7 -5 13 -12q6 7 13 12q22 16 52 17q30 -1 52 -17q7 -6 13 -12q6 6 13 12q23 16 53 17q6 0 12 -1
q42 -8 58 -45q15 -37 -6 -74l-58 -91v0q-8 -13 -24 -13h-356v0q-16 0 -24 13l-23 36v0l-56 -44v0zM133 40l19 -31l-19 31l19 -31h336v0l51 82v0v0v0q9 14 2 30q-6 14 -20 16h-5q-18 -1 -30 -13q-15 -16 -36 -16q-21 1 -35 16q-12 13 -30 13t-30 -13q-14 -16 -35 -16t-36 16
q-10 12 -27 13l-124 -97v0zM515 463l-48 -38l48 38l-48 -38h-307v0q-15 -1 -16 -16v-64v0h222v0l-61 -48v0h-161v0v-82v0q-10 2 -20 2q-8 0 -16 -1v0v0l-12 -2v83v0v48v0v64v0q1 27 19 45t45 19h320v0q20 0 35 -10v0zM155 179l-106 -83l106 83l-106 -83q-4 31 13 57t50 31
q6 1 12 1q17 0 31 -6v0z" />
</svg>
