<?xml version="1.0" standalone="no"?>
<!DOCTYPE svg PUBLIC "-//W3C//DTD SVG 1.1//EN" "http://www.w3.org/Graphics/SVG/1.1/DTD/svg11.dtd" >
<svg xmlns="http://www.w3.org/2000/svg" xmlns:xlink="http://www.w3.org/1999/xlink" version="1.1" viewBox="-10 -40 468 512">
   <path fill="currentColor"
d="M253 28q9 -20 -10 -32q-20 -9 -32 10l-208 400v0q-6 12 1 23q7 12 20 12h400v0q22 -2 24 -24q-2 -22 -24 -24h-360v0l189 -365v0zM242 137l-23 43l23 -43l-23 43q29 24 52 54l40 -26v0q-29 -41 -69 -71v0zM323 353h49h-49h49q-10 -56 -35 -104l-41 26v0q19 36 27 78v0z
" />
</svg>
