<?xml version="1.0" standalone="no"?>
<!DOCTYPE svg PUBLIC "-//W3C//DTD SVG 1.1//EN" "http://www.w3.org/Graphics/SVG/1.1/DTD/svg11.dtd" >
<svg xmlns="http://www.w3.org/2000/svg" xmlns:xlink="http://www.w3.org/1999/xlink" version="1.1" viewBox="-10 -40 468 512">
   <path fill="currentColor"
d="M32 377q14 0 23 9v0v0q9 9 9 23t-9 23t-23 9t-23 -9t-9 -23t9 -23t23 -9v0zM128 377q14 0 23 9v0v0q9 9 9 23t-9 23t-23 9t-23 -9t-9 -23t9 -23t23 -9v0zM256 409q0 14 -9 23v0v0q-9 9 -23 9t-23 -9t-9 -23t9 -23t23 -9t23 9t9 23v0zM320 377q14 0 23 9v0v0q9 9 9 23
t-9 23t-23 9t-23 -9t-9 -23t9 -23t23 -9v0zM448 409q0 14 -9 23v0v0q-9 9 -23 9t-23 -9t-9 -23t9 -23t23 -9t23 9t9 23v0zM242 321q-8 8 -18 8t-17 -8l-128 -136v0q-14 -17 1 -33q17 -14 33 1l87 92v0v-84v0v-128v0q2 -22 24 -24q22 2 24 24v128v0v84v0l87 -92v0
q16 -15 33 -1q15 16 1 34l-128 136z" />
</svg>
