<?xml version="1.0" standalone="no"?>
<!DOCTYPE svg PUBLIC "-//W3C//DTD SVG 1.1//EN" "http://www.w3.org/Graphics/SVG/1.1/DTD/svg11.dtd" >
<svg xmlns="http://www.w3.org/2000/svg" xmlns:xlink="http://www.w3.org/1999/xlink" version="1.1" viewBox="-10 -40 468 512">
   <path fill="currentColor"
d="M241 -32q-17 -14 -34 0l-72 72v0q-14 17 0 34q17 14 34 0l31 -31v0v86v0q2 22 24 24q22 -2 24 -24v-86v0l31 31v0q17 14 34 0q14 -17 0 -34l-72 -72v0zM248 305q-2 -22 -24 -24q-22 2 -24 24v86v0l-31 -31v0q-17 -14 -34 0q-14 17 0 34l72 72v0q17 14 34 0l72 -72v0
q14 -17 0 -34q-17 -14 -34 0l-31 31v0v-86v0zM32 185q-14 0 -23 9v0v0q-9 9 -9 23t9 23t23 9t23 -9t9 -23t-9 -23t-23 -9v0zM128 185q-14 0 -23 9v0v0q-9 9 -9 23t9 23t23 9t23 -9t9 -23t-9 -23t-23 -9v0zM192 217q0 14 9 23v0v0q9 9 23 9t23 -9t9 -23t-9 -23t-23 -9t-23 9
t-9 23v0zM320 185q-14 0 -23 9v0v0q-9 9 -9 23t9 23t23 9t23 -9t9 -23t-9 -23t-23 -9v0zM384 217q0 14 9 23v0v0q9 9 23 9t23 -9t9 -23t-9 -23t-23 -9t-23 9t-9 23v0z" />
</svg>
