<?xml version="1.0" standalone="no"?>
<!DOCTYPE svg PUBLIC "-//W3C//DTD SVG 1.1//EN" "http://www.w3.org/Graphics/SVG/1.1/DTD/svg11.dtd" >
<svg xmlns="http://www.w3.org/2000/svg" xmlns:xlink="http://www.w3.org/1999/xlink" version="1.1" viewBox="-10 -40 532 512">
   <path fill="currentColor"
d="M464 105q-1 46 -35 74q-19 15 -34 37t-21 50q-7 35 -21 64q-14 30 -32 48q-49 47 -113 47t-113 -47q-47 -49 -47 -113t47 -113q18 -18 48 -32q29 -14 64 -21q28 -6 50 -21t37 -34q28 -34 74 -35q41 1 68 28t28 68v0zM421 275q9 -35 38 -59q51 -42 53 -111
q-2 -61 -42 -102q-41 -40 -102 -42q-69 2 -111 53q-24 29 -59 38q-40 8 -76 25t-61 41q-61 64 -61 147t61 147q64 61 147 61t147 -61q24 -25 42 -61q17 -36 24 -75v-1zM283 308q32 -33 36 -71v0v0q5 -38 -19 -64q-26 -24 -64 -19q-38 4 -71 36q-32 33 -36 71q-5 38 19 64
q26 24 64 19q38 -4 71 -36v0z" />
</svg>
