<?xml version="1.0" standalone="no"?>
<!DOCTYPE svg PUBLIC "-//W3C//DTD SVG 1.1//EN" "http://www.w3.org/Graphics/SVG/1.1/DTD/svg11.dtd" >
<svg xmlns="http://www.w3.org/2000/svg" xmlns:xlink="http://www.w3.org/1999/xlink" version="1.1" viewBox="-10 -40 404 512">
   <path fill="currentColor"
d="M163 -31q29 -16 58 0l16 10v0q1 1 4 1l18 -1v0q33 1 50 29l9 16v0q1 2 3 3l16 9v0q28 17 29 50l-1 18v0q0 2 1 4l10 16v0q16 29 0 58l-10 15v0q-1 2 -1 5l1 18v0q-1 33 -29 50l-16 9v0q-2 1 -3 3l-9 16v0q-17 28 -50 29l-18 -1v0q-2 0 -4 1l-16 10v0q-29 16 -58 0
l-15 -10v0q-2 -1 -5 -1l-18 1v0q-33 -1 -50 -29l-9 -16v0q-1 -2 -3 -3l-16 -9v0q-28 -17 -29 -50l1 -18v0q0 -2 -1 -4l-10 -16v0q-16 -29 0 -58l10 -16v0q1 -1 1 -4l-1 -18v0q1 -33 29 -50l16 -9v0q2 -1 3 -3l9 -16v0q17 -28 50 -29l18 1v0q2 0 4 -1l16 -10v0zM196 10
q-4 -2 -8 0l-15 10v0q-14 8 -31 8l-18 -1v0q-4 0 -7 4l-9 16v0q-7 15 -22 22l-16 9v0q-4 3 -4 7l1 18v0q0 17 -8 31l-10 15v0l-20 -12v0l20 12v0q-2 4 0 8l10 16v0q8 13 8 30l-1 18v0q0 4 4 7l16 9v0q15 8 22 22l9 16v0q3 4 7 4l18 -1v0q17 0 31 8l15 10v0q4 2 8 0l16 -10v0
q13 -8 30 -8l18 1v0q4 0 7 -4l9 -16v0q8 -14 22 -22l16 -9v0q4 -3 4 -7l-1 -18v0q0 -17 8 -30l10 -16v0q2 -4 0 -8l-10 -16v0q-8 -13 -8 -30l1 -18v0q0 -4 -4 -7l-16 -9v0q-14 -8 -22 -22l-9 -16v0q-3 -4 -7 -4l-18 1v0q-17 0 -30 -8l-16 -10v0zM128 153q1 -36 32 -55
q32 -18 64 0q31 19 32 55q-1 36 -32 55q-32 18 -64 0q-31 -19 -32 -55v0zM64 453l24 -102l-24 102l24 -102q18 8 38 8l11 -1v0l9 6v0q22 13 46 13t46 -13l9 -6v0l11 1v0q20 0 38 -8l24 102v0q1 10 -6 16t-16 3l-106 -46v0l-106 46v0q-9 3 -16 -3q-8 -6 -6 -16v0z" />
</svg>
