<?xml version="1.0" standalone="no"?>
<!DOCTYPE svg PUBLIC "-//W3C//DTD SVG 1.1//EN" "http://www.w3.org/Graphics/SVG/1.1/DTD/svg11.dtd" >
<svg xmlns="http://www.w3.org/2000/svg" xmlns:xlink="http://www.w3.org/1999/xlink" version="1.1" viewBox="-10 -40 532 512">
   <path fill="currentColor"
d="M208 -39q-41 1 -68 29h-1v0q-19 -13 -43 -13q-34 1 -57 23q-22 23 -23 57q1 34 23 57q23 22 57 23q24 0 43 -13h1v0q27 28 68 29q41 -1 68 -28v0v0q20 13 45 13q34 -1 57 -23q22 -23 23 -57q-1 -35 -23 -57q-23 -23 -57 -24q-25 0 -44 13v0v0q-28 -28 -69 -29v0zM173 24
q14 -14 35 -15q21 1 35 15q14 13 29 14q16 2 31 -8q8 -5 18 -5q14 0 23 10q9 9 9 23q0 13 -9 23q-9 9 -23 9q-11 0 -19 -5q-15 -10 -30 -8q-16 0 -29 13q-14 14 -35 15q-21 -1 -35 -15q-13 -13 -29 -14q-15 -1 -30 8q-8 5 -18 5q-14 0 -23 -9t-9 -23t9 -23t23 -9q10 0 18 5
q15 9 30 7q16 0 29 -13v0zM32 149v260v-260v260q1 27 19 45t45 19h224v0q27 -1 45 -19t19 -45v0v0l87 -38v0q19 -9 30 -26q11 -16 11 -37v-118v0q-1 -29 -20 -49q-20 -19 -49 -20h-29v0q-28 40 -78 48v224v0v0v1v15v0q-1 15 -16 16h-224v0q-15 -1 -16 -16v-241v0
q-27 -4 -48 -19v0zM208 185q-15 1 -16 16v160v0q1 15 16 16q15 -1 16 -16v-160v0q-1 -15 -16 -16v0zM320 58v0v0v0v0v0v0h1v0v0v0v0v0v0v0v0v0v0v0v0v-1v0v0v0v0v0h-1v0v0v0v0l-1 1v0h1v0zM96 57v0v0v0v0v0v0v0v0v0v0v0v0v0v0v0v0v0v0v0v0v0zM443 169q19 2 21 21v118v0
q-1 13 -12 19l-68 29v0v-187v0h59v0zM160 201q-1 -15 -16 -16q-15 1 -16 16v160v0q1 15 16 16q15 -1 16 -16v-160v0zM288 201q-1 -15 -16 -16q-15 1 -16 16v160v0q1 15 16 16q15 -1 16 -16v-160v0z" />
</svg>
