<?xml version="1.0" standalone="no"?>
<!DOCTYPE svg PUBLIC "-//W3C//DTD SVG 1.1//EN" "http://www.w3.org/Graphics/SVG/1.1/DTD/svg11.dtd" >
<svg xmlns="http://www.w3.org/2000/svg" xmlns:xlink="http://www.w3.org/1999/xlink" version="1.1" viewBox="-10 -40 532 512">
   <path fill="currentColor"
d="M148 38q18 -13 9 -33q-13 -18 -33 -9q-22 13 -51 42q-29 30 -50 75q-22 45 -23 104q1 59 23 104q21 45 50 75q29 29 51 42q20 9 33 -9q9 -20 -9 -33q-28 -15 -62 -61q-35 -46 -38 -118q3 -72 38 -118q34 -46 62 -61v0zM364 38q28 15 62 61v0v0q35 46 38 118
q-3 72 -38 118q-34 46 -62 61q-18 13 -9 33q13 18 33 9q22 -13 51 -42q29 -30 50 -75q22 -45 23 -104q-1 -59 -23 -104q-21 -45 -50 -75q-29 -29 -51 -42q-20 -9 -33 9q-9 20 9 33v0z" />
</svg>
