<?xml version="1.0" standalone="no"?>
<!DOCTYPE svg PUBLIC "-//W3C//DTD SVG 1.1//EN" "http://www.w3.org/Graphics/SVG/1.1/DTD/svg11.dtd" >
<svg xmlns="http://www.w3.org/2000/svg" xmlns:xlink="http://www.w3.org/1999/xlink" version="1.1" viewBox="-10 -40 532 512">
   <path fill="currentColor"
d="M192 9q17 0 28 12v0v0q12 11 12 28v40v0h-19v0q-11 -23 -37 -24q-17 0 -28 12q-12 11 -12 28t12 28q11 12 28 12q26 -1 37 -24h19v0v96v0h-40v0q-20 1 -34 14q-13 14 -14 34v11v0q-23 11 -24 37q0 17 12 28q11 12 28 12t28 -12q12 -11 12 -28q-1 -26 -24 -37v-11v0
q1 -15 16 -16h40v0v132v0q0 19 -13 31q-12 13 -31 13q-28 -1 -40 -26q-7 -13 -21 -14q-20 -1 -33 -14q-14 -14 -14 -34q0 -4 1 -8q1 -13 -9 -22q-23 -19 -24 -50q1 -30 22 -48q12 -12 6 -28q-4 -9 -4 -20q1 -30 27 -43q12 -7 13 -21q2 -31 28 -44q10 -5 14 -15q9 -27 38 -29
v0zM188 473q42 -1 68 -30q26 29 68 30q50 -2 77 -41q34 -7 56 -33t23 -62v-1v-1q31 -31 32 -78q-1 -43 -27 -73q3 -11 3 -23q-2 -51 -41 -79q-8 -45 -46 -68q-11 -24 -32 -38q-21 -15 -49 -15q-39 1 -64 28q-25 -27 -64 -28q-28 0 -49 15q-21 14 -32 38q-38 23 -46 68
q-39 28 -41 79q0 12 3 23q-26 30 -27 73q1 47 32 78v1v1q1 36 23 62t56 33q27 39 77 41v0zM324 425q-19 0 -31 -13v0v0q-13 -12 -13 -31v-68v0h51v0q11 23 37 24q17 0 28 -12q12 -11 12 -28t-12 -28q-11 -12 -28 -12q-26 1 -37 24h-51v0v-160v0h40v0q15 1 16 16v11v0
q-23 11 -24 37q0 17 12 28q11 12 28 12t28 -12q12 -11 12 -28q-1 -26 -24 -37v-11v0q-1 -20 -14 -34q-14 -13 -34 -14h-40v0v-40v0q0 -17 12 -28q11 -12 28 -12q29 2 39 29q3 10 13 15q26 13 28 44q1 14 13 21q26 13 27 43q0 11 -4 20q-6 16 6 28q21 18 22 48q-1 31 -24 50
q-10 9 -9 22q1 4 1 8q0 20 -14 34q-13 13 -33 14q-14 1 -21 14q-12 25 -40 26v0zM176 89q15 1 16 16q-1 15 -16 16q-15 -1 -16 -16q1 -15 16 -16v0zM160 297q15 1 16 16q-1 15 -16 16q-15 -1 -16 -16q1 -15 16 -16v0zM336 185q1 -15 16 -16q15 1 16 16q-1 15 -16 16
q-15 -1 -16 -16v0zM368 281q15 1 16 16q-1 15 -16 16q-15 -1 -16 -16q1 -15 16 -16v0z" />
</svg>
