<?xml version="1.0" standalone="no"?>
<!DOCTYPE svg PUBLIC "-//W3C//DTD SVG 1.1//EN" "http://www.w3.org/Graphics/SVG/1.1/DTD/svg11.dtd" >
<svg xmlns="http://www.w3.org/2000/svg" xmlns:xlink="http://www.w3.org/1999/xlink" version="1.1" viewBox="-10 -40 532 512">
   <path fill="currentColor"
d="M232 49q2 22 24 24q22 -2 24 -24v-64v0q-2 -22 -24 -24q-22 2 -24 24v64v0zM256 169q27 1 42 24q12 24 0 48q-15 23 -42 24q-27 -1 -42 -24q-12 -24 0 -48q15 -23 42 -24v0zM256 313q26 0 48 -13v0v0q22 -13 35 -35q13 -23 13 -48t-13 -48q-13 -22 -35 -35t-48 -13
t-48 13t-35 35q-13 23 -13 48t13 48q13 22 35 35t48 13v0zM0 217q2 22 24 24h64v0q22 -2 24 -24q-2 -22 -24 -24h-64v0q-22 2 -24 24v0zM424 193q-22 2 -24 24q2 22 24 24h64v0q22 -2 24 -24q-2 -22 -24 -24h-64v0zM256 473q22 -2 24 -24v-64v0q-2 -22 -24 -24q-22 2 -24 24
v64v0q2 22 24 24v0zM75 36q-14 17 0 34l45 45v0q17 14 34 0q14 -17 0 -34l-45 -45v0q-17 -14 -34 0v0zM392 319q-17 -14 -34 0q-14 17 0 34l45 45v0q17 14 34 0q14 -17 0 -34l-45 -45v0zM75 398q17 14 34 0l45 -45v0q14 -17 0 -34q-17 -14 -34 0l-45 45v0q-14 17 0 34v0z
M358 81q-14 17 0 34q17 14 34 0l45 -45v0q14 -17 0 -34q-17 -14 -34 0l-45 45v0z" />
</svg>
