<?xml version="1.0" standalone="no"?>
<!DOCTYPE svg PUBLIC "-//W3C//DTD SVG 1.1//EN" "http://www.w3.org/Graphics/SVG/1.1/DTD/svg11.dtd" >
<svg xmlns="http://www.w3.org/2000/svg" xmlns:xlink="http://www.w3.org/1999/xlink" version="1.1" viewBox="-10 -40 596 512">
   <path fill="currentColor"
d="M128 -39q22 2 24 24v40v0h144v0v-40v0q2 -22 24 -24q22 2 24 24v40v0h40v0q27 1 45 19t19 45v16v0v48v0h-16h-384v256v0q1 15 16 16h221v0q18 28 46 48h-267v0q-27 -1 -45 -19t-19 -45v-256v0v-48v0v-16v0q1 -27 19 -45t45 -19h40v0v-40v0q2 -22 24 -24v0zM288 329
q0 -39 19 -72v0v0q19 -33 53 -53q34 -19 72 -19t72 19q34 20 53 53t19 72t-19 72t-53 53q-34 19 -72 19t-72 -19q-34 -20 -53 -53t-19 -72v0zM432 249q-15 1 -16 16v64v0q1 15 16 16h48v0q15 -1 16 -16q-1 -15 -16 -16h-32v0v-48v0q-1 -15 -16 -16v0z" />
</svg>
