<?xml version="1.0" standalone="no"?>
<!DOCTYPE svg PUBLIC "-//W3C//DTD SVG 1.1//EN" "http://www.w3.org/Graphics/SVG/1.1/DTD/svg11.dtd" >
<svg xmlns="http://www.w3.org/2000/svg" xmlns:xlink="http://www.w3.org/1999/xlink" version="1.1" viewBox="-10 -40 468 512">
   <path fill="currentColor"
d="M128 -39q22 2 24 24v40v0h144v0v-40v0q2 -22 24 -24q22 2 24 24v40v0h40v0q27 1 45 19t19 45v16v0v48v0v256v0q-1 27 -19 45t-45 19h-320v0q-27 -1 -45 -19t-19 -45v-256v0v-48v0v-16v0q1 -27 19 -45t45 -19h40v0v-40v0q2 -22 24 -24v0zM400 153h-352h352h-352v256v0
q1 15 16 16h320v0q15 -1 16 -16v-256v0zM112 262q1 -26 18 -43v0v0q17 -17 43 -18q25 0 44 18l7 7v0l7 -7v0q19 -18 44 -18q26 1 43 18t18 43q0 25 -18 44l-83 82v0q-11 10 -22 0l-83 -82v0q-17 -19 -18 -44v0z" />
</svg>
