<?xml version="1.0" standalone="no"?>
<!DOCTYPE svg PUBLIC "-//W3C//DTD SVG 1.1//EN" "http://www.w3.org/Graphics/SVG/1.1/DTD/svg11.dtd" >
<svg xmlns="http://www.w3.org/2000/svg" xmlns:xlink="http://www.w3.org/1999/xlink" version="1.1" viewBox="-10 -40 660 512">
   <path fill="currentColor"
d="M176 -15q-2 -22 -24 -24q-22 2 -24 24v200v0h-80v0v-40v0q-2 -22 -24 -24q-22 2 -24 24v256v0q1 31 21 51t51 21h496v0q31 -1 51 -21t21 -51v-256v0q-2 -22 -24 -24q-22 2 -24 24v40v0h-80v0v-200v0q-2 -22 -24 -24q-22 2 -24 24v40v0h-64v0v-40v0q-2 -22 -24 -24
q-22 2 -24 24v40v0h-64v0v-40v0q-2 -22 -24 -24q-22 2 -24 24v40v0h-64v0v-40v0zM176 73h288h-288h288v112v0h-288v0v-112v0zM48 233h544h-544h544v168v0q-2 22 -24 24h-184v0v-80v0q-1 -27 -19 -45t-45 -19q-27 1 -45 19t-19 45v80v0h-184v0q-22 -2 -24 -24v-168v0z" />
</svg>
