<?xml version="1.0" standalone="no"?>
<!DOCTYPE svg PUBLIC "-//W3C//DTD SVG 1.1//EN" "http://www.w3.org/Graphics/SVG/1.1/DTD/svg11.dtd" >
<svg xmlns="http://www.w3.org/2000/svg" xmlns:xlink="http://www.w3.org/1999/xlink" version="1.1" viewBox="-10 -40 394 512">
   <path fill="currentColor"
d="M216 -39q22 2 24 24v49v0q58 4 102 35q17 15 6 34q-15 17 -34 6q-32 -23 -74 -27v270v0q42 -4 74 -27q19 -11 34 6q11 19 -6 34q-44 31 -102 36v48v0q-2 22 -24 24q-22 -2 -24 -24v-51v0q-69 -13 -114 -62q-44 -49 -46 -119q2 -70 46 -119q45 -49 114 -62v-51v0
q2 -22 24 -24v0zM80 217q1 48 32 84v0v0q30 37 80 48v-264v0q-50 11 -80 48q-31 36 -32 84v0z" />
</svg>
