<?xml version="1.0" standalone="no"?>
<!DOCTYPE svg PUBLIC "-//W3C//DTD SVG 1.1//EN" "http://www.w3.org/Graphics/SVG/1.1/DTD/svg11.dtd" >
<svg xmlns="http://www.w3.org/2000/svg" xmlns:xlink="http://www.w3.org/1999/xlink" version="1.1" viewBox="-10 -40 532 512">
   <path fill="currentColor"
d="M264 -7q22 2 24 24v8v0h176v0q20 1 34 14q13 14 14 34v64v0q-1 20 -14 34q-14 13 -34 14h-176v0v8v0q-2 22 -24 24q-22 -2 -24 -24v-8v0h-192v0q-20 -1 -34 -14q-13 -14 -14 -34v-64v0q1 -20 14 -34q14 -13 34 -14h192v0v-8v0q2 -22 24 -24v0zM160 73v64v-64v64h80v0v-64
v0h-80v0zM288 73v64v-64v64h176v0v-64v0h-176v0zM112 73h-64h64h-64v64v0h64v0v-64v0zM360 217q22 2 24 24v8v0h80v0q20 1 34 14q13 14 14 34v64v0q-1 20 -14 34q-14 13 -34 14h-80v0v8v0q-2 22 -24 24q-22 -2 -24 -24v-8v0h-288v0q-20 -1 -34 -14q-13 -14 -14 -34v-64v0
q1 -20 14 -34q14 -13 34 -14h288v0v-8v0q2 -22 24 -24v0zM224 297v64v-64v64h112v0v-64v0h-112v0zM384 297v64v-64v64h80v0v-64v0h-80v0zM176 297h-128h128h-128v64v0h128v0v-64v0z" />
</svg>
