<?xml version="1.0" standalone="no"?>
<!DOCTYPE svg PUBLIC "-//W3C//DTD SVG 1.1//EN" "http://www.w3.org/Graphics/SVG/1.1/DTD/svg11.dtd" >
<svg xmlns="http://www.w3.org/2000/svg" xmlns:xlink="http://www.w3.org/1999/xlink" version="1.1" viewBox="-10 -40 532 512">
   <path fill="currentColor"
d="M48 17q-2 -22 -24 -24q-22 2 -24 24v352v0q1 31 21 51t51 21h416v0q22 -2 24 -24q-2 -22 -24 -24h-416v0q-22 -2 -24 -24v-352v0zM320 113q2 22 24 24h54v0l-94 94v0l-79 -79v0q-17 -14 -34 0l-80 80v0q-14 17 0 34q17 14 34 0l63 -63v0l79 79v0q17 14 34 0l111 -111v0
v54v0q2 22 24 24q22 -2 24 -24v-112v0q-2 -22 -24 -24h-112v0q-22 2 -24 24v0z" />
</svg>
