<?xml version="1.0" standalone="no"?>
<!DOCTYPE svg PUBLIC "-//W3C//DTD SVG 1.1//EN" "http://www.w3.org/Graphics/SVG/1.1/DTD/svg11.dtd" >
<svg xmlns="http://www.w3.org/2000/svg" xmlns:xlink="http://www.w3.org/1999/xlink" version="1.1" viewBox="-10 -40 532 512">
   <path fill="currentColor"
d="M256 9q57 0 104 28v0v0q47 27 76 76q28 49 28 104t-28 104q-29 49 -76 76q-47 28 -104 28t-104 -28q-47 -27 -76 -76q-28 -49 -28 -104t28 -104q29 -49 76 -76q47 -28 104 -28v0zM256 473q70 -1 128 -34v0v0q58 -34 94 -94q34 -61 34 -128t-34 -128q-36 -60 -94 -94
q-58 -33 -128 -34q-70 1 -128 34q-58 34 -94 94q-34 61 -34 128t34 128q36 60 94 94q58 33 128 34v0zM208 89q-19 1 -24 20l-16 88v0q-1 10 5 18q6 9 16 10l87 10v0q26 5 28 31q0 13 -9 22t-22 9h-36v0q-18 0 -29 -15l-4 -6v0q-14 -17 -33 -7q-17 14 -7 33l4 6v0
q25 36 69 37h36v0q33 -1 56 -23q22 -22 23 -56q-1 -31 -20 -53q-20 -22 -50 -26l-62 -7v0l8 -43v0h84v0q22 -2 24 -24q-2 -22 -24 -24h-104v0z" />
</svg>
