<?xml version="1.0" standalone="no"?>
<!DOCTYPE svg PUBLIC "-//W3C//DTD SVG 1.1//EN" "http://www.w3.org/Graphics/SVG/1.1/DTD/svg11.dtd" >
<svg xmlns="http://www.w3.org/2000/svg" xmlns:xlink="http://www.w3.org/1999/xlink" version="1.1" viewBox="-10 -40 532 512">
   <path fill="currentColor"
d="M464 217q0 -57 -28 -104v0v0q-27 -47 -76 -76q-49 -28 -104 -28t-104 28q-49 29 -76 76q-28 47 -28 104t28 104q27 47 76 76q49 28 104 28t104 -28q49 -29 76 -76q28 -47 28 -104v0zM0 217q1 -70 34 -128v0v0q34 -58 94 -94q61 -34 128 -34t128 34q60 36 94 94
q33 58 34 128q-1 70 -34 128q-34 58 -94 94q-61 34 -128 34t-128 -34q-60 -36 -94 -94q-33 -58 -34 -128v0zM264 89q31 1 51 21v0v0q20 20 21 51q0 24 -13 42q28 23 29 62q-1 34 -23 57q-23 22 -57 23h-32v0q-34 -1 -57 -23q-22 -23 -23 -57q1 -39 30 -62q-14 -18 -14 -42
q1 -31 21 -51t51 -21h16v0zM248 185v0v0v0v0h16v0v0v0q22 -2 24 -24q-2 -22 -24 -24h-16v0q-22 2 -24 24q2 22 24 24v0zM264 233h-16h16h-24q-14 0 -23 9t-9 23t9 23t23 9h32v0q14 0 23 -9t9 -23t-9 -23t-23 -9h-8v0z" />
</svg>
