<?xml version="1.0" standalone="no"?>
<!DOCTYPE svg PUBLIC "-//W3C//DTD SVG 1.1//EN" "http://www.w3.org/Graphics/SVG/1.1/DTD/svg11.dtd" >
<svg xmlns="http://www.w3.org/2000/svg" xmlns:xlink="http://www.w3.org/1999/xlink" version="1.1" viewBox="-10 -40 532 512">
   <path fill="currentColor"
d="M256 9q-57 0 -104 28v0v0q-47 27 -76 76q-28 49 -28 104t28 104q29 49 76 76q47 28 104 28t104 -28q47 -27 76 -76q28 -49 28 -104t-28 -104q-29 -49 -76 -76q-47 -28 -104 -28v0zM256 473q-70 -1 -128 -34v0v0q-58 -34 -94 -94q-34 -61 -34 -128t34 -128q36 -60 94 -94
q58 -33 128 -34q70 1 128 34q58 34 94 94q34 61 34 128t-34 128q-36 60 -94 94q-58 33 -128 34v0zM320 329h-152h152h-152q-22 -2 -24 -24v-160v0q2 -22 24 -24q22 2 24 24v102v0l135 -135v0q17 -14 34 0q14 17 0 34l-135 135v0h94v0q22 2 24 24q-2 22 -24 24v0z" />
</svg>
