<?xml version="1.0" standalone="no"?>
<!DOCTYPE svg PUBLIC "-//W3C//DTD SVG 1.1//EN" "http://www.w3.org/Graphics/SVG/1.1/DTD/svg11.dtd" >
<svg xmlns="http://www.w3.org/2000/svg" xmlns:xlink="http://www.w3.org/1999/xlink" version="1.1" viewBox="-10 -40 532 512">
   <path fill="currentColor"
d="M256 9q-57 0 -104 28v0v0q-47 27 -76 76q-28 49 -28 104t28 104q29 49 76 76q47 28 104 28t104 -28q47 -27 76 -76q28 -49 28 -104t-28 -104q-29 -49 -76 -76q-47 -28 -104 -28v0zM256 473q-70 -1 -128 -34v0v0q-58 -34 -94 -94q-34 -61 -34 -128t34 -128q36 -60 94 -94
q58 -33 128 -34q70 1 128 34q58 34 94 94q34 61 34 128t-34 128q-36 60 -94 94q-58 33 -128 34v0zM160 160q2 -21 23 -23q9 0 16 7l33 33v0l66 -66v0q6 -6 14 -6t14 6l36 36v0q6 6 6 14t-6 14l-66 66v0l33 33v0q7 7 7 16q-2 21 -23 23h-137v0q-15 -1 -16 -16v-137v0z" />
</svg>
