<?xml version="1.0" standalone="no"?>
<!DOCTYPE svg PUBLIC "-//W3C//DTD SVG 1.1//EN" "http://www.w3.org/Graphics/SVG/1.1/DTD/svg11.dtd" >
<svg xmlns="http://www.w3.org/2000/svg" xmlns:xlink="http://www.w3.org/1999/xlink" version="1.1" viewBox="-10 -40 652 512">
   <path fill="currentColor"
d="M48 217q2 -88 61 -147v0v0q59 -59 147 -61q64 1 114 34t75 88q11 19 32 12q19 -11 12 -32q-31 -67 -93 -108q-61 -41 -140 -42q-72 1 -129 35q-58 34 -92 92q-34 57 -35 129q1 72 35 129q34 58 92 92q57 34 129 35q55 0 103 -21q47 -21 82 -58q14 -18 0 -34
q-18 -14 -34 1q-29 30 -68 47q-38 17 -83 17q-88 -2 -147 -61t-61 -147v0zM280 113q-2 -22 -24 -24q-22 2 -24 24v112v0q2 22 24 24q22 -2 24 -24v-112v0zM256 345q14 0 23 -9v0v0q9 -9 9 -23t-9 -23t-23 -9t-23 9t-9 23t9 23t23 9v0zM625 136q-17 -14 -34 0l-111 111v0
l-47 -47v0q-17 -14 -34 0q-14 17 0 34l64 64v0q17 14 34 0l128 -128v0q14 -17 0 -34v0z" />
</svg>
