<?xml version="1.0" standalone="no"?>
<!DOCTYPE svg PUBLIC "-//W3C//DTD SVG 1.1//EN" "http://www.w3.org/Graphics/SVG/1.1/DTD/svg11.dtd" >
<svg xmlns="http://www.w3.org/2000/svg" xmlns:xlink="http://www.w3.org/1999/xlink" version="1.1" viewBox="-10 -40 532 512">
   <path fill="currentColor"
d="M464 217q0 -57 -28 -104v0v0q-27 -47 -76 -76q-49 -28 -104 -28t-104 28q-49 29 -76 76q-28 47 -28 104t28 104q27 47 76 76q49 28 104 28t104 -28q49 -29 76 -76q28 -47 28 -104v0zM0 217q1 -70 34 -128v0v0q34 -58 94 -94q61 -34 128 -34t128 34q60 36 94 94
q33 58 34 128q-1 70 -34 128q-34 58 -94 94q-61 34 -128 34t-128 -34q-60 -36 -94 -94q-33 -58 -34 -128v0zM208 105q1 -20 14 -34v0v0q14 -13 34 -14q20 1 34 14q13 14 14 34v112v0q-1 20 -14 34q-14 13 -34 14q-20 -1 -34 -14q-13 -14 -14 -34v-112v0zM152 193q22 2 24 24
q1 34 23 57q23 22 57 23q34 -1 57 -23q22 -23 23 -57q2 -22 24 -24q22 2 24 24q-1 48 -30 82t-74 44v10v0q-2 22 -24 24q-22 -2 -24 -24v-10v0q-45 -10 -74 -44t-30 -82q2 -22 24 -24v0z" />
</svg>
