<?xml version="1.0" standalone="no"?>
<!DOCTYPE svg PUBLIC "-//W3C//DTD SVG 1.1//EN" "http://www.w3.org/Graphics/SVG/1.1/DTD/svg11.dtd" >
<svg xmlns="http://www.w3.org/2000/svg" xmlns:xlink="http://www.w3.org/1999/xlink" version="1.1" viewBox="-10 -40 532 512">
   <path fill="currentColor"
d="M256 9q57 0 104 28v0v0q47 27 76 76q28 49 28 104t-28 104q-29 49 -76 76q-47 28 -104 28t-104 -28q-47 -27 -76 -76q-28 -49 -28 -104t28 -104q29 -49 76 -76q47 -28 104 -28v0zM256 473q70 -1 128 -34v0v0q58 -34 94 -94q34 -61 34 -128t-34 -128q-36 -60 -94 -94
q-58 -33 -128 -34q-70 1 -128 34q-58 34 -94 94q-34 61 -34 128t34 128q36 60 94 94q58 33 128 34v0zM256 57q-20 1 -34 14v0v0q-13 14 -14 34v112v0q1 20 14 34q14 13 34 14q20 -1 34 -14q13 -14 14 -34h-24v0q-15 -1 -16 -16q1 -15 16 -16h24v0v-32v0h-24v0
q-15 -1 -16 -16q1 -15 16 -16h24v0v-16v0q-1 -20 -14 -34q-14 -13 -34 -14v0zM176 217q-2 -22 -24 -24q-22 2 -24 24q1 48 30 82t74 44v10v0q2 22 24 24q22 -2 24 -24v-10v0q45 -10 74 -44t30 -82q-2 -22 -24 -24q-22 2 -24 24q-1 34 -23 57q-23 22 -57 23q-34 -1 -57 -23
q-22 -23 -23 -57v0z" />
</svg>
