<?xml version="1.0" standalone="no"?>
<!DOCTYPE svg PUBLIC "-//W3C//DTD SVG 1.1//EN" "http://www.w3.org/Graphics/SVG/1.1/DTD/svg11.dtd" >
<svg xmlns="http://www.w3.org/2000/svg" xmlns:xlink="http://www.w3.org/1999/xlink" version="1.1" viewBox="-10 -40 340 512">
   <path fill="currentColor"
d="M272 217q0 -30 -15 -56v0v0q-15 -26 -41 -41t-56 -15t-56 15t-41 41t-15 56t15 56t41 41t56 15t56 -15t41 -41t15 -56v0zM0 217q0 -43 21 -80v0v0q22 -37 59 -59q38 -21 80 -21t80 21q37 22 59 59q21 37 21 80t-21 80q-22 37 -59 59q-38 21 -80 21t-80 -21
q-37 -22 -59 -59q-21 -37 -21 -80v0z" />
</svg>
