<?xml version="1.0" standalone="no"?>
<!DOCTYPE svg PUBLIC "-//W3C//DTD SVG 1.1//EN" "http://www.w3.org/Graphics/SVG/1.1/DTD/svg11.dtd" >
<svg xmlns="http://www.w3.org/2000/svg" xmlns:xlink="http://www.w3.org/1999/xlink" version="1.1" viewBox="-10 -40 532 512">
   <path fill="currentColor"
d="M48 169h416h-416h416v208v0q-1 15 -16 16h-384v0q-15 -1 -16 -16v-208v0zM400 121h-64h64h-64l80 -80v0h32v0q15 1 16 16l-64 64v0zM320 41l-80 80l80 -80l-80 80h-64v0l80 -80v0h64v0zM160 41l-80 80l80 -80l-80 80h-32v0v-32v0l48 -48v0h64v0zM512 121v-64v64v-64
q-1 -27 -19 -45t-45 -19h-384v0q-27 1 -45 19t-19 45v64v0v24v0v24v0v208v0q1 27 19 45t45 19h384v0q27 -1 45 -19t19 -45v-208v0v-24v0v-24v0z" />
</svg>
