<?xml version="1.0" standalone="no"?>
<!DOCTYPE svg PUBLIC "-//W3C//DTD SVG 1.1//EN" "http://www.w3.org/Graphics/SVG/1.1/DTD/svg11.dtd" >
<svg xmlns="http://www.w3.org/2000/svg" xmlns:xlink="http://www.w3.org/1999/xlink" version="1.1" viewBox="-10 -40 404 512">
   <path fill="currentColor"
d="M320 25h-40h40h-50q-6 -28 -27 -46q-21 -17 -51 -18q-30 1 -51 18q-21 18 -27 46h-10h-40q-27 1 -45 19t-19 45v320v0q1 27 19 45t45 19h256v0q27 -1 45 -19t19 -45v-320v0q-1 -27 -19 -45t-45 -19v0zM80 73v24v-24v24q2 22 24 24h88h88q22 -2 24 -24v-24v0h16v0
q15 1 16 16v320v0q-1 15 -16 16h-256v0q-15 -1 -16 -16v-320v0q1 -15 16 -16h16v0zM168 41q2 -22 24 -24q22 2 24 24q-2 22 -24 24q-22 -2 -24 -24v0zM160 201v48v-48v48h-48v0q-15 1 -16 16v32v0q1 15 16 16h48v0v48v0q1 15 16 16h32v0q15 -1 16 -16v-48v0h48v0
q15 -1 16 -16v-32v0q-1 -15 -16 -16h-48v0v-48v0q-1 -15 -16 -16h-32v0q-15 1 -16 16v0z" />
</svg>
