<?xml version="1.0" standalone="no"?>
<!DOCTYPE svg PUBLIC "-//W3C//DTD SVG 1.1//EN" "http://www.w3.org/Graphics/SVG/1.1/DTD/svg11.dtd" >
<svg xmlns="http://www.w3.org/2000/svg" xmlns:xlink="http://www.w3.org/1999/xlink" version="1.1" viewBox="-11 0 662 512">
   <path fill="currentColor"
d="M39 -34q-19 -12 -34 4q-12 19 4 34l592 464v0q19 12 34 -4q12 -19 -4 -34l-34 -26v0q41 -39 43 -99q-1 -42 -23 -75t-58 -50q1 -9 1 -19q-1 -51 -35 -85t-85 -35q-26 0 -49 10q-23 -27 -56 -42q-33 -16 -71 -16q-75 2 -123 53l-102 -80v0zM179 76q34 -34 85 -35
q56 2 91 42q24 24 56 12q13 -6 29 -6q31 1 51 21t21 51q0 6 -1 12q-2 16 5 30q8 14 23 21q24 11 38 32q15 22 15 49q-1 43 -33 69l-380 -298v0zM487 441l-60 -48l60 48l-60 -48h-283v0q-41 -1 -68 -28t-28 -68q0 -32 18 -56q17 -24 46 -34q26 -11 31 -37l-45 -36v0
q-2 13 -2 27v0v0q-43 16 -69 52t-27 84q2 61 42 102q41 40 102 42h320h23z" />
</svg>
