<?xml version="1.0" standalone="no"?>
<!DOCTYPE svg PUBLIC "-//W3C//DTD SVG 1.1//EN" "http://www.w3.org/Graphics/SVG/1.1/DTD/svg11.dtd" >
<svg xmlns="http://www.w3.org/2000/svg" xmlns:xlink="http://www.w3.org/1999/xlink" version="1.1" viewBox="-10 -40 532 512">
   <path fill="currentColor"
d="M320 449q-1 15 -14 22q-14 5 -26 -4l-80 -72v0q-8 -7 -8 -18t8 -18l80 -72v0q12 -9 26 -4q13 7 14 22v48v0h16v0q31 -1 51 -21t21 -51v-164v0q-25 -8 -40 -28q-16 -21 -16 -48q1 -34 23 -57q23 -22 57 -23q34 1 57 23q22 23 23 57q0 27 -16 48q-15 20 -40 28v164v0
q-1 51 -35 85t-85 35h-16v0v48v0zM464 41q0 -14 -9 -23v0v0q-9 -9 -23 -9t-23 9t-9 23t9 23t23 9t23 -9t9 -23v0zM192 -15q1 -15 14 -22q14 -5 26 4l80 72v0q8 7 8 18t-8 18l-80 72v0q-12 9 -26 4q-13 -7 -14 -22v-48v0h-16v0q-31 1 -51 21t-21 51v164v0q25 8 40 28
q16 21 16 48q-1 34 -23 57q-23 22 -57 23q-34 -1 -57 -23q-22 -23 -23 -57q0 -27 16 -48q15 -20 40 -28v-164v0q1 -51 35 -85t85 -35h16v0v-48v0zM48 393q0 14 9 23v0v0q9 9 23 9t23 -9t9 -23t-9 -23t-23 -9t-23 9t-9 23v0z" />
</svg>
