<?xml version="1.0" standalone="no"?>
<!DOCTYPE svg PUBLIC "-//W3C//DTD SVG 1.1//EN" "http://www.w3.org/Graphics/SVG/1.1/DTD/svg11.dtd" >
<svg xmlns="http://www.w3.org/2000/svg" xmlns:xlink="http://www.w3.org/1999/xlink" version="1.1" viewBox="-10 -40 596 512">
   <path fill="currentColor"
d="M330 41q-5 0 -7 4l-69 113v0q-17 26 -48 27h-182v0q-22 -2 -24 -24q2 -22 24 -24h182v0q5 0 7 -4l69 -113v0q17 -26 48 -27h222v0q22 2 24 24q-2 22 -24 24h-222v0zM206 281l62 108l-62 -108l62 108q2 4 7 4h277v0q22 2 24 24q-2 22 -24 24h-277v0q-32 -1 -49 -28
l-75 -132v0h-127v0q-22 -2 -24 -24q2 -22 24 -24h528v0q22 2 24 24q-2 22 -24 24h-346v0z" />
</svg>
