<?xml version="1.0" standalone="no"?>
<!DOCTYPE svg PUBLIC "-//W3C//DTD SVG 1.1//EN" "http://www.w3.org/Graphics/SVG/1.1/DTD/svg11.dtd" >
<svg xmlns="http://www.w3.org/2000/svg" xmlns:xlink="http://www.w3.org/1999/xlink" version="1.1" viewBox="-10 -40 660 512">
   <path fill="currentColor"
d="M270 387q-36 -31 -57 -75v0v0q-21 -44 -21 -95t21 -95t57 -75q-22 -6 -46 -6q-75 2 -124 52q-50 49 -52 124q2 75 52 124q49 50 124 52q24 0 46 -6v0zM252 281h136h-136h136q9 -23 11 -48h-158v0q2 25 11 48v0zM269 313q20 31 51 52q31 -21 52 -52h-103v0zM252 153
q-9 23 -11 48h158v0q-2 -25 -11 -48h-136v0zM372 121q-21 -31 -52 -51q-31 20 -51 51h103v0zM320 419q-44 22 -96 22q-63 -1 -113 -31q-51 -29 -80 -80q-30 -50 -31 -113q1 -63 31 -113q29 -51 80 -80q50 -30 113 -31q52 0 96 22q44 -22 96 -22q63 1 113 31q51 29 80 80
q30 50 31 113q-1 63 -31 113q-29 51 -80 80q-50 30 -113 31q-52 0 -96 -22v0z" />
</svg>
