<?xml version="1.0" standalone="no"?>
<!DOCTYPE svg PUBLIC "-//W3C//DTD SVG 1.1//EN" "http://www.w3.org/Graphics/SVG/1.1/DTD/svg11.dtd" >
<svg xmlns="http://www.w3.org/2000/svg" xmlns:xlink="http://www.w3.org/1999/xlink" version="1.1" viewBox="-10 -40 596 512">
   <path fill="currentColor"
d="M288 25q14 0 23 -9v0v0q9 -9 9 -23t-9 -23t-23 -9t-23 9t-9 23t9 23t23 9v0zM288 361q-41 -1 -71 -25v0v0q-29 -24 -38 -63h109v0q22 -2 24 -24q-2 -22 -24 -24h-109v0q9 -39 38 -63q30 -24 71 -25q48 1 79 33q32 31 33 79q-1 48 -33 79q-31 32 -79 33v0zM128 249
q0 43 21 80v0v0q22 37 59 59q38 21 80 21t80 -21q37 -22 59 -59q21 -37 21 -80t-21 -80q-22 -37 -59 -59q-38 -21 -80 -21t-80 21q-37 22 -59 59q-21 37 -21 80v0zM576 249q0 -14 -9 -23v0v0q-9 -9 -23 -9t-23 9t-9 23t9 23t23 9t23 -9t9 -23v0zM32 281q14 0 23 -9v0v0
q9 -9 9 -23t-9 -23t-23 -9t-23 9t-9 23t9 23t23 9v0zM128 57q0 -14 -9 -23v0v0q-9 -9 -23 -9t-23 9t-9 23t9 23t23 9t23 -9t9 -23v0zM480 89q14 0 23 -9v0v0q9 -9 9 -23t-9 -23t-23 -9t-23 9t-9 23t9 23t23 9v0zM128 441q0 -14 -9 -23v0v0q-9 -9 -23 -9t-23 9t-9 23t9 23
t23 9t23 -9t9 -23v0zM480 473q14 0 23 -9v0v0q9 -9 9 -23t-9 -23t-23 -9t-23 9t-9 23t9 23t23 9v0z" />
</svg>
