<?xml version="1.0" standalone="no"?>
<!DOCTYPE svg PUBLIC "-//W3C//DTD SVG 1.1//EN" "http://www.w3.org/Graphics/SVG/1.1/DTD/svg11.dtd" >
<svg xmlns="http://www.w3.org/2000/svg" xmlns:xlink="http://www.w3.org/1999/xlink" version="1.1" viewBox="-10 -40 532 512">
   <path fill="currentColor"
d="M80 121q0 20 7 38q5 18 -11 29l-19 11v0l-12 -20v0l12 20v0q-9 6 -9 16q2 16 18 18h126h57q10 0 17 7l38 37v0v-20v0q2 -22 24 -24h16v0q37 1 62 26t26 62v8v0v1v2q31 -33 32 -81q-2 -93 -59 -159q-11 -14 -2 -29q17 -26 31 -52q-43 7 -84 24q-10 4 -20 0
q-49 -25 -108 -26h-30v0q-48 1 -79 33q-32 31 -33 79v0zM278 369h66h-66h66q17 0 28 -12q12 -11 12 -28v-8v0q-2 -31 -32 -39v2v0q0 19 -13 32t-32 13t-32 -13l-36 -35v0h-23h-150q-28 -1 -47 -19q-18 -19 -19 -47q1 -37 32 -57l4 -2v0q-4 -17 -4 -35q2 -68 47 -113t113 -47
h30v0q65 1 120 26q25 -10 55 -18t59 -8q13 -1 25 11q9 14 8 24q-2 17 -10 33q-12 23 -27 46q58 75 60 176q-2 70 -49 117t-117 49h-2h-66q-16 26 -41 41q-26 15 -56 15h-5v0q-9 0 -14 -8q-4 -7 0 -15l28 -57v0l-28 -57v0q-4 -8 0 -15q5 -8 14 -8h5v0q30 0 56 15q25 15 41 41
v0zM136 121q2 -22 24 -24q22 2 24 24q-2 22 -24 24q-22 -2 -24 -24v0z" />
</svg>
