<?xml version="1.0" standalone="no"?>
<!DOCTYPE svg PUBLIC "-//W3C//DTD SVG 1.1//EN" "http://www.w3.org/Graphics/SVG/1.1/DTD/svg11.dtd" >
<svg xmlns="http://www.w3.org/2000/svg" xmlns:xlink="http://www.w3.org/1999/xlink" version="1.1" viewBox="-10 -40 404 512">
   <path fill="currentColor"
d="M48 409v-384v384v-384q1 -15 16 -16h160v0v80v0q0 14 9 23t23 9h80v0v288v0q-1 15 -16 16h-256v0q-15 -1 -16 -16v0zM64 -39q-27 1 -45 19v0v0q-18 18 -19 45v384v0q1 27 19 45t45 19h256v0q27 -1 45 -19t19 -45v-293v0q0 -27 -19 -46l-90 -90v0q-19 -19 -45 -19h-166v0z
M94 268q0 22 16 38l71 69v0q11 9 22 0l71 -69v0q16 -16 16 -38q0 -23 -15 -38q-16 -15 -38 -16h-2v0q-22 1 -38 16l-5 5v0l-5 -5v0q-16 -15 -38 -16h-2v0q-23 1 -38 16t-15 38v0z" />
</svg>
