<?xml version="1.0" standalone="no"?>
<!DOCTYPE svg PUBLIC "-//W3C//DTD SVG 1.1//EN" "http://www.w3.org/Graphics/SVG/1.1/DTD/svg11.dtd" >
<svg xmlns="http://www.w3.org/2000/svg" xmlns:xlink="http://www.w3.org/1999/xlink" version="1.1" viewBox="-10 -40 532 512">
   <path fill="currentColor"
d="M41 25q-17 0 -29 12v0v0q-12 12 -12 29q0 16 11 28l93 100v0v126v0q1 22 18 34l76 50v0q8 5 18 5q13 0 23 -10q9 -9 9 -23v-182v0l93 -100v0q11 -12 11 -28q0 -17 -12 -29t-29 -12h-270v0zM146 169l-89 -96l89 96l-89 -96h238v0l-89 96v0q-6 7 -6 16v163v0l-48 -32v0
v-131v0q0 -9 -6 -16v0zM344 353q-22 2 -24 24q2 22 24 24h144v0q22 -2 24 -24q-2 -22 -24 -24h-144v0zM320 217q2 22 24 24h144v0q22 -2 24 -24q-2 -22 -24 -24h-144v0q-22 2 -24 24v0zM408 33q-22 2 -24 24q2 22 24 24h80v0q22 -2 24 -24q-2 -22 -24 -24h-80v0z" />
</svg>
