<?xml version="1.0" standalone="no"?>
<!DOCTYPE svg PUBLIC "-//W3C//DTD SVG 1.1//EN" "http://www.w3.org/Graphics/SVG/1.1/DTD/svg11.dtd" >
<svg xmlns="http://www.w3.org/2000/svg" xmlns:xlink="http://www.w3.org/1999/xlink" version="1.1" viewBox="-10 -40 660 512">
   <path fill="currentColor"
d="M234 -7q-18 0 -30 12v0v0q-12 12 -12 30q0 14 9 26l135 172v0v64v0q0 19 15 32l93 73v0q17 11 34 3t18 -29v-143v0l135 -172v0q9 -12 9 -26q0 -18 -12 -30t-30 -12h-364v0zM379 210l-132 -169l132 169l-132 -169h339v0l-133 169v0q-5 7 -5 15v119v0l-64 -51v0v-68v0
q0 -8 -5 -15v0zM163 57h-121h121h-121q-18 0 -30 12t-12 30q0 14 9 26l135 172v0v32v0q0 19 15 32l93 73v0q17 11 34 3t18 -29v-111v0v0v0v-53v0l-10 -12v0l-33 42v0q-5 7 -5 15v87v0l-64 -51v0v-36v0q0 -8 -5 -15l-132 -169v0h140v0l-19 -25v0q-9 -10 -13 -23v0z" />
</svg>
