<?xml version="1.0" standalone="no"?>
<!DOCTYPE svg PUBLIC "-//W3C//DTD SVG 1.1//EN" "http://www.w3.org/Graphics/SVG/1.1/DTD/svg11.dtd" >
<svg xmlns="http://www.w3.org/2000/svg" xmlns:xlink="http://www.w3.org/1999/xlink" version="1.1" viewBox="-10 -40 596 512">
   <path fill="currentColor"
d="M48 57v320v-320v320q1 15 16 16h204v0q10 26 28 48h-232v0q-27 -1 -45 -19t-19 -45v-320v0q1 -27 19 -45t45 -19h246v0q26 0 45 19l74 74v0l-34 34v0l-74 -74v0l-1 -1v100v0q-2 22 -24 24h-192v0q-22 -2 -24 -24v-104v0h-16v0q-15 1 -16 16v0zM429 86q19 19 19 46v22v0
q-8 -1 -16 -1q-16 0 -32 3v-24v0q0 -7 -5 -12l34 -34v0zM256 329v7v0v0v0q-14 9 -32 9q-27 -1 -45 -19t-19 -45q1 -27 19 -45t45 -19q35 1 53 28q-20 38 -21 84v0zM128 41v80v-80v80h144v0v-80v0h-144v0zM288 329q0 -39 19 -72v0v0q19 -33 53 -53q34 -19 72 -19t72 19
q34 20 53 53t19 72t-19 72t-53 53q-34 19 -72 19t-72 -19q-34 -20 -53 -53t-19 -72v0zM429 262q-10 11 0 22l28 29v0h-89v0q-15 1 -16 16q1 15 16 16h89v0l-28 29v0q-10 11 0 22q11 10 22 0l56 -56v0q10 -11 0 -22l-56 -56v0q-11 -10 -22 0v0z" />
</svg>
