<?xml version="1.0" standalone="no"?>
<!DOCTYPE svg PUBLIC "-//W3C//DTD SVG 1.1//EN" "http://www.w3.org/Graphics/SVG/1.1/DTD/svg11.dtd" >
<svg xmlns="http://www.w3.org/2000/svg" xmlns:xlink="http://www.w3.org/1999/xlink" version="1.1" viewBox="-10 -40 532 512">
   <path fill="currentColor"
d="M64 -7q-27 1 -45 19v0v0q-18 18 -19 45v320v0q1 27 19 45t45 19h384v0q27 -1 45 -19t19 -45v-256v0q-1 -27 -19 -45t-45 -19h-158v0l-43 -43v0q-21 -21 -51 -21h-132v0zM48 57q1 -15 16 -16h132v0q10 0 17 7l45 45v0q12 12 29 12h161v0q15 1 16 16v256v0q-1 15 -16 16
h-384v0q-15 -1 -16 -16v-320v0zM353 225q10 -6 7 -18l-6 -12l-2 -4v0q-4 -6 -8 -11q-8 -9 -19 -3l-1 1v0q-13 6 -26 -2q-13 -7 -14 -22v-1v0q-1 -12 -12 -15q-8 -1 -16 -1t-16 1q-11 3 -12 15v1v0q-1 15 -14 22q-13 8 -26 2l-1 -1v0q-11 -6 -19 3q-4 5 -8 11l-2 4v0l-6 12
q-3 12 7 18l1 1v0q12 8 12 23t-12 23l-1 1v0q-10 6 -7 18l6 12l2 4v0q4 6 8 11q8 9 19 3h1v0q13 -7 26 1q13 7 14 22v1v0q1 12 12 15q8 1 16 1t16 -1q11 -3 12 -15v-1v0q1 -15 14 -22q13 -8 26 -1h1v0q11 6 19 -3q5 -5 8 -11l2 -4v0q4 -6 6 -12q4 -12 -7 -18l-1 -1v0
q-12 -8 -12 -23t12 -23l1 -1v0zM221 249q0 -15 10 -25v0v0q10 -10 25 -10t25 10t10 25t-10 25t-25 10t-25 -10t-10 -25v0z" />
</svg>
