<?xml version="1.0" standalone="no"?>
<!DOCTYPE svg PUBLIC "-//W3C//DTD SVG 1.1//EN" "http://www.w3.org/Graphics/SVG/1.1/DTD/svg11.dtd" >
<svg xmlns="http://www.w3.org/2000/svg" xmlns:xlink="http://www.w3.org/1999/xlink" version="1.1" viewBox="-10 -40 532 512">
   <path fill="currentColor"
d="M64 -7q-27 1 -45 19v0v0q-18 18 -19 45v320v0q1 27 19 45t45 19h384v0q27 -1 45 -19t19 -45v-256v0q-1 -27 -19 -45t-45 -19h-158v0l-43 -43v0q-21 -21 -51 -21h-132v0zM48 57q1 -15 16 -16h132v0q10 0 17 7l45 45v0q12 12 29 12h161v0q15 1 16 16v256v0q-1 15 -16 16
h-384v0q-15 -1 -16 -16v-320v0zM160 169q0 -14 -9 -23v0v0q-9 -9 -23 -9t-23 9t-9 23t9 23t23 9t23 -9t9 -23v0zM315 179q-7 -10 -19 -10t-19 10l-54 72v0l-20 -25v0q-8 -9 -19 -9t-19 9l-64 80v0q-8 12 -3 25q7 13 22 14h80h192q15 0 22 -13q6 -14 -3 -25l-96 -128v0z" />
</svg>
