<?xml version="1.0" standalone="no"?>
<!DOCTYPE svg PUBLIC "-//W3C//DTD SVG 1.1//EN" "http://www.w3.org/Graphics/SVG/1.1/DTD/svg11.dtd" >
<svg xmlns="http://www.w3.org/2000/svg" xmlns:xlink="http://www.w3.org/1999/xlink" version="1.1" viewBox="-10 -40 468 512">
   <path fill="currentColor"
d="M32 51v-26v26v-26h26v0v26v0h-26v0zM90 67v-58v58v-58q-2 -15 -16 -16h-58v0q-15 1 -16 16v58v0q1 10 9 14q3 2 7 2h58v0q3 0 7 -2q8 -4 9 -14v0zM74 113h-58h58h-58q-4 0 -7 1q-8 5 -9 15v57v0q1 10 9 15q3 1 7 1h58v0q3 0 7 -1q8 -5 9 -15v-57v0q-1 -10 -9 -15
q-4 -1 -7 -1v0zM74 232h-58h58h-58q-4 0 -7 2q-8 4 -9 14v58v0q1 10 9 14q3 2 7 2h58v0q3 0 7 -2q8 -4 9 -14v-58v0q-1 -10 -9 -14q-4 -2 -7 -2v0zM16 351q-4 0 -7 2q-8 4 -9 14v58v0q1 15 16 16h58v0q14 -1 16 -16v-58v0q-1 -10 -9 -14q-4 -2 -7 -2h-58v0zM32 170v-25v25
v-25h26v0v25v0h-26v0zM32 290v-26v26v-26h26v0v26v0h-26v0zM32 409v-26v26v-26h26v0v26v0h-26v0zM152 51v-26v26v-26h25v0v26v0h-25v0zM209 67v-58v58v-58q-1 -15 -16 -16h-57v0q-15 1 -16 16v58v0q0 10 9 14q3 2 7 2h57v0v0v0q4 0 7 -2q9 -4 9 -14v0zM193 113v0v0v0h-57v0
q-4 0 -7 1q-9 5 -9 15v57v0q0 10 9 15q3 1 7 1h57v0q4 0 7 -1q9 -5 9 -15v-57v0q0 -10 -9 -15q-3 -1 -7 -1v0zM193 232h-57h57h-57q-4 0 -7 2q-9 4 -9 14v58v0q0 10 9 14q3 2 7 2h57v0q4 0 7 -2q9 -4 9 -14v-58v0q0 -10 -9 -14q-3 -2 -7 -2v0zM136 351q-4 0 -7 2q-9 4 -9 14
v58v0q1 15 16 16h57v0q15 -1 16 -16v-58v0q0 -10 -9 -14q-3 -2 -7 -2h-57v0zM152 170v-25v25v-25h25v0v25v0h-25v0zM152 290v-26v26v-26h25v0v26v0h-25v0zM152 409v-26v26v-26h25v0v26v0h-25v0zM271 25h26h-26h26v26v0h-26v0v-26v0zM320 81q8 -4 9 -14v-58v0q-2 -15 -16 -16
h-58v0q-15 1 -16 16v58v0q0 10 9 14q3 2 7 2v0v0h58v0v0v0q3 0 7 -2v0zM320 114q-4 -1 -7 -1v0v0h-58v0v0v0q-4 0 -7 1q-9 5 -9 15v57v0q0 10 9 15q3 1 7 1h58v0q3 0 7 -1q8 -5 9 -15v-57v0q-1 -10 -9 -15v0zM320 234q-4 -2 -7 -2h-58v0q-4 0 -7 2q-9 4 -9 14v58v0
q0 10 9 14q3 2 7 2h58v0q3 0 7 -2q8 -4 9 -14v-58v0q-1 -10 -9 -14v0zM313 351h-58h58h-58q-4 0 -7 2q-9 4 -9 14v58v0q1 15 16 16h58v0q14 -1 16 -16v-58v0q-1 -10 -9 -14q-4 -2 -7 -2v0zM271 145h26h-26h26v25v0h-26v0v-25v0zM271 264h26h-26h26v26v0h-26v0v-26v0z
M271 384h26h-26h26v25v0h-26v0v-26v1zM390 51v-26v26v-26h26v0v26v0h-26v0zM448 67v-58v58v-58q-1 -15 -16 -16h-58v0q-14 1 -16 16v58v0q1 10 9 14q4 2 7 2v0v0h58v0v0v0q4 0 7 -2q8 -4 9 -14v0zM432 113v0v0v0h-58v0v0v0q-3 0 -7 1q-8 5 -9 15v57v0q1 10 9 15q4 1 7 1h58
v0q4 0 7 -1q8 -5 9 -15v-57v0q-1 -10 -9 -15q-3 -1 -7 -1v0zM432 232h-58h58h-58q-3 0 -7 2q-8 4 -9 14v58v0q1 10 9 14q4 2 7 2h58v0q4 0 7 -2q8 -4 9 -14v-58v0q-1 -10 -9 -14q-3 -2 -7 -2v0zM374 351q-3 0 -7 2q-8 4 -9 14v58v0q2 15 16 16h58v0q15 -1 16 -16v-58v0
q-1 -10 -9 -14q-3 -2 -7 -2h-58v0zM390 170v-25v25v-25h26v0v25v0h-26v0zM390 290v-26v26v-26h26v0v26v0h-26v0zM390 409v-26v26v-26h26v0v26v0h-26v0z" />
</svg>
