<?xml version="1.0" standalone="no"?>
<!DOCTYPE svg PUBLIC "-//W3C//DTD SVG 1.1//EN" "http://www.w3.org/Graphics/SVG/1.1/DTD/svg11.dtd" >
<svg xmlns="http://www.w3.org/2000/svg" xmlns:xlink="http://www.w3.org/1999/xlink" version="1.1" viewBox="-10 -40 522 512">
   <path fill="currentColor"
d="M176 9q15 1 16 16v16v0v0v0v128v0v0v0v96v0q1 27 19 45t45 19q23 0 40 -14q17 14 40 14q27 -1 45 -19t19 -45v-48v0v-16v0v-24v0v0v0v-88v0q1 -15 16 -16q15 1 16 16v210v0q0 2 -1 3v1q-6 51 -41 84q-36 34 -87 38h-2h-5h-8q-86 -1 -148 -61l-87 -88v0q-10 -11 0 -22
q11 -10 22 0l44 43v0q12 11 26 6q14 -7 15 -23v-255v0q1 -15 16 -16v0zM352 217v48v-48v48q-1 15 -16 16q-15 -1 -16 -16v-64v0q1 -15 16 -16q15 1 16 16v16v0zM352 113v26v-26v26q-8 -2 -16 -2q-12 0 -22 4q-18 -34 -58 -36q-8 0 -16 2v-82v0q-1 -27 -19 -45t-45 -19
q-27 1 -45 19t-19 45v198v0l-3 -3v0q-19 -19 -45 -19q-25 0 -45 19q-19 20 -19 45q0 26 19 45l88 88v0q36 36 83 56q46 19 98 19h8h8h2h3q67 -6 113 -50q46 -43 56 -109q2 -4 2 -9v-216v0q-1 -27 -19 -45t-45 -19q-27 1 -45 19t-19 45v24v0v0v0zM240 177v-8v8v-8
q1 -15 16 -16q15 1 16 16v32v0v64v0q-1 15 -16 16q-15 -1 -16 -16v-88v0v0v0z" />
</svg>
