<?xml version="1.0" standalone="no"?>
<!DOCTYPE svg PUBLIC "-//W3C//DTD SVG 1.1//EN" "http://www.w3.org/Graphics/SVG/1.1/DTD/svg11.dtd" >
<svg xmlns="http://www.w3.org/2000/svg" xmlns:xlink="http://www.w3.org/1999/xlink" version="1.1" viewBox="-11 0 523 512">
   <path fill="currentColor"
d="M336 43l-1 -8l1 8l-1 -8q-7 -34 -41 -41l-8 -1v0q-14 -4 -14 -18q4 -14 18 -14l9 1v0q27 5 45 23t23 45l1 9v0q1 14 -14 18q-14 1 -18 -14v0zM80 30q30 -27 66 -16q5 -10 13 -18q20 -19 45 -19q26 0 46 19l118 118v0v-5v0q1 -27 19 -45q18 -19 45 -19t45 19q18 18 19 45
v158v0v4v1v1q-2 85 -58 141t-140 59h-1h-1v0v0h-7v0q-82 -1 -141 -59l-113 -113v0q-19 -20 -19 -45q0 -26 19 -45q6 -6 12 -10l-1 -2v0q-19 -19 -19 -45q0 -25 19 -45q8 -8 19 -13q-12 -37 15 -66v0zM159 86v0v0v0l-22 -22v0q-12 -10 -23 0q-9 11 0 22l23 23v0v0v0l96 96v0
q14 17 0 34q-17 14 -34 0l-96 -96v0v0v0q-12 -10 -23 0q-9 11 0 22l40 40v0v0v0l56 57v0q14 17 0 34q-17 14 -34 0l-51 -51v0v0v0q-11 -10 -22 0q-10 11 0 22l113 114v0q45 43 107 44h7v0v0v0h1v0v0v0q63 -2 106 -44q42 -42 45 -106v-3v-5v-158v0q-1 -15 -16 -16
q-15 1 -16 16v63v0q-1 16 -15 22q-15 6 -26 -5l-159 -159v0q-11 -10 -23 0q-9 11 0 22l96 97v0q14 17 0 33q-17 14 -34 0l-96 -96v0zM14 329q14 -1 18 14l1 8v0q7 34 41 41l8 1v0q14 4 14 18q-4 15 -18 14l-9 -1v0q-27 -5 -45 -23t-23 -45l-1 -9v0q-1 -14 14 -18v0z" />
</svg>
