<?xml version="1.0" standalone="no"?>
<!DOCTYPE svg PUBLIC "-//W3C//DTD SVG 1.1//EN" "http://www.w3.org/Graphics/SVG/1.1/DTD/svg11.dtd" >
<svg xmlns="http://www.w3.org/2000/svg" xmlns:xlink="http://www.w3.org/1999/xlink" version="1.1" viewBox="-10 -40 596 512">
   <path fill="currentColor"
d="M64 73q-15 1 -16 16v256v0q1 15 16 16h20v0l81 -110v0q7 -10 19 -10t19 10l30 40v0l83 -127v0q7 -11 20 -11t20 11l129 197v0h27v0q15 -1 16 -16v-256v0q-1 -15 -16 -16h-448v0zM96 409h-32h32h-32q-27 -1 -45 -19t-19 -45v-256v0q1 -27 19 -45t45 -19h448v0q27 1 45 19
t19 45v256v0q-1 27 -19 45t-45 19h-40h-376zM160 121q14 0 23 9v0v0q9 9 9 23t-9 23t-23 9t-23 -9t-9 -23t9 -23t23 -9v0z" />
</svg>
