<?xml version="1.0" standalone="no"?>
<!DOCTYPE svg PUBLIC "-//W3C//DTD SVG 1.1//EN" "http://www.w3.org/Graphics/SVG/1.1/DTD/svg11.dtd" >
<svg xmlns="http://www.w3.org/2000/svg" xmlns:xlink="http://www.w3.org/1999/xlink" version="1.1" viewBox="-10 -40 340 512">
   <path fill="currentColor"
d="M0 17q2 -22 24 -24h80h192q22 2 24 24q-2 22 -24 24h-85v0q27 30 35 72h50v0q22 2 24 24q-2 22 -24 24h-50v0q-10 52 -49 86q-38 33 -93 34h-5v0l163 117v0q17 14 6 33q-15 17 -34 6l-224 -160v0q-13 -11 -9 -27q6 -16 23 -17h80v0q34 -1 59 -20q25 -20 34 -52h-173v0
q-22 -2 -24 -24q2 -22 24 -24h173v0q-9 -32 -34 -52q-25 -19 -59 -20h-80v0q-22 -2 -24 -24v0z" />
</svg>
