<?xml version="1.0" standalone="no"?>
<!DOCTYPE svg PUBLIC "-//W3C//DTD SVG 1.1//EN" "http://www.w3.org/Graphics/SVG/1.1/DTD/svg11.dtd" >
<svg xmlns="http://www.w3.org/2000/svg" xmlns:xlink="http://www.w3.org/1999/xlink" version="1.1" viewBox="-10 -40 530 512">
   <path fill="currentColor"
d="M48 133q1 -53 36 -88v0v0q35 -35 88 -36q50 1 84 33t40 81q-65 9 -109 52q-45 43 -56 106q-2 14 7 23q8 9 22 9h320v0q14 0 22 -9q9 -9 7 -23q-11 -63 -56 -107q-45 -43 -109 -52q-6 -69 -54 -114t-118 -47q-73 2 -122 50q-48 49 -50 122v316v0q2 22 24 24q22 -2 24 -24
v-316v0zM456 265h-272h272h-272q16 -43 52 -69t84 -27q48 1 84 27t52 69v0zM320 409q27 -1 45 -19v0v0q18 -18 19 -45h-128v0q1 27 19 45t45 19v0z" />
</svg>
