<?xml version="1.0" standalone="no"?>
<!DOCTYPE svg PUBLIC "-//W3C//DTD SVG 1.1//EN" "http://www.w3.org/Graphics/SVG/1.1/DTD/svg11.dtd" >
<svg xmlns="http://www.w3.org/2000/svg" xmlns:xlink="http://www.w3.org/1999/xlink" version="1.1" viewBox="-11 0 662 512">
   <path fill="currentColor"
d="M39 -34q-19 -12 -34 4q-12 19 4 34l592 464v0q19 12 34 -4q12 -19 -4 -34l-57 -44v0q30 -20 48 -51t18 -70q-1 -58 -39 -98q-37 -40 -95 -45l-8 -1v0q-22 1 -26 23q1 22 22 25l9 1v0q38 3 63 30q25 26 26 65q0 30 -16 54q-16 23 -43 35l-118 -93v0q32 -39 33 -92
q-2 -61 -42 -102q-41 -40 -102 -42h-160v0q-14 0 -27 3l-78 -62v0zM175 73h129h-129h129q41 1 68 28t28 68q-1 36 -23 62l-202 -158v0zM386 361h-50h50h-50q-41 -1 -68 -28t-28 -68q0 -9 2 -18l-41 -32v0q-9 24 -9 50q1 61 42 102q41 40 102 42h111v0l-61 -48v0zM68 111
l-38 -30l38 30l-38 -30q-29 37 -30 88q1 58 39 98q37 40 95 45l8 1v0q22 -1 26 -22q-1 -22 -22 -26h-9v0q-38 -4 -63 -31q-25 -26 -26 -65q1 -34 20 -58v0z" />
</svg>
