<?xml version="1.0" standalone="no"?>
<!DOCTYPE svg PUBLIC "-//W3C//DTD SVG 1.1//EN" "http://www.w3.org/Graphics/SVG/1.1/DTD/svg11.dtd" >
<svg xmlns="http://www.w3.org/2000/svg" xmlns:xlink="http://www.w3.org/1999/xlink" version="1.1" viewBox="-10 -40 596 512">
   <path fill="currentColor"
d="M0 217q2 -68 47 -113v0v0q45 -45 113 -47h72v0q22 2 24 24q-2 22 -24 24h-72v0q-48 1 -79 33q-32 31 -33 79q1 48 33 79q31 32 79 33h72v0q22 2 24 24q-2 22 -24 24h-72v0q-68 -2 -113 -47t-47 -113v0zM576 217q-2 68 -47 113v0v0q-45 45 -113 47h-72v0q-22 -2 -24 -24
q2 -22 24 -24h72v0q48 -1 79 -33q32 -31 33 -79q-1 -48 -33 -79q-31 -32 -79 -33h-72v0q-22 -2 -24 -24q2 -22 24 -24h72v0q68 2 113 47t47 113v0zM184 193h208h-208h208q22 2 24 24q-2 22 -24 24h-208v0q-22 -2 -24 -24q2 -22 24 -24v0z" />
</svg>
