<?xml version="1.0" standalone="no"?>
<!DOCTYPE svg PUBLIC "-//W3C//DTD SVG 1.1//EN" "http://www.w3.org/Graphics/SVG/1.1/DTD/svg11.dtd" >
<svg xmlns="http://www.w3.org/2000/svg" xmlns:xlink="http://www.w3.org/1999/xlink" version="1.1" viewBox="-10 -40 532 512">
   <path fill="currentColor"
d="M64 -7q-36 1 -55 32q-18 32 0 64q19 31 55 32q36 -1 55 -32q18 -32 0 -64q-19 -31 -55 -32v0zM184 33q-22 2 -24 24q2 22 24 24h304v0q22 -2 24 -24q-2 -22 -24 -24h-304v0zM184 193q-22 2 -24 24q2 22 24 24h304v0q22 -2 24 -24q-2 -22 -24 -24h-304v0zM184 353
q-22 2 -24 24q2 22 24 24h304v0q22 -2 24 -24q-2 -22 -24 -24h-304v0zM64 241q-22 -2 -24 -24q2 -22 24 -24q22 2 24 24q-2 22 -24 24v0zM64 153q-36 1 -55 32q-18 32 0 64q19 31 55 32q36 -1 55 -32q18 -32 0 -64q-19 -31 -55 -32v0zM40 377q2 -22 24 -24q22 2 24 24
q-2 22 -24 24q-22 -2 -24 -24v0zM128 377q-1 -36 -32 -55q-32 -18 -64 0q-31 19 -32 55q1 36 32 55q32 18 64 0q31 -19 32 -55v0z" />
</svg>
