<?xml version="1.0" standalone="no"?>
<!DOCTYPE svg PUBLIC "-//W3C//DTD SVG 1.1//EN" "http://www.w3.org/Graphics/SVG/1.1/DTD/svg11.dtd" >
<svg xmlns="http://www.w3.org/2000/svg" xmlns:xlink="http://www.w3.org/1999/xlink" version="1.1" viewBox="-10 -40 404 512">
   <path fill="currentColor"
d="M112 17q-2 -22 -24 -24q-22 2 -24 24v165v0l-46 12v0q-21 7 -17 29q7 21 29 17l34 -9v0v186v0q2 22 24 24h272v0q22 -2 24 -24q-2 -22 -24 -24h-248v0v-175v0l158 -42v0q21 -7 17 -29q-7 -21 -29 -17l-146 39v0v-152v0z" />
</svg>
