<?xml version="1.0" standalone="no"?>
<!DOCTYPE svg PUBLIC "-//W3C//DTD SVG 1.1//EN" "http://www.w3.org/Graphics/SVG/1.1/DTD/svg11.dtd" >
<svg xmlns="http://www.w3.org/2000/svg" xmlns:xlink="http://www.w3.org/1999/xlink" version="1.1" viewBox="-10 -40 468 512">
   <path fill="currentColor"
d="M400 89v320v-320v320q-1 15 -16 16h-320v0q-15 -1 -16 -16v-320v0h352v0zM64 -39q-27 1 -45 19v0v0q-18 18 -19 45v384v0q1 27 19 45t45 19h320v0q27 -1 45 -19t19 -45v-384v0q-1 -27 -19 -45t-45 -19h-320v0zM96 161q2 22 24 24h208v0q22 -2 24 -24q-2 -22 -24 -24h-208
v0q-22 2 -24 24v0zM96 257q2 22 24 24h208v0q22 -2 24 -24q-2 -22 -24 -24h-208v0q-22 2 -24 24v0zM96 353q2 22 24 24h112v0q22 -2 24 -24q-2 -22 -24 -24h-112v0q-22 2 -24 24v0z" />
</svg>
