<?xml version="1.0" standalone="no"?>
<!DOCTYPE svg PUBLIC "-//W3C//DTD SVG 1.1//EN" "http://www.w3.org/Graphics/SVG/1.1/DTD/svg11.dtd" >
<svg xmlns="http://www.w3.org/2000/svg" xmlns:xlink="http://www.w3.org/1999/xlink" version="1.1" viewBox="-10 -40 532 512">
   <path fill="currentColor"
d="M208 377q-1 -20 -14 -34v0v0q-14 -13 -34 -14h-96v0q-15 -1 -16 -16v-288v0q1 -15 16 -16h384v0q15 1 16 16v288v0q-1 15 -16 16h-139v0q-16 0 -28 10l-73 54v0v-16v0zM208 453v0v0v0l101 -76v0h139v0q27 -1 45 -19t19 -45v-288v0q-1 -27 -19 -45t-45 -19h-384v0
q-27 1 -45 19t-19 45v288v0q1 27 19 45t45 19h48h48v48v0v4v0v0v0v7v0v21v0q0 10 9 14t17 -1l17 -13v0l5 -4v0zM96 142q1 19 16 31l30 19v0q2 2 2 4q0 5 -5 5h-27v0q-15 1 -16 16q1 15 16 16h27v0q16 0 26 -11q11 -10 11 -26q-1 -19 -16 -31l-30 -19v0q-2 -2 -2 -4
q0 -5 5 -5h19v0q15 -1 16 -16q-1 -15 -16 -16h-19v0q-16 0 -26 11q-11 10 -11 26v0zM373 105q-16 0 -26 11v0v0q-11 10 -11 26q1 19 16 31l30 19v0q2 2 2 4q0 5 -5 5h-27v0q-15 1 -16 16q1 15 16 16h27v0q16 0 26 -11q11 -10 11 -26q-1 -19 -16 -31l-30 -19v0q-2 -2 -2 -4
q0 -5 5 -5h19v0q15 -1 16 -16q-1 -15 -16 -16h-19v0zM221 111q-7 -8 -18 -5q-10 4 -11 15v96v0q1 15 16 16q15 -1 16 -16v-48v0l19 26v0q5 6 13 6t13 -6l19 -26v0v48v0q1 15 16 16q15 -1 16 -16v-96v0q-1 -11 -11 -15q-11 -3 -18 5l-35 47v0l-35 -47v0z" />
</svg>
