<?xml version="1.0" standalone="no"?>
<!DOCTYPE svg PUBLIC "-//W3C//DTD SVG 1.1//EN" "http://www.w3.org/Graphics/SVG/1.1/DTD/svg11.dtd" >
<svg xmlns="http://www.w3.org/2000/svg" xmlns:xlink="http://www.w3.org/1999/xlink" version="1.1" viewBox="-10 -40 660 512">
   <path fill="currentColor"
d="M464 217q0 13 -2 26l50 -39v0q-4 -69 -39 -123q-35 -55 -91 -87q-57 -32 -126 -33q-72 1 -129 35q-58 34 -92 92q-34 57 -35 129q1 72 35 129q34 58 92 92q57 34 129 35q56 0 104 -22q47 -21 83 -59l7 -15v0h-18v0q-18 0 -31 -11q-58 57 -145 59q-88 -2 -147 -61
t-61 -147q2 -88 61 -147t147 -61q88 2 147 61t61 147v0zM192 113q-2 -22 -24 -24q-22 2 -24 24v48v0q2 22 24 24q22 -2 24 -24v-48v0zM280 113q-2 -22 -24 -24q-22 2 -24 24v48v0q2 22 24 24q22 -2 24 -24v-48v0zM368 113q-2 -22 -24 -24q-22 2 -24 24v48v0q2 22 24 24
q22 -2 24 -24v-48v0zM602 189q-10 -7 -20 0l-160 128v0q-8 7 -5 17q4 10 15 11h70v0l-52 105v0q-5 11 4 19q10 7 20 1l160 -128v0q8 -8 5 -18q-4 -10 -15 -11h-70v0l52 -105v0q5 -11 -4 -19v0z" />
</svg>
