<?xml version="1.0" standalone="no"?>
<!DOCTYPE svg PUBLIC "-//W3C//DTD SVG 1.1//EN" "http://www.w3.org/Graphics/SVG/1.1/DTD/svg11.dtd" >
<svg xmlns="http://www.w3.org/2000/svg" xmlns:xlink="http://www.w3.org/1999/xlink" version="1.1" viewBox="-10 -40 661 512">
   <path fill="currentColor"
d="M256 9q52 0 95 23v0v0q44 23 72 62q28 -12 52 7q8 8 17 16q-31 -70 -93 -113q-63 -42 -143 -43q-72 1 -129 35q-58 34 -92 92q-34 57 -35 129q1 72 35 129q34 58 92 92q57 34 129 35q51 0 95 -18q-19 -18 -33 -39q-29 9 -62 9q-88 -2 -147 -61t-61 -147q2 -88 61 -147
t147 -61v0zM368 113q-2 -22 -24 -24q-22 2 -24 24v48v0q1 18 18 23q14 -19 30 -38v-33v0zM192 113q-2 -22 -24 -24q-22 2 -24 24v48v0q2 22 24 24q22 -2 24 -24v-48v0zM280 113q-2 -22 -24 -24q-22 2 -24 24v48v0q2 22 24 24q22 -2 24 -24v-48v0zM480 473q68 -2 113 -47v0v0
q45 -45 47 -113q1 -24 -15 -61t-59 -81q-10 -9 -22 -9q-11 1 -21 10l-11 11v0l-46 -46v0q-10 -9 -22 -9q-9 0 -17 5q-36 27 -70 74q-34 48 -37 106q2 68 47 113t113 47v0zM544 361q-1 27 -19 45v0v0q-18 18 -45 19q-27 -1 -45 -19t-19 -45q2 -28 21 -52t34 -36q9 -7 18 0
q15 12 34 36t21 52v0z" />
</svg>
