<?xml version="1.0" standalone="no"?>
<!DOCTYPE svg PUBLIC "-//W3C//DTD SVG 1.1//EN" "http://www.w3.org/Graphics/SVG/1.1/DTD/svg11.dtd" >
<svg xmlns="http://www.w3.org/2000/svg" xmlns:xlink="http://www.w3.org/1999/xlink" version="1.1" viewBox="-10 -40 532 512">
   <path fill="currentColor"
d="M64 9h160h-160h160v-48v0h-160v0q-27 1 -45 19t-19 45v384v0q1 27 19 45t45 19h224v0q27 -1 45 -19t19 -45v-160v0h-48v0v160v0q-1 15 -16 16h-224v0q-15 -1 -16 -16v-384v0q1 -15 16 -16v0zM144 361q-15 1 -16 16q1 15 16 16h64v0q15 -1 16 -16q-1 -15 -16 -16h-64v0z
M280 -39q-22 2 -24 24q2 22 24 24q78 2 130 54t54 130q2 22 24 24q22 -2 24 -24q-1 -65 -32 -117t-83 -83t-117 -32v0zM288 217q14 0 23 -9v0v0q9 -9 9 -23t-9 -23t-23 -9t-23 9t-9 23t9 23t23 9v0zM256 81q2 22 24 24q37 1 62 26t26 62q2 22 24 24q22 -2 24 -24
q-1 -58 -40 -96q-38 -39 -96 -40q-22 2 -24 24v0z" />
</svg>
