<?xml version="1.0" standalone="no"?>
<!DOCTYPE svg PUBLIC "-//W3C//DTD SVG 1.1//EN" "http://www.w3.org/Graphics/SVG/1.1/DTD/svg11.dtd" >
<svg xmlns="http://www.w3.org/2000/svg" xmlns:xlink="http://www.w3.org/1999/xlink" version="1.1" viewBox="-10 -40 596 512">
   <path fill="currentColor"
d="M64 73q-15 1 -16 16v256v0q1 15 16 16h448v0q15 -1 16 -16v-256v0q-1 -15 -16 -16h-448v0zM0 89q1 -27 19 -45v0v0q18 -18 45 -19h448v0q27 1 45 19t19 45v256v0q-1 27 -19 45t-45 19h-448v0q-27 -1 -45 -19t-19 -45v-256v0zM288 121q26 0 48 13v0v0q22 13 35 35
q13 23 13 48t-13 48q-13 22 -35 35t-48 13t-48 -13t-35 -35q-13 -23 -13 -48t13 -48q13 -22 35 -35t48 -13v0z" />
</svg>
