<?xml version="1.0" standalone="no"?>
<!DOCTYPE svg PUBLIC "-//W3C//DTD SVG 1.1//EN" "http://www.w3.org/Graphics/SVG/1.1/DTD/svg11.dtd" >
<svg xmlns="http://www.w3.org/2000/svg" xmlns:xlink="http://www.w3.org/1999/xlink" version="1.1" viewBox="-10 -40 660 512">
   <path fill="currentColor"
d="M576 41q15 1 16 16v224v0q-1 15 -16 16h-416v0q-15 -1 -16 -16v-224v0q1 -15 16 -16h416v0zM160 -7q-27 1 -45 19v0v0q-18 18 -19 45v224v0q1 27 19 45t45 19h416v0q27 -1 45 -19t19 -45v-224v0q-1 -27 -19 -45t-45 -19h-416v0zM448 169q-1 -45 -40 -69q-40 -22 -80 0
q-39 24 -40 69q1 45 40 69q40 22 80 0q39 -24 40 -69v0zM48 81q-2 -22 -24 -24q-22 2 -24 24v240v0q1 51 35 85t85 35h400v0q22 -2 24 -24q-2 -22 -24 -24h-400v0q-31 -1 -51 -21t-21 -51v-240v0z" />
</svg>
