<?xml version="1.0" standalone="no"?>
<!DOCTYPE svg PUBLIC "-//W3C//DTD SVG 1.1//EN" "http://www.w3.org/Graphics/SVG/1.1/DTD/svg11.dtd" >
<svg xmlns="http://www.w3.org/2000/svg" xmlns:xlink="http://www.w3.org/1999/xlink" version="1.1" viewBox="-10 -40 468 512">
   <path fill="currentColor"
d="M384 41q15 1 16 16v224v0h-80v0q-14 0 -23 9t-9 23v80v0h-224v0q-15 -1 -16 -16v-320v0q1 -15 16 -16h320v0zM64 441h224h-224h230q26 0 45 -19l90 -90v0q19 -19 19 -45v-6v0v-224v0q-1 -27 -19 -45t-45 -19h-320v0q-27 1 -45 19t-19 45v320v0q1 27 19 45t45 19v0z
M128 321q-2 -22 -24 -24q-22 2 -24 24q2 22 24 24q22 -2 24 -24v0zM104 89q-22 2 -24 24q2 22 24 24q22 -2 24 -24q-2 -22 -24 -24v0zM128 217q-2 -22 -24 -24q-22 2 -24 24q2 22 24 24q22 -2 24 -24v0z" />
</svg>
