<?xml version="1.0" standalone="no"?>
<!DOCTYPE svg PUBLIC "-//W3C//DTD SVG 1.1//EN" "http://www.w3.org/Graphics/SVG/1.1/DTD/svg11.dtd" >
<svg xmlns="http://www.w3.org/2000/svg" xmlns:xlink="http://www.w3.org/1999/xlink" version="1.1" viewBox="-10 -40 660 512">
   <path fill="currentColor"
d="M272 9h-160h160h-160v160v0h160v0v-160v0zM112 -39h160h-160h160q20 1 34 14q13 14 14 34v160v0q-1 20 -14 34q-14 13 -34 14h-160v0q-20 -1 -34 -14q-13 -14 -14 -34v-160v0q1 -20 14 -34q14 -13 34 -14v0zM528 73h-96h96h-96v96v0h96v0v-96v0zM432 25h96h-96h96
q20 1 34 14q13 14 14 34v96v0q-1 20 -14 34q-14 13 -34 14h-96v0q-20 -1 -34 -14q-13 -14 -14 -34v-96v0q1 -20 14 -34q14 -13 34 -14v0zM0 305q2 -22 24 -24h64h528q22 2 24 24q-2 22 -24 24h-40v0v96v0h40v0q22 2 24 24q-2 22 -24 24h-64h-528q-22 -2 -24 -24
q2 -22 24 -24h40v0v-96v0h-40v0q-22 -2 -24 -24v0zM112 425h184h-184h184v-96v0h-184v0v96v0zM344 425h184h-184h184v-96v0h-184v0v96v0z" />
</svg>
