<?xml version="1.0" standalone="no"?>
<!DOCTYPE svg PUBLIC "-//W3C//DTD SVG 1.1//EN" "http://www.w3.org/Graphics/SVG/1.1/DTD/svg11.dtd" >
<svg xmlns="http://www.w3.org/2000/svg" xmlns:xlink="http://www.w3.org/1999/xlink" version="1.1" viewBox="-10 -40 660 512">
   <path fill="currentColor"
d="M48 42q20 8 92 22v0v0q72 15 180 17q108 -2 180 -17q72 -14 92 -22v350v0q-15 -6 -66 -17q-1 -2 -2 -3l-136 -208v0q-7 -11 -20 -11t-20 11l-83 127v0l-30 -40v0q-7 -10 -19 -10t-19 10l-88 120v0l-4 6q-43 10 -57 15v-350v0zM580 -5q-13 6 -82 21v0v0q-70 15 -178 17
q-108 -2 -178 -17q-69 -15 -82 -21q-7 -2 -14 -2q-20 0 -33 13t-13 33v356v0q0 20 13 33t33 13q7 0 14 -2q13 -6 82 -21q70 -15 178 -17q108 2 178 17q69 15 82 21q7 2 14 2q20 0 33 -13q12 -13 13 -33v-356v0q-1 -20 -13 -33q-13 -13 -33 -13q-7 0 -14 2v0zM144 201
q14 0 23 -9v0v0q9 -9 9 -23t-9 -23t-23 -9t-23 9t-9 23t9 23t23 9v0z" />
</svg>
