<?xml version="1.0" standalone="no"?>
<!DOCTYPE svg PUBLIC "-//W3C//DTD SVG 1.1//EN" "http://www.w3.org/Graphics/SVG/1.1/DTD/svg11.dtd" >
<svg xmlns="http://www.w3.org/2000/svg" xmlns:xlink="http://www.w3.org/1999/xlink" version="1.1" viewBox="-10 -40 532 512">
   <path fill="currentColor"
d="M96 -7q0 26 13 48v0v0q12 21 33 34q-62 11 -101 56q-40 46 -41 110q1 51 32 91q30 40 73 69q42 29 81 46q38 18 55 23q7 3 15 3t15 -3q17 -5 55 -23q39 -17 81 -46q43 -29 73 -69q31 -40 32 -91q-1 -64 -41 -110q-39 -45 -101 -56q21 -13 33 -34q13 -22 13 -48v-8v0
q-2 -22 -24 -24h-40v0q-41 1 -68 28t-28 68q-1 -41 -28 -68t-68 -28h-40v0q-22 2 -24 24v8v0zM168 121q44 1 76 28v0v0q32 26 42 68q5 22 26 24q10 0 17 -7q6 -7 5 -17q-8 -50 -40 -87q7 -1 13 -3q17 -6 37 -6q51 1 85 35t35 85q0 33 -23 63q-22 31 -61 58q-38 26 -73 42
t-51 21q-16 -5 -51 -21t-73 -42q-39 -27 -61 -58q-23 -30 -23 -63q1 -51 35 -85t85 -35v0z" />
</svg>
