<?xml version="1.0" standalone="no"?>
<!DOCTYPE svg PUBLIC "-//W3C//DTD SVG 1.1//EN" "http://www.w3.org/Graphics/SVG/1.1/DTD/svg11.dtd" >
<svg xmlns="http://www.w3.org/2000/svg" xmlns:xlink="http://www.w3.org/1999/xlink" version="1.1" viewBox="-10 -40 532 512">
   <path fill="currentColor"
d="M505 -32q14 17 0 34l-47 47v0q21 31 22 72q-1 47 -29 81q-23 28 -43 60q-21 33 -30 67q-13 49 -50 88q-59 56 -136 56t-136 -56q-56 -59 -56 -136t56 -136q39 -37 87 -50q35 -9 68 -30q32 -20 60 -43q34 -28 81 -29q41 1 72 22l47 -47v0q17 -14 34 0v0zM367 72l22 -22
l-22 22l22 -22q-17 -9 -37 -9q-29 0 -51 18q-28 24 -65 47q-38 24 -80 36q-37 9 -66 37q-42 44 -42 102q0 57 42 102q44 42 102 42q57 0 102 -42q28 -29 37 -66q12 -42 36 -80q23 -37 47 -65q17 -22 18 -51q0 -20 -9 -37l-22 22v0q-17 14 -34 0q-14 -17 0 -34v0zM288 281
q-1 41 -28 68v0v0q-27 27 -68 28q-15 -1 -16 -16q1 -15 16 -16q27 -1 45 -19t19 -45q1 -15 16 -16q15 1 16 16v0z" />
</svg>
