<?xml version="1.0" standalone="no"?>
<!DOCTYPE svg PUBLIC "-//W3C//DTD SVG 1.1//EN" "http://www.w3.org/Graphics/SVG/1.1/DTD/svg11.dtd" >
<svg xmlns="http://www.w3.org/2000/svg" xmlns:xlink="http://www.w3.org/1999/xlink" version="1.1" viewBox="-11 0 662 512">
   <path fill="currentColor"
d="M39 -34q-19 -12 -34 4q-12 19 4 34l592 464v0q19 12 34 -4q12 -19 -4 -34l-232 -182v0l150 -139v0q26 -26 27 -63q-1 -36 -25 -60t-60 -25q-37 1 -63 27l-152 164v0l-237 -186v0zM314 182l149 -161l-149 161l149 -161q12 -12 28 -12t26 11q11 10 11 26t-12 28l-155 144v0
l-47 -36v0zM334 326l-41 -32l41 32l-41 -32l-20 68v0q-4 12 -16 16l-108 33v0l50 -50v0v0h1q22 -2 24 -24q-2 -22 -24 -24q-22 2 -24 24v1v0l-50 50v0l33 -108v0q4 -12 16 -16l58 -17v0l-46 -36v0l-26 8v0q-35 12 -47 47l-48 155v0q-6 24 10 40t40 10l155 -47v0
q35 -13 47 -48l16 -50v0z" />
</svg>
