<?xml version="1.0" standalone="no"?>
<!DOCTYPE svg PUBLIC "-//W3C//DTD SVG 1.1//EN" "http://www.w3.org/Graphics/SVG/1.1/DTD/svg11.dtd" >
<svg xmlns="http://www.w3.org/2000/svg" xmlns:xlink="http://www.w3.org/1999/xlink" version="1.1" viewBox="-11 0 662 512">
   <path fill="currentColor"
d="M39 -34q-19 -12 -34 4q-12 19 4 34l592 464v0q19 12 34 -4q12 -19 -4 -34l-221 -173v0l147 -147v0q16 -17 18 -39t-10 -41l-8 -10l-40 -40v0q-19 -18 -45 -18q-25 0 -45 18l-163 163v0l-225 -177v0zM302 173l83 -83l-83 83l83 -83l62 62v0l-75 75v0l-70 -54v0zM341 326
l-38 -30l38 30l-38 -30l-84 84v0q-8 8 -17 11l-24 6v0l-55 17v0l16 -55v0l7 -24v0q3 -8 9 -15l1 -1v-1l78 -77v0l-38 -30v0l-73 73v0q-16 16 -23 38l-23 78v0l-12 42v0q-4 14 6 24q10 9 24 6l42 -12v0l78 -23v0q19 -6 34 -19l4 -4l88 -88v0z" />
</svg>
