<?xml version="1.0" standalone="no"?>
<!DOCTYPE svg PUBLIC "-//W3C//DTD SVG 1.1//EN" "http://www.w3.org/Graphics/SVG/1.1/DTD/svg11.dtd" >
<svg xmlns="http://www.w3.org/2000/svg" xmlns:xlink="http://www.w3.org/1999/xlink" version="1.1" viewBox="-11 0 662 512">
   <path fill="currentColor"
d="M39 -34q-19 -12 -34 4q-12 19 4 34l592 464v0q19 12 34 -4q12 -19 -4 -34l-221 -173v0l147 -147v0q16 -17 18 -39t-10 -41l-8 -10l-40 -40v0q-19 -18 -45 -18q-25 0 -45 18l-163 163v0l-225 -177v0zM302 173l83 -83l-83 83l83 -83l62 62v0l-75 75v0l-70 -54v0zM303 296
l-42 42l42 -42l-42 42l-49 -13v0l-13 -49v0l35 -35v0l-38 -30v0l-73 73v0q-4 4 -7 8l-1 1v0v0v0q-10 13 -15 29l-23 78v0l-12 42v0q-4 14 6 24q10 9 24 6l42 -12v0l78 -23v0q16 -5 29 -15v0v0h1v0q2 -2 3 -4h1l4 -4l88 -88v0l-38 -30v0zM161 320l8 31l-8 -31l8 31
q4 13 17 17l31 8v0l-7 11v0l-8 4l-24 7v0l-54 16v0l16 -55v0l7 -23v0q1 -5 3 -9l11 -7v0z" />
</svg>
