<?xml version="1.0" standalone="no"?>
<!DOCTYPE svg PUBLIC "-//W3C//DTD SVG 1.1//EN" "http://www.w3.org/Graphics/SVG/1.1/DTD/svg11.dtd" >
<svg xmlns="http://www.w3.org/2000/svg" xmlns:xlink="http://www.w3.org/1999/xlink" version="1.1" viewBox="-10 -40 652 512">
   <path fill="currentColor"
d="M160 -39q27 1 42 24q12 24 0 48q-15 23 -42 24q-27 -1 -42 -24q-12 -24 0 -48q15 -23 42 -24v0zM267 261l-37 -66l37 66l-37 -66l36 130v0q3 17 -15 20h-27v0v104v0q-2 22 -24 24q-22 -2 -24 -24v-104v0h-32v0v104v0q-2 22 -24 24q-22 -2 -24 -24v-104v0h-27v0
q-18 -2 -15 -20l36 -130v0l-37 66v0q-13 18 -33 9q-18 -13 -9 -33l52 -91v0q15 -27 41 -42q25 -15 56 -15t56 15q26 15 41 42l52 91v0q9 20 -9 33q-20 9 -33 -9v0zM155 141l-44 156l44 -156l-44 156h98v0l-44 -156v0q-1 -4 -5 -4q-3 0 -4 4h-1zM480 -39q27 1 42 24
q12 24 0 48q-15 23 -42 24q-27 -1 -42 -24q-12 -24 0 -48q15 -23 42 -24v0zM587 261l-37 -66l37 66l-37 -66l36 130v0q3 17 -15 20h-27v0v104v0q-2 22 -24 24q-22 -2 -24 -24v-104v0h-32v0v104v0q-2 22 -24 24q-22 -2 -24 -24v-104v0h-27v0q-18 -2 -15 -20l36 -130v0l-37 66
v0q-13 18 -33 9q-18 -13 -9 -33l52 -91v0q15 -27 41 -42q25 -15 56 -15q30 0 56 15t41 42l52 91v0q9 20 -9 33q-20 9 -33 -9v0zM475 141l-44 156l44 -156l-44 156h98v0l-44 -156v0q-1 -4 -5 -4q-3 0 -4 4h-1z" />
</svg>
