<?xml version="1.0" standalone="no"?>
<!DOCTYPE svg PUBLIC "-//W3C//DTD SVG 1.1//EN" "http://www.w3.org/Graphics/SVG/1.1/DTD/svg11.dtd" >
<svg xmlns="http://www.w3.org/2000/svg" xmlns:xlink="http://www.w3.org/1999/xlink" version="1.1" viewBox="-10 -40 522 512">
   <path fill="currentColor"
d="M192 25q-1 -36 -32 -55q-32 -18 -64 0q-31 19 -32 55q1 36 32 55q32 18 64 0q31 -19 32 -55v0zM106 169h44h-44h44q13 0 22 8q9 9 10 21l4 50v0q0 15 -15 17h-3h-82q-16 -2 -16 -17l4 -50v0q1 -12 10 -21q9 -8 22 -8v0zM144 313v136v-136v136q2 22 24 24q22 -2 24 -24
v-140v0q20 -7 32 -25t10 -40l-4 -50v0q-3 -31 -25 -52q-23 -20 -55 -21h-44v0q-32 1 -55 21q-22 21 -25 52l-4 50v0q-2 22 10 40t32 25v140v0q2 22 24 24q22 -2 24 -24v-136v0h32v0zM448 25q-1 -36 -32 -55q-32 -18 -64 0q-31 19 -32 55q1 36 32 55q32 18 64 0
q31 -19 32 -55v0zM368 169h32h-32h32q11 1 15 12l33 116v0h-128v0l33 -116v0q4 -11 15 -12v0zM368 121q-22 0 -38 13v0v0q-17 12 -23 33l-39 137v0q-4 16 5 28t26 13h21v0v104v0q2 22 24 24q22 -2 24 -24v-104v0h32v0v104v0q2 22 24 24q22 -2 24 -24v-104v0h22v0
q16 -1 25 -13t5 -28l-39 -137v0q-6 -21 -23 -33q-16 -13 -38 -13h-32v0z" />
</svg>
