<?xml version="1.0" standalone="no"?>
<!DOCTYPE svg PUBLIC "-//W3C//DTD SVG 1.1//EN" "http://www.w3.org/Graphics/SVG/1.1/DTD/svg11.dtd" >
<svg xmlns="http://www.w3.org/2000/svg" xmlns:xlink="http://www.w3.org/1999/xlink" version="1.1" viewBox="-10 -40 266 512">
   <path fill="currentColor"
d="M128 -39q36 1 55 32q18 32 0 64q-19 31 -55 32q-36 -1 -55 -32q-18 -32 0 -64q19 -31 55 -32v0zM97 181l-33 116l33 -116l-33 116h128v0l-33 -116v0q-4 -11 -15 -12h-32v0q-11 1 -15 12v0zM51 167q6 -21 23 -33v0v0q16 -13 38 -13h32v0q21 0 38 13q17 12 23 33l39 137v0
q4 16 -5 28t-26 13h-21v0v104v0q-2 22 -24 24q-22 -2 -24 -24v-104v0h-32v0v104v0q-2 22 -24 24q-22 -2 -24 -24v-104v0h-22v0q-16 -1 -25 -13t-5 -28l39 -137v0z" />
</svg>
