<?xml version="1.0" standalone="no"?>
<!DOCTYPE svg PUBLIC "-//W3C//DTD SVG 1.1//EN" "http://www.w3.org/Graphics/SVG/1.1/DTD/svg11.dtd" >
<svg xmlns="http://www.w3.org/2000/svg" xmlns:xlink="http://www.w3.org/1999/xlink" version="1.1" viewBox="-10 -40 660 512">
   <path fill="currentColor"
d="M640 105q0 -39 -19 -72v0v0q-19 -33 -53 -53q-34 -19 -72 -19t-72 19q-34 20 -53 53t-19 72t19 72t53 53q34 19 72 19t72 -19q34 -20 53 -53t19 -72v0zM496 25q15 1 16 16v48v0h32v0q15 1 16 16q-1 15 -16 16h-48v0q-15 -1 -16 -16v-64v0q1 -15 16 -16v0zM512 297
q0 -8 -1 -17q-7 1 -15 1q-17 0 -33 -3q1 9 1 19q0 23 -5 42q-14 -47 -51 -76t-88 -30h-96h-24q-22 2 -24 24v24v0v28v0l-120 -108v0l120 -108v0v28v0v24v0q2 22 24 24h24h108q-9 -23 -11 -48h-49h-48v-48v0v-16v0q-1 -20 -19 -29q-19 -8 -34 5l-160 144v0q-11 10 -11 24
t11 24l160 144v0q15 13 34 5q18 -9 19 -29v-16v0v-48v0h48h48q41 1 68 28t28 68q-1 26 -9 40q-3 5 -5 8q-4 5 -8 9h-1q0 1 -1 1q-7 8 -8 18q2 18 20 20q4 0 8 -2t11 -6v-1q4 -2 9 -6t11 -9q24 -19 46 -56q22 -38 23 -96v0z" />
</svg>
