<?xml version="1.0" standalone="no"?>
<!DOCTYPE svg PUBLIC "-//W3C//DTD SVG 1.1//EN" "http://www.w3.org/Graphics/SVG/1.1/DTD/svg11.dtd" >
<svg xmlns="http://www.w3.org/2000/svg" xmlns:xlink="http://www.w3.org/1999/xlink" version="1.1" viewBox="-10 -40 404 512">
   <path fill="currentColor"
d="M192 -39q22 2 24 24v10v0q59 10 97 53q38 44 39 105v16v0h8v0q22 2 24 24q-2 22 -24 24h-32h-304q-22 -2 -24 -24q2 -22 24 -24h8v0v-16v0q1 -61 39 -105q38 -43 97 -53v-10v0q2 -22 24 -24v0zM80 169h224h-224h224v-16v0q-1 -48 -33 -79q-31 -32 -79 -33q-48 1 -79 33
q-32 31 -33 79v16v0zM53 256q3 -7 11 -7t11 7l18 43v0q3 6 3 13v1v0q0 14 -9 23t-23 9t-23 -9t-9 -23v-1v0q0 -7 3 -13l18 -43v0zM163 299l18 -43l-18 43l18 -43q3 -7 11 -7t11 7l18 43v0q3 6 3 13v1v0q0 14 -9 23t-23 9t-23 -9t-9 -23v-1v0q0 -7 3 -13v0zM227 427l18 -43
l-18 43l18 -43q3 -7 11 -7t11 7l18 43v0q3 6 3 13v1v0q0 14 -9 23t-23 9t-23 -9t-9 -23v-1v0q0 -7 3 -13v0zM309 256q3 -7 11 -7t11 7l18 43v0q3 6 3 13v1v0q0 14 -9 23t-23 9t-23 -9t-9 -23v-1v0q0 -7 3 -13l18 -43v0zM99 427l18 -43l-18 43l18 -43q3 -7 11 -7t11 7l18 43
v0q3 6 3 13v1v0q0 14 -9 23t-23 9q-13 0 -22 -9t-10 -23v-1v0q0 -7 3 -13v0z" />
</svg>
