<?xml version="1.0" standalone="no"?>
<!DOCTYPE svg PUBLIC "-//W3C//DTD SVG 1.1//EN" "http://www.w3.org/Graphics/SVG/1.1/DTD/svg11.dtd" >
<svg xmlns="http://www.w3.org/2000/svg" xmlns:xlink="http://www.w3.org/1999/xlink" version="1.1" viewBox="-10 -40 532 512">
   <path fill="currentColor"
d="M288 41v352v-352v352h-224v0q-15 -1 -16 -16v-320v0q1 -15 16 -16h224v0zM512 57q-1 -27 -19 -45v0v0q-18 -18 -45 -19h-384v0q-27 1 -45 19t-19 45v320v0q1 27 19 45t45 19h384v0q27 -1 45 -19t19 -45v-320v0zM448 81q-2 22 -24 24h-48v0q-22 -2 -24 -24q2 -22 24 -24
h48v0q22 2 24 24v0zM424 153q22 2 24 24q-2 22 -24 24h-48v0q-22 -2 -24 -24q2 -22 24 -24h48v0zM448 273q-2 22 -24 24h-48v0q-22 -2 -24 -24q2 -22 24 -24h48v0q22 2 24 24v0z" />
</svg>
