<?xml version="1.0" standalone="no"?>
<!DOCTYPE svg PUBLIC "-//W3C//DTD SVG 1.1//EN" "http://www.w3.org/Graphics/SVG/1.1/DTD/svg11.dtd" >
<svg xmlns="http://www.w3.org/2000/svg" xmlns:xlink="http://www.w3.org/1999/xlink" version="1.1" viewBox="-10 -40 468 512">
   <path fill="currentColor"
d="M64 41q-15 1 -16 16v320v0q1 15 16 16h320v0q15 -1 16 -16v-320v0q-1 -15 -16 -16h-320v0zM0 57q1 -27 19 -45v0v0q18 -18 45 -19h320v0q27 1 45 19t19 45v320v0q-1 27 -19 45t-45 19h-320v0q-27 -1 -45 -19t-19 -45v-320v0zM224 89q41 1 68 28v0v0q27 27 28 68v64v0
q-1 41 -28 68t-68 28q-41 -1 -68 -28t-28 -68v-64v0q1 -41 28 -68t68 -28v0zM176 185v64v-64v64q1 20 14 34q14 13 34 14q20 -1 34 -14q13 -14 14 -34v-64v0q-1 -20 -14 -34q-14 -13 -34 -14q-20 1 -34 14q-13 14 -14 34v0z" />
</svg>
