<?xml version="1.0" standalone="no"?>
<!DOCTYPE svg PUBLIC "-//W3C//DTD SVG 1.1//EN" "http://www.w3.org/Graphics/SVG/1.1/DTD/svg11.dtd" >
<svg xmlns="http://www.w3.org/2000/svg" xmlns:xlink="http://www.w3.org/1999/xlink" version="1.1" viewBox="-10 -40 468 512">
   <path fill="currentColor"
d="M384 41q15 1 16 16v320v0q-1 15 -16 16h-320v0q-15 -1 -16 -16v-320v0q1 -15 16 -16h320v0zM64 -7q-27 1 -45 19v0v0q-18 18 -19 45v320v0q1 27 19 45t45 19h320v0q27 -1 45 -19t19 -45v-320v0q-1 -27 -19 -45t-45 -19h-320v0zM192 90q-22 -5 -31 15l-48 144v0
q-3 12 4 22t19 10h104v0v40v0q2 22 24 24q22 -2 24 -24v-40v0h8v0q22 -2 24 -24q-2 -22 -24 -24h-8v0v-56v0q-2 -22 -24 -24q-22 2 -24 24v56v0h-71v0l38 -112v0q5 -22 -15 -31v0z" />
</svg>
