<?xml version="1.0" standalone="no"?>
<!DOCTYPE svg PUBLIC "-//W3C//DTD SVG 1.1//EN" "http://www.w3.org/Graphics/SVG/1.1/DTD/svg11.dtd" >
<svg xmlns="http://www.w3.org/2000/svg" xmlns:xlink="http://www.w3.org/1999/xlink" version="1.1" viewBox="-10 -40 468 512">
   <path fill="currentColor"
d="M64 41q-15 1 -16 16v320v0q1 15 16 16h320v0q15 -1 16 -16v-320v0q-1 -15 -16 -16h-320v0zM0 57q1 -27 19 -45v0v0q18 -18 45 -19h320v0q27 1 45 19t19 45v320v0q-1 27 -19 45t-45 19h-320v0q-27 -1 -45 -19t-19 -45v-320v0zM144 217q1 34 23 57v0v0q23 22 57 23
q20 0 37 -9l-30 -30v0q-14 -17 0 -34q17 -14 34 0l30 30v0q9 -17 9 -37q-1 -34 -23 -57q-23 -22 -57 -23q-34 1 -57 23q-22 23 -23 57v0zM352 217q-1 41 -22 72l15 15v0q14 17 0 34q-17 14 -34 0l-15 -15v0q-31 21 -72 22q-54 -1 -90 -38q-37 -36 -38 -90q1 -54 38 -91
q36 -36 90 -37q54 1 91 37q36 37 37 91v0z" />
</svg>
