<?xml version="1.0" standalone="no"?>
<!DOCTYPE svg PUBLIC "-//W3C//DTD SVG 1.1//EN" "http://www.w3.org/Graphics/SVG/1.1/DTD/svg11.dtd" >
<svg xmlns="http://www.w3.org/2000/svg" xmlns:xlink="http://www.w3.org/1999/xlink" version="1.1" viewBox="-10 -40 596 512">
   <path fill="currentColor"
d="M384 17q2 -22 24 -24h144v0q22 2 24 24q-2 22 -24 24h-120v0v120v0q-2 22 -24 24h-104v0v104v0q-2 22 -24 24h-104v0v104v0q-2 22 -24 24h-128v0q-22 -2 -24 -24q2 -22 24 -24h104v0v-104v0q2 -22 24 -24h104v0v-104v0q2 -22 24 -24h104v0v-120v0z" />
</svg>
