<?xml version="1.0" standalone="no"?>
<!DOCTYPE svg PUBLIC "-//W3C//DTD SVG 1.1//EN" "http://www.w3.org/Graphics/SVG/1.1/DTD/svg11.dtd" >
<svg xmlns="http://www.w3.org/2000/svg" xmlns:xlink="http://www.w3.org/1999/xlink" version="1.1" viewBox="-10 -40 532 512">
   <path fill="currentColor"
d="M464 377q-1 15 -16 16h-320v0v-240v0h-128v0v224v0q1 27 19 45t45 19h384v0q27 -1 45 -19t19 -45v-320v0q-1 -27 -19 -45t-45 -19h-288v0v128v0h304v0v256v0zM64 -7q-27 1 -45 19v0v0q-18 18 -19 45v64v0h128v0v-128v0h-64v0zM415 207q3 -10 -4 -17l-32 -32v0
q-11 -10 -22 0l-32 32v0q-7 7 -4 17q5 9 15 10h16v0v48v0q-1 15 -16 16h-48v0v-16v0q0 -10 -10 -15q-10 -3 -17 4l-32 32v0q-10 11 0 22l32 32v0q7 7 17 4q9 -5 10 -15v-16v0h48v0q20 -1 34 -14q13 -14 14 -34v-48v0h16v0q10 0 15 -10v0z" />
</svg>
