<?xml version="1.0" standalone="no"?>
<!DOCTYPE svg PUBLIC "-//W3C//DTD SVG 1.1//EN" "http://www.w3.org/Graphics/SVG/1.1/DTD/svg11.dtd" >
<svg xmlns="http://www.w3.org/2000/svg" xmlns:xlink="http://www.w3.org/1999/xlink" version="1.1" viewBox="-10 -40 532 512">
   <path fill="currentColor"
d="M448 393h-320h320h-320v-152v0h336v0v136v0q-1 15 -16 16v0zM464 193h-336h336h-336v-152v0h320v0q15 1 16 16v136v0zM0 377q1 27 19 45v0v0q18 18 45 19h384v0q27 -1 45 -19t19 -45v-320v0q-1 -27 -19 -45t-45 -19h-384v0q-27 1 -45 19t-19 45v320v0z" />
</svg>
