<?xml version="1.0" standalone="no"?>
<!DOCTYPE svg PUBLIC "-//W3C//DTD SVG 1.1//EN" "http://www.w3.org/Graphics/SVG/1.1/DTD/svg11.dtd" >
<svg xmlns="http://www.w3.org/2000/svg" xmlns:xlink="http://www.w3.org/1999/xlink" version="1.1" viewBox="-10 -40 532 512">
   <path fill="currentColor"
d="M48 121v256v-256v256q1 15 16 16h384v0q15 -1 16 -16v-256v0h-336v0v64v0q1 15 16 16h32v0q15 1 16 16q-1 15 -16 16h-32v0q-8 0 -16 -3v51v0q1 15 16 16h96v0q15 1 16 16q-1 15 -16 16h-96v0q-20 -1 -34 -14q-13 -14 -14 -34v-96v0v-64v0h-48v0zM0 57q1 -27 19 -45v0v0
q18 -18 45 -19h384v0q27 1 45 19t19 45v320v0q-1 27 -19 45t-45 19h-384v0q-27 -1 -45 -19t-19 -45v-320v0zM224 201q1 -15 16 -16h160v0q15 1 16 16v32v0q-1 15 -16 16h-160v0q-15 -1 -16 -16v-32v0zM304 281h96h-96h96q15 1 16 16v32v0q-1 15 -16 16h-96v0q-15 -1 -16 -16
v-32v0q1 -15 16 -16v0z" />
</svg>
