<?xml version="1.0" standalone="no"?>
<!DOCTYPE svg PUBLIC "-//W3C//DTD SVG 1.1//EN" "http://www.w3.org/Graphics/SVG/1.1/DTD/svg11.dtd" >
<svg xmlns="http://www.w3.org/2000/svg" xmlns:xlink="http://www.w3.org/1999/xlink" version="1.1" viewBox="-10 -40 650 512">
   <path fill="currentColor"
d="M152 25q-2 -22 -24 -24q-22 2 -24 24v384v0q2 22 24 24q22 -2 24 -24v-384v0zM280 25q-2 -22 -24 -24q-22 2 -24 24v384v0q2 22 24 24q22 -2 24 -24v-384v0zM384 1q-22 2 -24 24v384v0q2 22 24 24q22 -2 24 -24v-384v0q-2 -22 -24 -24v0zM536 25q-2 -22 -24 -24
q-22 2 -24 24v384v0q2 22 24 24q22 -2 24 -24v-384v0z" />
</svg>
