<?xml version="1.0" standalone="no"?>
<!DOCTYPE svg PUBLIC "-//W3C//DTD SVG 1.1//EN" "http://www.w3.org/Graphics/SVG/1.1/DTD/svg11.dtd" >
<svg xmlns="http://www.w3.org/2000/svg" xmlns:xlink="http://www.w3.org/1999/xlink" version="1.1" viewBox="-10 -40 532 512">
   <path fill="currentColor"
d="M71 45q23 -38 41 -36h213v0q-5 7 -8 14q-28 54 -29 130q1 76 29 130q3 7 8 14h-213v0q-18 2 -41 -36q-22 -41 -23 -108q1 -67 23 -108v0zM400 9q18 -2 41 36q22 41 23 108q-1 67 -23 108q-23 38 -41 36q-18 2 -41 -36q-22 -41 -23 -108q1 -67 23 -108q23 -38 41 -36v0z
M464 312v105v-105v105q-1 7 -8 8h-240v0q-7 -1 -8 -8v-40v0h-48v0v40v0q1 24 16 40q16 15 40 16h240v0q24 -1 40 -16q15 -16 16 -40v-264v0q-1 -76 -28 -130q-14 -26 -35 -43q-21 -18 -49 -19h-288v0q-28 1 -49 19q-21 17 -34 43q-28 54 -29 130q1 76 29 130q13 26 34 43
q21 18 49 19h288v0q39 -2 64 -33v0zM424 153q0 -20 -7 -34v0v0q-7 -13 -17 -14q-10 1 -17 14q-7 14 -7 34t7 34q7 13 17 14q10 -1 17 -14q7 -14 7 -34v0z" />
</svg>
