<?xml version="1.0" standalone="no"?>
<!DOCTYPE svg PUBLIC "-//W3C//DTD SVG 1.1//EN" "http://www.w3.org/Graphics/SVG/1.1/DTD/svg11.dtd" >
<svg xmlns="http://www.w3.org/2000/svg" xmlns:xlink="http://www.w3.org/1999/xlink" version="1.1" viewBox="-10 -40 532 512">
   <path fill="currentColor"
d="M48 153q1 67 23 108q23 38 41 36h213v0q-5 -7 -8 -14q-28 -54 -29 -130q1 -76 29 -130q3 -7 8 -14h-213v0q-18 -2 -41 36q-22 41 -23 108v0zM359 45q-22 41 -23 108q1 67 23 108q23 38 41 36q18 2 41 -36q22 -41 23 -108q-1 -67 -23 -108q-23 -38 -41 -36q-18 -2 -41 36
v0zM464 417v-105v105v-105q-25 31 -64 33h-288v0q-28 -1 -49 -19q-21 -17 -34 -43q-28 -54 -29 -130q1 -76 29 -130q13 -26 34 -43q21 -18 49 -19h288v0q28 1 49 19q21 17 35 43q27 54 28 130v264v0q-1 24 -16 40q-16 15 -40 16h-240v0q-24 -1 -40 -16q-15 -16 -16 -40v-40
v0h48v0v40v0q1 7 8 8h240v0q7 -1 8 -8v0zM400 201q-10 -1 -17 -14v0v0q-7 -14 -7 -34t7 -34q7 -13 17 -14q10 1 17 14q7 14 7 34t-7 34q-7 13 -17 14v0zM112 153q15 1 16 16q-1 15 -16 16q-15 -1 -16 -16q1 -15 16 -16v0zM176 153q15 1 16 16q-1 15 -16 16q-15 -1 -16 -16
q1 -15 16 -16v0zM224 169q1 -15 16 -16q15 1 16 16q-1 15 -16 16q-15 -1 -16 -16v0z" />
</svg>
