<?xml version="1.0" standalone="no"?>
<!DOCTYPE svg PUBLIC "-//W3C//DTD SVG 1.1//EN" "http://www.w3.org/Graphics/SVG/1.1/DTD/svg11.dtd" >
<svg xmlns="http://www.w3.org/2000/svg" xmlns:xlink="http://www.w3.org/1999/xlink" version="1.1" viewBox="-10 -40 532 512">
   <path fill="currentColor"
d="M57 -32l7 25l-7 -25l7 25l25 7v0q7 2 7 9t-7 9l-25 7v0l-7 25v0q-2 7 -9 7t-9 -7l-7 -25v0l-25 -7v0q-7 -2 -7 -9t7 -9l25 -7v0l7 -25v0q2 -7 9 -7t9 7v0zM473 320l7 25l-7 -25l7 25l25 7v0q7 2 7 9t-7 9l-25 7v0l-7 25v0q-2 7 -9 7t-9 -7l-7 -25v0l-25 -7v0q-7 -2 -7 -9
t7 -9l25 -7v0l7 -25v0q2 -7 9 -7t9 7v0zM96 449q2 -22 24 -24h272v0q22 2 24 24q-2 22 -24 24h-272v0q-22 -2 -24 -24v0zM224 -39h64h-64h64q15 1 16 16q-1 15 -16 16h-64v0q-15 -1 -16 -16q1 -15 16 -16v0zM112 217h288h-288h288q15 1 16 16q-1 15 -16 16h-288v0
q-15 -1 -16 -16q1 -15 16 -16v0z" />
</svg>
