<?xml version="1.0" standalone="no"?>
<!DOCTYPE svg PUBLIC "-//W3C//DTD SVG 1.1//EN" "http://www.w3.org/Graphics/SVG/1.1/DTD/svg11.dtd" >
<svg xmlns="http://www.w3.org/2000/svg" xmlns:xlink="http://www.w3.org/1999/xlink" version="1.1" viewBox="-10 -40 468 512">
   <path fill="currentColor"
d="M171 13l-19 28l19 -28l-19 28h145v0l-19 -28v0q-3 -4 -7 -4h-94v0q-4 0 -7 4h1zM318 -14l36 55l-36 -55l36 55h14h56q22 2 24 24q-2 22 -24 24h-8v0v304v0q-1 34 -23 57q-23 22 -57 23h-224v0q-34 -1 -57 -23q-22 -23 -23 -57v-304v0h-8v0q-22 -2 -24 -24q2 -22 24 -24h8
h62l37 -55v0q17 -24 46 -25h94v0q29 1 46 25h1zM80 89v304v-304v304q0 14 9 23t23 9h224v0q14 0 23 -9t9 -23v-304v0h-288v0zM337 202l-128 128l128 -128l-128 128q-17 14 -34 0l-64 -64v0q-14 -17 0 -34q17 -14 34 0l47 47v0l111 -111v0q17 -14 34 0q14 17 0 34v0z" />
</svg>
