<?xml version="1.0" standalone="no"?>
<!DOCTYPE svg PUBLIC "-//W3C//DTD SVG 1.1//EN" "http://www.w3.org/Graphics/SVG/1.1/DTD/svg11.dtd" >
<svg xmlns="http://www.w3.org/2000/svg" xmlns:xlink="http://www.w3.org/1999/xlink" version="1.1" viewBox="-11 0 662 512">
   <path fill="currentColor"
d="M39 -34q-19 -12 -34 4q-12 19 4 34l592 464v0q19 12 34 -4q12 -19 -4 -34l-119 -93v0v-248v0h8v0q22 -2 24 -24q-2 -22 -24 -24h-8h-62l-36 -55v0q-18 -24 -47 -25h-94v0q-29 1 -46 25l-37 55v0h-14h-42l-95 -75v0zM196 89h268h-268h268v210v0l-48 -37v0v-109v0
q-1 -15 -16 -16q-15 1 -16 16v84v0l-48 -38v0v-46v0q-1 -15 -16 -16q-15 1 -16 16v21v0l-108 -85v0zM455 415q-9 10 -23 10h-224v0q-14 0 -23 -9t-9 -23v-197v0l-48 -38v0v235v0q1 34 23 57q23 22 57 23h224v0q38 -1 61 -28l-38 -30v0zM336 322l-32 -25l32 25l-32 -25v64v0
q1 15 16 16q15 -1 16 -16v-39v0zM224 234v127v-127v127q1 15 16 16q15 -1 16 -16v-102v0l-32 -25v0zM273 9h94h-94h94q4 0 7 4l19 28v0h-145v0l19 -28v0q2 -4 6 -4v0z" />
</svg>
