<?xml version="1.0" standalone="no"?>
<!DOCTYPE svg PUBLIC "-//W3C//DTD SVG 1.1//EN" "http://www.w3.org/Graphics/SVG/1.1/DTD/svg11.dtd" >
<svg xmlns="http://www.w3.org/2000/svg" xmlns:xlink="http://www.w3.org/1999/xlink" version="1.1" viewBox="-10 -40 660 512">
   <path fill="currentColor"
d="M96 25v96v-96v96q-1 20 -14 34q-14 13 -34 14q-20 -1 -34 -14q-13 -14 -14 -34v-16v0q1 -15 16 -16q15 1 16 16v16v0q1 15 16 16q15 -1 16 -16v-128v0q1 -19 16 -28q7 -4 16 -4h22h28q14 0 24 11l203 229v0h11v0v-88v0q1 -24 16 -40q16 -15 40 -16h50v0q33 1 55 25l81 94
v0q14 16 14 37v108v0q-1 24 -16 40q-16 15 -40 16h-8v0q-1 41 -28 68t-68 28q-41 -1 -68 -28t-28 -68h-128v0q-1 41 -28 68t-68 28q-41 -1 -68 -28t-28 -68h-8v0q-24 -1 -40 -16q-15 -16 -16 -40v-64v0q1 -24 16 -40q16 -15 40 -16h128v0l-88 -176v0zM243 329h154h-154h154
q13 -22 34 -35q22 -13 49 -13t49 13q21 13 34 35h21v0q7 -1 8 -8v-72v0h-160h-376q-7 1 -8 8v64v0q1 7 8 8h21v0q13 -22 34 -35q22 -13 49 -13t49 13q21 13 34 35v0zM146 17l92 184l-92 -184l92 184h71v0l-163 -184v0zM584 201l-76 -88l76 88l-76 -88q-7 -8 -18 -8h-50v0
q-7 1 -8 8v88v0h152v0zM208 377q-1 -27 -24 -42q-24 -12 -48 0q-23 15 -24 42q1 27 24 42q24 12 48 0q23 -15 24 -42v0zM480 425q27 -1 42 -24q12 -24 0 -48q-15 -23 -42 -24q-27 1 -42 24q-12 24 0 48q15 23 42 24v0z" />
</svg>
