<?xml version="1.0" standalone="no"?>
<!DOCTYPE svg PUBLIC "-//W3C//DTD SVG 1.1//EN" "http://www.w3.org/Graphics/SVG/1.1/DTD/svg11.dtd" >
<svg xmlns="http://www.w3.org/2000/svg" xmlns:xlink="http://www.w3.org/1999/xlink" version="1.1" viewBox="-10 -40 468 512">
   <path fill="currentColor"
d="M218 -38q6 -2 12 0l152 40v0q14 4 17 18t-7 23l-24 21v0v8v0q0 17 -15 25q-18 9 -51 16q-33 8 -78 8t-78 -8q-33 -7 -51 -16q-15 -8 -15 -25v-8v0l-24 -21v0q-10 -9 -7 -23t17 -18l152 -40v0zM183 27q-13 -6 -21 7q-6 14 7 21l48 24v0q7 4 14 0l48 -24v0q13 -7 7 -21
q-7 -13 -21 -7l-41 20v0l-41 -20v0zM98 130q21 8 43 13v10q1 35 24 59q24 23 59 24q35 -1 59 -24q23 -24 24 -59v-10q22 -5 43 -13q2 11 2 23q-1 54 -37 91q-37 36 -91 37q-54 -1 -91 -37q-36 -37 -37 -91q0 -12 2 -23v0zM51 425h138h-138h138q-4 -2 -7 -5l-65 -57v0
q-25 5 -42 22q-17 16 -24 40v0zM397 425q-7 -24 -24 -40v0v0q-17 -17 -42 -22l-65 57v0q-3 3 -7 5h138v0zM127 313q6 0 10 4l77 67v0q10 8 21 0l76 -67v0q5 -4 11 -4q54 5 89 42q36 37 37 92q-2 24 -26 26h-396v0q-24 -2 -26 -26q1 -55 37 -92q35 -37 90 -42v0z" />
</svg>
