<?xml version="1.0" standalone="no"?>
<!DOCTYPE svg PUBLIC "-//W3C//DTD SVG 1.1//EN" "http://www.w3.org/Graphics/SVG/1.1/DTD/svg11.dtd" >
<svg xmlns="http://www.w3.org/2000/svg" xmlns:xlink="http://www.w3.org/1999/xlink" version="1.1" viewBox="-10 -40 596 512">
   <path fill="currentColor"
d="M64 9q-15 1 -16 16v352v0q1 15 16 16h448v0q15 -1 16 -16v-352v0q-1 -15 -16 -16h-448v0zM0 25q1 -27 19 -45v0v0q18 -18 45 -19h448v0q27 1 45 19t19 45v352v0q-1 27 -19 45t-45 19v8v0q-2 22 -24 24q-22 -2 -24 -24v-8v0h-352v0v8v0q-2 22 -24 24q-22 -2 -24 -24v-8v0
q-27 -1 -45 -19t-19 -45v-352v0zM320 201q0 -26 -13 -48v0v0q-13 -22 -35 -35q-23 -13 -48 -13t-48 13q-22 13 -35 35t-13 48t13 48t35 35q23 13 48 13t48 -13q22 -13 35 -35t13 -48v0zM80 201q0 -39 19 -72v0v0q19 -33 53 -53q34 -19 72 -19t72 19q34 20 53 53t19 72
t-19 72t-53 53q-34 19 -72 19t-72 -19q-34 -20 -53 -53t-19 -72v0zM224 153q27 1 42 24q12 24 0 48q-15 23 -42 24q-27 -1 -42 -24q-12 -24 0 -48q15 -23 42 -24v0zM496 137q-1 28 -24 42v110v0q-2 22 -24 24q-22 -2 -24 -24v-110v0q-23 -14 -24 -42q1 -20 14 -34
q14 -13 34 -14q20 1 34 14q13 14 14 34v0z" />
</svg>
