<?xml version="1.0" standalone="no"?>
<!DOCTYPE svg PUBLIC "-//W3C//DTD SVG 1.1//EN" "http://www.w3.org/Graphics/SVG/1.1/DTD/svg11.dtd" >
<svg xmlns="http://www.w3.org/2000/svg" xmlns:xlink="http://www.w3.org/1999/xlink" version="1.1" viewBox="-10 -40 404 512">
   <path fill="currentColor"
d="M64 9q1 -20 14 -34v0v0q14 -13 34 -14h160v0q20 1 34 14q13 14 14 34v18v0q28 6 46 27q17 21 18 51v224v0q-1 30 -18 51q-18 21 -46 27v18v0q-1 20 -14 34q-14 13 -34 14h-160v0q-20 -1 -34 -14q-13 -14 -14 -34v-18v0q-28 -6 -46 -27q-17 -21 -18 -51v-224v0
q1 -30 18 -51q18 -21 46 -27v-18v0zM80 73q-14 0 -23 9v0v0q-9 9 -9 23v224v0q0 14 9 23t23 9h224v0q14 0 23 -9t9 -23v-224v0q0 -14 -9 -23t-23 -9h-224v0zM216 145v61v-61v61l39 33v0q16 15 4 33q-16 16 -34 4l-48 -40v0q-9 -8 -9 -19v-72v0q2 -22 24 -24q22 2 24 24v0z
" />
</svg>
