<?xml version="1.0" standalone="no"?>
<!DOCTYPE svg PUBLIC "-//W3C//DTD SVG 1.1//EN" "http://www.w3.org/Graphics/SVG/1.1/DTD/svg11.dtd" >
<svg xmlns="http://www.w3.org/2000/svg" xmlns:xlink="http://www.w3.org/1999/xlink" version="1.1" viewBox="-10 -40 532 512">
   <path fill="currentColor"
d="M505 -32q14 17 0 34l-139 139v0q12 1 24 5l81 -82v0q17 -14 34 0q14 17 0 34l-71 71v0l8 8l17 17v0q14 17 0 34l-17 17v0q-26 25 -59 31q10 16 -3 31l-17 17v0q-26 26 -59 31q10 17 -3 31l-17 17v0q-34 33 -79 33t-79 -33l-11 -11v0v0v0l-74 74v0q-17 14 -34 0
q-14 -17 0 -34l74 -73v0v0v0l-12 -12v0q-32 -34 -32 -79t32 -79l17 -17v0q15 -13 31 -3q6 -33 31 -59l17 -17v0q15 -13 31 -3q6 -33 32 -59l16 -17v0q17 -14 34 0l17 17v0q5 4 8 9l72 -72v0q17 -14 34 0q14 17 0 34l-82 82v0q4 11 5 23l139 -139v0q17 -14 34 0v0zM262 64
q-19 20 -19 46v0v0q0 25 19 45l10 10v0q15 -24 13 -52q-3 -27 -23 -49v0zM182 144q-18 19 -18 45v0v0q0 25 18 45l10 10v0q16 -24 13 -52q-2 -27 -23 -48v0zM160 370q19 18 45 18v0v0q25 0 45 -18q-21 -21 -49 -23q-27 -3 -51 13l10 10v0zM103 313l10 10l-10 -10l10 10
q16 -24 13 -51q-2 -28 -23 -49q-19 19 -19 45q0 25 19 45v0zM239 291q20 18 45 18v0v0q26 0 45 -18q-21 -21 -49 -24q-27 -2 -51 13l10 10v1zM318 211q20 19 45 19v0v0q26 0 46 -19q-22 -20 -49 -23q-28 -2 -52 13l10 10v0z" />
</svg>
