<?xml version="1.0" standalone="no"?>
<!DOCTYPE svg PUBLIC "-//W3C//DTD SVG 1.1//EN" "http://www.w3.org/Graphics/SVG/1.1/DTD/svg11.dtd" >
<svg xmlns="http://www.w3.org/2000/svg" xmlns:xlink="http://www.w3.org/1999/xlink" version="1.1" viewBox="-10 -40 404 512">
   <path fill="currentColor"
d="M26 -7q-22 0 -26 22q0 22 22 26l22 2v0q16 2 26 13t10 27v54v0h-56v0q-22 2 -24 24q2 22 24 24h56v0v168v0q1 37 26 62t62 26h32v0q78 -2 130 -54t54 -130v-32v0q-1 -37 -26 -62t-62 -26h-16v0q-22 2 -24 24q2 22 24 24h16v0q17 0 28 12q12 11 12 28v32v0q-1 58 -40 96
q-38 39 -96 40h-32v0q-17 0 -28 -12q-12 -11 -12 -28v-168v0h40v0q22 -2 24 -24q-2 -22 -24 -24h-40v0v-54v0q-1 -35 -23 -59q-22 -25 -56 -29l-23 -2v0z" />
</svg>
