<?xml version="1.0" standalone="no"?>
<!DOCTYPE svg PUBLIC "-//W3C//DTD SVG 1.1//EN" "http://www.w3.org/Graphics/SVG/1.1/DTD/svg11.dtd" >
<svg xmlns="http://www.w3.org/2000/svg" xmlns:xlink="http://www.w3.org/1999/xlink" version="1.1" viewBox="-10 -40 532 512">
   <path fill="currentColor"
d="M275 16q64 -17 86 8q25 22 8 87q-20 65 -86 133q-68 66 -133 86q-65 17 -87 -8q-25 -22 -8 -87q20 -65 86 -133q69 -66 134 -86v0zM395 -10q-26 -25 -61 -28v0v0q-36 -3 -74 9q-78 24 -153 97q-73 75 -97 153q-12 38 -9 74q3 35 28 61l41 41v0q37 37 84 56q47 20 99 20
q72 -1 131 -35q58 -35 93 -93q34 -59 35 -131q0 -52 -20 -99q-19 -47 -56 -84l-41 -41v0zM423 88q36 50 41 111l-7 -7v0q-17 -14 -34 0q-14 17 0 34l36 36v0q-12 47 -41 83l-41 -41v0q-17 -14 -34 0q-14 17 0 34l41 41v0q-36 29 -83 41l-36 -36v0q-17 -14 -34 0q-14 17 0 34
l7 6v0q-61 -4 -110 -40q18 -3 36 -8q78 -25 153 -98q73 -75 98 -153q5 -18 8 -37v0zM256 217q48 -49 67 -93v0v0q19 -45 1 -65q-21 -18 -65 1q-45 19 -93 67t-67 93q-19 44 -1 65q20 18 65 -1q44 -19 93 -67v0z" />
</svg>
