<?xml version="1.0" standalone="no"?>
<!DOCTYPE svg PUBLIC "-//W3C//DTD SVG 1.1//EN" "http://www.w3.org/Graphics/SVG/1.1/DTD/svg11.dtd" >
<svg xmlns="http://www.w3.org/2000/svg" xmlns:xlink="http://www.w3.org/1999/xlink" version="1.1" viewBox="-10 -40 532 512">
   <path fill="currentColor"
d="M120 121q-24 -1 -40 -16v0v0q-15 -16 -16 -40q1 -24 16 -40q16 -15 40 -16q13 0 25 6q4 -24 21 -39q18 -14 42 -15q30 1 48 22q18 -21 48 -22q24 1 42 15q17 15 21 39q12 -6 25 -6q24 1 40 16q15 16 16 40q-1 24 -16 40q-16 15 -40 16h-40v0q-14 0 -23 9t-9 23v5v0
q0 16 12 27l9 6v0q17 9 34 0l18 -11v0q17 -10 33 0l21 13v0q8 4 16 4q6 1 13 -2l33 -13v0q3 17 3 35q0 8 -1 16q-4 68 -39 122t-91 86q-56 31 -125 32q-69 -1 -125 -32q-56 -32 -91 -86t-39 -122q-1 -8 -1 -16q0 -18 2 -35l34 13v0q7 3 13 2q8 0 16 -4l20 -13v0q17 -10 34 0
l18 11v0q17 9 34 0l9 -6v0q12 -11 12 -27v-5v0q0 -14 -9 -23t-23 -9h-40v0zM111 231l-9 -5l9 5l-9 -5l-12 7v0q-19 12 -40 12q12 78 69 128q56 50 137 52q81 -2 137 -52q57 -50 69 -128q-21 0 -40 -12l-12 -7v0l-9 5v0q-20 12 -43 12q-22 0 -42 -12l-9 -5v0l-9 5v0
q-19 12 -42 12t-42 -12l-9 -5v0l-9 5v0q-20 12 -42 12q-23 0 -43 -12v0zM176 265q14 0 23 9v0v0q9 9 9 23t-9 23t-23 9q-13 0 -22 -9t-10 -23q1 -14 10 -23t22 -9v0zM304 297q1 -14 10 -23v0v0q9 -9 22 -9q14 0 23 9t9 23t-9 23t-23 9q-13 0 -22 -9t-10 -23v0zM256 329
q20 1 34 14v0v0q13 14 14 34v5v0q-1 10 -11 11h-74v0q-10 -1 -11 -11v-5v0q1 -20 14 -34q14 -13 34 -14v0z" />
</svg>
