<?xml version="1.0" standalone="no"?>
<!DOCTYPE svg PUBLIC "-//W3C//DTD SVG 1.1//EN" "http://www.w3.org/Graphics/SVG/1.1/DTD/svg11.dtd" >
<svg xmlns="http://www.w3.org/2000/svg" xmlns:xlink="http://www.w3.org/1999/xlink" version="1.1" viewBox="-10 -40 533 512">
   <path fill="currentColor"
d="M48 185q2 -75 52 -124v0v0q49 -50 124 -52q42 0 78 18q1 0 1 2q1 1 1 3t-2 4l-227 227v0q-2 2 -4 2t-3 -1q-2 0 -2 -2q-18 -35 -18 -77v0zM224 -39q-63 1 -113 31v0v0q-51 29 -80 80v0v0q-30 50 -31 113q0 53 23 99q17 29 48 29q22 0 38 -16l227 -227v0q16 -16 16 -38
q0 -31 -29 -48q-46 -23 -99 -23v0zM480 57q14 0 23 -9v0v0q9 -9 9 -23t-9 -23t-23 -9t-23 9t-9 23t9 23t23 9v0zM352 473q14 0 23 -9v0v0q9 -9 9 -23t-9 -23t-23 -9t-23 9t-9 23t9 23t23 9v0zM32 441q0 14 9 23v0v0q9 9 23 9t23 -9t9 -23t-9 -23t-23 -9t-23 9t-9 23v0z
M359 128q-14 17 0 34l8 8v0q38 37 91 44l27 3v0q22 0 27 -21q0 -22 -21 -27l-28 -3v0q-36 -4 -62 -30l-8 -8v0q-17 -14 -34 0v0zM201 320q-17 -14 -34 0q-14 17 0 34l8 8v0q26 26 30 62l3 28v0q5 21 27 21q21 -5 21 -27l-3 -27v0q-6 -53 -44 -91l-8 -8v0zM504 467
q15 -15 2 -33l-8 -10v0q-8 -10 -7 -21q0 -33 -21 -56q-21 -22 -54 -25l-30 -2v0q-12 -1 -21 -10q-8 -9 -8 -21q1 -30 -18 -53l-9 -10v0q-16 -16 -34 -3q-15 16 -2 34l8 10v0q8 9 7 20q0 33 21 56q21 22 54 25l30 2v0q12 1 20 10q9 9 9 22q-1 29 18 53l9 10v0q15 15 33 2h1z
" />
</svg>
