<?xml version="1.0" standalone="no"?>
<!DOCTYPE svg PUBLIC "-//W3C//DTD SVG 1.1//EN" "http://www.w3.org/Graphics/SVG/1.1/DTD/svg11.dtd" >
<svg xmlns="http://www.w3.org/2000/svg" xmlns:xlink="http://www.w3.org/1999/xlink" version="1.1" viewBox="-10 -40 533 512">
   <path fill="currentColor"
d="M32 -7q0 -14 9 -23v0v0q9 -9 23 -9t23 9t9 23t-9 23t-23 9t-23 -9t-9 -23v0zM448 121q0 -14 9 -23v0v0q9 -9 23 -9t23 9t9 23t-9 23t-23 9t-23 -9t-9 -23v0zM480 377q14 0 23 9v0v0q9 9 9 23t-9 23t-23 9t-23 -9t-9 -23t9 -23t23 -9v0zM167 114q-14 -17 0 -34l8 -8v0
q26 -26 30 -62l3 -28v0q5 -21 27 -21q21 5 21 27l-3 27v0q-6 53 -44 91l-8 8v0q-17 14 -34 0v0zM359 272l8 -8l-8 8l8 -8q38 -38 91 -44l27 -3v0q22 0 27 21q0 22 -21 27l-28 3v0q-36 4 -62 30l-8 8v0q-17 14 -34 0q-14 -17 0 -34v0zM506 -30q13 18 -2 33l-10 9v0
q-24 19 -53 18q-13 0 -22 9q-9 8 -10 20l-2 30v0q-3 33 -25 54q-23 21 -56 21q-11 -1 -20 7l-10 8v0q-19 13 -34 -2q-13 -19 3 -34l10 -9v0q23 -19 53 -18q12 0 21 -8q9 -9 10 -21l2 -30v0q3 -33 25 -54q23 -21 56 -21q12 1 21 -7l10 -8v0q18 -13 33 2v1zM59 414l87 -33
l-87 33l87 -33l-54 -54v0l-33 87v0zM259 339l-125 -125l125 125l-125 -125l-24 64v0l86 85v0l63 -24v0zM98 174q7 -17 23 -20v0v0q17 -4 30 8l160 160v0q12 13 8 30q-3 16 -19 23l-257 96v0q-20 6 -33 -8q-14 -13 -8 -33l96 -256v0z" />
</svg>
