<?xml version="1.0" standalone="no"?>
<!DOCTYPE svg PUBLIC "-//W3C//DTD SVG 1.1//EN" "http://www.w3.org/Graphics/SVG/1.1/DTD/svg11.dtd" >
<svg xmlns="http://www.w3.org/2000/svg" xmlns:xlink="http://www.w3.org/1999/xlink" version="1.1" viewBox="-10 -40 532 512">
   <path fill="currentColor"
d="M416 9q-103 1 -186 50v0v0q-83 49 -132 132v0v0q-49 83 -50 186v48v0h48v0q103 -1 186 -50t132 -132t50 -186v-48v0h-48v0zM416 -39h48h-48h48q20 1 34 14q13 14 14 34v48v0q-1 116 -57 210q-55 94 -149 149q-94 56 -210 57h-48v0q-20 -1 -34 -14q-13 -14 -14 -34v-48v0
q1 -116 57 -210q55 -94 149 -149q94 -56 210 -57v0zM256 161q32 1 48 28q16 28 0 56q-16 27 -48 28q-32 -1 -48 -28q-16 -28 0 -56q16 -27 48 -28v0zM88 329q1 -32 28 -48q28 -16 56 0q27 16 28 48q-1 32 -28 48q-28 16 -56 0q-27 -16 -28 -48v0zM368 49q32 1 48 28
q16 28 0 56q-16 27 -48 28q-32 -1 -48 -28q-16 -28 0 -56q16 -27 48 -28v0z" />
</svg>
