<?xml version="1.0" standalone="no"?>
<!DOCTYPE svg PUBLIC "-//W3C//DTD SVG 1.1//EN" "http://www.w3.org/Graphics/SVG/1.1/DTD/svg11.dtd" >
<svg xmlns="http://www.w3.org/2000/svg" xmlns:xlink="http://www.w3.org/1999/xlink" version="1.1" viewBox="-10 -40 596 512">
   <path fill="currentColor"
d="M256 41q15 1 16 16v96v0q-1 15 -16 16h-192v0q-15 -1 -16 -16v-96v0q1 -15 16 -16h192v0zM64 -7q-27 1 -45 19v0v0q-18 18 -19 45v96v0q1 27 19 45t45 19h192v0q27 -1 45 -19t19 -45v-96v0q-1 -27 -19 -45t-45 -19h-192v0zM512 41q15 1 16 16v224v0q-1 15 -16 16h-64v0
q-15 -1 -16 -16v-224v0q1 -15 16 -16h64v0zM448 -7q-27 1 -45 19v0v0q-18 18 -19 45v224v0q1 27 19 45t45 19h64v0q27 -1 45 -19t19 -45v-224v0q-1 -27 -19 -45t-45 -19h-64v0zM128 313h144h-144h144q15 1 16 16v48v0q-1 15 -16 16h-144v0q-15 -1 -16 -16v-48v0
q1 -15 16 -16v0zM64 329v48v-48v48q1 27 19 45t45 19h144v0q27 -1 45 -19t19 -45v-48v0q-1 -27 -19 -45t-45 -19h-144v0q-27 1 -45 19t-19 45v0z" />
</svg>
