<?xml version="1.0" standalone="no"?>
<!DOCTYPE svg PUBLIC "-//W3C//DTD SVG 1.1//EN" "http://www.w3.org/Graphics/SVG/1.1/DTD/svg11.dtd" >
<svg xmlns="http://www.w3.org/2000/svg" xmlns:xlink="http://www.w3.org/1999/xlink" version="1.1" viewBox="-10 -40 532 512">
   <path fill="currentColor"
d="M256 -39q-37 0 -67 18v0v0q-30 17 -48 46q-60 3 -100 43q-40 41 -41 101q2 61 42 102q41 40 102 42q14 0 28 -3q33 34 84 35q51 -1 84 -35q14 3 28 3q61 -2 102 -42q40 -41 42 -102q-1 -60 -41 -101q-40 -40 -100 -43q-18 -29 -48 -46q-30 -18 -67 -18v0zM176 60
q11 -23 32 -37v0v0q21 -14 48 -14t48 14t32 37q7 14 24 13h8q41 1 68 28t28 68q-1 41 -28 68t-68 28q-15 0 -29 -4q-15 -4 -26 8q-21 27 -57 28q-36 -1 -57 -28q-11 -12 -26 -8q-14 4 -29 4q-41 -1 -68 -28t-28 -68q1 -41 28 -68t68 -28h9q16 1 23 -13v0zM192 393
q-1 -27 -24 -42q-24 -12 -48 0q-23 15 -24 42q1 27 24 42q24 12 48 0q23 -15 24 -42v0zM64 441q0 -14 -9 -23v0v0q-9 -9 -23 -9t-23 9t-9 23t9 23t23 9t23 -9t9 -23v0z" />
</svg>
