<?xml version="1.0" standalone="no"?>
<!DOCTYPE svg PUBLIC "-//W3C//DTD SVG 1.1//EN" "http://www.w3.org/Graphics/SVG/1.1/DTD/svg11.dtd" >
<svg xmlns="http://www.w3.org/2000/svg" xmlns:xlink="http://www.w3.org/1999/xlink" version="1.1" viewBox="-10 -40 468 512">
   <path fill="currentColor"
d="M218 -38l-152 40l152 -40l-152 40q-14 4 -17 18t7 23l24 21v0v8v0q0 17 15 25q18 9 51 16q33 8 78 8t78 -8q33 -7 51 -16q15 -8 15 -25v-8v0l24 -21v0q10 -9 7 -23t-17 -18l-152 -40v0q-6 -2 -12 0v0zM221 10q3 -2 6 0l32 12v0q5 3 5 8q0 14 -7 31q-8 17 -30 27
q-3 2 -6 0q-22 -10 -30 -27q-7 -17 -7 -31q0 -5 5 -8l32 -12v0zM96 153q1 54 37 91v0v0q37 36 91 37q54 -1 91 -37q36 -37 37 -91q0 -12 -2 -23q-21 8 -43 13v10q-1 35 -24 59q-24 23 -59 24q-35 -1 -59 -24q-23 -24 -24 -59v-10q-22 -5 -43 -13q-2 11 -2 23v0zM188 336
l20 41l-20 -41l20 41l-12 49v0v0v0l-1 -1v0v0v0l-62 -104v0q-5 -8 -14 -7q-52 7 -85 44t-34 89q2 24 26 26h142v0v0v0h1h23v0v0h64v0v0v0h2h22v0v0h142v0q24 -2 26 -26q-1 -52 -34 -89t-85 -44q-9 -1 -14 7l-62 104v0v0v0l-1 1v0v0v0l-12 -49v0l20 -41v0q4 -8 0 -15
q-5 -8 -14 -8h-44v0q-9 0 -14 8q-4 7 0 15v0zM139 425h-88h88h-88q12 -42 53 -58l35 58v0zM397 425h-88h88h-88l35 -58v0q40 16 53 58v0z" />
</svg>
