<?xml version="1.0" standalone="no"?>
<!DOCTYPE svg PUBLIC "-//W3C//DTD SVG 1.1//EN" "http://www.w3.org/Graphics/SVG/1.1/DTD/svg11.dtd" >
<svg xmlns="http://www.w3.org/2000/svg" xmlns:xlink="http://www.w3.org/1999/xlink" version="1.1" viewBox="-10 -40 596 512">
   <path fill="currentColor"
d="M229 62q-53 56 -53 120q0 49 32 83q39 36 96 31q57 -4 107 -52q53 -56 53 -120q0 -49 -32 -83q-34 -32 -83 -32q-64 0 -120 53v0zM195 28q33 -33 73 -50v0v0q40 -17 81 -17q67 -1 117 47q47 49 46 116q0 41 -17 81t-50 73q-43 43 -98 59t-107 1q-21 -7 -42 -5t-38 15
q8 9 8 22q0 12 -9 22l-72 72v0q-10 9 -23 9t-23 -9l-32 -32v0q-9 -10 -9 -23t9 -23l72 -72v0q10 -9 22 -9t22 8q13 -17 15 -38q2 -22 -5 -43q-7 -24 -7 -50q0 -41 17 -81t50 -73v0zM104 360l-49 49l49 -49l-49 49l9 9v0l49 -49v0l-9 -9v0zM512 313q20 1 34 14v0v0
q13 14 14 34v32v0h-96v0v-32v0q1 -20 14 -34q14 -13 34 -14v0zM462 409h33h-33h33l-16 53v0q-5 13 -20 10q-13 -5 -10 -20l13 -43v0zM496 409h32h-32h32v48v0q-1 15 -16 16q-15 -1 -16 -16v-48v0zM529 409h33h-33h33l13 43v0q3 15 -10 20q-15 3 -20 -10l-16 -53v0z" />
</svg>
