<?xml version="1.0" standalone="no"?>
<!DOCTYPE svg PUBLIC "-//W3C//DTD SVG 1.1//EN" "http://www.w3.org/Graphics/SVG/1.1/DTD/svg11.dtd" >
<svg xmlns="http://www.w3.org/2000/svg" xmlns:xlink="http://www.w3.org/1999/xlink" version="1.1" viewBox="-10 -40 660 512">
   <path fill="currentColor"
d="M318 -34q10 7 10 19v152v0h32v0q22 2 24 24q-2 22 -24 24h-56h-56q-22 -2 -24 -24q2 -22 24 -24h32v0v-119v0l-16 6v0q-22 5 -31 -15q-5 -22 15 -31l48 -16v0q12 -3 22 4v0zM94 254q10 7 10 19v152v0h32v0q22 2 24 24q-2 22 -24 24h-56h-56q-22 -2 -24 -24q2 -22 24 -24
h32v0v-119v0l-16 6v0q-22 5 -31 -15q-5 -22 15 -31l48 -16v0q12 -3 22 4v0zM72 -39h48h-48h48q31 1 51 21t21 51v80v0q-1 31 -21 51t-51 21h-48v0q-31 -1 -51 -21t-21 -51v-80v0q1 -31 21 -51t51 -21v0zM48 33v80v-80v80q2 22 24 24h48v0q22 -2 24 -24v-80v0q-2 -22 -24 -24
h-48v0q-22 2 -24 24v0zM192 321q1 -31 21 -51v0v0q20 -20 51 -21h48v0q13 0 25 5q-10 21 -14 45q-5 -2 -11 -2h-48v0q-22 2 -24 24v80v0q2 22 24 24h48v0v0v0h37v0q8 12 18 23q-21 24 -55 25h-48v0q-31 -1 -51 -21t-21 -51v-80v0zM352 329q0 -39 19 -72v0v0q19 -33 53 -53
q34 -19 72 -19t72 19q34 20 53 53t19 72t-19 72t-53 53q-34 19 -72 19t-72 -19q-34 -20 -53 -53t-19 -72v0zM563 286q-11 -10 -22 0l-61 60v0l-29 -28v0q-11 -10 -22 0q-10 11 0 22l40 40v0q11 10 22 0l72 -72v0q10 -11 0 -22v0z" />
</svg>
