<?xml version="1.0" standalone="no"?>
<!DOCTYPE svg PUBLIC "-//W3C//DTD SVG 1.1//EN" "http://www.w3.org/Graphics/SVG/1.1/DTD/svg11.dtd" >
<svg xmlns="http://www.w3.org/2000/svg" xmlns:xlink="http://www.w3.org/1999/xlink" version="1.1" viewBox="-10 -40 660 512">
   <path fill="currentColor"
d="M318 -34q-10 -7 -22 -4l-48 16v0q-20 9 -15 31q9 20 31 15l16 -6v0v119v0h-32v0q-22 2 -24 24q2 22 24 24h56h56q22 -2 24 -24q-2 -22 -24 -24h-32v0v-152v0q0 -12 -10 -19v0zM94 254q-10 -7 -22 -4l-48 16v0q-20 9 -15 31q9 20 31 15l16 -6v0v119v0h-32v0q-22 2 -24 24
q2 22 24 24h56h56q22 -2 24 -24q-2 -22 -24 -24h-32v0v-152v0q0 -12 -10 -19v0zM72 -39q-31 1 -51 21v0v0q-20 20 -21 51v80v0q1 31 21 51t51 21h48v0q31 -1 51 -21t21 -51v-80v0q-1 -31 -21 -51t-51 -21h-48v0zM48 33q2 -22 24 -24h48v0q22 2 24 24v80v0q-2 22 -24 24h-48
v0q-22 -2 -24 -24v-80v0zM192 321v80v-80v80q1 31 21 51t51 21h48v0q31 -1 51 -21t21 -51v-80v0q-1 -31 -21 -51t-51 -21h-48v0q-31 1 -51 21t-21 51v0zM264 297h48h-48h48q22 2 24 24v80v0q-2 22 -24 24h-48v0q-22 -2 -24 -24v-80v0q2 -22 24 -24v0zM528 201q14 0 23 9v0v0
q9 9 9 23v48v0h-64v0v-48v0q0 -14 9 -23t23 -9v0zM448 233v48v-48v48q-14 0 -23 9t-9 23v128v0q0 14 9 23t23 9h160v0q14 0 23 -9t9 -23v-128v0q0 -14 -9 -23t-23 -9v-48v0q-1 -34 -23 -57q-23 -22 -57 -23q-34 1 -57 23q-22 23 -23 57v0z" />
</svg>
