<?xml version="1.0" standalone="no"?>
<!DOCTYPE svg PUBLIC "-//W3C//DTD SVG 1.1//EN" "http://www.w3.org/Graphics/SVG/1.1/DTD/svg11.dtd" >
<svg xmlns="http://www.w3.org/2000/svg" xmlns:xlink="http://www.w3.org/1999/xlink" version="1.1" viewBox="-10 -40 532 512">
   <path fill="currentColor"
d="M128 68l-25 69l25 -69l-25 69h25v0v48v0h-32v0q-20 1 -34 14q-13 14 -14 34v80v0h416v0v-80v0q-1 -20 -14 -34q-14 -13 -34 -14h-32v0v-48v0h25v0l-25 -69v0q-10 -26 -37 -27h-182v0q-27 1 -37 27v0zM48 150l34 -98l-34 98l34 -98q10 -27 32 -43q23 -16 51 -16h182v0
q28 0 51 16q22 16 32 43l34 98v0q22 13 35 34q13 22 13 49v80v0v48v0v56v0q-2 22 -24 24q-22 -2 -24 -24v-56v0h-416v0v56v0q-2 22 -24 24q-22 -2 -24 -24v-56v0v-48v0v-80v0q0 -27 13 -49q13 -21 35 -34v0zM112 217q14 0 23 9v0v0q9 9 9 23t-9 23t-23 9t-23 -9t-9 -23
t9 -23t23 -9v0zM368 249q0 -14 9 -23v0v0q9 -9 23 -9t23 9t9 23t-9 23t-23 9t-23 -9t-9 -23v0zM315 78q8 9 3 19l-34 56v0h52v0q12 1 15 12t-6 18l-128 80v0q-11 5 -20 -3q-8 -9 -3 -19l34 -56v0h-52v0q-12 -1 -15 -12t7 -18l128 -80v0q10 -5 19 3v0z" />
</svg>
