<?xml version="1.0" standalone="no"?>
<!DOCTYPE svg PUBLIC "-//W3C//DTD SVG 1.1//EN" "http://www.w3.org/Graphics/SVG/1.1/DTD/svg11.dtd" >
<svg xmlns="http://www.w3.org/2000/svg" xmlns:xlink="http://www.w3.org/1999/xlink" version="1.1" viewBox="-10 -40 660 512">
   <path fill="currentColor"
d="M355 83q24 24 56 12q13 -6 29 -6q31 1 51 21t21 51q0 6 -1 12q-2 16 5 30q8 14 23 21q24 11 38 32q15 22 15 49q-1 36 -24 60q-23 25 -59 28h-2h-3h-360q-41 -1 -68 -28t-28 -68q0 -32 18 -56q17 -24 46 -34q30 -13 32 -46v0v0v0v0v0v0q1 -51 35 -85t85 -35q56 2 91 42v0
zM512 441v0v0v0q55 -5 91 -42q36 -38 37 -94q-1 -42 -23 -75t-58 -50q1 -9 1 -19q-1 -51 -35 -85t-85 -35q-26 0 -49 10q-23 -27 -56 -42q-33 -16 -71 -16q-71 2 -119 49q-47 48 -49 119v0v0q-43 16 -69 52t-27 84q2 61 42 102q41 40 102 42h320h48zM239 168q-14 17 0 34
l47 47v0l-47 47v0q-14 17 0 34q17 14 34 0l47 -47v0l47 47v0q17 14 34 0q14 -17 0 -34l-47 -47v0l47 -47v0q14 -17 0 -34q-17 -14 -34 0l-47 47v0l-47 -47v0q-17 -14 -34 0v0z" />
</svg>
