<?xml version="1.0" standalone="no"?>
<!DOCTYPE svg PUBLIC "-//W3C//DTD SVG 1.1//EN" "http://www.w3.org/Graphics/SVG/1.1/DTD/svg11.dtd" >
<svg xmlns="http://www.w3.org/2000/svg" xmlns:xlink="http://www.w3.org/1999/xlink" version="1.1" viewBox="-10 -40 532 512">
   <path fill="currentColor"
d="M464 217q0 -57 -28 -104v0v0q-27 -47 -76 -76q-49 -28 -104 -28t-104 28q-49 29 -76 76q-28 47 -28 104t28 104q27 47 76 76q49 28 104 28t104 -28q49 -29 76 -76q28 -47 28 -104v0zM0 217q1 -70 34 -128v0v0q34 -58 94 -94q61 -34 128 -34t128 34q60 36 94 94
q33 58 34 128q-1 70 -34 128q-34 58 -94 94q-61 34 -128 34t-128 -34q-60 -36 -94 -94q-33 -58 -34 -128v0zM336 137q13 0 22 9v0v0q9 9 10 23q-1 14 -10 23t-22 9q-14 0 -23 -9t-9 -23t9 -23t23 -9v0zM208 169q-1 14 -10 23v0v0q-9 9 -22 9q-14 0 -23 -9t-9 -23t9 -23
t23 -9q13 0 22 9t10 23v0zM195 84l-7 8l7 -8l-7 8q-37 36 -87 44l-2 1v0q-15 1 -19 -13q-1 -15 13 -19h3v0q40 -7 69 -36l8 -7v0q11 -10 22 0q10 11 0 22v0zM317 62q11 -10 22 0l8 7v0q29 29 69 36h3v0q14 4 13 19q-4 14 -18 13l-3 -1v0q-50 -8 -87 -44l-7 -8v0
q-9 -11 0 -22v0zM172 228q26 16 36 45h96v0q10 -29 36 -44q20 -9 33 9q9 20 -9 32q-15 9 -16 28q1 18 16 27q18 13 9 33q-13 18 -33 8q-26 -15 -36 -45h-96v0q-10 29 -36 45q-20 9 -33 -9q-9 -20 9 -33q15 -9 16 -27q-1 -18 -16 -27q-18 -13 -9 -33q13 -18 33 -9v0z" />
</svg>
