<?xml version="1.0" standalone="no"?>
<!DOCTYPE svg PUBLIC "-//W3C//DTD SVG 1.1//EN" "http://www.w3.org/Graphics/SVG/1.1/DTD/svg11.dtd" >
<svg xmlns="http://www.w3.org/2000/svg" xmlns:xlink="http://www.w3.org/1999/xlink" version="1.1" viewBox="-10 -40 660 512">
   <path fill="currentColor"
d="M320 425q45 0 83 -17v0v0q38 -17 67 -47h62v0q-36 51 -90 81q-55 30 -122 31q-72 -1 -129 -35q-58 -34 -92 -92q-34 -57 -35 -129q1 -72 35 -129q34 -58 92 -92q57 -34 129 -35q86 1 152 50q65 48 91 126h-3v0q-24 0 -43 13q-22 -63 -75 -101q-52 -39 -122 -40
q-88 2 -147 61t-61 147q2 88 61 147t147 61v0zM205 195q-10 11 -23 3q-11 -10 -3 -23q25 -30 61 -30t61 30q8 13 -3 23q-13 7 -23 -3q-14 -18 -35 -18t-35 18v0zM365 195q-10 11 -23 3q-10 -10 -3 -23q25 -30 61 -30t61 30q7 13 -3 23q-13 7 -23 -3q-14 -18 -35 -18t-35 18
v0zM416 277q0 11 -7 18l-1 1q0 1 -1 1h185v0q15 -1 16 -16v-64v0q-1 -15 -16 -16h-32v0q-15 1 -16 16q1 15 16 16h16v0q15 1 16 16q-1 15 -16 16h-16v0q-20 -1 -34 -14q-13 -14 -14 -34q1 -20 14 -34q14 -13 34 -14h32v0q20 1 34 14q13 14 14 34v64v0q-1 20 -14 34
q-14 13 -34 14h-185v0q1 0 1 1l1 1q7 8 7 18q0 11 -7 18q-7 8 -17 14q-21 11 -48 12q-6 0 -8 -6q-1 -6 4 -9v0v0v0v0v0v0v0v0v0v0h1v-1h1q1 -1 3 -2q4 -3 10 -7q6 -5 9 -10q4 -6 4 -9t-4 -9q-3 -5 -9 -10q-6 -4 -10 -7q-2 -1 -3 -2h-1v-1h-1v0v0v0v0v0v0v0v0q-4 -2 -4 -7
t4 -7v0v0v0v0v0v0v0v0v0v0v0v0h1v-1h1q1 -1 3 -2q4 -3 10 -7q6 -5 9 -10q4 -6 4 -9t-4 -9q-3 -5 -9 -10q-6 -4 -10 -7q-2 -1 -3 -2h-1v-1h-1v0v0v0v0v0v0v0v0q-5 -3 -4 -9q2 -6 8 -6q27 1 48 12q10 6 17 14q6 7 7 18v0zM51 113l-20 -52l20 52l-20 -52q23 -43 58 -77l43 15v0
q-54 47 -81 114v0zM55 -27q-21 23 -38 50l-16 -40v0q-3 -10 3 -17q7 -7 17 -4l34 11v0z" />
</svg>
