<?xml version="1.0" standalone="no"?>
<!DOCTYPE svg PUBLIC "-//W3C//DTD SVG 1.1//EN" "http://www.w3.org/Graphics/SVG/1.1/DTD/svg11.dtd" >
<svg xmlns="http://www.w3.org/2000/svg" xmlns:xlink="http://www.w3.org/1999/xlink" version="1.1" viewBox="-10 -40 532 512">
   <path fill="currentColor"
d="M464 217q0 -57 -28 -104v0v0q-27 -47 -76 -76q-49 -28 -104 -28t-104 28q-49 29 -76 76q-28 47 -28 104t28 104q27 47 76 76q49 28 104 28t104 -28q49 -29 76 -76q28 -47 28 -104v0zM0 217q1 -70 34 -128v0v0q34 -58 94 -94q61 -34 128 -34t128 34q60 36 94 94
q33 58 34 128q-1 70 -34 128q-34 58 -94 94q-61 34 -128 34t-128 -34q-60 -36 -94 -94q-33 -58 -34 -128v0zM208 329h96h-96h96q22 2 24 24q-2 22 -24 24h-96v0q-22 -2 -24 -24q2 -22 24 -24v0zM352 245q16 0 25 -10q14 -12 28 -1q13 14 1 29q-23 22 -54 22t-55 -22
q-11 -15 1 -29q14 -11 28 1q9 10 26 10v0zM134 235q9 9 26 10q16 0 25 -10q14 -12 28 -1q13 14 1 29q-23 22 -54 22t-55 -22q-11 -15 1 -29q14 -11 28 1v0zM82 176q-6 -13 7 -21l23 -12v0q22 -11 37 -30l15 -18v0q10 -10 22 -2q11 10 3 22l-15 18v0q-20 25 -48 39l-23 11v0
q-13 6 -21 -7v0zM423 155q13 8 7 21q-7 13 -21 7l-23 -11v0q-28 -14 -48 -39l-14 -18v0q-9 -12 2 -22q12 -8 23 2l14 18v0q15 19 37 30l23 12v0z" />
</svg>
