<?xml version="1.0" standalone="no"?>
<!DOCTYPE svg PUBLIC "-//W3C//DTD SVG 1.1//EN" "http://www.w3.org/Graphics/SVG/1.1/DTD/svg11.dtd" >
<svg xmlns="http://www.w3.org/2000/svg" xmlns:xlink="http://www.w3.org/1999/xlink" version="1.1" viewBox="-10 -40 586 512">
   <path fill="currentColor"
d="M496 217q-2 88 -61 147v0v0q-59 59 -147 61q-49 0 -91 -21t-71 -56q-6 26 -26 42q35 39 83 61q49 22 105 22q72 -1 129 -35q58 -34 92 -92q34 -57 35 -129q-1 -72 -35 -129q-34 -58 -92 -92q-57 -34 -129 -35q-72 1 -129 35q-58 34 -92 92q-34 57 -35 129v2v1
q28 -10 48 13l1 1v0q-1 -8 -1 -17q2 -88 61 -147t147 -61q88 2 147 61t61 147v0zM36 260q-12 16 -24 36v0v0q-11 20 -12 34q1 20 14 33q14 14 34 14q18 0 32 -11q15 -14 16 -36q-1 -16 -16 -40q-14 -23 -26 -38q-6 -6 -12 0l-2 2l-4 6v0zM360 371q15 -17 2 -34
q-11 -12 -30 -22q-18 -9 -44 -10q-26 1 -44 10q-19 10 -29 22q-14 17 1 34q17 13 34 -2q11 -14 38 -16q28 2 39 16q16 15 34 2h-1zM368 265q13 0 22 -9v0v0q9 -9 10 -23q-1 -14 -10 -23t-22 -9q-14 0 -23 9t-9 23t9 23t23 9v0zM176 233q0 14 9 23v0v0q9 9 23 9q13 0 22 -9
t10 -23q-1 -14 -10 -23t-22 -9q-14 0 -23 9t-9 23v0zM227 132q10 -11 0 -22q-11 -10 -22 0l-8 7v0q-29 29 -69 36h-3v0q-14 4 -13 19q4 14 19 13l2 -1v0q50 -8 87 -44l7 -8v0zM349 110q-10 11 0 22l7 8v0q37 36 87 44l2 1v0q15 1 19 -13q1 -15 -13 -19h-3v0q-40 -7 -69 -36
l-8 -7v0q-11 -10 -22 0v0z" />
</svg>
