<?xml version="1.0" standalone="no"?>
<!DOCTYPE svg PUBLIC "-//W3C//DTD SVG 1.1//EN" "http://www.w3.org/Graphics/SVG/1.1/DTD/svg11.dtd" >
<svg xmlns="http://www.w3.org/2000/svg" xmlns:xlink="http://www.w3.org/1999/xlink" version="1.1" viewBox="-10 -40 650 512">
   <path fill="currentColor"
d="M528 217q0 23 -5 44q24 -14 51 -11q2 -16 2 -33q-1 -71 -35 -129t-92 -92q-57 -34 -129 -35q-72 1 -129 35q-58 34 -92 92q-34 57 -35 129q0 17 2 33q27 -3 51 11q-5 -21 -5 -44q2 -88 61 -147t147 -61q88 2 147 61t61 147v0zM320 425q-63 -1 -113 -33q10 30 15 62
q46 19 98 19q53 0 98 -19q5 -32 15 -62q-50 32 -113 33v0zM537 291q-41 35 -62 82v0v0q-22 48 -27 100h110v0q0 -37 11 -67q12 -29 32 -59q10 -15 6 -32q-3 -17 -18 -27q-28 -15 -52 3v0zM183 244q22 10 47 -1v0v0q26 -11 43 -39q17 -29 15 -55q-3 -27 -23 -39
q-22 -11 -47 1q-26 11 -43 39q-17 29 -15 55q3 27 23 39v0zM320 265q-20 1 -34 14v0v0q-13 14 -14 34v32v0q1 20 14 34q14 13 34 14q20 -1 34 -14q13 -14 14 -34v-32v0q-1 -20 -14 -34q-14 -13 -34 -14v0zM367 204q17 28 43 39v0v0q25 12 47 1q20 -12 23 -39q2 -26 -15 -55
q-17 -28 -43 -39q-25 -11 -47 -1q-20 12 -23 39q-2 26 15 55v0zM103 291q-24 -18 -51 -3q-16 10 -19 27q-4 17 6 32q20 30 32 59q11 30 11 67h110v0q-5 -52 -27 -100q-21 -47 -62 -82v0z" />
</svg>
