<?xml version="1.0" standalone="no"?>
<!DOCTYPE svg PUBLIC "-//W3C//DTD SVG 1.1//EN" "http://www.w3.org/Graphics/SVG/1.1/DTD/svg11.dtd" >
<svg xmlns="http://www.w3.org/2000/svg" xmlns:xlink="http://www.w3.org/1999/xlink" version="1.1" viewBox="-10 -40 532 512">
   <path fill="currentColor"
d="M48 217q1 56 26 101v0v0q26 46 70 74v1v0v24v0q0 18 7 33q-68 -31 -109 -92q-41 -62 -42 -141q1 -72 35 -129q34 -58 92 -92q57 -34 129 -35q72 1 129 35q58 34 92 92q34 57 35 129q-1 62 -27 114q-26 53 -72 88q9 -29 -10 -54q59 -59 61 -148q-2 -88 -61 -147t-147 -61
q-88 2 -147 61t-61 147v0zM347 212q-13 14 -35 25v-28v0q0 -4 -1 -8q8 -6 14 -11q11 -10 22 0q10 11 0 22v0zM200 209v28v-28v28q-22 -11 -35 -25q-10 -11 0 -22q11 -10 22 0q6 5 14 11q-1 4 -1 8v0zM176 73q14 0 23 9v0v0q9 9 9 23t-9 23t-23 9q-13 0 -22 -9t-10 -23
q1 -14 10 -23t22 -9v0zM336 73q14 0 23 9v0v0q9 9 9 23t-9 23t-23 9q-13 0 -22 -9t-10 -23q1 -14 10 -23t22 -9v0zM280 209v72v-72v72h-48v0v-72v0q2 -22 24 -24q22 2 24 24v0zM224 369v12v-12v12l64 44v0h10v0q11 0 18 -9l26 -30v0q15 -16 33 -3q16 15 4 33l-26 31v0
q-22 25 -55 26h-18h-48q-24 -1 -40 -16q-15 -16 -16 -40v-24v0v-24v0q1 -24 16 -40q16 -15 40 -16h32v0q24 1 40 16q15 16 16 40v8v0q-2 22 -24 24q-22 -2 -24 -24v-8v0q-1 -7 -8 -8h-32v0q-7 1 -8 8v0z" />
</svg>
