<?xml version="1.0" standalone="no"?>
<!DOCTYPE svg PUBLIC "-//W3C//DTD SVG 1.1//EN" "http://www.w3.org/Graphics/SVG/1.1/DTD/svg11.dtd" >
<svg xmlns="http://www.w3.org/2000/svg" xmlns:xlink="http://www.w3.org/1999/xlink" version="1.1" viewBox="-10 -40 660 512">
   <path fill="currentColor"
d="M554 322q22 -48 22 -105q0 -37 -10 -71q-8 -20 -30 -16q-20 8 -16 30q8 27 8 57q-1 53 -24 98q26 -6 49 7h1zM448 381q-54 43 -128 44q-77 -1 -133 -48q-5 14 -16 25l-13 13v0q68 56 162 58q81 -1 144 -44q-17 -22 -16 -48v0zM122 281q-10 -30 -10 -64q2 -88 61 -147
t147 -61q46 0 86 19q21 7 32 -12q7 -21 -12 -32q-49 -23 -106 -23q-72 1 -129 35q-58 34 -92 92q-34 57 -35 129q0 39 11 74q2 1 5 3q19 -13 42 -13v0zM208 278q-15 16 -2 34q17 18 45 33q29 15 69 16q40 -1 69 -16q28 -15 45 -33q13 -18 -2 -34q-17 -14 -34 1
q-11 13 -31 23q-19 10 -47 11q-28 -1 -47 -11q-20 -10 -31 -23q-17 -15 -34 -1v0zM214 191q9 -10 26 -10q16 0 25 10q14 12 28 1q13 -14 1 -29q-23 -22 -54 -22t-55 22q-11 15 1 29q14 11 28 -1v0zM400 181q16 0 25 10q14 12 28 1q13 -14 1 -29q-23 -22 -54 -22t-55 22
q-11 15 1 29q14 11 28 -1q9 -9 26 -10v0zM574 -27l-14 13l14 -13l-14 13l-14 -14v0q-12 -11 -27 -11q-16 0 -28 11q-11 12 -11 28t11 28l56 55v0q13 11 26 0l56 -55v0q11 -12 11 -28t-11 -28q-12 -11 -28 -11q-15 0 -27 11v1zM629 357q-12 -12 -28 -12v0v0q-15 0 -27 12
l-14 13v0l-14 -13v0q-12 -12 -27 -12q-16 0 -28 12q-11 12 -11 27q0 16 11 28l56 56v0q13 10 26 0l56 -56v0q11 -12 11 -28t-11 -27v0zM94 325l-14 13l14 -13l-14 13l-14 -14v0q-12 -11 -27 -11q-16 0 -28 11q-11 12 -11 28t11 28l56 55v0q13 11 26 0l56 -55v0
q11 -12 11 -28t-11 -28q-12 -11 -28 -11q-15 0 -27 11v1z" />
</svg>
