<?xml version="1.0" standalone="no"?>
<!DOCTYPE svg PUBLIC "-//W3C//DTD SVG 1.1//EN" "http://www.w3.org/Graphics/SVG/1.1/DTD/svg11.dtd" >
<svg xmlns="http://www.w3.org/2000/svg" xmlns:xlink="http://www.w3.org/1999/xlink" version="1.1" viewBox="-10 -40 532 512">
   <path fill="currentColor"
d="M348 403q4 -11 4 -24q47 -33 63 -88q3 -11 -4 -18q-6 -8 -17 -8h-42h-234q-11 0 -17 8q-7 7 -4 18q16 55 63 88q0 13 4 24q-53 -26 -84 -75t-32 -111q2 -88 61 -147t147 -61q88 2 147 61t61 147q-1 62 -32 111t-84 75v0zM304 419q-18 21 -48 22q-29 -1 -48 -21
q-8 -10 -12 -22q-4 -10 -4 -21v-80v0h128v0v80v0q0 11 -3 21q-5 12 -13 22v-1zM256 473q70 -1 128 -34v0v0q58 -34 94 -94q34 -61 34 -128t-34 -128q-36 -60 -94 -94q-58 -33 -128 -34q-70 1 -128 34q-58 34 -94 94q-34 61 -34 128t34 128q36 60 94 94q58 33 128 34v0z
M192 81q-1 -15 -16 -16q-15 1 -16 16v9v0q-9 2 -17 7q-11 9 -14 24q-2 11 2 21q5 10 12 15q14 8 27 11h2v0q14 4 18 7q4 4 0 8v0v0q-2 2 -9 2q-17 -1 -32 -7q-14 -4 -20 10q-4 14 10 20v0q8 3 21 6v11v0q1 15 16 16q15 -1 16 -16v-9v0q7 -1 14 -5q14 -9 17 -26q2 -11 -2 -21
q-5 -10 -12 -15q-11 -7 -24 -9h-1q-12 -3 -22 -9q-4 -4 0 -7q1 -2 7 -3q13 0 27 4q14 2 19 -12q3 -14 -11 -19q-5 -2 -12 -3v-10v0zM336 65q-15 1 -16 16v9v0q-9 2 -17 7q-11 9 -14 24q-2 11 2 21q5 10 12 15q14 8 27 11h2v0q13 4 18 7q4 4 0 8v0v0q-2 2 -9 2q-17 -1 -32 -7
q-14 -4 -20 10q-4 14 10 20v0q8 3 21 6v11v0q1 15 16 16q15 -1 16 -16v-9v0q7 -1 14 -5q14 -9 17 -26q2 -11 -2 -21q-5 -10 -12 -15q-11 -7 -24 -9v0h-1q-12 -3 -22 -9q-4 -4 0 -7q1 -2 7 -3q13 0 27 4q14 2 19 -12q3 -14 -11 -19q-5 -2 -12 -3v-10v0q-1 -15 -16 -16v0z
M267 317q-1 -11 -12 -12q-11 1 -12 12v6v0q-6 2 -12 6q-9 6 -11 17q-2 8 1 15q4 7 10 11q10 6 20 8h1v0q10 3 14 5q3 3 0 6v0v0q-2 1 -7 1q-12 -1 -24 -5q-11 -2 -15 7q-3 11 7 15v0q6 2 16 4v8v0q1 11 12 12q11 -1 12 -12v-6v0q6 -1 11 -4q10 -6 13 -19q1 -8 -2 -15
q-4 -7 -9 -11q-9 -5 -18 -7v0q-10 -2 -18 -6q-2 -3 1 -6l5 -1q10 -1 20 2q11 2 15 -8q2 -11 -9 -14q-4 -1 -9 -2v-7v0z" />
</svg>
