<?xml version="1.0" standalone="no"?>
<!DOCTYPE svg PUBLIC "-//W3C//DTD SVG 1.1//EN" "http://www.w3.org/Graphics/SVG/1.1/DTD/svg11.dtd" >
<svg xmlns="http://www.w3.org/2000/svg" xmlns:xlink="http://www.w3.org/1999/xlink" version="1.1" viewBox="-10 -40 596 512">
   <path fill="currentColor"
d="M496 217q0 48 -20 89v0v0q-19 40 -53 69q9 15 26 21l17 6v0q36 -36 57 -83t21 -102q-1 -72 -35 -129q-34 -58 -92 -92q-57 -34 -129 -35q-72 1 -129 35q-58 34 -92 92q-34 57 -35 129q0 55 21 102t58 83l16 -6v0q17 -6 26 -21q-34 -29 -53 -69q-20 -41 -20 -89
q2 -88 61 -147t147 -61q88 2 147 61t61 147v0zM148 118q0 4 3 8l36 43v0l-36 43v0q-3 3 -3 8q0 7 6 10q5 3 12 0l89 -48v0q8 -5 8 -13q0 -9 -8 -13l-89 -48v0q-7 -3 -12 0q-6 3 -6 10v0zM411 108l-90 48l90 -48l-90 48q-8 4 -8 13q0 8 8 13l90 48v0q6 3 11 0q6 -3 6 -10
q0 -5 -3 -8l-36 -43v0l36 -43v0q3 -4 3 -8q0 -7 -6 -10q-5 -3 -11 0v0zM32 473q14 0 23 -9v0v0q9 -9 9 -23t-9 -23t-23 -9t-23 9t-9 23t9 23t23 9v0zM576 409q0 -14 -9 -23v0v0q-9 -9 -23 -9t-23 9t-9 23t9 23t23 9t23 -9t9 -23v0zM384 357v-58v58v-58q16 7 23 11
q13 7 22 -4q7 -13 -4 -22q-15 -11 -50 -22q-36 -12 -87 -13q-51 1 -87 13q-35 11 -50 22q-11 9 -4 22q9 11 22 4q7 -4 23 -11v58v0q0 24 -14 42q-13 19 -35 26l-34 12v0q-12 4 -13 17q2 17 19 19h346v0q17 -2 19 -19q-1 -13 -13 -17l-34 -12v0q-22 -7 -35 -26
q-14 -18 -14 -42v0zM304 377q-15 -1 -16 -16q1 -15 16 -16q15 1 16 16q-1 15 -16 16v0zM224 393q1 -15 16 -16q15 1 16 16q-1 15 -16 16q-15 -1 -16 -16v0z" />
</svg>
