<?xml version="1.0" standalone="no"?>
<!DOCTYPE svg PUBLIC "-//W3C//DTD SVG 1.1//EN" "http://www.w3.org/Graphics/SVG/1.1/DTD/svg11.dtd" >
<svg xmlns="http://www.w3.org/2000/svg" xmlns:xlink="http://www.w3.org/1999/xlink" version="1.1" viewBox="-10 -40 532 512">
   <path fill="currentColor"
d="M256 9q57 0 104 28v0v0q47 27 76 76q28 49 28 104t-28 104q-29 49 -76 76q-47 28 -104 28t-104 -28q-47 -27 -76 -76q-28 -49 -28 -104t28 -104q29 -49 76 -76q47 -28 104 -28v0zM256 473q70 -1 128 -34v0v0q58 -34 94 -94q34 -61 34 -128t-34 -128q-36 -60 -94 -94
q-58 -33 -128 -34q-70 1 -128 34q-58 34 -94 94q-34 61 -34 128t34 128q36 60 94 94q58 33 128 34v0zM368 169q0 -27 -9 -45v0v0q-9 -18 -23 -19q-14 1 -23 19t-9 45t9 45t23 19q14 -1 23 -19t9 -45v0zM214 208q21 -7 17 -29q-7 -21 -29 -17l-64 16v0q-21 7 -17 29
q7 21 29 17l64 -16v0zM201 60q-13 -7 -22 4q-19 26 -40 40q-21 15 -32 18q-13 6 -10 20q6 13 20 10q15 -4 41 -22q25 -17 47 -48q7 -13 -4 -22v0zM386 321q13 -18 -2 -34q-17 -13 -34 2l-31 34v0q-5 6 -13 6q-5 0 -10 -3l-11 -8v0q-39 -25 -82 -8q-19 8 -35 -4l-10 -7v0
q-19 -11 -33 6q-12 18 5 33l9 7v0q39 27 84 9q18 -7 34 3l12 9v0q17 11 37 11q29 0 48 -21l32 -35v0z" />
</svg>
