<?xml version="1.0" standalone="no"?>
<!DOCTYPE svg PUBLIC "-//W3C//DTD SVG 1.1//EN" "http://www.w3.org/Graphics/SVG/1.1/DTD/svg11.dtd" >
<svg xmlns="http://www.w3.org/2000/svg" xmlns:xlink="http://www.w3.org/1999/xlink" version="1.1" viewBox="-10 -40 532 512">
   <path fill="currentColor"
d="M464 217q0 -57 -28 -104v0v0q-27 -47 -76 -76q-49 -28 -104 -28t-104 28q-49 29 -76 76q-28 47 -28 104t28 104q27 47 76 76q49 28 104 28t104 -28q49 -29 76 -76q28 -47 28 -104v0zM0 217q1 -70 34 -128v0v0q34 -58 94 -94q61 -34 128 -34t128 34q60 36 94 94
q33 58 34 128q-1 70 -34 128q-34 58 -94 94q-61 34 -128 34t-128 -34q-60 -36 -94 -94q-33 -58 -34 -128v0zM182 376q-10 3 -17 -2v0v0q-7 -5 -4 -15q13 -28 38 -45t57 -17t57 17t38 45q3 10 -4 15t-17 2q-34 -15 -74 -15t-74 15v0zM144 233q1 -14 10 -23v0v0q9 -9 22 -9
q14 0 23 9t9 23t-9 23t-23 9q-13 0 -22 -9t-10 -23v0zM336 201q14 0 23 9v0v0q9 9 9 23t-9 23t-23 9q-13 0 -22 -9t-10 -23q1 -14 10 -23t22 -9v0zM192 121q-7 0 -13 1q-32 5 -56 27q-12 9 -23 -1q-9 -12 1 -23q31 -29 74 -35q8 -1 17 -1q15 1 16 16q-1 15 -16 16v0z
M333 122q-6 -1 -13 -1q-15 -1 -16 -16q1 -15 16 -16q9 0 17 1q43 6 74 35q10 11 1 23q-11 10 -23 1q-24 -22 -56 -27v0z" />
</svg>
