<?xml version="1.0" standalone="no"?>
<!DOCTYPE svg PUBLIC "-//W3C//DTD SVG 1.1//EN" "http://www.w3.org/Graphics/SVG/1.1/DTD/svg11.dtd" >
<svg xmlns="http://www.w3.org/2000/svg" xmlns:xlink="http://www.w3.org/1999/xlink" version="1.1" viewBox="-10 -40 660 512">
   <path fill="currentColor"
d="M499 -36q19 12 10 32l-226 438v0q-21 37 -64 39h-155v0q-27 -1 -45 -19t-19 -45v-64v0q1 -27 19 -45t45 -19h240v0h4l159 -307v0q12 -19 32 -10v0zM283 329h-139h139h-139v96v0h75v0q14 0 21 -13l43 -83v0zM64 329q-15 1 -16 16v64v0q1 15 16 16h32v0v-96v0h-32v0z
M432 393v32v-32v32h160v0v-32v0h-160v0zM384 393q1 -20 14 -34v0v0q14 -13 34 -14h160v0q20 1 34 14q13 14 14 34v32v0q-1 20 -14 34q-14 13 -34 14h-160v0q-20 -1 -34 -14q-13 -14 -14 -34v-32v0z" />
</svg>
