<?xml version="1.0" standalone="no"?>
<!DOCTYPE svg PUBLIC "-//W3C//DTD SVG 1.1//EN" "http://www.w3.org/Graphics/SVG/1.1/DTD/svg11.dtd" >
<svg xmlns="http://www.w3.org/2000/svg" xmlns:xlink="http://www.w3.org/1999/xlink" version="1.1" viewBox="-10 -40 660 512">
   <path fill="currentColor"
d="M587 9q-28 0 -51 13v0v0q-24 14 -38 37l-86 142v0q20 27 3 57l-96 141v0q-24 35 -61 54q-36 20 -78 20h-12v0q-71 -2 -119 -49q-47 -48 -49 -119v-112v0q1 -24 16 -40q16 -15 40 -16h160v0q24 1 40 16q15 16 16 40v9v0l23 -29v0q21 -25 51 -17l112 -138v0q22 -27 52 -42
q31 -15 66 -15h11h29q22 2 24 24q-2 22 -24 24h-29v0zM56 185q-7 1 -8 8v112v0q1 51 35 85t85 35h12v0q30 0 56 -14t43 -39l96 -141v0l-42 -29v0l-66 86v0q-11 12 -27 8q-15 -6 -16 -23v-80v0q-1 -7 -8 -8h-160v0z" />
</svg>
