<?xml version="1.0" standalone="no"?>
<!DOCTYPE svg PUBLIC "-//W3C//DTD SVG 1.1//EN" "http://www.w3.org/Graphics/SVG/1.1/DTD/svg11.dtd" >
<svg xmlns="http://www.w3.org/2000/svg" xmlns:xlink="http://www.w3.org/1999/xlink" version="1.1" viewBox="-10 -40 532 512">
   <path fill="currentColor"
d="M464 217q0 -57 -28 -104v0v0q-27 -47 -76 -76q-49 -28 -104 -28t-104 28q-49 29 -76 76q-28 47 -28 104t28 104q27 47 76 76q49 28 104 28t104 -28q49 -29 76 -76q28 -47 28 -104v0zM0 217q1 -70 34 -128v0v0q34 -58 94 -94q61 -34 128 -34t128 34q60 36 94 94
q33 58 34 128q-1 70 -34 128q-34 58 -94 94q-61 34 -128 34t-128 -34q-60 -36 -94 -94q-33 -58 -34 -128v0zM120 161q0 -37 18 -68v0v0q18 -31 50 -50q32 -18 68 -18t68 18q32 19 50 50t18 68t-18 68t-50 50q-32 18 -68 18t-68 -18q-32 -19 -50 -50t-18 -68v0zM293 135
q11 -12 11 -30q-1 -20 -14 -34q-14 -13 -34 -14q-20 1 -34 14q-13 14 -14 34q0 18 11 30q-18 16 -19 42q1 24 16 40q16 15 40 16q24 -1 40 -16q15 -16 16 -40q-1 -26 -19 -42v0zM240 105q1 -15 16 -16q15 1 16 16q-1 15 -16 16q-15 -1 -16 -16v0zM256 153q22 2 24 24
q-2 22 -24 24q-22 -2 -24 -24q2 -22 24 -24v0z" />
</svg>
