<?xml version="1.0" standalone="no"?>
<!DOCTYPE svg PUBLIC "-//W3C//DTD SVG 1.1//EN" "http://www.w3.org/Graphics/SVG/1.1/DTD/svg11.dtd" >
<svg xmlns="http://www.w3.org/2000/svg" xmlns:xlink="http://www.w3.org/1999/xlink" version="1.1" viewBox="-10 -40 660 512">
   <path fill="currentColor"
d="M80 89q1 -20 14 -34v0v0q14 -13 34 -14q20 1 34 14q13 14 14 34v8v0q0 41 -7 82l-107 33v0q-28 9 -45 32t-17 52v75v0q1 30 20 49q20 20 50 21q39 -1 60 -34l16 -26v0q45 -75 64 -160l1 -5v0l110 -34v0l-24 67v0q-3 12 3 22q8 10 20 10h73v0q8 -15 23 -23v-25v0h-62v0
l29 -80v0q4 -14 -6 -25q-10 -10 -24 -6l-133 41v0q4 -33 4 -66v-8v0q-1 -41 -28 -68t-68 -28q-41 1 -68 28t-28 68v40v0q2 22 24 24q22 -2 24 -24v-40v0zM208 329q-10 25 -23 48h199v0v-48v0h-176v0zM76 258l81 -25l-81 25l81 -25q-18 65 -52 123l-16 26v0q-7 11 -19 11
q-20 -2 -22 -22v-75v0q2 -28 28 -38v0zM528 201q14 0 23 9v0v0q9 9 9 23v48v0h-64v0v-48v0q0 -14 9 -23t23 -9v0zM448 233v48v-48v48q-14 0 -23 9t-9 23v128v0q0 14 9 23t23 9h160v0q14 0 23 -9t9 -23v-128v0q0 -14 -9 -23t-23 -9v-48v0q-1 -34 -23 -57q-23 -22 -57 -23
q-34 1 -57 23q-22 23 -23 57v0z" />
</svg>
