<?xml version="1.0" standalone="no"?>
<!DOCTYPE svg PUBLIC "-//W3C//DTD SVG 1.1//EN" "http://www.w3.org/Graphics/SVG/1.1/DTD/svg11.dtd" >
<svg xmlns="http://www.w3.org/2000/svg" xmlns:xlink="http://www.w3.org/1999/xlink" version="1.1" viewBox="-11 0 662 512">
   <path fill="currentColor"
d="M39 -34q-19 -12 -34 4q-12 19 4 34l592 464v0q19 12 34 -4q12 -19 -4 -34l-68 -53v0h53v0q22 -2 24 -24q-2 -22 -24 -24h-114v0l-61 -48v0h111v0q22 -2 24 -24q-2 -22 -24 -24h-102v0l29 -80v0q4 -14 -6 -25q-10 -10 -24 -6l-133 41v0q4 -33 4 -66v-8v0q-1 -41 -28 -68
t-68 -28q-28 0 -50 14q-23 14 -35 38l-100 -79v0zM178 75q11 -32 46 -34q20 1 34 14q13 14 14 34v8v0q0 25 -3 50l-91 -72v0zM344 205l73 -23l-73 23l73 -23l-22 63v0l-51 -40v0zM406 377l-61 -48l61 48l-61 -48h-41v0q-10 25 -23 48h125v0zM158 212q-28 9 -45 32v0v0
q-17 23 -17 52v75v0q1 30 20 49q20 20 50 21q39 -1 60 -34l16 -26v0q28 -47 46 -97l-40 -32v0q-18 55 -47 104l-16 26v0q-7 11 -19 11q-20 -2 -22 -22v-75v0q2 -28 28 -38l60 -18v0l-46 -36v0l-28 8v0zM64 329h-40h40h-40q-22 2 -24 24q2 22 24 24h40v0v-3v-3v-42v0z" />
</svg>
