<?xml version="1.0" standalone="no"?>
<!DOCTYPE svg PUBLIC "-//W3C//DTD SVG 1.1//EN" "http://www.w3.org/Graphics/SVG/1.1/DTD/svg11.dtd" >
<svg xmlns="http://www.w3.org/2000/svg" xmlns:xlink="http://www.w3.org/1999/xlink" version="1.1" viewBox="-10 -40 532 512">
   <path fill="currentColor"
d="M364 -39q21 6 20 28l-45 262v0l110 56v0q30 16 31 50v68v0h8v0q22 2 24 24q-2 22 -24 24h-32h-393q-27 -1 -43 -21q-16 -19 -12 -46l81 -394v0q4 -18 23 -19h222v0l2 -12v0q6 -21 28 -20v0zM202 41h-70h70h-70l-34 166v0q29 -19 57 -59t47 -107v0zM236 41q-26 92 -67 141
v0v0q-40 49 -80 68l-34 165v0q0 9 8 10h369v0v-68v0q0 -5 -4 -7l-127 -63v0q-4 -3 -7 -6h-70v0q-15 -1 -16 -16q1 -15 16 -16h66v0l11 -64v0h-45v0q-15 -1 -16 -16q1 -15 16 -16h51v0l19 -112v0h-90v0z" />
</svg>
