<?xml version="1.0" standalone="no"?>
<!DOCTYPE svg PUBLIC "-//W3C//DTD SVG 1.1//EN" "http://www.w3.org/Graphics/SVG/1.1/DTD/svg11.dtd" >
<svg xmlns="http://www.w3.org/2000/svg" xmlns:xlink="http://www.w3.org/1999/xlink" version="1.1" viewBox="-10 -40 660 512">
   <path fill="currentColor"
d="M188 9q-41 1 -63 37l-66 121v0q-11 20 -11 42v144v0q1 7 8 8h32v0q7 -1 8 -8v-144v0q1 -20 10 -39q8 -18 19 -35q8 -12 15 -23q13 -17 23 -35q9 -15 27 -11q17 5 18 23v160v0h-48v0v-79v0q-1 2 -2 3q-12 17 -14 36v144v0q-1 24 -16 40q-16 15 -40 16h-32v0
q-24 -1 -40 -16q-15 -16 -16 -40v-144v0q0 -35 17 -65l66 -121v0q17 -29 44 -45q28 -17 61 -17h52v0q14 1 21 13l59 114v0l59 -114v0q7 -12 21 -13h52v0q33 0 61 17q27 16 44 45l66 121v0q17 31 17 65v144v0q-1 24 -17 40q-15 15 -39 16h-32v0q-24 -1 -40 -16
q-15 -16 -16 -40v-144v0q-2 -19 -14 -36q-1 -1 -2 -3v79v0h-48v0v-160v0q1 -18 18 -23q17 -4 27 12q10 17 22 34q8 11 16 23q11 17 19 36q9 18 10 39v143v0q1 7 8 8h32v0q7 -1 8 -8v-144v0q0 -22 -11 -42l-66 -121v0q-22 -36 -63 -37h-37v0l-124 240v0h-54v0l56 -108v0
l-68 -132v0h-37v0zM160 345h48h-48h48v64v0q1 15 16 16h192v0q15 -1 16 -16v-64v0h48v0v64v0q-1 27 -19 45t-45 19h-192v0q-27 -1 -45 -19t-19 -45v-64v0zM160 281v32v-32v32h130v0l-47 71v0q-7 13 4 22q13 7 22 -4l51 -76v0l51 76v0q9 11 22 4q11 -9 4 -22l-47 -71v0h130v0
v-32v0h-320v0z" />
</svg>
