<?xml version="1.0" standalone="no"?>
<!DOCTYPE svg PUBLIC "-//W3C//DTD SVG 1.1//EN" "http://www.w3.org/Graphics/SVG/1.1/DTD/svg11.dtd" >
<svg xmlns="http://www.w3.org/2000/svg" xmlns:xlink="http://www.w3.org/1999/xlink" version="1.1" viewBox="-10 -40 660 512">
   <path fill="currentColor"
d="M0 49v336v-336v336q2 22 24 24q22 -2 24 -24v-336v0q-2 -22 -24 -24q-22 2 -24 24v0zM135 200q-14 17 0 34l136 136v0q17 14 34 0q14 -17 0 -34l-95 -95v0h406v0q22 -2 24 -24q-2 -22 -24 -24h-406v0l95 -95v0q14 -17 0 -34q-17 -14 -34 0l-136 136v0z" />
</svg>
