<?xml version="1.0" standalone="no"?>
<!DOCTYPE svg PUBLIC "-//W3C//DTD SVG 1.1//EN" "http://www.w3.org/Graphics/SVG/1.1/DTD/svg11.dtd" >
<svg xmlns="http://www.w3.org/2000/svg" xmlns:xlink="http://www.w3.org/1999/xlink" version="1.1" viewBox="-11 0 470 512">
   <path fill="currentColor"
d="M32 185h384h-384h384q-2 -82 -56 -136t-136 -56q-82 2 -136 56t-56 136v0zM174 329h-2h2h-29q-32 0 -56 -18q-24 -17 -34 -46h339v0q-11 29 -35 46q-24 18 -56 18h-27h-102zM211 408l13 -16l-13 16l13 -16l13 16v0l15 17v0h-56v0l15 -17v0zM303 412l-29 -35l29 35
l-29 -35h29v0q16 0 31 -3q45 -11 75 -43q30 -33 37 -80l2 -16v0q1 -7 -4 -13q-5 -5 -12 -5h-416v0q-7 0 -12 5q-5 6 -4 13l2 16v0q7 47 37 80q30 32 75 43q15 3 31 3h29v0l-29 35v0l-11 13v0v0v0l-1 1v0l-5 6v0l-12 15v0q-6 8 -2 17t14 9h19h9v0v0h136v0v0v0h9h19
q10 -1 15 -9q3 -9 -3 -17l-12 -15v0l-5 -6v0l-1 -1v0v0v0l-11 -13v0z" />
</svg>
