<?xml version="1.0" standalone="no"?>
<!DOCTYPE svg PUBLIC "-//W3C//DTD SVG 1.1//EN" "http://www.w3.org/Graphics/SVG/1.1/DTD/svg11.dtd" >
<svg xmlns="http://www.w3.org/2000/svg" xmlns:xlink="http://www.w3.org/1999/xlink" version="1.1" viewBox="-10 -40 660 512">
   <path fill="currentColor"
d="M464 73v176v-176v176h-48v0v-176v0h-288v0q-15 1 -16 16v160v0h-48v0v-160v0q1 -27 19 -45t45 -19h288h96q27 1 45 19t19 45v160v0h-48v0v-160v0q-1 -15 -16 -16h-48v0zM0 305q2 -22 24 -24h592v0q22 2 24 24q-2 22 -24 24h-8v0v48v0q0 14 -9 23t-23 9h-512v0
q-14 0 -23 -9t-9 -23v-48v0h-8v0q-22 -2 -24 -24v0z" />
</svg>
