<?xml version="1.0" standalone="no"?>
<!DOCTYPE svg PUBLIC "-//W3C//DTD SVG 1.1//EN" "http://www.w3.org/Graphics/SVG/1.1/DTD/svg11.dtd" >
<svg xmlns="http://www.w3.org/2000/svg" xmlns:xlink="http://www.w3.org/1999/xlink" version="1.1" viewBox="-10 -40 404 512">
   <path fill="currentColor"
d="M64 9q-15 1 -16 16v384v0q1 15 16 16h256v0q15 -1 16 -16v-384v0q-1 -15 -16 -16h-256v0zM0 25q1 -27 19 -45v0v0q18 -18 45 -19h256v0q27 1 45 19t19 45v384v0q-1 27 -19 45t-45 19h-256v0q-27 -1 -45 -19t-19 -45v-384v0zM175 102q17 -14 34 0l23 23v0l59 60v0
q17 17 17 39t-17 40q-17 16 -39 16q-23 0 -40 -16l-3 -3v0l-1 -1v37v0h16v0q14 1 16 16q-2 15 -16 16h-64v0q-15 -1 -16 -16q1 -15 16 -16h16v0v-37v0v0q-1 0 -1 1l-3 3v0q-17 16 -40 16q-22 0 -39 -16q-17 -18 -17 -40t17 -39l59 -60v0l23 -23v0z" />
</svg>
