<?xml version="1.0" standalone="no"?>
<!DOCTYPE svg PUBLIC "-//W3C//DTD SVG 1.1//EN" "http://www.w3.org/Graphics/SVG/1.1/DTD/svg11.dtd" >
<svg xmlns="http://www.w3.org/2000/svg" xmlns:xlink="http://www.w3.org/1999/xlink" version="1.1" viewBox="-10 -40 660 512">
   <path fill="currentColor"
d="M245 10q6 -3 10 3l167 289v0q3 7 -3 11l-192 111v0q-7 3 -11 -3l-167 -289v0q-3 -7 3 -11l193 -111v0zM28 80q-20 12 -26 34v0v0q-6 21 6 42l167 289v0q12 20 33 26q22 6 43 -5l192 -112v0q21 -12 26 -34q6 -21 -5 -42l-167 -289v0q-13 -20 -34 -26q-22 -6 -42 6
l-193 111v0zM324 460q15 13 36 13h224v0q24 -1 40 -16q15 -16 16 -40v-336v0q-1 -24 -16 -40q-16 -15 -40 -16h-224v0h-5v0l137 237v0q17 33 8 67q-9 33 -41 53l-135 78v0zM582 149l-48 50l48 -50l-48 50q-6 4 -12 0l-48 -50v0q-11 -12 -10 -27t12 -25q11 -9 24 -8t23 11
l5 5v0l5 -5v0q10 -10 23 -11t24 8q11 10 12 25q0 15 -10 27v0zM171 135l-7 27l7 -27l-7 27l-20 76v0q-5 20 5 37q9 17 29 23q20 5 37 -5t23 -29l2 -9v0q0 -1 1 -1l17 30v0l-12 7v0q-10 8 -5 19q7 11 19 6l48 -28v0q11 -8 5 -19q-7 -11 -19 -5l-12 7v0l-17 -31v0v0h1l9 3v0
q20 4 36 -5q17 -10 23 -30q5 -20 -5 -37q-9 -17 -29 -22l-76 -21v0l-27 -7v0q-19 -4 -26 14v0z" />
</svg>
