<?xml version="1.0" standalone="no"?>
<!DOCTYPE svg PUBLIC "-//W3C//DTD SVG 1.1//EN" "http://www.w3.org/Graphics/SVG/1.1/DTD/svg11.dtd" >
<svg xmlns="http://www.w3.org/2000/svg" xmlns:xlink="http://www.w3.org/1999/xlink" version="1.1" viewBox="-10 -40 660 512">
   <path fill="currentColor"
d="M24 -39q-22 2 -24 24q2 22 24 24h46v0q6 0 7 7l52 271v0q5 25 25 42q19 16 46 16h121v0q-1 -8 -1 -16q0 -16 3 -32h-123v0q-19 -1 -24 -19l-5 -29v0h168v0q14 -27 36 -48h-213v0l-31 -160v0h390v0l-30 112v0h5q22 0 43 5l31 -115v0q4 -19 -7 -34q-12 -15 -32 -16h-411v0
q-15 -30 -50 -32h-46v0zM176 473q27 -1 42 -24q12 -24 0 -48q-15 -23 -42 -24q-27 1 -42 24q-12 24 0 48q15 23 42 24v0zM640 329q0 -39 -19 -72v0v0q-19 -33 -53 -53q-34 -19 -72 -19t-72 19q-34 20 -53 53t-19 72t19 72t53 53q34 19 72 19t72 -19q34 -20 53 -53t19 -72v0z
M541 286q11 -10 22 0q10 11 0 22l-72 72v0q-11 10 -22 0l-40 -40v0q-10 -11 0 -22q11 -10 22 0l29 28v0l61 -60v0z" />
</svg>
