<?xml version="1.0" standalone="no"?>
<!DOCTYPE svg PUBLIC "-//W3C//DTD SVG 1.1//EN" "http://www.w3.org/Graphics/SVG/1.1/DTD/svg11.dtd" >
<svg xmlns="http://www.w3.org/2000/svg" xmlns:xlink="http://www.w3.org/1999/xlink" version="1.1" viewBox="-10 -40 404 512">
   <path fill="currentColor"
d="M204 375q-17 29 -33 40v0v0q-16 11 -27 10q-11 1 -27 -10t-33 -40q-34 -60 -36 -158q2 -98 36 -157q17 -30 33 -41t27 -10q11 -1 27 10t33 41q34 59 36 157q-2 98 -36 158v0zM0 217q2 109 42 181v0v0q41 72 102 75h48h64q54 -3 91 -75q36 -72 37 -181q-1 -109 -37 -181
q-37 -72 -91 -75h-64h-48q-61 3 -102 75q-40 72 -42 181v0zM286 257q2 -20 2 -40t-2 -40h48v0q2 19 2 40t-2 40h-48v0zM282 289h48h-48h48q-6 36 -16 64h-48v0q11 -30 16 -64v0zM228 425q14 -17 25 -40h46v0q-14 25 -26 33t-17 7h-28v0zM330 145h-48h48h-48q-5 -34 -16 -64
h48v0q10 28 16 64v0zM299 49h-46h46h-46q-11 -23 -25 -40h28v0q5 -1 17 7t26 33v0zM120 217q1 -62 13 -100q6 -18 11 -25q5 7 11 25q12 38 13 100q-1 62 -13 100q-6 18 -11 25q-5 -7 -11 -25q-12 -38 -13 -100v0zM147 88v0q0 1 1 1v-1h-1v0zM141 88h-1v0q0 1 1 1v-1v0z
M141 346v-1h-1v1h1v0zM147 346h1v-1h-1v1v0zM144 41q-27 3 -38 22q-12 16 -19 39q-15 48 -15 115t15 115q7 23 19 39q12 19 38 22q27 -3 38 -22q12 -16 19 -39q15 -48 15 -115t-15 -115q-7 -23 -19 -39q-11 -19 -38 -22v0z" />
</svg>
