<?xml version="1.0" standalone="no"?>
<!DOCTYPE svg PUBLIC "-//W3C//DTD SVG 1.1//EN" "http://www.w3.org/Graphics/SVG/1.1/DTD/svg11.dtd" >
<svg xmlns="http://www.w3.org/2000/svg" xmlns:xlink="http://www.w3.org/1999/xlink" version="1.1" viewBox="-10 -40 532 512">
   <path fill="currentColor"
d="M48 251q12 7 20 19q14 20 36 30q22 11 47 9h1v0v0v0q27 -1 52 10v0v0q25 10 52 10v0v0v0v0q27 0 52 -10v0v0v0v0q25 -10 52 -10v0v0h1v0q25 2 47 -9q22 -10 36 -30q8 -11 20 -19v14v0q2 35 -52 72q-59 38 -156 40q-97 -2 -156 -40q-54 -37 -52 -72v-14v0zM256 9
q-109 2 -181 47v0v0q-72 45 -75 113v96v0q3 68 75 113t181 47q109 -2 181 -47t75 -113v-96v0q-3 -68 -75 -113t-181 -47v0zM320 153q-1 14 -19 23v0v0q-18 9 -45 9t-45 -9t-19 -23q1 -14 19 -23t45 -9t45 9t19 23v0zM283 46q10 11 0 22l-16 16v0q-11 10 -22 0q-10 -11 0 -22
l16 -16v0q11 -10 22 0v0zM171 84l-32 32l32 -32l-32 32q-11 10 -22 0q-10 -11 0 -22l32 -32v0q11 -10 22 0q10 11 0 22v0zM395 94l32 32l-32 -32l32 32q10 11 0 22q-11 10 -22 0l-32 -32v0q-10 -11 0 -22q11 -10 22 0v0zM64 153h32h-32h32q15 1 16 16q-1 15 -16 16h-32v0
q-15 -1 -16 -16q1 -15 16 -16v0zM395 190l32 32l-32 -32l32 32q10 11 0 22q-11 10 -22 0l-32 -32v0q-10 -11 0 -22q11 -10 22 0v0zM155 206l32 32l-32 -32l32 32q10 11 0 22q-11 10 -22 0l-32 -32v0q-10 -11 0 -22q11 -10 22 0v0zM331 244l-32 32l32 -32l-32 32
q-11 10 -22 0q-10 -11 0 -22l32 -32v0q11 -10 22 0q10 11 0 22v0z" />
</svg>
