<?xml version="1.0" standalone="no"?>
<!DOCTYPE svg PUBLIC "-//W3C//DTD SVG 1.1//EN" "http://www.w3.org/Graphics/SVG/1.1/DTD/svg11.dtd" >
<svg xmlns="http://www.w3.org/2000/svg" xmlns:xlink="http://www.w3.org/1999/xlink" version="1.1" viewBox="-10 -40 532 512">
   <path fill="currentColor"
d="M464 217q0 -57 -28 -104v0v0q-27 -47 -76 -76q-49 -28 -104 -28t-104 28q-49 29 -76 76q-28 47 -28 104t28 104q27 47 76 76q49 28 104 28t104 -28q49 -29 76 -76q28 -47 28 -104v0zM0 217q1 -70 34 -128v0v0q34 -58 94 -94q61 -34 128 -34t128 34q60 36 94 94
q33 58 34 128q-1 70 -34 128q-34 58 -94 94q-61 34 -128 34t-128 -34q-60 -36 -94 -94q-33 -58 -34 -128v0zM192 185v-24v24v-24v-6q-7 6 -16 6q-22 -2 -24 -24q0 -9 6 -16h-6q-17 0 -28 12q-12 11 -12 28v24v0h80v0zM152 89q31 1 51 21v0v0q20 20 21 51v24v0q0 14 -9 23
t-23 9h-80v0q-14 0 -23 -9t-9 -23v-24v0q1 -31 21 -51t51 -21v0zM368 161q-22 -2 -24 -24q0 -8 5 -14q-6 -2 -13 -2q-20 1 -34 14q-13 14 -14 34v16v0h96v0v-16v0q0 -7 -2 -13q-6 5 -14 5v0zM336 89q34 1 57 23v0v0q22 23 23 57v18v0q0 13 -9 21q-8 9 -21 9h-100v0
q-13 0 -21 -9q-9 -8 -9 -21v-18v0q1 -34 23 -57q23 -22 57 -23v0zM100 269q-1 -18 16 -20v0v0h280v0v0v0q17 2 16 20q-6 26 -20 48v0v0q-22 35 -57 55t-78 21h-1v0q-7 0 -14 -1q-52 -5 -91 -38q-38 -33 -50 -85h-1zM364 301q-12 -4 -26 -4q-30 1 -51 18q-22 18 -29 46
q34 -1 61 -17q28 -16 45 -43v0z" />
</svg>
