<?xml version="1.0" standalone="no"?>
<!DOCTYPE svg PUBLIC "-//W3C//DTD SVG 1.1//EN" "http://www.w3.org/Graphics/SVG/1.1/DTD/svg11.dtd" >
<svg xmlns="http://www.w3.org/2000/svg" xmlns:xlink="http://www.w3.org/1999/xlink" version="1.1" viewBox="-10 -40 596 512">
   <path fill="currentColor"
d="M24 -39q-22 2 -24 24q2 22 24 24h8v0v19v0q1 63 45 108l81 81v0l-81 82v0q-44 44 -45 107v19v0h-8v0q-22 2 -24 24q2 22 24 24h307v0q-28 -20 -46 -48h-205v0v-19v0q1 -43 31 -73l81 -82v0l65 64v0q2 -29 13 -54l-44 -44v0l81 -81v0q44 -45 45 -108v-19v0h8v0
q22 -2 24 -24q-2 -22 -24 -24h-336v0zM192 183l-81 -81l81 81l-81 -81q-30 -31 -31 -74v-19v0h224v0v19v0q-1 43 -30 74l-82 81v0zM576 329q0 -39 -19 -72v0v0q-19 -33 -53 -53q-34 -19 -72 -19t-72 19q-34 20 -53 53t-19 72t19 72t53 53q34 19 72 19t72 -19q34 -20 53 -53
t19 -72v0zM432 249q15 1 16 16v48v0h32v0q15 1 16 16q-1 15 -16 16h-48v0q-15 -1 -16 -16v-64v0q1 -15 16 -16v0z" />
</svg>
