<?xml version="1.0" standalone="no"?>
<!DOCTYPE svg PUBLIC "-//W3C//DTD SVG 1.1//EN" "http://www.w3.org/Graphics/SVG/1.1/DTD/svg11.dtd" >
<svg xmlns="http://www.w3.org/2000/svg" xmlns:xlink="http://www.w3.org/1999/xlink" version="1.1" viewBox="-11 0 534 512">
   <path fill="currentColor"
d="M171 61q4 -30 25 -49v0v0q21 -18 51 -19q34 1 56 25q21 24 19 59l-13 120v0q-4 30 -25 49q-21 18 -51 19q-34 -1 -56 -25q-21 -24 -19 -59l13 -120v0zM247 41q-24 2 -28 25l-13 120v0q-1 13 7 22t21 9q23 -2 27 -25l13 -120v0q1 -13 -7 -22t-20 -9v0zM119 -2q10 8 9 22
l-32 256v0q-5 21 -27 21q-21 -5 -21 -26l27 -215v0l-34 15v0q-21 7 -31 -12q-7 -21 13 -32l72 -32v0q12 -5 23 3h1zM432 -7q34 1 56 24v0v0q21 24 19 58l-7 89v0q-3 30 -24 49t-52 20q-34 -1 -55 -24q-22 -24 -20 -58l7 -89v0q3 -30 24 -49t52 -20v0zM404 67l-7 88l7 -88
l-7 88q-1 12 7 21t20 9q24 -2 28 -25l7 -89v0q1 -12 -7 -21t-20 -9q-24 2 -28 26v0zM512 285q1 22 -20 28l-464 80v0q-22 1 -28 -20q-1 -22 20 -28l464 -80v0q22 -1 28 20v0zM460 401l-240 40l240 -40l-240 40q-22 1 -28 -20q-1 -22 20 -28l240 -40v0q22 -1 28 20
q1 22 -20 28v0z" />
</svg>
