<?xml version="1.0" standalone="no"?>
<!DOCTYPE svg PUBLIC "-//W3C//DTD SVG 1.1//EN" "http://www.w3.org/Graphics/SVG/1.1/DTD/svg11.dtd" >
<svg xmlns="http://www.w3.org/2000/svg" xmlns:xlink="http://www.w3.org/1999/xlink" version="1.1" viewBox="-10 -40 660 512">
   <path fill="currentColor"
d="M69 -3q-19 -11 -33 7q-11 19 7 33l48 32v0q19 11 33 -7q11 -19 -7 -33l-48 -32v0zM597 37q17 -14 7 -33q-14 -17 -33 -7l-48 32v0q-17 14 -7 33q14 17 33 7l48 -32v0zM24 153q-22 2 -24 24q2 22 24 24h48v0q22 -2 24 -24q-2 -22 -24 -24h-48v0zM568 153q-22 2 -24 24
q2 22 24 24h48v0q22 -2 24 -24q-2 -22 -24 -24h-48v0zM448 169v96v-96v96h48v0v-96v0q-2 -75 -52 -124q-49 -50 -124 -52q-75 2 -124 52q-50 49 -52 124v96v0h48v0v-96v0q1 -54 37 -91q37 -36 91 -37q54 1 91 37q36 37 37 91v0zM144 393v-48v48v-48h352v0v48v0h-352v0z
M96 345v48v-48v48q1 20 14 34q14 13 34 14h352v0q20 -1 34 -14q13 -14 14 -34v-48v0q-1 -20 -14 -34q-14 -13 -34 -14h-352v0q-20 1 -34 14q-13 14 -14 34v0zM320 105q15 -1 16 -16q-1 -15 -16 -16q-41 1 -68 28t-28 68q1 15 16 16q15 -1 16 -16q1 -27 19 -45t45 -19v0z" />
</svg>
