<?xml version="1.0" standalone="no"?>
<!DOCTYPE svg PUBLIC "-//W3C//DTD SVG 1.1//EN" "http://www.w3.org/Graphics/SVG/1.1/DTD/svg11.dtd" >
<svg xmlns="http://www.w3.org/2000/svg" xmlns:xlink="http://www.w3.org/1999/xlink" version="1.1" viewBox="-10 -40 596 512">
   <path fill="currentColor"
d="M400 185q0 -48 -24 -88v0v0q-23 -40 -64 -64q-42 -24 -88 -24t-88 24q-41 24 -64 64q-24 40 -24 88t24 88q23 40 64 64q42 24 88 24t88 -24q41 -24 64 -64q24 -40 24 -88v0zM365 359q-60 48 -141 50q-63 -1 -113 -31q-51 -29 -80 -80q-30 -50 -31 -113q1 -63 31 -113
q29 -51 80 -80q50 -30 113 -31q63 1 113 31q51 29 80 80q30 50 31 113q0 50 -20 94l123 80v0q24 18 25 50q-1 27 -19 45t-45 19q-23 0 -39 -13l-108 -101v0zM528 409q-1 -15 -16 -16q-15 1 -16 16q1 15 16 16q15 -1 16 -16v0zM254 77q12 12 31 23v0v0q18 10 35 15
q21 5 35 24q16 22 12 47q-3 26 -25 42q-13 10 -29 12q-15 3 -29 12q-15 9 -23 21q-17 29 -48 37q-31 9 -61 -8q-29 -17 -37 -48q-9 -31 8 -61q9 -17 14 -38q6 -21 7 -40q2 -23 20 -40q20 -18 45 -18q26 1 45 20v0zM272 185q-1 -27 -24 -42q-24 -12 -48 0q-23 15 -24 42
q1 27 24 42q24 12 48 0q23 -15 24 -42v0z" />
</svg>
