<?xml version="1.0" standalone="no"?>
<!DOCTYPE svg PUBLIC "-//W3C//DTD SVG 1.1//EN" "http://www.w3.org/Graphics/SVG/1.1/DTD/svg11.dtd" >
<svg xmlns="http://www.w3.org/2000/svg" xmlns:xlink="http://www.w3.org/1999/xlink" version="1.1" viewBox="-11 0 661 512">
   <path fill="currentColor"
d="M123 466q-26 -30 -27 -73v-8v-8v0v0v0v0v0v0q-2 -43 6 -90q8 -48 47 -89q40 -40 94 -50q35 -6 50 -22q16 -15 22 -50q2 -13 7 -26l-23 -50v0q-12 -25 -36 -35q-25 -9 -50 2l-51 22v0q-23 11 -39 28q-16 16 -25 40v0v0q-9 23 -8 46q0 13 3 26q9 30 0 60q-13 28 -40 45
q-11 7 -20 16q-16 17 -25 40q-9 24 -8 47t11 46l22 51v0q12 25 37 35q24 9 50 -2l3 -1v0zM563 179l-1 1l1 -1l-1 1v0v0q-14 14 -32 21v0v0q-9 4 -20 6v0v0l-1 1v0q-20 3 -45 13q-24 9 -46 30q-21 22 -30 46q-10 25 -13 45l-1 1v0v0v0q-2 11 -6 20v0v0q-7 18 -21 32v0v0v1h-1
l33 33v0l-33 -33v0q-28 28 -70 29h-68v0q-14 0 -23 -9t-9 -23v-68v0q0 -20 8 -38v0v0q7 -18 21 -33q15 -14 33 -21v0v0q9 -4 20 -6v0v0h1v0q20 -4 45 -14q24 -9 46 -30q21 -22 30 -46q10 -25 13 -45l1 -1v0v0v0q2 -11 6 -20v0v0q7 -18 21 -32v0v0v-1v0q15 -14 33 -21v0v0
q18 -8 38 -8h68v0q14 0 23 9t9 23v68v0q-1 42 -29 70v0v0zM597 213q41 -42 43 -104v-68v0q-1 -34 -23 -57q-23 -22 -57 -23h-68v0q-30 0 -57 11q-26 11 -47 32l-1 1v0q-21 21 -32 47q-6 15 -9 30q-5 39 -30 67q-28 25 -67 30q-15 3 -30 9q-26 11 -48 32q-21 22 -32 48
q-11 27 -11 57v68v0q1 34 23 57q23 22 57 23h68v0q62 -2 104 -42l2 -2q20 -21 31 -47q6 -15 9 -30q5 -39 30 -67q28 -25 67 -30q15 -3 30 -9q26 -11 47 -32l1 -1v0zM520 116q18 -1 19 -19q-1 -18 -19 -19q-18 1 -19 19q1 18 19 19v0zM456 180q18 -1 19 -19q-1 -18 -19 -19
q-11 0 -17 9q-5 10 0 20q6 9 17 9v0zM264 372q11 0 17 -9q5 -10 0 -20q-6 -9 -17 -9t-17 9q-5 10 0 20q6 9 17 9v0zM347 353q0 -11 -9 -17q-10 -5 -20 0q-9 6 -9 17t9 17q10 5 20 0q9 -6 9 -17v0zM520 180q18 -1 19 -19q-1 -18 -19 -19q-11 0 -17 9q-5 10 0 20q6 9 17 9v0z
M347 289q0 -11 -9 -17q-10 -5 -20 0q-9 6 -9 17t9 17q10 5 20 0q9 -6 9 -17v0z" />
</svg>
