<?xml version="1.0" standalone="no"?>
<!DOCTYPE svg PUBLIC "-//W3C//DTD SVG 1.1//EN" "http://www.w3.org/Graphics/SVG/1.1/DTD/svg11.dtd" >
<svg xmlns="http://www.w3.org/2000/svg" xmlns:xlink="http://www.w3.org/1999/xlink" version="1.1" viewBox="-10 -40 660 512">
   <path fill="currentColor"
d="M24 57q22 2 24 24v8v0h272h144v-8v0q2 -22 24 -24q22 2 24 24v32v0v41v0q-8 -1 -16 -1q-16 0 -32 3v-19v0h-144h-272v160v0h275v0q-3 16 -3 32q0 8 1 16h-273v0v8v0q-2 22 -24 24q-22 -2 -24 -24v-32v0v-208v0v-32v0q2 -22 24 -24v0zM352 329q0 -39 19 -72v0v0
q19 -33 53 -53q34 -19 72 -19t72 19q34 20 53 53t19 72t-19 72t-53 53q-34 19 -72 19t-72 -19q-34 -20 -53 -53t-19 -72v0zM541 286l-61 60l61 -60l-61 60l-29 -28v0q-11 -10 -22 0q-10 11 0 22l40 40v0q11 10 22 0l72 -72v0q10 -11 0 -22q-11 -10 -22 0v0z" />
</svg>
