<?xml version="1.0" standalone="no"?>
<!DOCTYPE svg PUBLIC "-//W3C//DTD SVG 1.1//EN" "http://www.w3.org/Graphics/SVG/1.1/DTD/svg11.dtd" >
<svg xmlns="http://www.w3.org/2000/svg" xmlns:xlink="http://www.w3.org/1999/xlink" version="1.1" viewBox="-10 -40 660 512">
   <path fill="currentColor"
d="M48 81q-2 -22 -24 -24q-22 2 -24 24v32v0v208v0v32v0q2 22 24 24q22 -2 24 -24v-8v0h544v0v8v0q2 22 24 24q22 -2 24 -24v-32v0v-208v0v-32v0q-2 -22 -24 -24q-22 2 -24 24v8v0h-272h-272v-8v0zM48 137h272h-272h544v160v0h-544v0v-160v0z" />
</svg>
