<?xml version="1.0" standalone="no"?>
<!DOCTYPE svg PUBLIC "-//W3C//DTD SVG 1.1//EN" "http://www.w3.org/Graphics/SVG/1.1/DTD/svg11.dtd" >
<svg xmlns="http://www.w3.org/2000/svg" xmlns:xlink="http://www.w3.org/1999/xlink" version="1.1" viewBox="-11 0 523 512">
   <path fill="currentColor"
d="M254 -16q34 24 43 64v0v0q9 40 -5 83q35 -27 75 -33q39 -6 74 18q48 37 54 96t-29 112v0v0q-41 60 -104 96q-62 35 -132 37t-131 -40q-60 -45 -83 -112t-13 -139q11 -72 51 -133q37 -52 93 -67q56 -16 107 18v0zM276 169v0v0v0v0v0zM227 23q-30 -20 -68 -11v0v0
q-38 9 -65 48v0v0q-35 53 -44 113q-8 61 11 116q19 54 65 89v0v0q47 32 103 31q57 -1 109 -30q53 -30 89 -82q25 -40 20 -80t-34 -62v0v0q-21 -14 -51 -7q-31 7 -61 41q-10 13 -26 16q-15 2 -29 -7q-13 -10 -16 -26q-3 -15 5 -29q21 -40 17 -73q-5 -32 -25 -47v0v0v0v0z" />
</svg>
