<?xml version="1.0" standalone="no"?>
<!DOCTYPE svg PUBLIC "-//W3C//DTD SVG 1.1//EN" "http://www.w3.org/Graphics/SVG/1.1/DTD/svg11.dtd" >
<svg xmlns="http://www.w3.org/2000/svg" xmlns:xlink="http://www.w3.org/1999/xlink" version="1.1" viewBox="-10 -40 650 512">
   <path fill="currentColor"
d="M112 -15q0 19 7 31v0v0q7 13 19 25v1v0q13 13 25 33q12 21 13 54q-2 22 -24 24q-22 -2 -24 -24q0 -19 -7 -31q-7 -13 -19 -25v0v0q-13 -14 -25 -34q-12 -21 -13 -54q2 -22 24 -24q22 2 24 24v0zM224 -15q0 19 7 31v0v0q7 13 19 25v1v0q13 13 25 33q12 21 13 54
q-2 22 -24 24q-22 -2 -24 -24q0 -19 -7 -31q-7 -13 -19 -25v0v0q-13 -14 -25 -34q-12 -21 -13 -54q2 -22 24 -24q22 2 24 24v0zM432 73q39 1 68 23v0v0q28 22 39 57h-214v0q11 -35 39 -57q29 -22 68 -23v0zM16 241q2 -22 24 -24h27v0q12 -30 45 -32h416v0q33 2 45 32h27v0
q22 2 24 24q-2 22 -24 24h-26v0q-9 58 -44 103q-34 45 -86 69q-14 34 -52 36h-144v0q-38 -2 -52 -36q-52 -24 -87 -69q-34 -45 -43 -103h-26v0q-22 -2 -24 -24v0zM241 420q2 5 7 5h144v0q5 0 8 -5q7 -18 25 -26q46 -22 74 -64q28 -43 29 -97h-416v0q1 54 29 97q28 42 75 64
q17 8 25 26v0z" />
</svg>
