<?xml version="1.0" standalone="no"?>
<!DOCTYPE svg PUBLIC "-//W3C//DTD SVG 1.1//EN" "http://www.w3.org/Graphics/SVG/1.1/DTD/svg11.dtd" >
<svg xmlns="http://www.w3.org/2000/svg" xmlns:xlink="http://www.w3.org/1999/xlink" version="1.1" viewBox="-10 -40 532 512">
   <path fill="currentColor"
d="M48 217q2 -88 61 -147v0v0q59 -59 147 -61q88 2 147 61t61 147v232v0q2 22 24 24q22 -2 24 -24v-232v0q-1 -72 -35 -129q-34 -58 -92 -92q-57 -34 -129 -35q-72 1 -129 35q-58 34 -92 92q-34 57 -35 129v232v0q2 22 24 24q22 -2 24 -24v-232v0zM352 169v48v-48v48h-192v0
v-48v0q0 -14 9 -23t23 -9h128v0q14 0 23 9t9 23v0zM160 329v-64v64v-64h192v0v64v0q0 14 -9 23t-23 9h-128v0q-14 0 -23 -9t-9 -23v0zM192 89q-34 1 -57 23v0v0q-22 23 -23 57v160v0q2 43 36 67l-37 36v0q-14 17 0 34q17 14 34 0l57 -57v0h108v0l57 57v0q17 14 34 0
q14 -17 0 -34l-36 -36v0q33 -24 35 -67v-160v0q-1 -34 -23 -57q-23 -22 -57 -23h-128v0zM288 313q0 -14 -9 -23v0v0q-9 -9 -23 -9t-23 9t-9 23t9 23t23 9t23 -9t9 -23v0z" />
</svg>
