<?xml version="1.0" standalone="no"?>
<!DOCTYPE svg PUBLIC "-//W3C//DTD SVG 1.1//EN" "http://www.w3.org/Graphics/SVG/1.1/DTD/svg11.dtd" >
<svg xmlns="http://www.w3.org/2000/svg" xmlns:xlink="http://www.w3.org/1999/xlink" version="1.1" viewBox="-10 -40 468 512">
   <path fill="currentColor"
d="M304 89q0 -17 -7 -32h-1v0q-32 -1 -50 -24q-23 38 -70 40h-30v0q-2 8 -2 16v16v0q1 34 23 57q23 22 57 23q34 -1 57 -23q22 -23 23 -57v-16v0zM96 89q1 -54 37 -91v0v0q37 -36 91 -37q54 1 91 37q36 37 37 91v16v0q-1 54 -37 91q-37 36 -91 37q-54 -1 -91 -37
q-36 -37 -37 -91v-16v0zM48 425h352h-352h352q-3 -36 -23 -63t-52 -40l-50 67v0q-21 25 -51 25t-51 -25l-50 -67v0q-32 13 -52 40t-23 63v0zM132 269q9 -2 15 6l64 85v0q13 13 26 0l64 -85v0q6 -8 15 -6q58 13 94 58q37 44 38 106v8v0q0 14 -9 23t-23 9h-384v0q-14 0 -23 -9
t-9 -23v-8v0q1 -62 38 -106q36 -45 94 -58v0z" />
</svg>
