<?xml version="1.0" standalone="no"?>
<!DOCTYPE svg PUBLIC "-//W3C//DTD SVG 1.1//EN" "http://www.w3.org/Graphics/SVG/1.1/DTD/svg11.dtd" >
<svg xmlns="http://www.w3.org/2000/svg" xmlns:xlink="http://www.w3.org/1999/xlink" version="1.1" viewBox="-10 -40 596 512">
   <path fill="currentColor"
d="M176 57v-32v32v-32q1 -15 16 -16h192v0q15 1 16 16v128v0q1 20 14 34q14 13 34 14h64v0q15 1 16 16v192v0q-1 15 -16 16h-128h-64v-48v0q0 -14 -9 -23t-23 -9t-23 9t-9 23v48v0h-64h-128q-15 -1 -16 -16v-288v0q1 -15 16 -16h64v0q20 -1 34 -14q13 -14 14 -34v0zM192 473
h64h-64h320q27 -1 45 -19t19 -45v-192v0q-1 -27 -19 -45t-45 -19h-16h-48v-48v0v-80v0q-1 -27 -19 -45t-45 -19h-192v0q-27 1 -45 19t-19 45v32v0h-48h-16q-27 1 -45 19t-19 45v288v0q1 27 19 45t45 19h128v0zM352 297q15 -1 16 -16v-32v0q-1 -15 -16 -16h-32v0
q-15 1 -16 16v32v0q1 15 16 16h32v0zM496 377v-32v32v-32q-1 -15 -16 -16h-32v0q-15 1 -16 16v32v0q1 15 16 16h32v0q15 -1 16 -16v0zM128 297q15 -1 16 -16v-32v0q-1 -15 -16 -16h-32v0q-15 1 -16 16v32v0q1 15 16 16h32v0zM144 377v-32v32v-32q-1 -15 -16 -16h-32v0
q-15 1 -16 16v32v0q1 15 16 16h32v0q15 -1 16 -16v0zM256 297q15 -1 16 -16v-32v0q-1 -15 -16 -16h-32v0q-15 1 -16 16v32v0q1 15 16 16h32v0zM368 57q-1 -15 -16 -16h-32v0q-15 1 -16 16v32v0q1 15 16 16h32v0q15 -1 16 -16v-32v0zM256 41h-32h32h-32q-15 1 -16 16v32v0
q1 15 16 16h32v0q15 -1 16 -16v-32v0q-1 -15 -16 -16v0zM368 185v-32v32v-32q-1 -15 -16 -16h-32v0q-15 1 -16 16v32v0q1 15 16 16h32v0q15 -1 16 -16v0zM480 297q15 -1 16 -16v-32v0q-1 -15 -16 -16h-32v0q-15 1 -16 16v32v0q1 15 16 16h32v0zM144 185v-32v32v-32
q-1 -15 -16 -16h-32v0q-15 1 -16 16v32v0q1 15 16 16h32v0q15 -1 16 -16v0zM256 201q15 -1 16 -16v-32v0q-1 -15 -16 -16h-32v0q-15 1 -16 16v32v0q1 15 16 16h32v0z" />
</svg>
