<?xml version="1.0" standalone="no"?>
<!DOCTYPE svg PUBLIC "-//W3C//DTD SVG 1.1//EN" "http://www.w3.org/Graphics/SVG/1.1/DTD/svg11.dtd" >
<svg xmlns="http://www.w3.org/2000/svg" xmlns:xlink="http://www.w3.org/1999/xlink" version="1.1" viewBox="-10 -40 532 512">
   <path fill="currentColor"
d="M400 -39q22 2 24 24v41v0q22 3 43 11l14 6v0q20 10 13 31q-10 20 -31 13l-14 -5v0q-22 -9 -45 -9h-12v0q-24 1 -40 17q-15 15 -16 39q2 38 37 53l71 25v0q31 12 49 38q18 27 19 60q-1 40 -25 68q-25 28 -63 35v41v0q-2 22 -24 24q-22 -2 -24 -24v-42v0q-26 -5 -49 -18
l-27 -15v0q-18 -13 -9 -33q13 -18 33 -9l27 16v0q23 13 50 13h7v0q24 -1 40 -16q15 -16 16 -40q-2 -38 -37 -53l-70 -25v0q-32 -12 -50 -38q-18 -27 -19 -60q1 -40 25 -68q25 -28 63 -35v-41v0q2 -22 24 -24v0zM0 17q2 -22 24 -24h96v0q58 1 96 40q39 38 40 96q-1 45 -26 80
q-25 34 -65 48l57 151v0q6 22 -13 31q-22 6 -31 -13l-62 -161v0h-68v0v152v0q-2 22 -24 24q-22 -2 -24 -24v-176v0v-224v0zM48 217h72h-72h72q37 -1 62 -26t26 -62q-1 -37 -26 -62t-62 -26h-72v0v176v0z" />
</svg>
