<?xml version="1.0" standalone="no"?>
<!DOCTYPE svg PUBLIC "-//W3C//DTD SVG 1.1//EN" "http://www.w3.org/Graphics/SVG/1.1/DTD/svg11.dtd" >
<svg xmlns="http://www.w3.org/2000/svg" xmlns:xlink="http://www.w3.org/1999/xlink" version="1.1" viewBox="-10 -40 532 512">
   <path fill="currentColor"
d="M256 15l-161 122l161 -122l-161 122h322v0l-161 -122v0zM232 -27q24 -16 48 0l152 115v0v-71v0q2 -22 24 -24q22 2 24 24v108v0l23 17v0q12 11 8 27q-6 15 -23 16h-464v0q-17 -1 -23 -16q-4 -16 8 -27l223 -169v0zM32 257q2 -22 24 -24h112v0q22 2 24 24q-2 22 -24 24
h-112v0q-22 -2 -24 -24v0zM32 449q2 -22 24 -24h112v0q22 2 24 24q-2 22 -24 24h-112v0q-22 -2 -24 -24v0zM56 329h112h-112h112q22 2 24 24q-2 22 -24 24h-112v0q-22 -2 -24 -24q2 -22 24 -24v0zM320 257q2 -22 24 -24h112v0q22 2 24 24q-2 22 -24 24h-112v0
q-22 -2 -24 -24v0zM344 425h112h-112h112q22 2 24 24q-2 22 -24 24h-112v0q-22 -2 -24 -24q2 -22 24 -24v0zM320 353q2 -22 24 -24h112v0q22 2 24 24q-2 22 -24 24h-112v0q-22 -2 -24 -24v0zM224 89q0 -14 9 -23v0v0q9 -9 23 -9t23 9t9 23t-9 23t-23 9t-23 -9t-9 -23v0z" />
</svg>
