<?xml version="1.0" standalone="no"?>
<!DOCTYPE svg PUBLIC "-//W3C//DTD SVG 1.1//EN" "http://www.w3.org/Graphics/SVG/1.1/DTD/svg11.dtd" >
<svg xmlns="http://www.w3.org/2000/svg" xmlns:xlink="http://www.w3.org/1999/xlink" version="1.1" viewBox="-10 -40 468 512">
   <path fill="currentColor"
d="M240 41v352v-352v352h-32v0v-352v0h32v0zM208 -7q-20 1 -34 14v0v0q-13 14 -14 34v352v0q1 20 14 34q14 13 34 14h32v0q20 -1 34 -14q13 -14 14 -34v-352v0q-1 -20 -14 -34q-14 -13 -34 -14h-32v0zM80 233v160v-160v160h-32v0v-160v0h32v0zM48 185q-20 1 -34 14v0v0
q-13 14 -14 34v160v0q1 20 14 34q14 13 34 14h32v0q20 -1 34 -14q13 -14 14 -34v-160v0q-1 -20 -14 -34q-14 -13 -34 -14h-32v0zM368 105h32h-32h32v288v0h-32v0v-288v0zM320 105v288v-288v288q1 20 14 34q14 13 34 14h32v0q20 -1 34 -14q13 -14 14 -34v-288v0
q-1 -20 -14 -34q-14 -13 -34 -14h-32v0q-20 1 -34 14q-13 14 -14 34v0z" />
</svg>
