<?xml version="1.0" standalone="no"?>
<!DOCTYPE svg PUBLIC "-//W3C//DTD SVG 1.1//EN" "http://www.w3.org/Graphics/SVG/1.1/DTD/svg11.dtd" >
<svg xmlns="http://www.w3.org/2000/svg" xmlns:xlink="http://www.w3.org/1999/xlink" version="1.1" viewBox="-10 -40 532 512">
   <path fill="currentColor"
d="M0 57q1 -27 19 -45v0v0q18 -18 45 -19h384v0q27 1 45 19t19 45v64v0q-1 27 -19 45t-45 19h-296v0v96v0q0 17 12 28q11 12 28 12h32v0v-8v0q1 -27 19 -45t45 -19h160v0q27 1 45 19t19 45v64v0q-1 27 -19 45t-45 19h-160v0q-27 -1 -45 -19t-19 -45v-8v0h-32v0
q-37 -1 -62 -26t-26 -62v-96v0h-40v0q-27 -1 -45 -19t-19 -45v-64v0zM448 297h-160h160h-160q-15 1 -16 16v64v0q1 15 16 16h160v0q15 -1 16 -16v-64v0q-1 -15 -16 -16v0z" />
</svg>
