<?xml version="1.0" standalone="no"?>
<!DOCTYPE svg PUBLIC "-//W3C//DTD SVG 1.1//EN" "http://www.w3.org/Graphics/SVG/1.1/DTD/svg11.dtd" >
<svg xmlns="http://www.w3.org/2000/svg" xmlns:xlink="http://www.w3.org/1999/xlink" version="1.1" viewBox="-10 -40 596 512">
   <path fill="currentColor"
d="M48 217q2 -88 61 -147v0v0q59 -59 147 -61q88 2 147 61t61 147q0 10 -1 21q18 -13 41 -13q4 0 8 1v-9q-1 -72 -35 -129q-34 -58 -92 -92q-57 -34 -129 -35q-72 1 -129 35q-58 34 -92 92q-34 57 -35 129q1 72 35 129q34 58 92 92q57 34 129 35q85 -1 150 -48
q-17 -15 -21 -37l-8 -2v0q-52 38 -121 39q-88 -2 -147 -61t-61 -147v0zM256 385q23 -1 35 -20q10 -20 0 -40q-12 -19 -35 -20q-23 1 -35 20q-10 20 0 40q12 19 35 20v0zM352 213q-17 0 -26 -10q-14 -12 -28 -1q-12 14 -1 29q24 22 55 22t54 -22q11 -15 -1 -29q-14 -11 -28 1
q-9 10 -25 10v0zM134 203q-14 -12 -28 -1q-12 14 -1 29q24 22 55 22t54 -22q11 -15 -1 -29q-14 -11 -28 1q-9 10 -25 10q-17 0 -26 -10v0zM543 300q1 -2 1 -3v0v0v0q-1 -17 -12 -28q-11 -12 -28 -12q-27 2 -38 25q-5 -1 -10 -1q-16 0 -27 10t-13 26l-72 18v0q-7 2 -8 10
q1 8 8 10l72 18v0v4q0 17 12 28q11 12 28 12q7 0 14 -2q11 17 34 18q16 0 28 -12q11 -11 11 -28v-2q31 -12 33 -46q-2 -34 -33 -45v0z" />
</svg>
