<?xml version="1.0" standalone="no"?>
<!DOCTYPE svg PUBLIC "-//W3C//DTD SVG 1.1//EN" "http://www.w3.org/Graphics/SVG/1.1/DTD/svg11.dtd" >
<svg xmlns="http://www.w3.org/2000/svg" xmlns:xlink="http://www.w3.org/1999/xlink" version="1.1" viewBox="-11 0 651 512">
   <path fill="currentColor"
d="M267 -25q-8 -11 -21 -13v0v0q-12 -3 -24 5l-187 127v0q-33 24 -35 62t29 66l2 1v0q22 17 48 18q27 1 50 -15l82 -60v0q11 -9 13 -21q2 -13 -6 -24t-21 -13t-24 6l-3 2v0v0l-10 8v0l-14 10v0l-18 13v0v-39v0l130 -88v0q11 -8 14 -21q2 -12 -5 -24v0zM298 -33q11 24 2 49
q25 -7 52 -7q88 2 147 61t61 147q-2 88 -61 147t-147 61q-79 -2 -135 -50t-70 -123q-21 15 -45 19q20 88 88 144t162 58q72 -1 129 -35q58 -34 92 -92q34 -57 35 -129q-1 -72 -35 -129q-34 -58 -92 -92q-57 -34 -129 -35q-28 0 -53 6h-1zM256 142q-1 21 -14 38q8 20 30 21
q14 0 23 -9t9 -23t-9 -23t-23 -9q-9 0 -16 5v0zM269 294q-19 -10 -33 7q-10 19 6 33q17 12 45 21q27 9 65 9t65 -9q28 -9 45 -21q16 -14 6 -33q-14 -17 -33 -7q-11 8 -32 15t-51 7t-51 -7t-31 -15h-1zM432 201q14 0 23 -9v0v0q9 -9 9 -23t-9 -23t-23 -9q-13 0 -22 9t-10 23
q1 14 10 23t22 9v0z" />
</svg>
