<?xml version="1.0" standalone="no"?>
<!DOCTYPE svg PUBLIC "-//W3C//DTD SVG 1.1//EN" "http://www.w3.org/Graphics/SVG/1.1/DTD/svg11.dtd" >
<svg xmlns="http://www.w3.org/2000/svg" xmlns:xlink="http://www.w3.org/1999/xlink" version="1.1" viewBox="-10 -40 660 512">
   <path fill="currentColor"
d="M56 -39h400h-400h400q22 2 24 24q-2 22 -24 24h-400v0q-22 -2 -24 -24q2 -22 24 -24v0zM6 193q-3 -29 15 -50v0v0q19 -21 49 -22h372v0q38 2 56 32h-2v0q-40 0 -73 16h-353v0q-17 2 -16 18l29 224v0q3 13 16 14h250v0q18 28 46 48h-296v0q-25 0 -42 -16q-18 -15 -21 -40
l-30 -224v0zM256 193q60 1 100 29q-35 46 -36 107q0 30 10 57q-33 15 -74 15q-61 -1 -102 -30q-40 -30 -42 -74q2 -44 42 -74q41 -29 102 -30v0zM16 65q2 -22 24 -24h432v0q22 2 24 24q-2 22 -24 24h-432v0q-22 -2 -24 -24v0zM256 329q14 0 23 -7v0v0q9 -7 9 -17t-9 -17
t-23 -7t-23 7t-9 17t9 17t23 7v0zM352 329q0 -39 19 -72v0v0q19 -33 53 -53q34 -19 72 -19t72 19q34 20 53 53t19 72t-19 72t-53 53q-34 19 -72 19t-72 -19q-34 -20 -53 -53t-19 -72v0zM574 410q-12 -31 -45 -33h-66v0q-33 2 -45 33q32 30 78 31q46 -1 78 -31v0zM544 297
q-1 -27 -24 -42q-24 -12 -48 0q-23 15 -24 42q1 27 24 42q24 12 48 0q23 -15 24 -42v0z" />
</svg>
