<?xml version="1.0" standalone="no"?>
<!DOCTYPE svg PUBLIC "-//W3C//DTD SVG 1.1//EN" "http://www.w3.org/Graphics/SVG/1.1/DTD/svg11.dtd" >
<svg xmlns="http://www.w3.org/2000/svg" xmlns:xlink="http://www.w3.org/1999/xlink" version="1.1" viewBox="-10 -40 660 512">
   <path fill="currentColor"
d="M355 83q24 24 56 12q13 -6 29 -6q31 1 51 21t21 51q0 6 -1 12q-2 16 5 30q8 14 23 21q24 11 38 32q15 22 15 49q-1 36 -24 60q-23 25 -59 28h-2h-3h-360q-41 -1 -68 -28t-28 -68q0 -32 18 -56q17 -24 46 -34q30 -13 32 -46v0v0v0v0v0v0q1 -51 35 -85t85 -35q56 2 91 42v0
zM512 441v0v0v0q55 -5 91 -42q36 -38 37 -94q-1 -42 -23 -75t-58 -50q1 -9 1 -19q-1 -51 -35 -85t-85 -35q-26 0 -49 10q-23 -27 -56 -42q-33 -16 -71 -16q-71 2 -119 49q-47 48 -49 119v0v0q-43 16 -69 52t-27 84q2 61 42 102q41 40 102 42h320h48zM234 158l-1 2l1 -2l-1 2
q-5 21 15 30q21 5 31 -14v-2v0q2 -5 8 -5h58v0q14 1 15 15q0 9 -8 13l-44 26v0q-12 7 -12 20v14v0q2 22 24 24q22 -2 24 -24l32 -18v0q31 -19 32 -55q-1 -27 -19 -45q-17 -17 -44 -18h-58v0q-39 2 -53 37v0zM352 345q0 -14 -9 -23v0v0q-9 -9 -23 -9t-23 9t-9 23t9 23t23 9
t23 -9t9 -23v0z" />
</svg>
