<?xml version="1.0" standalone="no"?>
<!DOCTYPE svg PUBLIC "-//W3C//DTD SVG 1.1//EN" "http://www.w3.org/Graphics/SVG/1.1/DTD/svg11.dtd" >
<svg xmlns="http://www.w3.org/2000/svg" xmlns:xlink="http://www.w3.org/1999/xlink" version="1.1" viewBox="-10 -40 596 512">
   <path fill="currentColor"
d="M320 9h-256h256h-256q-15 1 -16 16v384v0q1 15 16 16h221v0q18 28 45 47q-5 1 -10 1h-256v0q-27 -1 -45 -19t-19 -45v-384v0q1 -27 19 -45t45 -19h256v0q27 1 45 19t19 45v135v0q-26 7 -48 21v-156v0q-1 -15 -16 -16v0zM96 113q2 -22 24 -24h144v0q22 2 24 24
q-2 22 -24 24h-144v0q-22 -2 -24 -24v0zM120 185h144h-144h144q22 2 24 24q-2 22 -24 24h-144v0q-22 -2 -24 -24q2 -22 24 -24v0zM120 281h48h-48h48q22 2 24 24q-2 22 -24 24h-48v0q-22 -2 -24 -24q2 -22 24 -24v0zM432 185q39 0 72 19v0v0q33 19 53 53q19 34 19 72t-19 72
q-20 34 -53 53t-72 19t-72 -19t-53 -53q-19 -34 -19 -72t19 -72q20 -34 53 -53t72 -19v0zM432 281q22 -2 24 -24q-2 -22 -24 -24q-22 2 -24 24q2 22 24 24v0zM400 329q1 15 16 16v0v0v48v0v0v0q-15 1 -16 16q1 15 16 16h16h16q15 -1 16 -16q-1 -15 -16 -16v-64v0
q-1 -15 -16 -16h-16v0q-15 1 -16 16v0z" />
</svg>
