<?xml version="1.0" standalone="no"?>
<!DOCTYPE svg PUBLIC "-//W3C//DTD SVG 1.1//EN" "http://www.w3.org/Graphics/SVG/1.1/DTD/svg11.dtd" >
<svg xmlns="http://www.w3.org/2000/svg" xmlns:xlink="http://www.w3.org/1999/xlink" version="1.1" viewBox="-10 -40 532 512">
   <path fill="currentColor"
d="M64 9h32h-32h32v-48v0h-32v0q-27 1 -45 19t-19 45v32v0h48v0v-32v0q1 -15 16 -16v0zM224 9v-48v48v-48h-96v0v48v0h96v0zM48 89h-48h48h-48v96v0h48v0v-96v0zM48 217h-48h48h-48v32v0q1 27 19 45t45 19h32v0v-48v0h-32v0q-15 -1 -16 -16v-32v0zM128 313h32h-32h96v-48v0
h-96v0v48v0zM160 345v64v-64v64q1 27 19 45t45 19h224v0q27 -1 45 -19t19 -45v-224v0q-1 -27 -19 -45t-45 -19h-64v0v48v0h64v0q15 1 16 16v224v0q-1 15 -16 16h-224v0q-15 -1 -16 -16v-64v0h-48v0zM352 169v-48v48v-48v-32v0h-48v0v96v0h48v0v-16v0zM352 25q-1 -27 -19 -45
v0v0q-18 -18 -45 -19h-32v0v48v0h32v0q15 1 16 16v32v0h48v0v-32v0zM256 265v48v-48v48h32v0q27 -1 45 -19t19 -45v-32v0h-48v0v32v0q-1 15 -16 16h-32v0z" />
</svg>
