<?xml version="1.0" standalone="no"?>
<!DOCTYPE svg PUBLIC "-//W3C//DTD SVG 1.1//EN" "http://www.w3.org/Graphics/SVG/1.1/DTD/svg11.dtd" >
<svg xmlns="http://www.w3.org/2000/svg" xmlns:xlink="http://www.w3.org/1999/xlink" version="1.1" viewBox="-10 -40 468 512">
   <path fill="currentColor"
d="M240 -23q-1 -15 -16 -16q-15 1 -16 16v48v0h-64v0q-34 1 -57 23q-22 23 -23 57v96v0q1 34 23 57q23 22 57 23h160v0q34 -1 57 -23q22 -23 23 -57v-96v0q-1 -34 -23 -57q-23 -22 -57 -23h-64v0v-48v0zM336 105v96v-96v96q0 14 -9 23t-23 9v-16v0q-1 -15 -16 -16
q-15 1 -16 16v16v0h-32v0v-16v0q-1 -15 -16 -16q-15 1 -16 16v16v0h-32v0v-16v0q-1 -15 -16 -16q-15 1 -16 16v16v0q-14 0 -23 -9t-9 -23v-96v0q0 -14 9 -23t23 -9h160v0q14 0 23 9t9 23v0zM400 409v16v-16v16h-96v0v-32v0q-1 -15 -16 -16q-15 1 -16 16v32v0h-32v0v-32v0
q-1 -15 -16 -16q-15 1 -16 16v32v0h-32v0v-32v0q-1 -15 -16 -16q-15 1 -16 16v32v0h-96v0v-16v0q1 -20 14 -34q14 -13 34 -14h256v0q20 1 34 14q13 14 14 34v0zM224 473h64h-64h176q20 -1 34 -14q13 -14 14 -34v-16v0q-1 -41 -28 -68t-68 -28h-256v0q-41 1 -68 28t-28 68v16
v0q1 20 14 34q14 13 34 14h112h64zM16 89q-15 1 -16 16v96v0q1 15 16 16q15 -1 16 -16v-96v0q-1 -15 -16 -16v0zM448 105q-1 -15 -16 -16q-15 1 -16 16v96v0q1 15 16 16q15 -1 16 -16v-96v0zM168 118l-15 -14l15 14l-15 -14q-9 -8 -18 0q-8 9 0 18l14 15v0l-14 15v0
q-8 9 0 18q9 8 18 0l15 -14v0l15 14v0q9 8 18 0q8 -9 0 -18l-14 -15v0l14 -15v0q8 -9 0 -18q-9 -8 -18 0l-15 14v0zM247 104q-8 9 0 18l14 15v0l-14 15v0q-8 9 0 18q9 8 18 0l15 -14v0l15 14v0q9 8 18 0q8 -9 0 -18l-14 -15v0l14 -15v0q8 -9 0 -18q-9 -8 -18 0l-15 14v0
l-15 -14v0q-9 -8 -18 0v0z" />
</svg>
