<?xml version="1.0" standalone="no"?>
<!DOCTYPE svg PUBLIC "-//W3C//DTD SVG 1.1//EN" "http://www.w3.org/Graphics/SVG/1.1/DTD/svg11.dtd" >
<svg xmlns="http://www.w3.org/2000/svg" xmlns:xlink="http://www.w3.org/1999/xlink" version="1.1" viewBox="-11 0 661 512">
   <path fill="currentColor"
d="M320 41q0 14 -9 23v0v0q-9 9 -23 9t-23 -9t-9 -23t9 -23t23 -9t23 9t9 23v0zM288 -39q-34 1 -57 23v0v0q-22 23 -23 57q0 27 16 48q15 20 40 28v4v32v0h-48v0q-22 2 -24 24q2 22 24 24h48v0v224v0h-24v0q-57 -1 -95 -38q-38 -38 -41 -94l16 14v0q18 13 34 -2
q13 -18 -2 -34l-56 -48v0q-16 -12 -32 0l-56 48v0q-15 16 -2 34q16 15 34 2l16 -14v0q4 77 55 127q52 51 129 53h48h48q26 0 50 -7q-22 -18 -38 -41h-12h-24v0v-224v0h48v0q22 -2 24 -24q-2 -22 -24 -24h-48v0v-32v0v-4q25 -8 40 -28q16 -21 16 -48q-1 -34 -23 -57
q-23 -22 -57 -23v0zM640 329q0 -39 -19 -72v0v0q-19 -33 -53 -53q-34 -19 -72 -19t-72 19q-34 20 -53 53t-19 72t19 72t53 53q34 19 72 19t72 -19q34 -20 53 -53t19 -72v0zM563 286q10 11 0 22l-72 72v0q-11 10 -22 0l-40 -40v0q-10 -11 0 -22q11 -10 22 0l29 28v0l61 -60v0
q11 -10 22 0v0z" />
</svg>
