<?xml version="1.0" standalone="no"?>
<!DOCTYPE svg PUBLIC "-//W3C//DTD SVG 1.1//EN" "http://www.w3.org/Graphics/SVG/1.1/DTD/svg11.dtd" >
<svg xmlns="http://www.w3.org/2000/svg" xmlns:xlink="http://www.w3.org/1999/xlink" version="1.1" viewBox="-10 -40 660 512">
   <path fill="currentColor"
d="M145 466l96 -96l-96 96l96 -96q14 -17 0 -34q-17 -14 -34 0l-55 55v0v-150v0h264v0v-8v0q0 -21 7 -40h-79v0v-150v0l55 55v0q17 14 34 0q14 -17 0 -34l-96 -96v0q-7 -7 -17 -7t-17 7l-96 96v0q-14 17 0 34q17 14 34 0l55 -55v0v150v0h-144h-128q-22 2 -24 24q2 22 24 24
h80v0v150v0l-55 -55v0q-17 -14 -34 0q-14 17 0 34l96 96v0q17 14 34 0v0zM152 153v-136v136v-136q-2 -22 -24 -24q-22 2 -24 24v136v0h48v0zM296 281v136v-136v136q2 22 24 24q22 -2 24 -24v-136v0h-48v0zM528 201q14 0 23 9v0v0q9 9 9 23v48v0h-64v0v-48v0q0 -14 9 -23
t23 -9v0zM448 233v48v-48v48q-14 0 -23 9t-9 23v128v0q0 14 9 23t23 9h160v0q14 0 23 -9t9 -23v-128v0q0 -14 -9 -23t-23 -9v-48v0q-1 -34 -23 -57q-23 -22 -57 -23q-34 1 -57 23q-22 23 -23 57v0z" />
</svg>
