<?xml version="1.0" standalone="no"?>
<!DOCTYPE svg PUBLIC "-//W3C//DTD SVG 1.1//EN" "http://www.w3.org/Graphics/SVG/1.1/DTD/svg11.dtd" >
<svg xmlns="http://www.w3.org/2000/svg" xmlns:xlink="http://www.w3.org/1999/xlink" version="1.1" viewBox="-10 -40 660 512">
   <path fill="currentColor"
d="M56 -7q-22 2 -24 24q2 22 24 24h48v0v64v0h-48v0q-22 2 -24 24q2 22 24 24h72h322q31 -31 78 -32q42 1 72 26q8 -7 8 -18q-2 -22 -24 -24h-48v0v-64v0h40v0q22 -2 24 -24q-2 -22 -24 -24h-520v0zM336 201h-32h32h-32q-44 1 -74 30q-29 30 -30 74v88v0h-48v0v-96v0
q-1 -41 -28 -68t-68 -28q-22 2 -24 24q2 22 24 24q20 1 34 14q13 14 14 34v104v0q0 17 12 28q11 12 28 12h64v0q17 0 28 -12q12 -11 12 -28v-96v0q1 -24 16 -40q16 -15 40 -16h32v0q19 0 33 11q14 10 20 28q9 -20 27 -30v-19v0q-30 -36 -80 -38v0zM488 41v64v-64v64h-80v0
v-64v0h80v0zM360 41v64v-64v64h-80v0v-64v0h80v0zM232 41v64v-64v64h-80v0v-64v0h80v0zM528 201q14 0 23 9v0v0q9 9 9 23v48v0h-64v0v-48v0q0 -14 9 -23t23 -9v0zM448 233v48v-48v48q-14 0 -23 9t-9 23v128v0q0 14 9 23t23 9h160v0q14 0 23 -9t9 -23v-128v0q0 -14 -9 -23
t-23 -9v-48v0q-1 -34 -23 -57q-23 -22 -57 -23q-34 1 -57 23q-22 23 -23 57v0z" />
</svg>
