<?xml version="1.0" standalone="no"?>
<!DOCTYPE svg PUBLIC "-//W3C//DTD SVG 1.1//EN" "http://www.w3.org/Graphics/SVG/1.1/DTD/svg11.dtd" >
<svg xmlns="http://www.w3.org/2000/svg" xmlns:xlink="http://www.w3.org/1999/xlink" version="1.1" viewBox="-10 -40 660 512">
   <path fill="currentColor"
d="M149 -26q-7 -12 -21 -13q-14 1 -21 12q-19 32 -42 60q-23 27 -49 36q-20 10 -15 31q10 20 31 15q42 -17 69 -51q2 -1 3 -3v140v0h-80v0q-22 2 -24 24q2 22 24 24h592v0q22 -2 24 -24q-2 -22 -24 -24h-80v0v-140v0q1 1 1 2q1 0 2 1q27 34 69 51q21 5 31 -15q5 -21 -15 -30
q-26 -11 -49 -37q-23 -28 -42 -60q-7 -11 -21 -12q-14 1 -21 13q-27 46 -72 72q-45 27 -99 27t-99 -27q-45 -26 -72 -72v0zM200 201h-48h48h-48v-147v0q22 20 48 35v112v0zM296 201h-48h48h-48v-91v0q23 7 48 10v81v0zM392 201h-48h48h-48v-81v0q25 -3 48 -10v91v0zM488 201
h-48h48h-48v-112v0q26 -14 48 -35v147v0zM0 321q2 22 24 24h16v0q24 1 40 16q15 16 16 40v24v0q1 20 14 34q14 13 34 14h49v0q20 -1 33 -14t14 -33v-1v0q1 -34 23 -57q23 -22 57 -23q34 1 57 23q22 23 23 57v1v0q1 20 14 33t33 14h49v0q20 -1 34 -14q13 -14 14 -34v-24v0
q1 -24 16 -40q16 -15 40 -16h16v0q22 -2 24 -24q-2 -22 -24 -24h-16v0q-44 1 -74 30q-29 30 -30 74v24v0h-48v0q-1 -54 -37 -91q-37 -36 -91 -37q-54 1 -91 37q-36 37 -37 91h-48v0v-24v0q-1 -44 -30 -74q-30 -29 -74 -30h-16v0q-22 2 -24 24v0z" />
</svg>
