<?xml version="1.0" standalone="no"?>
<!DOCTYPE svg PUBLIC "-//W3C//DTD SVG 1.1//EN" "http://www.w3.org/Graphics/SVG/1.1/DTD/svg11.dtd" >
<svg xmlns="http://www.w3.org/2000/svg" xmlns:xlink="http://www.w3.org/1999/xlink" version="1.1" viewBox="-11 0 597 512">
   <path fill="currentColor"
d="M48 73v51v-51v51q35 9 57 36q22 28 23 65v97v0q-23 -13 -48 -6v-91v0q-1 -24 -16 -40q-16 -15 -40 -16q-22 -2 -24 -24v-88v0q0 -14 9 -23t23 -9h512v0q14 0 23 9t9 23v88v0q-2 22 -24 24q-24 1 -40 16q-15 16 -16 40v91v0q-25 -7 -48 6v-97v0q1 -37 23 -65
q22 -27 57 -36v-51v0h-480v0zM192 346l-16 -2v-111v0q1 -48 33 -79q31 -32 79 -33q48 1 79 33q32 31 33 79v111v0l-16 2q-16 -1 -32 -7v-106v0q-1 -27 -19 -45t-45 -19q-27 1 -45 19t-19 45v106v0q-16 6 -32 7v0zM112 359q16 14 37 24v0v0q21 10 43 10t43 -10q20 -10 37 -24
q16 -12 32 0q16 14 37 24t43 10t43 -10q20 -10 37 -24q16 -12 32 0q27 24 61 32q21 7 18 29q-7 21 -28 18q-45 -13 -67 -31q-43 32 -96 34q-53 -2 -96 -34q-43 32 -96 34q-53 -2 -96 -34q-23 18 -67 31q-22 3 -29 -18q-2 -22 19 -29q34 -9 61 -32q16 -12 32 0v0z" />
</svg>
