<?xml version="1.0" standalone="no"?>
<!DOCTYPE svg PUBLIC "-//W3C//DTD SVG 1.1//EN" "http://www.w3.org/Graphics/SVG/1.1/DTD/svg11.dtd" >
<svg xmlns="http://www.w3.org/2000/svg" xmlns:xlink="http://www.w3.org/1999/xlink" version="1.1" viewBox="-10 -40 660 512">
   <path fill="currentColor"
d="M64 9h256h-256h256q15 1 16 16v231v0q17 -37 48 -63v-168v0q-1 -27 -19 -45t-45 -19h-256v0q-27 1 -45 19t-19 45v384v0q1 27 19 45t45 19h256v0q30 -1 49 -22q-21 -22 -33 -49v7v0q-1 15 -16 16h-80v0v-64v0q-1 -20 -14 -34q-14 -13 -34 -14q-20 1 -34 14q-13 14 -14 34
v64v0h-80v0q-15 -1 -16 -16v-384v0q1 -15 16 -16v0zM88 65v48v-48v48q1 15 16 16h48v0q15 -1 16 -16v-48v0q-1 -15 -16 -16h-48v0q-15 1 -16 16v0zM232 49q-15 1 -16 16v48v0q1 15 16 16h48v0q15 -1 16 -16v-48v0q-1 -15 -16 -16h-48v0zM88 193v48v-48v48q1 15 16 16h48v0
q15 -1 16 -16v-48v0q-1 -15 -16 -16h-48v0q-15 1 -16 16v0zM232 177q-15 1 -16 16v48v0q1 15 16 16h48v0q15 -1 16 -16v-48v0q-1 -15 -16 -16h-48v0zM496 473q39 0 72 -19v0v0q33 -19 53 -53q19 -34 19 -72t-19 -72q-20 -34 -53 -53t-72 -19t-72 19t-53 53q-19 34 -19 72
t19 72q20 34 53 53t72 19v0zM496 377q22 2 24 24q-2 22 -24 24q-22 -2 -24 -24q2 -22 24 -24v0zM496 233q15 1 16 16v80v0q-1 15 -16 16q-15 -1 -16 -16v-80v0q1 -15 16 -16v0z" />
</svg>
