<?xml version="1.0" standalone="no"?>
<!DOCTYPE svg PUBLIC "-//W3C//DTD SVG 1.1//EN" "http://www.w3.org/Graphics/SVG/1.1/DTD/svg11.dtd" >
<svg xmlns="http://www.w3.org/2000/svg" xmlns:xlink="http://www.w3.org/1999/xlink" version="1.1" viewBox="-10 -40 597 512">
   <path fill="currentColor"
d="M64 9h256h-256h256q15 1 16 16v162v0l48 -19v0v-143v0q-1 -27 -19 -45t-45 -19h-256v0q-27 1 -45 19t-19 45v384v0q1 27 19 45t45 19h256v0q17 0 30 -8q-23 -18 -39 -40h-71v0v-64v0q-1 -20 -14 -34q-14 -13 -34 -14q-20 1 -34 14q-13 14 -14 34v64v0h-80v0
q-15 -1 -16 -16v-384v0q1 -15 16 -16v0zM296 193q-1 -15 -16 -16h-48v0q-15 1 -16 16v48v0q1 15 16 16h24v0q2 -37 35 -52l5 -2v0v-10v0zM88 65v48v-48v48q1 15 16 16h48v0q15 -1 16 -16v-48v0q-1 -15 -16 -16h-48v0q-15 1 -16 16v0zM232 49q-15 1 -16 16v48v0q1 15 16 16
h48v0q15 -1 16 -16v-48v0q-1 -15 -16 -16h-48v0zM88 193v48v-48v48q1 15 16 16h48v0q15 -1 16 -16v-48v0q-1 -15 -16 -16h-48v0q-15 1 -16 16v0zM423 187l-120 48l120 -48l-120 48q-14 6 -15 22q-1 33 11 74q11 41 40 79q30 38 84 61q9 4 18 0q54 -23 84 -61q29 -38 40 -79
q12 -41 11 -74q-1 -16 -15 -22l-120 -48v0q-9 -4 -18 0v0zM527 273q-2 40 -23 81v0v0q-22 42 -72 69v-188v0l95 38v0z" />
</svg>
