<?xml version="1.0" standalone="no"?>
<!DOCTYPE svg PUBLIC "-//W3C//DTD SVG 1.1//EN" "http://www.w3.org/Graphics/SVG/1.1/DTD/svg11.dtd" >
<svg xmlns="http://www.w3.org/2000/svg" xmlns:xlink="http://www.w3.org/1999/xlink" version="1.1" viewBox="-10 -40 532 512">
   <path fill="currentColor"
d="M162 177q7 -22 -6 -42l-39 -57v0l57 39v0q20 13 42 6q23 -8 31 -31l9 -29v0l12 36v0q6 19 24 28q19 9 38 2l22 -8v0l-8 22v0q-7 20 2 38t28 25l36 11v0l-33 11v0q-21 7 -29 28q-8 20 2 40l17 32v0l-33 -17v0q-19 -10 -40 -2q-20 9 -28 30l-10 32v0l-11 -32v0
q-7 -21 -27 -30q-21 -8 -41 2l-32 17v0l17 -32v0q10 -20 2 -41q-9 -20 -30 -27l-32 -11v0l29 -9v0q22 -8 31 -31v0zM160 49l-122 -84l122 84l-122 -84q-17 -9 -31 3q-12 14 -3 31l84 122v0l28 41v0l-47 15v0l-52 17v0q-16 6 -17 23q1 17 17 23l56 18v0l47 15v0l-23 43v0
l-30 58v0q-7 15 4 28q13 11 28 4l58 -30v0l43 -23v0l15 47v0l18 56v0q6 16 23 17q17 -1 23 -17l18 -56v0l15 -47v0l43 23v0l58 30v0q15 7 28 -4q11 -13 4 -28l-30 -58v0l-23 -43v0l47 -15v0l56 -18v0q16 -6 17 -23q-1 -17 -17 -23l-60 -20v0l-46 -14v0l16 -45v0l9 -26v0
q5 -14 -5 -25q-11 -10 -25 -6l-26 10v0l-45 16v0l-14 -46v0l-20 -60v0q-6 -16 -23 -17q-17 1 -23 17l-17 52v0l-15 47v0l-41 -28v0z" />
</svg>
