<?xml version="1.0" standalone="no"?>
<!DOCTYPE svg PUBLIC "-//W3C//DTD SVG 1.1//EN" "http://www.w3.org/Graphics/SVG/1.1/DTD/svg11.dtd" >
<svg xmlns="http://www.w3.org/2000/svg" xmlns:xlink="http://www.w3.org/1999/xlink" version="1.1" viewBox="-10 -40 650 512">
   <path fill="currentColor"
d="M160 9q22 2 24 24q-2 22 -24 24q-22 -2 -24 -24q2 -22 24 -24v0zM160 105q41 -1 62 -36q20 -36 0 -72q-21 -35 -62 -36q-41 1 -62 36q-20 36 0 72q21 35 62 36v0zM160 121q-54 1 -88 44l-59 78v0q-12 18 5 33q18 12 33 -4l45 -60v0l-39 117v0q-3 12 4 22t19 10h16v0v88v0
q2 22 24 24q22 -2 24 -24v-88v0h32v0v88v0q2 22 24 24q22 -2 24 -24v-88v0h16v0q12 0 20 -10q6 -10 3 -22l-39 -117v0l45 60v0q15 16 33 4q17 -15 5 -33l-59 -78v0q-34 -43 -88 -44v0zM113 313l47 -140l-47 140l47 -140l47 140v0h-94v0zM456 33q2 -22 24 -24q22 2 24 24
q-2 22 -24 24q-22 -2 -24 -24v0zM552 33q-1 -41 -36 -62q-36 -20 -72 0q-35 21 -36 62q1 41 36 62q36 20 72 0q35 -21 36 -62v0zM480 169q8 0 16 3v125v0h-32v0v-125v0q8 -3 16 -3v0zM464 449v-104v104v-104h32v0v104v0q2 22 24 24q22 -2 24 -24v-223v0l28 44v0q13 17 33 7
q17 -13 7 -33l-48 -77v0q-30 -44 -84 -46q-54 2 -84 46l-48 77v0q-10 20 7 33q20 10 33 -7l28 -44v0v223v0q2 22 24 24q22 -2 24 -24v0z" />
</svg>
