<?xml version="1.0" standalone="no"?>
<!DOCTYPE svg PUBLIC "-//W3C//DTD SVG 1.1//EN" "http://www.w3.org/Graphics/SVG/1.1/DTD/svg11.dtd" >
<svg xmlns="http://www.w3.org/2000/svg" xmlns:xlink="http://www.w3.org/1999/xlink" version="1.1" viewBox="-10 -40 596 512">
   <path fill="currentColor"
d="M184 69q2 -26 20 -43v0v0q18 -16 44 -17q37 2 55 32q6 8 16 11q10 2 18 -4q10 -7 23 -7q31 2 39 31q5 18 24 19h10v0q13 1 22 9q9 9 9 22t-9 22t-22 9h-290v0q-13 0 -22 -9t-9 -22t9 -22q9 -8 22 -9h17v0q21 -1 24 -22v0zM248 -39q-39 1 -68 23v0v0q-30 23 -40 59
q-32 2 -54 24q-21 22 -22 55q1 34 23 56t56 23h290v0q34 -1 56 -23t23 -56q-1 -32 -21 -53q-20 -22 -51 -25q-11 -23 -32 -37t-48 -14q-15 0 -29 5q-32 -35 -83 -37v0zM133 269q9 -20 -9 -33q-19 -9 -32 9l-48 80v0q-10 20 8 33q20 9 33 -9l48 -80v0zM460 236q-20 -9 -32 9
l-48 80v0q-10 20 8 33q20 9 33 -9l48 -80v0q9 -20 -9 -33v0zM245 269q9 -20 -9 -33q-19 -9 -32 9l-48 80v0q-10 20 8 33q20 9 33 -9l48 -80v0zM348 236q-19 -9 -32 9l-48 80v0q-10 20 8 33q20 9 33 -9l48 -80v0q9 -20 -9 -33v0zM112 391q-16 -12 -32 0q-27 23 -61 32
q-21 7 -18 29q6 21 28 18q44 -13 67 -31q43 32 96 34q53 -2 96 -34q43 32 96 34q53 -2 96 -34q23 18 67 31q22 2 28 -19q3 -22 -18 -28q-34 -9 -61 -32q-16 -12 -32 0q-16 14 -37 24q-21 9 -43 10q-22 -1 -43 -10q-21 -10 -37 -24q-16 -12 -32 0q-16 14 -37 24q-21 9 -43 10
q-22 -1 -43 -10q-20 -10 -37 -24v0z" />
</svg>
