<?xml version="1.0" standalone="no"?>
<!DOCTYPE svg PUBLIC "-//W3C//DTD SVG 1.1//EN" "http://www.w3.org/Graphics/SVG/1.1/DTD/svg11.dtd" >
<svg xmlns="http://www.w3.org/2000/svg" xmlns:xlink="http://www.w3.org/1999/xlink" version="1.1" viewBox="-10 -40 660 512">
   <path fill="currentColor"
d="M384 41q15 1 16 16v224v0q-1 15 -16 16h-103h-217q-15 -1 -16 -16v-224v0q1 -15 16 -16h320v0zM64 345h87h-87h87l-16 48v0h-47v0q-22 2 -24 24q2 22 24 24h31h241q22 -2 24 -24q-2 -22 -24 -24h-47v0l-16 -48v0h87v0q27 -1 45 -19t19 -45v-224v0q-1 -27 -19 -45t-45 -19
h-320v0q-27 1 -45 19t-19 45v224v0q1 27 19 45t45 19v0zM185 393l16 -48l-16 48l16 -48h46v0l16 48v0h-78v0zM528 41h64h-64h64v32v0h-64v0v-32v0zM528 121h64h-64h64v32v0h-64v0v-32v0zM592 201v192v-192v192h-64v0v-192v0h64v0zM480 41v352v-352v352q1 20 14 34
q14 13 34 14h64v0q20 -1 34 -14q13 -14 14 -34v-352v0q-1 -20 -14 -34q-14 -13 -34 -14h-64v0q-20 1 -34 14q-13 14 -14 34v0zM560 321q22 -2 24 -24q-2 -22 -24 -24q-22 2 -24 24q2 22 24 24v0z" />
</svg>
