<?xml version="1.0" standalone="no"?>
<!DOCTYPE svg PUBLIC "-//W3C//DTD SVG 1.1//EN" "http://www.w3.org/Graphics/SVG/1.1/DTD/svg11.dtd" >
<svg xmlns="http://www.w3.org/2000/svg" xmlns:xlink="http://www.w3.org/1999/xlink" version="1.1" viewBox="-10 -40 596 512">
   <path fill="currentColor"
d="M64 425h221h-221h221q18 28 45 47q-5 1 -10 1h-256v0q-27 -1 -45 -19t-19 -45v-384v0q1 -27 19 -45t45 -19h166v0q26 0 45 19l90 90v0q19 19 19 46v44v0q-26 7 -48 21v-60v0h-80v0q-14 0 -23 -9t-9 -23v-80v0h-160v0q-15 1 -16 16v384v0q1 15 16 16v0zM432 185
q39 0 72 19v0v0q33 19 53 53q19 34 19 72t-19 72q-20 34 -53 53t-72 19t-72 -19t-53 -53q-19 -34 -19 -72t19 -72q20 -34 53 -53t72 -19v0zM432 425q22 -2 24 -24q-2 -22 -24 -24q-22 2 -24 24q2 22 24 24v0zM368 283v6v-6v6q1 15 16 16q15 -1 16 -16v-6v0q1 -9 10 -10h40v0
q13 1 14 14q0 8 -7 12l-32 17v0q-9 5 -9 14v15v0q1 15 16 16q15 -1 16 -16v-5v0l24 -12v0q23 -14 24 -41q0 -20 -13 -32q-13 -13 -33 -14h-40v0q-18 1 -30 12q-12 12 -12 30v0z" />
</svg>
