<?xml version="1.0" standalone="no"?>
<!DOCTYPE svg PUBLIC "-//W3C//DTD SVG 1.1//EN" "http://www.w3.org/Graphics/SVG/1.1/DTD/svg11.dtd" >
<svg xmlns="http://www.w3.org/2000/svg" xmlns:xlink="http://www.w3.org/1999/xlink" version="1.1" viewBox="-10 -40 597 512">
   <path fill="currentColor"
d="M64 425h247h-247h247q16 22 39 40q-13 8 -30 8h-256v0q-27 -1 -45 -19t-19 -45v-384v0q1 -27 19 -45t45 -19h166v0q26 0 45 19l90 90v0q19 19 19 46v52v0l-48 19v0v-66v0h-80v0q-14 0 -23 -9t-9 -23v-80v0h-160v0q-15 1 -16 16v384v0q1 15 16 16v0zM423 187q9 -4 18 0
l120 48v0q14 6 15 22q1 33 -11 74q-11 41 -40 79q-30 38 -84 61q-9 4 -18 0q-54 -23 -84 -61q-29 -38 -40 -79q-12 -41 -11 -74q1 -16 15 -22l120 -48v0zM527 273l-95 -38l95 38l-95 -38v188v0q50 -27 72 -69q21 -41 23 -81v0z" />
</svg>
