<?xml version="1.0" standalone="no"?>
<!DOCTYPE svg PUBLIC "-//W3C//DTD SVG 1.1//EN" "http://www.w3.org/Graphics/SVG/1.1/DTD/svg11.dtd" >
<svg xmlns="http://www.w3.org/2000/svg" xmlns:xlink="http://www.w3.org/1999/xlink" version="1.1" viewBox="-10 -40 660 512">
   <path fill="currentColor"
d="M240 -7q0 -14 9 -23v0v0q9 -9 23 -9t23 9t9 23t-9 23t-23 9t-23 -9t-9 -23v0zM192 9q14 0 23 9v0v0q9 9 9 23t-9 23t-23 9t-23 -9t-9 -23t9 -23t23 -9v0zM160 89q14 0 23 9v0v0q9 9 9 23h8v0q22 2 24 24v16v0v5q43 19 69 58t27 89q-2 68 -47 113t-113 47q-68 -2 -113 -47
t-47 -113q1 -50 27 -89t70 -58q-1 -2 -1 -5v-16v0q2 -22 24 -24h8v0q0 -14 9 -23t23 -9v0zM160 425q30 0 56 -15v0v0q26 -15 41 -41t15 -56t-15 -56t-41 -41t-56 -15t-56 15t-41 41t-15 56t15 56t41 41t56 15v0zM352 313q0 -39 -14 -73q26 -51 79 -74q-1 -2 -1 -5v-16v0
q2 -22 24 -24h8v0q0 -14 9 -23t23 -9t23 9t9 23h8v0q22 2 24 24v16v0v5q43 19 69 58t27 89q-2 68 -47 113t-113 47q-47 -1 -84 -24q-38 -24 -58 -63q14 -34 14 -73v0zM592 313q0 -30 -15 -56v0v0q-15 -26 -41 -41t-56 -15t-56 15t-41 41t-15 56t15 56t41 41t56 15t56 -15
t41 -41t15 -56v0zM368 -39q14 0 23 9v0v0q9 9 9 23t-9 23t-23 9t-23 -9t-9 -23t9 -23t23 -9v0zM448 9q14 0 23 9v0v0q9 9 9 23t-9 23t-23 9t-23 -9t-9 -23t9 -23t23 -9v0z" />
</svg>
