<?xml version="1.0" standalone="no"?>
<!DOCTYPE svg PUBLIC "-//W3C//DTD SVG 1.1//EN" "http://www.w3.org/Graphics/SVG/1.1/DTD/svg11.dtd" >
<svg xmlns="http://www.w3.org/2000/svg" xmlns:xlink="http://www.w3.org/1999/xlink" version="1.1" viewBox="-10 -40 660 512">
   <path fill="currentColor"
d="M320 217q35 0 64 -17v0v0q29 -17 47 -47q17 -30 17 -64t-17 -64q-18 -30 -47 -47t-64 -17t-64 17t-47 47q-17 30 -17 64t17 64q18 30 47 47t64 17v0zM144 97q-1 -31 -21 -51v0v0q-20 -20 -51 -21q-31 1 -51 21t-21 51v216v0q1 50 35 85l68 68v0q17 14 34 0q14 -17 0 -34
l-68 -68v0q-21 -21 -21 -51v-216v0q2 -22 24 -24q22 2 24 24v146v0q1 40 28 68l16 16v0v0v0l27 27v0v0v0l16 16v0q17 14 34 0q14 -17 0 -34l-16 -16v0v0v0l-27 -27v0q-6 -6 -6 -15q2 -19 21 -21q9 0 15 6l62 62v0q29 30 30 73v51v0q2 22 24 24q22 -2 24 -24v-51v0
q1 -43 30 -73l62 -62v0q6 -6 15 -6q19 2 21 21q0 9 -6 15l-27 27v0v0v0l-16 16v0q-14 17 0 34q17 14 34 0l16 -16v0v0v0l27 -27v0v0v0l16 -16v0q27 -28 28 -68v-146v0q2 -22 24 -24q22 2 24 24v216v0q-1 30 -21 51l-68 68v0q-14 17 0 34q17 14 34 0l68 -68v0q34 -35 35 -85
v-216v0q-1 -31 -21 -51t-51 -21q-31 1 -51 21t-21 51v129v0q-19 -16 -45 -17q-29 0 -49 20l-62 62v0q-11 11 -20 25q-9 -14 -21 -25l-61 -62v0q-20 -20 -49 -20q-26 1 -45 17v-129v0z" />
</svg>
