<?xml version="1.0" standalone="no"?>
<!DOCTYPE svg PUBLIC "-//W3C//DTD SVG 1.1//EN" "http://www.w3.org/Graphics/SVG/1.1/DTD/svg11.dtd" >
<svg xmlns="http://www.w3.org/2000/svg" xmlns:xlink="http://www.w3.org/1999/xlink" version="1.1" viewBox="-10 -40 597 512">
   <path fill="currentColor"
d="M551 352q26 -27 26 -62v0v0q0 -35 -26 -62q-21 -21 -49 -25t-54 9q-18 12 -10 32q12 18 32 10q26 -11 47 8q12 12 12 28t-12 28t-28 12t-29 -12l-81 -81v0q35 -24 37 -68q0 -26 -14 -46q-14 -19 -37 -28q3 -11 3 -22q-1 -34 -23 -57q-23 -22 -57 -23q-43 2 -66 35
q-11 -33 -46 -35q-20 1 -34 14q-13 14 -14 34q0 6 1 12l311 310v0q26 17 57 15q30 -3 54 -26v0zM448 57q14 0 23 -9v0v0q9 -9 9 -23t-9 -23t-23 -9t-23 9t-9 23t9 23t23 9v0zM512 121q0 -14 -9 -23v0v0q-9 -9 -23 -9t-23 9t-9 23t9 23t23 9t23 -9t9 -23v0zM48 401v-294v294
v-294l318 318v0h-294v0q-22 -2 -24 -24v0zM68 59q-21 -18 -43 -8v0v0q-23 9 -25 37v313v0q1 31 21 51t51 21h313v0q28 -2 37 -25q10 -22 -8 -43l-346 -346v0z" />
</svg>
