<?xml version="1.0" standalone="no"?>
<!DOCTYPE svg PUBLIC "-//W3C//DTD SVG 1.1//EN" "http://www.w3.org/Graphics/SVG/1.1/DTD/svg11.dtd" >
<svg xmlns="http://www.w3.org/2000/svg" xmlns:xlink="http://www.w3.org/1999/xlink" version="1.1" viewBox="-11 0 661 512">
   <path fill="currentColor"
d="M304 -33q-16 -12 -32 0l-264 224v0q-15 15 -2 34q15 15 33 2l25 -20v0v186v0q1 34 23 57q23 22 57 23h251v0q-28 -20 -46 -48h-13v0v0v0h-96v0v-144v0h87v0q7 -26 21 -48h-4v0h-112v0q-17 0 -28 12q-12 11 -12 28v152v0h-48v0q-14 0 -23 -9t-9 -23v-227v0l176 -149v0
l167 141v0q20 -5 41 -5q15 0 30 3l-222 -189v0zM496 473q39 0 72 -19v0v0q33 -19 53 -53q19 -34 19 -72t-19 -72q-20 -34 -53 -53t-72 -19t-72 19t-53 53q-19 34 -19 72t19 72q20 34 53 53t72 19v0zM519 329l36 37l-36 -37l36 37q10 11 0 22q-11 10 -22 0l-37 -36v0l-37 36
v0q-11 10 -22 0q-10 -11 0 -22l36 -37v0l-36 -37v0q-10 -11 0 -22q11 -10 22 0l37 36v0l37 -36v0q11 -10 22 0q10 11 0 22l-36 37v0z" />
</svg>
