<?xml version="1.0" standalone="no"?>
<!DOCTYPE svg PUBLIC "-//W3C//DTD SVG 1.1//EN" "http://www.w3.org/Graphics/SVG/1.1/DTD/svg11.dtd" >
<svg xmlns="http://www.w3.org/2000/svg" xmlns:xlink="http://www.w3.org/1999/xlink" version="1.1" viewBox="-10 -40 596 512">
   <path fill="currentColor"
d="M302 -35q-14 -8 -28 0l-192 136v0q-17 15 -6 34q15 17 34 6l2 -2v0v81v0q11 2 21 9q13 9 27 14v-138v0l128 -91v0l128 91v0v138v0q14 -5 27 -14q10 -7 21 -9v-81v0l2 2v0q19 11 34 -6q11 -19 -6 -34l-192 -136v0zM80 279q-27 23 -61 32q-21 7 -18 29q6 21 28 18
q44 -13 67 -31q43 32 96 34q53 -2 96 -34q43 32 96 34q53 -2 96 -34q23 18 67 31q22 2 28 -19q3 -22 -18 -28q-34 -9 -61 -32q-16 -12 -32 0q-16 14 -37 24q-21 9 -43 10q-22 -1 -43 -10q-21 -10 -37 -24q-16 -12 -32 0q-16 14 -37 24q-21 9 -43 10q-22 -1 -43 -10
q-20 -10 -37 -24q-16 -12 -32 0v0zM112 391q-16 -12 -32 0q-27 23 -61 32q-21 7 -18 29q6 21 28 18q44 -13 67 -31q43 32 96 34q53 -2 96 -34q43 32 96 34q53 -2 96 -34q23 18 67 31q22 2 28 -19q3 -22 -18 -28q-34 -9 -61 -32q-16 -12 -32 0q-16 14 -37 24q-21 9 -43 10
q-22 -1 -43 -10q-21 -10 -37 -24q-16 -12 -32 0q-16 14 -37 24q-21 9 -43 10q-22 -1 -43 -10q-20 -10 -37 -24v0z" />
</svg>
