<?xml version="1.0" standalone="no"?>
<!DOCTYPE svg PUBLIC "-//W3C//DTD SVG 1.1//EN" "http://www.w3.org/Graphics/SVG/1.1/DTD/svg11.dtd" >
<svg xmlns="http://www.w3.org/2000/svg" xmlns:xlink="http://www.w3.org/1999/xlink" version="1.1" viewBox="-10 -40 650 512">
   <path fill="currentColor"
d="M316 68q-5 -25 -17 -47l79 -56v0q14 -8 28 0l192 136v0q17 15 6 34q-15 17 -34 6l-2 -2v0v103v0q-8 -4 -15 -9q-15 -13 -33 -15v-113v0l-128 -91v0l-76 54v0zM144 279q16 14 37 24v0v0q21 10 43 10t43 -10q20 -10 37 -24q16 -12 32 0q16 14 37 24t43 10t43 -10
q20 -10 37 -24q16 -12 32 0q27 24 61 32q21 7 18 29q-7 21 -28 18q-45 -13 -67 -31q-43 32 -96 34q-53 -2 -96 -34q-43 32 -96 34q-53 -2 -96 -34q-23 18 -67 31q-22 3 -29 -18q-2 -22 19 -29q34 -9 61 -32q16 -12 32 0v0zM112 391q16 -12 32 0q16 14 37 24t43 10t43 -10
q20 -10 37 -24q16 -12 32 0q16 14 37 24t43 10t43 -10q20 -10 37 -24q16 -12 32 0q27 24 61 32q21 7 18 29q-7 21 -28 18q-45 -13 -67 -31q-43 32 -96 34q-53 -2 -96 -34q-43 32 -96 34q-53 -2 -96 -34q-23 18 -67 31q-22 3 -29 -18q-2 -22 19 -29q34 -9 61 -32v0zM0 105
q0 -39 19 -72v0v0q19 -33 53 -53q34 -19 72 -19t72 19q34 20 53 53t19 72t-19 72t-53 53q-34 19 -72 19t-72 -19q-34 -20 -53 -53t-19 -72v0zM141 38q-10 11 0 22l28 29v0h-89v0q-15 1 -16 16q1 15 16 16h89v0l-28 29v0q-10 11 0 22q11 10 22 0l56 -56v0q10 -11 0 -22
l-56 -56v0q-11 -10 -22 0v0z" />
</svg>
