<?xml version="1.0" standalone="no"?>
<!DOCTYPE svg PUBLIC "-//W3C//DTD SVG 1.1//EN" "http://www.w3.org/Graphics/SVG/1.1/DTD/svg11.dtd" >
<svg xmlns="http://www.w3.org/2000/svg" xmlns:xlink="http://www.w3.org/1999/xlink" version="1.1" viewBox="-10 -40 660 512">
   <path fill="currentColor"
d="M273 -33q15 -12 31 0l222 189v0q-15 -3 -30 -3q-21 0 -41 5l-167 -141v0l-176 149v0v227v0q0 14 9 23t23 9h205v0q18 28 46 48h-251v0q-34 -1 -57 -23q-22 -23 -23 -57v-186v0l-24 20v0q-19 13 -34 -2q-13 -19 3 -34l264 -224v0zM320 217h40h-40h40q-23 28 -33 64h-7v0
v48v0q-1 15 -16 16h-32v0q-15 -1 -16 -16v-48v0h-48v0q-15 -1 -16 -16v-32v0q1 -15 16 -16h48v0v-48v0q1 -15 16 -16h32v0q15 1 16 16v48v0zM352 329q0 -39 19 -72v0v0q19 -33 53 -53q34 -19 72 -19t72 19q34 20 53 53t19 72t-19 72t-53 53q-34 19 -72 19t-72 -19
q-34 -20 -53 -53t-19 -72v0zM563 286q-11 -10 -22 0l-61 60v0l-29 -28v0q-11 -10 -22 0q-10 11 0 22l40 40v0q11 10 22 0l72 -72v0q10 -11 0 -22v0z" />
</svg>
