<?xml version="1.0" standalone="no"?>
<!DOCTYPE svg PUBLIC "-//W3C//DTD SVG 1.1//EN" "http://www.w3.org/Graphics/SVG/1.1/DTD/svg11.dtd" >
<svg xmlns="http://www.w3.org/2000/svg" xmlns:xlink="http://www.w3.org/1999/xlink" version="1.1" viewBox="-10 -40 660 512">
   <path fill="currentColor"
d="M496 -15v8v-8v8h128v0q15 1 16 16v128v0q-1 15 -16 16h-128v0v320v0h-48v0v-320v0v-160v0v-8v0q2 -22 24 -24q22 2 24 24v0zM286 -2l130 96l-130 -96l130 96v60v0l-144 -107v0l-160 119v0v227v0q0 14 9 23t23 9h256v0q9 0 16 -4v50v0q-8 2 -16 2h-256v0q-34 -1 -57 -23
q-22 -23 -23 -57v-192v0l-26 19v0q-19 12 -33 -5q-12 -19 5 -33l248 -184v0q14 -10 28 0v0zM240 169q1 -15 16 -16h32v0q15 1 16 16v48v0h48v0q15 1 16 16v32v0q-1 15 -16 16h-48v0v48v0q-1 15 -16 16h-32v0q-15 -1 -16 -16v-48v0h-48v0q-15 -1 -16 -16v-32v0q1 -15 16 -16
h48v0v-48v0z" />
</svg>
