<?xml version="1.0" standalone="no"?>
<!DOCTYPE svg PUBLIC "-//W3C//DTD SVG 1.1//EN" "http://www.w3.org/Graphics/SVG/1.1/DTD/svg11.dtd" >
<svg xmlns="http://www.w3.org/2000/svg" xmlns:xlink="http://www.w3.org/1999/xlink" version="1.1" viewBox="-10 -40 532 512">
   <path fill="currentColor"
d="M272 -39h-16h16h-16q-15 1 -16 16v112v0h-192v0q-22 2 -24 24q2 22 24 24h416v0q22 -2 24 -24q-2 -22 -24 -24h-192v0v-32v0h80v0q15 -1 16 -16v-64v0q-1 -15 -16 -16h-80v0zM112 169h-48h48h-48v176v0h-8v0q-22 2 -24 24q2 22 24 24h400v0q22 -2 24 -24q-2 -22 -24 -24
h-8v0v-176v0h-48v0v176v0h-64v0v-176v0h-48v0v176v0h-64v0v-176v0h-48v0v176v0h-64v0v-176v0zM0 449q2 22 24 24h464v0q22 -2 24 -24q-2 -22 -24 -24h-464v0q-22 2 -24 24v0z" />
</svg>
