<?xml version="1.0" standalone="no"?>
<!DOCTYPE svg PUBLIC "-//W3C//DTD SVG 1.1//EN" "http://www.w3.org/Graphics/SVG/1.1/DTD/svg11.dtd" >
<svg xmlns="http://www.w3.org/2000/svg" xmlns:xlink="http://www.w3.org/1999/xlink" version="1.1" viewBox="-10 -40 532 512">
   <path fill="currentColor"
d="M208 9q43 0 80 21v0v0q37 22 59 59q21 38 21 80t-21 80q-22 37 -59 59q-37 21 -80 21t-80 -21q-37 -22 -59 -59q-21 -38 -21 -80t21 -80q22 -37 59 -59q37 -21 80 -21v0zM208 377q75 -1 129 -45l134 134v0q17 14 34 0q14 -17 0 -34l-134 -134v0q44 -54 45 -129
q-2 -88 -61 -147t-147 -61q-88 2 -147 61t-61 147q2 88 61 147t147 61v0zM104 177v64v-64v64q2 22 24 24q22 -2 24 -24v-64v0q-2 -22 -24 -24q-22 2 -24 24v0zM184 81v160v-160v160q2 22 24 24q22 -2 24 -24v-160v0q-2 -22 -24 -24q-22 2 -24 24v0zM264 145v96v-96v96
q2 22 24 24q22 -2 24 -24v-96v0q-2 -22 -24 -24q-22 2 -24 24v0z" />
</svg>
