<?xml version="1.0" standalone="no"?>
<!DOCTYPE svg PUBLIC "-//W3C//DTD SVG 1.1//EN" "http://www.w3.org/Graphics/SVG/1.1/DTD/svg11.dtd" >
<svg xmlns="http://www.w3.org/2000/svg" xmlns:xlink="http://www.w3.org/1999/xlink" version="1.1" viewBox="-10 -40 660 512">
   <path fill="currentColor"
d="M240 73v288v-288v288h-176v0q-15 -1 -16 -16v-256v0q1 -15 16 -16h176v0zM288 73h288h-288h288q15 1 16 16v256v0q-1 15 -16 16h-288v0v-288v0zM64 25q-27 1 -45 19v0v0q-18 18 -19 45v256v0q1 27 19 45t45 19h512v0q27 -1 45 -19t19 -45v-256v0q-1 -27 -19 -45t-45 -19
h-512v0zM80 137v160v-160v160q0 14 9 23t23 9h64v0q14 0 23 -9t9 -23v-160v0q0 -14 -9 -23t-23 -9h-64v0q-14 0 -23 9t-9 23v0z" />
</svg>
