<?xml version="1.0" standalone="no"?>
<!DOCTYPE svg PUBLIC "-//W3C//DTD SVG 1.1//EN" "http://www.w3.org/Graphics/SVG/1.1/DTD/svg11.dtd" >
<svg xmlns="http://www.w3.org/2000/svg" xmlns:xlink="http://www.w3.org/1999/xlink" version="1.1" viewBox="-10 -40 660 512">
   <path fill="currentColor"
d="M178 468q-16 -15 -5 -34l43 -57v0v-56v0q0 -9 6 -16l62 -74v0l-129 118v0q-30 29 -66 28q-35 -2 -62 -27q-26 -26 -27 -68q1 -37 23 -63t56 -32l153 -23v0l-40 -41v0q-12 -14 -4 -30l24 -42v0l-39 -51v0q-11 -19 5 -34q18 -12 33 5l48 63v0q9 13 2 28l-23 39v0l50 50v0
v-38v0q2 -24 24 -31v-57v0q1 -7 8 -8q7 1 8 8v57v0q22 7 24 31v38v0l50 -50v0l-22 -39v0q-8 -15 1 -28l48 -64v0q15 -16 34 -4q15 15 4 34l-38 51v0l23 42v0q8 16 -3 30l-41 41v0l153 23v0q34 6 56 32t23 63q-1 42 -27 68q-26 25 -62 27q-36 1 -65 -28l-130 -119v0l62 75v0
q6 7 6 16v63v0l42 49v0q13 18 -2 34q-18 13 -34 -2l-48 -56v0q-5 -7 -6 -16v-63v0l-24 -29v0v68v0q0 13 -9 22t-23 10q-14 -1 -23 -10t-9 -22v-68v0l-24 29v0v55v0q0 8 -5 15l-48 64v0q-15 16 -33 4v0zM120 316q1 -2 2 -3l111 -101v0l-146 23v0h-1v0q-16 2 -27 15
q-11 12 -11 32q2 33 27 43q23 11 45 -9v0zM407 212l111 101l-111 -101l111 101q1 1 2 3v0q22 20 45 9q25 -10 27 -43q0 -20 -11 -32q-11 -13 -27 -15v0h-1l-146 -23v0z" />
</svg>
