<?xml version="1.0" standalone="no"?>
<!DOCTYPE svg PUBLIC "-//W3C//DTD SVG 1.1//EN" "http://www.w3.org/Graphics/SVG/1.1/DTD/svg11.dtd" >
<svg xmlns="http://www.w3.org/2000/svg" xmlns:xlink="http://www.w3.org/1999/xlink" version="1.1" viewBox="-10 -40 660 512">
   <path fill="currentColor"
d="M128 89q27 -1 42 -24q12 -24 0 -48q-15 -23 -42 -24q-27 1 -42 24q-12 24 0 48q15 23 42 24v0zM112 121q-48 1 -79 33v0v0q-32 31 -33 79q0 34 18 61q17 26 46 40v43v0q0 14 9 23t23 9h64v0q14 0 23 -9t9 -23v-32v0q-2 -22 -24 -24q-22 2 -24 24v16v0h-32v0v-16v0v-48v0
v-128v0h32v0q19 0 34 10q12 -22 30 -38q-27 -19 -64 -20h-32v0zM64 191v84v-84v84q-15 -17 -16 -42q1 -25 16 -42v0zM496 169h32h-32h32v128v0v48v0v16v0h-32v0v-16v0q-2 -22 -24 -24q-22 2 -24 24v32v0q0 14 9 23t23 9h64v0q14 0 23 -9t9 -23v-43v0q29 -14 46 -40
q18 -27 18 -61q-1 -48 -33 -79q-31 -32 -79 -33h-32v0q-37 1 -64 20q18 16 30 38q15 -10 34 -10v0zM592 233q0 25 -16 42v-84v0q16 17 16 42v0zM560 41q-1 -27 -24 -42q-24 -12 -48 0q-23 15 -24 42q1 27 24 42q24 12 48 0q23 -15 24 -42v0zM320 105q32 -1 48 -28
q16 -28 0 -56q-16 -27 -48 -28q-32 1 -48 28q-16 28 0 56q16 27 48 28v0zM304 137q-48 1 -79 33v0v0q-32 31 -33 79q0 34 18 61q17 26 46 40v59v0q0 14 9 23t23 9h64v0q14 0 23 -9t9 -23v-59v0q29 -14 46 -40q18 -27 18 -61q-1 -48 -33 -79q-31 -32 -79 -33h-32v0zM304 361
v-48v48v-48v-128v0h32v0v128v0v48v0v32v0h-32v0v-32v0zM256 291q-15 -17 -16 -42q1 -25 16 -42v84v0zM384 291v-84v84v-84q16 17 16 42t-16 42v0z" />
</svg>
