<?xml version="1.0" standalone="no"?>
<!DOCTYPE svg PUBLIC "-//W3C//DTD SVG 1.1//EN" "http://www.w3.org/Graphics/SVG/1.1/DTD/svg11.dtd" >
<svg xmlns="http://www.w3.org/2000/svg" xmlns:xlink="http://www.w3.org/1999/xlink" version="1.1" viewBox="-10 -40 660 512">
   <path fill="currentColor"
d="M360 33q-1 -23 -20 -35q-20 -10 -40 0q-19 12 -20 35q1 23 20 35q20 10 40 0q19 -12 20 -35v0zM304 138q3 -1 6 -1h20v0q3 0 6 1v79v0h-32v0v-79v0zM384 193l19 35l-19 -35l19 35q2 4 4 6l-36 68v0q-9 20 10 32q20 9 32 -10l19 -35v0v24v0q0 14 9 23t23 9h64v0
q14 0 23 -9t9 -23v-24v0l19 35v0q12 19 33 10q18 -12 9 -32l-38 -71v0q-12 -21 -32 -34q-20 -12 -45 -12h-20v0q-25 0 -45 13l-34 -63v0q-12 -21 -32 -34q-21 -12 -45 -12h-20v0q-24 0 -45 12q-20 13 -32 34l-34 63v0q-20 -13 -45 -13h-20v0q-24 0 -45 12q-20 13 -32 34
l-38 71v0q-9 20 10 32q20 9 32 -10l19 -35v0v24v0q0 14 9 23t23 9h64v0q14 0 23 -9t9 -23v-24v0l19 35v0q12 19 33 10q18 -12 9 -32l-36 -68v0q3 -2 4 -6l19 -35v0v40v0q1 14 10 23t22 9h64v0q14 0 23 -9t9 -23v-40v0zM496 169q23 -1 35 -20q10 -20 0 -40q-12 -19 -35 -20
q-23 1 -35 20q-10 20 0 40q12 19 35 20v0zM480 297v-63v63v-63q3 -1 6 -1h20v0q3 0 6 1v63v0h-32v0zM24 393q-22 2 -24 24q2 22 24 24h592v0q22 -2 24 -24q-2 -22 -24 -24h-592v0zM144 169q23 -1 35 -20q10 -20 0 -40q-12 -19 -35 -20q-23 1 -35 20q-10 20 0 40q12 19 35 20
v0zM128 297v-63v63v-63q3 -1 6 -1h20v0q3 0 6 1v63v0h-32v0z" />
</svg>
