<?xml version="1.0" standalone="no"?>
<!DOCTYPE svg PUBLIC "-//W3C//DTD SVG 1.1//EN" "http://www.w3.org/Graphics/SVG/1.1/DTD/svg11.dtd" >
<svg xmlns="http://www.w3.org/2000/svg" xmlns:xlink="http://www.w3.org/1999/xlink" version="1.1" viewBox="-10 -40 660 512">
   <path fill="currentColor"
d="M332 -36l296 176l-296 -176l296 176q18 13 9 33q-13 18 -33 9l-284 -169v0l-284 169v0q-20 9 -33 -9q-9 -20 9 -33l296 -176v0q12 -6 24 0v0zM496 217q23 1 35 20q10 20 0 40q-12 19 -35 20q-23 -1 -35 -20q-10 -20 0 -40q12 -19 35 -20v0zM480 425h32h-32h32v-63v0
q-3 -1 -6 -1h-20v0q-3 0 -6 1v63v0zM579 452l-19 -35l19 35l-19 -35v24v0q0 14 -9 23t-23 9h-64v0q-14 0 -23 -9t-9 -23v-24v0l-19 35v0q-12 19 -32 10q-19 -12 -10 -32l36 -68v0q-2 -2 -4 -6l-19 -35v0v40v0q0 14 -9 23t-23 9h-64v0q-14 0 -23 -9t-9 -23v-40v0l-19 35v0
q-2 4 -4 6l36 68v0q9 20 -10 32q-20 9 -32 -10l-19 -35v0v24v0q0 14 -9 23t-23 9h-64v0q-14 0 -23 -9t-9 -23v-24v0l-19 35v0q-12 19 -32 10q-19 -12 -10 -32l38 -71v0q12 -21 32 -34q21 -12 45 -12h20v0q25 0 45 13l34 -63v0q12 -21 32 -34q21 -12 45 -12h20v0q24 0 45 12
q20 13 32 34l34 63v0q20 -13 45 -13h20v0q24 0 45 12q20 13 32 34l38 71v0q9 20 -10 32q-20 9 -32 -10v0zM280 161q1 -23 20 -35q20 -10 40 0q19 12 20 35q-1 23 -20 35q-20 10 -40 0q-19 -12 -20 -35v0zM304 266v79v-79v79h32v0v-79v0q-3 -1 -6 -1h-20v0q-3 0 -6 1v0z
M144 217q23 1 35 20q10 20 0 40q-12 19 -35 20q-23 -1 -35 -20q-10 -20 0 -40q12 -19 35 -20v0zM128 425h32h-32h32v-63v0q-3 -1 -6 -1h-20v0q-3 0 -6 1v63v0z" />
</svg>
