<?xml version="1.0" standalone="no"?>
<!DOCTYPE svg PUBLIC "-//W3C//DTD SVG 1.1//EN" "http://www.w3.org/Graphics/SVG/1.1/DTD/svg11.dtd" >
<svg xmlns="http://www.w3.org/2000/svg" xmlns:xlink="http://www.w3.org/1999/xlink" version="1.1" viewBox="-10 -40 660 512">
   <path fill="currentColor"
d="M192 57q27 -1 42 -24q12 -24 0 -48q-15 -23 -42 -24q-27 1 -42 24q-12 24 0 48q15 23 42 24v0zM178 137h28h-28h28h2v128v0h-32v0v-128v0h1h1v0zM176 425v-112v112v-112h32v0v112v0h-32v0zM128 425h-104h104h-104q-22 2 -24 24q2 22 24 24h128h464q22 -2 24 -24
q-2 -22 -24 -24h-360v0v-240v0l43 76v0q13 18 33 9q18 -13 9 -33l-59 -103v0q-12 -21 -32 -33t-44 -12h-28v0q-24 0 -44 12t-32 33l-59 103v0q-9 20 9 33q20 9 33 -9l43 -76v0v240v0zM472 17v282v-282v282l-48 -44v0q-18 -13 -34 2q-13 17 2 34l88 80v0q16 12 32 0l88 -80v0
q15 -17 2 -34q-17 -15 -34 -2l-48 44v0v-282v0q-2 -22 -24 -24q-22 2 -24 24v0z" />
</svg>
