<?xml version="1.0" standalone="no"?>
<!DOCTYPE svg PUBLIC "-//W3C//DTD SVG 1.1//EN" "http://www.w3.org/Graphics/SVG/1.1/DTD/svg11.dtd" >
<svg xmlns="http://www.w3.org/2000/svg" xmlns:xlink="http://www.w3.org/1999/xlink" version="1.1" viewBox="-10 -40 596 512">
   <path fill="currentColor"
d="M112 9q1 -27 24 -42q24 -12 48 0q23 15 24 42q-1 27 -24 42q-24 12 -48 0q-23 -15 -24 -42v0zM144 137v128v-128v128h32v0v-128v0h-1h-1h-28v0h-2v0zM144 313v136v-136v136q-2 22 -24 24q-22 -2 -24 -24v-264v0l-43 76v0q-13 18 -33 9q-18 -13 -9 -33l59 -103v0
q12 -21 32 -33t44 -12h28v0q24 0 44 12t32 33l47 82v0q-18 21 -28 47l-2 -2v0l-43 -76v0v264v0q-2 22 -24 24q-22 -2 -24 -24v-136v0h-32v0zM432 185q39 0 72 19v0v0q33 19 53 53q19 34 19 72t-19 72q-20 34 -53 53t-72 19t-72 -19t-53 -53q-19 -34 -19 -72t19 -72
q20 -34 53 -53t72 -19v0zM432 425q22 -2 24 -24q-2 -22 -24 -24q-22 2 -24 24q2 22 24 24v0zM432 233q-15 1 -16 16v80v0q1 15 16 16q15 -1 16 -16v-80v0q-1 -15 -16 -16v0z" />
</svg>
