<?xml version="1.0" standalone="no"?>
<!DOCTYPE svg PUBLIC "-//W3C//DTD SVG 1.1//EN" "http://www.w3.org/Graphics/SVG/1.1/DTD/svg11.dtd" >
<svg xmlns="http://www.w3.org/2000/svg" xmlns:xlink="http://www.w3.org/1999/xlink" version="1.1" viewBox="-10 -40 657 512">
   <path fill="currentColor"
d="M232 -39q22 2 24 24v10v0q0 43 -21 79t-56 57l58 86v0h75v0q20 1 32 17l52 73v0q11 19 -6 34q-19 11 -34 -6l-48 -70v0h-50v0q-2 2 -5 4l-54 36v0l85 131v0q10 20 -7 33q-19 10 -33 -7l-160 -246v0q-4 15 -4 31v74v0q-2 22 -24 24q-22 -2 -24 -24v-74v0q1 -51 29 -91
q27 -40 75 -58q33 -12 52 -40q20 -27 20 -63v-10v0q2 -22 24 -24v0zM173 265l26 -18l-26 18l26 -18l-64 -95v0q-13 7 -23 18l61 95v0zM0 41q1 -27 24 -42q24 -12 48 0q23 15 24 42q-1 27 -24 42q-24 12 -48 0q-23 -15 -24 -42v0zM464 263l-33 25l33 -25l-33 25q-1 -2 -3 -4
l-51 -73v0q-24 -33 -65 -34h-20v0q1 -10 8 -16l49 -42v0l-26 -59v0q-5 -13 3 -25q10 -10 24 -8l63 12v0l30 -57v0q7 -13 21 -13t21 13l30 56v0l63 -11v0q14 -2 24 8q8 12 3 25l-26 59v0l49 42v0q10 9 8 23q-4 14 -17 18l-62 17v0l-3 64v0q-1 14 -14 21q-13 5 -24 -3l-52 -38
v0zM464 44l-17 33l17 -33l-17 33q-9 14 -26 12l-36 -7v0l15 34v0q6 16 -6 27l-28 24v0l35 10v0q16 5 18 22l1 37v0l30 -22v0q14 -9 28 0l30 22v0l1 -37v0q2 -17 18 -22l35 -10v0l-27 -24v0q-13 -11 -7 -27l15 -34v0l-36 7v0q-17 2 -26 -12l-17 -33v0z" />
</svg>
