<?xml version="1.0" standalone="no"?>
<!DOCTYPE svg PUBLIC "-//W3C//DTD SVG 1.1//EN" "http://www.w3.org/Graphics/SVG/1.1/DTD/svg11.dtd" >
<svg xmlns="http://www.w3.org/2000/svg" xmlns:xlink="http://www.w3.org/1999/xlink" version="1.1" viewBox="-10 -40 586 512">
   <path fill="currentColor"
d="M224 0q2 -21 23 -25l152 -13v0q15 1 17 16v31v0q-1 15 -16 16h-151v0q-23 -2 -25 -25v0zM32 209q2 -22 24 -24h176h113q32 0 60 16q27 16 44 44l92 160v0q9 20 -9 33q-20 9 -33 -9l-83 -144v0v156v0q0 14 -9 23t-23 9h-128v0q-14 0 -23 -9t-9 -23v-208v0h-168v0
q-22 -2 -24 -24v0zM272 233v82v-82v82l73 -82v0v0h-1h-72v0zM272 425h96h-96h96v-32v0h-96v0v32v0zM368 280l-58 65l58 -65l-58 65h58v0v-65v0zM240 73q0 -8 2 -16h50v0q-4 7 -4 16q0 14 9 23t23 9t23 -9t9 -23q0 -9 -4 -16h50v0q2 8 2 16q-1 34 -23 57q-23 22 -57 23
q-34 -1 -57 -23q-22 -23 -23 -57v0z" />
</svg>
