<?xml version="1.0" standalone="no"?>
<!DOCTYPE svg PUBLIC "-//W3C//DTD SVG 1.1//EN" "http://www.w3.org/Graphics/SVG/1.1/DTD/svg11.dtd" >
<svg xmlns="http://www.w3.org/2000/svg" xmlns:xlink="http://www.w3.org/1999/xlink" version="1.1" viewBox="-10 -40 532 512">
   <path fill="currentColor"
d="M268 -36q-12 -6 -24 0l-232 136v0q-12 8 -12 21v328v0q2 22 24 24q22 -2 24 -24v-314v0l208 -122v0l208 122v0v314v0q2 22 24 24q22 -2 24 -24v-328v0q0 -13 -12 -21l-232 -136v0zM256 169q23 -1 35 -20q10 -20 0 -40q-12 -19 -35 -20q-23 1 -35 20q-10 20 0 40
q12 19 35 20v0zM240 234q3 -1 6 -1h20v0q3 0 6 1v95v0h-32v0v-95v0zM240 377h32h-32h32v72v0q2 22 24 24q22 -2 24 -24v-160v0l19 35v0q12 19 32 10q19 -12 10 -32l-38 -71v0q-12 -21 -32 -34q-21 -12 -45 -12h-20v0q-24 0 -45 12q-20 13 -32 34l-38 71v0q-9 20 10 32
q20 9 32 -10l19 -35v0v160v0q2 22 24 24q22 -2 24 -24v-72v0z" />
</svg>
