<?xml version="1.0" standalone="no"?>
<!DOCTYPE svg PUBLIC "-//W3C//DTD SVG 1.1//EN" "http://www.w3.org/Graphics/SVG/1.1/DTD/svg11.dtd" >
<svg xmlns="http://www.w3.org/2000/svg" xmlns:xlink="http://www.w3.org/1999/xlink" version="1.1" viewBox="-10 -40 586 512">
   <path fill="currentColor"
d="M432 57q27 -1 42 -24q12 -24 0 -48q-15 -23 -42 -24q-27 1 -42 24q-12 24 0 48q15 23 42 24v0zM366 228l30 -90l-30 90l30 -90q11 2 21 7v0v1l-32 104v0l-17 -14v0q-4 -3 -2 -8v0zM425 282l28 -91l-28 91l28 -91l11 37v0q3 10 10 17l29 29v0q17 14 34 0q14 -17 0 -34
l-28 -27v0l-11 -39v0q-11 -38 -42 -61q-30 -23 -71 -24h-5v0q-24 0 -47 8q-62 21 -89 81l-10 21v0q-7 21 12 32q21 7 32 -12l9 -22v0q18 -37 56 -53l-23 68v0q-10 37 18 62l104 85v0l23 96v0q6 20 28 18q21 -7 18 -29l-22 -99v0q-4 -13 -14 -22l-50 -41v0zM324 303l-24 61
l24 -61l-24 61l-69 68v0q-14 17 0 34q17 14 34 0l70 -70v0q5 -6 8 -13l20 -48v0l-39 -32v0zM248 251q-13 -6 -22 6l-23 40v0l-55 -32v0q-12 -6 -25 -3q-12 3 -19 15l-64 111v0q-6 12 -3 24t15 19l55 32v0q12 7 24 3q13 -3 20 -14l64 -111v0q1 -2 1 -3l38 -65v0q6 -13 -6 -22
v0z" />
</svg>
