<?xml version="1.0" standalone="no"?>
<!DOCTYPE svg PUBLIC "-//W3C//DTD SVG 1.1//EN" "http://www.w3.org/Graphics/SVG/1.1/DTD/svg11.dtd" >
<svg xmlns="http://www.w3.org/2000/svg" xmlns:xlink="http://www.w3.org/1999/xlink" version="1.1" viewBox="-10 -40 660 512">
   <path fill="currentColor"
d="M215 -20q15 -17 41 -19q26 2 41 19q15 15 23 35q8 18 12 38t4 36v26v0l85 55v0q-24 11 -44 29l-78 -50v0q-11 -8 -11 -21v-39v0q0 -24 -13 -55q-6 -14 -12 -21q-6 -5 -7 -4v0v0q0 -1 -6 4q-7 7 -13 21q-7 15 -10 30t-3 25v39v0q0 13 -11 21l-161 103v0q-4 2 -4 7v29v0
l145 -46v0q11 -4 21 3q10 8 10 20v72v0q0 12 -10 19l-54 41v0v24v0q7 -2 16 -5l8 -2q18 -6 35 -11q18 -5 30 -9q7 -2 14 0q12 4 30 9q17 5 35 11l17 5v0q16 27 40 46q-10 8 -23 8q-3 0 -7 -1l7 -23v0q-5 16 -6 20t-1 3v0v0v0v0v0v0v0v0h-1v0l-2 -1v0l-9 -3v0q-6 -1 -14 -4
q-7 -2 -15 -4q-11 -4 -22 -7q-20 -6 -36 -11q-16 5 -36 11q-11 3 -22 7l-10 2q-11 4 -19 6l-9 3v0l-3 1v0v0v0v0v0v0v0v0v0v0v0q0 1 -1 -3t-6 -20l7 23v0q-4 1 -7 1q-16 0 -27 -11t-11 -27v-42v0q0 -20 16 -32l48 -36v0v-27v0l-124 39v0q-20 6 -36 -6q-15 -11 -16 -32v-40v0
q1 -31 26 -48l13 21v0l-13 -21v0l150 -96v0v-26v0q0 -16 4 -36q5 -20 13 -38q8 -20 22 -35v0zM319 242l20 6l-20 -6l20 6q-19 37 -19 81q0 26 7 49l-29 -22v0q-10 -7 -10 -19v-72v0q0 -12 10 -20q10 -7 21 -3v0zM496 185q39 0 72 19v0v0q33 19 53 53q19 34 19 72t-19 72
q-20 34 -53 53t-72 19t-72 -19t-53 -53q-19 -34 -19 -72t19 -72q20 -34 53 -53t72 -19v0zM555 292q10 -11 0 -22q-11 -10 -22 0l-37 36v0l-37 -36v0q-11 -10 -22 0q-10 11 0 22l36 37v0l-36 37v0q-10 11 0 22q11 10 22 0l37 -36v0l37 36v0q11 10 22 0q10 -11 0 -22l-36 -37
v0l36 -37v0z" />
</svg>
