<?xml version="1.0" standalone="no"?>
<!DOCTYPE svg PUBLIC "-//W3C//DTD SVG 1.1//EN" "http://www.w3.org/Graphics/SVG/1.1/DTD/svg11.dtd" >
<svg xmlns="http://www.w3.org/2000/svg" xmlns:xlink="http://www.w3.org/1999/xlink" version="1.1" viewBox="-10 -40 532 512">
   <path fill="currentColor"
d="M176 -7q-15 1 -16 16v16v0q1 34 23 57q23 22 57 23q15 -1 16 -16v-16v0q-1 -34 -23 -57q-23 -22 -57 -23v0zM56 25q-22 2 -24 24q2 22 24 24h48v0q22 -2 24 -24q-2 -22 -24 -24h-48v0zM24 97q-22 2 -24 24q2 22 24 24h112v0q22 -2 24 -24q-2 -22 -24 -24h-112v0zM32 193
q2 22 24 24h48v0q22 -2 24 -24q-2 -22 -24 -24h-48v0q-22 2 -24 24v0zM272 9v16v-16v16q1 34 23 57q23 22 57 23q15 -1 16 -16v-16v0q-1 -34 -23 -57q-23 -22 -57 -23q-15 1 -16 16v0zM400 -7q-15 1 -16 16v16v0q1 34 23 57q23 22 57 23q15 -1 16 -16v-16v0q-1 -34 -23 -57
q-23 -22 -57 -23v0zM480 153q-1 -15 -16 -16q-34 1 -57 23q-22 23 -23 57v16v0q1 15 16 16q34 -1 57 -23q22 -23 23 -57v-16v0zM352 137q-34 1 -57 23v0v0q-22 23 -23 57v16v0q1 15 16 16q34 -1 57 -23q22 -23 23 -57v-16v0q-1 -15 -16 -16v0zM256 153q-1 -15 -16 -16
q-34 1 -57 23q-22 23 -23 57v16v0q1 15 16 16q34 -1 57 -23q22 -23 23 -57v-16v0zM130 385q-12 -21 -35 -25q-30 -5 -42 -31h406v0q-12 26 -42 32q-23 3 -35 24q-5 8 -14 8h-224v0q-9 0 -14 -8v0zM26 281q-24 2 -26 26q1 39 25 67q25 28 63 34q18 31 56 33h224v0
q38 -2 56 -33q38 -6 63 -34q24 -28 25 -67q-2 -24 -26 -26h-460v0z" />
</svg>
