<?xml version="1.0" standalone="no"?>
<!DOCTYPE svg PUBLIC "-//W3C//DTD SVG 1.1//EN" "http://www.w3.org/Graphics/SVG/1.1/DTD/svg11.dtd" >
<svg xmlns="http://www.w3.org/2000/svg" xmlns:xlink="http://www.w3.org/1999/xlink" version="1.1" viewBox="-10 -40 596 512">
   <path fill="currentColor"
d="M288 329q0 -39 19 -72v0v0q19 -33 53 -53q34 -19 72 -19t72 19q34 20 53 53t19 72t-19 72t-53 53q-34 19 -72 19t-72 -19q-34 -20 -53 -53t-19 -72v0zM432 249q-15 1 -16 16v48v0h-48v0q-15 1 -16 16q1 15 16 16h48v0v48v0q1 15 16 16q15 -1 16 -16v-48v0h48v0
q15 -1 16 -16q-1 -15 -16 -16h-48v0v-48v0q-1 -15 -16 -16v0zM104 -39q22 2 24 24v88v0h-48v0v-88v0q2 -22 24 -24v0zM280 -39q22 2 24 24v88v0h-48v0v-88v0q2 -22 24 -24v0zM0 129q2 -22 24 -24h8h328q22 2 24 24q-2 22 -24 24h-8v0v19v0q-27 14 -48 36v-55v0h-224v0v64v0
q1 48 33 79q31 32 79 33q37 -1 65 -21q-1 10 -1 21q0 17 3 33q-20 10 -43 13v74v0q-2 22 -24 24q-22 -2 -24 -24v-74v0q-59 -10 -97 -53q-38 -44 -39 -105v-64v0h-8v0q-22 -2 -24 -24v0z" />
</svg>
