<?xml version="1.0" standalone="no"?>
<!DOCTYPE svg PUBLIC "-//W3C//DTD SVG 1.1//EN" "http://www.w3.org/Graphics/SVG/1.1/DTD/svg11.dtd" >
<svg xmlns="http://www.w3.org/2000/svg" xmlns:xlink="http://www.w3.org/1999/xlink" version="1.1" viewBox="-10 -40 660 512">
   <path fill="currentColor"
d="M24 -7q22 2 24 24v24v0h544v0v-24v0q2 -22 24 -24q22 2 24 24v24v0v48v0v128v0v48v0v152v0q-2 22 -24 24q-22 -2 -24 -24v-152v0h-544v0v152v0q-2 22 -24 24q-22 -2 -24 -24v-400v0q2 -22 24 -24v0zM592 217v-128v128v-128h-21v0l-64 128v0h85v0zM48 217h21h-21h21
l64 -128v0h-85v0v128v0zM389 89h-74h74h-74l-64 128v0h74v0l64 -128v0zM379 217h74h-74h74l64 -128v0h-74v0l-64 128v0zM187 89l-64 128l64 -128l-64 128h74v0l64 -128v0h-74v0z" />
</svg>
