<?xml version="1.0" standalone="no"?>
<!DOCTYPE svg PUBLIC "-//W3C//DTD SVG 1.1//EN" "http://www.w3.org/Graphics/SVG/1.1/DTD/svg11.dtd" >
<svg xmlns="http://www.w3.org/2000/svg" xmlns:xlink="http://www.w3.org/1999/xlink" version="1.1" viewBox="-10 -40 660 512">
   <path fill="currentColor"
d="M576 9q15 1 16 16v384v0q-1 15 -16 16h-72v0v-56v0q-2 -22 -24 -24q-22 2 -24 24v56v0h-72v0q-15 -1 -16 -16v-384v0q1 -15 16 -16h72v0v56v0q2 22 24 24q22 -2 24 -24v-56v0h72v0zM576 -39h-192h192h-192q-27 1 -45 19t-19 45v384v0q1 27 19 45t45 19h192v0
q27 -1 45 -19t19 -45v-384v0q-1 -27 -19 -45t-45 -19v0zM480 153q-22 2 -24 24v80v0q2 22 24 24q22 -2 24 -24v-80v0q-2 -22 -24 -24v0zM24 57q-22 2 -24 24q2 22 24 24h48v0v64v0h-48v0q-22 2 -24 24q2 22 24 24h72h192v-48v0h-40v0v-64v0h40v0v-48v0h-264v0zM272 265
q-44 1 -74 30v0v0q-29 30 -30 74v56v0h-48v0v-64v0q-1 -41 -28 -68t-68 -28q-22 2 -24 24q2 22 24 24q20 1 34 14q13 14 14 34v72v0q0 17 12 28q11 12 28 12h64v0q17 0 28 -12q12 -11 12 -28v-64v0q1 -24 16 -40q16 -15 40 -16h16v0v-48v0h-16v0zM200 105v64v-64v64h-80v0
v-64v0h80v0z" />
</svg>
