<?xml version="1.0" standalone="no"?>
<!DOCTYPE svg PUBLIC "-//W3C//DTD SVG 1.1//EN" "http://www.w3.org/Graphics/SVG/1.1/DTD/svg11.dtd" >
<svg xmlns="http://www.w3.org/2000/svg" xmlns:xlink="http://www.w3.org/1999/xlink" version="1.1" viewBox="-10 -40 596 512">
   <path fill="currentColor"
d="M288 -39h112h-112h112q15 1 16 16v64v0q-1 15 -16 16h-82v0l90 64v0h96v0q31 1 51 21t21 51v208v0q-1 31 -21 51t-51 21h-168h-264q-31 -1 -51 -21t-21 -51v-208v0q1 -31 21 -51t51 -21h96v0l96 -68v0v-68v0q2 -22 24 -24v0zM504 425q22 -2 24 -24v-208v0q-2 -22 -24 -24
h-104v0q-8 0 -14 -4l-98 -70v0l-98 70v0q-6 4 -14 4h-104v0q-22 2 -24 24v208v0q2 22 24 24h168v0v-64v0q1 -20 14 -34q14 -13 34 -14q20 1 34 14q13 14 14 34v64v0h168v0zM240 201q1 -27 24 -42q24 -12 48 0q23 15 24 42q-1 27 -24 42q-24 12 -48 0q-23 -15 -24 -42v0z
M112 217h32h-32h32q15 1 16 16v32v0q-1 15 -16 16h-32v0q-15 -1 -16 -16v-32v0q1 -15 16 -16v0zM416 233q1 -15 16 -16h32v0q15 1 16 16v32v0q-1 15 -16 16h-32v0q-15 -1 -16 -16v-32v0zM112 313h32h-32h32q15 1 16 16v32v0q-1 15 -16 16h-32v0q-15 -1 -16 -16v-32v0
q1 -15 16 -16v0zM432 313h32h-32h32q15 1 16 16v32v0q-1 15 -16 16h-32v0q-15 -1 -16 -16v-32v0q1 -15 16 -16v0z" />
</svg>
