<?xml version="1.0" standalone="no"?>
<!DOCTYPE svg PUBLIC "-//W3C//DTD SVG 1.1//EN" "http://www.w3.org/Graphics/SVG/1.1/DTD/svg11.dtd" >
<svg xmlns="http://www.w3.org/2000/svg" xmlns:xlink="http://www.w3.org/1999/xlink" version="1.1" viewBox="-10 -40 404 512">
   <path fill="currentColor"
d="M320 9q15 1 16 16v288v0h-80v0q-14 0 -23 9t-9 23v80v0h-160v0q-15 -1 -16 -16v-384v0q1 -15 16 -16h256v0zM0 409q1 27 19 45v0v0q18 18 45 19h172v0q20 0 34 -14l100 -100v0q14 -14 14 -34v-300v0q-1 -27 -19 -45t-45 -19h-256v0q-27 1 -45 19t-19 45v384v0zM203 46
q-11 -10 -22 0l-96 96v0q-10 11 0 22q11 10 22 0l96 -96v0q10 -11 0 -22v0zM299 100q10 -11 0 -22q-11 -10 -22 0l-160 160v0q-10 11 0 22q11 10 22 0l160 -160v0z" />
</svg>
