<?xml version="1.0" standalone="no"?>
<!DOCTYPE svg PUBLIC "-//W3C//DTD SVG 1.1//EN" "http://www.w3.org/Graphics/SVG/1.1/DTD/svg11.dtd" >
<svg xmlns="http://www.w3.org/2000/svg" xmlns:xlink="http://www.w3.org/1999/xlink" version="1.1" viewBox="-10 -40 468 512">
   <path fill="currentColor"
d="M64 41q-15 1 -16 16v320v0q1 15 16 16h320v0q15 -1 16 -16v-320v0q-1 -15 -16 -16h-320v0zM0 57q1 -27 19 -45v0v0q18 -18 45 -19h320v0q27 1 45 19t19 45v320v0q-1 27 -19 45t-45 19h-320v0q-27 -1 -45 -19t-19 -45v-320v0zM224 71q22 2 24 24q1 18 17 24q15 7 29 -5
q17 -15 34 0q14 17 0 33q-13 14 -6 30q6 15 24 16q22 2 24 24q-2 22 -24 24q-18 1 -24 17q-7 15 6 29q14 17 0 34q-18 14 -34 0q-14 -13 -29 -6q-16 6 -17 24q-2 22 -24 24q-22 -2 -24 -24q-1 -18 -16 -24q-16 -7 -30 6q-17 14 -34 0q-14 -18 0 -34q13 -14 6 -29
q-6 -16 -24 -17q-22 -2 -24 -24q2 -22 24 -24q18 -1 24 -16q7 -16 -6 -30q-14 -17 0 -33q18 -15 34 0q14 12 30 5q15 -6 16 -24q2 -22 24 -24v0zM192 217q14 0 23 -9v0v0q9 -9 9 -23t-9 -23t-23 -9t-23 9t-9 23t9 23t23 9v0zM280 249q-2 -22 -24 -24q-22 2 -24 24
q2 22 24 24q22 -2 24 -24v0z" />
</svg>
