<?xml version="1.0" standalone="no"?>
<!DOCTYPE svg PUBLIC "-//W3C//DTD SVG 1.1//EN" "http://www.w3.org/Graphics/SVG/1.1/DTD/svg11.dtd" >
<svg xmlns="http://www.w3.org/2000/svg" xmlns:xlink="http://www.w3.org/1999/xlink" version="1.1" viewBox="-10 -40 660 512">
   <path fill="currentColor"
d="M336 17q1 -7 8 -8h112v0q7 1 8 8v160v0q2 22 24 24h80h16q7 1 8 8v240v0q2 22 24 24q22 -2 24 -24v-240v0q0 -22 -14 -37q-13 -15 -34 -18v-73v0q-2 -22 -24 -24q-22 2 -24 24v72v0h-32v0v-136v0q-1 -24 -16 -40q-16 -15 -40 -16h-112v0q-24 1 -40 16q-15 16 -16 40v432
v0q2 22 24 24q22 -2 24 -24v-432v0zM368 57v32v-32v32q1 15 16 16h32v0q15 -1 16 -16v-32v0q-1 -15 -16 -16h-32v0q-15 1 -16 16v0zM384 137q-15 1 -16 16v32v0q1 15 16 16h32v0q15 -1 16 -16v-32v0q-1 -15 -16 -16h-32v0zM368 249v32v-32v32q1 15 16 16h32v0q15 -1 16 -16
v-32v0q-1 -15 -16 -16h-32v0q-15 1 -16 16v0zM512 233q-15 1 -16 16v32v0q1 15 16 16h32v0q15 -1 16 -16v-32v0q-1 -15 -16 -16h-32v0zM496 345v32v-32v32q1 15 16 16h32v0q15 -1 16 -16v-32v0q-1 -15 -16 -16h-32v0q-15 1 -16 16v0zM224 121q-1 -41 -28 -68v0v0
q-27 -27 -68 -28q-41 1 -68 28t-28 68q0 9 1 16q-31 23 -33 64q1 35 23 57t57 23h16v0v160v0q0 14 9 23t23 9q13 0 22 -9q10 -9 10 -23v-160v0h16v0q34 -1 57 -23q22 -22 23 -57q-2 -41 -34 -64q2 -7 2 -16v0z" />
</svg>
