<?xml version="1.0" standalone="no"?>
<!DOCTYPE svg PUBLIC "-//W3C//DTD SVG 1.1//EN" "http://www.w3.org/Graphics/SVG/1.1/DTD/svg11.dtd" >
<svg xmlns="http://www.w3.org/2000/svg" xmlns:xlink="http://www.w3.org/1999/xlink" version="1.1" viewBox="-10 -40 660 512">
   <path fill="currentColor"
d="M183 -20q15 -17 41 -19q26 2 41 19q15 15 23 35q11 28 15 56q-37 22 -45 66q-2 -4 -2 -9v-39v0q0 -24 -12 -55q-7 -14 -13 -21q-6 -5 -7 -4v0v0q0 -1 -6 4q-7 7 -13 21q-6 15 -10 30q-3 15 -3 25v39v0q0 12 -9 19l-129 103v0l-1 1q-1 0 -1 1q-4 2 -4 7v28v0l111 -45v0
q12 -4 22 3q11 7 11 20v72v0q0 12 -10 19l-54 41v0v24v0q7 -2 16 -5l8 -2q18 -6 35 -11q18 -5 30 -9q7 -2 14 0q14 4 36 11q8 16 21 28v16v0q0 7 1 13l-7 -2v0q-11 -4 -22 -7q-20 -6 -36 -11q-16 5 -36 11q-11 3 -22 7q-5 1 -10 3q-11 3 -19 5l-9 3v0l-2 1v0h-1v0v0v0v0v0v0
v0v0v0l-7 -23v0l7 23v0q-4 1 -7 1q-16 0 -27 -11t-11 -27v-42v0q0 -20 16 -32l48 -36v0v-25v0l-90 37v0h-2v0q-20 6 -36 -6q-15 -11 -16 -32v-40v0q1 -30 25 -47l119 -95v0v-28v0q0 -16 4 -36q5 -20 13 -38q8 -20 22 -35v0zM288 153q1 -25 16 -42q18 -21 48 -22h224v0
q27 1 45 19t19 45v184v0v24v0q-2 37 -32 55v33v0q-2 22 -24 24q-22 -2 -24 -24v-24v0h-192v0v10v0v14v0q-2 22 -24 24q-3 0 -6 -1q-8 -2 -12 -8v0q-6 -6 -6 -15v-28v0v-5v0q-24 -14 -31 -42q-1 -6 -1 -13v-24v0v-95v0v-76v0v-13v0zM400 265h11h-11h144l-12 -37v0
q-4 -10 -15 -11h-87h-19q-11 1 -15 11l-2 5v0l-4 14v0l-6 18v0h16v0zM350 215v-2v2v-2l1 -1v0v-1v0v-1q1 0 1 -1q5 -13 16 -23q5 -5 12 -9q14 -8 31 -8h106v0q22 0 37 12q16 12 23 30l1 1v0v1v0l12 37v0l2 7v0v-104v0q-1 -15 -16 -16h-224v0q-9 0 -13 7q-3 4 -3 9v21v0v30v0
v54v0l2 -8v0l12 -35v0zM446 313h-24h24h-86q-8 0 -14 4q-10 7 -10 20v12v0v12v0q1 14 14 16h2h13h211q15 -1 16 -16v-24v0q-2 -22 -24 -24h-24h-98zM368 368q-20 -10 -15 -31q10 -20 31 -15q20 10 15 31q-10 20 -31 15v0zM552 321q22 2 24 24q-2 22 -24 24q-22 -2 -24 -24
q2 -22 24 -24v0z" />
</svg>
