<?xml version="1.0" standalone="no"?>
<!DOCTYPE svg PUBLIC "-//W3C//DTD SVG 1.1//EN" "http://www.w3.org/Graphics/SVG/1.1/DTD/svg11.dtd" >
<svg xmlns="http://www.w3.org/2000/svg" xmlns:xlink="http://www.w3.org/1999/xlink" version="1.1" viewBox="-10 -40 660 512">
   <path fill="currentColor"
d="M147 121q36 -1 56 -32q17 -32 0 -64q-20 -31 -56 -32q-36 1 -55 32q-17 32 0 64q19 31 55 32v0zM96 153q-27 1 -45 19v0v0q-18 18 -19 45q0 14 9 23t23 9h99v0q29 -49 86 -62q-18 -32 -57 -34h-96v0zM576 249q14 0 23 -9v0v0q9 -9 9 -23q-1 -27 -19 -45t-45 -19h-96v0
q-39 2 -56 34q58 12 89 62h95v0zM441 249q-22 -25 -57 -31h-1h-1q-6 -1 -12 -1h-48h-48q-7 0 -13 1q-2 0 -5 1v0q-32 6 -54 30q-23 26 -24 64q0 14 9 23t23 9h224v0q13 0 22 -9t10 -23q-1 -38 -25 -64v0zM499 121q36 -1 56 -32q17 -32 0 -64q-20 -31 -56 -32q-36 1 -55 32
q-17 32 0 64q19 31 55 32v0zM322 73q13 0 22 9v0v0q9 9 10 23q-1 14 -10 23t-22 9q-14 0 -23 -9t-9 -23t9 -23t23 -9v0zM274 169v0v0v0q20 16 48 16q27 0 48 -16v0v0q30 -23 32 -64q-1 -34 -24 -57q-22 -22 -56 -23q-34 1 -57 23q-23 23 -23 57q1 41 32 64v0zM415 297h-187
h187h-187q12 -30 46 -32h96v0q33 2 45 32v0zM0 417q2 22 24 24h592v0q22 -2 24 -24q-2 -22 -24 -24h-592v0q-22 2 -24 24v0z" />
</svg>
