<?xml version="1.0" standalone="no"?>
<!DOCTYPE svg PUBLIC "-//W3C//DTD SVG 1.1//EN" "http://www.w3.org/Graphics/SVG/1.1/DTD/svg11.dtd" >
<svg xmlns="http://www.w3.org/2000/svg" xmlns:xlink="http://www.w3.org/1999/xlink" version="1.1" viewBox="-10 -40 660 512">
   <path fill="currentColor"
d="M7 -32q17 -14 34 0l72 72v0q14 17 0 34q-17 14 -34 0l-72 -72v0q-14 -17 0 -34v0zM633 -32q14 17 0 34l-72 72v0q-17 14 -34 0q-14 -17 0 -34l72 -72v0q17 -14 34 0v0zM41 466q-17 14 -34 0q-14 -17 0 -34l72 -72v0q17 -14 34 0q14 17 0 34l-72 72v0zM633 466
q-17 14 -34 0l-72 -72v0q-14 -17 0 -34q17 -14 34 0l72 72v0q14 17 0 34v0zM320 169q22 -2 24 -24q-2 -22 -24 -24q-22 2 -24 24q2 22 24 24v0zM268 251q10 -2 20 -2h32h32q10 0 20 2h1q1 1 2 1q36 9 57 40q2 2 3 5q13 21 13 48q0 14 -9 23t-23 9h-192v0q-14 0 -23 -9
t-9 -23q0 -27 13 -48q20 -35 60 -45q2 -1 3 -1v0v0zM365 88q31 27 26 67q-7 41 -44 57q-39 14 -72 -10q-31 -27 -26 -67q7 -41 44 -57q39 -14 72 10v0zM397 329q-12 -30 -45 -32h-64v0q-33 2 -45 32h154v0zM128 137q1 -27 24 -42q24 -12 48 0q23 15 24 42q-1 27 -24 42
q-24 12 -48 0q-23 -15 -24 -42v0zM96 270q1 -22 16 -37v0v0q15 -15 37 -16h70v0q14 0 26 7q-53 20 -76 73h-46v0q-25 -2 -27 -27v0zM471 297q-23 -53 -76 -73q11 -7 26 -7h70v0q22 1 37 16t16 37q-2 25 -27 27h-46v0zM416 137q1 -27 24 -42q24 -12 48 0q23 15 24 42
q-1 27 -24 42q-24 12 -48 0q-23 -15 -24 -42v0z" />
</svg>
