<?xml version="1.0" standalone="no"?>
<!DOCTYPE svg PUBLIC "-//W3C//DTD SVG 1.1//EN" "http://www.w3.org/Graphics/SVG/1.1/DTD/svg11.dtd" >
<svg xmlns="http://www.w3.org/2000/svg" xmlns:xlink="http://www.w3.org/1999/xlink" version="1.1" viewBox="-10 -40 533 512">
   <path fill="currentColor"
d="M24 -7q-22 2 -24 24q2 22 24 24h8v0v304v0q1 41 28 68t68 28q43 -1 71 -31q-1 -23 16 -41v0h1v0v0l-1 -1v0v0v0v0v0q-24 -1 -39 -16q-3 18 -16 29q-14 12 -32 12q-20 -1 -34 -14q-13 -14 -14 -34v-144v0h96v0v70v0q16 -15 39 -15v0v0v0v-1h1v0v0h-1q-16 -18 -16 -40
t16 -40q4 -4 9 -7v-127v0h8v0q22 -2 24 -24q-2 -22 -24 -24h-8h-200zM80 153v-112v112v-112h96v0v112v0h-96v0zM352 151q-22 2 -24 24t-20 30q-19 8 -36 -7q-17 -14 -34 0q-14 17 0 34q15 17 7 36q-8 18 -30 20t-24 24q2 22 24 24q22 1 30 20t-7 36q-14 17 0 34q17 14 34 0
q17 -15 36 -7q18 8 20 30t24 24q22 -2 24 -24q1 -23 20 -30q19 -8 36 7q17 14 34 0q14 -17 0 -34q-15 -17 -7 -36q7 -19 30 -20q22 -2 24 -24q-2 -22 -24 -24q-23 -2 -30 -20q-8 -19 7 -36q14 -17 0 -34q-17 -14 -34 0q-17 15 -36 7t-20 -30q-2 -22 -24 -24v0zM320 249
q14 0 23 9v0v0q9 9 9 23t-9 23t-23 9t-23 -9t-9 -23t9 -23t23 -9v0zM360 345q2 -22 24 -24q22 2 24 24q-2 22 -24 24q-22 -2 -24 -24v0z" />
</svg>
