<?xml version="1.0" standalone="no"?>
<!DOCTYPE svg PUBLIC "-//W3C//DTD SVG 1.1//EN" "http://www.w3.org/Graphics/SVG/1.1/DTD/svg11.dtd" >
<svg xmlns="http://www.w3.org/2000/svg" xmlns:xlink="http://www.w3.org/1999/xlink" version="1.1" viewBox="-10 -40 597 512">
   <path fill="currentColor"
d="M48 41v16v-16v16q2 75 52 124q49 50 124 52q11 0 22 -1q-13 24 -18 49h-2h-2q-25 0 -49 -5l-23 53v0h73v0q2 25 11 48h-76v0q-1 27 -19 45t-45 19q-27 -1 -45 -19t-19 -45q1 -27 19 -45t45 -19q5 0 10 1l23 -54v0q-58 -28 -93 -81q-35 -54 -36 -122v-24v0q0 -17 12 -28
q11 -12 28 -12h368v0q17 0 28 12q12 11 12 28v24v0q0 36 -11 69q-13 -13 -26 -25q-7 -6 -15 -9q4 -17 4 -35v-16v0h-352v0zM120 377q-2 -22 -24 -24q-22 2 -24 24q2 22 24 24q22 -2 24 -24v0zM416 473q-68 -2 -113 -47v0v0q-45 -45 -47 -113q3 -58 37 -105q34 -48 70 -74
q8 -6 17 -6q12 0 22 9l46 46v0l11 -11v0q10 -9 21 -10q12 0 22 9q43 44 59 81t15 61q-2 68 -47 113t-113 47v0zM480 361q-2 -28 -21 -52v0v0q-19 -24 -34 -36q-9 -7 -18 0q-15 12 -34 36t-21 52q1 27 19 45q18 19 45 19t45 -19q18 -18 19 -45v0z" />
</svg>
