<?xml version="1.0" standalone="no"?>
<!DOCTYPE svg PUBLIC "-//W3C//DTD SVG 1.1//EN" "http://www.w3.org/Graphics/SVG/1.1/DTD/svg11.dtd" >
<svg xmlns="http://www.w3.org/2000/svg" xmlns:xlink="http://www.w3.org/1999/xlink" version="1.1" viewBox="-10 -40 332 512">
   <path fill="currentColor"
d="M166 8l-128 32l128 -32l-128 32q-22 4 -29 -17q-4 -22 17 -29l128 -32v0q22 -4 29 17q4 22 -17 29v0zM311 43q4 22 -17 29l-256 64v0q-22 4 -29 -17q-4 -22 17 -29l256 -64v0q22 -4 29 17v0zM311 139q4 22 -17 29l-256 64v0q-22 4 -29 -17q-4 -22 17 -29l256 -64v0
q22 -4 29 17v0zM144 345h80h-80h80q14 0 23 9t9 23v32v0q0 14 -9 23t-23 9h-40v0v8v0q-2 22 -24 24q-22 -2 -24 -24v-8v0h-40v0q-14 0 -23 -9t-9 -23v-32v0q0 -14 9 -23t23 -9v-78v0l48 -12v0v90v0zM311 235q4 22 -17 29l-64 16v0l-6 2v0v63v0h-48v0v-81v0q1 -18 18 -24
l8 -2v0v0v0l16 -4v0l64 -16v0q22 -4 29 17v0z" />
</svg>
