<?xml version="1.0" standalone="no"?>
<!DOCTYPE svg PUBLIC "-//W3C//DTD SVG 1.1//EN" "http://www.w3.org/Graphics/SVG/1.1/DTD/svg11.dtd" >
<svg xmlns="http://www.w3.org/2000/svg" xmlns:xlink="http://www.w3.org/1999/xlink" version="1.1" viewBox="-10 -40 532 512">
   <path fill="currentColor"
d="M280 73q1 -27 19 -45v0v0q18 -18 45 -19q27 1 45 19t19 45v19v0q-53 13 -56 72q0 22 18 53q17 30 48 59q6 5 14 5t14 -5q31 -29 48 -59q18 -31 18 -53q-3 -59 -56 -72v-19v0q-1 -48 -33 -79q-31 -32 -79 -33q-48 1 -79 33q-32 31 -33 79v36v0q-28 -19 -64 -20
q-48 1 -79 33q-32 31 -33 79v19v0q-53 13 -56 72q0 22 18 53q17 30 48 59q6 5 14 5t14 -5q31 -29 48 -59q18 -31 18 -53q-3 -59 -56 -72v-19v0q1 -27 19 -45t45 -19q27 1 45 19t19 45v32v0v216v0q2 22 24 24q22 -2 24 -24v-216v0v-32v0v-128v0zM55 272q4 -5 22 -7h3h3
q18 2 23 7q5 3 6 20v0v0v2q0 3 -2 7q-3 8 -9 20q-8 14 -21 29q-12 -15 -21 -29q-6 -12 -9 -20q-1 -4 -2 -6v-1v-2v0v0q1 -17 7 -20v0zM400 164q1 -17 7 -20q4 -6 25 -7q21 1 25 7q6 3 7 20v0v0v2q-1 3 -2 7q-3 8 -9 20q-8 14 -21 29q-13 -15 -21 -29q-6 -12 -9 -20
q-1 -4 -2 -6v-1v-2v0v0v0z" />
</svg>
