<?xml version="1.0" standalone="no"?>
<!DOCTYPE svg PUBLIC "-//W3C//DTD SVG 1.1//EN" "http://www.w3.org/Graphics/SVG/1.1/DTD/svg11.dtd" >
<svg xmlns="http://www.w3.org/2000/svg" xmlns:xlink="http://www.w3.org/1999/xlink" version="1.1" viewBox="-10 -40 596 512">
   <path fill="currentColor"
d="M184 -39q-22 2 -24 24q2 22 24 24h12v0l-54 256v0h-46v0q-14 0 -23 9t-9 23v16v0q0 20 5 38q25 -11 50 -1q-7 -17 -7 -37h352v0q0 20 -7 37q25 -10 50 1q5 -18 5 -38v-16v0q0 -14 -9 -23t-23 -9h-46v0l-54 -256v0h12v0q22 -2 24 -24q-2 -22 -24 -24h-208v0zM331 9l12 57
l-12 -57l12 57l-55 64v0l-55 -64v0l12 -57v0h86v0zM221 125l35 41l-35 -41l35 41l-58 69v0l23 -110v0zM288 203l53 62l-53 -62l53 62h-106v0l53 -62v0zM378 235l-58 -69l58 69l-58 -69l35 -41v0l23 110v0zM112 391q-16 -12 -32 0q-27 23 -61 32q-21 7 -18 29q6 21 28 18
q44 -13 67 -31q43 32 96 34q53 -2 96 -34q43 32 96 34q53 -2 96 -34q23 18 67 31q22 2 28 -19q3 -22 -18 -28q-34 -9 -61 -32q-16 -12 -32 0q-16 14 -37 24q-21 9 -43 10q-22 -1 -43 -10q-21 -10 -37 -24q-16 -12 -32 0q-16 14 -37 24q-21 9 -43 10q-22 -1 -43 -10
q-20 -10 -37 -24v0z" />
</svg>
