<?xml version="1.0" standalone="no"?>
<!DOCTYPE svg PUBLIC "-//W3C//DTD SVG 1.1//EN" "http://www.w3.org/Graphics/SVG/1.1/DTD/svg11.dtd" >
<svg xmlns="http://www.w3.org/2000/svg" xmlns:xlink="http://www.w3.org/1999/xlink" version="1.1" viewBox="-10 -40 650 512">
   <path fill="currentColor"
d="M96 41q-15 1 -16 16v320v0q1 15 16 16h320v0q15 -1 16 -16v-320v0q-1 -15 -16 -16h-320v0zM32 57q1 -27 19 -45v0v0q18 -18 45 -19h320v0q27 1 45 19t19 45v176v0h32v0v-72v0v-32v0q2 -22 24 -24h48v0q22 2 24 24v32v0q-2 22 -24 24h-24v0v72v0q-2 22 -24 24h-56v0v96v0
q-1 27 -19 45t-45 19h-320v0q-27 -1 -45 -19t-19 -45v-320v0zM160 89h192h-192h192q14 0 23 9t9 23v64v0q0 14 -9 23t-23 9h-192v0q-14 0 -23 -9t-9 -23v-64v0q0 -14 9 -23t23 -9v0zM176 249q15 1 16 16v16v0h16v0q15 1 16 16q-1 15 -16 16h-16v0v16v0q-1 15 -16 16
q-15 -1 -16 -16v-16v0h-16v0q-15 -1 -16 -16q1 -15 16 -16h16v0v-16v0q1 -15 16 -16v0zM296 265q22 2 24 24q-2 22 -24 24q-22 -2 -24 -24q2 -22 24 -24v0zM336 289q2 -22 24 -24q22 2 24 24q-2 22 -24 24q-22 -2 -24 -24v0z" />
</svg>
