<?xml version="1.0" standalone="no"?>
<!DOCTYPE svg PUBLIC "-//W3C//DTD SVG 1.1//EN" "http://www.w3.org/Graphics/SVG/1.1/DTD/svg11.dtd" >
<svg xmlns="http://www.w3.org/2000/svg" xmlns:xlink="http://www.w3.org/1999/xlink" version="1.1" viewBox="-10 -40 596 512">
   <path fill="currentColor"
d="M376 185q-22 -2 -24 -24v-112v0v-32v0q2 -22 24 -24h64v0q22 2 24 24v32v0q-2 22 -24 24h-40v0v88v0q-2 22 -24 24v0zM144 73q-41 1 -68 28v0v0q-27 27 -28 68v176v0q1 15 16 16h176v0v-192v0q-1 -41 -28 -68t-68 -28v0zM251 73q36 39 37 96v192v0h224v0q15 -1 16 -16
v-176v0q0 -26 -13 -48q-12 -21 -34 -34q15 -16 15 -38v-9v0q36 18 58 52q21 34 22 77v176v0q-1 27 -19 45t-45 19h-224h-224q-27 -1 -45 -19t-19 -45v-176v0q2 -61 42 -102q41 -40 102 -42h176v0v24v0v24v0h-69v0zM104 153h80h-80h80q22 2 24 24q-2 22 -24 24h-80v0
q-22 -2 -24 -24q2 -22 24 -24v0z" />
</svg>
