<?xml version="1.0" standalone="no"?>
<!DOCTYPE svg PUBLIC "-//W3C//DTD SVG 1.1//EN" "http://www.w3.org/Graphics/SVG/1.1/DTD/svg11.dtd" >
<svg xmlns="http://www.w3.org/2000/svg" xmlns:xlink="http://www.w3.org/1999/xlink" version="1.1" viewBox="-10 -40 532 512">
   <path fill="currentColor"
d="M280 -7q-22 2 -24 24q2 22 24 24h74v0q13 1 14 14q0 7 -5 11l-43 37v0v0l-2 2h-11v0q-44 0 -84 17q-39 17 -70 48l-19 -33v0h2v0q22 -2 24 -24q-2 -22 -24 -24h-80v0q-22 2 -24 24q2 22 24 24h22v0l44 73v0l-2 4q-1 1 -2 3h-6q-48 1 -79 33q-32 31 -33 79q1 48 33 79
q31 32 79 33q48 -1 79 -33q32 -31 33 -79q0 -32 -16 -58t-42 -40q23 -37 60 -57q37 -21 81 -21h12v0l11 44v0q-33 16 -53 46q-20 31 -21 70q1 54 37 91q37 36 91 37q54 -1 91 -37q36 -37 37 -91q-1 -54 -37 -91q-37 -36 -91 -37h-7l-14 -55v0l31 -27v0q21 -19 22 -48
q-1 -26 -18 -44q-18 -17 -44 -18h-74v0zM342 245l19 74l-19 -74l19 74q7 21 29 17q21 -7 17 -29l-18 -74v0q32 3 53 25t22 55q-1 34 -23 57q-23 22 -57 23q-34 -1 -57 -23q-22 -23 -23 -57q2 -45 38 -68v0zM112 265q36 1 55 32q18 32 0 64q-19 31 -55 32q-36 -1 -55 -32
q-18 -32 0 -64q19 -31 55 -32v0z" />
</svg>
