<?xml version="1.0" standalone="no"?>
<!DOCTYPE svg PUBLIC "-//W3C//DTD SVG 1.1//EN" "http://www.w3.org/Graphics/SVG/1.1/DTD/svg11.dtd" >
<svg xmlns="http://www.w3.org/2000/svg" xmlns:xlink="http://www.w3.org/1999/xlink" version="1.1" viewBox="-10 -40 660 512">
   <path fill="currentColor"
d="M144 89q1 -45 40 -69q40 -22 80 0q39 24 40 69q-1 45 -40 69q-40 22 -80 0q-39 -24 -40 -69v0zM352 89q0 -35 -17 -64v0v0q-17 -29 -47 -47q-30 -17 -64 -17t-64 17q-30 18 -47 47t-17 64t17 64t47 47q30 17 64 17t64 -17q30 -18 47 -47t17 -64v0zM49 425q8 -49 43 -80v0
v0q36 -31 86 -32h92v0q11 0 22 2q-4 -17 -4 -34q0 -8 1 -15q-10 -1 -19 -1h-92v0q-75 2 -126 52q-50 51 -52 126q0 13 9 21q8 9 21 9h388v0q13 0 21 -9q9 -8 9 -21v-1v-1q-38 0 -70 -16h-329v0zM448 201q45 2 69 40q22 40 0 80q-24 39 -69 40q-45 -1 -69 -40q-22 -40 0 -80
q24 -38 69 -40v0zM448 409q41 -1 72 -22l79 79v0q17 14 34 0q14 -17 0 -34l-79 -79v0q21 -31 22 -72q-1 -54 -38 -90q-36 -36 -90 -38q-54 2 -91 38q-36 36 -37 90q1 55 37 91q37 36 91 37v0z" />
</svg>
