<?xml version="1.0" standalone="no"?>
<!DOCTYPE svg PUBLIC "-//W3C//DTD SVG 1.1//EN" "http://www.w3.org/Graphics/SVG/1.1/DTD/svg11.dtd" >
<svg xmlns="http://www.w3.org/2000/svg" xmlns:xlink="http://www.w3.org/1999/xlink" version="1.1" viewBox="-10 -40 596 512">
   <path fill="currentColor"
d="M408 -39q-22 2 -24 24q2 22 24 24h53v0l-141 120v0l-112 -98v0q-14 -11 -29 -2l-168 112v0q-17 14 -7 33q14 17 33 7l153 -102v0l114 100v0q16 12 32 0l160 -137v0v55v0q2 22 24 24q22 -2 24 -24v-112v0q-2 -22 -24 -24h-112v0zM200 393q-1 7 -8 8q-7 -1 -8 -8v-160v0
q1 -7 8 -8q7 1 8 8v160v0zM192 185q-20 1 -34 14v0v0q-13 14 -14 34v160v0q1 20 14 34q14 13 34 14q20 -1 34 -14q13 -14 14 -34v-160v0q-1 -20 -14 -34q-14 -13 -34 -14v0zM72 393q-1 7 -8 8q-7 -1 -8 -8v-64v0q1 -7 8 -8q7 1 8 8v64v0zM64 281q-20 1 -34 14v0v0
q-13 14 -14 34v64v0q1 20 14 34q14 13 34 14q20 -1 34 -14q13 -14 14 -34v-64v0q-1 -20 -14 -34q-14 -13 -34 -14v0zM432 473q39 0 72 -19v0v0q33 -19 53 -53q19 -34 19 -72t-19 -72q-20 -34 -53 -53t-72 -19t-72 19t-53 53q-19 34 -19 72t19 72q20 34 53 53t72 19v0z
M408 300v0v0v0q-1 1 5 5q8 4 22 7q1 1 2 1v0v0q15 3 31 11q17 9 20 33q-1 27 -22 37q-9 4 -18 6v11v0q-1 14 -16 16q-15 -2 -16 -16v-12v0q-13 -3 -24 -6v0v0v0v0l-4 -2h-1q-13 -6 -10 -20q6 -14 20 -11l6 2v0v0q16 6 29 7q11 0 19 -4q3 -1 4 -3q1 -1 1 -4q1 -2 -5 -6
q-8 -4 -23 -8l-2 -1v0q-14 -3 -28 -10q-18 -7 -22 -31q1 -28 22 -37q9 -5 18 -6v-10v0q1 -15 16 -16q14 1 16 16v9v0l18 4q14 5 11 20q-4 13 -19 11q-14 -3 -26 -4q-10 0 -19 4q-3 2 -4 4q-1 0 -1 3v0z" />
</svg>
