<?xml version="1.0" standalone="no"?>
<!DOCTYPE svg PUBLIC "-//W3C//DTD SVG 1.1//EN" "http://www.w3.org/Graphics/SVG/1.1/DTD/svg11.dtd" >
<svg xmlns="http://www.w3.org/2000/svg" xmlns:xlink="http://www.w3.org/1999/xlink" version="1.1" viewBox="-10 -40 660 512">
   <path fill="currentColor"
d="M248 -15q-2 -22 -24 -24q-22 2 -24 24v40v0h-40v0q-27 1 -45 19t-19 45v16v0v48v0h16h432v-48v0v-16v0q-1 -27 -19 -45t-45 -19h-40v0v-40v0q-2 -22 -24 -24q-22 2 -24 24v40v0h-144v0v-40v0zM255 425q1 8 1 16q0 18 -9 32h146v0q-9 -14 -9 -32q0 -8 1 -16h-130v0z
M528 345q45 -1 69 -40q22 -40 0 -80q-24 -39 -69 -40q-45 1 -69 40q-22 40 0 80q24 39 69 40v0zM480 377q-27 1 -45 19v0v0q-18 18 -19 45q0 14 9 23t23 9h160v0q14 0 23 -9t9 -23q-1 -27 -19 -45t-45 -19h-96v0zM192 265q-1 -45 -40 -69q-40 -22 -80 0q-39 24 -40 69
q1 45 40 69q40 22 80 0q39 -24 40 -69v0zM0 441q0 14 9 23v0v0q9 9 23 9h160v0q14 0 23 -9t9 -23q-1 -27 -19 -45t-45 -19h-96v0q-27 1 -45 19t-19 45v0z" />
</svg>
