<?xml version="1.0" standalone="no"?>
<!DOCTYPE svg PUBLIC "-//W3C//DTD SVG 1.1//EN" "http://www.w3.org/Graphics/SVG/1.1/DTD/svg11.dtd" >
<svg xmlns="http://www.w3.org/2000/svg" xmlns:xlink="http://www.w3.org/1999/xlink" version="1.1" viewBox="-10 -40 660 512">
   <path fill="currentColor"
d="M64 9h448h-448h448q15 1 16 16v131v0q26 5 48 16v-147v0q-1 -27 -19 -45t-45 -19h-448v0q-27 1 -45 19t-19 45v288v0q1 27 19 45t45 19h148v0l-8 48v0h-52v0q-22 2 -24 24q2 22 24 24h72h171q-28 -20 -46 -48h-25h-72l8 -48v0h28h39q-7 -23 -7 -48h-80v0v0v0h-176v0
q-15 -1 -16 -16v-288v0q1 -15 16 -16v0zM480 154v-73v73v-73q-2 -22 -24 -24h-80v0q-22 2 -24 24q2 22 24 24h22v0l-94 94v0l-63 -63v0q-17 -14 -34 0l-104 104v0q-14 17 0 34q17 14 34 0l87 -87v0l63 63v0q7 7 17 7t17 -7l111 -111v0v22v0v4q23 -9 48 -11v0zM640 329
q0 -39 -19 -72v0v0q-19 -33 -53 -53q-34 -19 -72 -19t-72 19q-34 20 -53 53t-19 72t19 72t53 53q34 19 72 19t72 -19q34 -20 53 -53t19 -72v0zM473 296q-1 1 -1 4v0v0q-1 1 5 5q8 4 22 7q1 1 2 1v0v0q15 3 30 11q18 9 21 33q-2 27 -22 37q-9 4 -18 6v11v0q-1 14 -16 16
q-15 -2 -16 -16v-12v0q-13 -3 -24 -6v0v0v0v0l-4 -2h-1q-13 -6 -10 -20q5 -14 20 -11q3 1 5 2h1v0q16 6 29 7q11 0 19 -4q3 -1 4 -3q1 -1 1 -4q1 -2 -5 -6q-8 -4 -23 -8l-2 -1v0q-14 -3 -28 -10q-18 -7 -22 -31q1 -28 22 -37q9 -5 18 -6v-10v0q1 -15 16 -16q14 1 16 16v9v0
l18 4q14 5 11 20q-4 13 -19 11q-14 -3 -26 -4q-11 0 -19 4q-4 2 -4 4v-1z" />
</svg>
