<?xml version="1.0" standalone="no"?>
<!DOCTYPE svg PUBLIC "-//W3C//DTD SVG 1.1//EN" "http://www.w3.org/Graphics/SVG/1.1/DTD/svg11.dtd" >
<svg xmlns="http://www.w3.org/2000/svg" xmlns:xlink="http://www.w3.org/1999/xlink" version="1.1" viewBox="-10 -40 532 512">
   <path fill="currentColor"
d="M256 121q-26 0 -48 13v0v0q-22 13 -35 35q-13 23 -13 48t13 48q13 22 35 35t48 13t48 -13t35 -35q13 -23 13 -48t-13 -48q-13 -22 -35 -35t-48 -13v0zM304 217q-1 27 -24 42q-24 12 -48 0q-23 -15 -24 -42q1 -27 24 -42q24 -12 48 0q23 15 24 42v0zM235 -39q-17 0 -30 10
v0v0q-13 10 -17 27l-8 34v0h-1v0l-30 -18v0q-15 -9 -31 -7t-28 14l-30 30v0q-12 12 -14 28t7 31l19 30v0l-1 1v0l-34 8v0q-17 4 -27 17t-10 30v42v0q0 17 10 30t27 17l34 8v0v1v0l-18 30v0q-9 15 -7 31t14 28l30 30v0q12 12 28 14t31 -7l30 -18v0h1v0l8 34v0q4 17 17 27
t30 10h42v0q17 0 30 -10t17 -27l8 -34v0h1v0l30 18v0q15 9 31 7t28 -14l30 -30v0q12 -12 14 -28t-7 -31l-18 -30v0v-1v0l34 -8v0q17 -4 27 -17t10 -30v-42v0q0 -17 -10 -30t-27 -17l-34 -8v0v-1v0l18 -30v0q9 -15 7 -31t-14 -28l-30 -30v0q-12 -12 -28 -14t-31 7l-30 19v0
l-1 -1v0l-8 -34v0q-4 -17 -17 -27t-30 -10h-42v0zM235 9h42h-42h42l11 47v0q4 12 16 17q10 3 20 8q12 5 23 -1l41 -25v0l30 30v0l-25 41v0q-6 11 -1 23q5 10 8 20q5 12 17 16l47 11v0v42v0l-47 11v0q-12 4 -17 16q-3 10 -8 20q-5 12 1 23l25 41v0l-30 30v0l-41 -25v0
q-11 -6 -23 -1q-10 5 -20 8q-12 5 -16 17l-11 47v0h-42v0l-11 -47v0q-4 -12 -16 -17q-10 -3 -20 -8q-12 -5 -23 1l-41 25v0l-30 -30v0l25 -41v0q7 -11 1 -23q-5 -10 -8 -20q-5 -12 -17 -16l-47 -11v0v-42v0l47 -11v0q12 -4 17 -16q3 -10 8 -20q5 -12 -1 -23l-25 -41v0
l30 -30v0l41 25v0q11 7 23 1q10 -5 20 -8q12 -5 16 -17l11 -47v0z" />
</svg>
