<?xml version="1.0" standalone="no"?>
<!DOCTYPE svg PUBLIC "-//W3C//DTD SVG 1.1//EN" "http://www.w3.org/Graphics/SVG/1.1/DTD/svg11.dtd" >
<svg xmlns="http://www.w3.org/2000/svg" xmlns:xlink="http://www.w3.org/1999/xlink" version="1.1" viewBox="-10 -40 660 512">
   <path fill="currentColor"
d="M152 -39h80h-80h80q22 2 24 24v8v0q15 1 16 16q-1 15 -16 16h-128v0q-15 -1 -16 -16q1 -15 16 -16v-8v0q2 -22 24 -24v0zM32 153q1 -41 28 -68v0v0q27 -27 68 -28h128v0q38 1 65 25l3 3q27 27 28 68h32v0q-2 -63 -49 -100q8 -9 19 -14l13 -6v0q8 -4 17 -6v-42v0
q2 -22 24 -24h80v0q22 2 24 24v42v0q8 2 16 6l13 6v0q33 17 35 54q-1 19 -10 34q7 11 9 26h33h8q22 2 24 24q-2 22 -24 24h-8v0l-24 201v0q-4 31 -26 51q-22 19 -53 20h-370v0q-31 -1 -53 -20q-22 -20 -26 -51l-24 -201v0h-8v0q-22 -2 -24 -24q2 -22 24 -24h8v0zM103 397
q6 26 32 28h370v0q27 -2 32 -28l23 -196v0h-480v0l23 196v0z" />
</svg>
