<?xml version="1.0" standalone="no"?>
<!DOCTYPE svg PUBLIC "-//W3C//DTD SVG 1.1//EN" "http://www.w3.org/Graphics/SVG/1.1/DTD/svg11.dtd" >
<svg xmlns="http://www.w3.org/2000/svg" xmlns:xlink="http://www.w3.org/1999/xlink" version="1.1" viewBox="-10 -40 660 512">
   <path fill="currentColor"
d="M96 -15q2 -22 24 -24h80v0q22 2 24 24v24v0h8v0q22 2 24 24q-2 22 -24 24h-144v0q-22 -2 -24 -24q2 -22 24 -24h8v0v-24v0zM128 137q-34 1 -57 23v0v0q-22 23 -23 57v192v0q1 15 16 16h256v0q15 -1 16 -16v-192v0q-1 -34 -23 -57q-23 -22 -57 -23h-128v0zM0 217
q1 -54 37 -91v0v0q37 -36 91 -37h128v0q54 1 91 37q36 37 37 91v192v0q-1 27 -19 45t-45 19h-256v0q-27 -1 -45 -19t-19 -45v-192v0zM224 217q0 -14 9 -23v0v0q9 -9 23 -9t23 9t9 23v96v0q0 14 -9 23t-23 9t-23 -9t-9 -23v-96v0zM472 25h80h-80h80q22 2 24 24v40v0h-128v0
v-40v0q2 -22 24 -24v0zM417 353v0v0v0q-1 0 -1 -1v-135v0q0 -37 -16 -69q8 -8 18 -13l14 -6v0q16 -8 35 -8h90v0q19 0 35 8l14 6v0q33 17 34 54q-2 36 -31 53q29 18 31 55q-2 38 -33 56q31 18 33 56q-1 27 -19 45t-45 19h-128v0q-26 -1 -44 -17q12 -21 12 -47v-55v0
q0 -1 1 -1v0v0z" />
</svg>
