<?xml version="1.0" standalone="no"?>
<!DOCTYPE svg PUBLIC "-//W3C//DTD SVG 1.1//EN" "http://www.w3.org/Graphics/SVG/1.1/DTD/svg11.dtd" >
<svg xmlns="http://www.w3.org/2000/svg" xmlns:xlink="http://www.w3.org/1999/xlink" version="1.1" viewBox="-10 -40 660 512">
   <path fill="currentColor"
d="M449 -39q-26 0 -46 17l-27 24v0q-23 20 -24 51q1 29 20 48t48 20h52v0q22 2 24 24v19v0q-2 19 -21 21q-20 0 -36 -11l-26 -17v0q-54 -36 -119 -36h-9v0q-94 1 -164 64l-81 73v0q-39 37 -40 91q1 53 36 88t88 36h131v0q28 -1 46 -19t19 -46q-1 -25 -16 -43
q-16 -18 -41 -21l-104 -12v0q-5 -18 -23 -19q-22 2 -24 24q0 16 11 28q10 11 26 14l108 12v0q14 3 15 17q-1 16 -17 17h-131v0q-32 -1 -54 -22q-21 -22 -22 -54q1 -33 25 -56l80 -73v0q57 -50 132 -51h9v0q51 0 93 28l25 17v0q29 19 63 19q29 -1 49 -20q19 -20 20 -49v-19v0
q-1 -31 -21 -51t-51 -21h-52v0q-18 -2 -20 -20q0 -9 7 -15l28 -24v0q6 -5 14 -5h12v0q55 1 93 38q37 38 38 93v27v0q0 49 -21 93q-20 44 -58 75l-8 8v0q-10 8 -9 20v2v52v0q-1 7 -8 8h-48v0q-7 -1 -8 -8v-32v0q0 -13 -10 -20q-11 -7 -23 -2v0v0h-1v0q-1 0 -4 2q-7 2 -20 5
q-11 2 -28 4q6 16 6 34q0 7 -1 14q19 -2 33 -5v0v0v0v0q1 24 16 40q16 15 40 16h48v0q24 -1 40 -16q15 -16 16 -40v-45v0q46 -38 71 -92q25 -53 25 -113v-27v0q-2 -76 -53 -126q-50 -51 -126 -53h-12v0zM480 41q-1 -15 -16 -16q-15 1 -16 16q1 15 16 16q15 -1 16 -16v0z" />
</svg>
