<?xml version="1.0" standalone="no"?>
<!DOCTYPE svg PUBLIC "-//W3C//DTD SVG 1.1//EN" "http://www.w3.org/Graphics/SVG/1.1/DTD/svg11.dtd" >
<svg xmlns="http://www.w3.org/2000/svg" xmlns:xlink="http://www.w3.org/1999/xlink" version="1.1" viewBox="-10 -40 660 512">
   <path fill="currentColor"
d="M104 97q1 -32 28 -48q28 -16 56 0q27 16 28 48q-1 32 -28 48q-28 16 -56 0q-27 -16 -28 -48v0zM264 97q0 -28 -14 -52v0v0q-14 -24 -38 -38q-25 -14 -52 -14t-52 14q-24 14 -38 38t-14 52t14 52t38 38q25 14 52 14t52 -14q24 -14 38 -38t14 -52v0zM480 185q26 0 48 -13v0
v0q22 -13 35 -35q13 -23 13 -48t-13 -48q-13 -22 -35 -35t-48 -13t-48 13t-35 35q-13 23 -13 48t13 48q13 22 35 35t48 13v0zM128 297h64h-64h64q34 1 57 23q22 23 23 57v16v0h-224v0v-16v0q1 -34 23 -57q23 -22 57 -23v0zM128 249q-54 1 -91 37v0v0q-36 37 -37 91v16v0
q1 20 14 34q14 13 34 14h224v0q20 -1 34 -14q13 -14 14 -34v-16v0q-1 -54 -37 -91q-37 -36 -91 -37h-64v0zM448 441h64h-64h64q54 -1 91 -37q36 -37 37 -91v-16v0q-1 -20 -14 -34q-14 -13 -34 -14h-224v0q-17 0 -29 10q-12 9 -17 25q29 40 30 93v16v0v2v3q37 41 96 43v0z
" />
</svg>
