<?xml version="1.0" standalone="no"?>
<!DOCTYPE svg PUBLIC "-//W3C//DTD SVG 1.1//EN" "http://www.w3.org/Graphics/SVG/1.1/DTD/svg11.dtd" >
<svg xmlns="http://www.w3.org/2000/svg" xmlns:xlink="http://www.w3.org/1999/xlink" version="1.1" viewBox="-10 -40 660 512">
   <path fill="currentColor"
d="M256 25q1 -36 32 -55q32 -18 64 0q31 19 32 55q-1 36 -32 55q-32 18 -64 0q-31 -19 -32 -55v0zM304 169q-11 1 -15 12l-33 116v0h128v0l-33 -116v0q-4 -11 -15 -12h-32v0zM304 121h32h-32h32q22 0 38 13q17 12 23 33l39 137v0q4 16 -5 28t-25 13h-22v0v104v0
q-2 22 -24 24q-22 -2 -24 -24v-104v0h-32v0v104v0q-2 22 -24 24q-22 -2 -24 -24v-104v0h-22v0q-16 -1 -25 -13t-5 -28l39 -137v0q6 -21 23 -33q16 -13 38 -13v0zM32 -7q69 1 127 29v0v0q58 29 98 79q-21 13 -35 34q-31 -40 -75 -65q-45 -25 -99 -28v31v0q0 54 23 99
q23 46 62 77l19 14v0q15 15 4 33l-13 19v0q-25 34 -30 78q49 -1 87 -26q11 7 24 9v32v0q-49 32 -112 33h-16v0q-14 0 -23 -9t-9 -23q1 -70 40 -122q-48 -38 -76 -93q-27 -55 -28 -121v-48v0q0 -14 9 -23t23 -9v0zM418 135q-14 -21 -35 -34q40 -50 98 -79q58 -28 127 -29
q14 0 23 9t9 23v48v0q-1 66 -28 121q-28 55 -76 93q39 52 40 122q0 14 -9 23t-23 9h-16v0q-63 -1 -112 -33v-32v0q13 -2 24 -9q38 25 87 26q-5 -44 -29 -78l-14 -19v0q-11 -18 4 -33l19 -14v0q39 -31 62 -77q23 -45 23 -99v-31v0q-54 3 -99 28q-44 25 -75 65v0z" />
</svg>
