<?xml version="1.0" standalone="no"?>
<!DOCTYPE svg PUBLIC "-//W3C//DTD SVG 1.1//EN" "http://www.w3.org/Graphics/SVG/1.1/DTD/svg11.dtd" >
<svg xmlns="http://www.w3.org/2000/svg" xmlns:xlink="http://www.w3.org/1999/xlink" version="1.1" viewBox="-10 -40 532 512">
   <path fill="currentColor"
d="M304 377q-16 30 -29 39v0v0q-13 10 -19 9q-5 0 -15 -6l-15 52v0q15 2 30 2q72 -1 129 -35q58 -34 92 -92q34 -57 35 -129q-1 -71 -35 -129t-92 -92q-57 -34 -129 -35q-72 1 -129 35q-58 34 -92 92q-34 57 -35 129q0 15 2 30l47 -14v0q-1 -8 -1 -16q0 -25 6 -48h76v0
q-2 20 -2 41l49 -14v0q0 -14 2 -27h155v0q2 23 2 48t-2 48h-47v0l-14 48v0h53v0q-9 37 -22 64v0zM208 57q16 -30 29 -39v0v0q13 -10 19 -9q6 -1 19 9q13 9 29 39q13 27 22 64h-140v0q9 -37 22 -64v0zM384 217q0 -25 -2 -48h77v0q5 23 5 48t-5 48h-77v0q2 -23 2 -48v0z
M375 121q-11 -54 -33 -93q65 30 99 93h-66v0zM71 121q34 -63 99 -93q-22 39 -33 93h-66v0zM375 313h66h-66h66q-34 63 -99 93q22 -39 33 -93v0zM39 270q-11 3 -11 13v0v0q-1 10 8 16l58 29v0q2 1 3 2l-88 88v0q-9 10 -9 23t9 23q10 9 23 9t23 -9l88 -88v0q1 1 2 3l29 58v0
q6 9 16 8q10 0 14 -11l60 -205v0q2 -9 -4 -16q-7 -6 -16 -4l-205 61v0z" />
</svg>
