<?xml version="1.0" standalone="no"?>
<!DOCTYPE svg PUBLIC "-//W3C//DTD SVG 1.1//EN" "http://www.w3.org/Graphics/SVG/1.1/DTD/svg11.dtd" >
<svg xmlns="http://www.w3.org/2000/svg" xmlns:xlink="http://www.w3.org/1999/xlink" version="1.1" viewBox="-10 -40 596 512">
   <path fill="currentColor"
d="M64 41q-15 1 -16 16v320v0q1 15 16 16h448v0q15 -1 16 -16v-320v0q-1 -15 -16 -16h-448v0zM0 57q1 -27 19 -45v0v0q18 -18 45 -19h448v0q27 1 45 19t19 45v320v0q-1 27 -19 45t-45 19h-448v0q-27 -1 -45 -19t-19 -45v-320v0zM120 201h176h-176h176q22 2 24 24
q-2 22 -24 24h-176v0q-22 -2 -24 -24q2 -22 24 -24v0zM376 201h80h-80h80q22 2 24 24q-2 22 -24 24h-80v0q-22 -2 -24 -24q2 -22 24 -24v0zM120 297h80h-80h80q22 2 24 24q-2 22 -24 24h-80v0q-22 -2 -24 -24q2 -22 24 -24v0zM280 297h176h-176h176q22 2 24 24q-2 22 -24 24
h-176v0q-22 -2 -24 -24q2 -22 24 -24v0z" />
</svg>
