<?xml version="1.0" standalone="no"?>
<!DOCTYPE svg PUBLIC "-//W3C//DTD SVG 1.1//EN" "http://www.w3.org/Graphics/SVG/1.1/DTD/svg11.dtd" >
<svg xmlns="http://www.w3.org/2000/svg" xmlns:xlink="http://www.w3.org/1999/xlink" version="1.1" viewBox="-10 -40 532 512">
   <path fill="currentColor"
d="M48 185q2 -75 52 -124v0v0q49 -50 124 -52h24v0q46 1 83 25q38 24 57 63q4 9 7 18l4 8l2 4v0q6 15 13 31q15 32 41 60l4 4v0q5 5 5 11q-1 15 -16 16h-24v0q-22 2 -24 24v72v0q-1 14 -16 16h-88v0q-22 2 -24 24v64v0q2 22 24 24q22 -2 24 -24v-40v0h64v0q27 -1 45 -19
t19 -45v-48v0v0v0q27 -1 45 -19t19 -45q0 -26 -19 -45l-4 -4v0q-18 -19 -31 -47q-7 -14 -13 -29l-2 -4v0q-6 -13 -12 -27q-25 -52 -74 -84q-49 -31 -109 -32h-24v0q-63 1 -113 31q-51 29 -80 80q-30 50 -31 113q2 82 50 142q14 16 14 33v89v0q2 22 24 24q22 -2 24 -24v-89v0
q-2 -38 -24 -64q-39 -47 -40 -111v0zM337 157q10 -7 6 -18q-3 -8 -7 -16l-2 -4v0q-5 -8 -10 -14q-9 -9 -19 -3l-3 1v0q-15 8 -30 -1t-16 -25v-4v0q-1 -12 -12 -15q-10 -1 -20 -1t-20 1q-11 3 -12 15v4v0q-1 16 -16 25q-15 8 -30 1l-3 -1v0q-10 -6 -19 3q-5 6 -10 14l-2 4v0
l-8 16q-3 11 7 18l3 2v0q14 9 14 26t-14 26l-3 2v0q-10 7 -7 18q3 8 8 16l2 4v0q5 8 10 14q8 9 19 3l3 -1v0q15 -8 30 1t16 25v4v0q0 12 12 14q10 2 20 2t20 -2q11 -2 12 -14v-4v0q1 -16 16 -25t30 -1l2 1v0q11 6 19 -3q6 -6 11 -14l2 -4v0q4 -8 7 -16q4 -11 -6 -18l-3 -2v0
q-14 -9 -14 -26t14 -27l3 -1v0zM184 185q1 -23 20 -35q20 -10 40 0q19 12 20 35q-1 23 -20 35q-20 10 -40 0q-19 -12 -20 -35v0z" />
</svg>
