<?xml version="1.0" standalone="no"?>
<!DOCTYPE svg PUBLIC "-//W3C//DTD SVG 1.1//EN" "http://www.w3.org/Graphics/SVG/1.1/DTD/svg11.dtd" >
<svg xmlns="http://www.w3.org/2000/svg" xmlns:xlink="http://www.w3.org/1999/xlink" version="1.1" viewBox="-10 -40 660 512">
   <path fill="currentColor"
d="M64 9q-15 1 -16 16v288v0q1 15 16 16h13v0q13 -22 34 -35q22 -13 49 -13t49 13q21 13 34 35h77h32q15 -1 16 -16v-288v0q-1 -15 -16 -16h-288v0zM480 473q-41 -1 -68 -28v0v0q-27 -27 -28 -68h-8h-120q-1 41 -28 68t-68 28q-41 -1 -68 -28t-28 -68q-27 -1 -45 -19
t-19 -45v-288v0q1 -27 19 -45t45 -19h288v0q27 1 45 19t19 45v32v0h43v0q23 0 39 16l94 94v0q16 16 16 39v123v0h8v0q22 2 24 24q-2 22 -24 24h-40v0q-1 41 -28 68t-68 28v0zM558 201v0v0v0v0l-94 -94v0q-2 -2 -5 -2h-43v0v96v0h142v0zM160 425q27 -1 42 -24q12 -24 0 -48
q-15 -23 -42 -24q-27 1 -42 24q-12 24 0 48q15 23 42 24v0zM528 377q-1 -27 -24 -42q-24 -12 -48 0q-23 15 -24 42q1 27 24 42q24 12 48 0q23 -15 24 -42v0zM96 136l10 -82l-10 82l10 -82q1 -9 11 -10q10 1 12 11l4 76v0q1 5 6 5t5 -5l5 -76v0q1 -10 11 -11q10 1 11 11l5 76
v0q0 5 5 5t6 -5l4 -76v0q2 -10 12 -11q10 1 12 10l9 82v0q0 22 -14 39q-13 16 -34 21v37v0q-1 15 -16 16q-15 -1 -16 -16v-37v0q-21 -5 -34 -21q-14 -17 -14 -39v0zM272 265v-64v64v-64q-14 0 -23 -9t-9 -23v-37v0q2 -47 22 -67q19 -21 28 -23q2 -1 4 -1q9 1 10 10v38v0v112
v0v64v0q-1 15 -16 16q-15 -1 -16 -16v0z" />
</svg>
