<?xml version="1.0" standalone="no"?>
<!DOCTYPE svg PUBLIC "-//W3C//DTD SVG 1.1//EN" "http://www.w3.org/Graphics/SVG/1.1/DTD/svg11.dtd" >
<svg xmlns="http://www.w3.org/2000/svg" xmlns:xlink="http://www.w3.org/1999/xlink" version="1.1" viewBox="-10 -40 522 512">
   <path fill="currentColor"
d="M256 13q11 1 12 12q-1 11 -12 12q-11 -1 -12 -12q1 -11 12 -12v0zM204 25q1 29 26 45q26 14 52 0q25 -16 26 -45q-1 -29 -26 -45q-26 -14 -52 0q-25 16 -26 45v0zM224 409q0 14 9 23v0v0q9 9 23 9t23 -9t9 -23t-9 -23t-23 -9t-23 9t-9 23v0zM480 217q0 -14 -9 -23v0v0
q-9 -9 -23 -9t-23 9t-9 23t9 23t23 9t23 -9t9 -23v0zM64 181q-15 0 -25 11v0v0q-11 10 -11 25t11 25q10 11 25 11t25 -11q11 -10 11 -25t-11 -25q-10 -11 -25 -11v0zM403 93q-6 6 -16 4q-9 -2 -11 -11q-2 -10 5 -16q6 -7 15 -5q9 3 12 12q2 9 -5 16v0zM431 42
q-23 -22 -54 -15q-30 9 -39 40q-8 31 14 54q23 22 54 14q31 -9 40 -39q7 -31 -15 -54v0zM98 330q-10 10 -10 23v0v0q0 13 10 22q9 10 22 10t23 -10q9 -9 9 -22t-9 -23q-10 -9 -23 -9t-22 9v0zM414 375q10 -9 10 -22v0v0q0 -13 -10 -23q-9 -9 -22 -9t-23 9q-9 10 -9 23t9 22
q10 10 23 10t22 -10v0zM126 87q-3 3 -8 2q-4 -1 -6 -6q-1 -4 3 -7q3 -4 7 -3q5 2 6 6q1 5 -2 8v0zM154 47q-20 -18 -46 -12q-26 8 -34 34q-6 26 12 46q20 19 47 13q26 -8 34 -34q6 -27 -13 -47v0z" />
</svg>
