<?xml version="1.0" standalone="no"?>
<!DOCTYPE svg PUBLIC "-//W3C//DTD SVG 1.1//EN" "http://www.w3.org/Graphics/SVG/1.1/DTD/svg11.dtd" >
<svg xmlns="http://www.w3.org/2000/svg" xmlns:xlink="http://www.w3.org/1999/xlink" version="1.1" viewBox="-10 -40 404 512">
   <path fill="currentColor"
d="M208 -32q-16 -14 -32 0l-129 121v0q-15 14 -15 34q0 19 14 32q13 14 32 14h42v0v144v0q2 68 47 113t113 47h48v0q24 -1 40 -16q15 -16 16 -40v-32v0q-1 -24 -16 -40q-16 -15 -40 -16h-56v0q-7 -1 -8 -8v-152v0h42v0q19 0 32 -14q14 -13 14 -32q0 -20 -15 -34l-129 -121v0
zM301 121h-61h61h-61q-22 2 -24 24v176v0q1 24 16 40q16 15 40 16h56v0q7 1 8 8v32v0q-1 7 -8 8h-48v0q-48 -1 -79 -33q-32 -31 -33 -79v-168v0q-2 -22 -24 -24h-61v0l109 -103v0l110 103h-1z" />
</svg>
