<?xml version="1.0" standalone="no"?>
<!DOCTYPE svg PUBLIC "-//W3C//DTD SVG 1.1//EN" "http://www.w3.org/Graphics/SVG/1.1/DTD/svg11.dtd" >
<svg xmlns="http://www.w3.org/2000/svg" xmlns:xlink="http://www.w3.org/1999/xlink" version="1.1" viewBox="-10 -40 660 512">
   <path fill="currentColor"
d="M48 89q1 -15 16 -16h512v0q15 1 16 16v35v0q-32 9 -52 34q-19 25 -20 59q1 34 20 59q20 25 52 34v35v0q-1 15 -16 16h-512v0q-15 -1 -16 -16v-256v0zM64 25q-27 1 -45 19v0v0q-18 18 -19 45v256v0q1 27 19 45t45 19h512v0q27 -1 45 -19t19 -45v-61v0q0 -9 -8 -14
q-7 -5 -16 -5q-20 -1 -34 -14q-13 -14 -14 -34q1 -20 14 -34q14 -13 34 -14q9 0 16 -5q8 -5 8 -14v-61v0q-1 -27 -19 -45t-45 -19h-512v0zM448 121q-1 -15 -16 -16q-15 1 -16 16q1 15 16 16q15 -1 16 -16v0zM448 185q-1 -15 -16 -16q-15 1 -16 16q1 15 16 16q15 -1 16 -16v0
zM432 265q15 -1 16 -16q-1 -15 -16 -16q-15 1 -16 16q1 15 16 16v0zM448 313q-1 -15 -16 -16q-15 1 -16 16q1 15 16 16q15 -1 16 -16v0z" />
</svg>
