<?xml version="1.0" standalone="no"?>
<!DOCTYPE svg PUBLIC "-//W3C//DTD SVG 1.1//EN" "http://www.w3.org/Graphics/SVG/1.1/DTD/svg11.dtd" >
<svg xmlns="http://www.w3.org/2000/svg" xmlns:xlink="http://www.w3.org/1999/xlink" version="1.1" viewBox="-10 -40 532 512">
   <path fill="currentColor"
d="M48 409q1 15 16 16v48v0q-27 -1 -45 -19t-19 -45v-384v0q1 -27 19 -45t45 -19h166v0q26 0 45 19l90 90v0q19 19 19 46v133v0h-48v0v-128v0h-80v0q-14 0 -23 -9t-9 -23v-80v0h-160v0q-15 1 -16 16v384v0zM140 314q11 -3 18 7l34 57v0l34 -57v0q7 -10 18 -7t12 15v128v0
q-1 15 -16 16q-15 -1 -16 -16v-70v0l-18 30v0q-5 8 -14 8t-14 -8l-18 -30v0v70v0q-1 15 -16 16q-15 -1 -16 -16v-128v0q1 -12 12 -15v0zM288 329q1 -15 16 -16h32v0q24 1 40 16q15 16 16 40q-1 24 -16 40q-16 15 -40 16h-16v0v32v0q-1 15 -16 16q-15 -1 -16 -16v-48v0v-80v0
zM320 393h16h-16h16q22 -2 24 -24q-2 -22 -24 -24h-16v0v48v0zM464 473h-32h32h-32q-15 -1 -16 -16q1 -15 16 -16h32v0q15 -1 16 -16q-1 -15 -16 -16h-24v0q-15 -1 -16 -16v-2q2 -13 16 -14h24v0q15 -1 16 -16q-1 -15 -16 -16h-32v0q-15 -1 -16 -16q1 -15 16 -16h32v0
q20 1 34 14q13 14 14 34q0 19 -12 32q12 13 12 32q-1 20 -14 34q-14 13 -34 14v0z" />
</svg>
