<?xml version="1.0" standalone="no"?>
<!DOCTYPE svg PUBLIC "-//W3C//DTD SVG 1.1//EN" "http://www.w3.org/Graphics/SVG/1.1/DTD/svg11.dtd" >
<svg xmlns="http://www.w3.org/2000/svg" xmlns:xlink="http://www.w3.org/1999/xlink" version="1.1" viewBox="-10 -40 468 512">
   <path fill="currentColor"
d="M224 9q27 1 45 19v0v0q18 18 19 45v48v0h-128v0v-48v0q1 -27 19 -45t45 -19v0zM112 73v48v-48v48h-64v0q-20 1 -34 14q-13 14 -14 34v208v0q1 41 28 68t68 28h256v0q41 -1 68 -28t28 -68v-208v0q-1 -20 -14 -34q-14 -13 -34 -14h-64v0v-48v0q-1 -48 -33 -79
q-31 -32 -79 -33q-48 1 -79 33q-32 31 -33 79v0zM48 169h352h-352h352v208v0q-1 20 -14 34q-14 13 -34 14h-256v0q-20 -1 -34 -14q-13 -14 -14 -34v-208v0zM144 273q-22 2 -24 24q2 22 24 24h160v0q22 -2 24 -24q-2 -22 -24 -24h-160v0z" />
</svg>
