<?xml version="1.0" standalone="no"?>
<!DOCTYPE svg PUBLIC "-//W3C//DTD SVG 1.1//EN" "http://www.w3.org/Graphics/SVG/1.1/DTD/svg11.dtd" >
<svg xmlns="http://www.w3.org/2000/svg" xmlns:xlink="http://www.w3.org/1999/xlink" version="1.1" viewBox="-10 -40 661 512">
   <path fill="currentColor"
d="M80 49v88v-88v88h142v0l-43 -91v0q-2 -5 -7 -5h-84v0q-7 1 -8 8v0zM32 137v-88v88v-88q1 -24 16 -40q16 -15 40 -16h84v0q34 1 50 32l53 112v0h53v0v-56v0q2 -22 24 -24q22 2 24 24v56v0q31 1 51 21t21 51v48v0h64v0v-31v0q0 -34 23 -59l63 -70v0q17 -15 34 -2
q15 16 2 34l-64 70v0q-10 11 -10 27v110v0q0 16 10 27l64 70v0q13 18 -2 34q-17 13 -34 -2l-63 -70v0q-23 -25 -23 -59v-31v0h-47v0q15 25 15 56q-1 48 -33 79q-31 32 -79 33h-256v0q-48 -1 -79 -33q-32 -31 -33 -79q1 -47 32 -78v-98v0v-24v0v-24v0zM80 254q15 -5 32 -5
h256v0q17 0 32 5v-45v0q-2 -22 -24 -24h-296v0v69v0zM112 297q-27 1 -45 19v0v0q-18 18 -19 45q1 27 19 45t45 19h256v0q27 -1 45 -19t19 -45q-1 -27 -19 -45t-45 -19h-256v0zM96 361q2 -22 24 -24q22 2 24 24q-2 22 -24 24q-22 -2 -24 -24v0zM360 337q22 2 24 24
q-2 22 -24 24q-22 -2 -24 -24q2 -22 24 -24v0zM256 361q2 -22 24 -24q22 2 24 24q-2 22 -24 24q-22 -2 -24 -24v0zM200 337q22 2 24 24q-2 22 -24 24q-22 -2 -24 -24q2 -22 24 -24v0z" />
</svg>
