<?xml version="1.0" standalone="no"?>
<!DOCTYPE svg PUBLIC "-//W3C//DTD SVG 1.1//EN" "http://www.w3.org/Graphics/SVG/1.1/DTD/svg11.dtd" >
<svg xmlns="http://www.w3.org/2000/svg" xmlns:xlink="http://www.w3.org/1999/xlink" version="1.1" viewBox="-10 -40 660 512">
   <path fill="currentColor"
d="M0 -15q2 22 24 24h8v0v96v0h-8v0q-22 2 -24 24q2 22 24 24h304v0q22 -2 24 -24q-2 -22 -24 -24h-8v0v-96v0h8v0q22 -2 24 -24q-2 -22 -24 -24h-304v0q-22 2 -24 24v0zM272 105h-32h32h-32v-96v0h32v0v96v0zM160 9h32h-32h32v96v0h-32v0v-96v0zM112 105h-32h32h-32v-96v0
h32v0v96v0zM408 57q-22 2 -24 24v104v0h-328v0q-24 1 -40 16q-15 16 -16 40v80v0q1 24 16 40q16 15 40 16h8v0q1 41 28 68t68 28q41 -1 68 -28t28 -68h128v0q1 41 28 68t68 28q41 -1 68 -28t28 -68h8v0q24 -1 40 -16q15 -16 16 -40v-109v0q0 -19 -12 -35l-80 -99v0
q-17 -20 -43 -21h-97v0zM77 329h-21h21h-21q-7 -1 -8 -8v-80v0q1 -7 8 -8h328h208v88v0q-1 7 -8 8h-21v0q-13 -22 -34 -35q-22 -13 -49 -13t-49 13q-21 13 -34 35h-154v0q-13 -22 -34 -35q-22 -13 -49 -13t-49 13q-21 13 -34 35v0zM432 185v-80v80v-80h73v0q3 0 6 3l61 77v0
h-140v0zM112 377q1 -27 24 -42q24 -12 48 0q23 15 24 42q-1 27 -24 42q-24 12 -48 0q-23 -15 -24 -42v0zM480 329q27 1 42 24q12 24 0 48q-15 23 -42 24q-27 -1 -42 -24q-12 -24 0 -48q15 -23 42 -24v0z" />
</svg>
