<?xml version="1.0" standalone="no"?>
<!DOCTYPE svg PUBLIC "-//W3C//DTD SVG 1.1//EN" "http://www.w3.org/Graphics/SVG/1.1/DTD/svg11.dtd" >
<svg xmlns="http://www.w3.org/2000/svg" xmlns:xlink="http://www.w3.org/1999/xlink" version="1.1" viewBox="-10 -40 650 512">
   <path fill="currentColor"
d="M576 -39q22 2 24 24v464v0q-2 22 -24 24q-22 -2 -24 -24v-464v0q2 -22 24 -24v0zM448 57q22 2 24 24v368v0q-2 22 -24 24q-22 -2 -24 -24v-368v0q2 -22 24 -24v0zM320 153q22 2 24 24v272v0q-2 22 -24 24q-22 -2 -24 -24v-272v0q2 -22 24 -24v0zM192 249q22 2 24 24v176
v0q-2 22 -24 24q-22 -2 -24 -24v-176v0q2 -22 24 -24v0zM64 345q22 2 24 24v80v0q-2 22 -24 24q-22 -2 -24 -24v-80v0q2 -22 24 -24v0z" />
</svg>
