<?xml version="1.0" standalone="no"?>
<!DOCTYPE svg PUBLIC "-//W3C//DTD SVG 1.1//EN" "http://www.w3.org/Graphics/SVG/1.1/DTD/svg11.dtd" >
<svg xmlns="http://www.w3.org/2000/svg" xmlns:xlink="http://www.w3.org/1999/xlink" version="1.1" viewBox="-10 -40 532 512">
   <path fill="currentColor"
d="M280 -15q-2 -22 -24 -24q-22 2 -24 24v270v0l-95 -95v0q-17 -14 -34 0q-14 17 0 34l136 136v0q17 14 34 0l136 -136v0q14 -17 0 -34q-17 -14 -34 0l-95 95v0v-270v0zM129 265h-65h65h-65q-27 1 -45 19t-19 45v80v0q1 27 19 45t45 19h384v0q27 -1 45 -19t19 -45v-80v0
q-1 -27 -19 -45t-45 -19h-65v0l-48 48v0h113v0q15 1 16 16v80v0q-1 15 -16 16h-384v0q-15 -1 -16 -16v-80v0q1 -15 16 -16h113v0l-48 -48v0zM432 369q-2 -22 -24 -24q-22 2 -24 24q2 22 24 24q22 -2 24 -24v0z" />
</svg>
