<?xml version="1.0" standalone="no"?>
<!DOCTYPE svg PUBLIC "-//W3C//DTD SVG 1.1//EN" "http://www.w3.org/Graphics/SVG/1.1/DTD/svg11.dtd" >
<svg xmlns="http://www.w3.org/2000/svg" xmlns:xlink="http://www.w3.org/1999/xlink" version="1.1" viewBox="-10 -40 468 512">
   <path fill="currentColor"
d="M144 89v64v-64v64h160v0v-64v0q-1 -34 -23 -57q-23 -22 -57 -23q-34 1 -57 23q-22 23 -23 57v0zM96 153v-64v64v-64q1 -54 37 -91q37 -36 91 -37q54 1 91 37q36 37 37 91v64v0h32v0q27 1 45 19t19 45v192v0q-1 27 -19 45t-45 19h-320v0q-27 -1 -45 -19t-19 -45v-192v0
q1 -27 19 -45t45 -19h32v0zM48 217v192v-192v192q1 15 16 16h320v0q15 -1 16 -16v-192v0q-1 -15 -16 -16h-320v0q-15 1 -16 16v0z" />
</svg>
