<?xml version="1.0" standalone="no"?>
<!DOCTYPE svg PUBLIC "-//W3C//DTD SVG 1.1//EN" "http://www.w3.org/Graphics/SVG/1.1/DTD/svg11.dtd" >
<svg xmlns="http://www.w3.org/2000/svg" xmlns:xlink="http://www.w3.org/1999/xlink" version="1.1" viewBox="-10 -40 468 512">
   <path fill="currentColor"
d="M48 -15q-2 -22 -24 -24q-22 2 -24 24v40v0v287v0v49v0v88v0q2 22 24 24q22 -2 24 -24v-100v0l80 -20v0q64 -15 123 13q69 34 142 8l34 -13v0q20 -9 21 -30v-280v0q-1 -18 -15 -26q-13 -9 -30 -2l-9 5v0q-36 18 -74 18t-73 -18q-55 -26 -114 -12l-85 21v0v-28v0zM48 63
l97 -25l-97 25l97 -25q41 -10 80 9q42 21 87 22q45 2 88 -15v242v0l-24 9v0q-53 19 -104 -6q-75 -36 -155 -17l-69 18v0v-237v0z" />
</svg>
