<?xml version="1.0" standalone="no"?>
<!DOCTYPE svg PUBLIC "-//W3C//DTD SVG 1.1//EN" "http://www.w3.org/Graphics/SVG/1.1/DTD/svg11.dtd" >
<svg xmlns="http://www.w3.org/2000/svg" xmlns:xlink="http://www.w3.org/1999/xlink" version="1.1" viewBox="-10 -40 532 512">
   <path fill="currentColor"
d="M24 -7q-22 2 -24 24v400v0q2 22 24 24q22 -2 24 -24v-400v0q-2 -22 -24 -24v0zM112 -7q-15 1 -16 16v416v0q1 15 16 16q15 -1 16 -16v-416v0q-1 -15 -16 -16v0zM184 -7q-22 2 -24 24v400v0q2 22 24 24q22 -2 24 -24v-400v0q-2 -22 -24 -24v0zM296 -7q-22 2 -24 24v400v0
q2 22 24 24q22 -2 24 -24v-400v0q-2 -22 -24 -24v0zM464 17v400v-400v400q2 22 24 24q22 -2 24 -24v-400v0q-2 -22 -24 -24q-22 2 -24 24v0zM400 9v416v-416v416q1 15 16 16q15 -1 16 -16v-416v0q-1 -15 -16 -16q-15 1 -16 16v0z" />
</svg>
