<?xml version="1.0" standalone="no"?>
<!DOCTYPE svg PUBLIC "-//W3C//DTD SVG 1.1//EN" "http://www.w3.org/Graphics/SVG/1.1/DTD/svg11.dtd" >
<svg xmlns="http://www.w3.org/2000/svg" xmlns:xlink="http://www.w3.org/1999/xlink" version="1.1" viewBox="-10 -40 404 512">
   <path fill="currentColor"
d="M0 9q1 -20 14 -34v0v0q14 -13 34 -14v48v0v393v0l130 -92v0q14 -9 28 0l130 92v0v-393v0h-288v0v-48v0h288v0q20 1 34 14q13 14 14 34v440v0q0 14 -13 21q-13 6 -25 -1l-154 -110v0l-154 110v0q-12 7 -25 1q-12 -7 -13 -21v-440v0z" />
</svg>
