<?xml version="1.0" standalone="no"?>
<!DOCTYPE svg PUBLIC "-//W3C//DTD SVG 1.1//EN" "http://www.w3.org/Graphics/SVG/1.1/DTD/svg11.dtd" >
<svg xmlns="http://www.w3.org/2000/svg" xmlns:xlink="http://www.w3.org/1999/xlink" version="1.1" viewBox="-10 -40 468 512">
   <path fill="currentColor"
d="M246 8q-6 -14 -22 -15q-16 1 -22 15l-157 385v0h-21v0q-22 2 -24 24q2 22 24 24h112v0q22 -2 24 -24q-2 -22 -24 -24h-39v0l32 -80v0h190v0l33 80v0h-40v0q-22 2 -24 24q2 22 24 24h112v0q22 -2 24 -24q-2 -22 -24 -24h-21v0l-157 -385v0zM299 265h-150h150h-150l75 -184
v0l75 184v0z" />
</svg>
