<?xml version="1.0" standalone="no"?>
<!DOCTYPE svg PUBLIC "-//W3C//DTD SVG 1.1//EN" "http://www.w3.org/Graphics/SVG/1.1/DTD/svg11.dtd" >
<svg xmlns="http://www.w3.org/2000/svg" xmlns:xlink="http://www.w3.org/1999/xlink" version="1.1" viewBox="-10 -40 468 512">
   <path fill="currentColor"
d="M0 25q2 -22 24 -24h400v0q22 2 24 24q-2 22 -24 24h-400v0q-22 -2 -24 -24v0zM192 153q2 -22 24 -24h208v0q22 2 24 24q-2 22 -24 24h-208v0q-22 -2 -24 -24v0zM216 257h208h-208h208q22 2 24 24q-2 22 -24 24h-208v0q-22 -2 -24 -24q2 -22 24 -24v0zM0 409q2 -22 24 -24
h400v0q22 2 24 24q-2 22 -24 24h-400v0q-22 -2 -24 -24v0zM7 229q-12 -12 0 -24l95 -78v0q8 -7 17 -3q8 4 9 15v156v0q-1 11 -9 15q-9 4 -17 -2l-95 -79v0z" />
</svg>
