<?xml version="1.0" standalone="no"?>
<!DOCTYPE svg PUBLIC "-//W3C//DTD SVG 1.1//EN" "http://www.w3.org/Graphics/SVG/1.1/DTD/svg11.dtd" >
<svg xmlns="http://www.w3.org/2000/svg" xmlns:xlink="http://www.w3.org/1999/xlink" version="1.1" viewBox="-10 -40 597 512">
   <path fill="currentColor"
d="M288 41q-49 1 -89 20v0v0q-40 18 -71 48q-29 27 -49 56q-19 29 -30 52q11 23 30 52q20 29 49 56q31 30 71 48q40 19 89 20q49 -1 89 -20q40 -18 71 -48q29 -27 49 -56q19 -29 30 -52q-11 -23 -30 -52q-20 -29 -49 -56q-31 -30 -71 -48q-40 -19 -89 -20v0zM95 74
q36 -34 84 -57v0v0q48 -23 109 -24q61 1 109 24t84 57q35 33 58 68t35 63q5 12 0 24q-12 28 -35 63t-58 68q-36 34 -84 57t-109 24q-61 -1 -109 -24t-84 -57q-35 -33 -58 -68t-34 -63q-5 -12 0 -24q11 -28 34 -63t58 -68v0zM288 297q34 -1 57 -23v0v0q22 -23 23 -57
q-1 -34 -23 -57q-23 -22 -57 -23h-1h-1q2 8 2 16q-1 27 -19 45t-45 19q-8 0 -16 -2v1v1q1 34 23 57q23 22 57 23v0zM288 89q35 0 64 17v0v0q29 17 47 47q17 30 17 64t-17 64q-18 30 -47 47t-64 17t-64 -17t-47 -47q-17 -30 -17 -64t17 -64q18 -30 47 -47t64 -17v0z" />
</svg>
