<?xml version="1.0" standalone="no"?>
<!DOCTYPE svg PUBLIC "-//W3C//DTD SVG 1.1//EN" "http://www.w3.org/Graphics/SVG/1.1/DTD/svg11.dtd" >
<svg xmlns="http://www.w3.org/2000/svg" xmlns:xlink="http://www.w3.org/1999/xlink" version="1.1" viewBox="-10 -40 532 512">
   <path fill="currentColor"
d="M124 352q20 -14 44 -6q40 15 88 15q95 -3 151 -50q56 -48 57 -110q-1 -62 -57 -110q-56 -47 -151 -50q-95 3 -151 50q-56 48 -57 110q0 49 36 89q13 15 12 36q-3 27 -12 49q26 -13 40 -23v0zM21 393q3 -4 5 -8q17 -26 22 -63q-47 -52 -48 -121q1 -58 35 -105t92 -75
q57 -27 129 -28q72 1 129 28q58 28 92 75t35 105q-1 58 -35 105t-92 75q-57 27 -129 28q-56 0 -104 -18q-19 14 -54 31q-23 10 -51 16h-1h-1q-6 2 -13 2v0h-1q-7 1 -15 1q-11 0 -15 -10q-3 -10 3 -17q7 -6 12 -14q2 -3 5 -7v0v0v0z" />
</svg>
