<?xml version="1.0" standalone="no"?>
<!DOCTYPE svg PUBLIC "-//W3C//DTD SVG 1.1//EN" "http://www.w3.org/Graphics/SVG/1.1/DTD/svg11.dtd" >
<svg xmlns="http://www.w3.org/2000/svg" xmlns:xlink="http://www.w3.org/1999/xlink" version="1.1" viewBox="-10 -40 532 512">
   <path fill="currentColor"
d="M0 57q1 -27 19 -45v0v0q18 -18 45 -19h132v0q30 0 51 21l43 43v0h158v0q27 1 45 19t19 45v256v0q-1 27 -19 45t-45 19h-384v0q-27 -1 -45 -19t-19 -45v-320v0zM64 41q-15 1 -16 16v320v0q1 15 16 16h384v0q15 -1 16 -16v-256v0q-1 -15 -16 -16h-161v0q-17 0 -29 -12
l-45 -45v0q-7 -7 -17 -7h-132v0z" />
</svg>
