<?xml version="1.0" standalone="no"?>
<!DOCTYPE svg PUBLIC "-//W3C//DTD SVG 1.1//EN" "http://www.w3.org/Graphics/SVG/1.1/DTD/svg11.dtd" >
<svg xmlns="http://www.w3.org/2000/svg" xmlns:xlink="http://www.w3.org/1999/xlink" version="1.1" viewBox="-10 -40 532 512">
   <path fill="currentColor"
d="M24 -7q22 2 24 24v352v0q2 22 24 24h416v0q22 2 24 24q-2 22 -24 24h-416v0q-31 -1 -51 -21t-21 -51v-352v0q2 -22 24 -24v0zM128 97q2 -22 24 -24h208v0q22 2 24 24q-2 22 -24 24h-208v0q-22 -2 -24 -24v0zM152 169h144h-144h144q22 2 24 24q-2 22 -24 24h-144v0
q-22 -2 -24 -24q2 -22 24 -24v0zM152 265h272h-272h272q22 2 24 24q-2 22 -24 24h-272v0q-22 -2 -24 -24q2 -22 24 -24v0z" />
</svg>
