<?xml version="1.0" standalone="no"?>
<!DOCTYPE svg PUBLIC "-//W3C//DTD SVG 1.1//EN" "http://www.w3.org/Graphics/SVG/1.1/DTD/svg11.dtd" >
<svg xmlns="http://www.w3.org/2000/svg" xmlns:xlink="http://www.w3.org/1999/xlink" version="1.1" viewBox="-10 -40 532 512">
   <path fill="currentColor"
d="M192 73h-128h128h-128q-15 1 -16 16v64v0h108v0q37 -46 100 -48q63 2 100 48h108v0v-96v0q-1 -15 -16 -16h-177v0q-4 0 -7 2l-51 25v0q-10 5 -21 5v0zM48 201v176v-176v176q1 15 16 16h384v0q15 -1 16 -16v-176v0h-84v0q4 15 4 32q-1 54 -37 91q-37 36 -91 37
q-54 -1 -91 -37q-36 -37 -37 -91q0 -17 4 -32h-84v0zM0 377v-288v288v-288q1 -27 19 -45t45 -19v-16v0q1 -15 16 -16h64v0q15 1 16 16v16v0h32v0l51 -25v0q13 -7 28 -7h177v0q27 1 45 19t19 45v320v0q-1 27 -19 45t-45 19h-384v0q-27 -1 -45 -19t-19 -45v0zM336 233
q-1 -45 -40 -69q-40 -22 -80 0q-39 24 -40 69q1 45 40 69q40 22 80 0q39 -24 40 -69v0z" />
</svg>
