<?xml version="1.0" standalone="no"?>
<!DOCTYPE svg PUBLIC "-//W3C//DTD SVG 1.1//EN" "http://www.w3.org/Graphics/SVG/1.1/DTD/svg11.dtd" >
<svg xmlns="http://www.w3.org/2000/svg" xmlns:xlink="http://www.w3.org/1999/xlink" version="1.1" viewBox="-10 -40 468 512">
   <path fill="currentColor"
d="M368 41q-5 0 -9 1q-14 5 -34 7q-19 2 -40 -3q-44 -11 -90 4t-85 53q-38 39 -53 85t-4 90q5 21 3 40q-2 20 -7 34q-1 4 -1 9q0 14 9 23t23 9q5 0 9 -1q14 -5 34 -7q19 -2 40 3q44 11 90 -4t85 -53q38 -39 53 -85t4 -90q-5 -21 -3 -40q2 -20 7 -34q1 -4 1 -9q0 -14 -9 -23
t-23 -9v0zM368 -7q34 1 57 23v0v0q22 23 23 57q0 12 -3 22q-8 25 -3 49q14 59 -5 117q-20 59 -65 104t-104 65q-58 19 -117 5q-24 -5 -49 3q-10 3 -22 3q-34 -1 -57 -23q-22 -23 -23 -57q0 -12 3 -22q8 -25 3 -49q-14 -59 5 -117q20 -58 65 -104q46 -45 104 -65
q58 -19 117 -5q24 5 49 -3q10 -3 22 -3v0zM247 128q-40 12 -70 42v0v0q-30 30 -42 70q-8 20 -30 16q-20 -8 -16 -30q16 -51 54 -90q39 -38 90 -54q22 -4 30 16q4 22 -16 30v0z" />
</svg>
