<?xml version="1.0" standalone="no"?>
<!DOCTYPE svg PUBLIC "-//W3C//DTD SVG 1.1//EN" "http://www.w3.org/Graphics/SVG/1.1/DTD/svg11.dtd" >
<svg xmlns="http://www.w3.org/2000/svg" xmlns:xlink="http://www.w3.org/1999/xlink" version="1.1" viewBox="-10 -40 468 512">
   <path fill="currentColor"
d="M0 17q2 -22 24 -24q118 1 214 58q96 56 152 152q57 96 58 214q-2 22 -24 24q-22 -2 -24 -24q-1 -105 -51 -190t-135 -135t-190 -51q-22 -2 -24 -24v0zM64 393q15 -1 16 -16q-1 -15 -16 -16q-15 1 -16 16q1 15 16 16v0zM64 313q36 1 55 32q18 32 0 64q-19 31 -55 32
q-36 -1 -55 -32q-18 -32 0 -64q19 -31 55 -32v0zM24 137q78 1 141 38v0v0q63 38 101 101v0v0q37 63 38 141q-2 22 -24 24q-22 -2 -24 -24q-1 -65 -32 -117t-83 -83t-117 -32q-22 -2 -24 -24q2 -22 24 -24v0z" />
</svg>
