<?xml version="1.0" standalone="no"?>
<!DOCTYPE svg PUBLIC "-//W3C//DTD SVG 1.1//EN" "http://www.w3.org/Graphics/SVG/1.1/DTD/svg11.dtd" >
<svg xmlns="http://www.w3.org/2000/svg" xmlns:xlink="http://www.w3.org/1999/xlink" version="1.1" viewBox="-10 -40 532 512">
   <path fill="currentColor"
d="M64 41q-15 1 -16 16v162v0q8 -2 16 -2h384v0q8 0 16 2v-162v0q-1 -15 -16 -16h-384v0zM48 281v96v-96v96q1 15 16 16h384v0q15 -1 16 -16v-96v0q-1 -15 -16 -16h-384v0q-15 1 -16 16v0zM0 281v-224v224v-224q1 -27 19 -45t45 -19h384v0q27 1 45 19t19 45v224v0v96v0
q-1 27 -19 45t-45 19h-384v0q-27 -1 -45 -19t-19 -45v-96v0zM280 329q2 -22 24 -24q22 2 24 24q-2 22 -24 24q-22 -2 -24 -24v0zM400 305q22 2 24 24q-2 22 -24 24q-22 -2 -24 -24q2 -22 24 -24v0z" />
</svg>
