<?xml version="1.0" standalone="no"?>
<!DOCTYPE svg PUBLIC "-//W3C//DTD SVG 1.1//EN" "http://www.w3.org/Graphics/SVG/1.1/DTD/svg11.dtd" >
<svg xmlns="http://www.w3.org/2000/svg" xmlns:xlink="http://www.w3.org/1999/xlink" version="1.1" viewBox="-10 -40 532 512">
   <path fill="currentColor"
d="M448 89h-178h178h-178q2 8 2 16v16v0h32h144q15 -1 16 -16q-1 -15 -16 -16v0zM224 105q0 -14 -9 -23v0v0q-9 -9 -23 -9v0v0h-24v0q-51 1 -85 35t-35 85v48v0q1 40 23 70q22 31 58 43q-1 -4 -1 -9q1 -31 24 -50q-8 -13 -8 -30q0 -23 14 -40q-14 -17 -14 -40v-40v0
q2 -22 24 -24q22 2 24 24v40v0q1 15 16 16q15 -1 16 -16v-40v0v-40v0zM192 25v0v0v0v0q27 1 48 16h208v0q27 1 45 19t19 45q-1 27 -19 45t-45 19h-82v0q2 8 2 16q-2 40 -36 58q4 10 4 22q-1 31 -24 50q8 13 8 30q-1 27 -19 45t-45 19h-64h-24q-71 -2 -119 -49
q-47 -48 -49 -119v-48v0q2 -71 49 -119q48 -47 119 -49h24v0zM256 361q15 -1 16 -16q-1 -15 -16 -16h-48h-16q-15 1 -16 16q1 15 16 16h64v0zM272 185q0 8 -2 16h2h32q15 -1 16 -16q-1 -15 -16 -16h-32v0v16v0zM248 249h-40h40h-40q-15 1 -16 16q1 15 16 16h48h16
q15 -1 16 -16q-1 -15 -16 -16h-24v0z" />
</svg>
