<?xml version="1.0" standalone="no"?>
<!DOCTYPE svg PUBLIC "-//W3C//DTD SVG 1.1//EN" "http://www.w3.org/Graphics/SVG/1.1/DTD/svg11.dtd" >
<svg xmlns="http://www.w3.org/2000/svg" xmlns:xlink="http://www.w3.org/1999/xlink" version="1.1" viewBox="-10 -40 532 512">
   <path fill="currentColor"
d="M0 35q0 -18 12 -30v0v0q12 -12 30 -12h428v0q18 0 30 12t12 30q0 14 -9 26l-167 205v0v143v0q0 13 -9 23q-10 9 -23 9q-12 0 -20 -7l-93 -73v0q-15 -13 -15 -32v-63v0l-167 -205v0q-9 -11 -9 -26v0zM55 41l164 201l-164 -201l164 201q5 6 5 15v68v0l64 51v0v-119v0
q0 -8 5 -15l164 -201v0h-402v0z" />
</svg>
