<?xml version="1.0" standalone="no"?>
<!DOCTYPE svg PUBLIC "-//W3C//DTD SVG 1.1//EN" "http://www.w3.org/Graphics/SVG/1.1/DTD/svg11.dtd" >
<svg xmlns="http://www.w3.org/2000/svg" xmlns:xlink="http://www.w3.org/1999/xlink" version="1.1" viewBox="-10 -40 532 512">
   <path fill="currentColor"
d="M256 17l34 40l-34 -40l34 40h-67v0l33 -40v0zM230 -27l-62 74l62 -74l-62 74q-8 10 -8 23q0 15 10 25t25 10h37v0v88v0h-88v0v-37v0q0 -15 -10 -25t-25 -10q-13 0 -23 8l-74 62v0q-12 10 -12 26t12 26l74 62v0q10 8 23 8q15 0 25 -10t10 -25v-37v0h88v0v88v0h-37v0
q-15 0 -25 10t-10 25q0 13 8 23l62 74v0q10 12 26 12t26 -12l62 -74v0q8 -10 8 -23q0 -15 -10 -25t-25 -10h-37v0v-88v0h88v0v37v0q0 15 10 25t25 10q13 0 23 -8l74 -62v0q12 -10 12 -26t-12 -26l-74 -62v0q-10 -8 -23 -8q-15 0 -25 10t-10 25v37v0h-88v0v-88v0h37v0
q15 0 25 -10t10 -25q0 -13 -8 -23l-62 -74v0q-10 -12 -26 -12t-26 12v0zM256 417l-33 -40l33 40l-33 -40h67v0l-34 40v0zM456 217l-40 34l40 -34l-40 34v-67v0l40 33v0zM96 251l-40 -34l40 34l-40 -34l40 -33v0v67v0z" />
</svg>
