<?xml version="1.0" standalone="no"?>
<!DOCTYPE svg PUBLIC "-//W3C//DTD SVG 1.1//EN" "http://www.w3.org/Graphics/SVG/1.1/DTD/svg11.dtd" >
<svg xmlns="http://www.w3.org/2000/svg" xmlns:xlink="http://www.w3.org/1999/xlink" version="1.1" viewBox="-10 -40 660 512">
   <path fill="currentColor"
d="M144 121q45 -1 69 -40q22 -40 0 -80q-24 -39 -69 -40q-45 1 -69 40q-22 40 0 80q24 39 69 40v0zM512 121q45 -1 69 -40q22 -40 0 -80q-24 -39 -69 -40q-45 1 -69 40q-22 40 0 80q24 39 69 40v0zM0 260q2 19 21 21h214v0v0v0q-41 -37 -43 -96q0 -11 2 -22q-21 -10 -45 -10
h-42v0q-46 1 -76 31t-31 76v0zM405 281h214h-214h214q19 -2 21 -21q-1 -46 -31 -76t-76 -31h-42v0q-24 0 -45 10q2 11 2 22q-2 59 -43 96v0v0v0zM320 137q27 1 42 24q12 24 0 48q-15 23 -42 24q-27 -1 -42 -24q-12 -24 0 -48q15 -23 42 -24v0zM320 281q26 0 48 -13v0v0
q22 -13 35 -35q13 -23 13 -48t-13 -48q-13 -22 -35 -35t-48 -13t-48 13t-35 35q-13 23 -13 48t13 48q13 22 35 35t48 13v0zM261 361h118h-118h118q30 1 52 18q23 18 30 46h-282v0q7 -28 30 -46q22 -17 52 -18v0zM261 313q-56 1 -94 39v0v0q-38 38 -39 94q2 25 27 27h330v0
q25 -2 27 -27q-1 -56 -39 -94t-94 -39h-118v0z" />
</svg>
