<?xml version="1.0" standalone="no"?>
<!DOCTYPE svg PUBLIC "-//W3C//DTD SVG 1.1//EN" "http://www.w3.org/Graphics/SVG/1.1/DTD/svg11.dtd" >
<svg xmlns="http://www.w3.org/2000/svg" xmlns:xlink="http://www.w3.org/1999/xlink" version="1.1" viewBox="-10 -40 468 512">
   <path fill="currentColor"
d="M0 49q2 -22 24 -24h400v0q22 2 24 24q-2 22 -24 24h-400v0q-22 -2 -24 -24v0zM0 209q2 -22 24 -24h400v0q22 2 24 24q-2 22 -24 24h-400v0q-22 -2 -24 -24v0zM448 369q-2 22 -24 24h-400v0q-22 -2 -24 -24q2 -22 24 -24h400v0q22 2 24 24v0z" />
</svg>
