<?xml version="1.0" standalone="no"?>
<!DOCTYPE svg PUBLIC "-//W3C//DTD SVG 1.1//EN" "http://www.w3.org/Graphics/SVG/1.1/DTD/svg11.dtd" >
<svg xmlns="http://www.w3.org/2000/svg" xmlns:xlink="http://www.w3.org/1999/xlink" version="1.1" viewBox="-10 -40 532 512">
   <path fill="currentColor"
d="M48 377v-256v256v-256h184v0v272v0h-168v0q-15 -1 -16 -16v0zM280 393v-272v272v-272h184v0v256v0q-1 15 -16 16h-168v0zM64 -7q-27 1 -45 19v0v0q-18 18 -19 45v320v0q1 27 19 45t45 19h384v0q27 -1 45 -19t19 -45v-320v0q-1 -27 -19 -45t-45 -19h-384v0z" />
</svg>
