<?xml version="1.0" standalone="no"?>
<!DOCTYPE svg PUBLIC "-//W3C//DTD SVG 1.1//EN" "http://www.w3.org/Graphics/SVG/1.1/DTD/svg11.dtd" >
<svg xmlns="http://www.w3.org/2000/svg" xmlns:xlink="http://www.w3.org/1999/xlink" version="1.1" viewBox="-10 -40 404 512">
   <path fill="currentColor"
d="M64 9q-15 1 -16 16v384v0q1 15 16 16h80v0v-64v0q1 -20 14 -34q14 -13 34 -14q20 1 34 14q13 14 14 34v64v0h80v0q15 -1 16 -16v-384v0q-1 -15 -16 -16h-256v0zM0 25q1 -27 19 -45v0v0q18 -18 45 -19h256v0q27 1 45 19t19 45v384v0q-1 27 -19 45t-45 19h-256v0
q-27 -1 -45 -19t-19 -45v-384v0zM88 65q1 -15 16 -16h48v0q15 1 16 16v48v0q-1 15 -16 16h-48v0q-15 -1 -16 -16v-48v0zM232 49h48h-48h48q15 1 16 16v48v0q-1 15 -16 16h-48v0q-15 -1 -16 -16v-48v0q1 -15 16 -16v0zM88 193q1 -15 16 -16h48v0q15 1 16 16v48v0
q-1 15 -16 16h-48v0q-15 -1 -16 -16v-48v0zM232 177h48h-48h48q15 1 16 16v48v0q-1 15 -16 16h-48v0q-15 -1 -16 -16v-48v0q1 -15 16 -16v0z" />
</svg>
