<?xml version="1.0" standalone="no"?>
<!DOCTYPE svg PUBLIC "-//W3C//DTD SVG 1.1//EN" "http://www.w3.org/Graphics/SVG/1.1/DTD/svg11.dtd" >
<svg xmlns="http://www.w3.org/2000/svg" xmlns:xlink="http://www.w3.org/1999/xlink" version="1.1" viewBox="-10 -40 394 512">
   <path fill="currentColor"
d="M80 9q-15 1 -16 16v384v0q1 15 16 16h224v0q15 -1 16 -16v-384v0q-1 -15 -16 -16h-224v0zM16 25q1 -27 19 -45v0v0q18 -18 45 -19h224v0q27 1 45 19t19 45v384v0q-1 27 -19 45t-45 19h-224v0q-27 -1 -45 -19t-19 -45v-384v0zM192 353q22 2 24 24q-2 22 -24 24
q-22 -2 -24 -24q2 -22 24 -24v0z" />
</svg>
