<?xml version="1.0" standalone="no"?>
<!DOCTYPE svg PUBLIC "-//W3C//DTD SVG 1.1//EN" "http://www.w3.org/Graphics/SVG/1.1/DTD/svg11.dtd" >
<svg xmlns="http://www.w3.org/2000/svg" xmlns:xlink="http://www.w3.org/1999/xlink" version="1.1" viewBox="-10 -40 468 512">
   <path fill="currentColor"
d="M80 73q14 0 23 -9v0v0q9 -9 9 -23t-9 -23t-23 -9t-23 9t-9 23t9 23t23 9v0zM160 41q0 27 -16 48v0v0q-15 20 -40 28v100v0q31 -23 72 -24h96v0q31 -1 51 -21t21 -51v-4v0q-25 -8 -40 -28q-16 -21 -16 -48q1 -34 23 -57q23 -22 57 -23q34 1 57 23q22 23 23 57q0 27 -16 48
q-15 20 -40 28v4v0q-1 51 -35 85t-85 35h-96v0q-31 1 -51 21t-21 51v4v0q25 8 40 28q16 21 16 48q-1 34 -23 57q-23 22 -57 23q-34 -1 -57 -23q-22 -23 -23 -57q0 -27 16 -48q15 -20 40 -28v-4v0v-196v0q-25 -8 -40 -28q-16 -21 -16 -48q1 -34 23 -57q23 -22 57 -23
q34 1 57 23q22 23 23 57v0zM400 41q0 -14 -9 -23v0v0q-9 -9 -23 -9t-23 9t-9 23t9 23t23 9t23 -9t9 -23v0zM80 425q14 0 23 -9v0v0q9 -9 9 -23t-9 -23t-23 -9t-23 9t-9 23t9 23t23 9v0z" />
</svg>
