<?xml version="1.0" standalone="no"?>
<!DOCTYPE svg PUBLIC "-//W3C//DTD SVG 1.1//EN" "http://www.w3.org/Graphics/SVG/1.1/DTD/svg11.dtd" >
<svg xmlns="http://www.w3.org/2000/svg" xmlns:xlink="http://www.w3.org/1999/xlink" version="1.1" viewBox="-10 -40 586 512">
   <path fill="currentColor"
d="M97 280q-14 17 0 34l72 72v0q7 7 17 7h108v0q10 0 17 -7l65 -65v0l-160 -160v0l-119 119v0zM285 24q22 -21 51 -21v0v0q29 0 51 21l126 126v0q21 22 21 51t-21 51l-141 141v0h148v0q22 2 24 24q-2 22 -24 24h-224v0v0v0h-1h-1h-108v0q-30 0 -51 -21l-72 -72v0
q-21 -22 -21 -51t21 -51l222 -222v0z" />
</svg>
