<?xml version="1.0" standalone="no"?>
<!DOCTYPE svg PUBLIC "-//W3C//DTD SVG 1.1//EN" "http://www.w3.org/Graphics/SVG/1.1/DTD/svg11.dtd" >
<svg xmlns="http://www.w3.org/2000/svg" xmlns:xlink="http://www.w3.org/1999/xlink" version="1.1" viewBox="-10 -40 532 512">
   <path fill="currentColor"
d="M500 -32q12 10 12 25v96v0q0 15 -12 25q-12 9 -26 6l-160 -32v0q-20 -4 -25 -23h-89v0v27v0q39 9 63 38q24 30 25 71v208v0q-1 27 -19 45t-45 19h-96v0q-27 -1 -45 -19t-19 -45v-208v0q1 -41 25 -71q24 -29 63 -38v-26v0q-36 4 -63 24q-28 21 -43 52q-12 18 -32 11
q-19 -12 -11 -32q21 -44 60 -71t89 -32v-33v0q2 -22 24 -24q22 2 24 24v32v0h89v0q5 -19 25 -23l160 -32v0q14 -3 26 6v0zM112 377v32v-32v32q1 15 16 16h96v0q15 -1 16 -16v-32v0h-128v0zM112 329h128h-128h128v-128v0q-1 -27 -19 -45t-45 -19q-27 1 -45 19t-19 45v128v0z
" />
</svg>
