<?xml version="1.0" standalone="no"?>
<!DOCTYPE svg PUBLIC "-//W3C//DTD SVG 1.1//EN" "http://www.w3.org/Graphics/SVG/1.1/DTD/svg11.dtd" >
<svg xmlns="http://www.w3.org/2000/svg" xmlns:xlink="http://www.w3.org/1999/xlink" version="1.1" viewBox="-10 -40 468 512">
   <path fill="currentColor"
d="M224 9q-34 1 -57 23v0v0q-22 23 -23 57v64v0h240v0q27 1 45 19t19 45v192v0q-1 27 -19 45t-45 19h-320v0q-27 -1 -45 -19t-19 -45v-192v0q1 -27 19 -45t45 -19h32v0v-64v0q1 -54 37 -91q37 -36 91 -37q43 1 76 25t46 64q5 21 -16 30q-21 5 -30 -16q-8 -24 -28 -39
q-21 -16 -48 -16v0zM64 201q-15 1 -16 16v192v0q1 15 16 16h320v0q15 -1 16 -16v-192v0q-1 -15 -16 -16h-320v0zM256 337h-64h64h-64q-22 -2 -24 -24q2 -22 24 -24h64v0q22 2 24 24q-2 22 -24 24v0z" />
</svg>
