<?xml version="1.0" standalone="no"?>
<!DOCTYPE svg PUBLIC "-//W3C//DTD SVG 1.1//EN" "http://www.w3.org/Graphics/SVG/1.1/DTD/svg11.dtd" >
<svg xmlns="http://www.w3.org/2000/svg" xmlns:xlink="http://www.w3.org/1999/xlink" version="1.1" viewBox="-10 -40 468 512">
   <path fill="currentColor"
d="M64 41q-15 1 -16 16v320v0q1 15 16 16h320v0q15 -1 16 -16v-320v0q-1 -15 -16 -16h-320v0zM0 57q1 -27 19 -45v0v0q18 -18 45 -19h320v0q27 1 45 19t19 45v320v0q-1 27 -19 45t-45 19h-320v0q-27 -1 -45 -19t-19 -45v-320v0zM217 217l-121 -67l121 67l-121 -67
q1 -12 10 -20q9 -9 22 -9h192v0q13 0 22 9q9 8 10 20l-121 67v0q-3 1 -7 2q-4 0 -7 -2v0zM247 245l105 -58l-105 58l105 -58v94v0q0 14 -9 23t-23 9h-192v0q-14 0 -23 -9t-9 -23v-94v0l105 58v0q11 5 23 5t23 -5v0z" />
</svg>
