<?xml version="1.0" standalone="no"?>
<!DOCTYPE svg PUBLIC "-//W3C//DTD SVG 1.1//EN" "http://www.w3.org/Graphics/SVG/1.1/DTD/svg11.dtd" >
<svg xmlns="http://www.w3.org/2000/svg" xmlns:xlink="http://www.w3.org/1999/xlink" version="1.1" viewBox="-11 0 533 512">
   <path fill="currentColor"
d="M194 151q-25 7 -49 -9v0v0q-24 -17 -36 -50q-10 -33 -1 -60q10 -28 34 -37q25 -7 49 10q24 16 36 49q10 33 1 60q-10 28 -34 37v0zM412 160q15 -25 37 -34v0v0q22 -10 41 0q19 12 21 35q3 24 -11 49q-15 25 -37 34q-22 10 -41 0q-19 -12 -22 -35q-2 -24 12 -49v0z
M100 160q14 25 11 49v0v0q-2 23 -21 35q-19 10 -41 0q-22 -9 -37 -34q-14 -25 -12 -49q3 -23 22 -35q19 -10 41 0q22 9 37 34v0zM278 54q11 -33 35 -49v0v0q24 -17 49 -10q24 9 34 37q9 27 -1 60q-12 33 -36 50q-24 16 -49 9q-24 -9 -34 -37q-9 -27 2 -60v0zM114 371
q-2 5 -2 14q1 7 8 8h4v0q3 0 6 -1l73 -29v0q53 -21 107 0l72 29v0q3 1 7 1h3v0q7 -1 8 -8q0 -9 -2 -14q-24 -61 -53 -90q-29 -30 -53 -39q-25 -10 -36 -9q-11 -1 -36 9q-24 9 -53 39q-29 29 -53 90v0zM69 354q27 -70 63 -106v0v0q35 -37 69 -50v0v0q34 -14 55 -13
q21 -1 55 13q34 13 69 50q36 36 63 106q5 15 5 31q-1 24 -16 40q-16 15 -40 16h-3v0q-13 0 -25 -5l-72 -29v0q-36 -13 -72 0l-72 29v0q-12 5 -25 5h-3v0q-24 0 -40 -16t-16 -40q0 -16 5 -31v0z" />
</svg>
