<?xml version="1.0" standalone="no"?>
<!DOCTYPE svg PUBLIC "-//W3C//DTD SVG 1.1//EN" "http://www.w3.org/Graphics/SVG/1.1/DTD/svg11.dtd" >
<svg xmlns="http://www.w3.org/2000/svg" xmlns:xlink="http://www.w3.org/1999/xlink" version="1.1" viewBox="-10 -40 404 512">
   <path fill="currentColor"
d="M64 425q-15 -1 -16 -16v-384v0q1 -15 16 -16h160v0v80v0q0 14 9 23t23 9h80v0v288v0q-1 15 -16 16h-256v0zM64 -39q-27 1 -45 19v0v0q-18 18 -19 45v384v0q1 27 19 45t45 19h256v0q27 -1 45 -19t19 -45v-293v0q0 -27 -19 -46l-90 -90v0q-19 -19 -45 -19h-166v0zM160 217
q0 -14 -9 -23v0v0q-9 -9 -23 -9t-23 9t-9 23t9 23t23 9t23 -9t9 -23v0zM229 264q-5 -7 -13 -7t-13 7l-41 60v0l-12 -19v0q-5 -8 -14 -8t-14 8l-40 64v0q-4 7 0 16q5 8 14 8h48h144q9 0 14 -9q4 -8 -1 -16l-72 -104v0z" />
</svg>
