<?xml version="1.0" standalone="no"?>
<!DOCTYPE svg PUBLIC "-//W3C//DTD SVG 1.1//EN" "http://www.w3.org/Graphics/SVG/1.1/DTD/svg11.dtd" >
<svg xmlns="http://www.w3.org/2000/svg" xmlns:xlink="http://www.w3.org/1999/xlink" version="1.1" viewBox="-10 -40 404 512">
   <path fill="currentColor"
d="M320 425q15 -1 16 -16v-288v0h-80v0q-14 0 -23 -9t-9 -23v-80v0h-160v0q-15 1 -16 16v384v0q1 15 16 16h256v0zM0 25q1 -27 19 -45v0v0q18 -18 45 -19h166v0q26 0 45 19l90 90v0q19 19 19 46v293v0q-1 27 -19 45t-45 19h-256v0q-27 -1 -45 -19t-19 -45v-384v0zM80 249
q0 -14 9 -23v0v0q9 -9 23 -9h96v0q14 0 23 9t9 23v16v0l45 -30v0q3 -2 7 -2q11 1 12 12v104v0q-1 11 -12 12q-4 0 -7 -2l-45 -30v0v16v0q0 14 -9 23t-23 9h-96v0q-14 0 -23 -9t-9 -23v-96v0z" />
</svg>
