<?xml version="1.0" standalone="no"?>
<!DOCTYPE svg PUBLIC "-//W3C//DTD SVG 1.1//EN" "http://www.w3.org/Graphics/SVG/1.1/DTD/svg11.dtd" >
<svg xmlns="http://www.w3.org/2000/svg" xmlns:xlink="http://www.w3.org/1999/xlink" version="1.1" viewBox="-10 -40 532 512">
   <path fill="currentColor"
d="M215 -13q4 22 -16 30q-67 20 -108 74q-42 54 -43 126q2 88 61 147t147 61q88 -2 147 -61t61 -147q-1 -72 -43 -126q-41 -54 -108 -74q-20 -8 -16 -30q8 -20 30 -16q81 24 132 91q51 66 53 155q-1 72 -35 129q-34 58 -92 92q-57 34 -129 35q-72 -1 -129 -35
q-58 -34 -92 -92q-34 -57 -35 -129q2 -89 53 -155q51 -67 132 -91q22 -4 30 16v0z" />
</svg>
