<?xml version="1.0" standalone="no"?>
<!DOCTYPE svg PUBLIC "-//W3C//DTD SVG 1.1//EN" "http://www.w3.org/Graphics/SVG/1.1/DTD/svg11.dtd" >
<svg xmlns="http://www.w3.org/2000/svg" xmlns:xlink="http://www.w3.org/1999/xlink" version="1.1" viewBox="-11 0 534 512">
   <path fill="currentColor"
d="M16 221q-17 11 -16 30v0v0q2 19 20 28l140 58v0v103v0q0 14 10 23q9 10 23 10q15 0 25 -12l62 -74v0l124 52v0q15 5 28 -2q13 -8 16 -23l64 -416v0q2 -20 -14 -31t-34 -2l-448 256v0zM68 247l342 -195l-342 195l342 -195l-220 245v0l1 1v0l-123 -51v0zM403 386l-166 -69
l166 69l-166 -69l214 -239v0l-48 308v0z" />
</svg>
