<?xml version="1.0" standalone="no"?>
<!DOCTYPE svg PUBLIC "-//W3C//DTD SVG 1.1//EN" "http://www.w3.org/Graphics/SVG/1.1/DTD/svg11.dtd" >
<svg xmlns="http://www.w3.org/2000/svg" xmlns:xlink="http://www.w3.org/1999/xlink" version="1.1" viewBox="-10 -40 468 512">
   <path fill="currentColor"
d="M64 41q-15 1 -16 16v320v0q1 15 16 16h320v0q15 -1 16 -16v-320v0q-1 -15 -16 -16h-320v0zM0 57q1 -27 19 -45v0v0q18 -18 45 -19h320v0q27 1 45 19t19 45v320v0q-1 27 -19 45t-45 19h-320v0q-27 -1 -45 -19t-19 -45v-320v0zM352 137q-1 20 -14 34v0v0q-14 13 -34 14
q-15 0 -26 -8l-80 40v0l80 40v0q11 -8 26 -8q20 1 34 14q14 14 14 34t-14 34q-14 13 -34 14q-19 0 -33 -13q-13 -13 -15 -32l-85 -43v0q-12 8 -27 8q-20 -1 -34 -14q-13 -14 -14 -34q1 -20 14 -34q14 -13 34 -14q15 0 27 8l85 -43v0q2 -19 15 -32t33 -13q20 1 34 14
q13 14 14 34v0z" />
</svg>
