<?xml version="1.0" standalone="no"?>
<!DOCTYPE svg PUBLIC "-//W3C//DTD SVG 1.1//EN" "http://www.w3.org/Graphics/SVG/1.1/DTD/svg11.dtd" >
<svg xmlns="http://www.w3.org/2000/svg" xmlns:xlink="http://www.w3.org/1999/xlink" version="1.1" viewBox="-10 -40 533 512">
   <path fill="currentColor"
d="M370 150v26v-26v26l77 17v0l15 -54v0q3 -16 -2 -19q-30 -28 -82 -53q-52 -24 -122 -26q-70 2 -122 26q-52 25 -82 53q-5 2 -2 19l15 53v0l77 -16v0v-26v0q1 -32 30 -45q84 -33 168 0q29 13 30 45v0zM322 176v-26v26v-26q-66 -26 -132 0v26v0q0 17 -11 30q-10 13 -27 17
l-76 16v0q-19 4 -35 -5t-22 -28l-15 -53v0q-12 -40 16 -69q34 -32 94 -61q60 -28 142 -30q82 2 142 30q60 29 94 61q28 29 17 69l-16 53v0q-6 19 -22 28t-35 5l-76 -16v0q-17 -4 -27 -17q-11 -13 -11 -30v0zM32 297q1 -15 16 -16h32v0q15 1 16 16v32v0q-1 15 -16 16h-32v0
q-15 -1 -16 -16v-32v0zM32 393q1 -15 16 -16h32v0q15 1 16 16v32v0q-1 15 -16 16h-32v0q-15 -1 -16 -16v-32v0zM144 281h32h-32h32q15 1 16 16v32v0q-1 15 -16 16h-32v0q-15 -1 -16 -16v-32v0q1 -15 16 -16v0zM224 297q1 -15 16 -16h32v0q15 1 16 16v32v0q-1 15 -16 16h-32
v0q-15 -1 -16 -16v-32v0zM336 281h32h-32h32q15 1 16 16v32v0q-1 15 -16 16h-32v0q-15 -1 -16 -16v-32v0q1 -15 16 -16v0zM416 297q1 -15 16 -16h32v0q15 1 16 16v32v0q-1 15 -16 16h-32v0q-15 -1 -16 -16v-32v0zM432 377h32h-32h32q15 1 16 16v32v0q-1 15 -16 16h-32v0
q-15 -1 -16 -16v-32v0q1 -15 16 -16v0zM128 393q1 -15 16 -16h224v0q15 1 16 16v32v0q-1 15 -16 16h-224v0q-15 -1 -16 -16v-32v0z" />
</svg>
