<?xml version="1.0" standalone="no"?>
<!DOCTYPE svg PUBLIC "-//W3C//DTD SVG 1.1//EN" "http://www.w3.org/Graphics/SVG/1.1/DTD/svg11.dtd" >
<svg xmlns="http://www.w3.org/2000/svg" xmlns:xlink="http://www.w3.org/1999/xlink" version="1.1" viewBox="-11 0 662 512">
   <path fill="currentColor"
d="M40 147q56 -50 128 -78v0v0q71 -28 152 -28t152 28q72 28 128 78q18 13 34 -2q13 -18 -2 -34q-63 -56 -142 -87q-80 -31 -170 -31t-170 31q-79 31 -142 87q-15 16 -2 34q16 15 34 2v0zM320 217q99 2 168 65q17 14 34 -1q13 -18 -2 -34q-40 -37 -91 -57q-51 -21 -109 -21
t-109 21q-51 20 -91 57q-15 16 -2 34q17 15 34 1q69 -63 168 -65v0zM376 385q-1 -32 -28 -48q-28 -16 -56 0q-27 16 -28 48q1 32 28 48q28 16 56 0q27 -16 28 -48v0z" />
</svg>
