<?xml version="1.0" standalone="no"?>
<!DOCTYPE svg PUBLIC "-//W3C//DTD SVG 1.1//EN" "http://www.w3.org/Graphics/SVG/1.1/DTD/svg11.dtd" >
<svg xmlns="http://www.w3.org/2000/svg" xmlns:xlink="http://www.w3.org/1999/xlink" version="1.1" viewBox="-10 -40 404 512">
   <path fill="currentColor"
d="M336 137v272v-272v272q-1 15 -16 16h-256v0q-15 -1 -16 -16v-272v0h288v0zM336 89h-288h288h-288v-64v0q1 -15 16 -16h256v0q15 1 16 16v64v0zM384 89v-64v64v-64q-1 -27 -19 -45t-45 -19h-256v0q-27 1 -45 19t-19 45v64v0v24v0v24v0v272v0q1 27 19 45t45 19h256v0
q27 -1 45 -19t19 -45v-272v0v-24v0v-24v0zM80 193q2 22 24 24q22 -2 24 -24q-2 -22 -24 -24q-22 2 -24 24v0zM104 257q-22 2 -24 24q2 22 24 24q22 -2 24 -24q-2 -22 -24 -24v0zM80 369q2 22 24 24h88v0q22 -2 24 -24q-2 -22 -24 -24h-88v0q-22 2 -24 24v0zM192 169
q-22 2 -24 24q2 22 24 24q22 -2 24 -24q-2 -22 -24 -24v0zM168 281q2 22 24 24q22 -2 24 -24q-2 -22 -24 -24q-22 2 -24 24v0zM280 169q-22 2 -24 24q2 22 24 24q22 -2 24 -24q-2 -22 -24 -24v0zM256 281q2 22 24 24q22 -2 24 -24q-2 -22 -24 -24q-22 2 -24 24v0zM280 345
q-22 2 -24 24q2 22 24 24q22 -2 24 -24q-2 -22 -24 -24v0z" />
</svg>
