<?xml version="1.0" standalone="no"?>
<!DOCTYPE svg PUBLIC "-//W3C//DTD SVG 1.1//EN" "http://www.w3.org/Graphics/SVG/1.1/DTD/svg11.dtd" >
<svg xmlns="http://www.w3.org/2000/svg" xmlns:xlink="http://www.w3.org/1999/xlink" version="1.1" viewBox="-10 -40 468 512">
   <path fill="currentColor"
d="M86 -33l-24 42l24 -42l-24 42q-6 10 -6 21v3v0q0 17 12 28q11 12 28 12t28 -12q12 -11 12 -28v-3v0q0 -11 -6 -21l-24 -42v0q-4 -6 -10 -6t-10 6v0zM214 -33l-24 42l24 -42l-24 42q-6 10 -6 21v3v0q0 17 12 28q11 12 28 12t28 -12q12 -11 12 -28v-3v0q0 -11 -6 -21
l-24 -42v0q-4 -6 -10 -6t-10 6v0zM318 9q-6 10 -6 21v3v0q0 17 12 28q11 12 28 12t28 -12q12 -11 12 -28v-3v0q0 -11 -6 -21l-24 -42v0q-4 -6 -10 -6t-10 6l-24 42v0zM120 129q-2 -22 -24 -24q-22 2 -24 24v56v0h-8v0q-27 1 -45 19t-19 45v192v0q0 14 9 23t23 9h384v0
q14 0 23 -9t9 -23v-192v0q-1 -27 -19 -45t-45 -19h-8v0v-56v0q-2 -22 -24 -24q-22 2 -24 24v56v0h-80v0v-56v0q-2 -22 -24 -24q-22 2 -24 24v56v0h-80v0v-56v0zM64 233h320h-320h320q15 1 16 16v61v0q-8 -3 -16 -9q-4 -3 -7 -6q-1 -1 -2 -1q-9 -11 -23 -13q-14 2 -23 13v0
q-5 4 -9 7q-15 11 -32 12q-17 -1 -32 -12q-4 -3 -7 -6q-1 -1 -2 -1q-9 -11 -23 -13q-14 2 -23 13v0q-5 4 -9 7q-15 11 -32 12q-17 -1 -32 -12q-4 -3 -7 -6q-1 -1 -2 -1q-9 -11 -23 -13q-14 2 -23 13v0q-5 4 -9 7q-8 6 -16 9v-61v0q1 -15 16 -16v0zM400 360v65v-65v65h-352v0
v-65v0q27 -6 48 -23q28 23 64 24q36 -1 64 -24q28 23 64 24q36 -1 64 -24q21 17 48 23v0z" />
</svg>
