<?xml version="1.0" standalone="no"?>
<!DOCTYPE svg PUBLIC "-//W3C//DTD SVG 1.1//EN" "http://www.w3.org/Graphics/SVG/1.1/DTD/svg11.dtd" >
<svg xmlns="http://www.w3.org/2000/svg" xmlns:xlink="http://www.w3.org/1999/xlink" version="1.1" viewBox="-10 -40 660 512">
   <path fill="currentColor"
d="M293 186q16 21 27 47q24 -56 73 -90l-16 -28v0l-85 71h1zM304 345h-16h16h-16v-32v0q-2 -68 -47 -113t-113 -47h-72v0q-22 -2 -24 -24q2 -22 24 -24h72v0q76 1 131 46l95 -80v0l-16 -30v0h-58v0q-22 -2 -24 -24q2 -22 24 -24h63v0q23 1 35 21l14 26v0l46 -39v0
q9 -8 21 -8h21v0q14 0 23 9t9 23v32v0q0 14 -9 23t-23 9h-62v0l55 102v0q19 -6 39 -6q54 1 91 37q36 37 37 91q-1 54 -37 91q-37 36 -91 37q-54 -1 -91 -37q-36 -37 -37 -91q2 -62 47 -99l-15 -29v0q-30 22 -47 55t-17 73v32v0h-48v0v0v0zM432 313q1 34 23 57v0v0
q23 22 57 23q34 -1 57 -23q22 -23 23 -57q-1 -34 -23 -57q-23 -22 -57 -23q-8 0 -15 1l36 68v0q9 20 -10 32q-20 9 -32 -10l-36 -67v0q-22 23 -23 56v0zM204 289q-8 -25 -28 -40v0v0q-21 -16 -48 -16q-34 1 -57 23q-22 23 -23 57q1 34 23 57q23 22 57 23q27 0 48 -16
q20 -15 28 -40h-55v0q-9 8 -21 8q-14 0 -23 -9t-9 -23t9 -23t23 -9q12 0 21 8h55v0zM128 185q35 0 64 17v0v0q29 17 47 47q17 30 17 64t-17 64q-18 30 -47 47t-64 17t-64 -17t-47 -47q-17 -30 -17 -64t17 -64q18 -30 47 -47t64 -17v0z" />
</svg>
