<?xml version="1.0" standalone="no"?>
<!DOCTYPE svg PUBLIC "-//W3C//DTD SVG 1.1//EN" "http://www.w3.org/Graphics/SVG/1.1/DTD/svg11.dtd" >
<svg xmlns="http://www.w3.org/2000/svg" xmlns:xlink="http://www.w3.org/1999/xlink" version="1.1" viewBox="-10 -40 532 512">
   <path fill="currentColor"
d="M256 9q22 2 24 24q-2 22 -24 24q-22 -2 -24 -24q2 -22 24 -24v0zM256 105q41 -1 62 -36q20 -36 0 -72q-21 -35 -62 -36q-41 1 -62 36q-20 36 0 72q21 35 62 36v0zM192 241v0v0v0v-40v0q0 -14 9 -23t23 -9h64v0q14 0 23 9t9 23v40v0v0v0q-31 9 -36 41l-6 56v0q-1 6 -8 7
h-28v0q-7 -1 -8 -7l-6 -56v0q-5 -32 -36 -41v0zM186 343q3 22 19 36v0v0q15 14 37 14h28v0q22 0 37 -14q16 -14 19 -36l6 -55v0q16 -5 26 -17q10 -13 10 -30v-40v0q-1 -34 -23 -57q-23 -22 -57 -23h-64v0q-34 1 -57 23q-22 23 -23 57v40v0q0 17 10 30q10 12 26 17l7 55h-1z
M132 355q22 -6 20 -28q-6 -21 -28 -19q-50 9 -82 25q-16 8 -28 19q-13 13 -14 33q1 16 9 27q9 11 20 18q23 14 57 23q69 19 170 20q101 -1 170 -20q34 -9 57 -23q11 -7 19 -18q9 -11 10 -27q-1 -20 -14 -33q-12 -11 -28 -19q-32 -16 -82 -25q-22 -2 -28 19q-2 22 20 28
q45 9 69 21q4 2 7 4q6 5 0 10q-13 9 -43 17q-61 17 -157 18q-96 -1 -158 -18q-30 -8 -43 -17q-5 -5 0 -10l8 -4q24 -12 69 -21v0z" />
</svg>
