<?xml version="1.0" standalone="no"?>
<!DOCTYPE svg PUBLIC "-//W3C//DTD SVG 1.1//EN" "http://www.w3.org/Graphics/SVG/1.1/DTD/svg11.dtd" >
<svg xmlns="http://www.w3.org/2000/svg" xmlns:xlink="http://www.w3.org/1999/xlink" version="1.1" viewBox="-10 -40 586 512">
   <path fill="currentColor"
d="M48 77q-15 -14 -16 -36q1 -20 14 -34q14 -13 34 -14q22 1 36 16h344v0q14 -15 36 -16q20 1 34 14q13 14 14 34q-1 22 -16 36v280v0q15 14 16 36q-1 20 -14 34q-14 13 -34 14q-22 -1 -36 -16h-344v0q-14 15 -36 16q-20 -1 -34 -14q-13 -14 -14 -34q1 -22 16 -36v-280v0z
M125 57q-8 21 -29 29v262v0q21 8 29 29h326v0q8 -21 29 -29v-262v0q-21 -8 -29 -29h-326v0zM128 121q0 -14 9 -23v0v0q9 -9 23 -9h128v0q14 0 23 9t9 23v96v0q0 14 -9 23t-23 9h-128v0q-14 0 -23 -9t-9 -23v-96v0zM256 281h32h-32h32q27 -1 45 -19t19 -45v-32v0h64v0
q14 0 23 9t9 23v96v0q0 14 -9 23t-23 9h-128v0q-14 0 -23 -9t-9 -23v-32v0z" />
</svg>
