<?xml version="1.0" standalone="no"?>
<!DOCTYPE svg PUBLIC "-//W3C//DTD SVG 1.1//EN" "http://www.w3.org/Graphics/SVG/1.1/DTD/svg11.dtd" >
<svg xmlns="http://www.w3.org/2000/svg" xmlns:xlink="http://www.w3.org/1999/xlink" version="1.1" viewBox="-10 -40 468 512">
   <path fill="currentColor"
d="M64 41q-15 1 -16 16v320v0q1 15 16 16h224v0v-80v0q0 -14 9 -23t23 -9h80v0v-224v0q-1 -15 -16 -16h-320v0zM288 441h-224h224h-224q-27 -1 -45 -19t-19 -45v-320v0q1 -27 19 -45t45 -19h320v0q27 1 45 19t19 45v224v0v6v0q0 26 -19 45l-90 90v0q-19 19 -45 19h-6v0z" />
</svg>
