<?xml version="1.0" standalone="no"?>
<!DOCTYPE svg PUBLIC "-//W3C//DTD SVG 1.1//EN" "http://www.w3.org/Graphics/SVG/1.1/DTD/svg11.dtd" >
<svg xmlns="http://www.w3.org/2000/svg" xmlns:xlink="http://www.w3.org/1999/xlink" version="1.1" viewBox="-11 0 469 512">
   <path fill="currentColor"
d="M160 25q1 -15 16 -16q15 1 16 16v136v0q1 17 16 23q16 4 27 -8q5 -7 13 -7q15 1 16 16q1 17 16 23q17 4 27 -8q5 -7 13 -7q13 1 16 13q3 13 15 18q12 4 23 -3q4 -4 10 -4q15 2 16 16v16v0v104v0q-1 31 -21 51t-51 21h-56h-61q-28 0 -52 -13q-25 -13 -41 -37l-67 -101v0
q-7 -13 4 -22q13 -7 22 4l39 58v0q10 14 27 10q16 -6 17 -23v-20v0v-256v0zM176 -39q-27 1 -45 19v0v0q-18 18 -19 45v198v0q-16 -18 -39 -21q-24 -4 -44 10q-23 15 -28 40q-5 26 10 49l67 101v0q23 33 58 52t75 19h1h116q51 -1 85 -35t35 -85v-104v0v-16v0q-1 -27 -19 -45
t-45 -19q-7 0 -13 1q-19 -24 -51 -25q-10 0 -20 3q-18 -26 -52 -27q-4 0 -8 1v-97v0q-1 -27 -19 -45t-45 -19v0zM224 265q-1 -15 -16 -16q-15 1 -16 16v96v0q1 15 16 16q15 -1 16 -16v-96v0zM272 249q-15 1 -16 16v96v0q1 15 16 16q15 -1 16 -16v-96v0q-1 -15 -16 -16v0z
M352 265q-1 -15 -16 -16q-15 1 -16 16v96v0q1 15 16 16q15 -1 16 -16v-96v0z" />
</svg>
