<?xml version="1.0" standalone="no"?>
<!DOCTYPE svg PUBLIC "-//W3C//DTD SVG 1.1//EN" "http://www.w3.org/Graphics/SVG/1.1/DTD/svg11.dtd" >
<svg xmlns="http://www.w3.org/2000/svg" xmlns:xlink="http://www.w3.org/1999/xlink" version="1.1" viewBox="-10 -40 468 512">
   <path fill="currentColor"
d="M152 -15q-2 -22 -24 -24q-22 2 -24 24v40v0h-40v0q-27 1 -45 19t-19 45v16v0v48v0v256v0q1 27 19 45t45 19h320v0q27 -1 45 -19t19 -45v-256v0v-48v0v-16v0q-1 -27 -19 -45t-45 -19h-40v0v-40v0q-2 -22 -24 -24q-22 2 -24 24v40v0h-144v0v-40v0zM48 153h352h-352h352v256
v0q-1 15 -16 16h-320v0q-15 -1 -16 -16v-256v0zM224 193q-22 2 -24 24v48v0h-48v0q-22 2 -24 24q2 22 24 24h48v0v48v0q2 22 24 24q22 -2 24 -24v-48v0h48v0q22 -2 24 -24q-2 -22 -24 -24h-48v0v-48v0q-2 -22 -24 -24v0z" />
</svg>
