<?xml version="1.0" standalone="no"?>
<!DOCTYPE svg PUBLIC "-//W3C//DTD SVG 1.1//EN" "http://www.w3.org/Graphics/SVG/1.1/DTD/svg11.dtd" >
<svg xmlns="http://www.w3.org/2000/svg" xmlns:xlink="http://www.w3.org/1999/xlink" version="1.1" viewBox="-10 -40 660 512">
   <path fill="currentColor"
d="M0 57q1 -36 32 -55q32 -18 64 0q31 19 32 55q-1 36 -32 55q-32 18 -64 0q-31 -19 -32 -55v0zM224 241q22 -2 24 -24q-2 -22 -24 -24q-22 2 -24 24q2 22 24 24v0zM224 153q36 1 55 32q18 32 0 64q-19 31 -55 32q-36 -1 -55 -32q-18 -32 0 -64q19 -31 55 -32v0zM88 377
q-2 -22 -24 -24q-22 2 -24 24q2 22 24 24q22 -2 24 -24v0zM0 377q1 -36 32 -55q32 -18 64 0q31 19 32 55q-1 36 -32 55q-32 18 -64 0q-31 -19 -32 -55v0zM248 377q-2 -22 -24 -24q-22 2 -24 24q2 22 24 24q22 -2 24 -24v0zM160 377q1 -36 32 -55q32 -18 64 0q31 19 32 55
q-1 36 -32 55q-32 18 -64 0q-31 -19 -32 -55v0zM64 153q36 1 55 32q18 32 0 64q-19 31 -55 32q-36 -1 -55 -32q-18 -32 0 -64q19 -31 55 -32v0zM224 -7q36 1 55 32q18 32 0 64q-19 31 -55 32q-36 -1 -55 -32q-18 -32 0 -64q19 -31 55 -32v0zM352 57q1 -36 32 -55
q32 -18 64 0q31 19 32 55q-1 36 -32 55q-32 18 -64 0q-31 -19 -32 -55v0zM600 57q-2 -22 -24 -24q-22 2 -24 24q2 22 24 24q22 -2 24 -24v0zM512 57q1 -36 32 -55q32 -18 64 0q31 19 32 55q-1 36 -32 55q-32 18 -64 0q-31 -19 -32 -55v0zM576 241q22 -2 24 -24
q-2 -22 -24 -24q-22 2 -24 24q2 22 24 24v0zM576 153q36 1 55 32q18 32 0 64q-19 31 -55 32q-36 -1 -55 -32q-18 -32 0 -64q19 -31 55 -32v0zM600 377q-2 -22 -24 -24q-22 2 -24 24q2 22 24 24q22 -2 24 -24v0zM512 377q1 -36 32 -55q32 -18 64 0q31 19 32 55q-1 36 -32 55
q-32 18 -64 0q-31 -19 -32 -55v0zM416 241q22 -2 24 -24q-2 -22 -24 -24q-22 2 -24 24q2 22 24 24v0zM416 153q36 1 55 32q18 32 0 64q-19 31 -55 32q-36 -1 -55 -32q-18 -32 0 -64q19 -31 55 -32v0zM440 377q-2 -22 -24 -24q-22 2 -24 24q2 22 24 24q22 -2 24 -24v0z
M352 377q1 -36 32 -55q32 -18 64 0q31 19 32 55q-1 36 -32 55q-32 18 -64 0q-31 -19 -32 -55v0z" />
</svg>
