<?xml version="1.0" standalone="no"?>
<!DOCTYPE svg PUBLIC "-//W3C//DTD SVG 1.1//EN" "http://www.w3.org/Graphics/SVG/1.1/DTD/svg11.dtd" >
<svg xmlns="http://www.w3.org/2000/svg" xmlns:xlink="http://www.w3.org/1999/xlink" version="1.1" viewBox="-10 -40 532 512">
   <path fill="currentColor"
d="M505 2l-64 64l64 -64l-64 64q-17 14 -34 0q-14 -17 0 -34l64 -64v0q17 -14 34 0q14 17 0 34v0zM185 322l-144 144l144 -144l-144 144q-17 14 -34 0q-14 -17 0 -34l144 -144v0q17 -14 34 0q14 17 0 34v0zM240 73q-54 1 -91 37v0v0q-36 37 -37 91q-2 22 -24 24
q-22 -2 -24 -24q2 -75 52 -124q49 -50 124 -52q75 2 124 52q50 49 52 124q-2 73 -49 122q-7 8 -7 14q-1 58 -40 96q-38 39 -96 40q-22 -2 -24 -24q2 -22 24 -24q37 -1 62 -26t26 -62q2 -29 20 -47q35 -36 36 -89q-1 -54 -37 -91q-37 -36 -91 -37v0zM240 161q-17 0 -28 12v0
v0q-12 11 -12 28q-2 22 -24 24q-22 -2 -24 -24q1 -37 26 -62t62 -26q37 1 62 26t26 62q-2 22 -24 24q-22 -2 -24 -24q0 -17 -12 -28q-11 -12 -28 -12v0z" />
</svg>
