<?xml version="1.0" standalone="no"?>
<!DOCTYPE svg PUBLIC "-//W3C//DTD SVG 1.1//EN" "http://www.w3.org/Graphics/SVG/1.1/DTD/svg11.dtd" >
<svg xmlns="http://www.w3.org/2000/svg" xmlns:xlink="http://www.w3.org/1999/xlink" version="1.1" viewBox="-10 -40 404 512">
   <path fill="currentColor"
d="M256 9v16v-16v16q0 14 -9 23t-23 9h-64v0q-14 0 -23 -9t-9 -23v-16v0h-64v0q-15 1 -16 16v384v0q1 15 16 16h256v0q15 -1 16 -16v-384v0q-1 -15 -16 -16h-64v0zM0 25q1 -27 19 -45v0v0q18 -18 45 -19h256v0q27 1 45 19t19 45v384v0q-1 27 -19 45t-45 19h-256v0
q-27 -1 -45 -19t-19 -45v-384v0zM160 281h64h-64h64q34 1 57 23q22 23 23 57q-1 15 -16 16h-192v0q-15 -1 -16 -16q1 -34 23 -57q23 -22 57 -23v0zM128 185q1 -36 32 -55q32 -18 64 0q31 19 32 55q-1 36 -32 55q-32 18 -64 0q-31 -19 -32 -55v0z" />
</svg>
