<?xml version="1.0" standalone="no"?>
<!DOCTYPE svg PUBLIC "-//W3C//DTD SVG 1.1//EN" "http://www.w3.org/Graphics/SVG/1.1/DTD/svg11.dtd" >
<svg xmlns="http://www.w3.org/2000/svg" xmlns:xlink="http://www.w3.org/1999/xlink" version="1.1" viewBox="-10 -40 532 512">
   <path fill="currentColor"
d="M101 9q-19 2 -21 21v187v0h352h56q22 2 24 24q-2 22 -24 24h-8h-456q-22 -2 -24 -24q2 -22 24 -24h8v0v-187v0q1 -29 20 -49q20 -19 49 -20q29 0 49 20l5 5v0q17 -9 37 -9q37 1 60 27q16 -8 29 4q14 17 0 34l-104 104v0q-17 14 -34 0q-12 -13 -4 -29q-26 -23 -27 -60
q0 -20 9 -37l-5 -5v0q-6 -6 -15 -6v0zM32 297h48h-48h48v32v0q1 20 14 34q14 13 34 14h256v0q20 -1 34 -14q13 -14 14 -34v-32v0h48v0v32v0q-1 44 -32 72v48v0q-2 22 -24 24q-22 -2 -24 -24v-25v0q-8 1 -16 1h-256v0q-8 0 -16 -1v25v0q-2 22 -24 24q-22 -2 -24 -24v-48v0
q-31 -28 -32 -72v-32v0zM192 25q-14 0 -23 9v0v0q-9 9 -9 23q1 16 13 26l44 -45v0q-9 -12 -25 -13v0z" />
</svg>
