<?xml version="1.0" standalone="no"?>
<!DOCTYPE svg PUBLIC "-//W3C//DTD SVG 1.1//EN" "http://www.w3.org/Graphics/SVG/1.1/DTD/svg11.dtd" >
<svg xmlns="http://www.w3.org/2000/svg" xmlns:xlink="http://www.w3.org/1999/xlink" version="1.1" viewBox="-10 -40 468 512">
   <path fill="currentColor"
d="M400 185q0 46 -21 84v0v0q-21 38 -57 63q-3 26 -7 54l-1 4v0q60 -27 97 -81q36 -54 37 -124q-1 -63 -31 -113q-29 -51 -80 -80q-50 -30 -113 -31q-63 1 -113 31q-51 29 -80 80q-30 50 -31 113q1 70 37 124q37 54 97 81v-3v0q-5 -29 -8 -56q-36 -24 -57 -62t-21 -84
q2 -75 52 -124q49 -50 124 -52q75 2 124 52q50 49 52 124v0zM368 185q-2 -61 -42 -102v0v0q-41 -40 -102 -42q-61 2 -102 42q-40 41 -42 102q2 65 48 107q2 -11 8 -20q8 -13 18 -21q-25 -27 -26 -66q1 -41 28 -68t68 -28q41 1 68 28t28 68q-1 39 -26 66q11 8 18 21q6 9 9 20
q45 -42 47 -107v0zM224 169q15 1 16 16q-1 15 -16 16q-15 -1 -16 -16q1 -15 16 -16v0zM224 249q36 -1 55 -32q18 -32 0 -64q-19 -31 -55 -32q-36 1 -55 32q-18 32 0 64q19 31 55 32v0zM179 449q4 14 17 19v0v0q13 5 28 5t28 -5t17 -19q7 -25 14 -68q7 -42 8 -70
q-1 -27 -21 -37q-19 -10 -46 -9q-27 -1 -46 9q-20 10 -21 37q1 28 8 70q7 43 14 68v0zM226 425h-1v0v0h-1h-1v0q-5 -21 -10 -51q-6 -37 -7 -59v-1h2q6 -1 16 -1t16 1h2q0 1 1 1q-1 21 -7 58q-5 31 -10 52v0z" />
</svg>
