<?xml version="1.0" standalone="no"?>
<!DOCTYPE svg PUBLIC "-//W3C//DTD SVG 1.1//EN" "http://www.w3.org/Graphics/SVG/1.1/DTD/svg11.dtd" >
<svg xmlns="http://www.w3.org/2000/svg" xmlns:xlink="http://www.w3.org/1999/xlink" version="1.1" viewBox="-10 -40 532 512">
   <path fill="currentColor"
d="M432 9h-224h224h-224q-14 0 -23 9t-9 23v16v0h-48v0v-16v0q1 -34 23 -57q23 -22 57 -23h224v0q34 1 57 23q22 23 23 57v224v0q-1 34 -23 57q-23 22 -57 23h-16v0v-48v0h16v0q14 0 23 -9t9 -23v-224v0q0 -14 -9 -23t-23 -9v0zM48 409q1 15 16 16h256v0q15 -1 16 -16v-192
v0h-288v0v192v0zM64 89h256h-256h256q27 1 45 19t19 45v256v0q-1 27 -19 45t-45 19h-256v0q-27 -1 -45 -19t-19 -45v-256v0q1 -27 19 -45t45 -19v0z" />
</svg>
