<?xml version="1.0" standalone="no"?>
<!DOCTYPE svg PUBLIC "-//W3C//DTD SVG 1.1//EN" "http://www.w3.org/Graphics/SVG/1.1/DTD/svg11.dtd" >
<svg xmlns="http://www.w3.org/2000/svg" xmlns:xlink="http://www.w3.org/1999/xlink" version="1.1" viewBox="-10 -40 532 512">
   <path fill="currentColor"
d="M398 4q17 -15 5 -33q-15 -17 -33 -5l-123 92v0q-7 5 -13 11l-2 2v0q-31 32 -32 78q0 38 23 67l-216 216v0q-14 17 0 34q17 14 34 0l216 -216v0q29 23 67 23q46 -1 78 -32l2 -2v0q6 -6 11 -13l92 -123v0q12 -18 -5 -33q-18 -12 -33 5l-92 122v0q-3 4 -7 8l-1 2v0
q-19 18 -45 18t-44 -18l-7 -7v0v0v0v0v0l-6 -6v0q-19 -19 -19 -45t18 -44l2 -2v0q4 -4 8 -7l122 -92v0zM457 50q14 -17 0 -34q-17 -14 -34 0l-116 116v0q-14 17 0 34q17 14 34 0l116 -116v0z" />
</svg>
