<?xml version="1.0" standalone="no"?>
<!DOCTYPE svg PUBLIC "-//W3C//DTD SVG 1.1//EN" "http://www.w3.org/Graphics/SVG/1.1/DTD/svg11.dtd" >
<svg xmlns="http://www.w3.org/2000/svg" xmlns:xlink="http://www.w3.org/1999/xlink" version="1.1" viewBox="-10 -40 596 512">
   <path fill="currentColor"
d="M177 9q6 119 28 180v0v0q22 61 44 82q21 21 33 24q3 1 5 1q0 1 1 1q2 -1 6 -2q12 -3 33 -24q22 -21 44 -82t28 -180h-222v0zM176 -39h224h-224h224q20 1 34 14q13 14 13 34q0 8 -1 16h106v0q22 2 24 24q-1 81 -30 135t-71 86q-42 30 -83 45q-40 14 -67 18q-7 4 -13 6v86
v0h80v0q22 2 24 24q-2 22 -24 24h-104h-104q-22 -2 -24 -24q2 -22 24 -24h80v0v-86v0q-6 -2 -13 -6q-27 -4 -67 -18q-41 -15 -83 -45q-42 -32 -71 -86t-30 -135q2 -22 24 -24h106v0q-1 -8 -1 -16q0 -20 13 -34q14 -13 34 -14v0zM391 264q27 -12 54 -32q31 -24 54 -62
q23 -39 28 -97h-84v0q-7 67 -21 114t-31 77v0zM131 232q27 20 54 32q-17 -30 -31 -77t-21 -114h-84v0q5 58 28 97q23 38 54 62v0zM295 64l15 29l-15 -29l15 29q2 4 6 4l32 5v0q11 4 5 14l-24 22v0q-3 3 -2 7l5 33v0q0 11 -11 8l-29 -15v0q-4 -2 -8 0l-29 15v0q-11 3 -11 -8
l5 -33v0q1 -4 -2 -7l-23 -22v0q-7 -10 4 -14l32 -5v0q4 0 6 -4l15 -29v0q7 -9 14 0v0z" />
</svg>
