<?xml version="1.0" standalone="no"?>
<!DOCTYPE svg PUBLIC "-//W3C//DTD SVG 1.1//EN" "http://www.w3.org/Graphics/SVG/1.1/DTD/svg11.dtd" >
<svg xmlns="http://www.w3.org/2000/svg" xmlns:xlink="http://www.w3.org/1999/xlink" version="1.1" viewBox="-10 -40 522 512">
   <path fill="currentColor"
d="M371 84q-48 -42 -115 -43q-75 2 -124 52q-50 49 -52 124q2 75 52 124q49 50 124 52q61 -1 106 -35q18 -12 33 5q12 18 -5 33q-57 44 -134 45q-63 -1 -113 -31q-51 -29 -80 -80q-30 -50 -31 -113q1 -63 31 -113q29 -51 80 -80q50 -30 113 -31q88 2 149 57l31 -31v0
q10 -10 25 -10t25 10t10 25v117v0q-2 22 -24 24h-117v0q-15 0 -25 -10t-10 -25t10 -25l41 -41v0zM448 75l-62 62l62 -62l-62 62h62v0v-62v0z" />
</svg>
