<?xml version="1.0" standalone="no"?>
<!DOCTYPE svg PUBLIC "-//W3C//DTD SVG 1.1//EN" "http://www.w3.org/Graphics/SVG/1.1/DTD/svg11.dtd" >
<svg xmlns="http://www.w3.org/2000/svg" xmlns:xlink="http://www.w3.org/1999/xlink" version="1.1" viewBox="-10 -40 468 512">
   <path fill="currentColor"
d="M64 41q-15 1 -16 16v320v0q1 15 16 16h320v0q15 -1 16 -16v-320v0q-1 -15 -16 -16h-320v0zM0 57q1 -27 19 -45v0v0q18 -18 45 -19h320v0q27 1 45 19t19 45v320v0q-1 27 -19 45t-45 19h-320v0q-27 -1 -45 -19t-19 -45v-320v0zM138 126q6 -17 20 -27v0v0q14 -10 33 -10h58
v0q27 1 45 19q17 17 18 44q-1 36 -32 55l-32 18v0q-2 22 -24 24q-22 -2 -24 -24v-13v0q0 -14 12 -21l44 -26v0q8 -4 8 -13q-1 -14 -15 -15h-58v0q-6 0 -8 5v2v0q-10 20 -31 14q-20 -9 -14 -30v-2v0zM192 313q0 -14 9 -23v0v0q9 -9 23 -9t23 9t9 23t-9 23t-23 9t-23 -9
t-9 -23v0z" />
</svg>
