<?xml version="1.0" standalone="no"?>
<!DOCTYPE svg PUBLIC "-//W3C//DTD SVG 1.1//EN" "http://www.w3.org/Graphics/SVG/1.1/DTD/svg11.dtd" >
<svg xmlns="http://www.w3.org/2000/svg" xmlns:xlink="http://www.w3.org/1999/xlink" version="1.1" viewBox="-10 -40 660 512">
   <path fill="currentColor"
d="M48 49q-2 -22 -24 -24q-22 2 -24 24v160v0v176v0q2 22 24 24q22 -2 24 -24v-152v0h224v0v152v0q2 22 24 24q22 -2 24 -24v-176v0v-160v0q-2 -22 -24 -24q-22 2 -24 24v136v0h-224v0v-136v0zM445 90q20 -17 46 -17h9v0q32 1 54 22q21 22 22 54q0 33 -24 56l-176 162v0
q-12 12 -6 27q6 14 22 15h224v0q22 -2 24 -24q-2 -22 -24 -24h-163v0l131 -121v0q39 -37 40 -91q-1 -53 -36 -88t-88 -36h-9v0q-44 0 -77 28l-30 26v0q-15 16 -2 34q16 15 33 2l30 -25v0z" />
</svg>
