<?xml version="1.0" standalone="no"?>
<!DOCTYPE svg PUBLIC "-//W3C//DTD SVG 1.1//EN" "http://www.w3.org/Graphics/SVG/1.1/DTD/svg11.dtd" >
<svg xmlns="http://www.w3.org/2000/svg" xmlns:xlink="http://www.w3.org/1999/xlink" version="1.1" viewBox="-10 -40 660 512">
   <path fill="currentColor"
d="M48 49q-2 -22 -24 -24q-22 2 -24 24v160v0v176v0q2 22 24 24q22 -2 24 -24v-152v0h224v0v152v0q2 22 24 24q22 -2 24 -24v-176v0v-160v0q-2 -22 -24 -24q-22 2 -24 24v136v0h-224v0v-136v0zM400 25q-22 2 -24 24q2 22 24 24h142v0l-119 119v0q-11 12 -5 26t22 15h88v0
q27 1 45 19t19 45q-1 27 -19 45t-45 19h-73v0q-25 -2 -31 -27v-1v0q-6 -21 -28 -20q-21 6 -20 28v1v0q6 30 28 48q21 18 51 19h73v0q48 -1 79 -33q32 -31 33 -79q-1 -48 -33 -79q-31 -32 -79 -33h-30v0l119 -119v0q11 -12 5 -26t-22 -15h-200v0z" />
</svg>
