<?xml version="1.0" standalone="no"?>
<!DOCTYPE svg PUBLIC "-//W3C//DTD SVG 1.1//EN" "http://www.w3.org/Graphics/SVG/1.1/DTD/svg11.dtd" >
<svg xmlns="http://www.w3.org/2000/svg" xmlns:xlink="http://www.w3.org/1999/xlink" version="1.1" viewBox="-10 -40 404 512">
   <path fill="currentColor"
d="M64 425q-15 -1 -16 -16v-384v0q1 -15 16 -16h160v0v80v0q0 14 9 23t23 9h80v0v288v0q-1 15 -16 16h-256v0zM64 -39q-27 1 -45 19v0v0q-18 18 -19 45v384v0q1 27 19 45t45 19h256v0q27 -1 45 -19t19 -45v-293v0q0 -27 -19 -46l-90 -90v0q-19 -19 -45 -19h-166v0zM289 229
q14 -17 0 -34q-17 -14 -34 0l-90 89v0l-36 -36v0q-17 -14 -34 0q-14 17 0 34l53 53v0q17 14 34 0l107 -106v0z" />
</svg>
