<?xml version="1.0" standalone="no"?>
<!DOCTYPE svg PUBLIC "-//W3C//DTD SVG 1.1//EN" "http://www.w3.org/Graphics/SVG/1.1/DTD/svg11.dtd" >
<svg xmlns="http://www.w3.org/2000/svg" xmlns:xlink="http://www.w3.org/1999/xlink" version="1.1" viewBox="-10 -40 522 512">
   <path fill="currentColor"
d="M328 -7q-22 2 -24 24q2 22 24 24h70v0l-142 142v0l-142 -142v0h70v0q22 -2 24 -24q-2 -22 -24 -24h-128v0q-22 2 -24 24v128v0q2 22 24 24q22 -2 24 -24v-70v0l142 142v0l-142 142v0v-70v0q-2 -22 -24 -24q-22 2 -24 24v128v0q2 22 24 24h128v0q22 -2 24 -24
q-2 -22 -24 -24h-70v0l142 -142v0l142 142v0h-70v0q-22 2 -24 24q2 22 24 24h128v0q22 -2 24 -24v-128v0q-2 -22 -24 -24q-22 2 -24 24v70v0l-142 -142v0l142 -142v0v70v0q2 22 24 24q22 -2 24 -24v-128v0q-2 -22 -24 -24h-128v0z" />
</svg>
