<?xml version="1.0" standalone="no"?>
<!DOCTYPE svg PUBLIC "-//W3C//DTD SVG 1.1//EN" "http://www.w3.org/Graphics/SVG/1.1/DTD/svg11.dtd" >
<svg xmlns="http://www.w3.org/2000/svg" xmlns:xlink="http://www.w3.org/1999/xlink" version="1.1" viewBox="-10 -40 522 512">
   <path fill="currentColor"
d="M239 426q17 14 34 0l192 -192v0q14 -17 0 -34q-17 -14 -34 0l-175 175v0l-175 -175v0q-17 -14 -34 0q-14 17 0 34l192 192v0zM47 42l192 192l-192 -192l192 192q17 14 34 0l192 -192v0q14 -17 0 -34q-17 -14 -34 0l-175 175v0l-175 -175v0q-17 -14 -34 0q-14 17 0 34v0z
" />
</svg>
