<?xml version="1.0" standalone="no"?>
<!DOCTYPE svg PUBLIC "-//W3C//DTD SVG 1.1//EN" "http://www.w3.org/Graphics/SVG/1.1/DTD/svg11.dtd" >
<svg xmlns="http://www.w3.org/2000/svg" xmlns:xlink="http://www.w3.org/1999/xlink" version="1.1" viewBox="-10 -40 532 512">
   <path fill="currentColor"
d="M200 43q18 -32 56 -34q38 2 56 34q10 16 28 11q35 -10 63 16q26 28 16 63q-5 18 12 28q31 18 33 56q-2 38 -33 56q-17 10 -12 28q10 35 -16 63q-28 25 -63 16q-18 -5 -28 11q-18 32 -56 34q-38 -2 -56 -34q-10 -16 -28 -11q-35 10 -63 -16q-26 -28 -16 -63q5 -18 -11 -28
q-32 -18 -34 -56q2 -38 34 -56q16 -10 11 -28q-10 -35 16 -63q28 -26 63 -16q18 5 28 -11v0zM256 -39q-56 2 -88 43q-52 -6 -93 32q-38 41 -32 93q-41 32 -43 88q2 56 43 88q-6 52 32 93q41 38 93 32q32 41 88 43q56 -2 88 -43q52 6 93 -32q38 -41 32 -93q41 -32 43 -88
q-2 -56 -43 -88q6 -52 -32 -93q-41 -38 -93 -32q-32 -41 -88 -43v0zM369 170q14 -17 0 -34q-17 -14 -34 0l-111 111v0l-47 -47v0q-17 -14 -34 0q-14 17 0 34l64 64v0q17 14 34 0l128 -128v0z" />
</svg>
