<?xml version="1.0" standalone="no"?>
<!DOCTYPE svg PUBLIC "-//W3C//DTD SVG 1.1//EN" "http://www.w3.org/Graphics/SVG/1.1/DTD/svg11.dtd" >
<svg xmlns="http://www.w3.org/2000/svg" xmlns:xlink="http://www.w3.org/1999/xlink" version="1.1" viewBox="-10 -40 404 512">
   <path fill="currentColor"
d="M82 153l110 -110l-110 110l110 -110l110 110v0h-54v0q-22 2 -24 24v120v0h-64v0v-120v0q-2 -22 -24 -24h-54v0zM192 -7q-18 0 -31 13l-115 116v0q-14 13 -14 33q0 19 14 32q13 14 32 14h34v0v96v0q1 20 14 34q14 13 34 14h64v0q20 -1 34 -14q13 -14 14 -34v-96v0h34v0
q19 0 32 -14q14 -13 14 -32t-14 -33l-115 -116v0q-13 -13 -31 -13v0zM24 393q-22 2 -24 24q2 22 24 24h336v0q22 -2 24 -24q-2 -22 -24 -24h-336v0z" />
</svg>
