<?xml version="1.0" standalone="no"?>
<!DOCTYPE svg PUBLIC "-//W3C//DTD SVG 1.1//EN" "http://www.w3.org/Graphics/SVG/1.1/DTD/svg11.dtd" >
<svg xmlns="http://www.w3.org/2000/svg" xmlns:xlink="http://www.w3.org/1999/xlink" version="1.1" viewBox="-10 -40 468 512">
   <path fill="currentColor"
d="M288 107l110 110l-110 -110l110 110l-110 110v0v-54v0q-2 -22 -24 -24h-120v0v-64v0h120v0q22 -2 24 -24v-54v0zM448 217q0 -18 -13 -31l-116 -115v0q-13 -14 -33 -14q-19 1 -32 14t-14 32v34v0h-96v0q-20 1 -34 14q-13 14 -14 34v64v0q1 20 14 34q14 13 34 14h96v0v34v0
q1 19 14 32q13 14 32 14t33 -14l116 -115v0q13 -13 13 -31v0zM48 49q-2 -22 -24 -24q-22 2 -24 24v336v0q2 22 24 24q22 -2 24 -24v-336v0z" />
</svg>
