<?xml version="1.0" standalone="no"?>
<!DOCTYPE svg PUBLIC "-//W3C//DTD SVG 1.1//EN" "http://www.w3.org/Graphics/SVG/1.1/DTD/svg11.dtd" >
<svg xmlns="http://www.w3.org/2000/svg" xmlns:xlink="http://www.w3.org/1999/xlink" version="1.1" viewBox="-10 -40 532 512">
   <path fill="currentColor"
d="M0 51v6v64v0v256v0q1 27 19 45t45 19h384v0q27 -1 45 -19t19 -45v-256v0v-64v0q-1 -27 -19 -45t-45 -19h-384v0h-6q-14 2 -26 9q-16 9 -24 25q-6 11 -8 24v0zM48 121h416h-416h416v256v0q-1 15 -16 16h-384v0q-15 -1 -16 -16v-256v0z" />
</svg>
