<?xml version="1.0" standalone="no"?>
<!DOCTYPE svg PUBLIC "-//W3C//DTD SVG 1.1//EN" "http://www.w3.org/Graphics/SVG/1.1/DTD/svg11.dtd" >
<svg xmlns="http://www.w3.org/2000/svg" xmlns:xlink="http://www.w3.org/1999/xlink" version="1.1" viewBox="-10 -40 404 512">
   <path fill="currentColor"
d="M320 9h-256h256h-256q-15 1 -16 16v384v0q1 15 16 16h256v0q15 -1 16 -16v-384v0q-1 -15 -16 -16v0zM320 -39q27 1 45 19v0v0q18 18 19 45v384v0q-1 27 -19 45t-45 19h-256v0q-27 -1 -45 -19t-19 -45v-384v0q1 -27 19 -45t45 -19h256v0zM128 153q1 -36 32 -55
q32 -18 64 0q31 19 32 55q-1 36 -32 55q-32 18 -64 0q-31 -19 -32 -55v0zM80 318q1 -30 20 -49v0v0q19 -19 49 -20h87v0q29 1 48 20t20 49q0 11 -8 19t-19 8h-170v0q-11 0 -19 -8t-8 -19v0z" />
</svg>
