<?xml version="1.0" standalone="no"?>
<!DOCTYPE svg PUBLIC "-//W3C//DTD SVG 1.1//EN" "http://www.w3.org/Graphics/SVG/1.1/DTD/svg11.dtd" >
<svg xmlns="http://www.w3.org/2000/svg" xmlns:xlink="http://www.w3.org/1999/xlink" version="1.1" viewBox="-10 -40 468 512">
   <path fill="currentColor"
d="M48 409q1 15 16 16h320v0q15 -1 16 -16v-80v0h-352v0v80v0zM48 281h352h-352h352v-256v0q-1 -15 -16 -16h-320v0q-15 1 -16 16v256v0zM0 25q1 -27 19 -45v0v0q18 -18 45 -19h320v0q27 1 45 19t19 45v384v0q-1 27 -19 45t-45 19h-320v0q-27 -1 -45 -19t-19 -45v-384v0z
M224 353q22 2 24 24q-2 22 -24 24q-22 -2 -24 -24q2 -22 24 -24v0z" />
</svg>
