<?xml version="1.0" standalone="no"?>
<!DOCTYPE svg PUBLIC "-//W3C//DTD SVG 1.1//EN" "http://www.w3.org/Graphics/SVG/1.1/DTD/svg11.dtd" >
<svg xmlns="http://www.w3.org/2000/svg" xmlns:xlink="http://www.w3.org/1999/xlink" version="1.1" viewBox="-10 -40 596 512">
   <path fill="currentColor"
d="M569 -32q14 17 0 34l-200 200v0l39 39v0q8 8 8 19q-1 20 -20 27l-55 16v0v0v0q5 35 -6 68t-36 59q-43 42 -104 43h-173v0q-20 -2 -22 -22q0 -10 7 -17l50 -46v0l24 -22v0l23 -21v0h-23v0q-16 -2 -17 -17q0 -6 1 -12q4 -39 32 -68l10 -10v0q26 -25 59 -36t68 -6l1 1v0
l15 -56v0q7 -19 27 -20q11 0 19 8l39 39v0l200 -200v0q17 -14 34 0v0zM321 258l28 -8l-28 8l28 -8l-62 -62v0l-8 28v0l42 42v0zM236 245l-9 -1l9 1l-9 -1q-50 -7 -86 28l-10 10v0q-8 8 -12 17q21 7 30 29q10 30 -12 52l-49 45v0h107v0q41 -1 70 -29q35 -36 28 -85l-1 -10v0
l-56 -56v0zM528 393q0 -14 -9 -23v0v0q-9 -9 -23 -9t-23 9t-9 23t9 23t23 9t23 -9t9 -23v0zM416 393q1 -45 40 -69q40 -22 80 0q39 24 40 69q-1 45 -40 69q-40 22 -80 0q-39 -24 -40 -69v0z" />
</svg>
