<?xml version="1.0" standalone="no"?>
<!DOCTYPE svg PUBLIC "-//W3C//DTD SVG 1.1//EN" "http://www.w3.org/Graphics/SVG/1.1/DTD/svg11.dtd" >
<svg xmlns="http://www.w3.org/2000/svg" xmlns:xlink="http://www.w3.org/1999/xlink" version="1.1" viewBox="-10 -40 532 512">
   <path fill="currentColor"
d="M247 9l-43 89l43 -89l-43 89l76 -40v0v-49v0h-33v0zM169 171l-39 80l39 -80l-39 80l29 29v0l76 -76v0l26 -81v0l-92 48v0zM328 1v40v-40v40h72v0q14 0 23 9t9 23v72v0h40v0q17 0 28 12q12 11 12 28v46v0q-1 24 -22 36l-242 118v0l-3 3l-52 52v0q-33 32 -80 33
q-48 -1 -80 -33t-33 -80q1 -47 33 -80l52 -52v0q1 -1 3 -2l118 -242v0q12 -22 36 -23h46v0q17 0 28 12q12 11 12 28v0zM222 343l80 -39l-80 39l80 -39l48 -92v0l-81 26v0l-76 76v0l29 29v0zM293 180l91 -29l-91 29l91 -29v-62v0h-62v0l-29 91v0zM188 377l-92 -92l92 92
l-92 -92l-23 23v0l92 92v0l23 -23v0zM140 419l-86 -86l86 86l-86 -86q-6 13 -6 27q1 28 19 46t46 19q14 0 27 -6v0zM375 269l89 -43l-89 43l89 -43v-33v0h-49v0l-40 76v0z" />
</svg>
