<?xml version="1.0" standalone="no"?>
<!DOCTYPE svg PUBLIC "-//W3C//DTD SVG 1.1//EN" "http://www.w3.org/Graphics/SVG/1.1/DTD/svg11.dtd" >
<svg xmlns="http://www.w3.org/2000/svg" xmlns:xlink="http://www.w3.org/1999/xlink" version="1.1" viewBox="-10 -40 660 512">
   <path fill="currentColor"
d="M119 56q-18 -29 -55 -31q-27 1 -45 19t-19 45q0 22 12 38q13 16 32 23q-12 31 -12 67q2 82 56 136t136 56q49 0 90 -22q40 -22 67 -59l148 77v0q7 4 15 4h2v0q14 0 24 -10l63 -70v0q7 -8 7 -19q0 -13 -10 -21l-277 -219v0q-57 -44 -129 -45q-59 1 -105 31v0zM69 104
q-3 1 -5 1q-15 -1 -16 -16q1 -15 16 -16q15 1 16 16v1v0q-6 7 -11 14v0zM403 285q-17 -8 -34 -4v0v0q-17 4 -27 19q-20 28 -51 44q-30 17 -67 17q-61 -2 -102 -42q-40 -41 -42 -102q2 -61 42 -102q41 -40 102 -42q55 1 99 34l70 56v0l-12 16v0q-12 18 5 33q18 12 33 -5
l11 -14v0l153 120v0l-41 45v0l-139 -73v0zM224 265q27 -1 42 -24q12 -24 0 -48q-15 -23 -42 -24q-27 1 -42 24q-12 24 0 48q15 23 42 24v0z" />
</svg>
