<?xml version="1.0" standalone="no"?>
<!DOCTYPE svg PUBLIC "-//W3C//DTD SVG 1.1//EN" "http://www.w3.org/Graphics/SVG/1.1/DTD/svg11.dtd" >
<svg xmlns="http://www.w3.org/2000/svg" xmlns:xlink="http://www.w3.org/1999/xlink" version="1.1" viewBox="-10 -40 660 512">
   <path fill="currentColor"
d="M448 105v224v-224v224h112v0q14 0 23 -9t9 -23v-160v0q0 -14 -9 -23t-23 -9h-112v0zM192 57h256h-256h368q34 1 57 23q22 23 23 57v160v0q-1 34 -23 57q-23 22 -57 23h-112h-368q-34 -1 -57 -23q-22 -23 -23 -57v-160v0q1 -34 23 -57q23 -22 57 -23h112v0zM192 329v-224
v224v-224h-112v0q-14 0 -23 9t-9 23v160v0q0 14 9 23t23 9h112v0zM272 193q22 -2 24 -24q-2 -22 -24 -24q-22 2 -24 24q2 22 24 24v0zM392 169q-2 -22 -24 -24q-22 2 -24 24q2 22 24 24q22 -2 24 -24v0zM272 289q22 -2 24 -24q-2 -22 -24 -24q-22 2 -24 24q2 22 24 24v0z
M392 265q-2 -22 -24 -24q-22 2 -24 24q2 22 24 24q22 -2 24 -24v0z" />
</svg>
