<?xml version="1.0" standalone="no"?>
<!DOCTYPE svg PUBLIC "-//W3C//DTD SVG 1.1//EN" "http://www.w3.org/Graphics/SVG/1.1/DTD/svg11.dtd" >
<svg xmlns="http://www.w3.org/2000/svg" xmlns:xlink="http://www.w3.org/1999/xlink" version="1.1" viewBox="-10 -40 660 512">
   <path fill="currentColor"
d="M384 9h80h-80h80v160v0h-288v0v-160v0h80v0v80v0q0 9 9 14q8 4 16 -1l39 -26v0l39 26v0q8 5 17 1q8 -5 8 -14v-80v0zM128 9v160v-160v160q1 20 14 34q14 13 34 14h288v0q20 -1 34 -14q13 -14 14 -34v-160v0q-1 -20 -14 -34q-14 -13 -34 -14h-288v0q-20 1 -34 14
q-13 14 -14 34v0zM592 361q-1 27 -19 45v0v0q-18 18 -45 19h-416v0q-27 -1 -45 -19t-19 -45q1 -27 19 -45t45 -19h416v0q27 1 45 19t19 45v0zM112 249q-48 1 -79 33v0v0q-32 31 -33 79q1 48 33 79q31 32 79 33h416v0q48 -1 79 -33q32 -31 33 -79q-1 -48 -33 -79
q-31 -32 -79 -33h-416v0zM160 361q0 -14 -9 -23v0v0q-9 -9 -23 -9t-23 9t-9 23t9 23t23 9t23 -9t9 -23v0zM320 393q14 0 23 -9v0v0q9 -9 9 -23t-9 -23t-23 -9t-23 9t-9 23t9 23t23 9v0zM544 361q0 -14 -9 -23v0v0q-9 -9 -23 -9t-23 9t-9 23t9 23t23 9t23 -9t9 -23v0z" />
</svg>
