<?xml version="1.0" standalone="no"?>
<!DOCTYPE svg PUBLIC "-//W3C//DTD SVG 1.1//EN" "http://www.w3.org/Graphics/SVG/1.1/DTD/svg11.dtd" >
<svg xmlns="http://www.w3.org/2000/svg" xmlns:xlink="http://www.w3.org/1999/xlink" version="1.1" viewBox="-11 0 598 512">
   <path fill="currentColor"
d="M288 9q23 1 35 20q10 20 0 40q-12 19 -35 20q-23 -1 -35 -20q-10 -20 0 -40q12 -19 35 -20v0zM288 137q50 -2 76 -44q24 -44 0 -88q-26 -42 -76 -44q-50 2 -76 44q-24 44 0 88q26 42 76 44v0zM24 281l-15 -19l15 19l-15 -19q-16 16 -4 34q16 16 34 4v0v0v0v0l1 -1v0l1 -1
q1 0 2 -1q5 -4 14 -10q18 -12 51 -28q29 -14 68 -26v160v0h48v0v-171v0q30 -5 64 -5t64 5v171v0h48v0v-160v0q39 12 68 26q33 16 52 28q7 5 12 9l1 1q2 1 3 2l1 1v0v0v0v0v0q18 12 34 -4q12 -18 -4 -34l-15 19v0q11 -13 13 -16q3 -3 2 -3v0v0v0v0v0v0v0v0l-1 -1v0v0v0
q-2 -1 -4 -3h-1q-5 -4 -15 -11q-21 -14 -57 -32q-37 -18 -88 -31q-51 -14 -113 -15q-62 1 -113 15q-51 13 -87 31q-37 18 -58 32q-10 7 -15 11q-2 1 -3 2q-1 0 -1 1q-1 1 -2 1v0v0v0v0v0v0v0v0l2 3t13 16v0zM0 449q2 22 24 24h528v0q22 -2 24 -24q-2 -22 -24 -24h-528v0
q-22 2 -24 24v0zM56 201q22 -2 24 -24q-2 -22 -24 -24q-22 2 -24 24q2 22 24 24v0zM336 337q-2 -22 -24 -24q-22 2 -24 24q2 22 24 24q22 -2 24 -24v0zM488 185q22 -2 24 -24q-2 -22 -24 -24q-22 2 -24 24q2 22 24 24v0z" />
</svg>
