<?xml version="1.0" standalone="no"?>
<!DOCTYPE svg PUBLIC "-//W3C//DTD SVG 1.1//EN" "http://www.w3.org/Graphics/SVG/1.1/DTD/svg11.dtd" >
<svg xmlns="http://www.w3.org/2000/svg" xmlns:xlink="http://www.w3.org/1999/xlink" version="1.1" viewBox="-10 -40 660 512">
   <path fill="currentColor"
d="M24 -39q-22 2 -24 24q2 22 24 24h48v0q7 1 8 8v352v0q1 24 16 40q16 15 40 16h24v0q1 20 14 34q14 13 34 14q20 -1 34 -14q13 -14 14 -34h192v0q1 20 14 34q14 13 34 14q20 -1 34 -14q13 -14 14 -34h72v0q22 -2 24 -24q-2 -22 -24 -24h-120h-360q-7 -1 -8 -8v-352v0
q-1 -24 -16 -40q-16 -15 -40 -16h-48v0zM240 41h128h-128h128v224v0h-128v0v-224v0zM192 41v224v-224v224q1 20 14 34q14 13 34 14h128v0q20 -1 34 -14q13 -14 14 -34v-224v0q-1 -20 -14 -34q-14 -13 -34 -14h-128v0q-20 1 -34 14q-13 14 -14 34v0zM560 41v64v-64v64h-64v0
v-64v0h64v0zM496 -7q-20 1 -34 14v0v0q-13 14 -14 34v64v0q1 20 14 34q14 13 34 14h64v0q20 -1 34 -14q13 -14 14 -34v-64v0q-1 -20 -14 -34q-14 -13 -34 -14h-64v0zM496 233h96h-96h96v32v0h-96v0v-32v0zM448 233v32v-32v32q1 20 14 34q14 13 34 14h96v0q20 -1 34 -14
q13 -14 14 -34v-32v0q-1 -20 -14 -34q-14 -13 -34 -14h-96v0q-20 1 -34 14q-13 14 -14 34v0z" />
</svg>
