<?xml version="1.0" standalone="no"?>
<!DOCTYPE svg PUBLIC "-//W3C//DTD SVG 1.1//EN" "http://www.w3.org/Graphics/SVG/1.1/DTD/svg11.dtd" >
<svg xmlns="http://www.w3.org/2000/svg" xmlns:xlink="http://www.w3.org/1999/xlink" version="1.1" viewBox="-10 -40 660 512">
   <path fill="currentColor"
d="M0 -15q2 -22 24 -24h48v0q24 1 40 16q15 16 16 40v352v0q1 7 8 8h72h408q22 2 24 24q-2 22 -24 24h-72v0q-1 20 -14 34q-14 13 -34 14q-20 -1 -34 -14q-13 -14 -14 -34h-192v0q-1 20 -14 34q-14 13 -34 14q-20 -1 -34 -14q-13 -14 -14 -34h-24v0q-24 -1 -40 -16
q-15 -16 -16 -40v-352v0q-1 -7 -8 -8h-48v0q-22 -2 -24 -24v0z" />
</svg>
