<?xml version="1.0" standalone="no"?>
<!DOCTYPE svg PUBLIC "-//W3C//DTD SVG 1.1//EN" "http://www.w3.org/Graphics/SVG/1.1/DTD/svg11.dtd" >
<svg xmlns="http://www.w3.org/2000/svg" xmlns:xlink="http://www.w3.org/1999/xlink" version="1.1" viewBox="-10 -40 660 512">
   <path fill="currentColor"
d="M80 121h16h-16h16v-120v0q0 -17 12 -28q11 -12 28 -12h157v0q27 1 37 26l83 219v0q3 7 3 14v13v0v72v0q31 28 32 72q-1 41 -28 68t-68 28q-41 -1 -68 -28t-28 -68h-64v0q-1 41 -28 68t-68 28q-41 -1 -68 -28t-28 -68v-48v0v-128v0q1 -34 23 -57q23 -22 57 -23v0zM240 201
h120h-120h120l-73 -192v0h-143v0v123v0l96 69v0zM240 249q-15 0 -28 -9l-99 -71v0h-33v0q-14 0 -23 9t-9 23v93v0q21 -13 48 -13t49 13q21 13 34 35h90v0q13 -22 34 -35q22 -13 49 -13q8 0 16 1v-33v0h-128v0zM96 425q27 -1 42 -24q12 -24 0 -48q-15 -23 -42 -24
q-27 1 -42 24q-12 24 0 48q15 23 42 24v0zM352 425q27 -1 42 -24q12 -24 0 -48q-15 -23 -42 -24q-27 1 -42 24q-12 24 0 48q15 23 42 24v0zM528 -15v376v-376v376h88v0q22 2 24 24q-2 22 -24 24h-112v0q-22 -2 -24 -24v-400v0q2 -22 24 -24q22 2 24 24v0z" />
</svg>
