<?xml version="1.0" standalone="no"?>
<!DOCTYPE svg PUBLIC "-//W3C//DTD SVG 1.1//EN" "http://www.w3.org/Graphics/SVG/1.1/DTD/svg11.dtd" >
<svg xmlns="http://www.w3.org/2000/svg" xmlns:xlink="http://www.w3.org/1999/xlink" version="1.1" viewBox="-10 -40 596 512">
   <path fill="currentColor"
d="M256 -39q-14 0 -23 9v0v0q-9 9 -9 23v64v0q0 14 9 23t23 9h64v0q14 0 23 -9t9 -23v-64v0q0 -14 -9 -23t-23 -9h-64v0zM192 25h-128h128h-128q-27 1 -45 19t-19 45v320v0q1 27 19 45t45 19h448v0q27 -1 45 -19t19 -45v-320v0q-1 -27 -19 -45t-45 -19h-128v0v48v0h128v0
q15 1 16 16v320v0q-1 15 -16 16h-448v0q-15 -1 -16 -16v-320v0q1 -15 16 -16h128v0v-48v0zM288 265q36 -1 55 -32q18 -32 0 -64q-19 -31 -55 -32q-36 1 -55 32q-18 32 0 64q19 31 55 32v0zM256 297q-34 1 -57 23v0v0q-22 23 -23 57q1 15 16 16h192v0q15 -1 16 -16
q-1 -34 -23 -57q-23 -22 -57 -23h-64v0z" />
</svg>
