<?xml version="1.0" standalone="no"?>
<!DOCTYPE svg PUBLIC "-//W3C//DTD SVG 1.1//EN" "http://www.w3.org/Graphics/SVG/1.1/DTD/svg11.dtd" >
<svg xmlns="http://www.w3.org/2000/svg" xmlns:xlink="http://www.w3.org/1999/xlink" version="1.1" viewBox="-10 -40 404 512">
   <path fill="currentColor"
d="M48 9h288h-288h288v32v0h-288v0v-32v0zM40 -39q-17 0 -28 12v0v0q-12 11 -12 28v48v0q0 17 12 28q11 12 28 12h304v0q17 0 28 -12q12 -11 12 -28v-48v0q0 -17 -12 -28q-11 -12 -28 -12h-304v0zM32 121v288v-288v288q1 27 19 45t45 19h192v0q27 -1 45 -19t19 -45v-288v0
h-48v0v288v0q-1 15 -16 16h-192v0q-15 -1 -16 -16v-32v0h56v0q22 -2 24 -24q-2 -22 -24 -24h-56v0v-48v0h56v0q22 -2 24 -24q-2 -22 -24 -24h-56v0v-48v0h56v0q22 -2 24 -24q-2 -22 -24 -24h-56v0v-16v0h-48v0z" />
</svg>
