<?xml version="1.0" standalone="no"?>
<!DOCTYPE svg PUBLIC "-//W3C//DTD SVG 1.1//EN" "http://www.w3.org/Graphics/SVG/1.1/DTD/svg11.dtd" >
<svg xmlns="http://www.w3.org/2000/svg" xmlns:xlink="http://www.w3.org/1999/xlink" version="1.1" viewBox="-10 -40 596 512">
   <path fill="currentColor"
d="M112 41q-27 1 -45 19v0v0q-18 18 -19 45q1 27 19 45t45 19h120h72v-128v0h-192v0zM79 212q-35 -11 -57 -40v0v0q-21 -29 -22 -67q1 -48 33 -79q31 -32 79 -33h192v0q20 1 34 14q13 14 14 34v128v0q-1 20 -14 34q-14 13 -34 14h-44v0l-116 198v0q-10 18 -29 23t-36 -5
l-54 -32v0q-17 -11 -22 -29t5 -36l71 -124v0zM132 217l-83 143l83 -143l-83 143l54 31v0l101 -174v0h-72v0zM440 -7h112h-112h112q22 2 24 24q-2 22 -24 24h-112v0q-22 -2 -24 -24q2 -22 24 -24v0zM416 177q2 -22 24 -24h112v0q22 2 24 24q-2 22 -24 24h-112v0
q-22 -2 -24 -24v0zM440 393h112h-112h112q22 2 24 24q-2 22 -24 24h-112v0q-22 -2 -24 -24q2 -22 24 -24v0zM416 105q1 -15 16 -16h128v0q15 1 16 16q-1 15 -16 16h-128v0q-15 -1 -16 -16v0zM432 249h128h-128h128q15 1 16 16q-1 15 -16 16h-128v0q-15 -1 -16 -16
q1 -15 16 -16v0zM416 329q1 -15 16 -16h128v0q15 1 16 16q-1 15 -16 16h-128v0q-15 -1 -16 -16v0z" />
</svg>
