<?xml version="1.0" standalone="no"?>
<!DOCTYPE svg PUBLIC "-//W3C//DTD SVG 1.1//EN" "http://www.w3.org/Graphics/SVG/1.1/DTD/svg11.dtd" >
<svg xmlns="http://www.w3.org/2000/svg" xmlns:xlink="http://www.w3.org/1999/xlink" version="1.1" viewBox="-10 -40 660 512">
   <path fill="currentColor"
d="M352 9h-224h224h-224q-15 1 -16 16v32v0h128v0q15 1 16 16q-1 15 -16 16h-224v0q-15 -1 -16 -16q1 -15 16 -16h48v0v-32v0q1 -27 19 -45t45 -19h224v0q27 1 45 19t19 45v32v0h43v0q23 0 39 16l94 94v0q16 16 16 39v123v0h8v0q22 2 24 24q-2 22 -24 24h-40v0q-1 41 -28 68
t-68 28q-41 -1 -68 -28t-28 -68h-8h-120q-1 41 -28 68t-68 28q-41 -1 -68 -28t-28 -68v-48v0v-80v0h48v0v45v0q21 -13 48 -13t49 13q21 13 34 35h77h32q15 -1 16 -16v-288v0q-1 -15 -16 -16v0zM558 201l-94 -94l94 94l-94 -94q-2 -2 -5 -2h-43v0v96v0h142v0v0v0v0v0z
M208 377q-1 -27 -24 -42q-24 -12 -48 0q-23 15 -24 42q1 27 24 42q24 12 48 0q23 -15 24 -42v0zM480 425q27 -1 42 -24q12 -24 0 -48q-15 -23 -42 -24q-27 1 -42 24q-12 24 0 48q15 23 42 24v0zM48 121h224h-224h224q15 1 16 16q-1 15 -16 16h-224v0q-15 -1 -16 -16
q1 -15 16 -16v0zM16 185h224h-224h224q15 1 16 16q-1 15 -16 16h-224v0q-15 -1 -16 -16q1 -15 16 -16v0z" />
</svg>
