<?xml version="1.0" standalone="no"?>
<!DOCTYPE svg PUBLIC "-//W3C//DTD SVG 1.1//EN" "http://www.w3.org/Graphics/SVG/1.1/DTD/svg11.dtd" >
<svg xmlns="http://www.w3.org/2000/svg" xmlns:xlink="http://www.w3.org/1999/xlink" version="1.1" viewBox="-10 -40 468 512">
   <path fill="currentColor"
d="M64 41q-15 1 -16 16v320v0q1 15 16 16h320v0q15 -1 16 -16v-320v0q-1 -15 -16 -16h-320v0zM0 57q1 -27 19 -45v0v0q18 -18 45 -19h320v0q27 1 45 19t19 45v320v0q-1 27 -19 45t-45 19h-320v0q-27 -1 -45 -19t-19 -45v-320v0zM128 95q2 -20 22 -22h26v0l32 64v0l-32 32v0
l80 64v0l-32 -64v0l48 -32v0l-32 -64v0h58v0q20 2 22 22v90v0q-1 36 -23 62t-57 33v49v0h32v0q15 1 16 16q-1 15 -16 16h-96v0q-15 -1 -16 -16q1 -15 16 -16h32v0v-49v0q-35 -7 -57 -33t-23 -62v-90v0z" />
</svg>
