<?xml version="1.0" standalone="no"?>
<!DOCTYPE svg PUBLIC "-//W3C//DTD SVG 1.1//EN" "http://www.w3.org/Graphics/SVG/1.1/DTD/svg11.dtd" >
<svg xmlns="http://www.w3.org/2000/svg" xmlns:xlink="http://www.w3.org/1999/xlink" version="1.1" viewBox="-10 -40 532 512">
   <path fill="currentColor"
d="M208 377q-1 -20 -14 -34v0v0q-14 -13 -34 -14h-96v0q-15 -1 -16 -16v-288v0q1 -15 16 -16h384v0q15 1 16 16v288v0q-1 15 -16 16h-139v0q-16 0 -28 10l-73 54v0v-16v0zM208 453v0v0v0l101 -76v0h139v0q27 -1 45 -19t19 -45v-288v0q-1 -27 -19 -45t-45 -19h-384v0
q-27 1 -45 19t-19 45v288v0q1 27 19 45t45 19h48h48v48v0v4v0v0v0v7v0v21v0q0 10 9 14t17 -1l17 -13v0l5 -4v0zM144 201q14 0 23 -9v0v0q9 -9 9 -23t-9 -23t-23 -9t-23 9t-9 23t9 23t23 9v0zM288 169q0 -14 -9 -23v0v0q-9 -9 -23 -9t-23 9t-9 23t9 23t23 9t23 -9t9 -23v0z
M368 201q14 0 23 -9v0v0q9 -9 9 -23t-9 -23t-23 -9t-23 9t-9 23t9 23t23 9v0z" />
</svg>
