<?xml version="1.0" standalone="no"?>
<!DOCTYPE svg PUBLIC "-//W3C//DTD SVG 1.1//EN" "http://www.w3.org/Graphics/SVG/1.1/DTD/svg11.dtd" >
<svg xmlns="http://www.w3.org/2000/svg" xmlns:xlink="http://www.w3.org/1999/xlink" version="1.1" viewBox="-10 -40 532 512">
   <path fill="currentColor"
d="M168 346q-24 -8 -44 6q-13 10 -40 23q9 -22 12 -49q1 -20 -12 -36q-36 -40 -36 -89q1 -62 57 -110q56 -47 151 -50q95 3 151 50q56 48 57 110q-1 62 -57 110q-56 47 -151 50q-48 0 -88 -15v0zM26 385q-2 4 -5 8v0v0l-2 4l-3 3q-5 7 -11 14q-7 7 -4 17q5 10 15 10h8t8 -1
v0v0q7 -1 13 -2h3v0q27 -6 50 -16q35 -17 54 -31q48 18 104 18q72 -1 130 -28q57 -28 91 -75t35 -105q-1 -58 -35 -105t-92 -75q-57 -27 -129 -28q-72 1 -129 28q-58 28 -92 75t-35 105q1 69 48 121q-5 37 -22 63v0zM256 73q-22 2 -24 24v112v0q2 22 24 24q22 -2 24 -24
v-112v0q-2 -22 -24 -24v0zM288 297q0 -14 -9 -23v0v0q-9 -9 -23 -9t-23 9t-9 23t9 23t23 9t23 -9t9 -23v0z" />
</svg>
