<?xml version="1.0" standalone="no"?>
<!DOCTYPE svg PUBLIC "-//W3C//DTD SVG 1.1//EN" "http://www.w3.org/Graphics/SVG/1.1/DTD/svg11.dtd" >
<svg xmlns="http://www.w3.org/2000/svg" xmlns:xlink="http://www.w3.org/1999/xlink" version="1.1" viewBox="-10 -40 660 512">
   <path fill="currentColor"
d="M448 41h-256h256h-256q-34 1 -57 23q-22 23 -23 57v40v0q-19 -8 -40 -8h-8v-32v0q1 -54 37 -91q37 -36 91 -37h256v0q54 1 91 37q36 37 37 91v32v0h-8q-21 0 -40 8v-40v0q-1 -34 -23 -57q-23 -22 -57 -23v0zM568 185h8q28 4 46 24q17 20 18 48v136v0q-1 20 -14 34
q-14 13 -34 14h-48v0q-33 -2 -45 -32h-358v0q-12 30 -45 32h-48v0q-20 -1 -34 -14q-13 -14 -14 -34v-136v0q1 -28 19 -48q17 -20 45 -24h8q23 0 41 13q26 18 31 51h352v0q5 -33 31 -51q18 -13 41 -13v0zM544 257v40v-40v40v64v0v32v0h48v0v-136v0q-2 -22 -24 -24
q-22 2 -24 24v0zM496 361v-64v64v-64h-352v0v64v0h352v0zM96 361v-64v64v-64v-40v0q-2 -22 -24 -24q-22 2 -24 24v136v0h48v0v-32v0z" />
</svg>
