<?xml version="1.0" standalone="no"?>
<!DOCTYPE svg PUBLIC "-//W3C//DTD SVG 1.1//EN" "http://www.w3.org/Graphics/SVG/1.1/DTD/svg11.dtd" >
<svg xmlns="http://www.w3.org/2000/svg" xmlns:xlink="http://www.w3.org/1999/xlink" version="1.1" viewBox="-10 -40 532 512">
   <path fill="currentColor"
d="M256 9q43 0 80 21v0v0q37 22 59 59q21 38 21 80t-21 80q-22 37 -59 59q-37 21 -80 21t-80 -21q-37 -22 -59 -59q-21 -38 -21 -80t21 -80q22 -37 59 -59q37 -21 80 -21v0zM256 377q57 0 104 -28v0v0q47 -27 76 -76q28 -49 28 -104t-28 -104q-29 -49 -76 -76
q-47 -28 -104 -28t-104 28q-47 27 -76 76q-28 49 -28 104t28 104q29 49 76 76q47 28 104 28v0zM64 313q-27 1 -45 19v0v0q-18 18 -19 45v32v0q1 27 19 45t45 19h384v0q27 -1 45 -19t19 -45v-32v0q-1 -27 -19 -45t-45 -19q-21 27 -48 48h48v0q15 1 16 16v32v0q-1 15 -16 16
h-384v0q-15 -1 -16 -16v-32v0q1 -15 16 -16h48v0q-27 -21 -48 -48v0zM276 65q-2 -18 -20 -20q-18 2 -20 20v14v0q-12 2 -22 9q-24 12 -26 43q3 30 25 41q18 10 35 14l2 1v0q19 5 28 10q7 5 6 8q0 8 -6 11q-8 5 -21 5q-16 -1 -35 -9l-8 -2q-18 -4 -25 12q-4 18 13 26l6 2v0v0
v0v0q12 5 28 8v15v0q2 18 20 20q18 -2 20 -20v-14v0q12 -2 23 -9q23 -13 25 -45q-3 -30 -25 -41q-18 -11 -37 -15v-1v0q-19 -5 -29 -10q-6 -4 -5 -7q-1 -5 6 -9q9 -5 22 -5q14 0 31 5q18 3 24 -14q3 -18 -14 -25q-10 -2 -21 -4v-14v0z" />
</svg>
