<?xml version="1.0" standalone="no"?>
<!DOCTYPE svg PUBLIC "-//W3C//DTD SVG 1.1//EN" "http://www.w3.org/Graphics/SVG/1.1/DTD/svg11.dtd" >
<svg xmlns="http://www.w3.org/2000/svg" xmlns:xlink="http://www.w3.org/1999/xlink" version="1.1" viewBox="-10 -40 596 512">
   <path fill="currentColor"
d="M312 -15v11v-11v11q10 1 18 4q21 7 17 29q-7 21 -29 17q-17 -5 -30 -5q-12 0 -20 5q-3 2 -3 3q-1 0 -1 2v1v0v0q0 1 3 3q9 4 28 10h1v0q18 4 37 15q24 13 27 45q-2 34 -27 49q-10 6 -21 8v11v0q-2 22 -24 24q-22 -2 -24 -24v-11v0q-14 -4 -24 -8h-2q-1 -1 -2 -1
q-2 -1 -4 -1q-20 -9 -15 -31q9 -20 30 -15q2 1 4 1l4 2q19 7 34 8q12 0 19 -4q3 -2 3 -3q1 -1 1 -4v0v0q1 -1 -4 -5q-8 -5 -27 -10l-2 -1v0q-18 -4 -37 -14q-23 -12 -26 -44q3 -35 28 -48q9 -5 20 -8v-11v0q2 -22 24 -24q22 2 24 24v0zM187 313q-12 0 -22 7l-80 53v0
q-6 4 -13 4h-48v0q-22 -2 -24 -24q2 -22 24 -24h41v0l74 -49v0q22 -15 48 -15h157v0q27 1 45 19t19 45v1v1l65 -40v0q16 -10 35 -10h8v0q25 1 42 18t18 42q-1 33 -27 51l-96 62v0q-30 19 -65 19h-364v0q-22 -2 -24 -24q2 -22 24 -24h364v0q21 0 39 -12l95 -61v0q6 -4 6 -11
q-1 -11 -12 -12h-8v0q-5 0 -10 3l-93 57v0q-6 4 -13 4h-48h-88q-22 -2 -24 -24q2 -22 24 -24h64h24q15 -1 16 -16q-1 -15 -16 -16h-157v0z" />
</svg>
