<?xml version="1.0" standalone="no"?>
<!DOCTYPE svg PUBLIC "-//W3C//DTD SVG 1.1//EN" "http://www.w3.org/Graphics/SVG/1.1/DTD/svg11.dtd" >
<svg xmlns="http://www.w3.org/2000/svg" xmlns:xlink="http://www.w3.org/1999/xlink" version="1.1" viewBox="-10 -40 660 512">
   <path fill="currentColor"
d="M196 98l102 103l-102 -103l102 103q9 10 22 10t23 -10l101 -103v0q22 -24 22 -54q0 -31 -22 -54q-23 -22 -53 -22t-53 22l-18 18v0l-18 -18v0q-23 -22 -53 -22t-53 22q-22 23 -22 54q0 30 22 54v0zM144 97q-1 -31 -21 -51v0v0q-20 -20 -51 -21q-31 1 -51 21t-21 51v216v0
q1 50 35 85l68 68v0q17 14 34 0q14 -17 0 -34l-68 -68v0q-21 -21 -21 -51v-216v0q2 -22 24 -24q22 2 24 24v146v0q1 40 28 68l16 16v0v0v0l27 27v0v0v0l16 16v0q17 14 34 0q14 -17 0 -34l-16 -16v0v0v0l-27 -27v0q-6 -6 -6 -15q2 -19 21 -21q9 0 15 6l62 62v0q29 30 30 73
v51v0q2 22 24 24q22 -2 24 -24v-51v0q1 -43 30 -73l62 -62v0q6 -6 15 -6q19 2 21 21q0 9 -6 15l-27 27v0v0v0l-16 16v0q-14 17 0 34q17 14 34 0l16 -16v0v0v0l27 -27v0v0v0l16 -16v0q27 -28 28 -68v-146v0q2 -22 24 -24q22 2 24 24v216v0q-1 30 -21 51l-68 68v0q-14 17 0 34
q17 14 34 0l68 -68v0q34 -35 35 -85v-216v0q-1 -31 -21 -51t-51 -21q-31 1 -51 21t-21 51v129v0q-19 -16 -45 -17q-29 0 -49 20l-62 62v0q-11 11 -20 25q-9 -14 -21 -25l-61 -62v0q-20 -20 -49 -20q-26 1 -45 17v-129v0z" />
</svg>
