<?xml version="1.0" standalone="no"?>
<!DOCTYPE svg PUBLIC "-//W3C//DTD SVG 1.1//EN" "http://www.w3.org/Graphics/SVG/1.1/DTD/svg11.dtd" >
<svg xmlns="http://www.w3.org/2000/svg" xmlns:xlink="http://www.w3.org/1999/xlink" version="1.1" viewBox="-10 -40 660 512">
   <path fill="currentColor"
d="M264 281q31 -1 51 -21v0v0q20 -20 21 -51v-8v0h104v0q22 2 24 24q-1 19 -19 24q-12 2 -18 13q-5 12 2 23q3 5 3 12q-2 22 -24 24t-24 24q-1 15 -16 16h-16h-99q-23 0 -39 16l-55 55v0q-14 17 0 34q17 14 34 0l55 -55v0q2 -2 5 -2h67h48q21 0 37 -12q17 -12 24 -31
q22 -7 36 -25q15 -19 15 -44q0 -6 -1 -11q31 -21 33 -61q-1 -31 -21 -51t-51 -21h-104v0v-24v0q-2 -22 -24 -24q-22 2 -24 24v80v0q-2 22 -24 24q-22 -2 -24 -24v-96v0q0 -17 12 -28q11 -12 28 -12h139v0q23 0 39 -16l55 -55v0q14 -17 0 -34q-17 -14 -34 0l-55 55v0
q-2 2 -5 2h-139v0q-37 1 -62 26t-26 62v96v0q1 31 21 51t51 21v0zM160 94q-30 12 -39 44l-22 81v0q-1 2 -2 3l-90 90v0q-14 17 0 34q17 14 34 0l90 -90v0q11 -11 14 -25l15 -55v0v-82v0zM543 212l90 -90l-90 90l90 -90q14 -17 0 -34q-17 -14 -34 0l-75 75v0q16 22 19 49v0z
" />
</svg>
