<?xml version="1.0" standalone="no"?>
<!DOCTYPE svg PUBLIC "-//W3C//DTD SVG 1.1//EN" "http://www.w3.org/Graphics/SVG/1.1/DTD/svg11.dtd" >
<svg xmlns="http://www.w3.org/2000/svg" xmlns:xlink="http://www.w3.org/1999/xlink" version="1.1" viewBox="-10 -40 468 512">
   <path fill="currentColor"
d="M64 41q-15 1 -16 16v320v0q1 15 16 16h320v0q15 -1 16 -16v-320v0q-1 -15 -16 -16h-320v0zM0 57q1 -27 19 -45v0v0q18 -18 45 -19h320v0q27 1 45 19t19 45v320v0q-1 27 -19 45t-45 19h-320v0q-27 -1 -45 -19t-19 -45v-320v0zM336 227l-92 93l92 -93l-92 93q-9 8 -20 8
t-20 -8l-92 -93v0q-19 -22 -19 -49t19 -49q21 -20 48 -20t48 20l16 17v0l16 -17v0q21 -20 48 -20t48 20q20 22 20 49t-20 49v0z" />
</svg>
