<?xml version="1.0" standalone="no"?>
<!DOCTYPE svg PUBLIC "-//W3C//DTD SVG 1.1//EN" "http://www.w3.org/Graphics/SVG/1.1/DTD/svg11.dtd" >
<svg xmlns="http://www.w3.org/2000/svg" xmlns:xlink="http://www.w3.org/1999/xlink" version="1.1" viewBox="-10 -40 532 512">
   <path fill="currentColor"
d="M272 105h104h-104h104q48 -1 86 -25q2 18 2 38q-1 72 -28 126q-27 55 -70 85q-44 31 -93 32v0v0h-1v0v0v0q-54 -1 -91 -37q-36 -37 -37 -91q1 -54 37 -91q37 -36 91 -37v0zM451 29q-31 27 -75 28h-104v0q-72 2 -120 48q-49 46 -56 116q-44 30 -70 76q-25 47 -26 104v16v0
q2 22 24 24q22 -2 24 -24v-16v0q2 -75 54 -123q16 58 62 94t108 37h1v0q67 -1 121 -40t85 -105q32 -65 33 -146q0 -40 -8 -77q-1 -1 -1 -3q0 -1 -1 -2q-3 -14 -7 -27q-2 -6 -4 -11t-8 -5q-5 0 -8 5q-2 4 -5 8q-7 11 -17 21q-1 1 -2 1v1v0zM190 204q0 22 16 38l71 69v0
q11 9 22 0l71 -69v0q16 -16 16 -38q0 -23 -15 -38q-16 -15 -38 -16h-2v0q-22 1 -38 16l-5 5v0l-5 -5v0q-16 -15 -38 -16h-2v0q-23 1 -38 16t-15 38v0z" />
</svg>
