<?xml version="1.0" standalone="no"?>
<!DOCTYPE svg PUBLIC "-//W3C//DTD SVG 1.1//EN" "http://www.w3.org/Graphics/SVG/1.1/DTD/svg11.dtd" >
<svg xmlns="http://www.w3.org/2000/svg" xmlns:xlink="http://www.w3.org/1999/xlink" version="1.1" viewBox="-10 -40 532 512">
   <path fill="currentColor"
d="M464 217q0 -57 -28 -104v0v0q-27 -47 -76 -76q-49 -28 -104 -28t-104 28q-49 29 -76 76q-28 47 -28 104t28 104q27 47 76 76q49 28 104 28t104 -28q49 -29 76 -76q28 -47 28 -104v0zM0 217q1 -70 34 -128v0v0q34 -58 94 -94q61 -34 128 -34t128 34q60 36 94 94
q33 58 34 128q-1 70 -34 128q-34 58 -94 94q-61 34 -128 34t-128 -34q-60 -36 -94 -94q-33 -58 -34 -128v0zM178 279q11 13 31 23v0v0q19 10 47 11q28 -1 47 -11q20 -10 31 -23q17 -15 34 -1q15 16 2 34q-17 18 -45 33q-29 15 -69 16q-40 -1 -69 -16q-28 -15 -45 -33
q-13 -18 2 -34q17 -14 34 1v0zM144 169q1 -14 10 -23v0v0q9 -9 22 -9q14 0 23 9t9 23t-9 23t-23 9q-13 0 -22 -9t-10 -23v0zM310 191q-14 12 -28 1q-12 -14 -1 -29q24 -22 55 -22t54 22q11 15 -1 29q-14 11 -28 -1q-9 -10 -25 -10q-17 0 -26 10v0z" />
</svg>
