<?xml version="1.0" standalone="no"?>
<!DOCTYPE svg PUBLIC "-//W3C//DTD SVG 1.1//EN" "http://www.w3.org/Graphics/SVG/1.1/DTD/svg11.dtd" >
<svg xmlns="http://www.w3.org/2000/svg" xmlns:xlink="http://www.w3.org/1999/xlink" version="1.1" viewBox="-10 -40 660 512">
   <path fill="currentColor"
d="M0 65q1 -31 21 -51v0v0q20 -20 51 -21h256v0q31 1 51 21t21 51v184v0q-2 22 -24 24q-22 -2 -24 -24v-184v0q-2 -22 -24 -24h-256v0q-22 2 -24 24v184v0q-2 22 -24 24q-22 -2 -24 -24v-184v0zM608 361q-1 34 -23 57v0v0q-23 22 -57 23q-34 -1 -57 -23q-22 -23 -23 -57h-16
h-144q-1 34 -23 57q-23 22 -57 23q-41 -1 -64 -32q-23 31 -64 32q-34 -1 -57 -23q-22 -23 -23 -57q1 -34 23 -57q23 -22 57 -23q41 1 64 32q23 -31 64 -32q41 1 64 32h160v0v-96v0v-88v0q2 -22 24 -24h73v0q26 1 43 21l59 71v0q9 11 9 26v10v0v16v0v80v0q0 14 -9 23t-23 9v0
zM585 217l-50 -61l50 61l-50 -61q-2 -3 -6 -3h-49v0v64v0h105v0zM136 97v128v-128v128q-2 22 -24 24q-22 -2 -24 -24v-128v0q2 -22 24 -24q22 2 24 24v0zM224 97v128v-128v128q-2 22 -24 24q-22 -2 -24 -24v-128v0q2 -22 24 -24q22 2 24 24v0zM312 97v128v-128v128
q-2 22 -24 24q-22 -2 -24 -24v-128v0q2 -22 24 -24q22 2 24 24v0zM528 393q14 0 23 -9v0v0q9 -9 9 -23t-9 -23t-23 -9t-23 9t-9 23t9 23t23 9v0zM240 361q0 -14 -9 -23v0v0q-9 -9 -23 -9t-23 9t-9 23t9 23t23 9t23 -9t9 -23v0zM80 393q14 0 23 -9v0v0q9 -9 9 -23t-9 -23
t-23 -9t-23 9t-9 23t9 23t23 9v0z" />
</svg>
