<?xml version="1.0" standalone="no"?>
<!DOCTYPE svg PUBLIC "-//W3C//DTD SVG 1.1//EN" "http://www.w3.org/Graphics/SVG/1.1/DTD/svg11.dtd" >
<svg xmlns="http://www.w3.org/2000/svg" xmlns:xlink="http://www.w3.org/1999/xlink" version="1.1" viewBox="-10 -40 652 512">
   <path fill="currentColor"
d="M224 9q45 1 69 40q22 40 0 80q-24 39 -69 40q-45 -1 -69 -40q-22 -40 0 -80q24 -39 69 -40v0zM224 217q35 0 64 -17v0v0q29 -17 47 -47q17 -30 17 -64t-17 -64q-18 -30 -47 -47t-64 -17t-64 17t-47 47q-17 30 -17 64t17 64q18 30 47 47t64 17v0zM178 313h92h-92h92
q50 1 86 32q35 31 43 80h-350v0q8 -49 43 -80q36 -31 86 -32v0zM178 265q-75 2 -126 52v0v0q-50 51 -52 126q0 13 9 21q8 9 21 9h388v0q13 0 21 -9q9 -8 9 -21q-2 -75 -52 -126q-51 -50 -126 -52h-92v0zM625 138q14 -17 0 -34q-17 -14 -34 0l-111 111v0l-47 -47v0
q-17 -14 -34 0q-14 17 0 34l64 64v0q17 14 34 0l128 -128v0z" />
</svg>
