<?xml version="1.0" standalone="no"?>
<!DOCTYPE svg PUBLIC "-//W3C//DTD SVG 1.1//EN" "http://www.w3.org/Graphics/SVG/1.1/DTD/svg11.dtd" >
<svg xmlns="http://www.w3.org/2000/svg" xmlns:xlink="http://www.w3.org/1999/xlink" version="1.1" viewBox="-10 -40 660 512">
   <path fill="currentColor"
d="M304 89q-1 -45 -40 -69q-40 -22 -80 0q-39 24 -40 69q1 45 40 69q40 22 80 0q39 -24 40 -69v0zM96 89q0 -35 17 -64v0v0q17 -29 47 -47q30 -17 64 -17t64 17q30 18 47 47t17 64t-17 64t-47 47q-30 17 -64 17t-64 -17q-30 -18 -47 -47t-17 -64v0zM49 425h300h-300h300
q18 28 46 48h-365v0q-13 0 -21 -9q-9 -8 -9 -21q2 -75 52 -126q51 -50 126 -52h92v0q31 0 59 10q-8 23 -9 48q-23 -10 -50 -10h-92v0q-50 1 -85 32q-36 31 -44 80v0zM352 329q0 -39 19 -72v0v0q19 -33 53 -53q34 -19 72 -19t72 19q34 20 53 53t19 72t-19 72t-53 53
q-34 19 -72 19t-72 -19q-34 -20 -53 -53t-19 -72v0zM496 249q-15 1 -16 16v64v0q1 15 16 16h48v0q15 -1 16 -16q-1 -15 -16 -16h-32v0v-48v0q-1 -15 -16 -16v0z" />
</svg>
