<?xml version="1.0" standalone="no"?>
<!DOCTYPE svg PUBLIC "-//W3C//DTD SVG 1.1//EN" "http://www.w3.org/Graphics/SVG/1.1/DTD/svg11.dtd" >
<svg xmlns="http://www.w3.org/2000/svg" xmlns:xlink="http://www.w3.org/1999/xlink" version="1.1" viewBox="-10 -40 653 512">
   <path fill="currentColor"
d="M144 89q1 -45 40 -69q40 -22 80 0q39 24 40 69q-1 45 -40 69q-40 22 -80 0q-39 -24 -40 -69v0zM352 89q0 -35 -17 -64v0v0q-17 -29 -47 -47q-30 -17 -64 -17t-64 17q-30 18 -47 47t-17 64t17 64t47 47q30 17 64 17t64 -17q30 -18 47 -47t17 -64v0zM49 425q8 -49 43 -80v0
v0q36 -31 86 -32h92v0q28 0 52 11q-2 -9 -2 -19v-33v0q-24 -7 -50 -7h-92v0q-75 2 -126 52q-50 51 -52 126q0 13 9 21q8 9 21 9h388v0q16 -1 25 -12l-46 -46v0l2 10h-350v0zM384 185q-14 0 -23 9v0v0q-9 9 -9 23v83v0q0 26 19 45l107 107v0q15 14 34 14t34 -14l73 -73v0
q14 -15 14 -34t-14 -34l-107 -107v0q-19 -19 -45 -19h-83v0zM408 265q2 -22 24 -24q22 2 24 24q-2 22 -24 24q-22 -2 -24 -24v0z" />
</svg>
