<?xml version="1.0" standalone="no"?>
<!DOCTYPE svg PUBLIC "-//W3C//DTD SVG 1.1//EN" "http://www.w3.org/Graphics/SVG/1.1/DTD/svg11.dtd" >
<svg xmlns="http://www.w3.org/2000/svg" xmlns:xlink="http://www.w3.org/1999/xlink" version="1.1" viewBox="-10 -40 523 512">
   <path fill="currentColor"
d="M0 41q1 -34 23 -57v0v0q23 -22 57 -23h48h343q16 1 25 12q9 12 6 28l-76 306v0q24 12 39 34q15 23 15 52v16v0q-1 27 -19 45t-45 19h-256v0q-27 -1 -45 -19t-19 -45v-16v0q0 -31 17 -54q17 -24 44 -35l-8 -87v0h-69v0q-34 -1 -57 -23q-22 -23 -23 -57v-96v0zM144 393v16
v-16v16q1 15 16 16h256v0q15 -1 16 -16v-16v0q-1 -20 -14 -34q-14 -13 -34 -14h-192v0q-20 1 -34 14q-13 14 -14 34v0zM407 185h-103h103h-103q-15 -1 -16 -16q1 -15 16 -16h111v0l16 -64v0h-127v0q-15 -1 -16 -16q1 -15 16 -16h135v0l12 -48v0h-271v0l24 288v0h175v0
l28 -112v0zM80 9q-14 0 -23 9v0v0q-9 9 -9 23v96v0q0 14 9 23t23 9h65v0l-13 -160v0h-52v0zM288 361q22 2 24 24q-2 22 -24 24q-22 -2 -24 -24q2 -22 24 -24v0z" />
</svg>
