<?xml version="1.0" standalone="no"?>
<!DOCTYPE svg PUBLIC "-//W3C//DTD SVG 1.1//EN" "http://www.w3.org/Graphics/SVG/1.1/DTD/svg11.dtd" >
<svg xmlns="http://www.w3.org/2000/svg" xmlns:xlink="http://www.w3.org/1999/xlink" version="1.1" viewBox="-10 -40 660 512">
   <path fill="currentColor"
d="M576 9h-352h352h-352q-15 1 -16 16v41v0q-22 -9 -48 -9v-32v0q1 -27 19 -45t45 -19h352v0q27 1 45 19t19 45v288v0q-1 27 -19 45t-45 19h-32h-207q-13 -27 -34 -48h65v0v-40v0q1 -24 16 -40q16 -15 40 -16h64v0q24 1 40 16q15 16 16 40v40v0h32v0q15 -1 16 -16v-288v0
q-1 -15 -16 -16v0zM496 329v-40v40v-40q-1 -7 -8 -8h-64v0q-7 1 -8 8v40v0h80v0zM208 185q-1 -27 -24 -42q-24 -12 -48 0q-23 15 -24 42q1 27 24 42q24 12 48 0q23 -15 24 -42v0zM64 185q0 -26 13 -48v0v0q13 -22 35 -35q23 -13 48 -13t48 13q22 13 35 35t13 48t-13 48
t-35 35q-23 13 -48 13t-48 -13q-22 -13 -35 -35t-13 -48v0zM51 425h218h-218h218q-7 -28 -30 -46q-22 -17 -52 -18h-54v0q-30 1 -52 18q-23 18 -30 46v0zM0 446q1 -56 39 -94v0v0q38 -38 94 -39h54v0q56 1 94 39t39 94q-2 25 -27 27h-266v0q-25 -2 -27 -27v0z" />
</svg>
