<?xml version="1.0" standalone="no"?>
<!DOCTYPE svg PUBLIC "-//W3C//DTD SVG 1.1//EN" "http://www.w3.org/Graphics/SVG/1.1/DTD/svg11.dtd" >
<svg xmlns="http://www.w3.org/2000/svg" xmlns:xlink="http://www.w3.org/1999/xlink" version="1.1" viewBox="-10 -40 532 512">
   <path fill="currentColor"
d="M176 49v0v0v0l1 2q0 1 4 5h1q0 1 1 1q-29 1 -55 4v-12v0q2 -27 21 -43q18 -15 44 -25q52 -19 127 -20q75 1 127 20q26 10 44 25q19 16 21 43v104v0v104v0q-2 27 -21 43q-18 15 -44 25q-14 5 -31 9v-49v0q8 -3 14 -5q21 -8 29 -16l5 -5v-2v0v0v0v-44v0q-8 4 -17 8
q-14 5 -31 9v-49v0q8 -3 14 -5q21 -8 29 -16l5 -5v-2v0v0v0v0v-44v0q-8 4 -17 8q-20 7 -46 12q-8 -11 -17 -19q-15 -13 -34 -22q49 -4 80 -16q21 -8 29 -16q4 -4 5 -6v-1v0v0v0v0v0v0v-2l-5 -5q-8 -8 -29 -16q-42 -16 -110 -17q-68 1 -110 17q-21 8 -29 16q-4 4 -4 5l-1 2v0
v0zM48 177v0v0v0l1 2q0 1 4 5q8 8 29 16q42 16 110 17q68 -1 110 -17q21 -8 29 -16q4 -4 4 -5l1 -2v0v0v0v0v0v0l-1 -1q0 -2 -4 -6q-8 -8 -29 -16q-42 -16 -110 -17q-68 1 -110 17q-21 8 -29 16q-4 4 -4 6l-1 1v0v0v0zM0 177q2 -27 21 -43q18 -15 44 -25q52 -19 127 -20
q75 1 127 20q26 10 44 25q19 16 21 43v104v0v104v0q-2 27 -21 43q-18 15 -44 25q-52 19 -127 20q-75 -1 -127 -20q-26 -10 -44 -25q-19 -16 -21 -43v-104v0v-104v0zM336 281v-44v44v-44q-8 4 -17 8q-52 19 -127 20q-75 -1 -127 -20q-9 -4 -17 -7v43v0v0v0l1 2q0 1 4 5
q8 8 29 16q42 16 110 17q68 -1 110 -17q21 -8 29 -16q4 -4 4 -5l1 -2v0v0v0v0zM65 349q-9 -4 -17 -7v43v0v0v0l1 2q0 1 4 5q8 8 29 16q42 16 110 17q68 -1 110 -17q21 -8 29 -16q4 -4 4 -5l1 -2v0v0v-44v0q-8 4 -17 8q-52 19 -127 20q-75 -1 -127 -20v0z" />
</svg>
