<?xml version="1.0" standalone="no"?>
<!DOCTYPE svg PUBLIC "-//W3C//DTD SVG 1.1//EN" "http://www.w3.org/Graphics/SVG/1.1/DTD/svg11.dtd" >
<svg xmlns="http://www.w3.org/2000/svg" xmlns:xlink="http://www.w3.org/1999/xlink" version="1.1" viewBox="-10 -40 596 512">
   <path fill="currentColor"
d="M64 73h448h-448h448q15 1 16 16v8v0q-31 28 -32 72q1 44 32 72v24v0h-480v0v-24v0q31 -28 32 -72q-1 -44 -32 -72v-8v0q1 -15 16 -16v0zM528 313v48v-48v48h-56v0q-2 -22 -24 -24q-22 2 -24 24h-32v0q-2 -22 -24 -24q-22 2 -24 24h-32v0q-2 -22 -24 -24q-22 2 -24 24h-32
v0q-2 -22 -24 -24q-22 2 -24 24h-32v0q-2 -22 -24 -24q-22 2 -24 24h-56v0v-48v0h480v0zM64 25q-27 1 -45 19v0v0q-18 18 -19 45v23v0q1 11 10 17q21 14 22 40q-1 26 -22 40q-9 6 -10 17v151v0q0 14 9 23t23 9h512v0q14 0 23 -9t9 -23v-151v0q-1 -11 -10 -17
q-21 -14 -22 -40q1 -26 22 -40q9 -6 10 -17v-23v0q-1 -27 -19 -45t-45 -19h-448v0zM168 105q-22 2 -24 24v80v0q2 22 24 24q22 -2 24 -24v-80v0q-2 -22 -24 -24v0zM288 105q-22 2 -24 24v80v0q2 22 24 24q22 -2 24 -24v-80v0q-2 -22 -24 -24v0zM408 105q-22 2 -24 24v80v0
q2 22 24 24q22 -2 24 -24v-80v0q-2 -22 -24 -24v0z" />
</svg>
