<?xml version="1.0" standalone="no"?>
<!DOCTYPE svg PUBLIC "-//W3C//DTD SVG 1.1//EN" "http://www.w3.org/Graphics/SVG/1.1/DTD/svg11.dtd" >
<svg xmlns="http://www.w3.org/2000/svg" xmlns:xlink="http://www.w3.org/1999/xlink" version="1.1" viewBox="-11 0 662 512">
   <path fill="currentColor"
d="M472 306q23 -40 24 -89v-40v0q-2 -22 -24 -24q-22 2 -24 24v40v0q0 32 -14 59l-26 -20v0q8 -18 8 -39v-160v0q-1 -41 -28 -68t-68 -28q-41 1 -68 28t-28 68v54v0l-185 -145v0q-19 -12 -34 4q-12 19 4 34l592 464v0q19 12 34 -4q12 -19 -4 -34l-159 -124v0zM272 149v-92
v92v-92q1 -20 14 -34q14 -13 34 -14q20 1 34 14q13 14 14 34h-32v0q-15 1 -16 16q1 15 16 16h32v0v32v0h-32v0q-15 1 -16 16q1 15 16 16h32v0v64v0v7l-96 -75v0zM358 339q-18 6 -38 6q-54 -1 -91 -37q-36 -37 -37 -91v-9v0l-47 -37v0q-1 3 -1 6v40v0q1 68 44 116
q42 48 108 58v34v0h-48v0q-22 2 -24 24q2 22 24 24h72h72q22 -2 24 -24q-2 -22 -24 -24h-48v0v-34v0q31 -4 57 -18l-43 -34v0z" />
</svg>
