<?xml version="1.0" standalone="no"?>
<!DOCTYPE svg PUBLIC "-//W3C//DTD SVG 1.1//EN" "http://www.w3.org/Graphics/SVG/1.1/DTD/svg11.dtd" >
<svg xmlns="http://www.w3.org/2000/svg" xmlns:xlink="http://www.w3.org/1999/xlink" version="1.1" viewBox="-10 -40 458 512">
   <path fill="currentColor"
d="M374 -3q17 14 6 34l-51 74v0h79v0q22 2 24 24q-2 22 -24 24h-111v0l-87 128v0h198v0q22 2 24 24q-2 22 -24 24h-231v0l-69 102v0q-14 17 -33 6q-17 -14 -7 -33l51 -75v0h-79v0q-22 -2 -24 -24q2 -22 24 -24h112v0l87 -128v0h-199v0q-22 -2 -24 -24q2 -22 24 -24h231v0
l69 -101v0q14 -17 33 -7h1z" />
</svg>
