<?xml version="1.0" standalone="no"?>
<!DOCTYPE svg PUBLIC "-//W3C//DTD SVG 1.1//EN" "http://www.w3.org/Graphics/SVG/1.1/DTD/svg11.dtd" >
<svg xmlns="http://www.w3.org/2000/svg" xmlns:xlink="http://www.w3.org/1999/xlink" version="1.1" viewBox="-10 -40 532 512">
   <path fill="currentColor"
d="M464 219q0 4 -4 8q-6 5 -18 6h-98v0q-41 1 -68 28t-28 68q0 10 2 20q6 24 14 40h1v0v0v2q1 1 1 3q7 16 6 17q0 8 -4 12q-1 1 -2 1q0 1 -1 1h-1h-8q-88 -2 -147 -61t-61 -147q2 -88 61 -147t147 -61q88 2 147 61t61 147v1v1v0zM512 220v-2v0v0v-1q-1 -72 -35 -129
q-34 -58 -92 -92q-57 -34 -129 -35q-72 1 -129 35q-58 34 -92 92q-34 57 -35 129q1 72 35 129q34 58 92 92q57 34 129 35h11q24 -2 38 -20q15 -18 15 -42q-2 -22 -12 -42v0v-1q-7 -14 -11 -29q-1 -5 -1 -10q1 -20 14 -34q14 -13 34 -14h98v0q28 0 49 -17q20 -17 21 -44v0z
M160 217q0 -14 -9 -23v0v0q-9 -9 -23 -9t-23 9t-9 23t9 23t23 9t23 -9t9 -23v0zM160 153q14 0 23 -9v0v0q9 -9 9 -23t-9 -23t-23 -9t-23 9t-9 23t9 23t23 9v0zM288 89q0 -14 -9 -23v0v0q-9 -9 -23 -9t-23 9t-9 23t9 23t23 9t23 -9t9 -23v0zM352 153q14 0 23 -9v0v0
q9 -9 9 -23t-9 -23t-23 -9t-23 9t-9 23t9 23t23 9v0z" />
</svg>
