<?xml version="1.0" standalone="no"?>
<!DOCTYPE svg PUBLIC "-//W3C//DTD SVG 1.1//EN" "http://www.w3.org/Graphics/SVG/1.1/DTD/svg11.dtd" >
<svg xmlns="http://www.w3.org/2000/svg" xmlns:xlink="http://www.w3.org/1999/xlink" version="1.1" viewBox="-10 -40 404 512">
   <path fill="currentColor"
d="M40 -33q-12 -10 -26 -4q-13 7 -14 22v464v0q1 15 14 22q14 6 26 -4l40 -34v0l40 34v0q16 12 32 0l40 -34v0l40 34v0q16 12 32 0l40 -34v0l40 34v0q12 10 26 4q13 -7 14 -22v-464v0q-1 -15 -14 -22q-14 -5 -26 4l-40 34v0l-40 -34v0q-16 -12 -32 0l-40 34v0l-40 -34v0
q-16 -12 -32 0l-40 34v0l-40 -34v0zM48 397v-360v360v-360l16 14v0q16 12 32 0l40 -34v0l40 34v0q16 12 32 0l40 -34v0l40 34v0q16 12 32 0l16 -14v0v360v0l-16 -14v0q-16 -12 -32 0l-40 34v0l-40 -34v0q-16 -12 -32 0l-40 34v0l-40 -34v0q-16 -12 -32 0l-16 14v0zM120 105
q-22 2 -24 24q2 22 24 24h144v0q22 -2 24 -24q-2 -22 -24 -24h-144v0zM120 281q-22 2 -24 24q2 22 24 24h144v0q22 -2 24 -24q-2 -22 -24 -24h-144v0zM96 217q2 22 24 24h144v0q22 -2 24 -24q-2 -22 -24 -24h-144v0q-22 2 -24 24v0z" />
</svg>
