<?xml version="1.0" standalone="no"?>
<!DOCTYPE svg PUBLIC "-//W3C//DTD SVG 1.1//EN" "http://www.w3.org/Graphics/SVG/1.1/DTD/svg11.dtd" >
<svg xmlns="http://www.w3.org/2000/svg" xmlns:xlink="http://www.w3.org/1999/xlink" version="1.1" viewBox="-10 -40 660 512">
   <path fill="currentColor"
d="M320 -39q22 2 24 24v72v0h104v0q41 1 68 28t28 68v224v0q-1 41 -28 68t-68 28h-256v0q-41 -1 -68 -28t-28 -68v-224v0q1 -41 28 -68t68 -28h104v0v-72v0q2 -22 24 -24v0zM192 105q-20 1 -34 14v0v0q-13 14 -14 34v224v0q1 20 14 34q14 13 34 14h256v0q20 -1 34 -14
q13 -14 14 -34v-224v0q-1 -20 -14 -34q-14 -13 -34 -14h-128h-128zM48 185h16h-16h16v192v0h-16v0q-20 -1 -34 -14q-13 -14 -14 -34v-96v0q1 -20 14 -34q14 -13 34 -14v0zM592 185q20 1 34 14v0v0q13 14 14 34v96v0q-1 20 -14 34q-14 13 -34 14h-16v0v-192v0h16v0zM208 345
h32h-32h32q15 1 16 16q-1 15 -16 16h-32v0q-15 -1 -16 -16q1 -15 16 -16v0zM304 345h32h-32h32q15 1 16 16q-1 15 -16 16h-32v0q-15 -1 -16 -16q1 -15 16 -16v0zM400 345h32h-32h32q15 1 16 16q-1 15 -16 16h-32v0q-15 -1 -16 -16q1 -15 16 -16v0zM200 217q1 -23 20 -35
q20 -10 40 0q19 12 20 35q-1 23 -20 35q-20 10 -40 0q-19 -12 -20 -35v0zM400 177q23 1 35 20q10 20 0 40q-12 19 -35 20q-23 -1 -35 -20q-10 -20 0 -40q12 -19 35 -20v0z" />
</svg>
