<?xml version="1.0" standalone="no"?>
<!DOCTYPE svg PUBLIC "-//W3C//DTD SVG 1.1//EN" "http://www.w3.org/Graphics/SVG/1.1/DTD/svg11.dtd" >
<svg xmlns="http://www.w3.org/2000/svg" xmlns:xlink="http://www.w3.org/1999/xlink" version="1.1" viewBox="-10 -40 532 512">
   <path fill="currentColor"
d="M192 249v-16v16v-16v-48v0h-64v0q-15 -1 -16 -16q1 -15 16 -16h64v0v-64v0h-64v0q-15 -1 -16 -16q1 -15 16 -16h64v0v-32v0q-1 -15 -16 -16h-112v0q-15 1 -16 16v272v0v112v0v2q2 13 16 14h112h272q15 -1 16 -16v-112v0q-1 -15 -16 -16h-32v0v64v0q-1 15 -16 16
q-15 -1 -16 -16v-64v0h-64v0v64v0q-1 15 -16 16q-15 -1 -16 -16v-64v0h-48h-16v64v0q-1 15 -16 16q-15 -1 -16 -16v-64v0h-64v0q-15 -1 -16 -16q1 -15 16 -16h64v0zM288 233h160h-160h160q27 1 45 19t19 45v112v0q-1 27 -19 45t-45 19h-272h-112q-25 -1 -43 -17t-21 -40v-7
v-112v0v-272v0q1 -27 19 -45t45 -19h112v0q27 1 45 19t19 45v160v0v48v0h48v0z" />
</svg>
