<?xml version="1.0" standalone="no"?>
<!DOCTYPE svg PUBLIC "-//W3C//DTD SVG 1.1//EN" "http://www.w3.org/Graphics/SVG/1.1/DTD/svg11.dtd" >
<svg xmlns="http://www.w3.org/2000/svg" xmlns:xlink="http://www.w3.org/1999/xlink" version="1.1" viewBox="-10 -40 276 512">
   <path fill="currentColor"
d="M192 9q15 1 16 16v32v0h-48v0q-15 1 -16 16q1 15 16 16h48v0v64v0h-48v0q-15 1 -16 16q1 15 16 16h48v0v64v0h-48v0q-15 1 -16 16q1 15 16 16h48v0v64v0h-48v0q-15 1 -16 16q1 15 16 16h48v0v32v0q-1 15 -16 16h-128v0q-15 -1 -16 -16v-384v0q1 -15 16 -16h128v0zM64 -39
q-27 1 -45 19v0v0q-18 18 -19 45v384v0q1 27 19 45t45 19h128v0q27 -1 45 -19t19 -45v-384v0q-1 -27 -19 -45t-45 -19h-128v0z" />
</svg>
