<?xml version="1.0" standalone="no"?>
<!DOCTYPE svg PUBLIC "-//W3C//DTD SVG 1.1//EN" "http://www.w3.org/Graphics/SVG/1.1/DTD/svg11.dtd" >
<svg xmlns="http://www.w3.org/2000/svg" xmlns:xlink="http://www.w3.org/1999/xlink" version="1.1" viewBox="-10 -40 660 512">
   <path fill="currentColor"
d="M307 -35q13 -8 26 0l138 92v0h97v0q31 1 51 21t21 51v272v0q-1 31 -21 51t-51 21h-184h-312q-31 -1 -51 -21t-21 -51v-272v0q1 -31 21 -51t51 -21h97v0l138 -92v0zM568 425q22 -2 24 -24v-272v0q-2 -22 -24 -24h-104v0q-7 0 -13 -4l-131 -87v0l-131 87v0q-6 4 -13 4h-104
v0q-22 2 -24 24v272v0q2 22 24 24h184v0v-80v0q1 -27 19 -45t45 -19q27 1 45 19t19 45v80v0h184v0zM112 153h32h-32h32q15 1 16 16v64v0q-1 15 -16 16h-32v0q-15 -1 -16 -16v-64v0q1 -15 16 -16v0zM480 169q1 -15 16 -16h32v0q15 1 16 16v64v0q-1 15 -16 16h-32v0
q-15 -1 -16 -16v-64v0zM112 281h32h-32h32q15 1 16 16v64v0q-1 15 -16 16h-32v0q-15 -1 -16 -16v-64v0q1 -15 16 -16v0zM480 297q1 -15 16 -16h32v0q15 1 16 16v64v0q-1 15 -16 16h-32v0q-15 -1 -16 -16v-64v0zM240 153q1 -45 40 -69q40 -22 80 0q39 24 40 69q-1 45 -40 69
q-40 22 -80 0q-39 -24 -40 -69v0zM320 105q-15 1 -16 16v32v0q1 15 16 16h24v0q15 -1 16 -16q-1 -15 -16 -16h-8v0v-16v0q-1 -15 -16 -16v0z" />
</svg>
