<?xml version="1.0" standalone="no"?>
<!DOCTYPE svg PUBLIC "-//W3C//DTD SVG 1.1//EN" "http://www.w3.org/Graphics/SVG/1.1/DTD/svg11.dtd" >
<svg xmlns="http://www.w3.org/2000/svg" xmlns:xlink="http://www.w3.org/1999/xlink" version="1.1" viewBox="-10 -40 586 512">
   <path fill="currentColor"
d="M507 91v0v0v0q9 14 2 30q-6 14 -20 16h-5q-18 -1 -30 -13q-15 -16 -36 -16q-21 1 -35 16q-12 13 -30 13t-30 -13q-14 -16 -35 -16t-36 16q-11 13 -29 13t-30 -13q-14 -16 -36 -16q-21 0 -35 16q-11 13 -30 13h-6q-13 -2 -19 -16q-7 -16 2 -30v0v0v0v0l51 -82v0h336v0
l51 82v0zM484 185q6 0 12 -1q42 -8 58 -45q15 -37 -6 -74l-58 -91v0q-8 -13 -24 -13h-356v0q-16 0 -24 13l-58 91v0q-21 37 -6 74q16 37 58 45q6 1 12 1v0q30 -1 52 -17q7 -5 13 -12q6 7 14 12q22 16 52 17q29 -1 52 -17q7 -5 13 -12q6 7 13 12q22 16 52 17q30 -1 52 -17
q7 -6 13 -12q6 6 13 12q22 16 52 17v0h1zM112 297v-82v82v-82q-10 2 -20 2q-8 0 -16 -1v0v0l-12 -2v83v0v48v0v64v0q1 27 19 45t45 19h320v0q27 -1 45 -19t19 -45v-64v0v-48v0v-83v0l-12 2v0v0q-8 1 -17 1q-10 0 -19 -2v82v0h-352v0zM464 345v64v-64v64q-1 15 -16 16h-320v0
q-15 -1 -16 -16v-64v0h352v0z" />
</svg>
