<?xml version="1.0" standalone="no"?>
<!DOCTYPE svg PUBLIC "-//W3C//DTD SVG 1.1//EN" "http://www.w3.org/Graphics/SVG/1.1/DTD/svg11.dtd" >
<svg xmlns="http://www.w3.org/2000/svg" xmlns:xlink="http://www.w3.org/1999/xlink" version="1.1" viewBox="-10 -40 532 512">
   <path fill="currentColor"
d="M464 217q0 -57 -28 -104v0v0q-27 -47 -76 -76q-49 -28 -104 -28t-104 28q-49 29 -76 76q-28 47 -28 104t28 104q27 47 76 76q49 28 104 28t104 -28q49 -29 76 -76q28 -47 28 -104v0zM0 217q1 -70 34 -128v0v0q34 -58 94 -94q61 -34 128 -34t128 34q60 36 94 94
q33 58 34 128q-1 70 -34 128q-34 58 -94 94q-61 34 -128 34t-128 -34q-60 -36 -94 -94q-33 -58 -34 -128v0zM98 172l22 22l-22 -22l22 22l46 -45v0l-23 -23v0q-9 -11 0 -22q11 -9 23 0l22 22v0l45 -45v0l-22 -22v0q-10 -12 0 -23q11 -9 22 0l23 23v0l23 -23v0q11 -9 22 0
q10 11 0 23l-22 22v0l45 46v0l23 -23v0q11 -9 22 0q9 11 0 23l-22 22v0l45 45v0l22 -22v0q12 -9 23 0q9 11 0 22l-23 23v0l23 23v0q9 11 0 22q-11 10 -23 0l-22 -22v0l-45 45v0l22 23v0q9 11 0 22q-11 9 -22 0l-23 -22v0l-45 45v0l22 22v0q10 12 0 23q-11 9 -22 0l-23 -23v0
l-23 23v0q-11 9 -22 0q-9 -11 0 -23l22 -22v0l-45 -45v0l-23 22v0q-11 9 -22 0q-9 -11 0 -22l22 -23v0l-45 -45v0l-22 22v0q-12 10 -23 0q-9 -11 0 -22l23 -23v0l-23 -23v0q-9 -11 0 -22q11 -9 23 0v0zM188 172l-45 45l45 -45l-45 45l45 45v0l45 -45v0l-45 -45v0zM256 194
l45 -45l-45 45l45 -45l-45 -45v0l-45 45v0l45 45v0zM279 217l45 45l-45 -45l45 45l45 -45v0l-45 -45v0l-45 45v0zM256 240l-45 45l45 -45l-45 45l45 45v0l45 -45v0l-45 -45v0z" />
</svg>
