<?xml version="1.0" standalone="no"?>
<!DOCTYPE svg PUBLIC "-//W3C//DTD SVG 1.1//EN" "http://www.w3.org/Graphics/SVG/1.1/DTD/svg11.dtd" >
<svg xmlns="http://www.w3.org/2000/svg" xmlns:xlink="http://www.w3.org/1999/xlink" version="1.1" viewBox="-10 -40 532 512">
   <path fill="currentColor"
d="M0 17q2 -22 24 -24h32h424q22 2 24 24q-2 22 -24 24v352v0h8v0q22 2 24 24q-2 22 -24 24h-32h-96q-22 -2 -24 -24v-120v0q-1 -34 -23 -57q-23 -22 -57 -23q-34 1 -57 23q-22 23 -23 57v120v0q-2 22 -24 24h-64h-64q-22 -2 -24 -24q2 -22 24 -24h8v0v-352v0h-8v0
q-22 -2 -24 -24v0zM80 41v32v-32v32h352v0v-32v0h-352v0zM80 121v272v-272v272h8h40v-96v0q1 -54 37 -91q37 -36 91 -37q54 1 91 37q36 37 37 91v96v0h40h8v-272v0h-352v0z" />
</svg>
