<?xml version="1.0" standalone="no"?>
<!DOCTYPE svg PUBLIC "-//W3C//DTD SVG 1.1//EN" "http://www.w3.org/Graphics/SVG/1.1/DTD/svg11.dtd" >
<svg xmlns="http://www.w3.org/2000/svg" xmlns:xlink="http://www.w3.org/1999/xlink" version="1.1" viewBox="-10 -40 468 512">
   <path fill="currentColor"
d="M337 42q14 -17 0 -34q-17 -14 -34 0l-143 143v0l-63 -63v0q-17 -14 -34 0q-14 17 0 34l80 80v0q17 14 34 0l160 -160v0zM441 162q14 -17 0 -34q-17 -14 -34 0l-247 247v0l-119 -119v0q-17 -14 -34 0q-14 17 0 34l136 136v0q17 14 34 0l264 -264v0z" />
</svg>
