<?xml version="1.0" standalone="no"?>
<!DOCTYPE svg PUBLIC "-//W3C//DTD SVG 1.1//EN" "http://www.w3.org/Graphics/SVG/1.1/DTD/svg11.dtd" >
<svg xmlns="http://www.w3.org/2000/svg" xmlns:xlink="http://www.w3.org/1999/xlink" version="1.1" viewBox="-10 -40 522 512">
   <path fill="currentColor"
d="M241 26q-19 -3 -36 6l-74 39v0q-16 9 -24 26l-37 76v0q-8 17 -5 35l14 83v0q4 19 17 32l61 58v0q13 13 32 16l83 12v0q18 2 35 -7l74 -39v0q16 -9 24 -26l37 -75v0q8 -17 5 -36l-14 -83v0q-4 -19 -17 -32l-60 -58v0q-14 -13 -32 -16l-83 -11v0zM183 -11q30 -16 64 -11
l83 12v0q34 5 59 28l60 59v0q25 24 31 58l15 83v0q5 33 -10 64l-36 76v0q-16 31 -46 47l-74 40v0q-30 16 -64 11l-83 -12v0q-34 -5 -59 -28l-60 -59v0q-25 -24 -31 -58l-14 -82v0q-6 -34 9 -65l36 -76v0q16 -31 46 -47l74 -40v0zM288 89q0 -14 9 -23v0v0q9 -9 23 -9t23 9
t9 23t-9 23t-23 9t-23 -9t-9 -23v0zM288 185q14 0 23 9v0v0q9 9 9 23t-9 23t-23 9t-23 -9t-9 -23t9 -23t23 -9v0zM192 281q14 0 23 9v0v0q9 9 9 23t-9 23t-23 9t-23 -9t-9 -23t9 -23t23 -9v0zM160 121q14 0 23 9v0v0q9 9 9 23t-9 23t-23 9t-23 -9t-9 -23t9 -23t23 -9v0z
M320 313q0 -14 9 -23v0v0q9 -9 23 -9t23 9t9 23t-9 23t-23 9t-23 -9t-9 -23v0z" />
</svg>
