<?xml version="1.0" standalone="no"?>
<!DOCTYPE svg PUBLIC "-//W3C//DTD SVG 1.1//EN" "http://www.w3.org/Graphics/SVG/1.1/DTD/svg11.dtd" >
<svg xmlns="http://www.w3.org/2000/svg" xmlns:xlink="http://www.w3.org/1999/xlink" version="1.1" viewBox="-10 -40 522 512">
   <path fill="currentColor"
d="M183 -11l-74 40l74 -40l-74 40q-30 16 -46 47l-36 76v0q-15 31 -9 65l14 82v0q6 34 31 58l60 59v0q25 23 59 28l83 12v0q34 5 64 -11l74 -40v0q30 -16 46 -47l36 -76v0q15 -31 9 -64q-2 -9 -10 -11q-39 -6 -67 -33q-28 -26 -38 -64q-3 -12 -15 -15q-42 -7 -71 -36
t-36 -70q-1 -9 -10 -11q-34 -5 -64 11v0zM218 27q14 41 46 71v0v0q31 29 74 41q13 38 42 67q28 28 67 42q-2 7 -5 13l-37 76v0q-8 17 -24 26l-74 39v0q-17 9 -35 7l-83 -12v0q-19 -3 -32 -16l-30 31v0l30 -31v0l-61 -58v0q-13 -13 -17 -32l-14 -83v0q-3 -18 5 -35l37 -76v0
q8 -17 24 -26l74 -39v0q6 -3 13 -5v0zM192 153q0 -14 -9 -23v0v0q-9 -9 -23 -9t-23 9t-9 23t9 23t23 9t23 -9t9 -23v0zM192 345q14 0 23 -9v0v0q9 -9 9 -23t-9 -23t-23 -9t-23 9t-9 23t9 23t23 9v0zM320 217q0 -14 -9 -23v0v0q-9 -9 -23 -9t-23 9t-9 23t9 23t23 9t23 -9
t9 -23v0zM352 345q14 0 23 -9v0v0q9 -9 9 -23t-9 -23t-23 -9t-23 9t-9 23t9 23t23 9v0z" />
</svg>
