<?xml version="1.0" standalone="no"?>
<!DOCTYPE svg PUBLIC "-//W3C//DTD SVG 1.1//EN" "http://www.w3.org/Graphics/SVG/1.1/DTD/svg11.dtd" >
<svg xmlns="http://www.w3.org/2000/svg" xmlns:xlink="http://www.w3.org/1999/xlink" version="1.1" viewBox="-10 -40 532 512">
   <path fill="currentColor"
d="M464 217q0 57 -28 104v0v0q-27 47 -76 76q-49 28 -104 28t-104 -28q-49 -29 -76 -76q-28 -47 -28 -104t28 -104q27 -47 76 -76q49 -28 104 -28t104 28q49 29 76 76q28 47 28 104v0zM256 -39q-70 1 -128 34v0v0q-58 34 -94 94q-34 61 -34 128t34 128q36 60 94 94
q58 33 128 34q70 -1 128 -34q58 -34 94 -94q34 -61 34 -128t-34 -128q-36 -60 -94 -94q-58 -33 -128 -34v0zM160 209q22 -2 24 -24q-2 -22 -24 -24q-22 2 -24 24q2 22 24 24v0zM376 185q-2 -22 -24 -24q-22 2 -24 24q2 22 24 24q22 -2 24 -24v0zM192 297q-22 2 -24 24
q2 22 24 24h128v0q22 -2 24 -24q-2 -22 -24 -24h-128v0zM160 137q27 1 42 24q12 24 0 48q-15 23 -42 24q-27 -1 -42 -24q-12 -24 0 -48q15 -23 42 -24v0zM160 265q45 -1 69 -40q22 -40 0 -80q-24 -39 -69 -40q-45 1 -69 40q-22 40 0 80q24 39 69 40v0zM304 185q1 -27 24 -42
q24 -12 48 0q23 15 24 42q-1 27 -24 42q-24 12 -48 0q-23 -15 -24 -42v0zM432 185q-1 -45 -40 -69q-40 -22 -80 0q-39 24 -40 69q1 45 40 69q40 22 80 0q39 -24 40 -69v0z" />
</svg>
