<?xml version="1.0" standalone="no"?>
<!DOCTYPE svg PUBLIC "-//W3C//DTD SVG 1.1//EN" "http://www.w3.org/Graphics/SVG/1.1/DTD/svg11.dtd" >
<svg xmlns="http://www.w3.org/2000/svg" xmlns:xlink="http://www.w3.org/1999/xlink" version="1.1" viewBox="-10 -40 532 512">
   <path fill="currentColor"
d="M256 425q-88 -2 -147 -61v0v0q-59 -59 -61 -147q0 -33 10 -63l9 16v0q13 23 38 30l58 17v0q27 9 29 38v40v0q1 18 16 26t16 26v30v0q0 13 10 19q9 7 21 4q24 -8 32 -32l2 -6v0q7 -25 30 -38l9 -5v0q23 -15 24 -42v-8v0q0 -20 -14 -34l-4 -4v0q-14 -14 -34 -14h-43v0
q-17 0 -32 -8l-34 -20v0q-7 -4 -9 -11q-5 -16 10 -25l6 -3v0q10 -5 21 -1l23 7v0q14 4 22 -7q7 -12 -1 -23l-14 -16v0q-15 -21 0 -42l16 -18v0q14 -17 4 -37l-3 -4v0q56 4 101 32q44 28 71 75l-26 10v0q-12 5 -17 16t-1 24l16 50v0q6 17 23 21l29 8v0q-12 78 -68 128
q-57 50 -138 52v0zM256 473q70 -1 128 -34v0v0q58 -34 94 -94q34 -61 34 -128t-34 -128q-36 -60 -94 -94q-58 -33 -128 -34q-70 1 -128 34q-58 34 -94 94q-34 61 -34 128t34 128q36 60 94 94q58 33 128 34v0z" />
</svg>
