<?xml version="1.0" standalone="no"?>
<!DOCTYPE svg PUBLIC "-//W3C//DTD SVG 1.1//EN" "http://www.w3.org/Graphics/SVG/1.1/DTD/svg11.dtd" >
<svg xmlns="http://www.w3.org/2000/svg" xmlns:xlink="http://www.w3.org/1999/xlink" version="1.1" viewBox="-10 -40 532 512">
   <path fill="currentColor"
d="M256 9q-57 0 -104 28v0v0q-47 27 -76 76q-28 49 -28 104t28 104q29 49 76 76q47 28 104 28t104 -28q47 -27 76 -76q28 -49 28 -104t-28 -104q-29 -49 -76 -76q-47 -28 -104 -28v0zM512 217q-1 70 -34 128v0v0q-34 58 -94 94q-61 34 -128 34t-128 -34q-60 -36 -94 -94
q-33 -58 -34 -128q1 -70 34 -128q34 -58 94 -94q61 -34 128 -34t128 34q60 36 94 94q33 58 34 128v0zM168 281q-22 2 -24 24q2 22 24 24h8v0v-48v0h-8v0zM208 329h32h-32h32v-48v0h-32v0v48v0zM304 329v-48v48v-48h-32v0v48v0h32v0zM336 329h8h-8h8q22 -2 24 -24
q-2 -22 -24 -24h-8v0v48v0zM168 249h176h-176h176q24 1 40 16q15 16 16 40q-1 24 -16 40q-16 15 -40 16h-176v0q-24 -1 -40 -16q-15 -16 -16 -40q1 -24 16 -40q16 -15 40 -16v0zM144 169q1 -14 10 -23v0v0q9 -9 22 -9q14 0 23 9t9 23t-9 23t-23 9q-13 0 -22 -9t-10 -23v0z
M336 137q14 0 23 9v0v0q9 9 9 23t-9 23t-23 9q-13 0 -22 -9t-10 -23q1 -14 10 -23t22 -9v0z" />
</svg>
