<?xml version="1.0" standalone="no"?>
<!DOCTYPE svg PUBLIC "-//W3C//DTD SVG 1.1//EN" "http://www.w3.org/Graphics/SVG/1.1/DTD/svg11.dtd" >
<svg xmlns="http://www.w3.org/2000/svg" xmlns:xlink="http://www.w3.org/1999/xlink" version="1.1" viewBox="-10 -40 532 512">
   <path fill="currentColor"
d="M464 217q0 -57 -28 -104v0v0q-27 -47 -76 -76q-49 -28 -104 -28t-104 28q-49 29 -76 76q-28 47 -28 104t28 104q27 47 76 76q49 28 104 28t104 -28q49 -29 76 -76q28 -47 28 -104v0zM0 217q1 -70 34 -128v0v0q34 -58 94 -94q61 -34 128 -34t128 34q60 36 94 94
q33 58 34 128q-1 70 -34 128q-34 58 -94 94q-61 34 -128 34t-128 -34q-60 -36 -94 -94q-33 -58 -34 -128v0zM350 269q14 -2 23 7v0v0q9 9 2 22q-19 28 -50 46q-31 17 -69 17t-69 -17q-31 -18 -50 -46q-7 -13 2 -22q8 -9 23 -7q44 11 94 11t94 -11v0zM224 153q0 27 -9 45v0v0
q-9 18 -23 19q-14 -1 -23 -19t-9 -45t9 -45t23 -19q14 1 23 19t9 45v0zM320 217q-14 -1 -23 -19v0v0q-9 -18 -9 -45t9 -45t23 -19q14 1 23 19t9 45t-9 45t-23 19v0z" />
</svg>
