<?xml version="1.0" standalone="no"?>
<!DOCTYPE svg PUBLIC "-//W3C//DTD SVG 1.1//EN" "http://www.w3.org/Graphics/SVG/1.1/DTD/svg11.dtd" >
<svg xmlns="http://www.w3.org/2000/svg" xmlns:xlink="http://www.w3.org/1999/xlink" version="1.1" viewBox="-10 -40 532 512">
   <path fill="currentColor"
d="M477 87q15 -4 25 -16v0v0q10 -12 10 -29q-1 -16 -16 -40q-14 -23 -26 -38q-6 -6 -12 0q-8 10 -19 26q-10 16 -17 32v0q-1 1 -1 2q-5 10 -5 18q1 20 14 33q14 14 34 14q7 0 13 -2v0zM395 2q-61 -40 -139 -41q-72 1 -129 35q-58 34 -92 92q-34 57 -35 129q1 72 35 129
q34 58 92 92q57 34 129 35q72 -1 129 -35q58 -34 92 -92q34 -57 35 -129q0 -54 -21 -101q-13 5 -27 5q-13 0 -26 -4q25 45 26 100q-2 88 -61 147t-147 61q-88 -2 -147 -61t-61 -147q2 -88 61 -147t147 -61q74 1 129 45q-1 -6 -1 -12q1 -18 7 -30l4 -10v0zM375 298
q7 -13 -2 -22v0v0q-9 -9 -23 -7q-44 11 -94 11t-94 -11q-15 -2 -23 7q-9 9 -2 22q19 28 50 46q31 17 69 17t69 -17q31 -18 50 -46v0zM218 190v0v0v0v0v0v0v0q3 4 9 3q5 -2 5 -8q-1 -28 -17 -49q-15 -21 -39 -23q-24 2 -39 23q-16 21 -17 49q0 6 6 8q5 1 8 -3v0v0v0v0v0v0h1
v0v-1v0q1 -2 3 -4l10 -10q14 -13 28 -14q14 1 28 14l10 10q2 2 3 4v0v1h1v0v0v0zM378 190v0v0v0v0v0q3 4 9 3q5 -2 5 -8q-1 -28 -17 -49q-15 -21 -39 -23q-24 2 -39 23q-16 21 -17 49q0 6 6 8q5 1 8 -3v0v0v0v0v0v0h1v0v-1v0q1 -2 3 -4l10 -10q14 -13 28 -14q14 1 28 14
l10 10q2 2 3 4v0v1h1v0v0v0v0v0z" />
</svg>
