<?xml version="1.0" standalone="no"?>
<!DOCTYPE svg PUBLIC "-//W3C//DTD SVG 1.1//EN" "http://www.w3.org/Graphics/SVG/1.1/DTD/svg11.dtd" >
<svg xmlns="http://www.w3.org/2000/svg" xmlns:xlink="http://www.w3.org/1999/xlink" version="1.1" viewBox="-10 -40 532 512">
   <path fill="currentColor"
d="M348 403q4 -12 4 -26v-52v0q13 -13 23 -27q7 -13 -2 -22t-23 -7q-44 11 -94 11t-94 -11q-15 -2 -23 7q-9 9 -2 22q10 15 23 27v52v0q0 14 4 26q-53 -26 -84 -75t-32 -111q2 -88 61 -147t147 -61q88 2 147 61t61 147q-1 62 -32 111t-84 75v0zM256 473q70 -1 128 -34v0v0
q58 -34 94 -94q34 -61 34 -128t-34 -128q-36 -60 -94 -94q-58 -33 -128 -34q-70 1 -128 34q-58 34 -94 94q-34 61 -34 128t34 128q36 60 94 94q58 33 128 34v0zM160 181q16 0 25 10q14 12 28 1q13 -14 1 -29q-23 -22 -54 -22t-55 22q-11 15 1 29q14 11 28 -1q9 -9 26 -10v0z
M336 193q22 -2 24 -24q-2 -22 -24 -24q-22 2 -24 24q2 22 24 24v0zM336 121q27 1 41 24q13 24 0 48q-14 23 -41 24q-27 -1 -42 -24q-13 -24 0 -48q15 -23 42 -24v0zM336 249q45 -1 69 -40q22 -40 0 -80q-24 -39 -69 -40q-45 1 -69 40q-22 40 0 80q24 39 69 40v0zM320 377
q-1 27 -19 45v0v0q-18 18 -45 19q-27 -1 -45 -19t-19 -45v-37v0q2 -25 27 -27h2v0q18 1 23 19q3 9 12 9t12 -9q5 -18 23 -19h2v0q25 2 27 27v37v0z" />
</svg>
