<?xml version="1.0" standalone="no"?>
<!DOCTYPE svg PUBLIC "-//W3C//DTD SVG 1.1//EN" "http://www.w3.org/Graphics/SVG/1.1/DTD/svg11.dtd" >
<svg xmlns="http://www.w3.org/2000/svg" xmlns:xlink="http://www.w3.org/1999/xlink" version="1.1" viewBox="-10 -40 468 512">
   <path fill="currentColor"
d="M408 337v-48v48v-48h-48v0v48v0h48v0zM448 337q0 17 -12 28v0v0q-11 12 -28 12h-48v0q-17 0 -28 -12q-12 -11 -12 -28v-48v0q0 -17 12 -28q11 -12 28 -12h48v0q17 0 28 12q12 11 12 28v48v0zM408 145v-48v48v-48h-48v0v48v0h48v0zM448 145q0 17 -12 28v0v0q-11 12 -28 12
h-48v0q-17 0 -28 -12q-12 -11 -12 -28v-48v0q0 -17 12 -28q11 -12 28 -12h48v0q17 0 28 12q12 11 12 28v48v0zM200 337h48h-48h48v-48v0h-48v0v48v0zM248 377h-48h48h-48q-17 0 -28 -12q-12 -11 -12 -28v-48v0q0 -17 12 -28q11 -12 28 -12h48v0q17 0 28 12q12 11 12 28v48v0
q0 17 -12 28q-11 12 -28 12v0zM248 145v-48v48v-48h-48v0v48v0h48v0zM288 145q0 17 -12 28v0v0q-11 12 -28 12h-48v0q-17 0 -28 -12q-12 -11 -12 -28v-48v0q0 -17 12 -28q11 -12 28 -12h48v0q17 0 28 12q12 11 12 28v48v0zM40 337h48h-48h48v-48v0h-48v0v48v0zM88 377h-48
h48h-48q-17 0 -28 -12q-12 -11 -12 -28v-48v0q0 -17 12 -28q11 -12 28 -12h48v0q17 0 28 12q12 11 12 28v48v0q0 17 -12 28q-11 12 -28 12v0zM88 145v-48v48v-48h-48v0v48v0h48v0zM128 145q0 17 -12 28v0v0q-11 12 -28 12h-48v0q-17 0 -28 -12q-12 -11 -12 -28v-48v0
q0 -17 12 -28q11 -12 28 -12h48v0q17 0 28 12q12 11 12 28v48v0z" />
</svg>
