<?xml version="1.0" standalone="no"?>
<!DOCTYPE svg PUBLIC "-//W3C//DTD SVG 1.1//EN" "http://www.w3.org/Graphics/SVG/1.1/DTD/svg11.dtd" >
<svg xmlns="http://www.w3.org/2000/svg" xmlns:xlink="http://www.w3.org/1999/xlink" version="1.1" viewBox="-10 -40 532 512">
   <path fill="currentColor"
d="M48 217q2 -88 61 -147v0v0q59 -59 147 -61q88 2 147 61t61 147v144v0q0 17 -12 28q-11 12 -28 12h-110v0q-14 -23 -42 -24h-32v0q-20 1 -34 14q-13 14 -14 34q1 20 14 34q14 13 34 14h32v0q28 -1 42 -24h110v0q37 -1 62 -26t26 -62v-144v0q-1 -72 -35 -129
q-34 -58 -92 -92q-57 -34 -129 -35q-72 1 -129 35q-58 34 -92 92q-34 57 -35 129v40v0q2 22 24 24q22 -2 24 -24v-40v0zM160 185v112v-112v112q-14 0 -23 -9t-9 -23v-48v0q0 -14 9 -23t23 -9v0zM80 217v48v-48v48q1 34 23 57q23 22 57 23h16v0q14 0 23 -9t9 -23v-144v0
q0 -14 -9 -23t-23 -9h-16v0q-34 1 -57 23q-22 23 -23 57v0zM352 185q14 0 23 9v0v0q9 9 9 23v48v0q0 14 -9 23t-23 9v-112v0zM432 217q-1 -34 -23 -57v0v0q-23 -22 -57 -23h-16v0q-14 0 -23 9t-9 23v144v0q0 14 9 23t23 9h16v0q34 -1 57 -23q22 -23 23 -57v-48v0z" />
</svg>
