<?xml version="1.0" standalone="no"?>
<!DOCTYPE svg PUBLIC "-//W3C//DTD SVG 1.1//EN" "http://www.w3.org/Graphics/SVG/1.1/DTD/svg11.dtd" >
<svg xmlns="http://www.w3.org/2000/svg" xmlns:xlink="http://www.w3.org/1999/xlink" version="1.1" viewBox="-10 -40 532 512">
   <path fill="currentColor"
d="M464 217q0 -57 -28 -104v0v0q-27 -47 -76 -76q-49 -28 -104 -28t-104 28q-49 29 -76 76q-28 47 -28 104t28 104q27 47 76 76q49 28 104 28t104 -28q49 -29 76 -76q28 -47 28 -104v0zM0 217q1 -70 34 -128v0v0q34 -58 94 -94q61 -34 128 -34t128 34q60 36 94 94
q33 58 34 128q-1 70 -34 128q-34 58 -94 94q-61 34 -128 34t-128 -34q-60 -36 -94 -94q-33 -58 -34 -128v0zM131 275q-3 -11 3 -18v0v0q7 -8 18 -8h213v0q11 0 17 8q7 7 4 18q-14 42 -48 67q-34 26 -80 27q-46 -1 -80 -27q-34 -25 -47 -67v0zM134 92l89 48l-89 -48l89 48
q8 4 8 13q0 8 -8 13l-89 48v0q-7 3 -12 0q-6 -3 -6 -10q0 -5 3 -8l36 -43v0l-36 -43v0q-3 -4 -3 -8q0 -7 6 -10q5 -3 12 0v0zM396 102q0 4 -3 8l-36 43v0l36 43v0q3 3 3 8q0 7 -6 10q-5 3 -11 0l-90 -48v0q-8 -5 -8 -13q0 -9 8 -13l90 -48v0q6 -3 11 0q6 3 6 10v0z" />
</svg>
