<?xml version="1.0" standalone="no"?>
<!DOCTYPE svg PUBLIC "-//W3C//DTD SVG 1.1//EN" "http://www.w3.org/Graphics/SVG/1.1/DTD/svg11.dtd" >
<svg xmlns="http://www.w3.org/2000/svg" xmlns:xlink="http://www.w3.org/1999/xlink" version="1.1" viewBox="-10 -40 596 512">
   <path fill="currentColor"
d="M403 110q5 -16 5 -29q-1 -51 -35 -85t-85 -35q-47 1 -80 31q-33 29 -39 75q-1 7 -1 14q0 16 7 35l2 6q18 42 47 84t49 67q6 7 15 7t15 -7q20 -25 49 -67v0v0q7 -10 14 -21l10 -16v0v0q18 -31 27 -59v0zM395 199q-22 35 -43 63v153v0l-128 -47v0v-106v0q-21 -28 -43 -63
q-2 -4 -5 -9v178v0l-128 47v0v-253v0l97 -35v0q-8 -23 -9 -46v-1v-1l-120 43v0q-15 7 -16 23v304v0q0 12 10 20q10 7 22 3l168 -61v0l168 61v0q8 2 16 0l176 -64v0q15 -7 16 -23v-304v0q0 -12 -10 -20q-10 -7 -22 -3l-105 39v0q-4 22 -13 44q-3 7 -7 14l109 -40v0v253v0
l-128 47v0v-224v0l-2 2q-1 3 -3 6v0z" />
</svg>
