<?xml version="1.0" standalone="no"?>
<!DOCTYPE svg PUBLIC "-//W3C//DTD SVG 1.1//EN" "http://www.w3.org/Graphics/SVG/1.1/DTD/svg11.dtd" >
<svg xmlns="http://www.w3.org/2000/svg" xmlns:xlink="http://www.w3.org/1999/xlink" version="1.1" viewBox="-10 -40 596 512">
   <path fill="currentColor"
d="M408 81q0 13 -5 29q-9 28 -27 59v0v0l-10 16q-7 11 -14 21v0v0q-29 42 -49 67q-6 7 -15 7t-15 -7q-20 -25 -49 -67t-47 -84l-2 -6q-7 -19 -7 -35q0 -7 1 -14q6 -46 39 -75q33 -30 80 -31q51 1 85 35t35 85v0zM352 262q21 -28 43 -63q2 -4 5 -9v225v0l128 -47v0v-253v0
l-109 40v0q1 -1 1 -2l6 -12q9 -22 13 -44l105 -39v0q12 -4 22 3q10 8 10 20v304v0q-1 16 -16 23l-176 64v0q-8 2 -16 0l-168 -61v0l-168 61v0q-12 3 -22 -3q-10 -8 -10 -20v-304v0q1 -16 16 -23l120 -43v0v1v1q1 23 9 46l-97 35v0v253v0l128 -47v0v-177v0l2 2q1 3 3 6
q22 35 43 63v106v0l128 47v0v-153v0zM288 113q23 -1 35 -20q10 -20 0 -40q-12 -19 -35 -20q-23 1 -35 20q-10 20 0 40q12 19 35 20v0z" />
</svg>
