<?xml version="1.0" standalone="no"?>
<!DOCTYPE svg PUBLIC "-//W3C//DTD SVG 1.1//EN" "http://www.w3.org/Graphics/SVG/1.1/DTD/svg11.dtd" >
<svg xmlns="http://www.w3.org/2000/svg" xmlns:xlink="http://www.w3.org/1999/xlink" version="1.1" viewBox="-11 0 529 512">
   <path fill="currentColor"
d="M336 75l-110 110l110 -110l-110 110l62 62v0l159 -159v0q13 -13 13 -31t-13 -31t-31 -13t-31 13l-15 15v0l-34 34v0zM192 219l-58 58l58 -58l-58 58q-59 60 -79 141q81 -20 141 -79l58 -58v0l-62 -62v0zM232 -15q22 -14 47 -12v0v0q25 2 44 21v0v0l13 13v0l15 -15v0v0v0
q28 -27 65 -27t65 27q27 28 27 65t-27 65l-251 252v0q-74 73 -176 94l-25 5v0q-13 2 -22 -7t-7 -22l5 -25v0q21 -102 94 -175l81 -80v0l19 -20v0l69 -69v0l6 -6v0l11 -11v0l17 -17v0l-13 -13v0v0v0q-17 -14 -34 0l-86 86v0q-6 6 -15 7q-11 1 -19 -7q-14 -17 0 -34l86 -86v0
q5 -5 11 -9v0z" />
</svg>
