<?xml version="1.0" standalone="no"?>
<!DOCTYPE svg PUBLIC "-//W3C//DTD SVG 1.1//EN" "http://www.w3.org/Graphics/SVG/1.1/DTD/svg11.dtd" >
<svg xmlns="http://www.w3.org/2000/svg" xmlns:xlink="http://www.w3.org/1999/xlink" version="1.1" viewBox="-10 -40 532 512">
   <path fill="currentColor"
d="M256 9q57 0 104 28v0v0q47 27 76 76q28 49 28 104t-28 104q-29 49 -76 76q-47 28 -104 28t-104 -28q-47 -27 -76 -76q-28 -49 -28 -104t28 -104q29 -49 76 -76q47 -28 104 -28v0zM256 473q70 -1 128 -34v0v0q58 -34 94 -94q34 -61 34 -128t-34 -128q-36 -60 -94 -94
q-58 -33 -128 -34q-70 1 -128 34q-58 34 -94 94q-34 61 -34 128t34 128q36 60 94 94q58 33 128 34v0zM168 337q2 22 24 24h128v0q22 -2 24 -24q-2 -22 -24 -24h-128v0q-22 2 -24 24v0zM160 233q-20 -1 -34 -14v0v0q-13 -14 -14 -34q1 -22 16 -36v4v0q0 14 9 23t23 9t23 -9
t9 -23v-4v0q15 14 16 36q-1 20 -14 34q-14 13 -34 14v0zM160 265q45 -1 69 -40q22 -40 0 -80q-24 -39 -69 -40q-45 1 -69 40q-22 40 0 80q24 39 69 40v0zM352 233q-20 -1 -34 -14v0v0q-13 -14 -14 -34q1 -22 16 -36v4q0 14 9 23t23 9t23 -9t9 -23v-4v0q15 14 16 36
q-1 20 -14 34q-14 13 -34 14v0zM352 265q45 -1 69 -40q22 -40 0 -80q-24 -39 -69 -40q-45 1 -69 40q-22 40 0 80q24 39 69 40v0z" />
</svg>
