<?xml version="1.0" standalone="no"?>
<!DOCTYPE svg PUBLIC "-//W3C//DTD SVG 1.1//EN" "http://www.w3.org/Graphics/SVG/1.1/DTD/svg11.dtd" >
<svg xmlns="http://www.w3.org/2000/svg" xmlns:xlink="http://www.w3.org/1999/xlink" version="1.1" viewBox="-10 -40 532 512">
   <path fill="currentColor"
d="M352 9h-288h288h-288q-15 1 -16 16v64v0q1 15 16 16h288v0q15 -1 16 -16v-64v0q-1 -15 -16 -16v0zM64 -39h288h-288h288q27 1 45 19t19 45v8v0v48v0v8v0q-1 27 -19 45t-45 19h-288v0q-27 -1 -45 -19t-19 -45v-64v0q1 -27 19 -45t45 -19v0zM160 313q0 -14 9 -23v0v0
q9 -9 23 -9h8v0v-16v0q1 -31 21 -51t51 -21h152v0q17 0 28 -12q12 -11 12 -28v-48v0q-1 -17 -16 -23v-49v0q28 4 46 24q17 20 18 48v48v0q-1 37 -26 62t-62 26h-152v0q-22 2 -24 24v16v0h8v0q14 0 23 9t9 23v128v0q0 14 -9 23t-23 9h-64v0q-14 0 -23 -9t-9 -23v-128v0z" />
</svg>
