<?xml version="1.0" standalone="no"?>
<!DOCTYPE svg PUBLIC "-//W3C//DTD SVG 1.1//EN" "http://www.w3.org/Graphics/SVG/1.1/DTD/svg11.dtd" >
<svg xmlns="http://www.w3.org/2000/svg" xmlns:xlink="http://www.w3.org/1999/xlink" version="1.1" viewBox="-10 -40 660 512">
   <path fill="currentColor"
d="M155 49q14 -6 28 -1l186 66v0q10 3 19 -2l83 -43v0q23 -12 49 -12h50v0q9 0 13 7q5 7 1 15q-27 56 -82 86l-250 131v0q-2 1 -4 1h-121v0q-4 0 -6 -3l-67 -77v0l23 -12v0q4 -1 7 0l58 26v0q11 4 21 -1l88 -46v0q12 -7 13 -20q0 -14 -11 -22l-129 -81v0l31 -12v0zM199 3
q-32 -11 -63 1l-45 19v0q-22 11 -24 34q-2 22 18 37l107 67v0l-41 21v0l-47 -21v0q-25 -10 -48 1l10 21v0l-10 -21v0l-32 16v0q-18 10 -22 28q-3 18 9 34l73 86v0l18 -16v0l-18 15v0q17 19 43 20h121v0q14 0 26 -6l251 -132v0q69 -37 103 -108q13 -33 -4 -61
q-18 -27 -54 -29h-50v0q-38 0 -71 17l-74 39v0l-176 -62v0zM24 425q-22 2 -24 24q2 22 24 24h592v0q22 -2 24 -24q-2 -22 -24 -24h-592v0z" />
</svg>
