<?xml version="1.0" standalone="no"?>
<!DOCTYPE svg PUBLIC "-//W3C//DTD SVG 1.1//EN" "http://www.w3.org/Graphics/SVG/1.1/DTD/svg11.dtd" >
<svg xmlns="http://www.w3.org/2000/svg" xmlns:xlink="http://www.w3.org/1999/xlink" version="1.1" viewBox="-10 -40 596 512">
   <path fill="currentColor"
d="M288 53q17 19 36 52v0v0q19 34 33 83q20 -16 42 -28q-23 -69 -52 -109q-30 -41 -45 -53q-6 -5 -14 -5t-14 5q-15 12 -45 53q-29 40 -52 109q23 12 43 28q13 -49 32 -83q19 -33 36 -52v0zM192 430q34 10 72 11h48v0q38 -1 72 -11q85 -26 138 -95q52 -69 54 -162
q-2 -18 -20 -20q-95 0 -172 54q-64 46 -96 119q-32 -73 -96 -119q-77 -54 -172 -54q-18 2 -20 20q2 93 54 162q53 69 138 95v0zM192 380q-57 -22 -95 -69v0v0q-38 -46 -47 -109q84 11 142 68q51 50 67 123q-35 -2 -67 -13v0zM384 380q-32 11 -67 13q16 -73 67 -123
q58 -57 142 -67q-9 62 -47 108q-38 47 -95 69v0z" />
</svg>
