<?xml version="1.0" standalone="no"?>
<!DOCTYPE svg PUBLIC "-//W3C//DTD SVG 1.1//EN" "http://www.w3.org/Graphics/SVG/1.1/DTD/svg11.dtd" >
<svg xmlns="http://www.w3.org/2000/svg" xmlns:xlink="http://www.w3.org/1999/xlink" version="1.1" viewBox="-10 -40 596 512">
   <path fill="currentColor"
d="M32 121q1 36 32 55q32 18 64 0q31 -19 32 -55q-1 -36 -32 -55q-32 -18 -64 0q-31 19 -32 55v0zM80 295q-27 23 -61 32q-21 7 -18 29q6 21 28 18q44 -13 67 -31q43 32 96 34q53 -2 96 -34q43 32 96 34q53 -2 96 -34q23 18 67 31q22 2 28 -19q3 -22 -18 -28q-34 -9 -61 -32
q-16 -12 -32 0q-16 14 -37 24q-21 9 -43 10q-22 -1 -43 -10q-21 -10 -37 -24q-16 -12 -32 0q-16 14 -37 24q-21 9 -43 10q-22 -1 -43 -10q-20 -10 -37 -24q-16 -12 -32 0v0zM257 155l146 124l-146 -124l146 124q21 -5 40 -18l8 -4l-155 -132v0q36 -20 80 -20h80v0
q22 -2 24 -24q-2 -22 -24 -24h-80v0q-92 2 -153 63t-63 153v2v0q17 6 32 6q8 0 16 -1v-7v0q2 -71 49 -118v0z" />
</svg>
