<?xml version="1.0" standalone="no"?>
<!DOCTYPE svg PUBLIC "-//W3C//DTD SVG 1.1//EN" "http://www.w3.org/Graphics/SVG/1.1/DTD/svg11.dtd" >
<svg xmlns="http://www.w3.org/2000/svg" xmlns:xlink="http://www.w3.org/1999/xlink" version="1.1" viewBox="-10 -40 468 512">
   <path fill="currentColor"
d="M88 -39q-37 1 -62 26v0v0q-25 25 -26 62v336v0v0v0v8q1 34 23 57q23 22 57 23h344v0q22 -2 24 -24q-2 -22 -24 -24h-8v0v-69v0q30 -16 32 -51v-288v0q-1 -24 -16 -40q-16 -15 -40 -16h-304v0zM368 361v64v-64v64h-288v0q-14 0 -23 -9t-9 -23t9 -23t23 -9h288v0zM80 313
q-17 0 -32 7v-271v0q0 -17 12 -28q11 -12 28 -12h304v0q7 1 8 8v288v0q-1 7 -8 8h-312v0z" />
</svg>
