<?xml version="1.0" standalone="no"?>
<!DOCTYPE svg PUBLIC "-//W3C//DTD SVG 1.1//EN" "http://www.w3.org/Graphics/SVG/1.1/DTD/svg11.dtd" >
<svg xmlns="http://www.w3.org/2000/svg" xmlns:xlink="http://www.w3.org/1999/xlink" version="1.1" viewBox="-10 -40 532 512">
   <path fill="currentColor"
d="M80 57q0 -14 9 -23v0v0q9 -9 23 -9h64v0q14 0 23 9t9 23h96v0q0 -14 9 -23t23 -9h64v0q14 0 23 9t9 23h16v0q27 1 45 19t19 45v224v0q-1 27 -19 45t-45 19h-384v0q-27 -1 -45 -19t-19 -45v-224v0q1 -27 19 -45t45 -19h16v0zM64 105q-15 1 -16 16v224v0q1 15 16 16h384v0
q15 -1 16 -16v-224v0q-1 -15 -16 -16h-384v0zM368 137q15 1 16 16v32v0h32v0q15 1 16 16q-1 15 -16 16h-32v0v32v0q-1 15 -16 16q-15 -1 -16 -16v-32v0h-32v0q-15 -1 -16 -16q1 -15 16 -16h32v0v-32v0q1 -15 16 -16v0zM96 185h96h-96h96q15 1 16 16q-1 15 -16 16h-96v0
q-15 -1 -16 -16q1 -15 16 -16v0z" />
</svg>
