<?xml version="1.0" standalone="no"?>
<!DOCTYPE svg PUBLIC "-//W3C//DTD SVG 1.1//EN" "http://www.w3.org/Graphics/SVG/1.1/DTD/svg11.dtd" >
<svg xmlns="http://www.w3.org/2000/svg" xmlns:xlink="http://www.w3.org/1999/xlink" version="1.1" viewBox="-10 -40 660 512">
   <path fill="currentColor"
d="M171 41h53h-53h53v16v0v80v0v16v0h-125v0l35 -87v0q11 -24 37 -25v0zM272 153v-16v16v-16v-80v0v-16v0h81v0q19 0 31 15l78 97v0h-190v0zM524 154l-102 -128l102 128l-102 -128q-27 -32 -69 -33h-182v0q-27 0 -49 15t-32 40l-43 107v0q-21 6 -34 23t-13 39v112v0
q0 14 9 23t23 9h33v0q7 35 33 57t62 23q36 -1 62 -23t33 -57h130v0q7 35 33 57t62 23q36 -1 62 -23t33 -57h33v0q14 0 23 -9t9 -23v-48v0q-1 -51 -34 -86q-32 -36 -82 -41v0zM435 329q9 -26 36 -32q27 -4 46 16q17 22 8 48t-36 32q-27 4 -46 -16q-17 -22 -8 -48v0zM571 313
q-11 -28 -35 -46v0v0q-24 -17 -56 -18q-32 1 -56 18q-24 18 -34 46h-139v0q-11 -28 -35 -46q-24 -17 -56 -18q-32 1 -56 18q-24 18 -34 46h-22v0v-96v0q1 -15 16 -16h448v0q34 1 57 23q22 23 23 57v32v0h-21v0zM160 297q27 1 42 24q12 24 0 48q-15 23 -42 24q-27 -1 -42 -24
q-12 -24 0 -48q15 -23 42 -24v0z" />
</svg>
