<?xml version="1.0" standalone="no"?>
<!DOCTYPE svg PUBLIC "-//W3C//DTD SVG 1.1//EN" "http://www.w3.org/Graphics/SVG/1.1/DTD/svg11.dtd" >
<svg xmlns="http://www.w3.org/2000/svg" xmlns:xlink="http://www.w3.org/1999/xlink" version="1.1" viewBox="-11 0 662 512">
   <path fill="currentColor"
d="M39 -34q-19 -12 -34 4q-12 19 4 34l592 464v0q19 12 34 -4q12 -19 -4 -34l-96 -75v0q40 -60 41 -138q-1 -72 -35 -129q-34 -58 -92 -92q-57 -34 -129 -35q-55 0 -103 22q-47 21 -83 58l-95 -75v0zM172 71q59 -60 148 -62q88 2 147 61t61 147q-1 60 -31 109l-100 -79v0
l48 -124v0q4 -15 -6 -25t-25 -6l-144 56v0l-98 -77v0zM468 426l-40 -31l40 31l-40 -31q-48 29 -108 30q-88 -2 -147 -61t-61 -147q0 -34 10 -64l-40 -31v0q-18 44 -18 95q1 72 35 129q34 58 92 92q57 34 129 35q84 -1 148 -47v0zM317 307l-92 -73l92 73l-92 -73l-30 77v0
q-4 15 6 25q10 11 25 6l91 -35v0z" />
</svg>
