<?xml version="1.0" standalone="no"?>
<!DOCTYPE svg PUBLIC "-//W3C//DTD SVG 1.1//EN" "http://www.w3.org/Graphics/SVG/1.1/DTD/svg11.dtd" >
<svg xmlns="http://www.w3.org/2000/svg" xmlns:xlink="http://www.w3.org/1999/xlink" version="1.1" viewBox="-10 -40 660 512">
   <path fill="currentColor"
d="M320 41l-18 -20l18 20l-18 -20q-24 -27 -61 -28h-1v0q-34 1 -57 23q-22 23 -23 57q0 17 7 32h-71v0q-49 3 -72 43q-24 40 -24 85q0 44 19 84q20 39 62 57q16 5 33 2l142 -32v0v81v0q0 10 9 15q9 3 17 -3l38 -31v0l38 31v0q8 6 17 3q9 -5 9 -15v-81v0l142 32v0q17 3 33 -2
q42 -18 62 -57q19 -40 19 -84q0 -45 -24 -85q-23 -40 -72 -43h-71v0q7 -15 7 -32q-1 -34 -23 -57q-23 -22 -57 -23h-1v0q-36 1 -61 28l-18 20v0zM400 105h-8h8h-54q-12 -3 -6 -13l34 -40v0q9 -9 21 -11h1h3h1v0q14 0 23 9t9 23t-9 23t-23 9v0zM294 105h-54h54h-54
q-14 0 -23 -9t-9 -23t9 -23t23 -9h1v0q15 0 25 11l34 40v0q6 10 -6 13v0zM240 153h16h-16h16v142v0l-152 34v0h-4h-2v0v0v0q-23 -9 -36 -34q-14 -26 -14 -62q0 -33 16 -59q14 -22 32 -21h144v0zM384 153h16h-16h160q18 -1 32 21q16 26 16 59q0 36 -14 62q-13 25 -36 34v0v0
v0h-2h-4l-152 -34v0v-142v0z" />
</svg>
