<?xml version="1.0" standalone="no"?>
<!DOCTYPE svg PUBLIC "-//W3C//DTD SVG 1.1//EN" "http://www.w3.org/Graphics/SVG/1.1/DTD/svg11.dtd" >
<svg xmlns="http://www.w3.org/2000/svg" xmlns:xlink="http://www.w3.org/1999/xlink" version="1.1" viewBox="-10 -40 660 512">
   <path fill="currentColor"
d="M424 49q-2 22 -24 24h-72v0v32v0h69v0q19 0 35 11l52 34v0q27 20 28 53v142v0q-1 27 -19 45t-45 19h-193v0q-31 -1 -50 -24l-32 -40v0h-29v0q-27 -1 -45 -19t-19 -45v-40v0h-32v0v72v0q-2 22 -24 24q-22 -2 -24 -24v-192v0q2 -22 24 -24q22 2 24 24v72v0h32v0v-24v0
q1 -27 19 -45t45 -19h16h120v-32v0h-72v0q-22 -2 -24 -24q2 -22 24 -24h192v0q22 2 24 24v0zM210 315l32 40l-32 -40l32 40q5 6 13 6h193v0q15 -1 16 -16v-142v0q0 -8 -7 -13l-51 -34v0q-4 -3 -9 -3h-205h-48q-15 1 -16 16v112v0q1 15 16 16h29v0q23 0 37 18v0zM544 185
q0 -14 9 -23v0v0q9 -9 23 -9h32v0q14 0 23 9t9 23v192v0q0 14 -9 23t-23 9h-32v0q-14 0 -23 -9t-9 -23v-192v0zM304 173q18 2 20 20v56v0q-2 18 -20 20q-18 -2 -20 -20v-56v0q2 -18 20 -20v0zM280 313q2 -22 24 -24q22 2 24 24q-2 22 -24 24q-22 -2 -24 -24v0z" />
</svg>
