<?xml version="1.0" standalone="no"?>
<!DOCTYPE svg PUBLIC "-//W3C//DTD SVG 1.1//EN" "http://www.w3.org/Graphics/SVG/1.1/DTD/svg11.dtd" >
<svg xmlns="http://www.w3.org/2000/svg" xmlns:xlink="http://www.w3.org/1999/xlink" version="1.1" viewBox="-10 -40 458 512">
   <path fill="currentColor"
d="M15 328q-14 17 0 34q17 14 34 0l18 -19v0q53 42 117 49v33v0h-96v0q-22 2 -24 24q2 22 24 24h240v0q22 -2 24 -24q-2 -22 -24 -24h-96v0v-33v0q76 -8 134 -65q62 -64 66 -147t-49 -151l18 -19v0q14 -17 0 -34q-17 -14 -34 0l-34 35v0q-15 17 0 34q51 54 51 124t-51 124
q-55 52 -125 52t-124 -52q-17 -14 -34 0l-35 35v0zM112 169q0 -26 13 -48v0v0q13 -22 35 -35q23 -13 48 -13t48 13q22 13 35 35t13 48t-13 48t-35 35q-23 13 -48 13t-48 -13q-22 -13 -35 -35t-13 -48v0zM352 169q0 -39 -19 -72v0v0q-19 -33 -53 -53q-34 -19 -72 -19t-72 19
q-34 20 -53 53t-19 72t19 72t53 53q34 19 72 19t72 -19q34 -20 53 -53t19 -72v0z" />
</svg>
