<?xml version="1.0" standalone="no"?>
<!DOCTYPE svg PUBLIC "-//W3C//DTD SVG 1.1//EN" "http://www.w3.org/Graphics/SVG/1.1/DTD/svg11.dtd" >
<svg xmlns="http://www.w3.org/2000/svg" xmlns:xlink="http://www.w3.org/1999/xlink" version="1.1" viewBox="-10 -40 659 512">
   <path fill="currentColor"
d="M166 -39q-39 -2 -76 27q-27 21 -57 69q-30 49 -33 125q1 37 6 71q8 43 40 69t74 26q53 -1 87 -38q33 -38 29 -91v-5v0l16 8v0q4 2 4 7v220v0q2 22 24 24q22 -2 24 -24v-220v0q-1 -34 -31 -50l-31 -16v0l16 -17v0q29 -31 29 -74q0 -27 -13 -51t-37 -39l-4 -3v0l-13 20v0
l13 -20v0q-29 -18 -63 -18h-4v0zM121 24q20 -16 45 -15h4v0q20 0 37 11l5 3v0q27 18 28 50q-1 23 -16 40l-17 18v0q-25 27 -22 63l4 30v0q2 31 -18 53q-19 22 -51 23q-25 0 -43 -15q-19 -15 -23 -40q-5 -32 -6 -63q2 -61 27 -101q24 -39 46 -57v0zM432 20q17 -11 37 -11h4v0
q25 -1 45 15q22 18 46 57q25 40 27 101q-1 31 -6 63q-4 25 -23 40q-18 15 -43 15q-32 -1 -51 -23q-20 -22 -18 -53l4 -30v0q3 -36 -22 -63l-17 -18v0q-15 -17 -16 -40q1 -32 28 -50l5 -3v0zM469 -39q-34 0 -63 18l-5 3v0q-23 15 -36 39q-14 24 -14 52q1 42 29 73l17 18v0
l-30 15v0q-30 16 -31 50v220v0q2 22 24 24q22 -2 24 -24v-220v0q0 -5 4 -7l15 -8v0v5v0q-4 53 29 91q34 37 87 38q42 0 74 -26t39 -70q6 -33 7 -70q-3 -76 -33 -125q-31 -48 -57 -69q-37 -29 -76 -27h-4v0z" />
</svg>
