<?xml version="1.0" standalone="no"?>
<!DOCTYPE svg PUBLIC "-//W3C//DTD SVG 1.1//EN" "http://www.w3.org/Graphics/SVG/1.1/DTD/svg11.dtd" >
<svg xmlns="http://www.w3.org/2000/svg" xmlns:xlink="http://www.w3.org/1999/xlink" version="1.1" viewBox="-10 -40 586 512">
   <path fill="currentColor"
d="M408 21h112h-112h112q18 2 20 20q-2 18 -20 20h-112v0q-18 -2 -20 -20q2 -18 20 -20v0zM263 94q12 -5 25 -5t25 5l209 90v0q21 10 22 33q-1 23 -22 33l-209 90v0q-12 5 -25 5t-25 -5l-209 -90v0q-21 -10 -22 -33q1 -23 22 -33l209 -90v0zM288 137q-3 0 -6 1l-184 79v0
l184 79v0q3 1 6 1t6 -1l184 -79v0l-184 -79v0q-3 -1 -6 -1v0zM54 312l31 -14l-31 14l31 -14l61 27v0l-48 20v0l184 79v0q3 1 6 1t6 -1l184 -79v0l-48 -20v0l61 -27v0l31 14v0q21 10 22 33q-1 23 -22 33l-209 90v0q-12 5 -25 5t-25 -5l-209 -90v0q-21 -10 -22 -33
q1 -23 22 -33v0z" />
</svg>
