<?xml version="1.0" standalone="no"?>
<!DOCTYPE svg PUBLIC "-//W3C//DTD SVG 1.1//EN" "http://www.w3.org/Graphics/SVG/1.1/DTD/svg11.dtd" >
<svg xmlns="http://www.w3.org/2000/svg" xmlns:xlink="http://www.w3.org/1999/xlink" version="1.1" viewBox="-10 -40 532 512">
   <path fill="currentColor"
d="M256 -39q22 2 24 24v42v0q66 9 112 54q45 46 55 112h41v0q22 2 24 24q-2 22 -24 24h-41v0q-10 66 -55 112q-46 45 -112 55v41v0q-2 22 -24 24q-22 -2 -24 -24v-41v0q-66 -10 -112 -55q-45 -46 -54 -112h-42v0q-22 -2 -24 -24q2 -22 24 -24h42v0q9 -66 54 -112
q46 -45 112 -54v-42v0q2 -22 24 -24v0zM112 217q0 39 19 72v0v0q19 33 53 53q34 19 72 19t72 -19q34 -20 53 -53t19 -72t-19 -72t-53 -53q-34 -19 -72 -19t-72 19q-34 20 -53 53t-19 72v0zM304 217q-1 -27 -24 -42q-24 -12 -48 0q-23 15 -24 42q1 27 24 42q24 12 48 0
q23 -15 24 -42v0zM160 217q0 -26 13 -48v0v0q13 -22 35 -35q23 -13 48 -13t48 13q22 13 35 35t13 48t-13 48t-35 35q-23 13 -48 13t-48 -13q-22 -13 -35 -35t-13 -48v0z" />
</svg>
