<?xml version="1.0" standalone="no"?>
<!DOCTYPE svg PUBLIC "-//W3C//DTD SVG 1.1//EN" "http://www.w3.org/Graphics/SVG/1.1/DTD/svg11.dtd" >
<svg xmlns="http://www.w3.org/2000/svg" xmlns:xlink="http://www.w3.org/1999/xlink" version="1.1" viewBox="-11 0 598 512">
   <path fill="currentColor"
d="M264 -15q2 -22 24 -24h72v0q22 2 24 24q-2 22 -24 24h-48v0v48v0h48v0q22 2 24 24q-2 22 -24 24h-48v0v84v0q25 8 40 28q16 21 16 48q-1 34 -23 57q-23 22 -57 23q-34 -1 -57 -23q-22 -23 -23 -57q0 -27 16 -48q15 -20 40 -28v-108v0v-96v0zM288 297q14 0 23 -9v0v0
q9 -9 9 -23t-9 -23t-23 -9t-23 9t-9 23t9 23t23 9v0zM112 247q28 25 65 33q4 27 19 49h-2h-2q-53 -2 -96 -34q-23 18 -67 31q-22 3 -29 -18q-2 -22 19 -29q34 -9 61 -32q16 -12 32 0v0zM384 329h-4q15 -22 19 -49q37 -8 65 -33q16 -12 32 0q27 23 61 32q21 7 19 29
q-7 21 -29 18q-44 -13 -67 -31q-43 32 -96 34v0zM112 391q16 14 37 24v0v0q21 10 43 10t43 -10t37 -24q16 -12 32 0q16 14 37 24t43 10t43 -10q20 -10 37 -24q16 -12 32 0q27 24 61 32q21 7 18 29q-6 21 -28 18q-44 -13 -67 -31q-43 32 -96 34q-53 -2 -96 -34q-43 32 -96 34
q-53 -2 -96 -34q-23 18 -67 31q-22 3 -29 -18q-2 -22 19 -29q34 -9 61 -32q16 -12 32 0v0z" />
</svg>
