<?xml version="1.0" standalone="no"?>
<!DOCTYPE svg PUBLIC "-//W3C//DTD SVG 1.1//EN" "http://www.w3.org/Graphics/SVG/1.1/DTD/svg11.dtd" >
<svg xmlns="http://www.w3.org/2000/svg" xmlns:xlink="http://www.w3.org/1999/xlink" version="1.1" viewBox="-10 -40 532 512">
   <path fill="currentColor"
d="M256 425q-88 -2 -147 -61v0v0q-59 -59 -61 -147q1 -75 45 -129l292 292v0q-54 44 -129 45v0zM336 263q38 -28 40 -78q-1 -41 -28 -68t-68 -28h-80v0q-16 1 -25 13l-48 -48v0q54 -44 129 -45q88 2 147 61t61 147q-1 75 -45 129l-83 -83v0zM216 143v-6v6v-6h64v0
q20 1 34 14q13 14 14 34q-2 30 -27 43l-85 -85v0zM256 473q70 -1 128 -34v0v0q58 -34 94 -94q34 -61 34 -128t-34 -128q-36 -60 -94 -94q-58 -33 -128 -34q-70 1 -128 34q-58 34 -94 94q-34 61 -34 128t34 128q36 60 94 94q58 33 128 34v0zM168 227v30v-30v30v64v0
q2 22 24 24q22 -2 24 -24v-40v0h6v0l-54 -54v0z" />
</svg>
