<?xml version="1.0" standalone="no"?>
<!DOCTYPE svg PUBLIC "-//W3C//DTD SVG 1.1//EN" "http://www.w3.org/Graphics/SVG/1.1/DTD/svg11.dtd" >
<svg xmlns="http://www.w3.org/2000/svg" xmlns:xlink="http://www.w3.org/1999/xlink" version="1.1" viewBox="-10 -40 532 512">
   <path fill="currentColor"
d="M202 -24q6 -14 22 -15h8v0q55 1 95 33t53 83q23 13 38 36q14 23 14 52v3q25 11 40 34q16 22 16 51q0 22 -9 40q32 30 33 76q-1 44 -30 74q-30 29 -74 30h-304v0q-44 -1 -74 -30q-29 -30 -30 -74q1 -46 33 -76q-9 -18 -9 -40q0 -29 16 -51q15 -23 40 -34v-1v-2
q1 -37 23 -63q21 -27 56 -35q9 -2 18 -2h3h15q12 0 20 -9q9 -8 9 -20v-4v0q0 -13 -9 -23l-8 -7v0q-11 -12 -5 -26v0zM270 16q2 8 2 16v4v0q-1 32 -23 54t-54 23h-15h-3q-3 0 -6 1h-1h-1q-18 4 -29 18q-12 14 -12 33q0 7 2 14q3 11 -3 20t-17 10q-16 3 -27 15t-11 29
q0 18 11 30q8 8 6 20q-2 11 -12 17q-27 16 -29 49q1 24 16 40q16 15 40 16h304v0q24 -1 40 -16q15 -16 16 -40q-2 -33 -29 -49q-10 -6 -12 -17q-2 -12 5 -20q12 -12 12 -30q0 -17 -11 -29t-27 -15q-11 -1 -17 -10t-3 -20q2 -7 2 -14q-2 -36 -34 -49q-13 -5 -15 -19
q-5 -28 -22 -49t-43 -32v0z" />
</svg>
