<?xml version="1.0" standalone="no"?>
<!DOCTYPE svg PUBLIC "-//W3C//DTD SVG 1.1//EN" "http://www.w3.org/Graphics/SVG/1.1/DTD/svg11.dtd" >
<svg xmlns="http://www.w3.org/2000/svg" xmlns:xlink="http://www.w3.org/1999/xlink" version="1.1" viewBox="-10 -40 532 512">
   <path fill="currentColor"
d="M421 20q9 -9 21 -8q20 3 22 24q0 9 -6 16l-133 149v0h-56v0l152 -181v0zM228 249v0v0v0h97v0q22 0 36 -16l133 -149v0q18 -21 18 -48q-1 -29 -19 -49t-46 -23q-37 -3 -62 25l-179 212v0v1v0l-6 6v0l-12 15v0q-6 8 -2 17t14 9h19h9zM165 286l-160 160l160 -160l-160 160
q-7 7 -4 17q5 9 15 10q15 0 57 -7q41 -8 89 -26t86 -53q38 -34 40 -90v-16v0h-16h-103l-4 5v0z" />
</svg>
