<?xml version="1.0" standalone="no"?>
<!DOCTYPE svg PUBLIC "-//W3C//DTD SVG 1.1//EN" "http://www.w3.org/Graphics/SVG/1.1/DTD/svg11.dtd" >
<svg xmlns="http://www.w3.org/2000/svg" xmlns:xlink="http://www.w3.org/1999/xlink" version="1.1" viewBox="-10 -40 532 512">
   <path fill="currentColor"
d="M256 425q57 0 104 -28v0v0q47 -27 76 -76q28 -49 28 -104t-28 -104q-29 -49 -76 -76q-47 -28 -104 -28t-104 28q-47 27 -76 76q-28 49 -28 104t28 104q29 49 76 76q47 28 104 28v0zM256 -39q70 1 128 34v0v0q58 34 94 94q34 61 34 128t-34 128q-36 60 -94 94
q-58 33 -128 34q-70 -1 -128 -34q-58 -34 -94 -94q-34 -61 -34 -128t34 -128q36 -60 94 -94q58 -33 128 -34v0zM288 73q0 14 -9 23v0v0q-9 9 -23 9t-23 -9t-9 -23t9 -23t23 -9t23 9t9 23v0zM256 369q-24 -1 -40 -16v0v0q-15 -16 -16 -40q0 -21 14 -37l-68 -153v0
q-7 -21 12 -32q21 -7 32 12l68 154v0q23 1 38 17t16 39q-1 24 -16 40q-16 15 -40 16v0zM384 121q0 14 -9 23v0v0q-9 9 -23 9t-23 -9t-9 -23t9 -23t23 -9t23 9t9 23v0zM400 185q14 0 23 9v0v0q9 9 9 23t-9 23t-23 9t-23 -9t-9 -23t9 -23t23 -9v0zM144 217q0 14 -9 23v0v0
q-9 9 -23 9t-23 -9t-9 -23t9 -23t23 -9t23 9t9 23v0z" />
</svg>
