<?xml version="1.0" standalone="no"?>
<!DOCTYPE svg PUBLIC "-//W3C//DTD SVG 1.1//EN" "http://www.w3.org/Graphics/SVG/1.1/DTD/svg11.dtd" >
<svg xmlns="http://www.w3.org/2000/svg" xmlns:xlink="http://www.w3.org/1999/xlink" version="1.1" viewBox="-10 -40 660 512">
   <path fill="currentColor"
d="M376 -7q-61 2 -94 17q-34 -4 -94 5q-68 12 -100 29q-31 17 -39 28l28 161v0q8 44 36 67q31 26 71 46q15 8 28 11l6 10q12 19 29 42q-45 2 -89 -22q-44 -23 -76 -50q-44 -38 -53 -96l-28 -164v0q-3 -15 5 -28q9 -17 49 -41q39 -25 125 -40q86 -13 131 -2q46 10 61 23l4 4
v0zM194 243q-23 9 -42 25q-6 3 -11 1t-5 -8q5 -27 22 -47q18 -20 45 -27l-8 49v0q-1 4 -1 7v0zM177 115q8 -5 12 3v1v0q3 17 -7 30q-9 13 -26 16t-31 -7q-13 -9 -16 -25v-2q1 -9 10 -7q14 4 30 2q16 -3 28 -11v0zM385 472q-45 -10 -81 -47v0v0q-36 -38 -59 -75
q-29 -51 -18 -108l28 -164v0q2 -15 13 -25q15 -13 61 -23q45 -11 131 2q86 16 125 40q40 24 50 41q7 13 4 28l-28 164v0q-9 58 -53 96q-34 29 -80 52q-47 24 -93 19v0zM338 391q32 30 55 34q24 4 63 -15q40 -20 71 -46q28 -23 36 -67l28 -161v0q-8 -11 -39 -28
q-32 -17 -100 -29q-68 -10 -104 -4q-35 6 -46 13l-27 162v0q-8 44 12 75q21 35 51 66v0zM395 198q-12 -9 -27 -12q-16 -2 -30 2q-10 2 -10 -7v-1q3 -17 16 -26t31 -7q17 3 26 16t7 30v1v0q-4 8 -12 3zM536 215q-4 8 -12 4q-12 -9 -28 -12q-15 -2 -30 2q-9 2 -10 -7v-1
q3 -17 16 -26q14 -9 31 -7q17 3 26 16q10 13 7 30v1v0v0zM516 272q6 -2 10 2v0v0q5 3 2 9q-16 34 -49 51q-33 18 -73 12q-39 -7 -64 -34q-26 -27 -30 -64q0 -7 5 -9q6 -2 11 2q37 33 89 42q53 8 98 -11h1z" />
</svg>
