<?xml version="1.0" standalone="no"?>
<!DOCTYPE svg PUBLIC "-//W3C//DTD SVG 1.1//EN" "http://www.w3.org/Graphics/SVG/1.1/DTD/svg11.dtd" >
<svg xmlns="http://www.w3.org/2000/svg" xmlns:xlink="http://www.w3.org/1999/xlink" version="1.1" viewBox="-10 -40 532 512">
   <path fill="currentColor"
d="M464 217q0 -57 -28 -104v0v0q-27 -47 -76 -76q-49 -28 -104 -28t-104 28q-49 29 -76 76q-28 47 -28 104t28 104q27 47 76 76q49 28 104 28t104 -28q49 -29 76 -76q28 -47 28 -104v0zM0 217q1 -70 34 -128v0v0q34 -58 94 -94q61 -34 128 -34t128 34q60 36 94 94
q33 58 34 128q-1 70 -34 128q-34 58 -94 94q-61 34 -128 34t-128 -34q-60 -36 -94 -94q-33 -58 -34 -128v0zM336 218l39 13l-39 -13l39 13q1 -7 1 -14q-1 -48 -31 -81l-25 34v0q16 20 16 47v1v0v0zM321 264q-15 21 -41 29v42v0q53 -13 80 -59l-39 -12v0zM232 335v-42v42v-42
q-26 -8 -41 -29l-39 12v0q27 46 80 59v0zM137 231l39 -13l-39 13l39 -13v-1v0q0 -27 16 -47l-2 -3v0l-23 -31v0q-30 33 -31 81q0 7 1 14v0zM230 141q12 -4 26 -4t26 4l24 -33v0q-23 -11 -50 -11t-50 11l23 31v0l1 2v0zM288 217q0 -14 -9 -23v0v0q-9 -9 -23 -9t-23 9t-9 23
t9 23t23 9t23 -9t9 -23v0zM256 49q46 0 84 23v0v0q38 22 61 61q23 40 23 84t-23 84q-23 39 -61 61q-38 23 -84 23t-84 -23q-38 -22 -61 -61q-23 -40 -23 -84t23 -84q23 -39 61 -61q38 -23 84 -23v0z" />
</svg>
