<?xml version="1.0" standalone="no"?>
<!DOCTYPE svg PUBLIC "-//W3C//DTD SVG 1.1//EN" "http://www.w3.org/Graphics/SVG/1.1/DTD/svg11.dtd" >
<svg xmlns="http://www.w3.org/2000/svg" xmlns:xlink="http://www.w3.org/1999/xlink" version="1.1" viewBox="-10 -40 652 512">
   <path fill="currentColor"
d="M280 9h88h-88h88q4 0 7 3l46 61v0h-149v0v-56v0q1 -7 8 -8v0zM482 73l-69 -90l69 90l-69 -90q-18 -21 -45 -22h-88v0q-24 1 -40 16q-15 16 -16 40v56v0h-104v0q-37 1 -62 26t-26 62v30v0q-9 8 -17 17q-14 17 1 34q17 13 33 -1q44 -46 111 -48q40 0 74 19q33 18 53 50
q8 11 21 11h24v0q13 0 21 -11q20 -32 53 -50q34 -19 74 -19q67 2 111 48q16 14 33 1q15 -17 1 -34q-8 -9 -17 -17v-30v0q-1 -37 -26 -62t-62 -26h-38v0zM560 162q-37 -17 -80 -17q-49 0 -91 22q-41 21 -69 58q-28 -37 -69 -58q-41 -22 -91 -22q-43 0 -80 17v-1v0
q0 -17 12 -28q11 -12 28 -12h400v0q17 0 28 12q12 11 12 28v1v0zM152 217q-20 2 -24 21q-11 3 -21 9q-17 -11 -32 2l-11 11v0q-13 15 -2 31q-6 11 -9 22q-19 4 -21 24v16v0q2 20 21 24q3 11 9 22q-11 16 2 31l11 11v0q15 13 32 2q10 6 21 9q4 19 24 21h16v0q20 -2 24 -21
q11 -3 22 -9q16 11 31 -2l11 -11v0q13 -15 2 -31q6 -11 9 -22q19 -4 21 -24v-16v0q-2 -20 -21 -24q-3 -11 -9 -21q11 -17 -2 -32l-11 -11v0q-15 -13 -31 -2q-11 -6 -22 -9q-4 -19 -24 -21h-16v0zM160 297q27 1 42 24q12 24 0 48q-15 23 -42 24q-27 -1 -42 -24q-12 -24 0 -48
q15 -23 42 -24v0zM472 217q-20 2 -24 21q-11 3 -21 9q-17 -11 -32 2l-11 11v0q-13 15 -2 31q-6 11 -9 22q-20 4 -21 24v16v0q2 20 21 24q3 11 9 22q-11 16 2 31l11 11v0q15 13 31 2q11 6 22 9q4 19 24 21h16v0q20 -2 24 -21q11 -3 22 -9q16 11 31 -2l11 -11v0q13 -15 2 -31
q6 -11 9 -22q19 -4 21 -24v-16v0q-2 -20 -21 -24q-3 -11 -9 -21q11 -17 -2 -32l-11 -11v0q-15 -13 -31 -2q-11 -6 -22 -9q-4 -19 -24 -21h-16v0zM480 297q27 1 42 24q12 24 0 48q-15 23 -42 24q-27 -1 -42 -24q-12 -24 0 -48q15 -23 42 -24v0z" />
</svg>
