<?xml version="1.0" standalone="no"?>
<!DOCTYPE svg PUBLIC "-//W3C//DTD SVG 1.1//EN" "http://www.w3.org/Graphics/SVG/1.1/DTD/svg11.dtd" >
<svg xmlns="http://www.w3.org/2000/svg" xmlns:xlink="http://www.w3.org/1999/xlink" version="1.1" viewBox="-10 -40 660 512">
   <path fill="currentColor"
d="M80 281q1 -15 16 -16q15 1 16 16q-1 15 -16 16q-15 -1 -16 -16v0zM160 281q-1 -36 -32 -55q-32 -18 -64 0q-31 19 -32 55q1 36 32 55q32 18 64 0q31 -19 32 -55v0zM64 377q-27 1 -45 19v0v0q-18 18 -19 45q0 14 9 23t23 9h128v0q14 0 23 -9t9 -23q-1 -27 -19 -45t-45 -19
h-64v0zM304 281q1 -15 16 -16q15 1 16 16q-1 15 -16 16q-15 -1 -16 -16v0zM384 281q-1 -36 -32 -55q-32 -18 -64 0q-31 19 -32 55q1 36 32 55q32 18 64 0q31 -19 32 -55v0zM288 377q-27 1 -45 19v0v0q-18 18 -19 45q0 14 9 23t23 9h128v0q14 0 23 -9t9 -23q-1 -27 -19 -45
t-45 -19h-64v0zM544 265q15 1 16 16q-1 15 -16 16q-15 -1 -16 -16q1 -15 16 -16v0zM544 345q36 -1 55 -32q18 -32 0 -64q-19 -31 -55 -32q-36 1 -55 32q-18 32 0 64q19 31 55 32v0zM448 441q0 14 9 23v0v0q9 9 23 9h128v0q14 0 23 -9t9 -23q-1 -27 -19 -45t-45 -19h-64v0
q-27 1 -45 19t-19 45v0zM544 9h-448h448h-448q-15 1 -16 16v161v0q-28 5 -48 23v-184v0q1 -27 19 -45t45 -19h448v0q27 1 45 19t19 45v184v0q-20 -18 -48 -23v-161v0q-1 -15 -16 -16v0z" />
</svg>
