<?xml version="1.0" standalone="no"?>
<!DOCTYPE svg PUBLIC "-//W3C//DTD SVG 1.1//EN" "http://www.w3.org/Graphics/SVG/1.1/DTD/svg11.dtd" >
<svg xmlns="http://www.w3.org/2000/svg" xmlns:xlink="http://www.w3.org/1999/xlink" version="1.1" viewBox="-10 -40 533 512">
   <path fill="currentColor"
d="M504 35q15 -16 2 -34q-16 -15 -34 -2l-152 130v0l-112 -98v0q-14 -11 -29 -2l-168 112v0q-17 14 -7 33q14 17 33 7l153 -102v0l114 100v0q16 12 32 0l168 -144v0zM200 393q-1 7 -8 8q-7 -1 -8 -8v-160v0q1 -7 8 -8q7 1 8 8v160v0zM192 185q-20 1 -34 14v0v0
q-13 14 -14 34v160v0q1 20 14 34q14 13 34 14q20 -1 34 -14q13 -14 14 -34v-160v0q-1 -20 -14 -34q-14 -13 -34 -14v0zM72 393q-1 7 -8 8q-7 -1 -8 -8v-64v0q1 -7 8 -8q7 1 8 8v64v0zM64 281q-20 1 -34 14v0v0q-13 14 -14 34v64v0q1 20 14 34q14 13 34 14q20 -1 34 -14
q13 -14 14 -34v-64v0q-1 -20 -14 -34q-14 -13 -34 -14v0zM328 297v96v-96v96q-1 7 -8 8q-7 -1 -8 -8v-96v0q1 -7 8 -8q7 1 8 8v0zM272 297v96v-96v96q1 20 14 34q14 13 34 14q20 -1 34 -14q13 -14 14 -34v-96v0q-1 -20 -14 -34q-14 -13 -34 -14q-20 1 -34 14q-13 14 -14 34
v0zM456 393q-1 7 -8 8q-7 -1 -8 -8v-160v0q1 -7 8 -8q7 1 8 8v160v0zM448 185q-20 1 -34 14v0v0q-13 14 -14 34v160v0q1 20 14 34q14 13 34 14q20 -1 34 -14q13 -14 14 -34v-160v0q-1 -20 -14 -34q-14 -13 -34 -14v0z" />
</svg>
