<?xml version="1.0" standalone="no"?>
<!DOCTYPE svg PUBLIC "-//W3C//DTD SVG 1.1//EN" "http://www.w3.org/Graphics/SVG/1.1/DTD/svg11.dtd" >
<svg xmlns="http://www.w3.org/2000/svg" xmlns:xlink="http://www.w3.org/1999/xlink" version="1.1" viewBox="-10 -40 468 512">
   <path fill="currentColor"
d="M400 193h-352h352h-352v-168v0q1 -15 16 -16h320v0q15 1 16 16v168v0zM0 217v24v-24v24v168v0q1 27 19 45t45 19h320v0q27 -1 45 -19t19 -45v-168v0v-24v0v-24v0v-168v0q-1 -27 -19 -45t-45 -19h-320v0q-27 1 -45 19t-19 45v168v0v24v0zM400 409q-1 15 -16 16h-320v0
q-15 -1 -16 -16v-168v0h352v0v168v0zM160 113v-8v8v-8h128v0v8v0q2 22 24 24q22 -2 24 -24v-16v0q0 -17 -12 -28q-11 -12 -28 -12h-144v0q-17 0 -28 12q-12 11 -12 28v16v0q2 22 24 24q22 -2 24 -24v0zM152 297q-17 0 -28 12v0v0q-12 11 -12 28v16v0q2 22 24 24
q22 -2 24 -24v-8v0h128v0v8v0q2 22 24 24q22 -2 24 -24v-16v0q0 -17 -12 -28q-11 -12 -28 -12h-144v0z" />
</svg>
