<?xml version="1.0" standalone="no"?>
<!DOCTYPE svg PUBLIC "-//W3C//DTD SVG 1.1//EN" "http://www.w3.org/Graphics/SVG/1.1/DTD/svg11.dtd" >
<svg xmlns="http://www.w3.org/2000/svg" xmlns:xlink="http://www.w3.org/1999/xlink" version="1.1" viewBox="-10 -40 532 512">
   <path fill="currentColor"
d="M48 17q-2 -22 -24 -24q-22 2 -24 24v352v0q1 31 21 51t51 21h416v0q22 -2 24 -24q-2 -22 -24 -24h-416v0q-22 -2 -24 -24v-352v0zM320 257q2 22 24 24h112v0q22 -2 24 -24v-112v0q-2 -22 -24 -24q-22 2 -24 24v54v0l-111 -111v0q-17 -14 -34 0l-79 79v0l-63 -63v0
q-17 -14 -34 0q-14 17 0 34l80 80v0q17 14 34 0l79 -79v0l94 94v0h-54v0q-22 2 -24 24v0z" />
</svg>
