<?xml version="1.0" standalone="no"?>
<!DOCTYPE svg PUBLIC "-//W3C//DTD SVG 1.1//EN" "http://www.w3.org/Graphics/SVG/1.1/DTD/svg11.dtd" >
<svg xmlns="http://www.w3.org/2000/svg" xmlns:xlink="http://www.w3.org/1999/xlink" version="1.1" viewBox="-10 -40 532 512">
   <path fill="currentColor"
d="M120 -39q22 2 24 24v8v0h48v0v-8v0q2 -22 24 -24q22 2 24 24v8v0h32v0v-8v0q2 -22 24 -24q22 2 24 24v8v0h48v0v-8v0q2 -22 24 -24q22 2 24 24v8v0v32v0v16v0v48v0v3v0q30 12 32 45v48v0v3q30 12 32 45v64v0v3q30 12 32 45v80v0q-1 20 -14 34q-14 13 -34 14h-416v0
q-20 -1 -34 -14q-13 -14 -14 -34v-80v0q2 -33 32 -45v-2v-1v-64v0q2 -33 32 -45v-2v-1v-48v0q2 -33 32 -45v-3v0v-48v0v-16v0v-32v0v-8v0q2 -22 24 -24v0zM144 41v48v-48v48h224v0v-48v0h-224v0zM112 137v48v-48v48h48v0v-48v0h-16h-32zM320 185v-48v48v-48h-128v0v48v0h32
v0q0 -14 9 -23t23 -9t23 9t9 23h32v0zM352 137v48v-48v48h48v0v-48v0h-32h-16zM352 233h-192h192h-192v64v0h64v0v-16v0q0 -14 9 -23t23 -9t23 9t9 23v16v0h64v0v-64v0zM384 297h48h-48h48v-64v0h-32h-16v64v0zM128 425h80h-80h80v-16v0q1 -20 14 -34q14 -13 34 -14
q20 1 34 14q13 14 14 34v16v0h80v0v-80v0h-32h-224v80v0zM416 425h48h-48h48v-80v0h-32h-16v80v0zM128 233h-16h16h-48v64v0h48v0v-64v0zM96 345h-16h16h-48v80v0h48v0v-80v0z" />
</svg>
