<?xml version="1.0" standalone="no"?>
<!DOCTYPE svg PUBLIC "-//W3C//DTD SVG 1.1//EN" "http://www.w3.org/Graphics/SVG/1.1/DTD/svg11.dtd" >
<svg xmlns="http://www.w3.org/2000/svg" xmlns:xlink="http://www.w3.org/1999/xlink" version="1.1" viewBox="-10 -40 532 512">
   <path fill="currentColor"
d="M198 33h-14h14h-14q-17 0 -28 12q-12 11 -12 28v48v0h278v0q26 1 40 21l42 63v0q8 12 8 27v49v0q0 14 -9 23t-23 9h-448v0q-14 0 -23 -9t-9 -23v-49v0q0 -15 8 -27l42 -63v0q14 -20 40 -21h6v0v-48v0q1 -37 26 -62t62 -26h14v0q14 -23 42 -24h64v0q20 1 34 14
q13 14 14 34q-1 20 -14 34q-14 13 -34 14h-64v0q-28 -1 -42 -24v0zM48 265h416h-416h416v-33v0l-42 -63v0h-332v0l-42 63v0v33v0zM128 449q2 -22 24 -24h80v0v-80v0h48v0v80v0h80v0q22 2 24 24q-2 22 -24 24h-104h-104q-22 -2 -24 -24v0z" />
</svg>
