<?xml version="1.0" standalone="no"?>
<!DOCTYPE svg PUBLIC "-//W3C//DTD SVG 1.1//EN" "http://www.w3.org/Graphics/SVG/1.1/DTD/svg11.dtd" >
<svg xmlns="http://www.w3.org/2000/svg" xmlns:xlink="http://www.w3.org/1999/xlink" version="1.1" viewBox="-10 -40 660 512">
   <path fill="currentColor"
d="M69 -35q-19 -10 -33 7q-11 19 7 33l48 32v0q19 11 33 -7q11 -19 -7 -33l-48 -32v0zM597 5q17 -14 7 -33q-14 -17 -33 -7l-48 32v0q-17 14 -7 33q14 17 33 7l48 -32v0zM24 121q-22 2 -24 24q2 22 24 24h64v0q22 -2 24 -24q-2 -22 -24 -24h-64v0zM552 121q-22 2 -24 24
q2 22 24 24h64v0q22 -2 24 -24q-2 -22 -24 -24h-64v0zM117 293q17 -14 7 -33q-14 -17 -33 -7l-48 32v0q-17 14 -7 33q14 17 33 7l48 -32v0zM549 253q-19 -10 -33 7q-11 19 7 33l48 32v0q19 11 33 -7q11 -19 -7 -33l-48 -32v0zM448 137q-1 41 -23 73q-5 8 -12 18v0v0v0v0v0v0
v0v0q-21 27 -40 59q-15 29 -19 58h49v0q3 -18 12 -35q15 -26 34 -51v0v0v0v0v0v0l16 -22q30 -43 31 -100q-2 -75 -52 -124q-49 -50 -124 -52q-75 2 -124 52q-50 49 -52 124q1 57 31 100l16 22v0v0v0v0q19 25 34 51q9 17 12 35h49v0q-4 -29 -19 -58q-18 -32 -39 -59v0v0v0v0
q-7 -10 -13 -18v0q-22 -32 -23 -73q1 -54 37 -91q37 -36 91 -37q54 1 91 37q36 37 37 91v0zM272 137q1 -20 14 -34v0v0q14 -13 34 -14q15 -1 16 -16q-1 -15 -16 -16q-34 1 -57 23q-22 23 -23 57q1 15 16 16q15 -1 16 -16v0zM400 393v-16v16v-16h-160v0v16v0q1 34 23 57
q23 22 57 23q34 -1 57 -23q22 -23 23 -57v0z" />
</svg>
