<?xml version="1.0" standalone="no"?>
<!DOCTYPE svg PUBLIC "-//W3C//DTD SVG 1.1//EN" "http://www.w3.org/Graphics/SVG/1.1/DTD/svg11.dtd" >
<svg xmlns="http://www.w3.org/2000/svg" xmlns:xlink="http://www.w3.org/1999/xlink" version="1.1" viewBox="-10 -40 468 512">
   <path fill="currentColor"
d="M400 57q-1 -15 -16 -16h-320v0q-15 1 -16 16v320v0q1 15 16 16h320v0q15 -1 16 -16v-320v0zM384 -7q27 1 45 19v0v0q18 18 19 45v320v0q-1 27 -19 45t-45 19h-320v0q-27 -1 -45 -19t-19 -45v-320v0q1 -27 19 -45t45 -19h320v0zM256 121q-2 22 -24 24h-112v0
q-22 -2 -24 -24q2 -22 24 -24h112v0q22 2 24 24v0zM328 193q22 2 24 24q-2 22 -24 24h-208v0q-22 -2 -24 -24q2 -22 24 -24h208v0zM192 313q-2 22 -24 24h-48v0q-22 -2 -24 -24q2 -22 24 -24h48v0q22 2 24 24v0z" />
</svg>
