<?xml version="1.0" standalone="no"?>
<!DOCTYPE svg PUBLIC "-//W3C//DTD SVG 1.1//EN" "http://www.w3.org/Graphics/SVG/1.1/DTD/svg11.dtd" >
<svg xmlns="http://www.w3.org/2000/svg" xmlns:xlink="http://www.w3.org/1999/xlink" version="1.1" viewBox="-10 -40 458 512">
   <path fill="currentColor"
d="M352 25q-1 -36 -32 -55q-32 -18 -64 0q-31 19 -32 55q1 36 32 55q32 18 64 0q31 -19 32 -55v0zM202 153q9 0 13 7l4 7v0l-67 162v0l-9 -6v0q-16 -12 -9 -30l54 -131v0q4 -9 14 -9v0zM250 218l8 12l-8 -12l8 12q10 16 28 18q17 3 32 -9l90 -76v0q15 -15 2 -33
q-15 -16 -33 -3l-83 70v0l-38 -62v0q-19 -29 -54 -30q-41 2 -58 39l-55 131v0q-10 25 -2 49t30 39l97 62v0h-158v0q-22 2 -24 24q2 22 24 24h240v0q17 -1 23 -17q4 -17 -10 -27l-116 -74v0l57 -137v0z" />
</svg>
