<?xml version="1.0" standalone="no"?>
<!DOCTYPE svg PUBLIC "-//W3C//DTD SVG 1.1//EN" "http://www.w3.org/Graphics/SVG/1.1/DTD/svg11.dtd" >
<svg xmlns="http://www.w3.org/2000/svg" xmlns:xlink="http://www.w3.org/1999/xlink" version="1.1" viewBox="-10 -40 650 512">
   <path fill="currentColor"
d="M240 265q-15 1 -16 16v128v0q1 15 16 16q15 -1 16 -16v-128v0q-1 -15 -16 -16v0zM176 281q1 -27 19 -45v0v0q18 -18 45 -19q27 1 45 19t19 45v128v0q-1 27 -19 45t-45 19q-27 -1 -45 -19t-19 -45v-128v0zM80 425q15 -1 16 -16q-1 -15 -16 -16q-15 1 -16 16q1 15 16 16v0z
M144 409q-1 36 -32 55q-32 18 -64 0q-31 -19 -32 -55q1 -36 32 -55q32 -18 64 0q31 19 32 55v0z" />
</svg>
