<?xml version="1.0" standalone="no"?>
<!DOCTYPE svg PUBLIC "-//W3C//DTD SVG 1.1//EN" "http://www.w3.org/Graphics/SVG/1.1/DTD/svg11.dtd" >
<svg xmlns="http://www.w3.org/2000/svg" xmlns:xlink="http://www.w3.org/1999/xlink" version="1.1" viewBox="-10 -40 532 512">
   <path fill="currentColor"
d="M288 9q0 -26 14 -46q-6 -2 -14 -2h-112v0q-20 1 -34 14q-13 14 -14 34v186v0q-1 34 -27 56l-66 54v0q-34 29 -35 74q1 40 28 66q26 27 67 28h6v0q35 0 63 -21l13 -11v0q-13 -22 -16 -48l-27 21v0q-14 11 -33 11h-6v0q-20 0 -33 -14q-14 -13 -14 -32q0 -22 17 -37l67 -54
v0q43 -36 44 -93v-90v0h112v0v-48v0h-112v0v-48v0h112v0zM368 -39q-20 1 -34 14v0v0q-13 14 -14 34v186v0q-1 34 -27 56l-66 54v0q-34 29 -35 74q1 40 28 66q26 27 67 28h6v0q35 0 63 -22l112 -91v0q43 -36 44 -93v-258v0q-1 -20 -14 -34q-14 -13 -34 -14h-96v0zM368 9h96
h-96h96v48v0h-96v0v-48v0zM368 105h96h-96h96v162v0q-1 34 -27 56l-111 90v0q-15 12 -33 12h-6v0q-20 0 -33 -14q-14 -13 -14 -32q0 -22 17 -37l67 -54v0q43 -36 44 -93v-90v0z" />
</svg>
