<?xml version="1.0" standalone="no"?>
<!DOCTYPE svg PUBLIC "-//W3C//DTD SVG 1.1//EN" "http://www.w3.org/Graphics/SVG/1.1/DTD/svg11.dtd" >
<svg xmlns="http://www.w3.org/2000/svg" xmlns:xlink="http://www.w3.org/1999/xlink" version="1.1" viewBox="-10 -40 660 512">
   <path fill="currentColor"
d="M305 -34q15 -10 30 0l128 101v0q32 27 33 69v63v0l31 -31v0q17 -14 34 0l63 63v0q16 16 16 39v131v0q-1 31 -21 51t-51 21h-96h-400q-31 -1 -51 -21t-21 -51v-131v0q0 -23 16 -39l63 -63v0q17 -14 34 0l31 31v0v-63v0q1 -42 33 -69l128 -101v0zM496 425h72h-72h72
q22 -2 24 -24v-131v0q0 -3 -2 -5l-46 -46v0l-46 46v0q-2 2 -2 5v155v0zM448 136q0 -19 -15 -31l-113 -89v0l-113 89v0q-15 12 -15 31v134v0v155v0h64v0v-80v0q1 -27 19 -45t45 -19q27 1 45 19t19 45v80v0h64v0v-155v0v-134v0zM144 270q0 -3 -2 -5l-46 -46v0l-46 46v0
q-2 2 -2 5v131v0q2 22 24 24h72v0v-155v0zM327 85l16 28l-16 -28l16 28h32v0q11 2 7 12l-16 28v0l16 28v0q4 10 -7 12h-32v0l-16 28v0q-7 8 -14 0l-16 -28v0h-32v0q-11 -2 -7 -12l16 -28v0l-16 -28v0q-4 -10 7 -12h32v0l16 -28v0q7 -8 14 0v0z" />
</svg>
