<?xml version="1.0" standalone="no"?>
<!DOCTYPE svg PUBLIC "-//W3C//DTD SVG 1.1//EN" "http://www.w3.org/Graphics/SVG/1.1/DTD/svg11.dtd" >
<svg xmlns="http://www.w3.org/2000/svg" xmlns:xlink="http://www.w3.org/1999/xlink" version="1.1" viewBox="-10 -40 396 512">
   <path fill="currentColor"
d="M56 217q2 -85 42 -138t94 -54q54 1 94 54t42 138q-2 85 -42 139q-40 52 -94 53q-54 -1 -94 -53q-40 -54 -42 -139v0zM192 -23q-40 0 -74 20v0v0q-34 20 -58 53q-50 68 -52 167q2 99 52 167q24 33 58 53t74 20t74 -20t58 -53q50 -68 52 -167q-2 -99 -52 -167
q-24 -33 -58 -53t-74 -20v0zM120 193q-22 2 -24 24q2 22 24 24h144v0q22 -2 24 -24q-2 -22 -24 -24h-144v0z" />
</svg>
