<?xml version="1.0" standalone="no"?>
<!DOCTYPE svg PUBLIC "-//W3C//DTD SVG 1.1//EN" "http://www.w3.org/Graphics/SVG/1.1/DTD/svg11.dtd" >
<svg xmlns="http://www.w3.org/2000/svg" xmlns:xlink="http://www.w3.org/1999/xlink" version="1.1" viewBox="-10 -40 660 512">
   <path fill="currentColor"
d="M80 9q-14 0 -23 9v0v0q-9 9 -9 23v352v0q0 14 9 23t23 9t23 -9t9 -23v-16v0v-320v0v-16v0q0 -14 -9 -23t-23 -9v0zM153 425q-9 22 -29 35v0v0q-19 13 -44 13q-34 -1 -57 -23q-22 -23 -23 -57v-352v0q1 -34 23 -57q23 -22 57 -23q25 0 44 13q20 13 29 35h7h327
q9 -22 29 -35q19 -13 44 -13q34 1 57 23q22 23 23 57v352v0q-1 34 -23 57q-23 22 -57 23q-25 0 -44 -13q-20 -13 -29 -35h-7h-327zM160 377h320h-320h320v-320v0h-320v0v320v0zM528 393q0 14 9 23v0v0q9 9 23 9t23 -9t9 -23v-352v0q0 -14 -9 -23t-23 -9t-23 9t-9 23v16v0
v320v0v16v0zM196 275q0 -5 3 -9l28 -49v0l-29 -48v0q-2 -5 -2 -10q1 -16 18 -18h57v0l31 -54v0q6 -10 18 -10t18 10l31 54v0h57v0q16 2 18 18q0 5 -2 10l-29 48v0l29 49v0q2 4 2 9q-1 16 -18 18h-57v0l-31 54v0q-6 10 -18 10t-18 -10l-31 -54v0h-57v0q-16 -2 -18 -18v0z
M320 329l21 -36l-21 36l21 -36h-42v0l21 36v0zM255 217l30 52l-30 -52l30 52h70v0l30 -52v0l-30 -52v0h-70v0l-31 52h1zM399 241l-16 28l16 -28l-16 28h33v0l-17 -28v0zM416 165h-33h33h-33l16 28v0l17 -28v0zM320 105l-21 36l21 -36l-21 36h42v0l-21 -36v0zM224 165l17 28
l-17 -28l17 28l16 -28v0h-33v0zM257 269l-16 -28l16 28l-16 -28l-17 28v0h33v0z" />
</svg>
