<?xml version="1.0" standalone="no"?>
<!DOCTYPE svg PUBLIC "-//W3C//DTD SVG 1.1//EN" "http://www.w3.org/Graphics/SVG/1.1/DTD/svg11.dtd" >
<svg xmlns="http://www.w3.org/2000/svg" xmlns:xlink="http://www.w3.org/1999/xlink" version="1.1" viewBox="-10 -40 660 512">
   <path fill="currentColor"
d="M576 9h-352h352h-352q-15 1 -16 16v41v0q-22 -9 -48 -9v-32v0q1 -27 19 -45t45 -19h352v0q27 1 45 19t19 45v288v0q-1 27 -19 45t-45 19h-239v0q-13 -27 -34 -48h273v0q15 -1 16 -16v-288v0q-1 -15 -16 -16v0zM413 100q-7 -7 -4 -17q5 -9 15 -10h88v0q15 1 16 16v88v0
q0 10 -10 15q-10 3 -17 -4l-27 -27v0l-73 73v0q-17 14 -34 0l-64 -64v0q-14 -17 0 -34q17 -14 34 0l47 47v0l56 -56v0l-27 -27v0zM160 233q27 -1 42 -24q12 -24 0 -48q-15 -23 -42 -24q-27 1 -42 24q-12 24 0 48q15 23 42 24v0zM160 89q26 0 48 13v0v0q22 13 35 35
q13 23 13 48t-13 48q-13 22 -35 35t-48 13t-48 -13t-35 -35q-13 -23 -13 -48t13 -48q13 -22 35 -35t48 -13v0zM133 361q-30 1 -52 18v0v0q-23 18 -30 46h218v0q-7 -28 -30 -46q-22 -17 -52 -18h-54v0zM133 313h54h-54h54q56 1 94 39t39 94q-2 25 -27 27h-266v0
q-25 -2 -27 -27q1 -56 39 -94t94 -39v0z" />
</svg>
