<?xml version="1.0" standalone="no"?>
<!DOCTYPE svg PUBLIC "-//W3C//DTD SVG 1.1//EN" "http://www.w3.org/Graphics/SVG/1.1/DTD/svg11.dtd" >
<svg xmlns="http://www.w3.org/2000/svg" xmlns:xlink="http://www.w3.org/1999/xlink" version="1.1" viewBox="-10 -40 468 512">
   <path fill="currentColor"
d="M144 89h160h-160h160v16v0q-1 34 -23 57q-23 22 -57 23q-34 -1 -57 -23q-22 -23 -23 -57v-16v0zM144 -20v0v0v0q-1 0 -1 -1l-3 -2v0l-16 -12v0q-4 -4 -10 -4h-2v0q-15 1 -16 16v23v0v3v0v0v0v102v0q1 54 37 91q37 36 91 37q54 -1 91 -37q36 -37 37 -91v-102v0v0v0v-3v0
v-23v0q-1 -15 -16 -16h-2v0q-6 0 -10 4l-16 12v0l-3 2v0q0 1 -1 1v0v0q-17 11 -35 2l-30 -17v0q-7 -4 -15 -4t-15 4l-30 17v0q-18 10 -35 -2v0zM168 313h112h-112h112q49 1 82 33q33 31 38 79h-352v0q5 -48 38 -79q33 -32 82 -33v0zM168 265q-71 2 -119 49v0v0
q-47 48 -49 119v8v0q0 14 9 23t23 9h384v0q14 0 23 -9t9 -23v-8v0q-2 -71 -49 -119q-48 -47 -119 -49h-112v0z" />
</svg>
