<?xml version="1.0" standalone="no"?>
<!DOCTYPE svg PUBLIC "-//W3C//DTD SVG 1.1//EN" "http://www.w3.org/Graphics/SVG/1.1/DTD/svg11.dtd" >
<svg xmlns="http://www.w3.org/2000/svg" xmlns:xlink="http://www.w3.org/1999/xlink" version="1.1" viewBox="-10 -40 468 512">
   <path fill="currentColor"
d="M267 -1q12 -18 -5 -33q-18 -12 -33 5l-5 6v0q-16 22 -22 48h-106v0q-41 1 -68 28t-28 68v16v0q0 14 9 23t23 9h384v0q14 0 23 -9t9 -23v-16v0q-1 -41 -28 -68t-68 -28h-100v0q4 -10 10 -19l5 -7v0zM400 121h-352h352h-352q1 -20 14 -34q14 -13 34 -14h256v0q20 1 34 14
q13 14 14 34v0zM48 201q2 40 17 86v0v0q15 45 51 86v0v0q35 40 98 64q10 4 20 0q63 -24 98 -64q36 -41 51 -86q15 -46 17 -86h-48v0q-2 51 -30 105q-28 53 -98 84q-70 -31 -98 -84q-28 -54 -29 -105h-49v0z" />
</svg>
