<?xml version="1.0" standalone="no"?>
<!DOCTYPE svg PUBLIC "-//W3C//DTD SVG 1.1//EN" "http://www.w3.org/Graphics/SVG/1.1/DTD/svg11.dtd" >
<svg xmlns="http://www.w3.org/2000/svg" xmlns:xlink="http://www.w3.org/1999/xlink" version="1.1" viewBox="-10 -40 531 512">
   <path fill="currentColor"
d="M121 31q21 33 79 52v49v0q-43 -9 -72 -29q-28 -19 -46 -43q-4 -6 -9 -13q-24 52 -25 106q1 57 27 111q7 -10 14 -19l38 30v0q-22 26 -31 58q-3 9 -12 12q-10 1 -16 -6q-7 -8 -13 -16l-1 -2v0l-2 -2q0 -1 -1 -2l-1 -1v0q-24 -36 -37 -78q-13 -43 -13 -85t13 -84t37 -78
l1 -1v0q3 -5 6 -9l1 -1v0q4 -7 10 -13q7 -8 17 -5q9 3 11 13q1 10 5 19v1v0q1 2 2 5v0v0q7 17 18 32v-1zM126 275l-37 -30l37 30l-37 -30q18 -22 45 -41t66 -29v50v0q-50 18 -74 50v0zM312 132v-49v49v-49q30 -9 49 -22q19 -14 30 -30q11 -14 18 -31v0v0q1 -3 2 -5v0l1 -1v0
q3 -9 4 -19q2 -10 12 -13q9 -3 16 5q6 6 11 13v1v0q3 4 6 9l1 1v0q42 64 49 139l-23 23v0l23 23v0q-7 76 -49 140v0v0q-2 3 -4 5l-1 2v0q-6 8 -13 16q-6 7 -15 6q-10 -3 -12 -12q-10 -32 -31 -58q-23 -32 -74 -50v-50v0q39 10 66 29t45 41q7 9 14 19q17 -34 23 -71l-6 -6v0
q-14 -15 -14 -34t14 -34l6 -6v0q-6 -35 -21 -66q-5 7 -9 13q-18 24 -46 43q-29 19 -72 29v0zM280 17v432v-432v432q-2 22 -24 24q-22 -2 -24 -24v-432v0q2 -22 24 -24q22 2 24 24v0z" />
</svg>
