<?xml version="1.0" standalone="no"?>
<!DOCTYPE svg PUBLIC "-//W3C//DTD SVG 1.1//EN" "http://www.w3.org/Graphics/SVG/1.1/DTD/svg11.dtd" >
<svg xmlns="http://www.w3.org/2000/svg" xmlns:xlink="http://www.w3.org/1999/xlink" version="1.1" viewBox="-10 -40 596 512">
   <path fill="currentColor"
d="M356 148q-20 -11 -25 -34l-7 -35v0q-17 10 -36 10t-36 -10l-7 35v0q-5 23 -25 34q-21 10 -43 1l-68 -33v0q-59 73 -61 167l13 -6v0q24 -11 47 -5q23 7 37 29l9 15v0l7 -8v0q22 -20 49 -19q28 2 47 25l31 40v0l31 -40v0q19 -23 46 -25q28 -1 50 19l7 8v0l9 -15v0
q14 -22 37 -29q23 -6 47 5l13 6v0q-2 -94 -61 -167l-68 33v0q-22 9 -43 -1v0zM576 307v0v0v0v2v0v29v0q0 8 -7 12q-6 4 -14 1l-25 -13v0l-2 -1v0v0v0l-35 -17v0q-13 -6 -21 6l-29 49v0q-11 14 -25 4l-37 -37v0q-13 -10 -24 2l-56 73v0q-13 12 -26 0l-56 -73v0
q-11 -12 -24 -2l-36 37v0q-14 10 -25 -4l-30 -49v0q-8 -12 -21 -6l-35 17v0v0v0l-2 1v0l-25 13v0q-8 3 -14 -1q-7 -4 -7 -12v-29v0v-2v0v0v0v-21v0q0 -57 20 -110q19 -53 56 -96q20 -21 47 -10l30 14v0l45 21v0l9 -48v0l7 -37v0q3 -10 14 -11q4 0 8 2l37 25v0q7 5 15 5
t15 -5l38 -25v0q3 -2 7 -2q11 1 14 11l7 37v0l9 48v0l45 -21v0l30 -14v0q27 -11 47 10q37 43 56 96q20 53 20 110v21v0z" />
</svg>
