<?xml version="1.0" standalone="no"?>
<!DOCTYPE svg PUBLIC "-//W3C//DTD SVG 1.1//EN" "http://www.w3.org/Graphics/SVG/1.1/DTD/svg11.dtd" >
<svg xmlns="http://www.w3.org/2000/svg" xmlns:xlink="http://www.w3.org/1999/xlink" version="1.1" viewBox="-10 -40 468 512">
   <path fill="currentColor"
d="M128 73q0 14 9 23v0v0q9 9 23 9t23 -9t9 -23q2 -5 -17 -34q-8 -9 -15 -18q-7 9 -15 18q-19 29 -17 34v0zM160 153q-34 -1 -57 -23v0v0q-22 -23 -23 -57q3 -31 27 -62t39 -45q6 -5 14 -5t14 5q15 14 39 45t27 62q-1 34 -23 57q-23 22 -57 23v0zM128 233h-32h32h-32v192v0
h128v0v-192v0h-48v0v56v0q-2 22 -24 24q-22 -2 -24 -24v-56v0zM48 425v-192v192v-192q1 -20 14 -34q14 -13 34 -14h128v0q20 1 34 14q13 14 14 34v192v0h36v0q-4 -11 -4 -24q1 -31 21 -51t51 -21q31 1 51 21t21 51q-1 31 -21 51t-51 21v0v0v0v0h-104h-248q-22 -2 -24 -24
q2 -22 24 -24h24v0zM400 401q-2 -22 -24 -24q-22 2 -24 24q2 22 24 24q22 -2 24 -24v0z" />
</svg>
