<?xml version="1.0" standalone="no"?>
<!DOCTYPE svg PUBLIC "-//W3C//DTD SVG 1.1//EN" "http://www.w3.org/Graphics/SVG/1.1/DTD/svg11.dtd" >
<svg xmlns="http://www.w3.org/2000/svg" xmlns:xlink="http://www.w3.org/1999/xlink" version="1.1" viewBox="-11 0 597 512">
   <path fill="currentColor"
d="M361 -39q17 0 29 12l36 36v0h44v0l36 -36v0q12 -12 29 -12t29 12t12 29v119v0q-1 54 -37 91q-37 36 -91 37q-54 -1 -90 -37q-37 -37 -38 -91v-119v0q1 -17 12 -29q12 -12 29 -12v0zM368 121q1 34 23 57v0v0q23 22 57 23q34 -1 57 -23q22 -23 23 -57v-102v0l-26 26v0
q-12 12 -29 12h-50v0q-17 0 -29 -12l-26 -26v0v102v0zM416 89q15 1 16 16q-1 15 -16 16q-15 -1 -16 -16q1 -15 16 -16v0zM464 105q1 -15 16 -16q15 1 16 16q-1 15 -16 16q-15 -1 -16 -16v0zM285 143h4h-4h4q4 25 14 47l-14 1v0q-77 8 -126 62t-51 132v0v0q0 17 12 28
q11 12 28 12h104v0v-64v0q0 -14 -9 -23t-23 -9h-8v0q-22 -2 -24 -24q2 -22 24 -24h8v0q30 1 52 19q21 18 27 47l93 -55v0q12 -6 24 0q12 7 12 21v96v0q1 15 16 16q15 -1 16 -16v-129v0q26 -2 48 -12v141v0q-1 27 -19 45t-45 19q-27 -1 -45 -19t-19 -45v-54v0l-80 47v0v23v0
h24v0q22 2 24 24q-2 22 -24 24h-176v0q-37 -1 -62 -26t-26 -62v0v0v-239v0q0 -16 -10 -27t-25 -13l-8 -1v0q-22 -5 -21 -27q5 -22 27 -21l8 1v0q34 5 55 29t22 59v94v0q30 -41 75 -66q44 -26 98 -31v0z" />
</svg>
