<?xml version="1.0" standalone="no"?>
<!DOCTYPE svg PUBLIC "-//W3C//DTD SVG 1.1//EN" "http://www.w3.org/Graphics/SVG/1.1/DTD/svg11.dtd" >
<svg xmlns="http://www.w3.org/2000/svg" xmlns:xlink="http://www.w3.org/1999/xlink" version="1.1" viewBox="-10 -40 655 512">
   <path fill="currentColor"
d="M496 -39q-82 2 -136 56v0v0q-54 55 -56 136q0 16 3 32q45 2 75 32q31 30 34 75q35 17 52 51q14 2 28 2q80 -2 133 -54q8 -8 4 -19q-6 -10 -17 -8q-13 2 -26 2q-62 -2 -103 -43t-43 -104q1 -41 21 -75q20 -33 54 -53q9 -6 7 -17q-3 -11 -14 -12q-8 -1 -16 -1v0zM128 281
q1 -20 14 -34v0v0q14 -13 34 -14q18 0 30 11q13 10 17 26q4 14 18 18q14 3 24 -8q12 -14 31 -15q16 0 27 10t13 25v2v1v0v1v1v2v0v31v0q0 11 8 18q9 7 20 5h4q14 0 23 9t9 23t-9 23t-23 9h-1v0h-1v0h-267v0h-1v0h-1h-1q-20 -1 -34 -14q-13 -14 -14 -34q1 -20 14 -34
q14 -13 34 -14h4q22 0 26 -22l2 -23v0v-3v0v0zM176 185q-40 1 -67 28v0v0q-27 26 -29 67v2v0q-35 7 -57 33t-23 62q1 41 28 68t68 28h3h266v0h3q34 -1 57 -24q22 -22 23 -56q-1 -30 -18 -51q-18 -21 -46 -27v-7v0v-2v-1v-1v-2v-5v0q0 -4 -1 -8q-7 -32 -30 -51
q-24 -20 -57 -21q-22 0 -41 10q-27 -40 -79 -42v0z" />
</svg>
