<?xml version="1.0" standalone="no"?>
<!DOCTYPE svg PUBLIC "-//W3C//DTD SVG 1.1//EN" "http://www.w3.org/Graphics/SVG/1.1/DTD/svg11.dtd" >
<svg xmlns="http://www.w3.org/2000/svg" xmlns:xlink="http://www.w3.org/1999/xlink" version="1.1" viewBox="-10 -40 532 512">
   <path fill="currentColor"
d="M69 285q17 7 35 1l147 -53v0q23 -8 30 -32q6 -23 -9 -43q-15 -19 -16 -45q1 -31 21 -51t51 -21q31 1 51 21t21 51q-1 31 -21 51l7 8v0l-7 -8v0q-11 11 -19 26q-12 30 9 54q22 23 23 56v13v0q-1 34 -23 57q-23 22 -57 23h-116v0q-53 -1 -92 -33q-40 -32 -52 -82l17 7v0z
M447 96q-7 -45 -40 -73v0v0q-33 -29 -79 -30q-51 1 -85 35t-35 85q0 17 4 32q7 24 23 43l-47 17v0l-100 36v0l-51 -22v0q-5 -2 -10 -2q-12 0 -19 8q-8 7 -8 19q2 83 57 139q56 56 139 58h116v0q54 -1 91 -37q36 -37 37 -91v-13v0q-1 -53 -37 -89q4 -7 9 -12q3 -3 5 -6h4v0
q39 -1 64 -27q26 -25 27 -64q-1 -11 -13 -11l-35 4v0q-9 1 -17 1v0zM344 137q22 -2 24 -24q-2 -22 -24 -24q-22 2 -24 24q2 22 24 24v0zM299 250q-22 -1 -27 21q-5 32 -41 44q-29 6 -49 -12q-18 -13 -34 2q-13 18 2 34q39 34 93 22q32 -8 52 -31q20 -22 25 -53
q1 -22 -21 -27v0z" />
</svg>
