<?xml version="1.0" standalone="no"?>
<!DOCTYPE svg PUBLIC "-//W3C//DTD SVG 1.1//EN" "http://www.w3.org/Graphics/SVG/1.1/DTD/svg11.dtd" >
<svg xmlns="http://www.w3.org/2000/svg" xmlns:xlink="http://www.w3.org/1999/xlink" version="1.1" viewBox="-10 -40 660 512">
   <path fill="currentColor"
d="M288 77l32 -51l-32 51l32 -51l32 51v0q9 15 27 20q16 5 30 12q17 8 35 2l28 -8v0l-2 3v0q-16 27 0 54q6 9 10 19q9 19 28 26l34 12v0l-34 12v0q-19 7 -28 27q-4 9 -10 19q-16 26 0 53l2 3v0l-28 -8v0q-18 -6 -35 2q-14 7 -30 12q-18 5 -28 21l-31 50v0l-32 -51v0
q-9 -15 -27 -20q-16 -5 -30 -12q-17 -8 -35 -2l-28 8v0l2 -3v0q16 -27 0 -54q-6 -9 -10 -19q-9 -19 -28 -26l-34 -12v0l34 -12v0q19 -7 28 -27q4 -9 10 -19q16 -26 1 -53l-3 -3v0l28 8v0q18 6 35 -2q14 -7 30 -12q18 -5 28 -20h-1zM392 51l-47 -76l47 76l-47 -76
q-9 -14 -25 -14t-24 14l-48 76v0q-20 6 -38 14l-95 -29v0q-15 -4 -25 8q-9 13 -1 26l42 63v0q-9 12 -15 27l-101 36v0q-14 5 -15 21q1 16 15 21l101 36v0q6 14 14 27l-41 63v0q-8 14 1 26q10 12 25 8l95 -29v0q18 8 38 14l48 76v0q8 14 24 14t25 -14l47 -76v0q20 -6 38 -14
l95 29v0q15 4 25 -8q9 -12 1 -26l-41 -62v0q8 -13 14 -28l101 -35v0q14 -6 15 -22q-1 -15 -15 -21l-101 -36v0q-6 -14 -14 -27l41 -63v0q8 -13 -1 -26q-10 -12 -25 -8l-95 30v0q-18 -9 -38 -15v0zM256 207q18 6 37 8q0 1 1 1q9 22 18 30q3 3 8 3t8 -3q9 -8 18 -30v0l1 -1
q19 -2 37 -8v1v1q-1 27 -19 45t-45 19q-27 -1 -45 -19t-19 -45v-1v-1v0zM246 203v0v0v0v0v0v0v0v0v0v0zM394 203v0v0v0v0v0v0v0zM220 180q-4 14 -4 29q1 44 30 74q30 29 74 30q44 -1 74 -30q29 -30 30 -74q0 -15 -4 -29q-4 -13 -16 -16q-13 -3 -25 2q-28 11 -59 11t-59 -11
q-12 -5 -25 -2q-12 3 -16 16v0z" />
</svg>
