<?xml version="1.0" standalone="no"?>
<!DOCTYPE svg PUBLIC "-//W3C//DTD SVG 1.1//EN" "http://www.w3.org/Graphics/SVG/1.1/DTD/svg11.dtd" >
<svg xmlns="http://www.w3.org/2000/svg" xmlns:xlink="http://www.w3.org/1999/xlink" version="1.1" viewBox="-10 -40 404 512">
   <path fill="currentColor"
d="M209 -30q111 103 163 246l1 2v0q11 31 11 65q-2 80 -57 134q-54 54 -135 56q-81 -2 -135 -56q-55 -54 -57 -134q0 -34 12 -65v-2v0l45 16v0v2v0q-9 24 -9 49q2 60 42 100q41 40 102 42q61 -2 102 -42q40 -40 42 -100q0 -25 -9 -49l43 -15v0l-43 15v0v-2v0
q-45 -121 -135 -212q-90 91 -135 212l-45 -16v0q52 -143 163 -246l3 -3v0q6 -6 14 -6t14 6l3 3v0zM189 125q3 -4 8 -4q8 1 9 9v11v0q0 12 8 21l44 45v0q29 30 30 72v2v0q-1 41 -28 68t-68 28q-41 -1 -68 -28t-28 -68v-11v0q0 -29 19 -51l6 -7v0q2 -3 7 -3q8 1 9 9v41v0
q1 16 11 27q11 11 27 11t26 -11q11 -11 11 -27v-1v0q0 -16 -11 -27l-11 -12v0q-18 -20 -19 -47q0 -22 13 -40l5 -7v0z" />
</svg>
