<?xml version="1.0" standalone="no"?>
<!DOCTYPE svg PUBLIC "-//W3C//DTD SVG 1.1//EN" "http://www.w3.org/Graphics/SVG/1.1/DTD/svg11.dtd" >
<svg xmlns="http://www.w3.org/2000/svg" xmlns:xlink="http://www.w3.org/1999/xlink" version="1.1" viewBox="-10 -40 532 512">
   <path fill="currentColor"
d="M1 201h48h-48h48q5 55 39 95q22 26 24 64v89v0q-2 22 -24 24q-22 -2 -24 -24v-89v0q0 -17 -14 -33q-43 -54 -49 -126v0zM123 41h94h-94h94q27 -31 71 -32h-38h-26q-57 1 -101 32v0zM64 41h-12h12h-12q32 -37 76 -58q44 -22 96 -22h24v0q75 2 131 48h5h80q20 1 34 14
q13 14 14 34v96v0q-1 20 -14 34q-14 13 -34 14h-32h-144q-44 -1 -72 -32h-152v0q-27 -1 -45 -19t-19 -45q1 -27 19 -45t45 -19v0zM464 233v0v0v0h48v0v0v0q-1 27 -19 45t-45 19v0v0v48v0q-1 27 -19 45t-45 19h-64v0v40v0q-2 22 -24 24q-22 -2 -24 -24v-64v0q2 -22 24 -24h88
v0q15 -1 16 -16v-72v0q2 -22 24 -24h24v0q15 -1 16 -16v0zM64 89q-15 1 -16 16q1 15 16 16h129v0q-1 -8 -1 -16t1 -16h-129v0zM384 57h-96h96h-96q-20 1 -34 14q-13 14 -14 34q1 20 14 34q14 13 34 14h96v0v-96v0zM432 57v96v-96v96h32v0v-96v0h-32v0z" />
</svg>
