<?xml version="1.0" standalone="no"?>
<!DOCTYPE svg PUBLIC "-//W3C//DTD SVG 1.1//EN" "http://www.w3.org/Graphics/SVG/1.1/DTD/svg11.dtd" >
<svg xmlns="http://www.w3.org/2000/svg" xmlns:xlink="http://www.w3.org/1999/xlink" version="1.1" viewBox="-10 -40 596 512">
   <path fill="currentColor"
d="M80 -22l-15 209l15 -209l-15 209q-1 13 -10 21q-9 9 -22 9h-3v0q-13 0 -21 -9q-9 -8 -9 -21q0 -4 1 -7l47 -207v0q5 -13 18 -12q14 3 14 17v0zM76 382q-15 -10 -11 -28q28 -90 31 -185q1 -43 25 -78q25 -35 60 -63t68 -48q2 -1 4 -3q1 0 2 -1q16 -12 33 -15q17 3 33 15
q1 1 2 1q2 2 4 3q33 20 68 48t60 63q24 35 25 78q3 95 31 185q4 17 -10 28l-184 85v0q-13 6 -27 6h-4v0q-14 0 -27 -6l-183 -85v0zM312 416l147 -68l-147 68l147 -68q-25 -85 -27 -179q0 -37 -39 -78q-42 -41 -91 -70q-2 -2 -5 -3q-2 -2 -4 -3l-1 -1v0l-4 -2q-1 0 -2 1t-2 1
l-1 1v0q-4 3 -9 6q-49 29 -91 70q-39 41 -39 78q-2 93 -27 179l147 68v0v-156v0q-1 -11 -10 -15l-66 -23v0q-11 -5 -12 -18q2 -17 19 -19h186v0q17 2 19 19q-1 13 -12 18l-65 23v0q-10 4 -11 15v156v0zM510 -39q13 -1 18 12l47 207v0q1 3 1 7q0 13 -9 21q-8 9 -21 9h-3v0
q-13 0 -22 -9q-9 -8 -10 -21l-15 -209v0q0 -14 14 -17v0z" />
</svg>
