<?xml version="1.0" standalone="no"?>
<!DOCTYPE svg PUBLIC "-//W3C//DTD SVG 1.1//EN" "http://www.w3.org/Graphics/SVG/1.1/DTD/svg11.dtd" >
<svg xmlns="http://www.w3.org/2000/svg" xmlns:xlink="http://www.w3.org/1999/xlink" version="1.1" viewBox="-10 -40 591 512">
   <path fill="currentColor"
d="M432 -39q-3 0 -5 1q-49 5 -85 35t-49 76h-61h-56q-59 2 -92 48q-36 2 -59 27q-24 25 -25 61v64v0q2 22 24 24q22 -2 24 -24v-64v0q1 -21 16 -32v8q0 22 8 42l22 55v0l-8 21v0q-17 47 -4 94l11 41v0q4 16 17 25q13 10 29 10h50v0q24 -1 38 -19t8 -42l-15 -53v0q-1 -2 0 -5
l13 -32v0q2 -6 3 -11l52 15v0v99v0q1 20 14 34q14 13 34 14h48v0q20 -1 34 -14q13 -14 14 -34v-136v0q31 -35 32 -86v-1v0v-1v0v-8v0q27 9 56 -1q26 -11 40 -35q13 -23 10 -51l-10 -70v0q-3 -17 -11 -31q10 -7 11 -20q-2 -22 -24 -24h-56v0v0v0h-4h-3h-1h-40zM416 202v0v0v0
v1q-1 36 -25 59q-7 7 -7 17v146v0h-48v0v-118v0q-1 -18 -19 -23l-6 -2l-88 -26v0q-12 -3 -22 4q-9 8 -9 20v1q0 12 -4 24l-12 32v0q-7 17 -2 35l15 53v0h-50v0l-11 -40v0q-9 -33 3 -65l8 -22v0q6 -17 0 -34l-22 -55v0q-5 -11 -5 -24q1 -27 19 -45t45 -19h23h114
q20 -2 24 -21q5 -38 32 -63q26 -25 64 -28h2v0h5h33q15 0 26 10q11 9 13 24l10 69v0q2 25 -20 35q-22 8 -37 -10l-6 -7v0q-11 -12 -27 -8q-15 7 -16 23v55v0v1v0v1zM480 57q-1 -15 -16 -16q-15 1 -16 16q1 15 16 16q15 -1 16 -16v0z" />
</svg>
