<?xml version="1.0" standalone="no"?>
<!DOCTYPE svg PUBLIC "-//W3C//DTD SVG 1.1//EN" "http://www.w3.org/Graphics/SVG/1.1/DTD/svg11.dtd" >
<svg xmlns="http://www.w3.org/2000/svg" xmlns:xlink="http://www.w3.org/1999/xlink" version="1.1" viewBox="-10 -40 529 512">
   <path fill="currentColor"
d="M302 -39q-26 0 -45 15v0v0q-19 15 -25 40l-2 8v0q-20 -18 -45 -18q-25 1 -45 19q-22 23 -18 55l5 37v0q-32 -3 -57 21l-3 3v0q-17 18 -21 42q-4 23 7 46l12 25v0q11 22 11 46v63v0l-69 69v0q-14 17 0 34q17 14 34 0l72 -72v0h57v0q24 0 46 11l25 12v0q22 11 46 7t42 -21
l3 -4v0q23 -24 21 -57l37 6v0q32 4 55 -18q18 -20 19 -45q0 -25 -18 -45l8 -2v0q24 -6 39 -25q15 -20 16 -45q-1 -39 -33 -61l-7 -4v0l3 -12v0q9 -42 -20 -73q-32 -30 -74 -21l-11 3v0l-5 -7v0q-22 -31 -60 -32v0zM161 346l153 -153l-153 153l153 -153q14 -17 0 -34
q-17 -14 -34 0l-156 156v0v-15v0q0 -36 -16 -68l-12 -25v0q-8 -18 5 -32l3 -3v0q14 -12 29 -3q17 10 32 0q15 -9 14 -29l-9 -67v0q-1 -8 4 -14q12 -10 23 0l19 19v0q14 12 31 8q17 -5 22 -23l9 -35v0q5 -18 24 -19q13 0 21 11l7 12v0q17 22 43 16l17 -4v0q16 -3 28 8
q11 12 8 28l-5 16v0q-5 27 17 43l12 8v0q10 8 11 21q-1 18 -19 24l-35 9v0q-18 5 -23 22t8 31l19 19v0q9 11 0 23q-6 5 -14 4l-67 -9v0q-20 -2 -29 13q-10 16 0 33q9 15 -3 29l-3 3v0q-15 13 -33 5l-24 -12v0q-32 -16 -68 -16h-9v0z" />
</svg>
