<?xml version="1.0" standalone="no"?>
<!DOCTYPE svg PUBLIC "-//W3C//DTD SVG 1.1//EN" "http://www.w3.org/Graphics/SVG/1.1/DTD/svg11.dtd" >
<svg xmlns="http://www.w3.org/2000/svg" xmlns:xlink="http://www.w3.org/1999/xlink" version="1.1" viewBox="-10 -40 596 512">
   <path fill="currentColor"
d="M526 186q5 12 16 18l16 8v0q12 7 16 19t-1 24q-7 12 -19 16t-24 -1l-30 -15v0q-23 -11 -47 -4l-42 13v0q-36 10 -71 -2l-30 -11v0q-22 -8 -44 0l-30 11v0q-35 12 -71 2l-42 -13v0q-24 -7 -47 4l-30 15v0q-12 5 -24 1t-19 -16q-5 -12 -1 -24t16 -19l16 -8v0q11 -6 16 -18
q30 -72 93 -116t145 -45q82 1 145 45t93 116v0zM199 91q-13 -6 -21 7l-16 32v0q-6 14 7 21q3 2 7 2v0v0q10 0 14 -9l16 -32v0q6 -13 -7 -21v0zM377 91q-13 8 -7 21l16 32v0q4 9 14 9v0v0q4 0 7 -2q13 -8 7 -21l-16 -32v0q-7 -13 -21 -7v0zM288 89q-15 1 -16 16v32v0
q1 15 16 16q15 -1 16 -16v-32v0q-1 -15 -16 -16v0zM90 283q7 -3 14 -3l23 70v0q4 10 15 11h292v0q11 -1 15 -11l23 -70v0q7 0 14 3l29 15v0h1q0 1 1 1l-22 66v0q-7 20 -24 32q-16 12 -37 12h-292v0q-21 0 -37 -12q-17 -12 -24 -32l-22 -66v0h1q0 -1 1 -1l29 -14v-1z" />
</svg>
