<?xml version="1.0" standalone="no"?>
<!DOCTYPE svg PUBLIC "-//W3C//DTD SVG 1.1//EN" "http://www.w3.org/Graphics/SVG/1.1/DTD/svg11.dtd" >
<svg xmlns="http://www.w3.org/2000/svg" xmlns:xlink="http://www.w3.org/1999/xlink" version="1.1" viewBox="-10 -40 458 512">
   <path fill="currentColor"
d="M224 9q1 -27 24 -42q24 -12 48 0q23 15 24 42q-1 27 -24 42q-24 12 -48 0q-23 -15 -24 -42v0zM139 70q21 -6 42 0l95 23v0q30 9 40 38l20 64v0q2 6 8 6h48v0q22 2 24 24q-2 22 -24 24h-48v0q-19 0 -34 -11q-14 -11 -20 -28l-5 -19v0l-29 85v0l33 18v0q25 17 18 47
l-36 115v0q-9 21 -30 16q-21 -8 -16 -30l34 -110v0l-88 -49v0q-17 -11 -25 -29q-7 -18 0 -38l32 -98v0l-8 -2v0q-10 -2 -20 0l-2 1v0q-9 2 -16 8l-44 38v0q-18 13 -34 -2q-13 -18 2 -34l45 -38v0q16 -14 36 -19l2 -1v1zM214 252l38 -115l-38 115l38 -115l-27 -7v0l-34 102v0
q-1 6 4 9l19 11v0zM103 329l20 -51l-20 51l20 -51q11 20 33 33l4 3v0l-14 37v0q-10 25 -37 26h-85v0q-22 -2 -24 -24q2 -22 24 -24h79v0z" />
</svg>
