<?xml version="1.0" standalone="no"?>
<!DOCTYPE svg PUBLIC "-//W3C//DTD SVG 1.1//EN" "http://www.w3.org/Graphics/SVG/1.1/DTD/svg11.dtd" >
<svg xmlns="http://www.w3.org/2000/svg" xmlns:xlink="http://www.w3.org/1999/xlink" version="1.1" viewBox="-10 -40 661 512">
   <path fill="currentColor"
d="M640 -10q2 -22 -19 -28q-22 -3 -28 18l-56 269v0h-129v0q-22 2 -24 24q2 22 24 24h119v0l-30 147v0q-3 22 18 29q22 2 29 -19l96 -464v0zM352 -39q-115 3 -189 42v0v0q-74 38 -113 83v0v0q-39 44 -47 62q-3 5 -3 11q2 24 26 26h491v0l10 -48v0h-458v0q19 -26 56 -55
t93 -51q57 -21 134 -22h202v0l7 -35v0q2 -7 4 -13h-213v0z" />
</svg>
