<?xml version="1.0" standalone="no"?>
<!DOCTYPE svg PUBLIC "-//W3C//DTD SVG 1.1//EN" "http://www.w3.org/Graphics/SVG/1.1/DTD/svg11.dtd" >
<svg xmlns="http://www.w3.org/2000/svg" xmlns:xlink="http://www.w3.org/1999/xlink" version="1.1" viewBox="-10 -40 532 512">
   <path fill="currentColor"
d="M158 -6q6 -22 -13 -31q-22 -6 -31 13l-33 85v0q-11 34 13 60l57 57v0l-80 -27v0q-4 -1 -5 -5l-19 -57v0q-9 -20 -31 -15q-20 9 -15 31l19 56v0q9 26 36 36l60 20v0l-60 20v0q-26 10 -36 36l-19 56v0q-5 22 15 31q22 5 31 -15l19 -57v0q1 -4 5 -5l69 -23v0q-2 5 -2 10
l-44 43v0q-24 26 -13 60l33 85v0q9 19 31 13q19 -9 13 -31l-32 -84v0q-2 -5 2 -9l12 -12v0q11 40 42 64q31 25 74 26q43 -1 74 -26q31 -24 42 -64l12 12v0q4 4 2 9l-32 84v0q-6 22 13 31q22 6 31 -13l33 -85v0q11 -34 -13 -60l-44 -43v0q0 -5 -2 -10l69 23v0q4 1 5 5l19 57
v0q9 20 31 15q20 -9 15 -31l-19 -56v0q-9 -26 -35 -36l-61 -20v0l60 -20v0q26 -10 36 -36l19 -56v0q5 -22 -16 -31q-21 -5 -30 15l-19 57v0q-1 4 -5 5l-80 27v0l57 -57v0q24 -26 13 -60l-33 -85v0q-9 -19 -31 -13q-19 9 -13 31l32 84v0q2 5 -2 9l-32 32v0q-3 -51 -43 -78
q-10 -6 -20 -3q-11 3 -15 13l-18 38v0l-18 -38v0q-4 -10 -15 -13q-10 -3 -20 3q-40 27 -43 78l-32 -32v0q-4 -4 -2 -9l32 -84v0zM208 121q0 -8 3 -16l15 34v0q7 13 22 14h16v0q15 -1 22 -14l15 -34v0q3 8 3 16v88v0q0 5 -1 10q-2 12 6 21q18 20 19 49v16v0q-1 31 -21 51
t-51 21q-31 -1 -51 -21t-21 -51v-16v0q1 -29 19 -49q8 -9 6 -21q-1 -5 -1 -10v-88v0z" />
</svg>
