<?xml version="1.0" standalone="no"?>
<!DOCTYPE svg PUBLIC "-//W3C//DTD SVG 1.1//EN" "http://www.w3.org/Graphics/SVG/1.1/DTD/svg11.dtd" >
<svg xmlns="http://www.w3.org/2000/svg" xmlns:xlink="http://www.w3.org/1999/xlink" version="1.1" viewBox="-10 -40 596 512">
   <path fill="currentColor"
d="M160 41h256h-256h256v160v0h-64v0v-16v0q0 -14 -9 -23t-23 -9h-64v0q-14 0 -23 9t-9 23v16v0h-64v0v-160v0zM48 121q1 -30 18 -51v0v0q18 -21 46 -27v158v0h-64v0v-80v0zM48 393v-144v144v-144h64v0v144v0h-64v0zM416 249v144v-144v144h-256v0v-144v0h64v0v32v0
q0 14 9 23t23 9h64v0q14 0 23 -9t9 -23v-32v0h64v0zM528 393h-64h64h-64v-144v0h64v0v144v0zM528 121v80v-80v80h-64v0v-158v0q28 6 46 27q17 21 18 51v0zM128 -7q-54 1 -91 37v0v0q-36 37 -37 91v272v0q1 20 14 34q14 13 34 14h480v0q20 -1 34 -14q13 -14 14 -34v-272v0
q-1 -54 -37 -91q-37 -36 -91 -37h-320v0zM304 217v32v-32v32q-1 15 -16 16q-15 -1 -16 -16v-32v0q1 -15 16 -16q15 1 16 16v0z" />
</svg>
