<?xml version="1.0" standalone="no"?>
<!DOCTYPE svg PUBLIC "-//W3C//DTD SVG 1.1//EN" "http://www.w3.org/Graphics/SVG/1.1/DTD/svg11.dtd" >
<svg xmlns="http://www.w3.org/2000/svg" xmlns:xlink="http://www.w3.org/1999/xlink" version="1.1" viewBox="-10 -40 660 512">
   <path fill="currentColor"
d="M177 -24q13 -14 31 -14v0v0q18 0 31 14l115 138v0q10 11 4 25q-7 13 -22 14h-14v0l65 81v0q9 12 3 25q-7 13 -22 14h-26v0l62 88v0h4v0v-184v0q2 -22 24 -24q22 2 24 24v184v0h114v0l-70 -98v0q-7 -12 -1 -25q7 -13 21 -13h22v0l-65 -81v0q-9 -12 -3 -25q7 -14 22 -14h12
v0l-76 -91v0l-60 71v0l-32 -36v0l61 -73v0q13 -14 31 -14t31 14l115 138v0q10 11 4 25q-7 13 -22 14h-14v0l65 81v0q9 12 3 25q-7 13 -22 14h-26v0l70 98v0q7 12 1 25q-7 13 -21 13h-160v0v40v0q-2 22 -24 24q-22 -2 -24 -24v-40v0h-16h-160v40v0q-2 22 -24 24
q-22 -2 -24 -24v-40v0h-40h-120q-14 0 -21 -13q-6 -13 1 -25l70 -98v0h-26v0q-15 -1 -22 -14q-5 -13 3 -25l65 -81v0h-14v0q-15 -1 -22 -14q-6 -14 4 -25l115 -138v0zM256 361h90h-90h90l-70 -98v0q-7 -12 -1 -25q7 -13 21 -13h22v0l-65 -81v0q-8 -12 -3 -25q7 -14 22 -14
h12v0l-76 -91v0l-76 91v0h12v0q15 1 22 14q6 13 -3 25l-65 81v0h22v0q14 1 21 13q6 13 -1 25l-70 98v0h74h40v-184v0q2 -22 24 -24q22 2 24 24v184v0h24v0z" />
</svg>
