<?xml version="1.0" standalone="no"?>
<!DOCTYPE svg PUBLIC "-//W3C//DTD SVG 1.1//EN" "http://www.w3.org/Graphics/SVG/1.1/DTD/svg11.dtd" >
<svg xmlns="http://www.w3.org/2000/svg" xmlns:xlink="http://www.w3.org/1999/xlink" version="1.1" viewBox="-10 -40 468 512">
   <path fill="currentColor"
d="M224 169q-34 -1 -57 -23v0v0q-22 -23 -23 -57h32h128q-1 34 -23 57q-23 22 -57 23v0zM151 57q9 -22 29 -35v0v0q19 -13 44 -13h4l-58 48v0h-19v0zM265 20q22 13 32 37h-77v0l45 -37v0zM224 217q35 0 64 -17v0v0q29 -17 47 -47q17 -30 17 -64t-17 -64q-18 -30 -47 -47
t-64 -17t-64 17t-47 47q-17 30 -17 64t17 64q18 30 47 47t64 17v0zM49 425q9 -51 47 -83v83v0h-47v0zM296 425h-35h35h-35l-32 -48v0h47v0q12 0 20 8t8 20t-8 20v0zM333 425q3 -9 3 -20q-1 -25 -18 -42t-42 -18h-68v0l-21 -32v0h83v0q50 1 86 32q35 31 43 80h-66v0zM178 265
q-75 2 -126 52v0v0q-50 51 -52 126q0 13 9 21q8 9 21 9h388v0q13 0 21 -9q9 -8 9 -21q-2 -75 -52 -126q-51 -50 -126 -52h-92v0z" />
</svg>
