<?xml version="1.0" standalone="no"?>
<!DOCTYPE svg PUBLIC "-//W3C//DTD SVG 1.1//EN" "http://www.w3.org/Graphics/SVG/1.1/DTD/svg11.dtd" >
<svg xmlns="http://www.w3.org/2000/svg" xmlns:xlink="http://www.w3.org/1999/xlink" version="1.1" viewBox="-10 -40 532 512">
   <path fill="currentColor"
d="M459 9q-2 0 -3 1l-404 366v0q-4 4 -4 10q0 5 4 9l26 26v0q4 4 9 4q6 0 10 -4l366 -404v0q1 -1 1 -3q0 -5 -5 -5v0zM424 -25q15 -14 35 -14q23 1 38 16q14 14 15 37q0 20 -14 35l-46 51v0q-4 5 -4 11v26v0q-1 15 -16 16h-20v0q-7 0 -12 5l-267 295v0q-19 20 -45 20
t-44 -18l-26 -26v0q-18 -18 -18 -43q0 -27 20 -46l71 -64v0q5 -5 5 -12v-31v0q2 -15 16 -16h38v0q6 0 11 -4l263 -238v0z" />
</svg>
