<?xml version="1.0" standalone="no"?>
<!DOCTYPE svg PUBLIC "-//W3C//DTD SVG 1.1//EN" "http://www.w3.org/Graphics/SVG/1.1/DTD/svg11.dtd" >
<svg xmlns="http://www.w3.org/2000/svg" xmlns:xlink="http://www.w3.org/1999/xlink" version="1.1" viewBox="-10 -40 468 512">
   <path fill="currentColor"
d="M384 9q15 1 16 16v384v0q-1 15 -16 16h-320v0q-15 -1 -16 -16v-384v0q1 -15 16 -16h320v0zM64 -39q-27 1 -45 19v0v0q-18 18 -19 45v384v0q1 27 19 45t45 19h320v0q27 -1 45 -19t19 -45v-384v0q-1 -27 -19 -45t-45 -19h-320v0zM80 73v32v-32v32q1 15 16 16h32v0
q15 -1 16 -16v-32v0q-1 -15 -16 -16h-32v0q-15 1 -16 16v0zM96 185q-15 1 -16 16v32v0q1 15 16 16h32v0q15 -1 16 -16v-32v0q-1 -15 -16 -16h-32v0zM80 329v32v-32v32q1 15 16 16h32v0q15 -1 16 -16v-32v0q-1 -15 -16 -16h-32v0q-15 1 -16 16v0zM200 65q-22 2 -24 24
q2 22 24 24h144v0q22 -2 24 -24q-2 -22 -24 -24h-144v0zM200 193q-22 2 -24 24q2 22 24 24h144v0q22 -2 24 -24q-2 -22 -24 -24h-144v0zM200 321q-22 2 -24 24q2 22 24 24h144v0q22 -2 24 -24q-2 -22 -24 -24h-144v0z" />
</svg>
