<?xml version="1.0" standalone="no"?>
<!DOCTYPE svg PUBLIC "-//W3C//DTD SVG 1.1//EN" "http://www.w3.org/Graphics/SVG/1.1/DTD/svg11.dtd" >
<svg xmlns="http://www.w3.org/2000/svg" xmlns:xlink="http://www.w3.org/1999/xlink" version="1.1" viewBox="-10 -40 660 512">
   <path fill="currentColor"
d="M635 378q-4 3 -8 7q-6 6 -14 11l-3 3t-2 1q-56 40 -128 41q-46 0 -86 -17t-71 -47q18 -18 25 -43q24 27 58 43t74 16q19 0 38 -4q-67 -24 -108 -81q-41 -56 -42 -131q0 -65 33 -117q-44 22 -70 63q-26 42 -27 94v0v0q-21 -13 -47 -16q7 -85 64 -142q57 -58 142 -65
q3 -1 7 -1v0h9h9q5 0 10 1q12 1 15 12q2 11 -8 17l-10 6v0q-6 5 -12 9l-2 2q-1 0 -1 1q-30 24 -47 59t-17 77q1 75 51 124q49 50 124 52v0v0h4q8 0 15 -1q6 -1 11 -2q11 -1 17 9q5 10 -3 19v0zM64 377q-27 -1 -45 -19v0v0q-18 -18 -19 -45q1 -27 19 -45t45 -19h1h1
q6 -28 27 -46q21 -17 51 -18q27 0 47 15t29 39q13 -6 28 -6q31 1 51 21t21 51q-1 31 -21 51t-51 21h-184v0z" />
</svg>
