<?xml version="1.0" standalone="no"?>
<!DOCTYPE svg PUBLIC "-//W3C//DTD SVG 1.1//EN" "http://www.w3.org/Graphics/SVG/1.1/DTD/svg11.dtd" >
<svg xmlns="http://www.w3.org/2000/svg" xmlns:xlink="http://www.w3.org/1999/xlink" version="1.1" viewBox="-10 -40 530 512">
   <path fill="currentColor"
d="M438 -7q6 -21 -14 -31q-22 -5 -31 15l-5 13v0l-59 -22v0q-22 -6 -31 14l-38 105v0q-6 22 14 31l60 22v0l-17 47v0l-20 -7v0q-18 -7 -31 -23l-28 -35v0q-27 -32 -69 -33h-39v0q-27 0 -48 14q-22 14 -33 38l-47 106v0q-7 21 12 32q21 7 32 -12l34 -77v0v259v0q2 22 24 24
q22 -2 24 -24v-136v0h52v0l27 60v0q1 1 1 3v73v0q2 22 24 24q22 -2 24 -24v-73v0q0 -12 -5 -23l-35 -77v0v-105v0l13 16v0q20 26 51 38l20 7v0l-11 30v0q-6 22 14 31q22 6 31 -14l45 -123v0l60 22v0q22 6 31 -14l38 -105v0q6 -22 -14 -31l-60 -22v0l4 -13v0zM335 21l120 44
l-120 -44l120 44l-22 60v0l-120 -44v0l22 -60v0zM144 57q27 -1 42 -24q12 -24 0 -48q-15 -23 -42 -24q-27 1 -42 24q-12 24 0 48q15 23 42 24v0zM130 137h38h-38h38v128v0h-40v0v-128v0h1h1v0z" />
</svg>
