<?xml version="1.0" standalone="no"?>
<!DOCTYPE svg PUBLIC "-//W3C//DTD SVG 1.1//EN" "http://www.w3.org/Graphics/SVG/1.1/DTD/svg11.dtd" >
<svg xmlns="http://www.w3.org/2000/svg" xmlns:xlink="http://www.w3.org/1999/xlink" version="1.1" viewBox="-10 -40 468 512">
   <path fill="currentColor"
d="M182 33q14 23 42 24h64v0q20 -1 34 -14q13 -14 14 -34q-1 -20 -14 -34q-14 -13 -34 -14h-64v0q-28 1 -42 24h-14v0q-37 1 -62 26t-26 62v32v0h-56v0q-22 2 -24 24q2 22 24 24h400v0q22 -2 24 -24q-2 -22 -24 -24h-296v0v-32v0q0 -17 12 -28q11 -12 28 -12h14v0zM47 185
l27 231l-27 -231l27 231q3 25 20 41q18 15 43 16h174v0q25 -1 43 -16q17 -16 21 -41l26 -231v0h-49v0l-25 226v0q-3 13 -16 14h-174v0q-13 -1 -16 -14l-25 -226v0h-49v0zM249 263l-18 -42l18 42l-18 -42q-7 -8 -13 0l-19 42v0q-2 3 -5 4l-44 5v0q-10 4 -4 13l32 31v0
q3 3 3 7l-9 45v0q0 11 11 8l37 -22v0q4 -2 7 0l39 22v0q10 3 10 -8l-8 -45v0q-1 -4 2 -7l32 -31v0q6 -9 -4 -13l-43 -5v0q-4 -1 -6 -4v0z" />
</svg>
