<?xml version="1.0" standalone="no"?>
<!DOCTYPE svg PUBLIC "-//W3C//DTD SVG 1.1//EN" "http://www.w3.org/Graphics/SVG/1.1/DTD/svg11.dtd" >
<svg xmlns="http://www.w3.org/2000/svg" xmlns:xlink="http://www.w3.org/1999/xlink" version="1.1" viewBox="-10 -40 468 512">
   <path fill="currentColor"
d="M175 -29q8 -10 20 -10q46 0 89 31t51 90q22 11 35 32q14 21 14 47v7q28 11 46 36t18 57q-1 42 -29 71q-29 28 -71 29h-8v0q18 -21 9 -48v0v0q22 -1 36 -16q14 -14 15 -36q0 -21 -14 -35q-13 -14 -33 -17q-12 -1 -18 -11q-6 -11 -2 -22q3 -7 3 -15q-2 -30 -30 -39
q-17 -5 -18 -24v-1v0q-1 -31 -17 -51q-17 -21 -41 -30q2 8 2 17q-1 28 -12 46q-12 18 -27 27t-25 12q-5 1 -9 2v0v0q-3 1 -7 1v0v0q-17 1 -28 12q-12 11 -12 28q0 8 3 15q4 11 -2 22q-6 10 -18 11q-20 3 -33 17q-14 14 -14 35q1 28 23 43q-11 19 -4 41q2 7 6 12
q-32 -9 -52 -35t-21 -61q0 -32 18 -57t46 -36v-7v0q1 -37 25 -61q24 -25 60 -27v0v0q2 0 4 -1h1q6 -2 13 -6q15 -7 17 -33v0v0q0 -1 -1 -4l-2 -10q-3 -11 -7 -19v-3v0v0v0v0v0v0q-1 -1 -1 -3q-1 0 -1 -1q-4 -12 3 -22v0zM282 189q9 8 4 19l-52 105v0h70v0q11 1 15 11
q3 10 -5 18l-160 128v0q-10 7 -20 -1q-9 -8 -4 -19l52 -105v0h-70v0q-11 -1 -15 -11q-3 -10 5 -17l160 -128v0q10 -8 20 0v0z" />
</svg>
