<?xml version="1.0" standalone="no"?>
<!DOCTYPE svg PUBLIC "-//W3C//DTD SVG 1.1//EN" "http://www.w3.org/Graphics/SVG/1.1/DTD/svg11.dtd" >
<svg xmlns="http://www.w3.org/2000/svg" xmlns:xlink="http://www.w3.org/1999/xlink" version="1.1" viewBox="-10 -40 660 512">
   <path fill="currentColor"
d="M152 -7q-65 2 -107 45v0v0q-43 42 -45 107v80v0v160v0q1 24 16 40q16 15 40 16h32v0q24 -1 40 -16q15 -16 16 -40v-40v0h160v0v40v0q1 24 16 40q16 15 40 16h32v0q24 -1 40 -16q15 -16 16 -40v-40v0h48v0v24v0q1 31 21 51t51 21q31 -1 51 -21t21 -51v-64v0
q-2 -22 -24 -24q-22 2 -24 24v64v0q-2 22 -24 24q-22 -2 -24 -24v-48v0v-96v0v-80v0q-2 -65 -45 -107q-42 -43 -107 -45h-240v0zM496 249v48v-48v48h-72v0q-22 2 -24 24v64v0q-1 7 -8 8h-32v0q-7 -1 -8 -8v-64v0q-2 -22 -24 -24h-208v0q-22 2 -24 24v64v0q-1 7 -8 8h-32v0
q-7 -1 -8 -8v-136v0h448v0zM496 201h-448h448h-448v-56v0q1 -44 30 -74q30 -29 74 -30h240v0q44 1 74 30q29 30 30 74v56v0zM406 76q-2 -3 -6 -3t-6 3l-12 25v0l-29 4v0q-3 1 -5 4q-1 4 2 7l20 19v0l-5 27v0q0 4 3 6t7 0l25 -12v0l25 12v0q4 2 7 0q3 -3 2 -6l-4 -27v0
l20 -19v0q3 -3 2 -7q-2 -3 -6 -4l-28 -4v0l-12 -25v0zM272 73q-4 0 -6 3l-12 25v0l-29 4v0q-3 1 -5 4q-1 4 2 7l20 19v0l-5 27v0q0 4 3 6t7 0l25 -12v0l25 12v0q4 2 7 0q3 -3 2 -6l-5 -27v0l21 -19v0q3 -3 2 -7q-2 -3 -6 -4l-28 -4v0l-12 -25v0q-2 -3 -6 -3v0zM150 76
q-2 -3 -6 -3t-6 3l-12 25v0l-29 4v0q-3 1 -5 4q-1 4 2 7l20 19v0l-5 27v0q0 4 3 6t7 0l25 -12v0l25 12v0q4 2 7 0q3 -3 2 -6l-5 -27v0l21 -19v0q3 -3 2 -7q-2 -3 -6 -4l-28 -4v0l-12 -25v0z" />
</svg>
