<?xml version="1.0" standalone="no"?>
<!DOCTYPE svg PUBLIC "-//W3C//DTD SVG 1.1//EN" "http://www.w3.org/Graphics/SVG/1.1/DTD/svg11.dtd" >
<svg xmlns="http://www.w3.org/2000/svg" xmlns:xlink="http://www.w3.org/1999/xlink" version="1.1" viewBox="-10 -40 660 512">
   <path fill="currentColor"
d="M440 -19q-3 -13 -15 -18t-22 2l-83 57v0l-82 -57v0q-11 -7 -23 -2t-15 18l-18 98v0l-98 18v0q-13 3 -18 15t2 23l57 82v0v0v0h53v0q0 -7 -4 -14l-45 -65v0l78 -15v0q16 -3 20 -19l14 -78v0l65 45v0q14 9 28 0l65 -45v0l15 78v0q3 16 19 19l78 15v0l-45 65v0q-4 7 -4 14
h53v0v0v0l57 -82v0q7 -11 2 -23t-17 -15l-99 -18v0l-18 -98v0zM432 217q-1 -48 -33 -79v0v0q-31 -32 -79 -33q-48 1 -79 33q-32 31 -33 79v0v0h48v0v0v0q1 -27 19 -45t45 -19q27 1 45 19t19 45v0v0h48v0v0v0zM616 249h-112h112h-112q-22 2 -24 24q2 22 24 24h112v0
q22 -2 24 -24q-2 -22 -24 -24v0zM408 249h-320h320h-320q-22 2 -24 24q2 22 24 24h320v0q22 -2 24 -24q-2 -22 -24 -24v0zM576 361q-2 -22 -24 -24h-528v0q-22 2 -24 24q2 22 24 24h528v0q22 -2 24 -24v0zM88 425q-22 2 -24 24q2 22 24 24h112v0q22 -2 24 -24
q-2 -22 -24 -24h-112v0zM296 425q-22 2 -24 24q2 22 24 24h320v0q22 -2 24 -24q-2 -22 -24 -24h-320v0z" />
</svg>
