<?xml version="1.0" standalone="no"?>
<!DOCTYPE svg PUBLIC "-//W3C//DTD SVG 1.1//EN" "http://www.w3.org/Graphics/SVG/1.1/DTD/svg11.dtd" >
<svg xmlns="http://www.w3.org/2000/svg" xmlns:xlink="http://www.w3.org/1999/xlink" version="1.1" viewBox="-10 -40 596 512">
   <path fill="currentColor"
d="M361 41q24 14 39 38v0v0q14 23 16 53q25 12 42 34q16 22 21 51h1h1q54 -1 90 -36q8 -8 3 -19q-6 -10 -17 -8q-7 1 -15 1q-38 -1 -63 -26q-24 -24 -25 -62q0 -24 12 -44t33 -32q9 -6 7 -17q-3 -11 -14 -13h-11q-41 1 -73 22q-32 22 -47 58v0zM128 121q1 -20 14 -34v0v0
q14 -13 34 -14q18 0 30 11q13 10 17 26q4 14 18 18q14 3 24 -8q12 -14 31 -15q16 0 27 10t13 25v2v1v0v1v0v1v1v1v0v31v0q0 11 8 18q9 7 20 5h4q14 0 23 9t9 23t-9 23t-23 9h-1v0h-1v0h-72v0l-8 16v0h18v0q33 2 45 32h16v0h2h1q34 -1 57 -23q22 -23 23 -57q-1 -30 -18 -51
q-18 -21 -46 -27v-7v0v-3v-3v-5v0q0 -4 -1 -8q-7 -32 -30 -51q-24 -20 -57 -21q-22 0 -40 10q-28 -40 -80 -42q-40 1 -67 28q-27 26 -29 67v2v0q-35 7 -57 33t-23 62q1 33 19 58q19 24 49 34q5 -10 14 -17l33 -27v0h-16v0h-1h-2q-20 -1 -34 -14q-13 -14 -14 -34
q1 -20 14 -34q14 -14 34 -14h4q22 0 26 -22l2 -24v0v-2v0zM282 189q-10 -7 -20 0l-160 128v0q-8 7 -5 17q4 10 15 11h70v0l-52 105v0q-5 11 4 19q10 7 20 1l160 -128v0q8 -8 5 -18q-4 -10 -15 -11h-70v0l52 -105v0q5 -11 -4 -19v0z" />
</svg>
