<?xml version="1.0" standalone="no"?>
<!DOCTYPE svg PUBLIC "-//W3C//DTD SVG 1.1//EN" "http://www.w3.org/Graphics/SVG/1.1/DTD/svg11.dtd" >
<svg xmlns="http://www.w3.org/2000/svg" xmlns:xlink="http://www.w3.org/1999/xlink" version="1.1" viewBox="-10 -40 596 512">
   <path fill="currentColor"
d="M144 41v280v-280v280h288v0v-280v0h-288v0zM96 321v-280v280v-280q1 -20 14 -34q14 -13 34 -14h288v0q20 1 34 14q13 14 14 34v280v0q22 2 24 24q-2 22 -24 24h-48h-336q-22 -2 -24 -24q2 -22 24 -24v0zM64 249v48v-48v48h-16v0v96v0h480v0v-96v0h-16v0v-48v0h16v0
q20 1 34 14q13 14 14 34v96v0q-1 20 -14 34q-14 13 -34 14h-480v0q-20 -1 -34 -14q-13 -14 -14 -34v-96v0q1 -20 14 -34q14 -13 34 -14h16v0zM385 141l-107 106l107 -106l-107 106q-17 14 -34 0l-53 -53v0q-14 -17 0 -34q17 -14 34 0l36 37v0l90 -90v0q17 -14 34 0
q14 17 0 34v0z" />
</svg>
