<?xml version="1.0" standalone="no"?>
<!DOCTYPE svg PUBLIC "-//W3C//DTD SVG 1.1//EN" "http://www.w3.org/Graphics/SVG/1.1/DTD/svg11.dtd" >
<svg xmlns="http://www.w3.org/2000/svg" xmlns:xlink="http://www.w3.org/1999/xlink" version="1.1" viewBox="-11 0 597 512">
   <path fill="currentColor"
d="M80 39q16 -12 32 0q16 14 37 24t43 10t43 -10q20 -10 37 -24q16 -12 32 0q16 14 37 24t43 10t43 -10q20 -10 37 -24q16 -12 32 0q27 24 61 32q21 7 18 29q-7 21 -28 18q-45 -13 -67 -31q-43 32 -96 34q-53 -2 -96 -34q-43 32 -96 34q-53 -2 -96 -34q-23 18 -67 31
q-22 3 -29 -18q-2 -22 19 -29q34 -9 61 -32v0zM80 327q16 -12 32 0q16 14 37 24t43 10t43 -10q20 -10 37 -24q16 -12 32 0q16 14 37 24t43 10t43 -10q20 -10 37 -24q16 -12 32 0q27 24 61 32q21 7 18 29q-7 21 -28 18q-45 -13 -67 -31q-43 32 -96 34q-53 -2 -96 -34
q-43 32 -96 34q-53 -2 -96 -34q-23 18 -67 31q-22 3 -29 -18q-2 -22 19 -29q34 -9 61 -32v0zM112 183q16 14 37 24v0v0q21 10 43 10t43 -10q20 -10 37 -24q16 -12 32 0q16 14 37 24t43 10t43 -10q20 -10 37 -24q16 -12 32 0q27 24 61 32q21 7 18 29q-7 21 -28 18
q-45 -13 -67 -31q-43 32 -96 34q-53 -2 -96 -34q-43 32 -96 34q-53 -2 -96 -34q-23 18 -67 31q-22 3 -29 -18q-2 -22 19 -29q34 -9 61 -32q16 -12 32 0v0z" />
</svg>
