<?xml version="1.0" standalone="no"?>
<!DOCTYPE svg PUBLIC "-//W3C//DTD SVG 1.1//EN" "http://www.w3.org/Graphics/SVG/1.1/DTD/svg11.dtd" >
<svg xmlns="http://www.w3.org/2000/svg" xmlns:xlink="http://www.w3.org/1999/xlink" version="1.1" viewBox="-11 0 597 512">
   <path fill="currentColor"
d="M312 177q-2 22 -24 24q-22 -2 -24 -24v-138v0l-48 44v0q-18 13 -34 -2q-13 -17 2 -34l88 -80v0q16 -12 32 0l88 80v0q15 17 2 34q-17 15 -34 2l-48 -44v0v138v0zM80 263q16 -12 32 0q16 14 37 24t43 10t43 -10q20 -10 37 -24q16 -12 32 0q16 14 37 24t43 10t43 -10
q20 -10 37 -24q16 -12 32 0q27 24 61 32q21 7 18 29q-7 21 -28 18q-45 -13 -67 -31q-43 32 -96 34q-53 -2 -96 -34q-43 32 -96 34q-53 -2 -96 -34q-23 18 -67 31q-22 3 -29 -18q-2 -22 19 -29q34 -9 61 -32v0zM80 391q16 -12 32 0q16 14 37 24t43 10t43 -10q20 -10 37 -24
q16 -12 32 0q16 14 37 24t43 10t43 -10q20 -10 37 -24q16 -12 32 0q27 24 61 32q21 7 18 29q-7 21 -28 18q-45 -13 -67 -31q-43 32 -96 34q-53 -2 -96 -34q-43 32 -96 34q-53 -2 -96 -34q-23 18 -67 31q-22 3 -29 -18q-2 -22 19 -29q34 -9 61 -32v0z" />
</svg>
