<?xml version="1.0" standalone="no"?>
<!DOCTYPE svg PUBLIC "-//W3C//DTD SVG 1.1//EN" "http://www.w3.org/Graphics/SVG/1.1/DTD/svg11.dtd" >
<svg xmlns="http://www.w3.org/2000/svg" xmlns:xlink="http://www.w3.org/1999/xlink" version="1.1" viewBox="-10 -40 660 512">
   <path fill="currentColor"
d="M231 207q-20 -58 -2 -113v0v0q19 -54 68 -87l-14 -6q-54 -18 -102 4q-47 23 -68 75l-15 40v0q-22 59 -75 95l-8 5v0q-16 11 -14 31q3 19 20 26l231 84v0l1 -4v0q14 -50 -3 -99l-19 -52v1zM359 65q36 -13 69 2v0v0q32 16 46 51l19 51v0q25 66 80 109l-239 87v0
q15 -69 -9 -135l-19 -51v0q-12 -36 3 -68q15 -33 50 -46v0zM284 366l-5 15l5 -15l-5 15q-4 19 9 33q15 12 33 6l298 -108v0q17 -7 20 -26q2 -19 -14 -30l-13 -10v0q-52 -35 -74 -93l-19 -52v0q-21 -54 -71 -77t-105 -5q-55 22 -78 71q-23 50 -4 106l19 51v0q21 59 4 119v0z
M481 441q27 -1 45 -19v0v0q19 -18 19 -45v-4l-116 42v0q19 25 52 26v0zM94 337v4v0v0v4q1 27 19 45t45 19q35 -1 54 -28l-118 -44v0z" />
</svg>
