<?xml version="1.0" standalone="no"?>
<!DOCTYPE svg PUBLIC "-//W3C//DTD SVG 1.1//EN" "http://www.w3.org/Graphics/SVG/1.1/DTD/svg11.dtd" >
<svg xmlns="http://www.w3.org/2000/svg" xmlns:xlink="http://www.w3.org/1999/xlink" version="1.1" viewBox="-10 -40 660 512">
   <path fill="currentColor"
d="M288 25q-1 26 -17 44l27 57v0q18 -5 38 -5q60 1 100 41l78 -57v0q-2 -8 -2 -16q1 -27 19 -45t45 -19q27 1 45 19t19 45q-1 27 -19 45t-45 19q-19 0 -34 -10l-77 57v0q15 30 15 65q0 28 -10 52l67 41v0q17 -13 39 -13q27 1 45 19t19 45q-1 27 -19 45t-45 19
q-27 -1 -45 -19t-19 -45q0 -5 1 -10l-68 -40v0q-41 48 -109 50q-55 -1 -93 -34q-39 -34 -49 -86h-71v0q-7 18 -23 29t-36 11q-27 -1 -45 -19t-19 -45q1 -27 19 -45t45 -19q20 0 36 11t23 29h71v0q12 -60 60 -94l-27 -58v0h-3v0q-27 -1 -45 -19t-19 -45q1 -27 19 -45t45 -19
q27 1 45 19t19 45v0zM336 361q26 0 48 -13v0v0q22 -13 35 -35q13 -23 13 -48t-13 -48q-13 -22 -35 -35t-48 -13t-48 13t-35 35q-13 23 -13 48t13 48q13 22 35 35t48 13v0z" />
</svg>
