<?xml version="1.0" standalone="no"?>
<!DOCTYPE svg PUBLIC "-//W3C//DTD SVG 1.1//EN" "http://www.w3.org/Graphics/SVG/1.1/DTD/svg11.dtd" >
<svg xmlns="http://www.w3.org/2000/svg" xmlns:xlink="http://www.w3.org/1999/xlink" version="1.1" viewBox="-10 -40 540 512">
   <path fill="currentColor"
d="M256 -23q-1 -15 -16 -16q-15 1 -16 16v24v0q1 24 16 40q16 15 40 16h8h32l-50 13v0q-13 4 -14 17q2 16 18 18h28v0l-7 24v0h-191v0q-28 0 -50 14t-34 36q-15 21 -17 48l-3 53v0q0 15 15 17q14 0 17 -14l1 1v0q7 7 7 17v4v0q0 4 -1 8l-8 25v0q-8 23 0 47l23 62v0
q10 25 37 26h46v0q22 -1 33 -17t5 -37l-18 -48v0l7 -5v0q23 -16 29 -42q31 13 64 13h7v0v96v0q0 17 12 28q11 12 28 12h48v0q17 0 28 -12q12 -11 12 -28v-160v0q0 -4 1 -8l16 -48v0h43v0q29 -1 48 -20t20 -48q0 -30 -22 -51l-54 -49v0q27 -16 28 -48v-24v0q-1 -15 -16 -16
q-15 1 -16 16v24v0q-2 22 -24 24h-30h-39q5 -11 5 -24v-24v0q-1 -15 -16 -16q-15 1 -16 16v24v0q-2 22 -24 24h-8h-8q-22 -2 -24 -24v-24v0zM386 73q13 0 22 9l57 52v0q7 6 7 15q-2 18 -20 20h-60v0q-17 1 -23 17l-21 64v0q-4 11 -4 23v152v0h-32v0v-112v0q-2 -22 -24 -24
h-31v0q-34 0 -62 -19l-14 -9v0q-13 -8 -26 0q-12 9 -11 24l3 17v0q2 15 -10 24l-22 15v0q-15 11 -9 28l20 56v0h-29v0l-21 -56v0q-2 -8 0 -16l8 -25v0q4 -11 4 -23v-4v0q0 -30 -21 -51l-4 -4v0q-7 -7 -7 -17v-4v0q1 -20 14 -34q14 -13 34 -14h209v0q17 -1 23 -17l19 -64v0
q8 -22 31 -23v0zM416 121q-1 -15 -16 -16q-15 1 -16 16q1 15 16 16q15 -1 16 -16v0z" />
</svg>
