<?xml version="1.0" standalone="no"?>
<!DOCTYPE svg PUBLIC "-//W3C//DTD SVG 1.1//EN" "http://www.w3.org/Graphics/SVG/1.1/DTD/svg11.dtd" >
<svg xmlns="http://www.w3.org/2000/svg" xmlns:xlink="http://www.w3.org/1999/xlink" version="1.1" viewBox="-10 -40 586 512">
   <path fill="currentColor"
d="M240 -39q15 1 16 16v24v0q2 22 24 24h8h8q22 -2 24 -24v-24v0q1 -15 16 -16q15 1 16 16v24v0q0 13 -5 24h39h30q22 -2 24 -24v-24v0q1 -15 16 -16q15 1 16 16v24v0q-1 32 -28 48l44 40v0q11 -15 32 -16q17 0 28 12q11 11 12 28q-1 17 -12 28t-28 12v0q-3 27 -22 45
t-46 19h-43v0l-16 48v0q-1 4 -1 8v160v0q0 17 -12 28q-11 12 -28 12h-48v0q-17 0 -28 -12q-12 -11 -12 -28v-96v0h-7v0q-33 0 -64 -13q-6 26 -29 42l-7 4v0l18 49v0q6 21 -5 37t-33 17h-46v0q-27 -1 -37 -26l-23 -62v0q-8 -24 0 -47l8 -25v0q1 -4 1 -8v-4v0q0 -10 -7 -17
l-1 -1v0q-3 14 -17 14q-14 -2 -15 -17l3 -53v0q2 -27 17 -48q12 -23 34 -36q22 -14 50 -14h191v0l7 -24v0h-28v0q-16 -2 -18 -18q1 -13 14 -18l50 -12v0h-24h-16q-24 -1 -40 -16q-15 -16 -16 -40v-24v0q1 -15 16 -16v0zM355 96l-19 64l19 -64l-19 64q-6 16 -23 17h-209v0
q-20 0 -34 14q-13 14 -14 34v4v0q0 10 7 17l4 4v0q21 21 21 51v4v0q0 12 -4 23l-8 25v0q-2 8 0 15l21 57v0h29v0l-21 -56v0q-5 -17 10 -28l22 -15v0q12 -9 10 -24l-3 -17v0q-2 -15 11 -24q13 -8 26 0l14 9v0q28 19 62 19h31v0q22 2 24 24v112v0h32v0v-152v0q0 -12 4 -23
l21 -65v0q6 -15 23 -16h60v0q18 -2 20 -20q0 -9 -7 -15l-57 -52v0q-9 -9 -22 -9q-23 1 -31 23v0zM400 105q15 1 16 16q-1 15 -16 16q-15 -1 -16 -16q1 -15 16 -16v0z" />
</svg>
