<?xml version="1.0" standalone="no"?>
<!DOCTYPE svg PUBLIC "-//W3C//DTD SVG 1.1//EN" "http://www.w3.org/Graphics/SVG/1.1/DTD/svg11.dtd" >
<svg xmlns="http://www.w3.org/2000/svg" xmlns:xlink="http://www.w3.org/1999/xlink" version="1.1" viewBox="-11 0 534 512">
   <path fill="currentColor"
d="M51 41h411h-411h411l-48 325v0q-5 25 -31 27h-253v0q-27 -2 -32 -27l-47 -325v0zM32 -7q-14 0 -24 11t-8 26l50 343v0q5 30 27 48q22 19 53 20h253v0q30 -1 52 -19q22 -19 27 -49l50 -343v0q2 -15 -8 -26t-24 -11h-448v0zM255 140h1h-1h1q-8 -3 -16 -3h-96v0
q-20 1 -34 14q-13 14 -14 34v96v0q1 20 14 34q14 13 34 14h74v0l-19 -19v0q-13 -13 -19 -29h-36v0v-96v0h67v0l44 -45v0zM312 197l57 57l-57 -57l57 57l-57 56v0l-57 -57v0l57 -56v0zM278 163l-56 57l56 -57l-56 57q-15 14 -15 34q0 19 15 34l56 56v0q15 14 34 14t34 -14
l57 -57v0q14 -14 14 -34q0 -19 -14 -33l-57 -57v0q-15 -14 -34 -14t-34 14v0z" />
</svg>
