<?xml version="1.0" standalone="no"?>
<!DOCTYPE svg PUBLIC "-//W3C//DTD SVG 1.1//EN" "http://www.w3.org/Graphics/SVG/1.1/DTD/svg11.dtd" >
<svg xmlns="http://www.w3.org/2000/svg" xmlns:xlink="http://www.w3.org/1999/xlink" version="1.1" viewBox="-10 -40 532 512">
   <path fill="currentColor"
d="M431 -32q17 -14 34 0l40 40v0q14 17 0 34l-48 48v0q-4 4 -9 5l-59 23v0l-35 35v0q28 40 30 82t-26 70q-18 18 -43 24q-14 3 -24 14q-9 11 -11 25q-2 43 -31 74q-39 36 -94 30q-56 -6 -103 -51q-46 -47 -51 -103q-6 -55 30 -94q31 -29 74 -31q14 -2 25 -11q11 -10 14 -24
q6 -25 24 -43q28 -28 70 -26t82 30l35 -35v0l23 -59v0q1 -5 5 -9l48 -48v0zM254 253q2 6 2 12q-1 20 -14 34q-14 13 -34 14q-20 -1 -34 -14q-13 -14 -14 -34q1 -20 14 -34q14 -13 34 -14q7 0 12 2l65 -65v0q-27 -18 -50 -17t-34 12q-7 7 -10 20q-7 28 -29 49q-23 20 -55 23
q-26 1 -42 17q-19 19 -17 55q2 37 38 74q37 36 74 38q36 2 55 -17q16 -16 17 -42q3 -32 23 -55q21 -22 49 -29q13 -3 20 -10q11 -11 12 -34t-17 -50l-65 65v0z" />
</svg>
