<?xml version="1.0" standalone="no"?>
<!DOCTYPE svg PUBLIC "-//W3C//DTD SVG 1.1//EN" "http://www.w3.org/Graphics/SVG/1.1/DTD/svg11.dtd" >
<svg xmlns="http://www.w3.org/2000/svg" xmlns:xlink="http://www.w3.org/1999/xlink" version="1.1" viewBox="-10 -40 532 512">
   <path fill="currentColor"
d="M223 427l3 2l-3 -2l3 2q13 12 30 12t30 -12l3 -2v0l175 -163v0q47 -45 48 -110v-3v0q-1 -54 -34 -94q-32 -39 -85 -50q-62 -11 -112 24v0v0q-6 4 -11 9q-8 6 -14 13q-11 -13 -25 -22q-50 -35 -112 -25q-53 11 -85 51q-33 40 -34 94v3v0q1 65 48 110l175 163v0zM230 96
l-68 67l68 -67l-68 67q-2 3 -2 6q0 4 3 6l112 104v0q5 4 10 0t2 -10l-60 -97v0l89 -52v0q6 -4 3 -10l-16 -36v0q35 -28 81 -20q35 7 57 34q22 26 23 63v3v0q-1 44 -33 75l-175 163v0l-175 -163v0q-32 -31 -33 -75v-3v0q1 -37 23 -63q22 -27 57 -34q26 -5 50 3t42 28v0v0v0v0
l10 11v0z" />
</svg>
