<?xml version="1.0" standalone="no"?>
<!DOCTYPE svg PUBLIC "-//W3C//DTD SVG 1.1//EN" "http://www.w3.org/Graphics/SVG/1.1/DTD/svg11.dtd" >
<svg xmlns="http://www.w3.org/2000/svg" xmlns:xlink="http://www.w3.org/1999/xlink" version="1.1" viewBox="-10 -40 650 512">
   <path fill="currentColor"
d="M405 10q16 -3 19 13q0 7 -5 11l-34 29v0q-12 10 -8 25q5 14 20 17h2v0q49 7 73 51l48 93v0q8 16 6 34q-3 17 -16 30q-16 16 -39 16h-7v0q-29 0 -48 -22l-26 -30v0q-19 -18 -41 -4q-22 16 -47 14q-25 -3 -43 -23l-25 -30v0q-15 -16 -33 -3q-16 15 -3 33l25 30v0
q19 23 45 33q25 10 53 7l44 69v0q3 5 3 11q-1 10 -11 11h-221v0q-22 -2 -24 -24v-123v0q1 -75 42 -134q42 -59 112 -85l139 -49v0zM405 377l-21 -34l21 34l-21 -34q33 33 80 34h7v0q43 -1 73 -30q24 -25 29 -57q5 -33 -10 -63l-49 -93v0q-22 -42 -64 -63q21 -19 22 -48
q-1 -33 -26 -51q-25 -17 -57 -7l-139 49v0q-85 31 -135 102t-51 162v123v0q1 31 21 51t51 21h221v0q25 -1 42 -17q16 -17 17 -42q0 -20 -11 -37v0zM360 185q22 -2 24 -24q-2 -22 -24 -24q-22 2 -24 24q2 22 24 24v0z" />
</svg>
