<?xml version="1.0" standalone="no"?>
<!DOCTYPE svg PUBLIC "-//W3C//DTD SVG 1.1//EN" "http://www.w3.org/Graphics/SVG/1.1/DTD/svg11.dtd" >
<svg xmlns="http://www.w3.org/2000/svg" xmlns:xlink="http://www.w3.org/1999/xlink" version="1.1" viewBox="-10 -40 468 512">
   <path fill="currentColor"
d="M0 104q2 -61 42 -101v0v0q40 -40 101 -42q48 1 85 29q38 28 52 74l21 75v0q24 -18 55 -18h5v0q37 1 62 26q24 24 25 61q0 34 -23 60l-72 77v0h-49v0v-8v0q0 -9 6 -16l80 -86v0q10 -12 10 -27q0 -16 -12 -27q-11 -12 -27 -12h-5v0q-23 1 -36 20l-10 14v0q-8 12 -23 10
q-15 -3 -20 -17l-33 -118v0q-10 -31 -34 -50q-25 -19 -57 -19q-41 1 -67 28q-27 26 -28 67v2v0q0 12 3 24l52 209v0q1 3 1 6h-49v0l-51 -204v0q-4 -17 -4 -35v-2v0zM64 377h288h-288h288q14 0 23 9t9 23v32v0q0 14 -9 23t-23 9h-288v0q-14 0 -23 -9t-9 -23v-32v0
q0 -14 9 -23t23 -9v0z" />
</svg>
