<?xml version="1.0" standalone="no"?>
<!DOCTYPE svg PUBLIC "-//W3C//DTD SVG 1.1//EN" "http://www.w3.org/Graphics/SVG/1.1/DTD/svg11.dtd" >
<svg xmlns="http://www.w3.org/2000/svg" xmlns:xlink="http://www.w3.org/1999/xlink" version="1.1" viewBox="-10 -40 532 512">
   <path fill="currentColor"
d="M307 217v0v0v0l34 34v0l22 22v0l-51 51v0l-150 -150v0q-18 -18 -18 -44q0 -17 8 -31l42 -74v0q9 -15 27 -16h70v0q18 1 27 16l42 74v0q8 14 8 31q0 26 -18 44l-9 9v0l-51 -51v0l8 -8v0q6 -6 6 -14q-2 -19 -21 -21h-54v0q-19 2 -21 21q0 8 6 14l93 93v0v0v0zM409 251
l-12 -12l12 12l-12 -12l-22 -22v0l9 -9v0q31 -33 32 -78q0 -29 -14 -54l-42 -74v0q-24 -39 -69 -41h-70v0q-46 2 -69 41l-42 74v0q-14 25 -14 54q1 45 32 78l150 150v0l31 30v0v0v0l3 4v0l77 76v0q11 10 22 0q10 -11 0 -22l-76 -77v0l11 -11v0l14 -14v0l77 76v0q11 10 22 0
q10 -11 0 -22l-76 -77v0l14 -14v0l11 -11v0l77 76v0q11 10 22 0q10 -11 0 -22l-76 -77v0l-4 -3v0v0v0l-18 -19v0zM117 238l-112 112l112 -112l-112 112q-10 11 0 22q11 10 22 0l112 -112v0l-22 -22v0zM165 286l-112 112l112 -112l-112 112q-10 11 0 22q11 10 22 0l112 -112
v0l-22 -22v0zM213 334l-112 112l112 -112l-112 112q-10 11 0 22q11 10 22 0l112 -112v0l-22 -22v0z" />
</svg>
