<?xml version="1.0" standalone="no"?>
<!DOCTYPE svg PUBLIC "-//W3C//DTD SVG 1.1//EN" "http://www.w3.org/Graphics/SVG/1.1/DTD/svg11.dtd" >
<svg xmlns="http://www.w3.org/2000/svg" xmlns:xlink="http://www.w3.org/1999/xlink" version="1.1" viewBox="-10 -40 532 512">
   <path fill="currentColor"
d="M352 9q1 -27 24 -42q24 -12 48 0q23 15 24 42q-1 27 -24 42q-24 12 -48 0q-23 -15 -24 -42v0zM112 81q2 -22 24 -24h165v0q29 2 38 26t-11 44l-126 109v0l-31 110v0l263 -136v0q29 -16 30 -50v-7v0q2 -22 24 -24q22 2 24 24v7v0q0 30 -15 54q-15 25 -41 39l-421 217v0
q-20 9 -32 -10q-9 -20 10 -32l113 -59v0q-8 -9 -5 -23l37 -130v0v0v0l9 -29v0q4 -15 14 -25q9 -9 26 -24q16 -16 35 -33h-106v0q-22 -2 -24 -24v0z" />
</svg>
