<?xml version="1.0" standalone="no"?>
<!DOCTYPE svg PUBLIC "-//W3C//DTD SVG 1.1//EN" "http://www.w3.org/Graphics/SVG/1.1/DTD/svg11.dtd" >
<svg xmlns="http://www.w3.org/2000/svg" xmlns:xlink="http://www.w3.org/1999/xlink" version="1.1" viewBox="-10 -40 660 512">
   <path fill="currentColor"
d="M240 -39q27 1 42 24q12 24 0 48q-15 23 -42 24q-27 -1 -42 -24q-12 -24 0 -48q15 -23 42 -24v0zM340 36q20 -9 33 9l46 78v0l139 69v0q17 9 18 29v59v0q0 17 -14 26l-70 47v0l54 72v0h20v0l33 -33v0q17 -14 34 0q14 17 0 34l-40 40v0q-7 7 -17 7h-136v0q-22 -2 -24 -24
q2 -22 24 -24h46v0l-48 -64v0h-125v0q7 15 7 32q-1 34 -23 56q-23 23 -57 24h-160v0q-34 -1 -57 -24q-22 -22 -23 -56q1 -41 32 -64l8 -16v0l31 -62v0q9 -17 29 -18h188v0l24 -32v0h-32v0q-12 0 -19 -10l-34 -44v0q-7 -10 -19 -10q-16 1 -23 15l-19 43v0q-11 19 -32 12
q-19 -11 -12 -32l19 -43v0q9 -20 27 -31q18 -12 40 -12q35 1 58 29l26 35v0h56v0l19 -25v0l-36 -59v0q-9 -20 9 -33v0zM80 361q-14 0 -23 9v0v0q-9 9 -9 23t9 23t23 9h160v0q14 0 23 -9t9 -23t-9 -23t-23 -9h-160v0zM240 313h226h-226h226l62 -42v0v-40v0l-130 -65v0l-72 96
v0l-14 19v0h-24h-178l-16 32v0h146v0z" />
</svg>
