<?xml version="1.0" standalone="no"?>
<!DOCTYPE svg PUBLIC "-//W3C//DTD SVG 1.1//EN" "http://www.w3.org/Graphics/SVG/1.1/DTD/svg11.dtd" >
<svg xmlns="http://www.w3.org/2000/svg" xmlns:xlink="http://www.w3.org/1999/xlink" version="1.1" viewBox="-10 -40 532 512">
   <path fill="currentColor"
d="M279 -21q-5 -17 -23 -18q-18 1 -23 18l-45 170v0l-170 45v0q-17 5 -18 23q1 18 18 23l170 45v0l45 170v0q5 17 23 18q18 -1 23 -18l44 -170v0l171 -45v0q17 -5 18 -23q-1 -18 -18 -23l-170 -45v0l-45 -170v0zM231 175l25 -95l-25 95l25 -95l25 95v0q4 13 17 17l95 25v0
l-95 25v0q-13 4 -17 17l-25 95v0l-25 -95v0q-4 -13 -17 -17l-95 -25v0l95 -25v0q13 -4 17 -17v0zM71 32q-14 17 0 34l48 48v0q17 14 34 0q14 -17 0 -34l-48 -48v0q-17 -14 -34 0v0zM441 32q-17 -14 -34 0l-48 48v0q-14 17 0 34q17 14 34 0l48 -48v0q14 -17 0 -34v0zM441 368
l-48 -48l48 48l-48 -48q-17 -14 -34 0q-14 17 0 34l48 48v0q17 14 34 0q14 -17 0 -34v0zM71 402q17 14 34 0l48 -48v0q14 -17 0 -34q-17 -14 -34 0l-48 48v0q-14 17 0 34v0z" />
</svg>
