<?xml version="1.0" standalone="no"?>
<!DOCTYPE svg PUBLIC "-//W3C//DTD SVG 1.1//EN" "http://www.w3.org/Graphics/SVG/1.1/DTD/svg11.dtd" >
<svg xmlns="http://www.w3.org/2000/svg" xmlns:xlink="http://www.w3.org/1999/xlink" version="1.1" viewBox="-10 -40 404 512">
   <path fill="currentColor"
d="M54 147q-53 54 -54 130v12v0q2 78 54 130t130 54h15v0q79 -2 131 -54t54 -131q0 -50 -20 -95q-19 -45 -55 -79l-83 -79v0q-10 -10 -10 -24v-13v0v-16v0q-2 -19 -21 -21q-11 0 -17 9l-10 12v0l-10 14v0q-22 29 -25 66l-1 11v0v11q0 35 18 65q3 6 7 11l11 14v0l21 29v0
q11 14 11 32v14v0q0 17 -12 28q-11 12 -28 12t-28 -12q-12 -11 -12 -28v-59v0v-2v0v-39v0q0 -12 -8 -20t-20 -8h-4q-9 2 -16 8l-18 18v0zM72 200v49v-49v49q1 37 26 62t62 26q37 -1 62 -26t26 -62v-14v0q0 -34 -20 -61l-32 -43v0q-18 -24 -16 -54l1 -11v0q0 -5 1 -9
q5 6 11 12l83 79v0q59 58 60 140q-1 58 -40 97t-97 40h-15v0q-58 -1 -96 -40q-39 -38 -40 -96v-12v0q0 -42 24 -77v0z" />
</svg>
