<?xml version="1.0" standalone="no"?>
<!DOCTYPE svg PUBLIC "-//W3C//DTD SVG 1.1//EN" "http://www.w3.org/Graphics/SVG/1.1/DTD/svg11.dtd" >
<svg xmlns="http://www.w3.org/2000/svg" xmlns:xlink="http://www.w3.org/1999/xlink" version="1.1" viewBox="-10 -40 596 512">
   <path fill="currentColor"
d="M112 377v48v-48v48h64v0v-48v0h-64v0zM200 467q-11 6 -24 6h-64v0q-20 -1 -34 -14q-13 -14 -14 -34v-48v0v-24v0v-8v0h112v0v-16v0v-48v0h48v0v48v0h64v0v-224v0h-64v0v48v0h-48v0v-48v0v-16v0h-112v0v-8v0v-24v0v-48v0q1 -20 14 -34q14 -13 34 -14h64v0q13 0 24 6
q11 -6 24 -6h64v0q33 2 45 31q9 -9 21 -13l60 -16v0q19 -5 35 4q16 10 22 29l18 70v0l6 23v0l61 238v0l6 23v0l12 46v0q5 20 -4 37q-10 16 -28 22l-60 16v0q-19 5 -35 -4q-16 -10 -22 -29l-18 -70v0l-6 -23v0l-61 -238v0l-4 -14v0v12v0v224v0v24v0v24v0v48v0q-1 20 -14 34
q-14 13 -34 14h-64v0q-13 0 -24 -6v0zM224 425h64h-64h64v-48v0h-64v0v48v0zM176 9h-64h64h-64v48v0h64v0v-48v0zM224 57h64h-64h64v-48v0h-64v0v48v0zM504 317l-56 -215l56 215l-56 -215l-56 15v0l56 215v0l56 -15v0zM460 379l12 46l-12 -46l12 46l56 -16v0v0v0v0v0
l-12 -46v0l-56 16v0zM380 71l56 -16l-56 16l56 -16l-12 -45v0l-56 15v0v0v1l12 45v0zM64 137q1 -15 16 -16h32v0q15 1 16 16v48v0h48v0q15 1 16 16v32v0q-1 15 -16 16h-48v0v48v0q-1 15 -16 16h-32v0q-15 -1 -16 -16v-48v0h-48v0q-15 -1 -16 -16v-32v0q1 -15 16 -16h48v0
v-48v0z" />
</svg>
