<?xml version="1.0" standalone="no"?>
<!DOCTYPE svg PUBLIC "-//W3C//DTD SVG 1.1//EN" "http://www.w3.org/Graphics/SVG/1.1/DTD/svg11.dtd" >
<svg xmlns="http://www.w3.org/2000/svg" xmlns:xlink="http://www.w3.org/1999/xlink" version="1.1" viewBox="-10 -40 532 512">
   <path fill="currentColor"
d="M256 425q-88 -2 -147 -61v0v0q-59 -59 -61 -147q1 -75 45 -129l292 292v0q-54 44 -129 45v0zM335 262v-2v0v0v-1l30 6v0q15 1 19 -13q1 -15 -13 -19l-35 -7v0v-18v0l35 -7v0q14 -5 13 -19q-5 -14 -19 -13l-30 6v0q-1 -14 -7 -26l24 -14v0q12 -9 6 -22q-9 -12 -22 -6
l-28 17v0q-22 -18 -52 -19q-33 1 -56 23l-73 -74v0q54 -44 129 -45q88 2 147 61t61 147q-1 75 -45 129l-84 -84v0zM256 473q70 -1 128 -34v0v0q58 -34 94 -94q34 -61 34 -128t-34 -128q-36 -60 -94 -94q-58 -33 -128 -34q-70 1 -128 34q-58 34 -94 94q-34 61 -34 128t34 128
q36 60 94 94q58 33 128 34v0zM141 233q-14 5 -13 19q5 14 19 13l30 -6v0q1 14 7 26l-24 14v0q-12 9 -6 22q9 12 22 6l28 -17v0q22 18 52 19q10 0 19 -2l-100 -100v0l-34 6v0z" />
</svg>
