<?xml version="1.0" standalone="no"?>
<!DOCTYPE svg PUBLIC "-//W3C//DTD SVG 1.1//EN" "http://www.w3.org/Graphics/SVG/1.1/DTD/svg11.dtd" >
<svg xmlns="http://www.w3.org/2000/svg" xmlns:xlink="http://www.w3.org/1999/xlink" version="1.1" viewBox="-10 -40 458 512">
   <path fill="currentColor"
d="M224 -39q-27 1 -45 19v0v0q-18 18 -19 45v121v0q-4 -1 -8 -1q-27 1 -45 19t-19 45v11v0q-4 3 -7 6l-20 18v0q-28 27 -29 65v11v0q0 41 20 75q20 35 55 56l3 1v0q36 21 77 21h125v0q51 -1 85 -35t35 -85v-8v0v-96v0q-1 -27 -19 -45t-45 -19q-8 0 -15 2q-18 -32 -57 -34
q-4 0 -8 1v-129v0q-1 -27 -19 -45t-45 -19v0zM208 25q1 -15 16 -16q15 1 16 16v168v0q1 17 16 23q17 4 27 -8q5 -7 13 -7q15 1 16 16v8v0q1 17 16 23q16 4 27 -8q5 -7 13 -7q15 2 16 16v96v0v8v0q-1 31 -21 51t-51 21h-125v0q-28 0 -53 -14l-11 20v0l11 -20v0l-2 -1v0
q-25 -15 -38 -39q-14 -23 -14 -51v-11v0q0 -17 13 -29l11 -10v0v35v0q1 15 16 16q15 -1 16 -16v-73v0v-7v0v-16v0q1 -15 16 -16q8 0 13 6q10 13 27 9q15 -6 16 -23v-160v0z" />
</svg>
