<?xml version="1.0" standalone="no"?>
<!DOCTYPE svg PUBLIC "-//W3C//DTD SVG 1.1//EN" "http://www.w3.org/Graphics/SVG/1.1/DTD/svg11.dtd" >
<svg xmlns="http://www.w3.org/2000/svg" xmlns:xlink="http://www.w3.org/1999/xlink" version="1.1" viewBox="-10 -40 532 512">
   <path fill="currentColor"
d="M48 185q2 -75 52 -124v0v0q49 -50 124 -52h24v0q46 1 83 25q38 24 57 63q4 9 7 18l4 8l2 4v0q6 15 13 31q15 32 41 60l4 4v0q5 5 5 11q-1 15 -16 16h-24v0q-22 2 -24 24v72v0q-1 14 -16 16h-88v0q-22 2 -24 24v64v0q2 22 24 24q22 -2 24 -24v-40v0h64v0q27 -1 45 -19
t19 -45v-48v0v0v0q27 -1 45 -19t19 -45q0 -26 -19 -45l-4 -4v0q-18 -19 -31 -47q-7 -14 -13 -29l-2 -4v0q-6 -13 -12 -27q-25 -52 -74 -84q-49 -31 -109 -32h-24v0q-63 1 -113 31q-51 29 -80 80q-30 50 -31 113q2 82 50 142q14 16 14 33v89v0q2 22 24 24q22 -2 24 -24v-89v0
q-2 -38 -24 -64q-39 -47 -40 -111v0zM192 73v48v-48v48h-48v0q-15 1 -16 16v32v0q1 15 16 16h48v0v48v0q1 15 16 16h32v0q15 -1 16 -16v-48v0h48v0q15 -1 16 -16v-32v0q-1 -15 -16 -16h-48v0v-48v0q-1 -15 -16 -16h-32v0q-15 1 -16 16v0z" />
</svg>
