<?xml version="1.0" standalone="no"?>
<!DOCTYPE svg PUBLIC "-//W3C//DTD SVG 1.1//EN" "http://www.w3.org/Graphics/SVG/1.1/DTD/svg11.dtd" >
<svg xmlns="http://www.w3.org/2000/svg" xmlns:xlink="http://www.w3.org/1999/xlink" version="1.1" viewBox="-10 -40 596 512">
   <path fill="currentColor"
d="M48 169q1 -41 28 -68v0v0q27 -27 68 -28q41 1 68 28t28 68v192v0h-176v0q-15 -1 -16 -16v-176v0zM240 409h48h-48h272q27 -1 45 -19t19 -45v-176v0q-2 -61 -42 -102q-41 -40 -102 -42h-288v0q-61 2 -102 42q-40 41 -42 102v176v0q1 27 19 45t45 19h176v0zM288 169
q-1 -57 -37 -96h181v0q41 1 68 28t28 68v176v0q-1 15 -16 16h-224v0v-192v0zM104 153q-22 2 -24 24q2 22 24 24h80v0q22 -2 24 -24q-2 -22 -24 -24h-80v0zM360 153q-22 2 -24 24q2 22 24 24h56v0v24v0q2 22 24 24h16v0q22 -2 24 -24v-48v0q-2 -22 -24 -24h-16h-80z" />
</svg>
