<?xml version="1.0" standalone="no"?>
<!DOCTYPE svg PUBLIC "-//W3C//DTD SVG 1.1//EN" "http://www.w3.org/Graphics/SVG/1.1/DTD/svg11.dtd" >
<svg xmlns="http://www.w3.org/2000/svg" xmlns:xlink="http://www.w3.org/1999/xlink" version="1.1" viewBox="-10 -40 533 512">
   <path fill="currentColor"
d="M443 100q12 20 18 40q0 2 1 5v0q3 18 1 32q-3 16 -13 26h-1v0q-23 21 -63 11q-40 -11 -79 -48q-37 -39 -48 -79q-10 -41 11 -64q3 -3 6 -5q1 0 2 -1q5 -3 10 -5h2q25 -8 58 5t65 44q18 19 30 39v0zM389 263q-40 33 -93 34h-88v0q-14 0 -23 -9t-9 -23v-88v0q1 -53 34 -93
q1 8 3 15q15 54 61 100t100 61q7 2 15 3v0zM213 345h83h-83h83q79 -1 136 -56l52 -52v0v0v0q17 -18 23 -40q6 -21 5 -43q-2 -14 -5 -27q-9 -33 -31 -65q-13 -18 -30 -35q-46 -46 -100 -61q-26 -7 -56 -4q-29 4 -54 27l-52 52v0q-55 57 -56 136v83v0q0 11 -8 19q-17 14 -40 5
q-10 -3 -20 -3q-25 1 -42 18t-18 42q1 25 18 42t42 18q11 1 12 12q1 25 18 42t42 18q25 -1 42 -18t18 -42q0 -10 -3 -19q-9 -23 5 -41q8 -8 19 -8v0zM388 141q6 -8 3 -20v0v0q-3 -12 -15 -24t-24 -15q-13 -3 -20 3q-6 7 -3 20q3 12 15 24t24 15t20 -3v0z" />
</svg>
