<?xml version="1.0" standalone="no"?>
<!DOCTYPE svg PUBLIC "-//W3C//DTD SVG 1.1//EN" "http://www.w3.org/Graphics/SVG/1.1/DTD/svg11.dtd" >
<svg xmlns="http://www.w3.org/2000/svg" xmlns:xlink="http://www.w3.org/1999/xlink" version="1.1" viewBox="-10 -40 532 512">
   <path fill="currentColor"
d="M219 113h74h-74h74l14 9v0q29 17 65 50q36 34 63 85q28 51 29 120q-1 20 -14 34q-14 13 -34 14h-320v0q-20 -1 -34 -14q-13 -14 -14 -34q1 -69 29 -120q27 -51 63 -85q36 -33 65 -50l14 -9v0zM286 65h-60h60h-60l-7 -11v0l-32 -45v0h138v0l-31 45v0l-8 11v0zM151 101
q-32 23 -67 60v0v0q-34 38 -59 92v0v0q-24 53 -25 124q1 41 28 68t68 28h320v0q41 -1 68 -28t28 -68q-1 -71 -25 -124q-25 -54 -59 -92q-35 -37 -67 -60q-16 -12 -28 -20l27 -39v0l30 -43v0q8 -13 2 -25q-7 -12 -22 -13h-228v0q-15 1 -22 13q-6 12 2 25l30 43v0l27 39v0
q-12 8 -28 20v0zM276 177q-2 -18 -20 -20q-18 2 -20 20v14v0q-12 2 -22 9q-24 12 -26 43q3 30 25 41q18 10 35 14l2 1v0q19 5 28 10q7 5 6 9q0 7 -6 10q-8 5 -21 5q-16 -1 -35 -9l-8 -2q-18 -4 -25 12q-4 18 13 26l6 2v0v0v0v0q12 5 28 8v15v0q2 18 20 20q18 -2 20 -20v-14
v0q12 -2 23 -9q23 -13 25 -45q-3 -30 -25 -41q-18 -11 -37 -15v0v0v-1v0q-19 -5 -29 -10q-6 -4 -5 -7q-1 -5 6 -9q9 -5 22 -5q14 0 31 5q18 3 24 -14q3 -18 -14 -25q-10 -2 -21 -4v-14v0z" />
</svg>
