<?xml version="1.0" standalone="no"?>
<!DOCTYPE svg PUBLIC "-//W3C//DTD SVG 1.1//EN" "http://www.w3.org/Graphics/SVG/1.1/DTD/svg11.dtd" >
<svg xmlns="http://www.w3.org/2000/svg" xmlns:xlink="http://www.w3.org/1999/xlink" version="1.1" viewBox="-10 -40 532 512">
   <path fill="currentColor"
d="M48 73h416h-416h416v32v0h-416v0v-32v0zM32 25q-14 0 -23 9v0v0q-9 9 -9 23v64v0q0 14 9 23t23 9h448v0q14 0 23 -9t9 -23v-64v0q0 -14 -9 -23t-23 -9h-448v0zM48 329h416h-416h416v32v0h-416v0v-32v0zM32 281q-14 0 -23 9v0v0q-9 9 -9 23v64v0q0 14 9 23t23 9h448v0
q14 0 23 -9t9 -23v-64v0q0 -14 -9 -23t-23 -9h-448v0zM24 257q18 -1 33 -6q13 -5 26 -11v0v0v0l3 -1v0q29 -13 50 -14q25 1 49 14q25 15 71 18q46 -3 71 -18q24 -13 49 -14q21 1 50 14l3 1v0v0v0v0q13 6 26 11q15 5 33 6q22 -2 24 -24q-2 -22 -24 -24q-6 0 -18 -4
q-10 -3 -22 -9v0v0v0l-4 -1v0q-14 -6 -31 -12q-18 -6 -37 -6q-42 3 -67 17l-2 1v0q-23 13 -51 14q-28 -1 -51 -14l-2 -1v0q-25 -14 -67 -17q-19 0 -37 6q-17 6 -31 12l-3 1v0v0v0q-13 6 -23 9q-12 4 -18 4q-22 2 -24 24q2 22 24 24v0z" />
</svg>
