<?xml version="1.0" standalone="no"?>
<!DOCTYPE svg PUBLIC "-//W3C//DTD SVG 1.1//EN" "http://www.w3.org/Graphics/SVG/1.1/DTD/svg11.dtd" >
<svg xmlns="http://www.w3.org/2000/svg" xmlns:xlink="http://www.w3.org/1999/xlink" version="1.1" viewBox="-10 -40 532 512">
   <path fill="currentColor"
d="M152 -39q22 2 24 24v8v0q1 28 22 45q41 32 42 83v8v0q-2 22 -24 24q-22 -2 -24 -24v-8v0q-1 -28 -22 -45q-41 -32 -42 -83v-8v0q2 -22 24 -24v0zM152 394q17 8 25 26q2 5 7 5h144v0q5 0 8 -5q7 -18 25 -26q46 -22 74 -64q28 -43 29 -97h-416v0q1 54 29 97q28 42 75 64v0z
M0 233q1 -20 14 -34v0v0q14 -13 34 -14h416v0q20 1 34 14q13 14 14 34q-1 69 -37 123t-95 81q-14 34 -52 36h-144v0q-38 -2 -52 -36q-59 -27 -95 -81t-37 -123v0zM304 -15v8v-8v8q1 28 22 45q41 32 42 83v8v0q-2 22 -24 24q-22 -2 -24 -24v-8v0q-1 -28 -22 -45
q-41 -32 -42 -83v-8v0q2 -22 24 -24q22 2 24 24v0z" />
</svg>
