<?xml version="1.0" standalone="no"?>
<!DOCTYPE svg PUBLIC "-//W3C//DTD SVG 1.1//EN" "http://www.w3.org/Graphics/SVG/1.1/DTD/svg11.dtd" >
<svg xmlns="http://www.w3.org/2000/svg" xmlns:xlink="http://www.w3.org/1999/xlink" version="1.1" viewBox="-10 -40 532 512">
   <path fill="currentColor"
d="M275 -1q-19 -12 -38 0l-44 35v0q-9 6 -20 6l-55 -2v0q-23 1 -31 22l-15 54v0q-3 10 -13 17l-46 31v0q-18 14 -11 36l17 47v0q40 -57 101 -90q62 -33 136 -34q74 1 136 34q61 33 101 90l17 -47v0q7 -22 -11 -36l-46 -31v0q-10 -7 -13 -17l-15 -54v0q-8 -21 -31 -22l-55 2
v0q-11 0 -20 -6l-44 -35v0zM256 201q84 2 142 56v0v0q57 54 65 136h-414v0q8 -82 65 -136q58 -54 142 -56v0zM32 441h448h-448h448q14 0 23 -9t9 -23q-1 -72 -35 -129q-34 -58 -92 -92q-57 -34 -129 -35q-72 1 -129 35q-58 34 -92 92q-34 57 -35 129q0 14 9 23t23 9v0z
M168 329q-2 -22 -24 -24q-22 2 -24 24q2 22 24 24q22 -2 24 -24v0zM208 289q22 -2 24 -24q-2 -22 -24 -24q-22 2 -24 24q2 22 24 24v0z" />
</svg>
