<?xml version="1.0" standalone="no"?>
<!DOCTYPE svg PUBLIC "-//W3C//DTD SVG 1.1//EN" "http://www.w3.org/Graphics/SVG/1.1/DTD/svg11.dtd" >
<svg xmlns="http://www.w3.org/2000/svg" xmlns:xlink="http://www.w3.org/1999/xlink" version="1.1" viewBox="-10 -40 468 512">
   <path fill="currentColor"
d="M224 -7q-68 2 -113 47v0v0q-45 45 -47 113v16v0q-1 15 -16 16q-15 -1 -16 -16v-16v0q2 -82 56 -136t136 -56q82 2 136 56t56 136v16v0q-1 48 -33 79q-31 32 -79 33h-64h-32q-14 0 -23 -9t-9 -23t9 -23t23 -9h32v0q14 0 23 9t9 23h32v0q34 -1 57 -23q22 -23 23 -57v-16v0
q-2 -68 -47 -113t-113 -47v0zM224 25q54 1 91 37v0v0q36 37 37 91q0 21 -6 40q-14 23 -42 24h-9v0q-4 -7 -9 -13q17 -21 18 -51q-1 -34 -23 -57q-23 -22 -57 -23q-34 1 -57 23q-22 23 -23 57q1 30 18 51q-17 18 -18 45v4q-46 -37 -48 -100q1 -54 37 -91q37 -36 91 -37v0z
M208 313h16h-16h106q57 1 95 39t39 95q-2 24 -26 26h-396v0q-24 -2 -26 -26q1 -57 39 -95t95 -39h17h57zM314 361h-180h180h-180q-30 1 -53 18q-22 18 -30 46h346v0q-8 -28 -30 -46q-23 -17 -53 -18v0z" />
</svg>
