<?xml version="1.0" standalone="no"?>
<!DOCTYPE svg PUBLIC "-//W3C//DTD SVG 1.1//EN" "http://www.w3.org/Graphics/SVG/1.1/DTD/svg11.dtd" >
<svg xmlns="http://www.w3.org/2000/svg" xmlns:xlink="http://www.w3.org/1999/xlink" version="1.1" viewBox="-10 -40 660 512">
   <path fill="currentColor"
d="M144 -39q45 1 69 40q22 40 0 80q-24 39 -69 40q-45 -1 -69 -40q-22 -40 0 -80q24 -39 69 -40v0zM512 -39q45 1 69 40q22 40 0 80q-24 39 -69 40q-45 -1 -69 -40q-22 -40 0 -80q24 -39 69 -40v0zM0 260q1 -46 31 -76v0v0q30 -30 76 -31h42v0q24 0 45 10q-2 11 -2 22
q2 59 43 96v0v0h-214v0q-19 -2 -21 -21v0zM405 281v0v0v0v0q41 -37 43 -96q0 -11 -2 -22q21 -10 45 -10h42v0q46 1 76 31t31 76q-2 19 -21 21h-14v0q-12 -30 -45 -32h-32v0q-33 2 -45 32h-78v0zM379 313q29 0 54 12q-16 13 -17 36v9v0q-17 -9 -37 -9h-118v0q-30 1 -52 18
q-23 18 -30 46h249v0q14 15 36 16h16v0v16v0q0 8 3 16h-328v0q-25 -2 -27 -27q1 -56 39 -94t94 -39h118v0zM320 233q27 -1 42 -24q12 -24 0 -48q-15 -23 -42 -24q-27 1 -42 24q-12 24 0 48q15 23 42 24v0zM320 89q26 0 48 13v0v0q22 13 35 35q13 23 13 48t-13 48
q-13 22 -35 35t-48 13t-48 -13t-35 -35q-13 -23 -13 -48t13 -48q13 -22 35 -35t48 -13v0zM512 297q1 -15 16 -16h32v0q15 1 16 16v48v0h48v0q15 1 16 16v32v0q-1 15 -16 16h-48v0v48v0q-1 15 -16 16h-32v0q-15 -1 -16 -16v-48v0h-48v0q-15 -1 -16 -16v-32v0q1 -15 16 -16h48
v0v-48v0z" />
</svg>
