<?xml version="1.0" standalone="no"?>
<!DOCTYPE svg PUBLIC "-//W3C//DTD SVG 1.1//EN" "http://www.w3.org/Graphics/SVG/1.1/DTD/svg11.dtd" >
<svg xmlns="http://www.w3.org/2000/svg" xmlns:xlink="http://www.w3.org/1999/xlink" version="1.1" viewBox="-10 -40 596 512">
   <path fill="currentColor"
d="M176 57q1 -20 14 -34v0v0q14 -13 34 -14q20 1 34 14q13 14 14 34v64v0h-96v0v-64v0zM128 121h-64h64h-64q-27 1 -45 19t-19 45v192v0q1 27 19 45t45 19h96v0v-48v0h-96v0q-15 -1 -16 -16v-192v0q1 -15 16 -16h320v0q15 1 16 16h48v0q-1 -27 -19 -45t-45 -19h-64v0v-64v0
q-1 -41 -28 -68t-68 -28q-41 1 -68 28t-28 68v64v0zM256 217q-27 1 -45 19v0v0q-18 18 -19 45v128v0q1 27 19 45t45 19h256v0q27 -1 45 -19t19 -45v-128v0q-1 -27 -19 -45t-45 -19h-256v0zM320 297v16v-16v16q1 27 19 45t45 19q27 -1 45 -19t19 -45v-16v0q1 -15 16 -16
q15 1 16 16v16v0q-1 41 -28 68t-68 28q-41 -1 -68 -28t-28 -68v-16v0q1 -15 16 -16q15 1 16 16v0z" />
</svg>
