<?xml version="1.0" standalone="no"?>
<!DOCTYPE svg PUBLIC "-//W3C//DTD SVG 1.1//EN" "http://www.w3.org/Graphics/SVG/1.1/DTD/svg11.dtd" >
<svg xmlns="http://www.w3.org/2000/svg" xmlns:xlink="http://www.w3.org/1999/xlink" version="1.1" viewBox="-10 -40 660 512">
   <path fill="currentColor"
d="M448 9q-1 -27 -24 -42q-24 -12 -48 0q-23 15 -24 42q1 27 24 42q24 12 48 0q23 -15 24 -42v0zM208 345q-1 45 -40 69q-40 22 -80 0q-39 -24 -40 -69q1 -45 40 -69q40 -22 80 0q39 24 40 69v0zM128 217q-35 0 -64 17v0v0q-29 17 -47 47q-17 30 -17 64t17 64q18 30 47 47
t64 17t64 -17t47 -47q17 -30 17 -64t-17 -64q-18 -30 -47 -47t-64 -17v0zM592 345q-1 45 -40 69q-40 22 -80 0q-39 -24 -40 -69q1 -45 40 -69q40 -22 80 0q39 24 40 69v0zM512 217q-35 0 -64 17v0v0q-29 17 -47 47q-17 30 -17 64t17 64q18 30 47 47t64 17t64 -17t47 -47
q17 -30 17 -64t-17 -64q-18 -30 -47 -47t-64 -17v0zM342 111q6 -4 11 1l44 56v0q8 9 19 9h64v0q22 -2 24 -24q-2 -22 -24 -24h-52v0l-38 -47v0q-15 -18 -36 -21q-22 -2 -41 11l-74 55v0q-29 23 -26 57t35 52l56 28v0v113v0q2 22 24 24q22 -2 24 -24v-128v0q0 -14 -13 -21
l-70 -35v0q-8 -5 -9 -13q0 -9 7 -14l74 -55h1z" />
</svg>
