<?xml version="1.0" standalone="no"?>
<!DOCTYPE svg PUBLIC "-//W3C//DTD SVG 1.1//EN" "http://www.w3.org/Graphics/SVG/1.1/DTD/svg11.dtd" >
<svg xmlns="http://www.w3.org/2000/svg" xmlns:xlink="http://www.w3.org/1999/xlink" version="1.1" viewBox="-10 -40 650 512">
   <path fill="currentColor"
d="M70 425l250 -409l-250 409l250 -409l250 409v0h-500v0zM286 -20l-264 432l264 -432l-264 432q-11 20 -1 41q12 19 35 20h529v0q22 -1 34 -20q11 -21 0 -41l-265 -432v0q-12 -18 -34 -19q-22 1 -34 19v0zM312 185q22 -2 24 -24q-2 -22 -24 -24q-22 2 -24 24q2 22 24 24v0z
M349 285l-20 -49l20 49l-20 -49q-15 -33 -52 -35q-29 1 -46 25l-4 6v0q-4 6 -3 13q2 6 8 10l154 89v0l-16 25v0q-4 8 0 16q5 8 14 8h96v0q9 0 14 -8q4 -8 0 -16l-48 -80v0q-5 -8 -14 -8t-14 8l-16 27v0l-53 -31v0zM217 282l-8 17l8 -17l-8 17l-32 72v0q-4 13 9 21
q13 4 21 -8l24 -56v0l41 26v0v23v0q1 15 16 16q15 -1 16 -16v-32v0q0 -9 -7 -14l-64 -40v0l-16 -9v0z" />
</svg>
