<?xml version="1.0" standalone="no"?>
<!DOCTYPE svg PUBLIC "-//W3C//DTD SVG 1.1//EN" "http://www.w3.org/Graphics/SVG/1.1/DTD/svg11.dtd" >
<svg xmlns="http://www.w3.org/2000/svg" xmlns:xlink="http://www.w3.org/1999/xlink" version="1.1" viewBox="-10 -40 596 512">
   <path fill="currentColor"
d="M48 425v-288v288v-288h115v0l24 -50v0q11 -24 35 -35q-8 -40 -38 -65t-72 -26q-48 1 -79 33q-32 31 -33 79v352v0q1 20 14 34q14 13 34 14h100v0q-17 -20 -20 -48h-80v0zM176 89h-128h128h-128v-16v0q1 -27 19 -45t45 -19q27 1 45 19t19 45v16v0zM258 123l110 -48
l-110 48l110 -48l110 48v0l50 107v0v187v0q-1 7 -8 8h-88v0v-56v0q0 -17 -12 -28q-11 -12 -28 -12h-48v0q-17 0 -28 12q-12 11 -12 28v56v0h-88v0q-7 -1 -8 -8v-187v0l50 -107v0zM384 30q-16 -7 -32 0l-116 51v0q-14 6 -20 19l-52 112v0q-4 8 -4 17v188v0q1 24 16 40
q16 15 40 16h304v0q24 -1 40 -16q15 -16 16 -40v-188v0q0 -9 -4 -17l-52 -112v0q-6 -13 -20 -19l-116 -51v0zM320 209v48v-48v48q2 22 24 24h48v0q22 -2 24 -24v-48v0q-2 -22 -24 -24h-48v0q-22 2 -24 24v0z" />
</svg>
