<?xml version="1.0" standalone="no"?>
<!DOCTYPE svg PUBLIC "-//W3C//DTD SVG 1.1//EN" "http://www.w3.org/Graphics/SVG/1.1/DTD/svg11.dtd" >
<svg xmlns="http://www.w3.org/2000/svg" xmlns:xlink="http://www.w3.org/1999/xlink" version="1.1" viewBox="-11 0 533 512">
   <path fill="currentColor"
d="M464 105q-1 -41 -28 -68v0v0q-27 -27 -68 -28q-27 0 -49 13q-21 13 -34 35h-53v0q16 -43 52 -69t84 -27q61 2 102 42q40 41 42 102q-1 60 -41 101q-40 40 -100 43l5 -48v0q38 -4 62 -31q25 -26 26 -65v0zM6 97q7 -8 18 -8h304v0q11 0 18 8t6 18l-29 307v0q-3 22 -18 36
q-16 15 -38 15h-182v0q-22 0 -38 -15q-15 -14 -18 -36l-29 -307v0q-1 -10 6 -18v0zM63 265l14 153l-14 -153l14 153q1 6 8 7h182v0q7 -1 8 -7l14 -153v0h-226v0zM58 217h236h-236h236l8 -80v0h-252v0l8 80v0z" />
</svg>
