<?xml version="1.0" standalone="no"?>
<!DOCTYPE svg PUBLIC "-//W3C//DTD SVG 1.1//EN" "http://www.w3.org/Graphics/SVG/1.1/DTD/svg11.dtd" >
<svg xmlns="http://www.w3.org/2000/svg" xmlns:xlink="http://www.w3.org/1999/xlink" version="1.1" viewBox="-10 -40 532 512">
   <path fill="currentColor"
d="M181 61q9 -23 29 -37v0v0q20 -15 46 -15t46 15q20 14 29 37q6 14 21 16q15 1 22 -12q14 -23 42 -24q20 1 34 14q13 14 14 34q0 17 -8 49t-19 65q-11 32 -19 54q0 2 -1 3q-1 3 -2 5h-54v0l23 -133v0q1 -15 -13 -19q-15 -1 -19 13l-24 139v0h-56v0v-144v0q-1 -15 -16 -16
q-15 1 -16 16v144v0h-56v0l-24 -139v0q-4 -14 -19 -13q-14 4 -13 19l23 133v0h-54v0q-1 -2 -2 -5q-1 -1 -1 -3q-8 -22 -19 -54q-11 -33 -19 -65t-8 -49q1 -20 14 -34q14 -13 34 -14q28 1 42 24q8 13 22 12q15 -2 21 -16v0zM454 298l-22 -9l22 9l-22 -9q16 6 20 8q3 1 2 1v0
v0v0v0v0v0l1 -1v0v-1v0q1 -2 2 -5q2 -6 6 -17q9 -23 20 -56q11 -34 19 -68q9 -34 10 -61q-1 -41 -28 -68t-68 -28q-33 1 -58 19q-17 -23 -44 -37q-26 -14 -58 -14q-65 2 -102 51q-25 -18 -58 -19q-41 1 -68 28t-28 68q1 27 9 61q9 34 20 67q11 34 20 57q1 4 2 7q3 6 4 10
q1 3 2 5v1v0v0v0v1v0v0v0v0v0l3 -1q4 -2 20 -8l-23 9v0q7 14 23 15h352v0q16 -1 22 -15v0zM64 345v64v-64v64q1 27 19 45t45 19h256v0q27 -1 45 -19t19 -45v-64v0h-48v0v64v0q-1 15 -16 16h-256v0q-15 -1 -16 -16v-64v0h-48v0z" />
</svg>
