<?xml version="1.0" standalone="no"?>
<!DOCTYPE svg PUBLIC "-//W3C//DTD SVG 1.1//EN" "http://www.w3.org/Graphics/SVG/1.1/DTD/svg11.dtd" >
<svg xmlns="http://www.w3.org/2000/svg" xmlns:xlink="http://www.w3.org/1999/xlink" version="1.1" viewBox="-10 -40 468 512">
   <path fill="currentColor"
d="M24 -7q-22 2 -24 24q2 22 24 24h400v0q22 -2 24 -24q-2 -22 -24 -24h-400v0zM224 73q-75 2 -124 52v0v0q-50 49 -52 124v16v0q2 75 52 124q49 50 124 52q75 -2 124 -52q50 -49 52 -124v-16v0q-2 -75 -52 -124q-49 -50 -124 -52v0zM96 249q1 -54 37 -91v0v0q37 -36 91 -37
q54 1 91 37q36 37 37 91v16v0q-1 54 -37 91q-37 36 -91 37q-54 -1 -91 -37q-36 -37 -37 -91v-16v0z" />
</svg>
