<?xml version="1.0" standalone="no"?>
<!DOCTYPE svg PUBLIC "-//W3C//DTD SVG 1.1//EN" "http://www.w3.org/Graphics/SVG/1.1/DTD/svg11.dtd" >
<svg xmlns="http://www.w3.org/2000/svg" xmlns:xlink="http://www.w3.org/1999/xlink" version="1.1" viewBox="-10 -40 586 512">
   <path fill="currentColor"
d="M47 338l96 96l-96 -96l96 96q17 14 34 0l96 -96v0q14 -17 0 -34q-17 -14 -34 0l-55 55v0v-342v0q-2 -22 -24 -24q-22 2 -24 24v342v0l-55 -55v0q-17 -14 -34 0q-14 17 0 34v0zM456 273q0 -12 -10 -19t-22 -4l-48 16v0q-20 9 -15 31q9 20 31 15l16 -6v0v87v0h-24v0
q-22 2 -24 24q2 22 24 24h48h48q22 -2 24 -24q-2 -22 -24 -24h-24v0v-120v0zM424 121q-23 -1 -35 -20q-10 -20 0 -40q12 -19 35 -20q23 1 35 20q10 20 0 40q-12 19 -35 20v0zM512 81q-1 -37 -26 -62v0v0q-25 -25 -62 -26q-37 1 -62 26t-26 62q1 32 20 56q19 23 49 30l-15 19
v0q-13 18 3 34q18 12 33 -4l65 -77v0q20 -24 21 -56v-2v0z" />
</svg>
