<?xml version="1.0" standalone="no"?>
<!DOCTYPE svg PUBLIC "-//W3C//DTD SVG 1.1//EN" "http://www.w3.org/Graphics/SVG/1.1/DTD/svg11.dtd" >
<svg xmlns="http://www.w3.org/2000/svg" xmlns:xlink="http://www.w3.org/1999/xlink" version="1.1" viewBox="-10 -40 586 512">
   <path fill="currentColor"
d="M143 434l-96 -96l96 96l-96 -96q-14 -17 0 -34q17 -14 34 0l55 55v0v-342v0q2 -22 24 -24q22 2 24 24v342v0l55 -55v0q17 -14 34 0q14 17 0 34l-96 96v0q-17 14 -34 0v0zM368 105h64h-64h64v-64v0h-64v0v64v0zM320 105v-64v64v-64q1 -20 14 -34q14 -13 34 -14h64v0
q20 1 34 14q13 14 14 34v64v0q-1 20 -14 34q-14 13 -34 14h-64v0q-20 -1 -34 -14q-13 -14 -14 -34v0zM368 265v128v-128v128h128v0v-128v0h-128v0zM320 265q1 -20 14 -34v0v0q14 -13 34 -14h128v0q20 1 34 14q13 14 14 34v128v0q-1 20 -14 34q-14 13 -34 14h-128v0
q-20 -1 -34 -14q-13 -14 -14 -34v-128v0z" />
</svg>
