<?xml version="1.0" standalone="no"?>
<!DOCTYPE svg PUBLIC "-//W3C//DTD SVG 1.1//EN" "http://www.w3.org/Graphics/SVG/1.1/DTD/svg11.dtd" >
<svg xmlns="http://www.w3.org/2000/svg" xmlns:xlink="http://www.w3.org/1999/xlink" version="1.1" viewBox="-10 -40 468 512">
   <path fill="currentColor"
d="M384 9q15 1 16 16v384v0q-1 15 -16 16h-320v0q-15 -1 -16 -16v-384v0q1 -15 16 -16h320v0zM64 -39q-27 1 -45 19v0v0q-18 18 -19 45v384v0q1 27 19 45t45 19h320v0q27 -1 45 -19t19 -45v-384v0q-1 -27 -19 -45t-45 -19h-320v0zM128 65q-2 -22 -24 -24q-22 2 -24 24
q2 22 24 24q22 -2 24 -24v0zM184 89q22 -2 24 -24q-2 -22 -24 -24q-22 2 -24 24q2 22 24 24v0zM315 281h-11q-24 0 -43 -10q-19 -9 -37 -22q-18 -12 -37 -22q-19 -9 -43 -10h-11q11 -28 35 -46q24 -17 56 -18q41 1 68 28t28 68q0 17 -5 32v0zM368 249q0 -39 -19 -72v0v0
q-19 -33 -53 -53q-34 -19 -72 -19t-72 19q-34 20 -53 53t-19 72t19 72t53 53q34 19 72 19t72 -19q34 -20 53 -53t19 -72v0z" />
</svg>
