<?xml version="1.0" standalone="no"?>
<!DOCTYPE svg PUBLIC "-//W3C//DTD SVG 1.1//EN" "http://www.w3.org/Graphics/SVG/1.1/DTD/svg11.dtd" >
<svg xmlns="http://www.w3.org/2000/svg" xmlns:xlink="http://www.w3.org/1999/xlink" version="1.1" viewBox="-10 -40 468 512">
   <path fill="currentColor"
d="M256 25q8 -10 8 -24q0 -17 -12 -28q-11 -12 -28 -12t-28 12q-12 11 -12 28q0 14 8 24q-1 2 -3 4l-37 64v0h-74v0h-3v0q-12 -19 -35 -20q-17 1 -28 12q-12 11 -12 28t12 28q11 12 28 12h3l37 64v0l-36 64v0h-4q-17 0 -28 12q-12 11 -12 28t12 28q11 12 28 12q23 -1 35 -20
h3l74 1v0l38 64v0q1 1 2 3q-8 11 -8 24q1 17 12 28q11 12 28 12t28 -12q12 -11 12 -28q0 -13 -8 -24q2 -1 3 -4l37 -64v0h74v0h3h1q11 19 34 20q17 0 28 -12q12 -11 12 -28t-12 -28q-11 -12 -28 -12h-3l-37 -64v0l36 -64v0h4q17 0 28 -12q11 -11 12 -28q-1 -17 -12 -28
q-11 -12 -28 -12q-23 1 -35 20h-3h-74v0l-38 -64v0l-2 -4v0zM272 217q-1 -27 -24 -42q-24 -12 -48 0q-23 15 -24 42q1 27 24 42q24 12 48 0q23 -15 24 -42v0zM191 121l33 -56l-33 56l33 -56l33 56v0q12 19 34 20h65v0l-32 56v0q-11 20 0 40l32 56v0h-65v0q-22 1 -34 20
l-33 56v0l-33 -56v0q-12 -19 -34 -20h-65v0l32 -56v0q11 -20 0 -40l-32 -56v0h65v0q23 -1 34 -20v0z" />
</svg>
