<?xml version="1.0" standalone="no"?>
<!DOCTYPE svg PUBLIC "-//W3C//DTD SVG 1.1//EN" "http://www.w3.org/Graphics/SVG/1.1/DTD/svg11.dtd" >
<svg xmlns="http://www.w3.org/2000/svg" xmlns:xlink="http://www.w3.org/1999/xlink" version="1.1" viewBox="-10 -40 660 512">
   <path fill="currentColor"
d="M136 9h368h-368h368q17 0 28 12q12 11 12 28v72v0h-96v0q0 -14 -9 -23t-23 -9t-23 9t-9 23h-32v0q0 -14 -9 -23t-23 -9t-23 9t-9 23h-32v0q0 -14 -9 -23t-23 -9t-23 9t-9 23h-96v0v-72v0q0 -17 12 -28q11 -12 28 -12v0zM48 49v74v-74v74q-21 6 -34 22q-14 17 -14 40v224
v0q1 27 19 45t45 19h512v0q27 -1 45 -19t19 -45v-224v0q0 -23 -14 -40q-13 -16 -34 -22v-74v0q-1 -37 -26 -62t-62 -26h-368v0q-37 1 -62 26t-26 62v0zM64 169h512h-512h512q15 1 16 16v224v0q-1 15 -16 16h-512v0q-15 -1 -16 -16v-224v0q1 -15 16 -16v0zM176 393
q26 0 48 -13v0v0q22 -13 35 -35q13 -23 13 -48t-13 -48q-13 -22 -35 -35t-48 -13t-48 13t-35 35q-13 23 -13 48t13 48q13 22 35 35t48 13v0zM128 297q1 -27 24 -42q24 -12 48 0q23 15 24 42q-1 27 -24 42q-24 12 -48 0q-23 -15 -24 -42v0zM560 297q0 -26 -13 -48v0v0
q-13 -22 -35 -35q-23 -13 -48 -13t-48 13q-22 13 -35 35t-13 48t13 48t35 35q23 13 48 13t48 -13q22 -13 35 -35t13 -48v0zM464 249q27 1 42 24q12 24 0 48q-15 23 -42 24q-27 -1 -42 -24q-12 -24 0 -48q15 -23 42 -24v0z" />
</svg>
