<?xml version="1.0" standalone="no"?>
<!DOCTYPE svg PUBLIC "-//W3C//DTD SVG 1.1//EN" "http://www.w3.org/Graphics/SVG/1.1/DTD/svg11.dtd" >
<svg xmlns="http://www.w3.org/2000/svg" xmlns:xlink="http://www.w3.org/1999/xlink" version="1.1" viewBox="-10 -40 596 512">
   <path fill="currentColor"
d="M224 81q-1 -41 -36 -62q-36 -20 -72 0q-35 21 -36 62q1 41 36 62q36 20 72 0q35 -21 36 -62v0zM344 201h-192h192h-192q-51 -1 -85 -35t-35 -85q1 -51 35 -85t85 -35q61 2 96 48q35 -46 96 -48q51 1 85 35t35 85q-1 51 -35 85t-85 35v0zM272 81q1 41 36 62q36 20 72 0
q35 -21 36 -62q-1 -41 -36 -62q-36 -20 -72 0q-35 21 -36 62v0zM112 297v112v-112v112q1 15 16 16h224v0q15 -1 16 -16v-112v0q-1 -15 -16 -16h-208h-16q-15 1 -16 16v0zM144 233h208h-208h208q27 1 45 19t19 45v112v0q-1 27 -19 45t-45 19h-224v0q-27 -1 -45 -19t-19 -45
v-112v0q0 -8 2 -16h-42v0q-22 -2 -24 -24q2 -22 24 -24h104h16zM528 270l-80 36l80 -36l-80 36v-53v0l76 -34v0q4 -2 9 -3q17 -2 30 8q12 11 13 29v181v0q0 16 -12 27q-11 12 -28 12q-8 0 -16 -3l-72 -33v0v-53v0l80 36v0v-150v0z" />
</svg>
