<?xml version="1.0" standalone="no"?>
<!DOCTYPE svg PUBLIC "-//W3C//DTD SVG 1.1//EN" "http://www.w3.org/Graphics/SVG/1.1/DTD/svg11.dtd" >
<svg xmlns="http://www.w3.org/2000/svg" xmlns:xlink="http://www.w3.org/1999/xlink" version="1.1" viewBox="-10 -40 596 512">
   <path fill="currentColor"
d="M96 -7q0 -14 9 -23v0v0q9 -9 23 -9h96v0q14 0 23 9t9 23h40h32q22 2 24 24q-2 22 -24 24h-8v0v384v0h8v0q22 2 24 24q-2 22 -24 24h-32h-272q-22 -2 -24 -24q2 -22 24 -24h8v0v-384v0h-8v0q-22 -2 -24 -24q2 -22 24 -24h32h40zM80 41v384v-384v384h192v0v-384v0h-192v0z
M544 89q14 0 23 9v0v0q9 9 9 23v128v0q0 14 -9 23t-23 9t-23 9t-9 23v32v0q0 14 -9 23t-23 9h-128v0v-288v0h192v0zM392 145v16v-16v16q1 15 16 16h16v0q15 -1 16 -16v-16v0q-1 -15 -16 -16h-16v0q-15 1 -16 16v0zM504 129q-15 1 -16 16v16v0q1 15 16 16h16v0q15 -1 16 -16
v-16v0q-1 -15 -16 -16h-16v0zM392 305v16v-16v16q1 15 16 16h16v0q15 -1 16 -16v-16v0q-1 -15 -16 -16h-16v0q-15 1 -16 16v0z" />
</svg>
