<?xml version="1.0" standalone="no"?>
<!DOCTYPE svg PUBLIC "-//W3C//DTD SVG 1.1//EN" "http://www.w3.org/Graphics/SVG/1.1/DTD/svg11.dtd" >
<svg xmlns="http://www.w3.org/2000/svg" xmlns:xlink="http://www.w3.org/1999/xlink" version="1.1" viewBox="-10 -40 660 512">
   <path fill="currentColor"
d="M445 217h-134h134h-134l-31 -26v0q-39 -30 -87 -37l5 -63v0q1 -6 6 -7l208 -42v0l33 175v0zM560 361h-40h40h-40v-4l-26 -140v0q15 8 32 20q29 19 47 42q18 24 19 50q0 14 -9 23t-23 9v0zM498 166q-9 -5 -15 -7l-25 -132v0q-3 -15 -14 -24q-11 -10 -26 -10q-4 0 -8 1
l-215 43v0q-19 4 -31 17q-12 14 -14 33l-5 68v0q-63 11 -103 57q-41 47 -42 113v18v0q1 28 19 47q19 18 47 19h398h96q34 -1 57 -23q22 -23 23 -57q-2 -46 -29 -79t-57 -53q-32 -21 -56 -31v0zM48 325q1 -53 36 -88v0v0q35 -35 88 -36q43 0 78 28l162 132v0h-346v0
q-16 -2 -18 -18v-18v0z" />
</svg>
