<?xml version="1.0" standalone="no"?>
<!DOCTYPE svg PUBLIC "-//W3C//DTD SVG 1.1//EN" "http://www.w3.org/Graphics/SVG/1.1/DTD/svg11.dtd" >
<svg xmlns="http://www.w3.org/2000/svg" xmlns:xlink="http://www.w3.org/1999/xlink" version="1.1" viewBox="-10 -40 468 512">
   <path fill="currentColor"
d="M224 9q36 1 55 32q18 32 0 64q-19 31 -55 32q-36 -1 -55 -32q-18 -32 0 -64q19 -31 55 -32v0zM248 182q39 -9 63 -38v0v0q24 -30 25 -71q-1 -48 -33 -79q-31 -32 -79 -33q-48 1 -79 33q-32 31 -33 79q1 41 25 71q24 29 63 38v99v0h48v0v-99v0zM96 281q-14 0 -23 9v0v0
q-9 9 -9 23q-27 1 -45 19t-19 45v32v0q1 27 19 45t45 19h320v0q27 -1 45 -19t19 -45v-32v0q-1 -27 -19 -45t-45 -19h-256v0q0 -14 -9 -23t-23 -9v0zM96 361h288h-288h288q15 1 16 16v32v0q-1 15 -16 16h-320v0q-15 -1 -16 -16v-32v0q1 -15 16 -16h32v0z" />
</svg>
