<?xml version="1.0" standalone="no"?>
<!DOCTYPE svg PUBLIC "-//W3C//DTD SVG 1.1//EN" "http://www.w3.org/Graphics/SVG/1.1/DTD/svg11.dtd" >
<svg xmlns="http://www.w3.org/2000/svg" xmlns:xlink="http://www.w3.org/1999/xlink" version="1.1" viewBox="-10 -40 532 512">
   <path fill="currentColor"
d="M481 -39q13 0 22 9v0v0q9 9 9 22v105v0q-1 17 -17 23l-111 36v0v237v0q-1 34 -33 57q-31 22 -79 23q-48 -1 -79 -23q-32 -23 -33 -57q1 -34 33 -57q31 -22 79 -23q36 0 64 14v-302v0q1 -17 16 -23l119 -39v0q5 -2 10 -2v0zM323 376q-17 -14 -51 -15q-34 1 -51 15
q-15 12 -13 17q-2 5 13 18q17 13 51 14q34 -1 51 -14q15 -13 13 -18q2 -5 -13 -17v0zM384 105l80 -25l-80 25l80 -25v-64v0l-80 26v0v63v0zM24 9h240h-240h240q22 2 24 24q-2 22 -24 24h-240v0q-22 -2 -24 -24q2 -22 24 -24v0zM24 137h240h-240h240q22 2 24 24q-2 22 -24 24
h-240v0q-22 -2 -24 -24q2 -22 24 -24v0zM24 265h112h-112h112q22 2 24 24q-2 22 -24 24h-112v0q-22 -2 -24 -24q2 -22 24 -24v0z" />
</svg>
