<?xml version="1.0" standalone="no"?>
<!DOCTYPE svg PUBLIC "-//W3C//DTD SVG 1.1//EN" "http://www.w3.org/Graphics/SVG/1.1/DTD/svg11.dtd" >
<svg xmlns="http://www.w3.org/2000/svg" xmlns:xlink="http://www.w3.org/1999/xlink" version="1.1" viewBox="-10 -40 404 512">
   <path fill="currentColor"
d="M320 9q15 1 16 16v384v0q-1 15 -16 16h-256v0q-15 -1 -16 -16v-384v0q1 -15 16 -16h256v0zM64 -39q-27 1 -45 19v0v0q-18 18 -19 45v384v0q1 27 19 45t45 19h256v0q27 -1 45 -19t19 -45v-384v0q-1 -27 -19 -45t-45 -19h-256v0zM192 265q14 0 23 9v0v0q9 9 9 23t-9 23
t-23 9t-23 -9t-9 -23t9 -23t23 -9v0zM192 393q26 0 48 -13v0v0q22 -13 35 -35q13 -23 13 -48t-13 -48q-13 -22 -35 -35t-48 -13t-48 13t-35 35q-13 23 -13 48t13 48q13 22 35 35t48 13v0zM112 41q-14 0 -23 9v0v0q-9 9 -9 23v48v0q0 14 9 23t23 9h160v0q14 0 23 -9t9 -23
v-48v0q0 -14 -9 -23t-23 -9h-160v0z" />
</svg>
