<?xml version="1.0" standalone="no"?>
<!DOCTYPE svg PUBLIC "-//W3C//DTD SVG 1.1//EN" "http://www.w3.org/Graphics/SVG/1.1/DTD/svg11.dtd" >
<svg xmlns="http://www.w3.org/2000/svg" xmlns:xlink="http://www.w3.org/1999/xlink" version="1.1" viewBox="-10 -40 532 512">
   <path fill="currentColor"
d="M494 8q21 -8 17 -29q-8 -21 -29 -17l-429 118v0q-24 7 -38 26q-15 19 -15 44v3v0v112v0v144v0q1 27 19 45t45 19h384v0q27 -1 45 -19t19 -45v-256v0q-1 -27 -19 -45t-45 -19h-247v0l293 -81v0zM48 153q1 -15 16 -16h384v0q15 1 16 16v256v0q-1 15 -16 16h-384v0
q-15 -1 -16 -16v-144v0v-112v0zM352 249q14 0 23 9v0v0q9 9 9 23t-9 23t-23 9t-23 -9t-9 -23t9 -23t23 -9v0zM352 361q45 -1 69 -40q22 -40 0 -80q-24 -39 -69 -40q-45 1 -69 40q-22 40 0 80q24 39 69 40v0zM112 201q-15 1 -16 16q1 15 16 16h96v0q15 -1 16 -16
q-1 -15 -16 -16h-96v0zM96 265q-15 1 -16 16q1 15 16 16h128v0q15 -1 16 -16q-1 -15 -16 -16h-128v0zM112 329q-15 1 -16 16q1 15 16 16h96v0q15 -1 16 -16q-1 -15 -16 -16h-96v0z" />
</svg>
