<?xml version="1.0" standalone="no"?>
<!DOCTYPE svg PUBLIC "-//W3C//DTD SVG 1.1//EN" "http://www.w3.org/Graphics/SVG/1.1/DTD/svg11.dtd" >
<svg xmlns="http://www.w3.org/2000/svg" xmlns:xlink="http://www.w3.org/1999/xlink" version="1.1" viewBox="-10 -40 660 512">
   <path fill="currentColor"
d="M256 115q0 11 -2 22h-78v0q-6 -18 -19 -32q-12 -15 -22 -23q-7 -5 -14 0q-10 8 -22 23q-13 14 -19 32h-78v0q-2 -11 -2 -22q2 -47 29 -85q28 -37 57 -59q6 -4 13 -5q10 0 18 8l37 37v0l9 -9v0q17 -15 34 -1q34 35 47 65q13 29 12 49v0zM452 51q26 -25 63 -26h35v0
q36 1 62 26l14 14v0q14 14 14 33q-1 20 -14 33q-13 14 -33 14h-50v0q-4 0 -6 3l-225 263v0q-25 30 -60 46t-75 16h-5v0q-73 -2 -122 -50q-48 -49 -50 -122q0 -14 2 -28l10 -59v0q-11 -7 -12 -21q2 -22 24 -24h16h208q22 2 24 24q-2 21 -23 24l-21 58v0l90 -90v0l-7 -7v0
q-14 -17 0 -34q17 -14 34 0l7 7v0l14 -14v0l-7 -7v0q-14 -17 0 -34q17 -14 34 0l7 7v0l14 -14v0l-7 -7v0q-14 -17 0 -34q17 -14 34 0l7 7v0l4 -4v0zM256 315q-14 14 -33 14h-3v0q-19 -1 -31 -13q-13 -13 -13 -31q0 -8 3 -16l19 -52v0h-138v0l-10 64v0q-2 10 -2 20
q1 53 36 88t88 36h5v0q59 -1 99 -45l224 -263v0q17 -20 43 -20h47v0l-12 -12v0q-12 -12 -29 -12h-35v0q-16 0 -28 12l-20 20v0q-1 0 -1 1v0v0q-1 0 -1 1l-46 46v0v0l-1 1l-1 1v0l-46 46v0h-1v1v0l-1 1l-112 112v0zM120 249q22 2 24 24q-2 22 -24 24q-22 -2 -24 -24
q2 -22 24 -24v0z" />
</svg>
