<?xml version="1.0" standalone="no"?>
<!DOCTYPE svg PUBLIC "-//W3C//DTD SVG 1.1//EN" "http://www.w3.org/Graphics/SVG/1.1/DTD/svg11.dtd" >
<svg xmlns="http://www.w3.org/2000/svg" xmlns:xlink="http://www.w3.org/1999/xlink" version="1.1" viewBox="-10 -40 660 512">
   <path fill="currentColor"
d="M515 -7q-37 1 -63 26l-4 4v0l-7 -7v0q-17 -14 -34 0q-14 17 0 34l7 7v0l-14 14v0l-7 -7v0q-17 -14 -34 0q-14 17 0 34l7 7v0l-14 14v0l-7 -7v0q-17 -14 -34 0q-14 17 0 34l7 7v0l-90 91v0l37 -107v0q21 -3 23 -24q-2 -22 -24 -24h-16h-224q-22 2 -24 24q2 22 24 24h2v0
l-22 99v0q-4 18 -4 37q2 71 49 119q48 47 119 49h9v0q40 0 75 -16t60 -46l225 -263v0q2 -3 6 -3h50v0q20 -1 33 -14q14 -13 14 -33q0 -19 -14 -33l-14 -14v0q-26 -25 -62 -26h-35v0zM75 137h139h-139h139l-35 101v0q-3 7 -3 15q0 18 13 31q13 12 31 13h3v0q19 0 33 -14
l112 -112v0v0l1 -1q1 0 1 -1l46 -46v0v0l1 -1q0 -1 1 -1l46 -46v0l1 -1v0v0l1 -1l20 -20v0q12 -12 29 -12h35v0q16 0 28 12l12 12v0h-47v0q-26 0 -43 20l-224 263v0q-40 44 -99 45h-9v0q-51 -1 -85 -35t-35 -85q0 -13 3 -26l24 -110v0zM136 265q-2 -22 -24 -24q-22 2 -24 24
q2 22 24 24q22 -2 24 -24v0zM128 209q22 -2 24 -24q-2 -22 -24 -24q-22 2 -24 24q2 22 24 24v0z" />
</svg>
