<?xml version="1.0" standalone="no"?>
<!DOCTYPE svg PUBLIC "-//W3C//DTD SVG 1.1//EN" "http://www.w3.org/Graphics/SVG/1.1/DTD/svg11.dtd" >
<svg xmlns="http://www.w3.org/2000/svg" xmlns:xlink="http://www.w3.org/1999/xlink" version="1.1" viewBox="-10 -40 660 512">
   <path fill="currentColor"
d="M63 -18q3 -12 -7 -19q-12 -5 -20 4l-8 9v0q-28 36 -28 81q1 54 37 90q37 37 91 38v0v0h16v0v64v0q1 34 21 60q20 25 52 33l25 85v0q7 21 23 33q17 13 39 13h32v0q22 0 39 -13q16 -12 23 -33l25 -85v0q32 -8 52 -33q20 -26 21 -60v-64v0h16v0v0v0q54 -1 91 -38
q36 -36 37 -90q0 -45 -28 -81l-7 -9v0q-9 -9 -21 -4q-10 7 -7 19l11 34v0q4 11 3 23q-3 22 -19 36q-15 14 -37 14h-23v0v0v0h-40v0q-28 -31 -72 -32h-160v0q-44 1 -72 32h-40v0v0v0h-23v0q-22 0 -37 -14q-16 -14 -19 -36q-1 -12 3 -24l11 -33v0zM228 296q-16 -5 -26 -17v0v0
q-10 -13 -10 -30v-64v0v-32v0q1 -20 14 -34q14 -13 34 -14h160v0q20 1 34 14q13 14 14 34v32v0v64v0q0 17 -10 30q-10 12 -26 17q-26 7 -35 32l-25 86v0q-4 10 -16 11h-32v0q-12 -1 -16 -11l-25 -86v0q-9 -25 -35 -32v0zM288 217q0 -14 -9 -23v0v0q-9 -9 -23 -9t-23 9t-9 23
t9 23t23 9t23 -9t9 -23v0zM384 249q14 0 23 -9v0v0q9 -9 9 -23t-9 -23t-23 -9t-23 9t-9 23t9 23t23 9v0z" />
</svg>
