<?xml version="1.0" standalone="no"?>
<!DOCTYPE svg PUBLIC "-//W3C//DTD SVG 1.1//EN" "http://www.w3.org/Graphics/SVG/1.1/DTD/svg11.dtd" >
<svg xmlns="http://www.w3.org/2000/svg" xmlns:xlink="http://www.w3.org/1999/xlink" version="1.1" viewBox="-10 -40 660 512">
   <path fill="currentColor"
d="M592 90v222v-222v222q-15 -16 -35 -33q-28 -24 -66 -42q-38 -19 -83 -20h-51h-309v-32v0h360v0q45 -1 83 -20q38 -18 66 -42q20 -17 35 -33v0zM352 265v112v-112v112h-40v0v-112v0h40v0zM400 377v-112v112v-112h8v0q33 1 63 15q30 15 55 36t41 40q16 18 20 25q9 12 24 12
q12 0 20 -9q9 -8 9 -20v-326v0q0 -12 -9 -20q-8 -9 -20 -9q-15 0 -24 12q-4 7 -20 25q-16 19 -41 40t-55 36q-30 14 -63 15h-8v0v-8v0q-2 -22 -24 -24q-22 2 -24 24v8v0h-40v0v-8v0q-2 -22 -24 -24q-22 2 -24 24v8v0h-40v0v-8v0q-2 -22 -24 -24q-22 2 -24 24v8v0h-128v0v-8
v0q-2 -22 -24 -24q-22 2 -24 24v32v0v80v0v32v0q2 22 24 24q22 -2 24 -24v-8v0h32v0q-16 25 -16 56q1 44 30 74q30 29 74 30h32h208q38 -1 65 -23q28 -23 37 -58l-2 -2t-2 -1q-21 -18 -43 -29q1 4 1 9q-1 24 -16 40q-16 15 -40 16h-8v0zM264 377h-40h40h-40v-112v0h40v0v112
v0zM176 377h-8h8h-8q-24 -1 -40 -16q-15 -16 -16 -40q1 -24 16 -40q16 -15 40 -16h8v0v112v0z" />
</svg>
