<?xml version="1.0" standalone="no"?>
<!DOCTYPE svg PUBLIC "-//W3C//DTD SVG 1.1//EN" "http://www.w3.org/Graphics/SVG/1.1/DTD/svg11.dtd" >
<svg xmlns="http://www.w3.org/2000/svg" xmlns:xlink="http://www.w3.org/1999/xlink" version="1.1" viewBox="-10 -40 660 512">
   <path fill="currentColor"
d="M304 89q-1 -45 -40 -69q-40 -22 -80 0q-39 24 -40 69q1 45 40 69q40 22 80 0q39 -24 40 -69v0zM96 89q0 -35 17 -64v0v0q17 -29 47 -47q30 -17 64 -17t64 17q30 18 47 47t17 64t-17 64t-47 47q-30 17 -64 17t-64 -17q-30 -18 -47 -47t-17 -64v0zM49 425h239h-239h239v0v0
q1 29 19 48h-277v0q-13 0 -21 -9q-9 -8 -9 -21q2 -75 52 -126q51 -50 126 -52h92v0q55 1 98 30v51v0l-10 2q-36 -34 -88 -35h-92v0q-50 1 -85 32q-36 31 -44 80v0zM630 126q10 7 10 19v48v0v160v0v4v4q-1 20 -19 34q-18 13 -45 14q-27 -1 -45 -14q-18 -14 -19 -34
q1 -20 19 -34q18 -13 45 -14q8 0 16 2v-89v0l-144 48v0v151v0q-1 20 -19 34q-18 13 -45 14q-27 -1 -45 -14q-18 -14 -19 -34q1 -20 19 -34q18 -13 45 -14q8 0 16 2v-122v0v-48v0q1 -17 16 -23l192 -64v0q12 -3 22 4v0z" />
</svg>
