<?xml version="1.0" standalone="no"?>
<!DOCTYPE svg PUBLIC "-//W3C//DTD SVG 1.1//EN" "http://www.w3.org/Graphics/SVG/1.1/DTD/svg11.dtd" >
<svg xmlns="http://www.w3.org/2000/svg" xmlns:xlink="http://www.w3.org/1999/xlink" version="1.1" viewBox="-10 -40 532 512">
   <path fill="currentColor"
d="M0 -15q2 -22 24 -24h464v0q22 2 24 24q-1 13 -11 20l11 58v0v4q-2 20 -22 22h-266v0v-48v0h235v0l-6 -32v0h-261v0v116v0q21 8 35 26q13 18 13 42q-1 31 -21 51t-51 21q-31 -1 -51 -21t-21 -51q0 -24 14 -42q13 -18 34 -26v-116v0h-84v0l-7 32v0h59v0v48v0h-90v0
q-20 -2 -22 -22v-4l11 -58v0q-10 -7 -11 -20v0zM67 169q-3 12 -3 24t3 24h-45v0q-20 -2 -22 -22v-4l14 -70v0h49v0l-9 48v0h13v0zM269 217q3 -12 3 -24t-3 -24h190v0l-9 -48v0h48v0l14 70v0v4q-2 20 -22 22h-221v0zM168 297h291h-291h291l-9 -48v0h48v0l14 70v0v4
q-2 20 -22 22h-468v0q-20 -2 -22 -22v-4l14 -70v0h49v0l-9 48v0h114v0zM14 377h49h-49h49l-9 48v0h405v0l-9 -48v0h48v0l14 70v0v4q-2 20 -22 22h-468v0q-20 -2 -22 -22v-4l14 -70v0zM168 217q22 -2 24 -24q-2 -22 -24 -24q-22 2 -24 24q2 22 24 24v0z" />
</svg>
