<?xml version="1.0" standalone="no"?>
<!DOCTYPE svg PUBLIC "-//W3C//DTD SVG 1.1//EN" "http://www.w3.org/Graphics/SVG/1.1/DTD/svg11.dtd" >
<svg xmlns="http://www.w3.org/2000/svg" xmlns:xlink="http://www.w3.org/1999/xlink" version="1.1" viewBox="-10 -40 458 512">
   <path fill="currentColor"
d="M24 -7h-8h8h-8v8v0v432v0v8v0h16v0v-8v0v-424v0h160v0q37 1 62 26t26 62v216v0v8v0h16v0v-8v0v-216v0q-1 -44 -30 -74q-30 -29 -74 -30h-168v0zM328 441q44 -1 74 -30v0v0q29 -30 30 -74v-336v0v-8v0h-16v0v8v0v336v0q-1 37 -26 62t-62 26h-160v0v-296v0v-8v0h-16v0v8v0
v304v0v8v0h8h168z" />
</svg>
