<?xml version="1.0" standalone="no"?>
<!DOCTYPE svg PUBLIC "-//W3C//DTD SVG 1.1//EN" "http://www.w3.org/Graphics/SVG/1.1/DTD/svg11.dtd" >
<svg xmlns="http://www.w3.org/2000/svg" xmlns:xlink="http://www.w3.org/1999/xlink" version="1.1" viewBox="-10 -40 340 512">
   <path fill="currentColor"
d="M16 41v352v-352v352h96v0v-352v0h-96v0zM0 25h16h-16h128v16v0v352v0v16v0h-16h-112v-16v0v-352v0v-16v0zM208 41v352v-352v352h96v0v-352v0h-96v0zM192 25h16h-16h128v16v0v352v0v16v0h-16h-112v-16v0v-352v0v-16v0z" />
</svg>
