<?xml version="1.0" standalone="no"?>
<!DOCTYPE svg PUBLIC "-//W3C//DTD SVG 1.1//EN" "http://www.w3.org/Graphics/SVG/1.1/DTD/svg11.dtd" >
<svg xmlns="http://www.w3.org/2000/svg" xmlns:xlink="http://www.w3.org/1999/xlink" version="1.1" viewBox="-10 -40 589 512">
   <path fill="currentColor"
d="M156 -31h4h-4h14l-1 9v0q-6 51 24 92q29 41 95 43q66 -2 95 -43q30 -41 24 -92l-1 -9v0h9h5l2 3v0q33 43 34 101q0 31 -11 59q27 5 52 20q49 29 70 79l2 4v0l-2 3v0v1v0l-5 8v0l-7 -6v0q-42 -30 -92 -24q-50 5 -85 60q-30 58 -10 104q21 46 68 67l8 3v0l-5 8v0v1v0l-2 4
v0h-4v0q-54 7 -104 -21q-24 -14 -41 -33q-17 19 -41 33q-50 28 -104 21h-4v0l-2 -4v0l-1 -1v0l-4 -8v0l8 -3v0q47 -21 68 -67q20 -46 -10 -104q-35 -56 -85 -61t-92 25l-7 6v0l-4 -8v0l-1 -1v0l-2 -3v0l2 -4v0q21 -50 70 -79q25 -15 52 -20q-11 -28 -11 -59q1 -58 34 -101
l2 -3v0zM152 4q-16 32 -16 69q0 33 13 62l5 10v0l-11 1v0q-29 4 -56 19q-32 19 -51 49q37 -18 79 -13q58 6 97 68q34 65 11 118q-17 38 -52 62q36 -2 68 -20q26 -15 43 -37l6 -8v0l6 8v0q18 22 43 37q32 18 68 20q-35 -24 -52 -62q-23 -53 11 -118q39 -62 97 -68
q41 -5 79 13q-19 -30 -51 -49q-27 -15 -56 -19l-11 -1v0l5 -10v0q13 -29 13 -62q0 -37 -16 -69q-3 42 -28 76q-35 46 -108 49q-73 -3 -107 -49q-26 -34 -29 -76v0zM155 393q-63 -53 -74 -137q8 -2 16 -2q10 78 68 126q-5 7 -10 13v0zM288 41q-32 0 -61 10q-2 -2 -3 -5
q-4 -4 -6 -9q33 -12 70 -12t71 12q-3 5 -7 9q-1 3 -3 5q-29 -10 -61 -10v0zM479 254q8 0 16 2q-11 84 -73 137q-6 -6 -11 -13q58 -48 68 -126v0zM288 193q23 1 35 20q10 20 0 40q-12 19 -35 20q-23 -1 -35 -20q-10 -20 0 -40q12 -19 35 -20v0zM312 233q-2 -22 -24 -24
q-22 2 -24 24q2 22 24 24q22 -2 24 -24v0z" />
</svg>
