<?xml version="1.0" standalone="no"?>
<!DOCTYPE svg PUBLIC "-//W3C//DTD SVG 1.1//EN" "http://www.w3.org/Graphics/SVG/1.1/DTD/svg11.dtd" >
<svg xmlns="http://www.w3.org/2000/svg" xmlns:xlink="http://www.w3.org/1999/xlink" version="1.1" viewBox="-10 -40 541 512">
   <path fill="currentColor"
d="M328 9q33 0 64 10q29 10 55 27q-22 -24 -48 -42q-63 -42 -143 -43q-72 1 -129 35q-58 34 -92 92q-34 57 -35 129q1 72 35 129q34 58 92 92q57 34 129 35q80 -1 143 -43q26 -18 48 -42q-26 17 -55 27q-31 10 -64 10q-88 -2 -147 -61t-61 -147q2 -88 61 -147t147 -61v0z
M328 -7q-63 1 -113 31v0v0q-51 29 -80 80v0v0q-30 50 -31 113q1 63 31 113q29 51 80 80q50 30 113 31h16q-41 16 -88 16q-67 -1 -121 -33t-86 -86t-33 -121q1 -67 33 -121t86 -86t121 -33q47 0 88 17q-8 -1 -16 -1v0zM393 99l-9 -18l9 18l-9 -18l-9 18v0l-33 68v0l-75 11v0
l-20 3v0l14 14v0l54 52v0l-12 75v0l-4 20v0l18 -10v0l67 -35v0l67 35v0l18 10v0l-4 -20v0l-13 -75v0l54 -52v0l15 -14v0l-20 -3v0l-75 -11v0l-33 -68v0zM424 183l63 9l-63 -9l63 9l-46 44v0l-6 6v0l2 8v0l10 62v0l-55 -29v0l-8 -4v0l-7 4v0l-56 29v0l10 -62v0l2 -8v0l-6 -6
v0l-46 -44v0l63 -9v0l8 -2v0l4 -7v0l28 -57v0l28 57v0l4 7v0l8 2v0z" />
</svg>
