<?xml version="1.0" standalone="no"?>
<!DOCTYPE svg PUBLIC "-//W3C//DTD SVG 1.1//EN" "http://www.w3.org/Graphics/SVG/1.1/DTD/svg11.dtd" >
<svg xmlns="http://www.w3.org/2000/svg" xmlns:xlink="http://www.w3.org/1999/xlink" version="1.1" viewBox="-10 -40 532 512">
   <path fill="currentColor"
d="M264 -31v-8v8v-8h-16v0v8v0v40v0q-79 5 -133 55l-29 -28v0l-5 -6v0l-12 12v0l6 5v0l28 29v0q-50 54 -55 133h-40h-8v16v0h8h40q5 79 55 133l-28 29v0l-6 5v0l12 12v0l5 -6v0l29 -28v0q54 50 133 55v40v0v8v0h16v0v-8v0v-40v0q79 -5 133 -55l29 28v0l5 6v0l12 -12v0l-6 -5
v0l-28 -29v0q50 -54 55 -133h40h8v-16v0h-8h-40q-5 -79 -55 -133l28 -29v0l6 -5v0l-12 -12v0l-5 6v0l-29 28v0q-54 -50 -133 -55v-40v0zM248 25v96v-96v96q-31 3 -54 23l-68 -68v0q50 -46 122 -51v0zM264 121v-96v96v-96q72 5 122 51l-68 68v0q-23 -20 -54 -23v0zM329 155
l68 -68l-68 68l68 -68q46 50 51 122h-96v0q-3 -31 -23 -54v0zM352 225h96h-96h96q-4 72 -51 122l-68 -68v0q20 -23 23 -54v0zM200 160q32 -32 78 -22q44 13 57 58q10 45 -22 78q-33 32 -79 22q-44 -13 -57 -58q-10 -45 23 -78v0zM264 313q31 -3 54 -23l68 68v0
q-50 46 -122 51v-96v0zM248 313v96v-96v96q-72 -4 -122 -51l68 -68v0q23 20 54 23v0zM115 347q-46 -50 -51 -122h96v0q3 31 23 54l-68 68v0zM64 209q5 -72 51 -122l68 68v0q-20 23 -23 54h-96v0z" />
</svg>
