<?xml version="1.0" standalone="no"?>
<!DOCTYPE svg PUBLIC "-//W3C//DTD SVG 1.1//EN" "http://www.w3.org/Graphics/SVG/1.1/DTD/svg11.dtd" >
<svg xmlns="http://www.w3.org/2000/svg" xmlns:xlink="http://www.w3.org/1999/xlink" version="1.1" viewBox="-10 -40 468 512">
   <path fill="currentColor"
d="M16 9v416v-416v416h416v0v-416v0h-416v0zM0 -7h16h-16h448v16v0v416v0v16v0h-16h-432v-16v0v-416v0v-16v0zM240 217q-1 -15 -16 -16q-15 1 -16 16q1 15 16 16q15 -1 16 -16v0zM192 217q0 -14 9 -23v0v0q9 -9 23 -9t23 9t9 23t-9 23t-23 9t-23 -9t-9 -23v0z" />
</svg>
