<?xml version="1.0" standalone="no"?>
<!DOCTYPE svg PUBLIC "-//W3C//DTD SVG 1.1//EN" "http://www.w3.org/Graphics/SVG/1.1/DTD/svg11.dtd" >
<svg xmlns="http://www.w3.org/2000/svg" xmlns:xlink="http://www.w3.org/1999/xlink" version="1.1" viewBox="-10 -40 660 512">
   <path fill="currentColor"
d="M640 -7v8v-8v8v144v0v8v0h-16v0v-8v0v-125v0l-126 126v0q47 55 46 123t-51 120q-38 37 -86 48q-47 10 -94 -5l14 -12q41 10 81 0q41 -11 73 -42q47 -49 47 -113t-47 -113l-5 -6v0l5 -6v0l132 -131v0h-125h-8v-16v0h8h152zM288 -7h8h-8h160v8v0v144v0v8v0h-16v0v-8v0v-125
v0l-126 126v0q44 49 46 119q-2 75 -52 124q-49 50 -124 52q-75 -2 -124 -52q-50 -49 -52 -124q2 -75 52 -124q49 -50 124 -52q70 2 119 46l126 -126v0h-125h-8v-16v0zM176 425q43 0 80 -21v0v0q37 -22 59 -59q21 -38 21 -80t-21 -80q-22 -37 -59 -59q-37 -21 -80 -21t-80 21
q-37 22 -59 59q-21 38 -21 80t21 80q22 37 59 59q37 21 80 21v0z" />
</svg>
