<?xml version="1.0" standalone="no"?>
<!DOCTYPE svg PUBLIC "-//W3C//DTD SVG 1.1//EN" "http://www.w3.org/Graphics/SVG/1.1/DTD/svg11.dtd" >
<svg xmlns="http://www.w3.org/2000/svg" xmlns:xlink="http://www.w3.org/1999/xlink" version="1.1" viewBox="-10 -40 532 512">
   <path fill="currentColor"
d="M304 -23h-256h256h-256v400v0h256v0v-400v0zM48 457h256h-256h256v-64v0h-256v0v64v0zM352 473h-32h32h-352v-16v0h32v0v-480v0v-16v0h16h272v16v0v256v0h8v0q31 1 51 21t21 51v40v0q1 20 14 34q14 13 34 14q20 -1 34 -14q13 -14 14 -34v-160v0h-8v0q-24 -1 -40 -16
q-15 -16 -16 -40v-95v0l-29 -27v0l-6 -5v0l11 -12v0l5 5v0l96 88v0l3 3v0v3v0v256v0q-1 27 -19 45t-45 19q-27 -1 -45 -19t-19 -45v-40v0q-1 -24 -16 -40q-16 -15 -40 -16h-8v0v208v0h32v0v16v0zM496 93l-48 -44l48 44l-48 -44v80v0q0 17 12 28q11 12 28 12h8v0v-76v0z
M112 41v128v-128v128h128v0v-128v0h-128v0zM96 25h16h-16h160v16v0v128v0v16v0h-16h-144v-16v0v-128v0v-16v0z" />
</svg>
