<?xml version="1.0" standalone="no"?>
<!DOCTYPE svg PUBLIC "-//W3C//DTD SVG 1.1//EN" "http://www.w3.org/Graphics/SVG/1.1/DTD/svg11.dtd" >
<svg xmlns="http://www.w3.org/2000/svg" xmlns:xlink="http://www.w3.org/1999/xlink" version="1.1" viewBox="-10 -40 529 512">
   <path fill="currentColor"
d="M16 73q0 -26 13 -48v0v0q13 -22 35 -35q23 -13 48 -13t48 13q22 13 35 35t13 48t-13 48t-35 35q-23 13 -48 13t-48 -13q-22 -13 -35 -35t-13 -48v0zM224 73q-1 -48 -33 -79v0v0q-31 -32 -79 -33q-48 1 -79 33q-32 31 -33 79q1 48 33 79q31 32 79 33q50 -1 82 -36l55 47v0
l25 21v0l-80 68v0q-32 -35 -82 -36q-48 1 -79 33q-32 31 -33 79q1 48 33 79q31 32 79 33q48 -1 79 -33q32 -31 33 -79q-1 -36 -20 -64l305 -258v0l-10 -12v0l-212 180v0l-25 -21v0l-58 -49v0q19 -28 20 -64v0zM112 265q26 0 48 13v0v0q22 13 35 35q13 23 13 48t-13 48
q-13 22 -35 35t-48 13t-48 -13t-35 -35q-13 -23 -13 -48t13 -48q13 -22 35 -35t48 -13v0zM311 248l188 159l-188 -159l188 159l10 -12v0l-185 -157v0l-13 11v-1z" />
</svg>
