<?xml version="1.0" standalone="no"?>
<!DOCTYPE svg PUBLIC "-//W3C//DTD SVG 1.1//EN" "http://www.w3.org/Graphics/SVG/1.1/DTD/svg11.dtd" >
<svg xmlns="http://www.w3.org/2000/svg" xmlns:xlink="http://www.w3.org/1999/xlink" version="1.1" viewBox="-10 -40 532 512">
   <path fill="currentColor"
d="M192 201l-128 40l128 -40l-128 40l-64 200v0l10 10v0l12 12v0l10 10v0l200 -64v0l40 -128v0l228 -205v0l12 -11v0l-11 -11v0l-82 -82v0l-11 -11v0l-11 12v0l-205 228v0zM106 378q10 7 22 7q17 0 28 -12q12 -11 12 -28t-12 -28q-11 -12 -28 -12t-28 12q-12 11 -12 28
q0 12 7 22l-73 73v0l-4 -3v0l59 -183v0l119 -38v0l61 61v0l-38 119v0l-183 59v0l-3 -4v0l73 -73v0zM209 206l200 -222l-200 222l200 -222l80 80v0l-222 200v0l-58 -58v0zM104 345q2 -22 24 -24q22 2 24 24q-2 22 -24 24q-22 -2 -24 -24v0z" />
</svg>
