<?xml version="1.0" standalone="no"?>
<!DOCTYPE svg PUBLIC "-//W3C//DTD SVG 1.1//EN" "http://www.w3.org/Graphics/SVG/1.1/DTD/svg11.dtd" >
<svg xmlns="http://www.w3.org/2000/svg" xmlns:xlink="http://www.w3.org/1999/xlink" version="1.1" viewBox="-10 -40 468 512">
   <path fill="currentColor"
d="M16 425h416h-416h416v-416v0h-416v0v416v0zM0 441v-16v16v-16v-416v0v-16v0h16h432v16v0v416v0v16v0h-16h-432zM224 249h112h-112h112v-64v0h-112h-16v-16v0v-64v0h-1v0l-112 112v0l112 112v0h1v0v-64v0v-16v0h16v0zM83 228l-11 -11l11 11l-11 -11l11 -11v0l117 -117v0h8
h16v16v0v48v0v16v0h16h112v16v0v64v0v16v0h-16h-112v16v0v48v0v16v0h-16h-8l-117 -117v0z" />
</svg>
