<?xml version="1.0" standalone="no"?>
<!DOCTYPE svg PUBLIC "-//W3C//DTD SVG 1.1//EN" "http://www.w3.org/Graphics/SVG/1.1/DTD/svg11.dtd" >
<svg xmlns="http://www.w3.org/2000/svg" xmlns:xlink="http://www.w3.org/1999/xlink" version="1.1" viewBox="-10 -40 586 512">
   <path fill="currentColor"
d="M375 125l-78 -147l78 147l-78 -147l-9 -17v0l-9 17v0l-77 147v0l-164 28v0l-19 4v0l13 14v0l116 119v0l-23 164v0l-3 19v0l17 -9v0l149 -73v0l149 73v0l17 9v0l-2 -19v0l-24 -164v0l116 -119v0l13 -14v0l-19 -4v0l-163 -28v0zM525 167l-108 111l108 -111l-108 111l-6 6v0
l1 8v0l22 153v0l-139 -68v0l-7 -4v0l-7 4v0l-139 68v0l22 -153v0l1 -8v0l-5 -6v0l-108 -111v0l152 -26v0l8 -1v0l4 -7v0l72 -138v0l73 137v0l3 7v0l8 2v0l153 26v0z" />
</svg>
