<?xml version="1.0" standalone="no"?>
<!DOCTYPE svg PUBLIC "-//W3C//DTD SVG 1.1//EN" "http://www.w3.org/Graphics/SVG/1.1/DTD/svg11.dtd" >
<svg xmlns="http://www.w3.org/2000/svg" xmlns:xlink="http://www.w3.org/1999/xlink" version="1.1" viewBox="-10 -40 650 512">
   <path fill="currentColor"
d="M448 265q39 0 72 -19v0v0q33 -19 53 -53q19 -34 19 -72t-19 -72q-20 -34 -53 -53t-72 -19t-72 19t-53 53q-19 34 -19 72t19 72q20 34 53 53t72 19v0zM448 281q-59 -1 -102 -37v0v0q-43 -35 -55 -91q-80 22 -129 85t-50 147v72v0h216h8v0v0h32v0v-13v0q0 -15 -10 -25
t-25 -10h-45h-8v-8v0v-40v0q-1 -20 -14 -34q-14 -13 -34 -14h-32h-8v-16v0h8h32q27 1 45 19t19 45v30v0l126 -85v0l12 -8v0v15v0v144v0h46v0v-179v0q-15 3 -32 3v0zM608 121q-1 55 -32 96v0v0q-30 40 -80 57v191v0v8v0h-8h-70v-8v0v-137v0l-96 65v0h11v0q22 1 36 15t15 36
v21v0v8v0h-8h-192v0v0h-80h-8v-8v0v-80v0v-256v0q-1 -24 -16 -40q-16 -15 -40 -16h-8v0v-16v0h8v0q31 1 51 21t21 51v167v0q22 -59 68 -101t109 -58q-1 -8 -1 -16q2 -68 47 -113t113 -47q68 2 113 47t47 113v0zM373 27l38 30l-38 -30l38 30h74v0l38 -30v0l13 -11v0v17v0v96
v0q-1 37 -26 62t-62 26q-37 -1 -62 -26t-26 -62v-96v0v-17v0l13 11v0zM376 129q1 31 21 51v0v0q20 20 51 21q31 -1 51 -21t21 -51v-79v0l-27 21v0l-2 2v0h-3h-83l-2 -2v0l-27 -21v0v79v0zM400 121q1 -15 16 -16q15 1 16 16q-1 15 -16 16q-15 -1 -16 -16v0zM480 105
q15 1 16 16q-1 15 -16 16q-15 -1 -16 -16q1 -15 16 -16v0zM232 -23v40v-40v40h40h8v16v0h-8h-40v40v0v8v0h-16v0v-8v0v-40v0h-40h-8v-16v0h8h40v-40v0v-8v0h16v0v8v0z" />
</svg>
