<?xml version="1.0" standalone="no"?>
<!DOCTYPE svg PUBLIC "-//W3C//DTD SVG 1.1//EN" "http://www.w3.org/Graphics/SVG/1.1/DTD/svg11.dtd" >
<svg xmlns="http://www.w3.org/2000/svg" xmlns:xlink="http://www.w3.org/1999/xlink" version="1.1" viewBox="-10 -40 532 512">
   <path fill="currentColor"
d="M303 -4l-2 23l2 -23l-2 23l-2 18v0l17 -6v0l177 -63v0l19 -7v0l-7 20v0l-63 176v0l-6 17v0l18 -2v0l23 -1v0l19 -2v0l-10 17v0l-107 186v0q-28 47 -75 74q-46 27 -101 27q-86 -2 -144 -59q-57 -58 -59 -144q0 -55 27 -101q27 -47 74 -75l186 -107v0l17 -10v0l-1 19v0z
M305 52l-23 8l23 -8l-23 8l1 -24v0l3 -30v0l-177 102v0q-43 26 -68 69q-25 42 -25 93q2 79 55 132t132 55q51 0 93 -25q43 -25 69 -68l102 -177v0l-30 3v0l-24 2v0l8 -24v0l65 -181v0l-181 65v0zM209 168l31 61l-31 -61l31 61l68 10v0l20 2v0l-15 15v0l-49 47v0l12 67v0
l3 20v0l-18 -9v0l-61 -32v0l-61 32v0l-18 9v0l3 -20v0l12 -67v0l-49 -47v0l-15 -14v0l20 -3v0l68 -10v0l31 -61v0l9 -18v0l9 18v0zM237 245l-8 -1l8 1l-8 -1l-4 -8v0l-25 -50v0l-25 50v0l-4 8v0l-8 1v0l-56 8v0l40 39v0l6 5v0l-1 9v0l-10 55v0l51 -26v0l7 -4v0l7 4v0l51 26
v0l-10 -55v0l-1 -9v0l6 -5v0l40 -39v0l-56 -8v0z" />
</svg>
