<?xml version="1.0" standalone="no"?>
<!DOCTYPE svg PUBLIC "-//W3C//DTD SVG 1.1//EN" "http://www.w3.org/Graphics/SVG/1.1/DTD/svg11.dtd" >
<svg xmlns="http://www.w3.org/2000/svg" xmlns:xlink="http://www.w3.org/1999/xlink" version="1.1" viewBox="-10 -40 532 512">
   <path fill="currentColor"
d="M128 145q2 -71 49 -119v0v0q48 -47 119 -49h27v0l-9 9v0q-48 44 -62 107l-3 15v0l14 -6v0q30 -13 65 -13q71 2 119 49q47 48 49 119v27v0l-9 -10v0q-44 -47 -107 -61l-15 -3v0l6 14v0q13 30 13 65q-2 71 -49 119q-47 47 -119 49h-27v0l10 -9v0q47 -44 61 -107l3 -15v0
l-14 6v0q-30 13 -65 13q-71 -2 -119 -49q-47 -48 -49 -119v-27v0l9 10v0q44 47 107 61l15 3v0l-6 -14v0q-13 -30 -13 -65v0zM296 -39q-78 2 -130 54v0v0q-52 52 -54 130q0 30 9 57q-49 -15 -84 -53l-23 -25v0l-14 -16v0v21v0v48v0q2 78 54 130t130 54q30 0 57 -9
q-15 49 -53 84l-25 23v0l-16 14v0h21h48q78 -2 130 -54t54 -130q0 -30 -9 -56q49 14 84 52l23 25v0l14 16v0v-21v0v-48v0q-2 -78 -54 -130t-130 -54q-30 0 -56 9q14 -49 52 -84l25 -23v0l16 -14v0h-21h-48zM245 268l11 12l-11 -12l11 12l11 -12v0l40 -40v0l12 -11v0l-12 -11
v0l-40 -40v0l-11 -12v0l-11 12v0l-40 40v0l-12 11v0l12 11v0l40 40v0zM256 257l-11 -11l11 11l-11 -11l-18 -18v0l-11 -11v0l11 -11v0l18 -18v0l11 -11v0l11 11v0l18 18v0l11 11v0l-11 11v0l-18 18v0l-11 11v0z" />
</svg>
