<?xml version="1.0" standalone="no"?>
<!DOCTYPE svg PUBLIC "-//W3C//DTD SVG 1.1//EN" "http://www.w3.org/Graphics/SVG/1.1/DTD/svg11.dtd" >
<svg xmlns="http://www.w3.org/2000/svg" xmlns:xlink="http://www.w3.org/1999/xlink" version="1.1" viewBox="-10 -40 468 512">
   <path fill="currentColor"
d="M184 -7v8v-8v8v104v0q0 61 37 110l19 26v0q40 53 40 120v72v0v8v0h-16v0v-8v0v-72v0q0 -61 -37 -110l-19 -26v0q-39 -53 -40 -120v-104v0v-8v0h16v0zM16 57v8v-8v8v54v0q0 55 31 102l31 47v0q34 51 34 111v54v0v8v0h-16v0v-8v0v-54v0q0 -55 -31 -102l-31 -47v0
q-34 -51 -34 -111v-54v0v-8v0h16v0zM352 65v54v-54v54q0 55 31 102l31 47v0q34 51 34 111v54v0v8v0h-16v0v-8v0v-54v0q0 -55 -31 -102l-31 -47v0q-34 -51 -34 -111v-54v0v-8v0h16v0v8v0z" />
</svg>
