<?xml version="1.0" standalone="no"?>
<!DOCTYPE svg PUBLIC "-//W3C//DTD SVG 1.1//EN" "http://www.w3.org/Graphics/SVG/1.1/DTD/svg11.dtd" >
<svg xmlns="http://www.w3.org/2000/svg" xmlns:xlink="http://www.w3.org/1999/xlink" version="1.1" viewBox="-10 -40 657 512">
   <path fill="currentColor"
d="M432 -23q15 0 25 11v0v0q11 10 11 25t-11 25q-10 11 -25 11t-25 -11q-11 -10 -11 -25t11 -25q10 -11 25 -11v0zM432 65q29 -1 45 -26q14 -26 0 -52q-16 -25 -45 -26q-29 1 -45 26q-14 26 0 52q16 25 45 26v0zM413 231l3 -6l-3 6l3 -6l10 -21v0l7 22v0l12 40v0l-53 57v0
l-5 6v0l-2 8v0l-24 88v0l-4 15v0l-4 15v0l15 5v0l31 8v0l15 4v0l5 -15v0l4 -16v0l22 -80v0l71 -77v0q22 -27 14 -60l-11 -44v0l-6 -20v0l19 9v0l18 7v0l12 35v0l5 15v0l5 15v0l15 -5v0l30 -10v0l16 -5v0l-5 -15v0l-6 -15v0l-16 -48v0l-4 -14v0l-13 -5v0l-72 -32v0l-9 -4v0
l-10 2v0l-80 16v0l-16 3v0l-7 14v0l-35 70v0l-24 12v0l-14 7v0l7 15v0l14 28v0l7 15v0l15 -8v0l33 -16v0l10 -5v0l5 -10v0zM404 334l53 -57l-53 57l53 -57l6 -7v0l-3 -8v0l-18 -63v0l-12 -39v0l-18 37v0l-14 27v0l-2 5v0l-5 2v0l-34 17v0l-14 -28v0l24 -13v0l5 -2v0l2 -5v0
l36 -70v0l3 -7v0l8 -2v0l80 -16v0l5 -1v0l4 2v0l72 32v0l7 3v0l2 7v0l16 48v0l5 15v0l-30 10v0l-5 -15v0l-12 -35v0l-2 -6v0l-6 -3v0l-37 -16v0l-31 -14v0l9 32v0l17 64v0q6 25 -11 45l-71 77v0l-3 3v0l-1 4v0l-22 80v0l-4 16v0l-31 -9v0l5 -15v0l24 -88v0l1 -4v0l2 -3v0z
M571 359l-25 -62l25 62l-25 -62q-3 4 -7 8l-4 5v0l21 55v0l2 3v0l2 2v0l43 44v0l12 11v0l-23 23v0l-11 -12v0l-48 -48v0l-3 -2v0l-1 -3v0l-18 -46v0l-12 13v0l15 39v0l3 6v0l4 5v0l48 48v0l12 11v0l11 11v0l11 -11v0l23 -23v0l11 -11v0l-11 -11v0l-11 -12v0l-44 -43v0z
M245 -29l-5 -4l5 4l-5 -4l-5 4v0l-224 192v0l-6 5v0l10 12v0l6 -5v0l43 -37v0v231v0v8v0h8h272l4 -16v0h-268v0v-236v0l160 -137v0l133 114v0l7 -15v0l-135 -116v0zM232 145v80v-80v80h-80v0v-80v0h80v0zM152 129h-16h16h-16v16v0v80v0v16v0h16h96v-16v0v-80v0v-16v0h-16
h-80z" />
</svg>
