<?xml version="1.0" standalone="no"?>
<!DOCTYPE svg PUBLIC "-//W3C//DTD SVG 1.1//EN" "http://www.w3.org/Graphics/SVG/1.1/DTD/svg11.dtd" >
<svg xmlns="http://www.w3.org/2000/svg" xmlns:xlink="http://www.w3.org/1999/xlink" version="1.1" viewBox="-10 -40 596 512">
   <path fill="currentColor"
d="M560 9v384v-384v384h-544v0v-384v0h544v0zM16 -7h-16h16h-16v16v0v384v0v16v0h16h48v32v0h16v0v-32v0h416v0v32v0h16v0v-32v0h48h16v-16v0v-384v0v-16v0h-16h-544zM496 57v288v-288v288h16v0v-288v0h-16v0zM96 89h320h-320h320v224v0h-320v0v-224v0zM80 73v16v-16v16v224
v0v16v0h16h336v-16v0v-224v0v-16v0h-16h-336z" />
</svg>
