<?xml version="1.0" standalone="no"?>
<!DOCTYPE svg PUBLIC "-//W3C//DTD SVG 1.1//EN" "http://www.w3.org/Graphics/SVG/1.1/DTD/svg11.dtd" >
<svg xmlns="http://www.w3.org/2000/svg" xmlns:xlink="http://www.w3.org/1999/xlink" version="1.1" viewBox="-10 -40 525 512">
   <path fill="currentColor"
d="M184 395q59 -39 136 -114q75 -77 114 -136q14 33 14 72q-2 82 -56 136t-136 56q-39 0 -72 -14v0zM151 397q-37 22 -65 33q-39 15 -59 17l-1 1h-1q0 -1 1 -2q2 -20 17 -59q6 -15 16 -34q-6 -7 -10 -15q-32 61 -37 94t-4 33v0q1 2 42 -6t118 -54q40 20 88 20q88 -2 147 -61
t61 -147q0 -48 -20 -88q46 -77 54 -118t6 -42q0 -1 -33 4t-94 37q8 4 16 10q18 -10 33 -16q39 -15 59 -17l1 -1h1q0 1 -1 2q-2 20 -17 59q-11 28 -33 65q-28 -47 -75 -75q-47 -27 -105 -28q-88 2 -147 61t-61 147q1 58 28 105q28 47 75 75v0zM167 387q-47 -25 -75 -69v0v0
q-27 -45 -28 -101q2 -82 56 -136t136 -56q56 1 101 28q44 28 69 75q-38 61 -118 141t-141 118v0z" />
</svg>
