<?xml version="1.0" standalone="no"?>
<!DOCTYPE svg PUBLIC "-//W3C//DTD SVG 1.1//EN" "http://www.w3.org/Graphics/SVG/1.1/DTD/svg11.dtd" >
<svg xmlns="http://www.w3.org/2000/svg" xmlns:xlink="http://www.w3.org/1999/xlink" version="1.1" viewBox="-10 -40 532 512">
   <path fill="currentColor"
d="M256 -23q-67 1 -121 33v0v0q-54 32 -86 86v0v0q-32 54 -33 121q1 67 33 121t86 86t121 33q67 -1 121 -33t86 -86t33 -121h16v0q-1 72 -35 129q-34 58 -92 92q-57 34 -129 35q-72 -1 -129 -35q-58 -34 -92 -92q-34 -57 -35 -129q1 -72 35 -129q34 -58 92 -92
q57 -34 129 -35q51 0 96 19q45 18 79 50l43 -43v0l6 -5v0l11 11v0l-5 6v0l-224 224v0l-6 5v0l-11 -11v0l5 -6v0l34 -33v0q-12 -9 -28 -9q-20 0 -34 14q-13 14 -14 34q1 20 14 34q14 13 34 14q20 -1 34 -14q14 -14 14 -34h16v0q-1 27 -19 45t-45 19q-27 -1 -45 -19t-19 -45
q1 -27 19 -45t45 -19q23 0 39 13l57 -56v0q-39 -36 -96 -37q-44 1 -78 23q-35 23 -53 60l-14 -6v0q20 -42 58 -67t87 -26q63 1 107 41l57 -56v0q-67 -63 -164 -65v0zM96 177q23 1 35 20q10 20 0 40q-12 19 -35 20q-23 -1 -35 -20q-10 -20 0 -40q12 -19 35 -20v0zM120 217
q-2 -22 -24 -24q-22 2 -24 24q2 22 24 24q22 -2 24 -24v0zM216 377q1 -23 20 -35q20 -10 40 0q19 12 20 35q-1 23 -20 35q-20 10 -40 0q-19 -12 -20 -35v0zM256 401q22 -2 24 -24q-2 -22 -24 -24q-22 2 -24 24q2 22 24 24v0zM400 217h16h-16h16q-1 49 -26 87t-67 58l-6 -14
v0q37 -18 60 -53q22 -34 23 -78v0zM195 348l-6 14l6 -14l-6 14q-53 -25 -78 -78l14 -6v0q23 47 70 70v0z" />
</svg>
