<?xml version="1.0" standalone="no"?>
<!DOCTYPE svg PUBLIC "-//W3C//DTD SVG 1.1//EN" "http://www.w3.org/Graphics/SVG/1.1/DTD/svg11.dtd" >
<svg xmlns="http://www.w3.org/2000/svg" xmlns:xlink="http://www.w3.org/1999/xlink" version="1.1" viewBox="-10 -40 532 512">
   <path fill="currentColor"
d="M256 -23q-67 1 -121 33v0v0q-54 32 -86 86v0v0q-32 54 -33 121q0 19 3 36q111 43 237 44q126 -1 237 -44q2 -13 3 -28h-80h-8v-16v0h8h96v8v0q0 22 -4 43v4v0l-4 2v0l-1 1v0h-1v0v0v0q-115 45 -246 46q-124 -1 -234 -41q21 81 84 132t150 53q62 -1 113 -28q52 -28 85 -76
h-54h-8v-16v0h8h69l6 12v0q-34 57 -91 90t-128 34q-72 -1 -129 -35q-58 -34 -92 -92q-34 -57 -35 -129q1 -72 35 -129q34 -58 92 -92q57 -34 129 -35q59 0 110 25q50 24 86 66l-6 13v0h-86h-8v-16v0h8h67q-33 -34 -76 -53q-44 -19 -95 -19v0zM344 105h8h-8h112v16v0h-8h-104
v-16v0zM344 153h8h-8h112v16v0h-8h-104v-16v0zM192 185q36 -1 55 -32q18 -32 0 -64q-19 -31 -55 -32q-36 1 -55 32q-18 32 0 64q19 31 55 32v0zM192 41q45 1 69 40q22 40 0 80q-24 39 -69 40q-45 -1 -69 -40q-22 -40 0 -80q24 -39 69 -40v0zM192 105q15 1 16 16
q-1 15 -16 16q-15 -1 -16 -16q1 -15 16 -16v0z" />
</svg>
