<?xml version="1.0" standalone="no"?>
<!DOCTYPE svg PUBLIC "-//W3C//DTD SVG 1.1//EN" "http://www.w3.org/Graphics/SVG/1.1/DTD/svg11.dtd" >
<svg xmlns="http://www.w3.org/2000/svg" xmlns:xlink="http://www.w3.org/1999/xlink" version="1.1" viewBox="-10 -40 532 512">
   <path fill="currentColor"
d="M480 -23q1 -15 16 -16q15 1 16 16q-1 15 -16 16q-15 -1 -16 -16v0zM416 41q1 -15 16 -16q15 1 16 16q-1 15 -16 16q-15 -1 -16 -16v0zM16 89q15 1 16 16q-1 15 -16 16q-15 -1 -16 -16q1 -15 16 -16v0zM144 89q15 1 16 16q-1 15 -16 16q-15 -1 -16 -16q1 -15 16 -16v0z
M368 89q15 1 16 16q-1 15 -16 16q-15 -1 -16 -16q1 -15 16 -16v0zM480 105q1 -15 16 -16q15 1 16 16q-1 15 -16 16q-15 -1 -16 -16v0zM416 169q1 -15 16 -16q15 1 16 16q-1 15 -16 16q-15 -1 -16 -16v0zM80 153q15 1 16 16q-1 15 -16 16q-15 -1 -16 -16q1 -15 16 -16v0z
M480 233q1 -15 16 -16q15 1 16 16q-1 15 -16 16q-15 -1 -16 -16v0zM16 217q15 1 16 16q-1 15 -16 16q-15 -1 -16 -16q1 -15 16 -16v0zM80 25q15 1 16 16q-1 15 -16 16q-15 -1 -16 -16q1 -15 16 -16v0zM16 -39q15 1 16 16q-1 15 -16 16q-15 -1 -16 -16q1 -15 16 -16v0z
M264 25v8v-8v8v184v0h136h16v16v0v24v0l-96 88v0v112v0v16v0h-16h-112v-16v0v-112v0l-96 -88v0v-24v0v-16v0h16h136v-184v0v-8v0h16v0zM264 233h-16h16h-152v17v0l91 83v0l5 5v0v7v0v112v0h96v0v-112v0v-7v0l5 -5v0l91 -83v0v-17v0h-136v0z" />
</svg>
