<?xml version="1.0" standalone="no"?>
<!DOCTYPE svg PUBLIC "-//W3C//DTD SVG 1.1//EN" "http://www.w3.org/Graphics/SVG/1.1/DTD/svg11.dtd" >
<svg xmlns="http://www.w3.org/2000/svg" xmlns:xlink="http://www.w3.org/1999/xlink" version="1.1" viewBox="-10 -40 596 512">
   <path fill="currentColor"
d="M16 1v-8v8v-8h-16v0v8v0v170v0v6v0v80v0v6v0v170v0v8v0h16v0v-8v0v-166v0l133 30v0q21 36 58 58q36 21 81 22q45 -1 81 -22q37 -22 58 -58l133 -30v0v166v0v8v0h16v0v-8v0v-170v0v-6v0v-80v0v-6v0v-170v0v-8v0h-16v0v8v0v166v0l-133 -30v0q-21 -36 -58 -58
q-36 -21 -81 -22q-45 1 -81 22q-37 22 -58 58l-133 30v0v-166v0zM436 156l124 27l-124 -27l124 27v68v0l-124 27v0q12 -28 12 -61t-12 -61v0zM140 278l-124 -27l124 27l-124 -27v-68v0l124 -27v0q-12 28 -12 61t12 61v0zM288 73q39 0 72 19v0v0q33 19 53 53q19 34 19 72
t-19 72q-20 34 -53 53t-72 19t-72 -19t-53 -53q-19 -34 -19 -72t19 -72q20 -34 53 -53t72 -19v0zM257 225q-3 -13 3 -24v0v0q7 -11 20 -15q13 -3 24 3q11 7 15 20q3 13 -3 24q-7 11 -20 15q-13 3 -24 -4q-11 -6 -15 -19v0zM260 256q9 6 20 8v49v0q-31 -3 -54 -23l34 -34v0z
M350 290q-23 20 -54 23v-49v0q11 -2 20 -8l34 34v0zM384 225q-3 31 -23 54l-34 -34v0q6 -9 8 -20h49v0zM335 209q-2 -11 -8 -20l34 -34v0q20 23 23 54h-49v0zM296 121q31 3 54 23l-34 34v0q-9 -6 -20 -8v-49v0zM280 170q-11 2 -20 8l-34 -34v0q23 -20 54 -23v49v0zM249 189
q-6 9 -8 20h-49v0q3 -31 23 -54l34 34v0zM249 245l-34 34l34 -34l-34 34q-20 -23 -23 -54h49v0q2 11 8 20v0zM288 329q30 0 56 -15v0v0q26 -15 41 -41t15 -56t-15 -56t-41 -41t-56 -15t-56 15t-41 41t-15 56t15 56t41 41t56 15v0z" />
</svg>
