<?xml version="1.0" standalone="no"?>
<!DOCTYPE svg PUBLIC "-//W3C//DTD SVG 1.1//EN" "http://www.w3.org/Graphics/SVG/1.1/DTD/svg11.dtd" >
<svg xmlns="http://www.w3.org/2000/svg" xmlns:xlink="http://www.w3.org/1999/xlink" version="1.1" viewBox="-10 -40 660 512">
   <path fill="currentColor"
d="M624 217q0 -48 -24 -88v0v0q-23 -40 -64 -64q-42 -24 -88 -24t-88 24q-41 24 -64 64q-24 40 -24 88t24 88q23 40 64 64q42 24 88 24t88 -24q41 -24 64 -64q24 -40 24 -88v0zM640 217q-2 82 -56 136v0v0q-54 54 -136 56q-64 -1 -112 -36q-49 -35 -69 -93l-84 -11v0l-1 2v0
l-43 42v0h93h8v8v0v64v0v8v0h-8h-232v-8v0v-64v0v-8v0h8h109l46 -47v0l-68 -9v0l-7 -1v0v-7v0v-64v0v-7v0l7 -1v0l68 -9v0l-46 -47v0h-109h-8v-8v0v-64v0v-8v0h8h232v8v0v64v0v8v0h-8h-93l43 42v0l1 2v0l84 -11v0q20 -58 69 -93q48 -35 112 -36q82 2 136 56t56 136v0z
M262 171l-158 21l158 -21l-158 21v50v0l158 22v0q-6 -23 -6 -47t6 -46v0zM16 105h208h-208h208v-48v0h-208v0v48v0zM16 329v48v-48v48h208v0v-48v0h-208v0zM448 281q36 -1 55 -32q18 -32 0 -64q-19 -31 -55 -32q-36 1 -55 32q-18 32 0 64q19 31 55 32v0zM448 137q45 1 69 40
q22 40 0 80q-24 39 -69 40q-45 -1 -69 -40q-22 -40 0 -80q24 -39 69 -40v0zM464 217q-1 -15 -16 -16q-15 1 -16 16q1 15 16 16q15 -1 16 -16v0zM416 217q0 -14 9 -23v0v0q9 -9 23 -9t23 9t9 23t-9 23t-23 9t-23 -9t-9 -23v0z" />
</svg>
