<?xml version="1.0" standalone="no"?>
<!DOCTYPE svg PUBLIC "-//W3C//DTD SVG 1.1//EN" "http://www.w3.org/Graphics/SVG/1.1/DTD/svg11.dtd" >
<svg xmlns="http://www.w3.org/2000/svg" xmlns:xlink="http://www.w3.org/1999/xlink" version="1.1" viewBox="-10 -40 586 512">
   <path fill="currentColor"
d="M105 223l7 -5l-7 5l7 -5v-9v0v-232v0h128v0v232v0v9v0l7 5v0q26 17 41 45q16 27 16 61q-1 54 -37 91q-37 36 -91 37q-54 -1 -91 -37q-36 -37 -37 -91q0 -34 16 -61q15 -28 41 -45v0zM256 -39h-16h16h-160v16v0v232v0q-29 20 -46 51q-18 31 -18 69q2 61 42 102
q41 40 102 42q61 -2 102 -42q40 -41 42 -102q0 -38 -18 -69q-17 -31 -46 -51v-232v0v-16v0zM128 329q1 -27 24 -42q24 -12 48 0q23 15 24 42q-1 27 -24 42q-24 12 -48 0q-23 -15 -24 -42v0zM240 329q-1 -25 -16 -43v0v0q-16 -17 -40 -20v-233v0v-8v0h-16v0v8v0v233v0
q-24 3 -40 20q-15 18 -16 43q1 27 19 45t45 19q27 -1 45 -19t19 -45v0zM450 -5l-80 80l80 -80l-80 80l12 12v0l66 -67v0v413v0v8v0h16v0v-8v0v-413v0l66 67v0l12 -12v0l-80 -80v0l-6 -5v0l-6 5v0z" />
</svg>
