<?xml version="1.0" standalone="no"?>
<!DOCTYPE svg PUBLIC "-//W3C//DTD SVG 1.1//EN" "http://www.w3.org/Graphics/SVG/1.1/DTD/svg11.dtd" >
<svg xmlns="http://www.w3.org/2000/svg" xmlns:xlink="http://www.w3.org/1999/xlink" version="1.1" viewBox="-10 -40 532 512">
   <path fill="currentColor"
d="M256 -23q-14 0 -23 9v0v0q-9 9 -9 23t9 23t23 9t23 -9t9 -23t-9 -23t-23 -9v0zM304 9q-1 27 -24 42q-24 12 -48 0q-23 -15 -24 -42q1 -27 24 -42q24 -12 48 0q23 15 24 42v0zM190 89h3h-3h132l3 3v0l99 124v0l5 6v0l-6 5v0l-38 30v0l-6 5v0l-5 -6v0l-46 -58v0v51v0h-16v0
v-73v0v-23v0l14 18v0l56 69v0l25 -20v0l-92 -115v0h-118v0l-91 115v0l25 20v0l55 -69v0l14 -18v0v23v0v73v0h-16v0v-51v0l-46 58v0l-5 6v0l-6 -5v0l-38 -30v0l-6 -5v0l5 -6v0l99 -124v0l3 -3v0zM472 89v8v-8v8v32v0h32h8v16v0h-8h-32v32v0v8v0h-16v0v-8v0v-32v0h-32h-8v-16
v0h8h32v-32v0v-8v0h16v0zM56 281v8v-8v8v32v0h32h8v16v0h-8h-32v32v0v8v0h-16v0v-8v0v-32v0h-32h-8v-16v0h8h32v-32v0v-8v0h16v0zM96 409h8h-8h320v8v0v48v0v8v0h-16v0v-8v0v-40v0h-288v0v40v0v8v0h-16v0v-8v0v-48v0v-8v0zM160 345h8h-8h192v16v0h-8h-184v-16v0zM168 281
h176h-176h184v16v0h-8h-184v-16v0h8v0z" />
</svg>
