<?xml version="1.0" standalone="no"?>
<!DOCTYPE svg PUBLIC "-//W3C//DTD SVG 1.1//EN" "http://www.w3.org/Graphics/SVG/1.1/DTD/svg11.dtd" >
<svg xmlns="http://www.w3.org/2000/svg" xmlns:xlink="http://www.w3.org/1999/xlink" version="1.1" viewBox="-10 -40 596 512">
   <path fill="currentColor"
d="M139 127q-2 -2 -2 -5q-2 -24 3 -46q-55 14 -88 36q-36 24 -36 50q0 19 20 37q20 19 57 34q77 31 195 32q118 -1 195 -32q37 -15 58 -34q19 -18 19 -37q0 -26 -36 -50q-33 -22 -87 -36q4 22 2 46q0 3 -2 5l-6 -6v0q8 7 6 6v0v0v0v0v0v0v0v0v0h-1v0q0 1 -1 2v0q-2 2 -7 5
q-8 6 -26 14q-35 19 -114 21q-79 -2 -114 -21q-18 -8 -26 -14q-5 -3 -7 -5v-1q-1 0 -1 -1h-1v0v0v0v0v0v0v0v0v0q-2 1 6 -6l-6 6v0zM431 59q63 14 102 39q41 26 43 64q-1 28 -24 49q-24 21 -63 37q-81 32 -201 33q-120 -1 -201 -33q-39 -16 -62 -37q-24 -21 -25 -49
q2 -37 44 -64q38 -25 101 -39q17 -45 55 -71q39 -26 88 -27q49 1 88 27q38 26 55 71v0zM288 -23q-59 1 -98 41v0v0q-40 39 -38 99q2 2 5 4q7 5 23 13q32 16 108 19q76 -3 108 -19q16 -8 23 -13q3 -2 5 -4q2 -60 -38 -99q-39 -40 -98 -41v0zM72 153l24 -24l-24 24l24 -24
l24 24v0l-24 24v0l-24 -24v0zM288 193l24 24l-24 -24l24 24l-24 24v0l-24 -24v0l24 -24v0zM456 153l24 -24l-24 24l24 -24l24 24v0l-24 24v0l-24 -24v0zM103 317l-80 144l80 -144l-80 144l-4 7v0l-14 -8v0l4 -7v0l80 -144v0l4 -7v0l14 8v0l-4 7v0zM487 309l80 144l-80 -144
l80 144l4 7v0l-14 8v0l-4 -7v0l-80 -144v0l-4 -7v0l14 -8v0l4 7v0z" />
</svg>
