<?xml version="1.0" standalone="no"?>
<!DOCTYPE svg PUBLIC "-//W3C//DTD SVG 1.1//EN" "http://www.w3.org/Graphics/SVG/1.1/DTD/svg11.dtd" >
<svg xmlns="http://www.w3.org/2000/svg" xmlns:xlink="http://www.w3.org/1999/xlink" version="1.1" viewBox="-10 -40 468 512">
   <path fill="currentColor"
d="M232 -31v-8v8v-8h-16v0v8v0v56v0h-136h-16v16v0v224v0v16v0h16h304v-16v0v-224v0v-16v0h-16h-136v-56v0zM80 41h288h-288h288v224v0h-288v0v-224v0zM32 89h-16h16h-16v128v0h16v0v-128v0zM432 89h-16h16h-16v128v0h16v0v-128v0zM160 145q-22 -2 -24 -24q2 -22 24 -24
q22 2 24 24q-2 22 -24 24v0zM120 121q1 23 20 35q20 10 40 0q19 -12 20 -35q-1 -23 -20 -35q-20 -10 -40 0q-19 12 -20 35v0zM312 121q-2 22 -24 24q-22 -2 -24 -24q2 -22 24 -24q22 2 24 24v0zM288 81q-23 1 -35 20q-10 20 0 40q12 19 35 20q23 -1 35 -20q10 -20 0 -40
q-12 -19 -35 -20v0zM232 193h-16h16h-16v48v0h16v0v-48v0zM22 457l38 -128l-38 128l38 -128h328v0l39 128v0h-59v0v-64v0v-16v0h-16h-272v16v0v64v0h-58v0zM431 473h17h-17h17l-5 -16v0l-43 -144v0h-352v0l-43 144v0l-5 16v0h17h414zM352 393v64v-64v64h-56v0v-64v0h56v0z
M280 393v64v-64v64h-48v0v-64v0h48v0zM216 393v64v-64v64h-48v0v-64v0h48v0zM152 393v64v-64v64h-56v0v-64v0h56v0zM152 193v48v-48v48h16v0v-48v0h-16v0zM280 193v48v-48v48h16v0v-48v0h-16v0z" />
</svg>
