<?xml version="1.0" standalone="no"?>
<!DOCTYPE svg PUBLIC "-//W3C//DTD SVG 1.1//EN" "http://www.w3.org/Graphics/SVG/1.1/DTD/svg11.dtd" >
<svg xmlns="http://www.w3.org/2000/svg" xmlns:xlink="http://www.w3.org/1999/xlink" version="1.1" viewBox="-10 -40 660 512">
   <path fill="currentColor"
d="M232 -39h-6h6h-6l-2 6v0l-50 218v0h16v0l48 -208v0h290v0q41 1 68 28t28 68q0 30 -16 53q-16 24 -42 35q-27 -33 -65 -52q-39 -20 -85 -20h-48h-16v16v0v148v0q8 -2 16 -3v-145v0h48v0q75 2 124 52q50 49 52 124v176v0h-108v0q-7 9 -15 16h123h16v-16v0v-176v0
q-1 -60 -32 -107q29 -13 46 -40q18 -27 18 -61q-1 -48 -33 -79q-31 -32 -79 -33h-296v0zM183 217h-16h16h-16l-37 160v0h-82v0l-48 48v0v32v0v16v0h16h208v-16v0v-64v0v-16v0h-16h-62l37 -160v0zM136 393v0v0v0h72v0v64v0h-192v0v-25v0l39 -39v0h81v0zM384 297q45 1 69 40
q22 40 0 80q-24 39 -69 40q-45 -1 -69 -40q-22 -40 0 -80q24 -39 69 -40v0zM384 473q26 0 48 -13v0v0q22 -13 35 -35q13 -23 13 -48t-13 -48q-13 -22 -35 -35t-48 -13t-48 13t-35 35q-13 23 -13 48t13 48q13 22 35 35t48 13v0zM368 377q1 -15 16 -16q15 1 16 16
q-1 15 -16 16q-15 -1 -16 -16v0zM416 377q0 -14 -9 -23v0v0q-9 -9 -23 -9t-23 9t-9 23t9 23t23 9t23 -9t9 -23v0z" />
</svg>
