<?xml version="1.0" standalone="no"?>
<!DOCTYPE svg PUBLIC "-//W3C//DTD SVG 1.1//EN" "http://www.w3.org/Graphics/SVG/1.1/DTD/svg11.dtd" >
<svg xmlns="http://www.w3.org/2000/svg" xmlns:xlink="http://www.w3.org/1999/xlink" version="1.1" viewBox="-10 -40 660 512">
   <path fill="currentColor"
d="M224 201q30 0 56 -15v0v0q26 -15 41 -41t15 -56t-15 -56t-41 -41t-56 -15t-56 15t-41 41t-15 56t15 56t41 41t56 15v0zM224 -39q35 0 64 17v0v0q29 17 47 47q17 30 17 64t-17 64q-18 30 -47 47t-64 17t-64 -17t-47 -47q-17 -30 -17 -64t17 -64q18 -30 47 -47t64 -17v0z
M76 281l-54 176l54 -176l-54 176h362v0v16v0h-367h-17l5 -16v0l59 -192v0h320v0v54v0l-12 -38v0h-296v0zM480 217v64v-64v64h32h128v16v0v160v0v16v0h-16h-208v-16v0v-160v0v-16v0h16h32v-64v0q1 -27 19 -45t45 -19q27 1 45 19t19 45v16v0h-16v0v-16v0q-1 -20 -14 -34
q-14 -13 -34 -14q-20 1 -34 14q-13 14 -14 34v0zM464 297h-32h32h-32v160v0h192v0v-160v0h-32h-128z" />
</svg>
