<?xml version="1.0" standalone="no"?>
<!DOCTYPE svg PUBLIC "-//W3C//DTD SVG 1.1//EN" "http://www.w3.org/Graphics/SVG/1.1/DTD/svg11.dtd" >
<svg xmlns="http://www.w3.org/2000/svg" xmlns:xlink="http://www.w3.org/1999/xlink" version="1.1" viewBox="-10 -40 526 512">
   <path fill="currentColor"
d="M410 -28l-2 7l2 -7l-2 7l-6 19v0q49 17 70 66l22 -7v0l8 -2v0l4 16v0l-8 2v0l-21 6v0v1v0q11 53 -21 94l14 13v0l5 6v0l-11 11v0l-6 -5v0l-12 -13v0q-22 21 -53 28q-21 5 -37 12l4 13v0l2 8v0l-15 4v0l-3 -8v0l-3 -11v0q-27 14 -43 30t-24 31l-2 4l19 9v0l8 3v0l-7 15v0
l-7 -4v0l-21 -8v0q-6 14 -8 29q-5 39 -31 66l13 12v0l6 6v0l-12 11v0l-6 -5v0l-13 -14v0q-34 27 -79 23q-8 0 -16 -2l-6 21v0l-3 8v0l-15 -5v0l2 -7v0l6 -22v0q-44 -19 -62 -63l-22 7v0l-8 2v0l-4 -15v0l8 -3v0l21 -6v0q-4 -17 -2 -36q3 -32 13 -64l-17 -7v0l-7 -3v0l6 -14
v0l7 3v0l17 6v0q12 -33 30 -63q7 -11 15 -23l-14 -11v0l-6 -5v0l10 -12v0l6 5v0l13 10v0q29 -38 74 -72l-11 -16v0l-4 -6v0l13 -9v0l5 7v0l10 15v0q38 -26 88 -45l-8 -19v0l-4 -7v0l15 -6v0l3 7v0l9 19v0q22 -7 47 -13q22 -5 44 -1l5 -20v0l3 -8v0l15 5v0zM240 339v0v0v0
q5 -30 20 -55q13 -23 43 -47t87 -38q39 -11 60 -43q20 -33 12 -73q-10 -39 -43 -59q-32 -21 -72 -13q-99 25 -160 73q-60 48 -91 102q-39 63 -48 134q-2 41 22 71q25 29 65 34q41 2 70 -22t34 -64v0h1zM240 153q-15 1 -16 16q1 15 16 16q15 -1 16 -16q-1 -15 -16 -16v0z
M272 169q0 14 -9 23v0v0q-9 9 -23 9t-23 -9t-9 -23t9 -23t23 -9t23 9t9 23v0zM160 233q27 1 42 24q12 24 0 48q-15 23 -42 24q-27 -1 -42 -24q-12 -24 0 -48q15 -23 42 -24v0zM192 281q0 -14 -9 -23v0v0q-9 -9 -23 -9t-23 9t-9 23t9 23t23 9t23 -9t9 -23v0z" />
</svg>
