<?xml version="1.0" standalone="no"?>
<!DOCTYPE svg PUBLIC "-//W3C//DTD SVG 1.1//EN" "http://www.w3.org/Graphics/SVG/1.1/DTD/svg11.dtd" >
<svg xmlns="http://www.w3.org/2000/svg" xmlns:xlink="http://www.w3.org/1999/xlink" version="1.1" viewBox="-10 -40 532 512">
   <path fill="currentColor"
d="M240 9q0 -14 -9 -23v0v0q-9 -9 -23 -9t-23 9t-9 23t9 23t23 9t23 -9t9 -23v0zM160 9q1 -27 24 -42q24 -12 48 0q23 15 24 42q-1 27 -24 42q-24 12 -48 0q-23 -15 -24 -42v0zM16 153h209h-209h209l4 16h-213v0v288v0h480v0v-288v0h-85v0l4 -16h81h16v16v0v288v0v16v0h-16
h-496v-16v0v-288v0v-16v0h16v0zM80 233h16h-16h352v16v0v128v0v16v0h-16h-336v-16v0v-128v0v-16v0zM96 377h320h-320h320v-128v0h-320v0v128v0zM384 9q15 -1 16 -16q-1 -15 -16 -16q-15 1 -16 16q1 15 16 16v0zM384 -39q14 0 23 9v0v0q9 9 9 23t-9 23t-23 9t-23 -9t-9 -23
t9 -23t23 -9v0zM368 137q-1 -27 -24 -42q-24 -12 -48 0q-23 15 -24 42q1 27 24 42q24 12 48 0q23 -15 24 -42v0zM256 137q1 -36 32 -55q32 -18 64 0q31 19 32 55q-1 36 -32 55q-32 18 -64 0q-31 -19 -32 -55v0z" />
</svg>
