<?xml version="1.0" standalone="no"?>
<!DOCTYPE svg PUBLIC "-//W3C//DTD SVG 1.1//EN" "http://www.w3.org/Graphics/SVG/1.1/DTD/svg11.dtd" >
<svg xmlns="http://www.w3.org/2000/svg" xmlns:xlink="http://www.w3.org/1999/xlink" version="1.1" viewBox="-10 -40 660 512">
   <path fill="currentColor"
d="M318 245v0v0v0q-18 -21 -9 -43q9 -23 37 -25h22h16v-16v0v-16v0v-16v0h-16h-22q-28 -2 -37 -25q-9 -22 9 -43l15 -15v0l12 -12v0l-12 -11v0l-5 -6v0l-6 -5v0l-11 -12v0l-11 12v0l-16 15v0q-21 18 -43 9q-23 -9 -25 -37v-22v0v-16v0h-16h-32v16v0v22v0q-2 28 -25 37
q-22 9 -43 -9l-15 -15v0l-12 -12v0l-11 12v0l-11 11v0l-12 11v0l12 12v0l15 15v0q21 23 11 44q-11 22 -39 24h-22h-16v16v0v16v0v16v0h16h22q28 2 37 25q9 22 -9 43l-15 16v0l-12 11v0l12 11v0l11 11v0l11 12v0l12 -12v0l15 -15v0q21 -18 43 -9q23 9 25 37v22v0v16v0h16h32
v-16v0v-22v0q2 -28 25 -37q22 -9 43 9l16 15v0l11 12v0l11 -12v0l11 -11v0l12 -11v0l-12 -11v0l-15 -16v0zM322 272l-11 11l11 -11l-11 11l-15 -15v0v0v0q-29 -25 -61 -13q-32 13 -35 52v22v0h-16v0v-22v0q-3 -39 -35 -52q-32 -12 -61 13l-15 15v0l-11 -11v0l15 -15v0
q25 -29 13 -61q-13 -32 -52 -35h-22v0v-16v0h22v0q38 -2 53 -33q15 -32 -14 -63l-15 -15v0l11 -11v0l15 15v0v0v0q29 25 61 13q32 -13 35 -52v-22v0h16v0v22v0q3 39 35 52q32 12 61 -13l15 -15v0l6 6v0l5 5v0l-15 15v0q-25 29 -13 61q13 32 52 35h22v0v16v0h-22v0
q-39 3 -52 35q-12 32 13 61v0v0v0v0v0v0l15 15v0zM480 297q15 1 16 16q-1 15 -16 16q-15 -1 -16 -16q1 -15 16 -16v0zM480 345q14 0 23 -9v0v0q9 -9 9 -23t-9 -23t-23 -9t-23 9t-9 23t9 23t23 9v0zM240 185q15 -1 16 -16q-1 -15 -16 -16q-15 1 -16 16q1 15 16 16v0zM160 145
q-22 -2 -24 -24q2 -22 24 -24q22 2 24 24q-2 22 -24 24v0zM120 121q1 23 20 35q20 10 40 0q19 -12 20 -35q-1 -23 -20 -35q-20 -10 -40 0q-19 12 -20 35v0zM368 329q36 -3 49 -33v0v0q13 -30 -11 -57q27 24 57 11t33 -49q2 33 29 47q14 8 31 6t31 -15q-24 27 -12 57
q13 30 49 33q-36 3 -49 33q-12 30 12 58q-28 -25 -58 -12t-33 49q-3 -36 -33 -49q-30 -12 -57 12q24 -28 11 -58t-49 -33v0zM480 185v16v-16v16q-2 25 -23 34t-40 -8l-11 -11v0l-23 23v0l11 11v0q17 19 8 40t-34 23h-16v0v32v0h16v0q25 2 34 23t-8 40l-11 12v0l23 22v0
l11 -11v0q19 -17 40 -8t23 34v16v0h32v0v-16v0q2 -25 23 -34t40 8l12 11v0l22 -23v0l-11 -11v0q-17 -19 -8 -40t34 -23h16v0v-32v0h-16v0q-25 -2 -34 -23t8 -40l11 -11v0l-22 -23v0l-12 11v0q-19 17 -40 8t-23 -34v-16v0h-32v0z" />
</svg>
