<?xml version="1.0" standalone="no"?>
<!DOCTYPE svg PUBLIC "-//W3C//DTD SVG 1.1//EN" "http://www.w3.org/Graphics/SVG/1.1/DTD/svg11.dtd" >
<svg xmlns="http://www.w3.org/2000/svg" xmlns:xlink="http://www.w3.org/1999/xlink" version="1.1" viewBox="-10 -40 468 512">
   <path fill="currentColor"
d="M217 -2l-211 432l211 -432l-211 432l-6 11v0h13h435v-16v0h-8h-414l205 -420v0l-14 -7v0zM218 139l-7 14l7 -14l-7 14q43 31 75 74l13 -8v0q-34 -47 -81 -80v0zM342 377h17h-17h17q-7 -63 -35 -117l-13 8v0q25 50 31 109v0z" />
</svg>
