<?xml version="1.0" standalone="no"?>
<!DOCTYPE svg PUBLIC "-//W3C//DTD SVG 1.1//EN" "http://www.w3.org/Graphics/SVG/1.1/DTD/svg11.dtd" >
<svg xmlns="http://www.w3.org/2000/svg" xmlns:xlink="http://www.w3.org/1999/xlink" version="1.1" viewBox="-10 -40 655 512">
   <path fill="currentColor"
d="M56 -39q-24 1 -40 16v0v0q-15 16 -16 40v400v0q1 24 16 40q16 15 40 16h384h8v-16v0h-8h-24v-80v0h24h8v-8v0v-152v0h-16v0v144v0h-376v0q-24 1 -40 17v-361v0q0 -17 12 -28q11 -12 28 -12h376v0v144v0h16v0v-152v0v-8v0h-8h-384zM400 377v80v-80v80h-344v0
q-17 0 -28 -12q-12 -11 -12 -28t12 -28q11 -12 28 -12h344v0zM526 59l-6 -5l6 5l-6 -5l-11 11v0l5 6v0l91 90v0h-341h-8v16v0h8h341l-91 90v0l-5 6v0l11 11v0l6 -5v0l104 -104v0l5 -6v0l-5 -6v0l-104 -104v0z" />
</svg>
