<?xml version="1.0" standalone="no"?>
<!DOCTYPE svg PUBLIC "-//W3C//DTD SVG 1.1//EN" "http://www.w3.org/Graphics/SVG/1.1/DTD/svg11.dtd" >
<svg xmlns="http://www.w3.org/2000/svg" xmlns:xlink="http://www.w3.org/1999/xlink" version="1.1" viewBox="-10 -40 660 512">
   <path fill="currentColor"
d="M292 -33l-4 7l4 -7l-4 7q5 -8 4 -7v0v0v0v0v0v0v1v0h1h1q1 1 3 2q1 1 2 1q7 4 19 12q24 16 56 48q31 31 55 78t27 109q11 -9 34 -21q23 -11 54 -12q2 -1 25 6t46 31t25 75q-2 71 -39 110q-37 38 -82 52q-45 15 -71 14q-17 0 -43 -6q-27 -5 -56 -20q6 -5 12 -11
q26 12 50 16q23 5 37 5q17 0 46 -7t60 -25q29 -17 49 -48t21 -80q-1 -34 -13 -53t-27 -28q-17 -10 -29 -13q-6 -1 -9 -2h-3q-36 2 -60 18q-12 7 -18 12l-4 4l-1 1v0h-1v0v0v0v0v0v0v0v0v0l-11 12v0l-11 -12v0v0v0v0v0v0v0v0v0v0v0h-1l-1 -1l-4 -4q-6 -5 -18 -12
q-11 -7 -24 -11q-10 -13 -21 -22q26 4 44 14t28 18q-3 -58 -26 -102q-22 -44 -52 -74t-54 -45q-7 -6 -13 -9q0 5 -1 12q-2 24 -10 63q-8 32 -23 69q-16 37 -42 73q26 -17 69 -20q2 -1 25 6t46 31t25 75q-2 71 -39 110q-37 38 -82 52q-45 15 -71 14q-26 1 -71 -14
q-45 -14 -82 -52q-37 -39 -39 -110q2 -55 25 -79t46 -29t25 -4q36 1 60 15q25 14 33 22l-3 -2v0q35 -39 54 -81q20 -43 28 -80q9 -37 11 -61q1 -11 1 -17v-3v-2v-1v0v-1v0v0v0v0v0v0v0v-13v0l12 6v0zM203 236v0v0v0v0v0v0v0v0v0l-11 12v0l-11 -12v0v0v0v0v0v0v0v0v0v0v0h-1
l-1 -1l-4 -4q-6 -5 -18 -12q-24 -16 -61 -18v0v0v0v0h-1h-2v0q-3 0 -9 1q-12 2 -28 11q-15 8 -27 27q-12 20 -13 57q1 49 21 80t49 48q31 18 60 25t46 7t46 -7t60 -25q29 -17 49 -48t21 -80q-1 -34 -13 -53t-27 -28q-17 -10 -29 -13q-6 -1 -9 -2h-3q-36 2 -60 18
q-12 7 -18 12l-4 4l-1 1v0h-1v0z" />
</svg>
