<?xml version="1.0" standalone="no"?>
<!DOCTYPE svg PUBLIC "-//W3C//DTD SVG 1.1//EN" "http://www.w3.org/Graphics/SVG/1.1/DTD/svg11.dtd" >
<svg xmlns="http://www.w3.org/2000/svg" xmlns:xlink="http://www.w3.org/1999/xlink" version="1.1" viewBox="-10 -40 532 512">
   <path fill="currentColor"
d="M256 -23q65 1 120 32v0v0q55 32 88 88q32 57 32 120t-32 120q-33 56 -88 88q-55 31 -120 32q-65 -1 -120 -32q-55 -32 -88 -88q-32 -57 -32 -120t32 -120q33 -56 88 -88q55 -31 120 -32v0zM256 473q70 -1 128 -34v0v0q58 -34 94 -94q34 -61 34 -128t-34 -128
q-36 -60 -94 -94q-58 -33 -128 -34q-70 1 -128 34q-58 34 -94 94q-34 61 -34 128t34 128q36 60 94 94q58 33 128 34v0zM207 85l-3 -5l3 5l-3 -5l-6 1v0l-72 16v0l-6 2v0v6v0v16v0v0v0q1 65 32 117t83 83t117 32h16h6l2 -6v0l16 -72v0l1 -6v0l-5 -3v0l-72 -40v0l-6 -3v0l-4 5
v0l-30 37v0q-43 -25 -68 -68l37 -30v0l5 -4v0l-3 -6v0l-40 -72v0zM136 121h-8h8h-8h8v0v-10v0l60 -13v0l34 61v0l-37 29v0l-5 4v0l3 6v0q29 55 84 84l6 3v0l4 -5v0l29 -37v0l61 34v0l-13 60v0h-10v0q-92 -2 -153 -63t-63 -153v0z" />
</svg>
