<?xml version="1.0" standalone="no"?>
<!DOCTYPE svg PUBLIC "-//W3C//DTD SVG 1.1//EN" "http://www.w3.org/Graphics/SVG/1.1/DTD/svg11.dtd" >
<svg xmlns="http://www.w3.org/2000/svg" xmlns:xlink="http://www.w3.org/1999/xlink" version="1.1" viewBox="-10 -40 532 512">
   <path fill="currentColor"
d="M256 457q65 -1 120 -32v0v0q55 -32 88 -88q32 -57 32 -120t-32 -120q-33 -56 -88 -88q-55 -31 -120 -32q-65 1 -120 32q-55 32 -88 88q-32 57 -32 120t32 120q33 56 88 88q55 31 120 32v0zM256 -39q70 1 128 34v0v0q58 34 94 94q34 61 34 128t-34 128q-36 60 -94 94
q-58 33 -128 34q-70 -1 -128 -34q-58 -34 -94 -94q-34 -61 -34 -128t34 -128q36 -60 94 -94q58 -33 128 -34v0zM305 85l3 -5l-3 5l3 -5l6 1v0l72 16v0l6 2v0v6v0v16v0v0v0q-1 65 -32 117t-83 83t-117 32h-16h-6l-2 -6v0l-16 -72v0l-1 -6v0l5 -3v0l72 -40v0l6 -3v0l4 5v0
l30 37v0q43 -25 68 -68l-37 -30v0l-5 -4v0l3 -6v0l40 -72v0zM376 121v-10v10v-10l-60 -13v0l-34 61v0l37 29v0l5 4v0l-3 6v0q-29 55 -84 84l-5 3v0l-5 -5v0l-29 -37v0l-61 34v0l13 60v0h10v0q92 -2 153 -63t63 -153v0v0z" />
</svg>
