<?xml version="1.0" standalone="no"?>
<!DOCTYPE svg PUBLIC "-//W3C//DTD SVG 1.1//EN" "http://www.w3.org/Graphics/SVG/1.1/DTD/svg11.dtd" >
<svg xmlns="http://www.w3.org/2000/svg" xmlns:xlink="http://www.w3.org/1999/xlink" version="1.1" viewBox="-10 -40 660 512">
   <path fill="currentColor"
d="M225 48q4 -38 31 -62v0v0q27 -24 65 -25q40 1 67 28q27 26 28 66q-1 61 -50 98l-32 24v0l302 201v0l4 3v0v4v0v80v0v8v0h-8h-632v-8v0v-80v0v-4v0l4 -3v0l311 -208v0l42 -30v0q42 -32 43 -85q-1 -33 -23 -55q-23 -22 -56 -23q-32 1 -54 21q-23 20 -26 52l-1 8v0l-1 8v0
l-16 -2v0l1 -8v0l1 -8v0zM320 187l-304 202l304 -202l-304 202v68v0h608v0v-68v0l-304 -202v0z" />
</svg>
