<?xml version="1.0" standalone="no"?>
<!DOCTYPE svg PUBLIC "-//W3C//DTD SVG 1.1//EN" "http://www.w3.org/Graphics/SVG/1.1/DTD/svg11.dtd" >
<svg xmlns="http://www.w3.org/2000/svg" xmlns:xlink="http://www.w3.org/1999/xlink" version="1.1" viewBox="-10 -40 660 512">
   <path fill="currentColor"
d="M16 -34l-6 -5l6 5l-6 -5l-10 13v0l6 5v0l618 489v0l6 5v0l10 -12v0l-6 -5v0l-618 -490v0zM467 425h-323h323h-451v-128v0q1 -42 24 -75q23 -32 61 -46l11 -3v0v-12v0v-8v0v-8v0l-15 -12v0q-1 10 -1 20v8v0q-43 16 -69 52t-27 84v128v0v16v0h16h472l-21 -16v0zM256 -7
q-43 0 -78 20l14 11v0q29 -15 64 -15q40 0 73 20q33 19 52 52l8 15v0l15 -9v0q19 -14 44 -14q34 1 56 23q23 23 24 57v36v0v12v0l12 4v0q37 10 60 39t24 69v52v0l16 13v0v-65v0q-1 -46 -27 -79q-27 -34 -69 -45v-36v0q-1 -41 -28 -68t-68 -28q-23 0 -42 10q-6 3 -11 6
q-4 -7 -9 -13q-22 -31 -56 -49q-33 -18 -74 -18v0z" />
</svg>
