<?xml version="1.0" standalone="no"?>
<!DOCTYPE svg PUBLIC "-//W3C//DTD SVG 1.1//EN" "http://www.w3.org/Graphics/SVG/1.1/DTD/svg11.dtd" >
<svg xmlns="http://www.w3.org/2000/svg" xmlns:xlink="http://www.w3.org/1999/xlink" version="1.1" viewBox="-10 -40 599 512">
   <path fill="currentColor"
d="M386 47l-5 -6l5 6l-5 -6l11 -11v0l6 5v0l176 176v0l5 6v0l-5 6v0l-176 176v0l-6 6v0l-11 -12v0l5 -6v0l171 -170v0l-171 -170v0zM190 47l-163 170l163 -170l-163 170l163 171v0l5 5v0l-11 11v0l-6 -5v0l-168 -176v0l-5 -6v0l5 -5v0l168 -176v0l6 -6v0l11 11v0l-5 6v0z
" />
</svg>
