<?xml version="1.0" standalone="no"?>
<!DOCTYPE svg PUBLIC "-//W3C//DTD SVG 1.1//EN" "http://www.w3.org/Graphics/SVG/1.1/DTD/svg11.dtd" >
<svg xmlns="http://www.w3.org/2000/svg" xmlns:xlink="http://www.w3.org/1999/xlink" version="1.1" viewBox="-10 -40 596 512">
   <path fill="currentColor"
d="M272 -23h32h-32h32v32v0h-32v0v-32v0zM256 -39v16v-16v16v32v0v16v0h16h48v-16v0v-32v0v-16v0h-16h-48zM80 41h32h-32h32v32v0h-32v0v-32v0zM64 25v16v-16v16v32v0v16v0h16h48v-16v0v-32v0v-16v0h-16h-48zM464 41h32h-32h32v32v0h-32v0v-32v0zM448 25v16v-16v16v32v0v16
v0h16h48v-16v0v-32v0v-16v0h-16h-48zM560 233v32v-32v32h-32v0v-32v0h32v0zM528 217h-16h16h-16v16v0v32v0v16v0h16h48v-16v0v-32v0v-16v0h-16h-32zM464 425h32h-32h32v32v0h-32v0v-32v0zM448 409v16v-16v16v32v0v16v0h16h48v-16v0v-32v0v-16v0h-16h-48zM112 425v32v-32v32
h-32v0v-32v0h32v0zM80 409h-16h16h-16v16v0v32v0v16v0h16h48v-16v0v-32v0v-16v0h-16h-32zM48 233v32v-32v32h-32v0v-32v0h32v0zM16 217h-16h16h-16v16v0v32v0v16v0h16h48v-16v0v-32v0v-16v0h-16h-32zM288 241h-144h144h-144q5 -58 45 -96q40 -39 99 -40q61 2 102 42
q40 41 42 102q-2 61 -42 102q-41 40 -102 42q-59 -1 -99 -40q-40 -38 -45 -96h144h8v-16v0h-8v0zM128 249q0 43 21 80v0v0q22 37 59 59q38 21 80 21t80 -21q37 -22 59 -59q21 -37 21 -80t-21 -80q-22 -37 -59 -59q-38 -21 -80 -21t-80 21q-37 22 -59 59q-21 37 -21 80v0z
" />
</svg>
