<?xml version="1.0" standalone="no"?>
<!DOCTYPE svg PUBLIC "-//W3C//DTD SVG 1.1//EN" "http://www.w3.org/Graphics/SVG/1.1/DTD/svg11.dtd" >
<svg xmlns="http://www.w3.org/2000/svg" xmlns:xlink="http://www.w3.org/1999/xlink" version="1.1" viewBox="-10 -40 596 512">
   <path fill="currentColor"
d="M272 -23h32h-32h32v32v0h-32v0v-32v0zM256 -39v16v-16v16v32v0v16v0h16h48v-16v0v-32v0v-16v0h-16h-48zM80 41h32h-32h32v32v0h-32v0v-32v0zM64 25v16v-16v16v32v0v16v0h16h48v-16v0v-32v0v-16v0h-16h-48zM464 41h32h-32h32v32v0h-32v0v-32v0zM448 25v16v-16v16v32v0v16
v0h16h48v-16v0v-32v0v-16v0h-16h-48zM560 233v32v-32v32h-32v0v-32v0h32v0zM528 217h-16h16h-16v16v0v32v0v16v0h16h48v-16v0v-32v0v-16v0h-16h-32zM464 425h32h-32h32v32v0h-32v0v-32v0zM448 409v16v-16v16v32v0v16v0h16h48v-16v0v-32v0v-16v0h-16h-48zM112 425v32v-32v32
h-32v0v-32v0h32v0zM80 409h-16h16h-16v16v0v32v0v16v0h16h48v-16v0v-32v0v-16v0h-16h-32zM48 233v32v-32v32h-32v0v-32v0h32v0zM16 217h-16h16h-16v16v0v32v0v16v0h16h48v-16v0v-32v0v-16v0h-16h-32zM282 255l102 101l-102 -101l102 101q-44 38 -100 37q-55 -1 -98 -42
q-42 -45 -42 -102t42 -102q45 -42 102 -42t102 42q41 43 42 98q1 56 -37 100l-101 -102v0l-6 -5v0l-11 11v0l5 6v0zM401 362q32 -31 44 -72v0v0q12 -41 1 -84q-12 -43 -42 -73t-73 -42q-43 -11 -84 1t-72 44q-32 31 -44 72t-1 84q12 43 42 73t73 42q43 11 84 -1t72 -44v0z
" />
</svg>
