<?xml version="1.0" standalone="no"?>
<!DOCTYPE svg PUBLIC "-//W3C//DTD SVG 1.1//EN" "http://www.w3.org/Graphics/SVG/1.1/DTD/svg11.dtd" >
<svg xmlns="http://www.w3.org/2000/svg" xmlns:xlink="http://www.w3.org/1999/xlink" version="1.1" viewBox="-10 -40 596 512">
   <path fill="currentColor"
d="M272 -23h32h-32h32v32v0h-32v0v-32v0zM256 -39v16v-16v16v32v0v16v0h16h48v-16v0v-32v0v-16v0h-16h-48zM80 41h32h-32h32v32v0h-32v0v-32v0zM64 25v16v-16v16v32v0v16v0h16h48v-16v0v-32v0v-16v0h-16h-48zM464 41h32h-32h32v32v0h-32v0v-32v0zM448 25v16v-16v16v32v0v16
v0h16h48v-16v0v-32v0v-16v0h-16h-48zM560 233v32v-32v32h-32v0v-32v0h32v0zM528 217h-16h16h-16v16v0v32v0v16v0h16h48v-16v0v-32v0v-16v0h-16h-32zM464 425h32h-32h32v32v0h-32v0v-32v0zM448 409v16v-16v16v32v0v16v0h16h48v-16v0v-32v0v-16v0h-16h-48zM112 425v32v-32v32
h-32v0v-32v0h32v0zM80 409h-16h16h-16v16v0v32v0v16v0h16h48v-16v0v-32v0v-16v0h-16h-32zM48 233v32v-32v32h-32v0v-32v0h32v0zM16 217h-16h16h-16v16v0v32v0v16v0h16h48v-16v0v-32v0v-16v0h-16h-32zM282 243l-101 102l101 -102l-101 102q-38 -44 -37 -100q1 -55 42 -98
q45 -42 102 -42t102 42q42 45 42 102t-42 102q-43 41 -98 42q-56 1 -100 -37l102 -101v0l5 -6v0l-11 -11v0l-6 5v0zM175 362q31 32 72 44v0v0q41 12 84 1q43 -12 73 -42t42 -73q11 -43 -1 -84t-44 -72q-31 -32 -72 -44t-84 -1q-43 12 -73 42t-42 73q-11 43 1 84t44 72v0z
" />
</svg>
