<?xml version="1.0" standalone="no"?>
<!DOCTYPE svg PUBLIC "-//W3C//DTD SVG 1.1//EN" "http://www.w3.org/Graphics/SVG/1.1/DTD/svg11.dtd" >
<svg xmlns="http://www.w3.org/2000/svg" xmlns:xlink="http://www.w3.org/1999/xlink" version="1.1" viewBox="-10 -40 404 512">
   <path fill="currentColor"
d="M320 -7h-16h16h-16v48v0h-112v0v16v0h112v0v130v0q-17 -30 -46 -48t-66 -18q-54 1 -91 37q-36 37 -37 91q1 54 37 91q37 36 91 37q37 0 66 -18t46 -48v66v0h16v0v-128v0v-192v0h32v0v-16v0h-32v0v-48v0zM80 249q0 -30 15 -56v0v0q15 -26 41 -41t56 -15t56 15t41 41t15 56
t-15 56t-41 41t-56 15t-56 -15t-41 -41t-15 -56v0zM384 441v-16v16v-16h-384v0v16v0h384v0z" />
</svg>
