<?xml version="1.0" standalone="no"?>
<!DOCTYPE svg PUBLIC "-//W3C//DTD SVG 1.1//EN" "http://www.w3.org/Graphics/SVG/1.1/DTD/svg11.dtd" >
<svg xmlns="http://www.w3.org/2000/svg" xmlns:xlink="http://www.w3.org/1999/xlink" version="1.1" viewBox="-10 -40 404 512">
   <path fill="currentColor"
d="M323 -7q-22 0 -40 12v0v0q-18 12 -27 33l-66 163v0h-158v0v16v0h151v0l-70 173v0q-16 33 -52 35h-53h-8v16v0h8h53q22 0 40 -12t27 -33l73 -179v0h151v0v-16v0h-145v0l64 -157v0q16 -33 52 -35h53h8v-16v0h-8h-53z" />
</svg>
