<?xml version="1.0" standalone="no"?>
<!DOCTYPE svg PUBLIC "-//W3C//DTD SVG 1.1//EN" "http://www.w3.org/Graphics/SVG/1.1/DTD/svg11.dtd" >
<svg xmlns="http://www.w3.org/2000/svg" xmlns:xlink="http://www.w3.org/1999/xlink" version="1.1" viewBox="-10 -40 532 512">
   <path fill="currentColor"
d="M224 -7l48 64l-48 -64l48 64h8h232v16v0v352v0v16v0h-16h-496v-16v0v-416v0v-16v0h16h208zM440 73v232v-232v232v17v0l-13 -11v0l-75 -60v0l-75 60v0l-13 11v0v-17v0v-232v0l-5 -6v0l-43 -58v0h-200v0v416v0h480v0v-352v0h-56v0zM424 73h-144h144h-144v215v0l67 -53v0
l5 -4v0l5 4v0l67 53v0v-215v0z" />
</svg>
