<?xml version="1.0" standalone="no"?>
<!DOCTYPE svg PUBLIC "-//W3C//DTD SVG 1.1//EN" "http://www.w3.org/Graphics/SVG/1.1/DTD/svg11.dtd" >
<svg xmlns="http://www.w3.org/2000/svg" xmlns:xlink="http://www.w3.org/1999/xlink" version="1.1" viewBox="-10 -40 532 512">
   <path fill="currentColor"
d="M224 -7l48 64l-48 -64l48 64h224h16v16v0v352v0v16v0h-16h-496v-16v0v-416v0v-16v0h16h208zM272 73h-8h8h-8l-5 -6v0l-43 -58v0h-200v0v416v0h480v0v-352v0h-224v0zM96 217v64v-64v64h64v0v-64v0h-64v0zM80 201h16h-16h96v16v0v64v0v16v0h-16h-80v-16v0v-64v0v-16v0z
M224 217v64v-64v64h64v0v-64v0h-64v0zM208 201h16h-16h96v16v0v64v0v16v0h-16h-80v-16v0v-64v0v-16v0zM416 217h-64h64h-64v64v0h64v0v-64v0zM352 201h64h-64h80v16v0v64v0v16v0h-16h-80v-16v0v-64v0v-16v0h16v0z" />
</svg>
