<?xml version="1.0" standalone="no"?>
<!DOCTYPE svg PUBLIC "-//W3C//DTD SVG 1.1//EN" "http://www.w3.org/Graphics/SVG/1.1/DTD/svg11.dtd" >
<svg xmlns="http://www.w3.org/2000/svg" xmlns:xlink="http://www.w3.org/1999/xlink" version="1.1" viewBox="-10 -40 468 512">
   <path fill="currentColor"
d="M51 6v38v-38v38h-38v0v-38v0h38v0zM13 -7h-13h13h-13v13v0v38v0v13v0h13h51v-13v0v-38v0v-13v0h-13h-38zM51 102v38v-38v38h-38v0v-38v0h38v0zM13 89h-13h13h-13v13v0v38v0v13v0h13h51v-13v0v-38v0v-13v0h-13h-38zM13 198h38h-38h38v38v0h-38v0v-38v0zM0 185v13v-13v13
v38v0v13v0h13h51v-13v0v-38v0v-13v0h-13h-51zM51 294v38v-38v38h-38v0v-38v0h38v0zM13 281h-13h13h-13v13v0v38v0v13v0h13h51v-13v0v-38v0v-13v0h-13h-38zM13 390h38h-38h38v38v0h-38v0v-38v0zM0 377v13v-13v13v38v0v13v0h13h51v-13v0v-38v0v-13v0h-13h-51zM147 6v38v-38v38
h-38v0v-38v0h38v0zM109 -7h-13h13h-13v13v0v38v0v13v0h13h51v-13v0v-38v0v-13v0h-13h-38zM109 102h38h-38h38v38v0h-38v0v-38v0zM96 89v13v-13v13v38v0v13v0h13h51v-13v0v-38v0v-13v0h-13h-51zM147 198v38v-38v38h-38v0v-38v0h38v0zM109 185h-13h13h-13v13v0v38v0v13v0h13
h51v-13v0v-38v0v-13v0h-13h-38zM109 294h38h-38h38v38v0h-38v0v-38v0zM96 281v13v-13v13v38v0v13v0h13h51v-13v0v-38v0v-13v0h-13h-51zM147 390v38v-38v38h-38v0v-38v0h38v0zM109 377h-13h13h-13v13v0v38v0v13v0h13h51v-13v0v-38v0v-13v0h-13h-38zM205 6h38h-38h38v38v0h-38
v0v-38v0zM192 -7v13v-13v13v38v0v13v0h13h51v-13v0v-38v0v-13v0h-13h-51zM243 102v38v-38v38h-38v0v-38v0h38v0zM205 89h-13h13h-13v13v0v38v0v13v0h13h51v-13v0v-38v0v-13v0h-13h-38zM205 198h38h-38h38v38v0h-38v0v-38v0zM192 185v13v-13v13v38v0v13v0h13h51v-13v0v-38v0
v-13v0h-13h-51zM243 294v38v-38v38h-38v0v-38v0h38v0zM205 281h-13h13h-13v13v0v38v0v13v0h13h51v-13v0v-38v0v-13v0h-13h-38zM205 390h38h-38h38v38v0h-38v0v-38v0zM192 377v13v-13v13v38v0v13v0h13h51v-13v0v-38v0v-13v0h-13h-51zM339 6v38v-38v38h-38v0v-38v0h38v0z
M301 -7h-13h13h-13v13v0v38v0v13v0h13h51v-13v0v-38v0v-13v0h-13h-38zM301 102h38h-38h38v38v0h-38v0v-38v0zM288 89v13v-13v13v38v0v13v0h13h51v-13v0v-38v0v-13v0h-13h-51zM339 198v38v-38v38h-38v0v-38v0h38v0zM301 185h-13h13h-13v13v0v38v0v13v0h13h51v-13v0v-38v0v-13
v0h-13h-38zM301 294h38h-38h38v38v0h-38v0v-38v0zM288 281v13v-13v13v38v0v13v0h13h51v-13v0v-38v0v-13v0h-13h-51zM339 390v38v-38v38h-38v0v-38v0h38v0zM301 377h-13h13h-13v13v0v38v0v13v0h13h51v-13v0v-38v0v-13v0h-13h-38zM397 6h38h-38h38v38v0h-38v0v-38v0zM384 -7
v13v-13v13v38v0v13v0h13h51v-13v0v-38v0v-13v0h-13h-51zM435 102v38v-38v38h-38v0v-38v0h38v0zM397 89h-13h13h-13v13v0v38v0v13v0h13h51v-13v0v-38v0v-13v0h-13h-38zM397 198h38h-38h38v38v0h-38v0v-38v0zM384 185v13v-13v13v38v0v13v0h13h51v-13v0v-38v0v-13v0h-13h-51z
M435 294v38v-38v38h-38v0v-38v0h38v0zM397 281h-13h13h-13v13v0v38v0v13v0h13h51v-13v0v-38v0v-13v0h-13h-38zM397 390h38h-38h38v38v0h-38v0v-38v0zM384 377v13v-13v13v38v0v13v0h13h51v-13v0v-38v0v-13v0h-13h-51z" />
</svg>
