<?xml version="1.0" standalone="no"?>
<!DOCTYPE svg PUBLIC "-//W3C//DTD SVG 1.1//EN" "http://www.w3.org/Graphics/SVG/1.1/DTD/svg11.dtd" >
<svg xmlns="http://www.w3.org/2000/svg" xmlns:xlink="http://www.w3.org/1999/xlink" version="1.1" viewBox="-10 -40 596 512">
   <path fill="currentColor"
d="M112 -7v8v-8v8v24v0h424h8v8v0v48v0h24h8v8v0v64v0v8v0h-8h-24v48v0v8v0h-8h-288l-16 64v0h56v0v-24v0v-8v0h16v0v8v0v32v0v32v0v8v0h-16v0v-8v0v-24v0h-60v0l-36 144v0h-143h-17l4 -16v0l52 -208v0q-38 -4 -62 -31q-25 -26 -26 -65q1 -41 28 -68t68 -28v-24v0v-8v0h16v0
zM16 121q1 34 23 57v0v0q23 22 57 23h432v0v-48v0v-8v0h8h24v-48v0h-24h-8v-8v0v-48v0h-432v0q-34 1 -57 23q-22 23 -23 57v0zM232 217h-127h127h-127l-52 208v0h127v0l52 -208v0zM80 105v32v-32v32h384v0v-32v0h-384v0zM64 89h16h-16h416v16v0v32v0v16v0h-16h-400v-16v0
v-32v0v-16v0z" />
</svg>
