<?xml version="1.0" standalone="no"?>
<!DOCTYPE svg PUBLIC "-//W3C//DTD SVG 1.1//EN" "http://www.w3.org/Graphics/SVG/1.1/DTD/svg11.dtd" >
<svg xmlns="http://www.w3.org/2000/svg" xmlns:xlink="http://www.w3.org/1999/xlink" version="1.1" viewBox="-10 -40 532 512">
   <path fill="currentColor"
d="M0 89v-8v8v-8h8h239l59 -69v0l2 -3v0h4h54q37 0 68 18t50 51l10 18v0q18 31 18 67v142v0q-1 44 -30 74q-30 29 -74 30h-16h-144v-8v0v-56v0h-24h-8v-8v0v-64v0h-24h-8v-8v0v-80v0h-176h-8v-8v0v-88v0zM268 81h76h-76h84v16v0h-8h-328v72v0h176h8v8v0v80v0h24h8v8v0v64v0
h24h8v8v0v56v0h40h104q37 -1 62 -26t26 -62v-142v0q0 -32 -16 -59l-10 -18v0q-17 -29 -44 -45q-28 -16 -60 -16h-50v0l-48 56v0z" />
</svg>
