<?xml version="1.0" standalone="no"?>
<!DOCTYPE svg PUBLIC "-//W3C//DTD SVG 1.1//EN" "http://www.w3.org/Graphics/SVG/1.1/DTD/svg11.dtd" >
<svg xmlns="http://www.w3.org/2000/svg" xmlns:xlink="http://www.w3.org/1999/xlink" version="1.1" viewBox="-10 -40 596 512">
   <path fill="currentColor"
d="M560 9v416v-416v416h-544v0v-416v0h544v0zM16 -7h-16h16h-16v16v0v416v0v16v0h16h560v-16v0v-416v0v-16v0h-16h-544zM320 121v8v-8v8v176v0v8v0h8h56q41 -1 68 -28t28 -68q-1 -41 -28 -68t-68 -28h-56h-8zM384 137q34 1 57 23v0v0q22 23 23 57q-1 34 -23 57
q-23 22 -57 23h-48v0v-160v0h48v0zM128 129v-8v8v-8h-16v0v8v0v88v0v88v0v8v0h16v0v-8v0v-80v0h128v0v80v0v8v0h16v0v-8v0v-88v0v-88v0v-8v0h-16v0v8v0v80v0h-128v0v-80v0z" />
</svg>
