<?xml version="1.0" standalone="no"?>
<!DOCTYPE svg PUBLIC "-//W3C//DTD SVG 1.1//EN" "http://www.w3.org/Graphics/SVG/1.1/DTD/svg11.dtd" >
<svg xmlns="http://www.w3.org/2000/svg" xmlns:xlink="http://www.w3.org/1999/xlink" version="1.1" viewBox="-10 -40 593 512">
   <path fill="currentColor"
d="M288 -33l5 4l-5 -4l5 4l280 240v0l-10 12v0l-51 -43v0v285v0v8v0h-8h-440v-8v0v-285v0l-51 43v0l-10 -12v0l280 -240v0l5 -4v0zM288 -12l-208 178l208 -178l-208 178v291v0h416v0v-291v0l-208 -178v0zM288 233q27 -1 42 -24q12 -24 0 -48q-15 -23 -42 -24q-27 1 -42 24
q-12 24 0 48q15 23 42 24v0zM288 121q36 1 55 32q18 32 0 64q-19 31 -55 32q-36 -1 -55 -32q-18 -32 0 -64q19 -31 55 -32v0zM220 297l-22 64l22 -64l-22 64h180v0l-21 -64v0h-137v0zM368 281l27 80l-27 -80l27 80l5 16v0h-17h-207l5 -16v0l27 -80v0h160v0z" />
</svg>
