<?xml version="1.0" standalone="no"?>
<!DOCTYPE svg PUBLIC "-//W3C//DTD SVG 1.1//EN" "http://www.w3.org/Graphics/SVG/1.1/DTD/svg11.dtd" >
<svg xmlns="http://www.w3.org/2000/svg" xmlns:xlink="http://www.w3.org/1999/xlink" version="1.1" viewBox="-10 -40 593 512">
   <path fill="currentColor"
d="M293 -29l-5 -4l5 4l-5 -4l-5 4v0l-280 240v0l10 12v0l51 -43v0v285v0v8v0h8h440v-8v0v-285v0l51 43v0l10 -12v0l-61 -52v0v-158v0v-8v0h-8h-120v8v0v48v0l-91 -78v0zM496 9v136v-136v136l-96 -83v0v-53v0h96v0zM496 166v291v-291v291h-416v0v-291v0l208 -178v0l208 178v0
zM280 202q-18 -17 -42 -17h-3v0q-25 1 -42 17q-16 17 -17 42q0 25 18 43l83 80v0l11 10v0l11 -11v0l83 -79v0q18 -18 18 -43q-1 -25 -17 -42q-17 -16 -42 -17h-2v0q-25 0 -43 17l-8 7v0l-8 -7v0zM277 221l11 11l-11 -11l11 11l11 -11v0l8 -7v0q13 -13 31 -13h3v0q18 0 30 13
q13 12 13 30t-13 31l-83 80v0l-83 -80v0q-13 -13 -13 -31t13 -30q12 -13 30 -13h3v0q18 0 31 13l8 7v0z" />
</svg>
