<?xml version="1.0" standalone="no"?>
<!DOCTYPE svg PUBLIC "-//W3C//DTD SVG 1.1//EN" "http://www.w3.org/Graphics/SVG/1.1/DTD/svg11.dtd" >
<svg xmlns="http://www.w3.org/2000/svg" xmlns:xlink="http://www.w3.org/1999/xlink" version="1.1" viewBox="-10 -40 660 512">
   <path fill="currentColor"
d="M16 -34l-6 -5l6 5l-6 -5l-10 13v0l6 5v0l618 489v0l6 5v0l10 -12v0l-6 -5v0l-618 -490v0zM467 425h-280h280h-280l124 -123v0l-13 -10v0l-10 10v0l-86 -87v0l-11 -8v0l-5 4v0l-106 107v0v-199v0l-16 -12v0v318v0v16v0h16h408l-21 -16v0zM560 -7h-407h407h-407l20 16v0
h387v0v245v0l-106 -107v0l-6 -5v0l-6 5v0l-41 42v0l12 10v0l35 -35v0l112 112v0v39v0l16 12v0v-318v0v-16v0h-16v0zM80 340l112 -112l-112 112l112 -112l85 85v0l-112 112v0h-85v0v-85v0z" />
</svg>
