<?xml version="1.0" standalone="no"?>
<!DOCTYPE svg PUBLIC "-//W3C//DTD SVG 1.1//EN" "http://www.w3.org/Graphics/SVG/1.1/DTD/svg11.dtd" >
<svg xmlns="http://www.w3.org/2000/svg" xmlns:xlink="http://www.w3.org/1999/xlink" version="1.1" viewBox="-10 -40 660 512">
   <path fill="currentColor"
d="M624 41v352v-352v352h-448v0v-352v0h448v0zM176 25h-16h16h-16v16v0v352v0v16v0h16h464v-16v0v-352v0v-16v0h-16h-448zM272 297v32v-32v32h-32v0v-32v0h32v0zM240 281h-16h16h-16v16v0v32v0v16v0h16h48v-16v0v-32v0v-16v0h-16h-32zM336 297h128h-128h128v32v0h-128v0v-32
v0zM320 281v16v-16v16v32v0v16v0h16h144v-16v0v-32v0v-16v0h-16h-144zM272 201v32v-32v32h-32v0v-32v0h32v0zM240 185h-16h16h-16v16v0v32v0v16v0h16h48v-16v0v-32v0v-16v0h-16h-32zM336 201h32h-32h32v32v0h-32v0v-32v0zM320 185v16v-16v16v32v0v16v0h16h48v-16v0v-32v0
v-16v0h-16h-48zM464 201v32v-32v32h-32v0v-32v0h32v0zM432 185h-16h16h-16v16v0v32v0v16v0h16h48v-16v0v-32v0v-16v0h-16h-32zM528 201h32h-32h32v32v0h-32v0v-32v0zM512 185v16v-16v16v32v0v16v0h16h48v-16v0v-32v0v-16v0h-16h-48zM560 297v32v-32v32h-32v0v-32v0h32v0z
M528 281h-16h16h-16v16v0v32v0v16v0h16h48v-16v0v-32v0v-16v0h-16h-32zM240 105h32h-32h32v32v0h-32v0v-32v0zM224 89v16v-16v16v32v0v16v0h16h48v-16v0v-32v0v-16v0h-16h-48zM368 105v32v-32v32h-32v0v-32v0h32v0zM336 89h-16h16h-16v16v0v32v0v16v0h16h48v-16v0v-32v0v-16
v0h-16h-32zM432 105h32h-32h32v32v0h-32v0v-32v0zM416 89v16v-16v16v32v0v16v0h16h48v-16v0v-32v0v-16v0h-16h-48zM560 105v32v-32v32h-32v0v-32v0h32v0zM528 89h-16h16h-16v16v0v32v0v16v0h16h48v-16v0v-32v0v-16v0h-16h-32zM105 135l6 -6l-6 6l6 -6l-11 -11v0l-6 5v0
l-88 88v0l-6 6v0l6 6v0l88 88v0l6 5v0l11 -11v0l-6 -6v0l-82 -82v0l82 -82v0z" />
</svg>
