<?xml version="1.0" standalone="no"?>
<!DOCTYPE svg PUBLIC "-//W3C//DTD SVG 1.1//EN" "http://www.w3.org/Graphics/SVG/1.1/DTD/svg11.dtd" >
<svg xmlns="http://www.w3.org/2000/svg" xmlns:xlink="http://www.w3.org/1999/xlink" version="1.1" viewBox="-10 -40 660 512">
   <path fill="currentColor"
d="M512 393q54 -1 91 -37v0v0q36 -37 37 -91q-1 -54 -37 -91q-37 -36 -91 -37h-24v0v16v0h24v0q48 1 79 33q32 31 33 79q-1 48 -33 79q-31 32 -79 33h-192v0q-48 -1 -79 -33q-32 -31 -33 -79q1 -48 33 -79q31 -32 79 -33h56v0v-16v0h-56v0q-54 1 -91 37q-36 37 -37 91
q1 54 37 91q37 36 91 37h192v0zM128 41q-54 1 -91 37v0v0q-36 37 -37 91q1 54 37 91q37 36 91 37h24v0v-16v0h-24v0q-48 -1 -79 -33q-32 -31 -33 -79q1 -48 33 -79q31 -32 79 -33h192v0q48 1 79 33q32 31 33 79q-1 48 -33 79q-31 32 -79 33h-56v0v16v0h56v0q54 -1 91 -37
q36 -37 37 -91q-1 -54 -37 -91q-37 -36 -91 -37h-192v0z" />
</svg>
