<?xml version="1.0" standalone="no"?>
<!DOCTYPE svg PUBLIC "-//W3C//DTD SVG 1.1//EN" "http://www.w3.org/Graphics/SVG/1.1/DTD/svg11.dtd" >
<svg xmlns="http://www.w3.org/2000/svg" xmlns:xlink="http://www.w3.org/1999/xlink" version="1.1" viewBox="-10 -40 468 512">
   <path fill="currentColor"
d="M16 89h416h-416h416v368v0h-416v0v-368v0zM16 73v-96v96v-96h416v0v96v0h-416v0zM448 81v-8v8v-8v-96v0v-16v0h-16h-432v16v0v96v0v8v0v8v0v368v0v16v0h16h432v-16v0v-368v0v-8v0zM104 169h-8h8h-8v16v0h8h248v-16v0h-8h-240zM104 265h-8h8h-8v16v0h8h248v-16v0h-8h-240z
M104 361h-8h8h-8v16v0h8h152v-16v0h-8h-144z" />
</svg>
