<?xml version="1.0" standalone="no"?>
<!DOCTYPE svg PUBLIC "-//W3C//DTD SVG 1.1//EN" "http://www.w3.org/Graphics/SVG/1.1/DTD/svg11.dtd" >
<svg xmlns="http://www.w3.org/2000/svg" xmlns:xlink="http://www.w3.org/1999/xlink" version="1.1" viewBox="-10 -40 532 512">
   <path fill="currentColor"
d="M160 377h-16h16h-160v-16v0v-384v0v-16v0h16h496v16v0v384v0v16v0h-16h-192l-128 85v0l-16 11v0v-19v0v-61v0v-16v0zM160 361h16h-16h16v16v0v66v0l119 -79v0l4 -3v0h5h192v-384v0h-480v0v384v0h144v0zM214 103l-67 66l67 -66l-67 66l67 66v0l5 6v0l-11 11v0l-6 -5v0
l-72 -72v0l-5 -6v0l5 -6v0l72 -72v0l6 -6v0l11 12v0l-5 6v0zM310 91l72 72l-72 -72l72 72l5 6v0l-5 6v0l-72 72v0l-6 6v0l-11 -12v0l5 -6v0l67 -66v0l-67 -66v0l-5 -6v0l11 -11v0l6 5v0z" />
</svg>
