<?xml version="1.0" standalone="no"?>
<!DOCTYPE svg PUBLIC "-//W3C//DTD SVG 1.1//EN" "http://www.w3.org/Graphics/SVG/1.1/DTD/svg11.dtd" >
<svg xmlns="http://www.w3.org/2000/svg" xmlns:xlink="http://www.w3.org/1999/xlink" version="1.1" viewBox="-10 -40 532 512">
   <path fill="currentColor"
d="M160 377h-16h16h-160v-16v0v-384v0v-16v0h16h496v16v0v384v0v16v0h-16h-192l-128 85v0l-16 11v0v-19v0v-61v0v-16v0zM160 361h16h-16h16v16v0v66v0l119 -79v0l4 -3v0h5h192v-384v0h-480v0v384v0h144v0zM168 97q1 -24 16 -40v0v0q16 -15 40 -16h56v0q27 1 45 19t19 45
q-1 34 -29 53l-51 34v0v25v0v8v0h-16v0v-8v0v-29v0v-5v0l4 -2v0l55 -36v0q20 -15 21 -40q-1 -21 -14 -34q-13 -14 -34 -14h-56v0q-17 0 -28 12q-12 11 -12 28v6v0h-16v0v-6v0zM240 249h32h-32h32v32v0h-32v0v-32v0z" />
</svg>
