<?xml version="1.0" standalone="no"?>
<!DOCTYPE svg PUBLIC "-//W3C//DTD SVG 1.1//EN" "http://www.w3.org/Graphics/SVG/1.1/DTD/svg11.dtd" >
<svg xmlns="http://www.w3.org/2000/svg" xmlns:xlink="http://www.w3.org/1999/xlink" version="1.1" viewBox="-10 -40 661 512">
   <path fill="currentColor"
d="M256 -23q63 1 114 29v0v0q52 28 85 76l38 39v0q-29 -72 -92 -115q-63 -44 -145 -45q-72 1 -129 35q-58 34 -92 92q-34 57 -35 129q1 72 35 129q34 58 92 92q57 34 129 35q51 0 95 -18q-7 -6 -13 -12q-38 14 -82 14q-67 -1 -121 -33t-86 -86t-33 -121q1 -67 33 -121
t86 -86t121 -33v0zM384 105v-16v16v-16h-16h-48v16v0v64v0v16v0h14v0q4 -6 9 -12l2 -2l2 -2h-11v0v-64v0h32v0v40v0q8 -8 16 -15v-25v0zM144 105h32h-32h32v64v0h-32v0v-64v0zM128 89v16v-16v16v64v0v16v0h16h48v-16v0v-64v0v-16v0h-16h-48zM240 105h32h-32h32v64v0h-32v0
v-64v0zM240 89h-16h16h-16v16v0v64v0v16v0h16h48v-16v0v-64v0v-16v0h-16h-32zM501 174l-53 -53l53 53l-53 -53q-23 14 -52 42q-30 28 -52 67q-23 38 -24 83q2 68 47 113t113 47q68 -2 113 -47t47 -113q1 -21 -19 -66q-21 -44 -77 -94l-21 21v0l-11 11v0l-11 -11v0zM576 384
q-2 -36 -25 -67v0v0q-23 -30 -46 -49v0v0q-23 -18 -25 -19q-2 1 -25 19q-23 19 -46 49q-23 31 -25 67q0 27 16 49q-29 -20 -47 -51q-17 -31 -17 -69q0 -30 13 -57q12 -28 32 -52q34 -41 65 -62l55 55v0l11 11v0l11 -11v0l22 -22v0q47 45 64 83q16 39 15 55q0 38 -17 69
q-18 31 -47 51q16 -22 16 -49v0zM480 457q-35 -1 -57 -22v0v0q-22 -21 -23 -51q1 -22 13 -43t31 -40q17 -18 31 -28q3 -2 5 -4q2 2 5 4q14 10 32 28q18 19 30 40t13 43q-1 30 -23 51t-57 22v0z" />
</svg>
