<?xml version="1.0" standalone="no"?>
<!DOCTYPE svg PUBLIC "-//W3C//DTD SVG 1.1//EN" "http://www.w3.org/Graphics/SVG/1.1/DTD/svg11.dtd" >
<svg xmlns="http://www.w3.org/2000/svg" xmlns:xlink="http://www.w3.org/1999/xlink" version="1.1" viewBox="-10 -40 468 512">
   <path fill="currentColor"
d="M432 9v416v-416v416h-416v0v-416v0h416v0zM16 -7h-16h16h-16v16v0v416v0v16v0h16h432v-16v0v-416v0v-16v0h-16h-416zM80 73v8v-8v8v272v0v8v0h8h280v-8v0v-272v0v-8v0h-8h-144v8v0v97v0q-30 8 -32 39q0 17 12 28q11 12 28 12t28 -12q12 -11 12 -28q-2 -31 -32 -39v-89v0
h120v0v256v0h-256v0v-256v0h56h8v-16v0h-8h-72zM224 241q-22 -2 -24 -24q2 -22 24 -24q22 2 24 24q-2 22 -24 24v0z" />
</svg>
