<?xml version="1.0" standalone="no"?>
<!DOCTYPE svg PUBLIC "-//W3C//DTD SVG 1.1//EN" "http://www.w3.org/Graphics/SVG/1.1/DTD/svg11.dtd" >
<svg xmlns="http://www.w3.org/2000/svg" xmlns:xlink="http://www.w3.org/1999/xlink" version="1.1" viewBox="-10 -40 404 512">
   <path fill="currentColor"
d="M0 -39h8h-8h384v8v0v496v0v8v0h-8h-376v-8v0v-496v0v-8v0zM16 444l166 -227l-166 227l166 -227l-166 -226v0v453v0zM26 457h332h-332h332l-166 -226v0l-166 226v0zM202 217l166 227l-166 -227l166 227v-453v0l-166 226v0zM358 -23h-332h332h-332l166 227v0l166 -227v0z
" />
</svg>
