<?xml version="1.0" standalone="no"?>
<!DOCTYPE svg PUBLIC "-//W3C//DTD SVG 1.1//EN" "http://www.w3.org/Graphics/SVG/1.1/DTD/svg11.dtd" >
<svg xmlns="http://www.w3.org/2000/svg" xmlns:xlink="http://www.w3.org/1999/xlink" version="1.1" viewBox="-10 -40 660 512">
   <path fill="currentColor"
d="M352 41h-88h88h-88v80v0h120v0l64 32v0l160 -32v0l32 32v0l-208 224v0h-48h-288v-16v0v-55v0l-96 -41v0v-128v0v-16v0h16h232v-80v0h-88v0v-16v0h192v0v16v0zM96 137h-80h80h-80v117v0l80 35v0v-152v0zM446 170l-5 -3l5 3l-5 -3l-61 -30v0h-268v0v159v0v17v0v48v0h272h41
l193 -208v0l-15 -15v0l-152 31v0l-5 1v0zM624 361q0 -7 -6 -22q-7 -15 -16 -30q-5 -9 -10 -16v0v0q-5 7 -10 16q-9 15 -16 30q-6 15 -6 22q0 14 9 23t23 9q15 0 23 -8q8 -6 9 -24v0zM544 361q1 -18 14 -42v0v0q13 -24 24 -40q9 -13 10 -14q1 1 10 14q11 16 24 40t14 42
q-1 24 -14 36q-14 12 -34 12q-20 -1 -34 -14q-13 -14 -14 -34v0z" />
</svg>
