<?xml version="1.0" standalone="no"?>
<!DOCTYPE svg PUBLIC "-//W3C//DTD SVG 1.1//EN" "http://www.w3.org/Graphics/SVG/1.1/DTD/svg11.dtd" >
<svg xmlns="http://www.w3.org/2000/svg" xmlns:xlink="http://www.w3.org/1999/xlink" version="1.1" viewBox="-10 -40 660 512">
   <path fill="currentColor"
d="M304 -23h-224h224h-224v256v0h224v0v-256v0zM80 -39h224h-224h240v16v0v256v0v16v0h-16h-240v-16v0v-256v0v-16v0h16v0zM560 73h-160h160h-160v160v0h160v0v-160v0zM400 57h160h-160h176v16v0v160v0v16v0h-16h-176v-16v0v-160v0v-16v0h16v0zM0 313h8h-8h640v16v0h-8h-72
v128v0h72h8v16v0h-8h-632v-16v0h8h72v-128v0h-72h-8v-16v0zM96 457h216h-216h216v-128v0h-216v0v128v0zM328 457h216h-216h216v-128v0h-216v0v128v0z" />
</svg>
