<?xml version="1.0" standalone="no"?>
<!DOCTYPE svg PUBLIC "-//W3C//DTD SVG 1.1//EN" "http://www.w3.org/Graphics/SVG/1.1/DTD/svg11.dtd" >
<svg xmlns="http://www.w3.org/2000/svg" xmlns:xlink="http://www.w3.org/1999/xlink" version="1.1" viewBox="-10 -40 660 512">
   <path fill="currentColor"
d="M323 311l-107 108l107 -108l-107 108l-130 32v0l33 -130v0l95 -96v0l-12 -10v0l-98 98v0l-36 142v0l-4 18v0l18 -4v0l142 -36v0l112 -112v0l-13 -10v0zM445 -28l-141 141l141 -141l-141 141l13 10v0l61 -61v0l97 97v0l-49 50v0l12 10v0l127 -127v0l11 -11v0l-11 -11v0
l-98 -98v0l-11 -11v0l-11 11v0zM486 148l-97 -97l97 97l-97 -97l67 -67v0l97 97v0l-67 67v0zM16 -34l-6 -5l6 5l-6 -5l-10 13v0l6 5v0l618 489v0l6 5v0l10 -12v0l-6 -5v0l-618 -490v0z" />
</svg>
