<?xml version="1.0" standalone="no"?>
<!DOCTYPE svg PUBLIC "-//W3C//DTD SVG 1.1//EN" "http://www.w3.org/Graphics/SVG/1.1/DTD/svg11.dtd" >
<svg xmlns="http://www.w3.org/2000/svg" xmlns:xlink="http://www.w3.org/1999/xlink" version="1.1" viewBox="-10 -40 655 512">
   <path fill="currentColor"
d="M120 17q1 -23 20 -35q20 -10 40 0q19 12 20 35q-1 23 -20 35q-20 10 -40 0q-19 -12 -20 -35v0zM216 17q-1 -32 -28 -48q-28 -16 -56 0q-27 16 -28 48q1 32 28 48q28 16 56 0q27 -16 28 -48v0zM101 89h-5h5h-5l-2 5v0l-85 176v0l-4 7v0l15 7v0l3 -7v0l83 -172v0h108v0
l83 172v0l3 7v0l15 -7v0l-4 -7v0l-85 -176v0l-2 -5v0h-5h-118zM104 201h-16h16h-16v8v0v256v0v8v0h8h56v-8v0v-152v0h16v0v152v0v8v0h8h56v-8v0v-256v0v-8v0h-16v0v8v0v248v0h-32v0v-152v0v-8v0h-8h-40v8v0v152v0h-32v0v-248v0v-8v0zM440 17q1 -23 20 -35q20 -10 40 0
q19 12 20 35q-1 23 -20 35q-20 10 -40 0q-19 -12 -20 -35v0zM536 17q-1 -32 -28 -48q-28 -16 -56 0q-27 16 -28 48q1 32 28 48q28 16 56 0q27 -16 28 -48v0zM421 89h-5h5h-5l-2 5v0l-85 176v0l-4 7v0l15 7v0l3 -7v0l83 -172v0h108v0l83 172v0l3 7v0l15 -7v0l-4 -7v0
l-85 -176v0l-2 -5v0h-5h-118zM424 201h-16h16h-16v8v0v256v0v8v0h8h56v-8v0v-152v0h16v0v152v0v8v0h8h56v-8v0v-256v0v-8v0h-16v0v8v0v248v0h-32v0v-152v0v-8v0h-8h-40v8v0v152v0h-32v0v-248v0v-8v0z" />
</svg>
