<?xml version="1.0" standalone="no"?>
<!DOCTYPE svg PUBLIC "-//W3C//DTD SVG 1.1//EN" "http://www.w3.org/Graphics/SVG/1.1/DTD/svg11.dtd" >
<svg xmlns="http://www.w3.org/2000/svg" xmlns:xlink="http://www.w3.org/1999/xlink" version="1.1" viewBox="-10 -40 404 512">
   <path fill="currentColor"
d="M320 293l12 84l-12 -84l12 84h20h32v16v0v32v0v16v0h-16h-92l-4 -27v0l-12 -85v0h-100v0q-27 -1 -45 -19t-19 -45v-112v0v-16v0v-16v0h16h80v16v0v16v0h16h80v16v0v32v0v16v0h-16h-80v16v0v16v0v16v0h16h108l4 28v0zM352 393h-20h20h-34l-2 -14v0l-12 -84v0l-2 -14v0h-14
h-112v-16v0v-48v0v-16v0h16h80v-32v0h-16h-80v-16v0v-16v0h-16h-48v16v0v112v0q1 20 14 34q14 13 34 14h100h14l2 14v0l12 84v0l2 14v0h14h64v-32v0h-16v0zM176 41q0 -14 -9 -23v0v0q-9 -9 -23 -9t-23 9t-9 23t9 23t23 9t23 -9t9 -23v0zM96 41q1 -27 24 -42q24 -12 48 0
q23 15 24 42q-1 27 -24 42q-24 12 -48 0q-23 -15 -24 -42v0zM16 97v296v-296v296h200h8v16v0h-8h-216v-8v0v-304v0v-8v0h16v0v8v0z" />
</svg>
