<?xml version="1.0" standalone="no"?>
<!DOCTYPE svg PUBLIC "-//W3C//DTD SVG 1.1//EN" "http://www.w3.org/Graphics/SVG/1.1/DTD/svg11.dtd" >
<svg xmlns="http://www.w3.org/2000/svg" xmlns:xlink="http://www.w3.org/1999/xlink" version="1.1" viewBox="-10 -40 660 512">
   <path fill="currentColor"
d="M104 -39h144h-144h152v16v0h-8h-125l168 168v0h58v0l157 -158v0l6 -5v0l11 11v0l-5 6v0l-160 160v0l-3 2v0h-3h-67l-3 -2v0l-170 -171v0v125v0v8v0h-16v0v-8v0v-144v0v-8v0h8v0zM416 425v-80v80v-80q-96 -31 -192 0v80v0l-160 48v0l-64 -128v0q19 -25 63 -59
q43 -33 108 -58q66 -26 149 -27q83 1 149 27q65 25 108 58q44 34 63 59l-64 128v0l-160 -48v0zM208 345v-11v11v-11l11 -4v0q101 -33 202 0l11 4v0v11v0v68v0l136 41v0l53 -107v0q-21 -25 -63 -55q-41 -30 -102 -52q-60 -22 -136 -23q-76 1 -136 23q-61 22 -102 52
q-42 30 -63 55l53 107v0l136 -41v0v-68v0z" />
</svg>
