<?xml version="1.0" standalone="no"?>
<!DOCTYPE svg PUBLIC "-//W3C//DTD SVG 1.1//EN" "http://www.w3.org/Graphics/SVG/1.1/DTD/svg11.dtd" >
<svg xmlns="http://www.w3.org/2000/svg" xmlns:xlink="http://www.w3.org/1999/xlink" version="1.1" viewBox="-20 0 542 512">
   <path fill="currentColor"
d="M-10 -39h10h-10h141l3 2v0l248 248v0l5 6v0h117h8v16v0h-8h-247l-241 62v0v76v0l241 86v0h247h8v16v0h-8h-251l-248 -88v0l-5 -2v0v-6v0v-88v0v-6v0l6 -2v0l49 -12v0l-63 -298v0l-2 -10v0zM125 -23h-115h115h-115l60 288v0l184 -48v0h1h110l-240 -240v0zM200 329h176
h-176h184v16v0h-8h-184v-16v0h8v0z" />
</svg>
