<?xml version="1.0" standalone="no"?>
<!DOCTYPE svg PUBLIC "-//W3C//DTD SVG 1.1//EN" "http://www.w3.org/Graphics/SVG/1.1/DTD/svg11.dtd" >
<svg xmlns="http://www.w3.org/2000/svg" xmlns:xlink="http://www.w3.org/1999/xlink" version="1.1" viewBox="-10 -40 660 512">
   <path fill="currentColor"
d="M496 -23q35 0 64 17v0v0q29 17 47 47q17 30 17 64t-17 64q-18 30 -47 47t-64 17t-64 -17t-47 -47q-17 -30 -17 -64t17 -64q18 -30 47 -47t64 -17v0zM496 249q39 0 72 -19v0v0q33 -19 53 -53q19 -34 19 -72t-19 -72q-20 -34 -53 -53t-72 -19t-72 19t-53 53q-19 34 -19 72
t19 72q20 34 53 53t72 19v0zM504 25h-16h16h-16v8v0v72v0v8v0h8h64v-16v0h-8h-48v-64v0v-8v0zM512 297q0 -8 -1 -17q-7 1 -15 1h-1v0q1 8 1 16q-1 43 -18 74t-40 50q-6 5 -11 9q5 -17 5 -37q-1 -54 -37 -91q-37 -36 -91 -37h-80h-16v16v0v80v0h-10v0l-174 -160v0l174 -160v0
h10v0v80v0v16v0h16h99q-2 -8 -2 -16h-81h-16v-16v0v-64v0v-16v0h-16h-16l-180 165v0l-12 11v0l12 11v0l180 165v0h16h16v-16v0v-64v0v-16v0h16h64q48 1 79 33q32 31 33 79q-1 32 -13 53q-16 26 -19 27q2 0 31 -16q31 -17 63 -56q31 -39 34 -104v0z" />
</svg>
