<?xml version="1.0" standalone="no"?>
<!DOCTYPE svg PUBLIC "-//W3C//DTD SVG 1.1//EN" "http://www.w3.org/Graphics/SVG/1.1/DTD/svg11.dtd" >
<svg xmlns="http://www.w3.org/2000/svg" xmlns:xlink="http://www.w3.org/1999/xlink" version="1.1" viewBox="-10 -40 660 512">
   <path fill="currentColor"
d="M80 25q1 -27 24 -42q24 -12 48 0q23 15 24 42q-1 27 -24 42q-24 12 -48 0q-23 -15 -24 -42v0zM192 25q-1 -36 -32 -55q-32 -18 -64 0q-31 19 -32 55q1 36 32 55q32 18 64 0q31 -19 32 -55v0zM41 297l6 -160l-6 160l6 -160h162v0l6 160v0h-23h-151zM136 313v152v-152v152
v8v0h8h56v-8v0v-152v0h16h16l-1 -16v0l-7 -176v0h-192v0l-7 176v0l-1 16v0h16h16v152v0v8v0h8h56v-8v0v-152v0h16v0zM184 313v144v-144v144h-32v0v-144v0h32v0zM72 313h32h-32h32v144v0h-32v0v-144v0zM320 -39h-16h16h-16v8v0v496v0v8v0h16v0v-8v0v-496v0v-8v0zM512 -23
q27 1 42 24q12 24 0 48q-15 23 -42 24q-27 -1 -42 -24q-12 -24 0 -48q15 -23 42 -24v0zM512 89q36 -1 55 -32q18 -32 0 -64q-19 -31 -55 -32q-36 1 -55 32q-18 32 0 64q19 31 55 32v0zM460 137h104h-104h104l55 192v0h-43h-171l55 -192v0zM504 345h16h-16h16v120v0v8v0h8h56
v-8v0v-120v0h39h17l-5 -16v0l-59 -208v0h-128v0l-59 208v0l-5 16v0h17h39v120v0v8v0h8h56v-8v0v-120v0zM568 457h-32h32h-32v-112v0h32v0v112v0zM488 345v112v-112v112h-32v0v-112v0h32v0z" />
</svg>
