<?xml version="1.0" standalone="no"?>
<!DOCTYPE svg PUBLIC "-//W3C//DTD SVG 1.1//EN" "http://www.w3.org/Graphics/SVG/1.1/DTD/svg11.dtd" >
<svg xmlns="http://www.w3.org/2000/svg" xmlns:xlink="http://www.w3.org/1999/xlink" version="1.1" viewBox="-10 -40 468 512">
   <path fill="currentColor"
d="M432 377v-400v400v-400h-217v0l-119 119v0v281v0h336v0zM99 70l109 -109l-109 109l109 -109h224h16v16v0v400v0v16v0h-16h-352v-16v0v-288v0l19 -19v0v0v0zM248 33v8v-8v8v64v0v8v0h-16v0v-8v0v-64v0v-8v0h16v0zM312 33v8v-8v8v64v0v8v0h-16v0v-8v0v-64v0v-8v0h16v0z
M376 33v8v-8v8v64v0v8v0h-16v0v-8v0v-64v0v-8v0h16v0zM0 169l48 -48l-48 48l48 -48v23v0l-32 32v0v281v0h336v0v-32v0h16v0v32v0v16v0h-16h-352v-16v0v-288v0z" />
</svg>
