<?xml version="1.0" standalone="no"?>
<!DOCTYPE svg PUBLIC "-//W3C//DTD SVG 1.1//EN" "http://www.w3.org/Graphics/SVG/1.1/DTD/svg11.dtd" >
<svg xmlns="http://www.w3.org/2000/svg" xmlns:xlink="http://www.w3.org/1999/xlink" version="1.1" viewBox="-10 -40 660 512">
   <path fill="currentColor"
d="M16 -31v-8v8v-8h-16v0v8v0v168v0v8v0v8v0v240v0v8v0v8v0v56v0v8v0h16v0v-8v0v-56v0h608v0v56v0v8v0h16v0v-8v0v-56v0v-8v0v-8v0v-240v0v-8v0v-8v0v-168v0v-8v0h-16v0v8v0v168v0h-608v0v-168v0zM16 153h608h-608h608v240v0h-608v0v-240v0z" />
</svg>
