<?xml version="1.0" standalone="no"?>
<!DOCTYPE svg PUBLIC "-//W3C//DTD SVG 1.1//EN" "http://www.w3.org/Graphics/SVG/1.1/DTD/svg11.dtd" >
<svg xmlns="http://www.w3.org/2000/svg" xmlns:xlink="http://www.w3.org/1999/xlink" version="1.1" viewBox="-10 -40 404 512">
   <path fill="currentColor"
d="M144 -39h8h-8h96v8v0v31v0q53 17 86 60t34 101v24v0h16h8v16v0h-8h-376v-16v0h8h16v-24v0q1 -58 34 -101q33 -44 86 -60v-31v0v-8v0zM344 161q-1 -54 -32 -94v0v0q-32 -40 -82 -53l-6 -2v0v-6v0v-29v0h-64v0v29v0v6v0l-6 2v0q-50 13 -82 53q-31 40 -32 94v24v0h304v0v-24
v0zM242 434q-2 3 -2 7q1 15 16 16v0v0q15 -1 16 -16q0 -4 -2 -7l-14 -25v0l-14 25v0zM228 426l19 -33l-19 33l19 -33l9 -16v0l9 16v0l19 33v0q4 7 4 15q0 14 -9 23t-23 9v0v0q-14 0 -23 -9t-9 -23q0 -8 4 -15v0zM320 281l-14 25l14 -25l-14 25q-2 3 -2 7q1 15 16 16v0v0
q15 -1 16 -16q0 -4 -2 -7l-14 -25v0zM311 265l9 -16l-9 16l9 -16l9 16v0l19 33v0q4 7 4 15q0 14 -9 23t-23 9v0v0q-14 0 -23 -9t-9 -23q0 -8 4 -15l19 -33v0zM114 434q-2 3 -2 7q1 15 16 16v0v0q15 -1 16 -16q0 -4 -2 -7l-14 -25v0l-14 25v0zM100 426l19 -33l-19 33l19 -33
l9 -16v0l9 16v0l19 33v0q4 7 4 15q0 14 -9 23t-23 9v0v0q-14 0 -23 -9t-9 -23q0 -8 4 -15v0zM192 281l-14 25l14 -25l-14 25q-2 3 -2 7q1 15 16 16v0v0q15 -1 16 -16q0 -4 -2 -7l-14 -25v0zM183 265l9 -16l-9 16l9 -16l9 16v0l19 33v0q4 7 4 15q0 14 -9 23t-23 9v0v0
q-14 0 -23 -9t-9 -23q0 -8 4 -15l19 -33v0zM50 306q-2 3 -2 7q1 15 16 16v0v0q15 -1 16 -16q0 -4 -2 -7l-14 -25v0l-14 25v0zM36 298l19 -33l-19 33l19 -33l9 -16v0l9 16v0l19 33v0q4 7 4 15q0 14 -9 23t-23 9v0v0q-14 0 -23 -9t-9 -23q0 -8 4 -15v0z" />
</svg>
