<?xml version="1.0" standalone="no"?>
<!DOCTYPE svg PUBLIC "-//W3C//DTD SVG 1.1//EN" "http://www.w3.org/Graphics/SVG/1.1/DTD/svg11.dtd" >
<svg xmlns="http://www.w3.org/2000/svg" xmlns:xlink="http://www.w3.org/1999/xlink" version="1.1" viewBox="-10 -40 532 512">
   <path fill="currentColor"
d="M16 9v416v-416v416h272v0v-416v0h-272v0zM496 9h-192h192h-192v416v0h192v0v-416v0zM496 -7h16h-16h16v16v0v416v0v16v0h-16h-496v-16v0v-416v0v-16v0h16h480zM352 57h96h-96h96v16v0h-96v0v-16v0zM448 121v16v-16v16h-96v0v-16v0h96v0zM352 185h96h-96h96v16v0h-96v0
v-16v0z" />
</svg>
