<?xml version="1.0" standalone="no"?>
<!DOCTYPE svg PUBLIC "-//W3C//DTD SVG 1.1//EN" "http://www.w3.org/Graphics/SVG/1.1/DTD/svg11.dtd" >
<svg xmlns="http://www.w3.org/2000/svg" xmlns:xlink="http://www.w3.org/1999/xlink" version="1.1" viewBox="-10 -40 468 512">
   <path fill="currentColor"
d="M16 9v416v-416v416h416v0v-416v0h-416v0zM0 -7h16h-16h448v16v0v416v0v16v0h-16h-432v-16v0v-416v0v-16v0zM224 89q41 1 68 28v0v0q27 27 28 68v64v0q-1 41 -28 68t-68 28q-41 -1 -68 -28t-28 -68v-64v0q1 -41 28 -68t68 -28v0zM144 185v64v-64v64q1 34 23 57
q23 22 57 23q34 -1 57 -23q22 -23 23 -57v-64v0q-1 -34 -23 -57q-23 -22 -57 -23q-34 1 -57 23q-22 23 -23 57v0z" />
</svg>
