<?xml version="1.0" standalone="no"?>
<!DOCTYPE svg PUBLIC "-//W3C//DTD SVG 1.1//EN" "http://www.w3.org/Graphics/SVG/1.1/DTD/svg11.dtd" >
<svg xmlns="http://www.w3.org/2000/svg" xmlns:xlink="http://www.w3.org/1999/xlink" version="1.1" viewBox="-10 -40 468 512">
   <path fill="currentColor"
d="M16 9v416v-416v416h416v0v-416v0h-416v0zM0 -7h16h-16h448v16v0v416v0v16v0h-16h-432v-16v0v-416v0v-16v0zM261 89h24h-24h24l-74 65v0q7 -1 13 -1q41 1 68 28t28 68q-1 41 -28 68t-68 28q-41 -1 -68 -28t-28 -68v0v0q0 -25 12 -46q8 -15 21 -26l100 -88v0zM224 169
q-45 1 -69 40q-22 40 0 80q24 39 69 40q45 -1 69 -40q22 -40 0 -80q-24 -39 -69 -40v0z" />
</svg>
