<?xml version="1.0" standalone="no"?>
<!DOCTYPE svg PUBLIC "-//W3C//DTD SVG 1.1//EN" "http://www.w3.org/Graphics/SVG/1.1/DTD/svg11.dtd" >
<svg xmlns="http://www.w3.org/2000/svg" xmlns:xlink="http://www.w3.org/1999/xlink" version="1.1" viewBox="-10 -40 468 512">
   <path fill="currentColor"
d="M432 425v-416v416v-416h-416v0v416v0h416v0zM448 441h-16h16h-448v-16v0v-416v0v-16v0h16h432v16v0v416v0v16v0zM312 313h-144h144h-152v-16v0h8h125l-163 -162v0l-5 -6v0l11 -11v0l6 5v0l162 163v0v-125v0v-8v0h16v0v8v0v144v0v8v0h-8v0z" />
</svg>
