<?xml version="1.0" standalone="no"?>
<!DOCTYPE svg PUBLIC "-//W3C//DTD SVG 1.1//EN" "http://www.w3.org/Graphics/SVG/1.1/DTD/svg11.dtd" >
<svg xmlns="http://www.w3.org/2000/svg" xmlns:xlink="http://www.w3.org/1999/xlink" version="1.1" viewBox="-10 -40 468 512">
   <path fill="currentColor"
d="M432 425v-416v416v-416h-416v0v416v0h416v0zM448 441h-16h16h-448v-16v0v-416v0v-16v0h16h432v16v0v416v0v16v0zM163 294l26 -26l-26 26l26 -26l11 -11v0l-11 -11v0l-74 -74v0l-11 -11v0l11 -11v0l42 -42v0l11 -11v0l11 11v0l74 74v0l11 11v0l11 -11v0l26 -26v0l11 -11v0
l11 11v0l13 13v0v144v0v16v0h-16h-144l-13 -13v0l-11 -11v0l11 -11v0zM211 246l12 11l-12 -11l12 11l-12 11v0l-36 37v0l8 8v0h137v0v-137v0l-8 -8v0l-37 36v0l-11 12v0l-11 -12v0l-85 -84v0l-41 41v0l84 85v0z" />
</svg>
