<?xml version="1.0" standalone="no"?>
<!DOCTYPE svg PUBLIC "-//W3C//DTD SVG 1.1//EN" "http://www.w3.org/Graphics/SVG/1.1/DTD/svg11.dtd" >
<svg xmlns="http://www.w3.org/2000/svg" xmlns:xlink="http://www.w3.org/1999/xlink" version="1.1" viewBox="-10 -40 468 512">
   <path fill="currentColor"
d="M432 9h-416h416h-416v416v0h416v0v-416v0zM448 -7v16v-16v16v416v0v16v0h-16h-432v-16v0v-416v0v-16v0h16h432zM144 201v32v-32v32h-32v0v-32v0h32v0zM208 201h32h-32h32v32v0h-32v0v-32v0zM336 201v32v-32v32h-32v0v-32v0h32v0z" />
</svg>
