<?xml version="1.0" standalone="no"?>
<!DOCTYPE svg PUBLIC "-//W3C//DTD SVG 1.1//EN" "http://www.w3.org/Graphics/SVG/1.1/DTD/svg11.dtd" >
<svg xmlns="http://www.w3.org/2000/svg" xmlns:xlink="http://www.w3.org/1999/xlink" version="1.1" viewBox="-10 -40 468 512">
   <path fill="currentColor"
d="M16 9v416v-416v416h416v0v-416v0h-416v0zM0 -7h16h-16h448v16v0v416v0v16v0h-16h-432v-16v0v-416v0v-16v0zM128 89h16h-16h16v8v0v144v0l158 -152v0h24v0l-112 107v0h1v0l106 149v0h-19v0l-100 -138v0l-58 56v0v74v0v8v0h-16v0v-8v0v-77v0v-163v0v-8v0z" />
</svg>
