<?xml version="1.0" standalone="no"?>
<!DOCTYPE svg PUBLIC "-//W3C//DTD SVG 1.1//EN" "http://www.w3.org/Graphics/SVG/1.1/DTD/svg11.dtd" >
<svg xmlns="http://www.w3.org/2000/svg" xmlns:xlink="http://www.w3.org/1999/xlink" version="1.1" viewBox="-10 -40 468 512">
   <path fill="currentColor"
d="M16 9v416v-416v416h416v0v-416v0h-416v0zM0 -7h16h-16h448v16v0v416v0v16v0h-16h-432v-16v0v-416v0v-16v0zM145 145q-3 15 2 25q5 9 17 17q24 14 62 22l1 1v0h1q37 8 65 24q15 9 22 23q8 15 4 35q-8 33 -42 45q-32 12 -76 6v0v0q-15 -3 -34 -8t-32 -9l-8 -2v0l5 -16v0
l8 3v0q13 4 31 9q19 5 32 7q41 6 69 -5q27 -10 31 -33q3 -15 -2 -25q-5 -9 -16 -17q-25 -14 -63 -23h-1v0v0q-37 -8 -66 -24q-14 -9 -22 -24q-7 -14 -4 -34q8 -34 42 -46q33 -11 77 -5q7 1 18 3q11 3 18 4l8 2v0l-4 16v0l-8 -2v0q-7 -2 -18 -4q-10 -2 -17 -3q-41 -6 -69 5
q-26 10 -31 33v0z" />
</svg>
