<?xml version="1.0" standalone="no"?>
<!DOCTYPE svg PUBLIC "-//W3C//DTD SVG 1.1//EN" "http://www.w3.org/Graphics/SVG/1.1/DTD/svg11.dtd" >
<svg xmlns="http://www.w3.org/2000/svg" xmlns:xlink="http://www.w3.org/1999/xlink" version="1.1" viewBox="-10 -40 532 512">
   <path fill="currentColor"
d="M256 -39h-8h8h-8v8v0v112v0v8v0h16v0v-8v0v-104v0q65 3 117 35q53 33 83 86q31 53 32 119q-1 67 -33 121t-86 86t-121 33q-67 -1 -121 -33t-86 -86t-33 -121q0 -50 19 -93q18 -44 51 -77l-11 -11v0q-35 35 -55 81q-20 47 -20 100q1 72 35 129q34 58 92 92q57 34 129 35
q72 -1 129 -35q58 -34 92 -92q34 -57 35 -129q-1 -72 -35 -129q-34 -58 -92 -92q-57 -34 -129 -35v0zM166 115l-6 -5l6 5l-6 -5l-11 11v0l5 6v0l96 96v0l6 5v0l11 -11v0l-5 -6v0l-96 -96v0z" />
</svg>
