<?xml version="1.0" standalone="no"?>
<!DOCTYPE svg PUBLIC "-//W3C//DTD SVG 1.1//EN" "http://www.w3.org/Graphics/SVG/1.1/DTD/svg11.dtd" >
<svg xmlns="http://www.w3.org/2000/svg" xmlns:xlink="http://www.w3.org/1999/xlink" version="1.1" viewBox="-10 -40 468 512">
   <path fill="currentColor"
d="M160 -39h128h-128h132l3 4v0l37 60v0h116v0v16v0h-448v0v-16v0h116v0l37 -60v0l3 -4v0h4v0zM314 25l-30 -48l30 48l-30 -48h-120v0l-30 48v0h180v0zM32 465v-392v392v-392h16v0v384v0h352v0v-384v0h16v0v392v0v8v0h-8h-376v-8v0zM326 191l-128 128l128 -128l-128 128
l-6 5v0l-6 -5v0l-64 -64v0l-5 -6v0l11 -11v0l6 5v0l58 59v0l122 -123v0l6 -5v0l11 11v0l-5 6v0z" />
</svg>
