<?xml version="1.0" standalone="no"?>
<!DOCTYPE svg PUBLIC "-//W3C//DTD SVG 1.1//EN" "http://www.w3.org/Graphics/SVG/1.1/DTD/svg11.dtd" >
<svg xmlns="http://www.w3.org/2000/svg" xmlns:xlink="http://www.w3.org/1999/xlink" version="1.1" viewBox="-10 -40 596 512">
   <path fill="currentColor"
d="M160 -39h128h-128h132l3 4v0l37 60v0h116v0v16v0h-448v0v-16v0h116v0l37 -60v0l3 -4v0h4v0zM314 25l-30 -48l30 48l-30 -48h-120v0l-30 48v0h180v0zM32 465v-392v392v-392h16v0v384v0h263v0q9 9 20 16h-291h-8v-8v0zM312 200v-79v79v-79v-8v0h16v0v8v0v66v0q-8 6 -16 13
v0zM416 154l-16 2v-83v0h16v0v81v0zM136 121v256v-256v256v8v0h-16v0v-8v0v-256v0v-8v0h16v0v8v0zM232 121v256v-256v256v8v0h-16v0v-8v0v-256v0v-8v0h16v0v8v0zM432 457q35 0 64 -17v0v0q29 -17 47 -47q17 -30 17 -64t-17 -64q-18 -30 -47 -47t-64 -17t-64 17t-47 47
q-17 30 -17 64t17 64q18 30 47 47t64 17v0zM432 185q39 0 72 19v0v0q33 19 53 53q19 34 19 72t-19 72q-20 34 -53 53t-72 19t-72 -19t-53 -53q-19 -34 -19 -72t19 -72q20 -34 53 -53t72 -19v0zM440 249v8v-8v8v64v0h48h8v16v0h-8h-64v-8v0v-72v0v-8v0h16v0z" />
</svg>
