<?xml version="1.0" standalone="no"?>
<!DOCTYPE svg PUBLIC "-//W3C//DTD SVG 1.1//EN" "http://www.w3.org/Graphics/SVG/1.1/DTD/svg11.dtd" >
<svg xmlns="http://www.w3.org/2000/svg" xmlns:xlink="http://www.w3.org/1999/xlink" version="1.1" viewBox="-10 -40 468 512">
   <path fill="currentColor"
d="M160 -39h-4h4h-4l-3 4v0l-37 60v0h-116v0v16v0h448v0v-16v0h-116v0l-37 -60v0l-3 -4v0h-4h-128zM314 25h-180h180h-180l30 -48v0h120v0l30 48v0zM24 73v1v-1v1l40 392v0l1 7v0h7h311l1 -7v0l40 -392v0v-1v0h-16v0l-39 384v0h-290v0l-39 -384v0h-16v0zM154 168l-11 11
l11 -11l-11 11l5 6v0l65 64v0l-65 65v0l-6 5v0l12 12v0l5 -6v0l65 -65v0l65 65v0l5 6v0l12 -12v0l-6 -5v0l-65 -65v0l65 -65v0l6 -5v0l-12 -12v0l-5 6v0l-65 65v0l-65 -65v0l-5 -6v1z" />
</svg>
