<?xml version="1.0" standalone="no"?>
<!DOCTYPE svg PUBLIC "-//W3C//DTD SVG 1.1//EN" "http://www.w3.org/Graphics/SVG/1.1/DTD/svg11.dtd" >
<svg xmlns="http://www.w3.org/2000/svg" xmlns:xlink="http://www.w3.org/1999/xlink" version="1.1" viewBox="-10 -40 660 512">
   <path fill="currentColor"
d="M448 473q-125 -1 -226 -61v0v0q-101 -60 -161 -161v0v0q-60 -101 -61 -226v-32v0l144 -32v0l80 144v0l-84 67v0q56 105 161 161l67 -84v0l144 80v0l-32 144v0h-32v0zM16 25v0v0v0q1 121 59 218t155 155t218 59h19v0l27 -120v0l-122 -67v0l-59 73v0l-8 10v0l-12 -6v0
q-108 -59 -167 -167l-6 -12v0l10 -8v0l73 -59v0l-67 -122v0l-120 27v0v19v0zM304 41v32v-32v32h32v0v-32v0h-32v0zM288 25h16h-16h64v16v0v32v0v16v0h-16h-48v-16v0v-32v0v-16v0zM336 137h-32h32h-32v32v0h32v0v-32v0zM304 121h32h-32h48v16v0v32v0v16v0h-16h-48v-16v0v-32
v0v-16v0h16v0zM400 41v32v-32v32h32v0v-32v0h-32v0zM384 25h16h-16h64v16v0v32v0v16v0h-16h-48v-16v0v-32v0v-16v0zM528 41h-32h32h-32v32v0h32v0v-32v0zM496 25h32h-32h48v16v0v32v0v16v0h-16h-48v-16v0v-32v0v-16v0h16v0zM592 41v32v-32v32h32v0v-32v0h-32v0zM576 25h16
h-16h64v16v0v32v0v16v0h-16h-48v-16v0v-32v0v-16v0zM624 137h-32h32h-32v32v0h32v0v-32v0zM592 121h32h-32h48v16v0v32v0v16v0h-16h-48v-16v0v-32v0v-16v0h16v0zM400 137v32v-32v32h128v0v-32v0h-128v0zM384 121h16h-16h160v16v0v32v0v16v0h-16h-144v-16v0v-32v0v-16v0z" />
</svg>
