<?xml version="1.0" standalone="no"?>
<!DOCTYPE svg PUBLIC "-//W3C//DTD SVG 1.1//EN" "http://www.w3.org/Graphics/SVG/1.1/DTD/svg11.dtd" >
<svg xmlns="http://www.w3.org/2000/svg" xmlns:xlink="http://www.w3.org/1999/xlink" version="1.1" viewBox="-12 0 406 512">
   <path fill="currentColor"
d="M96 -7v8v-8v8v91v0l182 -43v0l8 -2v0l4 16v0l-8 2v0l-186 44v0v79v0l182 -43v0l8 -2v0l4 16v0l-8 2v0l-186 44v0v220v0h120v0q65 -2 107 -45q43 -42 45 -107v-48v0v-8v0h16v0v8v0v48v0q-2 71 -49 119q-48 47 -119 49h-128h-8v-8v0v-225v0l-70 17v0l-8 2v0l-4 -16v0l8 -2
v0l74 -17v0v-80v0l-70 17v0l-8 2v0l-4 -16v0l8 -2v0l74 -17v0v-95v0v-8v0h16v0z" />
</svg>
