<?xml version="1.0" standalone="no"?>
<!DOCTYPE svg PUBLIC "-//W3C//DTD SVG 1.1//EN" "http://www.w3.org/Graphics/SVG/1.1/DTD/svg11.dtd" >
<svg xmlns="http://www.w3.org/2000/svg" xmlns:xlink="http://www.w3.org/1999/xlink" version="1.1" viewBox="-10 -40 404 512">
   <path fill="currentColor"
d="M72 -39h-8h8h-8v8v0v56v0h-48h-16v16v0v352v0v16v0h16h48v56v0v8v0h8h248v-8v0v-56v0h48h16v-16v0v-352v0v-16v0h-16h-48v-56v0v-8v0h-8h-240zM320 393h-16h16h-304v-352v0h48h304v352v0h-48v0zM304 409v48v-48v48h-224v0v-48v0h224v0zM304 25h-224h224h-224v-48v0h224v0
v48v0zM80 217q1 -15 16 -16q15 1 16 16q-1 15 -16 16q-15 -1 -16 -16v0zM128 217q0 -14 -9 -23v0v0q-9 -9 -23 -9t-23 9t-9 23t9 23t23 9t23 -9t9 -23v0zM144 297q15 1 16 16q-1 15 -16 16q-15 -1 -16 -16q1 -15 16 -16v0zM144 345q14 0 23 -9v0v0q9 -9 9 -23t-9 -23t-23 -9
t-23 9t-9 23t9 23t23 9v0zM128 121q1 -15 16 -16q15 1 16 16q-1 15 -16 16q-15 -1 -16 -16v0zM176 121q0 -14 -9 -23v0v0q-9 -9 -23 -9t-23 9t-9 23t9 23t23 9t23 -9t9 -23v0zM240 297q15 1 16 16q-1 15 -16 16q-15 -1 -16 -16q1 -15 16 -16v0zM240 345q14 0 23 -9v0v0
q9 -9 9 -23t-9 -23t-23 -9t-23 9t-9 23t9 23t23 9v0zM224 121q1 -15 16 -16q15 1 16 16q-1 15 -16 16q-15 -1 -16 -16v0zM272 121q0 -14 -9 -23v0v0q-9 -9 -23 -9t-23 9t-9 23t9 23t23 9t23 -9t9 -23v0zM192 193q22 2 24 24q-2 22 -24 24q-22 -2 -24 -24q2 -22 24 -24v0z
M192 257q23 -1 35 -20q10 -20 0 -40q-12 -19 -35 -20q-23 1 -35 20q-10 20 0 40q12 19 35 20v0zM272 217q1 -15 16 -16q15 1 16 16q-1 15 -16 16q-15 -1 -16 -16v0zM320 217q0 -14 -9 -23v0v0q-9 -9 -23 -9t-23 9t-9 23t9 23t23 9t23 -9t9 -23v0z" />
</svg>
