<?xml version="1.0" standalone="no"?>
<!DOCTYPE svg PUBLIC "-//W3C//DTD SVG 1.1//EN" "http://www.w3.org/Graphics/SVG/1.1/DTD/svg11.dtd" >
<svg xmlns="http://www.w3.org/2000/svg" xmlns:xlink="http://www.w3.org/1999/xlink" version="1.1" viewBox="-10 -40 404 512">
   <path fill="currentColor"
d="M32 9h8h-8h8q24 1 40 16q15 16 16 40v88v0h-64v0v16v0h64v0v200v0q1 31 21 51t51 21h16v0q85 -2 141 -59q57 -56 59 -141v-16v0q-1 -31 -21 -51t-51 -21h-48h-8v16v0h8h48q24 1 40 16q15 16 16 40v16v0q-2 78 -54 130t-130 54h-16v0q-24 -1 -40 -16q-15 -16 -16 -40v-200
v0h80v0v-16v0h-80v0v-88v0q-1 -31 -21 -51t-51 -21h-8v0v16v0z" />
</svg>
