<?xml version="1.0" standalone="no"?>
<!DOCTYPE svg PUBLIC "-//W3C//DTD SVG 1.1//EN" "http://www.w3.org/Graphics/SVG/1.1/DTD/svg11.dtd" >
<svg xmlns="http://www.w3.org/2000/svg" xmlns:xlink="http://www.w3.org/1999/xlink" version="1.1" viewBox="-10 -40 532 512">
   <path fill="currentColor"
d="M384 290q50 -16 80 -57v0v0q31 -41 32 -96q-2 -68 -47 -113t-113 -47q-55 1 -96 32q-41 30 -57 80h-7h-9q16 -56 62 -92q45 -35 107 -36q75 2 124 52q50 49 52 124q-1 62 -36 107q-36 46 -92 62v-9v-7v0zM336 297q0 -43 -21 -80v0v0q-22 -37 -59 -59q-38 -21 -80 -21
t-80 21q-37 22 -59 59q-21 37 -21 80t21 80q22 37 59 59q38 21 80 21t80 -21q37 -22 59 -59q21 -37 21 -80v0zM0 297q0 -48 24 -88v0v0q23 -40 64 -64q42 -24 88 -24t88 24q41 24 64 64q24 40 24 88t-24 88q-23 40 -64 64q-42 24 -88 24t-88 -24q-41 -24 -64 -64
q-24 -40 -24 -88v0zM168 201v40v-40v40h40h8v16v0h-8h-40v40v0v8v0h-16v0v-8v0v-40v0h-40h-8v-16v0h8h40v-40v0v-8v0h16v0v8v0zM360 41v40v-40v40h40h8v16v0h-8h-40v40v0v8v0h-16v0v-8v0v-40v0h-40h-8v-16v0h8h40v-40v0v-8v0h16v0v8v0z" />
</svg>
