<?xml version="1.0" standalone="no"?>
<!DOCTYPE svg PUBLIC "-//W3C//DTD SVG 1.1//EN" "http://www.w3.org/Graphics/SVG/1.1/DTD/svg11.dtd" >
<svg xmlns="http://www.w3.org/2000/svg" xmlns:xlink="http://www.w3.org/1999/xlink" version="1.1" viewBox="-10 -40 532 512">
   <path fill="currentColor"
d="M271 -14q74 -22 110 12q34 36 12 110q-22 75 -96 150q-75 73 -150 96q-74 22 -110 -12q-34 -36 -12 -110q22 -75 96 -150q75 -73 150 -96v0zM392 -13q-22 -22 -55 -25v0v0q-33 -4 -71 8q-79 25 -157 100q-75 78 -100 157q-12 38 -8 71q3 33 25 55l44 44v0q36 37 84 56
q47 20 99 20q26 0 51 -5v0v0h1v0q77 -17 131 -71t71 -132v0v0v0v0q5 -25 5 -51q0 -52 -20 -100q-19 -47 -56 -84l-44 -43v0zM254 395l-6 -5l6 5l-6 -5l-11 11v0l5 6v0l48 47v0q-18 3 -37 3q-49 0 -93 -18q-45 -19 -79 -53l-9 -9v0q36 6 80 -7q79 -25 157 -101
q75 -77 100 -156q13 -44 7 -80l9 9v0q34 34 53 79q18 44 18 93q0 19 -3 37l-47 -48v0l-6 -5v0l-11 11v0l5 6v0l56 55v0q-16 64 -60 110v-1v0l-64 -64v0l-6 -5v0l-11 11v0l5 6v0l64 64v0h1v0q-46 44 -110 60l-55 -56v0zM330 42q6 5 6 21t-10 41q-20 51 -76 107
q-56 55 -107 76q-24 10 -41 10q-16 0 -21 -7q-7 -5 -7 -21t10 -41q21 -51 76 -107q57 -55 107 -76q25 -10 41 -10t22 7v0zM341 30q-26 -22 -80 0v0v0q-54 22 -113 80q-57 58 -79 112t0 80q26 22 80 0t113 -79q57 -59 79 -113t0 -80v0z" />
</svg>
