<?xml version="1.0" standalone="no"?>
<!DOCTYPE svg PUBLIC "-//W3C//DTD SVG 1.1//EN" "http://www.w3.org/Graphics/SVG/1.1/DTD/svg11.dtd" >
<svg xmlns="http://www.w3.org/2000/svg" xmlns:xlink="http://www.w3.org/1999/xlink" version="1.1" viewBox="-10 -40 532 512">
   <path fill="currentColor"
d="M192 169h16h-16h16v-16v0v-16v0h40h8v-16v0h-8h-120q-20 -1 -34 -14q-13 -14 -14 -34q1 -20 14 -34q14 -13 34 -14q8 0 16 3q2 0 3 1q8 3 14 9q-1 -4 -1 -9q0 -6 1 -11q4 -18 18 -29q14 -12 33 -12t33 12q7 5 11 12q5 -7 11 -12q14 -12 33 -12t33 12q14 11 18 29
q1 5 1 11q0 5 -1 9q6 -6 14 -9q1 -1 3 -1q7 -3 16 -3q20 1 34 14q13 14 14 34q-1 20 -14 34q-14 13 -34 14h-64h-16v16v0v16v0v16v0h16v0v-16v0v-16v0h64v0q27 -1 45 -19t19 -45q-1 -27 -19 -45t-45 -19q-10 0 -18 3q-6 -23 -24 -37t-42 -14q-26 1 -44 16q-18 -15 -44 -16
q-24 0 -42 14t-24 37q-8 -3 -18 -3q-27 1 -45 19t-19 45q1 27 19 45t45 19h32h32v16v0v16v0zM256 57v0v0v0v0v0v0v0zM23 232l6 2l-6 -2l6 2l6 -2v0l50 -22v0l51 22v0l8 3v0l7 -5v0l42 -27v0l56 28v0l7 4v0l6 -3v0l51 -22v0l51 22v0l6 2v0l6 -2v0l51 -22v0l51 22v0l5 2v0
l6 -2v0l7 -2v0q-8 97 -75 161q-66 64 -165 66q-99 -2 -165 -66q-67 -64 -75 -161l7 2v0zM142 217l-57 -24l57 24l-57 -24l-57 24v0l-12 -4v0l-16 -6v0v10v7q3 70 37 126q35 56 92 89t127 34q70 -1 127 -34t92 -89q34 -56 37 -126v-7v-10v0l-16 6v0l-12 4v0l-57 -24v0l-57 24
v0l-57 -24v0l-57 24v0l-64 -32v0l-50 32v0zM176 313q15 -1 16 -16q-1 -15 -16 -16q-14 1 -16 16q2 15 16 16v0zM336 313q15 -1 16 -16q-1 -15 -16 -16q-14 1 -16 16q2 15 16 16v0zM328 393q-4 -28 -24 -45v0v0q-20 -18 -48 -19q-29 1 -48 19q-20 17 -24 45v8v8v0h16h128v-8
v0v-8v0zM201 393q3 -21 18 -34v0v0q15 -14 37 -14t37 14q15 13 18 34h-110v0z" />
</svg>
