<?xml version="1.0" standalone="no"?>
<!DOCTYPE svg PUBLIC "-//W3C//DTD SVG 1.1//EN" "http://www.w3.org/Graphics/SVG/1.1/DTD/svg11.dtd" >
<svg xmlns="http://www.w3.org/2000/svg" xmlns:xlink="http://www.w3.org/1999/xlink" version="1.1" viewBox="-10 -40 596 512">
   <path fill="currentColor"
d="M62 209h82h-82h82v-88v0v-8v0h16v0v8v0v88v0h80v0v-88v0v-8v0h16v0v8v0v88v0h80v0v-88v0v-8v0h16v0v8v0v88v0h64v0v-120v0v-16v0h16h16l128 144v0l-128 144v0h-16h-16v-16v0v-120v0h-64v0v88v0v8v0h-16v0v-8v0v-88v0h-80v0v88v0v8v0h-16v0v-8v0v-88v0h-80v0v88v0v8v0h-16
v0v-8v0v-88v0h-82v0l-43 116v0l15 15v0l62 -41v0v19v0l-64 43v0l-32 -32v0l48 -128v0l-48 -128v0l32 -32v0l64 43v0v19v0l-62 -41v0l-15 15v0l43 116v0zM432 225v120v-120v120h9v0l114 -128v0l-114 -128v0h-9v0v120v0v16v0z" />
</svg>
