<?xml version="1.0" standalone="no"?>
<!DOCTYPE svg PUBLIC "-//W3C//DTD SVG 1.1//EN" "http://www.w3.org/Graphics/SVG/1.1/DTD/svg11.dtd" >
<svg xmlns="http://www.w3.org/2000/svg" xmlns:xlink="http://www.w3.org/1999/xlink" version="1.1" viewBox="-10 -40 468 512">
   <path fill="currentColor"
d="M16 105v96v-96v96h96v0v-96v0h-96v0zM0 89h16h-16h128v16v0v96v0v16v0h-16h-112v-16v0v-96v0v-16v0zM16 265v96v-96v96h96v0v-96v0h-96v0zM0 249h16h-16h128v16v0v96v0v16v0h-16h-112v-16v0v-96v0v-16v0zM272 105h-96h96h-96v96v0h96v0v-96v0zM176 89h96h-96h112v16v0v96
v0v16v0h-16h-112v-16v0v-96v0v-16v0h16v0zM176 265v96v-96v96h96v0v-96v0h-96v0zM160 249h16h-16h128v16v0v96v0v16v0h-16h-112v-16v0v-96v0v-16v0zM432 105h-96h96h-96v96v0h96v0v-96v0zM336 89h96h-96h112v16v0v96v0v16v0h-16h-112v-16v0v-96v0v-16v0h16v0zM336 265v96
v-96v96h96v0v-96v0h-96v0zM320 249h16h-16h128v16v0v96v0v16v0h-16h-112v-16v0v-96v0v-16v0z" />
</svg>
