<?xml version="1.0" standalone="no"?>
<!DOCTYPE svg PUBLIC "-//W3C//DTD SVG 1.1//EN" "http://www.w3.org/Graphics/SVG/1.1/DTD/svg11.dtd" >
<svg xmlns="http://www.w3.org/2000/svg" xmlns:xlink="http://www.w3.org/1999/xlink" version="1.1" viewBox="-10 -40 660 512">
   <path fill="currentColor"
d="M204 64q6 -2 12 -5l170 -82v0h246h8v-16v0h-8h-248q-2 0 -3 1l-122 58v0l-4 -4l-1 -1l-1 -1v0q-16 -16 -48 -34q-33 -17 -77 -19q-40 1 -69 17q-28 15 -44 30q-15 16 -15 17q0 2 25 22q26 20 72 31q-44 19 -70 58t-27 89v16v0v16v0h16h16q68 -2 113 -47t47 -113v-16v0
v-11v0l12 -6v0zM198 50q-30 14 -70 15q-55 -3 -85 -25q-13 -9 -21 -16q8 -8 21 -18q16 -12 37 -20q21 -9 48 -9t50 9q22 9 39 20q14 10 23 18q-8 7 -22 15q-1 1 -2 1q-3 2 -7 4l-12 6h1zM425 407q-37 49 -89 50q-52 -1 -89 -50t-39 -126q2 -77 39 -126t89 -50q52 1 89 50
t39 126q-2 77 -39 126v0zM336 473q61 -2 102 -56v0v0q40 -54 42 -136q-2 -82 -42 -136q-41 -54 -102 -56q-61 2 -102 56q-40 54 -42 136q2 82 42 136q41 54 102 56v0zM466 433q40 12 77 6v0v0q36 -7 62 -33q42 -47 33 -116q-10 -70 -67 -131q-32 -33 -70 -51
q-37 -18 -74 -19q11 8 21 18q59 10 112 63q53 58 62 122q8 64 -28 103q-38 37 -98 28q-10 -1 -21 -4q-4 7 -9 14v0zM16 241v-16v16v-16q2 -61 42 -102q41 -40 102 -42h16v0v16v0q-2 61 -42 102q-41 40 -102 42h-16v0z" />
</svg>
