<?xml version="1.0" standalone="no"?>
<!DOCTYPE svg PUBLIC "-//W3C//DTD SVG 1.1//EN" "http://www.w3.org/Graphics/SVG/1.1/DTD/svg11.dtd" >
<svg xmlns="http://www.w3.org/2000/svg" xmlns:xlink="http://www.w3.org/1999/xlink" version="1.1" viewBox="-10 -40 532 512">
   <path fill="currentColor"
d="M64 9q15 -1 16 -16q-1 -15 -16 -16q-15 1 -16 16q1 15 16 16v0zM64 -39q14 0 23 9v0v0q9 9 9 23t-9 23t-23 9t-23 -9t-9 -23t9 -23t23 -9v0zM129 421l-77 -77l77 77l-77 -77l-33 93v0l17 18v0l93 -34v0zM146 415l77 -28l-77 28l77 -28l-137 -137v0l-28 77v0l88 88v0z
M239 382l76 -27l-76 27l76 -27l-196 -197v0l-28 76v0q2 0 3 1l144 144v0q1 1 1 3v0zM32 473l-32 -32l32 32l-32 -32l106 -295v0l6 -17v0l13 13v0l207 207v0l12 12v0l-17 6v0l-295 106v0zM496 121q-1 -15 -16 -16q-15 1 -16 16q1 15 16 16q15 -1 16 -16v0zM448 121
q0 -14 9 -23v0v0q9 -9 23 -9t23 9t9 23t-9 23t-23 9t-23 -9t-9 -23v0zM480 425q15 -1 16 -16q-1 -15 -16 -16q-15 1 -16 16q1 15 16 16v0zM480 377q14 0 23 9v0v0q9 9 9 23t-9 23t-23 9t-23 -9t-9 -23t9 -23t23 -9v0zM256 -31q-1 29 -13 56v0v0q-13 27 -29 48t-28 33
q-5 6 -9 10q-1 1 -2 1q0 1 -1 1v1v0h-1v0v0v0v0v0v0v0q2 1 -5 -6l5 6v0l-6 5v0l-10 -11v0l6 -6v0v0v0v0v0v0v0v0v0v0v0v-1v0q1 0 3 -2l9 -9q11 -12 26 -32q16 -20 27 -44q11 -25 12 -50v-8v0h16v0v8v0zM367 310v0v0v0v0v0v0v0l-5 6v0l-13 -9v0l4 -6v0l7 4v0q-8 -6 -7 -4v0v0
v0v0v-1v0h1v0v-1v0l1 -1l1 -1q3 -4 8 -10q10 -12 29 -28t47 -29q28 -12 64 -13h8v0v16v0h-8v0q-32 1 -57 12q-26 11 -44 26t-27 27q-5 5 -7 8q-1 2 -2 3v0v0v1v0v0v0zM493 -10q-20 17 -46 16q-19 0 -34 12q-14 12 -17 31l-7 44v0q-5 28 -25 47q-21 19 -50 21q-21 2 -37 16
l-8 6v0l-6 5v0l-10 -12v0l6 -5v0l8 -6v0q20 -17 46 -20q24 -2 40 -17t20 -38l7 -44v0q5 -25 23 -40q19 -16 44 -16q20 1 35 -12l17 -15v0l10 12v0l-16 15v0z" />
</svg>
