<?xml version="1.0" standalone="no"?>
<!DOCTYPE svg PUBLIC "-//W3C//DTD SVG 1.1//EN" "http://www.w3.org/Graphics/SVG/1.1/DTD/svg11.dtd" >
<svg xmlns="http://www.w3.org/2000/svg" xmlns:xlink="http://www.w3.org/1999/xlink" version="1.1" viewBox="-10 -40 468 512">
   <path fill="currentColor"
d="M16 9v416v-416v416h416v0v-416v0h-416v0zM0 -7h16h-16h448v16v0v416v0v16v0h-16h-432v-16v0v-416v0v-16v0zM112 217h80h-80h80v-40v0v-40v0h-80v0v80v0zM112 233h-16h16h-16v-16v0v-80v0v-16v0h16h96v16v0v40v0v40v0v16v0v16v0q-1 24 -16 40q-16 15 -40 16h-8h-8v-16v0h8
h8q17 0 28 -12q12 -11 12 -28v-16v0h-80v0zM336 217v-40v40v-40v-40v0h-80v0v80v0h80v0zM352 137v40v-40v40v40v0v16v0v16v0q-1 24 -16 40q-16 15 -40 16h-8h-8v-16v0h8h8q17 0 28 -12q12 -11 12 -28v-16v0h-80h-16v-16v0v-80v0v-16v0h16h96v16v0z" />
</svg>
