<?xml version="1.0" standalone="no"?>
<!DOCTYPE svg PUBLIC "-//W3C//DTD SVG 1.1//EN" "http://www.w3.org/Graphics/SVG/1.1/DTD/svg11.dtd" >
<svg xmlns="http://www.w3.org/2000/svg" xmlns:xlink="http://www.w3.org/1999/xlink" version="1.1" viewBox="-10 -40 596 512">
   <path fill="currentColor"
d="M349 -23q61 0 105 42q42 44 42 105q0 38 -16 75t-46 68q-57 54 -127 61t-121 -41q-42 -44 -42 -105q0 -38 16 -75t46 -68q31 -30 68 -46t75 -16v0zM349 -39q-41 0 -81 17v0v0q-40 17 -73 50t-50 73t-17 81q0 62 41 111l-35 34v0l-19 -19v0l-11 -11v0l-11 11v0l-82 82v0
l-11 11v0l11 11v0l50 50v0l11 11v0l11 -11v0l82 -82v0l11 -11v0l-11 -11v0l-19 -19v0l34 -35v0q58 49 132 40q75 -9 133 -66q33 -33 50 -73t17 -81q1 -67 -47 -116q-49 -48 -116 -47v0zM104 320l49 49l-49 -49l49 49l-81 81v0l-49 -49v0l81 -81v0zM512 329q14 0 23 9v0v0
q9 9 9 23v32v0h-64v0v-32v0q0 -14 9 -23t23 -9v0zM560 393v-32v32v-32q-1 -20 -14 -34q-14 -13 -34 -14q-20 1 -34 14q-13 14 -14 34v32v0v16v0h16h80v-16v0zM448 468l15 4l-15 -4l15 4l14 -47v0h-17v0l-12 43v0zM504 465v8v-8v8h16v0v-8v0v-40v0h-16v0v40v0zM561 472l15 -4
l-15 4l15 -4l-12 -43v0h-17v0l14 47v0z" />
</svg>
