<?xml version="1.0" standalone="no"?>
<!DOCTYPE svg PUBLIC "-//W3C//DTD SVG 1.1//EN" "http://www.w3.org/Graphics/SVG/1.1/DTD/svg11.dtd" >
<svg xmlns="http://www.w3.org/2000/svg" xmlns:xlink="http://www.w3.org/1999/xlink" version="1.1" viewBox="-10 -40 532 512">
   <path fill="currentColor"
d="M8 -39h-8h8h-8v8v0v24v0v1v0v0v0l32 199v0l-32 150v0v1v0v1v0v56v0v64v0v8v0h8h112v-8v0v-56v0h22v0l126 63v0l2 1v0h2h240v-16v0h-8h-24v-64v0v-4v0l-4 -3v0l-204 -125v0v-292v0v-8v0h-8h-256zM16 409h88h-88h88v48v0h-88v0v-48v0zM112 393h-96h96h-96v-47v0l32 -151v0
v-2v0v-1v0l-32 -200v0v-15v0h96v0v232v0v8v0h16v0v-8v0v-232v0h128v0v288v0v5v0l4 2v0l204 126v0v59v0h-190v0l-126 -63v0l-2 -1v0h-2h-32z" />
</svg>
