<?xml version="1.0" standalone="no"?>
<!DOCTYPE svg PUBLIC "-//W3C//DTD SVG 1.1//EN" "http://www.w3.org/Graphics/SVG/1.1/DTD/svg11.dtd" >
<svg xmlns="http://www.w3.org/2000/svg" xmlns:xlink="http://www.w3.org/1999/xlink" version="1.1" viewBox="-10 -40 404 512">
   <path fill="currentColor"
d="M218 -39h6h-6h70v16v0h-8h-50l-28 112v0h174h8v16v0h-8h-376v-16v0h8h178l30 -122v0l2 -6v0zM64 473l-28 -336l28 336l-28 -336h16v0l17 200v0q59 -4 85 -21q28 -17 45 -40l3 -4v0q15 -21 41 -40q27 -19 83 -23l6 -72v0h16v0l-28 336v0h-256v0zM325 225q-51 4 -73 21
q-22 15 -38 36v1l-3 3v0q-17 24 -49 44q-31 19 -92 23l9 104v0h226v0l20 -232v0z" />
</svg>
