<?xml version="1.0" standalone="no"?>
<!DOCTYPE svg PUBLIC "-//W3C//DTD SVG 1.1//EN" "http://www.w3.org/Graphics/SVG/1.1/DTD/svg11.dtd" >
<svg xmlns="http://www.w3.org/2000/svg" xmlns:xlink="http://www.w3.org/1999/xlink" version="1.1" viewBox="-10 -40 660 512">
   <path fill="currentColor"
d="M567 151q9 31 9 66q-1 72 -35 129q-34 58 -92 92q-57 34 -129 35q-72 -1 -129 -35q-58 -34 -92 -92q-34 -57 -35 -129q0 -35 9 -66q-19 -25 -42 -71q-23 -45 -30 -99q-1 -10 -1 -20q0 1 16 10q18 10 56 23q38 12 95 18q66 -50 153 -51q87 1 153 51q57 -6 95 -18
q38 -13 56 -23q16 -9 16 -10q0 10 -1 20q-7 54 -30 99q-23 46 -42 71v0zM490 26q49 43 71 105q10 -15 22 -35q27 -47 39 -106q-12 6 -28 12q-39 15 -104 24v0zM150 26q-65 -8 -104 -24q-16 -6 -28 -12q12 59 39 106q12 21 22 35q22 -62 71 -105v0zM560 217q-1 -65 -32 -120
v0v0q-32 -55 -88 -88q-57 -32 -120 -32t-120 32q-56 33 -88 88q-31 55 -32 120q1 65 32 120q32 55 88 88q57 32 120 32t120 -32q56 -33 88 -88q31 -55 32 -120v0zM386 374q-9 -11 -26 -20v0v0q-17 -9 -40 -9t-40 9t-26 20l-5 6v0l-12 -10v0l5 -6v0q11 -13 31 -24
q19 -10 47 -11q28 1 47 11q20 11 31 24l5 6v0l-12 10v0l-5 -6v0zM224 233q2 -15 16 -16q15 1 16 16q-1 15 -16 16q-14 -1 -16 -16v0zM400 217q15 1 16 16q-1 15 -16 16q-14 -1 -16 -16q2 -15 16 -16v0zM187 159l8 2l-8 -2l8 2l96 32v0l7 3v0l-5 15v0l-8 -2v0l-96 -32v0
l-7 -3v0l5 -15v0zM458 174l-7 3l7 -3l-7 3l-96 32v0l-8 2v0l-5 -15v0l7 -3v0l96 -32v0l8 -2v0l5 15v0z" />
</svg>
