<?xml version="1.0" standalone="no"?>
<!DOCTYPE svg PUBLIC "-//W3C//DTD SVG 1.1//EN" "http://www.w3.org/Graphics/SVG/1.1/DTD/svg11.dtd" >
<svg xmlns="http://www.w3.org/2000/svg" xmlns:xlink="http://www.w3.org/1999/xlink" version="1.1" viewBox="-10 -40 532 512">
   <path fill="currentColor"
d="M496 217q-1 -65 -32 -120v0v0q-32 -55 -88 -88q-57 -32 -120 -32t-120 32q-56 33 -88 88q-31 55 -32 120q1 65 32 120q32 55 88 88q57 32 120 32t120 -32q56 -33 88 -88q31 -55 32 -120v0zM0 217q1 -70 34 -128v0v0q34 -58 94 -94q61 -34 128 -34t128 34q60 36 94 94
q33 58 34 128q-1 70 -34 128q-34 58 -94 94q-61 34 -128 34t-128 -34q-60 -36 -94 -94q-33 -58 -34 -128v0zM304 313q-1 -20 -14 -34v0v0q-14 -13 -34 -14q-20 1 -34 14q-13 14 -14 34v32v0q1 20 14 34q14 13 34 14q20 -1 34 -14q13 -14 14 -34v-32v0zM192 313q1 -27 19 -45
v0v0q18 -18 45 -19q27 1 45 19t19 45v32v0q-1 27 -19 45t-45 19q-27 -1 -45 -19t-19 -45v-32v0zM160 185q2 -15 16 -16q15 1 16 16q-1 15 -16 16q-14 -1 -16 -16v0zM336 169q15 1 16 16q-1 15 -16 16q-14 -1 -16 -16q2 -15 16 -16v0zM201 89h-8h8h-8q-50 4 -83 39l-6 6v0
l-11 -11v0l5 -6v0q37 -39 94 -44h8v0l1 16v0zM320 89h-8h8h-8l1 -16v0h8v0q56 5 93 44l5 6v0l-11 11v0l-6 -6v0q-33 -35 -82 -39v0z" />
</svg>
