<?xml version="1.0" standalone="no"?>
<!DOCTYPE svg PUBLIC "-//W3C//DTD SVG 1.1//EN" "http://www.w3.org/Graphics/SVG/1.1/DTD/svg11.dtd" >
<svg xmlns="http://www.w3.org/2000/svg" xmlns:xlink="http://www.w3.org/1999/xlink" version="1.1" viewBox="-10 -40 522 512">
   <path fill="currentColor"
d="M196 -30l60 30l-60 -30l60 30l60 -30v0l8 -4v0l3 7v0l49 99v0q55 -17 95 -47l17 17v0q-22 63 -84 102q-63 40 -148 41q-85 -1 -147 -41q-63 -39 -85 -102l17 -17v0q41 31 98 48l46 -99v0l3 -8v0l8 4v0zM361 76l-45 -88l45 88l-45 -88l-56 28v0l-4 2v0l-4 -2v0l-56 -28v0
l-41 89v0q47 12 101 12q56 0 105 -13v0zM469 46q-42 28 -96 43v0v0q-55 16 -117 16t-117 -16q-54 -15 -96 -43v0v0q22 54 79 88t134 35q77 -1 134 -35t80 -88h-1v0zM424 172q7 -4 14 -9q25 46 26 102q-2 88 -61 147t-147 61q-88 -2 -147 -61t-61 -147q1 -56 27 -102
q6 5 13 9q-23 42 -24 93q2 81 56 136q54 54 136 56q82 -2 136 -56q54 -55 56 -136q-1 -51 -24 -93v0zM176 217q15 1 16 16q-1 15 -16 16q-15 -1 -16 -16q1 -15 16 -16v0zM320 233q1 -15 16 -16q15 1 16 16q-1 15 -16 16q-15 -1 -16 -16v0zM256 341q-62 -1 -116 -18
q16 39 47 62t69 24q39 -1 69 -24q31 -23 47 -62q-53 18 -116 18v0zM256 325q67 -1 122 -22q10 -3 18 -7q-2 10 -4 19q-16 49 -52 79t-84 31q-47 -1 -83 -31q-37 -30 -52 -79q-3 -9 -5 -19q9 4 18 7q55 21 122 22v0z" />
</svg>
