<?xml version="1.0" standalone="no"?>
<!DOCTYPE svg PUBLIC "-//W3C//DTD SVG 1.1//EN" "http://www.w3.org/Graphics/SVG/1.1/DTD/svg11.dtd" >
<svg xmlns="http://www.w3.org/2000/svg" xmlns:xlink="http://www.w3.org/1999/xlink" version="1.1" viewBox="-10 -40 532 512">
   <path fill="currentColor"
d="M129 -5q57 -33 127 -34q72 1 129 35q58 34 92 92q34 57 35 129q-1 72 -35 129q-34 58 -92 92q-57 34 -129 35q-72 -1 -129 -35q-58 -34 -92 -92q-34 -57 -35 -129q0 -42 13 -80q6 5 14 8q-11 34 -11 72q1 67 33 121t86 86t121 33q67 -1 121 -33t86 -86t33 -121
q-1 -67 -33 -121t-86 -86t-121 -33q-64 1 -117 30q-1 -2 -3 -4q0 -1 -1 -1l-6 -7v0zM208 233h8h-8h8v16v0h-8h-104v-16v0h8h96zM408 233v16v-16v16h-8h-104v-16v0h8h104zM185 380l-12 -10l12 10l-12 -10l5 -6v0q11 -13 31 -24q19 -10 47 -11q28 1 47 11q20 11 31 24l5 6v0
l-12 10v0l-5 -6v0q-10 -11 -26 -20q-17 -9 -40 -9t-40 9t-26 20l-5 6v0zM29 37q-11 16 -8 34q4 15 15 25q12 9 27 9h2v0q15 0 27 -9q11 -10 15 -25q4 -18 -8 -34l-35 -49v0l-35 49v0zM16 28l38 -53l-38 53l38 -53l10 -14v0l10 14v0l38 53v0q15 21 10 47q-5 20 -20 33
q-16 13 -37 13h-2v0q-21 0 -37 -13q-15 -13 -20 -33q-6 -26 10 -47v0z" />
</svg>
