<?xml version="1.0" standalone="no"?>
<!DOCTYPE svg PUBLIC "-//W3C//DTD SVG 1.1//EN" "http://www.w3.org/Graphics/SVG/1.1/DTD/svg11.dtd" >
<svg xmlns="http://www.w3.org/2000/svg" xmlns:xlink="http://www.w3.org/1999/xlink" version="1.1" viewBox="-10 -40 532 512">
   <path fill="currentColor"
d="M256 -23q-67 1 -121 33v0v0q-54 32 -86 86v0v0q-32 54 -33 121q1 61 27 112q27 50 74 83l-10 13v0q-49 -35 -78 -89q-28 -54 -29 -119q1 -72 35 -129q34 -58 92 -92q57 -34 129 -35q72 1 129 35q58 34 92 92q34 57 35 129q-1 81 -44 143q-43 63 -113 93l-6 -15v0
q66 -28 106 -87q40 -58 41 -134q-1 -67 -33 -121t-86 -86t-121 -33v0zM245 318l-10 -10l10 10l-10 -10l12 -11v0l44 -45v0l12 -11v0l-2 -2v0l-10 -9v0l-11 -12v0l-11 12v0l-69 68v0l-1 1v0l-15 15v0v-15v0v-4v0v-3v0v-13v0h-16h-24v16v0v4v0v30v0v20v0v13v0q1 40 28 67
t67 28q39 -1 68 -28l48 -49v0l12 -11v0l-12 -11v0l-9 -10v0l-2 -2v0l-11 12v0l-13 12v0l-11 12v0l-10 -10v0l12 -11v0l12 -13v0l12 -11v0l11 -11v0l9 -10v0l12 -11v0l-12 -11v0l-9 -10v0l-2 -2v0l-11 12v0l-45 44v0l-11 12v0l-10 -10v0l12 -11v0l44 -45v0l12 -11v0l4 -5v0
l7 -6v0l5 -5v0l-12 -11v0l-11 -12v0l-5 5v0l-6 7v0l-5 4v0l-11 12v0l-45 44v0l-11 12v0zM312 228l5 -5l-5 5l5 -5l11 -11v0l11 11v0l23 23v0l11 11v0l-11 11v0l-5 5v0l21 21v0l11 11v0l-11 11v0l-11 12v0l-10 9v0l21 21v0l11 11v0l-11 11v0l-11 12v0l-49 48v0q-33 32 -79 33
q-47 -1 -78 -33q-32 -31 -33 -78v-13v0v-20v0v-30v0v-20v0v-16v0h16h56v13v0l57 -58v0l12 -11v0l11 -11v0l11 11v0l21 21v0zM175 223l-15 -6l15 6l-15 -6q12 -29 38 -46q25 -18 58 -18q48 1 78 35l-12 10v0q-26 -28 -66 -29q-28 0 -49 15q-22 15 -32 39v0zM211 74l-6 5l6 -5
l-6 5l-80 64v0l-6 5v0l-10 -12v0l6 -5v0l80 -64v0l6 -5v0l10 12v0zM307 79l-6 -5l6 5l-6 -5l10 -12v0l6 5v0l80 64v0l6 5v0l-10 12v0l-6 -5v0l-80 -64v0z" />
</svg>
