<?xml version="1.0" standalone="no"?>
<!DOCTYPE svg PUBLIC "-//W3C//DTD SVG 1.1//EN" "http://www.w3.org/Graphics/SVG/1.1/DTD/svg11.dtd" >
<svg xmlns="http://www.w3.org/2000/svg" xmlns:xlink="http://www.w3.org/1999/xlink" version="1.1" viewBox="-10 -40 586 512">
   <path fill="currentColor"
d="M288 -23q24 0 47 5l3 -16v0q-25 -5 -50 -5q-96 2 -165 60l10 13v0q65 -55 155 -57v0zM288 457q-66 -1 -120 -32v0v0q-53 -31 -86 -84l-13 8v0q34 57 91 90t128 34q72 -1 129 -35q58 -34 92 -92q34 -57 35 -129h-16v0q-1 67 -33 121t-86 86t-121 33v0zM519 73h2h-2h2
l-21 -26v0q-30 -38 -72 -63l-4 -3v0l-6 1v0q-109 14 -203 62q-76 6 -149 23l-6 2v0l-4 5v0q-22 37 -33 80l-6 27v0l25 -8v0q-12 12 -22 25l-4 4v0v5v0v10q0 45 14 85l10 31v0l18 -27v0q72 -106 184 -168q23 -1 46 -1q128 0 244 36l27 8v0l-6 -27v0q-11 -43 -33 -80l-1 -1v0z
M276 121v0v0v0q-20 0 -39 2v0v0q-72 4 -140 19v0v0l-32 8v0v0q-2 1 -4 1q-2 1 -4 1l-18 6q2 -10 5 -19q10 -30 26 -56q105 -26 218 -26t218 26q16 26 26 56q3 9 5 19l-18 -6v0q-110 -31 -231 -31h-12v0zM73 165q64 -17 133 -24q-88 56 -150 140q-6 8 -11 16l-6 -20
q-7 -29 -7 -60v-9q19 -23 41 -43v0zM258 42q76 -33 162 -44q30 18 54 43l14 16q-10 0 -20 1h-2v0q-87 -17 -178 -17q-15 0 -30 1v0zM389 341q-15 -15 -38 -25v0v0q-24 -11 -55 -11q-23 0 -42 6l4 16v0q17 -6 38 -6q28 1 48 10q21 9 35 22l10 -12v0zM224 201q-1 -15 -16 -16
q-14 1 -16 16q2 15 16 16q15 -1 16 -16v0zM368 217q15 -1 16 -16q-1 -15 -16 -16q-14 1 -16 16q2 15 16 16v0z" />
</svg>
