<?xml version="1.0" standalone="no"?>
<!DOCTYPE svg PUBLIC "-//W3C//DTD SVG 1.1//EN" "http://www.w3.org/Graphics/SVG/1.1/DTD/svg11.dtd" >
<svg xmlns="http://www.w3.org/2000/svg" xmlns:xlink="http://www.w3.org/1999/xlink" version="1.1" viewBox="-10 -40 524 512">
   <path fill="currentColor"
d="M256 -23q-67 1 -121 33v0v0q-54 32 -86 86v0v0q-32 54 -33 121q1 67 33 121t86 86t121 33q65 -1 118 -31q52 -30 85 -81l14 9v0q-35 54 -91 86q-57 32 -126 33q-72 -1 -129 -35q-58 -34 -92 -92q-34 -57 -35 -129q1 -72 35 -129q34 -58 92 -92q57 -34 129 -35
q90 2 156 53q67 52 91 135l-16 4v0q-22 -78 -84 -126q-63 -49 -147 -50v0zM160 137q2 -15 16 -16q15 1 16 16q-1 15 -16 16q-14 -1 -16 -16v0zM320 137q2 -15 16 -16q15 1 16 16q-1 15 -16 16q-14 -1 -16 -16v0zM166 358l-4 6l4 -6l-4 6l-13 -9v0l5 -7v0q31 -41 86 -43
q23 0 43 9l8 3v0l-7 15v0l-7 -3v0q-17 -8 -37 -8q-47 2 -74 37v0zM288 193h160h-160h160q24 1 40 16q15 16 16 40q-1 24 -16 40q-16 15 -40 16h-96h-8v-16v0h8h96q17 0 28 -12q12 -11 12 -28t-12 -28q-11 -12 -28 -12h-160h-8v-16v0h8v0z" />
</svg>
