<?xml version="1.0" standalone="no"?>
<!DOCTYPE svg PUBLIC "-//W3C//DTD SVG 1.1//EN" "http://www.w3.org/Graphics/SVG/1.1/DTD/svg11.dtd" >
<svg xmlns="http://www.w3.org/2000/svg" xmlns:xlink="http://www.w3.org/1999/xlink" version="1.1" viewBox="-18 0 546 512">
   <path fill="currentColor"
d="M16 217q1 -67 33 -121v0v0q32 -54 86 -86v0v0q54 -32 121 -33q67 1 121 33t86 86t33 121q0 32 -8 62l15 4v0q9 -32 9 -66q-1 -72 -35 -129q-34 -58 -92 -92q-57 -34 -129 -35q-72 1 -129 35q-58 34 -92 92q-34 57 -35 129q0 34 9 66l15 -4v0q-8 -30 -8 -62v0zM256 457
q-41 0 -77 -13l-6 15v0q39 14 83 14t83 -14l-6 -15v0q-36 13 -77 13v0zM387 105l7 -3l-7 3l7 -3l-5 -15v0l-8 2v0q-30 11 -52 26t-31 24l-5 6v0l11 11v0l6 -5v0q8 -9 28 -23q20 -13 49 -23v0zM96 201v16v-16v16h8h120v-16v0h-8h-120zM288 201v16v-16v16h8h120v-16v0h-8h-120
zM112 310q-2 -5 -6 -9q-13 -12 -29 -12t-28 12q-5 5 -8 12q-21 -4 -37 11q-12 12 -12 28t12 28v1q1 0 1 1q-9 16 -6 34q2 19 16 33q14 13 32 16q18 2 34 -7l2 2q12 11 28 11t29 -11q15 -17 10 -37q7 -3 12 -9q12 -12 12 -28t-12 -28q-4 -4 -9 -7l44 -74v0l-11 -11v0l-74 44
v0zM167 296l-33 55l33 -55l-33 55l-5 9v0l10 3v0q7 1 12 6q14 17 0 34q-6 5 -12 6l-11 2v0l5 10v0q6 15 -5 27q-17 14 -34 0q-2 -2 -4 -5l-4 -8v0l-7 6v0q-13 9 -27 8q-15 -1 -26 -12t-12 -26q-1 -14 8 -26l6 -8v0l-8 -4v0q-3 -2 -5 -4q-14 -17 0 -34q13 -11 27 -5l10 5v0
l2 -10v0q1 -7 6 -13q17 -14 34 0q5 5 7 12l2 11v0l10 -6v0l54 -33v0zM313 278l44 74l-44 -74l44 74q-5 2 -9 7q-12 12 -12 28t12 28q5 6 12 8q-4 21 11 37q12 12 28 12t28 -12q1 0 2 -1q16 9 34 6q19 -2 33 -16q13 -14 16 -32q2 -18 -7 -34q0 -1 1 -1q0 -1 1 -1
q11 -12 11 -28t-11 -28q-17 -16 -37 -11q-3 -7 -9 -12q-12 -12 -28 -12t-28 12q-4 4 -7 9l-74 -44v0l-11 11v0zM343 297l55 33l-55 -33l55 33l9 5v0l3 -10v0q1 -7 6 -12q17 -14 34 0q5 6 7 13l2 10v0l9 -5v0q15 -6 27 5q14 17 0 34q-2 2 -5 4l-8 4v0l6 8v0q9 12 8 26
q-1 15 -12 26t-26 12q-14 1 -26 -8l-8 -6v0l-4 8v0q-2 3 -4 5q-17 14 -34 0q-11 -12 -5 -27l5 -10v0l-10 -2v0q-7 -1 -13 -6q-14 -17 0 -34q5 -5 12 -7l11 -2v0l-6 -9v0l-33 -55v0zM118 102l8 3l-8 -3l8 3q28 10 48 24q20 13 28 22l6 5v0l11 -11v0l-5 -6v0q-9 -9 -31 -24
t-52 -26l-8 -2v0l-5 15v0z" />
</svg>
