<?xml version="1.0" standalone="no"?>
<!DOCTYPE svg PUBLIC "-//W3C//DTD SVG 1.1//EN" "http://www.w3.org/Graphics/SVG/1.1/DTD/svg11.dtd" >
<svg xmlns="http://www.w3.org/2000/svg" xmlns:xlink="http://www.w3.org/1999/xlink" version="1.1" viewBox="-10 -40 532 512">
   <path fill="currentColor"
d="M496 217q-1 -65 -32 -120v0v0q-32 -55 -88 -88q-57 -32 -120 -32t-120 32q-56 33 -88 88q-31 55 -32 120q1 65 32 120q32 55 88 88q57 32 120 32t120 -32q56 -33 88 -88q31 -55 32 -120v0zM0 217q1 -70 34 -128v0v0q34 -58 94 -94q61 -34 128 -34t128 34q60 36 94 94
q33 58 34 128q-1 70 -34 128q-34 58 -94 94q-61 34 -128 34t-128 -34q-60 -36 -94 -94q-33 -58 -34 -128v0zM295 381q-11 -15 -39 -17q-28 2 -39 17l-5 6v0l-12 -10v0l5 -6v0q15 -20 51 -23q36 3 51 23l5 6v0l-12 10v0l-5 -6v0zM318 60l15 -5l-15 5l15 -5l3 7v0l1 3v0
q10 27 31 46q21 18 49 24l9 2v0l8 2v0l-4 16v0l-8 -2v0l-7 -2v0q17 21 17 50q-1 34 -23 57q-23 22 -57 23q-34 -1 -56 -23q-23 -23 -24 -57q1 -34 24 -56q22 -23 56 -24h4q-23 -20 -34 -50l-1 -3v0l-3 -8v0zM192 68l-2 3l2 -3l-2 3q-11 30 -34 50h4v0q34 1 57 24
q22 22 23 56q-1 34 -23 57q-23 22 -57 23q-34 -1 -57 -23q-22 -23 -23 -57q1 -29 18 -50l-8 2v0l-8 2v0l-3 -16v0l7 -2v0l9 -2v0q28 -6 49 -24q21 -19 31 -46l2 -3v0l2 -7v0l15 5v0l-2 8v0zM160 265q36 -1 55 -32q18 -32 0 -64q-19 -31 -55 -32q-36 1 -55 32q-18 32 0 64
q19 31 55 32v0zM416 201q-1 -36 -32 -55q-32 -18 -64 0q-31 19 -32 55q1 36 32 55q32 18 64 0q31 -19 32 -55v0zM160 233q14 0 23 -9v0v0q9 -9 9 -23q-1 -19 -16 -28q-6 26 -32 28q-9 0 -16 -4v4q0 14 9 23t23 9v0zM115 183q4 -8 9 -14q2 -2 5 -4q-1 2 -1 4q0 8 6 13
q5 3 10 3q15 -1 16 -16v0v0q-1 -11 -10 -15q5 -1 10 -1q7 0 13 2q15 4 25 17q10 12 10 29q-1 20 -14 34q-14 13 -34 14q-20 -1 -34 -14q-13 -14 -14 -34q0 -9 3 -18v0zM384 201q-1 -19 -16 -28q-5 26 -32 28q-9 0 -16 -4v4q0 14 9 23t23 9t23 -9t9 -23v0zM304 201
q0 -9 3 -18q4 -8 9 -14q2 -2 5 -4q-1 2 -1 4q0 8 6 13q5 3 10 3q15 -1 16 -16q-1 -11 -10 -15q5 -1 10 -1q7 0 13 2q15 4 25 17q10 12 10 29q-1 20 -14 34q-14 13 -34 14q-20 -1 -34 -14q-13 -14 -14 -34v0z" />
</svg>
