<?xml version="1.0" standalone="no"?>
<!DOCTYPE svg PUBLIC "-//W3C//DTD SVG 1.1//EN" "http://www.w3.org/Graphics/SVG/1.1/DTD/svg11.dtd" >
<svg xmlns="http://www.w3.org/2000/svg" xmlns:xlink="http://www.w3.org/1999/xlink" version="1.1" viewBox="-10 -40 532 512">
   <path fill="currentColor"
d="M256 -23q65 1 120 32v0v0q55 32 88 88q32 57 32 120t-32 120q-33 56 -88 88q-55 31 -120 32q-65 -1 -120 -32q-55 -32 -88 -88q-32 -57 -32 -120t32 -120q33 -56 88 -88q55 -31 120 -32v0zM256 473q70 -1 128 -34v0v0q58 -34 94 -94q34 -61 34 -128t-34 -128
q-36 -60 -94 -94q-58 -33 -128 -34q-70 1 -128 34q-58 34 -94 94q-34 61 -34 128t34 128q36 60 94 94q58 33 128 34v0zM192 201q-1 -15 -16 -16q-14 1 -16 16q2 15 16 16q15 -1 16 -16v0zM336 217q15 -1 16 -16q-1 -15 -16 -16q-14 1 -16 16q2 15 16 16v0zM372 102l5 7
l-5 -7l5 7l5 7v0l13 -9v0l-4 -6v0l-5 -8v0q-14 -19 -36 -21q-21 -2 -38 14l-30 29v0l-5 6v0l11 11v0l6 -5v0l29 -30v0q12 -11 26 -9q14 1 24 14h-1zM120 113v16v-16v16h8h72v-16v0h-8h-72zM168 305h-8h8h-8v16v0h8h184v-16v0h-8h-176z" />
</svg>
