<?xml version="1.0" standalone="no"?>
<!DOCTYPE svg PUBLIC "-//W3C//DTD SVG 1.1//EN" "http://www.w3.org/Graphics/SVG/1.1/DTD/svg11.dtd" >
<svg xmlns="http://www.w3.org/2000/svg" xmlns:xlink="http://www.w3.org/1999/xlink" version="1.1" viewBox="-10 -40 532 512">
   <path fill="currentColor"
d="M16 217q1 -67 33 -121v0v0q32 -54 86 -86v0v0q54 -32 121 -33q54 0 99 21l7 -14v0q-49 -23 -106 -23q-72 1 -129 35q-58 34 -92 92q-34 57 -35 129q1 72 35 129q34 58 92 92q57 34 129 35q72 -1 129 -35q58 -34 92 -92q34 -57 35 -129q0 -57 -23 -106l-14 7v0
q21 45 21 99q-1 67 -33 121t-86 86t-121 33q-67 -1 -121 -33t-86 -86t-33 -121v0zM224 345q0 -14 9 -23v0v0q9 -9 23 -9t23 9t9 23t-9 23t-23 9t-23 -9t-9 -23v0zM304 345q-1 -27 -24 -42q-24 -12 -48 0q-23 15 -24 42q1 27 24 42q24 12 48 0q23 -15 24 -42v0zM352 233
q-24 1 -41 -28l-4 -7v0l-14 8v0l4 7v0q21 36 55 36q33 -1 55 -36l4 -7v0l-14 -8v0l-4 7v0q-18 29 -41 28v0zM119 205l-4 -7l4 7l-4 -7l-14 8v0l4 7v0q21 36 55 36q33 -1 55 -36l4 -7v0l-14 -8v0l-4 7v0q-18 29 -41 28q-24 1 -41 -28v0zM288 57v16v-16v16h8h67l-72 58v0l-3 2
v0v4v0v8v0v8v0h8h88v-16v0h-8h-67l72 -58v0l3 -2v0v-4v0v-8v0v-8v0h-8h-88zM424 -39h-8h8h-8v16v0h8h67l-72 58v0l-3 2v0v4v0v8v0v8v0h8h88v-16v0h-8h-67l72 -58v0l3 -2v0v-4v0v-8v0v-8v0h-8h-80z" />
</svg>
