<?xml version="1.0" standalone="no"?>
<!DOCTYPE svg PUBLIC "-//W3C//DTD SVG 1.1//EN" "http://www.w3.org/Graphics/SVG/1.1/DTD/svg11.dtd" >
<svg xmlns="http://www.w3.org/2000/svg" xmlns:xlink="http://www.w3.org/1999/xlink" version="1.1" viewBox="-10 -40 660 512">
   <path fill="currentColor"
d="M560 217q0 -29 -7 -57l13 -13v0q10 34 10 70t-9 68q-8 3 -15 7q-1 0 -1 -1q-1 0 -2 -1q11 -35 11 -73v0zM454 416h1h-1h1v1v0l11 10v0q-63 45 -146 46q-89 -2 -155 -52l11 -12v0q62 47 144 48q76 -1 134 -41v0zM320 -39q62 0 115 27q-2 8 -3 17q-51 -27 -112 -28
q-67 1 -121 33t-86 86t-33 121q0 30 7 59q-8 -5 -18 -8q-5 -25 -5 -51q1 -72 35 -129q34 -58 92 -92q57 -34 129 -35v0zM320 361q-43 -1 -72 -22v0v0q-30 -20 -47 -45l14 -10v0q15 24 42 42q26 18 63 19q37 -1 63 -19q27 -18 42 -42l14 10v0q-17 25 -47 45q-29 21 -72 22v0z
M199 189l-4 7l4 -7l-4 7l-14 -8v0l4 -7v0q21 -35 55 -36q33 1 55 36l4 7v0l-14 8v0l-4 -7v0q-18 -29 -41 -28q-24 -1 -41 28v0zM400 161q-24 -1 -41 28l-4 7v0l-14 -8v0l4 -7v0q21 -35 55 -36q33 1 55 36l4 7v0l-14 8v0l-4 -7v0q-18 -29 -41 -28v0zM48 297q19 0 33 14l7 7v0
l7 -7v0q14 -14 33 -14q21 1 34 14t14 34q0 19 -14 33l-68 69v0l-6 5v0l-6 -5v0l-68 -69v0q-14 -14 -14 -33q1 -21 14 -34t34 -14v0zM16 345q0 13 9 22l63 63v0l63 -63v0q9 -9 9 -22q0 -14 -9 -23t-23 -9q-13 0 -22 9l-12 13v0l-6 5v0l-6 -5v0l-12 -13v0q-9 -9 -22 -9
q-14 0 -23 9t-9 23v0zM464 9q1 -21 14 -34v0v0q13 -13 34 -14q19 0 33 14l7 7v0l7 -7v0q14 -14 33 -14q21 1 34 14t14 34q0 19 -14 33l-68 69v0l-6 5v0l-6 -5v0l-68 -69v0q-14 -14 -14 -33v0zM512 -23q-14 0 -23 9v0v0q-9 9 -9 23q0 13 9 22l63 63v0l63 -63v0q9 -9 9 -22
q0 -14 -9 -23t-23 -9q-13 0 -22 9l-12 13v0l-6 5v0l-6 -5v0l-12 -13v0q-9 -9 -22 -9v0zM545 327l7 7l-7 -7l7 7l7 -7v0q14 -14 33 -14q21 1 34 14t14 34q0 19 -14 33l-68 69v0l-6 5v0l-6 -5v0l-68 -69v0q-14 -14 -14 -33q1 -21 14 -34t34 -14q19 0 33 14v0zM480 361
q0 13 9 22l63 63v0l63 -63v0q9 -9 9 -22q0 -14 -9 -23t-23 -9q-13 0 -22 9l-12 13v0l-6 6v0l-6 -6v0l-12 -13v0q-9 -9 -22 -9q-14 0 -23 9t-9 23v0z" />
</svg>
