<?xml version="1.0" standalone="no"?>
<!DOCTYPE svg PUBLIC "-//W3C//DTD SVG 1.1//EN" "http://www.w3.org/Graphics/SVG/1.1/DTD/svg11.dtd" >
<svg xmlns="http://www.w3.org/2000/svg" xmlns:xlink="http://www.w3.org/1999/xlink" version="1.1" viewBox="-10 -40 532 512">
   <path fill="currentColor"
d="M256 -23q65 1 120 32v0v0q55 32 88 88q32 57 32 120t-32 120q-33 56 -88 88q-55 31 -120 32q-65 -1 -120 -32q-55 -32 -88 -88q-32 -57 -32 -120t32 -120q33 -56 88 -88q55 -31 120 -32v0zM256 473q70 -1 128 -34v0v0q58 -34 94 -94q34 -61 34 -128t-34 -128
q-36 -60 -94 -94q-58 -33 -128 -34q-70 1 -128 34q-58 34 -94 94q-34 61 -34 128t34 128q36 60 94 94q58 33 128 34v0zM336 276l26 34l-26 -34l26 34q6 8 6 19q0 14 -9 23t-23 9t-23 -9t-9 -23q0 -11 6 -19l26 -34v0zM326 262l-28 38l28 -38l-28 38q-10 13 -10 29
q1 20 14 34q14 14 34 14t34 -14q13 -14 14 -34q0 -16 -10 -29l-28 -38v0l-10 -13v0l-10 13v0zM176 185q15 -1 16 -16q-1 -15 -16 -16q-14 1 -16 16q2 15 16 16v0zM352 169q-1 -15 -16 -16q-14 1 -16 16q2 15 16 16q15 -1 16 -16v0zM151 284l-5 -6l5 6l-5 -6l-13 9v0l5 7v0
q16 25 46 45q30 21 72 22h8v0v-16v0h-8v0q-37 -1 -63 -19q-27 -18 -42 -42v0z" />
</svg>
