<?xml version="1.0" standalone="no"?>
<!DOCTYPE svg PUBLIC "-//W3C//DTD SVG 1.1//EN" "http://www.w3.org/Graphics/SVG/1.1/DTD/svg11.dtd" >
<svg xmlns="http://www.w3.org/2000/svg" xmlns:xlink="http://www.w3.org/1999/xlink" version="1.1" viewBox="-10 -40 660 512">
   <path fill="currentColor"
d="M320 -23q89 2 153 55v0v0q65 54 83 139l15 -4v0q-19 -90 -87 -147q-69 -57 -164 -59q-95 2 -164 59q-68 57 -87 148l16 3v0q17 -85 82 -139q64 -53 153 -55v0zM259 449l-4 16l4 -16l-4 16q31 8 65 8t65 -8l-4 -16v0q-29 8 -61 8t-61 -8v0zM256 326v-27v27v-27v-20v0v-16
v0h-16h-56v13v0l-57 -58v0l-12 -11v0l-11 -11v0l-11 11v0l-21 21v0l-5 -5v0l-11 -11v0l-11 11v0l-23 23v0l-11 11v0l11 11v0l5 5v0l-21 21v0l-6 6v0v10v0l6 6v0l11 12v0l10 9v0l-21 21v0l-6 6v0v10v0l6 6v0l11 12v0l49 48v0q33 32 78 33h1v0q47 -1 79 -33q31 -31 32 -78v-13
v0v-5v0q27 16 64 17q37 -1 64 -17v5v0v13v0q1 47 32 78q32 32 79 33h1v0q45 -1 78 -33l49 -48v0l11 -12v0l6 -6v0v-10v0l-6 -6v0l-21 -21v0l10 -9v0l11 -12v0l6 -6v0v-10v0l-6 -6v0l-21 -21v0l5 -5v0l11 -11v0l-11 -11v0l-23 -23v0l-11 -11v0l-11 11v0l-5 5v0l-21 -21v0
l-11 -11v0l-11 11v0l-12 11v0l-57 58v0v-13v0h-16h-56v16v0v20v0v27v0q-27 18 -64 19q-37 -1 -64 -19v0zM200 187q4 -22 15 -40t25 -18q13 0 25 18q11 18 15 40l16 -3v0q-5 -24 -18 -46t-38 -25q-26 3 -39 25t-17 46l15 3h1zM375 147q11 -18 25 -18q13 0 25 18q11 18 15 40
l16 -3v0q-5 -24 -18 -46t-38 -25q-26 3 -39 25t-17 46l16 3v0q3 -22 15 -40v0zM128 306l11 12l-11 -12l11 12l10 -10v0l-12 -11v0l-44 -45v0l-12 -11v0l2 -2v0l10 -9v0l11 -12v0l11 12v0l69 68v0l1 1v0l15 15v0v-15v0v-4v0v-3v0v-13v0h16h24v16v0v4v0v30v0v20v0v13v0
q-1 40 -28 67t-67 28q-39 -1 -67 -28l-49 -49v0l-12 -11v0l12 -11v0l9 -10v0l2 -2v0l11 12v0l13 12v0l11 12v0l10 -10v0l-12 -11v0l-12 -13v0l-12 -11v0l-11 -11v0l-9 -10v0l-12 -11v0l12 -11v0l9 -10v0l2 -2v0l11 12v0l45 44v0l11 12v0l10 -10v0l-12 -11v0l-44 -45v0
l-12 -11v0l-4 -5v0l-7 -6v0l-5 -5v0l12 -11v0l11 -12v0l5 5v0l6 7v0l5 4v0l11 12v0l45 44v0zM512 306l45 -44l-45 44l45 -44l11 -12v0l5 -4v0l6 -7v0l5 -5v0l11 12v0l12 11v0l-5 5v0l-7 6v0l-4 5v0l-12 11v0l-44 45v0l-12 11v0l10 10v0l11 -12v0l45 -44v0l11 -12v0l2 2v0
l9 10v0l12 11v0l-12 11v0l-9 10v0l-11 11v0l-12 11v0l-12 13v0l-12 11v0l10 10v0l11 -12v0l13 -12v0l11 -12v0l2 2v0l9 10v0l12 11v0l-12 11v0l-48 49v0q-29 27 -68 28q-40 -1 -67 -28t-28 -67v-13v0v-20v0v-30v0v-4v0v-16v0h16h24v13v0v3v0v4v0v15v0l15 -15v0l1 -1v0
l69 -68v0l11 -12v0l11 12v0l10 9v0l2 2v0l-12 11v0l-44 45v0l-12 11v0l10 10v0l11 -12v0z" />
</svg>
