<?xml version="1.0" standalone="no"?>
<!DOCTYPE svg PUBLIC "-//W3C//DTD SVG 1.1//EN" "http://www.w3.org/Graphics/SVG/1.1/DTD/svg11.dtd" >
<svg xmlns="http://www.w3.org/2000/svg" xmlns:xlink="http://www.w3.org/1999/xlink" version="1.1" viewBox="-10 -40 586 512">
   <path fill="currentColor"
d="M288 -23q-67 1 -121 33v0v0q-54 32 -86 86v0v0q-32 54 -33 121q1 67 33 121t86 86t121 33q84 -1 146 -50q62 -48 85 -125l21 -20v0q-18 92 -87 151q-69 58 -165 60q-72 -1 -129 -35q-58 -34 -92 -92q-34 -57 -35 -129q1 -72 35 -129q34 -58 92 -92q57 -34 129 -35
q74 1 133 37q58 36 92 97q-9 -1 -18 1q-32 -54 -86 -86t-121 -33v0zM483 146q12 -12 29 -11v0v0q16 0 29 12q13 13 12 30q0 17 -13 30l-139 133v0l6 8l-14 10v0q-15 -24 -42 -42q-26 -18 -63 -19q-37 1 -63 19q-27 18 -42 42l-13 -10v0q16 -25 46 -45q30 -21 72 -22
q25 0 46 8l149 -143v0zM438 282l-12 -11l12 11l-12 -11l-5 -6v0l11 -11v0l6 5v0l12 12v0l21 -20v0l-12 -12v0l-6 -6v0l11 -11v0l6 5v0l12 13v0l22 -20v0l-14 -13v0l-5 -6v0l11 -11v0l6 5v0l13 14v0l15 -14v0q7 -8 8 -18q0 -11 -8 -19q-18 -15 -36 0l-145 138v0q24 14 41 32
l15 -14v0l-11 -11v0l-5 -6v0l11 -11v0l6 5v0l11 12v0l21 -21v0zM208 153q15 1 16 16q-1 15 -16 16q-14 -1 -16 -16q2 -15 16 -16v0zM352 169q2 -15 16 -16q15 1 16 16q-1 15 -16 16q-14 -1 -16 -16v0z" />
</svg>
