<?xml version="1.0" standalone="no"?>
<!DOCTYPE svg PUBLIC "-//W3C//DTD SVG 1.1//EN" "http://www.w3.org/Graphics/SVG/1.1/DTD/svg11.dtd" >
<svg xmlns="http://www.w3.org/2000/svg" xmlns:xlink="http://www.w3.org/1999/xlink" version="1.1" viewBox="-10 -40 532 512">
   <path fill="currentColor"
d="M16 217q1 -67 33 -121v0v0q32 -54 86 -86v0v0q54 -32 121 -33q67 1 121 33t86 86t33 121q0 16 -2 32q-8 57 -40 103q-31 46 -80 74q-5 13 -13 25q60 -28 100 -80q39 -52 49 -120q2 -17 2 -34q-1 -72 -35 -129q-34 -58 -92 -92q-57 -34 -129 -35q-72 1 -129 35
q-58 34 -92 92q-34 57 -35 129v2v2q2 78 43 138q41 61 108 92q-8 -12 -13 -25q-49 -28 -80 -74q-32 -46 -40 -103q-2 -16 -2 -32v0zM352 281h40h-40h40q-4 53 -40 88v-88v0zM256 473q37 -1 63 -23v0v0q26 -23 32 -58q26 -21 42 -52q15 -31 15 -67v-8v0h-8h-296v8v0
q0 36 16 67q15 31 41 52q6 35 32 58q26 22 63 23v0zM120 281h40h-40h40v88v0q-36 -35 -40 -88v0zM192 281h128h-128h144v16v0v80v0q-1 34 -23 57q-23 22 -57 23q-34 -1 -57 -23q-22 -23 -23 -57v-80v0v-16v0h16v0zM240 340q3 -2 9 -3q14 0 26 3l8 2v0l4 -15v0l-8 -2v0
q-6 -2 -15 -3v-9v0v-8v0h-16v0v8v0v8v0h-1v0q-8 1 -16 6t-11 16q-1 8 2 15q4 7 9 10q11 6 22 9h1v0q12 3 18 7q3 1 4 3v5q-1 6 -5 7q-3 2 -10 2v0v0h-1v0q-16 -1 -30 -6l-7 -2v0l-5 15v0l8 2v0v0q9 3 22 6v6v0v8v0h16v0v-8v0v-5v0q8 0 15 -4q10 -6 13 -18q1 -8 -2 -15
q-4 -6 -9 -10q-11 -6 -22 -8l-1 -1v0q-12 -3 -18 -6q-3 -2 -3 -4q-1 -1 -1 -5q1 -4 4 -6v0zM184 62v-8v8v-8h-16v0v8v0v11v0q-10 1 -17 5q-17 7 -21 24q-2 10 2 18q4 7 12 12q13 7 29 11l1 1v0q16 4 26 10q4 3 5 6q2 3 1 10q-1 8 -11 12t-28 2q-9 -2 -22 -7v0v0v0v0v0v0
q-3 0 -5 -1l-8 -3v0l-4 16v0l7 2v0q1 0 2 1h2v0v0v0q13 5 26 8v0v0h1h2v11v0v9v0h16v0v-8v0v-11v0q9 -1 17 -4q17 -7 21 -25q1 -10 -2 -18q-4 -8 -11 -13q-14 -9 -31 -13v0v0q-17 -4 -26 -9q-4 -3 -6 -6q-1 -3 0 -9q1 -7 11 -11q10 -5 27 -3q3 0 9 2q6 1 10 2l4 -16v0
q-4 -1 -11 -2q-6 -1 -9 -2h-3v0v-12v0zM344 54h-16h16h-16v8v0v11v0q-10 1 -17 5q-17 7 -21 24q-2 10 2 18q4 7 12 12q13 7 29 11l1 1v0q16 4 26 10q4 3 5 6q2 3 1 10q-1 8 -11 12t-28 2q-9 -2 -22 -7v0v0q-3 0 -5 -1l-8 -3v0l-4 16v0l7 2v0q1 0 2 1h2v0v0v0q13 5 26 8v0v0
h3v11v0v9v0h16v0v-8v0v-11v0q9 -1 17 -4q17 -7 21 -25q1 -10 -2 -18q-4 -8 -11 -13q-14 -9 -31 -13v0v0q-17 -4 -26 -9q-4 -3 -6 -6q-1 -3 0 -9q1 -7 11 -11q10 -5 27 -3q3 0 9 2q6 1 10 2l4 -16v0q-4 -1 -11 -2q-6 -1 -9 -2h-2h-1v-12v0v-8v0z" />
</svg>
