<?xml version="1.0" standalone="no"?>
<!DOCTYPE svg PUBLIC "-//W3C//DTD SVG 1.1//EN" "http://www.w3.org/Graphics/SVG/1.1/DTD/svg11.dtd" >
<svg xmlns="http://www.w3.org/2000/svg" xmlns:xlink="http://www.w3.org/1999/xlink" version="1.1" viewBox="-10 -40 532 512">
   <path fill="currentColor"
d="M496 217q-1 -65 -32 -120v0v0q-32 -55 -88 -88q-57 -32 -120 -32t-120 32q-56 33 -88 88q-31 55 -32 120q1 65 32 120q32 55 88 88q57 32 120 32t120 -32q56 -33 88 -88q31 -55 32 -120v0zM0 217q1 -70 34 -128v0v0q34 -58 94 -94q61 -34 128 -34t128 34q60 36 94 94
q33 58 34 128q-1 70 -34 128q-34 58 -94 94q-61 34 -128 34t-128 -34q-60 -36 -94 -94q-33 -58 -34 -128v0zM96 153h8h-8h80q14 0 23 9t9 23t-9 23t-23 9t-23 -9t-9 -23q0 -9 4 -16h-44h-8v-16v0zM160 185q1 15 16 16q15 -1 16 -16q-1 -15 -16 -16q-15 1 -16 16v0zM296 153
h72h-72h72q14 0 23 9t9 23t-9 23t-23 9t-23 -9t-9 -23q0 -9 4 -16h-44h-8v-16v0h8v0zM368 169q-15 1 -16 16q1 15 16 16q15 -1 16 -16q-1 -15 -16 -16v0zM322 358q-9 -11 -26 -20v0v0q-17 -9 -40 -9t-40 9t-26 20l-5 6v0l-12 -10v0l5 -6v0q11 -13 31 -24q19 -10 47 -11
q28 1 47 11q20 11 31 24l5 6v0l-12 10v0l-5 -6v0z" />
</svg>
