<?xml version="1.0" standalone="no"?>
<!DOCTYPE svg PUBLIC "-//W3C//DTD SVG 1.1//EN" "http://www.w3.org/Graphics/SVG/1.1/DTD/svg11.dtd" >
<svg xmlns="http://www.w3.org/2000/svg" xmlns:xlink="http://www.w3.org/1999/xlink" version="1.1" viewBox="-10 -40 532 512">
   <path fill="currentColor"
d="M496 217q-1 -65 -32 -120v0v0q-32 -55 -88 -88q-57 -32 -120 -32t-120 32q-56 33 -88 88q-31 55 -32 120q1 65 32 120q32 55 88 88q57 32 120 32t120 -32q56 -33 88 -88q31 -55 32 -120v0zM0 217q1 -70 34 -128v0v0q34 -58 94 -94q61 -34 128 -34t128 34q60 36 94 94
q33 58 34 128q-1 70 -34 128q-34 58 -94 94q-61 34 -128 34t-128 -34q-60 -36 -94 -94q-33 -58 -34 -128v0zM199 77q-22 30 -46 47v0v0q-24 16 -38 21l-8 2v0l-5 -15v0l8 -3v0q12 -3 34 -18t41 -42l5 -7v0l13 9v0l-4 7v-1zM218 191l-8 2l8 -2l-8 2l-64 16v0l-8 2v0l-4 -16v0
l8 -2v0l64 -16v0l8 -2v0l4 16v0zM406 303l-40 39l40 -39l-40 39q-19 19 -46 19q-18 0 -34 -10l-14 -9v0q-33 -19 -68 -6q-45 17 -85 -9l-11 -7v0l-7 -5v0l9 -13v0l7 4v0l11 8v0q33 21 70 7q43 -16 82 8l15 9v0q11 7 26 7q20 0 34 -14l40 -40v0l5 -5v0l11 11v0l-5 6v0z
M321 127q-9 16 -9 42t9 42q8 15 15 14q7 1 16 -14q8 -16 8 -42t-8 -42q-9 -15 -16 -14q-7 -1 -15 14v0zM306 120q10 -21 30 -23q20 2 30 23q10 20 10 49t-10 49q-10 21 -30 23q-20 -2 -30 -23q-10 -20 -10 -49t10 -49v0z" />
</svg>
