<?xml version="1.0" standalone="no"?>
<!DOCTYPE svg PUBLIC "-//W3C//DTD SVG 1.1//EN" "http://www.w3.org/Graphics/SVG/1.1/DTD/svg11.dtd" >
<svg xmlns="http://www.w3.org/2000/svg" xmlns:xlink="http://www.w3.org/1999/xlink" version="1.1" viewBox="-10 -40 532 512">
   <path fill="currentColor"
d="M256 -23q-67 1 -121 33v0v0q-54 32 -86 86v0v0q-32 54 -33 121q1 76 42 135q40 59 107 87q3 11 10 21q-78 -27 -126 -92t-49 -151q1 -72 35 -129q34 -58 92 -92q57 -34 129 -35q72 1 129 35q58 34 92 92q34 57 35 129q-1 86 -49 151t-125 92q6 -10 9 -21q67 -28 107 -87
q41 -59 42 -135q-1 -67 -33 -121t-86 -86t-121 -33v0zM312 169q24 -1 40 -16v0v0q15 -16 16 -40q0 -21 -14 -36q-13 -16 -33 -19q14 11 15 31q0 17 -12 28q-11 12 -28 12q-29 -2 -38 -29q-2 6 -2 13q1 24 16 40q16 15 40 16v0zM312 41q41 1 62 36q20 36 0 72q-21 35 -62 36
q-41 -1 -62 -36q-20 -36 0 -72q21 -35 62 -36v0zM184 329h8h-8h59l3 2v0l10 11v0l10 -11v0l3 -2v0h3h56v8v0v64v0q-1 31 -21 51t-51 21q-31 -1 -51 -21t-21 -51v-64v0v-8v0zM248 356l-11 -11l11 11l-11 -11h-37v0v56v0q1 24 16 40q16 15 40 16q24 -1 40 -16q15 -16 16 -40
v-56v0h-37v0l-11 11v0v29v0v8v0h-16v0v-8v0v-29v0zM176 185q-1 -27 -24 -42q-24 -12 -48 0q-23 15 -24 42q1 27 24 42q24 12 48 0q23 -15 24 -42v0zM64 185q1 -36 32 -55q32 -18 64 0q31 19 32 55q-1 36 -32 55q-32 18 -64 0q-31 -19 -32 -55v0zM296 113q22 -2 24 -24
q-2 -22 -24 -24q-22 2 -24 24q2 22 24 24v0zM128 169q15 1 16 16q-1 15 -16 16q-15 -1 -16 -16q1 -15 16 -16v0zM387 190l4 7l-4 -7l4 7q17 31 17 68q-2 68 -50 110l-7 5v0l-10 -12v0l6 -6v0q43 -37 45 -97q0 -29 -11 -53l-226 120v0q5 8 11 15l5 6v0l-13 10v0l-5 -6v0
q-9 -11 -16 -24l-4 -7v0l7 -4v0l240 -128v0l7 -4v0z" />
</svg>
