<?xml version="1.0" standalone="no"?>
<!DOCTYPE svg PUBLIC "-//W3C//DTD SVG 1.1//EN" "http://www.w3.org/Graphics/SVG/1.1/DTD/svg11.dtd" >
<svg xmlns="http://www.w3.org/2000/svg" xmlns:xlink="http://www.w3.org/1999/xlink" version="1.1" viewBox="-10 -40 468 512">
   <path fill="currentColor"
d="M288 -39h-1h1h-2l-224 72v0l-6 2v0v6v0v208v0h-40h-16v16v0v192v0v16v0h16h112v-16v0v-192v0v-16v0h-16h-40v-202v0l217 -70v0h55v0v136v0v8v0h16v0v-8v0v-144v0v-8v0h-8h-64zM16 265h96h-96h96v192v0h-96v0v-192v0zM352 168l-4 2l4 -2l-4 2q-25 12 -57 47t-35 96
q0 25 12 53q13 28 44 53l-25 42v0l-8 12v0h14h132l-7 -12v0l-26 -42v0q31 -25 44 -53q12 -28 12 -53q-3 -61 -35 -96t-57 -47l-4 -2v0zM352 186q24 13 51 44v0v0q27 31 29 83q0 23 -12 48q-12 26 -43 50l-6 4v0l3 6v0l22 36v0h-88v0l22 -36v0l3 -6v0l-6 -4v0
q-31 -24 -43 -50q-12 -25 -12 -48q2 -52 29 -83t51 -44v0zM368 281q15 -1 16 -16q-1 -15 -16 -16q-15 1 -16 16q1 15 16 16v0z" />
</svg>
