<?xml version="1.0" standalone="no"?>
<!DOCTYPE svg PUBLIC "-//W3C//DTD SVG 1.1//EN" "http://www.w3.org/Graphics/SVG/1.1/DTD/svg11.dtd" >
<svg xmlns="http://www.w3.org/2000/svg" xmlns:xlink="http://www.w3.org/1999/xlink" version="1.1" viewBox="-10 -40 660 512">
   <path fill="currentColor"
d="M8 -7h-8h8h-8v8v0v432v0q1 7 8 8q7 -1 8 -8v-424v0h608v0v424v0v8v0h16v0v-8v0v-432v0v-8v0h-8h-624zM160 57h-16h16h-16v64v0h-80v0v16v0h80v0v96v0h-80v0v16v0h80v0v96v0h-80v0v16v0h80v0v80v0h16v0v-80v0h96v0v80v0h16v0v-80v0h96v0v80v0h16v0v-80v0h96v0v80v0h16v0
v-80v0h80v0v-16v0h-80v0v-96v0h80v0v-16v0h-80v0v-96v0h80v0v-16v0h-80v0v-64v0h-16v0v64v0h-96v0v-64v0h-16v0v64v0h-96v0v-64v0h-16v0v64v0h-96v0v-64v0zM160 137h96h-96h96v96v0h-96v0v-96v0zM272 137h96h-96h96v96v0h-96v0v-96v0zM384 137h96h-96h96v96v0h-96v0v-96v0z
M160 345v-96v96v-96h96v0v96v0h-96v0zM272 345v-96v96v-96h96v0v96v0h-96v0zM384 345v-96v96v-96h96v0v96v0h-96v0z" />
</svg>
