<?xml version="1.0" standalone="no"?>
<!DOCTYPE svg PUBLIC "-//W3C//DTD SVG 1.1//EN" "http://www.w3.org/Graphics/SVG/1.1/DTD/svg11.dtd" >
<svg xmlns="http://www.w3.org/2000/svg" xmlns:xlink="http://www.w3.org/1999/xlink" version="1.1" viewBox="-10 -40 532 512">
   <path fill="currentColor"
d="M128 -36l11 6l-11 -6l11 6l240 112v0l16 7v0l-16 7v0l-235 110v0v70v0q51 -11 112 -11q109 1 181 30q72 30 75 74q-3 44 -75 74q-72 29 -181 30q-109 -1 -181 -30q-72 -30 -75 -74q1 -25 26 -46q26 -21 70 -35v17v0q-8 2 -15 5q-33 14 -50 30q-16 16 -15 29q-1 13 15 29
q17 16 50 30q69 28 175 29q106 -1 175 -29q33 -14 50 -30q16 -16 15 -29q1 -13 -15 -29q-17 -16 -50 -30q-69 -28 -175 -29q-61 0 -112 11v51v0q28 -21 80 -22q41 1 68 14q27 14 28 34q-1 20 -28 34q-27 13 -68 14q-36 0 -62 -11q-26 -12 -33 -29h-1v0v-8v0v-74v0v-16v0v-78
v0v-224v0v-13v0zM144 369q-2 7 19 20q23 11 61 12q38 -1 61 -12q21 -13 19 -20q2 -7 -19 -20q-23 -11 -61 -12q-38 1 -61 12q-21 13 -19 20v0zM144 188l213 -99l-213 99l213 -99l-213 -99v0v198v0z" />
</svg>
