<?xml version="1.0" standalone="no"?>
<!DOCTYPE svg PUBLIC "-//W3C//DTD SVG 1.1//EN" "http://www.w3.org/Graphics/SVG/1.1/DTD/svg11.dtd" >
<svg xmlns="http://www.w3.org/2000/svg" xmlns:xlink="http://www.w3.org/1999/xlink" version="1.1" viewBox="-10 -40 650 512">
   <path fill="currentColor"
d="M328 -7h-8h8h-8v16v0h8h74l60 201v0q-53 21 -79 71h-111h-16v-16v0v-96v0v-16v0h-16h-112q-54 1 -91 37q-36 37 -37 91v48v0v16v0h16h48q1 41 28 68t68 28q41 -1 68 -28t28 -68h112h16q1 -54 37 -91q37 -36 91 -37q55 1 91 38l11 -12v0q-41 -40 -102 -42q-18 0 -35 4
l-31 -104v0l54 27v0l2 1v0h2h24v-8v0v-96v0v-8v0h-8h-18l-2 1v0l-64 32v0l-4 2v0l-16 -53v0l-2 -6v0h-6h-80zM369 329h-353h353h-353v-48v0q1 -48 33 -79q31 -32 79 -33h112v0v112v0v16v0h16h120q-5 15 -7 32v0zM444 82l-4 -2l4 2l-4 -2l-4 -14v0v2v0l8 -4v0l62 -31v0h6v0
v80v0h-6v0l-62 -31v0zM240 89v32v-32v32h-128v0v-32v0h128v0zM112 73h-16h16h-16v16v0v32v0v16v0h16h144v-16v0v-32v0v-16v0h-16h-128zM80 345h160h-160h160q-1 34 -23 57q-23 22 -57 23q-34 -1 -57 -23q-22 -23 -23 -57v0zM512 265q45 1 69 40q22 40 0 80q-24 39 -69 40
q-45 -1 -69 -40q-22 -40 0 -80q24 -39 69 -40v0zM512 441q26 0 48 -13v0v0q22 -13 35 -35q13 -23 13 -48t-13 -48q-13 -22 -35 -35t-48 -13t-48 13t-35 35q-13 23 -13 48t13 48q13 22 35 35t48 13v0z" />
</svg>
