<?xml version="1.0" standalone="no"?>
<!DOCTYPE svg PUBLIC "-//W3C//DTD SVG 1.1//EN" "http://www.w3.org/Graphics/SVG/1.1/DTD/svg11.dtd" >
<svg xmlns="http://www.w3.org/2000/svg" xmlns:xlink="http://www.w3.org/1999/xlink" version="1.1" viewBox="-10 -40 660 512">
   <path fill="currentColor"
d="M80 89v96v-96v96h-16v0v-96v0q1 -54 37 -91q37 -36 91 -37q54 1 91 37q36 37 37 91v96v0h-16v0v-96v0q-1 -48 -33 -79q-31 -32 -79 -33q-48 1 -79 33q-32 31 -33 79v0zM631 457q8 15 9 16h-18h-334q1 -1 9 -16q12 -21 25 -53t14 -59v-32v0q1 -54 37 -91q37 -36 91 -37
q54 1 91 37q36 37 37 91v32v0q1 27 14 59t25 53v0zM613 457q-5 -10 -11 -23q-10 -20 -18 -44t-8 -45v-32v0q-1 -48 -33 -79q-31 -32 -79 -33q-48 1 -79 33q-32 31 -33 79v32v0q0 21 -8 45t-17 44q-7 13 -12 23h298v0zM464 250l7 14l-7 -14l7 14q20 39 65 41h7l10 -1v0l-1 9
v0q-4 35 -29 57q-24 22 -59 23q-35 -1 -59 -23q-25 -22 -29 -57v-9v0l9 1v0h7q45 -2 65 -41l7 -14v0zM464 284q-25 35 -70 37q6 25 25 40q19 16 45 16t45 -16q19 -15 25 -40q-45 -2 -70 -37v0zM191 -3l7 15l-7 -15l7 15q20 38 65 40h7l9 -1v0l-1 9v0q-4 35 -28 57t-59 23
q-35 -1 -60 -23q-24 -22 -28 -57l-1 -9v0l10 1v0h7q45 -2 65 -40l7 -15v0zM191 31q-25 35 -70 37q5 25 25 40q19 16 45 16t45 -16q19 -15 25 -40q-45 -2 -70 -37v0zM55 457h205h-205h205l-9 16v0h-203v0q-3 0 -24 -34q-21 -33 -24 -94q1 -33 12 -63q12 -30 26 -56v0v0
q1 -3 3 -6q1 -2 1 -3h294v0q-6 8 -11 16h-273v0q-14 26 -25 54q-10 28 -11 58q3 56 22 86q10 18 17 26v0z" />
</svg>
