<?xml version="1.0" standalone="no"?>
<!DOCTYPE svg PUBLIC "-//W3C//DTD SVG 1.1//EN" "http://www.w3.org/Graphics/SVG/1.1/DTD/svg11.dtd" >
<svg xmlns="http://www.w3.org/2000/svg" xmlns:xlink="http://www.w3.org/1999/xlink" version="1.1" viewBox="-10 -40 532 512">
   <path fill="currentColor"
d="M512 -39h-512h512h-512v16v0h512v0v-16v0zM208 73v384v-384v384h-128v0v-384v0h128v0zM80 57h-16h16h-16v16v0v384v0v16v0h16h144v-16v0v-384v0v-16v0h-16h-128zM432 73v256v-256v256h-128v0v-256v0h128v0zM304 57h-16h16h-16v16v0v256v0v16v0h16h144v-16v0v-256v0v-16v0
h-16h-128z" />
</svg>
