<?xml version="1.0" standalone="no"?>
<!DOCTYPE svg PUBLIC "-//W3C//DTD SVG 1.1//EN" "http://www.w3.org/Graphics/SVG/1.1/DTD/svg11.dtd" >
<svg xmlns="http://www.w3.org/2000/svg" xmlns:xlink="http://www.w3.org/1999/xlink" version="1.1" viewBox="-10 -40 660 512">
   <path fill="currentColor"
d="M499 -39h-4h4h-4l-3 3v0l-236 309v0v-80v0v-8v0h-8h-248v8v0v128v0q2 65 45 107q42 43 107 45h10v0q39 0 72 -18q34 -19 55 -51l246 -379v0h97h8v-8v0v-48v0v-8v0h-8h-133zM367 154l136 -177l-136 177l136 -177h121v0v32v0h-93h-5l-2 4v0l-113 174v0l-44 -33v0zM357 167
l45 34l-45 -34l45 34l-126 194v0q-19 29 -49 46q-30 16 -65 16h-10v0q-58 -1 -96 -40q-39 -38 -40 -96v-120v0h224v0v96v0v24v0l14 -19v0l103 -135v0z" />
</svg>
