<?xml version="1.0" standalone="no"?>
<!DOCTYPE svg PUBLIC "-//W3C//DTD SVG 1.1//EN" "http://www.w3.org/Graphics/SVG/1.1/DTD/svg11.dtd" >
<svg xmlns="http://www.w3.org/2000/svg" xmlns:xlink="http://www.w3.org/1999/xlink" version="1.1" viewBox="-12 0 534 512">
   <path fill="currentColor"
d="M370 -39l-7 32l7 -32l-7 32h-267h-7l-1 7v0l-88 464v0l-2 9v0h10h504v-16v0h-8h-24v-136v0v-5v0l-5 -2v0l-154 -62v0l65 -291v0h-16v0zM202 9h157h-157h157l-32 144v0h-71h-8v16v0h8h67l-17 80v0h-82h-8v16v0h8h87l153 61v0v131v0h-446v0l41 -216v0h90h7l1 -6v0l45 -226
v0zM186 9l-44 216l44 -216l-44 216h-80v0l41 -216v0h83v0z" />
</svg>
