<?xml version="1.0" standalone="no"?>
<!DOCTYPE svg PUBLIC "-//W3C//DTD SVG 1.1//EN" "http://www.w3.org/Graphics/SVG/1.1/DTD/svg11.dtd" >
<svg xmlns="http://www.w3.org/2000/svg" xmlns:xlink="http://www.w3.org/1999/xlink" version="1.1" viewBox="-10 -40 660 512">
   <path fill="currentColor"
d="M385 -39l-5 32l5 -32l-5 32h-220h-7l-1 7v0l-72 368v0l-2 9v0h10h392v-8v0v-120v0v-5v0l-5 -2v0l-114 -54v0l41 -227v0h-17v0zM259 9h118h-118h118l-20 112v0h-61h-8v16v0h8h58l-9 48v0h-65h-8v16v0h8h70l114 53v0v107v0h-366v0l31 -160v0h7h83l2 -6v0l38 -184v0v-2v0z
M243 9l-37 176l37 -176l-37 176h-70h-4l35 -176v0h76v0zM640 385v-8v8v-8h-16v0v8v0v72v0h-616h-8v16v0h8h632v-8v0v-80v0z" />
</svg>
