<?xml version="1.0" standalone="no"?>
<!DOCTYPE svg PUBLIC "-//W3C//DTD SVG 1.1//EN" "http://www.w3.org/Graphics/SVG/1.1/DTD/svg11.dtd" >
<svg xmlns="http://www.w3.org/2000/svg" xmlns:xlink="http://www.w3.org/1999/xlink" version="1.1" viewBox="-10 -40 660 512">
   <path fill="currentColor"
d="M0 33v368v-368v368v8v0h16v0v-8v0v-368v0v-8v0h-16v0v8v0zM128 217l6 6l-6 -6l6 6l152 152v0l5 5v0l12 -11v0l-6 -6v0l-138 -138v0h473h8v-16v0h-8h-473l138 -138v0l6 -6v0l-12 -11v0l-5 5v0l-152 152v0l-6 6v0z" />
</svg>
