<?xml version="1.0" standalone="no"?>
<!DOCTYPE svg PUBLIC "-//W3C//DTD SVG 1.1//EN" "http://www.w3.org/Graphics/SVG/1.1/DTD/svg11.dtd" >
<svg xmlns="http://www.w3.org/2000/svg" xmlns:xlink="http://www.w3.org/1999/xlink" version="1.1" viewBox="-10 -40 661 512">
   <path fill="currentColor"
d="M605 27q-27 -39 -71 -48v0v0q-44 -9 -84 17l-89 59v0l61 60v0l5 6v0l-11 11v0l-6 -5v0l-62 -63v0l-102 68v0l64 63v0l5 6v0l-11 11v0l-6 -5v0l-66 -66v0l-101 68v0l67 66v0l5 6v0l-11 11v0l-6 -5v0l-69 -70v0l-51 35v0q-39 27 -48 71t17 84q27 39 71 48t84 -17l384 -256
v0q39 -27 48 -71t-17 -84v0zM619 18q29 46 19 96v0v0q-11 50 -55 82l-384 256v0q-46 29 -96 19q-50 -11 -81 -55q-30 -46 -19 -96q10 -50 54 -81l384 -256v0q46 -30 96 -19q50 10 82 54v0z" />
</svg>
