<?xml version="1.0" standalone="no"?>
<!DOCTYPE svg PUBLIC "-//W3C//DTD SVG 1.1//EN" "http://www.w3.org/Graphics/SVG/1.1/DTD/svg11.dtd" >
<svg xmlns="http://www.w3.org/2000/svg" xmlns:xlink="http://www.w3.org/1999/xlink" version="1.1" viewBox="-10 -40 468 512">
   <path fill="currentColor"
d="M128 9v80v-80v80h88h104v-80v0h-192v0zM112 89v-80v80v-80h-96v0v80v0h96v0zM16 105v104v-104v104h200v0v-104v0h-200v0zM16 329h96h-96h96v-104v0h-96v0v104v0zM16 345v80v-80v80h200v0v-80v0h-88h-112zM128 329h192h-192h192v-104v0h-192v0v104v0zM336 329h96h-96h96
v-104v0h-96v0v104v0zM432 345h-96h96h-200v80v0h200v0v-80v0zM432 105h-200h200h-200v104v0h200v0v-104v0zM432 89v-80v80v-80h-96v0v80v0h96v0zM0 -7h16h-16h448v16v0v416v0v16v0h-16h-432v-16v0v-416v0v-16v0z" />
</svg>
