<?xml version="1.0" standalone="no"?>
<!DOCTYPE svg PUBLIC "-//W3C//DTD SVG 1.1//EN" "http://www.w3.org/Graphics/SVG/1.1/DTD/svg11.dtd" >
<svg xmlns="http://www.w3.org/2000/svg" xmlns:xlink="http://www.w3.org/1999/xlink" version="1.1" viewBox="-10 -40 661 512">
   <path fill="currentColor"
d="M160 9v80v-80v80h88h104v-80v0h-192v0zM144 89v-80v80v-80h-96v0v80v0h96v0zM48 105v104v-104v104h200v0v-104v0h-200v0zM48 329h96h-96h96v-104v0h-96v0v104v0zM48 345v80v-80v80h200v0v-80v0h-88h-112zM160 329h129h-129h129q0 8 2 16h-27v0v80v0h60v0q6 8 13 16h-289
h-16v-16v0v-416v0v-16v0h16h432v16v0v99v0l-19 -19v0h3v0v-80v0h-96v0v80v0h71v0l-8 5v0q-8 5 -16 11h-151v0v104v0h54v0l-8 16h-150v0v104v0zM501 174l11 11l-11 -11l11 11l11 -11v0l21 -21v0q56 50 77 94q20 45 19 66q-2 68 -47 113t-113 47q-68 -2 -113 -47t-47 -113
q1 -45 24 -83q22 -39 52 -67q29 -28 52 -42l53 53v0zM576 384q0 27 -16 49q29 -20 47 -51q17 -31 17 -69q1 -16 -15 -55q-17 -38 -64 -83l-22 22v0l-11 11v0l-11 -11v0l-55 -55v0q-31 21 -65 62q-20 24 -32 51q-13 28 -13 58q0 38 17 69q18 31 47 51q-16 -22 -16 -49
q2 -36 25 -67q23 -30 46 -49q23 -18 25 -19q2 1 25 19q23 19 46 49q23 31 25 67v0zM480 457q35 -1 57 -22v0v0q22 -21 23 -51q-1 -22 -13 -43t-30 -40q-18 -18 -32 -28q-3 -2 -5 -4q-2 2 -5 4q-14 10 -31 28q-19 19 -31 40t-13 43q1 30 23 51t57 22v0z" />
</svg>
