<?xml version="1.0" standalone="no"?>
<!DOCTYPE svg PUBLIC "-//W3C//DTD SVG 1.1//EN" "http://www.w3.org/Graphics/SVG/1.1/DTD/svg11.dtd" >
<svg xmlns="http://www.w3.org/2000/svg" xmlns:xlink="http://www.w3.org/1999/xlink" version="1.1" viewBox="-10 -40 532 512">
   <path fill="currentColor"
d="M224 89v16v-16v16v32v0v16v0h-16h-96q-48 -1 -79 -28q-32 -27 -33 -68q1 -41 33 -68q31 -27 79 -28h96h16v16v0v32v0v16v0h16h272v16v0v32v0v16v0h-16h-272zM208 89v-16v16v-16h16h272v-32v0h-16h-272v-16v0v-48v0h-96v0q-42 1 -69 24q-26 23 -27 56q1 33 27 56
q27 23 69 24h96v0v-48v0zM144 434v23v-23v23h224v0v-23v0v-10v0l9 -4v0q49 -25 80 -71q31 -45 35 -104l3 -44v0h-478v0l3 44v0q4 59 35 104q31 46 80 71l9 4v0v10v0zM4 246l-3 -45l3 45l-3 -45l-1 -16v0h16h496l-1 16v0l-3 45v0q-4 63 -37 112q-34 49 -87 76v23v0v16v0h-16
h-240v-16v0v-23v0q-53 -27 -87 -76q-33 -49 -37 -112v0z" />
</svg>
