<?xml version="1.0" standalone="no"?>
<!DOCTYPE svg PUBLIC "-//W3C//DTD SVG 1.1//EN" "http://www.w3.org/Graphics/SVG/1.1/DTD/svg11.dtd" >
<svg xmlns="http://www.w3.org/2000/svg" xmlns:xlink="http://www.w3.org/1999/xlink" version="1.1" viewBox="-10 -40 404 512">
   <path fill="currentColor"
d="M16 -23v480v-480v480h352v0v-480v0h-352v0zM0 -39h16h-16h384v16v0v480v0v16v0h-16h-368v-16v0v-480v0v-16v0zM203 110l96 96l-96 -96l96 96l12 11v0l-12 11v0l-96 96v0l-11 12v0l-11 -12v0l-96 -96v0l-12 -11v0l12 -11v0l96 -96v0l11 -12v0l11 12v0zM96 217l11 11
l-11 -11l11 11l74 74v0l11 11v0l11 -11v0l74 -74v0l11 -11v0l-11 -11v0l-74 -74v0l-11 -11v0l-11 11v0l-74 74v0l-11 11v0z" />
</svg>
