<?xml version="1.0" standalone="no"?>
<!DOCTYPE svg PUBLIC "-//W3C//DTD SVG 1.1//EN" "http://www.w3.org/Graphics/SVG/1.1/DTD/svg11.dtd" >
<svg xmlns="http://www.w3.org/2000/svg" xmlns:xlink="http://www.w3.org/1999/xlink" version="1.1" viewBox="-10 -40 660 512">
   <path fill="currentColor"
d="M217 451l226 -130l-226 130l226 -130l-195 -338v0l-226 131v0l195 337v0zM0 108l240 -139l-240 139l240 -139l14 -8v0l8 14v0l195 338v0l8 13v0l-14 8v0l-226 131v0l-14 8v0l-8 -14v0l-203 -351v0zM320 447l16 -9l-16 9l16 -9v19v0h288v0v-416v0h-287v0l-9 -16v0h296h16
v16v0v416v0v16v0h-16h-304v-16v0v-10v0zM502 112q-15 -13 -30 -2v0v0v0v0q-8 7 -8 16q0 10 7 18v0v0l41 43v0l42 -43v0v0v0q6 -8 6 -18q0 -9 -8 -16q-15 -11 -30 2l-4 5v0l-6 6v0l-6 -6v0l-4 -5v0zM512 100q11 -10 25 -11v0v0q14 -1 26 9v0v0v0v0q12 11 13 28q1 16 -11 29v0
v0l-47 49v0l-6 6v0l-6 -6v0l-47 -49v0v0v0q-12 -13 -11 -29q1 -17 14 -28q11 -10 25 -9t25 10v1zM245 246l2 -9l-2 9l2 -9l8 3v0l20 6v0q16 4 30 -3q13 -7 19 -21v0v0q5 -18 -3 -34q-8 -15 -25 -21v0v0l-107 -30v0l-26 107v0v0v0q-4 18 5 33q10 15 28 19q15 2 28 -6
q12 -9 17 -25l4 -19v0zM256 269q-6 22 -23 34v0v0q-18 12 -40 9v0v0v0v0q-26 -6 -38 -27q-13 -20 -8 -45l29 -115v0l2 -8v0l8 3v0l114 32v0v0v0q24 8 35 29q12 22 4 46q-8 21 -28 30q-19 10 -41 4v0v0v0v0v0v0l18 29v0l17 -9v0l6 -4v0l8 14v0l-6 4v0l-49 27v0l-7 4v0l-8 -14
v0l7 -4v0l18 -10v0l-18 -29v0z" />
</svg>
