<?xml version="1.0" standalone="no"?>
<!DOCTYPE svg PUBLIC "-//W3C//DTD SVG 1.1//EN" "http://www.w3.org/Graphics/SVG/1.1/DTD/svg11.dtd" >
<svg xmlns="http://www.w3.org/2000/svg" xmlns:xlink="http://www.w3.org/1999/xlink" version="1.1" viewBox="-10 -40 660 512">
   <path fill="currentColor"
d="M8 -39h-8h8h-8v16v0h8h50l94 362v0l2 6v0h6h161q-1 -8 -1 -16h-154v0l-21 -80v0h194v0q4 -8 10 -16h-208v0l-58 -224v0h471v0l-45 145v0q8 0 16 1l46 -146v0l5 -16v0h-17h-480l-7 -26v0l-2 -6v0h-6h-56zM176 393q14 0 23 9v0v0q9 9 9 23t-9 23t-23 9t-23 -9t-9 -23t9 -23
t23 -9v0zM176 473q27 -1 42 -24q12 -24 0 -48q-15 -23 -42 -24q-27 1 -42 24q-12 24 0 48q15 23 42 24v0zM368 329q0 -35 17 -64v0v0q17 -29 47 -47q30 -17 64 -17t64 17q30 18 47 47t17 64t-17 64t-47 47q-30 17 -64 17t-64 -17q-30 -18 -47 -47t-17 -64v0zM640 329
q0 -39 -19 -72v0v0q-19 -33 -53 -53q-34 -19 -72 -19t-72 19q-34 20 -53 53t-19 72t19 72t53 53q34 19 72 19t72 -19q34 -20 53 -53t19 -72v0zM558 279l5 -6l-5 6l5 -6l-11 -11v0l-6 5v0l-50 51v0l-50 -51v0l-6 -5v0l-11 11v0l5 6v0l51 50v0l-51 50v0l-5 6v0l11 11v0l6 -5v0
l50 -51v0l50 51v0l6 5v0l11 -11v0l-5 -6v0l-51 -50v0l51 -50v0z" />
</svg>
