<?xml version="1.0" standalone="no"?>
<!DOCTYPE svg PUBLIC "-//W3C//DTD SVG 1.1//EN" "http://www.w3.org/Graphics/SVG/1.1/DTD/svg11.dtd" >
<svg xmlns="http://www.w3.org/2000/svg" xmlns:xlink="http://www.w3.org/1999/xlink" version="1.1" viewBox="-10 -40 660 512">
   <path fill="currentColor"
d="M334 -26l9 -13l-9 13l9 -13l13 10v0l52 41v0l13 10v0l-11 12v0l-385 437v0l-25 -19v0l334 -478v0zM22 449l1 1l-1 -1l1 1l374 -426v0l-50 -40v0l-325 465v0zM565 33l11 -11l-11 11l11 -11l10 12v0l44 51v0l10 12v0l-13 9v0l-478 367v0l-20 -24v0l436 -416v0zM151 450l1 1
l-1 -1l1 1l465 -357v0l-42 -49v0l-424 405v0z" />
</svg>
