<?xml version="1.0" standalone="no"?>
<!DOCTYPE svg PUBLIC "-//W3C//DTD SVG 1.1//EN" "http://www.w3.org/Graphics/SVG/1.1/DTD/svg11.dtd" >
<svg xmlns="http://www.w3.org/2000/svg" xmlns:xlink="http://www.w3.org/1999/xlink" version="1.1" viewBox="-10 -40 532 512">
   <path fill="currentColor"
d="M256 -23q65 1 120 32v0v0q55 32 88 88q32 57 32 120t-32 120q-33 56 -88 88q-55 31 -120 32q-65 -1 -120 -32q-55 -32 -88 -88q-32 -57 -32 -120t32 -120q33 -56 88 -88q55 -31 120 -32v0zM256 473q70 -1 128 -34v0v0q58 -34 94 -94q34 -61 34 -128t-34 -128
q-36 -60 -94 -94q-58 -33 -128 -34q-70 1 -128 34q-58 34 -94 94q-34 61 -34 128t34 128q36 60 94 94q58 33 128 34v0zM256 41q48 0 88 24v0v0q40 23 64 64q24 42 24 88t-24 88q-24 41 -64 64q-40 24 -88 24t-88 -24q-40 -23 -64 -64q-24 -42 -24 -88t24 -88q24 -41 64 -64
q40 -24 88 -24v0zM256 409q52 0 96 -26v0v0q44 -25 70 -70t26 -96t-26 -96t-70 -70q-44 -26 -96 -26t-96 26q-44 25 -70 70t-26 96t26 96t70 70q44 26 96 26v0zM264 129v-8v8v-8h-16v0v8v0v176v0v8v0h16v0v-8v0v-176v0z" />
</svg>
