<?xml version="1.0" standalone="no"?>
<!DOCTYPE svg PUBLIC "-//W3C//DTD SVG 1.1//EN" "http://www.w3.org/Graphics/SVG/1.1/DTD/svg11.dtd" >
<svg xmlns="http://www.w3.org/2000/svg" xmlns:xlink="http://www.w3.org/1999/xlink" version="1.1" viewBox="-10 -40 533 512">
   <path fill="currentColor"
d="M223 431l-10 -11l10 11l-10 -11l-12 10v0q-34 28 -77 27q-42 -1 -75 -33q-33 -34 -33 -79t33 -79l89 -90v0l12 -11v0l-12 -11v0l-1 -1v0l23 -23v0l1 1v0l11 12v0l11 -12v0l122 -121v0q34 -33 79 -33t79 33q32 33 33 75q1 43 -27 77l-10 12v0l11 10v0l1 1v0l-23 23v0
l-1 -1v0l-11 -11v0l-11 11v0l-179 179v0l-11 11v0l11 11v0l1 1v0l-23 23v0l-1 -1v0zM149 119l-23 23l23 -23l-23 23l-11 11v0l1 1v0l10 10v0l1 1v0l-11 11v0l-78 79v0q-38 39 -38 90t38 91q37 35 86 37q48 2 88 -31l1 1v0l11 11v0l11 -11v0l23 -23v0l11 -11v0v-1v0l-11 -10
v0l-1 -1v0l12 -11v0l156 -156v0l11 -12v0l1 1v0l10 11v0h1v0l11 -11v0l23 -23v0l11 -11v0l-11 -11v0l-1 -1v0q33 -40 31 -88q-2 -49 -37 -86q-40 -38 -91 -38t-90 38l-111 110v0l-11 11v0l-1 -1v0l-10 -10v0l-1 -1v0l-11 11v0zM176 297v-32v32v-32h-32v0v32v0h32v0zM336 201
v32v-32v32h32v0v-32v0h-32v0zM368 73h-32h32h-32v32v0h32v0v-32v0z" />
</svg>
