<?xml version="1.0" standalone="no"?>
<!DOCTYPE svg PUBLIC "-//W3C//DTD SVG 1.1//EN" "http://www.w3.org/Graphics/SVG/1.1/DTD/svg11.dtd" >
<svg xmlns="http://www.w3.org/2000/svg" xmlns:xlink="http://www.w3.org/1999/xlink" version="1.1" viewBox="-10 -40 596 512">
   <path fill="currentColor"
d="M58 345l78 -320l-78 320l78 -320h304v0l35 143v0v0v0l4 17v0v0v0l39 160v0h-16v0l-40 -164v0l-78 -20v0l-93 32v0h-3h-2l-94 -32v0l-78 20v0l-40 164v0h-16v0zM119 163l71 -18l-71 18l71 -18h3h2l93 32v0l94 -32v0h2h2l71 18v0l-30 -122v0h-278v0l-30 122v0zM0 393h8h-8
h576v16v0h-8h-568v-16v0z" />
</svg>
