<?xml version="1.0" standalone="no"?>
<!DOCTYPE svg PUBLIC "-//W3C//DTD SVG 1.1//EN" "http://www.w3.org/Graphics/SVG/1.1/DTD/svg11.dtd" >
<svg xmlns="http://www.w3.org/2000/svg" xmlns:xlink="http://www.w3.org/1999/xlink" version="1.1" viewBox="-10 -40 532 512">
   <path fill="currentColor"
d="M16 169v24v-24v24v8v0v23v0l54 27v0h1v0l1 1v0l42 41v0l70 7v0h1v0v0v0l71 21v0l71 -21v0v0v0h1v0l70 -7v0l42 -41v0l1 -1v0h1v0l54 -27v0v-23v0v-8v0v-24v0q-1 -57 -67 -100q-51 -31 -125 -41l-2 3v0l-40 40v0l-6 5v0l-11 -11v0l5 -6v0l34 -33v0q-14 -1 -28 -1
q-105 2 -172 44q-67 43 -68 100v0zM0 193v-24v24v-24q3 -68 75 -113t181 -47q109 2 181 47t75 113v24v0v8v0v28v0v5v0v31v0q-3 68 -75 113t-181 47q-109 -2 -181 -47t-75 -113v-31v0v-5v0v-28v0v-8v0zM16 242v23v-23v23q1 57 68 100q67 42 172 44q105 -2 173 -44
q66 -43 67 -100v-23v0l-46 23v0l-42 41v0l-2 2v0l-3 1v0l-72 7v0l-73 21v0h-2h-2l-72 -21v0l-73 -7v0l-2 -1v0l-2 -2v0l-43 -41v0l-46 -23v0zM166 95l-32 32l32 -32l-32 32l-6 5v0l-11 -11v0l5 -6v0l32 -32v0l6 -5v0l11 11v0l-5 6v0zM390 99l32 32l-32 -32l32 32l5 6v0
l-11 11v0l-6 -5v0l-32 -32v0l-5 -6v0l11 -11v0l6 5v0zM64 161h32h-32h40v16v0h-8h-40v-16v0h8v0zM390 195l32 32l-32 -32l32 32l5 6v0l-11 11v0l-6 -5v0l-32 -32v0l-5 -6v0l11 -11v0l6 5v0zM150 211l32 32l-32 -32l32 32l5 6v0l-11 11v0l-6 -5v0l-32 -32v0l-5 -6v0l11 -11v0
l6 5v0zM326 239l-32 32l32 -32l-32 32l-6 5v0l-11 -11v0l5 -6v0l32 -32v0l6 -5v0l11 11v0l-5 6v0zM209 132q-17 10 -17 21t17 21q18 11 47 11t47 -11q17 -10 17 -21t-17 -21q-18 -11 -47 -11t-47 11v0zM201 118q23 -13 55 -13t55 13q23 12 25 35q-2 23 -25 35q-23 13 -55 13
t-55 -13q-23 -12 -25 -35q2 -23 25 -35v0z" />
</svg>
