<?xml version="1.0" standalone="no"?>
<!DOCTYPE svg PUBLIC "-//W3C//DTD SVG 1.1//EN" "http://www.w3.org/Graphics/SVG/1.1/DTD/svg11.dtd" >
<svg xmlns="http://www.w3.org/2000/svg" xmlns:xlink="http://www.w3.org/1999/xlink" version="1.1" viewBox="-10 -40 458 512">
   <path fill="currentColor"
d="M16 9v32v-32v32h32v0v-32v0h-32v0zM144 9h-32h32h-32v32v0h32v0v-32v0zM240 9h-32h32h-32v32v0h32v0v-32v0zM336 9h-32h32h-32v32v0h32v0v-32v0zM400 9v32v-32v32h32v0v-32v0h-32v0zM160 249h-16h16h-96v16v0v16v0l149 149v0l11 11v0l11 -11v0l149 -149v0v-16v0v-16v0
h-16h-80v-16v0v-128v0v-16v0h-16h-112v16v0v128v0v16v0zM160 265h16h-16h16v-16v0v-144v0h96v0v144v0v16v0h16h80v9v0l-144 144v0l-144 -144v0v-9v0h80v0z" />
</svg>
