<?xml version="1.0" standalone="no"?>
<!DOCTYPE svg PUBLIC "-//W3C//DTD SVG 1.1//EN" "http://www.w3.org/Graphics/SVG/1.1/DTD/svg11.dtd" >
<svg xmlns="http://www.w3.org/2000/svg" xmlns:xlink="http://www.w3.org/1999/xlink" version="1.1" viewBox="-10 -40 597 512">
   <path fill="currentColor"
d="M168 81l-16 32l16 -32l-16 32l14 28v0l12 -3v0l4 -1v0l-12 -24v0l12 -25v0l2 -3v0v-4v0l-1 -28v0l22 -17v0l3 -2v0l1 -4v0l12 -25v0l26 -6v0h4v0l3 -3v0l20 -17v0l26 6v0l4 1v0l4 -1v0l26 -6v0l20 17v0l3 3v0h4v0l27 6v0l11 25v0l1 4v0l3 2v0l22 17v0l-1 28v0v4v0l2 3v0
l12 25v0l-12 25v0l-2 3v0v2v0l8 2v0l10 -3v0l14 -29v0l-16 -32v0l1 -36v0l-28 -21v0l-14 -33v0l-34 -7v0l-27 -23v0l-34 9v0l-34 -9v0l-27 23v0l-34 7v0l-14 33v0l-28 21v0l1 36v0zM270 232v0v0v0l-15 -33v0l-36 -7v0l-27 -23v0l-35 9v0l-35 -9v0l-28 23v0l-35 7v0l-15 33v0
l-28 21v0v36v0l-16 32v0l16 32v0v36v0l28 21v0l15 33v0l35 7v0l28 23v0l35 -9v0l35 9v0l27 -23v0l36 -7v0l15 -33v0v0v0l-7 -6v0v-9v0l-3 3v0l-3 2v0l-2 4v0l-12 25v0l-27 6v0h-4v0l-3 3v0l-21 18v0l-27 -7v0l-4 -1v0l-4 1v0l-27 7v0l-22 -18v0l-3 -3v0h-3v0l-28 -6v0
l-11 -25v0l-2 -4v0l-3 -2v0l-22 -17v0v-28v0v-4v0l-1 -3v0l-13 -25v0l12 -25v0l2 -3v0v-4v0v-28v0l22 -17v0l3 -2v0l2 -4v0l11 -25v0l27 -6v0h4v0l3 -3v0l22 -18v0l27 7v0l4 1v0l4 -1v0l27 -7v0l21 18v0l3 3v0h4v0l27 6v0l12 25v0l2 4v0l3 2v0l3 3v0v-9v0l7 -6v0zM296 289
l-16 32l16 -32l-16 32l16 32v0l-1 36v0l28 21v0l14 33v0l34 7v0l27 23v0l34 -9v0l34 9v0l27 -23v0l34 -7v0l14 -33v0l28 -21v0l-1 -36v0l1 -25v0q12 -20 4 -46q-8 -30 -35 -58q-29 -28 -59 -36q-20 -6 -38 0l-43 -19v0l-27 23v0l-34 7v0l-14 33v0l-28 21v0l1 36v0zM426 199
q-15 21 -7 49q8 30 36 58t58 36q21 6 40 -1l-1 12v0v0v0v0v0l1 28v0l-22 17v0l-3 2v0l-1 4v0l-11 25v0l-27 6v0h-4v0l-3 3v0l-20 17v0l-26 -6v0l-4 -1v0l-4 1v0l-26 6v0l-20 -17v0l-3 -3v0h-4v0l-26 -6v0l-12 -25v0l-1 -4v0l-3 -2v0l-22 -17v0l1 -28v0v-4v0l-2 -3v0l-12 -25
v0l12 -25v0l2 -3v0v-4v0l-1 -28v0l22 -17v0l3 -2v0l1 -4v0l12 -25v0l26 -6v0h4v0l3 -3v0l19 -16v0l25 11v0zM240 121q15 -1 16 -16q-1 -15 -16 -16q-15 1 -16 16q1 15 16 16v0zM80 345q15 -1 16 -16q-1 -15 -16 -16q-15 1 -16 16q1 15 16 16v0zM112 409q15 -1 16 -16
q-1 -15 -16 -16q-15 1 -16 16q1 15 16 16v0zM160 329q-1 -15 -16 -16q-15 1 -16 16q1 15 16 16q15 -1 16 -16v0zM384 329q-1 -15 -16 -16q-15 1 -16 16q1 15 16 16q15 -1 16 -16v0zM400 409q15 -1 16 -16q-1 -15 -16 -16q-15 1 -16 16q1 15 16 16v0zM439 208q11 -11 36 -5
q25 7 51 32q25 26 32 51q6 25 -5 36t-36 5q-25 -7 -51 -32q-25 -26 -32 -51q-6 -25 5 -36v0z" />
</svg>
