<?xml version="1.0" standalone="no"?>
<!DOCTYPE svg PUBLIC "-//W3C//DTD SVG 1.1//EN" "http://www.w3.org/Graphics/SVG/1.1/DTD/svg11.dtd" >
<svg xmlns="http://www.w3.org/2000/svg" xmlns:xlink="http://www.w3.org/1999/xlink" version="1.1" viewBox="-10 -40 596 512">
   <path fill="currentColor"
d="M354 -7h16h-16h16l-25 112v0h101v0l-3 16v0h-101v0l-43 192v0h21v0v16v0h-25v0l-25 112v0h-16v0l25 -112v0h-176v0l-25 112v0h-16v0l25 -112v0h-85v0l3 -16v0h86v0l42 -192v0h-89v0l3 -16v0h90v0l25 -112v0h16v0l-25 112v0h176v0l25 -112v0zM150 121l-43 192l43 -192
l-43 192h176v0l42 -192v0h-175v0zM464 169q-20 1 -34 14v0v0q-13 14 -14 34v64v0h96v0v-64v0q-1 -20 -14 -34q-14 -13 -34 -14v0zM400 217q1 -27 19 -45v0v0q18 -18 45 -19q27 1 45 19t19 45v64v0h32h16v16v0v160v0v16v0h-16h-208v-16v0v-160v0v-16v0h16h32v-64v0zM368 297
v160v-160v160h192v0v-160v0h-32h-160z" />
</svg>
