<?xml version="1.0" standalone="no"?>
<!DOCTYPE svg PUBLIC "-//W3C//DTD SVG 1.1//EN" "http://www.w3.org/Graphics/SVG/1.1/DTD/svg11.dtd" >
<svg xmlns="http://www.w3.org/2000/svg" xmlns:xlink="http://www.w3.org/1999/xlink" version="1.1" viewBox="-10 -40 468 512">
   <path fill="currentColor"
d="M400 9v48v-48v48h-80h-80v16v0h80v0q48 1 79 33q32 31 33 79v16h-416v0v-16q1 -48 33 -79q31 -32 79 -33v-16v0h-80v0v-48v0h104v0v112v0v8v0h8h48v-8v0v-112v0h192v0zM431 217q-5 45 -19 80h-376v0q-14 -35 -18 -80h413v0zM405 313q-16 33 -34 56q-23 30 -41 45
q-9 7 -14 10l-1 1v0h-182v0l-1 -1v0q-5 -3 -14 -10q-18 -15 -41 -45q-18 -23 -34 -56h362v0zM168 9h24h-24h24v104v0h-24v0v-104v0zM48 73h18h-18h18q-30 17 -48 46t-18 66q2 88 33 145q31 56 62 84q31 27 33 27h192v0q2 0 33 -27q31 -28 62 -84q31 -57 33 -145
q0 -37 -18 -66t-48 -46h18h16v-16v0v-48v0v-16v0h-16h-368v16v0v48v0v16v0h16v0z" />
</svg>
