<?xml version="1.0" standalone="no"?>
<!DOCTYPE svg PUBLIC "-//W3C//DTD SVG 1.1//EN" "http://www.w3.org/Graphics/SVG/1.1/DTD/svg11.dtd" >
<svg xmlns="http://www.w3.org/2000/svg" xmlns:xlink="http://www.w3.org/1999/xlink" version="1.1" viewBox="-10 -40 660 512">
   <path fill="currentColor"
d="M0 33v-8v8v-8h16v0v8v0v368v0v8v0h-16v0v-8v0v-368v0zM320 177h-16h16h-16v-16v0v-88v0h-9v0l-144 144v0l144 144v0h9v0v-88v0v-16v0h16h304v-80v0h-304v0zM139 206l149 -149l-149 149l149 -149h16h16v16v0v72v0v16v0h16h304v16v0v80v0v16v0h-16h-304v16v0v72v0v16v0h-16
h-16l-149 -149v0l-11 -11v0l11 -11v0z" />
</svg>
