<?xml version="1.0" standalone="no"?>
<!DOCTYPE svg PUBLIC "-//W3C//DTD SVG 1.1//EN" "http://www.w3.org/Graphics/SVG/1.1/DTD/svg11.dtd" >
<svg xmlns="http://www.w3.org/2000/svg" xmlns:xlink="http://www.w3.org/1999/xlink" version="1.1" viewBox="-10 -40 532 512">
   <path fill="currentColor"
d="M16 306v-178v178v-178l151 -151v0h178v0l151 151v0v178v0l-151 151v0h-178v0l-151 -151v0zM160 -39l-160 160l160 -160l-160 160v192v0l160 160v0h192v0l160 -160v0v-192v0l-160 -160v0h-192v0zM358 159l5 -6l-5 6l5 -6l-11 -11v0l-6 5v0l-122 123v0l-58 -59v0l-6 -5v0
l-11 11v0l5 6v0l64 64v0l6 5v0l6 -5v0l128 -128v0z" />
</svg>
