<?xml version="1.0" standalone="no"?>
<!DOCTYPE svg PUBLIC "-//W3C//DTD SVG 1.1//EN" "http://www.w3.org/Graphics/SVG/1.1/DTD/svg11.dtd" >
<svg xmlns="http://www.w3.org/2000/svg" xmlns:xlink="http://www.w3.org/1999/xlink" version="1.1" viewBox="-10 -40 660 512">
   <path fill="currentColor"
d="M16 -23h-16h16h-16v8v0v160v0q0 17 12 28q11 12 28 12h24v0v264v0v8v0h16v0v-8v0v-264v0h24v0q17 0 28 -12q12 -11 12 -28v-160v0v-8v0h-16v0v8v0v160v0q-2 22 -24 24h-24v0v-184v0v-8v0h-16v0v8v0v184v0h-24v0q-22 -2 -24 -24v-160v0v-8v0zM498 40q-66 -61 -162 -63
q-94 2 -160 61v22v0q31 -31 72 -49t88 -18q93 2 155 63q3 -9 7 -16v0zM539 313q-28 58 -82 92v0v0q-53 35 -121 36q-70 -1 -124 -37t-81 -96q-7 3 -15 4q28 65 87 105q58 39 133 40q75 -1 133 -40t87 -104h-12v0h-5v0zM480 217q0 -39 -19 -72v0v0q-19 -33 -53 -53
q-34 -19 -72 -19t-72 19q-34 20 -53 53t-19 72t19 72t53 53q34 19 72 19t72 -19q34 -20 53 -53t19 -72v0zM208 217q0 -35 17 -64v0v0q17 -29 47 -47q30 -17 64 -17t64 17q30 18 47 47t17 64t-17 64t-47 47q-30 17 -64 17t-64 -17q-30 -18 -47 -47t-17 -64v0zM624 -18
q-18 6 -44 23v0v0q-26 16 -47 44v0v0q-20 29 -21 72v144v0v16v0h16h96v168v0v8v0h16v0v-8v0v-168v0v-8v0v-8v0v-271v0v-17v0q-1 0 -16 5v0zM624 -1v266v-266v266h-96v0v-144v0q1 -36 17 -61q17 -25 40 -40q22 -14 39 -21v0z" />
</svg>
