<?xml version="1.0" standalone="no"?>
<!DOCTYPE svg PUBLIC "-//W3C//DTD SVG 1.1//EN" "http://www.w3.org/Graphics/SVG/1.1/DTD/svg11.dtd" >
<svg xmlns="http://www.w3.org/2000/svg" xmlns:xlink="http://www.w3.org/1999/xlink" version="1.1" viewBox="-10 -40 532 512">
   <path fill="currentColor"
d="M16 140q1 -56 38 -93v0v0q37 -37 93 -38h5v0q60 2 98 42l6 6v0l6 -6v0q38 -40 98 -42h5v0q56 1 93 38t38 93q-1 58 -25 106q-25 49 -68 82l-6 5v0l4 6v0l11 16v0l19 26v0l-53 36v0l-18 -26v0l-16 -23v0h-1l-48 -70v0v0l-33 -47v0l-6 -10v0l-7 10v0l-32 47v0l-7 10v0l12 2
v0q15 3 31 3h3h3q13 0 26 -2l39 57v0q-31 9 -65 9h-3h-3q-40 0 -75 -12l-6 -2v0l-3 5v0l-17 23v0l-18 26v0l-53 -36v0l19 -26v0l11 -16v0v0l4 -6v0l36 -53v0l5 -7v0v0v0v0l54 -78v0q14 -20 14 -44v-6v0q-1 -31 -21 -51t-51 -21h-5v0q-29 1 -47 20q-19 18 -20 47q0 39 16 72
q16 34 43 58l-37 53v0q-40 -33 -63 -81q-23 -47 -23 -102v0zM147 -7q-63 2 -104 43v0v0q-41 41 -43 104q0 59 25 110t68 86l-7 10v0l-22 32v0l-5 7v0l7 5v0l66 45v0l6 5v0l5 -7v0l23 -33v0l12 -18v0q36 11 76 11h2h3q39 0 75 -11l13 18v0l22 33v0l5 7v0l7 -5v0l66 -45v0
l6 -5v0l-4 -6v0l-23 -33v0l-7 -10v0q43 -35 68 -86t25 -110q-2 -63 -43 -104t-104 -43h-5v0q-62 1 -104 41q-42 -40 -104 -41h-5v0zM96 140q1 -22 15 -36v0v0q14 -14 36 -15h5v0q24 1 40 16q15 16 16 40v6v0q0 19 -11 35l-49 71v0q-50 -46 -52 -117v0zM304 145q1 -24 16 -40
v0v0q16 -15 40 -16h5v0q22 1 36 15t15 36q-2 71 -52 117l-49 -71v0q-11 -16 -11 -35v-6v0zM360 73q-31 1 -51 21v0v0q-20 20 -21 51v6v0q0 24 14 44l54 78v0l5 7v0l6 -5v0q30 -25 47 -59q18 -35 18 -76q-1 -29 -19 -47q-19 -19 -48 -20h-5v0zM253 297q-8 0 -16 -1l19 -27v0
l19 27v0q-8 1 -16 1h-3h-3z" />
</svg>
