<?xml version="1.0" standalone="no"?>
<!DOCTYPE svg PUBLIC "-//W3C//DTD SVG 1.1//EN" "http://www.w3.org/Graphics/SVG/1.1/DTD/svg11.dtd" >
<svg xmlns="http://www.w3.org/2000/svg" xmlns:xlink="http://www.w3.org/1999/xlink" version="1.1" viewBox="-10 -40 404 512">
   <path fill="currentColor"
d="M0 -39h16h-16h16v90v0l112 29v0v17v0l-122 -32v0l-6 -2v0v-6v0v-96v0zM256 80l112 -29l-112 29l112 -29v-90v0h16v0v96v0v6v0l-6 2v0l-122 32v0v-17v0zM160 1q1 -7 8 -8h48v0q7 1 8 8v200v0h88h8v16v0h-8h-248v-16v0h8h88v-200v0zM176 201h32h-32h32v-192v0h-32v0v192v0z
M144 281q15 1 16 16q-1 15 -16 16q-15 -1 -16 -16q1 -15 16 -16v0zM80 345q15 1 16 16q-1 15 -16 16q-15 -1 -16 -16q1 -15 16 -16v0zM224 297q1 -15 16 -16q15 1 16 16q-1 15 -16 16q-15 -1 -16 -16v0zM192 345q15 1 16 16q-1 15 -16 16q-15 -1 -16 -16q1 -15 16 -16v0z
M128 425q1 -15 16 -16q15 1 16 16q-1 15 -16 16q-15 -1 -16 -16v0zM240 409q15 1 16 16q-1 15 -16 16q-15 -1 -16 -16q1 -15 16 -16v0zM352 425q1 -15 16 -16q15 1 16 16q-1 15 -16 16q-15 -1 -16 -16v0zM304 345q15 1 16 16q-1 15 -16 16q-15 -1 -16 -16q1 -15 16 -16v0z
M0 425q1 -15 16 -16q15 1 16 16q-1 15 -16 16q-15 -1 -16 -16v0z" />
</svg>
