<?xml version="1.0" standalone="no"?>
<!DOCTYPE svg PUBLIC "-//W3C//DTD SVG 1.1//EN" "http://www.w3.org/Graphics/SVG/1.1/DTD/svg11.dtd" >
<svg xmlns="http://www.w3.org/2000/svg" xmlns:xlink="http://www.w3.org/1999/xlink" version="1.1" viewBox="-10 -40 586 512">
   <path fill="currentColor"
d="M398 -7h-17h17h-17l21 64v0h-228v0l21 -64v0h-17v0l-21 64v0h-45h-8v16v0h8h40l-38 112v0h-42h-8v16v0h8h37l-37 112v0h-40h-8v16v0h8h34l-37 112v0h17v0l37 -112v0h410v0l37 112v0h17v0l-37 -112v0h34h8v-16v0h-8h-40l-37 -112v0h37h8v-16v0h-8h-42l-38 -112v0h40h8v-16
v0h-8h-45l-21 -64v0zM408 73l37 112l-37 -112l37 112h-314v0l37 -112v0h240v0zM450 201l38 112l-38 -112l38 112h-400v0l38 -112v0h324v0z" />
</svg>
