<?xml version="1.0" standalone="no"?>
<!DOCTYPE svg PUBLIC "-//W3C//DTD SVG 1.1//EN" "http://www.w3.org/Graphics/SVG/1.1/DTD/svg11.dtd" >
<svg xmlns="http://www.w3.org/2000/svg" xmlns:xlink="http://www.w3.org/1999/xlink" version="1.1" viewBox="-10 -40 468 512">
   <path fill="currentColor"
d="M336 89q0 -8 -1 -16h-55h-4l-2 -3v0l-19 -24v0l-33 40v0l-2 3v0h-4h-104v16v0q1 48 33 79q31 32 79 33q48 -1 79 -33q32 -31 33 -79v-16v0zM331 57q-10 -35 -39 -57l-26 33v0l18 24v0h47v0zM212 73l67 -82l-67 82l67 -82q-25 -14 -55 -14q-43 1 -74 28q-30 26 -37 68h99
v0zM96 89q1 -54 37 -91v0v0q37 -36 91 -37q54 1 91 37q36 37 37 91v16v0q-1 54 -37 91q-37 36 -91 37q-54 -1 -91 -37q-36 -37 -37 -91v-16v0zM22 457h404h-404h404l-53 -160v0h-297v0l-54 160v0zM64 281h320h-320h320l59 176v0l5 16v0h-17h-431l5 -16v0l59 -176v0z" />
</svg>
