<?xml version="1.0" standalone="no"?>
<!DOCTYPE svg PUBLIC "-//W3C//DTD SVG 1.1//EN" "http://www.w3.org/Graphics/SVG/1.1/DTD/svg11.dtd" >
<svg xmlns="http://www.w3.org/2000/svg" xmlns:xlink="http://www.w3.org/1999/xlink" version="1.1" viewBox="-10 -40 660 512">
   <path fill="currentColor"
d="M287 -39h-16h16h-16l1 9v0l23 135v0l17 14v0v-1v0q0 -6 -1 -11l-23 -139v0v0v0l-1 -7v0zM161 183q-22 -7 -34 -26l-22 -18v0q4 27 23 44q20 17 48 18h7v0l-23 -18h1zM174 10l15 12l-15 -12l15 12l1 -12v0l1 -20v0l1 -20v0v-9v0h-16v0v8v0l-1 20v0l-1 20v0v1v0zM228 53
l17 13l-17 -13l17 13l-5 -97v0v-8v0h-16v0v8v0l4 84v0zM127 -27l14 11l-14 -11l14 11l3 -14v0v0v0l1 -9v0h-16v0l-1 7v0v0v0l-1 5v0zM200 465v8v-8v8h16v0v-8v0v-238v0l-16 -13v0v251v0zM528 -23v-16v16v-16h-16h-8q-10 -1 -38 14q-29 14 -54 52q-26 39 -28 110v39v0l16 12
v0v-51v0q1 -50 15 -82q15 -31 34 -48t36 -24q8 -3 13 -5l6 -1v0v0h8v0v300v0l16 12v0v-312v0zM16 -34l-6 -5l6 5l-6 -5l-10 13v0l6 5v0l618 489v0l6 5v0l10 -12v0l-6 -5v0l-618 -490v0z" />
</svg>
