<?xml version="1.0" standalone="no"?>
<!DOCTYPE svg PUBLIC "-//W3C//DTD SVG 1.1//EN" "http://www.w3.org/Graphics/SVG/1.1/DTD/svg11.dtd" >
<svg xmlns="http://www.w3.org/2000/svg" xmlns:xlink="http://www.w3.org/1999/xlink" version="1.1" viewBox="-10 -40 532 512">
   <path fill="currentColor"
d="M408 -31v-8v8v-8h-16v0v8v0v56v0h-9v0q-40 1 -67 28t-28 67q0 32 18 56t48 35l87 28v0q25 8 40 28q15 21 15 47q-1 34 -23 56t-56 23h-9h-13v0v0q-33 0 -61 -17l-26 -15v0l-8 14v0l25 15v0q31 18 67 19v56v0v8v0h16v0v-8v0v-56v0h9v0q40 -1 67 -28t28 -67q0 -32 -18 -56
t-48 -35l-87 -28v0q-25 -8 -40 -28q-15 -21 -15 -47q1 -34 23 -56t56 -23h9h11q27 0 53 10l13 6v0l6 -15v0l-13 -5v0q-26 -11 -54 -12v-56v0zM0 -7v8v-8v8v256v0v184v0h16v0v-176v0h104v0h1h1l59 176v0h17v0l-59 -177v0q51 -8 83 -45q33 -37 34 -90q-1 -58 -40 -96
q-38 -39 -96 -40h-112h-8zM16 249v-240v240v-240h104v0q51 1 85 35t35 85q-1 51 -35 85t-85 35h-104v0z" />
</svg>
