<?xml version="1.0" standalone="no"?>
<!DOCTYPE svg PUBLIC "-//W3C//DTD SVG 1.1//EN" "http://www.w3.org/Graphics/SVG/1.1/DTD/svg11.dtd" >
<svg xmlns="http://www.w3.org/2000/svg" xmlns:xlink="http://www.w3.org/1999/xlink" version="1.1" viewBox="-10 -40 596 512">
   <path fill="currentColor"
d="M128 -31v-8v8v-8h-16v0v8v0v56v0h-96h-16v16v0v96v0v16v0v304v0v16v0h16h315q-11 -7 -20 -16h-295v0v-304v0h336h96v-16v0v-96v0v-16v0h-16h-96v-56v0v-8v0h-16v0v8v0v56v0h-192v0v-56v0zM112 41v40v-40v40v8v0h16v0v-8v0v-40v0h192v0v40v0v8v0h16v0v-8v0v-40v0h96v0v96
v0h-416v0v-96v0h96v0zM432 201q35 0 64 17v0v0q29 17 47 47q17 30 17 64t-17 64q-18 30 -47 47t-64 17t-64 -17t-47 -47q-17 -30 -17 -64t17 -64q18 -30 47 -47t64 -17v0zM432 473q39 0 72 -19v0v0q33 -19 53 -53q19 -34 19 -72t-19 -72q-20 -34 -53 -53t-72 -19t-72 19
t-53 53q-19 34 -19 72t19 72q20 34 53 53t72 19v0zM512 337v-16v16v-16h-8h-152v16v0h8h152z" />
</svg>
