<?xml version="1.0" standalone="no"?>
<!DOCTYPE svg PUBLIC "-//W3C//DTD SVG 1.1//EN" "http://www.w3.org/Graphics/SVG/1.1/DTD/svg11.dtd" >
<svg xmlns="http://www.w3.org/2000/svg" xmlns:xlink="http://www.w3.org/1999/xlink" version="1.1" viewBox="-10 -40 468 512">
   <path fill="currentColor"
d="M272 9v416v-416v416h-96v0v-416v0h96v0zM176 -7h-16h16h-16v16v0v416v0v16v0h16h112v-16v0v-416v0v-16v0h-16h-96zM112 201v224v-224v224h-96v0v-224v0h96v0zM16 185h-16h16h-16v16v0v224v0v16v0h16h112v-16v0v-224v0v-16v0h-16h-96zM336 73h96h-96h96v352v0h-96v0v-352
v0zM320 57v16v-16v16v352v0v16v0h16h112v-16v0v-352v0v-16v0h-16h-112z" />
</svg>
