<?xml version="1.0" standalone="no"?>
<!DOCTYPE svg PUBLIC "-//W3C//DTD SVG 1.1//EN" "http://www.w3.org/Graphics/SVG/1.1/DTD/svg11.dtd" >
<svg xmlns="http://www.w3.org/2000/svg" xmlns:xlink="http://www.w3.org/1999/xlink" version="1.1" viewBox="-10 -40 532 512">
   <path fill="currentColor"
d="M496 217q-1 -65 -32 -120v0v0q-32 -55 -88 -88q-57 -32 -120 -32t-120 32q-56 33 -88 88q-31 55 -32 120q1 65 32 120q32 55 88 88q57 32 120 32t120 -32q56 -33 88 -88q31 -55 32 -120v0zM0 217q1 -70 34 -128v0v0q34 -58 94 -94q61 -34 128 -34t128 34q60 36 94 94
q33 58 34 128q-1 70 -34 128q-34 58 -94 94q-61 34 -128 34t-128 -34q-60 -36 -94 -94q-33 -58 -34 -128v0zM432 225v32v-32v32v8v0h-16v0v-8v0v-32v0v-8v0h16v0v8v0zM406 335l-32 32l32 -32l-32 32l-6 5v0l-11 -11v0l5 -6v0l32 -32v0l6 -5v0l11 11v0l-5 6v0zM248 393h32
h-32h40v16v0h-8h-40v-16v0h8v0zM176 73h8h-8h112v8v0v48v0v8v0h-8h-67l-3 -2v0l-32 -32v0l-2 -3v0v-3v0v-16v0v-8v0zM192 89v5v-5v5l27 27v0h53v0v-32v0h-80v0zM152 169h32h-32h40v8v0v24v0h16v0v-24v0v-8v0h8h35l3 2v0l64 64v0l2 3v0v3v0v96v0v8v0h-8h-99l-3 -2v0l-29 -30
v0h-93h-8v-8v0v-64v0v-3v0l2 -3v0l64 -64v0l3 -2v0h3v0zM96 244v53v-53v53h88h3l3 2v0l29 30v0h85v0v-85v0l-59 -59v0h-21v0v24v0v8v0h-8h-40v-8v0v-24v0h-21v0l-59 59v0z" />
</svg>
