<?xml version="1.0" standalone="no"?>
<!DOCTYPE svg PUBLIC "-//W3C//DTD SVG 1.1//EN" "http://www.w3.org/Graphics/SVG/1.1/DTD/svg11.dtd" >
<svg xmlns="http://www.w3.org/2000/svg" xmlns:xlink="http://www.w3.org/1999/xlink" version="1.1" viewBox="-10 -40 532 512">
   <path fill="currentColor"
d="M16 217q1 -67 33 -121v0v0q32 -54 86 -86v0v0q54 -32 121 -33q67 1 121 33t86 86t33 121q-1 76 -41 134q-40 59 -106 87l6 15v0q70 -30 113 -93q43 -62 44 -143q-1 -72 -35 -129q-34 -58 -92 -92q-57 -34 -129 -35q-72 1 -129 35q-58 34 -92 92q-34 57 -35 129
q1 65 29 119q29 54 78 89l10 -13v0q-47 -33 -74 -83q-26 -51 -27 -112v0zM136 171q4 -22 15 -40t25 -18q13 0 25 18q11 18 15 40l16 -3v0q-5 -24 -18 -46t-38 -25q-26 3 -39 25t-17 46l15 3h1zM311 131q11 -18 25 -18q13 0 25 18q11 18 15 40l16 -3v0q-5 -24 -18 -46
t-38 -25q-26 3 -39 25t-17 46l16 3v0q3 -22 15 -40v0zM256 306l45 -44l-45 44l45 -44l11 -12v0l5 -4v0l6 -7v0l5 -5v0l11 12v0l12 11v0l-5 5v0l-7 6v0l-4 5v0l-12 11v0l-44 45v0l-12 11v0l10 10v0l11 -12v0l45 -44v0l11 -12v0l2 2v0l9 10v0l12 11v0l-12 11v0l-9 10v0l-11 11
v0l-12 11v0l-12 13v0l-12 11v0l10 10v0l11 -12v0l13 -12v0l11 -12v0l2 2v0l9 10v0l12 11v0l-12 11v0l-48 49v0q-29 27 -68 28q-40 -1 -67 -28t-28 -67v-13v0v-20v0v-30v0v-4v0v-16v0h16h24v13v0v3v0v4v0v15v0l15 -15v0l1 -1v0l69 -68v0l11 -12v0l11 12v0l10 9v0l2 2v0
l-12 11v0l-44 45v0l-12 11v0l10 10v0l11 -12v0zM291 207l-11 -11l11 11l-11 -11l-11 11v0l-12 11v0l-57 58v0v-13v0h-16h-56v16v0v20v0v30v0v20v0v13v0q1 47 33 78q31 32 78 33q46 -1 79 -33l49 -48v0l11 -12v0l11 -11v0l-11 -11v0l-21 -21v0l10 -9v0l11 -12v0l11 -11v0
l-11 -11v0l-21 -21v0l5 -5v0l11 -11v0l-11 -11v0l-23 -23v0l-11 -11v0l-11 11v0l-5 5v0l-21 -21v0z" />
</svg>
