<?xml version="1.0" standalone="no"?>
<!DOCTYPE svg PUBLIC "-//W3C//DTD SVG 1.1//EN" "http://www.w3.org/Graphics/SVG/1.1/DTD/svg11.dtd" >
<svg xmlns="http://www.w3.org/2000/svg" xmlns:xlink="http://www.w3.org/1999/xlink" version="1.1" viewBox="-10 -40 588 512">
   <path fill="currentColor"
d="M256 -23q-67 1 -121 33v0v0q-54 32 -86 86v0v0q-32 54 -33 121q1 67 33 121t86 86t121 33q73 -1 130 -38q4 7 10 12q-61 41 -140 42q-72 -1 -129 -35q-58 -34 -92 -92q-34 -57 -35 -129q1 -72 35 -129q34 -58 92 -92q57 -34 129 -35q72 1 129 35q58 34 92 92
q34 57 35 129v6q-8 -2 -16 -2v-4q-1 -67 -33 -121t-86 -86t-121 -33v0zM256 377q14 0 23 -9v0v0q9 -9 9 -23t-9 -23t-23 -9t-23 9t-9 23t9 23t23 9v0zM256 297q27 1 42 24q12 24 0 48q-15 23 -42 24q-27 -1 -42 -24q-12 -24 0 -48q15 -23 42 -24v0zM311 205q17 29 41 28
q23 1 41 -28l4 -7v0l13 8v0l-3 7v0q-22 36 -55 36q-34 -1 -55 -36l-4 -7v0l14 -8v0l3 7h1zM160 233q23 1 41 -28l4 -7v0l13 8v0l-3 7v0q-22 36 -55 36q-34 -1 -55 -36l-4 -7v0l14 -8v0l3 7v0q18 29 41 28h1zM495 257q18 0 30 12v0v0q12 12 14 29q27 14 29 47q-2 33 -29 47
q-2 17 -14 29t-30 12q-21 -1 -34 -16q-4 1 -9 1q-19 0 -31 -13q-13 -12 -13 -31v-4v0l-51 -17v0l-22 -8v0l22 -8v0l51 -17v0q2 -17 14 -29t30 -12h5q12 -21 38 -22v0zM469 291l-3 7l3 -7l-3 7l-7 -2v0q-3 -1 -7 -1q-12 0 -20 8t-8 20v2l1 7v0l-6 2v0l-34 11v0l35 12v0l7 2v0
l-2 8v0q-1 3 -1 7q0 12 8 20t20 8q5 0 10 -1l6 -3v0l3 6v0q9 12 24 13q12 0 20 -8t8 -20v-2l-1 -6v0l6 -2v0q23 -9 24 -34q-1 -25 -24 -34l-6 -2v0l1 -6v0v-1v-1q0 -12 -8 -20t-20 -8q-19 1 -26 18v0z" />
</svg>
