<?xml version="1.0" standalone="no"?>
<!DOCTYPE svg PUBLIC "-//W3C//DTD SVG 1.1//EN" "http://www.w3.org/Graphics/SVG/1.1/DTD/svg11.dtd" >
<svg xmlns="http://www.w3.org/2000/svg" xmlns:xlink="http://www.w3.org/1999/xlink" version="1.1" viewBox="-10 -40 532 512">
   <path fill="currentColor"
d="M256 -23q65 1 120 32v0v0q55 32 88 88q32 57 32 120t-32 120q-33 56 -88 88q-55 31 -120 32q-65 -1 -120 -32q-55 -32 -88 -88q-32 -57 -32 -120t32 -120q33 -56 88 -88q55 -31 120 -32v0zM256 473q70 -1 128 -34v0v0q58 -34 94 -94q34 -61 34 -128t-34 -128
q-36 -60 -94 -94q-58 -33 -128 -34q-70 1 -128 34q-58 34 -94 94q-34 61 -34 128t34 128q36 60 94 94q58 33 128 34v0zM318 60l3 8l-3 -8l3 8l1 3v0q11 29 34 50h-4q-34 1 -57 23q-22 23 -23 57q1 34 23 57q23 22 57 23q27 0 48 -16v16v0v8v0h16v0v-8v0v-32v0q16 -21 16 -48
q0 -29 -17 -50l7 2v0l8 2v0l4 -16v0l-8 -2v0l-9 -2v0q-28 -6 -49 -24q-21 -19 -31 -46l-2 -3v0l-2 -7v0l-15 5v0zM192 68l2 -8l-2 8l2 -8l-15 -5v0l-2 7v0l-2 3v0q-10 27 -31 46q-21 18 -49 24l-9 2v0l-8 2v0l4 16v0l8 -2v0l7 -2v0q-16 21 -17 50q1 27 16 48v32v0v8v0h16v0
v-8v0v-16v0q21 16 48 16q34 -1 56 -23v7v0v8v0h16v0v-8v0v-29v0q8 -16 8 -35q-1 -34 -23 -57q-23 -22 -57 -23h-4q23 -20 34 -50l2 -3v0zM160 137q36 1 55 32q18 32 0 64q-19 31 -55 32q-36 -1 -55 -32q-18 -32 0 -64q19 -31 55 -32v0zM288 201q1 -36 32 -55q32 -18 64 0
q31 19 32 55q-1 36 -32 55q-32 18 -64 0q-31 -19 -32 -55v0zM160 233q-14 0 -23 -9v0v0q-9 -9 -9 -23v-4q7 4 16 4q27 -2 32 -28q15 9 16 28q0 14 -9 23t-23 9v0zM115 183q-3 9 -3 18q1 20 14 34q14 13 34 14q20 -1 34 -14q13 -14 14 -34q0 -17 -10 -29q-10 -13 -25 -17
q-6 -2 -13 -2q-5 0 -10 1q9 4 10 15v0v0q-1 15 -16 16q-5 0 -10 -3q-6 -5 -6 -13q0 -2 1 -4q-3 2 -5 4q-5 6 -9 14v0zM384 201q0 14 -9 23v0v0q-9 9 -23 9t-23 -9t-9 -23v-4q7 4 16 4q27 -2 32 -28q15 9 16 28v0zM304 201q1 20 14 34v0v0q14 13 34 14q20 -1 34 -14
q13 -14 14 -34q0 -17 -10 -29q-10 -13 -25 -17q-6 -2 -13 -2q-5 0 -10 1q9 4 10 15q-1 15 -16 16q-5 0 -10 -3q-6 -5 -6 -13q0 -2 1 -4q-3 2 -5 4q-5 6 -9 14q-3 9 -3 18v0zM256 391q33 -1 55 -17v0v0q23 -15 36 -34l-13 -10v0q-12 18 -32 31q-19 13 -46 14q-27 -1 -46 -14
q-20 -13 -31 -31l-13 10v0q12 19 35 34q22 16 55 17v0z" />
</svg>
