<?xml version="1.0" standalone="no"?>
<!DOCTYPE svg PUBLIC "-//W3C//DTD SVG 1.1//EN" "http://www.w3.org/Graphics/SVG/1.1/DTD/svg11.dtd" >
<svg xmlns="http://www.w3.org/2000/svg" xmlns:xlink="http://www.w3.org/1999/xlink" version="1.1" viewBox="-10 -40 660 512">
   <path fill="currentColor"
d="M556 263q-4 22 8 42v0v0q12 19 36 24v0v0h7v0v0v0h1h16v16v0v0v0v16v0h-16v0v0v0h-8h-56q-14 0 -23 9t-9 23t9 23t23 9h16v0v16v0v16v0h-16h-528v-16v0v-16v0h16h13q20 -1 34 -12t21 -27q16 -33 2 -68q-22 -46 -22 -101q1 -67 33 -121t86 -86t121 -33q67 1 121 33t86 86
t33 121q0 23 -4 46v0zM607 313q-18 -1 -28 -15v0v0q-11 -14 -8 -32q5 -24 5 -49q-1 -72 -35 -129q-34 -58 -92 -92q-57 -34 -129 -35q-72 1 -129 35q-58 34 -92 92q-34 57 -35 129q0 58 24 108q11 27 -2 54q-13 28 -41 30h-5h-40v8v0v24v0v24v0v8v0h8h568v-8v0v-24v0v-24v0
v-8v0h-8h-24q-15 -1 -16 -16q1 -15 16 -16h56h8v0v0h24h8v-8v0v-24v0v0v0v0v0v-24v0v-8v0h-8h-25v0v0zM271 154q2 -9 -4 -15q-7 -7 -16 -5q-8 3 -11 12q-2 9 4 16q7 6 16 4q8 -3 11 -12v0zM406 207q9 2 16 -4q6 -7 4 -16q-3 -8 -12 -11q-9 -2 -15 4q-7 7 -5 16q3 8 12 11v0z
M285 332q38 10 68 2v0v0q31 -8 51 -22l-9 -13v0q-18 12 -45 19t-61 -1q-33 -10 -54 -29q-20 -20 -29 -40l-14 7v0q10 22 33 44q22 22 60 33v0z" />
</svg>
