<?xml version="1.0" standalone="no"?>
<!DOCTYPE svg PUBLIC "-//W3C//DTD SVG 1.1//EN" "http://www.w3.org/Graphics/SVG/1.1/DTD/svg11.dtd" >
<svg xmlns="http://www.w3.org/2000/svg" xmlns:xlink="http://www.w3.org/1999/xlink" version="1.1" viewBox="-10 -40 660 512">
   <path fill="currentColor"
d="M40 -39h-8h8h-8v8v0v32v0v8v0h16v0v-8v0v-24v0h416v0v24v0v8v0h16v0v-8v0v-32v0v-8v0h-8h-432zM16 41v8v-8v8v32v0v8v0h16v0v-8v0v-24v0h448v0v24v0v8v0h16v0v-8v0v-32v0v-8v0h-8h-472zM54 457l-36 -320l36 320l-36 -320h476v0l-2 16v0h2h2h12l2 -16v0l2 -16v0h-16h-496
l2 16v0l38 336v0h355v0q-11 -7 -20 -16h-321v0zM256 169q-75 1 -124 39v0v0q-50 37 -52 93q2 56 52 93q49 38 124 39q48 0 87 -17q-4 -7 -7 -14q-36 15 -80 15q-70 -1 -115 -35q-44 -34 -45 -81q1 -47 45 -80q45 -34 115 -36q63 1 106 30q6 -7 11 -12q-48 -33 -117 -34v0z
M282 330q12 -8 14 -25q-2 -17 -14 -25q-12 -7 -26 -7t-26 7q-12 8 -14 25q2 17 14 25q12 7 26 7t26 -7v0zM256 321q-22 -1 -24 -16q2 -15 24 -16q22 1 24 16q-2 15 -24 16v0zM368 329q0 -35 17 -64v0v0q17 -29 47 -47q30 -17 64 -17t64 17q30 18 47 47t17 64t-17 64t-47 47
q-30 17 -64 17t-64 -17q-30 -18 -47 -47t-17 -64v0zM640 329q0 -39 -19 -72v0v0q-19 -33 -53 -53q-34 -19 -72 -19t-72 19q-34 20 -53 53t-19 72t19 72t53 53q34 19 72 19t72 -19q34 -20 53 -53t19 -72v0zM504 257v-8v8v-8h-16v0v8v0v64v0h-64h-8v16v0h8h64v64v0v8v0h16v0
v-8v0v-64v0h64h8v-16v0h-8h-64v-64v0z" />
</svg>
