<?xml version="1.0" standalone="no"?>
<!DOCTYPE svg PUBLIC "-//W3C//DTD SVG 1.1//EN" "http://www.w3.org/Graphics/SVG/1.1/DTD/svg11.dtd" >
<svg xmlns="http://www.w3.org/2000/svg" xmlns:xlink="http://www.w3.org/1999/xlink" version="1.1" viewBox="-10 -40 660 512">
   <path fill="currentColor"
d="M40 -39h-8h8h-8v8v0v32v0v8v0h16v0v-8v0v-24v0h416v0v24v0v8v0h16v0v-8v0v-32v0v-8v0h-8h-432zM16 41v8v-8v8v32v0v8v0h16v0v-8v0v-24v0h448v0v24v0v8v0h16v0v-8v0v-32v0v-8v0h-8h-472zM54 457l-36 -320l36 320l-36 -320h476v0l-2 16v0h2h2h12l2 -16v0l2 -16v0h-16h-496
l2 16v0l38 336v0h355v0q-11 -7 -20 -16h-321v0zM256 169q-75 1 -124 39v0v0q-50 37 -52 93q2 56 52 93q49 38 124 39q48 0 87 -17q-4 -7 -7 -14q-36 15 -80 15q-70 -1 -115 -35q-44 -34 -45 -81q1 -47 45 -80q45 -34 115 -36q63 1 106 30q6 -7 11 -12q-48 -33 -117 -34v0z
M282 330q12 -8 14 -25q-2 -17 -14 -25q-12 -7 -26 -7t-26 7q-12 8 -14 25q2 17 14 25q12 7 26 7t26 -7v0zM256 321q-22 -1 -24 -16q2 -15 24 -16q22 1 24 16q-2 15 -24 16v0zM573 432q-33 24 -77 25q-44 -1 -76 -25l32 -39v0h88v0l32 39h1zM585 421l-35 -41l35 41l-35 -41
l-2 -3v0h-4h-100l-2 3v0l-35 41v0q-38 -36 -39 -92q1 -54 37 -91q37 -36 91 -37q54 1 91 37q36 37 37 91q-1 56 -39 92v0zM640 329q0 -39 -19 -72v0v0q-19 -33 -53 -53q-34 -19 -72 -19t-72 19q-34 20 -53 53t-19 72t19 72t53 53q34 19 72 19t72 -19q34 -20 53 -53t19 -72v0
zM496 265q14 0 23 9v0v0q9 9 9 23t-9 23t-23 9t-23 -9t-9 -23t9 -23t23 -9v0zM496 345q27 -1 42 -24q12 -24 0 -48q-15 -23 -42 -24q-27 1 -42 24q-12 24 0 48q15 23 42 24v0z" />
</svg>
