<?xml version="1.0" standalone="no"?>
<!DOCTYPE svg PUBLIC "-//W3C//DTD SVG 1.1//EN" "http://www.w3.org/Graphics/SVG/1.1/DTD/svg11.dtd" >
<svg xmlns="http://www.w3.org/2000/svg" xmlns:xlink="http://www.w3.org/1999/xlink" version="1.1" viewBox="-10 -40 660 512">
   <path fill="currentColor"
d="M528 189v-36v36v-36q-1 -34 -23 -57q-23 -22 -57 -23q-25 0 -44 14l-15 9v0l-8 -15v0q-19 -33 -52 -52q-33 -20 -73 -20q-61 2 -102 42q-40 41 -42 102v8v0v12v0l-11 3v0q-38 14 -61 46q-23 33 -24 75v128v0h128h480v-112v0q-1 -40 -24 -69t-60 -39l-12 -4v0v-12v0z
M0 297q1 -48 27 -84v0v0q26 -36 69 -52v-8v0q2 -68 47 -113t113 -47q41 0 74 18q34 18 56 49q5 6 9 13q5 -3 11 -6q19 -10 42 -10q41 1 68 28t28 68v36v0q42 11 69 45q26 33 27 79v112v0v16v0h-16h-624v-16v0v-128v0zM328 121v8v-8v8v160v0v8v0h-16v0v-8v0v-160v0v-8v0h16v0
zM304 329h32h-32h32v32v0h-32v0v-32v0z" />
</svg>
