<?xml version="1.0" standalone="no"?>
<!DOCTYPE svg PUBLIC "-//W3C//DTD SVG 1.1//EN" "http://www.w3.org/Graphics/SVG/1.1/DTD/svg11.dtd" >
<svg xmlns="http://www.w3.org/2000/svg" xmlns:xlink="http://www.w3.org/1999/xlink" version="1.1" viewBox="-10 -40 468 512">
   <path fill="currentColor"
d="M448 73v-16v16v-16h-64v0v-64v0h-16v0v64v0h-288v0v-64v0h-16v0v64v0h-64v0v16v0h64v0v288v0h-64v0v16v0h64v0v64v0h16v0v-64v0h288v0v64v0h16v0v-64v0h64v0v-16v0h-64v0v-288v0h64v0zM80 361v-288v288v-288h288v0v288v0h-288v0z" />
</svg>
