<?xml version="1.0" standalone="no"?>
<!DOCTYPE svg PUBLIC "-//W3C//DTD SVG 1.1//EN" "http://www.w3.org/Graphics/SVG/1.1/DTD/svg11.dtd" >
<svg xmlns="http://www.w3.org/2000/svg" xmlns:xlink="http://www.w3.org/1999/xlink" version="1.1" viewBox="-10 -40 660 512">
   <path fill="currentColor"
d="M256 457q54 0 100 -22q5 7 10 13q-50 24 -110 25q-72 -1 -129 -35q-58 -34 -92 -92q-34 -57 -35 -129q1 -72 35 -129q34 -58 92 -92q57 -34 129 -35q91 2 158 55t90 137h-8h-8h-1q-22 -77 -84 -126q-63 -49 -147 -50q-67 1 -121 33t-86 86t-33 121q1 67 33 121t86 86
t121 33v0zM256 361q27 -1 42 -24q12 -24 0 -48q-15 -23 -42 -24q-27 1 -42 24q-12 24 0 48q15 23 42 24v0zM256 377q-27 -1 -45 -19v0v0q-18 -18 -19 -45q1 -25 16 -43q16 -17 40 -20v-209v0v-8v0h16v0v8v0v209v0q24 3 40 20q15 18 16 43q-1 27 -19 45t-45 19v0zM144 73
q15 1 16 16q-1 15 -16 16q-15 -1 -16 -16q1 -15 16 -16v0zM80 201q1 -15 16 -16q15 1 16 16q-1 15 -16 16q-15 -1 -16 -16v0zM352 89q1 -15 16 -16q15 1 16 16q-1 15 -16 16q-15 -1 -16 -16v0zM496 457q35 0 64 -17v0v0q29 -17 47 -47q17 -30 17 -64t-17 -64
q-18 -30 -47 -47t-64 -17t-64 17t-47 47q-17 30 -17 64t17 64q18 30 47 47t64 17v0zM496 185q39 0 72 19v0v0q33 19 53 53q19 34 19 72t-19 72q-20 34 -53 53t-72 19t-72 -19t-53 -53q-19 -34 -19 -72t19 -72q20 -34 53 -53t72 -19v0zM576 337h-8h8h-160v-16v0h8h152v16v0z
" />
</svg>
