<?xml version="1.0" standalone="no"?>
<!DOCTYPE svg PUBLIC "-//W3C//DTD SVG 1.1//EN" "http://www.w3.org/Graphics/SVG/1.1/DTD/svg11.dtd" >
<svg xmlns="http://www.w3.org/2000/svg" xmlns:xlink="http://www.w3.org/1999/xlink" version="1.1" viewBox="-10 -40 532 512">
   <path fill="currentColor"
d="M144 313h16h-16h16v16v0v128v0v16v0h16h336v-16v0v-320v0v-16v0h-16h-144v-16v0v-128v0v-16v0h-16h-336v16v0v320v0v16v0h16h128zM16 297v-320v320v-320h320v0v144v0v16v0h16h144v320v0h-320v0v-144v0v-16v0h-16h-144z" />
</svg>
