<?xml version="1.0" standalone="no"?>
<!DOCTYPE svg PUBLIC "-//W3C//DTD SVG 1.1//EN" "http://www.w3.org/Graphics/SVG/1.1/DTD/svg11.dtd" >
<svg xmlns="http://www.w3.org/2000/svg" xmlns:xlink="http://www.w3.org/1999/xlink" version="1.1" viewBox="-10 -40 660 512">
   <path fill="currentColor"
d="M168 345h216h-216h216v-16v0h-208v0v-112v0v-8v0h-16v0v8v0v120v0v8v0h8v0zM385 185q30 -1 52 -17q10 -14 24 -24l-11 -12v0l-11 13v0q-21 23 -54 24q-33 -1 -53 -24l-12 -13v0l-12 13v0q-20 23 -53 24q-33 -1 -54 -24l-11 -13v0l-12 13v0q-21 23 -54 24q-5 0 -10 -1
q-32 -6 -45 -35q-12 -29 5 -60l63 -96v0h366v0l63 96v0q16 29 6 57q7 3 14 7q14 -36 -6 -72l-68 -104v0h-384v0l-68 104v0q-19 33 -8 67q10 34 44 48v37v0v128v0v120v0v8v0h8h280v-16v0h-272v0v-112v0v-128v0v-33v0v0v0q6 1 12 1q31 -1 54 -18q6 -5 12 -11q5 6 11 11
q23 17 54 18q31 -1 53 -18q7 -5 12 -11q5 6 12 11q22 17 53 18v0zM528 169q20 1 34 14v0v0q13 14 14 34v64v0h-96v0v-64v0q1 -20 14 -34q14 -13 34 -14v0zM464 217v64v-64v64h-32h-16v16v0v160v0v16v0h16h208v-16v0v-160v0v-16v0h-16h-32v-64v0q-1 -27 -19 -45t-45 -19
q-27 1 -45 19t-19 45v0zM432 297h32h-32h192v160v0h-192v0v-160v0z" />
</svg>
