<?xml version="1.0" standalone="no"?>
<!DOCTYPE svg PUBLIC "-//W3C//DTD SVG 1.1//EN" "http://www.w3.org/Graphics/SVG/1.1/DTD/svg11.dtd" >
<svg xmlns="http://www.w3.org/2000/svg" xmlns:xlink="http://www.w3.org/1999/xlink" version="1.1" viewBox="-10 -40 660 512">
   <path fill="currentColor"
d="M352 41q-1 36 -32 55q-32 18 -64 0q-31 -19 -32 -55q1 -36 32 -55q32 -18 64 0q31 19 32 55v0zM288 -39q-34 1 -57 23v0v0q-22 23 -23 57q1 32 21 54t51 26v0v0v48v0h-80h-8v16v0h8h80v272v0h-192v0v-205v0l58 59v0l12 -12v0l-72 -72v0l-6 -5v0l-6 5v0v0v0l-72 72v0
l12 12v0l58 -59v0v213v0v8v0h8h315q-11 -7 -20 -16h-79v0v-272v0h80h8v-16v0h-8h-80v-48v0v0v0q31 -4 51 -26t21 -54q-1 -34 -23 -57q-23 -22 -57 -23v0zM368 329q0 -35 17 -64v0v0q17 -29 47 -47q30 -17 64 -17t64 17q30 18 47 47t17 64t-17 64t-47 47q-30 17 -64 17
t-64 -17q-30 -18 -47 -47t-17 -64v0zM640 329q0 -39 -19 -72v0v0q-19 -33 -53 -53q-34 -19 -72 -19t-72 19q-34 20 -53 53t-19 72t19 72t53 53q34 19 72 19t72 -19q34 -20 53 -53t19 -72v0zM508 405v-24v24v-24h-24v0v24v0h24v0zM504 241h-16h16h-16v8v0v96v0v8v0h16v0v-8v0
v-96v0v-8v0z" />
</svg>
