<?xml version="1.0" standalone="no"?>
<!DOCTYPE svg PUBLIC "-//W3C//DTD SVG 1.1//EN" "http://www.w3.org/Graphics/SVG/1.1/DTD/svg11.dtd" >
<svg xmlns="http://www.w3.org/2000/svg" xmlns:xlink="http://www.w3.org/1999/xlink" version="1.1" viewBox="-10 -40 532 512">
   <path fill="currentColor"
d="M496 217q-1 -67 -33 -121v0v0q-32 -54 -86 -86v0v0q-54 -32 -121 -33h-8v0v-16v0h8v0q72 1 129 35q58 34 92 92q34 57 35 129q-1 72 -35 129q-34 58 -92 92q-57 34 -129 35h-8v0v-16v0h8v0q67 -1 121 -33t86 -86t33 -121v0zM197 83l152 128l-152 -128l152 128l8 6v0l-8 6
v0l-152 128v0l-6 5v0l-10 -12v0l6 -5v0l135 -114v0h-314h-8v-16v0h8h314l-135 -114v0l-6 -5v0l10 -12v0l6 5v0z" />
</svg>
