<?xml version="1.0" standalone="no"?>
<!DOCTYPE svg PUBLIC "-//W3C//DTD SVG 1.1//EN" "http://www.w3.org/Graphics/SVG/1.1/DTD/svg11.dtd" >
<svg xmlns="http://www.w3.org/2000/svg" xmlns:xlink="http://www.w3.org/1999/xlink" version="1.1" viewBox="-10 -40 653 512">
   <path fill="currentColor"
d="M136 -31v-8v8v-8h16v0v8v0v157v0l50 -51v0l6 -5v0l11 11v0l-5 6v0l-64 64v0l-6 5v0l-6 -5v0l-64 -64v0l-5 -6v0l11 -11v0l6 5v0l50 51v0v-157v0zM421 81l11 -11l-11 11l11 -11l6 5v0l50 51v0v-157v0v-8v0h16v0v8v0v157v0l50 -51v0l6 -5v0l11 11v0l-5 6v0l-64 64v0l-6 5v0
l-6 -5v0l-64 -64v0l-6 -6h1zM496 281q22 -2 24 -24q-2 -22 -24 -24q-22 2 -24 24q2 22 24 24v0zM496 217q23 1 35 20q10 20 0 40q-12 19 -35 20q-23 -1 -35 -20q-10 -20 0 -40q12 -19 35 -20v0zM579 450l-11 -20l11 20l-11 -20l-16 -29v0v33v0v23v0v16v0h-16h-96v-16v0v-23
v0v-33v0l-16 29v0l-11 19v0l-4 7v0l-8 14v0l-14 -7v0l-14 -8v0l-14 -8v0l8 -14v0l4 -7v0l56 -101v0l7 -12v0h14h110l7 12v0l56 101v0l4 7v0l8 14v0l-14 8v0l-14 8v0l-14 7v0l-8 -14v0l-4 -7v1zM536 401v-40v40v-40h12v0l18 32v0l27 49v0l4 7v0l14 -8v0l-4 -7v0l-56 -101v0
l-2 -4v0h-5h-101l-2 4v0l-56 101v0l-4 7v0l14 8v0l4 -7v0l27 -49v0l18 -32v0h12v0v40v0v56v0h80v0v-56v0zM168 257q-2 -22 -24 -24q-22 2 -24 24q2 22 24 24q22 -2 24 -24v0zM104 257q1 -23 20 -35q20 -10 40 0q19 12 20 35q-1 23 -20 35q-20 10 -40 0q-19 -12 -20 -35v0z
M216 430l-16 -29l16 29l-16 -29v33v0v23v0v16v0h-16h-96v-16v0v-23v0v-33v0l-16 29v0l-11 20v0l-4 7v0l-8 14v0l-14 -8v0l-14 -8v0l-14 -8v0l8 -14v0l4 -7v0l56 -101v0l7 -12v0h14h110l7 12v0l56 101v0l4 7v0l8 14v0l-14 8v0l-14 8v0l-14 7v0l-8 -14v0l-4 -7v0l-11 -19v0z
M184 457v-56v56v-56v-40v0h12v0l18 32v0l27 49v0l4 7v0l14 -8v0l-4 -7v0l-56 -101v0l-2 -4v0h-5h-101l-2 4v0l-56 101v0l-4 7v0l14 8v0l4 -7v0l27 -49v0l18 -32v0h12v0v40v0v56v0h80v0zM320 169q22 -2 24 -24q-2 -22 -24 -24q-22 2 -24 24q2 22 24 24v0zM320 105q23 1 35 20
q10 20 0 40q-12 19 -35 20q-23 -1 -35 -20q-10 -20 0 -40q12 -19 35 -20v0zM389 213l38 68l-38 -68l38 68h-12v0l-3 6v0l-37 -66v0l-2 -4v0h-5h-101l-2 4v0l-37 66v0l-3 -6v0h-12v0l38 -68v0l7 -12v0h14h110l7 12v0zM390 281l13 23l-13 -23l13 23l-10 16v0l-1 -2v0l-16 -29
v0v33v0v23v0v6v0v0v0v10v0h-5h-11v0v0v-16v0v0v0v-56v0v-40v0h12v0l18 32v0zM280 345v0v0v0v16v0h-11h-5v-16v0v0v0v-23v0v-33v0l-16 29v0l-1 2v0l-10 -17v0l13 -22v0l18 -32v0h12v0v40v0v56v0z" />
</svg>
