<?xml version="1.0" standalone="no"?>
<!DOCTYPE svg PUBLIC "-//W3C//DTD SVG 1.1//EN" "http://www.w3.org/Graphics/SVG/1.1/DTD/svg11.dtd" >
<svg xmlns="http://www.w3.org/2000/svg" xmlns:xlink="http://www.w3.org/1999/xlink" version="1.1" viewBox="-10 -40 532 512">
   <path fill="currentColor"
d="M230 79l-6 5l6 -5l-6 5l-11 -11v0l5 -6v0l96 -96v0l6 -5v0l6 5v0l96 96v0l5 6v0l-11 11v0l-6 -5v0l-82 -83v0v245v0v8v0v96v0v112v0h176h8v16v0h-8h-192v-8v0v-120v0v-88v0h-277v0l83 82v0l5 6v0l-11 11v0l-6 -5v0l-93 -94v0h-5v0v-5v0l-3 -3v0l3 -3v0v-5v0h5v0l93 -94v0
l6 -5v0l11 11v0l-5 6v0l-83 82v0h277v0v-245v0l-82 83v0z" />
</svg>
