<?xml version="1.0" standalone="no"?>
<!DOCTYPE svg PUBLIC "-//W3C//DTD SVG 1.1//EN" "http://www.w3.org/Graphics/SVG/1.1/DTD/svg11.dtd" >
<svg xmlns="http://www.w3.org/2000/svg" xmlns:xlink="http://www.w3.org/1999/xlink" version="1.1" viewBox="-10 -40 650 512">
   <path fill="currentColor"
d="M38 -13l-6 -5l6 5l-6 -5l-11 11v0l5 6v0l107 106v0h-77h-8v16v0h8h104v-8v0v-96v0v-8v0h-16v0v8v0v77v0l-106 -107v0zM602 -13l-106 107l106 -107l-106 107v-77v0v-8v0h-16v0v8v0v96v0v8v0h8h104v-16v0h-8h-77l107 -106v0l5 -6v0l-11 -11v0l-6 5v0zM203 295
q-21 -19 -35 -40v0v0q-15 -21 -22 -38q7 -17 22 -38q14 -21 35 -40q23 -22 52 -36t65 -14t65 14t52 36q21 19 35 40q15 21 23 38q-8 17 -23 38q-14 21 -35 40q-23 22 -52 36t-65 14t-65 -14t-52 -36v0zM320 361q53 -1 92 -27v0v0q40 -25 65 -58v0v0q25 -34 35 -59
q-10 -25 -35 -59q-25 -33 -65 -58q-39 -26 -92 -27q-53 1 -92 27q-40 25 -65 58q-25 34 -35 59q10 25 35 59q25 33 65 58q39 26 92 27v0zM602 447l6 5l-6 -5l6 5l11 -11v0l-5 -6v0l-107 -106v0h77h8v-16v0h-8h-104v8v0v96v0v8v0h16v0v-8v0v-77v0l106 107v0zM38 447l106 -107
l-106 107l106 -107v77v0v8v0h16v0v-8v0v-96v0v-8v0h-8h-104v16v0h8h77l-107 106v0l-5 6v0l11 11v0l6 -5v0zM256 217q1 -36 32 -55q32 -18 64 0q31 19 32 55q-1 36 -32 55q-32 18 -64 0q-31 -19 -32 -55v0zM400 217q-1 -45 -40 -69q-40 -22 -80 0q-39 24 -40 69q1 45 40 69
q40 22 80 0q39 -24 40 -69v0z" />
</svg>
