<?xml version="1.0" standalone="no"?>
<!DOCTYPE svg PUBLIC "-//W3C//DTD SVG 1.1//EN" "http://www.w3.org/Graphics/SVG/1.1/DTD/svg11.dtd" >
<svg xmlns="http://www.w3.org/2000/svg" xmlns:xlink="http://www.w3.org/1999/xlink" version="1.1" viewBox="-10 -40 472 512">
   <path fill="currentColor"
d="M311 -34l6 5l-6 -5l6 5l128 112v0l7 6v0l-7 6v0l-128 112v0l-6 5v0l-10 -12v0l6 -5v0l112 -98v0h-403v0v144v0v8v0h-16v0v-8v0v-152v0v-8v0h8h411l-112 -98v0l-6 -5v0l10 -12v0zM215 222l6 5l-6 -5l6 5l128 112v0l7 6v0l-7 6v0l-128 112v0l-6 5v0l-10 -12v0l6 -5v0
l112 -98v0h-307v0v112v0v8v0h-16v0v-8v0v-120v0v-8v0h8h315l-112 -98v0l-6 -5v0l10 -12v0z" />
</svg>
