<?xml version="1.0" standalone="no"?>
<!DOCTYPE svg PUBLIC "-//W3C//DTD SVG 1.1//EN" "http://www.w3.org/Graphics/SVG/1.1/DTD/svg11.dtd" >
<svg xmlns="http://www.w3.org/2000/svg" xmlns:xlink="http://www.w3.org/1999/xlink" version="1.1" viewBox="-10 -40 468 512">
   <path fill="currentColor"
d="M89 -39h7h-7h270l1 7v0l29 153v0h-16v0l-28 -144v0h-242v0l-28 144v0h-16v0l29 -153v0l1 -7v0zM0 153h24h-24h448v16v0h-26v0l-38 304v0h-320v0l-38 -304v0h-26v0v-16v0zM42 169l36 288l-36 -288l36 288h292v0l36 -288v0h-364v0z" />
</svg>
