<?xml version="1.0" standalone="no"?>
<!DOCTYPE svg PUBLIC "-//W3C//DTD SVG 1.1//EN" "http://www.w3.org/Graphics/SVG/1.1/DTD/svg11.dtd" >
<svg xmlns="http://www.w3.org/2000/svg" xmlns:xlink="http://www.w3.org/1999/xlink" version="1.1" viewBox="-10 -40 404 512">
   <path fill="currentColor"
d="M16 -23v480v-480v480h128v0v-112v0v-16v0h16h80v16v0v112v0h128v0v-480v0h-352v0zM160 457h64h-64h64v-112v0h-64v0v112v0zM144 473h-128h128h-144v-16v0v-480v0v-16v0h16h368v16v0v480v0v16v0h-16h-224zM80 193h64h-64h72v8v0v64v0v8v0h-8h-72v-8v0v-64v0v-8v0h8v0z
M88 257h48h-48h48v-48v0h-48v0v48v0zM232 193h8h-8h80v8v0v64v0v8v0h-8h-72v-8v0v-64v0v-8v0zM248 209v48v-48v48h48v0v-48v0h-48v0zM48 17h8h-8h21l2 4v0l41 82v0v-78v0v-8v0h16v0v8v0v96v0v8v0h-8h-13l-2 -4v0l-41 -82v0v78v0v8v0h-16v0v-8v0v-96v0v-8v0zM168 17h48h-48
h56v16v0h-8h-40v80v0h32v0v-32v0v-8v0h16v0v8v0v40v0v8v0h-8h-56v-8v0v-96v0v-8v0h8v0zM272 57v32v-32v32q2 22 24 24q22 -2 24 -24v-32v0q-2 -22 -24 -24q-22 2 -24 24v0zM296 17q17 0 28 12v0v0q12 11 12 28v32v0q0 17 -12 28q-11 12 -28 12t-28 -12q-12 -11 -12 -28v-32
v0q0 -17 12 -28q11 -12 28 -12v0z" />
</svg>
