<?xml version="1.0" standalone="no"?>
<!DOCTYPE svg PUBLIC "-//W3C//DTD SVG 1.1//EN" "http://www.w3.org/Graphics/SVG/1.1/DTD/svg11.dtd" >
<svg xmlns="http://www.w3.org/2000/svg" xmlns:xlink="http://www.w3.org/1999/xlink" version="1.1" viewBox="-10 -40 660 512">
   <path fill="currentColor"
d="M368 -23v480v-480v480h-128v0v-112v0v-16v0h-16h-80v16v0v112v0h-128v0v-480v0h352v0zM224 457h-64h64h-64v-112v0h64v0v112v0zM16 473h128h-128h368v-16v0v-480v0v-16v0h-16h-368v16v0v480v0v16v0h16v0zM72 193v8v-8v8v64v0v8v0h8h72v-8v0v-64v0v-8v0h-8h-72zM88 209h48
h-48h48v48v0h-48v0v-48v0zM240 193h-8h8h-8v8v0v64v0v8v0h8h72v-8v0v-64v0v-8v0h-8h-64zM248 257v-48v48v-48h48v0v48v0h-48v0zM72 65v8v-8v8v64v0v8v0h8h72v-8v0v-64v0v-8v0h-8h-72zM88 81h48h-48h48v48v0h-48v0v-48v0zM240 65h-8h8h-8v8v0v64v0v8v0h8h72v-8v0v-64v0v-8v0
h-8h-64zM248 129v-48v48v-48h48v0v48v0h-48v0zM624 201q-1 27 -19 45v0v0q-18 18 -45 19h-24v0v-16v0q1 -27 19 -45t45 -19h24v0v16v0zM552 281q-15 12 -24 29q-9 -17 -24 -29h16h32zM448 265h-16h16h-32v16v0v16v0q1 41 32 64h-16h-16v16v0v16v0q1 34 23 57q23 22 57 23h24
h40q34 -1 57 -23q22 -23 23 -57v-16v0v-16v0h-16h-16q31 -23 32 -64v-16v0v-16v0h-16h-16q31 -23 32 -64v-16v0v-16v0h-16h-24q-24 0 -43 13q-19 12 -29 32q-10 -20 -29 -32q-19 -13 -43 -13h-24h-16v16v0v16v0q1 41 32 64v0zM520 249v16v-16v16h-24v0q-27 -1 -45 -19
t-19 -45v-16v0h24v0q27 1 45 19t19 45v0zM624 297q-1 27 -19 45v0v0q-18 18 -45 19h-24v0v-16v0q1 -27 19 -45t45 -19h24v0v16v0zM552 377q-15 12 -24 29q-9 -17 -24 -29h16h32zM520 345v16v-16v16h-24v0q-27 -1 -45 -19t-19 -45v-16v0h24v0q27 1 45 19t19 45v0zM624 377v16
v-16v16q-1 27 -19 45t-45 19h-24v0v-16v0q1 -27 19 -45t45 -19h24v0zM520 457h-24h24h-24q-27 -1 -45 -19t-19 -45v-16v0h24v0q27 1 45 19t19 45v16v0zM536 -7h-16h16h-16v8v0v144v0v8v0h16v0v-8v0v-144v0v-8v0zM608 33v-8v8v-8h-16v0v8v0v80v0v8v0h16v0v-8v0v-80v0zM464 25
h-16h16h-16v8v0v80v0v8v0h16v0v-8v0v-80v0v-8v0z" />
</svg>
