<?xml version="1.0" standalone="no"?>
<!DOCTYPE svg PUBLIC "-//W3C//DTD SVG 1.1//EN" "http://www.w3.org/Graphics/SVG/1.1/DTD/svg11.dtd" >
<svg xmlns="http://www.w3.org/2000/svg" xmlns:xlink="http://www.w3.org/1999/xlink" version="1.1" viewBox="-10 -40 404 512">
   <path fill="currentColor"
d="M255 28q-5 -22 -22 -36v0v0q-17 -15 -41 -15t-41 15q-17 14 -22 36l-2 13v0h-13h-34v64v0h112h112v-64v0h-34h-13l-2 -13v0zM80 25h34h-34h34q6 -28 27 -46q21 -17 51 -18q30 1 51 18q21 18 27 46h34h16v16v0v16v0h56h8v8v0v400v0v8v0h-8h-376v-8v0v-400v0v-8v0h8h56v-16
v0v-16v0h16v0zM64 73h-48h48h-48v384v0h352v0v-384v0h-48v0v32v0v16v0h-16h-240v-16v0v-32v0zM176 41q1 -15 16 -16q15 1 16 16q-1 15 -16 16q-15 -1 -16 -16v0zM104 225q1 -24 16 -40v0v0q16 -15 40 -16h56v0q27 1 45 19t19 45q-1 34 -29 53l-51 34v0v25v0v8v0h-16v0v-8v0
v-29v0v-5v0l4 -2v0l55 -36v0q20 -15 21 -40q-1 -21 -14 -34q-13 -14 -34 -14h-56v0q-17 0 -28 12q-12 11 -12 28v6v0h-16v0v-6v0zM176 409v-32v32v-32h32v0v32v0h-32v0z" />
</svg>
