<?xml version="1.0" standalone="no"?>
<!DOCTYPE svg PUBLIC "-//W3C//DTD SVG 1.1//EN" "http://www.w3.org/Graphics/SVG/1.1/DTD/svg11.dtd" >
<svg xmlns="http://www.w3.org/2000/svg" xmlns:xlink="http://www.w3.org/1999/xlink" version="1.1" viewBox="-10 -40 596 512">
   <path fill="currentColor"
d="M16 457h326h-326h326q10 9 20 16h-346h-16v-16v0v-480v0v-16v0h16h208l160 160v0v48v0l-16 7v0v-39v0h-152h-8v-8v0v-152v0h-192v0v480v0zM361 121l-137 -137l137 137l-137 -137v137v0h137v0zM560 252l-120 -47l120 47l-120 -47v248v0q59 -27 90 -82q30 -54 30 -114v-5v0
zM304 252v5v-5v5q0 60 30 114q31 55 90 82v-248v0l-120 47v0zM432 473q-72 -26 -108 -88v0v0q-36 -61 -36 -128v-16v0l144 -56v0l144 56v0v16v0q0 67 -36 128q-36 62 -108 88v0z" />
</svg>
