<?xml version="1.0" standalone="no"?>
<!DOCTYPE svg PUBLIC "-//W3C//DTD SVG 1.1//EN" "http://www.w3.org/Graphics/SVG/1.1/DTD/svg11.dtd" >
<svg xmlns="http://www.w3.org/2000/svg" xmlns:xlink="http://www.w3.org/1999/xlink" version="1.1" viewBox="-10 -40 660 512">
   <path fill="currentColor"
d="M336 -39h-32h32h-32v32v0h32v0v-32v0zM104 105h-8h8h-8v8v0v53v0q-43 20 -69 58q-26 39 -27 89q2 68 47 113t113 47q68 -2 113 -47t47 -113q-1 -50 -27 -89q-26 -38 -69 -58v-53v0v-8v0h-8h-33l-23 -23v0l-23 23v0h-33v0zM208 160q-23 -7 -48 -7t-48 7v-39v0h96v0v39v0z
M160 169q39 0 72 19v0v0q33 19 53 53q19 34 19 72t-19 72q-20 34 -53 53t-72 19t-72 -19t-53 -53q-19 -34 -19 -72t19 -72q20 -34 53 -53t72 -19v0zM345 364q-3 11 -7 22q20 39 58 63q37 23 84 24q68 -2 113 -47t47 -113q-1 -50 -27 -89q-26 -38 -69 -58v-53v0v-8v0h-8h-33
l-23 -23v0l-23 23v0h-33h-8v8v0v53v0q-52 24 -78 74q4 11 7 22q16 -41 52 -67q36 -25 83 -26q61 2 102 42q40 41 42 102q-2 61 -42 102q-41 40 -102 42q-47 -1 -83 -26q-36 -26 -52 -67v0zM528 121v39v-39v39q-23 -7 -48 -7t-48 7v-39v0h96v0zM56 313q0 -28 14 -52v0v0
q14 -24 38 -38q25 -14 52 -14t52 14q24 14 38 38t14 52t-14 52t-38 38q-25 14 -52 14t-52 -14q-24 -14 -38 -38t-14 -52v0zM280 313q0 -33 -16 -60v0v0q-16 -27 -44 -44q-28 -16 -60 -16t-60 16q-28 17 -44 44t-16 60t16 60t44 44q28 16 60 16t60 -16q28 -17 44 -44t16 -60
v0zM480 209q28 0 52 14v0v0q24 14 38 38q14 25 14 52t-14 52q-14 24 -38 38t-52 14t-52 -14t-38 -38q-14 -25 -14 -52t14 -52q14 -24 38 -38t52 -14v0zM480 433q33 0 60 -16v0v0q27 -16 44 -44q16 -28 16 -60t-16 -60q-17 -28 -44 -44t-60 -16t-60 16t-44 44q-16 28 -16 60
t16 60q17 28 44 44t60 16v0zM222 -12l5 32l-5 -32l5 32l32 -6v0l-6 -31v0l-31 5v0zM189 27l-27 17l27 -17l-27 17l17 27v0l27 -17v0l-17 -27v0zM451 27l-17 27l17 -27l-17 27l27 17v0l17 -27v0l-27 -17v0zM419 -12l-32 -5l32 5l-32 -5l-5 31v0l31 6v0l6 -32v0z" />
</svg>
