<?xml version="1.0" standalone="no"?>
<!DOCTYPE svg PUBLIC "-//W3C//DTD SVG 1.1//EN" "http://www.w3.org/Graphics/SVG/1.1/DTD/svg11.dtd" >
<svg xmlns="http://www.w3.org/2000/svg" xmlns:xlink="http://www.w3.org/1999/xlink" version="1.1" viewBox="-10 -40 596 512">
   <path fill="currentColor"
d="M256 80l-11 -12l11 12l-11 -12l-24 -24v0q-36 -34 -85 -35q-51 1 -85 35t-35 85q1 49 35 85l24 24v0l181 180v0l16 -16v0q3 8 8 15l-13 13v0l-11 11v0l-11 -11v0l-181 -181v0l-24 -24v0q-39 -40 -40 -96q1 -58 40 -96q38 -39 96 -40q56 1 96 40l13 13v0l11 11v0l11 -11v0
l13 -13v0q40 -39 96 -40q58 1 96 40q39 38 40 96q0 21 -6 40q-7 -3 -15 -6q5 -17 5 -34q-1 -51 -35 -85t-85 -35q-49 1 -84 35l-25 24v0l-11 12v0zM560 329q0 -35 -17 -64v0v0q-17 -29 -47 -47q-30 -17 -64 -17t-64 17q-30 18 -47 47t-17 64t17 64t47 47q30 17 64 17t64 -17
q30 -18 47 -47t17 -64v0zM288 329q0 -39 19 -72v0v0q19 -33 53 -53q34 -19 72 -19t72 19q34 20 53 53t19 72t-19 72t-53 53q-34 19 -72 19t-72 -19q-34 -20 -53 -53t-19 -72v0zM440 257v64v-64v64h64h8v16v0h-8h-64v64v0v8v0h-16v0v-8v0v-64v0h-64h-8v-16v0h8h64v-64v0v-8v0
h16v0v8v0z" />
</svg>
