<?xml version="1.0" standalone="no"?>
<!DOCTYPE svg PUBLIC "-//W3C//DTD SVG 1.1//EN" "http://www.w3.org/Graphics/SVG/1.1/DTD/svg11.dtd" >
<svg xmlns="http://www.w3.org/2000/svg" xmlns:xlink="http://www.w3.org/1999/xlink" version="1.1" viewBox="-10 -40 660 512">
   <path fill="currentColor"
d="M293 -29l-5 -4l5 4l-5 -4l-5 4v0l-280 240v0l10 12v0l51 -43v0v285v0v8v0h8h323q-11 -7 -20 -16h-7v0v0v0h-16v0v0v0h-128v0v-176v0h32h71q2 -8 5 -16h-116h-8v8v0v184v0h-128v0v-291v0l208 -178v0l194 166v0q7 -1 14 -1h10l-213 -182v0zM496 201q35 0 64 17v0v0
q29 17 47 47q17 30 17 64t-17 64q-18 30 -47 47t-64 17t-64 -17t-47 -47q-17 -30 -17 -64t17 -64q18 -30 47 -47t64 -17v0zM496 473q39 0 72 -19v0v0q33 -19 53 -53q19 -34 19 -72t-19 -72q-20 -34 -53 -53t-72 -19t-72 19t-53 53q-19 34 -19 72t19 72q20 34 53 53t72 19v0z
M571 289l-11 -11l11 11l-11 -11l-6 5v0l-74 75v0l-42 -43v0l-6 -5v0l-11 11v0l5 6v0l48 48v0l6 5v0l6 -5v0l80 -80v0l6 -6h-1z" />
</svg>
