<?xml version="1.0" standalone="no"?>
<!DOCTYPE svg PUBLIC "-//W3C//DTD SVG 1.1//EN" "http://www.w3.org/Graphics/SVG/1.1/DTD/svg11.dtd" >
<svg xmlns="http://www.w3.org/2000/svg" xmlns:xlink="http://www.w3.org/1999/xlink" version="1.1" viewBox="-10 -40 596 512">
   <path fill="currentColor"
d="M293 -29l-5 -4l5 4l-5 -4l-5 3v0l-216 152v0l-6 5v0l9 13v0l7 -4v0l35 -25v0v102v0l3 1v0l1 1v0v0v0v0v0q6 5 12 9v-125v0l160 -112v0l160 112v0v125v0q4 -3 9 -6q1 -2 3 -3l4 -2v0v-102v0l35 25v0l7 4v0l9 -13v0l-6 -5v0l-216 -152v1zM96 275l-1 1l1 -1l-1 1v1
q-6 8 -13 17t-20 21t-29 21t-33 9v16v0q22 -1 40 -11q19 -10 33 -23q15 -15 23 -25q8 10 23 25q14 13 33 23q18 10 40 11q22 -1 40 -11q19 -10 33 -23q15 -15 23 -25q8 10 23 25q14 13 33 23q18 10 40 11q22 -1 40 -11q19 -10 33 -23q15 -15 23 -25q8 10 23 25q14 13 33 23
q18 10 40 11v-16v0q-17 0 -33 -9t-29 -21t-20 -21q-7 -8 -13 -17v-1v0v0l-1 -1v0v1v0q-1 0 -1 1q-6 9 -13 17q-7 9 -20 21t-29 21t-33 9t-33 -9t-29 -21t-20 -21q-7 -8 -13 -17v-1l-1 -1v0v1v0v0v0q-1 0 -1 1q-6 9 -13 17q-7 9 -20 21t-29 21t-33 9t-33 -9t-29 -21t-20 -21
q-7 -8 -13 -17v-1l-1 -1v0zM97 388l-1 -1l1 1l-1 -1l-1 1q0 1 -1 2l-12 16q-7 9 -20 21t-29 21t-33 9v16v0q22 -1 40 -11q19 -10 33 -23q15 -15 23 -25q8 10 23 25q14 13 33 23q18 10 40 11q22 -1 40 -11q19 -10 33 -23q15 -15 23 -25q8 10 23 25q14 13 33 23q18 10 40 11
q22 -1 40 -11q19 -10 33 -23q15 -15 23 -25q8 10 23 25q14 13 33 23q18 10 40 11v-16v0q-17 0 -33 -9t-29 -21t-20 -21q-7 -8 -13 -17v-1l-1 -1v0v1v0q-1 0 -1 1q-6 9 -13 17q-7 9 -20 21t-29 21t-33 9t-33 -9t-29 -21t-20 -21q-7 -8 -13 -17v-1l-1 -1v0v1v0q-1 0 -1 1
q-6 9 -13 17q-7 9 -20 21t-29 21t-33 9t-33 -9t-29 -21t-20 -21q-7 -8 -13 -17v-1v0z" />
</svg>
