<?xml version="1.0" standalone="no"?>
<!DOCTYPE svg PUBLIC "-//W3C//DTD SVG 1.1//EN" "http://www.w3.org/Graphics/SVG/1.1/DTD/svg11.dtd" >
<svg xmlns="http://www.w3.org/2000/svg" xmlns:xlink="http://www.w3.org/1999/xlink" version="1.1" viewBox="-10 -40 596 512">
   <path fill="currentColor"
d="M16 161q2 -78 57 -130v0v0q54 -52 137 -54q34 0 64 10l5 -15v0q-32 -11 -69 -11q-89 2 -148 58q-60 57 -62 142q1 85 52 141q50 57 139 59h1v0v0q22 -1 40 -11q19 -10 33 -23q15 -15 23 -25q8 10 23 25q14 13 33 23q18 10 40 11q22 -1 40 -11q19 -10 33 -23
q15 -15 23 -25q8 10 23 25q14 13 33 23q18 10 40 11v-16v0q-17 0 -33 -9t-29 -21t-20 -21q-7 -8 -13 -17v-1v0v0v0v0v0v0v0v0l-1 -1v0v1v0v0v0q-1 0 -1 1q-6 9 -13 17q-7 9 -20 21t-29 21t-33 9t-33 -9t-29 -21t-20 -21q-7 -8 -13 -17v-1l-1 -1v0v1v0q-1 0 -1 1q-6 9 -13 17
q-7 9 -20 21t-29 21t-33 9v0v0h-1q-81 -2 -128 -54q-46 -51 -47 -130v0zM336 234v-137v137v-137l112 -84v0l112 84v0v149v0q8 2 16 2v-159v0l-128 -96v0l-128 96v0v135v0q8 6 16 10v0zM97 388l-1 -1l1 1l-1 -1l-1 1v0q0 1 -1 2l-12 16q-7 9 -20 21t-29 21t-33 9v16v0
q22 -1 40 -11q19 -10 33 -23q15 -15 23 -25q8 10 23 25q14 13 33 23q18 10 40 11q22 -1 40 -11q19 -10 33 -23q15 -15 23 -25q8 10 23 25q14 13 33 23q18 10 40 11q22 -1 40 -11q19 -10 33 -23q15 -15 23 -25q8 10 23 25q14 13 33 23q18 10 40 11v-16v0q-17 0 -33 -9
t-29 -21t-20 -21q-7 -8 -13 -17v-1v0v0v0v0l-1 -1v0v1v0q-1 0 -1 1q-6 9 -13 17q-7 9 -20 21t-29 21t-33 9t-33 -9t-29 -21t-20 -21q-7 -8 -13 -17v-1l-1 -1v0v1v0v0v0v0v0q-1 0 -1 1q-6 9 -13 17q-7 9 -20 21t-29 21t-33 9t-33 -9t-29 -21t-20 -21q-7 -8 -13 -17v-1v0z
M190 73q25 0 47 10l6 -15v0q-24 -11 -53 -11q-53 1 -89 35t-37 85q1 51 37 85t89 35v-16v0q-47 -1 -78 -31q-31 -29 -32 -73q1 -44 32 -73q31 -30 78 -31v0z" />
</svg>
