<?xml version="1.0" standalone="no"?>
<!DOCTYPE svg PUBLIC "-//W3C//DTD SVG 1.1//EN" "http://www.w3.org/Graphics/SVG/1.1/DTD/svg11.dtd" >
<svg xmlns="http://www.w3.org/2000/svg" xmlns:xlink="http://www.w3.org/1999/xlink" version="1.1" viewBox="-10 -40 532 512">
   <path fill="currentColor"
d="M210 428q20 -23 46 -57v26v0q-35 43 -53 64l-11 12v0l-11 -12q-22 -25 -65 -79q-42 -54 -78 -117q-36 -62 -38 -112q2 -82 56 -136t136 -56q73 2 125 46q52 45 65 116q-8 1 -16 3q-11 -65 -59 -106q-48 -42 -115 -43q-75 2 -124 52q-50 49 -52 124q1 37 28 90
q28 53 65 103t65 82q11 13 18 21q7 -8 18 -21v0zM192 73q45 1 69 40q22 40 0 80q-24 39 -69 40q-45 -1 -69 -40q-22 -40 0 -80q24 -39 69 -40v0zM256 153q-1 -36 -32 -55q-32 -18 -64 0q-31 19 -32 55q1 36 32 55q32 18 64 0q31 -19 32 -55v0zM400 169q-20 1 -34 14v0v0
q-13 14 -14 34v64v0h96v0v-64v0q-1 -20 -14 -34q-14 -13 -34 -14v0zM336 217q1 -27 19 -45v0v0q18 -18 45 -19q27 1 45 19t19 45v64v0h32h16v16v0v160v0v16v0h-16h-208v-16v0v-160v0v-16v0h16h32v-64v0zM304 297v160v-160v160h192v0v-160v0h-32h-160z" />
</svg>
