<?xml version="1.0" standalone="no"?>
<!DOCTYPE svg PUBLIC "-//W3C//DTD SVG 1.1//EN" "http://www.w3.org/Graphics/SVG/1.1/DTD/svg11.dtd" >
<svg xmlns="http://www.w3.org/2000/svg" xmlns:xlink="http://www.w3.org/1999/xlink" version="1.1" viewBox="-10 -40 596 512">
   <path fill="currentColor"
d="M312 -7h-8h8h-8v16v0h8h64q76 2 127 51q52 50 57 125h-115v0l-54 -92v0l-7 -11v0l-7 11v0l-52 81v0l-54 -81v0l-7 -10v0l-6 9v0l-68 93v0h-142h-16v16v0v99v0l55 25v0l-85 116v0h20v0l80 -109v0l74 34v0l-56 75v0h20v0l50 -68v0l10 4v0h90v0l-40 64v0h19v0l40 -64v0h171
v0q9 0 18 -2l33 66v0h18v0l-35 -70v0q28 -11 45 -35t17 -55v-80v0v-16v0v0v0q-5 -82 -61 -136t-139 -56h-64v0zM111 319l87 -118l-87 118l87 -118h237v0l2 3v0l5 -3v0h118v0v80v0q-1 34 -23 57q-23 22 -57 23h-276v0l-93 -42v0zM178 201l-81 111l81 -111l-81 111l-49 -22v0
v-89v0h130v0zM210 185l54 -74l-54 74l54 -74l49 74v0h-103v0zM336 185l48 -73l-48 73l48 -73l42 73v0h-90v0zM496 281q-1 -15 -16 -16q-15 1 -16 16q1 15 16 16q15 -1 16 -16v0z" />
</svg>
