<?xml version="1.0" standalone="no"?>
<!DOCTYPE svg PUBLIC "-//W3C//DTD SVG 1.1//EN" "http://www.w3.org/Graphics/SVG/1.1/DTD/svg11.dtd" >
<svg xmlns="http://www.w3.org/2000/svg" xmlns:xlink="http://www.w3.org/1999/xlink" version="1.1" viewBox="-10 -40 596 512">
   <path fill="currentColor"
d="M513 26q-8 -26 -30 -38v0v0q-22 -13 -48 -7l-31 8v0l74 279v0l31 -9v0q26 -7 39 -29q13 -23 6 -49l-41 -155v0zM430 -34q33 -8 61 8v0v0q28 16 37 48l42 155v0q8 33 -8 61q-16 27 -49 37l-31 8v0l-15 4v0l-4 -15v0l-34 -127v0l-349 90v0v222v0h50v0l69 -210v0l19 -5v0
l-24 71v0h156v0l-32 -97v0l15 -4v0l81 245v0h154h8v16v0h-8h-568v-16v0h8h56v-328v0v-8v0h16v0v8v0v90v0l140 -37v0l40 -119v0l1 -6v0h6h16l1 6v0l31 94v0l109 -28v0l-36 -135v0l-4 -16v0l16 -4v0l30 -8v0zM300 162l-28 -86l28 86l-28 -86l-33 101v0l61 -15v0zM397 457
l-42 -128l42 128l-42 -128h-166v0l-42 128v0h250v0z" />
</svg>
