<?xml version="1.0" standalone="no"?>
<!DOCTYPE svg PUBLIC "-//W3C//DTD SVG 1.1//EN" "http://www.w3.org/Graphics/SVG/1.1/DTD/svg11.dtd" >
<svg xmlns="http://www.w3.org/2000/svg" xmlns:xlink="http://www.w3.org/1999/xlink" version="1.1" viewBox="-10 -40 660 512">
   <path fill="currentColor"
d="M320 57q22 -2 24 -24q-2 -22 -24 -24q-22 2 -24 24q2 22 24 24v0zM320 -7q23 1 35 20q10 20 0 40q-12 19 -35 20q-23 -1 -35 -20q-10 -20 0 -40q12 -19 35 -20v0zM389 101l38 68l-38 -68l38 68h-12v0l-3 6v0l-37 -66v0l-2 -4v0h-5h-101l-2 4v0l-37 66v0l-3 -6v0h-12v0
l38 -68v0l7 -12v0h14h110l7 12v0zM390 169l13 23l-13 -23l13 23l-10 16v0l-1 -2v0l-16 -29v0v33v0v23v0v0v0v16v0h-5h-11v0v0v0v0v-16v0v0v0v-56v0v-40v0h12v0l18 32v0zM280 233v16v-16v16v0v0h-11h-5v-10v0v0v0v-6v0v-23v0v-33v0l-16 29v0l-1 2v0l-10 -16v0l13 -23v0
l18 -32v0h12v0v40v0v56v0v0v0zM496 169q22 -2 24 -24q-2 -22 -24 -24q-22 2 -24 24q2 22 24 24v0zM496 105q23 1 35 20q10 20 0 40q-12 19 -35 20q-23 -1 -35 -20q-10 -20 0 -40q12 -19 35 -20v0zM579 338l-11 -20l11 20l-11 -20l-16 -29v0v33v0v23v0v16v0h-16h-96v-16v0
v-23v0v-33v0l-16 29v0l-11 19v0l-4 7v0l-8 14v0l-14 -7v0l-14 -8v0l-14 -8v0l8 -14v0l4 -7v0l56 -101v0l7 -12v0h14h110l7 12v0l56 101v0l4 7v0l8 14v0l-14 8v0l-14 8v0l-14 7v0l-8 -14v0l-4 -7v1zM536 289v-40v40v-40h12v0l18 32v0l27 49v0l4 7v0l14 -8v0l-4 -7v0l-56 -101
v0l-2 -4v0h-5h-101l-2 4v0l-56 101v0l-4 7v0l14 8v0l4 -7v0l27 -49v0l18 -32v0h12v0v40v0v56v0h80v0v-56v0zM8 425h624h-624h632v16v0h-8h-632v-16v0h8v0zM168 145q-2 -22 -24 -24q-22 2 -24 24q2 22 24 24q22 -2 24 -24v0zM104 145q1 -23 20 -35q20 -10 40 0q19 12 20 35
q-1 23 -20 35q-20 10 -40 0q-19 -12 -20 -35v0zM216 318l-16 -29l16 29l-16 -29v33v0v23v0v16v0h-16h-96v-16v0v-23v0v-33v0l-16 29v0l-11 20v0l-4 7v0l-8 14v0l-14 -8v0l-14 -8v0l-14 -8v0l8 -14v0l4 -7v0l56 -101v0l7 -12v0h14h110l7 12v0l56 101v0l4 7v0l8 14v0l-14 8v0
l-14 8v0l-14 7v0l-8 -14v0l-4 -7v0l-11 -19v0zM184 345v-56v56v-56v-40v0h12v0l18 32v0l27 49v0l4 7v0l14 -8v0l-4 -7v0l-56 -101v0l-2 -4v0h-5h-101l-2 4v0l-56 101v0l-4 7v0l14 8v0l4 -7v0l27 -49v0l18 -32v0h12v0v40v0v56v0h80v0z" />
</svg>
