<?xml version="1.0" standalone="no"?>
<!DOCTYPE svg PUBLIC "-//W3C//DTD SVG 1.1//EN" "http://www.w3.org/Graphics/SVG/1.1/DTD/svg11.dtd" >
<svg xmlns="http://www.w3.org/2000/svg" xmlns:xlink="http://www.w3.org/1999/xlink" version="1.1" viewBox="-10 -40 660 512">
   <path fill="currentColor"
d="M232 17q-1 -23 -20 -35q-20 -10 -40 0q-19 12 -20 35q1 23 20 35q20 10 40 0q19 -12 20 -35v0zM136 17q1 -32 28 -48q28 -16 56 0q27 16 28 48q-1 32 -28 48q-28 16 -56 0q-27 -16 -28 -48v0zM133 89h118h-118h123l2 5v0l85 176v0l4 7v0l-15 7v0l-3 -7v0l-83 -172v0h-108
v0l-83 172v0l-3 7v0l-15 -7v0l4 -7v0l85 -176v0l2 -5v0h5v0zM136 201v8v-8v8v248v0h32v0v-152v0v-8v0h8h40v8v0v152v0h32v0v-248v0v-8v0h16v0v8v0v248v0h368h8v16v0h-8h-632v-16v0h8h112v-248v0v-8v0h16v0zM184 457h16h-16h16v-144v0h-16v0v144v0zM598 100l5 6l-5 -6l5 6
l-11 10v0l-6 -5v0l-82 -89v0v347v0v8v0h-16v0v-8v0v-347v0l-82 89v0l-5 5v0l-12 -10v0l5 -6v0l96 -104v0l6 -7v0l6 7v0l96 104v0z" />
</svg>
