<?xml version="1.0" standalone="no"?>
<!DOCTYPE svg PUBLIC "-//W3C//DTD SVG 1.1//EN" "http://www.w3.org/Graphics/SVG/1.1/DTD/svg11.dtd" >
<svg xmlns="http://www.w3.org/2000/svg" xmlns:xlink="http://www.w3.org/1999/xlink" version="1.1" viewBox="-10 -40 596 512">
   <path fill="currentColor"
d="M185 345q-8 -1 -16 -3l16 -113v0l-45 -14v0l-28 -8v0v-30v0v-144v0v-24v0v-16v0h16h64v16v0v24v0v114v0l145 45v0l158 -38v0l23 -6v0l16 -3v0l3 15v0l11 47v0l4 16v0l-15 3v0l-24 6v0l-134 32v0l-14 79v0q-8 -2 -16 -5l14 -77v0l2 -10v0l10 -3v0l135 -32v0l23 -5v0
l-11 -47v0l-23 6v0l-158 37v0l-4 1v0l-4 -1v0l-146 -44v0l-11 -4v0v-12v0v-114v0v-24v0h-48v0v24v0v144v0v18v0l17 5v0l45 14v0l13 4v0l-2 13v0l-16 114v0zM320 137q27 -1 42 -24q12 -24 0 -48q-15 -23 -42 -24q-27 1 -42 24q-12 24 0 48q15 23 42 24v0zM256 89
q1 -36 32 -55q32 -18 64 0q31 19 32 55q-1 36 -32 55q-32 18 -64 0q-31 -19 -32 -55v0zM97 356q0 1 1 2v0v0l12 16q7 9 20 21t29 21t33 9t33 -9t29 -21t20 -21q7 -8 13 -17v-1l1 -1v0v1h1q0 1 1 2q5 8 12 16q7 9 20 21t29 21t33 9t33 -9t29 -21t20 -21q7 -8 13 -17v-1l1 -1
v0l1 1v0q0 1 1 2q5 8 12 16q7 9 20 21t29 21t33 9v16v0q-22 -1 -40 -11q-19 -10 -33 -23q-15 -15 -23 -25q-8 10 -23 25q-14 13 -33 23q-18 10 -40 11q-22 -1 -40 -11q-19 -10 -33 -23q-15 -15 -23 -25q-8 10 -23 25q-14 13 -33 23q-18 10 -40 11q-22 -1 -40 -11
q-19 -10 -33 -23q-15 -15 -23 -25q-8 10 -23 25q-14 13 -33 23q-18 10 -40 11v-16v0q17 0 33 -9t29 -21t20 -21q7 -8 13 -17v-1h1v-1q0 1 1 1v0z" />
</svg>
