<?xml version="1.0" standalone="no"?>
<!DOCTYPE svg PUBLIC "-//W3C//DTD SVG 1.1//EN" "http://www.w3.org/Graphics/SVG/1.1/DTD/svg11.dtd" >
<svg xmlns="http://www.w3.org/2000/svg" xmlns:xlink="http://www.w3.org/1999/xlink" version="1.1" viewBox="-10 -40 335 512">
   <path fill="currentColor"
d="M120 17q1 -23 20 -35q20 -10 40 0q19 12 20 35q-1 23 -20 35q-20 10 -40 0q-19 -12 -20 -35v0zM216 17q-1 -32 -28 -48q-28 -16 -56 0q-27 16 -28 48q1 32 28 48q28 16 56 0q27 -16 28 -48v0zM168 345v120v-120v120v8v0v0v0h8h56v-8v0v-88v0v-168v0v-8v0h-16v0v8v0v248v0
h-32v0v-80v0v-32v0v-16v0h-16v0v-224v0h-8v0v0v0h54v0l83 172v0l3 7v0l15 -7v0l-4 -7v0l-85 -176v0l-2 -5v0h-5h-59v0v0h-59h-5l-2 5v0l-85 176v0l-4 7v0l15 7v0l3 -7v0l83 -172v0h46v0v224v0h8v0v16v0h8v0zM160 329v16v-16v16h-8v0v120v0v8v0h-8h-56v-8v0v-120v0h-32h-11
l3 -10v0l56 -168v0l3 -8v0l15 5v0l-2 8v0l-53 157v0h21h72zM104 457h32h-32h32v-112v0h-32v0v112v0z" />
</svg>
