<?xml version="1.0" standalone="no"?>
<!DOCTYPE svg PUBLIC "-//W3C//DTD SVG 1.1//EN" "http://www.w3.org/Graphics/SVG/1.1/DTD/svg11.dtd" >
<svg xmlns="http://www.w3.org/2000/svg" xmlns:xlink="http://www.w3.org/1999/xlink" version="1.1" viewBox="-10 -40 586 512">
   <path fill="currentColor"
d="M336 153h-16h16h-199l-11 20v0l-96 162v0l-8 14v0l13 8v0l42 24v0l14 8v0l8 -13v0l29 -50v0l16 -27v0v31v0v127v0v16v0h16h176v-206v0l-16 -27v0v59v0v158v0h-160v0v-158v0v-59v0l-30 51v0l-45 76v0l-41 -24v0l95 -162v0l7 -12v0h14h160v0v0h14h2v-16v0zM176 41
q1 -36 32 -55q32 -18 64 0q31 19 32 55q-1 36 -32 55q-32 18 -64 0q-31 -19 -32 -55v0zM320 41q-1 -45 -40 -69q-40 -22 -80 0q-39 24 -40 69q1 45 40 69q40 22 80 0q39 -24 40 -69v0zM448 105h16h-16h16v112v0v13v0v23v0v22v0v11v0v27v0v16v0h16h48v16v0h-56h-56v-176v0
v-16v0v-32v0v-16v0h16v0v-16v0v-112v0h16v0v112v0v16v0zM416 457v-96v96v-96h37v0l2 6v0l34 90v0h-73v0zM472 361h15h-15h72v-16v0v-16v0v-16v0h-16h-48v-16v0v-11v0l64 -21v0v-96v0v-16v0h-16h-32v16v0v56v0l-16 5v0v-5v0v-8v0v-3v0v-61v0v-16v0v-32v0v-16v0h-16v0v-16v0
v-96v0v-16v0h-16h-48v16v0h16v0v16v0v80v0v16v0h-16v0v16v0v16v0v16v0v16v0h-16h-16v16v0v176v0v16v0h16h16v16v0v80v0v16v0h16h96l-6 -16v0l-30 -80v0l-6 -16v0h2v0zM480 270v-23v23v-23l5 -1v0l16 -6v0l11 -3v0v-12v0v-56v0h16v0v85v0l-48 16v0zM384 169h16h-16h16v176v0
h-16v0v-176v0z" />
</svg>
