<?xml version="1.0" standalone="no"?>
<!DOCTYPE svg PUBLIC "-//W3C//DTD SVG 1.1//EN" "http://www.w3.org/Graphics/SVG/1.1/DTD/svg11.dtd" >
<svg xmlns="http://www.w3.org/2000/svg" xmlns:xlink="http://www.w3.org/1999/xlink" version="1.1" viewBox="-10 -40 660 512">
   <path fill="currentColor"
d="M259 -36q-15 0 -27 10v0v0q-12 10 -19 23q-17 29 -18 56v79v0v9v0l-188 104v0l-4 2v0v5v0v88v0v10v0l10 -2v0l182 -51v0v11v0v44v0l-61 45v0l-3 3v0v4v0v56v0v10v0l10 -3v0l118 -31v0l109 29v0v-16v0l-107 -29v0h-2h-2l-110 29v0v-41v0l61 -46v0l3 -2v0v-4v0v-48v0v-21v0
v-11v0v-130v0v-14v0v-79v0q0 -22 15 -48q16 -24 33 -25q17 1 33 25q14 26 15 48v79v0v14v0v4v0v126v0v11v0v21v0v48v0v4v0l3 2v0l26 20v0q-4 -12 -6 -25l-7 -5v0v-44v0v-11v0l7 2v0q2 -8 4 -15l-11 -3v0v-122v0l66 37v0q6 -6 14 -11l-80 -44v0v-9v0v-79v0q-1 -27 -18 -56
q-7 -13 -19 -23t-27 -10v0zM19 257l176 -98l-176 98l176 -98v122v0l-176 48v0v-72v0zM368 329q0 -35 17 -64v0v0q17 -29 47 -47q30 -17 64 -17t64 17q30 18 47 47t17 64t-17 64t-47 47q-30 17 -64 17t-64 -17q-30 -18 -47 -47t-17 -64v0zM640 329q0 -39 -19 -72v0v0
q-19 -33 -53 -53q-34 -19 -72 -19t-72 19q-34 20 -53 53t-19 72t19 72t53 53q34 19 72 19t72 -19q34 -20 53 -53t19 -72v0zM558 279l5 -6l-5 6l5 -6l-11 -11v0l-6 5v0l-50 51v0l-50 -51v0l-6 -5v0l-11 11v0l5 6v0l51 50v0l-51 50v0l-5 6v0l11 11v0l6 -5v0l50 -51v0l50 51v0
l6 5v0l11 -11v0l-5 -6v0l-51 -50v0l51 -50v0z" />
</svg>
