<?xml version="1.0" standalone="no"?>
<!DOCTYPE svg PUBLIC "-//W3C//DTD SVG 1.1//EN" "http://www.w3.org/Graphics/SVG/1.1/DTD/svg11.dtd" >
<svg xmlns="http://www.w3.org/2000/svg" xmlns:xlink="http://www.w3.org/1999/xlink" version="1.1" viewBox="-10 -40 660 512">
   <path fill="currentColor"
d="M53 425l119 -416l-119 416l119 -416h140v0v56v0v8v0h16v0v-8v0v-56v0h140v0l41 145v0q9 0 18 2l-47 -163v0h-320v0l-123 432v0l-5 16v0h17h311l-12 -16h-20v0v-43v0q-3 -10 -5 -21h-11v0v8v0v56v0h-259v0zM328 273v-112v112v-112v-8v0h-16v0v8v0v112v0v8v0h15v0
q0 -2 1 -5v-3v0zM368 329q0 -35 17 -64v0v0q17 -29 47 -47q30 -17 64 -17t64 17q30 18 47 47t17 64t-17 64t-47 47q-30 17 -64 17t-64 -17q-30 -18 -47 -47t-17 -64v0zM640 329q0 -39 -19 -72v0v0q-19 -33 -53 -53q-34 -19 -72 -19t-72 19q-34 20 -53 53t-19 72t19 72t53 53
q34 19 72 19t72 -19q34 -20 53 -53t19 -72v0zM558 279l5 -6l-5 6l5 -6l-11 -11v0l-6 5v0l-50 51v0l-50 -51v0l-6 -5v0l-11 11v0l5 6v0l51 50v0l-51 50v0l-5 6v0l11 11v0l6 -5v0l50 -51v0l50 51v0l6 5v0l11 -11v0l-5 -6v0l-51 -50v0l51 -50v0z" />
</svg>
