<?xml version="1.0" standalone="no"?>
<!DOCTYPE svg PUBLIC "-//W3C//DTD SVG 1.1//EN" "http://www.w3.org/Graphics/SVG/1.1/DTD/svg11.dtd" >
<svg xmlns="http://www.w3.org/2000/svg" xmlns:xlink="http://www.w3.org/1999/xlink" version="1.1" viewBox="-10 -40 660 512">
   <path fill="currentColor"
d="M496 201q35 0 64 17v0v0q29 17 47 47q17 30 17 64t-17 64q-18 30 -47 47t-64 17t-64 -17t-47 -47q-17 -30 -17 -64t17 -64q18 -30 47 -47t64 -17v0zM496 473q39 0 72 -19v0v0q33 -19 53 -53q19 -34 19 -72t-19 -72q-20 -34 -53 -53t-72 -19t-72 19t-53 53q-19 34 -19 72
t19 72q20 34 53 53t72 19v0zM508 381h-24h24h-24v24v0h24v0v-24v0zM504 249v-8v8v-8h-16v0v8v0v96v0v8v0h16v0v-8v0v-96v0zM16 73h144h-144h144l160 -112v0l160 112v0h144h16v16v0v139v0q-7 -11 -16 -20v-119v0h-144h-5l-4 -3v0l-151 -105v0l-151 105v0l-4 3v0h-5h-144v368
v0h240v0v-112v0q1 -27 19 -45t45 -19h7q-3 8 -4 16h-3q-20 1 -34 14q-13 14 -14 34v112v0h32h71q9 9 20 16h-11h-384v-16v0v-368v0v-16v0h16v0zM64 153h8h-8h80v8v0v80v0v8v0h-8h-72v-8v0v-80v0v-8v0zM80 169v64v-64v64h48v0v-64v0h-48v0zM384 137q-1 -36 -32 -55
q-32 -18 -64 0q-31 19 -32 55q1 36 32 55q32 18 64 0q31 -19 32 -55v0zM240 137q1 -45 40 -69q40 -22 80 0q39 24 40 69q-1 45 -40 69q-40 22 -80 0q-39 -24 -40 -69v0zM328 97v8v-8v8v24v0h16h8v16v0h-8h-32v-8v0v-32v0v-8v0h16v0zM72 281h64h-64h72v8v0v80v0v8v0h-8h-72
v-8v0v-80v0v-8v0h8v0zM80 361h48h-48h48v-64v0h-48v0v64v0z" />
</svg>
