<?xml version="1.0" standalone="no"?>
<!DOCTYPE svg PUBLIC "-//W3C//DTD SVG 1.1//EN" "http://www.w3.org/Graphics/SVG/1.1/DTD/svg11.dtd" >
<svg xmlns="http://www.w3.org/2000/svg" xmlns:xlink="http://www.w3.org/1999/xlink" version="1.1" viewBox="-10 -40 586 512">
   <path fill="currentColor"
d="M203 90l-10 -12l10 12l-10 -12l-6 5v0l-67 60v0v-174v0v-8v0h-16v0v8v0v174v0l-67 -60v0l-5 -5v0l-11 12v0l6 5v0l80 72v0l5 5v0l5 -5v0l80 -72v0l6 -5v0zM64 473h16h-16h448l-2 -16v0l-30 -208v0l-192 -128v0l-192 128v0l-30 208v0l-2 16v0zM296 457v-147v147v-147
l90 147v0h-90v0zM280 457h-198h198h-198l29 -199v0l169 -112v0v311v0zM296 146l169 112l-169 -112l169 112l29 199v0h-89v0l-109 -178v0v-133v0zM549 95l6 -5l-6 5l6 -5l-10 -12v0l-6 5v0l-67 60v0v-174v0v-8v0h-16v0v8v0v174v0l-67 -60v0l-5 -5v0l-11 12v0l6 5v0l80 72v0
l5 5v0l5 -5v0l81 -72h-1z" />
</svg>
