<?xml version="1.0" standalone="no"?>
<!DOCTYPE svg PUBLIC "-//W3C//DTD SVG 1.1//EN" "http://www.w3.org/Graphics/SVG/1.1/DTD/svg11.dtd" >
<svg xmlns="http://www.w3.org/2000/svg" xmlns:xlink="http://www.w3.org/1999/xlink" version="1.1" viewBox="-10 -40 660 512">
   <path fill="currentColor"
d="M288 -39h8h-8h224v8v0v184v0h48v0v-88v0v-8v0h16v0v8v0v88v0h56h8v8v0v304v0v8v0h-16v0v-8v0v-296v0h-48h-80v-8v0v-184v0h-192v0v488v0v8v0h-16v0v-8v0v-496v0v-8v0zM206 143l1 -9l-1 9l1 -9q1 -7 1 -13q-1 -34 -23 -57q-23 -22 -57 -23q-34 1 -57 23q-22 23 -23 57
q0 6 1 13l2 9v0l-8 6v0q-26 19 -27 52v64v0h104v0v-72v0v-8v0h16v0v8v0v72v0h104v0v-64v0q-1 -33 -27 -52l-8 -6h1zM16 281h-16h16h-16v-16v0v-64v0q2 -42 33 -65q-1 -7 -1 -15q1 -41 28 -68t68 -28q41 1 68 28t28 68q0 8 -1 15q31 23 33 65v64v0v16v0h-16h-104v184v0v8v0
h-16v0v-8v0v-184v0h-104v0zM368 33h64h-64h72v8v0v64v0v8v0h-8h-72v-8v0v-64v0v-8v0h8v0zM376 97h48h-48h48v-48v0h-48v0v48v0zM488 225h8h-8h80v8v0v64v0v8v0h-8h-72v-8v0v-64v0v-8v0zM504 289h48h-48h48v-48v0h-48v0v48v0zM496 353h64h-64h72v8v0v64v0v8v0h-8h-72v-8v0
v-64v0v-8v0h8v0zM504 417h48h-48h48v-48v0h-48v0v48v0zM360 161h8h-8h80v8v0v64v0v8v0h-8h-72v-8v0v-64v0v-8v0zM376 225h48h-48h48v-48v0h-48v0v48v0zM368 289h64h-64h72v8v0v64v0v8v0h-8h-72v-8v0v-64v0v-8v0h8v0zM376 353h48h-48h48v-48v0h-48v0v48v0z" />
</svg>
