<?xml version="1.0" standalone="no"?>
<!DOCTYPE svg PUBLIC "-//W3C//DTD SVG 1.1//EN" "http://www.w3.org/Graphics/SVG/1.1/DTD/svg11.dtd" >
<svg xmlns="http://www.w3.org/2000/svg" xmlns:xlink="http://www.w3.org/1999/xlink" version="1.1" viewBox="-10 -40 532 512">
   <path fill="currentColor"
d="M387 182l-11 11l11 -11l-11 11l-11 -11v0l-74 -74v0l-11 -11v0l11 -11v0l114 -114v0l11 -11v0l11 11v0l74 74v0l11 11v0l-11 11v0l-114 114v0zM489 57l-73 -73l73 73l-73 -73l-113 113v0l73 73v0l113 -113v0zM210 251l112 -112l-112 112l112 -112l12 12v0l-112 112v0
l87 87v0l11 11v0l-11 11v0l-29 29v0l-262 67v0l-18 5v0l5 -18v0l67 -262v0l29 -29v0l11 -11v0l11 11v0l87 87v0zM272 387l25 -26l-25 26l25 -26l-185 -185v0l-26 25v0l-64 250v0l250 -64v0z" />
</svg>
