<?xml version="1.0" standalone="no"?>
<!DOCTYPE svg PUBLIC "-//W3C//DTD SVG 1.1//EN" "http://www.w3.org/Graphics/SVG/1.1/DTD/svg11.dtd" >
<svg xmlns="http://www.w3.org/2000/svg" xmlns:xlink="http://www.w3.org/1999/xlink" version="1.1" viewBox="-10 -40 660 512">
   <path fill="currentColor"
d="M322 169q36 -1 55 -32q17 -32 0 -64q-19 -31 -55 -32q-37 1 -56 32q-17 32 0 64q19 31 56 32v0zM322 25q45 1 69 40q21 40 0 80q-24 39 -69 40q-46 -1 -70 -40q-21 -40 0 -80q24 -39 70 -40v0zM441 329l-36 -96l36 96l-36 -96h-170v0l-36 96v0h242v0zM224 217h192h-192
h192l42 112v0l6 16v0h-17h-271l6 -16v0l42 -112v0zM8 409h624h-624h632v16v0h-8h-632v-16v0h8v0zM195 89q-1 -27 -24 -42q-24 -12 -48 0q-23 15 -24 42q1 27 24 42q24 12 48 0q23 -15 24 -42v0zM83 89q1 -36 32 -55q32 -18 64 0q31 19 32 55q-1 36 -32 55q-32 18 -64 0
q-31 -19 -32 -55v0zM496 137q27 -1 42 -24q12 -24 0 -48q-15 -23 -42 -24q-27 1 -42 24q-12 24 0 48q15 23 42 24v0zM496 25q36 1 55 32q18 32 0 64q-19 31 -55 32q-36 -1 -55 -32q-18 -32 0 -64q19 -31 55 -32v0zM76 201l-22 64l22 -64l-22 64h118v0l-6 16v0h-117h-17
l5 -16v0l27 -80v0h138v0l-6 16v0h-120v0zM468 265h118h-118h118l-21 -64v0h-121v0l-6 -16v0h138v0l27 80v0l5 16v0h-17h-117l-6 -16v0z" />
</svg>
