<?xml version="1.0" standalone="no"?>
<!DOCTYPE svg PUBLIC "-//W3C//DTD SVG 1.1//EN" "http://www.w3.org/Graphics/SVG/1.1/DTD/svg11.dtd" >
<svg xmlns="http://www.w3.org/2000/svg" xmlns:xlink="http://www.w3.org/1999/xlink" version="1.1" viewBox="-10 -40 660 512">
   <path fill="currentColor"
d="M366 23l48 -48l-48 48l48 -48l-12 -12v0l-48 48v0l-5 6v0l11 11v0l6 -5v0zM462 119l48 -48l-48 48l48 -48l-12 -12v0l-48 48v0l-5 6v0l11 11v0l6 -5v0zM502 -17l5 -6l-5 6l5 -6l-11 -11v0l-6 5v0l-153 154v0q4 -30 -5 -58q-9 -29 -31 -51l-11 -12v0l-12 -11v0l-11 11v0
l-11 12v0q-29 29 -29 68q0 38 29 67l27 28v0l-48 48v0q4 -30 -5 -58q-9 -29 -31 -52l-11 -11v0l-12 -11v0l-11 11v0l-11 11v0q-28 30 -28 68q0 39 28 68l27 28v0l-48 47v0q5 -29 -4 -58q-10 -28 -32 -51l-11 -11v0l-11 -11v0l-12 11v0l-11 11v0q-28 30 -28 68q0 39 28 68
l27 27v0l-73 74v0l-6 6v0l11 11v0l6 -6v0l74 -73v0l29 29v0q29 28 68 28q38 0 68 -28l11 -11v0l11 -12v0l-11 -11v0l-12 -11v0q-23 -23 -53 -32t-60 -4l50 -50v0l30 29v0q20 20 47 26q26 6 52 -3q-1 -7 -1 -15v-2v0q-22 9 -46 5q-23 -4 -41 -22l-29 -29v0l16 -16v0
q26 -12 55 -10t54 18q3 -8 6 -15q-43 -26 -91 -17l50 -51v0l29 29v0q11 11 23 17q5 -6 10 -13q-12 -6 -21 -15l-29 -29v0l15 -16v0q26 -12 53 -10q27 1 51 15q9 -4 19 -7q-46 -32 -98 -22l156 -156v0zM290 27q24 25 30 57v0v0q6 32 -5 63l-21 20v0l-27 -27v0
q-24 -25 -24 -57q0 -31 24 -56l11 -11v0l11 11h1zM188 129q24 25 30 57v0v0q7 32 -5 63l-21 20v0l-27 -27v0q-23 -25 -23 -57t23 -56l11 -12v0l12 12v0zM86 231q24 25 30 57v0v0q7 32 -5 63l-20 20v0l-28 -27v0q-23 -25 -23 -57t23 -56l12 -12v0l11 12v0zM102 382l16 -15
l-16 15l16 -15q32 -15 66 -9q34 5 60 31l12 11v0l-12 12v0q-24 23 -56 23t-57 -23l-29 -30v0zM368 329q0 -35 17 -64v0v0q17 -29 47 -47q30 -17 64 -17t64 17q30 18 47 47t17 64t-17 64t-47 47q-30 17 -64 17t-64 -17q-30 -18 -47 -47t-17 -64v0zM640 329q0 -39 -19 -72v0v0
q-19 -33 -53 -53q-34 -19 -72 -19t-72 19q-34 20 -53 53t-19 72t19 72t53 53q34 19 72 19t72 -19q34 -20 53 -53t19 -72v0zM508 405v-24v24v-24h-24v0v24v0h24v0zM504 241h-16h16h-16v8v0v96v0v8v0h16v0v-8v0v-96v0v-8v0z" />
</svg>
