<?xml version="1.0" standalone="no"?>
<!DOCTYPE svg PUBLIC "-//W3C//DTD SVG 1.1//EN" "http://www.w3.org/Graphics/SVG/1.1/DTD/svg11.dtd" >
<svg xmlns="http://www.w3.org/2000/svg" xmlns:xlink="http://www.w3.org/1999/xlink" version="1.1" viewBox="-10 -40 330 512">
   <path fill="currentColor"
d="M160 73q27 -1 42 -24q12 -24 0 -48q-15 -23 -42 -24q-27 1 -42 24q-12 24 0 48q15 23 42 24v0zM160 -39q36 1 55 32q18 32 0 64q-19 31 -55 32q-36 -1 -55 -32q-18 -32 0 -64q19 -31 55 -32v0zM220 206l3 8l-3 -8l3 8l64 136v0l6 11v0h-13h-40v104v0v8v0h-8h-56v-8v0
v-104v0h-32v0v104v0v8v0h-8h-56v-8v0v-104v0h-40h-13l6 -11v0l64 -136v0l3 -8v0l15 7v0l-4 7v0l-58 125v0h35h179l-58 -125v0l-4 -7v0l15 -7v0zM128 361h-32h32h-32v96v0h32v0v-96v0zM192 361v96v-96v96h32v0v-96v0h-32v0zM109 121h102h-102h107l2 4v0l85 144v0l4 7v0l-14 8
v0l-4 -7v0l-82 -140v0h-93v0l-83 140v0l-4 7v0l-14 -8v0l4 -7v0l85 -144v0l2 -4v0h5v0z" />
</svg>
