<?xml version="1.0" standalone="no"?>
<!DOCTYPE svg PUBLIC "-//W3C//DTD SVG 1.1//EN" "http://www.w3.org/Graphics/SVG/1.1/DTD/svg11.dtd" >
<svg xmlns="http://www.w3.org/2000/svg" xmlns:xlink="http://www.w3.org/1999/xlink" version="1.1" viewBox="-10 -40 596 512">
   <path fill="currentColor"
d="M16 457h295h-295h295q9 9 20 16h-315h-16v-16v0v-480v0v-16v0h16h208l160 160v0v39v0q-8 2 -16 5v-28v0h-152h-8v-8v0v-152v0h-192v0v480v0zM361 121l-137 -137l137 137l-137 -137v137v0h137v0zM432 457q35 0 64 -17v0v0q29 -17 47 -47q17 -30 17 -64t-17 -64
q-18 -30 -47 -47t-64 -17t-64 17t-47 47q-17 30 -17 64t17 64q18 30 47 47t64 17v0zM432 185q39 0 72 19v0v0q33 19 53 53q19 34 19 72t-19 72q-20 34 -53 53t-72 19t-72 -19t-53 -53q-19 -34 -19 -72t19 -72q20 -34 53 -53t72 -19v0zM507 289l-5 6l5 -6l-5 6l-80 80v0l-6 5
v0l-6 -5v0l-48 -48v0l-6 -6v0l12 -11v0l6 5v0l42 43v0l74 -75v0l6 -5v0l11 11v0z" />
</svg>
