<?xml version="1.0" standalone="no"?>
<!DOCTYPE svg PUBLIC "-//W3C//DTD SVG 1.1//EN" "http://www.w3.org/Graphics/SVG/1.1/DTD/svg11.dtd" >
<svg xmlns="http://www.w3.org/2000/svg" xmlns:xlink="http://www.w3.org/1999/xlink" version="1.1" viewBox="-10 -40 468 512">
   <path fill="currentColor"
d="M112 -31v-8v8v-8h-16v0v8v0v9v0q1 27 23 42l42 24v0q14 10 15 28v9v0v8v0h16v0v-8v0v-9v0q-1 -27 -23 -42l-41 -24v0q-15 -10 -16 -28v-9v0zM208 -31v-8v8v-8h-16v0v8v0v9v0q1 27 23 42l42 24v0q14 10 15 28v9v0v8v0h16v0v-8v0v-9v0q-1 -27 -23 -42l-41 -24v0
q-15 -10 -16 -28v-9v0zM139 338q25 7 53 7h64v0q28 0 53 -7l29 63v0h-178v0q-5 -30 -29 -46l8 -17v0zM123 332l-7 16l7 -16l-7 16q-9 -3 -20 -3q-27 1 -45 19t-19 45q1 27 19 45t45 19q25 -1 42 -16q18 -16 21 -40h186v0l22 46v0l3 8v0l14 -7v0l-3 -7v0l-56 -125v0
q55 -21 88 -69q34 -48 35 -110v-16v0v-16v0h-16h-432v16v0v16v0q1 62 35 110q33 48 89 69h-1zM96 361q27 1 42 24q12 24 0 48q-15 23 -42 24q-27 -1 -42 -24q-12 -24 0 -48q15 -23 42 -24v0zM16 137h416h-416h416v16v0q-2 75 -52 124q-49 50 -124 52h-64v0q-75 -2 -124 -52
q-50 -49 -52 -124v-16v0z" />
</svg>
