<?xml version="1.0" standalone="no"?>
<!DOCTYPE svg PUBLIC "-//W3C//DTD SVG 1.1//EN" "http://www.w3.org/Graphics/SVG/1.1/DTD/svg11.dtd" >
<svg xmlns="http://www.w3.org/2000/svg" xmlns:xlink="http://www.w3.org/1999/xlink" version="1.1" viewBox="-10 -40 532 512">
   <path fill="currentColor"
d="M280 49q1 -31 21 -51v0v0q20 -20 51 -21q31 1 51 21t21 51v40v0q-33 3 -52 22q-20 19 -20 53q1 23 23 55q23 33 57 62q34 -29 57 -62q22 -32 23 -55q0 -34 -20 -53q-19 -19 -52 -22v-40v0q-1 -37 -26 -62t-62 -26q-37 1 -62 26t-26 62v89v0q-14 -23 -37 -36t-51 -13
q-44 1 -74 30q-29 30 -30 74v24v0q-33 3 -52 22q-20 19 -20 53q1 23 23 55q23 33 57 62q34 -29 57 -62q22 -32 23 -55q0 -34 -20 -53q-19 -19 -52 -22v-24v0q1 -37 26 -62t62 -26q37 1 62 26t26 62v48v0v8v0v216v0v8v0h16v0v-8v0v-216v0v-8v0v-48v0v-144v0zM424 105v56v-56
v56v8v0h16v0v-8v0v-56v0q25 3 39 16q16 14 17 43q0 15 -21 46q-17 25 -43 50q-26 -25 -43 -50q-21 -31 -21 -46q1 -29 17 -43q14 -13 39 -16v0zM33 249q14 -13 39 -16v56v0v8v0h16v0v-8v0v-56v0q25 3 39 16q16 14 17 43q0 15 -21 46q-17 25 -43 50q-26 -25 -43 -50
q-21 -31 -21 -46q1 -29 17 -43v0z" />
</svg>
