<?xml version="1.0" standalone="no"?>
<!DOCTYPE svg PUBLIC "-//W3C//DTD SVG 1.1//EN" "http://www.w3.org/Graphics/SVG/1.1/DTD/svg11.dtd" >
<svg xmlns="http://www.w3.org/2000/svg" xmlns:xlink="http://www.w3.org/1999/xlink" version="1.1" viewBox="-10 -40 650 512">
   <path fill="currentColor"
d="M15 457l12 -28l-12 28l12 -28q24 -65 31 -136q7 -72 6 -140q1 -82 28 -136t68 -56h332v0v0v0h4q26 1 47 17q21 17 35 43q29 54 30 132q-1 78 -30 132q-14 26 -35 43q-21 16 -47 17q-43 -2 -70 -42l2 -26q27 50 68 52q41 -2 68 -52q27 -49 28 -124q-1 -75 -28 -124
q-27 -50 -68 -52q-8 0 -16 2q-35 12 -57 60q-22 47 -23 114q1 74 -7 152t-35 148l-9 20v0h-324h-17l7 -16v0zM160 -23q-27 -1 -54 47q-25 50 -26 129q1 68 -6 141q-7 74 -33 141v0v0v0v0l-9 22v0h307v0l4 -10v0v0v0q26 -67 34 -143q8 -77 7 -150v-1v0q1 -78 30 -132
q15 -27 36 -44h-290v0zM517 216q-8 8 -21 9q-13 -1 -21 -9q-7 -7 -11 -17q-8 -20 -8 -46t8 -46q4 -10 11 -17q8 -8 21 -9q13 1 21 9q7 7 11 17q8 20 8 46t-8 46q-4 10 -11 17v0zM496 209q10 -1 17 -16v0v0q7 -16 7 -40t-7 -40q-7 -15 -17 -16q-10 1 -17 16q-7 16 -7 40t7 40
q7 15 17 16v0zM302 135l-80 80l80 -80l-80 80l-6 5v0l-6 -5v0l-48 -48v0l-5 -6v0l11 -11v0l6 5v0l42 43v0l74 -75v0l6 -5v0l11 11v0l-5 6v0z" />
</svg>
