<?xml version="1.0" standalone="no"?>
<!DOCTYPE svg PUBLIC "-//W3C//DTD SVG 1.1//EN" "http://www.w3.org/Graphics/SVG/1.1/DTD/svg11.dtd" >
<svg xmlns="http://www.w3.org/2000/svg" xmlns:xlink="http://www.w3.org/1999/xlink" version="1.1" viewBox="-10 -40 532 512">
   <path fill="currentColor"
d="M264 -7h-8h8h-8v16v0h8h136v60v0l-66 44v0h-35v0q-44 0 -84 19q-39 18 -68 51l-52 -78v0h25h8v-16v0h-8h-88v16v0h8h36l61 92v0q-4 5 -8 11l-6 10v0q-5 -1 -11 -1q-48 1 -79 33q-32 31 -33 79q1 48 33 79q31 32 79 33q48 -1 79 -33q32 -31 33 -79q-1 -40 -24 -69t-60 -39
l3 -4v0q25 -42 67 -65q41 -23 89 -23h31v0l15 62v0q-39 13 -64 46q-24 32 -25 76q1 54 37 91q37 36 91 37q54 -1 91 -37q36 -37 37 -91q-1 -54 -37 -91q-37 -36 -91 -37q-12 0 -23 2l-16 -62v0l68 -45v0l3 -3v0v-4v0v-72v0v-8v0h-8h-144zM349 207l27 108l-27 -108l27 108
l2 8v0l16 -4v0l-2 -8v0l-27 -108v0q9 -2 19 -2q48 1 79 33q32 31 33 79q-1 48 -33 79q-31 32 -79 33q-48 -1 -79 -33q-32 -31 -33 -79q1 -38 22 -66q21 -29 55 -40v0zM112 233q26 0 48 13v0v0q22 13 35 35q13 23 13 48t-13 48q-13 22 -35 35t-48 13t-48 -13t-35 -35
q-13 -23 -13 -48t13 -48q13 -22 35 -35t48 -13v0z" />
</svg>
