<?xml version="1.0" standalone="no"?>
<!DOCTYPE svg PUBLIC "-//W3C//DTD SVG 1.1//EN" "http://www.w3.org/Graphics/SVG/1.1/DTD/svg11.dtd" >
<svg xmlns="http://www.w3.org/2000/svg" xmlns:xlink="http://www.w3.org/1999/xlink" version="1.1" viewBox="-10 -40 659 512">
   <path fill="currentColor"
d="M112 89q0 -30 15 -56v0v0q15 -26 41 -41t56 -15t56 15t41 41t15 56t-15 56t-41 41t-56 15t-56 -15t-41 -41t-15 -56v0zM352 89q0 -35 -17 -64v0v0q-17 -29 -47 -47q-30 -17 -64 -17t-64 17q-30 18 -47 47t-17 64t17 64t47 47q30 17 64 17t64 -17q30 -18 47 -47t17 -64v0z
M22 457l54 -176l-54 176l54 -176h212v0q0 -8 1 -16h-225v0l-59 192v0l-5 16v0h17h431l-5 -16v0l-5 -16v0q-9 -1 -17 -2l5 18v0h-404v0zM448 169q30 0 56 15v0v0q26 15 41 41q15 27 15 56q0 30 -15 56t-41 41t-56 15t-56 -15t-41 -41t-15 -56q0 -29 15 -56q15 -26 41 -41
t56 -15v0zM448 409q50 -1 85 -32l89 90v0l6 5v0l11 -11v0l-5 -6v0l-90 -89v0q31 -35 32 -85q-1 -54 -37 -90q-37 -37 -91 -38q-54 1 -91 38q-36 36 -37 90q1 54 37 91q37 36 91 37v0z" />
</svg>
