<?xml version="1.0" standalone="no"?>
<!DOCTYPE svg PUBLIC "-//W3C//DTD SVG 1.1//EN" "http://www.w3.org/Graphics/SVG/1.1/DTD/svg11.dtd" >
<svg xmlns="http://www.w3.org/2000/svg" xmlns:xlink="http://www.w3.org/1999/xlink" version="1.1" viewBox="-10 -40 532 512">
   <path fill="currentColor"
d="M72 337l4 -9l-4 9l4 -9l-8 -7v0q-51 -52 -52 -120q2 -80 69 -135t171 -57q104 2 171 57t69 135q-2 80 -69 135t-171 57q-45 0 -85 -12l-5 -2v0l-4 2v0l-120 35v0l30 -79v0zM16 441l19 -6l-19 6l19 -6l131 -39v0q43 13 90 13q72 -1 129 -28q58 -28 92 -75t35 -105
q-1 -58 -35 -105t-92 -75q-57 -27 -129 -28q-72 1 -129 28q-58 28 -92 75t-35 105q2 76 57 131l-34 90v0l-7 19v0zM248 138q-18 -17 -42 -17h-3v0q-25 1 -42 17q-16 17 -17 42q0 25 18 43l83 80v0l11 10v0l11 -11v0l83 -79v0q18 -18 18 -43q-1 -25 -17 -42q-17 -16 -42 -17
h-2v0q-25 0 -43 17l-8 7v0l-8 -7v0zM245 157l11 11l-11 -11l11 11l11 -11v0l8 -7v0q13 -13 31 -13h3v0q18 0 30 13q13 12 13 30t-13 31l-83 80v0l-83 -80v0q-13 -13 -13 -31t13 -30q12 -13 30 -13h3v0q18 0 31 13l8 7v0z" />
</svg>
