<?xml version="1.0" standalone="no"?>
<!DOCTYPE svg PUBLIC "-//W3C//DTD SVG 1.1//EN" "http://www.w3.org/Graphics/SVG/1.1/DTD/svg11.dtd" >
<svg xmlns="http://www.w3.org/2000/svg" xmlns:xlink="http://www.w3.org/1999/xlink" version="1.1" viewBox="-10 -40 532 512">
   <path fill="currentColor"
d="M160 377h-16h16h-160v-16v0v-384v0v-16v0h16h496v16v0v384v0v16v0h-16h-192l-128 85v0l-16 11v0v-19v0v-61v0v-16v0zM160 361h16h-16h16v16v0v66v0l119 -79v0l4 -3v0h5h192v-384v0h-480v0v384v0h144v0zM248 90l8 8l-8 -8l8 8l8 -8v0q18 -17 42 -17h3v0q25 1 42 17
q16 17 17 42q0 25 -18 43l-83 80v0l-11 10v0l-11 -11v0l-83 -79v0q-18 -18 -18 -43q1 -25 17 -42q17 -16 42 -17h2v0q25 0 43 17v0zM245 109l-8 -7l8 7l-8 -7q-13 -13 -31 -13h-3v0q-18 0 -30 13q-13 12 -13 30t13 31l83 80v0l83 -80v0q13 -13 13 -31t-13 -30
q-12 -13 -30 -13h-3v0q-18 0 -31 13l-8 7v0l-11 11v0l-11 -11v0z" />
</svg>
