<?xml version="1.0" standalone="no"?>
<!DOCTYPE svg PUBLIC "-//W3C//DTD SVG 1.1//EN" "http://www.w3.org/Graphics/SVG/1.1/DTD/svg11.dtd" >
<svg xmlns="http://www.w3.org/2000/svg" xmlns:xlink="http://www.w3.org/1999/xlink" version="1.1" viewBox="-10 -40 532 512">
   <path fill="currentColor"
d="M384 9l37 -37l-37 37l37 -37l11 -11v0l11 11v0l58 58v0l11 11v0l-11 11v0l-37 37v0l5 5v0l11 11v0l-11 11v0l-277 277v0l-147 47v0l-34 33v0l-11 -11v0l34 -34v0l46 -147v0l214 -214v0l-46 -47v0l-122 123v0l-6 5v0l-11 -11v0l5 -6v0l128 -128v0l6 -5v0l6 5v0l52 52v0
l51 -51v0l11 -11v0l11 11v0l5 5v0zM395 20l58 58l-58 -58l58 58l36 -37v0l-57 -57v0l-37 36v0zM194 368l263 -263l-263 263l263 -263l-89 -89v0l-263 263v0l89 89v0zM183 379l-89 -89l89 89l-89 -89l-41 130v0l130 -41v0z" />
</svg>
