<?xml version="1.0" standalone="no"?>
<!DOCTYPE svg PUBLIC "-//W3C//DTD SVG 1.1//EN" "http://www.w3.org/Graphics/SVG/1.1/DTD/svg11.dtd" >
<svg xmlns="http://www.w3.org/2000/svg" xmlns:xlink="http://www.w3.org/1999/xlink" version="1.1" viewBox="-10 -40 532 512">
   <path fill="currentColor"
d="M496 217q-1 -65 -32 -120v0v0q-32 -55 -88 -88q-57 -32 -120 -32t-120 32q-56 33 -88 88q-31 55 -32 120q1 65 32 120q32 55 88 88q57 32 120 32t120 -32q56 -33 88 -88q31 -55 32 -120v0zM0 217q1 -70 34 -128v0v0q34 -58 94 -94q61 -34 128 -34t128 34q60 36 94 94
q33 58 34 128q-1 70 -34 128q-34 58 -94 94q-61 34 -128 34t-128 -34q-60 -36 -94 -94q-33 -58 -34 -128v0zM268 97q-19 0 -32 13v0v0q-12 13 -13 32l1 59v0h56h8v16v0h-8h-56v57v0v4v0l-2 2v0l-34 33v0h156h8v16v0h-8h-196l14 -14v0l46 -44v0v-54v0h-40h-8v-16v0h8h40
l-1 -59v0q1 -26 18 -43t43 -18q14 0 27 6l20 11v0l8 4v0l-8 14v0l-7 -4v0l-21 -10v0q-9 -5 -20 -5h1z" />
</svg>
