<?xml version="1.0" standalone="no"?>
<!DOCTYPE svg PUBLIC "-//W3C//DTD SVG 1.1//EN" "http://www.w3.org/Graphics/SVG/1.1/DTD/svg11.dtd" >
<svg xmlns="http://www.w3.org/2000/svg" xmlns:xlink="http://www.w3.org/1999/xlink" version="1.1" viewBox="-10 -40 660 512">
   <path fill="currentColor"
d="M272 -23h-16h16h-16q-41 1 -68 28t-28 68v16v0h16v0q41 -1 68 -28t28 -68v-16v0zM160 105h-4q-43 47 -44 112q2 88 61 147t147 61h88h2l2 1v0l64 32v0l-8 14v0l-62 -31v0h-86v0v0v0h-86v0l-62 31v0l-8 -14v0l64 -32v0l2 -1v0h2h5q-33 -13 -59 -35q-45 18 -89 3t-70 -57
l-8 -14v0l-8 -14v0l14 -8v0q27 -15 56 -15q-33 -16 -53 -47q-19 -30 -20 -69v-16v0v-16v0h16v0q31 0 56 15q-20 -30 -22 -66q-2 -37 17 -71l8 -13v0l8 -14v0l14 8v0q35 21 49 58q7 -41 38 -66q30 -26 72 -27h16h16v16v0v16v0q-1 48 -33 79q-31 32 -79 33h-16v0zM136 103
q3 -28 -9 -53v0v0q-13 -25 -38 -40l-8 14v0q-20 36 -14 74q7 39 37 66q10 -34 32 -61v0zM117 311q-45 -22 -92 3l8 14v0q21 35 57 48q36 14 74 2q-29 -29 -47 -67v0zM96 217v-10v0v0q1 -5 1 -9q-28 -43 -81 -45v16v0q1 41 25 71q25 30 64 39q-9 -30 -9 -62v0zM480 89v-16v16
v-16q-1 -41 -28 -68t-68 -28h-16v0v16v0q1 41 28 68t68 28h16v0zM504 103q22 27 32 61q30 -27 37 -66q6 -38 -14 -74l-8 -14v0q-25 15 -38 40q-12 25 -9 53v0zM568 152q25 -15 56 -15h16v0v16v0v16v0q-1 39 -20 69q-20 31 -53 47q29 -1 56 15l14 8v0l-8 14v0l-8 14v0
q-26 42 -70 57q-44 14 -89 -3q-10 8 -20 15l-17 -8v0q47 -28 75 -75q27 -47 28 -105q-1 -65 -44 -112h-4h-16v0q-48 -1 -79 -33q-32 -31 -33 -79v-16v0v-16v0h16h16q42 1 72 27q31 25 38 66q14 -37 49 -58l14 -8v0l8 14v0l8 14v0q19 33 17 70q-2 36 -22 66v0zM523 311
q-18 38 -47 67q38 12 74 -2q36 -13 57 -49l8 -13v0q-47 -25 -92 -3v0zM543 198q1 9 1 19q0 32 -9 62q39 -9 64 -39q24 -30 25 -71v-16v0q-53 2 -81 45v0z" />
</svg>
