<?xml version="1.0" standalone="no"?>
<!DOCTYPE svg PUBLIC "-//W3C//DTD SVG 1.1//EN" "http://www.w3.org/Graphics/SVG/1.1/DTD/svg11.dtd" >
<svg xmlns="http://www.w3.org/2000/svg" xmlns:xlink="http://www.w3.org/1999/xlink" version="1.1" viewBox="-10 -40 532 512">
   <path fill="currentColor"
d="M496 217q-1 -67 -33 -121v0v0q-32 -54 -86 -86v0v0q-54 -32 -121 -33v216v0q-1 7 -8 8h-231v0q-1 8 -1 16q1 67 33 121t86 86t121 33q67 -1 121 -33t86 -86t33 -121v0zM240 -22q-88 7 -148 64v0v0q-61 57 -74 143h222v0v-207v0zM0 217q1 -70 34 -128v0v0q34 -58 94 -94
q61 -34 128 -34t128 34q60 36 94 94q33 58 34 128q-1 70 -34 128q-34 58 -94 94q-61 34 -128 34t-128 -34q-60 -36 -94 -94q-33 -58 -34 -128v0z" />
</svg>
