<?xml version="1.0" standalone="no"?>
<!DOCTYPE svg PUBLIC "-//W3C//DTD SVG 1.1//EN" "http://www.w3.org/Graphics/SVG/1.1/DTD/svg11.dtd" >
<svg xmlns="http://www.w3.org/2000/svg" xmlns:xlink="http://www.w3.org/1999/xlink" version="1.1" viewBox="-10 -40 532 512">
   <path fill="currentColor"
d="M496 233h-248h248h-256v-8v0v-247v0q-96 8 -159 75q-63 66 -65 164q1 67 33 121t86 86t121 33q98 -2 164 -65q67 -63 76 -159v0zM496 217q-1 -67 -33 -121v0v0q-32 -54 -86 -86v0v0q-54 -32 -121 -33v240v0h240v0zM0 217q1 -70 34 -128v0v0q34 -58 94 -94q61 -34 128 -34
t128 34q60 36 94 94q33 58 34 128q-1 70 -34 128q-34 58 -94 94q-61 34 -128 34t-128 -34q-60 -36 -94 -94q-33 -58 -34 -128v0z" />
</svg>
