<?xml version="1.0" standalone="no"?>
<!DOCTYPE svg PUBLIC "-//W3C//DTD SVG 1.1//EN" "http://www.w3.org/Graphics/SVG/1.1/DTD/svg11.dtd" >
<svg xmlns="http://www.w3.org/2000/svg" xmlns:xlink="http://www.w3.org/1999/xlink" version="1.1" viewBox="-10 -40 596 512">
   <path fill="currentColor"
d="M424 -39h-8h8h-8v16v0h8h92l-196 173v0l-122 -123v0l-5 -5v0l-6 5v0l-184 144v0l10 12v0l178 -139v0l123 123v0l6 5v0l5 -5v0l203 -179v0v93v0v8v0h16v0v-8v0v-112v0v-8v0h-8h-112zM208 201v224v-224v224h-32v0v-224v0h32v0zM176 185h-16h16h-16v16v0v224v0v16v0h16h48
v-16v0v-224v0v-16v0h-16h-32zM80 297v128v-128v128h-32v0v-128v0h32v0zM48 281h-16h16h-16v16v0v128v0v16v0h16h48v-16v0v-128v0v-16v0h-16h-32zM304 329q0 -35 17 -64v0v0q17 -29 47 -47q30 -17 64 -17t64 17q30 18 47 47t17 64t-17 64t-47 47q-30 17 -64 17t-64 -17
q-30 -18 -47 -47t-17 -64v0zM576 329q0 -39 -19 -72v0v0q-19 -33 -53 -53q-34 -19 -72 -19t-72 19q-34 20 -53 53t-19 72t19 72t53 53q34 19 72 19t72 -19q34 -20 53 -53t19 -72v0zM376 329q1 -32 28 -48q28 -16 56 0q27 16 28 48q-1 32 -28 48q-28 16 -56 0
q-27 -16 -28 -48v0zM504 329q0 -26 -16 -45l22 -21v0l-12 -12v0l-21 22v0q-19 -16 -45 -16t-45 16l-21 -22v0l-12 12v0l22 21v0q-16 19 -16 45q1 26 16 45l-22 21v0l12 12v0l21 -22v0q19 16 45 16t45 -16l21 22v0l12 -12v0l-22 -21v0q16 -19 16 -45v0z" />
</svg>
