<?xml version="1.0" standalone="no"?>
<!DOCTYPE svg PUBLIC "-//W3C//DTD SVG 1.1//EN" "http://www.w3.org/Graphics/SVG/1.1/DTD/svg11.dtd" >
<svg xmlns="http://www.w3.org/2000/svg" xmlns:xlink="http://www.w3.org/1999/xlink" version="1.1" viewBox="-10 -40 524 512">
   <path fill="currentColor"
d="M16 457h96h-96h96v16v0h-96h-16v-16v0v-480v0v-16v0h16h208l160 160v0v144v0h-16v0v-128v0h-152h-8v-8v0v-152v0h-192v0v480v0zM361 121l-137 -137l137 137l-137 -137v137v0h137v0zM176 329h32h-32h32q17 0 28 12q12 11 12 28v64v0q0 17 -12 28q-11 12 -28 12h-32h-8v-8
v0v-128v0v-8v0h8v0zM184 457h24h-24h24q22 -2 24 -24v-64v0q-2 -22 -24 -24h-24v0v112v0zM456 329h16h-16h16q14 0 23 9t9 23v8v0v8v0h-16v0v-8v0v-8v0q-1 -15 -16 -16h-16v0q-15 1 -16 16v80v0q1 15 16 16h16v0q15 -1 16 -16v-8v0v-8v0h16v0v8v0v8v0q0 14 -9 23t-23 9h-16
v0q-14 0 -23 -9t-9 -23v-80v0q0 -14 9 -23t23 -9v0zM296 361q0 -14 9 -23v0v0q9 -9 23 -9h16v0q14 0 23 9t9 23v80v0q0 14 -9 23t-23 9h-16v0q-14 0 -23 -9t-9 -23v-80v0zM328 345q-15 1 -16 16v80v0q1 15 16 16h16v0q15 -1 16 -16v-80v0q-1 -15 -16 -16h-16v0z" />
</svg>
