<?xml version="1.0" standalone="no"?>
<!DOCTYPE svg PUBLIC "-//W3C//DTD SVG 1.1//EN" "http://www.w3.org/Graphics/SVG/1.1/DTD/svg11.dtd" >
<svg xmlns="http://www.w3.org/2000/svg" xmlns:xlink="http://www.w3.org/1999/xlink" version="1.1" viewBox="-10 -40 660 512">
   <path fill="currentColor"
d="M384 151v-18v18v-18v-12v0v-16v0v-16v0h-16h-240q-54 1 -91 37q-36 37 -37 91v224v0v16v0v16v0h16h368v-16v0v-16v0v-272v0v-18v0zM416 457v16v-16v16h192v0l32 -32v0v-64v0l-13 -13v0l-11 -11v0l11 -11v0l13 -13v0v-64v0l-13 -13v0l-11 -11v0l11 -11v0l13 -13v0v-66v0
l-64 -30v0h-128v0l-32 15v0v18v0l36 -17v0h120v0l52 24v0v49v0l-19 20v0l-12 11v0l12 11v0l19 20v0v50v0l-19 20v0l-12 11v0l12 11v0l19 20v0v50v0l-23 23v0h-185v0zM64 57h16h-16h192v-16v0h-16h-16v-16v0v-48v0v-16v0h-16h-112v16v0v48v0v16v0h-16h-16v16v0zM368 176v265
v-265v265v16v0h-16h-336v-16v0v-224v0q1 -48 33 -79q31 -32 79 -33h224h16v16v0v30v0v25v0zM192 -23h16h-16h16v16v0v32v0v16v0h-16h-80v-16v0v-32v0v-16v0h16h64zM248 169h-8h8h-8v8v0v8v0v128v0v8v0v8v0h8h72v-8v0v-8v0v-128v0v-8v0v-8v0h-8h-64zM256 201v-16v16v-16h16
h32v16v0v96v0v16v0h-16h-32v-16v0v-96v0zM448 25v8v-8v8v56v0h16v0v-48v0h96v0v48v0h16v0v-56v0v-8v0h-8h-120z" />
</svg>
