<?xml version="1.0" standalone="no"?>
<!DOCTYPE svg PUBLIC "-//W3C//DTD SVG 1.1//EN" "http://www.w3.org/Graphics/SVG/1.1/DTD/svg11.dtd" >
<svg xmlns="http://www.w3.org/2000/svg" xmlns:xlink="http://www.w3.org/1999/xlink" version="1.1" viewBox="-10 -40 660 512">
   <path fill="currentColor"
d="M272 201h103h-103h103q-8 8 -15 16h-88h-16v-16v0v-239v0q8 -1 17 -1q89 2 153 55q63 53 82 137h-12h-5q-18 -77 -77 -126q-59 -48 -141 -50h-1v0v224v0zM240 249h99h-99h99q-4 8 -7 16h-108h-16v-16v0v-238v0q-83 14 -137 75q-53 61 -55 147q1 63 31 113q29 51 80 80
q50 30 113 31q61 -1 110 -29q5 7 10 13q-54 31 -120 32q-67 -1 -121 -33t-86 -86t-33 -121q2 -93 60 -159q58 -65 148 -79q8 -1 16 -1v16v0v223v0v16v0h16v0zM496 457q35 0 64 -17v0v0q29 -17 47 -47q17 -30 17 -64t-17 -64q-18 -30 -47 -47t-64 -17t-64 17t-47 47
q-17 30 -17 64t17 64q18 30 47 47t64 17v0zM496 185q39 0 72 19v0v0q33 19 53 53q19 34 19 72t-19 72q-20 34 -53 53t-72 19t-72 -19t-53 -53q-19 -34 -19 -72t19 -72q20 -34 53 -53t72 -19v0zM468 279q-13 6 -12 18q0 7 12 13q11 5 29 10h1h1v0q18 5 34 12q17 8 19 29
q-1 24 -21 33q-13 6 -27 7v18v0v8v0h-16v0v-8v0v-19v0q-19 -2 -36 -8v0v0v0q-2 -1 -4 -1q-1 -1 -2 -1l-8 -2v0l5 -16v0l7 3v0q2 0 3 1q2 0 4 1v0v0v0v0v0q20 7 39 8q15 1 28 -5q12 -6 12 -19q0 -9 -11 -15q-12 -6 -31 -10l-1 -1v0q-18 -4 -33 -11q-17 -7 -20 -26
q1 -25 20 -33q14 -7 28 -8v-16v0v-8v0h16v0v8v0v16v0q15 2 30 5l7 2v0l-3 16v0l-8 -2v0q-17 -4 -34 -5q-15 0 -28 6v0z" />
</svg>
