<?xml version="1.0" standalone="no"?>
<!DOCTYPE svg PUBLIC "-//W3C//DTD SVG 1.1//EN" "http://www.w3.org/Graphics/SVG/1.1/DTD/svg11.dtd" >
<svg xmlns="http://www.w3.org/2000/svg" xmlns:xlink="http://www.w3.org/1999/xlink" version="1.1" viewBox="-10 -40 660 512">
   <path fill="currentColor"
d="M176 185q-1 5 8 13q9 9 29 17q41 17 107 18q35 0 65 -6q-1 -3 -1 -7q0 -19 13 -32l3 -3v0l-3 -3v0q-3 -3 -5 -6q-38 9 -72 9q-36 0 -77 -10q-34 -9 -62 -29q-5 18 -5 39v0zM384 150q0 -19 13 -32v0v0q13 -13 32 -13q6 0 12 2q-20 -30 -51 -48q-32 -18 -70 -18
q-46 1 -81 25t-52 64q25 20 61 29q38 10 72 10q30 0 65 -8q-1 -5 -1 -11v0zM320 25q49 1 88 26v0v0q38 26 58 68l1 -1v0q13 -13 32 -13t32 13t13 32t-13 32l-3 3v0l3 3v0q9 9 12 22l92 37v0l5 2v0v5v0v27v0q0 27 -25 50t-69 41q-44 17 -101 27q-58 10 -125 10t-125 -10
q-57 -10 -101 -27q-44 -18 -69 -41t-25 -50v-27v0v-5v0l5 -2v0l155 -62v0q2 -68 47 -113t113 -47v0zM499 265q-19 0 -32 -13l-3 -3v0l-3 3v0q-13 13 -32 13q-26 -1 -39 -22q-32 6 -70 6q-68 -1 -113 -19q-22 -9 -34 -20q-5 -5 -8 -10l-149 60v0v21v0q-1 18 20 38
q22 21 64 38t98 26q56 10 122 10t122 -10q56 -9 98 -26t64 -38q21 -20 20 -38v-21v0l-81 -32v0q-3 16 -15 26q-12 11 -29 11v0zM429 121q-12 0 -20 9v0v0q-9 8 -9 20t9 21l8 8v0l6 6v0l-6 6v0l-8 8v0q-9 9 -9 21t9 21q8 8 20 8t21 -8l8 -9v0l6 -6v0l6 6v0l8 9v0q9 8 21 8
t21 -8q8 -9 8 -21t-8 -21l-9 -8v0l-5 -6v0l5 -6v0l9 -8v0q8 -9 8 -21t-8 -20q-9 -9 -21 -9t-21 9l-8 8v0l-6 6v0l-6 -6v0l-8 -8v0q-9 -9 -21 -9v0zM470 159l20 20l-20 -20l20 20l6 6v0l-6 6v0l-20 21v0l-6 5v0l-6 -5v0l-21 -21v0l-5 -6v0l5 -6v0l21 -20v0l6 -6v0l6 6v0z
M455 185l9 10l-9 -10l9 10l10 -10v0l-10 -9v0l-9 9v0z" />
</svg>
