<?xml version="1.0" standalone="no"?>
<!DOCTYPE svg PUBLIC "-//W3C//DTD SVG 1.1//EN" "http://www.w3.org/Graphics/SVG/1.1/DTD/svg11.dtd" >
<svg xmlns="http://www.w3.org/2000/svg" xmlns:xlink="http://www.w3.org/1999/xlink" version="1.1" viewBox="-10 -40 596 512">
   <path fill="currentColor"
d="M80 -7v-32v32v-32h16v0v32v0h384v0v-32v0h16v0v32v0h64h16v16v0v352v0v16v0h-16h-64v96v0h-16v0v-96v0h-384v0v96v0h-16v0v-96v0h-64h-16v-16v0v-352v0v-16v0h16h64zM560 9h-544h544h-544v352v0h544v0v-352v0z" />
</svg>
