<?xml version="1.0" standalone="no"?>
<!DOCTYPE svg PUBLIC "-//W3C//DTD SVG 1.1//EN" "http://www.w3.org/Graphics/SVG/1.1/DTD/svg11.dtd" >
<svg xmlns="http://www.w3.org/2000/svg" xmlns:xlink="http://www.w3.org/1999/xlink" version="1.1" viewBox="-10 -40 660 512">
   <path fill="currentColor"
d="M352 41q1 -34 23 -57v0v0q23 -22 57 -23h72h3l3 2v0l37 38v0h21v0q31 1 51 21t21 51v72v0v8v0h-8h-29l-29 30v0l-3 2v0h-3h-93l-51 48v0l44 25v0l4 2v0v5v0v32v0v8v0h-16v0v-8v0v-27v0l-45 -26v0v1v0q-3 -8 -7 -16l63 -58v0l2 -2v0h3h93l16 -16v0h-37h-3l-3 -2v0l-29 -30
v0h-29h-8v-16v0h8h35l3 2v0l29 30v0h50h27v-64v0q-1 -24 -16 -40q-16 -15 -40 -16h-24h-3l-3 -2v0l-37 -38v0h-69v0q-27 1 -45 19t-19 45v8v0v4v0l-3 2v0l-56 48v0l-2 2v0h-3h-40q-51 1 -85 35t-35 85v24v0v8v0h-8h-53l-2 -4v0l-45 -90v0l-5 10v0q-15 30 -15 64q1 56 39 93
q37 38 93 39h60v0v-48v0v-8v0h16v0v8v0v53v0l76 83v0h100v0v-16v0q0 -14 -9 -23t-23 -9h-8h-6l-2 -6v0l-16 -56v0l-1 -3v0l2 -3v0l31 -62v0q-1 -30 -22 -49q-20 -20 -50 -21h-8v0v-16v0h8v0q37 1 62 26t26 62v2v0l-1 2v0l-30 61v0l13 47v0h2v0q20 1 34 14q13 14 14 34v24v0
v8v0h-8h-115l-3 -3v0l-77 -85v0h-65v0q-63 -2 -105 -43q-41 -42 -43 -105q0 -38 17 -72l8 -16v0l2 -4v0h5h13l2 4v0l46 92v0h35v0v-16v0q1 -58 40 -96q38 -39 96 -40h37v0l51 -44v0v-4v0zM496 25q15 1 16 16q-1 15 -16 16q-15 -1 -16 -16q1 -15 16 -16v0z" />
</svg>
