<?xml version="1.0" standalone="no"?>
<!DOCTYPE svg PUBLIC "-//W3C//DTD SVG 1.1//EN" "http://www.w3.org/Graphics/SVG/1.1/DTD/svg11.dtd" >
<svg xmlns="http://www.w3.org/2000/svg" xmlns:xlink="http://www.w3.org/1999/xlink" version="1.1" viewBox="-10 -40 660 512">
   <path fill="currentColor"
d="M0 25v16v-16v16v352v0v16v0h16h624v-16v0v-96v0v-16v0h-16v0q-20 -1 -34 -14q-13 -14 -14 -34q1 -20 14 -34q14 -13 34 -14h16v0v-16v0v-128v0v-16v0h-16h-624zM624 393h-608h608h-608v-352v0h608v0v128v0q-27 1 -45 19t-19 45q1 27 19 45t45 19v96v0zM480 121
q-1 -15 -16 -16q-15 1 -16 16q1 15 16 16q15 -1 16 -16v0zM480 185q-1 -15 -16 -16q-15 1 -16 16q1 15 16 16q15 -1 16 -16v0zM464 265q15 -1 16 -16q-1 -15 -16 -16q-15 1 -16 16q1 15 16 16v0zM480 313q-1 -15 -16 -16q-15 1 -16 16q1 15 16 16q15 -1 16 -16v0z" />
</svg>
