<?xml version="1.0" standalone="no"?>
<!DOCTYPE svg PUBLIC "-//W3C//DTD SVG 1.1//EN" "http://www.w3.org/Graphics/SVG/1.1/DTD/svg11.dtd" >
<svg xmlns="http://www.w3.org/2000/svg" xmlns:xlink="http://www.w3.org/1999/xlink" version="1.1" viewBox="-10 -40 524 512">
   <path fill="currentColor"
d="M80 457h-64h64h-64v-480v0h192v0v152v0v8v0h8h152v128v0h16v0v-144v0l-160 -160v0h-208h-16v16v0v480v0v16v0h16h64v-16v0zM361 121h-137h137h-137v-137v0l137 137v0zM248 337v-8v8v-8h-8h-10l-3 4v0l-35 60v0l-37 -60v0l-2 -4v0h-5h-12v8v0v128v0v8v0h16v0v-8v0v-106v0
l33 54v0l7 12v0l7 -12v0l33 -56v0v108v0v8v0h16v0v-8v0v-128v0zM304 329h-8h8h-8v8v0v80v0v48v0v8v0h16v0v-8v0v-40v0h24v0q20 -1 34 -14q13 -14 14 -34q-1 -20 -14 -34q-14 -13 -34 -14h-32v0zM336 409h-24h24h-24v-64v0h24v0q14 0 23 9t9 23t-9 23t-23 9v0zM432 329h-8h8
h-8v16v0h8h32q22 2 24 24q-2 22 -24 24h-24h-8v16v0h8h24q22 2 24 24q-2 22 -24 24h-32h-8v16v0h8h32q17 0 28 -12q12 -11 12 -28q-1 -20 -16 -32q15 -12 16 -32q0 -17 -12 -28q-11 -12 -28 -12h-32v0z" />
</svg>
