<?xml version="1.0" standalone="no"?>
<!DOCTYPE svg PUBLIC "-//W3C//DTD SVG 1.1//EN" "http://www.w3.org/Graphics/SVG/1.1/DTD/svg11.dtd" >
<svg xmlns="http://www.w3.org/2000/svg" xmlns:xlink="http://www.w3.org/1999/xlink" version="1.1" viewBox="-10 -40 522 512">
   <path fill="currentColor"
d="M16 457h128h-128h128v16v0h-128h-16v-16v0v-480v0v-16v0h16h208l160 160v0v144v0h-16v0v-128v0h-152h-8v-8v0v-152v0h-192v0v480v0zM361 121l-137 -137l137 137l-137 -137v137v0h137v0zM216 337q0 14 8 25l16 25v0l17 -25v0q7 -11 7 -25v-8v0h16v0v8v0q0 18 -10 34
l-20 30v0l20 30v0q10 16 10 34v8v0h-16v0v-8v0q0 -14 -7 -25l-17 -25v0l-16 25v0q-8 11 -8 25v8v0h-16v0v-8v0q0 -18 10 -34l20 -30v0l-20 -30v0q-10 -16 -10 -34v-8v0h16v0v8v0zM328 473v-8v8v-8v-128v0v-8v0h16v0v8v0v120v0h32h8v16v0h-8h-48zM416 367q0 -16 11 -27v0v0
q11 -11 27 -11h26h8v16v0h-8h-26q-20 2 -22 22q0 13 12 19l31 16v0q20 11 21 33q0 16 -11 27t-27 11h-26h-8v-16v0h8h26q20 -2 22 -22q0 -13 -12 -19l-31 -16v0q-20 -11 -21 -33v0z" />
</svg>
