<?xml version="1.0" standalone="no"?>
<!DOCTYPE svg PUBLIC "-//W3C//DTD SVG 1.1//EN" "http://www.w3.org/Graphics/SVG/1.1/DTD/svg11.dtd" >
<svg xmlns="http://www.w3.org/2000/svg" xmlns:xlink="http://www.w3.org/1999/xlink" version="1.1" viewBox="-10 -40 468 512">
   <path fill="currentColor"
d="M336 425v-416v416v-416h96v0v416v0h-96v0zM320 441h16h-16h128v-16v0v-416v0v-16v0h-16h-112v16v0v416v0v16v0zM112 361h-96h96h-96v-352v0h96v0v352v0zM16 377h96h-96h112v-16v0v-352v0v-16v0h-16h-112v16v0v352v0v16v0h16v0zM272 233h-96h96h-96v-224v0h96v0v224v0z
M176 249h96h-96h112v-16v0v-224v0v-16v0h-16h-112v16v0v224v0v16v0h16v0z" />
</svg>
