<?xml version="1.0" standalone="no"?>
<!DOCTYPE svg PUBLIC "-//W3C//DTD SVG 1.1//EN" "http://www.w3.org/Graphics/SVG/1.1/DTD/svg11.dtd" >
<svg xmlns="http://www.w3.org/2000/svg" xmlns:xlink="http://www.w3.org/1999/xlink" version="1.1" viewBox="-10 -40 596 512">
   <path fill="currentColor"
d="M239 -19l4 -7l-4 7l4 -7l-14 -8v0l-4 7v0l-102 180v0h-74h-49v16v0h36v0l76 304v0h352v0l76 -304v0h36v0v-16v0h-32h-91l-102 -180v0l-4 -7v0l-14 8v0l4 7v0l97 172v0h-292v0l97 -172v0zM53 169h471h-471h471l-72 288v0h-327v0l-72 -288v0zM208 305h-8h8h-8v16v0h8h168
v-16v0h-8h-160z" />
</svg>
