<?xml version="1.0" standalone="no"?>
<!DOCTYPE svg PUBLIC "-//W3C//DTD SVG 1.1//EN" "http://www.w3.org/Graphics/SVG/1.1/DTD/svg11.dtd" >
<svg xmlns="http://www.w3.org/2000/svg" xmlns:xlink="http://www.w3.org/1999/xlink" version="1.1" viewBox="-10 -40 660 512">
   <path fill="currentColor"
d="M640 -39h-640h640h-640v16v0h80v0v80v0h-64h-16v16v0v288v0v16v0h16h48v8q1 37 26 62t62 26q37 -1 62 -26t26 -62v-8h160v0v8q1 37 26 62t62 26q37 -1 62 -26t26 -62v-8h48h16v-16v0v-288v0v-16v0h-16h-64v-8v0q0 -17 -12 -28q-11 -12 -28 -12t-28 12q-12 11 -12 28v8v0
h-96v0v-80v0h256v0v-16v0zM368 -23v80v-80v80h-80v0v-80v0h80v0zM272 -23v80v-80v80h-80v0v-80v0h80v0zM176 -23v80v-80v80h-80v0v-80v0h80v0zM544 57h-48h48h-48v-8v0q2 -22 24 -24q22 2 24 24v8v0zM544 73h16h-16h80v288v0h-51v0q-9 -28 -31 -46q-23 -17 -54 -18
q-31 1 -54 18q-22 18 -31 46h-166v0q-9 -28 -31 -46q-23 -17 -54 -18q-31 1 -54 18q-22 18 -31 46h-51v0v-128v0h408h8v-8v0v-152v0h48h64zM416 73v144v-144v144h-400v0v-144v0h400v0zM576 121v96v-96v96h-96v0v-96v0h96v0zM480 105h-16h16h-16v16v0v96v0v16v0h16h112v-16v0
v-96v0v-16v0h-16h-96zM152 313q41 1 62 36q20 36 0 72q-21 35 -62 36q-41 -1 -62 -36q-20 -36 0 -72q21 -35 62 -36v0zM416 385q1 -41 36 -62q36 -20 72 0q35 21 36 62q-1 41 -36 62q-36 20 -72 0q-35 -21 -36 -62v0z" />
</svg>
