<?xml version="1.0" standalone="no"?>
<!DOCTYPE svg PUBLIC "-//W3C//DTD SVG 1.1//EN" "http://www.w3.org/Graphics/SVG/1.1/DTD/svg11.dtd" >
<svg xmlns="http://www.w3.org/2000/svg" xmlns:xlink="http://www.w3.org/1999/xlink" version="1.1" viewBox="-10 -40 659 512">
   <path fill="currentColor"
d="M528 169q-2 77 -51 130v0v0q-49 53 -125 61v2v0q0 7 -1 15q74 -7 126 -55l151 150v0l11 -11v0l-150 -151v0q53 -57 55 -141q-2 -88 -61 -147t-147 -61q-83 2 -140 54q-58 53 -67 134l17 -6v0q11 -72 63 -118t127 -48q82 2 136 56t56 136v0zM320 118l-10 3l10 -3l-10 3
l-192 64v0l-6 2v0v6v0v72v0v128v0q-18 -15 -48 -16q-27 1 -45 14q-18 14 -19 34q1 20 19 34q18 13 45 14q27 -1 45 -14q18 -14 19 -34v0v0v0v0v-154v0l176 -59v0v117v0q-18 -15 -48 -16q-27 1 -45 14q-18 14 -19 34q1 20 19 34q18 13 45 14q27 -1 45 -14t19 -34v0v0v0v0
v-160v0v-72v0v-11v0zM292 340q12 10 12 21t-12 21q-14 10 -36 11q-22 -1 -36 -11q-12 -10 -12 -21t12 -21q14 -10 36 -11q22 0 36 11v0zM128 254v-55v55v-55l176 -59v0v55v0l-176 59v0zM112 425q0 11 -12 21q-14 10 -36 11q-22 0 -36 -11q-12 -10 -12 -21t12 -21
q14 -10 36 -11q22 1 36 11q12 10 12 21v0z" />
</svg>
