<?xml version="1.0" standalone="no"?>
<!DOCTYPE svg PUBLIC "-//W3C//DTD SVG 1.1//EN" "http://www.w3.org/Graphics/SVG/1.1/DTD/svg11.dtd" >
<svg xmlns="http://www.w3.org/2000/svg" xmlns:xlink="http://www.w3.org/1999/xlink" version="1.1" viewBox="-10 -40 532 512">
   <path fill="currentColor"
d="M264 9v200v-200v200h232v0v-200v0h-232v0zM248 9h-232h232h-232v200v0h232v0v-200v0zM16 225v200v-200v200h232v0v-200v0h-232v0zM264 425h232h-232h232v-200v0h-232v0v200v0zM0 -7h16h-16h512v16v0v416v0v16v0h-16h-496v-16v0v-416v0v-16v0z" />
</svg>
