<?xml version="1.0" standalone="no"?>
<!DOCTYPE svg PUBLIC "-//W3C//DTD SVG 1.1//EN" "http://www.w3.org/Graphics/SVG/1.1/DTD/svg11.dtd" >
<svg xmlns="http://www.w3.org/2000/svg" xmlns:xlink="http://www.w3.org/1999/xlink" version="1.1" viewBox="-10 -40 596 512">
   <path fill="currentColor"
d="M21 425h259h-259h259v-56v0v-8v0h16v0v8v0v56v0h259v0l-119 -416v0h-140v0v56v0v8v0h-16v0v-8v0v-56v0h-140v0l-119 416v0zM128 -7h320h-320h320l123 432v0l5 16v0h-17h-559l5 -16v0l123 -432v0zM296 161v112v-112v112v8v0h-16v0v-8v0v-112v0v-8v0h16v0v8v0z" />
</svg>
