<?xml version="1.0" standalone="no"?>
<!DOCTYPE svg PUBLIC "-//W3C//DTD SVG 1.1//EN" "http://www.w3.org/Graphics/SVG/1.1/DTD/svg11.dtd" >
<svg xmlns="http://www.w3.org/2000/svg" xmlns:xlink="http://www.w3.org/1999/xlink" version="1.1" viewBox="-10 -40 532 512">
   <path fill="currentColor"
d="M0 -7h16h-16h16v448v0h-16v0v-448v0zM256 -7h16h-16h16v448v0h-16v0v-448v0zM400 -7v448v-448v448h-16v0v-448v0h16v0zM304 -7h16h-16h16v448v0h-16v0v-448v0zM64 -7v448v-448v448h-16v0v-448v0h16v0zM448 -7h16h-16h16v448v0h-16v0v-448v0zM512 -7v448v-448v448h-16v0
v-448v0h16v0zM112 -7h16h-16h16v448v0h-16v0v-448v0zM200 -7v448v-448v448h-16v0v-448v0h16v0z" />
</svg>
