<?xml version="1.0" standalone="no"?>
<!DOCTYPE svg PUBLIC "-//W3C//DTD SVG 1.1//EN" "http://www.w3.org/Graphics/SVG/1.1/DTD/svg11.dtd" >
<svg xmlns="http://www.w3.org/2000/svg" xmlns:xlink="http://www.w3.org/1999/xlink" version="1.1" viewBox="-10 -40 532 512">
   <path fill="currentColor"
d="M97 425q29 16 31 16q-3 -1 -19 -27q-12 -21 -13 -53q1 -48 33 -79q31 -32 79 -33h64h16v16v0v64v0v16v0h16h16l180 -165v0l12 -11v0l-12 -11v0l-180 -165v0h-16h-16v16v0v64v0v16v0h-16h-96q-75 2 -124 52q-50 49 -52 124q3 65 34 104q32 39 63 56v0zM86 398
q-6 -4 -11 -9q-24 -19 -41 -50t-18 -74q2 -68 47 -113t113 -47h112h16v-16v0v-80v0h10v0l174 160v0l-174 160v0h-10v0v-80v0v-16v0h-16h-80q-54 1 -91 37q-36 37 -37 91q0 20 6 37v0z" />
</svg>
