<?xml version="1.0" standalone="no"?>
<!DOCTYPE svg PUBLIC "-//W3C//DTD SVG 1.1//EN" "http://www.w3.org/Graphics/SVG/1.1/DTD/svg11.dtd" >
<svg xmlns="http://www.w3.org/2000/svg" xmlns:xlink="http://www.w3.org/1999/xlink" version="1.1" viewBox="-10 -40 468 512">
   <path fill="currentColor"
d="M152 -7q7 1 8 8q-1 7 -8 8h-136v0v136v0q-1 7 -8 8q-7 -1 -8 -8v-144v0q1 -7 8 -8h144v0zM0 289q1 -7 8 -8q7 1 8 8v136v0h136v0q7 1 8 8q-1 7 -8 8h-144v0q-7 -1 -8 -8v-144v0zM296 -7h144h-144h144q7 1 8 8v144v0q-1 7 -8 8q-7 -1 -8 -8v-136v0h-136v0q-7 -1 -8 -8
q1 -7 8 -8v0zM448 289v144v-144v144q-1 7 -8 8h-144v0q-7 -1 -8 -8q1 -7 8 -8h136v0v-136v0q1 -7 8 -8q7 1 8 8v0z" />
</svg>
