<?xml version="1.0" standalone="no"?>
<!DOCTYPE svg PUBLIC "-//W3C//DTD SVG 1.1//EN" "http://www.w3.org/Graphics/SVG/1.1/DTD/svg11.dtd" >
<svg xmlns="http://www.w3.org/2000/svg" xmlns:xlink="http://www.w3.org/1999/xlink" version="1.1" viewBox="-10 -40 468 512">
   <path fill="currentColor"
d="M160 -7v8v-8v8v144v0v8v0h-8h-152v-16v0h8h136v-136v0v-8v0h16v0zM304 -7v8v-8v8v136v0h136h8v16v0h-8h-152v-8v0v-144v0v-8v0h16v0zM0 281h8h-8h160v8v0v144v0v8v0h-16v0v-8v0v-136v0h-136h-8v-16v0zM288 281h8h-8h160v16v0h-8h-136v136v0v8v0h-16v0v-8v0v-144v0v-8v0z
" />
</svg>
