<?xml version="1.0" standalone="no"?>
<!DOCTYPE svg PUBLIC "-//W3C//DTD SVG 1.1//EN" "http://www.w3.org/Graphics/SVG/1.1/DTD/svg11.dtd" >
<svg xmlns="http://www.w3.org/2000/svg" xmlns:xlink="http://www.w3.org/1999/xlink" version="1.1" viewBox="-10 -40 468 512">
   <path fill="currentColor"
d="M0 -7h8h-8h144v8v0v216v0q1 34 23 57q23 22 57 23q34 -1 57 -23q22 -23 23 -57v-216v0v-8v0h8h136v8v0v216v0q-1 63 -31 113q-29 51 -80 80q-50 30 -113 31q-63 -1 -113 -31q-51 -29 -80 -80q-30 -50 -31 -113v-216v0v-8v0zM16 9v96v-96v96h112v0v-96v0h-112v0zM16 217
q2 88 61 147v0v0q59 59 147 61q88 -2 147 -61t61 -147v-96v0h-112v0v96v0q-1 41 -28 68t-68 28q-41 -1 -68 -28t-28 -68v-96v0h-112v0v96v0zM432 105v-96v96v-96h-112v0v96v0h112v0z" />
</svg>
