<?xml version="1.0" standalone="no"?>
<!DOCTYPE svg PUBLIC "-//W3C//DTD SVG 1.1//EN" "http://www.w3.org/Graphics/SVG/1.1/DTD/svg11.dtd" >
<svg xmlns="http://www.w3.org/2000/svg" xmlns:xlink="http://www.w3.org/1999/xlink" version="1.1" viewBox="-10 -40 532 512">
   <path fill="currentColor"
d="M287 289l-9 -3l9 3l-9 -3l-7 7v0l-33 34v0l-3 2v0h-3h-56v16v0v40v0v8v0h-8h-56v16v0v40v0v8v0h-8h-88v-8v0v-80v0v-3v0l2 -3v0l162 -161v0l7 -7v0l-3 -9v0q-8 -23 -8 -49q2 -68 47 -113t113 -47q68 2 113 47t47 113q-2 68 -47 113t-113 47q-26 0 -49 -8v0zM232 345h10
h-10h10l7 -7v0l33 -33v0q26 8 54 8q75 -2 124 -52q50 -49 52 -124q-2 -75 -52 -124q-49 -50 -124 -52q-75 2 -124 52q-50 49 -52 124q0 28 8 54l-161 161v0l-7 7v0v10v0v80v0v8v0v16v0h16h112v-16v0v-8v0v-24v0v-16v0h16h48v-16v0v-8v0v-24v0v-16v0h16h24zM368 145
q23 -1 35 -20q10 -20 0 -40q-12 -19 -35 -20q-23 1 -35 20q-10 20 0 40q12 19 35 20v0zM344 105q2 -22 24 -24q22 2 24 24q-2 22 -24 24q-22 -2 -24 -24v0z" />
</svg>
