<?xml version="1.0" standalone="no"?>
<!DOCTYPE svg PUBLIC "-//W3C//DTD SVG 1.1//EN" "http://www.w3.org/Graphics/SVG/1.1/DTD/svg11.dtd" >
<svg xmlns="http://www.w3.org/2000/svg" xmlns:xlink="http://www.w3.org/1999/xlink" version="1.1" viewBox="-10 -40 652 512">
   <path fill="currentColor"
d="M205 17l-10 -48l10 48l-10 -48h-70v0l-10 48v0q-21 8 -37 22l-44 -14v0l-34 59v0l34 31v0q-2 11 -2 22t2 22l-34 31v0l34 59v0l44 -14v0q16 14 37 22l10 48v0h70v0l10 -48v0q21 -8 38 -22l43 14v0l34 -59v0l-34 -31v0q2 -11 2 -22t-2 -22l34 -31v0l-34 -59v0l-43 14v0
q-17 -14 -38 -22v0zM278 44l22 37l-22 -37l22 37l-25 22v0l-6 6v0l1 8v0q2 10 2 20t-2 20l-1 8v0l6 6v0l25 22v0l-22 37v0l-31 -10v0l-8 -3v0l-7 6v0q-14 12 -33 19l-8 3v0l-2 9v0l-7 35v0h-44v0l-7 -35v0l-2 -9v0l-8 -3v0q-19 -7 -33 -19l-7 -6v0l-8 3v0l-31 10v0l-22 -37
v0l25 -22v0l6 -6v0l-1 -8v0q-2 -10 -2 -20t2 -20l1 -8v0l-6 -6v0l-25 -22v0l22 -37v0l31 10v0l8 3v0l7 -6v0q14 -12 33 -19l8 -3v0l2 -9v0l7 -35v0h44v0l7 35v0l2 9v0l8 3v0q19 7 33 19l7 6v0l9 -3v0l30 -10v0zM160 177q-23 -1 -35 -20q-10 -20 0 -40q12 -19 35 -20
q23 1 35 20q10 20 0 40q-12 19 -35 20v0zM104 137q1 32 28 48q28 16 56 0q27 -16 28 -48q-1 -32 -28 -48q-28 -16 -56 0q-27 16 -28 48v0zM344 268l-48 10l48 -10l-48 10v70v0l48 10v0q8 21 22 38l-14 43v0l59 34v0l31 -34v0q11 2 22 2t22 -2l31 34v0l59 -34v0l-14 -43v0
q14 -17 22 -38l48 -10v0v-70v0l-48 -10v0q-8 -21 -22 -37l14 -44v0l-59 -34v0l-31 34v0q-11 -2 -22 -2t-22 2l-31 -34v0l-59 34v0l14 44v0q-14 16 -22 37v0zM371 195l37 -22l-37 22l37 -22l22 25v0l6 6v0l8 -1v0q10 -2 20 -2t20 2l8 1v0l6 -6v0l22 -25v0l37 22v0l-10 31v0
l-3 8v0l6 7v0q12 14 19 33l3 8v0l9 2v0l35 7v0v44v0l-35 7v0l-9 2v0l-3 8v0q-7 19 -19 33l-6 7v0l3 8v0l10 31v0l-37 22v0l-22 -25v0l-6 -6v0l-8 1v0q-10 2 -20 2t-20 -2l-8 -1v0l-6 6v0l-22 25v0l-37 -22v0l10 -31v0l3 -8v0l-6 -7v0q-12 -14 -19 -33l-3 -8v0l-9 -2v0
l-35 -7v0v-44v0l35 -7v0l9 -2v0l3 -8v0q7 -19 19 -33l6 -7v0l-3 -8v0l-10 -31v0zM504 313q-1 23 -20 35q-20 10 -40 0q-19 -12 -20 -35q1 -23 20 -35q20 -10 40 0q19 12 20 35v0zM464 369q32 -1 48 -28q16 -28 0 -56q-16 -27 -48 -28q-32 1 -48 28q-16 28 0 56q16 27 48 28
v0z" />
</svg>
