<?xml version="1.0" standalone="no"?>
<!DOCTYPE svg PUBLIC "-//W3C//DTD SVG 1.1//EN" "http://www.w3.org/Graphics/SVG/1.1/DTD/svg11.dtd" >
<svg xmlns="http://www.w3.org/2000/svg" xmlns:xlink="http://www.w3.org/1999/xlink" version="1.1" viewBox="-10 -40 468 512">
   <path fill="currentColor"
d="M112 89q1 -48 33 -79v0v0q31 -32 79 -33q39 1 68 23q29 23 40 59l15 -4v0q-12 -42 -45 -67q-33 -26 -78 -27q-54 1 -91 37q-36 37 -37 91v64v0h-80h-16v16v0v288v0v16v0h16h432v-16v0v-288v0v-16v0h-16h-320v-64v0zM96 169h16h-16h336v288v0h-416v0v-288v0h80v0z" />
</svg>
