<?xml version="1.0" standalone="no"?>
<!DOCTYPE svg PUBLIC "-//W3C//DTD SVG 1.1//EN" "http://www.w3.org/Graphics/SVG/1.1/DTD/svg11.dtd" >
<svg xmlns="http://www.w3.org/2000/svg" xmlns:xlink="http://www.w3.org/1999/xlink" version="1.1" viewBox="-10 -40 532 512">
   <path fill="currentColor"
d="M16 217q1 -65 32 -120v0v0q32 -55 88 -88q57 -32 120 -32t120 32q56 33 88 88q31 55 32 120q-1 65 -32 120q-32 55 -88 88q-57 32 -120 32t-120 -32q-56 -33 -88 -88q-31 -55 -32 -120v0zM512 217q-1 -70 -34 -128v0v0q-34 -58 -94 -94q-61 -34 -128 -34t-128 34
q-60 36 -94 94q-33 58 -34 128q1 70 34 128q34 58 94 94q61 34 128 34t128 -34q60 -36 94 -94q33 -58 34 -128v0zM130 211l-5 6l5 -6l-5 6l5 6v0l104 104v0l6 5v0l11 -11v0l-5 -6v0l-91 -90v0h221h8v-16v0h-8h-221l91 -90v0l5 -6v0l-11 -11v0l-6 5v0l-104 104v0z" />
</svg>
