<?xml version="1.0" standalone="no"?>
<!DOCTYPE svg PUBLIC "-//W3C//DTD SVG 1.1//EN" "http://www.w3.org/Graphics/SVG/1.1/DTD/svg11.dtd" >
<svg xmlns="http://www.w3.org/2000/svg" xmlns:xlink="http://www.w3.org/1999/xlink" version="1.1" viewBox="-10 -40 650 512">
   <path fill="currentColor"
d="M580 206q38 -40 38 -91v0v0q0 -51 -38 -90q-39 -38 -90 -38t-91 38l-17 17v0l12 11v0l17 -17v0q34 -33 79 -33q44 0 79 33q33 34 33 79t-33 79l-136 136v0q-34 33 -79 33t-79 -33q-33 -34 -33 -79t33 -79l39 -40v0l-11 -11v0l-40 39v0q-37 40 -37 91t37 90q40 38 91 38
t90 -38l136 -135v0zM60 228q-38 40 -38 91v0v0q0 51 38 90q39 38 90 38t91 -38l17 -17v0l-11 -11v0l-17 17v0q-35 33 -80 33q-44 0 -79 -33q-33 -34 -33 -79t33 -79l136 -136v0q34 -33 79 -33t79 33q33 34 33 79t-33 79l-39 40v0l11 11v0l40 -39v0q37 -40 37 -91t-37 -90
q-40 -38 -91 -38t-90 38l-136 135v0z" />
</svg>
