<?xml version="1.0" standalone="no"?>
<!DOCTYPE svg PUBLIC "-//W3C//DTD SVG 1.1//EN" "http://www.w3.org/Graphics/SVG/1.1/DTD/svg11.dtd" >
<svg xmlns="http://www.w3.org/2000/svg" xmlns:xlink="http://www.w3.org/1999/xlink" version="1.1" viewBox="-10 -40 468 512">
   <path fill="currentColor"
d="M0 -7h8h-8h144v16v0h-8h-56v192v0q2 61 42 102q41 40 102 42q61 -2 102 -42q40 -41 42 -102v-192v0h-56h-8v-16v0h8h136v16v0h-8h-56v192v0q-2 68 -47 113t-113 47q-68 -2 -113 -47t-47 -113v-192v0h-56h-8v-16v0zM0 425h8h-8h448v16v0h-8h-440v-16v0z" />
</svg>
