<?xml version="1.0" standalone="no"?>
<!DOCTYPE svg PUBLIC "-//W3C//DTD SVG 1.1//EN" "http://www.w3.org/Graphics/SVG/1.1/DTD/svg11.dtd" >
<svg xmlns="http://www.w3.org/2000/svg" xmlns:xlink="http://www.w3.org/1999/xlink" version="1.1" viewBox="-10 -40 596 512">
   <path fill="currentColor"
d="M296 -39v8v-8v8v40v0q109 5 186 71q77 65 92 167v2v0l2 16v0h-16h-16l-4 -5v0q-23 -26 -60 -27q-34 1 -57 23q-22 23 -23 57h-16v0v0v0h-16v0q-1 -34 -23 -57q-23 -22 -57 -23q-34 1 -57 23q-22 23 -23 57h-16v0v0v0h-16v0q-1 -34 -23 -57q-23 -22 -57 -23q-37 1 -60 27
l-4 5v0h-8h-24l2 -16v0v-2v0q15 -102 92 -167q77 -66 186 -71v-40v0v-8v0h16v0zM280 266q4 -1 8 -1t8 1v157v0q-1 21 -15 35t-35 15q-34 -2 -47 -34l-7 -19v0l-2 -8v0l15 -5v0l3 7v0l6 20v0q9 22 32 23q15 0 24 -10q10 -10 10 -24v-157v0zM385 297q7 -35 33 -57v0v0
q26 -22 62 -23q44 1 72 32h6v0q-15 -97 -89 -159q-74 -63 -181 -65q-107 2 -181 65q-74 62 -89 159h7v0q27 -31 71 -32q36 1 62 23t33 57h1h1q7 -35 33 -57t62 -23q36 1 62 23t33 57h1h1z" />
</svg>
