<?xml version="1.0" standalone="no"?>
<!DOCTYPE svg PUBLIC "-//W3C//DTD SVG 1.1//EN" "http://www.w3.org/Graphics/SVG/1.1/DTD/svg11.dtd" >
<svg xmlns="http://www.w3.org/2000/svg" xmlns:xlink="http://www.w3.org/1999/xlink" version="1.1" viewBox="-10 -40 586 512">
   <path fill="currentColor"
d="M130 -23l-7 3l7 -3l-7 3l-59 19v0v154v0q1 54 37 91q37 36 91 37q54 -1 91 -37q36 -37 37 -91v-154v0l-58 -19v0l-8 -3v0l5 -15v0l7 3v0l64 20v0l6 2v0v6v0v160v0q-1 59 -40 99q-38 40 -96 45v0v0v24v0q1 58 40 96q38 39 96 40q58 -1 96 -40q38 -38 40 -96v-104v0
q-24 -4 -40 -21q-16 -18 -16 -43q1 -27 19 -45t45 -19q27 1 45 19t19 45q-1 25 -16 43q-16 17 -40 21v104v0q-2 65 -45 107q-43 43 -107 45q-65 -2 -108 -45q-42 -42 -44 -107v-24v0v0v0q-58 -5 -96 -45q-39 -40 -40 -99v-160v0v-6v0l6 -2v0l64 -20v0l7 -3v0l5 15v0z
M480 105q-27 1 -42 24q-12 24 0 48q15 23 42 24q27 -1 42 -24q12 -24 0 -48q-15 -23 -42 -24v0z" />
</svg>
