<?xml version="1.0" standalone="no"?>
<!DOCTYPE svg PUBLIC "-//W3C//DTD SVG 1.1//EN" "http://www.w3.org/Graphics/SVG/1.1/DTD/svg11.dtd" >
<svg xmlns="http://www.w3.org/2000/svg" xmlns:xlink="http://www.w3.org/1999/xlink" version="1.1" viewBox="-10 -40 458 512">
   <path fill="currentColor"
d="M191 -39h-16h16h-16l1 9v0v0v0l23 139v0q1 5 1 9v11v0q-1 24 -16 40q-16 15 -40 16h-64v0q-24 -1 -40 -16q-15 -16 -16 -40v-11v0q0 -4 1 -9l11 -67v0l6 -36v0l6 -36v0v0v0l1 -9v0h-16v0l-1 7v0v0v0l-6 36v0l-6 36v0l-11 67v0q-1 5 -1 11v11v0q1 31 21 51t51 21h24v0v264
v0v8v0h16v0v-8v0v-264v0h24v0q31 -1 51 -21t21 -51v-11v0q0 -6 -1 -11l-23 -139v0v0v0l-1 -7v0zM144 -39h-16h16h-16v8v0l8 160v0v8v0h16v0v-8v0l-8 -160v0v-8v0zM96 -39h-16h16h-16v8v0l-1 20v0l-1 20v0l-2 40v0l-4 80v0v8v0h16v0v-8v0l4 -80v0l2 -40v0l1 -20v0l1 -20v0v-8
v0zM304 137q1 -50 15 -82v0v0q15 -31 34 -48t36 -24q8 -3 13 -5l6 -1v0v0h8v0v320v0h-112v0v-160v0zM432 297v-320v320v-320v-16v0h-16h-8q-10 -1 -38 14q-29 14 -54 52q-26 39 -28 110v160v0v16v0h16h112v152v0v8v0h16v0v-8v0v-152v0v-8v0v-8v0z" />
</svg>
