<?xml version="1.0" standalone="no"?>
<!DOCTYPE svg PUBLIC "-//W3C//DTD SVG 1.1//EN" "http://www.w3.org/Graphics/SVG/1.1/DTD/svg11.dtd" >
<svg xmlns="http://www.w3.org/2000/svg" xmlns:xlink="http://www.w3.org/1999/xlink" version="1.1" viewBox="-10 -40 660 512">
   <path fill="currentColor"
d="M400 -23v384v-384v384h-163v0q-9 -28 -31 -46q-23 -17 -54 -18q-31 1 -54 18q-22 18 -31 46h-51v0v-384v0h384v0zM16 377h48h-48h48v8q1 37 26 62t62 26q37 -1 62 -26t26 -62v-8h160v0v0v0v8q1 37 26 62t62 26q37 -1 62 -26t26 -62v-8h56h8v-16v0h-8h-24v-184v0v-3v0
l-2 -3v0l-112 -112v0l-3 -2v0h-3h-72v-80v0v-16v0h-16h-400v16v0v384v0v16v0h16v0zM416 73h69h-69h69l104 104v0h-173v0v-104v0zM416 334v-141v141v-141h176v0v168v0h-19v0q-9 -28 -31 -46q-23 -17 -54 -18q-46 2 -72 37v0zM152 313q41 1 62 36q20 36 0 72q-21 35 -62 36
q-41 -1 -62 -36q-20 -36 0 -72q21 -35 62 -36v0zM416 385q1 -41 36 -62q36 -20 72 0q35 21 36 62q-1 41 -36 62q-36 20 -72 0q-35 -21 -36 -62v0zM176 33h-8h8h-8v8v0v64v0h-64h-8v8v0v64v0v8v0h8h64v64v0v8v0h8h72v-8v0v-64v0h64h8v-8v0v-64v0v-8v0h-8h-64v-64v0v-8v0h-8
h-64zM184 113v-64v64v-64h48v0v64v0v8v0h8h64v48v0h-64h-8v8v0v64v0h-48v0v-64v0v-8v0h-8h-64v-48v0h64h8v-8v0z" />
</svg>
