<?xml version="1.0" standalone="no"?>
<!DOCTYPE svg PUBLIC "-//W3C//DTD SVG 1.1//EN" "http://www.w3.org/Graphics/SVG/1.1/DTD/svg11.dtd" >
<svg xmlns="http://www.w3.org/2000/svg" xmlns:xlink="http://www.w3.org/1999/xlink" version="1.1" viewBox="-10 -40 458 512">
   <path fill="currentColor"
d="M230 231l-6 5l6 -5l-6 5l-6 -5v0l-176 -176v0l-5 -6v0l11 -11v0l6 5v0l170 171v0l170 -171v0l6 -5v0l11 11v0l-5 6v0l-176 176v0zM230 423l-6 5l6 -5l-6 5l-6 -5v0l-176 -176v0l-5 -6v0l11 -11v0l6 5v0l170 171v0l170 -171v0l6 -5v0l11 11v0l-5 6v0l-176 176v0z" />
</svg>
