<?xml version="1.0" standalone="no"?>
<!DOCTYPE svg PUBLIC "-//W3C//DTD SVG 1.1//EN" "http://www.w3.org/Graphics/SVG/1.1/DTD/svg11.dtd" >
<svg xmlns="http://www.w3.org/2000/svg" xmlns:xlink="http://www.w3.org/1999/xlink" version="1.1" viewBox="-10 -40 468 512">
   <path fill="currentColor"
d="M16 -31v-8v8v-8h-16v0v8v0v56v0v320v0v16v0v104v0v8v0h16v0v-8v0v-108v0l112 -28v0q64 -15 123 13q69 34 142 8l55 -21v0v-334v0v-18v0l-16 8v0l-38 19v0q-36 18 -74 18t-73 -18q-55 -26 -114 -12l-117 29v0v-52v0zM16 38l112 -28l-112 28l112 -28v93v0l-112 24v0v-89v0z
M16 144l112 -25l-112 25l112 -25v88v0l-112 24v0v-88v1zM144 116l18 -4l-18 4l18 -4q30 -7 59 2l66 19v0q8 3 17 4v88v0q-6 -1 -13 -3l-65 -19v0q-34 -10 -68 -3l-14 3v0v-87v0zM320 140q25 2 49 -4l63 -13v0v88v0l-66 14v0q-23 4 -46 2v-88v1zM304 241v102v-102v102
q-24 -4 -46 -15q-54 -27 -114 -18v-90v0l18 -4v0q30 -7 59 2l66 19v0q8 3 17 4v0zM320 345v-102v102v-102q25 3 49 -3l63 -13v0v91v0l-45 17v0q-33 12 -67 10v0zM320 123v-85v85v-85q42 0 81 -19l31 -16v0v104v0l-66 14v0q-23 4 -46 2v0zM304 37v84v-84v84q-6 -1 -13 -3
l-65 -19v0q-34 -10 -68 -3l-14 3v0v-93v0q50 -10 95 13q31 15 65 18v0zM16 247l112 -24l-112 24l112 -24v90v0h-4l-108 28v0v-94v0z" />
</svg>
