<?xml version="1.0" standalone="no"?>
<!DOCTYPE svg PUBLIC "-//W3C//DTD SVG 1.1//EN" "http://www.w3.org/Graphics/SVG/1.1/DTD/svg11.dtd" >
<svg xmlns="http://www.w3.org/2000/svg" xmlns:xlink="http://www.w3.org/1999/xlink" version="1.1" viewBox="-10 -40 596 512">
   <path fill="currentColor"
d="M448 441q2 0 31 -16q31 -17 63 -56q31 -39 34 -104q-2 -75 -52 -124q-49 -50 -124 -52h-64h-16v-16v0v-64v0v-16v0h-16h-16l-180 165v0l-12 11v0l12 11v0l180 165v0h16h16v-16v0v-64v0v-16v0h16h32q48 1 79 33q32 31 33 79q-1 32 -13 53q-16 26 -19 27v0zM502 389
q-6 5 -11 9q5 -17 5 -37q-1 -54 -37 -91q-37 -36 -91 -37h-48h-16v16v0v80v0h-10v0l-174 -160v0l174 -160v0h10v0v80v0v16v0h16h80q68 2 113 47t47 113q-1 43 -18 74t-40 50v0zM197 21l6 -5l-6 5l6 -5l-10 -12v0l-6 5v0l-168 154v0l-7 6v0l7 6v0l168 154v0l6 5v0l10 -11v0
l-6 -6v0l-161 -148v0l161 -148v0z" />
</svg>
