<?xml version="1.0" standalone="no"?>
<!DOCTYPE svg PUBLIC "-//W3C//DTD SVG 1.1//EN" "http://www.w3.org/Graphics/SVG/1.1/DTD/svg11.dtd" >
<svg xmlns="http://www.w3.org/2000/svg" xmlns:xlink="http://www.w3.org/1999/xlink" version="1.1" viewBox="-10 -40 524 512">
   <path fill="currentColor"
d="M8 25h-8h8h-8v16v0h8h28l130 176v0l-130 176v0h-28h-8v16v0h8h36l2 -3v0l130 -175v0l130 175v0l2 3v0h4h40v-16v0h-8h-28l-130 -176v0l130 -176v0h28h8v-16v0h-8h-36l-2 3v0l-130 176v0l-130 -176v0l-2 -3v0h-4h-32zM424 313h-8h8h-8v16v0h8h24v128v0h-32v0v16v0h40h48
v-16v0h-8h-32v-136v0v-8v0h-8h-32z" />
</svg>
