<?xml version="1.0" standalone="no"?>
<!DOCTYPE svg PUBLIC "-//W3C//DTD SVG 1.1//EN" "http://www.w3.org/Graphics/SVG/1.1/DTD/svg11.dtd" >
<svg xmlns="http://www.w3.org/2000/svg" xmlns:xlink="http://www.w3.org/1999/xlink" version="1.1" viewBox="-10 -40 586 512">
   <path fill="currentColor"
d="M411 -7l-2 5l2 -5l-2 5l-87 187v0h18v0l22 -48v0h108v0l23 48v0h17v0l-87 -187v0l-2 -5v0h-10v0zM463 121h-94h94h-94l47 -101v0l47 101v0zM166 3l-6 -5l6 5l-6 -5l-6 5v0l-112 112v0l-5 6v0l11 11v0l6 -5v0l98 -99v0v405v0v8v0h16v0v-8v0v-405v0l98 99v0l6 5v0l11 -11v0
l-5 -6v0l-112 -112v0zM344 249h-8h8h-8v16v0h8h133l-139 155v0l-2 2v0v3v0v8v0v8v0h8h152v-16v0h-8h-133l139 -155v0l2 -2v0v-3v0v-8v0v-8v0h-8h-144z" />
</svg>
