<?xml version="1.0" standalone="no"?>
<!DOCTYPE svg PUBLIC "-//W3C//DTD SVG 1.1//EN" "http://www.w3.org/Graphics/SVG/1.1/DTD/svg11.dtd" >
<svg xmlns="http://www.w3.org/2000/svg" xmlns:xlink="http://www.w3.org/1999/xlink" version="1.1" viewBox="-11 0 534 512">
   <path fill="currentColor"
d="M213 109q7 -21 -2 -50q-10 -28 -29 -41t-35 -7q-16 5 -24 26q-7 22 2 50q10 28 29 41t35 8q16 -6 24 -27v0zM194 151q-25 7 -49 -9v0v0q-24 -17 -36 -50q-10 -33 -1 -60q10 -28 34 -37q25 -7 49 10q24 16 36 49q10 33 1 60q-10 28 -34 37v0zM96 207q2 -18 -10 -39
t-29 -28q-17 -6 -27 0q-11 6 -14 23q-2 18 9 39q13 21 30 28q16 6 27 0t14 -23v0zM90 244q-19 10 -41 1v0v0q-22 -10 -37 -34q-14 -26 -12 -49q3 -24 22 -36q19 -10 41 0q22 9 37 34q14 25 11 49q-2 23 -21 35v0zM256 377l4 1l-4 -1l4 1l171 42v0q-4 -54 -22 -95
q-18 -40 -45 -67q-29 -30 -58 -43q-29 -14 -50 -14t-50 14q-29 13 -58 43q-27 27 -45 67q-18 41 -22 95l171 -43v0l4 -1v1zM80 437l-16 4l16 -4l-16 4v-17q6 -82 40 -135t76 -78q43 -26 76 -26t76 26q42 25 76 78t40 135v17l-16 -4v0l-176 -44v0l-176 44v0zM426 168
q-12 21 -10 39q3 17 14 23q10 6 27 0q17 -7 30 -28q11 -21 9 -39q-3 -17 -14 -23q-10 -6 -27 0q-17 7 -29 28v0zM412 160q15 -25 37 -34v0v0q22 -10 41 0q19 12 22 35q2 24 -12 49q-15 25 -37 34q-22 10 -41 0q-19 -12 -21 -35q-3 -24 11 -49v0zM293 59q-9 29 -1 50
q7 21 23 26q16 6 35 -7t29 -41q9 -29 2 -50q-8 -21 -24 -26q-16 -6 -35 7t-29 41v0zM278 54q11 -33 35 -50v0v0q24 -16 49 -9q24 9 34 37q9 27 -1 60q-12 33 -36 49q-24 17 -49 10q-24 -9 -34 -37q-9 -27 2 -60v0z" />
</svg>
