<?xml version="1.0" standalone="no"?>
<!DOCTYPE svg PUBLIC "-//W3C//DTD SVG 1.1//EN" "http://www.w3.org/Graphics/SVG/1.1/DTD/svg11.dtd" >
<svg xmlns="http://www.w3.org/2000/svg" xmlns:xlink="http://www.w3.org/1999/xlink" version="1.1" viewBox="-10 -40 404 512">
   <path fill="currentColor"
d="M16 457v-480v480v-480h192v0v152v0v8v0h8h152v320v0h-352v0zM224 -16l137 137l-137 -137l137 137h-137v0v-137v0zM224 -39h-208h208h-224v16v0v480v0v16v0h16h368v-16v0v-336v0l-160 -160v0zM271 185h-19h19h-19l-60 90v0l-60 -90v0h-19v0l69 104v0l-69 104v0h19v0
l60 -90v0l60 90v0h19v0l-69 -104v0l69 -104v0z" />
</svg>
