<?xml version="1.0" standalone="no"?>
<!DOCTYPE svg PUBLIC "-//W3C//DTD SVG 1.1//EN" "http://www.w3.org/Graphics/SVG/1.1/DTD/svg11.dtd" >
<svg xmlns="http://www.w3.org/2000/svg" xmlns:xlink="http://www.w3.org/1999/xlink" version="1.1" viewBox="-10 -40 404 512">
   <path fill="currentColor"
d="M16 457v-480v480v-480h192v0v152v0v8v0h8h152v320v0h-352v0zM224 -16l137 137l-137 -137l137 137h-137v0v-137v0zM224 -39h-208h208h-224v16v0v480v0v16v0h16h368v-16v0v-336v0l-160 -160v0zM120 185h-8h8h-8v8v0v128v0v80v0v8v0h16v0v-8v0v-72v0h72v0q31 -1 51 -21
t21 -51q-1 -31 -21 -51t-51 -21h-80v0zM200 313h-72h72h-72v-112v0h72v0q24 1 40 16q15 16 16 40q-1 24 -16 40q-16 15 -40 16v0z" />
</svg>
