<?xml version="1.0" standalone="no"?>
<!DOCTYPE svg PUBLIC "-//W3C//DTD SVG 1.1//EN" "http://www.w3.org/Graphics/SVG/1.1/DTD/svg11.dtd" >
<svg xmlns="http://www.w3.org/2000/svg" xmlns:xlink="http://www.w3.org/1999/xlink" version="1.1" viewBox="-10 -40 532 512">
   <path fill="currentColor"
d="M194 -15q-78 22 -127 85v0v0q-49 62 -51 147q1 67 33 121t86 86t121 33q67 -1 121 -33t86 -86t33 -121q-2 -85 -51 -147q-49 -63 -127 -85l4 -15v0q84 23 136 90q52 66 54 157q-1 72 -35 129q-34 58 -92 92q-57 34 -129 35q-72 -1 -129 -35q-58 -34 -92 -92
q-34 -57 -35 -129q2 -91 54 -157q52 -67 136 -90l4 15v0z" />
</svg>
