<?xml version="1.0" standalone="no"?>
<!DOCTYPE svg PUBLIC "-//W3C//DTD SVG 1.1//EN" "http://www.w3.org/Graphics/SVG/1.1/DTD/svg11.dtd" >
<svg xmlns="http://www.w3.org/2000/svg" xmlns:xlink="http://www.w3.org/1999/xlink" version="1.1" viewBox="-10 -40 532 512">
   <path fill="currentColor"
d="M0 249l19 8l-19 -8l19 8l173 74v0v0v0v14v0v40v0v72v0l48 16v0l52 -99v0l-14 -6v0l-46 86v0l-24 -8v0v-61v0v-40v0v-7v0v0v0l16 7v0l209 90v0l15 6v0l2 -16v0l59 -444v0l3 -20v0l-17 10v0l-477 268v0l-18 10v0zM215 324l276 -326l-276 326l276 -326l-56 420v0l-205 -88v0
l-15 -6v0zM462 7l-262 310l262 -310l-262 310l-164 -70v0l426 -240v0z" />
</svg>
