<?xml version="1.0" standalone="no"?>
<!DOCTYPE svg PUBLIC "-//W3C//DTD SVG 1.1//EN" "http://www.w3.org/Graphics/SVG/1.1/DTD/svg11.dtd" >
<svg xmlns="http://www.w3.org/2000/svg" xmlns:xlink="http://www.w3.org/1999/xlink" version="1.1" viewBox="-10 -40 532 512">
   <path fill="currentColor"
d="M16 128v-111v111v-111v-8v0h-16v0v8v0v128v0v8v0h8h136v-16v0h-8h-106q26 -71 86 -115t140 -45q67 1 121 33t86 86t33 121q-1 67 -33 121t-86 86t-121 33q-56 0 -103 -23t-80 -62l-6 -6v0l-12 10v0l5 6v0q36 42 86 66q51 25 110 25q72 -1 129 -35q58 -34 92 -92
q34 -57 35 -129q-1 -72 -35 -129q-34 -58 -92 -92q-57 -34 -129 -35q-84 1 -148 47q-64 45 -92 120v0zM264 89h-16h16h-16v8v0v120v0v3v0l2 3v0l88 88v0l6 5v0l11 -11v0l-5 -6v0l-86 -85v0v-117v0v-8v0z" />
</svg>
