<?xml version="1.0" standalone="no"?>
<!DOCTYPE svg PUBLIC "-//W3C//DTD SVG 1.1//EN" "http://www.w3.org/Graphics/SVG/1.1/DTD/svg11.dtd" >
<svg xmlns="http://www.w3.org/2000/svg" xmlns:xlink="http://www.w3.org/1999/xlink" version="1.1" viewBox="-10 -40 468 512">
   <path fill="currentColor"
d="M0 -7h8h-8h144v16v0h-8h-56v192v0h288v0v-192v0h-56h-8v-16v0h8h136v16v0h-8h-56v200v0v216v0h56h8v16v0h-8h-136v-16v0h8h56v-208v0h-288v0v208v0h56h8v16v0h-8h-136v-16v0h8h56v-216v0v-200v0h-56h-8v-16v0z" />
</svg>
