<?xml version="1.0" standalone="no"?>
<!DOCTYPE svg PUBLIC "-//W3C//DTD SVG 1.1//EN" "http://www.w3.org/Graphics/SVG/1.1/DTD/svg11.dtd" >
<svg xmlns="http://www.w3.org/2000/svg" xmlns:xlink="http://www.w3.org/1999/xlink" version="1.1" viewBox="-10 -40 660 512">
   <path fill="currentColor"
d="M407 377l-21 -16l21 16l-21 -16h-274v0v-29v0l62 -78v0l2 -2v0v-3v0v-54v0l-16 -13v0v64v0l-62 78v0l-2 2v0v3v0v40v0v8v0h8h303zM209 38l13 10l-13 -10l13 10q40 -38 98 -39q61 2 102 42q40 41 42 102v86v0l16 13v0v-6v0v-93v0q-2 -66 -44 -110q-43 -45 -108 -50v-32v0
h-16v0v32v0q-61 4 -103 45v0zM272 409h-16h16h-16q0 26 19 45t45 19t45 -19t19 -45h-16v0q0 20 -14 34t-34 14t-34 -14t-14 -34v0zM16 -34l-6 -5l6 5l-6 -5l-10 13v0l6 5v0l618 489v0l6 5v0l10 -12v0l-6 -5v0l-618 -490v0z" />
</svg>
