<?xml version="1.0" standalone="no"?>
<!DOCTYPE svg PUBLIC "-//W3C//DTD SVG 1.1//EN" "http://www.w3.org/Graphics/SVG/1.1/DTD/svg11.dtd" >
<svg xmlns="http://www.w3.org/2000/svg" xmlns:xlink="http://www.w3.org/1999/xlink" version="1.1" viewBox="-10 -40 468 512">
   <path fill="currentColor"
d="M156 -39h4h-4h136l3 4v0l37 60v0h116v0v16v0h-448v0v-16v0h116v0l37 -60v0l3 -4v0zM284 -23h-120h120h-120l-30 48v0h180v0l-30 -48v0zM24 74v-1v1v-1h16v0l39 384v0h290v0l39 -384v0h16v0v1v0l-40 392v0l-1 7v0h-7h-311l-1 -7v0l-40 -392v0z" />
</svg>
