<?xml version="1.0" standalone="no"?>
<!DOCTYPE svg PUBLIC "-//W3C//DTD SVG 1.1//EN" "http://www.w3.org/Graphics/SVG/1.1/DTD/svg11.dtd" >
<svg xmlns="http://www.w3.org/2000/svg" xmlns:xlink="http://www.w3.org/1999/xlink" version="1.1" viewBox="-10 -40 595 512">
   <path fill="currentColor"
d="M528 185q-2 -88 -61 -147v0v0q-59 -59 -147 -61v208v0h208v0zM304 -38q8 -1 16 -1q63 1 113 31q51 29 80 80q30 50 31 113q0 8 -1 16h-223h-16v-16v0v-223v0zM240 256v-7v7v-7v-238v0q-83 14 -137 75q-53 61 -55 147q1 63 31 113q29 51 80 80q50 30 113 31q73 -1 129 -41
l-156 -156v0l-5 -4v0zM414 407l11 11l-11 -11l11 11q-6 5 -13 10q-60 44 -140 45q-67 -1 -121 -33t-86 -86t-33 -121q2 -93 60 -159q58 -65 148 -79q8 -1 16 -1v16v0v239v0l158 158v0zM320 249h23h-23h255q0 8 -1 16q-15 94 -85 153l-153 -153v0l-16 -16v0zM359 265l131 131
l-131 -131l131 131q55 -53 68 -131h-199v0z" />
</svg>
