<?xml version="1.0" standalone="no"?>
<!DOCTYPE svg PUBLIC "-//W3C//DTD SVG 1.1//EN" "http://www.w3.org/Graphics/SVG/1.1/DTD/svg11.dtd" >
<svg xmlns="http://www.w3.org/2000/svg" xmlns:xlink="http://www.w3.org/1999/xlink" version="1.1" viewBox="-10 -40 660 512">
   <path fill="currentColor"
d="M264 -7h-8h8h-8v16v0h8h83l20 39v0l-111 79v0l-31 -18v0q-31 -20 -67 -20h-118v0q-7 1 -8 8v48v0v8v0h8h72q72 2 121 49q50 47 55 119v8v0v8v0h8h56v-8v0v-16v0q1 -45 22 -81q22 -36 58 -58l15 29v0q-29 17 -46 46t-17 64q1 54 37 91q37 36 91 37q54 -1 91 -37
q36 -37 37 -91q-1 -54 -37 -91q-37 -36 -91 -37q-27 0 -51 11l-55 -107v0h98h8v-8v0v-80v0v-8v0h-8h-58l-3 2v0l-62 44v0l-22 -42v0l-2 -4v0h-5h-88zM261 144l114 -81l-114 81l114 -81l50 97v0q-41 23 -65 63q-23 40 -24 90v8v0h-32v0v0v0q-6 -79 -59 -131q-54 -51 -133 -53
h-64v0v-32v0h110v0q32 0 59 17l35 22v0l4 3v0l5 -3v0zM496 73h-98h98h-98l-10 -20v0l63 -44v0h45v0v64v0zM454 217l51 100l-51 -100l51 100l4 7v0l14 -8v0l-4 -7v0l-51 -99v0q21 -9 44 -9q48 1 79 33q32 31 33 79q-1 48 -33 79q-31 32 -79 33q-48 -1 -79 -33
q-32 -31 -33 -79q0 -31 15 -56q14 -25 39 -40v0zM240 305h-48h48h-48q-4 -24 -21 -40q-18 -15 -43 -16q-27 1 -45 19t-19 45q1 27 19 45t45 19q25 -1 43 -16q17 -16 21 -40h48v0q-4 45 -36 74q-31 29 -76 30q-48 -1 -79 -33q-32 -31 -33 -79q1 -48 33 -79q31 -32 79 -33
q45 1 77 30q31 29 35 74v0zM175 305h-47h47h-55v16v0h8h47q-3 17 -16 29q-13 11 -31 11q-20 -1 -34 -14q-13 -14 -14 -34q1 -20 14 -34q14 -13 34 -14q18 0 31 11q13 12 16 29v0zM128 441q35 0 64 -17v0v0q29 -17 47 -47q17 -30 17 -64t-17 -64q-18 -30 -47 -47t-64 -17
t-64 17t-47 47q-17 30 -17 64t17 64q18 30 47 47t64 17v0z" />
</svg>
