<?xml version="1.0" standalone="no"?>
<!DOCTYPE svg PUBLIC "-//W3C//DTD SVG 1.1//EN" "http://www.w3.org/Graphics/SVG/1.1/DTD/svg11.dtd" >
<svg xmlns="http://www.w3.org/2000/svg" xmlns:xlink="http://www.w3.org/1999/xlink" version="1.1" viewBox="-10 -40 660 512">
   <path fill="currentColor"
d="M16 1v-8v8v-8h-16v0v8v0v288v0v80v0v64v0v8v0h16v0v-8v0v-56v0h608v0v56v0v8v0h16v0v-8v0v-64v0v-80v0v-96v0q-1 -44 -30 -74q-30 -29 -74 -30h-256h-8v8v0v184v0h-256v0v-280v0zM624 361h-608h608h-608v-64v0h264h344v64v0zM624 193v88v-88v88h-336v0v-176v0h248v0
q37 1 62 26t26 62v0zM80 169q1 -36 32 -55q32 -18 64 0q31 19 32 55q-1 36 -32 55q-32 18 -64 0q-31 -19 -32 -55v0zM224 169q-1 -45 -40 -69q-40 -22 -80 0q-39 24 -40 69q1 45 40 69q40 22 80 0q39 -24 40 -69v0z" />
</svg>
