<?xml version="1.0" standalone="no"?>
<!DOCTYPE svg PUBLIC "-//W3C//DTD SVG 1.1//EN" "http://www.w3.org/Graphics/SVG/1.1/DTD/svg11.dtd" >
<svg xmlns="http://www.w3.org/2000/svg" xmlns:xlink="http://www.w3.org/1999/xlink" version="1.1" viewBox="-10 -40 532 512">
   <path fill="currentColor"
d="M8 130l-8 -2l8 2l-8 -2l2 -8v0l24 -85v0l2 -8v0l7 2v0l43 12v0l187 52v0l49 -65v0l2 -3v0h4h32q59 1 100 44l24 26v0q35 39 36 92v102v0q-1 58 -40 96q-38 39 -96 40h-32h-104v-8v0v-64v0h-32h-8v-8v0v-62v0l-140 10v0l-44 3v0l-8 1v0l-1 -8v0l-6 -88v0l-1 -8v0l8 -1v0
l44 -3v0l136 -10v0l-138 -38v0l-42 -11v0zM53 205l-36 3l36 -3l-36 3l6 72v0l36 -3v0l148 -11v0l9 -1v0v9v0v63v0h32h8v8v0v64v0h56h64q51 -1 85 -35t35 -85v-102v0q-1 -47 -32 -81l-24 -26v0q-36 -38 -88 -39h-28v0l-43 57v0l81 23v0l8 3v0l-4 15v0l-8 -2v0l-190 -54v0
l-94 -26v0l-35 -10v0l-19 69v0l34 10v0l183 50v0l-2 16v0l-182 13v0z" />
</svg>
