<?xml version="1.0" standalone="no"?>
<!DOCTYPE svg PUBLIC "-//W3C//DTD SVG 1.1//EN" "http://www.w3.org/Graphics/SVG/1.1/DTD/svg11.dtd" >
<svg xmlns="http://www.w3.org/2000/svg" xmlns:xlink="http://www.w3.org/1999/xlink" version="1.1" viewBox="-10 -40 532 512">
   <path fill="currentColor"
d="M0 25h8h-8h348l3 4v0l160 232v0l1 2v0v2v0v136v0v8v0h-16v0v-8v0v-133v0l-156 -227v0h-324v0v64v0h224v0q27 1 45 19t19 45q-1 27 -19 45t-45 19h-160v0v64v0h192h3l2 2v0l88 64v0l3 2v0v4v0v32v0v8v0h-16v0v-8v0v-28v0l-83 -60v0h-197h-8v-8v0v-80v0v-8v0h8h168
q20 -1 34 -14q13 -14 14 -34q-1 -20 -14 -34q-14 -13 -34 -14h-232h-8v-8v0v-80v0v-8v0z" />
</svg>
