<?xml version="1.0" standalone="no"?>
<!DOCTYPE svg PUBLIC "-//W3C//DTD SVG 1.1//EN" "http://www.w3.org/Graphics/SVG/1.1/DTD/svg11.dtd" >
<svg xmlns="http://www.w3.org/2000/svg" xmlns:xlink="http://www.w3.org/1999/xlink" version="1.1" viewBox="-10 -40 553 512">
   <path fill="currentColor"
d="M249 -27l-2 -8l2 8l-2 -8l-8 2v0l-72 21v0l-7 2v0l2 8v0l9 30v0l-69 22v0l-7 2v0l2 7v0l11 36v0l55 179v0l-37 -34v0l-28 -25v0l-6 -6v0l-5 6v0l-50 56v0l-6 5v0l6 6v0l28 25v0l87 78v0q65 58 151 59h15v0v0v0v0v0v0v0v0v0v0v0h2h7v0v0q45 -4 79 -32t46 -72l59 -232v0
l2 -8v0l-7 -1v0l-70 -18v0l8 -34v0l8 -37v0l2 -7v0l-7 -2v0l-74 -17v0l-7 -2v0l-2 7v0l-8 37v0l-41 174v0l-56 -191v0l-10 -36v0zM113 62l58 -18l-58 18l58 -18l9 29v0l46 148v0l1 5v0h6h11l-3 -9v0l-54 -187v0l-9 -29v0l58 -17v0l9 29v0l60 208v0l1 5v0h6h12l1 -5v0
l45 -192v0l7 -29v0l59 14v0l-7 29v0l-41 174v0l-2 9v0h9h8l1 -5v0l32 -125v0l59 15v0l-58 225v0q-11 41 -43 66q-32 26 -74 27h-1h-1v0v0v0v0v0v0v0v0v0v0h-15v0q-81 -1 -141 -55l-87 -78v0l-22 -21v0l40 -44v0l23 20v0l50 45v0l16 -12v0l-60 -194v0l-9 -28v0z" />
</svg>
