<?xml version="1.0" standalone="no"?>
<!DOCTYPE svg PUBLIC "-//W3C//DTD SVG 1.1//EN" "http://www.w3.org/Graphics/SVG/1.1/DTD/svg11.dtd" >
<svg xmlns="http://www.w3.org/2000/svg" xmlns:xlink="http://www.w3.org/1999/xlink" version="1.1" viewBox="-10 -40 468 512">
   <path fill="currentColor"
d="M144 57v32v-32v32h160v0v-32v0q-1 -34 -23 -57q-23 -22 -57 -23q-34 1 -57 23q-22 23 -23 57v0zM128 105h-112h112h-112v352v0h416v0v-352v0h-112v0v88v0v8v0h-16v0v-8v0v-88v0h-160v0v88v0v8v0h-16v0v-8v0v-88v0zM128 89v-32v32v-32q1 -41 28 -68t68 -28q41 1 68 28
t28 68v32v0h112h16v16v0v352v0v16v0h-16h-432v-16v0v-352v0v-16v0h16h112z" />
</svg>
