<?xml version="1.0" standalone="no"?>
<!DOCTYPE svg PUBLIC "-//W3C//DTD SVG 1.1//EN" "http://www.w3.org/Graphics/SVG/1.1/DTD/svg11.dtd" >
<svg xmlns="http://www.w3.org/2000/svg" xmlns:xlink="http://www.w3.org/1999/xlink" version="1.1" viewBox="-10 -40 596 512">
   <path fill="currentColor"
d="M16 9v416v-416v416h544v0v-416v0h-544v0zM0 -7h16h-16h576v16v0v416v0v16v0h-16h-560v-16v0v-416v0v-16v0zM360 137h144h-144h152v16v0h-8h-152v-16v0h8v0zM360 201h144h-144h152v16v0h-8h-152v-16v0h8v0zM360 265h144h-144h152v16v0h-8h-152v-16v0h8v0zM102 329h-17h17
h-17l27 -80v0h160v0l27 80v0h-17v0l-21 -64v0h-137v0l-22 64v0zM240 153q-1 -27 -24 -42q-24 -12 -48 0q-23 15 -24 42q1 27 24 42q24 12 48 0q23 -15 24 -42v0zM128 153q1 -36 32 -55q32 -18 64 0q31 19 32 55q-1 36 -32 55q-32 18 -64 0q-31 -19 -32 -55v0z" />
</svg>
