<?xml version="1.0" standalone="no"?>
<!DOCTYPE svg PUBLIC "-//W3C//DTD SVG 1.1//EN" "http://www.w3.org/Graphics/SVG/1.1/DTD/svg11.dtd" >
<svg xmlns="http://www.w3.org/2000/svg" xmlns:xlink="http://www.w3.org/1999/xlink" version="1.1" viewBox="-10 -40 404 512">
   <path fill="currentColor"
d="M16 -23v480v-480v480h352v0v-480v0h-352v0zM0 -39h16h-16h384v16v0v480v0v16v0h-16h-368v-16v0v-480v0v-16v0zM128 25h8h-8h128v16v0h-8h-120v-16v0zM240 185q-1 -27 -24 -42q-24 -12 -48 0q-23 15 -24 42q1 27 24 42q24 12 48 0q23 -15 24 -42v0zM128 185q1 -36 32 -55
q32 -18 64 0q31 19 32 55q-1 36 -32 55q-32 18 -64 0q-31 -19 -32 -55v0zM124 297l-22 64l22 -64l-22 64h-17v0l27 -80v0h160v0l27 80v0h-17v0l-21 -64v0h-137v0z" />
</svg>
