<?xml version="1.0" standalone="no"?>
<!DOCTYPE svg PUBLIC "-//W3C//DTD SVG 1.1//EN" "http://www.w3.org/Graphics/SVG/1.1/DTD/svg11.dtd" >
<svg xmlns="http://www.w3.org/2000/svg" xmlns:xlink="http://www.w3.org/1999/xlink" version="1.1" viewBox="-10 -40 532 512">
   <path fill="currentColor"
d="M8 -7h-8h8h-8v8v0v432v0v8v0h16v0v-8v0v-424v0h85v0l53 54v0l1 1v0q-28 34 -27 77q1 42 33 75l18 19v0l-17 16v0l-5 6v0l11 11v0l6 -5v0l192 -192v0l5 -6v0l-11 -11v0l-6 5v0l-16 17v0l-19 -18v0q-33 -32 -75 -33q-43 -1 -77 27l-1 -1v0l-56 -56v0l-3 -2v0h-3h-96z
M326 88l-135 135l135 -135l-135 135l-19 -18v0q-28 -30 -28 -68t28 -68q30 -28 68 -28t68 28l18 18v1zM416 169q-1 -15 -16 -16q-15 1 -16 16q1 15 16 16q15 -1 16 -16v0zM336 249q15 -1 16 -16q-1 -15 -16 -16q-15 1 -16 16q1 15 16 16v0zM288 297q-1 -15 -16 -16
q-15 1 -16 16q1 15 16 16q15 -1 16 -16v0zM368 345q15 -1 16 -16q-1 -15 -16 -16q-15 1 -16 16q1 15 16 16v0zM304 409q15 -1 16 -16q-1 -15 -16 -16q-15 1 -16 16q1 15 16 16v0zM432 281q15 -1 16 -16q-1 -15 -16 -16q-15 1 -16 16q1 15 16 16v0zM512 201q-1 -15 -16 -16
q-15 1 -16 16q1 15 16 16q15 -1 16 -16v0z" />
</svg>
