<?xml version="1.0" standalone="no"?>
<!DOCTYPE svg PUBLIC "-//W3C//DTD SVG 1.1//EN" "http://www.w3.org/Graphics/SVG/1.1/DTD/svg11.dtd" >
<svg xmlns="http://www.w3.org/2000/svg" xmlns:xlink="http://www.w3.org/1999/xlink" version="1.1" viewBox="-10 -40 468 512">
   <path fill="currentColor"
d="M432 185q-1 64 -34 114v0v0q-33 50 -88 75l-2 19v0q62 -26 101 -81q38 -55 39 -127q-1 -63 -31 -113q-29 -51 -80 -80q-50 -30 -113 -31q-63 1 -113 31q-51 29 -80 80q-30 50 -31 113q1 72 39 127t101 81l-2 -19v0q-55 -25 -88 -75t-34 -114q2 -88 61 -147t147 -61
q88 2 147 61t61 147v0zM352 185q-2 59 -43 95l4 5v0l6 8v0q47 -42 49 -108q-2 -61 -42 -102q-41 -40 -102 -42q-61 2 -102 42q-40 41 -42 102q2 66 49 108l6 -8v0l4 -5v0q-41 -36 -43 -95q1 -54 37 -91q37 -36 91 -37q54 1 91 37q36 37 37 91v0zM224 137q27 1 42 24
q12 24 0 48q-15 23 -42 24q-27 -1 -42 -24q-12 -24 0 -48q15 -23 42 -24v0zM224 249q36 -1 55 -32q18 -32 0 -64q-19 -31 -55 -32q-36 1 -55 32q-18 32 0 64q19 31 55 32v0zM250 457h-52h52h-52l-21 -147v0l23 -29v0h48v0l23 29v0l-21 147v0zM160 305l24 168l-24 -168
l24 168h80v0l24 -168v0l-32 -40v0h-64v0l-32 40v0z" />
</svg>
