<?xml version="1.0" standalone="no"?>
<!DOCTYPE svg PUBLIC "-//W3C//DTD SVG 1.1//EN" "http://www.w3.org/Graphics/SVG/1.1/DTD/svg11.dtd" >
<svg xmlns="http://www.w3.org/2000/svg" xmlns:xlink="http://www.w3.org/1999/xlink" version="1.1" viewBox="-10 -40 532 512">
   <path fill="currentColor"
d="M474 -33l-6 6l6 -6l-6 6q7 -7 6 -6v0v0v0v0v0v0v0v0v1v0v0q1 0 1 1q2 2 5 6q6 7 13 20q17 26 19 73q-1 65 -43 120q-41 54 -113 122v1v0v0l-53 52v0l-6 6v0l-5 -6v0l-92 -92v0l-183 196v0l-5 6v0l-12 -11v0l5 -6v0l189 -202v0v0v0l268 -287v0l6 -6v0l6 6v0zM468 -15
l-257 275l257 -275l-257 275l86 86v0l47 -46v0v0v0q73 -69 112 -122q40 -51 40 -110q-2 -42 -17 -66q-6 -11 -12 -17h1z" />
</svg>
