<?xml version="1.0" standalone="no"?>
<!DOCTYPE svg PUBLIC "-//W3C//DTD SVG 1.1//EN" "http://www.w3.org/Graphics/SVG/1.1/DTD/svg11.dtd" >
<svg xmlns="http://www.w3.org/2000/svg" xmlns:xlink="http://www.w3.org/1999/xlink" version="1.1" viewBox="-10 -40 532 512">
   <path fill="currentColor"
d="M16 306v-178v178v-178l151 -151v0h178v0l151 151v0v178v0l-151 151v0h-178v0l-151 -151v0zM160 -39l-160 160l160 -160l-160 160v192v0l160 160v0h192v0l160 -160v0v-192v0l-160 -160v0h-192v0zM186 136l-11 11l11 -11l-11 11l5 6v0l65 64v0l-65 65v0l-6 5v0l12 12v0
l5 -6v0l65 -65v0l65 65v0l5 6v0l12 -12v0l-6 -5v0l-65 -65v0l65 -65v0l6 -5v0l-12 -12v0l-5 6v0l-65 65v0l-65 -65v0l-5 -6v1z" />
</svg>
