<?xml version="1.0" standalone="no"?>
<!DOCTYPE svg PUBLIC "-//W3C//DTD SVG 1.1//EN" "http://www.w3.org/Graphics/SVG/1.1/DTD/svg11.dtd" >
<svg xmlns="http://www.w3.org/2000/svg" xmlns:xlink="http://www.w3.org/1999/xlink" version="1.1" viewBox="-10 -40 524 512">
   <path fill="currentColor"
d="M92 345q56 68 139 78v0v0q82 11 153 -42q35 -27 54 -64l14 8v0q-21 39 -58 69q-50 37 -108 45t-113 -14q-54 -21 -93 -70q-38 -50 -46 -108t14 -113q21 -54 70 -93q70 -53 152 -48q82 6 143 65l-11 11v0q-57 -55 -133 -60q-76 -4 -141 44q-68 56 -78 139q-11 82 42 153v0
zM475 -4l11 11l-11 -11l11 11l18 18v0v128v0v16v0h-16h-128l-18 -18v0l-11 -11v0l11 -11v0l122 -122v0l11 -11v0zM475 19l-121 121l121 -121l-121 121l13 13v0h121v0v-121v0l-13 -13v0z" />
</svg>
