<?xml version="1.0" standalone="no"?>
<!DOCTYPE svg PUBLIC "-//W3C//DTD SVG 1.1//EN" "http://www.w3.org/Graphics/SVG/1.1/DTD/svg11.dtd" >
<svg xmlns="http://www.w3.org/2000/svg" xmlns:xlink="http://www.w3.org/1999/xlink" version="1.1" viewBox="-10 -40 532 512">
   <path fill="currentColor"
d="M224 -39h-19h19h-19l13 14v0l6 5v0q16 16 16 40v16v0q0 19 -13 32t-32 13h-12h-23q-31 1 -51 21t-21 51q0 18 8 33q-28 5 -46 25q-17 21 -18 50q1 34 24 56q-25 8 -40 28q-16 21 -16 48v72v0v8v0h8h504v-8v0v-72v0q0 -27 -16 -48q-15 -20 -40 -28q23 -22 24 -56
q-1 -29 -18 -50q-18 -20 -46 -25q8 -15 8 -33q-1 -28 -18 -48q-18 -20 -46 -24q-2 -51 -36 -85t-85 -35h-15v0zM256 20q0 -24 -14 -43q44 2 72 32q29 30 30 73v6l-1 9v0h9v0v0v0q24 1 40 16q15 16 16 40q0 20 -12 35l-11 13v0h17h2q25 1 42 18t18 42q-2 36 -32 53l-25 14v0
l28 1v0q26 2 43 20t18 44v64v0h-480v0v-64v0q1 -26 18 -44t43 -20l28 -1v0l-25 -14v0q-30 -17 -32 -53q1 -25 18 -42t42 -18h2h17l-11 -13v0q-12 -15 -12 -35q1 -24 16 -40q16 -15 40 -16h23h12q26 -1 43 -18t18 -43v-16v0zM192 265q15 -1 16 -16q-1 -15 -16 -16
q-15 1 -16 16q1 15 16 16v0zM336 249q-1 -15 -16 -16q-15 1 -16 16q1 15 16 16q15 -1 16 -16v0zM160 329h-11h11h-11l4 11v0l7 -3v0q-9 4 -7 3v0v0v0v0v0v0v0v0v1v0v1q1 0 1 1q1 3 4 8q5 10 17 24q12 13 32 23t49 11q29 -1 49 -11t32 -23q12 -14 17 -24q3 -5 4 -8q0 -1 1 -1
v-1v-1v0v0v0v0v0v0v0v0v0q2 0 -7 -3l7 3v0l5 -11v0h-12h-192zM187 364q-9 -11 -14 -19h166v0q-5 8 -14 19q-10 11 -27 20t-42 9t-42 -9t-27 -20v0z" />
</svg>
