<?xml version="1.0" standalone="no"?>
<!DOCTYPE svg PUBLIC "-//W3C//DTD SVG 1.1//EN" "http://www.w3.org/Graphics/SVG/1.1/DTD/svg11.dtd" >
<svg xmlns="http://www.w3.org/2000/svg" xmlns:xlink="http://www.w3.org/1999/xlink" version="1.1" viewBox="-10 -40 532 512">
   <path fill="currentColor"
d="M16 217q1 -65 32 -120v0v0q32 -55 88 -88q57 -32 120 -32t120 32q56 33 88 88q31 55 32 120q-1 65 -32 120q-32 55 -88 88q-57 32 -120 32t-120 -32q-56 -33 -88 -88q-31 -55 -32 -120v0zM512 217q-1 -70 -34 -128v0v0q-34 -58 -94 -94q-61 -34 -128 -34t-128 34
q-60 36 -94 94q-33 58 -34 128q1 70 34 128q34 58 94 94q61 34 128 34t128 -34q60 -36 94 -94q33 -58 34 -128v0zM320 345v-16v16v-16v-224v0v-16v0h-16h-24l-120 128v0l120 128v0h24h16zM287 105h17h-17h17v224v0h-17v0l-105 -112v0l105 -112v0z" />
</svg>
