<?xml version="1.0" standalone="no"?>
<!DOCTYPE svg PUBLIC "-//W3C//DTD SVG 1.1//EN" "http://www.w3.org/Graphics/SVG/1.1/DTD/svg11.dtd" >
<svg xmlns="http://www.w3.org/2000/svg" xmlns:xlink="http://www.w3.org/1999/xlink" version="1.1" viewBox="-10 -40 532 512">
   <path fill="currentColor"
d="M256 -23q-25 0 -44 13v0v0q-20 12 -31 32l-3 6v0l-7 -2v0q-22 -7 -44 -1q-23 5 -41 22q-17 18 -22 40q-6 23 1 45l2 7v0l-6 3v0q-20 11 -32 31q-13 19 -13 44t13 44q12 20 32 31l6 3v0l-2 7v0q-7 22 -1 44q5 23 22 41q18 17 40 22q23 6 45 -1l7 -2v0l3 6v0q11 20 31 32
q19 13 44 13t44 -13q20 -12 31 -32l3 -6v0l7 2v0q22 7 44 1q23 -5 41 -22q17 -18 22 -40q6 -23 -1 -45l-2 -7v0l6 -3v0q20 -11 32 -31q13 -19 13 -44t-13 -44q-12 -20 -32 -31l-6 -3v0l2 -7v0q7 -22 1 -44q-5 -23 -22 -41q-18 -17 -40 -22q-23 -6 -45 1l-7 2v0l-3 -6v0
q-11 -20 -31 -32q-19 -13 -44 -13v0zM170 9q14 -22 36 -35v0v0q22 -13 50 -13t50 13t36 35q25 -6 50 1t45 26q19 20 26 45t1 50q22 14 35 36t13 50t-13 50t-35 36q6 25 -1 50t-26 45q-20 19 -45 26t-50 1q-14 22 -36 35t-50 13t-50 -13t-36 -35q-25 6 -50 -1t-45 -26
q-19 -20 -26 -45t-1 -50q-22 -14 -35 -36t-13 -50t13 -50t35 -36q-6 -25 1 -50t26 -45q20 -19 45 -26t50 -1v0z" />
</svg>
