<?xml version="1.0" standalone="no"?>
<!DOCTYPE svg PUBLIC "-//W3C//DTD SVG 1.1//EN" "http://www.w3.org/Graphics/SVG/1.1/DTD/svg11.dtd" >
<svg xmlns="http://www.w3.org/2000/svg" xmlns:xlink="http://www.w3.org/1999/xlink" version="1.1" viewBox="-10 -40 468 512">
   <path fill="currentColor"
d="M128 -23v96v-96v96h-96v0v-96v0h96v0zM32 -39h-16h16h-16v16v0v96v0v16v0h16h40v16v0v240v0h-40h-16v16v0v96v0v16v0h16h112v-16v0v-96v0v-16v0h-16h-40v-176v0q18 33 49 52q32 20 71 20h112v0v40v0v16v0h16h112v-16v0v-96v0v-16v0h-16h-112v16v0v40v0h-112v0
q-51 -1 -85 -35t-35 -85v-16v0h40h16v-16v0v-96v0v-16v0h-16h-96zM128 361v96v-96v96h-96v0v-96v0h96v0zM336 185h96h-96h96v96v0h-96v0v-96v0z" />
</svg>
