<?xml version="1.0" standalone="no"?>
<!DOCTYPE svg PUBLIC "-//W3C//DTD SVG 1.1//EN" "http://www.w3.org/Graphics/SVG/1.1/DTD/svg11.dtd" >
<svg xmlns="http://www.w3.org/2000/svg" xmlns:xlink="http://www.w3.org/1999/xlink" version="1.1" viewBox="-10 -40 394 512">
   <path fill="currentColor"
d="M272 -23h-160h160h-160v240v0q1 34 23 57q23 22 57 23q34 -1 57 -23q22 -23 23 -57h-72h-8v-16v0h8h72v-48v0h-72h-8v-16v0h8h72v-48v0h-72h-8v-16v0h8h72v-96v0zM288 73v16v-16v16v48v0v16v0v48v0v16v0q-1 41 -28 68t-68 28q-41 -1 -68 -28t-28 -68v-240v0v-16v0h16h176
v16v0v96v0zM48 153v8v-8v8v56v0q2 61 42 102q41 40 102 42q61 -2 102 -42q40 -41 42 -102v-56v0v-8v0h16v0v8v0v56v0q-2 66 -44 110q-43 45 -108 50v80v0h80h8v16v0h-8h-184v-16v0h8h80v-80v0q-65 -5 -108 -50q-42 -44 -44 -110v-56v0v-8v0h16v0z" />
</svg>
