<?xml version="1.0" standalone="no"?>
<!DOCTYPE svg PUBLIC "-//W3C//DTD SVG 1.1//EN" "http://www.w3.org/Graphics/SVG/1.1/DTD/svg11.dtd" >
<svg xmlns="http://www.w3.org/2000/svg" xmlns:xlink="http://www.w3.org/1999/xlink" version="1.1" viewBox="-10 -40 522 512">
   <path fill="currentColor"
d="M104 -39v8v-8v8v88v0h40h16v16v0v96v0v16v0h-16h-40v280v0v8v0h-16v0v-8v0v-280v0h-40h-16v-16v0v-96v0v-16v0h16h40v-88v0v-8v0h16v0zM88 169h16h-16h56v-96v0h-40h-56v96v0h40v0zM264 -39v8v-8v8v280v0h40h16v16v0v96v0v16v0h-16h-40v88v0v8v0h-16v0v-8v0v-88v0h-40
h-16v-16v0v-96v0v-16v0h16h40v-280v0v-8v0h16v0zM264 361h40h-40h40v-96v0h-40h-56v96v0h40h16zM424 -31v120v-120v120h40h16v16v0v96v0v16v0h-16h-40v248v0v8v0h-16v0v-8v0v-248v0h-40h-16v-16v0v-96v0v-16v0h16h40v-120v0v-8v0h16v0v8v0zM408 201h16h-16h56v-96v0h-40h-56
v96v0h40v0z" />
</svg>
