<?xml version="1.0" standalone="no"?>
<!DOCTYPE svg PUBLIC "-//W3C//DTD SVG 1.1//EN" "http://www.w3.org/Graphics/SVG/1.1/DTD/svg11.dtd" >
<svg xmlns="http://www.w3.org/2000/svg" xmlns:xlink="http://www.w3.org/1999/xlink" version="1.1" viewBox="-10 -40 468 512">
   <path fill="currentColor"
d="M432 -23v336v-336v336h-416v0v-336v0h416v0zM432 329v128v-128v128h-416v0v-128v0h416v0zM16 -39h-16h16h-16v16v0v480v0v16v0h16h432v-16v0v-480v0v-16v0h-16h-416zM224 409q-15 -1 -16 -16q1 -15 16 -16q15 1 16 16q-1 15 -16 16v0zM192 393q0 14 9 23v0v0q9 9 23 9
t23 -9t9 -23t-9 -23t-23 -9t-23 9t-9 23v0z" />
</svg>
