<?xml version="1.0" standalone="no"?>
<!DOCTYPE svg PUBLIC "-//W3C//DTD SVG 1.1//EN" "http://www.w3.org/Graphics/SVG/1.1/DTD/svg11.dtd" >
<svg xmlns="http://www.w3.org/2000/svg" xmlns:xlink="http://www.w3.org/1999/xlink" version="1.1" viewBox="-10 -40 532 512">
   <path fill="currentColor"
d="M16 9v416v-416v416h480v0v-416v0h-480v0zM0 -7h16h-16h512v16v0v416v0v16v0h-16h-496v-16v0v-416v0v-16v0zM112 73v32v-32v32h-32v0v-32v0h32v0zM176 73h32h-32h32v32v0h-32v0v-32v0zM304 73v32v-32v32h-32v0v-32v0h32v0z" />
</svg>
