<?xml version="1.0" standalone="no"?>
<!DOCTYPE svg PUBLIC "-//W3C//DTD SVG 1.1//EN" "http://www.w3.org/Graphics/SVG/1.1/DTD/svg11.dtd" >
<svg xmlns="http://www.w3.org/2000/svg" xmlns:xlink="http://www.w3.org/1999/xlink" version="1.1" viewBox="-10 -40 535 512">
   <path fill="currentColor"
d="M487 59l28 -39l-28 39l28 -39l-78 -56v0l-28 39v0l-264 363v0q-8 10 -21 11q-12 0 -20 -8q-7 -8 -7 -19q0 -6 2 -11l17 -39v0l19 -43v0l-87 -39v0l-20 44v0l-17 38v0q-10 23 -10 49q1 52 35 88q35 35 88 36q62 -2 99 -51l264 -363v0zM474 50l-54 74l54 -74l-54 74
l-54 -35v0l56 -77v0l19 -26v0l52 38v0l-19 26v0zM410 137l-200 276l200 -276l-200 276q-33 42 -86 44q-46 -1 -76 -32q-31 -30 -31 -76q0 -22 9 -42l17 -39v0l13 -29v0l58 26v0l-13 29v0l-17 39v0q-3 8 -3 17q0 18 12 30t31 13q21 -1 34 -18l199 -273v0l53 35v0zM432 329
q36 1 55 32q18 32 0 64q-19 31 -55 32q-36 -1 -55 -32q-18 -32 0 -64q19 -31 55 -32v0zM432 473q45 -1 69 -40q22 -40 0 -80q-24 -39 -69 -40q-45 1 -69 40q-22 40 0 80q24 39 69 40v0z" />
</svg>
