<?xml version="1.0" standalone="no"?>
<!DOCTYPE svg PUBLIC "-//W3C//DTD SVG 1.1//EN" "http://www.w3.org/Graphics/SVG/1.1/DTD/svg11.dtd" >
<svg xmlns="http://www.w3.org/2000/svg" xmlns:xlink="http://www.w3.org/1999/xlink" version="1.1" viewBox="-10 -40 531 512">
   <path fill="currentColor"
d="M497 -35l-187 375l187 -375l-187 375l-300 -81v0l-10 -3v0v11v0v70v0v16v0v48v0v16v0v48v0v8v0h8h253l2 -4v0l58 -116v0l190 -380v0l-14 -8v0zM16 417h64h-64h72v-16v0h-8h-64v-48v0h64h8v-16v0h-8h-64v-60v0l286 77v0l-51 103v0h-235v0v-40v0z" />
</svg>
