<?xml version="1.0" standalone="no"?>
<!DOCTYPE svg PUBLIC "-//W3C//DTD SVG 1.1//EN" "http://www.w3.org/Graphics/SVG/1.1/DTD/svg11.dtd" >
<svg xmlns="http://www.w3.org/2000/svg" xmlns:xlink="http://www.w3.org/1999/xlink" version="1.1" viewBox="-10 -40 660 512">
   <path fill="currentColor"
d="M106 66q-36 28 -56 69q-32 -11 -34 -46q1 -20 14 -34q14 -13 34 -14q28 1 42 25v0zM0 89q0 22 12 38v0v0q13 16 32 23q-12 31 -12 67q2 82 56 136t136 56q49 0 90 -22q40 -22 67 -59l155 81v0l93 -100v0l11 -12v0l-13 -10v0l-133 -105v0l-46 27v0l-32 -24v0l15 -54v0
l-78 -61v0q-57 -44 -129 -45q-59 1 -105 31q-18 -29 -55 -31q-27 1 -45 19t-19 45v0zM376 307l-8 12l8 -12l-8 12q-25 34 -62 54t-82 20q-75 -2 -124 -52q-50 -49 -52 -124q2 -75 52 -124q49 -50 124 -52q66 1 119 41l69 55v0l-11 44v0l-3 10v0l8 7v0l32 24v0l9 6v0l9 -5v0
l37 -22v0l124 98v0l-84 90v0l-145 -75v0l-12 -7v0zM176 217q1 -27 24 -42q24 -12 48 0q23 15 24 42q-1 27 -24 42q-24 12 -48 0q-23 -15 -24 -42v0zM288 217q-1 -36 -32 -55q-32 -18 -64 0q-31 19 -32 55q1 36 32 55q32 18 64 0q31 -19 32 -55v0z" />
</svg>
