<?xml version="1.0" standalone="no"?>
<!DOCTYPE svg PUBLIC "-//W3C//DTD SVG 1.1//EN" "http://www.w3.org/Graphics/SVG/1.1/DTD/svg11.dtd" >
<svg xmlns="http://www.w3.org/2000/svg" xmlns:xlink="http://www.w3.org/1999/xlink" version="1.1" viewBox="-10 -40 596 512">
   <path fill="currentColor"
d="M560 9v416v-416v416h-544v0v-416v0h544v0zM16 -7h-16h16h-16v16v0v416v0v16v0h16h560v-16v0v-416v0v-16v0h-16h-544zM80 89v256v-256v256h16v0v-256v0h-16v0zM144 89h-16h16h-16v256v0h16v0v-256v0zM176 89v256v-256v256h16v0v-256v0h-16v0zM256 89h-16h16h-16v256v0h16
v0v-256v0zM320 89v256v-256v256h16v0v-256v0h-16v0zM384 89h-16h16h-16v256v0h16v0v-256v0zM432 89v256v-256v256h16v0v-256v0h-16v0zM496 89h-16h16h-16v256v0h16v0v-256v0z" />
</svg>
