<?xml version="1.0" standalone="no"?>
<!DOCTYPE svg PUBLIC "-//W3C//DTD SVG 1.1//EN" "http://www.w3.org/Graphics/SVG/1.1/DTD/svg11.dtd" >
<svg xmlns="http://www.w3.org/2000/svg" xmlns:xlink="http://www.w3.org/1999/xlink" version="1.1" viewBox="-10 -40 404 512">
   <path fill="currentColor"
d="M0 281q0 -32 11 -62q53 -146 170 -248l11 -10v0l11 10v0q117 102 170 248q11 30 11 62q-2 81 -57 136q-54 54 -135 56q-81 -2 -135 -56q-55 -55 -57 -136v0zM191 -17q-113 100 -165 242q-10 27 -10 56q2 74 52 124t124 52q74 -2 124 -52t52 -124q0 -29 -10 -56
q-52 -142 -165 -242l-1 -1v0l-1 1v0zM203 125l18 16l-18 -16l18 16q48 42 74 101l1 3v0q8 17 8 36q-1 47 -33 79q-31 32 -79 33q-48 -1 -79 -33q-32 -32 -33 -79q0 -19 8 -36l1 -3v0q26 -59 74 -101l18 -16v0l11 -9v0l10 9h1zM174 153q-46 40 -71 96l-1 2v0q-6 14 -6 29
q1 41 28 69q27 27 68 28q41 -1 68 -28q27 -28 28 -69q0 -15 -6 -29l-1 -2v0q-25 -56 -71 -96l-18 -16v0l-18 16v0z" />
</svg>
