<?xml version="1.0" standalone="no"?>
<!DOCTYPE svg PUBLIC "-//W3C//DTD SVG 1.1//EN" "http://www.w3.org/Graphics/SVG/1.1/DTD/svg11.dtd" >
<svg xmlns="http://www.w3.org/2000/svg" xmlns:xlink="http://www.w3.org/1999/xlink" version="1.1" viewBox="-10 -40 660 512">
   <path fill="currentColor"
d="M336 -23v256v-256v256h-256v0v-256v0h256v0zM80 -39h-16h16h-16v16v0v256v0v16v0h16h272v-16v0v-256v0v-16v0h-16h-256zM560 41v192v-192v192h-160v0v-192v0h160v0zM400 25h-16h16h-16v16v0v192v0v16v0h16h176v-16v0v-192v0v-16v0h-16h-160zM544 297q34 1 57 23v0v0
q22 23 23 57q-1 34 -23 57q-23 22 -57 23h-448v0q-34 -1 -57 -23q-22 -23 -23 -57q1 -34 23 -57q23 -22 57 -23h448v0zM96 281q-41 1 -68 28v0v0q-27 27 -28 68q1 41 28 68t68 28h448v0q41 -1 68 -28t28 -68q-1 -41 -28 -68t-68 -28h-448v0zM112 345q14 0 23 9v0v0q9 9 9 23
t-9 23t-23 9t-23 -9t-9 -23t9 -23t23 -9v0zM112 425q27 -1 42 -24q12 -24 0 -48q-15 -23 -42 -24q-27 1 -42 24q-12 24 0 48q15 23 42 24v0zM288 377q0 -14 9 -23v0v0q9 -9 23 -9t23 9t9 23t-9 23t-23 9t-23 -9t-9 -23v0zM368 377q-1 -27 -24 -42q-24 -12 -48 0
q-23 15 -24 42q1 27 24 42q24 12 48 0q23 -15 24 -42v0zM528 345q14 0 23 9v0v0q9 9 9 23t-9 23t-23 9t-23 -9t-9 -23t9 -23t23 -9v0zM528 425q27 -1 42 -24q12 -24 0 -48q-15 -23 -42 -24q-27 1 -42 24q-12 24 0 48q15 23 42 24v0z" />
</svg>
