<?xml version="1.0" standalone="no"?>
<!DOCTYPE svg PUBLIC "-//W3C//DTD SVG 1.1//EN" "http://www.w3.org/Graphics/SVG/1.1/DTD/svg11.dtd" >
<svg xmlns="http://www.w3.org/2000/svg" xmlns:xlink="http://www.w3.org/1999/xlink" version="1.1" viewBox="-10 -40 598 512">
   <path fill="currentColor"
d="M0 -39h8h-8h120q6 0 8 6l119 379v0q2 -1 5 -1h4q36 2 55 31l255 -79v0l7 -2v0l5 15v0l-8 3v0l-253 78v0q3 8 3 18q-1 27 -19 45t-45 19q-27 -1 -45 -19t-19 -45q0 -20 11 -36t29 -23l-118 -373v0h-106h-8v-16v0zM304 409q-1 -27 -24 -42q-24 -12 -48 0q-23 15 -24 42
q1 27 24 42q24 12 48 0q23 -15 24 -42v0z" />
</svg>
