<?xml version="1.0" standalone="no"?>
<!DOCTYPE svg PUBLIC "-//W3C//DTD SVG 1.1//EN" "http://www.w3.org/Graphics/SVG/1.1/DTD/svg11.dtd" >
<svg xmlns="http://www.w3.org/2000/svg" xmlns:xlink="http://www.w3.org/1999/xlink" version="1.1" viewBox="-10 -40 404 512">
   <path fill="currentColor"
d="M16 457v-480v480v-480h192v0v152v0v8v0h8h152v320v0h-352v0zM224 -16l137 137l-137 -137l137 137h-137v0v-137v0zM224 -39h-208h208h-224v16v0v480v0v16v0h16h368v-16v0v-336v0l-160 -160v0zM160 169h-8h8h-8v8v0v64v0h-64h-8v8v0v64v0v8v0h8h64v64v0v8v0h8h72v-8v0v-64
v0h64h8v-8v0v-64v0v-8v0h-8h-64v-64v0v-8v0h-8h-64zM168 249v-64v64v-64h48v0v64v0v8v0h8h64v48v0h-64h-8v8v0v64v0h-48v0v-64v0v-8v0h-8h-64v-48v0h64h8v-8v0z" />
</svg>
