<?xml version="1.0" standalone="no"?>
<!DOCTYPE svg PUBLIC "-//W3C//DTD SVG 1.1//EN" "http://www.w3.org/Graphics/SVG/1.1/DTD/svg11.dtd" >
<svg xmlns="http://www.w3.org/2000/svg" xmlns:xlink="http://www.w3.org/1999/xlink" version="1.1" viewBox="-10 -40 596 512">
   <path fill="currentColor"
d="M112 9q41 1 68 28v0v0q27 27 28 68v112v0h-192v0v-112v0q1 -41 28 -68t68 -28v0zM16 329v-96v96v-96h192v0v96v0q-1 41 -28 68t-68 28q-41 -1 -68 -28t-28 -68v0zM0 105v224v-224v224q1 48 33 79q31 32 79 33q48 -1 79 -33q32 -31 33 -79v-224v0q-1 -48 -33 -79
q-31 -32 -79 -33q-48 1 -79 33q-32 31 -33 79v0zM416 425q-61 -2 -102 -42v0v0q-40 -41 -42 -102q1 -57 37 -96l203 203v0q-39 36 -96 37v0zM320 174q39 -36 96 -37q61 2 102 42q40 41 42 102q-1 57 -37 96l-203 -203v0zM416 441q43 0 80 -21v0v0q37 -22 59 -59
q21 -38 21 -80t-21 -80q-22 -37 -59 -59q-37 -21 -80 -21t-80 21q-37 22 -59 59q-21 38 -21 80t21 80q22 37 59 59q37 21 80 21v0z" />
</svg>
