<?xml version="1.0" standalone="no"?>
<!DOCTYPE svg PUBLIC "-//W3C//DTD SVG 1.1//EN" "http://www.w3.org/Graphics/SVG/1.1/DTD/svg11.dtd" >
<svg xmlns="http://www.w3.org/2000/svg" xmlns:xlink="http://www.w3.org/1999/xlink" version="1.1" viewBox="-10 -40 532 512">
   <path fill="currentColor"
d="M332 -39l5 6l-5 -6l5 6l21 20v0l128 128v0l20 21v0l6 6v0l-11 11v0l-6 -6v0l-15 -15v0l-98 99v0l-214 213v0q-29 28 -69 29q-42 -1 -70 -29t-29 -69q1 -41 29 -70l85 -86v0l227 -226v0l-15 -15v0l-6 -5v0l12 -12v0zM352 4l-213 213l213 -213l-213 213h234v0l96 -96v0
l-117 -117v0zM357 233h-234h234h-234l-83 83v0q-24 25 -24 59q1 35 24 58t59 24q34 0 58 -24l200 -200v0z" />
</svg>
