<?xml version="1.0" standalone="no"?>
<!DOCTYPE svg PUBLIC "-//W3C//DTD SVG 1.1//EN" "http://www.w3.org/Graphics/SVG/1.1/DTD/svg11.dtd" >
<svg xmlns="http://www.w3.org/2000/svg" xmlns:xlink="http://www.w3.org/1999/xlink" version="1.1" viewBox="-10 -40 660 512">
   <path fill="currentColor"
d="M320 -32l3 2l-3 -2l3 2l312 120v0l5 2v0v5v0v368v0v8v0h-16v0v-8v0v-362v0l-304 -117v0l-304 117v0v362v0v8v0h-16v0v-8v0v-368v0v-5v0l5 -2v0l312 -120v0l3 -2v0zM96 153h8h-8h448v8v0v304v0v8v0h-16v0v-8v0v-296v0h-416v0v296v0v8v0h-16v0v-8v0v-304v0v-8v0zM336 345
h16h-16h144v16v0v96v0v16v0h-16h-304v-16v0v-96v0v-16v0v-80v0v-16v0h16h160v16v0v64v0v16v0zM320 345v-16v16v-16v-64v0h-144v0v80v0h144v0zM320 361h-144h144h-144v96v0h144v0v-96v0zM336 457h128h-128h128v-96v0h-128v0v96v0z" />
</svg>
