<?xml version="1.0" standalone="no"?>
<!DOCTYPE svg PUBLIC "-//W3C//DTD SVG 1.1//EN" "http://www.w3.org/Graphics/SVG/1.1/DTD/svg11.dtd" >
<svg xmlns="http://www.w3.org/2000/svg" xmlns:xlink="http://www.w3.org/1999/xlink" version="1.1" viewBox="-10 -40 588 512">
   <path fill="currentColor"
d="M224 73l64 -85l-64 85l64 -85l64 85v0q16 21 16 48q-1 34 -23 57q-23 22 -57 23q-34 -1 -57 -23q-22 -23 -23 -57q0 -27 16 -48v0zM211 63q-19 26 -19 58q1 41 28 68t68 28q41 -1 68 -28t28 -68q0 -32 -19 -58l-67 -89v0l-10 -13v0l-10 13v0l-67 89v0zM152 281h-3h3h-3
l-2 2v0l-78 62v0h-61h-8v16v0h8h66l3 -2v0l77 -62v0h214v0v40v0h-120h-8v8v0v40v0v8v0h8h152l2 -1v0l116 -80v0l27 39v0l-153 106v0h-384h-8v16v0h8h388l2 -1v0l163 -112v0l7 -5v0l-5 -6v0l-36 -53v0l-5 -7v0l-6 5v0l-121 83v0h-139v0v-24v0h120h8v-8v0v-56v0v-8v0h-8h-224z
" />
</svg>
