<?xml version="1.0" standalone="no"?>
<!DOCTYPE svg PUBLIC "-//W3C//DTD SVG 1.1//EN" "http://www.w3.org/Graphics/SVG/1.1/DTD/svg11.dtd" >
<svg xmlns="http://www.w3.org/2000/svg" xmlns:xlink="http://www.w3.org/1999/xlink" version="1.1" viewBox="-10 -40 532 512">
   <path fill="currentColor"
d="M272 57q-69 2 -118 45v0v0q-48 44 -57 112q-44 26 -70 71t-27 100v48v0v8v0h16v0v-8v0v-48v0q0 -48 22 -87q21 -39 58 -65q2 75 52 125q49 49 124 51h1v0q67 -1 121 -40t85 -105q32 -65 33 -146q0 -64 -20 -118q-4 -11 -9 -21q-3 10 -9 20q-15 26 -40 42q-26 16 -58 16
h-88h-16v0v0zM288 73h88h-88h88q33 0 60 -15t45 -40q15 47 15 100q-1 78 -31 140t-81 98q-50 36 -111 37h-1v0v0v0q-68 -2 -113 -47t-47 -113q2 -68 47 -113t113 -47h16v0v0v0zM190 202q0 22 16 38l71 66v0l11 11v0l11 -11v0l71 -66v0q16 -16 16 -38t-15 -37
q-15 -14 -37 -15h-3v0q-22 1 -38 15l-5 5v0l-5 -5v0q-16 -14 -38 -15h-4v0q-22 1 -36 15q-15 15 -15 37v0zM277 182l11 10l-11 -10l11 10l11 -10v0l5 -5v0q12 -10 27 -11h4v0q15 1 25 11t10 25q0 16 -11 26l-71 67v0l-71 -67v0q-11 -11 -11 -26t10 -25t26 -11h3v0
q15 1 27 11l5 5v0z" />
</svg>
