<?xml version="1.0" standalone="no"?>
<!DOCTYPE svg PUBLIC "-//W3C//DTD SVG 1.1//EN" "http://www.w3.org/Graphics/SVG/1.1/DTD/svg11.dtd" >
<svg xmlns="http://www.w3.org/2000/svg" xmlns:xlink="http://www.w3.org/1999/xlink" version="1.1" viewBox="-10 -40 660 512">
   <path fill="currentColor"
d="M214 192l-59 -89l59 89l-59 -89l-10 -14v0h-17h-80v16v0v16v0v115v0q0 26 19 45l22 23v0l57 56v0l6 38v0l8 48v0l4 24v0l1 3v0h49h16l-2 -13v0l-1 -3v0l-3 -21v0l-8 -48v0l-8 -48v0l-2 -10v0l-7 -8v0l-55 -54v0v-36v0v-29v0l16 24v0l5 8v0l5 7v0l8 4v0l65 33v0l15 7v0
l2 -5v0h118v0l3 5v0l14 -8v0l66 -32v0l7 -4v0l5 -7v0l5 -8v0l16 -24v0v28v0v37v0l-54 54v0l-8 8v0l-1 10v0l-8 48v0l-8 48v0l-4 21v0v3v0l-2 13v0h16h48l1 -3v0l4 -24v0l8 -48v0l6 -38v0l57 -56v0l23 -23v0q18 -19 18 -45v-115v0v-16v0v-16v0h-16h-81l-9 14v0l-60 89v0l-8 4
v0v-99v0v-8v0h-8h-184v8v0v100v0l-10 -5v0zM240 205v-100v100v-100h160v0v99v0l-34 17v0l-14 7v0l7 15v0l11 22v0h-102v0l11 -22v0l7 -15v0l-14 -7v0l-32 -16v0zM265 236l-15 28l15 -28l-15 28l-65 -33v0l-4 -2v0l-2 -3v0l-22 -32v0l-29 -44v0v53v0v65v0v6v0l5 5v0l54 55v0
l4 3v0l1 5v0l8 48v0l8 48v0l3 19v0h-32v0l-3 -13v0l-8 -48v0l-6 -38v0l-1 -5v0l-3 -4v0l-57 -57v0l-23 -22v0q-14 -14 -14 -34v-115v0v-16v0h16h57l4 7v0l60 89v0l2 4v0l4 1v0l58 29v1zM128 -23q14 0 23 9v0v0q9 9 9 23t-9 23t-23 9t-23 -9t-9 -23t9 -23t23 -9v0zM176 9
q-1 -27 -24 -42q-24 -12 -48 0q-23 15 -24 42q1 27 24 42q24 12 48 0q23 -15 24 -42v0zM374 236l58 -29l-58 29l58 -29l3 -2v0l3 -4v0l59 -89v0l5 -7v0h8h64v16v0v115v0q0 19 -14 34l-22 22v0l-57 57v0l-4 4v0l-1 5v0l-6 38v0l-8 48v0l-2 13v0h-33v0l4 -19v0l8 -48v0l8 -48
v0v-5v0l4 -3v0l55 -55v0l4 -5v0v-6v0v-65v0v-53v0l-29 44v0l-21 32v0l-3 3v0l-4 2v0l-65 33v0l-15 -29zM510 -23q14 0 23 9v0v0q9 9 9 23t-9 23t-23 9q-13 0 -22 -9t-10 -23q1 -14 10 -23t22 -9v0zM462 9q1 27 24 42q24 12 48 0q23 -15 24 -42q-1 -27 -24 -42q-24 -12 -48 0
q-23 15 -24 42v0zM10 447l-4 10l4 -10l-4 10l-5 16v0h17h51l2 -6v0l33 -104v0l-13 -13v0l-34 107v0h-34v0l2 -5v0l40 -127v0l-12 -13v0l-43 135v0zM588 312l-12 13l12 -13l-12 13l40 127v0l2 5v0h-34v0l-34 -107v0l-13 13v0l33 104v0l2 6v0h51h17l-6 -16v0l-3 -10v0
l-43 -135v0z" />
</svg>
