<?xml version="1.0" standalone="no"?>
<!DOCTYPE svg PUBLIC "-//W3C//DTD SVG 1.1//EN" "http://www.w3.org/Graphics/SVG/1.1/DTD/svg11.dtd" >
<svg xmlns="http://www.w3.org/2000/svg" xmlns:xlink="http://www.w3.org/1999/xlink" version="1.1" viewBox="-10 -40 596 512">
   <path fill="currentColor"
d="M176 73q1 -41 28 -68v0v0q27 -27 68 -28q37 1 63 23q26 23 32 58l16 -2v0q-7 -41 -38 -68q-30 -26 -73 -27q-48 1 -79 33q-32 31 -33 79h16v0zM384 105l4 -5l-4 5l4 -5q23 -26 60 -27h28v0l-11 44v0l-3 10v0l8 7v0q31 23 46 57l4 10v0h11h29v128v0h-48h-8l-5 6v0
q-23 31 -57 46l-10 4v0v11v0v61v0h-96v0v-48v0h8h8v-16v0h-8h-120v16v0h8h8v48v0h-96v0v-80v0v-8v0l-6 -5v0q-27 -20 -42 -50q-16 -29 -16 -65q2 -61 42 -102q41 -40 102 -42h152h8zM256 425v-16v16v-16h16h48v16v0v32v0v16v0h16h112v-16v0v-61v0q39 -17 64 -51h48h16v-16v0
v-128v0v-16v0h-16h-29q-17 -39 -51 -64l12 -48v0l4 -16v0h-16h-32q-44 1 -72 32h-152v0q-64 1 -108 42q-44 40 -51 102h-13v0q-15 0 -25 -11q-11 -10 -11 -25t11 -25q10 -11 25 -11h4h8v-16v0h-8h-4q-22 1 -37 15q-14 15 -15 37q1 22 15 37q15 14 37 15h12v0q0 40 17 73
t47 55v80v0v16v0h16h112v-16v0v-32v0zM416 201q15 1 16 16q-1 15 -16 16q-15 -1 -16 -16q1 -15 16 -16v0zM416 249q14 0 23 -9v0v0q9 -9 9 -23t-9 -23t-23 -9t-23 9t-9 23t9 23t23 9v0z" />
</svg>
