<?xml version="1.0" standalone="no"?>
<!DOCTYPE svg PUBLIC "-//W3C//DTD SVG 1.1//EN" "http://www.w3.org/Graphics/SVG/1.1/DTD/svg11.dtd" >
<svg xmlns="http://www.w3.org/2000/svg" xmlns:xlink="http://www.w3.org/1999/xlink" version="1.1" viewBox="-10 -40 532 512">
   <path fill="currentColor"
d="M483 102q-14 26 -32 49q-18 24 -32 39q-2 2 -3 4q-1 -2 -3 -4q-14 -15 -32 -39q-18 -23 -32 -49q-13 -26 -13 -45q1 -34 23 -57q23 -22 57 -23q34 1 57 23q22 23 23 57q0 19 -13 45v0zM427 205q13 -14 33 -39v0v0q20 -25 36 -54v0v0q15 -29 16 -55q-1 -41 -28 -68
t-68 -28q-41 1 -68 28t-28 68q3 38 30 79q28 41 51 65h-137h-8v8v0v128v0v8v0h8h232v112v0h-336v0q-7 1 -8 8q1 7 8 8h344h8v-8v0v-128v0v-8v0h-8h-232v-112v0h144v0l11 -12v0zM163 358q-14 25 -32 49t-32 39q-2 2 -3 4q-1 -2 -3 -4q-14 -15 -32 -39q-18 -23 -32 -49
q-13 -26 -13 -45q1 -34 23 -57q23 -22 57 -23q34 1 57 23q22 23 23 57q0 19 -13 45v0zM107 461q13 -14 33 -39v0v0q20 -25 36 -54v0v0q15 -29 16 -55q-1 -41 -28 -68t-68 -28q-41 1 -68 28t-28 68q1 26 16 55q16 29 36 54t33 39l11 12l11 -12v0zM416 41q15 1 16 16
q-1 15 -16 16q-15 -1 -16 -16q1 -15 16 -16v0zM416 89q14 0 23 -9v0v0q9 -9 9 -23t-9 -23t-23 -9t-23 9t-9 23t9 23t23 9v0zM80 313q1 -15 16 -16q15 1 16 16q-1 15 -16 16q-15 -1 -16 -16v0zM128 313q0 -14 -9 -23v0v0q-9 -9 -23 -9t-23 9t-9 23t9 23t23 9t23 -9t9 -23v0z
" />
</svg>
