<?xml version="1.0" standalone="no"?>
<!DOCTYPE svg PUBLIC "-//W3C//DTD SVG 1.1//EN" "http://www.w3.org/Graphics/SVG/1.1/DTD/svg11.dtd" >
<svg xmlns="http://www.w3.org/2000/svg" xmlns:xlink="http://www.w3.org/1999/xlink" version="1.1" viewBox="-10 -40 660 512">
   <path fill="currentColor"
d="M448 9v336v-336v336h-146v0q-6 -28 -27 -46q-21 -17 -51 -18q-24 0 -43 13q-19 12 -29 32q-10 -20 -29 -32q-19 -13 -43 -13q-41 1 -64 32v-48v0v-256v0h432v0zM152 396q10 20 29 32v0v0q19 13 43 13q34 -1 57 -23q22 -23 23 -57h144v0q1 34 23 57q23 22 57 23
q32 -1 54 -21t26 -51h32v0v-8v0v-8v0v-160v0v-3v0l-2 -2v0l-72 -96v0l-2 -3v0h-4h-96v-80v0v-16v0h-16h-448v16v0v256v0v80v0v16v0q1 34 23 57q23 22 57 23q24 0 43 -13q19 -12 29 -32v0zM624 201v152v-152v152h-16v0q-4 -31 -26 -51t-54 -21q-41 1 -64 32v-112v0h160v0z
M556 105l60 80l-60 -80l60 80h-152v0v-80v0h92v0zM528 297q36 1 55 32q18 32 0 64q-19 31 -55 32q-36 -1 -55 -32q-18 -32 0 -64q19 -31 55 -32v0zM160 361q1 -36 32 -55q32 -18 64 0q31 19 32 55q-1 36 -32 55q-32 18 -64 0q-31 -19 -32 -55v0zM80 297q36 1 55 32
q18 32 0 64q-19 31 -55 32q-36 -1 -55 -32q-18 -32 0 -64q19 -31 55 -32v0z" />
</svg>
