<?xml version="1.0" standalone="no"?>
<!DOCTYPE svg PUBLIC "-//W3C//DTD SVG 1.1//EN" "http://www.w3.org/Graphics/SVG/1.1/DTD/svg11.dtd" >
<svg xmlns="http://www.w3.org/2000/svg" xmlns:xlink="http://www.w3.org/1999/xlink" version="1.1" viewBox="-10 -40 468 512">
   <path fill="currentColor"
d="M224 -23q43 0 80 21v0v0q37 22 59 59q21 38 21 80t-21 80q-22 37 -59 59q-37 21 -80 21t-80 -21q-37 -22 -59 -59q-21 -38 -21 -80t21 -80q22 -37 59 -59q37 -21 80 -21v0zM224 313q48 0 88 -24v0v0q40 -23 64 -64q24 -42 24 -88t-24 -88q-24 -41 -64 -64
q-40 -24 -88 -24t-88 24q-40 23 -64 64q-24 42 -24 88t24 88q24 41 64 64q40 24 88 24v0zM184 105h-16h16h-16v8v0v16v0h-16h-8v16v0h8h16v16v0v8v0h16v0v-8v0v-16v0h16h8v-16v0h-8h-16v-16v0v-8v0zM16 73v128v-128v128h16v0v-128v0h-16v0zM416 73v128v-128v128h16v0v-128v0
h-16v0zM60 265h-12h12h-12l-44 192v0l-4 16v0h16h432l-4 -16v0l-44 -192v0h-12v0l-14 16h13v0l41 176v0h-76v0v-80v0v-8v0h-8h-248v8v0v80v0h-76v0l41 -176v0h13v0l-14 -16v0zM112 457v-72v72v-72h224v0v72v0h-56v0v-32v0v-8v0h-16v0v8v0v32v0h-80v0v-32v0v-8v0h-16v0v8v0
v32v0h-56v0zM240 233h-32h32h-32q-41 -1 -68 -28t-28 -68v-25v0l39 -39v0h146v0l39 39v0v25v0q-1 41 -28 68t-68 28v0zM144 57l-48 48l48 -48l-48 48v32v0q1 48 33 79q31 32 79 33h32v0q48 -1 79 -33q32 -31 33 -79v-32v0l-48 -48v0h-160v0z" />
</svg>
