<?xml version="1.0" standalone="no"?>
<!DOCTYPE svg PUBLIC "-//W3C//DTD SVG 1.1//EN" "http://www.w3.org/Graphics/SVG/1.1/DTD/svg11.dtd" >
<svg xmlns="http://www.w3.org/2000/svg" xmlns:xlink="http://www.w3.org/1999/xlink" version="1.1" viewBox="-10 -40 655 512">
   <path fill="currentColor"
d="M224 -23q30 0 56 15v0v0q26 15 41 41t15 56t-15 56t-41 41t-56 15t-56 -15t-41 -41t-15 -56t15 -56t41 -41t56 -15v0zM224 217q35 0 64 -17v0v0q29 -17 47 -47q17 -30 17 -64t-17 -64q-18 -30 -47 -47t-64 -17t-64 17t-47 47q-17 30 -17 64t17 64q18 30 47 47t64 17v0z
M76 281h296h-296h296l54 176v0h-404v0l54 -176v0zM384 265h-320h320h-320l-59 192v0l-5 16v0h17h431l-5 -16v0l-59 -192v0zM630 111l5 -6l-5 6l5 -6l-11 -11v0l-6 5v0l-122 123v0l-58 -59v0l-6 -5v0l-11 11v0l5 6v0l64 64v0l6 5v0l6 -5v0l128 -128v0z" />
</svg>
