<?xml version="1.0" standalone="no"?>
<!DOCTYPE svg PUBLIC "-//W3C//DTD SVG 1.1//EN" "http://www.w3.org/Graphics/SVG/1.1/DTD/svg11.dtd" >
<svg xmlns="http://www.w3.org/2000/svg" xmlns:xlink="http://www.w3.org/1999/xlink" version="1.1" viewBox="-10 -40 659 512">
   <path fill="currentColor"
d="M144 105q36 -1 55 -32q18 -32 0 -64q-19 -31 -55 -32q-36 1 -55 32q-18 32 0 64q19 31 55 32v0zM144 -39q45 1 69 40q22 40 0 80q-24 39 -69 40q-45 -1 -69 -40q-22 -40 0 -80q24 -39 69 -40v0zM400 185q-1 -45 -40 -69q-40 -22 -80 0q-39 24 -40 69q1 45 40 69
q40 22 80 0q39 -24 40 -69v0zM224 185q0 -26 13 -48v0v0q13 -22 35 -35q23 -13 48 -13t48 13q22 13 35 35t13 48t-13 48t-35 35q-23 13 -48 13t-48 -13q-22 -13 -35 -35t-13 -48v0zM150 457h242h-242h242l9 16v0h-256h-17l5 -16v0l43 -144v0h171v0l-6 7v0l15 9v0h-168v0
l-38 128v0zM614 212l-14 8l14 -8l-14 8l-19 -51v0h-134v0q-1 -8 -3 -16h148v0l22 59v0zM48 153h148h-148h148q-2 8 -3 16h-134v0l-36 96v0h-17v0l42 -112v0zM512 105q36 -1 55 -32q18 -32 0 -64q-19 -31 -55 -32q-36 1 -55 32q-18 32 0 64q19 31 55 32v0zM512 -39
q45 1 69 40q22 40 0 80q-24 39 -69 40q-45 -1 -69 -40q-22 -40 0 -80q24 -39 69 -40v0zM480 217h8h-8h64v8v0v30v0q16 6 30 17l26 -15v0l7 -4v0l4 7v0l24 42v0l4 7v0l-7 4v0l-26 15v0q2 8 2 17t-2 18l26 14v0l7 4v0l-4 7v0l-24 42v0l-4 7v0l-7 -4v0l-26 -15v0q-13 11 -30 17
v30v0v8v0h-8h-56v-8v0v-30v0q-16 -6 -30 -17l-26 15v0l-7 4v0l-4 -7v0l-24 -42v0l-4 -7v0l7 -4v0l26 -14v0q-2 -9 -2 -18t2 -17l-26 -15v0l-7 -4v0l4 -7v0l24 -42v0l4 -7v0l7 4v0l26 15v0q13 -11 30 -17v-30v0v-8v0zM496 233v27v-27v27v6v0l-5 2v0q-20 6 -35 20l-4 4v0
l-5 -3v0l-24 -14v0l-16 28v0l24 13v0l4 3v0l-1 6v0q-2 10 -2 20t2 20l1 6v0l-4 3v0l-24 13v0l16 28v0l24 -14v0l4 -3v0l5 4v0q15 14 35 20l5 2v0v6v0v27v0h32v0v-27v0v-6v0l5 -2v0q20 -6 35 -20l5 -4v0l5 3v0l23 14v0l16 -28v0l-23 -13v0l-5 -3v0l1 -6v0q2 -10 2 -20t-2 -20
l-1 -6v0l5 -3v0l23 -13v0l-16 -28v0l-23 14v0l-5 3v0l-5 -4v0q-15 -14 -35 -20l-5 -2v0v-6v0v-27v0h-32v0zM512 369q22 -2 24 -24q-2 -22 -24 -24q-22 2 -24 24q2 22 24 24v0zM512 305q23 1 35 20q10 20 0 40q-12 19 -35 20q-23 -1 -35 -20q-10 -20 0 -40q12 -19 35 -20v0z
" />
</svg>
