<?xml version="1.0" standalone="no"?>
<!DOCTYPE svg PUBLIC "-//W3C//DTD SVG 1.1//EN" "http://www.w3.org/Graphics/SVG/1.1/DTD/svg11.dtd" >
<svg xmlns="http://www.w3.org/2000/svg" xmlns:xlink="http://www.w3.org/1999/xlink" version="1.1" viewBox="-10 -40 532 512">
   <path fill="currentColor"
d="M144 41q0 11 12 22q6 5 14 11q-13 0 -25 1v0v0q-16 -14 -17 -34q1 -19 17 -34q16 -14 42 -24q54 -21 133 -22q79 1 133 22q26 10 42 24t17 34v104v0v106v0q-1 19 -17 33t-42 24q-17 6 -37 11v-16v0q17 -5 31 -10q24 -9 37 -21q12 -11 12 -21v-74v0l-1 1v0q-16 14 -42 24
q-17 6 -37 11v-16v0q17 -4 31 -10q24 -9 37 -21q12 -11 12 -21v-71v0v0l-1 1q-16 14 -42 25q-31 11 -72 17q-10 -7 -23 -13q53 -5 89 -19q24 -10 37 -22q12 -11 12 -22t-12 -22q-13 -12 -37 -21q-50 -20 -127 -21q-77 1 -127 21q-24 9 -37 21q-12 11 -12 22v0zM16 185
q0 11 12 22q12 12 37 22q50 19 127 20q77 -1 127 -20q25 -10 37 -22q12 -11 12 -22t-12 -22q-13 -12 -37 -21q-50 -20 -127 -21q-77 1 -127 21q-24 9 -37 21q-12 11 -12 22v0zM0 185q1 -19 17 -34q16 -14 42 -24q54 -21 133 -22q79 1 133 22q26 10 42 24q16 15 17 34v104v0
v106v0q-1 19 -17 33t-42 24q-54 20 -133 21q-79 -1 -133 -21q-26 -10 -42 -24t-17 -33v-106v0v-104v0zM368 218v0v0v0l-1 1q-16 14 -42 24q-54 21 -133 22q-79 -1 -133 -22q-26 -10 -42 -24v0l-1 -1v71v0q0 10 12 21q12 12 37 21q50 19 127 20q77 -1 127 -20q25 -9 37 -21
q12 -11 12 -21v-71v0zM17 322v0v0v0l-1 -1v74v0q0 10 12 21q12 12 37 21q50 19 127 20q77 -1 127 -20q25 -9 37 -21q12 -11 12 -21v-74v0l-1 1v0q-16 14 -42 24q-54 20 -133 21q-79 -1 -133 -21q-26 -10 -42 -24v0z" />
</svg>
