<?xml version="1.0" standalone="no"?>
<!DOCTYPE svg PUBLIC "-//W3C//DTD SVG 1.1//EN" "http://www.w3.org/Graphics/SVG/1.1/DTD/svg11.dtd" >
<svg xmlns="http://www.w3.org/2000/svg" xmlns:xlink="http://www.w3.org/1999/xlink" version="1.1" viewBox="-10 -40 660 512">
   <path fill="currentColor"
d="M0 185l11 11l-11 -11l11 11l202 202v0l11 11v0l11 -11v0l202 -202v0l11 -11v0l-11 -11v0l-202 -202v0l-11 -11v0l-11 11v0l-202 202v0l-11 11v0zM224 386l-201 -201l201 201l-201 -201l201 -201v0l201 201v0l-201 201v0zM320 358v99v-99v99v16v0h16h304v-16v0v-288v0v-16
v0h-16h-163l10 9v0l6 7v0h147v0v288v0h-288v0v-115v0l-16 16v0zM192 81q0 14 9 23v0v0q9 9 23 9t23 -9t9 -23t-9 -23t-23 -9t-23 9t-9 23v0zM120 201q-15 -1 -16 -16q1 -15 16 -16q15 1 16 16q-1 15 -16 16v0zM224 65q15 1 16 16q-1 15 -16 16q-15 -1 -16 -16q1 -15 16 -16
v0zM88 185q0 14 9 23v0v0q9 9 23 9t23 -9t9 -23t-9 -23t-23 -9t-23 9t-9 23v0zM192 185q0 14 9 23v0v0q9 9 23 9t23 -9t9 -23t-9 -23t-23 -9t-23 9t-9 23v0zM192 289q0 14 9 23v0v0q9 9 23 9t23 -9t9 -23t-9 -23t-23 -9t-23 9t-9 23v0zM224 201q-15 -1 -16 -16q1 -15 16 -16
q15 1 16 16q-1 15 -16 16v0zM328 201q-15 -1 -16 -16q1 -15 16 -16q15 1 16 16q-1 15 -16 16v0zM224 273q15 1 16 16q-1 15 -16 16q-15 -1 -16 -16q1 -15 16 -16v0zM296 185q0 14 9 23v0v0q9 9 23 9t23 -9t9 -23t-9 -23t-23 -9t-23 9t-9 23v0zM496 313q-1 15 -16 16
q-15 -1 -16 -16q1 -15 16 -16q15 1 16 16v0zM480 281q-14 0 -23 9v0v0q-9 9 -9 23t9 23t23 9t23 -9t9 -23t-9 -23t-23 -9v0z" />
</svg>
