<?xml version="1.0" standalone="no"?>
<!DOCTYPE svg PUBLIC "-//W3C//DTD SVG 1.1//EN" "http://www.w3.org/Graphics/SVG/1.1/DTD/svg11.dtd" >
<svg xmlns="http://www.w3.org/2000/svg" xmlns:xlink="http://www.w3.org/1999/xlink" version="1.1" viewBox="-10 -40 596 512">
   <path fill="currentColor"
d="M16 403v-357v357v-357q70 26 139 18t135 -27v0h2v0q70 -20 137 -27q66 -7 131 21v357v0q-70 -26 -139 -18t-135 27v0h-2v0q-70 20 -137 27q-66 7 -131 -21v0zM16 29l-16 -8v18v0v374v0q72 34 144 27t144 -27v0q68 -20 136 -27q68 -8 136 19l16 8v-18v0v-374v0
q-72 -34 -144 -27t-144 27v0q-68 20 -136 27q-68 8 -136 -19v0zM384 217q-1 -46 -27 -78v0v0q-27 -33 -69 -34q-42 1 -69 34q-26 32 -27 78q1 46 27 78q27 33 69 34q42 -1 69 -34q26 -32 27 -78v0zM288 313q-34 -1 -57 -28v0v0q-22 -27 -23 -68q1 -41 23 -68q23 -27 57 -28
q34 1 57 28q22 27 23 68q-1 41 -23 68q-23 27 -57 28v0zM536 121h8h-8h8v-16v0h-8h-8q-24 -1 -40 -16q-15 -16 -16 -40v-8v0v-8v0h-16v0v8v0v8v0q1 31 21 51t51 21h8v0zM32 177h8h-8h16q31 -1 51 -21t21 -51v-8v0v-8v0h-16v0v8v0v8v0q-1 24 -16 40q-16 15 -40 16h-8h-8v16v0
zM536 257h-8h8h-8q-31 1 -51 21t-21 51v8v0v8v0h16v0v-8v0v-8v0q1 -24 16 -40q16 -15 40 -16h8h8v-16v0h-8v0zM32 321q1 7 8 8h8v0q24 1 40 16q15 16 16 40v8v0q1 7 8 8q7 -1 8 -8v-8v0q-1 -31 -21 -51t-51 -21h-8v0q-7 1 -8 8v0zM272 161h-8h8h-8v16v0h8h8v80v0h-16h-8v16
v0h8h56v-16v0h-8h-16v-88v0v-8v0h-8h-16z" />
</svg>
