<?xml version="1.0" standalone="no"?>
<!DOCTYPE svg PUBLIC "-//W3C//DTD SVG 1.1//EN" "http://www.w3.org/Graphics/SVG/1.1/DTD/svg11.dtd" >
<svg xmlns="http://www.w3.org/2000/svg" xmlns:xlink="http://www.w3.org/1999/xlink" version="1.1" viewBox="-10 -40 596 512">
   <path fill="currentColor"
d="M176 9v160v-160v160h-160v0v-160v0h160v0zM16 -7h-16h16h-16v16v0v160v0v16v0h16h164l44 74v0v6v0v160v0v16v0h16h176v-16v0v-160v0v-16v0h-16h-163l-45 -74v0v-6v0v-72v0h192v0v72v0v16v0h16h176v-16v0v-160v0v-16v0h-16h-176v16v0v72v0h-192v0v-72v0v-16v0h-16h-160z
M400 265v160v-160v160h-160v0v-160v0h160v0zM400 9h160h-160h160v160v0h-160v0v-160v0z" />
</svg>
