<?xml version="1.0" standalone="no"?>
<!DOCTYPE svg PUBLIC "-//W3C//DTD SVG 1.1//EN" "http://www.w3.org/Graphics/SVG/1.1/DTD/svg11.dtd" >
<svg xmlns="http://www.w3.org/2000/svg" xmlns:xlink="http://www.w3.org/1999/xlink" version="1.1" viewBox="-10 -40 660 512">
   <path fill="currentColor"
d="M328 -39v8v-8v8v88v0h200h16v16v0v384v0v16v0h-16h-432v-16v0v-384v0v-16v0h16h200v-88v0v-8v0h16v0zM112 73v384v-384v384h416v0v-384v0h-200h-216zM200 361h48h-48h56v16v0h-8h-56v-16v0h8v0zM296 361h48h-48h56v16v0h-8h-56v-16v0h8v0zM392 361h48h-48h56v16v0h-8h-56
v-16v0h8v0zM224 177q-23 1 -35 20q-10 20 0 40q12 19 35 20q23 -1 35 -20q10 -20 0 -40q-12 -19 -35 -20v0zM280 217q-1 32 -28 48q-28 16 -56 0q-27 -16 -28 -48q1 -32 28 -48q28 -16 56 0q27 16 28 48v0zM376 217q1 23 20 35q20 10 40 0q19 -12 20 -35q-1 -23 -20 -35
q-20 -10 -40 0q-19 12 -20 35v0zM416 273q-32 -1 -48 -28q-16 -28 0 -56q16 -27 48 -28q32 1 48 28q16 28 0 56q-16 27 -48 28v0zM16 185h48h-48h48v16v0h-48v0v160v0h48v0v16v0h-48h-16v-16v0v-160v0v-16v0h16v0zM624 361v-160v160v-160h-48v0v-16v0h48h16v16v0v160v0v16v0
h-16h-48v-16v0h48v0z" />
</svg>
