<?xml version="1.0" standalone="no"?>
<!DOCTYPE svg PUBLIC "-//W3C//DTD SVG 1.1//EN" "http://www.w3.org/Graphics/SVG/1.1/DTD/svg11.dtd" >
<svg xmlns="http://www.w3.org/2000/svg" xmlns:xlink="http://www.w3.org/1999/xlink" version="1.1" viewBox="-10 -40 532 512">
   <path fill="currentColor"
d="M501 110l11 11l-11 -11l11 11l-11 11v0l-330 330v0l-11 11v0l-11 -11v0l-138 -138v0l-11 -11v0l11 -11v0l330 -330v0l11 -11v0l11 11v0l138 138v0zM489 121l-137 -137l137 137l-137 -137l-63 63v0l53 52v0l5 6v0l-11 11v0l-6 -5v0l-52 -53v0l-53 53v0l53 52v0l5 6v0
l-11 11v0l-6 -5v0l-52 -53v0l-53 53v0l53 52v0l5 6v0l-11 11v0l-6 -5v0l-52 -53v0l-53 53v0l53 52v0l5 6v0l-11 11v0l-6 -5v0l-52 -53v0l-63 63v0l137 137v0l329 -329v0z" />
</svg>
