<?xml version="1.0" standalone="no"?>
<!DOCTYPE svg PUBLIC "-//W3C//DTD SVG 1.1//EN" "http://www.w3.org/Graphics/SVG/1.1/DTD/svg11.dtd" >
<svg xmlns="http://www.w3.org/2000/svg" xmlns:xlink="http://www.w3.org/1999/xlink" version="1.1" viewBox="-10 -40 276 512">
   <path fill="currentColor"
d="M240 -23h-224h224h-224v480v0h224v0v-88v0h-80h-8v-16v0h8h80v-80v0h-80h-8v-16v0h8h80v-80v0h-80h-8v-16v0h8h80v-80v0h-80h-8v-16v0h8h80v-88v0zM256 353v16v-16v16v88v0v16v0h-16h-240v-16v0v-480v0v-16v0h16h240v16v0v88v0v16v0v80v0v16v0v80v0v16v0v80v0z" />
</svg>
