<?xml version="1.0" standalone="no"?>
<!DOCTYPE svg PUBLIC "-//W3C//DTD SVG 1.1//EN" "http://www.w3.org/Graphics/SVG/1.1/DTD/svg11.dtd" >
<svg xmlns="http://www.w3.org/2000/svg" xmlns:xlink="http://www.w3.org/1999/xlink" version="1.1" viewBox="-10 -40 532 512">
   <path fill="currentColor"
d="M256 -23q-65 1 -120 32v0v0q-55 32 -88 88q-32 57 -32 120t32 120q33 56 88 88q55 31 120 32q65 -1 120 -32q55 -32 88 -88q32 -57 32 -120t-32 -120q-33 -56 -88 -88q-55 -31 -120 -32v0zM0 217q1 -70 34 -128v0v0q34 -58 94 -94q61 -34 128 -34t128 34q60 36 94 94
q33 58 34 128q-1 70 -34 128q-34 58 -94 94q-61 34 -128 34t-128 -34q-60 -36 -94 -94q-33 -58 -34 -128v0zM132 81l56 57l-56 -57l56 57l57 -57v0l-34 -34v0l-6 -5v0l11 -12v0l6 6v0l34 34v0l34 -34v0l6 -6v0l11 12v0l-6 5v0l-34 34v0l57 57v0l57 -57v0l5 -5v0l12 11v0
l-6 6v0l-57 56v0l57 57v0l34 -34v0l5 -6v0l12 11v0l-6 6v0l-34 34v0l34 34v0l6 6v0l-12 11v0l-5 -6v0l-34 -34v0l-57 57v0l57 57v0l6 5v0l-12 12v0l-5 -6v0l-57 -57v0l-57 57v0l34 34v0l6 5v0l-11 12v0l-6 -6v0l-34 -34v0l-34 34v0l-6 6v0l-11 -12v0l6 -5v0l34 -34v0
l-57 -57v0l-56 57v0l-6 6v0l-11 -12v0l5 -5v0l57 -57v0l-57 -57v0l-34 34v0l-5 6v0l-12 -11v0l6 -6v0l34 -34v0l-34 -34v0l-6 -6v0l12 -11v0l5 6v0l34 34v0l57 -57v0l-57 -56v0l-5 -6v0l11 -11v0l6 5v0zM132 217l56 57l-56 -57l56 57l57 -57v0l-57 -57v0l-56 57v0zM199 285
l57 57l-57 -57l57 57l57 -57v0l-57 -57v0l-57 57v0zM380 217l-56 -57l56 57l-56 -57l-57 57v0l57 57v0l57 -57h-1zM256 206l57 -57l-57 57l57 -57l-57 -56v0l-57 56v0l57 57v0z" />
</svg>
