<?xml version="1.0" standalone="no"?>
<!DOCTYPE svg PUBLIC "-//W3C//DTD SVG 1.1//EN" "http://www.w3.org/Graphics/SVG/1.1/DTD/svg11.dtd" >
<svg xmlns="http://www.w3.org/2000/svg" xmlns:xlink="http://www.w3.org/1999/xlink" version="1.1" viewBox="-10 -40 532 512">
   <path fill="currentColor"
d="M496 217q-1 -65 -32 -120v0v0q-32 -55 -88 -88q-57 -32 -120 -32t-120 32q-56 33 -88 88q-31 55 -32 120q1 65 32 120q32 55 88 88q57 32 120 32t120 -32q56 -33 88 -88q31 -55 32 -120v0zM0 217q1 -70 34 -128v0v0q34 -58 94 -94q61 -34 128 -34t128 34q60 36 94 94
q33 58 34 128q-1 70 -34 128q-34 58 -94 94q-61 34 -128 34t-128 -34q-60 -36 -94 -94q-33 -58 -34 -128v0zM200 313q1 32 28 48q28 16 56 0q27 -16 28 -48q-1 -32 -28 -48q-28 -16 -56 0q-27 16 -28 48v0zM256 385q-41 -1 -62 -36q-20 -36 0 -72q21 -35 62 -36q41 1 62 36
q20 36 0 72q-21 35 -62 36v0zM149 153l-43 -42l43 42l-43 -42l12 -12v0l42 43v0l42 -43v0l12 12v0l-43 42v0l43 42v0l-12 12v0l-42 -43v0l-42 43v0l-12 -12v0l43 -42v0zM341 153l-43 -42l43 42l-43 -42l12 -12v0l42 43v0l42 -43v0l12 12v0l-43 42v0l43 42v0l-12 12v0
l-42 -43v0l-42 43v0l-12 -12v0l43 -42v0z" />
</svg>
