<?xml version="1.0" standalone="no"?>
<!DOCTYPE svg PUBLIC "-//W3C//DTD SVG 1.1//EN" "http://www.w3.org/Graphics/SVG/1.1/DTD/svg11.dtd" >
<svg xmlns="http://www.w3.org/2000/svg" xmlns:xlink="http://www.w3.org/1999/xlink" version="1.1" viewBox="-10 -40 532 512">
   <path fill="currentColor"
d="M508 8l-101 65l101 -65l-101 65q48 13 76 36q28 24 29 60v160v0q-3 49 -75 80q-9 4 -18 7q-68 24 -163 25q-95 -1 -163 -25q-9 -3 -18 -7q-72 -31 -75 -80v-160v0q3 -59 75 -86q72 -26 181 -26q72 0 129 11l115 -74v0l8 14v0zM16 209v120v-120v120q-1 34 65 65q2 1 3 1
l4 2v-143v0q-49 -18 -72 -45v0zM104 260v143v-143v143q61 20 144 22v-144v0q-82 -2 -144 -21v0zM264 281v144v-144v144q83 -2 144 -22v-143v0q-62 19 -144 21v0zM424 254v143v-143v143q3 -1 7 -3q66 -31 65 -65v-120v0q-23 27 -72 45v0zM496 169q0 -45 -65 -71
q-19 -8 -43 -13l-152 99v0l-6 4v0l-9 -13v0l7 -5v0l138 -89v0q-50 -8 -110 -8q-107 0 -175 25q-65 26 -65 71q-1 34 65 65q69 30 175 31q106 -1 175 -31q66 -31 65 -65v0z" />
</svg>
