<?xml version="1.0" standalone="no"?>
<!DOCTYPE svg PUBLIC "-//W3C//DTD SVG 1.1//EN" "http://www.w3.org/Graphics/SVG/1.1/DTD/svg11.dtd" >
<svg xmlns="http://www.w3.org/2000/svg" xmlns:xlink="http://www.w3.org/1999/xlink" version="1.1" viewBox="-10 -40 532 512">
   <path fill="currentColor"
d="M87 313q-12 -38 -3 -95v0v0q10 -56 65 -114q32 -32 81 -55q48 -23 102 -38q46 -13 88 -21t74 -11q-3 32 -11 74t-21 88q-6 22 -14 44h-149v0l52 -51v0l5 -6v0l-11 -11v0l-6 6v0l-229 229v0q-17 -18 -23 -39v0zM110 374q20 20 46 28q42 13 102 2q61 -10 122 -68
q43 -45 70 -111t42 -134q14 -67 19 -114q0 -8 1 -16q-7 1 -16 2q-47 4 -115 18q-67 15 -133 42t-111 70q-58 61 -68 122q-11 60 2 102q8 26 28 46l-93 93v0l-6 6v0l12 11v0l5 -6v0l93 -93v0zM121 363l66 -66l-66 66l66 -66h205v0q-11 15 -23 27q-58 55 -114 65q-57 9 -95 -3
q-21 -6 -39 -23v0zM403 281h-200h200h-200l80 -80v0h159v0q-16 44 -39 80v0z" />
</svg>
