<?xml version="1.0" standalone="no"?>
<!DOCTYPE svg PUBLIC "-//W3C//DTD SVG 1.1//EN" "http://www.w3.org/Graphics/SVG/1.1/DTD/svg11.dtd" >
<svg xmlns="http://www.w3.org/2000/svg" xmlns:xlink="http://www.w3.org/1999/xlink" version="1.1" viewBox="-10 -40 532 512">
   <path fill="currentColor"
d="M11 244l-11 -11l11 11l-11 -11l11 -11v0l135 -135v0l-104 -104v0l-5 -6v0l11 -11v0l6 5v0l104 104v0l103 -103v0l11 -11v0l11 11v0l218 218v0l11 11v0l-11 11v0l-250 250v0l-11 11v0l-11 -11v0l-197 -197v0v0v0v0v0l-21 -21v0zM55 265l185 185l-185 -185l185 185
l185 -185v0h-370v0zM441 249l48 -48l-48 48l48 -48l-217 -217v0l-103 103v0l85 84v0l5 6v0l-11 11v0l-6 -5v0l-84 -85v0l-135 135v0l16 16v0h402v0z" />
</svg>
