<?xml version="1.0" standalone="no"?>
<!DOCTYPE svg PUBLIC "-//W3C//DTD SVG 1.1//EN" "http://www.w3.org/Graphics/SVG/1.1/DTD/svg11.dtd" >
<svg xmlns="http://www.w3.org/2000/svg" xmlns:xlink="http://www.w3.org/1999/xlink" version="1.1" viewBox="-10 -40 532 512">
   <path fill="currentColor"
d="M496 217q-1 -65 -32 -120v0v0q-32 -55 -88 -88q-57 -32 -120 -32t-120 32q-56 33 -88 88q-31 55 -32 120q1 65 32 120q32 55 88 88q57 32 120 32t120 -32q56 -33 88 -88q31 -55 32 -120v0zM0 217q1 -70 34 -128v0v0q34 -58 94 -94q61 -34 128 -34t128 34q60 36 94 94
q33 58 34 128q-1 70 -34 128q-34 58 -94 94q-61 34 -128 34t-128 -34q-60 -36 -94 -94q-33 -58 -34 -128v0zM256 309q-73 -1 -135 -19q18 39 54 63q36 23 81 24q46 -1 82 -24q35 -24 53 -63q-62 18 -135 19v0zM256 293q78 -1 142 -22q10 -4 19 -7q-3 10 -6 19q-18 49 -59 79
t-96 31q-54 -1 -95 -31q-42 -30 -60 -79q-3 -9 -5 -19q9 3 18 7q64 21 142 22v0zM197 98q-23 -4 -31 18l-4 16v0l-2 8v0l-8 -3v0l-16 -4v0q-23 -4 -31 18q-4 23 18 31l72 20v0l20 -73v0q4 -23 -18 -31v0zM151 112q5 -17 19 -25v0v0q14 -9 31 -4t25 19q9 14 4 31l-21 81v0
l-2 7v0l-8 -2v0l-80 -21v0q-17 -5 -25 -20q-9 -14 -5 -31q5 -17 20 -25q14 -8 31 -4l8 2v0l3 -8v0zM361 112l3 8l-3 -8l3 8l8 -2v0q17 -4 31 4q15 8 20 25q4 17 -5 31q-8 15 -25 20l-80 21v0l-8 2v0l-2 -7v0l-22 -81v0q-4 -17 4 -31q9 -15 25 -19q18 -5 32 4q14 8 19 25v0z
M315 98q-22 8 -18 31l19 73v0l73 -20v0q22 -8 18 -31q-8 -22 -31 -18l-16 5v0l-8 2v0l-2 -8v0l-4 -16v0q-8 -22 -31 -18v0z" />
</svg>
