<?xml version="1.0" standalone="no"?>
<!DOCTYPE svg PUBLIC "-//W3C//DTD SVG 1.1//EN" "http://www.w3.org/Graphics/SVG/1.1/DTD/svg11.dtd" >
<svg xmlns="http://www.w3.org/2000/svg" xmlns:xlink="http://www.w3.org/1999/xlink" version="1.1" viewBox="-10 -40 660 512">
   <path fill="currentColor"
d="M87 159q21 -80 84 -130v0v0q63 -50 149 -52q86 2 149 52t84 130h2q8 2 15 3q-21 -88 -88 -144q-68 -55 -162 -57q-94 2 -162 57q-67 56 -88 144q7 -1 15 -3h2v0zM108 330q-7 4 -14 7q33 62 92 98q60 37 134 38q74 -1 134 -38q59 -36 92 -98q-7 -3 -14 -7q-31 57 -87 92
q-55 34 -125 35q-70 -1 -125 -35q-56 -35 -87 -92v0zM200 187q4 -22 15 -40t25 -18q13 0 25 18q11 18 15 40l16 -3v0q-5 -24 -18 -46t-38 -25q-26 3 -39 25t-17 46l15 3h1zM360 187q4 -22 15 -40t25 -18q13 0 25 18q11 18 15 40l16 -3v0q-5 -24 -18 -46t-38 -25
q-26 3 -39 25t-17 46l16 3v0zM28 285q-12 -13 -12 -30v0v0q0 -16 12 -29v0v0q2 -2 15 -7q12 -5 29 -8q20 -4 37 -7q-3 17 -7 37q-3 17 -8 29q-5 13 -8 16q-12 11 -28 11q-17 0 -30 -12v0zM16 215q-16 18 -16 40v0v0q0 23 17 41q18 17 40 17q23 0 41 -16q10 -13 17 -41
q7 -29 11 -55q1 -9 2 -16q-7 1 -16 2q-26 4 -55 11t-41 17v0zM612 226q12 13 12 29v0v0q0 17 -12 30q-13 12 -30 12q-16 0 -28 -11q-3 -3 -8 -16q-4 -12 -8 -29q-4 -20 -7 -37q17 3 37 7q16 3 29 8t15 7v0v0zM529 187q-6 0 -10 -1v0v0q-4 -1 -7 -1q1 7 2 16q4 26 11 54
q7 29 18 42q17 16 40 16q22 0 40 -17q17 -18 17 -41t-16 -40q-12 -11 -41 -17q-29 -7 -54 -11v0zM320 309q73 -1 135 -19q-18 39 -53 63q-36 23 -82 24q-45 -1 -81 -24q-36 -24 -54 -63q62 18 135 19v0zM320 293q-78 -1 -142 -22q-9 -4 -18 -7q2 10 5 19q18 49 60 79
q41 30 95 31q55 -1 96 -31t59 -79q3 -9 5 -19q-8 3 -18 7q-64 21 -142 22v0z" />
</svg>
