<?xml version="1.0" standalone="no"?>
<!DOCTYPE svg PUBLIC "-//W3C//DTD SVG 1.1//EN" "http://www.w3.org/Graphics/SVG/1.1/DTD/svg11.dtd" >
<svg xmlns="http://www.w3.org/2000/svg" xmlns:xlink="http://www.w3.org/1999/xlink" version="1.1" viewBox="-10 -40 532 512">
   <path fill="currentColor"
d="M16 217q1 -67 33 -121v0v0q32 -54 86 -86v0v0q54 -32 121 -33q67 1 121 33t86 86t33 121v200v0h-176v0v-24v0v-16v0h-16h-64q-20 1 -34 14q-13 14 -14 34q1 20 14 34q14 13 34 14h64h16v-16v0v-24v0h184h8v-8v0v-208v0q-1 -72 -35 -129q-34 -58 -92 -92q-57 -34 -129 -35
q-72 1 -129 35q-58 34 -92 92q-34 57 -35 129v56v0v8v0h16v0v-8v0v-56v0zM304 425v8v-8v8v0v0v24v0h-64v0q-14 0 -23 -9t-9 -23t9 -23t23 -9h64v0v32v0zM80 169h80h-80h80v160v0h-80v0v-160v0zM64 153v16v-16v16v160v0v16v0h16h96v-16v0v-160v0v-16v0h-16h-96zM432 169v160
v-160v160h-80v0v-160v0h80v0zM448 153h-16h16h-112v16v0v160v0v16v0h16h96v-16v0v-160v0v-16v0z" />
</svg>
