<?xml version="1.0" standalone="no"?>
<!DOCTYPE svg PUBLIC "-//W3C//DTD SVG 1.1//EN" "http://www.w3.org/Graphics/SVG/1.1/DTD/svg11.dtd" >
<svg xmlns="http://www.w3.org/2000/svg" xmlns:xlink="http://www.w3.org/1999/xlink" version="1.1" viewBox="-10 -40 532 512">
   <path fill="currentColor"
d="M329 446q-35 11 -73 11q-67 -1 -121 -33t-86 -86t-33 -121q1 -67 33 -121t86 -86t121 -33q67 1 121 33t86 86t33 121q0 41 -13 77q8 3 15 6q14 -39 14 -83q-1 -72 -35 -129q-34 -58 -92 -92q-57 -34 -129 -35q-72 1 -129 35q-58 34 -92 92q-34 57 -35 129q1 72 35 129
q34 58 92 92q57 34 129 35q40 0 77 -12l-2 -8v0l-2 -7v0zM223 249v0v0v0v0v0v0v0v0v0h1h1q1 1 2 1q2 0 5 1q9 2 21 7q12 4 20 11q7 6 7 12q0 4 -7 9t-19 9q-12 3 -21 5q-5 0 -7 1h-1h-1h-1v0v0v0v0v0v0v0v0v0v0v0v16v0v0v0v0v0v0v0v0v0v0v0h1v0h1h1t3 1h4q9 2 21 5t19 9
q7 5 7 9q0 7 -7 14q-8 6 -20 10q-12 5 -21 6q-4 1 -6 2v0h-2h-1v0v0v0v0v0l1 8v0q1 10 1 8v0v0v0v0v0v0v0v0h1v0q1 0 2 -1q3 0 8 -1q10 -2 23 -7q13 -4 24 -13q12 -10 13 -26q-1 -15 -13 -22q-10 -7 -21 -10q11 -4 21 -10q12 -7 13 -22q-1 -16 -13 -24q-11 -9 -24 -14
t-23 -7q-5 -2 -8 -2l-1 -1h-1v0v0h-1v0v0v0v0v0v0v0q1 -2 -1 8l-1 8v0zM176 185q15 -1 16 -16q-1 -15 -16 -16q-14 1 -16 16q2 15 16 16v0zM336 161q23 -1 41 28l4 7v0l14 -8v0l-4 -7v0q-22 -35 -55 -36q-34 1 -55 36l-4 7v0l14 8v0l4 -7v0q17 -29 41 -28v0zM434 324
q-6 -19 -21 -29v0v0q-16 -9 -35 -4q-19 6 -28 22t-4 35l24 95v0l2 8v0l8 -2v0l90 -26v0q19 -6 28 -22t4 -35q-5 -20 -21 -29q-15 -10 -34 -5l-11 3v0l-2 -11v0zM382 306q12 -3 22 3v0v0q10 6 14 19l5 19v0l2 8v0l8 -2v0l18 -6v0q12 -3 22 4q10 6 14 18q3 14 -3 24
q-6 11 -18 15l-83 23v0l-22 -87v0q-3 -13 3 -24q6 -10 18 -14v0z" />
</svg>
