<?xml version="1.0" standalone="no"?>
<!DOCTYPE svg PUBLIC "-//W3C//DTD SVG 1.1//EN" "http://www.w3.org/Graphics/SVG/1.1/DTD/svg11.dtd" >
<svg xmlns="http://www.w3.org/2000/svg" xmlns:xlink="http://www.w3.org/1999/xlink" version="1.1" viewBox="-10 -40 532 512">
   <path fill="currentColor"
d="M386 177q1 -1 2 -1t1 -1l6 -3v0l-3 -5v0v-1q-1 0 -1 -1q-19 -35 -55 -36v0v0v0v0q-12 0 -24 5q-15 8 -26 23q-3 4 -5 8l-4 7v0l14 8v0l3 -5v0q1 -1 1 -2q2 -4 4 -7q10 -14 23 -18q6 -3 14 -3q23 0 41 28l4 7v0l5 -3v0zM176 169v0v0v0v0v0q15 -1 16 -16q-1 -15 -16 -16v0
v0v0v0q-15 1 -16 16q1 15 16 16v0zM107 283q13 49 51 79v0v0q38 30 90 31h16v0q52 -1 90 -31t51 -79q3 -9 5 -18l2 -16h-16h-296l2 16q2 9 5 18v0zM123 280q-2 -7 -3 -15h272v0q-1 8 -3 15q-15 43 -51 70q-35 26 -82 27q-47 -1 -82 -27q-36 -27 -51 -70v0zM256 -39
q-70 1 -128 34v0v0q-58 34 -94 94q-34 61 -34 128t34 128q36 60 94 94q58 33 128 34q70 -1 128 -34q58 -34 94 -94q34 -61 34 -128t-34 -128q-36 -60 -94 -94q-58 -33 -128 -34v0zM256 -23q65 1 120 32v0v0q55 32 88 88q32 57 32 120t-32 120q-33 56 -88 88q-55 31 -120 32
q-65 -1 -120 -32q-55 -32 -88 -88q-32 -57 -32 -120t32 -120q33 -56 88 -88q55 -31 120 -32v0z" />
</svg>
