<?xml version="1.0" standalone="no"?>
<!DOCTYPE svg PUBLIC "-//W3C//DTD SVG 1.1//EN" "http://www.w3.org/Graphics/SVG/1.1/DTD/svg11.dtd" >
<svg xmlns="http://www.w3.org/2000/svg" xmlns:xlink="http://www.w3.org/1999/xlink" version="1.1" viewBox="-10 -40 660 512">
   <path fill="currentColor"
d="M0 -39h8h-8h128v8v0v408v0h96h416v16v0h-8h-84q12 13 12 32q-1 20 -14 34q-14 13 -34 14q-20 -1 -34 -14q-13 -14 -14 -34q0 -19 12 -32h-216v0q12 13 12 32q-1 20 -14 34q-14 13 -34 14q-20 -1 -34 -14q-13 -14 -14 -34q0 -19 12 -32h-68h-8v-8v0v-408v0h-104h-8v-16v0z
M512 393q-14 0 -23 9v0v0q-9 9 -9 23t9 23t23 9t23 -9t9 -23t-9 -23t-23 -9v0zM192 425q0 14 9 23v0v0q9 9 23 9t23 -9t9 -23t-9 -23t-23 -9t-23 9t-9 23v0zM304 -39h8h-8h160v8v0v72v0h96h16v16v0v240v0v16v0h-16h-368v-16v0v-240v0v-16v0h16h96v-72v0v-8v0zM320 57h-16h16
h-32v240v0h192v0v-240v0h-16h-144zM448 41v-64v64v-64h-128v0v64v0h128v0zM272 57h-64h64h-64v240v0h64v0v-240v0zM496 297h64h-64h64v-240v0h-64v0v240v0z" />
</svg>
