<?xml version="1.0" standalone="no"?>
<!DOCTYPE svg PUBLIC "-//W3C//DTD SVG 1.1//EN" "http://www.w3.org/Graphics/SVG/1.1/DTD/svg11.dtd" >
<svg xmlns="http://www.w3.org/2000/svg" xmlns:xlink="http://www.w3.org/1999/xlink" version="1.1" viewBox="-10 -40 466 512">
   <path fill="currentColor"
d="M8 -39h-8h8h-8v8v0v208v0v96v0v8v0h16v0v-8v0v-88v0h133v0l128 128v0l-147 146v0l12 12v0l146 -147v0l146 147v0l12 -12v0l-147 -146v0l147 -146v0l-12 -12v0l-146 147v0l-117 -117v0h5v0q48 -1 79 -33q32 -31 33 -79q-1 -48 -33 -79q-31 -32 -79 -33h-168v0zM176 169
h-160h160h-160v-192v0h160v0q41 1 68 28t28 68q-1 41 -28 68t-68 28v0z" />
</svg>
