<?xml version="1.0" standalone="no"?>
<!DOCTYPE svg PUBLIC "-//W3C//DTD SVG 1.1//EN" "http://www.w3.org/Graphics/SVG/1.1/DTD/svg11.dtd" >
<svg xmlns="http://www.w3.org/2000/svg" xmlns:xlink="http://www.w3.org/1999/xlink" version="1.1" viewBox="-10 -40 532 512">
   <path fill="currentColor"
d="M256 457q65 -1 120 -32v0v0q55 -32 88 -88q32 -57 32 -120t-32 -120q-33 -56 -88 -88q-55 -31 -120 -32q-65 1 -120 32q-55 32 -88 88q-32 57 -32 120t32 120q33 56 88 88q55 31 120 32v0zM256 -39q70 1 128 34v0v0q58 34 94 94q34 61 34 128t-34 128q-36 60 -94 94
q-58 33 -128 34q-70 -1 -128 -34q-58 -34 -94 -94q-34 -61 -34 -128t34 -128q36 -60 94 -94q58 -33 128 -34v0zM352 169q-2 15 -16 16q-15 -1 -16 -16q1 -15 16 -16q14 1 16 16v0zM176 153q14 1 16 16q-2 15 -16 16q-15 -1 -16 -16q1 -15 16 -16v0zM248 281h8h-8h8
q71 3 118 67l5 7v0l-13 9v0l-4 -6v0q-45 -59 -106 -61h-8v0v-16v0zM151 316q-6 9 -5 20q5 23 29 25h2v0q24 -2 29 -25q1 -11 -5 -20l-25 -38v0l-25 37v1zM138 307l28 -44l-28 44l28 -44l10 -14v0l10 14v0l28 44v0q10 14 8 31q-3 17 -16 28q-12 11 -29 11h-2v0q-17 0 -29 -11
q-13 -11 -16 -28q-2 -17 8 -31v0z" />
</svg>
