<?xml version="1.0" standalone="no"?>
<!DOCTYPE svg PUBLIC "-//W3C//DTD SVG 1.1//EN" "http://www.w3.org/Graphics/SVG/1.1/DTD/svg11.dtd" >
<svg xmlns="http://www.w3.org/2000/svg" xmlns:xlink="http://www.w3.org/1999/xlink" version="1.1" viewBox="-10 -40 532 512">
   <path fill="currentColor"
d="M0 377q1 41 28 68v0v0q27 27 68 28q41 -1 68 -28t28 -68v-408v0v-8v0h-8h-184v8v0v408v0zM96 457q-34 -1 -57 -23v0v0q-22 -23 -23 -57v-400v0h160v0v400v0q-1 34 -23 57q-23 22 -57 23v0zM504 473h8h-8h8v-8v0v-176v0v-8v0h-8h-146l-16 16v0h154v0v160v0h-300v0
q-7 9 -15 16h323v0zM224 384l229 -229l-229 229l229 -229l6 -6v0l-6 -5v0l-124 -125v0l-6 -5v0l-6 5v0l-93 94v0v22v0l99 -99v0l113 114v0l-212 212v0v15v0v7v0zM64 9h-16h16h-16v16v0v64v0v16v0h16h80v-16v0v-64v0v-16v0h-16h-64zM64 25h16h-16h64v16v0v32v0v16v0h-16h-48
v-16v0v-32v0v-16v0zM48 137v16v-16v16v64v0v16v0h16h80v-16v0v-64v0v-16v0h-16h-80zM80 153h32h-32h48v16v0v32v0v16v0h-16h-48v-16v0v-32v0v-16v0h16v0zM112 377q-1 15 -16 16q-15 -1 -16 -16q1 -15 16 -16q15 1 16 16v0zM96 345q-14 0 -23 9v0v0q-9 9 -9 23t9 23t23 9
t23 -9t9 -23t-9 -23t-23 -9v0z" />
</svg>
