<?xml version="1.0" standalone="no"?>
<!DOCTYPE svg PUBLIC "-//W3C//DTD SVG 1.1//EN" "http://www.w3.org/Graphics/SVG/1.1/DTD/svg11.dtd" >
<svg xmlns="http://www.w3.org/2000/svg" xmlns:xlink="http://www.w3.org/1999/xlink" version="1.1" viewBox="-10 -40 596 512">
   <path fill="currentColor"
d="M128 73q1 -34 23 -57v0v0q23 -22 57 -23q34 1 57 23q22 23 23 57v40v0v8v0h-16v0v-8v0v-40v0q-1 -27 -19 -45t-45 -19q-27 1 -45 19t-19 45v128v0h240v0v-128v0q1 -34 23 -57q23 -22 57 -23q34 1 57 23q22 23 23 57v40v0v8v0h-16v0v-8v0v-40v0q-1 -27 -19 -45t-45 -19
q-27 1 -45 19t-19 45v136v0v133v0q-8 2 -16 2v-127v0h-240v0v113v0q-8 -4 -16 -10v-111v0v-136v0zM97 356q0 1 1 2v0v0l12 16q7 9 20 21t29 21t33 9t33 -9t29 -21t20 -21q7 -8 13 -17v-1l1 -1v0v1h1q0 1 1 2q5 8 12 16q7 9 20 21t29 21t33 9t33 -9t29 -21t20 -21
q7 -8 13 -17v-1l1 -1v0l1 1v0q0 1 1 2q5 8 12 16q7 9 20 21t29 21t33 9v16v0q-22 -1 -40 -11q-19 -10 -33 -23q-15 -15 -23 -25q-8 10 -23 25q-14 13 -33 23q-18 10 -40 11q-22 -1 -40 -11q-19 -10 -33 -23q-15 -15 -23 -25q-8 10 -23 25q-14 13 -33 23q-18 10 -40 11
q-22 -1 -40 -11q-19 -10 -33 -23q-15 -15 -23 -25q-8 10 -23 25q-14 13 -33 23q-18 10 -40 11v-16v0q17 0 33 -9t29 -21t20 -21q7 -8 13 -17v-1h1v-1q0 1 1 1v0z" />
</svg>
