<?xml version="1.0" standalone="no"?>
<!DOCTYPE svg PUBLIC "-//W3C//DTD SVG 1.1//EN" "http://www.w3.org/Graphics/SVG/1.1/DTD/svg11.dtd" >
<svg xmlns="http://www.w3.org/2000/svg" xmlns:xlink="http://www.w3.org/1999/xlink" version="1.1" viewBox="-10 -40 596 512">
   <path fill="currentColor"
d="M569 263q-1 8 -3 16l-15 -6v0l-108 -39v0v0v0l-15 -6v0l-198 -72v0l-15 -5v0v0v0l-111 -41v0l-16 -5v0l8 -14q48 -78 131 -109t173 -2h1l1 1l6 2v0q4 1 8 3q83 37 125 113q41 75 28 164v0zM395 -5q-23 -7 -46 -2v0v0q-22 6 -39 23q-47 50 -70 114l-4 11v0l197 72v0l4 -11
v0q24 -64 20 -132q-5 -48 -47 -70q-6 -2 -11 -4h-2q-1 -1 -2 -1v0zM332 -18q-67 -4 -126 27v0v0q-58 30 -94 87l108 40v0l5 -11v0q24 -68 73 -119q15 -16 34 -24v0zM448 219l106 38l-106 -38l106 38q9 -66 -15 -125q-25 -60 -76 -100q8 17 9 37q5 71 -20 138l-4 12v0zM8 457
h214h-214h214l2 -5v0l85 -233v0l15 6v0l-85 232v0h329h8v16v0h-8h-568v-16v0h8v0z" />
</svg>
