<?xml version="1.0" standalone="no"?>
<!DOCTYPE svg PUBLIC "-//W3C//DTD SVG 1.1//EN" "http://www.w3.org/Graphics/SVG/1.1/DTD/svg11.dtd" >
<svg xmlns="http://www.w3.org/2000/svg" xmlns:xlink="http://www.w3.org/1999/xlink" version="1.1" viewBox="-10 -40 660 512">
   <path fill="currentColor"
d="M328 -39h-16h16h-16v8v0v112v0v8v0h16v0v-8v0v-112v0v-8v0zM168 22l-11 11l11 -11l-11 11l5 6v0l80 80v0l6 5v0l11 -11v0l-5 -6v0l-80 -80v0l-6 -5v0zM483 33l-11 -11l11 11l-11 -11l-6 5v0l-80 80v0l-5 6v0l11 11v0l6 -5v0l80 -80v0l5 -6v0zM266 189l-91 25l91 -25
l-91 25l-16 4v0q-9 -33 -37 -49t-61 -8q-32 10 -48 38q-16 27 -8 60q6 24 24 40q18 15 41 19l3 13v0q-18 14 -26 37q-7 22 -1 46q10 33 37 48q28 16 61 8q33 -9 48 -37q16 -27 9 -61l15 -4v0l92 -24v0l-4 -16v0l-107 29v0l-16 4v0l4 16v0q6 26 -6 48q-13 22 -39 30
q-27 6 -49 -6q-22 -13 -30 -39q-8 -41 22 -67l9 -6v0l-3 -10v0l-3 -13v0l-3 -10v0l-11 -2v0q-39 -7 -52 -47q-6 -26 7 -48q12 -22 38 -30q27 -7 49 6t30 39l4 16v0l15 -4v0l108 -29v0l-5 -16v0zM467 214l-91 -25l91 25l-91 -25l-5 16v0l108 28v0l15 5v0l4 -16v0
q8 -26 30 -39t49 -6q26 7 38 29q13 23 7 49q-13 40 -52 47l-11 1v0l-3 11v0l-3 13v0l-3 10v0l9 6v0q30 26 21 67q-7 26 -29 39q-23 12 -49 6q-26 -8 -39 -30t-6 -48l4 -16v0l-16 -4v0l-107 -29v0l-4 16v0l92 24v0l15 5v0q-8 33 8 60q16 28 49 38q33 8 61 -8q27 -16 37 -49
q6 -24 -2 -46q-7 -22 -25 -37l3 -13v0q23 -4 41 -19q17 -16 24 -40q8 -33 -8 -60q-16 -28 -48 -38q-33 -8 -61 8t-37 49l-16 -4v0z" />
</svg>
