<?xml version="1.0" standalone="no"?>
<!DOCTYPE svg PUBLIC "-//W3C//DTD SVG 1.1//EN" "http://www.w3.org/Graphics/SVG/1.1/DTD/svg11.dtd" >
<svg xmlns="http://www.w3.org/2000/svg" xmlns:xlink="http://www.w3.org/1999/xlink" version="1.1" viewBox="-10 -40 532 512">
   <path fill="currentColor"
d="M114 -7h6h-6h284l2 6v0l46 154v0h50h16v16v0v176v0v16v0h-16h-16v64v0v16v0h-16h-80v-16v0v-64v0h-256v0v64v0v16v0h-16h-80v-16v0v-64v0h-16h-16v-16v0v-176v0v-16v0h16h50l46 -154v0l2 -6v0zM384 345h16h-16h112v-48v0h-72h-8v-8v0v-64v0v-8v0h8h72v-48v0h-480v0v48v0
h72h8v8v0v64v0v8v0h-8h-72v48v0h16h352zM400 361v64v-64v64h64v0v-64v0h-64v0zM48 425h64h-64h64v-64v0h-64v0v64v0zM386 9h-260h260h-260l-43 144v0h346v0l-43 -144v0zM496 233h-64h64h-64v48v0h64v0v-48v0zM16 281h64h-64h64v-48v0h-64v0v48v0zM208 265v32v-32v32h96v0
v-32v0h-96v0zM192 249h16h-16h128v16v0v32v0v16v0h-16h-112v-16v0v-32v0v-16v0z" />
</svg>
