<?xml version="1.0" standalone="no"?>
<!DOCTYPE svg PUBLIC "-//W3C//DTD SVG 1.1//EN" "http://www.w3.org/Graphics/SVG/1.1/DTD/svg11.dtd" >
<svg xmlns="http://www.w3.org/2000/svg" xmlns:xlink="http://www.w3.org/1999/xlink" version="1.1" viewBox="-10 -40 532 512">
   <path fill="currentColor"
d="M176 41v48v-48v48h-96v0v-48v0h96v0zM192 89v-48v48v-48v-16v0h-16h-112v16v0v48v0h-48h-16v16v0v288v0v16v0h16h496v-16v0v-288v0v-16v0h-16h-48v-48v0v-16v0h-16h-112v16v0v48v0h-128v0zM336 89v-48v48v-48h96v0v48v0h-96v0zM320 105h16h-16h176v288v0h-480v0v-288v0
h48h256zM376 177h-16h16h-16v8v0v40v0h-40h-8v16v0h8h40v40v0v8v0h16v0v-8v0v-40v0h40h8v-16v0h-8h-40v-40v0v-8v0zM96 225h-8h8h-8v16v0h8h104v-16v0h-8h-96z" />
</svg>
