<?xml version="1.0" standalone="no"?>
<!DOCTYPE svg PUBLIC "-//W3C//DTD SVG 1.1//EN" "http://www.w3.org/Graphics/SVG/1.1/DTD/svg11.dtd" >
<svg xmlns="http://www.w3.org/2000/svg" xmlns:xlink="http://www.w3.org/1999/xlink" version="1.1" viewBox="-10 -40 532 512">
   <path fill="currentColor"
d="M256 41q14 0 23 -9v0v0q9 -9 9 -23t-9 -23t-23 -9t-23 9t-9 23t9 23t23 9v0zM302 22q-11 33 -46 35q-35 -2 -46 -35q-56 14 -95 54q-40 39 -54 95q33 11 35 46q-2 35 -35 46q14 56 54 95q39 40 95 54q4 -16 17 -25q12 -10 29 -10q35 2 46 35q56 -14 95 -54q40 -39 54 -95
q-16 -5 -25 -17q-10 -12 -10 -29q2 -35 35 -46q-14 -56 -54 -95q-39 -40 -95 -54v0zM467 169q19 2 32 15v0v0q13 13 13 33t-13 33t-32 15q-15 61 -58 105q-44 43 -105 58q-2 19 -15 32t-33 13t-33 -13t-15 -32q-61 -15 -105 -58q-43 -44 -58 -105q-19 -2 -32 -15t-13 -33
t13 -33t32 -15q15 -61 58 -105q44 -43 105 -58q2 -19 15 -32t33 -13t33 13t15 32q61 15 105 58q43 44 58 105v0zM256 457q14 0 23 -9v0v0q9 -9 9 -23t-9 -23t-23 -9t-23 9t-9 23t9 23t23 9v0zM80 217q0 -14 -9 -23v0v0q-9 -9 -23 -9t-23 9t-9 23t9 23t23 9t23 -9t9 -23v0z
M464 249q14 0 23 -9v0v0q9 -9 9 -23t-9 -23t-23 -9t-23 9t-9 23t9 23t23 9v0z" />
</svg>
