<?xml version="1.0" standalone="no"?>
<!DOCTYPE svg PUBLIC "-//W3C//DTD SVG 1.1//EN" "http://www.w3.org/Graphics/SVG/1.1/DTD/svg11.dtd" >
<svg xmlns="http://www.w3.org/2000/svg" xmlns:xlink="http://www.w3.org/1999/xlink" version="1.1" viewBox="-10 -40 404 512">
   <path fill="currentColor"
d="M280 306q40 -24 64 -64v0v0q23 -40 24 -89q-2 -75 -52 -124q-49 -50 -124 -52q-75 2 -124 52q-50 49 -52 124v176v0q1 54 37 91q37 36 91 37q54 -1 91 -37q36 -37 37 -91v-8l-1 -10v0l9 -5v0zM384 153q-1 54 -27 98v0v0q-25 43 -69 69v9q-2 61 -42 102q-41 40 -102 42
q-61 -2 -102 -42q-40 -41 -42 -102v-176v0q2 -82 56 -136t136 -56q82 2 136 56t56 136v0zM80 153v36v-36v36l44 29v0q4 3 4 7v40v0q0 4 -3 6l-48 40v0l-6 5v0l-10 -12v0l6 -5v0l45 -38v0v-32v0l-44 -29v0q-4 -3 -4 -7v-40v0q1 -54 37 -91q37 -36 91 -37q54 1 91 37
q36 37 37 91v8v0v8v0h-16v0v-8v0v-8v0q-1 -48 -33 -79q-31 -32 -79 -33q-48 1 -79 33q-32 31 -33 79v0z" />
</svg>
