<?xml version="1.0" standalone="no"?>
<!DOCTYPE svg PUBLIC "-//W3C//DTD SVG 1.1//EN" "http://www.w3.org/Graphics/SVG/1.1/DTD/svg11.dtd" >
<svg xmlns="http://www.w3.org/2000/svg" xmlns:xlink="http://www.w3.org/1999/xlink" version="1.1" viewBox="-10 -40 660 512">
   <path fill="currentColor"
d="M201 158l4 -5l-4 5l4 -5l40 -44v0q19 -22 19 -51q-1 -42 -38 -67q-21 -14 -62 -14q-36 1 -63 20t-46 50q-20 31 -29 67q-10 37 -10 71q0 25 6 51q5 25 18 47q23 43 78 46q40 -1 66 -28q27 -26 25 -63l-8 -73v0v-7v0zM219 177l6 60l-6 -60l6 60q2 44 -30 76q-31 31 -77 32
q-44 -1 -70 -26t-37 -62q-11 -36 -11 -72q0 -49 18 -100q19 -51 55 -86t90 -38q45 0 72 17q43 28 45 80q0 35 -23 62l-36 40v0l62 26v0l5 2v0v5v0v272v0v8v0h-16v0v-8v0v-267v0l-53 -21v0zM439 158v7v-7v7l-8 73v0q-2 37 25 63q26 27 66 28q55 -3 78 -46q13 -22 18 -47
q6 -26 6 -51q0 -34 -10 -71q-9 -36 -29 -67q-19 -31 -46 -50t-63 -20q-41 0 -62 14q-37 25 -38 67q0 29 20 51l39 44v0l4 5v0zM421 179l-53 20l53 -20l-53 20v266v0v8v0h-16v0v-8v0v-272v0v-6v0l5 -1v0l64 -24v0l-37 -42v0q-24 -27 -24 -62q2 -52 45 -80q27 -17 72 -17
q54 3 90 38t55 86q18 51 18 100q0 36 -11 72q-11 37 -37 62t-70 26q-46 -1 -77 -32q-32 -32 -29 -76l5 -58v0z" />
</svg>
