<?xml version="1.0" standalone="no"?>
<!DOCTYPE svg PUBLIC "-//W3C//DTD SVG 1.1//EN" "http://www.w3.org/Graphics/SVG/1.1/DTD/svg11.dtd" >
<svg xmlns="http://www.w3.org/2000/svg" xmlns:xlink="http://www.w3.org/1999/xlink" version="1.1" viewBox="-10 -40 596 512">
   <path fill="currentColor"
d="M288 200l-249 -111l249 111l-249 -111l249 -110v0l249 110v0l-249 111v0zM556 80l-268 -119l268 119l-268 -119l-268 119v0l-20 9v0l20 9v0l268 119v0l268 -119v0l20 -9v0l-20 -9v0zM124 179l-19 -9l19 9l-19 -9l-85 38v0l-20 9v0l20 9v0l268 119v0l268 -119v0l20 -9v0
l-20 -9v0l-85 -37v0l-19 8v0l85 38v0l-249 111v0l-249 -111v0l85 -38v0zM105 299l-85 37l85 -37l-85 37l-20 9v0l20 9v0l268 119v0l268 -119v0l20 -9v0l-20 -9v0l-85 -37v0l-19 8v0l85 38v0l-249 111v0l-249 -111v0l85 -38v0l-19 -8v0z" />
</svg>
