<?xml version="1.0" standalone="no"?>
<!DOCTYPE svg PUBLIC "-//W3C//DTD SVG 1.1//EN" "http://www.w3.org/Graphics/SVG/1.1/DTD/svg11.dtd" >
<svg xmlns="http://www.w3.org/2000/svg" xmlns:xlink="http://www.w3.org/1999/xlink" version="1.1" viewBox="-10 -40 404 512">
   <path fill="currentColor"
d="M368 153q-2 -75 -52 -124v0v0q-49 -50 -124 -52q-75 2 -124 52q-50 49 -52 124q1 37 28 90q28 53 65 103t65 82q11 13 18 21q7 -8 18 -21q28 -32 65 -82t65 -103q27 -53 28 -90v0zM384 153q-2 50 -38 112v0v0q-36 63 -78 117v0v0q-43 54 -65 79l-11 12l-11 -12
q-22 -25 -65 -79q-42 -54 -78 -117q-36 -62 -38 -112q2 -82 56 -136t136 -56q82 2 136 56t56 136v0zM104 113q1 -24 16 -40v0v0q16 -15 40 -16h56v0q27 1 45 19t19 45q-1 34 -29 53l-51 34v0v25v0v8v0h-16v0v-8v0v-29v0v-5v0l4 -2v0l55 -36v0q20 -15 21 -40q-1 -21 -14 -34
q-13 -14 -34 -14h-56v0q-17 0 -28 12q-12 11 -12 28v6v0h-16v0v-6v0zM176 297v-32v32v-32h32v0v32v0h-32v0z" />
</svg>
