<?xml version="1.0" standalone="no"?>
<!DOCTYPE svg PUBLIC "-//W3C//DTD SVG 1.1//EN" "http://www.w3.org/Graphics/SVG/1.1/DTD/svg11.dtd" >
<svg xmlns="http://www.w3.org/2000/svg" xmlns:xlink="http://www.w3.org/1999/xlink" version="1.1" viewBox="-10 -40 532 512">
   <path fill="currentColor"
d="M420 392l-339 -339l339 339l-339 -339q-63 67 -65 164q1 67 33 121t86 86t121 33q97 -2 164 -65v0zM431 381q63 -67 65 -164q-1 -67 -33 -121t-86 -86t-121 -33q-97 2 -164 65l84 84v0v-29v0v-8v0h8h104q37 1 62 26t26 62q-1 31 -18 54q-18 22 -46 31l119 119v0zM192 142
l107 106l-107 -106l107 106q26 -4 43 -24q17 -19 18 -47q-1 -31 -21 -51t-51 -21h-96v0v37v0zM0 217q1 -70 34 -128v0v0q34 -58 94 -94q61 -34 128 -34t128 34q60 36 94 94q33 58 34 128q-1 70 -34 128q-34 58 -94 94q-61 34 -128 34t-128 -34q-60 -36 -94 -94
q-33 -58 -34 -128v0zM176 257v-46v46v-46l16 16v0v22v0h22v0l16 16v0h-38v0v72v0v8v0h-16v0v-8v0v-80v0z" />
</svg>
