<?xml version="1.0" standalone="no"?>
<!DOCTYPE svg PUBLIC "-//W3C//DTD SVG 1.1//EN" "http://www.w3.org/Graphics/SVG/1.1/DTD/svg11.dtd" >
<svg xmlns="http://www.w3.org/2000/svg" xmlns:xlink="http://www.w3.org/1999/xlink" version="1.1" viewBox="-10 -40 532 512">
   <path fill="currentColor"
d="M160 185h18h-18h256l-9 -16v0l-110 -192v0l-9 -16v0l-9 16v0l-110 192v0l-9 16v0zM288 -7l100 176l-100 -176l100 176h-200v0l100 -176v0zM128 233q30 0 56 15v0v0q26 15 41 41t15 56t-15 56t-41 41t-56 15t-56 -15t-41 -41t-15 -56t15 -56t41 -41t56 -15v0zM128 473
q35 0 64 -17v0v0q29 -17 47 -47q17 -30 17 -64t-17 -64q-18 -30 -47 -47t-64 -17t-64 17t-47 47q-17 30 -17 64t17 64q18 30 47 47t64 17v0zM496 249v192v-192v192h-192v0v-192v0h192v0zM304 233h-16h16h-16v16v0v192v0v16v0h16h208v-16v0v-192v0v-16v0h-16h-192z" />
</svg>
