<?xml version="1.0" standalone="no"?>
<!DOCTYPE svg PUBLIC "-//W3C//DTD SVG 1.1//EN" "http://www.w3.org/Graphics/SVG/1.1/DTD/svg11.dtd" >
<svg xmlns="http://www.w3.org/2000/svg" xmlns:xlink="http://www.w3.org/1999/xlink" version="1.1" viewBox="-10 -40 522 512">
   <path fill="currentColor"
d="M264 -39v8v-8v8v72v0h152h8v16v0h-8h-152v80v0h216h8v16v0h-8h-216v80v0h120h8v16v0h-8h-120v78v0l104 -30v0h64h16v16v0v88v0l-64 72v0h-256v0l-64 -72v0v-88v0v-16v0h16h64l104 30v0v-78v0h-120h-8v-16v0h8h120v-80v0h-216h-8v-16v0h8h216v-80v0h-152h-8v-16v0h8h152
v-72v0v-8v0h16v0zM264 345h-6h6h-6l-2 1v0l-2 -1v0h-6v0v-2v0l-106 -30v0h-62v0v82v0l55 62v0h242v0l55 -62v0v-82v0h-62v0l-106 30v0v2v0zM168 393q1 15 16 16q15 -1 16 -16q-1 -15 -16 -16q-15 1 -16 16v0zM184 425q-14 0 -23 -9v0v0q-9 -9 -9 -23t9 -23t23 -9t23 9t9 23
t-9 23t-23 9v0zM320 393q1 15 16 16q15 -1 16 -16q-1 -15 -16 -16q-15 1 -16 16v0zM336 425q-14 0 -23 -9v0v0q-9 -9 -9 -23t9 -23t23 -9t23 9t9 23t-9 23t-23 9v0z" />
</svg>
