<?xml version="1.0" standalone="no"?>
<!DOCTYPE svg PUBLIC "-//W3C//DTD SVG 1.1//EN" "http://www.w3.org/Graphics/SVG/1.1/DTD/svg11.dtd" >
<svg xmlns="http://www.w3.org/2000/svg" xmlns:xlink="http://www.w3.org/1999/xlink" version="1.1" viewBox="-10 -40 532 512">
   <path fill="currentColor"
d="M256 -23q65 1 120 32v0v0q55 32 88 88q32 57 32 120t-32 120q-33 56 -88 88q-55 31 -120 32q-65 -1 -120 -32q-55 -32 -88 -88q-32 -57 -32 -120t32 -120q33 -56 88 -88q55 -31 120 -32v0zM256 473q70 -1 128 -34v0v0q58 -34 94 -94q34 -61 34 -128t-34 -128
q-36 -60 -94 -94q-58 -33 -128 -34q-70 1 -128 34q-58 34 -94 94q-34 61 -34 128t34 128q36 60 94 94q58 33 128 34v0zM272 41q-1 -15 -16 -16q-15 1 -16 16q1 15 16 16q15 -1 16 -16v0zM208 313q1 -27 24 -42q24 -12 48 0q23 15 24 42q-1 27 -24 42q-24 12 -48 0
q-23 -15 -24 -42v0zM320 313q-1 -27 -19 -45v0v0q-18 -18 -45 -19q-29 1 -47 21l-108 -76v0l-7 -4v0l-9 13v0l7 5v0l108 75v0q-8 14 -8 30q1 27 19 45t45 19q27 -1 45 -19t19 -45v0zM160 89q-1 -15 -16 -16q-15 1 -16 16q1 15 16 16q15 -1 16 -16v0zM416 217q15 -1 16 -16
q-1 -15 -16 -16q-15 1 -16 16q1 15 16 16v0zM384 89q-1 -15 -16 -16q-15 1 -16 16q1 15 16 16q15 -1 16 -16v0z" />
</svg>
