<?xml version="1.0" standalone="no"?>
<!DOCTYPE svg PUBLIC "-//W3C//DTD SVG 1.1//EN" "http://www.w3.org/Graphics/SVG/1.1/DTD/svg11.dtd" >
<svg xmlns="http://www.w3.org/2000/svg" xmlns:xlink="http://www.w3.org/1999/xlink" version="1.1" viewBox="-10 -40 532 512">
   <path fill="currentColor"
d="M256 457q65 -1 120 -32v0v0q55 -32 88 -88q32 -57 32 -120t-32 -120q-33 -56 -88 -88q-55 -31 -120 -32q-65 1 -120 32q-55 32 -88 88q-32 57 -32 120t32 120q33 56 88 88q55 31 120 32v0zM256 -39q70 1 128 34v0v0q58 34 94 94q34 61 34 128t-34 128q-36 60 -94 94
q-58 33 -128 34q-70 -1 -128 -34q-58 -34 -94 -94q-34 -61 -34 -128t34 -128q36 -60 94 -94q58 -33 128 -34v0zM256 361q27 -1 42 -24q12 -24 0 -48q-15 -23 -42 -24q-27 1 -42 24q-12 24 0 48q15 23 42 24v0zM256 377q-27 -1 -45 -19v0v0q-18 -18 -19 -45q1 -35 28 -53
l-83 -167v0l-4 -8v0l15 -7v0l3 7v0l84 168v0q10 -4 21 -4q27 1 45 19t19 45q-1 27 -19 45t-45 19v0z" />
</svg>
