<?xml version="1.0" standalone="no"?>
<!DOCTYPE svg PUBLIC "-//W3C//DTD SVG 1.1//EN" "http://www.w3.org/Graphics/SVG/1.1/DTD/svg11.dtd" >
<svg xmlns="http://www.w3.org/2000/svg" xmlns:xlink="http://www.w3.org/1999/xlink" version="1.1" viewBox="-10 -40 340 512">
   <path fill="currentColor"
d="M304 -23v336v-336v336q-2 61 -42 102q-41 40 -102 42q-61 -2 -102 -42q-40 -41 -42 -102v-336v0h288v0zM16 -39h-16h16h-16v16v0v336v0q2 68 47 113t113 47q68 -2 113 -47t47 -113v-336v0v-16v0h-16h-288zM160 393q-23 -1 -35 -20q-10 -20 0 -40q12 -19 35 -20
q23 1 35 20q10 20 0 40q-12 19 -35 20v0zM160 297q-32 1 -48 28q-16 28 0 56q16 27 48 28q32 -1 48 -28q16 -28 0 -56q-16 -27 -48 -28v0zM200 217q-1 23 -20 35q-20 10 -40 0q-19 -12 -20 -35q1 -23 20 -35q20 -10 40 0q19 12 20 35v0zM104 217q1 32 28 48q28 16 56 0
q27 -16 28 -48q-1 -32 -28 -48q-28 -16 -56 0q-27 16 -28 48v0zM160 121q-23 -1 -35 -20q-10 -20 0 -40q12 -19 35 -20q23 1 35 20q10 20 0 40q-12 19 -35 20v0zM160 25q-32 1 -48 28q-16 28 0 56q16 27 48 28q32 -1 48 -28q16 -28 0 -56q-16 -27 -48 -28v0zM160 201
q-15 1 -16 16q1 15 16 16q15 -1 16 -16q-1 -15 -16 -16v0z" />
</svg>
