<?xml version="1.0" standalone="no"?>
<!DOCTYPE svg PUBLIC "-//W3C//DTD SVG 1.1//EN" "http://www.w3.org/Graphics/SVG/1.1/DTD/svg11.dtd" >
<svg xmlns="http://www.w3.org/2000/svg" xmlns:xlink="http://www.w3.org/1999/xlink" version="1.1" viewBox="-10 -40 532 512">
   <path fill="currentColor"
d="M16 1v-8v8v-8h-16v0v8v0v432v0v8v0h8h504v-16v0h-8h-488v-424v0zM352 313h120h-120h128v-8v0v-120v0v-8v0h-16v0v8v0v101v0l-170 -171v0l-6 -5v0l-6 5v0l-90 91v0l-90 -91v0l-6 -5v0l-11 11v0l5 6v0l96 96v0l6 5v0l6 -5v0l90 -91v0l165 165v0h-101h-8v16v0h8v0z" />
</svg>
