<?xml version="1.0" standalone="no"?>
<!DOCTYPE svg PUBLIC "-//W3C//DTD SVG 1.1//EN" "http://www.w3.org/Graphics/SVG/1.1/DTD/svg11.dtd" >
<svg xmlns="http://www.w3.org/2000/svg" xmlns:xlink="http://www.w3.org/1999/xlink" version="1.1" viewBox="-10 -40 660 512">
   <path fill="currentColor"
d="M57 236l-5 9l5 -9l-5 9l-23 46v0l76 -15v0l5 -1v0l5 2v0q42 20 93 20q83 -2 137 -48q53 -46 55 -112q-2 -66 -55 -112q-54 -46 -137 -48q-83 2 -137 48q-53 46 -55 112q1 51 34 91l7 8v0zM20 309l-20 4l20 -4l-20 4l9 -18v0l29 -57v0q-37 -44 -38 -101q2 -75 61 -124
q59 -50 147 -52q88 2 147 52q59 49 61 124q-2 75 -61 124q-59 50 -147 52q-55 0 -100 -22l-88 18v0zM232 344l16 -2q18 50 67 82t117 33q51 0 93 -20l5 -2v0l5 1v0l76 15v0l-23 -46v0l-5 -9v0l7 -8v0q33 -40 34 -91q-2 -63 -50 -108q-49 -45 -126 -51v-1v0q0 -8 -1 -15
q83 6 137 55t56 120q-1 57 -38 101l29 57v0l9 18v0l-20 -4v0l-88 -18v0q-45 22 -100 22q-73 -1 -127 -37q-54 -35 -73 -92v0zM215 52v15v-15v15h3h2q4 1 11 2q7 2 11 3l-3 13v0q-4 -1 -11 -2q-6 -1 -10 -2q-20 -2 -32 3q-12 6 -14 15q-1 7 1 11t7 8q11 6 30 11v0v0v0
q18 5 34 14q7 5 12 14q4 9 2 20q-5 19 -23 27q-9 3 -20 4v14v0v7v0h-14v0v-7v0v-14v0q-1 -1 -3 -1h-2v0v0q-12 -3 -27 -8h-2v0v0l-4 -2l-7 -2v0l4 -13v0l7 2v0q2 0 3 1h2v0v0v0v0v0v0v0v0l1 1q14 5 25 7q7 1 12 1h1v0q11 0 19 -3q12 -5 14 -16q1 -8 -1 -12q-2 -5 -7 -8
q-11 -7 -30 -12l-1 -1v0h-1q-17 -4 -32 -12q-7 -5 -11 -14q-4 -8 -3 -19q5 -18 22 -26q10 -4 21 -5v-14v0v-7v0h14v0v7v0z" />
</svg>
