<?xml version="1.0" standalone="no"?>
<!DOCTYPE svg PUBLIC "-//W3C//DTD SVG 1.1//EN" "http://www.w3.org/Graphics/SVG/1.1/DTD/svg11.dtd" >
<svg xmlns="http://www.w3.org/2000/svg" xmlns:xlink="http://www.w3.org/1999/xlink" version="1.1" viewBox="-10 -40 532 512">
   <path fill="currentColor"
d="M333 6l24 -24l-24 24l24 -24l11 -12v0l11 12v0l24 24v0l12 11v0l-12 11v0l-24 24v0l-11 12v0l-11 -12v0l-24 -24v0l-12 -11v0l12 -11v0zM368 41l11 -11l-11 11l11 -11l2 -2v0l11 -11v0l-11 -11v0l-2 -2v0l-11 -11v0l-11 11v0l-2 2v0l-11 11v0l11 11v0l2 2v0l11 11v0z
M142 73q-40 1 -64 32l-4 6v0l-13 -9v0l5 -7v0q28 -36 76 -38q41 1 68 28t28 68q-2 52 -42 80h113v0l78 -62v0l2 -2v0h3v0q51 1 85 35t35 85v65v0q-1 37 -26 61q-24 25 -61 26q-25 0 -46 -13t-32 -35l-10 -20v0l-4 -8v0l15 -7v0l3 7v0l10 21v0q21 37 64 39q30 -1 50 -21
t21 -50v-65v0q-1 -43 -30 -73q-28 -29 -71 -31l-78 62v0l-2 2v0h-3h-100q27 16 43 43q17 27 17 61q-1 51 -35 85t-85 35h-16v0q-58 -1 -96 -40q-39 -38 -40 -96v-8v0h16v0v8v0q1 51 35 85t85 35h16v0q44 -1 74 -30q29 -30 30 -74q-1 -44 -30 -74q-30 -29 -74 -30h-8h-16v-16
v0h6h8q34 -1 57 -23q23 -23 23 -57t-23 -57q-23 -22 -57 -23v0zM294 83v0v0v0v1v0q1 1 3 2q4 3 13 8q18 10 58 11q40 -1 58 -11q9 -5 13 -8q2 -1 3 -2v0v-1v0v0v0v0v0v0l6 -5v0l11 11v0l-5 6v0l-6 -6v0q7 7 6 6v0v0v0v0v0v0v0v0h-1v0v1h-1q-1 1 -4 3q-5 4 -16 9
q-20 11 -64 13q-43 -2 -64 -13q-11 -5 -16 -9q-3 -2 -4 -3q-1 0 -1 -1v0v0v0v0v0v0v0v0v0v0v0q-2 1 5 -6l-5 6v0l-6 -6v0l11 -11v0l6 5v0z" />
</svg>
