<?xml version="1.0" standalone="no"?>
<!DOCTYPE svg PUBLIC "-//W3C//DTD SVG 1.1//EN" "http://www.w3.org/Graphics/SVG/1.1/DTD/svg11.dtd" >
<svg xmlns="http://www.w3.org/2000/svg" xmlns:xlink="http://www.w3.org/1999/xlink" version="1.1" viewBox="-10 -40 468 512">
   <path fill="currentColor"
d="M16 9v416v-416v416h416v0v-416v0h-416v0zM0 -7h16h-16h448v16v0v416v0v16v0h-16h-432v-16v0v-416v0v-16v0zM112 329h32h-32h32v-16v0v-96v0v-16v0h-32v0v16v0v96v0v16v0zM160 185v16v-16v16v16v0v96v0v16v0v16v0h-16h-48v-16v0v-16v0v-96v0v-16v0v-16v0h16h48zM208 329
h32h-32h32v-16v0v-192v0v-16v0h-32v0v16v0v192v0v16v0zM304 329h32h-32h32v-16v0v-32v0v-16v0h-32v0v16v0v32v0v16v0zM192 313v-192v192v-192v-16v0v-16v0h16h48v16v0v16v0v192v0v16v0v16v0h-16h-48v-16v0v-16v0zM288 313v-32v32v-32v-16v0v-16v0h16h48v16v0v16v0v32v0v16v0
v16v0h-16h-48v-16v0v-16v0z" />
</svg>
