<?xml version="1.0" standalone="no"?>
<!DOCTYPE svg PUBLIC "-//W3C//DTD SVG 1.1//EN" "http://www.w3.org/Graphics/SVG/1.1/DTD/svg11.dtd" >
<svg xmlns="http://www.w3.org/2000/svg" xmlns:xlink="http://www.w3.org/1999/xlink" version="1.1" viewBox="-10 -40 458 512">
   <path fill="currentColor"
d="M240 25q1 -27 24 -42q24 -12 48 0q23 15 24 42q-1 27 -24 42q-24 12 -48 0q-23 -15 -24 -42v0zM352 25q-1 -36 -32 -55q-32 -18 -64 0q-31 19 -32 55q1 36 32 55q32 18 64 0q31 -19 32 -55v0zM157 105h-5h5h-5l-2 4v0l-70 133v0q-15 30 -8 61q7 30 33 51l54 39v0h-119h-8
v8v0v64v0v8v0h8h240l2 -5v0l20 -62v0l2 -5v0l-5 -4v0l-111 -82v0l45 -90v0l43 59v0l5 7v0l6 -6v0l123 -100v0l6 -5v0l-5 -7v0l-40 -49v0l-5 -6v0l-6 5v0l-65 52v0l-48 -67v0l-3 -3v0h-4h-83zM94 249l68 -128l-68 128l68 -128h74v0l52 71v0l5 6v0l6 -5v0l65 -53v0l30 37v0
l-110 91v0l-46 -63v0l-8 -11v0l-6 12v0l-54 108v0l-3 6v0l6 4v0l112 83v0l-17 50v0h-220v0v-48v0h135h24l-19 -14v0l-73 -54v0q-22 -17 -27 -42q-6 -25 6 -50v0z" />
</svg>
