<?xml version="1.0" standalone="no"?>
<!DOCTYPE svg PUBLIC "-//W3C//DTD SVG 1.1//EN" "http://www.w3.org/Graphics/SVG/1.1/DTD/svg11.dtd" >
<svg xmlns="http://www.w3.org/2000/svg" xmlns:xlink="http://www.w3.org/1999/xlink" version="1.1" viewBox="-10 -40 596 512">
   <path fill="currentColor"
d="M346 -7h6h-6h230v16v0h-8h-210l-142 427v0l-2 5v0h-11v0l-2 -4v0l-118 -236v0h-75h-8v-16v0h8h85l2 4v0l112 223v0l137 -413v0l2 -6v0zM400 190l6 5l-6 -5l6 5l74 75v0l74 -75v0l6 -5v0l11 11v0l-5 6v0l-75 74v0l75 74v0l5 6v0l-11 11v0l-6 -5v0l-74 -75v0l-74 75v0l-6 5
v0l-11 -11v0l5 -6v0l75 -74v0l-75 -74v0l-5 -6v0l11 -11v0z" />
</svg>
