<?xml version="1.0" standalone="no"?>
<!DOCTYPE svg PUBLIC "-//W3C//DTD SVG 1.1//EN" "http://www.w3.org/Graphics/SVG/1.1/DTD/svg11.dtd" >
<svg xmlns="http://www.w3.org/2000/svg" xmlns:xlink="http://www.w3.org/1999/xlink" version="1.1" viewBox="-10 -40 660 512">
   <path fill="currentColor"
d="M272 7l-48 -28l48 28l-48 -28l-48 28v0l-7 4v0l-7 -3v0l-50 -22v0v87v0h224v0v-87v0l-49 22v0l-8 3v0l-7 -4v0zM112 105q1 48 33 79v0v0q31 32 79 33q48 -1 79 -33q32 -31 33 -79v-16v0h-224v0v16v0zM352 -39v18v-18v18v126v0q-1 54 -37 91q-37 36 -91 37q-54 -1 -91 -37
q-36 -37 -37 -91v-126v0v-18v0l16 7v0l56 25v0l56 -32v0l56 32v0l56 -25v0l16 -7v0zM22 457h404h-404h404l-54 -176v0h-296v0l-54 176v0zM64 265h320h-320h320l59 192v0l5 16v0h-17h-431l5 -16v0l59 -192v0zM623 473h-141h141h-141l-3 -9v0l-2 -7v0h141v0l-53 -160v0h-138v0
l-5 -16v0h154v0l59 176v0l5 16v0h-17v0zM432 217q-42 -1 -73 -27q5 -7 8 -14q27 24 65 25q41 -1 68 -28t28 -68q-1 -41 -28 -68t-68 -28q-27 0 -48 13v-7v0v-11v0q22 -11 48 -11q48 1 79 33q32 31 33 79q-1 48 -33 79q-31 32 -79 33v0z" />
</svg>
