<?xml version="1.0" standalone="no"?>
<!DOCTYPE svg PUBLIC "-//W3C//DTD SVG 1.1//EN" "http://www.w3.org/Graphics/SVG/1.1/DTD/svg11.dtd" >
<svg xmlns="http://www.w3.org/2000/svg" xmlns:xlink="http://www.w3.org/1999/xlink" version="1.1" viewBox="-10 -40 532 512">
   <path fill="currentColor"
d="M16 -7h-16h16h-16v8v0v432v0v8v0h16v0v-8v0v-432v0v-8v0zM150 99l-6 -5l6 5l-6 -5l-11 11v0l5 6v0l107 106v0l-107 106v0l-5 6v0l11 11v0l6 -5v0l106 -107v0l106 107v0l6 5v0l11 -11v0l-5 -6v0l-107 -106v0l107 -106v0l5 -6v0l-11 -11v0l-6 5v0l-106 107v0l-106 -107v0z
M512 1v-8v8v-8h-16v0v8v0v432v0v8v0h16v0v-8v0v-432v0z" />
</svg>
