<?xml version="1.0" standalone="no"?>
<!DOCTYPE svg PUBLIC "-//W3C//DTD SVG 1.1//EN" "http://www.w3.org/Graphics/SVG/1.1/DTD/svg11.dtd" >
<svg xmlns="http://www.w3.org/2000/svg" xmlns:xlink="http://www.w3.org/1999/xlink" version="1.1" viewBox="-10 -40 660 512">
   <path fill="currentColor"
d="M328 97q1 -51 35 -85v0v0q34 -34 85 -35h8h60l34 51v0l10 104v0l-68 34v0l-29 -56v0l-2 -5v0h-5h-24v8v0v88v0v0v0v0v0q-2 39 -29 63l-3 2v0v4v0v187v0h-72v0v-170v0v-7v0l-6 -1v0l-120 -26v0l-10 -2v0v9v0v5v0v40v0v8v0l-3 8v0l-18 40v0l-1 3v0l1 3v0l25 90v0h-83v0
l-23 -85v0l-4 -14v0l5 -13v0l20 -47v0l1 -1v0v-2v0v-20v0v-1v0l-1 -2v0l-33 -73v0q-6 -13 -6 -28q0 -21 12 -38q11 -16 30 -23q-3 -8 -5 -16q-22 9 -36 27h-1h-8q-27 1 -45 19t-19 45v88v0v8v0h16v0v-8v0v-88v0q1 -20 14 -34q13 -13 34 -14q-8 16 -8 34t7 34l33 72v0v17v0
l-19 45v0l-7 15v0l-1 3v0l1 3v0l4 16v0l25 91v0l2 6v0h6h110l-3 -10v0l-27 -98v0l16 -38v0l4 -9v0l1 -1v0v-2v0v-10v0v-35v0l104 23v0v172v0v8v0h8h96v-8v0v-192v0q27 -24 31 -63h1v0v-9v0v0v0v-80v0h3v0l30 60v0l3 7v0l8 -4v0l80 -40v0l5 -2v0l-1 -6v0l-9 -90v0l68 -30v0
l5 -2v0v-5v0v-8v0v-8v0h-8h-86l-11 -16v0h17h8v-16v0h-8h-104q-55 1 -93 37t-43 90l-172 -94v0l-12 -6v0v13v0q0 51 13 88l6 16q23 51 56 75q29 22 52 30q10 4 17 5h1l4 2h1h1v0v0v0v0v0v0v0q-1 2 1 -8l-1 8v0l8 1v0l2 -16v0l-8 -1v0v0v0v0v0v0v0v0v0v0v0h-1v0v0q-2 0 -4 -1
q-6 -1 -16 -5q-20 -7 -47 -27q-25 -19 -45 -56t-24 -97l164 89v0l2 1v0h2h16v-8v0zM556 9h56h-56h56l-46 21v0l-1 -6v0v-2v0l-1 -1v0l-8 -12v0zM512 41q-1 -15 -16 -16q-15 1 -16 16q1 15 16 16q15 -1 16 -16v0z" />
</svg>
