<?xml version="1.0" standalone="no"?>
<!DOCTYPE svg PUBLIC "-//W3C//DTD SVG 1.1//EN" "http://www.w3.org/Graphics/SVG/1.1/DTD/svg11.dtd" >
<svg xmlns="http://www.w3.org/2000/svg" xmlns:xlink="http://www.w3.org/1999/xlink" version="1.1" viewBox="-10 -40 526 512">
   <path fill="currentColor"
d="M274 8l-47 -47l47 47l-47 -47q-20 13 -47 38q-26 26 -47 61q-20 36 -21 77q1 60 41 100q39 40 98 44v0h6q6 0 12 -1q57 -6 93 -46q37 -39 38 -97q1 -20 -17 -60q-19 -41 -69 -87l-18 18v0l-11 12v0l-11 -12v0zM128 137q3 -55 40 -100q30 -36 57 -55l48 49v0l12 11v0
l11 -11v0l18 -19v0q42 41 56 76q15 34 14 49q-2 64 -50 101q11 -17 11 -38q-2 -33 -23 -60q-21 -28 -42 -45t-22 -17q-2 0 -23 17t-42 45q-21 27 -23 60q1 23 13 42q-25 -18 -40 -45t-15 -60v0zM256 265h-4q-29 -3 -47 -21q-18 -19 -19 -44q1 -19 12 -39q11 -19 27 -35
t29 -26q2 -1 3 -3q2 2 4 3q12 9 29 26q16 16 27 35t12 39q-1 24 -18 42q-16 18 -43 23h-12v0zM19 254l-7 -3l7 3l-7 -3l-6 15v0l7 3v0l222 92v0l-222 92v0l-8 3v0l7 15v0l7 -3v0l237 -98v0l237 98v0l7 3v0l6 -15v0l-7 -3v0l-222 -92v0l222 -92v0l7 -3v0l-6 -15v0l-7 3v0
l-237 98v0l-237 -98v0z" />
</svg>
