<?xml version="1.0" standalone="no"?>
<!DOCTYPE svg PUBLIC "-//W3C//DTD SVG 1.1//EN" "http://www.w3.org/Graphics/SVG/1.1/DTD/svg11.dtd" >
<svg xmlns="http://www.w3.org/2000/svg" xmlns:xlink="http://www.w3.org/1999/xlink" version="1.1" viewBox="-10 -40 655 512">
   <path fill="currentColor"
d="M524 -4q-36 18 -58 52v0v0q-21 34 -22 77q2 61 42 102q41 40 102 42q10 0 20 -2q14 -2 27 -6q-9 12 -20 21q-49 46 -119 47q-20 0 -39 -4q-13 -16 -30 -27q32 15 69 15q51 0 91 -28q-68 -2 -112 -48q-45 -45 -47 -112q1 -42 19 -76t50 -56h-1v0q-68 2 -113 47t-47 113
q0 20 5 38q-9 -3 -18 -4q-3 -17 -3 -34q2 -75 51 -124q50 -50 125 -52q13 0 26 2q15 2 28 7q-13 3 -26 10v0zM176 185q47 2 75 36q4 5 7 10q5 -3 9 -5q17 -9 37 -9q34 1 57 23q22 23 23 57q0 5 -1 11q0 3 -1 6l6 2q27 7 43 28q16 20 17 49v64v0v16v0h-16h-432v-16v0v-80v0
q1 -37 23 -62q22 -26 57 -33v-1v0q1 -41 28 -68t68 -28v0zM432 393q-1 -24 -15 -41v0v0q-15 -18 -38 -22l-16 -3v0l3 -16v0q2 -7 2 -14q-1 -27 -19 -45t-45 -19q-21 0 -37 11l-14 10v0l-9 -14v0q-23 -37 -68 -39q-34 1 -57 23q-22 23 -23 57v1v0v14v0l-13 2v0q-29 5 -48 27
q-18 22 -19 52v80v0h80h336v-64v0z" />
</svg>
