<?xml version="1.0" standalone="no"?>
<!DOCTYPE svg PUBLIC "-//W3C//DTD SVG 1.1//EN" "http://www.w3.org/Graphics/SVG/1.1/DTD/svg11.dtd" >
<svg xmlns="http://www.w3.org/2000/svg" xmlns:xlink="http://www.w3.org/1999/xlink" version="1.1" viewBox="-10 -40 468 512">
   <path fill="currentColor"
d="M384 -39h-320h320h-320l-32 64v0h-16h-16v16v0v32v0v16v0h16h432v-16v0v-32v0v-16v0h-16h-16l-32 -64v0zM416 41h16h-16h16v32v0h-16h-400v-32v0h16h10l4 -9v0l28 -55v0h300v0l28 55v0l4 9v0h10v0zM47 121l33 352l-33 -352l33 352h288v0l33 -352v0h-16v0l-6 64v0h-310v0
l-5 -64v0h-17v0zM71 201h306h-306h306l-13 144v0h-280v0l-13 -144v0zM86 361h276h-276h276l-9 96v0h-258v0l-9 -96v0z" />
</svg>
