<?xml version="1.0" standalone="no"?>
<!DOCTYPE svg PUBLIC "-//W3C//DTD SVG 1.1//EN" "http://www.w3.org/Graphics/SVG/1.1/DTD/svg11.dtd" >
<svg xmlns="http://www.w3.org/2000/svg" xmlns:xlink="http://www.w3.org/1999/xlink" version="1.1" viewBox="-10 -40 660 512">
   <path fill="currentColor"
d="M120 41q-24 1 -40 16v0v0q-15 16 -16 40v88v0v8v0v8v0v24v0q0 22 -14 37q-13 15 -34 18q-4 1 -8 1h-8v0v-16v0v-24v0q0 -22 14 -37q13 -15 34 -18v-89v0q1 -31 21 -51t51 -21h48h308l2 3v0l82 110v0v-1v0h8h56v8v0v24v0v56v0l14 19v0l2 2v0v3v0v152v0v8v0h-8h-76l-2 -3v0
l-66 -88v0q-8 -10 -8 -24v-49v0l-32 -21v0v177v0v8v0h-8h-104v-8v0v-78v0l-7 2v0q-12 2 -25 4v0v0v16v0v8v0h-16v0v-8v0v-15v0q-16 1 -32 0v15v0v8v0h-16v0v-8v0v-16v0v0v0q-13 -2 -25 -4l-7 -2v0v78v0v8v0h-8h-104v-8v0v-304v0q1 -35 27 -56h-3v0zM208 307l10 2l-10 -2
l10 2q54 12 108 0l10 -2v0v-18v0q-1 -27 -19 -45t-45 -19q-27 1 -45 19t-19 45v18v0zM160 42q1 36 26 62l3 3v0q31 29 73 30h4v0q42 -1 73 -30l3 -3v0q25 -26 26 -63v0v0h-184h-16q-4 0 -8 1v0zM144 46q-30 16 -32 51v296v0h80v0v-104v0q1 -34 23 -57q23 -22 57 -23
q34 1 57 23q22 23 23 57v104v0h80v0v-184v0v-15v0l12 8v0l48 32v0l4 3v0v4v0v53v0q0 8 5 15l63 84v0h60v0v-141v0l-14 -20v0l-2 -2v0v-3v0v-58v0v-16v0h-32v0v10v0v24v0l-14 -20v0l-94 -126v0h-84v0v0v0q-1 43 -30 74l-4 3v0q-35 34 -84 35h-4v0q-49 -1 -85 -35l-3 -3v0
q-28 -29 -30 -69v0zM16 241v23v-23v23q30 -8 32 -39v-23v0q-30 8 -32 39v0zM552 281q1 -15 16 -16q15 1 16 16q-1 15 -16 16q-15 -1 -16 -16v0z" />
</svg>
