<?xml version="1.0" standalone="no"?>
<!DOCTYPE svg PUBLIC "-//W3C//DTD SVG 1.1//EN" "http://www.w3.org/Graphics/SVG/1.1/DTD/svg11.dtd" >
<svg xmlns="http://www.w3.org/2000/svg" xmlns:xlink="http://www.w3.org/1999/xlink" version="1.1" viewBox="-10 -40 532 512">
   <path fill="currentColor"
d="M231 297h105h-105h105q68 -2 113 -47t47 -113q-2 -68 -47 -113t-113 -47q-68 2 -113 47t-47 113v105v0l55 55v0zM227 313l-52 52l52 -52l-52 52q16 18 17 44q-1 27 -19 45t-45 19q-27 -1 -45 -19t-19 -45q-27 -1 -45 -19t-19 -45q1 -27 19 -45t45 -19q26 1 44 17l52 -52
v0v-109v0q2 -75 52 -124q49 -50 124 -52q75 2 124 52q50 49 52 124q-2 75 -52 124q-49 50 -124 52h-109v0zM168 257v0v0v0l2 2v0l-57 56v0l-6 7v0l-6 -7v0q-14 -17 -37 -18q-20 1 -34 14q-13 14 -14 34q1 20 14 34q14 13 34 14q4 0 7 -1l11 -1v0l-1 10v0q-1 4 -1 8
q0 20 14 34q14 13 34 14q20 -1 34 -14q13 -14 14 -34q-1 -23 -18 -37l-7 -6v0l7 -6v0l56 -57v0l2 2v0v0v0l-48 -48v0zM280 193v0v0v0v0v0v0v0z" />
</svg>
