<?xml version="1.0" standalone="no"?>
<!DOCTYPE svg PUBLIC "-//W3C//DTD SVG 1.1//EN" "http://www.w3.org/Graphics/SVG/1.1/DTD/svg11.dtd" >
<svg xmlns="http://www.w3.org/2000/svg" xmlns:xlink="http://www.w3.org/1999/xlink" version="1.1" viewBox="-10 -40 458 512">
   <path fill="currentColor"
d="M160 132v-11v11v-11v-144v0h128v0v144v0v11v0l10 4v0q53 22 85 69t33 108q0 43 -18 80q-17 37 -47 64h-254v0q-30 -27 -47 -64q-18 -37 -18 -80q1 -61 33 -108t85 -69l10 -4v0zM304 121v-144v144v-144h24v0q7 -1 8 -8q-1 -7 -8 -8h-24h-192v16v0h8h24v144v0
q-57 24 -92 75t-36 117q0 49 20 90t55 70h266v0q35 -29 55 -70t20 -90q-1 -66 -36 -117t-92 -75v0zM120 273q1 -33 30 -56v0v0q29 -23 74 -24q45 1 74 24t30 56q-2 41 -44 65l-4 3v0v4v0v32v0h-112v0v-32v0v-4v0l-4 -3v0q-42 -24 -44 -65v0zM224 177q-50 1 -84 27v0v0
q-35 27 -36 69q3 50 48 77v35v0v8v0h8h136v-8v0v-35v0q45 -27 48 -77q-1 -42 -36 -69q-34 -26 -84 -27v0zM264 289q-15 -1 -16 -16q1 -15 16 -16q15 1 16 16q-1 15 -16 16v0zM232 273q0 14 9 23v0v0q9 9 23 9t23 -9t9 -23t-9 -23t-23 -9t-23 9t-9 23v0zM200 273
q-1 15 -16 16q-15 -1 -16 -16q1 -15 16 -16q15 1 16 16v0zM184 241q-14 0 -23 9v0v0q-9 9 -9 23t9 23t23 9t23 -9t9 -23t-9 -23t-23 -9v0z" />
</svg>
