<?xml version="1.0" standalone="no"?>
<!DOCTYPE svg PUBLIC "-//W3C//DTD SVG 1.1//EN" "http://www.w3.org/Graphics/SVG/1.1/DTD/svg11.dtd" >
<svg xmlns="http://www.w3.org/2000/svg" xmlns:xlink="http://www.w3.org/1999/xlink" version="1.1" viewBox="-10 -40 660 512">
   <path fill="currentColor"
d="M320 41q15 -1 16 -16q-1 -18 -13 -35l-1 -1q-1 -2 -2 -3q-1 2 -3 4q-12 17 -13 35q1 15 16 16v0zM310 -27q9 -11 10 -12v0v0v0q1 0 10 12q8 10 15 23q7 14 7 29q0 14 -9 23t-23 9t-23 -9t-9 -23q0 -15 7 -29q7 -13 15 -23v0zM224 73q15 -1 16 -16q-1 -18 -13 -35
q-2 -2 -3 -4q-1 2 -3 4q-12 17 -13 35q1 15 16 16v0zM214 5q9 -12 10 -12t10 12q8 10 15 23q7 14 7 29q0 14 -9 23t-23 9t-23 -9t-9 -23q0 14 -9 23t-23 9t-23 -9t-9 -23q0 14 -9 23t-23 9t-23 -9t-9 -23q0 14 -9 23t-23 9t-23 -9t-9 -23q0 -15 7 -29q7 -13 15 -23
q9 -12 10 -12t10 12q8 10 15 23q7 14 7 29q0 -15 7 -29q7 -13 15 -23q9 -12 10 -12v0q1 0 10 12q8 10 15 23q7 14 7 29q0 -15 7 -29q7 -13 15 -23q9 -12 10 -12t10 12q8 10 15 23q7 14 7 29q0 -15 7 -29q7 -13 15 -23v0zM176 57q-1 -18 -13 -35q-2 -2 -3 -4v0q-1 2 -3 4
q-12 17 -13 35q1 15 16 16q15 -1 16 -16v0zM96 73q15 -1 16 -16q-1 -18 -13 -35q-2 -2 -3 -4q-1 2 -3 4q-12 17 -13 35q1 15 16 16v0zM48 57q-1 -18 -13 -35q-2 -2 -3 -4q-1 2 -3 4q-12 17 -13 35q1 15 16 16q15 -1 16 -16v0zM416 73q15 -1 16 -16q-1 -18 -13 -35
q-2 -2 -3 -4q-1 2 -3 4q-12 17 -13 35q1 15 16 16v0zM406 5q9 -12 10 -12t10 12q8 10 15 23q7 14 7 29q0 -15 7 -29q7 -13 15 -23q9 -12 10 -12t10 12q8 10 15 23q7 14 7 29q0 -15 7 -29q7 -13 15 -23q9 -12 10 -12t10 12q8 10 15 23q7 14 7 29q0 -15 7 -29q7 -13 15 -23
q9 -12 10 -12t10 12q8 10 15 23q7 14 7 29q0 14 -9 23t-23 9t-23 -9t-9 -23q0 14 -9 23t-23 9t-23 -9t-9 -23q0 14 -9 23t-23 9t-23 -9t-9 -23q0 14 -9 23t-23 9t-23 -9t-9 -23q0 -15 7 -29q7 -13 15 -23v0zM496 57q-1 -18 -13 -35q-2 -2 -3 -4q-1 2 -3 4q-12 17 -13 35
q1 15 16 16q15 -1 16 -16v0zM544 73q15 -1 16 -16q-1 -18 -13 -35q-2 -2 -3 -4q-1 2 -3 4q-12 17 -13 35q1 15 16 16v0zM624 57q-1 -18 -13 -35q-2 -2 -3 -4q-1 2 -3 4q-12 17 -13 35q1 15 16 16q15 -1 16 -16v0zM328 89v8v-8v8v232v0h80v0v-200v0v-8v0h16v0v8v0v200v0h48v0
v-200v0v-8v0h16v0v8v0v200v0h48v0v-200v0v-8v0h16v0v8v0v199v0q21 -3 34 -18q14 -15 14 -37v-144v0v-8v0h16v0v8v0v144v0q-1 31 -21 51t-51 21h-216v0v112v0h176h8v16v0h-8h-376v-16v0h8h176v-112v0h-216v0q-31 -1 -51 -21t-21 -51v-144v0v-8v0h16v0v8v0v144v0q0 22 14 37
q13 15 34 18v-199v0v-8v0h16v0v8v0v200v0h48v0v-200v0v-8v0h16v0v8v0v200v0h48v0v-200v0v-8v0h16v0v8v0v200v0h80v0v-232v0v-8v0h16v0z" />
</svg>
