<?xml version="1.0" standalone="no"?>
<!DOCTYPE svg PUBLIC "-//W3C//DTD SVG 1.1//EN" "http://www.w3.org/Graphics/SVG/1.1/DTD/svg11.dtd" >
<svg xmlns="http://www.w3.org/2000/svg" xmlns:xlink="http://www.w3.org/1999/xlink" version="1.1" viewBox="-10 -40 596 512">
   <path fill="currentColor"
d="M0 425l64 -80l-64 80l64 -80v-96v0q1 -81 30 -146t79 -103t115 -39h169h23l-16 16v0l-45 45v0l-12 12v0q7 4 13 9q42 33 67 85q24 52 25 121v96v0l64 80v0v32v0v16v0h-16h-560v-16v0v-32v0zM288 -23q-89 2 -147 78v0v0q-59 75 -61 194v96v0v6v0l-3 4v0l-61 76v0v26v0h144
v0v-176v0q1 -54 37 -91q37 -36 91 -37q54 1 91 37q36 37 37 91v176v0h144v0v-26v0l-60 -76v0l-4 -4v0v-6v0v-96v0q-1 -70 -27 -121q-27 -51 -71 -81l-16 -11v0l14 -14v0l45 -45v0h-153v0zM176 457h224h-224h224v-176v0q-1 -48 -33 -79q-31 -32 -79 -33q-48 1 -79 33
q-32 31 -33 79v176v0z" />
</svg>
