<?xml version="1.0" standalone="no"?>
<!DOCTYPE svg PUBLIC "-//W3C//DTD SVG 1.1//EN" "http://www.w3.org/Graphics/SVG/1.1/DTD/svg11.dtd" >
<svg xmlns="http://www.w3.org/2000/svg" xmlns:xlink="http://www.w3.org/1999/xlink" version="1.1" viewBox="-10 -40 593 512">
   <path fill="currentColor"
d="M293 -29l-5 -4l5 4l-5 -4l-5 4v0l-280 240v0l10 12v0l51 -43v0v285v0v8v0h8h440v-8v0v-285v0l51 43v0l10 -12v0l-61 -52v0v-158v0v-8v0h-8h-120v8v0v48v0l-91 -78v0zM400 63v-54v54v-54h96v0v136v0l-96 -83v1zM496 166v291v-291v291h-196v0l-57 -85v0l105 -60v0l10 -6v0
l-9 -7v0l-112 -96v0l-6 -5v0l-10 12v0l6 5v0l103 89v0l-102 58v0l-7 4v0l4 8v0l56 83v0h-201v0v-291v0l208 -178v0l208 178v0z" />
</svg>
