<?xml version="1.0" standalone="no"?>
<!DOCTYPE svg PUBLIC "-//W3C//DTD SVG 1.1//EN" "http://www.w3.org/Graphics/SVG/1.1/DTD/svg11.dtd" >
<svg xmlns="http://www.w3.org/2000/svg" xmlns:xlink="http://www.w3.org/1999/xlink" version="1.1" viewBox="-10 -40 595 512">
   <path fill="currentColor"
d="M481 -32l88 80l-88 -80l88 80l6 5v0l-6 6v0l-105 113v0v61v0v5v0l-5 2v0l-56 24v0l-5 3v0l-4 -4v0l-104 -104v0l-5 -6v0l5 -6v0l180 -179v0l5 -5v0l6 5v0zM307 153l95 95l-95 -95l95 95l46 -20v0v-59v0v-3v0l2 -2v0l102 -110v0l-76 -69v0l-169 168v0zM11 430l232 -238
l-232 238l232 -238l12 11v0l-230 235v0q4 2 10 4q25 13 77 15q82 -1 142 -33q60 -31 113 -85l-20 -21v0l-12 -11v0l12 -11v0l43 43v0l-11 11q-55 55 -117 89q-63 33 -150 34q-36 -1 -61 -8q-24 -7 -37 -15q-14 -8 -14 -9l11 -11v0zM416 105q1 -15 16 -16q15 1 16 16
q-1 15 -16 16q-15 -1 -16 -16v0zM480 41q15 1 16 16q-1 15 -16 16q-15 -1 -16 -16q1 -15 16 -16v0z" />
</svg>
