<?xml version="1.0" standalone="no"?>
<!DOCTYPE svg PUBLIC "-//W3C//DTD SVG 1.1//EN" "http://www.w3.org/Graphics/SVG/1.1/DTD/svg11.dtd" >
<svg xmlns="http://www.w3.org/2000/svg" xmlns:xlink="http://www.w3.org/1999/xlink" version="1.1" viewBox="-10 -40 532 512">
   <path fill="currentColor"
d="M475 11l-27 94l27 -94l-27 94l50 31v0l14 9v0l-13 11v0l-67 56v0l-16 13v0l21 4v0l11 1v0l16 3v0l-4 16v0l-12 48v0l44 38v0l12 10v0l-12 11v0l-44 37v0l6 63v0l2 17v0l-16 -4v0l-168 -44v0l-36 36v0l-12 12v0l-8 -14v0l-68 -123v0l-131 131v0l-5 6v0l-12 -11v0l6 -6v0
l131 -131v0l-122 -68v0l-15 -8v0l12 -12v0l36 -36v0l-44 -167v0l-4 -17v0l17 2v0l63 6v0l38 -44v0l10 -12v0l11 12v0l37 44v0l48 -12v0l16 -4v0l3 16v0l2 11v0l3 21v0l14 -16v0l55 -67v0l11 -13v0l9 14v0l31 50v0l94 -27v0l18 -5v0l-5 18v0zM149 313l157 -158l-157 158
l157 -158l6 -5v0l11 11v0l-5 6v0l-158 158v0l68 122v0l33 -33v0l6 -7v0l9 3v0l162 42v0l-6 -57v0l-1 -9v0l7 -5v0l41 -36v0l-41 -36v0l-8 -6v0l3 -10v0l11 -47v0l-31 -5v0l-34 -6v0l27 -22v0l79 -66v0l-45 -29v0l-11 -6v0l4 -12v0l24 -84v0l-85 24v0l-11 4v0l-7 -10v0
l-28 -46v0l-66 79v0l-22 27v0l-6 -34v0l-5 -31v0l-47 12v0l-10 2v0l-6 -8v0l-36 -41v0l-36 41v0l-5 7v0l-9 -1v0l-57 -6v0l43 162v0l2 9v0l-7 6v0l-33 33v0l123 68v0z" />
</svg>
