<?xml version="1.0" standalone="no"?>
<!DOCTYPE svg PUBLIC "-//W3C//DTD SVG 1.1//EN" "http://www.w3.org/Graphics/SVG/1.1/DTD/svg11.dtd" >
<svg xmlns="http://www.w3.org/2000/svg" xmlns:xlink="http://www.w3.org/1999/xlink" version="1.1" viewBox="-11 0 598 512">
   <path fill="currentColor"
d="M262 297h10h-10h52l4 9v0l44 87v0h38v0q68 -1 113 -42q45 -40 47 -118q2 -81 -54 -134q-30 -26 -83 -42t-135 -16t-135 16t-82 42q-57 53 -55 134q2 78 47 118q45 41 113 42h38v0l44 -87v0l4 -9v0zM224 409h-48h48h-48q-74 0 -124 -46q-50 -45 -52 -130q-1 -57 25 -104
t89 -75t174 -29q111 1 174 29t89 75t25 104q-2 85 -52 130q-50 46 -124 46h-48v0l-48 -96v0h-32v0l-48 96v0zM160 265q27 -1 42 -24q12 -24 0 -48q-15 -23 -42 -24q-27 1 -42 24q-12 24 0 48q15 23 42 24v0zM160 153q36 1 55 32q18 32 0 64q-19 31 -55 32q-36 -1 -55 -32
q-18 -32 0 -64q19 -31 55 -32v0zM464 217q-1 -27 -24 -42q-24 -12 -48 0q-23 15 -24 42q1 27 24 42q24 12 48 0q23 -15 24 -42v0zM352 217q1 -36 32 -55q32 -18 64 0q31 19 32 55q-1 36 -32 55q-32 18 -64 0q-31 -19 -32 -55v0z" />
</svg>
