<?xml version="1.0" standalone="no"?>
<!DOCTYPE svg PUBLIC "-//W3C//DTD SVG 1.1//EN" "http://www.w3.org/Graphics/SVG/1.1/DTD/svg11.dtd" >
<svg xmlns="http://www.w3.org/2000/svg" xmlns:xlink="http://www.w3.org/1999/xlink" version="1.1" viewBox="-10 -40 522 512">
   <path fill="currentColor"
d="M324 73q27 0 50 12q19 -42 13 -88l-2 -20v0h-22v0l-8 8v0q-16 16 -26 35q-4 -9 -9 -18q10 -15 23 -28l11 -11v0l2 -2v0h3h39l1 7v0l4 26v0q7 53 -15 99q3 2 6 5v0l59 48v0l3 2v0v4v0v89v0v8v0h-8h-82l119 210v0q0 1 1 3l6 11v0h-13h-78l-3 -4v0l-70 -125v0l-44 49v0h20
h40v8v0v64v0v8v0h-8h-240v-8v0v-33v0q-14 9 -32 9q-27 -1 -45 -19t-19 -45q1 -27 19 -45t45 -19q23 0 40 14q17 -53 57 -89q40 -37 95 -49v-45v0q-30 -29 -44 -68q-13 -40 -8 -82l4 -26v0l1 -7v0h7h35l3 2v0l10 11v0q42 42 47 100q7 -1 13 -1v0zM100 345q-14 -15 -36 -16
q-20 1 -34 14q-13 14 -14 34q1 20 14 34q14 13 34 14q19 0 32 -12v-28v0q0 -20 4 -40v0zM220 -3q-5 38 8 74v0v0q12 36 41 63l1 1v0l2 2v0v4v0v0v0v55v0v6v0l-7 2v0q-66 12 -109 62q-43 49 -44 119v72v0h32h184v-48v0h-24h-56l12 -13v0l63 -71v0l8 -8v0l5 9v0l74 131v0h55v0
l-120 -212v0l-6 -12v0h13h88v-77v0l-56 -46v0q-26 -21 -60 -21q-9 0 -17 3l-11 4v0v-11v0q-2 -58 -43 -100l-8 -8v0h-22v0l-3 20v0zM352 137q15 1 16 16q-1 15 -16 16q-15 -1 -16 -16q1 -15 16 -16v0z" />
</svg>
