<?xml version="1.0" standalone="no"?>
<!DOCTYPE svg PUBLIC "-//W3C//DTD SVG 1.1//EN" "http://www.w3.org/Graphics/SVG/1.1/DTD/svg11.dtd" >
<svg xmlns="http://www.w3.org/2000/svg" xmlns:xlink="http://www.w3.org/1999/xlink" version="1.1" viewBox="-10 -40 468 512">
   <path fill="currentColor"
d="M400 425v-272v272v-272q-2 -75 -52 -124q-49 -50 -124 -52q-75 2 -124 52q-50 49 -52 124v272v0h-16v0v-272v0q2 -82 56 -136t136 -56q82 2 136 56t56 136v272v0h-16v0zM0 457h8h-8h448v16v0h-8h-440v-16v0zM232 97v72v-72v72h80h8v16v0h-8h-80v152v0v8v0h-16v0v-8v0
v-152v0h-80h-8v-16v0h8h80v-72v0v-8v0h16v0v8v0z" />
</svg>
