<?xml version="1.0" standalone="no"?>
<!DOCTYPE svg PUBLIC "-//W3C//DTD SVG 1.1//EN" "http://www.w3.org/Graphics/SVG/1.1/DTD/svg11.dtd" >
<svg xmlns="http://www.w3.org/2000/svg" xmlns:xlink="http://www.w3.org/1999/xlink" version="1.1" viewBox="-10 -40 532 512">
   <path fill="currentColor"
d="M176 -39q58 2 90 48l2 2v-1h1q23 -15 51 -15q41 1 68 29q27 29 28 71q41 1 68 30q27 28 28 71v85v0v16v0h-16h-118l3 -14v0l-1 -2v0h36h80v-85v0q-1 -36 -24 -60q-22 -24 -56 -25h-16v0v-16v0q-1 -36 -24 -60q-22 -24 -56 -24q-24 0 -43 13l-14 9v0l-9 -13v0
q-28 -41 -78 -43q-40 1 -68 29q-27 29 -28 73v22v0v11v0l-10 4v0q-24 9 -39 30q-15 22 -15 50v85v0h80h36l-1 2v0l3 14v0h-38h-96v-16v0v-85v0q1 -33 18 -59q18 -25 46 -36v-22v0q1 -50 33 -84q31 -33 79 -34v0zM188 399l-5 25l5 -25l-5 25l10 10v0l25 -5v0l11 -2v0l6 9v0
l14 21v0h14v0l14 -21v0l6 -9v0l11 2v0l25 5v0l10 -10v0l-5 -25v0l-2 -10v0l9 -6v0l21 -14v0v-15v0l-21 -14v0l-9 -6v0l2 -11v0l5 -24v0l-11 -11v0l-24 5v0l-11 2v0l-6 -9v0l-14 -21v0h-14v0l-14 21v0l-6 9v0l-11 -2v0l-24 -5v0l-11 11v0l5 24v0l2 11v0l-9 6v0l-21 14v0v15v0
l21 14v0l9 5v0l-2 11v0zM144 345l28 -19l-28 19l28 -19l-6 -33v0l22 -22v0l33 6v0l19 -28v0h32v0l19 28v0l33 -6v0l22 22v0l-6 33v0l28 19v0v32v0l-28 19v0l7 33v0l-23 22v0l-33 -6v0l-19 28v0h-32v0l-19 -28v0l-33 7v0l-22 -23v0l6 -33v0l-28 -19v0v-32v0zM80 377
q0 -14 -9 -23v0v0q-9 -9 -23 -9t-23 9t-9 23t9 23t23 9t23 -9t9 -23v0zM0 377q1 -27 24 -42q24 -12 48 0q23 15 24 42q-1 27 -24 42q-24 12 -48 0q-23 -15 -24 -42v0zM464 409q14 0 23 -9v0v0q9 -9 9 -23t-9 -23t-23 -9t-23 9t-9 23t9 23t23 9v0zM464 329q27 1 42 24
q12 24 0 48q-15 23 -42 24q-27 -1 -42 -24q-12 -24 0 -48q15 -23 42 -24v0z" />
</svg>
