<?xml version="1.0" standalone="no"?>
<!DOCTYPE svg PUBLIC "-//W3C//DTD SVG 1.1//EN" "http://www.w3.org/Graphics/SVG/1.1/DTD/svg11.dtd" >
<svg xmlns="http://www.w3.org/2000/svg" xmlns:xlink="http://www.w3.org/1999/xlink" version="1.1" viewBox="-10 -40 658 512">
   <path fill="currentColor"
d="M565 -30q-18 2 -34 8q-37 15 -60 48q-22 33 -23 75q1 56 39 93q37 38 93 39q13 0 26 -2q17 -4 32 -11q-11 14 -25 25q-43 35 -101 36h-12q-17 -15 -38 -23v-2v0q23 9 50 9q36 0 66 -16q-62 -2 -103 -44t-43 -104q0 -39 18 -71t48 -52q-56 6 -92 46q-37 40 -38 97
q0 19 5 37q-9 -2 -17 -3q-4 -17 -4 -34q2 -68 47 -113t113 -47q9 0 17 1q19 2 36 8v0zM261 221q28 -34 75 -36q41 1 68 28t28 68v1v0q35 7 57 33t23 62v80v0v16v0h-16h-432v-16v0v-64v0q1 -28 17 -49t43 -28l6 -2q-1 -3 -1 -6q-1 -6 -1 -11q1 -34 23 -57q23 -22 57 -23
q20 0 37 9q4 2 9 5q3 -5 7 -10v0zM80 457h64h-64h416v-80v0q-1 -30 -19 -52q-19 -22 -48 -27l-13 -2v0v-14v0v-1v0q-1 -34 -23 -57q-23 -22 -57 -23q-45 2 -68 39l-9 14v0l-14 -10v0q-16 -11 -37 -11q-27 1 -45 19t-19 45q0 7 2 14l3 16v0l-16 3v0q-23 4 -38 22
q-15 17 -15 41v64v0zM233 105h-10h10h-10l-4 -9v0q-17 -37 -59 -39q-24 1 -41 15t-22 36l-2 13v0h-13h-10q-24 1 -39 17q-16 15 -17 39v56v0h56h16v0v0h28v0q-5 8 -9 16h-35v0v0v0h-56h-16v-16v0v-56v0q1 -31 21 -51t51 -21h10v0q6 -28 27 -46q21 -17 51 -18q25 0 44 13
q20 14 29 35h23v0q27 1 45 19t19 45v1v0q-8 1 -16 3v-4v0q-1 -20 -14 -34q-14 -13 -34 -14h-23v0z" />
</svg>
