<?xml version="1.0" standalone="no"?>
<!DOCTYPE svg PUBLIC "-//W3C//DTD SVG 1.1//EN" "http://www.w3.org/Graphics/SVG/1.1/DTD/svg11.dtd" >
<svg xmlns="http://www.w3.org/2000/svg" xmlns:xlink="http://www.w3.org/1999/xlink" version="1.1" viewBox="-10 -40 532 512">
   <path fill="currentColor"
d="M256 18l-92 -49l92 49l-92 -49l-14 -8v0l-5 16v0l-30 99v0l-99 30v0l-16 5v0l8 14v0l49 92v0l-49 92v0l-8 14v0l16 5v0l99 30v0l30 99v0l5 16v0l14 -8v0l92 -49v0l92 49v0l14 8v0l5 -16v0l30 -99v0l99 -30v0l16 -5v0l-8 -14v0l-49 -92v0l49 -92v0l8 -14v0l-16 -5v0
l-99 -30v0l-30 -99v0l-5 -16v0l-14 8v0l-92 49v0zM352 -16l29 97l-29 -97l29 97l3 8v0l8 3v0l97 29v0l-48 89v0l-4 7v0l4 8v0l48 89v0l-97 29v0l-8 2v0l-3 8v0l-29 97v0l-88 -48v0l-8 -4v0l-8 4v0l-89 48v0l-29 -97v0l-2 -8v0l-8 -2v0l-97 -29v0l48 -89v0l4 -8v0l-4 -7v0
l-48 -89v0l97 -29v0l8 -3v0l3 -8v0l29 -97v0l89 48v0l7 4v0l8 -4v0l89 -48h-1zM400 217q0 -39 -19 -72v0v0q-19 -33 -53 -53q-34 -19 -72 -19t-72 19q-34 20 -53 53t-19 72t19 72t53 53q34 19 72 19t72 -19q34 -20 53 -53t19 -72v0zM256 89q35 0 64 17v0v0q29 17 47 47
q17 30 17 64t-17 64q-18 30 -47 47t-64 17t-64 -17t-47 -47q-17 -30 -17 -64t17 -64q18 -30 47 -47t64 -17v0zM256 299q-35 -1 -58 -24v0v0q-23 -23 -24 -58q1 -31 19 -53q19 -22 48 -28q-20 25 -21 59q1 35 22 61q21 25 54 33q-18 10 -40 10v0zM236 195q2 -37 28 -60
q9 -7 20 -12q-12 -3 -25 -4h-1h-2q-42 1 -69 29q-28 27 -29 69q1 42 29 69q27 28 69 29q38 -1 65 -25q9 -8 16 -18q-10 2 -21 3h-1h-1q-33 -2 -55 -24t-23 -56v0z" />
</svg>
