<?xml version="1.0" standalone="no"?>
<!DOCTYPE svg PUBLIC "-//W3C//DTD SVG 1.1//EN" "http://www.w3.org/Graphics/SVG/1.1/DTD/svg11.dtd" >
<svg xmlns="http://www.w3.org/2000/svg" xmlns:xlink="http://www.w3.org/1999/xlink" version="1.1" viewBox="-10 -40 468 512">
   <path fill="currentColor"
d="M16 -31v-8v8v-8h-16v0v8v0v24v0v16v0v288v0v16v0v152v0v8v0h16v0v-8v0v-152v0h413h19l-11 -16v0l-101 -144v0l101 -144v0l11 -16v0h-19h-413v-24v0zM16 9h401h-401h401l-94 135v0l-6 9v0l6 9v0l94 135v0h-401v0v-288v0z" />
</svg>
