<?xml version="1.0" standalone="no"?>
<!DOCTYPE svg PUBLIC "-//W3C//DTD SVG 1.1//EN" "http://www.w3.org/Graphics/SVG/1.1/DTD/svg11.dtd" >
<svg xmlns="http://www.w3.org/2000/svg" xmlns:xlink="http://www.w3.org/1999/xlink" version="1.1" viewBox="-10 -40 660 512">
   <path fill="currentColor"
d="M464 89v16v-16v16h16v0q34 1 57 23q22 23 23 57v80v0h-80h-400v-80v0q0 -27 15 -47t38 -28l11 -4v0v-11v0v-22v0q1 -41 28 -68t68 -28q51 2 79 41l8 12v0l13 -8v0q20 -13 44 -13q34 1 57 23q22 23 23 57v0zM64 281h16h-16h512v-16v0v-80v0q-1 -41 -28 -68t-68 -28
q-1 -41 -28 -68t-68 -28q-29 0 -52 16q-33 -46 -92 -48q-48 1 -79 33q-32 31 -33 79v22v0q-28 10 -46 34q-17 24 -18 56v80v0v16v0zM0 361v16v-16v16h8h568v-16v0h-8h-568zM64 457v16v-16v16h8h152v-16v0h-8h-152zM288 457v16v-16v16h8h344v-16v0h-8h-344z" />
</svg>
