<?xml version="1.0" standalone="no"?>
<!DOCTYPE svg PUBLIC "-//W3C//DTD SVG 1.1//EN" "http://www.w3.org/Graphics/SVG/1.1/DTD/svg11.dtd" >
<svg xmlns="http://www.w3.org/2000/svg" xmlns:xlink="http://www.w3.org/1999/xlink" version="1.1" viewBox="-10 -40 660 512">
   <path fill="currentColor"
d="M544 2q-15 -4 -31 -6q-16 -3 -33 -3q-91 2 -153 61q-62 58 -70 147q8 1 15 3q7 -84 65 -138q58 -55 143 -57h6q-47 28 -74 75q-28 46 -28 104q2 87 59 145q57 59 143 63q-47 28 -106 29q-74 -1 -128 -44v20v0q56 39 128 40q78 -1 136 -46q13 -10 24 -21q-15 4 -30 5
q-9 1 -19 1q-81 -2 -135 -56t-56 -136q0 -60 32 -106q31 -47 83 -70q14 -6 29 -10v0zM64 249q-27 1 -45 19v0v0q-18 18 -19 45v48v0v16v0h16h304v-16v0v-56v0q-1 -31 -21 -51t-51 -21q-10 0 -19 2q-5 2 -9 4q-2 -6 -5 -11q-10 -19 -29 -31t-42 -12q-30 1 -51 18
q-21 18 -27 46h-1h-1v0zM304 305v56v-56v56h-56h-232v-48v0q1 -20 14 -34q14 -13 34 -14h1v0h14v0l2 -13v0q5 -22 22 -36q17 -15 41 -15q21 0 37 12q17 12 24 31l5 16v0l16 -6v0q10 -5 22 -5q24 1 40 16q15 16 16 40v0z" />
</svg>
