<?xml version="1.0" standalone="no"?>
<!DOCTYPE svg PUBLIC "-//W3C//DTD SVG 1.1//EN" "http://www.w3.org/Graphics/SVG/1.1/DTD/svg11.dtd" >
<svg xmlns="http://www.w3.org/2000/svg" xmlns:xlink="http://www.w3.org/1999/xlink" version="1.1" viewBox="-10 -40 660 512">
   <path fill="currentColor"
d="M107 81l-79 13l79 -13l-79 13l46 66v0l6 9v0l-6 9v0l-46 66v0l79 13v0l11 2v0l2 12v0l13 79v0l27 -20v0v20v0l-24 17v0l-15 10v0l-3 -17v0l-14 -87v0l-86 -14v0l-18 -3v0l10 -15v0l51 -72v0l-51 -72v0l-10 -15v0l18 -3v0l86 -14v0l14 -86v0l3 -18v0l15 10v0l72 51v0
l72 -51v0l15 -10v0l3 18v0l10 61v0q-8 4 -15 9l-10 -60v0l-66 46v0l-9 6v0l-9 -6v0l-66 -46v0l-13 79v0l-2 11v0l-12 2h1zM208 73q28 0 50 14q-4 7 -7 14q-19 -12 -43 -12q-34 1 -57 23q-22 23 -23 57q2 41 33 65q-1 7 -1 15v3v0q-22 -13 -35 -34q-13 -22 -13 -49
q1 -41 28 -68t68 -28v0zM368 57q47 2 75 36q4 5 7 10q5 -3 9 -5q17 -9 37 -9q34 1 57 23q22 23 23 57q0 5 -1 11q0 3 -1 6q3 1 6 1q27 8 43 29q16 20 17 49v64v0v16v0h-16h-80v-16v0h16h64v-64v0q-1 -24 -15 -41q-15 -18 -38 -22l-16 -3v0l3 -16v0q2 -7 2 -14q0 -22 -12 -38
t-32 -23l1 -5v0l-5 4v0q-8 -2 -16 -2q-21 0 -37 11l-14 10v0l-9 -14v0q-23 -37 -68 -39q-34 1 -57 23q-22 23 -23 57v1v0v14v0l-13 2v0q-29 5 -48 27q-18 22 -19 52v80v0h48v0v16v0h-48h-16v-16v0v-80v0q1 -36 23 -62t57 -33v-1v0q1 -41 28 -68t68 -28v0zM342 448l22 -87
l-22 87l22 -87l4 -16v0h-16h-64v-16v0v-8v0l156 -120v0l20 -16v0l-6 25v0l-22 87v0l-4 16v0h17h63v16v0v8v0l-156 120v0l-20 16v0l6 -25v0zM368 329h21h-21h21l-5 20v0l-21 83v0l133 -103v0v0v0h-64h-20l5 -20v0l20 -83v0l-133 103v0v0v0h64v0z" />
</svg>
