<?xml version="1.0" standalone="no"?>
<!DOCTYPE svg PUBLIC "-//W3C//DTD SVG 1.1//EN" "http://www.w3.org/Graphics/SVG/1.1/DTD/svg11.dtd" >
<svg xmlns="http://www.w3.org/2000/svg" xmlns:xlink="http://www.w3.org/1999/xlink" version="1.1" viewBox="-10 -40 596 512">
   <path fill="currentColor"
d="M296 -39v8v-8v8v221v0l74 -75v0l6 -5v0l11 11v0l-5 6v0l-88 88v0l-6 5v0l-6 -5v0l-88 -88v0l-6 -6v0l12 -11v0l6 5v0l74 75v0v-221v0v-8v0h16v0zM96 259l1 1l-1 -1l1 1q0 1 1 2l12 16q7 9 20 21t29 21t33 9t33 -9t29 -21t20 -21q7 -8 13 -17v-1v0v0l1 -1v0l1 1v0q0 1 1 2
q5 8 12 16q7 9 20 21t29 21t33 9t33 -9t29 -21t20 -21q7 -8 13 -17v-1l1 -1v0l1 1v0v0v0q0 1 1 2q5 8 12 16q7 9 20 21t29 21t33 9v16v0q-22 -1 -40 -11q-19 -10 -33 -23q-15 -15 -23 -25q-8 10 -23 25q-14 13 -33 23q-18 10 -40 11q-22 -1 -40 -11q-19 -10 -33 -23
q-15 -15 -23 -25q-8 10 -23 25q-14 13 -33 23q-18 10 -40 11q-22 -1 -40 -11q-19 -10 -33 -23q-15 -15 -23 -25q-8 10 -23 25q-14 13 -33 23q-18 10 -40 11v-16v0q17 0 33 -9t29 -21t20 -21q7 -8 13 -17v-1l1 -1v0zM97 388q0 1 1 2v0v0l12 16q7 9 20 21t29 21t33 9t33 -9
t29 -21t20 -21q7 -8 13 -17v-1l1 -1v0v1h1q0 1 1 2q5 8 12 16q7 9 20 21t29 21t33 9t33 -9t29 -21t20 -21q7 -8 13 -17v-1l1 -1v0l1 1v0q0 1 1 2q5 8 12 16q7 9 20 21t29 21t33 9v16v0q-22 -1 -40 -11q-19 -10 -33 -23q-15 -15 -23 -25q-8 10 -23 25q-14 13 -33 23
q-18 10 -40 11q-22 -1 -40 -11q-19 -10 -33 -23q-15 -15 -23 -25q-8 10 -23 25q-14 13 -33 23q-18 10 -40 11q-22 -1 -40 -11q-19 -10 -33 -23q-15 -15 -23 -25q-8 10 -23 25q-14 13 -33 23q-18 10 -40 11v-16v0q17 0 33 -9t29 -21t20 -21q7 -8 13 -17v-1l1 -1v0l1 1v0z" />
</svg>
