<?xml version="1.0" standalone="no"?>
<!DOCTYPE svg PUBLIC "-//W3C//DTD SVG 1.1//EN" "http://www.w3.org/Graphics/SVG/1.1/DTD/svg11.dtd" >
<svg xmlns="http://www.w3.org/2000/svg" xmlns:xlink="http://www.w3.org/1999/xlink" version="1.1" viewBox="-10 -40 532 512">
   <path fill="currentColor"
d="M16 -39v8v-8v8v120v0h80v0v-64v0v-16v0l16 3v0l400 77v0v160v0l-400 77v0l-16 3v0v-16v0v-64v0h-80v0v216v0v8v0h-16v0v-8v0v-224v0v-144v0v-128v0v-8v0h16v0zM16 105v128v-128v128h80v0v-128v0h-80v0zM112 28v282v-282v282l104 -20v0v-242v0l-104 -20v0zM232 51v236
v-236v236l144 -28v0v-180v0l-144 -28v0zM392 82v174v-174v174l104 -20v0v-134v0l-104 -20v0z" />
</svg>
