<?xml version="1.0" standalone="no"?>
<!DOCTYPE svg PUBLIC "-//W3C//DTD SVG 1.1//EN" "http://www.w3.org/Graphics/SVG/1.1/DTD/svg11.dtd" >
<svg xmlns="http://www.w3.org/2000/svg" xmlns:xlink="http://www.w3.org/1999/xlink" version="1.1" viewBox="-12 0 534 512">
   <path fill="currentColor"
d="M117 -38q-51 26 -83 74v0v0q-31 48 -34 109v8v0h16v0v-8v0q3 -54 30 -97q27 -44 72 -69l118 171v0l5 6v0l13 -9v0l-5 -6v0l-122 -177v0q-4 -5 -10 -2v0zM48 425q0 -14 9 -23v0v0q9 -9 23 -9t23 9t9 23t-9 23t-23 9t-23 -9t-9 -23v0zM128 425q-1 -27 -24 -42
q-24 -12 -48 0q-23 15 -24 42q1 27 24 42q24 12 48 0q23 -15 24 -42v0zM336 425q0 -14 9 -23v0v0q9 -9 23 -9t23 9t9 23t-9 23t-23 9t-23 -9t-9 -23v0zM416 425q-1 -27 -24 -42q-24 -12 -48 0q-23 15 -24 42q1 27 24 42q24 12 48 0q23 -15 24 -42v0zM440 73h-8h8h-8v8v0v104
v0h-424h-10l2 10v0q19 79 79 130q61 50 145 52q84 -2 145 -52q60 -51 79 -130v-1v0v-1v0v-104v0h56h8v-16v0h-8h-64zM18 201h412h-412h412q-20 71 -75 115q-56 44 -131 45q-75 -1 -131 -45q-55 -44 -75 -115v0z" />
</svg>
