<?xml version="1.0" standalone="no"?>
<!DOCTYPE svg PUBLIC "-//W3C//DTD SVG 1.1//EN" "http://www.w3.org/Graphics/SVG/1.1/DTD/svg11.dtd" >
<svg xmlns="http://www.w3.org/2000/svg" xmlns:xlink="http://www.w3.org/1999/xlink" version="1.1" viewBox="-10 -40 596 512">
   <path fill="currentColor"
d="M368 57q-1 -45 -40 -69q-40 -22 -80 0q-39 24 -40 69q1 45 40 69q40 22 80 0q39 -24 40 -69v0zM317 149q-14 4 -29 4t-29 -4q28 27 29 68q-1 41 -29 68q14 -4 29 -4t29 4q-28 -27 -29 -68q1 -41 29 -68v0zM384 313q-15 0 -29 -4q28 27 29 68q-1 41 -28 68t-68 28
q-41 -1 -68 -28t-28 -68q1 -41 29 -68q-14 4 -29 4t-29 -4q28 27 29 68q-1 41 -28 68t-68 28q-41 -1 -68 -28t-28 -68q1 -41 28 -68t68 -28q15 0 29 4q-28 -27 -29 -68q1 -41 28 -68t68 -28q15 0 29 4q-28 -27 -29 -68q1 -41 28 -68t68 -28q41 1 68 28t28 68q-1 41 -29 68
q14 -4 29 -4q41 1 68 28t28 68q-1 41 -29 68q14 -4 29 -4q41 1 68 28t28 68q-1 41 -28 68t-68 28q-41 -1 -68 -28t-28 -68q1 -41 29 -68q-14 4 -29 4v0zM272 217q-1 -45 -40 -69q-40 -22 -80 0q-39 24 -40 69q1 45 40 69q40 22 80 0q39 -24 40 -69v0zM176 377
q-1 -45 -40 -69q-40 -22 -80 0q-39 24 -40 69q1 45 40 69q40 22 80 0q39 -24 40 -69v0zM384 297q45 -1 69 -40q22 -40 0 -80q-24 -39 -69 -40q-45 1 -69 40q-22 40 0 80q24 39 69 40v0zM288 457q45 -1 69 -40q22 -40 0 -80q-24 -39 -69 -40q-45 1 -69 40q-22 40 0 80
q24 39 69 40v0zM560 377q-1 -45 -40 -69q-40 -22 -80 0q-39 24 -40 69q1 45 40 69q40 22 80 0q39 -24 40 -69v0z" />
</svg>
