<?xml version="1.0" standalone="no"?>
<!DOCTYPE svg PUBLIC "-//W3C//DTD SVG 1.1//EN" "http://www.w3.org/Graphics/SVG/1.1/DTD/svg11.dtd" >
<svg xmlns="http://www.w3.org/2000/svg" xmlns:xlink="http://www.w3.org/1999/xlink" version="1.1" viewBox="-10 -40 468 512">
   <path fill="currentColor"
d="M128 -31v-8v8v-8h-16v0v8v0v56v0h-96h-16v16v0v96v0v16v0v304v0v16v0h16h432v-16v0v-304v0v-16v0v-96v0v-16v0h-16h-96v-56v0v-8v0h-16v0v8v0v56v0h-192v0v-56v0zM16 153h416h-416h416v304v0h-416v0v-304v0zM112 41v40v-40v40v8v0h16v0v-8v0v-40v0h192v0v40v0v8v0h16v0
v-8v0v-40v0h96v0v96v0h-416v0v-96v0h96v0zM80 233h288h-288h288v96v0h-288v0v-96v0zM64 217v16v-16v16v96v0v16v0h16h304v-16v0v-96v0v-16v0h-16h-304z" />
</svg>
