<?xml version="1.0" standalone="no"?>
<!DOCTYPE svg PUBLIC "-//W3C//DTD SVG 1.1//EN" "http://www.w3.org/Graphics/SVG/1.1/DTD/svg11.dtd" >
<svg xmlns="http://www.w3.org/2000/svg" xmlns:xlink="http://www.w3.org/1999/xlink" version="1.1" viewBox="-10 -40 468 512">
   <path fill="currentColor"
d="M16 9v96v-96v96h416v0v-96v0h-416v0zM0 -7h16h-16h448v16v0v96v0v16v0h-16h-16v104v0v112v0v96v0v8v0h-16v0v-8v0v-88v0h-120h-104v88v0v8v0h-16v0v-8v0v-88v0h-112v0v88v0v8v0h-16v0v-8v0v-96v0v-112v0v-104v0h-16h-16v-16v0v-96v0v-16v0zM48 121v96v-96v96h112v0v-96v0
h-112v0zM176 121v96v-96v96h104h120v-96v0h-224v0zM168 329h104h-104h104v-96v0h-104h-120v96v0h120v0zM288 329h112h-112h112v-96v0h-112v0v96v0z" />
</svg>
