<?xml version="1.0" standalone="no"?>
<!DOCTYPE svg PUBLIC "-//W3C//DTD SVG 1.1//EN" "http://www.w3.org/Graphics/SVG/1.1/DTD/svg11.dtd" >
<svg xmlns="http://www.w3.org/2000/svg" xmlns:xlink="http://www.w3.org/1999/xlink" version="1.1" viewBox="-10 -40 466 512">
   <path fill="currentColor"
d="M316 136l91 90l-91 -90l91 90l11 12v0l11 11v0l-11 11v0l-11 12v0l-160 160v0l-10 9v0h-13h-224v-16v0v-16v0v-192v0v-13v0l9 -10v0l160 -160v0l12 -11v0l11 -11v0l11 11v0l12 11v0l90 91v0l129 -130v0l12 12v0l-130 129v0zM16 210v7v-7v7v192v0v16v0h16h199l4 -5v0
l83 -82v0l-215 -215v0l-82 83v0l-5 4v0zM395 260l12 -11l-12 11l12 -11l-12 -11v0l-192 -192v0l-11 -12v0l-11 12v0l-67 66v0l215 215v0l66 -67v0z" />
</svg>
