<?xml version="1.0" standalone="no"?>
<!DOCTYPE svg PUBLIC "-//W3C//DTD SVG 1.1//EN" "http://www.w3.org/Graphics/SVG/1.1/DTD/svg11.dtd" >
<svg xmlns="http://www.w3.org/2000/svg" xmlns:xlink="http://www.w3.org/1999/xlink" version="1.1" viewBox="-10 -40 661 512">
   <path fill="currentColor"
d="M0 121h17h-17h361q7 -8 15 -16h-236v0l24 -96v0h116v0v96v0h16v0v-96v0h116v0l14 56v0q1 -1 3 -2q1 -1 2 -1l9 -6v0l-12 -47v0h104v0l18 76v0l15 11v0l6 6l-27 -109v0h-512v0l-28 112v0l-4 16v0zM112 377h-16h16h-33l-31 -217v0l-1 -7v0h-16v0l1 9v0l7 47v0h-31h-8v16v0
h8h33l23 161v0l1 7v0h7h24v40v0v8v0h16v0v-8v0v-40v0h212v0l-10 -16h-202v0zM512 108l3 -3l-3 3l3 -3h-6v0l3 3v0zM21 105l24 -96l-24 96l24 -96h103v0l-24 96v0h-103v0zM501 142l-53 -53l53 53l-53 -53q-23 14 -52 42q-30 28 -52 66q-23 39 -24 84q2 68 47 113t113 47
q68 -2 113 -47t47 -113q1 -21 -19 -66q-21 -44 -77 -94l-21 21v0l-11 11v0l-11 -11v0zM576 352q-2 -36 -25 -67v0v0q-23 -30 -46 -49v0v0q-23 -18 -25 -19v0v0v0q-2 1 -25 19q-23 19 -46 49q-23 31 -25 67q0 27 16 49q-29 -20 -47 -51q-17 -31 -17 -69q0 -30 13 -57
q12 -28 32 -52q34 -41 65 -62l55 55v0l11 11v0l11 -11v0l22 -22v0q47 45 64 83q16 39 15 55q0 38 -17 69q-18 31 -47 51q16 -22 16 -49v0zM480 425q-35 -1 -57 -22v0v0q-22 -21 -23 -51q1 -22 13 -43t31 -40q17 -18 31 -28q3 -2 5 -4q2 2 5 4q14 10 32 28q18 19 30 40t13 43
q-1 30 -23 51t-57 22v0z" />
</svg>
