<?xml version="1.0" standalone="no"?>
<!DOCTYPE svg PUBLIC "-//W3C//DTD SVG 1.1//EN" "http://www.w3.org/Graphics/SVG/1.1/DTD/svg11.dtd" >
<svg xmlns="http://www.w3.org/2000/svg" xmlns:xlink="http://www.w3.org/1999/xlink" version="1.1" viewBox="-10 -40 468 512">
   <path fill="currentColor"
d="M432 185q-2 86 -58 144h22v0q50 -60 52 -144q-1 -63 -31 -113q-29 -51 -80 -80q-50 -30 -113 -31q-63 1 -113 31q-51 29 -80 80q-30 50 -31 113q2 84 52 144h22v0q-56 -58 -58 -144q2 -88 61 -147t147 -61q88 2 147 61t61 147v0zM256 41q-1 -15 -16 -16q-15 1 -16 16
q1 15 16 16q15 -1 16 -16v0zM230 123l-6 -5l6 5l-6 -5l-6 5v0l-72 72v0l-5 6v0l11 11v0l6 -5v0l58 -59v0v42v0l-78 77v0l-5 6v0l11 11v0l6 -5v0l66 -67v0v117v0h16v0v-117v0l66 67v0l6 5v0l11 -11v0l-5 -6v0l-78 -77v0v-42v0l58 59v0l6 5v0l11 -11v0l-5 -6v0l-72 -72v0z
M18 473h412h-412h430l-9 -16v0l-55 -96v0h-320v0l-55 96v0l-9 16v0h18v0zM375 377l45 80l-45 -80l45 80h-392v0l45 -80v0h302v0zM336 153q15 -1 16 -16q-1 -15 -16 -16q-15 1 -16 16q1 15 16 16v0zM96 201q-1 -15 -16 -16q-15 1 -16 16q1 15 16 16q15 -1 16 -16v0z" />
</svg>
