<?xml version="1.0" standalone="no"?>
<!DOCTYPE svg PUBLIC "-//W3C//DTD SVG 1.1//EN" "http://www.w3.org/Graphics/SVG/1.1/DTD/svg11.dtd" >
<svg xmlns="http://www.w3.org/2000/svg" xmlns:xlink="http://www.w3.org/1999/xlink" version="1.1" viewBox="-10 -40 659 512">
   <path fill="currentColor"
d="M423 297h18h-18h18l-55 -116v0q-2 -4 -2 -8q2 -18 20 -20h1v0q3 0 6 1l56 18v0l-2 -16v0v-2v0l-49 -15v0q-5 -2 -11 -2h-1v0q-16 0 -26 11q-10 10 -10 25q0 8 3 15l52 109v0zM422 63l50 59l-50 -59l50 59l20 -2v0l-58 -67v0q-24 -29 -57 -44q-34 -16 -71 -16
q-53 1 -94 29q-42 28 -62 77l-80 198v0h18v0l77 -192v0q18 -44 56 -70q37 -25 85 -26q70 1 116 54v0zM496 345v80v-80v80h-480v0v-80v0h480v0zM16 329h-16h16h-16v16v0v80v0v16v0h16h496v-16v0v-80v0v-16v0h-16h-480zM563 132l-13 -10l13 10l-13 -10l-9 12v0l-11 14v0l-17 2
v0l-16 2v0l2 16v0l2 17v0l-10 13v0l-10 13v0l12 10v0l14 10v0l2 17v0l2 16v0l16 -2v0l17 -2v0l13 10v0l13 10v0l10 -12v0l10 -14v0l17 -2v0l16 -2v0l-2 -16v0l-2 -17v0l10 -13v0l10 -13v0l-12 -9v0l-14 -11v0l-2 -17v0l-2 -16v0l-16 2v0l-17 2v0l-13 -10v0zM578 158l17 -2
l-17 2l17 -2l2 17v0l1 7v0l5 4v0l14 10v0l-11 13v0l-4 6v0l1 6v0l2 17v0l-17 2v0l-7 1v0l-4 5v0l-10 14v0l-13 -11v0l-6 -4v0l-6 1v0l-17 2v0l-2 -17v0l-1 -7v0l-5 -4v0l-14 -10v0l11 -13v0l4 -6v0l-1 -6v0l-2 -17v0l17 -2v0l7 -1v0l4 -5v0l10 -14v0l13 11v0l6 4v0l6 -1v0z
" />
</svg>
