<?xml version="1.0" standalone="no"?>
<!DOCTYPE svg PUBLIC "-//W3C//DTD SVG 1.1//EN" "http://www.w3.org/Graphics/SVG/1.1/DTD/svg11.dtd" >
<svg xmlns="http://www.w3.org/2000/svg" xmlns:xlink="http://www.w3.org/1999/xlink" version="1.1" viewBox="-10 -40 532 512">
   <path fill="currentColor"
d="M256 -23q-27 1 -42 24q-12 24 0 48q15 23 42 24q27 -1 42 -24q12 -24 0 -48q-15 -23 -42 -24v0zM320 25q-1 36 -32 55q-32 18 -64 0q-31 -19 -32 -55q1 -36 32 -55q32 -18 64 0q31 19 32 55v0zM15 310l65 -22l-65 22l65 -22l1 -62v0v-16v0l16 3v0l63 9v0l62 -29v0l18 -8
v0l-4 19v0l-12 68v0l25 58v0l6 15v0l-16 5v0l-63 20v0l-2 63v0l-1 17v0l-16 -4v0l-59 -12v0l-64 30v0l-18 9v0l4 -20v0l14 -69v0l-27 -55v0l-7 -14v0l15 -5v0zM96 288v12v-12v12l-11 3v0l-63 21v0l26 53v0l3 5v0l-1 5v0l-12 58v0l53 -25v0l5 -3v0l5 1v0l57 12v0l2 -61v0
l1 -11v0l10 -3v0l62 -20v0l-24 -57v0l-1 -5v0l1 -4v0l10 -57v0l-52 24v0l-4 2v0l-5 -1v0l-61 -9v0l-1 60v0zM497 310l15 5l-15 -5l15 5l-7 14v0l-27 55v0l14 69v0l4 20v0l-18 -9v0l-64 -30v0l-59 12v0l-16 4v0l-1 -17v0l-2 -63v0l-63 -20v0l-16 -5v0l7 -15v0l24 -58v0
l-12 -68v0l-4 -19v0l18 8v0l62 29v0l63 -10v0l16 -2v0v16v0l1 62v0l65 22v0zM416 288l-1 -59l1 59l-1 -59l-61 9v0h-4v0l-5 -2v0l-52 -24v0l11 57v0l1 4v0l-2 5v0l-24 57v0l62 20v0l11 3v0v11v0l2 61v0l57 -12v0l5 -1v0l5 2v0l53 26v0l-11 -58v0l-2 -5v0l3 -5v0l26 -53v0
l-63 -21v0l-11 -3v0v-12v0zM112 105q1 -25 17 -43v0v0q16 -18 41 -21q1 8 4 16q-20 1 -33 15q-13 13 -13 33q1 20 14 34q14 13 34 14q20 0 33 -13q14 -13 15 -33q8 3 16 5q-3 24 -21 40t-43 17q-27 -1 -45 -19t-19 -45v0zM336 169q-25 -1 -43 -17v0v0q-18 -16 -21 -40
q8 -2 16 -5q1 20 15 33q13 13 33 13q20 -1 34 -14q13 -14 14 -34q0 -20 -13 -33q-13 -14 -33 -15q3 -8 5 -16q24 3 40 21t17 43q-1 27 -19 45t-45 19v0z" />
</svg>
