<?xml version="1.0" standalone="no"?>
<!DOCTYPE svg PUBLIC "-//W3C//DTD SVG 1.1//EN" "http://www.w3.org/Graphics/SVG/1.1/DTD/svg11.dtd" >
<svg xmlns="http://www.w3.org/2000/svg" xmlns:xlink="http://www.w3.org/1999/xlink" version="1.1" viewBox="-10 -40 532 512">
   <path fill="currentColor"
d="M344 156l63 278l-63 -278l63 278l9 39v0l7 -40v0l86 -456v0l3 -16v0h-16h-496l4 16v0l84 307v0l8 29v0l9 -29v0l30 -99v0l9 -32v0l7 33v0l33 153v0l8 38v0l8 -38v0l33 -153v0l7 -33v0l10 32v0l29 98v0l9 30v0l8 -30v0l31 -128v0l9 -34v0l8 35v0zM287 253l-32 -105l32 105
l-32 -105l-18 -59v0l-13 61v0l-32 151v0l-32 -151v0l-13 -61v0l-18 59v0l-32 107v0l-76 -278v0h472v0l-78 417v0l-63 -276v0l-15 -66v0l-17 65v0l-33 136v0z" />
</svg>
