<?xml version="1.0" standalone="no"?>
<!DOCTYPE svg PUBLIC "-//W3C//DTD SVG 1.1//EN" "http://www.w3.org/Graphics/SVG/1.1/DTD/svg11.dtd" >
<svg xmlns="http://www.w3.org/2000/svg" xmlns:xlink="http://www.w3.org/1999/xlink" version="1.1" viewBox="-10 -40 596 512">
   <path fill="currentColor"
d="M560 297h-96h96h-96v-144v0h64v0q31 58 32 128v16v0zM448 297h-69h69h-69q-11 -28 -35 -46q-24 -17 -56 -18q-32 1 -56 18q-24 18 -34 46h-70v0v-144v0h192h128v144v0zM383 313h65h-65h177v112v0h-176v0v-96v0q0 -8 -1 -16v0zM128 313h65h-65h65q-1 8 -1 16v96v0h-176v0
v-112v0h96h16zM112 297h-96h96h-96v-16v0q1 -70 32 -128v0v0h64v0v144v0zM519 137h-183h183h-183v-124v0q58 11 105 43q47 33 78 81v0zM288 9q16 0 32 2v126v0h-263v0q37 -58 97 -93q60 -34 134 -35v0zM16 441h176h-176h560v-16v0v-144v0q-1 -80 -39 -145q-39 -65 -104 -104
q-65 -38 -145 -39q-80 1 -145 39q-65 39 -104 104q-38 65 -39 145v144v0v16v0h16v0zM288 249q34 1 57 23v0v0q22 23 23 57v96v0h-160v0v-96v0q1 -34 23 -57q23 -22 57 -23v0z" />
</svg>
