<?xml version="1.0" standalone="no"?>
<!DOCTYPE svg PUBLIC "-//W3C//DTD SVG 1.1//EN" "http://www.w3.org/Graphics/SVG/1.1/DTD/svg11.dtd" >
<svg xmlns="http://www.w3.org/2000/svg" xmlns:xlink="http://www.w3.org/1999/xlink" version="1.1" viewBox="-10 -40 596 512">
   <path fill="currentColor"
d="M296 -39v8v-8v8v85v0l86 86v0h3v0l100 20v0q40 8 65 38q25 31 26 72q-1 32 -22 53t-53 22q-41 -1 -72 -26q-30 -25 -38 -65l-20 -100v0v-3v0l-75 -75v0v152v0l2 2v0l67 90v0q19 25 19 57q-1 41 -28 68t-68 28q-41 -1 -68 -28t-28 -68q0 -32 19 -58l67 -89v0l2 -2v0v-152
v0l-75 75v0v3v0l-7 35v0q-7 -3 -16 -4l5 -25v0l-2 -2v0l-91 17v0q-34 7 -56 33q-21 27 -22 62q1 25 17 42q17 16 42 17q39 -1 66 -26q7 4 16 7q-33 34 -82 35q-32 -1 -53 -22t-22 -53q1 -41 26 -72q25 -30 65 -38l100 -20v0h3v0l86 -86v0v-85v0v-8v0h16v0zM391 158l-2 2
l2 -2l-2 2l17 91v0q7 34 34 56q26 21 61 22q25 -1 42 -17q16 -17 17 -42q-1 -35 -22 -61q-22 -27 -56 -34l-91 -17v0zM224 329q-16 21 -16 48q1 34 23 57q23 22 57 23q34 -1 57 -23q22 -23 23 -57q0 -27 -16 -48l-64 -85v0l-64 85v0zM360 25q2 22 24 24q22 -2 24 -24
q-2 -22 -24 -24q-22 2 -24 24v0zM384 65q-23 -1 -35 -20q-10 -20 0 -40q12 -19 35 -20q23 1 35 20q10 20 0 40q-12 19 -35 20v0zM176 225q-22 2 -24 24q2 22 24 24q22 -2 24 -24q-2 -22 -24 -24v0zM216 249q-1 23 -20 35q-20 10 -40 0q-19 -12 -20 -35q1 -23 20 -35
q20 -10 40 0q19 12 20 35v0z" />
</svg>
