<?xml version="1.0" standalone="no"?>
<!DOCTYPE svg PUBLIC "-//W3C//DTD SVG 1.1//EN" "http://www.w3.org/Graphics/SVG/1.1/DTD/svg11.dtd" >
<svg xmlns="http://www.w3.org/2000/svg" xmlns:xlink="http://www.w3.org/1999/xlink" version="1.1" viewBox="-10 -40 532 512">
   <path fill="currentColor"
d="M174 188l44 -51l-44 51l44 -51l14 -16v0h-21h-83v-16v0v-32v0v-16v0h16h189l10 9v0l13 14v0l15 15v0l11 11v0l-12 10v0l-17 12v0l-123 94v0l-7 8v0l-12 -10v0l7 -9v0l1 -1v0l1 -1v0l124 -93v0l14 -12v0l-13 -13v0l-14 -13v0l-4 -5v0h-7h-176v32v0h16h107l-23 26v0l-57 68
v0q-9 9 -14 21l-57 140v0l30 12v0l57 -139v0q3 -7 8 -13l12 10v0q-3 4 -5 9l-57 139v0l-1 2v0l336 -168v0v-67v0v-8v0h16v0v8v0v72v0v5v0l-4 2v0l-496 248v0l-8 -14v0l140 -70v0l-4 -1v0l-30 -13v0l-15 -6v0l6 -14v0l58 -140v0q5 -14 15 -26v0zM432 9q0 -14 -9 -23v0v0
q-9 -9 -23 -9t-23 9t-9 23t9 23t23 9t23 -9t9 -23v0zM400 -39q27 1 42 24q12 24 0 48q-15 23 -42 24q-27 -1 -42 -24q-12 -24 0 -48q15 -23 42 -24v0z" />
</svg>
