<?xml version="1.0" standalone="no"?>
<!DOCTYPE svg PUBLIC "-//W3C//DTD SVG 1.1//EN" "http://www.w3.org/Graphics/SVG/1.1/DTD/svg11.dtd" >
<svg xmlns="http://www.w3.org/2000/svg" xmlns:xlink="http://www.w3.org/1999/xlink" version="1.1" viewBox="-10 -40 532 512">
   <path fill="currentColor"
d="M256 -39h-16h16h-16v8v0v195v0l16 -5v0v-190v0v-8v0zM256 275v118v-118v118v6v0l-155 59v0l6 15v0l400 -152v0l5 -2v0v-6v0v-56v0v-8v0h-16v0v8v0v51v0l-176 66v0v-157v0l-40 -31v0l-66 18v0l-33 -72v0l-7 -16v0l-7 -14v0l-14 7v0l-15 7v0l-26 13v0l-28 14v0l13 28v0
l36 79v0q8 16 23 24q16 7 33 3l51 -14v0l16 -4v0v16v0zM304 380l-32 13l32 -13l-32 13v-134v0v-21v0l-20 5v0l-67 18v0q-25 5 -37 -17l-37 -79v0l-6 -14v0l14 -7v0l26 -13v0l15 -8v0l7 16v0l32 71v0l6 13v0l13 -4v0l58 -15v0l28 21v0v155v0zM112 9q14 0 23 9v0v0q9 9 9 23
t-9 23t-23 9t-23 -9t-9 -23t9 -23t23 -9v0zM160 41q-1 -27 -24 -42q-24 -12 -48 0q-23 15 -24 42q1 27 24 42q24 12 48 0q23 -15 24 -42v0zM97 356l3 7l-3 -7l3 7l7 -2v0l104 -40v0l7 -3v0l-5 -15v0l-8 3v0l-97 37v0l-93 -217v0l-14 6v0l96 224v0z" />
</svg>
