<?xml version="1.0" standalone="no"?>
<!DOCTYPE svg PUBLIC "-//W3C//DTD SVG 1.1//EN" "http://www.w3.org/Graphics/SVG/1.1/DTD/svg11.dtd" >
<svg xmlns="http://www.w3.org/2000/svg" xmlns:xlink="http://www.w3.org/1999/xlink" version="1.1" viewBox="-10 -40 468 512">
   <path fill="currentColor"
d="M8 -39h-8h8h-8v16v0h8h440v-16v0h-8h-432zM32 9v162v-162v162l-8 4q-22 13 -24 34q1 50 22 88q21 37 55 62q6 5 12 9l-21 89v0l-4 16v0h16h304l-4 -16v0l-21 -89v0q6 -4 12 -9q34 -25 55 -62q21 -38 22 -88q-2 -21 -24 -34l-8 -4v0v-162v0h-16v0v155v0q-14 -6 -29 -10
q-33 -8 -71 -13q-39 -4 -76 -4t-76 4q-38 5 -70 13q-16 4 -30 10v-155v0h-16v0zM345 376l19 81l-19 -81l19 81h-280v0l19 -81v0q61 33 121 33t121 -33v0zM87 347q-54 -39 -69 -108l6 4v0q21 12 53 21q33 8 71 13q39 4 76 4t76 -4q38 -5 71 -13q32 -9 53 -21l6 -4
q-15 69 -69 108q-31 23 -68 34q-36 12 -69 12t-69 -12q-37 -11 -68 -34v0zM416 229q-18 11 -50 19q-31 8 -68 13q-37 4 -74 4t-74 -4q-37 -5 -68 -13q-32 -8 -50 -19q-17 -11 -16 -20q-1 -9 16 -20q18 -11 50 -19q31 -8 68 -13q37 -4 74 -4t74 4q37 5 68 13q32 8 50 19
q17 11 16 20q1 9 -16 20v0zM104 41h-8h8h-8v16v0h8h56v-16v0h-8h-48z" />
</svg>
