<?xml version="1.0" standalone="no"?>
<!DOCTYPE svg PUBLIC "-//W3C//DTD SVG 1.1//EN" "http://www.w3.org/Graphics/SVG/1.1/DTD/svg11.dtd" >
<svg xmlns="http://www.w3.org/2000/svg" xmlns:xlink="http://www.w3.org/1999/xlink" version="1.1" viewBox="-10 -40 468 512">
   <path fill="currentColor"
d="M368 169h-19h19h-40l14 16v0l74 88v0v24v0v16v0h-16h-48l13 16v0l83 104v0v24v0v16v0h-16h-432v-16v0v-24v0l83 -104v0l13 -16v0h-20h-44v-16v0v-24v0l75 -88v0l13 -16v0h-21h-35v-16v0v-24v0l149 -156v0l11 -12v0l11 12v0l149 156v0v24v0v16v0h-16v0zM316 179l-22 -26
l22 26l-22 -26h34h40v-18v0l-144 -151v0l-144 151v0v18v0h40h35l-23 26v0l-84 100v0v18v0h48h33l-20 26v0l-93 116v0v18v0h416v0v-18v0l-92 -116v0l-21 -26v0h33h48v-18v0l-84 -100v0zM176 217q15 1 16 16q-1 15 -16 16q-15 -1 -16 -16q1 -15 16 -16v0zM224 105
q1 -15 16 -16q15 1 16 16q-1 15 -16 16q-15 -1 -16 -16v0zM272 345q15 1 16 16q-1 15 -16 16q-15 -1 -16 -16q1 -15 16 -16v0z" />
</svg>
