<?xml version="1.0" standalone="no"?>
<!DOCTYPE svg PUBLIC "-//W3C//DTD SVG 1.1//EN" "http://www.w3.org/Graphics/SVG/1.1/DTD/svg11.dtd" >
<svg xmlns="http://www.w3.org/2000/svg" xmlns:xlink="http://www.w3.org/1999/xlink" version="1.1" viewBox="-10 -40 468 512">
   <path fill="currentColor"
d="M214 -12l10 9l-10 -9l10 9l10 -9v0q13 -11 32 -11q33 2 45 32l5 14v0l14 -4v0q7 -2 14 -2q20 1 34 14q13 14 14 34q0 7 -2 14l-4 14v0l14 5v0q30 12 32 46q0 18 -11 31l-9 10v0l9 10v0q11 13 11 32q-2 33 -32 45l-14 5v0l4 15v0q2 6 2 13q0 18 -11 31q-12 13 -29 17v16v0
q24 -4 40 -21q15 -18 16 -43q0 -9 -3 -18q19 -7 31 -23t12 -37q0 -24 -15 -42q15 -17 15 -41q0 -21 -12 -37q-12 -17 -31 -23q3 -9 3 -19q-1 -27 -19 -45t-45 -19q-10 0 -18 3q-7 -19 -23 -31t-38 -12q-24 0 -41 15q-17 -15 -41 -15q-22 0 -38 12t-23 31q-8 -3 -18 -3
q-27 1 -45 19t-19 45q0 10 3 18q-19 7 -31 23t-12 38q0 24 15 41q-15 17 -15 41q0 22 12 38t31 23q-3 8 -3 18q1 25 16 43q16 17 40 21v-17v0q-17 -3 -29 -16q-11 -13 -11 -31q0 -7 2 -14l4 -14v0l-14 -5v0q-30 -12 -32 -46q0 -18 11 -31l9 -10v0l-9 -10v0q-11 -13 -11 -31
q2 -34 32 -46l14 -5v0l-4 -14v0q-2 -7 -2 -14q1 -20 14 -34q14 -13 34 -14q7 0 14 2l14 4v0l5 -14v0q12 -30 46 -32q18 0 31 11v0zM224 433l-4 1l4 -1l-4 1l-76 19v0v-87v0l76 19v0l4 1v0l4 -1v0l76 -19v0v87v0l-76 -19v0l-4 -1v0zM144 469l80 -20l-80 20l80 -20l80 20v0
l16 4v0v-16v0v-95v0v-17v0l-16 4v0l-80 20v0l-80 -20v0l-16 -4v0v17v0v95v0v16v0l16 -4v0zM235 93l-11 -12l11 12l-11 -12l-11 12v0l-19 20v0l-28 -1v0h-16v0l1 16v0l1 27v0l-20 19v0l-12 11v0l12 11v0l20 19v0l-1 28v0v16v0l16 -1v0l27 -1v0l19 20v0l11 12v0l11 -12v0
l19 -20v0l28 1v0h16v0l-1 -16v0l-1 -27v0l20 -19v0l12 -11v0l-12 -11v0l-20 -19v0l1 -28v0v-16v0l-16 1v0l-27 1v0l-19 -20v0zM254 129l27 -1l-27 1l27 -1l-1 27v0v7v0l5 5v0l20 18v0l-20 18v0l-5 5v0v8v0l1 26v0l-27 -1v0h-7v0l-5 5v0l-18 20v0l-18 -20v0l-5 -5v0h-7v0
l-27 1v0l1 -27v0v-7v0l-5 -5v0l-20 -18v0l20 -18v0l5 -5v0v-7v0l-1 -27v0l27 1v0h7v0l5 -5v0l18 -20v0l18 20v0l5 5v0h8h-1z" />
</svg>
