<?xml version="1.0" standalone="no"?>
<!DOCTYPE svg PUBLIC "-//W3C//DTD SVG 1.1//EN" "http://www.w3.org/Graphics/SVG/1.1/DTD/svg11.dtd" >
<svg xmlns="http://www.w3.org/2000/svg" xmlns:xlink="http://www.w3.org/1999/xlink" version="1.1" viewBox="-10 -40 468 512">
   <path fill="currentColor"
d="M0 17q1 -24 16 -40v0v0q16 -15 40 -16h384h8v8v0v400v0v8v0h-8h-24v80v0h24h8v16v0h-8h-384q-24 -1 -40 -16q-15 -16 -16 -40v-400v0zM56 377q-17 0 -28 12v0v0q-12 11 -12 28t12 28q11 12 28 12h344v0v-80v0h-344v0zM16 378q16 -16 40 -17h376v0v-384v0h-376v0
q-17 0 -28 12q-12 11 -12 28v361v0zM200 57h64h-64h72v8v0v64v0h64h8v8v0v64v0v8v0h-8h-64v64v0v8v0h-8h-72v-8v0v-64v0h-64h-8v-8v0v-64v0v-8v0h8h64v-64v0v-8v0h8v0zM208 137v8v-8v8h-8h-64v48v0h64h8v8v0v64v0h48v0v-64v0v-8v0h8h64v-48v0h-64h-8v-8v0v-64v0h-48v0v64v0z
" />
</svg>
