<?xml version="1.0" standalone="no"?>
<!DOCTYPE svg PUBLIC "-//W3C//DTD SVG 1.1//EN" "http://www.w3.org/Graphics/SVG/1.1/DTD/svg11.dtd" >
<svg xmlns="http://www.w3.org/2000/svg" xmlns:xlink="http://www.w3.org/1999/xlink" version="1.1" viewBox="-10 -40 532 512">
   <path fill="currentColor"
d="M263 2l-263 263l263 -263l-263 263v96v0l112 112v0h96v0l263 -263v0q18 -9 30 -26q11 -17 11 -39q0 -17 -7 -32q7 -15 7 -32q0 -25 -14 -43q-14 -19 -37 -26q-7 -23 -26 -37q-18 -14 -43 -14q-17 0 -32 8q-15 -8 -32 -8q-22 0 -39 11q-17 12 -26 30v0zM278 9
q15 -30 50 -32q16 0 28 8l4 2v0l4 -2v0q13 -8 28 -8q20 0 35 12t20 31l1 5v0l5 1v0q19 5 31 20t12 35q0 16 -7 28l-3 4v0l3 4v0q7 13 7 28q-2 35 -32 51q-49 -34 -112 -35q-23 0 -45 5q5 -22 5 -45q-1 -63 -34 -112v0zM16 354v-57v57v-57q43 23 96 24q67 -1 118 -39
q51 -37 72 -98q24 -7 50 -7q56 1 100 30l-251 250v0h-82v0l-103 -103v0zM16 272l251 -251l-251 251l251 -251q28 44 29 100q0 28 -8 54q-18 58 -66 93q-47 36 -110 37q-53 -1 -96 -27v-6v0z" />
</svg>
