<?xml version="1.0" standalone="no"?>
<!DOCTYPE svg PUBLIC "-//W3C//DTD SVG 1.1//EN" "http://www.w3.org/Graphics/SVG/1.1/DTD/svg11.dtd" >
<svg xmlns="http://www.w3.org/2000/svg" xmlns:xlink="http://www.w3.org/1999/xlink" version="1.1" viewBox="-10 -40 532 512">
   <path fill="currentColor"
d="M160 377h-16h16h-160v-16v0v-384v0v-16v0h16h496v16v0v384v0v16v0h-16h-192l-128 85v0l-16 11v0v-19v0v-61v0v-16v0zM160 361h16h-16h16v16v0v66v0l119 -79v0l4 -3v0h5h192v-384v0h-480v0v384v0h144v0zM224 49h64h-64h72v8v0v64v0h64h8v8v0v64v0v8v0h-8h-64v64v0v8v0h-8
h-72v-8v0v-64v0h-64h-8v-8v0v-64v0v-8v0h8h64v-64v0v-8v0h8v0zM232 129v8v-8v8h-8h-64v48v0h64h8v8v0v64v0h48v0v-64v0v-8v0h8h64v-48v0h-64h-8v-8v0v-64v0h-48v0v64v0z" />
</svg>
