<?xml version="1.0" standalone="no"?>
<!DOCTYPE svg PUBLIC "-//W3C//DTD SVG 1.1//EN" "http://www.w3.org/Graphics/SVG/1.1/DTD/svg11.dtd" >
<svg xmlns="http://www.w3.org/2000/svg" xmlns:xlink="http://www.w3.org/1999/xlink" version="1.1" viewBox="-11 0 534 512">
   <path fill="currentColor"
d="M474 134q27 39 21 83v0v0q-7 45 -44 74q-24 17 -51 21q-33 5 -65 25q-32 19 -50 48q-32 52 -88 67q-55 15 -109 -14q-52 -32 -67 -88q-15 -55 14 -109q20 -35 31 -79t14 -83q4 -40 34 -71q36 -32 80 -31q45 1 79 34q26 27 64 49q39 23 75 33q37 9 62 41v0zM416 77
q-33 -9 -70 -31v0v0q-38 -21 -62 -46q-38 -38 -89 -39q-52 -1 -92 36q-35 35 -38 81q-4 38 -14 80q-11 42 -30 75q-32 60 -16 121q17 62 75 98q60 32 121 16q62 -17 98 -75q15 -25 44 -43q30 -18 59 -22q31 -4 58 -24q43 -34 51 -84q7 -51 -24 -95q-29 -37 -71 -48v0z
M224 105q26 0 48 13v0v0q22 13 35 35q13 23 13 48t-13 48q-13 22 -35 35t-48 13t-48 -13t-35 -35q-13 -23 -13 -48t13 -48q13 -22 35 -35t48 -13v0zM224 313q30 0 56 -15v0v0q26 -15 41 -41t15 -56t-15 -56t-41 -41t-56 -15t-56 15t-41 41t-15 56t15 56t41 41t56 15v0z
M176 201q1 -20 14 -34v0v0q14 -13 34 -14h8v0v-16v0h-8v0q-27 1 -45 19t-19 45v8v0h16v0v-8v0z" />
</svg>
