<?xml version="1.0" standalone="no"?>
<!DOCTYPE svg PUBLIC "-//W3C//DTD SVG 1.1//EN" "http://www.w3.org/Graphics/SVG/1.1/DTD/svg11.dtd" >
<svg xmlns="http://www.w3.org/2000/svg" xmlns:xlink="http://www.w3.org/1999/xlink" version="1.1" viewBox="-10 -40 596 512">
   <path fill="currentColor"
d="M0 -39v128v-128v128v288v0v8v0h8h248v-16v0h-240v0v-272v0h240v0v-16v0h-240v0v-120v0h-16v0zM433 9h7h-7h127v160v0h-256v0v-192v0h97v0l28 27v0l4 5v0zM560 -7h-120h120h-120l-32 -32v0h-104h-16v16v0v192v0v16v0h16h272v-16v0v-160v0v-16v0h-16v0zM433 297h7h-7h127
v160v0h-256v0v-192v0h97v0l28 27v0l4 5v0zM560 281h-120h120h-120l-32 -32v0h-104h-16v16v0v192v0v16v0h16h272v-16v0v-160v0v-16v0h-16v0z" />
</svg>
