<?xml version="1.0" standalone="no"?>
<!DOCTYPE svg PUBLIC "-//W3C//DTD SVG 1.1//EN" "http://www.w3.org/Graphics/SVG/1.1/DTD/svg11.dtd" >
<svg xmlns="http://www.w3.org/2000/svg" xmlns:xlink="http://www.w3.org/1999/xlink" version="1.1" viewBox="-10 -40 522 512">
   <path fill="currentColor"
d="M48 185h-16h16h-16v-16v0v-16v0q-1 -1 6 -25q6 -24 28 -55t67 -55q46 -24 123 -25q77 1 123 25q45 24 67 55t28 55q7 24 6 25v16v0v16v0h-16h-416zM464 169v-15v15v-15v0v0v-3q-1 -1 -1 -2q-1 -6 -4 -16q-6 -22 -26 -50q-19 -28 -61 -51q-42 -22 -116 -23q-74 1 -116 23
q-42 23 -61 51q-20 28 -26 50q-3 10 -4 16q-1 3 -1 4v1v0v15v0h416v0zM48 155v0v0v0v0v0v0zM480 233h-448h448h-448v64v0h448v0v-64v0zM16 217h16h-16h480v16v0v64v0v16v0h-16h-464v-16v0v-64v0v-16v0zM464 361h-416h416h-416v64v0h416v0v-64v0zM32 345h16h-16h448v16v0v64
v0v16v0h-16h-432v-16v0v-64v0v-16v0zM144 73q15 1 16 16q-1 15 -16 16q-15 -1 -16 -16q1 -15 16 -16v0zM352 89q1 -15 16 -16q15 1 16 16q-1 15 -16 16q-15 -1 -16 -16v0zM256 41q15 1 16 16q-1 15 -16 16q-15 -1 -16 -16q1 -15 16 -16v0z" />
</svg>
