<?xml version="1.0" standalone="no"?>
<!DOCTYPE svg PUBLIC "-//W3C//DTD SVG 1.1//EN" "http://www.w3.org/Graphics/SVG/1.1/DTD/svg11.dtd" >
<svg xmlns="http://www.w3.org/2000/svg" xmlns:xlink="http://www.w3.org/1999/xlink" version="1.1" viewBox="-10 -40 458 512">
   <path fill="currentColor"
d="M192 -39h-8h8h-8v8v0v184v0h-72h-8v8v0v47v0l-69 59v0l-3 2v0v4v0v54v0q0 37 18 68t51 50l18 10v0q31 18 67 18h142v0q44 -1 74 -30q29 -30 30 -74v-16v0v-88v0v-48v0v-8v0h-8h-56v-24v0v-8v0h-8h-72v-208v0v-8v0h-8h-88zM200 161v-184v184v-184h72v0v208v0v8v0h8h72v24
v0v8v0h8h56v40v0v88v0v16v0q-1 37 -26 62t-62 26h-142v0q-32 0 -59 -16l-18 -10v0q-29 -17 -45 -44q-16 -28 -16 -60v-50v0l56 -48v0v76v0q1 7 8 8q7 -1 8 -8v-88v0v-1v0v0v-4v0v-43v0h72h8v-8v0z" />
</svg>
