<?xml version="1.0" standalone="no"?>
<!DOCTYPE svg PUBLIC "-//W3C//DTD SVG 1.1//EN" "http://www.w3.org/Graphics/SVG/1.1/DTD/svg11.dtd" >
<svg xmlns="http://www.w3.org/2000/svg" xmlns:xlink="http://www.w3.org/1999/xlink" version="1.1" viewBox="-10 -40 532 512">
   <path fill="currentColor"
d="M16 185q2 -88 61 -147v0v0q59 -59 147 -61h24v0q73 2 123 51q49 49 53 122v3v0l3 2v0l69 62v0v64v0h-56h-8v8v0v104v0h-120h-8v8v0v64v0v8v0h16v0v-8v0v-56v0h120h8v-8v0v-104v0h56h8v-8v0v-76v0v-3v0l-3 -3v0l-69 -61v0q-6 -78 -59 -131q-54 -52 -133 -54h-24v0
q-63 1 -113 31q-51 29 -80 80q-30 50 -31 113q2 91 64 157v123v0v8v0h16v0v-8v0v-126v0v-4v0l-2 -2v0q-60 -62 -62 -148v0zM194 75q10 -17 30 -18q20 1 30 18l4 7v0l7 -4v0q6 -4 14 -4q17 1 26 14l2 5v0l6 -1v0q2 -1 5 -1q14 1 24 11q10 9 10 24v36v0h-88h-8v8v0v52v0h-24
h-8v16v0h8h40v-8v0v-52v0h88h8v-8v0v-43v0q-1 -22 -15 -37q-14 -14 -35 -15q-2 0 -3 1q-13 -17 -36 -18q-8 0 -15 3q-15 -19 -40 -20q-25 1 -40 20q-7 -3 -15 -3q-17 1 -29 10q-12 10 -16 25q-19 3 -31 17q-13 14 -13 34q1 30 26 44q1 21 15 35t35 15h9v0v35v0v8v0h16v0v-8
v0v-43v0v-8v0h-8h-17q-15 0 -24 -10q-10 -10 -10 -25q-1 -2 0 -3v-6v0l-5 -2v0q-20 -9 -21 -32q0 -15 10 -25t25 -10v0v0h7v0l1 -7v0q4 -26 30 -28q8 0 14 4l7 4v0l4 -7v0z" />
</svg>
