<?xml version="1.0" standalone="no"?>
<!DOCTYPE svg PUBLIC "-//W3C//DTD SVG 1.1//EN" "http://www.w3.org/Graphics/SVG/1.1/DTD/svg11.dtd" >
<svg xmlns="http://www.w3.org/2000/svg" xmlns:xlink="http://www.w3.org/1999/xlink" version="1.1" viewBox="-10 -40 533 512">
   <path fill="currentColor"
d="M271 -8q-23 24 -11 70q12 47 57 94q47 45 94 57q46 12 70 -11q14 -15 15 -39q0 -17 -4 -32q-7 -23 -21 -47t-36 -46t-46 -36t-47 -21q-16 -4 -32 -4q-25 1 -39 15v0zM407 229q-52 -14 -101 -62q-48 -49 -62 -101q-9 -35 2 -64l-50 51v0q-51 52 -52 124v98v0l55 54v0h97v0
q72 -1 124 -51l51 -51v0q-29 11 -64 2v0zM446 27q23 23 39 49t22 52q5 18 5 35q2 40 -28 74l-52 52v0q-57 55 -136 56h-101v0l-20 21v0q16 17 17 43q-1 27 -19 45t-45 19q-27 -1 -45 -19t-19 -45q-27 -1 -45 -19t-19 -45q1 -27 19 -45t45 -19q26 1 44 17l20 -20v0v-101v0
q1 -79 56 -136l52 -52v0q34 -30 74 -28q17 0 36 5q25 6 51 22t49 39v0zM136 289v0v0v0l2 2v0l-25 24v0l-6 7v0l-6 -7v0q-14 -17 -37 -18q-20 1 -34 14q-13 14 -14 34q1 20 14 34q14 13 34 14q4 0 7 -1l11 -1v0l-1 10v0q-1 4 -1 8q0 20 14 34q14 13 34 14q20 -1 34 -14
q13 -14 14 -34q-1 -23 -18 -37l-7 -6v0l7 -6v0l24 -25v0l2 2v0v0v0l-48 -48v0zM354 75q-3 2 -1 12t13 20q10 11 20 13t12 -1q3 -2 1 -12t-13 -20q-10 -11 -20 -13t-12 1v0zM398 75q13 13 17 28t-6 27q-12 10 -27 6t-28 -17t-17 -28t6 -27q12 -10 27 -6t28 17v0z" />
</svg>
