<?xml version="1.0" standalone="no"?>
<!DOCTYPE svg PUBLIC "-//W3C//DTD SVG 1.1//EN" "http://www.w3.org/Graphics/SVG/1.1/DTD/svg11.dtd" >
<svg xmlns="http://www.w3.org/2000/svg" xmlns:xlink="http://www.w3.org/1999/xlink" version="1.1" viewBox="-10 -40 532 512">
   <path fill="currentColor"
d="M238 -30l-4 -9l4 9l-4 -9h-10h-106l-4 9v0l-16 32v0l-4 8v0l5 8v0l30 45v0q-57 17 -92 63q-36 45 -37 107q2 75 52 124q49 50 124 52q12 0 23 -1q25 30 60 47q35 18 77 18q75 -2 124 -52q50 -49 52 -124q-2 -71 -46 -119q-45 -49 -114 -56q5 8 10 17q58 10 95 54
q38 43 39 104q-2 68 -47 113t-113 47q-73 -2 -119 -53v0v0q-6 -6 -11 -14v0v0q-29 -40 -30 -93q1 -60 37 -103t93 -54q29 40 30 93q-1 50 -27 89q-27 39 -70 58q5 7 12 12q45 -21 73 -63q27 -42 28 -96q-1 -62 -37 -107q-35 -46 -92 -63l30 -45v0l6 -8v0l-5 -8v0l-16 -32v0z
M295 126q-59 15 -97 61v0v0q-37 47 -38 110q1 54 28 96h-12q-68 -2 -113 -47t-47 -113q2 -68 47 -113t113 -47q73 2 119 53v0zM208 57h-32h32h-64l-32 -48v0l16 -32v0h96v0l16 32v0l-32 48v0z" />
</svg>
