<?xml version="1.0" standalone="no"?>
<!DOCTYPE svg PUBLIC "-//W3C//DTD SVG 1.1//EN" "http://www.w3.org/Graphics/SVG/1.1/DTD/svg11.dtd" >
<svg xmlns="http://www.w3.org/2000/svg" xmlns:xlink="http://www.w3.org/1999/xlink" version="1.1" viewBox="-10 -40 532 512">
   <path fill="currentColor"
d="M342 68l63 -91l-63 91l63 -91l11 -16v0h-19h-301l11 16v0l63 91v0l9 13v0q-6 4 -13 9q-32 21 -70 59t-67 95q-28 57 -29 133v80v0v16v0h16h496v-16v0v-80v0q-1 -76 -29 -133q-29 -57 -67 -95t-70 -59q-7 -5 -13 -9l9 -13v0zM496 457h-480h480h-480v-80v0q2 -78 32 -135
q31 -56 70 -93q40 -36 70 -54l9 -6v0h118v0l9 6v0q30 18 70 54q39 37 70 93q30 57 32 135v80v0zM320 72l-1 1l1 -1l-1 1h-126v0l-1 -1v0l-65 -95v0h259v0l-66 95v0zM264 185v-8v8v-8h-16v0v8v0v16v0q-13 1 -23 6q-20 9 -24 29q-2 12 2 22q5 9 13 14q16 10 36 15v0l2 1v0
q21 5 33 13q5 4 8 9q2 5 1 14q-2 12 -15 17q-9 4 -22 4v0v0q-7 0 -14 -1q-12 -3 -27 -8q-1 0 -2 -1v0v0h-2q-2 -1 -3 -1l-8 -3v0l-5 15v0l8 3v0h2q1 1 3 2v0v0v0v0v0v0v0q17 6 32 9v0v0q2 0 5 1v0v16v0v8v0h16v0v-8v0v-16v0q13 -1 23 -5q20 -8 24 -30q2 -13 -2 -22
q-4 -10 -13 -16q-17 -11 -37 -16h-1v0v0v0q-20 -5 -33 -13q-5 -4 -7 -8q-3 -4 -1 -12q1 -11 15 -17q14 -7 35 -4q4 1 12 2q7 2 11 3l4 -16v0q-4 -1 -12 -2q-8 -2 -12 -2q-3 -1 -6 -1v0v-17v0z" />
</svg>
