<?xml version="1.0" standalone="no"?>
<!DOCTYPE svg PUBLIC "-//W3C//DTD SVG 1.1//EN" "http://www.w3.org/Graphics/SVG/1.1/DTD/svg11.dtd" >
<svg xmlns="http://www.w3.org/2000/svg" xmlns:xlink="http://www.w3.org/1999/xlink" version="1.1" viewBox="-10 -40 532 512">
   <path fill="currentColor"
d="M240 -23q-32 0 -56 17v0v0q-25 16 -38 43l-3 5v0h-5v0q-5 -1 -10 -1q-48 1 -79 33q-32 31 -33 79q1 36 20 64h-19v0q-17 -29 -17 -64q1 -54 37 -91q37 -36 91 -37h6q15 -29 43 -46q28 -18 63 -18t64 18q28 18 43 48q10 -2 21 -2q64 2 101 50q-18 -10 -38 -15
q-28 -18 -63 -19q-12 0 -24 3l-6 1v0l-3 -6v0q-12 -28 -38 -45q-25 -17 -57 -17v0zM400 105q-41 1 -68 28v0v0q-27 27 -28 68q0 8 1 16h-16v0q-1 -8 -1 -16q1 -48 33 -79q31 -32 79 -33q48 1 79 33q32 31 33 79q0 8 -1 16h-16v0q1 -8 1 -16q-1 -41 -28 -68t-68 -28v0z
M112 425v32v-32v32h288v0v-32v0v-10v0l9 -5v0q39 -19 63 -55q23 -36 24 -82v-8v0h-480v0v8v0q1 46 24 82q24 36 63 55l9 5v0v10v0zM512 249v16v-16v16v8v0q-1 51 -27 91t-69 61v32v0v16v0h-16h-304v-16v0v-32v0q-43 -21 -69 -61t-27 -91v-8v0v-16v0h16h496zM248 65v144v-144
v144v8v0h-16v0v-8v0v-144v0v-8v0h16v0v8v0zM94 107l96 96l-96 -96l96 96l5 6v0l-11 11v0l-6 -5v0l-96 -96v0l-5 -6v0l11 -11v0l6 5v0z" />
</svg>
