<?xml version="1.0" standalone="no"?>
<!DOCTYPE svg PUBLIC "-//W3C//DTD SVG 1.1//EN" "http://www.w3.org/Graphics/SVG/1.1/DTD/svg11.dtd" >
<svg xmlns="http://www.w3.org/2000/svg" xmlns:xlink="http://www.w3.org/1999/xlink" version="1.1" viewBox="-10 -40 660 512">
   <path fill="currentColor"
d="M106 64l83 89l-83 -89l83 89h403h48v16v0v64v0v16v0h-16h-477l-14 -15v0l-97 -104v0l-22 -23v0l-11 -12v0l12 -11v0l46 -44v0l12 -11v0l11 12v0l22 23v0zM592 169h-403h403h-403q-7 0 -12 -5l-83 -89v0l-22 -23v0l-46 44v0l21 23v0l98 104v0l9 10v0h14h456v-64v0h-32v0z
M272 425q0 -14 -9 -23v0v0q-9 -9 -23 -9t-23 9t-9 23t9 23t23 9t23 -9t9 -23v0zM288 425q-1 20 -14 34v0v0q-14 13 -34 14q-20 -1 -34 -14q-13 -14 -14 -34q1 -20 14 -34q14 -13 34 -14q22 1 36 16l77 -49v0l-100 -63v0h30v0l85 54v0l85 -54v0h30v0l-100 63v0l77 49v0
q14 -15 36 -16q20 1 34 14q13 14 14 34q-1 20 -14 34q-14 13 -34 14q-20 -1 -34 -14q-13 -14 -14 -34q0 -10 4 -18l-84 -53v0l-84 53v0q4 8 4 18v0zM496 457q14 0 23 -9v0v0q9 -9 9 -23t-9 -23t-23 -9t-23 9t-9 23t9 23t23 9v0z" />
</svg>
