<?xml version="1.0" standalone="no"?>
<!DOCTYPE svg PUBLIC "-//W3C//DTD SVG 1.1//EN" "http://www.w3.org/Graphics/SVG/1.1/DTD/svg11.dtd" >
<svg xmlns="http://www.w3.org/2000/svg" xmlns:xlink="http://www.w3.org/1999/xlink" version="1.1" viewBox="-10 -40 468 512">
   <path fill="currentColor"
d="M432 185q0 -57 -28 -104v0v0q-27 -47 -76 -76q-49 -28 -104 -28t-104 28q-49 29 -76 76q-28 47 -28 104t28 104q27 47 76 76q49 28 104 28t104 -28q49 -29 76 -76q28 -47 28 -104v0zM448 185q-1 58 -26 106v0v0q-26 47 -71 78l69 88v0l12 16v0h-20h-396l12 -16v0l69 -88
v0q-45 -31 -71 -78q-25 -48 -26 -106q1 -63 31 -113q29 -51 80 -80q50 -30 113 -31q63 1 113 31q51 29 80 80q30 50 31 113v0zM224 409q-63 -1 -114 -31l-61 79v0h350v0l-61 -79v0q-51 30 -114 31v0zM352 185q0 -35 -17 -64v0v0q-17 -29 -47 -47q-30 -17 -64 -17t-64 17
q-30 18 -47 47t-17 64t17 64t47 47q30 17 64 17t64 -17q30 -18 47 -47t17 -64v0zM80 185q0 -39 19 -72v0v0q19 -33 53 -53q34 -19 72 -19t72 19q34 20 53 53t19 72t-19 72t-53 53q-34 19 -72 19t-72 -19q-34 -20 -53 -53t-19 -72v0zM168 185h-16h16h-16q1 -31 21 -51t51 -21
v16v0q-24 1 -40 16q-15 16 -16 40v0z" />
</svg>
