<?xml version="1.0" standalone="no"?>
<!DOCTYPE svg PUBLIC "-//W3C//DTD SVG 1.1//EN" "http://www.w3.org/Graphics/SVG/1.1/DTD/svg11.dtd" >
<svg xmlns="http://www.w3.org/2000/svg" xmlns:xlink="http://www.w3.org/1999/xlink" version="1.1" viewBox="-10 -40 532 512">
   <path fill="currentColor"
d="M157 -14l6 5l-6 -5l6 5l-11 12v0l-5 -5v0q-22 -20 -53 -21q-33 1 -55 23t-23 55q0 23 12 41l4 7v0l-13 9v0l-4 -7v0q-15 -22 -15 -50q1 -40 27 -67q27 -26 67 -27q37 1 63 25v0zM103 413l-49 50l49 -50l-49 50l-6 5v0l-11 -11v0l5 -6v0l50 -49v0q-58 -62 -60 -153
q1 -63 31 -113q29 -51 80 -80q50 -30 113 -31q63 1 113 31q51 29 80 80q30 50 31 113q-2 91 -60 153l50 49v0l5 6v0l-11 11v0l-6 -5v0l-49 -50v0q-62 58 -153 60q-91 -2 -153 -60v0zM464 249q0 -57 -28 -104v0v0q-27 -47 -76 -76q-49 -28 -104 -28t-104 28q-49 29 -76 76
q-28 47 -28 104t28 104q27 47 76 76q49 28 104 28t104 -28q49 -29 76 -76q28 -47 28 -104v0zM355 -14q26 -24 63 -25q40 1 67 27q26 27 27 67q0 28 -15 50l-4 7v0l-13 -9v0l4 -7v0q12 -18 12 -41q-1 -33 -23 -55t-55 -23q-31 1 -52 21l-6 5v0l-11 -12v0l6 -5v0zM264 145v8
v-8v8v88v0h88h8v16v0h-8h-88v88v0v8v0h-16v0v-8v0v-88v0h-88h-8v-16v0h8h88v-88v0v-8v0h16v0z" />
</svg>
