<?xml version="1.0" standalone="no"?>
<!DOCTYPE svg PUBLIC "-//W3C//DTD SVG 1.1//EN" "http://www.w3.org/Graphics/SVG/1.1/DTD/svg11.dtd" >
<svg xmlns="http://www.w3.org/2000/svg" xmlns:xlink="http://www.w3.org/1999/xlink" version="1.1" viewBox="-10 -40 468 512">
   <path fill="currentColor"
d="M216 433v8v-8v8h16v0v-8v0v-208v0h208h8v-16v0h-8h-208v-208v0v-8v0h-16v0v8v0v208v0h-208h-8v16v0h8h208v208v0zM16 425h32h-32h32v-32v0h-32v0v32v0zM400 425h32h-32h32v-32v0h-32v0v32v0zM16 329h32h-32h32v-32v0h-32v0v32v0zM400 329h32h-32h32v-32v0h-32v0v32v0z
M432 137v-32v32v-32h-32v0v32v0h32v0zM16 137h32h-32h32v-32v0h-32v0v32v0zM432 41v-32v32v-32h-32v0v32v0h32v0zM48 41v-32v32v-32h-32v0v32v0h32v0zM336 41v-32v32v-32h-32v0v32v0h32v0zM304 425h32h-32h32v-32v0h-32v0v32v0zM144 41v-32v32v-32h-32v0v32v0h32v0zM112 425
h32h-32h32v-32v0h-32v0v32v0z" />
</svg>
