<?xml version="1.0" standalone="no"?>
<!DOCTYPE svg PUBLIC "-//W3C//DTD SVG 1.1//EN" "http://www.w3.org/Graphics/SVG/1.1/DTD/svg11.dtd" >
<svg xmlns="http://www.w3.org/2000/svg" xmlns:xlink="http://www.w3.org/1999/xlink" version="1.1" viewBox="-10 -40 458 512">
   <path fill="currentColor"
d="M0 441v-448v448v-448h16v0v448v0h-16v0zM112 425v-32v32v-32h32v0v32v0h-32v0zM112 9h32h-32h32v32v0h-32v0v-32v0zM112 233v-32v32v-32h32v0v32v0h-32v0zM304 393h32h-32h32v32v0h-32v0v-32v0zM304 41v-32v32v-32h32v0v32v0h-32v0zM304 201h32h-32h32v32v0h-32v0v-32v0z
M208 425v-32v32v-32h32v0v32v0h-32v0zM208 9h32h-32h32v32v0h-32v0v-32v0zM208 233v-32v32v-32h32v0v32v0h-32v0zM400 393h32h-32h32v32v0h-32v0v-32v0zM400 41v-32v32v-32h32v0v32v0h-32v0zM400 201h32h-32h32v32v0h-32v0v-32v0zM208 329v-32v32v-32h32v0v32v0h-32v0z
M400 297h32h-32h32v32v0h-32v0v-32v0zM400 137v-32v32v-32h32v0v32v0h-32v0zM208 105h32h-32h32v32v0h-32v0v-32v0z" />
</svg>
