<?xml version="1.0" standalone="no"?>
<!DOCTYPE svg PUBLIC "-//W3C//DTD SVG 1.1//EN" "http://www.w3.org/Graphics/SVG/1.1/DTD/svg11.dtd" >
<svg xmlns="http://www.w3.org/2000/svg" xmlns:xlink="http://www.w3.org/1999/xlink" version="1.1" viewBox="-10 -40 468 512">
   <path fill="currentColor"
d="M448 -7v448v-448v448h-16v0v-448v0h16v0zM336 9v32v-32v32h-32v0v-32v0h32v0zM336 425h-32h32h-32v-32v0h32v0v32v0zM336 201v32v-32v32h-32v0v-32v0h32v0zM144 41h-32h32h-32v-32v0h32v0v32v0zM144 393v32v-32v32h-32v0v-32v0h32v0zM144 233h-32h32h-32v-32v0h32v0v32v0
zM240 9v32v-32v32h-32v0v-32v0h32v0zM240 425h-32h32h-32v-32v0h32v0v32v0zM240 201v32v-32v32h-32v0v-32v0h32v0zM48 41h-32h32h-32v-32v0h32v0v32v0zM48 393v32v-32v32h-32v0v-32v0h32v0zM48 233h-32h32h-32v-32v0h32v0v32v0zM240 105v32v-32v32h-32v0v-32v0h32v0zM48 137
h-32h32h-32v-32v0h32v0v32v0zM48 297v32v-32v32h-32v0v-32v0h32v0zM240 329h-32h32h-32v-32v0h32v0v32v0z" />
</svg>
