<?xml version="1.0" standalone="no"?>
<!DOCTYPE svg PUBLIC "-//W3C//DTD SVG 1.1//EN" "http://www.w3.org/Graphics/SVG/1.1/DTD/svg11.dtd" >
<svg xmlns="http://www.w3.org/2000/svg" xmlns:xlink="http://www.w3.org/1999/xlink" version="1.1" viewBox="-10 -40 468 512">
   <path fill="currentColor"
d="M448 17v-8v8v-8h-16v0v8v0v408v0h-408h-8v16v0h8h424v-8v0v-416v0zM336 41v-32v32v-32h-32v0v32v0h32v0zM144 41v-32v32v-32h-32v0v32v0h32v0zM240 9h-32h32h-32v32v0h32v0v-32v0zM48 41v-32v32v-32h-32v0v32v0h32v0zM48 201h-32h32h-32v32v0h32v0v-32v0zM48 137v-32v32
v-32h-32v0v32v0h32v0zM48 297h-32h32h-32v32v0h32v0v-32v0z" />
</svg>
