<?xml version="1.0" standalone="no"?>
<!DOCTYPE svg PUBLIC "-//W3C//DTD SVG 1.1//EN" "http://www.w3.org/Graphics/SVG/1.1/DTD/svg11.dtd" >
<svg xmlns="http://www.w3.org/2000/svg" xmlns:xlink="http://www.w3.org/1999/xlink" version="1.1" viewBox="-10 -40 660 512">
   <path fill="currentColor"
d="M16 -23h224h-224h224v48v0h16v0v-48v0v-16v0h-16h-240v16v0v224v0v16v0h16h112v-16v0h-112v0v-224v0zM384 457v16v-16v16h16h240v-16v0v-224v0v-16v0h-16h-112v16v0h112v0v224v0h-224v0v-48v0h-16v0v48v0zM464 73v288v-288v288h-288v0v-288v0h288v0zM176 57h-16h16h-16
v16v0v288v0v16v0h16h304v-16v0v-288v0v-16v0h-16h-288zM240 137h160h-160h160v160v0h-160v0v-160v0zM224 121v16v-16v16v160v0v16v0h16h176v-16v0v-160v0v-16v0h-16h-176z" />
</svg>
