<?xml version="1.0" standalone="no"?>
<!DOCTYPE svg PUBLIC "-//W3C//DTD SVG 1.1//EN" "http://www.w3.org/Graphics/SVG/1.1/DTD/svg11.dtd" >
<svg xmlns="http://www.w3.org/2000/svg" xmlns:xlink="http://www.w3.org/1999/xlink" version="1.1" viewBox="-10 -40 660 512">
   <path fill="currentColor"
d="M218 -39h6h-6h70v16v0h-8h-50l-28 112v0h174h8v16v0h-8h-376v-16v0h8h178l30 -122v0l2 -6v0zM64 473l-28 -336l28 336l-28 -336h16v0l27 320v0h193v0v8v0q0 4 1 8h-209v0zM304 265q-1 -2 13 -27v0v0q14 -25 49 -50v0v0q35 -25 98 -27q63 2 98 27t49 50t13 27v32v0h16v0
v16v0v64v0v16v0h-16v0v72v0q-1 7 -8 8h-304v0q-7 -1 -8 -8v-72v0h-16v0v-16v0v-64v0v-16v0h16v0v-32v0zM608 268v-1v0v0v0v-1q-2 -3 -5 -10q-7 -14 -23 -32q-15 -18 -44 -32q-28 -14 -72 -15q-44 1 -72 15t-44 32t-23 32q-3 7 -4 10q0 1 -1 1v1v29v0h288v0v-29v0zM304 377h8
h-8h320v-64v0h-16h-304v64v0zM320 393v64v-64v64h288v0v-64v0h-288v0zM394 225q-1 9 -10 10q-9 -1 -10 -10q1 -9 10 -10q9 1 10 10v0zM464 219q-9 -1 -10 -10q1 -9 10 -10q9 1 10 10q-1 9 -10 10v0zM554 225q-1 9 -10 10q-9 -1 -10 -10q1 -9 10 -10q9 1 10 10v0z" />
</svg>
