<?xml version="1.0" standalone="no"?>
<!DOCTYPE svg PUBLIC "-//W3C//DTD SVG 1.1//EN" "http://www.w3.org/Graphics/SVG/1.1/DTD/svg11.dtd" >
<svg xmlns="http://www.w3.org/2000/svg" xmlns:xlink="http://www.w3.org/1999/xlink" version="1.1" viewBox="-10 -40 660 512">
   <path fill="currentColor"
d="M16 65h176h-176h352v-27v0q-7 -17 -49 -38q-41 -21 -127 -23q-86 2 -127 23q-42 21 -49 38v27v0zM16 81v112v-112v112h168v0v-112v0h-168v0zM16 209v152v-152v152h16h192v16v0h-112v0v48v0v16v0h-16h-64v-8v0v-8v0v-48v0h-24h-8v-8v0v-333v0v-2v0l1 -2v0q9 -21 55 -45
q45 -24 136 -26q91 2 136 26q46 24 55 45l1 2v0v2v0v69v0h-4h-12v-24v0h-168v0v112v0h83v0l-5 16v0h-86h-176zM96 425v-48v48v-48h-48v0v48v0h48v0zM80 281q1 15 16 16q15 -1 16 -16q-1 -15 -16 -16q-15 1 -16 16v0zM96 313q-14 0 -23 -9v0v0q-9 -9 -9 -23t9 -23t23 -9t23 9
t9 23t-9 23t-23 9v0zM338 137h6h-6h220l2 6v0l30 106v0h34h16v16v0v128v0v16v0v48v0v16v0h-16h-64v-16v0v-48v0h-224v0v48v0v16v0h-16h-64v-16v0v-48v0v-16v0v-128v0v-16v0h16h34l30 -106v0l2 -6v0zM272 265v128v-128v128h48h304v-128v0h-352v0zM624 457v-48v48v-48h-48v0
v48v0h48v0zM320 409h-48h48h-48v48v0h48v0v-48v0zM546 153h-196h196h-196l-27 96v0h250v0l-27 -96v0zM320 329q1 15 16 16q15 -1 16 -16q-1 -15 -16 -16q-15 1 -16 16v0zM336 361q-14 0 -23 -9v0v0q-9 -9 -9 -23t9 -23t23 -9t23 9t9 23t-9 23t-23 9v0zM560 313q-15 1 -16 16
q1 15 16 16q15 -1 16 -16q-1 -15 -16 -16v0zM592 329q0 14 -9 23v0v0q-9 9 -23 9t-23 -9t-9 -23t9 -23t23 -9t23 9t9 23v0z" />
</svg>
