<?xml version="1.0" standalone="no"?>
<!DOCTYPE svg PUBLIC "-//W3C//DTD SVG 1.1//EN" "http://www.w3.org/Graphics/SVG/1.1/DTD/svg11.dtd" >
<svg xmlns="http://www.w3.org/2000/svg" xmlns:xlink="http://www.w3.org/1999/xlink" version="1.1" viewBox="-10 -40 468 512">
   <path fill="currentColor"
d="M16 -23v480v-480v480h416v0v-480v0h-416v0zM0 -39h16h-16h448v16v0v480v0v16v0h-16h-432v-16v0v-480v0v-16v0zM112 57q-1 -15 -16 -16q-15 1 -16 16q1 15 16 16q15 -1 16 -16v0zM64 57q0 -14 9 -23v0v0q9 -9 23 -9t23 9t9 23t-9 23t-23 9t-23 -9t-9 -23v0zM192 73
q15 -1 16 -16q-1 -15 -16 -16q-15 1 -16 16q1 15 16 16v0zM192 25q14 0 23 9v0v0q9 9 9 23t-9 23t-23 9t-23 -9t-9 -23t9 -23t23 -9v0zM352 265q0 -35 -17 -64v0v0q-17 -29 -47 -47q-30 -17 -64 -17t-64 17q-30 18 -47 47t-17 64t17 64t47 47q30 17 64 17t64 -17
q30 -18 47 -47t17 -64v0zM80 265q0 -39 19 -72v0v0q19 -33 53 -53q34 -19 72 -19t72 19q34 20 53 53t19 72t-19 72t-53 53q-34 19 -72 19t-72 -19q-34 -20 -53 -53t-19 -72v0zM182 187l12 13l-12 -13l12 13q14 14 14 33t-14 33l-9 9v0q-9 9 -9 22t9 22l13 13v0l-12 11v0
l-12 -13v0q-14 -14 -14 -33t14 -33l9 -9v0q9 -9 9 -22t-9 -22l-13 -12v0l12 -12v0zM274 200q14 14 14 33t-14 33l-9 9v0q-9 9 -9 22t9 22l13 13v0l-12 11v0l-12 -13v0q-14 -14 -14 -33t14 -33l9 -9v0q9 -9 9 -22t-9 -22l-13 -12v0l12 -12v0l12 13v0z" />
</svg>
