<?xml version="1.0" standalone="no"?>
<!DOCTYPE svg PUBLIC "-//W3C//DTD SVG 1.1//EN" "http://www.w3.org/Graphics/SVG/1.1/DTD/svg11.dtd" >
<svg xmlns="http://www.w3.org/2000/svg" xmlns:xlink="http://www.w3.org/1999/xlink" version="1.1" viewBox="-10 -40 532 512">
   <path fill="currentColor"
d="M256 -23q-30 0 -54 14v0v0q-25 14 -40 37l-5 8v0l-7 -6v0q-22 -20 -54 -21q-34 1 -57 23q-22 23 -23 57q0 11 3 22v0v0v0v0q6 24 16 56q11 32 23 63t21 51v0q2 6 4 10q1 3 2 5v1v0h65v0l-30 -167v0l-1 -7v0l15 -3v0l2 8v0l31 169v0h81v0v-200v0v-8v0h16v0v8v0v200v0h81v0
l31 -169v0l1 -8v0l16 3v0l-1 8v0l-30 166v0h65v0v-1v0q1 -2 2 -5q2 -4 4 -10q9 -20 21 -51t23 -63q10 -32 16 -56v0v0v0v0q3 -11 3 -22q-1 -34 -23 -56q-23 -23 -57 -24q-32 1 -54 21l-7 6v0l-5 -8v0q-15 -23 -40 -37q-24 -14 -54 -14v0zM432 305l7 3l-7 -3l7 3l-2 5v0h-5
h-357l-2 -5v0l7 -3v0q-9 4 -7 3v0v0v0v0v0v0v0v0l-1 -1v0l-2 -5v0q-2 -4 -5 -11q0 -2 -1 -4q-9 -20 -21 -51t-23 -63q-11 -33 -16 -58q-4 -13 -4 -26q1 -41 28 -68t68 -28q33 1 58 19q37 -49 102 -51q65 2 102 51q25 -18 58 -19q41 1 68 28t28 68q0 13 -3 26q-6 25 -17 58
q-12 32 -23 63q-12 31 -21 51q-1 2 -1 4q-3 7 -5 12l-2 4v0v1v0h-1v0v0v0v0v0v0v0q2 1 -7 -3v0zM64 345h16h-16h16v112v0h352v0v-112v0h16v0v112v0v16v0h-16h-368v-16v0v-112v0z" />
</svg>
