<?xml version="1.0" standalone="no"?>
<!DOCTYPE svg PUBLIC "-//W3C//DTD SVG 1.1//EN" "http://www.w3.org/Graphics/SVG/1.1/DTD/svg11.dtd" >
<svg xmlns="http://www.w3.org/2000/svg" xmlns:xlink="http://www.w3.org/1999/xlink" version="1.1" viewBox="-10 -40 532 512">
   <path fill="currentColor"
d="M8 -39h208h-208h216v16v0h-8h-216v-16v0h8v0zM8 41h96h-96h216v16v0h-8h-96v120v0v8v0h-16v0v-8v0v-120v0h-96h-8v-16v0h8v0zM512 -33v10v-10v10v160v0v0v0q-1 20 -19 34q-18 13 -45 14q-27 -1 -45 -14q-18 -14 -19 -34q1 -20 19 -34q18 -13 45 -14q30 1 48 16v-118v0
l-144 29v0v153v0v0v0q-1 20 -19 34q-18 13 -45 14q-27 -1 -45 -14q-18 -14 -19 -34q1 -20 19 -34q18 -13 45 -14q30 1 48 16v-128v0v-7v0l6 -1v0l160 -32v0l10 -2v0zM484 116q-14 -10 -36 -11q-22 1 -36 11q-12 10 -12 21t12 21q14 10 36 11q22 -1 36 -11q12 -10 12 -21v0v0
q0 -11 -12 -21v0zM324 148q-14 -10 -36 -11q-22 1 -36 11q-12 10 -12 21t12 21q14 10 36 11q22 -1 36 -11q12 -10 12 -21v0v0q0 -11 -12 -21v0zM328 313q22 -2 24 -24q-2 -22 -24 -24q-22 2 -24 24q2 22 24 24v0zM328 249q23 1 35 20q10 20 0 40q-12 19 -35 20
q-23 -1 -35 -20q-10 -20 0 -40q12 -19 35 -20v0zM510 263l-208 208l208 -208l-208 208l-12 -12v0l208 -208v0l12 12v0zM496 433q-2 -22 -24 -24q-22 2 -24 24q2 22 24 24q22 -2 24 -24v0zM432 433q1 -23 20 -35q20 -10 40 0q19 12 20 35q-1 23 -20 35q-20 10 -40 0
q-19 -12 -20 -35v0zM32 217h96h-96h104v8v0v38v0q0 29 -21 50l-24 24v0l61 61v0l50 -51v0l12 12v0l-51 50v0l51 50v0l-12 12v0l-50 -51v0l-50 51v0l-3 2v0h-3h-88v-8v0v-24v0q1 -43 31 -74l30 -30v0l-24 -24v0q-21 -21 -21 -50v-38v0v-8v0h8v0zM104 302q16 -16 16 -39v-30v0
h-80v0v30v0q0 23 16 39l24 24v0l24 -24v0zM50 379q-25 25 -26 62v16v0h69v0l48 -48v0l-61 -61v0l-30 31v0z" />
</svg>
