<?xml version="1.0" standalone="no"?>
<!DOCTYPE svg PUBLIC "-//W3C//DTD SVG 1.1//EN" "http://www.w3.org/Graphics/SVG/1.1/DTD/svg11.dtd" >
<svg xmlns="http://www.w3.org/2000/svg" xmlns:xlink="http://www.w3.org/1999/xlink" version="1.1" viewBox="-10 -40 660 512">
   <path fill="currentColor"
d="M80 -23h416h-416h416v80v0h16v0v-80v0v-16v0h-16h-432v16v0v272v0h-48h-16v16v0v32v0l48 48v0h304v0v-16v0h-297v0l-39 -39v0v-25v0h48h288v-16v0h-272v0v-272v0zM400 457v-352v352v-352h224v0v352v0h-224v0zM384 89v16v-16v16v352v0v16v0h16h240v-16v0v-352v0v-16v0h-16
h-240z" />
</svg>
