<?xml version="1.0" standalone="no"?>
<!DOCTYPE svg PUBLIC "-//W3C//DTD SVG 1.1//EN" "http://www.w3.org/Graphics/SVG/1.1/DTD/svg11.dtd" >
<svg xmlns="http://www.w3.org/2000/svg" xmlns:xlink="http://www.w3.org/1999/xlink" version="1.1" viewBox="-10 -40 596 512">
   <path fill="currentColor"
d="M134 431l-6 5l6 -5l-6 5l-6 -5v0l-104 -104v0l-5 -6v0l11 -11v0l6 5v0l90 91v0v-405v0v-8v0h16v0v8v0v405v0l90 -91v0l6 -5v0l11 11v0l-5 6v0l-104 104v0zM296 9h80h-80h88v16v0h-8h-88v-16v0h8v0zM296 153h144h-144h152v16v0h-8h-152v-16v0h8v0zM296 281h208h-208h216
v16v0h-8h-216v-16v0h8v0zM296 409h272h-272h280v16v0h-8h-280v-16v0h8v0z" />
</svg>
