<?xml version="1.0" standalone="no"?>
<!DOCTYPE svg PUBLIC "-//W3C//DTD SVG 1.1//EN" "http://www.w3.org/Graphics/SVG/1.1/DTD/svg11.dtd" >
<svg xmlns="http://www.w3.org/2000/svg" xmlns:xlink="http://www.w3.org/1999/xlink" version="1.1" viewBox="-10 -40 586 512">
   <path fill="currentColor"
d="M320 -7h16h-16h224v16v0v192v0v16v0h-16h-208v-16v0v-192v0v-16v0zM528 201v-192v192v-192h-192v0v192v0h192v0zM160 -2l6 5l-6 -5l6 5l104 104v0l5 6v0l-11 11v0l-6 -5v0l-90 -91v0v405v0v8v0h-16v0v-8v0v-405v0l-90 91v0l-6 5v0l-11 -11v0l5 -6v0l104 -104v0l6 -5v0z
M336 281h128h-128h144v16v0v128v0v16v0h-16h-144v-16v0v-128v0v-16v0h16v0zM464 297h-128h128h-128v128v0h128v0v-128v0z" />
</svg>
