<?xml version="1.0" standalone="no"?>
<!DOCTYPE svg PUBLIC "-//W3C//DTD SVG 1.1//EN" "http://www.w3.org/Graphics/SVG/1.1/DTD/svg11.dtd" >
<svg xmlns="http://www.w3.org/2000/svg" xmlns:xlink="http://www.w3.org/1999/xlink" version="1.1" viewBox="-10 -40 468 512">
   <path fill="currentColor"
d="M160 -39h128h-128h132l3 4v0l37 60v0h116v0v16v0h-448v0v-16v0h116v0l37 -60v0l3 -4v0h4v0zM314 25l-30 -48l30 48l-30 -48h-120v0l-30 48v0h180v0zM32 465v-392v392v-392h16v0v384v0h352v0v-384v0h16v0v392v0v8v0h-8h-376v-8v0zM219 154l-6 5l6 -5l-6 5l-72 66v0h107v0
q31 1 51 21t21 51v40v0v8v0h-16v0v-8v0v-40v0q-1 -24 -16 -40q-16 -15 -40 -16h-107v0l72 66v0l6 6v0l-11 11v0l-5 -5v0l-88 -80v0l-7 -6v0l7 -6v0l88 -80v0l5 -5v0l11 12v0z" />
</svg>
