<?xml version="1.0" standalone="no"?>
<!DOCTYPE svg PUBLIC "-//W3C//DTD SVG 1.1//EN" "http://www.w3.org/Graphics/SVG/1.1/DTD/svg11.dtd" >
<svg xmlns="http://www.w3.org/2000/svg" xmlns:xlink="http://www.w3.org/1999/xlink" version="1.1" viewBox="-10 -40 532 512">
   <path fill="currentColor"
d="M256 -39q-33 1 -61 16v0v0q-29 15 -50 34q-22 19 -34 34q-7 7 -10 11v0l-1 1h-84h-16v16v0v144v0v8v0v8v0v224v0v16v0h16h496v-16v0v-224v0v-8v0v-8v0v-144v0v-16v0h-16h-84v0l-1 -1q-3 -4 -9 -11q-13 -15 -35 -34q-21 -19 -50 -34q-28 -15 -61 -16v0zM408 73v0v0v0v0h88
v0v144v0h-480v0v-144v0h392v0zM391 57h-270h270h-270l1 -1l1 -1q12 -14 32 -32q21 -18 47 -32q26 -13 54 -14q28 1 54 14q26 14 47 32t33 32v1l1 1v0zM496 457h-480h480h-480v-224v0h480v0v224v0zM88 281v24v-24v24h24v0v-24v0h-24v0zM88 385v24v-24v24h24v0v-24v0h-24v0z
M176 281h-24h24h-24v24v0h24v0v-24v0zM152 385v24v-24v24h24v0v-24v0h-24v0zM144 333h-24h24h-24v24v0h24v0v-24v0zM216 281v24v-24v24h24v0v-24v0h-24v0zM240 385h-24h24h-24v24v0h24v0v-24v0zM184 333v24v-24v24h24v0v-24v0h-24v0zM304 281h-24h24h-24v24v0h24v0v-24v0z
M280 385v24v-24v24h24v0v-24v0h-24v0zM272 333h-24h24h-24v24v0h24v0v-24v0zM344 281v24v-24v24h24v0v-24v0h-24v0zM432 281h-24h24h-24v24v0h24v0v-24v0zM344 385v24v-24v24h24v0v-24v0h-24v0zM432 385h-24h24h-24v24v0h24v0v-24v0zM312 333v24v-24v24h24v0v-24v0h-24v0z
M400 333h-24h24h-24v24v0h24v0v-24v0zM80 153q1 -15 16 -16q15 1 16 16q-1 15 -16 16q-15 -1 -16 -16v0zM128 153q0 -14 -9 -23v0v0q-9 -9 -23 -9t-23 9t-9 23t9 23t23 9t23 -9t9 -23v0zM192 137q15 1 16 16q-1 15 -16 16q-15 -1 -16 -16q1 -15 16 -16v0zM192 185
q14 0 23 -9v0v0q9 -9 9 -23t-9 -23t-23 -9t-23 9t-9 23t9 23t23 9v0zM304 153q1 -15 16 -16q15 1 16 16q-1 15 -16 16q-15 -1 -16 -16v0zM352 153q0 -14 -9 -23v0v0q-9 -9 -23 -9t-23 9t-9 23t9 23t23 9t23 -9t9 -23v0zM416 137q15 1 16 16q-1 15 -16 16q-15 -1 -16 -16
q1 -15 16 -16v0zM416 185q14 0 23 -9v0v0q9 -9 9 -23t-9 -23t-23 -9t-23 9t-9 23t9 23t23 9v0z" />
</svg>
