<?xml version="1.0" standalone="no"?>
<!DOCTYPE svg PUBLIC "-//W3C//DTD SVG 1.1//EN" "http://www.w3.org/Graphics/SVG/1.1/DTD/svg11.dtd" >
<svg xmlns="http://www.w3.org/2000/svg" xmlns:xlink="http://www.w3.org/1999/xlink" version="1.1" viewBox="-10 -40 596 512">
   <path fill="currentColor"
d="M56 -7h-8h8h-8v8v0v120v0h-32h-16v16v0v288v0v16v0h16h368v-16v0v-65v0v-28v0v-102v0v-27v0v-66v0v-16v0h-16h-304v-112v0h248h8v-16v0h-8h-256zM48 137h16h-16h320v93v0v102v0v93v0h-352v0v-288v0h32v0zM560 417l-144 -61l144 61l-144 -61v17v0l144 61v0l16 7v0v-17v0
v-286v0v-17v0l-16 7v0l-144 61v0v17v0l144 -61v0v272v0zM64 201v16v-16v16h8h248v-16v0h-8h-248z" />
</svg>
