<?xml version="1.0" standalone="no"?>
<!DOCTYPE svg PUBLIC "-//W3C//DTD SVG 1.1//EN" "http://www.w3.org/Graphics/SVG/1.1/DTD/svg11.dtd" >
<svg xmlns="http://www.w3.org/2000/svg" xmlns:xlink="http://www.w3.org/1999/xlink" version="1.1" viewBox="-10 -40 660 512">
   <path fill="currentColor"
d="M224 89h8h-8h288v16v0h-8h-24v48v0h86v0l62 -31v0l12 -6v0v13v0v208v0v13v0l-12 -6v0l-62 -31v0h-470h-3l-88 -32v0l-5 -2v0v-6v0v-80v0v-6v0l5 -1v0l88 -32v0l2 -1v0h1h160v-48v0h-24h-8v-16v0zM464 105h-88h88h-88v48v0h88v0v-48v0zM360 105h-88h88h-88v48v0h88v0v-48
v0zM97 169l-81 30l81 -30l-81 30v68v0l81 30v0h471h2l2 1v0l52 26v0v-182v0l-52 26v0l-2 1v0h-2h-471zM272 217q15 1 16 16q-1 15 -16 16q-15 -1 -16 -16q1 -15 16 -16v0zM352 233q1 -15 16 -16q15 1 16 16q-1 15 -16 16q-15 -1 -16 -16v0zM464 217q15 1 16 16q-1 15 -16 16
q-15 -1 -16 -16q1 -15 16 -16v0z" />
</svg>
