<?xml version="1.0" standalone="no"?>
<!DOCTYPE svg PUBLIC "-//W3C//DTD SVG 1.1//EN" "http://www.w3.org/Graphics/SVG/1.1/DTD/svg11.dtd" >
<svg xmlns="http://www.w3.org/2000/svg" xmlns:xlink="http://www.w3.org/1999/xlink" version="1.1" viewBox="-10 -40 524 512">
   <path fill="currentColor"
d="M476 -38l4 4l-4 -4l4 4l10 10v0q14 14 14 33t-14 33q-11 10 -25 11q-14 0 -25 -9l-58 59v0v0v0l-111 110v0q24 23 43 24q18 2 29 -4q11 -7 11 -8v0v0l12 13v0l12 11v0l-12 11v0l-17 18v0q-14 13 -32 20l-1 1v0q-18 8 -33 21q-19 20 -30 46q-12 26 -18 45q-8 26 -27 44
q-20 17 -48 18q-32 1 -57 -23l-80 -81v0q-23 -24 -23 -55t23 -55q16 -16 39 -22q30 -8 60 -25q30 -16 46 -45q3 -5 5 -10q8 -19 21 -34l30 -29v0l11 -11v0l11 11v0l13 12v0v0v0q-2 1 -11 15q-9 13 -10 35q-2 21 21 45l1 1v0l108 -108v0v-77v0v-5v0l5 -2v0l98 -46v0l5 -2v0z
M384 78l50 -51l-50 51l50 -51l6 -5v0l6 5v0l3 4v0q15 12 30 0q9 -10 9 -22t-9 -22l-6 -6v0l-89 41v0v56v0zM238 108l-3 -3l3 3l-3 -3l-29 30v0q-7 6 -12 17q-2 4 -4 9q-1 1 -1 2l-1 1v0v0v0q-2 5 -5 11q-20 34 -52 51q-33 18 -65 26q-19 6 -32 19q-18 19 -18 43q0 25 18 44
v0v0v0v0l81 81v0v0v0q19 19 45 18q21 -1 37 -15q16 -13 23 -35q5 -20 18 -48t33 -50q19 -16 37 -24h1v0q18 -9 29 -19l17 -17v0l-3 -3v0q-7 4 -19 7q-15 3 -34 -3t-39 -25l-12 -12v0q-21 -21 -25 -43q-3 -22 3 -39q5 -15 12 -23v0zM158 267l48 48l-48 -48l48 48l5 6v0
l-11 11v0l-6 -5v0l-48 -48v0l-5 -6v0l11 -11v0l6 5v0zM110 315l48 48l-48 -48l48 48l5 6v0l-11 11v0l-6 -5v0l-48 -48v0l-5 -6v0l11 -11v0l6 5v0z" />
</svg>
