<?xml version="1.0" standalone="no"?>
<!DOCTYPE svg PUBLIC "-//W3C//DTD SVG 1.1//EN" "http://www.w3.org/Graphics/SVG/1.1/DTD/svg11.dtd" >
<svg xmlns="http://www.w3.org/2000/svg" xmlns:xlink="http://www.w3.org/1999/xlink" version="1.1" viewBox="-10 -40 532 512">
   <path fill="currentColor"
d="M88 -39h80h-80h88v8v0v80v0v3v0l-1 2v0l-39 54v0v29v0q45 4 74 28t30 60q0 21 -12 39q-6 10 -5 23q1 12 8 21q9 9 15 21q-3 7 -7 14q0 1 -1 1q-1 2 -1 4q-5 -16 -17 -30q-12 -13 -13 -31q-1 -17 8 -31q9 -15 9 -31q0 -27 -24 -48q-24 -20 -64 -24v89v0q30 8 32 39
q0 17 -12 28q-11 12 -28 12t-28 -12q-11 -11 -12 -28q2 -31 32 -39v-89v0q-40 4 -63 24q-24 21 -25 48q0 16 9 31q9 14 8 31q0 18 -12 31q-21 23 -21 51q1 35 32 61q30 26 80 27q33 0 57 -12q25 -13 40 -32q1 10 4 20q-37 38 -101 40q-54 -1 -91 -30q-36 -30 -37 -74
q1 -35 25 -61q8 -9 8 -22q1 -12 -5 -22q-12 -18 -12 -39q1 -36 30 -60q29 -25 74 -28v-29v0l-38 -54v0l-2 -2v0v-3v0v-80v0v-8v0h8v0zM160 46v-69v69v-69h-64v0v69v0l32 45v0l32 -45v0zM392 201q41 -3 53 -24v0v0q12 -21 11 -24h16h16v16v0v22v0q-1 18 -8 37v0v0v0v0v0v0v0
v0v0v0v0q-3 6 -4 12q-4 10 -4 25q1 26 10 51t19 42q11 19 11 41q-1 31 -22 52q-20 21 -52 22h-108v0q-32 -1 -52 -22q-21 -20 -22 -52q0 -22 11 -41q10 -17 19 -42t10 -51q0 -15 -4 -25q-1 -6 -3 -12v0v0v0v0v0v0v0v0v0v0h-1q-7 -18 -8 -37v-38v0v-16v0h16h16q-1 1 2 17
q3 15 17 30q14 16 45 17v-77v0l-46 -54v0l-2 -3v0v-3v0l16 -96v0l1 -7v0h7h32q17 0 28 12q12 11 12 28q-2 31 -32 39v81v0v80v0zM330 204q-17 -12 -24 -28q-6 -13 -8 -23h-2v0v37v0q0 10 4 21q1 4 3 9q0 1 1 3v0v0q0 2 1 3q1 5 3 10q4 12 4 29q-1 29 -11 56t-20 44
q-9 17 -9 34q1 25 17 41t41 17h108v0q25 -1 41 -17t17 -41q0 -17 -9 -34q-10 -17 -20 -44t-11 -56q0 -17 4 -29q2 -7 4 -13v0v0v0h1v0q2 -6 3 -12q4 -11 4 -21v-21v0h-4v0q-3 8 -10 18q-9 12 -25 21t-41 9h-16v0q-28 0 -46 -13v0zM128 305q22 -2 24 -24q-2 -22 -24 -24
q-22 2 -24 24q2 22 24 24v0zM376 99v-66v66v-66v-8v0h8v0q22 -2 24 -24q-2 -22 -24 -24h-25v0l-14 86v0l31 36v0zM352 281h64h-64h72v16v0h-8h-72v-16v0h8v0zM352 345h64h-64h72v16v0h-8h-72v-16v0h8v0z" />
</svg>
