<?xml version="1.0" standalone="no"?>
<!DOCTYPE svg PUBLIC "-//W3C//DTD SVG 1.1//EN" "http://www.w3.org/Graphics/SVG/1.1/DTD/svg11.dtd" >
<svg xmlns="http://www.w3.org/2000/svg" xmlns:xlink="http://www.w3.org/1999/xlink" version="1.1" viewBox="-10 -40 532 512">
   <path fill="currentColor"
d="M168 -15v79v-79v79q19 -7 40 -7t40 7v-87v0h-24v0q-29 0 -56 8v0zM152 -10q-61 23 -98 75v0v0q-37 52 -38 120q2 86 62 148l2 2v0v3v0v127v0v8v0h-16v0v-8v0v-123v0q-62 -66 -64 -157q1 -63 31 -113q29 -51 80 -80q50 -30 113 -31h24v0q79 2 133 54q53 53 59 131l69 62v0
l3 2v0v4v0v75v0v8v0h-8h-56v104v0v8v0h-8h-120v56v0v8v0h-16v0v-8v0v-64v0v-8v0h8h120v-104v0v-8v0h8h56v-64v0l-69 -62v0l-3 -2v0v-3v0q-4 -69 -48 -117t-112 -55v94v0q25 15 41 40q15 26 15 57q-1 48 -33 79q-31 32 -79 33q-48 -1 -79 -33q-32 -31 -33 -79q0 -31 15 -57
q16 -25 41 -40v-82v0zM304 169q0 -26 -13 -48v0v0q-13 -22 -35 -35q-23 -13 -48 -13t-48 13q-22 13 -35 35t-13 48t13 48t35 35q23 13 48 13t48 -13q22 -13 35 -35t13 -48v0zM208 201q14 0 23 -9v0v0q9 -9 9 -23t-9 -23t-23 -9t-23 9t-9 23t9 23t23 9v0zM208 121q27 1 42 24
q12 24 0 48q-15 23 -42 24q-27 -1 -42 -24q-12 -24 0 -48q15 -23 42 -24v0z" />
</svg>
