<?xml version="1.0" standalone="no"?>
<!DOCTYPE svg PUBLIC "-//W3C//DTD SVG 1.1//EN" "http://www.w3.org/Graphics/SVG/1.1/DTD/svg11.dtd" >
<svg xmlns="http://www.w3.org/2000/svg" xmlns:xlink="http://www.w3.org/1999/xlink" version="1.1" viewBox="-10 -40 404 512">
   <path fill="currentColor"
d="M16 -23v480v-480v480h352v0v-480v0h-352v0zM0 -39h16h-16h384v16v0v480v0v16v0h-16h-368v-16v0v-480v0v-16v0zM80 41v96v-96v96h224v0v-96v0h-224v0zM64 25h16h-16h256v16v0v96v0v16v0h-16h-240v-16v0v-96v0v-16v0zM192 393q26 0 48 -13v0v0q22 -13 35 -35q13 -23 13 -48
t-13 -48q-13 -22 -35 -35t-48 -13t-48 13t-35 35q-13 23 -13 48t13 48q13 22 35 35t48 13v0zM192 185q30 0 56 15v0v0q26 15 41 41t15 56t-15 56t-41 41t-56 15t-56 -15t-41 -41t-15 -56t15 -56t41 -41t56 -15v0zM208 297q-1 -15 -16 -16q-15 1 -16 16q1 15 16 16
q15 -1 16 -16v0zM160 297q0 -14 9 -23v0v0q9 -9 23 -9t23 9t9 23t-9 23t-23 9t-23 -9t-9 -23v0z" />
</svg>
