<?xml version="1.0" standalone="no"?>
<!DOCTYPE svg PUBLIC "-//W3C//DTD SVG 1.1//EN" "http://www.w3.org/Graphics/SVG/1.1/DTD/svg11.dtd" >
<svg xmlns="http://www.w3.org/2000/svg" xmlns:xlink="http://www.w3.org/1999/xlink" version="1.1" viewBox="-10 -40 660 512">
   <path fill="currentColor"
d="M16 -34l-6 -5l6 5l-6 -5l-10 13v0l6 5v0l618 489v0l6 5v0l10 -12v0l-6 -5v0l-618 -490v0zM367 163l193 -63l-193 63l193 -63v185v0q-28 -34 -80 -36h-2h-1l22 18v0q46 11 58 46l19 14v0v-238v0v-112v0v-11v0l-10 3v0l-320 96v0l-1 1v0l15 12v0l300 -90v0v95v0l-208 68v0
l15 12v0zM240 246v103v-103v103q-28 -34 -80 -36q-41 1 -68 23q-27 23 -28 57q1 34 28 57q27 22 68 23q41 -1 68 -23q27 -23 28 -57v0v0v-135v0l-16 -12v0zM240 393v0v0v0q-1 25 -22 44q-22 19 -58 20q-36 -1 -58 -20q-21 -19 -22 -44q1 -25 22 -44q22 -19 58 -20
q36 1 58 20q21 19 22 44v0z" />
</svg>
