<?xml version="1.0" standalone="no"?>
<!DOCTYPE svg PUBLIC "-//W3C//DTD SVG 1.1//EN" "http://www.w3.org/Graphics/SVG/1.1/DTD/svg11.dtd" >
<svg xmlns="http://www.w3.org/2000/svg" xmlns:xlink="http://www.w3.org/1999/xlink" version="1.1" viewBox="-10 -40 660 512">
   <path fill="currentColor"
d="M424 -31v-8v8v-8h-16v0v8v0v112v0v8v0h16v0v-8v0v-112v0zM262 3l-6 -5l6 5l-6 -5l-11 11v0l5 6v0l80 80v0l6 5v0l11 -11v0l-5 -6v0l-80 -80v0zM582 15l5 -6l-5 6l5 -6l-11 -11v0l-6 5v0l-80 80v0l-5 6v0l11 11v0l6 -5v0l80 -80v0zM272 281q0 -39 19 -72v0v0
q19 -33 53 -53q34 -19 72 -19t72 19q34 20 53 53t19 72t-19 72t-53 53q-34 19 -72 19t-72 -19q-34 -20 -53 -53t-19 -72v0zM576 281q-2 -67 -46 -112h94v0v224v0h-48h-46q44 -45 46 -112v0zM576 409h48h-48h64v-16v0v-224v0v-16v0h-16h-112q-41 -31 -96 -32q-55 1 -96 32
h-304h-16v16v0v224v0v16v0h16h48v56v0v8v0h16v0v-8v0v-56v0h240v0q41 31 96 32q55 -1 96 -32v0v0h48v0v56v0v8v0h16v0v-8v0v-56v0zM80 393h-16h16h-64v-224v0h286v0q-44 45 -46 112q2 67 46 112h-222v0zM112 281q-1 15 -16 16q-15 -1 -16 -16q1 -15 16 -16q15 1 16 16v0z
M96 249q-14 0 -23 9v0v0q-9 9 -9 23t9 23t23 9t23 -9t9 -23t-9 -23t-23 -9v0zM192 297q-15 -1 -16 -16q1 -15 16 -16q15 1 16 16q-1 15 -16 16v0zM160 281q0 14 9 23v0v0q9 9 23 9t23 -9t9 -23t-9 -23t-23 -9t-23 9t-9 23v0z" />
</svg>
