<?xml version="1.0" standalone="no"?>
<!DOCTYPE svg PUBLIC "-//W3C//DTD SVG 1.1//EN" "http://www.w3.org/Graphics/SVG/1.1/DTD/svg11.dtd" >
<svg xmlns="http://www.w3.org/2000/svg" xmlns:xlink="http://www.w3.org/1999/xlink" version="1.1" viewBox="-10 -40 660 512">
   <path fill="currentColor"
d="M102 -39q-18 11 -41 34v0v0q-24 22 -42 53v0v0q-18 31 -19 67q0 11 2 22h16v0q-2 -11 -2 -22q2 -47 35 -86q26 -31 49 -47l42 42v0l12 11v0l11 -11v0l15 -15v0q36 35 48 64q13 30 12 42q0 11 -2 22h16v0q2 -11 2 -22q1 -17 -15 -53q-17 -36 -62 -75l-14 14v0l-11 11v0
l-12 -11v0l-40 -40v0zM128 64q-2 0 -27 21v0v0q-24 20 -41 52h18v0q9 -16 23 -30t25 -22l1 -1l1 -1l1 1l1 1q11 8 25 22t23 30h18v0q-17 -32 -41 -52q-25 -21 -27 -21v0v0zM512 25h-3h3h-3l-3 2v0l-55 54v0l-21 -22v0l-6 -5v0l-11 11v0l5 6v0l22 21v0l-37 36v0l-21 -21v0
l-6 -5v0l-11 11v0l5 6v0l21 21v0l-37 36v0l-20 -21v0l-6 -5v0l-11 11v0l5 6v0l21 20v0l-136 132v0l-14 -9v0l37 -125v0h18h8v-16v0h-8h-248v16v0h8h21l-23 81v0q-6 22 -6 45v2v0q2 68 47 113t113 47q37 0 69 -15t55 -43l256 -310v0h92h8v-8v0v-24v0v-3v0l-2 -3v0l-40 -40v0
l-3 -2v0h-3h-80zM46 185h167h-167h167l-37 126v0l-1 5v0l5 4v0l24 16v0l5 3v0l5 -4v0l301 -294v0h74v0l35 35v0v13v0h-88h-4l-2 3v0l-258 313v0q-44 51 -112 52q-61 -2 -102 -42q-40 -41 -42 -102v-2v0q0 -21 6 -41l24 -85v0zM80 345q15 -1 16 -16q-1 -15 -16 -16
q-15 1 -16 16q1 15 16 16v0zM128 233q-1 -15 -16 -16q-15 1 -16 16q1 15 16 16q15 -1 16 -16v0z" />
</svg>
