<?xml version="1.0" standalone="no"?>
<!DOCTYPE svg PUBLIC "-//W3C//DTD SVG 1.1//EN" "http://www.w3.org/Graphics/SVG/1.1/DTD/svg11.dtd" >
<svg xmlns="http://www.w3.org/2000/svg" xmlns:xlink="http://www.w3.org/1999/xlink" version="1.1" viewBox="-10 -40 660 512">
   <path fill="currentColor"
d="M509 -7h3h-3h86l3 2v0l40 40v0l2 3v0v3v0v24v0v8v0h-8h-92l-256 310v0q-23 28 -55 43t-69 15q-68 -2 -113 -47t-47 -113v-8v0q0 -17 3 -33l27 -135v0h-22h-8v-16v0h8h280v16v0h-8h-26l-60 157v0l21 16v0l127 -123v0l-20 -20v0l-5 -6v0l11 -11v0l6 5v0l20 21v0l37 -37v0
l-21 -20v0l-5 -6v0l11 -11v0l6 5v0l21 21v0l37 -36v0l-22 -21v0l-5 -6v0l11 -11v0l6 5v0l21 22v0l56 -54v0l2 -2v0zM19 243q-3 15 -3 30v8v0q2 61 42 102q41 40 102 42q68 -1 112 -52l258 -313v0l2 -3v0h4h88v-13v0l-35 -35v0h-74v0l-293 286v0l-5 4v0l-6 -4v0l-32 -23v0
l-5 -4v0l3 -6v0l59 -157v0h-189v0l-28 138v0zM112 185q1 -15 16 -16q15 1 16 16q-1 15 -16 16q-15 -1 -16 -16v0zM96 265q15 1 16 16q-1 15 -16 16q-15 -1 -16 -16q1 -15 16 -16v0z" />
</svg>
