<?xml version="1.0" standalone="no"?>
<!DOCTYPE svg PUBLIC "-//W3C//DTD SVG 1.1//EN" "http://www.w3.org/Graphics/SVG/1.1/DTD/svg11.dtd" >
<svg xmlns="http://www.w3.org/2000/svg" xmlns:xlink="http://www.w3.org/1999/xlink" version="1.1" viewBox="-10 -40 660 512">
   <path fill="currentColor"
d="M603 25h5h-5h37v8v0v152v0v168v0v8v0h-8h-29l-2 -4v0v0v0v0v0v0v0v0v0v-1v0v0l-1 -1v0q-1 -1 -2 -3q-3 -6 -9 -14q-12 -19 -36 -43q-25 -24 -63 -43q-38 -18 -90 -19h-32v0v128v0h32v0q27 -1 45 -19t19 -45q0 -12 -4 -22q10 3 19 8q1 7 1 14q-1 34 -23 57q-23 22 -57 23
h-32h-224q-34 -1 -57 -23q-22 -23 -23 -57q1 -41 32 -64h-80v0v8v0v8v0h-16v0v-8v0v-96v0v-8v0h16v0v8v0v8v0h160v0v-32v0v-8v0h16v0v8v0v32v0h72v0v-32v0v-8v0h16v0v8v0v32v0h72v0v-32v0v-8v0h16v0v8v0v32v0h32v0q52 -1 90 -19q38 -19 63 -43q24 -24 36 -42q6 -9 9 -14
q1 -2 1 -3l1 -1l1 -1v0v0v0v0v0v0v0v0v0v0l2 -5v0zM144 217h32h-32h256q56 1 97 21q40 19 67 45q26 26 38 46q7 9 10 15l1 1v0h11v0v-160v0v-144v0h-11v0l-1 2v0q-3 5 -10 15q-12 19 -39 45q-26 26 -66 45q-41 20 -97 21h-32h-352v48v0h128v0zM144 233q-27 1 -45 19v0v0
q-18 18 -19 45q1 27 19 45t45 19h32v0v-128v0h-32v0zM192 233v128v-128v128h72v0v-128v0h-72v0zM280 233v128v-128v128h72v0v-128v0h-72v0z" />
</svg>
