<?xml version="1.0" standalone="no"?>
<!DOCTYPE svg PUBLIC "-//W3C//DTD SVG 1.1//EN" "http://www.w3.org/Graphics/SVG/1.1/DTD/svg11.dtd" >
<svg xmlns="http://www.w3.org/2000/svg" xmlns:xlink="http://www.w3.org/1999/xlink" version="1.1" viewBox="-10 -40 660 512">
   <path fill="currentColor"
d="M512 -23q1 -15 16 -16q15 1 16 16q-1 15 -16 16q-15 -1 -16 -16v0zM464 25q15 1 16 16q-1 15 -16 16q-15 -1 -16 -16q1 -15 16 -16v0zM560 121q15 1 16 16q-1 15 -16 16q-15 -1 -16 -16q1 -15 16 -16v0zM640 73q-1 15 -16 16q-15 -1 -16 -16q1 -15 16 -16q15 1 16 16v0z
M347 -23l-5 6l5 -6l-5 6l-320 320v0l-6 5v0l-11 -11v0l5 -6v0l320 -320v0l6 -5v0l11 11v0zM208 265q-22 0 -41 -9q-22 32 -23 73q0 26 9 48l79 -48v0l40 40v0l-48 79v0q22 9 48 9q41 -1 73 -23q-9 -19 -9 -41q1 -41 28 -68t68 -28q10 0 20 2q12 -23 12 -50q-1 -43 -27 -73
l-71 71v0l-6 5v0l-11 -11v0l5 -6v0l71 -71v0q-30 -26 -73 -27q-27 0 -50 12q2 10 2 20q-1 41 -28 68t-68 28v0zM448 164q31 35 32 85q0 39 -20 69q-13 -5 -28 -5q-34 1 -57 23q-22 23 -23 57q0 25 14 45q-39 34 -94 35q-30 0 -57 -12l-7 12v0l-12 -12v0l-56 -56v0l-12 -12v0
l12 -7v0q-12 -26 -12 -57q1 -55 35 -94q20 14 45 14q34 -1 57 -23q22 -23 23 -57q0 -15 -5 -28q30 -20 69 -20q50 1 85 32l181 -182v0l6 -5v0l11 11v0l-5 6v0l-182 181v0zM205 447l47 -76l-47 76l47 -76l-22 -22v0l-76 47v0l51 51v0z" />
</svg>
