<?xml version="1.0" standalone="no"?>
<!DOCTYPE svg PUBLIC "-//W3C//DTD SVG 1.1//EN" "http://www.w3.org/Graphics/SVG/1.1/DTD/svg11.dtd" >
<svg xmlns="http://www.w3.org/2000/svg" xmlns:xlink="http://www.w3.org/1999/xlink" version="1.1" viewBox="-10 -40 660 512">
   <path fill="currentColor"
d="M441 25h14h-14h14l1 7v0l41 316v0l39 -220v0l1 -7v0h13v0l2 6v0l30 114v0h50h8v16v0h-8h-62l-2 -6v0l-22 -85v0l-42 236v0l-1 7v0h-14v0l-1 -7v0l-40 -311v0l-56 375v0l-1 7v0h-14v0l-1 -7v0l-56 -434v0l-56 434v0l-1 7v0h-14v0l-1 -7v0l-55 -375v0l-41 311v0l-1 7v0h-14
v0l-1 -7v0l-42 -236v0l-22 85v0l-2 6v0h-6h-64v-16v0h8h50l30 -114v0l2 -6v0h13v0l1 7v0l39 220v0l41 -316v0l1 -7v0h14v0l1 7v0l55 375v0l57 -439v0l1 -7v0h14v0l1 7v0l57 439v0l55 -375v0l1 -7v0z" />
</svg>
