<?xml version="1.0" standalone="no"?>
<!DOCTYPE svg PUBLIC "-//W3C//DTD SVG 1.1//EN" "http://www.w3.org/Graphics/SVG/1.1/DTD/svg11.dtd" >
<svg xmlns="http://www.w3.org/2000/svg" xmlns:xlink="http://www.w3.org/1999/xlink" version="1.1" viewBox="-10 -40 468 512">
   <path fill="currentColor"
d="M224 -23q-88 2 -147 61v0v0q-59 59 -61 147q2 61 33 111t74 87q42 37 75 56q15 10 24 15l2 1v0l2 -1v0q9 -5 24 -15q33 -19 75 -56q43 -37 74 -87t33 -111q-2 -88 -61 -147t-147 -61v0zM0 185q1 -63 31 -113v0v0q29 -51 80 -80v0v0q50 -30 113 -31q63 1 113 31
q51 29 80 80q30 50 31 113q-2 66 -35 119t-77 91t-77 58t-35 20t-35 -20t-77 -58t-77 -91t-35 -119v0zM368 185h-32h32h-32q-34 1 -57 23q-22 23 -23 57h32v0q34 -1 57 -23q22 -23 23 -57v0zM336 169h32h-32h48v16v0q-1 41 -28 68t-68 28h-32h-16v-16v0q1 -41 28 -68t68 -28
v0zM112 185h-32h32h-32q1 34 23 57q23 22 57 23h32v0q-1 -34 -23 -57q-23 -22 -57 -23v0zM208 265v16v-16v16h-16h-32q-41 -1 -68 -28t-28 -68v-16v0h16h32q41 1 68 28t28 68v0z" />
</svg>
