<?xml version="1.0" standalone="no"?>
<!DOCTYPE svg PUBLIC "-//W3C//DTD SVG 1.1//EN" "http://www.w3.org/Graphics/SVG/1.1/DTD/svg11.dtd" >
<svg xmlns="http://www.w3.org/2000/svg" xmlns:xlink="http://www.w3.org/1999/xlink" version="1.1" viewBox="-10 -40 596 512">
   <path fill="currentColor"
d="M16 -31v-8v8v-8h-16v0v8v0v192v0v240v0v64v0v8v0h16v0v-8v0v-56v0h200h344v56v0v8v0h16v0v-8v0v-64v0v-160v0v-80v0v-64v0q-1 -44 -30 -74q-30 -29 -74 -30h-256h-8v8v0v152v0h-192v0v-184v0zM208 241v152v-152v152h-192v0v-224v0h200h344v64v0h-344h-8v8v0zM560 97v56
v-56v56h-336v0v-144v0h248v0q37 1 62 26t26 62v0zM224 249h336h-336h336v144v0h-336v0v-144v0zM112 9q27 1 42 24q12 24 0 48q-15 23 -42 24q-27 -1 -42 -24q-12 -24 0 -48q15 -23 42 -24v0zM112 121q36 -1 55 -32q18 -32 0 -64q-19 -31 -55 -32q-36 1 -55 32q-18 32 0 64
q19 31 55 32v0zM112 249q27 1 42 24q12 24 0 48q-15 23 -42 24q-27 -1 -42 -24q-12 -24 0 -48q15 -23 42 -24v0zM112 361q36 -1 55 -32q18 -32 0 -64q-19 -31 -55 -32q-36 1 -55 32q-18 32 0 64q19 31 55 32v0z" />
</svg>
