<?xml version="1.0" standalone="no"?>
<!DOCTYPE svg PUBLIC "-//W3C//DTD SVG 1.1//EN" "http://www.w3.org/Graphics/SVG/1.1/DTD/svg11.dtd" >
<svg xmlns="http://www.w3.org/2000/svg" xmlns:xlink="http://www.w3.org/1999/xlink" version="1.1" viewBox="-10 -40 468 512">
   <path fill="currentColor"
d="M0 33q0 -17 12 -28v0v0q11 -12 28 -12h80v0q58 1 96 40q39 38 40 96q-1 53 -34 90q-32 37 -83 45l61 166v0q1 7 -5 11q-7 1 -11 -5l-62 -171v0h-1h-1h-104v0v168v0q-1 7 -8 8q-7 -1 -8 -8v-176v0v-224v0zM16 249h104h-104h104q51 -1 85 -35t35 -85q-1 -51 -35 -85
t-85 -35h-80v0q-22 2 -24 24v216v0zM379 171q-37 -6 -62 7v0v0q-24 13 -28 37q-2 18 2 28q5 11 15 19q22 15 55 25h1h1v0q34 10 61 29q13 11 20 27q6 16 3 38q-7 36 -38 51q-30 14 -71 7v0v0q-14 -3 -31 -10q-12 -4 -21 -8v0v0q-5 -2 -9 -3q-7 -3 -5 -10q4 -7 11 -5q4 2 9 4
v0v0q9 3 20 7q17 7 29 9q37 6 61 -5q24 -12 29 -39q2 -19 -2 -30q-5 -12 -15 -20q-22 -16 -56 -27h-3v0q0 -1 -1 -1q-32 -9 -58 -26q-13 -10 -19 -25q-7 -16 -4 -37q6 -34 37 -49t72 -9q7 2 20 4q13 3 20 6q7 2 6 10q-3 6 -10 5q-7 -2 -20 -5q-12 -3 -19 -4v0z" />
</svg>
