<?xml version="1.0" standalone="no"?>
<!DOCTYPE svg PUBLIC "-//W3C//DTD SVG 1.1//EN" "http://www.w3.org/Graphics/SVG/1.1/DTD/svg11.dtd" >
<svg xmlns="http://www.w3.org/2000/svg" xmlns:xlink="http://www.w3.org/1999/xlink" version="1.1" viewBox="-10 -40 468 512">
   <path fill="currentColor"
d="M446 95q4 -6 0 -12l-104 -104v0q-6 -4 -12 0q-4 6 0 12l91 90v0h-413v0q-7 1 -8 8q1 7 8 8h413v0l-91 90v0q-4 6 0 12q6 4 12 0l104 -104v0zM2 351l104 104l-104 -104l104 104q6 4 12 0q4 -6 0 -12l-91 -90v0h413v0q7 -1 8 -8q-1 -7 -8 -8h-413v0l91 -90v0q4 -6 0 -12
q-6 -4 -12 0l-104 104v0q-4 6 0 12v0z" />
</svg>
