<?xml version="1.0" standalone="no"?>
<!DOCTYPE svg PUBLIC "-//W3C//DTD SVG 1.1//EN" "http://www.w3.org/Graphics/SVG/1.1/DTD/svg11.dtd" >
<svg xmlns="http://www.w3.org/2000/svg" xmlns:xlink="http://www.w3.org/1999/xlink" version="1.1" viewBox="-10 -40 468 512">
   <path fill="currentColor"
d="M448 33q-1 -7 -8 -8q-7 1 -8 8v368v0q1 7 8 8q7 -1 8 -8v-368v0zM350 223q4 -6 0 -12l-136 -136v0q-6 -4 -12 0q-4 6 0 12l123 122v0h-317v0q-7 1 -8 8q1 7 8 8h317v0l-123 122v0q-4 6 0 12q6 4 12 0l136 -136v0z" />
</svg>
