<?xml version="1.0" standalone="no"?>
<!DOCTYPE svg PUBLIC "-//W3C//DTD SVG 1.1//EN" "http://www.w3.org/Graphics/SVG/1.1/DTD/svg11.dtd" >
<svg xmlns="http://www.w3.org/2000/svg" xmlns:xlink="http://www.w3.org/1999/xlink" version="1.1" viewBox="-10 -40 532 512">
   <path fill="currentColor"
d="M258 41q-5 0 -8 3l-231 167v0q-3 2 -3 6t3 7l231 166v0q3 3 8 3q13 -1 14 -14v-324v0q-1 -13 -14 -14v0zM258 25q13 0 21 9v0v0q9 8 9 21v103v0l176 -127v0q8 -6 18 -6q13 0 21 9q9 8 9 21v324v0q0 13 -9 21q-8 9 -21 9q-10 0 -18 -6l-176 -127v0v103v0q0 13 -9 21
q-8 9 -21 9q-10 0 -18 -6l-230 -167v0q-10 -7 -10 -19t10 -19l230 -167v0q8 -6 18 -6v0zM288 256l186 134l-186 -134l186 134q3 3 8 3q13 -1 14 -14v-324v0q-1 -13 -14 -14q-5 0 -8 3l-186 134v0v78v0z" />
</svg>
