<?xml version="1.0" standalone="no"?>
<!DOCTYPE svg PUBLIC "-//W3C//DTD SVG 1.1//EN" "http://www.w3.org/Graphics/SVG/1.1/DTD/svg11.dtd" >
<svg xmlns="http://www.w3.org/2000/svg" xmlns:xlink="http://www.w3.org/1999/xlink" version="1.1" viewBox="-10 -40 404 512">
   <path fill="currentColor"
d="M320 41q20 1 34 14v0v0q13 14 14 34v256v0q-1 20 -14 34q-14 13 -34 14h-256v0q-20 -1 -34 -14q-13 -14 -14 -34v-256v0q1 -20 14 -34q14 -13 34 -14h256v0zM64 25q-27 1 -45 19v0v0q-18 18 -19 45v256v0q1 27 19 45t45 19h256v0q27 -1 45 -19t19 -45v-256v0
q-1 -27 -19 -45t-45 -19h-256v0z" />
</svg>
