<?xml version="1.0" standalone="no"?>
<!DOCTYPE svg PUBLIC "-//W3C//DTD SVG 1.1//EN" "http://www.w3.org/Graphics/SVG/1.1/DTD/svg11.dtd" >
<svg xmlns="http://www.w3.org/2000/svg" xmlns:xlink="http://www.w3.org/1999/xlink" version="1.1" viewBox="-10 -40 532 512">
   <path fill="currentColor"
d="M256 -39q-44 1 -74 30v0v0q-29 30 -30 74q0 27 13 50q-17 19 -24 44l-61 -29v0v-1v0v-64v0q-1 -7 -8 -8q-7 1 -8 8v58v0l-53 -25v0q-7 -3 -10 4t4 10l132 63v0q-1 9 -1 18q0 29 12 53q-42 43 -44 107q1 60 39 102q19 19 45 18h136v0q26 1 45 -18q38 -42 39 -102
q-2 -64 -44 -107q12 -24 12 -53q0 -9 -1 -18l132 -63v0q7 -4 4 -10q-4 -7 -10 -4l-53 25v0v-58v0q-1 -7 -8 -8q-7 1 -8 8v64v0v1l-61 29v0q-7 -25 -24 -44q13 -23 13 -50q-1 -44 -30 -74q-30 -29 -74 -30v0zM168 65q1 -37 26 -62v0v0q25 -25 62 -26q37 1 62 26t26 62
q0 26 -13 47q-3 5 1 10q27 28 28 71q0 28 -13 51q-3 5 1 9q42 39 44 100q-1 54 -35 91q-13 13 -33 13h-136v0q-20 0 -33 -13q-34 -37 -35 -91q2 -61 44 -100q4 -4 1 -9q-13 -23 -13 -51q1 -42 28 -71q4 -5 1 -10q-13 -21 -13 -47v0zM272 201q-1 -15 -16 -16q-15 1 -16 16
q1 15 16 16q15 -1 16 -16v0zM256 297q15 -1 16 -16q-1 -15 -16 -16q-15 1 -16 16q1 15 16 16v0zM272 361q-1 -15 -16 -16q-15 1 -16 16q1 15 16 16q15 -1 16 -16v0zM224 73q15 -1 16 -16q-1 -15 -16 -16q-15 1 -16 16q1 15 16 16v0zM304 57q-1 -15 -16 -16q-15 1 -16 16
q1 15 16 16q15 -1 16 -16v0zM243 146q5 7 13 7t13 -7l13 -19v0q6 -9 6 -20v-2v0q0 -14 -9 -23t-23 -9t-23 9t-9 23v2v0q0 11 6 20l13 19v0zM246 123l-3 -5l3 5l-3 -5q-3 -5 -3 -10v-3v0q1 -15 16 -16q15 1 16 16v2v0q0 6 -3 11l-3 4v0l-10 15v0l-10 -14v0z" />
</svg>
