<?xml version="1.0" standalone="no"?>
<!DOCTYPE svg PUBLIC "-//W3C//DTD SVG 1.1//EN" "http://www.w3.org/Graphics/SVG/1.1/DTD/svg11.dtd" >
<svg xmlns="http://www.w3.org/2000/svg" xmlns:xlink="http://www.w3.org/1999/xlink" version="1.1" viewBox="-10 -40 532 512">
   <path fill="currentColor"
d="M80 -31q-1 -7 -8 -8q-7 1 -8 8q0 40 14 58q13 17 29 25v0v0q15 7 25 20q10 12 10 49q1 7 8 8q8 -1 8 -8q0 -40 -13 -58q-14 -17 -29 -25h-1v0q-15 -7 -24 -20q-10 -12 -11 -49v0zM210 -31q-1 -7 -8 -8q-8 1 -8 8q0 40 13 58q14 17 29 25h1v0q15 7 24 20q10 12 11 49
q1 7 8 8q7 -1 8 -8q0 -40 -14 -58q-13 -17 -29 -25v0v0q-15 -7 -24 -20q-11 -12 -11 -49v0zM344 169h24h-24h24v208v0q-1 34 -23 57q-23 22 -57 23h-192v0q-34 -1 -57 -23q-22 -23 -23 -57v-192v0q1 -15 16 -16h312v0zM384 345v-176v176v-176h24v0q37 1 62 26t26 62
q-1 37 -26 62t-62 26h-24v0zM384 377v-16v16v-16h24v0q44 -1 74 -30q29 -30 30 -74q-1 -44 -30 -74q-30 -29 -74 -30h-24h-352q-14 0 -23 9t-9 23v192v0q1 41 28 68t68 28h192v0q41 -1 68 -28t28 -68v0z" />
</svg>
