<?xml version="1.0" standalone="no"?>
<!DOCTYPE svg PUBLIC "-//W3C//DTD SVG 1.1//EN" "http://www.w3.org/Graphics/SVG/1.1/DTD/svg11.dtd" >
<svg xmlns="http://www.w3.org/2000/svg" xmlns:xlink="http://www.w3.org/1999/xlink" version="1.1" viewBox="-10 -40 468 512">
   <path fill="currentColor"
d="M296 182q26 -16 41 -40v0v0q15 -24 15 -53q-1 -46 -37 -79q-35 -32 -91 -33q-56 1 -91 33q-36 33 -37 79q0 29 15 53t41 40q8 5 8 14v21v0q1 15 16 16h96v0q15 -1 16 -16v-22v0q0 -9 8 -13v0zM304 217q0 14 -9 23v0v0q-9 9 -23 9h-96v0q-14 0 -23 -9t-9 -23v-22v0
q-29 -17 -46 -45q-18 -27 -18 -61q2 -54 42 -91q41 -36 102 -37q61 1 102 37q40 37 42 91q0 34 -18 61q-17 28 -46 45v22v0zM176 73q14 0 23 9v0v0q9 9 9 23t-9 23t-23 9t-23 -9t-9 -23t9 -23t23 -9v0zM272 73q14 0 23 9v0v0q9 9 9 23t-9 23t-23 9t-23 -9t-9 -23t9 -23
t23 -9v0zM192 105q-1 -15 -16 -16q-15 1 -16 16q1 15 16 16q15 -1 16 -16v0zM272 121q15 -1 16 -16q-1 -15 -16 -16q-15 1 -16 16q1 15 16 16v0zM1 221q4 -6 11 -3l212 118v0l212 -118v0q7 -3 11 3q3 7 -3 11l-203 113v0l203 113v0q6 4 3 11q-4 6 -11 3l-212 -118v0
l-212 118v0q-7 3 -11 -3q-3 -7 3 -11l204 -113v0l-204 -113v0q-6 -4 -3 -11v0z" />
</svg>
