<?xml version="1.0" standalone="no"?>
<!DOCTYPE svg PUBLIC "-//W3C//DTD SVG 1.1//EN" "http://www.w3.org/Graphics/SVG/1.1/DTD/svg11.dtd" >
<svg xmlns="http://www.w3.org/2000/svg" xmlns:xlink="http://www.w3.org/1999/xlink" version="1.1" viewBox="-10 -40 340 512">
   <path fill="currentColor"
d="M48 89q1 41 18 73v0v0q18 33 42 57q23 24 41 36q7 4 11 7q4 -3 11 -7q18 -13 42 -36q23 -24 41 -57q17 -32 18 -73q-1 -48 -33 -79q-31 -32 -79 -33q-48 1 -79 33q-32 31 -33 79v0zM136 265q-31 -21 -66 -66v0v0q-35 -45 -38 -110q1 -54 37 -91q37 -36 91 -37q54 1 91 37
q36 37 37 91q-3 65 -38 110t-66 66h128v0q7 1 8 8q-1 7 -8 8h-144v0v184v0q-1 7 -8 8q-7 -1 -8 -8v-184v0h-144v0q-7 -1 -8 -8q1 -7 8 -8h128v0z" />
</svg>
