<?xml version="1.0" standalone="no"?>
<!DOCTYPE svg PUBLIC "-//W3C//DTD SVG 1.1//EN" "http://www.w3.org/Graphics/SVG/1.1/DTD/svg11.dtd" >
<svg xmlns="http://www.w3.org/2000/svg" xmlns:xlink="http://www.w3.org/1999/xlink" version="1.1" viewBox="-10 -40 458 512">
   <path fill="currentColor"
d="M48 17q1 -7 8 -8h48v0q7 1 8 8v24v0q2 22 24 24h32v0q22 -2 24 -24v-24v0q1 -7 8 -8h48v0q7 1 8 8v24v0q2 22 24 24h32v0q22 -2 24 -24v-24v0q1 -7 8 -8h48v0q7 1 8 8v131v0q0 10 -7 17l-47 46v0q-2 3 -2 6l7 128v0h16v0l-7 -125v0l44 -44v0q12 -12 12 -28v-131v0
q-2 -22 -24 -24h-48v0q-22 2 -24 24v24v0q-1 7 -8 8h-32v0q-7 -1 -8 -8v-24v0q-2 -22 -24 -24h-48v0q-22 2 -24 24v24v0q-1 7 -8 8h-32v0q-7 -1 -8 -8v-24v0q-2 -22 -24 -24h-48v0q-22 2 -24 24v131v0q0 16 12 28l44 44v0l-7 125v0h16v0l7 -128v0q0 -3 -2 -6l-47 -46v0
q-7 -7 -7 -17v-131v0zM184 177v64v-64v64q1 7 8 8h64v0q7 -1 8 -8v-64v0q0 -17 -12 -28q-11 -12 -28 -12t-28 12q-12 11 -12 28v0zM224 153q22 2 24 24v56v0h-48v0v-56v0q2 -22 24 -24v0zM94 393h260h-260h260q7 0 12 5l30 34v0q4 4 4 10q-1 14 -15 15h-322v0
q-14 -1 -15 -15q0 -6 4 -10l30 -34v0q5 -5 12 -5v0zM408 422l-31 -34l31 34l-31 -34q-9 -11 -23 -11h-260v0q-14 0 -23 11l-31 34v0q-8 8 -8 20q0 13 9 22t22 9h322v0q13 0 22 -9t9 -22q0 -12 -8 -20v0z" />
</svg>
