<?xml version="1.0" standalone="no"?>
<!DOCTYPE svg PUBLIC "-//W3C//DTD SVG 1.1//EN" "http://www.w3.org/Graphics/SVG/1.1/DTD/svg11.dtd" >
<svg xmlns="http://www.w3.org/2000/svg" xmlns:xlink="http://www.w3.org/1999/xlink" version="1.1" viewBox="-10 -40 532 512">
   <path fill="currentColor"
d="M201 -8q19 -30 55 -31q36 1 55 31l89 146v0l15 -75v0q2 -7 9 -6q7 2 7 10l-20 94v0q-1 3 -3 5q-4 2 -7 1l-91 -30v0q-7 -3 -5 -10t10 -6l70 24v0l-87 -144v0q-15 -23 -42 -24q-27 1 -42 24l-48 80v0q-4 6 -11 3q-6 -5 -3 -11l49 -81v0zM428 201q7 -3 11 3l65 108v0
q8 12 8 27q0 23 -16 38q-15 15 -37 16h-214v0l56 50v0q5 5 1 11q-5 5 -11 1l-72 -64v0q-3 -2 -3 -6t3 -6l72 -64v0q6 -4 11 1q4 6 -1 11l-56 50v0h214v0q16 0 26 -11q11 -11 11 -27q0 -10 -5 -19l-66 -108v0q-3 -7 3 -11v0zM114 135l-71 24l71 -24l-71 24q-8 2 -11 -5
q-1 -7 6 -10l91 -31v0q3 -1 6 1t4 5l20 95v0q0 7 -7 9q-7 1 -9 -6l-15 -73v0l-107 176v0q-5 9 -5 19q0 16 11 27q10 11 27 11h114v0q7 1 8 8q-1 7 -8 8h-114v0q-23 -1 -38 -16q-16 -15 -16 -38q0 -15 8 -27l106 -177v0z" />
</svg>
