<?xml version="1.0" standalone="no"?>
<!DOCTYPE svg PUBLIC "-//W3C//DTD SVG 1.1//EN" "http://www.w3.org/Graphics/SVG/1.1/DTD/svg11.dtd" >
<svg xmlns="http://www.w3.org/2000/svg" xmlns:xlink="http://www.w3.org/1999/xlink" version="1.1" viewBox="-10 -40 650 512">
   <path fill="currentColor"
d="M192 297q43 0 80 -21v0v0q37 -22 59 -59q21 -38 21 -80t-21 -80q-22 -37 -59 -59q-37 -21 -80 -21t-80 21q-37 22 -59 59q-21 38 -21 80t21 80q22 37 59 59q37 21 80 21v0zM368 137q-2 73 -49 122v0v0q-47 49 -119 54v64v0h80v0q7 1 8 8q-1 7 -8 8h-80v0v72v0q-1 7 -8 8
q-7 -1 -8 -8v-72v0h-80v0q-7 -1 -8 -8q1 -7 8 -8h80v0v-64v0q-72 -5 -119 -54t-49 -122q2 -75 52 -124q49 -50 124 -52q75 2 124 52q50 49 52 124v0zM355 267q40 29 93 30q68 -2 113 -47t47 -113q-2 -68 -47 -113t-113 -47q-53 1 -93 30q-6 -6 -11 -12q45 -33 104 -34
q75 2 124 52q50 49 52 124q-2 73 -49 122t-119 54v64v0h80v0q7 1 8 8q-1 7 -8 8h-80v0v72v0q-1 7 -8 8q-7 -1 -8 -8v-72v0h-80v0q-7 -1 -8 -8q1 -7 8 -8h80v0v-64v0q-55 -3 -96 -34q6 -6 11 -12v0z" />
</svg>
