<?xml version="1.0" standalone="no"?>
<!DOCTYPE svg PUBLIC "-//W3C//DTD SVG 1.1//EN" "http://www.w3.org/Graphics/SVG/1.1/DTD/svg11.dtd" >
<svg xmlns="http://www.w3.org/2000/svg" xmlns:xlink="http://www.w3.org/1999/xlink" version="1.1" viewBox="-10 -40 660 512">
   <path fill="currentColor"
d="M638 -5q2 3 2 6v144v0q-1 7 -8 8q-7 -1 -8 -8v-125v0l-126 126v0q47 55 46 123t-51 120q-38 37 -86 48q-47 10 -94 -5l14 -12q41 10 81 0q41 -11 73 -42q47 -49 47 -113t-47 -113q-4 -6 0 -11l132 -132v0h-125v0q-7 -1 -8 -8q1 -7 8 -8h144v0q3 0 6 2v0zM296 9
q-7 -1 -8 -8q1 -7 8 -8h144v0q7 1 8 8v144v0q-1 7 -8 8q-7 -1 -8 -8v-125v0l-126 126v0q44 49 46 119q-2 75 -52 124q-49 50 -124 52q-75 -2 -124 -52q-50 -49 -52 -124q2 -75 52 -124q49 -50 124 -52q70 2 119 46l126 -126v0h-125v0zM176 425q43 0 80 -21v0v0
q37 -22 59 -59q21 -38 21 -80t-21 -80q-22 -37 -59 -59q-37 -21 -80 -21t-80 21q-37 22 -59 59q-21 38 -21 80t21 80q22 37 59 59q37 21 80 21v0z" />
</svg>
