<?xml version="1.0" standalone="no"?>
<!DOCTYPE svg PUBLIC "-//W3C//DTD SVG 1.1//EN" "http://www.w3.org/Graphics/SVG/1.1/DTD/svg11.dtd" >
<svg xmlns="http://www.w3.org/2000/svg" xmlns:xlink="http://www.w3.org/1999/xlink" version="1.1" viewBox="-10 -40 522 512">
   <path fill="currentColor"
d="M368 -31q1 7 8 8h93v0l-97 97v0q-46 -47 -116 -49q-68 2 -113 47t-47 113q2 66 44 110q43 45 108 50v48v0h-48v0q-7 1 -8 8q1 7 8 8h48v0v56v0q1 7 8 8q7 -1 8 -8v-56v0h48v0q7 -1 8 -8q-1 -7 -8 -8h-48v0v-48v0q65 -5 108 -50q42 -44 44 -110q-1 -57 -34 -99l98 -98v0
v93v0q1 7 8 8q7 -1 8 -8v-112v0q-1 -7 -8 -8h-112v0q-7 1 -8 8v0zM256 41q39 0 72 19v0v0q33 19 53 53q19 34 19 72t-19 72q-20 34 -53 53t-72 19t-72 -19t-53 -53q-19 -34 -19 -72t19 -72q20 -34 53 -53t72 -19v0z" />
</svg>
