<?xml version="1.0" standalone="no"?>
<!DOCTYPE svg PUBLIC "-//W3C//DTD SVG 1.1//EN" "http://www.w3.org/Graphics/SVG/1.1/DTD/svg11.dtd" >
<svg xmlns="http://www.w3.org/2000/svg" xmlns:xlink="http://www.w3.org/1999/xlink" version="1.1" viewBox="-10 -40 660 512">
   <path fill="currentColor"
d="M64 -23q-20 1 -34 14v0v0q-13 14 -14 34v288v0q1 20 14 34q14 13 34 14h3v0q9 -28 31 -46q23 -17 54 -18q31 1 54 18q22 18 31 46h163v0v-336v0q-1 -20 -14 -34q-14 -13 -34 -14h-288v0zM64 377v0v0v0q-27 -1 -45 -19t-19 -45v-288v0q1 -27 19 -45t45 -19h288v0
q27 1 45 19t19 45v32v0h59v0q16 0 28 12l93 93v0q12 12 12 28v171v0h24v0q7 1 8 8q-1 7 -8 8h-56v0v8q-1 37 -26 62t-62 26q-37 -1 -62 -26t-26 -62v-8v0v0h-160v0v8q-1 37 -26 62t-62 26q-37 -1 -62 -26t-26 -62v-8v0zM416 177h172h-172h172q-1 -2 -3 -4l-93 -93v0
q-7 -7 -17 -7h-59v0v104v0zM416 193v141v-141v141q26 -35 72 -37q31 1 54 18q22 18 31 46h19v0v-168v0h-176v0zM224 385q-1 -41 -36 -62q-36 -20 -72 0q-35 21 -36 62q1 41 36 62q36 20 72 0q35 -21 36 -62v0zM488 457q41 -1 62 -36q20 -36 0 -72q-21 -35 -62 -36
q-41 1 -62 36q-20 36 0 72q21 35 62 36v0z" />
</svg>
