<?xml version="1.0" standalone="no"?>
<!DOCTYPE svg PUBLIC "-//W3C//DTD SVG 1.1//EN" "http://www.w3.org/Graphics/SVG/1.1/DTD/svg11.dtd" >
<svg xmlns="http://www.w3.org/2000/svg" xmlns:xlink="http://www.w3.org/1999/xlink" version="1.1" viewBox="-10 -40 458 512">
   <path fill="currentColor"
d="M240 9q0 -14 -9 -23v0v0q-9 -9 -23 -9t-23 9t-9 23v32v0v88v0q0 14 9 23t23 9t23 -9t9 -23v-88v0v-32v0zM208 -39q19 0 33 13v0v0q13 12 15 31q13 -12 32 -12t33 13q13 12 15 31q13 -12 32 -12q20 1 34 14q13 14 14 34v80v0v6v2v64v0q0 35 -16 65q-16 29 -44 48
q-4 3 -4 7v120v0q-1 7 -8 8q-7 -1 -8 -8v-120v0q1 -13 11 -21q24 -16 39 -42q14 -26 14 -57v-36v0q-13 12 -32 12q-33 -2 -45 -31q-14 14 -35 15q-29 -1 -43 -26q-6 8 -15 13q17 14 18 37q-1 20 -14 34q-14 13 -34 14h-64v0q-7 -1 -8 -8q1 -7 8 -8h64v0q14 0 23 -9t9 -23
t-9 -23t-23 -9h-80v0q-30 1 -50 20t-22 48q2 35 23 61t54 35q17 6 19 25v99v0q-1 7 -8 8q-7 -1 -8 -8v-99v0q0 -7 -8 -9q-37 -11 -61 -40t-27 -68v0v0v-4v-4t1 -3q8 -49 52 -70q-5 -10 -5 -21v-106v0q1 -20 14 -34q14 -13 34 -14q19 0 32 12q2 -19 15 -31q14 -13 33 -13v0z
M100 163q10 -2 20 -2h37v0q3 -6 3 -14v-18v0v-88v0q0 -14 -9 -23t-23 -9t-23 9t-9 23v106v0q0 9 4 16v0zM320 137v-64v64v-64v-32v0q0 -14 -9 -23t-23 -9t-23 9t-9 23v88v0v8v0q0 14 9 23t23 9t23 -9t9 -23v0zM336 73v64v-64v64v16v0q0 14 9 23t23 9t23 -9t9 -23v-80v0
q0 -14 -9 -23t-23 -9t-23 9t-9 23v0z" />
</svg>
