<?xml version="1.0" standalone="no"?>
<!DOCTYPE svg PUBLIC "-//W3C//DTD SVG 1.1//EN" "http://www.w3.org/Graphics/SVG/1.1/DTD/svg11.dtd" >
<svg xmlns="http://www.w3.org/2000/svg" xmlns:xlink="http://www.w3.org/1999/xlink" version="1.1" viewBox="-10 -40 522 512">
   <path fill="currentColor"
d="M232 9v24v-24v24v0v0v176v0q-1 7 -8 8q-7 -1 -8 -8v-168v0v0v0q0 -14 -9 -23t-23 -9t-23 9t-9 23v255v0q0 6 -5 8t-9 -2l-67 -68v0q-10 -9 -23 -9t-23 9q-9 10 -9 23t9 23l112 111v0q32 32 73 49t86 17h8v0q65 -2 107 -45q43 -42 45 -107v-200v0q0 -14 -9 -23t-23 -9
t-23 9t-9 23v56v0v48v0q-1 7 -8 8q-7 -1 -8 -8v-48v0v-56v0v-8v0v-56v0q0 -14 -9 -23t-23 -9t-23 9t-9 23v168v0q-1 7 -8 8q-7 -1 -8 -8v-168v0v-8v0v-24v0q0 -14 -9 -23t-23 -9t-23 9t-9 23v0zM264 -39q19 0 33 13v0v0q13 12 15 31q13 -12 32 -12q20 1 34 14q13 14 14 34
v28v0q13 -12 32 -12q20 1 34 14q13 14 14 34v200v0q-2 71 -49 119q-48 47 -119 49h-8v0q-49 0 -92 -18q-44 -18 -78 -52l-112 -112v0q-14 -15 -14 -34t14 -34q15 -14 34 -14t34 14l54 54v0v-236v0q1 -20 14 -34q14 -13 34 -14q19 0 32 12q2 -19 15 -31q14 -13 33 -13v0z" />
</svg>
