<?xml version="1.0" standalone="no"?>
<!DOCTYPE svg PUBLIC "-//W3C//DTD SVG 1.1//EN" "http://www.w3.org/Graphics/SVG/1.1/DTD/svg11.dtd" >
<svg xmlns="http://www.w3.org/2000/svg" xmlns:xlink="http://www.w3.org/1999/xlink" version="1.1" viewBox="-10 -40 404 512">
   <path fill="currentColor"
d="M128 -7q0 -14 9 -23v0v0q9 -9 23 -9h64v0q14 0 23 9t9 23v96v0h96v0q14 0 23 9t9 23v64v0q0 14 -9 23t-23 9h-96v0v224v0q0 14 -9 23t-23 9h-64v0q-14 0 -23 -9t-9 -23v-224v0h-96v0q-14 0 -23 -9t-9 -23v-64v0q0 -14 9 -23t23 -9h96v0v-96v0zM160 -23q-15 1 -16 16v104
v0q-1 7 -8 8h-104v0q-15 1 -16 16v64v0q1 15 16 16h104v0q7 1 8 8v232v0q1 15 16 16h64v0q15 -1 16 -16v-232v0q1 -7 8 -8h104v0q15 -1 16 -16v-64v0q-1 -15 -16 -16h-104v0q-7 -1 -8 -8v-104v0q-1 -15 -16 -16h-64v0z" />
</svg>
