<?xml version="1.0" standalone="no"?>
<!DOCTYPE svg PUBLIC "-//W3C//DTD SVG 1.1//EN" "http://www.w3.org/Graphics/SVG/1.1/DTD/svg11.dtd" >
<svg xmlns="http://www.w3.org/2000/svg" xmlns:xlink="http://www.w3.org/1999/xlink" version="1.1" viewBox="-10 -40 467 512">
   <path fill="currentColor"
d="M232 -31q-1 -7 -8 -8q-7 1 -8 8v101v0l-50 -51v0q-6 -4 -12 0q-4 6 0 12l62 61v0v111v0l-96 -55v0l-22 -84v0q-3 -7 -10 -6q-7 2 -6 10l18 68v0l-87 -50v0q-6 -3 -11 3q-3 7 3 11l87 50v0l-68 19v0q-7 2 -6 10q2 6 10 5l84 -22v0l96 55v0l-96 55v0l-84 -22v0q-7 -1 -10 6
q-1 7 6 9l69 19v0l-88 50v0q-6 4 -3 11q5 6 11 3l87 -50v0l-18 68v0q-1 8 6 10q7 1 10 -6l22 -84v0l96 -55v0v111v0l-62 61v0q-4 6 0 12q6 4 12 0l50 -51v0v101v0q1 7 8 8q7 -1 8 -8v-101v0l50 51v0q6 4 12 0q4 -6 0 -12l-62 -61v0v-111v0l96 55v0l23 85v0q2 6 9 5
q7 -2 6 -10l-18 -68v0l87 50v0q7 3 11 -3q3 -7 -3 -11l-87 -50v0l69 -19v0q6 -2 5 -9q-2 -7 -10 -6l-84 22v0l-96 -55v0l96 -55v0l84 22v0q7 1 10 -5q1 -8 -6 -10l-68 -19v0l87 -50v0q6 -4 3 -11q-5 -6 -11 -3l-87 51v0l18 -69v0q1 -8 -6 -10q-7 -1 -9 5l-23 85v0l-96 55v0
v-111v0l62 -61v0q4 -6 0 -12q-6 -4 -12 0l-50 51v0v-101v0z" />
</svg>
