<?xml version="1.0" standalone="no"?>
<!DOCTYPE svg PUBLIC "-//W3C//DTD SVG 1.1//EN" "http://www.w3.org/Graphics/SVG/1.1/DTD/svg11.dtd" >
<svg xmlns="http://www.w3.org/2000/svg" xmlns:xlink="http://www.w3.org/1999/xlink" version="1.1" viewBox="-10 -40 650 512">
   <path fill="currentColor"
d="M448 265q39 0 72 -19v0v0q33 -19 53 -53q19 -34 19 -72t-19 -72q-20 -34 -53 -53t-72 -19t-72 19t-53 53q-19 34 -19 72t19 72q20 34 53 53t72 19v0zM448 281q-59 -1 -102 -37v0v0q-43 -35 -55 -91q-80 22 -129 85t-50 147v16v0q1 24 16 40q16 15 40 16h16h171
q12 -1 13 -13q0 -15 -10 -25t-25 -10h-45v0q-7 -1 -8 -8v0v0v-40v0q-1 -20 -14 -34q-14 -13 -34 -14h-32v0q-7 -1 -8 -8q1 -7 8 -8h32v0q27 1 45 19t19 45v30v0l126 -85v0q4 -2 8 0t4 7v121v0q2 21 23 23q21 -2 23 -23v-156v0q-16 3 -32 3v0zM608 121q-1 55 -32 96v0v0
q-30 40 -80 57v160v0q0 17 -11 28t-28 11t-28 -11t-11 -28v-106v0l-96 65v0h11v0q22 1 36 15t15 36q0 12 -9 20q-8 9 -20 9h-27h-160q-31 -1 -51 -21t-21 -51v-16v0v-255v0q0 -22 -14 -38q-14 -15 -35 -18l-8 -1v0q-7 -2 -7 -9q2 -7 9 -7l8 1v0q27 4 45 24q17 20 18 48v166
v0q22 -59 68 -101t109 -58q-1 -8 -1 -16q2 -68 47 -113t113 -47q68 2 113 47t47 113v0zM373 27l38 30l-38 -30l38 30h74v0l38 -30v0q4 -3 9 -1q4 2 4 7v96v0q-1 37 -26 62t-62 26q-37 -1 -62 -26t-26 -62v-96v0q0 -5 5 -7q4 -2 8 1v0zM376 129q1 31 21 51v0v0q20 20 51 21
q31 -1 51 -21t21 -51v-79v0l-27 21v0q-2 2 -5 2h-80v0q-3 0 -5 -2l-27 -21v0v79v0zM400 121q1 -15 16 -16q15 1 16 16q-1 15 -16 16q-15 -1 -16 -16v0zM480 105q15 1 16 16q-1 15 -16 16q-15 -1 -16 -16q1 -15 16 -16v0zM232 -23v40v-40v40h40v0q7 1 8 8q-1 7 -8 8h-40v0v40
v0q-1 7 -8 8q-7 -1 -8 -8v-40v0h-40v0q-7 -1 -8 -8q1 -7 8 -8h40v0v-40v0q1 -7 8 -8q7 1 8 8v0z" />
</svg>
