<?xml version="1.0" standalone="no"?>
<!DOCTYPE svg PUBLIC "-//W3C//DTD SVG 1.1//EN" "http://www.w3.org/Graphics/SVG/1.1/DTD/svg11.dtd" >
<svg xmlns="http://www.w3.org/2000/svg" xmlns:xlink="http://www.w3.org/1999/xlink" version="1.1" viewBox="-10 -40 532 512">
   <path fill="currentColor"
d="M320 -15q-1 -16 -13 -22v0v0q-12 -6 -25 2l5 7v0l-5 -7v0l-201 148v0q-38 29 -60 71q-21 42 -21 90q2 84 58 141q56 56 140 58q49 0 91 -22t70 -61l142 -199v0q8 -13 1 -25q-6 -12 -21 -13h-35v0l63 -144v0q3 -6 3 -13v-3v0q0 -14 -9 -23t-23 -9h-3v0q-7 0 -13 3l3 7v0
l-3 -7v0l-144 63v0v-42v0zM291 -22q11 -4 13 7v54v0q0 5 4 7q3 2 7 1l156 -69v0q3 -1 6 -1h3v0q15 1 16 16v3v0q0 3 -1 6l-69 156v0q-1 4 1 7q2 4 7 4h47v0q11 2 7 13l-142 198v0q-26 37 -65 57q-38 20 -83 20q-77 -2 -129 -54q-51 -51 -53 -129q0 -44 20 -83q19 -38 55 -65
l200 -148v0zM167 229q8 -1 12 -9l29 -59v0l29 59v0q4 8 12 9l66 10v0l-48 46v0q-6 5 -4 14l11 65v0l-58 -31v0q-8 -4 -15 0l-59 31v0l11 -65v0q2 -9 -4 -14l-47 -46v0l65 -10v0zM222 154q-4 -9 -14 -9t-14 9l-29 59v0l-66 10v0q-9 1 -13 10q-2 10 4 17l48 46v0l-12 65v0
q-1 10 7 16q8 5 17 1l58 -31v0l58 31v0q9 4 17 -1q8 -6 7 -16l-12 -65v0l48 -46v0q6 -7 4 -16q-4 -10 -13 -11l-66 -10v0l-29 -59v0z" />
</svg>
