<?xml version="1.0" standalone="no"?>
<!DOCTYPE svg PUBLIC "-//W3C//DTD SVG 1.1//EN" "http://www.w3.org/Graphics/SVG/1.1/DTD/svg11.dtd" >
<svg xmlns="http://www.w3.org/2000/svg" xmlns:xlink="http://www.w3.org/1999/xlink" version="1.1" viewBox="-10 -40 532 512">
   <path fill="currentColor"
d="M224 25q7 1 8 8v47v0l103 -17v0q20 -2 34 10t15 32q-1 20 -15 32t-34 10l-103 -17v0v39v0h27v0q16 0 28 12l36 36v0h53v0q58 1 96 40q39 38 40 96v16v0q0 17 -12 28q-11 12 -28 12h-48v0q-17 0 -28 -12q-12 -11 -12 -28q-2 -22 -24 -24h-40v0q-35 46 -96 48
q-61 -2 -96 -48h-120v0q-7 -1 -8 -8q1 -7 8 -8h124v0q4 0 7 4q30 42 85 44q55 -2 85 -44q3 -4 7 -4h44v0q17 1 28 12q12 11 12 28q2 22 24 24h48v0q22 -2 24 -24v-16v0q-1 -51 -35 -85t-85 -35h-56v0q-3 0 -6 -2l-38 -39v0q-7 -7 -17 -7h-70v0q-10 0 -17 7l-38 39v0
q-3 2 -6 2h-120v0q-7 -1 -8 -8q1 -7 8 -8h117v0l36 -36v0q12 -12 28 -12h27v0v-39v0l-103 17v0q-20 2 -34 -10t-15 -32q1 -20 15 -32t34 -10l103 17v0v-47v0q1 -7 8 -8v0zM110 79q-12 -1 -21 6v0v0q-9 8 -9 20t9 20q9 7 21 6l106 -17v0v-18v0l-106 -17v0zM338 79l-106 17
l106 -17l-106 17v18v0l106 17v0q12 1 21 -6q9 -8 9 -20q0 -13 -9 -20q-9 -8 -21 -6v0z" />
</svg>
