<?xml version="1.0" standalone="no"?>
<!DOCTYPE svg PUBLIC "-//W3C//DTD SVG 1.1//EN" "http://www.w3.org/Graphics/SVG/1.1/DTD/svg11.dtd" >
<svg xmlns="http://www.w3.org/2000/svg" xmlns:xlink="http://www.w3.org/1999/xlink" version="1.1" viewBox="-10 -40 660 512">
   <path fill="currentColor"
d="M161 -31l-31 58l31 -58l-31 58l-63 -19v0q-9 -2 -16 4q-6 7 -4 16l19 63v0l-58 31v0q-8 5 -8 14t8 15l58 31v0l-19 63v0q-2 9 4 15q7 7 16 4l69 -20v0q7 -3 6 -10q-3 -7 -10 -6l-69 21v0l20 -69v0q2 -6 -3 -9l-64 -35v0l64 -34v0q5 -3 3 -9l-20 -69v0l69 20v0q6 2 9 -3
l34 -64v0l35 64v0q3 5 9 3l69 -20v0l-21 69v0q-1 7 6 10q7 1 10 -6l20 -69v0q3 -9 -4 -16q-6 -6 -15 -4l-63 19v0l-32 -58v0q-5 -8 -14 -8t-14 8v0zM174 183q-28 0 -43 -23q-14 -25 0 -49q15 -24 43 -24t43 24q14 24 0 49q-15 23 -43 23v0zM110 135q2 36 32 55q32 17 64 0
q31 -19 32 -55q-1 -36 -32 -55q-32 -17 -64 0q-30 19 -32 55v0zM405 59q-5 -4 -10 0l-232 200v0q-5 5 -1 11q5 5 11 1l51 -44v0v190v0q1 24 16 40q16 15 40 16h240v0q24 -1 40 -16q15 -16 16 -40v-190v0l51 44v0q6 4 11 -1q4 -6 -1 -11l-232 -200v0zM560 214v203v-203v203
q0 17 -12 28q-11 12 -28 12h-240v0q-17 0 -28 -12q-12 -11 -12 -28v-203v0l160 -138v0l160 138v0zM336 257v80v-80v80q2 22 24 24h80v0q22 -2 24 -24v-80v0q-2 -22 -24 -24h-80v0q-22 2 -24 24v0zM360 249h80h-80h80q7 1 8 8v80v0q-1 7 -8 8h-80v0q-7 -1 -8 -8v-80v0
q1 -7 8 -8v0z" />
</svg>
