<?xml version="1.0" standalone="no"?>
<!DOCTYPE svg PUBLIC "-//W3C//DTD SVG 1.1//EN" "http://www.w3.org/Graphics/SVG/1.1/DTD/svg11.dtd" >
<svg xmlns="http://www.w3.org/2000/svg" xmlns:xlink="http://www.w3.org/1999/xlink" version="1.1" viewBox="-10 -40 660 512">
   <path fill="currentColor"
d="M245 -37q-5 -4 -10 0l-232 200v0q-5 5 -1 11q5 5 11 1l51 -44v0v190v0q1 24 16 40q16 15 40 16h222v0l4 -16v0h-226v0q-17 0 -28 -12q-12 -11 -12 -28v-203v0l160 -138v0l137 118v0q6 -6 12 -11l-144 -124v0zM224 145q7 1 8 8v64v0q-1 7 -8 8h-64v0q-7 -1 -8 -8v-64v0
q1 -7 8 -8h64v0zM160 129q-22 2 -24 24v64v0q2 22 24 24h64v0q22 -2 24 -24v-64v0q-2 -22 -24 -24h-64v0zM503 148q-7 7 -5 16l17 64v0q6 25 -11 45l-71 77v0q-3 3 -3 7l-22 88v0q-5 14 -20 11q-14 -4 -11 -19l23 -92v0q2 -8 7 -14l50 -54v0q5 -7 3 -15l-19 -66v0
q-4 -10 -15 -11q-11 0 -15 10l-10 24v0q-4 8 -11 13l-28 22v0q-13 7 -23 -3q-7 -13 4 -23l25 -19v0q3 -2 5 -6l16 -40v0q12 -27 35 -42q23 -16 52 -16q31 0 60 13l6 2v0q47 22 62 72l4 13v0q2 14 -11 19q-15 3 -20 -11l-4 -13v0q-11 -35 -44 -51l-6 -2v0q-2 -1 -3 -2
q-10 -3 -17 3v0zM432 -23q15 0 25 11v0v0q11 10 11 25t-11 25q-10 11 -25 11t-25 -11q-11 -10 -11 -25t11 -25q10 -11 25 -11v0zM533 170q18 13 25 35l3 13v0q4 13 15 19q12 6 25 3q13 -4 19 -15q6 -12 3 -25l-4 -13v0q-17 -56 -71 -82l-6 -2v0q-31 -14 -66 -14
q-34 0 -61 19q-27 18 -41 49l-16 40v0l-25 18v0q-11 9 -13 21q-1 13 6 24q9 11 21 13q13 1 24 -6l29 -22v0q10 -8 15 -20l1 -1v0l9 -23v0l8 24v0l12 41v0l-50 54v0q-8 9 -11 21l-23 92v0q-3 14 4 25q6 10 19 14q14 3 25 -3q10 -7 14 -20l22 -88v0l71 -77v0q22 -27 14 -60
l-11 -44v0l-2 -5v0l-2 -10v0l-1 -5v0q0 1 1 1h1l6 3v0q6 3 11 6v0zM380 13q1 29 26 45q26 14 52 0q25 -16 26 -45q-1 -29 -26 -45q-26 -14 -52 0q-25 16 -26 45v0zM541 305q-7 3 -4 10l20 52v0l1 1v0l1 1v0l60 61v0q10 11 0 22q-11 10 -22 0l-62 -61v0q-5 -5 -7 -11l-15 -38
v0q-4 -7 -11 -4q-6 3 -4 10l15 38v0q4 9 11 16l61 62v0q10 9 23 9t23 -9q9 -10 9 -23t-9 -23l-60 -59v0l-19 -50v0q-4 -6 -11 -4v0z" />
</svg>
