<?xml version="1.0" standalone="no"?>
<!DOCTYPE svg PUBLIC "-//W3C//DTD SVG 1.1//EN" "http://www.w3.org/Graphics/SVG/1.1/DTD/svg11.dtd" >
<svg xmlns="http://www.w3.org/2000/svg" xmlns:xlink="http://www.w3.org/1999/xlink" version="1.1" viewBox="-10 -40 532 512">
   <path fill="currentColor"
d="M122 411v-2v2v-2h17v0q-23 66 -59 64q-34 2 -57 -57q-22 -59 -23 -199q1 -140 23 -199q23 -59 57 -57q27 -1 47 34q20 36 28 117l30 -29v0q26 -25 63 -26q12 0 25 4l90 25v0q27 9 40 33l33 66v0h44v0q14 0 23 9t9 23t-9 23t-23 9h-44v0q-39 -1 -57 -35l-7 -13v0l-9 -19v0
l-8 20v0l-22 57v0l47 30v0q19 12 26 31q8 20 2 41l-25 89v0q-4 13 -16 19q-11 6 -24 3q-13 -4 -19 -15q-6 -12 -3 -25l25 -89v0l-86 -54v0q-19 -12 -26 -32t-1 -42l26 -75v0l5 -16v0l-9 -2v0q-3 -1 -7 -1v0v0q-11 0 -18 8l-31 31v0q-19 16 -40 4q1 25 1 53q0 55 -4 96h38v0
l13 -37v0q5 9 11 17l-9 26v0l-4 10v0h-11h-66q-15 1 -16 16q1 15 16 16h66v0q32 -2 45 -31l4 -13v0v0v0l14 8v0l-3 10v0q-8 19 -24 30q-16 12 -36 12h-66v0q-14 0 -23 -9t-9 -23t9 -23t23 -9h12v0q4 -41 4 -96q-1 -139 -22 -194q-11 -28 -22 -37q-11 -10 -20 -9q-9 -1 -20 9
q-11 9 -21 37q-22 55 -23 194q1 139 23 194q10 28 21 37q11 10 20 9q9 1 20 -9q11 -9 22 -37v0zM268 109q7 2 10 8t1 13l-30 90v0q-5 16 0 31q6 16 20 25l86 54v0q10 6 7 18l-25 89v0q-3 14 11 19q14 3 19 -11l26 -88v0q4 -16 -2 -31q-5 -14 -19 -23l-48 -30v0
q-10 -8 -6 -20l30 -77v0q4 -9 14 -10q10 0 15 9l16 31v0q14 26 43 27h44v0q15 -2 16 -16q-1 -15 -16 -16h-44v0q-10 -1 -14 -9l-33 -66v0q-10 -18 -30 -24l-91 -26v0q-10 -3 -20 -3q-30 0 -52 21l-31 32v0q-10 11 0 22q11 9 22 0l31 -31v0q13 -12 30 -12q6 0 11 2l9 2v0z
M368 41q14 0 23 -9v0v0q9 -9 9 -23t-9 -23t-23 -9t-23 9t-9 23t9 23t23 9v0zM320 9q1 -27 24 -42q24 -12 48 0q23 15 24 42q-1 27 -24 42q-24 12 -48 0q-23 -15 -24 -42v0z" />
</svg>
