<?xml version="1.0" standalone="no"?>
<!DOCTYPE svg PUBLIC "-//W3C//DTD SVG 1.1//EN" "http://www.w3.org/Graphics/SVG/1.1/DTD/svg11.dtd" >
<svg xmlns="http://www.w3.org/2000/svg" xmlns:xlink="http://www.w3.org/1999/xlink" version="1.1" viewBox="-10 -40 660 512">
   <path fill="currentColor"
d="M64 9h320h-320h320q20 1 34 14q13 14 14 34v34v0q8 -2 16 -2v-32v0q-1 -27 -19 -45t-45 -19h-320v0q-27 1 -45 19t-19 45v320v0q1 27 19 45t45 19h161v0q-1 -6 -1 -12v-4h-160v0q-20 -1 -34 -14q-13 -14 -14 -34v-320v0q1 -20 14 -34q14 -13 34 -14v0zM96 65q-1 -7 -8 -8
q-7 1 -8 8v176v0q1 7 8 8q7 -1 8 -8v-176v0zM160 65q-1 -7 -8 -8q-7 1 -8 8v176v0q1 7 8 8q7 -1 8 -8v-176v0zM276 415l150 -265l-150 265l150 -265q8 -13 22 -13t22 13l150 265v0q4 6 4 14q0 12 -8 20t-20 8h-296v0q-12 0 -20 -8t-8 -20q0 -8 4 -14v0zM412 142l-150 265
l150 -265l-150 265q-6 10 -6 22q0 19 13 31q12 13 31 13h296v0q19 0 31 -13q13 -12 13 -31q0 -12 -6 -22l-150 -265v0q-12 -20 -36 -21q-24 1 -36 21v0zM456 249q-1 -7 -8 -8q-7 1 -8 8v96v0q1 7 8 8q7 -1 8 -8v-96v0zM448 409q15 -1 16 -16q-1 -15 -16 -16q-15 1 -16 16
q1 15 16 16v0z" />
</svg>
