<?xml version="1.0" standalone="no"?>
<!DOCTYPE svg PUBLIC "-//W3C//DTD SVG 1.1//EN" "http://www.w3.org/Graphics/SVG/1.1/DTD/svg11.dtd" >
<svg xmlns="http://www.w3.org/2000/svg" xmlns:xlink="http://www.w3.org/1999/xlink" version="1.1" viewBox="-10 -40 468 512">
   <path fill="currentColor"
d="M375 113l21 168l-21 -168l21 168h-16v0l-21 -166v0q-3 -18 -16 -30t-31 -12h-175v0q-19 0 -32 12t-16 30l-21 166v0h-16v0l21 -168v0q4 -24 21 -40q18 -16 43 -16h175v0q24 0 42 16q17 16 21 40v0zM144 130l-19 151l19 -151l-19 151h-16v0l19 -153v0q2 -7 9 -7q7 1 7 9v0
zM48 329q-14 0 -23 9v0v0q-9 9 -9 23v32v0q0 14 9 23t23 9h352v0q14 0 23 -9t9 -23v-32v0q0 -14 -9 -23t-23 -9h-352v0zM0 361q1 -20 14 -34v0v0q14 -13 34 -14h352v0q20 1 34 14q13 14 14 34v32v0q-1 20 -14 34q-14 13 -34 14h-352v0q-20 -1 -34 -14q-13 -14 -14 -34v-32v0
z" />
</svg>
