<?xml version="1.0" standalone="no"?>
<!DOCTYPE svg PUBLIC "-//W3C//DTD SVG 1.1//EN" "http://www.w3.org/Graphics/SVG/1.1/DTD/svg11.dtd" >
<svg xmlns="http://www.w3.org/2000/svg" xmlns:xlink="http://www.w3.org/1999/xlink" version="1.1" viewBox="-10 -40 532 512">
   <path fill="currentColor"
d="M362 432q-40 21 -88 24q-67 5 -123 -23q-57 -28 -93 -80q-36 -51 -41 -118q-5 -86 40 -152q10 6 23 6q20 -1 34 -14q13 -14 14 -34q0 -21 -14 -34l-1 -1q-1 0 -1 -1v0v0v0v0q-13 -12 -32 -12q-20 1 -34 14q-13 14 -14 34q0 19 12 32q-49 71 -43 163q6 71 44 126
q39 55 99 85t131 25q52 -4 97 -26q-6 -7 -10 -14v0zM237 -38q-52 4 -97 27q6 6 10 13q40 -21 88 -24q67 -5 123 23q57 28 93 80q36 51 41 118q5 85 -40 152q-10 -6 -23 -6q-20 1 -34 14q-14 14 -14 34q0 13 6 23v0v0q3 6 8 11l1 1l1 1v0v0q13 12 32 12q20 0 34 -14
q13 -14 14 -34q0 -19 -12 -32q48 -71 43 -163q-6 -71 -44 -126q-39 -55 -99 -85t-131 -25v0zM112 217q2 -61 42 -102v0v0q41 -40 102 -42q34 0 63 15q-7 11 -7 25q1 20 14 34q14 13 34 14q14 0 25 -7q15 29 15 63q-2 61 -42 102q-41 40 -102 42q-61 -2 -102 -42
q-40 -41 -42 -102v0zM330 75q-33 -18 -74 -18q-68 2 -113 47t-47 113q2 68 47 113t113 47q68 -2 113 -47t47 -113q0 -41 -18 -74q10 -13 10 -30q-1 -20 -14 -34q-14 -13 -34 -14q-17 0 -30 10v0zM208 217q1 -27 24 -42q24 -12 48 0q23 15 24 42q-1 27 -24 42q-24 12 -48 0
q-23 -15 -24 -42v0zM320 217q-1 -36 -32 -55q-32 -18 -64 0q-31 19 -32 55q1 36 32 55q32 18 64 0q31 -19 32 -55v0zM48 41q0 -14 9 -23v0v0q9 -9 23 -9t23 9t9 23t-9 23t-23 9t-23 -9t-9 -23v0zM360 81q14 0 23 9v0v0q9 9 9 23t-9 23t-23 9t-23 -9t-9 -23t9 -23t23 -9v0z
M400 393q0 -14 9 -23v0v0q9 -9 23 -9t23 9t9 23t-9 23t-23 9t-23 -9t-9 -23v0z" />
</svg>
