<?xml version="1.0" standalone="no"?>
<!DOCTYPE svg PUBLIC "-//W3C//DTD SVG 1.1//EN" "http://www.w3.org/Graphics/SVG/1.1/DTD/svg11.dtd" >
<svg xmlns="http://www.w3.org/2000/svg" xmlns:xlink="http://www.w3.org/1999/xlink" version="1.1" viewBox="-10 -40 532 512">
   <path fill="currentColor"
d="M496 217q-1 -65 -32 -120v0v0q-32 -55 -88 -88q-57 -32 -120 -32t-120 32q-56 33 -88 88q-31 55 -32 120q1 65 32 120q32 55 88 88q57 32 120 32t120 -32q56 -33 88 -88q31 -55 32 -120v0zM0 217q1 -70 34 -128v0v0q34 -58 94 -94q61 -34 128 -34t128 34q60 36 94 94
q33 58 34 128q-1 70 -34 128q-34 58 -94 94q-61 34 -128 34t-128 -34q-60 -36 -94 -94q-33 -58 -34 -128v0zM267 372q-11 10 -22 0l-96 -96v0q-7 -7 -4 -17q5 -9 15 -10h192v0q10 0 15 10q3 10 -4 17l-96 96v0zM352 265h-192h192h-192l96 96v0l96 -96v0zM267 62l96 96
l-96 -96l96 96q5 5 0 11q-5 5 -11 0l-96 -96v0l-96 96v0q-6 5 -11 0q-5 -6 0 -11l96 -96v0q11 -10 22 0v0z" />
</svg>
