<?xml version="1.0" standalone="no"?>
<!DOCTYPE svg PUBLIC "-//W3C//DTD SVG 1.1//EN" "http://www.w3.org/Graphics/SVG/1.1/DTD/svg11.dtd" >
<svg xmlns="http://www.w3.org/2000/svg" xmlns:xlink="http://www.w3.org/1999/xlink" version="1.1" viewBox="-10 -40 532 512">
   <path fill="currentColor"
d="M472 -31v32v-32v32h32v0q7 1 8 8q-1 7 -8 8h-32v0v32v0q-1 7 -8 8q-7 -1 -8 -8v-32v0h-32v0q-7 -1 -8 -8q1 -7 8 -8h32v0v-32v0q1 -7 8 -8q7 1 8 8v0zM56 33v32v-32v32h32v0q7 1 8 8q-1 7 -8 8h-32v0v32v0q-1 7 -8 8q-7 -1 -8 -8v-32v0h-32v0q-7 -1 -8 -8q1 -7 8 -8h32v0
v-32v0q1 -7 8 -8q7 1 8 8v0zM112 457v8v-8v8q-1 7 -8 8q-7 -1 -8 -8v-8v0q1 -20 14 -34q14 -13 34 -14h224v0q20 1 34 14q13 14 14 34v8v0q-1 7 -8 8q-7 -1 -8 -8v-8v0q0 -14 -9 -23t-23 -9h-224v0q-14 0 -23 9t-9 23v0zM256 -23q-14 0 -23 9v0v0q-9 9 -9 23t9 23t23 9
t23 -9t9 -23t-9 -23t-23 -9v0zM256 57q-20 -1 -34 -14v0v0q-13 -14 -14 -34q1 -20 14 -34q14 -13 34 -14q20 1 34 14q13 14 14 34q-1 20 -14 34q-14 13 -34 14v0zM236 105q-38 1 -63 30l-57 72v0q-9 12 2 23q12 8 23 -3l45 -56v0q3 -5 9 -3q5 2 5 8v201v0h-16v0v-179v0
l-31 39v0q-9 10 -21 12q-13 1 -24 -7q-10 -9 -12 -21q-1 -13 7 -24l58 -72v0q29 -35 75 -36h40v0q46 1 75 36l58 72v0q8 11 7 24q-2 12 -12 21q-11 8 -24 7q-12 -2 -21 -12l-31 -39v0v179v0h-16v0v-201v0q0 -6 5 -8q6 -2 9 3l46 56v0q10 11 22 3q11 -11 3 -23l-58 -72v0
q-25 -29 -63 -30h-40v0zM248 377h-16h16h-16v-88v0q2 -22 24 -24q22 2 24 24v88v0h-16v0v-88v0q-1 -7 -8 -8q-7 1 -8 8v88v0z" />
</svg>
