<?xml version="1.0" standalone="no"?>
<!DOCTYPE svg PUBLIC "-//W3C//DTD SVG 1.1//EN" "http://www.w3.org/Graphics/SVG/1.1/DTD/svg11.dtd" >
<svg xmlns="http://www.w3.org/2000/svg" xmlns:xlink="http://www.w3.org/1999/xlink" version="1.1" viewBox="-10 -40 468 512">
   <path fill="currentColor"
d="M232 -31q-1 -7 -8 -8q-7 1 -8 8v56v0h-72v0q-34 1 -57 23q-22 23 -23 57v96v0q1 34 23 57q23 22 57 23h160v0q34 -1 57 -23q22 -23 23 -57v-96v0q-1 -34 -23 -57q-23 -22 -57 -23h-72v0v-56v0zM80 105q1 -27 19 -45v0v0q18 -18 45 -19h160v0q27 1 45 19t19 45v96v0
q-1 27 -19 45t-45 19h-160v0q-27 -1 -45 -19t-19 -45v-96v0zM24 89q-7 1 -8 8v112v0q1 7 8 8q7 -1 8 -8v-112v0q-1 -7 -8 -8v0zM432 97q-1 -7 -8 -8q-7 1 -8 8v112v0q1 7 8 8q7 -1 8 -8v-112v0zM160 145q-22 -2 -24 -24q2 -22 24 -24q22 2 24 24q-2 22 -24 24v0zM120 121
q1 23 20 35q20 10 40 0q19 -12 20 -35q-1 -23 -20 -35q-20 -10 -40 0q-19 12 -20 35v0zM312 121q-2 22 -24 24q-22 -2 -24 -24q2 -22 24 -24q22 2 24 24v0zM288 81q-23 1 -35 20q-10 20 0 40q12 19 35 20q23 -1 35 -20q10 -20 0 -40q-12 -19 -35 -20v0zM96 329h256h-256h256
q34 1 57 23q22 23 23 57v16v0q0 14 -9 23t-23 9h-32v0v-48v0q0 -14 -9 -23t-23 -9h-224v0q-14 0 -23 9t-9 23v48v0h-32v0q-14 0 -23 -9t-9 -23v-16v0q1 -34 23 -57q23 -22 57 -23v0zM368 473h32h-32h32q20 -1 34 -14q13 -14 14 -34v-16v0q-1 -41 -28 -68t-68 -28h-256v0
q-41 1 -68 28t-28 68v16v0q1 20 14 34q14 13 34 14h32h288zM352 457h-56h56h-56v-64v0h40v0q15 1 16 16v48v0zM280 457h-48h48h-48v-64v0h48v0v64v0zM216 457h-48h48h-48v-64v0h48v0v64v0zM152 457h-56h56h-56v-48v0q1 -15 16 -16h40v0v64v0zM160 193q-7 1 -8 8v32v0
q1 7 8 8q7 -1 8 -8v-32v0q-1 -7 -8 -8v0zM216 201v32v-32v32q1 7 8 8q7 -1 8 -8v-32v0q-1 -7 -8 -8q-7 1 -8 8v0zM288 193q-7 1 -8 8v32v0q1 7 8 8q7 -1 8 -8v-32v0q-1 -7 -8 -8v0z" />
</svg>
