<?xml version="1.0" standalone="no"?>
<!DOCTYPE svg PUBLIC "-//W3C//DTD SVG 1.1//EN" "http://www.w3.org/Graphics/SVG/1.1/DTD/svg11.dtd" >
<svg xmlns="http://www.w3.org/2000/svg" xmlns:xlink="http://www.w3.org/1999/xlink" version="1.1" viewBox="-10 -40 532 512">
   <path fill="currentColor"
d="M256 -23q65 1 120 32v0v0q55 32 88 88q32 57 32 120t-32 120q-33 56 -88 88q-55 31 -120 32q-65 -1 -120 -32q-55 -32 -88 -88q-32 -57 -32 -120t32 -120q33 -56 88 -88q55 -31 120 -32v0zM256 473q70 -1 128 -34v0v0q58 -34 94 -94q34 -61 34 -128t-34 -128
q-36 -60 -94 -94q-58 -33 -128 -34q-70 1 -128 34q-58 34 -94 94q-34 61 -34 128t34 128q36 60 94 94q58 33 128 34v0zM202 195q-4 6 0 12l64 64v0q6 4 12 0q4 -6 0 -12l-64 -64v0q-6 -4 -12 0v0zM130 203q-4 6 0 12l128 128v0q6 4 12 0q4 -6 0 -12l-128 -128v0q-6 -4 -12 0
v0zM122 287l64 64l-64 -64l64 64q6 4 12 0q4 -6 0 -12l-64 -64v0q-6 -4 -12 0q-4 6 0 12v0zM151 109q45 -43 107 -44q64 2 106 44t44 106q-1 62 -44 107l-10 9v0q-4 6 0 12q6 4 12 0l9 -10v0q48 -49 49 -118q-2 -70 -49 -117t-117 -49q-69 1 -118 49l-10 9v0q-4 6 0 12
q6 4 12 0l9 -10v0z" />
</svg>
