<?xml version="1.0" standalone="no"?>
<!DOCTYPE svg PUBLIC "-//W3C//DTD SVG 1.1//EN" "http://www.w3.org/Graphics/SVG/1.1/DTD/svg11.dtd" >
<svg xmlns="http://www.w3.org/2000/svg" xmlns:xlink="http://www.w3.org/1999/xlink" version="1.1" viewBox="-10 -40 652 512">
   <path fill="currentColor"
d="M311 -20l-4 11l4 -11l-4 11q33 13 47 47l11 -4v0q7 -3 10 4t-4 10l-12 6v0q6 40 -20 70l7 4v0q6 5 3 11q-5 6 -11 3l-10 -7v0q-15 11 -33 16q-15 3 -27 8l4 16v0q1 8 -6 10q-8 1 -10 -6l-3 -13v0q-37 21 -48 44q0 1 -1 2q0 1 -1 2l8 4v0q7 3 4 10q-4 7 -10 4l-9 -4v0
q-3 9 -4 18q-4 26 -19 45l9 9v0q4 6 0 12q-6 4 -12 -1l-9 -9v0q-25 21 -61 19q-3 -1 -7 -1l-6 12v0q-3 7 -10 4t-4 -10l4 -11v0q-34 -14 -47 -47l-11 4v0q-7 3 -10 -4t4 -10l12 -6v0q-2 -11 -1 -23q2 -18 7 -35q2 -5 3 -11l-14 -7v0q-6 -4 -3 -11q4 -6 11 -3l12 6v0
q7 -21 22 -45q4 -8 10 -16l-5 -4v0q-5 -5 -1 -11q5 -5 11 -1l4 3v0q21 -26 50 -49l-10 -16v0q-3 -6 3 -11q6 -3 11 3l9 15v0q27 -19 62 -33l-3 -9v0q-3 -7 4 -10t10 4l4 9v0q17 -5 36 -10q18 -4 34 -1l6 -12v0q3 -7 10 -4t4 10v0zM192 105q1 -15 16 -16q15 1 16 16
q-1 15 -16 16q-15 -1 -16 -16v0zM112 185q1 15 16 16q15 -1 16 -16q-1 -15 -16 -16q-15 1 -16 16v0zM128 217q-14 0 -23 -9v0v0q-9 -9 -9 -23t9 -23t23 -9t23 9t9 23t-9 23t-23 9v0zM176 244v0v0v0v0q4 -24 16 -43q10 -18 33 -36q23 -19 66 -30q28 -7 43 -30q14 -23 8 -51
q-7 -28 -30 -43q-23 -14 -51 -8q-73 18 -118 53q-45 36 -68 76q-22 38 -28 66q-5 16 -7 33q-2 29 16 49q17 21 46 25q28 2 49 -16q21 -17 25 -45v0zM333 464q-7 -3 -4 -10l4 -11v0q-33 -13 -47 -47l-11 4v0q-7 3 -10 -4t4 -10l12 -6v0q-6 -40 20 -70l-7 -4v0q-6 -5 -3 -11
q5 -6 11 -3l10 7v0q15 -11 33 -16q15 -3 27 -8l-4 -16v0q-1 -7 6 -10q8 0 10 6l3 13v0q37 -21 47 -44l2 -2q0 -1 1 -2l-8 -4v0q-7 -3 -4 -10q4 -7 11 -4l8 4v0q3 -9 5 -18q3 -26 18 -45l-9 -9v0q-4 -6 0 -12q6 -4 12 1l9 9v0q25 -21 61 -19q3 1 7 1v0l6 -12v0q3 -7 10 -4
t4 10l-4 11v0q34 14 47 47l11 -4v0q7 -3 10 4t-4 10l-12 6v0q2 11 1 23q-2 18 -7 36q-2 4 -3 10l14 7v0q6 4 3 11q-4 6 -11 3l-12 -6v0q-7 21 -21 45q-5 8 -11 16l5 4v0q5 5 1 11q-5 5 -11 1l-5 -3v0q-20 26 -49 49l10 16v0q3 6 -3 11q-6 3 -11 -3l-9 -15v0q-27 19 -62 33
l3 9v0q3 7 -4 10t-10 -4l-4 -9v0q-17 5 -36 10q-18 4 -34 1l-6 12v0q-3 7 -10 4v0zM432 345q-1 -15 -16 -16q-15 1 -16 16q1 15 16 16q15 -1 16 -16v0zM416 313q14 0 23 9v0v0q9 9 9 23t-9 23t-23 9t-23 -9t-9 -23t9 -23t23 -9v0zM464 190v0v0v0v0q-4 24 -16 43
q-10 18 -33 36q-23 19 -66 30q-28 7 -43 30q-14 23 -8 51q7 28 30 43q23 14 51 8q73 -18 118 -53q45 -36 68 -76q22 -38 28 -66q5 -17 7 -33q1 -29 -16 -50q-17 -20 -46 -24q-29 -2 -49 15q-21 17 -25 46v0z" />
</svg>
