<?xml version="1.0" standalone="no"?>
<!DOCTYPE svg PUBLIC "-//W3C//DTD SVG 1.1//EN" "http://www.w3.org/Graphics/SVG/1.1/DTD/svg11.dtd" >
<svg xmlns="http://www.w3.org/2000/svg" xmlns:xlink="http://www.w3.org/1999/xlink" version="1.1" viewBox="-10 -40 652 512">
   <path fill="currentColor"
d="M296 9q0 -14 9 -23v0v0q9 -9 23 -9t23 9t9 23v24v0v8v0v168v0q1 7 8 8q7 -1 8 -8v-168v0q0 -14 9 -23t23 -9t23 9t9 23v56v0v8v0v56v0v48v0q1 7 8 8q7 -1 8 -8v-48v0v-56v0q0 -14 9 -23t23 -9t23 9t9 23v185v0q7 -7 16 -12v-173v0q-1 -20 -14 -34q-14 -13 -34 -14
q-19 0 -32 12v-28v0q-1 -20 -14 -34q-14 -13 -34 -14q-19 0 -32 12q-2 -19 -15 -31q-14 -13 -33 -13t-33 13q-13 12 -15 31q-13 -12 -32 -12q-20 1 -34 14q-13 14 -14 34v236v0l-54 -54v0q-15 -14 -34 -14t-34 14q-14 15 -14 34t14 34l112 112v0q34 34 78 52q43 18 92 18h8
v0q56 -1 99 -32q-7 -5 -13 -11q-37 26 -86 27h-8v0q-45 0 -86 -17t-73 -49l-112 -111v0q-9 -10 -9 -23t9 -23q10 -9 23 -9t23 9l67 68v0q4 4 9 2q5 -3 5 -8v-255v0q0 -14 9 -23t23 -9t23 9t9 23v0v0v168v0q1 7 8 8q7 -1 8 -8v-176v0v0v0v-24v0zM88 41q-1 -7 -8 -8q-7 1 -8 8
v56v0h-56v0q-7 1 -8 8q1 7 8 8h56v0v56v0q1 7 8 8q7 -1 8 -8v-56v0h56v0q7 -1 8 -8q-1 -7 -8 -8h-56v0v-56v0zM328 265q-1 -7 -8 -8q-7 1 -8 8v40v0h-40v0q-7 1 -8 8q1 7 8 8h40v0v40v0q1 7 8 8q7 -1 8 -8v-40v0h40v0q7 -1 8 -8q-1 -7 -8 -8h-40v0v-40v0zM568 329
q-1 -7 -8 -8q-7 1 -8 8v56v0h-56v0q-7 1 -8 8q1 7 8 8h56v0v56v0q1 7 8 8q7 -1 8 -8v-56v0h56v0q7 -1 8 -8q-1 -7 -8 -8h-56v0v-56v0z" />
</svg>
