<?xml version="1.0" standalone="no"?>
<!DOCTYPE svg PUBLIC "-//W3C//DTD SVG 1.1//EN" "http://www.w3.org/Graphics/SVG/1.1/DTD/svg11.dtd" >
<svg xmlns="http://www.w3.org/2000/svg" xmlns:xlink="http://www.w3.org/1999/xlink" version="1.1" viewBox="-10 -40 660 512">
   <path fill="currentColor"
d="M13 -37q-6 -4 -11 1q-4 6 1 11l624 496v0q6 4 11 -1q4 -6 -1 -11l-624 -496v0zM398 360l-20 -15l20 15l-20 -15q3 18 -9 33q-13 13 -29 14q-17 0 -30 -12l-11 -11v0q-3 -3 -6 -2q-4 0 -6 3q-3 4 -7 8q-14 11 -30 11q-16 -1 -29 -13l-40 -40v0l-21 -20v0q-18 -19 -45 -19
h-3v0v-163v0l-16 -12v0v207v0q-1 15 -16 16h-48v0q-15 -1 -16 -16v-208v0q1 -15 16 -16h43v0l-20 -16v0h-23v0q-14 0 -23 9t-9 23v208v0q0 14 9 23t23 9h48v0q14 0 23 -9t9 -23v-16v0h3v0q20 0 34 14l21 21v0l15 15v0v0v0l25 25v0q17 16 40 17q22 0 41 -15q1 -2 3 -3v0l5 4
v0q18 17 41 17q24 -1 41 -19q11 -14 13 -30q2 1 4 1v0zM211 50q22 -9 45 -9h21v0l17 -16v0h-38v0q-31 0 -59 13l14 12v0zM268 94l12 10l-12 -10l12 10l37 -34v0q30 -28 72 -29q37 0 67 24l40 35v0v-21v0l-30 -26v0q-34 -28 -77 -28q-48 1 -83 33l-38 36v0zM350 159l12 10
l-12 -10l12 10l13 -12v0q5 -6 1 -11q-6 -5 -12 -1l-14 14v0zM606 361h2h-2h2q14 0 23 -9t9 -23v-208v0q0 -14 -9 -23t-23 -9h-64h-16v16v0v192v0h-3v0l19 15v0v-207v0h64v0q15 1 16 16v208v0q-1 15 -16 16h-23v0l21 16v0z" />
</svg>
