<?xml version="1.0" standalone="no"?>
<!DOCTYPE svg PUBLIC "-//W3C//DTD SVG 1.1//EN" "http://www.w3.org/Graphics/SVG/1.1/DTD/svg11.dtd" >
<svg xmlns="http://www.w3.org/2000/svg" xmlns:xlink="http://www.w3.org/1999/xlink" version="1.1" viewBox="-10 -40 660 512">
   <path fill="currentColor"
d="M223 -23h17h-17h17q54 1 99 29q44 29 67 76q4 9 9 18q0 3 1 5l1 1q9 21 20 42q16 33 43 59l4 3v0q12 11 12 27q0 12 -7 22l12 10v0q11 -14 11 -32q0 -23 -17 -39l-4 -3v0q-25 -23 -40 -55q-10 -20 -19 -40v-1q-6 -12 -11 -24q-25 -51 -73 -82q-49 -31 -108 -32h-17v0
q-47 0 -88 18l14 12v0q35 -14 74 -14v0zM27 77q-26 49 -27 107q1 81 47 140q16 19 17 42v99v0q1 7 8 8q7 -1 8 -8v-99v0q-1 -30 -20 -52q-43 -55 -44 -130q1 -53 24 -97l-13 -10v0zM547 304l25 20l-25 -20l25 20q4 -4 4 -11q-1 -15 -16 -16q-9 0 -14 7h1zM610 354l24 19
l-24 -19l24 19q6 -4 6 -12q-1 -15 -16 -16q-10 0 -14 9v0zM432 397l-28 -22l28 22l-28 -22l-55 -4v0q-12 -2 -13 -15q1 -11 12 -14l12 -2v0l-17 -13v0q-22 7 -23 29q2 26 28 31l68 5v0v1v0q0 14 -9 23t-23 9h-72v0q-7 1 -8 8v32v0q1 7 8 8q7 -1 8 -8v-24v0h64v0q19 0 33 -13
q13 -12 15 -31v0zM624 281q15 -1 16 -16q-1 -15 -16 -16q-15 1 -16 16q1 15 16 16v0zM13 -37q-6 -4 -11 1q-4 6 1 11l624 496v0q6 4 11 -1q4 -6 -1 -11l-624 -496v0z" />
</svg>
