<?xml version="1.0" standalone="no"?>
<!DOCTYPE svg PUBLIC "-//W3C//DTD SVG 1.1//EN" "http://www.w3.org/Graphics/SVG/1.1/DTD/svg11.dtd" >
<svg xmlns="http://www.w3.org/2000/svg" xmlns:xlink="http://www.w3.org/1999/xlink" version="1.1" viewBox="-10 -40 660 512">
   <path fill="currentColor"
d="M320 -39q7 1 8 8v8v0v129v0q-4 -1 -8 -1t-8 1v-129v0v-8v0q1 -7 8 -8v0zM256 126v24v-24v24q-8 -5 -16 -6v-18v0q-1 -22 -16 -37t-37 -16q-27 0 -43 22q-12 17 -31 47t-39 68t-36 81q-16 42 -22 84v2v7v0q1 31 21 52q21 20 52 21q9 0 18 -2l72 -18v0q21 -6 36 -20
q10 3 20 2q-20 25 -52 33l-72 18v0q-11 3 -22 3q-38 -1 -63 -26t-26 -63v-7v0v-4q6 -44 23 -88q16 -44 37 -82q20 -39 40 -70q19 -30 31 -47q21 -29 56 -29q29 1 49 20q19 20 20 49v0zM461 437l72 18l-72 -18l72 18q9 2 18 2q31 -1 52 -21q20 -21 21 -52v-7v0v-2
q-6 -42 -22 -84q-16 -43 -36 -81t-39 -68t-31 -47q-16 -22 -43 -22q-22 1 -37 16t-16 37v18v0q-8 2 -16 6v-24v0q1 -29 20 -49q20 -19 49 -20q35 0 56 29q12 17 31 47q20 31 40 70q21 38 37 82q17 44 23 88v4v7v0q-1 38 -26 63t-63 26q-11 0 -22 -3l-72 -18v0
q-32 -8 -52 -33q10 1 20 -2q15 14 35 20h1zM312 160q-2 29 -26 39v0v0q-24 10 -46 -9q-6 -5 -11 0q-5 6 0 11q19 22 9 46t-39 26q-7 1 -8 8q1 7 8 8q29 2 39 26t-9 46q-5 6 0 11t11 0q22 -19 46 -9t26 39q1 7 8 8q7 -1 8 -8q2 -29 26 -39t46 9q6 5 11 0t0 -11
q-19 -22 -9 -46t39 -26q7 -1 8 -8q-1 -7 -8 -8q-29 -2 -39 -26t9 -46q5 -6 0 -11t-11 0q-22 19 -46 9t-26 -39q-1 -7 -8 -8q-7 1 -8 8v0zM320 136q22 2 24 24q1 18 16 24t29 -5q17 -15 33 0q14 17 0 33q-11 14 -5 29t24 16q22 2 24 24q-2 22 -24 24q-18 1 -24 16t6 29
q14 17 0 33q-17 14 -34 0q-14 -11 -29 -5t-16 24q-2 22 -24 24q-22 -2 -24 -24q-1 -18 -16 -24t-28 6q-18 14 -34 0q-14 -17 0 -34q11 -14 5 -29t-24 -16q-22 -2 -24 -24q2 -22 24 -24q18 -1 24 -16t-5 -28q-15 -17 0 -34q17 -14 34 0q13 12 28 5q15 -6 16 -24q2 -22 24 -24
v0zM288 233q15 1 16 16q-1 15 -16 16q-15 -1 -16 -16q1 -15 16 -16v0zM336 313q1 -15 16 -16q15 1 16 16q-1 15 -16 16q-15 -1 -16 -16v0z" />
</svg>
