<?xml version="1.0" standalone="no"?>
<!DOCTYPE svg PUBLIC "-//W3C//DTD SVG 1.1//EN" "http://www.w3.org/Graphics/SVG/1.1/DTD/svg11.dtd" >
<svg xmlns="http://www.w3.org/2000/svg" xmlns:xlink="http://www.w3.org/1999/xlink" version="1.1" viewBox="-10 -40 522 512">
   <path fill="currentColor"
d="M237 -16q19 -8 38 0l177 75v0q26 12 28 42q1 50 -17 116q-17 66 -62 129q-44 63 -125 104q-20 9 -39 0q-82 -41 -126 -104q-45 -63 -62 -129q-18 -66 -17 -116q2 -30 29 -43l176 -75v1zM281 -31q-25 -10 -50 0l-177 75v0q-17 7 -27 22q-11 15 -11 35q-1 51 17 120t65 134
q46 66 132 109q26 12 52 0q86 -43 132 -109q47 -65 65 -134t17 -120q0 -20 -11 -35q-10 -15 -27 -22l-177 -75v0zM248 80q1 -7 8 -8q7 1 8 8q2 29 26 39t46 -9q6 -5 11 0q5 6 0 11q-19 22 -9 46t39 26q7 1 8 8q-1 7 -8 8q-29 2 -39 26t9 46q5 6 0 11t-11 0q-22 -19 -46 -9
t-26 39q-1 7 -8 8q-7 -1 -8 -8q-2 -29 -26 -39t-46 9q-6 5 -11 0t0 -11q19 -22 9 -46t-39 -26q-7 -1 -8 -8q1 -7 8 -8q29 -2 39 -26t-9 -46q-5 -6 0 -11t11 0q22 19 46 9t26 -39v0zM256 56q-22 2 -24 24q-1 18 -16 24t-28 -5q-18 -15 -34 0q-14 17 0 33q11 14 5 29t-24 16
q-22 2 -24 24q2 22 24 24q18 1 24 16t-5 28q-14 17 0 34q17 14 34 0q13 -11 28 -5t16 24q2 22 24 24q22 -2 24 -24q1 -18 16 -24q15 -7 29 5q17 14 33 0q14 -17 0 -34q-11 -13 -5 -28t24 -16q22 -2 24 -24q-2 -22 -24 -24q-18 -1 -24 -16t6 -28q14 -18 0 -34q-17 -14 -34 0
q-14 11 -29 5t-16 -24q-2 -22 -24 -24v0zM224 185q15 -1 16 -16q-1 -15 -16 -16q-15 1 -16 16q1 15 16 16v0zM304 233q-1 -15 -16 -16q-15 1 -16 16q1 15 16 16q15 -1 16 -16v0z" />
</svg>
