<?xml version="1.0" standalone="no"?>
<!DOCTYPE svg PUBLIC "-//W3C//DTD SVG 1.1//EN" "http://www.w3.org/Graphics/SVG/1.1/DTD/svg11.dtd" >
<svg xmlns="http://www.w3.org/2000/svg" xmlns:xlink="http://www.w3.org/1999/xlink" version="1.1" viewBox="-10 -40 532 512">
   <path fill="currentColor"
d="M240 9q0 -14 -9 -23v0v0q-9 -9 -23 -9t-23 9t-9 23t9 23t23 9t23 -9t9 -23v0zM160 9q1 -27 24 -42q24 -12 48 0q23 15 24 42q-1 27 -24 42q-24 12 -48 0q-23 -15 -24 -42v0zM96 153h129h-129h129l4 16h-133v0q-34 1 -57 23q-22 23 -23 57v128v0q1 34 23 57q23 22 57 23
h320v0q34 -1 57 -23q22 -23 23 -57v-128v0q-1 -34 -23 -57q-23 -22 -57 -23h-5v0l4 -16h1v0q41 1 68 28t28 68v128v0q-1 41 -28 68t-68 28h-320v0q-41 -1 -68 -28t-28 -68v-128v0q1 -41 28 -68t68 -28v0zM80 313q1 -34 23 -57v0v0q23 -22 57 -23h160h32q34 1 57 23
q22 23 23 57q-1 34 -23 57q-23 22 -57 23h-192v0q-34 -1 -57 -23q-22 -23 -23 -57v0zM96 313q1 27 19 45v0v0q18 18 45 19h192v0q27 -1 45 -19t19 -45q-1 -27 -19 -45t-45 -19h-192v0q-27 1 -45 19t-19 45v0zM384 9q15 -1 16 -16q-1 -15 -16 -16q-15 1 -16 16q1 15 16 16v0z
M384 -39q14 0 23 9v0v0q9 9 9 23t-9 23t-23 9t-23 -9t-9 -23t9 -23t23 -9v0zM368 137q-1 -27 -24 -42q-24 -12 -48 0q-23 15 -24 42q1 27 24 42q24 12 48 0q23 -15 24 -42v0zM256 137q1 -36 32 -55q32 -18 64 0q31 19 32 55q-1 36 -32 55q-32 18 -64 0q-31 -19 -32 -55v0z
" />
</svg>
