<?xml version="1.0" standalone="no"?>
<!DOCTYPE svg PUBLIC "-//W3C//DTD SVG 1.1//EN" "http://www.w3.org/Graphics/SVG/1.1/DTD/svg11.dtd" >
<svg xmlns="http://www.w3.org/2000/svg" xmlns:xlink="http://www.w3.org/1999/xlink" version="1.1" viewBox="-10 -40 458 512">
   <path fill="currentColor"
d="M152 -39q-7 1 -8 8q1 7 8 8h64v0v80v0q-85 5 -142 64q-56 58 -58 144q2 88 61 147t147 61q88 -2 147 -61t61 -147q-2 -77 -48 -133l38 -37v0q4 -6 0 -12q-6 -4 -12 0l-36 37v0q-57 -58 -142 -63v-80v0h64v0q7 -1 8 -8q-1 -7 -8 -8h-144v0zM32 265q0 -52 26 -96v0v0
q25 -44 70 -70t96 -26t96 26t70 70q26 44 26 96t-26 96q-25 44 -70 70t-96 26t-96 -26t-70 -70q-26 -44 -26 -96v0zM240 201v128v-128v128q1 20 14 34q14 13 34 14q20 -1 34 -14q13 -14 14 -34v-128v0q-1 -20 -14 -34q-14 -13 -34 -14q-20 1 -34 14q-13 14 -14 34v0z
M288 169q14 0 23 9v0v0q9 9 9 23v128v0q0 14 -9 23t-23 9t-23 -9t-9 -23v-128v0q0 -14 9 -23t23 -9v0zM128 194q7 -23 32 -25q13 0 23 9q9 10 9 23v13v0q0 16 -10 27l-43 47v0q-27 30 -27 70v11v0q1 7 8 8h80v0q7 -1 8 -8q-1 -7 -8 -8h-72v0v-3v0q0 -34 23 -59l43 -47v0
q14 -16 14 -38v-13v0q0 -20 -14 -34q-14 -13 -34 -14q-17 0 -30 10t-17 27l-1 1v0q-1 7 6 10q7 1 10 -6v-1v0z" />
</svg>
