<?xml version="1.0" standalone="no"?>
<!DOCTYPE svg PUBLIC "-//W3C//DTD SVG 1.1//EN" "http://www.w3.org/Graphics/SVG/1.1/DTD/svg11.dtd" >
<svg xmlns="http://www.w3.org/2000/svg" xmlns:xlink="http://www.w3.org/1999/xlink" version="1.1" viewBox="-10 -40 660 512">
   <path fill="currentColor"
d="M200 -15q-1 -7 -8 -8q-7 1 -8 8v14v0q-3 38 -35 51q-31 13 -61 -12l-9 -9v0q-6 -5 -11 0t0 11l9 9v0q25 30 12 61q-13 32 -51 35h-14v0q-7 1 -8 8q1 7 8 8h14v0q38 3 51 35q13 31 -12 61l-9 9v0q-5 6 0 11t11 0l9 -9v0q30 -25 61 -12q32 13 35 52v13v0q1 7 8 8q7 -1 8 -8
v-13v0q3 -39 35 -52q31 -13 61 12l9 9v0q6 5 11 0t0 -11l-9 -9v0q-25 -30 -12 -61q13 -32 52 -35h13v0q7 -1 8 -8q-1 -7 -8 -8h-13v0q-39 -3 -52 -35q-13 -31 12 -61l9 -9v0q5 -6 0 -11t-11 0l-9 9v0q-30 25 -61 12q-32 -13 -35 -51v-14v0zM192 -39q22 2 24 24v14v0
q2 27 25 36q22 10 43 -8l10 -10v0q17 -14 34 0q14 17 0 34l-10 10v0q-18 21 -8 43q9 23 37 25h13v0q22 2 24 24q-2 22 -24 24h-13v0q-28 2 -37 25q-10 22 8 43l10 10v0q14 17 0 34q-17 14 -34 0l-10 -10v0q-21 -18 -43 -8q-23 9 -25 37v13v0q-2 22 -24 24q-22 -2 -24 -24
v-13v0q-2 -28 -25 -37q-22 -10 -43 8l-10 10v0q-17 14 -34 0q-14 -17 0 -34l10 -10v0q18 -21 8 -43q-9 -23 -36 -25h-14v0q-22 -2 -24 -24q2 -22 24 -24h14v0q27 -2 36 -25q10 -22 -8 -43l-10 -10v0q-14 -17 0 -34q17 -14 34 0l10 10v0q21 18 43 8q23 -9 25 -36v-14v0
q2 -22 24 -24v0zM480 329q15 -1 16 -16q-1 -15 -16 -16q-15 1 -16 16q1 15 16 16v0zM480 281q14 0 23 9v0v0q9 9 9 23t-9 23t-23 9t-23 -9t-9 -23t9 -23t23 -9v0zM240 153q15 1 16 16q-1 15 -16 16q-15 -1 -16 -16q1 -15 16 -16v0zM160 97q-22 2 -24 24q2 22 24 24
q22 -2 24 -24q-2 -22 -24 -24v0zM200 121q-1 23 -20 35q-20 10 -40 0q-19 -12 -20 -35q1 -23 20 -35q20 -10 40 0q19 12 20 35v0zM575 227q12 -9 23 0q9 12 0 23q-17 19 -8 40t34 23q15 1 16 16q-1 15 -16 16q-25 2 -34 23t8 40q9 12 0 23q-11 9 -23 0q-19 -17 -40 -8
t-23 34q-1 15 -16 16q-15 -1 -16 -16q-2 -25 -23 -34t-40 8q-12 9 -23 0q-9 -12 0 -23q17 -19 8 -40t-34 -23q-15 -1 -16 -16q1 -15 16 -16q25 -2 34 -23t-8 -40q-9 -12 0 -23q12 -9 23 0q19 17 40 8t23 -34q1 -15 16 -16q15 1 16 16q2 25 23 34t40 -8v0zM406 239
q24 27 11 57v0v0q-13 30 -49 33q36 3 49 33t-11 58q27 -25 57 -12t33 49q3 -36 33 -49q30 -12 58 12q-24 -28 -12 -58q13 -30 49 -33q-36 -3 -49 -33q-12 -30 12 -57q-14 13 -30 15q-17 2 -31 -5q-28 -14 -30 -48q-3 36 -33 49t-57 -11v0z" />
</svg>
