<?xml version="1.0" standalone="no"?>
<!DOCTYPE svg PUBLIC "-//W3C//DTD SVG 1.1//EN" "http://www.w3.org/Graphics/SVG/1.1/DTD/svg11.dtd" >
<svg xmlns="http://www.w3.org/2000/svg" xmlns:xlink="http://www.w3.org/1999/xlink" version="1.1" viewBox="-10 -40 468 512">
   <path fill="currentColor"
d="M120 -39h-1h1h-32q-17 0 -28 12q-12 11 -12 28v147v0q0 11 -6 20l-34 58v0q-8 13 -8 28v171v0v0v0v8v0q0 17 12 28q11 12 28 12h136v0q-6 -7 -9 -16h-127v0q-22 -2 -24 -24v-4v0l109 -102v0q5 -6 1 -11q-6 -5 -11 -1l-99 92v0v-153v0q0 -11 6 -20l34 -57v0q8 -14 8 -29
v-147v0q2 -22 24 -24h16h15q11 1 15 10l61 163v0l8 -23v0l-46 -126v0q19 21 67 24q46 -2 66 -22l-94 235v0q-4 10 -4 20v175v0q0 17 12 28q11 12 28 12h176v0q17 0 28 -12q12 -11 12 -28v-8v0v0v0v-171v0q0 -15 -8 -28l-34 -58v0q-6 -9 -6 -20v-147v0q0 -17 -12 -28
q-11 -12 -28 -12h-16h-16v0v0q-27 3 -41 22q-7 9 -23 17q-15 8 -40 9q-25 -1 -40 -9q-16 -8 -23 -17q-15 -19 -41 -22v0zM432 407l-99 -92l99 92l-99 -92q-5 -4 -11 1q-4 5 1 11l109 102v0v4v0q-2 22 -24 24h-176v0q-22 -2 -24 -24v-175v0q0 -7 3 -15l102 -256v0
q5 -10 15 -10h16h16q22 2 24 24v147v0q0 15 8 29l34 57v0q6 9 6 20v153v0z" />
</svg>
