<?xml version="1.0" standalone="no"?>
<!DOCTYPE svg PUBLIC "-//W3C//DTD SVG 1.1//EN" "http://www.w3.org/Graphics/SVG/1.1/DTD/svg11.dtd" >
<svg xmlns="http://www.w3.org/2000/svg" xmlns:xlink="http://www.w3.org/1999/xlink" version="1.1" viewBox="-10 -40 468 512">
   <path fill="currentColor"
d="M120 -39h-1h1h-32q-17 0 -28 12q-12 11 -12 28v147v0q0 11 -6 20l-34 58v0q-8 13 -8 28v179v0q0 17 12 28q11 12 28 12h136v0q-6 -7 -9 -16h-127v0q-22 -2 -24 -24v-179v0q0 -11 6 -20l34 -57v0q8 -14 8 -29v-147v0q2 -22 24 -24h16h15q11 1 15 10l61 163v0l8 -23v0
l-46 -126v0q19 21 67 24q46 -2 66 -22l-94 235v0q-4 10 -4 20v175v0q0 17 12 28q11 12 28 12h176v0q17 0 28 -12q12 -11 12 -28v-179v0q0 -15 -8 -28l-34 -58v0q-6 -9 -6 -20v-147v0q0 -17 -12 -28q-11 -12 -28 -12h-16h-16v0v0q-27 3 -41 22q-7 9 -23 17q-15 8 -40 9
q-25 -1 -40 -9q-16 -8 -23 -17q-15 -19 -41 -22v0zM313 -13q5 -10 15 -10h16h16q22 2 24 24v147v0q0 15 8 29l34 57v0q6 9 6 20v179v0q-2 22 -24 24h-176v0q-22 -2 -24 -24v-175v0q0 -7 3 -15l102 -256v0zM80 361q0 -14 9 -23v0v0q9 -9 23 -9t23 9t9 23t-9 23t-23 9t-23 -9
t-9 -23v0zM160 361q-1 -27 -24 -42q-24 -12 -48 0q-23 15 -24 42q1 27 24 42q24 12 48 0q23 -15 24 -42v0zM94 203q-6 -4 -12 0q-4 6 0 12l19 18v0l-19 18v0q-4 6 0 12q6 4 12 0l18 -19v0l18 19v0q6 4 12 0q4 -6 0 -12l-19 -18v0l19 -18v0q4 -6 0 -12q-6 -4 -12 0l-18 19v0
l-18 -19v0zM320 217q-14 0 -23 9v0v0q-9 9 -9 23v8v0v48v0q1 7 8 8h48h8q14 0 23 -9t9 -23t-9 -23t-23 -9q0 -14 -9 -23t-23 -9v0zM304 249q1 -15 16 -16q15 1 16 16v8v0q1 7 8 8h8v0q15 1 16 16q-1 15 -16 16h-8h-40v-40v0v-8v0z" />
</svg>
