<?xml version="1.0" standalone="no"?>
<!DOCTYPE svg PUBLIC "-//W3C//DTD SVG 1.1//EN" "http://www.w3.org/Graphics/SVG/1.1/DTD/svg11.dtd" >
<svg xmlns="http://www.w3.org/2000/svg" xmlns:xlink="http://www.w3.org/1999/xlink" version="1.1" viewBox="-10 -40 468 512">
   <path fill="currentColor"
d="M230 -37q-6 -4 -12 0l-136 136v0q-4 6 0 12q6 4 12 0l122 -123v0v317v0q1 7 8 8q7 -1 8 -8v-317v0l122 123v0q6 4 12 0q4 -6 0 -12l-136 -136v0zM16 289q-1 -7 -8 -8q-7 1 -8 8v96v0q1 37 26 62t62 26h272v0q37 -1 62 -26t26 -62v-96v0q-1 -7 -8 -8q-7 1 -8 8v96v0
q-1 31 -21 51t-51 21h-272v0q-31 -1 -51 -21t-21 -51v-96v0z" />
</svg>
