<?xml version="1.0" standalone="no"?>
<!DOCTYPE svg PUBLIC "-//W3C//DTD SVG 1.1//EN" "http://www.w3.org/Graphics/SVG/1.1/DTD/svg11.dtd" >
<svg xmlns="http://www.w3.org/2000/svg" xmlns:xlink="http://www.w3.org/1999/xlink" version="1.1" viewBox="-10 -40 532 512">
   <path fill="currentColor"
d="M184 -39h-176h176h-176q-7 1 -8 8v176v0q1 7 8 8q7 -1 8 -8v-157v0l298 299v0q6 4 12 0q4 -6 0 -12l-299 -298v0h157v0q7 -1 8 -8q-1 -7 -8 -8v0zM288 25q-7 1 -8 8q1 7 8 8q88 2 147 61t61 147q-2 88 -61 147t-147 61q-88 -2 -147 -61t-61 -147q-1 -7 -8 -8q-7 1 -8 8
q1 63 31 113q29 51 80 80q50 30 113 31q63 -1 113 -31q51 -29 80 -80q30 -50 31 -113q-1 -63 -31 -113q-29 -51 -80 -80q-50 -30 -113 -31v0z" />
</svg>
