<?xml version="1.0" standalone="no"?>
<!DOCTYPE svg PUBLIC "-//W3C//DTD SVG 1.1//EN" "http://www.w3.org/Graphics/SVG/1.1/DTD/svg11.dtd" >
<svg xmlns="http://www.w3.org/2000/svg" xmlns:xlink="http://www.w3.org/1999/xlink" version="1.1" viewBox="-10 -40 468 512">
   <path fill="currentColor"
d="M280 -7q-7 1 -8 8q1 7 8 8h141v0l-419 418v0q-4 6 0 12q6 4 12 0l418 -419v0v141v0q1 7 8 8q7 -1 8 -8v-160v0q-1 -7 -8 -8h-160v0zM14 -5q-6 -4 -12 0q-4 6 0 12l188 187v0l11 -11v0l-187 -188v0zM421 425h-141h141h-141q-7 1 -8 8q1 7 8 8h160v0q7 -1 8 -8v-160v0
q-1 -7 -8 -8q-7 1 -8 8v141v0l-174 -174v0l-11 11v0l174 174v0z" />
</svg>
