<?xml version="1.0" standalone="no"?>
<!DOCTYPE svg PUBLIC "-//W3C//DTD SVG 1.1//EN" "http://www.w3.org/Graphics/SVG/1.1/DTD/svg11.dtd" >
<svg xmlns="http://www.w3.org/2000/svg" xmlns:xlink="http://www.w3.org/1999/xlink" version="1.1" viewBox="-10 -40 532 512">
   <path fill="currentColor"
d="M496 105q-2 62 -47 99q-33 26 -43 68q-8 38 -24 72t-38 57q-59 56 -136 56t-136 -56q-56 -59 -56 -136t56 -136q23 -22 57 -38t72 -24q42 -10 68 -43q37 -45 99 -47q54 1 91 37q36 37 37 91v0zM421 275q9 -35 38 -59q51 -42 53 -111q-2 -61 -42 -102q-41 -40 -102 -42
q-69 2 -111 53q-24 29 -59 38q-40 8 -76 25t-61 41q-61 64 -61 147t61 147q64 61 147 61t147 -61q24 -25 42 -61q17 -36 24 -75v-1zM171 196q31 -30 66 -34v0v0q34 -4 57 17q21 23 17 57q-4 35 -33 67q-32 29 -67 33q-34 4 -57 -17q-21 -23 -17 -57q4 -35 34 -66v0zM305 168
q-29 -28 -70 -22v0v0q-42 5 -76 38q-33 34 -38 76q-6 41 22 70q29 28 70 22q42 -5 76 -38q33 -34 38 -76q6 -41 -22 -70v0z" />
</svg>
