<?xml version="1.0" standalone="no"?>
<!DOCTYPE svg PUBLIC "-//W3C//DTD SVG 1.1//EN" "http://www.w3.org/Graphics/SVG/1.1/DTD/svg11.dtd" >
<svg xmlns="http://www.w3.org/2000/svg" xmlns:xlink="http://www.w3.org/1999/xlink" version="1.1" viewBox="-10 -40 468 512">
   <path fill="currentColor"
d="M8 49q-7 1 -8 8q1 7 8 8h432v0q7 -1 8 -8q-1 -7 -8 -8h-432v0zM136 209q-7 1 -8 8q1 7 8 8h304v0q7 -1 8 -8q-1 -7 -8 -8h-304v0zM128 377q1 7 8 8h304v0q7 -1 8 -8q-1 -7 -8 -8h-304v0q-7 1 -8 8v0zM0 401q1 7 8 8q7 -1 8 -8v-208v0q-1 -7 -8 -8q-7 1 -8 8v208v0z" />
</svg>
