<?xml version="1.0" standalone="no"?>
<!DOCTYPE svg PUBLIC "-//W3C//DTD SVG 1.1//EN" "http://www.w3.org/Graphics/SVG/1.1/DTD/svg11.dtd" >
<svg xmlns="http://www.w3.org/2000/svg" xmlns:xlink="http://www.w3.org/1999/xlink" version="1.1" viewBox="-10 -40 468 512">
   <path fill="currentColor"
d="M56 -39q-24 1 -40 16v0v0q-15 16 -16 40v400v0q1 24 16 40q16 15 40 16h136v0v-16v0h-136v0q-17 0 -28 -12q-12 -11 -12 -28t12 -28q11 -12 28 -12h136v0v-16v0h-136v0q-24 1 -40 17v-361v0q0 -17 12 -28q11 -12 28 -12h352v0q22 2 24 24v336v0q-2 22 -24 24h-120v0v16v0
h112v0v80v0h-112v0v16v0h152v0q7 -1 8 -8q-1 -7 -8 -8h-24v0v-81v0q30 -8 32 -39v-336v0q0 -17 -12 -28q-11 -12 -28 -12h-352v0zM130 195q-4 6 0 12q6 4 12 0l90 -91v0v349v0q1 7 8 8q7 -1 8 -8v-349v0l90 91v0q6 4 12 0q4 -6 0 -12l-104 -104v0q-6 -4 -12 0l-104 104v0z
" />
</svg>
