<?xml version="1.0" standalone="no"?>
<!DOCTYPE svg PUBLIC "-//W3C//DTD SVG 1.1//EN" "http://www.w3.org/Graphics/SVG/1.1/DTD/svg11.dtd" >
<svg xmlns="http://www.w3.org/2000/svg" xmlns:xlink="http://www.w3.org/1999/xlink" version="1.1" viewBox="-10 -40 660 512">
   <path fill="currentColor"
d="M56 -39q-24 1 -40 16v0v0q-15 16 -16 40v400v0q1 24 16 40q16 15 40 16h339v0q-11 -7 -20 -16h-319v0q-17 0 -28 -12q-12 -11 -12 -28t12 -28q11 -12 28 -12h271v0q-3 -8 -4 -16h-267v0q-24 1 -40 17v-361v0q0 -17 12 -28q11 -12 28 -12h352v0q22 2 24 24v164v0
q8 -3 16 -5v-159v0q0 -17 -12 -28q-11 -12 -28 -12h-352v0zM496 201q35 0 64 17v0v0q29 17 47 47q17 30 17 64t-17 64q-18 30 -47 47t-64 17t-64 -17t-47 -47q-17 -30 -17 -64t17 -64q18 -30 47 -47t64 -17v0zM496 473q39 0 72 -19v0v0q33 -19 53 -53q19 -34 19 -72t-19 -72
q-20 -34 -53 -53t-72 -19t-72 19t-53 53q-19 34 -19 72t19 72q20 34 53 53t72 19v0zM498 259q-4 6 0 12l51 50v0h-125v0q-7 1 -8 8q1 7 8 8h125v0l-51 50v0q-4 6 0 12q6 4 12 0l64 -64v0q4 -6 0 -12l-64 -64v0q-6 -4 -12 0v0z" />
</svg>
