<?xml version="1.0" standalone="no"?>
<!DOCTYPE svg PUBLIC "-//W3C//DTD SVG 1.1//EN" "http://www.w3.org/Graphics/SVG/1.1/DTD/svg11.dtd" >
<svg xmlns="http://www.w3.org/2000/svg" xmlns:xlink="http://www.w3.org/1999/xlink" version="1.1" viewBox="-10 -40 596 512">
   <path fill="currentColor"
d="M232 9h110h-110h110q31 1 44 29l42 93v0l2 6h-198v0v-128v0zM16 153h336h-336h432v-2v0q0 -14 -5 -26l-42 -94v0q-18 -36 -59 -38h-236v0q-41 2 -59 38l-41 94v0q-6 12 -6 26v226v0q1 27 19 45t45 19h232v0l-12 -16h-220v0q-20 -1 -34 -14q-13 -14 -14 -34v-224v0z
M216 137h-198h198h-198l2 -6l42 -93v0q13 -28 44 -29h110v0v128v0zM432 201q35 0 64 17v0v0q29 17 47 47q17 30 17 64t-17 64q-18 30 -47 47t-64 17t-64 -17t-47 -47q-17 -30 -17 -64t17 -64q18 -30 47 -47t64 -17v0zM432 473q39 0 72 -19v0v0q33 -19 53 -53q19 -34 19 -72
t-19 -72q-20 -34 -53 -53t-72 -19t-72 19t-53 53q-19 34 -19 72t19 72q20 34 53 53t72 19v0zM502 283q-6 -4 -12 0l-74 75v0l-42 -43v0q-6 -4 -12 0q-4 6 0 12l48 48v0q6 4 12 0l80 -80v0q4 -6 0 -12v0z" />
</svg>
