<?xml version="1.0" standalone="no"?>
<!DOCTYPE svg PUBLIC "-//W3C//DTD SVG 1.1//EN" "http://www.w3.org/Graphics/SVG/1.1/DTD/svg11.dtd" >
<svg xmlns="http://www.w3.org/2000/svg" xmlns:xlink="http://www.w3.org/1999/xlink" version="1.1" viewBox="-10 -40 532 512">
   <path fill="currentColor"
d="M248 65q1 7 8 8q7 -1 8 -8v-96v0q-1 -7 -8 -8q-7 1 -8 8v96v0zM256 137q45 1 69 40q22 40 0 80q-24 39 -69 40q-45 -1 -69 -40q-22 -40 0 -80q24 -39 69 -40v0zM256 313q26 0 48 -13v0v0q22 -13 35 -35q13 -23 13 -48t-13 -48q-13 -22 -35 -35t-48 -13t-48 13t-35 35
q-13 23 -13 48t13 48q13 22 35 35t48 13v0zM256 473q7 -1 8 -8v-96v0q-1 -7 -8 -8q-7 1 -8 8v96v0q1 7 8 8v0zM0 217q1 7 8 8h96v0q7 -1 8 -8q-1 -7 -8 -8h-96v0q-7 1 -8 8v0zM408 209q-7 1 -8 8q1 7 8 8h96v0q7 -1 8 -8q-1 -7 -8 -8h-96v0zM75 398q6 5 11 0l68 -68v0
q5 -6 0 -11t-11 0l-68 68v0q-5 5 0 11v0zM358 104q-5 6 0 11t11 0l68 -68v0q5 -5 0 -11q-6 -5 -11 0l-68 68v0zM75 36q-5 6 0 11l68 68v0q6 5 11 0t0 -11l-68 -68v0q-5 -5 -11 0v0zM369 319q-6 -5 -11 0t0 11l68 68v0q5 5 11 0q5 -6 0 -11l-68 -68v0z" />
</svg>
