<?xml version="1.0" standalone="no"?>
<!DOCTYPE svg PUBLIC "-//W3C//DTD SVG 1.1//EN" "http://www.w3.org/Graphics/SVG/1.1/DTD/svg11.dtd" >
<svg xmlns="http://www.w3.org/2000/svg" xmlns:xlink="http://www.w3.org/1999/xlink" version="1.1" viewBox="-10 -40 522 512">
   <path fill="currentColor"
d="M272 41q-1 -15 -16 -16q-15 1 -16 16q1 15 16 16q15 -1 16 -16v0zM256 137q45 1 69 40q22 40 0 80q-24 39 -69 40q-45 -1 -69 -40q-22 -40 0 -80q24 -39 69 -40v0zM256 313q26 0 48 -13v0v0q22 -13 35 -35q13 -23 13 -48t-13 -48q-13 -22 -35 -35t-48 -13t-48 13t-35 35
q-13 23 -13 48t13 48q13 22 35 35t48 13v0zM256 409q15 -1 16 -16q-1 -15 -16 -16q-15 1 -16 16q1 15 16 16v0zM432 233q15 -1 16 -16q-1 -15 -16 -16q-15 1 -16 16q1 15 16 16v0zM64 217q1 15 16 16q15 -1 16 -16q-1 -15 -16 -16q-15 1 -16 16v0zM144 89q-1 -15 -16 -16
q-15 1 -16 16q1 15 16 16q15 -1 16 -16v0zM400 345q-1 -15 -16 -16q-15 1 -16 16q1 15 16 16q15 -1 16 -16v0zM400 89q-1 -15 -16 -16q-15 1 -16 16q1 15 16 16q15 -1 16 -16v0zM112 345q1 15 16 16q15 -1 16 -16q-1 -15 -16 -16q-15 1 -16 16v0z" />
</svg>
