<?xml version="1.0" standalone="no"?>
<!DOCTYPE svg PUBLIC "-//W3C//DTD SVG 1.1//EN" "http://www.w3.org/Graphics/SVG/1.1/DTD/svg11.dtd" >
<svg xmlns="http://www.w3.org/2000/svg" xmlns:xlink="http://www.w3.org/1999/xlink" version="1.1" viewBox="-10 -40 532 512">
   <path fill="currentColor"
d="M256 -23q-20 1 -34 14v0v0q-13 14 -14 34v384v0q1 20 14 34q14 13 34 14h192v0q20 -1 34 -14q13 -14 14 -34v-384v0q-1 -20 -14 -34q-14 -13 -34 -14h-192v0zM192 25q1 -27 19 -45v0v0q18 -18 45 -19h192v0q27 1 45 19t19 45v384v0q-1 27 -19 45t-45 19h-192v0
q-27 -1 -45 -19t-19 -45v-384v0zM56 89h104h-104h104v16v0h-104v0q-17 0 -28 12q-12 11 -12 28v272v0q0 17 12 28q11 12 28 12h117v0q5 9 11 16h-128v0q-24 -1 -40 -16q-15 -16 -16 -40v-272v0q1 -24 16 -40q16 -15 40 -16v0zM64 305q2 -22 24 -24h32v0q22 2 24 24v32v0
q-2 22 -24 24h-32v0q-22 -2 -24 -24v-32v0zM88 297q-7 1 -8 8v32v0q1 7 8 8h32v0q7 -1 8 -8v-32v0q-1 -7 -8 -8h-32v0zM88 153h32h-32h32q22 2 24 24v32v0q-2 22 -24 24h-32v0q-22 -2 -24 -24v-32v0q2 -22 24 -24v0zM80 177v32v-32v32q1 7 8 8h32v0q7 -1 8 -8v-32v0
q-1 -7 -8 -8h-32v0q-7 1 -8 8v0zM368 337v-32v32v-32q2 -22 24 -24h32v0q22 2 24 24v32v0q-2 22 -24 24h-32v0q-22 -2 -24 -24v0zM392 345h32h-32h32q7 -1 8 -8v-32v0q-1 -7 -8 -8h-32v0q-7 1 -8 8v32v0q1 7 8 8v0zM392 233q-22 -2 -24 -24v-32v0q2 -22 24 -24h32v0
q22 2 24 24v32v0q-2 22 -24 24h-32v0zM384 209q1 7 8 8h32v0q7 -1 8 -8v-32v0q-1 -7 -8 -8h-32v0q-7 1 -8 8v32v0zM256 337v-32v32v-32q2 -22 24 -24h32v0q22 2 24 24v32v0q-2 22 -24 24h-32v0q-22 -2 -24 -24v0zM280 345h32h-32h32q7 -1 8 -8v-32v0q-1 -7 -8 -8h-32v0
q-7 1 -8 8v32v0q1 7 8 8v0zM280 33h32h-32h32q22 2 24 24v32v0q-2 22 -24 24h-32v0q-22 -2 -24 -24v-32v0q2 -22 24 -24v0zM272 57v32v-32v32q1 7 8 8h32v0q7 -1 8 -8v-32v0q-1 -7 -8 -8h-32v0q-7 1 -8 8v0zM256 209v-32v32v-32q2 -22 24 -24h32v0q22 2 24 24v32v0
q-2 22 -24 24h-32v0q-22 -2 -24 -24v0zM280 217h32h-32h32q7 -1 8 -8v-32v0q-1 -7 -8 -8h-32v0q-7 1 -8 8v32v0q1 7 8 8v0zM392 33h32h-32h32q22 2 24 24v32v0q-2 22 -24 24h-32v0q-22 -2 -24 -24v-32v0q2 -22 24 -24v0zM384 57v32v-32v32q1 7 8 8h32v0q7 -1 8 -8v-32v0
q-1 -7 -8 -8h-32v0q-7 1 -8 8v0z" />
</svg>
