<?xml version="1.0" standalone="no"?>
<!DOCTYPE svg PUBLIC "-//W3C//DTD SVG 1.1//EN" "http://www.w3.org/Graphics/SVG/1.1/DTD/svg11.dtd" >
<svg xmlns="http://www.w3.org/2000/svg" xmlns:xlink="http://www.w3.org/1999/xlink" version="1.1" viewBox="-11 0 661 512">
   <path fill="currentColor"
d="M16 -6l11 127l-11 -127l11 127h331v0l10 -127v0q0 -15 -16 -17h-320v0q-15 2 -16 17v0zM28 137l23 283l-23 -283l23 283q2 16 13 26q11 11 27 11h193v0q4 9 11 16h-1h-1h-202v0q-23 0 -38 -15q-16 -14 -18 -36l-35 -426v0q-1 -15 9 -25q9 -10 23 -10h320v0q14 0 24 10
q9 10 8 25l-13 152v0q-8 5 -16 9l1 -20v0h-328v0zM464 177q-47 1 -77 17v0v0q-29 16 -44 36v0v0q-16 20 -21 32q-2 5 -2 13q2 20 22 22h244v0q20 -2 22 -22q0 -8 -2 -13q-5 -12 -20 -32q-16 -20 -45 -36q-30 -16 -77 -17v0zM304 275q0 -10 4 -20q5 -14 22 -36t50 -39
q32 -18 84 -19q52 1 84 19q33 17 50 39t22 36q4 10 4 20q0 16 -11 27q26 13 27 43q-1 29 -26 42q10 10 10 25q-1 26 -18 43t-43 18h-198v0q-26 -1 -43 -18t-18 -43q0 -15 10 -25q-25 -13 -26 -42q2 -30 27 -43q-11 -11 -11 -27v0zM336 313q-14 0 -23 9v0v0q-9 9 -9 23
q0 13 9 22t23 10h3h253q14 -1 23 -10t9 -22q0 -14 -9 -23t-23 -9h-6h-250zM339 393q-17 1 -19 19q0 19 13 32q13 12 32 13h198v0q19 -1 32 -13q13 -13 13 -32q-2 -18 -19 -19h-250v0zM394 225q-1 9 -10 10q-9 -1 -10 -10q1 -9 10 -10q9 1 10 10v0zM464 219q-9 -1 -10 -10
q1 -9 10 -10q9 1 10 10q-1 9 -10 10v0zM554 225q-1 9 -10 10q-9 -1 -10 -10q1 -9 10 -10q9 1 10 10v0z" />
</svg>
