<?xml version="1.0" standalone="no"?>
<!DOCTYPE svg PUBLIC "-//W3C//DTD SVG 1.1//EN" "http://www.w3.org/Graphics/SVG/1.1/DTD/svg11.dtd" >
<svg xmlns="http://www.w3.org/2000/svg" xmlns:xlink="http://www.w3.org/1999/xlink" version="1.1" viewBox="-10 -40 468 512">
   <path fill="currentColor"
d="M128 -31q-1 -7 -8 -8q-7 1 -8 8v56v0h-48v0q-27 1 -45 19t-19 45v48v0v16v0v256v0q1 27 19 45t45 19h320v0q27 -1 45 -19t19 -45v-256v0v-16v0v-48v0q-1 -27 -19 -45t-45 -19h-48v0v-56v0q-1 -7 -8 -8q-7 1 -8 8v56v0h-192v0v-56v0zM16 153h416h-416h416v256v0
q-1 20 -14 34q-14 13 -34 14h-320v0q-20 -1 -34 -14q-13 -14 -14 -34v-256v0zM112 41v40v-40v40q1 7 8 8q7 -1 8 -8v-40v0h192v0v40v0q1 7 8 8q7 -1 8 -8v-40v0h48v0q20 1 34 14q13 14 14 34v48v0h-416v0v-48v0q1 -20 14 -34q14 -13 34 -14h48v0zM128 267q0 -18 12 -30v0v0
q12 -12 30 -12q17 0 30 12l18 19v0q3 2 6 2t6 -2l18 -19v0q13 -12 30 -12q18 0 30 12t12 30v1v0q0 16 -11 28l-79 86v0q-3 3 -6 3t-6 -3l-79 -86v0q-11 -12 -11 -28v-1v0zM170 209q-25 1 -41 17v0v0q-16 16 -17 41v1v0q0 22 15 39l79 86v0q7 8 18 8q10 0 18 -8l79 -86v0
q15 -17 15 -39v-1v0q-1 -25 -17 -41t-41 -17q-24 0 -41 17l-13 13v0l-13 -13v0q-17 -17 -41 -17v0z" />
</svg>
