<?xml version="1.0" standalone="no"?>
<!DOCTYPE svg PUBLIC "-//W3C//DTD SVG 1.1//EN" "http://www.w3.org/Graphics/SVG/1.1/DTD/svg11.dtd" >
<svg xmlns="http://www.w3.org/2000/svg" xmlns:xlink="http://www.w3.org/1999/xlink" version="1.1" viewBox="-10 -40 468 512">
   <path fill="currentColor"
d="M120 -39q7 1 8 8v56v0h192v0v-56v0q1 -7 8 -8q7 1 8 8v56v0h48v0q27 1 45 19t19 45v48v0v16v0v256v0q-1 27 -19 45t-45 19h-320v0q-27 -1 -45 -19t-19 -45v-256v0v-16v0v-48v0q1 -27 19 -45t45 -19h48v0v-56v0q1 -7 8 -8v0zM432 153h-416h416h-416v256v0q1 20 14 34
q14 13 34 14h320v0q20 -1 34 -14q13 -14 14 -34v-256v0zM112 81v-40v40v-40h-48v0q-20 1 -34 14q-13 14 -14 34v48v0h416v0v-48v0q-1 -20 -14 -34q-14 -13 -34 -14h-48v0v40v0q-1 7 -8 8q-7 -1 -8 -8v-40v0h-192v0v40v0q-1 7 -8 8q-7 -1 -8 -8v0zM263 248q-7 -7 -13 0
l-59 86v0q-3 3 -6 3q-4 0 -7 -2l-26 -27v0q-7 -5 -12 1l-51 71v0q-5 11 6 13h258v0q11 -2 6 -13l-96 -132v0zM237 239q7 -10 19 -10v0v0q12 -1 20 9l96 133v0q8 13 2 25t-21 13h-258v0q-15 -1 -21 -13t2 -25l51 -71v0q7 -9 17 -10q11 -1 19 7l20 20v0l54 -78v0zM96 233
q1 15 16 16q15 -1 16 -16q-1 -15 -16 -16q-15 1 -16 16v0zM112 265q-14 0 -23 -9v0v0q-9 -9 -9 -23t9 -23t23 -9t23 9t9 23t-9 23t-23 9v0z" />
</svg>
