<?xml version="1.0" standalone="no"?>
<!DOCTYPE svg PUBLIC "-//W3C//DTD SVG 1.1//EN" "http://www.w3.org/Graphics/SVG/1.1/DTD/svg11.dtd" >
<svg xmlns="http://www.w3.org/2000/svg" xmlns:xlink="http://www.w3.org/1999/xlink" version="1.1" viewBox="-10 -40 394 512">
   <path fill="currentColor"
d="M224 -39q7 1 8 8v56v0q67 2 117 38q5 5 2 12q-5 5 -12 1q-46 -33 -107 -35v352v0q61 -2 107 -35q7 -4 12 2q3 6 -2 11q-50 36 -117 38v0v0v56v0q-1 7 -8 8q-7 -1 -8 -8v-56v0v0v0q-79 -7 -130 -61q-52 -53 -54 -131q2 -78 54 -131q51 -54 130 -60v-57v0q1 -7 8 -8v0z
M48 217q2 71 49 120v0v0q47 49 119 56v-351v0q-72 6 -119 55t-49 120v0z" />
</svg>
