<?xml version="1.0" standalone="no"?>
<!DOCTYPE svg PUBLIC "-//W3C//DTD SVG 1.1//EN" "http://www.w3.org/Graphics/SVG/1.1/DTD/svg11.dtd" >
<svg xmlns="http://www.w3.org/2000/svg" xmlns:xlink="http://www.w3.org/1999/xlink" version="1.1" viewBox="-10 -40 532 512">
   <path fill="currentColor"
d="M8 -7q7 1 8 8v368v0q1 24 16 40q16 15 40 16h432v0q7 1 8 8q-1 7 -8 8h-432v0q-31 -1 -51 -21t-21 -51v-368v0q1 -7 8 -8v0zM288 73q-15 1 -16 16v96v0q1 15 16 16h16h16q15 -1 16 -16v-96v0q-1 -15 -16 -16h-16h-16zM296 273v-56v56v-56h-8v0q-14 0 -23 -9t-9 -23v-96v0
q0 -14 9 -23t23 -9h8v0v-56v0q1 -7 8 -8q7 1 8 8v56v0h8v0q14 0 23 9t9 23v96v0q0 14 -9 23t-23 9h-8v0v56v0q-1 7 -8 8q-7 -1 -8 -8v0zM400 185v64v-64v64q1 15 16 16h16h16q15 -1 16 -16v-64v0q-1 -15 -16 -16h-16h-16q-15 1 -16 16v0zM424 281h-8h8h-8q-14 0 -23 -9
t-9 -23v-64v0q0 -14 9 -23t23 -9h8v0v-56v0q1 -7 8 -8q7 1 8 8v56v0h8v0q14 0 23 9t9 23v64v0q0 14 -9 23t-23 9h-8v0v56v0q-1 7 -8 8q-7 -1 -8 -8v-56v0zM208 121q-1 -15 -16 -16h-16h-16q-15 1 -16 16v128v0q1 15 16 16h16h16q15 -1 16 -16v-128v0zM184 281v56v-56v56
q-1 7 -8 8q-7 -1 -8 -8v-56v0h-8v0q-14 0 -23 -9t-9 -23v-128v0q0 -14 9 -23t23 -9h8v0v-56v0q1 -7 8 -8q7 1 8 8v56v0h8v0q14 0 23 9t9 23v128v0q0 14 -9 23t-23 9h-8v0z" />
</svg>
