<?xml version="1.0" standalone="no"?>
<!DOCTYPE svg PUBLIC "-//W3C//DTD SVG 1.1//EN" "http://www.w3.org/Graphics/SVG/1.1/DTD/svg11.dtd" >
<svg xmlns="http://www.w3.org/2000/svg" xmlns:xlink="http://www.w3.org/1999/xlink" version="1.1" viewBox="-10 -40 532 512">
   <path fill="currentColor"
d="M16 1q-1 -7 -8 -8q-7 1 -8 8v368v0q1 31 21 51t51 21h432v0q7 -1 8 -8q-1 -7 -8 -8h-432v0q-24 -1 -40 -16q-15 -16 -16 -40v-368v0zM432 73q15 1 16 16v224v0q-1 15 -16 16q-15 -1 -16 -16v-224v0q1 -15 16 -16v0zM240 137q15 1 16 16v160v0q-1 15 -16 16
q-15 -1 -16 -16v-160v0q1 -15 16 -16v0zM144 233q15 1 16 16v64v0q-1 15 -16 16q-15 -1 -16 -16v-64v0q1 -15 16 -16v0zM336 201q15 1 16 16v96v0q-1 15 -16 16q-15 -1 -16 -16v-96v0q1 -15 16 -16v0zM464 89q0 -14 -9 -23v0v0q-9 -9 -23 -9t-23 9t-9 23v224v0q0 14 9 23
t23 9t23 -9t9 -23v-224v0zM272 153q0 -14 -9 -23v0v0q-9 -9 -23 -9t-23 9t-9 23v160v0q0 14 9 23t23 9t23 -9t9 -23v-160v0zM176 249q0 -14 -9 -23v0v0q-9 -9 -23 -9t-23 9t-9 23v64v0q0 14 9 23t23 9t23 -9t9 -23v-64v0zM336 185q-14 0 -23 9v0v0q-9 9 -9 23v96v0
q0 14 9 23t23 9t23 -9t9 -23v-96v0q0 -14 -9 -23t-23 -9v0z" />
</svg>
