<?xml version="1.0" standalone="no"?>
<!DOCTYPE svg PUBLIC "-//W3C//DTD SVG 1.1//EN" "http://www.w3.org/Graphics/SVG/1.1/DTD/svg11.dtd" >
<svg xmlns="http://www.w3.org/2000/svg" xmlns:xlink="http://www.w3.org/1999/xlink" version="1.1" viewBox="-10 -40 532 512">
   <path fill="currentColor"
d="M48 25q-1 15 -16 16q-15 -1 -16 -16q1 -15 16 -16q15 1 16 16v0zM32 -7q-14 0 -23 9v0v0q-9 9 -9 23t9 23t23 9t23 -9t9 -23t-9 -23t-23 -9v0zM264 1q-1 -7 -8 -8q-7 1 -8 8v244v0l-213 182v0q-5 5 -1 11q5 5 11 1l211 -179v0l211 179v0q6 4 11 -1q4 -6 -1 -11l-213 -182
v0v-244v0zM400 25q-1 15 -16 16q-15 -1 -16 -16q1 -15 16 -16q15 1 16 16v0zM384 -7q-14 0 -23 9v0v0q-9 9 -9 23t9 23t23 9t23 -9t9 -23t-9 -23t-23 -9v0zM384 233q-15 -1 -16 -16q1 -15 16 -16q15 1 16 16q-1 15 -16 16v0zM352 217q0 14 9 23v0v0q9 9 23 9t23 -9t9 -23
t-9 -23t-23 -9t-23 9t-9 23v0zM496 121q-1 15 -16 16q-15 -1 -16 -16q1 -15 16 -16q15 1 16 16v0zM480 89q-14 0 -23 9v0v0q-9 9 -9 23t9 23t23 9t23 -9t9 -23t-9 -23t-23 -9v0zM128 137q-15 -1 -16 -16q1 -15 16 -16q15 1 16 16q-1 15 -16 16v0zM96 121q0 14 9 23v0v0
q9 9 23 9t23 -9t9 -23t-9 -23t-23 -9t-23 9t-9 23v0zM32 233q-15 -1 -16 -16q1 -15 16 -16q15 1 16 16q-1 15 -16 16v0zM0 217q0 14 9 23v0v0q9 9 23 9t23 -9t9 -23t-9 -23t-23 -9t-23 9t-9 23v0zM272 409q-1 15 -16 16q-15 -1 -16 -16q1 -15 16 -16q15 1 16 16v0zM256 377
q-14 0 -23 9v0v0q-9 9 -9 23t9 23t23 9t23 -9t9 -23t-9 -23t-23 -9v0z" />
</svg>
