<?xml version="1.0" standalone="no"?>
<!DOCTYPE svg PUBLIC "-//W3C//DTD SVG 1.1//EN" "http://www.w3.org/Graphics/SVG/1.1/DTD/svg11.dtd" >
<svg xmlns="http://www.w3.org/2000/svg" xmlns:xlink="http://www.w3.org/1999/xlink" version="1.1" viewBox="-10 -40 532 512">
   <path fill="currentColor"
d="M8 -7q7 1 8 8v368v0q1 24 16 40q16 15 40 16h432v0q7 1 8 8q-1 7 -8 8h-432v0q-31 -1 -51 -21t-21 -51v-368v0q1 -7 8 -8v0zM176 297q14 0 23 -9v0v0q9 -9 9 -23t-9 -23t-23 -9t-23 9t-9 23t9 23t23 9v0zM176 217q27 1 42 24q12 24 0 48q-15 23 -42 24q-27 -1 -42 -24
q-12 -24 0 -48q15 -23 42 -24v0zM400 249q-1 -27 -24 -42q-24 -12 -48 0q-23 15 -24 42q1 27 24 42q24 12 48 0q23 -15 24 -42v0zM288 249q1 -36 32 -55q32 -18 64 0q31 19 32 55q-1 36 -32 55q-32 18 -64 0q-31 -19 -32 -55v0zM240 169q14 0 23 -9v0v0q9 -9 9 -23t-9 -23
t-23 -9t-23 9t-9 23t9 23t23 9v0zM240 89q27 1 42 24q12 24 0 48q-15 23 -42 24q-27 -1 -42 -24q-12 -24 0 -48q15 -23 42 -24v0zM432 89q-1 -27 -24 -42q-24 -12 -48 0q-23 15 -24 42q1 27 24 42q24 12 48 0q23 -15 24 -42v0zM320 89q1 -36 32 -55q32 -18 64 0q31 19 32 55
q-1 36 -32 55q-32 18 -64 0q-31 -19 -32 -55v0z" />
</svg>
