<?xml version="1.0" standalone="no"?>
<!DOCTYPE svg PUBLIC "-//W3C//DTD SVG 1.1//EN" "http://www.w3.org/Graphics/SVG/1.1/DTD/svg11.dtd" >
<svg xmlns="http://www.w3.org/2000/svg" xmlns:xlink="http://www.w3.org/1999/xlink" version="1.1" viewBox="-10 -40 532 512">
   <path fill="currentColor"
d="M176 9q14 0 23 9v0v0q9 9 9 23v112v0q0 14 -9 23t-23 9h-128v0q-14 0 -23 -9t-9 -23v-112v0q0 -14 9 -23t23 -9h128v0zM48 -7q-20 1 -34 14v0v0q-13 14 -14 34v112v0q1 20 14 34q14 13 34 14h128v0q20 -1 34 -14q13 -14 14 -34v-112v0q-1 -20 -14 -34q-14 -13 -34 -14
h-128v0zM176 249q14 0 23 9v0v0q9 9 9 23v112v0q0 14 -9 23t-23 9h-128v0q-14 0 -23 -9t-9 -23v-112v0q0 -14 9 -23t23 -9h128v0zM48 233q-20 1 -34 14v0v0q-13 14 -14 34v112v0q1 20 14 34q14 13 34 14h128v0q20 -1 34 -14q13 -14 14 -34v-112v0q-1 -20 -14 -34
q-14 -13 -34 -14h-128v0zM304 9h160h-160h160q14 0 23 9t9 23v32v0q0 14 -9 23t-23 9h-160v0q-14 0 -23 -9t-9 -23v-32v0q0 -14 9 -23t23 -9v0zM256 41v32v-32v32q1 20 14 34q14 13 34 14h160v0q20 -1 34 -14q13 -14 14 -34v-32v0q-1 -20 -14 -34q-14 -13 -34 -14h-160v0
q-20 1 -34 14q-13 14 -14 34v0zM464 169q14 0 23 9v0v0q9 9 9 23v32v0q0 14 -9 23t-23 9h-160v0q-14 0 -23 -9t-9 -23v-32v0q0 -14 9 -23t23 -9h160v0zM304 153q-20 1 -34 14v0v0q-13 14 -14 34v32v0q1 20 14 34q14 13 34 14h160v0q20 -1 34 -14q13 -14 14 -34v-32v0
q-1 -20 -14 -34q-14 -13 -34 -14h-160v0zM304 329h160h-160h160q14 0 23 9t9 23v32v0q0 14 -9 23t-23 9h-160v0q-14 0 -23 -9t-9 -23v-32v0q0 -14 9 -23t23 -9v0zM256 361v32v-32v32q1 20 14 34q14 13 34 14h160v0q20 -1 34 -14q13 -14 14 -34v-32v0q-1 -20 -14 -34
q-14 -13 -34 -14h-160v0q-20 1 -34 14q-13 14 -14 34v0z" />
</svg>
