<?xml version="1.0" standalone="no"?>
<!DOCTYPE svg PUBLIC "-//W3C//DTD SVG 1.1//EN" "http://www.w3.org/Graphics/SVG/1.1/DTD/svg11.dtd" >
<svg xmlns="http://www.w3.org/2000/svg" xmlns:xlink="http://www.w3.org/1999/xlink" version="1.1" viewBox="-10 -40 532 512">
   <path fill="currentColor"
d="M256 -23q65 1 120 32v0v0q55 32 88 88q32 57 32 120t-32 120q-33 56 -88 88q-55 31 -120 32q-65 -1 -120 -32q-55 -32 -88 -88q-32 -57 -32 -120t32 -120q33 -56 88 -88q55 -31 120 -32v0zM256 473q70 -1 128 -34v0v0q58 -34 94 -94q34 -61 34 -128t-34 -128
q-36 -60 -94 -94q-58 -33 -128 -34q-70 1 -128 34q-58 34 -94 94q-34 61 -34 128t34 128q36 60 94 94q58 33 128 34v0zM256 89q-41 1 -68 28v0v0q-27 27 -28 68v64v0q1 41 28 68t68 28q41 -1 68 -28t28 -68v-64v0q-1 -41 -28 -68t-68 -28v0zM176 185q1 -34 23 -57v0v0
q23 -22 57 -23q34 1 57 23q22 23 23 57v64v0q-1 34 -23 57q-23 22 -57 23q-34 -1 -57 -23q-22 -23 -23 -57v-64v0z" />
</svg>
