<?xml version="1.0" standalone="no"?>
<!DOCTYPE svg PUBLIC "-//W3C//DTD SVG 1.1//EN" "http://www.w3.org/Graphics/SVG/1.1/DTD/svg11.dtd" >
<svg xmlns="http://www.w3.org/2000/svg" xmlns:xlink="http://www.w3.org/1999/xlink" version="1.1" viewBox="-10 -40 532 512">
   <path fill="currentColor"
d="M256 -23q65 1 120 32v0v0q55 32 88 88q32 57 32 120t-32 120q-33 56 -88 88q-55 31 -120 32q-65 -1 -120 -32q-55 -32 -88 -88q-32 -57 -32 -120t32 -120q33 -56 88 -88q55 -31 120 -32v0zM256 473q70 -1 128 -34v0v0q58 -34 94 -94q34 -61 34 -128t-34 -128
q-36 -60 -94 -94q-58 -33 -128 -34q-70 1 -128 34q-58 34 -94 94q-34 61 -34 128t34 128q36 60 94 94q58 33 128 34v0zM168 89q-7 1 -8 8q1 7 8 8h139v0l-112 98v0q-4 4 -2 9t7 5h80v0q23 0 39 16t17 40q-1 24 -17 40q-15 15 -39 16h-71v0q-20 -1 -29 -18l-5 -9v0
q-4 -7 -10 -4q-7 4 -4 11l5 10v0q14 25 43 26h71v0q30 -1 51 -21q20 -21 21 -51q-1 -31 -21 -51q-21 -21 -51 -21h-59v0l112 -98v0q4 -4 3 -9q-3 -5 -8 -5h-160v0z" />
</svg>
