<?xml version="1.0" standalone="no"?>
<!DOCTYPE svg PUBLIC "-//W3C//DTD SVG 1.1//EN" "http://www.w3.org/Graphics/SVG/1.1/DTD/svg11.dtd" >
<svg xmlns="http://www.w3.org/2000/svg" xmlns:xlink="http://www.w3.org/1999/xlink" version="1.1" viewBox="-10 -40 532 512">
   <path fill="currentColor"
d="M256 -23q65 1 120 32v0v0q55 32 88 88q32 57 32 120t-32 120q-33 56 -88 88q-55 31 -120 32q-65 -1 -120 -32q-55 -32 -88 -88q-32 -57 -32 -120t32 -120q33 -56 88 -88q55 -31 120 -32v0zM256 473q70 -1 128 -34v0v0q58 -34 94 -94q34 -61 34 -128t-34 -128
q-36 -60 -94 -94q-58 -33 -128 -34q-70 1 -128 34q-58 34 -94 94q-34 61 -34 128t34 128q36 60 94 94q58 33 128 34v0zM200 89q-6 0 -8 6l-24 104v0q-1 4 2 7q2 3 5 3l111 10v0q22 3 36 18t14 37q0 23 -16 39t-39 16h-53v0q-34 -1 -53 -28l-14 9v0q25 34 67 35h53v0
q30 -1 50 -21t21 -50q-1 -28 -18 -48q-18 -20 -46 -23l-102 -9v0l20 -89v0h122v0q7 -1 8 -8q-1 -7 -8 -8h-128v0z" />
</svg>
