<?xml version="1.0" standalone="no"?>
<!DOCTYPE svg PUBLIC "-//W3C//DTD SVG 1.1//EN" "http://www.w3.org/Graphics/SVG/1.1/DTD/svg11.dtd" >
<svg xmlns="http://www.w3.org/2000/svg" xmlns:xlink="http://www.w3.org/1999/xlink" version="1.1" viewBox="-10 -40 532 512">
   <path fill="currentColor"
d="M496 217q-1 -65 -32 -120v0v0q-32 -55 -88 -88q-57 -32 -120 -32t-120 32q-56 33 -88 88q-31 55 -32 120q1 65 32 120q32 55 88 88q57 32 120 32t120 -32q56 -33 88 -88q31 -55 32 -120v0zM0 217q1 -70 34 -128v0v0q34 -58 94 -94q61 -34 128 -34t128 34q60 36 94 94
q33 58 34 128q-1 70 -34 128q-34 58 -94 94q-61 34 -128 34t-128 -34q-60 -36 -94 -94q-33 -58 -34 -128v0zM200 57q7 1 8 8v24v0h96v0v-24v0q1 -7 8 -8q7 1 8 8v24v0h16v0q20 1 34 14q13 14 14 34v32v0v16v0v112v0q-1 20 -14 34q-14 13 -34 14h-160v0q-20 -1 -34 -14
q-13 -14 -14 -34v-112v0v-16v0v-32v0q1 -20 14 -34q14 -13 34 -14h16v0v-24v0q1 -7 8 -8v0zM192 129v-24v24v-24h-16v0q-14 0 -23 9t-9 23v32v0h224v0v-32v0q0 -14 -9 -23t-23 -9h-16v0v24v0q-1 7 -8 8q-7 -1 -8 -8v-24v0h-96v0v24v0q-1 7 -8 8q-7 -1 -8 -8v0zM368 185h-224
h224h-224v112v0q0 14 9 23t23 9h160v0q14 0 23 -9t9 -23v-112v0z" />
</svg>
