<?xml version="1.0" standalone="no"?>
<!DOCTYPE svg PUBLIC "-//W3C//DTD SVG 1.1//EN" "http://www.w3.org/Graphics/SVG/1.1/DTD/svg11.dtd" >
<svg xmlns="http://www.w3.org/2000/svg" xmlns:xlink="http://www.w3.org/1999/xlink" version="1.1" viewBox="-10 -40 522 512">
   <path fill="currentColor"
d="M226 -21q-91 13 -149 79v0v0q-59 65 -61 159q2 94 61 159q58 66 149 79q12 1 14 -14v-448v0q-2 -15 -14 -14v0zM224 -37q14 -1 23 8v0v0q9 8 9 22v448v0q0 14 -9 22q-9 9 -23 8q-97 -14 -159 -84q-63 -70 -65 -170q2 -100 65 -170q62 -70 159 -84v0z" />
</svg>
