<?xml version="1.0" standalone="no"?>
<!DOCTYPE svg PUBLIC "-//W3C//DTD SVG 1.1//EN" "http://www.w3.org/Graphics/SVG/1.1/DTD/svg11.dtd" >
<svg xmlns="http://www.w3.org/2000/svg" xmlns:xlink="http://www.w3.org/1999/xlink" version="1.1" viewBox="-10 -40 532 512">
   <path fill="currentColor"
d="M496 217q-1 -65 -32 -120v0v0q-32 -55 -88 -88q-57 -32 -120 -32t-120 32q-56 33 -88 88q-31 55 -32 120q1 65 32 120q32 55 88 88q57 32 120 32t120 -32q56 -33 88 -88q31 -55 32 -120v0zM0 217q1 -70 34 -128v0v0q34 -58 94 -94q61 -34 128 -34t128 34q60 36 94 94
q33 58 34 128q-1 70 -34 128q-34 58 -94 94q-61 34 -128 34t-128 -34q-60 -36 -94 -94q-33 -58 -34 -128v0zM256 57q27 1 45 19v0v0q18 18 19 45v96v0q-1 27 -19 45t-45 19q-27 -1 -45 -19t-19 -45v-96v0q1 -27 19 -45t45 -19v0zM208 121v96v-96v96q1 20 14 34q14 13 34 14
q20 -1 34 -14q13 -14 14 -34v-16v0h-40v0q-7 -1 -8 -8q1 -7 8 -8h40v0v-48v0h-40v0q-7 -1 -8 -8q1 -7 8 -8h40v0q-1 -20 -14 -34q-14 -13 -34 -14q-20 1 -34 14q-13 14 -14 34v0zM136 185q7 1 8 8v24v0q1 48 33 79q31 32 79 33q48 -1 79 -33q32 -31 33 -79v-24v0q1 -7 8 -8
q7 1 8 8v24v0q-1 52 -35 88q-34 35 -85 40v24v0q-1 7 -8 8q-7 -1 -8 -8v-24v0q-51 -5 -85 -40q-34 -36 -35 -88v-24v0q1 -7 8 -8v0z" />
</svg>
