<?xml version="1.0" standalone="no"?>
<!DOCTYPE svg PUBLIC "-//W3C//DTD SVG 1.1//EN" "http://www.w3.org/Graphics/SVG/1.1/DTD/svg11.dtd" >
<svg xmlns="http://www.w3.org/2000/svg" xmlns:xlink="http://www.w3.org/1999/xlink" version="1.1" viewBox="-10 -40 532 512">
   <path fill="currentColor"
d="M256 -23q65 1 120 32v0v0q55 32 88 88q32 57 32 120t-32 120q-33 56 -88 88q-55 31 -120 32q-65 -1 -120 -32q-55 -32 -88 -88q-32 -57 -32 -120t32 -120q33 -56 88 -88q55 -31 120 -32v0zM256 473q70 -1 128 -34v0v0q58 -34 94 -94q34 -61 34 -128t-34 -128
q-36 -60 -94 -94q-58 -33 -128 -34q-70 1 -128 34q-58 34 -94 94q-34 61 -34 128t34 128q36 60 94 94q58 33 128 34v0zM189 97q10 -2 14 7l20 48v0q3 8 -3 14l-25 20v0q-5 5 -2 10q27 57 84 84q5 3 9 -2l21 -25v0q5 -6 14 -3l48 20v0q8 4 7 14l-12 44v0q-3 8 -12 9
q-92 -2 -153 -63t-63 -153q0 -9 9 -12l44 -12v0zM218 98q-11 -20 -33 -16l-44 12v0q-20 7 -21 27q1 65 32 117t83 83t117 32q20 -1 27 -21l12 -44v0q4 -22 -16 -33l-48 -20v0q-19 -7 -33 8l-16 20v0q-44 -24 -68 -68l20 -16v0q15 -14 8 -33l-20 -48v0z" />
</svg>
