<?xml version="1.0" standalone="no"?>
<!DOCTYPE svg PUBLIC "-//W3C//DTD SVG 1.1//EN" "http://www.w3.org/Graphics/SVG/1.1/DTD/svg11.dtd" >
<svg xmlns="http://www.w3.org/2000/svg" xmlns:xlink="http://www.w3.org/1999/xlink" version="1.1" viewBox="-10 -40 532 512">
   <path fill="currentColor"
d="M256 457q65 -1 120 -32v0v0q55 -32 88 -88q32 -57 32 -120t-32 -120q-33 -56 -88 -88q-55 -31 -120 -32q-65 1 -120 32q-55 32 -88 88q-32 57 -32 120t32 120q33 56 88 88q55 31 120 32v0zM256 -39q70 1 128 34v0v0q58 34 94 94q34 61 34 128t-34 128q-36 60 -94 94
q-58 33 -128 34q-70 -1 -128 -34q-58 -34 -94 -94q-34 -61 -34 -128t34 -128q36 -60 94 -94q58 -33 128 -34v0zM323 97q-10 -2 -14 7l-20 48v0q-3 8 4 14l24 20v0q5 5 2 10q-27 57 -84 84q-5 3 -9 -2l-21 -25v0q-5 -6 -13 -3l-48 20v0q-9 4 -7 14l12 44v0q2 8 11 9
q92 -2 153 -63t63 -153q0 -9 -9 -12l-44 -12v0zM294 98q11 -20 33 -16l44 12v0q20 7 21 27q-1 65 -32 117t-83 83t-117 32q-20 -1 -27 -21l-12 -44v0q-4 -22 16 -33l48 -20v0q19 -7 33 8l16 20v0q44 -24 68 -68l-20 -16v0q-15 -14 -8 -33l20 -48v0z" />
</svg>
