<?xml version="1.0" standalone="no"?>
<!DOCTYPE svg PUBLIC "-//W3C//DTD SVG 1.1//EN" "http://www.w3.org/Graphics/SVG/1.1/DTD/svg11.dtd" >
<svg xmlns="http://www.w3.org/2000/svg" xmlns:xlink="http://www.w3.org/1999/xlink" version="1.1" viewBox="-10 -40 522 512">
   <path fill="currentColor"
d="M18 187q12 -83 68 -140v0v0q57 -56 140 -68q12 -1 14 14v192v0q-1 15 -16 16h-192v0q-15 -2 -14 -14v0zM2 185q-1 14 8 23v0v0q8 9 22 9h192v0q14 0 23 -9t9 -23v-192v0q0 -14 -9 -22q-9 -9 -23 -8q-88 12 -149 73t-73 149v0z" />
</svg>
