<?xml version="1.0" standalone="no"?>
<!DOCTYPE svg PUBLIC "-//W3C//DTD SVG 1.1//EN" "http://www.w3.org/Graphics/SVG/1.1/DTD/svg11.dtd" >
<svg xmlns="http://www.w3.org/2000/svg" xmlns:xlink="http://www.w3.org/1999/xlink" version="1.1" viewBox="-10 -40 532 512">
   <path fill="currentColor"
d="M256 -23q65 1 120 32v0v0q55 32 88 88q32 57 32 120t-32 120q-33 56 -88 88q-55 31 -120 32q-65 -1 -120 -32q-55 -32 -88 -88q-32 -57 -32 -120t32 -120q33 -56 88 -88q55 -31 120 -32v0zM256 473q70 -1 128 -34v0v0q58 -34 94 -94q34 -61 34 -128t-34 -128
q-36 -60 -94 -94q-58 -33 -128 -34q-70 1 -128 34q-58 34 -94 94q-34 61 -34 128t34 128q36 60 94 94q58 33 128 34v0zM177 145q5 -23 31 -33q28 -11 69 -5q7 1 17 3q11 2 18 4q7 1 10 -6q1 -7 -6 -10q-7 -1 -18 -4q-11 -2 -19 -3q-43 -6 -76 6q-34 11 -42 45q-3 20 4 35
q8 14 22 23q29 16 65 24h1v0v0l1 1v0q38 8 63 22q11 8 16 17q5 10 2 25q-4 23 -31 33q-28 10 -69 5q-13 -2 -32 -7q-18 -5 -31 -9q-8 -2 -10 5t5 10q13 4 32 9t34 8v0v0q44 6 76 -6q34 -11 42 -45q3 -20 -4 -35q-8 -14 -22 -23q-29 -16 -65 -24h-1l-1 -1v0q-38 -8 -62 -22
q-12 -8 -17 -17q-5 -10 -2 -25v0z" />
</svg>
