<?xml version="1.0" standalone="no"?>
<!DOCTYPE svg PUBLIC "-//W3C//DTD SVG 1.1//EN" "http://www.w3.org/Graphics/SVG/1.1/DTD/svg11.dtd" >
<svg xmlns="http://www.w3.org/2000/svg" xmlns:xlink="http://www.w3.org/1999/xlink" version="1.1" viewBox="-10 -40 340 512">
   <path fill="currentColor"
d="M160 73q39 0 72 19v0v0q33 19 53 53q19 34 19 72t-19 72q-20 34 -53 53t-72 19t-72 -19t-53 -53q-19 -34 -19 -72t19 -72q20 -34 53 -53t72 -19v0zM160 377q43 0 80 -21v0v0q37 -22 59 -59q21 -38 21 -80t-21 -80q-22 -37 -59 -59q-37 -21 -80 -21t-80 21q-37 22 -59 59
q-21 38 -21 80t21 80q22 37 59 59q37 21 80 21v0z" />
</svg>
