<?xml version="1.0" standalone="no"?>
<!DOCTYPE svg PUBLIC "-//W3C//DTD SVG 1.1//EN" "http://www.w3.org/Graphics/SVG/1.1/DTD/svg11.dtd" >
<svg xmlns="http://www.w3.org/2000/svg" xmlns:xlink="http://www.w3.org/1999/xlink" version="1.1" viewBox="-10 -40 532 512">
   <path fill="currentColor"
d="M496 217q-1 -65 -32 -120v0v0q-32 -55 -88 -88q-57 -32 -120 -32t-120 32q-56 33 -88 88q-31 55 -32 120q1 65 32 120q32 55 88 88q57 32 120 32t120 -32q56 -33 88 -88q31 -55 32 -120v0zM0 217q1 -70 34 -128v0v0q34 -58 94 -94q61 -34 128 -34t128 34q60 36 94 94
q33 58 34 128q-1 70 -34 128q-34 58 -94 94q-61 34 -128 34t-128 -34q-60 -36 -94 -94q-33 -58 -34 -128v0zM160 121h8h-8h36l22 -29v0q2 -3 6 -3h64v0q4 0 6 3l22 29v0h12h24q7 1 8 8q-1 7 -8 8h-9v0l-13 178v0q-1 13 -10 21q-9 9 -22 9h-84v0q-13 0 -22 -9q-9 -8 -10 -21
l-13 -178v0h-9v0q-7 -1 -8 -8q1 -7 8 -8v0zM216 121h80h-80h80l-12 -16v0h-56v0l-12 16v0zM327 137h-142h142h-142l13 177v0q2 14 16 15h84v0q14 -1 16 -15l13 -177v0z" />
</svg>
