<?xml version="1.0" standalone="no"?>
<!DOCTYPE svg PUBLIC "-//W3C//DTD SVG 1.1//EN" "http://www.w3.org/Graphics/SVG/1.1/DTD/svg11.dtd" >
<svg xmlns="http://www.w3.org/2000/svg" xmlns:xlink="http://www.w3.org/1999/xlink" version="1.1" viewBox="-10 -40 532 512">
   <path fill="currentColor"
d="M16 153v224v-224v224q1 20 14 34q14 13 34 14h384v0q20 -1 34 -14q13 -14 14 -34v-224v0h-480v0zM355 137h141h-141h141v-80v0q-1 -26 -21 -40l-120 120v0zM333 137l5 -6l-5 6l5 -6l121 -121v0q-5 -1 -11 -1h-117v0l-5 6v0l-123 122v0h130v0zM181 137l5 -6l-5 6l5 -6
l123 -122v0h-130v0l-5 6v0l-123 122v0h130v0zM29 137l5 -6l-5 6l5 -6l123 -122v0h-93v0q-20 1 -34 14q-13 14 -14 34v80v0h13v0zM512 57v80v-80v80v8v0v8v0v224v0q-1 27 -19 45t-45 19h-384v0q-27 -1 -45 -19t-19 -45v-224v0v-8v0v-8v0v-80v0q1 -27 19 -45t45 -19h384v0
q27 1 45 19t19 45v0z" />
</svg>
