<?xml version="1.0" standalone="no"?>
<!DOCTYPE svg PUBLIC "-//W3C//DTD SVG 1.1//EN" "http://www.w3.org/Graphics/SVG/1.1/DTD/svg11.dtd" >
<svg xmlns="http://www.w3.org/2000/svg" xmlns:xlink="http://www.w3.org/1999/xlink" version="1.1" viewBox="-10 -40 660 512">
   <path fill="currentColor"
d="M13 -37q-6 -4 -11 1q-4 6 1 11l624 496v0q6 4 11 -1q4 -6 -1 -11l-624 -496v0zM608 353v-296v296v-296q-1 -27 -19 -45t-45 -19h-391v0l20 16v0h371v0q20 1 34 14q13 14 14 34v283v0l16 13v0zM371 165q23 -27 61 -28q38 1 62 29q5 5 11 1q5 -5 1 -11q-28 -33 -74 -35
q-46 1 -74 35l13 9v0zM48 94l-16 -13l16 13l-16 -13v296v0q1 27 19 45t45 19h392v0l-21 -16v0h-371v0q-20 -1 -34 -14q-13 -14 -14 -34v-283v0zM278 276q-22 20 -54 21q-34 -1 -57 -23q-22 -23 -23 -57q0 -22 10 -39l-12 -10v0q-14 22 -14 49q1 41 28 68t68 28q40 -1 67 -27
l-13 -10v0z" />
</svg>
