<?xml version="1.0" standalone="no"?>
<!DOCTYPE svg PUBLIC "-//W3C//DTD SVG 1.1//EN" "http://www.w3.org/Graphics/SVG/1.1/DTD/svg11.dtd" >
<svg xmlns="http://www.w3.org/2000/svg" xmlns:xlink="http://www.w3.org/1999/xlink" version="1.1" viewBox="-10 -40 468 512">
   <path fill="currentColor"
d="M171 9q-16 0 -27 11v0v0q-11 11 -12 28v4v0q0 13 6 26l45 87v0q2 5 -1 10q-5 3 -10 1l-87 -45v0q-12 -6 -26 -6h-4v0q-17 1 -28 12t-11 27t11 28l20 19v0q5 6 0 12l-20 19v0q-11 12 -11 28t11 27t28 12h4v0q13 0 26 -6l87 -45v0q5 -2 10 1q3 5 1 10l-44 88v0q-7 12 -7 25
v4v0q1 17 12 28t27 11t28 -11l20 -20v0q2 -2 5 -2q4 0 6 2l19 20v0q12 11 28 11q17 0 28 -11t11 -28v-4v0q0 -13 -6 -25l-45 -88v0q-2 -5 2 -10q4 -3 9 -1l88 45v0q12 6 25 6h4v0q17 -1 28 -12t11 -27t-11 -28l-20 -19v0q-2 -3 -2 -6q0 -4 2 -6l20 -19v0q11 -12 11 -28
q0 -17 -11 -28t-28 -11h-4v0q-13 0 -25 6l-87 45v0q-5 2 -9 -2t-2 -9l44 -88v0q6 -12 6 -25v-4v0q-1 -17 -12 -28t-27 -11t-28 11l-19 20v0q-3 2 -6 2t-6 -2l-19 -20v0q-12 -11 -28 -11v0zM171 -7q23 0 39 16l14 14v0l14 -14v0q16 -16 39 -16q23 1 39 16q15 16 16 39v4v0
q0 17 -8 33l-33 66v0l65 -34v0q16 -8 33 -8h4v0q23 1 39 16q16 16 16 39t-16 39l-14 14v0l14 14v0q16 16 16 39q-1 23 -16 39q-16 15 -39 16h-4v0q-17 0 -33 -8l-66 -34v0l34 66v0q8 16 8 33v4v0q-1 23 -16 39q-16 15 -39 16q-23 0 -39 -16l-14 -14v0l-14 14v0
q-16 16 -39 16q-23 -1 -39 -16q-15 -16 -16 -39v-4v0q0 -17 8 -33l34 -66v0l-66 34v0q-16 8 -33 8h-4v0q-23 -1 -39 -16q-15 -16 -16 -39q0 -23 16 -39l14 -14v0l-14 -14v0q-16 -16 -16 -39q1 -23 16 -39q16 -15 39 -16h4v0q17 0 33 8l66 34v0l-34 -66v0q-8 -16 -8 -33v-4v0
q1 -23 16 -39q16 -15 39 -16v0z" />
</svg>
