<?xml version="1.0" standalone="no"?>
<!DOCTYPE svg PUBLIC "-//W3C//DTD SVG 1.1//EN" "http://www.w3.org/Graphics/SVG/1.1/DTD/svg11.dtd" >
<svg xmlns="http://www.w3.org/2000/svg" xmlns:xlink="http://www.w3.org/1999/xlink" version="1.1" viewBox="-13 0 469 512">
   <path fill="currentColor"
d="M390 47v0v0v0q-1 0 -1 -1q-2 7 -5 13q-11 27 -26 54t-32 46q-25 24 -49 39q-25 14 -49 26v0v0h-1q-24 12 -47 26t-46 37q-16 16 -32 42q-15 25 -27 52q-3 5 -5 10l-2 4q49 35 120 26q40 -6 80 -27q41 -21 77 -56q35 -36 56 -77q21 -40 27 -80q11 -82 -38 -134v0zM376 35
q-49 -36 -120 -26q-41 6 -81 26q-41 21 -76 57q-36 35 -57 76q-20 40 -26 81q-11 82 38 134q1 0 1 1q3 -5 5 -10q13 -26 29 -53q16 -28 33 -46q25 -24 49 -39q25 -14 49 -26v0v0v0v0q24 -12 48 -26q23 -14 46 -37q16 -16 30 -42q14 -25 25 -52q3 -8 6 -15q1 -1 1 -3v0z
M401 36q37 38 43 92v0v0q7 54 -16 112v0v0q-22 59 -72 109q-71 69 -152 85q-82 16 -142 -24h-1v0l-12 -10q-4 -3 -6 -6q-37 -38 -44 -92q-6 -55 16 -113q23 -58 72 -109q51 -49 109 -72q59 -22 113 -16q54 7 92 43v1z" />
</svg>
