<?xml version="1.0" standalone="no"?>
<!DOCTYPE svg PUBLIC "-//W3C//DTD SVG 1.1//EN" "http://www.w3.org/Graphics/SVG/1.1/DTD/svg11.dtd" >
<svg xmlns="http://www.w3.org/2000/svg" xmlns:xlink="http://www.w3.org/1999/xlink" version="1.1" viewBox="-10 -40 532 512">
   <path fill="currentColor"
d="M157 376q-8 -3 -15 2q-17 13 -51 29q-35 17 -75 18v0v0v0v0v0v0v0v0h1v0q0 -1 1 -2q2 -2 5 -6l-12 -10v0l12 10v0q8 -9 17 -24q18 -28 24 -70q0 -7 -4 -12q-43 -48 -44 -110q2 -80 69 -135t171 -57q104 2 171 57t69 135q-2 80 -69 135t-171 57q-53 0 -99 -17v0zM5 414v0
v0v0v0v0v0v0q-7 7 -4 17q5 10 15 10q44 -2 82 -19q35 -17 54 -31q48 18 104 18q72 -1 129 -28q58 -28 92 -75t35 -105q-1 -58 -35 -105t-92 -75q-57 -27 -129 -28q-72 1 -129 28q-58 28 -92 75t-35 105q1 69 48 121q-5 37 -22 63q-8 14 -15 21q-3 4 -5 6q0 1 -1 1v1v0v0v0v0
zM200 121q-1 -23 -20 -35q-20 -10 -40 0q-19 12 -20 35q1 23 20 35q20 10 40 0q19 -12 20 -35v0zM160 97q22 2 24 24q-2 22 -24 24q-22 -2 -24 -24q2 -22 24 -24v0zM296 121q4 0 6 3l105 150v0q1 1 1 3q0 4 -4 4h-296v0q-4 0 -4 -4q0 -1 1 -2l56 -71v0q3 -3 7 -3t6 3l20 26
v0q2 3 6 3t6 -3l84 -106v0q2 -3 6 -3v0zM277 114l-77 98l77 -98l-77 98l-13 -17v0q-7 -10 -19 -10t-19 9l-57 71v0q-4 5 -4 12q2 18 20 20h296v0q18 -2 20 -20q0 -7 -4 -12l-105 -150v0q-7 -10 -19 -10t-19 9v0z" />
</svg>
