<?xml version="1.0" standalone="no"?>
<!DOCTYPE svg PUBLIC "-//W3C//DTD SVG 1.1//EN" "http://www.w3.org/Graphics/SVG/1.1/DTD/svg11.dtd" >
<svg xmlns="http://www.w3.org/2000/svg" xmlns:xlink="http://www.w3.org/1999/xlink" version="1.1" viewBox="-10 -40 532 512">
   <path fill="currentColor"
d="M157 376q-8 -3 -15 2q-17 13 -51 29q-35 17 -75 18v0v0v0v0v0v0v0v0h1v0q0 -1 1 -2q2 -2 5 -6l-12 -10v0l12 10v0q8 -9 17 -24q18 -28 24 -70q0 -7 -4 -12q-43 -48 -44 -110q2 -80 69 -135t171 -57q104 2 171 57t69 135q-2 80 -69 135t-171 57q-53 0 -99 -17v0zM5 414v0
v0v0v0v0v0v0q-7 7 -4 17q5 10 15 10q44 -2 82 -19q35 -17 54 -31q48 18 104 18q72 -1 129 -28q58 -28 92 -75t35 -105q-1 -58 -35 -105t-92 -75q-57 -27 -129 -28q-72 1 -129 28q-58 28 -92 75t-35 105q1 69 48 121q-5 37 -22 63q-8 14 -15 21q-3 4 -5 6q0 1 -1 1v1v0v0v0v0
zM208 121q15 1 16 16v24v0v24v0q-1 15 -16 16h-48v0q-15 -1 -16 -16v-48v0q1 -15 16 -16h48v0zM208 217q9 0 16 -4v10v0q0 20 -12 34q-11 15 -30 20l-16 4v0q-7 3 -6 10q3 7 10 6l16 -4v0q24 -7 39 -26t15 -44v-38v0v-24v0v-24v0q0 -14 -9 -23t-23 -9h-48v0q-14 0 -23 9
t-9 23v48v0q0 14 9 23t23 9h48v0zM304 121h48h-48h48q15 1 16 16v24v0v24v0q-1 15 -16 16h-48v0q-15 -1 -16 -16v-48v0q1 -15 16 -16v0zM368 213v10v-10v10q0 20 -12 34q-11 15 -30 20l-16 4v0q-7 3 -6 10q3 7 10 6l16 -4v0q24 -7 39 -26t15 -44v-38v0v-24v0v-24v0
q0 -14 -9 -23t-23 -9h-48v0q-14 0 -23 9t-9 23v48v0q0 14 9 23t23 9h48v0q9 0 16 -4v0z" />
</svg>
