<?xml version="1.0" standalone="no"?>
<!DOCTYPE svg PUBLIC "-//W3C//DTD SVG 1.1//EN" "http://www.w3.org/Graphics/SVG/1.1/DTD/svg11.dtd" >
<svg xmlns="http://www.w3.org/2000/svg" xmlns:xlink="http://www.w3.org/1999/xlink" version="1.1" viewBox="-10 -40 596 512">
   <path fill="currentColor"
d="M355 9q-14 0 -21 13l-78 142v0q-12 20 -35 21h-213v0q-7 -1 -8 -8q1 -7 8 -8h213v0q14 0 21 -12l78 -143v0q12 -20 35 -21h213v0q7 1 8 8q-1 7 -8 8h-213v0zM175 265l94 149l-94 -149l94 149q8 11 21 11h278v0q7 1 8 8q-1 7 -8 8h-278v0q-22 -1 -34 -18l-100 -158v0h-148
v0q-7 -1 -8 -8q1 -7 8 -8h560v0q7 1 8 8q-1 7 -8 8h-393v0z" />
</svg>
