<?xml version="1.0" standalone="no"?>
<!DOCTYPE svg PUBLIC "-//W3C//DTD SVG 1.1//EN" "http://www.w3.org/Graphics/SVG/1.1/DTD/svg11.dtd" >
<svg xmlns="http://www.w3.org/2000/svg" xmlns:xlink="http://www.w3.org/1999/xlink" version="1.1" viewBox="-10 -40 660 512">
   <path fill="currentColor"
d="M224 425q-88 -2 -147 -61v0v0q-59 -59 -61 -147q2 -88 61 -147t147 -61q42 0 78 15q-50 30 -80 80q-29 51 -30 113q1 62 30 113q30 50 80 80q-36 15 -78 15v0zM432 209h-224h224h-224q2 -38 16 -72h192v0q14 34 16 72v0zM416 297v0v0v0h-192v0v0v0q-14 -34 -16 -72h224v0
q-2 38 -16 72v0zM409 313q-31 58 -89 89q-58 -31 -89 -89h178v0zM231 121q31 -58 89 -89q58 31 89 89h-178v0zM224 441q52 0 96 -22q44 22 96 22q63 -1 113 -31q51 -29 80 -80q30 -50 31 -113q-1 -63 -31 -113q-29 -51 -80 -80q-50 -30 -113 -31q-52 0 -96 22
q-44 -22 -96 -22q-63 1 -113 31q-51 29 -80 80q-30 50 -31 113q1 63 31 113q29 51 80 80q50 30 113 31v0zM416 9q88 2 147 61v0v0q59 59 61 147q-2 88 -61 147t-147 61q-42 0 -78 -15q50 -30 80 -80q29 -51 30 -113q-1 -62 -30 -113q-30 -50 -80 -80q36 -15 78 -15v0z" />
</svg>
