<?xml version="1.0" standalone="no"?>
<!DOCTYPE svg PUBLIC "-//W3C//DTD SVG 1.1//EN" "http://www.w3.org/Graphics/SVG/1.1/DTD/svg11.dtd" >
<svg xmlns="http://www.w3.org/2000/svg" xmlns:xlink="http://www.w3.org/1999/xlink" version="1.1" viewBox="-10 -40 596 512">
   <path fill="currentColor"
d="M272 -7q1 -15 16 -16q15 1 16 16q-1 15 -16 16q-15 -1 -16 -16v0zM320 -7q0 -14 -9 -23v0v0q-9 -9 -23 -9t-23 9t-9 23t9 23t23 9t23 -9t9 -23v0zM186 147q43 -41 98 -42v0v0q56 -1 100 37l-102 101v0q-4 6 0 12q6 4 12 0l101 -102v0q38 44 37 100q-1 55 -42 98
q-45 42 -102 42t-102 -42q-42 -45 -42 -102t42 -102v0zM401 136q-31 -31 -72 -43v0v0q-41 -11 -83 0q-43 11 -73 41t-41 73q-11 42 0 83q12 41 43 72q31 32 72 44t84 1q43 -12 73 -42t42 -73q11 -43 -1 -84t-44 -72v0zM544 233q15 1 16 16q-1 15 -16 16q-15 -1 -16 -16
q1 -15 16 -16v0zM544 281q14 0 23 -9v0v0q9 -9 9 -23t-9 -23t-23 -9t-23 9t-9 23t9 23t23 9v0zM16 249q1 -15 16 -16q15 1 16 16q-1 15 -16 16q-15 -1 -16 -16v0zM64 249q0 -14 -9 -23v0v0q-9 -9 -23 -9t-23 9t-9 23t9 23t23 9t23 -9t9 -23v0zM96 41q15 1 16 16
q-1 15 -16 16q-15 -1 -16 -16q1 -15 16 -16v0zM96 89q14 0 23 -9v0v0q9 -9 9 -23t-9 -23t-23 -9t-23 9t-9 23t9 23t23 9v0zM464 57q1 -15 16 -16q15 1 16 16q-1 15 -16 16q-15 -1 -16 -16v0zM512 57q0 -14 -9 -23v0v0q-9 -9 -23 -9t-23 9t-9 23t9 23t23 9t23 -9t9 -23v0z
M96 425q15 1 16 16q-1 15 -16 16q-15 -1 -16 -16q1 -15 16 -16v0zM96 473q14 0 23 -9v0v0q9 -9 9 -23t-9 -23t-23 -9t-23 9t-9 23t9 23t23 9v0zM464 441q1 -15 16 -16q15 1 16 16q-1 15 -16 16q-15 -1 -16 -16v0zM512 441q0 -14 -9 -23v0v0q-9 -9 -23 -9t-23 9t-9 23t9 23
t23 9t23 -9t9 -23v0z" />
</svg>
