<?xml version="1.0" standalone="no"?>
<!DOCTYPE svg PUBLIC "-//W3C//DTD SVG 1.1//EN" "http://www.w3.org/Graphics/SVG/1.1/DTD/svg11.dtd" >
<svg xmlns="http://www.w3.org/2000/svg" xmlns:xlink="http://www.w3.org/1999/xlink" version="1.1" viewBox="-10 -40 596 512">
   <path fill="currentColor"
d="M272 -7q1 -15 16 -16q15 1 16 16q-1 15 -16 16q-15 -1 -16 -16v0zM320 -7q0 -14 -9 -23v0v0q-9 -9 -23 -9t-23 9t-9 23t9 23t23 9t23 -9t9 -23v0zM288 257h144h-144h144q-5 58 -45 96q-40 39 -99 40q-61 -2 -102 -42q-40 -41 -42 -102q2 -61 42 -102q41 -40 102 -42
q59 1 99 40q40 38 45 96h-144v0q-7 1 -8 8q1 7 8 8v0zM448 249q0 -43 -21 -80v0v0q-22 -37 -59 -59q-38 -21 -80 -21t-80 21q-37 22 -59 59q-21 37 -21 80t21 80q22 37 59 59q38 21 80 21t80 -21q37 -22 59 -59q21 -37 21 -80v0zM544 233q15 1 16 16q-1 15 -16 16
q-15 -1 -16 -16q1 -15 16 -16v0zM544 281q14 0 23 -9v0v0q9 -9 9 -23t-9 -23t-23 -9t-23 9t-9 23t9 23t23 9v0zM16 249q1 -15 16 -16q15 1 16 16q-1 15 -16 16q-15 -1 -16 -16v0zM64 249q0 -14 -9 -23v0v0q-9 -9 -23 -9t-23 9t-9 23t9 23t23 9t23 -9t9 -23v0zM96 41
q15 1 16 16q-1 15 -16 16q-15 -1 -16 -16q1 -15 16 -16v0zM96 89q14 0 23 -9v0v0q9 -9 9 -23t-9 -23t-23 -9t-23 9t-9 23t9 23t23 9v0zM464 57q1 -15 16 -16q15 1 16 16q-1 15 -16 16q-15 -1 -16 -16v0zM512 57q0 -14 -9 -23v0v0q-9 -9 -23 -9t-23 9t-9 23t9 23t23 9t23 -9
t9 -23v0zM96 425q15 1 16 16q-1 15 -16 16q-15 -1 -16 -16q1 -15 16 -16v0zM96 473q14 0 23 -9v0v0q9 -9 9 -23t-9 -23t-23 -9t-23 9t-9 23t9 23t23 9v0zM464 441q1 -15 16 -16q15 1 16 16q-1 15 -16 16q-15 -1 -16 -16v0zM512 441q0 -14 -9 -23v0v0q-9 -9 -23 -9t-23 9
t-9 23t9 23t23 9t23 -9t9 -23v0z" />
</svg>
