<?xml version="1.0" standalone="no"?>
<!DOCTYPE svg PUBLIC "-//W3C//DTD SVG 1.1//EN" "http://www.w3.org/Graphics/SVG/1.1/DTD/svg11.dtd" >
<svg xmlns="http://www.w3.org/2000/svg" xmlns:xlink="http://www.w3.org/1999/xlink" version="1.1" viewBox="-10 -40 596 512">
   <path fill="currentColor"
d="M272 -7q1 -15 16 -16q15 1 16 16q-1 15 -16 16q-15 -1 -16 -16v0zM320 -7q0 -14 -9 -23v0v0q-9 -9 -23 -9t-23 9t-9 23t9 23t23 9t23 -9t9 -23v0zM186 147h1h-1h1l-1 1v0v-1v0zM186 351q-41 -43 -42 -98v0v0q-1 -56 37 -100l101 102v0q6 4 12 0q4 -6 0 -12l-102 -101v0
q44 -38 100 -37q55 1 98 42q42 45 42 102t-42 102q-45 42 -102 42t-102 -42v0zM175 136q-31 31 -43 72v0v0q-11 41 0 83q11 43 41 73t73 41q42 11 83 0q41 -12 72 -43q32 -31 44 -72t1 -84q-12 -43 -42 -73t-73 -42q-43 -11 -84 1t-72 44v0zM544 233q15 1 16 16
q-1 15 -16 16q-15 -1 -16 -16q1 -15 16 -16v0zM544 281q14 0 23 -9v0v0q9 -9 9 -23t-9 -23t-23 -9t-23 9t-9 23t9 23t23 9v0zM16 249q1 -15 16 -16q15 1 16 16q-1 15 -16 16q-15 -1 -16 -16v0zM64 249q0 -14 -9 -23v0v0q-9 -9 -23 -9t-23 9t-9 23t9 23t23 9t23 -9t9 -23v0z
M96 41q15 1 16 16q-1 15 -16 16q-15 -1 -16 -16q1 -15 16 -16v0zM96 89q14 0 23 -9v0v0q9 -9 9 -23t-9 -23t-23 -9t-23 9t-9 23t9 23t23 9v0zM464 57q1 -15 16 -16q15 1 16 16q-1 15 -16 16q-15 -1 -16 -16v0zM512 57q0 -14 -9 -23v0v0q-9 -9 -23 -9t-23 9t-9 23t9 23t23 9
t23 -9t9 -23v0zM96 425q15 1 16 16q-1 15 -16 16q-15 -1 -16 -16q1 -15 16 -16v0zM96 473q14 0 23 -9v0v0q9 -9 9 -23t-9 -23t-23 -9t-23 9t-9 23t9 23t23 9v0zM464 441q1 -15 16 -16q15 1 16 16q-1 15 -16 16q-15 -1 -16 -16v0zM512 441q0 -14 -9 -23v0v0q-9 -9 -23 -9
t-23 9t-9 23t9 23t23 9t23 -9t9 -23v0z" />
</svg>
