<?xml version="1.0" standalone="no"?>
<!DOCTYPE svg PUBLIC "-//W3C//DTD SVG 1.1//EN" "http://www.w3.org/Graphics/SVG/1.1/DTD/svg11.dtd" >
<svg xmlns="http://www.w3.org/2000/svg" xmlns:xlink="http://www.w3.org/1999/xlink" version="1.1" viewBox="-10 -40 532 512">
   <path fill="currentColor"
d="M510 -25q4 -6 0 -12q-6 -4 -12 0l-37 38v0q-19 -16 -45 -16h-112v0q-22 2 -24 24v6v0q0 16 11 27t28 11h10v0q11 1 12 12q1 28 20 47t47 20q10 1 12 11v11v0q0 17 11 28q11 10 27 11h6v0q22 -2 24 -24v-112v0q0 -26 -16 -45l38 -37v0zM304 1h112h-112h112q24 1 40 16
q15 16 16 40v112v0q-1 7 -8 8h-6v0q-20 -2 -22 -22v-11v0q-1 -12 -8 -20q-8 -8 -20 -8q-22 -1 -36 -15t-15 -36q0 -12 -8 -20q-8 -7 -19 -8h-11v0q-21 -2 -23 -22v-6v0q1 -7 8 -8v0zM170 100h1v0v0q50 -23 94 -52q3 7 8 13q-15 11 -31 20q-31 18 -65 34h-1v0v0v0v0v0v0
q-22 11 -41 21q-53 25 -86 62q-32 35 -33 99q3 67 48 112q45 46 112 48q56 -1 104 -34t86 -86q42 -60 68 -125q8 3 16 4q-25 63 -64 121q-40 58 -93 97q-52 38 -117 39q-74 -2 -123 -52q-50 -50 -53 -124q0 -56 24 -92t63 -60t83 -45v0v0z" />
</svg>
