<?xml version="1.0" standalone="no"?>
<!DOCTYPE svg PUBLIC "-//W3C//DTD SVG 1.1//EN" "http://www.w3.org/Graphics/SVG/1.1/DTD/svg11.dtd" >
<svg xmlns="http://www.w3.org/2000/svg" xmlns:xlink="http://www.w3.org/1999/xlink" version="1.1" viewBox="-10 -40 532 512">
   <path fill="currentColor"
d="M302 -36l66 73l-66 -73l66 73l66 -73v0q6 -5 11 -1q5 5 1 11l-72 80v0q-2 3 -6 3t-6 -3l-72 -80v0q-4 -5 1 -11q6 -4 11 1v0zM150 -36l72 80l-72 -80l72 80q4 5 -1 11q-6 4 -11 -1l-66 -73v0l-66 73v0q-6 5 -11 1q-5 -5 -1 -11l72 -80v0q2 -3 6 -3t6 3v0zM64 105
q-20 1 -34 14v0v0q-13 14 -14 34v256v0q1 20 14 34q14 13 34 14h384v0q20 -1 34 -14q13 -14 14 -34v-256v0q-1 -20 -14 -34q-14 -13 -34 -14h-384v0zM0 153q1 -27 19 -45v0v0q18 -18 45 -19h384v0q27 1 45 19t19 45v256v0q-1 27 -19 45t-45 19h-384v0q-27 -1 -45 -19
t-19 -45v-256v0zM200 225q-1 -23 -20 -35q-20 -10 -40 0q-19 12 -20 35q1 23 20 35q20 10 40 0q19 -12 20 -35v0zM104 225q1 -32 28 -48q28 -16 56 0q27 16 28 48q-1 32 -28 48q-28 16 -56 0q-27 -16 -28 -48v0zM352 265q23 -1 35 -20q10 -20 0 -40q-12 -19 -35 -20
q-23 1 -35 20q-10 20 0 40q12 19 35 20v0zM352 169q32 1 48 28q16 28 0 56q-16 27 -48 28q-32 -1 -48 -28q-16 -28 0 -56q16 -27 48 -28v0zM136 329q-17 0 -28 12v0v0q-12 11 -12 28v32v0q-1 7 -8 8q-7 -1 -8 -8v-32v0q1 -24 16 -40q16 -15 40 -16h48v0q24 1 40 16
q15 16 16 40v32v0q-1 7 -8 8q-7 -1 -8 -8v-32v0q0 -17 -12 -28q-11 -12 -28 -12h-48v0zM288 369v32v-32v32q-1 7 -8 8q-7 -1 -8 -8v-32v0q1 -24 16 -40q16 -15 40 -16h48v0q24 1 40 16q15 16 16 40v32v0q-1 7 -8 8q-7 -1 -8 -8v-32v0q0 -17 -12 -28q-11 -12 -28 -12h-48v0
q-17 0 -28 12q-12 11 -12 28v0z" />
</svg>
