<?xml version="1.0" standalone="no"?>
<!DOCTYPE svg PUBLIC "-//W3C//DTD SVG 1.1//EN" "http://www.w3.org/Graphics/SVG/1.1/DTD/svg11.dtd" >
<svg xmlns="http://www.w3.org/2000/svg" xmlns:xlink="http://www.w3.org/1999/xlink" version="1.1" viewBox="-10 -40 660 512">
   <path fill="currentColor"
d="M416 33q-1 7 -8 8h-96v0v48v0h24h61q19 0 35 11l52 34v0q27 20 28 53v158v0q-1 27 -19 45t-45 19h-169v0q-23 0 -41 -15l-59 -49v0h-67v0q-20 -1 -34 -14q-13 -14 -14 -34v-72v0h-48v0v80v0q-1 7 -8 8q-7 -1 -8 -8v-176v0q1 -7 8 -8q7 1 8 8v80v0h48v0v-72v0
q1 -20 14 -34q14 -13 34 -14h48h136v-48v0h-96v0q-7 -1 -8 -8q1 -7 8 -8h104h104q7 1 8 8v0zM80 209v16v-16v16v72v0q0 14 9 23t23 9h67v0q6 0 10 4l59 49v0q14 11 31 11h169v0q20 -1 34 -14q13 -14 14 -34v-158v0q-1 -25 -21 -40l-52 -34v0q-12 -8 -26 -8h-61h-224
q-14 0 -23 9t-9 23v72v0zM256 217q0 -14 9 -23v0v0q9 -9 23 -9t23 9t9 23t-9 23t-23 9t-23 -9t-9 -23v0zM288 233q15 -1 16 -16q-1 -15 -16 -16q-15 1 -16 16q1 15 16 16v0zM384 185q14 0 23 9v0v0q9 9 9 23t-9 23t-23 9t-23 -9t-9 -23t9 -23t23 -9v0zM400 217
q-1 -15 -16 -16q-15 1 -16 16q1 15 16 16q15 -1 16 -16v0zM160 217q0 -14 9 -23v0v0q9 -9 23 -9t23 9t9 23t-9 23t-23 9t-23 -9t-9 -23v0zM192 233q15 -1 16 -16q-1 -15 -16 -16q-15 1 -16 16q1 15 16 16v0zM576 169q-15 1 -16 16v192v0q1 15 16 16h32v0q15 -1 16 -16v-192
v0q-1 -15 -16 -16h-32v0zM544 185q0 -14 9 -23v0v0q9 -9 23 -9h32v0q14 0 23 9t9 23v192v0q0 14 -9 23t-23 9h-32v0q-14 0 -23 -9t-9 -23v-192v0z" />
</svg>
