<?xml version="1.0" standalone="no"?>
<!DOCTYPE svg PUBLIC "-//W3C//DTD SVG 1.1//EN" "http://www.w3.org/Graphics/SVG/1.1/DTD/svg11.dtd" >
<svg xmlns="http://www.w3.org/2000/svg" xmlns:xlink="http://www.w3.org/1999/xlink" version="1.1" viewBox="-10 -40 660 512">
   <path fill="currentColor"
d="M13 -37q-6 -4 -11 1q-4 6 1 11l624 496v0q6 4 11 -1q4 -6 -1 -11l-624 -496v0zM568 54q8 -10 8 -23q0 -16 -11 -27t-27 -11h-385v0l20 16v0h365v0q20 2 22 22q0 7 -5 13l-131 164v0l13 10v0l131 -164v0zM368 347v68v-68v68q-1 9 -10 10q-3 0 -6 -2l-70 -51v0
q-10 -7 -10 -19v-82v0l-16 -13v0v95v0q0 20 17 32l70 51v0q6 5 15 5q24 -2 26 -26v-56v0l-16 -12v0z" />
</svg>
