<?xml version="1.0" standalone="no"?>
<!DOCTYPE svg PUBLIC "-//W3C//DTD SVG 1.1//EN" "http://www.w3.org/Graphics/SVG/1.1/DTD/svg11.dtd" >
<svg xmlns="http://www.w3.org/2000/svg" xmlns:xlink="http://www.w3.org/1999/xlink" version="1.1" viewBox="-10 -40 404 512">
   <path fill="currentColor"
d="M323 -7q-22 0 -40 12v0v0q-18 12 -27 33l-66 163v0h-150v0q-7 1 -8 8q1 7 8 8h143v0l-70 173v0q-16 33 -52 35h-53v0q-7 1 -8 8q1 7 8 8h53v0q22 0 40 -12t27 -33l73 -179v0h143v0q7 -1 8 -8q-1 -7 -8 -8h-137v0l64 -157v0q16 -33 52 -35h53v0q7 -1 8 -8q-1 -7 -8 -8h-53
v0z" />
</svg>
