<?xml version="1.0" standalone="no"?>
<!DOCTYPE svg PUBLIC "-//W3C//DTD SVG 1.1//EN" "http://www.w3.org/Graphics/SVG/1.1/DTD/svg11.dtd" >
<svg xmlns="http://www.w3.org/2000/svg" xmlns:xlink="http://www.w3.org/1999/xlink" version="1.1" viewBox="-10 -40 532 512">
   <path fill="currentColor"
d="M448 425h-384h384h-384q-20 -1 -34 -14q-13 -14 -14 -34v-224v0h480v0v224v0q-1 20 -14 34q-14 13 -34 14v0zM496 137h-480h480h-480v-80v0q1 -20 14 -34q14 -13 34 -14h134v0q19 0 33 14l36 36v0q14 14 34 14h147v0q20 1 34 14q13 14 14 34v16v0zM64 441h384h-384h384
q27 -1 45 -19t19 -45v-256v0q-1 -27 -19 -45t-45 -19h-147v0q-13 0 -22 -9l-36 -36v0q-19 -19 -46 -19h-133v0q-27 1 -45 19t-19 45v320v0q1 27 19 45t45 19v0z" />
</svg>
