<?xml version="1.0" standalone="no"?>
<!DOCTYPE svg PUBLIC "-//W3C//DTD SVG 1.1//EN" "http://www.w3.org/Graphics/SVG/1.1/DTD/svg11.dtd" >
<svg xmlns="http://www.w3.org/2000/svg" xmlns:xlink="http://www.w3.org/1999/xlink" version="1.1" viewBox="-10 -40 532 512">
   <path fill="currentColor"
d="M496 377q-1 20 -14 34v0v0q-14 13 -34 14h-384v0q-20 -1 -34 -14q-13 -14 -14 -34v-320v0q1 -20 14 -34q14 -13 34 -14h134v0q19 0 33 14l36 36v0q14 14 34 14h147v0q20 1 34 14q13 14 14 34v256v0zM64 441h384h-384h384q27 -1 45 -19t19 -45v-256v0q-1 -27 -19 -45
t-45 -19h-147v0q-13 0 -22 -9l-36 -36v0q-19 -19 -46 -19h-133v0q-27 1 -45 19t-19 45v320v0q1 27 19 45t45 19v0zM256 137q27 1 42 24q12 24 0 48q-15 23 -42 24q-27 -1 -42 -24q-12 -24 0 -48q15 -23 42 -24v0zM256 249q36 -1 55 -32q18 -32 0 -64q-19 -31 -55 -32
q-36 1 -55 32q-18 32 0 64q19 31 55 32v0zM216 297h80h-80h80q24 1 40 16q15 16 16 40q-1 7 -8 8h-176v0q-7 -1 -8 -8q1 -24 16 -40q16 -15 40 -16v0zM144 353q2 22 24 24h176v0q22 -2 24 -24q-1 -31 -21 -51t-51 -21h-80v0q-31 1 -51 21t-21 51v0z" />
</svg>
