<?xml version="1.0" standalone="no"?>
<!DOCTYPE svg PUBLIC "-//W3C//DTD SVG 1.1//EN" "http://www.w3.org/Graphics/SVG/1.1/DTD/svg11.dtd" >
<svg xmlns="http://www.w3.org/2000/svg" xmlns:xlink="http://www.w3.org/1999/xlink" version="1.1" viewBox="-10 -40 468 512">
   <path fill="currentColor"
d="M88 9q22 2 24 24v48v0q-2 22 -24 24h-48v0q-22 -2 -24 -24v-48v0q2 -22 24 -24h48v0zM40 -7q-17 0 -28 12v0v0q-12 11 -12 28v48v0q0 17 12 28q11 12 28 12h48v0q17 0 28 -12q12 -11 12 -28v-48v0q0 -17 -12 -28q-11 -12 -28 -12h-48v0zM88 169q22 2 24 24v48v0
q-2 22 -24 24h-48v0q-22 -2 -24 -24v-48v0q2 -22 24 -24h48v0zM40 153q-17 0 -28 12v0v0q-12 11 -12 28v48v0q0 17 12 28q11 12 28 12h48v0q17 0 28 -12q12 -11 12 -28v-48v0q0 -17 -12 -28q-11 -12 -28 -12h-48v0zM40 329h48h-48h48q22 2 24 24v48v0q-2 22 -24 24h-48v0
q-22 -2 -24 -24v-48v0q2 -22 24 -24v0zM0 353v48v-48v48q0 17 12 28q11 12 28 12h48v0q17 0 28 -12q12 -11 12 -28v-48v0q0 -17 -12 -28q-11 -12 -28 -12h-48v0q-17 0 -28 12q-12 11 -12 28v0zM248 9q22 2 24 24v48v0q-2 22 -24 24h-48v0q-22 -2 -24 -24v-48v0q2 -22 24 -24
h48v0zM200 -7q-17 0 -28 12v0v0q-12 11 -12 28v48v0q0 17 12 28q11 12 28 12h48v0q17 0 28 -12q12 -11 12 -28v-48v0q0 -17 -12 -28q-11 -12 -28 -12h-48v0zM200 169h48h-48h48q22 2 24 24v48v0q-2 22 -24 24h-48v0q-22 -2 -24 -24v-48v0q2 -22 24 -24v0zM160 193v48v-48v48
q0 17 12 28q11 12 28 12h48v0q17 0 28 -12q12 -11 12 -28v-48v0q0 -17 -12 -28q-11 -12 -28 -12h-48v0q-17 0 -28 12q-12 11 -12 28v0zM248 329q22 2 24 24v48v0q-2 22 -24 24h-48v0q-22 -2 -24 -24v-48v0q2 -22 24 -24h48v0zM200 313q-17 0 -28 12v0v0q-12 11 -12 28v48v0
q0 17 12 28q11 12 28 12h48v0q17 0 28 -12q12 -11 12 -28v-48v0q0 -17 -12 -28q-11 -12 -28 -12h-48v0zM360 9h48h-48h48q22 2 24 24v48v0q-2 22 -24 24h-48v0q-22 -2 -24 -24v-48v0q2 -22 24 -24v0zM320 33v48v-48v48q0 17 12 28q11 12 28 12h48v0q17 0 28 -12
q12 -11 12 -28v-48v0q0 -17 -12 -28q-11 -12 -28 -12h-48v0q-17 0 -28 12q-12 11 -12 28v0zM408 169q22 2 24 24v48v0q-2 22 -24 24h-48v0q-22 -2 -24 -24v-48v0q2 -22 24 -24h48v0zM360 153q-17 0 -28 12v0v0q-12 11 -12 28v48v0q0 17 12 28q11 12 28 12h48v0q17 0 28 -12
q12 -11 12 -28v-48v0q0 -17 -12 -28q-11 -12 -28 -12h-48v0zM360 329h48h-48h48q22 2 24 24v48v0q-2 22 -24 24h-48v0q-22 -2 -24 -24v-48v0q2 -22 24 -24v0zM320 353v48v-48v48q0 17 12 28q11 12 28 12h48v0q17 0 28 -12q12 -11 12 -28v-48v0q0 -17 -12 -28
q-11 -12 -28 -12h-48v0q-17 0 -28 12q-12 11 -12 28v0z" />
</svg>
