<?xml version="1.0" standalone="no"?>
<!DOCTYPE svg PUBLIC "-//W3C//DTD SVG 1.1//EN" "http://www.w3.org/Graphics/SVG/1.1/DTD/svg11.dtd" >
<svg xmlns="http://www.w3.org/2000/svg" xmlns:xlink="http://www.w3.org/1999/xlink" version="1.1" viewBox="-10 -40 468 512">
   <path fill="currentColor"
d="M48 6q3 0 3 3v32v0q0 3 -3 3h-32v0q-3 0 -3 -3v-32v0q0 -3 3 -3h32v0zM16 -7q-15 1 -16 16v32v0q1 15 16 16h32v0q15 -1 16 -16v-32v0q-1 -15 -16 -16h-32v0zM48 102q3 0 3 3v32v0q0 3 -3 3h-32v0q-3 0 -3 -3v-32v0q0 -3 3 -3h32v0zM16 89q-15 1 -16 16v32v0q1 15 16 16
h32v0q15 -1 16 -16v-32v0q-1 -15 -16 -16h-32v0zM16 198h32h-32h32q3 0 3 3v32v0q0 3 -3 3h-32v0q-3 0 -3 -3v-32v0q0 -3 3 -3v0zM0 201v32v-32v32q1 15 16 16h32v0q15 -1 16 -16v-32v0q-1 -15 -16 -16h-32v0q-15 1 -16 16v0zM48 294q3 0 3 3v32v0q0 3 -3 3h-32v0
q-3 0 -3 -3v-32v0q0 -3 3 -3h32v0zM16 281q-15 1 -16 16v32v0q1 15 16 16h32v0q15 -1 16 -16v-32v0q-1 -15 -16 -16h-32v0zM16 390h32h-32h32q3 0 3 3v32v0q0 3 -3 3h-32v0q-3 0 -3 -3v-32v0q0 -3 3 -3v0zM0 393v32v-32v32q1 15 16 16h32v0q15 -1 16 -16v-32v0
q-1 -15 -16 -16h-32v0q-15 1 -16 16v0zM144 6q3 0 3 3v32v0q0 3 -3 3h-32v0q-3 0 -3 -3v-32v0q0 -3 3 -3h32v0zM112 -7q-15 1 -16 16v32v0q1 15 16 16h32v0q15 -1 16 -16v-32v0q-1 -15 -16 -16h-32v0zM112 102h32h-32h32q3 0 3 3v32v0q0 3 -3 3h-32v0q-3 0 -3 -3v-32v0
q0 -3 3 -3v0zM96 105v32v-32v32q1 15 16 16h32v0q15 -1 16 -16v-32v0q-1 -15 -16 -16h-32v0q-15 1 -16 16v0zM144 198q3 0 3 3v32v0q0 3 -3 3h-32v0q-3 0 -3 -3v-32v0q0 -3 3 -3h32v0zM112 185q-15 1 -16 16v32v0q1 15 16 16h32v0q15 -1 16 -16v-32v0q-1 -15 -16 -16h-32v0z
M112 294h32h-32h32q3 0 3 3v32v0q0 3 -3 3h-32v0q-3 0 -3 -3v-32v0q0 -3 3 -3v0zM96 297v32v-32v32q1 15 16 16h32v0q15 -1 16 -16v-32v0q-1 -15 -16 -16h-32v0q-15 1 -16 16v0zM144 390q3 0 3 3v32v0q0 3 -3 3h-32v0q-3 0 -3 -3v-32v0q0 -3 3 -3h32v0zM112 377
q-15 1 -16 16v32v0q1 15 16 16h32v0q15 -1 16 -16v-32v0q-1 -15 -16 -16h-32v0zM208 6h32h-32h32q3 0 3 3v32v0q0 3 -3 3h-32v0q-3 0 -3 -3v-32v0q0 -3 3 -3v0zM192 9v32v-32v32q1 15 16 16h32v0q15 -1 16 -16v-32v0q-1 -15 -16 -16h-32v0q-15 1 -16 16v0zM240 102q3 0 3 3
v32v0q0 3 -3 3h-32v0q-3 0 -3 -3v-32v0q0 -3 3 -3h32v0zM208 89q-15 1 -16 16v32v0q1 15 16 16h32v0q15 -1 16 -16v-32v0q-1 -15 -16 -16h-32v0zM208 198h32h-32h32q3 0 3 3v32v0q0 3 -3 3h-32v0q-3 0 -3 -3v-32v0q0 -3 3 -3v0zM192 201v32v-32v32q1 15 16 16h32v0
q15 -1 16 -16v-32v0q-1 -15 -16 -16h-32v0q-15 1 -16 16v0zM240 294q3 0 3 3v32v0q0 3 -3 3h-32v0q-3 0 -3 -3v-32v0q0 -3 3 -3h32v0zM208 281q-15 1 -16 16v32v0q1 15 16 16h32v0q15 -1 16 -16v-32v0q-1 -15 -16 -16h-32v0zM208 390h32h-32h32q3 0 3 3v32v0q0 3 -3 3h-32v0
q-3 0 -3 -3v-32v0q0 -3 3 -3v0zM192 393v32v-32v32q1 15 16 16h32v0q15 -1 16 -16v-32v0q-1 -15 -16 -16h-32v0q-15 1 -16 16v0zM336 6q3 0 3 3v32v0q0 3 -3 3h-32v0q-3 0 -3 -3v-32v0q0 -3 3 -3h32v0zM304 -7q-15 1 -16 16v32v0q1 15 16 16h32v0q15 -1 16 -16v-32v0
q-1 -15 -16 -16h-32v0zM304 102h32h-32h32q3 0 3 3v32v0q0 3 -3 3h-32v0q-3 0 -3 -3v-32v0q0 -3 3 -3v0zM288 105v32v-32v32q1 15 16 16h32v0q15 -1 16 -16v-32v0q-1 -15 -16 -16h-32v0q-15 1 -16 16v0zM336 198q3 0 3 3v32v0q0 3 -3 3h-32v0q-3 0 -3 -3v-32v0q0 -3 3 -3h32
v0zM304 185q-15 1 -16 16v32v0q1 15 16 16h32v0q15 -1 16 -16v-32v0q-1 -15 -16 -16h-32v0zM304 294h32h-32h32q3 0 3 3v32v0q0 3 -3 3h-32v0q-3 0 -3 -3v-32v0q0 -3 3 -3v0zM288 297v32v-32v32q1 15 16 16h32v0q15 -1 16 -16v-32v0q-1 -15 -16 -16h-32v0q-15 1 -16 16v0z
M336 390q3 0 3 3v32v0q0 3 -3 3h-32v0q-3 0 -3 -3v-32v0q0 -3 3 -3h32v0zM304 377q-15 1 -16 16v32v0q1 15 16 16h32v0q15 -1 16 -16v-32v0q-1 -15 -16 -16h-32v0zM400 6h32h-32h32q3 0 3 3v32v0q0 3 -3 3h-32v0q-3 0 -3 -3v-32v0q0 -3 3 -3v0zM384 9v32v-32v32q1 15 16 16
h32v0q15 -1 16 -16v-32v0q-1 -15 -16 -16h-32v0q-15 1 -16 16v0zM432 102q3 0 3 3v32v0q0 3 -3 3h-32v0q-3 0 -3 -3v-32v0q0 -3 3 -3h32v0zM400 89q-15 1 -16 16v32v0q1 15 16 16h32v0q15 -1 16 -16v-32v0q-1 -15 -16 -16h-32v0zM400 198h32h-32h32q3 0 3 3v32v0q0 3 -3 3
h-32v0q-3 0 -3 -3v-32v0q0 -3 3 -3v0zM384 201v32v-32v32q1 15 16 16h32v0q15 -1 16 -16v-32v0q-1 -15 -16 -16h-32v0q-15 1 -16 16v0zM432 294q3 0 3 3v32v0q0 3 -3 3h-32v0q-3 0 -3 -3v-32v0q0 -3 3 -3h32v0zM400 281q-15 1 -16 16v32v0q1 15 16 16h32v0q15 -1 16 -16v-32
v0q-1 -15 -16 -16h-32v0zM400 390h32h-32h32q3 0 3 3v32v0q0 3 -3 3h-32v0q-3 0 -3 -3v-32v0q0 -3 3 -3v0zM384 393v32v-32v32q1 15 16 16h32v0q15 -1 16 -16v-32v0q-1 -15 -16 -16h-32v0q-15 1 -16 16v0z" />
</svg>
