<?xml version="1.0" standalone="no"?>
<!DOCTYPE svg PUBLIC "-//W3C//DTD SVG 1.1//EN" "http://www.w3.org/Graphics/SVG/1.1/DTD/svg11.dtd" >
<svg xmlns="http://www.w3.org/2000/svg" xmlns:xlink="http://www.w3.org/1999/xlink" version="1.1" viewBox="-10 -40 532 512">
   <path fill="currentColor"
d="M0 133q1 -22 15 -37v0v0q15 -14 37 -15h188h10q5 -9 12 -17l25 -29v0q22 -25 55 -26h24v0q37 0 68 18t50 51l10 18v0q18 31 18 67v142v0q-1 44 -30 74q-30 29 -74 30h-16h-88h-2q-23 -3 -38 -20q-15 -16 -16 -40q0 -5 1 -10q-31 -17 -33 -54q0 -9 3 -18q-33 -16 -35 -54
q0 -15 7 -28h-139v0q-22 -1 -37 -15q-14 -15 -15 -37v0zM269 81h75h-75h75q7 1 8 8q-1 7 -8 8h-90h-202q-15 0 -25 11q-11 10 -11 25t11 25q10 11 25 11h155v0q5 0 7 5t-2 9q-11 12 -12 30q2 32 31 42q4 1 5 5q2 3 0 6q-4 9 -4 19q2 30 29 41q7 4 5 10t-2 13q1 18 12 30
t29 14v0h1h2h100q38 -1 62 -26q25 -25 26 -62v-142v0q0 -32 -16 -59l-10 -18v0q-17 -29 -44 -45q-28 -16 -60 -16h-24v0q-26 1 -43 20l-25 29v0q-3 3 -5 7v0z" />
</svg>
