<?xml version="1.0" standalone="no"?>
<!DOCTYPE svg PUBLIC "-//W3C//DTD SVG 1.1//EN" "http://www.w3.org/Graphics/SVG/1.1/DTD/svg11.dtd" >
<svg xmlns="http://www.w3.org/2000/svg" xmlns:xlink="http://www.w3.org/1999/xlink" version="1.1" viewBox="-10 -40 404 512">
   <path fill="currentColor"
d="M158 -5l-90 222l90 -222l-90 222h4h59v0l81 -200v0q5 -15 -3 -27t-24 -13q-19 1 -27 18v0zM227 23l-79 194l79 -194l-79 194h28v0q19 0 32 12v-36v0q1 -20 14 -34q14 -13 34 -14q33 2 45 31q14 -14 35 -15q20 1 34 14q13 14 14 34v32v0v24v0v56v0q-2 65 -45 107
q-42 43 -107 45h-80v0q-65 -2 -107 -45q-43 -42 -45 -107v-32v0q0 -24 14 -42q13 -19 35 -26l22 -55v0l-52 -144v0q-7 -23 5 -42q13 -18 38 -19q31 1 43 30l18 49v0l20 -51v0q13 -27 42 -28q25 1 37 20q13 19 5 42v0zM114 62l-1 -2l1 2l-1 -2l-23 -64v0q-8 -18 -28 -19
q-16 1 -24 13q-9 12 -4 27l46 127v0l34 -82v0zM176 313h-72h72h-72q-7 -1 -8 -8q1 -7 8 -8h72v0q14 0 23 -9t9 -23t-9 -23t-23 -9h-104v0q-24 1 -40 16q-15 16 -16 40v32v0q1 58 40 96q38 39 96 40h80v0q58 -1 96 -40q39 -38 40 -96v-20v0q-13 12 -32 12q-29 -1 -43 -26
q-14 17 -37 18q-23 -1 -37 -18q-14 25 -43 26v0zM368 241v-32v32v-32q0 -14 -9 -23t-23 -9t-23 9t-9 23v48v0v8v0q0 14 9 23t23 9t23 -9t9 -23v-24v0zM256 161q-14 0 -23 9v0v0q-9 9 -9 23v64v0q0 14 9 23t23 9t23 -9t9 -23v-48v0v-16v0q0 -14 -9 -23t-23 -9v0z" />
</svg>
