<?xml version="1.0" standalone="no"?>
<!DOCTYPE svg PUBLIC "-//W3C//DTD SVG 1.1//EN" "http://www.w3.org/Graphics/SVG/1.1/DTD/svg11.dtd" >
<svg xmlns="http://www.w3.org/2000/svg" xmlns:xlink="http://www.w3.org/1999/xlink" version="1.1" viewBox="-10 -40 522 512">
   <path fill="currentColor"
d="M192 -23q-14 0 -23 9v0v0q-9 9 -9 23v287v0q0 6 -5 8t-9 -2l-59 -60v0q-10 -9 -23 -9t-23 9q-9 10 -9 23t9 23l104 103v0q32 32 73 49t86 17h8v0q63 -1 105 -42t47 -102v-2v0v-6v0v-232v0q0 -14 -9 -23t-23 -9t-23 9t-9 23v72v0v56v0v64v0q-1 20 -14 34q-14 13 -34 14
q-26 -1 -40 -21q-14 20 -40 21q-20 -1 -34 -14q-13 -14 -14 -34v-96v0v-120v0v0v0v-40v0q0 -14 -9 -23t-23 -9v0zM304 265v-64v64v-64v-24v0v-8v0q0 -14 -9 -23t-23 -9t-23 9t-9 23v96v0q0 14 9 23t23 9t23 -9t9 -23v0zM320 201v64v-64v64q0 14 9 23t23 9t23 -9t9 -23v-64v0
q0 -14 -9 -23t-23 -9t-23 9t-9 23v0zM384 165v-20v20v-20v-72v0q1 -20 14 -34q14 -13 34 -14q20 1 34 14q13 14 14 34v232v0v8v0v2q-6 68 -53 112q-46 44 -115 46h-8v0q-49 0 -92 -18q-44 -18 -78 -52l-104 -104v0q-14 -15 -14 -34t14 -34q15 -14 34 -14t34 14l46 46v0v-268
v0q1 -20 14 -34q14 -13 34 -14q20 1 34 14q13 14 14 34v40v0v84v0q13 -12 32 -12t33 13q13 12 15 31q13 -12 32 -12t32 12v0z" />
</svg>
