<?xml version="1.0" standalone="no"?>
<!DOCTYPE svg PUBLIC "-//W3C//DTD SVG 1.1//EN" "http://www.w3.org/Graphics/SVG/1.1/DTD/svg11.dtd" >
<svg xmlns="http://www.w3.org/2000/svg" xmlns:xlink="http://www.w3.org/1999/xlink" version="1.1" viewBox="-10 -40 458 512">
   <path fill="currentColor"
d="M112 9v16v-16v16h64v0v-16v0q0 -14 -9 -23t-23 -9t-23 9t-9 23v0zM96 25v-16v16v-16q1 -20 14 -34q14 -13 34 -14q20 1 34 14q13 14 14 34v24v0v80v0v12v0q13 -12 32 -12t33 13q13 12 15 31q13 -12 32 -12q33 2 45 31q14 -14 35 -15q20 1 34 14q13 14 14 34v32v0v24v0v56
v0q-2 65 -45 107q-42 43 -107 45h-80v0q-65 -2 -107 -45q-43 -42 -45 -107v-32v0q0 -24 14 -42q13 -18 34 -26v-100v0h-72v0q-5 0 -7 -4q-2 -5 1 -9l28 -35v0l-28 -35v0q-3 -4 -1 -8q2 -5 7 -5h72v0zM112 121v96v-96v96h8h56v0v-56v0v-40v0h-64v0zM176 105v-64v64v-64h-135
v0l21 27v0q4 5 0 10l-21 27v0h135v0zM176 233h-56h56h-56q-24 1 -40 16q-15 16 -16 40v32v0q1 58 40 96q38 39 96 40h80v0q58 -1 96 -40q39 -38 40 -96v-20v0q-13 12 -32 12q-29 -1 -43 -26q-14 17 -37 18q-23 -1 -37 -18q-14 25 -43 26h-72v0q-7 -1 -8 -8q1 -7 8 -8h72v0
q14 0 23 -9t9 -23t-9 -23t-23 -9h-32v0v0v0h-16v0v0v0zM192 217h32h-32h32q19 0 32 12v-36v0v0v0v-32v0q0 -14 -9 -23t-23 -9t-23 9t-9 23v56v0zM272 233v24v-24v24q0 14 9 23t23 9t23 -9t9 -23v-48v0v-16v0q0 -14 -9 -23t-23 -9t-23 9t-9 23v40v0zM416 241v-32v32v-32
q0 -14 -9 -23t-23 -9t-23 9t-9 23v48v0v8v0q0 14 9 23t23 9t23 -9t9 -23v-24v0z" />
</svg>
