<?xml version="1.0" standalone="no"?>
<!DOCTYPE svg PUBLIC "-//W3C//DTD SVG 1.1//EN" "http://www.w3.org/Graphics/SVG/1.1/DTD/svg11.dtd" >
<svg xmlns="http://www.w3.org/2000/svg" xmlns:xlink="http://www.w3.org/1999/xlink" version="1.1" viewBox="-10 -40 532 512">
   <path fill="currentColor"
d="M328 -31q-1 -7 -8 -8q-7 1 -8 8v72v0q1 7 8 8q7 -1 8 -8v-72v0zM219 -13q-5 4 -1 11l40 56v0q4 5 11 2q5 -5 2 -12l-40 -56v0q-5 -5 -12 -1v0zM421 -13q-7 -4 -11 1l-40 56v0q-4 7 1 12q7 3 12 -2l40 -56v0q3 -7 -2 -12v1zM154 105q11 0 18 8l134 134v0q2 2 6 2
q7 -1 8 -8v-80v0q2 -22 24 -24q22 2 24 24v146v0q-2 64 -44 106t-106 44q-62 -1 -107 -44l-41 -42v0v0v0l-16 -16v0l-22 -22v0q-8 -7 -8 -18q2 -24 26 -26q11 0 18 8v0v0l38 38v0q6 4 12 0q4 -6 0 -12l-38 -38v0l-48 -48v0q-8 -7 -8 -18q2 -24 26 -26q11 0 18 8v0v0l86 86v0
q6 4 12 0q4 -6 0 -12l-86 -86v0l-24 -24v0q-8 -7 -8 -18q2 -24 26 -26q11 0 18 8l32 32v0l78 78v0q6 4 12 0q4 -6 0 -12l-78 -78v0q-8 -7 -8 -18q2 -24 26 -26v0zM45 177q-16 3 -26 14v0v0q-11 12 -11 28q0 17 12 30l25 24v0q-16 3 -26 14q-11 12 -11 28q0 17 12 30l22 22v0
l16 16v0v0v0l42 41v0q49 48 118 49q70 -2 117 -49t49 -117v-146v0q0 -17 -12 -28q-11 -12 -28 -12t-28 12q-12 11 -12 28v61v0l-120 -121v0q-13 -12 -30 -12t-28 11q-12 10 -14 26l-8 -9v0q-13 -12 -30 -12q-18 0 -30 12t-12 30q0 17 12 30h1v0zM432 241q1 7 8 8q7 -1 8 -8
v-80v0q2 -22 24 -24q22 2 24 24v146v0q-1 56 -35 96q-34 41 -88 52l-20 18q68 -5 113 -51q44 -47 46 -115v-146v0q0 -17 -12 -28q-11 -12 -28 -12t-28 12q-12 11 -12 28v80v0z" />
</svg>
