<?xml version="1.0" standalone="no"?>
<!DOCTYPE svg PUBLIC "-//W3C//DTD SVG 1.1//EN" "http://www.w3.org/Graphics/SVG/1.1/DTD/svg11.dtd" >
<svg xmlns="http://www.w3.org/2000/svg" xmlns:xlink="http://www.w3.org/1999/xlink" version="1.1" viewBox="-10 -40 660 512">
   <path fill="currentColor"
d="M384 -23h192h-192h192q20 1 34 14q13 14 14 34v384v0q-1 20 -14 34q-14 13 -34 14h-167v0q-3 9 -9 16h176v0q27 -1 45 -19t19 -45v-384v0q-1 -27 -19 -45t-45 -19h-192v0q-27 1 -45 19t-19 45v90v0l16 15v0v-105v0q1 -20 14 -34q14 -13 34 -14v0zM416 249h24h-24h24
q22 -2 24 -24v-32v0q-2 -22 -24 -24h-32v0q-12 0 -19 9l1 1v0q6 5 10 12q2 -6 8 -6h32v0q7 1 8 8v32v0q-1 7 -8 8h-24v0v5v11v0zM416 361h24h-24h24q22 -2 24 -24v-32v0q-2 -22 -24 -24h-24v0v16v0h24v0q7 1 8 8v32v0q-1 7 -8 8h-24v0v16v0zM520 169q-22 2 -24 24v32v0
q2 22 24 24h32v0q22 -2 24 -24v-32v0q-2 -22 -24 -24h-32v0zM512 193q1 -7 8 -8h32v0q7 1 8 8v32v0q-1 7 -8 8h-32v0q-7 -1 -8 -8v-32v0zM496 305v32v-32v32q2 22 24 24h32v0q22 -2 24 -24v-32v0q-2 -22 -24 -24h-32v0q-22 2 -24 24v0zM520 297h32h-32h32q7 1 8 8v32v0
q-1 7 -8 8h-32v0q-7 -1 -8 -8v-32v0q1 -7 8 -8v0zM408 57q-22 2 -24 24v32v0q2 22 24 24h32v0q22 -2 24 -24v-32v0q-2 -22 -24 -24h-32v0zM400 81q1 -7 8 -8h32v0q7 1 8 8v32v0q-1 7 -8 8h-32v0q-7 -1 -8 -8v-32v0zM496 81v32v-32v32q2 22 24 24h32v0q22 -2 24 -24v-32v0
q-2 -22 -24 -24h-32v0q-22 2 -24 24v0zM520 73h32h-32h32q7 1 8 8v32v0q-1 7 -8 8h-32v0q-7 -1 -8 -8v-32v0q1 -7 8 -8v0zM16 242q0 -18 13 -30l136 -124v0q12 -11 27 -11t27 11l136 124v0q13 12 13 30v175v0q0 17 -12 28q-11 12 -28 12h-272v0q-17 0 -28 -12
q-12 -11 -12 -28v-175v0zM0 417q1 24 16 40v0v0q16 15 40 16h272v0q24 -1 40 -16q15 -16 16 -40v-175v0q0 -25 -18 -42l-136 -124v0q-17 -15 -38 -15t-38 15l-136 124v0q-18 17 -18 42v175v0zM224 241q7 1 8 8v64v0q-1 7 -8 8h-64v0q-7 -1 -8 -8v-64v0q1 -7 8 -8h64v0z
M160 225q-22 2 -24 24v64v0q2 22 24 24h64v0q22 -2 24 -24v-64v0q-2 -22 -24 -24h-64v0z" />
</svg>
