<?xml version="1.0" standalone="no"?>
<!DOCTYPE svg PUBLIC "-//W3C//DTD SVG 1.1//EN" "http://www.w3.org/Graphics/SVG/1.1/DTD/svg11.dtd" >
<svg xmlns="http://www.w3.org/2000/svg" xmlns:xlink="http://www.w3.org/1999/xlink" version="1.1" viewBox="-10 -40 660 512">
   <path fill="currentColor"
d="M404 -14q12 -10 24 0l131 145v0q1 1 1 2q0 4 -4 4h-68v0q-5 0 -7 5q-2 4 1 8l108 133v0q2 2 2 5q-1 8 -9 9h-79v0q-5 0 -7 5t1 8l124 136v0q2 2 2 5q-1 5 -6 6h-209v0q-3 9 -9 16h218v0q20 -2 22 -22q0 -9 -6 -16l-112 -122v0h61v0q23 -2 25 -25q0 -9 -5 -16l-98 -119v0
h52v0q17 -2 19 -20q0 -7 -5 -13l-131 -145v0q-10 -10 -24 -10t-24 10l-101 113v0l11 11v0l102 -113v0zM16 242q0 -18 13 -30l136 -124v0q12 -11 27 -11t27 11l136 124v0q13 12 13 30v175v0q0 17 -12 28q-11 12 -28 12h-272v0q-17 0 -28 -12q-12 -11 -12 -28v-175v0zM0 417
q1 24 16 40v0v0q16 15 40 16h272v0q24 -1 40 -16q15 -16 16 -40v-175v0q0 -25 -18 -42l-136 -124v0q-17 -15 -38 -15t-38 15l-136 124v0q-18 17 -18 42v175v0zM224 241q7 1 8 8v64v0q-1 7 -8 8h-64v0q-7 -1 -8 -8v-64v0q1 -7 8 -8h64v0zM160 225q-22 2 -24 24v64v0
q2 22 24 24h64v0q22 -2 24 -24v-64v0q-2 -22 -24 -24h-64v0z" />
</svg>
