<?xml version="1.0" standalone="no"?>
<!DOCTYPE svg PUBLIC "-//W3C//DTD SVG 1.1//EN" "http://www.w3.org/Graphics/SVG/1.1/DTD/svg11.dtd" >
<svg xmlns="http://www.w3.org/2000/svg" xmlns:xlink="http://www.w3.org/1999/xlink" version="1.1" viewBox="-10 -40 468 512">
   <path fill="currentColor"
d="M16 377q1 20 14 34v0v0q14 13 34 14h320v0q20 -1 34 -14q13 -14 14 -34v-64v0h-96h-320v64v0zM334 297h98h-98h98v-240v0q-1 -20 -14 -34q-14 -13 -34 -14h-320v0q-20 1 -34 14q-13 14 -14 34v240v0h98v0q6 -28 27 -46q21 -17 51 -18h64v0q30 1 51 18q21 18 27 46v0z
M130 297h188h-188h188q-6 -21 -22 -34q-17 -14 -40 -14h-64v0q-23 0 -40 14q-16 13 -22 34v0zM448 57v240v-240v240v8v0v8v0v64v0q-1 27 -19 45t-45 19h-320v0q-27 -1 -45 -19t-19 -45v-64v0v-8v0v-8v0v-240v0q1 -27 19 -45t45 -19h320v0q27 1 45 19t19 45v0zM272 137
q-1 -27 -24 -42q-24 -12 -48 0q-23 15 -24 42q1 27 24 42q24 12 48 0q23 -15 24 -42v0zM224 73q36 1 55 32q18 32 0 64q-19 31 -55 32q-36 -1 -55 -32q-18 -32 0 -64q19 -31 55 -32v0z" />
</svg>
