<?xml version="1.0" standalone="no"?>
<!DOCTYPE svg PUBLIC "-//W3C//DTD SVG 1.1//EN" "http://www.w3.org/Graphics/SVG/1.1/DTD/svg11.dtd" >
<svg xmlns="http://www.w3.org/2000/svg" xmlns:xlink="http://www.w3.org/1999/xlink" version="1.1" viewBox="-10 -40 532 512">
   <path fill="currentColor"
d="M64 9q-20 1 -34 14v0v0q-13 14 -14 34v320v0q1 20 14 34q14 13 34 14h384v0q20 -1 34 -14q13 -14 14 -34v-320v0q-1 -20 -14 -34q-14 -13 -34 -14h-384v0zM0 57q1 -27 19 -45v0v0q18 -18 45 -19h384v0q27 1 45 19t19 45v320v0q-1 27 -19 45t-45 19h-384v0q-27 -1 -45 -19
t-19 -45v-320v0zM304 153q-1 -27 -24 -42q-24 -12 -48 0q-23 15 -24 42q1 27 24 42q24 12 48 0q23 -15 24 -42v0zM160 318q1 10 11 11h170v0q10 -1 11 -11q-1 -23 -15 -38q-15 -14 -38 -15h-86v0q-23 1 -38 15q-14 15 -15 38v0zM256 89q36 1 55 32q18 32 0 64q-19 31 -55 32
q-36 -1 -55 -32q-18 -32 0 -64q19 -31 55 -32v0zM213 249h87h-87h87q29 1 48 20t20 49q0 11 -8 19t-19 8h-170v0q-11 0 -19 -8t-8 -19q1 -30 20 -49t49 -20v0z" />
</svg>
