<?xml version="1.0" standalone="no"?>
<!DOCTYPE svg PUBLIC "-//W3C//DTD SVG 1.1//EN" "http://www.w3.org/Graphics/SVG/1.1/DTD/svg11.dtd" >
<svg xmlns="http://www.w3.org/2000/svg" xmlns:xlink="http://www.w3.org/1999/xlink" version="1.1" viewBox="-10 -40 532 512">
   <path fill="currentColor"
d="M16 289v88v-88v88q1 20 14 34q14 13 34 14h384v0q20 -1 34 -14q13 -14 14 -34v-88v0q0 -4 -1 -8h-101v0q-5 0 -7 4l-24 47v0q-6 12 -21 13h-172v0q-15 -1 -22 -13l-23 -47v0q-2 -4 -7 -4h-101v0q-1 4 -1 8v0zM437 45q-5 -16 -17 -26v0v0q-13 -10 -30 -10h-268v0
q-17 0 -30 10q-12 10 -17 26l-54 220v0h97v0q15 1 22 13l23 47v0q2 4 7 4h172v0q5 0 7 -4l24 -47v0q7 -12 21 -13h98v0l-55 -220v0zM0 377v-88v88v-88q0 -8 2 -16l58 -231v0q6 -22 23 -35q16 -14 39 -14h268v0q23 0 39 14q17 13 23 35l58 231v0q2 8 2 16v88v0q-1 27 -19 45
t-45 19h-384v0q-27 -1 -45 -19t-19 -45v0zM152 73h216h-216h216q7 1 8 8q-1 7 -8 8h-216v0q-7 -1 -8 -8q1 -7 8 -8v0zM128 137h256h-256h256q7 1 8 8q-1 7 -8 8h-256v0q-7 -1 -8 -8q1 -7 8 -8v0zM112 201h280h-280h280q7 1 8 8q-1 7 -8 8h-280v0q-7 -1 -8 -8q1 -7 8 -8v0z
" />
</svg>
