<?xml version="1.0" standalone="no"?>
<!DOCTYPE svg PUBLIC "-//W3C//DTD SVG 1.1//EN" "http://www.w3.org/Graphics/SVG/1.1/DTD/svg11.dtd" >
<svg xmlns="http://www.w3.org/2000/svg" xmlns:xlink="http://www.w3.org/1999/xlink" version="1.1" viewBox="-10 -40 532 512">
   <path fill="currentColor"
d="M22 121h102h-102h102q24 1 36 22l14 29v0q7 12 22 13h120v0q15 0 22 -13l14 -29v0q12 -21 36 -22h103v0l-60 -126v0q-10 -17 -29 -18h-292v0q-19 1 -29 18l-59 126v0zM496 137h-108h108h-108q-15 1 -22 13l-14 29v0q-12 21 -36 22h-120v0q-24 -1 -36 -22l-14 -29v0
q-7 -12 -22 -13h-108v0v3v93v0q0 14 9 23t23 9h416v0q14 0 23 -9t9 -23v-93v0v-3v0zM5 119l62 -131l-62 131l62 -131q14 -26 43 -27h292v0q29 1 43 27l62 131v0q5 10 5 21v93v0q-1 20 -14 34q-14 13 -34 14h-416v0q-20 -1 -34 -14q-13 -14 -14 -34v-93v0q0 -11 5 -21v0z
M122 329h-74h74h-74q-14 0 -23 9t-9 23v64v0q0 14 9 23t23 9h416v0q14 0 23 -9t9 -23v-64v0q0 -14 -9 -23t-23 -9h-74v0q-20 1 -29 18l-10 20v0q-14 25 -43 26h-104v0q-29 -1 -43 -26l-10 -20v0q-9 -17 -29 -18v0zM337 359l10 -19l-10 19l10 -19q14 -26 43 -27h74v0
q20 1 34 14q13 14 14 34v64v0q-1 20 -14 34q-14 13 -34 14h-416v0q-20 -1 -34 -14q-13 -14 -14 -34v-64v0q1 -20 14 -34q14 -13 34 -14h74v0q29 1 43 27l10 19v0q9 17 29 18h104v0q20 -1 29 -18v0z" />
</svg>
