<?xml version="1.0" standalone="no"?>
<!DOCTYPE svg PUBLIC "-//W3C//DTD SVG 1.1//EN" "http://www.w3.org/Graphics/SVG/1.1/DTD/svg11.dtd" >
<svg xmlns="http://www.w3.org/2000/svg" xmlns:xlink="http://www.w3.org/1999/xlink" version="1.1" viewBox="-10 -40 660 512">
   <path fill="currentColor"
d="M576 41q20 1 34 14v0v0q13 14 14 34v256v0q-1 20 -14 34q-14 13 -34 14h-352v0q-20 -1 -34 -14q-13 -14 -14 -34v-256v0q1 -20 14 -34q14 -13 34 -14h352v0zM224 25q-27 1 -45 19v0v0q-18 18 -19 45v256v0q1 27 19 45t45 19h352v0q27 -1 45 -19t19 -45v-256v0
q-1 -27 -19 -45t-45 -19h-352v0zM264 297q7 1 8 8v16v0q-1 7 -8 8h-16v0q-7 -1 -8 -8v-16v0q1 -7 8 -8h16v0zM248 281q-22 2 -24 24v16v0q2 22 24 24h16v0q22 -2 24 -24v-16v0q-2 -22 -24 -24h-16v0zM344 297h112h-112h112q7 1 8 8v16v0q-1 7 -8 8h-112v0q-7 -1 -8 -8v-16v0
q1 -7 8 -8v0zM320 305v16v-16v16q2 22 24 24h112v0q22 -2 24 -24v-16v0q-2 -22 -24 -24h-112v0q-22 2 -24 24v0zM264 201q7 1 8 8v16v0q-1 7 -8 8h-16v0q-7 -1 -8 -8v-16v0q1 -7 8 -8h16v0zM248 185q-22 2 -24 24v16v0q2 22 24 24h16v0q22 -2 24 -24v-16v0q-2 -22 -24 -24
h-16v0zM344 201h16h-16h16q7 1 8 8v16v0q-1 7 -8 8h-16v0q-7 -1 -8 -8v-16v0q1 -7 8 -8v0zM320 209v16v-16v16q2 22 24 24h16v0q22 -2 24 -24v-16v0q-2 -22 -24 -24h-16v0q-22 2 -24 24v0zM456 201q7 1 8 8v16v0q-1 7 -8 8h-16v0q-7 -1 -8 -8v-16v0q1 -7 8 -8h16v0zM440 185
q-22 2 -24 24v16v0q2 22 24 24h16v0q22 -2 24 -24v-16v0q-2 -22 -24 -24h-16v0zM536 201h16h-16h16q7 1 8 8v16v0q-1 7 -8 8h-16v0q-7 -1 -8 -8v-16v0q1 -7 8 -8v0zM512 209v16v-16v16q2 22 24 24h16v0q22 -2 24 -24v-16v0q-2 -22 -24 -24h-16v0q-22 2 -24 24v0zM552 297
q7 1 8 8v16v0q-1 7 -8 8h-16v0q-7 -1 -8 -8v-16v0q1 -7 8 -8h16v0zM536 281q-22 2 -24 24v16v0q2 22 24 24h16v0q22 -2 24 -24v-16v0q-2 -22 -24 -24h-16v0zM248 105h16h-16h16q7 1 8 8v16v0q-1 7 -8 8h-16v0q-7 -1 -8 -8v-16v0q1 -7 8 -8v0zM224 113v16v-16v16q2 22 24 24
h16v0q22 -2 24 -24v-16v0q-2 -22 -24 -24h-16v0q-22 2 -24 24v0zM360 105q7 1 8 8v16v0q-1 7 -8 8h-16v0q-7 -1 -8 -8v-16v0q1 -7 8 -8h16v0zM344 89q-22 2 -24 24v16v0q2 22 24 24h16v0q22 -2 24 -24v-16v0q-2 -22 -24 -24h-16v0zM440 105h16h-16h16q7 1 8 8v16v0
q-1 7 -8 8h-16v0q-7 -1 -8 -8v-16v0q1 -7 8 -8v0zM416 113v16v-16v16q2 22 24 24h16v0q22 -2 24 -24v-16v0q-2 -22 -24 -24h-16v0q-22 2 -24 24v0zM552 105q7 1 8 8v16v0q-1 7 -8 8h-16v0q-7 -1 -8 -8v-16v0q1 -7 8 -8h16v0zM536 89q-22 2 -24 24v16v0q2 22 24 24h16v0
q22 -2 24 -24v-16v0q-2 -22 -24 -24h-16v0zM102 135q4 -6 0 -12q-6 -4 -12 0l-88 88v0q-4 6 0 12l88 88v0q6 4 12 0q4 -6 0 -12l-83 -82v0l83 -82v0z" />
</svg>
