<?xml version="1.0" standalone="no"?>
<!DOCTYPE svg PUBLIC "-//W3C//DTD SVG 1.1//EN" "http://www.w3.org/Graphics/SVG/1.1/DTD/svg11.dtd" >
<svg xmlns="http://www.w3.org/2000/svg" xmlns:xlink="http://www.w3.org/1999/xlink" version="1.1" viewBox="-10 -40 405 512">
   <path fill="currentColor"
d="M136 -7q7 1 8 8v62v0q24 -6 50 -6q15 0 30 2v-58v0q1 -7 8 -8q7 1 8 8v62v0q55 13 93 53q39 39 51 95q1 7 -6 9q-8 1 -10 -6q-11 -50 -45 -86q-34 -35 -83 -49v162v0q-1 7 -8 8q-7 -1 -8 -8v-165v0q-15 -3 -30 -3q-26 0 -50 7v161v0q-1 7 -8 8q-7 -1 -8 -8v-155v0
q-50 20 -81 63q-30 44 -31 100q2 75 52 124q50 50 126 52h182v0q7 1 8 8q-1 7 -8 8h-182h-186q-7 -1 -8 -8q1 -7 8 -8h108v0q-52 -23 -83 -70q-32 -46 -33 -106q1 -63 36 -111q35 -49 92 -70v-67v0q1 -7 8 -8v0z" />
</svg>
