<?xml version="1.0" standalone="no"?>
<!DOCTYPE svg PUBLIC "-//W3C//DTD SVG 1.1//EN" "http://www.w3.org/Graphics/SVG/1.1/DTD/svg11.dtd" >
<svg xmlns="http://www.w3.org/2000/svg" xmlns:xlink="http://www.w3.org/1999/xlink" version="1.1" viewBox="-10 -40 660 512">
   <path fill="currentColor"
d="M512 393q54 -1 91 -37v0v0q36 -37 37 -91q-1 -54 -37 -91q-37 -36 -91 -37h-24v0q-7 1 -8 8q1 7 8 8h24v0q48 1 79 33q32 31 33 79q-1 48 -33 79q-31 32 -79 33h-192v0q-48 -1 -79 -33q-32 -31 -33 -79q1 -48 33 -79q31 -32 79 -33h56v0q7 -1 8 -8q-1 -7 -8 -8h-56v0
q-54 1 -91 37q-36 37 -37 91q1 54 37 91q37 36 91 37h192v0zM128 41q-54 1 -91 37v0v0q-36 37 -37 91q1 54 37 91q37 36 91 37h24v0q7 -1 8 -8q-1 -7 -8 -8h-24v0q-48 -1 -79 -33q-32 -31 -33 -79q1 -48 33 -79q31 -32 79 -33h192v0q48 1 79 33q32 31 33 79q-1 48 -33 79
q-31 32 -79 33h-56v0q-7 1 -8 8q1 7 8 8h56v0q54 -1 91 -37q36 -37 37 -91q-1 -54 -37 -91q-37 -36 -91 -37h-192v0z" />
</svg>
