<?xml version="1.0" standalone="no"?>
<!DOCTYPE svg PUBLIC "-//W3C//DTD SVG 1.1//EN" "http://www.w3.org/Graphics/SVG/1.1/DTD/svg11.dtd" >
<svg xmlns="http://www.w3.org/2000/svg" xmlns:xlink="http://www.w3.org/1999/xlink" version="1.1" viewBox="-10 -40 524 512">
   <path fill="currentColor"
d="M64 17q-23 1 -35 20q-10 20 0 40q12 19 35 20q23 -1 35 -20q10 -20 0 -40q-12 -19 -35 -20v0zM64 113q-32 -1 -48 -28q-16 -28 0 -56q16 -27 48 -28q32 1 48 28q16 28 0 56q-16 27 -48 28v0zM168 57q1 -7 8 -8h320v0q7 1 8 8q-1 7 -8 8h-320v0q-7 -1 -8 -8v0zM168 217
q1 -7 8 -8h320v0q7 1 8 8q-1 7 -8 8h-320v0q-7 -1 -8 -8v0zM168 377q1 -7 8 -8h320v0q7 1 8 8q-1 7 -8 8h-320v0q-7 -1 -8 -8v0zM64 177q-23 1 -35 20q-10 20 0 40q12 19 35 20q23 -1 35 -20q10 -20 0 -40q-12 -19 -35 -20v0zM64 273q-32 -1 -48 -28q-16 -28 0 -56
q16 -27 48 -28q32 1 48 28q16 28 0 56q-16 27 -48 28v0zM104 377q-1 -23 -20 -35q-20 -10 -40 0q-19 12 -20 35q1 23 20 35q20 10 40 0q19 -12 20 -35v0zM8 377q1 -32 28 -48q28 -16 56 0q27 16 28 48q-1 32 -28 48q-28 16 -56 0q-27 -16 -28 -48v0zM64 73q-15 -1 -16 -16
q1 -15 16 -16q15 1 16 16q-1 15 -16 16v0z" />
</svg>
