<?xml version="1.0" standalone="no"?>
<!DOCTYPE svg PUBLIC "-//W3C//DTD SVG 1.1//EN" "http://www.w3.org/Graphics/SVG/1.1/DTD/svg11.dtd" >
<svg xmlns="http://www.w3.org/2000/svg" xmlns:xlink="http://www.w3.org/1999/xlink" version="1.1" viewBox="-10 -40 532 512">
   <path fill="currentColor"
d="M159 57l43 43l-43 -43l43 43q5 5 11 5h203v0q15 -1 16 -16v-64v0q-1 -15 -16 -16h-203v0q-6 0 -11 5l-43 43v0zM191 2q9 -9 22 -9h203v0q14 0 23 9t9 23v64v0q0 14 -9 23t-23 9h-203v0q-13 0 -22 -9l-44 -44v0q-9 -11 0 -22l44 -44v0zM96 57q0 -14 -9 -23v0v0
q-9 -9 -23 -9t-23 9t-9 23t9 23t23 9t23 -9t9 -23v0zM16 57q1 -27 24 -42q24 -12 48 0q23 15 24 42q-1 27 -24 42q-24 12 -48 0q-23 -15 -24 -42v0zM96 217q0 -14 -9 -23v0v0q-9 -9 -23 -9t-23 9t-9 23t9 23t23 9t23 -9t9 -23v0zM16 217q1 -27 24 -42q24 -12 48 0
q23 15 24 42q-1 27 -24 42q-24 12 -48 0q-23 -15 -24 -42v0zM64 345q-14 0 -23 9v0v0q-9 9 -9 23t9 23t23 9t23 -9t9 -23t-9 -23t-23 -9v0zM64 425q-27 -1 -42 -24q-12 -24 0 -48q15 -23 42 -24q27 1 42 24q12 24 0 48q-15 23 -42 24v0zM159 377l43 43l-43 -43l43 43
q5 5 11 5h203v0q15 -1 16 -16v-64v0q-1 -15 -16 -16h-203v0q-6 0 -11 5l-43 43v0zM191 322q9 -9 22 -9h203v0q14 0 23 9t9 23v64v0q0 14 -9 23t-23 9h-203v0q-13 0 -22 -9l-44 -44v0q-9 -11 0 -22l44 -44v0zM202 174l-43 43l43 -43l-43 43l43 43v0q5 5 11 5h267v0
q15 -1 16 -16v-64v0q-1 -15 -16 -16h-267v0q-6 0 -11 5v0zM147 206l44 -44l-44 44l44 -44q9 -9 22 -9h267v0q14 0 23 9t9 23v64v0q0 14 -9 23t-23 9h-267v0q-13 0 -22 -9l-44 -44v0q-9 -11 0 -22v0z" />
</svg>
