<?xml version="1.0" standalone="no"?>
<!DOCTYPE svg PUBLIC "-//W3C//DTD SVG 1.1//EN" "http://www.w3.org/Graphics/SVG/1.1/DTD/svg11.dtd" >
<svg xmlns="http://www.w3.org/2000/svg" xmlns:xlink="http://www.w3.org/1999/xlink" version="1.1" viewBox="-11 0 405 512">
   <path fill="currentColor"
d="M96 1q-1 -7 -8 -8q-7 1 -8 8v191v0l-74 17v0q-7 3 -6 10q3 7 10 6l70 -17v0v193v0q0 17 12 28q11 12 28 12h256v0q7 -1 8 -8q-1 -7 -8 -8h-256v0q-22 -2 -24 -24v-196v0l186 -44v0q7 -3 6 -10q-3 -7 -10 -6l-182 43v0v-187v0z" />
</svg>
