<?xml version="1.0" standalone="no"?>
<!DOCTYPE svg PUBLIC "-//W3C//DTD SVG 1.1//EN" "http://www.w3.org/Graphics/SVG/1.1/DTD/svg11.dtd" >
<svg xmlns="http://www.w3.org/2000/svg" xmlns:xlink="http://www.w3.org/1999/xlink" version="1.1" viewBox="-10 -40 532 512">
   <path fill="currentColor"
d="M256 -23q65 1 120 32v0v0q55 32 88 88q32 57 32 120t-32 120q-33 56 -88 88q-55 31 -120 32q-65 -1 -120 -32q-55 -32 -88 -88q-32 -57 -32 -120t32 -120q33 -56 88 -88q55 -31 120 -32v0zM256 473q70 -1 128 -34v0v0q58 -34 94 -94q34 -61 34 -128t-34 -128
q-36 -60 -94 -94q-58 -33 -128 -34q-70 1 -128 34q-58 34 -94 94q-34 61 -34 128t34 128q36 60 94 94q58 33 128 34v0zM80 217q1 58 32 102v0v0q32 44 83 63q12 4 22 0t16 -11q9 -10 23 -10t24 10q5 7 15 11t22 0q51 -19 83 -63q31 -44 32 -102q-1 -58 -32 -102
q-32 -44 -83 -63q-12 -4 -22 0t-15 11q-10 10 -24 10t-24 -10q-5 -7 -15 -11t-22 0q-51 19 -83 63q-31 44 -32 102v0zM201 67q11 -3 20 7q13 14 35 15q22 -1 35 -15q9 -10 20 -7q47 17 76 57q28 40 29 93q-1 53 -29 93q-29 40 -76 57q-11 3 -20 -6q-13 -15 -35 -16
q-22 1 -35 16q-9 9 -20 6q-47 -17 -76 -57q-28 -40 -29 -93q1 -53 29 -93q29 -40 76 -57v0zM176 153q1 15 16 16q15 -1 16 -16q-1 -15 -16 -16q-15 1 -16 16v0zM176 217q1 15 16 16q15 -1 16 -16q-1 -15 -16 -16q-15 1 -16 16v0zM192 265q-15 1 -16 16q1 15 16 16
q15 -1 16 -16q-1 -15 -16 -16v0zM240 153q1 15 16 16q15 -1 16 -16q-1 -15 -16 -16q-15 1 -16 16v0zM256 201q-15 1 -16 16q1 15 16 16q15 -1 16 -16q-1 -15 -16 -16v0zM240 281q1 15 16 16q15 -1 16 -16q-1 -15 -16 -16q-15 1 -16 16v0zM320 137q-15 1 -16 16q1 15 16 16
q15 -1 16 -16q-1 -15 -16 -16v0zM304 217q1 15 16 16q15 -1 16 -16q-1 -15 -16 -16q-15 1 -16 16v0zM320 265q-15 1 -16 16q1 15 16 16q15 -1 16 -16q-1 -15 -16 -16v0z" />
</svg>
