<?xml version="1.0" standalone="no"?>
<!DOCTYPE svg PUBLIC "-//W3C//DTD SVG 1.1//EN" "http://www.w3.org/Graphics/SVG/1.1/DTD/svg11.dtd" >
<svg xmlns="http://www.w3.org/2000/svg" xmlns:xlink="http://www.w3.org/1999/xlink" version="1.1" viewBox="-10 -40 532 512">
   <path fill="currentColor"
d="M344 361h104h-104h104q20 -1 34 -14q13 -14 14 -34v-288v0q-1 -20 -14 -34q-14 -13 -34 -14h-384v0q-20 1 -34 14q-13 14 -14 34v288v0q1 20 14 34q14 13 34 14h105v0q7 0 12 6l75 90v0l75 -90v0q5 -6 13 -6v0zM169 377h-105h105h-105q-27 -1 -45 -19t-19 -45v-288v0
q1 -27 19 -45t45 -19h384v0q27 1 45 19t19 45v288v0q-1 27 -19 45t-45 19h-104v0l-76 90v0q-5 6 -12 6t-12 -6l-75 -90v0z" />
</svg>
