<?xml version="1.0" standalone="no"?>
<!DOCTYPE svg PUBLIC "-//W3C//DTD SVG 1.1//EN" "http://www.w3.org/Graphics/SVG/1.1/DTD/svg11.dtd" >
<svg xmlns="http://www.w3.org/2000/svg" xmlns:xlink="http://www.w3.org/1999/xlink" version="1.1" viewBox="-10 -40 660 512">
   <path fill="currentColor"
d="M256 457q78 -1 138 -43q3 7 7 14q-63 44 -145 45q-72 -1 -129 -35q-58 -34 -92 -92q-34 -57 -35 -129q1 -72 35 -129q34 -58 92 -92q57 -34 129 -35q84 1 149 48q64 46 92 121q-8 5 -13 11q-25 -73 -86 -118t-142 -46q-67 1 -121 33t-86 86t-33 121q1 67 33 121t86 86
t121 33v0zM176 121q-1 -15 -16 -16q-15 1 -16 16v32v0q1 15 16 16q15 -1 16 -16v-32v0zM128 121q0 -14 9 -23v0v0q9 -9 23 -9t23 9t9 23v32v0q0 14 -9 23t-23 9t-23 -9t-9 -23v-32v0zM272 153v-32v32v-32q-1 -15 -16 -16q-15 1 -16 16v32v0q1 15 16 16q15 -1 16 -16v0z
M256 89q14 0 23 9v0v0q9 9 9 23v32v0q0 14 -9 23t-23 9t-23 -9t-9 -23v-32v0q0 -14 9 -23t23 -9v0zM368 121q-1 -15 -16 -16q-15 1 -16 16v32v0q1 15 16 16q15 -1 16 -16v-32v0zM320 121q0 -14 9 -23v0v0q9 -9 23 -9t23 9t9 23v32v0q0 14 -9 23t-23 9t-23 -9t-9 -23v-32v0z
M416 361q0 -28 13 -53l76 -141v0q7 -13 23 -14q16 1 24 14l75 141v0q13 25 13 53q-1 48 -33 79q-31 32 -79 33q-48 -1 -79 -33q-32 -31 -33 -79v0zM443 316q-11 21 -11 45q1 41 28 68t68 28q41 -1 68 -28t28 -68q0 -24 -11 -45l-76 -141v0q-3 -6 -9 -6t-9 6l-76 141v0z" />
</svg>
