<?xml version="1.0" standalone="no"?>
<!DOCTYPE svg PUBLIC "-//W3C//DTD SVG 1.1//EN" "http://www.w3.org/Graphics/SVG/1.1/DTD/svg11.dtd" >
<svg xmlns="http://www.w3.org/2000/svg" xmlns:xlink="http://www.w3.org/1999/xlink" version="1.1" viewBox="-10 -40 660 512">
   <path fill="currentColor"
d="M256 -23q66 1 119 32v0v0q54 31 86 83q8 3 14 9q8 8 17 16q-31 -70 -93 -113q-63 -42 -143 -43q-72 1 -129 35q-58 34 -92 92q-34 57 -35 129q1 72 35 129q34 58 92 92q57 34 129 35q51 0 95 -18q-6 -6 -12 -13q-39 15 -83 15q-67 -1 -121 -33t-86 -86t-33 -121
q1 -67 33 -121t86 -86t121 -33v0zM384 121q0 -14 -9 -23v0v0q-9 -9 -23 -9t-23 9t-9 23v32v0q1 21 19 29q5 -6 10 -13q-12 -3 -13 -16v-32v0q1 -15 16 -16q15 1 16 16v25v0l16 -18v-7v0zM176 121v32v-32v32q-1 15 -16 16q-15 -1 -16 -16v-32v0q1 -15 16 -16q15 1 16 16v0z
M128 121v32v-32v32q0 14 9 23t23 9t23 -9t9 -23v-32v0q0 -14 -9 -23t-23 -9t-23 9t-9 23v0zM272 153q-1 15 -16 16q-15 -1 -16 -16v-32v0q1 -15 16 -16q15 1 16 16v32v0zM256 89q-14 0 -23 9v0v0q-9 9 -9 23v32v0q0 14 9 23t23 9t23 -9t9 -23v-32v0q0 -14 -9 -23t-23 -9v0z
M446 137q2 0 4 2q24 21 45 46q13 12 25 0q9 -11 18 -20q4 -3 8 0q30 28 54 68q23 40 24 79q0 38 -17 69t-46 51q15 -21 15 -49q-1 -29 -17 -54q-17 -26 -37 -45q-21 -20 -33 -29q-9 -6 -18 0q-12 9 -33 29q-20 19 -37 45q-16 26 -17 55q0 27 16 49q-30 -20 -47 -51
q-17 -32 -17 -69q2 -50 35 -96t71 -78q1 -2 4 -2v0zM480 457h-8q-32 -4 -52 -24q-19 -21 -20 -49q2 -36 31 -69q29 -32 49 -46q20 14 49 46q29 33 31 69q-1 28 -20 49q-20 20 -52 24h-8v0zM320 312q1 66 43 111v0v0q42 45 108 50h9h9q65 -5 107 -50t44 -111q-2 -45 -27 -87
q-24 -43 -56 -71q-15 -12 -30 0q-10 10 -19 21v0h-1v0v0v0v0v0q-22 -26 -47 -48q-6 -6 -14 -6t-15 6q-39 33 -73 81q-35 48 -38 104v0z" />
</svg>
