<?xml version="1.0" standalone="no"?>
<!DOCTYPE svg PUBLIC "-//W3C//DTD SVG 1.1//EN" "http://www.w3.org/Graphics/SVG/1.1/DTD/svg11.dtd" >
<svg xmlns="http://www.w3.org/2000/svg" xmlns:xlink="http://www.w3.org/1999/xlink" version="1.1" viewBox="-10 -40 404 512">
   <path fill="currentColor"
d="M288 -28q1 -7 -5 -10q-8 -2 -11 4l-43 124v0q-25 16 -37 44q-12 -27 -36 -44q-25 -17 -56 -17q-55 2 -84 46v-38v0q-1 -7 -8 -8q-7 1 -8 8v92v0v4v0v224v0q1 7 8 8q7 -1 8 -8v-224v0v-4v0q1 -36 25 -59q23 -24 59 -25q36 1 59 25q24 23 25 59v43v0l-87 246v0q-2 7 4 11
q8 1 11 -5l72 -204v0v137v0q1 7 8 8q7 -1 8 -8v-183v0l42 -118v0q19 -11 42 -11q36 1 59 25q24 23 25 59v228v0q1 7 8 8q7 -1 8 -8v-228v0q-1 -42 -29 -71q-29 -28 -71 -29q-18 0 -35 6l39 -107v0zM200 170l17 -48l-17 48l17 -48q-16 21 -17 48v0z" />
</svg>
