<?xml version="1.0" standalone="no"?>
<!DOCTYPE svg PUBLIC "-//W3C//DTD SVG 1.1//EN" "http://www.w3.org/Graphics/SVG/1.1/DTD/svg11.dtd" >
<svg xmlns="http://www.w3.org/2000/svg" xmlns:xlink="http://www.w3.org/1999/xlink" version="1.1" viewBox="-10 -40 660 512">
   <path fill="currentColor"
d="M352 33q-1 7 -8 8h-80v0v80v0h105v0q15 0 29 7l50 25v0l167 -36v0q14 -2 21 9q6 11 -3 23l-182 206v0q-19 21 -48 22h-259v0q-20 -1 -34 -14q-13 -14 -14 -34v-23v0l-67 -28v0q-28 -14 -29 -45v-64v0q1 -20 14 -34q14 -13 34 -14h48h152v-80v0h-80v0q-7 -1 -8 -8
q1 -7 8 -8h176v0q7 1 8 8v0zM451 169q-5 1 -10 -2l-51 -25v0q-10 -5 -21 -5h-257v0v159v0v17v0v16v0q0 14 9 23t23 9h259v0q22 0 36 -16l183 -207v0v-2v0v-2l-1 -1h-2l-167 36h-1zM96 137h-48h48h-48q-14 0 -23 9t-9 23v64v0q1 21 19 30l61 26v0v-152v0zM624 361
q0 -11 -11 -36q-10 -24 -21 -43q-11 19 -21 43q-11 25 -11 36q0 14 9 23t23 9q15 0 23 -8q8 -6 9 -24v0zM640 361q-1 24 -14 36v0v0q-14 12 -34 12q-20 -1 -34 -14q-13 -14 -14 -34q1 -17 12 -42q11 -26 23 -47q5 -8 13 -8t13 8q12 21 23 47q11 25 12 42v0z" />
</svg>
