<?xml version="1.0" standalone="no"?>
<!DOCTYPE svg PUBLIC "-//W3C//DTD SVG 1.1//EN" "http://www.w3.org/Graphics/SVG/1.1/DTD/svg11.dtd" >
<svg xmlns="http://www.w3.org/2000/svg" xmlns:xlink="http://www.w3.org/1999/xlink" version="1.1" viewBox="-10 -40 660 512">
   <path fill="currentColor"
d="M16 39q0 -13 9 -21v0v0q8 -9 21 -9q5 0 9 2q13 5 84 21q71 15 181 17q110 -2 181 -17q71 -16 84 -21q4 -2 9 -2q13 0 21 9q9 8 9 21v356v0q0 13 -9 21q-8 9 -21 9q-5 0 -9 -2l-16 -4l-166 -222v0q-7 -9 -19 -9q-11 0 -19 9l-85 113v0l-37 -49v0q-8 -9 -19 -9t-19 9
l-114 152v0q-29 8 -36 10q-4 2 -9 2q-13 0 -21 -9q-9 -8 -9 -21v-356v0zM115 407l103 -136l-103 136l103 -136q6 -7 12 0l40 53v0l-50 66v0q-63 8 -105 17v0zM242 388l44 -60l-44 60l44 -60l92 -121v0q6 -7 12 0l154 205v0q-35 -9 -92 -18q-58 -8 -132 -9q-42 0 -78 3v0z
M46 -7q-20 0 -33 13v0v0q-13 13 -13 33v356v0q0 20 13 33t33 13q7 0 14 -2q13 -6 82 -21q70 -15 178 -17q108 2 178 17q69 15 82 21q7 2 14 2q20 0 33 -13q12 -13 13 -33v-356v0q-1 -20 -13 -33q-13 -13 -33 -13q-7 0 -14 2q-13 6 -82 21q-70 15 -178 17q-108 -2 -178 -17
q-69 -15 -82 -21q-7 -2 -14 -2v0zM176 153q-1 -27 -24 -42q-24 -12 -48 0q-23 15 -24 42q1 27 24 42q24 12 48 0q23 -15 24 -42v0zM128 121q14 0 23 9v0v0q9 9 9 23t-9 23t-23 9t-23 -9t-9 -23t9 -23t23 -9v0z" />
</svg>
