<?xml version="1.0" standalone="no"?>
<!DOCTYPE svg PUBLIC "-//W3C//DTD SVG 1.1//EN" "http://www.w3.org/Graphics/SVG/1.1/DTD/svg11.dtd" >
<svg xmlns="http://www.w3.org/2000/svg" xmlns:xlink="http://www.w3.org/1999/xlink" version="1.1" viewBox="-10 -40 532 512">
   <path fill="currentColor"
d="M120 -39h40h-40h40q33 0 58 18q26 17 38 46q12 -29 38 -46q25 -18 58 -18h40v0q14 0 23 9t9 23v8v0q0 28 -13 51l-16 -4q13 -21 13 -47v-8v0q-1 -15 -16 -16h-40v0q-35 1 -59 22q-24 22 -28 56h-18q-4 -34 -28 -56q-24 -21 -59 -22h-40v0q-15 1 -16 16v8v0q0 26 13 47
q-8 2 -15 4q-14 -23 -14 -51v-8v0q0 -14 9 -23t23 -9v0zM168 89q-65 2 -107 45v0v0q-43 42 -45 107q1 45 29 82q27 37 69 65q41 28 78 45t54 22q5 2 10 2q6 0 10 -2q16 -5 54 -22q37 -17 78 -45q42 -28 69 -65q28 -37 29 -82q-2 -65 -45 -107q-42 -43 -107 -45q-25 0 -47 8
q-16 4 -32 6q11 6 21 14q25 20 41 46q16 25 17 54q-1 7 -8 8q-7 -1 -8 -8q-3 -48 -52 -87q-24 -19 -52 -30t-56 -11v0zM0 241q2 -71 49 -119v0v0q48 -47 119 -49q28 0 52 8q36 12 72 0q25 -8 52 -8q71 2 119 49q47 48 49 119q-1 51 -32 91q-30 40 -73 69q-42 29 -81 46
q-38 18 -55 23q-7 3 -15 3t-15 -3q-17 -5 -55 -23q-39 -17 -81 -46q-43 -29 -73 -69q-31 -40 -32 -91v0z" />
</svg>
