<?xml version="1.0" standalone="no"?>
<!DOCTYPE svg PUBLIC "-//W3C//DTD SVG 1.1//EN" "http://www.w3.org/Graphics/SVG/1.1/DTD/svg11.dtd" >
<svg xmlns="http://www.w3.org/2000/svg" xmlns:xlink="http://www.w3.org/1999/xlink" version="1.1" viewBox="-10 -40 656 512">
   <path fill="currentColor"
d="M597 -7l11 12l-11 -12l11 12q12 12 12 28t-12 28l-40 41v0l-68 -69v0l40 -40v0q12 -12 28 -12t28 12h1zM333 203l156 -158l-156 158l156 -158l68 68v0l-157 157v0q-9 8 -20 11l-74 15v0l16 -73v0q2 -12 11 -20v0zM528 -18l-207 209l207 -209l-207 209q-11 12 -15 28
l-18 86v0q-1 4 2 7t8 2l85 -18v0q16 -3 28 -15l209 -208v0q16 -18 16 -40t-16 -40l-12 -11v0q-18 -17 -40 -17t-40 17v0zM56 89q-24 1 -40 16v0v0q-15 16 -16 40v272v0q1 24 16 40q16 15 40 16h464v0q24 -1 40 -16q15 -16 16 -40v-192v0q-1 -7 -8 -8q-7 1 -8 8v192v0
q0 17 -12 28q-11 12 -28 12h-464v0q-17 0 -28 -12q-12 -11 -12 -28v-272v0q0 -17 12 -28q11 -12 28 -12h256v0q7 -1 8 -8q-1 -7 -8 -8h-256v0zM128 297q15 -1 16 -16q-1 -15 -16 -16q-15 1 -16 16q1 15 16 16v0zM240 281q-1 -15 -16 -16q-15 1 -16 16q1 15 16 16
q15 -1 16 -16v0z" />
</svg>
