<?xml version="1.0" standalone="no"?>
<!DOCTYPE svg PUBLIC "-//W3C//DTD SVG 1.1//EN" "http://www.w3.org/Graphics/SVG/1.1/DTD/svg11.dtd" >
<svg xmlns="http://www.w3.org/2000/svg" xmlns:xlink="http://www.w3.org/1999/xlink" version="1.1" viewBox="-10 -40 660 512">
   <path fill="currentColor"
d="M13 -37q-6 -4 -11 1q-4 6 1 11l624 496v0q6 4 11 -1q4 -6 -1 -11l-624 -496v0zM561 89q14 -14 14 -34v0v0q0 -19 -14 -34l-45 -45v0q-15 -14 -34 -14q-20 0 -34 14l-140 140v0l12 10v0l61 -61v0l91 91v0l-50 50v0l13 10v0l126 -127v0zM138 308l80 -80l-80 80l80 -80
l-13 -10v0l-79 79v0q-18 19 -26 44l-36 122v0q-1 4 2 8q4 3 8 2l122 -36v0q25 -8 44 -26l92 -93v0l-12 -10v0l-91 91v0q-16 16 -38 23l-107 31v0l31 -107v0q7 -22 23 -38v0zM459 -13q10 -9 23 -9v0v0q12 0 22 9l46 46v0q9 10 9 22q0 13 -9 23l-67 67v0l-91 -91v0l67 -67v0z
" />
</svg>
