<?xml version="1.0" standalone="no"?>
<!DOCTYPE svg PUBLIC "-//W3C//DTD SVG 1.1//EN" "http://www.w3.org/Graphics/SVG/1.1/DTD/svg11.dtd" >
<svg xmlns="http://www.w3.org/2000/svg" xmlns:xlink="http://www.w3.org/1999/xlink" version="1.1" viewBox="-10 -40 652 512">
   <path fill="currentColor"
d="M120 17q1 -23 20 -35q20 -10 40 0q19 12 20 35q-1 23 -20 35q-20 10 -40 0q-19 -12 -20 -35v0zM216 17q-1 -32 -28 -48q-28 -16 -56 0q-27 16 -28 48q1 32 28 48q28 16 56 0q27 -16 28 -48v0zM91 137q16 -31 50 -32h38v0q34 1 50 32l68 140v0q4 6 11 3q6 -4 3 -10
l-67 -140v0q-21 -39 -65 -41h-38v0q-44 2 -65 41l-67 140v0q-3 6 4 10q6 3 10 -3l68 -140v0zM96 201q-7 1 -8 8v232v0q0 14 9 23t23 9t23 -9t9 -23v-120v0q1 -7 8 -8q7 1 8 8v120v0q0 14 9 23t23 9t23 -9t9 -23v-232v0q-1 -7 -8 -8q-7 1 -8 8v232v0q-1 15 -16 16
q-15 -1 -16 -16v-120v0q-2 -22 -24 -24q-22 2 -24 24v120v0q-1 15 -16 16q-15 -1 -16 -16v-232v0q-1 -7 -8 -8v0zM440 17q1 -23 20 -35q20 -10 40 0q19 12 20 35q-1 23 -20 35q-20 10 -40 0q-19 -12 -20 -35v0zM536 17q-1 -32 -28 -48q-28 -16 -56 0q-27 16 -28 48
q1 32 28 48q28 16 56 0q27 -16 28 -48v0zM440 172q1 -8 -5 -11q-8 -1 -11 6l-56 168v0q-1 3 2 7q2 3 6 3h32v0v96v0q0 14 9 23t23 9t23 -9t9 -23v-96v0h16v0v96v0q0 14 9 23t23 9t23 -9t9 -23v-96v0h32v0q4 0 7 -3q2 -4 1 -7l-56 -168v0q-3 -7 -10 -6q-7 3 -6 11l53 157v0
h-29h-157l53 -157v0zM424 441v-96v96v-96h32v0v96v0q-1 15 -16 16q-15 -1 -16 -16v0zM504 345h32h-32h32v96v0q-1 15 -16 16q-15 -1 -16 -16v-96v0zM476 105h8h-8h8q23 0 42 12q20 12 30 33l61 126v0q4 7 11 4q6 -4 3 -11l-61 -126v0q-12 -25 -35 -39q-23 -15 -51 -15h-8v0
q-28 0 -51 15q-23 14 -35 39l-61 127v0q-3 6 4 10q6 3 10 -3l61 -127v0q10 -21 30 -33q19 -12 42 -12v0z" />
</svg>
