<?xml version="1.0" standalone="no"?>
<!DOCTYPE svg PUBLIC "-//W3C//DTD SVG 1.1//EN" "http://www.w3.org/Graphics/SVG/1.1/DTD/svg11.dtd" >
<svg xmlns="http://www.w3.org/2000/svg" xmlns:xlink="http://www.w3.org/1999/xlink" version="1.1" viewBox="-10 -40 522 512">
   <path fill="currentColor"
d="M128 -23q27 1 42 24q12 24 0 48q-15 23 -42 24q-27 -1 -42 -24q-12 -24 0 -48q15 -23 42 -24v0zM128 89q36 -1 55 -32q18 -32 0 -64q-19 -31 -55 -32q-36 1 -55 32q-18 32 0 64q19 31 55 32v0zM106 137h44h-44h44q26 1 44 17q17 16 20 42l4 49v0q1 22 -12 37
q-14 14 -35 15h-27h-58q-22 -1 -36 -15q-13 -15 -12 -37l4 -49v0q3 -26 20 -42q18 -16 44 -17v0zM120 313h16h-16h16v128v0q0 14 9 23t23 9t23 -9t9 -23v-135v0q35 -20 34 -62l-4 -50v0q-3 -31 -25 -52q-23 -20 -55 -21h-44v0q-32 1 -55 21q-22 21 -25 52l-4 50v0
q-2 20 8 36q9 17 26 26v135v0q0 14 9 23t23 9t23 -9t9 -23v-128v0zM184 441q-1 15 -16 16q-15 -1 -16 -16v-128v0h18v0q7 0 14 -1v129v0zM104 313v128v-128v128q-1 15 -16 16q-15 -1 -16 -16v-129v0q7 1 14 1h18v0zM384 -23q27 1 42 24q12 24 0 48q-15 23 -42 24
q-27 -1 -42 -24q-12 -24 0 -48q15 -23 42 -24v0zM384 89q36 -1 55 -32q18 -32 0 -64q-19 -31 -55 -32q-36 1 -55 32q-18 32 0 64q19 31 55 32v0zM362 137h44h-44h44q26 1 44 17q17 16 20 42l4 49v0q1 22 -12 37q-14 14 -35 15h-27h-58q-22 -1 -36 -15q-13 -15 -12 -37l4 -49
v0q3 -26 20 -42q18 -16 44 -17v0zM376 313h16h-16h16v128v0q0 14 9 23t23 9t23 -9t9 -23v-135v0q35 -20 34 -62l-4 -50v0q-3 -31 -25 -52q-23 -20 -55 -21h-44v0q-32 1 -55 21q-22 21 -25 52l-4 50v0q-2 20 8 36q9 17 26 26v135v0q0 14 9 23t23 9t23 -9t9 -23v-128v0z
M440 441q-1 15 -16 16q-15 -1 -16 -16v-128v0h18v0q7 0 14 -1v129v0zM360 313v128v-128v128q-1 15 -16 16q-15 -1 -16 -16v-129v0q7 1 14 1h18v0z" />
</svg>
