<?xml version="1.0" standalone="no"?>
<!DOCTYPE svg PUBLIC "-//W3C//DTD SVG 1.1//EN" "http://www.w3.org/Graphics/SVG/1.1/DTD/svg11.dtd" >
<svg xmlns="http://www.w3.org/2000/svg" xmlns:xlink="http://www.w3.org/1999/xlink" version="1.1" viewBox="-10 -40 660 512">
   <path fill="currentColor"
d="M91 187q-10 4 -11 16v65v0q0 6 5 11l50 50v0q9 9 9 23v89v0q-1 15 -16 16q-15 -1 -16 -16v-83v0q0 -6 -5 -11l-77 -77v0q-14 -14 -14 -34v-88v0q0 -18 12 -31q13 -12 31 -12q29 1 46 25l43 64v0q5 7 13 7h47v0q15 1 16 16q-1 15 -16 16h-55v0q-17 0 -27 -14l-17 -25v0
q-6 -9 -17 -7h-1zM112 227l1 1l-1 -1l1 1q14 20 40 21h55v0v120v0v96v0q1 7 8 8q7 -1 8 -8v-88v0h400v0v88v0q1 7 8 8q7 -1 8 -8v-96v0v-208v0v-176v0q-2 -22 -24 -24h-112v0q-22 2 -24 24v38v0q0 3 1 7l45 143v0l-288 56v0q2 -6 2 -12q0 -14 -9 -23t-23 -9h-47v0l-42 -64v0
q-22 -31 -60 -32q-25 1 -42 17q-16 17 -17 42v88v0q0 26 19 45l77 77v0v83v0q0 14 9 23t23 9t23 -9t9 -23v-89v0q0 -20 -14 -34l-50 -50v0v-36v0v-29v0l16 24v0zM80 -23q14 0 23 9v0v0q9 9 9 23t-9 23t-23 9t-23 -9t-9 -23t9 -23t23 -9v0zM128 9q-1 -27 -24 -42
q-24 -12 -48 0q-23 15 -24 42q1 27 24 42q24 12 48 0q23 -15 24 -42v0zM624 154l-82 16l82 -16l-82 16l-46 -145v0v-2v-38v0q1 -7 8 -8h112v0q7 1 8 8v169v0zM224 361v-113v113v-113l400 -77v0v190v0h-400v0zM320 281q-1 -15 -16 -16q-15 1 -16 16q1 15 16 16q15 -1 16 -16
v0zM0 441q0 14 9 23v0v0q9 9 23 9t23 -9t9 -23v0v0v-69v0l-16 -16v0v85v0q-1 15 -16 16q-15 -1 -16 -16v-117v0l-16 -16v0v133v0z" />
</svg>
