<?xml version="1.0" standalone="no"?>
<!DOCTYPE svg PUBLIC "-//W3C//DTD SVG 1.1//EN" "http://www.w3.org/Graphics/SVG/1.1/DTD/svg11.dtd" >
<svg xmlns="http://www.w3.org/2000/svg" xmlns:xlink="http://www.w3.org/1999/xlink" version="1.1" viewBox="-10 -40 660 512">
   <path fill="currentColor"
d="M64 9q-20 1 -34 14v0v0q-13 14 -14 34v320v0q1 20 14 34q14 13 34 14h512v0q20 -1 34 -14q13 -14 14 -34v-320v0q-1 -20 -14 -34q-14 -13 -34 -14h-512v0zM0 57q1 -27 19 -45v0v0q18 -18 45 -19h512v0q27 1 45 19t19 45v320v0q-1 27 -19 45t-45 19h-512v0q-27 -1 -45 -19
t-19 -45v-320v0zM88 121h56h-56h56q24 1 40 16q15 16 16 40q-1 24 -16 40q-16 15 -40 16h-48v0v72v0q-1 7 -8 8q-7 -1 -8 -8v-80v0v-96v0q1 -7 8 -8v0zM144 217q17 0 28 -12v0v0q12 -11 12 -28t-12 -28q-11 -12 -28 -12h-48v0v80v0h48v0zM408 193q1 -31 21 -51v0v0
q20 -20 51 -21q31 1 51 21t21 51v48v0q-1 31 -21 51t-51 21q-31 -1 -51 -21t-21 -51v-48v0zM480 137q-24 1 -40 16v0v0q-15 16 -16 40v48v0q1 24 16 40q16 15 40 16q24 -1 40 -16q15 -16 16 -40v-48v0q-1 -24 -16 -40q-16 -15 -40 -16v0zM248 121h56h-56h56q24 1 40 16
q15 16 16 40q-2 39 -37 53l36 71v0q3 7 -3 11q-7 3 -11 -3l-38 -76v0h-1h-2h-48v0v72v0q-1 7 -8 8q-7 -1 -8 -8v-80v0v-96v0q1 -7 8 -8v0zM304 217q17 0 28 -12v0v0q12 -11 12 -28t-12 -28q-11 -12 -28 -12h-48v0v80v0h48v0z" />
</svg>
