<?xml version="1.0" standalone="no"?>
<!DOCTYPE svg PUBLIC "-//W3C//DTD SVG 1.1//EN" "http://www.w3.org/Graphics/SVG/1.1/DTD/svg11.dtd" >
<svg xmlns="http://www.w3.org/2000/svg" xmlns:xlink="http://www.w3.org/1999/xlink" version="1.1" viewBox="-10 -40 650 512">
   <path fill="currentColor"
d="M80 25q1 -27 24 -42q24 -12 48 0q23 15 24 42q-1 27 -24 42q-24 12 -48 0q-23 -15 -24 -42v0zM192 25q-1 -36 -32 -55q-32 -18 -64 0q-31 19 -32 55q1 36 32 55q32 18 64 0q31 -19 32 -55v0zM42 196q3 -26 20 -42v0v0q18 -16 44 -17h44v0q26 1 44 17q17 16 20 42l4 49v0
q1 22 -12 37q-14 14 -35 15h-27h-58q-22 -1 -36 -15q-13 -15 -12 -37l4 -49v0zM136 313v128v-128v128q0 14 9 23t23 9t23 -9t9 -23v-135v0q35 -20 34 -62l-4 -50v0q-3 -31 -25 -52q-23 -20 -55 -21h-44v0q-32 1 -55 21q-22 21 -25 52l-4 50v0q-2 20 8 36q9 17 26 26v135v0
q0 14 9 23t23 9t23 -9t9 -23v-128v0h16v0zM184 312v129v-129v129q-1 15 -16 16q-15 -1 -16 -16v-128v0h18v0q7 0 14 -1v0zM86 313h18h-18h18v128v0q-1 15 -16 16q-15 -1 -16 -16v-129v0q7 1 14 1v0zM312 -39q-7 1 -8 8v496v0q1 7 8 8q7 -1 8 -8v-496v0q-1 -7 -8 -8v0z
M512 -23q27 1 42 24q12 24 0 48q-15 23 -42 24q-27 -1 -42 -24q-12 -24 0 -48q15 -23 42 -24v0zM512 89q36 -1 55 -32q18 -32 0 -64q-19 -31 -55 -32q-36 1 -55 32q-18 32 0 64q19 31 55 32v0zM496 137h32h-32h32q16 0 29 10q12 9 17 25l39 137v0q2 17 -15 20h-22h-150
q-17 -3 -15 -20l39 -137v0q12 -33 46 -35v0zM504 345h16h-16h16v96v0q0 14 9 23t23 9t23 -9t9 -23v-96v0h14v0q16 -1 25 -13t5 -28l-39 -137v0q-6 -21 -23 -33q-16 -13 -38 -13h-32v0q-22 0 -38 13q-17 12 -23 33l-39 137v0q-4 16 5 28t26 13h13v0v96v0q0 14 9 23t23 9
t23 -9t9 -23v-96v0zM568 441q-1 15 -16 16q-15 -1 -16 -16v-96v0h32v0v96v0zM488 345v96v-96v96q-1 15 -16 16q-15 -1 -16 -16v-96v0h32v0z" />
</svg>
