<?xml version="1.0" standalone="no"?>
<!DOCTYPE svg PUBLIC "-//W3C//DTD SVG 1.1//EN" "http://www.w3.org/Graphics/SVG/1.1/DTD/svg11.dtd" >
<svg xmlns="http://www.w3.org/2000/svg" xmlns:xlink="http://www.w3.org/1999/xlink" version="1.1" viewBox="-10 -40 522 512">
   <path fill="currentColor"
d="M256 9q49 0 91 21v0v0q42 20 71 56l38 51v0h-80v0q-7 1 -8 8q1 7 8 8h96v0q7 -1 8 -8v-96v0q-1 -7 -8 -8q-7 1 -8 8v72v0l-34 -44v0v0v0v-1v0q-31 -38 -76 -60q-45 -23 -98 -23q-77 1 -134 45q-57 43 -80 113q-1 7 5 10q7 1 10 -6q21 -64 74 -105q54 -40 125 -41v0z
M264 97q-1 -7 -8 -8q-7 1 -8 8v160v0q1 7 8 8q7 -1 8 -8v-160v0zM256 329q15 -1 16 -16q-1 -15 -16 -16q-15 1 -16 16q1 15 16 16v0zM32 385q1 7 8 8q7 -1 8 -8v-74v0l35 47v0v0v0v0v0q32 38 76 60q45 23 99 23q76 -1 134 -45q57 -43 80 -113q1 -7 -6 -10q-7 -1 -10 6
q-21 64 -74 105q-53 40 -124 41q-50 0 -91 -21q-42 -20 -71 -56l-38 -51v0h78v0q7 -1 8 -8q-1 -7 -8 -8h-96v0q-7 1 -8 8v96v0z" />
</svg>
