<?xml version="1.0" standalone="no"?>
<!DOCTYPE svg PUBLIC "-//W3C//DTD SVG 1.1//EN" "http://www.w3.org/Graphics/SVG/1.1/DTD/svg11.dtd" >
<svg xmlns="http://www.w3.org/2000/svg" xmlns:xlink="http://www.w3.org/1999/xlink" version="1.1" viewBox="-10 -40 468 512">
   <path fill="currentColor"
d="M432 329v-304v304v-304q-1 -20 -14 -34q-14 -13 -34 -14h-149v0q-20 0 -34 14l-91 91v0q-14 14 -14 34v213v0q1 20 14 34q14 13 34 14h240v0q20 -1 34 -14q13 -14 14 -34v0zM448 25v304v-304v304q-1 27 -19 45t-45 19h-240v0q-27 -1 -45 -19t-19 -45v-213v0q0 -27 19 -46
l90 -90v0q19 -19 46 -19h149v0q27 1 45 19t19 45v0zM240 33q7 1 8 8v64v0q-1 7 -8 8q-7 -1 -8 -8v-64v0q1 -7 8 -8v0zM304 33q7 1 8 8v64v0q-1 7 -8 8q-7 -1 -8 -8v-64v0q1 -7 8 -8v0zM368 33q7 1 8 8v64v0q-1 7 -8 8q-7 -1 -8 -8v-64v0q1 -7 8 -8v0zM19 150l29 -29l-29 29
l29 -29v23v0l-18 18v0q-14 14 -14 34v213v0q1 20 14 34q14 13 34 14h240v0q33 -2 45 -32h17v0q-6 21 -22 34q-17 14 -40 14h-240v0q-27 -1 -45 -19t-19 -45v-213v0q0 -27 19 -46v0z" />
</svg>
