<?xml version="1.0" standalone="no"?>
<!DOCTYPE svg PUBLIC "-//W3C//DTD SVG 1.1//EN" "http://www.w3.org/Graphics/SVG/1.1/DTD/svg11.dtd" >
<svg xmlns="http://www.w3.org/2000/svg" xmlns:xlink="http://www.w3.org/1999/xlink" version="1.1" viewBox="-10 -40 528 512">
   <path fill="currentColor"
d="M188 36q-5 5 -11 5h-65v0q-14 0 -23 9t-9 23v65v0q0 6 -5 11l-45 45v0q-10 10 -10 23t10 23l45 45v0q5 5 5 12v64v0q0 14 9 23t23 9h65v0q6 0 11 5l45 45v0q10 10 23 10t23 -10l45 -45v0q5 -5 12 -5h64v0q14 0 23 -9t9 -23v-64v0q0 -7 5 -12l45 -45v0q10 -10 10 -23
t-10 -23l-45 -45v0q-5 -5 -5 -12v-64v0q0 -14 -9 -23t-23 -9h-64v0q-7 0 -12 -5l-45 -45v0l11 -12v0l46 46v0h64v0q20 1 34 14q13 14 14 34v65v0l46 45v0q14 15 14 34t-14 34l-46 46v0v64v0q-1 20 -14 34q-14 13 -34 14h-64v0l-46 46v0q-15 14 -34 14t-34 -14l-45 -46v0h-65
v0q-20 -1 -34 -14q-13 -14 -14 -34v-64v0l-46 -46v0q-14 -15 -14 -34t14 -34l46 -45v0v-65v0q1 -20 14 -34q14 -13 34 -14h65v0l45 -46v0q15 -14 34 -14t34 14l-11 12v0q-10 -10 -23 -10t-23 10l-45 45v0z" />
</svg>
