<?xml version="1.0" standalone="no"?>
<!DOCTYPE svg PUBLIC "-//W3C//DTD SVG 1.1//EN" "http://www.w3.org/Graphics/SVG/1.1/DTD/svg11.dtd" >
<svg xmlns="http://www.w3.org/2000/svg" xmlns:xlink="http://www.w3.org/1999/xlink" version="1.1" viewBox="-10 -40 404 512">
   <path fill="currentColor"
d="M144 0q1 -17 12 -28v0v0q11 -11 28 -11h16v0q17 0 28 11t12 28q53 16 86 60q33 43 34 101v24v0h16v0q7 1 8 8q-1 7 -8 8h-24h-344q-7 -1 -8 -8q1 -7 8 -8h16v0v-24v0q1 -58 34 -101q33 -44 86 -60v0zM344 161q-1 -54 -32 -94v0v0q-32 -40 -82 -53q-6 -2 -6 -8v-5v0
q-2 -22 -24 -24h-16v0q-22 2 -24 24v5v0q0 6 -6 8q-50 13 -82 53q-31 40 -32 94v24v0h304v0v-24v0zM241 433q-1 3 -1 7v1v0q1 15 16 16q15 -1 16 -16v-1v0q0 -4 -1 -7l-15 -34v0l-15 34v0zM227 427l18 -43l-18 43l18 -43q3 -7 11 -7t11 7l19 43v0q2 6 2 13v1v0q0 14 -9 23
t-23 9q-13 0 -22 -9t-10 -23v-1v0q0 -7 3 -13v0zM320 271l-15 34l15 -34l-15 34q-1 3 -1 7v1v0q1 15 16 16q15 -1 16 -16v-1v0q0 -4 -1 -7l-15 -34v0zM309 256q3 -7 11 -7t11 7l18 43v0q3 6 3 13v1v0q0 14 -9 23t-23 9t-23 -9t-9 -23v-1v0q0 -7 3 -13l18 -43v0zM113 433
q-1 3 -1 7v1v0q1 15 16 16q15 -1 16 -16v-1v0q0 -4 -1 -7l-15 -34v0l-15 34v0zM99 427l18 -43l-18 43l18 -43q3 -7 11 -7t11 7l19 43v0q2 6 2 13v1v0q0 14 -9 23t-23 9q-13 0 -22 -9t-10 -23v-1v0q0 -7 3 -13v0zM192 271l-15 34l15 -34l-15 34q-1 3 -1 7v1v0q1 15 16 16
q15 -1 16 -16v-1v0q0 -4 -1 -7l-15 -34v0zM181 256q3 -7 11 -7t11 7l18 43v0q3 6 3 13v1v0q0 14 -9 23t-23 9t-23 -9t-9 -23v-1v0q0 -7 3 -13l18 -43v0zM49 305q-1 3 -1 7v1v0q1 15 16 16q15 -1 16 -16v-1v0q0 -4 -1 -7l-15 -34v0l-15 34v0zM35 299l18 -43l-18 43l18 -43
q3 -7 11 -7t11 7l19 43v0q2 6 2 13v1v0q0 14 -9 23t-23 9q-13 0 -22 -9t-10 -23v-1v0q0 -7 3 -13v0z" />
</svg>
