<?xml version="1.0" standalone="no"?>
<!DOCTYPE svg PUBLIC "-//W3C//DTD SVG 1.1//EN" "http://www.w3.org/Graphics/SVG/1.1/DTD/svg11.dtd" >
<svg xmlns="http://www.w3.org/2000/svg" xmlns:xlink="http://www.w3.org/1999/xlink" version="1.1" viewBox="-10 -40 532 512">
   <path fill="currentColor"
d="M64 9q-20 1 -34 14v0v0q-13 14 -14 34v320v0q1 20 14 34q14 13 34 14h224v0v-416v0h-224v0zM448 9h-144h144h-144v416v0h144v0q20 -1 34 -14q13 -14 14 -34v-320v0q-1 -20 -14 -34q-14 -13 -34 -14v0zM448 -7q27 1 45 19v0v0q18 18 19 45v320v0q-1 27 -19 45t-45 19h-384
v0q-27 -1 -45 -19t-19 -45v-320v0q1 -27 19 -45t45 -19h384v0zM440 57q7 1 8 8q-1 7 -8 8h-80v0q-7 -1 -8 -8q1 -7 8 -8h80v0zM448 129q-1 7 -8 8h-80v0q-7 -1 -8 -8q1 -7 8 -8h80v0q7 1 8 8v0zM440 185q7 1 8 8q-1 7 -8 8h-80v0q-7 -1 -8 -8q1 -7 8 -8h80v0z" />
</svg>
