<?xml version="1.0" standalone="no"?>
<!DOCTYPE svg PUBLIC "-//W3C//DTD SVG 1.1//EN" "http://www.w3.org/Graphics/SVG/1.1/DTD/svg11.dtd" >
<svg xmlns="http://www.w3.org/2000/svg" xmlns:xlink="http://www.w3.org/1999/xlink" version="1.1" viewBox="-10 -40 468 512">
   <path fill="currentColor"
d="M64 9q-20 1 -34 14v0v0q-13 14 -14 34v320v0q1 20 14 34q14 13 34 14h320v0q20 -1 34 -14q13 -14 14 -34v-320v0q-1 -20 -14 -34q-14 -13 -34 -14h-320v0zM0 57q1 -27 19 -45v0v0q18 -18 45 -19h320v0q27 1 45 19t19 45v320v0q-1 27 -19 45t-45 19h-320v0q-27 -1 -45 -19
t-19 -45v-320v0zM228 90q4 2 4 7v232v0h56v0q7 1 8 8q-1 7 -8 8h-64h-64q-7 -1 -8 -8q1 -7 8 -8h56v0v-218v0l-44 25v0q-7 3 -11 -3q-3 -7 3 -11l56 -32v0q4 -2 8 0v0z" />
</svg>
