<?xml version="1.0" standalone="no"?>
<!DOCTYPE svg PUBLIC "-//W3C//DTD SVG 1.1//EN" "http://www.w3.org/Graphics/SVG/1.1/DTD/svg11.dtd" >
<svg xmlns="http://www.w3.org/2000/svg" xmlns:xlink="http://www.w3.org/1999/xlink" version="1.1" viewBox="-10 -40 468 512">
   <path fill="currentColor"
d="M64 9q-20 1 -34 14v0v0q-13 14 -14 34v320v0q1 20 14 34q14 13 34 14h320v0q20 -1 34 -14q13 -14 14 -34v-320v0q-1 -20 -14 -34q-14 -13 -34 -14h-320v0zM0 57q1 -27 19 -45v0v0q18 -18 45 -19h320v0q27 1 45 19t19 45v320v0q-1 27 -19 45t-45 19h-320v0q-27 -1 -45 -19
t-19 -45v-320v0zM187 119l-30 24l30 -24l-30 24q-6 4 -11 -1q-4 -6 1 -11l30 -24v0q22 -18 50 -18h3v0q31 2 52 23t22 53q0 31 -22 54l-111 110v0h141v0q7 1 8 8q-1 7 -8 8h-160v0q-5 0 -7 -5t1 -9l125 -124v0q17 -17 17 -42q-1 -25 -17 -42q-17 -17 -42 -18h-2v0
q-22 0 -40 14v0z" />
</svg>
