<?xml version="1.0" standalone="no"?>
<!DOCTYPE svg PUBLIC "-//W3C//DTD SVG 1.1//EN" "http://www.w3.org/Graphics/SVG/1.1/DTD/svg11.dtd" >
<svg xmlns="http://www.w3.org/2000/svg" xmlns:xlink="http://www.w3.org/1999/xlink" version="1.1" viewBox="-10 -40 468 512">
   <path fill="currentColor"
d="M64 9q-20 1 -34 14v0v0q-13 14 -14 34v320v0q1 20 14 34q14 13 34 14h320v0q20 -1 34 -14q13 -14 14 -34v-320v0q-1 -20 -14 -34q-14 -13 -34 -14h-320v0zM0 57q1 -27 19 -45v0v0q18 -18 45 -19h320v0q27 1 45 19t19 45v320v0q-1 27 -19 45t-45 19h-320v0q-27 -1 -45 -19
t-19 -45v-320v0zM232 89q27 1 45 19v0v0q18 18 19 45q-1 35 -29 53q20 9 32 26q13 18 13 41q-1 31 -21 51t-51 21h-32v0q-31 -1 -51 -21t-21 -51q0 -23 13 -41q12 -17 32 -26q-28 -18 -29 -53q1 -27 19 -45t45 -19h16v0zM232 217h-16h16h-16v0v0h-8v0q-24 1 -40 16
q-15 16 -16 40q1 24 16 40q16 15 40 16h32v0q24 -1 40 -16q15 -16 16 -40q-1 -24 -16 -40q-16 -15 -40 -16h-8v0v0v0zM280 153q-1 -20 -14 -34v0v0q-14 -13 -34 -14h-16v0q-20 1 -34 14q-13 14 -14 34q1 20 14 34q14 13 34 14v0v0h16v0v0v0q20 -1 34 -14q13 -14 14 -34v0z
" />
</svg>
