<?xml version="1.0" standalone="no"?>
<!DOCTYPE svg PUBLIC "-//W3C//DTD SVG 1.1//EN" "http://www.w3.org/Graphics/SVG/1.1/DTD/svg11.dtd" >
<svg xmlns="http://www.w3.org/2000/svg" xmlns:xlink="http://www.w3.org/1999/xlink" version="1.1" viewBox="-10 -40 468 512">
   <path fill="currentColor"
d="M64 9q-20 1 -34 14v0v0q-13 14 -14 34v320v0q1 20 14 34q14 13 34 14h320v0q20 -1 34 -14q13 -14 14 -34v-320v0q-1 -20 -14 -34q-14 -13 -34 -14h-320v0zM0 57q1 -27 19 -45v0v0q18 -18 45 -19h320v0q27 1 45 19t19 45v320v0q-1 27 -19 45t-45 19h-320v0q-27 -1 -45 -19
t-19 -45v-320v0zM160 142q0 16 11 27l25 25v0l38 -28v0q14 -9 14 -26v-3v0q0 -14 -9 -23t-23 -9h-19v0q-16 0 -26 11q-11 10 -11 26v0zM244 180l-37 25l37 -25l-37 25l71 71v0l44 -56v0q5 -5 11 -1q5 5 1 11l-45 57v0l45 44v0q4 6 0 12q-6 4 -12 0l-43 -43v0l-16 21v0
q-19 23 -50 24h-40v0q-26 -1 -43 -18t-18 -43q1 -31 26 -49l45 -32v0l-23 -23v0q-16 -16 -16 -38q1 -22 16 -37q15 -16 37 -16h19v0q20 0 34 14q13 14 14 34v3v0q-1 25 -20 39v1zM147 248q-18 13 -19 36q0 19 13 32t32 13h40v0q23 -1 37 -18l18 -23v0l-74 -73v0l-47 33v0z
" />
</svg>
