<?xml version="1.0" standalone="no"?>
<!DOCTYPE svg PUBLIC "-//W3C//DTD SVG 1.1//EN" "http://www.w3.org/Graphics/SVG/1.1/DTD/svg11.dtd" >
<svg xmlns="http://www.w3.org/2000/svg" xmlns:xlink="http://www.w3.org/1999/xlink" version="1.1" viewBox="-10 -40 468 512">
   <path fill="currentColor"
d="M88 -7h32h-32h32q7 1 8 8q-1 7 -8 8h-32v0q-31 1 -51 21t-21 51v32v0q-1 7 -8 8q-7 -1 -8 -8v-32v0q1 -37 26 -62t62 -26v0zM8 153q7 1 8 8v112v0q-1 7 -8 8q-7 -1 -8 -8v-112v0q1 -7 8 -8v0zM440 153q7 1 8 8v112v0q-1 7 -8 8q-7 -1 -8 -8v-112v0q1 -7 8 -8v0zM440 121
q-7 -1 -8 -8v-32v0q-1 -31 -21 -51t-51 -21h-32v0q-7 -1 -8 -8q1 -7 8 -8h32v0q37 1 62 26t26 62v32v0q-1 7 -8 8v0zM448 321v32v-32v32q-1 37 -26 62t-62 26h-32v0q-7 -1 -8 -8q1 -7 8 -8h32v0q31 -1 51 -21t21 -51v-32v0q1 -7 8 -8q7 1 8 8v0zM16 321v32v-32v32
q1 31 21 51t51 21h32v0q7 1 8 8q-1 7 -8 8h-32v0q-37 -1 -62 -26t-26 -62v-32v0q1 -7 8 -8q7 1 8 8v0zM168 441q-7 -1 -8 -8q1 -7 8 -8h112v0q7 1 8 8q-1 7 -8 8h-112v0zM160 1q1 -7 8 -8h112v0q7 1 8 8q-1 7 -8 8h-112v0q-7 -1 -8 -8v0z" />
</svg>
