<?xml version="1.0" standalone="no"?>
<!DOCTYPE svg PUBLIC "-//W3C//DTD SVG 1.1//EN" "http://www.w3.org/Graphics/SVG/1.1/DTD/svg11.dtd" >
<svg xmlns="http://www.w3.org/2000/svg" xmlns:xlink="http://www.w3.org/1999/xlink" version="1.1" viewBox="-10 -40 468 512">
   <path fill="currentColor"
d="M64 9q-20 1 -34 14v0v0q-13 14 -14 34v320v0q1 20 14 34q14 13 34 14h320v0q20 -1 34 -14q13 -14 14 -34v-320v0q-1 -20 -14 -34q-14 -13 -34 -14h-320v0zM0 57q1 -27 19 -45v0v0q18 -18 45 -19h320v0q27 1 45 19t19 45v320v0q-1 27 -19 45t-45 19h-320v0q-27 -1 -45 -19
t-19 -45v-320v0zM111 92l113 159l-113 -159l113 159l114 -159v0q3 -4 9 -3q5 2 5 8v240v0q-1 7 -8 8q-7 -1 -8 -8v-215v0l-105 148v0q-3 3 -7 3t-6 -3l-106 -148v0v215v0q-1 7 -8 8q-7 -1 -8 -8v-240v0q0 -6 6 -8q5 -1 9 3v0z" />
</svg>
