<?xml version="1.0" standalone="no"?>
<!DOCTYPE svg PUBLIC "-//W3C//DTD SVG 1.1//EN" "http://www.w3.org/Graphics/SVG/1.1/DTD/svg11.dtd" >
<svg xmlns="http://www.w3.org/2000/svg" xmlns:xlink="http://www.w3.org/1999/xlink" version="1.1" viewBox="-10 -40 468 512">
   <path fill="currentColor"
d="M64 9q-20 1 -34 14v0v0q-13 14 -14 34v320v0q1 20 14 34q14 13 34 14h320v0q20 -1 34 -14q13 -14 14 -34v-320v0q-1 -20 -14 -34q-14 -13 -34 -14h-320v0zM0 57q1 -27 19 -45v0v0q18 -18 45 -19h320v0q27 1 45 19t19 45v320v0q-1 27 -19 45t-45 19h-320v0q-27 -1 -45 -19
t-19 -45v-320v0zM112 217q0 30 15 56v0v0q15 26 41 41t56 15t56 -15t41 -41t15 -56t-15 -56t-41 -41t-56 -15t-56 15t-41 41t-15 56v0zM224 345q-35 0 -64 -17v0v0q-29 -17 -47 -47q-17 -30 -17 -64t17 -64q18 -30 47 -47t64 -17t64 17t47 47q17 30 17 64t-17 64
q-18 30 -47 47t-64 17v0z" />
</svg>
