<?xml version="1.0" standalone="no"?>
<!DOCTYPE svg PUBLIC "-//W3C//DTD SVG 1.1//EN" "http://www.w3.org/Graphics/SVG/1.1/DTD/svg11.dtd" >
<svg xmlns="http://www.w3.org/2000/svg" xmlns:xlink="http://www.w3.org/1999/xlink" version="1.1" viewBox="-10 -40 468 512">
   <path fill="currentColor"
d="M64 9q-20 1 -34 14v0v0q-13 14 -14 34v320v0q1 20 14 34q14 13 34 14h320v0q20 -1 34 -14q13 -14 14 -34v-320v0q-1 -20 -14 -34q-14 -13 -34 -14h-320v0zM0 57q1 -27 19 -45v0v0q18 -18 45 -19h320v0q27 1 45 19t19 45v320v0q-1 27 -19 45t-45 19h-320v0q-27 -1 -45 -19
t-19 -45v-320v0zM145 145q-3 15 2 25q5 9 17 17q24 14 62 22l1 1v0h1q37 8 65 24q15 9 22 23q8 15 4 35q-8 33 -42 45q-32 12 -76 6v0v0q-15 -3 -34 -8t-32 -9q-7 -3 -5 -10t10 -5q13 4 31 9q19 5 32 7q41 6 69 -5q27 -10 31 -33q3 -15 -2 -25q-5 -9 -16 -17
q-25 -14 -63 -23h-1v0v0q-37 -8 -66 -24q-14 -9 -22 -24q-7 -14 -4 -34q8 -34 42 -46q33 -11 76 -5q8 1 19 3q11 3 18 4q7 3 6 10q-2 7 -10 6q-7 -2 -17 -4q-11 -2 -18 -3q-41 -6 -69 5q-26 10 -31 33v0z" />
</svg>
