<?xml version="1.0" standalone="no"?>
<!DOCTYPE svg PUBLIC "-//W3C//DTD SVG 1.1//EN" "http://www.w3.org/Graphics/SVG/1.1/DTD/svg11.dtd" >
<svg xmlns="http://www.w3.org/2000/svg" xmlns:xlink="http://www.w3.org/1999/xlink" version="1.1" viewBox="-10 -40 468 512">
   <path fill="currentColor"
d="M64 9q-20 1 -34 14v0v0q-13 14 -14 34v320v0q1 20 14 34q14 13 34 14h320v0q20 -1 34 -14q13 -14 14 -34v-320v0q-1 -20 -14 -34q-14 -13 -34 -14h-320v0zM0 57q1 -27 19 -45v0v0q18 -18 45 -19h320v0q27 1 45 19t19 45v320v0q-1 27 -19 45t-45 19h-320v0q-27 -1 -45 -19
t-19 -45v-320v0zM96 111l64 214l-64 -214l64 214l56 -190v0q2 -6 8 -6t8 6l56 190v0l64 -214v0q3 -7 10 -6q7 3 6 10l-72 240v0q-2 6 -8 6t-8 -6l-56 -190v0l-56 190v0q-2 6 -8 6t-8 -6l-72 -240v0q-1 -7 6 -10q7 -1 10 6v0z" />
</svg>
