<?xml version="1.0" standalone="no"?>
<!DOCTYPE svg PUBLIC "-//W3C//DTD SVG 1.1//EN" "http://www.w3.org/Graphics/SVG/1.1/DTD/svg11.dtd" >
<svg xmlns="http://www.w3.org/2000/svg" xmlns:xlink="http://www.w3.org/1999/xlink" version="1.1" viewBox="-10 -40 586 512">
   <path fill="currentColor"
d="M280 -5l-48 152l48 -152l-48 152q-2 6 -8 6h-173v0q-3 0 -3 3q0 1 1 2l140 117v0q4 3 3 8l-53 172v0q0 2 2 2h1l138 -108v0v-354v0zM271 -30q4 -8 12 -9q12 1 13 13v379v0q0 4 -3 6l-141 110v0q-5 4 -11 4q-9 0 -14 -7t-3 -15l51 -167v0l-136 -114v0q-7 -5 -7 -14
q2 -17 19 -19h167v0l53 -167v0z" />
</svg>
