<?xml version="1.0" standalone="no"?>
<!DOCTYPE svg PUBLIC "-//W3C//DTD SVG 1.1//EN" "http://www.w3.org/Graphics/SVG/1.1/DTD/svg11.dtd" >
<svg xmlns="http://www.w3.org/2000/svg" xmlns:xlink="http://www.w3.org/1999/xlink" version="1.1" viewBox="-10 -40 532 512">
   <path fill="currentColor"
d="M16 57q1 -20 14 -34v0v0q14 -13 34 -14h384v0q20 1 34 14q13 14 14 34v64v0h-480v0v-64v0zM16 377v-240v240v-240h128v0v288v0h-80v0q-20 -1 -34 -14q-13 -14 -14 -34v0zM160 425v-288v288v-288h336v0v240v0q-1 20 -14 34q-14 13 -34 14h-288v0zM0 377q1 27 19 45v0v0
q18 18 45 19h384v0q27 -1 45 -19t19 -45v-320v0q-1 -27 -19 -45t-45 -19h-384v0q-27 1 -45 19t-19 45v320v0z" />
</svg>
