<?xml version="1.0" standalone="no"?>
<!DOCTYPE svg PUBLIC "-//W3C//DTD SVG 1.1//EN" "http://www.w3.org/Graphics/SVG/1.1/DTD/svg11.dtd" >
<svg xmlns="http://www.w3.org/2000/svg" xmlns:xlink="http://www.w3.org/1999/xlink" version="1.1" viewBox="-10 -40 660 512">
   <path fill="currentColor"
d="M33 20q18 -16 57 -29v0v0q38 -13 102 -14q64 1 102 14q39 13 57 29q16 13 17 38q4 -1 8 -1h8v0q-1 -29 -23 -50q-20 -18 -62 -31q-41 -14 -107 -15q-66 1 -107 15q-42 13 -62 31q-14 12 -19 27q-4 16 -4 32v257v0q2 35 32 50v4v0v32v0q0 14 9 23t23 9h16v0q14 0 23 -9
t9 -23v-30v0h112v0v-16v0h-112v0v-2v0h-16h-51q-27 -9 -29 -38v-114v0h176h86l5 -16v0h-83v0v-112v0h139v0q5 -10 13 -16h-160h-176q-1 -29 17 -45v0zM16 81h168h-168h168v112v0h-168v0v-112v0zM48 378q4 0 8 1h40v0v30v0q-1 15 -16 16h-16v0q-15 -1 -16 -16v-31v0zM96 297
q-15 -1 -16 -16q1 -15 16 -16q15 1 16 16q-1 15 -16 16v0zM64 281q0 14 9 23v0v0q9 9 23 9t23 -9t9 -23t-9 -23t-23 -9t-23 9t-9 23v0zM408 105q-22 2 -24 24v8v0h128v0v-8v0q-2 -22 -24 -24h-80v0zM368 138v0v0v0v-1v-8v0q0 -17 12 -28q11 -12 28 -12h80v0q17 0 28 12
q12 11 12 28v8v0v1q31 8 42 40l22 77v0h-1v0q22 9 35 29q14 20 14 45v64v0v16v0v32v0q0 14 -9 23t-23 9h-16v0q-14 0 -23 -9t-9 -23v-32v0h-224v0v32v0q0 14 -9 23t-23 9h-16v0q-14 0 -23 -9t-9 -23v-32v0v-16v0v-64v0q0 -25 14 -45q13 -20 35 -29h-1v0l22 -77v0
q11 -32 42 -40v0zM560 393h16h-16h64v-64v0q-1 -27 -19 -45t-45 -19h-224v0q-27 1 -45 19t-19 45v64v0h48h240zM576 409v32v-32v32q1 15 16 16h16v0q15 -1 16 -16v-32v0h-48v0zM272 409v32v-32v32q1 15 16 16h16v0q15 -1 16 -16v-32v0h-48v0zM512 153h-128h128h-132
q-29 2 -38 29l-20 68v0q7 -1 14 -1h224v0q7 0 14 1l-20 -68v0q-9 -27 -38 -29h-4v0zM320 329q1 15 16 16q15 -1 16 -16q-1 -15 -16 -16q-15 1 -16 16v0zM336 361q-14 0 -23 -9v0v0q-9 -9 -9 -23t9 -23t23 -9t23 9t9 23t-9 23t-23 9v0zM560 313q-15 1 -16 16q1 15 16 16
q15 -1 16 -16q-1 -15 -16 -16v0zM592 329q0 14 -9 23v0v0q-9 9 -23 9t-23 -9t-9 -23t9 -23t23 -9t23 9t9 23v0z" />
</svg>
