<?xml version="1.0" standalone="no"?>
<!DOCTYPE svg PUBLIC "-//W3C//DTD SVG 1.1//EN" "http://www.w3.org/Graphics/SVG/1.1/DTD/svg11.dtd" >
<svg xmlns="http://www.w3.org/2000/svg" xmlns:xlink="http://www.w3.org/1999/xlink" version="1.1" viewBox="-10 -40 532 512">
   <path fill="currentColor"
d="M256 -39q-7 1 -8 8v112v0q1 7 8 8q7 -1 8 -8v-104v0q65 3 117 35q53 33 83 86q31 53 32 119q-1 67 -33 121t-86 86t-121 33q-67 -1 -121 -33t-86 -86t-33 -121q0 -50 19 -93q18 -44 51 -77q5 -5 0 -11q-5 -5 -11 0q-35 35 -55 81q-20 47 -20 100q1 72 35 129q34 58 92 92
q57 34 129 35q72 -1 129 -35q58 -34 92 -92q34 -57 35 -129q-1 -72 -35 -129q-34 -58 -92 -92q-57 -34 -129 -35v0zM166 115q-6 -4 -12 0q-4 6 0 12l96 96v0q6 4 12 0q4 -6 0 -12l-96 -96v0z" />
</svg>
