<?xml version="1.0" standalone="no"?>
<!DOCTYPE svg PUBLIC "-//W3C//DTD SVG 1.1//EN" "http://www.w3.org/Graphics/SVG/1.1/DTD/svg11.dtd" >
<svg xmlns="http://www.w3.org/2000/svg" xmlns:xlink="http://www.w3.org/1999/xlink" version="1.1" viewBox="-10 -40 532 512">
   <path fill="currentColor"
d="M16 217q1 -67 33 -121v0v0q32 -54 86 -86v0v0q54 -32 121 -33q67 1 121 33t86 86t33 121v248v0q1 7 8 8q7 -1 8 -8v-248v0q-1 -72 -35 -129q-34 -58 -92 -92q-57 -34 -129 -35q-72 1 -129 35q-58 34 -92 92q-34 57 -35 129v248v0q1 7 8 8q7 -1 8 -8v-248v0zM192 105h128
h-128h128q27 1 45 19t19 45v160v0q-1 27 -19 45t-45 19h-128v0q-27 -1 -45 -19t-19 -45v-160v0q1 -27 19 -45t45 -19v0zM112 169v160v-160v160q1 29 18 50q17 22 45 28l-53 52v0q-4 6 0 12q6 4 12 0l61 -62v0h122v0l61 62v0q6 4 12 0q4 -6 0 -12l-52 -52v0q27 -6 44 -27
q18 -22 18 -51v-160v0q-1 -34 -23 -57q-23 -22 -57 -23h-128v0q-34 1 -57 23q-22 23 -23 57v0zM176 345q15 -1 16 -16q-1 -15 -16 -16q-15 1 -16 16q1 15 16 16v0zM352 329q-1 -15 -16 -16q-15 1 -16 16q1 15 16 16q15 -1 16 -16v0zM248 169v96v-96v96h-56v0q-15 -1 -16 -16
v-64v0q1 -15 16 -16h56v0zM264 169h56h-56h56q15 1 16 16v64v0q-1 15 -16 16h-56v0v-96v0zM192 153q-14 0 -23 9v0v0q-9 9 -9 23v64v0q0 14 9 23t23 9h128v0q14 0 23 -9t9 -23v-64v0q0 -14 -9 -23t-23 -9h-128v0z" />
</svg>
