<?xml version="1.0" standalone="no"?>
<!DOCTYPE svg PUBLIC "-//W3C//DTD SVG 1.1//EN" "http://www.w3.org/Graphics/SVG/1.1/DTD/svg11.dtd" >
<svg xmlns="http://www.w3.org/2000/svg" xmlns:xlink="http://www.w3.org/1999/xlink" version="1.1" viewBox="-10 -40 532 512">
   <path fill="currentColor"
d="M472 1q-1 -7 -8 -8q-7 1 -8 8v32v0h-32v0q-7 1 -8 8q1 7 8 8h32v0v32v0q1 7 8 8q7 -1 8 -8v-32v0h32v0q7 -1 8 -8q-1 -7 -8 -8h-32v0v-32v0zM56 225q-1 -7 -8 -8q-7 1 -8 8v32v0h-32v0q-7 1 -8 8q1 7 8 8h32v0v32v0q1 7 8 8q7 -1 8 -8v-32v0h32v0q7 -1 8 -8q-1 -7 -8 -8
h-32v0v-32v0zM112 457q0 -14 9 -23v0v0q9 -9 23 -9h224v0q14 0 23 9t9 23v8v0q1 7 8 8q7 -1 8 -8v-8v0q-1 -20 -14 -34q-14 -13 -34 -14h-224v0q-20 1 -34 14q-13 14 -14 34v8v0q1 7 8 8q7 -1 8 -8v-8v0z" />
</svg>
