<?xml version="1.0" standalone="no"?>
<!DOCTYPE svg PUBLIC "-//W3C//DTD SVG 1.1//EN" "http://www.w3.org/Graphics/SVG/1.1/DTD/svg11.dtd" >
<svg xmlns="http://www.w3.org/2000/svg" xmlns:xlink="http://www.w3.org/1999/xlink" version="1.1" viewBox="-10 -40 596 512">
   <path fill="currentColor"
d="M157 -12l-23 37l23 -37l-23 37h180v0l-23 -37v0q-8 -11 -21 -11h-92v0q-13 0 -21 11v0zM116 25l28 -45l-28 45l28 -45q12 -18 34 -19h92v0q22 1 34 19l28 45v0h108v0q7 1 8 8q-1 7 -8 8h-432v0q-7 -1 -8 -8q1 -7 8 -8h108v0zM40 73q7 1 8 8v320v0q1 24 16 40q16 15 40 16
h207v0q9 9 20 16h-227v0q-31 -1 -51 -21t-21 -51v-320v0q1 -7 8 -8v0zM312 200v-79v79v-79q1 -7 8 -8q7 1 8 8v66v0q-8 6 -16 13v0zM416 154l-16 2v-75v0q1 -7 8 -8q7 1 8 8v73v0zM136 121v256v-256v256q-1 7 -8 8q-7 -1 -8 -8v-256v0q1 -7 8 -8q7 1 8 8v0zM232 121v256
v-256v256q-1 7 -8 8q-7 -1 -8 -8v-256v0q1 -7 8 -8q7 1 8 8v0zM432 457q35 0 64 -17v0v0q29 -17 47 -47q17 -30 17 -64t-17 -64q-18 -30 -47 -47t-64 -17t-64 17t-47 47q-17 30 -17 64t17 64q18 30 47 47t64 17v0zM432 185q39 0 72 19v0v0q33 19 53 53q19 34 19 72t-19 72
q-20 34 -53 53t-72 19t-72 -19t-53 -53q-19 -34 -19 -72t19 -72q20 -34 53 -53t72 -19v0zM432 249q7 1 8 8v64v0h48v0q7 1 8 8q-1 7 -8 8h-56v0q-7 -1 -8 -8v-72v0q1 -7 8 -8v0z" />
</svg>
