<?xml version="1.0" standalone="no"?>
<!DOCTYPE svg PUBLIC "-//W3C//DTD SVG 1.1//EN" "http://www.w3.org/Graphics/SVG/1.1/DTD/svg11.dtd" >
<svg xmlns="http://www.w3.org/2000/svg" xmlns:xlink="http://www.w3.org/1999/xlink" version="1.1" viewBox="-10 -40 660 512">
   <path fill="currentColor"
d="M170 -23h76h-76h76q13 0 21 11l23 37v0h-164v0l23 -37v0q8 -11 21 -11v0zM136 -20l-28 45l28 -45l-28 45h-100v0q-7 1 -8 8q1 7 8 8h400v0q7 -1 8 -8q-1 -7 -8 -8h-100v0l-28 -45v0q-12 -18 -34 -19h-76v0q-22 1 -34 19v0zM48 81q-1 -7 -8 -8q-7 1 -8 8v320v0q1 31 21 51
t51 21h208v0q31 -1 51 -21t21 -51v-320v0q-1 -7 -8 -8q-7 1 -8 8v320v0q-1 24 -16 40q-16 15 -40 16h-208v0q-24 -1 -40 -16q-15 -16 -16 -40v-320v0zM160 113q-7 1 -8 8v256v0q1 7 8 8q7 -1 8 -8v-256v0q-1 -7 -8 -8v0zM256 113q-7 1 -8 8v256v0q1 7 8 8q7 -1 8 -8v-256v0
q-1 -7 -8 -8v0zM456 89q-7 1 -8 8q1 7 8 8h176v0q7 -1 8 -8q-1 -7 -8 -8h-176v0zM456 217q-7 1 -8 8q1 7 8 8h144v0q7 -1 8 -8q-1 -7 -8 -8h-144v0zM448 353q1 7 8 8h80v0q7 -1 8 -8q-1 -7 -8 -8h-80v0q-7 1 -8 8v0z" />
</svg>
