<?xml version="1.0" standalone="no"?>
<!DOCTYPE svg PUBLIC "-//W3C//DTD SVG 1.1//EN" "http://www.w3.org/Graphics/SVG/1.1/DTD/svg11.dtd" >
<svg xmlns="http://www.w3.org/2000/svg" xmlns:xlink="http://www.w3.org/1999/xlink" version="1.1" viewBox="-10 -40 660 512">
   <path fill="currentColor"
d="M483 437q-16 19 -43 20h-240v0q-24 -1 -40 -16q-15 -16 -16 -40v-231v0l-16 -13v0v244v0q1 31 21 51t51 21h240v0q34 -1 55 -26l-12 -10v0zM212 25h-19h19h-19l20 16v0h323v0q7 -1 8 -8q-1 -7 -8 -8h-108v0l-28 -45v0q-12 -18 -34 -19h-92v0q-22 1 -34 19l-28 45v0z
M232 239l-16 -12l16 12l-16 -12v150v0q1 7 8 8q7 -1 8 -8v-138v0zM328 377v-62v62v-62l-16 -13v0v75v0q1 7 8 8q7 -1 8 -8v0zM408 121v74v-74v74l16 12v0v-86v0q-1 -7 -8 -8q-7 1 -8 8v0zM496 81v183v-183v183l16 13v0v-196v0q-1 -7 -8 -8q-7 1 -8 8v0zM253 -12
q8 -11 21 -11h92v0q13 0 21 11l23 37v0h-180v0l23 -37v0zM13 -37q-6 -4 -11 1q-4 6 1 11l624 496v0q6 4 11 -1q4 -6 -1 -11l-624 -496v0z" />
</svg>
