<?xml version="1.0" standalone="no"?>
<!DOCTYPE svg PUBLIC "-//W3C//DTD SVG 1.1//EN" "http://www.w3.org/Graphics/SVG/1.1/DTD/svg11.dtd" >
<svg xmlns="http://www.w3.org/2000/svg" xmlns:xlink="http://www.w3.org/1999/xlink" version="1.1" viewBox="-10 -40 660 512">
   <path fill="currentColor"
d="M512 82q0 -8 -7 -9q-8 0 -9 7l-14 173v0l15 12v0l15 -183v0zM467 425q-3 14 -14 23v0v0q-10 9 -25 9h-216v0q-16 0 -27 -11q-11 -10 -13 -26l-20 -244v0l-17 -13v0l21 259v0q3 22 18 36q16 15 38 15h216v0q18 0 32 -10q15 -11 21 -27l-14 -11v0zM212 25h-19h19h-19l20 16
v0h323v0q7 -1 8 -8q-1 -7 -8 -8h-108v0l-28 -45v0q-12 -18 -34 -19h-92v0q-22 1 -34 19l-28 45v0zM274 -23h92h-92h92q13 0 21 11l23 37v0h-180v0l23 -37v0q8 -11 21 -11v0zM13 -37q-6 -4 -11 1q-4 6 1 11l624 496v0q6 4 11 -1q4 -6 -1 -11l-624 -496v0z" />
</svg>
