<?xml version="1.0" standalone="no"?>
<!DOCTYPE svg PUBLIC "-//W3C//DTD SVG 1.1//EN" "http://www.w3.org/Graphics/SVG/1.1/DTD/svg11.dtd" >
<svg xmlns="http://www.w3.org/2000/svg" xmlns:xlink="http://www.w3.org/1999/xlink" version="1.1" viewBox="-10 -40 468 512">
   <path fill="currentColor"
d="M157 -12l-23 37l23 -37l-23 37h180v0l-23 -37v0q-8 -11 -21 -11h-92v0q-13 0 -21 11v0zM116 25l28 -45l-28 45l28 -45q12 -18 34 -19h92v0q22 1 34 19l28 45v0h108v0q7 1 8 8q-1 7 -8 8h-432v0q-7 -1 -8 -8q1 -7 8 -8h108v0zM39 73q8 0 9 7l28 340v0q2 16 13 26
q11 11 27 11h216v0q16 0 27 -11q11 -10 13 -26l28 -340v0q1 -7 9 -7q7 1 7 9l-28 340v0q-3 22 -18 36q-16 15 -38 15h-216v0q-22 0 -38 -15q-15 -14 -18 -36l-28 -340v0q0 -8 7 -9v0zM146 171q6 -4 12 0l66 67v0l66 -67v0q6 -4 12 0q4 6 0 12l-67 66v0l67 66v0q4 6 0 12
q-6 4 -12 0l-66 -67v0l-66 67v0q-6 4 -12 0q-4 -6 0 -12l67 -66v0l-67 -66v0q-4 -6 0 -12v0z" />
</svg>
