<?xml version="1.0" standalone="no"?>
<!DOCTYPE svg PUBLIC "-//W3C//DTD SVG 1.1//EN" "http://www.w3.org/Graphics/SVG/1.1/DTD/svg11.dtd" >
<svg xmlns="http://www.w3.org/2000/svg" xmlns:xlink="http://www.w3.org/1999/xlink" version="1.1" viewBox="-10 -40 660 512">
   <path fill="currentColor"
d="M448 121q2 -22 24 -24h72v0q20 0 32 16l56 75v0q8 10 8 24v53v0v72v0q0 14 -9 23t-23 9v0v0q-4 31 -26 51t-54 21q-34 -1 -57 -23q-22 -23 -23 -57h-144v0q-1 34 -23 57q-23 22 -57 23q-24 0 -43 -13q-19 -12 -29 -32q-10 20 -29 32q-19 13 -43 13q-34 -1 -57 -23
q-22 -23 -23 -57q1 -34 23 -57q23 -22 57 -23q24 0 43 13q19 12 29 32q10 -20 29 -32q19 -13 43 -13q30 1 51 18q21 18 27 46h146v0v-32v0v-192v0zM608 353q15 -1 16 -16v-72v0v-48v0h-160v0v96v0q23 -31 64 -32q32 1 54 21t26 51v0v0zM622 201q-1 -2 -3 -4l-56 -74v0
q-7 -10 -19 -10h-72v0q-7 1 -8 8v80v0h158v0zM528 425q36 -1 55 -32q18 -32 0 -64q-19 -31 -55 -32q-36 1 -55 32q-18 32 0 64q19 31 55 32v0zM288 361q-1 -36 -32 -55q-32 -18 -64 0q-31 19 -32 55q1 36 32 55q32 18 64 0q31 -19 32 -55v0zM80 425q36 -1 55 -32
q18 -32 0 -64q-19 -31 -55 -32q-36 1 -55 32q-18 32 0 64q19 31 55 32v0z" />
</svg>
