<?xml version="1.0" standalone="no"?>
<!DOCTYPE svg PUBLIC "-//W3C//DTD SVG 1.1//EN" "http://www.w3.org/Graphics/SVG/1.1/DTD/svg11.dtd" >
<svg xmlns="http://www.w3.org/2000/svg" xmlns:xlink="http://www.w3.org/1999/xlink" version="1.1" viewBox="-10 -40 660 512">
   <path fill="currentColor"
d="M298 344q11 4 19 -5l40 -49v0q12 -13 28 -7l96 40v0q18 9 14 28l-24 88v0q-5 17 -23 18q-121 -1 -218 -59t-155 -155t-59 -218q1 -18 18 -23l88 -24v0q19 -4 28 14l40 96v0q6 16 -7 28l-49 40v0q-9 8 -4 19q26 56 69 99t99 69v1zM345 280l-40 49l40 -49l-40 49
q-53 -25 -95 -66q-41 -42 -66 -95l49 -40v0q21 -19 12 -46l-40 -96v0q-6 -14 -19 -21q-14 -6 -28 -3l-88 24v0q-28 10 -30 39q1 125 61 226t161 161t226 61q29 -2 39 -29l24 -88v0q3 -15 -3 -29q-6 -13 -21 -19l-96 -40v0q-27 -9 -46 12v0zM312 41h16h-16h16q7 1 8 8v16v0
q-1 7 -8 8h-16v0q-7 -1 -8 -8v-16v0q1 -7 8 -8v0zM288 49v16v-16v16q2 22 24 24h16v0q22 -2 24 -24v-16v0q-2 -22 -24 -24h-16v0q-22 2 -24 24v0zM328 137q7 1 8 8v16v0q-1 7 -8 8h-16v0q-7 -1 -8 -8v-16v0q1 -7 8 -8h16v0zM312 121q-22 2 -24 24v16v0q2 22 24 24h16v0
q22 -2 24 -24v-16v0q-2 -22 -24 -24h-16v0zM408 41h16h-16h16q7 1 8 8v16v0q-1 7 -8 8h-16v0q-7 -1 -8 -8v-16v0q1 -7 8 -8v0zM384 49v16v-16v16q2 22 24 24h16v0q22 -2 24 -24v-16v0q-2 -22 -24 -24h-16v0q-22 2 -24 24v0zM520 41q7 1 8 8v16v0q-1 7 -8 8h-16v0
q-7 -1 -8 -8v-16v0q1 -7 8 -8h16v0zM504 25q-22 2 -24 24v16v0q2 22 24 24h16v0q22 -2 24 -24v-16v0q-2 -22 -24 -24h-16v0zM600 41h16h-16h16q7 1 8 8v16v0q-1 7 -8 8h-16v0q-7 -1 -8 -8v-16v0q1 -7 8 -8v0zM576 49v16v-16v16q2 22 24 24h16v0q22 -2 24 -24v-16v0
q-2 -22 -24 -24h-16v0q-22 2 -24 24v0zM616 137q7 1 8 8v16v0q-1 7 -8 8h-16v0q-7 -1 -8 -8v-16v0q1 -7 8 -8h16v0zM600 121q-22 2 -24 24v16v0q2 22 24 24h16v0q22 -2 24 -24v-16v0q-2 -22 -24 -24h-16v0zM408 137h112h-112h112q7 1 8 8v16v0q-1 7 -8 8h-112v0q-7 -1 -8 -8
v-16v0q1 -7 8 -8v0zM384 145v16v-16v16q2 22 24 24h112v0q22 -2 24 -24v-16v0q-2 -22 -24 -24h-112v0q-22 2 -24 24v0z" />
</svg>
