<?xml version="1.0" standalone="no"?>
<!DOCTYPE svg PUBLIC "-//W3C//DTD SVG 1.1//EN" "http://www.w3.org/Graphics/SVG/1.1/DTD/svg11.dtd" >
<svg xmlns="http://www.w3.org/2000/svg" xmlns:xlink="http://www.w3.org/1999/xlink" version="1.1" viewBox="-10 -40 404 512">
   <path fill="currentColor"
d="M8 -7q-7 1 -8 8q1 7 8 8h176v0v170v0l-122 30v0q-7 3 -6 10q3 7 10 6l118 -30v0v80v0l-122 30v0q-7 3 -6 10q3 7 10 6l118 -30v0v142v0q1 7 8 8q7 -1 8 -8v-146v0l122 -30v0q7 -3 6 -10q-3 -7 -10 -6l-118 30v0v-80v0l122 -30v0q7 -3 6 -10q-3 -7 -10 -6l-118 30v0v-166
v0h176v0q7 -1 8 -8q-1 -7 -8 -8h-184h-184z" />
</svg>
