<?xml version="1.0" standalone="no"?>
<!DOCTYPE svg PUBLIC "-//W3C//DTD SVG 1.1//EN" "http://www.w3.org/Graphics/SVG/1.1/DTD/svg11.dtd" >
<svg xmlns="http://www.w3.org/2000/svg" xmlns:xlink="http://www.w3.org/1999/xlink" version="1.1" viewBox="-10 -40 468 512">
   <path fill="currentColor"
d="M72 -39q-7 1 -8 8v246v0q0 6 2 11q3 23 25 29l117 24v0q8 2 15 2h1h1q7 0 15 -2l117 -24v0q25 -8 26 -33l-1 -3v0q1 -3 1 -6l-7 -109v0q-3 -40 -23 -71q-20 -32 -52 -51q-34 -21 -77 -21q-51 1 -89 29q-39 28 -55 74v-87v0h16v0q7 -1 8 -8q-1 -7 -8 -8h-24v0zM101 239
q-17 -5 -19 -21l4 -78v0q8 4 20 13q27 17 42 66q2 7 9 6q7 -3 6 -10q-7 -28 -20 -46t-27 -29q-14 -10 -23 -14l-6 -3v-8v0l105 28v0v115v0l-91 -19v0v0v0zM208 262v-125v125v-125q0 -6 -6 -8l-113 -30v0q0 -5 1 -10h6h262l2 10l-114 30v0q-6 2 -6 8v125v0l-16 3v0l-16 -3v0z
M157 -5q30 -18 67 -18q47 1 82 27q34 26 48 69h-2h-258q17 -52 63 -79v1zM256 258v-115v115v-115l105 -28v0v6v0l-1 1v0v0h-2v0q-3 1 -8 4q-9 4 -23 14q-14 11 -27 29t-20 46q-1 7 6 10q7 1 10 -6q14 -49 41 -66q12 -9 20 -13l4 -2h1l4 80v0q-3 16 -19 21l-91 19v0zM134 329
h180h-180h180q50 1 83 35q34 33 35 83q-1 9 -10 10h-107v0l-80 -80v0q-11 -9 -22 0l-80 80v0h-107v0q-9 -1 -10 -10q1 -50 35 -83q33 -34 83 -35v0zM293 457h-138h138h-138l69 -69v0l69 69v0zM134 313q-57 1 -95 39v0v0q-38 38 -39 95q2 24 26 26h396v0q24 -2 26 -26
q-1 -57 -39 -95t-95 -39h-180v0z" />
</svg>
