<?xml version="1.0" standalone="no"?>
<!DOCTYPE svg PUBLIC "-//W3C//DTD SVG 1.1//EN" "http://www.w3.org/Graphics/SVG/1.1/DTD/svg11.dtd" >
<svg xmlns="http://www.w3.org/2000/svg" xmlns:xlink="http://www.w3.org/1999/xlink" version="1.1" viewBox="-10 -40 468 512">
   <path fill="currentColor"
d="M222 -23l-160 36l160 -36l-160 36q-4 1 -6 6q-1 4 2 8l30 29v0q2 2 2 6v27v0q13 9 44 20q32 11 90 12q58 -1 90 -12q31 -11 44 -20v-27v0q0 -4 2 -6l29 -29v0q3 -4 2 -8q-1 -5 -5 -6l-160 -36v0h-4v0zM229 -38l160 36l-160 -36l160 36q13 3 18 16q3 14 -6 24l-27 27v0v24
v0q0 8 -7 13q-15 11 -49 22q-34 12 -94 13q-61 -1 -95 -13q-33 -11 -48 -22q-7 -5 -7 -13v-24v0l-27 -27v0q-9 -10 -6 -24q4 -13 18 -16l160 -36v0q5 -2 10 0v0zM214 405l-87 -76l87 76l-87 -76q-48 4 -79 37t-32 81q1 9 10 10h190v0v-50v0l-2 -2v0zM422 473h-198h198h-198
v0v0v0v0h-198v0q-24 -2 -26 -26q1 -56 39 -94q37 -38 94 -40l91 80v0l91 -80v0q57 2 94 40q38 38 39 94q-2 24 -26 26v0zM232 407v50v-50v50h190v0q9 -1 10 -10q-1 -48 -32 -81t-79 -37l-86 76v0l-3 2v0zM320 401q1 -7 8 -8h48v0q7 1 8 8q-1 7 -8 8h-48v0q-7 -1 -8 -8v0z
M96 153v-9q8 4 16 7v1v1q1 48 33 79q31 32 79 33q48 -1 79 -33q32 -31 33 -79v-1v-1q9 -3 16 -7v9q-1 54 -37 91q-37 36 -91 37q-54 -1 -91 -37q-36 -37 -37 -91v0zM164 26l60 30l-60 -30l60 30l60 -30v0q7 -3 11 3q3 7 -3 11l-64 32v0q-4 2 -8 0l-64 -32v0q-6 -4 -3 -11
q4 -6 10 -3h1z" />
</svg>
