<?xml version="1.0" standalone="no"?>
<!DOCTYPE svg PUBLIC "-//W3C//DTD SVG 1.1//EN" "http://www.w3.org/Graphics/SVG/1.1/DTD/svg11.dtd" >
<svg xmlns="http://www.w3.org/2000/svg" xmlns:xlink="http://www.w3.org/1999/xlink" version="1.1" viewBox="-10 -40 468 512">
   <path fill="currentColor"
d="M226 -23h-4l-160 36v0q-4 1 -6 6q-1 4 2 8l30 29v0q2 2 2 6v27v0q13 9 44 20q32 11 90 12q58 -1 90 -12q31 -11 44 -20v-27v0q0 -4 2 -6l29 -29v0q3 -4 2 -8q-1 -5 -5 -6l-160 -36v0zM219 -38q5 -2 10 0l160 36v0q13 3 18 16q3 14 -6 24l-27 27v0v24v0q0 8 -7 13
q-15 11 -49 22q-34 12 -94 13q-61 -1 -95 -13q-33 -11 -48 -22q-7 -5 -7 -13v-24v0l-27 -27v0q-9 -10 -6 -24q4 -13 18 -16l160 -36v0zM214 428l10 13l-10 -13l10 13l10 -13v0l6 -8v0l-16 -27v0l-16 27v0l6 8v0zM128 313l70 93l-70 -93l70 93l17 -29v0l-37 -51v0
q-3 -4 -1 -9q2 -4 7 -4h80v0q5 0 7 4q2 5 0 9l-37 51v0l17 29v0l69 -93v0q55 4 91 41q36 38 37 93q-2 24 -26 26h-396v0q-24 -2 -26 -26q1 -55 37 -93q36 -37 91 -41v0zM327 330l-90 121l90 -121l-90 121l-5 6v0h190v0q9 -1 10 -10q-1 -46 -30 -79q-29 -32 -75 -38v0z
M216 457l-5 -6l5 6l-5 -6l-90 -121v0q-46 6 -75 38q-29 33 -30 79q1 9 10 10h190v0zM96 144q8 4 16 7v1v1q1 48 33 79q31 32 79 33q48 -1 79 -33q32 -31 33 -79v-1v-1q9 -3 16 -7v9q-1 54 -37 91q-37 36 -91 37q-54 -1 -91 -37q-36 -37 -37 -91v-9v0zM224 363l25 -34l-25 34
l25 -34h-49v0l24 34v0zM320 401q1 -7 8 -8h48v0q7 1 8 8q-1 7 -8 8h-48v0q-7 -1 -8 -8v0zM164 26l60 30l-60 -30l60 30l60 -30v0q7 -3 11 3q3 7 -3 11l-64 32v0q-4 2 -8 0l-64 -32v0q-6 -4 -3 -11q4 -6 10 -3h1z" />
</svg>
