<?xml version="1.0" standalone="no"?>
<!DOCTYPE svg PUBLIC "-//W3C//DTD SVG 1.1//EN" "http://www.w3.org/Graphics/SVG/1.1/DTD/svg11.dtd" >
<svg xmlns="http://www.w3.org/2000/svg" xmlns:xlink="http://www.w3.org/1999/xlink" version="1.1" viewBox="-10 -40 596 512">
   <path fill="currentColor"
d="M320 41q20 1 34 14v0v0q13 14 14 34v75v0v106v0v75v0q-1 20 -14 34q-14 13 -34 14h-256v0q-20 -1 -34 -14q-13 -14 -14 -34v-256v0q1 -20 14 -34q14 -13 34 -14h256v0zM384 345v-47v47v-47v-28v0v-106v0v-28v0v-47v0q-1 -27 -19 -45t-45 -19h-256v0q-27 1 -45 19t-19 45
v256v0q1 27 19 45t45 19h256v0q27 -1 45 -19t19 -45v0zM416 315l103 57l-103 -57l103 57q9 5 19 5q16 0 27 -11t11 -27v-244v0q0 -16 -11 -27t-27 -11q-10 0 -19 5l-103 57v0v18v0l111 -61v0q5 -3 11 -3q20 2 22 22v244v0q-2 20 -22 22q-6 0 -11 -3l-111 -61v0v18v0z
M232 313q7 -1 8 -8q-1 -7 -8 -8h-109v0l163 -162v0q4 -6 0 -12q-6 -4 -12 0l-162 163v0v-109v0q-1 -7 -8 -8q-7 1 -8 8v128v0q1 7 8 8h128v0z" />
</svg>
