<?xml version="1.0" standalone="no"?>
<!DOCTYPE svg PUBLIC "-//W3C//DTD SVG 1.1//EN" "http://www.w3.org/Graphics/SVG/1.1/DTD/svg11.dtd" >
<svg xmlns="http://www.w3.org/2000/svg" xmlns:xlink="http://www.w3.org/1999/xlink" version="1.1" viewBox="-10 -40 586 512">
   <path fill="currentColor"
d="M455 -15q17 -14 34 0l31 31v0q15 17 0 34l-130 130v0v-1l-64 -64v0h-1v0l130 -130v0zM56 384l258 -258l-258 258l258 -258v1l64 64v0h1v0l-258 258v0q-17 14 -34 0l-31 -31v0q-14 -17 0 -34v0zM444 -27l-400 400l400 -400l-400 400q-11 12 -11 28t11 28l32 32v0
q12 11 28 11t28 -11l400 -400v0q11 -12 11 -28t-11 -28l-32 -32v0q-12 -11 -28 -11t-28 11v0zM104 25q-1 -7 -8 -8q-7 1 -8 8v56v0h-56v0q-7 1 -8 8q1 7 8 8h56v0v56v0q1 7 8 8q7 -1 8 -8v-56v0h56v0q7 -1 8 -8q-1 -7 -8 -8h-56v0v-56v0zM480 273q-7 1 -8 8v56v0h-56v0
q-7 1 -8 8q1 7 8 8h56v0v56v0q1 7 8 8q7 -1 8 -8v-56v0h56v0q7 -1 8 -8q-1 -7 -8 -8h-56v0v-56v0q-1 -7 -8 -8v0zM232 -7q-1 -7 -8 -8q-7 1 -8 8v24v0h-24v0q-7 1 -8 8q1 7 8 8h24v0v24v0q1 7 8 8q7 -1 8 -8v-24v0h24v0q7 -1 8 -8q-1 -7 -8 -8h-24v0v-24v0z" />
</svg>
