<?xml version="1.0" standalone="no"?>
<!DOCTYPE svg PUBLIC "-//W3C//DTD SVG 1.1//EN" "http://www.w3.org/Graphics/SVG/1.1/DTD/svg11.dtd" >
<svg xmlns="http://www.w3.org/2000/svg" xmlns:xlink="http://www.w3.org/1999/xlink" version="1.1" viewBox="-10 -40 532 512">
   <path fill="currentColor"
d="M414 -25q4 -6 0 -12q-6 -4 -12 0l-48 48v0q-4 6 0 12q6 4 12 0l48 -48v0zM510 -25q4 -6 0 -12q-6 -4 -12 0l-112 112v0l-49 50v0q4 -30 -5 -58q-9 -29 -31 -51l-11 -12v0q-12 -9 -23 0l-11 12v0q-29 29 -29 68q0 38 29 67l27 28v0l-48 48v0q4 -30 -5 -58q-9 -29 -31 -52
l-11 -11v0q-12 -9 -23 0l-11 11v0q-28 30 -28 68q0 39 28 68l27 28v0l-48 47v0q5 -29 -4 -57q-9 -29 -32 -52l-11 -11v0q-11 -9 -23 0l-11 11v0q-28 30 -28 68q0 39 28 68l27 27v0l-77 77v0q-4 6 0 12q6 4 12 0l77 -77v0l29 29v0q29 28 68 28q38 0 68 -28l11 -11v0
q9 -12 0 -23l-12 -11v0q-23 -23 -53 -32t-60 -4l50 -50v0l30 29v0q29 28 68 28q38 0 67 -28l12 -11v0q9 -11 0 -23l-12 -11v0q-23 -23 -53 -32t-60 -3l50 -51v0l30 29v0q29 29 67 29q39 0 68 -29l12 -11v0q9 -11 0 -23l-12 -11v0q-23 -23 -53 -32t-60 -3l52 -52v0l112 -112
v0zM321 163q32 -14 66 -9v0v0q34 6 61 31l11 12v0l-11 11v0q-25 23 -57 23t-56 -23l-29 -29v0l15 -16v0zM220 265q31 -15 65 -9v0v0q35 5 61 31l11 11v0l-11 12v0q-25 23 -57 23q-31 0 -56 -23l-29 -29v0l16 -16v0zM118 367q32 -15 66 -9v0v0q34 5 60 31l12 11v0l-12 11v0
q-24 24 -56 24t-57 -24l-29 -29v0l16 -16v1zM91 371l-28 -27l28 27l-28 -27q-23 -25 -23 -57t23 -56l12 -12v0l11 12v0q24 25 30 57q7 32 -5 63l-20 20v0zM192 269l-27 -27l27 27l-27 -27q-23 -25 -23 -57t23 -56l11 -12v0l12 12v0q24 25 30 57q7 32 -5 63l-21 20v0z
M294 168l-27 -28l27 28l-27 -28q-24 -25 -24 -56q0 -32 24 -57l11 -11v0l11 11v0q25 25 31 57t-6 63l-20 21v0zM510 71q4 -6 0 -12q-6 -4 -12 0l-48 48v0q-4 6 0 12q6 4 12 0l48 -48v0z" />
</svg>
