<?xml version="1.0" standalone="no"?>
<!DOCTYPE svg PUBLIC "-//W3C//DTD SVG 1.1//EN" "http://www.w3.org/Graphics/SVG/1.1/DTD/svg11.dtd" >
<svg xmlns="http://www.w3.org/2000/svg" xmlns:xlink="http://www.w3.org/1999/xlink" version="1.1" viewBox="-10 -40 532 512">
   <path fill="currentColor"
d="M256 -39q-61 2 -102 42v0v0q-40 41 -42 102v32v0h-24v0q-24 1 -40 16q-15 16 -16 40v190v0l-30 60v0q-2 4 -2 9q2 19 21 21h83v0q22 -2 24 -24v-99v0l50 56v0q2 3 6 3h144v0q4 0 6 -3l50 -56v0v99v0q2 22 24 24h83v0q19 -2 21 -21q0 -5 -2 -9l-30 -60v0v-190v0
q-1 -24 -16 -40q-16 -15 -40 -16h-24v0v-32v0q-2 -61 -42 -102q-41 -40 -102 -42v0zM400 153h24h-24h24q17 0 28 12q12 11 12 28v192v0q0 2 1 4l30 61v0q1 1 1 2q-1 5 -5 5h-83v0q-7 -1 -8 -8v-120v0v-176v0zM384 153v173v-173v173l-60 67v0h-136v0l-60 -67v0v-173v0h256v0z
M112 153v176v-176v176v120v0q-1 7 -8 8h-83v0q-5 0 -5 -5q0 -1 1 -2l30 -61v0q1 -2 1 -4v-192v0q0 -17 12 -28q11 -12 28 -12h24v0zM128 105q1 -54 37 -91v0v0q37 -36 91 -37q54 1 91 37q36 37 37 91v32v0h-256v0v-32v0zM200 57q2 -22 24 -24q22 2 24 24q-2 22 -24 24
q-22 -2 -24 -24v0zM264 57q-1 -23 -20 -35q-20 -10 -40 0q-19 12 -20 35q1 23 20 35q20 10 40 0q19 -12 20 -35v0zM304 89q15 -1 16 -16q-1 -15 -16 -16q-15 1 -16 16q1 15 16 16v0zM192 209q1 7 8 8h112v0q7 -1 8 -8q-1 -7 -8 -8h-112v0q-7 1 -8 8v0zM192 273q1 7 8 8h112
v0q7 -1 8 -8q-1 -7 -8 -8h-112v0q-7 1 -8 8v0z" />
</svg>
