<?xml version="1.0" standalone="no"?>
<!DOCTYPE svg PUBLIC "-//W3C//DTD SVG 1.1//EN" "http://www.w3.org/Graphics/SVG/1.1/DTD/svg11.dtd" >
<svg xmlns="http://www.w3.org/2000/svg" xmlns:xlink="http://www.w3.org/1999/xlink" version="1.1" viewBox="-10 -40 596 512">
   <path fill="currentColor"
d="M320 105q0 -50 -17 -95q-4 -12 3 -22t20 -11q9 0 16 6q42 38 66 90t24 112q0 26 -5 51l8 -3v0l10 -4q3 -21 3 -44q0 -64 -26 -119q-25 -55 -69 -95q-12 -10 -27 -10q-22 1 -33 18q-12 17 -5 37q16 42 16 89q0 57 -23 106q4 3 8 7l5 4v0q26 -54 26 -117v0zM266 240
q-22 -15 -49 -15q-28 0 -50 16l-36 25v0q-5 5 -1 12q4 5 11 2l35 -26v0q19 -13 41 -13t40 12q-36 50 -90 78q-54 29 -119 30q-20 1 -34 14q-13 14 -14 34v16v0q1 20 14 34q14 13 34 14h112v0q96 -2 168 -54q73 -53 104 -138l4 -2v0q14 -6 28 -6q42 1 64 38l33 62v0q4 6 11 3
q6 -4 3 -11l-33 -62v0q-12 -21 -33 -33q-20 -13 -45 -13q-18 0 -34 7l-83 36v0q-9 3 -17 -3l-54 -49v0q-5 -5 -10 -8v0v0v0v0v0zM411 290q-32 74 -98 120v0v0q-67 46 -153 47h-112v0q-14 0 -23 -9t-9 -23v-16v0q0 -14 9 -23t23 -9q69 -1 126 -31q58 -30 95 -83l50 46v0
q16 13 34 5l58 -24v0z" />
</svg>
