<?xml version="1.0" standalone="no"?>
<!DOCTYPE svg PUBLIC "-//W3C//DTD SVG 1.1//EN" "http://www.w3.org/Graphics/SVG/1.1/DTD/svg11.dtd" >
<svg xmlns="http://www.w3.org/2000/svg" xmlns:xlink="http://www.w3.org/1999/xlink" version="1.1" viewBox="-10 -40 532 512">
   <path fill="currentColor"
d="M422 -37q-6 -4 -12 0l-408 408v0q-4 6 0 12l4 3v0q42 42 96 64q54 23 114 23q82 -1 149 -41q67 -39 107 -106q39 -67 40 -149q0 -60 -23 -114q-22 -54 -64 -96l-3 -4v0zM216 457q-56 0 -106 -21v0v0q-51 -20 -91 -59l35 -34v0q31 31 73 48q41 18 89 18q65 -1 117 -32
t83 -83t32 -117q0 -48 -18 -89q-17 -42 -48 -73l34 -35v0q39 40 59 91q21 50 21 106q-1 78 -38 141q-38 63 -101 101q-63 37 -141 38v0zM431 161q1 8 1 16q-2 87 -58 147l-104 -104v0q17 -22 18 -51v-8h143v0zM430 145h-146h146h-146q-4 -12 -11 -22l97 -97v0q48 49 60 119
v0zM259 231l104 104l-104 -104l104 104q-60 56 -147 58q-8 0 -16 -1v-143v0h8q29 -1 51 -18v0zM184 391q-70 -12 -119 -60l97 -97v0q10 7 22 11v146v0zM208 233q-19 0 -35 -10l89 -88v0q10 15 10 34q-1 27 -19 45t-45 19v0z" />
</svg>
