<?xml version="1.0" standalone="no"?>
<!DOCTYPE svg PUBLIC "-//W3C//DTD SVG 1.1//EN" "http://www.w3.org/Graphics/SVG/1.1/DTD/svg11.dtd" >
<svg xmlns="http://www.w3.org/2000/svg" xmlns:xlink="http://www.w3.org/1999/xlink" version="1.1" viewBox="-10 -40 532 512">
   <path fill="currentColor"
d="M298 -23q-22 1 -36 15q-3 3 -6 3t-6 -3q-14 -14 -36 -15q-21 1 -36 15q-14 14 -14 36v4v0q-1 5 -5 7q-5 2 -9 -1q-11 -10 -28 -11q-18 1 -30 13q-12 11 -12 29q0 19 12 31q11 13 29 13h23h88q7 1 8 8q-1 7 -8 8h-32v0q8 10 8 24v9v0q-1 7 -8 8q-7 -1 -8 -8v-9v0
q-2 -22 -24 -24h-24h-23q-25 -1 -41 -18t-16 -42q1 -24 17 -41q16 -16 41 -17q14 0 26 6q5 -24 23 -40q18 -15 43 -16q24 0 42 15q18 -15 42 -15q25 1 43 16q18 16 23 40q12 -6 26 -6q25 1 41 17q16 17 17 41q-1 25 -17 42t-41 18h-46v0q-22 2 -24 24v9v0q-1 7 -8 8
q-7 -1 -8 -8v-9v0q0 -17 12 -28q11 -12 28 -12h46v0q18 -1 30 -13t12 -31q0 -18 -12 -29q-12 -12 -30 -13q-17 1 -28 11q-4 3 -9 1q-4 -2 -5 -7v-4v0q0 -22 -14 -36q-15 -14 -36 -15v0zM0 217v-10v0v0v0l16 6v0h1v0q11 4 23 -1l33 -14v0q12 -5 25 0l-6 15v0q-7 -3 -13 0
l-33 14v0q-14 6 -30 3q4 64 37 115q32 51 85 81t118 31q65 -1 118 -31t85 -81q33 -51 37 -115q-15 3 -30 -3l-33 -14v0q-6 -3 -12 0l-32 14v0q-19 7 -38 0l-32 -14v0q-6 -3 -12 0l-31 13v0q-20 8 -40 -1l-35 -18v0q-8 -3 -15 1l-21 13v0q-21 13 -44 4l-29 -12v0l6 -15v0
l29 13v0q15 6 29 -3l21 -13v0q15 -9 31 -2l35 18v0q13 6 27 0l31 -13v0q12 -5 24 0l32 14v0q13 5 25 0l32 -14v0q13 -5 25 0l33 14v0q12 5 23 1h1v0l16 -6v0v10v7q-3 70 -37 126q-35 56 -92 89t-127 34q-70 -1 -127 -34t-92 -89q-34 -56 -37 -126v-7v0zM176 281q15 1 16 16
q-1 15 -16 16q-14 -1 -16 -16q2 -15 16 -16v0zM336 281q15 1 16 16q-1 15 -16 16q-14 -1 -16 -16q2 -15 16 -16v0zM312 393q-2 -21 -16 -34v0v0q-14 -14 -35 -14h-10v0q-21 0 -35 14q-14 13 -16 34h112v0zM251 329h10h-10h10q29 1 47 20q19 18 20 47q-1 12 -13 13h-118v0
q-12 -1 -13 -13q1 -29 20 -47q18 -19 47 -20v0z" />
</svg>
