<?xml version="1.0" standalone="no"?>
<!DOCTYPE svg PUBLIC "-//W3C//DTD SVG 1.1//EN" "http://www.w3.org/Graphics/SVG/1.1/DTD/svg11.dtd" >
<svg xmlns="http://www.w3.org/2000/svg" xmlns:xlink="http://www.w3.org/1999/xlink" version="1.1" viewBox="-10 -40 522 512">
   <path fill="currentColor"
d="M176 25q-1 -27 -24 -42q-24 -12 -48 0q-23 15 -24 42q1 27 24 42q24 12 48 0q23 -15 24 -42v0zM64 25q1 -36 32 -55q32 -18 64 0q31 19 32 55q-1 36 -32 55q-32 18 -64 0q-31 -19 -32 -55v0zM42 196l-4 49l4 -49l-4 49q-1 22 12 37q14 14 36 15h26h48v16v0h-8v0v128v0
q1 15 16 16q4 0 8 -2v17v0q-4 1 -8 1q-14 0 -23 -9t-9 -23v-128v0h-16v0v128v0q0 14 -9 23t-23 9t-23 -9t-9 -23v-135v0q-35 -20 -34 -62l4 -50v0q3 -31 25 -52q23 -20 55 -21h44v0q11 0 21 3q-2 7 -3 16q-8 -3 -18 -3h-44v0q-26 1 -44 17q-17 16 -20 42v0zM344 473
q-4 0 -8 -1v-17v0q4 2 8 2q15 -1 16 -16v-96v0h-8v0v-16v0h16h102q17 -3 15 -20l-39 -137v0q-12 -33 -46 -35h-32v0q-13 0 -24 7q0 -9 -2 -17q12 -6 26 -6h32v0q22 0 38 13q17 12 23 33l39 137v0q4 16 -5 28t-25 13h-14v0v96v0q0 14 -9 23t-23 9t-23 -9t-9 -23v-96v0h-16v0
v96v0q0 14 -9 23t-23 9v0zM86 313q-7 0 -14 -1v129v0q1 15 16 16q15 -1 16 -16v-128v0h-18v0zM432 25q-1 -27 -24 -42q-24 -12 -48 0q-23 15 -24 42q1 27 24 42q24 12 48 0q23 -15 24 -42v0zM320 25q1 -36 32 -55q32 -18 64 0q31 19 32 55q-1 36 -32 55q-32 18 -64 0
q-31 -19 -32 -55v0zM440 345h-32h32h-32v96v0q1 15 16 16q15 -1 16 -16v-96v0zM296 145q-1 -23 -20 -35q-20 -10 -40 0q-19 12 -20 35q1 23 20 35q20 10 40 0q19 -12 20 -35v0zM200 145q1 -32 28 -48q28 -16 56 0q27 16 28 48q-1 32 -28 48q-28 16 -56 0q-27 -16 -28 -48v0z
M256 233q-27 1 -45 19v0v0q-18 18 -19 45v32v0q0 14 9 23t23 9h64v0q14 0 23 -9t9 -23v-32v0q-1 -27 -19 -45t-45 -19v0zM176 297q1 -34 23 -57v0v0q23 -22 57 -23q34 1 57 23q22 23 23 57v32v0q-2 33 -32 45v91v0q-1 7 -8 8q-7 -1 -8 -8v-88v0h-64v0v88v0q-1 7 -8 8
q-7 -1 -8 -8v-91v0q-30 -12 -32 -45v-32v0z" />
</svg>
