<?xml version="1.0" standalone="no"?>
<!DOCTYPE svg PUBLIC "-//W3C//DTD SVG 1.1//EN" "http://www.w3.org/Graphics/SVG/1.1/DTD/svg11.dtd" >
<svg xmlns="http://www.w3.org/2000/svg" xmlns:xlink="http://www.w3.org/1999/xlink" version="1.1" viewBox="-10 -40 522 512">
   <path fill="currentColor"
d="M80 25q1 -27 24 -42q24 -12 48 0q23 15 24 42q-1 27 -24 42q-24 12 -48 0q-23 -15 -24 -42v0zM192 25q-1 -36 -32 -55q-32 -18 -64 0q-31 19 -32 55q1 36 32 55q32 18 64 0q31 -19 32 -55v0zM42 196q3 -26 20 -42v0v0q18 -16 44 -17h44v0q10 0 18 3q1 -9 3 -16
q-10 -3 -20 -3h-45v0q-32 1 -55 21q-22 21 -25 52l-4 50v0q-2 20 8 36q9 17 26 26v135v0q0 14 9 23t23 9t23 -9t9 -23v-128v0h16v0v128v0q0 14 9 23t23 9q4 0 8 -1v-17v0q-4 2 -8 2q-15 -1 -16 -16v-128v0h8v0v-16v0h-16h-58q-22 -1 -36 -15q-13 -15 -12 -37l4 -49v0z
M344 473q14 0 23 -9v0v0q9 -9 9 -23v-128v0h16v0v128v0q0 14 9 23t23 9t23 -9t9 -23v-135v0q35 -20 34 -62l-4 -50v0q-3 -31 -25 -52q-23 -20 -55 -21h-44v0q-11 0 -21 3q2 7 3 16q8 -3 18 -3h44v0q26 1 44 17t20 42l4 49v0q2 22 -12 37q-14 14 -35 15h-27h-48v16v0h8v0v128
v0q-1 15 -16 16q-4 0 -8 -2v17v0q4 1 8 1v0zM86 313h18h-18h18v128v0q-1 15 -16 16q-15 -1 -16 -16v-129v0q7 1 14 1v0zM336 25q1 -27 24 -42q24 -12 48 0q23 15 24 42q-1 27 -24 42q-24 12 -48 0q-23 -15 -24 -42v0zM448 25q-1 -36 -32 -55q-32 -18 -64 0q-31 19 -32 55
q1 36 32 55q32 18 64 0q31 -19 32 -55v0zM440 312v129v-129v129q-1 15 -16 16q-15 -1 -16 -16v-128v0h18v0q7 0 14 -1v0zM216 145q1 -23 20 -35q20 -10 40 0q19 12 20 35q-1 23 -20 35q-20 10 -40 0q-19 -12 -20 -35v0zM312 145q-1 -32 -28 -48q-28 -16 -56 0q-27 16 -28 48
q1 32 28 48q28 16 56 0q27 -16 28 -48v0zM256 233q27 1 45 19v0v0q18 18 19 45v32v0q0 14 -9 23t-23 9h-64v0q-14 0 -23 -9t-9 -23v-32v0q1 -27 19 -45t45 -19v0zM176 297v32v-32v32q2 33 32 45v91v0q1 7 8 8q7 -1 8 -8v-88v0h64v0v88v0q1 7 8 8q7 -1 8 -8v-91v0
q30 -12 32 -45v-32v0q-1 -34 -23 -57q-23 -22 -57 -23q-34 1 -57 23q-22 23 -23 57v0z" />
</svg>
