<?xml version="1.0" standalone="no"?>
<!DOCTYPE svg PUBLIC "-//W3C//DTD SVG 1.1//EN" "http://www.w3.org/Graphics/SVG/1.1/DTD/svg11.dtd" >
<svg xmlns="http://www.w3.org/2000/svg" xmlns:xlink="http://www.w3.org/1999/xlink" version="1.1" viewBox="-10 -40 468 512">
   <path fill="currentColor"
d="M432 137q-1 -50 -58 -88q-59 -38 -150 -40q-91 2 -150 40q-57 38 -58 88q1 50 58 88q59 38 150 40q91 -2 150 -40q57 -38 58 -88v0zM448 137v80v-80v80q-1 63 -31 113q-29 51 -80 80q-50 30 -113 31q-63 -1 -113 -31q-51 -29 -80 -80q-30 -50 -31 -113v-80v0
q2 -61 66 -102q63 -40 158 -42q95 2 158 42q64 41 66 102v0zM432 191q-26 40 -81 65v0v0q-55 24 -127 25q-72 -1 -127 -25q-55 -25 -81 -65v26v0q2 88 61 147t147 61q88 -2 147 -61t61 -147v-26v0zM178 133q-2 3 -2 4t2 4q3 3 10 6q14 6 36 6t36 -6q7 -3 10 -6q2 -3 2 -4
t-2 -4q-3 -3 -10 -6q-14 -6 -36 -6t-36 6q-7 3 -10 6v0zM181 113q18 -8 43 -8t43 8q8 3 14 9t7 15q-1 9 -7 15t-14 9q-18 8 -43 8t-43 -8q-8 -3 -14 -9t-7 -15q1 -9 7 -15t14 -9v0zM232 49v24v-24v24q-1 7 -8 8q-7 -1 -8 -8v-24v0q1 -7 8 -8q7 1 8 8v0zM150 67l16 16
l-16 -16l16 16q4 6 0 12q-6 4 -12 0l-16 -16v0q-4 -6 0 -12q6 -4 12 0v0zM310 67q4 6 0 12l-16 16v0q-6 4 -12 0q-4 -6 0 -12l16 -16v0q6 -4 12 0v0zM96 129h32h-32h32q7 1 8 8q-1 7 -8 8h-32v0q-7 -1 -8 -8q1 -7 8 -8v0zM320 129h32h-32h32q7 1 8 8q-1 7 -8 8h-32v0
q-7 -1 -8 -8q1 -7 8 -8v0zM166 191l-16 16l16 -16l-16 16q-6 4 -12 0q-4 -6 0 -12l16 -16v0q6 -4 12 0q4 6 0 12v0zM294 179l16 16l-16 -16l16 16q4 6 0 12q-6 4 -12 0l-16 -16v0q-4 -6 0 -12q6 -4 12 0v0zM232 201v24v-24v24q-1 7 -8 8q-7 -1 -8 -8v-24v0q1 -7 8 -8
q7 1 8 8v0z" />
</svg>
