<?xml version="1.0" standalone="no"?>
<!DOCTYPE svg PUBLIC "-//W3C//DTD SVG 1.1//EN" "http://www.w3.org/Graphics/SVG/1.1/DTD/svg11.dtd" >
<svg xmlns="http://www.w3.org/2000/svg" xmlns:xlink="http://www.w3.org/1999/xlink" version="1.1" viewBox="-10 -40 468 512">
   <path fill="currentColor"
d="M160 425q-61 -2 -102 -42v0v0q-40 -41 -42 -102q1 -68 28 -119t69 -85q43 -34 88 -51q44 -17 79 -17q36 3 68 25q15 11 24 18q4 4 7 6q0 1 1 1v1h1v0v0v0v0v0v0v0v0v0v0v0v0v0v0v0v0v0v0v0v1v0v0v0l1 1l1 1l6 6q7 9 18 24q22 32 25 68q0 35 -17 79q-17 45 -51 88
q-34 42 -85 69t-119 28v0zM0 281q2 68 47 113v0v0q45 45 113 47q96 -2 160 -51q64 -48 96 -113q32 -64 32 -116q-1 -29 -15 -54q-13 -25 -26 -41q-14 -16 -15 -17t-17 -15q-16 -13 -41 -26q-25 -14 -54 -15q-52 0 -116 32q-65 32 -113 96q-49 64 -51 160v0zM248 81
q12 -12 37 -6t50 31t31 50t-6 37q-11 12 -37 6q-25 -6 -50 -31t-31 -50t6 -37v0zM347 94q-28 -27 -58 -35q-31 -8 -52 11q-19 21 -11 52q8 30 35 58q28 27 59 35q30 8 51 -11q19 -21 11 -51q-8 -31 -35 -59v0z" />
</svg>
