<?xml version="1.0" standalone="no"?>
<!DOCTYPE svg PUBLIC "-//W3C//DTD SVG 1.1//EN" "http://www.w3.org/Graphics/SVG/1.1/DTD/svg11.dtd" >
<svg xmlns="http://www.w3.org/2000/svg" xmlns:xlink="http://www.w3.org/1999/xlink" version="1.1" viewBox="-10 -40 394 512">
   <path fill="currentColor"
d="M193 105h-1h1h-16q-44 1 -68 39l-59 97v0q-6 13 6 22q13 6 22 -6l28 -47v0q7 -10 18 -7t12 15v31v0v0v0v0v0v0v0v80v0h48h136q15 -1 16 -16v-32v0q-1 -30 -19 -51q-17 -22 -46 -27q-10 -3 -12 -13l-7 -37v0q-5 -21 -20 -35q-16 -13 -38 -13v0h-1v0v0v0zM136 345v96v-96
v96q1 15 16 16q15 -1 16 -16v-96v0h-32v0zM184 345v16v-16v16v80v0q0 14 -9 23t-23 9t-23 -9t-9 -23v-192v0v0v0v0v0v-31v0l-16 27v0l-13 21v0q-7 11 -19 14q-13 3 -24 -4q-12 -7 -15 -19q-3 -13 4 -24l58 -97v0q13 -22 35 -35q22 -12 47 -12h15v0v0v0h1h1q28 0 48 17t25 44
l7 37v0q34 7 56 32q21 26 22 62v32v0q0 14 -9 23t-23 9h-16h-40v16v0v80v0q0 14 -9 23t-23 9t-23 -9t-9 -23v-80v0v-16v0h-8h-8zM216 345v96v-96v96q1 15 16 16q15 -1 16 -16v-96v0h-32v0zM248 17q-1 24 -16 40v0v0q-16 15 -40 16v0v0q-24 -1 -40 -16q-15 -16 -16 -40
q1 -24 16 -40q16 -15 40 -16q24 1 40 16q15 16 16 40v0zM232 17q-1 -23 -20 -35q-20 -10 -40 0q-19 12 -20 35q1 23 20 35q20 10 40 0q19 -12 20 -35v0z" />
</svg>
