<?xml version="1.0" standalone="no"?>
<!DOCTYPE svg PUBLIC "-//W3C//DTD SVG 1.1//EN" "http://www.w3.org/Graphics/SVG/1.1/DTD/svg11.dtd" >
<svg xmlns="http://www.w3.org/2000/svg" xmlns:xlink="http://www.w3.org/1999/xlink" version="1.1" viewBox="-11 0 533 512">
   <path fill="currentColor"
d="M482 -39q7 3 6 10q-12 38 -35 65q-22 26 -48 47q5 -1 12 -1q32 1 53 12q22 10 32 19t10 21t-9 20q-8 7 -23 15q-14 9 -34 14q-5 -8 -12 -14q19 -3 35 -11q15 -9 23 -16q4 -3 4 -8q0 -6 -3 -8q-9 -8 -29 -18q-19 -9 -47 -10q-24 1 -32 4q-3 2 -5 2v0v1h-1q-3 3 -7 2l-6 -6
v0q-1 -4 2 -8v0v0q1 -1 3 -5q3 -8 4 -33q-1 -27 -11 -46q-9 -20 -17 -29q-2 -3 -8 -3q-5 0 -8 3q-7 9 -16 24q-8 15 -11 35q-7 -7 -14 -13q5 -19 13 -34q9 -14 16 -22q8 -9 20 -9t21 10t19 32q11 21 12 53q0 10 -1 18q27 -21 49 -46t33 -61q3 -7 10 -6v0zM290 70l28 28
l-28 -28l28 28l57 57v0l28 28v0l8 8v0q37 39 37 90q0 75 -70 132q-69 57 -202 60q-95 1 -136 -40t-40 -136q3 -132 60 -202q57 -69 132 -70q51 0 91 38l7 7v0zM306 108l-35 -34l35 34l-35 -34q-34 -33 -79 -33q-66 0 -119 64q-54 64 -57 192q0 92 35 125q33 35 125 35
q128 -3 192 -57q64 -53 64 -119q0 -45 -33 -79l-34 -35v0q-16 -11 -31 -27v0v-1v0h-1v0v0v0q-16 -15 -27 -31v0zM214 271l-32 32l32 -32l-32 32q-6 4 -12 0q-4 -6 0 -12l32 -32v0q6 -4 12 0q4 6 0 12v0zM310 227q4 6 0 12l-32 32v0q-6 4 -12 0q-4 -6 0 -12l32 -32v0
q6 -4 12 0v0zM278 335l-32 32l32 -32l-32 32q-6 4 -12 0q-4 -6 0 -12l32 -32v0q6 -4 12 0q4 6 0 12v0zM374 303l-32 32l32 -32l-32 32q-6 4 -12 0q-4 -6 0 -12l32 -32v0q6 -4 12 0q4 6 0 12v0zM150 207l-32 32l32 -32l-32 32q-6 4 -12 0q-4 -6 0 -12l32 -32v0q6 -4 12 0
q4 6 0 12v0zM246 163q4 6 0 12l-32 32v0q-6 4 -12 0q-4 -6 0 -12l32 -32v0q6 -4 12 0v0zM182 111l-32 32l32 -32l-32 32q-6 4 -12 0q-4 -6 0 -12l32 -32v0q6 -4 12 0q4 6 0 12v0zM118 291q4 6 0 12l-32 32v0q-6 4 -12 0q-4 -6 0 -12l32 -32v0q6 -4 12 0v0zM182 367l-32 32
l32 -32l-32 32q-6 4 -12 0q-4 -6 0 -12l32 -32v0q6 -4 12 0q4 6 0 12v0z" />
</svg>
