<?xml version="1.0" standalone="no"?>
<!DOCTYPE svg PUBLIC "-//W3C//DTD SVG 1.1//EN" "http://www.w3.org/Graphics/SVG/1.1/DTD/svg11.dtd" >
<svg xmlns="http://www.w3.org/2000/svg" xmlns:xlink="http://www.w3.org/1999/xlink" version="1.1" viewBox="-10 -40 468 512">
   <path fill="currentColor"
d="M222 -23l-160 36l160 -36l-160 36q-4 1 -6 6q-1 4 2 8l30 29v0q2 2 2 6v27v0q11 8 36 17q25 10 69 14q-15 -16 -21 -35q-6 -18 -6 -33q0 -5 5 -7l48 -19v0q3 -2 6 0l48 19v0q5 2 5 7q0 15 -6 33q-6 19 -21 35q44 -4 69 -14q25 -9 36 -17v-27v0q0 -4 2 -6l29 -29v0
q3 -4 2 -8q-1 -5 -6 -6l-159 -36v0h-4v0zM367 102q-15 11 -48 22v0v0q-34 12 -93 13h-4q-60 -1 -93 -13q-33 -11 -48 -22q-7 -5 -7 -13v-24v0l-27 -27v0q-9 -10 -6 -24q4 -13 18 -16l160 -36v0q5 -2 10 0l160 36v0q13 3 18 16q3 14 -6 24l-27 27v0v24v0q0 8 -7 13v0zM96 144
q8 4 16 7v1v1q1 48 33 79q31 32 79 33q48 -1 79 -33q32 -31 33 -79v-1v-1q9 -3 16 -7v9q-1 54 -37 91q-37 36 -91 37q-54 -1 -91 -37q-36 -37 -37 -91v-9v0zM184 58q1 16 10 34v0v0q9 17 30 28q21 -11 30 -28q9 -18 10 -34l-40 -16v0l-40 16v0zM214 405l-87 -76l87 76
l-87 -76q-48 4 -79 37t-32 81q1 9 10 10h190v0v-50v0l-2 -2v0zM232 457h190h-190h190q9 -1 10 -10q-1 -48 -32 -81t-79 -37l-86 76v0l-3 2v0v50v0zM422 473h-198h198h-198v0v0v0v0h-198v0q-24 -2 -26 -26q1 -56 39 -94q37 -38 94 -40l91 80v0l91 -80v0q57 2 94 40
q38 38 39 94q-2 24 -26 26v0zM360 385v16v-16v16h16v0q7 1 8 8q-1 7 -8 8h-16v0v16v0q-1 7 -8 8q-7 -1 -8 -8v-16v0h-16v0q-7 -1 -8 -8q1 -7 8 -8h16v0v-16v0q1 -7 8 -8q7 1 8 8v0z" />
</svg>
