<?xml version="1.0" standalone="no"?>
<!DOCTYPE svg PUBLIC "-//W3C//DTD SVG 1.1//EN" "http://www.w3.org/Graphics/SVG/1.1/DTD/svg11.dtd" >
<svg xmlns="http://www.w3.org/2000/svg" xmlns:xlink="http://www.w3.org/1999/xlink" version="1.1" viewBox="-10 -40 468 512">
   <path fill="currentColor"
d="M222 -23l-160 36l160 -36l-160 36q-4 1 -6 6q-1 4 2 8l30 29v0q2 2 2 6v27v0q11 8 36 17q25 10 69 14q-15 -16 -21 -35q-6 -18 -6 -33q0 -5 5 -7l48 -19v0q3 -2 6 0l48 19v0q5 2 5 7q0 15 -6 33q-6 19 -21 35q44 -4 69 -14q25 -9 36 -17v-27v0q0 -4 2 -6l29 -29v0
q3 -4 2 -8q-1 -5 -6 -6l-159 -36v0h-4v0zM222 137q-60 -1 -93 -13v0v0q-33 -11 -48 -22q-7 -5 -7 -13v-24v0l-27 -27v0q-9 -10 -6 -24q4 -13 18 -16l160 -36v0q5 -2 10 0l160 36v0q13 3 18 16q3 14 -6 24l-27 27v0v24v0q0 8 -7 13q-15 11 -48 22q-34 12 -93 13h-4v0z
M128 313l70 93l-70 -93l70 93l17 -29v0l-37 -51v0q-3 -4 -1 -9q2 -4 7 -4h80v0q5 0 7 4q2 5 0 9l-37 51v0l17 29v0l69 -93v0q55 4 91 41q36 38 37 93q-2 24 -26 26h-396v0q-24 -2 -26 -26q1 -55 37 -93q36 -37 91 -41v0zM214 428l10 13l-10 -13l10 13l10 -13v0l6 -8v0
l-16 -27v0l-16 27v0l6 8v0zM237 451l-5 6l5 -6l-5 6h190v0q9 -1 10 -10q-1 -46 -30 -79q-29 -32 -75 -38l-90 121v0zM211 451l-90 -121l90 121l-90 -121q-46 6 -75 38q-29 33 -30 79q1 9 10 10h190v0l-5 -6v0zM96 153v-9q8 4 16 7v1v1q1 48 33 79q31 32 79 33q48 -1 79 -33
q32 -31 33 -79v-1v-1q9 -3 16 -7v9q-1 54 -37 91q-37 36 -91 37q-54 -1 -91 -37q-36 -37 -37 -91v0zM224 120q21 -11 30 -28v0v0q9 -18 10 -34l-40 -16v0l-40 16v0q1 16 10 34q9 17 30 28v0zM224 363l25 -34l-25 34l25 -34h-49v0l24 34v0z" />
</svg>
