<?xml version="1.0" standalone="no"?>
<!DOCTYPE svg PUBLIC "-//W3C//DTD SVG 1.1//EN" "http://www.w3.org/Graphics/SVG/1.1/DTD/svg11.dtd" >
<svg xmlns="http://www.w3.org/2000/svg" xmlns:xlink="http://www.w3.org/1999/xlink" version="1.1" viewBox="-10 -40 532 512">
   <path fill="currentColor"
d="M416 -37q5 -4 11 0q41 42 63 94q22 53 22 112v4v0q-1 84 -41 151q-40 68 -108 108q-67 40 -151 41h-4v0q-59 0 -112 -22q-52 -22 -94 -63q-4 -6 0 -11l414 -414v0zM421 -20l-37 37l37 -37l-37 37q62 65 64 160q-1 65 -32 117t-83 83t-117 32q-95 -2 -160 -64l-37 37v0
q39 36 87 56q49 19 102 19h4v0q79 -1 143 -39t102 -102t39 -143v-4v0q0 -54 -19 -102q-20 -48 -56 -87v0zM68 334q60 57 148 59q92 -2 153 -63t63 -153q-2 -88 -59 -148l-305 305v0zM334 123l24 24l-24 -24l24 24q4 6 0 12q-6 4 -12 0l-24 -24v0q-4 -6 0 -12q6 -4 12 0v0z
M254 203l24 24l-24 -24l24 24q4 6 0 12q-6 4 -12 0l-24 -24v0q-4 -6 0 -12q6 -4 12 0v0zM342 211l24 24l-24 -24l24 24q4 6 0 12q-6 4 -12 0l-24 -24v0q-4 -6 0 -12q6 -4 12 0v0zM174 283l24 24l-24 -24l24 24q4 6 0 12q-6 4 -12 0l-24 -24v0q-4 -6 0 -12q6 -4 12 0v0z
M262 291l24 24l-24 -24l24 24q4 6 0 12q-6 4 -12 0l-24 -24v0q-4 -6 0 -12q6 -4 12 0v0z" />
</svg>
