<?xml version="1.0" standalone="no"?>
<!DOCTYPE svg PUBLIC "-//W3C//DTD SVG 1.1//EN" "http://www.w3.org/Graphics/SVG/1.1/DTD/svg11.dtd" >
<svg xmlns="http://www.w3.org/2000/svg" xmlns:xlink="http://www.w3.org/1999/xlink" version="1.1" viewBox="-10 -40 660 512">
   <path fill="currentColor"
d="M478 -25q4 -6 0 -12q-6 -4 -12 0l-48 48v0q-4 6 0 12q6 4 12 0l48 -48v0zM574 -25q4 -6 0 -12q-6 -4 -12 0l-112 112v0l-49 50v0q4 -30 -5 -58q-9 -29 -31 -51l-11 -12v0q-12 -9 -23 0l-11 12v0q-37 39 -26 89l24 19v0q-13 -24 -10 -50q3 -27 23 -47l11 -11v0l11 11v0
q25 25 31 57t-6 63l-13 14v0l12 10v0l8 -8v0q32 -14 66 -9q34 6 61 31l11 12v0l-11 11v0q-25 24 -57 23l18 15v0q28 -5 50 -27l12 -11v0q9 -11 0 -23l-12 -11v0q-23 -23 -53 -32t-60 -3l52 -52v0l112 -112v0zM197 328q5 -29 -4 -58v0v0q-10 -28 -32 -51l-11 -11v0
q-11 -9 -23 0l-11 11v0q-28 30 -28 68q0 39 28 68l27 27v0l-77 77v0q-4 6 0 12q6 4 12 0l77 -77v0l29 29v0q29 28 68 28q38 0 68 -28l11 -11v0q9 -12 0 -23l-11 -11v0q-24 -23 -54 -32t-60 -4l69 -69v0l-12 -10v0l-66 65v0zM182 367q32 -15 66 -9v0v0q34 5 60 31l12 11v0
l-12 11v0q-24 24 -56 24t-57 -24l-29 -29v0l16 -16v1zM155 371l-28 -27l28 27l-28 -27q-23 -25 -23 -57t23 -56l11 -12v0l12 12v0q24 25 30 57q7 32 -5 63l-21 20h1zM574 71q4 -6 0 -12q-6 -4 -12 0l-48 48v0q-4 6 0 12q6 4 12 0l48 -48v0zM13 -37q-6 -4 -11 1q-4 6 1 11
l624 496v0q6 4 11 -1q4 -6 -1 -11l-624 -496v0z" />
</svg>
