<?xml version="1.0" standalone="no"?>
<!DOCTYPE svg PUBLIC "-//W3C//DTD SVG 1.1//EN" "http://www.w3.org/Graphics/SVG/1.1/DTD/svg11.dtd" >
<svg xmlns="http://www.w3.org/2000/svg" xmlns:xlink="http://www.w3.org/1999/xlink" version="1.1" viewBox="-10 -40 660 512">
   <path fill="currentColor"
d="M13 -37q-6 -4 -11 1q-4 6 1 11l624 496v0q6 4 11 -1q4 -6 -1 -11l-624 -496v0zM523 219l12 -11l-12 11l12 -11q9 -11 0 -23l-12 -11v0q-23 -23 -53 -32t-60 -3l26 -27v0h4v0l49 -2v0q35 -3 58 -26t26 -58l2 -38v0q0 -11 -7 -19q-7 -7 -18 -7l-39 2v0q-35 3 -58 26t-26 58
l-2 49v0v4v0l-24 24v0q4 -30 -5 -58q-9 -29 -31 -51l-11 -12v0q-12 -9 -23 0l-11 12v0q-20 20 -26 45q-6 26 2 52l35 27v0v0v0q-24 -25 -24 -57q0 -31 24 -56l11 -11v0l11 11v0q25 25 31 57t-6 63l-17 17v0l13 10v0l11 -11v0q32 -14 66 -9q34 6 61 31l11 12v0l-11 11v0
q-29 27 -66 23l20 16v0q32 -4 57 -28v0zM197 328q5 -29 -4 -58v0v0q-10 -28 -32 -51l-11 -11v0q-11 -9 -23 0l-11 11v0q-28 30 -28 68q0 39 28 68l27 27v0l-77 77v0q-4 6 0 12q6 4 12 0l77 -77v0l29 29v0q29 28 68 28q38 0 68 -28l11 -11v0q9 -12 0 -23l-11 -11v0
q-24 -23 -54 -32t-60 -4l66 -65v0l-13 -10v0l-62 61v0zM550 -22q8 1 9 9l-2 38v0q-2 29 -21 48t-47 21l-48 2v0l2 -48v0q2 -28 21 -47t48 -21l38 -2v0zM166 382l16 -15l-16 15l16 -15q32 -15 66 -9q34 5 60 31l12 11v0l-12 11v0q-24 24 -56 24t-57 -24l-29 -29v0zM175 351
l-20 20l20 -20l-20 20l-28 -27v0q-23 -25 -23 -57t23 -56l11 -12v0l12 12v0q24 25 30 57q7 32 -5 63v0z" />
</svg>
