<?xml version="1.0" standalone="no"?>
<!DOCTYPE svg PUBLIC "-//W3C//DTD SVG 1.1//EN" "http://www.w3.org/Graphics/SVG/1.1/DTD/svg11.dtd" >
<svg xmlns="http://www.w3.org/2000/svg" xmlns:xlink="http://www.w3.org/1999/xlink" version="1.1" viewBox="-10 -40 597 512">
   <path fill="currentColor"
d="M349 -23q61 0 105 42q42 44 42 105q0 38 -16 75t-46 68q-57 54 -127 61t-121 -41q-42 -44 -42 -105q0 -38 16 -75t46 -68q31 -30 68 -46t75 -16v0zM349 -39q-41 0 -81 17v0v0q-40 17 -73 50t-50 73t-17 81q0 62 41 111l-32 32v0l-10 -11v0q-10 -9 -23 -9t-23 9l-72 72v0
q-9 10 -9 23t9 23l32 32v0q10 9 23 9t23 -9l72 -72v0q9 -10 9 -23t-9 -23l-11 -10v0l32 -32v0q58 49 132 40q75 -9 133 -66q33 -33 50 -73t17 -81q1 -67 -47 -117q-49 -47 -116 -46v0zM93 326q11 -10 22 0l32 32v0q10 11 0 22l-72 72v0q-11 10 -22 0l-32 -32v0
q-10 -11 0 -22l72 -72v0zM460 425l-12 38l12 -38l-12 38q-1 7 6 10q7 1 10 -6l12 -42v0h-16v0zM504 425v40v-40v40q1 7 8 8q7 -1 8 -8v-40v0h-16v0zM548 425l12 42l-12 -42l12 42q3 7 10 6q7 -3 6 -10l-12 -38v0h-16v0zM480 361q0 -14 9 -23v0v0q9 -9 23 -9t23 9t9 23v32v0
h-64v0v-32v0zM560 361q-1 -20 -14 -34v0v0q-14 -13 -34 -14q-20 1 -34 14q-13 14 -14 34v32v0v16v0h16h80v-16v0v-32v0z" />
</svg>
