<?xml version="1.0" standalone="no"?>
<!DOCTYPE svg PUBLIC "-//W3C//DTD SVG 1.1//EN" "http://www.w3.org/Graphics/SVG/1.1/DTD/svg11.dtd" >
<svg xmlns="http://www.w3.org/2000/svg" xmlns:xlink="http://www.w3.org/1999/xlink" version="1.1" viewBox="-10 -40 404 512">
   <path fill="currentColor"
d="M312 -31q0 -4 -3 -7q-4 -2 -8 0l-64 24v0q-6 3 -4 10q3 6 10 5l53 -20v0v188v0h-64v0q-7 1 -8 8q1 7 8 8h72h72q7 -1 8 -8q-1 -7 -8 -8h-64v0v-200v0zM88 257q0 -4 -3 -7q-4 -2 -8 0l-64 24v0q-6 3 -5 10q4 6 11 5l53 -20v0v188v0h-64v0q-7 1 -8 8q1 7 8 8h72h72
q7 -1 8 -8q-1 -7 -8 -8h-64v0v-200v0zM16 25v96v-96v96q1 27 19 45t45 19h32v0q27 -1 45 -19t19 -45v-96v0q-1 -27 -19 -45t-45 -19h-32v0q-27 1 -45 19t-19 45v0zM80 -23h32h-32h32q20 1 34 14q13 14 14 34v96v0q-1 20 -14 34q-14 13 -34 14h-32v0q-20 -1 -34 -14
q-13 -14 -14 -34v-96v0q1 -20 14 -34q14 -13 34 -14v0zM272 249q-27 1 -45 19v0v0q-18 18 -19 45v96v0q1 27 19 45t45 19h32v0q27 -1 45 -19t19 -45v-96v0q-1 -27 -19 -45t-45 -19h-32v0zM224 313q1 -20 14 -34v0v0q14 -13 34 -14h32v0q20 1 34 14q13 14 14 34v96v0
q-1 20 -14 34q-14 13 -34 14h-32v0q-20 -1 -34 -14q-13 -14 -14 -34v-96v0z" />
</svg>
