<?xml version="1.0" standalone="no"?>
<!DOCTYPE svg PUBLIC "-//W3C//DTD SVG 1.1//EN" "http://www.w3.org/Graphics/SVG/1.1/DTD/svg11.dtd" >
<svg xmlns="http://www.w3.org/2000/svg" xmlns:xlink="http://www.w3.org/1999/xlink" version="1.1" viewBox="-10 -40 660 512">
   <path fill="currentColor"
d="M432 185h72h-72h72q7 -1 8 -8q-1 -7 -8 -8h-64v0v-200v0q0 -4 -3 -7q-4 -2 -8 0l-64 24v0q-6 3 -4 10q3 6 10 5l53 -20v0v188v0h-49v0l21 16v0h36v0zM304 25q-1 -27 -19 -45v0v0q-18 -18 -45 -19h-32v0q-37 2 -55 32l12 10v0q14 -25 43 -26h32v0q20 1 34 14q13 14 14 34
v75v0l16 13v0v-88v0zM336 409q1 27 19 45v0v0q18 18 45 19h32v0q37 -2 56 -32l-13 -10v0q-14 24 -43 26h-32v0q-20 -1 -34 -14q-13 -14 -14 -34v-75v0l-16 -13v0v88v0zM216 257q0 -4 -3 -7q-4 -2 -8 0l-64 24v0q-6 3 -4 10q3 6 10 5l53 -20v0v188v0h-64v0q-7 1 -8 8q1 7 8 8
h72h72q7 -1 8 -8q-1 -7 -8 -8h-64v0v-200v0zM13 -37q-6 -4 -11 1q-4 6 1 11l624 496v0q6 4 11 -1q4 -6 -1 -11l-624 -496v0z" />
</svg>
