<?xml version="1.0" standalone="no"?>
<!DOCTYPE svg PUBLIC "-//W3C//DTD SVG 1.1//EN" "http://www.w3.org/Graphics/SVG/1.1/DTD/svg11.dtd" >
<svg xmlns="http://www.w3.org/2000/svg" xmlns:xlink="http://www.w3.org/1999/xlink" version="1.1" viewBox="-10 -40 532 512">
   <path fill="currentColor"
d="M106 50l-30 105l30 -105l-30 105q10 -2 20 -2h32v0v16v0h-32v0q-34 1 -57 23q-22 23 -23 57v96v0h48h432v-96v0q-1 -34 -23 -57q-23 -22 -57 -23h-32v0v-16v0h32v0q10 0 20 2l-30 -105v0q-6 -19 -21 -30q-14 -11 -33 -11h-192v0q-19 0 -33 11q-15 11 -20 30h-1zM58 161
l33 -116l-33 116l33 -116q7 -23 26 -37q19 -15 43 -15h192v0q24 0 43 15q19 14 26 37l33 116v0q26 11 42 35q15 23 16 53v96v0v16v0v48v0q0 14 -9 23t-23 9h-16v0q-14 0 -23 -9t-9 -23v-48v0h-352v0v48v0q0 14 -9 23t-23 9h-16v0q-14 0 -23 -9t-9 -23v-48v0v-16v0v-96v0
q0 -30 16 -53q16 -24 42 -35v0zM448 361v48v-48v48q1 15 16 16h16v0q15 -1 16 -16v-48v0h-48v0zM16 361v48v-48v48q1 15 16 16h16v0q15 -1 16 -16v-48v0h-48v0zM112 249q-1 -15 -16 -16q-15 1 -16 16q1 15 16 16q15 -1 16 -16v0zM64 249q0 -14 9 -23v0v0q9 -9 23 -9t23 9
t9 23t-9 23t-23 9t-23 -9t-9 -23v0zM416 265q15 -1 16 -16q-1 -15 -16 -16q-15 1 -16 16q1 15 16 16v0zM416 217q14 0 23 9v0v0q9 9 9 23t-9 23t-23 9t-23 -9t-9 -23t9 -23t23 -9v0zM315 81l-32 56l32 -56l-32 56h46v0q12 1 15 11q3 11 -6 18l-126 80v0q-11 6 -20 -2
q-8 -7 -2 -19l32 -56v0h-46v0q-12 -1 -15 -12q-3 -10 6 -17l126 -80v0q11 -6 20 1q8 8 3 20h-1zM176 153h59h-59h59q5 0 7 4t0 8l-39 68v0l126 -80v0h-59v0q-5 0 -7 -4t0 -8l39 -68v0l-126 80v0z" />
</svg>
