<?xml version="1.0" standalone="no"?>
<!DOCTYPE svg PUBLIC "-//W3C//DTD SVG 1.1//EN" "http://www.w3.org/Graphics/SVG/1.1/DTD/svg11.dtd" >
<svg xmlns="http://www.w3.org/2000/svg" xmlns:xlink="http://www.w3.org/1999/xlink" version="1.1" viewBox="-10 -40 468 512">
   <path fill="currentColor"
d="M432 185q-2 86 -58 144h22v0q50 -60 52 -144q-1 -63 -31 -113q-29 -51 -80 -80q-50 -30 -113 -31q-63 1 -113 31q-51 29 -80 80q-30 50 -31 113q2 84 52 144h22v0q-56 -58 -58 -144q2 -88 61 -147t147 -61q88 2 147 61t61 147v0zM80 361q-4 0 -7 4l-45 67v0q-4 7 -4 15
q2 24 26 26h348v0q24 -2 26 -26q0 -8 -4 -15l-45 -67v0q-3 -4 -7 -4h-288v0zM42 441l42 -64l-42 64l42 -64h280v0l42 64v0q2 2 2 6q-1 9 -10 10h-348v0q-9 -1 -10 -10q0 -4 2 -6v0zM288 113q-7 1 -8 8v56v0h-56v0q-7 1 -8 8q1 7 8 8h56v0v56v0q1 7 8 8q7 -1 8 -8v-56v0h56v0
q7 -1 8 -8q-1 -7 -8 -8h-56v0v-56v0q-1 -7 -8 -8v0zM144 65q-7 1 -8 8v24v0h-24v0q-7 1 -8 8q1 7 8 8h24v0v24v0q1 7 8 8q7 -1 8 -8v-24v0h24v0q7 -1 8 -8q-1 -7 -8 -8h-24v0v-24v0q-1 -7 -8 -8v0z" />
</svg>
