<?xml version="1.0" standalone="no"?>
<!DOCTYPE svg PUBLIC "-//W3C//DTD SVG 1.1//EN" "http://www.w3.org/Graphics/SVG/1.1/DTD/svg11.dtd" >
<svg xmlns="http://www.w3.org/2000/svg" xmlns:xlink="http://www.w3.org/1999/xlink" version="1.1" viewBox="-10 -40 586 512">
   <path fill="currentColor"
d="M288 -23q-94 2 -159 60v0v0q-66 59 -79 149q-2 7 -9 7q-7 -2 -7 -9q14 -97 84 -159t170 -64q72 1 129 35q58 34 92 92q34 57 35 129q-1 72 -35 129q-34 58 -92 92q-57 34 -129 35q-53 0 -99 -20t-81 -54q-5 -6 0 -12q5 -4 11 0q33 33 76 51q43 19 93 19q67 -1 121 -33
t86 -86t33 -121q-1 -67 -33 -121t-86 -86t-121 -33v0zM198 123q4 6 0 12l-8 7v0q-34 34 -82 43h-3v0q-7 0 -9 -7q0 -7 7 -9h2v0q43 -8 74 -38l7 -8v0q6 -4 12 0v0zM378 135q-4 -6 0 -12q6 -4 12 0l7 8v0q31 30 74 38h2v0q8 2 7 9q-2 7 -9 7h-3v0q-48 -9 -82 -43l-8 -7v0z
M64 236q-14 17 -29 41q-9 14 -14 25q-5 12 -5 16q0 18 14 30q13 12 34 13q21 -1 34 -13q14 -12 14 -30q0 -4 -5 -16q-5 -11 -14 -25q-15 -24 -29 -41v0zM56 221q8 -8 17 0q15 18 34 47q19 30 21 50q-1 25 -19 42q-18 16 -45 17q-27 -1 -45 -17q-18 -17 -19 -42q2 -20 21 -50
q20 -29 35 -47v0zM368 217q14 1 16 16q-2 15 -16 16q-15 -1 -16 -16q1 -15 16 -16v0zM224 233q-2 15 -16 16q-15 -1 -16 -16q1 -15 16 -16q14 1 16 16v0zM284 281h8h-8h8q36 1 59 25q24 23 25 59q-1 11 -12 12h-152v0q-11 -1 -12 -12q1 -36 25 -59q23 -24 59 -25v0zM360 361
q-2 -27 -21 -45v0v0q-19 -18 -47 -19h-8v0q-28 1 -47 19t-21 45h144v0z" />
</svg>
