<?xml version="1.0" standalone="no"?>
<!DOCTYPE svg PUBLIC "-//W3C//DTD SVG 1.1//EN" "http://www.w3.org/Graphics/SVG/1.1/DTD/svg11.dtd" >
<svg xmlns="http://www.w3.org/2000/svg" xmlns:xlink="http://www.w3.org/1999/xlink" version="1.1" viewBox="-10 -40 532 512">
   <path fill="currentColor"
d="M496 217q-1 -65 -32 -120v0v0q-32 -55 -88 -88q-57 -32 -120 -32t-120 32q-56 33 -88 88q-31 55 -32 120q1 65 32 120q32 55 88 88q57 32 120 32t120 -32q56 -33 88 -88q31 -55 32 -120v0zM0 217q1 -70 34 -128v0v0q34 -58 94 -94q61 -34 128 -34t128 34q60 36 94 94
q33 58 34 128q-1 70 -34 128q-34 58 -94 94q-61 34 -128 34t-128 -34q-60 -36 -94 -94q-33 -58 -34 -128v0zM252 281h8h-8h8q36 1 59 25q24 23 25 59q-1 11 -12 12h-152v0q-11 -1 -12 -12q1 -36 25 -59q23 -24 59 -25v0zM260 297h-8h8h-8q-28 1 -47 19t-21 45h144v0
q-2 -27 -21 -45t-47 -19v0zM144 185q2 -15 16 -16q15 1 16 16q-1 15 -16 16q-14 -1 -16 -16v0zM352 169q15 1 16 16q-1 15 -16 16q-14 -1 -16 -16q2 -15 16 -16v0zM200 49q0 7 -7 8q-50 4 -83 39q-6 4 -11 0q-5 -5 -1 -11q37 -39 94 -44q7 0 8 8v0zM320 57q-8 -1 -8 -8
q1 -8 9 -8q56 5 93 44q4 5 0 11q-6 4 -12 0q-33 -35 -82 -39v0zM160 129q-32 1 -48 28q-16 28 0 56q16 27 48 28q32 -1 48 -28q16 -28 0 -56q-16 -27 -48 -28v0zM232 185q-1 41 -36 62q-36 20 -72 0q-35 -21 -36 -62q1 -41 36 -62q36 -20 72 0q35 21 36 62v0zM296 185
q1 32 28 48q28 16 56 0q27 -16 28 -48q-1 -32 -28 -48q-28 -16 -56 0q-27 16 -28 48v0zM352 257q-41 -1 -62 -36q-20 -36 0 -72q21 -35 62 -36q41 1 62 36q20 36 0 72q-21 35 -62 36v0z" />
</svg>
