<?xml version="1.0" standalone="no"?>
<!DOCTYPE svg PUBLIC "-//W3C//DTD SVG 1.1//EN" "http://www.w3.org/Graphics/SVG/1.1/DTD/svg11.dtd" >
<svg xmlns="http://www.w3.org/2000/svg" xmlns:xlink="http://www.w3.org/1999/xlink" version="1.1" viewBox="-10 -40 532 512">
   <path fill="currentColor"
d="M256 -23q-67 1 -121 33v0v0q-54 32 -86 86v0v0q-32 54 -33 121v145v0l9 -20v0q3 -7 10 -4t4 10l-24 56v0q-2 6 -9 5q-6 -2 -6 -8v-184v0q1 -72 35 -129q34 -58 92 -92q57 -34 129 -35q72 1 129 35q58 34 92 92q34 57 35 129v248v0q0 6 -6 8q-7 1 -9 -5l-24 -56v0
q-3 -7 4 -10t10 4l9 20v0v-209v0q-1 -67 -33 -121t-86 -86t-121 -33v0zM168 265q-17 0 -28 12v0v0q-12 11 -12 28t12 28q11 12 28 12h8v0v-80v0h-8v0zM192 345h56h-56h56v-80v0h-56v0v80v0zM288 345h16h-16h32v-80v0h-56v0v80v0h24v0zM288 361h-120h120h-120q-24 -1 -40 -16
q-15 -16 -16 -40q1 -24 16 -40q16 -15 40 -16h176v0q24 1 40 16q15 16 16 40q-1 24 -16 39v121v0q-1 7 -8 8q-7 -1 -8 -8v-109v0q-11 5 -24 5h-40v0v40v0q-1 7 -8 8q-7 -1 -8 -8v-40v0zM384 305q0 -17 -12 -28v0v0q-11 -12 -28 -12h-8v0v80v0h8v0q14 0 24 -8v0v0v0v0
q15 -12 16 -32v0zM160 169q2 -15 16 -16q15 1 16 16q-1 15 -16 16q-14 -1 -16 -16v0zM336 153q15 1 16 16q-1 15 -16 16q-14 -1 -16 -16q2 -15 16 -16v0zM333 444q8 -2 11 5q1 7 -5 10q-39 14 -83 14q-59 0 -110 -25q-50 -24 -86 -66q-4 -6 1 -11q6 -4 12 1q33 39 80 62
t103 23q41 0 77 -13v0zM408 403q32 -26 54 -62q4 -6 11 -3q6 5 2 11q-23 38 -57 66q-6 4 -11 -1q-4 -6 1 -11v0zM106 153q7 3 6 10l-24 88v0q-2 5 -7 6q-6 0 -8 -5l-24 -56v0q-3 -7 4 -10t10 4l15 35v0l18 -66v0q3 -7 10 -6v0zM352 35q-1 -7 6 -10q7 -1 10 6l18 66v0l15 -35
v0q3 -7 10 -4t4 10l-24 56v0q-2 5 -7 5q-6 -1 -8 -6l-24 -88v0z" />
</svg>
