<?xml version="1.0" standalone="no"?>
<!DOCTYPE svg PUBLIC "-//W3C//DTD SVG 1.1//EN" "http://www.w3.org/Graphics/SVG/1.1/DTD/svg11.dtd" >
<svg xmlns="http://www.w3.org/2000/svg" xmlns:xlink="http://www.w3.org/1999/xlink" version="1.1" viewBox="-10 -40 532 512">
   <path fill="currentColor"
d="M496 217q-1 -65 -32 -120v0v0q-32 -55 -88 -88q-57 -32 -120 -32t-120 32q-56 33 -88 88q-31 55 -32 120q1 65 32 120q32 55 88 88q57 32 120 32t120 -32q56 -33 88 -88q31 -55 32 -120v0zM0 217q1 -70 34 -128v0v0q34 -58 94 -94q61 -34 128 -34t128 34q60 36 94 94
q33 58 34 128q-1 70 -34 128q-34 58 -94 94q-61 34 -128 34t-128 -34q-60 -36 -94 -94q-33 -58 -34 -128v0zM241 233q18 3 34 10q13 5 24 14q12 8 13 24q-1 15 -13 22q-10 7 -21 10q11 4 21 10q12 7 13 22q-1 16 -13 26q-11 9 -24 14q-17 6 -34 8v0v0q-7 0 -9 -7q0 -7 7 -9
q15 -2 30 -7q12 -5 20 -11q7 -7 7 -14q0 -4 -7 -9q-8 -5 -19 -9q-12 -3 -21 -5h-4h-2l-6 -2q-5 -2 -5 -7t5 -8q3 0 6 -1v0v0v0v0v0h2h4q9 -2 21 -5q11 -4 19 -9q7 -5 7 -9q0 -6 -7 -12q-8 -7 -20 -11q-12 -5 -21 -7q-6 -2 -10 -2q-7 -2 -6 -9q2 -7 9 -7v0zM176 161
q-24 -1 -41 28q-5 6 -11 3q-6 -4 -3 -11q21 -35 55 -36q33 1 55 36q3 7 -3 11q-7 3 -11 -3q-18 -29 -41 -28v0zM295 189q-5 6 -11 3q-6 -4 -3 -11q21 -35 55 -36q33 1 55 36q3 7 -3 11q-7 3 -11 -3q-18 -29 -41 -28q-24 -1 -41 28v0z" />
</svg>
