<?xml version="1.0" standalone="no"?>
<!DOCTYPE svg PUBLIC "-//W3C//DTD SVG 1.1//EN" "http://www.w3.org/Graphics/SVG/1.1/DTD/svg11.dtd" >
<svg xmlns="http://www.w3.org/2000/svg" xmlns:xlink="http://www.w3.org/1999/xlink" version="1.1" viewBox="-10 -40 532 512">
   <path fill="currentColor"
d="M448 361v-168v168v-168q-1 -7 -8 -8v0v0q-4 -41 -33 -68t-71 -28q-44 1 -74 30q-29 30 -30 74q1 44 30 74q30 29 74 30q33 0 58 -18q26 -17 38 -46v130v0q0 8 1 16q-33 36 -79 57q-45 21 -98 21q-67 -1 -121 -33t-86 -86t-33 -121q1 -67 33 -121t86 -86t121 -33
q67 1 121 33t86 86t33 121q-1 82 -48 144v0zM450 384q60 -69 62 -167q-1 -72 -35 -129q-34 -58 -92 -92q-57 -34 -129 -35q-72 1 -129 35q-58 34 -92 92q-34 57 -35 129q1 72 35 129q34 58 92 92q57 34 129 35q53 0 100 -20q46 -20 81 -55q13 42 51 67l12 7v0q6 3 11 -3
q3 -6 -3 -11l-11 -7v0q-38 -24 -47 -67v0zM160 137q-1 -15 -16 -16q-14 1 -16 16q2 15 16 16q15 -1 16 -16v0zM304 185q15 -1 16 -16q-1 -15 -16 -16q-14 1 -16 16q2 15 16 16v0zM336 105q50 2 76 44q24 44 0 88q-26 42 -76 44q-50 -2 -76 -44q-24 -44 0 -88q26 -42 76 -44
v0zM160 321q1 7 8 8q25 -1 64 12q37 14 57 48q4 6 11 3q6 -4 3 -11q-11 -20 -28 -34q-18 -13 -38 -21q-41 -14 -69 -13q-7 1 -8 8v0zM300 61q15 -12 33 -12q17 0 30 9l9 6v0q6 3 11 -3q3 -6 -3 -11l-8 -5v0q-18 -12 -38 -12q-25 0 -44 15l-23 19v0q-5 5 -1 11q5 5 11 1
l23 -18v0z" />
</svg>
