<?xml version="1.0" standalone="no"?>
<!DOCTYPE svg PUBLIC "-//W3C//DTD SVG 1.1//EN" "http://www.w3.org/Graphics/SVG/1.1/DTD/svg11.dtd" >
<svg xmlns="http://www.w3.org/2000/svg" xmlns:xlink="http://www.w3.org/1999/xlink" version="1.1" viewBox="-10 -40 532 512">
   <path fill="currentColor"
d="M256 -23q65 1 120 32v0v0q55 32 88 88q32 57 32 120t-32 120q-33 56 -88 88q-55 31 -120 32q-65 -1 -120 -32q-55 -32 -88 -88q-32 -57 -32 -120t32 -120q33 -56 88 -88q55 -31 120 -32v0zM256 473q70 -1 128 -34v0v0q58 -34 94 -94q34 -61 34 -128t-34 -128
q-36 -60 -94 -94q-58 -33 -128 -34q-70 1 -128 34q-58 34 -94 94q-34 61 -34 128t34 128q36 60 94 94q58 33 128 34v0zM192 201q-1 -15 -16 -16q-14 1 -16 16q2 15 16 16q15 -1 16 -16v0zM336 217q15 -1 16 -16q-1 -15 -16 -16q-14 1 -16 16q2 15 16 16v0zM372 102l5 7
l-5 -7l5 7q5 6 11 3q6 -5 3 -12l-5 -7v0q-14 -19 -36 -21q-21 -2 -38 14l-30 29v0q-4 6 0 12q6 4 12 0l29 -30v0q12 -11 26 -9q14 1 23 14v0zM120 121q1 7 8 8h64v0q7 -1 8 -8q-1 -7 -8 -8h-64v0q-7 1 -8 8v0zM168 305q-7 1 -8 8q1 7 8 8h176v0q7 -1 8 -8q-1 -7 -8 -8h-176
v0z" />
</svg>
