<?xml version="1.0" standalone="no"?>
<!DOCTYPE svg PUBLIC "-//W3C//DTD SVG 1.1//EN" "http://www.w3.org/Graphics/SVG/1.1/DTD/svg11.dtd" >
<svg xmlns="http://www.w3.org/2000/svg" xmlns:xlink="http://www.w3.org/1999/xlink" version="1.1" viewBox="-10 -40 532 512">
   <path fill="currentColor"
d="M496 217q-1 -65 -32 -120v0v0q-32 -55 -88 -88q-57 -32 -120 -32t-120 32q-56 33 -88 88q-31 55 -32 120q1 65 32 120q32 55 88 88q57 32 120 32t120 -32q56 -33 88 -88q31 -55 32 -120v0zM0 217q1 -70 34 -128v0v0q34 -58 94 -94q61 -34 128 -34t128 34q60 36 94 94
q33 58 34 128q-1 70 -34 128q-34 58 -94 94q-61 34 -128 34t-128 -34q-60 -36 -94 -94q-33 -58 -34 -128v0zM182 331q10 12 29 21v0v0q19 8 45 9q26 -1 45 -9q19 -9 29 -21q6 -4 12 0q4 6 0 12q-13 13 -34 23q-22 10 -52 11q-30 -1 -52 -11q-21 -10 -34 -23q-4 -6 0 -12
q6 -4 12 0v0zM352 233q23 1 41 -28q4 -6 11 -3q6 4 3 11q-22 35 -55 36q-34 -1 -55 -36q-3 -7 3 -11q7 -3 11 3q17 29 41 28v0zM119 205q17 29 41 28q23 1 41 -28q4 -6 11 -3q6 4 3 11q-22 35 -55 36q-34 -1 -55 -36q-3 -7 3 -11q7 -3 11 3v0zM200 55q1 7 -5 10l-7 2v0
q-39 13 -62 47l-7 12v0q-5 5 -11 2q-6 -5 -2 -11l7 -12v0q26 -38 70 -54l7 -2v0q7 -1 10 5v1zM318 65q-7 -3 -5 -10t10 -6l6 3v0q44 15 70 53l8 12v0q3 6 -3 11q-6 3 -11 -2l-7 -12v0q-23 -34 -62 -47l-6 -2v0z" />
</svg>
