<?xml version="1.0" standalone="no"?>
<!DOCTYPE svg PUBLIC "-//W3C//DTD SVG 1.1//EN" "http://www.w3.org/Graphics/SVG/1.1/DTD/svg11.dtd" >
<svg xmlns="http://www.w3.org/2000/svg" xmlns:xlink="http://www.w3.org/1999/xlink" version="1.1" viewBox="-10 -40 650 512">
   <path fill="currentColor"
d="M80 217q1 -67 33 -121v0v0q32 -54 86 -86v0v0q54 -32 121 -33q67 1 121 33t86 86t33 121q1 7 8 8q7 -1 8 -8q-1 -72 -35 -129q-34 -58 -92 -92q-57 -34 -129 -35q-72 1 -129 35q-58 34 -92 92q-34 57 -35 129q1 7 8 8q7 -1 8 -8v0zM258 449q-7 -1 -10 6q-1 7 6 9
q32 9 66 9t66 -9q7 -2 6 -9q-3 -7 -10 -6q-30 8 -62 8t-62 -8v0zM182 154q16 -26 39 -36t40 -1q16 10 19 33q2 23 -13 50q-17 26 -40 36t-40 1q-16 -10 -19 -33q-2 -23 13 -50h1zM269 103q-26 -12 -54 0q-28 13 -47 43q-18 30 -16 60q3 30 27 45q26 12 54 -1q28 -12 47 -42
q18 -31 16 -60q-3 -30 -27 -45v0zM419 118q23 10 40 36q15 27 13 50q-3 23 -19 33q-17 9 -40 -1t-40 -36q-15 -27 -13 -50q3 -24 19 -33q17 -9 40 1v0zM425 103q-28 -12 -53 0q-25 15 -28 45q-2 29 16 60q19 30 47 43q28 12 54 0q24 -15 27 -45q2 -30 -16 -60
q-19 -30 -47 -43v0zM368 329v32v-32v32q-1 20 -14 34q-14 13 -34 14q-20 -1 -34 -14q-13 -14 -14 -34v-32v0q1 -20 14 -34q14 -13 34 -14q20 1 34 14q13 14 14 34v0zM256 329v32v-32v32q1 27 19 45t45 19q27 -1 45 -19t19 -45v-32v0q-1 -27 -19 -45t-45 -19q-27 1 -45 19
t-19 45v0zM56 287q12 -8 25 -6q10 2 17 8q38 33 62 85q23 51 24 99h16v0q-1 -52 -26 -106q-24 -55 -65 -90v0v0q-12 -9 -25 -11q-19 -4 -37 7v0v0q-18 12 -22 32t7 39q19 28 30 61q12 33 12 68h16v0q0 -38 -12 -73q-13 -36 -32 -65v0v0q-8 -13 -5 -26q3 -14 15 -22v0z
M559 281q13 -2 25 6t15 22q3 13 -5 26v0v0q-20 29 -32 65q-12 35 -12 73h16v0q0 -35 11 -68q12 -33 30 -61q12 -19 8 -39q-4 -19 -22 -32q-18 -10 -37 -7q-14 2 -25 11v0v0q-41 36 -65 90q-25 54 -26 106h16v0q0 -48 24 -99q24 -52 62 -85q7 -6 17 -7v-1z" />
</svg>
