<?xml version="1.0" standalone="no"?>
<!DOCTYPE svg PUBLIC "-//W3C//DTD SVG 1.1//EN" "http://www.w3.org/Graphics/SVG/1.1/DTD/svg11.dtd" >
<svg xmlns="http://www.w3.org/2000/svg" xmlns:xlink="http://www.w3.org/1999/xlink" version="1.1" viewBox="-10 -40 532 512">
   <path fill="currentColor"
d="M256 -23q-67 1 -121 33v0v0q-54 32 -86 86v0v0q-32 54 -33 121q1 66 32 120q31 53 84 86q6 4 3 11q-5 6 -11 2q-57 -34 -90 -91t-34 -128q1 -72 35 -129q34 -58 92 -92q57 -34 129 -35q72 1 129 35q58 34 92 92q34 57 35 129q0 59 -25 110q-24 50 -66 86q-6 4 -11 -1
q-4 -6 1 -12q39 -33 62 -80t23 -103q-1 -67 -33 -121t-86 -86t-121 -33v0zM160 105q2 -15 16 -16q15 1 16 16q-1 15 -16 16q-14 -1 -16 -16v0zM320 105q2 -15 16 -16q15 1 16 16q-1 15 -16 16q-14 -1 -16 -16v0zM165 179q19 19 59 29v-7v0q0 -14 9 -23t23 -9t23 9t9 23v7v0
q40 -10 59 -29q6 -4 11 1q4 6 -1 11q-22 22 -69 33v62v0q18 7 29 23q11 15 11 36v8v0q0 13 -9 22t-23 10q-13 -1 -22 -10t-10 -22v-8v0h-32v0v16v0l64 46v0q4 -1 6 -4l25 -31v0q9 -10 22 -11t24 7q10 9 11 22t-7 23l-26 31v0q-24 28 -61 29h-2h-56q-27 -1 -45 -19t-19 -45
v-32v0v-32v0q1 -25 16 -43q16 -17 40 -20v-58v0q-47 -11 -69 -33q-5 -5 -1 -11q6 -5 11 -1v0zM256 185q-15 1 -16 16v80v0h32v0v-80v0q-1 -15 -16 -16v0zM232 329h32h-32h32q15 1 16 16v8v0q1 15 16 16q15 -1 16 -16v-8v0q-1 -20 -14 -34q-14 -13 -34 -14h-32v0
q-20 1 -34 14q-13 14 -14 34v32v0v32v0q1 20 14 34q14 13 34 14h56h2q29 -1 49 -23l25 -31v0q9 -12 -2 -22q-12 -8 -22 2l-26 31v0q-8 9 -21 11l-77 -56v0v-24v0q1 -15 16 -16v0z" />
</svg>
