<?xml version="1.0" standalone="no"?>
<!DOCTYPE svg PUBLIC "-//W3C//DTD SVG 1.1//EN" "http://www.w3.org/Graphics/SVG/1.1/DTD/svg11.dtd" >
<svg xmlns="http://www.w3.org/2000/svg" xmlns:xlink="http://www.w3.org/1999/xlink" version="1.1" viewBox="-10 -40 532 512">
   <path fill="currentColor"
d="M16 217q1 -67 33 -121v0v0q32 -54 86 -86v0v0q54 -32 121 -33q54 0 99 21q7 3 11 -4q2 -7 -4 -10q-49 -23 -106 -23q-72 1 -129 35q-58 34 -92 92q-34 57 -35 129q1 72 35 129q34 58 92 92q57 34 129 35q72 -1 129 -35q58 -34 92 -92q34 -57 35 -129q0 -57 -23 -106
q-4 -6 -10 -4q-7 4 -4 11q21 45 21 99q-1 67 -33 121t-86 86t-121 33q-67 -1 -121 -33t-86 -86t-33 -121v0zM224 345q0 -14 9 -23v0v0q9 -9 23 -9t23 9t9 23t-9 23t-23 9t-23 -9t-9 -23v0zM304 345q-1 -27 -24 -42q-24 -12 -48 0q-23 15 -24 42q1 27 24 42q24 12 48 0
q23 -15 24 -42v0zM424 -23h61h-61h61l-67 66v0q-3 4 -1 9t7 5h80v0q7 -1 8 -8q-1 -7 -8 -8h-61v0l67 -66v0q3 -4 1 -9t-7 -5h-80v0q-7 1 -8 8q1 7 8 8v0zM288 65q1 7 8 8h61v0l-67 66v0q-3 4 -1 9t7 5h80v0q7 -1 8 -8q-1 -7 -8 -8h-61v0l67 -66v0q3 -4 1 -9t-7 -5h-80v0
q-7 1 -8 8v0zM352 233q-24 1 -41 -28q-5 -6 -11 -3q-6 4 -3 11q21 35 55 36q33 -1 55 -36q3 -7 -3 -11q-7 -3 -11 3q-18 29 -41 28v0zM119 205q-5 -6 -11 -3q-6 4 -3 11q21 35 55 36q33 -1 55 -36q3 -7 -3 -11q-7 -3 -11 3q-18 29 -41 28q-24 1 -41 -28v0z" />
</svg>
