<?xml version="1.0" standalone="no"?>
<!DOCTYPE svg PUBLIC "-//W3C//DTD SVG 1.1//EN" "http://www.w3.org/Graphics/SVG/1.1/DTD/svg11.dtd" >
<svg xmlns="http://www.w3.org/2000/svg" xmlns:xlink="http://www.w3.org/1999/xlink" version="1.1" viewBox="-10 -40 532 512">
   <path fill="currentColor"
d="M496 217q-1 -65 -32 -120v0v0q-32 -55 -88 -88q-57 -32 -120 -32t-120 32q-56 33 -88 88q-31 55 -32 120q1 65 32 120q32 55 88 88q57 32 120 32t120 -32q56 -33 88 -88q31 -55 32 -120v0zM0 217q1 -70 34 -128v0v0q34 -58 94 -94q61 -34 128 -34t128 34q60 36 94 94
q33 58 34 128q-1 70 -34 128q-34 58 -94 94q-61 34 -128 34t-128 -34q-60 -36 -94 -94q-33 -58 -34 -128v0zM151 284q15 24 42 42v0v0q26 18 63 19q37 -1 63 -19q27 -18 42 -42q5 -5 12 -2q5 5 2 12q-17 25 -47 45q-29 21 -72 22q-43 -1 -72 -22q-30 -20 -47 -45
q-3 -7 2 -11q7 -4 12 2v-1zM176 161q-24 -1 -41 28q-5 6 -11 3q-6 -4 -3 -11q21 -35 55 -36q33 1 55 36q3 7 -3 11q-7 3 -11 -3q-18 -29 -41 -28v0zM295 189q-5 6 -11 3q-6 -4 -3 -11q21 -35 55 -36q33 1 55 36q3 7 -3 11q-7 3 -11 -3q-18 -29 -41 -28q-24 -1 -41 28v0z" />
</svg>
