<?xml version="1.0" standalone="no"?>
<!DOCTYPE svg PUBLIC "-//W3C//DTD SVG 1.1//EN" "http://www.w3.org/Graphics/SVG/1.1/DTD/svg11.dtd" >
<svg xmlns="http://www.w3.org/2000/svg" xmlns:xlink="http://www.w3.org/1999/xlink" version="1.1" viewBox="-10 -40 532 512">
   <path fill="currentColor"
d="M256 -23q65 1 120 32v0v0q55 32 88 88q32 57 32 120t-32 120q-33 56 -88 88q-55 31 -120 32q-65 -1 -120 -32q-55 -32 -88 -88q-32 -57 -32 -120t32 -120q33 -56 88 -88q55 -31 120 -32v0zM256 473q70 -1 128 -34v0v0q58 -34 94 -94q34 -61 34 -128t-34 -128
q-36 -60 -94 -94q-58 -33 -128 -34q-70 1 -128 34q-58 34 -94 94q-34 61 -34 128t34 128q36 60 94 94q58 33 128 34v0zM336 270q9 12 19 26q13 21 13 34t-9 22t-23 9t-23 -9t-9 -22t13 -34q10 -14 19 -26v0zM342 252q-6 -6 -12 0q-2 3 -4 5q-12 15 -24 35q-13 20 -14 38
q1 20 14 33q14 14 34 14t34 -14q13 -13 14 -33q-1 -18 -13 -37q-12 -20 -24 -34v-1l-2 -2q-1 -2 -3 -4v0zM176 185q15 -1 16 -16q-1 -15 -16 -16q-14 1 -16 16q2 15 16 16v0zM352 169q-1 -15 -16 -16q-14 1 -16 16q2 15 16 16q15 -1 16 -16v0zM151 284q-5 -5 -11 -2
q-6 5 -2 12q16 25 46 45q30 21 72 22q7 -1 8 -8q-1 -7 -8 -8q-37 -1 -63 -19q-27 -18 -42 -42v0z" />
</svg>
