<?xml version="1.0" standalone="no"?>
<!DOCTYPE svg PUBLIC "-//W3C//DTD SVG 1.1//EN" "http://www.w3.org/Graphics/SVG/1.1/DTD/svg11.dtd" >
<svg xmlns="http://www.w3.org/2000/svg" xmlns:xlink="http://www.w3.org/1999/xlink" version="1.1" viewBox="-10 -40 532 512">
   <path fill="currentColor"
d="M496 217q-1 -65 -32 -120v0v0q-32 -55 -88 -88q-57 -32 -120 -32t-120 32q-56 33 -88 88q-31 55 -32 120q1 65 32 120q32 55 88 88q57 32 120 32t120 -32q56 -33 88 -88q31 -55 32 -120v0zM0 217q1 -70 34 -128v0v0q34 -58 94 -94q61 -34 128 -34t128 34q60 36 94 94
q33 58 34 128q-1 70 -34 128q-34 58 -94 94q-61 34 -128 34t-128 -34q-60 -36 -94 -94q-33 -58 -34 -128v0zM384 306v2v-2v2q-5 23 -22 38t-41 15h-121v0q-7 -1 -8 -8q1 -7 8 -8h121v0q18 0 31 -11t16 -29v-1v0q2 -7 9 -7q7 2 7 9v0zM104 153h72h-72h72q14 0 23 9t9 23
t-9 23t-23 9t-23 -9t-9 -23q0 -9 4 -16h-44v0q-7 -1 -8 -8q1 -7 8 -8v0zM176 169q-15 1 -16 16q1 15 16 16q15 -1 16 -16q-1 -15 -16 -16v0zM288 161q1 -7 8 -8h72v0q14 0 23 9t9 23t-9 23t-23 9t-23 -9t-9 -23q0 -9 4 -16h-44v0q-7 -1 -8 -8v0zM352 185q1 15 16 16
q15 -1 16 -16q-1 -15 -16 -16q-15 1 -16 16v0z" />
</svg>
