<?xml version="1.0" standalone="no"?>
<!DOCTYPE svg PUBLIC "-//W3C//DTD SVG 1.1//EN" "http://www.w3.org/Graphics/SVG/1.1/DTD/svg11.dtd" >
<svg xmlns="http://www.w3.org/2000/svg" xmlns:xlink="http://www.w3.org/1999/xlink" version="1.1" viewBox="-10 -40 660 512">
   <path fill="currentColor"
d="M558 185q-14 -90 -79 -148v0v0q-66 -58 -159 -60q-93 2 -159 60q-65 58 -79 148h-16v0q14 -97 84 -159q70 -63 170 -65q100 2 170 65q70 62 84 159h-16v0zM224 137q2 -15 16 -16q15 1 16 16q-1 15 -16 16q-14 -1 -16 -16v0zM400 121q15 1 16 16q-1 15 -16 16
q-14 -1 -16 -16q2 -15 16 -16v0zM184 71q3 -7 11 -6l96 32v0q6 3 5 11q-3 6 -10 5l-96 -32v0q-7 -3 -6 -10v0zM456 71q1 7 -5 10l-96 32v0q-8 1 -11 -5q-1 -8 6 -11l96 -32v0q7 -1 10 5v1zM16 281v128v-128v128q1 20 14 34q14 13 34 14h512v0q20 -1 34 -14q13 -14 14 -34
v-128v0q-1 -20 -14 -34q-14 -13 -34 -14h-512v0q-20 1 -34 14q-13 14 -14 34v0zM0 281q1 -27 19 -45v0v0q18 -18 45 -19h512v0q27 1 45 19t19 45v128v0q-1 27 -19 45t-45 19h-512v0q-27 -1 -45 -19t-19 -45v-128v0zM408 393h-24h24h-24v24v0q-1 7 -8 8q-7 -1 -8 -8v-24v0
h-64v0v24v0q-1 7 -8 8q-7 -1 -8 -8v-24v0h-24v0q-7 -1 -8 -8q1 -7 8 -8h24v0v-64v0h-24v0q-7 -1 -8 -8q1 -7 8 -8h24v0v-24v0q1 -7 8 -8q7 1 8 8v24v0h64v0v-24v0q1 -7 8 -8q7 1 8 8v24v0h24v0q7 1 8 8q-1 7 -8 8h-24v0v64v0h24v0q7 1 8 8q-1 7 -8 8v0zM368 313h-64h64h-64
v64v0h64v0v-64v0zM564 266q6 5 3 11l-96 144v0q-5 6 -11 3q-6 -5 -3 -11l96 -144v0q5 -6 11 -3v0zM472 281q-7 1 -8 8q1 7 8 8q7 -1 8 -8q-1 -7 -8 -8v0zM472 265q22 2 24 24q-2 22 -24 24q-22 -2 -24 -24q2 -22 24 -24v0zM544 401q1 7 8 8q7 -1 8 -8q-1 -7 -8 -8q-7 1 -8 8
v0zM528 401q2 -22 24 -24q22 2 24 24q-2 22 -24 24q-22 -2 -24 -24v0zM208 265q7 1 8 8v80v0q-1 7 -8 8q-7 -1 -8 -8v-80v0q1 -7 8 -8v0zM208 409q7 -1 8 -8q-1 -7 -8 -8q-7 1 -8 8q1 7 8 8v0zM208 377q22 2 24 24q-2 22 -24 24q-22 -2 -24 -24q2 -22 24 -24v0zM120 273v9
v-9v9q14 1 24 4q7 2 6 9q-3 7 -10 6q-17 -5 -38 -4q-10 1 -15 5q-5 3 -7 10q-1 6 1 8q1 3 6 6q10 6 27 10v0v0v0v0v0v0h1q17 4 31 13q7 4 11 12q4 9 2 19q-3 17 -16 23q-11 6 -24 6v8v0q-1 7 -8 8q-7 -1 -8 -8v-9v0q-20 -4 -34 -9q-6 -3 -5 -10q3 -7 10 -5q20 7 44 9
q11 0 17 -4q6 -2 8 -12q1 -6 0 -9q-2 -3 -6 -6q-10 -6 -27 -10l-2 -1v0h-1q-15 -4 -29 -11q-7 -5 -11 -12q-5 -9 -3 -19q3 -14 14 -20q10 -7 22 -8h2h2v-8v0q0 -7 8 -8q7 1 8 8v0z" />
</svg>
