<?xml version="1.0" standalone="no"?>
<!DOCTYPE svg PUBLIC "-//W3C//DTD SVG 1.1//EN" "http://www.w3.org/Graphics/SVG/1.1/DTD/svg11.dtd" >
<svg xmlns="http://www.w3.org/2000/svg" xmlns:xlink="http://www.w3.org/1999/xlink" version="1.1" viewBox="-10 -40 532 512">
   <path fill="currentColor"
d="M256 -23q-67 1 -121 33v0v0q-54 32 -86 86v0v0q-32 54 -33 121q1 76 41 134q40 59 106 87q7 4 4 11q-3 6 -10 4q-70 -30 -113 -93q-43 -62 -44 -143q1 -72 35 -129q34 -58 92 -92q57 -34 129 -35q72 1 129 35q58 34 92 92q34 57 35 129q-1 81 -44 143q-43 63 -113 93
q-7 2 -10 -4q-3 -7 4 -11q66 -28 106 -87q40 -58 41 -134q-1 -67 -33 -121t-86 -86t-121 -33v0zM184 371q0 -18 12 -30v0v0q12 -12 30 -12q17 0 30 12v1v0v-1v0q13 -12 30 -12q18 0 30 12t12 30v30v0q-1 31 -21 51t-51 21q-31 -1 -51 -21t-21 -51v-30v0zM248 356l-4 -3l4 3
l-4 -3q-7 -8 -18 -8q-24 2 -26 26v30v0q1 24 17 40q15 15 39 16q24 -1 40 -16q15 -16 16 -40v-30v0q-2 -24 -26 -26q-11 0 -18 8l-4 3v0v29v0q0 7 -8 8q-7 -1 -8 -8v-29v0zM368 113q0 -21 -14 -36v0v0q-13 -16 -33 -19q14 11 15 31q0 17 -12 28q-11 12 -28 12
q-29 -2 -38 -29q-2 6 -2 13q1 24 16 40q16 15 40 16q24 -1 40 -16q15 -16 16 -40v0zM240 113q1 -41 36 -62q36 -20 72 0q35 21 36 62q-1 41 -36 62q-36 20 -72 0q-35 -21 -36 -62v0zM128 233q27 -1 42 -24q12 -24 0 -48q-15 -23 -42 -24q-27 1 -42 24q-12 24 0 48
q15 23 42 24v0zM128 121q36 1 55 32q18 32 0 64q-19 31 -55 32q-36 -1 -55 -32q-18 -32 0 -64q19 -31 55 -32v0zM320 89q-2 -22 -24 -24q-22 2 -24 24q2 22 24 24q22 -2 24 -24v0zM112 185q1 -15 16 -16q15 1 16 16q-1 15 -16 16q-15 -1 -16 -16v0zM401 221q7 21 7 44
q-2 68 -50 110q-7 4 -12 -1q-4 -6 1 -12q43 -37 45 -97q0 -21 -6 -39q-5 -12 -19 -7l-198 106v0q-12 8 -6 19q1 2 3 3q4 6 -1 11q-6 5 -12 -1q0 -1 -1 -2q-1 0 -1 -1q-9 -12 -5 -24q4 -13 15 -19l198 -106v0q12 -6 25 -2q12 4 17 18v0z" />
</svg>
