<?xml version="1.0" standalone="no"?>
<!DOCTYPE svg PUBLIC "-//W3C//DTD SVG 1.1//EN" "http://www.w3.org/Graphics/SVG/1.1/DTD/svg11.dtd" >
<svg xmlns="http://www.w3.org/2000/svg" xmlns:xlink="http://www.w3.org/1999/xlink" version="1.1" viewBox="-10 -40 596 512">
   <path fill="currentColor"
d="M64 457h256h-256h256h1h1q2 8 6 16h-8h-256v0q-27 -1 -45 -19t-19 -45v-384v0q1 -27 19 -45t45 -19h140v0q20 0 34 14l132 132v0q12 12 14 30h-16h-120q-17 0 -28 -12q-12 -11 -12 -28v-120v0h-4v0h-140v0q-20 1 -34 14q-13 14 -14 34v384v0q1 20 14 34q14 13 34 14v0z
M359 118l-132 -132l132 132l-132 -132q-2 -1 -3 -2v113v0q2 22 24 24h113v0q-1 -1 -2 -3v0zM464 169q-20 1 -34 14v0v0q-13 14 -14 34v64v0h96v0v-64v0q-1 -20 -14 -34q-14 -13 -34 -14v0zM400 217q1 -27 19 -45v0v0q18 -18 45 -19q27 1 45 19t19 45v64v0h16v0q14 0 23 9
t9 23v128v0q0 14 -9 23t-23 9h-160v0q-14 0 -23 -9t-9 -23v-128v0q0 -14 9 -23t23 -9h16v0v-64v0zM384 297q-15 1 -16 16v128v0q1 15 16 16h160v0q15 -1 16 -16v-128v0q-1 -15 -16 -16h-16h-144z" />
</svg>
