<?xml version="1.0" standalone="no"?>
<!DOCTYPE svg PUBLIC "-//W3C//DTD SVG 1.1//EN" "http://www.w3.org/Graphics/SVG/1.1/DTD/svg11.dtd" >
<svg xmlns="http://www.w3.org/2000/svg" xmlns:xlink="http://www.w3.org/1999/xlink" version="1.1" viewBox="-10 -40 532 512">
   <path fill="currentColor"
d="M132 -38q4 -2 8 0l240 120v0q4 2 4 7t-4 7l-236 118v0v61v0q51 -10 112 -10q109 1 181 30q72 30 75 74q-3 44 -75 73q-72 30 -181 31q-109 -1 -181 -31q-72 -29 -75 -73q1 -25 26 -46q26 -21 70 -35v17v0q-8 2 -15 5q-33 14 -50 30q-16 16 -15 29q-1 13 15 29
q17 16 50 30q69 28 175 29q106 -1 175 -29q33 -14 50 -30q16 -16 15 -29q1 -13 -15 -29q-17 -16 -50 -30q-69 -28 -175 -29q-61 0 -112 11v51v0q28 -21 80 -22q41 1 68 14q27 14 28 34q-1 20 -28 34q-27 13 -68 14q-41 -1 -68 -14q-27 -14 -28 -34v-74v0v-16v0v-70v0v-240v0
q0 -4 4 -7v0zM144 369q-2 7 19 20q23 11 61 12q38 -1 61 -12q21 -13 19 -20q2 -7 -19 -20q-23 -11 -61 -12q-38 1 -61 12q-21 13 -19 20v0zM144 196l214 -107l-214 107l214 -107l-214 -107v0v214v0z" />
</svg>
