<?xml version="1.0" standalone="no"?>
<!DOCTYPE svg PUBLIC "-//W3C//DTD SVG 1.1//EN" "http://www.w3.org/Graphics/SVG/1.1/DTD/svg11.dtd" >
<svg xmlns="http://www.w3.org/2000/svg" xmlns:xlink="http://www.w3.org/1999/xlink" version="1.1" viewBox="-10 -40 532 512">
   <path fill="currentColor"
d="M0 -31q1 -7 8 -8h496v0q7 1 8 8q-1 7 -8 8h-496v0q-7 -1 -8 -8v0zM64 73q-15 1 -16 16v64v0q1 15 16 16h64v0q15 -1 16 -16v-64v0q-1 -15 -16 -16h-64v0zM32 89q0 -14 9 -23v0v0q9 -9 23 -9h64v0q14 0 23 9t9 23v64v0q0 14 -9 23t-23 9h-64v0q-14 0 -23 -9t-9 -23v-64v0z
M64 361q-15 1 -16 16v64v0q1 15 16 16h64v0q15 -1 16 -16v-64v0q-1 -15 -16 -16h-64v0zM32 377q0 -14 9 -23v0v0q9 -9 23 -9h64v0q14 0 23 9t9 23v64v0q0 14 -9 23t-23 9h-64v0q-14 0 -23 -9t-9 -23v-64v0zM288 73h-64h64h-64q-15 1 -16 16v64v0q1 15 16 16h64v0
q15 -1 16 -16v-64v0q-1 -15 -16 -16v0zM224 57h64h-64h64q14 0 23 9t9 23v64v0q0 14 -9 23t-23 9h-64v0q-14 0 -23 -9t-9 -23v-64v0q0 -14 9 -23t23 -9v0zM224 361q-15 1 -16 16v64v0q1 15 16 16h64v0q15 -1 16 -16v-64v0q-1 -15 -16 -16h-64v0zM192 377q0 -14 9 -23v0v0
q9 -9 23 -9h64v0q14 0 23 9t9 23v64v0q0 14 -9 23t-23 9h-64v0q-14 0 -23 -9t-9 -23v-64v0zM448 73h-64h64h-64q-15 1 -16 16v64v0q1 15 16 16h64v0q15 -1 16 -16v-64v0q-1 -15 -16 -16v0zM384 57h64h-64h64q14 0 23 9t9 23v64v0q0 14 -9 23t-23 9h-64v0q-14 0 -23 -9
t-9 -23v-64v0q0 -14 9 -23t23 -9v0zM384 361q-15 1 -16 16v64v0q1 15 16 16h64v0q15 -1 16 -16v-64v0q-1 -15 -16 -16h-64v0zM352 377q0 -14 9 -23v0v0q9 -9 23 -9h64v0q14 0 23 9t9 23v64v0q0 14 -9 23t-23 9h-64v0q-14 0 -23 -9t-9 -23v-64v0zM8 249h496h-496h496q7 1 8 8
q-1 7 -8 8h-496v0q-7 -1 -8 -8q1 -7 8 -8v0z" />
</svg>
