<?xml version="1.0" standalone="no"?>
<!DOCTYPE svg PUBLIC "-//W3C//DTD SVG 1.1//EN" "http://www.w3.org/Graphics/SVG/1.1/DTD/svg11.dtd" >
<svg xmlns="http://www.w3.org/2000/svg" xmlns:xlink="http://www.w3.org/1999/xlink" version="1.1" viewBox="-10 -40 660 512">
   <path fill="currentColor"
d="M508 -38q6 4 3 11l-243 470v0q-16 29 -50 30h-170v0q-20 -1 -34 -14q-13 -14 -14 -34v-85v0q1 -21 14 -34q14 -14 34 -14h280v0l169 -327v0q4 -6 11 -3v0zM320 308h-208h208h-208v149v0h107v0q23 -1 35 -22l66 -127v0zM48 308q-14 0 -23 9v0v0q-9 9 -9 23v85v0q0 14 9 23
t23 9h48v0v-149v0h-48v0zM432 377q-14 0 -23 9v0v0q-9 9 -9 23v16v0q0 14 9 23t23 9h160v0q14 0 23 -9t9 -23v-16v0q0 -14 -9 -23t-23 -9h-160v0zM384 409q1 -20 14 -34v0v0q14 -13 34 -14h160v0q20 1 34 14q13 14 14 34v16v0q-1 20 -14 34q-14 13 -34 14h-160v0
q-20 -1 -34 -14q-13 -14 -14 -34v-16v0z" />
</svg>
