<?xml version="1.0" standalone="no"?>
<!DOCTYPE svg PUBLIC "-//W3C//DTD SVG 1.1//EN" "http://www.w3.org/Graphics/SVG/1.1/DTD/svg11.dtd" >
<svg xmlns="http://www.w3.org/2000/svg" xmlns:xlink="http://www.w3.org/1999/xlink" version="1.1" viewBox="-10 -40 596 512">
   <path fill="currentColor"
d="M293 -37q-5 -4 -10 0l-280 248v0q-5 5 -1 11q5 5 11 1l51 -45v0v231v0q1 27 19 45t45 19h320v0q27 -1 45 -19t19 -45v-231v0l51 45v0q6 4 11 -1q4 -6 -1 -11l-280 -248v0zM80 409v-245v245v-245l208 -184v0l208 184v0v245v0q-1 20 -14 34q-14 13 -34 14h-320v0
q-20 -1 -34 -14q-13 -14 -14 -34v0zM264 161q1 -7 8 -8h32v0q7 1 8 8v56v0q1 7 8 8h56v0q7 1 8 8v32v0q-1 7 -8 8h-56v0q-7 1 -8 8v56v0q-1 7 -8 8h-32v0q-7 -1 -8 -8v-56v0q-1 -7 -8 -8h-56v0q-7 -1 -8 -8v-32v0q1 -7 8 -8h56v0q7 -1 8 -8v-56v0zM272 137q-22 2 -24 24v48
v0h-48v0q-22 2 -24 24v32v0q2 22 24 24h48v0v48v0q2 22 24 24h32v0q22 -2 24 -24v-48v0h48v0q22 -2 24 -24v-32v0q-2 -22 -24 -24h-48v0v-48v0q-2 -22 -24 -24h-32v0z" />
</svg>
