<?xml version="1.0" standalone="no"?>
<!DOCTYPE svg PUBLIC "-//W3C//DTD SVG 1.1//EN" "http://www.w3.org/Graphics/SVG/1.1/DTD/svg11.dtd" >
<svg xmlns="http://www.w3.org/2000/svg" xmlns:xlink="http://www.w3.org/1999/xlink" version="1.1" viewBox="-10 -40 532 512">
   <path fill="currentColor"
d="M344 -23q-39 1 -70 22v0v0q-30 22 -43 59v2v0h-1q-7 30 -28 60l-35 42v0q-23 28 -23 65q1 43 30 72t72 30q37 0 65 -23l42 -34v0q29 -22 59 -29h1l1 -1v0v0v0h1v0q37 -13 59 -43q21 -31 22 -70v0v0v0v0v0v0q0 -27 -14 -53q-14 -27 -36 -49t-49 -36q-26 -14 -53 -14v0v0v0
v0zM344 -39v0v0v0q31 1 61 16q29 16 52 39t39 52q15 30 16 61v0v0q-1 44 -25 79q-25 34 -67 49h-1v0v0q-30 9 -56 27l-42 34v0q-33 27 -75 27q-45 -1 -77 -29l-155 155v0q-6 4 -12 0q-4 -6 0 -12l155 -154v0q-28 -33 -29 -78q0 -42 27 -75l34 -42v0q18 -25 27 -56v0v0v0v-1
v0q15 -42 49 -66q35 -25 79 -26v0z" />
</svg>
