<?xml version="1.0" standalone="no"?>
<!DOCTYPE svg PUBLIC "-//W3C//DTD SVG 1.1//EN" "http://www.w3.org/Graphics/SVG/1.1/DTD/svg11.dtd" >
<svg xmlns="http://www.w3.org/2000/svg" xmlns:xlink="http://www.w3.org/1999/xlink" version="1.1" viewBox="-10 -40 596 512">
   <path fill="currentColor"
d="M344 -23v0v0v0q27 0 53 14q27 14 49 36t36 49q14 26 14 53v0v0v0v0v0v0q-1 39 -22 70q-22 30 -59 43h-1v0v0v0l-1 1v0h-1q-30 7 -59 29l-42 34v0q-28 23 -65 23q-43 -1 -72 -30t-30 -72q0 -37 23 -65l35 -42v0q21 -30 28 -60h1v-2v0q13 -37 43 -59q31 -21 70 -22v0v0z
M344 -39v0v0v0q-44 1 -79 25q-34 25 -49 67v1v0v0v0v0q-9 30 -27 56l-34 42v0q-27 32 -27 75q1 45 29 77l-155 155v0q-4 6 0 12q6 4 12 0l155 -155v0q32 28 77 29q42 0 75 -27l42 -34v0q25 -18 56 -27v0h1v0q42 -15 66 -49q25 -35 26 -79v0v0q-1 -31 -16 -61
q-16 -29 -39 -52t-52 -39q-30 -15 -61 -16v0zM432 393q1 -36 32 -55q32 -18 64 0q31 19 32 55q-1 36 -32 55q-32 18 -64 0q-31 -19 -32 -55v0zM576 393q-1 -45 -40 -69q-40 -22 -80 0q-39 24 -40 69q1 45 40 69q40 22 80 0q39 -24 40 -69v0z" />
</svg>
