<?xml version="1.0" standalone="no"?>
<!DOCTYPE svg PUBLIC "-//W3C//DTD SVG 1.1//EN" "http://www.w3.org/Graphics/SVG/1.1/DTD/svg11.dtd" >
<svg xmlns="http://www.w3.org/2000/svg" xmlns:xlink="http://www.w3.org/1999/xlink" version="1.1" viewBox="-10 -40 660 512">
   <path fill="currentColor"
d="M224 361q15 1 16 16v80v0l124 -93v0q4 -3 9 -3h107v0q20 -1 34 -14q13 -14 14 -34v-288v0q-1 -20 -14 -34q-14 -13 -34 -14h-320v0q-20 1 -34 14q-13 14 -14 34v288v0q1 20 14 34q14 13 34 14h64v0zM96 25q1 -27 19 -45v0v0q18 -18 45 -19h320v0q27 1 45 19t19 45v120v0
h33v0q7 -22 31 -24q14 0 23 9t9 23t-9 23t-23 9q-24 -2 -31 -24h-33v0v152v0q-1 27 -19 45t-45 19h-107v0l-123 93v0q-8 5 -17 1t-9 -14v-64v0v-16v0h-16h-48q-27 -1 -45 -19t-19 -45v-152v0h-33v0q-7 22 -31 24q-14 0 -23 -9t-9 -23t9 -23t23 -9q24 2 31 24h33v0v-120v0z
M32 169q15 -1 16 -16q-1 -15 -16 -16q-15 1 -16 16q1 15 16 16v0zM624 153q-1 -15 -16 -16q-15 1 -16 16q1 15 16 16q15 -1 16 -16v0zM176 57q-15 1 -16 16v160v0q1 15 16 16h288v0q15 -1 16 -16v-160v0q-1 -15 -16 -16h-288v0zM144 73q0 -14 9 -23v0v0q9 -9 23 -9h288v0
q14 0 23 9t9 23v160v0q0 14 -9 23t-23 9h-288v0q-14 0 -23 -9t-9 -23v-160v0zM224 129q-22 2 -24 24q2 22 24 24q22 -2 24 -24q-2 -22 -24 -24v0zM264 153q-1 23 -20 35q-20 10 -40 0q-19 -12 -20 -35q1 -23 20 -35q20 -10 40 0q19 12 20 35v0zM392 153q2 22 24 24
q22 -2 24 -24q-2 -22 -24 -24q-22 2 -24 24v0zM416 193q-23 -1 -35 -20q-10 -20 0 -40q12 -19 35 -20q23 1 35 20q10 20 0 40q-12 19 -35 20v0z" />
</svg>
