<?xml version="1.0" standalone="no"?>
<!DOCTYPE svg PUBLIC "-//W3C//DTD SVG 1.1//EN" "http://www.w3.org/Graphics/SVG/1.1/DTD/svg11.dtd" >
<svg xmlns="http://www.w3.org/2000/svg" xmlns:xlink="http://www.w3.org/1999/xlink" version="1.1" viewBox="-10 -40 660 512">
   <path fill="currentColor"
d="M80 89v96v-96v96h-16v0v-96v0q1 -54 37 -91q37 -36 91 -37q54 1 91 37q36 37 37 91v96v0h-16v0v-96v0q-1 -48 -33 -79q-31 -32 -79 -33q-48 1 -79 33q-32 31 -33 79v0zM191 33q-2 0 -3 1q-25 32 -68 34q6 25 26 40q19 16 45 16t45 -16q19 -15 25 -40q-43 -2 -68 -34
q0 -1 -2 -1v0zM191 17q8 0 15 7q21 27 57 28q14 1 14 17q-6 31 -30 51q-23 19 -56 20q-33 -1 -57 -20q-23 -20 -30 -51q0 -16 15 -17q36 -1 57 -28q6 -7 15 -7v0zM464 286q-2 0 -2 1q-25 32 -68 34q6 25 25 40q19 16 45 16t45 -16q19 -15 25 -40q-43 -2 -68 -34q0 -1 -2 -1
v0zM464 270q9 0 15 7q21 27 57 28q15 1 14 17q-6 31 -30 51q-23 19 -56 20q-33 -1 -56 -20q-24 -20 -30 -51q-1 -16 14 -17q36 -1 57 -28q6 -7 15 -7v0zM622 444q-11 -17 -19 -34q-19 -43 -19 -89q-1 -51 -35 -85t-85 -35q-51 1 -85 35t-35 85q0 46 -19 89q-8 17 -19 34v0v0
v0v0v0v0h-1v0q-2 4 0 9q2 4 7 4h304v0q5 0 7 -4q2 -5 0 -9h-1v0v0v0zM291 460q-6 -13 2 -25v0v0q10 -15 17 -32q18 -39 18 -82q1 -58 40 -96q38 -39 96 -40q58 1 96 40q39 38 40 96q0 43 18 82q7 17 18 32q7 12 1 25q-7 13 -21 13h-304v0q-14 0 -21 -13v0zM257 457q1 8 4 16
h-186v0q-28 0 -43 -21q-11 -16 -21 -43t-11 -64q1 -33 12 -63q12 -30 26 -56q5 -9 14 -9h280v0q-6 8 -11 16h-269v0q-14 27 -25 54q-10 28 -11 58q1 34 10 59q9 24 19 39q9 14 30 14h182v0z" />
</svg>
