<?xml version="1.0" standalone="no"?>
<!DOCTYPE svg PUBLIC "-//W3C//DTD SVG 1.1//EN" "http://www.w3.org/Graphics/SVG/1.1/DTD/svg11.dtd" >
<svg xmlns="http://www.w3.org/2000/svg" xmlns:xlink="http://www.w3.org/1999/xlink" version="1.1" viewBox="-10 -40 532 512">
   <path fill="currentColor"
d="M176 9q14 0 23 9v0v0q9 9 9 23v176v0v176v0q0 14 -9 23t-23 9h-64v0q-14 0 -23 -9t-9 -23v-352v0q0 -14 9 -23t23 -9h64v0zM224 209v-168v168v-168q-1 -20 -14 -34q-14 -13 -34 -14h-64v0q-20 1 -34 14q-13 14 -14 34v168v0h-56v0q-7 1 -8 8q1 7 8 8h56v0v168v0
q1 20 14 34q14 13 34 14h64v0q20 -1 34 -14q13 -14 14 -34v-168v0h64v0v104v0q1 20 14 34q14 13 34 14h64v0q20 -1 34 -14q13 -14 14 -34v-104v0h56v0q7 -1 8 -8q-1 -7 -8 -8h-56v0v-104v0q-1 -20 -14 -34q-14 -13 -34 -14h-64v0q-20 1 -34 14q-13 14 -14 34v104v0h-64v0z
M304 217v-112v112v-112q0 -14 9 -23t23 -9h64v0q14 0 23 9t9 23v112v0v112v0q0 14 -9 23t-23 9h-64v0q-14 0 -23 -9t-9 -23v-112v0z" />
</svg>
