<?xml version="1.0" standalone="no"?>
<!DOCTYPE svg PUBLIC "-//W3C//DTD SVG 1.1//EN" "http://www.w3.org/Graphics/SVG/1.1/DTD/svg11.dtd" >
<svg xmlns="http://www.w3.org/2000/svg" xmlns:xlink="http://www.w3.org/1999/xlink" version="1.1" viewBox="-10 -40 468 512">
   <path fill="currentColor"
d="M48 9q-14 0 -23 9v0v0q-9 9 -9 23v160v0q0 14 9 23t23 9h96v0q14 0 23 -9t9 -23v-160v0q0 -14 -9 -23t-23 -9h-96v0zM0 41q1 -20 14 -34v0v0q14 -13 34 -14h96v0q20 1 34 14q13 14 14 34v160v0q-1 20 -14 34q-14 13 -34 14h-96v0q-20 -1 -34 -14q-13 -14 -14 -34v-160v0z
M304 201q-14 0 -23 9v0v0q-9 9 -9 23v160v0q0 14 9 23t23 9h96v0q14 0 23 -9t9 -23v-160v0q0 -14 -9 -23t-23 -9h-96v0zM256 233q1 -20 14 -34v0v0q14 -13 34 -14h96v0q20 1 34 14q13 14 14 34v160v0q-1 20 -14 34q-14 13 -34 14h-96v0q-20 -1 -34 -14q-13 -14 -14 -34v-160
v0zM144 297h-96h96h-96q-14 0 -23 9t-9 23v64v0q0 14 9 23t23 9h96v0q14 0 23 -9t9 -23v-64v0q0 -14 -9 -23t-23 -9v0zM48 281h96h-96h96q20 1 34 14q13 14 14 34v64v0q-1 20 -14 34q-14 13 -34 14h-96v0q-20 -1 -34 -14q-13 -14 -14 -34v-64v0q1 -20 14 -34q14 -13 34 -14
v0zM304 9q-14 0 -23 9v0v0q-9 9 -9 23v64v0q0 14 9 23t23 9h96v0q14 0 23 -9t9 -23v-64v0q0 -14 -9 -23t-23 -9h-96v0zM256 41q1 -20 14 -34v0v0q14 -13 34 -14h96v0q20 1 34 14q13 14 14 34v64v0q-1 20 -14 34q-14 13 -34 14h-96v0q-20 -1 -34 -14q-13 -14 -14 -34v-64v0z
" />
</svg>
