<?xml version="1.0" standalone="no"?>
<!DOCTYPE svg PUBLIC "-//W3C//DTD SVG 1.1//EN" "http://www.w3.org/Graphics/SVG/1.1/DTD/svg11.dtd" >
<svg xmlns="http://www.w3.org/2000/svg" xmlns:xlink="http://www.w3.org/1999/xlink" version="1.1" viewBox="-10 -40 468 512">
   <path fill="currentColor"
d="M333 65h-50h50h-50q-24 0 -40 -16l-13 -14v0q-6 -4 -12 0l-13 14v0q-16 16 -39 16h-51v0q9 -39 38 -63q30 -24 71 -25q41 1 71 25q29 24 38 63v0zM336 81v8v16v0q-1 48 -33 79q-31 32 -79 33q-48 -1 -79 -33q-32 -31 -33 -79v-16v0v-8h53v0q30 0 51 -21l8 -8v0l8 8v0
q21 21 50 21h54v0zM224 233q39 -1 69 -20v0v0q30 -20 46 -52q11 23 37 24q17 0 28 -12q12 -11 12 -28v-80v0q0 -17 -12 -28q-11 -12 -28 -12q-21 1 -33 17q-14 -36 -46 -58t-73 -23q-41 1 -73 23t-46 58q-12 -16 -33 -17q-17 0 -28 12q-12 11 -12 28v80v0q0 17 12 28
q11 12 28 12q26 -1 37 -24q16 32 46 52q30 19 69 20v0zM352 145v-40v40v-40v-16v0v-24v0q2 -22 24 -24q22 2 24 24v80v0q-2 22 -24 24q-22 -2 -24 -24v0zM168 281h112h-112h112q65 2 107 45q43 42 45 107v8v0q-1 15 -16 16h-384v0q-15 -1 -16 -16v-8v0q2 -65 45 -107
q42 -43 107 -45v0zM168 265q-71 2 -119 49v0v0q-47 48 -49 119v8v0q0 14 9 23t23 9h384v0q14 0 23 -9t9 -23v-8v0q-2 -71 -49 -119q-48 -47 -119 -49h-112v0zM96 105v40v-40v40q-2 22 -24 24q-22 -2 -24 -24v-80v0q2 -22 24 -24q22 2 24 24v24v0v16v0z" />
</svg>
