<?xml version="1.0" standalone="no"?>
<!DOCTYPE svg PUBLIC "-//W3C//DTD SVG 1.1//EN" "http://www.w3.org/Graphics/SVG/1.1/DTD/svg11.dtd" >
<svg xmlns="http://www.w3.org/2000/svg" xmlns:xlink="http://www.w3.org/1999/xlink" version="1.1" viewBox="-10 -40 532 512">
   <path fill="currentColor"
d="M218 73q-11 0 -15 10q-10 23 -34 38t-57 16q-42 -1 -69 -24q-26 -23 -27 -56q1 -33 27 -56q27 -23 69 -24q33 1 57 16t34 38q4 10 15 10h262v0q15 1 16 16q-1 15 -16 16h-262v0zM112 -39q-48 1 -79 28v0v0q-32 27 -33 68q1 41 33 68q31 27 79 28q37 -1 65 -18
q29 -18 41 -46h262v0q14 0 23 -9t9 -23t-9 -23t-23 -9h-262v0q-12 -28 -41 -46q-28 -17 -65 -18v0zM145 431q-2 -7 -9 -11q-50 -25 -81 -70q-31 -46 -35 -105l-2 -27v0q1 -15 16 -17h444v0q15 2 16 17l-1 27v0q-5 59 -36 105q-31 45 -81 70q-7 4 -9 11q-6 24 -31 26h-160v0
q-25 -2 -31 -26v0zM34 185q-14 0 -23 10v0v0q-9 10 -9 24l2 27v0q4 63 38 113q33 49 87 75q3 17 16 28t31 11h160v0q18 0 31 -11t16 -28q54 -26 87 -75q34 -50 38 -113l2 -27v0q0 -14 -9 -24t-23 -10h-444v0z" />
</svg>
