<?xml version="1.0" standalone="no"?>
<!DOCTYPE svg PUBLIC "-//W3C//DTD SVG 1.1//EN" "http://www.w3.org/Graphics/SVG/1.1/DTD/svg11.dtd" >
<svg xmlns="http://www.w3.org/2000/svg" xmlns:xlink="http://www.w3.org/1999/xlink" version="1.1" viewBox="-10 -40 660 512">
   <path fill="currentColor"
d="M480 41v208v-208v208h-16v0v-208v0h-336v0q-20 1 -34 14q-13 14 -14 34v160v0h-16v0v-160v0q1 -27 19 -45t45 -19h336h48q27 1 45 19t19 45v160v0h-16v0v-160v0q-1 -20 -14 -34q-14 -13 -34 -14h-32v0zM0 289q1 -7 8 -8h24h600q7 1 8 8q-1 7 -8 8h-24v0v64v0
q-1 20 -14 34q-14 13 -34 14h-480v0q-20 -1 -34 -14q-13 -14 -14 -34v-64v0h-24v0q-7 -1 -8 -8v0zM48 297v64v-64v64q0 14 9 23t23 9h480v0q14 0 23 -9t9 -23v-64v0h-544v0z" />
</svg>
