<?xml version="1.0" standalone="no"?>
<!DOCTYPE svg PUBLIC "-//W3C//DTD SVG 1.1//EN" "http://www.w3.org/Graphics/SVG/1.1/DTD/svg11.dtd" >
<svg xmlns="http://www.w3.org/2000/svg" xmlns:xlink="http://www.w3.org/1999/xlink" version="1.1" viewBox="-10 -40 404 512">
   <path fill="currentColor"
d="M64 -23q-20 1 -34 14v0v0q-13 14 -14 34v384v0q1 20 14 34q14 13 34 14h256v0q20 -1 34 -14q13 -14 14 -34v-384v0q-1 -20 -14 -34q-14 -13 -34 -14h-256v0zM0 25q1 -27 19 -45v0v0q18 -18 45 -19h256v0q27 1 45 19t19 45v384v0q-1 27 -19 45t-45 19h-256v0
q-27 -1 -45 -19t-19 -45v-384v0zM203 110l96 96l-96 -96l96 96q10 11 0 22l-96 96v0q-11 10 -22 0l-96 -96v0q-10 -11 0 -22l96 -96v0q11 -10 22 0v0zM96 217l11 11l-11 -11l11 11l74 74v0l11 11v0l11 -11v0l74 -74v0l11 -11v0l-11 -11v0l-74 -74v0l-11 -11v0l-11 11v0
l-74 74v0l-11 11v0z" />
</svg>
