<?xml version="1.0" standalone="no"?>
<!DOCTYPE svg PUBLIC "-//W3C//DTD SVG 1.1//EN" "http://www.w3.org/Graphics/SVG/1.1/DTD/svg11.dtd" >
<svg xmlns="http://www.w3.org/2000/svg" xmlns:xlink="http://www.w3.org/1999/xlink" version="1.1" viewBox="-10 -40 660 512">
   <path fill="currentColor"
d="M8 -39q-7 1 -8 8q1 7 8 8h38v0q18 1 23 19l60 304v0q4 20 19 32q15 13 36 13h137v0q-1 -8 -1 -16h-136v0q-15 0 -26 -9t-14 -23l-9 -48v0h204v0q4 -8 10 -16h-217v0l-44 -224v0h440v0q12 0 19 9q6 9 4 21l-27 116v0q8 1 16 3l27 -116v0q3 -19 -8 -34q-11 -14 -31 -15
h-443v0q-8 -30 -39 -32h-38v0zM144 425q0 -14 9 -23v0v0q9 -9 23 -9t23 9t9 23t-9 23t-23 9t-23 -9t-9 -23v0zM224 425q-1 -27 -24 -42q-24 -12 -48 0q-23 15 -24 42q1 27 24 42q24 12 48 0q23 -15 24 -42v0zM496 201q35 0 64 17v0v0q29 17 47 47q17 30 17 64t-17 64
q-18 30 -47 47t-64 17t-64 -17t-47 -47q-17 -30 -17 -64t17 -64q18 -30 47 -47t64 -17v0zM496 473q39 0 72 -19v0v0q33 -19 53 -53q19 -34 19 -72t-19 -72q-20 -34 -53 -53t-72 -19t-72 19t-53 53q-19 34 -19 72t19 72q20 34 53 53t72 19v0zM566 283q-6 -4 -12 0l-74 75v0
l-42 -43v0q-6 -4 -12 0q-4 6 0 12l48 48v0q6 4 12 0l80 -80v0q4 -6 0 -12v0z" />
</svg>
