<?xml version="1.0" standalone="no"?>
<!DOCTYPE svg PUBLIC "-//W3C//DTD SVG 1.1//EN" "http://www.w3.org/Graphics/SVG/1.1/DTD/svg11.dtd" >
<svg xmlns="http://www.w3.org/2000/svg" xmlns:xlink="http://www.w3.org/1999/xlink" version="1.1" viewBox="-10 -40 532 512">
   <path fill="currentColor"
d="M420 392l-164 -164l164 164l-164 -164l-164 164v0q67 63 164 65q97 -2 164 -65v0zM431 381q63 -67 65 -164q-2 -97 -65 -164l-164 164v0l164 164v0zM420 42q-67 -63 -164 -65q-97 2 -164 65l164 164v0l164 -164v0zM81 53q-63 67 -65 164q2 97 65 164l164 -164v0
l-164 -164v0zM0 217q1 -70 34 -128v0v0q34 -58 94 -94q61 -34 128 -34t128 34q60 36 94 94q33 58 34 128q-1 70 -34 128q-34 58 -94 94q-61 34 -128 34t-128 -34q-60 -36 -94 -94q-33 -58 -34 -128v0z" />
</svg>
