<?xml version="1.0" standalone="no"?>
<!DOCTYPE svg PUBLIC "-//W3C//DTD SVG 1.1//EN" "http://www.w3.org/Graphics/SVG/1.1/DTD/svg11.dtd" >
<svg xmlns="http://www.w3.org/2000/svg" xmlns:xlink="http://www.w3.org/1999/xlink" version="1.1" viewBox="-10 -40 458 512">
   <path fill="currentColor"
d="M32 25q1 -27 24 -42q24 -12 48 0q23 15 24 42q-1 27 -24 42q-24 12 -48 0q-23 -15 -24 -42v0zM88 89q24 -4 40 -21v0v0q15 -18 16 -43q-1 -27 -19 -45t-45 -19q-27 1 -45 19t-19 45q1 25 16 43q16 17 40 21v257v0q-24 3 -40 20q-15 18 -16 43q1 27 19 45t45 19
q27 -1 45 -19t19 -45q-1 -25 -16 -43q-16 -17 -40 -20v-257v0zM32 409q1 -27 24 -42q24 -12 48 0q23 15 24 42q-1 27 -24 42q-24 12 -48 0q-23 -15 -24 -42v0zM368 361q27 1 42 24q12 24 0 48q-15 23 -42 24q-27 -1 -42 -24q-12 -24 0 -48q15 -23 42 -24v0zM368 473
q36 -1 55 -32q18 -32 0 -64q-19 -31 -55 -32q-36 1 -55 32q-18 32 0 64q19 31 55 32v0zM368 17q22 2 24 24q-2 22 -24 24q-22 -2 -24 -24q2 -22 24 -24v0zM368 81q23 -1 35 -20q10 -20 0 -40q-12 -19 -35 -20q-23 1 -35 20q-10 20 0 40q12 19 35 20v0zM344 201q2 -22 24 -24
q22 2 24 24q-2 22 -24 24q-22 -2 -24 -24v0zM408 201q-1 -23 -20 -35q-20 -10 -40 0q-19 12 -20 35q1 23 20 35q20 10 40 0q19 -12 20 -35v0z" />
</svg>
