<?xml version="1.0" standalone="no"?>
<!DOCTYPE svg PUBLIC "-//W3C//DTD SVG 1.1//EN" "http://www.w3.org/Graphics/SVG/1.1/DTD/svg11.dtd" >
<svg xmlns="http://www.w3.org/2000/svg" xmlns:xlink="http://www.w3.org/1999/xlink" version="1.1" viewBox="-10 -40 404 512">
   <path fill="currentColor"
d="M272 217q-2 -105 -40 -173q-39 -67 -88 -67t-88 67q-38 68 -40 173q2 105 40 173q39 67 88 67t88 -67q38 -68 40 -173v0zM144 473q-61 -3 -102 -75v0v0q-40 -72 -42 -181q2 -109 42 -181q41 -72 102 -75h16h96q54 3 91 75q36 72 37 181q-1 109 -37 181q-37 72 -91 75h-96
h-16zM279 305h81h-81h81q7 -37 8 -80h-80v0q-1 42 -9 80v0zM276 321q-9 35 -23 64h82v0q13 -28 22 -64h-81v0zM194 457h62h-62h62q37 0 71 -56h-83v0q-21 37 -50 56v0zM360 129h-81h81h-81q8 38 9 80h80v0q-1 -43 -8 -80v0zM276 113h81h-81h81q-9 -36 -22 -64h-82v0
q14 29 23 64v0zM256 -23h-62h62h-62q29 19 50 56h83v0q-34 -56 -71 -56v0zM64 217q1 77 24 127q24 49 52 49t52 -49q23 -50 24 -127q-1 -77 -24 -127q-24 -49 -52 -49t-52 49q-23 50 -24 127v0zM140 25q21 0 38 17v0v0q17 16 29 42q24 53 25 133q-1 80 -25 133
q-12 26 -29 42q-17 17 -38 17t-38 -17q-17 -16 -29 -42q-24 -53 -25 -133q1 -80 25 -133q12 -26 29 -42q17 -17 38 -17v0z" />
</svg>
