<?xml version="1.0" standalone="no"?>
<!DOCTYPE svg PUBLIC "-//W3C//DTD SVG 1.1//EN" "http://www.w3.org/Graphics/SVG/1.1/DTD/svg11.dtd" >
<svg xmlns="http://www.w3.org/2000/svg" xmlns:xlink="http://www.w3.org/1999/xlink" version="1.1" viewBox="-10 -40 404 512">
   <path fill="currentColor"
d="M200 -39q-5 0 -7 4t0 8l11 17v0q4 5 4 12q-2 21 -23 23h-77v0q-25 1 -42 18t-18 42q0 21 12 36q-26 2 -43 20q-16 18 -17 44q1 27 19 45t45 19h256v0q27 -1 45 -19t19 -45q-1 -27 -19 -45t-45 -19h-2v0q17 -19 18 -47q-1 -48 -33 -80t-80 -33h-23v0zM294 121h-62h62h-62
q-7 1 -8 8q1 7 8 8h64h24q20 1 34 14q13 14 14 34q-1 20 -14 34q-14 13 -34 14h-256v0q-20 -1 -34 -14q-13 -14 -14 -34q1 -20 14 -34q14 -13 34 -14h16h24q7 -1 8 -8q-1 -7 -8 -8h-21v0q-18 -13 -19 -36q0 -19 13 -31q12 -13 31 -13h77v0q17 0 28 -11t11 -28q0 -11 -6 -21
l-3 -4v0h8v0q41 1 69 28q27 28 28 69q-1 31 -26 47v0zM64 289q-1 -7 -8 -8q-7 1 -8 8v16v0q0 17 12 28q11 12 28 12h1v0l12 93v0q2 15 13 25t26 10h104v0q15 0 26 -10t14 -25l11 -93v0h1v0q17 0 28 -12q12 -11 12 -28v-16v0q-1 -7 -8 -8q-7 1 -8 8v16v0q-2 22 -24 24h-8v0
q-7 1 -8 7l-12 100v0q-4 20 -24 21h-104v0q-20 -1 -24 -21l-12 -100v0q-1 -6 -8 -7h-8v0q-22 -2 -24 -24v-16v0z" />
</svg>
