<?xml version="1.0" standalone="no"?>
<!DOCTYPE svg PUBLIC "-//W3C//DTD SVG 1.1//EN" "http://www.w3.org/Graphics/SVG/1.1/DTD/svg11.dtd" >
<svg xmlns="http://www.w3.org/2000/svg" xmlns:xlink="http://www.w3.org/1999/xlink" version="1.1" viewBox="-10 -40 468 512">
   <path fill="currentColor"
d="M208 -39q-5 0 -7 4t0 8l11 17v0q4 5 4 12q-2 21 -23 23h-41v0q-27 1 -45 19t-19 45h-8v0q-34 1 -57 23q-22 23 -23 57q1 34 23 57q23 22 57 23h288v0q34 -1 57 -23q22 -23 23 -57q-1 -34 -23 -57q-23 -22 -57 -23h-8v0v-1v-2q-1 -53 -37 -88q-35 -36 -88 -37h-27v0z
M226 -19l-3 -4l3 4l-3 -4h12v0q46 1 77 32t32 77q0 5 -1 10q0 3 2 6t6 3h17v0q27 1 45 19t19 45q-1 27 -19 45t-45 19h-288v0q-27 -1 -45 -19t-19 -45q1 -27 19 -45t45 -19h17v0q3 0 6 -3q2 -3 2 -6q-1 -3 -1 -7q1 -20 14 -34q14 -14 34 -14h41v0q17 0 28 -11t11 -28
q0 -11 -6 -21v0zM90 432q3 18 16 29v0v0q13 12 32 12h172v0q19 0 32 -12q13 -11 16 -29l21 -151v0h-16v0l-21 149v0q-6 25 -32 27h-38v0l15 -176v0h-16v0l-15 175v0v1v0h-64v0v0v-1l-15 -175v0h-16v0l15 176v0h-38v0q-26 -2 -32 -27l-21 -149v0h-16v0l21 151v0z" />
</svg>
