<?xml version="1.0" standalone="no"?>
<!DOCTYPE svg PUBLIC "-//W3C//DTD SVG 1.1//EN" "http://www.w3.org/Graphics/SVG/1.1/DTD/svg11.dtd" >
<svg xmlns="http://www.w3.org/2000/svg" xmlns:xlink="http://www.w3.org/1999/xlink" version="1.1" viewBox="-10 -40 586 512">
   <path fill="currentColor"
d="M442 -1q-10 -7 -23 -5l-68 8v0q-10 1 -19 -4l-60 -33v0q-21 -10 -38 6l-47 50v0q-7 7 -17 9l-68 14v0q-23 6 -25 29l-4 69v0q-1 10 -7 18l-43 53v0q-14 19 -1 39l41 55v0q6 8 7 19l1 44v0l15 -15v0v-30v0q-1 -15 -10 -28l-41 -54v0q-6 -10 1 -20l42 -53v0q10 -12 11 -28
l4 -68v0q1 -12 13 -15l67 -13v0q15 -3 25 -14l47 -50v0q9 -8 20 -3l59 33v0q14 7 29 5l68 -8v0q5 0 9 2l12 -12v0zM465 41q3 0 5 3q55 66 58 157q-1 72 -35 129q-34 58 -92 92q-57 34 -129 35q-91 -3 -157 -58q-3 -2 -3 -5q0 -4 2 -7l344 -344v0q3 -2 6 -2h1zM465 25
q-10 0 -18 7l-344 344v0q-7 8 -7 18q1 11 9 18q34 27 76 44t91 17q76 -1 137 -37q62 -36 98 -98q36 -61 37 -137q0 -49 -17 -91t-44 -76q-7 -8 -18 -9v0zM272 377q15 -1 16 -16q-1 -15 -16 -16q-15 1 -16 16q1 15 16 16v0zM352 361q-1 -15 -16 -16q-15 1 -16 16q1 15 16 16
q15 -1 16 -16v0zM304 313q15 -1 16 -16q-1 -15 -16 -16q-15 1 -16 16q1 15 16 16v0zM232 113q-48 1 -79 33v0v0q-32 31 -33 79q1 41 25 71l12 -12v0q-20 -25 -21 -59q1 -41 28 -68t68 -28q34 1 59 21l12 -12v0q-30 -24 -71 -25v0z" />
</svg>
