<?xml version="1.0" standalone="no"?>
<!DOCTYPE svg PUBLIC "-//W3C//DTD SVG 1.1//EN" "http://www.w3.org/Graphics/SVG/1.1/DTD/svg11.dtd" >
<svg xmlns="http://www.w3.org/2000/svg" xmlns:xlink="http://www.w3.org/1999/xlink" version="1.1" viewBox="-10 -40 660 512">
   <path fill="currentColor"
d="M16 33q-1 -7 -8 -8q-7 1 -8 8v176v0v192v0q1 7 8 8q7 -1 8 -8v-184v0h288v0v184v0q1 7 8 8q7 -1 8 -8v-192v0v-176v0q-1 -7 -8 -8q-7 1 -8 8v168v0h-288v0v-168v0zM509 27q-6 -4 -11 1l-115 146v0q-31 40 -31 91v0v0q2 61 42 102q41 40 102 42q61 -2 102 -42
q40 -41 42 -102q-2 -61 -42 -102q-41 -40 -102 -42q-33 0 -61 14l75 -97v0q4 -6 -1 -11v0zM368 265v-1v0v0v-1q2 -54 38 -89q36 -36 90 -37q54 1 91 37q36 37 37 91q-1 54 -37 91q-37 36 -91 37q-54 -1 -91 -37q-36 -37 -37 -91v0v0z" />
</svg>
