<?xml version="1.0" standalone="no"?>
<!DOCTYPE svg PUBLIC "-//W3C//DTD SVG 1.1//EN" "http://www.w3.org/Graphics/SVG/1.1/DTD/svg11.dtd" >
<svg xmlns="http://www.w3.org/2000/svg" xmlns:xlink="http://www.w3.org/1999/xlink" version="1.1" viewBox="-11 0 597 512">
   <path fill="currentColor"
d="M234 -12q-5 7 -9 14l-1 -1v0q-25 -24 -57 -24q-33 0 -58 24q-7 7 -12 16q-23 36 -56 62l-5 5q-16 16 -19 37t6 40q11 18 13 44v36v0q0 16 11 28l26 26v0q21 21 21 51v1v0q-2 7 -7 13l-8 8v0q-1 -5 -1 -9v-13v0q0 -23 -16 -39l-26 -27v0q-16 -16 -17 -39v-36v0
q-1 -19 -11 -37q-11 -24 -7 -49q4 -26 23 -46q3 -3 7 -6q31 -25 52 -58q6 -11 15 -20q29 -28 68 -28q38 0 68 27v0zM557 97q3 -11 3 -24q-1 -41 -28 -68t-68 -28q-12 0 -24 3q-48 11 -96 5h-8q-27 0 -47 15t-29 39q-6 23 -25 45l-29 30v0q-14 14 -14 33v43v0q-1 33 -23 57
l-11 11v0q-14 14 -14 33v80v0q0 6 -1 11l113 -112v0v-109v0q1 -7 8 -8q7 1 8 8v93v0l162 -163v0q6 -4 12 0q4 6 0 12l-99 98v0h93v0q7 1 8 8q-1 7 -8 8h-109v0l-176 177v0q5 -1 11 -1h80v0q19 0 33 -14l11 -11v0q24 -23 57 -23h43v0q19 0 33 -14l30 -29v0q22 -19 45 -25
q24 -9 39 -29q14 -20 15 -47v-9q-6 -47 5 -95v0zM121 428l-43 43l43 -43l-43 43q-6 4 -12 0q-4 -6 0 -12l43 -42v0q19 -19 19 -46v-79v0q0 -27 19 -46l10 -10v0q19 -19 19 -46v-43v0q0 -26 19 -45l29 -29v0q15 -17 21 -39q10 -29 35 -47q24 -17 56 -18q5 0 10 1q46 5 90 -5
q13 -4 28 -4q48 1 79 33q32 31 33 79q0 15 -3 28q-11 44 -5 90v10q-1 32 -18 56q-18 25 -47 35q-22 6 -39 21l-29 29v0q-19 19 -46 19h-43v0q-26 0 -45 19l-10 10v0q-19 18 -46 19h-79v0q-27 0 -45 19v0z" />
</svg>
