<?xml version="1.0" standalone="no"?>
<!DOCTYPE svg PUBLIC "-//W3C//DTD SVG 1.1//EN" "http://www.w3.org/Graphics/SVG/1.1/DTD/svg11.dtd" >
<svg xmlns="http://www.w3.org/2000/svg" xmlns:xlink="http://www.w3.org/1999/xlink" version="1.1" viewBox="-10 -40 532 512">
   <path fill="currentColor"
d="M72 -23q-24 1 -40 16v0v0q-15 16 -16 40v56v0q1 20 14 34q14 13 34 14q20 -1 34 -14q13 -14 14 -34v-48v0q1 -7 8 -8q7 1 8 8v48v0q-1 29 -21 47l24 20v0q16 13 36 13h17v0q2 -40 23 -69q5 -6 9 -11v-64v0q0 -14 -9 -23t-23 -9h-8v0q-7 -1 -8 -8q1 -7 8 -8h8v0
q20 1 34 14q13 14 14 34v47v0q9 -7 16 -12q8 -4 16 0q7 5 16 12v-47v0q0 -20 14 -34q14 -13 34 -14h8v0q7 1 8 8q-1 7 -8 8h-8v0q-14 0 -23 9t-9 23v64v0q4 5 9 11q21 29 23 69h17v0q20 0 35 -13l24 -20v0q-19 -18 -20 -47v-48v0q1 -7 8 -8q7 1 8 8v48v0q1 20 14 34
q14 13 34 14q20 -1 34 -14q13 -14 14 -34v-56v0q-1 -24 -16 -40q-16 -15 -40 -16h-6v0l22 94v0q1 7 -6 10q-7 1 -10 -6l-24 -104v0q-1 -4 2 -7q2 -3 6 -3h16v0q31 1 51 21t21 51v56v0q-1 27 -19 45t-45 19q-16 0 -30 -7l-27 22v0q-20 17 -46 17h-17v0v32v0h41v0q13 0 25 -6
l34 -17v0q7 -3 11 4q3 6 -3 10l-35 17v0q-15 8 -32 8h-41v0v32v0h60v0q10 0 21 -4l28 -11v0q7 -2 10 4q2 7 -4 11l-29 11v0q-13 5 -26 5h-60v0v32v0h5v0q21 0 40 12l7 5v0q6 5 3 12q-5 5 -11 2l-8 -6v0q-15 -9 -31 -9h-7v0l-19 73v0q19 3 32 17q12 14 13 35q-2 17 -19 19
h-154v0q-17 -2 -19 -19q0 -21 13 -35t32 -17l-19 -73v0h-7v0q-17 0 -31 9l-8 6v0q-6 3 -11 -3q-3 -6 2 -11l8 -5v0q19 -12 40 -12h5v0v-32v0h-60v0q-14 0 -26 -5l-29 -12v0q-7 -3 -4 -10t10 -4l29 11v0q10 4 20 4h60v0v-32v0h-41v0q-17 0 -32 -8l-35 -17v0q-6 -4 -3 -10
q4 -7 11 -4l34 17v0q12 6 25 6h41v0v-32v0h-17v0q-26 0 -46 -17l-27 -22v0q-14 7 -30 7q-27 -1 -45 -19t-19 -45v-56v0q1 -31 21 -51t51 -21h16v0q4 0 6 3q3 3 2 7l-24 104v0q-3 7 -10 6q-7 -3 -6 -10l22 -94v0h-6v0zM200 177v48v-48v48v34v0l27 7v0q29 7 58 0l27 -7v0v-34
v0v-48v0v-8v0q-1 -34 -20 -60q-19 -25 -36 -35q-17 10 -35 35q-20 26 -21 60v8v0zM200 307l27 7l-27 -7l27 7q29 7 58 0l27 -7v0v-32v0l-23 6v0q-33 8 -66 0l-23 -6v0v32v0zM201 324l8 31l-8 -31l8 31l14 4v0q33 10 66 0l14 -4v0l8 -31v0l-22 5v0q-33 8 -66 0l-22 -5v0z
M223 407q1 4 -1 7q-3 3 -6 3h-3v0q-16 0 -26 11q-11 10 -11 26q0 3 3 3h154v0q3 0 3 -3q0 -16 -11 -26q-10 -11 -26 -11h-2v0q-4 0 -7 -3q-2 -3 -1 -7l9 -33v0l-5 1v0q-37 10 -74 0l-5 -1v0l9 33v0z" />
</svg>
