<?xml version="1.0" standalone="no"?>
<!DOCTYPE svg PUBLIC "-//W3C//DTD SVG 1.1//EN" "http://www.w3.org/Graphics/SVG/1.1/DTD/svg11.dtd" >
<svg xmlns="http://www.w3.org/2000/svg" xmlns:xlink="http://www.w3.org/1999/xlink" version="1.1" viewBox="-10 -40 404 512">
   <path fill="currentColor"
d="M64 457h256h-256h256q20 -1 34 -14q13 -14 14 -34v-309v0q0 -20 -14 -34l-75 -75v0q-14 -14 -33 -14h-182v0q-20 1 -34 14q-13 14 -14 34v384v0q1 20 14 34q14 13 34 14v0zM320 473h-256h256h-256q-27 -1 -45 -19t-19 -45v-384v0q1 -27 19 -45t45 -19h182v0q26 0 45 19
l74 74v0q19 19 19 46v309v0q-1 27 -19 45t-45 19v0z" />
</svg>
