<?xml version="1.0" standalone="no"?>
<!DOCTYPE svg PUBLIC "-//W3C//DTD SVG 1.1//EN" "http://www.w3.org/Graphics/SVG/1.1/DTD/svg11.dtd" >
<svg xmlns="http://www.w3.org/2000/svg" xmlns:xlink="http://www.w3.org/1999/xlink" version="1.1" viewBox="-10 -40 532 512">
   <path fill="currentColor"
d="M64 -23h384h-384h384q20 1 34 14q13 14 14 34v384v0q-1 20 -14 34q-14 13 -34 14h-384v0q-20 -1 -34 -14q-13 -14 -14 -34v-144v0q24 1 40 16q15 16 16 40v32v0q1 24 16 40q16 15 40 16q24 -1 40 -16q15 -16 16 -40v-40v0h24v0q14 0 23 -9t9 -23v-64v0q0 -14 -9 -23
t-23 -9h-64v0q-14 0 -23 9t-9 23v64v0q0 14 9 23t23 9h24v0v40v0q0 17 -12 28q-11 12 -28 12t-28 -12q-12 -11 -12 -28v-32v0q-1 -31 -21 -51t-51 -21v-224v0q1 -20 14 -34q14 -13 34 -14v0zM0 257v152v-152v152q1 27 19 45t45 19h384v0q27 -1 45 -19t19 -45v-384v0
q-1 -27 -19 -45t-45 -19h-384v0q-27 1 -45 19t-19 45v232v0zM96 41q-7 1 -8 8q1 7 8 8h128v0q7 -1 8 -8q-1 -7 -8 -8h-128v0zM288 41q-7 1 -8 8q1 7 8 8h128v0q7 -1 8 -8q-1 -7 -8 -8h-128v0zM96 105q-7 1 -8 8q1 7 8 8h128v0q7 -1 8 -8q-1 -7 -8 -8h-128v0zM288 105
q-7 1 -8 8q1 7 8 8h128v0q7 -1 8 -8q-1 -7 -8 -8h-128v0zM208 297h-32h32h-64q-15 -1 -16 -16v-64v0q1 -15 16 -16h64v0q15 1 16 16v64v0q-1 15 -16 16v0zM320 201h64h-64h64q15 1 16 16v160v0q-1 15 -16 16h-64v0q-15 -1 -16 -16v-160v0q1 -15 16 -16v0zM288 217v160v-160
v160q0 14 9 23t23 9h64v0q14 0 23 -9t9 -23v-160v0q0 -14 -9 -23t-23 -9h-64v0q-14 0 -23 9t-9 23v0z" />
</svg>
