<?xml version="1.0" standalone="no"?>
<!DOCTYPE svg PUBLIC "-//W3C//DTD SVG 1.1//EN" "http://www.w3.org/Graphics/SVG/1.1/DTD/svg11.dtd" >
<svg xmlns="http://www.w3.org/2000/svg" xmlns:xlink="http://www.w3.org/1999/xlink" version="1.1" viewBox="-11 0 661 512">
   <path fill="currentColor"
d="M315 79q-3 -11 -7 -22l-23 -51v0q-9 -19 -28 -26q-18 -7 -38 1l-51 23v0q-20 9 -34 24v0v0q-14 14 -21 34l-1 1v0v0v0q-7 20 -7 40v0v0q1 11 3 22h1v0v0v0q9 33 -2 69q-16 35 -45 53v0v0v0v0q-10 6 -17 14v0v0q-14 15 -22 35t-7 41v0v0q0 20 9 40l23 51v0q9 19 27 26
q19 7 38 -1v0v0q5 7 10 13l-3 1v0q-26 11 -50 1q-25 -9 -37 -34l-22 -51v0q-10 -23 -11 -46t8 -47q9 -23 25 -40q9 -9 20 -16q27 -17 40 -45q9 -30 0 -60q-3 -13 -3 -26q-1 -23 8 -46v-1v0q9 -23 25 -39q16 -17 39 -28l51 -22v0q25 -11 50 -2q24 10 36 35l23 51v0
q-5 12 -7 26v1v1v0zM252 195v0v0v0q-14 3 -26 8v0v0q-24 10 -43 29t-29 43v0v0q-10 23 -10 50v68v0q1 27 19 45t45 19h68v0q57 -1 94 -39v0v0q19 -19 28 -42v0v0q5 -13 8 -27v0v0v0v0q3 -20 11 -39q8 -20 24 -36t36 -24q19 -8 39 -11v0v0v0v0q14 -3 26 -8v0v0q24 -10 43 -29
t29 -42v0v0q10 -24 10 -51v-68v0q-1 -27 -19 -45t-45 -19h-68v0q-57 1 -94 39v0v0q-19 19 -28 43v0v0q-5 12 -8 26v1v0v0v0q-3 19 -11 38q-8 20 -23 36q-17 16 -36 24q-20 8 -39 11h-1v0zM139 268q11 -26 32 -48q22 -21 49 -32q14 -6 30 -9q38 -5 66 -30q25 -28 31 -67
q2 -15 8 -30q11 -26 32 -47q41 -42 105 -44h68v0q34 1 57 23q22 23 23 57v68v0q0 30 -11 57q-11 26 -32 48q-22 21 -48 32q-15 6 -30 9q-39 5 -67 30q-25 28 -30 67q-3 15 -9 30q-11 26 -31 47q-42 42 -106 44h-68v0q-34 -1 -57 -23q-22 -23 -23 -57v-68v0q0 -30 11 -57v0z
M544 73q15 1 16 16q-1 15 -16 16q-15 -1 -16 -16q1 -15 16 -16v0zM480 137q15 1 16 16q-1 15 -16 16q-15 -1 -16 -16q1 -15 16 -16v0zM320 297q15 1 16 16q-1 15 -16 16q-15 -1 -16 -16q1 -15 16 -16v0zM240 377q1 -15 16 -16q15 1 16 16q-1 15 -16 16q-15 -1 -16 -16v0z
M320 361q15 1 16 16q-1 15 -16 16q-15 -1 -16 -16q1 -15 16 -16v0zM528 153q1 -15 16 -16q15 1 16 16q-1 15 -16 16q-15 -1 -16 -16v0z" />
</svg>
