<?xml version="1.0" standalone="no"?>
<!DOCTYPE svg PUBLIC "-//W3C//DTD SVG 1.1//EN" "http://www.w3.org/Graphics/SVG/1.1/DTD/svg11.dtd" >
<svg xmlns="http://www.w3.org/2000/svg" xmlns:xlink="http://www.w3.org/1999/xlink" version="1.1" viewBox="-10 -40 660 512">
   <path fill="currentColor"
d="M48 345q-1 15 -16 16q-15 -1 -16 -16v-256v0q1 -15 16 -16q15 1 16 16v256v0zM32 57q-14 0 -23 9v0v0q-9 9 -9 23v256v0q0 14 9 23t23 9t23 -9t9 -23h257v0q-1 -8 -1 -16h-256v0v-224v0h384v0v55v0q8 -3 16 -4v-67v0q1 -15 16 -16q15 1 16 16v64v0q8 0 16 1v-65v0
q0 -14 -9 -23t-23 -9t-23 9t-9 23h-384v0q0 -14 -9 -23t-23 -9v0zM496 201q35 0 64 17v0v0q29 17 47 47q17 30 17 64t-17 64q-18 30 -47 47t-64 17t-64 -17t-47 -47q-17 -30 -17 -64t17 -64q18 -30 47 -47t64 -17v0zM496 473q39 0 72 -19v0v0q33 -19 53 -53q19 -34 19 -72
t-19 -72q-20 -34 -53 -53t-72 -19t-72 19t-53 53q-19 34 -19 72t19 72q20 34 53 53t72 19v0zM566 283q-6 -4 -12 0l-74 75v0l-42 -43v0q-6 -4 -12 0q-4 6 0 12l48 48v0q6 4 12 0l80 -80v0q4 -6 0 -12v0z" />
</svg>
