<?xml version="1.0" standalone="no"?>
<!DOCTYPE svg PUBLIC "-//W3C//DTD SVG 1.1//EN" "http://www.w3.org/Graphics/SVG/1.1/DTD/svg11.dtd" >
<svg xmlns="http://www.w3.org/2000/svg" xmlns:xlink="http://www.w3.org/1999/xlink" version="1.1" viewBox="-10 -40 532 512">
   <path fill="currentColor"
d="M264 1q-1 -7 -8 -8q-7 1 -8 8v31v0l-103 -17v0q-20 -2 -34 10t-15 32q1 20 15 32t34 10l103 -17v0v71v0h-184v0q0 -14 -9 -23t-23 -9t-23 9t-9 23v256v0q0 14 9 23t23 9t23 -9t9 -23h384v0q0 14 9 23t23 9t23 -9t9 -23v-256v0q0 -14 -9 -23t-23 -9t-23 9t-9 23h-184v0
v-71v0l103 17v0q20 2 34 -10t15 -32q-1 -20 -15 -32t-34 -10l-103 17v0v-31v0zM448 169v224v-224v224h-384v0v-224v0h192h192zM248 48v18v-18v18l-106 17v0q-12 1 -21 -6q-9 -8 -9 -20t9 -20q9 -7 21 -6l106 17v0zM264 48l106 -17l-106 17l106 -17q12 -1 21 6q9 8 9 20
t-9 20q-9 7 -21 6l-106 -17v0v-18v0zM48 409q-1 15 -16 16q-15 -1 -16 -16v-256v0q1 -15 16 -16q15 1 16 16v256v0zM496 153v256v-256v256q-1 15 -16 16q-15 -1 -16 -16v-256v0q1 -15 16 -16q15 1 16 16v0z" />
</svg>
