<?xml version="1.0" standalone="no"?>
<!DOCTYPE svg PUBLIC "-//W3C//DTD SVG 1.1//EN" "http://www.w3.org/Graphics/SVG/1.1/DTD/svg11.dtd" >
<svg xmlns="http://www.w3.org/2000/svg" xmlns:xlink="http://www.w3.org/1999/xlink" version="1.1" viewBox="-11 0 533 512">
   <path fill="currentColor"
d="M252 -17q38 27 43 77v0v0q5 50 -23 101v1v0v0v0q-5 8 2 14q8 5 13 -2h1v0v-1v0q37 -44 85 -57q47 -13 86 13q46 35 52 93t-28 112v0v0q-44 63 -110 100q-65 37 -137 39t-135 -41l5 -7v0l-5 7v0v0q-61 -46 -85 -115q-23 -69 -13 -145q11 -75 54 -139v0v0l6 4v0v0v0v0v0
l-6 -4v0v0v0q37 -53 92 -68q55 -14 103 18v0zM243 -4q-41 -28 -90 -15v0v0q-49 12 -83 61v0v0q-41 61 -51 133q-10 71 13 136q22 66 79 108v0v0q57 39 125 38q67 -2 129 -36q62 -35 104 -96q32 -50 26 -101q-6 -52 -46 -82v0v0q-31 -21 -72 -10q-41 10 -77 51q-15 19 -35 6
q-18 -15 -7 -36q26 -48 21 -91q-5 -44 -36 -66v0v0z" />
</svg>
