<?xml version="1.0" standalone="no"?>
<!DOCTYPE svg PUBLIC "-//W3C//DTD SVG 1.1//EN" "http://www.w3.org/Graphics/SVG/1.1/DTD/svg11.dtd" >
<svg xmlns="http://www.w3.org/2000/svg" xmlns:xlink="http://www.w3.org/1999/xlink" version="1.1" viewBox="-10 -40 340 512">
   <path fill="currentColor"
d="M304 121q-2 -61 -42 -102v0v0q-41 -40 -102 -42q-61 2 -102 42q-40 41 -42 102v176v0q0 14 9 23t23 9h104v0v-200v0q1 -7 8 -8q7 1 8 8v200v0h104v0q14 0 23 -9t9 -23v-176v0zM152 345h-104h104h-104q-20 -1 -34 -14q-13 -14 -14 -34v-176v0q2 -68 47 -113t113 -47
q68 2 113 47t47 113v176v0q-1 20 -14 34q-14 13 -34 14h-104v0v120v0q-1 7 -8 8q-7 -1 -8 -8v-120v0z" />
</svg>
