<?xml version="1.0" standalone="no"?>
<!DOCTYPE svg PUBLIC "-//W3C//DTD SVG 1.1//EN" "http://www.w3.org/Graphics/SVG/1.1/DTD/svg11.dtd" >
<svg xmlns="http://www.w3.org/2000/svg" xmlns:xlink="http://www.w3.org/1999/xlink" version="1.1" viewBox="-10 -40 404 512">
   <path fill="currentColor"
d="M368 414v-4v0v0q0 -1 -1 -3l-48 -270v0h-254v0l-48 270v0q-1 2 -1 3v4q0 18 13 30q12 13 30 13h266v0q18 0 30 -13q13 -12 13 -30v0zM316 121l-8 -47l8 47l-8 -47q-9 -43 -40 -70q-32 -26 -76 -27q-44 1 -76 27q-31 27 -40 70l-8 47v0h248v0zM325 473h-266h266h-266
q-25 -1 -42 -17q-16 -17 -17 -42q0 -5 1 -10l59 -333v0q10 -48 46 -79q36 -30 86 -31q50 1 86 31q36 31 46 79l59 333v0q1 5 1 10q-1 25 -17 42q-17 16 -42 17v0zM176 25q1 -15 16 -16q15 1 16 16q-1 15 -16 16q-15 -1 -16 -16v0zM144 41q15 1 16 16q-1 15 -16 16
q-15 -1 -16 -16q1 -15 16 -16v0zM224 57q1 -15 16 -16q15 1 16 16q-1 15 -16 16q-15 -1 -16 -16v0zM138 194l-26 208l26 -208l-26 208q-2 7 -9 7q-7 -2 -7 -9l27 -208v0q1 -7 8 -7q8 2 7 9v0zM262 192l26 208l-26 -208l26 208q0 7 -7 9q-7 0 -9 -7l-26 -208v0q-1 -7 7 -9
q7 0 9 7v0z" />
</svg>
