<?xml version="1.0" standalone="no"?>
<!DOCTYPE svg PUBLIC "-//W3C//DTD SVG 1.1//EN" "http://www.w3.org/Graphics/SVG/1.1/DTD/svg11.dtd" >
<svg xmlns="http://www.w3.org/2000/svg" xmlns:xlink="http://www.w3.org/1999/xlink" version="1.1" viewBox="-10 -40 532 512">
   <path fill="currentColor"
d="M496 9v32v-32v32h-480v0v-32v0h480v0zM16 -7q-15 1 -16 16v32v0q1 15 16 16h480v0q15 -1 16 -16v-32v0q-1 -15 -16 -16h-480v0zM19 185l-17 36l17 -36l-17 36q-2 4 -2 8q2 18 20 20h472v0q18 -2 20 -20q0 -4 -2 -8l-16 -36v0h-18v0l20 43v0v1v0q0 4 -4 4h-472v0
q-4 0 -4 -4v-1l20 -43v0h-17v0zM2 317q-2 4 -2 8q2 18 20 20h472v0q18 -2 20 -20q0 -4 -2 -8l-16 -36v0h-18v0l20 43v0v1v0q0 4 -4 4h-472v0q-4 0 -4 -4v-1l20 -43v0h-17v0l-17 36v0zM19 377l-17 36l17 -36l-17 36q-2 4 -2 8q2 18 20 20h472v0q18 -2 20 -20q0 -4 -2 -8
l-16 -36v0h-18v0l20 43v0v1v0q0 4 -4 4h-472v0q-4 0 -4 -4v-1l20 -43v0h-17v0zM2 125q-2 4 -2 8q2 18 20 20h472v0q18 -2 20 -20q0 -4 -2 -8l-16 -36v0h-18v0l20 43v0v1q0 4 -4 4h-472v0q-4 0 -4 -4v-1l20 -43v0h-17v0l-17 36v0z" />
</svg>
