<?xml version="1.0" standalone="no"?>
<!DOCTYPE svg PUBLIC "-//W3C//DTD SVG 1.1//EN" "http://www.w3.org/Graphics/SVG/1.1/DTD/svg11.dtd" >
<svg xmlns="http://www.w3.org/2000/svg" xmlns:xlink="http://www.w3.org/1999/xlink" version="1.1" viewBox="-10 -40 404 512">
   <path fill="currentColor"
d="M0 -39v96v-96v96q0 6 6 8l122 32v0v-17v0l-112 -29v0v-90v0h-16v0zM256 80v17v-17v17l122 -32v0q6 -2 6 -8v-96v0h-16v0v90v0l-112 29v0zM192 9q15 1 16 16v176v0h-32v0v-176v0q1 -15 16 -16v0zM224 201v-176v176v-176q0 -14 -9 -23t-23 -9t-23 9t-9 23v176v0h-88v0
q-7 1 -8 8q1 7 8 8h96h144q7 -1 8 -8q-1 -7 -8 -8h-88v0zM144 313q15 -1 16 -16q-1 -15 -16 -16q-15 1 -16 16q1 15 16 16v0zM80 377q15 -1 16 -16q-1 -15 -16 -16q-15 1 -16 16q1 15 16 16v0zM256 297q-1 -15 -16 -16q-15 1 -16 16q1 15 16 16q15 -1 16 -16v0zM192 377
q15 -1 16 -16q-1 -15 -16 -16q-15 1 -16 16q1 15 16 16v0zM160 425q-1 -15 -16 -16q-15 1 -16 16q1 15 16 16q15 -1 16 -16v0zM240 441q15 -1 16 -16q-1 -15 -16 -16q-15 1 -16 16q1 15 16 16v0zM384 425q-1 -15 -16 -16q-15 1 -16 16q1 15 16 16q15 -1 16 -16v0zM304 377
q15 -1 16 -16q-1 -15 -16 -16q-15 1 -16 16q1 15 16 16v0zM32 425q-1 -15 -16 -16q-15 1 -16 16q1 15 16 16q15 -1 16 -16v0z" />
</svg>
