<?xml version="1.0" standalone="no"?>
<!DOCTYPE svg PUBLIC "-//W3C//DTD SVG 1.1//EN" "http://www.w3.org/Graphics/SVG/1.1/DTD/svg11.dtd" >
<svg xmlns="http://www.w3.org/2000/svg" xmlns:xlink="http://www.w3.org/1999/xlink" version="1.1" viewBox="-10 -40 533 512">
   <path fill="currentColor"
d="M123 -37q5 -4 11 0l34 35v0q11 12 12 27q0 16 -11 28l-62 67v0q-13 17 0 33l46 46v0q3 -32 20 -67q17 -36 53 -70q17 -15 38 -29l-7 -63v0q0 -4 2 -7q3 -2 7 -2l134 16v0q38 -9 84 -14q12 -1 19 7q8 7 7 19q-5 45 -14 84l17 135v0q0 4 -2 7q-3 2 -7 2l-64 -8v0
q-14 21 -29 38q-34 36 -70 53q-35 17 -67 20l46 46v0q16 13 33 0l67 -62v0q12 -11 28 -10q16 0 28 11l34 34v0q4 6 0 11l-11 13v0q-22 23 -52 24t-53 -21l-8 -8v0l-22 20v0q-12 11 -28 11q-15 -1 -27 -12l-53 -53v0q-3 1 -6 3l-46 35v0l43 43v0q12 12 12 28t-12 28l-9 10v0
q-6 4 -12 0q-4 -6 0 -12l10 -9v0q14 -17 0 -34l-45 -44v0l-43 32v0q-12 9 -12 24q1 12 9 21q8 8 21 8h19v0q7 1 8 8q-1 7 -8 8h-19v0q-19 0 -32 -13t-14 -32q0 -23 19 -37l41 -31v0l-67 -67v0l-32 42v0q-13 18 -35 18q-19 0 -32 -13t-13 -32v-19v0q1 -7 8 -8q7 1 8 8v19v0
q0 13 8 21t21 8q14 0 23 -11l32 -44v0l-44 -45v0q-17 -14 -34 0l-9 10v0q-6 4 -12 0q-4 -6 0 -12l10 -9v0q12 -12 28 -12t28 12l43 43v0l35 -46v0q2 -3 3 -6l-53 -52v0q-11 -12 -12 -28q0 -16 11 -28l20 -21v0l-8 -9v0q-22 -23 -21 -53t24 -52l13 -11v0zM123 280l70 71
l-70 -71l70 71l48 -36v0q12 -9 28 -10q29 -2 63 -18t68 -51q33 -35 58 -96t36 -153q0 -8 -8 -8q-92 11 -153 36t-96 59q-35 33 -51 67t-17 63q-1 16 -11 29l-35 47v0zM450 194l46 6l-46 -6l46 6l-11 -87v0q-15 47 -35 81v0zM360 -12l-86 -10l86 10l-86 -10l5 45v0
q34 -20 81 -35v0zM126 76l31 -34l-31 34l31 -34q13 -17 0 -33l-29 -29v0l-7 6v0q-19 17 -19 40q-1 24 16 42l8 8v0zM397 347l8 8l-8 -8l8 8q18 17 42 16q23 0 40 -19l6 -7v0l-29 -28v0q-16 -14 -33 -1l-34 31v0zM209 281q1 -15 16 -16q15 1 16 16q-1 15 -16 16
q-15 -1 -16 -16v0zM193 233q15 1 16 16q-1 15 -16 16q-15 -1 -16 -16q1 -15 16 -16v0z" />
</svg>
