<?xml version="1.0" standalone="no"?>
<!DOCTYPE svg PUBLIC "-//W3C//DTD SVG 1.1//EN" "http://www.w3.org/Graphics/SVG/1.1/DTD/svg11.dtd" >
<svg xmlns="http://www.w3.org/2000/svg" xmlns:xlink="http://www.w3.org/1999/xlink" version="1.1" viewBox="-10 -40 468 512">
   <path fill="currentColor"
d="M384 9h-105h105h-105l-9 -16v0h114v0q27 1 45 19t19 45v320v0q-1 27 -19 45t-45 19h-320v0q-27 -1 -45 -19t-19 -45v-320v0q1 -27 19 -45t45 -19h114v0l-9 16v0h-105v0q-20 1 -34 14q-13 14 -14 34v240v0q21 0 40 -9t34 -21q18 -14 32 -31q2 -3 6 -3t6 3q13 17 29 31
q14 12 29 21q16 9 32 9t32 -9q15 -9 29 -21q16 -14 28 -31q3 -3 7 -3t6 3q14 17 32 31q15 12 34 21t40 9v-240v0q-1 -20 -14 -34q-14 -13 -34 -14v0zM432 313q-25 -1 -47 -11v0v0q-21 -10 -37 -23q-19 -15 -28 -25q-8 10 -25 25q-14 13 -32 23t-39 11q-21 -1 -39 -11
t-32 -23q-17 -15 -25 -25q-9 10 -28 25q-16 13 -37 23q-22 10 -47 11v64v0q1 20 14 34q14 13 34 14h320v0q20 -1 34 -14q13 -14 14 -34v-64v0zM152 111q0 -22 12 -41l48 -70v0q4 -7 12 -7t12 7l48 71v0q12 18 12 40v2v0q-1 31 -21 51t-51 21q-31 -1 -51 -21t-21 -51v-2v0z
M178 79q-10 15 -10 32v2v0q1 24 16 40q16 15 40 16q24 -1 40 -16q15 -16 16 -40v-2v0q0 -17 -10 -32l-46 -69v0l-46 69v0z" />
</svg>
