<?xml version="1.0" standalone="no"?>
<!DOCTYPE svg PUBLIC "-//W3C//DTD SVG 1.1//EN" "http://www.w3.org/Graphics/SVG/1.1/DTD/svg11.dtd" >
<svg xmlns="http://www.w3.org/2000/svg" xmlns:xlink="http://www.w3.org/1999/xlink" version="1.1" viewBox="-10 -40 468 512">
   <path fill="currentColor"
d="M336 89q0 -8 -1 -16h-23v0q-35 -1 -57 -27l-4 5v0q-32 37 -80 38h-59v0v16v0q1 48 33 79q31 32 79 33q48 -1 79 -33q32 -31 33 -79v-16v0zM267 35q17 21 45 22h19v0q-10 -35 -39 -57l-26 33v0l1 2v0zM279 -9q-25 -14 -55 -14q-43 1 -74 28q-30 26 -37 68h58v0
q41 -1 68 -32l40 -50v0zM96 89q1 -54 37 -91v0v0q37 -36 91 -37q54 1 91 37q36 37 37 91v16v0q-1 54 -37 91q-37 36 -91 37q-54 -1 -91 -37q-36 -37 -37 -91v-16v0zM177 269q2 -4 7 -4h80v0q5 0 7 4q2 5 0 9l-38 52v0l24 46v0l47 -94v0q62 8 102 52q41 44 42 108q0 13 -9 22
t-22 9h-191h-195q-13 0 -22 -9t-9 -22q1 -64 42 -108q40 -44 102 -52l48 94v0l23 -46v0l-37 -52v0q-3 -4 -1 -9v0zM200 281l24 34l-24 -34l24 34l25 -34v0h-49v0zM210 448l-75 -149l75 149l-75 -149q-52 11 -85 50t-34 93q1 14 15 15h183v0l-4 -9v0zM200 394l15 29l-15 -29
l15 29l9 18v0l9 -18v0l15 -29v0l-24 -47v0l-23 47h-1zM432 442q-1 -54 -34 -93v0v0q-33 -39 -85 -50l-75 149v0l-4 9v0h183v0q14 -1 15 -15v0z" />
</svg>
