<?xml version="1.0" standalone="no"?>
<!DOCTYPE svg PUBLIC "-//W3C//DTD SVG 1.1//EN" "http://www.w3.org/Graphics/SVG/1.1/DTD/svg11.dtd" >
<svg xmlns="http://www.w3.org/2000/svg" xmlns:xlink="http://www.w3.org/1999/xlink" version="1.1" viewBox="-10 -40 468 512">
   <path fill="currentColor"
d="M336 89q0 -8 -1 -16h-23v0q-35 -1 -57 -27l-4 5v0q-32 37 -80 38h-59v0v16v0q1 48 33 79q31 32 79 33q48 -1 79 -33q32 -31 33 -79v-16v0zM267 35q17 21 45 22h19v0q-10 -35 -39 -57l-26 33v0l1 2v0zM279 -9q-25 -14 -55 -14q-43 1 -74 28q-30 26 -37 68h58v0
q41 -1 68 -32l40 -50v0zM96 89q1 -54 37 -91v0v0q37 -36 91 -37q54 1 91 37q36 37 37 91v16v0q-1 54 -37 91q-37 36 -91 37q-54 -1 -91 -37q-36 -37 -37 -91v-16v0zM198 370l-63 -85l63 85l-63 -85q-52 12 -85 52q-33 41 -34 96v8v0q1 15 16 16h384v0q15 -1 16 -16v-8v0
q-1 -55 -34 -96q-33 -40 -85 -52l-63 85v0q-11 12 -26 12t-26 -12v0zM132 269q9 -2 15 6l64 85v0q13 13 26 0l64 -85v0q6 -8 15 -6q58 13 94 58q37 44 38 106v8v0q0 14 -9 23t-23 9h-384v0q-14 0 -23 -9t-9 -23v-8v0q1 -62 38 -106q36 -45 94 -58v0z" />
</svg>
