<?xml version="1.0" standalone="no"?>
<!DOCTYPE svg PUBLIC "-//W3C//DTD SVG 1.1//EN" "http://www.w3.org/Graphics/SVG/1.1/DTD/svg11.dtd" >
<svg xmlns="http://www.w3.org/2000/svg" xmlns:xlink="http://www.w3.org/1999/xlink" version="1.1" viewBox="-10 -40 532 512">
   <path fill="currentColor"
d="M271 -17l216 175l-216 -175l216 175q9 7 9 18v1v0q-2 22 -24 24h-24h-408q-22 -2 -24 -24v-1v0q0 -11 9 -18l216 -175v0q15 -10 30 0v0zM476 217q15 -2 25 -13v0v0q11 -11 11 -27v-1v0q0 -19 -15 -31l-17 -14v0v-114v0q-2 -22 -24 -24h-64v0q-22 2 -24 24v24v0l-87 -70v0
q-25 -18 -50 0l-216 174v0q-15 12 -15 31v1v0q0 16 11 27q10 11 25 13q-4 7 -4 16v16v0q0 15 11 24q-11 9 -11 24v16v0q0 15 11 24q-11 9 -11 24v16v0q0 15 11 24q-11 9 -11 24v16v0q0 14 9 23t23 9h96v0q14 0 23 -9t9 -23v-16v0q0 -15 -11 -24q11 -9 11 -24v-16v0
q0 -15 -11 -24q11 -9 11 -24v-16v0q0 -15 -11 -24q11 -9 11 -24v-16v0q0 -9 -4 -16h136v0q-4 7 -4 16v16v0q0 15 11 24q-11 9 -11 24v16v0q0 15 11 24q-11 9 -11 24v16v0q0 15 11 24q-11 9 -11 24v16v0q0 14 9 23t23 9h96v0q14 0 23 -9t9 -23v-16v0q0 -15 -11 -24
q11 -9 11 -24v-16v0q0 -15 -11 -24q11 -9 11 -24v-16v0q0 -15 -11 -24q11 -9 11 -24v-16v0q0 -9 -4 -16v0zM448 393h-96h96h-96q-15 -1 -16 -16v-16v0q1 -15 16 -16h96v0q15 1 16 16v16v0q-1 15 -16 16v0zM352 409h96h-96h96q15 1 16 16v16v0q-1 15 -16 16h-96v0
q-15 -1 -16 -16v-16v0q1 -15 16 -16v0zM448 329h-96h96h-96q-15 -1 -16 -16v-16v0q1 -15 16 -16h96v0q15 1 16 16v16v0q-1 15 -16 16v0zM448 217q15 1 16 16v16v0q-1 15 -16 16h-96v0q-15 -1 -16 -16v-16v0q1 -15 16 -16h96v0zM160 393h-96h96h-96q-15 -1 -16 -16v-16v0
q1 -15 16 -16h96v0q15 1 16 16v16v0q-1 15 -16 16v0zM64 409h96h-96h96q15 1 16 16v16v0q-1 15 -16 16h-96v0q-15 -1 -16 -16v-16v0q1 -15 16 -16v0zM160 329h-96h96h-96q-15 -1 -16 -16v-16v0q1 -15 16 -16h96v0q15 1 16 16v16v0q-1 15 -16 16v0zM160 217q15 1 16 16v16v0
q-1 15 -16 16h-96v0q-15 -1 -16 -16v-16v0q1 -15 16 -16h96v0zM464 119l-80 -65l80 65l-80 -65v-37v0q1 -7 8 -8h64v0q7 1 8 8v102v0zM256 129q-22 -2 -24 -24q2 -22 24 -24q22 2 24 24q-2 22 -24 24v0zM216 105q1 23 20 35q20 10 40 0q19 -12 20 -35q-1 -23 -20 -35
q-20 -10 -40 0q-19 12 -20 35v0z" />
</svg>
