<?xml version="1.0" standalone="no"?>
<!DOCTYPE svg PUBLIC "-//W3C//DTD SVG 1.1//EN" "http://www.w3.org/Graphics/SVG/1.1/DTD/svg11.dtd" >
<svg xmlns="http://www.w3.org/2000/svg" xmlns:xlink="http://www.w3.org/1999/xlink" version="1.1" viewBox="-10 -40 596 512">
   <path fill="currentColor"
d="M128 -31q-1 -7 -8 -8q-7 1 -8 8v56v0h-48v0q-27 1 -45 19t-19 45v48v0v16v0v256v0q1 27 19 45t45 19h267v0q-11 -7 -20 -16h-247v0q-20 -1 -34 -14q-13 -14 -14 -34v-256v0h336h96v-16v0v-48v0q-1 -27 -19 -45t-45 -19h-48v0v-56v0q-1 -7 -8 -8q-7 1 -8 8v56v0h-192v0
v-56v0zM112 41v40v-40v40q1 7 8 8q7 -1 8 -8v-40v0h192v0v40v0q1 7 8 8q7 -1 8 -8v-40v0h48v0q20 1 34 14q13 14 14 34v48v0h-416v0v-48v0q1 -20 14 -34q14 -13 34 -14h48v0zM432 201q35 0 64 17v0v0q29 17 47 47q17 30 17 64t-17 64q-18 30 -47 47t-64 17t-64 -17t-47 -47
q-17 -30 -17 -64t17 -64q18 -30 47 -47t64 -17v0zM432 473q39 0 72 -19v0v0q33 -19 53 -53q19 -34 19 -72t-19 -72q-20 -34 -53 -53t-72 -19t-72 19t-53 53q-19 34 -19 72t19 72q20 34 53 53t72 19v0zM512 329q-1 -7 -8 -8h-144v0q-7 1 -8 8q1 7 8 8h144v0q7 -1 8 -8v0z" />
</svg>
