<?xml version="1.0" standalone="no"?>
<!DOCTYPE svg PUBLIC "-//W3C//DTD SVG 1.1//EN" "http://www.w3.org/Graphics/SVG/1.1/DTD/svg11.dtd" >
<svg xmlns="http://www.w3.org/2000/svg" xmlns:xlink="http://www.w3.org/1999/xlink" version="1.1" viewBox="-10 -40 596 512">
   <path fill="currentColor"
d="M128 -31q-1 -7 -8 -8q-7 1 -8 8v56v0h-48v0q-27 1 -45 19t-19 45v48v0v16v0v256v0q1 27 19 45t45 19h267v0q-11 -7 -20 -16h-247v0q-20 -1 -34 -14q-13 -14 -14 -34v-256v0h336h96v-16v0v-48v0q-1 -27 -19 -45t-45 -19h-48v0v-56v0q-1 -7 -8 -8q-7 1 -8 8v56v0h-192v0
v-56v0zM112 41v40v-40v40q1 7 8 8q7 -1 8 -8v-40v0h192v0v40v0q1 7 8 8q7 -1 8 -8v-40v0h48v0q20 1 34 14q13 14 14 34v48v0h-416v0v-48v0q1 -20 14 -34q14 -13 34 -14h48v0zM304 329q0 -35 17 -64v0v0q17 -29 47 -47q30 -17 64 -17t64 17q30 18 47 47t17 64t-17 64t-47 47
q-30 17 -64 17t-64 -17q-30 -18 -47 -47t-17 -64v0zM576 329q0 -39 -19 -72v0v0q-19 -33 -53 -53q-34 -19 -72 -19t-72 19q-34 20 -53 53t-19 72t19 72t53 53q34 19 72 19t72 -19q34 -20 53 -53t19 -72v0zM440 257q-1 -7 -8 -8q-7 1 -8 8v64v0h-64v0q-7 1 -8 8q1 7 8 8h64v0
v64v0q1 7 8 8q7 -1 8 -8v-64v0h64v0q7 -1 8 -8q-1 -7 -8 -8h-64v0v-64v0z" />
</svg>
