<?xml version="1.0" standalone="no"?>
<!DOCTYPE svg PUBLIC "-//W3C//DTD SVG 1.1//EN" "http://www.w3.org/Graphics/SVG/1.1/DTD/svg11.dtd" >
<svg xmlns="http://www.w3.org/2000/svg" xmlns:xlink="http://www.w3.org/1999/xlink" version="1.1" viewBox="-10 -40 596 512">
   <path fill="currentColor"
d="M128 -31q-1 -7 -8 -8q-7 1 -8 8v56v0h-48v0q-27 1 -45 19t-19 45v48v0v16v0v256v0q1 27 19 45t45 19h267v0q-11 -7 -20 -16h-247v0q-20 -1 -34 -14q-13 -14 -14 -34v-256v0h336h96v-16v0v-48v0q-1 -27 -19 -45t-45 -19h-48v0v-56v0q-1 -7 -8 -8q-7 1 -8 8v56v0h-192v0
v-56v0zM112 41v40v-40v40q1 7 8 8q7 -1 8 -8v-40v0h192v0v40v0q1 7 8 8q7 -1 8 -8v-40v0h48v0q20 1 34 14q13 14 14 34v48v0h-416v0v-48v0q1 -20 14 -34q14 -13 34 -14h48v0zM510 431q-33 25 -78 26q-45 -1 -78 -26l3 -7v0q17 -30 51 -31h48v0q34 1 51 31l3 7v0zM522 420
l-1 -3l1 3l-1 -3q-21 -38 -65 -40h-48v0q-44 2 -65 40l-1 3v0q-37 -36 -38 -91q1 -54 37 -91q37 -36 91 -37q54 1 91 37q36 37 37 91q-1 55 -38 91v0zM576 329q0 -39 -19 -72v0v0q-19 -33 -53 -53q-34 -19 -72 -19t-72 19q-34 20 -53 53t-19 72t19 72t53 53q34 19 72 19
t72 -19q34 -20 53 -53t19 -72v0zM432 265q14 0 23 9v0v0q9 9 9 23t-9 23t-23 9t-23 -9t-9 -23t9 -23t23 -9v0zM432 345q27 -1 42 -24q12 -24 0 -48q-15 -23 -42 -24q-27 1 -42 24q-12 24 0 48q15 23 42 24v0z" />
</svg>
