<?xml version="1.0" standalone="no"?>
<!DOCTYPE svg PUBLIC "-//W3C//DTD SVG 1.1//EN" "http://www.w3.org/Graphics/SVG/1.1/DTD/svg11.dtd" >
<svg xmlns="http://www.w3.org/2000/svg" xmlns:xlink="http://www.w3.org/1999/xlink" version="1.1" viewBox="-10 -40 532 512">
   <path fill="currentColor"
d="M496 121q-1 20 -14 34v0v0q-14 13 -34 14h-384v0q-20 -1 -34 -14q-13 -14 -14 -34v-64v0q1 -20 14 -34q14 -13 34 -14h384v0q20 1 34 14q13 14 14 34v64v0zM448 185q27 -1 45 -19v0v0q18 -18 19 -45v-64v0q-1 -27 -19 -45t-45 -19h-384v0q-27 1 -45 19t-19 45v64v0
q1 27 19 45t45 19h384v0zM512 377v-64v64v-64q-1 -27 -19 -45t-45 -19h-384v0q-27 1 -45 19t-19 45v64v0q1 27 19 45t45 19h384v0q27 -1 45 -19t19 -45v0zM448 425h-384h384h-384q-20 -1 -34 -14q-13 -14 -14 -34v-64v0q1 -20 14 -34q14 -13 34 -14h384v0q20 1 34 14
q13 14 14 34v64v0q-1 20 -14 34q-14 13 -34 14v0z" />
</svg>
