<?xml version="1.0" standalone="no"?>
<!DOCTYPE svg PUBLIC "-//W3C//DTD SVG 1.1//EN" "http://www.w3.org/Graphics/SVG/1.1/DTD/svg11.dtd" >
<svg xmlns="http://www.w3.org/2000/svg" xmlns:xlink="http://www.w3.org/1999/xlink" version="1.1" viewBox="-10 -40 660 512">
   <path fill="currentColor"
d="M136 -39q31 1 52 22q13 -6 28 -6q31 1 51 21t21 51q-1 31 -21 51t-51 21h-152v0q-27 -1 -45 -19t-19 -45q1 -27 19 -45t45 -19h12v0q21 -30 60 -32v0zM80 9h-16h16h-16q-20 1 -34 14q-13 14 -14 34q1 20 14 34q14 13 34 14h152v0q24 -1 40 -16q15 -16 16 -40
q-1 -24 -16 -40q-16 -15 -40 -16q-14 0 -25 6q-7 3 -12 -2q-17 -19 -43 -20q-32 1 -48 28q-3 4 -8 4v0zM288 -37q16 -2 32 -2q72 1 129 35q58 34 92 92q34 57 35 129q0 11 -1 22q-7 -5 -15 -8v-14q-1 -67 -33 -121t-86 -86t-121 -33q-10 0 -19 1q-6 -8 -13 -15v0zM80 217
q1 78 44 138v0v0q42 60 111 87q6 11 13 21q-81 -25 -132 -91q-50 -66 -52 -155q0 -33 8 -64h17v0q-9 31 -9 64v0zM224 169q2 -15 16 -16q15 1 16 16q-1 15 -16 16q-14 -1 -16 -16v0zM400 153q15 1 16 16q-1 15 -16 16q-14 -1 -16 -16q2 -15 16 -16v0zM584 317q25 8 40 28v0
v0q16 21 16 48q-1 34 -23 57q-23 22 -57 23h-224v0q-34 -1 -57 -23q-22 -23 -23 -57q1 -30 19 -51q18 -22 46 -28q6 -35 32 -58q26 -22 63 -23q44 1 72 33q14 -9 32 -9q26 1 44 17q18 17 20 43v0zM568 321q-1 -20 -14 -34v0v0q-14 -13 -34 -14q-15 0 -27 8q-8 5 -14 -2
q-23 -29 -63 -30q-32 1 -54 21t-26 51q-1 7 -8 9q-24 3 -40 20q-15 18 -16 43q1 27 19 45t45 19h224v0q27 -1 45 -19t19 -45q0 -23 -14 -40q-13 -16 -34 -22q-8 -2 -8 -10v0z" />
</svg>
