<?xml version="1.0" standalone="no"?>
<!DOCTYPE svg PUBLIC "-//W3C//DTD SVG 1.1//EN" "http://www.w3.org/Graphics/SVG/1.1/DTD/svg11.dtd" >
<svg xmlns="http://www.w3.org/2000/svg" xmlns:xlink="http://www.w3.org/1999/xlink" version="1.1" viewBox="-10 -40 660 512">
   <path fill="currentColor"
d="M523 182q5 -14 5 -29q-1 -34 -23 -57q-23 -22 -57 -23q-25 0 -44 14q-6 3 -13 2q-7 -2 -10 -8q-19 -33 -52 -52q-33 -20 -73 -20q-61 2 -102 42q-40 41 -42 102v7v0q0 12 -10 16q-39 14 -62 46t-24 75q1 54 37 91q37 36 91 37h368v0q48 -1 79 -33q32 -31 33 -79
q-1 -41 -26 -71q-24 -30 -64 -39q-7 -1 -10 -8q-4 -6 -1 -13v0zM256 -7q41 0 74 18v0v0q34 18 56 49q5 6 9 13q5 -3 11 -6q19 -10 42 -10q41 1 68 28t28 68q0 10 -2 19l-4 16q8 1 15 4q39 13 62 46q24 32 25 75q-1 54 -37 91q-37 36 -91 37h-368v0q-61 -2 -102 -42
q-40 -41 -42 -102q1 -48 27 -84t69 -52v-8q2 -68 47 -113t113 -47v0zM232 177q1 -24 16 -40v0v0q16 -15 40 -16h56v0q27 1 45 19t19 45q-1 34 -29 53l-51 34v0v25v0q-1 7 -8 8q-7 -1 -8 -8v-29v0q0 -5 4 -7l55 -36v0q20 -15 21 -40q-1 -21 -14 -34q-13 -14 -34 -14h-56v0
q-17 0 -28 12q-12 11 -12 28v6v0q-1 8 -8 8t-8 -8v-6v0zM304 345q1 -15 16 -16q15 1 16 16q-1 15 -16 16q-15 -1 -16 -16v0z" />
</svg>
