<?xml version="1.0" standalone="no"?>
<!DOCTYPE svg PUBLIC "-//W3C//DTD SVG 1.1//EN" "http://www.w3.org/Graphics/SVG/1.1/DTD/svg11.dtd" >
<svg xmlns="http://www.w3.org/2000/svg" xmlns:xlink="http://www.w3.org/1999/xlink" version="1.1" viewBox="-10 -40 660 512">
   <path fill="currentColor"
d="M256 457q54 0 100 -22q5 7 10 13q-50 24 -110 25q-72 -1 -129 -35q-58 -34 -92 -92q-34 -57 -35 -129q1 -72 35 -129q34 -58 92 -92q57 -34 129 -35q91 2 158 55t90 137h-8h-8h-1q-22 -77 -84 -126q-63 -49 -147 -50q-67 1 -121 33t-86 86t-33 121q1 67 33 121t86 86
t121 33v0zM256 361q27 -1 42 -24q12 -24 0 -48q-15 -23 -42 -24q-27 1 -42 24q-12 24 0 48q15 23 42 24v0zM256 377q-27 -1 -45 -19v0v0q-18 -18 -19 -45q1 -25 16 -43q16 -17 40 -20v-209v0q1 -7 8 -8q7 1 8 8v209v0q24 3 40 20q15 18 16 43q-1 27 -19 45t-45 19v0zM144 73
q15 1 16 16q-1 15 -16 16q-15 -1 -16 -16q1 -15 16 -16v0zM80 201q1 -15 16 -16q15 1 16 16q-1 15 -16 16q-15 -1 -16 -16v0zM352 89q1 -15 16 -16q15 1 16 16q-1 15 -16 16q-15 -1 -16 -16v0zM624 329q0 -35 -17 -64v0v0q-17 -29 -47 -47q-30 -17 -64 -17t-64 17
q-30 18 -47 47t-17 64t17 64t47 47q30 17 64 17t64 -17q30 -18 47 -47t17 -64v0zM352 329q0 -39 19 -72v0v0q19 -33 53 -53q34 -19 72 -19t72 19q34 20 53 53t19 72t-19 72t-53 53q-34 19 -72 19t-72 -19q-34 -20 -53 -53t-19 -72v0zM504 257v64v-64v64h64v0q7 1 8 8
q-1 7 -8 8h-64v0v64v0q-1 7 -8 8q-7 -1 -8 -8v-64v0h-64v0q-7 -1 -8 -8q1 -7 8 -8h64v0v-64v0q1 -7 8 -8q7 1 8 8v0z" />
</svg>
