<?xml version="1.0" standalone="no"?>
<!DOCTYPE svg PUBLIC "-//W3C//DTD SVG 1.1//EN" "http://www.w3.org/Graphics/SVG/1.1/DTD/svg11.dtd" >
<svg xmlns="http://www.w3.org/2000/svg" xmlns:xlink="http://www.w3.org/1999/xlink" version="1.1" viewBox="-10 -40 532 512">
   <path fill="currentColor"
d="M128 -39h96h-96h96v16v0h-96v0v-16v0zM96 -39v16v-16v16h-32v0q-20 1 -34 14q-13 14 -14 34v32v0h-16v0v-32v0q1 -27 19 -45t45 -19h32v0zM0 89h16h-16h16v96v0h-16v0v-96v0zM256 -23v-16v16v-16h32v0q27 1 45 19t19 45v64v0h-16v0v-64v0q-1 -20 -14 -34q-14 -13 -34 -14
h-32v0zM336 121h16h-16h16v16v0v80v0v32v0q-1 27 -19 45t-45 19h-64h-64v-16v0v-80v0v-32v0q1 -27 19 -45t45 -19h64h48zM160 345h16h-16h16v64v0q1 20 14 34q14 13 34 14h32v0v16v0h-32v0q-27 -1 -45 -19t-19 -45v-64v0zM128 313h-64h64h-64q-27 -1 -45 -19t-19 -45v-32v0
h16v0v32v0q1 20 14 34q14 13 34 14h64v0v16v0zM384 137v-16v16v-16h64v0q27 1 45 19t19 45v32v0h-16v0v-32v0q-1 -20 -14 -34q-14 -13 -34 -14h-64v0zM416 473v-16v16v-16h32v0q20 -1 34 -14q13 -14 14 -34v-32v0h16v0v32v0q-1 27 -19 45t-45 19h-32v0zM496 249h16h-16h16
v96v0h-16v0v-96v0zM288 473v-16v16v-16h96v0v16v0h-96v0zM336 137h-112h112h-112q-20 1 -34 14q-13 14 -14 34v112v0h112v0q20 -1 34 -14q13 -14 14 -34v-112v0z" />
</svg>
