<?xml version="1.0" standalone="no"?>
<!DOCTYPE svg PUBLIC "-//W3C//DTD SVG 1.1//EN" "http://www.w3.org/Graphics/SVG/1.1/DTD/svg11.dtd" >
<svg xmlns="http://www.w3.org/2000/svg" xmlns:xlink="http://www.w3.org/1999/xlink" version="1.1" viewBox="-10 -40 532 512">
   <path fill="currentColor"
d="M160 297q15 1 16 16v96v0q1 20 14 34q14 13 34 14h224v0q20 -1 34 -14q13 -14 14 -34v-224v0q-1 -20 -14 -34q-14 -13 -34 -14h-96v0q-15 -1 -16 -16v-96v0q-1 -20 -14 -34q-14 -13 -34 -14h-224v0q-20 1 -34 14q-13 14 -14 34v224v0q1 20 14 34q14 13 34 14h96v0z
M144 313h-80h80h-80q-27 -1 -45 -19t-19 -45v-224v0q1 -27 19 -45t45 -19h224v0q27 1 45 19t19 45v80v0v16v0h16h80q27 1 45 19t19 45v224v0q-1 27 -19 45t-45 19h-224v0q-27 -1 -45 -19t-19 -45v-80v0v-16v0h-16v0z" />
</svg>
