<?xml version="1.0" standalone="no"?>
<!DOCTYPE svg PUBLIC "-//W3C//DTD SVG 1.1//EN" "http://www.w3.org/Graphics/SVG/1.1/DTD/svg11.dtd" >
<svg xmlns="http://www.w3.org/2000/svg" xmlns:xlink="http://www.w3.org/1999/xlink" version="1.1" viewBox="-10 -40 660 512">
   <path fill="currentColor"
d="M0 147q0 -10 5 -18l77 -143v0q15 -24 43 -25h391v0q27 1 42 25l77 142v0q5 9 5 19q-1 19 -15 30q-4 -7 -9 -13q8 -7 8 -17q0 -6 -3 -11l-77 -142v0q-10 -16 -28 -17h-391v0q-19 1 -29 17l-77 142v0q-3 5 -3 11q2 20 22 22h34h364q-5 8 -9 16h-347v0v240v0q0 14 9 23t23 9
h224v0q14 0 23 -9t9 -23v-208v0q1 -7 8 -8q7 1 8 8v208v0q-1 20 -14 34q-14 13 -34 14h-224v0q-20 -1 -34 -14q-13 -14 -14 -34v-240v0h-26v0q-16 0 -27 -11t-11 -27v0zM136 209q7 1 8 8v104v0q1 7 8 8h144v0q7 -1 8 -8v-104v0q1 -7 8 -8q7 1 8 8v104v0q-2 22 -24 24h-144v0
q-22 -2 -24 -24v-104v0q1 -7 8 -8v0zM528 169q-20 1 -34 14v0v0q-13 14 -14 34v64v0h96v0v-64v0q-1 -20 -14 -34q-14 -13 -34 -14v0zM464 217q1 -27 19 -45v0v0q18 -18 45 -19q27 1 45 19t19 45v64v0h16v0q14 0 23 9t9 23v128v0q0 14 -9 23t-23 9h-160v0q-14 0 -23 -9
t-9 -23v-128v0q0 -14 9 -23t23 -9h16v0v-64v0zM448 297q-15 1 -16 16v128v0q1 15 16 16h160v0q15 -1 16 -16v-128v0q-1 -15 -16 -16h-16h-144z" />
</svg>
