<?xml version="1.0" standalone="no"?>
<!DOCTYPE svg PUBLIC "-//W3C//DTD SVG 1.1//EN" "http://www.w3.org/Graphics/SVG/1.1/DTD/svg11.dtd" >
<svg xmlns="http://www.w3.org/2000/svg" xmlns:xlink="http://www.w3.org/1999/xlink" version="1.1" viewBox="-10 -40 660 512">
   <path fill="currentColor"
d="M352 41q-1 36 -32 55q-32 18 -64 0q-31 -19 -32 -55q1 -36 32 -55q32 -18 64 0q31 19 32 55v0zM288 -39q-34 1 -57 23v0v0q-22 23 -23 57q1 32 21 54t51 26v0v0v48v0h-80v0q-7 1 -8 8q1 7 8 8h80v0v272v0h-8v0q-78 -2 -130 -54t-54 -130v-27v0l58 64v0q6 5 11 1
q5 -6 1 -11l-72 -80v0q-2 -3 -6 -3t-6 3l-72 80v0q-4 5 1 11q6 4 11 -1l58 -64v0v27v0q2 85 59 141q56 57 141 59h16h16q39 0 73 -14l-12 -12q-29 10 -61 10h-8v0v-272v0h80v0q7 -1 8 -8q-1 -7 -8 -8h-80v0v-48v0v0v0q31 -4 51 -26t21 -54q-1 -34 -23 -57q-23 -22 -57 -23v0
zM496 201q35 0 64 17v0v0q29 17 47 47q17 30 17 64t-17 64q-18 30 -47 47t-64 17t-64 -17t-47 -47q-17 -30 -17 -64t17 -64q18 -30 47 -47t64 -17v0zM496 473q39 0 72 -19v0v0q33 -19 53 -53q19 -34 19 -72t-19 -72q-20 -34 -53 -53t-72 -19t-72 19t-53 53q-19 34 -19 72
t19 72q20 34 53 53t72 19v0zM566 283q-6 -4 -12 0l-74 75v0l-42 -43v0q-6 -4 -12 0q-4 6 0 12l48 48v0q6 4 12 0l80 -80v0q4 -6 0 -12v0z" />
</svg>
