<?xml version="1.0" standalone="no"?>
<!DOCTYPE svg PUBLIC "-//W3C//DTD SVG 1.1//EN" "http://www.w3.org/Graphics/SVG/1.1/DTD/svg11.dtd" >
<svg xmlns="http://www.w3.org/2000/svg" xmlns:xlink="http://www.w3.org/1999/xlink" version="1.1" viewBox="-10 -40 660 512">
   <path fill="currentColor"
d="M134 471l96 -96l-96 96l96 -96q4 -6 0 -12q-6 -4 -12 0l-82 83v0v-221v0h280v0q1 -8 3 -16h-91v0v-221v0l82 83v0q6 4 12 0q4 -6 0 -12l-96 -96v0q-6 -4 -12 0l-96 96v0q-4 6 0 12q6 4 12 0l82 -83v0v221v0h-304v0q-7 1 -8 8q1 7 8 8h112v0v221v0l-82 -83v0q-6 -4 -12 0
q-4 6 0 12l96 96v0q6 4 12 0v0zM136 153v-152v152v-152q-1 -7 -8 -8q-7 1 -8 8v152v0h16v0zM328 281h-16h16h-16v152v0q1 7 8 8q7 -1 8 -8v-152v0zM528 169q20 1 34 14v0v0q13 14 14 34v64v0h-96v0v-64v0q1 -20 14 -34q14 -13 34 -14v0zM464 217v64v-64v64h-16v0
q-14 0 -23 9t-9 23v128v0q0 14 9 23t23 9h160v0q14 0 23 -9t9 -23v-128v0q0 -14 -9 -23t-23 -9h-16v0v-64v0q-1 -27 -19 -45t-45 -19q-27 1 -45 19t-19 45v0zM448 297h16h-16h160q15 1 16 16v128v0q-1 15 -16 16h-160v0q-15 -1 -16 -16v-128v0q1 -15 16 -16v0z" />
</svg>
