<?xml version="1.0" standalone="no"?>
<!DOCTYPE svg PUBLIC "-//W3C//DTD SVG 1.1//EN" "http://www.w3.org/Graphics/SVG/1.1/DTD/svg11.dtd" >
<svg xmlns="http://www.w3.org/2000/svg" xmlns:xlink="http://www.w3.org/1999/xlink" version="1.1" viewBox="-10 -40 596 512">
   <path fill="currentColor"
d="M112 -23q-14 0 -23 9v0v0q-9 9 -9 23v208v0h192v0v-208v0q0 -14 -9 -23t-23 -9h-128v0zM288 9v208v-208v208h152v0v-229v0l-82 83v0q-6 4 -12 0q-4 -6 0 -12l96 -96v0q6 -4 12 0l96 96v0q4 6 0 12q-6 4 -12 0l-82 -83v0v229v0h56v0q27 1 45 19t19 45v105v0q-7 -4 -16 -6
v-99v0q-1 -20 -14 -34q-14 -13 -34 -14h-224h-224q-20 1 -34 14q-13 14 -14 34v99v0q-9 2 -16 6v-105v0q1 -27 19 -45t45 -19v-208v0q1 -20 14 -34q14 -13 34 -14h128v0q20 1 34 14q13 14 14 34v0zM295 396q12 17 27 31q13 12 29 21t33 9t33 -9t29 -21q15 -14 27 -31
q3 -3 7 -3t7 3q11 16 25 29q24 25 57 32q7 1 7 8q-2 8 -9 7q-20 -3 -37 -13q-17 -11 -29 -23q-14 -13 -21 -22q-8 10 -23 25q-14 13 -33 23q-18 10 -40 11q-22 -1 -40 -11q-19 -10 -33 -23q-15 -15 -23 -25v0v0v0v0q-8 10 -23 25q-14 13 -33 23q-18 10 -40 11
q-22 -1 -40 -11q-19 -10 -33 -23q-15 -15 -23 -25q-7 9 -21 22q-12 12 -29 23q-17 10 -37 13q-7 1 -9 -6q0 -8 7 -9q33 -7 57 -32q14 -13 25 -29q3 -3 7 -3t7 3q12 17 27 31q13 12 29 21t33 9t33 -9t29 -21q15 -14 27 -31q7 -6 14 0v0z" />
</svg>
