<?xml version="1.0" standalone="no"?>
<!DOCTYPE svg PUBLIC "-//W3C//DTD SVG 1.1//EN" "http://www.w3.org/Graphics/SVG/1.1/DTD/svg11.dtd" >
<svg xmlns="http://www.w3.org/2000/svg" xmlns:xlink="http://www.w3.org/1999/xlink" version="1.1" viewBox="-10 -40 650 512">
   <path fill="currentColor"
d="M136 -31q1 -7 8 -8q7 1 8 8v157v0l50 -51v0q6 -4 12 0q4 6 0 12l-64 64v0q-6 4 -12 0l-64 -64v0q-4 -6 0 -12q6 -4 12 0l50 51v0v-157v0zM426 75q6 -4 12 0l50 51v0v-157v0q1 -7 8 -8q7 1 8 8v157v0l50 -51v0q6 -4 12 0q4 6 0 12l-64 64v0q-6 4 -12 0l-64 -64v0
q-4 -6 0 -12v0zM496 281q22 -2 24 -24q-2 -22 -24 -24q-22 2 -24 24q2 22 24 24v0zM496 217q23 1 35 20q10 20 0 40q-12 19 -35 20q-23 -1 -35 -20q-10 -20 0 -40q12 -19 35 -20v0zM491 329q-25 0 -45 13v0v0q-21 12 -33 34l-28 52v0q-3 9 5 14q8 4 13 -4l40 -65v0
q3 -5 9 -4q5 2 5 8v64v0q2 15 16 16h49v0q14 -1 16 -16v-64v0q0 -6 5 -8q6 -1 9 4l40 65v0q5 8 13 4q8 -5 5 -14l-28 -52v0q-12 -22 -33 -34q-20 -13 -45 -13h-13v0zM399 368q14 -26 38 -40v0v0q25 -15 54 -15h13v0q29 0 53 15q24 14 38 40l28 53v0q6 10 2 20q-3 10 -13 16
q-21 8 -34 -10l-25 -41v0v35v0q0 14 -9 23t-23 9h-48v0q-13 0 -22 -9t-10 -23v-35v0l-24 41v0q-13 18 -34 10q-10 -6 -14 -16q-3 -10 2 -20l28 -53v0zM168 257q-2 -22 -24 -24q-22 2 -24 24q2 22 24 24q22 -2 24 -24v0zM104 257q1 -23 20 -35q20 -10 40 0q19 12 20 35
q-1 23 -20 35q-20 10 -40 0q-19 -12 -20 -35v0zM61 376l-28 52l28 -52l-28 52q-3 9 5 14q8 4 13 -4l40 -65v0q3 -5 9 -4q5 2 6 8v64v0q1 15 16 16h48v0q14 -1 16 -16v-64v0q0 -6 5 -8q6 -1 9 4l40 65v0q5 8 13 4q8 -5 5 -14l-28 -52v0q-12 -22 -33 -34q-20 -13 -45 -13h-13
v0q-25 0 -45 13q-21 12 -33 34v0zM139 313h13h-13h13q29 0 53 15q24 14 39 40l28 53v0q5 10 1 20q-3 10 -13 16q-21 8 -34 -10l-25 -41v0v35v0q0 14 -9 23t-23 9h-48v0q-13 0 -22 -9t-10 -23v-35v0l-24 41v0q-13 18 -34 10q-10 -6 -14 -16q-3 -10 2 -20l28 -53v0
q14 -26 38 -40q25 -15 54 -15v0zM320 169q22 -2 24 -24q-2 -22 -24 -24q-22 2 -24 24q2 22 24 24v0zM320 105q23 1 35 20q10 20 0 40q-12 19 -35 20q-23 -1 -35 -20q-10 -20 0 -40q12 -19 35 -20v0zM315 217q-25 0 -45 13v0v0q-21 12 -33 34v0v0v0v0l-20 36v0q-4 6 -11 4
q-6 -5 -3 -11l20 -37v0q14 -26 38 -40q25 -15 54 -15h13v0q29 0 53 15q24 14 38 40l20 37v0q3 6 -3 11q-7 2 -11 -4l-20 -36v0v0v0v0v0q-12 -22 -32 -34q-21 -13 -45 -13h-13v0zM276 257q5 2 5 8v88v0q0 7 -8 8q-7 -1 -8 -8v-60v0l-16 26v0q-5 5 -11 2q-6 -4 -3 -11l32 -49
v0q3 -5 9 -4v0zM367 257q6 -1 9 4l31 49v0q4 7 -2 11q-7 4 -11 -2l-17 -26v0v60v0q0 7 -8 8q-7 -1 -8 -8v-88v0q1 -6 6 -8v0z" />
</svg>
