<?xml version="1.0" standalone="no"?>
<!DOCTYPE svg PUBLIC "-//W3C//DTD SVG 1.1//EN" "http://www.w3.org/Graphics/SVG/1.1/DTD/svg11.dtd" >
<svg xmlns="http://www.w3.org/2000/svg" xmlns:xlink="http://www.w3.org/1999/xlink" version="1.1" viewBox="-10 -40 532 512">
   <path fill="currentColor"
d="M256 -39q7 1 8 8v265v0q24 3 40 20q15 18 16 43q-1 27 -19 45t-45 19q-27 -1 -45 -19t-19 -45q1 -25 16 -43q16 -17 40 -20v-265v0q1 -7 8 -8v0zM256 249q-27 1 -42 24q-12 24 0 48q15 23 42 24q27 -1 42 -24q12 -24 0 -48q-15 -23 -42 -24v0zM64 105q-20 1 -34 14v0v0
q-13 14 -14 34v256v0q1 20 14 34q14 13 34 14h384v0q20 -1 34 -14q13 -14 14 -34v-256v0q-1 -20 -14 -34q-14 -13 -34 -14h-64v0q-15 1 -16 16v192v0q-1 48 -33 79q-31 32 -79 33q-48 -1 -79 -33q-32 -31 -33 -79v-192v0q-1 -15 -16 -16h-64v0zM0 153q1 -27 19 -45v0v0
q18 -18 45 -19h64v0q14 0 23 9t9 23v192v0q1 41 28 68t68 28q41 -1 68 -28t28 -68v-192v0q0 -14 9 -23t23 -9h64v0q27 1 45 19t19 45v256v0q-1 27 -19 45t-45 19h-384v0q-27 -1 -45 -19t-19 -45v-256v0z" />
</svg>
