<?xml version="1.0" standalone="no"?>
<!DOCTYPE svg PUBLIC "-//W3C//DTD SVG 1.1//EN" "http://www.w3.org/Graphics/SVG/1.1/DTD/svg11.dtd" >
<svg xmlns="http://www.w3.org/2000/svg" xmlns:xlink="http://www.w3.org/1999/xlink" version="1.1" viewBox="-10 -40 660 512">
   <path fill="currentColor"
d="M592 -23h-288h288h-288q-14 0 -23 9t-9 23v80v0h-16v0v-80v0q1 -20 14 -34q14 -13 34 -14h288v0q20 1 34 14q13 14 14 34v416v0q-1 20 -14 34q-14 13 -34 14h-211v0q3 -8 3 -16h208v0q14 0 23 -9t9 -23v-416v0q0 -14 -9 -23t-23 -9v0zM550 283q4 6 0 12q-6 4 -12 0
l-50 -51v0v157v0q-1 7 -8 8q-7 -1 -8 -8v-157v0l-50 51v0q-6 4 -12 0q-4 -6 0 -12l64 -64v0q6 -4 12 0l64 64v0zM32 137q-15 1 -16 16v64v0q1 15 16 16h16h304q15 -1 16 -16v-64v0q-1 -15 -16 -16h-320v0zM32 249q-14 0 -23 -9v0v0q-9 -9 -9 -23v-64v0q0 -14 9 -23t23 -9
h320v0q14 0 23 9t9 23v64v0q0 14 -9 23t-23 9v192v0q0 14 -9 23t-23 9h-256v0q-14 0 -23 -9t-9 -23v-192v0zM336 249h-64h64h-64v24v0q-2 22 -24 24h-112v0q-22 -2 -24 -24v-24v0h-64v0v192v0q1 15 16 16h256v0q15 -1 16 -16v-192v0zM128 249v24v-24v24q1 7 8 8h112v0
q7 -1 8 -8v-24v0h-128v0z" />
</svg>
