<?xml version="1.0" standalone="no"?>
<!DOCTYPE svg PUBLIC "-//W3C//DTD SVG 1.1//EN" "http://www.w3.org/Graphics/SVG/1.1/DTD/svg11.dtd" >
<svg xmlns="http://www.w3.org/2000/svg" xmlns:xlink="http://www.w3.org/1999/xlink" version="1.1" viewBox="-10 -40 660 512">
   <path fill="currentColor"
d="M40 -7q-7 1 -8 8q1 7 8 8h80v0v96v0h-80v0q-7 1 -8 8q1 7 8 8h488h72q7 -1 8 -8q-1 -7 -8 -8h-80v0v-96v0h80v0q7 -1 8 -8q-1 -7 -8 -8h-560v0zM390 287q4 -10 11 -17q-11 -24 -32 -38q-22 -15 -49 -15q-37 1 -62 26t-26 62v96v0q-2 22 -24 24h-32v0q-22 -2 -24 -24v-96
v0q-1 -37 -26 -62t-62 -26h-24v0q-7 1 -8 8q1 7 8 8h24v0q31 1 51 21t21 51v96v0q0 17 12 28q11 12 28 12h32v0q17 0 28 -12q12 -11 12 -28v-96v0q1 -31 21 -51t51 -21q26 0 44 15q19 15 26 39v0zM504 9v96v-96v96h-112v0v-96v0h112v0zM376 9v96v-96v96h-112v0v-96v0h112v0z
M248 9v96v-96v96h-112v0v-96v0h112v0zM528 169q20 1 34 14v0v0q13 14 14 34v64v0h-96v0v-64v0q1 -20 14 -34q14 -13 34 -14v0zM464 217v64v-64v64h-16v0q-14 0 -23 9t-9 23v128v0q0 14 9 23t23 9h160v0q14 0 23 -9t9 -23v-128v0q0 -14 -9 -23t-23 -9h-16v0v-64v0
q-1 -27 -19 -45t-45 -19q-27 1 -45 19t-19 45v0zM448 297h16h-16h160q15 1 16 16v128v0q-1 15 -16 16h-160v0q-15 -1 -16 -16v-128v0q1 -15 16 -16v0z" />
</svg>
