<?xml version="1.0" standalone="no"?>
<!DOCTYPE svg PUBLIC "-//W3C//DTD SVG 1.1//EN" "http://www.w3.org/Graphics/SVG/1.1/DTD/svg11.dtd" >
<svg xmlns="http://www.w3.org/2000/svg" xmlns:xlink="http://www.w3.org/1999/xlink" version="1.1" viewBox="-10 -40 660 512">
   <path fill="currentColor"
d="M48 -23h288h-288h288q14 0 23 9t9 23v199v0q8 -8 16 -15v-184v0q-1 -20 -14 -34q-14 -13 -34 -14h-288v0q-20 1 -34 14q-13 14 -14 34v416v0q1 20 14 34q14 13 34 14h96h192q23 -1 37 -18q-6 -5 -11 -12q-9 13 -26 14h-96v0v-80v0q-1 -20 -14 -34q-14 -13 -34 -14
q-20 1 -34 14q-13 14 -14 34v80v0h-96v0q-14 0 -23 -9t-9 -23v-416v0q0 -14 9 -23t23 -9v0zM224 457h-64h64h-64v-80v0q0 -14 9 -23t23 -9t23 9t9 23v80v0zM104 193q-22 2 -24 24v32v0q2 22 24 24h32v0q22 -2 24 -24v-32v0q-2 -22 -24 -24h-32v0zM96 217q1 -7 8 -8h32v0
q7 1 8 8v32v0q-1 7 -8 8h-32v0q-7 -1 -8 -8v-32v0zM224 217v32v-32v32q2 22 24 24h32v0q22 -2 24 -24v-32v0q-2 -22 -24 -24h-32v0q-22 2 -24 24v0zM248 209h32h-32h32q7 1 8 8v32v0q-1 7 -8 8h-32v0q-7 -1 -8 -8v-32v0q1 -7 8 -8v0zM104 65q-22 2 -24 24v32v0q2 22 24 24
h32v0q22 -2 24 -24v-32v0q-2 -22 -24 -24h-32v0zM96 89q1 -7 8 -8h32v0q7 1 8 8v32v0q-1 7 -8 8h-32v0q-7 -1 -8 -8v-32v0zM224 89v32v-32v32q2 22 24 24h32v0q22 -2 24 -24v-32v0q-2 -22 -24 -24h-32v0q-22 2 -24 24v0zM248 81h32h-32h32q7 1 8 8v32v0q-1 7 -8 8h-32v0
q-7 -1 -8 -8v-32v0q1 -7 8 -8v0zM496 201q35 0 64 17v0v0q29 17 47 47q17 30 17 64t-17 64q-18 30 -47 47t-64 17t-64 -17t-47 -47q-17 -30 -17 -64t17 -64q18 -30 47 -47t64 -17v0zM496 473q39 0 72 -19v0v0q33 -19 53 -53q19 -34 19 -72t-19 -72q-20 -34 -53 -53t-72 -19
t-72 19t-53 53q-19 34 -19 72t19 72q20 34 53 53t72 19v0zM566 283q-6 -4 -12 0l-74 75v0l-42 -43v0q-6 -4 -12 0q-4 6 0 12l48 48v0q6 4 12 0l80 -80v0q4 -6 0 -12v0z" />
</svg>
