<?xml version="1.0" standalone="no"?>
<!DOCTYPE svg PUBLIC "-//W3C//DTD SVG 1.1//EN" "http://www.w3.org/Graphics/SVG/1.1/DTD/svg11.dtd" >
<svg xmlns="http://www.w3.org/2000/svg" xmlns:xlink="http://www.w3.org/1999/xlink" version="1.1" viewBox="-10 -40 660 512">
   <path fill="currentColor"
d="M48 -23q-14 0 -23 9v0v0q-9 9 -9 23v416v0q0 14 9 23t23 9h96v0v-80v0q1 -20 14 -34q14 -13 34 -14q20 1 34 14q13 14 14 34v80v0h96v0q14 0 23 -9t9 -23v-416v0q0 -14 -9 -23t-23 -9h-288v0zM224 457v-80v80v-80q0 -14 -9 -23t-23 -9t-23 9t-9 23v80v0h64v0zM144 473
h-96h96h-96q-20 -1 -34 -14q-13 -14 -14 -34v-416v0q1 -20 14 -34q14 -13 34 -14h288v0q20 1 34 14q13 14 14 34v416v0q-1 20 -14 34q-14 13 -34 14h-96h-96zM104 193h32h-32h32q22 2 24 24v32v0q-2 22 -24 24h-32v0q-22 -2 -24 -24v-32v0q2 -22 24 -24v0zM96 217v32v-32v32
q1 7 8 8h32v0q7 -1 8 -8v-32v0q-1 -7 -8 -8h-32v0q-7 1 -8 8v0zM224 217q2 -22 24 -24h32v0q22 2 24 24v32v0q-2 22 -24 24h-32v0q-22 -2 -24 -24v-32v0zM248 209q-7 1 -8 8v32v0q1 7 8 8h32v0q7 -1 8 -8v-32v0q-1 -7 -8 -8h-32v0zM104 65h32h-32h32q22 2 24 24v32v0
q-2 22 -24 24h-32v0q-22 -2 -24 -24v-32v0q2 -22 24 -24v0zM96 89v32v-32v32q1 7 8 8h32v0q7 -1 8 -8v-32v0q-1 -7 -8 -8h-32v0q-7 1 -8 8v0zM224 89q2 -22 24 -24h32v0q22 2 24 24v32v0q-2 22 -24 24h-32v0q-22 -2 -24 -24v-32v0zM248 81q-7 1 -8 8v32v0q1 7 8 8h32v0
q7 -1 8 -8v-32v0q-1 -7 -8 -8h-32v0zM424 -39q7 1 8 8v24v0h184v0q22 2 24 24v128v0q-2 22 -24 24h-184v0v296v0q-1 7 -8 8q-7 -1 -8 -8v-296v0v-16v0v-144v0v-16v0v-24v0q1 -7 8 -8v0zM432 153h184h-184h184q7 -1 8 -8v-128v0q-1 -7 -8 -8h-184v0v144v0z" />
</svg>
