<?xml version="1.0" standalone="no"?>
<!DOCTYPE svg PUBLIC "-//W3C//DTD SVG 1.1//EN" "http://www.w3.org/Graphics/SVG/1.1/DTD/svg11.dtd" >
<svg xmlns="http://www.w3.org/2000/svg" xmlns:xlink="http://www.w3.org/1999/xlink" version="1.1" viewBox="-10 -40 596 512">
   <path fill="currentColor"
d="M48 -23h288h-288h288q14 0 23 9t9 23v208v0q0 -30 16 -53v-155v0q-1 -20 -14 -34q-14 -13 -34 -14h-288v0q-20 1 -34 14q-13 14 -14 34v416v0q1 20 14 34q14 13 34 14h96h185q-5 -7 -7 -16h-82v0v-80v0q-1 -20 -14 -34q-14 -13 -34 -14q-20 1 -34 14q-13 14 -14 34v80v0
h-96v0q-14 0 -23 -9t-9 -23v-416v0q0 -14 9 -23t23 -9v0zM224 457h-64h64h-64v-80v0q0 -14 9 -23t23 -9t23 9t9 23v80v0zM104 193q-22 2 -24 24v32v0q2 22 24 24h32v0q22 -2 24 -24v-32v0q-2 -22 -24 -24h-32v0zM96 217q1 -7 8 -8h32v0q7 1 8 8v32v0q-1 7 -8 8h-32v0
q-7 -1 -8 -8v-32v0zM224 217v32v-32v32q2 22 24 24h32v0q22 -2 24 -24v-32v0q-2 -22 -24 -24h-32v0q-22 2 -24 24v0zM248 209h32h-32h32q7 1 8 8v32v0q-1 7 -8 8h-32v0q-7 -1 -8 -8v-32v0q1 -7 8 -8v0zM104 65q-22 2 -24 24v32v0q2 22 24 24h32v0q22 -2 24 -24v-32v0
q-2 -22 -24 -24h-32v0zM96 89q1 -7 8 -8h32v0q7 1 8 8v32v0q-1 7 -8 8h-32v0q-7 -1 -8 -8v-32v0zM224 89v32v-32v32q2 22 24 24h32v0q22 -2 24 -24v-32v0q-2 -22 -24 -24h-32v0q-22 2 -24 24v0zM248 81h32h-32h32q7 1 8 8v32v0q-1 7 -8 8h-32v0q-7 -1 -8 -8v-32v0q1 -7 8 -8
v0zM464 169q20 1 34 14v0v0q13 14 14 34v64v0h-96v0v-64v0q1 -20 14 -34q14 -13 34 -14v0zM400 217v64v-64v64h-16v0q-14 0 -23 9t-9 23v128v0q0 14 9 23t23 9h160v0q14 0 23 -9t9 -23v-128v0q0 -14 -9 -23t-23 -9h-16v0v-64v0q-1 -27 -19 -45t-45 -19q-27 1 -45 19t-19 45
v0zM384 297h16h-16h160q15 1 16 16v128v0q-1 15 -16 16h-160v0q-15 -1 -16 -16v-128v0q1 -15 16 -16v0z" />
</svg>
