<?xml version="1.0" standalone="no"?>
<!DOCTYPE svg PUBLIC "-//W3C//DTD SVG 1.1//EN" "http://www.w3.org/Graphics/SVG/1.1/DTD/svg11.dtd" >
<svg xmlns="http://www.w3.org/2000/svg" xmlns:xlink="http://www.w3.org/1999/xlink" version="1.1" viewBox="-10 -40 660 512">
   <path fill="currentColor"
d="M48 -23h288h-288h288q14 0 23 9t9 23v330v0l16 -10v-96v0v-224v0q-1 -20 -14 -34q-14 -13 -34 -14h-288v0q-20 1 -34 14q-13 14 -14 34v416v0q1 20 14 34q14 13 34 14h96h186q-5 -7 -7 -16h-83v0v-80v0q-1 -20 -14 -34q-14 -13 -34 -14q-20 1 -34 14q-13 14 -14 34v80v0
h-96v0q-14 0 -23 -9t-9 -23v-416v0q0 -14 9 -23t23 -9v0zM224 457h-64h64h-64v-80v0q0 -14 9 -23t23 -9t23 9t9 23v80v0zM104 193q-22 2 -24 24v32v0q2 22 24 24h32v0q22 -2 24 -24v-32v0q-2 -22 -24 -24h-32v0zM96 217q1 -7 8 -8h32v0q7 1 8 8v32v0q-1 7 -8 8h-32v0
q-7 -1 -8 -8v-32v0zM224 217v32v-32v32q2 22 24 24h32v0q22 -2 24 -24v-32v0q-2 -22 -24 -24h-32v0q-22 2 -24 24v0zM248 209h32h-32h32q7 1 8 8v32v0q-1 7 -8 8h-32v0q-7 -1 -8 -8v-32v0q1 -7 8 -8v0zM104 65q-22 2 -24 24v32v0q2 22 24 24h32v0q22 -2 24 -24v-32v0
q-2 -22 -24 -24h-32v0zM96 89q1 -7 8 -8h32v0q7 1 8 8v32v0q-1 7 -8 8h-32v0q-7 -1 -8 -8v-32v0zM224 89v32v-32v32q2 22 24 24h32v0q22 -2 24 -24v-32v0q-2 -22 -24 -24h-32v0q-22 2 -24 24v0zM248 81h32h-32h32q7 1 8 8v32v0q-1 7 -8 8h-32v0q-7 -1 -8 -8v-32v0q1 -7 8 -8
v0zM432 233q1 -36 32 -55q32 -18 64 0q31 19 32 55q-1 36 -32 55q-32 18 -64 0q-31 -19 -32 -55v0zM368 438q1 -33 23 -54v0v0q21 -22 54 -23h102v0q33 1 54 23q22 21 23 54q-2 17 -19 19h-218v0q-17 -2 -19 -19v0zM496 313q45 -1 69 -40q22 -40 0 -80q-24 -39 -69 -40
q-45 1 -69 40q-22 40 0 80q24 39 69 40v0zM445 345q-39 1 -66 27v0v0q-26 27 -27 66q0 15 10 25t25 10h218v0q15 0 25 -10t10 -25q-1 -39 -27 -66q-27 -26 -66 -27h-102v0z" />
</svg>
