<?xml version="1.0" standalone="no"?>
<!DOCTYPE svg PUBLIC "-//W3C//DTD SVG 1.1//EN" "http://www.w3.org/Graphics/SVG/1.1/DTD/svg11.dtd" >
<svg xmlns="http://www.w3.org/2000/svg" xmlns:xlink="http://www.w3.org/1999/xlink" version="1.1" viewBox="-10 -40 522 512">
   <path fill="currentColor"
d="M264 -31q-1 -7 -8 -8q-7 1 -8 8v112v0q1 7 8 8q7 -1 8 -8v-112v0zM188 153h136h-136h136q29 2 38 29l20 68v0q-7 -1 -14 -1h-224v0q-7 0 -14 1l20 -68v0q9 -27 38 -29v0zM112 255v1v-1v1q-21 9 -35 29q-13 19 -13 44v64v0v16v0v32v0q0 14 9 23t23 9h16v0q14 0 23 -9
t9 -23v-32v0h224v0v32v0q0 14 9 23t23 9h16v0q14 0 23 -9t9 -23v-32v0v-16v0v-64v0q0 -25 -13 -44q-14 -20 -35 -29v-1v0l-22 -77v0q-6 -19 -21 -30q-14 -11 -33 -11h-136v0q-19 0 -34 11q-14 11 -20 30l-22 77v0zM432 393h-48h48h-352v-64v0q1 -27 19 -45t45 -19h224v0
q27 1 45 19t19 45v64v0zM384 409h48h-48h48v32v0q-1 15 -16 16h-16v0q-15 -1 -16 -16v-32v0zM80 409h48h-48h48v32v0q-1 15 -16 16h-16v0q-15 -1 -16 -16v-32v0zM160 329q-1 15 -16 16q-15 -1 -16 -16q1 -15 16 -16q15 1 16 16v0zM144 297q-14 0 -23 9v0v0q-9 9 -9 23t9 23
t23 9t23 -9t9 -23t-9 -23t-23 -9v0zM368 345q-15 -1 -16 -16q1 -15 16 -16q15 1 16 16q-1 15 -16 16v0zM336 329q0 14 9 23v0v0q9 9 23 9t23 -9t9 -23t-9 -23t-23 -9t-23 9t-9 23v0zM34 -5q-4 6 0 12l80 80v0q6 4 12 0q4 -6 0 -12l-80 -80v0q-6 -4 -12 0v0zM466 -5l-80 80
l80 -80l-80 80q-4 6 0 12q6 4 12 0l80 -80v0q4 -6 0 -12q-6 -4 -12 0v0z" />
</svg>
