<?xml version="1.0" standalone="no"?>
<!DOCTYPE svg PUBLIC "-//W3C//DTD SVG 1.1//EN" "http://www.w3.org/Graphics/SVG/1.1/DTD/svg11.dtd" >
<svg xmlns="http://www.w3.org/2000/svg" xmlns:xlink="http://www.w3.org/1999/xlink" version="1.1" viewBox="-10 -40 586 512">
   <path fill="currentColor"
d="M224 25q-1 -27 -24 -42q-24 -12 -48 0q-23 15 -24 42q1 27 24 42q24 12 48 0q23 -15 24 -42v0zM112 25q1 -36 32 -55q32 -18 64 0q31 19 32 55q-1 36 -32 55q-32 18 -64 0q-31 -19 -32 -55v0zM97 184l-50 93l50 -93l-50 93q-4 6 -11 3q-6 -4 -3 -11l50 -93v0
q14 -26 38 -40q24 -15 53 -15h3v0q30 0 54 15q24 14 38 40l50 93v0q3 7 -3 11q-7 3 -11 -3l-50 -93v0q-12 -22 -32 -34q-21 -13 -45 -13h-3v0q-25 0 -46 13q-20 12 -32 34v0zM104 241q7 1 8 8v188v0q2 18 20 20q18 -2 20 -20v-84v0q2 -22 24 -24q22 2 24 24v84v0q2 18 20 20
q18 -2 20 -20v-188v0q1 -7 8 -8q7 1 8 8v188v0q0 15 -11 25q-10 11 -25 11t-25 -11q-11 -10 -11 -25v-84v0q-1 -7 -8 -8q-7 1 -8 8v84v0q0 15 -11 25q-10 11 -25 11t-25 -11q-11 -10 -11 -25v-188v0q1 -7 8 -8v0zM456 107q-8 -5 -8 -14v-116v0h-8h-8v116v0q0 9 -8 14t-8 14
v32v0v192v0h54h58v-16v0h-48v0q-15 -1 -16 -16v-27v0v-56v0v-13v0v-96v0q0 -9 -8 -14v0zM416 457h73h-73h73l-34 -90v0q-1 -3 -1 -6h-38v0v96v0zM472 361h-2h2h-2l6 16v0l28 74v0q3 9 -2 15q-4 7 -13 7h-73v0q-15 -1 -16 -16v-80v0v-16v0h-16v0q-14 0 -23 -9t-9 -23v-144v0
q0 -14 9 -23t23 -9h16v0v-16v0v-16v0q1 -19 16 -28v-100v0v-16v0h-8v0q-7 -1 -8 -8q1 -7 8 -8h8h32q15 1 16 16v116v0q15 9 16 28v48v0v45v0v3v0v8v0v5v0l16 -5v0v-56v0q1 -15 16 -16h16v0q15 1 16 16v85v0q-1 11 -11 15l-53 17v0v11v0v16v0h16h32q15 1 16 16v16v0
q-1 15 -16 16h-41h-15zM480 270l48 -16l-48 16l48 -16v-85v0h-16v0v56v0q-1 11 -11 15l-16 6v0h-5v23v1zM384 169q-15 1 -16 16v144v0q1 15 16 16h16v0v-176v0h-16v0z" />
</svg>
