<?xml version="1.0" standalone="no"?>
<!DOCTYPE svg PUBLIC "-//W3C//DTD SVG 1.1//EN" "http://www.w3.org/Graphics/SVG/1.1/DTD/svg11.dtd" >
<svg xmlns="http://www.w3.org/2000/svg" xmlns:xlink="http://www.w3.org/1999/xlink" version="1.1" viewBox="-10 -40 522 512">
   <path fill="currentColor"
d="M464 41q-1 -36 -32 -55q-32 -18 -64 0q-31 19 -32 55q1 36 32 55q32 18 64 0q31 -19 32 -55v0zM480 41q-1 34 -23 57v0v0q-23 22 -57 23h-6l-36 195v0q26 8 42 28q16 21 16 49q-1 34 -23 57q-23 22 -57 23q-34 -1 -57 -23q-22 -23 -23 -57q0 -26 15 -46l-136 -120v0
q-23 21 -55 22q-34 -1 -57 -23q-22 -23 -23 -57q1 -34 23 -57q23 -22 57 -23q23 0 42 12t29 31l172 -69v0q-3 -11 -3 -22q1 -34 23 -57q23 -22 57 -23q34 1 57 23q22 23 23 57v0zM329 78l-172 69l172 -69l-172 69q3 10 3 22q0 26 -15 46l136 120v0q23 -21 55 -22h6l36 -195
v0q-33 -10 -49 -40v0zM400 393q-1 -36 -32 -55q-32 -18 -64 0q-31 19 -32 55q1 36 32 55q32 18 64 0q31 -19 32 -55v0zM80 233q36 -1 55 -32q18 -32 0 -64q-19 -31 -55 -32q-36 1 -55 32q-18 32 0 64q19 31 55 32v0z" />
</svg>
