<?xml version="1.0" standalone="no"?>
<!DOCTYPE svg PUBLIC "-//W3C//DTD SVG 1.1//EN" "http://www.w3.org/Graphics/SVG/1.1/DTD/svg11.dtd" >
<svg xmlns="http://www.w3.org/2000/svg" xmlns:xlink="http://www.w3.org/1999/xlink" version="1.1" viewBox="-10 -40 660 512">
   <path fill="currentColor"
d="M64 41h384h-384h384q20 1 34 14q13 14 14 34v32v0q8 0 16 1v-33v0q-1 -27 -19 -45t-45 -19h-384v0q-27 1 -45 19t-19 45v256v0q1 27 19 45t45 19h296v0l-12 -16h-284v0q-20 -1 -34 -14q-13 -14 -14 -34v-207v0l195 157v0q20 16 45 16t45 -16l20 -16v0q1 -12 4 -24l-34 27
v0q-16 13 -35 13t-35 -13l-205 -165v0v-28v0q1 -20 14 -34q14 -13 34 -14v0zM496 169q35 0 64 17v0v0q29 17 47 47q17 30 17 64t-17 64q-18 30 -47 47t-64 17t-64 -17t-47 -47q-17 -30 -17 -64t17 -64q18 -30 47 -47t64 -17v0zM496 441q39 0 72 -19v0v0q33 -19 53 -53
q19 -34 19 -72t-19 -72q-20 -34 -53 -53t-72 -19t-72 19t-53 53q-19 34 -19 72t19 72q20 34 53 53t72 19v0zM566 251q-6 -4 -12 0l-74 75v0l-42 -43v0q-6 -4 -12 0q-4 6 0 12l48 48v0q6 4 12 0l80 -80v0q4 -6 0 -12v0z" />
</svg>
