<?xml version="1.0" standalone="no"?>
<!DOCTYPE svg PUBLIC "-//W3C//DTD SVG 1.1//EN" "http://www.w3.org/Graphics/SVG/1.1/DTD/svg11.dtd" >
<svg xmlns="http://www.w3.org/2000/svg" xmlns:xlink="http://www.w3.org/1999/xlink" version="1.1" viewBox="-10 -40 596 512">
   <path fill="currentColor"
d="M64 457h247h-247h247q9 8 19 15q-5 1 -10 1h-256v0q-27 -1 -45 -19t-19 -45v-384v0q1 -27 19 -45t45 -19h140v0q20 0 34 14l132 132v0q14 14 14 34v18v0l-16 6v-24v0v-4v0h-120v0q-17 0 -28 -12q-12 -11 -12 -28v-120v0h-4v0h-140v0q-20 1 -34 14q-13 14 -14 34v384v0
q1 20 14 34q14 13 34 14v0zM361 121q-1 -1 -2 -3l-132 -132v0q-2 -1 -3 -2v113v0q2 22 24 24h113v0zM432 457q35 0 64 -17v0v0q29 -17 47 -47q17 -30 17 -64t-17 -64q-18 -30 -47 -47t-64 -17t-64 17t-47 47q-17 30 -17 64t17 64q18 30 47 47t64 17v0zM432 185q39 0 72 19v0
v0q33 19 53 53q19 34 19 72t-19 72q-20 34 -53 53t-72 19t-72 -19t-53 -53q-19 -34 -19 -72t19 -72q20 -34 53 -53t72 -19v0zM512 329q-1 7 -8 8h-144v0q-7 -1 -8 -8q1 -7 8 -8h144v0q7 1 8 8v0z" />
</svg>
