<?xml version="1.0" standalone="no"?>
<!DOCTYPE svg PUBLIC "-//W3C//DTD SVG 1.1//EN" "http://www.w3.org/Graphics/SVG/1.1/DTD/svg11.dtd" >
<svg xmlns="http://www.w3.org/2000/svg" xmlns:xlink="http://www.w3.org/1999/xlink" version="1.1" viewBox="-10 -40 596 512">
   <path fill="currentColor"
d="M64 457h247h-247h247q9 8 19 15q-5 1 -10 1h-256v0q-27 -1 -45 -19t-19 -45v-384v0q1 -27 19 -45t45 -19h140v0q20 0 34 14l132 132v0q14 14 14 34v18v0l-16 6v-24v0v-4v0h-120v0q-17 0 -28 -12q-12 -11 -12 -28v-120v0h-4v0h-140v0q-20 1 -34 14q-13 14 -14 34v384v0
q1 20 14 34q14 13 34 14v0zM361 121q-1 -1 -2 -3l-132 -132v0q-2 -1 -3 -2v113v0q2 22 24 24h113v0zM560 329q0 -35 -17 -64v0v0q-17 -29 -47 -47q-30 -17 -64 -17t-64 17q-30 18 -47 47t-17 64t17 64t47 47q30 17 64 17t64 -17q30 -18 47 -47t17 -64v0zM288 329
q0 -39 19 -72v0v0q19 -33 53 -53q34 -19 72 -19t72 19q34 20 53 53t19 72t-19 72t-53 53q-34 19 -72 19t-72 -19q-34 -20 -53 -53t-19 -72v0zM432 377q15 1 16 16q-1 15 -16 16q-15 -1 -16 -16q1 -15 16 -16v0zM368 287q0 -16 11 -27v0v0q11 -11 27 -11h48v0q18 0 30 12
t12 30v8v0h-1v0q-4 21 -24 30l-31 14v0v10v0q-1 7 -8 8q-7 -1 -8 -8v-15v0q0 -5 5 -7l36 -16v0q14 -8 15 -24q-2 -24 -26 -26h-48v0q-20 2 -22 22v2v0q-1 7 -8 8q-7 -1 -8 -8v-2v0z" />
</svg>
