<?xml version="1.0" standalone="no"?>
<!DOCTYPE svg PUBLIC "-//W3C//DTD SVG 1.1//EN" "http://www.w3.org/Graphics/SVG/1.1/DTD/svg11.dtd" >
<svg xmlns="http://www.w3.org/2000/svg" xmlns:xlink="http://www.w3.org/1999/xlink" version="1.1" viewBox="-10 -40 596 512">
   <path fill="currentColor"
d="M243 94q-28 13 -51 30q-22 17 -39 35q-9 8 -20 3l-93 -55v0q-10 -5 -19 3q-8 8 -3 19l46 80v0q4 8 0 16l-46 80v0q-5 11 3 19q9 8 19 3l93 -54v0q11 -6 20 2q17 18 39 35q23 18 54 32q11 6 9 18l-15 55v0q-1 5 4 9q5 2 9 -1l74 -58v0q4 -4 10 -4q43 -1 79 -15
q36 -15 65 -36q28 -22 47 -44q20 -23 30 -41q4 -8 0 -16q-10 -18 -30 -41q-19 -22 -47 -44q-29 -21 -65 -36q-36 -14 -79 -15q-6 0 -10 -4l-74 -58v0q-4 -3 -9 -1q-5 3 -4 9l12 57v0q2 12 -9 18v0zM263 436q-14 9 -28 1q-14 -10 -10 -26l14 -55v0q-32 -14 -57 -33
q-23 -18 -41 -37l-93 55v0q-21 10 -38 -5q-16 -18 -6 -39l46 -80v0l-46 -80v0q-10 -21 6 -39q17 -15 38 -5l93 55v0q18 -19 41 -37q24 -18 55 -32l-12 -57v0q-3 -16 10 -25q15 -8 28 1l73 59v0q47 1 86 16q38 16 68 38q29 23 50 47t32 43q8 16 0 32q-11 19 -32 43t-50 47
q-30 22 -68 38q-39 15 -86 16l-73 59v0zM416 185q14 0 23 9v0v0q9 9 9 23t-9 23t-23 9t-23 -9t-9 -23t9 -23t23 -9v0zM432 217q-1 -15 -16 -16q-15 1 -16 16q1 15 16 16q15 -1 16 -16v0z" />
</svg>
