<?xml version="1.0" standalone="no"?>
<!DOCTYPE svg PUBLIC "-//W3C//DTD SVG 1.1//EN" "http://www.w3.org/Graphics/SVG/1.1/DTD/svg11.dtd" >
<svg xmlns="http://www.w3.org/2000/svg" xmlns:xlink="http://www.w3.org/1999/xlink" version="1.1" viewBox="-11 0 406 512">
   <path fill="currentColor"
d="M16 -6q1 -15 16 -17h320v0q16 2 16 17l-9 115v0l-38 17v0q-40 16 -75 -8q-25 -17 -54 -17t-53 17q-36 24 -76 8l-38 -17v0l-9 -115v0zM27 127l30 13l-30 -13l30 13q22 10 46 8q25 -2 45 -17q20 -14 44 -14t44 14q20 15 44 17q25 2 47 -8l30 -13v0l-24 293v0q-1 16 -13 26
q-11 11 -27 11h-202v0q-16 0 -27 -11q-12 -10 -13 -26l-24 -293v0zM32 -39q-14 0 -23 10v0v0q-10 10 -9 25l35 426v0q2 22 18 36q15 15 38 15h202v0q23 0 38 -15q16 -14 18 -36l35 -426v0q1 -15 -8 -25q-10 -10 -24 -10h-320v0z" />
</svg>
