<?xml version="1.0" standalone="no"?>
<!DOCTYPE svg PUBLIC "-//W3C//DTD SVG 1.1//EN" "http://www.w3.org/Graphics/SVG/1.1/DTD/svg11.dtd" >
<svg xmlns="http://www.w3.org/2000/svg" xmlns:xlink="http://www.w3.org/1999/xlink" version="1.1" viewBox="-10 -40 660 512">
   <path fill="currentColor"
d="M375 113q-8 -7 -18 -2q-9 6 -8 16l11 89v0q0 7 -7 9q-7 0 -9 -7l-4 -35v0q-3 -13 -16 -14h-8v0q-13 1 -16 14l-4 35v0q-2 7 -9 7q-7 -2 -7 -9l11 -89v0q1 -10 -8 -16q-10 -5 -18 2l-20 17v0q-6 4 -11 -1q-4 -6 1 -12l41 -35v0q11 -9 26 -9h36v0q14 0 25 9l42 35v0
q5 6 1 12q-5 5 -11 1l-20 -17v0zM360 1q-1 -23 -20 -35q-20 -10 -40 0q-19 12 -20 35q1 23 20 35q20 10 40 0q19 -12 20 -35v0zM385 142q18 13 33 -3q13 -18 -2 -34l-42 -35v0q-16 -13 -36 -13h-18h-18q-20 0 -36 13l-41 35v0q-16 16 -3 34q15 16 34 3l1 -2v0l18 -15v0
l-3 24v0l-8 65v0q0 22 21 27q22 0 27 -21v-1v0l4 -33v0v-1v0h8v0v1v0l4 33v0v1v0q5 22 27 21q21 -5 21 -27l-9 -65v0l-2 -24v0l18 15v0l1 2h1zM296 1q2 -22 24 -24q22 2 24 24q-2 22 -24 24q-22 -2 -24 -24v0zM96 73q-1 -20 -14 -34v0v0q-14 -13 -34 -14q-20 1 -34 14
q-13 14 -14 34v232v0q1 43 31 74l91 92v0q6 4 12 0q4 -6 0 -12l-92 -91v0q-25 -26 -26 -63v-232v0q0 -14 9 -23t23 -9t23 9t9 23v147v0q0 32 23 55l19 20v0l56 56v0v0v0l8 8v0q6 4 12 0q4 -6 0 -12l-8 -8v0v0v0l-56 -56v0v0v0q-16 -18 -2 -39q9 -9 21 -10q12 0 21 9l93 92v0
q21 21 21 51v79v0q1 7 8 8q7 -1 8 -8v-79v0q-1 -36 -25 -62l-93 -93v0q-15 -13 -34 -13q-18 1 -32 16q-9 11 -10 25q-14 -17 -14 -39v-147v0zM592 25q-20 1 -34 14v0v0q-13 14 -14 34v147v0q0 22 -13 39q-2 -14 -11 -25q-14 -15 -32 -16q-19 0 -34 14l-92 92v0
q-25 26 -26 62v79v0q1 7 8 8q7 -1 8 -8v-79v0q1 -30 21 -50l93 -93v0q9 -9 21 -9q12 1 21 10q14 20 -2 40v0v0l-55 55v0v0v0l-8 8v0q-5 6 0 12q5 4 11 0l8 -8v0l56 -56v0l19 -20v0q23 -23 23 -55v-147v0q0 -14 9 -23t23 -9t23 9t9 23v232v0q-1 36 -26 62l-92 92v0q-4 6 0 12
q6 4 12 0l92 -92v0q29 -31 30 -74v-232v0q-1 -20 -14 -34q-14 -13 -34 -14v0z" />
</svg>
