<?xml version="1.0" standalone="no"?>
<!DOCTYPE svg PUBLIC "-//W3C//DTD SVG 1.1//EN" "http://www.w3.org/Graphics/SVG/1.1/DTD/svg11.dtd" >
<svg xmlns="http://www.w3.org/2000/svg" xmlns:xlink="http://www.w3.org/1999/xlink" version="1.1" viewBox="-10 -40 586 512">
   <path fill="currentColor"
d="M192 1q23 1 39 16q5 4 11 1q19 -16 46 -17q30 1 50 21q21 20 21 51q0 10 -2 19q-1 7 5 10q20 8 32 26q13 18 13 41q0 25 -14 43q-4 6 2 11q6 4 11 -1q17 -23 17 -53q0 -26 -13 -47q-14 -21 -36 -32q1 -8 1 -17q-1 -37 -25 -62q-25 -25 -62 -26q-29 0 -51 16
q-19 -16 -45 -16q-31 1 -51 21t-21 50q0 4 2 7l309 309v0q21 20 49 21q27 1 49 -17l5 -4v0q22 -21 22 -50q1 -29 -22 -51q-17 -15 -39 -17q-21 -2 -41 10l-3 2v0q-6 5 -3 11q5 6 11 3l3 -2v0q15 -9 32 -8q17 2 30 13q17 17 17 39q-1 22 -18 38l-4 3v0q-17 15 -39 14
q-21 0 -38 -16l-306 -307v0q2 -23 17 -38q16 -14 39 -15v0zM447 9q15 1 16 16q-1 15 -16 16q-14 -1 -16 -16q2 -15 16 -16v0zM447 57q14 0 23 -9v0v0q9 -9 9 -23t-9 -23t-23 -9q-13 0 -22 9t-10 23q1 14 10 23t22 9v0zM479 105q15 1 16 16q-1 15 -16 16q-15 -1 -16 -16
q1 -15 16 -16v0zM479 153q14 0 23 -9v0v0q9 -9 9 -23t-9 -23t-23 -9q-13 0 -23 9q-9 9 -9 23t9 23q10 9 23 9v0zM16 64q0 -6 5 -8v0v0q4 -2 9 2l385 385v0q4 4 2 9t-8 5h-353v0q-17 0 -28 -12q-12 -11 -12 -28v-353v0zM41 47q-12 -11 -26 -6v0v0q-14 6 -15 23v353v0
q1 24 16 40q16 15 40 16h353v0q17 -1 23 -15q5 -14 -6 -26l-385 -385v0z" />
</svg>
