<?xml version="1.0" standalone="no"?>
<!DOCTYPE svg PUBLIC "-//W3C//DTD SVG 1.1//EN" "http://www.w3.org/Graphics/SVG/1.1/DTD/svg11.dtd" >
<svg xmlns="http://www.w3.org/2000/svg" xmlns:xlink="http://www.w3.org/1999/xlink" version="1.1" viewBox="-10 -40 660 512">
   <path fill="currentColor"
d="M283 -37q5 -4 10 0l215 190v0h-12h-12l-196 -173v0l-208 184v0v245v0q1 20 14 34q14 13 34 14h80v0v-168v0q2 -22 24 -24h100v0q-3 8 -5 16h-71h-24q-7 1 -8 8v168v0h32h119q9 9 20 16h-267v0q-27 -1 -45 -19t-19 -45v-231v0l-51 45v0q-6 4 -11 -1q-4 -6 1 -11l280 -248
v0zM496 457q35 0 64 -17v0v0q29 -17 47 -47q17 -30 17 -64t-17 -64q-18 -30 -47 -47t-64 -17t-64 17t-47 47q-17 30 -17 64t17 64q18 30 47 47t64 17v0zM496 185q39 0 72 19v0v0q33 19 53 53q19 34 19 72t-19 72q-20 34 -53 53t-72 19t-72 -19t-53 -53q-19 -34 -19 -72
t19 -72q20 -34 53 -53t72 -19v0zM554 283q6 -4 12 0q4 6 0 12l-80 80v0q-6 4 -12 0l-48 -48v0q-4 -6 0 -12q6 -4 12 0l42 43v0l74 -75v0z" />
</svg>
