<?xml version="1.0" standalone="no"?>
<!DOCTYPE svg PUBLIC "-//W3C//DTD SVG 1.1//EN" "http://www.w3.org/Graphics/SVG/1.1/DTD/svg11.dtd" >
<svg xmlns="http://www.w3.org/2000/svg" xmlns:xlink="http://www.w3.org/1999/xlink" version="1.1" viewBox="-10 -40 660 512">
   <path fill="currentColor"
d="M283 -37q5 -4 10 0l215 190v0h-12h-12l-196 -173v0l-208 184v0v245v0q1 20 14 34q14 13 34 14h80v0v-168v0q2 -22 24 -24h100v0q-3 8 -5 16h-71h-24q-7 1 -8 8v168v0h32h119q9 9 20 16h-267v0q-27 -1 -45 -19t-19 -45v-231v0l-51 45v0q-6 4 -11 -1q-4 -6 1 -11l280 -248
v0zM624 329q0 -35 -17 -64v0v0q-17 -29 -47 -47q-30 -17 -64 -17t-64 17q-30 18 -47 47t-17 64t17 64t47 47q30 17 64 17t64 -17q30 -18 47 -47t17 -64v0zM352 329q0 -39 19 -72v0v0q19 -33 53 -53q34 -19 72 -19t72 19q34 20 53 53t19 72t-19 72t-53 53q-34 19 -72 19
t-72 -19q-34 -20 -53 -53t-19 -72v0zM496 377q15 1 16 16q-1 15 -16 16q-15 -1 -16 -16q1 -15 16 -16v0zM496 241q7 1 8 8v96v0q-1 7 -8 8q-7 -1 -8 -8v-96v0q1 -7 8 -8v0z" />
</svg>
