<?xml version="1.0" standalone="no"?>
<!DOCTYPE svg PUBLIC "-//W3C//DTD SVG 1.1//EN" "http://www.w3.org/Graphics/SVG/1.1/DTD/svg11.dtd" >
<svg xmlns="http://www.w3.org/2000/svg" xmlns:xlink="http://www.w3.org/1999/xlink" version="1.1" viewBox="-10 -40 650 512">
   <path fill="currentColor"
d="M305 34q-3 -7 -7 -14l81 -57v0q5 -3 10 0l216 152v0q5 4 2 11q-5 5 -12 2l-35 -25v0v135v0q-4 -3 -7 -5q-4 -4 -9 -7v-135v0l-160 -112v0l-79 55v0zM327 284q12 17 27 31q13 12 29 21t33 9t33 -9t29 -21q15 -14 27 -31q3 -3 7 -3t7 3q11 16 25 29q24 25 57 32q7 1 7 8
q-2 8 -9 7q-20 -3 -37 -13q-17 -11 -29 -23q-14 -13 -21 -22q-8 10 -23 25q-14 13 -33 23q-18 10 -40 11q-22 -1 -40 -11q-19 -10 -33 -23q-15 -15 -23 -25v0v0v0v0q-8 10 -23 25q-14 13 -33 23q-18 10 -40 11q-22 -1 -40 -11q-19 -10 -33 -23q-15 -15 -23 -25q-7 9 -21 22
q-12 12 -29 23q-17 10 -37 13q-7 1 -9 -6q0 -8 7 -9q33 -7 57 -32q14 -13 25 -29q3 -3 7 -3t7 3q12 17 27 31q13 12 29 21t33 9t33 -9t29 -21q15 -14 27 -31q7 -6 14 0v0zM354 427q13 12 29 21v0v0q16 9 33 9t33 -9t29 -21q15 -14 27 -31q3 -3 7 -3t7 3q11 16 25 29
q24 25 57 32q7 1 7 8q-2 8 -9 7q-20 -3 -37 -13q-17 -11 -29 -23q-14 -13 -21 -22q-8 10 -23 25q-14 13 -33 23q-18 10 -40 11q-22 -1 -40 -11q-19 -10 -33 -23q-15 -15 -23 -25v0v0v0v0q-8 10 -23 25q-14 13 -33 23q-18 10 -40 11q-22 -1 -40 -11q-19 -10 -33 -23
q-15 -15 -23 -25q-7 9 -21 22q-12 12 -29 23q-17 10 -37 13q-7 1 -9 -6q0 -8 7 -9q33 -7 57 -32q14 -13 25 -29q3 -3 7 -3t7 3q12 17 27 31q13 12 29 21t33 9t33 -9t29 -21q15 -14 27 -31q7 -6 14 0q12 17 27 31v0zM144 233q35 0 64 -17v0v0q29 -17 47 -47q17 -30 17 -64
t-17 -64q-18 -30 -47 -47t-64 -17t-64 17t-47 47q-17 30 -17 64t17 64q18 30 47 47t64 17v0zM144 -39q39 0 72 19v0v0q33 19 53 53q19 34 19 72t-19 72q-20 34 -53 53t-72 19t-72 -19t-53 -53q-19 -34 -19 -72t19 -72q20 -34 53 -53t72 -19v0zM146 35q6 -4 12 0l64 64v0
q4 6 0 12l-64 64v0q-6 4 -12 0q-4 -6 0 -12l51 -50v0h-125v0q-7 -1 -8 -8q1 -7 8 -8h125v0l-51 -50v0q-4 -6 0 -12v0z" />
</svg>
