<?xml version="1.0" standalone="no"?>
<!DOCTYPE svg PUBLIC "-//W3C//DTD SVG 1.1//EN" "http://www.w3.org/Graphics/SVG/1.1/DTD/svg11.dtd" >
<svg xmlns="http://www.w3.org/2000/svg" xmlns:xlink="http://www.w3.org/1999/xlink" version="1.1" viewBox="-10 -40 660 512">
   <path fill="currentColor"
d="M293 -37q-5 -4 -10 0l-280 248v0q-5 5 -1 11q5 5 11 1l51 -45v0v231v0q1 27 19 45t45 19h265v0q-5 -7 -7 -16h-18v0v-168v0q-2 -22 -24 -24h-112v0q-22 2 -24 24v168v0h-80v0q-20 -1 -34 -14q-13 -14 -14 -34v-245v0l208 -184v0l182 161v0q6 -5 14 -9l-191 -169v0z
M224 457v-168v168v-168q1 -7 8 -8h112v0q7 1 8 8v168v0h-128v0zM528 169q20 1 34 14v0v0q13 14 14 34v64v0h-96v0v-64v0q1 -20 14 -34q14 -13 34 -14v0zM464 217v64v-64v64h-16v0q-14 0 -23 9t-9 23v128v0q0 14 9 23t23 9h160v0q14 0 23 -9t9 -23v-128v0q0 -14 -9 -23
t-23 -9h-16v0v-64v0q-1 -27 -19 -45t-45 -19q-27 1 -45 19t-19 45v0zM448 297h16h-16h160q15 1 16 16v128v0q-1 15 -16 16h-160v0q-15 -1 -16 -16v-128v0q1 -15 16 -16v0z" />
</svg>
