<?xml version="1.0" standalone="no"?>
<!DOCTYPE svg PUBLIC "-//W3C//DTD SVG 1.1//EN" "http://www.w3.org/Graphics/SVG/1.1/DTD/svg11.dtd" >
<svg xmlns="http://www.w3.org/2000/svg" xmlns:xlink="http://www.w3.org/1999/xlink" version="1.1" viewBox="-10 -40 340 512">
   <path fill="currentColor"
d="M240 -23q15 1 16 16v32v0h-192v0v-32v0q1 -15 16 -16h160v0zM48 25v2v-2v2q-21 6 -34 22q-14 17 -14 40v320v0q1 27 19 45t45 19h192v0q27 -1 45 -19t19 -45v-320v0q0 -23 -14 -40q-13 -16 -34 -22v-2v0v-32v0q0 -14 -9 -23t-23 -9h-160v0q-14 0 -23 9t-9 23v32v0zM64 41
h192h-192h192q20 1 34 14q13 14 14 34v320v0q-1 20 -14 34q-14 13 -34 14h-192v0q-20 -1 -34 -14q-13 -14 -14 -34v-320v0q1 -20 14 -34q14 -13 34 -14v0zM192 169h-24h24h-24q1 -27 19 -45t45 -19h24v0q-1 27 -19 45t-45 19v0zM160 134q-10 -20 -29 -32v0v0
q-19 -13 -43 -13h-24v0q-15 1 -16 16q1 34 23 57q23 22 57 23h24h40q34 -1 57 -23q22 -23 23 -57q-1 -15 -16 -16h-24v0q-24 0 -43 13q-19 12 -29 32v0zM152 169h-24h24h-24q-27 -1 -45 -19t-19 -45h24v0q27 1 45 19t19 45v0zM168 273q1 -27 19 -45v0v0q18 -18 45 -19h24v0
q-1 27 -19 45t-45 19h-24v0zM88 193h-24h24h-24q-15 1 -16 16q1 34 23 57q23 22 57 23h24h40q34 -1 57 -23q22 -23 23 -57q-1 -15 -16 -16h-24v0q-24 0 -43 13q-19 12 -29 32q-10 -20 -29 -32q-19 -13 -43 -13v0zM128 273q-27 -1 -45 -19v0v0q-18 -18 -19 -45h24v0
q27 1 45 19t19 45h-24v0zM192 377h-24h24h-24q1 -27 19 -45t45 -19h24v0q-1 27 -19 45t-45 19v0zM168 393h24h-24h24q34 -1 57 -23q22 -23 23 -57q-1 -15 -16 -16h-24v0q-24 0 -43 13q-19 12 -29 32q-10 -20 -29 -32q-19 -13 -43 -13h-24v0q-15 1 -16 16q1 34 23 57
q23 22 57 23h24v0v24v0q1 7 8 8q7 -1 8 -8v-24v0zM88 313q27 1 45 19v0v0q18 18 19 45h-24v0q-27 -1 -45 -19t-19 -45h24v0z" />
</svg>
