<?xml version="1.0" standalone="no"?>
<!DOCTYPE svg PUBLIC "-//W3C//DTD SVG 1.1//EN" "http://www.w3.org/Graphics/SVG/1.1/DTD/svg11.dtd" >
<svg xmlns="http://www.w3.org/2000/svg" xmlns:xlink="http://www.w3.org/1999/xlink" version="1.1" viewBox="-10 -40 532 512">
   <path fill="currentColor"
d="M352 -23v64v-64v64h-96v0v-40v0v-24v0h96v0zM256 57h96h-96h96q15 -1 16 -16v-64v0q-1 -15 -16 -16h-96v0q-15 1 -16 16v40v0v24v0v16v0v48v0h-200v0q-7 1 -8 8q1 7 8 8h432v0q7 -1 8 -8q-1 -7 -8 -8h-216v0v-48v0zM80 161q-1 -7 -8 -8q-7 1 -8 8v176v0q1 7 8 8h368v0
q7 -1 8 -8v-176v0q-1 -7 -8 -8q-7 1 -8 8v168v0h-104v0v-168v0q-1 -7 -8 -8q-7 1 -8 8v168v0h-112v0v-168v0q-1 -7 -8 -8q-7 1 -8 8v168v0h-104v0v-168v0zM40 393q-7 1 -8 8q1 7 8 8h432v0q7 -1 8 -8q-1 -7 -8 -8h-432v0zM8 457q-7 1 -8 8q1 7 8 8h496v0q7 -1 8 -8
q-1 -7 -8 -8h-496v0z" />
</svg>
