<?xml version="1.0" standalone="no"?>
<!DOCTYPE svg PUBLIC "-//W3C//DTD SVG 1.1//EN" "http://www.w3.org/Graphics/SVG/1.1/DTD/svg11.dtd" >
<svg xmlns="http://www.w3.org/2000/svg" xmlns:xlink="http://www.w3.org/1999/xlink" version="1.1" viewBox="-10 -40 404 512">
   <path fill="currentColor"
d="M376 -7q-7 1 -8 8v432v0q1 7 8 8q7 -1 8 -8v-432v0q-1 -7 -8 -8v0zM282 -7q-7 -1 -10 6l-112 432v0q-1 7 6 10q7 1 10 -6l112 -432v0q1 -7 -6 -10v0zM176 4q1 -7 -5 -10q-7 -2 -10 4l-160 432v0q-2 7 4 11q7 1 11 -5l160 -432v0z" />
</svg>
