<?xml version="1.0" standalone="no"?>
<!DOCTYPE svg PUBLIC "-//W3C//DTD SVG 1.1//EN" "http://www.w3.org/Graphics/SVG/1.1/DTD/svg11.dtd" >
<svg xmlns="http://www.w3.org/2000/svg" xmlns:xlink="http://www.w3.org/1999/xlink" version="1.1" viewBox="-10 -40 660 512">
   <path fill="currentColor"
d="M198 99q26 -41 57 -65v0v0q31 -24 65 -25q33 1 65 25q31 24 57 65q25 41 40 84q14 44 14 79q-1 49 -27 87q-27 39 -72 59q26 -28 27 -70q0 -22 -8 -47q-8 -26 -21 -49q-14 -24 -33 -40q-18 -16 -42 -17q-24 1 -42 17q-19 16 -33 40q-13 23 -21 49t-8 47q1 42 27 71
q-45 -21 -72 -60q-26 -39 -27 -87q0 -35 14 -79q14 -43 40 -84v0zM272 413q-38 -26 -40 -75q0 -19 7 -43q7 -23 20 -45t29 -36q16 -13 32 -13t32 13q16 14 29 36t20 45q7 24 7 43q-2 49 -40 75v22v0q43 -10 76 -36t51 -64l69 -19v0q34 -10 55 -37t21 -63v-87v0
q0 -17 -12 -28q-11 -12 -28 -12h-144v0h-1q-27 -41 -61 -68q-35 -27 -74 -28q-40 1 -74 28q-35 26 -61 68h-1h-144v0q-17 0 -28 12q-12 11 -12 28v87v0q1 36 21 63q21 27 55 37l69 19v0q18 37 51 64q33 26 76 36v-22v0zM560 301l-57 16l57 -16l-57 16q9 -26 9 -55
q0 -35 -13 -76q-12 -42 -35 -81h136v0q22 2 24 24v87v0q0 30 -18 53q-17 23 -46 32v0zM128 262q0 29 9 55l-57 -16v0q-29 -9 -46 -32q-18 -23 -18 -53v-87v0q2 -22 24 -24h135v0q-22 40 -34 81q-13 41 -13 76v0zM304 305q1 -15 16 -16q15 1 16 16v160v0q1 7 8 8q7 -1 8 -8
v-160v0q0 -14 -9 -23t-23 -9t-23 9t-9 23v160v0q1 7 8 8q7 -1 8 -8v-160v0z" />
</svg>
