<?xml version="1.0" standalone="no"?>
<!DOCTYPE svg PUBLIC "-//W3C//DTD SVG 1.1//EN" "http://www.w3.org/Graphics/SVG/1.1/DTD/svg11.dtd" >
<svg xmlns="http://www.w3.org/2000/svg" xmlns:xlink="http://www.w3.org/1999/xlink" version="1.1" viewBox="-10 -40 330 512">
   <path fill="currentColor"
d="M240 -23q20 1 34 14v0v0q13 14 14 34v384v0q-1 20 -14 34q-14 13 -34 14h-160v0q-20 -1 -34 -14q-13 -14 -14 -34v-384v0q1 -20 14 -34q14 -13 34 -14h160v0zM80 -39q-27 1 -45 19v0v0q-18 18 -19 45v384v0q1 27 19 45t45 19h160v0q27 -1 45 -19t19 -45v-384v0
q-1 -27 -19 -45t-45 -19h-160v0zM224 105q15 1 16 16v64v0q-1 15 -16 16h-128v0q-15 -1 -16 -16v-64v0q1 -15 16 -16h128v0zM96 89q-14 0 -23 9v0v0q-9 9 -9 23v64v0q0 14 9 23t23 9h128v0q14 0 23 -9t9 -23v-64v0q0 -14 -9 -23t-23 -9h-128v0zM72 289q1 -7 8 -8q7 1 8 8
q-1 7 -8 8q-7 -1 -8 -8v0zM104 289q-2 -22 -24 -24q-22 2 -24 24q2 22 24 24q22 -2 24 -24v0zM80 361q7 1 8 8q-1 7 -8 8q-7 -1 -8 -8q1 -7 8 -8v0zM80 393q22 -2 24 -24q-2 -22 -24 -24q-22 2 -24 24q2 22 24 24v0zM152 289q1 -7 8 -8q7 1 8 8q-1 7 -8 8q-7 -1 -8 -8v0z
M184 289q-2 -22 -24 -24q-22 2 -24 24q2 22 24 24q22 -2 24 -24v0zM160 361q7 1 8 8q-1 7 -8 8q-7 -1 -8 -8q1 -7 8 -8v0zM160 393q22 -2 24 -24q-2 -22 -24 -24q-22 2 -24 24q2 22 24 24v0zM232 289q1 -7 8 -8q7 1 8 8q-1 7 -8 8q-7 -1 -8 -8v0zM264 289q-2 -22 -24 -24
q-22 2 -24 24q2 22 24 24q22 -2 24 -24v0zM240 361q7 1 8 8q-1 7 -8 8q-7 -1 -8 -8q1 -7 8 -8v0zM240 393q22 -2 24 -24q-2 -22 -24 -24q-22 2 -24 24q2 22 24 24v0zM104 25q-7 1 -8 8q1 7 8 8h112v0q7 -1 8 -8q-1 -7 -8 -8h-112v0z" />
</svg>
