<?xml version="1.0" standalone="no"?>
<!DOCTYPE svg PUBLIC "-//W3C//DTD SVG 1.1//EN" "http://www.w3.org/Graphics/SVG/1.1/DTD/svg11.dtd" >
<svg xmlns="http://www.w3.org/2000/svg" xmlns:xlink="http://www.w3.org/1999/xlink" version="1.1" viewBox="-10 -40 532 512">
   <path fill="currentColor"
d="M352 -31q1 7 8 8h93v0l-165 165v0l-107 -91v0q-5 -4 -10 0l-128 112v0q-5 5 -1 11q5 5 11 1l123 -107v0l107 91v0q5 4 11 0l170 -171v0v93v0q1 7 8 8q7 -1 8 -8v-112v0q-1 -7 -8 -8h-112v0q-7 1 -8 8v0zM464 233q14 0 23 9v0v0q9 9 9 23v24v0q-24 -1 -40 -16
q-15 -16 -16 -40h24v0zM88 233h336h-336h336q1 31 21 51t51 21v80v0q-31 1 -51 21t-21 51h-336v0q-1 -31 -21 -51t-51 -21v-80v0q31 -1 51 -21t21 -51v0zM440 457q1 -24 16 -40v0v0q16 -15 40 -16v24v0q0 14 -9 23t-23 9h-24v0zM16 401q24 1 40 16v0v0q15 16 16 40h-24v0
q-14 0 -23 -9t-9 -23v-24v0zM72 233q-1 24 -16 40v0v0q-16 15 -40 16v-24v0q0 -14 9 -23t23 -9h24v0zM48 217q-20 1 -34 14v0v0q-13 14 -14 34v160v0q1 20 14 34q14 13 34 14h416v0q20 -1 34 -14q13 -14 14 -34v-160v0q-1 -20 -14 -34q-14 -13 -34 -14h-416v0zM208 345
q1 -27 24 -42q24 -12 48 0q23 15 24 42q-1 27 -24 42q-24 12 -48 0q-23 -15 -24 -42v0zM320 345q-1 -36 -32 -55q-32 -18 -64 0q-31 19 -32 55q1 36 32 55q32 18 64 0q31 -19 32 -55v0z" />
</svg>
