<?xml version="1.0" standalone="no"?>
<!DOCTYPE svg PUBLIC "-//W3C//DTD SVG 1.1//EN" "http://www.w3.org/Graphics/SVG/1.1/DTD/svg11.dtd" >
<svg xmlns="http://www.w3.org/2000/svg" xmlns:xlink="http://www.w3.org/1999/xlink" version="1.1" viewBox="-10 -40 532 512">
   <path fill="currentColor"
d="M218 -7q-17 -15 -42 -16q1 27 19 45t45 19q-1 -30 -22 -48v0zM330 -7q-17 -15 -42 -16q1 27 19 45t45 19q-1 -30 -22 -48v0zM442 -7q-17 -15 -42 -16q1 27 19 45t45 19q-1 -30 -22 -48v0zM352 105q-27 1 -45 19v0v0q-18 18 -19 45q25 0 42 -16q21 -18 22 -48v0zM240 105
q-27 1 -45 19v0v0q-18 18 -19 45q25 0 42 -16q21 -18 22 -48v0zM464 105q-27 1 -45 19v0v0q-18 18 -19 45q25 0 42 -16q21 -18 22 -48v0zM160 -23q1 -15 16 -16q34 1 57 23q22 23 23 57q-1 15 -16 16q-34 -1 -57 -23q-22 -23 -23 -57v0zM272 -23q1 -15 16 -16q34 1 57 23
q22 23 23 57q-1 15 -16 16q-34 -1 -57 -23q-22 -23 -23 -57v0zM400 -39q34 1 57 23v0v0q22 23 23 57q-1 15 -16 16q-34 -1 -57 -23q-22 -23 -23 -57q1 -15 16 -16v0zM368 105q-1 34 -23 57v0v0q-23 22 -57 23q-15 -1 -16 -16q1 -34 23 -57q23 -22 57 -23q15 1 16 16v0z
M240 89q15 1 16 16q-1 34 -23 57q-23 22 -57 23q-15 -1 -16 -16q1 -34 23 -57q23 -22 57 -23v0zM480 105q-1 34 -23 57v0v0q-23 22 -57 23q-15 -1 -16 -16q1 -34 23 -57q23 -22 57 -23q15 1 16 16v0zM8 65h144h-144h144q7 1 8 8q-1 7 -8 8h-144v0q-7 -1 -8 -8q1 -7 8 -8v0z
M32 1q1 -7 8 -8h80v0q7 1 8 8q-1 7 -8 8h-80v0q-7 -1 -8 -8v0zM40 137h80h-80h80q7 1 8 8q-1 7 -8 8h-80v0q-7 -1 -8 -8q1 -7 8 -8v0zM16 289q24 -1 40 -16v0v0q15 -16 16 -40h-24v0q-14 0 -23 9t-9 23v24v0zM16 305v80v-80v80q31 1 51 21t21 51h336v0q1 -31 21 -51t51 -21
v-80v0q-31 -1 -51 -21t-21 -51h-336v0q-1 31 -21 51t-51 21v0zM440 233q1 24 16 40v0v0q16 15 40 16v-24v0q0 -14 -9 -23t-23 -9h-24v0zM496 401q-24 1 -40 16v0v0q-15 16 -16 40h24v0q14 0 23 -9t9 -23v-24v0zM72 457q-1 -24 -16 -40v0v0q-16 -15 -40 -16v24v0q0 14 9 23
t23 9h24v0zM256 393q27 -1 42 -24q12 -24 0 -48q-15 -23 -42 -24q-27 1 -42 24q-12 24 0 48q15 23 42 24v0zM256 281q36 1 55 32q18 32 0 64q-19 31 -55 32q-36 -1 -55 -32q-18 -32 0 -64q19 -31 55 -32v0zM0 265q1 -20 14 -34v0v0q14 -13 34 -14h416v0q20 1 34 14
q13 14 14 34v160v0q-1 20 -14 34q-14 13 -34 14h-416v0q-20 -1 -34 -14q-13 -14 -14 -34v-160v0z" />
</svg>
