<?xml version="1.0" standalone="no"?>
<!DOCTYPE svg PUBLIC "-//W3C//DTD SVG 1.1//EN" "http://www.w3.org/Graphics/SVG/1.1/DTD/svg11.dtd" >
<svg xmlns="http://www.w3.org/2000/svg" xmlns:xlink="http://www.w3.org/1999/xlink" version="1.1" viewBox="-10 -40 660 512">
   <path fill="currentColor"
d="M188 -38q-6 5 -2 12l45 68v0l-30 59v0q-3 7 3 11l74 44v0l-199 31v0q-34 6 -56 32t-23 63q1 43 27 68q27 26 62 27q36 1 66 -28l133 -122v0v32v0l-54 65v0q-2 2 -2 5v62v0l-46 69v0q-4 7 2 12q6 3 11 -2l48 -72v0q1 -3 1 -5v-61v0l40 -48v0v77v0q0 14 9 23t23 9t23 -9
t9 -23v-77v0l40 48v0v61v0q0 2 2 5l48 72v0q4 5 11 2q5 -5 2 -12l-47 -69v0v-62v0q0 -3 -2 -5l-54 -65v0v-32v0l133 122v0q30 29 66 28q35 -1 62 -27q26 -25 27 -68q-1 -37 -23 -63t-56 -32l-199 -31v0l74 -44v0q6 -4 3 -11l-30 -59v0l46 -68v0q3 -7 -2 -12q-7 -3 -11 3
l-48 72v0q-3 4 -1 8l29 57v0l-70 42v0v-7v0q-2 -24 -24 -31v-81v0q-1 -8 -8 -8t-8 8v81v0q-22 7 -24 31v7v0l-70 -42v0l29 -57v0q2 -4 0 -8l-48 -72v0q-5 -6 -11 -3v0zM496 337l-144 -132l144 132l-144 -132v-34v0l206 32v0v0v0h1v0q28 5 46 26q18 22 19 53q-1 36 -23 57
q-21 21 -51 22q-29 1 -53 -23l-1 -1v0v0zM288 205l-144 132l144 -132l-144 132l-1 1v0q-24 24 -53 23q-30 -1 -51 -22q-22 -21 -23 -57q1 -31 19 -53q18 -21 46 -26v0v0h1v0l206 -32v0v34v0zM304 361v-224v224v-224q1 -14 16 -16q15 2 16 16v224v0q-1 15 -16 16
q-15 -1 -16 -16v0z" />
</svg>
