<?xml version="1.0" standalone="no"?>
<!DOCTYPE svg PUBLIC "-//W3C//DTD SVG 1.1//EN" "http://www.w3.org/Graphics/SVG/1.1/DTD/svg11.dtd" >
<svg xmlns="http://www.w3.org/2000/svg" xmlns:xlink="http://www.w3.org/1999/xlink" version="1.1" viewBox="-10 -40 660 512">
   <path fill="currentColor"
d="M412 -38q6 4 3 11l-38 69v0l15 45v0q1 5 -4 9l-62 41v0l174 26v0q7 1 14 3q7 3 6 10q-3 7 -10 6q-6 -2 -13 -3v0v0v0v0l-177 -27v0v45v0l37 32v0q5 6 1 12q-5 5 -11 0l-27 -23v0v20v0l30 29v0q4 6 0 12q-6 4 -12 0l-18 -19v0v62v0q0 13 -9 22t-23 10q-14 -1 -23 -10
t-9 -22v-62v0l-40 40v0v45v0q0 2 -1 4l-40 72v0q-4 6 -11 3q-6 -4 -3 -11l39 -70v0v-46v0q0 -3 2 -6l54 -53v0v-20v0l-107 94v0q-29 26 -63 25q-35 -1 -60 -25q-25 -23 -26 -62q1 -34 22 -58t54 -29l174 -26v0l-62 -41v0q-5 -4 -4 -9l15 -45v0l-38 -69v0q-3 -7 3 -11
q7 -3 11 3l40 72v0q2 3 1 7l-14 42v0l54 36v0v-23v0q2 -24 24 -31v-43v0q1 -8 8 -8t8 8v43v0q22 7 24 31v23v0l55 -36v0l-15 -42v0q-1 -4 1 -7l40 -72v0q4 -6 11 -3v0zM256 152l-177 27l177 -27l-177 27h-1v0v0v0q-27 4 -44 23q-17 20 -18 48q1 32 22 51q20 19 48 20t52 -21
v0v0l118 -103v0v-45v0zM392 337h32h-32h32v-64v0h-32v0q-7 -1 -8 -8q1 -7 8 -8h32v0v-32v0q1 -7 8 -8q7 1 8 8v32v0h64v0v-32v0q1 -7 8 -8q7 1 8 8v32v0h64v0v-32v0q1 -7 8 -8q7 1 8 8v32v0h32v0q7 1 8 8q-1 7 -8 8h-32v0v64v0h32v0q7 1 8 8q-1 7 -8 8h-32v0v64v0h32v0
q7 1 8 8q-1 7 -8 8h-32v0v32v0q-1 7 -8 8q-7 -1 -8 -8v-32v0h-64v0v32v0q-1 7 -8 8q-7 -1 -8 -8v-32v0h-64v0v32v0q-1 7 -8 8q-7 -1 -8 -8v-32v0h-32v0q-7 -1 -8 -8q1 -7 8 -8h32v0v-64v0h-32v0q-7 -1 -8 -8q1 -7 8 -8v0zM584 353h-64h64h-64v64v0h64v0v-64v0zM584 273h-64
h64h-64v64v0h64v0v-64v0zM440 353v64v-64v64h64v0v-64v0h-64v0zM440 337h64h-64h64v-64v0h-64v0v64v0zM272 322q1 14 16 16q15 -2 16 -16v-223v0q-1 -15 -16 -16q-15 1 -16 16v223v0z" />
</svg>
