<?xml version="1.0" standalone="no"?>
<!DOCTYPE svg PUBLIC "-//W3C//DTD SVG 1.1//EN" "http://www.w3.org/Graphics/SVG/1.1/DTD/svg11.dtd" >
<svg xmlns="http://www.w3.org/2000/svg" xmlns:xlink="http://www.w3.org/1999/xlink" version="1.1" viewBox="-11 0 661 512">
   <path fill="currentColor"
d="M304 1q2 -22 24 -24h144v0q22 2 24 24v160v0q1 7 8 8h64h32q22 2 24 24v264v0q1 7 8 8q7 -1 8 -8v-264v0q0 -17 -12 -28q-11 -12 -28 -12h-24v0v-88v0q-1 -7 -8 -8q-7 1 -8 8v88v0h-48v0v-152v0q0 -17 -12 -28q-11 -12 -28 -12h-144v0q-17 0 -28 12q-12 11 -12 28v100v0
l16 27v0v-127v0zM240 114l81 135l-81 -135l81 135h-98v0q-4 0 -6 3l-42 56v0l-48 -59v0l81 -135v0q6 -9 16 -9t16 9v0zM19 428l99 -164l-99 164l99 -164l51 62v0q2 3 6 3t7 -3l45 -61v0h104v0l98 163v0q6 10 1 20q-6 9 -17 9h-378v0q-11 0 -17 -9q-5 -10 1 -20v0zM253 106
q-10 -16 -29 -17q-19 1 -29 17l-190 314v0q-10 17 -1 35q11 17 31 18h379v0q19 -1 30 -18q9 -18 -1 -35l-190 -314v0zM360 57v32v-32v32q2 22 24 24h32v0q22 -2 24 -24v-32v0q-2 -22 -24 -24h-32v0q-22 2 -24 24v0zM384 49h32h-32h32q7 1 8 8v32v0q-1 7 -8 8h-32v0
q-7 -1 -8 -8v-32v0q1 -7 8 -8v0zM384 161q-7 1 -8 8q1 7 8 8h32v0q7 1 8 8v32v0q1 7 8 8q7 -1 8 -8v-32v0q-2 -22 -24 -24h-32v0zM488 249v32v-32v32q2 22 24 24h32v0q22 -2 24 -24v-32v0q-2 -22 -24 -24h-32v0q-22 2 -24 24v0zM512 241h32h-32h32q7 1 8 8v32v0q-1 7 -8 8
h-32v0q-7 -1 -8 -8v-32v0q1 -7 8 -8v0zM512 353q-22 2 -24 24v32v0q2 22 24 24h32v0q22 -2 24 -24v-32v0q-2 -22 -24 -24h-32v0zM504 377q1 -7 8 -8h32v0q7 1 8 8v32v0q-1 7 -8 8h-32v0q-7 -1 -8 -8v-32v0z" />
</svg>
