<?xml version="1.0" standalone="no"?>
<!DOCTYPE svg PUBLIC "-//W3C//DTD SVG 1.1//EN" "http://www.w3.org/Graphics/SVG/1.1/DTD/svg11.dtd" >
<svg xmlns="http://www.w3.org/2000/svg" xmlns:xlink="http://www.w3.org/1999/xlink" version="1.1" viewBox="-10 -40 586 512">
   <path fill="currentColor"
d="M465 121q53 -29 70 -89l9 -35v0q2 -15 -12 -19q-15 -3 -19 11l-9 35v0q-10 36 -38 58t-66 23q-38 -1 -66 -23t-38 -58l-8 -35v0q-5 -14 -20 -12q-14 5 -11 20l8 35v0q17 61 70 89q9 5 9 14v306v0q1 15 16 16q15 -1 16 -16v-128v0q1 -15 16 -16h16v0q15 1 16 16v128v0
q1 15 16 16q15 -1 16 -16v-306v0q0 -9 9 -14v0zM550 36q-18 67 -78 99v306v0q0 14 -9 23t-23 9t-23 -9t-9 -23v-112v0v-16v0h-16v0v16v0v112v0v0v0q0 14 -9 23t-23 9t-23 -9t-9 -23v-306v0q-59 -32 -78 -99l-9 -35v0q-3 -14 4 -24q6 -11 19 -15q13 -3 24 4q11 6 15 19l9 35
v0q8 31 32 50q24 18 56 19v0v0v0v0q32 -1 56 -19q24 -19 32 -50l9 -35v0q4 -13 15 -19q10 -7 24 -4q13 4 20 15q6 11 3 24l-9 35v0zM344 17q1 -24 16 -40v0v0q16 -15 40 -16q24 1 40 16q15 16 16 40q-1 24 -16 39q-16 16 -40 17v0v0v0v0v0v0q-24 -1 -40 -17q-15 -15 -16 -39
v0zM440 17q-1 -23 -20 -35q-20 -10 -40 0q-19 12 -20 35q1 23 20 35q20 10 40 0q19 -12 20 -35v0zM196 194l-37 -59l37 59l-37 -59q-20 -29 -54 -30h-33v0q-20 1 -34 14q-13 14 -14 34v96v0v0v0v1v0v0v0v191v0q1 15 16 16q15 -1 16 -16v-128v0q1 -15 16 -16h16v0q15 1 16 16
v128v0q1 15 16 16q15 -1 16 -16v-227v0q1 -12 12 -16q11 -2 18 7l13 21v0q4 7 13 7h48v0q15 -1 16 -16q-1 -15 -16 -16h-30v0q-9 0 -14 -7v0zM8 153q1 -27 19 -45v0v0q18 -18 45 -19h8h25q43 1 67 37l38 59v0h30v0q14 0 23 9t9 23t-9 23t-23 9h-48v0q-14 0 -24 -11
q-2 -2 -3 -4l-13 -20v0v28v0v2v0v197v0q0 14 -9 23t-23 9t-23 -9t-9 -23v-112v0v-16v0h-16v0v16v0v112v0q0 14 -9 23t-23 9t-23 -9t-9 -23v-191v0v-1v0v-96v0zM120 17q-1 -23 -20 -35q-20 -10 -40 0q-19 12 -20 35q1 23 20 35q20 10 40 0q19 -12 20 -35v0zM24 17
q1 -32 28 -48q28 -16 56 0q27 16 28 48q-1 32 -28 48q-28 16 -56 0q-27 -16 -28 -48v0z" />
</svg>
