<?xml version="1.0" standalone="no"?>
<!DOCTYPE svg PUBLIC "-//W3C//DTD SVG 1.1//EN" "http://www.w3.org/Graphics/SVG/1.1/DTD/svg11.dtd" >
<svg xmlns="http://www.w3.org/2000/svg" xmlns:xlink="http://www.w3.org/1999/xlink" version="1.1" viewBox="-10 -40 660 512">
   <path fill="currentColor"
d="M232 17q-1 -23 -20 -35q-20 -10 -40 0q-19 12 -20 35q1 23 20 35q20 10 40 0q19 -12 20 -35v0zM136 17q1 -32 28 -48q28 -16 56 0q27 16 28 48q-1 32 -28 48q-28 16 -56 0q-27 -16 -28 -48v0zM123 137l-68 140l68 -140l-68 140q-4 6 -10 3q-7 -4 -4 -10l67 -140v0
q21 -39 65 -41h38v0q44 2 65 41l67 140v0q3 6 -3 10q-7 3 -11 -3l-68 -140v0q-16 -31 -50 -32h-38v0q-34 1 -50 32v0zM128 201q7 1 8 8v232v0q1 15 16 16q15 -1 16 -16v-120v0q2 -22 24 -24q22 2 24 24v120v0q1 15 16 16q15 -1 16 -16v-232v0q1 -7 8 -8q7 1 8 8v232v0
q0 9 -4 16h372v0q7 1 8 8q-1 7 -8 8h-624v0q-7 -1 -8 -8q1 -7 8 -8h116v0q-4 -7 -4 -16v-232v0q1 -7 8 -8v0zM180 457h24h-24h24q-4 -7 -4 -16v-120v0q-1 -7 -8 -8q-7 1 -8 8v120v0q0 9 -4 16v0zM488 1q1 -7 8 -8q7 1 8 8v348v0l82 -89v0q6 -5 11 -1q5 5 1 11l-96 104v0
q-2 3 -6 3t-6 -3l-96 -104v0q-4 -6 1 -11q5 -4 11 1l82 89v0v-348v0z" />
</svg>
