<?xml version="1.0" standalone="no"?>
<!DOCTYPE svg PUBLIC "-//W3C//DTD SVG 1.1//EN" "http://www.w3.org/Graphics/SVG/1.1/DTD/svg11.dtd" >
<svg xmlns="http://www.w3.org/2000/svg" xmlns:xlink="http://www.w3.org/1999/xlink" version="1.1" viewBox="-10 -40 652 512">
   <path fill="currentColor"
d="M440 17q1 -23 20 -35q20 -10 40 0q19 12 20 35q-1 23 -20 35q-20 10 -40 0q-19 -12 -20 -35v0zM536 17q-1 -32 -28 -48q-28 -16 -56 0q-27 16 -28 48q1 32 28 48q28 16 56 0q27 -16 28 -48v0zM411 137q16 -31 50 -32h38v0q34 1 50 32l68 140v0q4 6 11 3q6 -4 3 -10
l-67 -140v0q-21 -39 -65 -41h-38v0q-44 2 -65 41l-67 140v0q-3 6 4 10q6 3 10 -3l68 -140v0zM416 201q-7 1 -8 8v232v0q0 14 9 23t23 9t23 -9t9 -23v-120v0q1 -7 8 -8q7 1 8 8v120v0q0 14 9 23t23 9t23 -9t9 -23v-232v0q-1 -7 -8 -8q-7 1 -8 8v232v0q-1 15 -16 16
q-15 -1 -16 -16v-120v0q-2 -22 -24 -24q-22 2 -24 24v120v0q-1 15 -16 16q-15 -1 -16 -16v-232v0q-1 -7 -8 -8v0zM191 -18q-6 -10 -15 -10v0v0q-10 0 -15 10l-31 68v0l-73 -18v0q-10 -2 -16 5q-6 8 -2 17l34 68v0l-54 46v0q-7 7 -5 16t12 12l67 15v0l-1 75v0q1 11 9 15
q9 4 17 -2l58 -48v0l58 48v0q8 6 17 2t9 -15l-1 -75v0l67 -15v0q10 -3 12 -12t-5 -16l-54 -46v0l34 -68v0q4 -9 -2 -17q-6 -7 -16 -5l-73 18v0l-31 -68v0zM176 -12l34 74l-34 -74l34 74q3 6 9 5l80 -20v0l-37 73v0q-3 6 2 10l58 50v0l-73 17v0q-6 2 -6 8l1 81v0l-63 -52v0
q-5 -3 -10 0l-63 52v0l1 -81v0q0 -6 -6 -8l-73 -17v0l58 -50v0q5 -4 2 -10l-37 -73v0l80 20v0q6 1 9 -5l34 -74v0z" />
</svg>
