<?xml version="1.0" standalone="no"?>
<!DOCTYPE svg PUBLIC "-//W3C//DTD SVG 1.1//EN" "http://www.w3.org/Graphics/SVG/1.1/DTD/svg11.dtd" >
<svg xmlns="http://www.w3.org/2000/svg" xmlns:xlink="http://www.w3.org/1999/xlink" version="1.1" viewBox="-10 -40 596 512">
   <path fill="currentColor"
d="M160 -23q23 1 35 20q10 20 0 40q-12 19 -35 20q-23 -1 -35 -20q-10 -20 0 -40q12 -19 35 -20v0zM160 73q32 -1 48 -28q16 -28 0 -56q-16 -27 -48 -28q-32 1 -48 28q-16 28 0 56q16 27 48 28v0zM141 105h38h-38h38q34 1 50 32l51 104v0q4 -8 10 -16l-46 -95v0
q-21 -39 -65 -41h-38v0q-44 2 -65 41l-67 140v0q-3 6 4 10q6 3 10 -3l68 -140v0q16 -31 50 -32v0zM104 209q-1 -7 -8 -8q-7 1 -8 8v232v0q0 14 9 23t23 9t23 -9t9 -23v-120v0q1 -7 8 -8q7 1 8 8v120v0q0 14 9 23t23 9t23 -9t9 -23v-232v0q-1 -7 -8 -8q-7 1 -8 8v232v0
q-1 15 -16 16q-15 -1 -16 -16v-120v0q-2 -22 -24 -24q-22 2 -24 24v120v0q-1 15 -16 16q-15 -1 -16 -16v-232v0zM432 201q35 0 64 17v0v0q29 17 47 47q17 30 17 64t-17 64q-18 30 -47 47t-64 17t-64 -17t-47 -47q-17 -30 -17 -64t17 -64q18 -30 47 -47t64 -17v0zM432 473
q39 0 72 -19v0v0q33 -19 53 -53q19 -34 19 -72t-19 -72q-20 -34 -53 -53t-72 -19t-72 19t-53 53q-19 34 -19 72t19 72q20 34 53 53t72 19v0zM512 329q-1 -7 -8 -8h-144v0q-7 1 -8 8q1 7 8 8h144v0q7 -1 8 -8v0z" />
</svg>
