<?xml version="1.0" standalone="no"?>
<!DOCTYPE svg PUBLIC "-//W3C//DTD SVG 1.1//EN" "http://www.w3.org/Graphics/SVG/1.1/DTD/svg11.dtd" >
<svg xmlns="http://www.w3.org/2000/svg" xmlns:xlink="http://www.w3.org/1999/xlink" version="1.1" viewBox="-10 -40 596 512">
   <path fill="currentColor"
d="M197 203q7 6 6 15l-18 127v0q-8 -1 -16 -3l18 -127v0q-35 -28 -55 -68t-20 -87v-27v0q0 -17 12 -28q11 -12 28 -12t28 12q12 11 12 28v27v0q1 40 23 70q23 31 61 43q61 18 124 4l95 -23v0q16 -3 30 5t18 25q3 16 -5 30t-25 18l-95 23v0q-19 4 -39 6l-14 82v0
q-8 -2 -16 -5l15 -80v0q2 -11 14 -13q18 -2 37 -6l95 -23v0q20 -7 17 -29q-7 -20 -29 -17l-95 22v0q-66 16 -132 -4q-43 -14 -69 -48q-25 -35 -26 -80v-27v0q-2 -22 -24 -24q-22 2 -24 24v27v0q0 43 19 80q18 37 50 63v0zM320 137q27 -1 42 -24q12 -24 0 -48
q-15 -23 -42 -24q-27 1 -42 24q-12 24 0 48q15 23 42 24v0zM256 89q1 -36 32 -55q32 -18 64 0q31 19 32 55q-1 36 -32 55q-32 18 -64 0q-31 -19 -32 -55v0zM295 364q12 17 27 31q13 12 29 21t33 9t33 -9t29 -21q15 -14 27 -31q3 -3 7 -3t7 3q11 16 25 29q24 25 57 32
q7 1 7 8q-2 8 -9 7q-20 -3 -37 -13q-17 -11 -29 -23q-14 -13 -21 -22q-8 10 -23 25q-14 13 -33 23q-18 10 -40 11q-22 -1 -40 -11q-19 -10 -33 -23q-15 -15 -23 -25v0v0v0v0q-8 10 -23 25q-14 13 -33 23q-18 10 -40 11q-22 -1 -40 -11q-19 -10 -33 -23q-15 -15 -23 -25
q-7 9 -21 22q-12 12 -29 23q-17 10 -37 13q-7 1 -9 -6q0 -8 7 -9q33 -7 57 -32q14 -13 25 -29q3 -3 7 -3t7 3q12 17 27 31q13 12 29 21t33 9t33 -9t29 -21q15 -14 27 -31q7 -6 14 0v0z" />
</svg>
