<?xml version="1.0" standalone="no"?>
<!DOCTYPE svg PUBLIC "-//W3C//DTD SVG 1.1//EN" "http://www.w3.org/Graphics/SVG/1.1/DTD/svg11.dtd" >
<svg xmlns="http://www.w3.org/2000/svg" xmlns:xlink="http://www.w3.org/1999/xlink" version="1.1" viewBox="-10 -40 650 512">
   <path fill="currentColor"
d="M175 123q-6 4 -7 11q-1 6 2 12h1v0v0v0l56 80v0q5 7 14 7h71v0q16 0 26 13l43 57v0q8 13 -3 23q-13 7 -23 -3l-38 -52v0q-5 -6 -13 -6h-80h-1q-10 0 -14 8q-5 9 0 17l92 142v0q7 13 -4 22q-13 7 -22 -4l-161 -248v0q-6 -9 -15 -8q-10 2 -14 11q-5 17 -5 34v74v0
q-1 15 -16 16q-15 -1 -16 -16v-74v0q1 -45 25 -80q24 -36 65 -53q32 -13 51 -41q19 -27 19 -62v-10v0q1 -15 16 -16q15 1 16 16v10v0q0 37 -18 69q-17 31 -47 51v0zM241 217l-48 -67l48 67l-48 -67l-9 -13v0v0v0q6 -5 12 -9q28 -23 44 -55q16 -33 16 -70v-10v0q0 -14 -9 -23
t-23 -9t-23 9t-9 23v10v0q0 30 -16 53q-16 24 -44 35q-46 19 -73 59q-26 39 -27 89v74v0q0 14 9 23t23 9t23 -9t9 -23v-74v0v-6q1 -12 5 -23l12 19v0l148 229v0q8 12 20 14q13 3 24 -4q12 -8 14 -20q3 -13 -4 -24l-82 -127v0l-9 -14v0l-1 -2v0h1h80l38 51v0q9 11 21 13
q13 1 24 -6q11 -9 13 -21q1 -13 -6 -24l-44 -58v0q-14 -18 -38 -19h-71v0zM16 49q1 -23 20 -35q20 -10 40 0q19 12 20 35q-1 23 -20 35q-20 10 -40 0q-19 -12 -20 -35v0zM56 105q32 -1 48 -28q16 -28 0 -56q-16 -27 -48 -28q-32 1 -48 28q-16 28 0 56q16 27 48 28v0z
M450 -18l-32 68l32 -68l-32 68l-73 -18v0q-10 -2 -16 5q-6 8 -2 17l34 68v0l-54 46v0q-7 7 -5 16t12 12l67 15v0v24v0l16 22v0v-52v0q0 -6 -6 -8l-73 -17v0l58 -50v0q5 -4 2 -10l-37 -73v0l80 20v0q6 1 9 -4l34 -75v0l34 74v0q3 6 9 5l80 -20v0l-37 73v0q-3 6 2 10l58 50v0
l-73 17v0q-6 2 -6 8l1 81v0l-63 -52v0q-5 -3 -10 0l-49 41v0l4 6v0q2 3 4 8l46 -38v0l58 48v0q8 6 17 2t9 -15l-1 -75v0l67 -15v0q10 -3 12 -12t-5 -16l-54 -46v0l34 -68v0q4 -9 -2 -17q-6 -7 -16 -5l-73 18v0l-31 -68v0q-6 -10 -15 -10q-10 0 -15 10h1z" />
</svg>
