<?xml version="1.0" standalone="no"?>
<!DOCTYPE svg PUBLIC "-//W3C//DTD SVG 1.1//EN" "http://www.w3.org/Graphics/SVG/1.1/DTD/svg11.dtd" >
<svg xmlns="http://www.w3.org/2000/svg" xmlns:xlink="http://www.w3.org/1999/xlink" version="1.1" viewBox="-10 -40 586 512">
   <path fill="currentColor"
d="M400 -21v46v-46v46h-152v0q-7 -1 -8 -8v-11v0q1 -6 7 -8l153 -19v0zM245 -18q-19 4 -21 24v11v0q2 22 24 24h152v0q15 -1 16 -16v-46v0q-2 -16 -18 -16l-153 19v0zM389 209l-149 171l149 -171l-149 171v-115v0q-1 -15 -16 -16h-152v0q-22 -2 -24 -24q2 -22 24 -24h168
h105q23 0 44 8v0zM224 401v40v-40v40q0 14 9 23t23 9h128v0q14 0 23 -9t9 -23v-79v0v-31v0l16 27v0l38 63v0q9 15 24 19q16 4 30 -4q15 -9 19 -25q4 -15 -4 -30l-77 -129v0q-19 -32 -49 -49q-31 -18 -68 -18h-105h-168q-17 0 -28 12q-12 11 -12 28t12 28q11 12 28 12h136h16
v16v0v120v0v0v0v0zM240 409h160h-160h160v32v0q-1 15 -16 16h-128v0q-15 -1 -16 -16v-32v0zM400 393h-150h150h-150l154 -177v0q28 16 45 44l76 129v0q9 20 -9 33q-20 9 -33 -9l-53 -90v0q-7 -10 -18 -8q-12 4 -12 16v62v0zM240 73q1 34 23 57v0v0q23 22 57 23q34 -1 57 -23
q22 -23 23 -57q0 -8 -2 -16h-16v0q2 8 2 16q-1 27 -19 45t-45 19q-27 -1 -45 -19t-19 -45q0 -8 2 -16h-16v0q-2 8 -2 16v0z" />
</svg>
