<?xml version="1.0" standalone="no"?>
<!DOCTYPE svg PUBLIC "-//W3C//DTD SVG 1.1//EN" "http://www.w3.org/Graphics/SVG/1.1/DTD/svg11.dtd" >
<svg xmlns="http://www.w3.org/2000/svg" xmlns:xlink="http://www.w3.org/1999/xlink" version="1.1" viewBox="-10 -40 586 512">
   <path fill="currentColor"
d="M265 153q39 0 71 20v19v0q-31 -23 -71 -23h-50v0q-32 0 -60 16q-27 15 -43 43l-77 129v0q-9 20 9 33q20 9 33 -9l53 -90v0q7 -10 18 -8q11 4 12 16v142v0q2 15 16 16h128v0q15 -1 16 -16v-142v0q1 -12 12 -16h4v159v0q-1 13 -10 22t-22 9h-128v0q-14 0 -23 -9t-9 -23
v-111v0v-31v0l-16 27v0l-38 63v0q-9 15 -24 19q-16 4 -30 -5q-15 -9 -19 -24q-4 -16 5 -30l76 -129v0q19 -32 49 -49q31 -18 68 -18h50v0zM240 105q36 -1 55 -32q18 -32 0 -64q-19 -31 -55 -32q-36 1 -55 32q-18 32 0 64q19 31 55 32v0zM240 -39q45 1 69 40q22 40 0 80
q-24 39 -69 40q-45 -1 -69 -40q-22 -40 0 -80q24 -39 69 -40v0zM456 107q-8 -5 -8 -14v-116v0h-8h-8v116v0q0 9 -8 14t-8 14v32v0v192v0h54h58v-16v0h-48v0q-15 -1 -16 -16v-27v0v-56v0v-13v0v-96v0q0 -9 -8 -14v0zM416 457h73h-73h73l-34 -90v0q-1 -3 -1 -6h-38v0v96v0z
M472 361h-2h2h-2l6 16v0l28 74v0q3 9 -2 15q-4 7 -13 7h-73v0q-15 -1 -16 -16v-80v0v-16v0q-14 0 -23 -9t-9 -23v-144v0q0 -14 9 -23t23 -9v-16v0v-16v0q1 -19 16 -28v-100v0v-16v0h-8v0q-7 -1 -8 -8q1 -7 8 -8h8h32q15 1 16 16v116v0q15 9 16 28v48v0v45v0v3v0v8v0v5v0
l16 -5v0v-56v0q1 -15 16 -16h16v0q15 1 16 16v85v0q-1 11 -11 15l-53 17v0v11v0v16v0h16h32q15 1 16 16v16v0q-1 15 -16 16h-41h-15zM480 270l48 -16l-48 16l48 -16v-85v0h-16v0v56v0q-1 11 -11 15l-16 6v0h-5v23v1zM384 185v144v-144v144q1 15 16 16v-176v0q-15 1 -16 16v0
z" />
</svg>
