<?xml version="1.0" standalone="no"?>
<!DOCTYPE svg PUBLIC "-//W3C//DTD SVG 1.1//EN" "http://www.w3.org/Graphics/SVG/1.1/DTD/svg11.dtd" >
<svg xmlns="http://www.w3.org/2000/svg" xmlns:xlink="http://www.w3.org/1999/xlink" version="1.1" viewBox="-10 -40 596 512">
   <path fill="currentColor"
d="M112 -31q-1 -7 -8 -8q-7 1 -8 8v104v0h16v0v-104v0zM288 -31q-1 -7 -8 -8q-7 1 -8 8v104v0h16v0v-104v0zM8 105q-7 1 -8 8q1 7 8 8h32v0v80v0q1 62 42 105q40 42 102 47v112v0q1 7 8 8q7 -1 8 -8v-112v0q30 -2 56 -14v-10v-8v0q-29 16 -64 16q-58 -1 -96 -40
q-39 -38 -40 -96v-80v0h272v0v66v0q8 -6 16 -10v-56v0h32v0q7 -1 8 -8q-1 -7 -8 -8h-32h-336zM432 201q35 0 64 17v0v0q29 17 47 47q17 30 17 64t-17 64q-18 30 -47 47t-64 17t-64 -17t-47 -47q-17 -30 -17 -64t17 -64q18 -30 47 -47t64 -17v0zM432 473q39 0 72 -19v0v0
q33 -19 53 -53q19 -34 19 -72t-19 -72q-20 -34 -53 -53t-72 -19t-72 19t-53 53q-19 34 -19 72t19 72q20 34 53 53t72 19v0zM512 329q-1 -7 -8 -8h-144v0q-7 1 -8 8q1 7 8 8h144v0q7 -1 8 -8v0z" />
</svg>
