<?xml version="1.0" standalone="no"?>
<!DOCTYPE svg PUBLIC "-//W3C//DTD SVG 1.1//EN" "http://www.w3.org/Graphics/SVG/1.1/DTD/svg11.dtd" >
<svg xmlns="http://www.w3.org/2000/svg" xmlns:xlink="http://www.w3.org/1999/xlink" version="1.1" viewBox="-10 -40 596 512">
   <path fill="currentColor"
d="M112 -31q-1 -7 -8 -8q-7 1 -8 8v104v0h16v0v-104v0zM288 -31q-1 -7 -8 -8q-7 1 -8 8v104v0h16v0v-104v0zM8 105q-7 1 -8 8q1 7 8 8h32v0v80v0q1 62 42 105q40 42 102 47v112v0q1 7 8 8q7 -1 8 -8v-112v0q30 -2 56 -14v-10v-8v0q-29 16 -64 16q-58 -1 -96 -40
q-39 -38 -40 -96v-80v0h272v0v66v0q8 -6 16 -10v-56v0h32v0q7 -1 8 -8q-1 -7 -8 -8h-32h-336zM304 329q0 -35 17 -64v0v0q17 -29 47 -47q30 -17 64 -17t64 17q30 18 47 47t17 64t-17 64t-47 47q-30 17 -64 17t-64 -17q-30 -18 -47 -47t-17 -64v0zM576 329q0 -39 -19 -72v0v0
q-19 -33 -53 -53q-34 -19 -72 -19t-72 19q-34 20 -53 53t-19 72t19 72t53 53q34 19 72 19t72 -19q34 -20 53 -53t19 -72v0zM494 279q4 -6 0 -12q-6 -4 -12 0l-50 51v0l-50 -51v0q-6 -4 -12 0q-4 6 0 12l51 50v0l-51 50v0q-4 6 0 12q6 4 12 0l50 -51v0l50 51v0q6 4 12 0
q4 -6 0 -12l-51 -50v0l51 -50v0z" />
</svg>
