<?xml version="1.0" standalone="no"?>
<!DOCTYPE svg PUBLIC "-//W3C//DTD SVG 1.1//EN" "http://www.w3.org/Graphics/SVG/1.1/DTD/svg11.dtd" >
<svg xmlns="http://www.w3.org/2000/svg" xmlns:xlink="http://www.w3.org/1999/xlink" version="1.1" viewBox="-10 -40 660 512">
   <path fill="currentColor"
d="M315 -38q5 -2 10 0l158 111v0h101v0q24 1 40 16q15 16 16 40v99v0q-7 -11 -16 -20v-79v0q0 -17 -12 -28q-11 -12 -28 -12h-104v0q-2 0 -5 -1l-155 -109v0l-155 109v0q-2 1 -5 1h-104v0q-17 0 -28 12q-12 11 -12 28v288v0q0 17 12 28q11 12 28 12h200v0v-112v0
q1 -27 19 -45t45 -19h7q-3 8 -4 16h-3q-20 1 -34 14q-13 14 -14 34v112v0h32h71q9 9 20 16h-11h-328q-24 -1 -40 -16q-15 -16 -16 -40v-288v0q1 -24 16 -40q16 -15 40 -16h102v0l157 -111v0zM88 153h32h-32h32q22 2 24 24v48v0q-2 22 -24 24h-32v0q-22 -2 -24 -24v-48v0
q2 -22 24 -24v0zM80 177v48v-48v48q1 7 8 8h32v0q7 -1 8 -8v-48v0q-1 -7 -8 -8h-32v0q-7 1 -8 8v0zM320 201q36 -1 55 -32q18 -32 0 -64q-19 -31 -55 -32q-36 1 -55 32q-18 32 0 64q19 31 55 32v0zM320 57q45 1 69 40q22 40 0 80q-24 39 -69 40q-45 -1 -69 -40
q-22 -40 0 -80q24 -39 69 -40v0zM328 105v24v-24v24h16v0q7 1 8 8q-1 7 -8 8h-24v0q-7 -1 -8 -8v-32v0q1 -7 8 -8q7 1 8 8v0zM64 305q2 -22 24 -24h32v0q22 2 24 24v48v0q-2 22 -24 24h-32v0q-22 -2 -24 -24v-48v0zM88 297q-7 1 -8 8v48v0q1 7 8 8h32v0q7 -1 8 -8v-48v0
q-1 -7 -8 -8h-32v0zM624 329q0 -35 -17 -64v0v0q-17 -29 -47 -47q-30 -17 -64 -17t-64 17q-30 18 -47 47t-17 64t17 64t47 47q30 17 64 17t64 -17q30 -18 47 -47t17 -64v0zM352 329q0 -39 19 -72v0v0q19 -33 53 -53q34 -19 72 -19t72 19q34 20 53 53t19 72t-19 72t-53 53
q-34 19 -72 19t-72 -19q-34 -20 -53 -53t-19 -72v0zM558 279l-51 50l51 -50l-51 50l51 50v0q4 6 0 12q-6 4 -12 0l-50 -51v0l-50 51v0q-6 4 -12 0q-4 -6 0 -12l51 -50v0l-51 -50v0q-4 -6 0 -12q6 -4 12 0l50 51v0l50 -51v0q6 -4 12 0q4 6 0 12v0z" />
</svg>
