<?xml version="1.0" standalone="no"?>
<!DOCTYPE svg PUBLIC "-//W3C//DTD SVG 1.1//EN" "http://www.w3.org/Graphics/SVG/1.1/DTD/svg11.dtd" >
<svg xmlns="http://www.w3.org/2000/svg" xmlns:xlink="http://www.w3.org/1999/xlink" version="1.1" viewBox="-10 -40 522 512">
   <path fill="currentColor"
d="M237 -16q19 -8 38 0l177 75v0q26 12 28 42q1 50 -17 116q-17 66 -62 129q-44 63 -125 104q-20 9 -39 0q-82 -41 -126 -104q-45 -63 -62 -129q-18 -66 -17 -116q2 -30 29 -43l176 -75v1zM281 -31q-25 -10 -50 0l-177 75v0q-17 7 -27 22q-11 15 -11 35q-1 51 17 120t65 134
q46 66 132 109q26 12 52 0q86 -43 132 -109q47 -65 65 -134t17 -120q0 -20 -11 -35q-10 -15 -27 -22l-177 -75v0zM166 99q-4 -3 -9 -1t-5 7v128v0q1 44 31 74q29 29 73 30q44 -1 74 -30q29 -30 30 -74v-128v0q0 -5 -5 -7t-8 1l-62 62v0h-58v0l-61 -62v0zM168 233v-109v109
v-109l50 51v0q3 2 6 2h64v0q3 0 6 -2l50 -51v0v109v0q-1 37 -26 62t-62 26q-37 -1 -62 -26t-26 -62v0zM216 249q15 -1 16 -16q-1 -15 -16 -16q-15 1 -16 16q1 15 16 16v0zM296 249q15 -1 16 -16q-1 -15 -16 -16q-15 1 -16 16q1 15 16 16v0z" />
</svg>
