<?xml version="1.0" standalone="no"?>
<!DOCTYPE svg PUBLIC "-//W3C//DTD SVG 1.1//EN" "http://www.w3.org/Graphics/SVG/1.1/DTD/svg11.dtd" >
<svg xmlns="http://www.w3.org/2000/svg" xmlns:xlink="http://www.w3.org/1999/xlink" version="1.1" viewBox="-10 -40 468 512">
   <path fill="currentColor"
d="M64 9q-20 1 -34 14v0v0q-13 14 -14 34v320v0q1 20 14 34q14 13 34 14h320v0q20 -1 34 -14q13 -14 14 -34v-320v0q-1 -20 -14 -34q-14 -13 -34 -14h-320v0zM0 57q1 -27 19 -45v0v0q18 -18 45 -19h320v0q27 1 45 19t19 45v320v0q-1 27 -19 45t-45 19h-320v0q-27 -1 -45 -19
t-19 -45v-320v0zM346 188q6 4 15 4q22 2 24 24q-2 22 -24 24q-23 1 -30 20q-8 19 7 36q14 17 0 34q-17 14 -34 0q-17 -15 -36 -7t-20 30q-2 22 -24 24q-22 -2 -24 -24q-2 -23 -20 -30q-19 -8 -36 7q-17 14 -34 0q-14 -17 0 -34q15 -17 7 -36t-30 -20q-22 -2 -24 -24
q2 -22 24 -24t30 -20q8 -19 -7 -36q-14 -17 0 -34q17 -14 34 0q17 15 36 7q18 -8 20 -30t24 -24q22 2 24 24q1 22 20 30t36 -7q17 -14 34 0q14 17 0 34q-12 13 -9 29q3 15 17 23v0zM224 71q-7 0 -8 8q-3 33 -30 45q-28 11 -54 -11q-5 -5 -11 0q-5 6 0 11q22 26 11 54
q-12 27 -45 30q-8 1 -8 8t8 8q33 2 45 30q11 28 -11 53q-5 6 0 12q6 4 11 0q26 -23 54 -11q27 11 30 45q1 7 8 8q7 -1 8 -8q2 -34 30 -45q28 -12 53 11q6 4 11 0q5 -6 0 -12q-22 -25 -10 -53q11 -28 45 -30q7 -1 8 -8q-1 -7 -8 -8q-34 -3 -45 -30q-12 -28 10 -54q5 -5 0 -11
q-5 -5 -11 0q-25 22 -53 11q-28 -12 -30 -45q-1 -8 -8 -8v0zM192 201q15 -1 16 -16q-1 -15 -16 -16q-15 1 -16 16q1 15 16 16v0zM192 153q14 0 23 9v0v0q9 9 9 23t-9 23t-23 9t-23 -9t-9 -23t9 -23t23 -9v0zM264 249q-1 -7 -8 -8q-7 1 -8 8q1 7 8 8q7 -1 8 -8v0zM232 249
q2 -22 24 -24q22 2 24 24q-2 22 -24 24q-22 -2 -24 -24v0z" />
</svg>
