<?xml version="1.0" standalone="no"?>
<!DOCTYPE svg PUBLIC "-//W3C//DTD SVG 1.1//EN" "http://www.w3.org/Graphics/SVG/1.1/DTD/svg11.dtd" >
<svg xmlns="http://www.w3.org/2000/svg" xmlns:xlink="http://www.w3.org/1999/xlink" version="1.1" viewBox="-10 -40 404 512">
   <path fill="currentColor"
d="M237 9q0 -20 -12 -34v0v0q-13 -13 -33 -14q-21 1 -34 14q-12 14 -12 34h-90v0q-24 1 -40 16q-15 16 -16 40q1 24 16 40q16 15 40 16h16v0q35 -1 57 -29l3 -3v0h19v0l2 32v0q-38 2 -63 27q-26 26 -26 65v4v0q1 41 28 68t68 28h6v0v1l2 31v0h-40v0q-14 0 -23 9t-9 23t9 23
t23 9h44v0l3 49v0q2 14 17 15q14 -1 16 -15l9 -144v0v-1h55v0q14 1 16 16q-2 15 -16 16h-32v0q-8 1 -8 8t8 8h32v0q13 0 22 -9t10 -23q-1 -14 -10 -23t-22 -9h-112v0q-35 -1 -57 -23q-23 -23 -23 -57v-4v0q0 -32 21 -54q21 -21 53 -22l2 32v0q-19 2 -31 15q-13 13 -13 33
t14 34q13 13 34 14h112v0q27 1 45 19t19 45q-1 27 -19 45t-45 19h-40v0q-8 1 -8 8t8 8h40v0q34 -1 56 -23q23 -23 24 -57q-1 -34 -24 -57q-22 -22 -56 -23h-112v0q-14 0 -23 -9t-9 -23q0 -13 8 -22q9 -9 21 -10l3 33v0q1 7 8 7q7 -1 8 -8l-9 -128v0h49v0l-8 128v0q0 7 7 8
q7 0 9 -7l8 -129v0h56v0q14 1 16 16q-2 15 -16 16h-24v0q-8 1 -8 8t8 8h24v0q13 0 22 -9t10 -23q-1 -14 -10 -23t-22 -9h-160v0q-4 0 -7 3l-5 7v0q-17 21 -44 22h-16v0q-17 0 -28 -12q-12 -11 -12 -28t12 -28q11 -12 28 -12h232v0q34 1 56 23q23 23 24 57q-1 34 -24 57
q-22 22 -56 23h-40v0q-8 1 -8 8t8 8h40v0q40 -1 67 -28t29 -68q-2 -41 -29 -68t-67 -28h-51v0zM171 393h-43h43h-43q-15 -1 -16 -16q1 -15 16 -16h41v0l2 32v0zM201 313l-9 144l9 -144l-9 144v0h-1l-9 -144v0h19v0zM162 9v0v0v0v-1q0 -13 8 -22t22 -9q13 0 21 9t8 22v1v0
h-59v0zM48 57q1 15 16 16q14 -1 16 -16q-2 -15 -16 -16q-15 1 -16 16v0z" />
</svg>
