<?xml version="1.0" standalone="no"?>
<!DOCTYPE svg PUBLIC "-//W3C//DTD SVG 1.1//EN" "http://www.w3.org/Graphics/SVG/1.1/DTD/svg11.dtd" >
<svg xmlns="http://www.w3.org/2000/svg" xmlns:xlink="http://www.w3.org/1999/xlink" version="1.1" viewBox="-10 -40 660 512">
   <path fill="currentColor"
d="M304 1q2 -22 24 -24h144v0q22 2 24 24v160v0q1 7 8 8h64h32q22 2 24 24v272v0q1 7 8 8q7 -1 8 -8v-272v0q0 -17 -12 -28q-11 -12 -28 -12h-24v0v-88v0q-1 -7 -8 -8q-7 1 -8 8v88v0h-48v0v-152v0q0 -17 -12 -28q-11 -12 -28 -12h-144v0q-17 0 -28 12q-12 11 -12 28v464v0
q1 7 8 8q7 -1 8 -8v-464v0zM128 185q-7 1 -8 8v72v0h-40v0q-27 -1 -45 -19t-19 -45q1 -34 31 -55q3 -3 3 -7q-2 -10 -2 -18q1 -34 23 -57q23 -22 57 -23q34 1 56 23q23 23 24 57q0 8 -2 18q0 4 3 7q30 21 31 55q-1 27 -19 45t-45 19h-40v0v-72v0q-1 -7 -8 -8v0zM120 281v184
v-184v184q1 7 8 8q7 -1 8 -8v-184v0h40v0q34 -1 57 -23q22 -23 23 -57q-2 -41 -33 -65q1 -7 1 -15q-1 -41 -28 -68t-68 -28q-41 1 -68 28t-28 68q0 8 1 15q-31 24 -33 65q1 34 23 57q23 22 57 23h40v0zM360 57v32v-32v32q2 22 24 24h32v0q22 -2 24 -24v-32v0q-2 -22 -24 -24
h-32v0q-22 2 -24 24v0zM384 49h32h-32h32q7 1 8 8v32v0q-1 7 -8 8h-32v0q-7 -1 -8 -8v-32v0q1 -7 8 -8v0zM512 225q-22 2 -24 24v32v0q2 22 24 24h32v0q22 -2 24 -24v-32v0q-2 -22 -24 -24h-32v0zM504 249q1 -7 8 -8h32v0q7 1 8 8v32v0q-1 7 -8 8h-32v0q-7 -1 -8 -8v-32v0z
M488 377v32v-32v32q2 22 24 24h32v0q22 -2 24 -24v-32v0q-2 -22 -24 -24h-32v0q-22 2 -24 24v0zM512 369h32h-32h32q7 1 8 8v32v0q-1 7 -8 8h-32v0q-7 -1 -8 -8v-32v0q1 -7 8 -8v0zM384 161q-22 2 -24 24v32v0q2 22 24 24h32v0q22 -2 24 -24v-32v0q-2 -22 -24 -24h-32v0z
M376 185q1 -7 8 -8h32v0q7 1 8 8v32v0q-1 7 -8 8h-32v0q-7 -1 -8 -8v-32v0zM360 313v32v-32v32q2 22 24 24h32v0q22 -2 24 -24v-32v0q-2 -22 -24 -24h-32v0q-22 2 -24 24v0zM384 305h32h-32h32q7 1 8 8v32v0q-1 7 -8 8h-32v0q-7 -1 -8 -8v-32v0q1 -7 8 -8v0z" />
</svg>
