<?xml version="1.0" standalone="no"?>
<!DOCTYPE svg PUBLIC "-//W3C//DTD SVG 1.1//EN" "http://www.w3.org/Graphics/SVG/1.1/DTD/svg11.dtd" >
<svg xmlns="http://www.w3.org/2000/svg" xmlns:xlink="http://www.w3.org/1999/xlink" version="1.1" viewBox="-10 -40 660 512">
   <path fill="currentColor"
d="M147 9q27 1 42 24q13 24 0 48q-15 23 -42 24q-27 -1 -41 -24q-13 -24 0 -48q14 -23 41 -24v0zM147 121q36 -1 56 -32q17 -32 0 -64q-20 -31 -56 -32q-36 1 -55 32q-17 32 0 64q19 31 55 32v0zM258 105q1 -36 32 -55q32 -18 64 0q30 19 32 55q-2 36 -32 55q-32 18 -64 0
q-31 -19 -32 -55v0zM402 105q-2 -45 -40 -69q-40 -22 -80 0q-39 24 -40 69q1 45 40 69q40 22 80 0q38 -24 40 -69v0zM450 313q-2 15 -16 16h-224v0q-15 -1 -16 -16q0 -34 23 -57q23 -22 57 -23h96v0q34 1 56 23q23 23 24 57v0zM274 217q-41 1 -68 28v0v0q-27 27 -28 68
q0 14 9 23t23 9h224v0q13 0 22 -9t10 -23q-1 -41 -29 -68q-27 -27 -67 -28h-96v0zM0 417q1 7 8 8h624v0q7 -1 8 -8q-1 -7 -8 -8h-624v0q-7 1 -8 8v0zM48 217q1 -20 14 -34v0v0q14 -13 34 -14h96v0q7 0 14 2q7 1 10 -5q1 -8 -6 -10q-8 -3 -18 -3h-96v0q-27 1 -45 19t-19 45
q0 14 9 23t23 9h88v0q7 -1 8 -8q-1 -7 -8 -8h-88v0q-15 -1 -16 -16v0zM496 9q27 1 42 24q12 24 0 48q-15 23 -42 24q-27 -1 -42 -24q-12 -24 0 -48q15 -23 42 -24v0zM496 121q36 -1 55 -32q18 -32 0 -64q-19 -31 -55 -32q-36 1 -55 32q-18 32 0 64q19 31 55 32v0zM595 217
q-1 15 -16 16h-88v0q-7 1 -8 8q1 7 8 8h88v0q14 0 23 -9t9 -23q0 -27 -19 -45q-18 -18 -45 -19h-96v0q-9 0 -18 3q-7 2 -5 10q2 6 9 5q7 -2 14 -2h96v0q20 1 34 14q14 14 14 34v0z" />
</svg>
