<?xml version="1.0" standalone="no"?>
<!DOCTYPE svg PUBLIC "-//W3C//DTD SVG 1.1//EN" "http://www.w3.org/Graphics/SVG/1.1/DTD/svg11.dtd" >
<svg xmlns="http://www.w3.org/2000/svg" xmlns:xlink="http://www.w3.org/1999/xlink" version="1.1" viewBox="-10 -40 660 512">
   <path fill="currentColor"
d="M2 -37q-4 6 0 12l80 80v0q6 4 12 0q4 -6 0 -12l-80 -80v0q-6 -4 -12 0v0zM638 -37q-6 -4 -12 0l-80 80v0q-4 6 0 12q6 4 12 0l80 -80v0q4 -6 0 -12v0zM14 471l80 -80l-80 80l80 -80q4 -6 0 -12q-6 -4 -12 0l-80 80v0q-4 6 0 12q6 4 12 0v0zM638 471q4 -6 0 -12l-80 -80v0
q-6 -4 -12 0q-4 6 0 12l80 80v0q6 4 12 0v0zM272 153q1 -27 24 -42q24 -12 48 0q23 15 24 42q-1 27 -24 42q-24 12 -48 0q-23 -15 -24 -42v0zM224 321q1 -24 16 -40v0v0q16 -15 40 -16h80v0q24 1 40 16q15 16 16 40q-1 7 -8 8h-176v0q-7 -1 -8 -8v0zM320 217q36 -1 55 -32
q18 -32 0 -64q-19 -31 -55 -32q-36 1 -55 32q-18 32 0 64q19 31 55 32v0zM280 249q-31 1 -51 21v0v0q-20 20 -21 51q2 22 24 24h176v0q22 -2 24 -24q-1 -31 -21 -51t-51 -21h-80v0zM152 233h64h-64h64q7 -1 8 -8q-1 -7 -8 -8h-64v0q-24 1 -40 16q-15 16 -16 40q0 14 9 23
t23 9h32v0q7 -1 8 -8q-1 -7 -8 -8h-32v0q-15 -1 -16 -16q0 -17 12 -28q11 -12 28 -12v0zM144 137q0 -14 9 -23v0v0q9 -9 23 -9t23 9t9 23t-9 23t-23 9t-23 -9t-9 -23v0zM224 137q-1 -27 -24 -42q-24 -12 -48 0q-23 15 -24 42q1 27 24 42q24 12 48 0q23 -15 24 -42v0z
M488 233q17 0 28 12v0v0q12 11 12 28q-1 15 -16 16h-32v0q-7 1 -8 8q1 7 8 8h32v0q14 0 23 -9t9 -23q-1 -24 -16 -40q-16 -15 -40 -16h-64v0q-7 1 -8 8q1 7 8 8h64v0zM496 137q0 14 -9 23v0v0q-9 9 -23 9t-23 -9t-9 -23t9 -23t23 -9t23 9t9 23v0zM416 137q1 27 24 42
q24 12 48 0q23 -15 24 -42q-1 -27 -24 -42q-24 -12 -48 0q-23 15 -24 42v0z" />
</svg>
