<?xml version="1.0" standalone="no"?>
<!DOCTYPE svg PUBLIC "-//W3C//DTD SVG 1.1//EN" "http://www.w3.org/Graphics/SVG/1.1/DTD/svg11.dtd" >
<svg xmlns="http://www.w3.org/2000/svg" xmlns:xlink="http://www.w3.org/1999/xlink" version="1.1" viewBox="-10 -40 660 512">
   <path fill="currentColor"
d="M414 -25q4 -6 0 -12q-6 -4 -12 0l-48 48v0q-4 6 0 12q6 4 12 0l48 -48v0zM510 -25q4 -6 0 -12q-6 -4 -12 0l-112 112v0l-49 50v0q4 -30 -5 -58q-9 -29 -31 -51l-11 -12v0q-12 -9 -23 0l-11 12v0q-29 29 -29 68q0 38 29 67l27 28v0l-48 48v0q4 -30 -5 -58q-9 -29 -31 -52
l-11 -11v0q-12 -9 -23 0l-11 11v0q-28 30 -28 68q0 39 28 68l27 28v0l-48 47v0q5 -29 -4 -57q-9 -29 -32 -52l-11 -11v0q-11 -9 -23 0l-11 11v0q-28 30 -28 68q0 39 28 68l27 27v0l-77 77v0q-4 6 0 12q6 4 12 0l77 -77v0l29 29v0q29 28 68 28q38 0 68 -28l11 -11v0
q9 -12 0 -23l-12 -11v0q-23 -23 -53 -32t-60 -4l50 -50v0l30 29v0q20 20 47 26q26 6 52 -3q-1 -7 -1 -15v-2v0q-22 9 -46 5q-23 -4 -41 -22l-29 -29v0l16 -16v0q26 -12 55 -10t54 18q3 -8 6 -15q-43 -26 -91 -17l50 -51v0l29 29v0q11 11 23 17q5 -6 10 -13q-12 -6 -21 -15
l-29 -29v0l15 -16v0q26 -12 53 -10q27 1 51 15q9 -4 19 -7q-46 -32 -98 -22l52 -52v0l112 -112v0zM118 367q32 -15 66 -9v0v0q34 5 60 31l12 11v0l-12 12v0q-24 23 -56 23t-57 -23l-29 -30v0l16 -15v0zM91 371l-28 -27l28 27l-28 -27q-23 -25 -23 -57t23 -56l12 -12v0l11 12
v0q24 25 30 57q7 32 -5 63l-20 20v0zM192 269l-27 -27l27 27l-27 -27q-23 -25 -23 -57t23 -56l11 -12v0l12 12v0q24 25 30 57q7 32 -5 63l-21 20v0zM294 168l-27 -28l27 28l-27 -28q-24 -25 -24 -56q0 -32 24 -57l11 -11v0l11 11v0q25 25 31 57t-6 63l-20 21v0zM510 71
q4 -6 0 -12q-6 -4 -12 0l-48 48v0q-4 6 0 12q6 4 12 0l48 -48v0zM368 329q0 -35 17 -64v0v0q17 -29 47 -47q30 -17 64 -17t64 17q30 18 47 47t17 64t-17 64t-47 47q-30 17 -64 17t-64 -17q-30 -18 -47 -47t-17 -64v0zM640 329q0 -39 -19 -72v0v0q-19 -33 -53 -53
q-34 -19 -72 -19t-72 19q-34 20 -53 53t-19 72t19 72t53 53q34 19 72 19t72 -19q34 -20 53 -53t19 -72v0zM496 409q15 -1 16 -16q-1 -15 -16 -16q-15 1 -16 16q1 15 16 16v0zM496 241q-7 1 -8 8v96v0q1 7 8 8q7 -1 8 -8v-96v0q-1 -7 -8 -8v0z" />
</svg>
