<?xml version="1.0" standalone="no"?>
<!DOCTYPE svg PUBLIC "-//W3C//DTD SVG 1.1//EN" "http://www.w3.org/Graphics/SVG/1.1/DTD/svg11.dtd" >
<svg xmlns="http://www.w3.org/2000/svg" xmlns:xlink="http://www.w3.org/1999/xlink" version="1.1" viewBox="-10 -40 468 512">
   <path fill="currentColor"
d="M104 -39q7 1 8 8v9v0q1 18 16 28l41 25v0q22 14 23 41v9v0q-1 7 -8 8q-7 -1 -8 -8v-9v0q-1 -18 -15 -28l-42 -24v0q-22 -15 -23 -42v-9v0q1 -7 8 -8v0zM200 -39q7 1 8 8v9v0q1 18 16 28l41 25v0q22 14 23 41v9v0q-1 7 -8 8q-7 -1 -8 -8v-9v0q-1 -18 -15 -28l-42 -24v0
q-22 -15 -23 -42v-9v0q1 -7 8 -8v0zM32 137q-15 1 -16 16q2 75 52 124q49 50 124 52h64v0q75 -2 124 -52q50 -49 52 -124q-1 -15 -16 -16h-384v0zM0 153q0 -14 9 -23v0v0q9 -9 23 -9h384v0q14 0 23 9t9 23q-1 62 -35 110q-33 48 -88 69l58 130v0q3 7 -4 10t-10 -4l-24 -51v0
h-185v0q-4 24 -21 40q-18 15 -43 16q-27 -1 -45 -19t-19 -45q1 -27 19 -45t45 -19q11 0 20 3l8 -16v0q-56 -21 -89 -69q-34 -48 -35 -110v0zM309 338q-25 7 -53 7h-64v0q-28 0 -53 -7l-8 17v0q24 16 29 46h178v0l-29 -63v0zM144 409q-1 -27 -24 -42q-24 -12 -48 0
q-23 15 -24 42q1 27 24 42q24 12 48 0q23 -15 24 -42v0z" />
</svg>
