<?xml version="1.0" standalone="no"?>
<!DOCTYPE svg PUBLIC "-//W3C//DTD SVG 1.1//EN" "http://www.w3.org/Graphics/SVG/1.1/DTD/svg11.dtd" >
<svg xmlns="http://www.w3.org/2000/svg" xmlns:xlink="http://www.w3.org/1999/xlink" version="1.1" viewBox="-10 -40 524 512">
   <path fill="currentColor"
d="M403 -23q-19 2 -32 14v0v0l-1 1l-1 1q22 25 23 60v13v0h1v0q25 2 47 13q3 -2 5 -4v0v0l8 -8q1 -2 3 -4q8 -13 8 -30q-1 -24 -16 -40q-16 -15 -40 -16h-5v0v0zM408 -39q31 1 51 21v0v0q20 20 21 51v8q-2 17 -11 30q-5 9 -13 16v0v0h-1v1q22 17 36 42q13 25 13 55
q0 17 -12 28q-11 11 -28 12h-91v0l-36 79v0l41 12v0q21 8 22 30q0 13 -9 22q-9 8 -22 9h-33h-280q-17 0 -28 12q-12 11 -12 28t12 28q11 11 28 12h416v0q7 1 8 8q-1 7 -8 8h-416v0q-24 -1 -40 -17q-15 -15 -16 -39q1 -24 16 -40q16 -16 40 -16h67v0q-26 -21 -27 -56v-8v0
q2 -67 44 -113q42 -47 108 -54q-38 -25 -40 -71v-6v0q1 -39 27 -65t65 -27q33 1 58 20l2 -2v0v0q6 -5 13 -9q16 -9 35 -9v0zM328 49q7 1 8 8v32v0q-1 7 -8 8h-32v0q-7 -1 -8 -8q1 -7 8 -8h24v0v-24v0q1 -7 8 -8v0zM416 137q15 1 16 16q-1 15 -16 16q-15 -1 -16 -16
q1 -15 16 -16v0zM112 305q1 24 16 40v0v0q16 15 40 16h168h33q14 -1 15 -15q-1 -11 -11 -14l-87 -27v0q-7 -3 -6 -10q3 -7 10 -6l32 10v0l39 -85v0q2 -5 7 -5h96v0q22 -2 24 -24q-1 -42 -28 -71q-27 -28 -68 -32l-9 -1v0q-6 -1 -7 -8v-20v0q-1 -32 -22 -54q-22 -21 -54 -22
q-32 1 -54 22q-21 22 -22 54v6v0q0 22 13 39q12 17 33 25l20 6v0q6 3 6 9q-2 7 -8 7h-24v0q-65 2 -107 45q-43 42 -45 107v8v0z" />
</svg>
