<?xml version="1.0" standalone="no"?>
<!DOCTYPE svg PUBLIC "-//W3C//DTD SVG 1.1//EN" "http://www.w3.org/Graphics/SVG/1.1/DTD/svg11.dtd" >
<svg xmlns="http://www.w3.org/2000/svg" xmlns:xlink="http://www.w3.org/1999/xlink" version="1.1" viewBox="-10 -40 404 512">
   <path fill="currentColor"
d="M133 -29q7 -10 19 -10h80v0q12 0 19 10l32 45v0q6 9 1 18l-42 62v0q63 18 102 67q39 50 40 118q-2 82 -56 136t-136 56q-82 -2 -136 -56t-56 -136q1 -68 40 -118q39 -49 102 -67l-42 -62v0q-5 -9 1 -18l32 -45v0zM265 33h-146h146h-146l39 59v0q17 -3 34 -3t34 3l39 -59
v0zM265 17l-27 -37l27 37l-27 -37q-2 -3 -6 -3h-80v0q-4 0 -6 3l-26 37v0h145v0zM192 457q48 0 88 -24v0v0q40 -23 64 -64q24 -42 24 -88t-24 -88q-24 -41 -64 -64q-40 -24 -88 -24t-88 24q-40 23 -64 64q-24 42 -24 88t24 88q24 41 64 64q40 24 88 24v0z" />
</svg>
