<?xml version="1.0" standalone="no"?>
<!DOCTYPE svg PUBLIC "-//W3C//DTD SVG 1.1//EN" "http://www.w3.org/Graphics/SVG/1.1/DTD/svg11.dtd" >
<svg xmlns="http://www.w3.org/2000/svg" xmlns:xlink="http://www.w3.org/1999/xlink" version="1.1" viewBox="-10 -40 660 512">
   <path fill="currentColor"
d="M448 313v64v-64v64h-384v0q-14 0 -23 9t-9 23t9 23t23 9h528v0q20 -1 34 -14q13 -14 14 -34v-8v0v-8v0v-80v0v-16v0v-5v0q0 -27 -14 -50t-39 -36l-326 -163v0q-37 -18 -78 -18q-42 0 -78 18q-36 19 -61 52l-35 47v0q-9 11 -9 25q2 33 33 42l15 4v0v92v0q2 22 24 24h376v0
zM448 297h-376h376h-376q-7 -1 -8 -8v-88v0l384 96v0zM624 377h-160h160h-160v-80v0q-1 -12 -12 -15l-415 -104v0q-20 -6 -21 -27q0 -9 5 -16l36 -47v0q22 -30 55 -46q33 -17 71 -17q37 0 71 17l326 163v0q20 10 32 29t12 42v5v0v16v0v80v0zM464 393h160h-160h160
q0 14 -9 23t-23 9h-528v0q-15 -1 -16 -16q1 -15 16 -16h384h16z" />
</svg>
