<?xml version="1.0" standalone="no"?>
<!DOCTYPE svg PUBLIC "-//W3C//DTD SVG 1.1//EN" "http://www.w3.org/Graphics/SVG/1.1/DTD/svg11.dtd" >
<svg xmlns="http://www.w3.org/2000/svg" xmlns:xlink="http://www.w3.org/1999/xlink" version="1.1" viewBox="-10 -40 596 512">
   <path fill="currentColor"
d="M344 -23q22 2 24 24v48v0q-2 22 -24 24h-304v0q-22 -2 -24 -24v-48v0q2 -22 24 -24h304v0zM40 -39q-17 0 -28 12v0v0q-12 11 -12 28v48v0q0 17 12 28q11 12 28 12h304v0q17 0 28 -12q12 -11 12 -28v-48v0q0 -17 -12 -28q-11 -12 -28 -12h-304v0zM32 369v40v-40v40
q1 27 19 45t45 19h192v0q18 0 32 -8q-7 -6 -13 -12q-9 4 -19 4h-192v0q-20 0 -34 -14q-13 -14 -14 -34v-32v0h104v0q7 -1 8 -8q-1 -7 -8 -8h-104v0v-80v0h104v0q7 -1 8 -8q-1 -7 -8 -8h-104v0v-80v0h104v0q7 -1 8 -8q-1 -7 -8 -8h-104v0v-48v0h-16v0v56v0v96v0v96v0z
M352 121h-16h16h-16v61v0q8 -6 16 -10v-51v0zM432 201q35 0 64 17v0v0q29 17 47 47q17 30 17 64t-17 64q-18 30 -47 47t-64 17t-64 -17t-47 -47q-17 -30 -17 -64t17 -64q18 -30 47 -47t64 -17v0zM432 473q39 0 72 -19v0v0q33 -19 53 -53q19 -34 19 -72t-19 -72
q-20 -34 -53 -53t-72 -19t-72 19t-53 53q-19 34 -19 72t19 72q20 34 53 53t72 19v0zM370 267q-4 6 0 12l112 112v0q6 4 12 0q4 -6 0 -12l-112 -112v0q-6 -4 -12 0v0z" />
</svg>
