<?xml version="1.0" standalone="no"?>
<!DOCTYPE svg PUBLIC "-//W3C//DTD SVG 1.1//EN" "http://www.w3.org/Graphics/SVG/1.1/DTD/svg11.dtd" >
<svg xmlns="http://www.w3.org/2000/svg" xmlns:xlink="http://www.w3.org/1999/xlink" version="1.1" viewBox="-10 -40 660 512">
   <path fill="currentColor"
d="M112 89q0 -30 15 -56v0v0q15 -26 41 -41t56 -15t56 15t41 41t15 56t-15 56t-41 41t-56 15t-56 -15t-41 -41t-15 -56v0zM352 89q0 -35 -17 -64v0v0q-17 -29 -47 -47q-30 -17 -64 -17t-64 17q-30 18 -47 47t-17 64t17 64t47 47q30 17 64 17t64 -17q30 -18 47 -47t17 -64v0z
M16 443q2 -69 48 -114v0v0q45 -46 114 -48h92v0q9 0 18 1v-1v0q0 -8 1 -15q-10 -1 -19 -1h-92v0q-75 2 -126 52q-50 51 -52 126q0 13 9 21q8 9 21 9h388v0q13 0 21 -9q9 -8 9 -21v-1v-1q-8 0 -16 -1v2v1q-1 13 -14 14h-388v0q-13 -1 -14 -14v0zM448 169q30 0 56 15v0v0
q26 15 41 41q15 27 15 56q0 30 -15 56t-41 41t-56 15t-56 -15t-41 -41t-15 -56q0 -29 15 -56q15 -26 41 -41t56 -15v0zM448 409q50 -1 85 -32l93 94v0q6 4 12 0q4 -6 0 -11l-94 -94v0q31 -35 32 -85q-1 -54 -37 -90q-37 -37 -91 -38q-54 1 -91 38q-36 36 -37 90q1 54 37 91
q37 36 91 37v0z" />
</svg>
