<?xml version="1.0" standalone="no"?>
<!DOCTYPE svg PUBLIC "-//W3C//DTD SVG 1.1//EN" "http://www.w3.org/Graphics/SVG/1.1/DTD/svg11.dtd" >
<svg xmlns="http://www.w3.org/2000/svg" xmlns:xlink="http://www.w3.org/1999/xlink" version="1.1" viewBox="-10 -40 532 512">
   <path fill="currentColor"
d="M157 376q-8 -3 -15 2q-17 13 -51 29q-35 17 -75 18v0v0v0v0v0v0v0v0h1v0q0 -1 1 -2q2 -2 5 -6l-12 -10v0l12 10v0q8 -9 17 -24q18 -28 24 -70q0 -7 -4 -12q-43 -48 -44 -110q2 -80 69 -135t171 -57q104 2 171 57t69 135q-2 80 -69 135t-171 57q-53 0 -99 -17v0zM5 414v0
v0v0v0v0v0v0q-7 7 -4 17q5 10 15 10q44 -2 82 -19q35 -17 54 -31q48 18 104 18q72 -1 129 -28q58 -28 92 -75t35 -105q-1 -58 -35 -105t-92 -75q-57 -27 -129 -28q-72 1 -129 28q-58 28 -92 75t-35 105q1 69 48 121q-5 37 -22 63q-8 14 -15 21q-3 4 -5 6q0 1 -1 1v1v0v0v0v0
zM160 179q0 -18 12 -30v0v0q12 -12 30 -12q17 0 30 12l18 19v0q3 2 6 2t6 -2l18 -19v0q13 -12 30 -12q18 0 30 12t12 30v1v0q0 16 -11 28l-79 86v0q-3 3 -6 3t-6 -3l-79 -86v0q-11 -12 -11 -29v0v0zM202 121q-25 1 -41 17v0v0q-16 16 -17 41v1v0q0 22 15 39l79 86v0
q7 8 18 8q10 0 18 -8l79 -86v0q15 -17 15 -39v-1v0q-1 -25 -17 -41t-41 -17q-24 0 -41 17l-13 13v0l-13 -13v0q-17 -17 -41 -17v0z" />
</svg>
