<?xml version="1.0" standalone="no"?>
<!DOCTYPE svg PUBLIC "-//W3C//DTD SVG 1.1//EN" "http://www.w3.org/Graphics/SVG/1.1/DTD/svg11.dtd" >
<svg xmlns="http://www.w3.org/2000/svg" xmlns:xlink="http://www.w3.org/1999/xlink" version="1.1" viewBox="-10 -40 532 512">
   <path fill="currentColor"
d="M496 217q-1 -65 -32 -120v0v0q-32 -55 -88 -88q-57 -32 -120 -32t-120 32q-56 33 -88 88q-31 55 -32 120q1 65 32 120q32 55 88 88q57 32 120 32t120 -32q56 -33 88 -88q31 -55 32 -120v0zM0 217q1 -70 34 -128v0v0q34 -58 94 -94q61 -34 128 -34t128 34q60 36 94 94
q33 58 34 128q-1 70 -34 128q-34 58 -94 94q-61 34 -128 34t-128 -34q-60 -36 -94 -94q-33 -58 -34 -128v0zM128 241h34h-34h34q-3 -11 -3 -23q0 -13 3 -25h-34v0q-7 -1 -8 -8q1 -7 8 -8h39v0q12 -32 40 -52q28 -19 65 -20h41v0q7 1 8 8q-1 7 -8 8h-41v0q-30 0 -53 16
q-23 15 -35 40h120v0q7 1 8 8q-1 7 -8 8h-126v0q-3 12 -3 25q0 12 3 23h126v0q7 1 8 8q-1 7 -8 8h-121v0q12 26 36 41q23 16 53 17h41v0q7 0 8 8q-1 7 -8 8h-41v0q-37 -1 -65 -21t-41 -53h-38v0q-7 -1 -8 -8q1 -7 8 -8v0z" />
</svg>
