<?xml version="1.0" standalone="no"?>
<!DOCTYPE svg PUBLIC "-//W3C//DTD SVG 1.1//EN" "http://www.w3.org/Graphics/SVG/1.1/DTD/svg11.dtd" >
<svg xmlns="http://www.w3.org/2000/svg" xmlns:xlink="http://www.w3.org/1999/xlink" version="1.1" viewBox="-10 -40 660 512">
   <path fill="currentColor"
d="M272 -23h-16h16h-16q-41 1 -68 28t-28 68v16v0h16v0q41 -1 68 -28t28 -68v-16v0zM160 105h-4q-43 47 -44 112q2 88 61 147t147 61h28v0q62 0 118 28l10 5v0q6 4 3 11q-4 6 -10 3l-10 -5v0q-53 -26 -111 -26h-28v0v0v0h-28v0q-58 0 -110 26l-10 5v0q-7 3 -11 -3
q-3 -7 4 -11l9 -5v0q35 -17 73 -24q-38 -13 -69 -39q-45 17 -89 3q-44 -15 -70 -57l-9 -16v0q-5 -12 5 -19q29 -16 60 -16q-34 -15 -54 -46t-21 -70v-18v0q1 -13 14 -14q33 0 59 17q-21 -31 -23 -68q-2 -36 17 -71l9 -15v0q7 -11 19 -5q37 22 50 60q8 -41 38 -67t73 -27h16
v0q15 1 16 16v16v0q-1 48 -33 79q-31 32 -79 33h-16v0zM136 104q2 -28 -10 -53v0v0q-12 -26 -37 -41l-8 13v0q-20 37 -14 75q7 39 37 66q10 -33 32 -60v0zM117 312q-45 -22 -92 2l8 13v0q21 36 57 49q36 14 74 2q-29 -28 -47 -66v0zM96 217q0 -9 1 -18q-28 -43 -81 -46v16v0
q1 41 25 71q25 30 64 39q-9 -30 -9 -62v0zM480 89v-16v16v-16q-1 -41 -28 -68t-68 -28h-16v0v16v0q1 41 28 68t68 28h16v0zM505 104q21 27 31 60q30 -27 37 -66q6 -38 -14 -74l-8 -14v0q-25 15 -37 41q-12 25 -9 53v0zM567 154q26 -17 59 -17q13 1 14 14v18v0q-1 39 -21 70
t-54 46q31 0 60 16q10 7 5 19l-9 15v0q-26 43 -70 58q-44 14 -89 -3q-11 9 -24 17q-10 -3 -21 -6q50 -27 80 -75t31 -109q-1 -65 -44 -112h-4h-16v0q-48 -1 -79 -33q-32 -31 -33 -79v-16v0q1 -15 16 -16h16v0q43 1 73 27t38 67q13 -38 50 -60q12 -6 19 5l9 15v0q19 35 17 71
q-2 37 -23 68v0zM523 312q-18 38 -47 66q38 12 74 -2q36 -13 57 -49l8 -13v0q-47 -24 -92 -2v0zM543 199q1 9 1 18q0 32 -9 62q39 -9 64 -39q24 -30 25 -71v-16v0q-53 3 -81 46v0z" />
</svg>
