<?xml version="1.0" standalone="no"?>
<!DOCTYPE svg PUBLIC "-//W3C//DTD SVG 1.1//EN" "http://www.w3.org/Graphics/SVG/1.1/DTD/svg11.dtd" >
<svg xmlns="http://www.w3.org/2000/svg" xmlns:xlink="http://www.w3.org/1999/xlink" version="1.1" viewBox="-10 -40 596 512">
   <path fill="currentColor"
d="M176 89q1 -48 33 -79v0v0q31 -32 79 -33q48 1 79 33q32 31 33 79q1 7 8 8q7 -1 8 -8q-1 -54 -37 -91q-37 -36 -91 -37q-54 1 -91 37q-36 37 -37 91q0 32 14 59q15 27 39 45v0v0v0v0l-58 94v0q-12 -6 -27 -6q-27 1 -45 19t-19 45q1 27 19 45t45 19q27 -1 45 -19t19 -45
q-1 -31 -24 -50l59 -93v0q6 -13 -5 -22q-44 -33 -46 -91v0zM176 345q-1 27 -24 42q-24 13 -48 0q-23 -15 -24 -42q1 -27 24 -41q24 -13 48 0q23 14 24 41v0zM288 137q-27 -1 -42 -24q-12 -24 0 -48q15 -23 42 -24q27 1 42 24q12 24 0 48q-15 23 -42 24v0zM224 89q1 27 19 45
v0v0q18 18 45 19q15 0 27 -6l58 94v0q9 11 22 5q24 -13 53 -13q48 1 79 33q32 31 33 79q-1 48 -33 79q-31 32 -79 33q-33 0 -59 -17q-7 -3 -11 3t2 11q30 19 68 19q54 -1 91 -37q36 -37 37 -91q-1 -54 -37 -91q-37 -36 -91 -37q-33 0 -60 15h-1v0v0v0v0v0v0v0l-59 -93v0
q23 -19 24 -50q-1 -27 -19 -45t-45 -19q-27 1 -45 19t-19 45v0zM68 250q6 -4 3 -11q-5 -6 -11 -2q-27 17 -44 45q-16 28 -16 63q1 54 37 91q37 36 91 37q52 -1 88 -35q35 -33 40 -84v-1v0v0v0h129v0q3 24 20 40q18 15 43 16q27 -1 45 -19t19 -45q-1 -27 -19 -45t-45 -19
q-25 0 -43 16q-17 16 -20 40h-129v0q-14 1 -16 15q-4 45 -35 75q-31 29 -77 30q-48 -1 -79 -33q-32 -31 -33 -79q0 -30 14 -55t38 -40v0zM496 345q-1 27 -24 42q-24 12 -48 0q-23 -15 -24 -42q1 -27 24 -42q24 -12 48 0q23 15 24 42v0z" />
</svg>
