<?xml version="1.0" standalone="no"?>
<!DOCTYPE svg PUBLIC "-//W3C//DTD SVG 1.1//EN" "http://www.w3.org/Graphics/SVG/1.1/DTD/svg11.dtd" >
<svg xmlns="http://www.w3.org/2000/svg" xmlns:xlink="http://www.w3.org/1999/xlink" version="1.1" viewBox="-10 -40 468 512">
   <path fill="currentColor"
d="M112 57q-1 27 -24 42q-24 12 -48 0q-23 -15 -24 -42q1 -27 24 -42q24 -12 48 0q23 15 24 42v0zM64 -7q-36 1 -55 32q-18 32 0 64q19 31 55 32q36 -1 55 -32q18 -32 0 -64q-19 -31 -55 -32v0zM112 217q-1 27 -24 42q-24 12 -48 0q-23 -15 -24 -42q1 -27 24 -42
q24 -12 48 0q23 15 24 42v0zM64 153q-36 1 -55 32q-18 32 0 64q19 31 55 32q36 -1 55 -32q18 -32 0 -64q-19 -31 -55 -32v0zM64 329q27 1 42 24q12 24 0 48q-15 23 -42 24q-27 -1 -42 -24q-12 -24 0 -48q15 -23 42 -24v0zM0 377q1 36 32 55q32 18 64 0q31 -19 32 -55
q-1 -36 -32 -55q-32 -18 -64 0q-31 19 -32 55v0zM272 57q-1 27 -24 42q-24 12 -48 0q-23 -15 -24 -42q1 -27 24 -42q24 -12 48 0q23 15 24 42v0zM224 -7q-36 1 -55 32q-18 32 0 64q19 31 55 32q36 -1 55 -32q18 -32 0 -64q-19 -31 -55 -32v0zM224 169q27 1 42 24q12 24 0 48
q-15 23 -42 24q-27 -1 -42 -24q-12 -24 0 -48q15 -23 42 -24v0zM160 217q1 36 32 55q32 18 64 0q31 -19 32 -55q-1 -36 -32 -55q-32 -18 -64 0q-31 19 -32 55v0zM272 377q-1 27 -24 42q-24 12 -48 0q-23 -15 -24 -42q1 -27 24 -42q24 -12 48 0q23 15 24 42v0zM224 313
q-36 1 -55 32q-18 32 0 64q19 31 55 32q36 -1 55 -32q18 -32 0 -64q-19 -31 -55 -32v0zM384 9q27 1 42 24q12 24 0 48q-15 23 -42 24q-27 -1 -42 -24q-12 -24 0 -48q15 -23 42 -24v0zM320 57q1 36 32 55q32 18 64 0q31 -19 32 -55q-1 -36 -32 -55q-32 -18 -64 0
q-31 19 -32 55v0zM432 217q-1 27 -24 42q-24 12 -48 0q-23 -15 -24 -42q1 -27 24 -42q24 -12 48 0q23 15 24 42v0zM384 153q-36 1 -55 32q-18 32 0 64q19 31 55 32q36 -1 55 -32q18 -32 0 -64q-19 -31 -55 -32v0zM384 329q27 1 42 24q12 24 0 48q-15 23 -42 24
q-27 -1 -42 -24q-12 -24 0 -48q15 -23 42 -24v0zM320 377q1 36 32 55q32 18 64 0q31 -19 32 -55q-1 -36 -32 -55q-32 -18 -64 0q-31 19 -32 55v0z" />
</svg>
