<?xml version="1.0" standalone="no"?>
<!DOCTYPE svg PUBLIC "-//W3C//DTD SVG 1.1//EN" "http://www.w3.org/Graphics/SVG/1.1/DTD/svg11.dtd" >
<svg xmlns="http://www.w3.org/2000/svg" xmlns:xlink="http://www.w3.org/1999/xlink" version="1.1" viewBox="-10 -40 522 512">
   <path fill="currentColor"
d="M48 89q1 45 40 69q40 22 80 0q39 -24 40 -69q-1 -45 -40 -69q-40 -22 -80 0q-39 24 -40 69v0zM128 185q-26 0 -48 -13v0v0q-22 -13 -35 -35q-13 -23 -13 -48t13 -48q13 -22 35 -35t48 -13t48 13t35 35q13 23 13 48t-13 48q-13 22 -35 35t-48 13v0zM48 345q1 45 40 69
q40 22 80 0q39 -24 40 -69q-1 -45 -40 -69q-40 -22 -80 0q-39 24 -40 69v0zM128 441q-26 0 -48 -13v0v0q-22 -13 -35 -35q-13 -23 -13 -48t13 -48q13 -22 35 -35t48 -13t48 13t35 35q13 23 13 48t-13 48q-13 22 -35 35t-48 13v0zM384 169q45 -1 69 -40q22 -40 0 -80
q-24 -39 -69 -40q-45 1 -69 40q-22 40 0 80q24 39 69 40v0zM480 89q0 26 -13 48v0v0q-13 22 -35 35q-23 13 -48 13t-48 -13q-22 -13 -35 -35t-13 -48t13 -48t35 -35q23 -13 48 -13t48 13q22 13 35 35t13 48v0zM384 233q7 1 8 8v96v0h96v0q7 1 8 8q-1 7 -8 8h-96v0v96v0
q-1 7 -8 8q-7 -1 -8 -8v-96v0h-96v0q-7 -1 -8 -8q1 -7 8 -8h96v0v-96v0q1 -7 8 -8v0z" />
</svg>
