<?xml version="1.0" standalone="no"?>
<!DOCTYPE svg PUBLIC "-//W3C//DTD SVG 1.1//EN" "http://www.w3.org/Graphics/SVG/1.1/DTD/svg11.dtd" >
<svg xmlns="http://www.w3.org/2000/svg" xmlns:xlink="http://www.w3.org/1999/xlink" version="1.1" viewBox="-10 -40 532 512">
   <path fill="currentColor"
d="M437 36v0v0v0q-13 -13 -27 -23q-23 -15 -44 -1l-20 13v0q-4 2 -9 0l-2 -1v0q-6 -2 -6 -7l-5 -23v0q-6 -25 -32 -31q-18 -2 -36 -2t-36 3q-26 5 -32 31l-4 23v0q-1 4 -7 6l-2 1v0q-5 2 -9 0l-19 -13v0q-22 -14 -45 1q-14 10 -27 23v0v0v0v0v0v0q-13 13 -23 27
q-15 23 -1 45l13 19v0q2 4 0 10l-1 1v0q-2 6 -7 7l-23 4v0q-25 6 -31 32q-2 18 -2 36t3 36q5 26 31 32l23 4v0q4 1 6 7l1 2v0q2 5 0 9l-13 19v0q-14 22 1 45q21 29 50 50q23 15 45 1l19 -13v0q4 -2 9 0l2 1v0q6 2 7 7l4 23v0q6 25 32 31q18 2 36 2t36 -2q26 -6 32 -31l4 -23
v0q1 -5 7 -7l2 -1v0q5 -2 9 0l19 13v0q22 14 45 -1q29 -21 50 -50q15 -23 1 -45l-13 -19v0q-2 -4 0 -9l1 -2v0q2 -6 7 -7l23 -4v0q25 -6 31 -32q2 -18 2 -36v0v0v0v0v0v0q0 -18 -2 -35q-6 -27 -31 -33l-23 -4v0q-5 -1 -7 -6l-1 -2v0q-2 -6 0 -10l13 -19v0q14 -22 -1 -45
q-10 -14 -22 -26v0v0l-1 -1v0zM448 73q8 12 0 26l-13 19v0q-7 12 -2 25l1 1v0q5 13 18 16l23 5v0q16 3 19 19q2 16 2 33v0v0q0 17 -2 33q-3 15 -19 19l-23 5v0q-13 3 -18 15l-1 2v0q-5 13 2 25l13 19v0q8 13 0 26q-21 27 -47 48q-13 8 -27 0l-19 -13v0q-12 -7 -25 -2l-1 1v0
q-13 5 -16 18l-5 23v0q-3 15 -19 19q-16 2 -33 2t-33 -2q-15 -3 -19 -19l-5 -23v0q-3 -13 -16 -18l-1 -1v0q-13 -5 -25 2l-19 13v0q-14 8 -26 0q-27 -21 -48 -48q-8 -13 0 -26l13 -19v0q7 -12 2 -25l-1 -2v0q-5 -12 -18 -15l-23 -5v0q-16 -4 -19 -19q-2 -16 -2 -33t2 -34
q3 -15 19 -18l23 -5v0q13 -3 18 -16l1 -2v0q5 -12 -2 -24l-13 -19v0q-8 -14 0 -26q10 -14 22 -25l1 -1v0q11 -12 24 -22q13 -8 27 0l19 13v0q12 7 25 2l1 -1v0q13 -5 16 -18l5 -23v0q3 -15 19 -19q16 -2 33 -2t33 2q15 3 19 19l5 23v0q3 13 16 18l1 1v0q13 5 25 -2l19 -13v0
q14 -8 26 0q13 10 25 22l1 1v0q12 11 22 25v0zM280 122q0 -7 -7 -9q-7 0 -9 7l-32 192v0q0 7 7 9q7 0 9 -7l32 -192v0zM182 183q4 -6 0 -12q-6 -4 -12 0l-40 40v0q-4 6 0 12l40 40v0q6 4 12 0q4 -6 0 -12l-35 -34v0l35 -34v0zM342 171q-6 -4 -12 0q-4 6 0 12l35 34v0l-35 34
v0q-4 6 0 12q6 4 12 0l40 -40v0q4 -6 0 -12l-40 -40v0z" />
</svg>
