<?xml version="1.0" standalone="no"?>
<!DOCTYPE svg PUBLIC "-//W3C//DTD SVG 1.1//EN" "http://www.w3.org/Graphics/SVG/1.1/DTD/svg11.dtd" >
<svg xmlns="http://www.w3.org/2000/svg" xmlns:xlink="http://www.w3.org/1999/xlink" version="1.1" viewBox="-10 -40 524 512">
   <path fill="currentColor"
d="M64 457h48h-48h48v16v0h-48v0q-27 -1 -45 -19t-19 -45v-384v0q1 -27 19 -45t45 -19h140v0q20 0 34 14l132 132v0q14 14 14 34v124v0h-16v0v-124v0v-4v0h-120v0q-17 0 -28 -12q-12 -11 -12 -28v-120v0h-4v0h-140v0q-20 1 -34 14q-13 14 -14 34v384v0q1 20 14 34
q14 13 34 14v0zM361 121q-1 -1 -2 -3l-132 -132v0q-2 -1 -3 -2v113v0q2 22 24 24h113v0zM176 329h32h-32h32q17 0 28 12q12 11 12 28v64v0q0 17 -12 28q-11 12 -28 12h-32v0q-7 -1 -8 -8v-128v0q1 -7 8 -8v0zM184 457h24h-24h24q22 -2 24 -24v-64v0q-2 -22 -24 -24h-24v0
v112v0zM456 329h16h-16h16q14 0 23 9t9 23v8v0q-1 7 -8 8q-7 -1 -8 -8v-8v0q-1 -15 -16 -16h-16v0q-15 1 -16 16v80v0q1 15 16 16h16v0q15 -1 16 -16v-8v0q1 -7 8 -8q7 1 8 8v8v0q0 14 -9 23t-23 9h-16v0q-14 0 -23 -9t-9 -23v-80v0q0 -14 9 -23t23 -9v0zM296 361
q0 -14 9 -23v0v0q9 -9 23 -9h16v0q14 0 23 9t9 23v80v0q0 14 -9 23t-23 9h-16v0q-14 0 -23 -9t-9 -23v-80v0zM328 345q-15 1 -16 16v80v0q1 15 16 16h16v0q15 -1 16 -16v-80v0q-1 -15 -16 -16h-16v0z" />
</svg>
