<?xml version="1.0" standalone="no"?>
<!DOCTYPE svg PUBLIC "-//W3C//DTD SVG 1.1//EN" "http://www.w3.org/Graphics/SVG/1.1/DTD/svg11.dtd" >
<svg xmlns="http://www.w3.org/2000/svg" xmlns:xlink="http://www.w3.org/1999/xlink" version="1.1" viewBox="-10 -40 522 512">
   <path fill="currentColor"
d="M77 41v0v0v0l-16 62v0q-13 52 -13 105v18v0q0 53 13 105l16 62v0v0v0h359v0v0v0l15 -62v0q13 -52 13 -105v-18v0q0 -53 -13 -105l-15 -62v0v0v0h-359v0zM440 25l21 -26l-21 26l21 -26q3 -4 3 -8q-1 -13 -14 -14h-388v0q-13 1 -14 14q0 4 3 8l21 26v0h368v0zM72 409
l-21 26l21 -26l-21 26l-12 -10v0l12 10v0q-3 4 -3 8q1 13 14 14h388v0q13 -1 14 -14q0 -4 -3 -8l-21 -26v0h-368v0zM480 -9q0 10 -6 18l-23 28v0l16 63v0q13 53 13 108v18v0q0 55 -13 109l-16 62v0l23 28v0q6 8 6 18q0 13 -9 21q-8 9 -21 9h-388v0q-13 0 -21 -9
q-9 -8 -9 -21q0 -10 7 -18l22 -28v0l-16 -62v0q-13 -54 -13 -109v-18v0q0 -55 13 -108l16 -63v0l-22 -28v0q-7 -8 -7 -18q0 -13 9 -21q8 -9 21 -9h388v0q13 0 21 9q9 8 9 21v0zM151 137q-6 1 -7 7q1 44 30 74q30 30 74 31v-57v0q-10 -24 -31 -39q-21 -16 -50 -16h-16v0z
M264 192v57v-57v57q44 -1 74 -31q29 -30 30 -74q-1 -6 -7 -7h-16v0q-29 0 -50 16q-21 15 -31 39v0zM248 265q-51 -1 -85 -36v0v0q-34 -34 -35 -85q2 -21 23 -23h16v0q30 0 53 14t36 37q13 -23 36 -37t53 -14h16v0q21 2 23 23q-1 51 -35 85q-34 35 -85 36v64v0q-1 7 -8 8
q-7 -1 -8 -8v-64v0z" />
</svg>
