<?xml version="1.0" standalone="no"?>
<!DOCTYPE svg PUBLIC "-//W3C//DTD SVG 1.1//EN" "http://www.w3.org/Graphics/SVG/1.1/DTD/svg11.dtd" >
<svg xmlns="http://www.w3.org/2000/svg" xmlns:xlink="http://www.w3.org/1999/xlink" version="1.1" viewBox="-10 -40 660 512">
   <path fill="currentColor"
d="M384 -15q2 -22 24 -24h80v0q22 2 24 24v8v0h-16v0v-8v0q-1 -7 -8 -8h-80v0q-7 1 -8 8v8v0h-16v0v-8v0zM352 153h-16h16h-16q-1 -34 -23 -57q-23 -22 -57 -23h-128v0q-34 1 -57 23q-22 23 -23 57h-16v0q1 -41 28 -68t68 -28h128v0q41 1 68 28t28 68v0zM575 153h-16h16h-16
q-2 -10 -7 -18q-5 -9 0 -17q7 -11 8 -25q-1 -27 -26 -40l-13 -6v0q-13 -6 -28 -6h-91v0q-15 0 -28 6l-13 6v0q-8 4 -14 10q-5 -5 -12 -10q8 -9 19 -14l13 -6v0q17 -8 35 -8h91v0q18 0 35 8l13 6v0q33 17 35 54q-1 19 -10 34q7 11 9 26v0zM32 185h15h-15h600q7 1 8 8
q-1 7 -8 8h-26v0l-22 201v0q-4 31 -26 51q-22 19 -54 20h-368v0q-32 -1 -54 -20q-22 -20 -26 -51l-22 -201v0h-26v0q-7 -1 -8 -8q1 -7 8 -8h24v0zM590 201h-540h540h-540l22 199v0q3 25 21 41q18 15 43 16h368v0q25 -1 43 -16q18 -16 21 -41l22 -199v0zM144 -7v24v-24v24
q-1 7 -8 8h-16v0q-7 -1 -8 -8q1 -7 8 -8h8v0v-16v0q0 -14 9 -23t23 -9h64v0q14 0 23 9t9 23v16v0h8v0q7 1 8 8q-1 7 -8 8h-16v0q-7 -1 -8 -8v-24v0q-1 -15 -16 -16h-64v0q-15 1 -16 16v0z" />
</svg>
