<?xml version="1.0" standalone="no"?>
<!DOCTYPE svg PUBLIC "-//W3C//DTD SVG 1.1//EN" "http://www.w3.org/Graphics/SVG/1.1/DTD/svg11.dtd" >
<svg xmlns="http://www.w3.org/2000/svg" xmlns:xlink="http://www.w3.org/1999/xlink" version="1.1" viewBox="-10 -40 660 512">
   <path fill="currentColor"
d="M120 -23h80h-80h80q7 1 8 8v56v0h-96v0v-56v0q1 -7 8 -8v0zM96 41h-24h24h-24q-7 1 -8 8q1 7 8 8h24h152q7 -1 8 -8q-1 -7 -8 -8h-24v0v-56v0q-2 -22 -24 -24h-80v0q-22 2 -24 24v56v0zM256 105q48 1 79 33v0v0q32 31 33 79v192v0q-1 20 -14 34q-14 13 -34 14h-256v0
q-20 -1 -34 -14q-13 -14 -14 -34v-192v0q1 -48 33 -79q31 -32 79 -33h128v0zM128 89q-54 1 -91 37v0v0q-36 37 -37 91v192v0q1 27 19 45t45 19h256v0q23 0 39 -14q17 -13 23 -34v0v0q2 -7 2 -16v-45v0v0v0v-135v0v0v0v-12v0q0 -17 -4 -32v0v0q-12 -42 -45 -69
q-34 -26 -79 -27h-128v0zM280 169q-17 0 -28 12v0v0q-12 11 -12 28v80v0q0 17 12 28q11 12 28 12t28 -12q12 -11 12 -28v-80v0q0 -17 -12 -28q-11 -12 -28 -12v0zM256 209q2 -22 24 -24q22 2 24 24v80v0q-2 22 -24 24q-22 -2 -24 -24v-80v0zM404 456q20 16 48 17h112v0
q32 -1 54 -22q21 -22 22 -54q-1 -30 -19 -51q18 -20 19 -49q-1 -29 -19 -49q18 -20 19 -49q0 -23 -12 -40q-11 -18 -31 -28l-5 -2v0q-16 -8 -35 -8h-88v0q-21 0 -39 9l-10 4v0q-11 5 -20 14q4 8 7 16q8 -10 20 -15l10 -5v0q15 -7 32 -7h88v0q15 0 29 6l4 3v0q33 16 34 53
q0 23 -15 39q-8 10 0 21q14 16 15 38q-1 23 -15 38q-9 11 0 22q15 16 15 40q-1 25 -17 42q-17 17 -43 18h-112v0q-24 -1 -41 -17q-3 8 -7 16v0zM464 57q1 -15 16 -16h64v0q15 1 16 16v32v0h16v0v-32v0q0 -14 -9 -23t-23 -9h-64v0q-14 0 -23 9t-9 23v32v0h16v0v-32v0z" />
</svg>
