<?xml version="1.0" standalone="no"?>
<!DOCTYPE svg PUBLIC "-//W3C//DTD SVG 1.1//EN" "http://www.w3.org/Graphics/SVG/1.1/DTD/svg11.dtd" >
<svg xmlns="http://www.w3.org/2000/svg" xmlns:xlink="http://www.w3.org/1999/xlink" version="1.1" viewBox="-10 -40 586 512">
   <path fill="currentColor"
d="M192 -39q75 2 124 51v0v0q50 50 52 124q-10 5 -16 12v-11q-2 -68 -47 -113t-113 -47q-68 2 -113 47t-47 113q1 52 29 91q5 8 11 16q1 2 3 4v0v0v0v0q1 1 1 2q19 25 35 53q11 20 14 42h-16v0q-3 -18 -12 -34q-15 -27 -34 -52v0v0v0v0v0v0v0l-16 -22q-30 -43 -31 -100
q2 -75 52 -124q49 -50 124 -52v0zM123 377h123h-123h123q3 8 7 16h-125v0q1 27 19 45t45 19q26 -1 43 -17q18 -16 21 -41q1 3 2 5v0q5 8 10 15q-9 24 -29 39t-47 15q-34 -1 -57 -23q-22 -23 -23 -57v-5v0q1 -10 11 -11v0zM184 41q-37 1 -62 26v0v0q-25 25 -26 62q-1 7 -8 8
q-7 -1 -8 -8q1 -44 30 -74q30 -29 74 -30q7 1 8 8q-1 7 -8 8v0zM388 180v17v-17v17q-1 22 -20 32q-18 11 -37 1l-14 -8v0q-9 11 -17 24q-7 13 -12 26l15 9v0q17 11 17 32q0 20 -17 32l-15 8v0q5 13 12 26q8 13 17 24l14 -8v0q19 -10 37 1q19 10 20 32v18v0q14 3 28 3
q15 0 28 -3v-19v0q2 -21 20 -31q17 -11 37 -1l14 8v0q9 -10 17 -23q7 -13 12 -27l-15 -8v0q-17 -12 -17 -32t17 -32l15 -8v0q-5 -14 -12 -27q-8 -13 -17 -23l-14 8v0q-20 9 -37 -1q-18 -11 -20 -32v-18v0q-13 -3 -28 -3q-14 0 -28 3v0zM383 164q16 -4 33 -4t33 4q10 3 11 15
v19v0q0 11 11 18q12 6 22 0l14 -8v0q11 -5 19 2q11 13 20 28q8 15 13 31q3 11 -7 17l-15 9v0q-9 5 -9 18q0 12 9 18l15 8v0q10 6 7 17q-5 16 -13 31q-9 15 -20 28q-8 7 -19 2l-14 -8v0q-10 -6 -22 0q-11 7 -11 18v19v0q-1 12 -11 15q-16 4 -33 4t-33 -4q-10 -3 -11 -15v-18
v0q0 -12 -11 -18q-12 -7 -22 -1l-14 8v0q-10 5 -19 -2q-11 -13 -20 -28q-8 -15 -13 -31q-3 -11 7 -17l15 -8v0q9 -6 9 -19q0 -12 -9 -18l-15 -8v0q-10 -6 -7 -17q5 -16 13 -31q9 -15 20 -28q9 -7 19 -2l14 8v0q10 6 22 0q11 -7 11 -19v-18v0q1 -12 11 -15v0zM416 345
q14 -1 23 -10v0v0q9 -9 9 -22q0 -14 -9 -23t-23 -9t-23 9t-9 23q0 13 9 22t23 10v0zM416 265q27 1 42 24q12 24 0 48q-15 23 -42 24q-27 -1 -42 -24q-12 -24 0 -48q15 -23 42 -24v0z" />
</svg>
