<?xml version="1.0" standalone="no"?>
<!DOCTYPE svg PUBLIC "-//W3C//DTD SVG 1.1//EN" "http://www.w3.org/Graphics/SVG/1.1/DTD/svg11.dtd" >
<svg xmlns="http://www.w3.org/2000/svg" xmlns:xlink="http://www.w3.org/1999/xlink" version="1.1" viewBox="-10 -40 660 512">
   <path fill="currentColor"
d="M272 201h103h-103h103q-8 8 -15 16h-88v0q-15 -1 -16 -16v-222v0q1 -16 17 -18q89 2 153 55q63 53 82 137h-12h-5q-18 -77 -77 -126q-59 -48 -141 -50v0v0v0q-1 1 -1 2v222v0zM240 249h99h-99h99q-4 8 -7 16h-108v0q-15 -1 -16 -16v-221v0q-2 -16 -14 -14q-78 17 -127 77
t-51 142q1 63 31 113q29 51 80 80q50 30 113 31q61 -1 110 -29q5 7 10 13q-54 31 -120 32q-67 -1 -121 -33t-86 -86t-33 -121q2 -88 54 -152q53 -64 136 -83q14 -2 24 7q10 8 10 23v205v0v16v0h16v0zM496 457q35 0 64 -17v0v0q29 -17 47 -47q17 -30 17 -64t-17 -64
q-18 -30 -47 -47t-64 -17t-64 17t-47 47q-17 30 -17 64t17 64q18 30 47 47t64 17v0zM496 185q39 0 72 19v0v0q33 19 53 53q19 34 19 72t-19 72q-20 34 -53 53t-72 19t-72 -19t-53 -53q-19 -34 -19 -72t19 -72q20 -34 53 -53t72 -19v0zM468 279q-13 6 -12 18q0 7 12 13
q11 5 29 10h1h1v0q18 5 34 12q17 8 19 29q-1 24 -21 33q-13 6 -27 7v18v0q-1 7 -8 8q-7 -1 -8 -8v-19v0q-19 -2 -36 -8v0v0v0q-2 -1 -4 -1q-1 -1 -2 -1q-7 -3 -6 -10q3 -7 10 -5q2 0 3 1q2 0 4 1v0v0v0v0v0q20 7 39 8q15 1 28 -5q12 -6 12 -19q0 -9 -11 -15q-12 -6 -31 -10
l-2 -1v0q-17 -4 -32 -11q-17 -7 -20 -26q1 -25 20 -33q14 -7 28 -8v-16v0q0 -7 8 -8q7 1 8 8v16v0q15 2 30 5q6 3 5 10q-2 7 -9 6q-17 -4 -34 -5q-15 0 -29 6h1z" />
</svg>
