<?xml version="1.0" standalone="no"?>
<!DOCTYPE svg PUBLIC "-//W3C//DTD SVG 1.1//EN" "http://www.w3.org/Graphics/SVG/1.1/DTD/svg11.dtd" >
<svg xmlns="http://www.w3.org/2000/svg" xmlns:xlink="http://www.w3.org/1999/xlink" version="1.1" viewBox="-10 -40 660 512">
   <path fill="currentColor"
d="M320 73q27 -1 42 -24q12 -24 0 -48q-15 -23 -42 -24q-27 1 -42 24q-12 24 0 48q15 23 42 24v0zM320 -39q36 1 55 32q18 32 0 64q-19 31 -55 32q-36 -1 -55 -32q-18 -32 0 -64q19 -31 55 -32v0zM298 137q-26 1 -44 17v0v0q-17 16 -20 42l-4 49v0q-1 22 12 37q14 14 36 15
h26h58q22 -1 36 -15q13 -15 12 -37l-4 -49v0q-3 -26 -20 -42q-18 -16 -44 -17h-44v0zM312 313v128v-128v128q0 14 -9 23t-23 9t-23 -9t-9 -23v-135v0q-35 -20 -34 -62l4 -50v0q3 -31 25 -52q23 -20 55 -21h44v0q32 1 55 21q22 21 25 52l4 50v0q2 20 -8 36q-9 17 -26 26v135
v0q0 14 -9 23t-23 9t-23 -9t-9 -23v-128v0h-16v0zM376 441v-129v129v-129q-7 1 -14 1h-18v0v128v0q1 15 16 16q15 -1 16 -16v0zM296 313h-18h18h-18q-7 0 -14 -1v129v0q1 15 16 16q15 -1 16 -16v-128v0zM112 425q58 -1 104 -31v19v0q-47 27 -104 28h-16v0q-14 0 -23 -9
t-9 -23q1 -70 40 -122q-48 -38 -76 -93q-27 -55 -28 -121v-48v0q0 -14 9 -23t23 -9q68 1 125 28q57 28 97 77q-7 3 -14 7q-38 -44 -92 -70q-53 -25 -116 -26q-15 1 -16 16v48v0q1 62 26 114q26 51 72 87l6 5v0q5 5 1 11l-4 6v0q-36 49 -37 113q1 15 16 16h16v0zM424 413v-19
v19v-19q46 30 104 31h16v0q15 -1 16 -16q-1 -64 -37 -113l-4 -6v0q-4 -6 1 -11l6 -5v0q46 -36 72 -87q25 -52 26 -114v-48v0q-1 -15 -16 -16q-63 1 -116 26q-54 26 -92 70q-7 -4 -14 -7q40 -49 97 -77q57 -27 125 -28q14 0 23 9t9 23v48v0q-1 66 -28 121q-28 55 -76 93
q39 52 40 122q0 14 -9 23t-23 9h-16v0q-57 -1 -104 -28v0z" />
</svg>
