<?xml version="1.0" standalone="no"?>
<!DOCTYPE svg PUBLIC "-//W3C//DTD SVG 1.1//EN" "http://www.w3.org/Graphics/SVG/1.1/DTD/svg11.dtd" >
<svg xmlns="http://www.w3.org/2000/svg" xmlns:xlink="http://www.w3.org/1999/xlink" version="1.1" viewBox="-10 -40 532 512">
   <path fill="currentColor"
d="M332 391q-35 66 -76 66q-12 0 -25 -7v2v0q-4 11 -12 18q18 3 37 3q72 -1 129 -35q58 -34 92 -92t35 -129q-1 -72 -35 -129q-34 -58 -92 -92q-57 -34 -129 -35q-72 1 -129 35q-58 34 -92 92q-34 57 -35 129q0 19 3 37q6 -7 14 -10q-1 -13 -1 -27q0 -42 14 -80h104v0
q-6 36 -6 75l16 -5v0q1 -37 7 -70h210v0q7 38 7 80t-7 80h-86v0l-5 16v0h88v0q-9 45 -26 78v0zM180 43q35 -66 76 -66t76 66q17 33 26 78h-204v0q9 -45 26 -78v0zM384 217q0 -42 -6 -80h104v0q14 38 14 80t-14 80h-104v0q6 -38 6 -80v0zM375 121q-20 -95 -67 -138
q57 13 101 49t67 89h-101v0zM36 121q23 -53 67 -89v0v0q44 -36 102 -49q-48 43 -68 138h-101v0zM375 313h101h-101h101q-23 53 -67 89t-102 50q48 -43 68 -139v0zM264 219q1 -4 -2 -8q-4 -3 -8 -2l-224 64v0q-6 2 -6 8t6 8l108 34v0l-136 136v0q-4 6 0 12q6 4 12 0l136 -136
v0l34 108v0q2 6 8 6t8 -6l64 -224v0zM60 281l184 -52l-184 52l184 -52l-52 184v0l-31 -96v0q-1 -3 -5 -5l-96 -31v0z" />
</svg>
