<?xml version="1.0" standalone="no"?>
<!DOCTYPE svg PUBLIC "-//W3C//DTD SVG 1.1//EN" "http://www.w3.org/Graphics/SVG/1.1/DTD/svg11.dtd" >
<svg xmlns="http://www.w3.org/2000/svg" xmlns:xlink="http://www.w3.org/1999/xlink" version="1.1" viewBox="-10 -40 596 512">
   <path fill="currentColor"
d="M64 9q-20 1 -34 14v0v0q-13 14 -14 34v320v0q1 20 14 34q14 13 34 14h448v0q20 -1 34 -14q13 -14 14 -34v-320v0q-1 -20 -14 -34q-14 -13 -34 -14h-448v0zM0 57q1 -27 19 -45v0v0q18 -18 45 -19h448v0q27 1 45 19t19 45v320v0q-1 27 -19 45t-45 19h-448v0q-27 -1 -45 -19
t-19 -45v-320v0zM112 233h192h-192h192q7 1 8 8q-1 7 -8 8h-192v0q-7 -1 -8 -8q1 -7 8 -8v0zM368 233h96h-96h96q7 1 8 8q-1 7 -8 8h-96v0q-7 -1 -8 -8q1 -7 8 -8v0zM112 329h96h-96h96q7 1 8 8q-1 7 -8 8h-96v0q-7 -1 -8 -8q1 -7 8 -8v0zM272 329h192h-192h192q7 1 8 8
q-1 7 -8 8h-192v0q-7 -1 -8 -8q1 -7 8 -8v0z" />
</svg>
