<?xml version="1.0" standalone="no"?>
<!DOCTYPE svg PUBLIC "-//W3C//DTD SVG 1.1//EN" "http://www.w3.org/Graphics/SVG/1.1/DTD/svg11.dtd" >
<svg xmlns="http://www.w3.org/2000/svg" xmlns:xlink="http://www.w3.org/1999/xlink" version="1.1" viewBox="-10 -40 532 512">
   <path fill="currentColor"
d="M16 184q2 -88 61 -146v0v0q58 -59 146 -61h17v0q54 1 99 29q44 29 67 76q4 9 9 18q0 3 1 5l1 1q9 21 20 42q16 33 43 59l4 3v0q12 11 12 27q0 15 -11 26q-10 10 -25 10h-20v0q-7 1 -8 8v72v0q0 17 -12 28q-11 12 -28 12h-80v0q-7 1 -8 8v64v0q1 7 8 8q7 -1 8 -8v-56v0h72
v0q24 -1 40 -16q15 -16 16 -40v-64v0h12v0q22 -1 37 -15q14 -15 15 -37q0 -23 -17 -39l-4 -4v0q-25 -22 -40 -54q-10 -20 -19 -41h-1l-10 -24q-25 -51 -73 -82q-49 -31 -108 -32h-17v0q-62 1 -113 30q-50 30 -80 80q-29 51 -30 113q1 81 47 140q16 19 17 42v99v0q1 7 8 8
q7 -1 8 -8v-99v0q-1 -30 -20 -52q-43 -55 -44 -130v0zM208 74q8 -1 16 -1t16 1v4v0q2 26 24 38q21 13 44 2l4 -2v0q4 5 8 11l2 4v0q4 6 6 12l-3 2v0q-22 15 -21 40q-1 25 20 40l4 2v0l-6 12l-2 4v0q-4 6 -8 11l-4 -2v0q-23 -11 -44 2q-22 12 -24 38v4v0q-8 1 -16 1t-16 -1
v-4v0q-2 -26 -24 -38q-21 -13 -45 -2l-3 2v0q-5 -5 -8 -11l-2 -4v0q-4 -6 -6 -12l3 -2v0q22 -15 21 -40q1 -25 -21 -39l-3 -3v0q2 -6 6 -12l2 -4v0q3 -6 8 -11l3 2v0q24 11 45 -2q22 -12 24 -38v-4v0zM204 59q-11 2 -12 14v5v0q-1 15 -16 24t-28 2l-5 -3v0q-11 -5 -19 3
q-5 7 -10 15v0v0v0v0l-2 4v0v0v0v0v0q-4 8 -7 16q-4 11 6 18l5 2v0q12 8 12 26t-12 26l-5 2v0q-10 7 -6 18q3 8 7 16v0v0v0v0l2 4v0v0v0v0v0l10 14q8 9 19 3l5 -2v0q13 -7 28 1q15 9 16 24v5v0q1 12 12 15q10 2 20 2t20 -2q11 -3 12 -15v-5v0q1 -15 16 -24q15 -8 29 -1l4 2
v0q11 6 19 -3l10 -14v0v0v0v0l2 -4v0v0v0v0v0q5 -8 8 -16q3 -11 -7 -18l-4 -2v0q-12 -8 -13 -26q0 -18 13 -26l4 -2v0q10 -7 7 -18q-3 -8 -8 -16v0v0v0v0l-2 -4v0v0v0v0v0q-5 -8 -10 -14q-8 -9 -19 -3l-5 2v0q-13 7 -28 -2t-16 -24v-4v0q-1 -13 -12 -15q-10 -2 -20 -2t-20 2
v0zM224 161q22 2 24 24q-2 22 -24 24q-22 -2 -24 -24q2 -22 24 -24v0zM224 225q23 -1 35 -20q10 -20 0 -40q-12 -19 -35 -20q-23 1 -35 20q-10 20 0 40q12 19 35 20v0z" />
</svg>
