<?xml version="1.0" standalone="no"?>
<!DOCTYPE svg PUBLIC "-//W3C//DTD SVG 1.1//EN" "http://www.w3.org/Graphics/SVG/1.1/DTD/svg11.dtd" >
<svg xmlns="http://www.w3.org/2000/svg" xmlns:xlink="http://www.w3.org/1999/xlink" version="1.1" viewBox="-10 -40 522 512">
   <path fill="currentColor"
d="M277 5l-54 66l54 -66l-54 66l44 -25v0q20 -11 40 -4t29 27q9 -20 29 -27t40 4l44 25v0l-54 -66v0q-23 -27 -59 -28q-36 1 -59 28v0zM336 108q-5 11 -14 19l-52 41v0q10 5 19 11l15 10v0v-4q0 -14 9 -23t23 -9t23 9t9 23v4l15 -10v0q9 -6 19 -11l-51 -41v0q-10 -8 -15 -19
v0zM336 201q15 -1 16 -16q-1 -15 -16 -16q-15 1 -16 16q1 15 16 16v0zM336 217q-18 0 -34 -10l-22 -15v0q-12 -8 -25 -13l-49 -17v0q-28 -12 -30 -43q0 -17 10 -30l29 -34v0l-20 -46v0q-3 -6 -3 -13q0 -15 10 -25t25 -10h1v0q5 0 11 2l44 15v0q24 -17 53 -17t53 17l44 -15v0
q6 -2 12 -2h1v0q14 0 24 10t10 25q0 7 -3 13l-20 46v0l29 35v0q10 12 10 29q-2 31 -30 43l-49 17v0q-13 5 -26 13l-21 15v0q-16 10 -34 10v0zM419 161l41 -14l-41 14l41 -14q19 -8 20 -28q0 -8 -4 -15v0v0l-79 -44v0q-15 -8 -30 -2q-14 7 -18 24q-3 19 12 32l58 47v0z
M312 114q14 -12 11 -32q-4 -17 -18 -23q-15 -7 -30 1l-79 44v0v0v0q-4 7 -4 15q1 20 20 28l41 14v0l58 -47h1zM234 -22q-3 -1 -6 -1h-1v0q-17 2 -19 19q0 3 2 7l16 38v0l38 -46v0q2 -3 5 -5l-35 -12v0zM408 -5l38 46l-38 -46l38 46l17 -38v0q1 -4 1 -7q-2 -17 -19 -19h-1v0
q-3 0 -6 1l-35 12v0l4 4q0 1 1 1v0zM128 236q27 -35 66 -54q6 3 14 5l7 3v0q-50 20 -80 63q-30 44 -31 100v8v0q-1 7 -8 8q-7 -1 -8 -8v-8v0q0 -29 8 -56h-80v0v72v0q1 37 26 62t62 26h232v0v-24v0q0 -17 -12 -28q-11 -12 -28 -12h-48v0q-7 -1 -8 -8q1 -7 8 -8h48v0
q24 1 40 16q15 16 16 40v24v0h112v0v-24v0q0 -17 -12 -28q-11 -12 -28 -12h-16v0q-7 -1 -8 -8q1 -7 8 -8h16v0q24 1 40 16q15 16 16 40v32v0q-1 7 -8 8h-368v0q-44 -1 -74 -30q-29 -30 -30 -74v-312v0q1 -27 19 -45t45 -19q27 1 45 19t19 45v179v0zM464 252q-1 -36 -30 -56
l19 -5v0q26 24 27 61q-1 41 -33 66l-31 22v0q-12 9 -27 8q-14 -1 -25 -12q-13 -13 -12 -30q1 -18 16 -29l43 -34v0q6 -4 11 1q4 6 -1 11l-43 34v0q-9 7 -10 18q0 10 7 18q15 13 32 3l30 -23v0q26 -20 27 -53v0zM102 281q4 -11 10 -21v-59v0h-96v0v80v0h86v0zM112 105h-96h96
h-96v80v0h96v0v-80v0zM112 89v-32v32v-32q-1 -20 -14 -34q-14 -13 -34 -14q-20 1 -34 14q-13 14 -14 34v32v0h96v0zM308 336v1v-1v1q-11 10 -25 11q-15 2 -27 -7l-53 -37v0q-5 -5 -2 -12q5 -5 12 -2l52 38v0q17 10 31 -3h1v0q7 -8 7 -19q-1 -10 -10 -17l-43 -34v0
q-5 -5 -1 -11q5 -5 11 -1l43 33v0q15 12 16 29q1 18 -12 31v0zM272 89q1 -15 16 -16q15 1 16 16q-1 15 -16 16q-15 -1 -16 -16v0zM384 73q15 1 16 16q-1 15 -16 16q-15 -1 -16 -16q1 -15 16 -16v0z" />
</svg>
