<?xml version="1.0" standalone="no"?>
<!DOCTYPE svg PUBLIC "-//W3C//DTD SVG 1.1//EN" "http://www.w3.org/Graphics/SVG/1.1/DTD/svg11.dtd" >
<svg xmlns="http://www.w3.org/2000/svg" xmlns:xlink="http://www.w3.org/1999/xlink" version="1.1" viewBox="-10 -40 522 512">
   <path fill="currentColor"
d="M256 -39q-7 1 -8 8v24v0v0v0q-65 5 -108 50q-42 44 -44 110v37v0q-1 64 -40 115l-17 21v0q-7 8 -7 19q0 14 9 23t23 9h384v0q14 0 23 -9t9 -23q0 -11 -7 -19l-17 -21v0q-39 -51 -40 -115v-37v0q-2 -66 -44 -110q-43 -45 -108 -50v0v0v-24v0q-1 -7 -8 -8v0zM112 153
q2 -61 42 -102v0v0q41 -40 102 -42q61 2 102 42q40 41 42 102v37v0q1 70 44 125l17 20v0q3 5 3 10q-1 15 -16 16h-384v0q-15 -1 -16 -16q0 -5 3 -9l17 -21v0q43 -55 44 -125v-37v0zM200 401q-7 1 -8 8q0 26 19 45t45 19t45 -19t19 -45q-1 -7 -8 -8q-7 1 -8 8q0 20 -14 34
t-34 14t-34 -14t-14 -34q-1 -7 -8 -8v0zM100 -17q5 -6 1 -11q-6 -5 -11 -1q-35 31 -54 74q-20 42 -20 92q1 7 8 8q7 -1 8 -8q0 -46 18 -86q18 -39 50 -68v0zM423 -29q-6 -4 -12 1q-4 5 1 11q32 29 50 68q18 40 18 86q1 7 8 8q7 -1 8 -8q0 -50 -20 -92q-19 -43 -53 -74v0z
" />
</svg>
