<?xml version="1.0" standalone="no"?>
<!DOCTYPE svg PUBLIC "-//W3C//DTD SVG 1.1//EN" "http://www.w3.org/Graphics/SVG/1.1/DTD/svg11.dtd" >
<svg xmlns="http://www.w3.org/2000/svg" xmlns:xlink="http://www.w3.org/1999/xlink" version="1.1" viewBox="-10 -40 660 512">
   <path fill="currentColor"
d="M160 9h416h-416h416q20 1 34 14q13 14 14 34v50v0v0h-1q-21 6 -34 23q-13 16 -13 39t13 39q13 17 34 23h1v50v0q-1 20 -14 34q-14 13 -34 14h-416v0q-20 -1 -34 -14q-13 -14 -14 -34v-224v0q1 -20 14 -34q14 -13 34 -14v0zM96 57v224v-224v224q1 27 19 45t45 19h416v0
q27 -1 45 -19t19 -45v-51v0q-1 -11 -13 -15q-15 -4 -25 -17q-10 -12 -10 -29t10 -29q10 -13 25 -17q12 -4 13 -15v-51v0q-1 -27 -19 -45t-45 -19h-416v0q-27 1 -45 19t-19 45v0zM496 89q15 -1 16 -16q-1 -15 -16 -16q-15 1 -16 16q1 15 16 16v0zM496 153q15 -1 16 -16
q-1 -15 -16 -16q-15 1 -16 16q1 15 16 16v0zM512 201q-1 -15 -16 -16q-15 1 -16 16q1 15 16 16q15 -1 16 -16v0zM496 281q15 -1 16 -16q-1 -15 -16 -16q-15 1 -16 16q1 15 16 16v0zM16 57q-1 -7 -8 -8q-7 1 -8 8v280v0q1 44 30 74q30 29 74 30h448v0q7 -1 8 -8q-1 -7 -8 -8
h-448v0q-37 -1 -62 -26t-26 -62v-280v0z" />
</svg>
