<?xml version="1.0" standalone="no"?>
<!DOCTYPE svg PUBLIC "-//W3C//DTD SVG 1.1//EN" "http://www.w3.org/Graphics/SVG/1.1/DTD/svg11.dtd" >
<svg xmlns="http://www.w3.org/2000/svg" xmlns:xlink="http://www.w3.org/1999/xlink" version="1.1" viewBox="-10 -40 522 512">
   <path fill="currentColor"
d="M64 457h80h-80h80v16v0h-80v0q-27 -1 -45 -19t-19 -45v-384v0q1 -27 19 -45t45 -19h140v0q20 0 34 14l132 132v0q14 14 14 34v124v0h-16v0v-124v0v-4v0h-120v0q-17 0 -28 -12q-12 -11 -12 -28v-120v0h-4v0h-140v0q-20 1 -34 14q-13 14 -14 34v384v0q1 20 14 34
q14 13 34 14v0zM361 121q-1 -1 -2 -3l-132 -132v0q-2 -1 -3 -2v113v0q2 22 24 24h113v0zM216 337q0 14 8 25l16 25v0l17 -25v0q7 -11 7 -25q1 -7 8 -8q7 1 8 8q0 18 -10 34l-20 30v0l20 30v0q10 16 10 34q-1 7 -8 8q-7 -1 -8 -8q0 -14 -7 -25l-17 -25v0l-16 25v0
q-8 11 -8 25q-1 7 -8 8q-7 -1 -8 -8q0 -18 10 -34l20 -30v0l-20 -30v0q-10 -16 -10 -34q1 -7 8 -8q7 1 8 8v0zM328 465v-128v128v-128q1 -7 8 -8q7 1 8 8v120v0h40v0q7 1 8 8q-1 7 -8 8h-48v0q-7 -1 -8 -8v0zM416 367q0 -16 11 -27v0v0q11 -11 27 -11h26v0q7 1 8 8
q-1 7 -8 8h-26v0q-20 2 -22 22q0 13 12 19l31 16v0q20 11 21 33q0 16 -11 27t-27 11h-26v0q-7 -1 -8 -8q1 -7 8 -8h26v0q20 -2 22 -22q0 -13 -12 -19l-31 -16v0q-20 -11 -21 -33v0z" />
</svg>
