<?xml version="1.0" standalone="no"?>
<!DOCTYPE svg PUBLIC "-//W3C//DTD SVG 1.1//EN" "http://www.w3.org/Graphics/SVG/1.1/DTD/svg11.dtd" >
<svg xmlns="http://www.w3.org/2000/svg" xmlns:xlink="http://www.w3.org/1999/xlink" version="1.1" viewBox="-10 -40 468 512">
   <path fill="currentColor"
d="M144 57v32v-32v32h160v0v-32v0q-1 -34 -23 -57q-23 -22 -57 -23q-34 1 -57 23q-22 23 -23 57v0zM128 89v-32v32v-32q1 -41 28 -68t68 -28q41 1 68 28t28 68v32v0h80v0q20 1 34 14q13 14 14 34v240v0q-1 41 -28 68t-68 28h-256v0q-41 -1 -68 -28t-28 -68v-240v0
q1 -20 14 -34q14 -13 34 -14h80v0zM136 105h-88h88h-88q-14 0 -23 9t-9 23v240v0q1 34 23 57q23 22 57 23h256v0q34 -1 57 -23q22 -23 23 -57v-240v0q0 -14 -9 -23t-23 -9h-88h-176zM136 281q1 -7 8 -8h72v0v-72v0q1 -7 8 -8q7 1 8 8v72v0h72v0q7 1 8 8q-1 7 -8 8h-72v0v72
v0q-1 7 -8 8q-7 -1 -8 -8v-72v0h-72v0q-7 -1 -8 -8v0z" />
</svg>
