<?xml version="1.0" standalone="no"?>
<!DOCTYPE svg PUBLIC "-//W3C//DTD SVG 1.1//EN" "http://www.w3.org/Graphics/SVG/1.1/DTD/svg11.dtd" >
<svg xmlns="http://www.w3.org/2000/svg" xmlns:xlink="http://www.w3.org/1999/xlink" version="1.1" viewBox="-10 -40 596 512">
   <path fill="currentColor"
d="M337 -27q-3 -7 3 -11q7 -3 11 3l102 188v0h75h40q7 1 8 8q-1 7 -8 8h-28v0l-64 256v0q-6 21 -23 34q-16 14 -39 14h-252v0q-23 0 -39 -14q-17 -13 -23 -34l-64 -256v0h-28v0q-7 -1 -8 -8q1 -7 8 -8h24h91l102 -188v0q4 -6 11 -3q6 4 3 11l-98 180v0h294v0l-98 -180v0z
M524 169h-471h471h-471l62 252v0q5 16 17 26q13 10 30 10h252v0q17 0 30 -10q12 -10 17 -26l63 -252v0zM200 313q1 -7 8 -8h72v0v-72v0q1 -7 8 -8q7 1 8 8v72v0h72v0q7 1 8 8q-1 7 -8 8h-72v0v72v0q-1 7 -8 8q-7 -1 -8 -8v-72v0h-72v0q-7 -1 -8 -8v0z" />
</svg>
