<?xml version="1.0" standalone="no"?>
<!DOCTYPE svg PUBLIC "-//W3C//DTD SVG 1.1//EN" "http://www.w3.org/Graphics/SVG/1.1/DTD/svg11.dtd" >
<svg xmlns="http://www.w3.org/2000/svg" xmlns:xlink="http://www.w3.org/1999/xlink" version="1.1" viewBox="-10 -40 660 512">
   <path fill="currentColor"
d="M352 360q76 -8 125 -61v0v0q49 -53 51 -130q-2 -82 -56 -136t-136 -56q-74 2 -126 48q-53 45 -64 117l-17 6v0q10 -81 67 -133t140 -54q88 2 147 61t61 147q-2 84 -55 141l149 149v0q4 6 0 12q-6 4 -12 0l-149 -149v0q-52 48 -127 54q2 -7 2 -15v-1v0zM294 144l-160 53
l160 -53l-160 53q-6 2 -6 8v49v0l176 -59v0v-44v0q-1 -9 -10 -7v0zM304 329v-117v117v-117l-176 59v0v154v0q-1 20 -19 34q-18 13 -45 14q-27 -1 -45 -14q-18 -14 -19 -34q1 -20 19 -34q18 -13 45 -14q30 1 48 16v-128v0v-60v0q1 -17 16 -23l160 -54v0q13 -3 22 4t10 19v50
v0v152v0v3v5q-1 20 -19 34q-18 13 -45 14q-27 -1 -45 -14q-18 -14 -19 -34q1 -20 19 -34q18 -13 45 -14q30 1 48 16v0zM292 382q12 -10 12 -21t-12 -21q-14 -10 -36 -11q-22 1 -36 11q-12 10 -12 21t12 21q14 10 36 11q22 -1 36 -11v0zM100 446q12 -10 12 -21t-12 -21
q-14 -10 -36 -11q-22 1 -36 11q-12 10 -12 21t12 21q14 10 36 11q22 -1 36 -11v0z" />
</svg>
