<?xml version="1.0" standalone="no"?>
<!DOCTYPE svg PUBLIC "-//W3C//DTD SVG 1.1//EN" "http://www.w3.org/Graphics/SVG/1.1/DTD/svg11.dtd" >
<svg xmlns="http://www.w3.org/2000/svg" xmlns:xlink="http://www.w3.org/1999/xlink" version="1.1" viewBox="-10 -40 532 512">
   <path fill="currentColor"
d="M256 -39q-7 1 -8 8v496v0q1 7 8 8q7 -1 8 -8v-496v0q-1 -7 -8 -8v0zM16 89q0 -10 10 -15q10 -3 17 4l128 128v0q10 11 0 22l-128 128v0q-7 7 -17 4q-9 -5 -10 -15v-256v0zM183 240q9 -10 9 -23v0v0q0 -13 -9 -23l-128 -128v0q-16 -14 -35 -7q-19 9 -20 30v256v0
q1 21 20 30q19 7 35 -7l128 -128v0zM486 74q10 5 10 15v256v0q0 10 -10 15q-10 3 -17 -4l-128 -128v0q-10 -11 0 -22l128 -128v0q7 -7 17 -4v0zM329 194q-9 10 -9 23v0v0q0 13 9 23l128 128v0q16 14 35 7q19 -9 20 -30v-256v0q-1 -21 -20 -30q-19 -7 -35 7l-128 128v0z" />
</svg>
