<?xml version="1.0" standalone="no"?>
<!DOCTYPE svg PUBLIC "-//W3C//DTD SVG 1.1//EN" "http://www.w3.org/Graphics/SVG/1.1/DTD/svg11.dtd" >
<svg xmlns="http://www.w3.org/2000/svg" xmlns:xlink="http://www.w3.org/1999/xlink" version="1.1" viewBox="-10 -40 468 512">
   <path fill="currentColor"
d="M336 89q0 -30 -15 -56v0v0q-15 -26 -41 -41t-56 -15t-56 15t-41 41t-15 56t15 56t41 41t56 15t56 -15t41 -41t15 -56v0zM96 89q0 -35 17 -64v0v0q17 -29 47 -47q30 -17 64 -17t64 17q30 18 47 47t17 64t-17 64t-47 47q-30 17 -64 17t-64 -17q-30 -18 -47 -47t-17 -64v0z
M16 443q1 13 14 14h388v0q13 -1 14 -14q-2 -69 -48 -114q-45 -46 -114 -48h-92v0q-69 2 -114 48q-46 45 -48 114v0zM0 443q2 -75 52 -126v0v0q51 -50 126 -52h92v0q75 2 126 52q50 51 52 126q0 13 -9 21q-8 9 -21 9h-388v0q-13 0 -21 -9q-9 -8 -9 -21v0z" />
</svg>
