<?xml version="1.0" standalone="no"?>
<!DOCTYPE svg PUBLIC "-//W3C//DTD SVG 1.1//EN" "http://www.w3.org/Graphics/SVG/1.1/DTD/svg11.dtd" >
<svg xmlns="http://www.w3.org/2000/svg" xmlns:xlink="http://www.w3.org/1999/xlink" version="1.1" viewBox="-10 -40 532 512">
   <path fill="currentColor"
d="M112 9v56v-56v56h-96v0v-8v0q1 -20 14 -34q14 -13 34 -14h48v0zM112 161h-96h96h-96v-80v0h96v0v80v0zM0 169v8v-8v8v80v0v8v0v8v0v80v0v8v0v8v0v8v0q1 27 19 45t45 19h48h336q27 -1 45 -19t19 -45v-8v0v-8v0v-8v0v-80v0v-8v0v-8v0v-80v0v-8v0v-8v0v-80v0v-8v0v-8v0v-8v0
q-1 -27 -19 -45t-45 -19h-48h-336q-27 1 -45 19t-19 45v8v0v8v0v8v0v80v0v8v0zM16 177h96h-96h96v40v0v40v0h-96v0v-80v0zM128 225h256h-256h256v40v0v96v0v64v0h-256v0v-64v0v-96v0v-40v0zM384 209h-256h256h-256v-40v0v-96v0v-64v0h256v0v64v0v96v0v40v0zM400 217v-40v40
v-40h96v0v80v0h-96v0v-40v0zM16 353v-80v80v-80h96v0v80v0h-96v0zM16 377v-8v8v-8h96v0v56v0h-48v0q-20 -1 -34 -14q-13 -14 -14 -34v0zM400 65v-56v56v-56h48v0q20 1 34 14q13 14 14 34v8v0h-96v0zM400 161v-80v80v-80h96v0v80v0h-96v0zM400 353v-80v80v-80h96v0v80v0h-96
v0zM400 425v-56v56v-56h96v0v8v0q-1 20 -14 34q-14 13 -34 14h-48v0z" />
</svg>
