<?xml version="1.0" standalone="no"?>
<!DOCTYPE svg PUBLIC "-//W3C//DTD SVG 1.1//EN" "http://www.w3.org/Graphics/SVG/1.1/DTD/svg11.dtd" >
<svg xmlns="http://www.w3.org/2000/svg" xmlns:xlink="http://www.w3.org/1999/xlink" version="1.1" viewBox="-10 -40 532 512">
   <path fill="currentColor"
d="M264 9v200v-200v200h232v0v-152v0q-1 -20 -14 -34q-14 -13 -34 -14h-184v0zM248 9h-184h184h-184q-20 1 -34 14q-13 14 -14 34v152v0h232v0v-200v0zM16 225v152v-152v152q1 20 14 34q14 13 34 14h184v0v-200v0h-232v0zM264 425h184h-184h184q20 -1 34 -14q13 -14 14 -34
v-152v0h-232v0v200v0zM0 57q1 -27 19 -45v0v0q18 -18 45 -19h384v0q27 1 45 19t19 45v320v0q-1 27 -19 45t-45 19h-384v0q-27 -1 -45 -19t-19 -45v-320v0z" />
</svg>
