<?xml version="1.0" standalone="no"?>
<!DOCTYPE svg PUBLIC "-//W3C//DTD SVG 1.1//EN" "http://www.w3.org/Graphics/SVG/1.1/DTD/svg11.dtd" >
<svg xmlns="http://www.w3.org/2000/svg" xmlns:xlink="http://www.w3.org/1999/xlink" version="1.1" viewBox="-10 -40 532 512">
   <path fill="currentColor"
d="M256 -23q65 1 120 32v0v0q55 32 88 88q32 57 32 120t-32 120q-33 56 -88 88q-55 31 -120 32q-65 -1 -120 -32q-55 -32 -88 -88q-32 -57 -32 -120t32 -120q33 -56 88 -88q55 -31 120 -32v0zM256 473q70 -1 128 -34v0v0q58 -34 94 -94q34 -61 34 -128t-34 -128
q-36 -60 -94 -94q-58 -33 -128 -34q-70 1 -128 34q-58 34 -94 94q-34 61 -34 128t34 128q36 60 94 94q58 33 128 34v0zM256 73q-11 0 -19 8l-100 100v0q-9 9 -9 21q0 13 9 22t22 9h49v0v88v0q0 17 12 28q11 12 28 12h16v0q17 0 28 -12q12 -11 12 -28v-88v0h49v0q13 0 22 -9
t9 -22q0 -12 -9 -21l-100 -100v0q-8 -8 -19 -8v0zM248 92q3 -3 8 -3t8 3l100 100v0q4 4 4 10q-1 14 -15 15h-57v0q-7 1 -8 8v96v0q-2 22 -24 24h-16v0q-22 -2 -24 -24v-96v0q-1 -7 -8 -8h-57v0q-14 -1 -15 -15q0 -6 4 -10l100 -100v0z" />
</svg>
