<?xml version="1.0" standalone="no"?>
<!DOCTYPE svg PUBLIC "-//W3C//DTD SVG 1.1//EN" "http://www.w3.org/Graphics/SVG/1.1/DTD/svg11.dtd" >
<svg xmlns="http://www.w3.org/2000/svg" xmlns:xlink="http://www.w3.org/1999/xlink" version="1.1" viewBox="-10 -40 532 512">
   <path fill="currentColor"
d="M16 377v-88v88v-88q0 -4 1 -8h101v0q5 0 7 4l24 47v0q7 12 21 13h172v0q15 -1 22 -13l23 -47v0q2 -4 7 -4h101v0q1 4 1 8v88v0q-1 20 -14 34q-14 13 -34 14h-384v0q-20 -1 -34 -14q-13 -14 -14 -34v0zM492 265h-98h98h-98q-15 1 -22 13l-23 47v0q-2 4 -7 4h-172v0
q-5 0 -7 -4l-23 -47v0q-7 -12 -22 -13h-97v0l54 -220v0q5 -16 17 -26q13 -10 30 -10h268v0q17 0 30 10q12 10 17 26l55 220v0zM0 289v88v-88v88q1 27 19 45t45 19h384v0q27 -1 45 -19t19 -45v-88v0q0 -8 -2 -16l-58 -231v0q-6 -22 -23 -35q-16 -14 -39 -14h-268v0
q-23 0 -39 14q-17 13 -23 35l-58 231v0q-2 8 -2 16v0z" />
</svg>
