<?xml version="1.0" standalone="no"?>
<!DOCTYPE svg PUBLIC "-//W3C//DTD SVG 1.1//EN" "http://www.w3.org/Graphics/SVG/1.1/DTD/svg11.dtd" >
<svg xmlns="http://www.w3.org/2000/svg" xmlns:xlink="http://www.w3.org/1999/xlink" version="1.1" viewBox="-10 -40 522 512">
   <path fill="currentColor"
d="M44 185q-9 -1 -8 -9q15 -81 82 -135q50 -38 108 -46t113 14q54 21 94 70v0v0v0v0v0v0l31 42v0v-88v0q1 -7 8 -8q7 1 8 8v112v0q-1 7 -8 8h-112v0q-7 -1 -8 -8q1 -7 8 -8h96v0l-36 -48v0q-56 -68 -139 -78q-82 -11 -153 42q-62 51 -76 125q-2 7 -8 7v0zM40 281h112h-112
h112q7 1 8 8q-1 7 -8 8h-97v0l36 48v0q56 68 139 78q82 11 153 -42q62 -51 76 -125q2 -7 8 -7q9 1 8 9q-15 81 -82 136q-50 38 -108 45q-58 8 -113 -14q-55 -21 -94 -70v0v0v0v0v0v0l-30 -40v0v86v0q0 7 -8 8q-7 -1 -8 -8v-112v0q1 -7 8 -8v0z" />
</svg>
