<?xml version="1.0" standalone="no"?>
<!DOCTYPE svg PUBLIC "-//W3C//DTD SVG 1.1//EN" "http://www.w3.org/Graphics/SVG/1.1/DTD/svg11.dtd" >
<svg xmlns="http://www.w3.org/2000/svg" xmlns:xlink="http://www.w3.org/1999/xlink" version="1.1" viewBox="-10 -40 532 512">
   <path fill="currentColor"
d="M16 249q1 -67 33 -121v0v0q32 -54 86 -86v0v0q54 -32 121 -33q67 1 121 33t86 86t33 121q-23 -31 -64 -32q-20 1 -34 14q-13 14 -14 34v128v0q1 20 14 34q14 13 34 14q34 -1 57 -23q22 -23 23 -57v-32v0v-32v0v-48v0q-1 -72 -35 -129q-34 -58 -92 -92q-57 -34 -129 -35
q-72 1 -129 35q-58 34 -92 92q-34 57 -35 129v48v0v32v0v32v0q1 34 23 57q23 22 57 23q20 -1 34 -14q13 -14 14 -34v-128v0q-1 -20 -14 -34q-14 -13 -34 -14q-41 1 -64 32v0zM16 297q1 -27 19 -45v0v0q18 -18 45 -19q14 0 23 9t9 23v128v0q0 14 -9 23t-23 9q-27 -1 -45 -19
t-19 -45v-32v0v-32v0zM496 297v32v-32v32v32v0q-1 27 -19 45t-45 19q-14 0 -23 -9t-9 -23v-128v0q0 -14 9 -23t23 -9q27 1 45 19t19 45v0z" />
</svg>
