<?xml version="1.0" standalone="no"?>
<!DOCTYPE svg PUBLIC "-//W3C//DTD SVG 1.1//EN" "http://www.w3.org/Graphics/SVG/1.1/DTD/svg11.dtd" >
<svg xmlns="http://www.w3.org/2000/svg" xmlns:xlink="http://www.w3.org/1999/xlink" version="1.1" viewBox="-10 -40 532 512">
   <path fill="currentColor"
d="M0 1q1 -7 8 -8q7 1 8 8v432v0q-1 7 -8 8q-7 -1 -8 -8v-432v0zM256 1q1 -7 8 -8q7 1 8 8v432v0q-1 7 -8 8q-7 -1 -8 -8v-432v0zM392 -7q7 1 8 8v432v0q-1 7 -8 8q-7 -1 -8 -8v-432v0q1 -7 8 -8v0zM304 1q1 -7 8 -8q7 1 8 8v432v0q-1 7 -8 8q-7 -1 -8 -8v-432v0zM56 -7
q7 1 8 8v432v0q-1 7 -8 8q-7 -1 -8 -8v-432v0q1 -7 8 -8v0zM448 1q1 -7 8 -8q7 1 8 8v432v0q-1 7 -8 8q-7 -1 -8 -8v-432v0zM504 -7q7 1 8 8v432v0q-1 7 -8 8q-7 -1 -8 -8v-432v0q1 -7 8 -8v0zM112 1q1 -7 8 -8q7 1 8 8v432v0q-1 7 -8 8q-7 -1 -8 -8v-432v0zM192 -7q7 1 8 8
v432v0q-1 7 -8 8q-7 -1 -8 -8v-432v0q1 -7 8 -8v0z" />
</svg>
