<?xml version="1.0" standalone="no"?>
<!DOCTYPE svg PUBLIC "-//W3C//DTD SVG 1.1//EN" "http://www.w3.org/Graphics/SVG/1.1/DTD/svg11.dtd" >
<svg xmlns="http://www.w3.org/2000/svg" xmlns:xlink="http://www.w3.org/1999/xlink" version="1.1" viewBox="-10 -40 532 512">
   <path fill="currentColor"
d="M197 -7q-34 2 -46 33l-10 31v0h-77v0q-27 1 -45 19t-19 45v256v0q1 27 19 45t45 19h384v0q27 -1 45 -19t19 -45v-256v0q-1 -27 -19 -45t-45 -19h-77v0l-10 -31v0q-12 -31 -46 -33h-118v0zM167 31q8 -21 30 -22h118v0q22 1 31 22l12 37v0q2 5 7 5h83v0q20 1 34 14
q13 14 14 34v256v0q-1 20 -14 34q-14 13 -34 14h-384v0q-20 -1 -34 -14q-13 -14 -14 -34v-256v0q1 -20 14 -34q14 -13 34 -14h83v0q5 0 7 -5l13 -37v0zM256 361q30 0 56 -15v0v0q26 -15 41 -41t15 -56t-15 -56t-41 -41t-56 -15t-56 15t-41 41t-15 56t15 56t41 41t56 15v0z
M160 249q0 -26 13 -48v0v0q13 -22 35 -35q23 -13 48 -13t48 13q22 13 35 35t13 48t-13 48t-35 35q-23 13 -48 13t-48 -13q-22 -13 -35 -35t-13 -48v0z" />
</svg>
