<?xml version="1.0" standalone="no"?>
<!DOCTYPE svg PUBLIC "-//W3C//DTD SVG 1.1//EN" "http://www.w3.org/Graphics/SVG/1.1/DTD/svg11.dtd" >
<svg xmlns="http://www.w3.org/2000/svg" xmlns:xlink="http://www.w3.org/1999/xlink" version="1.1" viewBox="-10 -40 524 512">
   <path fill="currentColor"
d="M40 25q-7 1 -8 8v48v0q1 7 8 8h48v0q7 -1 8 -8v-48v0q-1 -7 -8 -8h-48v0zM16 33q2 -22 24 -24h48v0q22 2 24 24v48v0q-2 22 -24 24h-48v0q-22 -2 -24 -24v-48v0zM176 49h320h-320h320q7 1 8 8q-1 7 -8 8h-320v0q-7 -1 -8 -8q1 -7 8 -8v0zM176 209h320h-320h320q7 1 8 8
q-1 7 -8 8h-320v0q-7 -1 -8 -8q1 -7 8 -8v0zM176 369h320h-320h320q7 1 8 8q-1 7 -8 8h-320v0q-7 -1 -8 -8q1 -7 8 -8v0zM88 185h-48h48h-48q-7 1 -8 8v48v0q1 7 8 8h48v0q7 -1 8 -8v-48v0q-1 -7 -8 -8v0zM40 169h48h-48h48q22 2 24 24v48v0q-2 22 -24 24h-48v0
q-22 -2 -24 -24v-48v0q2 -22 24 -24v0zM40 345q-7 1 -8 8v48v0q1 7 8 8h48v0q7 -1 8 -8v-48v0q-1 -7 -8 -8h-48v0zM16 353q2 -22 24 -24h48v0q22 2 24 24v48v0q-2 22 -24 24h-48v0q-22 -2 -24 -24v-48v0z" />
</svg>
