<?xml version="1.0" standalone="no"?>
<!DOCTYPE svg PUBLIC "-//W3C//DTD SVG 1.1//EN" "http://www.w3.org/Graphics/SVG/1.1/DTD/svg11.dtd" >
<svg xmlns="http://www.w3.org/2000/svg" xmlns:xlink="http://www.w3.org/1999/xlink" version="1.1" viewBox="-10 -40 468 512">
   <path fill="currentColor"
d="M0 25q1 -7 8 -8h432v0q7 1 8 8q-1 7 -8 8h-432v0q-7 -1 -8 -8v0zM192 153q1 -7 8 -8h240v0q7 1 8 8q-1 7 -8 8h-240v0q-7 -1 -8 -8v0zM200 273h240h-240h240q7 1 8 8q-1 7 -8 8h-240v0q-7 -1 -8 -8q1 -7 8 -8v0zM0 409q1 -7 8 -8h432v0q7 1 8 8q-1 7 -8 8h-432v0
q-7 -1 -8 -8v0zM111 217l-95 -78l95 78l-95 -78v156v0l95 -78v0zM121 205q12 12 0 24l-95 78v0q-8 7 -17 3q-8 -4 -9 -15v-156v0q1 -11 9 -15q9 -4 17 3l95 78v0z" />
</svg>
