<?xml version="1.0" standalone="no"?>
<!DOCTYPE svg PUBLIC "-//W3C//DTD SVG 1.1//EN" "http://www.w3.org/Graphics/SVG/1.1/DTD/svg11.dtd" >
<svg xmlns="http://www.w3.org/2000/svg" xmlns:xlink="http://www.w3.org/1999/xlink" version="1.1" viewBox="-10 -40 404 512">
   <path fill="currentColor"
d="M350 223q-17 41 -44 84q-28 43 -55 81q-28 38 -48 62q-11 11 -22 0q-20 -24 -48 -62q-27 -38 -54 -81q-28 -43 -45 -84q-18 -41 -18 -70q2 -75 52 -124q49 -50 124 -52q75 2 124 52q50 49 52 124q0 29 -18 70v0zM216 460q27 -33 66 -89v0v0q39 -55 70 -114v0v0
q30 -59 32 -104q-2 -82 -56 -136t-136 -56q-82 2 -136 56t-56 136q2 45 32 104q31 59 70 114q39 56 66 89q10 12 24 12t24 -12v0z" />
</svg>
