<?xml version="1.0" standalone="no"?>
<!DOCTYPE svg PUBLIC "-//W3C//DTD SVG 1.1//EN" "http://www.w3.org/Graphics/SVG/1.1/DTD/svg11.dtd" >
<svg xmlns="http://www.w3.org/2000/svg" xmlns:xlink="http://www.w3.org/1999/xlink" version="1.1" viewBox="-10 -40 596 512">
   <path fill="currentColor"
d="M400 201q-1 -15 -16 -16h-32h-38q-35 1 -58 24t-24 58q1 18 11 31q9 13 18 20q3 3 3 6v1v0q0 4 -4 4h-1v0v0v0v0q-7 -3 -21 -11q-15 -9 -31 -25q-16 -15 -27 -38q-12 -23 -12 -54q1 -61 42 -102q41 -40 102 -42h72v0q14 -1 16 -16v-52v0q1 -11 12 -12q5 0 9 4l138 138v0
q1 1 1 2t-1 2l-138 138v0q-4 4 -9 4q-11 -1 -12 -12v-52v0zM352 201h16h-16h32v16v0v36v0q0 12 8 20t20 8t20 -8l138 -138v0q6 -6 6 -14t-6 -14l-138 -138v0q-8 -8 -20 -8t-20 8t-8 20v36v0v16v0h-16h-56q-68 2 -113 47t-47 113q1 47 22 77t45 46q23 16 34 20q3 1 7 1
q18 -2 20 -20v-1v0q0 -11 -8 -18t-16 -17q-7 -11 -8 -23q1 -27 19 -46q19 -18 47 -19h38v0zM56 -7q-24 1 -40 16v0v0q-15 16 -16 40v368v0q1 24 16 40q16 15 40 16h368v0q24 -1 40 -16q15 -16 16 -40v-64v0q-1 -7 -8 -8q-7 1 -8 8v64v0q0 17 -12 28q-11 12 -28 12h-368v0
q-17 0 -28 -12q-12 -11 -12 -28v-368v0q0 -17 12 -28q11 -12 28 -12h96v0q7 -1 8 -8q-1 -7 -8 -8h-96v0z" />
</svg>
