<?xml version="1.0" standalone="no"?>
<!DOCTYPE svg PUBLIC "-//W3C//DTD SVG 1.1//EN" "http://www.w3.org/Graphics/SVG/1.1/DTD/svg11.dtd" >
<svg xmlns="http://www.w3.org/2000/svg" xmlns:xlink="http://www.w3.org/1999/xlink" version="1.1" viewBox="-10 -40 468 512">
   <path fill="currentColor"
d="M128 -31q-1 -7 -8 -8q-7 1 -8 8v56v0h-48v0q-27 1 -45 19t-19 45v48v0v16v0v96v0v16v0v96v0v16v0v32v0q1 27 19 45t45 19h320v0q27 -1 45 -19t19 -45v-32v0v-16v0v-96v0v-16v0v-96v0v-16v0v-48v0q-1 -27 -19 -45t-45 -19h-48v0v-56v0q-1 -7 -8 -8q-7 1 -8 8v56v0h-192v0
v-56v0zM432 249h-128h128h-128v-96v0h128v0v96v0zM288 153v96v-96v96h-128v0v-96v0h128v0zM144 153v96v-96v96h-128v0v-96v0h128v0zM16 265h128h-128h128v96v0h-128v0v-96v0zM16 377h128h-128h128v80v0h-80v0q-20 -1 -34 -14q-13 -14 -14 -34v-32v0zM160 457v-80v80v-80h128
v0v80v0h-128v0zM304 457v-80v80v-80h128v0v32v0q-1 20 -14 34q-14 13 -34 14h-80v0zM432 361h-128h128h-128v-96v0h128v0v96v0zM112 41v40v-40v40q1 7 8 8q7 -1 8 -8v-40v0h192v0v40v0q1 7 8 8q7 -1 8 -8v-40v0h48v0q20 1 34 14q13 14 14 34v48v0h-416v0v-48v0q1 -20 14 -34
q14 -13 34 -14h48v0zM288 361h-128h128h-128v-96v0h128v0v96v0z" />
</svg>
