<?xml version="1.0" standalone="no"?>
<!DOCTYPE svg PUBLIC "-//W3C//DTD SVG 1.1//EN" "http://www.w3.org/Graphics/SVG/1.1/DTD/svg11.dtd" >
<svg xmlns="http://www.w3.org/2000/svg" xmlns:xlink="http://www.w3.org/1999/xlink" version="1.1" viewBox="-10 -40 532 512">
   <path fill="currentColor"
d="M142 378q7 -5 15 -2q46 17 99 17q104 -2 171 -57t69 -135q-2 -80 -69 -135t-171 -57q-104 2 -171 57t-69 135q1 62 44 110q4 5 4 12q-6 42 -24 70q-9 15 -16 23l-13 -10v0l13 10v0q-4 5 -6 7q-1 0 -1 1v0v0v0l-1 1v0v0v0v0v0v0v0q40 -1 75 -18q34 -16 51 -29v0zM5 414v0
v0v0v0v0v-1v0v0l1 -1q2 -2 5 -6q7 -7 15 -21q17 -26 22 -63q-47 -52 -48 -121q1 -58 35 -105t92 -75q57 -27 129 -28q72 1 129 28q58 28 92 75t35 105q-1 58 -35 105t-92 75q-57 27 -129 28q-56 0 -104 -18q-19 14 -54 31q-38 17 -82 19q-10 0 -15 -10q-3 -10 4 -17v0v0v0v0
z" />
</svg>
