<?xml version="1.0" standalone="no"?>
<!DOCTYPE svg PUBLIC "-//W3C//DTD SVG 1.1//EN" "http://www.w3.org/Graphics/SVG/1.1/DTD/svg11.dtd" >
<svg xmlns="http://www.w3.org/2000/svg" xmlns:xlink="http://www.w3.org/1999/xlink" version="1.1" viewBox="-10 -40 532 512">
   <path fill="currentColor"
d="M64 425h384h-384h384q20 -1 34 -14q13 -14 14 -34v-256v0q-1 -20 -14 -34q-14 -13 -34 -14h-147v0q-19 0 -34 -14l-36 -36v0q-14 -14 -33 -14h-134v0q-20 1 -34 14q-13 14 -14 34v320v0q1 20 14 34q14 13 34 14v0zM448 441h-384h384h-384q-27 -1 -45 -19t-19 -45v-320v0
q1 -27 19 -45t45 -19h134v0q26 0 45 19l36 36v0q9 9 22 9h147v0q27 1 45 19t19 45v256v0q-1 27 -19 45t-45 19v0z" />
</svg>
