<?xml version="1.0" standalone="no"?>
<!DOCTYPE svg PUBLIC "-//W3C//DTD SVG 1.1//EN" "http://www.w3.org/Graphics/SVG/1.1/DTD/svg11.dtd" >
<svg xmlns="http://www.w3.org/2000/svg" xmlns:xlink="http://www.w3.org/1999/xlink" version="1.1" viewBox="-10 -40 652 512">
   <path fill="currentColor"
d="M157 -31v0v0v0h7v0v0v0v0v0q9 0 18 1q11 2 13 12l10 35v0q20 8 37 21l35 -9v0q9 -3 16 5q6 8 11 15v1v0v0v0l3 6v0h1v0v0v0q4 8 8 17q3 10 -4 17l-26 26v0q2 10 2 21t-2 22l26 25v0q7 7 4 17q-5 10 -10 19v0v0l-1 2v0v0v0q-5 9 -12 17t-16 6l-35 -10v0q-17 14 -37 22
l-9 35v0q-3 9 -14 11q-9 2 -18 2v0v0v0v0h-7h-1v0v0q-9 0 -18 -1q-10 -2 -13 -12l-9 -35v0q-21 -8 -38 -21l-34 9v0q-10 3 -17 -5q-6 -8 -10 -16h-1v0v0v0l-3 -6v0v0v0v0v0q-5 -8 -8 -17q-4 -10 3 -17l6 6v0l-6 -6v0l26 -25v0q-2 -11 -2 -22t2 -21l-26 -26v0q-7 -7 -3 -17
q8 -21 22 -38q7 -8 17 -6l34 10v0q17 -14 38 -22l9 -35v0q3 -9 13 -11q9 -2 19 -2v0v0zM157 -15q-9 0 -17 1l-10 39v0q-1 4 -5 6q-22 7 -39 22q-4 3 -8 2l-38 -11v0q-13 16 -20 35l28 28v0q3 3 2 7q-2 11 -2 23t2 23q1 4 -2 7l-28 28v0q3 8 7 15l3 6v0q4 7 9 14l39 -11v0
q4 -1 8 2q17 15 39 22q4 2 5 6l10 39v0q8 1 16 1h7v0q8 0 17 -1l10 -39v0q1 -4 5 -6q22 -7 39 -22q4 -3 8 -2l39 11v0l10 -16v0v0l1 -2v0v0v0q5 -8 8 -17l-28 -28v0q-3 -3 -2 -7q2 -11 2 -23t-2 -23q-1 -4 2 -7l28 -28v0q-3 -8 -7 -15l-3 -6v0l-10 -14l-38 11v0q-4 1 -7 -2
q-18 -15 -40 -22q-4 -2 -5 -6l-10 -39v0q-8 -1 -16 -1h-7v0zM104 137q1 -32 28 -48q28 -16 56 0q27 16 28 48q-1 32 -28 48q-28 16 -56 0q-27 -16 -28 -48v0zM160 177q23 -1 35 -20q10 -20 0 -40q-12 -19 -35 -20q-23 1 -35 20q-10 20 0 40q12 19 35 20v0zM296 316v0v0v0v-7
v0v0v0v0v0q0 -9 1 -18q2 -11 12 -13l35 -10v0q8 -20 21 -37l-9 -35v0q-3 -9 5 -16q8 -6 16 -11v0v0v0v0l6 -3v0v-1v0v0v0q8 -4 17 -8q10 -3 17 4l26 26v0q10 -2 21 -2t22 2l25 -26v0q7 -7 17 -4q10 5 19 10v0v0l2 1v0v0v0q9 5 18 12q8 7 5 16l-9 35v0q13 17 21 37l35 9v0
q10 3 12 14q1 9 1 18v0v0v0v0v8v0v0v0v0v0q0 9 -1 18q-2 10 -12 13l-35 9v0q-8 21 -21 38l9 34v0q3 10 -5 17q-8 6 -16 11v0v0v0v0l-6 3v0v0v0v0v0q-8 5 -17 8q-10 4 -17 -3l-25 -26v0q-11 2 -22 2t-21 -2l-26 26v0q-7 7 -17 3q-21 -8 -38 -22q-8 -7 -6 -17l10 -34v0
q-14 -17 -22 -38l-35 -9v0q-9 -3 -11 -13q-2 -9 -2 -19v0v0zM312 316q0 9 1 17l39 10v0q4 1 6 5q7 22 22 39q3 4 2 8l-11 38v0q16 13 35 20l28 -28v0q3 -3 7 -2q11 2 23 2t23 -2q4 -1 7 2l28 28v0q8 -3 15 -7l6 -3v0q7 -5 14 -9l-11 -39v0q-1 -4 2 -7q15 -18 22 -40
q2 -4 6 -5l39 -10v0q1 -8 1 -16v-7v0q0 -8 -1 -17l-39 -10v0q-4 -1 -6 -5q-7 -22 -22 -39q-3 -4 -2 -8l11 -39v0l-16 -10v0v0l-2 -1v0v0v0q-8 -5 -17 -8l-28 28v0q-3 3 -7 2q-11 -2 -23 -2q-11 0 -22 2q-5 1 -8 -2l-28 -28v0q-8 3 -15 7l-6 3v0q-7 5 -13 9l10 39v0q1 4 -2 8
q-15 17 -22 39q-2 4 -6 5l-39 10v0q-1 8 -1 16v7v0zM464 369q-32 -1 -48 -28q-16 -28 0 -56q16 -27 48 -28q32 1 48 28q16 28 0 56q-16 27 -48 28v0zM504 313q-1 -23 -20 -35q-20 -10 -40 0q-19 12 -20 35q1 23 20 35q20 10 40 0q19 -12 20 -35v0z" />
</svg>
