<?xml version="1.0" standalone="no"?>
<!DOCTYPE svg PUBLIC "-//W3C//DTD SVG 1.1//EN" "http://www.w3.org/Graphics/SVG/1.1/DTD/svg11.dtd" >
<svg xmlns="http://www.w3.org/2000/svg" xmlns:xlink="http://www.w3.org/1999/xlink" version="1.1" viewBox="-10 -40 522 512">
   <path fill="currentColor"
d="M320 -15q1 7 8 8h141v0l-267 266v0q-4 6 0 12q6 4 12 0l266 -267v0v141v0q1 7 8 8q7 -1 8 -8v-160v0q-1 -7 -8 -8h-160v0q-7 1 -8 8v0zM56 -7q-24 1 -40 16v0v0q-15 16 -16 40v368v0q1 24 16 40q16 15 40 16h368v0q24 -1 40 -16q15 -16 16 -40v-144v0q-1 -7 -8 -8
q-7 1 -8 8v144v0q0 17 -12 28q-11 12 -28 12h-368v0q-17 0 -28 -12q-12 -11 -12 -28v-368v0q0 -17 12 -28q11 -12 28 -12h144v0q7 -1 8 -8q-1 -7 -8 -8h-144v0z" />
</svg>
