<?xml version="1.0" standalone="no"?>
<!DOCTYPE svg PUBLIC "-//W3C//DTD SVG 1.1//EN" "http://www.w3.org/Graphics/SVG/1.1/DTD/svg11.dtd" >
<svg xmlns="http://www.w3.org/2000/svg" xmlns:xlink="http://www.w3.org/1999/xlink" version="1.1" viewBox="-10 -40 595 512">
   <path fill="currentColor"
d="M176 -23h224h-224h224q14 0 22 9q9 9 9 23q-6 123 -29 189q-24 67 -51 94t-46 33q-9 3 -13 4h-1h-3v0v0v0v0h-2h-2q-4 -1 -13 -4q-19 -6 -46 -33t-51 -94q-23 -66 -29 -189q0 -14 9 -23q8 -9 22 -9v0zM400 -39h-224h224h-224q-20 1 -34 14q-13 14 -13 34q0 8 1 16h-90v0
q-17 0 -28 12q-11 11 -10 29q9 69 42 119q33 51 77 84q43 33 84 51t66 22v0v0q5 1 9 2v113v0h-112v0q-7 1 -8 8q1 7 8 8h120h120q7 -1 8 -8q-1 -7 -8 -8h-112v0v-113v0q4 -1 9 -2v0v0q25 -4 66 -22t84 -51q44 -34 77 -84t42 -119q1 -18 -10 -29q-11 -12 -28 -12h-90v0
q1 -8 1 -16q0 -20 -13 -34q-14 -13 -34 -14v0zM445 41h91h-91h91q22 2 22 23q-8 65 -39 113q-32 47 -74 79q-45 35 -87 52q29 -27 54 -90t33 -177v0zM218 308q-42 -17 -87 -52q-42 -32 -74 -79q-31 -48 -39 -113q0 -21 22 -23h91v0q8 114 33 177t54 90v0z" />
</svg>
