<?xml version="1.0" standalone="no"?>
<!DOCTYPE svg PUBLIC "-//W3C//DTD SVG 1.1//EN" "http://www.w3.org/Graphics/SVG/1.1/DTD/svg11.dtd" >
<svg xmlns="http://www.w3.org/2000/svg" xmlns:xlink="http://www.w3.org/1999/xlink" version="1.1" viewBox="-10 -40 468 512">
   <path fill="currentColor"
d="M112 89q1 -48 33 -79v0v0q31 -32 79 -33q39 1 68 23q29 23 40 59q3 7 10 6q7 -3 5 -10q-12 -41 -45 -67t-78 -27q-54 1 -91 37q-36 37 -37 91v64v0h-32v0q-27 1 -45 19t-19 45v192v0q1 27 19 45t45 19h320v0q27 -1 45 -19t19 -45v-192v0q-1 -27 -19 -45t-45 -19h-272v0
v-64v0zM96 169h16h-16h288q20 1 34 14q13 14 14 34v192v0q-1 20 -14 34q-14 13 -34 14h-320v0q-20 -1 -34 -14q-13 -14 -14 -34v-192v0q1 -20 14 -34q14 -13 34 -14h32v0z" />
</svg>
