<?xml version="1.0" standalone="no"?>
<!DOCTYPE svg PUBLIC "-//W3C//DTD SVG 1.1//EN" "http://www.w3.org/Graphics/SVG/1.1/DTD/svg11.dtd" >
<svg xmlns="http://www.w3.org/2000/svg" xmlns:xlink="http://www.w3.org/1999/xlink" version="1.1" viewBox="-10 -40 532 512">
   <path fill="currentColor"
d="M163 56q5 -4 7 -10l16 -63v0q1 -4 6 -6q4 -1 8 2l45 47v0q4 4 11 4t12 -4l45 -47v0q3 -3 7 -2q5 2 6 6l16 63v0q2 6 7 9q6 4 13 2l62 -18v0q4 -1 7 2q4 4 2 8l-17 62v0q-2 7 1 13q4 5 10 7l63 16v0q4 1 6 6q1 4 -2 8l-47 45v0q-4 4 -4 11t4 12l47 45v0q3 3 2 7q-2 5 -6 6
l-62 16v0q-7 2 -10 7q-4 6 -2 13l18 62v0q1 4 -2 7q-4 4 -8 2l-62 -17v0q-7 -2 -12 1q-6 4 -8 10l-16 63v0q-1 4 -6 6q-4 1 -8 -2l-45 -47v0q-4 -4 -11 -4t-12 4l-45 47v0q-3 3 -7 2q-5 -2 -6 -6l-16 -62v0q-2 -7 -7 -10q-6 -4 -13 -2l-62 18v0q-4 1 -8 -2q-3 -4 -2 -8
l18 -62v0q2 -7 -2 -12q-3 -6 -9 -8l-63 -16v0q-4 -1 -6 -6q-1 -4 2 -8l47 -45v0q4 -4 4 -11t-4 -12l-47 -45v0q-3 -3 -2 -7q2 -5 6 -6l63 -16v0q6 -2 9 -7q4 -6 2 -13l-18 -62v0q-1 -4 2 -8q4 -3 8 -2l62 18v0q7 2 13 -2v1zM245 3l-34 -35l34 35l-34 -35q-10 -9 -23 -6
q-14 4 -17 17l-12 47v0l-4 16v0l-16 -5v0l-46 -13v0q-14 -3 -24 6q-9 10 -6 24l13 46v0l5 16v0l-16 4v0l-47 11v0q-13 4 -17 18q-3 13 6 23l35 34v0l12 11v0l-12 11v0l-35 34v0q-9 10 -6 23q4 14 17 18l47 11v0l16 4v0l-5 16v0l-13 46v0q-3 14 6 24q10 9 24 6l46 -13v0
l16 -5v0l4 16v0l11 47v0q4 13 18 17q13 3 23 -6l34 -35v0l11 -11v0l11 11v0l34 35v0q10 9 23 6q14 -4 18 -17l11 -47v0l4 -16v0l16 5v0l46 13v0q14 3 24 -6q9 -10 6 -24l-13 -46v0l-5 -16v0l16 -4v0l47 -11v0q13 -4 17 -18q3 -13 -6 -23l-35 -34v0l-11 -11v0l11 -11v0
l35 -34v0q9 -10 6 -23q-4 -14 -17 -17l-47 -12v0l-16 -4v0l5 -16v0l13 -46v0q3 -14 -6 -24q-10 -9 -24 -6l-46 13v0l-16 5v0l-4 -16v0l-11 -47v0q-4 -13 -18 -17q-13 -3 -23 6l-34 35v0l-11 12v0l-11 -12v0z" />
</svg>
