<?xml version="1.0" standalone="no"?>
<!DOCTYPE svg PUBLIC "-//W3C//DTD SVG 1.1//EN" "http://www.w3.org/Graphics/SVG/1.1/DTD/svg11.dtd" >
<svg xmlns="http://www.w3.org/2000/svg" xmlns:xlink="http://www.w3.org/1999/xlink" version="1.1" viewBox="-10 -40 532 512">
   <path fill="currentColor"
d="M48 89q-14 0 -23 9v0v0q-9 9 -9 23t9 23t23 9h152h56v-56v0v-8h-208v0zM272 153v0v0v0v16v0v0v0v32v0q0 14 9 23t23 9t23 -9t9 -23v-72v0q1 -7 8 -8q7 1 8 8v72v0q-1 29 -26 43q17 14 18 37q-1 23 -18 37q25 14 26 43q0 19 -12 32h20v0q58 -1 96 -40q39 -38 40 -96v-80v0
q-1 -58 -40 -96q-38 -39 -96 -40h-32v0q-24 1 -40 16q-15 16 -16 40v56v0zM256 169h-56h56h-56q-14 0 -23 9t-9 23t9 23t23 9h32v0v0v0h36v0q-12 -13 -12 -32v-32v0zM164 169h-116h116h-116q-20 -1 -34 -14q-13 -14 -14 -34q1 -20 14 -34q14 -13 34 -14h212v0q8 -21 26 -34
q18 -14 42 -14h32v0q65 2 107 45q43 42 45 107v80v0q-2 65 -45 107q-42 43 -107 45h-56h-56q-20 -1 -34 -14q-13 -14 -14 -34q1 -21 15 -35q-29 -12 -31 -45q0 -19 12 -32q-19 -2 -31 -15q-13 -14 -13 -33t12 -32v0zM272 249h-40h40h-40q-14 0 -23 9t-9 23t9 23t23 9h16h48
q14 0 23 -9t9 -23t-9 -23t-23 -9h-24v0zM280 393h24h-24h24q14 0 23 -9t9 -23t-9 -23t-23 -9h-8h-48q-14 0 -23 9t-9 23t9 23t23 9h32v0z" />
</svg>
