<?xml version="1.0" standalone="no"?>
<!DOCTYPE svg PUBLIC "-//W3C//DTD SVG 1.1//EN" "http://www.w3.org/Graphics/SVG/1.1/DTD/svg11.dtd" >
<svg xmlns="http://www.w3.org/2000/svg" xmlns:xlink="http://www.w3.org/1999/xlink" version="1.1" viewBox="-10 -40 404 512">
   <path fill="currentColor"
d="M64 425q0 14 9 23v0v0q9 9 23 9t23 -9t9 -23v-152v0v-56v0h-56v0h-8v208v0zM128 201v0v0v0h16v0v0v0h32v0q14 0 23 -9t9 -23t-9 -23t-23 -9h-72v0q-7 -1 -8 -8q1 -7 8 -8h72v0q29 1 43 26q14 -17 37 -18q23 1 37 18q14 -25 43 -26q19 0 32 12v-20v0q-1 -58 -40 -96
q-38 -39 -96 -40h-80v0q-58 1 -96 40q-39 38 -40 96v32v0q1 24 16 40q16 15 40 16h56v0zM144 217v56v-56v56q0 14 9 23t23 9t23 -9t9 -23v-32v0v0v0v-36v0q-13 12 -32 12h-32v0zM144 309v116v-116v116q-1 20 -14 34q-14 13 -34 14q-20 -1 -34 -14q-13 -14 -14 -34v-212v0
q-21 -8 -34 -26q-14 -18 -14 -42v-32v0q2 -65 45 -107q42 -43 107 -45h80v0q65 2 107 45q43 42 45 107v56v0v24v0v32v0q-1 20 -14 34q-14 13 -34 14q-21 -1 -35 -15q-12 29 -45 31q-19 0 -32 -12q-2 19 -15 31q-14 13 -33 13t-32 -12v0zM224 201v40v-40v40q0 14 9 23t23 9
t23 -9t9 -23v-16v0v-48v0q0 -14 -9 -23t-23 -9t-23 9t-9 23v24v0zM368 193v-24v24v-24q0 -14 -9 -23t-23 -9t-23 9t-9 23v8v0v48v0q0 14 9 23t23 9t23 -9t9 -23v-32v0z" />
</svg>
