<?xml version="1.0" standalone="no"?>
<!DOCTYPE svg PUBLIC "-//W3C//DTD SVG 1.1//EN" "http://www.w3.org/Graphics/SVG/1.1/DTD/svg11.dtd" >
<svg xmlns="http://www.w3.org/2000/svg" xmlns:xlink="http://www.w3.org/1999/xlink" version="1.1" viewBox="-10 -40 532 512">
   <path fill="currentColor"
d="M256 -23q-65 1 -120 32v0v0q-55 32 -88 88q-32 57 -32 120t32 120q33 56 88 88q55 31 120 32q65 -1 120 -32q55 -32 88 -88q32 -57 32 -120t-32 -120q-33 -56 -88 -88q-55 -31 -120 -32v0zM256 473q-70 -1 -128 -34v0v0q-58 -34 -94 -94q-34 -61 -34 -128t34 -128
q36 -60 94 -94q58 -33 128 -34q70 1 128 34q58 34 94 94q34 61 34 128t-34 128q-36 60 -94 94q-58 33 -128 34v0zM366 239l-104 104l104 -104l-104 104q-6 4 -12 0l-104 -104v0q-4 -6 0 -12q6 -4 12 0l90 91v0v-221v0q1 -7 8 -8q7 1 8 8v221v0l90 -91v0q6 -4 12 0q4 6 0 12
v0z" />
</svg>
