<?xml version="1.0" standalone="no"?>
<!DOCTYPE svg PUBLIC "-//W3C//DTD SVG 1.1//EN" "http://www.w3.org/Graphics/SVG/1.1/DTD/svg11.dtd" >
<svg xmlns="http://www.w3.org/2000/svg" xmlns:xlink="http://www.w3.org/1999/xlink" version="1.1" viewBox="-10 -40 524 512">
   <path fill="currentColor"
d="M158 15q4 -6 0 -12q-6 -4 -12 0l-82 83v0l-43 -35v0q-6 -4 -11 1q-4 6 1 11l48 40v0q5 4 11 0l88 -88v0zM158 175q4 -6 0 -12q-6 -4 -12 0l-82 83v0l-43 -35v0q-6 -4 -11 1q-4 6 1 11l48 40v0q5 4 11 0l88 -88v0zM200 57q1 7 8 8h288v0q7 -1 8 -8q-1 -7 -8 -8h-288v0
q-7 1 -8 8v0zM200 217q1 7 8 8h288v0q7 -1 8 -8q-1 -7 -8 -8h-288v0q-7 1 -8 8v0zM168 377q1 7 8 8h320v0q7 -1 8 -8q-1 -7 -8 -8h-320v0q-7 1 -8 8v0zM80 377q-1 -15 -16 -16q-15 1 -16 16q1 15 16 16q15 -1 16 -16v0z" />
</svg>
