<?xml version="1.0" standalone="no"?>
<!DOCTYPE svg PUBLIC "-//W3C//DTD SVG 1.1//EN" "http://www.w3.org/Graphics/SVG/1.1/DTD/svg11.dtd" >
<svg xmlns="http://www.w3.org/2000/svg" xmlns:xlink="http://www.w3.org/1999/xlink" version="1.1" viewBox="-10 -40 532 512">
   <path fill="currentColor"
d="M333 52l-62 -68l62 68l-62 -68q-6 -7 -15 -7t-15 7l-62 68v0q-3 3 -3 8q1 12 13 13h134v0q12 -1 13 -13q0 -5 -3 -8v0zM283 -27l62 68l-62 -68l62 68q7 8 7 19q0 12 -8 20q-9 9 -21 9h-59v0v120v0h120v0v16v0h-120v0v120v0h59v0q12 0 21 8q8 9 8 21q0 11 -7 19l-62 68v0
q-11 12 -27 12t-27 -12l-62 -68v0q-7 -8 -7 -19q0 -12 8 -21q9 -8 21 -8h59v0v-120v0h-120v0v59v0q0 12 -8 21q-9 8 -21 8q-11 0 -19 -7l-68 -62v0q-12 -11 -12 -27t12 -27l68 -61v0q8 -8 19 -8q12 0 20 8q9 9 9 21v59v0h120v0v-120v0h-59v0q-12 0 -21 -8q-8 -9 -8 -21
q0 -11 8 -19l61 -68v0q11 -12 27 -12t27 12v0zM271 450l62 -67l-62 67l62 -67q3 -4 3 -9q-1 -12 -13 -13h-134v0q-12 1 -13 13q0 5 3 9l62 67v0q6 7 15 7t15 -7v0zM489 232q7 -6 7 -15t-7 -15l-67 -62v0q-4 -3 -9 -3q-12 1 -13 13v134v0q1 12 13 13q5 0 9 -3l67 -62v0z
M432 306q-8 7 -19 7q-12 0 -20 -8q-9 -9 -9 -21v-134v0q0 -12 9 -21q8 -8 20 -8q11 0 19 8l68 61v0q12 11 12 27t-12 27l-68 62v0zM91 294q3 3 8 3q12 -1 13 -13v-134v0q-1 -12 -13 -13q-5 0 -8 3l-68 62v0q-7 6 -7 15t7 15l68 62v0z" />
</svg>
