<?xml version="1.0" standalone="no"?>
<!DOCTYPE svg PUBLIC "-//W3C//DTD SVG 1.1//EN" "http://www.w3.org/Graphics/SVG/1.1/DTD/svg11.dtd" >
<svg xmlns="http://www.w3.org/2000/svg" xmlns:xlink="http://www.w3.org/1999/xlink" version="1.1" viewBox="-10 -40 524 512">
   <path fill="currentColor"
d="M64 41q-15 1 -16 16q1 15 16 16q15 -1 16 -16q-1 -15 -16 -16v0zM64 201q-15 1 -16 16q1 15 16 16q15 -1 16 -16q-1 -15 -16 -16v0zM80 377q-1 -15 -16 -16q-15 1 -16 16q1 15 16 16q15 -1 16 -16v0zM176 49q-7 1 -8 8q1 7 8 8h320v0q7 -1 8 -8q-1 -7 -8 -8h-320v0z
M176 209q-7 1 -8 8q1 7 8 8h320v0q7 -1 8 -8q-1 -7 -8 -8h-320v0zM176 369q-7 1 -8 8q1 7 8 8h320v0q7 -1 8 -8q-1 -7 -8 -8h-320v0z" />
</svg>
