<?xml version="1.0" standalone="no"?>
<!DOCTYPE svg PUBLIC "-//W3C//DTD SVG 1.1//EN" "http://www.w3.org/Graphics/SVG/1.1/DTD/svg11.dtd" >
<svg xmlns="http://www.w3.org/2000/svg" xmlns:xlink="http://www.w3.org/1999/xlink" version="1.1" viewBox="-10 -40 532 512">
   <path fill="currentColor"
d="M114 87q9 -46 58 -65q49 -20 122 -9q12 2 37 6q24 5 37 8q7 1 10 -6q1 -7 -6 -10q-14 -3 -38 -8q-25 -4 -38 -6q-76 -11 -130 10q-56 22 -68 77v0v0v1v0q-4 33 9 57q13 23 37 38q41 23 94 37h-230v0q-7 1 -8 8q1 7 8 8h496v0q7 -1 8 -8q-1 -7 -8 -8h-209v0
q-16 -5 -33 -10h-2v0q-1 0 -1 -1q-62 -15 -106 -40q-21 -13 -32 -32q-10 -18 -7 -47v0zM394 298q9 19 4 49q-9 46 -58 65q-49 20 -122 9q-19 -3 -45 -11q-26 -7 -49 -15v0v0v0v0v0q-4 -1 -7 -2q-6 -2 -11 -4q-7 -1 -10 6q-1 7 6 10q7 2 16 5v0v0q23 8 51 16q27 8 47 11v0v0
q76 11 130 -10q56 -22 68 -77q6 -34 -5 -59l-6 -10h-19v0q6 8 10 16v1z" />
</svg>
