<?xml version="1.0" standalone="no"?>
<!DOCTYPE svg PUBLIC "-//W3C//DTD SVG 1.1//EN" "http://www.w3.org/Graphics/SVG/1.1/DTD/svg11.dtd" >
<svg xmlns="http://www.w3.org/2000/svg" xmlns:xlink="http://www.w3.org/1999/xlink" version="1.1" viewBox="-10 -40 596 512">
   <path fill="currentColor"
d="M64 41q-20 1 -34 14v0v0q-13 14 -14 34v256v0q1 20 14 34q14 13 34 14h448v0q20 -1 34 -14q13 -14 14 -34v-256v0q-1 -20 -14 -34q-14 -13 -34 -14h-448v0zM0 89q1 -27 19 -45v0v0q18 -18 45 -19h448v0q27 1 45 19t19 45v256v0q-1 27 -19 45t-45 19h-448v0
q-27 -1 -45 -19t-19 -45v-256v0zM536 145h-8h8h-8q-31 -1 -51 -21t-21 -51v-8v0q1 -7 8 -8q7 1 8 8v8v0q1 24 16 40q16 15 40 16h8v0q7 1 8 8q-1 7 -8 8v0zM32 137q1 -7 8 -8h8v0q24 -1 40 -16q15 -16 16 -40v-8v0q1 -7 8 -8q7 1 8 8v8v0q-1 31 -21 51t-51 21h-8v0
q-7 -1 -8 -8v0zM536 289q7 1 8 8q-1 7 -8 8h-8v0q-24 1 -40 16q-15 16 -16 40v8v0q-1 7 -8 8q-7 -1 -8 -8v-8v0q1 -31 21 -51t51 -21h8v0zM32 297q1 -7 8 -8h8v0q31 1 51 21t21 51v8v0q-1 7 -8 8q-7 -1 -8 -8v-8v0q-1 -24 -16 -40q-16 -15 -40 -16h-8v0q-7 -1 -8 -8v0z
M368 217q-1 -45 -40 -69q-40 -22 -80 0q-39 24 -40 69q1 45 40 69q40 22 80 0q39 -24 40 -69v0zM192 217q0 -26 13 -48v0v0q13 -22 35 -35q23 -13 48 -13t48 13q22 13 35 35t13 48t-13 48t-35 35q-23 13 -48 13t-48 -13q-22 -13 -35 -35t-13 -48v0z" />
</svg>
