<?xml version="1.0" standalone="no"?>
<!DOCTYPE svg PUBLIC "-//W3C//DTD SVG 1.1//EN" "http://www.w3.org/Graphics/SVG/1.1/DTD/svg11.dtd" >
<svg xmlns="http://www.w3.org/2000/svg" xmlns:xlink="http://www.w3.org/1999/xlink" version="1.1" viewBox="-10 -40 596 512">
   <path fill="currentColor"
d="M320 9q14 0 23 9v0v0q9 9 9 23v64v0q0 14 -9 23t-23 9h-64v0q-14 0 -23 -9t-9 -23v-64v0q0 -14 9 -23t23 -9h64v0zM256 -7q-20 1 -34 14v0v0q-13 14 -14 34v64v0q1 20 14 34q14 13 34 14h24v0v56v0h-168v0q-17 0 -28 12q-12 11 -12 28v32v0h-24v0q-20 1 -34 14
q-13 14 -14 34v64v0q1 20 14 34q14 13 34 14h64v0q20 -1 34 -14q13 -14 14 -34v-64v0q-1 -20 -14 -34q-14 -13 -34 -14h-24v0v-32v0q2 -22 24 -24h168v0v56v0h-24v0q-20 1 -34 14q-13 14 -14 34v64v0q1 20 14 34q14 13 34 14h64v0q20 -1 34 -14q13 -14 14 -34v-64v0
q-1 -20 -14 -34q-14 -13 -34 -14h-24v0v-56v0h168v0q22 2 24 24v32v0h-24v0q-20 1 -34 14q-13 14 -14 34v64v0q1 20 14 34q14 13 34 14h64v0q20 -1 34 -14q13 -14 14 -34v-64v0q-1 -20 -14 -34q-14 -13 -34 -14h-24v0v-32v0q0 -17 -12 -28q-11 -12 -28 -12h-168v0v-56v0h24
v0q20 -1 34 -14q13 -14 14 -34v-64v0q-1 -20 -14 -34q-14 -13 -34 -14h-64v0zM48 297h64h-64h64q14 0 23 9t9 23v64v0q0 14 -9 23t-23 9h-64v0q-14 0 -23 -9t-9 -23v-64v0q0 -14 9 -23t23 -9v0zM256 297h64h-64h64q14 0 23 9t9 23v64v0q0 14 -9 23t-23 9h-64v0q-14 0 -23 -9
t-9 -23v-64v0q0 -14 9 -23t23 -9v0zM464 297h64h-64h64q14 0 23 9t9 23v64v0q0 14 -9 23t-23 9h-64v0q-14 0 -23 -9t-9 -23v-64v0q0 -14 9 -23t23 -9v0z" />
</svg>
