<?xml version="1.0" standalone="no"?>
<!DOCTYPE svg PUBLIC "-//W3C//DTD SVG 1.1//EN" "http://www.w3.org/Graphics/SVG/1.1/DTD/svg11.dtd" >
<svg xmlns="http://www.w3.org/2000/svg" xmlns:xlink="http://www.w3.org/1999/xlink" version="1.1" viewBox="-10 -40 532 512">
   <path fill="currentColor"
d="M129 3q6 -24 31 -26q25 2 31 26q2 6 8 6h17v0q22 2 24 24v16v0q-1 7 -8 8h-144v0q-7 -1 -8 -8v-16v0q2 -22 24 -24h17v0q6 0 8 -6v0zM160 -39q-33 2 -45 32h-11v0q-20 1 -32 16h-8v0q-27 1 -45 19t-19 45v272v0q1 27 19 45t45 19h128v0v-16v0h-128v0q-20 -1 -34 -14
q-13 -14 -14 -34v-272v0q1 -20 14 -34q14 -13 34 -14h1v0q-1 4 -1 8v16v0q2 22 24 24h144v0q22 -2 24 -24v-16v0q0 -4 -1 -8h1v0q33 2 45 32h17v0q-6 -21 -22 -34q-17 -14 -40 -14h-8v0q-12 -15 -32 -16h-11v0q-12 -30 -45 -32v0zM448 457h-160h160h-160q-20 -1 -34 -14
q-13 -14 -14 -34v-256v0q1 -20 14 -34q14 -13 34 -14h108v0q13 0 23 9l68 68v0q9 10 9 23v204v0q-1 20 -14 34q-14 13 -34 14v0zM288 473h160h-160h160q27 -1 45 -19t19 -45v-204v0q0 -20 -14 -34l-68 -68v0q-14 -14 -34 -14h-108v0q-27 1 -45 19t-19 45v256v0q1 27 19 45
t45 19v0z" />
</svg>
