<?xml version="1.0" standalone="no"?>
<!DOCTYPE svg PUBLIC "-//W3C//DTD SVG 1.1//EN" "http://www.w3.org/Graphics/SVG/1.1/DTD/svg11.dtd" >
<svg xmlns="http://www.w3.org/2000/svg" xmlns:xlink="http://www.w3.org/1999/xlink" version="1.1" viewBox="-10 -40 586 512">
   <path fill="currentColor"
d="M128 -34q2 7 -5 11l-43 16v0q-15 6 -16 22v138v0q1 54 37 91q37 36 91 37q54 -1 91 -37q36 -37 37 -91v-138v0q-1 -16 -16 -22l-43 -16v0q-6 -4 -4 -11q3 -6 10 -4l43 16v0q25 10 26 37v138v0q-1 59 -40 99q-38 40 -96 45v0v0v24v0q1 58 40 96q38 39 96 40q58 -1 96 -40
q39 -38 40 -96v-104v0q-24 -4 -40 -21q-15 -18 -16 -43q1 -27 19 -45t45 -19q27 1 45 19t19 45q-1 25 -16 43q-16 17 -40 21v104v0q-2 65 -45 107q-42 43 -107 45q-65 -2 -107 -45q-43 -42 -45 -107v-24v0v0v0q-58 -5 -96 -45q-39 -40 -40 -99v-138v0q1 -27 26 -37l43 -16v0
q7 -3 11 4v0zM480 105q-27 1 -42 24q-12 24 0 48q15 23 42 24q27 -1 42 -24q12 -24 0 -48q-15 -23 -42 -24v0z" />
</svg>
