<?xml version="1.0" standalone="no"?>
<!DOCTYPE svg PUBLIC "-//W3C//DTD SVG 1.1//EN" "http://www.w3.org/Graphics/SVG/1.1/DTD/svg11.dtd" >
<svg xmlns="http://www.w3.org/2000/svg" xmlns:xlink="http://www.w3.org/1999/xlink" version="1.1" viewBox="-10 -40 650 512">
   <path fill="currentColor"
d="M440 9h24h-24h24v240v0q-1 34 -23 57q-23 22 -57 23h-192v0q-34 -1 -57 -23q-22 -23 -23 -57v-224v0q1 -15 16 -16h312v0zM480 185v-176v176v-176h24v0q37 1 62 26t26 62q-1 37 -26 62t-62 26h-24v0zM480 249v-48v48v-48h24v0q44 -1 74 -30q29 -30 30 -74q-1 -44 -30 -74
q-30 -29 -74 -30h-24h-352q-14 0 -23 9t-9 23v224v0q1 41 28 68t68 28h192v0q41 -1 68 -28t28 -68v0zM8 425q-7 1 -8 8q1 7 8 8h560v0q7 -1 8 -8q-1 -7 -8 -8h-560v0z" />
</svg>
