<?xml version="1.0" standalone="no"?>
<!DOCTYPE svg PUBLIC "-//W3C//DTD SVG 1.1//EN" "http://www.w3.org/Graphics/SVG/1.1/DTD/svg11.dtd" >
<svg xmlns="http://www.w3.org/2000/svg" xmlns:xlink="http://www.w3.org/1999/xlink" version="1.1" viewBox="-10 -40 660 512">
   <path fill="currentColor"
d="M352 -23q20 1 34 14v0v0q13 14 14 34v336v0h-163v0q-9 -28 -31 -46q-23 -17 -54 -18q-31 1 -54 18q-22 18 -31 46h-3v0q-20 -1 -34 -14q-13 -14 -14 -34v-288v0q1 -20 14 -34q14 -13 34 -14h288v0zM64 377v0v0v0v8q1 37 26 62t62 26q37 -1 62 -26t26 -62v-8h160v0v0v0v8
q1 37 26 62t62 26q37 -1 62 -26t26 -62v-8h56v0q7 -1 8 -8q-1 -7 -8 -8h-24v0v-171v0q0 -16 -12 -28l-93 -93v0q-12 -12 -28 -12h-59v0v-32v0q-1 -27 -19 -45t-45 -19h-288v0q-27 1 -45 19t-19 45v288v0q1 27 19 45t45 19v0zM416 73h59h-59h59q10 0 17 7l93 93v0q2 2 3 4
h-172v0v-104v0zM416 334v-141v141v-141h176v0v168v0h-19v0q-9 -28 -31 -46q-23 -17 -54 -18q-46 2 -72 37v0zM152 313q41 1 62 36q20 36 0 72q-21 35 -62 36q-41 -1 -62 -36q-20 -36 0 -72q21 -35 62 -36v0zM416 385q1 -41 36 -62q36 -20 72 0q35 21 36 62q-1 41 -36 62
q-36 20 -72 0q-35 -21 -36 -62v0zM184 57q1 -7 8 -8h32v0q7 1 8 8v56v0q1 7 8 8h56v0q7 1 8 8v32v0q-1 7 -8 8h-56v0q-7 1 -8 8v56v0q-1 7 -8 8h-32v0q-7 -1 -8 -8v-56v0q-1 -7 -8 -8h-56v0q-7 -1 -8 -8v-32v0q1 -7 8 -8h56v0q7 -1 8 -8v-56v0zM192 33q-22 2 -24 24v48v0
h-48v0q-22 2 -24 24v32v0q2 22 24 24h48v0v48v0q2 22 24 24h32v0q22 -2 24 -24v-48v0h48v0q22 -2 24 -24v-32v0q-2 -22 -24 -24h-48v0v-48v0q-2 -22 -24 -24h-32v0z" />
</svg>
