<?xml version="1.0" standalone="no"?>
<!DOCTYPE svg PUBLIC "-//W3C//DTD SVG 1.1//EN" "http://www.w3.org/Graphics/SVG/1.1/DTD/svg11.dtd" >
<svg xmlns="http://www.w3.org/2000/svg" xmlns:xlink="http://www.w3.org/1999/xlink" version="1.1" viewBox="-10 -40 532 512">
   <path fill="currentColor"
d="M352 9q15 1 16 16v40v0v264v0v0v0v48v0q-1 20 -14 34q-14 13 -34 14h-224v0q-20 -1 -34 -14q-13 -14 -14 -34v-352v0q1 -15 16 -16h288v0zM384 377v-43v43v-43l85 -37v0q20 -9 31 -26q12 -18 12 -40v-118v0q-1 -24 -16 -40q-16 -15 -40 -16h-72v0v-32v0q0 -14 -9 -23
t-23 -9h-288v0q-14 0 -23 9t-9 23v352v0q1 27 19 45t45 19h224v0q27 -1 45 -19t19 -45v0zM462 282l-78 35l78 -35l-78 35v-244v0h72v0q17 0 28 12q12 11 12 28v118v0q-2 36 -34 51v0zM144 97q-1 -7 -8 -8q-7 1 -8 8v240v0q1 7 8 8q7 -1 8 -8v-240v0zM216 97q-1 -7 -8 -8
q-7 1 -8 8v240v0q1 7 8 8q7 -1 8 -8v-240v0zM288 97q-1 -7 -8 -8q-7 1 -8 8v240v0q1 7 8 8q7 -1 8 -8v-240v0z" />
</svg>
