<?xml version="1.0" standalone="no"?>
<!DOCTYPE svg PUBLIC "-//W3C//DTD SVG 1.1//EN" "http://www.w3.org/Graphics/SVG/1.1/DTD/svg11.dtd" >
<svg xmlns="http://www.w3.org/2000/svg" xmlns:xlink="http://www.w3.org/1999/xlink" version="1.1" viewBox="-10 -40 458 512">
   <path fill="currentColor"
d="M230 11q-6 -4 -12 0l-176 176v0q-4 6 0 12q6 4 12 0l170 -171v0l170 171v0q6 4 12 0q4 -6 0 -12l-176 -176v0zM406 379l-176 -176l176 176l-176 -176q-6 -4 -12 0l-176 176v0q-4 6 0 12q6 4 12 0l170 -171v0l170 171v0q6 4 12 0q4 -6 0 -12v0z" />
</svg>
