<?xml version="1.0" standalone="no"?>
<!DOCTYPE svg PUBLIC "-//W3C//DTD SVG 1.1//EN" "http://www.w3.org/Graphics/SVG/1.1/DTD/svg11.dtd" >
<svg xmlns="http://www.w3.org/2000/svg" xmlns:xlink="http://www.w3.org/1999/xlink" version="1.1" viewBox="-10 -40 660 512">
   <path fill="currentColor"
d="M512 9h-384h384h-384q-20 1 -34 14q-13 14 -14 34v256v0h-16v0v-256v0q1 -27 19 -45t45 -19h384v0q27 1 45 19t19 45v256v0h-16v0v-256v0q-1 -20 -14 -34q-14 -13 -34 -14v0zM19 361q-3 0 -3 3q1 26 18 43t43 18h486v0q26 -1 43 -18t18 -43q0 -3 -3 -3h-602v0zM0 364
q2 -17 19 -19h602v0q17 2 19 19q-1 33 -22 55q-22 21 -55 22h-486v0q-33 -1 -54 -22q-22 -22 -23 -55v0z" />
</svg>
