<?xml version="1.0" standalone="no"?>
<!DOCTYPE svg PUBLIC "-//W3C//DTD SVG 1.1//EN" "http://www.w3.org/Graphics/SVG/1.1/DTD/svg11.dtd" >
<svg xmlns="http://www.w3.org/2000/svg" xmlns:xlink="http://www.w3.org/1999/xlink" version="1.1" viewBox="-10 -40 532 512">
   <path fill="currentColor"
d="M256 41q14 0 23 -9v0v0q9 -9 9 -23t-9 -23t-23 -9t-23 9t-9 23t9 23t23 9v0zM256 -39q27 1 42 24q12 24 0 48q-15 23 -42 24q-27 -1 -42 -24q-12 -24 0 -48q15 -23 42 -24v0zM256 457q14 0 23 -9v0v0q9 -9 9 -23t-9 -23t-23 -9t-23 9t-9 23t9 23t23 9v0zM256 377
q27 1 42 24q12 24 0 48q-15 23 -42 24q-27 -1 -42 -24q-12 -24 0 -48q15 -23 42 -24v0zM80 217q0 -14 -9 -23v0v0q-9 -9 -23 -9t-23 9t-9 23t9 23t23 9t23 -9t9 -23v0zM0 217q1 -27 24 -42q24 -12 48 0q23 15 24 42q-1 27 -24 42q-24 12 -48 0q-23 -15 -24 -42v0zM464 249
q14 0 23 -9v0v0q9 -9 9 -23t-9 -23t-23 -9t-23 9t-9 23t9 23t23 9v0zM464 169q27 1 42 24q12 24 0 48q-15 23 -42 24q-27 -1 -42 -24q-12 -24 0 -48q15 -23 42 -24v0zM132 342q-14 -14 -32 -10q-18 5 -23 23q-4 19 9 32q10 9 23 9t23 -9q9 -10 9 -23t-9 -23v1zM75 398
q-19 -20 -12 -46t34 -34q26 -7 46 12q19 20 12 46q-8 27 -34 34t-46 -12v0zM86 93q10 9 23 9v0v0q13 0 23 -9q9 -10 9 -23t-9 -23q-10 -9 -23 -9t-23 9q-9 10 -9 23t9 23v0zM143 36q19 20 12 46q-8 26 -34 34q-26 7 -46 -12q-19 -20 -12 -46q7 -27 34 -34q26 -7 46 12v0z
M426 387q9 -10 9 -23v0v0q0 -13 -9 -23q-10 -9 -23 -9t-23 9q-9 10 -9 23t9 23q10 9 23 9t23 -9v0zM369 330q20 -19 46 -12q27 8 34 34t-12 46q-20 19 -46 12t-34 -34q-7 -26 12 -46v0z" />
</svg>
