<?xml version="1.0" standalone="no"?>
<!DOCTYPE svg PUBLIC "-//W3C//DTD SVG 1.1//EN" "http://www.w3.org/Graphics/SVG/1.1/DTD/svg11.dtd" >
<svg xmlns="http://www.w3.org/2000/svg" xmlns:xlink="http://www.w3.org/1999/xlink" version="1.1" viewBox="-10 -40 596 512">
   <path fill="currentColor"
d="M304 89q1 15 16 16h80v0q68 2 113 47t47 113q-1 52 -20 86t-40 52q-22 18 -32 22v0v0q-4 0 -4 -4q-1 -2 5 -7q9 -9 18 -26q8 -16 9 -43q-1 -48 -33 -79q-31 -32 -79 -33h-64v0q-15 1 -16 16v64v0q0 10 -9 15q-10 3 -18 -3l-160 -144v0q-5 -5 -5 -12t5 -12l160 -144v0
q8 -6 18 -3q9 5 9 15v64v0zM320 313v-48v48v-48v-16v0h16h48q41 1 68 28t28 68q-1 23 -8 36q-7 14 -14 21q-9 8 -10 19q2 18 20 20q4 0 8 -2q10 -5 34 -24q24 -20 44 -57q21 -37 22 -93q-2 -75 -52 -124q-49 -50 -124 -52h-64h-16v-16v0v-48v0q-1 -20 -19 -29q-19 -8 -34 5
l-160 144v0q-11 10 -11 24t11 24l160 144v0q15 13 34 5q18 -9 19 -29v0zM197 15q5 -6 1 -11q-6 -5 -11 -1l-157 142v0q-10 10 -10 24t10 24l157 142v0q5 4 11 -1q4 -5 -1 -11l-156 -142v0q-11 -12 0 -24l156 -142v0z" />
</svg>
