<?xml version="1.0" standalone="no"?>
<!DOCTYPE svg PUBLIC "-//W3C//DTD SVG 1.1//EN" "http://www.w3.org/Graphics/SVG/1.1/DTD/svg11.dtd" >
<svg xmlns="http://www.w3.org/2000/svg" xmlns:xlink="http://www.w3.org/1999/xlink" version="1.1" viewBox="-10 -40 212 512">
   <path fill="currentColor"
d="M80 65q22 -2 24 -24q-2 -22 -24 -24q-22 2 -24 24q2 22 24 24v0zM80 1q23 1 35 20q10 20 0 40q-12 19 -35 20q-23 -1 -35 -20q-10 -20 0 -40q12 -19 35 -20v0zM32 145q1 -7 8 -8h56v0q7 1 8 8v280v0h80v0q7 1 8 8q-1 7 -8 8h-176v0q-7 -1 -8 -8q1 -7 8 -8h80v0v-272v0
h-48v0q-7 -1 -8 -8v0z" />
</svg>
