<?xml version="1.0" standalone="no"?>
<!DOCTYPE svg PUBLIC "-//W3C//DTD SVG 1.1//EN" "http://www.w3.org/Graphics/SVG/1.1/DTD/svg11.dtd" >
<svg xmlns="http://www.w3.org/2000/svg" xmlns:xlink="http://www.w3.org/1999/xlink" version="1.1" viewBox="-10 -40 394 512">
   <path fill="currentColor"
d="M272 57v160v-160v160q-1 34 -23 57q-23 22 -57 23q-34 -1 -57 -23q-22 -23 -23 -57v-160v0q1 -34 23 -57q23 -22 57 -23q34 1 57 23q22 23 23 57v0zM96 57v160v-160v160q1 41 28 68t68 28q41 -1 68 -28t28 -68v-160v0q-1 -41 -28 -68t-68 -28q-41 1 -68 28t-28 68v0z
M48 161q-1 -7 -8 -8q-7 1 -8 8v56v0q2 66 44 110q43 45 108 50v80v0h-80v0q-7 1 -8 8q1 7 8 8h88h88q7 -1 8 -8q-1 -7 -8 -8h-80v0v-80v0q65 -5 108 -50q42 -44 44 -110v-56v0q-1 -7 -8 -8q-7 1 -8 8v56v0q-2 61 -42 102q-41 40 -102 42q-61 -2 -102 -42q-40 -41 -42 -102
v-56v0z" />
</svg>
