<?xml version="1.0" standalone="no"?>
<!DOCTYPE svg PUBLIC "-//W3C//DTD SVG 1.1//EN" "http://www.w3.org/Graphics/SVG/1.1/DTD/svg11.dtd" >
<svg xmlns="http://www.w3.org/2000/svg" xmlns:xlink="http://www.w3.org/1999/xlink" version="1.1" viewBox="-10 -40 468 512">
   <path fill="currentColor"
d="M224 -23q-48 1 -79 33v0v0q-32 31 -33 79v64v0h272v0q27 1 45 19t19 45v192v0q-1 27 -19 45t-45 19h-320v0q-27 -1 -45 -19t-19 -45v-192v0q1 -27 19 -45t45 -19h32v0v-64v0q1 -54 37 -91q37 -36 91 -37q45 1 78 27t45 67q2 7 -5 10q-8 1 -10 -6q-11 -36 -40 -59
q-29 -22 -68 -23v0zM64 169q-20 1 -34 14v0v0q-13 14 -14 34v192v0q1 20 14 34q14 13 34 14h320v0q20 -1 34 -14q13 -14 14 -34v-192v0q-1 -20 -14 -34q-14 -13 -34 -14h-272h-48zM272 313q-1 -15 -16 -16h-64v0q-15 1 -16 16q1 15 16 16h64v0q15 -1 16 -16v0zM256 281
q14 0 23 9v0v0q9 9 9 23t-9 23t-23 9h-64v0q-14 0 -23 -9t-9 -23t9 -23t23 -9h64v0z" />
</svg>
