<?xml version="1.0" standalone="no"?>
<!DOCTYPE svg PUBLIC "-//W3C//DTD SVG 1.1//EN" "http://www.w3.org/Graphics/SVG/1.1/DTD/svg11.dtd" >
<svg xmlns="http://www.w3.org/2000/svg" xmlns:xlink="http://www.w3.org/1999/xlink" version="1.1" viewBox="-10 -40 468 512">
   <path fill="currentColor"
d="M384 9q20 1 34 14v0v0q13 14 14 34v320v0q-1 20 -14 34q-14 13 -34 14h-320v0q-20 -1 -34 -14q-13 -14 -14 -34v-320v0q1 -20 14 -34q14 -13 34 -14h320v0zM64 -7q-27 1 -45 19v0v0q-18 18 -19 45v320v0q1 27 19 45t45 19h320v0q27 -1 45 -19t19 -45v-320v0
q-1 -27 -19 -45t-45 -19h-320v0zM112 297q14 0 23 9v0v0q9 9 9 23t-9 23t-23 9t-23 -9t-9 -23t9 -23t23 -9v0zM112 377q27 -1 42 -24q12 -24 0 -48q-15 -23 -42 -24q-27 1 -42 24q-12 24 0 48q15 23 42 24v0zM72 57q-7 1 -8 8q1 7 8 8q83 1 149 40q67 40 107 107
q39 66 40 149q1 7 8 8q7 -1 8 -8q-1 -87 -43 -157q-41 -71 -112 -112q-70 -42 -157 -43v0zM72 153q-7 1 -8 8q1 7 8 8q85 2 141 59q57 56 59 141q1 7 8 8q7 -1 8 -8q-2 -92 -63 -153t-153 -63v0z" />
</svg>
