<?xml version="1.0" standalone="no"?>
<!DOCTYPE svg PUBLIC "-//W3C//DTD SVG 1.1//EN" "http://www.w3.org/Graphics/SVG/1.1/DTD/svg11.dtd" >
<svg xmlns="http://www.w3.org/2000/svg" xmlns:xlink="http://www.w3.org/1999/xlink" version="1.1" viewBox="-10 -40 596 512">
   <path fill="currentColor"
d="M64 25q-27 1 -45 19v0v0q-18 18 -19 45v73v0q0 6 7 8q18 2 29 15q12 13 12 32t-12 32q-11 13 -29 16q-6 1 -7 7v73v0q1 27 19 45t45 19h448v0q27 -1 45 -19t19 -45v-73v0q0 -6 -7 -7q-18 -3 -29 -16q-12 -13 -12 -32t12 -32q11 -13 29 -15q6 -2 7 -8v-73v0
q-1 -27 -19 -45t-45 -19h-448v0zM16 89q1 -20 14 -34v0v0q14 -13 34 -14h448v0q20 1 34 14q13 14 14 34v66v0q-21 6 -34 22q-14 17 -14 40t14 40q13 16 34 22v66v0q-1 20 -14 34q-14 13 -34 14h-448v0q-20 -1 -34 -14q-13 -14 -14 -34v-66v0q21 -6 34 -22q14 -17 14 -40
t-14 -40q-13 -16 -34 -22v-66v0zM160 137h256h-256h256q15 1 16 16v128v0q-1 15 -16 16h-256v0q-15 -1 -16 -16v-128v0q1 -15 16 -16v0zM128 153v128v-128v128q0 14 9 23t23 9h256v0q14 0 23 -9t9 -23v-128v0q0 -14 -9 -23t-23 -9h-256v0q-14 0 -23 9t-9 23v0z" />
</svg>
