<?xml version="1.0" standalone="no"?>
<!DOCTYPE svg PUBLIC "-//W3C//DTD SVG 1.1//EN" "http://www.w3.org/Graphics/SVG/1.1/DTD/svg11.dtd" >
<svg xmlns="http://www.w3.org/2000/svg" xmlns:xlink="http://www.w3.org/1999/xlink" version="1.1" viewBox="-10 -40 586 512">
   <path fill="currentColor"
d="M166 439l112 -112l-112 112l112 -112q4 -6 0 -12q-6 -4 -12 0l-98 99v0v-413v0q-1 -7 -8 -8q-7 1 -8 8v413v0l-98 -99v0q-6 -4 -12 0q-4 6 0 12l112 112v0q6 4 12 0v0zM336 257q1 7 8 8h127v0l-133 163v0q-3 4 -1 8q2 5 7 5h144v0q7 -1 8 -8q-1 -7 -8 -8h-127v0l133 -163
v0q3 -4 1 -8q-2 -5 -7 -5h-144v0q-7 1 -8 8v0zM416 -7q-5 0 -7 4l-64 128v0v1v0l-24 47v0q-3 7 4 11q6 3 10 -3l22 -44v0h118v0l22 44v0q4 6 11 3q6 -4 3 -10l-24 -48v0v-1v0l-64 -128v0q-2 -4 -7 -4v0zM416 19l51 102l-51 -102l51 102h-102v0l51 -102v0z" />
</svg>
