<?xml version="1.0" standalone="no"?>
<!DOCTYPE svg PUBLIC "-//W3C//DTD SVG 1.1//EN" "http://www.w3.org/Graphics/SVG/1.1/DTD/svg11.dtd" >
<svg xmlns="http://www.w3.org/2000/svg" xmlns:xlink="http://www.w3.org/1999/xlink" version="1.1" viewBox="-10 -40 532 512">
   <path fill="currentColor"
d="M192 41q14 0 23 -9v0v0q9 -9 9 -23t-9 -23t-23 -9t-23 9t-9 23t9 23t23 9v0zM192 -39q27 1 42 24q12 24 0 48q-15 23 -42 24q-27 -1 -42 -24q-12 -24 0 -48q15 -23 42 -24v0zM144 162q0 7 -7 9q-52 9 -86 48t-35 94q2 61 42 102q41 40 102 42q51 -1 88 -30q38 -29 51 -76
q3 -7 10 -6q7 3 5 10q-14 52 -56 85q-42 32 -98 33q-68 -2 -113 -47t-47 -113q1 -61 39 -104q37 -44 96 -54q7 0 9 7v0zM267 252l-10 -48l10 48l-10 -48q-1 -7 3 -13q5 -6 13 -6h63v0q15 -1 16 -16q-1 -15 -16 -16h-76v0q-13 -1 -16 -13l-2 -10v0q-6 -24 -31 -25
q-15 0 -24 11t-7 27l23 115v0q4 17 17 28q13 10 30 11h5h1v0v0v0v0h1v0v0v0h94v0q21 1 30 21l36 97v0q6 12 20 9l48 -16v0q13 -6 10 -20q-6 -13 -20 -10l-19 6v0q-14 3 -20 -9l-25 -68v0q-8 -19 -24 -31q-16 -11 -36 -11h-69v0q-12 -1 -15 -13v0zM426 301l25 68l-25 -68
l25 68l19 -6v0q13 -4 24 1q12 6 16 19t-1 24q-6 12 -19 16l-48 16v0q-13 4 -24 -1t-16 -18l-36 -97v0q-5 -9 -15 -10h-94v0h-1h-1h-5v0q-23 0 -40 -14q-18 -15 -23 -37l-23 -116v0q-3 -23 10 -40q14 -16 37 -17q18 0 30 11q13 10 17 27l2 10v0h76v0q14 0 23 9t9 23t-9 23
t-23 9h-47h-16l3 16v0l6 32v0h69v0q25 0 45 14t30 38v0z" />
</svg>
