<?xml version="1.0" standalone="no"?>
<!DOCTYPE svg PUBLIC "-//W3C//DTD SVG 1.1//EN" "http://www.w3.org/Graphics/SVG/1.1/DTD/svg11.dtd" >
<svg xmlns="http://www.w3.org/2000/svg" xmlns:xlink="http://www.w3.org/1999/xlink" version="1.1" viewBox="-10 -40 654 512">
   <path fill="currentColor"
d="M405 313l-160 96l160 -96l-160 96q-53 32 -115 32h-50v0q-20 -1 -34 -14q-13 -14 -14 -34v-48v0q-14 0 -23 -9t-9 -23v-192v0q0 -14 9 -23t23 -9v-48v0q1 -20 14 -34q14 -13 34 -14h50v0q62 0 115 32l160 96v0h51v0q46 1 92 21q46 21 78 56q15 19 0 38q-32 35 -78 56
q-46 20 -92 21h-51v0zM374 313h-185h185h-185q-8 0 -16 9q-15 16 -37 21v82v0q54 -2 101 -30l137 -82v0zM48 345v48v-48v48q0 14 9 23t23 9h40v0v-80v0h-72v0zM374 121l-137 -82l137 82l-137 -82q-47 -28 -101 -30v82v0q22 5 37 21q8 9 16 9h185v0zM80 9q-14 0 -23 9v0v0
q-9 9 -9 23v48v0h72v0v-80v0h-40v0zM16 121v88v-88v88h168v0q7 1 8 8q-1 7 -8 8h-168v0v88v0q1 15 16 16h88v0q25 -1 41 -18q11 -13 28 -14h267v0q43 -1 86 -20q42 -19 73 -52q6 -8 0 -16q-31 -33 -73 -52q-43 -19 -86 -20h-267v0q-17 -1 -28 -14q-16 -17 -41 -18h-88v0
q-15 1 -16 16v0zM488 177q7 1 8 8v64v0q-1 7 -8 8q-7 -1 -8 -8v-64v0q1 -7 8 -8v0z" />
</svg>
