<?xml version="1.0" standalone="no"?>
<!DOCTYPE svg PUBLIC "-//W3C//DTD SVG 1.1//EN" "http://www.w3.org/Graphics/SVG/1.1/DTD/svg11.dtd" >
<svg xmlns="http://www.w3.org/2000/svg" xmlns:xlink="http://www.w3.org/1999/xlink" version="1.1" viewBox="-10 -40 532 512">
   <path fill="currentColor"
d="M263 178l32 32l-32 -32l32 32q25 23 57 23q53 -2 98 -54q21 -26 33 -57q13 -32 13 -65q-1 -34 -24 -57q-22 -22 -56 -23q-33 0 -65 13q-31 12 -57 33q-52 45 -54 98q0 32 23 57v0zM252 189q-28 -30 -28 -68q1 -41 28 -77q28 -36 72 -59q43 -23 92 -24q41 1 68 28t28 68
q-1 49 -24 92q-23 44 -59 72q-36 27 -77 28q-38 0 -68 -28l-10 -10v0l-260 260v0q-6 4 -12 0q-4 -6 0 -12l261 -260v0l-11 -10v0z" />
</svg>
