<?xml version="1.0" standalone="no"?>
<!DOCTYPE svg PUBLIC "-//W3C//DTD SVG 1.1//EN" "http://www.w3.org/Graphics/SVG/1.1/DTD/svg11.dtd" >
<svg xmlns="http://www.w3.org/2000/svg" xmlns:xlink="http://www.w3.org/1999/xlink" version="1.1" viewBox="-10 -40 596 512">
   <path fill="currentColor"
d="M280 -22q8 -2 16 0l111 40v0l-119 46v0l-119 -46v0l111 -40v0zM144 180l-128 43l128 -43l-128 43q-15 6 -16 22v151v0q1 21 20 29l113 44v0q11 4 22 0l133 -49v0l133 49v0q11 4 23 0l112 -44v0q19 -8 20 -29v-151v0q-1 -16 -16 -22l-128 -43v0v-153v0q-1 -17 -16 -23
l-115 -41v0q-13 -4 -26 0l-115 41v0q-15 6 -16 23v153v0zM160 180v-148v148v-148l120 46v0v152v0l-120 -50v0zM296 253l128 50l-128 -50l128 50v151v0l-128 -48v0v-153v0zM152 194l114 47l-114 -47l114 47l-122 48v0l-119 -52v0l127 -43v0zM16 396v-146v146v-146l120 52v0
v151v0l-110 -43v0q-10 -4 -10 -14v0zM152 454v-151v151v-151l128 -50v0v153v0l-128 48v0zM296 78l120 -46l-120 46l120 -46v148v0l-120 50v0v-152v0zM310 241l114 -47l-114 47l114 -47l127 43v0l-119 52v0l-122 -48v0zM550 410l-110 43l110 -43l-110 43v-151v0l120 -52v0
v146v0q0 10 -10 14v0z" />
</svg>
