<?xml version="1.0" standalone="no"?>
<!DOCTYPE svg PUBLIC "-//W3C//DTD SVG 1.1//EN" "http://www.w3.org/Graphics/SVG/1.1/DTD/svg11.dtd" >
<svg xmlns="http://www.w3.org/2000/svg" xmlns:xlink="http://www.w3.org/1999/xlink" version="1.1" viewBox="-10 -40 404 512">
   <path fill="currentColor"
d="M64 457q-20 -1 -34 -14v0v0q-13 -14 -14 -34v-384v0q1 -20 14 -34q14 -13 34 -14h140v0h4v0v120v0q0 17 12 28q11 12 28 12h120v0v4v268v0q-1 20 -14 34q-14 13 -34 14h-256v0zM359 118q1 2 2 3h-113v0q-22 -2 -24 -24v-113v0q1 1 3 2l132 132v0zM64 -39q-27 1 -45 19v0
v0q-18 18 -19 45v384v0q1 27 19 45t45 19h256v0q27 -1 45 -19t19 -45v-268v0q0 -20 -14 -34l-132 -132v0q-14 -14 -34 -14h-140v0zM120 185q-7 1 -8 8v128v0v80v0q1 7 8 8q7 -1 8 -8v-72v0h72v0q31 -1 51 -21t21 -51q-1 -31 -21 -51t-51 -21h-80v0zM200 313h-72h72h-72v-112
v0h72v0q24 1 40 16q15 16 16 40q-1 24 -16 40q-16 15 -40 16v0z" />
</svg>
