<?xml version="1.0" standalone="no"?>
<!DOCTYPE svg PUBLIC "-//W3C//DTD SVG 1.1//EN" "http://www.w3.org/Graphics/SVG/1.1/DTD/svg11.dtd" >
<svg xmlns="http://www.w3.org/2000/svg" xmlns:xlink="http://www.w3.org/1999/xlink" version="1.1" viewBox="-10 -40 404 512">
   <path fill="currentColor"
d="M64 457h256h-256h256q20 -1 34 -14q13 -14 14 -34v-268v0v-4v0h-120v0q-17 0 -28 -12q-12 -11 -12 -28v-120v0h-4v0h-140v0q-20 1 -34 14q-13 14 -14 34v384v0q1 20 14 34q14 13 34 14v0zM361 121q-1 -1 -2 -3l-132 -132v0q-2 -1 -3 -2v113v0q2 22 24 24h113v0zM0 25
q1 -27 19 -45v0v0q18 -18 45 -19h140v0q20 0 34 14l132 132v0q14 14 14 34v268v0q-1 27 -19 45t-45 19h-256v0q-27 -1 -45 -19t-19 -45v-384v0zM82 301q-2 6 -2 12q1 21 14 34q14 14 34 14t34 -14q13 -13 14 -34q0 -6 -2 -12l-23 -88v0q-4 -11 -16 -12h-14v0q-12 1 -16 12
l-23 88v0zM66 297l24 -88l-24 88l24 -88q7 -23 31 -24h14v0q24 1 31 24l24 88v0q2 8 2 16q-1 27 -19 45t-45 19q-27 -1 -45 -19t-19 -45q0 -8 2 -16v0zM112 305h32h-32h32q7 1 8 8q-1 7 -8 8h-32v0q-7 -1 -8 -8q1 -7 8 -8v0zM104 -7h48h-48h48q7 1 8 8q-1 7 -8 8h-48v0
q-7 -1 -8 -8q1 -7 8 -8v0zM104 25h48h-48h48q7 1 8 8q-1 7 -8 8h-48v0q-7 -1 -8 -8q1 -7 8 -8v0zM104 57h48h-48h48q7 1 8 8q-1 7 -8 8h-48v0q-7 -1 -8 -8q1 -7 8 -8v0zM104 89h48h-48h48q7 1 8 8q-1 7 -8 8h-48v0q-7 -1 -8 -8q1 -7 8 -8v0zM104 121h48h-48h48q7 1 8 8
q-1 7 -8 8h-48v0q-7 -1 -8 -8q1 -7 8 -8v0zM104 153h48h-48h48q7 1 8 8q-1 7 -8 8h-48v0q-7 -1 -8 -8q1 -7 8 -8v0z" />
</svg>
