<?xml version="1.0" standalone="no"?>
<!DOCTYPE svg PUBLIC "-//W3C//DTD SVG 1.1//EN" "http://www.w3.org/Graphics/SVG/1.1/DTD/svg11.dtd" >
<svg xmlns="http://www.w3.org/2000/svg" xmlns:xlink="http://www.w3.org/1999/xlink" version="1.1" viewBox="-10 -40 660 512">
   <path fill="currentColor"
d="M386 361h-258h258h-258q-15 -1 -16 -16q0 -5 3 -9l17 -21v0q42 -53 44 -120l-16 -13v0v8v0q-1 64 -40 115l-17 20v0q-7 9 -7 20q0 14 9 23t23 9h279v0l-21 -16v0zM312 -7q-61 4 -103 45l13 10v0q40 -38 98 -39q61 2 102 42q40 41 42 102v37v0q0 28 8 55l24 19v0
q-16 -35 -16 -74v-37v0q-2 -66 -44 -110q-43 -45 -108 -50v0v0v-24v0q-1 -7 -8 -8q-7 1 -8 8v24v0v0v0zM272 409q-1 -7 -8 -8q-7 1 -8 8q0 26 19 45t45 19t45 -19t19 -45q-1 -7 -8 -8q-7 1 -8 8q0 20 -14 34t-34 14t-34 -14t-14 -34v0zM13 -37q-6 -4 -11 1q-4 6 1 11
l624 496v0q6 4 11 -1q4 -6 -1 -11l-624 -496v0z" />
</svg>
