<?xml version="1.0" standalone="no"?>
<!DOCTYPE svg PUBLIC "-//W3C//DTD SVG 1.1//EN" "http://www.w3.org/Graphics/SVG/1.1/DTD/svg11.dtd" >
<svg xmlns="http://www.w3.org/2000/svg" xmlns:xlink="http://www.w3.org/1999/xlink" version="1.1" viewBox="-10 -40 597 512">
   <path fill="currentColor"
d="M296 337q-16 0 -31 -5v0v0l-4 -2v0l-54 -53v0q-1 -3 -2 -5v0v0q-5 -15 -5 -31q1 -48 39 -77l245 -178v0q15 -10 32 -9q17 2 30 14q12 13 14 30q1 17 -9 32l-178 245v0q-29 38 -77 39v0zM253 345q3 11 3 24q-1 36 -24 60q-22 24 -57 28h-1h-1h-5h-136q-15 -1 -16 -16
q1 -15 16 -16h4v0q22 -1 34 -17q11 -16 10 -35v-4q1 -37 26 -62t62 -26q13 0 24 3l61 61v0zM270 350q13 3 26 3q56 -1 90 -46l178 -244v0q14 -20 12 -43t-19 -40t-40 -19t-43 12l-244 178v0q-45 34 -46 90q0 13 3 26q-9 -2 -19 -2q-44 1 -74 30q-29 30 -30 74v5q0 13 -7 24
q-8 10 -21 11h-4v0q-14 0 -23 9t-9 23t9 23t23 9h136h8v0v0q41 -5 68 -33q27 -29 28 -71q0 -10 -2 -19v0z" />
</svg>
