<?xml version="1.0" standalone="no"?>
<!DOCTYPE svg PUBLIC "-//W3C//DTD SVG 1.1//EN" "http://www.w3.org/Graphics/SVG/1.1/DTD/svg11.dtd" >
<svg xmlns="http://www.w3.org/2000/svg" xmlns:xlink="http://www.w3.org/1999/xlink" version="1.1" viewBox="-10 -40 468 512">
   <path fill="currentColor"
d="M69 23q-5 8 -5 18q0 13 9 23q9 9 23 9t23 -9q9 -10 9 -23q0 -10 -5 -18l-27 -42v0l-27 42v0zM56 15l30 -49l-30 49l30 -49q4 -5 10 -5t10 5l31 49v0q7 12 7 26q-1 20 -14 34q-14 13 -34 14q-20 -1 -34 -14q-13 -14 -14 -34q0 -14 8 -26v0zM384 201h-24h24h-24v24v0
q-1 7 -8 8q-7 -1 -8 -8v-24v0h-112v0v24v0q-1 7 -8 8q-7 -1 -8 -8v-24v0h-112v0v24v0q-1 7 -8 8q-7 -1 -8 -8v-24v0h-24v0q-20 1 -34 14q-13 14 -14 34v94v0q20 4 39 -4q20 -8 35 -24q3 -2 6 -2q4 0 6 3q25 27 58 27t58 -27q2 -3 6 -3t6 3q25 27 58 27t58 -27q2 -3 6 -3
q3 0 6 2q15 16 35 24q19 8 39 4v-94v0q-1 -20 -14 -34q-14 -13 -34 -14v0zM16 360v81v-81v81q1 15 16 16h384v0q15 -1 16 -16v-81v0q-22 3 -43 -5t-37 -23q-28 27 -64 27q-35 0 -64 -26q-29 26 -64 26q-36 0 -64 -27q-16 15 -37 23t-43 5v0zM64 185h24h-24h24v-56v0
q1 -7 8 -8q7 1 8 8v56v0h112v0v-56v0q1 -7 8 -8q7 1 8 8v56v0h112v0v-56v0q1 -7 8 -8q7 1 8 8v56v0h24v0q27 1 45 19t19 45v192v0q0 14 -9 23t-23 9h-384v0q-14 0 -23 -9t-9 -23v-192v0q1 -27 19 -45t45 -19v0zM224 -19l-27 42l27 -42l-27 42q-5 8 -5 18q0 13 9 23q9 9 23 9
t23 -9q9 -10 9 -23q0 -10 -5 -18l-27 -42v0zM214 -34q4 -5 10 -5t10 5l31 49v0q7 12 7 26q-1 20 -14 34q-14 13 -34 14q-20 -1 -34 -14q-13 -14 -14 -34q0 -14 8 -26l30 -49v0zM325 23q-5 8 -5 18q0 13 9 23q9 9 23 9t23 -9q9 -10 9 -23q0 -10 -5 -18l-27 -42v0l-27 42v0z
M312 15l30 -49l-30 49l30 -49q4 -5 10 -5t10 5l31 49v0q7 12 7 26q-1 20 -14 34q-14 13 -34 14q-20 -1 -34 -14q-13 -14 -14 -34q0 -14 8 -26v0z" />
</svg>
