<?xml version="1.0" standalone="no"?>
<!DOCTYPE svg PUBLIC "-//W3C//DTD SVG 1.1//EN" "http://www.w3.org/Graphics/SVG/1.1/DTD/svg11.dtd" >
<svg xmlns="http://www.w3.org/2000/svg" xmlns:xlink="http://www.w3.org/1999/xlink" version="1.1" viewBox="-10 -40 660 512">
   <path fill="currentColor"
d="M296 -7q-7 1 -8 8q1 7 8 8h51v0l58 112v0h-2h-197v0l-39 -60v0q-3 -4 -7 -4h-56v0q-7 1 -8 8q1 7 8 8h52v0l36 57v0l-27 61v0q-18 -6 -37 -6q-54 1 -91 37q-36 37 -37 91q1 54 37 91q37 36 91 37q52 -1 88 -35q35 -34 40 -85h64v0q5 0 7 -4l90 -172v0l30 58v0
q-29 17 -46 46t-17 64q1 54 37 91q37 36 91 37q54 -1 91 -37q36 -37 37 -91q-1 -54 -37 -91q-37 -36 -91 -37q-27 0 -51 11l-100 -194v0q-4 -9 -14 -9h-51v0zM454 217l51 100l-51 -100l51 100q4 6 11 3q6 -4 3 -11l-51 -99v0q21 -9 44 -9q48 1 79 33q32 31 33 79
q-1 48 -33 79q-31 32 -79 33q-48 -1 -79 -33q-32 -31 -33 -79q0 -31 15 -56q14 -25 39 -40v0zM159 205l-44 100l44 -100l-44 100q-4 14 10 16h115v0q-4 45 -36 74q-31 29 -76 30q-48 -1 -79 -33q-32 -31 -33 -79q1 -48 33 -79q31 -32 79 -33q16 0 31 4v0zM132 305l71 -159
l-71 159l71 -159l102 159v0h-173v0zM216 137h187h-187h187l-84 160v0l-103 -160v0z" />
</svg>
