<?xml version="1.0" standalone="no"?>
<!DOCTYPE svg PUBLIC "-//W3C//DTD SVG 1.1//EN" "http://www.w3.org/Graphics/SVG/1.1/DTD/svg11.dtd" >
<svg xmlns="http://www.w3.org/2000/svg" xmlns:xlink="http://www.w3.org/1999/xlink" version="1.1" viewBox="-10 -40 596 512">
   <path fill="currentColor"
d="M512 9q20 1 34 14v0v0q13 14 14 34v320v0q-1 20 -14 34q-14 13 -34 14h-448v0q-20 -1 -34 -14q-13 -14 -14 -34v-320v0q1 -20 14 -34q14 -13 34 -14h448v0zM64 -7q-27 1 -45 19v0v0q-18 18 -19 45v320v0q1 27 19 45t45 19h448v0q27 -1 45 -19t19 -45v-320v0
q-1 -27 -19 -45t-45 -19h-448v0zM192 137q38 1 62 29q5 5 11 1q5 -5 1 -11q-28 -33 -74 -35q-41 1 -68 28t-28 68q1 41 28 68t68 28q46 -1 74 -35q4 -6 -1 -11q-6 -4 -11 1q-24 28 -62 29q-34 -1 -57 -23q-22 -23 -23 -57q1 -34 23 -57q23 -22 57 -23v0zM320 217
q1 -34 23 -57v0v0q23 -22 57 -23q38 1 62 29q5 5 11 1q5 -5 1 -11q-28 -33 -74 -35q-41 1 -68 28t-28 68q1 41 28 68t68 28q46 -1 74 -35q4 -6 -1 -11q-6 -4 -11 1q-24 28 -62 29q-34 -1 -57 -23q-22 -23 -23 -57v0z" />
</svg>
