<?xml version="1.0" standalone="no"?>
<!DOCTYPE svg PUBLIC "-//W3C//DTD SVG 1.1//EN" "http://www.w3.org/Graphics/SVG/1.1/DTD/svg11.dtd" >
<svg xmlns="http://www.w3.org/2000/svg" xmlns:xlink="http://www.w3.org/1999/xlink" version="1.1" viewBox="-10 -40 468 512">
   <path fill="currentColor"
d="M176 -23q-8 -1 -19 11q-11 13 -21 37q-11 27 -18 56q41 15 106 16q62 -2 106 -17q-7 -29 -18 -55q-10 -24 -21 -37q-11 -12 -19 -11q-16 1 -21 5q0 1 -1 1l-1 1q-7 7 -25 9q-18 -2 -25 -9v0v0l-2 -2q-5 -4 -21 -5v0zM272 -39q27 2 45 37v0v0q18 35 28 77q1 -1 3 -1
q23 -10 35 -16q6 -4 10 -6l1 -1h1v0v0l1 -1v0v0v0q6 -3 11 3q3 6 -3 11l-4 -7v0q5 8 4 7v0v0v0v0v0v0v0v0h-1v0l-1 1l-1 1l-10 5q-13 8 -37 17q-24 10 -57 17q-33 8 -73 8q-86 -3 -133 -25q-23 -9 -35 -17q-6 -3 -9 -5l-1 -1q-1 -1 -2 -1v0v0l-1 -1v0v0v0v0v0v0v0q-1 2 5 -6
l-5 6v0q-5 -5 -1 -11q5 -5 11 -1v0v0v0v0v0v0q1 0 2 1l9 6q11 6 33 16q2 0 3 1q2 0 3 1q10 -42 28 -78q18 -35 45 -37q25 2 32 10h1q6 5 15 6q9 -1 16 -6v0q7 -8 32 -10v0zM100 185q-4 -15 -4 -32q0 -14 3 -28q7 3 15 5q-2 11 -2 23q1 48 33 79q31 32 79 33q48 -1 79 -33
q32 -31 33 -79q0 -12 -2 -24q8 -2 15 -5q3 14 3 29q0 17 -4 32h71v0q12 1 13 13q0 3 -1 6l-46 87v0q29 26 46 63q17 36 17 79v8v0q0 14 -9 23t-23 9h-384v0q-14 0 -23 -9t-9 -23v-8v0q0 -43 17 -79q17 -37 46 -63l-45 -87v0q-2 -3 -2 -6q1 -12 13 -13h71v0zM343 201
q-15 36 -47 58v0v0q-31 21 -72 22q-41 -1 -72 -22q-32 -22 -47 -58h-71v0l43 82v0q5 11 -3 20q-56 50 -58 130v8v0q1 15 16 16h136v0l-32 -110v0q-1 -7 6 -10q7 -1 10 6l29 102v0l34 -75v0l-37 -44v0q-3 -4 -1 -8q2 -5 7 -5h80v0q5 0 7 5q2 4 -1 8l-37 44v0l34 75v0l29 -102
v0q3 -7 10 -6q7 3 6 10l-32 110v0h136v0q15 -1 16 -16v-8v0q-2 -80 -58 -130q-8 -9 -3 -20l43 -82v0h-71v0zM224 388l-31 69l31 -69l-31 69h62v0l-31 -69v0zM128 134q8 2 16 3v11v0q0 13 9 22t23 10h5v0q22 -2 30 -22l4 -13v0h9v0h9l4 13v0q8 20 31 22h4v0q14 -1 23 -10
t9 -22v-11v0l16 -4v15v0q-1 20 -14 34q-14 13 -34 14h-4v0q-30 -2 -44 -28q-13 26 -43 28h-5v0q-20 -1 -34 -14q-13 -14 -14 -34v-14v0zM224 357l23 -28l-23 28l23 -28h-46v0l23 28v0z" />
</svg>
