<?xml version="1.0" standalone="no"?>
<!DOCTYPE svg PUBLIC "-//W3C//DTD SVG 1.1//EN" "http://www.w3.org/Graphics/SVG/1.1/DTD/svg11.dtd" >
<svg xmlns="http://www.w3.org/2000/svg" xmlns:xlink="http://www.w3.org/1999/xlink" version="1.1" viewBox="-10 -40 660 512">
   <path fill="currentColor"
d="M456 9h24h-24h24q15 1 16 16v32v0q-1 15 -16 16h-82v0l-10 -20v0l58 -41v0q5 -3 10 -3v0zM406 89h74h-74h74q14 0 23 -9t9 -23v-32v0q0 -14 -9 -23t-23 -9h-24v0q-11 0 -19 6l-56 40v0l-17 -33v0q-7 -12 -22 -13h-78v0q-7 1 -8 8q1 7 8 8h78v0q5 0 7 4l18 35v0l-111 79v0
l-31 -19v0q-31 -19 -67 -19h-94v0q-14 0 -23 9t-9 23t9 23t23 9h48v0q72 2 121 49q50 47 55 119v8v0q1 7 8 8h48v0q7 -1 8 -8v-16v0q0 -45 22 -81t58 -58l15 29v0q-29 17 -46 46t-17 64q1 54 37 91q37 36 91 37q54 -1 91 -37q36 -37 37 -91q-1 -54 -37 -91q-37 -36 -91 -37
q-27 0 -51 11l-55 -107v0zM217 122l35 22l-35 -22l35 22q4 2 9 0l114 -81v0l50 97v0q-41 23 -65 63q-23 40 -24 90v8v0h-32v0v0v0q-6 -79 -59 -131q-54 -51 -133 -53h-48v0q-15 -1 -16 -16q1 -15 16 -16h94v0q32 0 59 17v0zM454 217l51 100l-51 -100l51 100q4 6 11 3
q6 -4 3 -11l-51 -99v0q21 -9 44 -9q48 1 79 33q32 31 33 79q-1 48 -33 79q-31 32 -79 33q-48 -1 -79 -33q-32 -31 -33 -79q0 -31 15 -56q14 -25 39 -40v0zM240 321q-4 45 -36 74v0v0q-31 29 -76 30q-48 -1 -79 -33q-32 -31 -33 -79q1 -48 33 -79q31 -32 79 -33q45 1 77 30
q31 29 35 74h-48v0q-4 -24 -21 -40q-18 -15 -43 -16q-27 1 -45 19t-19 45q1 27 19 45t45 19q25 -1 43 -16q17 -16 21 -40h48v0zM175 321q-3 17 -16 29v0v0q-13 11 -31 11q-20 -1 -34 -14q-13 -14 -14 -34q1 -20 14 -34q14 -13 34 -14q18 0 31 11q13 12 16 29h-47v0
q-7 1 -8 8q1 7 8 8h47v0zM256 313q0 -35 -17 -64v0v0q-17 -29 -47 -47q-30 -17 -64 -17t-64 17q-30 18 -47 47t-17 64t17 64t47 47q30 17 64 17t64 -17q30 -18 47 -47t17 -64v0z" />
</svg>
