<?xml version="1.0" standalone="no"?>
<!DOCTYPE svg PUBLIC "-//W3C//DTD SVG 1.1//EN" "http://www.w3.org/Graphics/SVG/1.1/DTD/svg11.dtd" >
<svg xmlns="http://www.w3.org/2000/svg" xmlns:xlink="http://www.w3.org/1999/xlink" version="1.1" viewBox="-10 -40 340 512">
   <path fill="currentColor"
d="M144 265h154h-154h154q5 -1 6 -6q0 -3 -2 -5l-274 -243v0q-2 -2 -5 -2q-6 1 -7 7v371v0q1 5 6 6q3 0 5 -2l105 -120v0q5 -6 12 -6v0zM0 387v-371v371v-371q2 -21 23 -23q9 0 16 6l274 244v0q7 6 7 16q-2 20 -22 22h-145v0l70 149v0q3 7 -4 10q-6 3 -10 -3l-71 -149v0
l-99 114v0q-7 7 -17 7q-20 -2 -22 -22v0z" />
</svg>
