<?xml version="1.0" standalone="no"?>
<!DOCTYPE svg PUBLIC "-//W3C//DTD SVG 1.1//EN" "http://www.w3.org/Graphics/SVG/1.1/DTD/svg11.dtd" >
<svg xmlns="http://www.w3.org/2000/svg" xmlns:xlink="http://www.w3.org/1999/xlink" version="1.1" viewBox="-10 -40 660 512">
   <path fill="currentColor"
d="M0 9q0 18 11 31v0v0q12 13 29 16v162v0q-17 3 -29 16q-11 13 -11 31q1 20 14 34q14 13 34 14q18 0 31 -11q13 -12 16 -29h258v0q3 17 16 29q13 11 31 11q20 -1 34 -14q13 -14 14 -34q0 -18 -11 -31q-12 -13 -29 -16v-162v0q17 -3 29 -16q11 -13 11 -31q-1 -20 -14 -34
q-14 -13 -34 -14q-18 0 -31 11q-13 12 -16 29h-258v0q-3 -17 -16 -29q-13 -11 -31 -11q-20 1 -34 14q-13 14 -14 34v0zM353 17q7 32 39 39v162v0q-32 7 -39 39h-258v0q-7 -32 -39 -39v-162v0q32 -7 39 -39h258v0zM480 161h-8h8h-8v16v0h8h65q7 32 39 39v162v0q-32 7 -39 39
h-258v0q-7 -32 -39 -39v-65v0v-8v0h-16v0v8v0v65v0q-17 3 -29 16q-11 13 -11 31q1 20 14 34q14 13 34 14q18 0 31 -11q13 -12 16 -29h258v0q3 17 16 29q13 11 31 11q20 -1 34 -14q13 -14 14 -34q0 -18 -11 -31q-12 -13 -29 -16v-162v0q17 -3 29 -16q11 -13 11 -31
q-1 -20 -14 -34q-14 -13 -34 -14q-18 0 -31 11q-13 12 -16 29h-65v0zM592 201q-14 0 -23 -9v0v0q-9 -9 -9 -23t9 -23t23 -9t23 9t9 23t-9 23t-23 9v0zM560 425q0 -14 9 -23v0v0q9 -9 23 -9t23 9t9 23t-9 23t-23 9t-23 -9t-9 -23v0zM240 457q-14 0 -23 -9v0v0q-9 -9 -9 -23
t9 -23t23 -9t23 9t9 23t-9 23t-23 9v0zM368 265q0 -14 9 -23v0v0q9 -9 23 -9t23 9t9 23t-9 23t-23 9t-23 -9t-9 -23v0zM48 297q-14 0 -23 -9v0v0q-9 -9 -9 -23t9 -23t23 -9t23 9t9 23t-9 23t-23 9v0zM368 9q0 -14 9 -23v0v0q9 -9 23 -9t23 9t9 23t-9 23t-23 9t-23 -9t-9 -23
v0zM48 41q-14 0 -23 -9v0v0q-9 -9 -9 -23t9 -23t23 -9t23 9t9 23t-9 23t-23 9v0z" />
</svg>
