<?xml version="1.0" standalone="no"?>
<!DOCTYPE svg PUBLIC "-//W3C//DTD SVG 1.1//EN" "http://www.w3.org/Graphics/SVG/1.1/DTD/svg11.dtd" >
<svg xmlns="http://www.w3.org/2000/svg" xmlns:xlink="http://www.w3.org/1999/xlink" version="1.1" viewBox="-10 -40 532 512">
   <path fill="currentColor"
d="M0 73q1 -20 14 -34v0v0q14 -13 34 -14h246v0q53 1 85 45l115 166v0q18 27 18 59v106v0q-1 7 -8 8q-7 -1 -8 -8v-106v0q0 -27 -16 -50l-114 -166v0q-27 -37 -72 -38h-246v0q-14 0 -23 9t-9 23t9 23t23 9h192v0q27 1 45 19t19 45q-1 27 -19 45t-45 19h-128v0q-14 0 -23 9
t-9 23t9 23t23 9h155v0q8 0 14 5l77 56v0q10 7 10 19v24v0q-1 7 -8 8q-7 -1 -8 -8v-24v0q0 -4 -3 -6l-77 -56v0q-3 -2 -5 -2h-155v0q-20 -1 -34 -14q-13 -14 -14 -34q1 -20 14 -34q14 -13 34 -14h128v0q20 -1 34 -14q13 -14 14 -34q-1 -20 -14 -34q-14 -13 -34 -14h-192v0
q-20 -1 -34 -14q-13 -14 -14 -34v0z" />
</svg>
