<?xml version="1.0" standalone="no"?>
<!DOCTYPE svg PUBLIC "-//W3C//DTD SVG 1.1//EN" "http://www.w3.org/Graphics/SVG/1.1/DTD/svg11.dtd" >
<svg xmlns="http://www.w3.org/2000/svg" xmlns:xlink="http://www.w3.org/1999/xlink" version="1.1" viewBox="-10 -40 522 512">
   <path fill="currentColor"
d="M132 177q-12 -2 -18 8l-36 71v0q-8 13 -21 7q-13 -7 -7 -21l46 -93v0q11 -20 30 -32t42 -12h24v0q40 1 64 32l77 102v0q7 13 -3 23q-13 7 -23 -3l-70 -94v0q-7 -9 -18 -6q-10 4 -11 15v94v0q0 6 5 11l50 50v0q9 9 9 23v89v0q-1 15 -16 16q-15 -1 -16 -16v-83v0
q0 -6 -5 -11l-77 -77v0q-14 -14 -14 -34v-43v0q-1 -12 -12 -16v0zM176 -23q14 0 23 9v0v0q9 9 9 23t-9 23t-23 9t-23 -9t-9 -23t9 -23t23 -9v0zM240 196l54 72l-54 -72l54 72q9 11 21 13q13 1 24 -6q11 -9 13 -21q1 -13 -6 -24l-77 -103v0q-30 -37 -77 -38h-24v0
q-28 0 -51 14t-35 39l-47 93v0q-5 12 -1 24t16 19q12 5 24 1t19 -16l19 -38v0l16 -32v0v35v0v8v0q0 26 19 45l77 77v0v83v0q0 14 9 23t23 9t23 -9t9 -23v-89v0q0 -20 -14 -34l-50 -50v0v-67v0v-27v0l16 22v0zM224 9q-1 -27 -24 -42q-24 -12 -48 0q-23 15 -24 42q1 27 24 42
q24 12 48 0q23 -15 24 -42v0zM128 308l-31 125l31 -125l-31 125q-3 13 4 24q6 11 19 15q14 3 25 -4q10 -6 14 -19l22 -88v0l-13 -14v0l-24 98v0q-5 14 -20 11q-14 -4 -11 -19l29 -116v0l-14 -13v0zM466 470q4 5 11 2q5 -5 2 -12l-116 -164v0q-2 2 -5 4q-4 3 -8 5l116 165v0z
" />
</svg>
