<?xml version="1.0" standalone="no"?>
<!DOCTYPE svg PUBLIC "-//W3C//DTD SVG 1.1//EN" "http://www.w3.org/Graphics/SVG/1.1/DTD/svg11.dtd" >
<svg xmlns="http://www.w3.org/2000/svg" xmlns:xlink="http://www.w3.org/1999/xlink" version="1.1" viewBox="-10 -40 596 512">
   <path fill="currentColor"
d="M64 9q-20 1 -34 14v0v0q-13 14 -14 34v320v0q1 20 14 34q14 13 34 14h448v0q20 -1 34 -14q13 -14 14 -34v-320v0q-1 -20 -14 -34q-14 -13 -34 -14h-448v0zM0 57q1 -27 19 -45v0v0q18 -18 45 -19h448v0q27 1 45 19t19 45v320v0q-1 27 -19 45t-45 19h-448v0q-27 -1 -45 -19
t-19 -45v-320v0zM192 121q5 0 7 4l56 112v0v1v0l32 63v0q3 7 -3 11q-7 3 -11 -4l-30 -59v0h-102v0l-30 60v0q-4 6 -11 3q-6 -4 -3 -10l32 -64v0v-1v0l56 -111v0q2 -5 7 -5v0zM235 233l-43 -86l43 86l-43 -86l-43 86v0h86v0zM312 129q1 -7 8 -8h64v0q41 1 68 28t28 68
q-1 41 -28 68t-68 28h-64v0q-7 -1 -8 -8v-176v0zM328 137v160v-160v160h56v0q34 -1 57 -23q22 -23 23 -57q-1 -34 -23 -57q-23 -22 -57 -23h-56v0z" />
</svg>
