<?xml version="1.0" standalone="no"?>
<!DOCTYPE svg PUBLIC "-//W3C//DTD SVG 1.1//EN" "http://www.w3.org/Graphics/SVG/1.1/DTD/svg11.dtd" >
<svg xmlns="http://www.w3.org/2000/svg" xmlns:xlink="http://www.w3.org/1999/xlink" version="1.1" viewBox="-10 -40 660 512">
   <path fill="currentColor"
d="M143 -36q-16 -6 -31 0v0v0q-14 6 -21 22l-83 203v0q-8 20 -8 42q1 49 33 81t81 33h90h4h6q56 -8 84 -54q8 -15 4 -30t-18 -24q14 -9 18 -24t-4 -30q-16 -26 -42 -40l52 -16v0q16 -5 23 -19q8 -14 4 -30q-6 -16 -20 -24t-30 -3l-45 13v0l36 -34v0q12 -12 12 -28
q1 -16 -11 -29q-12 -12 -28 -12t-28 11l-62 59v0l6 -15v0q6 -16 0 -31q-6 -14 -22 -21v0zM228 223q6 9 14 14q-8 5 -14 14q-8 13 -24 14q-12 0 -20 -8t-8 -20t8 -20t20 -8q16 1 24 14v0zM106 -8q10 -20 31 -13q20 10 13 31l-20 49v0q-2 6 3 10q5 3 10 -1l88 -84v0
q18 -14 34 0q14 18 -1 34l-59 57v0q-4 4 -1 10q3 5 9 4l76 -23v0q22 -4 30 16q4 22 -16 30l-73 22v0q-5 1 -5 7t5 8q35 11 54 42q9 20 -9 33q-20 9 -33 -9q-13 -21 -38 -22q-19 1 -31 13q-13 12 -13 31t13 31q12 13 31 13q26 -1 38 -22q13 -18 33 -9q18 13 9 33
q-24 40 -72 46v0h-4h-4h-90q-42 -1 -69 -29q-28 -27 -29 -69q0 -19 7 -36l83 -203v0zM497 470q16 6 31 0v0v0q14 -6 21 -22l83 -203v0q8 -20 8 -42q-1 -49 -33 -81t-81 -33h-90h-4q-3 0 -6 1q-56 7 -84 53q-8 15 -4 30t18 24q-14 9 -18 24t4 30q16 26 42 41l-51 15v0
q-17 5 -24 19q-8 14 -3 30t19 24t30 3l45 -13v0l-36 34v0q-12 12 -12 28q-1 16 11 29q12 12 28 12t28 -11l62 -59v0l-6 15v0q-6 16 0 31q6 14 22 21v0zM412 211q-6 -9 -14 -14q8 -5 14 -14q8 -13 24 -14q12 0 20 8t8 20t-8 20t-20 8q-16 -1 -24 -14v0zM534 442
q-10 20 -31 13q-20 -10 -13 -31l20 -49v0q2 -6 -3 -10q-5 -3 -10 1l-88 84v0q-18 14 -34 0q-14 -18 1 -34l59 -57v0q4 -4 1 -10q-3 -5 -9 -3l-76 22v0q-22 4 -30 -16q-4 -22 16 -30l73 -21v0q5 -2 5 -8t-5 -8q-35 -11 -54 -42q-9 -20 9 -33q20 -9 33 9q12 21 38 22
q19 -1 31 -13q13 -12 13 -31t-13 -31q-12 -13 -31 -13q-26 1 -38 22q-13 18 -33 9q-18 -13 -9 -33q24 -40 72 -46v0h4h4h90q42 1 69 28q28 28 29 69q0 20 -7 37l-83 203v0z" />
</svg>
