<?xml version="1.0" standalone="no"?>
<!DOCTYPE svg PUBLIC "-//W3C//DTD SVG 1.1//EN" "http://www.w3.org/Graphics/SVG/1.1/DTD/svg11.dtd" >
<svg xmlns="http://www.w3.org/2000/svg" xmlns:xlink="http://www.w3.org/1999/xlink" version="1.1" viewBox="-10 -40 468 512">
   <path fill="currentColor"
d="M32 1q-1 -7 -8 -8q-7 1 -8 8v432v0q1 7 8 8q7 -1 8 -8v-376v0q41 0 81 -13l35 -12v0q21 -7 44 -7t44 7l47 16v0q28 9 57 9t57 -9l35 -12v0v141v0v16v0v138v0l-40 14v0q-25 8 -52 8t-52 -8l-47 -16v0q-24 -8 -49 -8t-49 8l-25 8v0q-7 3 -6 11q3 6 11 5l25 -9v0
q21 -7 44 -7t44 7l47 16v0q28 9 57 9t57 -9l46 -15v0l5 -2v0v-6v0v-144v0v-16v0v-152v0v-11v0l-10 3v0l-46 16v0q-25 8 -52 8t-52 -8l-47 -16v0q-24 -8 -49 -8t-49 8l-36 12v0q-36 12 -75 12v-40v0z" />
</svg>
