<?xml version="1.0" standalone="no"?>
<!DOCTYPE svg PUBLIC "-//W3C//DTD SVG 1.1//EN" "http://www.w3.org/Graphics/SVG/1.1/DTD/svg11.dtd" >
<svg xmlns="http://www.w3.org/2000/svg" xmlns:xlink="http://www.w3.org/1999/xlink" version="1.1" viewBox="-10 -40 660 512">
   <path fill="currentColor"
d="M256 25q-49 1 -88 32l-24 20v0v21v0l35 -29v0q33 -28 77 -28h21v0l17 -16v0h-38v0zM112 297v-192v192v-192v-16v0h-8h-72q-14 0 -23 9t-9 23v208v0q0 14 9 23t23 9h48v0q14 0 23 -9t9 -23v-16v0h3v0q20 0 34 14l21 21v0l15 15v0v0v0l25 25v0q17 16 40 17q22 0 41 -15
q1 -2 3 -3v0l5 4v0q18 17 41 17q24 -1 41 -19q11 -14 13 -30q34 16 64 -8q17 -16 19 -38h51v0v16v0q0 14 9 23t23 9h48v0q14 0 23 -9t9 -23v-208v0q0 -14 -9 -23t-23 -9h-64h-16v16v0v192v0h-53v0q-3 -15 -15 -27l-99 -100v0l14 -13v0q5 -6 1 -11q-6 -5 -12 -1l-76 70v0
q-13 12 -29 12t-29 -11q-14 -14 -14 -32t13 -32l88 -83v0q30 -28 72 -28q37 0 67 24l40 35v0v-21v0l-30 -26v0q-34 -28 -77 -28q-48 1 -83 33l-88 83v0q-18 19 -18 44q0 24 20 43q18 15 40 15t39 -16l50 -46v0l100 100v0q12 13 12 29q-1 17 -14 29q-12 10 -27 10
q-16 -1 -27 -12l-1 -1v0q-5 -4 -10 -1t-4 9q4 19 -9 34q-13 13 -29 14q-17 0 -30 -12l-11 -11v0q-3 -3 -6 -2q-4 0 -6 3q-3 4 -7 8q-14 11 -30 11q-16 -1 -29 -13l-40 -40v0l-21 -20v0q-18 -19 -45 -19h-3v0zM96 105v224v-224v224q-1 15 -16 16h-48v0q-15 -1 -16 -16v-208v0
q1 -15 16 -16h64v0zM608 105q15 1 16 16v208v0q-1 15 -16 16h-48v0q-15 -1 -16 -16v-224v0h64v0z" />
</svg>
