<?xml version="1.0" standalone="no"?>
<!DOCTYPE svg PUBLIC "-//W3C//DTD SVG 1.1//EN" "http://www.w3.org/Graphics/SVG/1.1/DTD/svg11.dtd" >
<svg xmlns="http://www.w3.org/2000/svg" xmlns:xlink="http://www.w3.org/1999/xlink" version="1.1" viewBox="-10 -40 330 512">
   <path fill="currentColor"
d="M96 41q1 -27 19 -45v0v0q18 -18 45 -19q27 1 45 19t19 45v164v0q1 13 11 20q24 18 38 45q15 27 15 59q-1 54 -37 91q-37 36 -91 37q-54 -1 -91 -37q-36 -37 -37 -91q0 -32 15 -59q14 -27 38 -45q10 -7 11 -20v-164v0zM160 -39q-34 1 -57 23v0v0q-22 23 -23 57v164v0
q0 4 -4 7q-28 20 -44 50q-16 31 -16 67q2 61 42 102q41 41 102 42q61 -1 102 -42q40 -41 42 -102q0 -36 -16 -67q-16 -30 -44 -50q-4 -3 -4 -7v-164v0q-1 -34 -23 -57q-23 -22 -57 -23v0zM112 329q1 -27 24 -42q24 -12 48 0q23 15 24 42q-1 27 -24 42q-24 12 -48 0
q-23 -15 -24 -42v0zM224 329q-1 -36 -32 -55q-32 -18 -64 0q-31 19 -32 55q1 36 32 55q32 18 64 0q31 -19 32 -55v0z" />
</svg>
