<?xml version="1.0" standalone="no"?>
<!DOCTYPE svg PUBLIC "-//W3C//DTD SVG 1.1//EN" "http://www.w3.org/Graphics/SVG/1.1/DTD/svg11.dtd" >
<svg xmlns="http://www.w3.org/2000/svg" xmlns:xlink="http://www.w3.org/1999/xlink" version="1.1" viewBox="-10 -40 532 512">
   <path fill="currentColor"
d="M16 69q1 -26 18 -42v0v0q16 -17 42 -18q25 0 42 18l36 36v0q1 0 1 1q-28 34 -27 77q1 42 33 75l18 18v0l-17 17v0q-4 6 0 11q6 5 12 0l192 -192v0q4 -5 0 -11q-6 -4 -12 0l-16 17v0l-19 -18v0q-33 -32 -75 -33q-43 -1 -77 27h-1v-1l-36 -36v0q-23 -22 -54 -22
q-32 1 -54 22q-21 22 -22 54v364v0q1 7 8 8q7 -1 8 -8v-364v0zM326 88l-135 135l135 -135l-135 135l-19 -18v0q-28 -30 -28 -68t28 -68q30 -28 68 -28t68 28l18 18v1zM416 169q-1 -15 -16 -16q-15 1 -16 16q1 15 16 16q15 -1 16 -16v0zM336 249q15 -1 16 -16q-1 -15 -16 -16
q-15 1 -16 16q1 15 16 16v0zM288 297q-1 -15 -16 -16q-15 1 -16 16q1 15 16 16q15 -1 16 -16v0zM368 345q15 -1 16 -16q-1 -15 -16 -16q-15 1 -16 16q1 15 16 16v0zM304 409q15 -1 16 -16q-1 -15 -16 -16q-15 1 -16 16q1 15 16 16v0zM432 281q15 -1 16 -16q-1 -15 -16 -16
q-15 1 -16 16q1 15 16 16v0zM512 201q-1 -15 -16 -16q-15 1 -16 16q1 15 16 16q15 -1 16 -16v0z" />
</svg>
