<?xml version="1.0" standalone="no"?>
<!DOCTYPE svg PUBLIC "-//W3C//DTD SVG 1.1//EN" "http://www.w3.org/Graphics/SVG/1.1/DTD/svg11.dtd" >
<svg xmlns="http://www.w3.org/2000/svg" xmlns:xlink="http://www.w3.org/1999/xlink" version="1.1" viewBox="-10 -40 532 512">
   <path fill="currentColor"
d="M168 -31q-1 -7 -8 -8q-7 1 -8 8v56v0h-24v0q-27 1 -45 19t-19 45v24v0h-56v0q-7 1 -8 8q1 7 8 8h56v0v80v0h-56v0q-7 1 -8 8q1 7 8 8h56v0v80v0h-56v0q-7 1 -8 8q1 7 8 8h56v0v24v0q1 27 19 45t45 19h24v0v56v0q1 7 8 8q7 -1 8 -8v-56v0h80v0v56v0q1 7 8 8q7 -1 8 -8v-56
v0h80v0v56v0q1 7 8 8q7 -1 8 -8v-56v0h24v0q27 -1 45 -19t19 -45v-24v0h56v0q7 -1 8 -8q-1 -7 -8 -8h-56v0v-80v0h56v0q7 -1 8 -8q-1 -7 -8 -8h-56v0v-80v0h56v0q7 -1 8 -8q-1 -7 -8 -8h-56v0v-24v0q-1 -27 -19 -45t-45 -19h-24v0v-56v0q-1 -7 -8 -8q-7 1 -8 8v56v0h-80v0
v-56v0q-1 -7 -8 -8q-7 1 -8 8v56v0h-80v0v-56v0zM256 41h96h-96h128q20 1 34 14q13 14 14 34v32v0v96v0v96v0v32v0q-1 20 -14 34q-14 13 -34 14h-32h-224q-20 -1 -34 -14q-13 -14 -14 -34v-32v0v-96v0v-96v0v-32v0q1 -20 14 -34q14 -13 34 -14h32h96zM368 121v192v-192v192
q-1 15 -16 16h-192v0q-15 -1 -16 -16v-192v0q1 -15 16 -16h192v0q15 1 16 16v0zM160 89q-14 0 -23 9v0v0q-9 9 -9 23v192v0q0 14 9 23t23 9h192v0q14 0 23 -9t9 -23v-192v0q0 -14 -9 -23t-23 -9h-192v0z" />
</svg>
