<?xml version="1.0" standalone="no"?>
<!DOCTYPE svg PUBLIC "-//W3C//DTD SVG 1.1//EN" "http://www.w3.org/Graphics/SVG/1.1/DTD/svg11.dtd" >
<svg xmlns="http://www.w3.org/2000/svg" xmlns:xlink="http://www.w3.org/1999/xlink" version="1.1" viewBox="-10 -40 532 512">
   <path fill="currentColor"
d="M461 -32q7 -7 16 -7q16 0 21 15q5 12 9 36q5 24 5 56q-1 70 -43 123q-35 45 -93 99q-5 5 -9 10q-6 5 -11 11v0v0l-11 10v0q-20 19 -48 20q-28 0 -48 -20l-49 -50v0l-186 200v0q-6 4 -11 0q-5 -6 -1 -11l192 -206v0l267 -286v0zM211 260l50 50l-50 -50l50 50q15 14 36 15
q22 -1 37 -15l10 -11v0v0v0q11 -10 21 -20v0q58 -55 92 -98q39 -49 39 -113q0 -31 -5 -53q-4 -23 -8 -34q-1 -4 -6 -4q-3 0 -5 2l-261 281v0z" />
</svg>
