<?xml version="1.0" standalone="no"?>
<!DOCTYPE svg PUBLIC "-//W3C//DTD SVG 1.1//EN" "http://www.w3.org/Graphics/SVG/1.1/DTD/svg11.dtd" >
<svg xmlns="http://www.w3.org/2000/svg" xmlns:xlink="http://www.w3.org/1999/xlink" version="1.1" viewBox="-10 -40 532 512">
   <path fill="currentColor"
d="M496 217q-1 -65 -32 -120v0v0q-32 -55 -88 -88q-57 -32 -120 -32t-120 32q-56 33 -88 88q-31 55 -32 120q1 65 32 120q32 55 88 88q57 32 120 32t120 -32q56 -33 88 -88q31 -55 32 -120v0zM0 217q1 -70 34 -128v0v0q34 -58 94 -94q61 -34 128 -34t128 34q60 36 94 94
q33 58 34 128q-1 70 -34 128q-34 58 -94 94q-61 34 -128 34t-128 -34q-60 -36 -94 -94q-33 -58 -34 -128v0zM256 57q7 1 8 8v35v0q9 0 20 2q14 2 28 7v0v0v0v0h1q4 1 7 2q7 3 6 10q-3 7 -10 5q-2 0 -4 -1q-2 0 -4 -1v0v0h-1q-13 -4 -26 -6q-35 -5 -60 6t-28 29q-4 22 16 35
q20 11 53 19l4 2v0q29 6 55 21q27 20 22 54q-7 30 -36 41q-19 8 -43 7v37v0q-1 7 -8 8q-8 -1 -8 -8v-37v0q-4 -1 -8 -1v0v0q-15 -3 -36 -10q-11 -3 -22 -7q-7 -3 -6 -10q3 -7 11 -5q5 2 11 4q5 1 11 3q21 7 33 9q35 5 59 -5q22 -9 26 -29q4 -24 -15 -37q-23 -14 -49 -20v0v0
v0v0q-2 0 -4 -1q-2 0 -3 -1h-1q-31 -7 -55 -21q-28 -18 -23 -51q7 -28 38 -40q15 -7 33 -9v-36v0q0 -7 8 -8v0z" />
</svg>
