<?xml version="1.0" standalone="no"?>
<!DOCTYPE svg PUBLIC "-//W3C//DTD SVG 1.1//EN" "http://www.w3.org/Graphics/SVG/1.1/DTD/svg11.dtd" >
<svg xmlns="http://www.w3.org/2000/svg" xmlns:xlink="http://www.w3.org/1999/xlink" version="1.1" viewBox="-10 -40 525 512">
   <path fill="currentColor"
d="M401 412v0v0v0l96 -167v0q4 -6 6 -14q3 -11 1 -23q-2 -10 -7 -19l-96 -167v0q-17 -27 -49 -28h-192v0q-32 1 -49 28l-96 167v0q-6 10 -7 22q-2 18 7 34l96 167v0q17 27 49 28h192v0q32 -1 49 -28v0zM483 197q4 7 5 15l-2 20v0q-1 3 -3 5l-96 167v0q-12 19 -35 20h-192v0
q-23 -1 -35 -20l-96 -167v0q-6 -9 -6 -20q0 -5 2 -10q1 -5 4 -10l96 -167v0q12 -19 35 -20h192v0q23 1 35 20l96 167v0zM178 139q-4 6 0 12l67 66v0l-67 66v0q-4 6 0 12q6 4 12 0l66 -67v0l66 67v0q6 4 12 0q4 -6 0 -12l-67 -66v0l67 -66v0q4 -6 0 -12q-6 -4 -12 0l-66 67v0
l-66 -67v0q-6 -4 -12 0v0z" />
</svg>
