<?xml version="1.0" standalone="no"?>
<!DOCTYPE svg PUBLIC "-//W3C//DTD SVG 1.1//EN" "http://www.w3.org/Graphics/SVG/1.1/DTD/svg11.dtd" >
<svg xmlns="http://www.w3.org/2000/svg" xmlns:xlink="http://www.w3.org/1999/xlink" version="1.1" viewBox="-10 -40 532 512">
   <path fill="currentColor"
d="M224 -39q-5 0 -7 5t1 9l6 5v0q16 16 16 40v16v0q0 19 -13 32t-32 13h-12h-23q-31 1 -51 21t-21 51q0 18 8 33q-28 5 -46 25q-17 21 -18 50q1 34 24 56q-25 8 -40 28q-16 21 -16 48q1 34 23 57q23 22 57 23h352v0q34 -1 57 -23q22 -23 23 -57q0 -27 -16 -48
q-15 -20 -40 -28q23 -22 24 -56q-1 -29 -18 -50q-18 -20 -46 -25q8 -15 8 -33q-1 -28 -18 -48q-18 -20 -46 -24q-2 -51 -36 -85t-85 -35h-15v0zM256 20q0 -24 -14 -43q44 2 72 32q29 30 30 73v6q-1 4 2 6q2 3 6 3v0v0q24 1 40 16q15 16 16 40q0 20 -12 35q-3 4 -1 9q2 4 7 4
h2v0q25 1 42 18t18 42q-2 36 -32 53q-5 3 -4 9q2 5 7 6q26 2 43 20t18 44q-1 27 -19 45t-45 19h-352v0q-27 -1 -45 -19t-19 -45q1 -26 18 -44t43 -20q5 0 7 -6q1 -6 -4 -9q-30 -17 -32 -53q1 -25 18 -42t42 -18h2v0q5 0 7 -4q2 -5 -1 -9q-12 -15 -12 -35q1 -24 16 -40
q16 -15 40 -16h23h12q26 -1 43 -18t18 -43v-16v0zM192 265q15 -1 16 -16q-1 -15 -16 -16q-15 1 -16 16q1 15 16 16v0zM336 249q-1 -15 -16 -16q-15 1 -16 16q1 15 16 16q15 -1 16 -16v0zM172 329q-18 2 -20 20q0 6 4 12q6 10 32 28q25 18 68 20q43 -2 69 -20q25 -18 31 -28
q4 -6 4 -12q-2 -18 -20 -20h-168v0zM168 349q0 -4 4 -4h168v0q4 0 4 4v2q-6 9 -28 25q-22 15 -60 17q-38 -2 -60 -17q-22 -16 -27 -25q-1 0 -1 -2v0z" />
</svg>
