<?xml version="1.0" standalone="no"?>
<!DOCTYPE svg PUBLIC "-//W3C//DTD SVG 1.1//EN" "http://www.w3.org/Graphics/SVG/1.1/DTD/svg11.dtd" >
<svg xmlns="http://www.w3.org/2000/svg" xmlns:xlink="http://www.w3.org/1999/xlink" version="1.1" viewBox="-10 -40 596 512">
   <path fill="currentColor"
d="M512 9q20 1 34 14v0v0q13 14 14 34v133v0l-79 -79v0q-17 -14 -34 0l-143 143v0l-79 -79v0q-17 -14 -34 0l-79 79v0v-197v0q1 -20 14 -34q14 -13 34 -14h352v0zM112 281v-5v5v-5l90 -90v0q6 -5 12 0l79 79v0l-64 64v0v0v0h-69v0q-20 -1 -34 -14q-13 -14 -14 -34v0z
M512 329h-261h261h-261l59 -58v0l148 -149v0q6 -5 12 0l90 90v0v69v0q-1 20 -14 34q-14 13 -34 14v0zM160 -7q-27 1 -45 19v0v0q-18 18 -19 45v224v0q1 27 19 45t45 19h352v0q27 -1 45 -19t19 -45v-224v0q-1 -27 -19 -45t-45 -19h-352v0zM248 89q-2 22 -24 24
q-22 -2 -24 -24q2 -22 24 -24q22 2 24 24v0zM224 49q-23 1 -35 20q-10 20 0 40q12 19 35 20q23 -1 35 -20q10 -20 0 -40q-12 -19 -35 -20v0zM0 153v224v-224v224q1 27 19 45t45 19h352v0q27 -1 45 -19t19 -45h-16v0q-1 20 -14 34q-14 13 -34 14h-352v0q-20 -1 -34 -14
q-13 -14 -14 -34v-224v0q1 -20 14 -34q14 -13 34 -14v-16v0q-27 1 -45 19t-19 45v0z" />
</svg>
