<?xml version="1.0" standalone="no"?>
<!DOCTYPE svg PUBLIC "-//W3C//DTD SVG 1.1//EN" "http://www.w3.org/Graphics/SVG/1.1/DTD/svg11.dtd" >
<svg xmlns="http://www.w3.org/2000/svg" xmlns:xlink="http://www.w3.org/1999/xlink" version="1.1" viewBox="-11 0 532 512">
   <path fill="currentColor"
d="M395 -13q10 -9 23 -9v0v0q12 0 22 9l46 46v0q9 10 9 22q0 13 -9 23l-67 67v0l-91 -91v0l67 -67v0zM317 65l91 91l-91 -91l91 91l-243 243v0q-16 16 -38 23l-107 31v0l31 -107v0q7 -22 23 -38l243 -243v0zM452 -24q-15 -14 -34 -14v0v0q-20 0 -34 14l-322 321v0
q-18 19 -26 44l-36 122v0q-1 4 2 8q4 3 8 2l122 -36v0q25 -8 44 -26l321 -322v0q14 -14 14 -34q0 -19 -14 -34l-45 -45v0z" />
</svg>
