<?xml version="1.0" standalone="no"?>
<!DOCTYPE svg PUBLIC "-//W3C//DTD SVG 1.1//EN" "http://www.w3.org/Graphics/SVG/1.1/DTD/svg11.dtd" >
<svg xmlns="http://www.w3.org/2000/svg" xmlns:xlink="http://www.w3.org/1999/xlink" version="1.1" viewBox="-10 -40 532 512">
   <path fill="currentColor"
d="M152 -6q16 -17 40 -17h129v0q23 0 39 17l120 119v0q16 16 16 40v129v0q0 23 -16 39l-120 120v0q-16 16 -39 16h-129v0q-24 0 -40 -16l-119 -120v0q-17 -16 -17 -39v-129v0q0 -24 17 -40l119 -119v0zM192 -39q-30 1 -51 21l-120 120v0q-20 21 -21 51v129v0q1 29 21 50
l120 120v0q21 20 51 21h129v0q29 -1 50 -21l120 -120v0q20 -21 21 -50v-129v0q-1 -30 -21 -51l-120 -120v0q-21 -20 -50 -21h-129v0z" />
</svg>
