<?xml version="1.0" standalone="no"?>
<!DOCTYPE svg PUBLIC "-//W3C//DTD SVG 1.1//EN" "http://www.w3.org/Graphics/SVG/1.1/DTD/svg11.dtd" >
<svg xmlns="http://www.w3.org/2000/svg" xmlns:xlink="http://www.w3.org/1999/xlink" version="1.1" viewBox="-10 -40 532 512">
   <path fill="currentColor"
d="M264 -31q-1 -7 -8 -8q-7 1 -8 8v285v0l-106 -107v0q-6 -4 -12 0q-4 6 0 12l120 120v0q6 4 12 0l120 -120v0q4 -6 0 -12q-6 -4 -12 0l-106 107v0v-285v0zM48 297h74h-74h74q20 1 29 18l10 20v0q14 25 43 26h104v0q29 -1 43 -26l10 -20v0q9 -17 29 -18h74v0q14 0 23 9t9 23
v96v0q0 14 -9 23t-23 9h-416v0q-14 0 -23 -9t-9 -23v-96v0q0 -14 9 -23t23 -9v0zM347 308l-10 19l10 -19l-10 19q-9 17 -29 18h-104v0q-20 -1 -29 -18l-10 -19v0q-14 -26 -43 -27h-74v0q-20 1 -34 14q-13 14 -14 34v96v0q1 20 14 34q14 13 34 14h416v0q20 -1 34 -14
q13 -14 14 -34v-96v0q-1 -20 -14 -34q-14 -13 -34 -14h-74v0q-29 1 -43 27v0z" />
</svg>
