<?xml version="1.0" standalone="no"?>
<!DOCTYPE svg PUBLIC "-//W3C//DTD SVG 1.1//EN" "http://www.w3.org/Graphics/SVG/1.1/DTD/svg11.dtd" >
<svg xmlns="http://www.w3.org/2000/svg" xmlns:xlink="http://www.w3.org/1999/xlink" version="1.1" viewBox="-10 -40 522 512">
   <path fill="currentColor"
d="M55 142h-1h1h-1v0v0q-6 -2 -6 -8v-117v0q1 -7 8 -8h117v0q6 0 8 6v1v0q1 4 -2 7l-117 117v0q-3 3 -7 2v0v0zM32 134q1 18 18 24h1v0q13 3 23 -6l52 -53v0l119 118v0l-119 118v0l-52 -52v0q-10 -10 -23 -7l-1 1v0q-17 5 -18 23v117v0q2 22 24 24h117v0q18 -1 24 -18v-1v0
q3 -13 -6 -23l-53 -52v0l118 -119v0l118 119v0l-52 52v0q-10 10 -7 23l1 1v0q5 17 23 18h117v0q22 -2 24 -24v-117v0q-1 -18 -18 -24h-1v0q-13 -3 -23 7l-52 52v0l-119 -118v0l119 -118v0l52 52v0q10 10 23 7h1v0q17 -6 18 -24v-117v0q-2 -22 -24 -24h-117v0q-18 1 -24 18v1
v0q-3 13 7 23l52 52v0l-118 119v0l-118 -119v0l52 -52v0q10 -10 7 -23v-1v0q-6 -17 -24 -18h-117v0q-22 2 -24 24v117v0zM55 292q4 -1 7 2l117 117v0q3 3 2 7v1v0q-2 6 -8 6h-117v0q-7 -1 -8 -8v-117v0q0 -6 6 -8h1v0zM458 142h-1h1h-1q-4 1 -7 -2l-117 -117v0q-3 -3 -2 -7
v-1v0q2 -6 8 -6h117v0q7 1 8 8v117v0q0 6 -6 8v0zM457 292h1h-1h1q6 2 6 8v117v0q-1 7 -8 8h-117v0q-6 0 -8 -6v-1v0q-1 -4 2 -7l117 -117v0q3 -3 7 -2v0z" />
</svg>
