<?xml version="1.0" standalone="no"?>
<!DOCTYPE svg PUBLIC "-//W3C//DTD SVG 1.1//EN" "http://www.w3.org/Graphics/SVG/1.1/DTD/svg11.dtd" >
<svg xmlns="http://www.w3.org/2000/svg" xmlns:xlink="http://www.w3.org/1999/xlink" version="1.1" viewBox="-10 -40 468 512">
   <path fill="currentColor"
d="M432 57q-1 -20 -14 -34v0v0q-14 -13 -34 -14h-320v0q-20 1 -34 14q-13 14 -14 34v320v0q1 20 14 34q14 13 34 14h320v0q20 -1 34 -14q13 -14 14 -34v-320v0zM384 -7q27 1 45 19v0v0q18 18 19 45v320v0q-1 27 -19 45t-45 19h-320v0q-27 -1 -45 -19t-19 -45v-320v0
q1 -27 19 -45t45 -19h320v0zM310 223l-120 120l120 -120l-120 120q-6 4 -12 0q-4 -6 0 -12l115 -114v0l-115 -114v0q-4 -6 0 -12q6 -4 12 0l120 120v0q4 6 0 12v0z" />
</svg>
