<?xml version="1.0" standalone="no"?>
<!DOCTYPE svg PUBLIC "-//W3C//DTD SVG 1.1//EN" "http://www.w3.org/Graphics/SVG/1.1/DTD/svg11.dtd" >
<svg xmlns="http://www.w3.org/2000/svg" xmlns:xlink="http://www.w3.org/1999/xlink" version="1.1" viewBox="-10 -40 468 512">
   <path fill="currentColor"
d="M128 -31q-1 -7 -8 -8q-7 1 -8 8v56v0h-48v0q-27 1 -45 19t-19 45v48v0v16v0v256v0q1 27 19 45t45 19h320v0q27 -1 45 -19t19 -45v-256v0v-16v0v-48v0q-1 -27 -19 -45t-45 -19h-48v0v-56v0q-1 -7 -8 -8q-7 1 -8 8v56v0h-192v0v-56v0zM16 153h416h-416h416v256v0
q-1 20 -14 34q-14 13 -34 14h-320v0q-20 -1 -34 -14q-13 -14 -14 -34v-256v0zM112 41v40v-40v40q1 7 8 8q7 -1 8 -8v-40v0h192v0v40v0q1 7 8 8q7 -1 8 -8v-40v0h48v0q20 1 34 14q13 14 14 34v48v0h-416v0v-48v0q1 -20 14 -34q14 -13 34 -14h48v0zM301 213l7 7l-7 -7l7 7
q14 17 0 34l-18 18v0l-41 -41v0l18 -18v0q17 -14 34 0v0zM144 336l94 -94l-94 94l94 -94l41 41v0l-94 94v0l-4 2l-50 11v0l11 -50v0l2 -4v0zM256 202l-123 123l123 -123l-123 123q-5 5 -6 12l-12 50v0q-1 9 4 15q6 6 15 4l51 -11v0q6 -2 11 -7l123 -123v0q12 -12 12 -28
t-12 -29l-6 -6v0q-13 -12 -29 -12t-28 12v0z" />
</svg>
