<?xml version="1.0" standalone="no"?>
<!DOCTYPE svg PUBLIC "-//W3C//DTD SVG 1.1//EN" "http://www.w3.org/Graphics/SVG/1.1/DTD/svg11.dtd" >
<svg xmlns="http://www.w3.org/2000/svg" xmlns:xlink="http://www.w3.org/1999/xlink" version="1.1" viewBox="-10 -40 532 512">
   <path fill="currentColor"
d="M181 22q11 -20 31 -32v0v0q19 -13 44 -13t44 13q20 12 31 32q3 6 10 4q22 -7 44 -1q23 5 41 22q17 18 22 40q6 23 -1 45q-2 6 4 10q20 11 32 31q13 19 13 44t-13 44q-12 20 -32 31q-6 4 -4 10q7 22 1 44q-5 23 -22 41q-18 17 -40 22q-23 6 -45 -1q-6 -2 -10 4
q-11 20 -31 32q-19 13 -44 13t-44 -13q-20 -12 -31 -32q-3 -6 -10 -4q-22 7 -44 1q-23 -5 -41 -22q-17 -18 -22 -40q-6 -23 1 -45q2 -6 -4 -10q-20 -11 -32 -31q-13 -19 -13 -44t13 -44q12 -20 32 -31q6 -3 4 -10q-7 -22 -1 -44q5 -23 22 -41q18 -17 40 -22q23 -6 45 1
q6 2 10 -4v0zM256 -39q-28 0 -50 13v0v0q-22 13 -36 35q-25 -6 -50 1t-45 26q-19 20 -26 45t-1 50q-22 14 -35 36t-13 50t13 50t35 36q-6 25 1 50t26 45q20 19 45 26t50 1q14 22 36 35t50 13t50 -13t36 -35q25 6 50 -1t45 -26q19 -20 26 -45t1 -50q22 -14 35 -36t13 -50
t-13 -50t-35 -36q6 -25 -1 -50t-26 -45q-20 -19 -45 -26t-50 -1q-14 -22 -36 -35t-50 -13v0zM358 159q4 -6 0 -12q-6 -4 -12 0l-122 123v0l-58 -59v0q-6 -4 -12 0q-4 6 0 12l64 64v0q6 4 12 0l128 -128v0z" />
</svg>
