<?xml version="1.0" standalone="no"?>
<!DOCTYPE svg PUBLIC "-//W3C//DTD SVG 1.1//EN" "http://www.w3.org/Graphics/SVG/1.1/DTD/svg11.dtd" >
<svg xmlns="http://www.w3.org/2000/svg" xmlns:xlink="http://www.w3.org/1999/xlink" version="1.1" viewBox="-10 -40 468 512">
   <path fill="currentColor"
d="M64 425q-20 -1 -34 -14v0v0q-13 -14 -14 -34v-320v0q1 -20 14 -34q14 -13 34 -14h320v0q20 1 34 14q13 14 14 34v320v0q-1 20 -14 34q-14 13 -34 14h-320v0zM0 377q1 27 19 45v0v0q18 18 45 19h320v0q27 -1 45 -19t19 -45v-320v0q-1 -27 -19 -45t-45 -19h-320v0
q-27 1 -45 19t-19 45v320v0zM230 343l104 -104l-104 104l104 -104q4 -6 0 -12q-6 -4 -12 0l-90 91v0v-221v0q-1 -7 -8 -8q-7 1 -8 8v221v0l-90 -91v0q-6 -4 -12 0q-4 6 0 12l104 104v0q6 4 12 0v0z" />
</svg>
