<?xml version="1.0" standalone="no"?>
<!DOCTYPE svg PUBLIC "-//W3C//DTD SVG 1.1//EN" "http://www.w3.org/Graphics/SVG/1.1/DTD/svg11.dtd" >
<svg xmlns="http://www.w3.org/2000/svg" xmlns:xlink="http://www.w3.org/1999/xlink" version="1.1" viewBox="-10 -40 532 512">
   <path fill="currentColor"
d="M347 137q5 0 8 -3l77 -77v0l-77 -77v0q-3 -3 -8 -3q-10 1 -11 11v69v0v69v0q1 10 11 11v0zM320 126v-61v61v-61h-152v0q-65 2 -107 45q-43 42 -45 107v8v0q-1 7 -8 8q-7 -1 -8 -8v-8v0q2 -71 49 -119q48 -47 119 -49h152v0v-61v0q0 -11 8 -19t19 -8q12 0 20 8l76 77v0
q5 4 5 11t-5 11l-76 77v0q-8 8 -20 8q-11 0 -19 -8t-8 -19v0zM165 297q-5 0 -8 3l-77 77v0l77 77v0q3 3 8 3q10 -1 11 -11v-69v0v-69v0q-1 -10 -11 -11v0zM192 308v61v-61v61h152v0q65 -2 107 -45q43 -42 45 -107v-8v0q1 -7 8 -8q7 1 8 8v8v0q-2 71 -49 119q-48 47 -119 49
h-152v0v61v0q0 11 -8 19t-19 8q-12 0 -20 -8l-76 -77v0q-5 -4 -5 -11t5 -11l76 -77v0q8 -8 20 -8q11 0 19 8t8 19v0z" />
</svg>
