<?xml version="1.0" standalone="no"?>
<!DOCTYPE svg PUBLIC "-//W3C//DTD SVG 1.1//EN" "http://www.w3.org/Graphics/SVG/1.1/DTD/svg11.dtd" >
<svg xmlns="http://www.w3.org/2000/svg" xmlns:xlink="http://www.w3.org/1999/xlink" version="1.1" viewBox="-10 -40 468 512">
   <path fill="currentColor"
d="M80 -23q27 1 42 24q12 24 0 48q-15 23 -42 24q-27 -1 -42 -24q-12 -24 0 -48q15 -23 42 -24v0zM88 89q24 -4 40 -21v0v0q15 -18 16 -43q-1 -27 -19 -45t-45 -19q-27 1 -45 19t-19 45q1 25 16 43q16 17 40 21v16v0v241v0q-24 3 -40 20q-15 18 -16 43q1 27 19 45t45 19
q27 -1 45 -19t19 -45q-1 -25 -16 -43q-16 -17 -40 -20v-177v0q18 33 49 52q32 20 71 20h113v0q3 24 20 40q18 15 43 16q27 -1 45 -19t19 -45q-1 -27 -19 -45t-45 -19q-25 1 -43 16q-17 16 -20 40h-113v0q-51 -1 -85 -35t-35 -85v-16v0zM80 361q27 1 42 24q12 24 0 48
q-15 23 -42 24q-27 -1 -42 -24q-12 -24 0 -48q15 -23 42 -24v0zM336 233q1 -27 24 -42q24 -12 48 0q23 15 24 42q-1 27 -24 42q-24 12 -48 0q-23 -15 -24 -42v0z" />
</svg>
