<?xml version="1.0" standalone="no"?>
<!DOCTYPE svg PUBLIC "-//W3C//DTD SVG 1.1//EN" "http://www.w3.org/Graphics/SVG/1.1/DTD/svg11.dtd" >
<svg xmlns="http://www.w3.org/2000/svg" xmlns:xlink="http://www.w3.org/1999/xlink" version="1.1" viewBox="-10 -40 596 512">
   <path fill="currentColor"
d="M336 89q1 -48 33 -79v0v0q31 -32 79 -33q48 1 79 33q32 31 33 79v88v0q1 7 8 8q7 -1 8 -8v-88v0q-1 -54 -37 -91q-37 -36 -91 -37q-54 1 -91 37q-36 37 -37 91v64v0h-256v0q-27 1 -45 19t-19 45v192v0q1 27 19 45t45 19h320v0q27 -1 45 -19t19 -45v-192v0q-1 -27 -19 -45
t-45 -19h-48v0v-64v0zM320 169h16h-16h64q20 1 34 14q13 14 14 34v192v0q-1 20 -14 34q-14 13 -34 14h-320v0q-20 -1 -34 -14q-13 -14 -14 -34v-192v0q1 -20 14 -34q14 -13 34 -14h256v0z" />
</svg>
