<?xml version="1.0" standalone="no"?>
<!DOCTYPE svg PUBLIC "-//W3C//DTD SVG 1.1//EN" "http://www.w3.org/Graphics/SVG/1.1/DTD/svg11.dtd" >
<svg xmlns="http://www.w3.org/2000/svg" xmlns:xlink="http://www.w3.org/1999/xlink" version="1.1" viewBox="-10 -40 404 512">
   <path fill="currentColor"
d="M368 153q-2 -75 -52 -124v0v0q-49 -50 -124 -52q-75 2 -124 52q-50 49 -52 124q0 29 18 70q17 41 45 84q27 43 54 81q28 38 48 62q11 11 22 0q20 -24 48 -62q27 -38 55 -81q27 -43 44 -84q18 -42 18 -70v0zM384 153q-2 45 -32 104v0v0q-31 59 -70 114v0v0q-39 56 -66 89
q-10 12 -24 12t-24 -12q-27 -33 -66 -89q-39 -55 -70 -114q-30 -59 -32 -104q2 -82 56 -136t136 -56q82 2 136 56t56 136v0zM192 73q45 1 69 40q22 40 0 80q-24 39 -69 40q-45 -1 -69 -40q-22 -40 0 -80q24 -39 69 -40v0zM256 153q-1 -36 -32 -55q-32 -18 -64 0
q-31 19 -32 55q1 36 32 55q32 18 64 0q31 -19 32 -55v0z" />
</svg>
