<?xml version="1.0" standalone="no"?>
<!DOCTYPE svg PUBLIC "-//W3C//DTD SVG 1.1//EN" "http://www.w3.org/Graphics/SVG/1.1/DTD/svg11.dtd" >
<svg xmlns="http://www.w3.org/2000/svg" xmlns:xlink="http://www.w3.org/1999/xlink" version="1.1" viewBox="-10 -40 596 512">
   <path fill="currentColor"
d="M512 41q20 1 34 14v0v0q13 14 14 34v256v0q-1 20 -14 34q-14 13 -34 14h-448v0q-20 -1 -34 -14q-13 -14 -14 -34v-256v0q1 -20 14 -34q14 -13 34 -14h448v0zM64 25q-27 1 -45 19v0v0q-18 18 -19 45v256v0q1 27 19 45t45 19h448v0q27 -1 45 -19t19 -45v-256v0
q-1 -27 -19 -45t-45 -19h-448v0zM544 137q-1 -7 -8 -8h-8v0q-24 -1 -40 -16q-15 -16 -16 -40v-8v0q-1 -7 -8 -8q-7 1 -8 8v8v0q1 31 21 51t51 21h8v0q7 -1 8 -8v0zM40 145h8h-8h8q31 -1 51 -21t21 -51v-8v0q-1 -7 -8 -8q-7 1 -8 8v8v0q-1 24 -16 40q-16 15 -40 16h-8v0
q-7 1 -8 8q1 7 8 8v0zM544 297q-1 -7 -8 -8h-8v0q-31 1 -51 21t-21 51v8v0q1 7 8 8q7 -1 8 -8v-8v0q1 -24 16 -40q16 -15 40 -16h8v0q7 -1 8 -8v0zM40 289q-7 1 -8 8q1 7 8 8h8v0q24 1 40 16q15 16 16 40v8v0q1 7 8 8q7 -1 8 -8v-8v0q-1 -31 -21 -51t-51 -21h-8v0zM288 105
q30 0 56 15v0v0q26 15 41 41t15 56t-15 56t-41 41t-56 15t-56 -15t-41 -41t-15 -56t15 -56t41 -41t56 -15v0zM288 345q35 0 64 -17v0v0q29 -17 47 -47q17 -30 17 -64t-17 -64q-18 -30 -47 -47t-64 -17t-64 17t-47 47q-17 30 -17 64t17 64q18 30 47 47t64 17v0zM272 161
q-7 1 -8 8q1 7 8 8h8v0v80v0h-16v0q-7 1 -8 8q1 7 8 8h24h24q7 -1 8 -8q-1 -7 -8 -8h-16v0v-88v0q-1 -7 -8 -8h-16v0z" />
</svg>
