<?xml version="1.0" standalone="no"?>
<!DOCTYPE svg PUBLIC "-//W3C//DTD SVG 1.1//EN" "http://www.w3.org/Graphics/SVG/1.1/DTD/svg11.dtd" >
<svg xmlns="http://www.w3.org/2000/svg" xmlns:xlink="http://www.w3.org/1999/xlink" version="1.1" viewBox="-10 -40 532 512">
   <path fill="currentColor"
d="M169 54q-1 4 -4 6t-7 1q-10 -4 -22 -4q-31 1 -51 21t-21 51q0 19 8 34q2 3 1 6q-2 4 -5 5q-23 9 -37 29q-15 20 -15 46q1 34 23 57q23 22 57 23h152v0v-48v0v-64v0v-120v0q1 -7 8 -8q7 1 8 8v120v0v64v0v48v0h152v0q34 -1 57 -23q22 -23 23 -57q0 -26 -15 -46
q-14 -20 -37 -29q-3 -1 -5 -5q-1 -3 1 -6q8 -16 8 -34q-1 -31 -21 -51t-51 -21q-12 0 -22 4q-4 1 -7 -1t-4 -6q-5 -33 -29 -55q-24 -21 -58 -22q-34 1 -58 22q-24 22 -29 55v0zM248 345h-152h152h-152q-41 -1 -68 -28t-28 -68q0 -29 15 -52t40 -35q-7 -15 -7 -33
q1 -37 26 -62t62 -26q9 0 18 2q9 -36 36 -59q28 -22 66 -23q38 1 66 23q27 23 36 59q9 -2 18 -2q37 1 62 26t26 62q0 18 -7 33q25 12 40 35t15 52q-1 41 -28 68t-68 28h-152v0v120v0q-1 7 -8 8q-7 -1 -8 -8v-120v0z" />
</svg>
