<?xml version="1.0" standalone="no"?>
<!DOCTYPE svg PUBLIC "-//W3C//DTD SVG 1.1//EN" "http://www.w3.org/Graphics/SVG/1.1/DTD/svg11.dtd" >
<svg xmlns="http://www.w3.org/2000/svg" xmlns:xlink="http://www.w3.org/1999/xlink" version="1.1" viewBox="-10 -40 532 512">
   <path fill="currentColor"
d="M448 9q20 1 34 14v0v0q13 14 14 34v320v0q-1 20 -14 34q-14 13 -34 14h-384v0q-20 -1 -34 -14q-13 -14 -14 -34v-320v0q1 -20 14 -34q14 -13 34 -14h384v0zM512 57q-1 -27 -19 -45v0v0q-18 -18 -45 -19h-384v0q-27 1 -45 19t-19 45v320v0q1 27 19 45t45 19h384v0
q27 -1 45 -19t19 -45v-320v0zM416 105q15 -1 16 -16q-1 -15 -16 -16q-15 1 -16 16q1 15 16 16v0zM304 89q1 15 16 16q15 -1 16 -16q-1 -15 -16 -16q-15 1 -16 16v0zM224 105q15 -1 16 -16q-1 -15 -16 -16q-15 1 -16 16q1 15 16 16v0z" />
</svg>
