<?xml version="1.0" standalone="no"?>
<!DOCTYPE svg PUBLIC "-//W3C//DTD SVG 1.1//EN" "http://www.w3.org/Graphics/SVG/1.1/DTD/svg11.dtd" >
<svg xmlns="http://www.w3.org/2000/svg" xmlns:xlink="http://www.w3.org/1999/xlink" version="1.1" viewBox="-10 -40 532 512">
   <path fill="currentColor"
d="M128 -39q7 1 8 8v24v0h32v0q7 1 8 8q-1 7 -8 8h-32v0v48v0h48v0q14 0 23 9t9 23v2v0q0 6 -2 12l-35 82v0h13v0q7 1 8 8q-1 7 -8 8h-15v0l23 144v0h-16v0l-23 -144v0h-66v0l-23 144v0h-16v0l23 -144v0h-15v0q-7 -1 -8 -8q1 -7 8 -8h13v0l-34 -82v0q-3 -6 -3 -12v-2v0
q0 -14 9 -23t23 -9h48v0v-48v0h-32v0q-7 -1 -8 -8q1 -7 8 -8h32v0v-24v0q1 -7 8 -8v0zM162 185l37 -88l-37 88l37 -88q1 -3 1 -6v-2v0q-1 -15 -16 -16h-112v0q-15 1 -16 16v2v0q0 3 1 6l37 88v0h68v0zM37 387q7 -10 19 -10h144v0q12 0 19 10l33 45v0q4 6 4 14v3v0
q-2 22 -24 24h-208v0q-22 -2 -24 -24v-3v0q0 -8 5 -14l32 -45v0zM56 393q-4 0 -6 3l-32 46v0q-2 2 -2 4v3v0q1 7 8 8h208v0q7 -1 8 -8v-3v0q0 -2 -1 -4l-33 -46v0q-2 -3 -6 -3h-144v0zM296 161q1 -7 8 -8h40v0q7 1 8 8v16v0q1 7 8 8q7 -1 8 -8v-16v0q1 -7 8 -8h48v0q7 1 8 8
v16v0q1 7 8 8q7 -1 8 -8v-16v0q1 -7 8 -8h40v0q7 1 8 8v81v0q0 10 -7 17l-31 31v0q-2 2 -2 6v49v0h-16v0v-49v0q0 -10 7 -17l31 -31v0q2 -2 2 -6v-73v0h-24v0v8v0q-2 22 -24 24q-22 -2 -24 -24v-8v0h-32v0v8v0q-2 22 -24 24q-22 -2 -24 -24v-8v0h-24v0v73v0q0 4 2 6l31 31v0
q7 7 7 17v49v0h-16v0v-49v0q0 -4 -2 -6l-31 -31v0q-7 -7 -7 -17v-81v0zM325 387q7 -10 19 -10h112v0q12 0 19 10l33 45v0q4 6 4 14v3v0q-2 22 -24 24h-176v0q-22 -2 -24 -24v-3v0q0 -8 5 -14l32 -45v0zM344 393q-4 0 -6 3l-32 46v0q-2 2 -2 4v3v0q1 7 8 8h176v0q7 -1 8 -8
v-3v0q0 -2 -1 -4l-33 -46v0q-2 -3 -6 -3h-112v0z" />
</svg>
