<?xml version="1.0" standalone="no"?>
<!DOCTYPE svg PUBLIC "-//W3C//DTD SVG 1.1//EN" "http://www.w3.org/Graphics/SVG/1.1/DTD/svg11.dtd" >
<svg xmlns="http://www.w3.org/2000/svg" xmlns:xlink="http://www.w3.org/1999/xlink" version="1.1" viewBox="-10 -40 660 512">
   <path fill="currentColor"
d="M248 -7q7 1 8 8q-1 7 -8 8h-64v0v80v0h392v0q27 1 45 19t19 45v224v0q-1 27 -19 45t-45 19h-512v0q-27 -1 -45 -19t-19 -45v-224v0q1 -27 19 -45t45 -19h104v0v-80v0h-64v0q-7 -1 -8 -8q1 -7 8 -8h72h72zM176 105h-112h112h-112q-20 1 -34 14q-13 14 -14 34v224v0
q1 20 14 34q14 13 34 14h512v0q20 -1 34 -14q13 -14 14 -34v-224v0q-1 -20 -14 -34q-14 -13 -34 -14h-400v0zM544 49q-1 7 -8 8h-144v0q-7 -1 -8 -8q1 -7 8 -8h144v0q7 1 8 8v0zM176 361q26 0 48 -13v0v0q22 -13 35 -35q13 -23 13 -48t-13 -48q-13 -22 -35 -35t-48 -13
t-48 13t-35 35q-13 23 -13 48t13 48q13 22 35 35t48 13v0zM176 153q30 0 56 15v0v0q26 15 41 41t15 56t-15 56t-41 41t-56 15t-56 -15t-41 -41t-15 -56t15 -56t41 -41t56 -15v0zM532 333q18 -19 25 -43v0v0q6 -25 0 -50q-7 -25 -25 -43t-43 -25q-25 -6 -50 0q-24 7 -43 25
q-18 19 -25 43q-6 25 0 50q7 25 25 43t43 25q25 6 50 0q24 -7 43 -25v0zM385 186q22 -22 50 -29v0v0q29 -8 58 0t50 29t29 50t0 58q-7 28 -29 50t-50 29q-29 8 -58 0t-50 -29t-29 -50t0 -58q7 -28 29 -50v0zM176 201q7 1 8 8v56v0q-1 7 -8 8q-7 -1 -8 -8v-56v0q1 -7 8 -8v0z
M509 231l-39 40l39 -40l-39 40q-6 4 -12 0q-4 -6 0 -12l40 -39v0q6 -5 11 0t0 11v0z" />
</svg>
