<?xml version="1.0" standalone="no"?>
<!DOCTYPE svg PUBLIC "-//W3C//DTD SVG 1.1//EN" "http://www.w3.org/Graphics/SVG/1.1/DTD/svg11.dtd" >
<svg xmlns="http://www.w3.org/2000/svg" xmlns:xlink="http://www.w3.org/1999/xlink" version="1.1" viewBox="-10 -40 596 512">
   <path fill="currentColor"
d="M192 65q1 -24 16 -40v0v0q16 -15 40 -16h160v0q7 -1 8 -8q-1 -7 -8 -8h-160v0q-31 1 -51 21t-21 51v56v0h-24v0q-24 1 -40 16q-15 16 -16 40v9v0q-42 7 -68 37q-27 31 -28 74v32v0q1 48 33 79q31 32 79 33h352v0q48 -1 79 -33q32 -31 33 -79v-32v0q-1 -43 -28 -74
q-26 -30 -68 -37v-9v0q-1 -24 -16 -40q-16 -15 -40 -16h-232v0v-56v0zM464 185h-352h352h-352v-8v0q0 -17 12 -28q11 -12 28 -12h32h240q17 0 28 12q12 11 12 28v8v0zM112 425q-41 -1 -68 -28v0v0q-27 -27 -28 -68v-8v0h544v0v8v0q-1 41 -28 68t-68 28h-352v0zM16 305v-8v8
v-8q1 -41 28 -68t68 -28h352v0q41 1 68 28t28 68v8v0h-544v0z" />
</svg>
