<?xml version="1.0" standalone="no"?>
<!DOCTYPE svg PUBLIC "-//W3C//DTD SVG 1.1//EN" "http://www.w3.org/Graphics/SVG/1.1/DTD/svg11.dtd" >
<svg xmlns="http://www.w3.org/2000/svg" xmlns:xlink="http://www.w3.org/1999/xlink" version="1.1" viewBox="-10 -40 660 512">
   <path fill="currentColor"
d="M184 9q22 2 24 24v184v0v184v0q-2 22 -24 24h-32v0q-22 -2 -24 -24v-64v0v-240v0v-64v0q2 -22 24 -24h32v0zM112 369v32v-32v32q0 17 12 28q11 12 28 12h32v0q17 0 28 -12q12 -11 12 -28v-176v0h192v0v176v0q0 17 12 28q11 12 28 12h32v0q17 0 28 -12q12 -11 12 -28v-32
v0q10 8 24 8h16v0q17 0 28 -12q12 -11 12 -28v-112v0h24v0q7 -1 8 -8q-1 -7 -8 -8h-24v0v-112v0q0 -17 -12 -28q-11 -12 -28 -12h-16v0q-14 0 -24 8v-32v0q0 -17 -12 -28q-11 -12 -28 -12h-32v0q-17 0 -28 12q-12 11 -12 28v176v0h-192v0v-176v0q0 -17 -12 -28
q-11 -12 -28 -12h-32v0q-17 0 -28 12q-12 11 -12 28v32v0q-10 -8 -24 -8h-16v0q-17 0 -28 12q-12 11 -12 28v112v0h-24v0q-7 1 -8 8q1 7 8 8h24v0v112v0q0 17 12 28q11 12 28 12h16v0q14 0 24 -8v0zM528 97q2 -22 24 -24h16v0q22 2 24 24v120v0v120v0q-2 22 -24 24h-16v0
q-22 -2 -24 -24v-240v0zM512 337v64v-64v64q-2 22 -24 24h-32v0q-22 -2 -24 -24v-184v0v-184v0q2 -22 24 -24h32v0q22 2 24 24v64v0v240v0zM112 97v240v-240v240q-2 22 -24 24h-16v0q-22 -2 -24 -24v-120v0v-120v0q2 -22 24 -24h16v0q22 2 24 24v0z" />
</svg>
