<?xml version="1.0" standalone="no"?>
<!DOCTYPE svg PUBLIC "-//W3C//DTD SVG 1.1//EN" "http://www.w3.org/Graphics/SVG/1.1/DTD/svg11.dtd" >
<svg xmlns="http://www.w3.org/2000/svg" xmlns:xlink="http://www.w3.org/1999/xlink" version="1.1" viewBox="-10 -40 404 512">
   <path fill="currentColor"
d="M313 281q53 -50 55 -128q-2 -75 -52 -124q-49 -50 -124 -52q-75 2 -124 52q-50 49 -52 124q2 78 55 128h-22v0q-47 -53 -49 -128q2 -82 56 -136t136 -56q82 2 136 56t56 136q-2 75 -49 128h-22v0zM79 329q-6 1 -7 7q0 4 4 6l86 39v0q13 7 14 22v62v0q-1 7 -8 8
q-7 -1 -8 -8v-62v0q0 -5 -5 -7l-86 -40v0q-12 -6 -13 -20q2 -21 23 -23h226v0q21 2 23 23q-1 14 -13 20l-86 40v0q-5 2 -5 7v62v0q-1 7 -8 8q-7 -1 -8 -8v-62v0q1 -15 14 -22l86 -39v0q4 -2 4 -6q-1 -6 -7 -7h-226v0zM224 137q0 17 -12 28v0v0q-11 12 -28 12q-7 -1 -8 -8
q1 -7 8 -8q22 -2 24 -24q1 -7 8 -8q7 1 8 8v0zM296 145q7 1 8 8q0 17 -12 28q-11 12 -28 12q-7 -1 -8 -8q1 -7 8 -8q22 -2 24 -24q1 -7 8 -8v0zM240 217q0 17 -12 28v0v0q-11 12 -28 12q-7 -1 -8 -8q1 -7 8 -8q22 -2 24 -24q1 -7 8 -8q7 1 8 8v0z" />
</svg>
