<?xml version="1.0" standalone="no"?>
<!DOCTYPE svg PUBLIC "-//W3C//DTD SVG 1.1//EN" "http://www.w3.org/Graphics/SVG/1.1/DTD/svg11.dtd" >
<svg xmlns="http://www.w3.org/2000/svg" xmlns:xlink="http://www.w3.org/1999/xlink" version="1.1" viewBox="-10 -40 522 512">
   <path fill="currentColor"
d="M264 -23q14 0 23 9v0v0q9 9 9 23v24v0v8v0v168v0q1 7 8 8q7 -1 8 -8v-168v0q0 -14 9 -23t23 -9t23 9t9 23v56v0v8v0v56v0v48v0q1 7 8 8q7 -1 8 -8v-48v0v-56v0q0 -14 9 -23t23 -9t23 9t9 23v200v0q-2 65 -45 107q-42 43 -107 45h-8v0q-45 0 -86 -17t-73 -49l-112 -111v0
q-9 -10 -9 -23t9 -23q10 -9 23 -9t23 9l67 68v0q4 4 9 2q5 -3 5 -8v-255v0q0 -14 9 -23t23 -9t23 9t9 23v0v0v168v0q1 7 8 8q7 -1 8 -8v-176v0v0v0v-24v0q0 -14 9 -23t23 -9v0zM312 5q-2 -19 -15 -31v0v0q-14 -13 -33 -13t-33 13q-13 12 -15 31q-13 -12 -32 -12
q-20 1 -34 14q-13 14 -14 34v236v0l-54 -54v0q-15 -14 -34 -14t-34 14q-14 15 -14 34t14 34l112 112v0q34 34 78 52q43 18 92 18h8v0q71 -2 119 -49q47 -48 49 -119v-200v0q-1 -20 -14 -34q-14 -13 -34 -14q-19 0 -32 12v-28v0q-1 -20 -14 -34q-14 -13 -34 -14q-19 0 -32 12
v0zM208 309q11 -1 12 -12q-1 -11 -12 -12q-11 1 -12 12q1 11 12 12v0zM272 341q11 -1 12 -12q-1 -11 -12 -12q-11 1 -12 12q1 11 12 12v0zM412 329q-1 -11 -12 -12q-11 1 -12 12q1 11 12 12q11 -1 12 -12v0zM368 405q11 -1 12 -12q-1 -11 -12 -12q-11 1 -12 12q1 11 12 12v0
zM284 393q-1 -11 -12 -12q-11 1 -12 12q1 11 12 12q11 -1 12 -12v0zM176 373q11 -1 12 -12q-1 -11 -12 -12q-11 1 -12 12q1 11 12 12v0zM348 297q-1 -11 -12 -12q-11 1 -12 12q1 11 12 12q11 -1 12 -12v0z" />
</svg>
