<?xml version="1.0" standalone="no"?>
<!DOCTYPE svg PUBLIC "-//W3C//DTD SVG 1.1//EN" "http://www.w3.org/Graphics/SVG/1.1/DTD/svg11.dtd" >
<svg xmlns="http://www.w3.org/2000/svg" xmlns:xlink="http://www.w3.org/1999/xlink" version="1.1" viewBox="-10 -40 468 512">
   <path fill="currentColor"
d="M232 9h110h-110h110q31 1 44 29l42 93v0l2 6h-198v0v-128v0zM16 153h416h-416h416v224v0q-1 20 -14 34q-14 13 -34 14h-320v0q-20 -1 -34 -14q-13 -14 -14 -34v-224v0zM216 137h-198h198h-198l2 -6l42 -93v0q13 -28 44 -29h110v0v128v0zM401 31q-18 -36 -59 -38h-236v0
q-41 2 -59 38l-41 94v0q-6 12 -6 26v226v0q1 27 19 45t45 19h320v0q27 -1 45 -19t19 -45v-226v0q0 -14 -5 -26l-42 -94v0zM326 223q4 -6 0 -12q-6 -4 -12 0l-122 123v0l-58 -59v0q-6 -4 -12 0q-4 6 0 12l64 64v0q6 4 12 0l128 -128v0z" />
</svg>
