<?xml version="1.0" standalone="no"?>
<!DOCTYPE svg PUBLIC "-//W3C//DTD SVG 1.1//EN" "http://www.w3.org/Graphics/SVG/1.1/DTD/svg11.dtd" >
<svg xmlns="http://www.w3.org/2000/svg" xmlns:xlink="http://www.w3.org/1999/xlink" version="1.1" viewBox="-10 -40 660 512">
   <path fill="currentColor"
d="M464 -23q14 0 23 9v0v0q9 9 9 23v192v0q0 14 -9 23t-23 9h-288v0q-14 0 -23 -9t-9 -23v-192v0q0 -14 9 -23t23 -9h80v0v120v0q0 5 5 7q4 2 8 -1l51 -43v0l51 43v0q4 3 8 1q5 -2 5 -7v-120v0h80v0zM272 -23h96h-96h96v103v0l-43 -37v0q-5 -4 -10 0l-43 37v0v-103v0z
M176 -39q-20 1 -34 14v0v0q-13 14 -14 34v192v0q1 20 14 34q14 13 34 14h288v0q20 -1 34 -14q13 -14 14 -34v-192v0q-1 -20 -14 -34q-14 -13 -34 -14h-288v0zM624 377q-1 34 -23 57v0v0q-23 22 -57 23h-448v0q-34 -1 -57 -23q-22 -23 -23 -57q1 -34 23 -57q23 -22 57 -23
h448v0q34 1 57 23q22 23 23 57v0zM96 281q-41 1 -68 28v0v0q-27 27 -28 68q1 41 28 68t68 28h448v0q41 -1 68 -28t28 -68q-1 -41 -28 -68t-68 -28h-448v0zM112 345q14 0 23 9v0v0q9 9 9 23t-9 23t-23 9t-23 -9t-9 -23t9 -23t23 -9v0zM112 425q27 -1 42 -24q12 -24 0 -48
q-15 -23 -42 -24q-27 1 -42 24q-12 24 0 48q15 23 42 24v0zM288 377q0 -14 9 -23v0v0q9 -9 23 -9t23 9t9 23t-9 23t-23 9t-23 -9t-9 -23v0zM368 377q-1 -27 -24 -42q-24 -12 -48 0q-23 15 -24 42q1 27 24 42q24 12 48 0q23 -15 24 -42v0zM528 345q14 0 23 9v0v0q9 9 9 23
t-9 23t-23 9t-23 -9t-9 -23t9 -23t23 -9v0zM528 425q27 -1 42 -24q12 -24 0 -48q-15 -23 -42 -24q-27 1 -42 24q-12 24 0 48q15 23 42 24v0z" />
</svg>
