<?xml version="1.0" standalone="no"?>
<!DOCTYPE svg PUBLIC "-//W3C//DTD SVG 1.1//EN" "http://www.w3.org/Graphics/SVG/1.1/DTD/svg11.dtd" >
<svg xmlns="http://www.w3.org/2000/svg" xmlns:xlink="http://www.w3.org/1999/xlink" version="1.1" viewBox="-10 -40 458 512">
   <path fill="currentColor"
d="M408 -39q7 1 8 8q0 45 -16 81q-17 37 -43 67q-27 30 -60 56t-68 50v1v0q-62 42 -112 89h214v0q-33 -33 -74 -62l3 -2v0v0v0v0v0l8 -6q2 -1 3 -2q48 35 86 76q26 30 43 67q16 36 16 81q-1 7 -8 8q-7 -1 -8 -8q0 -21 -4 -40h-344v0q-4 19 -4 40q-1 7 -8 8q-7 -1 -8 -8
q0 -45 16 -81q17 -37 44 -67q51 -55 118 -100q-67 -45 -118 -100q-27 -30 -44 -67q-16 -36 -16 -81q1 -7 8 -8q7 1 8 8q0 21 4 40h344v0q4 -19 4 -40q1 -7 8 -8v0zM392 25h-336h336h-336q15 44 47 80v0h1h240v0h1h1q32 -36 46 -80v0zM331 121h-214h214h-214q48 46 107 86
q59 -41 107 -86v0zM56 409h336h-336h336q-15 -44 -46 -80h-1h-1h-240v0h-1v0q-32 36 -47 80v0z" />
</svg>
