<?xml version="1.0" standalone="no"?>
<!DOCTYPE svg PUBLIC "-//W3C//DTD SVG 1.1//EN" "http://www.w3.org/Graphics/SVG/1.1/DTD/svg11.dtd" >
<svg xmlns="http://www.w3.org/2000/svg" xmlns:xlink="http://www.w3.org/1999/xlink" version="1.1" viewBox="-10 -40 597 512">
   <path fill="currentColor"
d="M0 -31q1 -7 8 -8h89v0q28 1 38 28l112 357v0q2 -1 5 -1h4q36 2 55 31l255 -79v0q7 -1 10 6q1 7 -6 10l-253 78v0q3 8 3 18q-1 27 -19 45t-45 19q-27 -1 -45 -19t-19 -45q0 -20 11 -36t29 -23l-113 -356v0q-5 -16 -22 -17h-89v0q-7 -1 -8 -8v0zM304 409q-1 -27 -24 -42
q-24 -12 -48 0q-23 15 -24 42q1 27 24 42q24 12 48 0q23 -15 24 -42v0z" />
</svg>
