<?xml version="1.0" standalone="no"?>
<!DOCTYPE svg PUBLIC "-//W3C//DTD SVG 1.1//EN" "http://www.w3.org/Graphics/SVG/1.1/DTD/svg11.dtd" >
<svg xmlns="http://www.w3.org/2000/svg" xmlns:xlink="http://www.w3.org/1999/xlink" version="1.1" viewBox="-10 -40 660 512">
   <path fill="currentColor"
d="M8 -39q-7 1 -8 8q1 7 8 8h80v0q22 2 24 24v352v0q0 17 12 28q11 12 28 12h36v0q-12 13 -12 32q1 20 14 34q14 13 34 14q20 -1 34 -14q13 -14 14 -34q0 -19 -12 -32h216v0q-12 13 -12 32q1 20 14 34q14 13 34 14q20 -1 34 -14q13 -14 14 -34q0 -19 -12 -32h84v0q7 -1 8 -8
q-1 -7 -8 -8h-120h-360q-22 -2 -24 -24v-352v0q0 -17 -12 -28q-11 -12 -28 -12h-80v0zM544 425q0 14 -9 23v0v0q-9 9 -23 9t-23 -9t-9 -23t9 -23t23 -9t23 9t9 23v0zM224 457q-14 0 -23 -9v0v0q-9 -9 -9 -23t9 -23t23 -9t23 9t9 23t-9 23t-23 9v0zM224 41h128h-128h128
q15 1 16 16v224v0q-1 15 -16 16h-128v0q-15 -1 -16 -16v-224v0q1 -15 16 -16v0zM192 57v224v-224v224q0 14 9 23t23 9h128v0q14 0 23 -9t9 -23v-224v0q0 -14 -9 -23t-23 -9h-128v0q-14 0 -23 9t-9 23v0zM512 41q15 1 16 16v64v0q-1 15 -16 16h-64v0q-15 -1 -16 -16v-64v0
q1 -15 16 -16h64v0zM448 25q-14 0 -23 9v0v0q-9 9 -9 23v64v0q0 14 9 23t23 9h64v0q14 0 23 -9t9 -23v-64v0q0 -14 -9 -23t-23 -9h-64v0zM448 201h128h-128h128q15 1 16 16v64v0q-1 15 -16 16h-128v0q-15 -1 -16 -16v-64v0q1 -15 16 -16v0zM416 217v64v-64v64q0 14 9 23
t23 9h128v0q14 0 23 -9t9 -23v-64v0q0 -14 -9 -23t-23 -9h-128v0q-14 0 -23 9t-9 23v0z" />
</svg>
