<?xml version="1.0" standalone="no"?>
<!DOCTYPE svg PUBLIC "-//W3C//DTD SVG 1.1//EN" "http://www.w3.org/Graphics/SVG/1.1/DTD/svg11.dtd" >
<svg xmlns="http://www.w3.org/2000/svg" xmlns:xlink="http://www.w3.org/1999/xlink" version="1.1" viewBox="-10 -40 404 512">
   <path fill="currentColor"
d="M64 457q-20 -1 -34 -14v0v0q-13 -14 -14 -34v-384v0q1 -20 14 -34q14 -13 34 -14h140v0h4v0v120v0q0 17 12 28q11 12 28 12h120v0v4v268v0q-1 20 -14 34q-14 13 -34 14h-256v0zM359 118q1 2 2 3h-113v0q-22 -2 -24 -24v-113v0q1 1 3 2l132 132v0zM64 -39q-27 1 -45 19v0
v0q-18 18 -19 45v384v0q1 27 19 45t45 19h256v0q27 -1 45 -19t19 -45v-268v0q0 -20 -14 -34l-132 -132v0q-14 -14 -34 -14h-140v0zM168 193q1 -7 8 -8h32v0q7 1 8 8v56v0q1 7 8 8h56v0q7 1 8 8v32v0q-1 7 -8 8h-56v0q-7 1 -8 8v56v0q-1 7 -8 8h-32v0q-7 -1 -8 -8v-56v0
q-1 -7 -8 -8h-56v0q-7 -1 -8 -8v-32v0q1 -7 8 -8h56v0q7 -1 8 -8v-56v0zM176 169q-22 2 -24 24v48v0h-48v0q-22 2 -24 24v32v0q2 22 24 24h48v0v48v0q2 22 24 24h32v0q22 -2 24 -24v-48v0h48v0q22 -2 24 -24v-32v0q-2 -22 -24 -24h-48v0v-48v0q-2 -22 -24 -24h-32v0z" />
</svg>
