<?xml version="1.0" standalone="no"?>
<!DOCTYPE svg PUBLIC "-//W3C//DTD SVG 1.1//EN" "http://www.w3.org/Graphics/SVG/1.1/DTD/svg11.dtd" >
<svg xmlns="http://www.w3.org/2000/svg" xmlns:xlink="http://www.w3.org/1999/xlink" version="1.1" viewBox="-10 -40 596 512">
   <path fill="currentColor"
d="M256 -23h64h-64h64q15 1 16 16v64v0q-1 15 -16 16h-64v0q-15 -1 -16 -16v-64v0q1 -15 16 -16v0zM224 -7v64v-64v64q0 14 9 23t23 9h64v0q14 0 23 -9t9 -23v-64v0q0 -14 -9 -23t-23 -9h-64v0q-14 0 -23 9t-9 23v0zM192 25h-128h128h-128q-27 1 -45 19t-19 45v320v0
q1 27 19 45t45 19h448v0q27 -1 45 -19t19 -45v-320v0q-1 -27 -19 -45t-45 -19h-128v0v16v0h128v0q20 1 34 14q13 14 14 34v320v0q-1 20 -14 34q-14 13 -34 14h-448v0q-20 -1 -34 -14q-13 -14 -14 -34v-320v0q1 -20 14 -34q14 -13 34 -14h128v0v-16v0zM240 217q1 -27 24 -42
q24 -12 48 0q23 15 24 42q-1 27 -24 42q-24 12 -48 0q-23 -15 -24 -42v0zM352 217q-1 -36 -32 -55q-32 -18 -64 0q-31 19 -32 55q1 36 32 55q32 18 64 0q31 -19 32 -55v0zM192 385q1 -24 16 -40v0v0q16 -15 40 -16h80v0q24 1 40 16q15 16 16 40q1 7 8 8q7 -1 8 -8
q-1 -31 -21 -51t-51 -21h-80v0q-31 1 -51 21t-21 51q1 7 8 8q7 -1 8 -8v0z" />
</svg>
