<?xml version="1.0" standalone="no"?>
<!DOCTYPE svg PUBLIC "-//W3C//DTD SVG 1.1//EN" "http://www.w3.org/Graphics/SVG/1.1/DTD/svg11.dtd" >
<svg xmlns="http://www.w3.org/2000/svg" xmlns:xlink="http://www.w3.org/1999/xlink" version="1.1" viewBox="-10 -40 522 512">
   <path fill="currentColor"
d="M112 57q1 -20 14 -34v0v0q14 -13 34 -14h256v0q20 1 34 14q13 14 14 34v198v0q0 19 -14 33l-59 59v0q-14 14 -33 14h-198v0q-20 -1 -34 -14q-13 -14 -14 -34v-256v0zM96 57v256v-256v256q1 27 19 45t45 19h198v0q26 0 45 -19l58 -58v0q19 -19 19 -45v-198v0
q-1 -27 -19 -45t-45 -19h-256v0q-27 1 -45 19t-19 45v0zM272 89h32h-32h32q7 1 8 8v56v0q1 7 8 8h56v0q7 1 8 8v32v0q-1 7 -8 8h-56v0q-7 1 -8 8v56v0q-1 7 -8 8h-32v0q-7 -1 -8 -8v-56v0q-1 -7 -8 -8h-56v0q-7 -1 -8 -8v-32v0q1 -7 8 -8h56v0q7 -1 8 -8v-56v0q1 -7 8 -8v0z
M248 97v48v-48v48h-48v0q-22 2 -24 24v32v0q2 22 24 24h48v0v48v0q2 22 24 24h32v0q22 -2 24 -24v-48v0h48v0q22 -2 24 -24v-32v0q-2 -22 -24 -24h-48v0v-48v0q-2 -22 -24 -24h-32v0q-22 2 -24 24v0zM0 153v256v-256v256q1 27 19 45t45 19h256v0q27 -1 45 -19t19 -45h-16v0
q-1 20 -14 34q-14 13 -34 14h-256v0q-20 -1 -34 -14q-13 -14 -14 -34v-256v0q1 -20 14 -34q14 -13 34 -14v-16v0q-27 1 -45 19t-19 45v0z" />
</svg>
