<?xml version="1.0" standalone="no"?>
<!DOCTYPE svg PUBLIC "-//W3C//DTD SVG 1.1//EN" "http://www.w3.org/Graphics/SVG/1.1/DTD/svg11.dtd" >
<svg xmlns="http://www.w3.org/2000/svg" xmlns:xlink="http://www.w3.org/1999/xlink" version="1.1" viewBox="-10 -40 404 512">
   <path fill="currentColor"
d="M344 -23q22 2 24 24v48v0q-2 22 -24 24h-304v0q-22 -2 -24 -24v-48v0q2 -22 24 -24h304v0zM40 -39q-17 0 -28 12v0v0q-12 11 -12 28v48v0q0 17 12 28q11 12 28 12h304v0q17 0 28 -12q12 -11 12 -28v-48v0q0 -17 -12 -28q-11 -12 -28 -12h-304v0zM32 369v40v-40v40
q1 27 19 45t45 19h192v0q27 -1 45 -19t19 -45v-288v0h-16v0v288v0q-1 20 -14 34q-14 13 -34 14h-192v0q-20 -1 -34 -14q-13 -14 -14 -34v-32v0h104v0q7 -1 8 -8q-1 -7 -8 -8h-104v0v-80v0h104v0q7 -1 8 -8q-1 -7 -8 -8h-104v0v-80v0h104v0q7 -1 8 -8q-1 -7 -8 -8h-104v0v-48
v0h-16v0v56v0v96v0v96v0z" />
</svg>
