<?xml version="1.0" standalone="no"?>
<!DOCTYPE svg PUBLIC "-//W3C//DTD SVG 1.1//EN" "http://www.w3.org/Graphics/SVG/1.1/DTD/svg11.dtd" >
<svg xmlns="http://www.w3.org/2000/svg" xmlns:xlink="http://www.w3.org/1999/xlink" version="1.1" viewBox="-10 -40 596 512">
   <path fill="currentColor"
d="M112 9q-41 1 -68 28v0v0q-27 27 -28 68q1 41 28 68t68 28h141h51q14 0 23 -9t9 -23v-128v0q0 -14 -9 -23t-23 -9h-192v0zM81 213q-36 -11 -58 -40v0v0q-22 -29 -23 -68q1 -48 33 -79q31 -32 79 -33h192v0q20 1 34 14q13 14 14 34v128v0q-1 20 -14 34q-14 13 -34 14h-41v0
l-119 199v0q-10 17 -29 22q-18 5 -36 -5l-53 -32v0q-18 -10 -23 -29q-4 -19 6 -36l72 -123v0zM244 217h-132h132h-147l-75 127v0q-6 12 -3 24t15 20l53 31v0q12 7 24 3q12 -3 20 -14l113 -191v0zM424 -7h144h-144h144q7 1 8 8q-1 7 -8 8h-144v0q-7 -1 -8 -8q1 -7 8 -8v0z
M416 49q1 -7 8 -8h144v0q7 1 8 8q-1 7 -8 8h-144v0q-7 -1 -8 -8v0zM416 97q1 -7 8 -8h144v0q7 1 8 8q-1 7 -8 8h-144v0q-7 -1 -8 -8v0zM424 153h144h-144h144q7 1 8 8q-1 7 -8 8h-144v0q-7 -1 -8 -8q1 -7 8 -8v0zM416 241q1 -7 8 -8h144v0q7 1 8 8q-1 7 -8 8h-144v0
q-7 -1 -8 -8v0zM424 281h144h-144h144q7 1 8 8q-1 7 -8 8h-144v0q-7 -1 -8 -8q1 -7 8 -8v0zM416 345q1 -7 8 -8h144v0q7 1 8 8q-1 7 -8 8h-144v0q-7 -1 -8 -8v0zM424 425h144h-144h144q7 1 8 8q-1 7 -8 8h-144v0q-7 -1 -8 -8q1 -7 8 -8v0z" />
</svg>
