<?xml version="1.0" standalone="no"?>
<!DOCTYPE svg PUBLIC "-//W3C//DTD SVG 1.1//EN" "http://www.w3.org/Graphics/SVG/1.1/DTD/svg11.dtd" >
<svg xmlns="http://www.w3.org/2000/svg" xmlns:xlink="http://www.w3.org/1999/xlink" version="1.1" viewBox="-10 -40 532 512">
   <path fill="currentColor"
d="M402 -37q-4 6 0 12l43 42v0l-61 61v0l-82 -83v0q-6 -4 -12 0q-4 6 0 12l88 88v0l88 88v0q6 4 12 0q4 -6 0 -12l-83 -82v0l61 -61v0l42 43v0q6 4 12 0q4 -6 0 -12l-48 -48v0l-48 -48v0q-6 -4 -12 0v0zM138 195l-58 58l58 -58l-58 58q-16 17 -16 40v105v0l-62 61v0
q-4 6 0 12q6 4 12 0l61 -62v0h105v0q23 0 40 -16l205 -206v0l-11 -11v0l-206 205v0q-11 12 -28 12h-100v0v-100v0q0 -17 12 -28l52 -53v0l58 59v0q6 4 12 0q4 -6 0 -12l-59 -58v0l53 -53v0l58 59v0q6 4 12 0q4 -6 0 -12l-59 -58v0l78 -78v0l-11 -11v0l-84 83v0v0v0v0v0
l-64 64v0v0v0v0v0v0z" />
</svg>
