<?xml version="1.0" standalone="no"?>
<!DOCTYPE svg PUBLIC "-//W3C//DTD SVG 1.1//EN" "http://www.w3.org/Graphics/SVG/1.1/DTD/svg11.dtd" >
<svg xmlns="http://www.w3.org/2000/svg" xmlns:xlink="http://www.w3.org/1999/xlink" version="1.1" viewBox="-10 -40 660 512">
   <path fill="currentColor"
d="M576 228l-203 -203l203 203l-203 -203q-36 39 -37 96q2 61 42 102q41 40 102 42q57 -1 96 -37v0zM587 217q36 -39 37 -96q-2 -61 -42 -102q-41 -40 -102 -42q-57 1 -96 37l203 203v0zM320 121q0 -43 21 -80v0v0q22 -37 59 -59q38 -21 80 -21t80 21q37 22 59 59
q21 37 21 80t-21 80q-22 37 -59 59q-38 21 -80 21t-80 -21q-37 -22 -59 -59q-21 -37 -21 -80v0zM304 321h-288h288h-288q5 58 45 96q40 39 99 40q59 -1 99 -40q40 -38 45 -96v0zM304 305q-5 -58 -45 -96v0v0q-40 -39 -99 -40q-59 1 -99 40q-40 38 -45 96h288v0zM160 153
q43 0 80 21v0v0q37 22 59 59q21 38 21 80t-21 80q-22 37 -59 59q-37 21 -80 21t-80 -21q-37 -22 -59 -59q-21 -38 -21 -80t21 -80q22 -37 59 -59q37 -21 80 -21v0z" />
</svg>
