<?xml version="1.0" standalone="no"?>
<!DOCTYPE svg PUBLIC "-//W3C//DTD SVG 1.1//EN" "http://www.w3.org/Graphics/SVG/1.1/DTD/svg11.dtd" >
<svg xmlns="http://www.w3.org/2000/svg" xmlns:xlink="http://www.w3.org/1999/xlink" version="1.1" viewBox="-10 -40 532 512">
   <path fill="currentColor"
d="M355 1l-56 56l56 -56l-56 56l51 50v0q4 6 0 12q-6 4 -12 0l-50 -51v0l-53 53v0l51 50v0q4 6 0 12q-6 4 -12 0l-50 -51v0l-53 53v0l51 50v0q4 6 0 12q-6 4 -12 0l-50 -51v0l-36 37v0q-12 11 -12 28v100v0h100v0q17 0 28 -12l232 -231v0q24 -25 24 -58q-1 -36 -24 -59
t-58 -24q-35 0 -59 24v0zM282 51l62 -61l-62 61l62 -61q29 -28 70 -29q41 1 69 29t29 70q-1 40 -29 69l-231 232v0q-17 16 -40 16h-105v0l-93 94v0q-6 4 -12 0q-4 -6 0 -12l94 -93v0v-105v0q0 -23 16 -40l42 -42v0v0v0v0v0l64 -64v0v0v0v0v0l64 -64v0v0v0v0v0v0z" />
</svg>
