<?xml version="1.0" standalone="no"?>
<!DOCTYPE svg PUBLIC "-//W3C//DTD SVG 1.1//EN" "http://www.w3.org/Graphics/SVG/1.1/DTD/svg11.dtd" >
<svg xmlns="http://www.w3.org/2000/svg" xmlns:xlink="http://www.w3.org/1999/xlink" version="1.1" viewBox="-10 -40 524 512">
   <path fill="currentColor"
d="M16 -7q-7 1 -8 8q1 7 8 8h16v0v216v0v136v0q1 34 23 57q23 22 57 23q34 -1 57 -23q22 -23 23 -57v-136v0v-216v0h16v0q7 -1 8 -8q-1 -7 -8 -8h-24h-168zM48 217v-208v208v-208h128v0v208v0h-128v0zM48 233h128h-128h128v128v0q-1 27 -19 45t-45 19q-27 -1 -45 -19
t-19 -45v-128v0zM304 -7q-7 1 -8 8q1 7 8 8h16v0v216v0v136v0q1 34 23 57q23 22 57 23q34 -1 57 -23q22 -23 23 -57v-136v0v-216v0h16v0q7 -1 8 -8q-1 -7 -8 -8h-24h-168zM336 217v-208v208v-208h128v0v208v0h-128v0zM336 233h128h-128h128v128v0q-1 27 -19 45t-45 19
q-27 -1 -45 -19t-19 -45v-128v0z" />
</svg>
