<?xml version="1.0" standalone="no"?>
<!DOCTYPE svg PUBLIC "-//W3C//DTD SVG 1.1//EN" "http://www.w3.org/Graphics/SVG/1.1/DTD/svg11.dtd" >
<svg xmlns="http://www.w3.org/2000/svg" xmlns:xlink="http://www.w3.org/1999/xlink" version="1.1" viewBox="-10 -40 650 512">
   <path fill="currentColor"
d="M511 -27q3 -7 -3 -11q-6 -3 -11 3l-72 120v0q-3 6 3 11q6 3 11 -3l72 -120v0zM256 -23q48 1 79 33v0v0q32 31 33 79q1 7 8 8q7 -1 8 -8q-1 -54 -37 -91q-37 -36 -91 -37q-54 1 -91 37q-36 37 -37 91q1 7 8 8q7 -1 8 -8q1 -48 33 -79q31 -32 79 -33v0zM61 136q3 -6 9 -5
l236 34v0l-73 109v0q-10 13 -26 10l-168 -44v0q-15 -6 -11 -21l34 -83h-1zM72 115q-18 -2 -25 15l-34 83v0q-5 14 1 26q7 12 21 17l168 43v0q26 6 43 -16l74 -110v0l74 110v0q16 22 43 16l168 -43v0q14 -5 21 -17q6 -12 1 -26l-33 -83v0q-8 -17 -26 -15l-248 35v0l-248 -35
v0zM560 297v75v-75v75q-1 23 -24 31l-208 52v0v-198v0q-1 -7 -8 -8q-7 1 -8 8v198v0l-208 -52v0q-23 -8 -24 -31v-75v0l-16 -4v0v79v0q0 16 10 29t26 17l208 52v0q12 3 24 0l208 -52v0q16 -4 26 -17t10 -29v-79v0l-16 4v0zM570 131q6 -1 9 5l33 83v0q4 15 -11 21l-168 44v0
q-16 3 -26 -10l-73 -110v0l236 -33v0z" />
</svg>
