<?xml version="1.0" standalone="no"?>
<!DOCTYPE svg PUBLIC "-//W3C//DTD SVG 1.1//EN" "http://www.w3.org/Graphics/SVG/1.1/DTD/svg11.dtd" >
<svg xmlns="http://www.w3.org/2000/svg" xmlns:xlink="http://www.w3.org/1999/xlink" version="1.1" viewBox="-10 -40 532 512">
   <path fill="currentColor"
d="M176 377q-1 -15 -16 -16h-96v0q-20 -1 -34 -14q-13 -14 -14 -34v-288v0q1 -20 14 -34q14 -13 34 -14h384v0q20 1 34 14q13 14 14 34v288v0q-1 20 -14 34q-14 13 -34 14h-139v0q-5 0 -9 3l-124 93v0v-80v0zM64 -39q-27 1 -45 19v0v0q-18 18 -19 45v288v0q1 27 19 45t45 19
h80h16v16v0v64v0q0 10 9 14t17 -1l123 -93v0h139v0q27 -1 45 -19t19 -45v-288v0q-1 -27 -19 -45t-45 -19h-384v0zM165 260q6 7 15 5l37 -10v0q8 -2 14 -8l110 -110v0q11 -11 11 -26t-11 -27q-12 -11 -27 -11t-26 11l-110 110v0q-6 6 -8 15l-10 36v0q-2 9 5 15v0zM180 232
l5 -20l-5 20l5 -20q1 -4 4 -7l86 -86v0l31 31v0l-86 86v0q-3 3 -7 4l-19 5v0l-18 4v0l4 -17v0zM330 126l-13 13l13 -13l-13 13l-31 -31v0l13 -13v0q15 -12 31 0q12 16 0 31v0z" />
</svg>
