<?xml version="1.0" standalone="no"?>
<!DOCTYPE svg PUBLIC "-//W3C//DTD SVG 1.1//EN" "http://www.w3.org/Graphics/SVG/1.1/DTD/svg11.dtd" >
<svg xmlns="http://www.w3.org/2000/svg" xmlns:xlink="http://www.w3.org/1999/xlink" version="1.1" viewBox="-10 -40 532 512">
   <path fill="currentColor"
d="M176 377q-1 -15 -16 -16h-96v0q-20 -1 -34 -14q-13 -14 -14 -34v-288v0q1 -20 14 -34q14 -13 34 -14h384v0q20 1 34 14q13 14 14 34v288v0q-1 20 -14 34q-14 13 -34 14h-139v0q-5 0 -9 3l-124 93v0v-80v0zM64 -39q-27 1 -45 19v0v0q-18 18 -19 45v288v0q1 27 19 45t45 19
h80h16v16v0v64v0q0 10 9 14t17 -1l123 -93v0h139v0q27 -1 45 -19t19 -45v-288v0q-1 -27 -19 -45t-45 -19h-384v0zM136 113q-7 1 -8 8q1 7 8 8h240v0q7 -1 8 -8q-1 -7 -8 -8h-240v0zM136 209q-7 1 -8 8q1 7 8 8h144v0q7 -1 8 -8q-1 -7 -8 -8h-144v0z" />
</svg>
