<?xml version="1.0" standalone="no"?>
<!DOCTYPE svg PUBLIC "-//W3C//DTD SVG 1.1//EN" "http://www.w3.org/Graphics/SVG/1.1/DTD/svg11.dtd" >
<svg xmlns="http://www.w3.org/2000/svg" xmlns:xlink="http://www.w3.org/1999/xlink" version="1.1" viewBox="-10 -40 532 512">
   <path fill="currentColor"
d="M157 376q-8 -3 -15 2q-17 13 -51 29q-35 17 -75 18v0v0v0v0v0v0v0v0h1v0q0 -1 1 -2q2 -2 5 -6l-12 -10v0l12 10v0q8 -9 17 -24q18 -28 24 -70q0 -7 -4 -12q-43 -48 -44 -110q2 -80 69 -135t171 -57q104 2 171 57t69 135q-2 80 -69 135t-171 57q-53 0 -99 -17v0zM5 414v0
v0v0v0v0v0v0q-7 7 -4 17q5 10 15 10q44 -2 82 -19q35 -17 54 -31q48 18 104 18q72 -1 129 -28q58 -28 92 -75t35 -105q-1 -58 -35 -105t-92 -75q-57 -27 -129 -28q-72 1 -129 28q-58 28 -92 75t-35 105q1 69 48 121q-5 37 -22 63q-8 14 -15 21q-3 4 -5 6q0 1 -1 1v1v0v0v0v0
zM165 292q6 7 15 5l37 -10v0q8 -2 14 -8l110 -110v0q11 -11 11 -26t-11 -27q-12 -11 -27 -11t-26 11l-110 110v0q-6 6 -8 15l-10 36v0q-2 9 5 15v0zM180 264l5 -20l-5 20l5 -20q1 -4 4 -7l86 -86v0l31 31v0l-86 86v0q-3 3 -7 4l-19 5v0l-18 4v0l4 -17v0zM330 158l-13 13
l13 -13l-13 13l-31 -31v0l13 -13v0q15 -12 31 0q12 16 0 31v0z" />
</svg>
