<?xml version="1.0" standalone="no"?>
<!DOCTYPE svg PUBLIC "-//W3C//DTD SVG 1.1//EN" "http://www.w3.org/Graphics/SVG/1.1/DTD/svg11.dtd" >
<svg xmlns="http://www.w3.org/2000/svg" xmlns:xlink="http://www.w3.org/1999/xlink" version="1.1" viewBox="-10 -40 532 512">
   <path fill="currentColor"
d="M448 169q0 -52 -26 -96v0v0q-25 -44 -70 -70t-96 -26t-96 26t-70 70q-26 44 -26 96t26 96q25 44 70 70t96 26t96 -26t70 -70q26 -44 26 -96v0zM48 169q0 -57 28 -104v0v0q27 -47 76 -76q49 -28 104 -28t104 28q49 29 76 76q28 47 28 104t-28 104q-27 47 -76 76
q-49 28 -104 28t-104 -28q-49 -29 -76 -76q-28 -47 -28 -104v0zM48 329h29h-29h29l16 16h-45v0q-14 0 -23 9t-9 23v48v0q0 14 9 23t23 9h416v0q14 0 23 -9t9 -23v-48v0q0 -14 -9 -23t-23 -9h-45v0l16 -16h29v0q20 1 34 14q13 14 14 34v48v0q-1 20 -14 34q-14 13 -34 14h-416
v0q-20 -1 -34 -14q-13 -14 -14 -34v-48v0q1 -20 14 -34q14 -13 34 -14v0zM257 54q7 1 8 8v20v0q3 0 7 1q4 0 13 2t14 3q7 3 6 10q-3 7 -10 6q-5 -2 -13 -3q-8 -2 -13 -3q-24 -3 -40 4q-15 8 -17 20q-1 9 1 14q3 5 9 10q14 8 37 14v0v0v0q23 6 42 18q9 6 14 17q5 10 2 24
q-5 24 -26 33q-12 4 -26 5v19v0q-1 7 -8 8q-7 -1 -8 -8v-20v0h-7v0v0q-17 -4 -35 -11v0v0v0v0q-2 0 -3 -1q-2 0 -3 -1q-7 -3 -5 -10q3 -7 10 -5q1 0 3 1t3 1v0v0h1q17 7 31 10q25 3 40 -3q15 -7 17 -21q2 -10 -1 -15q-2 -6 -9 -11q-13 -9 -36 -15h-2v0h-1q-21 -6 -39 -16
q-9 -6 -14 -16q-5 -11 -3 -24q5 -22 27 -32q11 -5 26 -6v-19v0q0 -7 8 -8v0zM64 401h384h-384h384q7 1 8 8q-1 7 -8 8h-384v0q-7 -1 -8 -8q1 -7 8 -8v0z" />
</svg>
