<?xml version="1.0" standalone="no"?>
<!DOCTYPE svg PUBLIC "-//W3C//DTD SVG 1.1//EN" "http://www.w3.org/Graphics/SVG/1.1/DTD/svg11.dtd" >
<svg xmlns="http://www.w3.org/2000/svg" xmlns:xlink="http://www.w3.org/1999/xlink" version="1.1" viewBox="-10 -40 522 512">
   <path fill="currentColor"
d="M264 -23q14 0 23 9v0v0q9 9 9 23v24v0v8v0v168v0q1 7 8 8q7 -1 8 -8v-168v0q0 -14 9 -23t23 -9t23 9t9 23v56v0v8v0v56v0v48v0q1 7 8 8q7 -1 8 -8v-48v0v-56v0q0 -14 9 -23t23 -9t23 9t9 23v200v0q-2 65 -45 107q-42 43 -107 45h-8v0q-45 0 -86 -17t-73 -49l-112 -111v0
q-9 -10 -9 -23t9 -23q10 -9 23 -9t23 9l67 68v0q4 4 9 2q5 -3 5 -8v-255v0q0 -14 9 -23t23 -9t23 9t9 23v0v0v168v0q1 7 8 8q7 -1 8 -8v-176v0v0v0v-24v0q0 -14 9 -23t23 -9v0zM312 5q-2 -19 -15 -31v0v0q-14 -13 -33 -13t-33 13q-13 12 -15 31q-13 -12 -32 -12
q-20 1 -34 14q-13 14 -14 34v236v0l-54 -54v0q-15 -14 -34 -14t-34 14q-14 15 -14 34t14 34l112 112v0q34 34 78 52q43 18 92 18h8v0q71 -2 119 -49q47 -48 49 -119v-200v0q-1 -20 -14 -34q-14 -13 -34 -14q-19 0 -32 12v-28v0q-1 -20 -14 -34q-14 -13 -34 -14q-19 0 -32 12
v0zM205 298q0 -16 10 -26v0v0q11 -11 26 -11h1v0q15 0 26 11l14 14v0q6 4 12 0l14 -14v0q11 -11 26 -11h1v0q15 0 26 11q10 10 10 26q0 14 -10 25l-67 71v0q-3 3 -6 3t-6 -3l-67 -71v0q-10 -11 -10 -25v0zM241 245q-22 1 -37 15v0v0q-15 15 -15 38q0 20 14 36l68 71v0
q7 8 17 8t18 -8l67 -71v0q14 -16 14 -36q0 -23 -15 -38q-15 -14 -37 -15h-1v0q-21 0 -37 15l-9 9v0l-9 -9v0q-16 -15 -37 -15h-1v0z" />
</svg>
