<?xml version="1.0" standalone="no"?>
<!DOCTYPE svg PUBLIC "-//W3C//DTD SVG 1.1//EN" "http://www.w3.org/Graphics/SVG/1.1/DTD/svg11.dtd" >
<svg xmlns="http://www.w3.org/2000/svg" xmlns:xlink="http://www.w3.org/1999/xlink" version="1.1" viewBox="-10 -40 596 512">
   <path fill="currentColor"
d="M555 307q-14 -17 -33 -5l-118 86v0q-6 5 -14 5h-122v0q-12 0 -20 -8t-8 -20t8 -20t20 -8h80v0q18 -2 20 -20q-2 -18 -20 -20h-154v0q-39 0 -70 25l-43 34v0q-7 5 -15 5h-58v0q-7 -1 -8 -8q1 -7 8 -8h58v0q3 0 5 -2l43 -34v0q35 -28 80 -28h154v0q15 0 25 11q11 10 11 25
t-11 25q-10 11 -25 11h-80v0q-11 1 -12 12q1 11 12 12h122v0q3 0 5 -2l117 -86v0v0v0q14 -10 30 -8q16 3 26 16q10 14 7 30q-2 16 -15 26l-127 94v0q-36 26 -81 26h-344v0q-7 -1 -8 -8q1 -7 8 -8h345v0q39 0 71 -23l126 -94v0q17 -14 5 -33v0z" />
</svg>
