<?xml version="1.0" standalone="no"?>
<!DOCTYPE svg PUBLIC "-//W3C//DTD SVG 1.1//EN" "http://www.w3.org/Graphics/SVG/1.1/DTD/svg11.dtd" >
<svg xmlns="http://www.w3.org/2000/svg" xmlns:xlink="http://www.w3.org/1999/xlink" version="1.1" viewBox="-10 -40 597 512">
   <path fill="currentColor"
d="M296 -7q-1 -7 -8 -8q-7 1 -8 8v16v0q-13 1 -23 6q-20 9 -24 29q-2 12 2 22q5 9 13 14q16 10 36 15v0l2 1v0q21 5 33 13q5 4 8 9q2 5 1 14q-2 12 -15 17q-14 6 -36 3q-12 -3 -27 -8h-2v0v0v0v0q-1 -1 -2 -1q-2 -1 -3 -1q-7 -2 -10 5q-2 7 5 10h2q1 1 3 2v0v0v0q17 6 32 9
v0v0q2 0 5 1v0v16v0q1 7 8 8q8 -1 8 -8v-16v0q13 -1 23 -5q20 -8 24 -30q3 -13 -2 -22q-4 -10 -13 -16q-17 -11 -37 -16h-1v0v0v0q-20 -5 -32 -13q-6 -4 -8 -8q-3 -4 -1 -12q1 -11 15 -17q14 -7 35 -4q4 1 12 2q7 2 11 3q7 1 10 -6q1 -7 -6 -10q-4 -1 -12 -2l-12 -3h-5h-1
v-17v0zM522 302q19 -12 33 5q12 19 -5 33l-126 94v0q-32 23 -71 23h-345v0q-7 1 -8 8q1 7 8 8h345v0q44 0 80 -26l127 -94v0q13 -10 16 -26q2 -16 -8 -30q-10 -13 -26 -16q-16 -2 -30 8l-117 86v0q-2 2 -5 2h-122v0q-11 -1 -12 -12q1 -11 12 -12h80v0q15 0 25 -11
q11 -10 11 -25t-11 -25q-10 -11 -25 -11h-154v0q-45 0 -80 28l-43 34v0q-2 2 -5 2h-58v0q-7 1 -8 8q1 7 8 8h58v0q8 0 15 -5l43 -34v0q30 -25 70 -25h154v0q18 2 20 20q-2 18 -20 20h-80v0q-12 0 -20 8t-8 20t8 20t20 8h122v0q8 0 14 -5l118 -86v0z" />
</svg>
