<?xml version="1.0" standalone="no"?>
<!DOCTYPE svg PUBLIC "-//W3C//DTD SVG 1.1//EN" "http://www.w3.org/Graphics/SVG/1.1/DTD/svg11.dtd" >
<svg xmlns="http://www.w3.org/2000/svg" xmlns:xlink="http://www.w3.org/1999/xlink" version="1.1" viewBox="-10 -40 660 512">
   <path fill="currentColor"
d="M320 8l-18 -18l18 18l-18 -18q-23 -22 -53 -22t-53 22q-22 23 -22 54q0 30 22 54l102 103v0q9 10 22 10t23 -10l101 -103v0q22 -24 22 -54q0 -31 -22 -54q-23 -22 -53 -22t-53 22l-18 18v0zM326 25l23 -24l-23 24l23 -24q18 -18 42 -18q23 0 42 18q17 19 17 43t-17 43
l-102 103v0q-5 5 -11 5t-11 -5l-102 -103v0q-17 -19 -17 -43t17 -43q19 -17 42 -17q24 0 42 17l23 24v0q6 5 12 0v0zM96 73q-1 -20 -14 -34v0v0q-14 -13 -34 -14q-20 1 -34 14q-13 14 -14 34v232v0q1 43 31 74l91 92v0q6 4 12 0q4 -6 0 -12l-92 -91v0q-25 -26 -26 -63v-232
v0q0 -14 9 -23t23 -9t23 9t9 23v147v0q0 32 23 55l19 20v0l56 56v0v0v0l8 8v0q6 4 12 0q4 -6 0 -12l-8 -8v0v0v0l-56 -56v0v0v0q-16 -18 -2 -39q9 -9 21 -10q12 0 21 9l93 92v0q21 21 21 51v79v0q1 7 8 8q7 -1 8 -8v-79v0q-1 -36 -25 -62l-93 -93v0q-15 -13 -34 -13
q-18 1 -32 16q-9 11 -10 25q-14 -17 -14 -39v-147v0zM592 25q-20 1 -34 14v0v0q-13 14 -14 34v147v0q0 22 -13 39q-2 -14 -11 -25q-14 -15 -32 -16q-19 0 -34 14l-92 92v0q-25 26 -26 62v79v0q1 7 8 8q7 -1 8 -8v-79v0q1 -30 21 -50l93 -93v0q9 -9 21 -9q12 1 21 10
q14 20 -2 40v0v0l-55 55v0v0v0l-8 8v0q-5 6 0 12q5 4 11 0l8 -8v0l56 -56v0l19 -20v0q23 -23 23 -55v-147v0q0 -14 9 -23t23 -9t23 9t9 23v232v0q-1 36 -26 62l-92 92v0q-4 6 0 12q6 4 12 0l92 -92v0q29 -31 30 -74v-232v0q-1 -20 -14 -34q-14 -13 -34 -14v0z" />
</svg>
