<?xml version="1.0" standalone="no"?>
<!DOCTYPE svg PUBLIC "-//W3C//DTD SVG 1.1//EN" "http://www.w3.org/Graphics/SVG/1.1/DTD/svg11.dtd" >
<svg xmlns="http://www.w3.org/2000/svg" xmlns:xlink="http://www.w3.org/1999/xlink" version="1.1" viewBox="-10 -40 532 512">
   <path fill="currentColor"
d="M256 -23q65 1 120 32v0v0q55 32 88 88q32 57 32 120t-32 120q-33 56 -88 88q-55 31 -120 32q-65 -1 -120 -32q-55 -32 -88 -88q-32 -57 -32 -120t32 -120q33 -56 88 -88q55 -31 120 -32v0zM256 473q70 -1 128 -34v0v0q58 -34 94 -94q34 -61 34 -128t-34 -128
q-36 -60 -94 -94q-58 -33 -128 -34q-70 1 -128 34q-58 34 -94 94q-34 61 -34 128t34 128q36 60 94 94q58 33 128 34v0zM256 144l-18 -18l18 18l-18 -18q-23 -22 -53 -22t-53 22q-22 23 -22 54q0 30 22 54l102 103v0q9 10 22 10t23 -10l101 -103v0q22 -24 22 -54
q0 -31 -22 -54q-23 -22 -53 -22t-53 22l-18 18v0zM262 161l23 -24l-23 24l23 -24q18 -18 42 -18q23 0 42 18q17 19 17 43t-17 43l-102 103v0q-5 5 -11 5t-11 -5l-102 -103v0q-17 -19 -17 -43t17 -43q19 -17 42 -17q24 0 42 17l23 24v0q6 5 12 0v0z" />
</svg>
