<?xml version="1.0" standalone="no"?>
<!DOCTYPE svg PUBLIC "-//W3C//DTD SVG 1.1//EN" "http://www.w3.org/Graphics/SVG/1.1/DTD/svg11.dtd" >
<svg xmlns="http://www.w3.org/2000/svg" xmlns:xlink="http://www.w3.org/1999/xlink" version="1.1" viewBox="-10 -40 596 512">
   <path fill="currentColor"
d="M293 -37q-5 -4 -10 0l-280 248v0q-5 5 -1 11q5 5 11 1l51 -45v0v231v0q1 27 19 45t45 19h320v0q27 -1 45 -19t19 -45v-231v0l51 45v0q6 4 11 -1q4 -6 -1 -11l-280 -248v0zM80 409v-245v245v-245l208 -184v0l208 184v0v245v0q-1 20 -14 34q-14 13 -34 14h-320v0
q-20 -1 -34 -14q-13 -14 -14 -34v0zM192 243q0 -18 12 -30v0v0q12 -12 30 -12q17 0 30 12l18 19v0q3 2 6 2t6 -2l18 -19v0q13 -12 30 -12q18 0 30 12t12 30v1v0q0 16 -11 28l-79 86v0q-3 3 -6 3t-6 -3l-79 -86v0q-11 -12 -11 -28v-1v0zM234 185q-25 1 -41 17v0v0
q-16 16 -17 41v1v0q0 22 15 39l79 86v0q7 8 18 8q10 0 18 -8l79 -86v0q15 -17 15 -39v-1v0q-1 -25 -17 -41t-41 -17q-24 0 -41 17l-13 13v0l-13 -13v0q-17 -17 -41 -17v0z" />
</svg>
