<?xml version="1.0" standalone="no"?>
<!DOCTYPE svg PUBLIC "-//W3C//DTD SVG 1.1//EN" "http://www.w3.org/Graphics/SVG/1.1/DTD/svg11.dtd" >
<svg xmlns="http://www.w3.org/2000/svg" xmlns:xlink="http://www.w3.org/1999/xlink" version="1.1" viewBox="-10 -40 532 512">
   <path fill="currentColor"
d="M272 73q-68 2 -113 47v0v0q-45 45 -47 113q2 68 47 113t113 47v0v0h1v0q61 -1 111 -37q51 -36 81 -98t31 -140q0 -53 -15 -100q-18 25 -45 40t-60 15h-104v0zM273 409h-1h1h-1q-75 -2 -124 -51q-50 -50 -52 -125q-37 26 -58 65q-22 39 -22 87v48v0q-1 7 -8 8q-7 -1 -8 -8
v-48v0q1 -55 27 -100t70 -71q9 -68 57 -112q49 -43 118 -45h104v0q32 0 58 -16t41 -43q3 -5 8 -5q6 0 8 5q21 55 21 120q-1 81 -33 146q-31 66 -85 105t-121 40v0zM205 202q0 14 10 25l67 71v0q3 3 6 3t6 -3l67 -71v0q10 -11 10 -25q0 -16 -10 -26q-11 -11 -26 -11h-1v0
q-15 0 -26 11l-14 14v0q-6 4 -12 0l-14 -14v0q-11 -11 -26 -11h-1v0q-15 0 -26 11q-10 10 -10 26v0zM241 149h1h-1h1q21 0 37 15l9 9v0l9 -9v0q16 -15 37 -15h1v0q22 1 37 15q15 15 15 38q0 20 -14 36l-68 71v0q-7 8 -17 8t-18 -8l-67 -71v0q-14 -16 -15 -36q1 -23 16 -38
q15 -14 37 -15v0z" />
</svg>
