<?xml version="1.0" standalone="no"?>
<!DOCTYPE svg PUBLIC "-//W3C//DTD SVG 1.1//EN" "http://www.w3.org/Graphics/SVG/1.1/DTD/svg11.dtd" >
<svg xmlns="http://www.w3.org/2000/svg" xmlns:xlink="http://www.w3.org/1999/xlink" version="1.1" viewBox="-10 -40 661 512">
   <path fill="currentColor"
d="M128 -23q-14 0 -23 9v0v0q-9 9 -9 23t9 23t23 9t23 -9t9 -23t-9 -23t-23 -9v0zM176 9q-1 27 -24 42q-24 12 -48 0q-23 -15 -24 -42q1 -27 24 -42q24 -12 48 0q23 15 24 42v0zM107 105q-18 0 -31 12v0v0q-12 13 -12 31v88v0q0 19 14 34l81 81v0q2 2 2 4l15 88v0
q4 15 19 14q14 -4 13 -19l-15 -91v0q-2 -10 -9 -17l-54 -53v0q-2 -3 -2 -6v-95v0q0 -5 6 -7q5 -2 9 3l33 50v0q5 7 13 11l60 30v0q3 2 7 2v0v0v0v0q10 0 14 -9q6 -13 -7 -21l-58 -29v0q-2 -1 -3 -3l-49 -73v0q-17 -24 -46 -25v0zM257 281q-8 0 -15 -3l-61 -30v0
q-11 -6 -18 -17l-19 -28v0v65v0l51 51v0q11 11 13 26l16 91v0q1 13 -6 24q-7 10 -21 13q-13 1 -24 -6q-10 -7 -13 -21l-14 -86v0l-79 -79v0q-19 -19 -19 -45v-88v0q1 -25 17 -42q17 -16 42 -17q38 1 60 32l47 71v0l10 5v0v-76v0q0 -14 9 -23t23 -9h128v0q14 0 23 9t9 23v76
v0l10 -5v0l48 -71v0q21 -31 59 -32q25 1 42 17q16 17 17 42v88v0q0 26 -19 45l-79 79v0l-14 86v0q-3 14 -13 21q-11 7 -24 6q-14 -3 -21 -13q-7 -11 -5 -24l15 -91v0q2 -15 13 -26l51 -51v0v-65v0l-19 28v0q-7 11 -18 17l-61 30v0q-7 3 -15 3h-126v0zM356 265v-1v0v0l-1 -1
q-5 -12 -1 -24t16 -19l30 -15v0v-84v0q-1 -15 -16 -16h-128v0q-15 1 -16 16v84v0l30 15v0q12 7 16 19t-1 24l-1 1v1h72v0zM384 265q4 0 7 -2l60 -30v0q8 -4 13 -11l33 -50v0q4 -5 9 -3q6 2 6 7v95v0q0 3 -2 6l-54 53v0q-7 7 -8 17l-16 91v0q-1 15 14 19q14 1 18 -13l15 -89
v0q0 -2 2 -4l81 -81v0q14 -14 14 -34v-88v0q0 -18 -12 -31q-12 -12 -30 -12q-30 1 -47 25l-49 73v0q-1 2 -3 2l-58 30v0q-12 7 -7 21q5 9 14 9v0v0v0v0zM512 -23q-14 0 -23 9v0v0q-9 9 -9 23t9 23t23 9t23 -9t9 -23t-9 -23t-23 -9v0zM464 9q1 -27 24 -42q24 -12 48 0
q23 15 24 42q-1 27 -24 42q-24 12 -48 0q-23 -15 -24 -42v0zM2 429l48 -119l-48 119l48 -119l12 12v0l-45 113v0q-4 14 9 21q14 4 21 -9l40 -100v0l12 12v0l-37 94v0q-6 12 -17 17q-12 5 -25 1q-12 -6 -17 -17q-5 -12 -1 -25v0zM591 310l47 119l-47 -119l47 119q5 13 0 25
q-5 11 -17 17q-13 4 -25 -1t-17 -17l-38 -94v0l13 -12v0l40 100v0q7 13 21 9q13 -7 9 -21l-46 -113v0l13 -12v0z" />
</svg>
