<?xml version="1.0" standalone="no"?>
<!DOCTYPE svg PUBLIC "-//W3C//DTD SVG 1.1//EN" "http://www.w3.org/Graphics/SVG/1.1/DTD/svg11.dtd" >
<svg xmlns="http://www.w3.org/2000/svg" xmlns:xlink="http://www.w3.org/1999/xlink" version="1.1" viewBox="-10 -40 533 512">
   <path fill="currentColor"
d="M91 187q-10 4 -11 16v65v0q0 6 5 11l51 51v0q7 7 9 17l15 91v0q1 15 -13 19q-15 1 -19 -13l-14 -86v0q-1 -5 -5 -9l-79 -79v0q-14 -14 -14 -34v-88v0q0 -18 12 -31q13 -12 31 -12q29 1 46 25l43 64v0q5 7 13 7h57v0l8 32v0h-2h-71v0q-17 0 -27 -14l-17 -25v0
q-6 -9 -17 -7h-1zM224 249h6l24 106v0q-28 18 -30 54q1 27 19 45t45 19q26 -1 44 -17q18 -17 20 -42l154 -37v0q7 -3 6 -10q-3 -7 -10 -6l-151 36v0q-5 -23 -22 -37q-17 -15 -41 -15q-10 0 -19 3l-53 -229v0q-3 -7 -10 -6q-7 3 -6 10l15 62v0h-54v0l-42 -64v0
q-22 -31 -60 -32q-25 1 -42 17q-16 17 -17 42v88v0q0 26 19 45l79 79v0l14 86v0q3 14 13 21q11 7 24 6q14 -3 21 -13q7 -11 6 -24l-16 -91v0q-2 -15 -13 -26l-51 -51v0v-36v0v-29v0l16 24v0l1 1v0q14 20 39 21h72v0zM80 -23q14 0 23 9v0v0q9 9 9 23t-9 23t-23 9t-23 -9
t-9 -23t9 -23t23 -9v0zM128 9q-1 -27 -24 -42q-24 -12 -48 0q-23 15 -24 42q1 27 24 42q24 12 48 0q23 -15 24 -42v0zM0 308v133v-133v133q0 14 9 23t23 9t23 -9t9 -23v-69v0l-16 -16v0v85v0q-1 15 -16 16q-15 -1 -16 -16v-117v0l-16 -16v0zM240 409q1 -27 24 -42
q24 -12 48 0q23 15 24 42q-1 27 -24 42q-24 12 -48 0q-23 -15 -24 -42v0zM445 299l-91 23l91 -23l-91 23q-15 2 -20 -12l-23 -91v0q-2 -15 12 -20l91 -23v0q15 -2 20 12l23 91v0q2 15 -12 20v0zM449 314q13 -3 20 -14v0v0q6 -11 3 -24l-23 -92v0q-3 -13 -14 -20
q-11 -6 -24 -3l-92 23v0q-13 3 -20 14q-6 11 -3 24l23 92v0q3 13 14 20q11 6 24 3l92 -23v0z" />
</svg>
