<?xml version="1.0" standalone="no"?>
<!DOCTYPE svg PUBLIC "-//W3C//DTD SVG 1.1//EN" "http://www.w3.org/Graphics/SVG/1.1/DTD/svg11.dtd" >
<svg xmlns="http://www.w3.org/2000/svg" xmlns:xlink="http://www.w3.org/1999/xlink" version="1.1" viewBox="-11 0 661 512">
   <path fill="currentColor"
d="M352 33q1 -31 21 -51v0v0q20 -20 51 -21h208v0q7 1 8 8q-1 7 -8 8h-208v0q-24 1 -40 16q-15 16 -16 40v321v0l50 -15v0q9 -39 38 -64q30 -25 72 -26q48 1 79 33q32 31 33 79q-1 48 -33 79q-31 32 -79 33q-48 -1 -79 -33q-32 -31 -33 -79v-5l-406 117v0q-7 1 -10 -6
q-1 -7 6 -10l346 -99v0v-325v0zM624 361q0 -26 -13 -48v0v0q-13 -22 -35 -35q-23 -13 -48 -13t-48 13q-22 13 -35 35t-13 48t13 48t35 35q23 13 48 13t48 -13q22 -13 35 -35t13 -48v0zM204 104l-38 10l38 -10l-38 10l18 70v0q3 14 -11 19l-46 13v0q-15 2 -20 -12l-18 -69v0
l-39 10v0q-14 5 -11 20l41 154v0q5 14 20 11l154 -41v0q14 -5 11 -20l-41 -154v0q-5 -14 -20 -11v0zM104 131l19 69l-19 -69l19 69l46 -12v0l-19 -70v0l-46 13v0zM46 130l154 -42l-154 42l154 -42q14 -3 25 3q11 7 15 20l41 154v0q3 13 -3 24q-7 12 -20 15l-154 42v0
q-14 3 -25 -3q-11 -7 -14 -20l-42 -154v0q-3 -14 3 -25q7 -11 20 -14v0z" />
</svg>
