<?xml version="1.0" standalone="no"?>
<!DOCTYPE svg PUBLIC "-//W3C//DTD SVG 1.1//EN" "http://www.w3.org/Graphics/SVG/1.1/DTD/svg11.dtd" >
<svg xmlns="http://www.w3.org/2000/svg" xmlns:xlink="http://www.w3.org/1999/xlink" version="1.1" viewBox="-10 -40 660 512">
   <path fill="currentColor"
d="M112 89q0 -30 15 -56v0v0q15 -26 41 -41t56 -15t56 15t41 41t15 56t-15 56t-41 41t-56 15t-56 -15t-41 -41t-15 -56v0zM352 89q0 -35 -17 -64v0v0q-17 -29 -47 -47q-30 -17 -64 -17t-64 17q-30 18 -47 47t-17 64t17 64t47 47q30 17 64 17t64 -17q30 -18 47 -47t17 -64v0z
M16 443q2 -69 48 -114v0v0q45 -46 114 -48h92v0q29 0 54 9q2 -7 4 -15q-27 -10 -58 -10h-92v0q-75 2 -126 52q-50 51 -52 126q0 13 9 21q8 9 21 9h365v0q-11 -7 -20 -16h-345v0q-13 -1 -14 -14v0zM496 201q35 0 64 17v0v0q29 17 47 47q17 30 17 64t-17 64q-18 30 -47 47
t-64 17t-64 -17t-47 -47q-17 -30 -17 -64t17 -64q18 -30 47 -47t64 -17v0zM496 473q39 0 72 -19v0v0q33 -19 53 -53q19 -34 19 -72t-19 -72q-20 -34 -53 -53t-72 -19t-72 19t-53 53q-19 34 -19 72t19 72q20 34 53 53t72 19v0zM496 249q-7 1 -8 8v72v0q1 7 8 8h56v0
q7 -1 8 -8q-1 -7 -8 -8h-48v0v-64v0q-1 -7 -8 -8v0z" />
</svg>
