<?xml version="1.0" standalone="no"?>
<!DOCTYPE svg PUBLIC "-//W3C//DTD SVG 1.1//EN" "http://www.w3.org/Graphics/SVG/1.1/DTD/svg11.dtd" >
<svg xmlns="http://www.w3.org/2000/svg" xmlns:xlink="http://www.w3.org/1999/xlink" version="1.1" viewBox="-10 -40 650 512">
   <path fill="currentColor"
d="M336 89q0 -30 -15 -56v0v0q-15 -26 -41 -41t-56 -15t-56 15t-41 41t-15 56t15 56t41 41t56 15t56 -15t41 -41t15 -56v0zM96 89q0 -35 17 -64v0v0q17 -29 47 -47q30 -17 64 -17t64 17q30 18 47 47t17 64t-17 64t-47 47q-30 17 -64 17t-64 -17q-30 -18 -47 -47t-17 -64v0z
M16 443q1 13 14 14h375v0q2 9 7 16h-382v0q-13 0 -21 -9q-9 -8 -9 -21q2 -75 52 -126q51 -50 126 -52h92v0q17 0 34 3q-1 9 1 17q-17 -4 -35 -4h-92v0q-69 2 -114 48q-46 45 -48 114v0zM452 180v17v-17v17q-1 22 -20 32q-18 11 -37 1l-14 -8v0q-9 11 -17 24q-7 13 -12 26
l15 9v0q17 11 17 32q0 20 -17 32l-15 8v0q5 13 12 26q8 13 17 24l14 -8v0q19 -10 37 1q19 10 20 32v18v0q14 3 28 3q15 0 28 -3v-19v0q2 -21 20 -31q17 -11 37 -1l14 8v0q9 -10 17 -23q7 -13 12 -27l-15 -8v0q-17 -12 -17 -32t17 -32l15 -8v0q-5 -14 -12 -27q-8 -13 -17 -23
l-14 8v0q-20 9 -37 -1q-18 -11 -20 -32v-18v0q-13 -3 -28 -3q-14 0 -28 3v0zM447 164q16 -4 33 -4t33 4q10 3 11 15v19v0q0 11 11 18q12 6 22 0l14 -8v0q11 -5 19 2q11 13 20 28q8 15 13 31q3 11 -7 17l-15 9v0q-9 5 -9 18q0 12 9 18l15 8v0q10 6 7 17q-5 16 -13 31
q-9 15 -20 28q-8 7 -19 2l-14 -8v0q-10 -6 -22 0q-11 7 -11 18v19v0q-1 12 -11 15q-16 3 -33 4q-17 -1 -33 -4q-10 -3 -11 -15v-18v0q0 -12 -11 -18q-12 -7 -22 -1l-14 8v0q-10 5 -19 -2q-11 -13 -20 -28q-8 -15 -13 -31q-3 -11 7 -17l15 -8v0q9 -6 9 -19q0 -12 -9 -18
l-15 -8v0q-10 -6 -7 -17q5 -16 13 -31q9 -15 20 -28q9 -7 19 -2l14 8v0q10 6 22 0q11 -7 11 -19v-18v0q1 -12 11 -15v0zM480 345q14 -1 23 -10v0v0q9 -9 9 -22q0 -14 -9 -23t-23 -9t-23 9t-9 23q0 13 9 22t23 10v0zM480 265q27 1 42 24q12 24 0 48q-15 23 -42 24
q-27 -1 -42 -24q-12 -24 0 -48q15 -23 42 -24v0z" />
</svg>
