<?xml version="1.0" standalone="no"?>
<!DOCTYPE svg PUBLIC "-//W3C//DTD SVG 1.1//EN" "http://www.w3.org/Graphics/SVG/1.1/DTD/svg11.dtd" >
<svg xmlns="http://www.w3.org/2000/svg" xmlns:xlink="http://www.w3.org/1999/xlink" version="1.1" viewBox="-10 -40 660 512">
   <path fill="currentColor"
d="M112 89q0 -30 15 -56v0v0q15 -26 41 -41t56 -15t56 15t41 41t15 56t-15 56t-41 41t-56 15t-56 -15t-41 -41t-15 -56v0zM16 443q2 -69 48 -114v0v0q45 -46 114 -48h92v0q69 2 114 48q46 45 48 114q-1 13 -14 14h-388v0q-13 -1 -14 -14v0zM224 217q35 0 64 -17v0v0
q29 -17 47 -47q17 -30 17 -64t-17 -64q-18 -30 -47 -47t-64 -17t-64 17t-47 47q-17 30 -17 64t17 64q18 30 47 47t64 17v0zM178 265q-75 2 -126 52v0v0q-50 51 -52 126q0 13 9 21q8 9 21 9h388v0q13 0 21 -9q9 -8 9 -21q-2 -75 -52 -126q-51 -50 -126 -52h-92v0zM609 473
q13 0 22 -9v0v0q9 -9 9 -22q-2 -68 -47 -114q-46 -45 -114 -47h-62v0q-6 0 -13 1q9 7 17 15h58v0q61 2 102 43t43 102q-1 14 -15 15h-130v0q-2 9 -7 16h137v0zM432 217q48 -1 79 -33v0v0q32 -31 33 -79q-1 -48 -33 -79q-31 -32 -79 -33q-38 1 -66 22q3 7 7 15q25 -20 59 -21
q41 1 68 28t28 68q-1 41 -28 68t-68 28q-43 -1 -70 -31q-4 7 -9 14q31 32 79 33v0z" />
</svg>
