<?xml version="1.0" standalone="no"?>
<!DOCTYPE svg PUBLIC "-//W3C//DTD SVG 1.1//EN" "http://www.w3.org/Graphics/SVG/1.1/DTD/svg11.dtd" >
<svg xmlns="http://www.w3.org/2000/svg" xmlns:xlink="http://www.w3.org/1999/xlink" version="1.1" viewBox="-10 -40 660 512">
   <path fill="currentColor"
d="M112 89q0 -30 15 -56v0v0q15 -26 41 -41t56 -15t56 15t41 41t15 56t-15 56t-41 41t-56 15t-56 -15t-41 -41t-15 -56v0zM352 89q0 -35 -17 -64v0v0q-17 -29 -47 -47q-30 -17 -64 -17t-64 17q-30 18 -47 47t-17 64t17 64t47 47q30 17 64 17t64 -17q30 -18 47 -47t17 -64v0z
M16 443q2 -69 48 -114v0v0q45 -46 114 -48h92v0q68 2 114 47v-15v0v-6q-48 -41 -114 -42h-92v0q-75 2 -126 52q-50 51 -52 126q0 13 9 21q8 9 21 9h363v0q-5 -7 -7 -16h-356v0q-13 -1 -14 -14v0zM528 169q20 1 34 14v0v0q13 14 14 34v64v0h-96v0v-64v0q1 -20 14 -34
q14 -13 34 -14v0zM464 217v64v-64v64h-16v0q-14 0 -23 9t-9 23v128v0q0 14 9 23t23 9h160v0q14 0 23 -9t9 -23v-128v0q0 -14 -9 -23t-23 -9h-16v0v-64v0q-1 -27 -19 -45t-45 -19q-27 1 -45 19t-19 45v0zM448 297h16h-16h160q15 1 16 16v128v0q-1 15 -16 16h-160v0
q-15 -1 -16 -16v-128v0q1 -15 16 -16v0z" />
</svg>
