<?xml version="1.0" standalone="no"?>
<!DOCTYPE svg PUBLIC "-//W3C//DTD SVG 1.1//EN" "http://www.w3.org/Graphics/SVG/1.1/DTD/svg11.dtd" >
<svg xmlns="http://www.w3.org/2000/svg" xmlns:xlink="http://www.w3.org/1999/xlink" version="1.1" viewBox="-10 -40 661 512">
   <path fill="currentColor"
d="M112 89q0 -30 15 -56v0v0q15 -26 41 -41t56 -15t56 15t41 41t15 56t-15 56t-41 41t-56 15t-56 -15t-41 -41t-15 -56v0zM352 89q0 -35 -17 -64v0v0q-17 -29 -47 -47q-30 -17 -64 -17t-64 17q-30 18 -47 47t-17 64t17 64t47 47q30 17 64 17t64 -17q30 -18 47 -47t17 -64v0z
M16 443q2 -69 48 -114v0v0q45 -46 114 -48h92v0q27 0 52 9l-2 -18q-24 -7 -50 -7h-92v0q-75 2 -126 52q-50 51 -52 126q0 13 9 21q8 9 21 9h388v0h6q-11 -8 -20 -16h-374v0q-13 -1 -14 -14v0zM373 250l115 -46l-115 46l115 -46v250v0q-71 -35 -96 -92q-26 -58 -24 -105
q0 -5 5 -7v0zM624 257q2 47 -24 105v0v0q-25 57 -96 92v-250v0l115 46v0q5 2 5 7v0zM505 187q-9 -4 -18 0l-120 48v0q-14 6 -15 22q-1 33 11 74q11 41 40 79q30 38 84 61q9 4 18 0q54 -23 84 -61q29 -38 40 -79q12 -41 11 -74q-1 -16 -15 -22l-120 -48v0z" />
</svg>
