<?xml version="1.0" standalone="no"?>
<!DOCTYPE svg PUBLIC "-//W3C//DTD SVG 1.1//EN" "http://www.w3.org/Graphics/SVG/1.1/DTD/svg11.dtd" >
<svg xmlns="http://www.w3.org/2000/svg" xmlns:xlink="http://www.w3.org/1999/xlink" version="1.1" viewBox="-10 -40 660 512">
   <path fill="currentColor"
d="M208 41q-1 -36 -32 -55q-32 -18 -64 0q-31 19 -32 55q1 36 32 55q32 18 64 0q31 -19 32 -55v0zM64 41q1 -45 40 -69q40 -22 80 0q39 24 40 69q-1 45 -40 69q-40 22 -80 0q-39 -24 -40 -69v0zM320 265q45 -1 69 -40q22 -40 0 -80q-24 -39 -69 -40q-45 1 -69 40
q-22 40 0 80q24 39 69 40v0zM320 89q26 0 48 13v0v0q22 13 35 35q13 23 13 48t-13 48q-13 22 -35 35t-48 13t-48 -13t-35 -35q-13 -23 -13 -48t13 -48q13 -22 35 -35t48 -13v0zM261 329q-50 1 -83 34v0v0q-33 33 -34 83q1 10 11 11h246v0q20 13 42 10q1 3 3 6h-291v0
q-25 -2 -27 -27q1 -56 39 -94t94 -39h99v0q1 8 4 16h-103v0zM536 153q42 1 70 27v0v0q29 27 34 67l-1 -1v0q-9 -10 -19 -16q-9 -27 -32 -44q-22 -17 -52 -17h-89v0q-1 -8 -3 -16h92v0zM512 105q36 -1 55 -32q18 -32 0 -64q-19 -31 -55 -32q-36 1 -55 32q-18 32 0 64
q19 31 55 32v0zM512 -39q45 1 69 40q22 40 0 80q-24 39 -69 40q-45 -1 -69 -40q-22 -40 0 -80q24 -39 69 -40v0zM193 169h-89h89h-89q-37 1 -62 26t-26 62q-1 7 -8 8q-7 -1 -8 -8q1 -44 30 -74q30 -29 74 -30h92v0q-2 8 -3 16v0zM496 234v4v-4v4q-2 26 -24 38q-21 13 -44 2
l-4 -2v0q-4 5 -8 11l-2 4v0q-4 6 -6 12l4 3v0q21 14 20 39q1 25 -20 40l-4 2v0q2 6 6 12l2 4v0q4 6 8 11l4 -2v0q23 -11 44 2q22 12 24 38v4v0q8 1 16 1t16 -1v-4v0q2 -26 24 -38q21 -13 44 -2l4 2v0q4 -5 8 -11l2 -4v0q4 -6 6 -12l-3 -2v0q-22 -15 -21 -40q-1 -25 20 -39
l4 -3v0l-6 -12l-2 -4v0q-4 -6 -8 -11l-4 2v0q-23 11 -44 -2q-22 -12 -24 -38v-4v0q-8 -1 -16 -1t-16 1v0zM492 219q10 -2 20 -2t20 2q11 2 12 14v5v0q1 15 16 24t28 2l5 -3v0q11 -5 19 3q5 7 10 15v0v0v0v0l2 4v0v0v0v0v0l8 16q3 11 -7 18l-4 2v0q-13 8 -13 26t13 26l4 2v0
q10 7 7 18l-8 16v0v0v0v0l-2 4v0v0v0v0v0l-10 14q-8 9 -19 3l-5 -2v0q-13 -7 -28 1q-15 9 -16 24v5v0q-1 12 -12 15q-10 2 -20 2t-20 -2q-11 -3 -12 -15v-5v0q-1 -15 -16 -24q-15 -8 -28 -1l-5 2v0q-11 6 -19 -3l-10 -14v0v0v0v0l-2 -4v0v0v0v0v0q-5 -8 -8 -16q-3 -11 7 -18
l4 -2v0q13 -8 13 -26t-13 -26l-4 -2v0q-10 -7 -7 -18q3 -8 8 -16v0v0v0v0l2 -4v0v0v0v0v0l10 -14q8 -9 19 -3l5 2v0q13 7 28 -1q15 -10 16 -24v-5v0q1 -12 12 -15v0zM512 369q22 -2 24 -24q-2 -22 -24 -24q-22 2 -24 24q2 22 24 24v0zM512 305q23 1 35 20q10 20 0 40
q-12 19 -35 20q-23 -1 -35 -20q-10 -20 0 -40q12 -19 35 -20v0z" />
</svg>
