<?xml version="1.0" standalone="no"?>
<!DOCTYPE svg PUBLIC "-//W3C//DTD SVG 1.1//EN" "http://www.w3.org/Graphics/SVG/1.1/DTD/svg11.dtd" >
<svg xmlns="http://www.w3.org/2000/svg" xmlns:xlink="http://www.w3.org/1999/xlink" version="1.1" viewBox="-10 -40 596 512">
   <path fill="currentColor"
d="M156 -7q68 1 132 23q64 -22 132 -23q42 1 77 8q35 8 52 14q26 10 27 37v312v0q-1 20 -16 31q-14 12 -33 9q-28 -6 -99 -7q-44 1 -73 13q-28 12 -38 21q-12 9 -29 10q-16 -1 -27 -8q-12 -9 -42 -22t-71 -14q-69 1 -100 8q-19 2 -33 -9t-15 -31v-313v0q1 -27 27 -37
q17 -6 52 -14q35 -7 77 -8v0zM280 30q-61 -20 -124 -21q-41 1 -74 8t-50 13q-15 6 -16 22v313v0q0 11 9 19q9 7 20 5q33 -7 103 -8q45 1 77 15t44 23q5 4 11 5v-394v0zM296 424q6 -2 11 -6q12 -9 43 -23q30 -13 78 -14q73 1 102 7q12 2 21 -5t9 -20v-311v0q-1 -16 -16 -22
q-17 -6 -50 -13t-74 -8q-63 1 -124 21v394v0z" />
</svg>
