<?xml version="1.0" standalone="no"?>
<!DOCTYPE svg PUBLIC "-//W3C//DTD SVG 1.1//EN" "http://www.w3.org/Graphics/SVG/1.1/DTD/svg11.dtd" >
<svg xmlns="http://www.w3.org/2000/svg" xmlns:xlink="http://www.w3.org/1999/xlink" version="1.1" viewBox="-10 -40 660 512">
   <path fill="currentColor"
d="M264 7q-18 -17 -40 -17v0v0q-22 0 -40 17l-138 138v0q-17 18 -17 40t17 40l138 138v0q18 17 40 17t40 -17l138 -138v0q17 -18 17 -40t-17 -40l-138 -138v0zM173 -5q22 -21 51 -21v0v0q29 0 51 21l139 139v0q21 22 21 51t-21 51l-139 139v0q-22 21 -51 21t-51 -21
l-139 -139v0q-21 -22 -21 -51t21 -51l139 -139v0zM320 409v-34v34v-34l16 -16v0v50v0q1 20 14 34q14 13 34 14h192v0q20 -1 34 -14q13 -14 14 -34v-192v0q-1 -20 -14 -34q-14 -13 -34 -14h-110v0l-4 -16h114v0q27 1 45 19t19 45v192v0q-1 27 -19 45t-45 19h-192v0
q-27 -1 -45 -19t-19 -45v0zM464 313q1 15 16 16q15 -1 16 -16q-1 -15 -16 -16q-15 1 -16 16v0zM480 345q-14 0 -23 -9v0v0q-9 -9 -9 -23t9 -23t23 -9t23 9t9 23t-9 23t-23 9v0zM208 81q1 15 16 16q15 -1 16 -16q-1 -15 -16 -16q-15 1 -16 16v0zM224 49q14 0 23 9v0v0
q9 9 9 23t-9 23t-23 9t-23 -9t-9 -23t9 -23t23 -9v0zM104 185q1 15 16 16q15 -1 16 -16q-1 -15 -16 -16q-15 1 -16 16v0zM120 217q-14 0 -23 -9v0v0q-9 -9 -9 -23t9 -23t23 -9t23 9t9 23t-9 23t-23 9v0zM208 185q1 15 16 16q15 -1 16 -16q-1 -15 -16 -16q-15 1 -16 16v0z
M224 217q-14 0 -23 -9v0v0q-9 -9 -9 -23t9 -23t23 -9t23 9t9 23t-9 23t-23 9v0zM208 289q1 15 16 16q15 -1 16 -16q-1 -15 -16 -16q-15 1 -16 16v0zM224 257q14 0 23 9v0v0q9 9 9 23t-9 23t-23 9t-23 -9t-9 -23t9 -23t23 -9v0zM312 185q1 15 16 16q15 -1 16 -16
q-1 -15 -16 -16q-15 1 -16 16v0zM328 217q-14 0 -23 -9v0v0q-9 -9 -9 -23t9 -23t23 -9t23 9t9 23t-9 23t-23 9v0z" />
</svg>
