<?xml version="1.0" standalone="no"?>
<!DOCTYPE svg PUBLIC "-//W3C//DTD SVG 1.1//EN" "http://www.w3.org/Graphics/SVG/1.1/DTD/svg11.dtd" >
<svg xmlns="http://www.w3.org/2000/svg" xmlns:xlink="http://www.w3.org/1999/xlink" version="1.1" viewBox="-10 -40 596 512">
   <path fill="currentColor"
d="M368 9q-24 1 -40 16v0v0q-15 16 -16 40v0v0q-1 6 -6 8l-65 12v0q-100 21 -161 95q-62 75 -64 177v28v0q0 17 12 28q11 12 28 12h288v0q22 -2 24 -24q-2 -22 -24 -24h-40v0q-3 0 -5 -2q-5 -5 -1 -11l7 -9v0l7 -8v0q16 -21 16 -47v-4v0q-1 -30 -21 -50t-50 -21
q-29 0 -50 21l-41 41v0q-6 4 -12 0q-4 -6 0 -12l41 -40v0q26 -25 62 -26q29 1 51 17q35 25 36 70v4v0q0 32 -20 57l-3 4v0h23v0q17 1 28 12q12 11 12 28t-12 28q-11 12 -28 12h-288v0q-24 -1 -40 -16q-15 -16 -16 -40v-28v0q2 -108 67 -187q66 -79 171 -101l58 -11v0
q3 -28 23 -46t49 -19q30 1 50 21q21 19 22 49q61 13 98 28q18 8 28 23q10 16 10 36q-1 39 -35 59l-137 75v0l112 141v0h52v0q7 1 8 8q-1 7 -8 8h-56v0q-4 0 -6 -3l-120 -152v0q-3 -3 -2 -7q1 -3 4 -5l145 -79v0q26 -15 27 -46q-1 -31 -28 -43q-38 -16 -101 -28q-7 -2 -7 -9
v-2v-2q-1 -24 -16 -40q-16 -15 -40 -16v0zM368 57q15 1 16 16q-1 15 -16 16q-15 -1 -16 -16q1 -15 16 -16v0z" />
</svg>
