<?xml version="1.0" standalone="no"?>
<!DOCTYPE svg PUBLIC "-//W3C//DTD SVG 1.1//EN" "http://www.w3.org/Graphics/SVG/1.1/DTD/svg11.dtd" >
<svg xmlns="http://www.w3.org/2000/svg" xmlns:xlink="http://www.w3.org/1999/xlink" version="1.1" viewBox="-10 -40 596 512">
   <path fill="currentColor"
d="M192 361q-34 0 -64 -12v-60v0q-1 -7 -8 -8q-7 1 -8 8v53v0q-43 -23 -69 -64t-27 -93q2 -75 52 -124q49 -50 124 -52q57 1 100 31q26 19 56 34q31 14 66 15h50v0q41 1 68 28t28 68q-1 41 -28 68t-68 28h-50v0q-35 1 -66 16q-30 14 -56 33q-43 30 -100 31v0zM0 185
q1 59 31 105v0v0q31 46 81 70v73v0q1 7 8 8q7 -1 8 -8v-67v0q30 11 64 11q16 0 32 -3v59v0q1 7 8 8q7 -1 8 -8v-62v0q34 -9 61 -28q26 -18 54 -32q28 -13 59 -14h50v0q9 0 19 -1l78 141v0q3 5 9 4q6 -2 6 -8v-240v0v0v0v-8q-1 -48 -33 -79q-31 -32 -79 -33h-50v0
q-31 -1 -59 -14q-28 -14 -53 -32q-48 -33 -110 -34q-82 2 -136 56t-56 136v0zM560 402l-61 -110l61 110l-61 -110q39 -14 61 -49v159v0zM448 201q15 -1 16 -16q-1 -15 -16 -16q-15 1 -16 16q1 15 16 16v0z" />
</svg>
