<?xml version="1.0" standalone="no"?>
<!DOCTYPE svg PUBLIC "-//W3C//DTD SVG 1.1//EN" "http://www.w3.org/Graphics/SVG/1.1/DTD/svg11.dtd" >
<svg xmlns="http://www.w3.org/2000/svg" xmlns:xlink="http://www.w3.org/1999/xlink" version="1.1" viewBox="-10 -40 596 512">
   <path fill="currentColor"
d="M16 89q1 -20 14 -34v0v0q14 -13 34 -14h448v0q20 1 34 14q13 14 14 34v7v0v1q-1 1 -3 2q-28 19 -29 54q1 35 29 54q2 1 3 2v1v71v0h-544v0v-71v0v-1q1 -1 3 -2q28 -19 29 -54q-1 -35 -29 -54q-2 -1 -3 -2v-1v-7v0zM16 297h544h-544h544v80v0q-1 15 -16 16h-64v0v-32v0
q-1 -7 -8 -8q-7 1 -8 8v32v0h-112v0v-32v0q-1 -7 -8 -8q-7 1 -8 8v32v0h-96v0v-32v0q-1 -7 -8 -8q-7 1 -8 8v32v0h-112v0v-32v0q-1 -7 -8 -8q-7 1 -8 8v32v0h-64v0q-15 -1 -16 -16v-80v0zM32 409h72h-72h512q14 0 23 -9t9 -23v-167v0q-1 -11 -10 -17q-21 -14 -22 -40
q1 -26 22 -40q9 -6 10 -17v-7v0q-1 -27 -19 -45t-45 -19h-448v0q-27 1 -45 19t-19 45v7v0q1 11 10 17q21 14 22 40q-1 26 -22 40q-9 6 -10 17v167v0q0 14 9 23t23 9v0zM160 105q15 1 16 16v64v0q-1 15 -16 16q-15 -1 -16 -16v-64v0q1 -15 16 -16v0zM288 105q15 1 16 16v64v0
q-1 15 -16 16q-15 -1 -16 -16v-64v0q1 -15 16 -16v0zM416 105q15 1 16 16v64v0q-1 15 -16 16q-15 -1 -16 -16v-64v0q1 -15 16 -16v0zM160 89q-14 0 -23 9v0v0q-9 9 -9 23v64v0q0 14 9 23t23 9t23 -9t9 -23v-64v0q0 -14 -9 -23t-23 -9v0zM288 89q-14 0 -23 9v0v0q-9 9 -9 23
v64v0q0 14 9 23t23 9t23 -9t9 -23v-64v0q0 -14 -9 -23t-23 -9v0zM416 89q-14 0 -23 9v0v0q-9 9 -9 23v64v0q0 14 9 23t23 9t23 -9t9 -23v-64v0q0 -14 -9 -23t-23 -9v0z" />
</svg>
