<?xml version="1.0" standalone="no"?>
<!DOCTYPE svg PUBLIC "-//W3C//DTD SVG 1.1//EN" "http://www.w3.org/Graphics/SVG/1.1/DTD/svg11.dtd" >
<svg xmlns="http://www.w3.org/2000/svg" xmlns:xlink="http://www.w3.org/1999/xlink" version="1.1" viewBox="-10 -40 596 512">
   <path fill="currentColor"
d="M16 74q0 -9 9 -15v0v0q8 -6 19 -3q64 15 126 6q62 -8 121 -25v0v0v0v0v0v0q3 -1 6 -1l6 -2q62 -17 122 -24q60 -6 118 15q16 6 17 26v310v0q0 8 -8 14q-9 6 -20 3q-64 -15 -126 -6q-62 8 -121 25q-3 1 -6 1l-6 2q-62 17 -122 24q-60 6 -118 -14q-16 -7 -17 -27v-309v0z
M0 74v309v-309v309q1 30 27 42q65 22 131 14q65 -8 130 -26q60 -17 120 -26q60 -8 119 7q18 4 33 -6q15 -9 16 -28v-309v0q-1 -30 -27 -42q-65 -22 -130 -14q-66 8 -131 26q-60 17 -120 25q-60 9 -119 -6q-19 -4 -33 5q-15 10 -16 29v0zM384 217q-1 -46 -27 -78v0v0
q-27 -33 -69 -34q-42 1 -69 34q-26 32 -27 78q1 46 27 78q27 33 69 34q42 -1 69 -34q26 -32 27 -78v0zM288 313q-34 -1 -57 -28v0v0q-22 -27 -23 -68q1 -41 23 -68q23 -27 57 -28q34 1 57 28q22 27 23 68q-1 41 -23 68q-23 27 -57 28v0zM536 121q7 -1 8 -8q-1 -7 -8 -8h-8v0
q-24 -1 -40 -16q-15 -16 -16 -40v-8v0q-1 -7 -8 -8q-7 1 -8 8v8v0q1 31 21 51t51 21h8v0zM32 169q1 7 8 8h8v0q31 -1 51 -21t21 -51v-8v0q-1 -7 -8 -8q-7 1 -8 8v8v0q-1 24 -16 40q-16 15 -40 16h-8v0q-7 1 -8 8v0zM536 257h-8h8h-8q-31 1 -51 21t-21 51v8v0q1 7 8 8
q7 -1 8 -8v-8v0q1 -24 16 -40q16 -15 40 -16h8v0q7 -1 8 -8q-1 -7 -8 -8v0zM32 321q1 7 8 8h8v0q24 1 40 16q15 16 16 40v8v0q1 7 8 8q7 -1 8 -8v-8v0q-1 -31 -21 -51t-51 -21h-8v0q-7 1 -8 8v0zM272 161q-7 1 -8 8q1 7 8 8h8v0v80v0h-16v0q-7 1 -8 8q1 7 8 8h24h24
q7 -1 8 -8q-1 -7 -8 -8h-16v0v-88v0q-1 -7 -8 -8h-16v0z" />
</svg>
