<?xml version="1.0" standalone="no"?>
<!DOCTYPE svg PUBLIC "-//W3C//DTD SVG 1.1//EN" "http://www.w3.org/Graphics/SVG/1.1/DTD/svg11.dtd" >
<svg xmlns="http://www.w3.org/2000/svg" xmlns:xlink="http://www.w3.org/1999/xlink" version="1.1" viewBox="-10 -40 458 512">
   <path fill="currentColor"
d="M381 -5q5 4 2 11l-82 115v0h123v0q7 1 8 8q-1 7 -8 8h-134v0l-112 160v0h246v0q7 1 8 8q-1 7 -8 8h-258v0l-87 125v0q-5 5 -12 2q-5 -5 -1 -12l81 -115v0h-123v0q-7 -1 -8 -8q1 -7 8 -8h134v0l113 -160v0h-247v0q-7 -1 -8 -8q1 -7 8 -8h258v0l88 -125v0q4 -5 11 -1v0z
" />
</svg>
