<?xml version="1.0" standalone="no"?>
<!DOCTYPE svg PUBLIC "-//W3C//DTD SVG 1.1//EN" "http://www.w3.org/Graphics/SVG/1.1/DTD/svg11.dtd" >
<svg xmlns="http://www.w3.org/2000/svg" xmlns:xlink="http://www.w3.org/1999/xlink" version="1.1" viewBox="-10 -40 660 512">
   <path fill="currentColor"
d="M320 -39q7 1 8 8v88v0h120v0q41 1 68 28t28 68v224v0q-1 41 -28 68t-68 28h-256v0q-41 -1 -68 -28t-28 -68v-224v0q1 -41 28 -68t68 -28h120v0v-88v0q1 -7 8 -8v0zM192 73q-34 1 -57 23v0v0q-22 23 -23 57v224v0q1 34 23 57q23 22 57 23h256v0q34 -1 57 -23
q22 -23 23 -57v-224v0q-1 -34 -23 -57q-23 -22 -57 -23h-128h-128zM200 361h48h-48h48q7 1 8 8q-1 7 -8 8h-48v0q-7 -1 -8 -8q1 -7 8 -8v0zM296 361h48h-48h48q7 1 8 8q-1 7 -8 8h-48v0q-7 -1 -8 -8q1 -7 8 -8v0zM392 361h48h-48h48q7 1 8 8q-1 7 -8 8h-48v0q-7 -1 -8 -8
q1 -7 8 -8v0zM224 177q-23 1 -35 20q-10 20 0 40q12 19 35 20q23 -1 35 -20q10 -20 0 -40q-12 -19 -35 -20v0zM280 217q-1 32 -28 48q-28 16 -56 0q-27 -16 -28 -48q1 -32 28 -48q28 -16 56 0q27 16 28 48v0zM376 217q1 23 20 35q20 10 40 0q19 -12 20 -35q-1 -23 -20 -35
q-20 -10 -40 0q-19 12 -20 35v0zM416 273q-32 -1 -48 -28q-16 -28 0 -56q16 -27 48 -28q32 1 48 28q16 28 0 56q-16 27 -48 28v0zM48 185h16h-16h16v16v0h-16v0q-14 0 -23 9t-9 23v96v0q0 14 9 23t23 9h16v0v16v0h-16v0q-20 -1 -34 -14q-13 -14 -14 -34v-96v0q1 -20 14 -34
q14 -13 34 -14v0zM592 361q14 0 23 -9v0v0q9 -9 9 -23v-96v0q0 -14 -9 -23t-23 -9h-16v0v-16v0h16v0q20 1 34 14q13 14 14 34v96v0q-1 20 -14 34q-14 13 -34 14h-16v0v-16v0h16v0z" />
</svg>
