<?xml version="1.0" standalone="no"?>
<!DOCTYPE svg PUBLIC "-//W3C//DTD SVG 1.1//EN" "http://www.w3.org/Graphics/SVG/1.1/DTD/svg11.dtd" >
<svg xmlns="http://www.w3.org/2000/svg" xmlns:xlink="http://www.w3.org/1999/xlink" version="1.1" viewBox="-10 -40 522 512">
   <path fill="currentColor"
d="M41 363q-14 -15 -14 -34v0v0q0 -19 14 -34l45 -45v0l52 53v0q6 4 12 0q4 -6 0 -12l-53 -52v0l53 -53v0l52 53v0q6 4 12 0q4 -6 0 -12l-53 -52v0l53 -53v0l52 53v0q6 4 12 0q4 -6 0 -12l-53 -52v0l53 -53v0l52 53v0q6 4 12 0q4 -6 0 -12l-53 -52v0l45 -45v0q15 -14 34 -14
t34 14l70 69v0q14 15 14 34t-14 34l-294 293v0q-15 14 -34 14t-34 -14l-69 -69v0zM99 444q20 18 45 18v0v0q26 0 45 -18l294 -294v0q18 -19 18 -45q0 -25 -18 -45l-70 -70v0q-19 -18 -45 -18q-25 0 -45 18l-294 294v0q-18 19 -18 45q0 25 18 45l70 70v0z" />
</svg>
