<?xml version="1.0" standalone="no"?>
<!DOCTYPE svg PUBLIC "-//W3C//DTD SVG 1.1//EN" "http://www.w3.org/Graphics/SVG/1.1/DTD/svg11.dtd" >
<svg xmlns="http://www.w3.org/2000/svg" xmlns:xlink="http://www.w3.org/1999/xlink" version="1.1" viewBox="-10 -40 586 512">
   <path fill="currentColor"
d="M534 73l-57 -90l57 90l-57 -90v0v0q-4 -6 -11 -6h-356v0q-7 0 -11 6v0v0v0v0l-57 90v0v0v0q-17 31 -5 60q13 29 45 35q5 1 10 1q33 -1 54 -24q4 -5 12 -5q7 0 11 5q21 23 54 24q33 -1 53 -24q5 -5 12 -5t12 5q20 23 53 24q33 -1 53 -24q5 -5 12 -5t12 5q21 23 53 24
q6 0 10 -1q33 -6 46 -35t-5 -60v0v0zM483 185q-30 -1 -53 -18q-6 -5 -12 -11q-5 6 -12 11q-22 18 -53 18t-53 -18q-7 -5 -12 -11q-6 6 -12 11q-22 17 -53 18q-31 -1 -54 -18q-6 -5 -12 -11q-5 6 -11 11q-23 17 -54 18q-6 0 -12 -1v0v0v41v0v112v0v64v0q1 24 17 40
q15 15 39 16h304v0q24 -1 40 -16q15 -16 16 -40v-64v0v-112v0v-41v0v0v0q-6 1 -13 1v0zM548 65q19 33 8 67v0v0q-10 34 -44 48v45v0v112v0v64v0q-1 31 -21 51t-51 21h-304v0q-31 -1 -51 -21t-21 -51v-64v0v-112v0v-45v0q-34 -14 -44 -48q-11 -34 8 -67l58 -91v0
q8 -13 24 -13h356v0q16 0 24 13l58 91v0zM144 217v104v-104v104q1 7 8 8h272v0q7 -1 8 -8v-104v0q1 -7 8 -8q7 1 8 8v104v0q-2 22 -24 24h-272v0q-22 -2 -24 -24v-104v0q1 -7 8 -8q7 1 8 8v0z" />
</svg>
