<?xml version="1.0" standalone="no"?>
<!DOCTYPE svg PUBLIC "-//W3C//DTD SVG 1.1//EN" "http://www.w3.org/Graphics/SVG/1.1/DTD/svg11.dtd" >
<svg xmlns="http://www.w3.org/2000/svg" xmlns:xlink="http://www.w3.org/1999/xlink" version="1.1" viewBox="-10 -40 532 512">
   <path fill="currentColor"
d="M0 1q1 -7 8 -8h32h464q7 1 8 8q-1 7 -8 8h-24v0v416v0h24v0q7 1 8 8q-1 7 -8 8h-32h-112q-7 -1 -8 -8v-120v0q-1 -41 -28 -68t-68 -28q-41 1 -68 28t-28 68v120v0q-1 7 -8 8h-72h-72q-7 -1 -8 -8q1 -7 8 -8h24v0v-416v0h-24v0q-7 -1 -8 -8v0zM48 9v416v-416v416h32h64
v-112v0q1 -48 33 -79q31 -32 79 -33q48 1 79 33q32 31 33 79v112v0h64h32v-416v0h-416v0zM104 105h304h-304h304q7 1 8 8q-1 7 -8 8h-304v0q-7 -1 -8 -8q1 -7 8 -8v0z" />
</svg>
