<?xml version="1.0" standalone="no"?>
<!DOCTYPE svg PUBLIC "-//W3C//DTD SVG 1.1//EN" "http://www.w3.org/Graphics/SVG/1.1/DTD/svg11.dtd" >
<svg xmlns="http://www.w3.org/2000/svg" xmlns:xlink="http://www.w3.org/1999/xlink" version="1.1" viewBox="-10 -40 660 512">
   <path fill="currentColor"
d="M64 41q-20 1 -34 14v0v0q-13 14 -14 34v256v0q1 20 14 34q14 13 34 14h512v0q20 -1 34 -14q13 -14 14 -34v-256v0q-1 -20 -14 -34q-14 -13 -34 -14h-512v0zM0 89q1 -27 19 -45v0v0q18 -18 45 -19h512v0q27 1 45 19t19 45v256v0q-1 27 -19 45t-45 19h-512v0
q-27 -1 -45 -19t-19 -45v-256v0zM96 105q-15 1 -16 16v64v0q1 15 16 16h224v0q15 -1 16 -16v-64v0q-1 -15 -16 -16h-224v0zM64 121q0 -14 9 -23v0v0q9 -9 23 -9h224v0q14 0 23 9t9 23v64v0q0 14 -9 23t-23 9h-224v0q-14 0 -23 -9t-9 -23v-64v0zM64 337q1 -7 8 -8h272v0
q7 1 8 8q-1 7 -8 8h-272v0q-7 -1 -8 -8v0zM384 337q1 -7 8 -8h176v0q7 1 8 8q-1 7 -8 8h-176v0q-7 -1 -8 -8v0zM80 249q15 1 16 16q-1 15 -16 16q-15 -1 -16 -16q1 -15 16 -16v0zM128 265q1 -15 16 -16q15 1 16 16q-1 15 -16 16q-15 -1 -16 -16v0zM208 249q15 1 16 16
q-1 15 -16 16q-15 -1 -16 -16q1 -15 16 -16v0zM256 265q1 -15 16 -16q15 1 16 16q-1 15 -16 16q-15 -1 -16 -16v0zM336 249q15 1 16 16q-1 15 -16 16q-15 -1 -16 -16q1 -15 16 -16v0z" />
</svg>
