<?xml version="1.0" standalone="no"?>
<!DOCTYPE svg PUBLIC "-//W3C//DTD SVG 1.1//EN" "http://www.w3.org/Graphics/SVG/1.1/DTD/svg11.dtd" >
<svg xmlns="http://www.w3.org/2000/svg" xmlns:xlink="http://www.w3.org/1999/xlink" version="1.1" viewBox="-10 -40 532 512">
   <path fill="currentColor"
d="M508 8q6 -5 3 -11q-5 -6 -11 -3l-115 74v0q-57 -11 -129 -11q-109 0 -181 26q-72 27 -75 86v160v0q3 49 75 80q9 4 18 7q68 24 163 25q95 -1 163 -25q9 -3 18 -7q72 -31 75 -80v-160v0q-1 -36 -29 -60q-28 -23 -76 -36l101 -65v0zM366 81l-138 89l138 -89l-138 89
q-6 5 -3 11q5 6 11 3l153 -99v0q23 6 42 13q65 26 65 71q1 34 -65 65q-69 30 -175 31q-106 -1 -175 -31q-66 -31 -65 -65q0 -45 65 -71q68 -25 175 -25q60 0 110 8v0zM424 254q49 -18 72 -45v120v0q1 34 -65 65q-2 1 -3 1l-4 2v-143v0zM264 281q82 -2 144 -21v143v0
q-61 20 -144 22v-144v0zM104 260q62 19 144 21v144v0q-83 -2 -144 -22v-143v0zM16 209q23 27 72 45v143v0q-3 -1 -7 -3q-66 -31 -65 -65v-120v0z" />
</svg>
