<?xml version="1.0" standalone="no"?>
<!DOCTYPE svg PUBLIC "-//W3C//DTD SVG 1.1//EN" "http://www.w3.org/Graphics/SVG/1.1/DTD/svg11.dtd" >
<svg xmlns="http://www.w3.org/2000/svg" xmlns:xlink="http://www.w3.org/1999/xlink" version="1.1" viewBox="-10 -40 596 512">
   <path fill="currentColor"
d="M560 121q1 -46 -75 -79q-40 -17 -95 -26q-16 50 -11 106q6 56 35 98l1 1q40 -8 70 -21q76 -33 75 -79v0zM363 121l-14 7q-27 15 -61 17q-34 -2 -61 -17l-14 -7q-5 58 -35 103q51 9 110 9t110 -9q-30 -45 -35 -103v0zM362 103q-1 -47 12 -89q-41 -5 -86 -5t-86 5
q13 42 12 89h1q7 5 19 11q25 13 54 15q29 -2 54 -15q12 -6 19 -11h1v0zM91 200q30 13 70 21v0l1 -1q29 -42 35 -98q5 -56 -11 -106q-55 9 -95 26q-76 33 -75 79q-1 46 75 79v0zM576 121v192v-192v192q-3 61 -84 94q-82 34 -204 34t-204 -34q-81 -33 -84 -94v-192v0
q3 -60 84 -94q82 -33 204 -34q122 1 204 34q81 34 84 94v0zM560 167q-31 39 -104 60v0v0q-72 22 -168 22t-168 -22q-73 -21 -104 -60v146v0q0 46 75 79q77 32 197 33q120 -1 197 -33q75 -33 75 -79v-146v0z" />
</svg>
