<?xml version="1.0" standalone="no"?>
<!DOCTYPE svg PUBLIC "-//W3C//DTD SVG 1.1//EN" "http://www.w3.org/Graphics/SVG/1.1/DTD/svg11.dtd" >
<svg xmlns="http://www.w3.org/2000/svg" xmlns:xlink="http://www.w3.org/1999/xlink" version="1.1" viewBox="-10 -40 596 512">
   <path fill="currentColor"
d="M368 409q-1 20 -14 34v0v0q-14 13 -34 14h-256v0q-20 -1 -34 -14q-13 -14 -14 -34v-384v0q1 -20 14 -34q14 -13 34 -14h140v0h4v0v120v0q0 17 12 28q11 12 28 12h120v0v4v76v0h16v0v-76v0q0 -20 -14 -34l-132 -132v0q-14 -14 -34 -14h-140v0q-27 1 -45 19t-19 45v384v0
q1 27 19 45t45 19h256v0q27 -1 45 -19t19 -45v-96v0h-16v0v96v0zM361 121h-113h113h-113q-22 -2 -24 -24v-113v0q1 1 3 2l132 132v0q1 2 2 3v0zM462 147q-6 -4 -12 0q-4 6 0 12l99 98v0h-349v0q-7 1 -8 8q1 7 8 8h349v0l-99 98v0q-4 6 0 12q6 4 12 0l112 -112v0q4 -6 0 -12
l-112 -112v0z" />
</svg>
