<?xml version="1.0" standalone="no"?>
<!DOCTYPE svg PUBLIC "-//W3C//DTD SVG 1.1//EN" "http://www.w3.org/Graphics/SVG/1.1/DTD/svg11.dtd" >
<svg xmlns="http://www.w3.org/2000/svg" xmlns:xlink="http://www.w3.org/1999/xlink" version="1.1" viewBox="-10 -40 404 512">
   <path fill="currentColor"
d="M64 457q-20 -1 -34 -14v0v0q-13 -14 -14 -34v-384v0q1 -20 14 -34q14 -13 34 -14h140v0h4v0v120v0q0 17 12 28q11 12 28 12h120v0v4v268v0q-1 20 -14 34q-14 13 -34 14h-256v0zM359 118q1 2 2 3h-113v0q-22 -2 -24 -24v-113v0q1 1 3 2l132 132v0zM64 -39q-27 1 -45 19v0
v0q-18 18 -19 45v384v0q1 27 19 45t45 19h256v0q27 -1 45 -19t19 -45v-268v0q0 -20 -14 -34l-132 -132v0q-14 -14 -34 -14h-140v0zM64 33q1 7 8 8h80v0q7 -1 8 -8q-1 -7 -8 -8h-80v0q-7 1 -8 8v0zM64 97q1 7 8 8h80v0q7 -1 8 -8q-1 -7 -8 -8h-80v0q-7 1 -8 8v0zM224 401
q1 7 8 8h80v0q7 -1 8 -8q-1 -7 -8 -8h-80v0q-7 1 -8 8v0zM288 201q15 1 16 16v64v0q-1 15 -16 16h-192v0q-15 -1 -16 -16v-64v0q1 -15 16 -16h192v0zM96 185q-14 0 -23 9v0v0q-9 9 -9 23v64v0q0 14 9 23t23 9h192v0q14 0 23 -9t9 -23v-64v0q0 -14 -9 -23t-23 -9h-192v0z" />
</svg>
