<?xml version="1.0" standalone="no"?>
<!DOCTYPE svg PUBLIC "-//W3C//DTD SVG 1.1//EN" "http://www.w3.org/Graphics/SVG/1.1/DTD/svg11.dtd" >
<svg xmlns="http://www.w3.org/2000/svg" xmlns:xlink="http://www.w3.org/1999/xlink" version="1.1" viewBox="-10 -40 532 512">
   <path fill="currentColor"
d="M16 217q1 -67 33 -121v0v0q32 -54 86 -86v0v0q54 -32 121 -33q59 1 108 26q50 25 83 69q5 5 11 1q6 -5 2 -11q-36 -47 -88 -74q-53 -26 -116 -27q-72 1 -129 35q-58 34 -92 92q-34 57 -35 129v56v0q1 7 8 8q7 -1 8 -8v-56v0zM501 142q-3 -7 -10 -5q-7 3 -5 10
q10 33 10 70v56v0q1 7 8 8q7 -1 8 -8v-56v0q0 -39 -11 -75v0zM256 41q-40 0 -74 16q-7 5 -2 12q4 5 9 3q31 -15 67 -15q68 2 113 47t47 113v25v0q0 47 -7 94q0 8 8 9q7 -1 8 -7q7 -48 7 -96v-25v0q-2 -75 -51 -124q-50 -50 -125 -52v0zM140 97q-6 -6 -12 -1q-46 49 -48 121
v25v0q0 47 -13 93q-1 9 8 10q5 0 7 -6q14 -47 14 -97v-25v0q2 -65 43 -109q4 -6 1 -11v0zM256 121q-41 1 -68 28v0v0q-27 27 -28 68v25v0q0 64 -19 124q-2 10 8 11q5 0 7 -5q20 -64 20 -130v-25v0q1 -34 23 -57q23 -22 57 -23q34 1 57 23q22 23 23 57v25v0q0 63 -13 125
q-1 9 7 10q7 0 8 -6q14 -64 14 -129v-25v0q-1 -41 -28 -68t-68 -28v0zM264 217q-1 -7 -8 -8q-7 1 -8 8v25v0q0 93 -34 181l-5 15v0q-2 7 4 10q7 2 10 -4l6 -16v0q35 -90 35 -186v-25v0z" />
</svg>
