<?xml version="1.0" standalone="no"?>
<!DOCTYPE svg PUBLIC "-//W3C//DTD SVG 1.1//EN" "http://www.w3.org/Graphics/SVG/1.1/DTD/svg11.dtd" >
<svg xmlns="http://www.w3.org/2000/svg" xmlns:xlink="http://www.w3.org/1999/xlink" version="1.1" viewBox="-10 -40 597 512">
   <path fill="currentColor"
d="M142 268l-12 7l12 -7l-12 7l-90 52v0q-10 5 -19 -3q-8 -8 -3 -19l46 -80v0l5 -8v0l-5 -8v0l-46 -80v0q-5 -11 3 -19q9 -8 19 -3l90 52v0l11 7v0l9 -10v0q18 -21 41 -41q28 -25 64 -41q37 -16 81 -17q44 1 81 17q36 16 64 41q28 24 48 49q19 26 29 46q4 7 0 14
q-10 20 -29 46q-20 25 -48 49q-28 25 -64 41q-37 16 -81 17q-44 -1 -81 -17q-36 -16 -64 -41q-23 -20 -41 -41l-9 -10h1zM138 288q18 23 43 43q29 26 68 44q39 17 87 18q48 -1 87 -18q39 -18 69 -44q29 -25 49 -52q21 -26 32 -47q7 -15 0 -30q-11 -21 -32 -47
q-20 -27 -49 -52q-30 -26 -69 -44q-39 -17 -87 -18q-48 1 -87 18q-39 18 -68 44q-25 20 -43 43l-90 -53v0q-21 -10 -39 5q-15 18 -5 39l46 80v0l-46 80v0q-10 21 6 39q17 15 38 5l90 -53v0zM448 217q0 -14 -9 -23v0v0q-9 -9 -23 -9t-23 9t-9 23t9 23t23 9t23 -9t9 -23v0z
M416 201q15 1 16 16q-1 15 -16 16q-15 -1 -16 -16q1 -15 16 -16v0z" />
</svg>
