<?xml version="1.0" standalone="no"?>
<!DOCTYPE svg PUBLIC "-//W3C//DTD SVG 1.1//EN" "http://www.w3.org/Graphics/SVG/1.1/DTD/svg11.dtd" >
<svg xmlns="http://www.w3.org/2000/svg" xmlns:xlink="http://www.w3.org/1999/xlink" version="1.1" viewBox="-10 -40 532 512">
   <path fill="currentColor"
d="M256 -23q-65 1 -120 32v0v0q-55 32 -88 88q-32 57 -32 120t32 120q33 56 88 88q55 31 120 32q65 -1 120 -32q55 -32 88 -88q32 -57 32 -120t-32 -120q-33 -56 -88 -88q-55 -31 -120 -32v0zM512 217q-1 70 -34 128v0v0q-34 58 -94 94q-61 34 -128 34t-128 -34
q-60 -36 -94 -94q-33 -58 -34 -128q1 -70 34 -128q34 -58 94 -94q61 -34 128 -34t128 34q60 36 94 94q33 58 34 128v0zM168 265q-17 0 -28 12v0v0q-12 11 -12 28t12 28q11 12 28 12h8v0v-80v0h-8v0zM192 345h56h-56h56v-80v0h-56v0v80v0zM320 345v-80v80v-80h-56v0v80v0h56
v0zM336 345h8h-8h8q17 0 28 -12q12 -11 12 -28t-12 -28q-11 -12 -28 -12h-8v0v80v0zM168 249h176h-176h176q24 1 40 16q15 16 16 40q-1 24 -16 40q-16 15 -40 16h-176v0q-24 -1 -40 -16q-15 -16 -16 -40q1 -24 16 -40q16 -15 40 -16v0zM160 169q2 -15 16 -16q15 1 16 16
q-1 15 -16 16q-14 -1 -16 -16v0zM336 153q15 1 16 16q-1 15 -16 16q-14 -1 -16 -16q2 -15 16 -16v0z" />
</svg>
