<?xml version="1.0" standalone="no"?>
<!DOCTYPE svg PUBLIC "-//W3C//DTD SVG 1.1//EN" "http://www.w3.org/Graphics/SVG/1.1/DTD/svg11.dtd" >
<svg xmlns="http://www.w3.org/2000/svg" xmlns:xlink="http://www.w3.org/1999/xlink" version="1.1" viewBox="-10 -40 532 512">
   <path fill="currentColor"
d="M496 217q-1 -65 -32 -120v0v0q-32 -55 -88 -88q-57 -32 -120 -32t-120 32q-56 33 -88 88q-31 55 -32 120q1 65 32 120q32 55 88 88q57 32 120 32t120 -32q56 -33 88 -88q31 -55 32 -120v0zM0 217q1 -70 34 -128v0v0q34 -58 94 -94q61 -34 128 -34t128 34q60 36 94 94
q33 58 34 128q-1 70 -34 128q-34 58 -94 94q-61 34 -128 34t-128 -34q-60 -36 -94 -94q-33 -58 -34 -128v0zM256 309q-65 0 -121 -16q-6 -1 -9 2q-1 1 -1 2v0v0v0l1 1q19 36 53 57t77 22q43 -1 77 -22t54 -57q1 -1 0 -1v0v0q0 -1 -1 -2q-2 -3 -8 -2q-57 16 -122 16v0z
M401 306q-21 39 -59 63v0v0q-38 23 -86 24q-47 -1 -85 -24q-38 -24 -59 -63q-6 -13 3 -22t24 -6q54 15 117 15t118 -15q14 -3 24 6q9 9 3 22v0zM160 169q2 -15 16 -16q15 1 16 16q-1 15 -16 16q-14 -1 -16 -16v0zM336 153q15 1 16 16q-1 15 -16 16q-14 -1 -16 -16
q2 -15 16 -16v0z" />
</svg>
