<?xml version="1.0" standalone="no"?>
<!DOCTYPE svg PUBLIC "-//W3C//DTD SVG 1.1//EN" "http://www.w3.org/Graphics/SVG/1.1/DTD/svg11.dtd" >
<svg xmlns="http://www.w3.org/2000/svg" xmlns:xlink="http://www.w3.org/1999/xlink" version="1.1" viewBox="-10 -40 532 512">
   <path fill="currentColor"
d="M16 249q1 -67 33 -121v0v0q32 -54 86 -86v0v0q54 -32 121 -33q67 1 121 33t86 86t33 121v88v0q1 7 8 8q7 -1 8 -8v-88v0q-1 -72 -35 -129q-34 -58 -92 -92q-57 -34 -129 -35q-72 1 -129 35q-58 34 -92 92q-34 57 -35 129v88v0q1 7 8 8q7 -1 8 -8v-88v0zM144 233
q15 1 16 16v160v0q-1 15 -16 16h-16v0q-27 -1 -45 -19t-19 -45v-64v0q1 -27 19 -45t45 -19h16v0zM128 217q-34 1 -57 23v0v0q-22 23 -23 57v64v0q1 34 23 57q23 22 57 23h16v0q14 0 23 -9t9 -23v-160v0q0 -14 -9 -23t-23 -9h-16v0zM368 233h16h-16h16q27 1 45 19t19 45v64v0
q-1 27 -19 45t-45 19h-16v0q-15 -1 -16 -16v-160v0q1 -15 16 -16v0zM384 217h-16h16h-16q-14 0 -23 9t-9 23v160v0q0 14 9 23t23 9h16v0q34 -1 57 -23q22 -23 23 -57v-64v0q-1 -34 -23 -57q-23 -22 -57 -23v0z" />
</svg>
