<?xml version="1.0" standalone="no"?>
<!DOCTYPE svg PUBLIC "-//W3C//DTD SVG 1.1//EN" "http://www.w3.org/Graphics/SVG/1.1/DTD/svg11.dtd" >
<svg xmlns="http://www.w3.org/2000/svg" xmlns:xlink="http://www.w3.org/1999/xlink" version="1.1" viewBox="-10 -40 532 512">
   <path fill="currentColor"
d="M8 -39q-7 1 -8 8q1 7 8 8h24v0v480v0h-24v0q-7 1 -8 8q1 7 8 8h200h296q7 -1 8 -8q-1 -7 -8 -8h-24v0v-480v0h24v0q7 -1 8 -8q-1 -7 -8 -8h-496v0zM288 393v64v-64v64h-64v0v-64v0q0 -14 9 -23t23 -9t23 9t9 23v0zM304 393q-1 -20 -14 -34v0v0q-14 -13 -34 -14
q-20 1 -34 14q-13 14 -14 34v64v0h-160v0v-480v0h416v0v480v0h-160v0v-64v0zM328 57v32v-32v32q2 22 24 24h32v0q22 -2 24 -24v-32v0q-2 -22 -24 -24h-32v0q-22 2 -24 24v0zM352 49h32h-32h32q7 1 8 8v32v0q-1 7 -8 8h-32v0q-7 -1 -8 -8v-32v0q1 -7 8 -8v0zM240 33
q-22 2 -24 24v32v0q2 22 24 24h32v0q22 -2 24 -24v-32v0q-2 -22 -24 -24h-32v0zM232 57q1 -7 8 -8h32v0q7 1 8 8v32v0q-1 7 -8 8h-32v0q-7 -1 -8 -8v-32v0zM216 185v32v-32v32q2 22 24 24h32v0q22 -2 24 -24v-32v0q-2 -22 -24 -24h-32v0q-22 2 -24 24v0zM240 177h32h-32h32
q7 1 8 8v32v0q-1 7 -8 8h-32v0q-7 -1 -8 -8v-32v0q1 -7 8 -8v0zM352 161q-22 2 -24 24v32v0q2 22 24 24h32v0q22 -2 24 -24v-32v0q-2 -22 -24 -24h-32v0zM344 185q1 -7 8 -8h32v0q7 1 8 8v32v0q-1 7 -8 8h-32v0q-7 -1 -8 -8v-32v0zM104 57v32v-32v32q2 22 24 24h32v0
q22 -2 24 -24v-32v0q-2 -22 -24 -24h-32v0q-22 2 -24 24v0zM128 49h32h-32h32q7 1 8 8v32v0q-1 7 -8 8h-32v0q-7 -1 -8 -8v-32v0q1 -7 8 -8v0zM128 161q-22 2 -24 24v32v0q2 22 24 24h32v0q22 -2 24 -24v-32v0q-2 -22 -24 -24h-32v0zM120 185q1 -7 8 -8h32v0q7 1 8 8v32v0
q-1 7 -8 8h-32v0q-7 -1 -8 -8v-32v0zM190 326q26 -28 66 -29q40 1 66 29q5 5 11 1q5 -6 1 -11q-30 -34 -78 -35q-48 1 -77 35q-5 5 0 11q6 4 11 -1v0z" />
</svg>
