<?xml version="1.0" standalone="no"?>
<!DOCTYPE svg PUBLIC "-//W3C//DTD SVG 1.1//EN" "http://www.w3.org/Graphics/SVG/1.1/DTD/svg11.dtd" >
<svg xmlns="http://www.w3.org/2000/svg" xmlns:xlink="http://www.w3.org/1999/xlink" version="1.1" viewBox="-10 -40 532 512">
   <path fill="currentColor"
d="M496 217q-1 -65 -32 -120v0v0q-32 -55 -88 -88q-57 -32 -120 -32t-120 32q-56 33 -88 88q-31 55 -32 120q1 65 32 120q32 55 88 88q57 32 120 32t120 -32q56 -33 88 -88q31 -55 32 -120v0zM0 217q1 -70 34 -128v0v0q34 -58 94 -94q61 -34 128 -34t128 34q60 36 94 94
q33 58 34 128q-1 70 -34 128q-34 58 -94 94q-61 34 -128 34t-128 -34q-60 -36 -94 -94q-33 -58 -34 -128v0zM256 377q49 -1 86 -30v0v0q37 -29 50 -76q0 -2 -1 -4q-2 -2 -5 -2h-259v0q-4 0 -6 2q-1 2 -1 4q13 47 50 76t86 30v0zM127 249h259h-259h259q11 0 17 8q7 7 4 18
q-14 52 -55 85q-41 32 -96 33q-55 -1 -96 -33q-41 -33 -55 -85q-3 -11 4 -18q6 -8 17 -8h1zM160 153q2 -15 16 -16q15 1 16 16q-1 15 -16 16q-14 -1 -16 -16v0zM336 137q15 1 16 16q-1 15 -16 16q-14 -1 -16 -16q2 -15 16 -16v0z" />
</svg>
