<?xml version="1.0" standalone="no"?>
<!DOCTYPE svg PUBLIC "-//W3C//DTD SVG 1.1//EN" "http://www.w3.org/Graphics/SVG/1.1/DTD/svg11.dtd" >
<svg xmlns="http://www.w3.org/2000/svg" xmlns:xlink="http://www.w3.org/1999/xlink" version="1.1" viewBox="-10 -40 660 512">
   <path fill="currentColor"
d="M0 -31q1 -7 8 -8h80v0q17 0 28 12q12 11 12 28v352v0q2 22 24 24h72h408q7 1 8 8q-1 7 -8 8h-84v0q12 13 12 32q-1 20 -14 34q-14 13 -34 14q-20 -1 -34 -14q-13 -14 -14 -34q0 -19 12 -32h-216v0q12 13 12 32q-1 20 -14 34q-14 13 -34 14q-20 -1 -34 -14
q-13 -14 -14 -34q0 -19 12 -32h-36v0q-17 0 -28 -12q-12 -11 -12 -28v-352v0q-2 -22 -24 -24h-80v0q-7 -1 -8 -8v0zM512 393q-14 0 -23 9v0v0q-9 9 -9 23t9 23t23 9t23 -9t9 -23t-9 -23t-23 -9v0zM192 425q0 14 9 23v0v0q9 9 23 9t23 -9t9 -23t-9 -23t-23 -9t-23 9t-9 23v0z
M344 -23q-22 2 -24 24v40v0h128v0v-40v0q-2 -22 -24 -24h-80v0zM464 41h48h-48h48q27 1 45 19t19 45v144v0q-1 27 -19 45t-45 19h-256v0q-27 -1 -45 -19t-19 -45v-144v0q1 -27 19 -45t45 -19h48v0v-40v0q0 -17 12 -28q11 -12 28 -12h80v0q17 0 28 12q12 11 12 28v40v0z
M464 57h-16h16h-176v240v0h192v0v-240v0h-16v0zM272 57h-16h16h-16q-20 1 -34 14q-13 14 -14 34v144v0q1 20 14 34q14 13 34 14h16v0v-240v0zM496 297h16h-16h16q20 -1 34 -14q13 -14 14 -34v-144v0q-1 -20 -14 -34q-14 -13 -34 -14h-16v0v240v0z" />
</svg>
