<?xml version="1.0" standalone="no"?>
<!DOCTYPE svg PUBLIC "-//W3C//DTD SVG 1.1//EN" "http://www.w3.org/Graphics/SVG/1.1/DTD/svg11.dtd" >
<svg xmlns="http://www.w3.org/2000/svg" xmlns:xlink="http://www.w3.org/1999/xlink" version="1.1" viewBox="-10 -40 596 512">
   <path fill="currentColor"
d="M381 122q-10 25 -27 52t-34 50q-17 24 -30 39q-2 2 -4 0q-13 -15 -30 -39q-17 -23 -34 -50t-27 -52q-11 -25 -11 -41q1 -44 30 -74q30 -29 74 -30q44 1 74 30q29 30 30 74q0 16 -11 41v0zM303 273q17 -21 41 -55v0v0q25 -35 44 -72v0v0q19 -37 20 -65q-1 -51 -35 -85
t-85 -35q-51 1 -85 35t-35 85q1 28 20 65t44 72q24 34 41 55q6 7 15 7t15 -7v0zM421 151l118 -43l-118 43l118 -43q8 -2 14 2q7 5 7 13v261v0q-1 11 -10 15l-150 55v0v-197v0q-1 -7 -8 -8q-7 1 -8 8v197v0l-192 -59v0v-138v0q-1 -7 -8 -8q-7 1 -8 8v138v0l-138 51v0
q-9 2 -15 -2q-7 -5 -7 -13v-261v0q1 -11 11 -15l114 -42v0q-2 -8 -4 -15l-116 42v0q-20 8 -21 30v261v0q1 17 14 26t29 4l141 -52v0l206 64v0h5l160 -59v0q20 -8 21 -30v-261v0q-1 -17 -14 -26t-29 -4l-103 38v0l-4 10t-5 10v0zM256 73q0 -14 9 -23v0v0q9 -9 23 -9t23 9
t9 23t-9 23t-23 9t-23 -9t-9 -23v0zM336 73q-1 -27 -24 -42q-24 -12 -48 0q-23 15 -24 42q1 27 24 42q24 12 48 0q23 -15 24 -42v0z" />
</svg>
