<?xml version="1.0" standalone="no"?>
<!DOCTYPE svg PUBLIC "-//W3C//DTD SVG 1.1//EN" "http://www.w3.org/Graphics/SVG/1.1/DTD/svg11.dtd" >
<svg xmlns="http://www.w3.org/2000/svg" xmlns:xlink="http://www.w3.org/1999/xlink" version="1.1" viewBox="-10 -40 532 512">
   <path fill="currentColor"
d="M464 169v48v-48v48q0 57 -29 99t-84 62q-8 3 -10 11t3 14q15 19 21 42q1 5 -2 8q-4 4 -11 4h-192v0q-7 0 -10 -4q-4 -3 -2 -8q6 -23 20 -42q5 -6 3 -14t-10 -11q-55 -20 -84 -62t-29 -99v-48v0h416v0zM372 387q53 -24 80 -68v0v0q28 -44 28 -102v-32v0v-16v0h16h8
q7 -1 8 -8q-1 -7 -8 -8h-24h-472q-7 1 -8 8q1 7 8 8h8h16v16v0v32v0q0 58 28 102q27 44 80 68l16 6l-10 14q-9 16 -14 34q-3 14 6 23q8 9 22 9h192v0q14 0 22 -9q9 -9 6 -23q-5 -18 -14 -34l-10 -14l16 -6v0z" />
</svg>
