<?xml version="1.0" standalone="no"?>
<!DOCTYPE svg PUBLIC "-//W3C//DTD SVG 1.1//EN" "http://www.w3.org/Graphics/SVG/1.1/DTD/svg11.dtd" >
<svg xmlns="http://www.w3.org/2000/svg" xmlns:xlink="http://www.w3.org/1999/xlink" version="1.1" viewBox="-10 -40 524 512">
   <path fill="currentColor"
d="M352 -23q20 1 34 14v0v0q13 14 14 34v32v0q-1 20 -14 34q-14 13 -34 14h-288v0q-20 -1 -34 -14q-13 -14 -14 -34v-32v0q1 -20 14 -34q14 -13 34 -14h288v0zM64 -39q-27 1 -45 19v0v0q-18 18 -19 45v32v0q1 27 19 45t45 19h288v0q27 -1 45 -19t19 -45v-8v0v-16v0v-8v0
q-1 -27 -19 -45t-45 -19h-288v0zM240 297q14 0 23 9v0v0q9 9 9 23v96v0q0 14 -9 23t-23 9h-32v0q-14 0 -23 -9t-9 -23v-96v0q0 -14 9 -23t23 -9h32v0zM208 281q-20 1 -34 14v0v0q-13 14 -14 34v96v0q1 20 14 34q14 13 34 14h32v0q20 -1 34 -14q13 -14 14 -34v-96v0
q-1 -20 -14 -34q-14 -13 -34 -14h-8v0v-32v0q0 -17 12 -28q11 -12 28 -12h176v0q24 -1 40 -16q15 -16 16 -40v-64v0q-1 -24 -16 -40q-16 -15 -40 -16v16v0q17 0 28 12q12 11 12 28v64v0q0 17 -12 28q-11 12 -28 12h-176v0q-24 1 -40 16q-15 16 -16 40v32v0h-8v0z" />
</svg>
