<?xml version="1.0" standalone="no"?>
<!DOCTYPE svg PUBLIC "-//W3C//DTD SVG 1.1//EN" "http://www.w3.org/Graphics/SVG/1.1/DTD/svg11.dtd" >
<svg xmlns="http://www.w3.org/2000/svg" xmlns:xlink="http://www.w3.org/1999/xlink" version="1.1" viewBox="-11 0 532 512">
   <path fill="currentColor"
d="M440 -13q-10 -9 -22 -9v0v0q-13 0 -23 9l-67 67v0l91 91v0l67 -67v0q9 -10 9 -23q0 -12 -9 -22l-46 -46v0zM74 308q-16 16 -23 38l-31 107v0l107 -31v0q22 -7 38 -23l243 -243v0l-91 -91v0l-243 243v0zM384 -24q14 -14 34 -14v0v0q19 0 34 14l45 45v0q14 15 14 34t-14 34
l-321 322v0q-19 18 -44 26l-122 36v0q-4 1 -8 -2q-3 -4 -2 -8l36 -122v0q8 -25 26 -44l322 -321v0zM156 -6q-12 -12 -28 -12v0v0q-16 0 -28 12l-67 67v0q-12 12 -12 28t12 28l77 77v0l-12 11v0l-76 -76v0q-17 -18 -17 -40t17 -40l66 -66v0q18 -17 40 -17t40 17l76 76v0
l-11 12v0l-38 -38v0l-53 54v0q-6 4 -12 0q-4 -6 0 -12l54 -53v0l-28 -28v0zM268 375l11 -11l-11 11l11 -11l77 76v0q12 12 28 12t28 -12l67 -67v0q12 -12 12 -28t-12 -28l-28 -28v0l-53 54v0q-6 4 -12 0q-4 -6 0 -12l54 -53v0l-37 -38v0l11 -11v0l76 76v0q17 18 17 40
t-17 40l-66 66v0q-18 17 -40 17t-40 -17l-76 -76v0z" />
</svg>
