<?xml version="1.0" standalone="no"?>
<!DOCTYPE svg PUBLIC "-//W3C//DTD SVG 1.1//EN" "http://www.w3.org/Graphics/SVG/1.1/DTD/svg11.dtd" >
<svg xmlns="http://www.w3.org/2000/svg" xmlns:xlink="http://www.w3.org/1999/xlink" version="1.1" viewBox="-10 -40 532 512">
   <path fill="currentColor"
d="M256 457q65 -1 120 -32v0v0q55 -32 88 -88q32 -57 32 -120t-32 -120q-33 -56 -88 -88q-55 -31 -120 -32q-65 1 -120 32q-55 32 -88 88q-32 57 -32 120t32 120q33 56 88 88q55 31 120 32v0zM256 -39q70 1 128 34v0v0q58 34 94 94q34 61 34 128t-34 128q-36 60 -94 94
q-58 33 -128 34q-70 -1 -128 -34q-58 -34 -94 -94q-34 -61 -34 -128t34 -128q36 -60 94 -94q58 -33 128 -34v0zM176 270q-9 12 -18 26q-14 21 -14 34t9 22t23 9t23 -9t9 -22t-13 -34q-10 -14 -19 -26v0zM170 252q6 -6 12 0q2 3 4 5q12 15 24 35q13 20 14 38q-1 20 -14 33
q-14 14 -34 14t-34 -14q-13 -13 -14 -33q1 -18 13 -37q12 -20 24 -34v-1l2 -2q1 -2 3 -4v0zM336 153q14 1 16 16q-2 15 -16 16q-15 -1 -16 -16q1 -15 16 -16v0zM192 169q-2 15 -16 16q-15 -1 -16 -16q1 -15 16 -16q14 1 16 16v0zM256 281q71 3 118 67q4 6 -1 11q-6 4 -11 -1
q-45 -59 -106 -61q-7 -1 -8 -8q1 -7 8 -8v0z" />
</svg>
