<?xml version="1.0" standalone="no"?>
<!DOCTYPE svg PUBLIC "-//W3C//DTD SVG 1.1//EN" "http://www.w3.org/Graphics/SVG/1.1/DTD/svg11.dtd" >
<svg xmlns="http://www.w3.org/2000/svg" xmlns:xlink="http://www.w3.org/1999/xlink" version="1.1" viewBox="-10 -40 660 512">
   <path fill="currentColor"
d="M552 -31v80v-80v80h80v0q7 1 8 8q-1 7 -8 8h-80v0v80v0q-1 7 -8 8q-7 -1 -8 -8v-80v0h-80v0q-7 -1 -8 -8q1 -7 8 -8h80v0v-80v0q1 -7 8 -8q7 1 8 8v0zM432 249q0 -57 -28 -104v0v0q-27 -47 -76 -76q-49 -28 -104 -28t-104 28q-49 29 -76 76q-28 47 -28 104t28 104
q27 47 76 76q49 28 104 28t104 -28q49 -29 76 -76q28 -47 28 -104v0zM0 249q1 -61 30 -112v0v0q30 -51 82 -82q53 -30 112 -30t112 30q52 31 82 82q29 51 30 112q-1 61 -30 112q-30 51 -82 82q-53 30 -112 30t-112 -30q-52 -31 -82 -82q-29 -51 -30 -112v0zM144 185
q15 1 16 16q-1 15 -16 16q-14 -1 -16 -16q2 -15 16 -16v0zM288 201q2 -15 16 -16q15 1 16 16q-1 15 -16 16q-14 -1 -16 -16v0zM119 302q8 21 34 47q27 26 71 28q44 -2 71 -28q26 -26 34 -47q3 -7 10 -4t5 10q-9 24 -39 53q-29 29 -81 32q-52 -3 -81 -32q-30 -29 -38 -53
q-2 -7 4 -10q7 -3 11 4h-1z" />
</svg>
