<?xml version="1.0" standalone="no"?>
<!DOCTYPE svg PUBLIC "-//W3C//DTD SVG 1.1//EN" "http://www.w3.org/Graphics/SVG/1.1/DTD/svg11.dtd" >
<svg xmlns="http://www.w3.org/2000/svg" xmlns:xlink="http://www.w3.org/1999/xlink" version="1.1" viewBox="-10 -40 532 512">
   <path fill="currentColor"
d="M0 377q1 41 28 68v0v0q27 27 68 28q41 -1 68 -28t28 -68v-376v0q0 -17 -12 -28q-11 -12 -28 -12h-112v0q-17 0 -28 12q-12 11 -12 28v376v0zM96 457q-34 -1 -57 -23v0v0q-22 -23 -23 -57v-376v0q2 -22 24 -24h112v0q22 2 24 24v376v0q-1 34 -23 57q-23 22 -57 23v0z
M472 473q17 0 28 -12v0v0q12 -11 12 -28v-112v0q0 -17 -12 -28q-11 -12 -28 -12h-114v0l-16 16v0h130v0q22 2 24 24v112v0q-2 22 -24 24h-276v0q-7 9 -15 16h291v0zM224 384l206 -206l-206 206l206 -206q12 -13 12 -29t-12 -28l-79 -79v0q-12 -12 -28 -12t-28 12l-71 71v0
v22v0l82 -82v0q17 -14 34 0l79 80v0q14 17 0 33l-195 195v0v16v0v7v0zM120 9h-48h48h-48q-22 2 -24 24v48v0q2 22 24 24h48v0q22 -2 24 -24v-48v0q-2 -22 -24 -24v0zM64 33q1 -7 8 -8h48v0q7 1 8 8v48v0q-1 7 -8 8h-48v0q-7 -1 -8 -8v-48v0zM72 137q-22 2 -24 24v48v0
q2 22 24 24h48v0q22 -2 24 -24v-48v0q-2 -22 -24 -24h-48v0zM72 153h48h-48h48q7 1 8 8v48v0q-1 7 -8 8h-48v0q-7 -1 -8 -8v-48v0q1 -7 8 -8v0zM112 377q-1 15 -16 16q-15 -1 -16 -16q1 -15 16 -16q15 1 16 16v0zM96 345q-14 0 -23 9v0v0q-9 9 -9 23t9 23t23 9t23 -9t9 -23
t-9 -23t-23 -9v0z" />
</svg>
