<?xml version="1.0" standalone="no"?>
<!DOCTYPE svg PUBLIC "-//W3C//DTD SVG 1.1//EN" "http://www.w3.org/Graphics/SVG/1.1/DTD/svg11.dtd" >
<svg xmlns="http://www.w3.org/2000/svg" xmlns:xlink="http://www.w3.org/1999/xlink" version="1.1" viewBox="-10 -40 532 512">
   <path fill="currentColor"
d="M496 217q-1 -65 -32 -120v0v0q-32 -55 -88 -88q-57 -32 -120 -32t-120 32q-56 33 -88 88q-31 55 -32 120q1 65 32 120q32 55 88 88q57 32 120 32t120 -32q56 -33 88 -88q31 -55 32 -120v0zM0 217q1 -70 34 -128v0v0q34 -58 94 -94q61 -34 128 -34t128 34q60 36 94 94
q33 58 34 128q-1 70 -34 128q-34 58 -94 94q-61 34 -128 34t-128 -34q-60 -36 -94 -94q-33 -58 -34 -128v0zM176 301q-15 15 -23 32q-9 16 -9 28l21 -8v0q43 -16 89 -16h4v0q46 0 90 16l20 8v0q0 -12 -8 -28q-9 -17 -24 -32q-31 -33 -80 -36q-49 3 -80 36v0zM256 249
q28 0 51 12v0v0q24 12 40 29q17 17 27 35t10 36q0 8 -7 13t-15 2l-20 -8v0q-41 -15 -84 -15h-4v0q-43 0 -84 15l-20 8v0q-8 3 -15 -2t-7 -13q1 -18 10 -36q10 -18 27 -35q16 -17 40 -29q23 -12 51 -12v0zM129 125q4 -6 11 -3l80 40v0q4 2 4 7t-4 7l-80 40v0q-7 3 -11 -3
q-3 -7 3 -11l66 -33v0l-66 -33v0q-6 -4 -3 -10v-1zM372 122q7 -3 11 3q3 7 -3 11l-66 33v0l66 33v0q6 4 3 11q-4 6 -11 3l-80 -40v0q-4 -2 -4 -7t4 -7l80 -40v0z" />
</svg>
