<?xml version="1.0" standalone="no"?>
<!DOCTYPE svg PUBLIC "-//W3C//DTD SVG 1.1//EN" "http://www.w3.org/Graphics/SVG/1.1/DTD/svg11.dtd" >
<svg xmlns="http://www.w3.org/2000/svg" xmlns:xlink="http://www.w3.org/1999/xlink" version="1.1" viewBox="-10 -40 596 512">
   <path fill="currentColor"
d="M463 32q48 38 73 93v0v0q24 55 20 117q-3 12 -19 9l-89 -32v0l4 -11v0q25 -68 21 -139q-2 -20 -10 -37v0zM409 1q43 21 48 69q3 68 -20 132l-4 11v0l-198 -72v0l5 -11v0q23 -64 70 -114q16 -17 39 -23q23 -5 46 2l1 1h2q6 2 11 5v0zM332 -18q-19 8 -34 24q-49 51 -73 119
l-5 11v0l-92 -34v0q-14 -8 -8 -19q37 -51 93 -78q56 -26 119 -23v0zM400 -20q-85 -28 -164 -1v0v0q-79 26 -129 95q-8 12 -3 25t18 18l93 34v0v0v0l15 5v0l198 72v0l15 6v0v0v0l89 32v0q14 5 26 -2q11 -7 13 -21q6 -83 -35 -153q-42 -70 -120 -104q-4 -2 -8 -3l-6 -2v0
q-1 -1 -2 -1v0zM8 457q-7 1 -8 8q1 7 8 8h560v0q7 -1 8 -8q-1 -7 -8 -8h-329v0l85 -232v0l-15 -6v0l-85 233v0l-2 5v0h-214v0z" />
</svg>
