<?xml version="1.0" standalone="no"?>
<!DOCTYPE svg PUBLIC "-//W3C//DTD SVG 1.1//EN" "http://www.w3.org/Graphics/SVG/1.1/DTD/svg11.dtd" >
<svg xmlns="http://www.w3.org/2000/svg" xmlns:xlink="http://www.w3.org/1999/xlink" version="1.1" viewBox="-10 -40 532 512">
   <path fill="currentColor"
d="M136 -39h48h-48h48q17 0 28 12q12 11 12 28v80v0q-1 7 -8 8q-7 -1 -8 -8v-80v0q-2 -22 -24 -24h-48v0q-22 2 -24 24v80v0q-1 7 -8 8q-7 -1 -8 -8v-80v0q0 -17 12 -28q11 -12 28 -12v0zM96 137q-34 1 -57 23v0v0q-22 23 -23 57v192v0q1 20 14 34q14 13 34 14h192v0
q20 -1 34 -14q13 -14 14 -34v-192v0q-1 -34 -23 -57q-23 -22 -57 -23h-128v0zM0 217q1 -41 28 -68v0v0q27 -27 68 -28h128v0q41 1 68 28t28 68v192v0q-1 27 -19 45t-45 19h-192v0q-27 -1 -45 -19t-19 -45v-192v0zM160 225q-41 1 -62 36q-20 36 0 72q21 35 62 36
q41 -1 62 -36q20 -36 0 -72q-21 -35 -62 -36v0zM248 297q-2 50 -44 76q-44 24 -88 0q-42 -26 -44 -76q2 -50 44 -76q44 -24 88 0q42 26 44 76v0zM336 -39q7 1 8 8v32v0h32v0q7 1 8 8q-1 7 -8 8h-32v0v32v0q-1 7 -8 8q-7 -1 -8 -8v-32v0h-32v0q-7 -1 -8 -8q1 -7 8 -8h32v0
v-32v0q1 -7 8 -8v0zM472 -31v32v-32v32h32v0q7 1 8 8q-1 7 -8 8h-32v0v32v0q-1 7 -8 8q-7 -1 -8 -8v-32v0h-32v0q-7 -1 -8 -8q1 -7 8 -8h32v0v-32v0q1 -7 8 -8q7 1 8 8v0zM464 153q7 1 8 8v32v0h32v0q7 1 8 8q-1 7 -8 8h-32v0v32v0q-1 7 -8 8q-7 -1 -8 -8v-32v0h-32v0
q-7 -1 -8 -8q1 -7 8 -8h32v0v-32v0q1 -7 8 -8v0zM408 65v32v-32v32h32v0q7 1 8 8q-1 7 -8 8h-32v0v32v0q-1 7 -8 8q-7 -1 -8 -8v-32v0h-32v0q-7 -1 -8 -8q1 -7 8 -8h32v0v-32v0q1 -7 8 -8q7 1 8 8v0z" />
</svg>
