<?xml version="1.0" standalone="no"?>
<!DOCTYPE svg PUBLIC "-//W3C//DTD SVG 1.1//EN" "http://www.w3.org/Graphics/SVG/1.1/DTD/svg11.dtd" >
<svg xmlns="http://www.w3.org/2000/svg" xmlns:xlink="http://www.w3.org/1999/xlink" version="1.1" viewBox="-10 -40 468 512">
   <path fill="currentColor"
d="M240 57h-16h16h-16v-16v0q1 -27 19 -45t45 -19h16v0v16v0q-1 27 -19 45t-45 19v0zM240 73q34 -1 57 -23v0v0q22 -23 23 -57v-16v0q-1 -15 -16 -16h-16v0q-34 1 -57 23q-22 23 -23 57v16v0q1 15 16 16h16v0zM16 249q0 -57 25 -100q24 -42 71 -44q18 0 39 6q20 5 38 12
q35 13 70 0q18 -7 38 -12q21 -6 39 -6q47 2 71 44q25 43 25 100q-3 93 -47 150t-97 58q-15 0 -34 -6q-30 -9 -60 0q-19 6 -34 6q-53 -1 -97 -58t-47 -150v0zM112 89q-57 3 -85 51v0v0q-27 49 -27 109q3 98 50 160q48 62 110 64q19 -1 39 -7q25 -7 50 0q20 6 39 7
q63 -2 110 -64q48 -62 50 -160q0 -60 -27 -109q-28 -48 -85 -51q-21 0 -43 6t-40 13q-29 11 -58 0q-18 -7 -40 -13t-43 -6v0z" />
</svg>
