<?xml version="1.0" standalone="no"?>
<!DOCTYPE svg PUBLIC "-//W3C//DTD SVG 1.1//EN" "http://www.w3.org/Graphics/SVG/1.1/DTD/svg11.dtd" >
<svg xmlns="http://www.w3.org/2000/svg" xmlns:xlink="http://www.w3.org/1999/xlink" version="1.1" viewBox="-10 -40 522 512">
   <path fill="currentColor"
d="M180 414q-80 25 -113 -8t-8 -113q9 -29 27 -61q29 44 70 85t85 70q-32 18 -61 27v0zM56 17q-29 30 -23 84v0v0q7 53 44 116q-37 63 -44 116q-6 54 23 84q30 29 84 23q53 -7 116 -44q63 37 116 44q54 6 84 -23q29 -30 23 -84q-7 -53 -44 -116q37 -63 44 -116
q6 -54 -23 -84q-30 -29 -84 -23q-53 7 -116 44q-63 -37 -116 -44q-54 -6 -84 23v0zM59 141q-25 -80 8 -113t113 -8q29 9 61 27q-44 29 -85 70t-70 85q-18 -32 -27 -61v0zM167 128q44 -43 89 -71q45 28 89 71q43 44 71 89q-28 45 -71 89q-44 43 -89 71q-45 -28 -89 -71
q-43 -44 -71 -89q28 -45 71 -89v0zM332 414q-29 -9 -61 -27q44 -29 85 -70t70 -85q18 32 27 61q25 80 -8 113t-113 8v0zM453 141q-9 29 -27 61q-29 -44 -70 -85t-85 -70q32 -18 61 -27q80 -25 113 8t8 113v0zM256 265q27 -1 42 -24q12 -24 0 -48q-15 -23 -42 -24
q-27 1 -42 24q-12 24 0 48q15 23 42 24v0zM224 217q0 -14 9 -23v0v0q9 -9 23 -9t23 9t9 23t-9 23t-23 9t-23 -9t-9 -23v0z" />
</svg>
