<?xml version="1.0" standalone="no"?>
<!DOCTYPE svg PUBLIC "-//W3C//DTD SVG 1.1//EN" "http://www.w3.org/Graphics/SVG/1.1/DTD/svg11.dtd" >
<svg xmlns="http://www.w3.org/2000/svg" xmlns:xlink="http://www.w3.org/1999/xlink" version="1.1" viewBox="-10 -40 532 512">
   <path fill="currentColor"
d="M83 30q-3 3 -3 10v17v0h352v0v-17v0q0 -7 -3 -10q-10 -16 -50 -34t-123 -19q-78 1 -120 19q-41 18 -53 34v0zM80 73v138v-138v138q18 -10 40 -10h128v0v-128v0h-168v0zM432 211v-138v138v-138h-168v0v128v0h128v0q22 0 40 10v0zM448 40v181v-181v181q31 26 32 68v72v0
q-2 33 -32 45v3v0v32v0q0 14 -9 23t-23 9h-32v0q-14 0 -23 -9t-9 -23v-32v0h-192v0v32v0q0 14 -9 23t-23 9h-32v0q-14 0 -23 -9t-9 -23v-32v0v-3v0q-30 -12 -32 -45v-72v0q1 -42 32 -68v-181v0q-1 -11 7 -20q15 -20 60 -39t125 -20q85 1 129 20q43 19 57 39q6 10 6 20v0z
M352 393h16h-16h80q14 0 23 -9t9 -23v-72v0q-1 -31 -21 -51t-51 -21h-272v0q-31 1 -51 21t-21 51v72v0q0 14 9 23t23 9h64h208zM368 409v32v-32v32q1 15 16 16h32v0q15 -1 16 -16v-32v0h-64v0zM80 409v32v-32v32q1 15 16 16h32v0q15 -1 16 -16v-32v0h-64v0zM88 305
q1 -23 20 -35q20 -10 40 0q19 12 20 35q-1 23 -20 35q-20 10 -40 0q-19 -12 -20 -35v0zM128 329q22 -2 24 -24q-2 -22 -24 -24q-22 2 -24 24q2 22 24 24v0zM344 305q1 -23 20 -35q20 -10 40 0q19 12 20 35q-1 23 -20 35q-20 10 -40 0q-19 -12 -20 -35v0zM384 329
q22 -2 24 -24q-2 -22 -24 -24q-22 2 -24 24q2 22 24 24v0zM192 9h128h-128h128q7 1 8 8q-1 7 -8 8h-128v0q-7 -1 -8 -8q1 -7 8 -8v0zM0 81q2 -22 24 -24h8v0q7 1 8 8q-1 7 -8 8h-8v0q-7 1 -8 8v112v0q1 7 8 8h8v0q7 1 8 8q-1 7 -8 8h-8v0q-22 -2 -24 -24v-112v0zM488 57
q22 2 24 24v112v0q-2 22 -24 24h-8v0q-7 -1 -8 -8q1 -7 8 -8h8v0q7 -1 8 -8v-112v0q-1 -7 -8 -8h-8v0q-7 -1 -8 -8q1 -7 8 -8h8v0z" />
</svg>
