<?xml version="1.0" standalone="no"?>
<!DOCTYPE svg PUBLIC "-//W3C//DTD SVG 1.1//EN" "http://www.w3.org/Graphics/SVG/1.1/DTD/svg11.dtd" >
<svg xmlns="http://www.w3.org/2000/svg" xmlns:xlink="http://www.w3.org/1999/xlink" version="1.1" viewBox="-10 -40 532 512">
   <path fill="currentColor"
d="M168 9h176h-176h176q19 0 34 11q14 11 20 29l31 104v0h-346v0l31 -104v0q6 -18 20 -29q15 -11 34 -11v0zM99 44l-33 110l33 -110l-33 110q-29 6 -47 27q-18 22 -19 52v80v0q2 33 32 45v3v0v48v0q0 14 9 23t23 9h32v0q14 0 23 -9t9 -23v-48v0h256v0v48v0q0 14 9 23t23 9
h32v0q14 0 23 -9t9 -23v-48v0v-3v0q30 -12 32 -45v-80v0q-1 -30 -19 -52q-18 -21 -47 -27l-33 -110v0q-7 -23 -26 -37q-18 -14 -43 -14h-176v0q-25 0 -43 14q-19 14 -26 37v0zM464 345h-64h64h-416q-14 0 -23 -9t-9 -23v-16v0h56v0q22 -2 24 -24v-32v0q-2 -22 -24 -24h-54v0
q6 -21 22 -34q17 -14 40 -14h352v0q23 0 40 14q16 13 22 34h-54v0q-22 2 -24 24v32v0q2 22 24 24h56v0v16v0q0 14 -9 23t-23 9v0zM400 361h64h-64h64v48v0q-1 15 -16 16h-32v0q-15 -1 -16 -16v-48v0zM48 409v-48v48v-48h64v0v48v0q-1 15 -16 16h-32v0q-15 -1 -16 -16v0z
M496 233v48v-48v48h-56v0q-7 -1 -8 -8v-32v0q1 -7 8 -8h56v0zM16 281v-48v48v-48h56v0q7 1 8 8v32v0q-1 7 -8 8h-56v0zM216 265h80h-80h80q7 1 8 8v16v0q-1 7 -8 8h-80v0q-7 -1 -8 -8v-16v0q1 -7 8 -8v0zM192 273v16v-16v16q2 22 24 24h80v0q22 -2 24 -24v-16v0
q-2 -22 -24 -24h-80v0q-22 2 -24 24v0z" />
</svg>
