<?xml version="1.0" standalone="no"?>
<!DOCTYPE svg PUBLIC "-//W3C//DTD SVG 1.1//EN" "http://www.w3.org/Graphics/SVG/1.1/DTD/svg11.dtd" >
<svg xmlns="http://www.w3.org/2000/svg" xmlns:xlink="http://www.w3.org/1999/xlink" version="1.1" viewBox="-10 -40 650 512">
   <path fill="currentColor"
d="M162 -18q5 -10 14 -10v0v0q10 0 15 10l31 68v0l59 -15v0l-12 20v0l-50 12v0q-6 1 -9 -5l-34 -74v0l-34 74v0q-3 6 -9 5l-80 -20v0l37 73v0q3 6 -2 10l-58 50v0l73 17v0q6 1 6 8l-1 81v0l34 -28v0l-7 27v0l-17 14v0q-8 6 -17 2q-8 -4 -9 -15l1 -75v0l-67 -15v0
q-10 -3 -12 -12t5 -16l54 -46v0l-34 -68v0q-4 -9 2 -17q6 -7 16 -5l73 18v0l32 -68v0zM308 52q13 -21 35 -30v0v0q22 -9 46 -3l154 41v0q23 7 38 26q14 18 15 43l2 101v0q17 18 24 42t0 50l-18 69v0l-5 16v0l-8 31v0q-4 13 -15 19t-24 3l-31 -8v0q-13 -4 -20 -15
q-6 -11 -3 -24l9 -31v0l-248 -66v0l-8 30v0q-4 13 -15 20q-11 6 -24 3l-31 -8v0q-13 -4 -20 -15q-6 -11 -3 -24l9 -31v0l4 -16v0l18 -69v0q8 -26 25 -44q18 -17 42 -24l52 -87v1zM580 129q0 -19 -12 -34v0v0q-11 -14 -29 -19l-154 -42v0q-19 -4 -36 3q-17 6 -27 23l-45 75v0
q15 -1 30 3l247 66v0q15 4 28 12l-2 -87v0zM588 387l19 -69l-19 69l19 -69q7 -34 -9 -61q-15 -28 -48 -37l-247 -67v0q-33 -8 -61 8t-37 49l-19 69v0l62 17v0l15 4v0l248 66v0l15 4v0l62 17v0zM522 386l-8 31l8 -31l-8 31q-3 14 11 19l31 9v0q14 2 19 -12l9 -30v0l-62 -17v0
zM244 311l-62 -16l62 16l-62 -16l-8 31v0q-3 14 11 19l31 9v0q14 2 20 -12l8 -31v0zM292 225q2 -9 -4 -16q-7 -6 -16 -4q-9 3 -11 12t4 15q7 7 15 4q9 -2 12 -11v0zM245 213q4 -14 15 -20v0v0q11 -6 25 -3q13 4 19 15t3 24q-5 18 -22 23q-18 4 -32 -8q-12 -14 -8 -32v1z
M535 307q9 2 16 -4q6 -7 4 -16q-3 -9 -12 -11q-9 -3 -15 4q-7 6 -5 15q3 9 12 12v0zM547 260q18 5 24 23q4 18 -9 31t-31 8t-23 -23q-5 -17 8 -31q14 -12 31 -8v0z" />
</svg>
