<?xml version="1.0" standalone="no"?>
<!DOCTYPE svg PUBLIC "-//W3C//DTD SVG 1.1//EN" "http://www.w3.org/Graphics/SVG/1.1/DTD/svg11.dtd" >
<svg xmlns="http://www.w3.org/2000/svg" xmlns:xlink="http://www.w3.org/1999/xlink" version="1.1" viewBox="-10 -40 596 512">
   <path fill="currentColor"
d="M96 -23q-20 1 -34 14v0v0q-13 14 -14 34v352v0h256v0v-352v0q-1 -20 -14 -34q-14 -13 -34 -14h-160v0zM48 393v64v-64v64h256v0v-64v0h-256v0zM32 457v-432v432v-432q1 -27 19 -45t45 -19h160v0q27 1 45 19t19 45v208v0h8v0q31 1 51 21t21 51v44v0q0 19 13 31
q12 13 31 13t31 -13q13 -12 13 -31v-132v0q-31 -4 -51 -26t-21 -54v-24v0q2 -22 24 -24h8v0v-56v0q1 -7 8 -8q7 1 8 8v56v0h64v0v-56v0q1 -7 8 -8q7 1 8 8v56v0h8v0q22 2 24 24v24v0q-1 32 -21 54t-51 26v132v0q-1 25 -18 42t-42 18q-25 -1 -42 -18t-18 -42v-44v0
q-1 -24 -16 -40q-16 -15 -40 -16h-8v0v208v0h24v0q7 1 8 8q-1 7 -8 8h-24h-312q-7 -1 -8 -8q1 -7 8 -8h24v0zM536 105h-80h80h-96q-7 1 -8 8v24v0q1 27 19 45t45 19q27 -1 45 -19t19 -45v-24v0q-1 -7 -8 -8h-16v0zM197 67q5 5 1 11l-62 83v0h96v0q5 0 7 4q2 5 -1 9l-72 96v0
q-5 5 -11 1q-5 -5 -1 -11l62 -83v0h-96v0q-5 0 -7 -4q-2 -5 1 -9l72 -96v0q5 -5 11 -1v0z" />
</svg>
