<?xml version="1.0" standalone="no"?>
<!DOCTYPE svg PUBLIC "-//W3C//DTD SVG 1.1//EN" "http://www.w3.org/Graphics/SVG/1.1/DTD/svg11.dtd" >
<svg xmlns="http://www.w3.org/2000/svg" xmlns:xlink="http://www.w3.org/1999/xlink" version="1.1" viewBox="-10 -40 404 512">
   <path fill="currentColor"
d="M192 -39q-28 1 -48 19v0v0q-20 17 -24 45h-8v0q-33 2 -45 32h-3v0q-27 1 -45 19t-19 45v288v0q1 27 19 45t45 19h256v0q27 -1 45 -19t19 -45v-288v0q-1 -27 -19 -45t-45 -19h-3v0q-12 -30 -45 -32h-8v0q-4 -28 -24 -45q-20 -18 -48 -19v0zM16 121q1 -20 14 -34v0v0
q14 -13 34 -14v16v0q0 14 9 23t23 9h192v0q14 0 23 -9t9 -23v-16v0q20 1 34 14q13 14 14 34v288v0q-1 20 -14 34q-14 13 -34 14h-256v0q-20 -1 -34 -14q-13 -14 -14 -34v-288v0zM136 33q1 -24 16 -40v0v0q16 -15 40 -16q24 1 40 16q15 16 16 40q1 7 8 8h16v0q14 0 23 9t9 23
v16v0q-1 15 -16 16h-192v0q-15 -1 -16 -16v-16v0q0 -14 9 -23t23 -9h16v0q7 -1 8 -8v0zM192 57q15 -1 16 -16q-1 -15 -16 -16q-15 1 -16 16q1 15 16 16v0zM104 169q-7 1 -8 8v80v0v80v0q1 7 8 8q7 -1 8 -8v-72v0h53v0l64 64v0l-43 42v0q-4 6 0 12q6 4 12 0l42 -43v0l42 43v0
q6 4 12 0q4 -6 0 -12l-43 -42v0l43 -42v0q4 -6 0 -12q-6 -4 -12 0l-42 43v0l-54 -54v0q17 -4 27 -17q11 -12 11 -30q-1 -20 -14 -34q-14 -13 -34 -14h-72v0zM168 249v0v0v0h-56v0v-64v0h64v0q14 0 23 9t9 23t-9 23t-23 9h-8v0z" />
</svg>
