<?xml version="1.0" standalone="no"?>
<!DOCTYPE svg PUBLIC "-//W3C//DTD SVG 1.1//EN" "http://www.w3.org/Graphics/SVG/1.1/DTD/svg11.dtd" >
<svg xmlns="http://www.w3.org/2000/svg" xmlns:xlink="http://www.w3.org/1999/xlink" version="1.1" viewBox="-10 -40 660 512">
   <path fill="currentColor"
d="M455 415q-59 41 -135 42q-67 -1 -121 -33t-86 -86t-33 -121q0 -45 16 -85l-13 -11v0q-19 45 -19 96q1 72 35 129q34 58 92 92q57 34 129 35q84 -1 148 -47l-13 -11v0zM320 -39q-84 1 -148 47l13 11v0q59 -41 135 -42q67 1 121 33t86 86t33 121q0 45 -16 85l14 11v0
q18 -45 18 -96q-1 -72 -35 -129q-34 -58 -92 -92q-57 -34 -129 -35v0zM195 312q-4 15 5 25v0v0q10 9 25 6l97 -33v0l-15 -12v0l-87 29v0q-12 1 -10 -10l25 -75v0l-13 -11v0l-27 81v0zM318 124l15 12l-15 -12l15 12l87 -29v0q12 -1 10 10l-25 75v0l13 11v0l27 -81v0
q4 -15 -5 -25q-10 -9 -25 -5l-97 32v0zM13 -37q-6 -4 -11 1q-4 6 1 11l624 496v0q6 4 11 -1q4 -6 -1 -11l-624 -496v0z" />
</svg>
