<?xml version="1.0" standalone="no"?>
<!DOCTYPE svg PUBLIC "-//W3C//DTD SVG 1.1//EN" "http://www.w3.org/Graphics/SVG/1.1/DTD/svg11.dtd" >
<svg xmlns="http://www.w3.org/2000/svg" xmlns:xlink="http://www.w3.org/1999/xlink" version="1.1" viewBox="-10 -40 404 512">
   <path fill="currentColor"
d="M368 153q-2 -75 -52 -124v0v0q-49 -50 -124 -52q-75 2 -124 52q-50 49 -52 124v176v0q1 54 37 91q37 36 91 37q54 -1 91 -37q36 -37 37 -91q0 -18 15 -28q37 -24 59 -62q22 -39 22 -86v0zM384 153q-1 51 -24 93v0v0q-24 42 -64 69q-8 5 -8 14q-2 61 -42 102
q-41 40 -102 42q-61 -2 -102 -42q-40 -41 -42 -102v-176v0q2 -82 56 -136t136 -56q82 2 136 56t56 136v0zM80 153v14v-14v14q1 21 18 34l9 6v0q20 14 21 39q0 23 -17 37l-34 28v0q-6 4 -11 -1q-4 -6 1 -11l34 -28v0q11 -10 11 -25q0 -17 -14 -26l-9 -6v0q-24 -17 -25 -47
v-14v0q1 -54 37 -91q37 -36 91 -37q54 1 91 37q36 37 37 91v8v0q-1 7 -8 8q-7 -1 -8 -8v-8v0q-1 -48 -33 -79q-31 -32 -79 -33q-48 1 -79 33q-32 31 -33 79v0z" />
</svg>
