<?xml version="1.0" standalone="no"?>
<!DOCTYPE svg PUBLIC "-//W3C//DTD SVG 1.1//EN" "http://www.w3.org/Graphics/SVG/1.1/DTD/svg11.dtd" >
<svg xmlns="http://www.w3.org/2000/svg" xmlns:xlink="http://www.w3.org/1999/xlink" version="1.1" viewBox="-10 -40 660 512">
   <path fill="currentColor"
d="M320 -39q6 0 8 6l90 376v0l47 -117v0q10 -24 37 -25h130v0q7 1 8 8q-1 7 -8 8h-130v0q-16 1 -23 15l-56 140v0q-2 5 -8 5q-5 -1 -7 -6l-87 -364v0l-89 460v0q-2 5 -8 6q-6 0 -8 -6l-58 -232v0q-5 -17 -23 -18h-127v0q-7 -1 -8 -8q1 -7 8 -8h127v0q30 2 39 30l49 197v0
l89 -460v0q2 -6 8 -7v0z" />
</svg>
