<?xml version="1.0" standalone="no"?>
<!DOCTYPE svg PUBLIC "-//W3C//DTD SVG 1.1//EN" "http://www.w3.org/Graphics/SVG/1.1/DTD/svg11.dtd" >
<svg xmlns="http://www.w3.org/2000/svg" xmlns:xlink="http://www.w3.org/1999/xlink" version="1.1" viewBox="-10 -40 597 512">
   <path fill="currentColor"
d="M560 51q1 -3 -1 -6t-5 -4l-128 -32v0q-7 -1 -10 6l-16 61v0l-13 -13v0l14 -52v0q7 -21 29 -17l128 32v0q9 2 15 11q5 9 2 18l-42 154v0l-13 -13v0l40 -145v0zM519 263l-145 -145l145 145l-145 -145l-18 75v0q-7 23 -31 24h-77v0q-17 0 -28 12q-12 11 -12 28v128v0
q0 17 12 28q11 12 28 12h191v0q17 0 29 -10q13 -10 17 -25l34 -127v0zM531 252q6 6 4 15l-34 127v0q-6 21 -23 34t-39 13h-191v0q-24 -1 -40 -16q-15 -16 -16 -40v-128v0q1 -24 16 -40q16 -15 40 -16h77v0q12 -1 15 -12l19 -75v0q3 -9 11 -11q8 -3 16 4l145 145v0zM32 201
q-15 1 -16 16q1 15 16 16q15 -1 16 -16q-1 -15 -16 -16v0zM64 217q0 14 -9 23v0v0q-9 9 -23 9t-23 -9t-9 -23t9 -23t23 -9t23 9t9 23v0zM128 249q-15 1 -16 16q1 15 16 16q15 -1 16 -16q-1 -15 -16 -16v0zM160 265q0 14 -9 23v0v0q-9 9 -23 9t-23 -9t-9 -23t9 -23t23 -9
t23 9t9 23v0zM16 313q1 15 16 16q15 -1 16 -16q-1 -15 -16 -16q-15 1 -16 16v0zM32 345q-14 0 -23 -9v0v0q-9 -9 -9 -23t9 -23t23 -9t23 9t9 23t-9 23t-23 9v0zM128 345q-15 1 -16 16q1 15 16 16q15 -1 16 -16q-1 -15 -16 -16v0zM160 361q0 14 -9 23v0v0q-9 9 -23 9t-23 -9
t-9 -23t9 -23t23 -9t23 9t9 23v0zM16 409q1 15 16 16q15 -1 16 -16q-1 -15 -16 -16q-15 1 -16 16v0zM32 441q-14 0 -23 -9v0v0q-9 -9 -9 -23t9 -23t23 -9t23 9t9 23t-9 23t-23 9v0z" />
</svg>
