<?xml version="1.0" standalone="no"?>
<!DOCTYPE svg PUBLIC "-//W3C//DTD SVG 1.1//EN" "http://www.w3.org/Graphics/SVG/1.1/DTD/svg11.dtd" >
<svg xmlns="http://www.w3.org/2000/svg" xmlns:xlink="http://www.w3.org/1999/xlink" version="1.1" viewBox="-10 -40 660 512">
   <path fill="currentColor"
d="M128 9h384h-384h384q20 1 34 14q13 14 14 34v256v0h16v0v-256v0q-1 -27 -19 -45t-45 -19h-384v0q-27 1 -45 19t-19 45v256v0h16v0v-256v0q1 -20 14 -34q14 -13 34 -14v0zM621 361q3 0 3 3q-1 26 -18 43t-43 18h-486v0q-26 -1 -43 -18t-18 -43q0 -3 3 -3h602v0zM19 345
q-17 2 -19 19q1 33 23 55q21 21 54 22h486v0q33 -1 55 -22q21 -22 22 -55q-2 -17 -19 -19h-602v0zM270 119q4 -6 0 -12q-6 -4 -12 0l-64 64v0q-4 6 0 12l64 64v0q6 4 12 0q4 -6 0 -12l-59 -58v0l59 -58v0zM382 107q-6 -4 -12 0q-4 6 0 12l59 58v0l-59 58v0q-4 6 0 12
q6 4 12 0l64 -64v0q4 -6 0 -12l-64 -64v0z" />
</svg>
