<?xml version="1.0" standalone="no"?>
<!DOCTYPE svg PUBLIC "-//W3C//DTD SVG 1.1//EN" "http://www.w3.org/Graphics/SVG/1.1/DTD/svg11.dtd" >
<svg xmlns="http://www.w3.org/2000/svg" xmlns:xlink="http://www.w3.org/1999/xlink" version="1.1" viewBox="-10 -40 660 512">
   <path fill="currentColor"
d="M312 -31q1 -7 8 -8q7 1 8 8v8v0v164v0q1 39 33 61l23 14v0v-90v0q1 -29 20 -49q20 -19 49 -20q35 0 56 29q12 17 31 47q20 31 40 70q21 38 37 82q17 44 23 88v4v7v0q-1 38 -26 63t-63 26q-11 0 -22 -3l-72 -18v0q-33 -9 -53 -34q-19 -25 -20 -59v-92v0l16 10v0v82v0
q0 28 17 49q16 21 44 29l72 18v0q9 2 18 2q31 -1 52 -21q20 -21 21 -52v-7v0v-2q-6 -42 -22 -84q-16 -43 -36 -81t-39 -68t-31 -47q-16 -22 -43 -22q-22 1 -37 16t-16 37v100v0l100 64v0q6 5 3 11q-5 6 -11 3l-139 -89v0q-22 -14 -33 -37q-11 23 -33 37l-139 89v0
q-6 3 -11 -3q-3 -6 3 -11l100 -64v0v-100v0q-1 -22 -16 -37t-37 -16q-27 0 -43 22q-12 17 -31 47t-39 68t-36 81q-16 42 -22 84v2v7v0q1 31 21 52q21 20 52 21q9 0 18 -2l72 -18v0q28 -8 44 -29q17 -21 17 -49v-82v0l16 -10v0v92v0q-1 34 -20 59q-20 25 -53 34l-72 18v0
q-11 3 -22 3q-38 -1 -63 -26t-26 -63v-7v0v-4q6 -44 23 -88q16 -44 37 -82q20 -39 40 -70q19 -30 31 -47q21 -29 56 -29q29 1 49 20q19 20 20 49v90v0l23 -14v0q32 -22 33 -61v-164v0v-8v0z" />
</svg>
