<?xml version="1.0" standalone="no"?>
<!DOCTYPE svg PUBLIC "-//W3C//DTD SVG 1.1//EN" "http://www.w3.org/Graphics/SVG/1.1/DTD/svg11.dtd" >
<svg xmlns="http://www.w3.org/2000/svg" xmlns:xlink="http://www.w3.org/1999/xlink" version="1.1" viewBox="-10 -40 660 512">
   <path fill="currentColor"
d="M394 367q-37 52 -63 83q-11 11 -22 0q-20 -24 -48 -62q-27 -38 -55 -81q-27 -43 -44 -84q-12 -29 -16 -52l-18 -14v0q4 46 34 104q31 58 69 112t65 87q10 12 24 12t24 -12q26 -31 62 -83l-12 -10v0zM320 -39q-82 2 -136 57l12 10v0q50 -49 124 -51q75 2 124 52
q50 49 52 124q0 29 -18 70q-4 10 -9 20l13 10v0q29 -57 30 -100q-2 -82 -56 -136t-136 -56v0zM400 153q-1 -34 -23 -57v0v0q-23 -22 -57 -23q-27 0 -47 15l13 11v0q15 -10 34 -10q27 1 45 19t19 45q0 11 -3 20l13 11v0q6 -15 6 -31v0zM13 -37q-6 -4 -11 1q-4 6 1 11l624 496
v0q6 4 11 -1q4 -6 -1 -11l-624 -496v0z" />
</svg>
