<?xml version="1.0" standalone="no"?>
<!DOCTYPE svg PUBLIC "-//W3C//DTD SVG 1.1//EN" "http://www.w3.org/Graphics/SVG/1.1/DTD/svg11.dtd" >
<svg xmlns="http://www.w3.org/2000/svg" xmlns:xlink="http://www.w3.org/1999/xlink" version="1.1" viewBox="-10 -40 532 512">
   <path fill="currentColor"
d="M176 -15v16v-16v16q-1 7 -8 8h-8v0q-15 1 -16 16v224v0q1 15 16 16h96v0q15 -1 16 -16v-144v0v-16v0v-64v0q-1 -15 -16 -16h-8v0q-7 -1 -8 -8v-16v0q-1 -7 -8 -8h-48v0q-7 1 -8 8v0zM288 105v144v-144v144q0 14 -9 23t-23 9h-96v0q-14 0 -23 -9t-9 -23v-224v0
q0 -14 9 -23t23 -9v-8v0q2 -22 24 -24h48v0q22 2 24 24v8v0q14 0 23 9t9 23v64v0q82 2 136 56t56 136q-1 60 -32 106q-31 47 -83 70h139v0q7 1 8 8q-1 7 -8 8h-216h-280q-7 -1 -8 -8q1 -7 8 -8h200h80q75 -2 124 -52q50 -49 52 -124q-2 -75 -52 -124q-49 -50 -124 -52v0z
M160 321q1 -7 8 -8h80v0q7 1 8 8q-1 7 -8 8h-80v0q-7 -1 -8 -8v0zM96 385q1 -7 8 -8h208v0q7 1 8 8q-1 7 -8 8h-208v0q-7 -1 -8 -8v0z" />
</svg>
