<?xml version="1.0" standalone="no"?>
<!DOCTYPE svg PUBLIC "-//W3C//DTD SVG 1.1//EN" "http://www.w3.org/Graphics/SVG/1.1/DTD/svg11.dtd" >
<svg xmlns="http://www.w3.org/2000/svg" xmlns:xlink="http://www.w3.org/1999/xlink" version="1.1" viewBox="-10 -40 659 512">
   <path fill="currentColor"
d="M344 41q7 -1 8 -8q-1 -7 -8 -8h-176v0q-7 1 -8 8q1 7 8 8h80v0v80v0h-136h-64q-20 1 -34 14q-13 14 -14 34v64v0q1 31 29 44l67 29v0v23v0q1 20 14 34q14 13 34 14h259v0q29 0 48 -22l183 -206v0q8 -12 2 -23q-7 -11 -21 -9l-167 36v0l-50 -25v0q-14 -7 -29 -7h-105v0
v-80v0h80v0zM441 167q5 3 10 2l167 -36v0h2v0q1 0 2 1v2t-1 2l-182 207v0q-14 16 -36 16h-259v0q-14 0 -23 -9t-9 -23v-16v0v-17v0v-159v0h257v0q11 0 21 5l51 25v0zM96 289l-61 -26l61 26l-61 -26q-18 -9 -19 -30v-64v0q0 -14 9 -23t23 -9h48v0v152v0z" />
</svg>
