<?xml version="1.0" standalone="no"?>
<!DOCTYPE svg PUBLIC "-//W3C//DTD SVG 1.1//EN" "http://www.w3.org/Graphics/SVG/1.1/DTD/svg11.dtd" >
<svg xmlns="http://www.w3.org/2000/svg" xmlns:xlink="http://www.w3.org/1999/xlink" version="1.1" viewBox="-10 -40 468 512">
   <path fill="currentColor"
d="M228 -38q-4 -2 -8 0l-17 10v0q-28 17 -60 19q-33 2 -63 -12q-26 -10 -44 11l-23 31v0q-13 19 -3 40q22 38 22 82v2v0v27v0q0 35 -13 68l-12 29v0q-7 18 -7 38q0 31 17 56q16 26 44 38l160 71v0q3 2 6 0l160 -71v0q28 -13 44 -38q17 -25 17 -56q0 -20 -7 -38l-12 -29v0
q-13 -33 -13 -68v-27v0v-2v0q0 -44 22 -82q10 -20 -3 -40l-23 -31v0q-18 -21 -44 -11q-30 14 -62 12q-33 -2 -61 -19l-17 -10v0zM400 137h-352h352h-352q-2 -45 -24 -84q-6 -11 2 -22l23 -31v0q10 -12 24 -6q34 15 70 13q37 -2 69 -21l12 -8v0l12 8v0q32 19 69 21
q36 2 70 -13q14 -6 24 6l23 31v0q8 11 2 22q-22 39 -24 84v0zM48 153h352h-352h352v19v0q0 39 14 74l12 29v0q6 16 6 32q0 27 -14 48t-38 32l-156 69v0l-156 -69v0q-24 -11 -38 -32t-14 -48q0 -16 6 -32l12 -29v0q14 -35 14 -74v-19v0z" />
</svg>
