<?xml version="1.0" standalone="no"?>
<!DOCTYPE svg PUBLIC "-//W3C//DTD SVG 1.1//EN" "http://www.w3.org/Graphics/SVG/1.1/DTD/svg11.dtd" >
<svg xmlns="http://www.w3.org/2000/svg" xmlns:xlink="http://www.w3.org/1999/xlink" version="1.1" viewBox="-10 -40 596 512">
   <path fill="currentColor"
d="M96 9q-34 1 -57 23v0v0q-22 23 -23 57v256v0q1 34 23 57q23 22 57 23h384v0q34 -1 57 -23q22 -23 23 -57v-256v0q-1 -34 -23 -57q-23 -22 -57 -23h-384v0zM0 89q1 -41 28 -68v0v0q27 -27 68 -28h384v0q41 1 68 28t28 68v256v0q-1 41 -28 68t-68 28h-384v0q-41 -1 -68 -28
t-28 -68v-256v0zM168 181q0 -19 -13 -31v0v0q-12 -13 -31 -13t-31 13q-13 12 -13 31v44v0h88v0v-44v0zM80 241v44v-44v44q0 19 13 31q12 13 31 13t31 -13q13 -12 13 -31v-44v0h-88v0zM172 320q-17 24 -48 25q-25 -1 -42 -18t-18 -42v-52v0v-52v0q1 -25 18 -42t42 -18
q28 1 45 20q5 -22 22 -37t41 -15q38 2 56 33q18 -31 56 -33q24 0 41 15t22 37q17 -19 45 -20q25 1 42 18t18 42v52v0v52v0q-1 25 -18 42t-42 18q-31 -1 -48 -25q-8 19 -24 30q-15 11 -36 11q-38 -2 -56 -33q-18 31 -56 33q-21 0 -36 -11q-16 -11 -24 -30v0zM232 105
q-20 1 -34 14v0v0q-13 14 -14 34v28v0v44v0h96v0v-72v0q-1 -20 -14 -34q-14 -13 -34 -14v0zM184 285v12v-12v12q1 20 14 34q14 13 34 14q20 -1 34 -14q13 -14 14 -34v-56v0h-96v0v44v0zM408 225h88h-88h88v-44v0q0 -19 -13 -31q-12 -13 -31 -13t-31 13q-13 12 -13 31v44v0z
M408 285q0 19 13 31v0v0q12 13 31 13t31 -13q13 -12 13 -31v-44v0h-88v0v44v0zM344 345q20 -1 34 -14v0v0q13 -14 14 -34v-12v0v-44v0h-96v0v56v0q1 20 14 34q14 13 34 14v0zM392 225v-44v44v-44v-28v0q-1 -20 -14 -34q-14 -13 -34 -14q-20 1 -34 14q-13 14 -14 34v72v0h96
v0z" />
</svg>
