<?xml version="1.0" standalone="no"?>
<!DOCTYPE svg PUBLIC "-//W3C//DTD SVG 1.1//EN" "http://www.w3.org/Graphics/SVG/1.1/DTD/svg11.dtd" >
<svg xmlns="http://www.w3.org/2000/svg" xmlns:xlink="http://www.w3.org/1999/xlink" version="1.1" viewBox="-10 -40 532 512">
   <path fill="currentColor"
d="M233 -23h46h-46h46q11 1 15 11l48 133v0h-172v0l48 -133v0q4 -10 15 -11v0zM348 137l51 144l-51 -144l51 144h-286v0l52 -144v0h183v0zM405 297l43 123l-43 -123l43 123q4 6 11 5q6 -4 4 -11l-154 -432v0q-8 -20 -30 -21h-46v0q-22 1 -30 21l-154 432v0q-2 7 4 11
q7 1 11 -5l43 -123v0h298v0zM0 465q1 7 8 8h496v0q7 -1 8 -8q-1 -7 -8 -8h-496v0q-7 1 -8 8v0z" />
</svg>
