<?xml version="1.0" standalone="no"?>
<!DOCTYPE svg PUBLIC "-//W3C//DTD SVG 1.1//EN" "http://www.w3.org/Graphics/SVG/1.1/DTD/svg11.dtd" >
<svg xmlns="http://www.w3.org/2000/svg" xmlns:xlink="http://www.w3.org/1999/xlink" version="1.1" viewBox="-10 -40 660 512">
   <path fill="currentColor"
d="M544 -23h-448h448h-448q-20 1 -34 14q-13 14 -14 34v173v0q-9 5 -16 11v-184v0q1 -27 19 -45t45 -19h448v0q27 1 45 19t19 45v184v0q-7 -6 -16 -11v-173v0q-1 -20 -14 -34q-14 -13 -34 -14v0zM96 329q27 -1 42 -24q12 -24 0 -48q-15 -23 -42 -24q-27 1 -42 24
q-12 24 0 48q15 23 42 24v0zM96 217q36 1 55 32q18 32 0 64q-19 31 -55 32q-36 -1 -55 -32q-18 -32 0 -64q19 -31 55 -32v0zM320 329q27 -1 42 -24q12 -24 0 -48q-15 -23 -42 -24q-27 1 -42 24q-12 24 0 48q15 23 42 24v0zM320 217q36 1 55 32q18 32 0 64q-19 31 -55 32
q-36 -1 -55 -32q-18 -32 0 -64q19 -31 55 -32v0zM592 281q-1 -27 -24 -42q-24 -12 -48 0q-23 15 -24 42q1 27 24 42q24 12 48 0q23 -15 24 -42v0zM480 281q1 -36 32 -55q32 -18 64 0q31 19 32 55q-1 36 -32 55q-32 18 -64 0q-31 -19 -32 -55v0zM16 449v16v-16v16q-1 7 -8 8
q-7 -1 -8 -8v-16v0q1 -31 21 -51t51 -21h48v0q31 1 51 21t21 51v16v0q-1 7 -8 8q-7 -1 -8 -8v-16v0q-1 -24 -16 -40q-16 -15 -40 -16h-48v0q-24 1 -40 16q-15 16 -16 40v0zM296 393q-24 1 -40 16v0v0q-15 16 -16 40v16v0q-1 7 -8 8q-7 -1 -8 -8v-16v0q1 -31 21 -51t51 -21
h48v0q31 1 51 21t21 51v16v0q-1 7 -8 8q-7 -1 -8 -8v-16v0q-1 -24 -16 -40q-16 -15 -40 -16h-48v0zM464 449v16v-16v16q-1 7 -8 8q-7 -1 -8 -8v-16v0q1 -31 21 -51t51 -21h48v0q31 1 51 21t21 51v16v0q-1 7 -8 8q-7 -1 -8 -8v-16v0q-1 -24 -16 -40q-16 -15 -40 -16h-48v0
q-24 1 -40 16q-15 16 -16 40v0z" />
</svg>
