<?xml version="1.0" standalone="no"?>
<!DOCTYPE svg PUBLIC "-//W3C//DTD SVG 1.1//EN" "http://www.w3.org/Graphics/SVG/1.1/DTD/svg11.dtd" >
<svg xmlns="http://www.w3.org/2000/svg" xmlns:xlink="http://www.w3.org/1999/xlink" version="1.1" viewBox="-10 -40 532 512">
   <path fill="currentColor"
d="M332 -27q-36 -12 -76 -12q-72 1 -129 35q-58 34 -92 92q-34 57 -35 129q1 72 35 129q34 58 92 92q57 34 129 35q72 -1 129 -35q58 -34 92 -92q34 -57 35 -129q0 -40 -11 -76l-13 13v0q8 30 8 63q-1 67 -33 121t-86 86t-121 33q-67 -1 -121 -33t-86 -86t-33 -121
q1 -67 33 -121t86 -86t121 -33q33 0 63 8l13 -12v0zM422 191q-6 0 -13 -1l-3 -1v0q2 14 2 28q-2 65 -44 108q-43 42 -108 44q-64 -2 -107 -44q-43 -43 -45 -108q2 -64 45 -107t107 -45q14 0 28 3l-1 -4v0q-1 -6 -1 -13q-12 -2 -26 -2q-71 2 -119 49q-47 48 -49 119
q2 71 49 119q48 47 119 49q71 -2 119 -49q47 -48 49 -119q0 -13 -2 -26v0zM256 145q-31 1 -51 21v0v0q-20 20 -21 51q1 31 21 51t51 21q31 -1 51 -21t21 -51q0 -7 -1 -14l-15 15v0q-1 23 -17 39q-15 15 -39 16q-24 -1 -40 -16q-15 -16 -16 -40q1 -24 16 -39q16 -16 39 -17
l15 -15v0q-7 -1 -14 -1v0zM407 55l-66 65l66 -65l-66 65l-10 -64v0q-2 -12 6 -21l51 -51v0l19 71v0zM339 146l76 12l-76 -12l76 12q20 3 34 -11l51 -51v0q6 -7 4 -15t-11 -11l-70 -19v0l-20 -71v0q-3 -9 -11 -11t-15 4l-51 51v0q-14 14 -11 35l12 75v0l-77 77v0q-4 6 0 12
q6 4 12 0l77 -77v0zM353 132l65 -66l-65 66l65 -66l71 19v0l-51 51v0q-9 8 -21 6l-64 -10v0z" />
</svg>
