<?xml version="1.0" standalone="no"?>
<!DOCTYPE svg PUBLIC "-//W3C//DTD SVG 1.1//EN" "http://www.w3.org/Graphics/SVG/1.1/DTD/svg11.dtd" >
<svg xmlns="http://www.w3.org/2000/svg" xmlns:xlink="http://www.w3.org/1999/xlink" version="1.1" viewBox="-10 -40 660 512">
   <path fill="currentColor"
d="M80 -31v56v-56v56h80v0v-56v0q1 -7 8 -8q7 1 8 8v56v0h48v0v16v0h-48h-120q-17 0 -28 12q-12 11 -12 28v336v0q0 17 12 28q11 12 28 12h181v0q5 9 11 16h-192v0q-24 -1 -40 -16q-15 -16 -16 -40v-336v0q1 -24 16 -40q16 -15 40 -16h8v0v-56v0q1 -7 8 -8q7 1 8 8v0z
M480 137q-15 -1 -16 -16v-96v0q-1 -20 -14 -34q-14 -13 -34 -14h-96v0q-20 1 -34 14q-13 14 -14 34v160v0v224v0q1 20 14 34q14 13 34 14h96h160q20 -1 34 -14q13 -14 14 -34v-224v0q-1 -20 -14 -34q-14 -13 -34 -14h-96v0zM480 25v80v-80v80v16v0h16h80q27 1 45 19t19 45
v224v0q-1 27 -19 45t-45 19h-160h-96q-27 -1 -45 -19t-19 -45v-224v0v-160v0q1 -27 19 -45t45 -19h96v0q27 1 45 19t19 45v0zM328 345v-32v32v-32q2 -22 24 -24h32v0q22 2 24 24v32v0q-2 22 -24 24h-32v0q-22 -2 -24 -24v0zM352 353h32h-32h32q7 -1 8 -8v-32v0q-1 -7 -8 -8
h-32v0q-7 1 -8 8v32v0q1 7 8 8v0zM352 33h32h-32h32q22 2 24 24v32v0q-2 22 -24 24h-32v0q-22 -2 -24 -24v-32v0q2 -22 24 -24v0zM344 57v32v-32v32q1 7 8 8h32v0q7 -1 8 -8v-32v0q-1 -7 -8 -8h-32v0q-7 1 -8 8v0zM328 217v-32v32v-32q2 -22 24 -24h32v0q22 2 24 24v32v0
q-2 22 -24 24h-32v0q-22 -2 -24 -24v0zM352 225h32h-32h32q7 -1 8 -8v-32v0q-1 -7 -8 -8h-32v0q-7 1 -8 8v32v0q1 7 8 8v0zM512 401q-22 -2 -24 -24v-32v0q2 -22 24 -24h32v0q22 2 24 24v32v0q-2 22 -24 24h-32v0zM504 377q1 7 8 8h32v0q7 -1 8 -8v-32v0q-1 -7 -8 -8h-32v0
q-7 1 -8 8v32v0zM488 249v-32v32v-32q2 -22 24 -24h32v0q22 2 24 24v32v0q-2 22 -24 24h-32v0q-22 -2 -24 -24v0zM512 257h32h-32h32q7 -1 8 -8v-32v0q-1 -7 -8 -8h-32v0q-7 1 -8 8v32v0q1 7 8 8v0zM96 305q-22 -2 -24 -24v-32v0q2 -22 24 -24h32v0q22 2 24 24v32v0
q-2 22 -24 24h-32v0zM88 281q1 7 8 8h32v0q7 -1 8 -8v-32v0q-1 -7 -8 -8h-32v0q-7 1 -8 8v32v0zM72 153v-32v32v-32q2 -22 24 -24h32v0q22 2 24 24v32v0q-2 22 -24 24h-32v0q-22 -2 -24 -24v0zM96 161h32h-32h32q7 -1 8 -8v-32v0q-1 -7 -8 -8h-32v0q-7 1 -8 8v32v0q1 7 8 8
v0z" />
</svg>
