<?xml version="1.0" standalone="no"?>
<!DOCTYPE svg PUBLIC "-//W3C//DTD SVG 1.1//EN" "http://www.w3.org/Graphics/SVG/1.1/DTD/svg11.dtd" >
<svg xmlns="http://www.w3.org/2000/svg" xmlns:xlink="http://www.w3.org/1999/xlink" version="1.1" viewBox="-10 -40 532 512">
   <path fill="currentColor"
d="M157 376q-8 -3 -15 2q-17 13 -51 29q-35 17 -75 18v0v0v0v0v0v0v0v0h1v0q0 -1 1 -2q2 -2 5 -6l-12 -10v0l12 10v0q8 -9 17 -24q18 -28 24 -70q0 -7 -4 -12q-43 -48 -44 -110q2 -80 69 -135t171 -57q104 2 171 57t69 135q-2 80 -69 135t-171 57q-53 0 -99 -17v0zM5 414v0
v0v0v0v0v0v0q-7 7 -4 17q5 10 15 10q44 -2 82 -19q35 -17 54 -31q48 18 104 18q72 -1 129 -28q58 -28 92 -75t35 -105q-1 -58 -35 -105t-92 -75q-57 -27 -129 -28q-72 1 -129 28q-58 28 -92 75t-35 105q1 69 48 121q-5 37 -22 63q-8 14 -15 21q-3 4 -5 6q0 1 -1 1v1v0v0v0v0
zM264 105q-1 -7 -8 -8q-7 1 -8 8v16v0q-13 1 -23 6q-20 9 -24 29q-2 12 2 22q5 9 13 14q16 10 36 15v0l2 1v0q21 5 33 13q5 4 8 9q2 5 1 14q-2 12 -15 17q-14 6 -36 3q-12 -3 -27 -8h-2v0v0v0v0v0v0q-1 -1 -2 -1q-2 -1 -3 -1q-7 -2 -10 5q-2 7 5 10h2q1 1 3 2v0v0v0v0v0
q17 6 32 9v0v0q2 0 5 1v0v16v0q1 7 8 8q8 -1 8 -8v-16v0q13 -1 23 -5q20 -8 24 -30q3 -13 -2 -22q-4 -10 -13 -16q-17 -11 -37 -16h-1v0v0v0q-20 -5 -32 -13q-6 -4 -8 -8q-3 -4 -1 -12q1 -11 15 -17q14 -7 35 -4q4 1 12 2q7 2 11 3q7 1 10 -6q1 -7 -6 -10q-4 -1 -12 -2
l-12 -3h-5h-1v-17v0z" />
</svg>
