<?xml version="1.0" standalone="no"?>
<!DOCTYPE svg PUBLIC "-//W3C//DTD SVG 1.1//EN" "http://www.w3.org/Graphics/SVG/1.1/DTD/svg11.dtd" >
<svg xmlns="http://www.w3.org/2000/svg" xmlns:xlink="http://www.w3.org/1999/xlink" version="1.1" viewBox="-10 -40 660 512">
   <path fill="currentColor"
d="M193 268l-81 61l81 -61l-81 61v-48v0q-1 -15 -16 -16h-32v0q-20 -1 -34 -14q-13 -14 -14 -34v-192v0q1 -20 14 -34q14 -13 34 -14h288v0q20 1 34 14q13 14 14 34v192v0q-1 20 -14 34q-14 13 -34 14h-149v0q-6 0 -10 3v0zM203 281h149h-149h149q27 -1 45 -19t19 -45v-192
v0q-1 -27 -19 -45t-45 -19h-288v0q-27 1 -45 19t-19 45v192v0q1 27 19 45t45 19h16h16v16v0v32v0q0 10 9 14t17 -1l81 -61v0zM256 345q1 27 19 45v0v0q18 18 45 19h117v0l81 61v0q8 5 17 1t9 -14v-32v0v-16v0h16h16q27 -1 45 -19t19 -45v-192v0q-1 -27 -19 -45t-45 -19h-128
v0v16v0h128v0q20 1 34 14q13 14 14 34v192v0q-1 20 -14 34q-14 13 -34 14h-32v0q-15 1 -16 16v48v0l-81 -61v0q-4 -3 -10 -3h-117v0q-20 -1 -34 -14q-13 -14 -14 -34v-32v0h-16v0v32v0zM215 46q-1 -6 -7 -7q-6 1 -7 7v12v0q-10 1 -18 5q-16 6 -20 23q-2 10 2 17q4 8 11 12
q13 8 29 12h1v0q17 4 26 10q5 3 6 7q2 3 1 10q-2 9 -12 13q-10 5 -28 2q-10 -2 -22 -6h-1v0v0v0v0v0v0q-1 -1 -2 -1q-1 -1 -2 -1q-6 -1 -9 5q-2 6 4 9h2q1 1 2 1v0v0v0v0v0v0q14 5 26 7v0v0v0q2 1 4 1v12v0q0 6 7 7q6 -1 7 -7v-12v0q10 -1 18 -4q16 -6 20 -24q2 -10 -2 -18
t-11 -12q-13 -9 -29 -13h-1v0v0v0q-17 -4 -26 -10q-5 -3 -6 -6q-2 -3 -1 -9q1 -7 12 -12q10 -5 28 -3q3 1 9 2t9 2q6 1 9 -5q1 -7 -6 -9q-3 -1 -10 -2q-6 -1 -9 -2h-1h-3v-13v0z" />
</svg>
