<?xml version="1.0" standalone="no"?>
<!DOCTYPE svg PUBLIC "-//W3C//DTD SVG 1.1//EN" "http://www.w3.org/Graphics/SVG/1.1/DTD/svg11.dtd" >
<svg xmlns="http://www.w3.org/2000/svg" xmlns:xlink="http://www.w3.org/1999/xlink" version="1.1" viewBox="-10 -40 660 512">
   <path fill="currentColor"
d="M208 -23q-83 2 -137 48v0v0q-53 46 -55 112q2 55 39 97q3 3 1 8q-12 33 -40 55v0v0q44 -2 83 -24q4 -2 8 0q48 24 101 24q83 -2 137 -48q53 -46 55 -112q-2 -66 -55 -112q-54 -46 -137 -48v0zM0 137q2 -75 61 -124v0v0q59 -50 147 -52q88 2 147 52q59 49 61 124
q-2 75 -61 124q-59 50 -147 52q-55 0 -105 -24q-40 22 -87 24q-11 -1 -15 -11q-3 -11 6 -18q22 -17 33 -44q-38 -44 -40 -103v0zM448 137q0 -8 -1 -15q83 6 137 55t56 120q-2 59 -40 103q11 27 34 44q8 7 5 18q-4 10 -15 11q-47 -2 -87 -24q-50 24 -105 24q-73 -1 -127 -37
q-54 -35 -73 -92l16 -2q18 50 67 82t117 33q53 0 101 -24q4 -2 8 0q39 22 83 24v0v0q-28 -22 -40 -55q-2 -5 1 -8q37 -42 39 -97q-2 -63 -50 -108q-49 -45 -126 -51v-1v0zM215 52v15v-15v15h3h2q4 1 11 2q7 2 11 3q6 2 5 8q-2 6 -8 5q-4 -1 -11 -2q-6 -1 -10 -2
q-20 -2 -32 3q-12 6 -14 15q-1 7 1 11t7 8q11 6 30 11v0v0v0q19 5 34 14q7 5 12 14q4 9 2 20q-5 19 -23 27q-9 3 -20 4v14v0q-1 7 -7 7q-7 0 -7 -7v-14v0q-2 -1 -3 -1h-2v0v0q-13 -3 -27 -8h-2v0v0q-3 -1 -5 -2q-6 -2 -4 -9q3 -6 9 -4q1 0 3 1h2v0v0v0v0v0v0v0v0l1 1
q14 5 25 7q20 3 32 -2t14 -16q1 -8 -1 -12q-2 -5 -7 -8q-11 -7 -30 -12l-1 -1v0h-1q-18 -4 -32 -12q-7 -5 -11 -14q-5 -8 -3 -19q4 -18 22 -26q9 -4 21 -5v-14v0q0 -7 7 -7q6 0 7 7v0z" />
</svg>
