<?xml version="1.0" standalone="no"?>
<!DOCTYPE svg PUBLIC "-//W3C//DTD SVG 1.1//EN" "http://www.w3.org/Graphics/SVG/1.1/DTD/svg11.dtd" >
<svg xmlns="http://www.w3.org/2000/svg" xmlns:xlink="http://www.w3.org/1999/xlink" version="1.1" viewBox="-10 -40 532 512">
   <path fill="currentColor"
d="M256 -23q17 0 28 12v0v0q12 11 12 28v40v0v112v0v8v0q1 7 8 8q7 -1 8 -8v-8v0v-112v0q0 -17 12 -28q11 -12 28 -12t28 12q12 11 12 28v184v0q1 7 8 8h64v0q14 0 23 9t9 23q0 13 -9 22l-100 100v0q-55 53 -131 54q-76 -1 -131 -54l-100 -100v0q-9 -9 -9 -22q0 -14 9 -23
t23 -9h64v0q7 -1 8 -8v-184v0q0 -17 12 -28q11 -12 28 -12t28 12q12 11 12 28v112v0v8v0q1 7 8 8q7 -1 8 -8v-8v0v-112v0v-40v0q0 -17 12 -28q11 -12 28 -12v0zM200 17v1v-1v1q-16 -16 -40 -17q-24 1 -40 16q-15 16 -16 40v176v0h-56v0q-21 1 -34 14t-14 34q0 19 14 33
l100 100v0q59 58 142 59q83 -1 142 -59l100 -100v0q14 -14 14 -33q-1 -21 -14 -34t-34 -14h-56v0v-176v0q-1 -24 -16 -40q-16 -15 -40 -16q-24 1 -40 17v-1v0q-1 -24 -16 -40q-16 -15 -40 -16q-24 1 -40 16q-15 16 -16 40v0zM171 305q11 -13 35 -30t50 -18q26 1 50 18t35 30
q3 3 3 8t-3 8q-11 13 -35 30t-50 18q-26 -1 -50 -18t-35 -30q-3 -3 -3 -8t3 -8v0zM256 241q-33 2 -59 21t-37 32q-8 8 -8 19t8 19q11 13 37 32t59 21q33 -2 59 -21t37 -32q8 -8 8 -19t-8 -19q-11 -13 -37 -32t-59 -21v0zM240 313q1 -15 16 -16q15 1 16 16q-1 15 -16 16
q-15 -1 -16 -16v0zM288 313q0 -14 -9 -23v0v0q-9 -9 -23 -9t-23 9t-9 23t9 23t23 9t23 -9t9 -23v0z" />
</svg>
