<?xml version="1.0" standalone="no"?>
<!DOCTYPE svg PUBLIC "-//W3C//DTD SVG 1.1//EN" "http://www.w3.org/Graphics/SVG/1.1/DTD/svg11.dtd" >
<svg xmlns="http://www.w3.org/2000/svg" xmlns:xlink="http://www.w3.org/1999/xlink" version="1.1" viewBox="-10 -40 586 512">
   <path fill="currentColor"
d="M288 -39q7 1 8 8v301v0l43 -43v0q6 -5 11 0t0 11l-43 43v0h61v0q7 1 8 8q-1 7 -8 8h-61v0l43 43v0q5 6 0 11t-11 0l-43 -43v0v85v0q45 -4 74 -36q29 -31 30 -76q-2 -58 -46 -91q-4 -2 -4 -7q1 -4 5 -6q35 -19 56 -52q20 -34 21 -76q0 -41 -20 -73q-3 -5 1 -10q5 -4 10 -1
q62 36 99 98q37 61 38 138q-1 76 -37 137q-36 62 -98 98q-61 36 -137 37q-76 -1 -137 -37q-62 -36 -98 -98q-36 -61 -37 -137q1 -77 38 -139q37 -61 99 -97q5 -3 10 1q4 4 1 10q-20 32 -20 73q1 42 21 76q21 33 56 52q4 2 5 6q0 5 -4 7q-44 33 -46 91q1 45 30 77
q29 31 74 35v-85v0l-43 43v0q-6 5 -11 0t0 -11l43 -43v0h-61v0q-7 -1 -8 -8q1 -7 8 -8h61v0l-43 -43v0q-5 -6 0 -11t11 0l43 43v0v-301v0q1 -7 8 -8v0zM160 281q2 -59 44 -96q-35 -22 -55 -57q-21 -36 -21 -79q0 -29 10 -55q-56 41 -85 105h1v0l80 80v0q4 6 0 12q-6 4 -12 0
l-75 -76v0q-10 29 -14 60l5 4v0l64 64v0q4 6 0 12q-6 4 -12 0l-58 -59v0v3v2q1 72 35 129q34 58 92 92q57 34 129 35q72 -1 129 -35q58 -34 92 -92q34 -57 35 -129v-2v-3l-58 59v0q-6 4 -12 0q-4 -6 0 -12l64 -64v0l5 -4v0q-3 -31 -14 -60l-75 76v0q-6 4 -12 0q-4 -6 0 -12
l80 -80v0h1v0q-29 -64 -85 -105q10 26 10 55q0 43 -21 79q-20 35 -54 57q41 37 43 96q-1 54 -37 91q-37 36 -91 37q-54 -1 -91 -37q-36 -37 -37 -91v0z" />
</svg>
