<?xml version="1.0" standalone="no"?>
<!DOCTYPE svg PUBLIC "-//W3C//DTD SVG 1.1//EN" "http://www.w3.org/Graphics/SVG/1.1/DTD/svg11.dtd" >
<svg xmlns="http://www.w3.org/2000/svg" xmlns:xlink="http://www.w3.org/1999/xlink" version="1.1" viewBox="-10 -40 660 512">
   <path fill="currentColor"
d="M432 -23q14 0 23 9v0v0q9 9 9 23v32v0h16v0v-32v0q-1 -20 -14 -34q-14 -13 -34 -14h-320v0q-20 1 -34 14q-13 14 -14 34v144v0h16v0v-144v0q0 -14 9 -23t23 -9h320v0zM240 89h352h-352h352q14 0 23 9t9 23v208v0q0 14 -9 23t-23 9h-176v0v16v0h176v0q20 -1 34 -14
q13 -14 14 -34v-208v0q-1 -20 -14 -34q-14 -13 -34 -14h-352v0q-20 1 -34 14q-13 14 -14 34v32v0h16v0v-32v0q0 -14 9 -23t23 -9v0zM16 233q0 -14 9 -23v0v0q9 -9 23 -9h288v0q14 0 23 9t9 23v19v0l-5 4v0l-161 119v0q-5 3 -10 4q-5 -1 -10 -4l-161 -119v0l-5 -4v0v-19v0z
M211 388l157 -116l-157 116l157 -116v153v0q0 14 -9 23t-23 9h-288v0q-14 0 -23 -9t-9 -23v-153v0l157 116v0q8 6 19 6t19 -6v0zM0 233v192v-192v192q1 20 14 34q14 13 34 14h288v0q20 -1 34 -14q13 -14 14 -34v-192v0q-1 -20 -14 -34q-14 -13 -34 -14h-288v0q-20 1 -34 14
q-13 14 -14 34v0zM528 137q-22 2 -24 24v32v0q2 22 24 24h32v0q22 -2 24 -24v-32v0q-2 -22 -24 -24h-32v0zM520 161q1 -7 8 -8h32v0q7 1 8 8v32v0q-1 7 -8 8h-32v0q-7 -1 -8 -8v-32v0z" />
</svg>
