<?xml version="1.0" standalone="no"?>
<!DOCTYPE svg PUBLIC "-//W3C//DTD SVG 1.1//EN" "http://www.w3.org/Graphics/SVG/1.1/DTD/svg11.dtd" >
<svg xmlns="http://www.w3.org/2000/svg" xmlns:xlink="http://www.w3.org/1999/xlink" version="1.1" viewBox="-10 -40 660 512">
   <path fill="currentColor"
d="M17 17q-1 3 -1 7v1v0q1 15 16 16q15 -1 16 -16v-1v0q0 -4 -1 -7l-15 -34v0l-15 34v0zM3 11l18 -43l-18 43l18 -43q3 -7 11 -7t11 7l18 43v0q3 6 3 13v1v0q0 14 -9 23t-23 9t-23 -9t-9 -23v-1v0q0 -7 3 -13v0zM32 89q7 1 8 8v176v0q1 24 16 40q16 15 40 16h24v0v-232v0
q1 -7 8 -8q7 1 8 8v232v0h80v0v-232v0q1 -7 8 -8q7 1 8 8v232v0h80v0v-232v0q1 -7 8 -8q7 1 8 8v232v0h80v0v-232v0q1 -7 8 -8q7 1 8 8v232v0h80v0v-232v0q1 -7 8 -8q7 1 8 8v232v0h24v0q24 -1 40 -16q15 -16 16 -40v-176v0q1 -7 8 -8q7 1 8 8v176v0q-1 31 -21 51t-51 21
h-216v0v112v0h176v0q7 1 8 8q-1 7 -8 8h-184h-184q-7 -1 -8 -8q1 -7 8 -8h176v0v-112v0h-216v0q-31 -1 -51 -21t-21 -51v-176v0q1 -7 8 -8v0zM128 -17l-15 34l15 -34l-15 34q-1 3 -1 7v1v0q1 15 16 16q15 -1 16 -16v-1v0q0 -4 -1 -7l-15 -34v0zM117 -32q3 -7 11 -7t11 7
l18 43v0q3 6 3 13v1v0q0 14 -9 23t-23 9t-23 -9t-9 -23v-1v0q0 -7 3 -13l18 -43v0zM209 17q-1 3 -1 7v1v0q1 15 16 16q15 -1 16 -16v-1v0q0 -4 -1 -7l-15 -34v0l-15 34v0zM195 11l18 -43l-18 43l18 -43q3 -7 11 -7t11 7l18 43v0q3 6 3 13v1v0q0 14 -9 23t-23 9t-23 -9
t-9 -23v-1v0q0 -7 3 -13v0zM320 -17l-15 34l15 -34l-15 34q-1 3 -1 7v1v0q1 15 16 16q15 -1 16 -16v-1v0q0 -4 -1 -7l-15 -34v0zM309 -32q3 -7 11 -7t11 7l18 43v0q3 6 3 13v1v0q0 14 -9 23t-23 9t-23 -9t-9 -23v-1v0q0 -7 3 -13l18 -43v0zM401 17q-1 3 -1 7v1v0q1 15 16 16
q15 -1 16 -16v-1v0q0 -4 -1 -7l-15 -34v0l-15 34v0zM387 11l18 -43l-18 43l18 -43q3 -7 11 -7t11 7l18 43v0q3 6 3 13v1v0q0 14 -9 23t-23 9t-23 -9t-9 -23v-1v0q0 -7 3 -13v0zM512 -17l-15 34l15 -34l-15 34q-1 3 -1 7v1v0q1 15 16 16q15 -1 16 -16v-1v0q0 -4 -1 -7
l-15 -34v0zM501 -32q3 -7 11 -7t11 7l18 43v0q3 6 3 13v1v0q0 14 -9 23t-23 9t-23 -9t-9 -23v-1v0q0 -7 3 -13l18 -43v0zM593 17q-1 3 -1 7v1v0q1 15 16 16q15 -1 16 -16v-1v0q0 -4 -1 -7l-15 -34v0l-15 34v0zM579 11l18 -43l-18 43l18 -43q3 -7 11 -7t11 7l18 43v0
q3 6 3 13v1v0q0 14 -9 23t-23 9t-23 -9t-9 -23v-1v0q0 -7 3 -13v0z" />
</svg>
