<?xml version="1.0" standalone="no"?>
<!DOCTYPE svg PUBLIC "-//W3C//DTD SVG 1.1//EN" "http://www.w3.org/Graphics/SVG/1.1/DTD/svg11.dtd" >
<svg xmlns="http://www.w3.org/2000/svg" xmlns:xlink="http://www.w3.org/1999/xlink" version="1.1" viewBox="-10 -40 660 512">
   <path fill="currentColor"
d="M200 -39q-23 0 -40 14v0v0q-16 13 -22 34q-25 3 -41 21q-16 17 -17 43q0 10 3 19q-23 7 -37 26q-14 18 -14 43q0 19 9 34q-39 23 -41 70q0 25 14 45q13 20 35 29q-1 7 -1 14q1 31 21 51t51 21q5 0 11 -1q6 22 24 35q17 14 41 14q41 -2 60 -36q19 34 60 36q11 0 20 -3
q-5 -6 -10 -14q-5 1 -10 1q-21 0 -36 -14q-14 -14 -16 -34v-1v0v-3v0v-380v0q1 -20 14 -34q14 -13 34 -14q19 0 32 12q13 11 16 29q1 7 8 7v0v0q20 1 34 14q13 14 14 34q0 12 -5 21q-2 4 0 8q2 3 6 4q20 3 33 19q13 15 14 36q0 19 -11 33q-2 3 -1 7t5 5q13 6 23 17v-6v0
q0 -8 2 -14q-5 -4 -11 -8q9 -15 9 -34q-1 -25 -14 -43q-14 -19 -37 -26q3 -9 3 -19q-1 -25 -17 -43t-41 -21q-6 -21 -22 -34q-17 -14 -40 -14q-38 2 -56 33q-18 -31 -56 -33v0zM248 25v380v-380v380v3v0v0v1q-2 20 -16 34q-15 14 -36 14q-20 0 -34 -12q-14 -13 -17 -31
q-1 -4 -4 -6t-6 -1q-7 2 -15 2q-24 -1 -40 -16q-15 -16 -16 -40q0 -9 3 -17q0 -3 -1 -6q-2 -3 -5 -4q-20 -6 -32 -23q-13 -16 -13 -38q0 -20 11 -36t28 -23q4 -2 5 -5q1 -4 -1 -7q-11 -14 -11 -33q0 -21 14 -36q13 -16 33 -19q4 -1 6 -4q2 -4 0 -8q-5 -9 -5 -21
q0 -20 14 -34q14 -13 34 -14v0v0q7 0 8 -7q3 -18 16 -29q13 -12 32 -12q20 1 34 14q13 14 14 34v0zM528 361q-1 -15 -16 -16h-48v0q-34 1 -57 23q-22 23 -23 57v27v0q-10 -9 -21 -28q-10 -18 -11 -47q1 -41 28 -68t68 -28h64v0q15 -1 16 -16v-48v0l96 96v0l-96 96v0v-48v0z
M512 217v32v-32v32v16v0h-16h-48q-48 1 -79 33q-32 31 -33 79q2 41 19 64q16 24 26 30q3 2 7 2q11 -1 12 -12v-36v0q1 -27 19 -45t45 -19h32h16v16v0v32v0q0 10 10 15q10 3 17 -4l96 -96v0q10 -11 0 -22l-96 -96v0q-7 -7 -17 -4q-9 5 -10 15v0z" />
</svg>
