<?xml version="1.0" standalone="no"?>
<!DOCTYPE svg PUBLIC "-//W3C//DTD SVG 1.1//EN" "http://www.w3.org/Graphics/SVG/1.1/DTD/svg11.dtd" >
<svg xmlns="http://www.w3.org/2000/svg" xmlns:xlink="http://www.w3.org/1999/xlink" version="1.1" viewBox="-10 -40 660 512">
   <path fill="currentColor"
d="M400 -39q4 0 6 3q30 38 73 66q26 18 55 35q1 0 2 1q5 3 9 5l28 18q42 28 43 79q0 30 -16 54q-5 5 -11 2q-6 -5 -3 -11q14 -20 14 -45q-1 -43 -35 -66l-34 -20l-2 -2q-31 -18 -59 -37q-40 -26 -70 -61q-30 35 -70 61q-28 19 -59 37v0v0v0v0v0v0q-1 1 -2 1q-17 10 -34 21
q-34 23 -35 66q0 25 14 45q3 6 -3 11q-6 3 -11 -3q-16 -23 -16 -53q1 -51 43 -79q18 -12 37 -23v0v0q1 -1 2 -1q29 -17 55 -35q43 -28 73 -66q2 -3 6 -3v0zM640 305v112v-112v112q-1 24 -16 40q-16 15 -40 16h-8h-360q-24 -1 -40 -16q-15 -16 -16 -40v-112v0q1 -24 16 -40
q16 -15 40 -16h368v0q24 1 40 16q15 16 16 40v0zM464 457h48h-48h48v-80v0q0 -14 9 -23t23 -9t23 9t9 23v80v0h8v0q17 0 28 -12q12 -11 12 -28v-112v0q0 -17 -12 -28q-11 -12 -28 -12h-368v0q-17 0 -28 12q-12 11 -12 28v112v0q0 17 12 28q11 12 28 12h8v0v-80v0
q0 -14 9 -23t23 -9t23 9t9 23v80v0h48v0v-80v0q1 -32 26 -51l38 -29v0l38 29v0q25 19 26 51v80v0zM448 377q-1 -24 -19 -38l-29 -22v0l-29 22v0q-18 14 -19 38v80v0h96v0v-80v0zM544 361q-15 1 -16 16v80v0h32v0v-80v0q-1 -15 -16 -16v0zM272 377q-1 -15 -16 -16
q-15 1 -16 16v80v0h32v0v-80v0zM74 -36q4 -2 9 0l18 13v0q27 18 42 46t15 60v158v0q-1 7 -8 8q-7 -1 -8 -8v-120v0h-126v0v16v0v280v0q0 17 12 28q11 12 28 12h64v0q7 1 8 8q-1 7 -8 8h-64v0q-24 -1 -40 -16q-15 -16 -16 -40v-280v0v-55v0q0 -32 15 -59q14 -28 41 -46
l18 -13v0zM16 105h126h-126h126v-22v0q0 -28 -13 -53q-13 -24 -37 -40l-14 -9v0l-13 9v0q-48 34 -49 92v23v0z" />
</svg>
