<?xml version="1.0" standalone="no"?>
<!DOCTYPE svg PUBLIC "-//W3C//DTD SVG 1.1//EN" "http://www.w3.org/Graphics/SVG/1.1/DTD/svg11.dtd" >
<svg xmlns="http://www.w3.org/2000/svg" xmlns:xlink="http://www.w3.org/1999/xlink" version="1.1" viewBox="-10 -40 468 512">
   <path fill="currentColor"
d="M8 25q-7 1 -8 8q1 7 8 8h120v0v179v0q-1 98 -61 175l-1 1v0q-4 6 1 11q6 4 11 -1l1 -1v0q64 -82 65 -185v-179v0h160v0v311v0q1 24 17 40t40 17q35 -1 52 -32l2 -4v0q3 -7 -4 -11q-6 -3 -10 3l-3 5v0q-12 22 -37 23q-17 0 -29 -12t-12 -29v-311v0h120v0q7 -1 8 -8
q-1 -7 -8 -8h-432v0z" />
</svg>
