<?xml version="1.0" standalone="no"?>
<!DOCTYPE svg PUBLIC "-//W3C//DTD SVG 1.1//EN" "http://www.w3.org/Graphics/SVG/1.1/DTD/svg11.dtd" >
<svg xmlns="http://www.w3.org/2000/svg" xmlns:xlink="http://www.w3.org/1999/xlink" version="1.1" viewBox="-10 -40 468 512">
   <path fill="currentColor"
d="M392 -39q24 1 40 16v0v0q15 16 16 40v400v0q-1 24 -16 40q-16 15 -40 16h-384v0q-7 -1 -8 -8q1 -7 8 -8h24v0v-81v0q-30 -8 -32 -39v-336v0q0 -17 12 -28q11 -12 28 -12h352v0zM48 377v80v-80v80h344v0q17 0 28 -12q12 -11 12 -28t-12 -28q-11 -12 -28 -12h-344v0z
M392 361q24 1 40 17v-361v0q0 -17 -12 -28q-11 -12 -28 -12h-352v0q-22 2 -24 24v336v0q2 22 24 24h352v0zM275 124q4 -9 13 -9v0v0q9 0 13 9l7 17v0l19 2v0q9 1 12 9q3 9 -4 16l-14 12v0l4 18v0q2 9 -6 14q-7 6 -15 1l-16 -9v0l-16 9v0q-8 5 -16 -1q-7 -5 -5 -14l4 -18v0
l-14 -12v0q-7 -7 -4 -16q3 -8 12 -9l19 -2v0l7 -17v0zM288 134l-7 18l7 -18l-7 18q-2 4 -7 5l-19 1v0l14 13v0q4 3 3 8l-5 18v0l17 -10v0q4 -2 8 0l17 10v0l-5 -18v0q-1 -5 3 -8l15 -13v0l-20 -1v0q-5 -1 -6 -5l-8 -18v0zM120 169q1 51 35 85v0v0q34 34 85 35q37 -1 65 -19
q-48 8 -85 -22q-36 -29 -38 -79q2 -50 38 -79q37 -30 85 -22q-28 -18 -65 -19q-51 1 -85 35t-35 85v0zM240 33q41 1 74 22q10 9 6 19q-5 11 -18 10q-41 -7 -72 18t-32 67q1 42 32 67t72 18q14 -1 18 10q4 10 -6 19q-33 21 -74 22q-58 -1 -96 -40q-39 -38 -40 -96
q1 -58 40 -96q38 -39 96 -40v0z" />
</svg>
