<?xml version="1.0" standalone="no"?>
<!DOCTYPE svg PUBLIC "-//W3C//DTD SVG 1.1//EN" "http://www.w3.org/Graphics/SVG/1.1/DTD/svg11.dtd" >
<svg xmlns="http://www.w3.org/2000/svg" xmlns:xlink="http://www.w3.org/1999/xlink" version="1.1" viewBox="-10 -40 532 512">
   <path fill="currentColor"
d="M208 -23q52 0 96 26v0v0q44 25 70 70t26 96t-26 96t-70 70q-44 26 -96 26t-96 -26q-44 -25 -70 -70t-26 -96t26 -96t70 -70q44 -26 96 -26v0zM208 377q84 -2 141 -55l149 149v0q6 4 12 0q4 -6 0 -12l-149 -149v0q53 -57 55 -141q-2 -88 -61 -147t-147 -61q-88 2 -147 61
t-61 147q2 88 61 147t147 61v0zM216 73q-1 -7 -8 -8q-7 1 -8 8v16v0q-13 1 -23 6q-20 9 -24 29q-2 12 2 22q5 9 13 14q16 10 36 15v0l2 1v0q21 5 33 13q5 4 8 9q2 5 1 14q-2 12 -15 17q-14 6 -36 3q-12 -3 -27 -8h-2v0v0v0v0v0v0q-1 -1 -2 -1q-2 -1 -3 -1q-7 -2 -10 5
q-2 7 5 10h2q1 1 3 2v0v0v0v0v0q17 6 32 9v0v0q2 0 5 1v0v16v0q1 7 8 8q7 -1 8 -8v-16v0q13 -1 23 -5q20 -8 24 -30q3 -13 -2 -22q-4 -10 -13 -16q-17 -11 -37 -16h-1v0v0v0v0v0q-20 -5 -33 -13q-5 -4 -7 -8q-3 -4 -1 -12q1 -11 15 -17q14 -7 35 -4q4 1 12 2q7 2 11 3
q7 1 10 -6q1 -7 -6 -10q-4 -1 -12 -2q-8 -2 -12 -2q-3 -1 -5 -1h-1v-17v0z" />
</svg>
