<?xml version="1.0" standalone="no"?>
<!DOCTYPE svg PUBLIC "-//W3C//DTD SVG 1.1//EN" "http://www.w3.org/Graphics/SVG/1.1/DTD/svg11.dtd" >
<svg xmlns="http://www.w3.org/2000/svg" xmlns:xlink="http://www.w3.org/1999/xlink" version="1.1" viewBox="-10 -40 650 512">
   <path fill="currentColor"
d="M112 425q0 14 -9 23v0v0q-9 9 -23 9t-23 -9t-9 -23v-32v0q0 -14 9 -23t23 -9t23 9t9 23v32v0zM80 345q-20 1 -34 14v0v0q-13 14 -14 34v32v0q1 20 14 34q14 13 34 14q20 -1 34 -14q13 -14 14 -34v-32v0q-1 -20 -14 -34q-14 -13 -34 -14v0z" />
</svg>
