<?xml version="1.0" standalone="no"?>
<!DOCTYPE svg PUBLIC "-//W3C//DTD SVG 1.1//EN" "http://www.w3.org/Graphics/SVG/1.1/DTD/svg11.dtd" >
<svg xmlns="http://www.w3.org/2000/svg" xmlns:xlink="http://www.w3.org/1999/xlink" version="1.1" viewBox="-10 -40 650 512">
   <path fill="currentColor"
d="M240 233q-14 0 -23 9v0v0q-9 9 -9 23v160v0q0 14 9 23t23 9t23 -9t9 -23v-160v0q0 -14 -9 -23t-23 -9v0zM192 265q1 -20 14 -34v0v0q14 -13 34 -14q20 1 34 14q13 14 14 34v160v0q-1 20 -14 34q-14 13 -34 14q-20 -1 -34 -14q-13 -14 -14 -34v-160v0zM112 393
q0 -14 -9 -23v0v0q-9 -9 -23 -9t-23 9t-9 23v32v0q0 14 9 23t23 9t23 -9t9 -23v-32v0zM32 393q1 -20 14 -34v0v0q14 -13 34 -14q20 1 34 14q13 14 14 34v32v0q-1 20 -14 34q-14 13 -34 14q-20 -1 -34 -14q-13 -14 -14 -34v-32v0z" />
</svg>
