<?xml version="1.0" standalone="no"?>
<!DOCTYPE svg PUBLIC "-//W3C//DTD SVG 1.1//EN" "http://www.w3.org/Graphics/SVG/1.1/DTD/svg11.dtd" >
<svg xmlns="http://www.w3.org/2000/svg" xmlns:xlink="http://www.w3.org/1999/xlink" version="1.1" viewBox="-10 -40 660 512">
   <path fill="currentColor"
d="M224 -23h352h-352h352q20 1 34 14q13 14 14 34v288v0q-1 20 -14 34q-14 13 -34 14h-248v0q5 8 9 16h239v0q27 -1 45 -19t19 -45v-288v0q-1 -27 -19 -45t-45 -19h-352v0q-27 1 -45 19t-19 45v32v0q8 0 16 1v-33v0q1 -20 14 -34q14 -13 34 -14v0zM416 81q1 7 8 8h77v0
l-117 117v0l-74 -75v0q-6 -4 -12 0q-4 6 0 12l80 80v0q6 4 12 0l122 -123v0v77v0q1 7 8 8q7 -1 8 -8v-96v0q-1 -7 -8 -8h-96v0q-7 1 -8 8v0zM133 329h54h-54h54q50 1 83 34t34 83q-1 10 -11 11h-266v0q-10 -1 -11 -11q1 -50 34 -83t83 -34v0zM133 313q-56 1 -94 39v0v0
q-38 38 -39 94q2 25 27 27h266v0q25 -2 27 -27q-1 -56 -39 -94t-94 -39h-54v0zM80 185q1 -45 40 -69q40 -22 80 0q39 24 40 69q-1 45 -40 69q-40 22 -80 0q-39 -24 -40 -69v0zM256 185q0 -26 -13 -48v0v0q-13 -22 -35 -35q-23 -13 -48 -13t-48 13q-22 13 -35 35t-13 48
t13 48t35 35q23 13 48 13t48 -13q22 -13 35 -35t13 -48v0z" />
</svg>
