<?xml version="1.0" standalone="no"?>
<!DOCTYPE svg PUBLIC "-//W3C//DTD SVG 1.1//EN" "http://www.w3.org/Graphics/SVG/1.1/DTD/svg11.dtd" >
<svg xmlns="http://www.w3.org/2000/svg" xmlns:xlink="http://www.w3.org/1999/xlink" version="1.1" viewBox="-10 -40 468 512">
   <path fill="currentColor"
d="M177 6l41 -27l-41 27l41 -27q3 -2 6 -2t6 2l41 27v0q8 5 17 1l48 -28v0v94v0h-224v0v-94v0l48 28v0q9 4 17 -1v0zM336 89v16v-16v16q-1 48 -33 79q-31 32 -79 33q-48 -1 -79 -33q-32 -31 -33 -79v-16v0h224v0zM280 -7l-41 -28l41 28l-41 -28q-7 -4 -15 -4t-15 4l-41 28v0
l-53 -30v0q-3 -2 -6 -2q-12 1 -13 13v131v0q1 54 37 91q37 36 91 37q54 -1 91 -37q36 -37 37 -91v-131v0q-1 -12 -13 -13q-3 0 -6 2l-53 30v0zM168 281h112h-112h112q65 2 107 45q43 42 45 107v8v0q-1 15 -16 16h-384v0q-15 -1 -16 -16v-8v0q2 -65 45 -107q42 -43 107 -45v0
zM168 265q-71 2 -119 49v0v0q-47 48 -49 119v8v0q0 14 9 23t23 9h384v0q14 0 23 -9t9 -23v-8v0q-2 -71 -49 -119q-48 -47 -119 -49h-112v0z" />
</svg>
