<?xml version="1.0" standalone="no"?>
<!DOCTYPE svg PUBLIC "-//W3C//DTD SVG 1.1//EN" "http://www.w3.org/Graphics/SVG/1.1/DTD/svg11.dtd" >
<svg xmlns="http://www.w3.org/2000/svg" xmlns:xlink="http://www.w3.org/1999/xlink" version="1.1" viewBox="-10 -40 660 512">
   <path fill="currentColor"
d="M160 7l-48 -28l48 28l-48 -28v94v0h224v0v-94v0l-48 28v0q-9 4 -17 -1l-41 -27v0q-3 -2 -6 -2t-6 2l-41 27v0q-8 5 -17 1v0zM112 105q1 48 33 79v0v0q31 32 79 33q48 -1 79 -33q32 -31 33 -79v-16v0h-224v0v16v0zM239 -35l41 28l-41 -28l41 28l53 -30v0q3 -2 6 -2
q12 1 13 13v131v0q-1 54 -37 91q-37 36 -91 37q-54 -1 -91 -37q-36 -37 -37 -91v-131v0q1 -12 13 -13q3 0 6 2l53 30v0l41 -28v0q7 -4 15 -4t15 4v0zM16 433v8v-8v8q1 15 16 16h384v0q15 -1 16 -16v-8v0q-2 -65 -45 -107q-42 -43 -107 -45h-112v0q-65 2 -107 45
q-43 42 -45 107v0zM0 433q2 -71 49 -119v0v0q48 -47 119 -49h112v0q71 2 119 49q47 48 49 119v8v0q0 14 -9 23t-23 9h-384v0q-14 0 -23 -9t-9 -23v-8v0zM432 217q-42 -1 -73 -27q3 -3 5 -7q2 -3 3 -7h1q26 24 64 25q41 -1 68 -28t28 -68q-1 -41 -28 -68t-68 -28
q-26 0 -48 13v-18v0q22 -11 48 -11q48 1 79 33q32 31 33 79q-1 48 -33 79q-31 32 -79 33v0zM609 473h-138h138h-138q5 -7 7 -16h131v0q14 -1 15 -15q-2 -61 -43 -102t-102 -43h-52v0q-8 -8 -17 -16v0h7h62v0q68 2 114 47q45 46 47 114q0 13 -9 22t-22 9v0z" />
</svg>
