<?xml version="1.0" standalone="no"?>
<!DOCTYPE svg PUBLIC "-//W3C//DTD SVG 1.1//EN" "http://www.w3.org/Graphics/SVG/1.1/DTD/svg11.dtd" >
<svg xmlns="http://www.w3.org/2000/svg" xmlns:xlink="http://www.w3.org/1999/xlink" version="1.1" viewBox="-10 -40 596 512">
   <path fill="currentColor"
d="M322 9q-5 0 -9 4l-138 122v0q-2 2 -5 2h-82v0q-17 0 -28 12q-12 11 -12 28v80v0q0 17 12 28q11 12 28 12h82v0q3 0 5 2l138 123v0q4 3 9 3q13 -1 14 -14v-388v0q-1 -13 -14 -14v0zM302 1q9 -8 20 -8q13 0 21 9q9 8 9 21v388v0q0 13 -9 21q-8 9 -21 9q-11 0 -20 -7
l-135 -121v0h-79v0q-24 -1 -40 -16q-15 -16 -16 -40v-80v0q1 -24 16 -40q16 -15 40 -16h79v0l135 -120v0zM431 142q5 -6 11 -2q36 28 38 77q-2 49 -38 77q-6 4 -11 -2q-4 -6 1 -11q31 -23 32 -64q-1 -41 -32 -64q-5 -5 -1 -11v0zM501 65q35 26 55 66v0v0q20 39 20 86t-20 86
q-20 40 -55 66q-6 4 -11 -1q-4 -6 1 -11q32 -25 50 -61q19 -36 19 -79t-19 -79q-18 -36 -50 -61q-5 -5 -1 -11q5 -5 11 -1v0z" />
</svg>
