<?xml version="1.0" standalone="no"?>
<!DOCTYPE svg PUBLIC "-//W3C//DTD SVG 1.1//EN" "http://www.w3.org/Graphics/SVG/1.1/DTD/svg11.dtd" >
<svg xmlns="http://www.w3.org/2000/svg" xmlns:xlink="http://www.w3.org/1999/xlink" version="1.1" viewBox="-10 -40 660 512">
   <path fill="currentColor"
d="M2 -36q5 -5 11 -1l624 496v0q5 5 1 11q-5 5 -11 1l-624 -496v0q-5 -5 -1 -11v0zM385 177l-27 -21l27 21l-27 -21q94 13 160 75q4 6 0 12q-6 4 -11 0q-52 -48 -122 -66v0zM187 204q-29 16 -53 39q-6 4 -12 0q-4 -6 1 -12q23 -22 50 -38l14 11v0zM196 27l-15 -12l15 12
l-15 -12q66 -22 139 -22q94 1 175 35q81 35 143 97q4 6 0 11q-6 5 -12 0q-59 -59 -137 -93q-79 -33 -169 -34q-65 0 -124 18v0zM42 90l13 10l-13 -10l13 10q-22 17 -41 36q-6 5 -11 0t0 -11q18 -19 39 -35v0zM259 397q-10 -34 13 -62q25 -27 61 -21q35 9 48 43q10 34 -13 62
q-25 27 -61 21q-35 -9 -48 -43v0zM368 377q-1 -27 -24 -42q-24 -12 -48 0q-23 15 -24 42q1 27 24 42q24 12 48 0q23 -15 24 -42v0z" />
</svg>
