<?xml version="1.0" standalone="no"?>
<!DOCTYPE svg PUBLIC "-//W3C//DTD SVG 1.1//EN" "http://www.w3.org/Graphics/SVG/1.1/DTD/svg11.dtd" >
<svg xmlns="http://www.w3.org/2000/svg" xmlns:xlink="http://www.w3.org/1999/xlink" version="1.1" viewBox="-10 -40 532 512">
   <path fill="currentColor"
d="M214 -17q4 -6 0 -12q-6 -4 -12 0l-32 32v0q-4 6 0 12q6 4 12 0l32 -32v0zM406 -17q4 -6 0 -12q-6 -4 -12 0l-32 32v0q-4 6 0 12q6 4 12 0l32 -32v0zM61 79q13 -22 35 -22q20 1 41 10q23 8 46 0q21 -9 41 -10q22 0 35 22q13 23 13 54q0 10 -1 20h16v0q1 -10 1 -20
q0 -35 -16 -63q-16 -27 -48 -29q-26 2 -47 11q-17 6 -34 0q-22 -9 -47 -11q-33 2 -48 29q-16 28 -16 62q0 11 1 21h16v0q-1 -10 -1 -21q0 -30 13 -53v0zM479 153q1 -10 1 -21q0 -34 -16 -62q-15 -27 -48 -29q-25 2 -47 11q-17 6 -34 0q-20 -9 -44 -11q5 6 9 13q1 2 2 5
q15 3 27 8q23 8 45 0q22 -9 42 -10q22 0 35 22t13 53q0 11 -2 21h17v0zM496 337v80v-80v80q0 17 -12 28q-11 12 -28 12h-400v0q-17 0 -28 -12q-12 -11 -12 -28v-80v0h480v0zM496 321h-480h480h-480v-80v0q0 -17 12 -28q11 -12 28 -12h400v0q17 0 28 12q12 11 12 28v80v0z
M512 321v-80v80v-80q-1 -24 -16 -40q-16 -15 -40 -16h-400v0q-24 1 -40 16q-15 16 -16 40v80v0v8v0v8v0v80v0q1 24 16 40q16 15 40 16h400v0q24 -1 40 -16q15 -16 16 -40v-80v0v-8v0v-8v0zM96 265q-1 -15 -16 -16q-15 1 -16 16q1 15 16 16q15 -1 16 -16v0zM432 281
q15 -1 16 -16q-1 -15 -16 -16q-15 1 -16 16q1 15 16 16v0zM96 393q-1 -15 -16 -16q-15 1 -16 16q1 15 16 16q15 -1 16 -16v0zM432 409q15 -1 16 -16q-1 -15 -16 -16q-15 1 -16 16q1 15 16 16v0z" />
</svg>
