<?xml version="1.0" standalone="no"?>
<!DOCTYPE svg PUBLIC "-//W3C//DTD SVG 1.1//EN" "http://www.w3.org/Graphics/SVG/1.1/DTD/svg11.dtd" >
<svg xmlns="http://www.w3.org/2000/svg" xmlns:xlink="http://www.w3.org/1999/xlink" version="1.1" viewBox="-10 -40 531 512">
   <path fill="currentColor"
d="M121 31q19 31 71 49v17v0q-60 -20 -84 -56q-21 -27 -28 -64v0v0v0v0q-30 37 -47 83t-17 93t17 93t47 83v0v0v0v0v0v0q11 -36 34 -64q25 -34 78 -54v17v0q-44 18 -66 47q-21 26 -30 58q-3 9 -12 12q-10 1 -16 -6q-32 -38 -50 -87t-18 -99t18 -99q18 -48 50 -87q7 -8 17 -5
q9 3 11 13q5 31 25 56v0zM398 265q23 28 34 64v0v0v0v0v0v0q25 -31 42 -69q16 -38 20 -78l-17 -18v0q-10 -11 0 -22l17 -18v0q-4 -40 -20 -78q-17 -38 -42 -69v0v0v0v0v0v0q-6 37 -28 64q-23 36 -84 56v-17v0q52 -18 71 -49q20 -25 25 -56q2 -10 12 -13q9 -3 16 5
q28 34 46 76q17 43 21 87l-12 12v0l-11 11v0l11 11v0l12 12v0q-4 44 -21 87q-18 42 -46 76q-6 7 -15 6q-10 -3 -12 -12q-10 -32 -31 -58q-22 -29 -66 -47v-17v0q53 20 78 54v0zM272 25q-1 -15 -16 -16q-15 1 -16 16v416v0q1 15 16 16q15 -1 16 -16v-416v0zM224 25
q0 -14 9 -23v0v0q9 -9 23 -9t23 9t9 23v416v0q0 14 -9 23t-23 9t-23 -9t-9 -23v-416v0z" />
</svg>
