<?xml version="1.0" standalone="no"?>
<!DOCTYPE svg PUBLIC "-//W3C//DTD SVG 1.1//EN" "http://www.w3.org/Graphics/SVG/1.1/DTD/svg11.dtd" >
<svg xmlns="http://www.w3.org/2000/svg" xmlns:xlink="http://www.w3.org/1999/xlink" version="1.1" viewBox="-10 -40 596 512">
   <path fill="currentColor"
d="M372 127q7 4 14 0l74 -34v0q16 -7 28 5q35 42 53 92q19 50 19 104v41v0l-60 -30v0q-11 -5 -23 -2q-11 4 -18 15l-30 49v0l-37 -36v0q-11 -11 -25 -10q-13 1 -23 13l-56 73v0l-56 -73v0q-10 -12 -23 -13q-14 -1 -25 10l-37 36v0l-30 -50v0q-6 -10 -18 -14q-12 -3 -23 2
l-60 30v0v-41v0q0 -54 19 -104q18 -50 53 -92q12 -12 29 -5l73 34v0q7 4 14 0t8 -11l17 -90v0l35 24v0q11 7 24 7t23 -7l36 -24v0l17 90v0q1 8 8 11v0zM182 106l-59 -28l59 28l-59 -28q-27 -11 -47 10q-37 43 -56 96q-20 53 -20 110v45v0q0 8 6 12q7 3 14 0l63 -31v0
q13 -6 21 6l30 49v0q11 14 25 4l36 -37v0q13 -10 24 2l56 73v0q13 12 26 0l56 -73v0q11 -12 24 -2l37 37v0q14 10 25 -4l29 -49v0q8 -12 21 -6l63 31v0q7 3 14 -1q6 -3 6 -11v-45v0q0 -57 -20 -110q-19 -53 -56 -96q-20 -21 -47 -10l-59 28v0l-14 7v0l-3 -16v0l-15 -76v0
q-3 -11 -14 -12q-4 0 -7 2l-38 26v0q-7 4 -15 4t-15 -4l-37 -26v0q-4 -2 -8 -2q-11 1 -14 12l-14 76v0l-3 16v0l-15 -7v0z" />
</svg>
