<?xml version="1.0" standalone="no"?>
<!DOCTYPE svg PUBLIC "-//W3C//DTD SVG 1.1//EN" "http://www.w3.org/Graphics/SVG/1.1/DTD/svg11.dtd" >
<svg xmlns="http://www.w3.org/2000/svg" xmlns:xlink="http://www.w3.org/1999/xlink" version="1.1" viewBox="-10 -40 532 512">
   <path fill="currentColor"
d="M512 -30q0 -4 -2 -7q-3 -3 -7 -2l-144 24v0q-5 1 -7 6q-1 4 2 8l55 54v0l-247 246v0q-2 -1 -4 -1l-64 -16v0q-13 -3 -23 6l-64 64v0q-9 10 -6 23q4 14 17 17l50 13v0l13 50v0q3 13 17 17q13 3 23 -6l64 -64v0q9 -10 6 -23l-16 -64v0q0 -2 -1 -4l246 -247v0l54 55v0
q4 3 8 2q5 -2 6 -7l24 -144v0zM475 96l-98 -98l98 98l-98 -98l117 -19v0l-19 117v0zM192 25q-91 2 -158 55l-12 -13v0q-6 -4 -12 0q-4 6 0 12l164 163v0l11 -11v0l-140 -140v0q63 -48 147 -50q79 1 139 44l12 -11v0q-65 -48 -151 -49v0zM388 142q43 60 44 139q-2 84 -50 147
l-140 -140v0l-11 11v0l163 164v0q6 4 12 0q4 -6 0 -12l-13 -12v0q53 -67 55 -158q-1 -86 -49 -150l-11 11v0zM84 401q-3 -9 -12 -12l-50 -12v0q-4 -1 -6 -6q-1 -4 2 -8l64 -64v0q4 -3 8 -2l64 16v0q5 2 6 6l16 64v0q1 4 -2 8l-64 64v0q-4 3 -8 2q-4 -2 -6 -6l-12 -50v0z" />
</svg>
