<?xml version="1.0" standalone="no"?>
<!DOCTYPE svg PUBLIC "-//W3C//DTD SVG 1.1//EN" "http://www.w3.org/Graphics/SVG/1.1/DTD/svg11.dtd" >
<svg xmlns="http://www.w3.org/2000/svg" xmlns:xlink="http://www.w3.org/1999/xlink" version="1.1" viewBox="-11 0 470 512">
   <path fill="currentColor"
d="M232 -23v240v-240v240h-16v0v-240v0h-24v0q-17 0 -32 5v235v0h-16v0v-229v0q-29 14 -46 40q-18 27 -18 61v128v0h-16v0v-128v0q1 -54 37 -91q37 -36 91 -37h64v0q54 1 91 37q36 37 37 91v128v0h-16v0v-128v0q0 -34 -18 -61q-17 -26 -46 -40v229v0h-16v0v-235v0
q-15 -5 -32 -5h-24v0zM34 274l-16 32l16 -32l-16 32q-4 8 0 15q5 8 14 8h384v0q9 0 14 -8q4 -7 0 -15l-16 -32v0q-4 -9 -14 -9h-352v0q-10 0 -14 9v0zM19 267q10 -17 29 -18h352v0q19 1 29 18l16 32v0q7 16 -2 31q-9 14 -27 15h-16v0v120v0q-1 7 -8 8q-7 -1 -8 -8v-120v0
h-320v0v120v0q-1 7 -8 8q-7 -1 -8 -8v-120v0h-16v0q-18 0 -27 -15t-2 -31l16 -32v0z" />
</svg>
