<?xml version="1.0" standalone="no"?>
<!DOCTYPE svg PUBLIC "-//W3C//DTD SVG 1.1//EN" "http://www.w3.org/Graphics/SVG/1.1/DTD/svg11.dtd" >
<svg xmlns="http://www.w3.org/2000/svg" xmlns:xlink="http://www.w3.org/1999/xlink" version="1.1" viewBox="-10 -40 654 512">
   <path fill="currentColor"
d="M496 -23q7 0 15 1q-38 21 -60 58t-23 83q2 69 48 115q45 46 114 48q15 0 28 -2q-49 48 -122 49q-20 0 -39 -4q6 9 11 18q14 2 28 2q80 -2 133 -54q8 -8 3 -19q-5 -10 -17 -8t-25 2q-62 -2 -103 -43t-43 -104q1 -41 21 -75q20 -33 53 -53q10 -6 8 -17q-3 -11 -14 -12
q-8 -1 -16 -1q-82 2 -136 56q-54 55 -56 136q0 16 3 32q8 0 16 2q-3 -17 -3 -34q2 -75 51 -124q50 -50 125 -52v0zM96 281q1 -34 23 -57v0v0q23 -22 57 -23q24 0 43 13q19 12 29 33q2 4 6 4q4 1 7 -1q18 -16 43 -17q27 1 45 19t19 45q0 11 -4 21q-1 4 1 8q2 3 6 3
q26 2 43 20t18 44q-1 27 -19 45t-45 19h-2v0v0h-1h-266v0v0v0v0h-3q-34 -1 -57 -24q-22 -22 -23 -56q1 -32 21 -54q21 -22 52 -26q3 0 5 -3q3 -2 2 -5v-8v0zM176 185q-41 1 -68 28v0v0q-27 27 -28 68v1v0q-35 7 -57 33t-23 62q1 41 28 68t68 28h3h266v0h3q34 -1 56 -24
q23 -22 24 -56q-1 -30 -19 -52q-18 -21 -47 -27q2 -8 2 -17q-1 -34 -23 -57q-23 -22 -57 -23q-26 0 -46 14q-13 -21 -34 -33q-22 -13 -48 -13v0z" />
</svg>
