<?xml version="1.0" standalone="no"?>
<!DOCTYPE svg PUBLIC "-//W3C//DTD SVG 1.1//EN" "http://www.w3.org/Graphics/SVG/1.1/DTD/svg11.dtd" >
<svg xmlns="http://www.w3.org/2000/svg" xmlns:xlink="http://www.w3.org/1999/xlink" version="1.1" viewBox="-10 -40 596 512">
   <path fill="currentColor"
d="M66 -36q5 -5 11 -1l230 174v0h8v0l26 -156v0l16 2v0l-26 157v0q-1 0 -1 1v1l89 51v0l7 -43v0q3 -12 15 -13h23h40q24 -1 40 -17q15 -15 16 -39v-24v0q-1 -15 -16 -16h-48v0q-7 0 -11 -5l-18 -18v0q-10 -9 -23 -9h-44v0q-8 0 -13 -6l-17 -23v0l13 -9v0l-13 9v0
q-2 -3 -6 -3q-6 0 -8 7l-15 -3v0q4 -19 23 -20q12 0 19 10l17 22v0h44v0q20 0 34 14l18 18v0h48v0q14 0 23 9t9 23v24v0q-1 31 -21 51t-51 21h-40h-23l-9 56v0v216v0q-1 20 -14 34q-14 13 -34 14h-16v0q-20 -1 -34 -14q-13 -14 -14 -34v-77v0v-18v0q-8 4 -16 6q-27 9 -56 9
t-56 -9q-8 -2 -16 -6v18v0v77v0q-1 20 -14 34q-14 13 -34 14h-16v0q-20 -1 -34 -14q-13 -14 -14 -34v-230v0q-45 -18 -59 -67l-4 -15v0q-3 -13 4 -24q6 -11 19 -15q14 -3 25 4q10 6 14 19l4 16v0q7 23 31 24h46h136l-213 -162v0q-5 -5 -1 -11v0zM412 208l-94 -55l94 55
l-94 -55h-3v0h-27v0v171v0q13 -3 26 -8q8 -4 15 1t7 13v95v0q0 14 9 23t23 9h16v0q14 0 23 -9t9 -23v-215v0l-4 -2v0zM272 153h-120h120h-174q-17 0 -30 -10q-12 -10 -17 -26l-3 -16v0q-5 -14 -20 -11q-14 4 -11 19l3 15v0q12 41 50 56q9 4 10 15v230v0q0 14 9 23t23 9h16v0
q14 0 23 -9t9 -23v-95v0q0 -8 7 -13q7 -4 15 -1q31 13 66 13q12 0 24 -2v-174v0zM444 41q11 1 12 12q-1 11 -12 12q-11 -1 -12 -12q1 -11 12 -12v0z" />
</svg>
