<?xml version="1.0" standalone="no"?>
<!DOCTYPE svg PUBLIC "-//W3C//DTD SVG 1.1//EN" "http://www.w3.org/Graphics/SVG/1.1/DTD/svg11.dtd" >
<svg xmlns="http://www.w3.org/2000/svg" xmlns:xlink="http://www.w3.org/1999/xlink" version="1.1" viewBox="-10 -40 532 512">
   <path fill="currentColor"
d="M384 220v-34v34v-34q1 -21 13 -34q18 -23 19 -55q-1 -37 -26 -62t-62 -26q-37 1 -62 26t-26 62q1 40 29 65q10 9 16 22q2 7 -1 13q-3 7 -10 9l-182 50v0q-5 2 -10 0l-51 -22v0q-2 -1 -4 -1q-10 1 -11 11q2 76 53 128q51 51 127 53h116v0q48 -1 79 -33q32 -31 33 -79
q-1 -49 -35 -81q-5 -5 -5 -12v0zM400 193v27v-27v27q38 36 40 93q-1 54 -37 91q-37 36 -91 37h-116v0q-83 -2 -139 -58q-55 -56 -57 -139q0 -12 8 -19q7 -8 19 -8q5 0 10 2l51 22v0l166 -46v0l16 -5v0q-4 -8 -10 -14l-2 -2q-33 -30 -34 -77q1 -44 31 -74q29 -29 73 -30
q42 1 71 28q29 26 33 67q19 4 39 2l21 -2v0q18 -1 20 17q-1 38 -26 62q-24 25 -62 26h-24v0zM401 177h23h-23h23q31 -1 51 -21t21 -51q0 -2 -2 -2l-21 3v0q-21 3 -41 -1q-3 33 -23 57q-5 7 -8 15v0zM320 105q1 -15 16 -16q15 1 16 16q-1 15 -16 16q-15 -1 -16 -16v0z
M317 272q-4 33 -27 58v0v0q-22 25 -57 34q-29 7 -56 0q-27 -6 -47 -24q-5 -6 -1 -11q6 -5 12 -1q36 31 88 21q30 -8 49 -30q19 -21 23 -49q2 -8 9 -7q8 1 7 9v0z" />
</svg>
