<?xml version="1.0" standalone="no"?>
<!DOCTYPE svg PUBLIC "-//W3C//DTD SVG 1.1//EN" "http://www.w3.org/Graphics/SVG/1.1/DTD/svg11.dtd" >
<svg xmlns="http://www.w3.org/2000/svg" xmlns:xlink="http://www.w3.org/1999/xlink" version="1.1" viewBox="-10 -40 404 512">
   <path fill="currentColor"
d="M209 -30q111 103 163 246l1 2v0q11 31 11 65q-2 80 -57 134q-54 54 -135 56q-81 -2 -135 -56q-55 -54 -57 -134q0 -34 12 -65v-2v0q52 -143 163 -246l3 -3v0q6 -6 14 -6t14 6l3 3v0zM357 221q-51 -139 -159 -240l-3 -3v0q-1 -1 -3 -1t-3 1l-3 3v0q-108 101 -159 240v2v0
q-11 29 -11 60q2 74 52 123t124 51q74 -2 124 -51t52 -123q0 -31 -10 -60l-1 -2v0zM187 167v1v-1v1q1 25 18 43l8 8v0q15 17 16 39q-1 23 -17 39q-15 16 -39 16h-2v0q-25 -1 -41 -17t-17 -41v-22v0q-17 19 -17 45v3v0q1 41 28 68t68 28h7v0q38 -1 63 -26t26 -63
q-1 -43 -33 -72l-45 -38v0q-15 -13 -19 -32q-4 10 -4 21v0zM179 134l11 -24l-11 24l11 -24q2 -5 7 -5q8 1 9 8v21v0q0 19 14 32l45 38v0q38 33 39 84q-1 45 -31 74q-29 30 -74 31h-7v0q-48 -1 -79 -33q-32 -31 -33 -79v-3v0q1 -37 27 -62l6 -5v0q2 -2 6 -2q9 1 10 10v36v0
q1 18 12 30q12 11 30 12h2v0q17 -1 28 -12t12 -27q-1 -16 -11 -28l-9 -8v0q-21 -23 -21 -55v0v0q0 -18 7 -33v0z" />
</svg>
