<?xml version="1.0" standalone="no"?>
<!DOCTYPE svg PUBLIC "-//W3C//DTD SVG 1.1//EN" "http://www.w3.org/Graphics/SVG/1.1/DTD/svg11.dtd" >
<svg xmlns="http://www.w3.org/2000/svg" xmlns:xlink="http://www.w3.org/1999/xlink" version="1.1" viewBox="-10 -40 458 512">
   <path fill="currentColor"
d="M160 -23h128h-128h128v133v0q1 21 19 30q49 24 79 69q29 46 30 104q0 8 -1 16q-46 -1 -76 -11q-31 -9 -54 -20q-2 -1 -5 -2q-2 -2 -4 -3v0q-22 -11 -46 -19q-25 -9 -58 -9q-74 3 -113 25q-17 8 -27 15q3 -56 33 -99q29 -43 76 -66q18 -9 19 -30v-133v0zM413 345
q-10 59 -51 101q-10 11 -28 11h-220v0q-18 0 -28 -11q-48 -49 -54 -121l1 -1q2 -1 5 -4q9 -7 28 -16q36 -20 106 -23q30 0 53 8q22 8 44 19l4 2q3 1 5 2q24 12 56 22q32 9 79 11v0zM304 110v-133v133v-133h24v0q7 -1 8 -8q-1 -7 -8 -8h-40h-168q-7 1 -8 8q1 7 8 8h24v0v133
v0q0 11 -10 15q-53 26 -85 76q-32 49 -33 112q2 86 58 144q17 16 40 16h220v0q23 0 40 -16q56 -58 58 -144q-1 -63 -33 -112q-32 -50 -85 -76q-9 -4 -10 -15v0z" />
</svg>
