<?xml version="1.0" standalone="no"?>
<!DOCTYPE svg PUBLIC "-//W3C//DTD SVG 1.1//EN" "http://www.w3.org/Graphics/SVG/1.1/DTD/svg11.dtd" >
<svg xmlns="http://www.w3.org/2000/svg" xmlns:xlink="http://www.w3.org/1999/xlink" version="1.1" viewBox="-10 -40 404 512">
   <path fill="currentColor"
d="M243 467q5 6 13 6t13 -6l30 -33v0q9 -10 22 -11q12 0 22 9l2 2v0q7 7 16 7q21 -2 23 -23v-265v0q-2 -82 -56 -136t-136 -56q-82 2 -136 56t-56 136v265v0q2 21 23 23q9 0 16 -7l2 -2v0q10 -9 22 -9q13 1 22 11l30 33v0q5 6 13 6t13 -6l27 -30v0q10 -11 24 -11t24 11
l27 30v0zM27 423q-2 2 -4 2q-6 -1 -7 -7v-265v0q2 -75 52 -124q49 -50 124 -52q75 2 124 52q50 49 52 124v265v0q-1 6 -7 7q-2 0 -4 -2l-3 -2v0q-15 -14 -34 -14q-19 1 -33 16l-30 34v0h-1h-1l-27 -31v0q-15 -16 -36 -16t-36 16l-27 31v0h-1h-1l-29 -34v0q-15 -15 -34 -16
t-34 14l-3 2v0zM128 177q-22 -2 -24 -24q2 -22 24 -24q22 2 24 24q-2 22 -24 24v0zM88 153q1 23 20 35q20 10 40 0q19 -12 20 -35q-1 -23 -20 -35q-20 -10 -40 0q-19 12 -20 35v0zM280 153q-2 22 -24 24q-22 -2 -24 -24q2 -22 24 -24q22 2 24 24v0zM256 113q-23 1 -35 20
q-10 20 0 40q12 19 35 20q23 -1 35 -20q10 -20 0 -40q-12 -19 -35 -20v0z" />
</svg>
