<?xml version="1.0" standalone="no"?>
<!DOCTYPE svg PUBLIC "-//W3C//DTD SVG 1.1//EN" "http://www.w3.org/Graphics/SVG/1.1/DTD/svg11.dtd" >
<svg xmlns="http://www.w3.org/2000/svg" xmlns:xlink="http://www.w3.org/1999/xlink" version="1.1" viewBox="-10 -40 596 512">
   <path fill="currentColor"
d="M425 187l17 18l-17 -18l17 18q10 11 0 22l-8 8v0q-4 6 0 12l24 24v0q6 4 12 0l88 -88v0q4 -6 0 -12l-24 -24v0q-6 -4 -12 0l-8 8v0q-11 10 -22 0l-16 -16v0q-6 -6 -4 -14q8 -40 -22 -71l-45 -42v0q-37 -34 -88 -35h-18v0q-27 0 -52 11l-47 21v0l80 44v0q8 4 8 14v12v0
q0 26 19 45l38 38v0q29 27 66 21q8 -1 14 4v0zM461 42q36 37 26 86l5 5v0l11 11v0l8 -8v0q17 -14 34 0l24 24v0q14 17 0 34l-88 88v0q-17 14 -34 0l-24 -24v0q-14 -17 0 -34l8 -8v0l-11 -11v0l-6 -6v0q-45 7 -80 -26l-39 -38v0q-23 -24 -23 -56v-12v0l-80 -44v0
q-8 -5 -8 -15q1 -9 10 -14l47 -21v0q28 -12 58 -12h18v0q57 1 99 39l45 42v0zM27 338l234 -194l-234 194l234 -194l10 12l-233 194v0l-11 -12v0zM27 338l11 12l-11 -12l11 12q-21 19 -22 47q1 25 18 42t42 18q28 0 47 -22l194 -233v0q6 5 13 9l-195 235v0q-23 26 -59 27
q-32 -1 -54 -22q-21 -22 -22 -54q1 -36 27 -59v0z" />
</svg>
