<?xml version="1.0" standalone="no"?>
<!DOCTYPE svg PUBLIC "-//W3C//DTD SVG 1.1//EN" "http://www.w3.org/Graphics/SVG/1.1/DTD/svg11.dtd" >
<svg xmlns="http://www.w3.org/2000/svg" xmlns:xlink="http://www.w3.org/1999/xlink" version="1.1" viewBox="-10 -40 597 512">
   <path fill="currentColor"
d="M144 41q1 -27 19 -45v0v0q18 -18 45 -19h120v0q44 1 74 30q29 30 30 74q-1 44 -30 74q-30 29 -74 30h-58v0q-20 2 -22 22v26v0q1 7 8 8q7 -1 8 -8v-26v0q1 -5 6 -6h58v0q51 -1 85 -35t35 -85q-1 -51 -35 -85t-85 -35h-120v0q-34 1 -57 23q-22 23 -23 57q1 34 23 57
q23 22 57 23h88v0q7 -1 8 -8q-1 -7 -8 -8h-88v0q-27 -1 -45 -19t-19 -45v0zM522 302q19 -12 33 5q12 19 -5 33l-126 94v0q-32 23 -71 23h-345v0q-7 1 -8 8q1 7 8 8h345v0q44 0 80 -26l127 -94v0q13 -10 16 -26q2 -16 -8 -30q-10 -13 -26 -16q-16 -2 -30 8l-117 86v0
q-2 2 -5 2h-122v0q-11 -1 -12 -12q1 -11 12 -12h80v0q15 0 25 -11q11 -10 11 -25t-11 -25q-10 -11 -25 -11h-154v0q-45 0 -80 28l-43 34v0q-2 2 -5 2h-58v0q-7 1 -8 8q1 7 8 8h58v0q8 0 15 -5l43 -34v0q30 -25 70 -25h154v0q18 2 20 20q-2 18 -20 20h-80v0q-12 0 -20 8
t-8 20t8 20t20 8h122v0q8 0 14 -5l118 -86v0z" />
</svg>
