<?xml version="1.0" standalone="no"?>
<!DOCTYPE svg PUBLIC "-//W3C//DTD SVG 1.1//EN" "http://www.w3.org/Graphics/SVG/1.1/DTD/svg11.dtd" >
<svg xmlns="http://www.w3.org/2000/svg" xmlns:xlink="http://www.w3.org/1999/xlink" version="1.1" viewBox="-10 -40 532 512">
   <path fill="currentColor"
d="M16 184q2 -88 61 -146v0v0q58 -59 146 -61h17v0q54 1 99 29q44 29 67 76q4 9 9 18q0 3 1 5l1 1q9 21 20 42q16 33 43 59l4 3v0q12 11 12 27q0 15 -11 26q-10 10 -25 10h-20v0q-7 1 -8 8v72v0q0 17 -12 28q-11 12 -28 12h-80v0q-7 1 -8 8v64v0q1 7 8 8q7 -1 8 -8v-56v0h72
v0q24 -1 40 -16q15 -16 16 -40v-64v0h12v0q22 -1 37 -15q14 -15 15 -37q0 -23 -17 -39l-4 -4v0q-25 -22 -40 -54q-10 -20 -19 -41h-1l-10 -24q-25 -51 -73 -82q-49 -31 -108 -32h-17v0q-62 1 -113 30q-50 30 -80 80q-29 51 -30 113q1 81 47 140q16 19 17 42v99v0q1 7 8 8
q7 -1 8 -8v-99v0q-1 -30 -20 -52q-43 -55 -44 -130v0zM336 185q15 -1 16 -16q-1 -15 -16 -16q-15 1 -16 16q1 15 16 16v0z" />
</svg>
