<?xml version="1.0" standalone="no"?>
<!DOCTYPE svg PUBLIC "-//W3C//DTD SVG 1.1//EN" "http://www.w3.org/Graphics/SVG/1.1/DTD/svg11.dtd" >
<svg xmlns="http://www.w3.org/2000/svg" xmlns:xlink="http://www.w3.org/1999/xlink" version="1.1" viewBox="-10 -40 532 512">
   <path fill="currentColor"
d="M16 185h-16h16h-16q1 80 47 139q16 19 17 42v99v0q1 7 8 8q7 -1 8 -8v-99v0q-1 -30 -20 -52q-43 -54 -44 -129v0zM39 58q-17 3 -28 16v0v0q-11 13 -11 31q1 20 14 34q14 13 34 14h174v0q26 38 74 40h112h64q17 0 28 -12q12 -11 12 -28v-96v0q0 -17 -12 -28
q-11 -12 -28 -12h-64h-30q-27 -26 -63 -41t-75 -15h-17v0q-58 1 -106 26q-47 26 -78 71v0zM60 57q28 -37 71 -58v0v0q42 -22 92 -22h17v0q65 1 114 40h-58v0q-48 2 -74 40h-162v0zM490 217q6 9 6 20q0 15 -11 25q-10 11 -25 11h-20v0q-7 1 -8 8v72v0q0 17 -12 28
q-11 12 -28 12h-80v0q-7 1 -8 8v64v0q1 7 8 8q7 -1 8 -8v-56v0h72v0q24 -1 40 -16q15 -16 16 -40v-64v0h12v0q22 -1 37 -15q14 -15 15 -37q0 -11 -4 -20h-18v0zM296 33h104h-104h104v144v0h-104v0q-31 -1 -51 -21t-21 -51q1 -31 21 -51t51 -21v0zM416 177v-144v144v-144h56
v0q22 2 24 24v96v0q-2 22 -24 24h-56v0zM208 105q0 17 6 32h-166v0q-14 0 -23 -9t-9 -23t9 -23t23 -9h166v0q-6 15 -6 32v0z" />
</svg>
