<?xml version="1.0" standalone="no"?>
<!DOCTYPE svg PUBLIC "-//W3C//DTD SVG 1.1//EN" "http://www.w3.org/Graphics/SVG/1.1/DTD/svg11.dtd" >
<svg xmlns="http://www.w3.org/2000/svg" xmlns:xlink="http://www.w3.org/1999/xlink" version="1.1" viewBox="-10 -40 660 512">
   <path fill="currentColor"
d="M362 -23q-7 0 -13 2l131 131v0l126 -126v0q-10 -7 -22 -7h-222v0zM323 8l-74 333l74 -333l-74 333l220 -220v0l-134 -134v0q-9 9 -12 21v0zM242 373h-3h3h-3l-87 88v0q-13 12 -30 12q-18 0 -30 -12t-12 -30v-152v0l-68 41v0q-4 2 -8 0t-4 -7v-96v0q0 -5 4 -7t8 0l68 41v0
v-74v0q-1 -24 -16 -40q-16 -15 -40 -16h-16v0q-7 -1 -8 -8q1 -7 8 -8h16v0q31 1 51 21t21 51v74v0l68 -41v0q4 -2 8 0t4 7v96v0q0 5 -4 7t-8 0l-68 -41v0v152v0q2 24 26 26q11 0 18 -8l88 -87v0v-3v0l79 -354v0q5 -20 20 -32t35 -12h222v0q24 1 40 16q15 16 16 40v222v0
q0 20 -12 35t-32 20l-354 79v0zM480 132l-220 220l220 -220l-220 220l333 -74v0q13 -3 21 -12l-134 -134v0zM624 239v-222v222v-222q0 -12 -7 -22l-126 126v0l131 131v0q2 -6 2 -13v0zM16 231v68v-68v68l57 -34v0l-57 -34v0zM160 299v-68v68v-68l-56 34v0l56 34v0z" />
</svg>
