<?xml version="1.0" standalone="no"?>
<!DOCTYPE svg PUBLIC "-//W3C//DTD SVG 1.1//EN" "http://www.w3.org/Graphics/SVG/1.1/DTD/svg11.dtd" >
<svg xmlns="http://www.w3.org/2000/svg" xmlns:xlink="http://www.w3.org/1999/xlink" version="1.1" viewBox="-10 -40 596 512">
   <path fill="currentColor"
d="M104 -23q-37 1 -62 26v0v0q-25 25 -26 62v272v0q1 51 35 85t85 35h40v0v-65v0q1 -75 42 -133q41 -59 110 -85q-16 -20 -21 -45q-22 -3 -36 -18q-14 -16 -15 -38q1 -24 16 -40q16 -15 40 -16h7v0q15 -25 40 -41q26 -15 57 -15t57 15q25 16 40 41h7v0q24 1 40 16
q15 16 16 40q-1 22 -15 38q-14 15 -35 18q-9 38 -39 63q-30 24 -71 25q-45 -1 -76 -30q-67 23 -107 79q-40 55 -41 126v65v0h288v0q15 -1 16 -16q-1 -15 -16 -16h-40v0q-7 -1 -8 -7l-1 -8v0q-3 -35 -28 -58q-24 -22 -59 -23h-16v0q-7 -1 -8 -8q1 -7 8 -8h16v0q28 0 51 13
q23 14 37 36v-105v0q0 -5 5 -7t9 2l93 99v0q36 39 37 93v21v0q-1 7 -8 8q-7 -1 -8 -8v-21v0q-1 -48 -33 -82l-79 -85v0v132v0h32v0q14 0 23 9t9 23t-9 23t-23 9h-344v0q-58 -1 -96 -40q-39 -38 -40 -96v-272v0q1 -44 30 -74q30 -29 74 -30h32v0q37 1 62 26t26 62
q-1 37 -26 62t-62 26h-32v0q-7 -1 -8 -8q1 -7 8 -8h32v0q31 -1 51 -21t21 -51q-1 -31 -21 -51t-51 -21h-32v0zM512 105v-32v32v-32q-1 -41 -28 -68t-68 -28q-41 1 -68 28t-28 68v32v0q1 41 28 68t68 28q41 -1 68 -28t28 -68v0zM311 33q-16 1 -27 12v0v0q-12 11 -12 28
q0 15 9 26q9 10 23 13v-7v-32v0q0 -21 7 -40v0zM528 73v32v-32v32v7q14 -3 23 -13q9 -11 9 -26q0 -17 -12 -28q-11 -11 -27 -12q7 19 7 40v0zM368 73q1 -15 16 -16q15 1 16 16q-1 15 -16 16q-15 -1 -16 -16v0zM448 57q15 1 16 16q-1 15 -16 16q-15 -1 -16 -16q1 -15 16 -16
v0zM352 73q2 28 27 38q5 2 5 7v11v0q0 14 9 23t23 9t23 -9t9 -23v-11v0q0 -5 5 -7q25 -10 27 -38q0 -17 -12 -28q-11 -11 -28 -12h-48v0q-17 1 -28 12q-12 11 -12 28v0zM392 17h48h-48h48q24 1 40 16q15 16 16 40q-2 35 -32 51v5v0q-1 20 -14 34q-14 13 -34 14
q-20 -1 -34 -14q-13 -14 -14 -34v-5v0q-30 -16 -32 -51q1 -24 16 -40q16 -15 40 -16v0z" />
</svg>
