<?xml version="1.0" standalone="no"?>
<!DOCTYPE svg PUBLIC "-//W3C//DTD SVG 1.1//EN" "http://www.w3.org/Graphics/SVG/1.1/DTD/svg11.dtd" >
<svg xmlns="http://www.w3.org/2000/svg" xmlns:xlink="http://www.w3.org/1999/xlink" version="1.1" viewBox="-10 -40 660 512">
   <path fill="currentColor"
d="M484 -7q-5 0 -10 2l-59 22v0q-19 8 -31 24h-2h-1h-141v0q-64 1 -108 42q-44 40 -51 102h-36v0q-12 0 -20 -9q-9 -8 -9 -20v-2v0q1 -19 19 -25l24 -8v0q6 -3 5 -10q-3 -7 -10 -6l-24 8v0q-28 11 -30 41v2v0q0 19 13 32t32 13h35v0v16v0q0 40 19 72t50 51l31 85v0
q6 15 22 16h46v0q22 -2 24 -24v-40v0h48h64v40v0q2 22 24 24h46v0q16 -1 23 -16l18 -51v0q50 -13 79 -56q3 -5 8 -5h26v0q14 0 23 -9t9 -23v-80v0q0 -14 -9 -23t-23 -9h-20v0q-2 0 -3 -1q-19 -9 -31 -26q21 -8 33 -26q13 -19 13 -42q-2 -23 -26 -25h-62v0v-28v0
q0 -12 -8 -20t-20 -8v0zM511 65h63h-63h63q9 1 10 10q0 18 -11 33q-10 14 -28 20v0v0q-17 -24 -40 -43q5 -9 6 -20v0zM479 10q3 -1 5 -1q11 1 12 12v34v0q0 16 -8 28q-3 6 2 11q28 20 46 51q16 25 43 38q4 2 9 2h20v0q15 1 16 16v80v0q-1 15 -16 16h-26v0q-14 1 -21 12
q-27 40 -74 50q-4 1 -6 5l-20 56v0q-2 5 -7 5h-46v0q-7 -1 -8 -8v-48v0q-1 -7 -8 -8h-72h-56q-7 1 -8 8v48v0q-1 7 -8 8h-46v0q-5 0 -7 -5l-32 -88v0q-1 -3 -3 -4q-29 -17 -46 -46q-18 -29 -18 -65v-16v0q2 -61 42 -102q41 -40 102 -42h141v0h3h3q4 0 7 -3q10 -15 27 -22
l58 -22v0zM464 217q15 -1 16 -16q-1 -15 -16 -16q-15 1 -16 16q1 15 16 16v0z" />
</svg>
