<?xml version="1.0" standalone="no"?>
<!DOCTYPE svg PUBLIC "-//W3C//DTD SVG 1.1//EN" "http://www.w3.org/Graphics/SVG/1.1/DTD/svg11.dtd" >
<svg xmlns="http://www.w3.org/2000/svg" xmlns:xlink="http://www.w3.org/1999/xlink" version="1.1" viewBox="-10 -40 596 512">
   <path fill="currentColor"
d="M498 135l-7 -5l7 5l-7 -5q-24 -17 -54 -17h-7v0v0l-4 -15v0q-9 -35 -33 -61t-59 -37q-12 -4 -23 2l-2 1v0q-21 14 -16 39l10 37v0q8 27 25 48l-80 -36v0q-22 -10 -47 -10h-9v0q-47 1 -77 34q-18 -25 -51 -26q-27 1 -45 19t-19 45q1 27 19 45t45 19q15 0 27 -6q7 27 28 48
l63 63v0l-68 46v0q-14 10 -17 25q-3 16 6 30t25 17t30 -6l82 -54v0l16 16v0q21 21 51 21h117v0q17 0 28 -12q12 -11 12 -28t-12 -28q-11 -12 -28 -12h-71v0l40 -48v0h117v0q28 -1 47 -19q18 -19 19 -47q-1 -35 -29 -55l-34 -23v0q6 -39 -6 -76q-11 -37 -40 -66l-1 -1v0
q-13 -11 -29 -9l-2 1v0q-17 4 -24 20q7 6 13 13l2 -6q3 -9 12 -12h2v0q8 -1 15 4l1 2v0q24 24 35 55t7 65v0zM88 185v9q-10 7 -24 7q-20 -1 -34 -14q-13 -14 -14 -34q1 -20 14 -34q14 -13 34 -14q27 1 41 23q-17 25 -17 57v0zM194 334l34 34l-34 -34l34 34l-79 53v0
q-19 11 -33 -7q-11 -19 7 -33l71 -47v0zM329 15q31 10 52 33v0v0q21 23 30 54l3 15v0q1 3 1 5q0 4 3 7q3 2 6 2q7 -2 13 -2q25 0 45 14l56 39v0q21 15 22 41q0 21 -15 35q-14 15 -35 15h-121v0q-3 0 -6 3l-47 57v0v-20v0q0 -32 -17 -58q-18 -25 -47 -38l-37 -15v0
q-7 -3 -10 4t4 10l37 16v0q25 10 39 32q15 22 15 49v32v0q1 7 8 8h24h72q22 2 24 24q-2 22 -24 24h-117v0q-24 0 -40 -16l-137 -137v0q-25 -27 -26 -63q1 -37 26 -62t62 -26h9v0q21 0 40 9l132 59v0q6 3 10 -3v-1q1 0 1 -1q1 -3 0 -6q-1 -4 -5 -5q-1 0 -2 -1
q-44 -25 -58 -73l-11 -37v0q-2 -14 9 -21l2 -1v0q5 -3 10 -1v0zM496 201q-1 -15 -16 -16q-15 1 -16 16q1 15 16 16q15 -1 16 -16v0z" />
</svg>
