<?xml version="1.0" standalone="no"?>
<!DOCTYPE svg PUBLIC "-//W3C//DTD SVG 1.1//EN" "http://www.w3.org/Graphics/SVG/1.1/DTD/svg11.dtd" >
<svg xmlns="http://www.w3.org/2000/svg" xmlns:xlink="http://www.w3.org/1999/xlink" version="1.1" viewBox="-10 -40 652 512">
   <path fill="currentColor"
d="M352 9q1 -20 14 -34v0v0q14 -13 34 -14q20 1 34 14q13 14 14 34v20v0q13 -4 28 -4q19 0 36 7v-23v0q1 -20 14 -34q14 -13 34 -14q20 1 34 14q13 14 14 34v8v0q-1 7 -8 8q-7 -1 -8 -8v-8v0q0 -14 -9 -23t-23 -9t-23 9t-9 23v31v0q26 16 39 44l51 35v0q14 10 14 26
q-1 18 -16 27q-14 8 -31 0l-9 -5v0v34v0q-1 41 -28 68t-68 28h-8v0q-41 -1 -68 -28t-28 -68v-34v0l-9 5v0q-17 8 -31 0q-15 -9 -16 -27q0 -16 14 -26l51 -35v0q15 -33 47 -49v-26v0q0 -14 -9 -23t-23 -9t-23 9t-9 23v8v0q-1 7 -8 8q-7 -1 -8 -8v-8v0zM304 31q11 -8 24 -12
q1 8 5 15q-10 3 -19 10q-12 7 -22 -2q-14 -16 -36 -17q-22 1 -36 16q-10 10 -22 2q-13 -10 -30 -10t-30 10q-12 11 -17 27q-4 13 -18 12q-3 -1 -7 -1q-20 0 -34 14q-13 14 -14 34q0 6 1 12q3 11 -8 18q-24 13 -25 42q1 29 25 42q11 7 8 18q-1 6 -1 12q1 20 14 34
q14 13 34 14q4 0 7 -1q14 -1 18 12q5 16 17 27q13 10 30 10t30 -10q12 -8 22 2q14 15 36 16q22 -1 36 -16q10 -10 22 -2q13 10 30 10t30 -10q12 -11 16 -27q5 -13 18 -12q4 1 8 1q6 0 11 -1q11 4 24 7q-13 8 -29 10l-24 105v0q-9 29 -39 31h-15v0q-17 0 -28 -12
q-12 -11 -12 -28v-24v0q1 -7 8 -8q7 1 8 8v24v0q2 22 24 24h15v0q18 -1 23 -18l24 -100v0q-7 20 -23 33q-17 13 -39 13q-23 0 -40 -14q-18 21 -48 22q-30 -1 -48 -22q-17 14 -40 14q-22 0 -39 -13q-16 -13 -22 -33l23 100v0q5 17 23 18h15v0q22 -2 24 -24v-24v0q1 -7 8 -8
q7 1 8 8v24v0q0 17 -12 28q-11 12 -28 12h-15v0q-30 -2 -39 -31l-24 -105v0q-25 -3 -41 -21t-17 -43q0 -8 2 -15q-32 -18 -34 -57q2 -39 34 -56q-2 -8 -2 -16q1 -27 19 -45t45 -19q5 0 10 1q5 -22 22 -35q17 -14 40 -14t40 14q18 -21 48 -22q30 1 48 22v0zM560 125
q-1 -36 -25 -59v0v0q-23 -24 -59 -25q-36 1 -59 25q-24 23 -25 59v76v0q1 34 23 57q23 22 57 23h8v0q34 -1 57 -23q22 -23 23 -57v-76v0zM576 125v23v-23v23l17 10v0q8 4 15 0q8 -4 8 -13q0 -8 -7 -13l-34 -23v0q1 8 1 16v0zM377 109l-34 23l34 -23l-34 23q-7 5 -7 13
q0 9 8 13q7 4 15 0l17 -10v0v-23v0q0 -8 1 -16v0zM448 137q15 1 16 16q-1 15 -16 16q-15 -1 -16 -16q1 -15 16 -16v0zM496 153q1 -15 16 -16q15 1 16 16q-1 15 -16 16q-15 -1 -16 -16v0z" />
</svg>
