<?xml version="1.0" standalone="no"?>
<!DOCTYPE svg PUBLIC "-//W3C//DTD SVG 1.1//EN" "http://www.w3.org/Graphics/SVG/1.1/DTD/svg11.dtd" >
<svg xmlns="http://www.w3.org/2000/svg" xmlns:xlink="http://www.w3.org/1999/xlink" version="1.1" viewBox="-10 -40 468 512">
   <path fill="currentColor"
d="M224 -23q50 2 76 44q24 44 0 88q-26 42 -76 44q-50 -2 -76 -44q-24 -44 0 -88q26 -42 76 -44v0zM224 169q33 0 58 -18v0v0q26 -17 38 -46h91v0l-10 20v0q-3 6 2 10l24 18v0l-24 18v0q-5 4 -2 10l10 20v0h-79v0q-12 0 -19 9q-7 8 -5 20l25 125v0l-49 -25v0q-4 -2 -8 0
l-52 30v0l-52 -30v0q-4 -2 -7 0l-50 25v0l25 -125v0q2 -12 -5 -20q-7 -9 -18 -9h-80v0l10 -20v0q3 -6 -2 -10l-24 -18v0l24 -18v0q5 -4 2 -10l-10 -20v0h91v0q12 29 38 46q25 18 58 18v0zM424 89h-99h99h-99q3 -12 3 -24q-1 -44 -30 -74q-30 -29 -74 -30q-44 1 -74 30
q-29 30 -30 74q0 12 3 24h-99v0q-4 0 -7 4q-2 4 0 8l13 26v0l-27 20v0q-3 2 -3 6t3 6l27 20v0l-13 26v0q-2 4 0 8q3 4 7 4h93v0q8 1 7 10l-28 140v0q-1 5 3 8t9 1l60 -30v0l52 30v0q4 2 8 0l52 -30v0l60 30v0q5 2 9 -1t3 -8l-28 -140v0q-1 -9 8 -10h92v0q4 0 7 -4q2 -4 0 -8
l-13 -26v0l27 -20v0q3 -2 3 -6t-3 -6l-27 -20v0l13 -26v0q2 -4 0 -8q-3 -4 -7 -4v0zM208 49q-1 -15 -16 -16q-15 1 -16 16q1 15 16 16q15 -1 16 -16v0zM256 81q15 -1 16 -16q-1 -15 -16 -16q-15 1 -16 16q1 15 16 16v0zM216 465q1 7 8 8q7 -1 8 -8v-69v0q-8 2 -16 0v69v0z
" />
</svg>
