<?xml version="1.0" standalone="no"?>
<!DOCTYPE svg PUBLIC "-//W3C//DTD SVG 1.1//EN" "http://www.w3.org/Graphics/SVG/1.1/DTD/svg11.dtd" >
<svg xmlns="http://www.w3.org/2000/svg" xmlns:xlink="http://www.w3.org/1999/xlink" version="1.1" viewBox="-10 -40 596 512">
   <path fill="currentColor"
d="M16 65q1 -24 16 -40v0v0q16 -15 40 -16q24 1 40 16q15 16 16 40v81v0q0 10 7 17l16 16v0q5 6 0 12l-16 16v0q-7 7 -7 17v137v0q1 34 23 57q23 22 57 23h288v0q34 -1 57 -23q22 -23 23 -57v-32v0q0 -14 -9 -23t-23 -9h-120v0q-12 0 -19 9l-15 18v0q-6 6 -12 0l-15 -18v0
q-7 -9 -19 -9h-40v0q-14 0 -23 9t-9 23v32v0q-1 27 -19 45t-45 19q-27 -1 -45 -19t-19 -45v-137v0q0 -4 2 -6l16 -16v0q14 -17 0 -34l-16 -16v0q-2 -2 -2 -6v-81v0q-1 -35 -27 -56h291v0q24 1 40 16q15 16 16 40v17v0q0 4 -2 6l-16 16v0q-14 17 0 34l16 16v0q2 2 2 6v18v0
q0 4 -2 6l-16 16v0q-14 17 0 34l16 16v0q2 2 2 6v9v0h16v0v-9v0q0 -10 -7 -17l-16 -16v0q-5 -6 0 -12l16 -16v0q7 -7 7 -17v-18v0q0 -10 -7 -17l-16 -16v0q-5 -6 0 -12l16 -16v0q7 -7 7 -17v-17v0q-1 -31 -21 -51t-51 -21h-336v0q-31 1 -51 21t-21 51v72v0q0 14 9 23t23 9
h64v0v-16v0h-64v0q-15 -1 -16 -16v-72v0zM496 425h-240h240h-240q31 -23 32 -64v-32v0q1 -15 16 -16h40v0q4 0 7 3l14 18v0q8 9 19 9t19 -9l14 -18v0q3 -3 7 -3h120v0q15 1 16 16v32v0q-1 27 -19 45t-45 19v0z" />
</svg>
