<?xml version="1.0" standalone="no"?>
<!DOCTYPE svg PUBLIC "-//W3C//DTD SVG 1.1//EN" "http://www.w3.org/Graphics/SVG/1.1/DTD/svg11.dtd" >
<svg xmlns="http://www.w3.org/2000/svg" xmlns:xlink="http://www.w3.org/1999/xlink" version="1.1" viewBox="-10 -40 532 512">
   <path fill="currentColor"
d="M410 -37q6 -4 12 0l88 88v0q4 6 0 12l-38 37v0q-21 21 -50 21q-25 0 -44 -15l-148 149v0l67 67v0q10 10 10 23t-10 23l-58 58v0q-47 46 -113 47h-94v0q-14 0 -23 -9t-9 -23v-94v0q1 -66 47 -113l58 -58v0q10 -10 23 -10t23 10l67 67v0l149 -148v0q-15 -19 -15 -44
q0 -29 21 -50l37 -38v0zM416 -20l-32 32l32 -32l-32 32q-16 16 -16 39q1 23 16 38t38 16q23 0 39 -16l32 -32v0l-77 -77v0zM16 441q1 15 16 16h94v0q59 -1 102 -42l58 -59v0q9 -11 0 -22l-147 -147v0q-11 -9 -22 0l-59 59v0q-41 42 -42 101v94v0z" />
</svg>
