<?xml version="1.0" standalone="no"?>
<!DOCTYPE svg PUBLIC "-//W3C//DTD SVG 1.1//EN" "http://www.w3.org/Graphics/SVG/1.1/DTD/svg11.dtd" >
<svg xmlns="http://www.w3.org/2000/svg" xmlns:xlink="http://www.w3.org/1999/xlink" version="1.1" viewBox="-10 -40 532 512">
   <path fill="currentColor"
d="M302 41h-9h9h-130q-53 1 -88 36t-36 88q1 53 36 88t88 36h176v0q22 1 37 15q14 15 15 37q-1 22 -15 37q-15 14 -37 15h-92v0v0v0v0v0v0v0h-141v0q-16 0 -31 6l-62 26v0l62 26v0q15 6 31 6h61v0v0v0v0v0v0v0h172v0q49 -1 82 -34t34 -82q-1 -49 -34 -82t-82 -34h-176v0
q-25 -1 -42 -18t-18 -42q1 -25 18 -42t42 -18h121h9l5 8v0l1 3v0q22 36 64 37q16 0 31 -7l66 -31v0q26 -13 27 -42q-1 -29 -27 -42l-66 -31v0q-15 -7 -31 -7q-42 1 -64 37l-2 3v0l-4 8v0zM176 473v0v0v0h-61v0q-19 0 -37 -7l-71 -30v0q-7 -3 -7 -11t7 -11l71 -30v0
q18 -7 37 -7h141v0v0v0h92v0q15 0 25 -11q11 -10 11 -25t-11 -25q-10 -11 -25 -11h-176v0q-59 -2 -99 -41q-39 -40 -41 -99q2 -59 41 -99q40 -39 99 -41h121v0l1 -3v0q27 -43 78 -45q20 0 38 8l66 31v0q34 18 36 57q-2 39 -36 57l-66 31v0q-18 8 -38 8q-24 0 -45 -12
t-33 -33l-1 -3v0h-121v0q-19 0 -31 13q-13 12 -13 31t13 31q12 13 31 13h176v0q56 1 93 39q38 37 39 93q-1 56 -39 93q-37 38 -93 39h-172v0zM352 41q1 -15 16 -16q15 1 16 16q-1 15 -16 16q-15 -1 -16 -16v0zM368 89q15 1 16 16q-1 15 -16 16q-15 -1 -16 -16q1 -15 16 -16
v0z" />
</svg>
