<?xml version="1.0" standalone="no"?>
<!DOCTYPE svg PUBLIC "-//W3C//DTD SVG 1.1//EN" "http://www.w3.org/Graphics/SVG/1.1/DTD/svg11.dtd" >
<svg xmlns="http://www.w3.org/2000/svg" xmlns:xlink="http://www.w3.org/1999/xlink" version="1.1" viewBox="-11 0 534 512">
   <path fill="currentColor"
d="M372 -38q-6 4 -3 11l46 92v0q7 15 -3 27l-84 96v0v-83v0q-2 -43 -38 -63q-3 -2 -6 -1t-5 4l-23 43v0l-23 -43v0q-2 -3 -5 -4t-6 1q-36 20 -38 63v83v0l-84 -96v0q-10 -12 -3 -27l46 -92v0q3 -7 -3 -11q-7 -3 -11 3l-46 93v0q-11 24 5 44l83 95v0l-120 -31v0
q-12 -4 -17 -16l-18 -55v0q-3 -7 -10 -6q-7 3 -6 11l19 55v0q7 20 28 26l121 32v0l-121 32v0q-21 6 -28 26l-19 56v0q-1 7 6 10q7 1 10 -5l18 -56v0q4 -12 17 -16l103 -27v0l-70 94v0q-12 17 -6 36l35 105v0q2 6 10 5q6 -3 5 -10l-35 -105v0q-4 -12 4 -22l50 -66v0
q-3 11 -3 23v8v0q1 46 33 77q32 30 79 31q47 -1 79 -31q32 -31 33 -77v-8v0q0 -12 -3 -23l51 67v0q7 10 3 22l-35 104v0q-1 7 6 10q7 1 10 -5l34 -105v0q6 -19 -6 -36l-70 -94v0l103 27v0q13 4 17 16l19 56v0q2 6 10 5q6 -3 5 -10l-19 -56v0q-7 -20 -28 -26l-121 -32v0
l121 -32v0q21 -6 28 -26l19 -55v0q1 -8 -5 -11q-8 -1 -11 6l-18 55v0q-4 12 -17 16l-120 31v0l83 -94v0q16 -21 6 -45l-47 -93v0q-4 -6 -10 -3h-1zM223 60l26 49l-26 -49l26 49q2 4 7 4t7 -4l26 -49v0q22 16 23 45v109v0q0 4 3 7q35 26 37 72v8v0q-1 39 -28 65t-68 27
q-41 -1 -68 -27t-28 -65v-8v0q2 -46 37 -72q3 -3 3 -7v-109v0q1 -29 23 -45v0z" />
</svg>
