<?xml version="1.0" standalone="no"?>
<!DOCTYPE svg PUBLIC "-//W3C//DTD SVG 1.1//EN" "http://www.w3.org/Graphics/SVG/1.1/DTD/svg11.dtd" >
<svg xmlns="http://www.w3.org/2000/svg" xmlns:xlink="http://www.w3.org/1999/xlink" version="1.1" viewBox="-10 -40 593 512">
   <path fill="currentColor"
d="M146 -26q2 -6 9 -5l78 15v0q57 10 115 0l78 -15v0q6 -1 9 5l32 87v0q19 49 53 90l51 61v0q4 5 0 10l-51 61v0q-34 41 -53 91l-32 86v0q-3 6 -9 5l-78 -15v0q-58 -10 -115 0l-78 15v0q-7 1 -9 -5l-33 -86v0q-18 -50 -52 -91l-51 -61v0q-4 -5 0 -10l51 -61v0q34 -41 52 -91
l33 -86v0zM154 -3l-26 69l26 -69l-26 69q-19 52 -55 95l-40 48v0h91v0l8 -9v0q40 -45 60 -102l7 -22v0l-45 -79v0zM167 -12l45 78l-45 -78l45 78q77 21 154 0l45 -78v0l-60 12v0q-61 11 -121 0l-63 -12v0zM426 -5l-46 80l46 -80l-46 80l8 23v0q20 57 60 102l7 9v0h92v0
l-40 -48v0q-35 -43 -55 -95l-26 -71v0zM548 225h-93h93h-93l-6 7v0q-41 47 -61 105l-8 24v0l45 79v0l27 -72v0q20 -52 55 -95l40 -48h1zM411 446l-43 -74l43 74l-43 -74v0l-1 -1v0q-77 -25 -155 -3l-45 78v0l63 -12v0q60 -11 121 0l60 12v0zM154 437l45 -79l-45 79l45 -79
l-8 -23v0q-20 -56 -59 -101l-7 -9v0h-92v0l40 48v0q36 43 55 95l26 69v0zM146 225q40 47 61 105l3 10v0l65 -115v0h-129v0zM223 349q67 -15 134 2l-68 -118v0l-66 116v0zM370 342l3 -10l-3 10l3 -10q20 -59 61 -107h-131v0l67 117v0zM434 209q-40 -47 -61 -105l-4 -11v0
l-66 116v0h131v0zM355 85q-66 15 -132 0l66 116v0l66 -116v0zM210 94l-3 10l3 -10l-3 10q-21 58 -61 105h129v0l-65 -115v0z" />
</svg>
