<?xml version="1.0" standalone="no"?>
<!DOCTYPE svg PUBLIC "-//W3C//DTD SVG 1.1//EN" "http://www.w3.org/Graphics/SVG/1.1/DTD/svg11.dtd" >
<svg xmlns="http://www.w3.org/2000/svg" xmlns:xlink="http://www.w3.org/1999/xlink" version="1.1" viewBox="-10 -40 660 512">
   <path fill="currentColor"
d="M198 -20l112 128l-112 -128l112 128q2 2 2 5q-1 7 -8 8h-56v0q-5 0 -7 5t2 9l99 93v0q2 2 2 6q-1 6 -7 7h-65v0q-5 0 -7 5t2 9l99 93v0q2 2 2 6q-1 6 -7 7h-126h-35v-200v0q-1 -7 -8 -8q-7 1 -8 8v200v0h-35h-125q-7 -1 -8 -7q0 -4 2 -6l100 -93v0q3 -4 2 -9q-3 -5 -8 -5
h-64v0q-7 -1 -8 -8q0 -3 2 -5l100 -93v0q3 -4 2 -9q-3 -5 -8 -5h-56v0q-7 -1 -8 -8q0 -3 2 -6l112 -127v0q6 -5 12 0v0zM149 377h35h-35h35v88v0q1 7 8 8q7 -1 8 -8v-88v0h35h126q21 -2 23 -23q0 -11 -7 -18l-85 -79v0h45v0q21 -2 23 -23q0 -11 -7 -18l-85 -79v0h36v0
q22 -2 24 -24q0 -9 -6 -16l-112 -128v0q-8 -8 -18 -8t-18 8l-112 128v0q-6 7 -6 16q2 22 24 24h36v0l-85 79v0q-7 7 -7 18q2 21 24 23h44v0l-85 79v0q-7 7 -7 18q2 21 24 23h125v0zM430 -30l-84 97l84 -97l-84 97q-4 6 1 11q6 5 11 0l84 -98v0q6 -5 12 0l112 128v0q2 2 2 5
q-1 7 -8 8h-56v0q-5 0 -7 5t2 9l99 93v0q2 2 2 6q-1 6 -7 7h-65v0q-5 0 -7 5t2 9l99 93v0q2 2 2 6q-1 6 -7 7h-161v0v-200v0q-1 -7 -8 -8q-7 1 -8 8v304v0q1 7 8 8q7 -1 8 -8v-88v0h161v0q21 -2 23 -23q0 -11 -7 -18l-85 -79v0h45v0q21 -2 23 -23q0 -11 -7 -18l-85 -79v0h36
v0q22 -2 24 -24q0 -9 -6 -16l-112 -127v0q-8 -9 -18 -9q-11 0 -18 9v0z" />
</svg>
