<?xml version="1.0" standalone="no"?>
<!DOCTYPE svg PUBLIC "-//W3C//DTD SVG 1.1//EN" "http://www.w3.org/Graphics/SVG/1.1/DTD/svg11.dtd" >
<svg xmlns="http://www.w3.org/2000/svg" xmlns:xlink="http://www.w3.org/1999/xlink" version="1.1" viewBox="-10 -40 660 512">
   <path fill="currentColor"
d="M488 17q0 15 -3 32t-17 29l-40 28v0l-13 9v0v0l-1 1v0v0v0q-20 13 -45 15q-24 1 -46 -1q-41 -5 -76 22q-34 29 -38 70q-5 41 22 76q29 34 70 38q41 5 77 -22q27 -23 35 -56v0v0v0v0q6 -27 17 -53q10 -27 34 -46l4 -2v0l13 -10v0l17 -11v0q20 -13 44 -10q8 0 16 1h3v0v0
l3 1v0q11 1 20 1q17 0 28 -12q12 -11 12 -28t-12 -28q-11 -12 -28 -12h-3q-8 1 -13 -6q-5 -6 -2 -13q2 -6 2 -13q-1 -17 -12 -28q-11 -12 -28 -12t-28 12q-12 11 -12 28v0zM414 97l45 -32l-45 32l45 -32q8 -6 11 -19q2 -14 2 -29q1 -24 16 -40q16 -15 40 -16q24 1 40 16
q15 16 16 40q0 8 -2 16h1h1q24 1 40 16q15 16 16 40q-1 24 -16 40q-16 15 -40 16q-11 0 -22 -1l-3 -1v0h-4q-7 -1 -14 -1q-21 -2 -34 7l-34 23v0q-19 15 -29 39t-16 51q-9 38 -40 64q-41 31 -89 26q-47 -5 -80 -43q-31 -41 -26 -89q5 -47 44 -80q40 -31 88 -26q41 6 74 -7
q-61 -33 -111 -34q-39 0 -86 21q-46 21 -89 59t-70 87q-26 49 -27 105q1 42 23 63q21 22 61 34q41 11 90 13t98 2t98 -2t90 -13q40 -12 61 -34q22 -21 23 -63q-3 -86 -59 -153l13 -9v0q28 35 45 76t17 86q-2 63 -46 90q-45 27 -110 33q-66 6 -132 5q-66 1 -132 -5
q-65 -6 -110 -33q-44 -27 -46 -90q2 -81 50 -146q47 -65 114 -103q66 -38 124 -39q59 1 126 40v0z" />
</svg>
