<?xml version="1.0" standalone="no"?>
<!DOCTYPE svg PUBLIC "-//W3C//DTD SVG 1.1//EN" "http://www.w3.org/Graphics/SVG/1.1/DTD/svg11.dtd" >
<svg xmlns="http://www.w3.org/2000/svg" xmlns:xlink="http://www.w3.org/1999/xlink" version="1.1" viewBox="-10 -40 660 512">
   <path fill="currentColor"
d="M448 -23h8h-8h46q22 0 37 15q16 14 19 36l7 74v0q1 29 -25 44q-18 8 -35 3q-17 -6 -26 -23l-8 -17v0q-2 -4 -7 -4h-16v0q-7 1 -8 8v88v0v0v0v0v0q-2 39 -29 63q-3 2 -3 6v171v0q-1 15 -16 16h-40v0q-15 -1 -16 -16v-154v0q0 -6 -6 -8l-124 -27v0q-4 -1 -7 2t-2 8
q3 13 3 27q0 24 -10 47l-6 15v0q-6 13 -2 27l17 59v0q2 18 -16 20h-50v0q-11 0 -15 -12l-13 -46v0q-11 -41 5 -80l7 -15v0q3 -7 3 -15t-3 -15l-32 -77v0q-5 -12 -5 -25q1 -29 20 -47q18 -19 47 -20h53h128q7 -1 8 -8q1 -51 35 -85t85 -35v0zM554 -7q-6 -9 -15 -16h13v0
q7 -1 8 -8q-1 -7 -8 -8h-58h-46q-56 1 -93 37q-38 36 -43 91h-88h-85q-42 1 -66 32h-1h-8q-27 1 -45 19t-19 45v88v0q1 7 8 8q7 -1 8 -8v-88v0q1 -20 14 -34q13 -13 34 -14q-8 16 -8 35q0 16 6 32l32 76v0q2 4 2 9t-2 9l-6 15v0q-19 44 -6 90l13 47v0q7 22 30 23h50v0
q16 -1 26 -13q9 -12 5 -28l-17 -59v0q-2 -8 2 -16l6 -15v0q11 -26 11 -53q0 -10 -1 -19l105 23v0v148v0q0 14 9 23t23 9h40v0q14 0 23 -9t9 -23v-168v0q30 -28 32 -72v0v0v0v0v-80v0h3v0l6 12v0q12 23 36 31q23 7 46 -4q17 -8 26 -25q9 -16 8 -35l-5 -54v0l65 -28v0
q7 -4 7 -12q-1 -12 -13 -13h-73v0zM562 9h50h-50h50l-46 21v0v-4v0q-1 -9 -4 -17v0zM496 57q15 -1 16 -16q-1 -15 -16 -16q-15 1 -16 16q1 15 16 16v0z" />
</svg>
