<?xml version="1.0" standalone="no"?>
<!DOCTYPE svg PUBLIC "-//W3C//DTD SVG 1.1//EN" "http://www.w3.org/Graphics/SVG/1.1/DTD/svg11.dtd" >
<svg xmlns="http://www.w3.org/2000/svg" xmlns:xlink="http://www.w3.org/1999/xlink" version="1.1" viewBox="-10 -40 660 512">
   <path fill="currentColor"
d="M576 41h-512h512h-512q-20 1 -34 14q-13 14 -14 34v256v0q1 20 14 34q14 13 34 14h136v0q29 -1 43 -26l40 -79v0q12 -22 37 -23q25 1 38 23l39 79v0q14 25 43 26h136v0q20 -1 34 -14q13 -14 14 -34v-256v0q-1 -20 -14 -34q-14 -13 -34 -14v0zM64 25h512h-512h512
q27 1 45 19t19 45v256v0q-1 27 -19 45t-45 19h-136v0q-39 -1 -58 -35l-39 -79v0q-7 -13 -23 -14q-16 1 -23 14l-39 79v0q-19 34 -58 35h-136v0q-27 -1 -45 -19t-19 -45v-256v0q1 -27 19 -45t45 -19v0zM176 265q36 -1 55 -32q18 -32 0 -64q-19 -31 -55 -32q-36 1 -55 32
q-18 32 0 64q19 31 55 32v0zM176 121q45 1 69 40q22 40 0 80q-24 39 -69 40q-45 -1 -69 -40q-22 -40 0 -80q24 -39 69 -40v0zM528 201q-1 -36 -32 -55q-32 -18 -64 0q-31 19 -32 55q1 36 32 55q32 18 64 0q31 -19 32 -55v0zM384 201q1 -45 40 -69q40 -22 80 0q39 24 40 69
q-1 45 -40 69q-40 22 -80 0q-39 -24 -40 -69v0z" />
</svg>
