<?xml version="1.0" standalone="no"?>
<!DOCTYPE svg PUBLIC "-//W3C//DTD SVG 1.1//EN" "http://www.w3.org/Graphics/SVG/1.1/DTD/svg11.dtd" >
<svg xmlns="http://www.w3.org/2000/svg" xmlns:xlink="http://www.w3.org/1999/xlink" version="1.1" viewBox="-10 -40 532 512">
   <path fill="currentColor"
d="M470 -33q7 -6 17 -6q23 2 25 26v0v0q0 9 -5 16l-75 97v0v29v0q-2 22 -24 24h-28v0l-275 305v0q-14 15 -34 15q-18 0 -32 -13l-26 -26v0q-13 -14 -13 -32q0 -20 15 -34l97 -88v0v-39v0q2 -22 24 -24h45v0l289 -250v0zM487 -23q-4 0 -7 2l-291 252v0q-2 2 -5 2h-48v0
q-7 1 -8 8v42v0q0 4 -3 6l-99 91v0q-10 9 -10 22q0 12 9 20l26 26v0q8 9 21 9q12 0 21 -10l277 -307v0q3 -3 6 -3h32v0q7 -1 8 -8v-32v0q0 -3 2 -5l76 -99v0q2 -3 2 -6v0v0q-1 -9 -9 -10v0z" />
</svg>
