<?xml version="1.0" standalone="no"?>
<!DOCTYPE svg PUBLIC "-//W3C//DTD SVG 1.1//EN" "http://www.w3.org/Graphics/SVG/1.1/DTD/svg11.dtd" >
<svg xmlns="http://www.w3.org/2000/svg" xmlns:xlink="http://www.w3.org/1999/xlink" version="1.1" viewBox="-10 -40 660 512">
   <path fill="currentColor"
d="M174 62l-14 -85l14 85l-14 -85l-41 41v0q-22 23 -18 56l8 47v0q1 8 -4 14l-50 50v0q-38 39 -39 94q2 62 43 103t103 43h382v0q34 -1 57 -23q22 -23 23 -57v-112v0q-1 -54 -37 -90q-37 -37 -91 -38q-60 0 -115 21q-54 20 -100 58l-114 99v0q-17 14 -39 14h-1v0
q-20 0 -35 -11t-21 -29q-8 -26 6 -49l38 -61v0q5 -8 16 -7l45 8v0q32 4 55 -18l41 -41v0l-85 -14v0q-10 -2 -13 -13v0zM176 -26l14 85l-14 -85l14 85l85 14v0q9 2 12 11t-4 16l-40 41v0q-30 28 -70 22l-45 -7v0l-37 60v0q-11 17 -5 36q11 27 41 29h1v0q16 0 28 -11l115 -98
v0q47 -40 105 -62q57 -21 120 -21q61 2 102 42q40 41 42 102v112v0q-1 41 -28 68t-68 28h-382v0q-69 -2 -114 -48q-46 -45 -48 -114q1 -62 44 -106l50 -49v0l-8 -48v0q-6 -40 22 -70l41 -40v0q7 -7 16 -4t11 12v0zM400 249q15 1 16 16q-1 15 -16 16q-15 -1 -16 -16
q1 -15 16 -16v0z" />
</svg>
