<?xml version="1.0" standalone="no"?>
<!DOCTYPE svg PUBLIC "-//W3C//DTD SVG 1.1//EN" "http://www.w3.org/Graphics/SVG/1.1/DTD/svg11.dtd" >
<svg xmlns="http://www.w3.org/2000/svg" xmlns:xlink="http://www.w3.org/1999/xlink" version="1.1" viewBox="-10 -40 532 512">
   <path fill="currentColor"
d="M402 -37q6 -4 12 0l96 96v0q4 6 0 12q-6 4 -12 0l-14 -14v0l-83 83v0q-13 15 -8 35q7 31 -2 62q-8 31 -32 56l-162 161v0q-19 19 -45 19q-25 0 -45 -19l-88 -88v0q-19 -19 -19 -45q0 -25 19 -45l11 11v0q-14 15 -14 34t14 34l88 88v0q15 14 34 14t34 -14l30 -30v0
l-156 -156v0l-30 30v0l-11 -11v0l161 -162v0q25 -24 56 -32t62 -1q20 4 35 -9l83 -83v0l-14 -14v0q-4 -6 0 -12v0zM72 245l156 156l-156 -156l156 156l100 -100v0l-156 -156v0l-100 100v0zM184 133l156 156l-156 -156l156 156l7 -7v0q21 -22 29 -49q7 -27 1 -54
q-7 -27 13 -50l11 -12v0l-45 -45v0l-11 11v0q-24 20 -51 13q-27 -6 -54 1q-27 8 -48 29l-8 7v0zM367 61l45 45l-45 -45l45 45l61 -61v0l-45 -45v0l-61 61v0z" />
</svg>
