<?xml version="1.0" standalone="no"?>
<!DOCTYPE svg PUBLIC "-//W3C//DTD SVG 1.1//EN" "http://www.w3.org/Graphics/SVG/1.1/DTD/svg11.dtd" >
<svg xmlns="http://www.w3.org/2000/svg" xmlns:xlink="http://www.w3.org/1999/xlink" version="1.1" viewBox="-10 -40 532 512">
   <path fill="currentColor"
d="M16 1v464v-464v464q-1 7 -8 8q-7 -1 -8 -8v-464v0q0 -17 12 -28q11 -12 28 -12h24v0v16v0h-24v0q-22 2 -24 24v0zM432 -23v384v-384v384q0 14 9 23t23 9t23 -9t9 -23v-360v0q-2 -22 -24 -24h-40v0zM496 397q-13 12 -32 12q-26 -1 -40 -21q-14 20 -40 21q-26 -1 -40 -21
q-14 20 -40 21q-26 -1 -40 -21q-14 20 -40 21q-26 -1 -40 -21q-14 20 -40 21q-20 -1 -34 -14q-13 -14 -14 -34v-368v0q0 -14 9 -23t23 -9h48h296q17 0 28 12q12 11 12 28v360v0v104v0q-1 7 -8 8q-7 -1 -8 -8v-68v0zM128 -23q-15 1 -16 16v368v0q0 14 9 23t23 9t23 -9t9 -23
v-384v0h-48v0zM192 -23v384v-384v384q0 14 9 23t23 9t23 -9t9 -23v-384v0h-64v0zM272 -23v384v-384v384q0 14 9 23t23 9t23 -9t9 -23v-384v0h-64v0zM352 -23v384v-384v384q0 14 9 23t23 9t23 -9t9 -23v-384v0h-64v0z" />
</svg>
