<?xml version="1.0" standalone="no"?>
<!DOCTYPE svg PUBLIC "-//W3C//DTD SVG 1.1//EN" "http://www.w3.org/Graphics/SVG/1.1/DTD/svg11.dtd" >
<svg xmlns="http://www.w3.org/2000/svg" xmlns:xlink="http://www.w3.org/1999/xlink" version="1.1" viewBox="-10 -40 532 512">
   <path fill="currentColor"
d="M399 92q-2 8 3 14q5 5 13 5v0h1q34 1 56 25q23 24 24 60q-1 37 -24 60q-22 24 -56 25h-43v0q3 8 5 16h38v0q41 -1 68 -30q27 -28 28 -71q-1 -38 -23 -66q-23 -27 -58 -33q-8 -2 -15 -2h-1h-1q2 -7 2 -16v0v0q-1 -36 -23 -60q-23 -24 -57 -24q-28 0 -49 17q-6 5 -12 12
q-3 -8 -8 -15q-33 -46 -91 -48q-48 1 -79 34q-32 34 -33 84q0 11 2 21q-29 11 -47 37q-18 25 -19 59q1 43 28 71q27 29 68 30h38v0q2 -8 5 -16h-43v0q-34 -1 -56 -25q-23 -23 -24 -60q0 -29 16 -50q15 -22 39 -30q12 -6 11 -18q-2 -10 -2 -19q1 -44 28 -73q28 -28 68 -29
q28 0 50 15q22 14 35 39q4 8 12 9q9 1 15 -6q18 -23 48 -24q27 1 45 20t19 48q0 8 -1 14v0zM232 286q4 -19 24 -21q20 2 24 21q1 4 5 6q4 1 8 -1q16 -11 31 2q13 15 2 32q-2 3 -1 7q2 5 6 5q19 4 21 24q-2 20 -21 24q-4 1 -6 5q-1 4 1 8q11 16 -2 31q-15 13 -31 2
q-4 -2 -8 -1q-4 2 -5 6q-4 19 -24 21q-20 -2 -24 -21q-1 -4 -5 -6q-4 -1 -8 1q-16 11 -31 -2q-13 -15 -2 -31q2 -4 1 -8q-2 -5 -6 -5q-19 -4 -21 -24q2 -20 21 -24q4 -1 6 -5t-1 -8q-11 -16 2 -31q15 -13 32 -2q3 2 7 1q4 -2 5 -6v0zM256 249q-26 1 -37 24q-23 -9 -42 9
q-17 19 -9 42q-23 11 -24 37q1 26 24 37q-9 23 9 42q19 17 42 9q11 23 37 24q26 -1 37 -24q23 9 42 -9q17 -19 9 -42q23 -11 24 -37q-1 -26 -24 -37q9 -23 -9 -42q-19 -17 -42 -9q-11 -23 -37 -24v0zM16 361q0 -14 9 -23v0v0q9 -9 23 -9t23 9t9 23t-9 23t-23 9t-23 -9
t-9 -23v0zM96 361q-1 -27 -24 -42q-24 -12 -48 0q-23 15 -24 42q1 27 24 42q24 12 48 0q23 -15 24 -42v0zM464 329q14 0 23 9v0v0q9 9 9 23t-9 23t-23 9t-23 -9t-9 -23t9 -23t23 -9v0zM464 409q27 -1 42 -24q12 -24 0 -48q-15 -23 -42 -24q-27 1 -42 24q-12 24 0 48
q15 23 42 24v0z" />
</svg>
