<?xml version="1.0" standalone="no"?>
<!DOCTYPE svg PUBLIC "-//W3C//DTD SVG 1.1//EN" "http://www.w3.org/Graphics/SVG/1.1/DTD/svg11.dtd" >
<svg xmlns="http://www.w3.org/2000/svg" xmlns:xlink="http://www.w3.org/1999/xlink" version="1.1" viewBox="-10 -40 660 512">
   <path fill="currentColor"
d="M313 33q18 -8 39 -8q41 1 68 28t28 68q0 17 -5 32q-10 1 -19 2q8 -16 8 -34q-1 -34 -23 -57q-23 -22 -57 -23q-22 0 -40 11q-3 1 -7 0q-3 -1 -5 -5q-9 -31 -34 -50q-24 -19 -58 -20q-39 1 -66 26q-26 25 -30 63q0 3 -2 6q-3 2 -6 1h-8q-34 1 -56 24q-23 22 -24 56
q1 34 24 57q22 22 56 23h68v0q-2 8 -3 16h-65v0q-41 -1 -68 -28t-28 -68q1 -41 28 -68t68 -28h1v0q7 -42 37 -68q31 -27 74 -28q36 1 64 20q28 20 41 52v0zM527 278q1 -6 1 -13q-1 -27 -19 -45t-45 -19q-30 1 -49 22q-5 7 -13 6q-9 -1 -13 -9q-12 -23 -35 -37
q-22 -14 -50 -14q-41 1 -68 28t-28 68q0 9 2 18q1 13 -11 18q-24 8 -39 29q-16 20 -16 47q1 34 23 57q23 22 57 23h320v0q34 -1 57 -23q22 -23 23 -57q-1 -34 -23 -57q-23 -22 -57 -23h-1v0q-8 0 -13 -6t-3 -13v0zM304 153q58 2 90 46q5 7 9 14q6 -6 12 -11q21 -17 49 -17
q34 1 57 23q22 23 23 57q0 8 -2 16h1h1q7 0 15 1q35 6 58 32q22 26 23 63q-1 41 -28 68t-68 28h-320v0q-41 -1 -68 -28t-28 -68q1 -32 19 -57q18 -24 47 -34q-2 -10 -2 -21q1 -48 33 -79q31 -32 79 -33v0z" />
</svg>
