<?xml version="1.0" standalone="no"?>
<!DOCTYPE svg PUBLIC "-//W3C//DTD SVG 1.1//EN" "http://www.w3.org/Graphics/SVG/1.1/DTD/svg11.dtd" >
<svg xmlns="http://www.w3.org/2000/svg" xmlns:xlink="http://www.w3.org/1999/xlink" version="1.1" viewBox="-10 -40 532 512">
   <path fill="currentColor"
d="M192 457q-75 -2 -124 -52v0v0q-50 -49 -52 -124q0 -30 20 -74q19 -43 47 -89q29 -45 55 -81q27 -36 41 -54q5 -6 12 -6h2v0q7 0 12 6q14 18 41 54q26 36 55 81q28 46 47 89q20 44 20 74q-2 75 -52 124q-49 50 -124 52v0zM0 281q2 82 56 136v0v0q54 54 136 56
q82 -2 136 -56t56 -136q-2 -47 -35 -110t-72 -118t-60 -80q-9 -12 -24 -12h-2v0q-15 0 -24 12q-21 25 -60 80t-72 118t-35 110v0zM400 57q1 -27 24 -42q24 -12 48 0q23 15 24 42q-1 27 -24 42q-24 12 -48 0q-23 -15 -24 -42v0zM512 57q-1 -36 -32 -55q-32 -18 -64 0
q-31 19 -32 55q1 36 32 55q32 18 64 0q31 -19 32 -55v0z" />
</svg>
