<?xml version="1.0" standalone="no"?>
<!DOCTYPE svg PUBLIC "-//W3C//DTD SVG 1.1//EN" "http://www.w3.org/Graphics/SVG/1.1/DTD/svg11.dtd" >
<svg xmlns="http://www.w3.org/2000/svg" xmlns:xlink="http://www.w3.org/1999/xlink" version="1.1" viewBox="-10 -40 660 512">
   <path fill="currentColor"
d="M286 -23q2 0 4 2q24 21 45 46q13 12 25 0q9 -11 18 -20q4 -3 8 0q30 28 54 68q23 40 24 79q-1 45 -24 80l9 9q4 -3 8 -5q22 -37 23 -84q-2 -45 -27 -87q-24 -43 -56 -71q-15 -12 -30 -1q-10 11 -19 22v0h-1v0v0v0v0q-22 -26 -47 -48q-6 -6 -14 -6q-9 0 -15 6
q-39 33 -74 81q-34 48 -37 104q1 47 23 84q4 2 8 5q4 -5 9 -9q-23 -35 -24 -80q2 -49 35 -95t71 -78q1 -2 4 -2v0zM415 213q-8 -41 -37 -73v0v0q-30 -31 -49 -45q-9 -6 -18 0q-19 14 -49 45q-29 32 -37 73q9 -6 18 -10q8 -25 28 -48q29 -32 49 -46q20 14 49 46q20 23 28 47
q9 5 18 11v0zM205 305q16 -32 46 -52v0v0q30 -19 69 -20q39 1 69 20q30 20 46 52q2 4 7 5q4 0 7 -4q28 -39 79 -41q41 1 68 28t28 68q-1 41 -28 68t-68 28h-416v0q-41 -1 -68 -28t-28 -68q1 -41 28 -68t68 -28q51 2 79 41q3 4 7 4q5 -1 7 -5v0zM320 217q-40 0 -72 19v0v0
q-32 19 -52 51q-32 -36 -84 -38q-48 1 -79 33q-32 31 -33 79q1 48 33 79q31 32 79 33h416v0q48 -1 79 -33q32 -31 33 -79q-1 -48 -33 -79q-31 -32 -79 -33q-52 2 -84 38q-20 -32 -52 -51t-72 -19v0z" />
</svg>
