<?xml version="1.0" standalone="no"?>
<!DOCTYPE svg PUBLIC "-//W3C//DTD SVG 1.1//EN" "http://www.w3.org/Graphics/SVG/1.1/DTD/svg11.dtd" >
<svg xmlns="http://www.w3.org/2000/svg" xmlns:xlink="http://www.w3.org/1999/xlink" version="1.1" viewBox="-10 -40 468 512">
   <path fill="currentColor"
d="M16 -31q-1 -7 -8 -8q-7 1 -8 8v56v0v320v0v16v0v104v0q1 7 8 8q7 -1 8 -8v-108v0l112 -28v0q64 -15 123 13q69 34 142 8l34 -13v0q20 -9 21 -30v-291v0q-1 -14 -11 -21q-11 -6 -24 -1l-19 10v0q-36 18 -74 18t-74 -18q-54 -26 -113 -12l-117 29v0v-52v0zM16 271l121 -26
l-121 26l121 -26q54 -11 106 8l25 10v0q68 26 136 4l28 -10v0v50v0q-1 11 -11 15l-34 13v0q-66 23 -129 -7q-64 -31 -134 -15l-108 28v0v-70v0zM16 255v-56v56v-56l117 -25v0q58 -12 113 12l14 6v0q76 32 153 4l19 -8v0v53v0l-33 11v0q-63 20 -125 -4l-25 -10v0
q-56 -21 -115 -9l-118 26v0zM16 183v-145v145v-145l121 -31v0q11 -3 23 -4v151v0q-15 1 -31 4l-113 25v0zM176 154v-64v64v-64q36 1 70 16l14 6v0q76 32 153 4l19 -8v0v63v0l-24 10v0q-72 26 -142 -4l-14 -6v0q-36 -16 -76 -17v0zM176 74v-71v71v-71q33 1 63 15q39 20 81 20
t81 -20l20 -9v0q9 -3 11 7v75v0l-24 10v0q-72 26 -142 -4l-13 -6v0q-37 -16 -77 -17v0zM72 69q-1 -11 -12 -12q-11 1 -12 12q1 11 12 12q11 -1 12 -12v0zM116 65q11 -1 12 -12q-1 -11 -12 -12q-11 1 -12 12q1 11 12 12v0zM72 125q-1 -11 -12 -12q-11 1 -12 12q1 11 12 12
q11 -1 12 -12v0zM116 121q11 -1 12 -12q-1 -11 -12 -12q-11 1 -12 12q1 11 12 12v0z" />
</svg>
