<?xml version="1.0" standalone="no"?>
<!DOCTYPE svg PUBLIC "-//W3C//DTD SVG 1.1//EN" "http://www.w3.org/Graphics/SVG/1.1/DTD/svg11.dtd" >
<svg xmlns="http://www.w3.org/2000/svg" xmlns:xlink="http://www.w3.org/1999/xlink" version="1.1" viewBox="-10 -40 404 512">
   <path fill="currentColor"
d="M192 457q-75 -2 -124 -52v0v0q-50 -49 -52 -124q0 -30 20 -74q19 -43 47 -89q29 -45 55 -81q27 -36 41 -54q5 -6 12 -6h2v0q7 0 12 6q14 18 41 54q26 36 55 81q28 46 47 89q20 44 20 74q-2 75 -52 124q-49 50 -124 52v0zM0 281q2 82 56 136v0v0q54 54 136 56
q82 -2 136 -56t56 -136q-2 -47 -35 -110t-72 -118t-60 -80q-9 -12 -24 -12h-2v0q-15 0 -24 12q-21 25 -60 80t-72 118t-35 110v0zM270 215q4 -6 0 -12q-6 -4 -12 0l-144 144v0q-4 6 0 12q6 4 12 0l144 -144v0zM176 233q0 -14 -9 -23v0v0q-9 -9 -23 -9t-23 9t-9 23t9 23t23 9
t23 -9t9 -23v0zM144 217q15 1 16 16q-1 15 -16 16q-15 -1 -16 -16q1 -15 16 -16v0zM240 361q14 0 23 -9v0v0q9 -9 9 -23t-9 -23t-23 -9t-23 9t-9 23t9 23t23 9v0zM224 329q1 -15 16 -16q15 1 16 16q-1 15 -16 16q-15 -1 -16 -16v0z" />
</svg>
