<?xml version="1.0" standalone="no"?>
<!DOCTYPE svg PUBLIC "-//W3C//DTD SVG 1.1//EN" "http://www.w3.org/Graphics/SVG/1.1/DTD/svg11.dtd" >
<svg xmlns="http://www.w3.org/2000/svg" xmlns:xlink="http://www.w3.org/1999/xlink" version="1.1" viewBox="-10 -40 660 512">
   <path fill="currentColor"
d="M112 9q0 -14 -9 -23v0v0q-9 -9 -23 -9t-23 9t-9 23t9 23t23 9t23 -9t9 -23v0zM32 9q1 -27 24 -42q24 -12 48 0q23 15 24 42q-1 27 -24 42q-24 12 -48 0q-23 -15 -24 -42v0zM512 9v128v-128v128h80v0q14 0 23 -9t9 -23v-64v0q0 -14 -9 -23t-23 -9h-80v0zM496 9h-224h224
h-224q-14 0 -23 9t-9 23v64v0q0 14 9 23t23 9h224v0v-128v0zM224 41q1 -20 14 -34v0v0q14 -13 34 -14h320v0q20 1 34 14q13 14 14 34v64v0q-1 20 -14 34q-14 13 -34 14h-320v0q-20 -1 -34 -14q-13 -14 -14 -34v-64v0zM384 297v128v-128v128h208v0q14 0 23 -9t9 -23v-64v0
q0 -14 -9 -23t-23 -9h-208v0zM368 297h-96h96h-96q-14 0 -23 9t-9 23v64v0q0 14 9 23t23 9h96v0v-128v0zM224 329q1 -20 14 -34v0v0q14 -13 34 -14h320v0q20 1 34 14q13 14 14 34v64v0q-1 20 -14 34q-14 13 -34 14h-320v0q-20 -1 -34 -14q-13 -14 -14 -34v-64v0zM112 297
q0 -14 -9 -23v0v0q-9 -9 -23 -9t-23 9t-9 23t9 23t23 9t23 -9t9 -23v0zM32 297q1 -27 24 -42q24 -12 48 0q23 15 24 42q-1 27 -24 42q-24 12 -48 0q-23 -15 -24 -42v0zM64 105q-20 1 -34 14v0v0q-13 14 -14 34q1 15 16 16h96v0q15 -1 16 -16q-1 -20 -14 -34q-14 -13 -34 -14
h-32v0zM64 89h32h-32h32q27 1 45 19t19 45q0 14 -9 23t-23 9h-96v0q-14 0 -23 -9t-9 -23q1 -27 19 -45t45 -19v0zM16 441q1 15 16 16h96v0q15 -1 16 -16q-1 -20 -14 -34q-14 -13 -34 -14h-32v0q-20 1 -34 14q-13 14 -14 34v0zM0 441q1 -27 19 -45v0v0q18 -18 45 -19h32v0
q27 1 45 19t19 45q0 14 -9 23t-23 9h-96v0q-14 0 -23 -9t-9 -23v0z" />
</svg>
