<?xml version="1.0" standalone="no"?>
<!DOCTYPE svg PUBLIC "-//W3C//DTD SVG 1.1//EN" "http://www.w3.org/Graphics/SVG/1.1/DTD/svg11.dtd" >
<svg xmlns="http://www.w3.org/2000/svg" xmlns:xlink="http://www.w3.org/1999/xlink" version="1.1" viewBox="-10 -40 660 512">
   <path fill="currentColor"
d="M0 129q1 -58 40 -96v0v0q38 -39 96 -40h240v0q58 1 96 40q39 38 40 96v112v0v64v0v8v0v24v0q2 22 24 24q22 -2 24 -24v-64v0q0 -17 12 -28q11 -12 28 -12t28 12q12 11 12 28v64v0q-1 44 -30 74q-30 29 -74 30q-28 0 -51 -13t-37 -36v9v0q0 17 -12 28q-11 12 -28 12h-80v0
q-17 0 -28 -12q-12 -11 -12 -28v-72v0h-128v0v72v0q0 17 -12 28q-11 12 -28 12h-80v0q-17 0 -28 -12q-12 -11 -12 -28v-160v0v-112v0zM496 249h-480h480h-480v152v0q2 22 24 24h80v0q22 -2 24 -24v-80v0q1 -7 8 -8h144v0q7 1 8 8v80v0q2 22 24 24h80v0q22 -2 24 -24v-64v0
v-8v0q1 -7 8 -8q7 1 8 8v8v0q1 37 26 62t62 26q37 -1 62 -26t26 -62v-64v0q-2 -22 -24 -24q-22 2 -24 24v64v0q0 17 -12 28q-11 12 -28 12t-28 -12q-12 -11 -12 -28v-24v0v-8v0v-56v0zM496 233v-104v104v-104q-1 -51 -35 -85t-85 -35h-240v0q-51 1 -85 35t-35 85v104v0h480
v0zM136 89v24v-24v24h24v0q7 1 8 8q-1 7 -8 8h-24v0v24v0q-1 7 -8 8q-7 -1 -8 -8v-24v0h-24v0q-7 -1 -8 -8q1 -7 8 -8h24v0v-24v0q1 -7 8 -8q7 1 8 8v0zM256 81q7 1 8 8v24v0h24v0q7 1 8 8q-1 7 -8 8h-24v0v24v0q-1 7 -8 8q-7 -1 -8 -8v-24v0h-24v0q-7 -1 -8 -8q1 -7 8 -8
h24v0v-24v0q1 -7 8 -8v0zM392 89v24v-24v24h24v0q7 1 8 8q-1 7 -8 8h-24v0v24v0q-1 7 -8 8q-7 -1 -8 -8v-24v0h-24v0q-7 -1 -8 -8q1 -7 8 -8h24v0v-24v0q1 -7 8 -8q7 1 8 8v0z" />
</svg>
