<?xml version="1.0" standalone="no"?>
<!DOCTYPE svg PUBLIC "-//W3C//DTD SVG 1.1//EN" "http://www.w3.org/Graphics/SVG/1.1/DTD/svg11.dtd" >
<svg xmlns="http://www.w3.org/2000/svg" xmlns:xlink="http://www.w3.org/1999/xlink" version="1.1" viewBox="-10 -40 660 512">
   <path fill="currentColor"
d="M176 -39q-61 2 -102 42v0v0q-40 41 -42 102q2 61 42 102q41 40 102 42h123v0q35 31 85 32q50 -1 85 -32h27v0q48 -1 79 -33q32 -31 33 -79q-1 -48 -33 -79q-31 -32 -79 -33q-16 0 -31 4q-16 -31 -46 -49q-30 -19 -67 -19q-50 1 -85 32q-38 -31 -91 -32v0zM48 105
q1 -54 37 -91v0v0q37 -36 91 -37q51 1 86 33q5 4 11 0q31 -32 79 -33q34 0 61 18t41 47q3 6 10 5q15 -6 32 -6q41 1 68 28t28 68q-1 41 -28 68t-68 28h-30v0q-4 0 -6 2q-31 29 -76 30q-45 -1 -76 -30q-2 -2 -5 -2h-127v0q-54 -1 -91 -37q-36 -37 -37 -91v0zM72 345
q-7 1 -8 8q1 7 8 8h144v0q7 -1 8 -8q-1 -7 -8 -8h-144v0zM264 345q-7 1 -8 8q1 7 8 8h368v0q7 -1 8 -8q-1 -7 -8 -8h-368v0zM8 457q-7 1 -8 8q1 7 8 8h368v0q7 -1 8 -8q-1 -7 -8 -8h-368v0zM424 457q-7 1 -8 8q1 7 8 8h144v0q7 -1 8 -8q-1 -7 -8 -8h-144v0z" />
</svg>
