<?xml version="1.0" standalone="no"?>
<!DOCTYPE svg PUBLIC "-//W3C//DTD SVG 1.1//EN" "http://www.w3.org/Graphics/SVG/1.1/DTD/svg11.dtd" >
<svg xmlns="http://www.w3.org/2000/svg" xmlns:xlink="http://www.w3.org/1999/xlink" version="1.1" viewBox="-10 -40 532 512">
   <path fill="currentColor"
d="M402 99q-5 -6 -3 -13q1 -6 1 -13q-1 -27 -19 -45t-45 -19q-30 1 -49 22q-5 7 -13 6q-9 -1 -13 -9q-12 -23 -35 -37q-22 -14 -50 -14q-41 1 -68 28t-28 68q0 9 2 18q1 13 -11 18q-24 8 -39 29q-16 20 -16 47q1 34 23 57q23 22 57 23h67v0l-20 16v0h-47v0q-41 -1 -68 -28
t-28 -68q1 -32 19 -57q18 -24 47 -34q-2 -10 -2 -21q1 -48 33 -79q31 -32 79 -33q58 2 90 46q5 7 9 14q6 -6 12 -11q21 -16 49 -17q34 1 57 23q22 23 23 57q0 8 -2 16h1h1q7 0 15 1q35 6 58 32q22 26 23 63q-1 41 -28 68t-68 28h-64h-18l8 -16v0h74v0q34 -1 57 -23
q22 -23 23 -57q-1 -34 -23 -57q-23 -22 -57 -23h-1v0q-8 0 -13 -6v0zM268 306l52 -105l-52 105l52 -105l-160 128v0h70v0q9 0 14 8q4 7 0 15l-52 105v0l160 -128v0h-70v0q-9 0 -14 -8q-4 -7 0 -15v0zM334 208l-44 89l44 -89l-44 89l-8 16v0h18h52q11 1 15 11q3 10 -5 18
l-160 128v0q-10 7 -20 -1q-9 -8 -4 -19l44 -89v0l8 -16v0h-18h-52q-11 -1 -15 -11q-3 -10 5 -17l160 -128v0q10 -8 20 0q9 8 4 19v0z" />
</svg>
