<?xml version="1.0" standalone="no"?>
<!DOCTYPE svg PUBLIC "-//W3C//DTD SVG 1.1//EN" "http://www.w3.org/Graphics/SVG/1.1/DTD/svg11.dtd" >
<svg xmlns="http://www.w3.org/2000/svg" xmlns:xlink="http://www.w3.org/1999/xlink" version="1.1" viewBox="-10 -40 532 512">
   <path fill="currentColor"
d="M211 8q-2 5 -6 6q-5 0 -8 -3q-14 -17 -37 -18q-20 1 -34 14q-13 14 -14 34q1 20 14 34q14 13 34 14q20 0 34 -14q2 -2 6 -2q4 1 6 4l32 50v0q7 10 18 10t18 -10l32 -50v0q2 -3 6 -4q4 0 6 2q14 14 34 14q20 -1 34 -14q13 -14 14 -34q-1 -20 -14 -34q-14 -13 -34 -14
q-23 1 -37 18q-3 3 -8 3q-4 -1 -6 -6q-12 -29 -45 -31q-33 2 -45 31v0zM256 -39q36 2 55 31q17 -15 41 -15q27 1 45 19t19 45q-1 27 -19 45t-45 19q-21 0 -37 -12l-28 43v0q-11 16 -31 17q-20 -1 -31 -17l-28 -43v0q-16 12 -37 12q-27 -1 -45 -19t-19 -45q1 -27 19 -45
t45 -19q24 0 41 15q19 -29 55 -31v0zM16 421q0 15 11 25v0v0q10 11 25 11h408v0q15 0 25 -11q11 -10 11 -25q0 -14 -9 -24l-97 -109v0l-28 42v0q-10 15 -28 15q-14 0 -24 -10l-34 -34v0q-20 -20 -48 -20q-20 0 -37 11l-18 12v0q-13 9 -29 9t-29 -9l-5 -3v0l-85 96v0
q-9 10 -9 24v0zM349 321l30 -46l-30 46l30 -46l-42 -47v0q-24 -26 -60 -27h-42v0q-36 1 -60 27l-54 61v0l3 2v0q9 6 20 6t20 -6l18 -12v0q21 -14 46 -14q34 0 59 24l34 35v0q6 5 13 5q9 0 15 -8v0zM349 217l39 45l-39 -45l39 45v0v0l11 12v0v0v0l100 112v0q13 15 13 35
q-1 22 -15 37q-15 15 -37 15h-408v0q-22 -1 -37 -15q-14 -15 -15 -37q0 -20 13 -35l84 -94v0v0v0l10 -12v0v0v0l56 -63v0q29 -31 72 -32h42v0q43 1 72 32v0z" />
</svg>
