<?xml version="1.0" standalone="no"?>
<!DOCTYPE svg PUBLIC "-//W3C//DTD SVG 1.1//EN" "http://www.w3.org/Graphics/SVG/1.1/DTD/svg11.dtd" >
<svg xmlns="http://www.w3.org/2000/svg" xmlns:xlink="http://www.w3.org/1999/xlink" version="1.1" viewBox="-10 -40 596 512">
   <path fill="currentColor"
d="M288 -39q7 1 8 8v221v0l74 -75v0q6 -4 12 0q4 6 0 12l-88 88v0q-6 4 -12 0l-88 -88v0q-4 -6 0 -12q6 -4 12 0l74 75v0v-221v0q1 -7 8 -8v0zM322 299q13 12 29 21v0v0q16 9 33 9t33 -9t29 -21q15 -14 27 -31q3 -3 7 -3t7 3q11 16 25 29q24 25 57 32q7 1 7 8q-2 8 -9 7
q-20 -3 -37 -13q-17 -11 -29 -23q-14 -13 -21 -22q-8 10 -23 25q-14 13 -33 23q-18 10 -40 11q-22 -1 -40 -11q-19 -10 -33 -23q-15 -15 -23 -25v0v0v0v0q-8 10 -23 25q-14 13 -33 23q-18 10 -40 11q-22 -1 -40 -11q-19 -10 -33 -23q-15 -15 -23 -25q-7 9 -21 22
q-12 12 -29 23q-17 10 -37 13q-7 1 -9 -6q0 -8 7 -9q33 -7 57 -32q14 -13 25 -29q3 -3 7 -3t7 3q12 17 27 31q13 12 29 21t33 9t33 -9t29 -21q15 -14 27 -31q7 -6 14 0q12 17 27 31v0zM295 396q12 17 27 31q13 12 29 21t33 9t33 -9t29 -21q15 -14 27 -31q3 -3 7 -3t7 3
q11 16 25 29q24 25 57 32q7 1 7 8q-2 8 -9 7q-20 -3 -37 -13q-17 -11 -29 -23q-14 -13 -21 -22q-8 10 -23 25q-14 13 -33 23q-18 10 -40 11q-22 -1 -40 -11q-19 -10 -33 -23q-15 -15 -23 -25v0v0v0v0q-8 10 -23 25q-14 13 -33 23q-18 10 -40 11q-22 -1 -40 -11
q-19 -10 -33 -23q-15 -15 -23 -25q-7 9 -21 22q-12 12 -29 23q-17 10 -37 13q-7 1 -9 -6q0 -8 7 -9q33 -7 57 -32q14 -13 25 -29q3 -3 7 -3t7 3q12 17 27 31q13 12 29 21t33 9t33 -9t29 -21q15 -14 27 -31q7 -6 14 0v0z" />
</svg>
