<?xml version="1.0" standalone="no"?>
<!DOCTYPE svg PUBLIC "-//W3C//DTD SVG 1.1//EN" "http://www.w3.org/Graphics/SVG/1.1/DTD/svg11.dtd" >
<svg xmlns="http://www.w3.org/2000/svg" xmlns:xlink="http://www.w3.org/1999/xlink" version="1.1" viewBox="-10 -40 660 512">
   <path fill="currentColor"
d="M224 425q66 -1 117 -36v0v0q51 -35 75 -92h17v0q-25 64 -81 104q-55 39 -128 40q-63 -1 -113 -31q-51 -29 -80 -80q-30 -50 -31 -113q1 -63 31 -113q29 -51 80 -80q50 -30 113 -31q63 1 113 31q51 29 80 80q30 50 31 113h-16v0q-2 -88 -61 -147t-147 -61q-88 2 -147 61
t-61 147q2 88 61 147t147 61v0zM224 89q7 1 8 8v160v0q-1 7 -8 8q-7 -1 -8 -8v-160v0q1 -7 8 -8v0zM208 313q1 -15 16 -16q15 1 16 16q-1 15 -16 16q-15 -1 -16 -16v0zM480 433q1 -7 8 -8h56v0q34 -1 57 -23q22 -23 23 -57q-1 -34 -23 -57q-23 -22 -57 -23h-216v0
q-7 -1 -8 -8q1 -7 8 -8h216v0q41 1 68 28t28 68q-1 41 -28 68t-68 28h-56v0q-7 -1 -8 -8v0zM544 185h-66h66h-66l-2 -16h68v0q34 -1 57 -23q22 -23 23 -57q-1 -34 -23 -57q-23 -22 -57 -23h-56v0q-7 -1 -8 -8q1 -7 8 -8h56v0q41 1 68 28t28 68q-1 41 -28 68t-68 28v0z" />
</svg>
