<?xml version="1.0" standalone="no"?>
<!DOCTYPE svg PUBLIC "-//W3C//DTD SVG 1.1//EN" "http://www.w3.org/Graphics/SVG/1.1/DTD/svg11.dtd" >
<svg xmlns="http://www.w3.org/2000/svg" xmlns:xlink="http://www.w3.org/1999/xlink" version="1.1" viewBox="-10 -40 660 512">
   <path fill="currentColor"
d="M283 1q-54 -18 -102 4v0v0q-47 23 -68 75l-15 40v0q-22 59 -75 95l-8 5v0q-16 11 -14 31q3 19 20 26l231 84v0l1 -4v0q2 -6 3 -12l-229 -83v0q-9 -4 -11 -13q0 -10 8 -16l8 -5v0q57 -38 81 -103l15 -40v0q18 -45 60 -65t89 -4q1 1 2 1q2 0 3 1q7 -6 15 -11l-14 -6v0z
M284 366l-5 15l5 -15l-5 15q-4 19 9 33q15 12 33 6l298 -108v0q17 -7 20 -26q2 -19 -14 -30l-13 -10v0q-52 -35 -74 -93l-19 -52v0q-21 -54 -71 -77t-105 -5q-55 22 -78 71q-23 50 -4 106l19 51v0q21 59 4 119v0zM348 35q49 -17 93 4v0v0q44 20 63 68l19 51v0q24 64 80 102
l13 9v0q8 5 7 15q-1 9 -10 13l-297 108v0q-10 3 -17 -3q-7 -7 -4 -16l4 -16v0q18 -65 -4 -129l-19 -51v0q-17 -49 4 -93q20 -44 68 -62v0zM440 405q-5 5 -1 11q12 13 29 18q17 4 34 -3t27 -21q9 -15 9 -33q-1 -7 -9 -7q-7 1 -7 8q-1 27 -26 38q-26 9 -45 -11q-5 -5 -11 0v0z
M186 373q-19 20 -45 11q-25 -12 -25 -39q-1 -7 -8 -8q-7 0 -8 8q-1 17 9 32q9 15 26 22q18 6 34 2q17 -4 29 -18q4 -6 -1 -11q-6 -4 -11 1v0z" />
</svg>
