<?xml version="1.0" standalone="no"?>
<!DOCTYPE svg PUBLIC "-//W3C//DTD SVG 1.1//EN" "http://www.w3.org/Graphics/SVG/1.1/DTD/svg11.dtd" >
<svg xmlns="http://www.w3.org/2000/svg" xmlns:xlink="http://www.w3.org/1999/xlink" version="1.1" viewBox="-10 -40 468 512">
   <path fill="currentColor"
d="M128 -31q-1 -7 -8 -8q-7 1 -8 8v56v0h-48v0q-27 1 -45 19t-19 45v48v0v16v0v256v0q1 27 19 45t45 19h320v0q27 -1 45 -19t19 -45v-256v0v-16v0v-48v0q-1 -27 -19 -45t-45 -19h-48v0v-56v0q-1 -7 -8 -8q-7 1 -8 8v56v0h-192v0v-56v0zM16 153h416h-416h416v256v0
q-1 20 -14 34q-14 13 -34 14h-320v0q-20 -1 -34 -14q-13 -14 -14 -34v-256v0zM112 41v40v-40v40q1 7 8 8q7 -1 8 -8v-40v0h192v0v40v0q1 7 8 8q7 -1 8 -8v-40v0h48v0q20 1 34 14q13 14 14 34v48v0h-416v0v-48v0q1 -20 14 -34q14 -13 34 -14h48v0zM96 233h256h-256h256
q15 1 16 16v64v0q-1 15 -16 16h-256v0q-15 -1 -16 -16v-64v0q1 -15 16 -16v0zM64 249v64v-64v64q0 14 9 23t23 9h256v0q14 0 23 -9t9 -23v-64v0q0 -14 -9 -23t-23 -9h-256v0q-14 0 -23 9t-9 23v0z" />
</svg>
