<?xml version="1.0" standalone="no"?>
<!DOCTYPE svg PUBLIC "-//W3C//DTD SVG 1.1//EN" "http://www.w3.org/Graphics/SVG/1.1/DTD/svg11.dtd" >
<svg xmlns="http://www.w3.org/2000/svg" xmlns:xlink="http://www.w3.org/1999/xlink" version="1.1" viewBox="-10 -40 532 512">
   <path fill="currentColor"
d="M80 -23q-14 0 -23 9v0v0q-9 9 -9 23v32v0q0 14 9 23t23 9h88h104q14 0 23 -9t9 -23v-32v0q0 -14 -9 -23t-23 -9h-192v0zM272 89h-88h88h-88v32v0h241v0q24 0 41 16q18 15 22 39l23 164v0q1 5 1 9v60v0q-1 27 -19 45t-45 19h-384v0q-27 -1 -45 -19t-19 -45v-59v0
q0 -5 1 -9l23 -165v0q4 -24 22 -39q17 -16 42 -16h80v0v-32v0h-88v0q-20 -1 -34 -14q-13 -14 -14 -34v-32v0q1 -20 14 -34q14 -13 34 -14h192v0q20 1 34 14q13 14 14 34v32v0q-1 20 -14 34q-14 13 -34 14v0zM168 137h-80h80h-80q-19 0 -32 12q-13 11 -16 29l-23 165v0
q-1 0 -1 1v1h480v0v-1v-1l-24 -165v0q-3 -18 -16 -29q-13 -12 -31 -12h-241h-16zM16 361v48v-48v48q1 20 14 34q14 13 34 14h384v0q20 -1 34 -14q13 -14 14 -34v-48v0h-480v0zM128 201q-1 15 -16 16q-15 -1 -16 -16q1 -15 16 -16q15 1 16 16v0zM208 217q-15 -1 -16 -16
q1 -15 16 -16q15 1 16 16q-1 15 -16 16v0zM176 281q-1 15 -16 16q-15 -1 -16 -16q1 -15 16 -16q15 1 16 16v0zM304 217q-15 -1 -16 -16q1 -15 16 -16q15 1 16 16q-1 15 -16 16v0zM272 281q-1 15 -16 16q-15 -1 -16 -16q1 -15 16 -16q15 1 16 16v0zM400 217q-15 -1 -16 -16
q1 -15 16 -16q15 1 16 16q-1 15 -16 16v0zM368 281q-1 15 -16 16q-15 -1 -16 -16q1 -15 16 -16q15 1 16 16v0zM96 17h160h-160h160q7 1 8 8q-1 7 -8 8h-160v0q-7 -1 -8 -8q1 -7 8 -8v0z" />
</svg>
