<?xml version="1.0" standalone="no"?>
<!DOCTYPE svg PUBLIC "-//W3C//DTD SVG 1.1//EN" "http://www.w3.org/Graphics/SVG/1.1/DTD/svg11.dtd" >
<svg xmlns="http://www.w3.org/2000/svg" xmlns:xlink="http://www.w3.org/1999/xlink" version="1.1" viewBox="-10 -40 660 512">
   <path fill="currentColor"
d="M224 -23q27 1 42 24q12 24 0 48q-15 23 -42 24q-27 -1 -42 -24q-12 -24 0 -48q15 -23 42 -24v0zM224 89q11 0 21 -3l37 81v0q-25 13 -40 37q-15 23 -18 53h-96v0q-4 -24 -21 -40q-18 -15 -43 -16q-27 1 -45 19t-19 45q1 27 19 45t45 19q25 -1 43 -16q17 -16 21 -40h96v0
q4 45 36 74q31 29 76 30q59 -2 92 -48l89 54v0q-5 12 -5 26q1 27 19 45t45 19q27 -1 45 -19t19 -45q-1 -27 -19 -45t-45 -19q-32 1 -50 24l-90 -53v0q12 -23 12 -51q0 -33 -17 -59l100 -71v0q18 17 45 18q27 -1 45 -19t19 -45q-1 -27 -19 -45t-45 -19q-27 1 -45 19t-19 45
q0 18 9 33l-99 71v0q-32 -38 -86 -40q-21 0 -39 7l-38 -82v0q28 -18 29 -53q-1 -27 -19 -45t-45 -19q-27 1 -45 19t-19 45q1 27 19 45t45 19v0zM64 313q-27 -1 -42 -24q-12 -24 0 -48q15 -23 42 -24q27 1 42 24q12 24 0 48q-15 23 -42 24v0zM528 409q0 -9 3 -17h1v0l8 -14v0
v0v0q13 -16 36 -17q20 1 34 14q13 14 14 34q-1 20 -14 34q-14 14 -34 14t-34 -14q-13 -14 -14 -34v0zM576 41q27 1 42 24q12 24 0 48q-15 23 -42 24q-27 -1 -42 -24q-12 -24 0 -48q15 -23 42 -24v0zM336 169q26 0 48 13v0v0q22 13 35 35q13 23 13 48t-13 48q-13 22 -35 35
t-48 13t-48 -13t-35 -35q-13 -23 -13 -48t13 -48q13 -22 35 -35t48 -13v0z" />
</svg>
