<?xml version="1.0" standalone="no"?>
<!DOCTYPE svg PUBLIC "-//W3C//DTD SVG 1.1//EN" "http://www.w3.org/Graphics/SVG/1.1/DTD/svg11.dtd" >
<svg xmlns="http://www.w3.org/2000/svg" xmlns:xlink="http://www.w3.org/1999/xlink" version="1.1" viewBox="-10 -40 586 512">
   <path fill="currentColor"
d="M240 -31q-1 -7 -8 -8q-7 1 -8 8v24v0q1 20 14 34q14 13 34 14h24h14l-41 21v0q-12 6 -13 20q2 21 23 23h33h7l-12 32v0h-195v0v0v0h-24v0q-37 1 -62 26t-26 62v48v0q1 7 8 8q7 -1 8 -8v-48v0q1 -31 21 -51t51 -21h24v0v0v0h201v0q5 0 7 -5l15 -43v0h1v0q7 -1 8 -8
q-1 -7 -8 -8h-6h-51q-6 -1 -7 -7q0 -4 4 -6l51 -25v0q19 -10 40 -10q37 1 64 27l49 49v0q2 18 16 28q-4 22 -26 24h-70v0q-6 0 -8 6l-22 82v0q-2 7 -2 14v170v0q-1 15 -16 16h-40v0q-15 -1 -16 -16v-128v0q-1 -7 -8 -8h-24v0q-45 0 -80 -28l-3 -2v0q-4 -3 -9 -1q-4 3 -4 8
l4 22v0q2 21 -15 33q-13 10 -19 25q-5 15 0 31l13 43v0q2 8 -2 15q-5 6 -13 6h-38v0q-12 -1 -16 -11l-22 -73v0q-4 -12 1 -24l8 -26v0q3 -9 3 -17v-4v0q-1 -25 -20 -39q-13 -9 -20 -22v27v0q5 5 11 8q13 10 13 26v4v0q0 6 -2 12l-9 26v0q-5 17 0 34l22 73v0q8 21 31 22h38v0
q16 -1 25 -13t5 -28l-13 -44v0q-6 -23 13 -37q25 -19 21 -50v-2v0q35 22 77 22h16v0v120v0q0 14 9 23t23 9h40v0q14 0 23 -9t9 -23v-170v0q0 -5 1 -10l21 -76v0h64v0q15 0 27 -9q11 -10 14 -24q4 1 9 1q17 0 28 -12q12 -11 12 -28t-12 -28q-11 -12 -28 -12q-26 1 -37 24
l-40 -41v0q-9 -9 -20 -15h1v0q20 -1 34 -14q13 -14 14 -34v-24v0q-1 -7 -8 -8q-7 1 -8 8v24v0q0 14 -9 23t-23 9h-8h-76q12 -13 12 -32v-24v0q-1 -7 -8 -8q-7 1 -8 8v24v0q0 14 -9 23t-23 9h-8h-24q-14 0 -23 -9t-9 -23v-24v0zM520 89q22 2 24 24q-2 22 -24 24
q-22 -2 -24 -24q2 -22 24 -24v0zM416 105q-1 -15 -16 -16q-15 1 -16 16q1 15 16 16q15 -1 16 -16v0z" />
</svg>
