<?xml version="1.0" standalone="no"?>
<!DOCTYPE svg PUBLIC "-//W3C//DTD SVG 1.1//EN" "http://www.w3.org/Graphics/SVG/1.1/DTD/svg11.dtd" >
<svg xmlns="http://www.w3.org/2000/svg" xmlns:xlink="http://www.w3.org/1999/xlink" version="1.1" viewBox="-10 -40 660 512">
   <path fill="currentColor"
d="M624 -23v64v-64v64h-608v0v-64v0h608v0zM16 -39q-15 1 -16 16v64v0q1 15 16 16h16v0v392v0q2 22 24 24h80v0q22 -2 24 -24v-136v0q2 -68 47 -113t113 -47q68 2 113 47t47 113v136v0q2 22 24 24h80v0q22 -2 24 -24v-392v0h16v0q15 -1 16 -16v-64v0q-1 -15 -16 -16h-608v0z
M48 449v-392v392v-392h544v0v392v0q-1 7 -8 8h-80v0q-7 -1 -8 -8v-136v0q-2 -75 -52 -124q-49 -50 -124 -52q-75 2 -124 52q-50 49 -52 124v136v0q-1 7 -8 8h-80v0q-7 -1 -8 -8v0zM296 232q1 0 1 1q17 15 32 32q10 10 21 0q6 -7 12 -13q1 -1 3 0q20 18 37 46q16 28 16 55
q-1 49 -38 78q7 -13 7 -28q-2 -31 -24 -56q-22 -24 -37 -34q-6 -4 -12 0q-15 10 -37 34q-22 25 -24 56q0 15 7 29q-37 -29 -38 -79q1 -34 23 -66q23 -31 50 -54q0 -1 1 -1v0zM284 221q-27 23 -52 57q-24 34 -26 75q1 48 33 81q32 32 81 33q49 -1 81 -33q32 -33 33 -81
q-1 -33 -18 -63q-18 -30 -40 -50q-12 -10 -24 0q-7 6 -13 13q-15 -17 -31 -32q-5 -5 -12 -5t-12 5v0zM320 449q-22 0 -37 -14v0v0q-14 -13 -14 -33q1 -22 21 -45q16 -19 30 -29q14 10 31 29q19 23 20 45q0 20 -14 33q-15 14 -37 14v0z" />
</svg>
