<?xml version="1.0" standalone="no"?>
<!DOCTYPE svg PUBLIC "-//W3C//DTD SVG 1.1//EN" "http://www.w3.org/Graphics/SVG/1.1/DTD/svg11.dtd" >
<svg xmlns="http://www.w3.org/2000/svg" xmlns:xlink="http://www.w3.org/1999/xlink" version="1.1" viewBox="-11 0 662 512">
   <path fill="currentColor"
d="M344 2q5 6 9 13l102 -37v0q12 -3 20 7l47 81v0l-180 66v0l-10 55v0l3 15v0q11 58 58 87t103 14l47 129v0l-71 26v0q-7 3 -5 10q3 6 10 5l79 -29v0l79 -29v0q6 -3 5 -10q-4 -7 -11 -5l-71 26v0l-47 -129v0q53 -25 70 -77t-11 -104l-82 -139v0q-14 -21 -38 -14l-106 39v0z
M556 125q26 47 9 93v0v0q-17 47 -67 67q-51 17 -94 -8t-53 -78l-9 -50v0l188 -69v0l26 45v0zM84 125l26 -45l-26 45l26 -45l188 69v0l-8 51v0q-11 52 -54 77t-94 8q-50 -20 -67 -67q-17 -46 9 -93v0zM301 133l-183 -67l183 67l-183 -67l47 -81v0q7 -10 20 -7l121 44v0
q12 5 11 18l-16 93v0zM305 202l28 -159l-28 159l28 -159q2 -25 -21 -36l-122 -44v0q-24 -7 -38 14l-82 140v0q-28 51 -11 103t70 77l-47 129v0l-71 -26v0q-7 -2 -11 5q-2 7 5 10l79 29v0l79 29v0q7 2 10 -5q2 -7 -5 -10l-71 -26v0l47 -129v0q56 15 103 -14q46 -29 58 -87v0z
" />
</svg>
