<?xml version="1.0" standalone="no"?>
<!DOCTYPE svg PUBLIC "-//W3C//DTD SVG 1.1//EN" "http://www.w3.org/Graphics/SVG/1.1/DTD/svg11.dtd" >
<svg xmlns="http://www.w3.org/2000/svg" xmlns:xlink="http://www.w3.org/1999/xlink" version="1.1" viewBox="-11 0 534 512">
   <path fill="currentColor"
d="M32 9h448h-448h448q7 0 12 6q5 5 4 12l-50 343v0q-4 24 -22 39q-17 16 -41 16h-253v0q-25 0 -42 -16q-18 -15 -22 -39l-50 -343v0q-1 -7 4 -12q5 -6 12 -6v0zM32 -7q-14 0 -24 11t-8 26l50 343v0q5 30 27 48q22 19 53 20h253v0q30 -1 52 -19q22 -19 27 -49l50 -343v0
q2 -15 -8 -26t-24 -11h-448v0zM255 156h1h-1h1q-8 -3 -16 -3h-96v0q-20 1 -34 14q-13 14 -14 34v96v0q1 20 14 34q14 13 34 14h74v0l-16 -16v0h-58v0q-14 0 -23 -9t-9 -23v-96v0q0 -14 9 -23t23 -9h96v0h3l12 -13v0zM335 190l56 57l-56 -57l56 57q10 10 10 22q0 13 -10 23
l-56 57v0q-10 9 -23 9t-23 -9l-56 -57v0q-10 -10 -10 -23q0 -12 10 -22l56 -57v0q10 -9 23 -9t23 9v0zM278 179l-57 57l57 -57l-57 57q-14 14 -14 33q0 20 14 34l57 57v0q15 14 34 14t34 -14l57 -57v0q14 -14 14 -34q0 -19 -14 -33l-57 -57v0q-15 -14 -34 -14t-34 14v0z" />
</svg>
