<?xml version="1.0" standalone="no"?>
<!DOCTYPE svg PUBLIC "-//W3C//DTD SVG 1.1//EN" "http://www.w3.org/Graphics/SVG/1.1/DTD/svg11.dtd" >
<svg xmlns="http://www.w3.org/2000/svg" xmlns:xlink="http://www.w3.org/1999/xlink" version="1.1" viewBox="-10 -40 532 512">
   <path fill="currentColor"
d="M256 457q-67 -1 -121 -33v0v0q-54 -32 -86 -86v0v0q-32 -54 -33 -121q1 -67 33 -121t86 -86t121 -33q22 0 44 4l-71 47v0q-13 9 -13 24v9v0q2 18 20 20q6 0 12 -3l41 -28v0q1 -1 3 -1h1v0q3 0 3 3q0 2 -1 3l-20 20v0q-7 7 -17 10l-27 9v0q-14 6 -15 21q0 3 -2 5l-18 17v0
q-12 13 -12 30v4v0q0 16 11 27t27 11q22 -1 33 -20l4 -8v0q2 -4 6 -4q3 0 5 3l16 21v0q6 8 15 8q12 -1 17 -9q5 -9 1 -19l-2 -4v0q-2 -5 2 -8l33 -22v0q6 -5 9 -11q4 -7 11 -7h28v0q7 1 8 8q-1 7 -8 8h-21v0q-14 0 -25 10l-4 5v0q-6 6 -6 14q2 17 19 19h11v0q7 0 11 4l6 7v0
q1 0 1 1t-1 1l-7 8v0q-8 8 -8 19t8 19l18 18v0q19 19 45 19h38v0q-10 33 -29 61v-14v0q0 -13 -9 -22t-22 -9q-6 0 -10 -4l-13 -14v0q-15 -14 -35 -14q-12 0 -21 -8l-27 -23v0q-20 -17 -47 -17h-21v0q-21 0 -39 12l-28 18v0q-31 22 -32 60v4v0q0 29 21 50l16 16v0
q16 16 38 16q16 0 26 11q11 10 11 26v19v0h-8v0v0zM280 438q-1 -22 -16 -37v0v0q-15 -15 -37 -16q-16 0 -27 -11l-16 -16v0q-16 -16 -16 -39v-4v0q1 -29 25 -46l27 -19v0q14 -9 31 -9h21v0q21 0 37 14l26 22v0q14 12 32 12q14 0 23 10l14 13v0q9 9 21 9q14 1 15 15v35v0
q-30 36 -71 58t-89 27v-18v0zM256 473q61 -1 113 -26v0v0q51 -26 87 -70v0v0v0v0q54 -68 56 -160q-1 -72 -35 -129q-34 -58 -92 -92q-57 -34 -129 -35q-72 1 -129 35q-58 34 -92 92q-34 57 -35 129q1 72 35 129q34 58 92 92q57 34 129 35v0zM447 273q-20 0 -33 -14l-19 -18
v0q-3 -3 -3 -8t3 -8l8 -7v0q5 -6 5 -13t-5 -12l-7 -7v0q-9 -9 -21 -9h-12v0q-3 0 -3 -3q0 -2 1 -3l5 -4v0q5 -6 13 -6h21v0q22 -2 24 -24q-2 -22 -24 -24h-27v0q-18 1 -26 16q-1 2 -4 4l-33 22v0q-15 12 -8 29l3 4v0q1 4 -3 5q-2 0 -3 -1l-16 -22v0q-7 -9 -18 -9
q-14 1 -20 12l-4 8v0q-6 11 -19 12q-20 -2 -22 -22v-4v0q0 -11 8 -18l18 -18v0q6 -7 6 -16q0 -4 4 -6l27 -8v0q13 -5 24 -15l19 -20v0q6 -6 6 -14q-2 -17 -19 -19h-1v0q-6 0 -11 3l-42 28v0q-1 1 -3 1q-4 0 -4 -4v-9v0q0 -7 6 -10l83 -56v0q77 23 125 85q49 62 50 146
q0 29 -7 56h-42v0zM182 79q4 -6 0 -12q-6 -4 -12 0l-32 32v0q-4 6 0 12q6 4 12 0l32 -32v0z" />
</svg>
