<?xml version="1.0" standalone="no"?>
<!DOCTYPE svg PUBLIC "-//W3C//DTD SVG 1.1//EN" "http://www.w3.org/Graphics/SVG/1.1/DTD/svg11.dtd" >
<svg xmlns="http://www.w3.org/2000/svg" xmlns:xlink="http://www.w3.org/1999/xlink" version="1.1" viewBox="-10 -40 660 512">
   <path fill="currentColor"
d="M371 188q-3 -7 -3 -15q0 -16 10 -26t26 -10h1v0q5 0 11 2l49 15v0q-1 4 -1 7l-6 8l-47 -15v0q-3 -1 -6 -1h-1v0q-18 2 -20 20q0 4 2 8l55 116v0h-18v0l-52 -109v0zM476 127l-54 -64l54 64l-54 -64q-46 -53 -116 -54q-48 1 -85 26q-38 26 -56 70l-77 192v0h-18v0l80 -198
v0q20 -49 62 -77q41 -28 94 -29q37 0 71 16q33 15 57 44l54 63v0q-4 3 -7 6q-3 2 -5 5v0zM456 345h-400h400h-400q-17 0 -28 12q-12 11 -12 28t12 28q11 12 28 12h400v0q17 0 28 -12q12 -11 12 -28t-12 -28q-11 -12 -28 -12v0zM56 329h400h-400h400q24 1 40 16q15 16 16 40
q-1 24 -16 40q-16 15 -40 16h-400v0q-24 -1 -40 -16q-15 -16 -16 -40q1 -24 16 -40q16 -15 40 -16v0zM574 144q-5 -7 -14 -7t-13 7q-7 9 -17 7q-9 -1 -15 5t-4 15q1 10 -7 16q-8 5 -8 14t8 13q8 7 7 17q-2 9 4 15t15 4q10 -1 17 7q4 7 13 8q9 -1 14 -8q6 -9 16 -7q9 2 15 -4
t5 -15q-2 -10 7 -17q7 -4 7 -13t-7 -14q-9 -6 -7 -16q1 -9 -5 -15t-15 -5q-10 2 -16 -7v0zM640 201q-1 18 -15 27q4 16 -8 30q-13 12 -30 8q-9 14 -27 15q-18 -1 -27 -15q-16 4 -30 -8q-12 -13 -8 -30q-14 -9 -15 -27q1 -18 15 -27q-4 -16 8 -30q13 -12 30 -8q9 -14 27 -15
q18 1 27 15q16 -4 30 8q12 13 8 30q14 9 15 27v0z" />
</svg>
