<?xml version="1.0" standalone="no"?>
<!DOCTYPE svg PUBLIC "-//W3C//DTD SVG 1.1//EN" "http://www.w3.org/Graphics/SVG/1.1/DTD/svg11.dtd" >
<svg xmlns="http://www.w3.org/2000/svg" xmlns:xlink="http://www.w3.org/1999/xlink" version="1.1" viewBox="-10 -40 532 512">
   <path fill="currentColor"
d="M282 66q20 -26 49 -39v0v0q30 -12 63 -8q44 6 73 39q28 32 29 77q-1 47 -33 81l-198 205v0q-4 4 -9 4t-8 -4l-199 -205v0q-32 -35 -33 -81q1 -45 29 -78q29 -32 73 -38q33 -4 62 8q30 13 50 39l18 26v0v13v0q0 3 2 6l41 41v0l-87 58v0q-3 2 -4 6q0 3 2 6l64 80v0
q5 5 11 1q5 -5 1 -11l-58 -73v0l88 -59v0q3 -3 4 -6q0 -4 -2 -7l-46 -45v0v-10v0l18 -26v0zM396 3q-37 -5 -71 10v0v0q-33 14 -55 44l-14 18v0l-13 -18v0q-23 -30 -56 -44q-34 -15 -71 -10q-50 7 -83 44q-32 36 -33 88q1 53 37 92l200 206v0q8 8 19 8q12 0 20 -8l199 -206v0
q36 -39 37 -92q-1 -52 -33 -88q-33 -37 -83 -44v0z" />
</svg>
