<?xml version="1.0" standalone="no"?>
<!DOCTYPE svg PUBLIC "-//W3C//DTD SVG 1.1//EN" "http://www.w3.org/Graphics/SVG/1.1/DTD/svg11.dtd" >
<svg xmlns="http://www.w3.org/2000/svg" xmlns:xlink="http://www.w3.org/1999/xlink" version="1.1" viewBox="-10 -40 532 512">
   <path fill="currentColor"
d="M204 2l-12 11l12 -11l-12 11q-7 -4 -16 -4h-96v0q-14 0 -23 9t-9 23v48v0h-16v0v-48v0q1 -20 14 -34q14 -13 34 -14h96v0q16 0 28 9v0zM360 89h-16h16h-16v0v-1v-6v0q0 -10 -7 -17l-49 -50v0q-7 -6 -16 -6t-15 6l-50 50v0q-7 7 -7 17v5v0v2h-16v0v-1v-1v-5v0
q0 -17 12 -28l49 -50v0q11 -11 27 -11t27 11l49 50v0q12 11 12 28v6v0v1v0zM176 137v72v-72v72q-1 7 -8 8q-7 -1 -8 -8v-72v0h-48v0v104v0q-1 7 -8 8q-7 -1 -8 -8v-104v0h-64v0q-15 1 -16 16v192v0q1 34 23 57q23 22 57 23h192v0q34 -1 57 -23q22 -23 23 -57v-208v0h-24
h-168zM384 137v176v-176v176h24v0q37 -1 62 -26t26 -62q-1 -37 -26 -62t-62 -26h-24v0zM384 329v16v-16v16q-1 41 -28 68t-68 28h-192v0q-41 -1 -68 -28t-28 -68v-192v0q0 -14 9 -23t23 -9h312h64q44 1 74 30q29 30 30 74q-1 44 -30 74q-30 29 -74 30h-24v0z" />
</svg>
