<?xml version="1.0" standalone="no"?>
<!DOCTYPE svg PUBLIC "-//W3C//DTD SVG 1.1//EN" "http://www.w3.org/Graphics/SVG/1.1/DTD/svg11.dtd" >
<svg xmlns="http://www.w3.org/2000/svg" xmlns:xlink="http://www.w3.org/1999/xlink" version="1.1" viewBox="-10 -40 661 512">
   <path fill="currentColor"
d="M144 57q23 -1 35 -20q10 -20 0 -40q-12 -19 -35 -20q-23 1 -35 20q-10 20 0 40q12 19 35 20v0zM144 -39q32 1 48 28q16 28 0 56q-16 27 -48 28q-32 -1 -48 -28q-16 -28 0 -56q16 -27 48 -28v0zM127 105q-36 1 -51 34l-61 137v0q-3 7 -10 4t-4 -10l60 -138v0q9 -20 26 -31
q18 -12 40 -12h34v0q22 0 40 12q17 11 26 31l60 138v0q3 7 -4 10t-10 -4l-60 -137v0q-16 -32 -52 -34h-34v0zM88 209v232v-232v232q1 15 16 16q15 -1 16 -16v-120v0q2 -22 24 -24q22 2 24 24v120v0q1 15 16 16q15 -1 16 -16v-232v0q1 -7 8 -8q7 1 8 8v232v0q0 14 -9 23
t-23 9t-23 -9t-9 -23v-120v0q-1 -7 -8 -8q-7 1 -8 8v120v0q0 14 -9 23t-23 9t-23 -9t-9 -23v-232v0q1 -7 8 -8q7 1 8 8v0zM496 57q23 -1 35 -20q10 -20 0 -40q-12 -19 -35 -20q-23 1 -35 20q-10 20 0 40q12 19 35 20v0zM496 -39q32 1 48 28q16 28 0 56q-16 27 -48 28
q-32 -1 -48 -28q-16 -28 0 -56q16 -27 48 -28v0zM451 161q6 3 5 11l-53 157v0h29h157l-53 -157v0q-1 -8 6 -11q7 -1 10 6l56 168v0q1 3 -1 7q-3 3 -7 3h-32v0v96v0q0 14 -9 23t-23 9t-23 -9t-9 -23v-96v0h-16v0v96v0q0 14 -9 23t-23 9t-23 -9t-9 -23v-96v0h-32v0q-4 0 -6 -3
q-3 -4 -2 -7l56 -168v0q3 -7 11 -6v0zM440 345v96v-96v96q1 15 16 16q15 -1 16 -16v-96v0h-32v0zM520 441q1 15 16 16q15 -1 16 -16v-96v0h-32v0v96v0zM421 153l-54 123l54 -123l-54 123q-3 7 -10 4t-4 -10l54 -123v0q12 -27 35 -42q23 -16 53 -16h3v0q29 0 52 16
q24 15 36 42l54 123v0q2 7 -5 10t-10 -4l-54 -123v0q-10 -22 -30 -35q-19 -13 -43 -13h-3v0q-25 0 -44 13q-20 13 -30 35v0zM328 -31v496v-496v496q-1 7 -8 8q-7 -1 -8 -8v-496v0q1 -7 8 -8q7 1 8 8v0z" />
</svg>
