<?xml version="1.0" standalone="no"?>
<!DOCTYPE svg PUBLIC "-//W3C//DTD SVG 1.1//EN" "http://www.w3.org/Graphics/SVG/1.1/DTD/svg11.dtd" >
<svg xmlns="http://www.w3.org/2000/svg" xmlns:xlink="http://www.w3.org/1999/xlink" version="1.1" viewBox="-10 -40 532 512">
   <path fill="currentColor"
d="M230 -21l68 68l-68 -68l68 68l-92 92v0l-68 -68v0q-4 -6 0 -12l80 -80v0q6 -4 12 0v0zM309 36l-68 -68l68 68l-68 -68q-17 -14 -34 0l-80 80v0q-14 17 0 34l68 68v0l-18 18v0q-42 -12 -85 -3t-78 39q-6 5 -6 13v0v0q0 8 5 13l109 109v0l-20 21v0q-10 -7 -22 -7
q-17 0 -28 12q-12 11 -12 28t12 28q11 12 28 12t28 -12q12 -11 12 -28q0 -12 -7 -22l21 -20v0l109 109v0q5 5 13 5v0v0q8 0 13 -6q30 -35 39 -78t-3 -85l18 -18v0l68 68v0q17 14 34 0l80 -80v0q14 -17 0 -34l-68 -68v0l26 -26v0q17 -17 17 -41t-17 -41l-46 -46v0
q-17 -17 -41 -17t-41 17l-26 26v0zM426 175l68 68l-68 -68l68 68q4 6 0 12l-80 80v0q-6 4 -12 0l-68 -68v0l92 -92v0zM452 127l-153 152l153 -152l-153 152q-13 -31 -38 -57l-10 -10v0q-26 -25 -57 -38l152 -153v0q13 -12 30 -12t30 12l46 46v0q12 13 12 30t-12 30v0z
M25 219l-11 11l11 -11l-11 11l11 -11v0q-1 -1 -1 -2v0v0q0 -1 1 -1q48 -41 108 -39t106 46l11 11v0q44 46 46 106t-39 109h-1v0v0q-1 0 -2 -1l-229 -229v0zM80 369q22 2 24 24q-2 22 -24 24q-22 -2 -24 -24q2 -22 24 -24v0z" />
</svg>
