<?xml version="1.0" standalone="no"?>
<!DOCTYPE svg PUBLIC "-//W3C//DTD SVG 1.1//EN" "http://www.w3.org/Graphics/SVG/1.1/DTD/svg11.dtd" >
<svg xmlns="http://www.w3.org/2000/svg" xmlns:xlink="http://www.w3.org/1999/xlink" version="1.1" viewBox="-10 -40 532 512">
   <path fill="currentColor"
d="M215 -23q-33 1 -50 30l-43 81v0q-10 19 -10 41q1 36 27 62l189 183v0l42 -43v0l43 -42v0l-67 -66v0l-138 -139v0q-7 -8 -3 -17q3 -9 14 -10h77v0q7 1 8 8q-1 7 -8 8h-77v0l133 133v0l19 -16v0q28 -25 29 -62q0 -21 -10 -39l-43 -82v0q-16 -29 -49 -30h-83v0zM450 423
l-74 -75l74 75l-74 -75l-37 37v0l75 74v0q4 6 0 12q-6 4 -12 0l-80 -80v0l-194 -188v0q-31 -31 -32 -74q0 -26 12 -49l43 -81v0q21 -37 64 -38h82v0q43 1 64 38l44 82v0q11 22 11 46q-1 45 -34 75l-18 15v0l66 66v0l5 6v0l75 74v0q4 6 0 12q-6 4 -12 0l-74 -75v0l-37 37v0
l75 74v0q4 6 0 12q-6 4 -12 0v0zM228 353l-118 118l118 -118l-118 118q-6 4 -12 0q-4 -6 0 -12l118 -118v0l12 12v0zM180 305l-118 118l118 -118l-118 118q-6 4 -12 0q-4 -6 0 -12l118 -118v0l12 12v0zM132 257l-118 118l118 -118l-118 118q-6 4 -12 0q-4 -6 0 -12l118 -118
v0l12 12v0z" />
</svg>
