<?xml version="1.0" standalone="no"?>
<!DOCTYPE svg PUBLIC "-//W3C//DTD SVG 1.1//EN" "http://www.w3.org/Graphics/SVG/1.1/DTD/svg11.dtd" >
<svg xmlns="http://www.w3.org/2000/svg" xmlns:xlink="http://www.w3.org/1999/xlink" version="1.1" viewBox="-10 -40 404 512">
   <path fill="currentColor"
d="M16 25v384v-384v384q1 20 14 34q14 13 34 14h256v0q20 -1 34 -14q13 -14 14 -34v-293v0q0 -20 -14 -34l-91 -91v0q-14 -14 -33 -14h-166v0q-20 1 -34 14q-13 14 -14 34v0zM0 409v-384v384v-384q1 -27 19 -45t45 -19h166v0q26 0 45 19l90 90v0q19 19 19 46v293v0
q-1 27 -19 45t-45 19h-256v0q-27 -1 -45 -19t-19 -45v0zM80 249v64v-64v64h72h152v-64v0h-72h-152zM272 393q14 0 23 -9v0v0q9 -9 9 -23v-32v0h-64v0v64v0h32v0zM112 169q-14 0 -23 9v0v0q-9 9 -9 23v32v0h64v0v-64v0h-32v0zM224 233v-64v64v-64h-64v0v64v0h64v0zM224 393
v-64v64v-64h-64v0v64v0h64v0zM80 361q0 14 9 23v0v0q9 9 23 9h32v0v-64v0h-64v0v32v0zM240 233h64h-64h64v-32v0q0 -14 -9 -23t-23 -9h-32v0v64v0zM64 361v-160v160v-160q1 -20 14 -34q14 -13 34 -14h32h128q20 1 34 14q13 14 14 34v160v0q-1 20 -14 34q-14 13 -34 14h-32
h-128q-20 -1 -34 -14q-13 -14 -14 -34v0z" />
</svg>
