<?xml version="1.0" standalone="no"?>
<!DOCTYPE svg PUBLIC "-//W3C//DTD SVG 1.1//EN" "http://www.w3.org/Graphics/SVG/1.1/DTD/svg11.dtd" >
<svg xmlns="http://www.w3.org/2000/svg" xmlns:xlink="http://www.w3.org/1999/xlink" version="1.1" viewBox="-10 -40 532 512">
   <path fill="currentColor"
d="M248 -39q7 1 8 8v190v0l-16 5v0v-195v0q1 -7 8 -8v0zM272 259v134v-134v134l32 -12v0v-153v0q0 -13 -9 -20q-9 -6 -21 -4l-56 15v0q-13 3 -19 -9l-29 -63v0q-8 -17 -27 -18q-18 1 -26 14t-2 29l33 72v0q12 22 37 17l67 -18v0q7 -2 14 3q6 5 6 13v0zM320 228v147v-147v147
l145 -56v0q29 -12 31 -44v-18v0q1 -7 8 -8q7 1 8 8v17v0q0 21 -11 37t-30 23l-364 139v0q-7 1 -10 -5q-2 -7 4 -10l155 -59v0v-6v0v-118v0v-16v0l-16 4v0l-51 14v0q-17 4 -32 -3q-16 -8 -24 -24l-33 -71v0q-9 -24 3 -45q13 -20 40 -21q29 1 42 27l29 64v0l56 -15v0
q19 -5 34 7q15 11 16 31v1zM144 41q0 -14 -9 -23v0v0q-9 -9 -23 -9t-23 9t-9 23t9 23t23 9t23 -9t9 -23v0zM112 -7q27 1 42 24q12 24 0 48q-15 23 -42 24q-27 -1 -42 -24q-12 -24 0 -48q15 -23 42 -24v0zM15 126l72 167l-72 -167l72 167q10 21 30 30q20 8 42 0l46 -17v0
q7 -2 11 4q1 7 -5 10l-47 18v0q-28 10 -53 -1q-26 -10 -39 -37l-71 -168v0q-3 -7 4 -10t10 4v0z" />
</svg>
