<?xml version="1.0" standalone="no"?>
<!DOCTYPE svg PUBLIC "-//W3C//DTD SVG 1.1//EN" "http://www.w3.org/Graphics/SVG/1.1/DTD/svg11.dtd" >
<svg xmlns="http://www.w3.org/2000/svg" xmlns:xlink="http://www.w3.org/1999/xlink" version="1.1" viewBox="-10 -40 468 512">
   <path fill="currentColor"
d="M8 -39h432h-432h432q7 1 8 8q-1 7 -8 8h-432v0q-7 -1 -8 -8q1 -7 8 -8v0zM48 164q14 -6 30 -10q32 -8 70 -13q39 -4 76 -4t76 4q38 5 71 13q15 4 29 10v-155v0h16v0v162v0l8 4q22 13 24 34q-1 50 -22 88q-21 37 -55 62q-1 1 -3 2l-2 2l17 64v0q1 5 1 10q0 15 -11 25
q-10 11 -25 11h-248v0q-15 0 -25 -11q-11 -10 -11 -25q0 -5 1 -10l17 -64v0q-2 -2 -5 -4q-34 -25 -55 -62q-21 -38 -22 -88q2 -21 24 -34l8 -4v-162v0h16v0v155v0zM19 239q14 69 68 108q31 23 68 34q36 12 69 12t69 -12q37 -11 68 -34q54 -39 69 -108l-6 4v0q-21 12 -53 21
q-33 8 -71 13q-39 4 -76 4t-76 -4q-38 -5 -70 -13q-33 -9 -54 -21q-3 -2 -5 -4v0zM432 209q1 -9 -16 -20q-18 -11 -50 -19q-31 -8 -68 -13q-37 -4 -74 -4t-74 4q-37 5 -68 13q-32 8 -50 19q-17 11 -16 20q-1 9 16 20q18 11 50 19q31 8 68 13q37 4 74 4t74 -4q37 -5 68 -13
q32 -8 50 -19q17 -11 16 -20v0zM104 41h48h-48h48q7 1 8 8q-1 7 -8 8h-48v0q-7 -1 -8 -8q1 -7 8 -8v0zM367 432l-15 -60l15 60l-15 -60q-31 19 -64 28t-64 9t-64 -9t-64 -28l-15 60v0q-1 2 -1 5q2 18 20 20h248v0q18 -2 20 -20q0 -3 -1 -5v0z" />
</svg>
