<?xml version="1.0" standalone="no"?>
<!DOCTYPE svg PUBLIC "-//W3C//DTD SVG 1.1//EN" "http://www.w3.org/Graphics/SVG/1.1/DTD/svg11.dtd" >
<svg xmlns="http://www.w3.org/2000/svg" xmlns:xlink="http://www.w3.org/1999/xlink" version="1.1" viewBox="-10 -40 468 512">
   <path fill="currentColor"
d="M230 -36q-3 -3 -6 -3t-6 3l-145 153v0q-9 9 -9 21q0 13 9 22t22 9h31v0l-86 92v0q-8 9 -8 21q0 13 9 22t22 9h32v0l-88 108v0q-7 9 -7 20q0 14 9 23t23 9h128h256q14 0 23 -9t9 -23q0 -11 -7 -19l-88 -109v0h32v0q13 0 22 -9t9 -22q0 -12 -8 -21l-86 -92v0h31v0
q13 0 22 -9t9 -22q0 -12 -9 -21l-145 -153v0zM416 457h-128h128h-384q-15 -1 -16 -16q0 -5 4 -9l98 -122v0q3 -4 1 -8q-2 -5 -7 -5h-49v0q-14 -1 -15 -15q0 -6 4 -10l98 -106v0q3 -4 1 -8q-2 -5 -7 -5h-49v0q-14 -1 -15 -15q0 -6 4 -10l140 -147v0l140 147v0q4 4 4 10
q-1 14 -15 15h-49v0q-5 0 -7 5t1 8l98 106v0q4 4 4 10q-1 14 -15 15h-49v0q-5 0 -7 5q-2 4 1 8l99 122v0q3 4 3 9q-1 15 -16 16v0zM176 249q15 -1 16 -16q-1 -15 -16 -16q-15 1 -16 16q1 15 16 16v0zM256 105q-1 -15 -16 -16q-15 1 -16 16q1 15 16 16q15 -1 16 -16v0z
M272 377q15 -1 16 -16q-1 -15 -16 -16q-15 1 -16 16q1 15 16 16v0z" />
</svg>
