<?xml version="1.0" standalone="no"?>
<!DOCTYPE svg PUBLIC "-//W3C//DTD SVG 1.1//EN" "http://www.w3.org/Graphics/SVG/1.1/DTD/svg11.dtd" >
<svg xmlns="http://www.w3.org/2000/svg" xmlns:xlink="http://www.w3.org/1999/xlink" version="1.1" viewBox="-10 -40 468 512">
   <path fill="currentColor"
d="M0 17q1 -24 16 -40v0v0q16 -15 40 -16h352v0q17 0 28 12q12 11 12 28v336v0q-2 31 -32 39v81v0h24v0q7 1 8 8q-1 7 -8 8h-384v0q-24 -1 -40 -16q-15 -16 -16 -40v-400v0zM56 377q-17 0 -28 12v0v0q-12 11 -12 28t12 28q11 12 28 12h344v0v-80v0h-344v0zM16 378
q16 -16 40 -17h352v0q22 -2 24 -24v-336v0q-2 -22 -24 -24h-352v0q-17 0 -28 12q-12 11 -12 28v361v0zM208 81v56v-56v56q-1 7 -8 8h-56v0q-7 1 -8 8v32v0q1 7 8 8h56v0q7 1 8 8v56v0q1 7 8 8h32v0q7 -1 8 -8v-56v0q1 -7 8 -8h56v0q7 -1 8 -8v-32v0q-1 -7 -8 -8h-56v0
q-7 -1 -8 -8v-56v0q-1 -7 -8 -8h-32v0q-7 1 -8 8v0zM216 57h32h-32h32q22 2 24 24v48v0h48v0q22 2 24 24v32v0q-2 22 -24 24h-48v0v48v0q-2 22 -24 24h-32v0q-22 -2 -24 -24v-48v0h-48v0q-22 -2 -24 -24v-32v0q2 -22 24 -24h48v0v-48v0q2 -22 24 -24v0z" />
</svg>
