<?xml version="1.0" standalone="no"?>
<!DOCTYPE svg PUBLIC "-//W3C//DTD SVG 1.1//EN" "http://www.w3.org/Graphics/SVG/1.1/DTD/svg11.dtd" >
<svg xmlns="http://www.w3.org/2000/svg" xmlns:xlink="http://www.w3.org/1999/xlink" version="1.1" viewBox="-10 -40 522 512">
   <path fill="currentColor"
d="M451 169h-390h390h-390q-12 -1 -13 -13v-2q2 -8 11 -30q10 -23 33 -49q22 -27 62 -46q39 -19 102 -20q62 1 102 20t62 46q23 26 33 49q10 22 11 30v2q-1 12 -13 13v0zM61 185h390h-390h390q12 0 20 -9q9 -8 9 -20q0 -3 -1 -6q-1 -13 -20 -50q-20 -37 -68 -71
q-47 -34 -135 -36q-88 2 -135 36q-48 34 -68 71q-19 37 -20 50q-1 3 -1 6q0 12 9 20q8 9 20 9v0zM59 361h394h-394h394q10 1 11 11q-1 23 -15 38q-15 14 -38 15h-310v0q-23 -1 -38 -15q-14 -15 -15 -38q1 -10 11 -11v0zM59 345q-11 0 -19 8v0v0q-8 8 -8 19q1 30 20 49t49 20
h310v0q30 -1 49 -20t20 -49q0 -11 -8 -19t-19 -8h-394v0zM144 105q15 -1 16 -16q-1 -15 -16 -16q-15 1 -16 16q1 15 16 16v0zM384 89q-1 -15 -16 -16q-15 1 -16 16q1 15 16 16q15 -1 16 -16v0zM256 73q15 -1 16 -16q-1 -15 -16 -16q-15 1 -16 16q1 15 16 16v0zM302 288
q18 11 36 0l77 -51v0q6 -4 13 -4h4h16q14 0 23 9t9 23t-9 23t-23 9h-78v0l-24 16v0h102v0q20 -1 34 -14q13 -14 14 -34q-1 -20 -14 -34q-14 -13 -34 -14h-16h-368q-20 1 -34 14q-13 14 -14 34q1 20 14 34q14 13 34 14h230v0l-24 -16v0h-206v0q-14 0 -23 -9t-9 -23t9 -23
t23 -9h128h20q7 0 13 4l77 51v0zM392 233l-63 42l63 -42l-63 42q-9 6 -18 0l-63 -42v0h144v0z" />
</svg>
