<?xml version="1.0" standalone="no"?>
<!DOCTYPE svg PUBLIC "-//W3C//DTD SVG 1.1//EN" "http://www.w3.org/Graphics/SVG/1.1/DTD/svg11.dtd" >
<svg xmlns="http://www.w3.org/2000/svg" xmlns:xlink="http://www.w3.org/1999/xlink" version="1.1" viewBox="-10 -40 404 512">
   <path fill="currentColor"
d="M192 -39q-28 1 -48 19v0v0q-20 17 -24 45h-8v0q-33 2 -45 32h-3v0q-27 1 -45 19t-19 45v288v0q1 27 19 45t45 19h256v0q27 -1 45 -19t19 -45v-288v0q-1 -27 -19 -45t-45 -19h-3v0q-12 -30 -45 -32h-8v0q-4 -28 -24 -45q-20 -18 -48 -19v0zM16 121q1 -20 14 -34v0v0
q14 -13 34 -14v16v0q0 14 9 23t23 9h192v0q14 0 23 -9t9 -23v-16v0q20 1 34 14q13 14 14 34v288v0q-1 20 -14 34q-14 13 -34 14h-256v0q-20 -1 -34 -14q-13 -14 -14 -34v-288v0zM136 33q1 -24 16 -40v0v0q16 -15 40 -16q24 1 40 16q15 16 16 40q1 7 8 8h16v0q14 0 23 9t9 23
v16v0q-1 15 -16 16h-192v0q-15 -1 -16 -16v-16v0q0 -14 9 -23t23 -9h16v0q7 -1 8 -8v0zM192 57q15 -1 16 -16q-1 -15 -16 -16q-15 1 -16 16q1 15 16 16v0zM192 169q27 1 42 24q12 24 0 48q-15 23 -42 24q-27 -1 -42 -24q-12 -24 0 -48q15 -23 42 -24v0zM192 281
q36 -1 55 -32q18 -32 0 -64q-19 -31 -55 -32q-36 1 -55 32q-18 32 0 64q19 31 55 32v0zM152 329h80h-80h80q24 1 40 16q15 16 16 40q-1 7 -8 8h-176v0q-7 -1 -8 -8q1 -24 16 -40q16 -15 40 -16v0zM80 385q2 22 24 24h176v0q22 -2 24 -24q-1 -31 -21 -51t-51 -21h-80v0
q-31 1 -51 21t-21 51v0z" />
</svg>
