<?xml version="1.0" standalone="no"?>
<!DOCTYPE svg PUBLIC "-//W3C//DTD SVG 1.1//EN" "http://www.w3.org/Graphics/SVG/1.1/DTD/svg11.dtd" >
<svg xmlns="http://www.w3.org/2000/svg" xmlns:xlink="http://www.w3.org/1999/xlink" version="1.1" viewBox="-10 -40 532 512">
   <path fill="currentColor"
d="M157 376q-8 -3 -15 2q-17 13 -51 29q-35 17 -75 18v0v0v0v0v0v0v0v0h1v0q0 -1 1 -2q2 -2 5 -6l-12 -10v0l12 10v0q8 -9 17 -24q18 -28 24 -70q0 -7 -4 -12q-43 -48 -44 -110q2 -80 69 -135t171 -57q104 2 171 57t69 135q-2 80 -69 135t-171 57q-53 0 -99 -17v0zM5 414v0
v0v0v0v0v0v0q-7 7 -4 17q5 10 15 10q44 -2 82 -19q35 -17 54 -31q48 18 104 18q72 -1 129 -28q58 -28 92 -75t35 -105q-1 -58 -35 -105t-92 -75q-57 -27 -129 -28q-72 1 -129 28q-58 28 -92 75t-35 105q1 69 48 121q-5 37 -22 63q-8 14 -15 21q-3 4 -5 6q0 1 -1 1v1v0v0v0v0
zM232 113q1 -7 8 -8h32v0q7 1 8 8v56v0q1 7 8 8h56v0q7 1 8 8v32v0q-1 7 -8 8h-56v0q-7 1 -8 8v56v0q-1 7 -8 8h-32v0q-7 -1 -8 -8v-56v0q-1 -7 -8 -8h-56v0q-7 -1 -8 -8v-32v0q1 -7 8 -8h56v0q7 -1 8 -8v-56v0zM240 89q-22 2 -24 24v48v0h-48v0q-22 2 -24 24v32v0
q2 22 24 24h48v0v48v0q2 22 24 24h32v0q22 -2 24 -24v-48v0h48v0q22 -2 24 -24v-32v0q-2 -22 -24 -24h-48v0v-48v0q-2 -22 -24 -24h-32v0z" />
</svg>
