<?xml version="1.0" standalone="no"?>
<!DOCTYPE svg PUBLIC "-//W3C//DTD SVG 1.1//EN" "http://www.w3.org/Graphics/SVG/1.1/DTD/svg11.dtd" >
<svg xmlns="http://www.w3.org/2000/svg" xmlns:xlink="http://www.w3.org/1999/xlink" version="1.1" viewBox="-10 -40 660 512">
   <path fill="currentColor"
d="M203 -18q10 11 0 22l-160 160v0q-11 10 -22 0q-10 -11 0 -22l160 -160v0q11 -10 22 0v0zM215 -30q-10 -9 -23 -9v0v0q-13 0 -23 9l-160 160v0q-9 10 -9 23t9 23q10 9 23 9t23 -9l160 -160v0q9 -10 9 -23t-9 -23v0zM227 49l-11 11l11 -11l-11 11l70 70v0l11 -11v0l-70 -70
v0zM406 356h-1h1h-1l-18 4v0q3 2 5 4l98 99v0l8 8v0q6 4 12 0q4 -6 0 -12l-8 -8v0l-96 -95v0zM216 294l-117 -117l117 117l-117 -117l-11 11v0l117 117v0q7 7 16 12l3 -17v0l-8 -6v0zM459 -18l160 160l-160 -160l160 160q10 11 0 22q-11 10 -22 0l-160 -160v0q-9 -11 0 -22
q11 -10 22 0v0zM471 -30q-10 -9 -23 -9v0v0q-13 0 -23 9q-9 10 -9 23t9 23l160 160v0q10 9 23 9t23 -9q9 -10 9 -23t-9 -23l-160 -160v0zM413 49l-83 82l83 -82l-83 82v0v0v1v0l-34 34v0q-15 15 -20 36l-24 122v0q-3 17 -15 29l-99 98v0l-8 8v0q-4 6 0 12q6 4 12 0l8 -8v0
l98 -99v0q12 -11 29 -15l122 -24v0q21 -5 36 -20l35 -34v0l82 -83v0l-11 -11v0l-77 77v0l-117 -117v0l77 -77v0l-11 -11v0zM307 177l29 -29l-29 29l29 -29l117 117v0l-29 29v0q-12 11 -29 15l-122 24v0q-4 1 -7 2q1 -4 2 -7l24 -122v0q3 -17 15 -29v0z" />
</svg>
