<?xml version="1.0" standalone="no"?>
<!DOCTYPE svg PUBLIC "-//W3C//DTD SVG 1.1//EN" "http://www.w3.org/Graphics/SVG/1.1/DTD/svg11.dtd" >
<svg xmlns="http://www.w3.org/2000/svg" xmlns:xlink="http://www.w3.org/1999/xlink" version="1.1" viewBox="-10 -40 468 512">
   <path fill="currentColor"
d="M384 361h-192h192h-192q-20 -1 -34 -14q-13 -14 -14 -34v-288v0q1 -20 14 -34q14 -13 34 -14h132v0q6 0 12 2v70v0q2 22 24 24h70v0q2 6 2 12v228v0q-1 20 -14 34q-14 13 -34 14v0zM439 57q-2 -3 -5 -6l-76 -76v0q-14 -14 -34 -14h-132v0q-27 1 -45 19t-19 45v288v0
q1 27 19 45t45 19h192v0q27 -1 45 -19t19 -45v-228v0q0 -15 -8 -27v-1v0h-1v0zM417 57h-57h57h-57q-7 -1 -8 -8v-57v0l65 65v0zM96 57h-32h32h-32q-27 1 -45 19t-19 45v288v0q1 27 19 45t45 19h192v0q27 -1 45 -19t19 -45h-16v0q-1 20 -14 34q-14 13 -34 14h-192v0
q-20 -1 -34 -14q-13 -14 -14 -34v-288v0q1 -20 14 -34q14 -13 34 -14h32v0v-16v0zM269 146q1 -7 8 -8h22v0q7 1 8 8v44v0q0 8 8 8h44v0q7 1 8 8v22v0q-1 7 -8 8h-44v0q-8 0 -8 8v44v0q-1 7 -8 8h-22v0q-7 -1 -8 -8v-44v0q0 -8 -8 -8h-44v0q-7 -1 -8 -8v-22v0q1 -7 8 -8h44v0
q4 0 6 -2t2 -6v-44v0zM277 122q-22 2 -24 24v36v0h-36v0q-22 2 -24 24v22v0q2 22 24 24h36v0v36v0q2 22 24 24h22v0q22 -2 24 -24v-36v0h36v0q22 -2 24 -24v-22v0q-2 -22 -24 -24h-36v0v-36v0q-2 -22 -24 -24h-22v0z" />
</svg>
