<?xml version="1.0" standalone="no"?>
<!DOCTYPE svg PUBLIC "-//W3C//DTD SVG 1.1//EN" "http://www.w3.org/Graphics/SVG/1.1/DTD/svg11.dtd" >
<svg xmlns="http://www.w3.org/2000/svg" xmlns:xlink="http://www.w3.org/1999/xlink" version="1.1" viewBox="-10 -40 596 512">
   <path fill="currentColor"
d="M130 144q35 -40 86 -71q51 -30 104 -32q42 1 85 19q42 19 78 47q35 29 56 59t21 51t-21 51t-56 59q-36 28 -78 47q-43 18 -85 19q-53 -1 -104 -32t-86 -71q-5 -5 -11 -1l-88 70v0q-2 2 -4 2q-8 -1 -7 -9l26 -127v0q2 -8 0 -16l-26 -127v0q-1 -8 7 -9q2 0 4 2l88 70v0
q6 4 11 -1v0zM320 25q-59 2 -112 35q-49 30 -85 68l-82 -66v0q-6 -5 -14 -5q-12 0 -18 9q-7 8 -5 19l27 127v0q1 5 0 10l-27 127v0q-2 11 5 19q6 9 18 9q8 0 14 -5l83 -66v0q35 38 84 68q53 33 112 35q46 -1 91 -20q45 -20 82 -50q37 -29 59 -62q23 -32 24 -60
q-1 -28 -24 -60q-22 -33 -59 -62q-37 -30 -82 -50q-45 -19 -91 -20v0zM310 127q4 -6 0 -12q-6 -4 -12 0l-64 64v0q-4 6 0 12q6 4 12 0l64 -64v0zM422 143q4 -6 0 -12q-6 -4 -12 0l-160 160v0q-4 6 0 12q6 4 12 0l160 -160v0zM438 255q4 -6 0 -12q-6 -4 -12 0l-64 64v0
q-4 6 0 12q6 4 12 0l64 -64v0z" />
</svg>
