<?xml version="1.0" standalone="no"?>
<!DOCTYPE svg PUBLIC "-//W3C//DTD SVG 1.1//EN" "http://www.w3.org/Graphics/SVG/1.1/DTD/svg11.dtd" >
<svg xmlns="http://www.w3.org/2000/svg" xmlns:xlink="http://www.w3.org/1999/xlink" version="1.1" viewBox="-11 0 405 512">
   <path fill="currentColor"
d="M171 -15q-9 -2 -11 8v238v0q-9 -2 -16 -4v-234v0q1 -14 11 -20q9 -7 22 -3l48 20v0q14 6 15 22v215v0q-7 2 -16 4v-219v0q0 -5 -5 -8l-48 -19v0zM74 19l26 164l-26 -164l26 164q-6 -13 -19 -22l-23 -139v0q-2 -17 13 -25l41 -21v0v18v0l-34 17v0q-5 3 -4 8v0zM16 55
l19 98l-19 -98l19 98h-14v0h-2l-19 -94v0q-1 -8 7 -10q7 -1 9 7v-1zM384 59l-19 94l19 -94l-19 94h-1h-1h-14v0l19 -98v0q2 -7 10 -6q6 2 6 9v1zM331 42l-25 117l25 -117l-25 117q-14 8 -21 21l30 -141v0q0 -10 -9 -9l-34 6v0v-16v0l31 -6v0q13 -2 21 7q9 8 7 21v0zM74 445
q3 11 15 12h206v0q12 -1 15 -12l58 -237v0v-2q0 -4 -5 -5h-33v0v0v0v0h-1l-1 1l-2 4l-16 -3v0l16 3v0q-4 25 -34 50q-31 24 -100 25q-69 -1 -100 -25q-30 -26 -34 -50l-2 -4q-1 -1 -2 -1v0v0v0h-33v0q-5 1 -5 6v1l58 237v0zM58 449l-57 -237l57 237l-57 -237q-1 -3 -1 -6
q2 -19 21 -21h33v0q15 2 20 18q3 19 28 40q25 20 90 22q65 -2 90 -22q25 -21 28 -40q5 -16 20 -18h33v0q19 2 21 21q0 3 -1 6l-57 237v0q-7 23 -31 24h-206v0q-24 -1 -31 -24v0z" />
</svg>
