<?xml version="1.0" standalone="no"?>
<!DOCTYPE svg PUBLIC "-//W3C//DTD SVG 1.1//EN" "http://www.w3.org/Graphics/SVG/1.1/DTD/svg11.dtd" >
<svg xmlns="http://www.w3.org/2000/svg" xmlns:xlink="http://www.w3.org/1999/xlink" version="1.1" viewBox="-10 -40 458 512">
   <path fill="currentColor"
d="M200 13q0 -15 11 -25v0v0q10 -11 25 -11t25 11q11 10 11 25v180v0q0 5 4 7t8 0q11 -7 24 -7q30 2 42 29q3 6 9 5q6 -2 13 -2q18 0 30 12q12 11 14 29v0v1v2v0v84v0v16v0q-1 37 -26 62t-62 26h-142v0q-32 0 -59 -16l-18 -10v0q-29 -17 -45 -44q-16 -28 -16 -60v-24v0
q1 -26 20 -43l29 -25v0q3 -3 7 -5v75v0q1 7 8 8q7 -1 8 -8v-88v0v-1v0v-1v-2v0q0 -19 13 -31q12 -13 31 -13q13 0 24 7q4 2 8 0t4 -7v-156v0zM236 -39q-22 1 -37 15v0v0q-14 15 -15 37v143v0q-9 -3 -20 -3q-25 1 -42 17q-16 16 -18 41q-9 5 -17 12l-29 25v0q-25 22 -26 55
v24v0q0 37 18 68t51 50l18 10v0q31 18 67 18h142v0q44 -1 74 -30q29 -30 30 -74v-16v0v-84v0v-4v0v-2q-3 -23 -20 -38q-16 -15 -40 -16q-5 0 -10 1q-17 -31 -54 -33q-11 0 -20 3v-167v0q-1 -22 -15 -37q-15 -14 -37 -15v0z" />
</svg>
