<?xml version="1.0" standalone="no"?>
<!DOCTYPE svg PUBLIC "-//W3C//DTD SVG 1.1//EN" "http://www.w3.org/Graphics/SVG/1.1/DTD/svg11.dtd" >
<svg xmlns="http://www.w3.org/2000/svg" xmlns:xlink="http://www.w3.org/1999/xlink" version="1.1" viewBox="-10 -40 596 512">
   <path fill="currentColor"
d="M272 345q-1 20 -14 34v0v0q-14 13 -34 14h-160v0q-20 -1 -34 -14q-13 -14 -14 -34v-176v0q1 -54 37 -91q37 -36 91 -37q54 1 91 37q36 37 37 91v176v0zM288 169q-1 -42 -22 -76v0v0q-21 -34 -56 -52h222v0q54 1 91 37q36 37 37 91v176v0q-1 20 -14 34q-14 13 -34 14h-246
v0q21 -18 22 -48v-176v0zM64 409h160h-160h448q27 -1 45 -19t19 -45v-176v0q-2 -61 -42 -102q-41 -40 -102 -42h-288v0q-61 2 -102 42q-40 41 -42 102v176v0q1 27 19 45t45 19v0zM72 153q-7 1 -8 8q1 7 8 8h144v0q7 -1 8 -8q-1 -7 -8 -8h-144v0zM376 153q-7 1 -8 8q1 7 8 8
h56v0v64v0q2 22 24 24h32v0q22 -2 24 -24v-56v0q-2 -22 -24 -24h-48h-64zM448 233v-64v64v-64h40v0q7 1 8 8v56v0q-1 7 -8 8h-32v0q-7 -1 -8 -8v0z" />
</svg>
