<?xml version="1.0" standalone="no"?>
<!DOCTYPE svg PUBLIC "-//W3C//DTD SVG 1.1//EN" "http://www.w3.org/Graphics/SVG/1.1/DTD/svg11.dtd" >
<svg xmlns="http://www.w3.org/2000/svg" xmlns:xlink="http://www.w3.org/1999/xlink" version="1.1" viewBox="-10 -40 533 512">
   <path fill="currentColor"
d="M271 -8q-23 24 -11 70q12 47 57 94q47 45 94 57q46 12 70 -11q14 -15 15 -40q0 -17 -4 -32l-6 -16q-15 -39 -51 -76q-37 -36 -75 -51q-9 -3 -17 -6q-16 -4 -33 -4q-25 1 -39 15v0zM407 229q-52 -14 -101 -62q-48 -49 -62 -101q-9 -36 2 -65l-1 1v0l-47 47v0
q-53 55 -54 130v78v0q1 31 21 51t51 21h78v0q75 -1 130 -54l47 -47v0v0v0l1 -1v0q-29 11 -65 2v0zM447 26q37 38 54 83q4 9 7 19q4 17 4 34q2 42 -29 77v0v0l-48 48v0q-59 57 -141 58h-78v0q-10 0 -19 -2l-1 1l-14 15v0q-6 5 0 15q10 16 10 35q-1 27 -19 45t-45 19
q-27 -1 -45 -19t-19 -45q-27 -1 -45 -19t-19 -45q1 -27 19 -45t45 -19q19 0 35 10q10 6 15 0l15 -14v0l1 -1q-2 -9 -2 -19v-78v0q1 -82 59 -141l47 -48v0q35 -31 76 -29q17 0 36 4q10 3 20 7q44 17 81 54v0zM136 293l-10 10l10 -10l-10 10q-8 7 -18 7t-18 -5q-11 -8 -26 -8
q-20 1 -34 14q-13 14 -14 34q1 20 14 34q14 13 34 14q15 1 16 16q1 20 14 34q14 13 34 14q20 -1 34 -14q13 -14 14 -34q0 -15 -8 -26q-5 -8 -5 -18q0 -9 7 -17l10 -10v0q-30 -15 -44 -45v0zM354 75q-3 2 -1 12t13 20q10 11 20 13t12 -1q3 -2 1 -12t-13 -20q-10 -11 -20 -13
t-12 1v0zM398 75q13 13 17 28t-6 27q-12 10 -27 6t-28 -17t-17 -28t6 -27q12 -10 27 -6t28 17v0z" />
</svg>
