<?xml version="1.0" standalone="no"?>
<!DOCTYPE svg PUBLIC "-//W3C//DTD SVG 1.1//EN" "http://www.w3.org/Graphics/SVG/1.1/DTD/svg11.dtd" >
<svg xmlns="http://www.w3.org/2000/svg" xmlns:xlink="http://www.w3.org/1999/xlink" version="1.1" viewBox="-10 -40 532 512">
   <path fill="currentColor"
d="M448 41q20 1 34 14v0v0q13 14 14 34v256v0q-1 20 -14 34q-14 13 -34 14h-384v0q-20 -1 -34 -14q-13 -14 -14 -34v-256v0q1 -20 14 -34q14 -13 34 -14h384v0zM64 25q-27 1 -45 19v0v0q-18 18 -19 45v256v0q1 27 19 45t45 19h384v0q27 -1 45 -19t19 -45v-256v0
q-1 -27 -19 -45t-45 -19h-384v0zM64 289q1 7 8 8h80v0q7 -1 8 -8q-1 -7 -8 -8h-80v0q-7 1 -8 8v0zM192 289q1 7 8 8h80v0q7 -1 8 -8q-1 -7 -8 -8h-80v0q-7 1 -8 8v0zM96 105h320h-320h320q15 1 16 16v64v0q-1 15 -16 16h-320v0q-15 -1 -16 -16v-64v0q1 -15 16 -16v0zM64 121
v64v-64v64q0 14 9 23t23 9h320v0q14 0 23 -9t9 -23v-64v0q0 -14 -9 -23t-23 -9h-320v0q-14 0 -23 9t-9 23v0z" />
</svg>
