<?xml version="1.0" standalone="no"?>
<!DOCTYPE svg PUBLIC "-//W3C//DTD SVG 1.1//EN" "http://www.w3.org/Graphics/SVG/1.1/DTD/svg11.dtd" >
<svg xmlns="http://www.w3.org/2000/svg" xmlns:xlink="http://www.w3.org/1999/xlink" version="1.1" viewBox="-10 -40 532 512">
   <path fill="currentColor"
d="M480 41q15 1 16 16v64v0q-1 15 -16 16h-448v0q-15 -1 -16 -16v-64v0q1 -15 16 -16h448v0zM32 25q-14 0 -23 9v0v0q-9 9 -9 23v64v0q0 14 9 23t23 9h448v0q14 0 23 -9t9 -23v-64v0q0 -14 -9 -23t-23 -9h-448v0zM32 297h214h-214h214l70 47v0q4 2 9 0l70 -47v0h85v0
q15 1 16 16v64v0q-1 15 -16 16h-448v0q-15 -1 -16 -16v-64v0q1 -15 16 -16v0zM0 313v64v-64v64q0 14 9 23t23 9h448v0q14 0 23 -9t9 -23v-64v0q0 -14 -9 -23t-23 -9h-88v0q-2 0 -4 1l-68 45v0l-68 -45v0q-2 -1 -4 -1h-216v0q-14 0 -23 9t-9 23v0zM8 249q15 -1 30 -8
q13 -7 26 -15l3 -2v0q30 -21 57 -23q31 2 60 23v0v0q15 9 33 17q17 8 39 8t39 -8q18 -8 33 -17v0v0v-1q29 -20 60 -22q27 2 57 23l3 2v0q13 8 26 15q15 7 30 8q7 -1 8 -8q-1 -7 -8 -8q-10 0 -23 -7q-11 -5 -23 -13q-1 0 -1 -1l-4 -2v0q-14 -9 -31 -17q-16 -8 -34 -8
q-19 0 -36 8q-16 7 -31 16v0l-2 1v0q-28 21 -63 23q-35 -2 -63 -23l-2 -1v0v0q-15 -9 -31 -16q-17 -8 -36 -8q-18 0 -34 8q-17 8 -31 17l-4 2v0q0 1 -1 1q-12 8 -23 13q-13 7 -23 7q-7 1 -8 8q1 7 8 8v0z" />
</svg>
