<?xml version="1.0" standalone="no"?>
<!DOCTYPE svg PUBLIC "-//W3C//DTD SVG 1.1//EN" "http://www.w3.org/Graphics/SVG/1.1/DTD/svg11.dtd" >
<svg xmlns="http://www.w3.org/2000/svg" xmlns:xlink="http://www.w3.org/1999/xlink" version="1.1" viewBox="-10 -40 532 512">
   <path fill="currentColor"
d="M369 -35q3 -4 7 -4h96v0q4 0 7 4q2 4 0 8l-16 32v0q-4 6 -11 3q-6 -4 -3 -11l10 -20v0h-70v0l10 20v0q3 7 -3 11q-7 3 -11 -3l-16 -32v0q-2 -4 0 -8v0zM16 361v0v0v0v0v59v0l20 -10v0q7 -3 11 4q3 6 -3 10l-32 16v0q-4 2 -8 0t-4 -7v-8v0v-64v0v-24v0q0 -4 4 -7q4 -2 8 0
l32 16v0q6 4 3 11q-4 6 -11 3l-20 -10v0v11v0zM424 41q-31 1 -51 21v0v0q-20 20 -21 51q0 37 -16 73q-16 35 -46 65t-65 46q-36 16 -73 16q-31 1 -51 21t-21 51q1 31 21 51t51 21q70 -1 132 -29q61 -28 108 -75t75 -108q28 -62 29 -132q-1 -31 -21 -51t-51 -21v0zM424 25
q37 1 62 26v0v0q25 25 26 62q-1 74 -30 138q-30 65 -79 113q-48 49 -113 79q-64 29 -138 30q-37 -1 -62 -26t-26 -62q1 -37 26 -62t62 -26q33 0 66 -15t61 -42q27 -28 42 -61t15 -66q1 -37 26 -62t62 -26v0zM400 129q-1 65 -32 117v0v0q-31 52 -83 83v0v0q-52 31 -117 32
q-7 -1 -8 -8q1 -7 8 -8q92 -2 153 -63t63 -153q1 -7 8 -8q7 1 8 8v0z" />
</svg>
