<?xml version="1.0" standalone="no"?>
<!DOCTYPE svg PUBLIC "-//W3C//DTD SVG 1.1//EN" "http://www.w3.org/Graphics/SVG/1.1/DTD/svg11.dtd" >
<svg xmlns="http://www.w3.org/2000/svg" xmlns:xlink="http://www.w3.org/1999/xlink" version="1.1" viewBox="-10 -40 532 512">
   <path fill="currentColor"
d="M320 -39q-82 2 -136 56v0v0q-54 54 -56 136q1 52 24 94q24 42 65 68q5 3 10 -1l38 -38v0q3 -5 1 -10q-18 -29 -18 -65q1 -54 37 -91q37 -36 91 -37q42 1 74 24t47 61q2 5 8 5q7 -2 7 -8v-1v-1q-2 -82 -56 -136t-136 -56v0zM144 153q2 -75 52 -124v0v0q49 -50 124 -52
q65 1 111 40q47 38 61 99q-20 -27 -50 -43t-66 -16q-61 2 -102 42q-40 41 -42 102q0 37 17 68l-29 29v0q-35 -24 -55 -62q-21 -38 -21 -83v0zM118 259q-6 -4 -12 0q-4 6 0 12l11 10v0l-106 106v0q-11 11 -11 26t11 26l23 23v0q11 11 26 11t26 -11l106 -106v0l10 11v0
q6 4 12 0q4 -6 0 -12l-16 -16v0l-64 -64v0l-16 -16v0zM22 398l106 -106l-106 106l106 -106l53 53v0l-106 106v0q-6 6 -15 6t-15 -6l-23 -23v0q-6 -6 -6 -15q0 -8 6 -15v0z" />
</svg>
