<?xml version="1.0" standalone="no"?>
<!DOCTYPE svg PUBLIC "-//W3C//DTD SVG 1.1//EN" "http://www.w3.org/Graphics/SVG/1.1/DTD/svg11.dtd" >
<svg xmlns="http://www.w3.org/2000/svg" xmlns:xlink="http://www.w3.org/1999/xlink" version="1.1" viewBox="-10 -40 530 512">
   <path fill="currentColor"
d="M136 -39q7 1 8 8v17v0q1 42 36 64q42 27 44 78v17v0q-1 7 -8 8q-7 -1 -8 -8v-17v0q-1 -42 -36 -64q-42 -27 -44 -78v-17v0q1 -7 8 -8v0zM136 420q7 4 9 11q6 24 31 26h160v0q25 -2 31 -26q2 -7 9 -11q50 -25 81 -70q31 -46 36 -105l1 -27v0q-1 -15 -16 -17h-444v0
q-15 2 -16 17l2 27v0q4 59 35 105q31 45 81 70v0zM2 219q0 -14 9 -24v0v0q9 -10 23 -10h444v0q14 0 23 10t9 24l-2 27v0q-4 63 -38 113q-33 49 -87 75q-3 17 -16 28t-31 11h-160v0q-18 0 -31 -11t-16 -28q-54 -26 -87 -75q-34 -50 -38 -113l-2 -27v0zM272 -31v17v-17v17
q1 42 36 64q42 27 44 78v17v0q-1 7 -8 8q-7 -1 -8 -8v-17v0q-1 -42 -36 -64q-42 -27 -44 -78v-17v0q1 -7 8 -8q7 1 8 8v0z" />
</svg>
