<?xml version="1.0" standalone="no"?>
<!DOCTYPE svg PUBLIC "-//W3C//DTD SVG 1.1//EN" "http://www.w3.org/Graphics/SVG/1.1/DTD/svg11.dtd" >
<svg xmlns="http://www.w3.org/2000/svg" xmlns:xlink="http://www.w3.org/1999/xlink" version="1.1" viewBox="-11 0 661 512">
   <path fill="currentColor"
d="M177 164l-106 -113l106 113l-106 -113q-9 -10 -22 -10t-23 9t-10 22t9 23l110 118v0q19 20 47 20h410v0q14 0 23 -9t9 -23t-9 -23t-23 -9h-403v0q-7 0 -12 -5v0zM83 40l106 113l-106 -113l106 113h403v0q20 1 34 14q13 14 14 34q-1 20 -14 34q-14 13 -34 14h-410v0
q-34 -1 -59 -25l-110 -118v0q-14 -15 -13 -35q1 -19 15 -33q15 -14 35 -13q19 1 33 15v0zM272 425q0 -14 -9 -23v0v0q-9 -9 -23 -9t-23 9t-9 23t9 23t23 9t23 -9t9 -23v0zM288 425q-1 20 -14 34v0v0q-14 13 -34 14q-20 -1 -34 -14q-13 -14 -14 -34q1 -20 14 -34
q14 -13 34 -14q22 1 36 16l77 -49v0l-100 -63v0h30v0l85 54v0l85 -54v0h30v0l-100 63v0l77 49v0q14 -15 36 -16q20 1 34 14q13 14 14 34q-1 20 -14 34q-14 13 -34 14q-20 -1 -34 -14q-13 -14 -14 -34q0 -10 4 -18l-84 -53v0l-84 53v0q4 8 4 18v0zM496 457q14 0 23 -9v0v0
q9 -9 9 -23t-9 -23t-23 -9t-23 9t-9 23t9 23t23 9v0z" />
</svg>
