<?xml version="1.0" standalone="no"?>
<!DOCTYPE svg PUBLIC "-//W3C//DTD SVG 1.1//EN" "http://www.w3.org/Graphics/SVG/1.1/DTD/svg11.dtd" >
<svg xmlns="http://www.w3.org/2000/svg" xmlns:xlink="http://www.w3.org/1999/xlink" version="1.1" viewBox="-10 -40 532 512">
   <path fill="currentColor"
d="M265 12l44 34l-44 -34l44 34l10 -12v0l-10 12v0q13 10 30 10l56 -2v0q11 1 14 11l16 53v0q5 16 19 26l46 31v0q8 7 5 17q-2 6 -6 14v2v0v0h-1v0q-4 9 -8 20l12 16q4 -16 11 -30l1 -1q4 -8 6 -15q7 -22 -12 -36l-46 -31v0q-9 -7 -12 -17l-15 -54v0q-8 -21 -31 -22l-55 2v0
q-11 0 -20 -6l-44 -35v0q-19 -12 -38 0l-44 35v0q-9 6 -20 6l-55 -2v0q-23 1 -31 22l-15 54v0q-3 10 -13 17l-46 31v0q-18 14 -11 36q3 7 7 16v1q7 14 11 29l12 -16q-4 -11 -8 -20v0v0q-5 -9 -7 -16q-3 -10 5 -17l47 -31v0q13 -10 18 -25l16 -54v0q3 -10 14 -11l56 2v0
q17 0 30 -10l44 -34v0q9 -6 18 0v0zM256 169q67 1 121 33v0v0q54 32 86 86v0v0q32 54 33 121q-1 15 -16 16h-448v0q-15 -1 -16 -16q1 -67 33 -121t86 -86t121 -33v0zM32 441h448h-448h448q14 0 23 -9t9 -23q-1 -72 -35 -129q-34 -58 -92 -92q-57 -34 -129 -35q-72 1 -129 35
q-58 34 -92 92q-34 57 -35 129q0 14 9 23t23 9v0zM112 345q15 -1 16 -16q-1 -15 -16 -16q-15 1 -16 16q1 15 16 16v0zM192 265q-1 -15 -16 -16q-15 1 -16 16q1 15 16 16q15 -1 16 -16v0z" />
</svg>
