<?xml version="1.0" standalone="no"?>
<!DOCTYPE svg PUBLIC "-//W3C//DTD SVG 1.1//EN" "http://www.w3.org/Graphics/SVG/1.1/DTD/svg11.dtd" >
<svg xmlns="http://www.w3.org/2000/svg" xmlns:xlink="http://www.w3.org/1999/xlink" version="1.1" viewBox="-10 -40 532 512">
   <path fill="currentColor"
d="M464 41q14 0 23 9v0v0q9 9 9 23v64v0q0 14 -9 23t-23 9h-144v0v-128v0h144v0zM48 41h256h-256h256v128v0h-256v0q-14 0 -23 -9t-9 -23v-64v0q0 -14 9 -23t23 -9v0zM48 25q-20 1 -34 14v0v0q-13 14 -14 34v64v0q1 20 14 34q14 13 34 14h416v0q20 -1 34 -14q13 -14 14 -34
v-64v0q-1 -20 -14 -34q-14 -13 -34 -14h-416v0zM464 265q14 0 23 9v0v0q9 9 9 23v64v0q0 14 -9 23t-23 9h-272v0v-128v0h272v0zM48 265h128h-128h128v128v0h-128v0q-14 0 -23 -9t-9 -23v-64v0q0 -14 9 -23t23 -9v0zM48 249q-20 1 -34 14v0v0q-13 14 -14 34v64v0q1 20 14 34
q14 13 34 14h416v0q20 -1 34 -14q13 -14 14 -34v-64v0q-1 -20 -14 -34q-14 -13 -34 -14h-416v0z" />
</svg>
