<?xml version="1.0" standalone="no"?>
<!DOCTYPE svg PUBLIC "-//W3C//DTD SVG 1.1//EN" "http://www.w3.org/Graphics/SVG/1.1/DTD/svg11.dtd" >
<svg xmlns="http://www.w3.org/2000/svg" xmlns:xlink="http://www.w3.org/1999/xlink" version="1.1" viewBox="-10 -40 468 512">
   <path fill="currentColor"
d="M200 -15v64v-64v64q-1 7 -8 8q-7 -1 -8 -8v-49v0q-36 13 -57 43q-22 30 -23 70v8v0h240v0v-8v0q-1 -40 -23 -70q-21 -30 -57 -43v49v0q-1 7 -8 8q-7 -1 -8 -8v-64v0q-1 -7 -8 -8h-32v0q-7 1 -8 8v0zM184 -15q2 -22 24 -24h32v0q22 2 24 24v-2v0q42 14 69 48q26 35 27 82
v8v0h16v0q7 1 8 8q-1 7 -8 8h-304v0q-7 -1 -8 -8q1 -7 8 -8h16v0v-8v0q1 -47 27 -82q27 -34 69 -48v2v0zM224 281q-50 -1 -85 -32v0v0q-35 -32 -42 -80h16v0q7 42 37 68q31 27 74 28q43 -1 74 -28q30 -26 37 -68h16v0q-7 48 -42 80q-35 31 -85 32v0zM134 329q-50 1 -83 35v0
v0q-34 33 -35 83q1 9 10 10h396v0q9 -1 10 -10q-1 -50 -35 -83q-33 -34 -83 -35h-180v0zM0 447q1 -57 39 -95v0v0q38 -38 95 -39h180v0q57 1 95 39t39 95q-2 24 -26 26h-396v0q-24 -2 -26 -26v0z" />
</svg>
