<?xml version="1.0" standalone="no"?>
<!DOCTYPE svg PUBLIC "-//W3C//DTD SVG 1.1//EN" "http://www.w3.org/Graphics/SVG/1.1/DTD/svg11.dtd" >
<svg xmlns="http://www.w3.org/2000/svg" xmlns:xlink="http://www.w3.org/1999/xlink" version="1.1" viewBox="-10 -40 532 512">
   <path fill="currentColor"
d="M157 -14q5 6 1 11q-6 5 -12 1q-21 -20 -52 -21q-33 1 -55 23t-23 55q0 23 12 41q3 7 -2 11q-7 4 -11 -2q-15 -22 -15 -50q1 -40 27 -67q27 -26 67 -27q37 1 63 25v0zM103 413l-57 58l57 -58l-57 58q-6 4 -12 0q-4 -6 0 -12l58 -57v0q-58 -62 -60 -153q1 -63 31 -113
q29 -51 80 -80q50 -30 113 -31q63 1 113 31q51 29 80 80q30 50 31 113q-2 91 -60 153l58 57v0q4 6 0 12q-6 4 -12 0l-57 -58v0q-62 58 -153 60q-91 -2 -153 -60v0zM464 249q0 -57 -28 -104v0v0q-27 -47 -76 -76q-49 -28 -104 -28t-104 28q-49 29 -76 76q-28 47 -28 104
t28 104q27 47 76 76q49 28 104 28t104 -28q49 -29 76 -76q28 -47 28 -104v0zM355 -14q26 -24 63 -25q40 1 67 27q26 27 27 67q0 28 -15 50q-4 6 -11 2q-5 -4 -2 -11q12 -18 12 -41q-1 -33 -23 -55t-55 -23q-31 1 -52 21q-6 4 -12 -1q-4 -6 1 -11v0zM192 153h128h-128h128
q5 0 7 4q2 5 -1 9l-118 163v0h112v0q7 1 8 8q-1 7 -8 8h-128v0q-5 0 -7 -4q-2 -5 1 -9l118 -163v0h-112v0q-7 -1 -8 -8q1 -7 8 -8v0z" />
</svg>
