<?xml version="1.0" standalone="no"?>
<!DOCTYPE svg PUBLIC "-//W3C//DTD SVG 1.1//EN" "http://www.w3.org/Graphics/SVG/1.1/DTD/svg11.dtd" >
<svg xmlns="http://www.w3.org/2000/svg" xmlns:xlink="http://www.w3.org/1999/xlink" version="1.1" viewBox="-10 -40 660 512">
   <path fill="currentColor"
d="M392 -23q23 1 35 20q10 20 0 40q-12 19 -35 20q-23 -1 -35 -20q-10 -20 0 -40q12 -19 35 -20v0zM392 73q32 -1 48 -28q16 -28 0 -56q-16 -27 -48 -28q-32 1 -48 28q-16 28 0 56q16 27 48 28v0zM240 345q0 30 -15 56v0v0q-15 26 -41 41t-56 15t-56 -15t-41 -41t-15 -56
t15 -56t41 -41t56 -15t56 15t41 41t15 56v0zM128 217q-35 0 -64 17v0v0q-29 17 -47 47q-17 30 -17 64t17 64q18 30 47 47t64 17t64 -17t47 -47q17 -30 17 -64t-17 -64q-18 -30 -47 -47t-64 -17v0zM624 345q0 30 -15 56v0v0q-15 26 -41 41t-56 15t-56 -15t-41 -41t-15 -56
t15 -56t41 -41t56 -15t56 15t41 41t15 56v0zM512 217q-35 0 -64 17v0v0q-29 17 -47 47q-17 30 -17 64t17 64q18 30 47 47t64 17t64 -17t47 -47q17 -30 17 -64t-17 -64q-18 -30 -47 -47t-64 -17v0zM305 113q15 -12 31 -1l67 55v0q2 2 5 2h80v0q7 -1 8 -8q-1 -7 -8 -8h-77v0
l-65 -53v0q-12 -10 -26 -9q-14 0 -25 9l-60 51v0q-15 14 -14 33q2 19 19 31l96 62v0v100v0q1 7 8 8q7 -1 8 -8v-104v0q0 -4 -4 -7l-100 -64v0q-10 -8 -11 -19q0 -11 9 -20l59 -51v1z" />
</svg>
