<?xml version="1.0" standalone="no"?>
<!DOCTYPE svg PUBLIC "-//W3C//DTD SVG 1.1//EN" "http://www.w3.org/Graphics/SVG/1.1/DTD/svg11.dtd" >
<svg xmlns="http://www.w3.org/2000/svg" xmlns:xlink="http://www.w3.org/1999/xlink" version="1.1" viewBox="-10 -40 660 512">
   <path fill="currentColor"
d="M392 57q23 -1 35 -20q10 -20 0 -40q-12 -19 -35 -20q-23 1 -35 20q-10 20 0 40q12 19 35 20v0zM392 -39q32 1 48 28q16 28 0 56q-16 27 -48 28q-32 -1 -48 -28q-16 -28 0 -56q16 -27 48 -28v0zM336 112q-16 -11 -31 1l-59 50v0q-9 9 -9 20q1 12 11 19l100 64v0q4 3 4 7
v104v0q-1 7 -8 8q-7 -1 -8 -8v-100v0l-96 -62v0q-17 -12 -19 -31q-1 -19 14 -33l59 -51v0q12 -9 26 -9q14 -1 26 9l65 53v0h77v0q7 1 8 8q-1 7 -8 8h-80v0q-3 0 -5 -2l-67 -55v0zM490 246q-1 4 -5 6q-10 3 -20 8q-4 2 -8 0q-11 -7 -20 2l-8 8v0q-9 10 -2 20q2 4 0 9
q-5 9 -8 19q-2 4 -6 5q-12 4 -13 16v12v0q1 13 13 16q4 1 6 5q3 11 8 20q2 4 0 8q-7 11 2 20l8 9v0q10 8 20 2q4 -3 8 -1q10 5 20 8q4 2 5 6q3 12 16 13h12v0q13 -1 16 -13q1 -4 5 -6q10 -3 20 -8q4 -2 8 1q11 6 20 -2l8 -9v0q9 -9 2 -20q-2 -4 0 -8q5 -9 8 -20q2 -4 6 -5
q12 -3 13 -16v-12v0q-1 -12 -13 -16q-4 -1 -6 -5q-3 -10 -8 -20q-2 -4 0 -8q7 -11 -2 -20l-8 -8v0q-10 -9 -20 -2q-4 2 -8 0q-10 -5 -20 -8q-4 -2 -5 -6q-3 -12 -16 -13h-12v0q-12 1 -16 13v0zM506 217h12h-12h12q22 1 30 21q7 2 14 6q20 -8 36 6l9 9v0q14 16 6 36q4 7 6 14
q20 8 21 30v12v0q-1 22 -21 30q-2 7 -6 14q8 20 -6 36l-9 9v0q-16 14 -36 6q-7 4 -14 6q-8 20 -30 21h-12v0q-22 -1 -30 -21q-7 -2 -14 -6q-20 9 -36 -6l-9 -9v0q-14 -16 -6 -36q-4 -7 -6 -14q-20 -8 -21 -30v-12v0q1 -22 21 -30q2 -7 6 -14q-8 -20 6 -36l9 -9v0
q16 -14 36 -6q7 -4 14 -6q8 -20 30 -21v0zM472 345q1 23 20 35q20 10 40 0q19 -12 20 -35q-1 -23 -20 -35q-20 -10 -40 0q-19 12 -20 35v0zM512 401q-32 -1 -48 -28q-16 -28 0 -56q16 -27 48 -28q32 1 48 28q16 28 0 56q-16 27 -48 28v0zM122 233q-12 1 -16 13q-1 4 -5 6
q-10 3 -20 8q-4 2 -8 0q-11 -7 -20 2l-8 8v0q-9 10 -2 20q2 4 0 8q-5 10 -8 20q-2 4 -6 5q-12 3 -13 16v12v0q1 13 13 16q4 1 6 5q3 10 8 20q2 4 0 8q-7 11 2 20l8 9v0q10 8 20 2q4 -3 9 -1q9 5 19 8q4 2 5 6q4 12 16 13h12v0q13 -1 16 -13q1 -4 5 -6q11 -3 20 -8q4 -2 8 1
q11 6 20 -2l9 -9v0q8 -10 2 -20q-3 -4 -1 -8q5 -10 8 -20q2 -4 6 -5q12 -3 13 -16v-12v0q-1 -12 -13 -16q-4 -1 -6 -5q-3 -10 -8 -20q-2 -4 1 -8q6 -11 -2 -20l-9 -8v0q-9 -9 -20 -2q-4 2 -8 0q-9 -5 -20 -8q-4 -2 -5 -6q-3 -12 -16 -13h-12v0zM92 238q8 -20 30 -21h12v0
q22 1 30 21q7 2 14 6q20 -8 36 6l9 9v0q14 16 6 36q4 7 6 14q20 8 21 30v12v0q-1 22 -21 30q-2 7 -6 14q8 20 -6 36l-9 9v0q-16 14 -36 6q-7 4 -14 6q-8 20 -30 21h-12v0q-22 -1 -30 -21q-7 -2 -14 -6q-20 9 -36 -6l-9 -9v0q-14 -16 -6 -36q-4 -7 -6 -14q-20 -8 -21 -30v-12
v0q1 -22 21 -30q2 -7 6 -14q-8 -20 6 -36l9 -9v0q16 -14 36 -6q7 -4 14 -6v0zM128 305q-23 1 -35 20q-10 20 0 40q12 19 35 20q23 -1 35 -20q10 -20 0 -40q-12 -19 -35 -20v0zM184 345q-1 32 -28 48q-28 16 -56 0q-27 -16 -28 -48q1 -32 28 -48q28 -16 56 0q27 16 28 48v0z
M266 63l-4 -6l4 6l-4 -6q-13 -17 -33 -19q-20 -3 -36 10l-43 35v0l34 47v0l82 -67v0zM276 75l-82 67l82 -67l-82 67q-12 9 -23 -2l-34 -47v0q-7 -13 3 -22l43 -35v0q22 -17 48 -14t44 25l4 7v0q7 12 -3 21v0z" />
</svg>
