<?xml version="1.0" standalone="no"?>
<!DOCTYPE svg PUBLIC "-//W3C//DTD SVG 1.1//EN" "http://www.w3.org/Graphics/SVG/1.1/DTD/svg11.dtd" >
<svg xmlns="http://www.w3.org/2000/svg" xmlns:xlink="http://www.w3.org/1999/xlink" version="1.1" viewBox="-10 -40 660 512">
   <path fill="currentColor"
d="M64 -23h128h-128h128q20 1 34 14q13 14 14 34h16v0q-1 -27 -19 -45t-45 -19h-128v0q-27 1 -45 19t-19 45v128v0q1 27 19 45t45 19h64v0v-16v0h-64v0q-20 -1 -34 -14q-13 -14 -14 -34v-128v0q1 -20 14 -34q14 -13 34 -14v0zM448 473h128h-128h128q27 -1 45 -19t19 -45
v-128v0q-1 -27 -19 -45t-45 -19h-64v0v16v0h64v0q20 1 34 14q13 14 14 34v128v0q-1 20 -14 34q-14 13 -34 14h-128v0q-20 -1 -34 -14q-13 -14 -14 -34h-16v0q1 27 19 45t45 19v0zM416 73q20 1 34 14v0v0q13 14 14 34v192v0q-1 20 -14 34q-14 13 -34 14h-192v0
q-20 -1 -34 -14q-13 -14 -14 -34v-192v0q1 -20 14 -34q14 -13 34 -14h192v0zM224 57q-27 1 -45 19v0v0q-18 18 -19 45v192v0q1 27 19 45t45 19h192v0q27 -1 45 -19t19 -45v-192v0q-1 -27 -19 -45t-45 -19h-192v0zM256 137h128h-128h128q15 1 16 16v128v0q-1 15 -16 16h-128
v0q-15 -1 -16 -16v-128v0q1 -15 16 -16v0zM224 153v128v-128v128q0 14 9 23t23 9h128v0q14 0 23 -9t9 -23v-128v0q0 -14 -9 -23t-23 -9h-128v0q-14 0 -23 9t-9 23v0z" />
</svg>
