<?xml version="1.0" standalone="no"?>
<!DOCTYPE svg PUBLIC "-//W3C//DTD SVG 1.1//EN" "http://www.w3.org/Graphics/SVG/1.1/DTD/svg11.dtd" >
<svg xmlns="http://www.w3.org/2000/svg" xmlns:xlink="http://www.w3.org/1999/xlink" version="1.1" viewBox="-10 -40 660 512">
   <path fill="currentColor"
d="M33 20q-18 16 -17 45h176h176q1 -29 -17 -45t-57 -29q-38 -13 -102 -14q-64 1 -102 14q-39 13 -57 29v0zM16 81v112v-112v112h168v0v-112v0h-168v0zM16 209v112v-112v112q0 17 12 28q11 12 28 12h40h128v16v0h-112v0v32v0q0 14 -9 23t-23 9h-16v0q-14 0 -23 -9t-9 -23
v-32v0v-5v0q-30 -16 -32 -51v-255v0q0 -16 4 -32q5 -15 19 -27q20 -18 62 -31q41 -14 107 -15q66 1 107 15q42 13 62 31q14 12 19 27q4 16 4 32v39v0h-4v0q-6 0 -12 1v-25v0h-168v0v112v0h83v0l-5 16v0h-86h-176zM96 377h-40h40h-48v32v0q1 15 16 16h16v0q15 -1 16 -16v-32
v0zM96 265q-15 1 -16 16q1 15 16 16q15 -1 16 -16q-1 -15 -16 -16v0zM128 281q0 14 -9 23v0v0q-9 9 -23 9t-23 -9t-9 -23t9 -23t23 -9t23 9t9 23v0zM380 153q-29 2 -38 29l-20 68v0q7 -1 14 -1h224v0q7 0 14 1l-20 -68v0q-9 -27 -38 -29h-136v0zM304 255l22 -77l-22 77
l22 -77q6 -19 21 -30q14 -11 33 -11h136v0q19 0 34 11q14 11 20 30l22 77v0h-1v0q22 9 35 29q14 20 14 45v64v0v16v0v32v0q0 14 -9 23t-23 9h-16v0q-14 0 -23 -9t-9 -23v-32v0h-224v0v32v0q0 14 -9 23t-23 9h-16v0q-14 0 -23 -9t-9 -23v-32v0v-16v0v-64v0q0 -25 14 -45
q13 -20 35 -29h-1v0zM576 393h48h-48h48v-64v0q-1 -27 -19 -45t-45 -19h-224v0q-27 1 -45 19t-19 45v64v0h48h256zM592 457h16h-16h16q15 -1 16 -16v-32v0h-48v0v32v0q1 15 16 16v0zM320 409h-48h48h-48v32v0q1 15 16 16h16v0q15 -1 16 -16v-32v0zM320 329q1 15 16 16
q15 -1 16 -16q-1 -15 -16 -16q-15 1 -16 16v0zM336 361q-14 0 -23 -9v0v0q-9 -9 -9 -23t9 -23t23 -9t23 9t9 23t-9 23t-23 9v0zM560 313q-15 1 -16 16q1 15 16 16q15 -1 16 -16q-1 -15 -16 -16v0zM592 329q0 14 -9 23v0v0q-9 9 -23 9t-23 -9t-9 -23t9 -23t23 -9t23 9t9 23v0
z" />
</svg>
