<?xml version="1.0" standalone="no"?>
<!DOCTYPE svg PUBLIC "-//W3C//DTD SVG 1.1//EN" "http://www.w3.org/Graphics/SVG/1.1/DTD/svg11.dtd" >
<svg xmlns="http://www.w3.org/2000/svg" xmlns:xlink="http://www.w3.org/1999/xlink" version="1.1" viewBox="-10 -40 660 512">
   <path fill="currentColor"
d="M124 -23h136h-136h136q29 2 38 29l20 68v0q-7 -1 -14 -1h-224v0q-7 0 -14 1l20 -68v0q9 -27 38 -29v0zM48 79h1h-1h1q-22 9 -35 29q-14 20 -14 45v64v0v16v0v32v0q0 14 9 23t23 9h16v0q14 0 23 -9t9 -23v-32v0h191v0l5 -16v0h-196h-64v-64v0q1 -27 19 -45t45 -19h224v0
q29 1 47 21q9 -3 18 -4q-14 -18 -34 -27h1v0l-22 -77v0q-6 -19 -20 -30q-15 -11 -34 -11h-136v0q-19 0 -34 11q-14 11 -20 30l-22 77v0zM16 233h48h-48h48v32v0q-1 15 -16 16h-16v0q-15 -1 -16 -16v-32v0zM96 153q-1 15 -16 16q-15 -1 -16 -16q1 -15 16 -16q15 1 16 16v0z
M80 121q-14 0 -23 9v0v0q-9 9 -9 23t9 23t23 9t23 -9t9 -23t-9 -23t-23 -9v0zM342 182l-20 68l20 -68l-20 68q7 -1 14 -1h224v0q7 0 14 1l-20 -68v0q-9 -27 -38 -29h-136v0q-29 2 -38 29v0zM305 255h-1h1h-1l22 -77v0q6 -19 21 -30q14 -11 33 -11h136v0q19 0 34 11
q14 11 20 30l22 77v0h-1v0q22 9 35 29q14 20 14 45v64v0v16v0v32v0q0 14 -9 23t-23 9h-16v0q-14 0 -23 -9t-9 -23v-32v0h-224v0v32v0q0 14 -9 23t-23 9h-16v0q-14 0 -23 -9t-9 -23v-32v0v-16v0v-64v0q0 -25 14 -45q13 -20 35 -29v0zM560 393h16h-16h64v-64v0q-1 -27 -19 -45
t-45 -19h-224v0q-27 1 -45 19t-19 45v64v0h48h240zM576 409v32v-32v32q1 15 16 16h16v0q15 -1 16 -16v-32v0h-48v0zM272 409v32v-32v32q1 15 16 16h16v0q15 -1 16 -16v-32v0h-48v0zM336 313q-15 1 -16 16q1 15 16 16q15 -1 16 -16q-1 -15 -16 -16v0zM368 329q0 14 -9 23v0v0
q-9 9 -23 9t-23 -9t-9 -23t9 -23t23 -9t23 9t9 23v0zM544 329q1 15 16 16q15 -1 16 -16q-1 -15 -16 -16q-15 1 -16 16v0zM560 361q-14 0 -23 -9v0v0q-9 -9 -9 -23t9 -23t23 -9t23 9t9 23t-9 23t-23 9v0z" />
</svg>
