<?xml version="1.0" standalone="no"?>
<!DOCTYPE svg PUBLIC "-//W3C//DTD SVG 1.1//EN" "http://www.w3.org/Graphics/SVG/1.1/DTD/svg11.dtd" >
<svg xmlns="http://www.w3.org/2000/svg" xmlns:xlink="http://www.w3.org/1999/xlink" version="1.1" viewBox="-10 -40 532 512">
   <path fill="currentColor"
d="M112 -23q-41 1 -68 28v0v0q-27 27 -28 68q1 37 23 63q23 26 58 32q7 1 15 1q7 1 8 8q-1 7 -8 8q-9 0 -17 -1q-41 -7 -68 -38q-26 -30 -27 -73q1 -48 33 -79q31 -32 79 -33q43 1 73 27q31 27 38 68q1 8 1 17q-1 7 -8 8q-7 -1 -8 -8q0 -8 -1 -15q-6 -35 -32 -58
q-26 -22 -63 -23v0zM112 49q-22 2 -24 24q2 22 24 24q22 -2 24 -24q-2 -22 -24 -24v0zM72 73q0 -17 12 -28v0v0q11 -12 28 -12t28 12q12 11 12 28q0 12 -7 22l26 26v0h170v0l26 -26v0q-7 -10 -7 -22q0 -17 12 -28q11 -12 28 -12t28 12q12 11 12 28t-12 28q-11 12 -28 12
q-12 0 -22 -7l-26 26v0v170v0l26 26v0q10 -7 22 -7q17 0 28 12q12 11 12 28t-12 28q-11 12 -28 12t-28 -12q-12 -11 -12 -28q0 -12 7 -22l-26 -26v0h-170v0l-26 26v0q7 10 7 22q0 17 -12 28q-11 12 -28 12t-28 -12q-12 -11 -12 -28t12 -28q11 -12 28 -12q12 0 22 7l26 -26v0
v-170v0l-26 -26v0q-10 7 -22 7q-17 0 -28 -12q-12 -11 -12 -28v0zM112 337q-22 2 -24 24q2 22 24 24q22 -2 24 -24q-2 -22 -24 -24v0zM376 361q2 22 24 24q22 -2 24 -24q-2 -22 -24 -24q-22 2 -24 24v0zM400 49q-22 2 -24 24q2 22 24 24q22 -2 24 -24q-2 -22 -24 -24v0z
M176 297h160h-160h160v-160v0h-160v0v160v0zM496 73q-1 -41 -28 -68v0v0q-27 -27 -68 -28q-37 1 -63 23q-26 23 -32 58q-1 7 -1 15q-1 7 -8 8q-7 -1 -8 -8q0 -9 1 -17q7 -41 38 -68q30 -26 73 -27q48 1 79 33q32 31 33 79q-1 43 -27 73q-27 31 -68 38q-8 1 -17 1
q-7 -1 -8 -8q1 -7 8 -8q8 0 15 -1q35 -6 58 -32q22 -26 23 -63v0zM112 457q37 -1 63 -23v0v0q26 -23 32 -58q1 -7 1 -15q1 -7 8 -8q7 1 8 8q0 9 -1 17q-7 41 -38 68q-30 26 -73 27q-48 -1 -79 -33q-32 -31 -33 -79q1 -43 27 -73q27 -31 68 -38q8 -1 17 -1q7 1 8 8q-1 7 -8 8
q-8 0 -15 1q-35 6 -58 32q-22 26 -23 63q1 41 28 68t68 28v0zM496 361q-1 -37 -23 -63v0v0q-23 -26 -58 -32q-7 -1 -15 -1q-7 -1 -8 -8q1 -7 8 -8q9 0 17 1q41 7 68 38q26 30 27 73q-1 48 -33 79q-31 32 -79 33q-43 -1 -73 -27q-31 -27 -38 -68q-1 -8 -1 -17q1 -7 8 -8
q7 1 8 8q0 8 1 15q6 35 32 58q26 22 63 23q41 -1 68 -28t28 -68v0z" />
</svg>
