<?xml version="1.0" standalone="no"?>
<!DOCTYPE svg PUBLIC "-//W3C//DTD SVG 1.1//EN" "http://www.w3.org/Graphics/SVG/1.1/DTD/svg11.dtd" >
<svg xmlns="http://www.w3.org/2000/svg" xmlns:xlink="http://www.w3.org/1999/xlink" version="1.1" viewBox="-10 -40 468 512">
   <path fill="currentColor"
d="M384 -23q20 1 34 14v0v0q13 14 14 34v384v0q-1 20 -14 34q-14 13 -34 14h-320v0q-20 -1 -34 -14q-13 -14 -14 -34v-384v0q1 -20 14 -34q14 -13 34 -14h320v0zM64 -39q-27 1 -45 19v0v0q-18 18 -19 45v384v0q1 27 19 45t45 19h320v0q27 -1 45 -19t19 -45v-384v0
q-1 -27 -19 -45t-45 -19h-320v0zM96 41q15 1 16 16q-1 15 -16 16q-15 -1 -16 -16q1 -15 16 -16v0zM96 89q14 0 23 -9v0v0q9 -9 9 -23t-9 -23t-23 -9t-23 9t-9 23t9 23t23 9v0zM176 57q1 -15 16 -16q15 1 16 16q-1 15 -16 16q-15 -1 -16 -16v0zM224 57q0 -14 -9 -23v0v0
q-9 -9 -23 -9t-23 9t-9 23t9 23t23 9t23 -9t9 -23v0zM224 393q-52 -1 -88 -35v0v0q-35 -34 -40 -85h88v0q7 -1 8 -8q-1 -7 -8 -8h-88v0q5 -51 40 -85q36 -34 88 -35q54 1 91 37q36 37 37 91q-1 54 -37 91q-37 36 -91 37v0zM224 409q39 0 72 -19v0v0q33 -19 53 -53
q19 -34 19 -72t-19 -72q-20 -34 -53 -53t-72 -19t-72 19t-53 53q-19 34 -19 72t19 72q20 34 53 53t72 19v0z" />
</svg>
