<?xml version="1.0" standalone="no"?>
<!DOCTYPE svg PUBLIC "-//W3C//DTD SVG 1.1//EN" "http://www.w3.org/Graphics/SVG/1.1/DTD/svg11.dtd" >
<svg xmlns="http://www.w3.org/2000/svg" xmlns:xlink="http://www.w3.org/1999/xlink" version="1.1" viewBox="-10 -40 532 512">
   <path fill="currentColor"
d="M372 233q53 -3 88 -39v0v0q35 -36 36 -89q-1 -54 -37 -91q-37 -36 -91 -37q-41 1 -72 22q-32 22 -47 58h-17v0q16 -43 52 -69t84 -27q61 2 102 42q40 41 42 102q-2 61 -42 101q-40 41 -100 43l2 -16v0zM33 105q-16 2 -16 18l10 94v0h298v0l10 -94v0q0 -16 -16 -18h-286v0
zM50 421q2 16 13 26v0v0q11 10 26 10h173v0q16 0 27 -10t13 -26l21 -188v0h-294v0l21 188v0zM1 125q-1 -15 8 -25v0v0q9 -11 24 -11h286v0q15 0 24 11q9 10 8 25l-33 298v0q-3 22 -18 36q-16 14 -37 14h-174v0q-22 0 -37 -14t-18 -36l-33 -298v0z" />
</svg>
