<?xml version="1.0" standalone="no"?>
<!DOCTYPE svg PUBLIC "-//W3C//DTD SVG 1.1//EN" "http://www.w3.org/Graphics/SVG/1.1/DTD/svg11.dtd" >
<svg xmlns="http://www.w3.org/2000/svg" xmlns:xlink="http://www.w3.org/1999/xlink" version="1.1" viewBox="-10 -40 660 512">
   <path fill="currentColor"
d="M434 25q-8 -1 -10 6l-40 208v0q-1 4 2 7q2 3 6 3h232v0v152v0q1 7 8 8q7 -1 8 -8v-368v0q-1 -7 -8 -8q-7 1 -8 8v200v0h-222v0l38 -198v0q1 -8 -6 -10v0zM16 33q-1 -7 -8 -8q-7 1 -8 8v176v0v192v0q1 7 8 8q7 -1 8 -8v-184v0h288v0v184v0q1 7 8 8q7 -1 8 -8v-192v0v-176
v0q-1 -7 -8 -8q-7 1 -8 8v168v0h-288v0v-168v0z" />
</svg>
