<?xml version="1.0" standalone="no"?>
<!DOCTYPE svg PUBLIC "-//W3C//DTD SVG 1.1//EN" "http://www.w3.org/Graphics/SVG/1.1/DTD/svg11.dtd" >
<svg xmlns="http://www.w3.org/2000/svg" xmlns:xlink="http://www.w3.org/1999/xlink" version="1.1" viewBox="-10 -40 532 512">
   <path fill="currentColor"
d="M162 28q-2 3 -6 4q-3 0 -6 -2q-22 -20 -54 -21q-34 1 -57 23q-22 23 -23 57q0 11 3 22v0v0q6 27 18 62q13 36 25 68q13 32 20 49q3 7 11 7h57v0l-30 -167v0q-1 -7 7 -9q7 -1 9 6l31 170v0h81v0v-200v0q1 -7 8 -8q7 1 8 8v200v0h81v0l31 -169v0q2 -7 9 -7q7 2 7 10
l-30 166v0h57v0q8 0 11 -7q7 -17 20 -49q12 -33 25 -68q12 -35 18 -62v0v0q3 -11 3 -22q-1 -34 -23 -56q-23 -23 -57 -24q-32 1 -54 21q-2 2 -6 2q-4 -1 -6 -4q-15 -23 -40 -37q-24 -14 -54 -14t-54 14q-25 14 -40 37v0zM160 313h-67h67h-67q-18 -1 -25 -17q-8 -17 -20 -49
q-13 -33 -26 -69q-12 -36 -18 -63q-4 -13 -4 -26q1 -41 28 -68t68 -28q33 1 58 19q37 -49 102 -51q65 2 102 51q25 -18 58 -19q41 1 68 28t28 68q0 13 -3 26q-7 27 -19 63q-13 36 -26 69q-12 32 -20 50q-7 15 -25 16h-67v0v0h-96h-96v0v0zM64 345h16h-16h16v80v0q0 14 9 23
t23 9h288v0q14 0 23 -9t9 -23v-80v0h16v0v80v0q-1 20 -14 34q-14 13 -34 14h-288v0q-20 -1 -34 -14q-13 -14 -14 -34v-80v0z" />
</svg>
