<?xml version="1.0" standalone="no"?>
<!DOCTYPE svg PUBLIC "-//W3C//DTD SVG 1.1//EN" "http://www.w3.org/Graphics/SVG/1.1/DTD/svg11.dtd" >
<svg xmlns="http://www.w3.org/2000/svg" xmlns:xlink="http://www.w3.org/1999/xlink" version="1.1" viewBox="-10 -40 596 512">
   <path fill="currentColor"
d="M64 41q-15 1 -16 16v256v0q1 34 23 57q23 22 57 23h192v0q34 -1 57 -23q22 -23 23 -57v-64v0v-16v0v-192v0h-32h-304zM416 249v64v-64v64q-1 41 -28 68t-68 28h-192v0q-41 -1 -68 -28t-28 -68v-256v0q0 -14 9 -23t23 -9h304h96q48 1 79 33q32 31 33 79q-1 48 -33 79
q-31 32 -79 33h-48v0zM416 233h48h-48h48q41 -1 68 -28t28 -68q-1 -41 -28 -68t-68 -28h-48v0v192v0z" />
</svg>
