<?xml version="1.0" standalone="no"?>
<!DOCTYPE svg PUBLIC "-//W3C//DTD SVG 1.1//EN" "http://www.w3.org/Graphics/SVG/1.1/DTD/svg11.dtd" >
<svg xmlns="http://www.w3.org/2000/svg" xmlns:xlink="http://www.w3.org/1999/xlink" version="1.1" viewBox="-10 -40 586 512">
   <path fill="currentColor"
d="M152 41v37v-37v37l-46 53v0q-10 11 -10 26v52v0q0 17 12 28q11 12 28 12h48v0q17 0 28 -12q12 -11 12 -28v-52v0q0 -15 -10 -26l-46 -53v0v-37v0h168h32v192v0v16v0v64v0q-1 34 -23 57q-23 22 -57 23h-192v0q-34 -1 -57 -23q-22 -23 -23 -57v-256v0q1 -15 16 -16h120v0z
M384 313v-64v64v-64h48v0q48 -1 79 -33q32 -31 33 -79q-1 -48 -33 -79q-31 -32 -79 -33h-48h-352q-14 0 -23 9t-9 23v256v0q1 41 28 68t68 28h192v0q41 -1 68 -28t28 -68v0zM432 233h-48h48h-48v-192v0h48v0q41 1 68 28t28 68q-1 41 -28 68t-68 28v0zM118 141l42 -48l-42 48
l42 -48l42 48v0q6 7 6 16v52v0q-2 22 -24 24h-48v0q-22 -2 -24 -24v-52v0q0 -9 6 -16v0z" />
</svg>
