<?xml version="1.0" standalone="no"?>
<!DOCTYPE svg PUBLIC "-//W3C//DTD SVG 1.1//EN" "http://www.w3.org/Graphics/SVG/1.1/DTD/svg11.dtd" >
<svg xmlns="http://www.w3.org/2000/svg" xmlns:xlink="http://www.w3.org/1999/xlink" version="1.1" viewBox="-10 -40 586 512">
   <path fill="currentColor"
d="M422 -5l112 112l-112 -112l112 112q4 6 0 12q-6 4 -12 0l-98 -99v0v413v0q-1 7 -8 8q-7 -1 -8 -8v-413v0l-98 99v0q-6 4 -12 0q-4 -6 0 -12l112 -112v0q6 -4 12 0v0zM278 327l-112 112l112 -112l-112 112q-6 4 -12 0l-112 -112v0q-4 -6 0 -12q6 -4 12 0l98 99v0v-413v0
q1 -7 8 -8q7 1 8 8v413v0l98 -99v0q6 -4 12 0q4 6 0 12v0z" />
</svg>
