<?xml version="1.0" standalone="no"?>
<!DOCTYPE svg PUBLIC "-//W3C//DTD SVG 1.1//EN" "http://www.w3.org/Graphics/SVG/1.1/DTD/svg11.dtd" >
<svg xmlns="http://www.w3.org/2000/svg" xmlns:xlink="http://www.w3.org/1999/xlink" version="1.1" viewBox="-10 -40 458 512">
   <path fill="currentColor"
d="M40 9q-7 1 -8 8v48v0q-1 7 -8 8q-7 -1 -8 -8v-48v0q2 -22 24 -24h184h184q22 2 24 24v48v0q-1 7 -8 8q-7 -1 -8 -8v-48v0q-1 -7 -8 -8h-176v0v416v0h80v0q7 1 8 8q-1 7 -8 8h-88h-88q-7 -1 -8 -8q1 -7 8 -8h80v0v-416v0h-176v0z" />
</svg>
