<?xml version="1.0" standalone="no"?>
<!DOCTYPE svg PUBLIC "-//W3C//DTD SVG 1.1//EN" "http://www.w3.org/Graphics/SVG/1.1/DTD/svg11.dtd" >
<svg xmlns="http://www.w3.org/2000/svg" xmlns:xlink="http://www.w3.org/1999/xlink" version="1.1" viewBox="-10 -40 468 512">
   <path fill="currentColor"
d="M178 -23h92h-92h92q13 0 21 11l23 37v0h-180v0l23 -37v0q8 -11 21 -11v0zM144 -20l-28 45l28 -45l-28 45h-108v0q-7 1 -8 8q1 7 8 8h432v0q7 -1 8 -8q-1 -7 -8 -8h-108v0l-28 -45v0q-12 -18 -34 -19h-92v0q-22 1 -34 19v0zM48 80q-1 -7 -9 -7q-7 1 -7 9l28 340v0
q3 22 18 36q16 15 38 15h216v0q22 0 38 -15q15 -14 18 -36l28 -340v0q0 -8 -7 -9q-8 0 -9 7l-28 340v0q-2 16 -13 26q-11 11 -27 11h-216v0q-16 0 -27 -11q-11 -10 -13 -26l-28 -340v0zM214 148q-6 -5 -11 -1l-88 80v0q-3 3 -3 6t3 6l88 80v0q5 4 11 -1q4 -5 -1 -11l-72 -66
v0h107v0q24 1 40 16q15 16 16 40v40v0q1 7 8 8q7 -1 8 -8v-40v0q-1 -31 -21 -51t-51 -21h-107v0l72 -66v0q5 -6 1 -11v0z" />
</svg>
