<?xml version="1.0" standalone="no"?>
<!DOCTYPE svg PUBLIC "-//W3C//DTD SVG 1.1//EN" "http://www.w3.org/Graphics/SVG/1.1/DTD/svg11.dtd" >
<svg xmlns="http://www.w3.org/2000/svg" xmlns:xlink="http://www.w3.org/1999/xlink" version="1.1" viewBox="-10 -40 529 512">
   <path fill="currentColor"
d="M64 -39h384h-384h384q14 0 23 9t9 23v8v0q-1 7 -8 8q-7 -1 -8 -8v-8v0q-1 -15 -16 -16h-384v0q-15 1 -16 16v8v0q-1 7 -8 8q-7 -1 -8 -8v-8v0q0 -14 9 -23t23 -9v0zM16 73q0 -14 9 -23v0v0q9 -9 23 -9h416v0q14 0 23 9t9 23v8v0q-1 7 -8 8q-7 -1 -8 -8v-8v0
q-1 -15 -16 -16h-416v0q-15 1 -16 16v8v0q-1 7 -8 8q-7 -1 -8 -8v-8v0zM4 174q-1 -22 12 -37v0v0q14 -15 36 -16h408v0q22 1 36 16q13 15 12 37l-25 256v0q-2 18 -15 31q-13 12 -32 12h-360v0q-19 0 -32 -12q-13 -13 -15 -31l-25 -256v0zM52 137q-15 0 -24 10v0v0
q-9 10 -8 25l25 256v0q4 27 31 29h360v0q27 -2 32 -29l24 -256v0q1 -15 -8 -25t-24 -10h-408v0zM416 301q-1 -47 -45 -80q-45 -34 -115 -36q-70 1 -115 36q-44 33 -45 80q1 47 45 81q45 33 115 35q70 -1 115 -35q44 -34 45 -81v0zM432 301q-2 56 -52 93v0v0q-49 38 -124 39
q-75 -1 -124 -39q-50 -37 -52 -93q2 -56 52 -93q49 -38 124 -39q75 1 124 39q50 37 52 93v0zM282 330q-12 7 -26 7t-26 -7q-12 -8 -14 -25q2 -17 14 -25q12 -7 26 -7t26 7q12 8 14 25q-2 17 -14 25v0zM256 321q22 -1 24 -16q-2 -15 -24 -16q-22 1 -24 16q2 15 24 16v0z" />
</svg>
