<?xml version="1.0" standalone="no"?>
<!DOCTYPE svg PUBLIC "-//W3C//DTD SVG 1.1//EN" "http://www.w3.org/Graphics/SVG/1.1/DTD/svg11.dtd" >
<svg xmlns="http://www.w3.org/2000/svg" xmlns:xlink="http://www.w3.org/1999/xlink" version="1.1" viewBox="-10 -40 469 512">
   <path fill="currentColor"
d="M224 -39q-24 1 -40 16v0v0q-15 16 -16 40q1 25 18 41l-25 43v0q-2 3 -6 4h-45v0q-7 -21 -26 -32q-21 -12 -42 -6q-22 6 -34 26q-12 21 -6 42q6 22 26 35q21 11 42 5l22 38v0q2 4 0 8l-22 38v0q-21 -6 -42 6q-20 12 -26 34q-6 21 6 42q12 20 34 26q21 6 42 -5
q19 -12 26 -33l45 1v0q4 0 6 4l25 42v0q-17 16 -18 41q1 24 16 40q16 15 40 16q24 -1 40 -16q15 -16 16 -40q-1 -25 -18 -41l25 -43v0q2 -3 7 -4h44v0q7 21 26 32q21 12 42 6q22 -6 35 -26q11 -21 5 -43q-6 -21 -26 -34q-21 -11 -42 -5l-22 -38v0q-2 -4 0 -8l22 -38v0
q21 6 42 -5q20 -13 26 -35q6 -21 -5 -42q-13 -20 -35 -26q-21 -6 -42 6q-19 11 -26 32h-44v0q-5 -1 -7 -4l-7 4v0l7 -4v0l-25 -43v0q17 -16 18 -41q-1 -24 -16 -40q-16 -15 -40 -16v0zM184 17q0 -17 12 -28v0v0q11 -12 28 -12t28 12q12 11 12 28q-1 21 -17 33q-5 4 -2 10
l28 49v0q7 11 21 12h51v0q6 -1 8 -7q3 -18 19 -28q15 -8 30 -4q16 5 25 19q8 15 4 30q-5 16 -19 25q-18 9 -35 2q-6 -2 -10 4l-25 43v0q-6 12 0 24l25 43v0q4 6 10 4q18 -7 35 2q14 9 19 25q4 15 -4 30q-9 14 -25 19q-15 4 -30 -4q-16 -10 -19 -28q-2 -6 -8 -7h-51v0
q-14 1 -21 12l-28 49v0q-3 6 2 10q16 12 17 33q0 17 -12 28q-11 12 -28 12t-28 -12q-12 -11 -12 -28q1 -21 17 -33q5 -4 2 -10l-28 -49v0q-7 -11 -20 -12h-52v0q-6 1 -8 7q-3 18 -19 28q-15 8 -30 4q-16 -5 -25 -19q-8 -15 -3 -30q4 -16 18 -25q18 -9 35 -2q6 2 10 -4
l25 -43v0q6 -12 0 -24l-25 -43v0q-4 -6 -10 -4q-17 7 -35 -2q-14 -9 -19 -25q-4 -15 4 -30q9 -14 25 -19q15 -4 30 4q16 10 20 28q1 6 7 7h52v0q13 -1 20 -12l28 -49v0q3 -6 -2 -10q-16 -12 -17 -33v0zM224 281q36 -1 55 -32q18 -32 0 -64q-19 -31 -55 -32q-36 1 -55 32
q-18 32 0 64q19 31 55 32v0zM176 217q1 -27 24 -42q24 -12 48 0q23 15 24 42q-1 27 -24 42q-24 12 -48 0q-23 -15 -24 -42v0z" />
</svg>
