<?xml version="1.0" standalone="no"?>
<!DOCTYPE svg PUBLIC "-//W3C//DTD SVG 1.1//EN" "http://www.w3.org/Graphics/SVG/1.1/DTD/svg11.dtd" >
<svg xmlns="http://www.w3.org/2000/svg" xmlns:xlink="http://www.w3.org/1999/xlink" version="1.1" viewBox="-10 -40 596 512">
   <path fill="currentColor"
d="M16 105v272v-272v272q1 20 14 34q14 13 34 14h448v0q20 -1 34 -14q13 -14 14 -34v-272v0h-544v0zM16 89h544h-544h544v-32v0q-1 -20 -14 -34q-14 -13 -34 -14h-448v0q-20 1 -34 14q-13 14 -14 34v32v0zM576 57v32v-32v32v8v0v8v0v272v0q-1 27 -19 45t-45 19h-448v0
q-27 -1 -45 -19t-19 -45v-272v0v-8v0v-8v0v-32v0q1 -27 19 -45t45 -19h448v0q27 1 45 19t19 45v0zM240 265q-1 -45 -40 -69q-40 -22 -80 0q-39 24 -40 69q1 45 40 69q40 22 80 0q39 -24 40 -69v0zM64 265q0 -26 13 -48v0v0q13 -22 35 -35q23 -13 48 -13t48 13q22 13 35 35
t13 48t-13 48t-35 35q-23 13 -48 13t-48 -13q-22 -13 -35 -35t-13 -48v0zM160 249q-15 1 -16 16q1 15 16 16q15 -1 16 -16q-1 -15 -16 -16v0zM192 265q0 14 -9 23v0v0q-9 9 -23 9t-23 -9t-9 -23t9 -23t23 -9t23 9t9 23v0zM352 185q-15 1 -16 16v128v0q1 15 16 16h128v0
q15 -1 16 -16v-128v0q-1 -15 -16 -16h-128v0zM320 201q0 -14 9 -23v0v0q9 -9 23 -9h128v0q14 0 23 9t9 23v128v0q0 14 -9 23t-23 9h-128v0q-14 0 -23 -9t-9 -23v-128v0z" />
</svg>
