<?xml version="1.0" standalone="no"?>
<!DOCTYPE svg PUBLIC "-//W3C//DTD SVG 1.1//EN" "http://www.w3.org/Graphics/SVG/1.1/DTD/svg11.dtd" >
<svg xmlns="http://www.w3.org/2000/svg" xmlns:xlink="http://www.w3.org/1999/xlink" version="1.1" viewBox="-10 -40 596 512">
   <path fill="currentColor"
d="M64 65q1 -24 16 -40v0v0q16 -15 40 -16h192v0q7 -1 8 -8q-1 -7 -8 -8h-192v0q-31 1 -51 21t-21 51v58v0q-21 6 -34 22q-14 17 -14 40v192v0q1 27 19 45t45 19h256v0q27 -1 45 -19t19 -45v-17v0v-28v0v-102v0v-28v0v-17v0q-1 -27 -19 -45t-45 -19h-256v0v-56v0zM64 137
h256h-256h256q20 1 34 14q13 14 14 34v45v0v102v0v45v0q-1 20 -14 34q-14 13 -34 14h-256v0q-20 -1 -34 -14q-13 -14 -14 -34v-192v0q1 -20 14 -34q14 -13 34 -14v0zM527 407l-111 -50l111 50l-111 -50v18v0l104 47v0q8 3 17 3q16 0 27 -12q12 -11 12 -27v-209v0
q0 -17 -12 -28q-11 -12 -27 -12q-9 0 -17 4l-104 46v0v18v0l111 -50v0q4 -2 10 -2q21 2 23 23v209v0q-2 22 -23 24q-5 0 -10 -2v0zM64 209q1 7 8 8h240v0q7 -1 8 -8q-1 -7 -8 -8h-240v0q-7 1 -8 8v0z" />
</svg>
