<?xml version="1.0" standalone="no"?>
<!DOCTYPE svg PUBLIC "-//W3C//DTD SVG 1.1//EN" "http://www.w3.org/Graphics/SVG/1.1/DTD/svg11.dtd" >
<svg xmlns="http://www.w3.org/2000/svg" xmlns:xlink="http://www.w3.org/1999/xlink" version="1.1" viewBox="-10 -40 596 512">
   <path fill="currentColor"
d="M168 -23h112h-112h112q22 2 24 24v56v0h-160v0v-56v0q2 -22 24 -24v0zM128 1v56v-56v56h-16v0q-16 0 -29 10q-12 9 -17 25l-64 224v0q-6 23 8 42q14 18 38 19h215v0q-3 -8 -4 -16h-211v0q-16 0 -25 -13q-10 -12 -6 -28l64 -224v0q8 -22 31 -23h24h200q23 1 31 23l18 63v0
q8 -2 16 -3l-19 -64v0q-5 -16 -17 -25q-13 -10 -29 -10h-16v0v-56v0q0 -17 -12 -28q-11 -12 -28 -12h-112v0q-17 0 -28 12q-12 11 -12 28v0zM272 409q0 20 -14 34t-34 14t-34 -14t-14 -34q-1 -7 -8 -8q-7 1 -8 8q0 26 19 45t45 19t45 -19q12 -12 17 -27q-7 -11 -13 -22
q-1 2 -1 4v0zM304 329q0 -35 17 -64v0v0q17 -29 47 -47q30 -17 64 -17t64 17q30 18 47 47t17 64t-17 64t-47 47q-30 17 -64 17t-64 -17q-30 -18 -47 -47t-17 -64v0zM576 329q0 -39 -19 -72v0v0q-19 -33 -53 -53q-34 -19 -72 -19t-72 19q-34 20 -53 53t-19 72t19 72t53 53
q34 19 72 19t72 -19q34 -20 53 -53t19 -72v0zM440 257q-1 -7 -8 -8q-7 1 -8 8v64v0h-64v0q-7 1 -8 8q1 7 8 8h64v0v64v0q1 7 8 8q7 -1 8 -8v-64v0h64v0q7 -1 8 -8q-1 -7 -8 -8h-64v0v-64v0z" />
</svg>
