<?xml version="1.0" standalone="no"?>
<!DOCTYPE svg PUBLIC "-//W3C//DTD SVG 1.1//EN" "http://www.w3.org/Graphics/SVG/1.1/DTD/svg11.dtd" >
<svg xmlns="http://www.w3.org/2000/svg" xmlns:xlink="http://www.w3.org/1999/xlink" version="1.1" viewBox="-10 -40 404 512">
   <path fill="currentColor"
d="M64 457q-20 -1 -34 -14v0v0q-13 -14 -14 -34v-384v0q1 -20 14 -34q14 -13 34 -14h140v0h4v0v120v0q0 17 12 28q11 12 28 12h120v0v4v268v0q-1 20 -14 34q-14 13 -34 14h-256v0zM359 118q1 2 2 3h-113v0q-22 -2 -24 -24v-113v0q1 1 3 2l132 132v0zM64 -39q-27 1 -45 19v0
v0q-18 18 -19 45v384v0q1 27 19 45t45 19h256v0q27 -1 45 -19t19 -45v-268v0q0 -20 -14 -34l-132 -132v0q-14 -14 -34 -14h-140v0zM301 186q-4 -2 -8 0l-128 48v0q-5 2 -5 7v106v0q-13 -10 -32 -10q-20 0 -34 12q-13 11 -14 28q1 17 14 28q14 12 34 12t34 -12q13 -11 14 -28
v0v0v-130v0l112 -42v0v110v0q-13 -10 -32 -10q-20 0 -34 12q-13 11 -14 28q1 17 14 28q14 12 34 12t34 -12q13 -11 14 -28v0v0v-152v0q0 -4 -3 -7v0zM256 321q15 1 24 8v0v0q8 8 8 16t-8 16q-9 7 -24 8q-15 -1 -24 -8q-8 -8 -8 -16t8 -16q9 -7 24 -8v0zM128 353q15 1 24 8v0
v0q8 8 8 16t-8 16q-9 7 -24 8q-15 -1 -24 -8q-8 -8 -8 -16t8 -16q9 -7 24 -8v0z" />
</svg>
