<?xml version="1.0" standalone="no"?>
<!DOCTYPE svg PUBLIC "-//W3C//DTD SVG 1.1//EN" "http://www.w3.org/Graphics/SVG/1.1/DTD/svg11.dtd" >
<svg xmlns="http://www.w3.org/2000/svg" xmlns:xlink="http://www.w3.org/1999/xlink" version="1.1" viewBox="-10 -40 468 512">
   <path fill="currentColor"
d="M384 9q20 1 34 14v0v0q13 14 14 34v320v0q-1 20 -14 34q-14 13 -34 14h-320v0q-20 -1 -34 -14q-13 -14 -14 -34v-320v0q1 -20 14 -34q14 -13 34 -14h320v0zM64 -7q-27 1 -45 19v0v0q-18 18 -19 45v320v0q1 27 19 45t45 19h320v0q27 -1 45 -19t19 -45v-320v0
q-1 -27 -19 -45t-45 -19h-320v0zM312 57q31 1 51 21v0v0q20 20 21 51q-1 31 -21 51t-51 21q-7 1 -8 8q1 7 8 8q37 -1 62 -26t26 -62q-1 -37 -26 -62t-62 -26q-51 2 -76 44q-3 7 3 11q6 3 11 -3q20 -34 62 -36v0zM199 93q4 6 10 3q6 -4 3 -11q-25 -42 -76 -44q-37 1 -62 26
t-26 62q1 37 26 62t62 26q7 -1 8 -8q-1 -7 -8 -8q-31 -1 -51 -21t-21 -51q1 -31 21 -51t51 -21q42 2 63 36v0zM173 243q-6 -4 -12 0q-24 25 -25 62q1 37 26 62t62 26q37 -1 62 -26t26 -62q-1 -37 -25 -62q-6 -4 -11 0q-5 6 -1 12q20 20 21 50q-1 31 -21 51t-51 21
q-31 -1 -51 -21t-21 -51q1 -30 21 -50q4 -6 0 -12v0zM134 115q-6 -4 -12 0q-4 6 0 12l94 93v0v93v0q1 7 8 8q7 -1 8 -8v-93v0l94 -93v0q4 -6 0 -12q-6 -4 -12 0l-90 91v0l-90 -91v0z" />
</svg>
