<?xml version="1.0" standalone="no"?>
<!DOCTYPE svg PUBLIC "-//W3C//DTD SVG 1.1//EN" "http://www.w3.org/Graphics/SVG/1.1/DTD/svg11.dtd" >
<svg xmlns="http://www.w3.org/2000/svg" xmlns:xlink="http://www.w3.org/1999/xlink" version="1.1" viewBox="-10 -40 524 512">
   <path fill="currentColor"
d="M458 -23q11 0 18 8l3 2v0q9 10 9 22t-9 22q-15 12 -30 0l-3 -4v0q-6 -4 -12 0l-50 51v0v-44v0q0 -13 11 -20l49 -33v0q6 -4 14 -4v0zM368 94l-109 109l109 -109l-109 109l-2 -2v0q-23 -24 -21 -46t11 -36q8 -13 -2 -25q-11 -10 -23 0l-30 30v0q-13 15 -20 33v1l-2 2
q-1 3 -2 5q-5 12 -17 24q-19 19 -45 31q-25 11 -45 17q-22 6 -38 22q-23 24 -23 55t23 55l80 81v0q23 23 54 23t54 -23q16 -16 23 -39q5 -20 17 -45q11 -26 30 -45q15 -15 28 -20h1v0q18 -6 32 -18l21 -22v0q10 -12 0 -24q-11 -9 -25 -3q-11 6 -29 3q-17 -2 -39 -23
l112 -111v0l58 -59v0q12 10 25 9q14 -1 25 -11q14 -14 14 -33t-14 -33l-3 -3v0q-12 -12 -29 -12q-12 0 -23 7l-49 33v0q-17 12 -18 33v60v0zM218 407q-6 19 -18 32q-19 18 -43 18t-43 -18l-80 -81v0q-18 -19 -18 -44q0 -24 18 -43q13 -13 32 -19q20 -5 47 -18t49 -33
q14 -15 21 -29l2 -6q1 -1 2 -3q7 -17 16 -28l30 -30v0v0v0v0v0h1v0v0v0v2t-1 4q-11 16 -13 44q-1 28 26 58l11 11v0q25 25 48 29q24 3 39 -4q3 -2 6 -1h2v0v1v1l-22 22v0q-9 8 -27 14q-16 6 -34 23q-21 22 -33 50q-13 27 -18 48v0zM158 267q-6 -4 -12 0q-4 6 0 12l48 48v0
q6 4 12 0q4 -6 0 -12l-48 -48v0zM110 315q-6 -4 -12 0q-4 6 0 12l48 48v0q6 4 12 0q4 -6 0 -12l-48 -48v0z" />
</svg>
