<?xml version="1.0" standalone="no"?>
<!DOCTYPE svg PUBLIC "-//W3C//DTD SVG 1.1//EN" "http://www.w3.org/Graphics/SVG/1.1/DTD/svg11.dtd" >
<svg xmlns="http://www.w3.org/2000/svg" xmlns:xlink="http://www.w3.org/1999/xlink" version="1.1" viewBox="-10 -40 532 512">
   <path fill="currentColor"
d="M80 -15v59v-59v59q0 8 5 14l35 50v0v29v0q-45 3 -74 28q-29 24 -30 60q0 21 12 39q6 10 5 22q-1 13 -8 22q-24 26 -25 61q1 44 37 74q37 29 91 30q64 -2 101 -40q-3 -10 -4 -20q-15 19 -40 32q-24 12 -57 12q-50 -1 -80 -27q-31 -26 -32 -61q0 -28 21 -51q11 -13 12 -31
q1 -17 -8 -31q-9 -15 -9 -31q0 -27 24 -48t64 -24v89v0q-30 8 -32 39q0 17 12 28q11 11 28 12q17 -1 28 -12t12 -28q-2 -31 -32 -39v-89v0q40 4 64 24q23 21 24 48q0 16 -9 31q-9 14 -8 31q1 18 12 31q12 14 17 30q2 -3 3 -5q3 -7 7 -14q-6 -12 -15 -21q-8 -9 -8 -22
q-1 -12 5 -22q12 -18 12 -39q-1 -36 -30 -60q-29 -25 -74 -28v-29v0l36 -50v0q4 -6 4 -14v-59v0q-2 -22 -24 -24h-48v0q-22 2 -24 24v0zM128 91l-30 -42l30 42l-30 -42q-2 -3 -2 -5v-59v0q1 -7 8 -8h48v0q7 1 8 8v59v0q0 3 -1 5l-31 42v0zM104 281q2 -22 24 -24q22 2 24 24
q-2 22 -24 24q-22 -2 -24 -24v0zM379 -39q-15 0 -26 9v0v0q-11 10 -13 24l-9 55v0q-3 18 9 33l36 42v0v77v0v0v0q-29 -1 -41 -14q-12 -14 -14 -29q-4 -19 -22 -21q-17 2 -19 19v35v0q1 18 8 37h1v0v0q2 6 3 12q4 10 4 25q-1 26 -10 51t-19 42q-11 19 -11 41q1 31 22 52
q20 21 52 22h108v0q32 -1 52 -22q21 -21 22 -52q0 -22 -11 -41q-10 -17 -19 -42t-10 -51q0 -15 4 -25l2 -8l2 -4v0v0v0v0v0q7 -18 8 -37v-21v0q-2 -16 -17 -17q-14 1 -20 14q-5 11 -18 22q-14 11 -41 12v-80v0v-81v0q30 -8 32 -39q0 -17 -12 -28q-11 -12 -28 -12h-5v0z
M376 217h16h-16h16v0v0q32 -1 50 -15t24 -28q1 -3 3 -4q1 -1 2 -1t1 1v20v0q0 10 -4 21q-1 4 -3 9q0 1 -1 3v0v0v0v0q0 2 -1 3q-1 5 -3 10q-4 12 -4 29q1 29 11 56t20 44q9 17 9 34q-1 25 -17 41t-41 17h-108v0q-25 -1 -41 -17t-17 -41q0 -17 9 -34q10 -17 20 -44t11 -56
q0 -17 -4 -29q-2 -7 -4 -13v0v0v0q-3 -6 -4 -12q-4 -11 -4 -21v-34v0q0 -3 3 -3q1 0 3 2t3 6q3 18 19 37q17 18 52 19v0v0zM376 33v66v-66v66l-24 -28v0q-7 -8 -6 -19l10 -55v0q4 -19 23 -20h5v0q22 2 24 24q-2 22 -24 24q-7 1 -8 8v0zM344 289q1 7 8 8h64v0q7 -1 8 -8
q-1 -7 -8 -8h-64v0q-7 1 -8 8v0zM344 353q1 7 8 8h64v0q7 -1 8 -8q-1 -7 -8 -8h-64v0q-7 1 -8 8v0z" />
</svg>
