<?xml version="1.0" standalone="no"?>
<!DOCTYPE svg PUBLIC "-//W3C//DTD SVG 1.1//EN" "http://www.w3.org/Graphics/SVG/1.1/DTD/svg11.dtd" >
<svg xmlns="http://www.w3.org/2000/svg" xmlns:xlink="http://www.w3.org/1999/xlink" version="1.1" viewBox="-10 -40 532 512">
   <path fill="currentColor"
d="M168 -16v80v-80v80q19 -7 40 -7t40 7v-87v0h-8h-17v0q-29 0 -55 7v0zM152 -10q-61 22 -98 74v0v0q-37 52 -38 120q1 75 44 130q19 22 20 52v99v0q-1 7 -8 8q-7 -1 -8 -8v-99v0q-1 -23 -17 -42q-46 -59 -47 -140q1 -62 30 -113q30 -50 80 -80q51 -29 113 -30h17v0
q59 1 108 32q48 31 73 82q5 11 9 21q1 2 1 3l1 1q9 20 19 40q15 32 40 55l3 3v0q18 16 18 39q-1 22 -15 37q-15 15 -37 15h-12v0v64v0q-1 24 -16 40q-16 15 -40 16h-72v0v56v0q-1 7 -8 8q-7 -1 -8 -8v-64v0q1 -7 8 -8h80v0q17 0 28 -12q12 -11 12 -28v-72v0q1 -7 8 -8h20v0
q15 0 25 -11q11 -10 11 -25q0 -16 -12 -27l-4 -4v0q-27 -25 -43 -58q-11 -21 -20 -42v-1q-2 -2 -2 -5q-5 -9 -9 -18q-20 -42 -57 -69q-38 -27 -85 -34v93v0q25 15 41 40q15 26 15 57q-1 48 -33 79q-31 32 -79 33q-48 -1 -79 -33q-32 -31 -33 -79q0 -31 15 -57q16 -25 41 -40
v-82v0zM304 169q0 -26 -13 -48v0v0q-13 -22 -35 -35q-23 -13 -48 -13t-48 13q-22 13 -35 35t-13 48t13 48t35 35q23 13 48 13t48 -13q22 -13 35 -35t13 -48v0zM208 201q14 0 23 -9v0v0q9 -9 9 -23t-9 -23t-23 -9t-23 9t-9 23t9 23t23 9v0zM208 121q27 1 42 24q12 24 0 48
q-15 23 -42 24q-27 -1 -42 -24q-12 -24 0 -48q15 -23 42 -24v0z" />
</svg>
