<?xml version="1.0" standalone="no"?>
<!DOCTYPE svg PUBLIC "-//W3C//DTD SVG 1.1//EN" "http://www.w3.org/Graphics/SVG/1.1/DTD/svg11.dtd" >
<svg xmlns="http://www.w3.org/2000/svg" xmlns:xlink="http://www.w3.org/1999/xlink" version="1.1" viewBox="-10 -40 468 512">
   <path fill="currentColor"
d="M288 -23q15 1 16 16q-1 15 -16 16h-128v0q-15 -1 -16 -16q1 -15 16 -16h128v0zM128 -7q1 19 16 28v4v0v21v0q0 11 -7 20l-78 100v0q-27 35 -27 79v164v0q1 27 19 45t45 19h256v0q27 -1 45 -19t19 -45v-164v0q0 -33 -16 -62q21 -6 34 -22q14 -17 14 -40q-1 -27 -19 -45
t-45 -19q-37 2 -55 32l-18 -23v0q-7 -9 -7 -20v-21v0v-4v0q15 -9 16 -28q0 -14 -9 -23t-23 -9h-128v0q-14 0 -23 9t-9 23v0zM160 25h128h-128h128v21v0q0 16 10 30l78 100v0q24 31 24 69v164v0q-1 20 -14 34q-14 13 -34 14h-256v0q-20 -1 -34 -14q-13 -14 -14 -34v-164v0
q0 -38 24 -69l78 -101v0q10 -13 10 -29v-21v0zM391 169q-1 -2 -2 -3l-49 -63v0q12 -28 44 -30q20 0 34 14q13 14 14 34q0 18 -12 32q-11 13 -29 15v1zM128 265h192h-192h192q15 1 16 16v64v0q-1 15 -16 16h-192v0q-15 -1 -16 -16v-64v0q1 -15 16 -16v0zM96 281v64v-64v64
q0 14 9 23t23 9h192v0q14 0 23 -9t9 -23v-64v0q0 -14 -9 -23t-23 -9h-192v0q-14 0 -23 9t-9 23v0z" />
</svg>
