<?xml version="1.0" standalone="no"?>
<!DOCTYPE svg PUBLIC "-//W3C//DTD SVG 1.1//EN" "http://www.w3.org/Graphics/SVG/1.1/DTD/svg11.dtd" >
<svg xmlns="http://www.w3.org/2000/svg" xmlns:xlink="http://www.w3.org/1999/xlink" version="1.1" viewBox="-10 -40 596 512">
   <path fill="currentColor"
d="M576 137q-1 49 -39 89v0v0q-39 40 -104 63v0v0q-65 23 -145 24q-46 0 -87 -8q30 28 31 71q-1 41 -28 69q-28 27 -69 28h-95v0q-7 -1 -8 -8q1 -7 8 -8h95v0q34 -1 57 -24t24 -57q0 -23 -12 -43q-12 -19 -33 -29l-30 -16v0q-64 -23 -102 -63q-38 -39 -39 -88q1 -49 39 -89
q39 -39 104 -63q65 -23 145 -24q80 1 145 24q65 24 104 63q38 40 39 89v0zM288 297q76 -1 137 -22v0v0q62 -21 98 -57v0v0q36 -36 37 -81q-1 -45 -37 -81t-98 -57q-61 -21 -137 -22q-76 1 -137 22q-62 21 -98 57t-37 81q1 45 37 81t98 57q61 21 137 22v0z" />
</svg>
