<?xml version="1.0" standalone="no"?>
<!DOCTYPE svg PUBLIC "-//W3C//DTD SVG 1.1//EN" "http://www.w3.org/Graphics/SVG/1.1/DTD/svg11.dtd" >
<svg xmlns="http://www.w3.org/2000/svg" xmlns:xlink="http://www.w3.org/1999/xlink" version="1.1" viewBox="-10 -40 532 512">
   <path fill="currentColor"
d="M496 -23l-106 36l106 -36l-106 36q-6 2 -6 8v114v0l107 -34v0q5 -2 5 -8v-116v0zM384 152v241v-241v241q-1 34 -33 57q-31 22 -79 23q-48 -1 -79 -23q-32 -23 -33 -57q1 -34 33 -57q31 -22 79 -23q31 0 56 11q25 10 40 28v-331v0q1 -17 16 -23l108 -36v0q3 -1 5 -1
q14 1 15 15v117v0q-1 17 -17 23l-108 35v0q-2 1 -3 1v0zM342 350q-27 -20 -70 -21q-43 1 -70 21q-26 19 -26 43t26 44q27 19 70 20q43 -1 70 -20q26 -20 26 -44t-26 -43v0zM8 25h272h-272h272q7 1 8 8q-1 7 -8 8h-272v0q-7 -1 -8 -8q1 -7 8 -8v0zM8 153h272h-272h272
q7 1 8 8q-1 7 -8 8h-272v0q-7 -1 -8 -8q1 -7 8 -8v0zM8 281h144h-144h144q7 1 8 8q-1 7 -8 8h-144v0q-7 -1 -8 -8q1 -7 8 -8v0z" />
</svg>
