<?xml version="1.0" standalone="no"?>
<!DOCTYPE svg PUBLIC "-//W3C//DTD SVG 1.1//EN" "http://www.w3.org/Graphics/SVG/1.1/DTD/svg11.dtd" >
<svg xmlns="http://www.w3.org/2000/svg" xmlns:xlink="http://www.w3.org/1999/xlink" version="1.1" viewBox="-10 -40 404 512">
   <path fill="currentColor"
d="M64 -23q-20 1 -34 14v0v0q-13 14 -14 34v384v0q1 20 14 34q14 13 34 14h256v0q20 -1 34 -14q13 -14 14 -34v-384v0q-1 -20 -14 -34q-14 -13 -34 -14h-256v0zM0 25q1 -27 19 -45v0v0q18 -18 45 -19h256v0q27 1 45 19t19 45v384v0q-1 27 -19 45t-45 19h-256v0
q-27 -1 -45 -19t-19 -45v-384v0zM96 41q-15 1 -16 16v64v0q1 15 16 16h192v0q15 -1 16 -16v-64v0q-1 -15 -16 -16h-192v0zM64 57q0 -14 9 -23v0v0q9 -9 23 -9h192v0q14 0 23 9t9 23v64v0q0 14 -9 23t-23 9h-192v0q-14 0 -23 -9t-9 -23v-64v0zM192 393q26 0 48 -13v0v0
q22 -13 35 -35q13 -23 13 -48t-13 -48q-13 -22 -35 -35t-48 -13t-48 13t-35 35q-13 23 -13 48t13 48q13 22 35 35t48 13v0zM192 185q30 0 56 15v0v0q26 15 41 41t15 56t-15 56t-41 41t-56 15t-56 -15t-41 -41t-15 -56t15 -56t41 -41t56 -15v0zM208 297q-1 -15 -16 -16
q-15 1 -16 16q1 15 16 16q15 -1 16 -16v0zM160 297q0 -14 9 -23v0v0q9 -9 23 -9t23 9t9 23t-9 23t-23 9t-23 -9t-9 -23v0z" />
</svg>
