<?xml version="1.0" standalone="no"?>
<!DOCTYPE svg PUBLIC "-//W3C//DTD SVG 1.1//EN" "http://www.w3.org/Graphics/SVG/1.1/DTD/svg11.dtd" >
<svg xmlns="http://www.w3.org/2000/svg" xmlns:xlink="http://www.w3.org/1999/xlink" version="1.1" viewBox="-10 -40 532 512">
   <path fill="currentColor"
d="M112 313v48v-48v48q0 14 -9 23t-23 9t-23 -9t-9 -23v-48v0h-32v0v96v0q1 20 14 34q14 13 34 14h384v0q20 -1 34 -14q13 -14 14 -34v-96v0h-32v0v48v0q0 14 -9 23t-23 9t-23 -9t-9 -23v-48v0h-16v0v48v0q0 14 -9 23t-23 9t-23 -9t-9 -23v-48v0h-48v0v48v0q0 14 -9 23
t-23 9t-23 -9t-9 -23v-48v0h-16v0v48v0q0 14 -9 23t-23 9t-23 -9t-9 -23v-48v0h-16v0zM448 313h-32h32h-32v48v0q1 15 16 16q15 -1 16 -16v-48v0zM464 297h32h-32h32v-8v0q-1 -29 -26 -43l-59 -29v0q-20 -11 -31 -29q-12 -19 -12 -41q-2 -72 -50 -120t-120 -50h-6v0
q-75 2 -124 52q-50 49 -52 124v144v0h32h416zM336 361q1 15 16 16q15 -1 16 -16v-48v0h-32v0v48v0zM256 313h-32h32h-32v48v0q1 15 16 16q15 -1 16 -16v-48v0zM144 361q1 15 16 16q15 -1 16 -16v-48v0h-32v0v48v0zM96 313h-32h32h-32v48v0q1 15 16 16q15 -1 16 -16v-48v0z
M512 289v8v-8v8v8v0v8v0v96v0q-1 27 -19 45t-45 19h-384v0q-27 -1 -45 -19t-19 -45v-96v0v-8v0v-8v0v-144v0q2 -82 56 -136t136 -56h6v0q79 2 132 54q52 53 54 132q1 37 34 55l59 29v0q34 19 35 58v0z" />
</svg>
