<?xml version="1.0" standalone="no"?>
<!DOCTYPE svg PUBLIC "-//W3C//DTD SVG 1.1//EN" "http://www.w3.org/Graphics/SVG/1.1/DTD/svg11.dtd" >
<svg xmlns="http://www.w3.org/2000/svg" xmlns:xlink="http://www.w3.org/1999/xlink" version="1.1" viewBox="-10 -40 660 512">
   <path fill="currentColor"
d="M424 -31q-1 -7 -8 -8q-7 1 -8 8v112v0q1 7 8 8q7 -1 8 -8v-112v0zM262 3q-6 -4 -12 0q-4 6 0 12l80 80v0q6 4 12 0q4 -6 0 -12l-80 -80v0zM582 15q4 -6 0 -12q-6 -4 -12 0l-80 80v0q-4 6 0 12q6 4 12 0l80 -80v0zM272 281q0 -39 19 -72v0v0q19 -33 53 -53q34 -19 72 -19
t72 19q34 20 53 53t19 72t-19 72t-53 53q-34 19 -72 19t-72 -19q-34 -20 -53 -53t-19 -72v0zM576 281q-2 -67 -46 -112h46v0q20 1 34 14q13 14 14 34v128v0q-1 20 -14 34q-14 13 -34 14h-8h-38q44 -45 46 -112v0zM560 409v56v-56v56q1 7 8 8q7 -1 8 -8v-56v0q27 -1 45 -19
t19 -45v-128v0q-1 -27 -19 -45t-45 -19h-64v0q-41 -31 -96 -32q-55 1 -96 32h-256v0q-27 1 -45 19t-19 45v128v0q1 27 19 45t45 19v56v0q1 7 8 8q7 -1 8 -8v-56v0h240v0q41 31 96 32q55 -1 96 -32v0v0h48v0zM72 393h-8h8h-8q-20 -1 -34 -14q-13 -14 -14 -34v-128v0
q1 -20 14 -34q14 -13 34 -14h238v0q-44 45 -46 112q2 67 46 112h-230v0zM112 281q-1 15 -16 16q-15 -1 -16 -16q1 -15 16 -16q15 1 16 16v0zM96 249q-14 0 -23 9v0v0q-9 9 -9 23t9 23t23 9t23 -9t9 -23t-9 -23t-23 -9v0zM192 297q-15 -1 -16 -16q1 -15 16 -16q15 1 16 16
q-1 15 -16 16v0zM160 281q0 14 9 23v0v0q9 9 23 9t23 -9t9 -23t-9 -23t-23 -9t-23 9t-9 23v0z" />
</svg>
