<?xml version="1.0" standalone="no"?>
<!DOCTYPE svg PUBLIC "-//W3C//DTD SVG 1.1//EN" "http://www.w3.org/Graphics/SVG/1.1/DTD/svg11.dtd" >
<svg xmlns="http://www.w3.org/2000/svg" xmlns:xlink="http://www.w3.org/1999/xlink" version="1.1" viewBox="-10 -40 533 512">
   <path fill="currentColor"
d="M506 -23q7 -3 6 -10q-3 -7 -10 -6l-449 123v0q-41 14 -51 55q-2 7 -2 14v1v0v47v0v208v0q1 27 19 45t45 19h384v0q27 -1 45 -19t19 -45v-256v0q-1 -27 -19 -45t-45 -19h-351v0l409 -112v0zM16 154q0 -6 1 -11q4 -17 17 -27q12 -11 30 -11h384v0q20 1 34 14q13 14 14 34
v256v0q-1 20 -14 34q-14 13 -34 14h-384v0q-20 -1 -34 -14q-13 -14 -14 -34v-208v0v-47v0zM352 361q-45 -1 -69 -40q-22 -40 0 -80q24 -39 69 -40q45 1 69 40q22 40 0 80q-24 39 -69 40v0zM352 185q-26 0 -48 13v0v0q-22 13 -35 35q-13 23 -13 48t13 48q13 22 35 35t48 13
t48 -13t35 -35q13 -23 13 -48t-13 -48q-13 -22 -35 -35t-48 -13v0zM88 201q-7 1 -8 8q1 7 8 8h112v0q7 -1 8 -8q-1 -7 -8 -8h-112v0zM72 273q-7 1 -8 8q1 7 8 8h144v0q7 -1 8 -8q-1 -7 -8 -8h-144v0zM88 345q-7 1 -8 8q1 7 8 8h112v0q7 -1 8 -8q-1 -7 -8 -8h-112v0z" />
</svg>
