<?xml version="1.0" standalone="no"?>
<!DOCTYPE svg PUBLIC "-//W3C//DTD SVG 1.1//EN" "http://www.w3.org/Graphics/SVG/1.1/DTD/svg11.dtd" >
<svg xmlns="http://www.w3.org/2000/svg" xmlns:xlink="http://www.w3.org/1999/xlink" version="1.1" viewBox="-10 -40 596 512">
   <path fill="currentColor"
d="M173 44q-6 4 -11 -1q-4 -6 1 -11q38 -33 86 -52t103 -19t103 19t86 52q5 5 1 11q-5 5 -11 1q-74 -65 -179 -67q-105 2 -179 67v0zM253 123q-6 4 -11 -1q-4 -6 1 -11q46 -37 109 -38q63 1 109 38q5 5 1 11q-5 5 -11 1q-42 -33 -99 -34q-57 1 -99 34v0zM352 185q7 1 8 8v88
v0h152v0q27 1 45 19t19 45v64v0q-1 27 -19 45t-45 19h-448v0q-27 -1 -45 -19t-19 -45v-64v0q1 -27 19 -45t45 -19h280v0v-88v0q1 -7 8 -8v0zM64 297q-20 1 -34 14v0v0q-13 14 -14 34v64v0q1 20 14 34q14 13 34 14h448v0q20 -1 34 -14q13 -14 14 -34v-64v0q-1 -20 -14 -34
q-14 -13 -34 -14h-160h-288zM176 377q1 -15 16 -16q15 1 16 16q-1 15 -16 16q-15 -1 -16 -16v0zM96 361q15 1 16 16q-1 15 -16 16q-15 -1 -16 -16q1 -15 16 -16v0z" />
</svg>
