<?xml version="1.0" standalone="no"?>
<!DOCTYPE svg PUBLIC "-//W3C//DTD SVG 1.1//EN" "http://www.w3.org/Graphics/SVG/1.1/DTD/svg11.dtd" >
<svg xmlns="http://www.w3.org/2000/svg" xmlns:xlink="http://www.w3.org/1999/xlink" version="1.1" viewBox="-10 -40 660 512">
   <path fill="currentColor"
d="M154 33l11 -11l-11 11l11 -11l9 -9v0q7 -5 11 -1q33 34 44 60q12 27 11 43q0 11 -2 22h16v0q2 -11 2 -22q1 -20 -12 -49q-13 -30 -47 -65q-17 -14 -34 1l-9 9v0l-12 -12v0l-25 -25v0q-8 -8 -18 -8q-7 0 -13 5q-29 22 -57 59q-27 38 -29 85q0 11 2 22h16v0q-2 -11 -2 -22
q1 -40 27 -76q25 -35 53 -55q1 -2 3 -2q3 0 7 3l36 37v0l12 11v0zM169 107q-16 -21 -28 -31q-13 -9 -26 0q-12 11 -28 31q-10 13 -16 30h17v0q4 -11 12 -21q14 -18 26 -27q2 -2 4 0q12 9 26 27q8 10 12 21h17v0q-6 -17 -16 -30v0zM539 25q-30 0 -51 21l-36 36v0l-22 -23v0
q-6 -4 -12 0q-4 6 0 12l23 22v0l-37 37v0l-22 -23v0q-6 -4 -12 0q-4 6 0 12l23 22v0l-37 37v0l-22 -23v0q-6 -4 -12 0q-4 6 0 12l23 22v0l-134 134v0q-6 6 -15 6h-2v0q-16 -2 -18 -18q0 -4 2 -8l51 -118v0h19v0q7 -1 8 -8q-1 -7 -8 -8h-24h-216q-7 1 -8 8q1 7 8 8h21v0
l-23 81v0q-6 22 -6 45v2v0q2 68 47 113t113 47q37 0 69 -15t55 -43l249 -301v0q7 -9 18 -9h64v0q23 -2 25 -25q0 -10 -7 -18l-17 -16v0q-21 -21 -50 -21h-27v0zM46 185h166h-166h166l-49 112v0q-3 6 -3 14q0 14 10 24q10 9 24 10h2v0q15 0 26 -11l277 -277v0q16 -16 40 -16
h27v0q23 0 39 16l16 17v0q3 2 3 6q-1 8 -9 9h-64v0q-19 0 -31 15l-248 301v0q-44 51 -112 52q-61 -2 -102 -42q-40 -41 -42 -102v-2v0q0 -21 6 -41l24 -85v0zM80 345q15 -1 16 -16q-1 -15 -16 -16q-15 1 -16 16q1 15 16 16v0zM128 233q-1 -15 -16 -16q-15 1 -16 16
q1 15 16 16q15 -1 16 -16v0z" />
</svg>
