<?xml version="1.0" standalone="no"?>
<!DOCTYPE svg PUBLIC "-//W3C//DTD SVG 1.1//EN" "http://www.w3.org/Graphics/SVG/1.1/DTD/svg11.dtd" >
<svg xmlns="http://www.w3.org/2000/svg" xmlns:xlink="http://www.w3.org/1999/xlink" version="1.1" viewBox="-10 -40 660 512">
   <path fill="currentColor"
d="M488 14q21 -21 51 -21h27v0q29 0 50 21l17 16v0q7 8 7 18q-2 23 -25 25h-64v0q-11 0 -18 9l-249 301v0q-23 28 -55 43t-69 15q-68 -2 -113 -47t-47 -113v-8v0q0 -17 3 -33l27 -135v0h-22v0q-7 -1 -8 -8q1 -7 8 -8h32h240q7 1 8 8q-1 7 -8 8h-27v0l-59 141v0q-2 5 -2 10v5
v0q2 18 20 20q9 0 15 -6l118 -118v0l-23 -22v0q-4 -6 0 -12q6 -4 12 0l22 23v0l37 -37v0l-23 -22v0q-4 -6 0 -12q6 -4 12 0l22 23v0l37 -37v0l-23 -22v0q-4 -6 0 -12q6 -4 12 0l22 23v0l36 -36v0zM19 243q-3 15 -3 30v8v0q2 61 42 102q41 40 102 42q68 -1 112 -52l248 -301
v0q12 -15 31 -15h64v0q8 -1 9 -9q0 -4 -3 -6l-16 -17v0q-16 -16 -39 -16h-27v0q-24 0 -40 16l-261 261v0q-11 11 -26 11q-15 -1 -25 -11q-11 -10 -11 -25v-5v0q0 -9 3 -16l57 -135v0h-189v0l-28 138v0zM112 185q1 -15 16 -16q15 1 16 16q-1 15 -16 16q-15 -1 -16 -16v0z
M96 265q15 1 16 16q-1 15 -16 16q-15 -1 -16 -16q1 -15 16 -16v0z" />
</svg>
