<?xml version="1.0" standalone="no"?>
<!DOCTYPE svg PUBLIC "-//W3C//DTD SVG 1.1//EN" "http://www.w3.org/Graphics/SVG/1.1/DTD/svg11.dtd" >
<svg xmlns="http://www.w3.org/2000/svg" xmlns:xlink="http://www.w3.org/1999/xlink" version="1.1" viewBox="-10 -40 660 512">
   <path fill="currentColor"
d="M44 -22q5 3 4 10l-12 33v0q-4 13 -3 26q4 25 21 41q18 16 43 17h76v0q13 -22 34 -35q22 -13 49 -13h128v0q27 0 49 13q21 13 34 35h76v0q25 -1 43 -17t21 -40q1 -14 -3 -27l-12 -33v0q-1 -7 4 -10q6 -3 10 2l8 9v0q26 33 26 75v17v0q-1 51 -35 85t-85 35h-40v0v48v0
q-1 32 -18 56q-18 24 -46 35l-26 87v0q-7 21 -23 33q-17 13 -39 13h-16v0q-22 0 -39 -13q-16 -12 -23 -33l-26 -87v0q-28 -11 -46 -35q-17 -24 -18 -56v-48v0h-40v0q-51 -1 -85 -35t-35 -85v-17v0q0 -42 26 -75l8 -9v0q4 -5 10 -2v0zM480 185h40h-40h40q44 -1 74 -30
q29 -30 30 -74v-17v0q0 -8 -1 -17q0 1 -1 2q-3 31 -25 51q-23 20 -54 21h-68v0q5 15 5 32v32v0zM97 121q-31 -1 -54 -21v0v0q-22 -20 -25 -51q-1 0 -1 -1v-1q-1 9 -1 17v17v0q1 44 30 74q30 29 74 30h40v0v-32v0q0 -17 5 -32h-68v0zM229 324q8 3 10 11l27 88v0q11 32 46 34
h17v0q34 -2 46 -34l26 -88v0q2 -8 10 -11q24 -8 38 -28q15 -20 15 -47v-96v0q-1 -34 -23 -57q-23 -22 -57 -23h-128v0q-34 1 -57 23q-22 23 -23 57v96v0q0 27 15 47t38 28v0zM256 193q-22 2 -24 24q2 22 24 24q22 -2 24 -24q-2 -22 -24 -24v0zM296 217q-1 23 -20 35
q-20 10 -40 0q-19 -12 -20 -35q1 -23 20 -35q20 -10 40 0q19 12 20 35v0zM360 217q2 22 24 24q22 -2 24 -24q-2 -22 -24 -24q-22 2 -24 24v0zM384 257q-23 -1 -35 -20q-10 -20 0 -40q12 -19 35 -20q23 1 35 20q10 20 0 40q-12 19 -35 20v0z" />
</svg>
