<?xml version="1.0" standalone="no"?>
<!DOCTYPE svg PUBLIC "-//W3C//DTD SVG 1.1//EN" "http://www.w3.org/Graphics/SVG/1.1/DTD/svg11.dtd" >
<svg xmlns="http://www.w3.org/2000/svg" xmlns:xlink="http://www.w3.org/1999/xlink" version="1.1" viewBox="-10 -40 660 512">
   <path fill="currentColor"
d="M64 -39q-27 1 -45 19v0v0q-18 18 -19 45v384v0q1 27 19 45t45 19h216v0q-6 -7 -11 -16h-205v0q-20 -1 -34 -14q-13 -14 -14 -34v-384v0q1 -20 14 -34q14 -13 34 -14h205v0q5 -9 11 -16h-216v0zM176 185q-48 1 -79 33v0v0q-32 31 -33 79q1 48 33 79q31 32 79 33
q48 -1 80 -34v-25v0q-28 41 -80 43q-41 -1 -68 -28t-28 -68q1 -41 28 -68t68 -28q52 2 80 43v-25v0q-32 -33 -80 -34v0zM144 297q0 -14 9 -23v0v0q9 -9 23 -9t23 9t9 23t-9 23t-23 9t-23 -9t-9 -23v0zM224 297q-1 -27 -24 -42q-24 -12 -48 0q-23 15 -24 42q1 27 24 42
q24 12 48 0q23 -15 24 -42v0zM176 41q27 1 42 24q12 24 0 48q-15 23 -42 24q-27 -1 -42 -24q-12 -24 0 -48q15 -23 42 -24v0zM176 153q36 -1 55 -32q18 -32 0 -64q-19 -31 -55 -32q-36 1 -55 32q-18 32 0 64q19 31 55 32v0zM576 -23q20 1 34 14v0v0q13 14 14 34v384v0
q-1 20 -14 34q-14 13 -34 14h-224v0q-20 -1 -34 -14q-13 -14 -14 -34v-384v0q1 -20 14 -34q14 -13 34 -14h224v0zM352 -39q-27 1 -45 19v0v0q-18 18 -19 45v384v0q1 27 19 45t45 19h224v0q27 -1 45 -19t19 -45v-384v0q-1 -27 -19 -45t-45 -19h-224v0zM464 201q26 0 48 13v0
v0q22 13 35 35q13 23 13 48t-13 48q-13 22 -35 35t-48 13t-48 -13t-35 -35q-13 -23 -13 -48t13 -48q13 -22 35 -35t48 -13v0zM464 409q30 0 56 -15v0v0q26 -15 41 -41t15 -56t-15 -56t-41 -41t-56 -15t-56 15t-41 41t-15 56t15 56t41 41t56 15v0zM432 297q0 -14 9 -23v0v0
q9 -9 23 -9t23 9t9 23t-9 23t-23 9t-23 -9t-9 -23v0zM512 297q-1 -27 -24 -42q-24 -12 -48 0q-23 15 -24 42q1 27 24 42q24 12 48 0q23 -15 24 -42v0zM464 41q27 1 42 24q12 24 0 48q-15 23 -42 24q-27 -1 -42 -24q-12 -24 0 -48q15 -23 42 -24v0zM464 153q36 -1 55 -32
q18 -32 0 -64q-19 -31 -55 -32q-36 1 -55 32q-18 32 0 64q19 31 55 32v0z" />
</svg>
