<?xml version="1.0" standalone="no"?>
<!DOCTYPE svg PUBLIC "-//W3C//DTD SVG 1.1//EN" "http://www.w3.org/Graphics/SVG/1.1/DTD/svg11.dtd" >
<svg xmlns="http://www.w3.org/2000/svg" xmlns:xlink="http://www.w3.org/1999/xlink" version="1.1" viewBox="-10 -40 660 512">
   <path fill="currentColor"
d="M617 41q-4 0 -7 4q-8 16 -34 45q-25 29 -69 53t-107 26h-40h-344v48v0h128h256q63 2 107 26t69 53q26 29 34 45q3 4 7 4q6 -1 7 -7v-153v0v-137v0q-1 -6 -7 -7v0zM96 233h-80h80h-80v8v0q-1 7 -8 8q-7 -1 -8 -8v-96v0q1 -7 8 -8q7 1 8 8v8v0h160v0v-32v0q1 -7 8 -8
q7 1 8 8v32v0h72v0v-32v0q1 -7 8 -8q7 1 8 8v32v0h72v0v-32v0q1 -7 8 -8q7 1 8 8v32v0h32v0q59 -1 100 -24t65 -50t32 -42q7 -11 20 -12q21 2 23 23v137v0v153v0q-2 21 -23 23q-13 -1 -20 -12q-8 -15 -32 -42t-65 -50t-100 -24h-32v0v128v0h32v0q27 -1 45 -19t19 -45
q0 -12 -4 -22q10 3 19 8q1 7 1 14q-1 34 -23 57q-23 22 -57 23h-40h-216q-34 -1 -57 -23q-22 -23 -23 -57q1 -41 32 -64v0zM144 233q-27 1 -45 19v0v0q-18 18 -19 45q1 27 19 45t45 19h32v0v-128v0h-32v0zM192 233v128v-128v128h72v0v-128v0h-72v0zM280 233v128v-128v128h72
v0v-128v0h-72v0z" />
</svg>
