<?xml version="1.0" standalone="no"?>
<!DOCTYPE svg PUBLIC "-//W3C//DTD SVG 1.1//EN" "http://www.w3.org/Graphics/SVG/1.1/DTD/svg11.dtd" >
<svg xmlns="http://www.w3.org/2000/svg" xmlns:xlink="http://www.w3.org/1999/xlink" version="1.1" viewBox="-10 -40 596 512">
   <path fill="currentColor"
d="M512 9q20 1 34 14v0v0q13 14 14 34v320v0q-1 20 -14 34q-14 13 -34 14h-448v0q-20 -1 -34 -14q-13 -14 -14 -34v-320v0q1 -20 14 -34q14 -13 34 -14h448v0zM64 -7q-27 1 -45 19v0v0q-18 18 -19 45v320v0q1 27 19 45t45 19h448v0q27 -1 45 -19t19 -45v-320v0
q-1 -27 -19 -45t-45 -19h-448v0zM224 361q-39 0 -72 -19v0v0q-33 -19 -53 -53q-19 -34 -19 -72t19 -72q20 -34 53 -53t72 -19t72 19t53 53q19 34 19 72t-19 72q-20 34 -53 53t-72 19v0zM64 217q0 43 21 80v0v0q22 37 59 59q38 21 80 21t80 -21q37 -22 59 -59q21 -37 21 -80
t-21 -80q-22 -37 -59 -59q-38 -21 -80 -21t-80 21q-37 22 -59 59q-21 37 -21 80v0zM208 217q1 -15 16 -16q15 1 16 16q-1 15 -16 16q-15 -1 -16 -16v0zM256 217q0 -14 -9 -23v0v0q-9 -9 -23 -9t-23 9t-9 23t9 23t23 9t23 -9t9 -23v0zM512 65q-1 -7 -8 -8q-7 1 -8 8v152v0
q0 6 -2 11l-23 46v0q-23 -4 -36 17l-16 32v0q-5 12 -1 24t16 19q12 5 24 1t19 -16l16 -32v0q5 -12 1 -24t-16 -19q-1 0 -2 -1l1 1h1q4 2 7 5l23 -46v0q4 -8 4 -18v-152v0zM471 291q13 8 7 21l-16 32v0q-7 13 -21 7q-13 -7 -7 -21l16 -32v0q8 -13 21 -7v0z" />
</svg>
