<?xml version="1.0" standalone="no"?>
<!DOCTYPE svg PUBLIC "-//W3C//DTD SVG 1.1//EN" "http://www.w3.org/Graphics/SVG/1.1/DTD/svg11.dtd" >
<svg xmlns="http://www.w3.org/2000/svg" xmlns:xlink="http://www.w3.org/1999/xlink" version="1.1" viewBox="-10 -40 660 512">
   <path fill="currentColor"
d="M64 -23q-20 1 -34 14v0v0q-13 14 -14 34v320v0q1 20 14 34q14 13 34 14h512v0q20 -1 34 -14q13 -14 14 -34v-320v0q-1 -20 -14 -34q-14 -13 -34 -14h-512v0zM0 25q1 -27 19 -45v0v0q18 -18 45 -19h512v0q27 1 45 19t19 45v320v0q-1 27 -19 45t-45 19h-512v0
q-27 -1 -45 -19t-19 -45v-320v0zM104 457h432h-432h432q7 1 8 8q-1 7 -8 8h-432v0q-7 -1 -8 -8q1 -7 8 -8v0zM560 41h-480h480h-480v288v0h480v0v-288v0zM80 25h480h-480h480q15 1 16 16v288v0q-1 15 -16 16h-480v0q-15 -1 -16 -16v-288v0q1 -15 16 -16v0zM413 66q3 3 3 7
v152v0v0v0q-1 17 -14 28q-14 12 -34 12t-34 -12q-13 -11 -14 -28q1 -17 14 -28q14 -12 34 -12q19 0 32 10v-110v0l-112 42v0v130v0v0v0q-1 17 -14 28q-14 12 -34 12t-34 -12q-13 -11 -14 -28q1 -17 14 -28q14 -12 34 -12q19 0 32 10v-106v0q0 -5 5 -7l128 -48v0q4 -2 8 0v0z
M368 201q-15 1 -24 8v0v0q-8 8 -8 16t8 16q9 7 24 8q15 -1 24 -8q8 -8 8 -16t-8 -16q-9 -7 -24 -8v0zM240 233q-15 1 -24 8v0v0q-8 8 -8 16t8 16q9 7 24 8q15 -1 24 -8q8 -8 8 -16t-8 -16q-9 -7 -24 -8v0z" />
</svg>
