<?xml version="1.0" standalone="no"?>
<!DOCTYPE svg PUBLIC "-//W3C//DTD SVG 1.1//EN" "http://www.w3.org/Graphics/SVG/1.1/DTD/svg11.dtd" >
<svg xmlns="http://www.w3.org/2000/svg" xmlns:xlink="http://www.w3.org/1999/xlink" version="1.1" viewBox="-10 -40 465 512">
   <path fill="currentColor"
d="M197 -18l2 2v0v0v0v0v0q7 7 25 9q18 -2 25 -9l2 -2q5 -4 21 -5q8 -1 19 11q11 13 21 37q12 29 19 60q-43 11 -107 12q-64 -1 -107 -12q8 -31 19 -60q10 -24 21 -37q11 -12 19 -11q16 1 21 5v0zM346 81q-10 -43 -28 -81v0v0q-18 -37 -46 -39q-25 2 -32 10v0h-1q-6 5 -15 6
q-9 -1 -15 -6h-1q-7 -8 -32 -10q-28 2 -46 39q-18 38 -28 81l-21 -7q-49 -22 -58 -38q-5 -5 -11 -2q-5 3 -3 9q6 20 24 43t45 43q28 21 65 34q36 14 81 14t81 -14q37 -13 65 -33q27 -21 45 -44t25 -42q1 -7 -4 -10q-6 -3 -10 2q-10 16 -59 38l-21 7v0zM88 117
q-29 -22 -45 -44q13 8 32 15q52 23 149 25q97 -2 149 -25q18 -7 32 -15q-16 22 -45 44q-25 19 -60 31q-34 13 -76 13t-76 -13q-35 -12 -60 -31v0zM101 361h246h-246h246q31 1 53 20t27 50l1 8v0q0 16 -16 18h-376v0q-16 -2 -16 -18l1 -8v0q5 -31 27 -50t53 -20v0zM101 345
q-37 1 -64 24v0v0q-26 23 -32 60l-1 8v0q-1 15 8 25q9 11 24 11h376v0q15 0 24 -11q9 -10 8 -25l-1 -8v0q-6 -37 -32 -60t-64 -24h-246v0zM224 313q54 -1 90 -37v0v0q36 -35 38 -89l-16 8q-5 44 -36 72q-31 29 -76 30q-45 -1 -76 -30q-31 -28 -36 -72l-16 -8q2 54 38 89
q36 36 90 37v0z" />
</svg>
