<?xml version="1.0" standalone="no"?>
<!DOCTYPE svg PUBLIC "-//W3C//DTD SVG 1.1//EN" "http://www.w3.org/Graphics/SVG/1.1/DTD/svg11.dtd" >
<svg xmlns="http://www.w3.org/2000/svg" xmlns:xlink="http://www.w3.org/1999/xlink" version="1.1" viewBox="-10 -40 660 512">
   <path fill="currentColor"
d="M16 1q-1 -7 -8 -8q-7 1 -8 8v160v0v128v0v80v0v64v0q1 7 8 8q7 -1 8 -8v-56v0h608v0v56v0q1 7 8 8q7 -1 8 -8v-64v0v-80v0v-32v0q-1 -44 -30 -74q-30 -29 -74 -30h-520v0v-152v0zM624 281h-608h608h-608v-112v0h520v0q37 1 62 26t26 62v24v0zM16 297h608h-608h608v64v0
h-608v0v-64v0z" />
</svg>
