<?xml version="1.0" standalone="no"?>
<!DOCTYPE svg PUBLIC "-//W3C//DTD SVG 1.1//EN" "http://www.w3.org/Graphics/SVG/1.1/DTD/svg11.dtd" >
<svg xmlns="http://www.w3.org/2000/svg" xmlns:xlink="http://www.w3.org/1999/xlink" version="1.1" viewBox="-10 -40 468 512">
   <path fill="currentColor"
d="M0 -7h24h-24h120q58 1 96 40q39 38 40 96q-1 48 -28 83t-71 48l58 181v0h-51v0l-56 -176v0h-60v0v176v0h-48v0v-200v0v-224v0v-24v0zM48 217h72h-72h72q37 -1 62 -26t26 -62q-1 -37 -26 -62t-62 -26h-72v0v176v0zM313 227q-2 12 1 16q1 5 7 10q14 10 43 19l1 1v0v0
q29 8 57 28q14 11 21 30q7 20 4 42q-7 41 -41 58q-33 15 -72 8v0v0v0v0q-15 -4 -30 -10l-16 -6q-1 0 -2 -1q-2 -1 -4 -1q-2 -1 -3 -2l-22 -8v0l17 -45v0l22 9v0q4 1 9 3q7 3 16 6q15 6 22 7q27 5 41 -3q12 -6 15 -22q2 -12 -1 -18q-2 -5 -8 -10q-13 -11 -42 -20l-3 -1v0
q-28 -8 -54 -27q-14 -10 -22 -29q-7 -18 -4 -40q7 -40 40 -56q33 -17 73 -10q6 2 17 4q12 3 19 5l23 7v0l-14 46v0l-23 -7v0q-5 -2 -16 -4l-15 -3q-27 -5 -41 4t-16 21z" />
</svg>
