<?xml version="1.0" standalone="no"?>
<!DOCTYPE svg PUBLIC "-//W3C//DTD SVG 1.1//EN" "http://www.w3.org/Graphics/SVG/1.1/DTD/svg11.dtd" >
<svg xmlns="http://www.w3.org/2000/svg" xmlns:xlink="http://www.w3.org/1999/xlink" version="1.1" viewBox="-10 -40 596 512">
   <path fill="currentColor"
d="M48 73v288v-288v288h480v0v-288v0h-480v0zM0 25h48h-48h576v48v0v288v0v48v0h-48h-528v-48v0v-288v0v-48v0zM416 281v48v-48v48h-256v0v-48v0h256v0zM104 193h48h-48h48v48v0h-48v0v-48v0zM152 113v48v-48v48h-48v0v-48v0h48v0zM184 193h48h-48h48v48v0h-48v0v-48v0z
M232 113v48v-48v48h-48v0v-48v0h48v0zM264 193h48h-48h48v48v0h-48v0v-48v0zM312 113v48v-48v48h-48v0v-48v0h48v0zM344 193h48h-48h48v48v0h-48v0v-48v0zM392 113v48v-48v48h-48v0v-48v0h48v0zM424 193h48h-48h48v48v0h-48v0v-48v0zM472 113v48v-48v48h-48v0v-48v0h48v0z
" />
</svg>
