<?xml version="1.0" standalone="no"?>
<!DOCTYPE svg PUBLIC "-//W3C//DTD SVG 1.1//EN" "http://www.w3.org/Graphics/SVG/1.1/DTD/svg11.dtd" >
<svg xmlns="http://www.w3.org/2000/svg" xmlns:xlink="http://www.w3.org/1999/xlink" version="1.1" viewBox="-10 -40 404 512">
   <path fill="currentColor"
d="M288 2q-31 -9 -64 -9q-16 0 -31 2q-84 13 -137 74q-54 61 -56 148q1 63 31 113q29 51 80 80q50 30 113 31q43 0 80 -15q16 -6 31 -14q27 -16 49 -38q-24 6 -49 6q-19 0 -37 -3q-67 -15 -110 -66q-43 -52 -44 -123q0 -44 18 -82t50 -65q6 -5 12 -9q29 -21 64 -30v0z
M126 71q-30 52 -30 117q0 66 31 119q30 53 82 85q-69 -7 -114 -56q-45 -48 -47 -119q0 -46 21 -84t57 -62v0z" />
</svg>
