<?xml version="1.0" standalone="no"?>
<!DOCTYPE svg PUBLIC "-//W3C//DTD SVG 1.1//EN" "http://www.w3.org/Graphics/SVG/1.1/DTD/svg11.dtd" >
<svg xmlns="http://www.w3.org/2000/svg" xmlns:xlink="http://www.w3.org/1999/xlink" version="1.1" viewBox="-10 -40 596 512">
   <path fill="currentColor"
d="M167 -36q-45 47 -47 117q0 39 17 73q-34 3 -66 21q-51 29 -71 79q46 -37 105 -34t99 65q36 65 9 116t-83 70q55 8 107 -19q31 -18 51 -44q20 26 51 44q52 27 107 19q-56 -19 -83 -70t9 -116q40 -62 99 -65q60 -3 105 34q-20 -50 -71 -79q-32 -18 -66 -21q17 -34 17 -73
q-2 -70 -47 -117q12 39 3 78q-9 40 -40 67t-84 28q-53 -1 -84 -28t-40 -67q-9 -39 3 -78v0zM240 233q1 -27 24 -42q24 -12 48 0q23 15 24 42q-1 27 -24 42q-24 12 -48 0q-23 -15 -24 -42v0zM288 25q-49 0 -90 20q3 9 8 17q8 13 20 23q29 -12 62 -12t62 12q12 -10 20 -23
q5 -8 8 -17q-41 -20 -90 -20v0zM192 361q-50 -38 -62 -102q-14 -6 -28 -7q-11 -1 -21 0q5 49 29 88q24 40 62 66q7 -9 12 -19q6 -12 8 -26v0zM495 252q-10 -1 -21 0q-14 1 -28 7q-12 64 -62 102q2 14 8 26q5 10 12 19q38 -26 62 -66q24 -39 29 -88v0z" />
</svg>
