<?xml version="1.0" standalone="no"?>
<!DOCTYPE svg PUBLIC "-//W3C//DTD SVG 1.1//EN" "http://www.w3.org/Graphics/SVG/1.1/DTD/svg11.dtd" >
<svg xmlns="http://www.w3.org/2000/svg" xmlns:xlink="http://www.w3.org/1999/xlink" version="1.1" viewBox="-10 -40 340 512">
   <path fill="currentColor"
d="M80 89q1 32 15 61v0v0q15 28 36 52q16 16 29 27q13 -11 29 -27q21 -24 36 -52q14 -29 15 -61q-1 -34 -23 -57q-23 -22 -57 -23q-34 1 -57 23q-22 23 -23 57v0zM95 233q-25 -26 -43 -63v0v0q-19 -36 -20 -81q1 -54 37 -91q37 -36 91 -37q54 1 91 37q36 37 37 91
q-1 45 -20 81q-18 37 -43 63h71h24v48v0h-24h-112v168v0v24v0h-48v0v-24v0v-168v0h-112h-24v-48v0h24h71z" />
</svg>
