<?xml version="1.0" standalone="no"?>
<!DOCTYPE svg PUBLIC "-//W3C//DTD SVG 1.1//EN" "http://www.w3.org/Graphics/SVG/1.1/DTD/svg11.dtd" >
<svg xmlns="http://www.w3.org/2000/svg" xmlns:xlink="http://www.w3.org/1999/xlink" version="1.1" viewBox="-10 -40 532 512">
   <path fill="currentColor"
d="M464 217q0 -49 -20 -90v0v0q-20 -41 -55 -70q7 21 7 44q-2 59 -41 99q-40 39 -99 41q-39 1 -65 27t-27 65q1 39 27 65t65 27q88 -2 147 -61t61 -147v0zM256 473q-70 -1 -128 -34v0v0q-58 -34 -94 -94q-34 -61 -34 -128t34 -128q36 -60 94 -94q58 -33 128 -34q70 1 128 34
q58 34 94 94q34 61 34 128t-34 128q-36 60 -94 94q-58 33 -128 34v0zM123 377q-7 -21 -7 -44q1 -60 41 -99q40 -40 99 -41q39 -1 65 -27t27 -65q-1 -39 -27 -65t-65 -27q-88 2 -147 61t-61 147q0 49 20 90t55 70v0zM216 105l40 -40l-40 40l40 -40l40 40v0l-40 40v0l-40 -40
v0zM256 289l40 40l-40 -40l40 40l-40 40v0l-40 -40v0l40 -40v0z" />
</svg>
