<?xml version="1.0" standalone="no"?>
<!DOCTYPE svg PUBLIC "-//W3C//DTD SVG 1.1//EN" "http://www.w3.org/Graphics/SVG/1.1/DTD/svg11.dtd" >
<svg xmlns="http://www.w3.org/2000/svg" xmlns:xlink="http://www.w3.org/1999/xlink" version="1.1" viewBox="-10 -40 468 512">
   <path fill="currentColor"
d="M248 -15v-24v24v-24h-48v0v24v0v32v0h-32h-24v48v0h24h32v40v0h-152h-48v48v0v24v0l59 136v0h52v0l-63 -146v0v-14v0h152h200v14v0l-63 146v0h52v0l59 -136v0v-24v0v-48v0h-48h-152v-40v0h32h24v-48v0h-24h-32v-32v0zM85 425l16 -32l-16 32l16 -32h246v0l16 32v0h-278v0z
M416 422l-40 -77l40 77l-40 -77h-304v0l-40 77v0v3v0v48v0h48h336v-48v0v-3v0z" />
</svg>
