<?xml version="1.0" standalone="no"?>
<!DOCTYPE svg PUBLIC "-//W3C//DTD SVG 1.1//EN" "http://www.w3.org/Graphics/SVG/1.1/DTD/svg11.dtd" >
<svg xmlns="http://www.w3.org/2000/svg" xmlns:xlink="http://www.w3.org/1999/xlink" version="1.1" viewBox="-12 0 536 512">
   <path fill="currentColor"
d="M328 -39l15 67l-15 -67l15 67q18 8 33 19l66 -20v0l72 124v0l-51 46v0q1 10 1 20t-1 19l51 47v0l-72 124v0l-66 -21v0q-16 12 -33 20l-15 67v0h-144v0l-15 -67v0q-18 -8 -33 -19l-66 20v0l-72 -124v0l51 -46v0q-1 -10 -1 -20t1 -19l-51 -47v0l72 -124v0l66 21v0
q15 -12 33 -20l15 -67v0h144v0zM391 93l-23 8l23 -8l-23 8l-19 -14v0q-13 -9 -26 -15l-22 -10v0l-5 -24v0l-7 -29v0h-66v0l-7 29v0l-5 24v0l-22 10v0q-14 6 -26 15l-19 14v0l-23 -8v0l-28 -9v0l-34 58v0l22 20v0l18 16v0l-2 24v0q-1 7 -1 15t1 15l2 24v0l-18 16v0l-22 20v0
l34 58v0l28 -9v0l23 -7v0l19 14v0q13 8 26 15l22 10v0l5 23v0l7 29v0h66v0l7 -29v0l5 -23v0l22 -10v0q14 -7 26 -15l19 -14v0l23 7v0l28 9v0l34 -58v0l-22 -20v0l-18 -16v0l2 -24v0q1 -7 1 -15t-1 -15l-2 -24v0l18 -16v0l22 -20v0l-33 -58v0l-29 9v0zM304 217
q-1 -27 -24 -42q-24 -12 -48 0q-23 15 -24 42q1 27 24 42q24 12 48 0q23 -15 24 -42v0zM160 217q0 -26 13 -48v0v0q13 -22 35 -35q23 -13 48 -13t48 13q22 13 35 35t13 48t-13 48t-35 35q-23 13 -48 13t-48 -13q-22 -13 -35 -35t-13 -48v0z" />
</svg>
