<?xml version="1.0" standalone="no"?>
<!DOCTYPE svg PUBLIC "-//W3C//DTD SVG 1.1//EN" "http://www.w3.org/Graphics/SVG/1.1/DTD/svg11.dtd" >
<svg xmlns="http://www.w3.org/2000/svg" xmlns:xlink="http://www.w3.org/1999/xlink" version="1.1" viewBox="-10 -40 522 512">
   <path fill="currentColor"
d="M306 378q-24 -7 -50 -18q-26 11 -50 18q14 28 27 38t23 9q10 1 23 -9t27 -38v0zM293 287q22 -14 41 -28q2 -20 2 -42t-2 -42q-19 -14 -41 -28q-19 -11 -37 -20q-18 9 -37 20q-22 14 -41 28q-2 20 -2 42t2 42q19 14 41 28q19 11 37 20q18 -9 37 -20v0zM414 255
q-16 15 -34 29q-3 31 -10 57q27 2 40 -5q14 -6 18 -14q5 -9 3 -25q-1 -17 -17 -42v0zM470 89q15 28 8 61v0v0q-7 33 -32 67q25 34 32 67t-8 61q-34 53 -116 43q-16 40 -41 62q-25 23 -57 23t-57 -23q-25 -22 -41 -62q-82 10 -116 -43q-15 -28 -8 -61t32 -67q-25 -34 -32 -67
t8 -61q34 -53 116 -43q16 -40 41 -62q25 -23 57 -23t57 23q25 22 41 62q82 -10 116 43v0zM84 322q4 8 18 14v0v0q13 7 40 5q-7 -26 -10 -57q-18 -14 -34 -29q-16 25 -17 42q-2 16 3 25v0zM99 180q15 -16 33 -30q3 -31 10 -57q-27 -2 -40 5q-14 6 -18 14q-5 9 -3 25
q1 17 17 43h1zM256 74q26 -11 50 -18q-14 -28 -27 -38t-23 -9q-10 -1 -23 9t-27 38q24 7 50 18v0zM380 150q18 14 34 30q16 -26 17 -43q2 -16 -3 -25q-4 -8 -17 -14q-14 -7 -41 -5q7 26 10 57v0zM216 217l40 -40l-40 40l40 -40l40 40v0l-40 40v0l-40 -40v0z" />
</svg>
