<?xml version="1.0" standalone="no"?>
<!DOCTYPE svg PUBLIC "-//W3C//DTD SVG 1.1//EN" "http://www.w3.org/Graphics/SVG/1.1/DTD/svg11.dtd" >
<svg xmlns="http://www.w3.org/2000/svg" xmlns:xlink="http://www.w3.org/1999/xlink" version="1.1" viewBox="-10 -40 650 512">
   <path fill="currentColor"
d="M192 265q35 0 64 -17v0v0q29 -17 47 -47q17 -30 17 -64t-17 -64q-18 -30 -47 -47t-64 -17t-64 17t-47 47q-17 30 -17 64t17 64q18 30 47 47t64 17v0zM368 137q-1 68 -44 116v0v0q-42 48 -108 58v50v0h48h24v48v0h-24h-48v40v0v24v0h-48v0v-24v0v-40v0h-48h-24v-48v0h24
h48v-50v0q-66 -10 -108 -58q-43 -48 -44 -116q2 -75 52 -124q49 -50 124 -52q75 2 124 52q50 49 52 124v0zM344 279q16 -18 29 -39q32 24 75 25q54 -1 91 -37q36 -37 37 -91q-1 -54 -37 -91q-37 -36 -91 -37q-43 1 -75 25q-13 -21 -29 -39q45 -33 104 -34q75 2 124 52
q50 49 52 124q-1 68 -44 116q-42 48 -108 58v50v0h48h24v48v0h-24h-48v40v0v24v0h-48v0v-24v0v-40v0h-48h-24v-48v0h24h48v-50v0q-45 -6 -80 -32v0z" />
</svg>
