<?xml version="1.0" standalone="no"?>
<!DOCTYPE svg PUBLIC "-//W3C//DTD SVG 1.1//EN" "http://www.w3.org/Graphics/SVG/1.1/DTD/svg11.dtd" >
<svg xmlns="http://www.w3.org/2000/svg" xmlns:xlink="http://www.w3.org/1999/xlink" version="1.1" viewBox="-10 -40 660 512">
   <path fill="currentColor"
d="M176 265q35 0 64 -17v0v0q29 -17 47 -47q17 -30 17 -64t-17 -64q-18 -30 -47 -47t-64 -17t-64 17t-47 47q-17 30 -17 64t17 64q18 30 47 47t64 17v0zM352 137q-1 68 -44 116v0v0q-42 48 -108 58v50v0h48h24v48v0h-24h-48v40v0v24v0h-48v0v-24v0v-40v0h-48h-24v-48v0h24
h48v-50v0q-66 -10 -108 -58q-43 -48 -44 -116q2 -75 52 -124q49 -50 124 -52q75 2 124 52q50 49 52 124v0zM272 322q22 -12 40 -28q36 34 88 35q54 -1 91 -37q36 -37 37 -91q-1 -54 -37 -91q-37 -36 -91 -37q-13 0 -25 3q-8 -24 -20 -45q22 -6 45 -6q61 1 106 36l52 -52v0
h-54h-24v-48v0h24h136v24v0v112v0v24v0h-48v0v-24v0v-54v0l-52 52v0q35 45 36 106q-2 75 -52 124q-49 50 -124 52q-78 -2 -128 -55v0z" />
</svg>
