<?xml version="1.0" standalone="no"?>
<!DOCTYPE svg PUBLIC "-//W3C//DTD SVG 1.1//EN" "http://www.w3.org/Graphics/SVG/1.1/DTD/svg11.dtd" >
<svg xmlns="http://www.w3.org/2000/svg" xmlns:xlink="http://www.w3.org/1999/xlink" version="1.1" viewBox="-10 -40 660 512">
   <path fill="currentColor"
d="M121 -39l-17 104l17 -104l-17 104l-104 17v0l61 87v0l-61 87v0l104 17v0l17 104v0l42 -29v0q16 -59 68 -86q-11 3 -23 3q-41 -1 -68 -28t-28 -68q1 -41 28 -68t68 -28q41 1 68 28t28 68v1v0q28 -16 62 -17l50 -71v0l-104 -17v0l-17 -104v0l-87 61v0l-87 -61v0zM272 169
q-1 -36 -32 -55q-32 -18 -64 0q-31 19 -32 55q1 36 32 55q32 18 64 0q31 -19 32 -55v0zM369 233q20 1 34 14v0v0q13 14 14 34v8v0h49v0q7 -22 31 -24q13 0 22 9t10 23v40v0v24v0h24h7q14 0 23 9t9 23v32v0h-32h-31v0v0h-88v0v0v0h-137v0v0v0h-31h-33v-48v0q1 -20 14 -34
q14 -13 34 -14h9h24v-24v0v-24v0q0 -20 14 -34q13 -13 34 -14v0zM577 473h39h-39h63v-24v0v-56v0q-1 -29 -18 -51q-18 -21 -45 -27v-18v0q-1 -34 -24 -57q-22 -22 -56 -23q-26 0 -46 14q-13 -21 -35 -33q-21 -13 -47 -13q-41 1 -68 28t-28 68v1v0q-35 7 -58 32
q-22 26 -23 63v72v0v24v0h24h25v0v0h32h168v0v0h112h24v0v0z" />
</svg>
