<?xml version="1.0" standalone="no"?>
<!DOCTYPE svg PUBLIC "-//W3C//DTD SVG 1.1//EN" "http://www.w3.org/Graphics/SVG/1.1/DTD/svg11.dtd" >
<svg xmlns="http://www.w3.org/2000/svg" xmlns:xlink="http://www.w3.org/1999/xlink" version="1.1" viewBox="-10 -40 596 512">
   <path fill="currentColor"
d="M320 -39v24v-24v24v104v0v32v0v22v0l175 51v0l17 5v0v18v0v104v0v24v0h-24h-456v-24v0v-248v0v-18v0l18 -5v0l222 -61v0v-4v0v-24v0h48v0zM272 89v-51v51v-51l-192 53v0v206v0h384v0v-62v0l-171 -50v0h-53h-16v-32v0h16h32v-32v0h-32h-16v-32v0h16h32zM576 369v24v-24v24
v56v0v24v0h-24h-552v-48v0h24h72v-24v0v-24v0h48v0v24v0v24v0h240v0v-24v0v-24v0h48v0v24v0v24v0h96v0v-32v0v-24v0h48v0z" />
</svg>
