<?xml version="1.0" standalone="no"?>
<!DOCTYPE svg PUBLIC "-//W3C//DTD SVG 1.1//EN" "http://www.w3.org/Graphics/SVG/1.1/DTD/svg11.dtd" >
<svg xmlns="http://www.w3.org/2000/svg" xmlns:xlink="http://www.w3.org/1999/xlink" version="1.1" viewBox="-10 -40 532 512">
   <path fill="currentColor"
d="M64 233l120 -48l-120 48l120 -48l183 -189v0l33 -35v0l34 34v0l44 44v0l34 34v0l-35 33v0l-189 183v0l-48 120v0l-208 64v0l-32 -32v0l64 -208v0zM223 214l36 36l-36 -36l36 36l185 -178v0l-43 -42v0l-178 184v0zM180 239l-77 30l77 -30l-77 30l-35 113v0l44 -44v0v0v-1
q2 -22 24 -24q22 2 24 24q-2 22 -24 24h-1v0l-44 44v0l113 -35v0l31 -77v0l-55 -55v1z" />
</svg>
