<?xml version="1.0" standalone="no"?>
<!DOCTYPE svg PUBLIC "-//W3C//DTD SVG 1.1//EN" "http://www.w3.org/Graphics/SVG/1.1/DTD/svg11.dtd" >
<svg xmlns="http://www.w3.org/2000/svg" xmlns:xlink="http://www.w3.org/1999/xlink" version="1.1" viewBox="-10 -40 468 512">
   <path fill="currentColor"
d="M48 41v352v-352v352h352v0v-352v0h-352v0zM0 -7h48h-48h448v48v0v352v0v48v0h-48h-400v-48v0v-352v0v-48v0zM322 153l-17 17l17 -17l-17 17l-47 47v0l47 47v0l17 17v0l-34 34v0l-17 -17v0l-47 -47v0l-47 47v0l-17 17v0l-34 -34v0l17 -17v0l47 -47v0l-47 -47v0l-17 -17v0
l34 -34v0l17 17v0l47 47v0l47 -47v0l17 -17v0l34 34v0z" />
</svg>
