<?xml version="1.0" standalone="no"?>
<!DOCTYPE svg PUBLIC "-//W3C//DTD SVG 1.1//EN" "http://www.w3.org/Graphics/SVG/1.1/DTD/svg11.dtd" >
<svg xmlns="http://www.w3.org/2000/svg" xmlns:xlink="http://www.w3.org/1999/xlink" version="1.1" viewBox="-10 -40 394 512">
   <path fill="currentColor"
d="M120 281v48v-48v48h-48h-72v48v0v48v0v48v0h48h216v-48v0v-208v0v-48v0h40h48v-48v0l-126 -126v0l-34 -34v0l-34 34v0l-126 126v0v48v0h40h48v48v0v64v0zM100 121l92 -92l-92 92l92 -92l92 92v0h-20h-48v48v0v256v0h-168v0v-48v0h72h48v-48v0v-160v0v-48v0h-48h-20z" />
</svg>
