<?xml version="1.0" standalone="no"?>
<!DOCTYPE svg PUBLIC "-//W3C//DTD SVG 1.1//EN" "http://www.w3.org/Graphics/SVG/1.1/DTD/svg11.dtd" >
<svg xmlns="http://www.w3.org/2000/svg" xmlns:xlink="http://www.w3.org/1999/xlink" version="1.1" viewBox="-10 -40 468 512">
   <path fill="currentColor"
d="M200 -7v24v-24v24v88v0q0 56 34 101l19 25v0q42 58 43 130v56v0v24v0h-48v0v-24v0v-56v0q0 -56 -34 -101l-19 -25v0q-42 -58 -43 -130v-88v0v-24v0h48v0zM48 57v24v-24v24v38v0q0 51 28 93l32 47v0q36 55 36 120v38v0v24v0h-48v0v-24v0v-38v0q0 -51 -28 -93l-32 -47v0
q-36 -55 -36 -120v-38v0v-24v0h48v0zM352 81v38v-38v38q0 51 28 93l32 47v0q36 55 36 120v38v0v24v0h-48v0v-24v0v-38v0q0 -51 -28 -93l-32 -47v0q-36 -55 -36 -120v-38v0v-24v0h48v0v24v0z" />
</svg>
