<?xml version="1.0" standalone="no"?>
<!DOCTYPE svg PUBLIC "-//W3C//DTD SVG 1.1//EN" "http://www.w3.org/Graphics/SVG/1.1/DTD/svg11.dtd" >
<svg xmlns="http://www.w3.org/2000/svg" xmlns:xlink="http://www.w3.org/1999/xlink" version="1.1" viewBox="-10 -40 660 512">
   <path fill="currentColor"
d="M69 -3l48 32l-48 -32l48 32l20 13v0l-26 40v0l-20 -13v0l-48 -32v0l-20 -13v0l26 -40v0l20 13v0zM597 37l-48 32l48 -32l-48 32l-20 13v0l-26 -40v0l20 -13v0l48 -32v0l20 -13v0l26 40v0l-20 13v0zM24 153h64h-64h88v48v0h-24h-88v-48v0h24v0zM552 153h64h-64h88v48v0
h-24h-88v-48v0h24v0zM490 265h-48h48h-48l-20 -160v0h-204v0l-20 160v0h-48v0l26 -208v0h288v0l26 208v0zM244 265l12 -98l-12 98l12 -98l2 -14v0h32v0l-2 18v0l-12 94v0h-32v0zM496 345h-352h352h-352v48v0h352v0v-48v0zM144 297h352h-352h400v48v0v48v0v48v0h-48h-400v-48
v0v-48v0v-48v0h48v0z" />
</svg>
