<?xml version="1.0" standalone="no"?>
<!DOCTYPE svg PUBLIC "-//W3C//DTD SVG 1.1//EN" "http://www.w3.org/Graphics/SVG/1.1/DTD/svg11.dtd" >
<svg xmlns="http://www.w3.org/2000/svg" xmlns:xlink="http://www.w3.org/1999/xlink" version="1.1" viewBox="-10 -40 532 512">
   <path fill="currentColor"
d="M208 15q23 -6 48 -6q84 2 142 56h-30h-24v48v0h24h82l20 -37v0q-36 -53 -91 -84q-55 -30 -123 -31q-72 1 -129 35q-58 34 -92 92q-34 57 -35 129q1 72 35 129q34 58 92 92q57 34 129 35q62 -1 113 -26q52 -26 88 -71l-38 -30v0q-29 37 -71 58t-92 21q-61 -1 -110 -31
q-49 -31 -75 -82q29 9 74 17q46 8 111 8q87 -1 140 -14q53 -12 79 -23v0v0q3 -1 5 -2l8 -2l12 -4v0l3 -12v0l1 -3v0q8 -29 8 -59v-1v0v-24v0h-48v0v24v0v1v0q0 19 -4 37h-1v0q-25 10 -74 22q-48 11 -129 12q-81 -1 -129 -12q-49 -12 -74 -22l-2 -1v0q-3 -18 -3 -37
q1 -62 32 -111q1 40 28 67t68 28q41 -1 68 -28t28 -68q-1 -32 -18 -56t-46 -34v0zM128 105q1 -27 24 -42q24 -12 48 0q23 15 24 42q-1 27 -24 42q-24 12 -48 0q-23 -15 -24 -42v0zM376 145h-24h24h-24v48v0h24h72v-48v0h-24h-48z" />
</svg>
