<?xml version="1.0" standalone="no"?>
<!DOCTYPE svg PUBLIC "-//W3C//DTD SVG 1.1//EN" "http://www.w3.org/Graphics/SVG/1.1/DTD/svg11.dtd" >
<svg xmlns="http://www.w3.org/2000/svg" xmlns:xlink="http://www.w3.org/1999/xlink" version="1.1" viewBox="-10 -40 526 512">
   <path fill="currentColor"
d="M297 18l-32 32l32 -32l-32 32l-17 17v0l-34 -34v0l17 -17v0l32 -32v0l17 -17v0l34 34v0l-17 17v0zM489 210l-32 32l32 -32l-32 32l-17 17v0l-34 -34v0l17 -17v0l32 -32v0l17 -17v0l34 34v0l-17 17v0zM506 1l-17 17l17 -17l-17 17l-128 128v0l-17 17v0l-34 -34v0l17 -17v0
l128 -128v0l17 -17v0l34 34v0zM220 159l33 67l-33 -67l33 67l74 11v0l60 9v0l-43 42v0l-54 52v0l13 73v0l10 60v0l-53 -28v0l-66 -35v0l-66 35v0l-54 28v0l10 -60v0l13 -73v0l-54 -52v0l-43 -42v0l60 -9v0l74 -11v0l33 -67v0l27 -54v0l26 54v0zM246 274l-25 -4l25 4l-25 -4
l-11 -23v0l-17 -33v0l-16 33v0l-11 23v0l-25 4v0l-38 5v0l27 26v0l18 18v0l-4 25v0l-6 37v0l33 -17v0l22 -12v0l23 12v0l33 17v0l-6 -37v0l-4 -25v0l18 -17v0l27 -27v0l-38 -5v0z" />
</svg>
