<?xml version="1.0" standalone="no"?>
<!DOCTYPE svg PUBLIC "-//W3C//DTD SVG 1.1//EN" "http://www.w3.org/Graphics/SVG/1.1/DTD/svg11.dtd" >
<svg xmlns="http://www.w3.org/2000/svg" xmlns:xlink="http://www.w3.org/1999/xlink" version="1.1" viewBox="-10 -40 532 512">
   <path fill="currentColor"
d="M480 -7l-16 -32l16 32l-16 -32l-16 32v0l-32 16v0l32 16v0l16 32v0l16 -32v0l32 -16v0l-32 -16v0zM64 89l-16 -32l16 32l-16 -32l-16 32v0l-32 16v0l32 16v0l16 32v0l16 -32v0l32 -16v0l-32 -16v0zM120 425h-24h24h-24v48v0h24h296v-48v0h-24h-272zM304 9q-1 -27 -24 -42
q-24 -12 -48 0q-23 15 -24 42q1 27 24 42q24 12 48 0q23 -15 24 -42v0zM176 89h-16h16h-16v32v0h16h176v-32v0h-16h-160zM144 153h-16h16h-16v32v0h16h240v-32v0h-16h-224zM112 217h-16h16h-16v32v0h16h304v-32v0h-16h-288zM176 281h-16h16h-16v32v0h16h176v-32v0h-16h-160z
M176 345h-16h16h-16v32v0h16h176v-32v0h-16h-160z" />
</svg>
