<?xml version="1.0" standalone="no"?>
<!DOCTYPE svg PUBLIC "-//W3C//DTD SVG 1.1//EN" "http://www.w3.org/Graphics/SVG/1.1/DTD/svg11.dtd" >
<svg xmlns="http://www.w3.org/2000/svg" xmlns:xlink="http://www.w3.org/1999/xlink" version="1.1" viewBox="-10 -40 468 512">
   <path fill="currentColor"
d="M112 128q1 -52 34 -85v0v0q32 -33 78 -34q46 1 78 34q33 33 34 85q-1 30 -19 60q-18 31 -47 59q-25 25 -46 40q-21 -15 -46 -40q-29 -28 -47 -59q-18 -30 -19 -60v0zM199 304v0v0v0v0v0v0zM224 -39q-68 2 -113 49v0v0q-45 47 -47 118q3 60 41 109q39 49 78 78
q38 29 41 30l-10 16v0v0v0l10 -16v0l10 16v0v0v0l-10 -16v0q3 -1 41 -30q39 -29 78 -78q38 -49 41 -109q-2 -71 -47 -118t-113 -49v0zM180 354q-21 -15 -49 -41h-83v0l-34 112v0l-14 48v0h50h398l-14 -48v0l-34 -112v0h-83v0q-28 26 -49 41h-1q-5 4 -9 7h106v0l20 64v0h-319
v0l19 -64v0h106v0l-1 -1q-4 -3 -9 -6v0zM208 185q-1 -24 -16 -40v0v0q-16 -15 -40 -16h-24v0v8v0q1 24 16 40q16 15 40 16h24v0v-8v0zM296 129q-24 1 -40 16v0v0q-15 16 -16 40v8v0h24v0q24 -1 40 -16q15 -16 16 -40v-8v0h-24v0z" />
</svg>
