<?xml version="1.0" standalone="no"?>
<!DOCTYPE svg PUBLIC "-//W3C//DTD SVG 1.1//EN" "http://www.w3.org/Graphics/SVG/1.1/DTD/svg11.dtd" >
<svg xmlns="http://www.w3.org/2000/svg" xmlns:xlink="http://www.w3.org/1999/xlink" version="1.1" viewBox="-10 -40 532 512">
   <path fill="currentColor"
d="M224 -7l48 64l-48 -64l48 64h192h48v48v0v288v0v48v0h-48h-464v-48v0v-352v0v-48v0h48h176zM272 105h-24h24h-24l-14 -19v0l-34 -45v0h-152v0v352v0h416v0v-288v0h-192v0zM280 161v102v-102v102l31 -31v0l17 -17v0l34 34v0l-17 17v0l-72 72v0l-17 17v0l-17 -17v0l-72 -72
v0l-17 -17v0l34 -34v0l17 17v0l31 31v0v-102v0v-24v0h48v0v24v0z" />
</svg>
