<?xml version="1.0" standalone="no"?>
<!DOCTYPE svg PUBLIC "-//W3C//DTD SVG 1.1//EN" "http://www.w3.org/Graphics/SVG/1.1/DTD/svg11.dtd" >
<svg xmlns="http://www.w3.org/2000/svg" xmlns:xlink="http://www.w3.org/1999/xlink" version="1.1" viewBox="-10 -40 658 512">
   <path fill="currentColor"
d="M324 -22l-8 17l8 -17l-8 17v0v0q23 12 35 36l10 -3v0l17 -5v0l10 34v0l-17 5v0l-11 3v0q1 27 -13 49l8 8v0l12 13v0l-25 26v0l-13 -13v0l-8 -8v0q-12 8 -26 11q-9 2 -17 5l3 10v0l5 17v0l-34 10v0l-5 -17v0l-2 -6v0q-26 17 -36 35l8 4v0l17 7v0l-15 33v0l-16 -7v0l-10 -4
v0l-2 8q-2 20 -12 36l8 8v0l13 13v0l-26 26v0l-13 -13v0l-8 -8v0q-21 14 -48 13l-4 11v0l-4 17v0l-35 -10v0l5 -17v0l3 -10v0q-23 -12 -36 -35v0v0l-17 8v0l-15 -33v0l16 -7v0l6 -3v0v-12q2 -19 7 -36q1 -2 1 -3l-9 -3v0l-16 -7v0l13 -33v0l17 6v0l7 3v0q7 -16 18 -34
q2 -3 4 -7l-11 -9v0l-14 -11v0l22 -28v0l14 11v0l10 8v0q16 -18 36 -35l-6 -9v0l-10 -15v0l30 -20v0l10 15v0l5 7v0q20 -13 45 -23l-4 -9v0l-7 -16v0l34 -15v0l7 17v0l4 10v0q13 -4 26 -7q12 -3 24 -2l3 -5v0l7 -17v0l33 15v0zM144 241v-2q6 -32 20 -54q13 -23 42 -46
q28 -22 78 -35q15 -4 23 -16q7 -12 4 -27q-4 -15 -16 -23q-12 -7 -27 -4q-66 16 -106 48q-40 31 -59 66q-20 34 -25 58q-5 15 -6 28q-1 15 8 26t25 13q15 1 26 -8t13 -24v0zM496 193v2q-6 32 -20 54q-13 23 -42 46q-28 22 -78 35q-15 4 -23 16q-7 12 -4 27q4 15 16 23
q12 7 27 4q66 -16 106 -48q40 -31 59 -66q20 -34 25 -58q5 -15 6 -28q1 -15 -8 -26t-25 -13q-15 -1 -26 8t-13 24v0zM536 113l3 -11l-3 11l3 -11l5 -17v0l34 10v0l-5 17v0l-3 10v0q23 12 36 35v0v0l17 -8v0l15 33v0l-17 7v0l-5 3v0v13q-2 18 -7 36q-1 1 -1 2l9 3v0l16 7v0
l-13 33v0l-17 -6v0l-7 -3v0q-7 16 -18 34l-2 4q-1 1 -2 3l11 9v0l14 11v0l-22 28v0l-14 -11v0l-10 -8v0q-16 18 -36 35l6 9v0l10 15v0l-30 20v0l-10 -15v0l-5 -7v0q-20 13 -45 24l4 8v0l7 17v0l-33 14v0l-8 -17v0l-4 -10v0q-13 4 -26 7q-12 3 -24 2l-3 6v0l-7 16v0l-33 -15
v0l8 -16v0v-1v0q-23 -12 -35 -36l-10 3v0l-17 5v0l-10 -34v0l17 -5v0l11 -3v0q-1 -27 13 -49l-8 -8v0l-12 -13v0l25 -25v0l13 12v0l8 8v0q12 -8 26 -11q9 -2 17 -4l-3 -11v0l-5 -17v0l34 -10v0l5 17v0l2 6v0q26 -17 36 -35l-8 -3v0l-17 -8v0l15 -33v0l16 7v0l10 5v0
q1 -5 2 -9q2 -20 12 -36l-8 -8v0l-12 -13v0l25 -25v0l13 12v0l8 8v0q21 -14 49 -13v0zM192 89q15 1 16 16q-1 15 -16 16q-15 -1 -16 -16q1 -15 16 -16v0zM96 201q1 -15 16 -16q15 1 16 16q-1 15 -16 16q-15 -1 -16 -16v0zM400 345q15 1 16 16q-1 15 -16 16q-15 -1 -16 -16
q1 -15 16 -16v0z" />
</svg>
