<?xml version="1.0" standalone="no"?>
<!DOCTYPE svg PUBLIC "-//W3C//DTD SVG 1.1//EN" "http://www.w3.org/Graphics/SVG/1.1/DTD/svg11.dtd" >
<svg xmlns="http://www.w3.org/2000/svg" xmlns:xlink="http://www.w3.org/1999/xlink" version="1.1" viewBox="-10 -40 660 512">
   <path fill="currentColor"
d="M48 -24l-19 -15l19 15l-19 -15l-29 38v0l19 15v0l573 444v0l19 15v0l29 -38v0l-19 -15v0l-118 -91v0h81h24v-48v0h-24h-142l-101 -78v0l35 -32v0l18 -17v0l-33 -35v0l-17 16v0l-41 38v0l-40 -30v0l75 -70v0h77v0l65 58v0l7 6v0h9h112v-48v0h-24h-79l-65 -58v0l-7 -6v0h-9
h-105l-7 7v0l-87 81v0l-32 -25v0l17 -15v0h15v0l48 -48v0h-73h-9l-7 7v0l-29 27v0l-107 -83v0zM384 360l-38 -30l38 30l-38 -30l-37 37v0l-21 -21v0l-17 -17v0l-17 17v0l-23 23v0l-21 -21v0l-17 -17v0l-7 -7v0l-52 -52v0l-7 -7v0h-10h-85v48v0h24h51l45 45v0l7 7v0l17 17v0
l38 38v0l17 17v0l17 -17v0l24 -23v0l21 21v0l17 17v0l17 -17v0l58 -58h-1zM102 137l-61 -48l61 48l-61 -48h-9v0v48v0h24h46z" />
</svg>
