<?xml version="1.0" standalone="no"?>
<!DOCTYPE svg PUBLIC "-//W3C//DTD SVG 1.1//EN" "http://www.w3.org/Graphics/SVG/1.1/DTD/svg11.dtd" >
<svg xmlns="http://www.w3.org/2000/svg" xmlns:xlink="http://www.w3.org/1999/xlink" version="1.1" viewBox="-10 -40 660 512">
   <path fill="currentColor"
d="M344 -15v120v-120v120h-48v0v-120v0v-24v0h48v0v24v0zM256 105v44v-44v44l-26 -26v0l-22 21v0v-39v0h-32v0q-30 43 -56 88q-29 49 -50 97q-21 49 -22 94q0 17 12 29t29 12q30 0 71 -13q14 -4 30 -9h3v0l38 38v0q-8 2 -17 5q-4 1 -7 2v0v0q-30 10 -59 17q-30 8 -59 8
q-38 -1 -63 -26t-26 -63q2 -56 26 -112q24 -55 52 -103q34 -58 74 -112h56h48v48v0zM433 448l-8 -2v0v0q-8 -3 -16 -5l39 -38v0h2v0q1 1 3 1q15 5 27 8q41 12 71 13q17 0 29 -12t12 -29q-1 -45 -22 -94q-21 -48 -50 -97q-26 -46 -56 -88h-32v0v39v0l-21 -21v0l-27 26v0v-44
v0v-48v0h48h56q40 54 74 112q28 48 52 103q24 56 26 112q-1 38 -26 63t-63 26q-29 0 -59 -8q-29 -7 -59 -17v0zM411 168l11 11l-11 -11l11 11l11 12v0l-11 11v0q-17 19 -8 40t34 23h16v0v16v0v16v0h-16v0q-25 2 -34 23t8 40l11 12v0l-11 11v0l-11 11v0l-12 -11v0
q-19 -17 -40 -8t-23 34v16v0h-16h-16v-16v0q-2 -25 -23 -34t-40 8l-11 11v0l-12 -11v0v0v0l-11 -11v0l11 -12v0q17 -19 8 -40t-34 -23h-16v0v-16v0v-16v0h16v0q25 -2 34 -23t-8 -40l-11 -11v0l11 -12v0v0v0l12 -11v0l11 11v0q19 17 40 8t23 -34v-16v0h16h16v16v0q2 25 23 34
t40 -8l12 -11v0zM296 281q22 -2 24 -24q-2 -22 -24 -24q-22 2 -24 24q2 22 24 24v0zM368 313q-1 -15 -16 -16q-15 1 -16 16q1 15 16 16q15 -1 16 -16v0z" />
</svg>
