<?xml version="1.0" standalone="no"?>
<!DOCTYPE svg PUBLIC "-//W3C//DTD SVG 1.1//EN" "http://www.w3.org/Graphics/SVG/1.1/DTD/svg11.dtd" >
<svg xmlns="http://www.w3.org/2000/svg" xmlns:xlink="http://www.w3.org/1999/xlink" version="1.1" viewBox="-10 -40 458 512">
   <path fill="currentColor"
d="M112 -39h24h-24h160v24v0v16v0h64h10l7 7v0l56 56v0l17 17v0l-34 34v0l-17 -17v0l-49 -49v0h-54v0v40v0h-48v0v-80v0h-64v0v80v0h-48v0v-104v0v-24v0zM80 473h-48h48h-48l3 -48v0l21 -304v0h272v0l21 304v0l3 48v0h-48h-224zM301 425l-18 -256l18 256l-18 -256h-182v0
l-18 256v0h218v0zM192 233l44 54l-44 -54l44 54q12 15 12 35q-1 23 -16 39q-16 16 -39 16h-2v0q-23 0 -39 -16t-16 -39q0 -20 12 -35l44 -54v0z" />
</svg>
