<?xml version="1.0" standalone="no"?>
<!DOCTYPE svg PUBLIC "-//W3C//DTD SVG 1.1//EN" "http://www.w3.org/Graphics/SVG/1.1/DTD/svg11.dtd" >
<svg xmlns="http://www.w3.org/2000/svg" xmlns:xlink="http://www.w3.org/1999/xlink" version="1.1" viewBox="-10 -40 660 512">
   <path fill="currentColor"
d="M516 9l69 128l-69 -128l69 128h-329v0l-141 -110v0l10 -18v0h391v0zM76 -3l-28 -21l28 21l-28 -21l-19 -15v0l-29 38v0l19 15v0l573 444v0l19 15v0l29 -38v0l-19 -15v0l-45 -35v0v-200v0h16h48v-48v0l-96 -176v0h-448v0l-20 36v0zM528 348l-210 -163l210 163l-210 -163
h210v0v163v0zM55 137l14 -26l-14 26l14 -26l-38 -30v0l-31 56v0v48v0h48h16v264v0v24v0h24h296v-24v0v-89v0l-100 -79v0h-172v0v-96v0h51v0l-61 -48v0h-47v0zM552 473v0v0v0v0v0v0v0zM112 425v-96v96v-96h224v0v96v0h-224v0z" />
</svg>
