<?xml version="1.0" standalone="no"?>
<!DOCTYPE svg PUBLIC "-//W3C//DTD SVG 1.1//EN" "http://www.w3.org/Graphics/SVG/1.1/DTD/svg11.dtd" >
<svg xmlns="http://www.w3.org/2000/svg" xmlns:xlink="http://www.w3.org/1999/xlink" version="1.1" viewBox="-10 -40 532 512">
   <path fill="currentColor"
d="M224 430q-3 -39 -35 -52v0v0q-31 -13 -61 12l-30 31v0l-46 -46v0l31 -30v0q25 -30 12 -61q-13 -32 -51 -35h-44v0v-64v0h44v0q38 -3 51 -35q13 -31 -12 -61l-31 -30v0l46 -46v0l30 31v0q30 25 61 12q32 -13 35 -51v-44v0h64v0v44v0q3 38 35 51q31 13 61 -12l30 -31v0
l46 46v0l-31 30v0q-25 30 -12 61q13 32 52 35h43v0v64v0h-43v0q-39 3 -52 35q-13 31 12 61l31 30v0l-46 46v0l-30 -31v0q-30 -25 -61 -12q-32 13 -35 52v43v0h-64v0v-43v0zM256 374q18 -28 48 -41v0v0q30 -12 63 -5q-7 -33 5 -63q13 -30 40 -48q-27 -18 -40 -48
q-12 -30 -5 -62q-33 6 -63 -6q-30 -13 -48 -40q-18 27 -48 40q-30 12 -63 6q7 32 -5 62q-13 30 -40 48q27 18 40 48q12 30 5 63q33 -7 63 5q30 13 48 41v0zM192 185q0 -14 9 -23v0v0q9 -9 23 -9t23 9t9 23t-9 23t-23 9t-23 -9t-9 -23v0zM280 265q2 -22 24 -24q22 2 24 24
q-2 22 -24 24q-22 -2 -24 -24v0z" />
</svg>
