<?xml version="1.0" standalone="no"?>
<!DOCTYPE svg PUBLIC "-//W3C//DTD SVG 1.1//EN" "http://www.w3.org/Graphics/SVG/1.1/DTD/svg11.dtd" >
<svg xmlns="http://www.w3.org/2000/svg" xmlns:xlink="http://www.w3.org/1999/xlink" version="1.1" viewBox="-10 -40 660 512">
   <path fill="currentColor"
d="M346 177q-28 2 -37 25v0v0q-9 22 9 43l27 27v0l-34 34v0l-27 -27v0v0v0q-21 -18 -43 -9q-23 9 -25 37v38v0h-48v0v-38v0q-2 -28 -25 -37q-22 -9 -43 9v0v0l-27 27v0l-34 -34v0l27 -27v0q18 -21 9 -43q-9 -23 -37 -25h-38v0v-48v0h38v0q27 -1 38 -22t-8 -44l-2 -2l-27 -27
v0l34 -34v0l27 27v0q21 18 43 9q23 -9 25 -37v-38v0h48v0v38v0q2 28 25 37q22 9 43 -9l27 -27v0l34 34v0l-27 27v0q-18 21 -9 43q9 23 37 25h38v0v48v0h-38v0zM285 153q-27 -28 -26 -67q-17 1 -33 -5q-19 -6 -34 -21q-27 26 -64 26q1 20 -8 39q-7 17 -21 29q27 27 26 66
q39 -1 67 26q28 -27 67 -26q-1 -39 26 -67v0zM176 113q22 2 24 24q-2 22 -24 24q-22 -2 -24 -24q2 -22 24 -24v0zM224 153q15 1 16 16q-1 15 -16 16q-15 -1 -16 -16q1 -15 16 -16v0zM609 239l-11 11l11 -11l-11 11q-17 19 -8 40t34 23h16v0v32v0h-16v0q-25 2 -34 23t8 40
l11 12v0l-22 22v0l-12 -11v0q-19 -17 -40 -8t-23 34v16v0h-32v0v-16v0q-2 -25 -23 -34t-40 8l-11 11v0l-23 -23v0l11 -11v0q17 -19 8 -40t-34 -23h-16v0v-32v0h16v0q25 -2 34 -23t-8 -40l-11 -11v0l23 -23v0l11 11v0q19 17 40 8t23 -34v-16v0h32v0v16v0q2 25 23 34t40 -8
l12 -11v0l22 23v0zM480 345q14 0 23 -9v0v0q9 -9 9 -23t-9 -23t-23 -9t-23 9t-9 23t9 23t23 9v0z" />
</svg>
