<?xml version="1.0" standalone="no"?>
<!DOCTYPE svg PUBLIC "-//W3C//DTD SVG 1.1//EN" "http://www.w3.org/Graphics/SVG/1.1/DTD/svg11.dtd" >
<svg xmlns="http://www.w3.org/2000/svg" xmlns:xlink="http://www.w3.org/1999/xlink" version="1.1" viewBox="-10 -40 394 512">
   <path fill="currentColor"
d="M176 57v-16v16v-16q1 -34 23 -57q23 -22 57 -23h16h16v16v0v16v0q-1 34 -23 57q-23 22 -57 23h-16h-16v-16v0zM80 89l112 32l-112 -32l112 32l112 -32v0q10 0 19 2q28 6 47 25q-21 13 -37 31q-43 49 -45 118q0 41 17 75q16 35 45 59q7 6 15 12q-16 20 -34 34
q-36 27 -75 28l-64 -16v0l-64 16v0q-39 -1 -75 -28q-18 -14 -34 -35q8 -5 15 -11q29 -24 45 -59q17 -34 17 -75q-2 -69 -45 -117q-16 -19 -37 -32q19 -19 47 -25q9 -2 19 -2v0zM205 167l-13 4l13 -4l-13 4l-13 -4v0l-68 -19v0q32 52 33 117q-2 86 -55 147q18 11 34 13
l57 -14v0l12 -3v0l12 3v0l57 14v0q16 -1 34 -13q-53 -61 -55 -147q1 -65 33 -117l-68 19v0z" />
</svg>
