<?xml version="1.0" standalone="no"?>
<!DOCTYPE svg PUBLIC "-//W3C//DTD SVG 1.1//EN" "http://www.w3.org/Graphics/SVG/1.1/DTD/svg11.dtd" >
<svg xmlns="http://www.w3.org/2000/svg" xmlns:xlink="http://www.w3.org/1999/xlink" version="1.1" viewBox="-10 -40 468 512">
   <path fill="currentColor"
d="M64 377v64v-64v64h-64v0v-64v0h64v0zM160 377v64v-64v64h-64v0v-64v0h64v0zM192 377h64h-64h64v64v0h-64v0v-64v0zM352 377v64v-64v64h-64v0v-64v0h64v0zM384 377h64h-64h64v64v0h-64v0v-64v0zM242 321l-18 19l18 -19l-18 19l-17 -19v0l-128 -136v0l-17 -17v0l35 -33v0
l17 18v0l86 92v0v-84v0v-128v0v-24v0h48v0v24v0v128v0v84v0l87 -92v0l16 -18v0l35 33v0l-16 18v0l-128 136v-1z" />
</svg>
