<?xml version="1.0" standalone="no"?>
<!DOCTYPE svg PUBLIC "-//W3C//DTD SVG 1.1//EN" "http://www.w3.org/Graphics/SVG/1.1/DTD/svg11.dtd" >
<svg xmlns="http://www.w3.org/2000/svg" xmlns:xlink="http://www.w3.org/1999/xlink" version="1.1" viewBox="-10 -40 596 512">
   <path fill="currentColor"
d="M352 57h24h-24h224v24v0v176v0v24v0h-48v0v-24v0v-118v0l-191 191v0l-17 17v0l-17 -17v0l-111 -111v0l-140 140v0l-17 17v0l-34 -34v0l17 -17v0l157 -157v0l17 -17v0l17 17v0l111 111v0l174 -174v0h-118h-24v-48v0z" />
</svg>
