<?xml version="1.0" standalone="no"?>
<!DOCTYPE svg PUBLIC "-//W3C//DTD SVG 1.1//EN" "http://www.w3.org/Graphics/SVG/1.1/DTD/svg11.dtd" >
<svg xmlns="http://www.w3.org/2000/svg" xmlns:xlink="http://www.w3.org/1999/xlink" version="1.1" viewBox="-10 -40 468 512">
   <path fill="currentColor"
d="M241 -21l-17 -17l17 17l-17 -17l-17 17v0l-128 128v0l-17 17v0l34 34v0l17 -17v0l87 -87v0v235v0v24v0h48v0v-24v0v-235v0l87 87v0l17 17v0l34 -34v0l-17 -17v0l-128 -128v0zM48 305v-24v24v-24h-48v0v24v0v144v0v24v0h24h424v-24v0v-144v0v-24v0h-48v0v24v0v120v0h-352
v0v-120v0z" />
</svg>
