<?xml version="1.0" standalone="no"?>
<!DOCTYPE svg PUBLIC "-//W3C//DTD SVG 1.1//EN" "http://www.w3.org/Graphics/SVG/1.1/DTD/svg11.dtd" >
<svg xmlns="http://www.w3.org/2000/svg" xmlns:xlink="http://www.w3.org/1999/xlink" version="1.1" viewBox="-10 -40 468 512">
   <path fill="currentColor"
d="M64 57v-64v64v-64h-64v0v64v0h64v0zM160 57v-64v64v-64h-64v0v64v0h64v0zM192 57h64h-64h64v-64v0h-64v0v64v0zM352 57v-64v64v-64h-64v0v64v0h64v0zM384 57h64h-64h64v-64v0h-64v0v64v0zM242 113l-18 -19l18 19l-18 -19l-17 19v0l-128 136v0l-17 17v0l35 33v0l17 -18v0
l86 -91v0v83v0v128v0v24v0h48v0v-24v0v-128v0v-83v0l87 91v0l16 18v0l35 -33v0l-16 -17v0l-128 -136v0z" />
</svg>
