<?xml version="1.0" standalone="no"?>
<!DOCTYPE svg PUBLIC "-//W3C//DTD SVG 1.1//EN" "http://www.w3.org/Graphics/SVG/1.1/DTD/svg11.dtd" >
<svg xmlns="http://www.w3.org/2000/svg" xmlns:xlink="http://www.w3.org/1999/xlink" version="1.1" viewBox="-10 -40 468 512">
   <path fill="currentColor"
d="M241 -21l-17 -17l17 17l-17 -17l-17 17v0l-64 64v0l-17 17v0l34 34v0l17 -17v0l23 -23v0v75v0v24v0h48v0v-24v0v-75v0l23 23v0l17 17v0l34 -34v0l-17 -17v0l-64 -64v0zM248 305v-24v24v-24h-48v0v24v0v75v0l-23 -23v0l-17 -17v0l-34 34v0l17 17v0l64 64v0l17 17v0l17 -17
v0l64 -64v0l17 -17v0l-34 -34v0l-17 17v0l-23 23v0v-75v0zM24 193h-24h24h-24v48v0h24h424v-48v0h-24h-400z" />
</svg>
