<?xml version="1.0" standalone="no"?>
<!DOCTYPE svg PUBLIC "-//W3C//DTD SVG 1.1//EN" "http://www.w3.org/Graphics/SVG/1.1/DTD/svg11.dtd" >
<svg xmlns="http://www.w3.org/2000/svg" xmlns:xlink="http://www.w3.org/1999/xlink" version="1.1" viewBox="-10 -40 468 512">
   <path fill="currentColor"
d="M224 163l17 -17l-17 17l17 -17l72 -72v0l17 -17v0l-34 -34v0l-17 17v0l-31 31v0v-86v0v-24v0h-48v0v24v0v86v0l-31 -31v0l-17 -17v0l-34 34v0l17 17v0l72 72v0l17 17v0zM0 185v64v-64v64h64v0v-64v0h-64v0zM96 185v64v-64v64h64v0v-64v0h-64v0zM192 185v64v-64v64h64v0
v-64v0h-64v0zM288 185v64v-64v64h64v0v-64v0h-64v0zM448 185h-64h64h-64v64v0h64v0v-64v0zM241 288l-17 -17l17 17l-17 -17l-17 17v0l-72 72v0l-17 17v0l34 34v0l17 -17v0l31 -31v0v86v0v24v0h48v0v-24v0v-86v0l31 31v0l17 17v0l34 -34v0l-17 -17v0l-72 -72v0z" />
</svg>
