<?xml version="1.0" standalone="no"?>
<!DOCTYPE svg PUBLIC "-//W3C//DTD SVG 1.1//EN" "http://www.w3.org/Graphics/SVG/1.1/DTD/svg11.dtd" >
<svg xmlns="http://www.w3.org/2000/svg" xmlns:xlink="http://www.w3.org/1999/xlink" version="1.1" viewBox="-10 -40 468 512">
   <path fill="currentColor"
d="M200 -7h16h-16h48l6 15v0l70 177v0h100h24v48v0h-24h-81l19 48v0h62h24v48v0h-24h-43l41 103v0l4 9v0h-52v0l-44 -112v0h-212v0l-44 112v0h-52v0l4 -9v0l41 -103v0h-43h-24v-48v0h24h62l19 -48v0h-81h-24v-48v0h24h100l70 -177v0l6 -15v0zM224 62l-49 123l49 -123
l-49 123h98v0l-49 -123v0zM137 281h174h-174h174l-19 -48v0h-136v0l-19 48v0z" />
</svg>
