<?xml version="1.0" standalone="no"?>
<!DOCTYPE svg PUBLIC "-//W3C//DTD SVG 1.1//EN" "http://www.w3.org/Graphics/SVG/1.1/DTD/svg11.dtd" >
<svg xmlns="http://www.w3.org/2000/svg" xmlns:xlink="http://www.w3.org/1999/xlink" version="1.1" viewBox="-10 -40 404 512">
   <path fill="currentColor"
d="M235 57l10 -48l-10 48l10 -48l11 -48v0h-49h-175l-27 240v0l-5 48v0h48h128l-10 48v0l-17 76v0l-21 100v0l66 -78v0l190 -226v0v-16v0v-48v0h-48h-112l11 -48v0zM335 153l-120 142l120 -142l-120 142l8 -36v0l12 -58v0h-59h-122l21 -192v0h121v0l-19 86v0l-13 58v0h60
h111z" />
</svg>
