<?xml version="1.0" standalone="no"?>
<!DOCTYPE svg PUBLIC "-//W3C//DTD SVG 1.1//EN" "http://www.w3.org/Graphics/SVG/1.1/DTD/svg11.dtd" >
<svg xmlns="http://www.w3.org/2000/svg" xmlns:xlink="http://www.w3.org/1999/xlink" version="1.1" viewBox="-10 -40 660 512">
   <path fill="currentColor"
d="M460 296l84 -63l-84 63l84 -63v-48v0l-68 -9v0l-48 -6v0l12 -47v0l22 -88v0l18 -74v0l-61 46v0l-168 126v0l-203 -157v0l-19 -15v0l-29 38v0l19 15v0l573 444v0l19 15v0l29 -38v0l-19 -15v0l-161 -124v0zM290 163l111 -83l-111 83l111 -83l-20 78v0l-13 52v0l54 7v0l54 7
v0l-55 41v0l-131 -101v-1zM380 356l-39 -30l39 30l-39 -30l-38 28v0l12 -48v0l-41 -33v0l-10 38v0l-22 88v0l-18 74v0l61 -46v0l95 -71v0zM172 192l-12 9l12 -9l-12 9v48v0l68 9v0l33 4v0l-89 -70v0z" />
</svg>
