<?xml version="1.0" standalone="no"?>
<!DOCTYPE svg PUBLIC "-//W3C//DTD SVG 1.1//EN" "http://www.w3.org/Graphics/SVG/1.1/DTD/svg11.dtd" >
<svg xmlns="http://www.w3.org/2000/svg" xmlns:xlink="http://www.w3.org/1999/xlink" version="1.1" viewBox="-10 -40 660 512">
   <path fill="currentColor"
d="M88 -39q-37 1 -62 26v0v0q-25 25 -26 62v336v0v0v0v8q1 34 23 57q23 22 57 23h315v0q-28 -20 -46 -48h-269v0q-14 0 -23 -9t-9 -23t9 -23t23 -9h243v0q-3 -16 -3 -32q0 -8 1 -16h-241v0q-17 0 -32 7v-271v0q0 -17 12 -28q11 -12 28 -12h312v0v173v0q22 -15 48 -22v-175v0
v-24v0h-24h-336zM496 185q-39 0 -72 19v0v0q-33 19 -53 53q-19 34 -19 72t19 72q20 34 53 53t72 19t72 -19t53 -53q19 -34 19 -72t-19 -72q-20 -34 -53 -53t-72 -19v0zM417 321l12 -11l-12 11l12 -11l56 -56v0l11 -12v0l11 12v0l56 56v0l12 11v0l-23 23v0l-11 -12v0l-29 -28
v0v89v0v16v0h-32v0v-16v0v-89v0l-29 28v0l-11 12v0l-23 -23v0z" />
</svg>
