<?xml version="1.0" standalone="no"?>
<!DOCTYPE svg PUBLIC "-//W3C//DTD SVG 1.1//EN" "http://www.w3.org/Graphics/SVG/1.1/DTD/svg11.dtd" >
<svg xmlns="http://www.w3.org/2000/svg" xmlns:xlink="http://www.w3.org/1999/xlink" version="1.1" viewBox="-10 -40 468 512">
   <path fill="currentColor"
d="M0 49q1 -37 26 -62v0v0q25 -25 62 -26h336h24v24v0v352v0v24v0h-24h-8v64v0h8h24v48v0h-24h-344q-34 -1 -57 -23q-22 -23 -23 -57v-8v0v0v-336v0zM80 361q-14 0 -23 9v0v0q-9 9 -9 23t9 23t23 9h288v0v-64v0h-288v0zM48 320q15 -7 32 -7h320v0v-304v0h-312v0
q-17 0 -28 12q-12 11 -12 28v271v0zM232 209l-7 -2l7 2l-7 -2q-18 -3 -39 -16q-21 -12 -17 -43q3 -15 16 -25q-20 -13 -16 -42q5 -23 27 -33q21 -10 55 -6q11 2 28 7l-9 29v0q-14 -5 -23 -6q-42 -5 -49 15q-2 6 4 12q6 5 30 12l7 2v0v0v0v0q23 4 45 17q22 12 18 43
q-3 16 -16 26q20 13 16 42q-9 39 -63 40q-9 0 -19 -2q-19 -3 -36 -9l-5 -2v0l9 -28v0l5 1v0q16 6 31 9q42 4 49 -15q2 -9 -7 -14q-8 -6 -34 -12v0zM232 142q-1 -1 -5 -2v0v0q-4 -1 -5 -1q-7 1 -14 4q-8 3 -10 11q-2 6 4 12t30 12q1 0 7 2q7 2 10 3q7 -1 14 -4q8 -4 10 -11
q2 -9 -7 -15q-8 -5 -34 -11v0z" />
</svg>
