<?xml version="1.0" standalone="no"?>
<!DOCTYPE svg PUBLIC "-//W3C//DTD SVG 1.1//EN" "http://www.w3.org/Graphics/SVG/1.1/DTD/svg11.dtd" >
<svg xmlns="http://www.w3.org/2000/svg" xmlns:xlink="http://www.w3.org/1999/xlink" version="1.1" viewBox="-10 -40 597 512">
   <path fill="currentColor"
d="M436 190l5 -21l-5 21l5 -21h46v0l41 159v0l-28 97v0h-72v0l-12 -41v0q-15 27 -36 48l12 41v0h144v0l41 -144v0l-49 -192v0q2 -7 3 -13q1 -3 2 -7v0v0v0v0v-1q10 -34 11 -73v-2v0q-1 -34 -23 -57q-23 -22 -57 -23q-34 1 -57 23q-22 23 -23 57v2v0q1 39 10 71q28 34 42 76
v0zM487 103q-2 8 -5 18h-36v0q-2 -7 -4 -13q0 -3 -1 -5v0q-4 -17 -7 -30q-2 -14 -2 -30v-2v0q0 -14 9 -23t23 -9t23 9t9 23v2v0q0 16 -2 30q-3 13 -7 30v0v0v0v0zM208 105q43 0 80 21v0v0q37 22 59 59q21 38 21 80t-21 80q-22 37 -59 59q-37 21 -80 21t-80 -21
q-37 -22 -59 -59q-21 -38 -21 -80t21 -80q22 -37 59 -59q37 -21 80 -21v0zM208 473q57 0 104 -28v0v0q47 -27 76 -76q28 -49 28 -104t-28 -104q-29 -49 -76 -76q-47 -28 -104 -28t-104 28q-47 27 -76 76q-28 49 -28 104t28 104q29 49 76 76q47 28 104 28v0zM224 157
q0 -12 -8 -20v0v0q-8 -8 -20 -8t-20 8t-8 20t8 20t20 8t20 -8t8 -20v0zM224 245q0 -12 -8 -20v0v0q-8 -8 -20 -8t-20 8t-8 20t8 20t20 8t20 -8t8 -20v0zM124 233q12 0 20 -8v0v0q8 -8 8 -20t-8 -20t-20 -8t-20 8t-8 20t8 20t20 8v0z" />
</svg>
