<?xml version="1.0" standalone="no"?>
<!DOCTYPE svg PUBLIC "-//W3C//DTD SVG 1.1//EN" "http://www.w3.org/Graphics/SVG/1.1/DTD/svg11.dtd" >
<svg xmlns="http://www.w3.org/2000/svg" xmlns:xlink="http://www.w3.org/1999/xlink" version="1.1" viewBox="-10 -40 532 512">
   <path fill="currentColor"
d="M232 -39h48h-48h88q28 0 49 15q21 14 32 38q38 23 46 68q39 28 41 79q0 12 -3 23q26 30 27 73q-1 47 -32 78v1v0v1v0q-1 36 -23 62t-56 33q-27 39 -77 41h-44h-92q-50 -2 -77 -41q-34 -7 -56 -33t-23 -62v-1v-1q-31 -31 -32 -78q1 -43 27 -73q-3 -11 -3 -23q2 -51 41 -79
q8 -45 46 -68q11 -24 32 -38q21 -15 49 -15h40v0zM152 50q-33 7 -40 41v6q0 9 3 16q-12 2 -21 8q-19 12 -22 35v5q1 23 17 37q-24 9 -35 33q-6 12 -6 26q2 38 33 56l4 2q-1 2 -1 4q-4 8 -4 18q0 17 10 29q9 12 25 17q6 2 13 2q8 0 16 -3q1 15 9 26q12 15 31 17h4h44v0v-40v0
v-4v0v-4v0v-128v0h-56v0v27v0q23 11 24 37q0 17 -12 28q-11 12 -28 12t-28 -12q-12 -11 -12 -28q1 -26 24 -37v-43v0v-16v0h16h72v-96v0h-19v0q-11 23 -37 24q-17 0 -28 -12q-12 -11 -12 -28t12 -28q11 -12 28 -12q26 1 37 24h19v0v-32v0v-8v0v-40v0h-40v0q-4 0 -8 1
q-30 8 -32 39v1v0zM176 89q-15 1 -16 16q1 15 16 16q15 -1 16 -16q-1 -15 -16 -16v0zM359 408q8 -11 9 -26q8 3 16 3q7 0 13 -2q33 -11 35 -46q0 -10 -4 -18q0 -2 -1 -4v0l4 -2q31 -18 33 -56q0 -14 -6 -27q-11 -23 -35 -33q16 -14 17 -36v-6q-3 -22 -21 -34q-10 -6 -22 -8
q3 -8 3 -16v-6q-7 -34 -40 -41v-1v0q-2 -32 -32 -39q-4 -1 -8 -1h-40v0v40v0v8v0v32v0h72h16v16v0v43v0q23 11 24 37q0 17 -12 28q-11 12 -28 12t-28 -12q-12 -11 -12 -28q1 -26 24 -37v-27v0h-56v0v160v0h51v0q11 -23 37 -24q17 0 28 12q12 11 12 28t-12 28q-11 12 -28 12
q-26 -1 -37 -24h-51v0v64v0v4v0v4v0v40v0h44v0h4q19 -2 31 -17v0zM176 313q-1 -15 -16 -16q-15 1 -16 16q1 15 16 16q15 -1 16 -16v0zM352 169q-15 1 -16 16q1 15 16 16q15 -1 16 -16q-1 -15 -16 -16v0zM384 297q-1 -15 -16 -16q-15 1 -16 16q1 15 16 16q15 -1 16 -16v0z
" />
</svg>
