<?xml version="1.0" standalone="no"?>
<!DOCTYPE svg PUBLIC "-//W3C//DTD SVG 1.1//EN" "http://www.w3.org/Graphics/SVG/1.1/DTD/svg11.dtd" >
<svg xmlns="http://www.w3.org/2000/svg" xmlns:xlink="http://www.w3.org/1999/xlink" version="1.1" viewBox="-10 -40 468 512">
   <path fill="currentColor"
d="M152 -15v-24v24v-24h-48v0v24v0v40v0h-104v0v80v0v48v0v272v0v48v0h48h400v-48v0v-272v0v-48v0v-80v0h-104v0v-40v0v-24v0h-48v0v24v0v40v0h-144v0v-40v0zM48 153h352h-352h352v272v0h-352v0v-272v0zM160 273l-80 104l80 -104l-80 104h288v0l-112 -176v0l-72 104v0
l-24 -32v0zM128 249q14 0 23 -9v0v0q9 -9 9 -23t-9 -23t-23 -9t-23 9t-9 23t9 23t23 9v0z" />
</svg>
