<?xml version="1.0" standalone="no"?>
<!DOCTYPE svg PUBLIC "-//W3C//DTD SVG 1.1//EN" "http://www.w3.org/Graphics/SVG/1.1/DTD/svg11.dtd" >
<svg xmlns="http://www.w3.org/2000/svg" xmlns:xlink="http://www.w3.org/1999/xlink" version="1.1" viewBox="-10 -40 532 512">
   <path fill="currentColor"
d="M288 -7v24v-24v24v8v0h176h48v48v0v64v0v48v0h-48h-176v8v0v24v0h-48v0v-24v0v-8v0h-192h-48v-48v0v-64v0v-48v0h48h192v-8v0v-24v0h48v0zM160 73v64v-64v64h80v0v-64v0h-80v0zM288 73v64v-64v64h176v0v-64v0h-176v0zM112 73h-64h64h-64v64v0h64v0v-64v0zM384 217v24v-24
v24v8v0h80h48v48v0v64v0v48v0h-48h-80v8v0v24v0h-48v0v-24v0v-8v0h-288h-48v-48v0v-64v0v-48v0h48h288v-8v0v-24v0h48v0zM224 297v64v-64v64h112v0v-64v0h-112v0zM384 297v64v-64v64h80v0v-64v0h-80v0zM176 297h-128h128h-128v64v0h128v0v-64v0z" />
</svg>
