<?xml version="1.0" standalone="no"?>
<!DOCTYPE svg PUBLIC "-//W3C//DTD SVG 1.1//EN" "http://www.w3.org/Graphics/SVG/1.1/DTD/svg11.dtd" >
<svg xmlns="http://www.w3.org/2000/svg" xmlns:xlink="http://www.w3.org/1999/xlink" version="1.1" viewBox="-10 -40 660 512">
   <path fill="currentColor"
d="M288 1l13 -20l-13 20l13 -20l-32 -20v0l-5 37v0v0v0v0v0v0v0v0v0v0v0v1v0v3l-1 1q-1 5 -2 13q-4 19 -16 51q-19 60 -76 136q-26 -15 -73 -18q-2 -1 -25 4t-46 29t-25 79q2 71 39 110q37 38 82 52q45 15 71 14q26 1 71 -10t82 -49t39 -117q-2 -55 -25 -79t-46 -29t-25 -4
q-31 1 -53 10q39 -63 56 -112q8 -23 13 -41q18 14 41 38q22 23 41 53q20 30 31 66q-18 -8 -44 -12q25 21 37 63l4 2h1l2 2q1 0 1 1v0v0l30 24v0l30 -24v0v0v0q0 -1 1 -1l2 -2q5 -3 15 -7q19 -11 48 -12v0v0q2 0 6 1q8 1 18 7q7 3 15 15t9 41q-1 46 -16 70q-16 25 -38 36
q-24 13 -49 18q-25 4 -41 4q-21 1 -62 -13q-14 22 -32 38q28 13 53 18t41 5q26 1 71 -10t82 -49t39 -117q-2 -55 -25 -79t-46 -29t-25 -4q-24 0 -44 6q-19 6 -32 14q-12 -51 -37 -91q-24 -40 -52 -68q-31 -31 -54 -48q-11 -8 -17 -13q-3 -1 -4 -2l-1 -1l-1 -1h-1v0v0v0v0v0
v0v0v0q0 -1 -2 2t-11 18v0zM287 233h1q2 0 6 1q8 1 18 7q7 3 15 15t9 41q-1 46 -17 70q-15 25 -37 36q-24 13 -49 18q-25 4 -41 4q-13 0 -38 -6t-51 -21q-23 -14 -39 -38q-15 -24 -16 -63q1 -29 9 -41t15 -15q10 -6 18 -7q4 -1 6 -1h1q28 1 48 11q9 5 14 8l2 2h1v1v0l30 24
v0l30 -24v0v0v0q0 -1 1 -1l2 -2q5 -3 14 -7q20 -11 49 -12h-1z" />
</svg>
