<?xml version="1.0" standalone="no"?>
<!DOCTYPE svg PUBLIC "-//W3C//DTD SVG 1.1//EN" "http://www.w3.org/Graphics/SVG/1.1/DTD/svg11.dtd" >
<svg xmlns="http://www.w3.org/2000/svg" xmlns:xlink="http://www.w3.org/1999/xlink" version="1.1" viewBox="-10 -40 532 512">
   <path fill="currentColor"
d="M256 9q57 0 104 28v0v0q47 27 76 76q28 49 28 104t-28 104q-29 49 -76 76q-47 28 -104 28t-104 -28q-47 -27 -76 -76q-28 -49 -28 -104t28 -104q29 -49 76 -76q47 -28 104 -28v0zM256 473q70 -1 128 -34v0v0q58 -34 94 -94q34 -61 34 -128t-34 -128q-36 -60 -94 -94
q-58 -33 -128 -34q-70 1 -128 34q-58 34 -94 94q-34 61 -34 128t34 128q36 60 94 94q58 33 128 34v0zM194 108l-16 12l16 -12l-16 12l-20 14v0l30 39v0l19 -15v0l16 -12v0q11 -9 25 -9l3 1v0q16 0 26 11q11 10 11 26t-12 27l-108 102v0l-8 7v0v34v0h24h168v-48v0h-24h-83
l64 -60v0q26 -26 27 -62q-1 -36 -24 -60q-24 -24 -60 -26h-3v0q-31 0 -55 18v1z" />
</svg>
