<?xml version="1.0" standalone="no"?>
<!DOCTYPE svg PUBLIC "-//W3C//DTD SVG 1.1//EN" "http://www.w3.org/Graphics/SVG/1.1/DTD/svg11.dtd" >
<svg xmlns="http://www.w3.org/2000/svg" xmlns:xlink="http://www.w3.org/1999/xlink" version="1.1" viewBox="-10 -40 532 512">
   <path fill="currentColor"
d="M464 217q0 -57 -28 -104v0v0q-27 -47 -76 -76q-49 -28 -104 -28t-104 28q-49 29 -76 76q-28 47 -28 104t28 104q27 47 76 76q49 28 104 28t104 -28q49 -29 76 -76q28 -47 28 -104v0zM0 217q1 -70 34 -128v0v0q34 -58 94 -94q61 -34 128 -34t128 34q60 36 94 94
q33 58 34 128q-1 70 -34 128q-34 58 -94 94q-61 34 -128 34t-128 -34q-60 -36 -94 -94q-33 -58 -34 -128v0zM256 297q27 -1 42 -24q12 -24 0 -48q-15 -23 -42 -24q-27 1 -42 24q-12 24 0 48q15 23 42 24v0zM160 249q1 -49 33 -86l68 -74v0h66v0l-15 16v0l-45 49v0
q37 5 61 31q23 26 24 64q-1 41 -28 68t-68 28q-41 -1 -68 -28t-28 -68v0z" />
</svg>
