<?xml version="1.0" standalone="no"?>
<!DOCTYPE svg PUBLIC "-//W3C//DTD SVG 1.1//EN" "http://www.w3.org/Graphics/SVG/1.1/DTD/svg11.dtd" >
<svg xmlns="http://www.w3.org/2000/svg" xmlns:xlink="http://www.w3.org/1999/xlink" version="1.1" viewBox="-10 -40 654 512">
   <path fill="currentColor"
d="M48 217q2 -88 61 -147v0v0q59 -59 147 -61q64 1 114 34t75 88l44 -20v0q-31 -67 -93 -108q-61 -41 -140 -42q-72 1 -129 35q-58 34 -92 92q-34 57 -35 129q1 72 35 129q34 58 92 92q57 34 129 35q55 0 103 -21q47 -21 82 -58l-34 -33v0q-29 30 -68 47q-38 17 -83 17
q-88 -2 -147 -61t-61 -147v0zM280 113v-24v24v-24h-48v0v24v0v112v0v24v0h48v0v-24v0v-112v0zM280 329v-48v48v-48h-48v0v48v0h48v0zM634 153l-34 -34l34 34l-34 -34l-17 17v0l-111 111v0l-47 -47v0l-17 -17v0l-34 34v0l17 17v0l64 64v0l17 17v0l17 -17v0l128 -128v0l17 -17
v0z" />
</svg>
