<?xml version="1.0" standalone="no"?>
<!DOCTYPE svg PUBLIC "-//W3C//DTD SVG 1.1//EN" "http://www.w3.org/Graphics/SVG/1.1/DTD/svg11.dtd" >
<svg xmlns="http://www.w3.org/2000/svg" xmlns:xlink="http://www.w3.org/1999/xlink" version="1.1" viewBox="-10 -40 532 512">
   <path fill="currentColor"
d="M256 9q57 0 104 28v0v0q47 27 76 76q28 49 28 104t-28 104q-29 49 -76 76q-47 28 -104 28t-104 -28q-47 -27 -76 -76q-28 -49 -28 -104t28 -104q29 -49 76 -76q47 -28 104 -28v0zM256 473q70 -1 128 -34v0v0q58 -34 94 -94q34 -61 34 -128t-34 -128q-36 -60 -94 -94
q-58 -33 -128 -34q-70 1 -128 34q-58 34 -94 94q-34 61 -34 128t34 128q36 60 94 94q58 33 128 34v0zM256 137q34 1 57 23v0v0q22 23 23 57q0 19 -8 35l-28 -35v0h-62v0l56 70v0q-17 10 -38 10q-34 -1 -57 -23q-22 -23 -23 -57q1 -34 23 -57q23 -22 57 -23v0zM256 345
q38 0 69 -20l16 20v0h61v0l-42 -53v0q23 -32 24 -75q-1 -54 -37 -91q-37 -36 -91 -37q-54 1 -91 37q-36 37 -37 91q1 54 37 91q37 36 91 37v0z" />
</svg>
