<?xml version="1.0" standalone="no"?>
<!DOCTYPE svg PUBLIC "-//W3C//DTD SVG 1.1//EN" "http://www.w3.org/Graphics/SVG/1.1/DTD/svg11.dtd" >
<svg xmlns="http://www.w3.org/2000/svg" xmlns:xlink="http://www.w3.org/1999/xlink" version="1.1" viewBox="-10 -40 660 512">
   <path fill="currentColor"
d="M211 52q8 -40 39 -65v0v0q30 -25 71 -26q47 1 78 33q32 31 33 78v3v0q-1 58 -47 92l-23 17v0l267 181v0l11 7v0v13v0v64v0v24v0h-24h-616v-24v0v-64v0v-13v0l11 -7v0l295 -200v0l51 -36v0q26 -21 27 -54v-3v0q-1 -27 -19 -44q-17 -18 -44 -19q-24 0 -41 15q-17 14 -21 37
l-3 16v0l-5 24v0l-47 -9v0l4 -23v0l3 -17v0zM320 214l-272 184l272 -184l-272 184v27v0h544v0v-27v0l-272 -184v0z" />
</svg>
