<?xml version="1.0" standalone="no"?>
<!DOCTYPE svg PUBLIC "-//W3C//DTD SVG 1.1//EN" "http://www.w3.org/Graphics/SVG/1.1/DTD/svg11.dtd" >
<svg xmlns="http://www.w3.org/2000/svg" xmlns:xlink="http://www.w3.org/1999/xlink" version="1.1" viewBox="-10 -40 468 512">
   <path fill="currentColor"
d="M277 -7h-21h21h-31l-7 7v0l-15 15v0l-15 -15v0l-7 -7v0h-10h-21q-32 1 -53 22t-22 53q0 13 5 26q-13 -5 -26 -5q-32 1 -53 22t-22 53v21v0v10v0l7 7v0l15 15v0l-15 15v0l-7 7v0v10v0v21v0q1 32 22 53t53 22q13 0 26 -5q-5 13 -5 26q1 32 22 53t53 22h21h10l7 -7v0l15 -15
v0l15 15v0l7 7v0h10h21q32 -1 53 -22t22 -53q0 -13 -5 -26q13 5 26 5q32 -1 53 -22t22 -53v-21v0v-10v0l-7 -7v0l-15 -15v0l15 -15v0l7 -7v0v-10v0v-21v0q-1 -32 -22 -53t-53 -22q-13 0 -26 5q5 -13 5 -26q-1 -32 -22 -53t-53 -22v0zM241 66l25 -25l-25 25l25 -25h11v0
q12 0 19 8q8 7 8 19q0 7 -3 13l-34 60v0l-14 25v0l22 22v0l25 -14v0l60 -34v0q6 -3 13 -3q12 0 19 8q8 7 8 19v11v0l-25 25v0l-17 17v0l17 17v0l25 25v0v11v0q0 12 -8 19q-7 8 -19 8q-7 0 -13 -3l-60 -34v0l-25 -14v0l-22 22v0l14 25v0l34 60v0q3 6 3 13q0 12 -8 19
q-7 8 -19 8h-11v0l-25 -25v0l-17 -17v0l-17 17v0l-25 25v0h-11v0q-12 0 -19 -8q-8 -7 -8 -19q0 -7 3 -13l34 -60v0l14 -25v0l-22 -22v0l-25 14v0l-60 34v0q-6 3 -13 3q-25 -2 -27 -27v-11v0l25 -25v0l17 -17v0l-17 -17v0l-25 -25v0v-11v0q0 -12 8 -19q7 -8 19 -8q7 0 13 3
l60 34v0l25 14v0l22 -22v0l-14 -25v0l-34 -60v0q-3 -6 -3 -13q0 -12 8 -19q7 -8 19 -8h11v0l25 25v0l17 17v0l17 -17v0z" />
</svg>
