<?xml version="1.0" standalone="no"?>
<!DOCTYPE svg PUBLIC "-//W3C//DTD SVG 1.1//EN" "http://www.w3.org/Graphics/SVG/1.1/DTD/svg11.dtd" >
<svg xmlns="http://www.w3.org/2000/svg" xmlns:xlink="http://www.w3.org/1999/xlink" version="1.1" viewBox="-10 -40 660 512">
   <path fill="currentColor"
d="M112 297q-27 1 -45 19v0v0q-18 18 -19 45q1 27 19 45t45 19h416v0q27 -1 45 -19t19 -45q-1 -27 -19 -45t-45 -19h-416v0zM0 361q1 -48 33 -79v0v0q31 -32 79 -33h416v0q48 1 79 33q32 31 33 79q-1 48 -33 79q-31 32 -79 33h-416v0q-48 -1 -79 -33q-32 -31 -33 -79v0z
M128 329q14 0 23 9v0v0q9 9 9 23t-9 23t-23 9t-23 -9t-9 -23t9 -23t23 -9v0zM288 361q0 -14 9 -23v0v0q9 -9 23 -9t23 9t9 23t-9 23t-23 9t-23 -9t-9 -23v0zM512 329q14 0 23 9v0v0q9 9 9 23t-9 23t-23 9t-23 -9t-9 -23t9 -23t23 -9v0z" />
</svg>
