<?xml version="1.0" standalone="no"?>
<!DOCTYPE svg PUBLIC "-//W3C//DTD SVG 1.1//EN" "http://www.w3.org/Graphics/SVG/1.1/DTD/svg11.dtd" >
<svg xmlns="http://www.w3.org/2000/svg" xmlns:xlink="http://www.w3.org/1999/xlink" version="1.1" viewBox="-10 -40 596 512">
   <path fill="currentColor"
d="M0 409h48h-48h400l176 -192v0l-176 -192v0h-352h-48v48v0v288v0v48v0zM511 217l-132 144l132 -144l-132 144h-331v0v-288v0h331v0l132 144v0zM322 153l-34 -34l34 34l-34 -34l-17 17v0l-47 47v0l-47 -47v0l-17 -17v0l-34 34v0l17 17v0l47 47v0l-47 47v0l-17 17v0l34 34v0
l17 -17v0l47 -47v0l47 47v0l17 17v0l34 -34v0l-17 -17v0l-47 -47v0l47 -47v0l17 -17v0z" />
</svg>
