<?xml version="1.0" standalone="no"?>
<!DOCTYPE svg PUBLIC "-//W3C//DTD SVG 1.1//EN" "http://www.w3.org/Graphics/SVG/1.1/DTD/svg11.dtd" >
<svg xmlns="http://www.w3.org/2000/svg" xmlns:xlink="http://www.w3.org/1999/xlink" version="1.1" viewBox="-10 -40 596 512">
   <path fill="currentColor"
d="M320 -39h-64h64h-64v64v0h64v0v-64v0zM128 25h-64h64h-64v64v0h64v0v-64v0zM512 25h-64h64h-64v64v0h64v0v-64v0zM512 217v64v-64v64h64v0v-64v0h-64v0zM512 409h-64h64h-64v64v0h64v0v-64v0zM64 409v64v-64v64h64v0v-64v0h-64v0zM0 217v64v-64v64h64v0v-64v0h-64v0z
M271 232l-77 77l77 -77l-77 77q-21 -33 -17 -71q3 -39 32 -68q34 -33 79 -33t79 33q33 34 33 79t-33 79q-29 29 -68 32q-38 4 -71 -17l77 -77v0l17 -17v0l-34 -34v0l-17 17v0zM175 362q31 32 72 44v0v0q41 12 84 1q43 -12 73 -42t42 -73q11 -43 -1 -84t-44 -72
q-31 -32 -72 -44t-84 -1q-43 12 -73 42t-42 73q-11 43 1 84t44 72v0z" />
</svg>
