<?xml version="1.0" standalone="no"?>
<!DOCTYPE svg PUBLIC "-//W3C//DTD SVG 1.1//EN" "http://www.w3.org/Graphics/SVG/1.1/DTD/svg11.dtd" >
<svg xmlns="http://www.w3.org/2000/svg" xmlns:xlink="http://www.w3.org/1999/xlink" version="1.1" viewBox="-10 -40 596 512">
   <path fill="currentColor"
d="M320 -39h-64h64h-64v64v0h64v0v-64v0zM128 25h-64h64h-64v64v0h64v0v-64v0zM512 25h-64h64h-64v64v0h64v0v-64v0zM512 217v64v-64v64h64v0v-64v0h-64v0zM512 409h-64h64h-64v64v0h64v0v-64v0zM64 409v64v-64v64h64v0v-64v0h-64v0zM0 217v64v-64v64h64v0v-64v0h-64v0z
M264 249v109v-109v109q-39 -9 -63 -38q-24 -30 -25 -71q1 -48 33 -79q31 -32 79 -33q48 1 79 33q32 31 33 79q-1 41 -25 71q-24 29 -63 38v-109v0v-24v0h-48v0v24v0zM288 409q43 0 80 -21v0v0q37 -22 59 -59q21 -38 21 -80t-21 -80q-22 -37 -59 -59q-37 -21 -80 -21t-80 21
q-37 22 -59 59q-21 38 -21 80t21 80q22 37 59 59q37 21 80 21v0z" />
</svg>
