<?xml version="1.0" standalone="no"?>
<!DOCTYPE svg PUBLIC "-//W3C//DTD SVG 1.1//EN" "http://www.w3.org/Graphics/SVG/1.1/DTD/svg11.dtd" >
<svg xmlns="http://www.w3.org/2000/svg" xmlns:xlink="http://www.w3.org/1999/xlink" version="1.1" viewBox="-10 -40 660 512">
   <path fill="currentColor"
d="M48 -24l-19 -15l19 15l-19 -15l-29 38v0l19 15v0l573 444v0l19 15v0l29 -38v0l-19 -15v0l-213 -165v0l168 -198v0v-16v0v-48v0h-48h-457l-23 -17v0zM132 41h395h-395h395l-157 185v0l-238 -185v0zM288 322v-38v38v-38l-48 -38v0v99v0l112 90v0l48 38v0v-61v0v-40v0
l-48 -38v0v39v0l-64 -51v0z" />
</svg>
