<?xml version="1.0" standalone="no"?>
<!DOCTYPE svg PUBLIC "-//W3C//DTD SVG 1.1//EN" "http://www.w3.org/Graphics/SVG/1.1/DTD/svg11.dtd" >
<svg xmlns="http://www.w3.org/2000/svg" xmlns:xlink="http://www.w3.org/1999/xlink" version="1.1" viewBox="-10 -40 596 512">
   <path fill="currentColor"
d="M48 441h-48h48h-48v-48v0v-352v0v-48v0h48h288l112 112v0v49v0q-8 -1 -16 -1q-16 0 -32 3v-31v0l-80 -80v0v100v0v24v0h-24h-216v-24v0v-104v0h-32v0v352v0h220v0q10 26 28 48h-248v0zM224 217q35 1 53 28q-20 38 -21 84v7v0q-14 9 -32 9q-27 -1 -45 -19t-19 -45
q1 -27 19 -45t45 -19v0zM128 41v80v-80v80h144v0v-80v0h-144v0zM288 329q0 -39 19 -72v0v0q19 -33 53 -53q34 -19 72 -19t72 19q34 20 53 53t19 72t-19 72t-53 53q-34 19 -72 19t-72 -19q-34 -20 -53 -53t-19 -72v0zM440 250l-23 23l23 -23l-23 23l12 11v0l28 29v0h-89h-16
v32v0h16h89l-28 29v0l-12 11v0l23 23v0l11 -12v0l56 -56v0l12 -11v0l-12 -11v0l-56 -56v0l-11 -12v0z" />
</svg>
