<?xml version="1.0" standalone="no"?>
<!DOCTYPE svg PUBLIC "-//W3C//DTD SVG 1.1//EN" "http://www.w3.org/Graphics/SVG/1.1/DTD/svg11.dtd" >
<svg xmlns="http://www.w3.org/2000/svg" xmlns:xlink="http://www.w3.org/1999/xlink" version="1.1" viewBox="-10 -40 596 512">
   <path fill="currentColor"
d="M48 441h-48h48h-48v-48v0v-352v0v-48v0h48h288l112 112v0v49v0q-8 -1 -16 -1q-16 0 -32 3v-31v0l-80 -80v0v100v0v24v0h-24h-216v-24v0v-104v0h-32v0v352v0h220v0q10 26 28 48h-248v0zM224 217q35 1 53 28q-20 38 -21 84v7v0q-14 9 -32 9q-27 -1 -45 -19t-19 -45
q1 -27 19 -45t45 -19v0zM128 41v80v-80v80h144v0v-80v0h-144v0zM432 185q39 0 72 19v0v0q33 19 53 53q19 34 19 72t-19 72q-20 34 -53 53t-72 19t-72 -19t-53 -53q-19 -34 -19 -72t19 -72q20 -34 53 -53t72 -19v0zM491 292l12 -11l-12 11l12 -11l-23 -23v0l-11 12v0l-37 36
v0l-37 -36v0l-11 -12v0l-23 23v0l12 11v0l36 37v0l-36 37v0l-12 11v0l23 23v0l11 -12v0l37 -36v0l37 36v0l11 12v0l23 -23v0l-12 -11v0l-36 -37v0l36 -37v0z" />
</svg>
