<?xml version="1.0" standalone="no"?>
<!DOCTYPE svg PUBLIC "-//W3C//DTD SVG 1.1//EN" "http://www.w3.org/Graphics/SVG/1.1/DTD/svg11.dtd" >
<svg xmlns="http://www.w3.org/2000/svg" xmlns:xlink="http://www.w3.org/1999/xlink" version="1.1" viewBox="-10 -40 532 512">
   <path fill="currentColor"
d="M224 -7l48 64l-48 -64l48 64h192h48v48v0v288v0v48v0h-48h-464v-48v0v-352v0v-48v0h48h176zM272 105h-24h24h-24l-14 -19v0l-34 -45v0h-152v0v352v0h416v0v-288v0h-192v0zM144 212q1 -25 17 -42v0v0q17 -16 42 -17h3v0q24 0 42 17l8 8v0l8 -8v0q18 -17 42 -17h3v0
q25 1 42 17q16 17 17 42q0 25 -18 43l-83 80v0l-11 10v0l-11 -11v0l-83 -79v0q-18 -18 -18 -43v0z" />
</svg>
