<?xml version="1.0" standalone="no"?>
<!DOCTYPE svg PUBLIC "-//W3C//DTD SVG 1.1//EN" "http://www.w3.org/Graphics/SVG/1.1/DTD/svg11.dtd" >
<svg xmlns="http://www.w3.org/2000/svg" xmlns:xlink="http://www.w3.org/1999/xlink" version="1.1" viewBox="-10 -40 458 512">
   <path fill="currentColor"
d="M96 -39h24h-24h128v24v0v136v0h48h24v24v0v8v0h48h24v24v0v8v0h40h24v24v0v40v0v96v0v8v0q-1 51 -35 85t-85 35h-125v0q-41 0 -77 -21l-3 -1v0q-35 -21 -55 -56q-20 -34 -20 -75v-39v0v-11v0l8 -7v0l56 -51v0v-75v0h-64v0l44 -48v0l-44 -48v0h64v0v-56v0v-24v0zM144 137
v72v-72v72v14v0v2v0v8v0v72v0v16v0h-32v0v-16v0v-42v0l-32 29v0v28v0q0 28 14 51q13 24 38 38l2 2v0l-11 20v0l11 -20v0q25 14 53 14h125v0q31 -1 51 -21t21 -51v-8v0v-96v0v-16v0h-40h-24v-24v0v-8v0h-48h-24v-24v0v-8v0h-48h-24v-24v0v-8v0h-32v0zM176 41v-32v32v-32h-32
v0v32v0h32v0z" />
</svg>
