<?xml version="1.0" standalone="no"?>
<!DOCTYPE svg PUBLIC "-//W3C//DTD SVG 1.1//EN" "http://www.w3.org/Graphics/SVG/1.1/DTD/svg11.dtd" >
<svg xmlns="http://www.w3.org/2000/svg" xmlns:xlink="http://www.w3.org/1999/xlink" version="1.1" viewBox="-10 -40 554 512">
   <path fill="currentColor"
d="M348 -39h-12h12h-28v32v0h16h12q26 1 38 23l28 -14v0q-21 -39 -66 -41v0zM157 -16l-17 17l17 -17l-17 17l-56 57v0l-17 17v0l17 17v0l5 6v0l-39 39v0l-17 17v0l17 17v0l28 29v0l-39 39v0l-17 17v0l17 17v0l141 142v0q59 57 141 58h7h3v0v0q84 -3 139 -59q56 -57 58 -141
v-6v0v0v0v-158v0v-40v0v-24v0h-24h-104v24v0v40v0v5v0l-131 -130v0l-17 -17v0l-17 17v0l-39 39v0l-22 -22v0l-17 -17v0zM479 288q-7 59 -48 97v0v0q-42 39 -103 40h-6h-10v0v0v0q-57 -4 -98 -44l-125 -125v0l23 -23v0l6 6v0l56 57v0l17 17v0l34 -34v0l-17 -17v0l-56 -57v0
l-17 -17v0v0v0l-6 -6v0l-28 -28v0l22 -23v0l12 12v0l96 96v0l17 17v0l34 -34v0l-17 -17v0l-96 -96v0l-17 -17v0l-12 -11v0l-5 -6v0l22 -23v0l22 22v0l17 17v0v0v0l91 92v0l17 17v0l34 -34v0l-17 -17v0l-91 -92v0l22 -23v0l151 151v0h45v0v-13v0v-63v0v-16v0h32v0v16v0v158v0
v5l-1 16v0zM64 359l-2 -16l2 16l-2 -16l-32 4v0l2 16v0l1 9v0q5 27 23 45t45 23l9 1v0l16 2v0l4 -32v0l-16 -2v0l-8 -1v0q-34 -7 -41 -41l-1 -8v0z" />
</svg>
