<?xml version="1.0" standalone="no"?>
<!DOCTYPE svg PUBLIC "-//W3C//DTD SVG 1.1//EN" "http://www.w3.org/Graphics/SVG/1.1/DTD/svg11.dtd" >
<svg xmlns="http://www.w3.org/2000/svg" xmlns:xlink="http://www.w3.org/1999/xlink" version="1.1" viewBox="-10 -40 404 512">
   <path fill="currentColor"
d="M16 -39h24h-24h128v24v0v120v0h56h24v24v0v8v0h32v0v-88v0v-24v0h24h104v24v0v168v0v32v0v56v0q-2 71 -49 119q-48 47 -119 49h-48v0q-71 -2 -119 -49q-47 -48 -49 -119v0v0v-24v0v0v0v-56v0v-24v0h16v0v-216v0v-24v0zM48 281v0v0v0v24v0v0v0q1 51 35 85t85 35h48v0
q51 -1 85 -35t35 -85v-56v0v-32v0v-144v0h-32v0v64v0v24v0v56v0v88v0v24v0h-24h-184v-48v0h24h56v-32v0h-56h-72v32v0zM176 161v-8v8v-8h-32v0v48v0h32v0v-40v0zM96 129v-24v24v-24v-96v0h-32v0v192v0h32v0v-72v0zM256 185h-32h32h-32v40v0v56v0h32v0v-64v0v-32v0z" />
</svg>
