<?xml version="1.0" standalone="no"?>
<!DOCTYPE svg PUBLIC "-//W3C//DTD SVG 1.1//EN" "http://www.w3.org/Graphics/SVG/1.1/DTD/svg11.dtd" >
<svg xmlns="http://www.w3.org/2000/svg" xmlns:xlink="http://www.w3.org/1999/xlink" version="1.1" viewBox="-10 -40 522 512">
   <path fill="currentColor"
d="M256 441v-68v68v-68v-316v0l-24 -24v0q-40 -39 -96 -40q-58 1 -96 40q-39 38 -40 96q1 56 40 96l168 168v0l48 48v0zM208 325l-134 -134l134 134l-134 -134q-26 -26 -26 -62q1 -38 26 -62q24 -25 62 -26q36 0 62 26l10 10v0v248v0z" />
</svg>
