<?xml version="1.0" standalone="no"?>
<!DOCTYPE svg PUBLIC "-//W3C//DTD SVG 1.1//EN" "http://www.w3.org/Graphics/SVG/1.1/DTD/svg11.dtd" >
<svg xmlns="http://www.w3.org/2000/svg" xmlns:xlink="http://www.w3.org/1999/xlink" version="1.1" viewBox="-10 -40 660 512">
   <path fill="currentColor"
d="M592 73v288v-288v288h-544v0v-288v0h544v0zM48 25h-48h48h-48v48v0v288v0v48v0h48h592v-48v0v-288v0v-48v0h-48h-544zM104 121v48v-48v48h24h8v96v0h-16h-24v48v0h24h104v-48v0h-24h-16v-120v0v-24v0h-24h-56zM317 173q9 12 0 23l-69 75v0v42v0h16h112v-48v0h-24h-33
l33 -36v0q17 -20 18 -44q0 -24 -16 -44q-21 -22 -50 -22t-49 23l-17 19v0l36 32v0l17 -20v0q13 -12 26 0v0z" />
</svg>
