<?xml version="1.0" standalone="no"?>
<!DOCTYPE svg PUBLIC "-//W3C//DTD SVG 1.1//EN" "http://www.w3.org/Graphics/SVG/1.1/DTD/svg11.dtd" >
<svg xmlns="http://www.w3.org/2000/svg" xmlns:xlink="http://www.w3.org/1999/xlink" version="1.1" viewBox="-10 -40 660 512">
   <path fill="currentColor"
d="M129 128l-17 -17l17 17l-17 -17l-34 34v0l17 17v0l80 80v0l17 17v0l34 -34v0l-17 -17v0l-80 -80v0zM296 161v24v-24v24h48v0v-24v0v-112v0v-24v0h-48v0v24v0v112v0zM431 208l-17 17l17 -17l-17 17l34 34v0l17 -17v0l80 -80v0l17 -17v0l-34 -34v0l-17 17v0l-80 80v0z
M0 329v48v-48v48h24h104v-48v0h-24h-104zM216 329h-24h24h-24v48v0h24h232v-48v0h-24h-208zM536 329h-24h24h-24v48v0h24h104v-48v0h-24h-80z" />
</svg>
