<?xml version="1.0" standalone="no"?>
<!DOCTYPE svg PUBLIC "-//W3C//DTD SVG 1.1//EN" "http://www.w3.org/Graphics/SVG/1.1/DTD/svg11.dtd" >
<svg xmlns="http://www.w3.org/2000/svg" xmlns:xlink="http://www.w3.org/1999/xlink" version="1.1" viewBox="-10 -40 650 512">
   <path fill="currentColor"
d="M344 89h-48h48h-48v48v0h48v0v-48v0zM112 329h-48h48h-48v48v0h48v0v-48v0zM216 329h-24h24h-24v48v0h24h232v-48v0h-24h-208zM528 329v48v-48v48h48v0v-48v0h-48v0zM484 163l-34 34l34 -34l-34 34l34 34v0l34 -34v0l-34 -34v0zM156 163l-34 34l34 -34l-34 34l34 34v0
l34 -34v0l-34 -34v0z" />
</svg>
