<?xml version="1.0" standalone="no"?>
<!DOCTYPE svg PUBLIC "-//W3C//DTD SVG 1.1//EN" "http://www.w3.org/Graphics/SVG/1.1/DTD/svg11.dtd" >
<svg xmlns="http://www.w3.org/2000/svg" xmlns:xlink="http://www.w3.org/1999/xlink" version="1.1" viewBox="-10 -40 660 512">
   <path fill="currentColor"
d="M48 -24l-19 -15l19 15l-19 -15l-29 38v0l19 15v0l573 444v0l19 15v0l29 -38v0l-19 -15v0l-45 -35v0q29 -20 46 -51q18 -31 18 -69q-1 -58 -39 -98q-37 -40 -95 -45l-8 -1v0l-4 48v0h9v0q38 4 63 31q25 26 26 65q0 30 -16 53q-16 24 -42 35l-119 -92v0q32 -39 33 -92
q-2 -61 -42 -102q-41 -40 -102 -42h-160v0q-15 0 -29 3l-67 -52v0zM174 73h130h-130h130q41 1 68 28t28 68q-1 36 -23 62l-203 -158v0zM386 361h-50h50h-50q-41 -1 -68 -28t-28 -68q0 -9 2 -18l-41 -32v0q-9 24 -9 50q2 61 42 102q41 40 102 42h111v0l-61 -48v0zM68 111
l-38 -30l38 30l-38 -30q-29 37 -30 88q1 58 39 98q37 40 95 45l8 1v0l4 -48v0h-8v0q-39 -4 -64 -31q-25 -26 -26 -65q1 -34 20 -58v0z" />
</svg>
