<?xml version="1.0" standalone="no"?>
<!DOCTYPE svg PUBLIC "-//W3C//DTD SVG 1.1//EN" "http://www.w3.org/Graphics/SVG/1.1/DTD/svg11.dtd" >
<svg xmlns="http://www.w3.org/2000/svg" xmlns:xlink="http://www.w3.org/1999/xlink" version="1.1" viewBox="-10 -40 660 512">
   <path fill="currentColor"
d="M528 41q1 27 19 45v0v0q18 18 45 19v128v0q-27 1 -45 19t-19 45h-320v0q-1 -27 -19 -45t-45 -19v-128v0q27 -1 45 -19t19 -45h320v0zM144 -7h-48h48h-48v48v0v256v0v48v0h48h496v-48v0v-256v0v-48v0h-48h-448zM448 169q-1 -45 -40 -69q-40 -22 -80 0q-39 24 -40 69
q1 45 40 69q40 22 80 0q39 -24 40 -69v0zM48 81v-24v24v-24h-48v0v24v0v336v0v24v0h24h520v-48v0h-24h-472v-312v0z" />
</svg>
