<?xml version="1.0" standalone="no"?>
<!DOCTYPE svg PUBLIC "-//W3C//DTD SVG 1.1//EN" "http://www.w3.org/Graphics/SVG/1.1/DTD/svg11.dtd" >
<svg xmlns="http://www.w3.org/2000/svg" xmlns:xlink="http://www.w3.org/1999/xlink" version="1.1" viewBox="-10 -40 468 512">
   <path fill="currentColor"
d="M400 41v352v-352v352h-352v0v-352v0h352v0zM48 -7h-48h48h-48v48v0v352v0v48v0h48h400v-48v0v-352v0v-48v0h-48h-352zM272 217q-1 -28 -24 -42v-54v0h72v0v192v0h-192v0v-192v0h8h24v-48v0h-24h-56v24v0v240v0v24v0h24h264v-24v0v-240v0v-24v0h-24h-144v24v0v78v0
q-23 14 -24 42q1 20 14 34q14 13 34 14q20 -1 34 -14q13 -14 14 -34v0z" />
</svg>
