<?xml version="1.0" standalone="no"?>
<!DOCTYPE svg PUBLIC "-//W3C//DTD SVG 1.1//EN" "http://www.w3.org/Graphics/SVG/1.1/DTD/svg11.dtd" >
<svg xmlns="http://www.w3.org/2000/svg" xmlns:xlink="http://www.w3.org/1999/xlink" version="1.1" viewBox="-10 -40 468 512">
   <path fill="currentColor"
d="M400 41v240v-240v240h-112v0v112v0h-240v0v-352v0h352v0zM48 441h240h-240h272l128 -128v0v-32v0v-240v0v-48v0h-48h-400v48v0v352v0v48v0h48v0zM192 89v64v-64v64h-64v0v64v0h64v0v64v0h64v0v-64v0h64v0v-64v0h-64v0v-64v0h-64v0z" />
</svg>
