<?xml version="1.0" standalone="no"?>
<!DOCTYPE svg PUBLIC "-//W3C//DTD SVG 1.1//EN" "http://www.w3.org/Graphics/SVG/1.1/DTD/svg11.dtd" >
<svg xmlns="http://www.w3.org/2000/svg" xmlns:xlink="http://www.w3.org/1999/xlink" version="1.1" viewBox="-10 -40 532 512">
   <path fill="currentColor"
d="M48 293v-152v152v-152l132 -132v0h152v0l132 132v0v152v0l-132 132v0h-152v0l-132 -132v0zM160 -39l-160 160l160 -160l-160 160v192v0l160 160v0h192v0l160 -160v0v-192v0l-160 -160v0h-192v0zM280 89h-48h48h-48v24v0v112v0v24v0h48v0v-24v0v-112v0v-24v0zM232 281v48
v-48v48h48v0v-48v0h-48v0z" />
</svg>
