<?xml version="1.0" standalone="no"?>
<!DOCTYPE svg PUBLIC "-//W3C//DTD SVG 1.1//EN" "http://www.w3.org/Graphics/SVG/1.1/DTD/svg11.dtd" >
<svg xmlns="http://www.w3.org/2000/svg" xmlns:xlink="http://www.w3.org/1999/xlink" version="1.1" viewBox="-10 -40 660 512">
   <path fill="currentColor"
d="M409 256l212 164l-212 -164l212 164l19 15v0l-29 38v0l-19 -15v0l-573 -444v0l-19 -15v0l29 -38v0l19 15v0l217 168v0l149 -149v0l34 -34v0l34 34v0l60 60v0l34 34v0l-34 34v0l-133 133v0zM303 174l68 52l-68 -52l68 52l75 -75v0l-60 -60v0l-83 83v0zM340 325l-116 116
l116 -116l-116 116l-109 22v0l-51 10v0l10 -51v0l22 -109v0l101 -101v0l38 30v0l-95 95v0l-15 75v0l75 -15v0l102 -102v0l38 30v0z" />
</svg>
