<?xml version="1.0" standalone="no"?>
<!DOCTYPE svg PUBLIC "-//W3C//DTD SVG 1.1//EN" "http://www.w3.org/Graphics/SVG/1.1/DTD/svg11.dtd" >
<svg xmlns="http://www.w3.org/2000/svg" xmlns:xlink="http://www.w3.org/1999/xlink" version="1.1" viewBox="-10 -40 659 512">
   <path fill="currentColor"
d="M160 57q27 -1 42 -24q12 -24 0 -48q-15 -23 -42 -24q-27 1 -42 24q-12 24 0 48q15 23 42 24v0zM109 89h-14h14h-14l-7 12v0l-75 136v0l-12 21v0l42 24v0l12 -21v0l41 -75v0v263v0v24v0h48v0v-24v0v-136v0h32v0v136v0v24v0h48v0v-24v0v-263v0l41 75v0l12 21v0l42 -24v0
l-12 -21v0l-75 -136v0l-7 -12v0h-14h-102zM176 265h-32h32h-32v-128v0h32v0v128v0zM480 57q27 -1 42 -24q12 -24 0 -48q-15 -23 -42 -24q-27 1 -42 24q-12 24 0 48q15 23 42 24v0zM429 89h-14h14h-14l-7 12v0l-75 136v0l-12 21v0l42 24v0l12 -21v0l45 -82v0l-37 118v0
l-15 48v0h48v0v104v0v24v0h48v0v-24v0v-104v0h32v0v104v0v24v0h48v0v-24v0v-104v0h48v0l-15 -48v0l-37 -118v0l45 82v0l12 21v0l42 -24v0l-12 -21v0l-75 -136v0l-7 -12v0h-14h-102zM480 148l47 149l-47 -149l47 149h-94v0l47 -149v0z" />
</svg>
