<?xml version="1.0" standalone="no"?>
<!DOCTYPE svg PUBLIC "-//W3C//DTD SVG 1.1//EN" "http://www.w3.org/Graphics/SVG/1.1/DTD/svg11.dtd" >
<svg xmlns="http://www.w3.org/2000/svg" xmlns:xlink="http://www.w3.org/1999/xlink" version="1.1" viewBox="-10 -40 404 512">
   <path fill="currentColor"
d="M72 -7h-24h24h-24v24v0v120v0h-48v0v48v0h48v0v104v0v128v0v24v0h48v0v-24v0v-104v0h96v0q59 -1 102 -37q43 -35 55 -91h35v0v-48v0h-33v0q-7 -62 -51 -102q-44 -41 -108 -42h-120v0zM303 137h-207h207h-207v-96v0h96v0q43 1 74 28q30 26 37 68v0zM96 185h203h-203h203
q-11 35 -39 57q-29 22 -68 23h-96v0v-80v0z" />
</svg>
