<?xml version="1.0" standalone="no"?>
<!DOCTYPE svg PUBLIC "-//W3C//DTD SVG 1.1//EN" "http://www.w3.org/Graphics/SVG/1.1/DTD/svg11.dtd" >
<svg xmlns="http://www.w3.org/2000/svg" xmlns:xlink="http://www.w3.org/1999/xlink" version="1.1" viewBox="-10 -40 404 512">
   <path fill="currentColor"
d="M72 -7h-24h24h-24v24v0v72v0h-48v0v48v0h48v0v48v0h-48v0v48v0h48v0v72v0v112v0v24v0h48v0v-24v0v-88v0h88v0q51 -1 91 -27t61 -69h48v0v-48v0h-34v0q2 -12 2 -24t-2 -24h34v0v-48v0h-48v0q-21 -43 -61 -69t-91 -27h-112v0zM280 89h-184h184h-184v-48v0h88v0q61 2 96 48
v0zM96 137h206h-206h206q2 12 2 24t-2 24h-206v0v-48v0zM280 233q-35 46 -96 48h-88v0v-48v0h184v0z" />
</svg>
