<?xml version="1.0" standalone="no"?>
<!DOCTYPE svg PUBLIC "-//W3C//DTD SVG 1.1//EN" "http://www.w3.org/Graphics/SVG/1.1/DTD/svg11.dtd" >
<svg xmlns="http://www.w3.org/2000/svg" xmlns:xlink="http://www.w3.org/1999/xlink" version="1.1" viewBox="-10 -40 660 512">
   <path fill="currentColor"
d="M120 -39h112h-112h136v48v0h-24h-54l80 80v0h108v0l110 -110v0l17 -17v0l34 34v0l-17 17v0l-117 117v0l-7 7v0h-10h-138l-7 -7v0l-87 -87v0v54v0v24v0h-48v0v-24v0v-112v0v-24v0h24v0zM416 425v-80v80v-80q-96 -31 -192 0v80v0l-160 48v0l-64 -160v0q19 -25 63 -59
q43 -33 108 -58q66 -26 149 -27q83 1 149 27q65 25 108 58q44 34 63 59l-64 160v0l-160 -48v0zM176 345v-35v35v-35l33 -10v0q111 -37 222 0l33 10v0v35v0v44v0l84 25v0l36 -91v0q-33 -35 -101 -69q-67 -34 -163 -37q-96 3 -163 37q-68 34 -101 69l36 91v0l84 -25v0v-44v0z
" />
</svg>
