<?xml version="1.0" standalone="no"?>
<!DOCTYPE svg PUBLIC "-//W3C//DTD SVG 1.1//EN" "http://www.w3.org/Graphics/SVG/1.1/DTD/svg11.dtd" >
<svg xmlns="http://www.w3.org/2000/svg" xmlns:xlink="http://www.w3.org/1999/xlink" version="1.1" viewBox="-10 -40 650 512">
   <path fill="currentColor"
d="M336 330l32 19l-32 -19l32 19l26 -26v0l34 -34v0l94 38v0l-18 98v0q-109 -3 -196 -56q-88 -52 -140 -140q-53 -88 -56 -196l98 -18v0l38 94v0l-33 34v0l-26 26v0l18 31v0q48 82 130 130h-1zM576 297l-160 -64l160 64l-160 -64l-56 56v0q-70 -42 -112 -112l56 -56v0
l-64 -160v0l-176 32v0v32v0q1 125 61 226t161 161t226 61h32v0l32 -176v0zM570 1l-34 -34l34 34l-34 -34l-17 17v0l-47 47v0l-47 -47v0l-17 -17v0l-34 34v0l17 17v0l47 47v0l-47 47v0l-17 17v0l34 34v0l17 -17v0l47 -47v0l47 47v0l17 17v0l34 -34v0l-17 -17v0l-47 -47v0
l47 -47v0l17 -17v0z" />
</svg>
