<?xml version="1.0" standalone="no"?>
<!DOCTYPE svg PUBLIC "-//W3C//DTD SVG 1.1//EN" "http://www.w3.org/Graphics/SVG/1.1/DTD/svg11.dtd" >
<svg xmlns="http://www.w3.org/2000/svg" xmlns:xlink="http://www.w3.org/1999/xlink" version="1.1" viewBox="-10 -40 532 512">
   <path fill="currentColor"
d="M0 -7h24h-24h120q58 1 96 40q39 38 40 96q-1 48 -28 83t-71 48l58 181v0h-51v0l-56 -176v0h-60v0v176v0h-48v0v-200v0v-224v0v-24v0zM48 217h72h-72h72q37 -1 62 -26t26 -62q-1 -37 -26 -62t-62 -26h-72v0v176v0zM312 121h88h-88h88q48 1 79 33q32 31 33 79q-1 48 -33 79
q-31 32 -79 33h-64v0v104v0v24v0h-48v0v-24v0v-304v0v-24v0h24v0zM400 297q27 -1 45 -19v0v0q18 -18 19 -45q-1 -27 -19 -45t-45 -19h-64v0v128v0h64v0z" />
</svg>
