<?xml version="1.0" standalone="no"?>
<!DOCTYPE svg PUBLIC "-//W3C//DTD SVG 1.1//EN" "http://www.w3.org/Graphics/SVG/1.1/DTD/svg11.dtd" >
<svg xmlns="http://www.w3.org/2000/svg" xmlns:xlink="http://www.w3.org/1999/xlink" version="1.1" viewBox="-10 -40 532 512">
   <path fill="currentColor"
d="M288 41v352v-352v352h-240v0v-352v0h240v0zM512 -7h-48h48h-512v48v0v352v0v48v0h48h464v-48v0v-352v0v-48v0zM448 57v48v-48v48h-96v0v-48v0h96v0zM352 153h96h-96h96v48v0h-96v0v-48v0zM448 249v48v-48v48h-96v0v-48v0h96v0z" />
</svg>
