<?xml version="1.0" standalone="no"?>
<!DOCTYPE svg PUBLIC "-//W3C//DTD SVG 1.1//EN" "http://www.w3.org/Graphics/SVG/1.1/DTD/svg11.dtd" >
<svg xmlns="http://www.w3.org/2000/svg" xmlns:xlink="http://www.w3.org/1999/xlink" version="1.1" viewBox="-10 -40 468 512">
   <path fill="currentColor"
d="M144 329h256h-256h256v-236v0l-84 -84v0h-172v0v320v0zM448 73v256v-256v256v48v0h-48h-304v-48v0v-320v0v-48v0h48h192l112 112v0zM48 57v24v-24v24v344v0h312h24v48v0h-24h-360v-24v0v-368v0v-24v0h48v0zM176 137h96h-96h96v64v0h-16h-80v-64v0zM176 297v-64v64v-64h64
v0v64v0h-64v0zM368 297h-96h96h-96v-64v0h16h80v64v0zM368 137v64v-64v64h-64v0v-64v0h64v0z" />
</svg>
