<?xml version="1.0" standalone="no"?>
<!DOCTYPE svg PUBLIC "-//W3C//DTD SVG 1.1//EN" "http://www.w3.org/Graphics/SVG/1.1/DTD/svg11.dtd" >
<svg xmlns="http://www.w3.org/2000/svg" xmlns:xlink="http://www.w3.org/1999/xlink" version="1.1" viewBox="-10 -40 468 512">
   <path fill="currentColor"
d="M400 41v352v-352v352h-352v0v-352v0h352v0zM48 -7h-48h48h-48v48v0v352v0v48v0h48h400v-48v0v-352v0v-48v0h-48h-352zM224 201q27 1 42 24q12 24 0 48q-15 23 -42 24q-27 -1 -42 -24q-12 -24 0 -48q15 -23 42 -24v0zM128 249q1 41 28 68v0v0q27 27 68 28q41 -1 68 -28
t28 -68q-1 -38 -24 -64q-24 -26 -61 -31l45 -49v0l15 -16v0h-66v0l-68 74v0q-32 37 -33 86v0z" />
</svg>
