<?xml version="1.0" standalone="no"?>
<!DOCTYPE svg PUBLIC "-//W3C//DTD SVG 1.1//EN" "http://www.w3.org/Graphics/SVG/1.1/DTD/svg11.dtd" >
<svg xmlns="http://www.w3.org/2000/svg" xmlns:xlink="http://www.w3.org/1999/xlink" version="1.1" viewBox="-10 -40 468 512">
   <path fill="currentColor"
d="M48 41v352v-352v352h352v0v-352v0h-352v0zM0 -7h48h-48h448v48v0v352v0v48v0h-48h-400v-48v0v-352v0v-48v0zM337 89l-1 1l1 -1l-1 1l-98 109v0l92 139v0l5 7v0h-58v0l-72 -109v0l-29 33v0v52v0v24v0h-48v0v-24v0v-61v0v-147v0v-24v0h48v0v24v0v84v0l14 -16v0l83 -92v0h64
v0z" />
</svg>
