<?xml version="1.0" standalone="no"?>
<!DOCTYPE svg PUBLIC "-//W3C//DTD SVG 1.1//EN" "http://www.w3.org/Graphics/SVG/1.1/DTD/svg11.dtd" >
<svg xmlns="http://www.w3.org/2000/svg" xmlns:xlink="http://www.w3.org/1999/xlink" version="1.1" viewBox="-10 -40 468 512">
   <path fill="currentColor"
d="M48 41v352v-352v352h352v0v-352v0h-352v0zM0 -7h48h-48h448v48v0v352v0v48v0h-48h-400v-48v0v-352v0v-48v0zM144 217q1 45 40 69q40 22 80 0q39 -24 40 -69q-1 -45 -40 -69q-40 -22 -80 0q-39 24 -40 69v0zM224 345q-35 0 -64 -17v0v0q-29 -17 -47 -47q-17 -30 -17 -64
t17 -64q18 -30 47 -47t64 -17t64 17t47 47q17 30 17 64t-17 64q-18 30 -47 47t-64 17v0z" />
</svg>
