<?xml version="1.0" standalone="no"?>
<!DOCTYPE svg PUBLIC "-//W3C//DTD SVG 1.1//EN" "http://www.w3.org/Graphics/SVG/1.1/DTD/svg11.dtd" >
<svg xmlns="http://www.w3.org/2000/svg" xmlns:xlink="http://www.w3.org/1999/xlink" version="1.1" viewBox="-10 -40 468 512">
   <path fill="currentColor"
d="M48 41v352v-352v352h352v0v-352v0h-352v0zM0 -7h48h-48h448v48v0v352v0v48v0h-48h-400v-48v0v-352v0v-48v0zM200 257l-111 -152l111 152l-111 -152h59v0l76 103v0l76 -103v0h59v0l-111 152v0v80v0v24v0h-48v0v-24v0v-80v0z" />
</svg>
