<?xml version="1.0" standalone="no"?>
<!DOCTYPE svg PUBLIC "-//W3C//DTD SVG 1.1//EN" "http://www.w3.org/Graphics/SVG/1.1/DTD/svg11.dtd" >
<svg xmlns="http://www.w3.org/2000/svg" xmlns:xlink="http://www.w3.org/1999/xlink" version="1.1" viewBox="-10 -40 586 512">
   <path fill="currentColor"
d="M185 277l-40 124l40 -124l-40 124l-23 72v0l63 -40v0l127 -81v0v-273v0v-118v0l-48 107v0l-39 89v0h-124h-82l66 48v0l100 72v0zM167 205h58h-58h89l8 -19v0v140v0l-55 35v0l22 -69v0l11 -33v0l-28 -20v0l-47 -34v0z" />
</svg>
