<?xml version="1.0" standalone="no"?>
<!DOCTYPE svg PUBLIC "-//W3C//DTD SVG 1.1//EN" "http://www.w3.org/Graphics/SVG/1.1/DTD/svg11.dtd" >
<svg xmlns="http://www.w3.org/2000/svg" xmlns:xlink="http://www.w3.org/1999/xlink" version="1.1" viewBox="-10 -40 586 512">
   <path fill="currentColor"
d="M313 39l39 118l-39 -118l39 118h124h81l-66 48v0l-100 72v0l38 118v0l25 78v0l-66 -48v0l-100 -73v0l-100 73v0l-66 48v0l25 -78v0l38 -118v0l-100 -72v0l-66 -48v0h82h124l38 -118v0l25 -78v0l25 78v0zM352 205h-35h35h-35l-11 -34v0l-18 -55v0v0v0v177v0v0v0l28 20v0
l47 34v0l-18 -55v0l-11 -33v0l29 -21v0l46 -34v0h-57v1z" />
</svg>
