<?xml version="1.0" standalone="no"?>
<!DOCTYPE svg PUBLIC "-//W3C//DTD SVG 1.1//EN" "http://www.w3.org/Graphics/SVG/1.1/DTD/svg11.dtd" >
<svg xmlns="http://www.w3.org/2000/svg" xmlns:xlink="http://www.w3.org/1999/xlink" version="1.1" viewBox="-10 -40 660 512">
   <path fill="currentColor"
d="M144 41h448h-448h448v54v0q-38 26 -40 74q2 48 40 74v54v0h-448v0v-256v0zM640 129v-48v48v-48v-40v0v-48v0h-48h-496v48v0v256v0v48v0h48h496v-48v0v-40v0v-48v0q-17 0 -28 -12q-12 -11 -12 -28t12 -28q11 -12 28 -12v0zM512 73q-1 -15 -16 -16q-15 1 -16 16q1 15 16 16
q15 -1 16 -16v0zM512 137q-1 -15 -16 -16q-15 1 -16 16q1 15 16 16q15 -1 16 -16v0zM496 217q15 -1 16 -16q-1 -15 -16 -16q-15 1 -16 16q1 15 16 16v0zM512 265q-1 -15 -16 -16q-15 1 -16 16q1 15 16 16q15 -1 16 -16v0zM264 57l27 80l-27 -80l27 80h-43v0l-24 -32v0h-32v0
l16 64v0l-16 64v0h32v0l24 -32v0h43v0l-27 80v0h56v0l47 -80v0h40v0q25 0 43 -18q12 -14 0 -28q-18 -18 -43 -18h-40v0l-47 -80v0h-56v0zM48 81v-24v24v-24h-48v0v24v0v336v0v24v0h24h520v-48v0h-24h-472v-312v0z" />
</svg>
