<?xml version="1.0" standalone="no"?>
<!DOCTYPE svg PUBLIC "-//W3C//DTD SVG 1.1//EN" "http://www.w3.org/Graphics/SVG/1.1/DTD/svg11.dtd" >
<svg xmlns="http://www.w3.org/2000/svg" xmlns:xlink="http://www.w3.org/1999/xlink" version="1.1" viewBox="-10 -40 656 512">
   <path fill="currentColor"
d="M96 25v64v-64v64h8h56v-64v0h-64v0zM160 137h-8h8h-8v56v0h176v0v-56v0h-8h-48v-48v0v-64v0v-48v0h48h112v48v0v64v0v48v0h-48h-8v56v0h162v0l-50 -46v0l-18 -16v0l32 -36v0l18 16v0l96 88v0l20 18v0l-20 18v0l-96 88v0l-17 16v0l-33 -35v0l18 -17v0l50 -46v0h-290v0v56
v0h8h48v48v0v64v0v48v0h-48h-112v-48v0v-64v0v-48v0h48h8v-56v0h-176h-24v-48v0h24h80v-56v0h-8h-48v-48v0v-64v0v-48v0h48h112v48v0v64v0v48v0h-48v0zM200 345h-8h8h-8v64v0h64v0v-64v0h-8h-48zM384 25h-64h64h-64v64v0h64v0v-64v0z" />
</svg>
