<?xml version="1.0" standalone="no"?>
<!DOCTYPE svg PUBLIC "-//W3C//DTD SVG 1.1//EN" "http://www.w3.org/Graphics/SVG/1.1/DTD/svg11.dtd" >
<svg xmlns="http://www.w3.org/2000/svg" xmlns:xlink="http://www.w3.org/1999/xlink" version="1.1" viewBox="-10 -40 532 512">
   <path fill="currentColor"
d="M256 -39q72 1 129 35v0v0q58 34 92 92v0v0q34 57 35 129q-1 72 -35 129q-34 58 -92 92q-57 34 -129 35q-72 -1 -129 -35q-58 -34 -92 -92q-34 -57 -35 -129q0 -57 23 -106q9 -20 21 -38v0v0q14 -20 31 -37l34 34v0q-14 14 -25 30v0v0q-33 48 -36 109v8q2 88 61 147
q58 59 147 61q88 -2 147 -61t61 -147q-2 -82 -53 -139q-52 -57 -131 -68v55v0v24v0h-24h-24v-24v0v-80v0v-24v0h24v0zM176 103l17 17l-17 -17l17 17l80 80v0l17 17v0l-34 34v0l-17 -17v0l-80 -80v0l-17 -17v0l34 -34v0z" />
</svg>
