<?xml version="1.0" standalone="no"?>
<!DOCTYPE svg PUBLIC "-//W3C//DTD SVG 1.1//EN" "http://www.w3.org/Graphics/SVG/1.1/DTD/svg11.dtd" >
<svg xmlns="http://www.w3.org/2000/svg" xmlns:xlink="http://www.w3.org/1999/xlink" version="1.1" viewBox="-10 -40 532 512">
   <path fill="currentColor"
d="M480 25l-16 -32l16 32l-16 -32l-16 32v0l-32 16v0l32 16v0l16 32v0l16 -32v0l32 -16v0l-32 -16v0zM64 249l-16 -32l16 32l-16 -32l-16 32v0l-32 16v0l32 16v0l16 32v0l16 -32v0l32 -16v0l-32 -16v0zM120 425h-24h24h-24v48v0h24h296v-48v0h-24h-272z" />
</svg>
