<?xml version="1.0" standalone="no"?>
<!DOCTYPE svg PUBLIC "-//W3C//DTD SVG 1.1//EN" "http://www.w3.org/Graphics/SVG/1.1/DTD/svg11.dtd" >
<svg xmlns="http://www.w3.org/2000/svg" xmlns:xlink="http://www.w3.org/1999/xlink" version="1.1" viewBox="-10 -40 404 512">
   <path fill="currentColor"
d="M24 -7h-24h24h-24v48v0h24h144v125v0l-110 28v0l-23 6v0l12 46v0l23 -6v0l98 -24v0v46v0l-110 28v0l-23 6v0l12 46v0l23 -6v0l98 -24v0v105v0v24v0h48v0v-24v0v-117v0l110 -28v0l23 -6v0l-12 -46v0l-23 6v0l-98 24v0v-46v0l110 -28v0l23 -6v0l-12 -46v0l-23 6v0l-98 24v0
v-113v0h144h24v-48v0h-24h-336z" />
</svg>
