<?xml version="1.0" standalone="no"?>
<!DOCTYPE svg PUBLIC "-//W3C//DTD SVG 1.1//EN" "http://www.w3.org/Graphics/SVG/1.1/DTD/svg11.dtd" >
<svg xmlns="http://www.w3.org/2000/svg" xmlns:xlink="http://www.w3.org/1999/xlink" version="1.1" viewBox="-10 -40 404 512">
   <path fill="currentColor"
d="M136 205l34 34l-34 -34l34 34l102 102v0l44 -44v0l-102 -102v0l-34 -34v0l34 -34v0l38 -38v0h-188v0v188v0l38 -38v0l34 -34v0zM98 311l-34 34l34 -34l-34 34l-34 -34v0l-14 -14v0v-208v0v-48v0h48h208l14 14v0l34 34v0l-34 34v0l-4 4v0l-34 34v0l34 34v0l68 68v0l34 34
v0l-34 34v0l-44 44v0l-34 34v0l-34 -34v0l-68 -68v0l-34 -34v0l-34 34v0l-4 4v0z" />
</svg>
