<?xml version="1.0" standalone="no"?>
<!DOCTYPE svg PUBLIC "-//W3C//DTD SVG 1.1//EN" "http://www.w3.org/Graphics/SVG/1.1/DTD/svg11.dtd" >
<svg xmlns="http://www.w3.org/2000/svg" xmlns:xlink="http://www.w3.org/1999/xlink" version="1.1" viewBox="-10 -40 596 512">
   <path fill="currentColor"
d="M336 73v288v-288v288h-288v0v-288v0h288v0zM48 25h-48h48h-48v48v0v288v0v48v0h48h336v-48v0v-48v0v-192v0v-48v0v-48v0h-48h-288zM528 331l-112 -56l112 56l-112 -56v54v0l112 56v0l48 24v0v-54v0v-276v0v-54v0l-48 24v0l-112 56v0v54v0l112 -56v0v228v0zM232 313h24
h-24h24v-48v0h-24h-54l103 -103v0l17 -17v0l-34 -34v0l-17 17v0l-103 103v0v-54v0v-24v0h-48v0v24v0v112v0v24v0h24h112z" />
</svg>
