<?xml version="1.0" standalone="no"?>
<!DOCTYPE svg PUBLIC "-//W3C//DTD SVG 1.1//EN" "http://www.w3.org/Graphics/SVG/1.1/DTD/svg11.dtd" >
<svg xmlns="http://www.w3.org/2000/svg" xmlns:xlink="http://www.w3.org/1999/xlink" version="1.1" viewBox="-10 -40 531 512">
   <path fill="currentColor"
d="M494 13l17 -17l-17 17l17 -17l-34 -34v0l-17 17v0l-130 130v0q-1 -12 -4 -24l3 -3v0l64 -64v0l17 -17v0l-34 -34v0l-17 17v0l-56 57v0q-3 -3 -5 -6l-4 -4l-1 -1v0l-29 -29v0l-33 33v0l-1 1v0v0v0q-25 27 -30 61l-16 -15v0l-30 29v0q-30 28 -35 66l-15 -15v0l-30 28v0
q-34 34 -35 80q-1 45 33 81l9 8v0v0v0l-63 63v0l-17 17v0l34 34v0l17 -17v0l63 -63v0l8 9v0q36 34 81 33q46 -1 80 -35l28 -30v0l-9 -9v0q28 -7 49 -28l40 -43v0l-10 -10v0q26 -6 46 -26l10 -10v0l34 -34v0l-29 -29v0l-3 -3l-2 -2q-3 -2 -5 -4l56 -57v0l17 -17v0l-34 -34v0
l-17 17v0l-64 64v0l-3 3v0q-12 -3 -24 -4l130 -130v0zM106 316q-18 -19 -19 -44v0v0q0 -25 17 -45q18 21 20 47q3 26 -11 49l-7 -7v0zM246 369q-20 17 -45 17v0v0q-25 0 -44 -19l-7 -7v0q23 -14 49 -11q26 2 47 20v0zM185 237q-19 -20 -19 -45v0v0q0 -25 17 -44q19 20 21 47
q2 26 -12 49l-7 -7v0zM326 290l-9 9l9 -9l-9 9q-15 15 -34 15q-20 0 -35 -14l-19 -19v0q23 -14 49 -12q27 2 48 21v0zM264 69q17 21 19 47v0v0q1 25 -12 48l-6 -6v0q-18 -19 -19 -44q0 -25 18 -45v0zM309 202q23 -13 48 -12v0v0q26 2 47 19l-10 10v0q-15 14 -34 14t-34 -14
l-17 -17v0z" />
</svg>
