<?xml version="1.0" standalone="no"?>
<!DOCTYPE svg PUBLIC "-//W3C//DTD SVG 1.1//EN" "http://www.w3.org/Graphics/SVG/1.1/DTD/svg11.dtd" >
<svg xmlns="http://www.w3.org/2000/svg" xmlns:xlink="http://www.w3.org/1999/xlink" version="1.1" viewBox="-10 -40 660 512">
   <path fill="currentColor"
d="M640 -7q0 -14 -9 -23v0v0q-9 -9 -23 -9t-23 9t-9 23t9 23t23 9t23 -9t9 -23v0zM496 361q-14 0 -23 -9v0v0q-9 -9 -9 -23v-224v0q0 -14 9 -23t23 -9t23 9t9 23v224v0q0 14 -9 23t-23 9v0zM496 25q-34 1 -57 23v0v0q-22 23 -23 57v224v0q1 34 23 57q23 22 57 23
q34 -1 57 -23q22 -23 23 -57v-224v0q-1 -34 -23 -57q-23 -22 -57 -23v0zM24 25h-24h24h-24v48v0h24h86l-73 98v0l-5 6v0v8v0v8v0v24v0h24h32q24 1 40 16q15 16 16 40v40v0q-1 20 -14 34q-14 13 -34 14q-20 -1 -34 -14q-13 -14 -14 -34v-3v0h-48v0v3v0q1 41 28 68t68 28
q41 -1 68 -28t28 -68v-40v0q-1 -42 -27 -70q-27 -29 -67 -34l73 -98v0l5 -6v0v-8v0v-8v0v-24v0h-24h-128zM323 49q-8 -15 -10 -19v0v0q-1 -3 -1 -2v0v0v0v0v0v0v0v0l-1 1v0h-2l-1 1q-4 2 -10 6q-12 8 -29 24q-16 15 -30 38q-14 24 -15 55v80v0v16v0v24v0v56v0q1 34 23 56
q23 23 57 24q34 -1 57 -24q22 -22 23 -56v-96v0q-1 -34 -23 -57q-23 -22 -57 -23q-17 0 -32 7v-7v0q2 -34 30 -59q13 -11 23 -18q5 -3 7 -5h1l1 -1h1v0v0v0v0v0l21 -11v0l-23 -42v0l-21 11v0l11 21v0zM272 233q0 -14 9 -23v0v0q9 -9 23 -9t23 9t9 23v96v0q0 14 -9 23t-23 9
t-23 -9t-9 -23v-56v0v-24v0v-16v0z" />
</svg>
