<?xml version="1.0" standalone="no"?>
<!DOCTYPE svg PUBLIC "-//W3C//DTD SVG 1.1//EN" "http://www.w3.org/Graphics/SVG/1.1/DTD/svg11.dtd" >
<svg xmlns="http://www.w3.org/2000/svg" xmlns:xlink="http://www.w3.org/1999/xlink" version="1.1" viewBox="-10 -40 660 512">
   <path fill="currentColor"
d="M163 291v0v0v0l1 -1v0l2 -2q1 0 1 -1q5 -3 13 -10q17 -15 39 -41q23 -27 38 -56q15 -30 15 -59q-1 -48 -33 -79q-31 -32 -79 -33q-48 1 -79 33q-32 31 -33 79q1 29 15 59q15 29 38 56q22 26 39 41q8 7 13 10q0 1 1 1l2 2l1 1v0v0v0v0v0v0v0v0v0v0v0l3 2v0l3 -2v0v0v0v0v0
v0v0v0v0zM128 329q-2 -1 -33 -29v0v0q-31 -28 -62 -75v0v0q-31 -47 -33 -104q2 -68 47 -113t113 -47q68 2 113 47t47 113q-2 57 -33 104t-62 75t-33 29l13 32v0l19 48v0h-52h-76l19 -48v0l13 -32v0zM176 97q-17 0 -28 12v0v0q-12 11 -12 28h-48v0q1 -37 26 -62t62 -26v48v0z
M352 121q0 -15 -2 -29q22 -31 56 -49q33 -18 74 -18q68 2 113 47t47 113q-2 57 -33 104t-62 75t-33 29l13 32v0l19 48v0h-52h-76l19 -48v0l13 -32v0q-2 -1 -27 -23q-25 -23 -54 -61t-42 -86q25 -46 27 -102v0zM483 355l1 -1l-1 1l1 -1l2 -2q1 0 1 -1q5 -3 13 -10
q17 -15 39 -41q23 -27 38 -56q15 -30 15 -59q-1 -48 -33 -79q-31 -32 -79 -33q-48 1 -79 33q-32 31 -33 79q1 29 15 59q15 29 38 56q22 26 39 41q8 7 13 10q0 1 1 1l2 2l1 1v0v0v0v0v0v0v0v0v0v0v0l3 2v0l3 -2v0v0v0v0v0v0v0v0v0v0v0zM456 201h-48h48h-48q1 -37 26 -62
t62 -26v48v0q-17 0 -28 12q-12 11 -12 28v0z" />
</svg>
