<?xml version="1.0" standalone="no"?>
<!DOCTYPE svg PUBLIC "-//W3C//DTD SVG 1.1//EN" "http://www.w3.org/Graphics/SVG/1.1/DTD/svg11.dtd" >
<svg xmlns="http://www.w3.org/2000/svg" xmlns:xlink="http://www.w3.org/1999/xlink" version="1.1" viewBox="-10 -40 660 512">
   <path fill="currentColor"
d="M91 9l412 320l-412 -320l412 320h57v0v-320v0h-469v0zM32 -37v-2v2v-2h48h528v48v0v320v0v48v0h-43v0l56 43v0l19 15v0l-29 38v0l-19 -15v0l-573 -444v0l-19 -15v0l29 -38v0l3 2v0zM80 329h265h-265h265l61 48v0h-10v0l8 48v0h52h11l13 10v0v38v0h-24h-296v-48v0h24h52
l8 -48v0h-164h-48v-48v0v-247v0l48 38v0v209v0zM348 377h-56h56h-56l-8 48v0h72v0l-8 -48v0z" />
</svg>
