<?xml version="1.0" standalone="no"?>
<!DOCTYPE svg PUBLIC "-//W3C//DTD SVG 1.1//EN" "http://www.w3.org/Graphics/SVG/1.1/DTD/svg11.dtd" >
<svg xmlns="http://www.w3.org/2000/svg" xmlns:xlink="http://www.w3.org/1999/xlink" version="1.1" viewBox="-10 -40 596 512">
   <path fill="currentColor"
d="M32 57l-32 32l32 -32l-32 32l64 128v0l-64 128v0l32 32v0l64 -64v0v-48v0v-24v0h40v0v72v0v24v0h48v0v-24v0v-72v0h48v0v72v0v24v0h48v0v-24v0v-72v0h48v0v72v0v24v0h48v0v-24v0v-72v0h40v0v72v0v12v0v8v0v28v0h32v0l16 -18v0l112 -126v0l-112 -126v0l-16 -18v0h-32v0v28
v0v8v0v12v0v72v0h-40v0v-72v0v-24v0h-48v0v24v0v72v0h-48v0v-72v0v-24v0h-48v0v24v0v72v0h-48v0v-72v0v-24v0h-48v0v24v0v72v0h-40v0v-24v0v-48v0l-64 -64v0zM464 163l48 54l-48 -54l48 54l-48 54v0v-108v0z" />
</svg>
