<?xml version="1.0" standalone="no"?>
<!DOCTYPE svg PUBLIC "-//W3C//DTD SVG 1.1//EN" "http://www.w3.org/Graphics/SVG/1.1/DTD/svg11.dtd" >
<svg xmlns="http://www.w3.org/2000/svg" xmlns:xlink="http://www.w3.org/1999/xlink" version="1.1" viewBox="-10 -40 468 512">
   <path fill="currentColor"
d="M40 129v48v-48v48h48v0v-48v0h-48v0zM0 89h40h-40h128v40v0v48v0v40v0h-40h-88v-40v0v-48v0v-40v0zM40 289v48v-48v48h48v0v-48v0h-48v0zM0 249h40h-40h128v40v0v48v0v40v0h-40h-88v-40v0v-48v0v-40v0zM248 129h-48h48h-48v48v0h48v0v-48v0zM200 89h48h-48h88v40v0v48v0
v40v0h-40h-88v-40v0v-48v0v-40v0h40v0zM200 289v48v-48v48h48v0v-48v0h-48v0zM160 249h40h-40h128v40v0v48v0v40v0h-40h-88v-40v0v-48v0v-40v0zM408 129h-48h48h-48v48v0h48v0v-48v0zM360 89h48h-48h88v40v0v48v0v40v0h-40h-88v-40v0v-48v0v-40v0h40v0zM360 289v48v-48v48
h48v0v-48v0h-48v0zM320 249h40h-40h128v40v0v48v0v40v0h-40h-88v-40v0v-48v0v-40v0z" />
</svg>
