<?xml version="1.0" standalone="no"?>
<!DOCTYPE svg PUBLIC "-//W3C//DTD SVG 1.1//EN" "http://www.w3.org/Graphics/SVG/1.1/DTD/svg11.dtd" >
<svg xmlns="http://www.w3.org/2000/svg" xmlns:xlink="http://www.w3.org/1999/xlink" version="1.1" viewBox="-10 -40 660 512">
   <path fill="currentColor"
d="M0 25q0 -1 15 -17v0v0q16 -15 44 -30v0v0q29 -16 69 -17q45 2 76 20q30 19 43 34l111 -52v0q5 -2 10 -2h248h24v48v0h-24h-243l-181 85v0q-4 66 -49 110q-44 43 -111 45h-16h-16v-16v0v-16v0q1 -47 24 -84t61 -57q-41 -13 -63 -31t-22 -20v0zM399 388q31 -40 33 -107
q-2 -67 -33 -107q-30 -38 -63 -37q-33 -1 -63 37q-31 40 -33 107q2 67 33 107q30 38 63 37q33 1 63 -37v0zM336 473q-61 -2 -102 -56v0v0q-40 -54 -42 -136q2 -82 42 -136q41 -54 102 -56q61 2 102 56q40 54 42 136q-2 82 -42 136q-41 54 -102 56v0zM466 433q14 -20 24 -43
q6 1 11 2q47 5 70 -20q24 -24 19 -76q-7 -53 -53 -103q-28 -28 -57 -42q-8 -13 -17 -25q-15 -21 -36 -37q37 1 74 19q38 18 70 51q57 61 67 131q9 69 -33 116q-26 26 -62 33q-37 6 -77 -6v0z" />
</svg>
