<?xml version="1.0" standalone="no"?>
<!DOCTYPE svg PUBLIC "-//W3C//DTD SVG 1.1//EN" "http://www.w3.org/Graphics/SVG/1.1/DTD/svg11.dtd" >
<svg xmlns="http://www.w3.org/2000/svg" xmlns:xlink="http://www.w3.org/1999/xlink" version="1.1" viewBox="-10 -40 532 512">
   <path fill="currentColor"
d="M464 41v352v-352v352h-416v0v-352v0h416v0zM48 -7h-48h48h-48v48v0v352v0v48v0h48h464v-48v0v-352v0v-48v0h-48h-416zM270 153l17 17l-17 -17l17 17l47 47v0l-47 47v0l-17 17v0l34 34v0l17 -17v0l64 -64v0l17 -17v0l-17 -17v0l-64 -64v0l-17 -17v0l-34 34v0zM225 170
l17 -17l-17 17l17 -17l-34 -34v0l-17 17v0l-64 64v0l-17 17v0l17 17v0l64 64v0l17 17v0l34 -34v0l-17 -17v0l-47 -47v0l47 -47v0z" />
</svg>
