<?xml version="1.0" standalone="no"?>
<!DOCTYPE svg PUBLIC "-//W3C//DTD SVG 1.1//EN" "http://www.w3.org/Graphics/SVG/1.1/DTD/svg11.dtd" >
<svg xmlns="http://www.w3.org/2000/svg" xmlns:xlink="http://www.w3.org/1999/xlink" version="1.1" viewBox="-10 -40 660 512">
   <path fill="currentColor"
d="M104 53q-25 13 -40 37v0v0q-16 25 -16 55v272v0v24v0h-48v0v-24v0v-272v0q2 -65 45 -107q42 -43 107 -45h5v0q38 0 71 17q32 17 54 48l116 168v0q19 26 46 40q28 15 60 15h8v0q34 -1 57 -23q22 -23 23 -57v-8v0q-1 -31 -18 -54q-18 -22 -46 -31v138v0q-8 3 -16 3h-8v0
q-13 0 -24 -3v-140v0q-25 3 -46 16l-18 11v0v62v0l-58 -83v0l51 -31v0q40 -24 87 -24h8v0q58 1 96 40q39 38 40 96v8v0v216v0v24v0h-48v0v-24v0v-116v0q-24 19 -56 26v90v0v24v0h-48v0v-24v0v-89v0q-25 -2 -48 -11v100v0v24v0h-48v0v-24v0v-128v0q-19 -15 -33 -36l-15 -21v0
v185v0v24v0h-48v0v-24v0v-254v0l-48 -69v0v323v0v24v0h-48v0v-24v0v-367v0q-20 -9 -43 -9h-5v0v376v0v24v0h-48v0v-24v0v-364v0z" />
</svg>
