<?xml version="1.0" standalone="no"?>
<!DOCTYPE svg PUBLIC "-//W3C//DTD SVG 1.1//EN" "http://www.w3.org/Graphics/SVG/1.1/DTD/svg11.dtd" >
<svg xmlns="http://www.w3.org/2000/svg" xmlns:xlink="http://www.w3.org/1999/xlink" version="1.1" viewBox="-10 -40 532 512">
   <path fill="currentColor"
d="M360 -39q-2 1 -20 25v0v0q-17 24 -20 55q0 24 8 37q7 13 21 25v0v0v0q5 4 11 10t10 11v0v0v0v0v0q12 14 25 21q13 8 37 8q31 -2 55 -20q24 -17 25 -20q0 -2 -20 -19q-20 -16 -54 -21l2 -2q17 -16 34 -38t28 -46l-44 -19v0q-8 17 -22 35t-30 34l-3 3q-2 1 -3 3v-1v-1
q-2 -37 -20 -58q-17 -22 -20 -22v0zM192 73q32 0 57 23l128 128v0q23 25 23 57q0 31 -22 64q-23 33 -72 56q-50 23 -130 24h-128v0v-128v0q1 -80 24 -130q23 -49 56 -72q34 -22 64 -22v0zM192 25q-75 1 -132 70v0v0q-57 70 -60 202v128v0v48v0h48h128q133 -3 202 -60
q70 -57 70 -132q0 -51 -37 -90l-128 -128v0q-40 -38 -91 -38v0zM181 150q8 -10 9 -22v0v0q1 -12 0 -13v0v0v0q-1 -1 -13 0t-22 9q-8 10 -9 22t0 13v0q1 1 13 0t22 -9v0zM157 238q8 -10 9 -22v0v0q1 -12 0 -13v0v0v0q-1 -1 -13 0t-22 9q-8 10 -9 22t0 13v0q1 1 13 0t22 -9v0z
M214 259q-1 -1 -13 0v0v0q-12 1 -22 9q-8 10 -9 22t0 13v0q1 1 13 0t22 -9q8 -10 9 -22t0 -13v0v0zM261 342q8 -10 9 -22v0v0q1 -12 0 -13v0v0v0q-1 -1 -13 0t-22 9q-8 10 -9 22t0 13v0q1 1 13 0t22 -9v0zM134 291q-1 -1 -13 0v0v0q-12 1 -22 9q-8 10 -9 22t0 13v0q1 1 13 0
t22 -9q8 -10 9 -22t0 -13v0v0zM173 374q8 -10 9 -22v0v0q1 -12 0 -13v0v0v0q-1 -1 -13 0t-22 9q-8 10 -9 22t0 13v0q1 1 13 0t22 -9v0zM246 179q-1 -1 -13 0v0v0q-12 1 -22 9q-8 10 -9 22t0 13v0q1 1 13 0t22 -9q8 -10 9 -22t0 -13v0v0zM285 262q8 -10 9 -22v0v0
q1 -12 0 -13v0v0v0q-1 -1 -13 0t-22 9q-8 10 -9 22t0 13t13 0t22 -9v0zM358 283q-1 -1 -13 0v0v0q-12 1 -22 9q-8 10 -9 22t0 13t13 0t22 -9q8 -10 9 -22t0 -13v0z" />
</svg>
