<?xml version="1.0" standalone="no"?>
<!DOCTYPE svg PUBLIC "-//W3C//DTD SVG 1.1//EN" "http://www.w3.org/Graphics/SVG/1.1/DTD/svg11.dtd" >
<svg xmlns="http://www.w3.org/2000/svg" xmlns:xlink="http://www.w3.org/1999/xlink" version="1.1" viewBox="-10 -40 532 512">
   <path fill="currentColor"
d="M145 73h28h-28h28l14 -24v0q23 -38 69 -40q46 2 69 40l14 24v0h28h1q41 1 68 28t28 68q-1 41 -28 68t-68 28h-34h-19l-14 14v0q-18 17 -45 18q-27 -1 -45 -18l-14 -14v0h-19h-34q-41 -1 -68 -28t-28 -68q1 -41 28 -68t68 -28h1v0zM256 -39q-36 0 -65 18v0v0
q-29 17 -46 46h-1v0q-61 2 -102 42q-40 41 -42 102q2 61 42 102q41 40 102 42h34v0q31 31 78 32q47 -1 78 -32h34v0q61 -2 102 -42q40 -41 42 -102q-2 -61 -42 -102q-41 -40 -102 -42h-1v0q-17 -29 -46 -46q-29 -18 -65 -18v0zM104 433h80h-80h80v-80v0h-80v0v80v0zM0 409
v64v-64v64h64v0v-64v0h-64v0z" />
</svg>
