<?xml version="1.0" standalone="no"?>
<!DOCTYPE svg PUBLIC "-//W3C//DTD SVG 1.1//EN" "http://www.w3.org/Graphics/SVG/1.1/DTD/svg11.dtd" >
<svg xmlns="http://www.w3.org/2000/svg" xmlns:xlink="http://www.w3.org/1999/xlink" version="1.1" viewBox="-10 -40 660 512">
   <path fill="currentColor"
d="M120 -7h-17h17h-17l-6 16v0l-44 128v0h-5h-48v48v0v128v0v48v0v80v0h48v0v-80v0h275v0q-3 -16 -3 -32q0 -8 1 -16h-273v0v-128v0h347v0q44 -31 101 -32q8 0 16 1v-17v0h-48h-5l-44 -128v0l-6 -16v0h-17h-272zM409 137h-306h306h-306l34 -96v0h238v0l34 96v0zM112 281
q14 0 23 -9v0v0q9 -9 9 -23t-9 -23t-23 -9t-23 9t-9 23t9 23t23 9v0zM496 473q39 0 72 -19v0v0q33 -19 53 -53q19 -34 19 -72t-19 -72q-20 -34 -53 -53t-72 -19t-72 19t-53 53q-19 34 -19 72t19 72q20 34 53 53t72 19v0zM520 249l-11 64l11 -64l-11 64h67v0l-104 96v0
l11 -64v0h-67v0l104 -96v0z" />
</svg>
