<?xml version="1.0" standalone="no"?>
<!DOCTYPE svg PUBLIC "-//W3C//DTD SVG 1.1//EN" "http://www.w3.org/Graphics/SVG/1.1/DTD/svg11.dtd" >
<svg xmlns="http://www.w3.org/2000/svg" xmlns:xlink="http://www.w3.org/1999/xlink" version="1.1" viewBox="-10 -40 532 512">
   <path fill="currentColor"
d="M464 217q0 -57 -28 -104v0v0q-27 -47 -76 -76q-49 -28 -104 -28t-104 28q-49 29 -76 76q-28 47 -28 104t28 104q27 47 76 76q49 28 104 28t104 -28q49 -29 76 -76q28 -47 28 -104v0zM0 217q1 -70 34 -128v0v0q34 -58 94 -94q61 -34 128 -34t128 34q60 36 94 94
q33 58 34 128q-1 70 -34 128q-34 58 -94 94q-61 34 -128 34t-128 -34q-60 -36 -94 -94q-33 -58 -34 -128v0zM231 294l25 20l-25 -20l25 20l25 -20v0l14 -11v0l14 10v0l32 21v0l10 -10v0l17 -17v0l34 34v0l-17 17v0l-24 24v0l-14 14v0l-16 -11v0l-34 -22v0l-26 21v0l-15 12v0
l-15 -12v0l-26 -21v0l-34 22v0l-16 11v0l-14 -14v0l-24 -24v0l-17 -17v0l34 -34v0l17 17v0l10 10v0l32 -21v0l14 -10v0l14 11v0zM112 137l119 64l-119 -64l119 64l-119 64v0l46 -64v0l-46 -64v0zM281 201l119 -64l-119 64l119 -64l-46 64v0l46 64v0l-119 -64v0z" />
</svg>
