<?xml version="1.0" standalone="no"?>
<!DOCTYPE svg PUBLIC "-//W3C//DTD SVG 1.1//EN" "http://www.w3.org/Graphics/SVG/1.1/DTD/svg11.dtd" >
<svg xmlns="http://www.w3.org/2000/svg" xmlns:xlink="http://www.w3.org/1999/xlink" version="1.1" viewBox="-10 -40 532 512">
   <path fill="currentColor"
d="M464 217q-2 88 -61 147v0v0q-59 59 -147 61q-88 -2 -147 -61t-61 -147q0 -25 6 -48h18v0q1 38 25 64q24 27 60 31l-4 3v0l-9 4v0v10v0v32v0v10v0l9 4v0l14 7v0l-19 25v0l-10 13v0l25 20v0l10 -13v0l23 -30v0l8 4v0l-11 26v0l-6 15v0l30 12v0l6 -15v0l9 -24v0l8 4v0v22v0
v16v0h32v0v-16v0v-22v0l8 -4v0l9 24v0l6 15v0l30 -12v0l-6 -15v0l-11 -26v0l8 -4v0l24 30v0l10 13v0l25 -20v0l-10 -13v0l-20 -24v0l14 -8v0l9 -4v0v-10v0v-32v0v-10v0l-9 -4v0l-4 -3v0q37 -4 60 -31q24 -26 25 -64h18v0q6 23 6 48v0zM231 182l-30 42l30 -42l-30 42v0v0
q-5 2 -7 4q-12 5 -26 5q-27 -1 -45 -19t-19 -45q1 -27 19 -45t45 -19q27 1 45 19t19 45q0 7 -1 13v0zM280 169q1 -27 19 -45v0v0q18 -18 45 -19q27 1 45 19t19 45q-1 27 -19 45t-45 19q-14 0 -26 -5q-2 -2 -7 -4v0v0l-30 -42v0q-1 -6 -1 -13v0zM499 137q-26 -78 -91 -126v0
v0q-66 -49 -152 -50q-86 1 -152 50q-65 48 -91 126h-13v0v32v0h5v0q-5 23 -5 48q1 72 35 129q34 58 92 92q57 34 129 35q72 -1 129 -35q58 -34 92 -92q34 -57 35 -129q0 -25 -4 -48h4v0v-32v0h-13v0zM64 137q9 -22 23 -41l6 13v0q-10 13 -15 28h-14v0zM448 137h-13h13h-13
q-6 -15 -16 -28l6 -13v0q14 19 23 41v0zM133 80l-7 -16l7 16l-7 -16l-3 -7v0q56 -47 133 -48q77 1 133 48l-3 7v0l-7 16v0q-1 -1 -2 -1h-1v-6v0v-24v0h-48v0v24v0v1v0q-2 1 -4 1l-9 -18v0l-43 21v0l9 19v0q-16 14 -25 34q-9 -20 -25 -34l9 -19v0l-43 -21v0l-9 18v0h-1t-3 -1
v-1v0v-24v0h-48v0v24v0v6v0q-2 0 -3 1v0zM256 202l51 72l-51 -72l51 72l2 4v0l4 1v0l23 12v0v12v0l-80 40v0l-80 -40v0v-12v0l23 -12v0l4 -1v0l2 -4v0l51 -72v0zM168 201q22 -2 24 -24q-2 -22 -24 -24q-22 2 -24 24q2 22 24 24v0zM368 177q-2 -22 -24 -24q-22 2 -24 24
q2 22 24 24q22 -2 24 -24v0z" />
</svg>
