<?xml version="1.0" standalone="no"?>
<!DOCTYPE svg PUBLIC "-//W3C//DTD SVG 1.1//EN" "http://www.w3.org/Graphics/SVG/1.1/DTD/svg11.dtd" >
<svg xmlns="http://www.w3.org/2000/svg" xmlns:xlink="http://www.w3.org/1999/xlink" version="1.1" viewBox="-10 -40 532 512">
   <path fill="currentColor"
d="M431 329h-79h79h-103v-48v0h24h88q22 -2 24 -24q-2 -22 -24 -24h-152h-24v-48v0h24h152q12 0 22 3q-12 -77 -69 -127q-56 -50 -137 -52q-88 2 -147 61t-61 147q2 88 61 147t147 61q56 -1 101 -26q46 -26 74 -70v0zM499 299q-27 77 -92 125v0v0q-65 48 -151 49
q-72 -1 -129 -35q-58 -34 -92 -92q-34 -57 -35 -129q1 -72 35 -129q34 -58 92 -92q57 -34 129 -35q72 1 129 35q58 34 92 92q34 57 35 129q0 13 -1 26q1 7 1 14q0 24 -13 42v0zM144 137q1 -14 10 -23v0v0q9 -9 22 -9q14 0 23 9t9 23t-9 23t-23 9q-13 0 -22 -9t-10 -23v0z
M304 137q1 -14 10 -23v0v0q9 -9 22 -9q14 0 23 9t9 23t-9 23t-23 9q-13 0 -22 -9t-10 -23v0zM195 351l-14 20l14 -20l-14 20l-39 -29v0l15 -19v0q30 -40 83 -42q22 0 42 9l22 9v0l-20 44v0l-22 -9v0q-10 -5 -22 -5q-28 1 -45 23v-1z" />
</svg>
