<?xml version="1.0" standalone="no"?>
<!DOCTYPE svg PUBLIC "-//W3C//DTD SVG 1.1//EN" "http://www.w3.org/Graphics/SVG/1.1/DTD/svg11.dtd" >
<svg xmlns="http://www.w3.org/2000/svg" xmlns:xlink="http://www.w3.org/1999/xlink" version="1.1" viewBox="-10 -40 532 512">
   <path fill="currentColor"
d="M448 297v-112v112v-112q-1 -48 -33 -79q-31 -32 -79 -33q-48 1 -79 33q-32 31 -33 79q1 48 33 79q31 32 79 33q48 -1 80 -34v84v0v1v2q-29 35 -70 55t-90 20q-88 -2 -147 -61t-61 -147q2 -88 61 -147t147 -61q25 0 48 6q-10 4 -19 11l-23 19v0l-12 10v0l20 25v0l12 -10v0
l23 -19v0q13 -10 28 -10q14 0 26 8l8 5v0l13 9v0l6 -8v0q36 29 57 71q21 41 21 91q0 43 -16 80v0zM454 380q56 -69 58 -163q-1 -72 -35 -129q-34 -58 -92 -92q-57 -34 -129 -35q-72 1 -129 35q-58 34 -92 92q-34 57 -35 129q1 72 35 129q34 58 92 92q57 34 129 35
q51 0 95 -18t79 -50q16 31 46 51l12 7v0l17 -27v0l-12 -8v0q-28 -18 -39 -48v0zM256 185q1 -45 40 -69q40 -22 80 0q39 24 40 69q-1 45 -40 69q-40 22 -80 0q-39 -24 -40 -69v0zM176 153q0 -14 -9 -23v0v0q-9 -9 -23 -9q-13 0 -22 9t-10 23q1 14 10 23t22 9q14 0 23 -9
t9 -23v0zM320 217q14 0 23 -9v0v0q9 -9 9 -23t-9 -23t-23 -9q-13 0 -22 9t-10 23q1 14 10 23t22 9v0zM144 297v32v-32v32h16v0q24 -1 61 12q35 12 53 43l7 14v0l29 -14v0l-8 -14v0q-12 -23 -30 -37q-19 -15 -40 -22q-43 -15 -72 -14h-16v0z" />
</svg>
