<?xml version="1.0" standalone="no"?>
<!DOCTYPE svg PUBLIC "-//W3C//DTD SVG 1.1//EN" "http://www.w3.org/Graphics/SVG/1.1/DTD/svg11.dtd" >
<svg xmlns="http://www.w3.org/2000/svg" xmlns:xlink="http://www.w3.org/1999/xlink" version="1.1" viewBox="-10 -40 660 512">
   <path fill="currentColor"
d="M35 55q22 -39 54 -70l45 12v0q-52 44 -80 109l-19 -51v0zM21 17l-21 -56l21 56l-21 -56l53 14v0q-17 20 -32 42v0zM320 425q45 0 83 -17v0v0q38 -17 67 -47h62v0q-36 51 -90 81q-55 30 -122 31q-72 -1 -129 -35q-58 -34 -92 -92q-34 -57 -35 -129q1 -72 35 -129
q34 -58 92 -92q57 -34 129 -35q86 1 152 50q65 48 91 126h-35h-16q-24 -57 -75 -92t-117 -36q-88 2 -147 61t-61 147q2 88 61 147t147 61v0zM197 199l-26 -20l26 20l-26 -20q28 -34 69 -34t69 34l-26 20v0q-17 -22 -43 -22t-43 22v0zM357 199l-26 -20l26 20l-26 -20
q28 -34 69 -34t69 34l-26 20v0q-17 -22 -43 -22t-43 22v0zM416 277q0 11 -7 18l-1 1q0 1 -1 1h201v0v-96v0h-64v0v32v0h32h16v32v0h-16h-64v-16v0v-64v0v-16v0h16h112v16v0v128v0v16v0h-16h-217q1 0 1 1l1 1q7 8 7 18q0 11 -7 18q-7 8 -17 14q-21 11 -48 12l-4 -15v0v0v0v0
v0v0v0v0v0v0v0h1v-1h1q1 -1 3 -2q4 -3 10 -7q6 -5 9 -10q4 -6 4 -9t-4 -9q-3 -5 -9 -10q-6 -4 -10 -7q-2 -1 -3 -2h-1v-1h-1v0v0v0v0v0v0v0v0v0v0v-14v0v0v0v0v0v0v0v0v0v0v0h1v-1h1q1 -1 3 -2q4 -3 10 -7q6 -5 9 -10q4 -6 4 -9t-4 -9q-3 -5 -9 -10q-6 -4 -10 -7
q-2 -1 -3 -2h-1v-1h-1v0v0v0v0v0v0v0v0v0v0l4 -15v0q27 1 48 12q10 6 17 14q6 7 7 18v0zM383 313h1v0v0v0v0v0v0h-1v0z" />
</svg>
