<?xml version="1.0" standalone="no"?>
<!DOCTYPE svg PUBLIC "-//W3C//DTD SVG 1.1//EN" "http://www.w3.org/Graphics/SVG/1.1/DTD/svg11.dtd" >
<svg xmlns="http://www.w3.org/2000/svg" xmlns:xlink="http://www.w3.org/1999/xlink" version="1.1" viewBox="-10 -40 532 512">
   <path fill="currentColor"
d="M464 217q0 -57 -28 -104v0v0q-27 -47 -76 -76q-49 -28 -104 -28t-104 28q-49 29 -76 76q-28 47 -28 104t28 104q27 47 76 76q49 28 104 28t104 -28q49 -29 76 -76q28 -47 28 -104v0zM0 217q1 -70 34 -128v0v0q34 -58 94 -94q61 -34 128 -34t128 34q60 36 94 94
q33 58 34 128q-1 70 -34 128q-34 58 -94 94q-61 34 -128 34t-128 -34q-60 -36 -94 -94q-33 -58 -34 -128v0zM295 369q-11 -14 -39 -16q-28 2 -38 16l-17 18v0l-35 -33v0l16 -17v0q11 -12 30 -22q18 -9 44 -10q26 1 44 10q19 10 30 22l16 17v0l-35 33v0l-17 -18h1zM223 73
l-12 11l12 -11l-12 11l-7 8v0q-37 36 -87 44l-2 1v0l-16 2v0l-5 -31v0l15 -3v0h3v0q40 -7 69 -36l8 -7v0l11 -12v0l23 23v0zM301 84l-12 -11l12 11l-12 -11l23 -23v0l11 12v0l8 7v0q29 29 69 36h3v0l15 3v0l-5 31v0l-16 -2v0l-2 -1v0q-51 -8 -87 -44l-7 -8v0zM112 169
l119 64l-119 -64l119 64l-119 64v0l46 -64v0l-46 -64v0zM281 233l119 -64l-119 64l119 -64l-46 64v0l46 64v0l-119 -64v0z" />
</svg>
