<?xml version="1.0" standalone="no"?>
<!DOCTYPE svg PUBLIC "-//W3C//DTD SVG 1.1//EN" "http://www.w3.org/Graphics/SVG/1.1/DTD/svg11.dtd" >
<svg xmlns="http://www.w3.org/2000/svg" xmlns:xlink="http://www.w3.org/1999/xlink" version="1.1" viewBox="-10 -40 532 512">
   <path fill="currentColor"
d="M464 217q0 -57 -28 -104v0v0q-27 -47 -76 -76q-49 -28 -104 -28t-104 28q-49 29 -76 76q-28 47 -28 104t28 104q27 47 76 76q49 28 104 28t104 -28q49 -29 76 -76q28 -47 28 -104v0zM0 217q1 -70 34 -128v0v0q34 -58 94 -94q61 -34 128 -34t128 34q60 36 94 94
q33 58 34 128q-1 70 -34 128q-34 58 -94 94q-61 34 -128 34t-128 -34q-60 -36 -94 -94q-33 -58 -34 -128v0zM267 373q-3 -3 -11 -4q-8 1 -10 4l-17 18v0l-35 -33v0l16 -17v0q14 -17 46 -20q32 3 45 20l17 17v0l-35 33v0l-17 -18h1zM160 249q27 -1 42 -24q12 -24 0 -48
q-15 -23 -42 -24q-27 1 -42 24q-12 24 0 48q15 23 42 24v0zM160 281q-34 -1 -57 -23v0v0q-22 -23 -23 -57q1 -29 18 -50l-4 -30v0l12 -1v0q40 -7 53 -46l2 -5v0l30 8v0l-1 6v0q-7 22 -22 38q31 4 51 26t21 54q-1 34 -23 57q-23 22 -57 23v0zM400 201q-1 -27 -24 -42
q-24 -12 -48 0q-23 15 -24 42q1 27 24 42q24 12 48 0q23 -15 24 -42v0zM432 201q-1 34 -23 57v0v0q-23 22 -57 23q-34 -1 -57 -23q-22 -23 -23 -57q1 -32 21 -54t51 -26q-15 -16 -22 -38l-1 -6v0l30 -8v0l2 5v0q13 39 54 46l11 1v0l-4 30v0q17 21 18 50v0zM128 201
q14 0 23 -9v0v0q9 -9 9 -23q14 0 23 9t9 23t-9 23t-23 9t-23 -9t-9 -23v0zM352 169q14 0 23 9v0v0q9 9 9 23t-9 23t-23 9t-23 -9t-9 -23q14 0 23 -9t9 -23v0z" />
</svg>
