<?xml version="1.0" standalone="no"?>
<!DOCTYPE svg PUBLIC "-//W3C//DTD SVG 1.1//EN" "http://www.w3.org/Graphics/SVG/1.1/DTD/svg11.dtd" >
<svg xmlns="http://www.w3.org/2000/svg" xmlns:xlink="http://www.w3.org/1999/xlink" version="1.1" viewBox="-10 -40 532 512">
   <path fill="currentColor"
d="M256 9q-57 0 -104 28v0v0q-47 27 -76 76q-28 49 -28 104t28 104q29 49 76 76q47 28 104 28t104 -28q47 -27 76 -76q28 -49 28 -104t-28 -104q-29 -49 -76 -76q-47 -28 -104 -28v0zM512 217q-1 70 -34 128v0v0q-34 58 -94 94q-61 34 -128 34t-128 -34q-60 -36 -94 -94
q-33 -58 -34 -128q1 -70 34 -128q34 -58 94 -94q61 -34 128 -34t128 34q60 36 94 94q33 58 34 128v0zM144 201q1 -14 10 -23v0v0q9 -9 22 -9q14 0 23 9t9 23t-9 23t-23 9q-13 0 -22 -9t-10 -23v0zM336 169q14 0 23 9v0v0q9 9 9 23t-9 23t-23 9q-13 0 -22 -9t-10 -23
q1 -14 10 -23t22 -9v0zM160 289h24h-24h192v48v0h-24h-168v-48v0zM329 103l-30 29l30 -29l-30 29l-11 12v0l-23 -23v0l12 -11v0l29 -30v0q20 -18 45 -16q25 3 41 25l5 7v0l9 13v0l-26 18v0l-9 -13v0l-5 -7v0q-7 -10 -18 -11t-19 7v0zM128 105h64h-64h80v32v0h-16h-80v-32v0
h16v0z" />
</svg>
