<?xml version="1.0" standalone="no"?>
<!DOCTYPE svg PUBLIC "-//W3C//DTD SVG 1.1//EN" "http://www.w3.org/Graphics/SVG/1.1/DTD/svg11.dtd" >
<svg xmlns="http://www.w3.org/2000/svg" xmlns:xlink="http://www.w3.org/1999/xlink" version="1.1" viewBox="-10 -40 532 512">
   <path fill="currentColor"
d="M464 217q0 -57 -28 -104v0v0q-27 -47 -76 -76q-49 -28 -104 -28t-104 28q-49 29 -76 76q-28 47 -28 104t28 104q27 47 76 76q49 28 104 28t104 -28q49 -29 76 -76q28 -47 28 -104v0zM0 217q1 -70 34 -128v0v0q34 -58 94 -94q61 -34 128 -34t128 34q60 36 94 94
q33 58 34 128q-1 70 -34 128q-34 58 -94 94q-61 34 -128 34t-128 -34q-60 -36 -94 -94q-33 -58 -34 -128v0zM193 304q9 9 25 17v0v0q15 8 38 8t38 -8q16 -8 25 -17l17 -17v0l34 34v0l-17 17v0q-14 15 -39 27q-24 11 -58 12q-34 -1 -58 -12q-25 -12 -39 -27l-17 -17v0l34 -34
v0l17 17v0zM392 199l32 24l-32 -24l32 24q-30 36 -72 36q-43 0 -72 -36l32 -24v0q16 20 40 20q23 0 40 -20v0zM120 199q16 20 40 20v0v0q23 0 40 -20l32 24v0q-30 36 -72 36q-43 0 -72 -36l32 -24v0zM212 83l-15 5l15 -5l-15 5l-6 2v0q-37 13 -58 44l-8 12v0l-9 13v0
l-26 -18v0l9 -13v0l7 -11v0q28 -41 75 -57l6 -2v0l15 -5v0l10 30v0zM315 88l-15 -5l15 5l-15 -5l10 -30v0l15 5v0l6 2v0q47 16 75 57l7 11v0l9 13v0l-26 18v0l-9 -13v0l-8 -12v0q-21 -31 -58 -44l-6 -2v0z" />
</svg>
