<?xml version="1.0" standalone="no"?>
<!DOCTYPE svg PUBLIC "-//W3C//DTD SVG 1.1//EN" "http://www.w3.org/Graphics/SVG/1.1/DTD/svg11.dtd" >
<svg xmlns="http://www.w3.org/2000/svg" xmlns:xlink="http://www.w3.org/1999/xlink" version="1.1" viewBox="-10 -40 586 512">
   <path fill="currentColor"
d="M496 217q-2 88 -61 147v0v0q-59 59 -147 61q-50 0 -91 -21q-42 -21 -71 -57q-7 26 -27 43q36 39 84 61q49 22 105 22q72 -1 129 -35q58 -34 92 -92q34 -57 35 -129q-1 -72 -35 -129q-34 -58 -92 -92q-57 -34 -129 -35q-72 1 -129 35q-58 34 -92 92q-34 57 -35 129l16 -21
v0l26 34v0l7 10v0q-1 -11 -1 -23q2 -88 61 -147t147 -61q88 2 147 61t61 147v0zM36 265l-26 35l26 -35l-26 35q-10 13 -10 29q1 20 14 34q14 13 34 14q18 0 31 -12q16 -14 17 -36q0 -16 -10 -29l-18 -24v0l-20 -27v0l-12 16v0zM343 387l35 -33l-35 33l35 -33l-16 -17v0
q-11 -12 -30 -22q-18 -9 -44 -10q-26 1 -44 10q-19 10 -29 22l-17 17v0l35 33v0l17 -18v0q11 -14 38 -16q28 2 39 16l16 18v0zM368 265q13 0 22 -9v0v0q9 -9 10 -23q-1 -14 -10 -23t-22 -9q-14 0 -23 9t-9 23t9 23t23 9v0zM176 233q0 14 9 23v0v0q9 9 23 9q13 0 22 -9
t10 -23q-1 -14 -10 -23t-22 -9q-14 0 -23 9t-9 23v0zM227 132l12 -11l-12 11l12 -11l-23 -23v0l-11 12v0l-8 7v0q-29 29 -69 36h-3v0l-15 3v0l5 31v0l16 -2v0l2 -1v0q51 -8 87 -44l7 -8v0zM337 121l12 11l-12 -11l12 11l7 8v0q37 36 87 44l2 1v0l16 2v0l5 -31v0l-15 -3v0h-3
v0q-40 -7 -69 -36l-8 -7v0l-11 -12v0l-23 23v0z" />
</svg>
