<?xml version="1.0" standalone="no"?>
<!DOCTYPE svg PUBLIC "-//W3C//DTD SVG 1.1//EN" "http://www.w3.org/Graphics/SVG/1.1/DTD/svg11.dtd" >
<svg xmlns="http://www.w3.org/2000/svg" xmlns:xlink="http://www.w3.org/1999/xlink" version="1.1" viewBox="-10 -40 650 512">
   <path fill="currentColor"
d="M524 260q4 -21 4 -43q-2 -88 -61 -147t-147 -61q-88 2 -147 61t-61 147q0 22 5 43l-14 -11v0l-21 18v0l-11 10v0q-7 -29 -7 -60q1 -72 35 -129q34 -58 92 -92q57 -34 129 -35q72 1 129 35q58 34 92 92q34 57 35 129q0 31 -7 60l-11 -10v0l-21 -18v0l-14 11h1zM433 392
q-10 30 -15 62q-45 19 -98 19q-52 0 -98 -19q-5 -32 -15 -62q50 32 113 33q63 -1 113 -33v0zM183 244q-20 -12 -23 -39v0v0q-2 -26 15 -55q17 -28 43 -39q25 -12 47 -1q20 12 23 39q2 26 -15 55q-17 28 -43 39q-25 11 -47 1v0zM457 244q-22 10 -47 -1v0v0q-26 -11 -43 -39
q-17 -29 -15 -55q3 -27 23 -39q22 -11 47 1q26 11 43 39q17 29 15 55q-3 27 -23 39v0zM320 265q20 1 34 14v0v0q13 14 14 34v32v0q-1 20 -14 34q-14 13 -34 14q-20 -1 -34 -14q-13 -14 -14 -34v-32v0q1 -20 14 -34q14 -13 34 -14v0zM192 473h-110h110h-110q0 -37 -11 -67
q-12 -29 -32 -59l64 -56v0q41 35 62 82q22 48 27 100v0zM558 473h-110h110h-110q5 -52 27 -100q21 -47 62 -82l64 56v0q-20 30 -32 59q-11 30 -11 67v0z" />
</svg>
