<?xml version="1.0" standalone="no"?>
<!DOCTYPE svg PUBLIC "-//W3C//DTD SVG 1.1//EN" "http://www.w3.org/Graphics/SVG/1.1/DTD/svg11.dtd" >
<svg xmlns="http://www.w3.org/2000/svg" xmlns:xlink="http://www.w3.org/1999/xlink" version="1.1" viewBox="-10 -40 532 512">
   <path fill="currentColor"
d="M464 217q-2 -88 -61 -147v0v0q-59 -59 -147 -61q-88 2 -147 61t-61 147q2 88 61 147t147 61q44 0 83 -17q6 1 13 1q33 -1 56 -23t24 -56v-1v-1q31 -49 32 -111v0zM280 369h-24h24h-24q-44 -1 -74 -18q-31 -17 -48 -38l-16 -18v0l37 -32v0l15 18v0q13 16 34 27
q22 12 52 13h17v0q-1 4 -1 9q0 19 8 35v4v0zM0 217q1 -70 34 -128v0v0q34 -58 94 -94q61 -34 128 -34t128 34q60 36 94 94q33 58 34 128q-1 70 -34 128q-34 58 -94 94q-61 34 -128 34t-128 -34q-60 -36 -94 -94q-33 -58 -34 -128v0zM352 249l38 51l-38 -51l38 51
q10 13 10 29q-1 20 -14 34q-14 13 -34 14q-20 -1 -34 -14q-13 -14 -14 -34q0 -16 10 -29l38 -51v0zM144 169q1 -14 10 -23v0v0q9 -9 22 -9q14 0 23 9t9 23t-9 23t-23 9q-13 0 -22 -9t-10 -23v0zM336 137q14 0 23 9v0v0q9 9 9 23t-9 23t-23 9q-13 0 -22 -9t-10 -23
q1 -14 10 -23t22 -9v0z" />
</svg>
