<?xml version="1.0" standalone="no"?>
<!DOCTYPE svg PUBLIC "-//W3C//DTD SVG 1.1//EN" "http://www.w3.org/Graphics/SVG/1.1/DTD/svg11.dtd" >
<svg xmlns="http://www.w3.org/2000/svg" xmlns:xlink="http://www.w3.org/1999/xlink" version="1.1" viewBox="-10 -40 532 512">
   <path fill="currentColor"
d="M464 217q-2 88 -61 147v0v0q-59 59 -147 61q-19 0 -38 -3l-9 47v0q23 4 47 4q72 -1 129 -35q58 -34 92 -92q34 -57 35 -129q-1 -72 -35 -129q-34 -58 -92 -92q-57 -34 -129 -35q-72 1 -129 35q-58 34 -92 92q-34 57 -35 129q0 24 4 47l47 -9v0q-3 -19 -3 -38
q2 -88 61 -147t147 -61q88 2 147 61t61 147v0zM241 348l15 12l-15 -12l15 12l15 -12v0l26 -21v0l34 22v0l16 11v0l14 -14v0l24 -24v0l17 -17v0l-34 -34v0l-17 17v0l-10 10v0l-32 -21v0l-14 -10v0l-14 11v0l-25 20v0l-13 -10v0l-10 53v0l8 7v0zM112 89l46 64l-46 -64l46 64
l-46 64v0l119 -64v0l-119 -64v0zM281 153l119 64l-119 -64l119 64l-46 -64v0l46 -64v0l-119 64v0zM216 257l-216 40l216 -40l-216 40l64 48v0l-32 96v0l96 -32v0l48 64v0l40 -216v0z" />
</svg>
