<?xml version="1.0" standalone="no"?>
<!DOCTYPE svg PUBLIC "-//W3C//DTD SVG 1.1//EN" "http://www.w3.org/Graphics/SVG/1.1/DTD/svg11.dtd" >
<svg xmlns="http://www.w3.org/2000/svg" xmlns:xlink="http://www.w3.org/1999/xlink" version="1.1" viewBox="-10 -40 586 512">
   <path fill="currentColor"
d="M496 217q-1 62 -32 111v0v0q-31 49 -84 75q4 -12 4 -26v-15v0q16 -11 16 -25q-1 -20 -33 -34q-31 -13 -79 -14q-48 1 -79 14q-32 14 -33 34q0 14 16 25v15v0q0 14 4 26q-41 -20 -70 -56q-7 26 -27 43q36 39 84 61q49 22 105 22q72 -1 129 -35q58 -34 92 -92
q34 -57 35 -129q-1 -72 -35 -129q-34 -58 -92 -92q-57 -34 -129 -35q-72 1 -129 35q-58 34 -92 92q-34 57 -35 129l16 -21v0l26 34v0l7 10v0q-1 -11 -1 -23q2 -88 61 -147t147 -61q88 2 147 61t61 147v0zM96 329q0 -16 -10 -29l-18 -24v0l-20 -27v0l-12 16v0l-26 35v0
q-10 13 -10 29q1 20 14 34q14 13 34 14q18 0 31 -12q16 -14 17 -36v0zM336 233q0 14 9 23v0v0q9 9 23 9q13 0 22 -9t10 -23q-1 -14 -10 -23t-22 -9q-14 0 -23 9t-9 23v0zM208 265q13 0 22 -9v0v0q9 -9 10 -23q-1 -14 -10 -23t-22 -9q-14 0 -23 9t-9 23t9 23t23 9v0zM239 121
l-23 -23l23 23l-23 -23l-11 12v0l-8 7v0q-29 29 -69 36h-3v0l-15 3v0l5 31v0l16 -2v0l2 -1v0q51 -8 87 -44l7 -8v0l12 -11v0zM349 132l7 8l-7 -8l7 8q37 36 87 44l2 1v0l16 2v0l6 -31v0l-16 -3v0h-3v0q-40 -7 -69 -36l-8 -7v0l-11 -12v0l-23 23v0l12 11v0zM288 441
q-27 -1 -45 -19v0v0q-18 -18 -19 -45v-48v0h48v0v24v0h32v0v-24v0h48v0v48v0q-1 27 -19 45t-45 19v0z" />
</svg>
