<?xml version="1.0" standalone="no"?>
<!DOCTYPE svg PUBLIC "-//W3C//DTD SVG 1.1//EN" "http://www.w3.org/Graphics/SVG/1.1/DTD/svg11.dtd" >
<svg xmlns="http://www.w3.org/2000/svg" xmlns:xlink="http://www.w3.org/1999/xlink" version="1.1" viewBox="-10 -40 596 512">
   <path fill="currentColor"
d="M496 217q0 48 -20 89v0v0q-19 40 -53 69q9 15 26 21l17 6v0q36 -36 57 -83t21 -102q-1 -72 -35 -129q-34 -58 -92 -92q-57 -34 -129 -35q-72 1 -129 35q-58 34 -92 92q-34 57 -35 129q0 55 21 102t58 83l16 -6v0q17 -6 26 -21q-34 -29 -53 -69q-20 -41 -20 -89
q2 -88 61 -147t147 -61q88 2 147 61t61 147v0zM263 169l-119 -64l119 64l-119 -64l46 64v0l-46 64v0l119 -64v0zM432 105l-119 64l119 -64l-119 64l119 64v0l-46 -64v0l46 -64v0zM32 473q14 0 23 -9v0v0q9 -9 9 -23t-9 -23t-23 -9t-23 9t-9 23t9 23t23 9v0zM576 409
q0 -14 -9 -23v0v0q-9 -9 -23 -9t-23 9t-9 23t9 23t23 9t23 -9t9 -23v0zM384 357v-58v58v-58q16 7 23 11l13 9v0l18 -26v0l-13 -9v0q-15 -11 -50 -22q-36 -12 -87 -13q-51 1 -87 13q-35 11 -50 22l-13 9v0l18 26v0l13 -9v0q7 -4 23 -11v58v0q0 24 -14 42q-13 19 -35 26
l-47 16v0v32v0h384v0v-32v0l-47 -16v0q-22 -7 -35 -26q-14 -18 -14 -42v0zM304 377q-15 -1 -16 -16q1 -15 16 -16q15 1 16 16q-1 15 -16 16v0zM224 393q1 -15 16 -16q15 1 16 16q-1 15 -16 16q-15 -1 -16 -16v0z" />
</svg>
