<?xml version="1.0" standalone="no"?>
<!DOCTYPE svg PUBLIC "-//W3C//DTD SVG 1.1//EN" "http://www.w3.org/Graphics/SVG/1.1/DTD/svg11.dtd" >
<svg xmlns="http://www.w3.org/2000/svg" xmlns:xlink="http://www.w3.org/1999/xlink" version="1.1" viewBox="-10 -40 532 512">
   <path fill="currentColor"
d="M464 217q0 -57 -28 -104v0v0q-27 -47 -76 -76q-49 -28 -104 -28t-104 28q-49 29 -76 76q-28 47 -28 104t28 104q27 47 76 76q49 28 104 28t104 -28q49 -29 76 -76q28 -47 28 -104v0zM0 217q1 -70 34 -128v0v0q34 -58 94 -94q61 -34 128 -34t128 34q60 36 94 94
q33 58 34 128q-1 70 -34 128q-34 58 -94 94q-61 34 -128 34t-128 -34q-60 -36 -94 -94q-33 -58 -34 -128v0zM256 361q-59 1 -104 31q4 -41 33 -68q29 -26 71 -27q41 1 70 27q29 27 33 68q-44 -30 -103 -31v0zM144 233q1 -14 10 -23v0v0q9 -9 22 -9q14 0 23 9t9 23t-9 23
t-23 9q-13 0 -22 -9t-10 -23v0zM336 201q14 0 23 9v0v0q9 9 9 23t-9 23t-23 9q-13 0 -22 -9t-10 -23q1 -14 10 -23t22 -9v0zM192 121q-7 0 -13 1q-32 5 -56 27l-12 11v0l-22 -24v0l12 -11v0q31 -29 74 -35q8 -1 17 -1h16v0v32v0h-16v0zM333 122q-6 -1 -13 -1h-16v0v-32v0h16
v0q9 0 17 1q43 6 74 35l12 11v0l-22 24v0l-12 -11v0q-24 -22 -56 -27v0z" />
</svg>
