<?xml version="1.0" standalone="no"?>
<!DOCTYPE svg PUBLIC "-//W3C//DTD SVG 1.1//EN" "http://www.w3.org/Graphics/SVG/1.1/DTD/svg11.dtd" >
<svg xmlns="http://www.w3.org/2000/svg" xmlns:xlink="http://www.w3.org/1999/xlink" version="1.1" viewBox="-11 0 534 512">
   <path fill="currentColor"
d="M436 113q-46 -75 -126 -97v0v0q-80 -21 -158 21q-75 46 -97 126q-21 80 21 158q39 65 106 91q-6 -17 -6 -35v-12v0q-24 -16 -42 -41l276 -159v0q22 50 10 101q-11 51 -52 87v24v0q0 8 -1 16q71 -47 91 -126q19 -78 -22 -154v0zM384 439q-42 24 -87 31q-12 3 -25 3h-5h-1
q-70 2 -132 -31t-100 -97q-35 -62 -34 -129t34 -126q33 -58 94 -95q62 -35 129 -34t126 34q58 33 95 94q35 62 34 129t-34 126q-33 58 -94 95v0zM296 121q-17 -1 -23 -18q-1 5 -1 10q0 17 12 28q11 12 28 12t28 -12q12 -11 12 -28t-12 -28q-11 -12 -28 -12q-5 0 -9 1
q16 6 17 23q-2 22 -24 24v0zM312 41q41 1 62 36q20 36 0 72q-21 35 -62 36q-41 -1 -62 -36q-20 -36 0 -72q21 -35 62 -36v0zM176 185q0 -14 -9 -23v0v0q-9 -9 -23 -9t-23 9t-9 23t9 23t23 9t23 -9t9 -23v0zM80 185q1 -36 32 -55q32 -18 64 0q31 19 32 55q-1 36 -32 55
q-32 18 -64 0q-31 -19 -32 -55v0zM128 185q1 -15 16 -16q15 1 16 16q-1 15 -16 16q-15 -1 -16 -16v0zM272 441q27 -1 45 -19v0v0q18 -18 19 -45v-48v0h-48v0v24v0h-32v0v-24v0h-48v0v48v0q1 27 19 45t45 19v0z" />
</svg>
