<?xml version="1.0" standalone="no"?>
<!DOCTYPE svg PUBLIC "-//W3C//DTD SVG 1.1//EN" "http://www.w3.org/Graphics/SVG/1.1/DTD/svg11.dtd" >
<svg xmlns="http://www.w3.org/2000/svg" xmlns:xlink="http://www.w3.org/1999/xlink" version="1.1" viewBox="-10 -40 596 512">
   <path fill="currentColor"
d="M48 425h272h-272h272v48v0h-272h-48v-48v0v-416v0v-48v0h48h208l128 128v0v66v0q-31 31 -32 78v16v0h-16v0v-128v0h-112v0v-112v0h-176v0v416v0zM464 201q-14 0 -23 9v0v0q-9 9 -9 23v48v0h64v0v-48v0q0 -14 -9 -23t-23 -9v0zM384 233q1 -34 23 -57v0v0q23 -22 57 -23
q34 1 57 23q22 23 23 57v48v0h32v0v192v0h-224v0v-192v0h32v0v-48v0z" />
</svg>
