<?xml version="1.0" standalone="no"?>
<!DOCTYPE svg PUBLIC "-//W3C//DTD SVG 1.1//EN" "http://www.w3.org/Graphics/SVG/1.1/DTD/svg11.dtd" >
<svg xmlns="http://www.w3.org/2000/svg" xmlns:xlink="http://www.w3.org/1999/xlink" version="1.1" viewBox="-10 -40 532 512">
   <path fill="currentColor"
d="M0 -39h512h-512h512v48v0h-512v0v-48v0zM80 105v32v-32v32h32v0v-32v0h-32v0zM32 57h48h-48h128v48v0v32v0v48v0h-48h-80v-48v0v-32v0v-48v0zM80 393v32v-32v32h32v0v-32v0h-32v0zM32 345h48h-48h128v48v0v32v0v48v0h-48h-80v-48v0v-32v0v-48v0zM272 105h-32h32h-32v32v0
h32v0v-32v0zM240 57h32h-32h80v48v0v32v0v48v0h-48h-80v-48v0v-32v0v-48v0h48v0zM240 393v32v-32v32h32v0v-32v0h-32v0zM192 345h48h-48h128v48v0v32v0v48v0h-48h-80v-48v0v-32v0v-48v0zM432 105h-32h32h-32v32v0h32v0v-32v0zM400 57h32h-32h80v48v0v32v0v48v0h-48h-80v-48
v0v-32v0v-48v0h48v0zM400 393v32v-32v32h32v0v-32v0h-32v0zM352 345h48h-48h128v48v0v32v0v48v0h-48h-80v-48v0v-32v0v-48v0zM512 249v48v-48v48h-512v0v-48v0h512v0z" />
</svg>
