<?xml version="1.0" standalone="no"?>
<!DOCTYPE svg PUBLIC "-//W3C//DTD SVG 1.1//EN" "http://www.w3.org/Graphics/SVG/1.1/DTD/svg11.dtd" >
<svg xmlns="http://www.w3.org/2000/svg" xmlns:xlink="http://www.w3.org/1999/xlink" version="1.1" viewBox="-10 -40 650 512">
   <path fill="currentColor"
d="M328 -7h24h-24h105l6 16v0l15 45v0l58 -29v0h32v0v96v0h-32v0l-42 -21v0l30 85v0h6h6q67 2 112 46l-33 34v0q-32 -31 -79 -32q-40 1 -70 24q-29 24 -39 62q-3 12 -3 26h-32h-112q-1 41 -28 68t-68 28q-41 -1 -68 -28t-28 -68h-16h-48v-48v0v-16v0q1 -54 37 -91
q37 -36 91 -37h80h48v48v0v48v0v48v0h48h55q11 -35 36 -61q24 -26 58 -40l-54 -155v0h-47h-24v-48v0zM256 73v48v-48v48h-160v0v-48v0h160v0zM208 297v-96v96v-96h-80v0q-34 1 -57 23q-22 23 -23 57v16v0h160v0zM160 393q20 -1 34 -14v0v0q13 -14 14 -34h-96v0q1 20 14 34
q14 13 34 14v0zM512 393q27 -1 42 -24q12 -24 0 -48q-15 -23 -42 -24q-27 1 -42 24q-12 24 0 48q15 23 42 24v0zM512 249q26 0 48 13v0v0q22 13 35 35q13 23 13 48t-13 48q-13 22 -35 35t-48 13t-48 -13t-35 -35q-13 -23 -13 -48t13 -48q13 -22 35 -35t48 -13v0z" />
</svg>
