<?xml version="1.0" standalone="no"?>
<!DOCTYPE svg PUBLIC "-//W3C//DTD SVG 1.1//EN" "http://www.w3.org/Graphics/SVG/1.1/DTD/svg11.dtd" >
<svg xmlns="http://www.w3.org/2000/svg" xmlns:xlink="http://www.w3.org/1999/xlink" version="1.1" viewBox="-10 -40 532 512">
   <path fill="currentColor"
d="M512 473h-512h512h-512v-48v0h512v0v48v0zM176 297v-288v288v-288h-64v0v288v0h64v0zM112 345h-48h48h-48v-48v0v-288v0v-48v0h48h112v48v0v288v0v48v0h-48h-64zM400 297v-160v160v-160h-64v0v160v0h64v0zM336 345h-48h48h-48v-48v0v-160v0v-48v0h48h112v48v0v160v0v48v0
h-48h-64z" />
</svg>
