<?xml version="1.0" standalone="no"?>
<!DOCTYPE svg PUBLIC "-//W3C//DTD SVG 1.1//EN" "http://www.w3.org/Graphics/SVG/1.1/DTD/svg11.dtd" >
<svg xmlns="http://www.w3.org/2000/svg" xmlns:xlink="http://www.w3.org/1999/xlink" version="1.1" viewBox="-10 -40 532 512">
   <path fill="currentColor"
d="M512 473v-512v512v-512h-48v0v512v0h48v0zM336 137h-288h288h-288v-64v0h288v0v64v0zM384 73v-48v48v-48h-48h-336v48v0v64v0v48v0h48h336v-48v0v-64v0zM336 361h-160h160h-160v-64v0h160v0v64v0zM384 297v-48v48v-48h-48h-208v48v0v64v0v48v0h48h208v-48v0v-64v0z" />
</svg>
