<?xml version="1.0" standalone="no"?>
<!DOCTYPE svg PUBLIC "-//W3C//DTD SVG 1.1//EN" "http://www.w3.org/Graphics/SVG/1.1/DTD/svg11.dtd" >
<svg xmlns="http://www.w3.org/2000/svg" xmlns:xlink="http://www.w3.org/1999/xlink" version="1.1" viewBox="-10 -40 660 512">
   <path fill="currentColor"
d="M501 -39h2h-2h139v48v0h-24h-88l-115 190v0l9 6v0l19 14v0l-13 20v0l-109 160v0q-24 35 -61 54q-36 20 -78 20h-12v0q-71 -2 -119 -49q-47 -48 -49 -119v-144v0v-24v0h24h248v24v0v41v0l37 -48v0l14 -18v0l19 13v0l6 5v0l147 -183v0l6 -10v0zM48 185v120v-120v120
q1 51 35 85t85 35h12v0q30 0 56 -14t43 -39l96 -141v0l-42 -29v0l-66 86v0l-43 -15v0v-88v0h-176v0z" />
</svg>
