<?xml version="1.0" standalone="no"?>
<!DOCTYPE svg PUBLIC "-//W3C//DTD SVG 1.1//EN" "http://www.w3.org/Graphics/SVG/1.1/DTD/svg11.dtd" >
<svg xmlns="http://www.w3.org/2000/svg" xmlns:xlink="http://www.w3.org/1999/xlink" version="1.1" viewBox="-10 -40 404 512">
   <path fill="currentColor"
d="M192 113q-34 -1 -57 -23v0v0q-22 -23 -23 -57v-48v0v-24v0h-48v0v24v0v48v0v50v0l-61 123v0l-3 5v0v6v0v232v0v24v0h24h360v-24v0v-232v0v-6v0l-2 -5v0l-62 -123v0v-50v0v-48v0v-24v0h-48v0v24v0v48v0q-1 34 -23 57q-23 22 -57 23v0zM192 161q57 -2 93 -40l22 44v0h-1v1
l-258 186v0v-129v0l51 -102v0q36 38 93 40v0zM48 411l281 -203l-281 203l281 -203l7 15v0v202v0h-288v0v-14v0z" />
</svg>
