<?xml version="1.0" standalone="no"?>
<!DOCTYPE svg PUBLIC "-//W3C//DTD SVG 1.1//EN" "http://www.w3.org/Graphics/SVG/1.1/DTD/svg11.dtd" >
<svg xmlns="http://www.w3.org/2000/svg" xmlns:xlink="http://www.w3.org/1999/xlink" version="1.1" viewBox="-10 -40 404 512">
   <path fill="currentColor"
d="M112 33q1 34 23 57v0v0q23 22 57 23q34 -1 57 -23q22 -23 23 -57v-48v0v-24v0h48v0v24v0v48v0v50v0l62 123v0l2 5v0v6v0v232v0v24v0h-24h-360v-24v0v-232v0v-6v0l3 -5v0l61 -123v0v-50v0v-48v0v-24v0h48v0v24v0v48v0zM285 121q-36 38 -93 40q-57 -2 -93 -40l-51 102v0
v202v0h288v0v-202v0l-51 -102v0z" />
</svg>
