<?xml version="1.0" standalone="no"?>
<!DOCTYPE svg PUBLIC "-//W3C//DTD SVG 1.1//EN" "http://www.w3.org/Graphics/SVG/1.1/DTD/svg11.dtd" >
<svg xmlns="http://www.w3.org/2000/svg" xmlns:xlink="http://www.w3.org/1999/xlink" version="1.1" viewBox="-10 -40 660 512">
   <path fill="currentColor"
d="M372 -39l-3 20l3 -20l-3 20l-3 12v0h-190h-19l-4 19v0l-72 336v0l-7 29v0h30h376v-24v0v-104v0v-14v0l-13 -7v0l-88 -48v0l17 -86v0l10 -52v0l10 -52v0l5 -29v0h-49v0zM262 41h95h-95h95l-9 44v0l-7 36v0h-37h-16v32v0h16h31l-6 32v0h-41h-16v32v0h16h58l86 46v0v66v0
h-298v0l24 -112v0h55h13l2 -13v0l34 -163v0zM230 41l-30 144l30 -144l-30 144h-35v0l30 -144v0h35v0zM640 369v-24v24v-24h-48v0v24v0v56v0h-568h-24v48v0h24h616v-24v0v-80v0z" />
</svg>
