<?xml version="1.0" standalone="no"?>
<!DOCTYPE svg PUBLIC "-//W3C//DTD SVG 1.1//EN" "http://www.w3.org/Graphics/SVG/1.1/DTD/svg11.dtd" >
<svg xmlns="http://www.w3.org/2000/svg" xmlns:xlink="http://www.w3.org/1999/xlink" version="1.1" viewBox="-10 -40 660 512">
   <path fill="currentColor"
d="M117 -39h15h-15h138l6 13v0l59 114v0l59 -114v0l6 -13v0h15h123l6 12v0l108 196v0l3 6v0v6v0v204v0v24v0h-24h-120v-24v0v-173v0l-16 -30v0v67v0h-48v0v-160v0l45 -12v0l64 117v0l3 5v0v6v0v156v0h48v0v-174v0l-98 -178v0h-79v0l-74 143v0l-50 97v0h-54v0l56 -108v0
l-68 -132v0h-79v0l-98 178v0v174v0h48v0v-156v0v-6v0l3 -5v0l64 -117v0l45 12v0v160v0h-48v0v-67v0l-16 30v0v173v0v24v0h-24h-120v-24v0v-204v0v-6v0l3 -6v0l108 -196v0l6 -12v0zM432 345h48h-48h48v104v0v24v0h-24h-296v-24v0v-104v0h48v0v80v0h224v0v-80v0zM176 281h144
h-144h304v32v0h-16h-114l47 71v0l-26 18v0l-51 -76v0l-51 76v0l-26 -18v0l47 -71v0h-114h-16v-32v0h16v0z" />
</svg>
