<?xml version="1.0" standalone="no"?>
<!DOCTYPE svg PUBLIC "-//W3C//DTD SVG 1.1//EN" "http://www.w3.org/Graphics/SVG/1.1/DTD/svg11.dtd" >
<svg xmlns="http://www.w3.org/2000/svg" xmlns:xlink="http://www.w3.org/1999/xlink" version="1.1" viewBox="-10 -40 661 512">
   <path fill="currentColor"
d="M24 -39h-24h24h-24v24v0v200v0v24v0v24v0v152v0v24v0h24h290q-13 -22 -20 -48h-246v0v-128v0h258v0q12 -26 28 -48h-286v0v-176v0h352v0v107v0q17 -14 31 -22l17 -11v0v-98v0v-24v0h-24h-400zM288 313q0 -21 5 -40h-173h-24v48v0h24h168v-8v0zM448 121q-23 14 -52 42v0v0
q-30 28 -52 66v0v0q-23 39 -24 84q2 68 47 113t113 47q68 -2 113 -47t47 -113q1 -22 -19 -66q-21 -45 -77 -94l-32 32v0l-64 -64v0zM544 361q-1 27 -19 45v0v0q-18 19 -45 19t-45 -19q-18 -18 -19 -45q1 -24 17 -46q15 -22 30 -36q16 -13 17 -14q1 1 17 14q15 14 30 36
q16 22 17 46v0z" />
</svg>
