<?xml version="1.0" standalone="no"?>
<!DOCTYPE svg PUBLIC "-//W3C//DTD SVG 1.1//EN" "http://www.w3.org/Graphics/SVG/1.1/DTD/svg11.dtd" >
<svg xmlns="http://www.w3.org/2000/svg" xmlns:xlink="http://www.w3.org/1999/xlink" version="1.1" viewBox="-10 -40 532 512">
   <path fill="currentColor"
d="M256 -39q-28 0 -51 14v0v0q-22 15 -34 38q-13 -4 -27 -4q-37 1 -62 26t-26 62v33v0q-25 11 -40 35q-16 23 -16 52q1 41 28 68t68 28h320v0q41 -1 68 -28t28 -68q0 -30 -16 -53q-15 -23 -41 -35l1 -31v0v-1v0v0v0q-1 -37 -26 -62t-62 -26q-14 0 -27 4q-12 -23 -34 -38
q-23 -14 -51 -14v0zM208 51q3 -18 16 -30v0v0q13 -12 32 -12t32 12t16 30l5 43v0l34 -28v0q10 -9 25 -9q17 0 28 12q11 11 12 28l-2 49v0v20v0l20 4v0q16 4 27 16q11 13 11 31q-1 20 -14 34q-14 13 -34 14h-320v0q-20 -1 -34 -14q-13 -14 -14 -34q0 -17 11 -30
q10 -13 26 -17l19 -4v0v-19v0v-50v0q0 -17 12 -28q11 -12 28 -12q15 0 25 9l34 28v0l5 -43v0zM200 473h112h-112h112q14 -42 32 -74q17 -33 32 -54h-96v0l-24 48v0l-24 -48v0h-96v0q15 21 32 54q18 32 32 74v0z" />
</svg>
