<?xml version="1.0" standalone="no"?>
<!DOCTYPE svg PUBLIC "-//W3C//DTD SVG 1.1//EN" "http://www.w3.org/Graphics/SVG/1.1/DTD/svg11.dtd" >
<svg xmlns="http://www.w3.org/2000/svg" xmlns:xlink="http://www.w3.org/1999/xlink" version="1.1" viewBox="-10 -40 660 512">
   <path fill="currentColor"
d="M309 361l-110 -221l110 221l-110 -221q-22 34 -23 77q1 58 39 98q37 40 94 46v0zM233 102l127 253l-127 -253l127 253q26 -7 47 -23l-127 -253v0q-26 7 -47 23v0zM331 73l111 221l-111 -221l111 221q21 -34 22 -77q-1 -58 -39 -98q-37 -40 -94 -46v0zM505 270
q-19 61 -68 100v0v0q-50 38 -117 39q-67 -1 -117 -39q-49 -39 -68 -100l-100 56v0l-28 -38v0l36 -36v0l-43 -12v0v-46v0l43 -12v0l-36 -36v0l28 -38v0l100 56v0q19 -61 68 -100q50 -38 117 -39q67 1 117 39q49 39 68 100l100 -56v0l28 38v0l-36 36v0l43 12v0v46v0l-43 13v0
l36 35v0l-28 38v0l-100 -56v0z" />
</svg>
