<?xml version="1.0" standalone="no"?>
<!DOCTYPE svg PUBLIC "-//W3C//DTD SVG 1.1//EN" "http://www.w3.org/Graphics/SVG/1.1/DTD/svg11.dtd" >
<svg xmlns="http://www.w3.org/2000/svg" xmlns:xlink="http://www.w3.org/1999/xlink" version="1.1" viewBox="-10 -40 660 512">
   <path fill="currentColor"
d="M0 281v-96v96v-96h128v0v96v0h-128v0zM0 409v-96v96v-96h128v0v96v0h-128v0zM288 409h-128h128h-128v-96v0h128v0v-32v0h-128v0v-96v0h128v0v-32v0h-128v0v-128v0h128h352v48v0v288v0v48v0h-48h-304zM336 73v288v-288v288h256v0v-288v0h-256v0zM33 153q22 -22 23 -56
q0 -9 -2 -18q9 2 18 2q34 -1 56 -23v63v0v0v0v32v0v0v0h-95v0z" />
</svg>
