<?xml version="1.0" standalone="no"?>
<!DOCTYPE svg PUBLIC "-//W3C//DTD SVG 1.1//EN" "http://www.w3.org/Graphics/SVG/1.1/DTD/svg11.dtd" >
<svg xmlns="http://www.w3.org/2000/svg" xmlns:xlink="http://www.w3.org/1999/xlink" version="1.1" viewBox="-10 -40 660 512">
   <path fill="currentColor"
d="M24 -39h-24h24h-24v48v0h24h52l60 317v0l4 19v0h20h161q-1 -8 -1 -16q0 -16 3 -32h-143v0l-9 -48v0h168v0q14 -27 36 -48h-213v0l-31 -160v0h380v0l-36 113v0q10 -1 21 -1q15 0 29 2l36 -114v0l15 -48v0h-50h-404l-2 -12v0l-4 -20v0h-20h-72zM176 473q27 -1 42 -24
q12 -24 0 -48q-15 -23 -42 -24q-27 1 -42 24q-12 24 0 48q15 23 42 24v0zM640 329q0 -39 -19 -72v0v0q-19 -33 -53 -53q-34 -19 -72 -19t-72 19q-34 20 -53 53t-19 72t19 72t53 53q34 19 72 19t72 -19q34 -20 53 -53t19 -72v0zM575 297l-12 11l12 -11l-12 11l-72 72v0
l-11 12v0l-11 -12v0l-40 -40v0l-12 -11v0l23 -23v0l11 12v0l29 28v0l61 -60v0l11 -12v0l23 23v0z" />
</svg>
