<?xml version="1.0" standalone="no"?>
<!DOCTYPE svg PUBLIC "-//W3C//DTD SVG 1.1//EN" "http://www.w3.org/Graphics/SVG/1.1/DTD/svg11.dtd" >
<svg xmlns="http://www.w3.org/2000/svg" xmlns:xlink="http://www.w3.org/1999/xlink" version="1.1" viewBox="-10 -40 660 512">
   <path fill="currentColor"
d="M348 -23l-20 -15l20 15l-20 -15l-15 21v0l-297 426v0l-13 18v0l17 14v0l22 17v0l17 14v0l16 -17v0l343 -390v0l17 -19v0l-20 -16v0l-67 -53v0zM161 285l177 -254l-177 254l177 -254l28 21v0l-205 233v0zM568 35l-16 -19l16 19l-16 -19l-18 17v0l-384 367v0l-17 16v0
l15 17v0l18 20v0l15 18v0l18 -14v0l421 -323v0l20 -16v0l-17 -19v0l-55 -64v0zM570 111l-246 190l246 -190l-246 190l225 -215v0l21 25v0z" />
</svg>
