<?xml version="1.0" standalone="no"?>
<!DOCTYPE svg PUBLIC "-//W3C//DTD SVG 1.1//EN" "http://www.w3.org/Graphics/SVG/1.1/DTD/svg11.dtd" >
<svg xmlns="http://www.w3.org/2000/svg" xmlns:xlink="http://www.w3.org/1999/xlink" version="1.1" viewBox="-10 -40 532 512">
   <path fill="currentColor"
d="M48 255l7 4l-7 -4l7 4l3 1v0l1 2v0l44 44v0l75 7v0h1v0l2 1v0l75 22v0l75 -22v0l2 -1v0h1v0l75 -7v0l44 -44v0l2 -2v0l2 -1v0l7 -4v0v10v0q2 35 -52 72q-59 38 -156 40q-97 -2 -156 -40q-54 -37 -52 -72v-10v0zM256 9q-109 2 -181 47v0v0q-72 45 -75 113v96v0
q3 68 75 113t181 47q109 -2 181 -47t75 -113v-96v0q-3 -68 -75 -113t-181 -47v0zM295 57l-12 11l12 -11l-12 11l-16 16v0l-11 12v0l-23 -23v0l12 -11v0l16 -16v0l11 -12v0l23 23v0zM183 73l-12 11l12 -11l-12 11l-32 32v0l-11 12v0l-23 -23v0l12 -11v0l32 -32v0l11 -12v0
l23 23v0zM384 82l11 12l-11 -12l11 12l32 32v0l12 11v0l-23 23v0l-11 -12v0l-32 -32v0l-12 -11v0l23 -23v0zM48 153h16h-16h64v32v0h-16h-48v-32v0zM384 178l11 12l-11 -12l11 12l32 32v0l12 11v0l-23 23v0l-11 -12v0l-32 -32v0l-12 -11v0l23 -23v0zM144 194l11 12l-11 -12
l11 12l32 32v0l12 11v0l-23 23v0l-11 -12v0l-32 -32v0l-12 -11v0l23 -23v0zM343 233l-12 11l12 -11l-12 11l-32 32v0l-11 12v0l-23 -23v0l12 -11v0l32 -32v0l11 -12v0l23 23v0zM256 185q-27 0 -45 -9v0v0q-18 -9 -19 -23q1 -14 19 -23t45 -9t45 9t19 23q-1 14 -19 23t-45 9
v0z" />
</svg>
