<?xml version="1.0" standalone="no"?>
<!DOCTYPE svg PUBLIC "-//W3C//DTD SVG 1.1//EN" "http://www.w3.org/Graphics/SVG/1.1/DTD/svg11.dtd" >
<svg xmlns="http://www.w3.org/2000/svg" xmlns:xlink="http://www.w3.org/1999/xlink" version="1.1" viewBox="-10 -40 532 512">
   <path fill="currentColor"
d="M55 217l101 -176l-101 176l101 -176h200v0l101 176v0l-101 176v0h-200v0l-101 -176v0zM128 -7l-128 224l128 -224l-128 224l128 224v0h256v0l128 -224v0l-128 -224v0h-256v0zM369 170l17 -17l-17 17l17 -17l-34 -34v0l-17 17v0l-111 111v0l-47 -47v0l-17 -17v0l-34 34v0
l17 17v0l64 64v0l17 17v0l17 -17v0l128 -128v0z" />
</svg>
