<?xml version="1.0" standalone="no"?>
<!DOCTYPE svg PUBLIC "-//W3C//DTD SVG 1.1//EN" "http://www.w3.org/Graphics/SVG/1.1/DTD/svg11.dtd" >
<svg xmlns="http://www.w3.org/2000/svg" xmlns:xlink="http://www.w3.org/1999/xlink" version="1.1" viewBox="-10 -40 650 512">
   <path fill="currentColor"
d="M320 9q-88 2 -147 61v0v0q-59 59 -61 147q2 88 61 147t147 61q69 -1 122 -39l28 38v0q-64 48 -150 49q-72 -1 -129 -35q-58 -34 -92 -92q-34 -57 -35 -129q1 -72 35 -129q34 -58 92 -92q57 -34 129 -35q72 1 129 35q58 34 92 92q34 57 35 129v96v0h16h24v48v0h-24h-2
l-12 80v0h14v0v32v0h-16h-64v-32v0h14v0l-12 -80v0h-2h-24v-48v0h24h16v-96v0q-2 -88 -61 -147t-147 -61v0zM208 217q0 30 15 56v0v0q15 26 41 41t56 15t56 -15t41 -41t15 -56t-15 -56t-41 -41t-56 -15t-56 15t-41 41t-15 56v0zM320 377q-43 0 -80 -21v0v0q-37 -22 -59 -59
q-21 -38 -21 -80t21 -80q22 -37 59 -59q37 -21 80 -21t80 21q37 22 59 59q21 38 21 80t-21 80q-22 37 -59 59q-37 21 -80 21v0zM256 217q1 -36 32 -55q32 -18 64 0q31 19 32 55q-1 36 -32 55q-32 18 -64 0q-31 -19 -32 -55v0z" />
</svg>
