<?xml version="1.0" standalone="no"?>
<!DOCTYPE svg PUBLIC "-//W3C//DTD SVG 1.1//EN" "http://www.w3.org/Graphics/SVG/1.1/DTD/svg11.dtd" >
<svg xmlns="http://www.w3.org/2000/svg" xmlns:xlink="http://www.w3.org/1999/xlink" version="1.1" viewBox="-10 -40 533 512">
   <path fill="currentColor"
d="M211 296q41 -16 67 -52v0v0q25 -36 26 -83v-8v0q-1 -48 -33 -79q-31 -32 -79 -33q-48 1 -79 33q-32 31 -33 79q1 31 21 51t51 21q31 -1 51 -21t21 -51v-16v0h-48v0v16v0q-2 22 -24 24q-22 -2 -24 -24q1 -27 19 -45t45 -19q27 1 45 19t19 45v8v0q-1 41 -28 68t-68 28h-8v0
q-44 -1 -74 -30q-29 -30 -30 -74q2 -61 42 -102q41 -40 102 -42q61 2 102 42q40 41 42 102q-1 56 -36 95q-35 40 -89 48v0zM0 153q2 82 56 136v0v0q54 54 136 56q68 -1 118 -40l169 169v0l34 -34v0l-169 -169v0q39 -50 40 -118q-2 -82 -56 -136t-136 -56q-82 2 -136 56
t-56 136v0z" />
</svg>
