<?xml version="1.0" standalone="no"?>
<!DOCTYPE svg PUBLIC "-//W3C//DTD SVG 1.1//EN" "http://www.w3.org/Graphics/SVG/1.1/DTD/svg11.dtd" >
<svg xmlns="http://www.w3.org/2000/svg" xmlns:xlink="http://www.w3.org/1999/xlink" version="1.1" viewBox="-10 -40 532 512">
   <path fill="currentColor"
d="M48 293v-152v152v-152l132 -132v0h152v0l132 132v0v152v0l-132 132v0h-152v0l-132 -132v0zM160 -39l-160 160l160 -160l-160 160v192v0l160 160v0h192v0l160 -160v0v-192v0l-160 -160v0h-192v0zM369 170l17 -17l-17 17l17 -17l-34 -34v0l-17 17v0l-111 111v0l-47 -47v0
l-17 -17v0l-34 34v0l17 17v0l64 64v0l17 17v0l17 -17v0l128 -128v0z" />
</svg>
