<?xml version="1.0" standalone="no"?>
<!DOCTYPE svg PUBLIC "-//W3C//DTD SVG 1.1//EN" "http://www.w3.org/Graphics/SVG/1.1/DTD/svg11.dtd" >
<svg xmlns="http://www.w3.org/2000/svg" xmlns:xlink="http://www.w3.org/1999/xlink" version="1.1" viewBox="-10 -40 468 512">
   <path fill="currentColor"
d="M174 82q-1 0 -1 1v0v0q0 1 -1 2q-2 4 -5 12q-1 1 -1 2q-8 18 -19 46q-11 30 -19 61q-8 32 -8 59q2 49 19 80q5 12 10 19q27 9 56 12q-19 -39 -21 -103q0 -47 4 -94q3 -47 8 -86q3 -21 5 -39l-2 -4v0q-12 18 -25 32v0zM229 91q-1 2 -1 3v0v0v3q-5 39 -8 84q-4 46 -4 92
q2 58 19 92q2 6 5 11q32 -2 61 -12q5 -7 11 -17q17 -28 19 -74q0 -29 -10 -64q-9 -35 -22 -68q-13 -34 -23 -55q-1 -1 -1 -2q-1 -2 -1 -3q-13 -14 -25 -31l-20 41v0zM329 130q13 33 23 71v0v0q11 39 11 72q-1 38 -12 66q48 -34 49 -90q0 -41 -19 -68q-19 -26 -51 -51h-1v0z
M103 342q-14 -31 -15 -77q0 -32 9 -66q9 -35 20 -64q0 -2 1 -3q0 -1 1 -2v0h-1q-32 25 -51 51q-19 27 -19 68q1 57 50 90l2 2t3 1v0zM277 -5q9 29 30 51v0v0q20 21 46 41v0q36 27 65 64q28 36 30 98q-1 60 -38 101q-37 40 -93 59l9 23v0l9 22v0l-44 18v0l-9 -22v0l-12 -29v0
q-11 2 -22 3v25v0v24v0h-48v0v-24v0v-25v0q-11 -1 -22 -3l-12 29v0l-9 22v0l-44 -18v0l9 -22v0l9 -23v0q-56 -19 -93 -59q-37 -41 -38 -101q2 -62 30 -98q29 -37 65 -64v0q26 -20 46 -41q21 -22 30 -51q3 -8 4 -17q1 -8 1 -17h10h22l14 28v0l2 4v0l2 -4v0l14 -28v0h22h10
q0 9 1 17q1 9 4 17v0z" />
</svg>
