<?xml version="1.0" standalone="no"?>
<!DOCTYPE svg PUBLIC "-//W3C//DTD SVG 1.1//EN" "http://www.w3.org/Graphics/SVG/1.1/DTD/svg11.dtd" >
<svg xmlns="http://www.w3.org/2000/svg" xmlns:xlink="http://www.w3.org/1999/xlink" version="1.1" viewBox="-10 -40 660 512">
   <path fill="currentColor"
d="M320 9q57 0 104 28v0v0q47 27 76 76q28 49 28 104t-28 104q-29 49 -76 76q-47 28 -104 28t-104 -28q-47 -27 -76 -76q-28 -49 -28 -104t28 -104q29 -49 76 -76q47 -28 104 -28v0zM320 473q70 -1 128 -34v0v0q58 -34 94 -94q34 -61 34 -128t-34 -128q-36 -60 -94 -94
q-58 -33 -128 -34q-70 1 -128 34q-58 34 -94 94q-34 61 -34 128t34 128q36 60 94 94q58 33 128 34v0zM48 121h-48h48h-48v24v0v144v0v24v0h48v0v-24v0v-144v0v-24v0zM640 145v-24v24v-24h-48v0v24v0v144v0v24v0h48v0v-24v0v-144v0zM244 161l-28 -28l28 28l-28 -28l-14 14v0
l-32 32v0l-14 14v0l28 28v0l14 -14v0l32 -32v0l14 -14v0zM320 209q22 -2 24 -24q-2 -22 -24 -24q-22 2 -24 24q2 22 24 24v0zM440 345q-2 -22 -24 -24q-22 2 -24 24q2 22 24 24q22 -2 24 -24v0zM231 265l8 -8l-8 8l8 -8l-23 -23v0l-11 12v0l-8 8v0l-8 8v0l-12 11v0l23 23v0
l8 -8v0l16 16v0v33v0q1 24 16 40q16 15 40 16q24 -1 40 -16q15 -16 16 -40q-1 -24 -16 -40q-16 -15 -40 -16h-33v0l-16 -16v0zM448 153l-96 96l96 -96l-96 96l11 11v0q21 21 51 21h5v0q21 0 38 -13q23 -19 23 -49v-4v0q0 -30 -21 -51l-11 -11v0zM320 41q-31 1 -51 21v0v0
q-20 20 -21 51v8v0h144v0v-8v0q-1 -31 -21 -51t-51 -21v0z" />
</svg>
