<?xml version="1.0" standalone="no"?>
<!DOCTYPE svg PUBLIC "-//W3C//DTD SVG 1.1//EN" "http://www.w3.org/Graphics/SVG/1.1/DTD/svg11.dtd" >
<svg xmlns="http://www.w3.org/2000/svg" xmlns:xlink="http://www.w3.org/1999/xlink" version="1.1" viewBox="-10 -40 532 512">
   <path fill="currentColor"
d="M48 9v247v-247v247q22 9 35 29q13 19 13 44v16v0q0 14 9 23t23 9t23 -9t9 -23v-32v0h-32v0v-96v0h96v0v96v0h-32v0v32v0q-1 27 -19 45t-45 19q-27 -1 -45 -19t-19 -45v-16v0q-1 -22 -16 -36v132v0h416v0v-416v0h-416v0zM0 -39h48h-48h512v48v0v416v0v48v0h-48h-464v-48v0
v-416v0v-48v0zM112 57h96h-96h112v32v0h-16h-112v-32v0h16v0zM304 57h96h-96h112v32v0h-16h-112v-32v0h16v0zM112 121h96h-96h112v32v0h-16h-112v-32v0h16v0zM304 121h96h-96h112v32v0h-16h-112v-32v0h16v0zM416 217v160v-160v160h-128v0v-160v0h128v0z" />
</svg>
