<?xml version="1.0" standalone="no"?>
<!DOCTYPE svg PUBLIC "-//W3C//DTD SVG 1.1//EN" "http://www.w3.org/Graphics/SVG/1.1/DTD/svg11.dtd" >
<svg xmlns="http://www.w3.org/2000/svg" xmlns:xlink="http://www.w3.org/1999/xlink" version="1.1" viewBox="-10 -40 532 512">
   <path fill="currentColor"
d="M128 41v352v-352v352h-80v0v-352v0h80v0zM48 441h80h-80h464v-48v0v-352v0v-48v0h-48h-464v48v0v352v0v48v0h48v0zM176 393v-352v352v-352h288v0v352v0h-288v0zM256 345q27 -1 42 -24q12 -24 0 -48q-15 -23 -42 -24q-27 1 -42 24q-12 24 0 48q15 23 42 24v0zM336 249v32
v-32v32h16h80v-32v0h-16h-80zM336 313v32v-32v32h16h80v-32v0h-16h-80zM432 73h-224h224h-224v128v0h224v0v-128v0z" />
</svg>
