<?xml version="1.0" standalone="no"?>
<!DOCTYPE svg PUBLIC "-//W3C//DTD SVG 1.1//EN" "http://www.w3.org/Graphics/SVG/1.1/DTD/svg11.dtd" >
<svg xmlns="http://www.w3.org/2000/svg" xmlns:xlink="http://www.w3.org/1999/xlink" version="1.1" viewBox="-10 -40 660 512">
   <path fill="currentColor"
d="M48 81v-24v24v-24h-48v0v24v0v8v0v24v0v24v0v160v0v24v0v24v0v8v0v24v0h48v0v-24v0v-8v0h544v0v8v0v24v0h48v0v-24v0v-8v0v-24v0v-24v0v-160v0v-24v0v-24v0v-8v0v-24v0h-48v0v24v0v8v0h-272h-272v-8v0zM48 137h272h-272h544v160v0h-544v0v-160v0z" />
</svg>
