<?xml version="1.0" standalone="no"?>
<!DOCTYPE svg PUBLIC "-//W3C//DTD SVG 1.1//EN" "http://www.w3.org/Graphics/SVG/1.1/DTD/svg11.dtd" >
<svg xmlns="http://www.w3.org/2000/svg" xmlns:xlink="http://www.w3.org/1999/xlink" version="1.1" viewBox="-10 -40 340 512">
   <path fill="currentColor"
d="M272 121q-1 -48 -33 -79v0v0q-31 -32 -79 -33q-48 1 -79 33q-32 31 -33 79v176v0h88v0v-152v0v-24v0h48v0v24v0v152v0h88v0v-176v0zM136 345h-88h88h-136v-48v0v-176v0q2 -68 47 -113t113 -47q68 2 113 47t47 113v176v0v48v0h-48h-88v104v0v24v0h-48v0v-24v0v-104v0z" />
</svg>
