<?xml version="1.0" standalone="no"?>
<!DOCTYPE svg PUBLIC "-//W3C//DTD SVG 1.1//EN" "http://www.w3.org/Graphics/SVG/1.1/DTD/svg11.dtd" >
<svg xmlns="http://www.w3.org/2000/svg" xmlns:xlink="http://www.w3.org/1999/xlink" version="1.1" viewBox="-10 -40 588 512">
   <path fill="currentColor"
d="M393 -7h-51h51h-51l23 64v0h-154v0l23 -64v0h-51v0l-23 64v0h-48h-24v48v0h24h31l-29 80v0h-42h-24v48v0h24h25l-29 80v0h-36h-24v48v0h24h19l-29 80v0h51v0l29 -80v0h372v0l29 80v0h51v0l-29 -80v0h19h24v-48v0h-24h-36l-29 -80v0h25h24v-48v0h-24h-42l-29 -80v0h31h24
v-48v0h-24h-48l-23 -64v0zM382 105l29 80l-29 -80l29 80h-246v0l29 -80v0h188v0zM428 233l29 80l-29 -80l29 80h-338v0l29 -80v0h280v0z" />
</svg>
