<?xml version="1.0" standalone="no"?>
<!DOCTYPE svg PUBLIC "-//W3C//DTD SVG 1.1//EN" "http://www.w3.org/Graphics/SVG/1.1/DTD/svg11.dtd" >
<svg xmlns="http://www.w3.org/2000/svg" xmlns:xlink="http://www.w3.org/1999/xlink" version="1.1" viewBox="-10 -40 468 512">
   <path fill="currentColor"
d="M96 9v80v-80v80v0v0v8v24v0v16v0v0v0v48v0l-48 48v0v32v0h176h176v-32v0l-48 -48v0v-48v0v-16v0v-24v0v-8v0v0v-80v0l-128 -48v0l-128 48v0zM144 137h64h-64h64l32 -32v0l16 16v0h48v0v16v0q-1 34 -23 57q-23 22 -57 23q-34 -1 -57 -23q-22 -23 -23 -57v0zM208 1h32h-32
h32v24v0h24v0v32v0h-24v0v24v0h-32v0v-24v0h-24v0v-32v0h24v0v-24v0zM189 418l7 7l-7 -7l7 7h-127v0l29 -80v0h22v0l69 73v0zM380 425h-128h128h-128l7 -7v0l69 -73v0h22v0l30 80v0zM384 297h-77h77h-77l-50 53v0l-33 35v0l-33 -35v0l-50 -53v0h-77v0l-46 128v0l-18 48v0h51
h397l-17 -48v0l-47 -128v0z" />
</svg>
