<?xml version="1.0" standalone="no"?>
<!DOCTYPE svg PUBLIC "-//W3C//DTD SVG 1.1//EN" "http://www.w3.org/Graphics/SVG/1.1/DTD/svg11.dtd" >
<svg xmlns="http://www.w3.org/2000/svg" xmlns:xlink="http://www.w3.org/1999/xlink" version="1.1" viewBox="-10 -40 468 512">
   <path fill="currentColor"
d="M304 105v-16v16v-16q0 -17 -7 -32h-41v0l-16 -16v0l-32 32v0h-62v0q-2 8 -2 16v16v0q1 34 23 57q23 22 57 23q34 -1 57 -23q22 -23 23 -57v0zM224 -39q54 1 91 37v0v0q36 37 37 91v16v0q-1 54 -37 91q-37 36 -91 37q-54 -1 -91 -37q-36 -37 -37 -91v-16v0q1 -54 37 -91
q37 -36 91 -37v0zM209 320l-33 -55l33 55l-33 -55h48h48l-33 55v0l16 59v0l49 -98v0h80v0l48 144v0l16 48v0h-51h-397l16 -48v0l48 -144v0h80v0l49 98v0l16 -59v0zM381 425l-32 -96l32 96l-32 -96h-15v0l-48 96v0h95v0zM114 329h-15h15h-15l-32 96v0h95v0l-48 -96v0z" />
</svg>
