<?xml version="1.0" standalone="no"?>
<!DOCTYPE svg PUBLIC "-//W3C//DTD SVG 1.1//EN" "http://www.w3.org/Graphics/SVG/1.1/DTD/svg11.dtd" >
<svg xmlns="http://www.w3.org/2000/svg" xmlns:xlink="http://www.w3.org/1999/xlink" version="1.1" viewBox="-10 -40 596 512">
   <path fill="currentColor"
d="M152 -39v24v-24v24v40v0h144v0v-40v0v-24v0h48v0v24v0v40v0h104v0v80v0v48v0h-16h-384v272v0h237v0q18 28 46 48h-283h-48v-48v0v-272v0v-48v0v-80v0h104v0v-40v0v-24v0h48v0zM432 185q39 0 72 19v0v0q33 19 53 53q19 34 19 72t-19 72q-20 34 -53 53t-72 19t-72 -19
t-53 -53q-19 -34 -19 -72t19 -72q20 -34 53 -53t72 -19v0zM448 409v-32v32v-32h-32v0v32v0h32v0zM448 233h-32h32h-32v16v0v80v0v16v0h32v0v-16v0v-80v0v-16v0z" />
</svg>
