<?xml version="1.0" standalone="no"?>
<!DOCTYPE svg PUBLIC "-//W3C//DTD SVG 1.1//EN" "http://www.w3.org/Graphics/SVG/1.1/DTD/svg11.dtd" >
<svg xmlns="http://www.w3.org/2000/svg" xmlns:xlink="http://www.w3.org/1999/xlink" version="1.1" viewBox="-10 -40 468 512">
   <path fill="currentColor"
d="M240 41v352v-352v352h-32v0v-352v0h32v0zM208 -7h-48h48h-48v48v0v352v0v48v0h48h80v-48v0v-352v0v-48v0h-48h-32zM80 233v160v-160v160h-32v0v-160v0h32v0zM48 185h-48h48h-48v48v0v160v0v48v0h48h80v-48v0v-160v0v-48v0h-48h-32zM368 105h32h-32h32v288v0h-32v0v-288v0
zM320 57v48v-48v48v288v0v48v0h48h80v-48v0v-288v0v-48v0h-48h-80z" />
</svg>
