<?xml version="1.0" standalone="no"?>
<!DOCTYPE svg PUBLIC "-//W3C//DTD SVG 1.1//EN" "http://www.w3.org/Graphics/SVG/1.1/DTD/svg11.dtd" >
<svg xmlns="http://www.w3.org/2000/svg" xmlns:xlink="http://www.w3.org/1999/xlink" version="1.1" viewBox="-10 -40 532 512">
   <path fill="currentColor"
d="M256 9q-88 2 -147 61v0v0q-59 59 -61 147q0 45 17 83t47 67v11v0q0 33 15 60q-58 -34 -92 -92q-34 -57 -35 -129q1 -72 35 -129q34 -58 92 -92q57 -34 129 -35q72 1 129 35q58 34 92 92q34 57 35 129q-1 86 -49 151t-126 92l52 -52v0l23 -23v0l-15 -15v0q31 -29 49 -68
t18 -85q-2 -88 -61 -147t-147 -61v0zM218 190v0v0v0v0v0h-1v0v-1v0q-1 -2 -3 -4l-10 -10q-14 -13 -28 -14q-14 1 -28 14l-10 10q-2 2 -3 4v0v1h-1v0v0v0v0v0v0v0q-3 4 -8 3q-6 -2 -6 -8q1 -28 17 -49q15 -21 39 -23q24 2 39 23q16 21 17 49q0 6 -5 8q-6 1 -9 -3v0v0v0v0z
M378 190v0v0v0h-1v0v-1v0q-1 -2 -3 -4l-10 -10q-14 -13 -28 -14q-14 1 -28 14l-10 10q-2 2 -3 4v0v1h-1v0v0v0v0v0v0v0q-3 4 -9 3q-5 -2 -5 -8q1 -28 17 -49q15 -21 39 -23q24 2 39 23q16 21 17 49q0 6 -6 8q-5 1 -8 -3v0v0v0v0v0v0zM303 257l-12 11l12 -11l-12 11l-56 56v0
l10 10v0l72 -72v0l11 -12v0l23 23v0l-12 11v0l-72 72v0l10 10v0l56 -56v0l11 -12v0l23 23v0l-12 11v0l-56 56v0l10 10v0l24 -24v0l11 -12v0l23 23v0l-12 11v0l-48 49v0q-29 27 -68 28q-40 -1 -67 -28t-28 -67v-13v0v-20v0v-30v0v-20v0h40v0v20v0v15v0l85 -84v0l11 -12v0
l23 23v0z" />
</svg>
