<?xml version="1.0" standalone="no"?>
<!DOCTYPE svg PUBLIC "-//W3C//DTD SVG 1.1//EN" "http://www.w3.org/Graphics/SVG/1.1/DTD/svg11.dtd" >
<svg xmlns="http://www.w3.org/2000/svg" xmlns:xlink="http://www.w3.org/1999/xlink" version="1.1" viewBox="-10 -40 660 512">
   <path fill="currentColor"
d="M128 -39q37 2 55 32h41v0q27 1 45 19t19 45v64v0h-64h-224v-64v0q1 -27 19 -45t45 -19h9v0q18 -30 55 -32v0zM213 153h11h-11h55q4 7 4 16q0 14 -9 23t-23 9q-13 0 -22 -9t-10 -23q1 -9 5 -16v0zM307 9q-16 -28 -47 -41q29 -7 60 -7q72 1 129 35q58 34 92 92
q34 57 35 129q0 22 -4 44q-19 -17 -45 -20q1 -12 1 -24q-2 -88 -61 -147t-147 -61h-13v0zM72 153h50h-50h50q-10 30 -10 64q1 62 32 110q31 49 82 76q-2 11 -2 22v29v0q-71 -29 -115 -92t-45 -145q0 -33 8 -64v0zM640 473h-320h320h-384v-8v0v-24v0v-16v0q0 -5 1 -10
q3 -33 25 -56t54 -29v0v-1q1 -34 23 -57q23 -22 57 -23q46 2 69 39q14 -14 35 -15q20 1 34 14q13 14 14 34v11v0q32 9 52 34q19 25 20 59v48v0zM400 137q14 0 23 9v0v0q9 9 9 23t-9 23t-23 9q-13 0 -22 -9t-10 -23q1 -14 10 -23t22 -9v0z" />
</svg>
