<?xml version="1.0" standalone="no"?>
<!DOCTYPE svg PUBLIC "-//W3C//DTD SVG 1.1//EN" "http://www.w3.org/Graphics/SVG/1.1/DTD/svg11.dtd" >
<svg xmlns="http://www.w3.org/2000/svg" xmlns:xlink="http://www.w3.org/1999/xlink" version="1.1" viewBox="-10 -40 532 512">
   <path fill="currentColor"
d="M256 -39q-20 0 -40 3l-24 4v0l8 47v0l24 -3v0q15 -3 32 -3t33 3l23 3v0l8 -47v0l-24 -4v0q-20 -3 -40 -3v0zM134 49l19 -14l-19 14l19 -14l-28 -39v0l-19 14v0q-33 24 -57 57l-14 19v0l39 28v0l14 -19v0q19 -27 46 -46v0zM407 10l-20 -14l20 14l-20 -14l-28 39v0l19 14v0
q27 19 46 46l14 19v0l39 -28v0l-14 -19v0q-24 -33 -57 -57h1zM51 184l3 -23l-3 23l3 -23l-47 -8v0l-4 24v0q-3 20 -3 40t3 40l4 24v0l47 -8v0l-3 -23v0q-3 -16 -3 -33t3 -33v0zM509 177l-4 -24l4 24l-4 -24l-47 8v0l4 24v0q2 15 2 32t-2 33l-4 23v0l47 8v0l4 -24v0
q3 -19 3 -40q0 -20 -3 -40v0zM88 339l-14 -19l14 19l-14 -19l-39 28v0l14 20v0q24 32 57 56l19 14v0l28 -39v0l-19 -14v0q-27 -19 -46 -46v0zM463 368l14 -20l-14 20l14 -20l-39 -28v0l-14 19v0q-19 27 -46 46l-19 14v0l28 39v0l20 -14v0q32 -24 56 -57v1zM223 423l-23 -4
l23 4l-23 -4l-8 47v0l24 4v0q20 3 40 3t40 -3l24 -4v0l-8 -47v0l-24 4v0q-15 2 -32 2t-33 -2v0zM176 201q14 0 23 -9v0v0q9 -9 9 -23t-9 -23t-23 -9q-13 0 -22 9t-10 23q1 14 10 23t22 9v0zM368 169q0 -14 -9 -23v0v0q-9 -9 -23 -9q-13 0 -22 9t-10 23q1 14 10 23t22 9
q14 0 23 -9t9 -23v0zM184 289h-24h24h-24v48v0h24h168v-48v0h-24h-144z" />
</svg>
