<?xml version="1.0" standalone="no"?>
<!DOCTYPE svg PUBLIC "-//W3C//DTD SVG 1.1//EN" "http://www.w3.org/Graphics/SVG/1.1/DTD/svg11.dtd" >
<svg xmlns="http://www.w3.org/2000/svg" xmlns:xlink="http://www.w3.org/1999/xlink" version="1.1" viewBox="-10 -40 532 512">
   <path fill="currentColor"
d="M464 217q-2 -88 -61 -147v0v0q-59 -59 -147 -61q-54 1 -98 25t-73 65q29 -34 77 -38h12v0l1 24v0h-12v0q-37 3 -59 28q-22 26 -20 56v1v0v0v0q3 31 26 50t51 17v0v0v0v0q28 -3 44 -22q17 -20 15 -43v0v0v0v0q-3 -23 -20 -37q-17 -13 -36 -11h-1v0v0v0q-20 3 -30 16
q-11 14 -9 29v0v0v0v0q2 15 13 23t23 6v0v0v0v0q12 -2 17 -10t3 -14v0v0v-1v0q-2 -6 -7 -9v0v0l1 6v0q0 8 -5 12t-9 4q-11 1 -18 -8q-6 -12 -2 -22q5 -11 18 -16q15 -5 28 3t18 25q4 18 -8 34q-11 15 -32 19q-22 4 -41 -10t-23 -39q-3 -26 14 -47t47 -25q30 -3 54 16
q25 20 29 53q3 34 -20 61t-61 31q-38 3 -68 -23q-31 -25 -34 -66q-2 -18 3 -34q-16 37 -16 79q2 88 61 147t147 61q88 -2 147 -61t61 -147v0zM0 217q1 -70 34 -128v0v0q34 -58 94 -94q61 -34 128 -34t128 34q60 36 94 94q33 58 34 128q-1 70 -34 128q-34 58 -94 94
q-61 34 -128 34t-128 -34q-60 -36 -94 -94q-33 -58 -34 -128v0zM338 254l12 -1l-12 1l12 -1q36 -3 58 -28t20 -56v-1v0v0v0q-3 -31 -26 -50t-50 -17h-1v0v0v0q-28 3 -44 23q-17 19 -14 42v0v0v1v0q2 22 19 36q17 13 37 11v0v0v0v0q20 -3 30 -16q11 -14 9 -28v-1v0v0v0
q-2 -15 -13 -23t-23 -6v0v0v0v0q-12 2 -17 10t-3 14v1v0v0v0q2 6 7 9v0v0l-1 -5v0q0 -9 5 -13t9 -4q11 -1 18 9q7 11 2 21q-5 12 -18 16q-15 5 -28 -3q-13 -7 -17 -25t7 -34q11 -15 32 -19q22 -4 41 10t23 39q3 26 -14 47t-47 25q-30 3 -54 -16q-25 -20 -29 -53
q-3 -34 20 -61t61 -30t68 22q31 25 35 67q2 42 -26 74q-29 33 -75 36l-12 1v0l-1 -24v0zM281 364l-25 -20l25 20l-25 -20l-25 20v0l-14 11v0l-14 -10v0l-32 -21v0l-10 10v0l-17 17v0l-34 -34v0l17 -17v0l24 -24v0l14 -14v0l16 11v0l34 22v0l26 -21v0l15 -12v0l15 12v0l26 21
v0l34 -22v0l16 -11v0l14 14v0l24 24v0l17 17v0l-34 34v0l-17 -17v0l-10 -10v0l-32 21v0l-14 10v0l-14 -11v0z" />
</svg>
