<?xml version="1.0" standalone="no"?>
<!DOCTYPE svg PUBLIC "-//W3C//DTD SVG 1.1//EN" "http://www.w3.org/Graphics/SVG/1.1/DTD/svg11.dtd" >
<svg xmlns="http://www.w3.org/2000/svg" xmlns:xlink="http://www.w3.org/1999/xlink" version="1.1" viewBox="-10 -40 468 512">
   <path fill="currentColor"
d="M448 105v-48v48v-48h-64v0v-64v0h-48v0v64v0h-224v0v-64v0h-48v0v64v0h-64v0v48v0h64v0v224v0h-64v0v48v0h64v0v64v0h48v0v-64v0h224v0v64v0h48v0v-64v0h64v0v-48v0h-64v0v-224v0h64v0zM112 329v-224v224v-224h224v0v224v0h-224v0z" />
</svg>
