<?xml version="1.0" standalone="no"?>
<!DOCTYPE svg PUBLIC "-//W3C//DTD SVG 1.1//EN" "http://www.w3.org/Graphics/SVG/1.1/DTD/svg11.dtd" >
<svg xmlns="http://www.w3.org/2000/svg" xmlns:xlink="http://www.w3.org/1999/xlink" version="1.1" viewBox="-10 -40 660 512">
   <path fill="currentColor"
d="M256 425q44 0 83 -17q11 22 27 40q-50 25 -110 25q-72 -1 -129 -35q-58 -34 -92 -92q-34 -57 -35 -129q1 -72 35 -129q34 -58 92 -92q57 -34 129 -35q91 2 158 55t90 137h-8q-21 0 -41 5q-20 -66 -73 -107q-54 -41 -126 -42q-88 2 -147 61t-61 147q2 88 61 147t147 61v0z
M256 369q-24 -1 -40 -16v0v0q-15 -16 -16 -40q2 -35 32 -51v-181v0v-24v0h48v0v24v0v181v0q30 16 32 51q-1 24 -16 40q-16 15 -40 16v0zM128 121q0 -14 9 -23v0v0q9 -9 23 -9t23 9t9 23t-9 23t-23 9t-23 -9t-9 -23v0zM112 185q14 0 23 9v0v0q9 9 9 23t-9 23t-23 9t-23 -9
t-9 -23t9 -23t23 -9v0zM320 121q0 -14 9 -23v0v0q9 -9 23 -9t23 9t9 23t-9 23t-23 9t-23 -9t-9 -23v0zM496 185q39 0 72 19v0v0q33 19 53 53q19 34 19 72t-19 72q-20 34 -53 53t-72 19t-72 -19t-53 -53q-19 -34 -19 -72t19 -72q20 -34 53 -53t72 -19v0zM520 249l-104 96
l104 -96l-104 96h67v0l-11 64v0l104 -96v0h-67v0l11 -64v0z" />
</svg>
