<?xml version="1.0" standalone="no"?>
<!DOCTYPE svg PUBLIC "-//W3C//DTD SVG 1.1//EN" "http://www.w3.org/Graphics/SVG/1.1/DTD/svg11.dtd" >
<svg xmlns="http://www.w3.org/2000/svg" xmlns:xlink="http://www.w3.org/1999/xlink" version="1.1" viewBox="-10 -40 532 512">
   <path fill="currentColor"
d="M48 9h256h-256h256v80v0h48v0v-80v0v-48v0h-48h-304v48v0v256v0v48v0h48h80v-48v0h-80v0v-256v0zM160 345v80v-80v80v48v0h48h304v-48v0v-256v0v-48v0h-48h-80v48v0h80v0v256v0h-256v0v-80v0h-48v0zM256 313h48h-48h96v-48v0v-16v0h-48v0v16v0h-48v0v48v0zM352 169v-48
v48v-48h-48h-16v48v0h16v0v48v0h48v0v-48v0zM224 313v-48v48v-48h-16v0v-48v0h-48v0v48v0v48v0h48h16zM160 169v16v-16v16h48v0v-16v0h48v0v-48v0h-48h-48v48v0z" />
</svg>
