<?xml version="1.0" standalone="no"?>
<!DOCTYPE svg PUBLIC "-//W3C//DTD SVG 1.1//EN" "http://www.w3.org/Graphics/SVG/1.1/DTD/svg11.dtd" >
<svg xmlns="http://www.w3.org/2000/svg" xmlns:xlink="http://www.w3.org/1999/xlink" version="1.1" viewBox="-10 -40 660 512">
   <path fill="currentColor"
d="M447 285l174 135l-174 -135l174 135l19 15v0l-29 38v0l-19 -15v0l-573 -444v0l-19 -15v0l29 -38v0l19 15v0l165 127v0l139 -46v0l62 -62v0l34 -34v0l34 34v0l60 60v0l34 34v0l-34 34v0l-62 62v0l-33 100v0zM258 139l149 115l-149 -115l149 115l28 -84v0l3 -11v0v0v0
l-60 -60v0v0v0l-11 4v0l-109 36v0zM409 379l-297 94l297 -94l-297 94l-48 -48v0l80 -254v0l41 32v0l-59 186v0l103 -103v0q-5 -10 -5 -21q0 -14 7 -26l75 59v0q-13 14 -34 15q-11 0 -21 -5l-102 103v0l214 -68v0l46 36v0z" />
</svg>
