<?xml version="1.0" standalone="no"?>
<!DOCTYPE svg PUBLIC "-//W3C//DTD SVG 1.1//EN" "http://www.w3.org/Graphics/SVG/1.1/DTD/svg11.dtd" >
<svg xmlns="http://www.w3.org/2000/svg" xmlns:xlink="http://www.w3.org/1999/xlink" version="1.1" viewBox="-10 -40 660 512">
   <path fill="currentColor"
d="M48 425h301h-301h301q18 28 46 48h-347h-48v-48v0v-256v0v-48v0h48h464v33v0q-8 -1 -16 -1q-40 0 -73 16h-375v0v256v0zM464 41v48v-48v48h-416v0v-48v0h416v0zM416 -39v48v-48v48h-320v0v-48v0h320v0zM352 329q0 -39 19 -72v0v0q19 -33 53 -53q34 -19 72 -19t72 19
q34 20 53 53t19 72t-19 72t-53 53q-34 19 -72 19t-72 -19q-34 -20 -53 -53t-19 -72v0zM577 407l-25 -30l25 30l-25 -30h-112v0l-25 30v0q32 33 81 34q49 -1 81 -34v0zM544 297q-1 -27 -24 -42q-24 -12 -48 0q-23 15 -24 42q1 27 24 42q24 12 48 0q23 -15 24 -42v0z" />
</svg>
