<?xml version="1.0" standalone="no"?>
<!DOCTYPE svg PUBLIC "-//W3C//DTD SVG 1.1//EN" "http://www.w3.org/Graphics/SVG/1.1/DTD/svg11.dtd" >
<svg xmlns="http://www.w3.org/2000/svg" xmlns:xlink="http://www.w3.org/1999/xlink" version="1.1" viewBox="-10 -40 660 512">
   <path fill="currentColor"
d="M320 41q0 14 -9 23v0v0q-9 9 -23 9t-23 -9t-9 -23t9 -23t23 -9t23 9t9 23v0zM288 -39q-34 1 -57 23v0v0q-22 23 -23 57q0 27 16 48q15 20 40 28v4v32v0h-48h-24v48v0h24h48v224v0h-144v0v-112v0h72v0l-96 -96v0l-96 96v0h72v0v136v0v24v0h24h299q-28 -20 -46 -48h-37v0
v-224v0h48h15q4 -4 9 -8v-40v0h-24h-48v-32v0v-4q25 -8 40 -28q16 -21 16 -48q-1 -34 -23 -57q-23 -22 -57 -23v0zM496 473q39 0 72 -19v0v0q33 -19 53 -53q19 -34 19 -72t-19 -72q-20 -34 -53 -53t-72 -19t-72 19t-53 53q-19 34 -19 72t19 72q20 34 53 53t72 19v0zM555 292
l-36 37l36 -37l-36 37l36 37v0l12 11v0l-23 23v0l-11 -12v0l-37 -36v0l-37 36v0l-11 12v0l-23 -23v0l12 -11v0l36 -37v0l-36 -37v0l-12 -11v0l23 -23v0l11 12v0l37 36v0l37 -36v0l11 -12v0l23 23v0l-12 11v0z" />
</svg>
