<?xml version="1.0" standalone="no"?>
<!DOCTYPE svg PUBLIC "-//W3C//DTD SVG 1.1//EN" "http://www.w3.org/Graphics/SVG/1.1/DTD/svg11.dtd" >
<svg xmlns="http://www.w3.org/2000/svg" xmlns:xlink="http://www.w3.org/1999/xlink" version="1.1" viewBox="-10 -40 660 512">
   <path fill="currentColor"
d="M320 41q0 14 -9 23v0v0q-9 9 -23 9t-23 -9t-9 -23t9 -23t23 -9t23 9t9 23v0zM288 -39q-34 1 -57 23v0v0q-22 23 -23 57q0 27 16 48q15 20 40 28v4v32v0h-48h-24v48v0h24h48v224v0h-144v0v-112v0h72v0l-96 -96v0l-96 96v0h72v0v136v0v24v0h24h288v-48v0h-72v0v-224v0h48
h24v-48v0h-24h-48v-32v0v-4q25 -8 40 -28q16 -21 16 -48q-1 -34 -23 -57q-23 -22 -57 -23v0zM384 313v0v0v0v0v0v0v0zM528 201q14 0 23 9v0v0q9 9 9 23v48v0h-64v0v-48v0q0 -14 9 -23t23 -9v0zM448 233v48v-48v48h-32v0v192v0h224v0v-192v0h-32v0v-48v0q-1 -34 -23 -57
q-23 -22 -57 -23q-34 1 -57 23q-22 23 -23 57v0z" />
</svg>
