<?xml version="1.0" standalone="no"?>
<!DOCTYPE svg PUBLIC "-//W3C//DTD SVG 1.1//EN" "http://www.w3.org/Graphics/SVG/1.1/DTD/svg11.dtd" >
<svg xmlns="http://www.w3.org/2000/svg" xmlns:xlink="http://www.w3.org/1999/xlink" version="1.1" viewBox="-10 -40 660 512">
   <path fill="currentColor"
d="M128 467l17 -17l-17 17l17 -17l88 -88v0l17 -17v0l-34 -34v0l-17 17v0l-47 47v0v-134v0h264v0v-8v0q0 -21 7 -40h-79v0v-134v0l47 47v0l17 17v0l34 -34v0l-17 -17v0l-88 -88v0l-17 -17v0l-17 17v0l-88 88v0l-17 17v0l34 34v0l17 -17v0l47 -47v0v134v0h-144h-128
q-22 2 -24 24q2 22 24 24h80v0v134v0l-47 -47v0l-17 -17v0l-34 34v0l17 17v0l88 88v0l17 17v0zM104 153h48h-48h48v-136v0v-24v0h-48v0v24v0v136v0zM296 281v136v-136v136v24v0h48v0v-24v0v-136v0h-48v0zM528 201q14 0 23 9v0v0q9 9 9 23v48v0h-64v0v-48v0q0 -14 9 -23
t23 -9v0zM448 233v48v-48v48h-32v0v192v0h224v0v-192v0h-32v0v-48v0q-1 -34 -23 -57q-23 -22 -57 -23q-34 1 -57 23q-22 23 -23 57v0z" />
</svg>
