<?xml version="1.0" standalone="no"?>
<!DOCTYPE svg PUBLIC "-//W3C//DTD SVG 1.1//EN" "http://www.w3.org/Graphics/SVG/1.1/DTD/svg11.dtd" >
<svg xmlns="http://www.w3.org/2000/svg" xmlns:xlink="http://www.w3.org/1999/xlink" version="1.1" viewBox="-10 -40 660 512">
   <path fill="currentColor"
d="M48 25v24v-24v24v336v0v24v0h-48v0v-24v0v-336v0v-24v0h48v0zM258 113l-17 17l17 -17l-17 17l-63 63v0h284v0l-63 -63v0l-17 -17v0l34 -34v0l17 17v0l104 104v0l17 17v0l-17 17v0l-104 104v0l-17 17v0l-34 -34v0l17 -17v0l63 -63v0h-284v0l63 63v0l17 17v0l-34 34v0
l-17 -17v0l-104 -104v0l-17 -17v0l17 -17v0l104 -104v0l17 -17v0l34 34v0zM640 49v336v-336v336v24v0h-48v0v-24v0v-336v0v-24v0h48v0v24v0z" />
</svg>
