<?xml version="1.0" standalone="no"?>
<!DOCTYPE svg PUBLIC "-//W3C//DTD SVG 1.1//EN" "http://www.w3.org/Graphics/SVG/1.1/DTD/svg11.dtd" >
<svg xmlns="http://www.w3.org/2000/svg" xmlns:xlink="http://www.w3.org/1999/xlink" version="1.1" viewBox="-10 -40 596 512">
   <path fill="currentColor"
d="M24 41h528h-528h552v-48v0h-24h-552v48v0h24v0zM40 235l17 -17l-17 17l17 -17l47 -47v0v246v0v24v0h48v0v-24v0v-246v0l47 47v0l17 17v0l34 -34v0l-17 -17v0l-88 -88v0l-17 -17v0l-17 17v0l-88 88v0l-17 17v0l34 34v0zM360 235l17 -17l-17 17l17 -17l47 -47v0v246v0v24v0
h48v0v-24v0v-246v0l47 47v0l17 17v0l34 -34v0l-17 -17v0l-88 -88v0l-17 -17v0l-17 17v0l-88 88v0l-17 17v0l34 34v0z" />
</svg>
