<?xml version="1.0" standalone="no"?>
<!DOCTYPE svg PUBLIC "-//W3C//DTD SVG 1.1//EN" "http://www.w3.org/Graphics/SVG/1.1/DTD/svg11.dtd" >
<svg xmlns="http://www.w3.org/2000/svg" xmlns:xlink="http://www.w3.org/1999/xlink" version="1.1" viewBox="-10 -40 596 512">
   <path fill="currentColor"
d="M24 -7h-24h24h-24v48v0h24h48v64v0h-48h-24v48v0h24h552v-48v0h-24h-48v-64v0h40h24v-48v0h-24h-520zM456 41v64v-64v64h-80v0v-64v0h80v0zM328 41v64v-64v64h-80v0v-64v0h80v0zM200 41v64v-64v64h-80v0v-64v0h80v0zM24 201h-24h24h-24v48v0h24v0q20 1 34 14q13 14 14 34
v120v0v24v0h24h120v-24v0v-96v0q1 -31 21 -51t51 -21q31 1 51 21t21 51v96v0v24v0h24h120v-24v0v-120v0q1 -20 14 -34q14 -13 34 -14h24v0v-48v0h-24v0q-41 1 -68 28t-28 68v96v0h-48v0v-72v0q-1 -51 -35 -85t-85 -35q-51 1 -85 35t-35 85v72v0h-48v0v-96v0q-1 -41 -28 -68
t-68 -28v0z" />
</svg>
