<?xml version="1.0" standalone="no"?>
<!DOCTYPE svg PUBLIC "-//W3C//DTD SVG 1.1//EN" "http://www.w3.org/Graphics/SVG/1.1/DTD/svg11.dtd" >
<svg xmlns="http://www.w3.org/2000/svg" xmlns:xlink="http://www.w3.org/1999/xlink" version="1.1" viewBox="-10 -40 660 512">
   <path fill="currentColor"
d="M120 -31h-15h15h-15l-6 13v0q-17 32 -42 55q-25 24 -54 43l26 40v0q39 -25 75 -62v143v0h-80h-24v48v0h24h616v-48v0h-24h-80v-143v0q36 37 75 62l27 -40v0q-30 -19 -55 -43q-25 -23 -41 -55l-7 -13v0h-15h-30l-7 12v0q-27 47 -69 73q-42 27 -94 27t-94 -27
q-42 -26 -69 -73l-7 -12v0h-14h-16zM488 55v146v-146v146h-48v0v-106v0q26 -17 48 -40v0zM392 118v83v-83v83h-48v0v-73v0q25 -3 48 -10v0zM296 128v73v-73v73h-48v0v-83v0q23 7 48 10v0zM200 95v106v-106v106h-48v0v-146v0q22 23 48 40v0zM0 297v48v-48v48h24h72v104v0v24
v0h24h120v-24v0v-104v0h160v0v104v0v24v0h24h120v-24v0v-104v0h72h24v-48v0h-24h-120v24v0v104v0h-48v0v-104v0v-24v0h-24h-232v24v0v104v0h-48v0v-104v0v-24v0h-24h-120z" />
</svg>
