<?xml version="1.0" standalone="no"?>
<!DOCTYPE svg PUBLIC "-//W3C//DTD SVG 1.1//EN" "http://www.w3.org/Graphics/SVG/1.1/DTD/svg11.dtd" >
<svg xmlns="http://www.w3.org/2000/svg" xmlns:xlink="http://www.w3.org/1999/xlink" version="1.1" viewBox="-11 0 595 512">
   <path fill="currentColor"
d="M194 3l-29 65l29 -65l-29 65q15 11 22 29h16v0l2 -19v0l3 -24v0l48 6v0l-3 24v0l-5 40v0l-3 21v0h-21h-32v23v0l38 10v0l16 4v0l2 16v0l6 56v0l3 24v0l-48 5v0l-2 -23v0l-5 -40v0l-18 -4v0q-18 31 -56 33q-38 -2 -56 -33l-18 4v0l-4 40v0l-3 24v0l-48 -6v0l3 -24v0l6 -56
v0l2 -16v0l16 -4v0l38 -10v0v-23v0h-32h-21l-3 -21v0l-4 -40v0l-3 -24v0l48 -5v0l2 23v0l3 19v0h15v0q7 -18 23 -29l-30 -65v0l-10 -22v0l44 -20v0l10 22v0l22 50v0l23 -50v0l9 -22v0l44 20v0l-10 22v0zM554 201l-66 47l66 -47l-66 47q8 17 5 36l15 8v0l14 -16v0l16 -18v0
l36 32v0l-16 18v0l-27 31v0l-13 14v0l-17 -9v0l-27 -16v0l-12 20v0l28 27v0l11 11v0l-5 14v0l-17 49v0l-8 23v0l-46 -16v0l8 -23v0l12 -34v0l-14 -14v0q-31 18 -65 1q-32 -21 -32 -57l-18 -5v0l-25 32v0l-15 18v0l-38 -29v0l15 -19v0l35 -45v0l10 -12v0l15 4v0l38 11v0
l12 -20v0l-28 -16v0l-17 -10v0l6 -19v0l13 -38v0l8 -23v0l46 15v0l-8 23v0l-7 20v0l15 9v0q15 -12 34 -14l8 -80v0l2 -24v0l48 5v0l-3 24v0l-6 63v0l52 -37v0l19 -14v0l28 39v0l-19 14v0zM144 185v-64v64v-64q-1 -15 -16 -16q-15 1 -16 16v64v0q1 15 16 16q15 -1 16 -16v0z
M412 338l32 -55l-32 55l32 -55q6 -14 -6 -22q-13 -6 -22 6l-32 55v0q-6 14 6 22q13 6 22 -6v0z" />
</svg>
