<?xml version="1.0" standalone="no"?>
<!DOCTYPE svg PUBLIC "-//W3C//DTD SVG 1.1//EN" "http://www.w3.org/Graphics/SVG/1.1/DTD/svg11.dtd" >
<svg xmlns="http://www.w3.org/2000/svg" xmlns:xlink="http://www.w3.org/1999/xlink" version="1.1" viewBox="-10 -40 660 512">
   <path fill="currentColor"
d="M48 9h288h-288h288v247v0q17 -37 48 -63v-184v0v-48v0h-48h-336v48v0v416v0v48v0h48h336v-8v0q-31 -26 -48 -62v22v0h-96v0v-112v0h-96v0v112v0h-96v0v-416v0zM88 49v80v-80v80h80v0v-80v0h-80v0zM296 49h-80h80h-80v80v0h80v0v-80v0zM88 177v80v-80v80h80v0v-80v0h-80v0
zM296 177h-80h80h-80v80v0h80v0v-80v0zM640 329q0 -39 -19 -72v0v0q-19 -33 -53 -53q-34 -19 -72 -19t-72 19q-34 20 -53 53t-19 72t19 72t53 53q34 19 72 19t72 -19q34 -20 53 -53t19 -72v0zM575 297l-12 11l12 -11l-12 11l-72 72v0l-11 12v0l-11 -12v0l-40 -40v0l-12 -11
v0l23 -23v0l11 12v0l29 28v0l61 -60v0l11 -12v0l23 23v0z" />
</svg>
