<?xml version="1.0" standalone="no"?>
<!DOCTYPE svg PUBLIC "-//W3C//DTD SVG 1.1//EN" "http://www.w3.org/Graphics/SVG/1.1/DTD/svg11.dtd" >
<svg xmlns="http://www.w3.org/2000/svg" xmlns:xlink="http://www.w3.org/1999/xlink" version="1.1" viewBox="-10 -40 596 512">
   <path fill="currentColor"
d="M48 9h288h-288h288v240v0h16v0v-16v0q1 -47 32 -78v-146v0v-48v0h-48h-336v48v0v416v0v48v0h48h272v-48v0h-80v0v-112v0h-96v0v112v0h-96v0v-416v0zM88 49v80v-80v80h80v0v-80v0h-80v0zM296 49h-80h80h-80v80v0h80v0v-80v0zM88 177v80v-80v80h80v0v-80v0h-80v0zM296 177
h-80h80h-80v80v0h80v0v-80v0zM464 201q14 0 23 9v0v0q9 9 9 23v48v0h-64v0v-48v0q0 -14 9 -23t23 -9v0zM384 233v48v-48v48h-32v0v192v0h224v0v-192v0h-32v0v-48v0q-1 -34 -23 -57q-23 -22 -57 -23q-34 1 -57 23q-22 23 -23 57v0z" />
</svg>
