<?xml version="1.0" standalone="no"?>
<!DOCTYPE svg PUBLIC "-//W3C//DTD SVG 1.1//EN" "http://www.w3.org/Graphics/SVG/1.1/DTD/svg11.dtd" >
<svg xmlns="http://www.w3.org/2000/svg" xmlns:xlink="http://www.w3.org/1999/xlink" version="1.1" viewBox="-10 -40 404 512">
   <path fill="currentColor"
d="M48 9v416v-416v416h96v0v-112v0h96v0v112v0h96v0v-416v0h-288v0zM0 -39h48h-48h384v48v0v416v0v48v0h-48h-336v-48v0v-416v0v-48v0zM168 289h-80h80h-80v-80v0h80v0v80v0zM216 209h80h-80h80v80v0h-80v0v-80v0zM112 57v64v-64v64q1 15 16 16q15 -1 16 -16v-64v0v-16v0h32
v0v16v0v64v0q-1 20 -14 34q-14 13 -34 14q-20 -1 -34 -14q-13 -14 -14 -34v-64v0v-16v0h32v0v16v0zM224 41h8h-8h18l4 9v0l26 51v0v-44v0v-16v0h32v0v16v0v96v0v16v0h-16h-18l-4 -9v0l-26 -51v0v44v0v16v0h-32v0v-16v0v-96v0v-16v0h16v0z" />
</svg>
