<?xml version="1.0" standalone="no"?>
<!DOCTYPE svg PUBLIC "-//W3C//DTD SVG 1.1//EN" "http://www.w3.org/Graphics/SVG/1.1/DTD/svg11.dtd" >
<svg xmlns="http://www.w3.org/2000/svg" xmlns:xlink="http://www.w3.org/1999/xlink" version="1.1" viewBox="-10 -40 522 512">
   <path fill="currentColor"
d="M280 -15v80v-80v80v24v0h-48v0v-24v0v-80v0v-24v0h48v0v24v0zM135 121h17h-17h242l6 16v0l34 96v0h47v0v48v0v80v0v16v0v32v0v64v0h-48v0v-64v0h-320v0v64v0h-48v0v-64v0v-32v0v-16v0v-80v0v-48v0h47v0l34 -96v0l6 -16v0zM343 169h-174h174h-174l-23 64v0h220v0l-23 -64
v0zM416 281h-320h320h-320v80v0h320v0v-80v0zM144 297q22 2 24 24q-2 22 -24 24q-22 -2 -24 -24q2 -22 24 -24v0zM344 321q2 -22 24 -24q22 2 24 24q-2 22 -24 24q-22 -2 -24 -24v0zM56 -17l17 17l-17 -17l17 17l48 48v0l17 17v0l-34 34v0l-17 -17v0l-48 -48v0l-17 -17v0
l34 -34v0zM439 0l17 -17l-17 17l17 -17l34 34v0l-17 17v0l-48 48v0l-17 17v0l-34 -34v0l17 -17v0l48 -48v0z" />
</svg>
