<?xml version="1.0" standalone="no"?>
<!DOCTYPE svg PUBLIC "-//W3C//DTD SVG 1.1//EN" "http://www.w3.org/Graphics/SVG/1.1/DTD/svg11.dtd" >
<svg xmlns="http://www.w3.org/2000/svg" xmlns:xlink="http://www.w3.org/1999/xlink" version="1.1" viewBox="-10 -40 650 512">
   <path fill="currentColor"
d="M160 57q22 -2 24 -24q-2 -22 -24 -24q-22 2 -24 24q2 22 24 24v0zM160 -39q41 1 62 36q20 36 0 72q-21 35 -62 36q-41 -1 -62 -36q-20 -36 0 -72q21 -35 62 -36v0zM105 121h12h-12h110l8 10v0l81 112v0l14 19v0l-38 29v0l-15 -20v0l-40 -56v0l38 114v0l10 32v0h-33h-16
v88v0v24v0h-48v0v-24v0v-88v0h-32v0v88v0v24v0h-48v0v-24v0v-88v0h-16h-33l10 -32v0l38 -113v0l-40 55v0l-15 20v0l-38 -29v0l14 -19v0l82 -112v0l7 -10v0zM113 313h94h-94h94l-47 -140v0l-47 140v0zM504 33q-2 -22 -24 -24q-22 2 -24 24q2 22 24 24q22 -2 24 -24v0zM408 33
q1 -41 36 -62q36 -20 72 0q35 21 36 62q-1 41 -36 62q-36 20 -72 0q-35 -21 -36 -62v0zM439 121h83h-83h96l7 11v0l70 112v0l13 21v0l-40 25v0l-13 -20v0l-28 -44v0v223v0v24v0h-48v0v-24v0v-104v0h-32v0v104v0v24v0h-48v0v-24v0v-223v0l-28 44v0l-12 20v0l-41 -26v0l13 -20
v0l70 -112v0l7 -11v0h14v0zM496 297v-128v128v-128h-32v0v128v0h32v0z" />
</svg>
