<?xml version="1.0" standalone="no"?>
<!DOCTYPE svg PUBLIC "-//W3C//DTD SVG 1.1//EN" "http://www.w3.org/Graphics/SVG/1.1/DTD/svg11.dtd" >
<svg xmlns="http://www.w3.org/2000/svg" xmlns:xlink="http://www.w3.org/1999/xlink" version="1.1" viewBox="-10 -40 404 512">
   <path fill="currentColor"
d="M336 25h-32h32h-66q-6 -28 -27 -46q-21 -17 -51 -18q-30 1 -51 18q-21 18 -27 46h-34h-80v48v0v352v0v48v0h48h336v-48v0v-352v0v-48v0h-48v0zM80 73v48v-48v48h112h112v-48v0h32v0v352v0h-288v0v-352v0h32v0zM168 41q2 -22 24 -24q22 2 24 24q-2 22 -24 24
q-22 -2 -24 -24v0zM104 209v7v-7v7h48v0v-7v0q1 -7 8 -8h57v0q14 1 15 15q0 9 -8 13l-44 26v0l-12 7v0v14v0v21v0v24v0h48v0v-24v0v-8v0l32 -18v0q31 -19 32 -55q-1 -27 -18 -45q-18 -17 -45 -18h-57v0q-24 1 -40 16q-15 16 -16 40v0zM168 409h48h-48h48v-48v0h-48v0v48v0z
" />
</svg>
