<?xml version="1.0" standalone="no"?>
<!DOCTYPE svg PUBLIC "-//W3C//DTD SVG 1.1//EN" "http://www.w3.org/Graphics/SVG/1.1/DTD/svg11.dtd" >
<svg xmlns="http://www.w3.org/2000/svg" xmlns:xlink="http://www.w3.org/1999/xlink" version="1.1" viewBox="-10 -40 596 512">
   <path fill="currentColor"
d="M48 425h237h-237h237q18 28 46 48h-283h-48v-48v0v-416v0v-48v0h48h208l128 128v0v71v0q-26 7 -48 21v-60v0h-112v0v-112v0h-176v0v416v0zM288 329q0 -39 19 -72v0v0q19 -33 53 -53q34 -19 72 -19t72 19q34 20 53 53t19 72t-19 72t-53 53q-34 19 -72 19t-72 -19
q-34 -20 -53 -53t-19 -72v0zM512 345v-32v32v-32h-16h-144v32v0h16h144z" />
</svg>
