<?xml version="1.0" standalone="no"?>
<!DOCTYPE svg PUBLIC "-//W3C//DTD SVG 1.1//EN" "http://www.w3.org/Graphics/SVG/1.1/DTD/svg11.dtd" >
<svg xmlns="http://www.w3.org/2000/svg" xmlns:xlink="http://www.w3.org/1999/xlink" version="1.1" viewBox="-10 -40 522 512">
   <path fill="currentColor"
d="M158 42q32 -18 69 -23l-6 -47v0q-49 7 -90 31q-16 -10 -35 -10q-27 1 -45 19t-19 45q0 19 10 35q-24 41 -32 90l48 6v0q5 -37 23 -69q7 2 15 2q27 -1 45 -19t19 -45q0 -8 -2 -15v0zM431 119q17 32 23 69l47 -6v0q-7 -49 -31 -90q10 -16 10 -35q-1 -27 -19 -45t-45 -19
q-19 0 -35 10q-41 -24 -90 -32l-6 48v0q37 5 69 23q-2 7 -2 15q1 27 19 45t45 19q8 0 15 -2v0zM81 315q-18 -32 -23 -69l-47 6v0q7 49 31 91q-10 15 -10 34q1 27 19 45t45 19q19 0 35 -10q41 24 90 32l6 -48v0q-37 -5 -69 -23q2 -7 2 -15q-1 -27 -19 -45t-45 -19q-8 0 -15 2
v0zM354 392q-32 18 -69 23l6 48v0q49 -8 90 -32q16 10 35 10q27 -1 45 -19t19 -45q0 -19 -10 -34q24 -42 31 -91l-47 -6v0q-5 37 -23 69q-7 -2 -15 -2q-27 1 -45 19t-19 45q0 8 2 15v0zM80 57q1 -15 16 -16q15 1 16 16q-1 15 -16 16q-15 -1 -16 -16v0zM80 377q1 -15 16 -16
q15 1 16 16q-1 15 -16 16q-15 -1 -16 -16v0zM416 41q15 1 16 16q-1 15 -16 16q-15 -1 -16 -16q1 -15 16 -16v0zM400 377q1 -15 16 -16q15 1 16 16q-1 15 -16 16q-15 -1 -16 -16v0zM228 275q-33 -18 -35 -57q0 -24 15 -41l26 26v0v-82v0h-82v0l22 22v0q-28 30 -29 75
q0 33 17 59q16 26 44 41l22 -43v0zM321 216q-1 24 -15 41l-26 -26v0v82v0h82v0l-22 -22v0q28 -30 29 -75q-1 -33 -17 -59q-17 -26 -44 -41l-22 43v0q33 18 35 57v0z" />
</svg>
