<?xml version="1.0" standalone="no"?>
<!DOCTYPE svg PUBLIC "-//W3C//DTD SVG 1.1//EN" "http://www.w3.org/Graphics/SVG/1.1/DTD/svg11.dtd" >
<svg xmlns="http://www.w3.org/2000/svg" xmlns:xlink="http://www.w3.org/1999/xlink" version="1.1" viewBox="-10 -40 532 512">
   <path fill="currentColor"
d="M240 9q82 2 136 56v0v0q54 54 56 136h-176h-15l-7 14v0l-37 82v0h-149v0v-96v0q2 -82 56 -136t136 -56v0zM320 382l-78 -69l78 69l-78 -69l30 -64v0h48v0v133v0zM368 424v-175v175v-175h120h24v-48v0h-24h-8q-1 -67 -33 -121t-86 -86t-121 -33q-67 1 -121 33t-86 86
t-33 121v120v0v24v0h24h182l2 2v0l136 120v0l7 6v0h9h120v-48v0h-24h-87l-1 -1v0zM160 73v-16v16v-16h-32v0v16v0v64v0q1 20 14 34q14 13 34 14q20 -1 34 -14q13 -14 14 -34v-64v0v-16v0h-32v0v16v0v64v0q-1 15 -16 16q-15 -1 -16 -16v-64v0zM272 57h-16h16h-16v16v0v96v0
v16v0h32v0v-16v0v-44v0l31 52v0l5 8v0h9h19v-16v0v-96v0v-16v0h-32v0v16v0v44v0l-31 -52v0l-5 -8v0h-9h-3z" />
</svg>
