<?xml version="1.0" standalone="no"?>
<!DOCTYPE svg PUBLIC "-//W3C//DTD SVG 1.1//EN" "http://www.w3.org/Graphics/SVG/1.1/DTD/svg11.dtd" >
<svg xmlns="http://www.w3.org/2000/svg" xmlns:xlink="http://www.w3.org/1999/xlink" version="1.1" viewBox="-10 -40 660 512">
   <path fill="currentColor"
d="M304 -25l-16 -13l16 13l-16 -13l-15 13v0l-264 224v0l31 36v0l24 -20v0v234v0v24v0h24h307q-28 -20 -46 -48h-13v0v0v0h-96v0v-144v0h87v0q7 -26 21 -48h-132h-24v24v0v168v0h-80v0v-251v0l176 -149v0l160 135v0q23 -7 48 -7q10 0 19 1l-211 -179v0zM496 473q39 0 72 -19
v0v0q33 -19 53 -53q19 -34 19 -72t-19 -72q-20 -34 -53 -53t-72 -19t-72 19t-53 53q-19 34 -19 72t19 72q20 34 53 53t72 19v0zM555 292l-36 37l36 -37l-36 37l36 37v0l12 11v0l-23 23v0l-11 -12v0l-37 -36v0l-37 36v0l-11 12v0l-23 -23v0l12 -11v0l36 -37v0l-36 -37v0
l-12 -11v0l23 -23v0l11 12v0l37 36v0l37 -36v0l11 -12v0l23 23v0l-12 11v0z" />
</svg>
