<?xml version="1.0" standalone="no"?>
<!DOCTYPE svg PUBLIC "-//W3C//DTD SVG 1.1//EN" "http://www.w3.org/Graphics/SVG/1.1/DTD/svg11.dtd" >
<svg xmlns="http://www.w3.org/2000/svg" xmlns:xlink="http://www.w3.org/1999/xlink" version="1.1" viewBox="-10 -40 661 512">
   <path fill="currentColor"
d="M288 -38l16 13l-16 -13l16 13l134 114v0l-7 5v0q-15 9 -33 24l-110 -93v0l-176 149v0v251v0h80v0v-168v0v-24v0h24h90q-10 23 -15 48h-51v0v144v0h84v0q21 29 50 48h-286h-24v-24v0v-234v0l-24 20v0l-31 -36v0l264 -224v0l15 -13v0zM448 121l64 64l-64 -64l64 64l32 -32
v0q56 49 77 94q20 44 19 66q-2 68 -47 113t-113 47q-68 -2 -113 -47t-47 -113q1 -45 24 -84q22 -38 52 -66q29 -28 52 -42v0zM544 361q-1 -24 -17 -46v0v0q-15 -22 -30 -36v0v0q-16 -13 -17 -14q-1 1 -17 14q-15 14 -30 36q-16 22 -17 46q1 27 19 45q18 19 45 19t45 -19
q18 -18 19 -45v0z" />
</svg>
