<?xml version="1.0" standalone="no"?>
<!DOCTYPE svg PUBLIC "-//W3C//DTD SVG 1.1//EN" "http://www.w3.org/Graphics/SVG/1.1/DTD/svg11.dtd" >
<svg xmlns="http://www.w3.org/2000/svg" xmlns:xlink="http://www.w3.org/1999/xlink" version="1.1" viewBox="-10 -40 596 512">
   <path fill="currentColor"
d="M302 -27l-14 -9l14 9l-14 -9l-14 9v0l-192 136v0l-19 14v0l27 40v0l20 -14v0l2 -2v0v66v0l2 1v0l2 1v0v0q19 15 35 23q4 2 9 3v-128v0l128 -91v0l128 91v0v128v0q5 -1 9 -3q16 -8 35 -23v0v0l4 -3v0v-65v0l2 2v0l20 14v0l27 -40v0l-19 -14v0l-192 -136v0zM96 327
q7 5 17 11q15 9 35 16t44 7t44 -7q20 -8 35 -16q10 -6 17 -11q7 5 17 11q15 9 35 16t44 7t44 -7q20 -8 35 -16q10 -6 17 -11q7 5 17 11q15 9 35 16t44 7v-48v0q-30 -2 -55 -17q-22 -13 -40 -30v-1h-1h-1v0v0v1q-18 17 -40 30q-25 15 -55 17q-31 -2 -55 -17q-22 -13 -40 -30
v-1h-1h-1v1q-18 17 -40 30q-25 15 -55 17q-31 -2 -55 -17q-22 -13 -39 -30q-1 0 -2 -1v0v0v0v0v0v0q-1 0 -1 1q-18 17 -40 30q-24 15 -55 17v48v0q24 0 44 -7q20 -8 35 -16q10 -6 17 -11v0zM79 450q10 -6 17 -11q7 5 17 11q14 9 35 16q20 7 44 7t44 -7q20 -8 35 -16
q10 -6 17 -11q7 5 17 11q14 9 35 16q20 7 44 7t44 -7q20 -8 35 -16q10 -6 17 -11q7 5 17 11q15 9 35 16t44 7v-48v0q-31 -2 -55 -17q-22 -13 -40 -30v-1h-1h-1v1q-18 17 -40 30q-25 15 -55 17q-31 -2 -55 -17q-22 -13 -40 -30v-1h-1h-1v1q-18 17 -40 30q-25 15 -55 17
q-31 -2 -55 -17q-22 -13 -40 -30l-1 -1v0v0h-1v0v1q-18 17 -40 30q-24 15 -55 17v48v0q24 0 44 -7q20 -8 35 -16v0z" />
</svg>
