<?xml version="1.0" standalone="no"?>
<!DOCTYPE svg PUBLIC "-//W3C//DTD SVG 1.1//EN" "http://www.w3.org/Graphics/SVG/1.1/DTD/svg11.dtd" >
<svg xmlns="http://www.w3.org/2000/svg" xmlns:xlink="http://www.w3.org/1999/xlink" version="1.1" viewBox="-10 -40 586 512">
   <path fill="currentColor"
d="M240 105q0 -26 -13 -48v0v0q-13 -22 -35 -35q-23 -13 -48 -13t-48 13q-22 13 -35 35t-13 48t13 48t35 35q23 13 48 13t48 -13q22 -13 35 -35t13 -48v0zM286 129q-10 52 -49 86v0v0q-38 33 -93 34q-61 -2 -102 -42q-40 -41 -42 -102q2 -61 42 -102q41 -40 102 -42
q55 1 94 34q38 34 48 86h66v0v-40v0h48h144v48v0v32v0v48v0h-48h-144v-40v0h-66v0zM80 105q1 -36 32 -55q32 -18 64 0q31 19 32 55q-1 36 -32 55q-32 18 -64 0q-31 -19 -32 -55v0zM376 233v-32v32v-32h48v0v32v0h40h80v48v0h-32v0v144v0v48v0h-48h-176v-48v0v-144v0h-32v0
v-48v0h32h88zM464 425v-144v144v-144h-128v0v144v0h128v0zM160 281h16h-16h16q20 1 34 14q13 14 14 34q-1 20 -14 34q-14 13 -34 14h-16v0v32v0h-128v0v-128v0h96h32zM160 345h16h-16h16q15 -1 16 -16q-1 -15 -16 -16h-16v0v32v0zM0 425h224h-224h224v48v0h-224v0v-48v0z
M400 89v32v-32v32h96v0v-32v0h-96v0z" />
</svg>
