<?xml version="1.0" standalone="no"?>
<!DOCTYPE svg PUBLIC "-//W3C//DTD SVG 1.1//EN" "http://www.w3.org/Graphics/SVG/1.1/DTD/svg11.dtd" >
<svg xmlns="http://www.w3.org/2000/svg" xmlns:xlink="http://www.w3.org/1999/xlink" version="1.1" viewBox="-10 -40 660 512">
   <path fill="currentColor"
d="M223 40l-19 -32l19 32l-19 -32l-28 -47v0l-28 47v0l-19 32v0l-36 -5v0l-55 -8v0l20 52v0l13 34v0l-27 26v0l-40 37v0l53 17v0l35 11v0l3 37v0l5 55v0l45 -31v0l31 -20v0l31 20v0l29 20v0q-21 -34 -26 -76l-7 -4v0l-27 -18v0l-27 18v0l-8 6v0l-1 -11v0l-3 -32v0l-30 -10v0
l-11 -3v0l8 -7v0l23 -22v0l-11 -30v0l-4 -10v0l11 2v0l31 4v0l17 -28v0l5 -9v0l5 9v0l17 28v0l31 -5v0h6v0q20 -33 50 -56l-26 4v0l-36 5v0zM520 -39h-24h24h-24v48v0h24h38l-54 54v0q-43 -37 -104 -38q-68 2 -113 47t-47 113q1 61 39 105q38 43 97 53v34v0h-32h-24v48v0h24
h32v24v0v24v0h48v0v-24v0v-24v0h32h24v-48v0h-24h-32v-34v0q59 -10 97 -53q38 -44 39 -105q-1 -48 -25 -85l57 -57v0v30v0v24v0h48v0v-24v0v-88v0v-24v0h-24h-96zM512 185q-1 48 -33 79v0v0q-31 32 -79 33q-48 -1 -79 -33q-32 -31 -33 -79q1 -48 33 -79q31 -32 79 -33
q43 1 74 28l10 10v0q27 31 28 74v0z" />
</svg>
