<?xml version="1.0" standalone="no"?>
<!DOCTYPE svg PUBLIC "-//W3C//DTD SVG 1.1//EN" "http://www.w3.org/Graphics/SVG/1.1/DTD/svg11.dtd" >
<svg xmlns="http://www.w3.org/2000/svg" xmlns:xlink="http://www.w3.org/1999/xlink" version="1.1" viewBox="-10 -40 660 512">
   <path fill="currentColor"
d="M201 335q-1 -6 -1 -13q2 -42 22 -83q21 -42 49 -71l7 -7v0h10h74l7 7v0q28 29 49 71q20 41 22 83q0 7 -1 13q24 -33 25 -73q0 -32 -15 -74q-14 -42 -40 -81l-49 -66v0h-80v0l-49 66v0q-26 38 -40 81q-15 42 -15 74q0 41 25 73v0zM248 322q1 34 24 55v58v0
q-70 -17 -110 -71l-144 -36v0l-18 -4v0v-19v0v-192v0v-24v0h24h161q4 -5 7 -10l64 -86v0h128v0l64 86v0q3 5 7 10h161h24v24v0v192v0v19v0l-18 4v0l-144 36v0q-41 54 -110 71v-58v0q23 -21 24 -55q0 -26 -18 -62q-14 -30 -32 -51h-44v0q-18 21 -32 51q-18 36 -18 62v0z
M506 308l86 -22l-86 22l86 -22v-149v0h-111v0q30 68 31 125q0 24 -6 46v0zM159 137h-111h111h-111v149v0l86 22v0q-6 -22 -6 -46q1 -57 31 -125v0zM296 265h48h-48h48v208v0h-48v0v-208v0z" />
</svg>
