<?xml version="1.0" standalone="no"?>
<!DOCTYPE svg PUBLIC "-//W3C//DTD SVG 1.1//EN" "http://www.w3.org/Graphics/SVG/1.1/DTD/svg11.dtd" >
<svg xmlns="http://www.w3.org/2000/svg" xmlns:xlink="http://www.w3.org/1999/xlink" version="1.1" viewBox="-10 -40 596 512">
   <path fill="currentColor"
d="M482 35q-4 -13 -15 -20v0v0q-11 -6 -24 -3l58 217v0q13 -4 19 -15q7 -11 3 -25l-41 -154v0zM430 -34q33 -8 61 8v0v0q28 16 37 48l42 155v0q8 33 -8 61q-16 27 -49 37l-46 12v0l-13 -46v0l-23 -87v0l-335 88v0v183v0h44v0l58 -170v0l56 -14v0l-25 72v0h86v0l-28 -81v0
l47 -12v0l70 205v0h148h24v48v0h-24h-552v-48v0h24h24v-280v0v-24v0h48v0v24v0v47v0l136 -35v0l17 -52v0l6 -16v0h34v0l6 16v0l11 33v0l113 -30v0l-23 -83v0l-12 -47v0l46 -12v0zM353 425l-22 -64l22 64l-22 -64h-118v0l-22 64v0h162v0z" />
</svg>
