<?xml version="1.0" standalone="no"?>
<!DOCTYPE svg PUBLIC "-//W3C//DTD SVG 1.1//EN" "http://www.w3.org/Graphics/SVG/1.1/DTD/svg11.dtd" >
<svg xmlns="http://www.w3.org/2000/svg" xmlns:xlink="http://www.w3.org/1999/xlink" version="1.1" viewBox="-10 -40 597 512">
   <path fill="currentColor"
d="M32 9q1 -27 24 -42q24 -12 48 0q23 15 24 42q-1 27 -24 42q-24 12 -48 0q-23 -15 -24 -42v0zM398 79l8 3l-8 -3l8 3v0v0l88 24v0v0v0l14 3v0l3 14v0l22 82v0l36 35v0l8 8v0l-34 34v0l-8 -8v0l-40 -40v0l-4 -4v0l-2 -7v0l-7 -23v0l-25 82v0l54 45v0l6 5v0l2 7v0l24 96v0
l6 24v0l-47 11v0l-5 -23v0l-22 -88v0l-105 -85v0q-28 -25 -18 -62l23 -68v0l-36 18v0l-20 56v0l-10 26v0l-25 -14v0l-123 -72v0l62 286v0l7 29v0h-49v0l-4 -19v0l-31 -141v0h-31v0l35 160v0h-49v0l-53 -240v0v56v0v24v0h-48v0v-24v0v-176v0v-24v0h24h114l5 3v0l139 81v0
l16 -37v0l3 -8v0v-1v0l8 -3v0v0v0l80 -40v0v0v0l9 -5v0zM428 137l-30 91l30 -91l-30 91q-2 5 2 8l17 14v0l32 -104v0q0 -2 1 -3l-22 -6v0zM76 137l28 128l-28 -128l28 128h31v0l-28 -128v0h-31v0zM416 9q1 -27 24 -42q24 -12 48 0q23 15 24 42q-1 27 -24 42q-24 12 -48 0
q-23 -15 -24 -42v0zM332 364l24 -61l-24 61l24 -61l39 32v0l-21 51v0l-2 5v0l-3 3v0l-61 61v0l-17 17v0l-34 -34v0l17 -17v0l58 -57v0z" />
</svg>
