<?xml version="1.0" standalone="no"?>
<!DOCTYPE svg PUBLIC "-//W3C//DTD SVG 1.1//EN" "http://www.w3.org/Graphics/SVG/1.1/DTD/svg11.dtd" >
<svg xmlns="http://www.w3.org/2000/svg" xmlns:xlink="http://www.w3.org/1999/xlink" version="1.1" viewBox="-10 -40 596 512">
   <path fill="currentColor"
d="M176 -7v24v-24v24v134v0l161 49v0l177 -46v0l23 -6v0l12 46v0l-23 6v0l-154 40v0l-16 99v0q-6 -2 -13 -5q-15 -8 -32 -20l12 -68v0l-81 -24v0l-21 117v0q-15 5 -29 5q-10 0 -20 -3l23 -133v0l-50 -16v0l-17 -5v0v-18v0v-152v0v-24v0h48v0zM264 89q1 -32 28 -48
q28 -16 56 0q27 16 28 48q-1 32 -28 48q-28 16 -56 0q-27 -16 -28 -48v0zM79 418q-15 8 -35 16v0v0q-20 7 -44 7v-48v0q31 -2 55 -17q22 -13 40 -30q0 -1 1 -1v0v0v0v0q19 18 41 31q24 15 55 17q30 -2 55 -17q22 -13 40 -30v-1h1h1v1q18 17 40 30q24 15 55 17q30 -2 55 -17
q22 -13 40 -30v-1h1h1v1q18 17 40 30q24 15 55 17v48v0q-24 0 -44 -7q-20 -8 -35 -16q-10 -6 -17 -11q-7 5 -17 11q-15 9 -35 16t-44 7t-44 -7q-20 -8 -35 -16q-10 -6 -17 -11q-7 5 -17 11q-15 9 -35 16t-44 7t-44 -7q-20 -8 -35 -16q-10 -6 -17 -11q-7 5 -17 11v0z" />
</svg>
