<?xml version="1.0" standalone="no"?>
<!DOCTYPE svg PUBLIC "-//W3C//DTD SVG 1.1//EN" "http://www.w3.org/Graphics/SVG/1.1/DTD/svg11.dtd" >
<svg xmlns="http://www.w3.org/2000/svg" xmlns:xlink="http://www.w3.org/1999/xlink" version="1.1" viewBox="-10 -40 522 512">
   <path fill="currentColor"
d="M320 -15v-24v24v-24h-48v0v24v0v89v0l-162 73v0l-14 7v0v15v0v152v0v24v0h48v0v-24v0v-112v0l164 253v0l40 -26v0l-84 -131v0l63 -40v0h46v0l65 72v0l16 18v0l36 -32v0l-16 -18v0l-72 -80v0l-7 -8v0h-11h-64v0v0h-19v0l-54 -79v0l59 -27v0l14 -6v0v-16v0v-104v0zM264 248
l-26 17l26 -17l-26 17l-62 -95v0l27 -12v0l61 90v0zM112 89q27 -1 42 -24q12 -24 0 -48q-15 -23 -42 -24q-27 1 -42 24q-12 24 0 48q15 23 42 24v0z" />
</svg>
