<?xml version="1.0" standalone="no"?>
<!DOCTYPE svg PUBLIC "-//W3C//DTD SVG 1.1//EN" "http://www.w3.org/Graphics/SVG/1.1/DTD/svg11.dtd" >
<svg xmlns="http://www.w3.org/2000/svg" xmlns:xlink="http://www.w3.org/1999/xlink" version="1.1" viewBox="-10 -40 339 512">
   <path fill="currentColor"
d="M154 -39q28 -3 45 19q16 22 6 48q-12 25 -39 29q-28 3 -45 -19t-6 -48q12 -25 39 -29v0zM176 89h35h-35h49l7 12v0l75 136v0l12 21v0l-42 24v0l-12 -21v0l-41 -75v0v263v0v24v0h-48v0v-24v0v-136v0v0v0v-48v0v0v0v-128v0v0v0v-48v0zM95 89h14h-14h49v110v0l-31 98v0h31v0
v48v0v0v0v104v0v24v0h-48v0v-24v0v-104v0h-48v0l15 -48v0l37 -118v0l-45 82v0l-12 21v0l-42 -24v0l12 -21v0l75 -136v0l7 -12v0z" />
</svg>
