<?xml version="1.0" standalone="no"?>
<!DOCTYPE svg PUBLIC "-//W3C//DTD SVG 1.1//EN" "http://www.w3.org/Graphics/SVG/1.1/DTD/svg11.dtd" >
<svg xmlns="http://www.w3.org/2000/svg" xmlns:xlink="http://www.w3.org/1999/xlink" version="1.1" viewBox="-10 -40 660 512">
   <path fill="currentColor"
d="M219 -25q15 -13 37 -14q22 1 37 14t23 27q19 32 20 65v52v0l88 50v0q-25 11 -46 29l-78 -45v0l-12 -7v0v-13v0v-66v0q0 -17 -13 -40q-14 -20 -19 -18q-1 -1 -7 3q-6 5 -12 15q-13 23 -13 40v65v0v14v0l-12 7v0l-164 94v0v34v0l145 -41v0l31 -9v0v32v0v66v0v12v0l-10 7v0
l-54 41v0v32v0l89 -27v0l7 -2v0l7 2v0l82 25v0q19 32 50 54h-11h-28l-3 -1v0l-97 -30v0l-97 30v0l-3 1v0h-4h-40v-24v0v-72v0v-12v0l10 -7v0l54 -41v0v-22v0l-145 41v0l-31 9v0v-32v0v-80v0v-14v0l12 -7v0l164 -93v0v-52v0q1 -33 20 -65q9 -15 23 -27v0zM319 240l22 6
l-22 -6l22 6q-21 38 -21 83q0 20 4 39l-26 -20v0l-10 -7v0v-12v0v-66v0v-32v0l31 9v0zM496 185q39 0 72 19v0v0q33 19 53 53q19 34 19 72t-19 72q-20 34 -53 53t-72 19t-72 -19t-53 -53q-19 -34 -19 -72t19 -72q20 -34 53 -53t72 -19v0zM512 409v-32v32v-32h-32v0v32v0h32v0
zM512 233h-32h32h-32v16v0v80v0v16v0h32v0v-16v0v-80v0v-16v0z" />
</svg>
