<?xml version="1.0" standalone="no"?>
<!DOCTYPE svg PUBLIC "-//W3C//DTD SVG 1.1//EN" "http://www.w3.org/Graphics/SVG/1.1/DTD/svg11.dtd" >
<svg xmlns="http://www.w3.org/2000/svg" xmlns:xlink="http://www.w3.org/1999/xlink" version="1.1" viewBox="-10 -40 532 512">
   <path fill="currentColor"
d="M400 -7q34 1 57 23v0v0q22 23 23 57v32v0h-16v0q-34 -1 -57 -23q-22 -23 -23 -57v-32v0h16v0zM56 25h48h-48h72v48v0h-24h-72v-48v0h24v0zM24 97h112h-112h136v48v0h-24h-136v-48v0h24v0zM32 169h24h-24h96v48v0h-24h-72v-48v0zM272 -7h16h-16h16q34 1 57 23q22 23 23 57
v32v0h-16v0q-34 -1 -57 -23q-22 -23 -23 -57v-32v0zM176 -7q34 1 57 23v0v0q22 23 23 57v32v0h-16v0q-34 -1 -57 -23q-22 -23 -23 -57v-32v0h16v0zM480 137v32v-32v32q-1 34 -23 57q-23 22 -57 23h-16v0v-32v0q1 -34 23 -57q23 -22 57 -23h16v0zM352 137h16h-16h16v32v0
q-1 34 -23 57q-23 22 -57 23h-16v0v-32v0q1 -34 23 -57q23 -22 57 -23v0zM256 137v32v-32v32q-1 34 -23 57q-23 22 -57 23h-16v0v-32v0q1 -34 23 -57q23 -22 57 -23h16v0zM128 393h256h-256h256v-26v0l30 -12v0q21 -8 34 -26h-384v0q13 18 34 26l30 12v0v26v0zM80 400
q-50 -21 -71 -71q-9 -22 -9 -48h48h464q0 26 -9 48q-21 50 -71 71v41v0h-48h-304v-41v0z" />
</svg>
