<?xml version="1.0" standalone="no"?>
<!DOCTYPE svg PUBLIC "-//W3C//DTD SVG 1.1//EN" "http://www.w3.org/Graphics/SVG/1.1/DTD/svg11.dtd" >
<svg xmlns="http://www.w3.org/2000/svg" xmlns:xlink="http://www.w3.org/1999/xlink" version="1.1" viewBox="-10 -40 596 512">
   <path fill="currentColor"
d="M120 -15v-24v24v-24h-48v0v24v0v88v0h48v0v-88v0zM312 -15v-24v24v-24h-48v0v24v0v88v0h48v0v-88v0zM24 105h-24h24h-24v48v0h24h8v64v0q1 61 39 105q38 43 97 53v98v0h48v0v-98v0q23 -3 43 -13q-3 -16 -3 -33q0 -11 1 -21q-28 20 -65 21q-48 -1 -79 -33q-32 -31 -33 -79
v-64v0h224v0v55v0q21 -22 48 -36v-19v0h8h24v-48v0h-24h-336zM576 329q0 -39 -19 -72v0v0q-19 -33 -53 -53q-34 -19 -72 -19t-72 19q-34 20 -53 53t-19 72t19 72t53 53q34 19 72 19t72 -19q34 -20 53 -53t19 -72v0zM512 345h-16h16h-160v-32v0h16h144v32v0z" />
</svg>
