<?xml version="1.0" standalone="no"?>
<!DOCTYPE svg PUBLIC "-//W3C//DTD SVG 1.1//EN" "http://www.w3.org/Graphics/SVG/1.1/DTD/svg11.dtd" >
<svg xmlns="http://www.w3.org/2000/svg" xmlns:xlink="http://www.w3.org/1999/xlink" version="1.1" viewBox="-10 -40 596 512">
   <path fill="currentColor"
d="M288 329q0 -39 19 -72v0v0q19 -33 53 -53q34 -19 72 -19t72 19q34 20 53 53t19 72t-19 72t-53 53q-34 19 -72 19t-72 -19q-34 -20 -53 -53t-19 -72v0zM503 281l-23 -23l23 23l-23 -23l-11 12v0l-37 36v0l-37 -36v0l-11 -12v0l-23 23v0l12 11v0l36 37v0l-36 37v0l-12 11v0
l23 23v0l11 -12v0l37 -36v0l37 36v0l11 12v0l23 -23v0l-12 -11v0l-36 -37v0l36 -37v0l12 -11v0zM120 -39v24v-24v24v88v0h-48v0v-88v0v-24v0h48v0zM312 -39v24v-24v24v88v0h-48v0v-88v0v-24v0h48v0zM0 105h24h-24h384v48v0h-24h-8v19v0q-27 14 -48 36v-55v0h-224v0v64v0
q1 48 33 79q31 32 79 33q37 -1 65 -21q-1 10 -1 21q0 17 3 33q-20 10 -43 13v98v0h-48v0v-98v0q-59 -10 -97 -53q-38 -44 -39 -105v-64v0h-8h-24v-48v0z" />
</svg>
