<?xml version="1.0" standalone="no"?>
<!DOCTYPE svg PUBLIC "-//W3C//DTD SVG 1.1//EN" "http://www.w3.org/Graphics/SVG/1.1/DTD/svg11.dtd" >
<svg xmlns="http://www.w3.org/2000/svg" xmlns:xlink="http://www.w3.org/1999/xlink" version="1.1" viewBox="-10 -40 660 512">
   <path fill="currentColor"
d="M320 9v-48v48v-48h48h272v48v0v416v0v48v0h-48h-272v-48v0v-416v0zM504 425h88h-88h88v-416v0h-88v0v56v0v24v0h-48v0v-24v0v-56v0h-88v0v416v0h88v0v-56v0v-24v0h48v0v24v0v56v0zM504 153v24v-24v24v80v0v24v0h-48v0v-24v0v-80v0v-24v0h48v0zM24 57h264h-264h264v48v0
h-40v0v64v0h40v0v48v0h-64h-224v-48v0h24h48v-64v0h-48h-24v-48v0h24v0zM272 265h16h-16h16v48v0h-16v0q-24 1 -40 16q-15 16 -16 40v80v0v24v0h-24h-120v-24v0v-88v0q-1 -20 -14 -34q-14 -13 -34 -14h-24v0v-48v0h24v0q41 1 68 28t28 68v64v0h48v0v-56v0q1 -44 30 -74
q30 -29 74 -30v0zM200 105h-80h80h-80v64v0h80v0v-64v0z" />
</svg>
