<?xml version="1.0" standalone="no"?>
<!DOCTYPE svg PUBLIC "-//W3C//DTD SVG 1.1//EN" "http://www.w3.org/Graphics/SVG/1.1/DTD/svg11.dtd" >
<svg xmlns="http://www.w3.org/2000/svg" xmlns:xlink="http://www.w3.org/1999/xlink" version="1.1" viewBox="-10 -40 660 512">
   <path fill="currentColor"
d="M96 393l100 -352l-100 352l100 -352h100v0v24v0v24v0h48v0v-24v0v-24v0h100v0l32 113v0q10 -1 20 -1q16 0 31 3l-47 -163v0h-136h-184l-114 400v0l-14 48v0h50h278q-33 -41 -39 -96h-25v0v24v0v24v0h-200v0zM344 177v-24v24v-24h-48v0v24v0v80v0v24v0h31v0q6 -22 17 -41
v-63v0zM640 329q0 -39 -19 -72v0v0q-19 -33 -53 -53q-34 -19 -72 -19t-72 19q-34 20 -53 53t-19 72t19 72t53 53q34 19 72 19t72 -19q34 -20 53 -53t19 -72v0zM575 297l-12 11l12 -11l-12 11l-72 72v0l-11 12v0l-11 -12v0l-40 -40v0l-12 -11v0l23 -23v0l11 12v0l29 28v0
l61 -60v0l11 -12v0l23 23v0z" />
</svg>
