<?xml version="1.0" standalone="no"?>
<!DOCTYPE svg PUBLIC "-//W3C//DTD SVG 1.1//EN" "http://www.w3.org/Graphics/SVG/1.1/DTD/svg11.dtd" >
<svg xmlns="http://www.w3.org/2000/svg" xmlns:xlink="http://www.w3.org/1999/xlink" version="1.1" viewBox="-10 -40 660 512">
   <path fill="currentColor"
d="M96 393l100 -352l-100 352l100 -352h100v0v24v0v24v0h48v0v-24v0v-24v0h100v0l27 96v0q21 -13 46 -15l-37 -129v0h-136h-184l-114 400v0l-14 48v0h50h302v-48v0h-40v0v-24v0v-24v0h-48v0v24v0v24v0h-200v0zM344 177v-24v24v-24h-48v0v24v0v80v0v24v0h48v0v-24v0v-80v0z
M528 201q14 0 23 9v0v0q9 9 9 23v48v0h-64v0v-48v0q0 -14 9 -23t23 -9v0zM448 233v48v-48v48h-32v0v192v0h224v0v-192v0h-32v0v-48v0q-1 -34 -23 -57q-23 -22 -57 -23q-34 1 -57 23q-22 23 -23 57v0z" />
</svg>
