<?xml version="1.0" standalone="no"?>
<!DOCTYPE svg PUBLIC "-//W3C//DTD SVG 1.1//EN" "http://www.w3.org/Graphics/SVG/1.1/DTD/svg11.dtd" >
<svg xmlns="http://www.w3.org/2000/svg" xmlns:xlink="http://www.w3.org/1999/xlink" version="1.1" viewBox="-10 -40 404 512">
   <path fill="currentColor"
d="M48 9v416v-416v416h176v0v-112v0h112v0v-304v0h-288v0zM256 473h-208h208h-256v-48v0v-416v0v-48v0h48h336v48v0v336v0l-128 128v0zM203 68l-96 96l96 -96l-96 96l-11 12v0l-23 -23v0l12 -11v0l96 -96v0l11 -12v0l23 23v0l-12 11v0zM299 100l-160 160l160 -160l-160 160
l-11 12v0l-23 -23v0l12 -11v0l160 -160v0l11 -12v0l23 23v0l-12 11v0z" />
</svg>
