<?xml version="1.0" standalone="no"?>
<!DOCTYPE svg PUBLIC "-//W3C//DTD SVG 1.1//EN" "http://www.w3.org/Graphics/SVG/1.1/DTD/svg11.dtd" >
<svg xmlns="http://www.w3.org/2000/svg" xmlns:xlink="http://www.w3.org/1999/xlink" version="1.1" viewBox="-10 -40 468 512">
   <path fill="currentColor"
d="M48 41h352h-352h352v48v0h48v0v-48v0v-48v0h-48h-400v48v0v48v0h48v0v-48v0zM48 345h-48h48h-48v48v0v48v0h48h400v-48v0v-48v0h-48v0v48v0h-352v0v-48v0zM32 121v24v-24v24v144v0v24v0h48v0v-24v0v-65v0l48 78v0l7 11v0h14h27v-24v0v-144v0v-24v0h-48v0v24v0v65v0
l-48 -78v0l-7 -11v0h-14h-27zM216 121v24v-24v24v80v0v64v0v24v0h48v0v-24v0v-40v0h40h24v-48v0h-24h-40v-32v0h40h24v-48v0h-24h-88zM416 145v-24v24v-24h-48v0v24v0v144v0v24v0h48v0v-24v0v-144v0z" />
</svg>
