<?xml version="1.0" standalone="no"?>
<!DOCTYPE svg PUBLIC "-//W3C//DTD SVG 1.1//EN" "http://www.w3.org/Graphics/SVG/1.1/DTD/svg11.dtd" >
<svg xmlns="http://www.w3.org/2000/svg" xmlns:xlink="http://www.w3.org/1999/xlink" version="1.1" viewBox="-10 -40 596 512">
   <path fill="currentColor"
d="M0 -39h24h-24h256v24v0v464v0v24v0h-48v0v-24v0v-8v0h-160v0v8v0v24v0h-48v0v-24v0v-464v0v-24v0zM208 281h-48h48h-48v-96v0h48v0v-80v0h-160v0v288v0h160v0v-112v0zM208 57v-48v48v-48h-160v0v48v0h160v0zM320 -39h24h-24h256v24v0v464v0v24v0h-48v0v-24v0v-8v0h-160v0
v8v0v24v0h-48v0v-24v0v-464v0v-24v0zM528 281h-48h48h-48v-96v0h48v0v-80v0h-160v0v288v0h160v0v-112v0zM528 57v-48v48v-48h-160v0v48v0h160v0z" />
</svg>
