<?xml version="1.0" standalone="no"?>
<!DOCTYPE svg PUBLIC "-//W3C//DTD SVG 1.1//EN" "http://www.w3.org/Graphics/SVG/1.1/DTD/svg11.dtd" >
<svg xmlns="http://www.w3.org/2000/svg" xmlns:xlink="http://www.w3.org/1999/xlink" version="1.1" viewBox="-10 -40 532 512">
   <path fill="currentColor"
d="M410 159l-34 34l34 -34l-34 34l-31 -31v0l-112 112v0l53 53v0l34 34v0l-34 34v0l-6 6v0l-227 58v0l-53 14v0l14 -53v0l58 -227v0l6 -6v0l34 -34v0l34 34v0l53 53v0l112 -112v0l-31 -31v0l34 -34v0l68 -68v0l34 -34v0l34 34v0l28 28v0l34 34v0l-34 34v0l-68 68v0zM376 125
l68 -68l-68 68l68 -68l-28 -28v0l-68 68v0l28 28v0zM250 359l-136 -136l136 136l-136 -136l-47 183v0l183 -47v0z" />
</svg>
