<?xml version="1.0" standalone="no"?>
<!DOCTYPE svg PUBLIC "-//W3C//DTD SVG 1.1//EN" "http://www.w3.org/Graphics/SVG/1.1/DTD/svg11.dtd" >
<svg xmlns="http://www.w3.org/2000/svg" xmlns:xlink="http://www.w3.org/1999/xlink" version="1.1" viewBox="-10 -40 532 512">
   <path fill="currentColor"
d="M32 -7h-32h32h-32v16v0v16v0v16v0h32v0v304v0q1 41 28 68t68 28q35 -1 60 -21l-11 -11v0l39 -39v0l1 -1v0h-1h-46q-14 23 -42 24q-20 -1 -34 -14q-13 -14 -14 -34v-144v0h96v0v16v0l16 -16v0v0v0l32 -31v0v-129v0h32v0v-16v0v-16v0v-16v0h-32h-192zM80 153v-112v112v-112
h96v0v112v0h-96v0zM216 337q22 2 30 20v0v0q7 18 -7 35l-17 17v0l17 17v0l17 17v0l17 -17v0q17 -14 35 -7q19 8 20 30v0v0v24v0h24h24v-24v0v0v0q2 -22 20 -30q19 -7 35 7l17 17v0l17 -17v0l17 -17v0l-17 -17v0q-14 -17 -7 -35q8 -18 30 -20v0v0h24v0v-24v0v-24v0h-24v0v0v0
q-22 -2 -30 -20t7 -35l17 -17v0l-17 -17v0l-17 -17v0l-17 17v0q-17 14 -35 7q-18 -8 -20 -30v0v0v-24v0h-24h-24v24v0v0v0q-2 22 -20 30q-18 7 -35 -7l-17 -17v0l-17 17v0l-17 17v0l17 17v0q14 17 7 35q-8 19 -30 20v0v0h-24v0v24v0v24v0h24v0v0v0zM320 249q14 0 23 9v0v0
q9 9 9 23t-9 23t-23 9t-23 -9t-9 -23t9 -23t23 -9v0zM360 345q2 -22 24 -24q22 2 24 24q-2 22 -24 24q-22 -2 -24 -24v0z" />
</svg>
