<?xml version="1.0" standalone="no"?>
<!DOCTYPE svg PUBLIC "-//W3C//DTD SVG 1.1//EN" "http://www.w3.org/Graphics/SVG/1.1/DTD/svg11.dtd" >
<svg xmlns="http://www.w3.org/2000/svg" xmlns:xlink="http://www.w3.org/1999/xlink" version="1.1" viewBox="-10 -40 532 512">
   <path fill="currentColor"
d="M280 73q1 -27 19 -45v0v0q18 -18 45 -19q27 1 45 19t19 45v19v0q-53 13 -56 72q1 23 23 55q23 33 57 62q34 -29 57 -62q22 -32 23 -55q-3 -59 -56 -72v-19v0q-1 -48 -33 -79q-31 -32 -79 -33q-48 1 -79 33q-32 31 -33 79v36v0q-28 -19 -64 -20q-48 1 -79 33
q-32 31 -33 79v19v0q-53 13 -56 72q1 23 23 55q23 33 57 62q34 -29 57 -62q22 -32 23 -55q-3 -59 -56 -72v-19v0q1 -27 19 -45t45 -19q27 1 45 19t19 45v32v0v216v0v24v0h48v0v-24v0v-216v0v-32v0v-128v0zM55 272q4 -5 22 -7h3h3q18 2 23 7q5 3 6 20v0v0v1q0 3 -15 27
q-7 11 -17 22q-9 -11 -17 -22q-15 -24 -15 -28v0v0v0q1 -17 7 -20v0zM464 164v0v0v0v1v0q0 3 -15 27q-7 11 -17 22q-10 -11 -17 -22q-15 -24 -15 -28v0v0v0q1 -17 7 -20q4 -6 25 -7q21 1 25 7q6 3 7 20v0z" />
</svg>
