<?xml version="1.0" standalone="no"?>
<!DOCTYPE svg PUBLIC "-//W3C//DTD SVG 1.1//EN" "http://www.w3.org/Graphics/SVG/1.1/DTD/svg11.dtd" >
<svg xmlns="http://www.w3.org/2000/svg" xmlns:xlink="http://www.w3.org/1999/xlink" version="1.1" viewBox="-10 -40 650 512">
   <path fill="currentColor"
d="M60 473h-52h52h-52l18 -44v0q1 -1 1 -2q1 -1 1 -2q23 -64 30 -134q7 -71 6 -138q1 -82 28 -136t68 -56h332v0v0v0h4q37 2 58 25q20 20 31 46q23 52 23 121t-23 121q-11 26 -31 46q-21 23 -58 25q-25 -1 -42 -12q4 -31 6 -61q16 24 36 25q27 -2 45 -42q18 -41 19 -102
q-1 -61 -19 -102q-18 -40 -45 -42h-5q-25 6 -42 46q-16 40 -17 98q1 74 -7 152v1v0q-8 77 -35 147l-9 20v0h-321v0zM160 9v0v0v0v0h-1v0q-2 1 -5 4q-9 6 -19 26q-21 42 -23 114q1 63 -5 134q-6 70 -28 138h270v0q22 -61 29 -131t6 -141q0 -69 23 -121q5 -12 12 -23h-259v0z
M520 153q0 20 -7 34v0v0q-7 13 -17 14q-10 -1 -17 -14q-7 -14 -7 -34t7 -34q7 -13 17 -14q10 1 17 14q7 14 7 34v0zM315 148l-72 72l72 -72l-72 72l-11 12v0l-11 -12v0l-40 -40v0l-12 -11v0l23 -23v0l11 12v0l29 28v0l61 -60v0l11 -12v0l23 23v0l-12 11v0z" />
</svg>
