<?xml version="1.0" standalone="no"?>
<!DOCTYPE svg PUBLIC "-//W3C//DTD SVG 1.1//EN" "http://www.w3.org/Graphics/SVG/1.1/DTD/svg11.dtd" >
<svg xmlns="http://www.w3.org/2000/svg" xmlns:xlink="http://www.w3.org/1999/xlink" version="1.1" viewBox="-10 -40 532 512">
   <path fill="currentColor"
d="M48 153q1 67 23 108q23 38 41 36h213v0q-5 -7 -8 -14q-28 -54 -29 -130q1 -76 29 -130q3 -7 8 -14h-213v0q-18 -2 -41 36q-22 41 -23 108v0zM359 45q-22 41 -23 108q1 67 23 108q23 38 41 36q18 2 41 -36q22 -41 23 -108q-1 -67 -23 -108q-23 -38 -41 -36q-18 -2 -41 36
v0zM464 425v-113v113v-113q-25 31 -64 33h-288v0q-28 -1 -49 -19q-21 -17 -34 -43q-28 -54 -29 -130q1 -76 29 -130q13 -26 34 -43q21 -18 49 -19h288v0q28 1 49 19q21 17 35 43q27 54 28 130v296v0v24v0h-24h-328v-24v0v-72v0h48v0v48v0h256v0zM400 201q-10 -1 -17 -14v0v0
q-7 -14 -7 -34t7 -34q7 -13 17 -14q10 1 17 14q7 14 7 34t-7 34q-7 13 -17 14v0zM247 105l-12 11l12 -11l-12 11l-36 37v0l36 37v0l12 11v0l-23 23v0l-11 -12v0l-37 -36v0l-37 36v0l-11 12v0l-23 -23v0l12 -11v0l36 -37v0l-36 -37v0l-12 -11v0l23 -23v0l11 12v0l37 36v0
l37 -36v0l11 -12v0l23 23v0z" />
</svg>
