<?xml version="1.0" standalone="no"?>
<!DOCTYPE svg PUBLIC "-//W3C//DTD SVG 1.1//EN" "http://www.w3.org/Graphics/SVG/1.1/DTD/svg11.dtd" >
<svg xmlns="http://www.w3.org/2000/svg" xmlns:xlink="http://www.w3.org/1999/xlink" version="1.1" viewBox="-10 -40 459 512">
   <path fill="currentColor"
d="M63 -39h9h-9h322l6 6v0l48 40v0l-30 36v0l-42 -34v0h-119v0v48v0h88h48v48v0v256v0v48v0h-30v0l47 47v0l17 17v0h-68v0l-64 -64v0h-124v0l-64 64v0h-68v0v0v0l17 -17v0l47 -47v0h-30v0v-48v0v-256v0v-48v0h48h88v-48v0h-119v0l-42 34v0l-30 -36v0l48 -40v0l6 -6v0z
M336 105h-224h224h-224v96v0h224v0v-96v0zM112 361h224h-224h224v-112v0h-224v0v112v0zM160 289q22 2 24 24q-2 22 -24 24q-22 -2 -24 -24q2 -22 24 -24v0zM264 313q2 -22 24 -24q22 2 24 24q-2 22 -24 24q-22 -2 -24 -24v0z" />
</svg>
