<?xml version="1.0" standalone="no"?>
<!DOCTYPE svg PUBLIC "-//W3C//DTD SVG 1.1//EN" "http://www.w3.org/Graphics/SVG/1.1/DTD/svg11.dtd" >
<svg xmlns="http://www.w3.org/2000/svg" xmlns:xlink="http://www.w3.org/1999/xlink" version="1.1" viewBox="-10 -40 596 512">
   <path fill="currentColor"
d="M24 -7h-24h24h-24v24v0v104v0h48v0v-80v0h80v0v-48v0h-104v0zM0 153v128v-128v128h48v0v-128v0h-48v0zM0 313v104v-104v104v24v0h24h104v-48v0h-80v0v-80v0h-48v0zM400 41v112v-112v112h48v0v-136v0v-24v0h-24h-104v48v0h80v0zM160 441h96h-96h96v-48v0h-96v0v48v0z
M160 41h128h-128h128v-48v0h-128v0v48v0zM432 473q39 0 72 -19v0v0q33 -19 53 -53q19 -34 19 -72t-19 -72q-20 -34 -53 -53t-72 -19t-72 19t-53 53q-19 34 -19 72t19 72q20 34 53 53t72 19v0zM448 265v48v-48v48h48h16v32v0h-16h-48v48v0v16v0h-32v0v-16v0v-48v0h-48h-16
v-32v0h16h48v-48v0v-16v0h32v0v16v0z" />
</svg>
