<?xml version="1.0" standalone="no"?>
<!DOCTYPE svg PUBLIC "-//W3C//DTD SVG 1.1//EN" "http://www.w3.org/Graphics/SVG/1.1/DTD/svg11.dtd" >
<svg xmlns="http://www.w3.org/2000/svg" xmlns:xlink="http://www.w3.org/1999/xlink" version="1.1" viewBox="-10 -40 532 512">
   <path fill="currentColor"
d="M280 -7h-24h24h-24v48v0h24h88v21v0l-48 41v0l-2 2v0h-11v0q-44 0 -84 17q-39 17 -70 48l-19 -33v0h2h24v-48v0h-24h-104v48v0h24h22l44 73v0l-2 4q-1 1 -2 3h-6q-48 1 -79 33q-32 31 -33 79q1 48 33 79q31 32 79 33q48 -1 79 -33q32 -31 33 -79q0 -32 -16 -58t-42 -40
q23 -37 60 -57q37 -21 81 -21h12v0l11 44v0q-33 16 -53 46q-20 31 -21 70q1 54 37 91q37 36 91 37q54 -1 91 -37q36 -37 37 -91q-1 -54 -37 -91q-37 -36 -91 -37h-7l-14 -55v0l45 -39v0l8 -7v0v-11v0v-56v0v-24v0h-24h-112zM342 245l19 74l-19 -74l19 74l6 23v0l46 -12v0
l-6 -23v0l-18 -74v0q32 3 53 25t22 55q-1 34 -23 57q-23 22 -57 23q-34 -1 -57 -23q-22 -23 -23 -57q2 -45 38 -68v0zM112 265q36 1 55 32q18 32 0 64q-19 31 -55 32q-36 -1 -55 -32q-18 -32 0 -64q19 -31 55 -32v0z" />
</svg>
