<?xml version="1.0" standalone="no"?>
<!DOCTYPE svg PUBLIC "-//W3C//DTD SVG 1.1//EN" "http://www.w3.org/Graphics/SVG/1.1/DTD/svg11.dtd" >
<svg xmlns="http://www.w3.org/2000/svg" xmlns:xlink="http://www.w3.org/1999/xlink" version="1.1" viewBox="-10 -40 660 512">
   <path fill="currentColor"
d="M288 25h24h-24h93l7 11v0l124 186v0q15 -5 32 -5q41 1 68 28t28 68q-1 41 -28 68t-68 28q-41 -1 -68 -28t-28 -68q1 -38 25 -64l-13 -19v0l-48 72v0l-7 11v0h-13h-43l-2 -1v0l-60 -13v0q1 7 1 14q-1 41 -28 68t-68 28q-27 0 -48 -13q1 0 2 -1q-22 14 -50 14
q-41 -1 -68 -28t-28 -68q1 -44 32 -71l-5 -1v0l-24 -6v0l11 -47v0l23 6v0l318 71v0h24v0l52 -78v0l-76 -114v0h-43h-24v-48v0zM185 276q7 17 7 37q0 26 -12 47q6 1 12 1q20 -1 34 -14q13 -14 14 -34q0 -15 -8 -26l-47 -11v0zM72 51l7 23l-7 -23l7 23l20 61v0l98 19v0l23 5v0
l-9 47v0l-24 -5v0l-112 -22v0l-14 -2v0l-4 -14v0l-24 -75v0l-7 -23v0l46 -14v0zM144 313q-1 -27 -24 -42q-24 -12 -48 0q-23 15 -24 42q1 27 24 42q24 12 48 0q23 -15 24 -42v0zM592 313q-1 -27 -24 -42q-24 -12 -48 0q-23 15 -24 42q1 27 24 42q24 12 48 0q23 -15 24 -42v0
z" />
</svg>
