<?xml version="1.0" standalone="no"?>
<!DOCTYPE svg PUBLIC "-//W3C//DTD SVG 1.1//EN" "http://www.w3.org/Graphics/SVG/1.1/DTD/svg11.dtd" >
<svg xmlns="http://www.w3.org/2000/svg" xmlns:xlink="http://www.w3.org/1999/xlink" version="1.1" viewBox="-10 -40 660 512">
   <path fill="currentColor"
d="M440 -15v-24v24v-24h-48v0v24v0v8v0h-144v0v-8v0v-24v0h-48v0v24v0v8v0h-120h-48v48v0v272v0h-32v0v48v0h32h264v88v0v24v0h48v0v-24v0v-88v0h216h80v-48v0h-32v0v-272v0v-48v0h-48h-120v-8v0zM200 89h-8h8h-32v48v0h24h88v-48v0h-24h-8v-48v0h144v0v48v0h-8h-24v48v0h24
h88v-48v0h-24h-8v-48v0h120v0v272v0h-480v0v-272v0h120v0v48v0z" />
</svg>
