<?xml version="1.0" standalone="no"?>
<!DOCTYPE svg PUBLIC "-//W3C//DTD SVG 1.1//EN" "http://www.w3.org/Graphics/SVG/1.1/DTD/svg11.dtd" >
<svg xmlns="http://www.w3.org/2000/svg" xmlns:xlink="http://www.w3.org/1999/xlink" version="1.1" viewBox="-10 -40 532 512">
   <path fill="currentColor"
d="M48 17v-24v24v-24h-48v0v24v0v400v0v24v0h24h488v-48v0h-24h-440v-376v0zM344 281h112h-112h136v-24v0v-112v0v-24v0h-48v0v24v0v54v0l-111 -111v0l-17 -17v0l-17 17v0l-79 79v0l-63 -63v0l-17 -17v0l-34 34v0l17 17v0l80 80v0l17 17v0l17 -17v0l79 -79v0l94 94v0h-54
h-24v48v0h24v0z" />
</svg>
