<?xml version="1.0" standalone="no"?>
<!DOCTYPE svg PUBLIC "-//W3C//DTD SVG 1.1//EN" "http://www.w3.org/Graphics/SVG/1.1/DTD/svg11.dtd" >
<svg xmlns="http://www.w3.org/2000/svg" xmlns:xlink="http://www.w3.org/1999/xlink" version="1.1" viewBox="-10 -40 522 512">
   <path fill="currentColor"
d="M80 89q1 27 24 42q24 12 48 0q23 -15 24 -42q-1 -27 -24 -42q-24 -12 -48 0q-23 15 -24 42v0zM128 185q-26 0 -48 -13v0v0q-22 -13 -35 -35q-13 -23 -13 -48t13 -48q13 -22 35 -35t48 -13t48 13t35 35q13 23 13 48t-13 48q-13 22 -35 35t-48 13v0zM80 345q1 27 24 42
q24 12 48 0q23 -15 24 -42q-1 -27 -24 -42q-24 -12 -48 0q-23 15 -24 42v0zM128 441q-26 0 -48 -13v0v0q-22 -13 -35 -35q-13 -23 -13 -48t13 -48q13 -22 35 -35t48 -13t48 13t35 35q13 23 13 48t-13 48q-13 22 -35 35t-48 13v0zM384 137q27 -1 42 -24q12 -24 0 -48
q-15 -23 -42 -24q-27 1 -42 24q-12 24 0 48q15 23 42 24v0zM480 89q0 26 -13 48v0v0q-13 22 -35 35q-23 13 -48 13t-48 -13q-22 -13 -35 -35t-13 -48t13 -48t35 -35q23 -13 48 -13t48 13q22 13 35 35t13 48v0zM384 233q22 2 24 24v64v0h64v0q22 2 24 24q-2 22 -24 24h-64v0
v64v0q-2 22 -24 24q-22 -2 -24 -24v-64v0h-64v0q-22 -2 -24 -24q2 -22 24 -24h64v0v-64v0q2 -22 24 -24v0z" />
</svg>
