<?xml version="1.0" standalone="no"?>
<!DOCTYPE svg PUBLIC "-//W3C//DTD SVG 1.1//EN" "http://www.w3.org/Graphics/SVG/1.1/DTD/svg11.dtd" >
<svg xmlns="http://www.w3.org/2000/svg" xmlns:xlink="http://www.w3.org/1999/xlink" version="1.1" viewBox="-10 -40 660 512">
   <path fill="currentColor"
d="M112 41h416h-416h416v240v0h48v0v-240v0v-48v0h-48h-464v48v0v240v0h48v0v-240v0zM52 361h536h-536h536l-32 32v0h-472v0l-32 -32v0zM640 377v-16v16v-16v-48v0h-48h-592v48v0v16v0l64 64v0h512v0l64 -64v0zM176 89h-16h16h-16v16v0v80v0v16v0h16h80v-16v0v-80v0v-16v0
h-16h-64zM192 169v-48v48v-48h32v0v48v0h-32v0zM304 89h-16h16h-16v32v0h16v0v64v0v16v0h32v0v-16v0v-80v0v-16v0h-16h-16zM384 89v16v-16v16v80v0v16v0h16h80v-16v0v-80v0v-16v0h-16h-80zM416 121h32h-32h32v48v0h-32v0v-48v0zM192 233h-16h16h-16v32v0h16v0v16v0h32v0v-32
v0v-16v0h-16h-16zM448 233h-16h16h-48v32v0h16v0v16v0h32v0v-32v0v-16v0zM368 249v-16v16v-16h-16h-80v16v0v32v0h32v0v-16v0h32v0v16v0h32v0v-32v0z" />
</svg>
