<?xml version="1.0" standalone="no"?>
<!DOCTYPE svg PUBLIC "-//W3C//DTD SVG 1.1//EN" "http://www.w3.org/Graphics/SVG/1.1/DTD/svg11.dtd" >
<svg xmlns="http://www.w3.org/2000/svg" xmlns:xlink="http://www.w3.org/1999/xlink" version="1.1" viewBox="-10 -40 532 512">
   <path fill="currentColor"
d="M48 425h48h-48h48v48v0h-48h-48v-48v0v-416v0v-48v0h48h208l128 128v0v160v0h-48v0v-128v0h-112v0v-112v0h-176v0v416v0zM176 313h32h-32h32q20 1 34 14q13 14 14 34v64v0q-1 20 -14 34q-14 13 -34 14h-32h-16v-16v0v-128v0v-16v0h16v0zM192 441h16h-16h16q15 -1 16 -16
v-64v0q-1 -15 -16 -16h-16v0v96v0zM456 313h16h-16h16q17 0 28 12q12 11 12 28v8v0v16v0h-32v0v-16v0v-8v0q-1 -7 -8 -8h-16v0q-7 1 -8 8v80v0q1 7 8 8h16v0q7 -1 8 -8v-8v0v-16v0h32v0v16v0v8v0q0 17 -12 28q-11 12 -28 12h-16v0q-17 0 -28 -12q-12 -11 -12 -28v-80v0
q0 -17 12 -28q11 -12 28 -12v0zM288 353q0 -17 12 -28v0v0q11 -12 28 -12h16v0q17 0 28 12q12 11 12 28v80v0q0 17 -12 28q-11 12 -28 12h-16v0q-17 0 -28 -12q-12 -11 -12 -28v-80v0zM328 345q-7 1 -8 8v80v0q1 7 8 8h16v0q7 -1 8 -8v-80v0q-1 -7 -8 -8h-16v0z" />
</svg>
