<?xml version="1.0" standalone="no"?>
<!DOCTYPE svg PUBLIC "-//W3C//DTD SVG 1.1//EN" "http://www.w3.org/Graphics/SVG/1.1/DTD/svg11.dtd" >
<svg xmlns="http://www.w3.org/2000/svg" xmlns:xlink="http://www.w3.org/1999/xlink" version="1.1" viewBox="-10 -40 532 512">
   <path fill="currentColor"
d="M48 425h112h-112h112v48v0h-112h-48v-48v0v-416v0v-48v0h48h208l128 128v0v160v0h-48v0v-128v0h-112v0v-112v0h-176v0v416v0zM240 313h64h-64h80v16v0v8v0v4v0l-2 4v0l-55 96v0h41h16v32v0h-16h-80v-16v0v-8v0v-4v0l2 -4v0l55 -96v0h-41h-16v-32v0h16v0zM384 329v128
v-128v128v16v0h-32v0v-16v0v-128v0v-16v0h32v0v16v0zM416 313h16h-16h40q24 1 40 16q15 16 16 40q-1 24 -16 40q-16 15 -40 16h-8v0v32v0v16v0h-32v0v-16v0v-48v0v-80v0v-16v0zM448 393h8h-8h8q22 -2 24 -24q-2 -22 -24 -24h-8v0v48v0z" />
</svg>
