<?xml version="1.0" standalone="no"?>
<!DOCTYPE svg PUBLIC "-//W3C//DTD SVG 1.1//EN" "http://www.w3.org/Graphics/SVG/1.1/DTD/svg11.dtd" >
<svg xmlns="http://www.w3.org/2000/svg" xmlns:xlink="http://www.w3.org/1999/xlink" version="1.1" viewBox="-10 -40 650 512">
   <path fill="currentColor"
d="M272 190v-14v14v-14v-167v0h-96v0v167v0v14v0l-7 11v0l-69 112v0h226v0l-36 21v0l70 121v0v18v0h-312h-48v-48v0v-41v0l128 -208v0v-167v0h-8h-24v-48v0h24h232v48v0h-24h-8v167v0l19 31v0l-27 47v0l-33 -53v0l-7 -11v0zM436 167h88h-88h88v43v0q12 5 22 13l35 -21v0
l45 78v0l-35 20v0q1 7 1 13t-1 12l35 20v0l-45 78v0l-35 -20v0q-10 8 -22 13v42v0h-88v0v-42v0q-12 -5 -22 -13l-35 20v0l-45 -78v0l35 -20v0q-1 -6 -1 -12q0 -7 1 -13l-35 -20v0l45 -78v0l34 21v0q11 -8 23 -13v-43v0zM528 313q0 -28 -23 -44q-25 -13 -50 0q-23 16 -23 44
t23 43q25 14 50 0q23 -15 23 -43v0z" />
</svg>
