<?xml version="1.0" standalone="no"?>
<!DOCTYPE svg PUBLIC "-//W3C//DTD SVG 1.1//EN" "http://www.w3.org/Graphics/SVG/1.1/DTD/svg11.dtd" >
<svg xmlns="http://www.w3.org/2000/svg" xmlns:xlink="http://www.w3.org/1999/xlink" version="1.1" viewBox="-10 -40 660 512">
   <path fill="currentColor"
d="M432 -39h-9h9h-9l-7 6v0l-56 48v0l-8 7v0v11v0v40v0v10v0l7 7v0l24 24v0l7 7v0h10h72q22 2 24 24v40v0h-41v0l-34 -23v0q-62 -41 -136 -41q-94 1 -164 64l-113 102v0l-8 7v0v11v0v144v0v24v0h24h296v-24v0v-77v0v-22v0l-21 -2v0l-139 -16v0v-19v0h-24h-24v24v0v16v0v21v0
l21 3v0l139 16v0v32v0h-224v0v-109v0l105 -96v0q57 -50 132 -51q60 0 109 33l41 27v0l6 4v0h7h96v-24v0v-64v0q-1 -31 -21 -51t-51 -21h-62v0l-10 -10v0v-19v0l41 -35v0h22v0q55 1 91 38q37 36 38 91v18v0q0 55 -23 103t-64 84l-9 7v0v11v0v64v0h-16h-48v-32v0v-35v0l-33 13
v0v0v0h-1v0q-1 0 -4 2q-7 2 -20 5q-9 1 -22 3v49v0q18 -3 32 -6v0v0v25v0v24v0h24h136v-24v0v-77v0q46 -42 71 -98q25 -55 25 -118v-18v0q-2 -75 -52 -125t-125 -52h-31v0zM480 41q-1 -15 -16 -16q-15 1 -16 16q1 15 16 16q15 -1 16 -16v0z" />
</svg>
