<?xml version="1.0" standalone="no"?>
<!DOCTYPE svg PUBLIC "-//W3C//DTD SVG 1.1//EN" "http://www.w3.org/Graphics/SVG/1.1/DTD/svg11.dtd" >
<svg xmlns="http://www.w3.org/2000/svg" xmlns:xlink="http://www.w3.org/1999/xlink" version="1.1" viewBox="-10 -40 532 512">
   <path fill="currentColor"
d="M368 -39q27 1 42 24q12 24 0 48q-15 23 -42 24q-27 -1 -42 -24q-12 -24 0 -48q15 -23 42 -24v0zM224 73h8h-8h75l3 1v0l88 24v0l13 3v0l4 13v0l27 87v0h54h24v48v0h-24h-90l-5 -17v0l-12 -41v0l-29 85v0l44 24v0l17 10v0l-6 18v0l-45 145v0h-51v0l44 -141v0l-88 -49v0
q-17 -11 -25 -29q-7 -18 0 -38l31 -95v0h-33v0l-58 43v0l-3 3v0l-29 -38v0l4 -3v0l64 -48v0l6 -5v0zM321 129l-34 103l34 -103l-34 103q-2 6 4 9l19 11v0l38 -116v0l-27 -7v0zM219 278q11 20 33 33l4 3v0l-18 47v0l-5 16v0h-17h-120v-48v0h24h79l20 -51v0zM16 57h128h-128
h144v32v0h-16h-144v-32v0h16v0zM0 121h16h-16h96v32v0h-16h-80v-32v0zM16 185h128h-128h144v32v0h-16h-144v-32v0h16v0z" />
</svg>
