<?xml version="1.0" standalone="no"?>
<!DOCTYPE svg PUBLIC "-//W3C//DTD SVG 1.1//EN" "http://www.w3.org/Graphics/SVG/1.1/DTD/svg11.dtd" >
<svg xmlns="http://www.w3.org/2000/svg" xmlns:xlink="http://www.w3.org/1999/xlink" version="1.1" viewBox="-10 -40 660 512">
   <path fill="currentColor"
d="M192 249q1 62 30 112q-74 -3 -123 -52q-49 -50 -51 -124q2 -75 52 -124q49 -50 124 -52q59 1 104 34q-61 27 -98 81q-37 55 -38 125v0zM224 409q17 0 33 -2q31 31 71 48q41 18 88 18q63 -1 113 -31q51 -29 80 -80q30 -50 31 -113q-1 -63 -31 -113q-29 -51 -80 -80
q-50 -30 -113 -31q-17 0 -33 2q-31 -31 -71 -48q-41 -18 -88 -18q-63 1 -113 31q-51 29 -80 80q-30 50 -31 113q1 63 31 113q29 51 80 80q50 30 113 31v0zM416 425q-59 -1 -104 -34q61 -27 98 -81q37 -55 38 -125q-1 -62 -30 -112q74 3 123 52q49 50 51 124q-2 75 -52 124
q-49 50 -124 52v0z" />
</svg>
