<?xml version="1.0" standalone="no"?>
<!DOCTYPE svg PUBLIC "-//W3C//DTD SVG 1.1//EN" "http://www.w3.org/Graphics/SVG/1.1/DTD/svg11.dtd" >
<svg xmlns="http://www.w3.org/2000/svg" xmlns:xlink="http://www.w3.org/1999/xlink" version="1.1" viewBox="-10 -40 660 512">
   <path fill="currentColor"
d="M496 153q-72 2 -121 48h-103v0v-239v0q8 -1 16 -1q87 2 148 55q60 54 74 138q-7 -1 -14 -1v0zM272 249h67h-67h67q-11 22 -16 48h-99h-48v-48v0v-197v0q-57 21 -92 69t-36 112q2 82 56 136t136 56q52 -1 95 -25q10 22 25 41q-54 31 -120 32q-67 -1 -121 -33t-86 -86
t-33 -121q1 -84 50 -147q48 -62 126 -84q23 -7 48 -8v48v0v159v0v48v0h48v0zM352 329q0 -39 19 -72v0v0q19 -33 53 -53q34 -19 72 -19t72 19q34 20 53 53t19 72t-19 72t-53 53q-34 19 -72 19t-72 -19q-34 -20 -53 -53t-19 -72v0zM471 304q14 -16 35 -11q20 6 26 26
q5 21 -11 35q-14 16 -35 11q-20 -6 -26 -26q-5 -21 11 -35v0zM531 387l26 25l-26 -25l26 25l22 -22v0l-25 -26v0q20 -35 0 -70l25 -26v0l-22 -22v0l-26 25v0q-35 -20 -70 0l-26 -25v0l-22 22v0l25 26v0q-20 35 0 70l-25 26v0l22 22v0l26 -25v0q35 20 70 0v0z" />
</svg>
