<?xml version="1.0" standalone="no"?>
<!DOCTYPE svg PUBLIC "-//W3C//DTD SVG 1.1//EN" "http://www.w3.org/Graphics/SVG/1.1/DTD/svg11.dtd" >
<svg xmlns="http://www.w3.org/2000/svg" xmlns:xlink="http://www.w3.org/1999/xlink" version="1.1" viewBox="-10 -40 596 512">
   <path fill="currentColor"
d="M64 -39v32v-32v32h-16h-48v48v0v288v0v48v0h48h16v96v0h48v0v-96v0h352v0v96v0h48v0v-96v0h16h48v-48v0v-288v0v-48v0h-48h-16v-32v0h-48v0v32v0h-352v0v-32v0h-48v0zM528 41v288v-288v288h-480v0v-288v0h480v0z" />
</svg>
