<?xml version="1.0" standalone="no"?>
<!DOCTYPE svg PUBLIC "-//W3C//DTD SVG 1.1//EN" "http://www.w3.org/Graphics/SVG/1.1/DTD/svg11.dtd" >
<svg xmlns="http://www.w3.org/2000/svg" xmlns:xlink="http://www.w3.org/1999/xlink" version="1.1" viewBox="-10 -40 532 512">
   <path fill="currentColor"
d="M48 425h16h-16h16v48v0h-16h-48v-48v0v-416v0v-48v0h48h208l128 128v0v160v0h-48v0v-128v0h-112v0v-112v0h-176v0v416v0zM256 329v128v-128v128v16v0h-32v0v-16v0v-74v0l-18 34v0l-14 26v0l-14 -26v0l-18 -33v0v73v0v16v0h-32v0v-16v0v-128v0v-16v0h16h14l4 8v0l30 54v0
l28 -53v0l5 -9v0h9h22v16v0zM304 313h32h-32h32q24 1 40 16q15 16 16 40q-1 24 -16 40q-16 15 -40 16h-16v0v32v0v16v0h-32v0v-16v0v-48v0v-80v0v-16v0h16v0zM336 393q22 -2 24 -24q-2 -22 -24 -24h-16v0v48v0h16v0zM416 409v-16v16v-16v-64v0v-16v0h32v0v16v0v48v0h32v0
v-48v0v-16v0h32v0v16v0v64v0v64v0v16v0h-32v0v-16v0v-48v0h-48h-16z" />
</svg>
