<?xml version="1.0" standalone="no"?>
<!DOCTYPE svg PUBLIC "-//W3C//DTD SVG 1.1//EN" "http://www.w3.org/Graphics/SVG/1.1/DTD/svg11.dtd" >
<svg xmlns="http://www.w3.org/2000/svg" xmlns:xlink="http://www.w3.org/1999/xlink" version="1.1" viewBox="-10 -40 532 512">
   <path fill="currentColor"
d="M48 425h48h-48h48v48v0h-48h-48v-48v0v-416v0v-48v0h48h208l128 128v0v160v0h-48v0v-128v0h-112v0v-112v0h-176v0v416v0zM288 313h16h-16h48q24 1 40 16q15 16 16 40q-1 24 -16 40q-16 15 -40 16h-16v0v32v0v16v0h-32v0v-16v0v-48v0v-80v0v-16v0zM320 393h16h-16h16
q22 -2 24 -24q-2 -22 -24 -24h-16v0v48v0zM160 313h16h-16h48q24 1 40 16q15 16 16 40q-1 24 -16 40q-16 15 -40 16h-16v0v32v0v16v0h-32v0v-16v0v-48v0v-80v0v-16v0zM192 393h16h-16h16q22 -2 24 -24q-2 -22 -24 -24h-16v0v48v0zM416 313h16h-16h96v32v0h-16h-16v112v0v16
v0h-32v0v-16v0v-112v0h-16h-16v-32v0z" />
</svg>
