<?xml version="1.0" standalone="no"?>
<!DOCTYPE svg PUBLIC "-//W3C//DTD SVG 1.1//EN" "http://www.w3.org/Graphics/SVG/1.1/DTD/svg11.dtd" >
<svg xmlns="http://www.w3.org/2000/svg" xmlns:xlink="http://www.w3.org/1999/xlink" version="1.1" viewBox="-10 -40 404 512">
   <path fill="currentColor"
d="M48 425v-416v416v-416h176v0v112v0h112v0v304v0h-288v0zM256 -39h-208h208h-256v48v0v416v0v48v0h48h336v-48v0v-336v0l-128 -128v0zM240 185h-96h96h-96v-16v0h-64v0v64v0h16v0v96v0h-16v0v64v0h64v0v-16v0h96v0v16v0h64v0v-64v0h-16v0v-96v0h16v0v-64v0h-64v0v16v0z
M240 329h-96h96h-96v-96v0h96v0v96v0z" />
</svg>
