<?xml version="1.0" standalone="no"?>
<!DOCTYPE svg PUBLIC "-//W3C//DTD SVG 1.1//EN" "http://www.w3.org/Graphics/SVG/1.1/DTD/svg11.dtd" >
<svg xmlns="http://www.w3.org/2000/svg" xmlns:xlink="http://www.w3.org/1999/xlink" version="1.1" viewBox="-10 -40 654 512">
   <path fill="currentColor"
d="M56 -7h-24h24h-24v24v0v120v0v24v0v24v0v98v0q-31 31 -32 78q1 48 33 79q31 32 79 33h256v0q48 -1 79 -33q32 -31 33 -79q0 -31 -15 -56h47v0v56v0v9v0l6 7v0l80 88v0l36 -32v0l-74 -81v0v-142v0l74 -81v0l-36 -32v0l-80 88v0l-6 7v0v9v0v56v0h-64v0v-96v0v-24v0h-24h-48
v-56v0v-24v0h-48v0v24v0v56v0h-53v0l-61 -130v0l-7 -14v0h-15h-136zM222 137h-142h142h-142v-96v0h97v0l45 96v0zM400 254q-15 -5 -32 -5h-256v0q-17 0 -32 5v-69v0h320v0v69v0zM112 297h256h-256h256q27 1 45 19t19 45q-1 27 -19 45t-45 19h-256v0q-27 -1 -45 -19t-19 -45
q1 -27 19 -45t45 -19v0zM144 361q-2 -22 -24 -24q-22 2 -24 24q2 22 24 24q22 -2 24 -24v0zM360 385q22 -2 24 -24q-2 -22 -24 -24q-22 2 -24 24q2 22 24 24v0zM304 361q-2 -22 -24 -24q-22 2 -24 24q2 22 24 24q22 -2 24 -24v0zM200 385q22 -2 24 -24q-2 -22 -24 -24
q-22 2 -24 24q2 22 24 24v0z" />
</svg>
