<?xml version="1.0" standalone="no"?>
<!DOCTYPE svg PUBLIC "-//W3C//DTD SVG 1.1//EN" "http://www.w3.org/Graphics/SVG/1.1/DTD/svg11.dtd" >
<svg xmlns="http://www.w3.org/2000/svg" xmlns:xlink="http://www.w3.org/1999/xlink" version="1.1" viewBox="-10 -40 650 512">
   <path fill="currentColor"
d="M600 -39v24v-24v24v464v0v24v0h-48v0v-24v0v-464v0v-24v0h48v0zM472 57v24v-24v24v368v0v24v0h-48v0v-24v0v-368v0v-24v0h48v0zM344 153v24v-24v24v272v0v24v0h-48v0v-24v0v-272v0v-24v0h48v0zM216 249v24v-24v24v176v0v24v0h-48v0v-24v0v-176v0v-24v0h48v0zM88 345v24
v-24v24v80v0v24v0h-48v0v-24v0v-80v0v-24v0h48v0z" />
</svg>
