<?xml version="1.0" standalone="no"?>
<!DOCTYPE svg PUBLIC "-//W3C//DTD SVG 1.1//EN" "http://www.w3.org/Graphics/SVG/1.1/DTD/svg11.dtd" >
<svg xmlns="http://www.w3.org/2000/svg" xmlns:xlink="http://www.w3.org/1999/xlink" version="1.1" viewBox="-10 -40 588 512">
   <path fill="currentColor"
d="M288 -38l16 13l-16 -13l16 13l264 224v0l-32 36v0l-24 -20v0v234v0v24v0h-24h-424v-24v0v-234v0l-24 20v0l-31 -36v0l264 -224v0l15 -13v0zM288 24l-176 150l176 -150l-176 150v251v0h80v0v-168v0v-24v0h24h168v24v0v168v0h80v0v-251v0l-176 -149v-1zM240 425h96h-96h96
v-144v0h-96v0v144v0z" />
</svg>
