<?xml version="1.0" standalone="no"?>
<!DOCTYPE svg PUBLIC "-//W3C//DTD SVG 1.1//EN" "http://www.w3.org/Graphics/SVG/1.1/DTD/svg11.dtd" >
<svg xmlns="http://www.w3.org/2000/svg" xmlns:xlink="http://www.w3.org/1999/xlink" version="1.1" viewBox="-10 -40 532 512">
   <path fill="currentColor"
d="M48 -7h-48h48h-48v448v0h48v0v-448v0zM128 -7h-32h32h-32v448v0h32v0v-448v0zM208 -7h-48h48h-48v448v0h48v0v-448v0zM320 -7h-48h48h-48v448v0h48v0v-448v0zM464 -7v448v-448v448h48v0v-448v0h-48v0zM400 -7v448v-448v448h32v0v-448v0h-32v0z" />
</svg>
