<?xml version="1.0" standalone="no"?>
<!DOCTYPE svg PUBLIC "-//W3C//DTD SVG 1.1//EN" "http://www.w3.org/Graphics/SVG/1.1/DTD/svg11.dtd" >
<svg xmlns="http://www.w3.org/2000/svg" xmlns:xlink="http://www.w3.org/1999/xlink" version="1.1" viewBox="-10 -40 532 512">
   <path fill="currentColor"
d="M112 9h-96h96h-96v96v0h96v0v-96v0zM184 33h-24h24h-24v48v0h24h328v-48v0h-24h-304zM184 193h-24h24h-24v48v0h24h328v-48v0h-24h-304zM184 353h-24h24h-24v48v0h24h328v-48v0h-24h-304zM16 169v96v-96v96h96v0v-96v0h-96v0zM112 329h-96h96h-96v96v0h96v0v-96v0z" />
</svg>
