<?xml version="1.0" standalone="no"?>
<!DOCTYPE svg PUBLIC "-//W3C//DTD SVG 1.1//EN" "http://www.w3.org/Graphics/SVG/1.1/DTD/svg11.dtd" >
<svg xmlns="http://www.w3.org/2000/svg" xmlns:xlink="http://www.w3.org/1999/xlink" version="1.1" viewBox="-10 -40 596 512">
   <path fill="currentColor"
d="M129 322q-27 -26 -46 -54v0v0q-19 -27 -30 -51q11 -24 30 -51q19 -28 46 -54q32 -32 72 -51t87 -20q47 1 87 20t72 51q27 26 46 54q19 27 31 51q-12 24 -31 51q-19 28 -46 54q-32 32 -72 51t-87 20q-47 -1 -87 -20t-72 -51v0zM288 441q79 -2 138 -41v0v0q60 -40 97 -92v0
v0q38 -52 53 -91q-15 -39 -53 -91q-37 -52 -97 -92q-59 -39 -138 -41q-79 2 -138 41q-59 40 -97 92t-53 91q15 39 53 91t97 92q59 39 138 41v0zM288 297q-34 -1 -57 -23v0v0q-22 -23 -23 -57q0 -8 2 -16l78 16v0l-16 -78v0q8 -2 16 -2q34 1 57 23q22 23 23 57q-1 34 -23 57
q-23 22 -57 23v0zM160 217q1 54 37 91v0v0q37 36 91 37q54 -1 91 -37q36 -37 37 -91q-1 -54 -37 -91q-37 -36 -91 -37q-13 0 -25 3q-38 8 -65 34q-27 27 -35 65l-1 1v0q-2 12 -2 25v0z" />
</svg>
