<?xml version="1.0" standalone="no"?>
<!DOCTYPE svg PUBLIC "-//W3C//DTD SVG 1.1//EN" "http://www.w3.org/Graphics/SVG/1.1/DTD/svg11.dtd" >
<svg xmlns="http://www.w3.org/2000/svg" xmlns:xlink="http://www.w3.org/1999/xlink" version="1.1" viewBox="-10 -40 468 512">
   <path fill="currentColor"
d="M0 -7h24h-24h160v24v0v200v0q1 27 19 45t45 19q27 -1 45 -19t19 -45v-200v0v-24v0h24h136v24v0v200v0q-1 63 -31 113q-29 51 -80 80q-50 30 -113 31q-63 -1 -113 -31q-51 -29 -80 -80q-30 -50 -31 -113v-200v0v-24v0zM48 217q2 75 52 124v0v0q49 50 124 52q75 -2 124 -52
q50 -49 52 -124v-64v0h-64v0v64v0q-1 48 -33 79q-31 32 -79 33q-48 -1 -79 -33q-32 -31 -33 -79v-64v0h-64v0v64v0z" />
</svg>
