<?xml version="1.0" standalone="no"?>
<!DOCTYPE svg PUBLIC "-//W3C//DTD SVG 1.1//EN" "http://www.w3.org/Graphics/SVG/1.1/DTD/svg11.dtd" >
<svg xmlns="http://www.w3.org/2000/svg" xmlns:xlink="http://www.w3.org/1999/xlink" version="1.1" viewBox="-10 -40 596 512">
   <path fill="currentColor"
d="M0 169h48h-48h72v184v0v24v0h24h224v-48v0h-24h-176v-160v0h24h48v-48v0l-62 -62v0l-34 -34v0l-34 34v0l-62 62v0v48v0zM96 93l28 28l-28 -28l28 28h-56v0l28 -28v0zM576 265h-48h48h-72v-184v0v-24v0h-24h-224v48v0h24h176v160v0h-24h-48v48v0l62 62v0l34 34v0l34 -34v0
l62 -62v0v-48v0zM480 341l-28 -28l28 28l-28 -28h56v0l-28 28v0z" />
</svg>
