<?xml version="1.0" standalone="no"?>
<!DOCTYPE svg PUBLIC "-//W3C//DTD SVG 1.1//EN" "http://www.w3.org/Graphics/SVG/1.1/DTD/svg11.dtd" >
<svg xmlns="http://www.w3.org/2000/svg" xmlns:xlink="http://www.w3.org/1999/xlink" version="1.1" viewBox="-10 -40 532 512">
   <path fill="currentColor"
d="M316 263l-24 -3l24 3l-24 -3l-18 17v0l-20 20v0h-30h-48v48v0v16v0h-16h-48v48v0v16v0h-64v0v-78v0l148 -148v0l17 -17v0l-3 -25v0q-2 -10 -2 -20q1 -54 37 -91q37 -36 91 -37q54 1 91 37q36 37 37 91q-1 54 -37 91q-37 36 -91 37q-10 0 -20 -2v0zM272 345h2h-2h2l7 -7v0
l27 -27v0q14 2 28 2q75 -2 124 -52q50 -49 52 -124q-2 -75 -52 -124q-49 -50 -124 -52q-75 2 -124 52q-50 49 -52 124q0 14 2 28l-155 155v0l-7 7v0v10v0v88v0v24v0v24v0h24h136v-16v0v-8v0v-24v0v-16v0h16h48v-16v0v-8v0v-24v0v-16v0h40h8zM368 137q14 0 23 -9v0v0
q9 -9 9 -23t-9 -23t-23 -9t-23 9t-9 23t9 23t23 9v0z" />
</svg>
