<?xml version="1.0" standalone="no"?>
<!DOCTYPE svg PUBLIC "-//W3C//DTD SVG 1.1//EN" "http://www.w3.org/Graphics/SVG/1.1/DTD/svg11.dtd" >
<svg xmlns="http://www.w3.org/2000/svg" xmlns:xlink="http://www.w3.org/1999/xlink" version="1.1" viewBox="-10 -40 531 512">
   <path fill="currentColor"
d="M168 41h24h-24h24v-48v0h-24h-168v24v0v400v0v24v0h24h168v-48v0h-24h-120v-352v0h120v0zM494 234l17 -17l-17 17l17 -17l-17 -17v0l-128 -128v0l-17 -17v0l-34 34v0l17 17v0l87 87v0h-235h-24v48v0h24h235l-87 87v0l-17 17v0l34 34v0l17 -17v0l128 -128v0z" />
</svg>
