<?xml version="1.0" standalone="no"?>
<!DOCTYPE svg PUBLIC "-//W3C//DTD SVG 1.1//EN" "http://www.w3.org/Graphics/SVG/1.1/DTD/svg11.dtd" >
<svg xmlns="http://www.w3.org/2000/svg" xmlns:xlink="http://www.w3.org/1999/xlink" version="1.1" viewBox="-10 -40 532 512">
   <path fill="currentColor"
d="M328 -39h-24h24h-24v48v0h24h102l-223 223v0l-17 17v0l34 34v0l17 -17v0l223 -223v0v102v0v24v0h48v0v-24v0v-160v0v-24v0h-24h-160zM24 -7h-24h24h-24v24v0v432v0v24v0h24h456v-24v0v-176v0v-24v0h-48v0v24v0v152v0h-384v0v-384v0h152h24v-48v0h-24h-176z" />
</svg>
