<?xml version="1.0" standalone="no"?>
<!DOCTYPE svg PUBLIC "-//W3C//DTD SVG 1.1//EN" "http://www.w3.org/Graphics/SVG/1.1/DTD/svg11.dtd" >
<svg xmlns="http://www.w3.org/2000/svg" xmlns:xlink="http://www.w3.org/1999/xlink" version="1.1" viewBox="-10 -40 596 512">
   <path fill="currentColor"
d="M312 339q6 -2 13 -6q27 -4 67 -18q41 -15 83 -45q42 -32 71 -86t30 -135v-24v0h-24h-106q1 -8 1 -16v0q1 -23 1 -48h-48h-272q0 25 1 48q0 8 1 16h-106h-24v24v0q1 81 30 135t72 86q41 30 82 45q41 14 67 18q7 4 13 6v86v0h-80h-24v48v0h24h232v-48v0h-24h-80v-86v0z
M445 232q-27 20 -54 32q17 -30 31 -77t21 -114h84v0q-5 58 -28 97q-23 38 -54 62v0zM49 73h84h-84h84q7 67 21 114t31 77q-27 -12 -54 -32q-31 -24 -54 -62q-23 -39 -28 -97v0zM177 9h222h-222h222q-6 113 -26 174q-20 60 -42 83q-23 25 -36 29q-5 1 -7 2q-3 -1 -7 -2
q-13 -4 -36 -29q-22 -23 -42 -83q-20 -61 -26 -174v0z" />
</svg>
