<?xml version="1.0" standalone="no"?>
<!DOCTYPE svg PUBLIC "-//W3C//DTD SVG 1.1//EN" "http://www.w3.org/Graphics/SVG/1.1/DTD/svg11.dtd" >
<svg xmlns="http://www.w3.org/2000/svg" xmlns:xlink="http://www.w3.org/1999/xlink" version="1.1" viewBox="-10 -40 468 512">
   <path fill="currentColor"
d="M48 41v352v-352v352h352v0v-352v0h-352v0zM0 -7h48h-48h448v48v0v352v0v48v0h-48h-400v-48v0v-352v0v-48v0zM168 89l40 72l-40 -72l40 72l-42 34v0q28 52 81 80l33 -42v0l72 40v0l-16 72v0h-16v0q-63 -1 -113 -31q-51 -29 -80 -80q-30 -50 -31 -113v-16v0l72 -16v0z" />
</svg>
