<?xml version="1.0" standalone="no"?>
<!DOCTYPE svg PUBLIC "-//W3C//DTD SVG 1.1//EN" "http://www.w3.org/Graphics/SVG/1.1/DTD/svg11.dtd" >
<svg xmlns="http://www.w3.org/2000/svg" xmlns:xlink="http://www.w3.org/1999/xlink" version="1.1" viewBox="-14 0 536 512">
   <path fill="currentColor"
d="M151 30l13 -14l-13 14l13 -14l-29 -27v0l-14 15v0l-58 64v0l-25 -25v0l-14 -14v0l-28 28v0l14 14v0l40 40v0l15 15v0l14 -16v0l72 -80v0zM151 190l13 -14l-13 14l13 -14l-29 -27v0l-14 15v0l-58 64v0l-25 -25v0l-14 -14v0l-28 28v0l14 14v0l40 40v0l15 15v0l14 -16v0
l72 -80v0zM192 33v48v-48v48h24h296v-48v0h-24h-296zM192 193v48v-48v48h24h296v-48v0h-24h-296zM160 353v48v-48v48h24h328v-48v0h-24h-328zM96 377q0 -14 -9 -23v0v0q-9 -9 -23 -9t-23 9t-9 23t9 23t23 9t23 -9t9 -23v0z" />
</svg>
