<?xml version="1.0" standalone="no"?>
<!DOCTYPE svg PUBLIC "-//W3C//DTD SVG 1.1//EN" "http://www.w3.org/Graphics/SVG/1.1/DTD/svg11.dtd" >
<svg xmlns="http://www.w3.org/2000/svg" xmlns:xlink="http://www.w3.org/1999/xlink" version="1.1" viewBox="-10 -40 660 512">
   <path fill="currentColor"
d="M144 121q45 -1 69 -40q22 -40 0 -80q-24 -39 -69 -40q-45 1 -69 40q-22 40 0 80q24 39 69 40v0zM512 121q45 -1 69 -40q22 -40 0 -80q-24 -39 -69 -40q-45 1 -69 40q-22 40 0 80q24 39 69 40v0zM48 153l-48 128l48 -128l-48 128h235v0q-41 -37 -43 -96q0 -17 4 -32h-148
v0zM640 281l-48 -128l48 128l-48 -128h-148v0q4 15 4 32q-2 59 -43 96h235v0zM320 137q27 1 42 24q12 24 0 48q-15 23 -42 24q-27 -1 -42 -24q-12 -24 0 -48q15 -23 42 -24v0zM320 281q26 0 48 -13v0v0q22 -13 35 -35q13 -23 13 -48t-13 -48q-13 -22 -35 -35t-48 -13t-48 13
t-35 35q-13 23 -13 48t13 48q13 22 35 35t48 13v0zM212 361h216h-216h216l20 64v0h-255v0l19 -64v0zM464 313h-288h288h-288l-34 112v0l-14 48v0h50h334l-14 -48v0l-34 -112v0z" />
</svg>
