<?xml version="1.0" standalone="no"?>
<!DOCTYPE svg PUBLIC "-//W3C//DTD SVG 1.1//EN" "http://www.w3.org/Graphics/SVG/1.1/DTD/svg11.dtd" >
<svg xmlns="http://www.w3.org/2000/svg" xmlns:xlink="http://www.w3.org/1999/xlink" version="1.1" viewBox="-10 -40 532 512">
   <path fill="currentColor"
d="M64 25q-14 0 -23 9v0v0q-9 9 -9 23t9 23t23 9t23 -9t9 -23t-9 -23t-23 -9v0zM184 33h-24h24h-24v48v0h24h328v-48v0h-24h-304zM184 193h-24h24h-24v48v0h24h328v-48v0h-24h-304zM184 353h-24h24h-24v48v0h24h328v-48v0h-24h-304zM96 217q0 -14 -9 -23v0v0q-9 -9 -23 -9
t-23 9t-9 23t9 23t23 9t23 -9t9 -23v0zM64 345q-14 0 -23 9v0v0q-9 9 -9 23t9 23t23 9t23 -9t9 -23t-9 -23t-23 -9v0z" />
</svg>
