<?xml version="1.0" standalone="no"?>
<!DOCTYPE svg PUBLIC "-//W3C//DTD SVG 1.1//EN" "http://www.w3.org/Graphics/SVG/1.1/DTD/svg11.dtd" >
<svg xmlns="http://www.w3.org/2000/svg" xmlns:xlink="http://www.w3.org/1999/xlink" version="1.1" viewBox="-10 -40 532 512">
   <path fill="currentColor"
d="M112 473l34 -34l-34 34l34 -34l332 -332v0l34 -34v0l-34 -34v0l-44 -44v0l-34 -34v0l-34 34v0l-332 332v0l-34 34v0l34 34v0l44 44v0l34 34v0zM359 158l-44 -44l44 44l-44 -44l85 -85v0l44 44v0l-85 85v0zM325 192l-213 213l213 -213l-213 213l-44 -44v0l213 -213v0
l44 44v0z" />
</svg>
