<?xml version="1.0" standalone="no"?>
<!DOCTYPE svg PUBLIC "-//W3C//DTD SVG 1.1//EN" "http://www.w3.org/Graphics/SVG/1.1/DTD/svg11.dtd" >
<svg xmlns="http://www.w3.org/2000/svg" xmlns:xlink="http://www.w3.org/1999/xlink" version="1.1" viewBox="-10 -40 660 512">
   <path fill="currentColor"
d="M432 41v256v-256v256h-288v0v-256v0h288v0zM144 -7h-48h48h-48v48v0v256v0v48v0h48h336v-48v0v-48v0h32v0q54 -1 91 -37q36 -37 37 -91q-1 -54 -37 -91q-37 -36 -91 -37h-32h-336zM512 201h-32h32h-32v-160v0h32v0q34 1 57 23q22 23 23 57q-1 34 -23 57q-23 22 -57 23v0z
M24 393h-24h24h-24v48v0h24h552v-48v0h-24h-528z" />
</svg>
