<?xml version="1.0" standalone="no"?>
<!DOCTYPE svg PUBLIC "-//W3C//DTD SVG 1.1//EN" "http://www.w3.org/Graphics/SVG/1.1/DTD/svg11.dtd" >
<svg xmlns="http://www.w3.org/2000/svg" xmlns:xlink="http://www.w3.org/1999/xlink" version="1.1" viewBox="-10 -40 532 512">
   <path fill="currentColor"
d="M288 -39v64v-64v64h-64v0v-64v0h64v0zM369 375l45 -45l-45 45l45 -45l46 45v0l-46 46v0l-45 -46v0zM224 409h64h-64h64v64v0h-64v0v-64v0zM52 59l46 -46l-46 46l46 -46l45 46v0l-45 45v0l-46 -45v0zM64 185v64v-64v64h-64v0v-64v0h64v0zM52 375l46 -45l-46 45l46 -45
l45 45v0l-45 46v0l-46 -46v0zM512 185v64v-64v64h-64v0v-64v0h64v0z" />
</svg>
