<?xml version="1.0" standalone="no"?>
<!DOCTYPE svg PUBLIC "-//W3C//DTD SVG 1.1//EN" "http://www.w3.org/Graphics/SVG/1.1/DTD/svg11.dtd" >
<svg xmlns="http://www.w3.org/2000/svg" xmlns:xlink="http://www.w3.org/1999/xlink" version="1.1" viewBox="-10 -40 532 512">
   <path fill="currentColor"
d="M464 217q0 57 -28 104v0v0q-27 47 -76 76q-49 28 -104 28t-104 -28q-49 -29 -76 -76q-28 -47 -28 -104t28 -104q27 -47 76 -76q49 -28 104 -28t104 28q49 29 76 76q28 47 28 104v0zM256 -39q-70 1 -128 34v0v0q-58 34 -94 94q-34 61 -34 128t34 128q36 60 94 94
q58 33 128 34q70 -1 128 -34q58 -34 94 -94q34 -61 34 -128t-34 -128q-36 -60 -94 -94q-58 -33 -128 -34v0zM176 201q14 0 23 -9v0v0q9 -9 9 -23t-9 -23t-23 -9q-13 0 -22 9t-10 23q1 14 10 23t22 9v0zM368 169q0 -14 -9 -23v0v0q-9 -9 -23 -9q-13 0 -22 9t-10 23
q1 14 10 23t22 9q14 0 23 -9t9 -23v0zM184 289h-24h24h-24v48v0h24h168v-48v0h-24h-144z" />
</svg>
