<?xml version="1.0" standalone="no"?>
<!DOCTYPE svg PUBLIC "-//W3C//DTD SVG 1.1//EN" "http://www.w3.org/Graphics/SVG/1.1/DTD/svg11.dtd" >
<svg xmlns="http://www.w3.org/2000/svg" xmlns:xlink="http://www.w3.org/1999/xlink" version="1.1" viewBox="-10 -40 660 512">
   <path fill="currentColor"
d="M48 73v288v-288v288h544v0v-288v0h-544v0zM0 25h48h-48h640v48v0v288v0v48v0h-48h-592v-48v0v-288v0v-48v0zM232 161v32v-32v32h32h24v48v0h-24h-32v32v0v24v0h-48v0v-24v0v-32v0h-32h-24v-48v0h24h32v-32v0v-24v0h48v0v24v0zM400 233q14 0 23 9v0v0q9 9 9 23t-9 23
t-23 9t-23 -9t-9 -23t9 -23t23 -9v0zM432 169q0 -14 9 -23v0v0q9 -9 23 -9t23 9t9 23t-9 23t-23 9t-23 -9t-9 -23v0z" />
</svg>
