<?xml version="1.0" standalone="no"?>
<!DOCTYPE svg PUBLIC "-//W3C//DTD SVG 1.1//EN" "http://www.w3.org/Graphics/SVG/1.1/DTD/svg11.dtd" >
<svg xmlns="http://www.w3.org/2000/svg" xmlns:xlink="http://www.w3.org/1999/xlink" version="1.1" viewBox="-10 -40 532 512">
   <path fill="currentColor"
d="M24 25h-24h24h-24v48v0h24h27l96 144v0l-96 144v0h-27h-24v48v0h24h53l7 -11v0l92 -138v0l92 138v0l7 11v0h13h64v-48v0h-24h-27l-96 -144v0l96 -144v0h27h24v-48v0h-24h-53l-7 11v0l-92 138v0l-92 -138v0l-7 -11v0h-13h-40zM408 249h-24h24h-24v48v0h24h16v128v0h-16
h-24v48v0h24h104v-48v0h-24h-16v-152v0v-24v0h-24h-40z" />
</svg>
