<?xml version="1.0" standalone="no"?>
<!DOCTYPE svg PUBLIC "-//W3C//DTD SVG 1.1//EN" "http://www.w3.org/Graphics/SVG/1.1/DTD/svg11.dtd" >
<svg xmlns="http://www.w3.org/2000/svg" xmlns:xlink="http://www.w3.org/1999/xlink" version="1.1" viewBox="-10 -40 394 512">
   <path fill="currentColor"
d="M144 9h96h-96h96v208v0q-1 20 -14 34q-14 13 -34 14q-20 -1 -34 -14q-13 -14 -14 -34v-208v0zM96 -39v48v-48v48v208v0q1 41 28 68t68 28q41 -1 68 -28t28 -68v-208v0v-48v0h-48h-144zM64 177v-24v24v-24h-48v0v24v0v40v0q1 68 44 116q42 48 108 58v34v0h-48h-24v48v0h24
h168v-48v0h-24h-48v-34v0q66 -10 108 -58q43 -48 44 -116v-40v0v-24v0h-48v0v24v0v40v0q-1 54 -37 91q-37 36 -91 37q-54 -1 -91 -37q-36 -37 -37 -91v-40v0z" />
</svg>
