<?xml version="1.0" standalone="no"?>
<!DOCTYPE svg PUBLIC "-//W3C//DTD SVG 1.1//EN" "http://www.w3.org/Graphics/SVG/1.1/DTD/svg11.dtd" >
<svg xmlns="http://www.w3.org/2000/svg" xmlns:xlink="http://www.w3.org/1999/xlink" version="1.1" viewBox="-10 -40 339 512">
   <path fill="currentColor"
d="M112 9q1 -27 24 -42q24 -12 48 0q23 15 24 42q-1 27 -24 42q-24 12 -48 0q-23 -15 -24 -42v0zM95 89h14h-14h130l7 12v0l75 136v0l12 21v0l-42 24v0l-12 -21v0l-41 -75v0v263v0v24v0h-48v0v-24v0v-136v0h-32v0v136v0v24v0h-48v0v-24v0v-263v0l-41 75v0l-12 21v0l-42 -24
v0l12 -21v0l75 -136v0l7 -12v0zM144 265h32h-32h32v-128v0h-32v0v128v0z" />
</svg>
