<?xml version="1.0" standalone="no"?>
<!DOCTYPE svg PUBLIC "-//W3C//DTD SVG 1.1//EN" "http://www.w3.org/Graphics/SVG/1.1/DTD/svg11.dtd" >
<svg xmlns="http://www.w3.org/2000/svg" xmlns:xlink="http://www.w3.org/1999/xlink" version="1.1" viewBox="-10 -40 538 512">
   <path fill="currentColor"
d="M192 -39q27 1 42 24q12 24 0 48q-15 23 -42 24q-27 -1 -42 -24q-12 -24 0 -48q15 -23 42 -24v0zM48 313q1 48 33 79v0v0q31 32 79 33q32 0 58 -16t41 -43l42 22v0q-21 39 -58 62q-37 22 -83 23q-68 -2 -113 -47t-47 -113q1 -52 29 -92t75 -58l16 45v0q-32 13 -52 41
q-19 28 -20 64v0zM211 85l5 24l-5 -24l5 24l5 28v0h123h24v48v0h-24h-114l13 73v0q1 7 8 7h133h16l6 14v0l47 108v0l27 -9v0l23 -7v0l15 45v0l-22 8v0l-48 16v0l-21 7v0l-9 -20v0l-50 -114v0h-117v0q-21 0 -36 -13t-19 -33l-28 -150v0l-4 -23v0l47 -9v0z" />
</svg>
