<?xml version="1.0" standalone="no"?>
<!DOCTYPE svg PUBLIC "-//W3C//DTD SVG 1.1//EN" "http://www.w3.org/Graphics/SVG/1.1/DTD/svg11.dtd" >
<svg xmlns="http://www.w3.org/2000/svg" xmlns:xlink="http://www.w3.org/1999/xlink" version="1.1" viewBox="-10 -40 532 512">
   <path fill="currentColor"
d="M272 121q-1 -34 43 -73q45 -37 101 -39q20 1 34 14q13 14 14 34q-2 56 -39 101q-39 44 -73 43h-20v0l-14 -14v0l-32 -32v0l-14 -14v0v-20v0zM285 222l27 27l-27 -27l27 27h40v0q41 -1 77 -28q36 -28 59 -72q23 -43 24 -92q-1 -41 -28 -68t-68 -28q-49 1 -92 24
q-44 23 -72 59q-27 36 -28 77v40v0l27 27v0l-233 233v0l-17 17v0l34 34v0l17 -17v0l233 -233v0z" />
</svg>
