<?xml version="1.0" standalone="no"?>
<!DOCTYPE svg PUBLIC "-//W3C//DTD SVG 1.1//EN" "http://www.w3.org/Graphics/SVG/1.1/DTD/svg11.dtd" >
<svg xmlns="http://www.w3.org/2000/svg" xmlns:xlink="http://www.w3.org/1999/xlink" version="1.1" viewBox="-10 -40 404 512">
   <path fill="currentColor"
d="M48 9h176h-176h176v112v0h112v0v304v0h-288v0v-416v0zM256 -39h-208h208h-256v48v0v416v0v48v0h48h336v-48v0v-336v0l-128 -128v0zM227 355l31 36l-31 -36l31 36q37 -38 38 -94q-1 -56 -38 -94l-32 36v0q21 24 22 58q-1 34 -21 58v0zM96 337h40h-40h40l40 40v0h16v0v-160
v0h-16v0l-40 40v0h-40v0v80v0z" />
</svg>
