<?xml version="1.0" standalone="no"?>
<!DOCTYPE svg PUBLIC "-//W3C//DTD SVG 1.1//EN" "http://www.w3.org/Graphics/SVG/1.1/DTD/svg11.dtd" >
<svg xmlns="http://www.w3.org/2000/svg" xmlns:xlink="http://www.w3.org/1999/xlink" version="1.1" viewBox="-10 -40 468 512">
   <path fill="currentColor"
d="M48 41v352v-352v352h352v0v-352v0h-352v0zM0 -7h48h-48h448v48v0v352v0v48v0h-48h-400v-48v0v-352v0v-48v0zM352 137q-1 20 -14 34v0v0q-14 13 -34 14q-15 0 -26 -8l-80 40v0l80 40v0q11 -8 26 -8q20 1 34 14q14 14 14 34t-14 34q-14 13 -34 14q-19 0 -33 -13
q-13 -13 -15 -32l-85 -43v0q-12 8 -27 8q-20 -1 -34 -14q-13 -14 -14 -34q1 -20 14 -34q14 -13 34 -14q15 0 27 8l85 -43v0q2 -19 15 -32t33 -13q20 1 34 14q13 14 14 34v0z" />
</svg>
