<?xml version="1.0" standalone="no"?>
<!DOCTYPE svg PUBLIC "-//W3C//DTD SVG 1.1//EN" "http://www.w3.org/Graphics/SVG/1.1/DTD/svg11.dtd" >
<svg xmlns="http://www.w3.org/2000/svg" xmlns:xlink="http://www.w3.org/1999/xlink" version="1.1" viewBox="-10 -40 404 512">
   <path fill="currentColor"
d="M120 -15v-24v24v-24h-48v0v24v0v88v0h48v0v-88v0zM312 -15v-24v24v-24h-48v0v24v0v88v0h48v0v-88v0zM24 105h-24h24h-24v48v0h24h8v64v0q1 61 39 105q38 43 97 53v98v0h48v0v-98v0q59 -10 97 -53q38 -44 39 -105v-64v0h8h24v-48v0h-24h-336zM192 329q-48 -1 -79 -33v0v0
q-32 -31 -33 -79v-64v0h224v0v64v0q-1 48 -33 79q-31 32 -79 33v0z" />
</svg>
