<?xml version="1.0" standalone="no"?>
<!DOCTYPE svg PUBLIC "-//W3C//DTD SVG 1.1//EN" "http://www.w3.org/Graphics/SVG/1.1/DTD/svg11.dtd" >
<svg xmlns="http://www.w3.org/2000/svg" xmlns:xlink="http://www.w3.org/1999/xlink" version="1.1" viewBox="-10 -40 532 512">
   <path fill="currentColor"
d="M96 -7h24h-24h416v24v0v400v0v24v0h-24h-488v-24v0v-344v0v-24v0h48v0v24v0v320v0h24h24v-376v0v-24v0zM144 393h320h-320h320v-352v0h-320v0v352v0zM176 73h144h-144h144v128v0h-144v0v-128v0zM376 73h32h-32h56v48v0h-24h-56v-48v0h24v0zM376 153h32h-32h56v48v0h-24
h-56v-48v0h24v0zM200 233h208h-208h232v48v0h-24h-232v-48v0h24v0zM200 313h208h-208h232v48v0h-24h-232v-48v0h24v0z" />
</svg>
