<?xml version="1.0" standalone="no"?>
<!DOCTYPE svg PUBLIC "-//W3C//DTD SVG 1.1//EN" "http://www.w3.org/Graphics/SVG/1.1/DTD/svg11.dtd" >
<svg xmlns="http://www.w3.org/2000/svg" xmlns:xlink="http://www.w3.org/1999/xlink" version="1.1" viewBox="-10 -40 532 512">
   <path fill="currentColor"
d="M48 17v-24v24v-24h-48v0v24v0v400v0v24v0h24h488v-48v0h-24h-440v-376v0zM258 91l-34 -34l34 34l-34 -34l-34 34v0l-94 94v0v112v0v48v0h48h336v-48v0v-96v0l-65 -75v0l-31 -37v0l-30 30v0l-4 4v0l-30 30v0l-34 -34v0l-28 -28v0zM354 187l27 -27l-27 27l27 -27l51 59v0
v78v0h-288v0v-92v0l80 -80v0l62 62v0l34 34v0l34 -34v0z" />
</svg>
