<?xml version="1.0" standalone="no"?>
<!DOCTYPE svg PUBLIC "-//W3C//DTD SVG 1.1//EN" "http://www.w3.org/Graphics/SVG/1.1/DTD/svg11.dtd" >
<svg xmlns="http://www.w3.org/2000/svg" xmlns:xlink="http://www.w3.org/1999/xlink" version="1.1" viewBox="-10 -40 532 512">
   <path fill="currentColor"
d="M48 17v-24v24v-24h-48v0v24v0v400v0v24v0h24h488v-48v0h-24h-440v-376v0zM473 130l17 -17l-17 17l17 -17l-34 -34v0l-17 17v0l-119 119v0l-79 -79v0l-17 -17v0l-17 17v0l-96 96v0l-17 17v0l34 34v0l17 -17v0l79 -79v0l79 79v0l17 17v0l17 -17v0l136 -136v0z" />
</svg>
