<?xml version="1.0" standalone="no"?>
<!DOCTYPE svg PUBLIC "-//W3C//DTD SVG 1.1//EN" "http://www.w3.org/Graphics/SVG/1.1/DTD/svg11.dtd" >
<svg xmlns="http://www.w3.org/2000/svg" xmlns:xlink="http://www.w3.org/1999/xlink" version="1.1" viewBox="-10 -40 660 512">
   <path fill="currentColor"
d="M312 -7h-24h24h-24v48v0h24h26l34 64v0h-149v0l-27 -38v0l-8 -10v0h-12h-80v48v0h24h44l22 31v0l-27 53v0q-15 -4 -31 -4q-54 1 -91 37q-36 37 -37 91q1 54 37 91q37 36 91 37q50 -1 85 -32q35 -32 42 -80h49h14l7 -12v0l85 -143v0l21 40v0q-45 37 -47 99q1 54 37 91
q37 36 91 37q54 -1 91 -37q36 -37 37 -91q-1 -54 -37 -91q-37 -36 -91 -37q-20 0 -39 6l-100 -185v0l-7 -13v0h-14h-40zM455 257l36 67l-36 -67l36 67l11 22v0l43 -23v0l-12 -21v0l-36 -67v0q7 -2 15 -2q34 1 57 24q22 22 23 56q-1 34 -23 57q-23 22 -57 23q-34 -1 -57 -23
q-22 -23 -23 -57q1 -33 23 -56v0zM137 234l-31 60l31 -60l-31 60l22 35v0h78v0q-6 28 -27 46q-21 17 -51 18q-34 -1 -57 -23q-22 -23 -23 -57q1 -34 23 -57q23 -22 57 -23q5 0 9 1v0zM167 281l51 -101l-51 101l51 -101l72 101v0v0v0h-123v0zM257 153h109h-109h109l-49 83v0
l-60 -83v0z" />
</svg>
