<?xml version="1.0" standalone="no"?>
<!DOCTYPE svg PUBLIC "-//W3C//DTD SVG 1.1//EN" "http://www.w3.org/Graphics/SVG/1.1/DTD/svg11.dtd" >
<svg xmlns="http://www.w3.org/2000/svg" xmlns:xlink="http://www.w3.org/1999/xlink" version="1.1" viewBox="-10 -40 660 512">
   <path fill="currentColor"
d="M456 -7h-9h9h-9l-6 6v0l-49 41v0l-19 -34v0l-7 -13v0h-14h-96v48v0h24h58l16 30v0l-95 80v0q-55 -45 -131 -46h-72h-24v48v0h24h72q68 2 113 47t47 113v32v0h16v0v0v0h48v0v-32v0q0 -40 17 -73t47 -55l15 29v0q-45 37 -47 99q1 54 37 91q37 36 91 37q54 -1 91 -37
q36 -37 37 -91q-1 -54 -37 -91q-37 -36 -91 -37q-20 0 -39 6l-55 -102v0h70h24v-24v0v-48v0v-24v0h-24h-32zM393 143q-49 34 -73 90q-11 -26 -27 -47l84 -72v0l16 28v1zM432 313q1 -33 23 -56l36 67v0l11 22v0l43 -23v0l-12 -21v0l-36 -67v0q7 -2 15 -2q34 1 57 24
q22 22 23 56q-1 34 -23 57q-23 22 -57 23q-34 -1 -57 -23q-22 -23 -23 -57v0zM204 289h-55h55h-55q-9 -8 -21 -8q-14 0 -23 9t-9 23t9 23t23 9q12 0 21 -8h55v0q-8 25 -28 40q-21 16 -48 16q-34 -1 -56 -23q-23 -23 -24 -57q1 -34 24 -57q22 -22 56 -23q27 0 48 16
q20 15 28 40v0zM128 441q35 0 64 -17v0v0q29 -17 47 -47q17 -30 17 -64t-17 -64q-18 -30 -47 -47t-64 -17t-64 17t-47 47q-17 30 -17 64t17 64q18 30 47 47t64 17v0z" />
</svg>
