<?xml version="1.0" standalone="no"?>
<!DOCTYPE svg PUBLIC "-//W3C//DTD SVG 1.1//EN" "http://www.w3.org/Graphics/SVG/1.1/DTD/svg11.dtd" >
<svg xmlns="http://www.w3.org/2000/svg" xmlns:xlink="http://www.w3.org/1999/xlink" version="1.1" viewBox="-10 -40 586 512">
   <path fill="currentColor"
d="M32 89h16h-16h16v256v0h-16v0v64v0v32v0h32h64v-16v0h320v0v16v0h64h32v-32v0v-64v0h-16v0v-256v0h16v0v-64v0v-32v0h-32h-64v16v0h-320v0v-16v0h-64h-32v32v0v64v0zM96 377v-320v320v-320h384v0v320v0h-384v0zM128 89v160v-160v160h192v0v-160v0h-192v0zM256 281v64v-64
v64h192v0v-160v0h-96v0v64v0v32v0h-32h-64z" />
</svg>
