<?xml version="1.0" standalone="no"?>
<!DOCTYPE svg PUBLIC "-//W3C//DTD SVG 1.1//EN" "http://www.w3.org/Graphics/SVG/1.1/DTD/svg11.dtd" >
<svg xmlns="http://www.w3.org/2000/svg" xmlns:xlink="http://www.w3.org/1999/xlink" version="1.1" viewBox="-10 -40 660 512">
   <path fill="currentColor"
d="M48 9v32v-32v32h32v0v-32v0h-32v0zM0 -39h48h-48h128v40v0h192v0v-40v0h48h80v48v0v32v0v48v0h-40v0v96v0h40v0v48v0v32v0v48v0h-48h-80v-40v0h-192v0v40v0h-48h-80v-48v0v-32v0v-48v0h40v0v-96v0h-40v0v-48v0v-32v0v-48v0zM88 89v96v-96v96h40v0v40v0h192v0v-40v0h40v0
v-96v0h-40v0v-40v0h-192v0v40v0h-40v0zM80 233h-32h32h-32v32v0h32v0v-32v0zM400 9h-32h32h-32v32v0h32v0v-32v0zM368 233v32v-32v32h32v0v-32v0h-32v0zM592 393h-32h32h-32v32v0h32v0v-32v0zM552 345v-96v96v-96h-40v0v-40v0h-32v0v-48v0h32v0v-40v0h48h80v48v0v32v0v48v0
h-40v0v96v0h40v0v48v0v32v0v48v0h-48h-80v-40v0h-192v0v40v0h-48h-80v-48v0v-32v0v-48v0h40v0v-32v0h48v0v32v0h40v0v40v0h192v0v-40v0h40v0zM560 169v32v-32v32h32v0v-32v0h-32v0zM272 393h-32h32h-32v32v0h32v0v-32v0z" />
</svg>
