<?xml version="1.0" standalone="no"?>
<!DOCTYPE svg PUBLIC "-//W3C//DTD SVG 1.1//EN" "http://www.w3.org/Graphics/SVG/1.1/DTD/svg11.dtd" >
<svg xmlns="http://www.w3.org/2000/svg" xmlns:xlink="http://www.w3.org/1999/xlink" version="1.1" viewBox="-10 -40 404 512">
   <path fill="currentColor"
d="M0 473h24h-24h384v-48v0h-24h-8v-72v0v-10v0l-7 -7v0l-119 -119v0l119 -119v0l7 -7v0v-10v0v-72v0h8h24v-48v0h-24h-360v48v0h24h8v72v0v10v0l7 7v0l119 119v0l-119 119v0l-7 7v0v10v0v72v0h-8h-24v48v0zM80 425v-62v62v-62l112 -112v0l112 112v0v62v0h-224v0zM80 57v-48
v48v-48h224v0v48v0h-224v0z" />
</svg>
