<?xml version="1.0" standalone="no"?>
<!DOCTYPE svg PUBLIC "-//W3C//DTD SVG 1.1//EN" "http://www.w3.org/Graphics/SVG/1.1/DTD/svg11.dtd" >
<svg xmlns="http://www.w3.org/2000/svg" xmlns:xlink="http://www.w3.org/1999/xlink" version="1.1" viewBox="-10 -40 458 512">
   <path fill="currentColor"
d="M120 -39h-24h24h-24v24v0v100v0l-54 41v0l-10 7v0v12v0v50v0q0 39 16 74q17 34 47 60q15 12 33 21v99v0v24v0h48v0v-24v0v-114v0v-17v0l-15 -5v0q-19 -8 -35 -21q-45 -39 -46 -97v-38v0l32 -24v0v36v0v16v0h32v0v-16v0v-60v0v-12v0v-8v0v-16v0v-64v0h32v0v8v0v24v0h24h40
v8v0v24v0h24h40v8v0v24v0h24h40v120v0v2l-1 2v0v1v0q-8 51 -51 77l-12 7v0v14v0v121v0v24v0h48v0v-24v0v-108v0q52 -38 63 -104q1 -6 1 -12v-144v0v-24v0h-24h-40v-8v0v-24v0h-24h-40v-8v0v-24v0h-24h-40v-8v0v-24v0h-24h-80z" />
</svg>
