<?xml version="1.0" standalone="no"?>
<!DOCTYPE svg PUBLIC "-//W3C//DTD SVG 1.1//EN" "http://www.w3.org/Graphics/SVG/1.1/DTD/svg11.dtd" >
<svg xmlns="http://www.w3.org/2000/svg" xmlns:xlink="http://www.w3.org/1999/xlink" version="1.1" viewBox="-10 -40 586 512">
   <path fill="currentColor"
d="M288 -14l-6 -23l6 23l-6 -23l-23 6v0l-78 20v0l-23 7v0l6 23v0l2 6v0l-11 5v0l-73 33v0l-22 10v0l9 22v0l17 36v0l52 118v0l-3 -2v0l-31 -25v0l-19 -15v0l-15 19v0l-49 63v0l-15 19v0l19 15v0l32 25v0l92 71v0q69 53 157 54h26v0v0v0v0v0h4h10q50 -1 88 -31
q38 -29 51 -78l57 -227v0l10 -39v0l6 -24v0l-24 -5v0l-68 -17v0l4 -23v0l4 -24v0l-23 -4v0l-79 -14v0l-24 -4v0l-4 23v0l-7 40v0l-13 75v0l-26 -96v0l-10 -39v0zM387 38l32 6l-32 -6l32 6l-3 16v0l-27 153v0l-5 28v0h28h22l4 -18v0l26 -106v0l4 -15v0l31 7v0l-4 16v0
l-56 227v0q-9 33 -34 53q-26 19 -59 20h-10h-4v0v0v0v0h-26v0q-71 -1 -128 -44l-92 -71v0l-12 -10v0l19 -25v0l13 9v0l74 58v0l39 -29v0l-89 -201v0l-7 -15v0l29 -13v0l7 14v0l57 129v0l6 14v0h16h35l-8 -30v0l-44 -166v0l-4 -15v0l31 -9v0l4 16v0l49 186v0l5 18v0h18h27
l4 -20v0l29 -167v0l3 -16v0z" />
</svg>
