<?xml version="1.0" standalone="no"?>
<!DOCTYPE svg PUBLIC "-//W3C//DTD SVG 1.1//EN" "http://www.w3.org/Graphics/SVG/1.1/DTD/svg11.dtd" >
<svg xmlns="http://www.w3.org/2000/svg" xmlns:xlink="http://www.w3.org/1999/xlink" version="1.1" viewBox="-10 -40 468 512">
   <path fill="currentColor"
d="M136 -39h-24h24h-24v24v0v237v0l-17 -26v0l-13 -20v0l-20 14v0l-51 34v0l-11 7v0v13v0v33v0v7v0l4 6v0l7 10v0l67 102v0q23 33 58 52t75 19h1v0v0v0v0v0v0v0h116v0q51 -1 85 -35t35 -85v-16v0v-88v0v-48v0v-24v0h-24h-40v-24v0h-24h-48v-8v0v-24v0h-24h-48v-136v0v-24v0
h-24h-80zM264 201h24h-24h72v24v0h24h40v24v0v88v0v16v0q-1 31 -21 51t-51 21h-116v0v0v0v0v0v0v0v0v0q-29 0 -53 -13q-25 -13 -41 -37l-67 -101v0l-3 -4v0v-14v0l20 -13v0l9 13v0l25 37v0l16 24v0l21 -21v0l14 -14v0l7 -7v0v-10v0v-256v0h32v0v136v0v24v0h24h48v8v0v24v0z
M224 265v-16v16v-16h-32v0v16v0v96v0v16v0h32v0v-16v0v-96v0zM288 249h-32h32h-32v16v0v96v0v16v0h32v0v-16v0v-96v0v-16v0zM352 265v-16v16v-16h-32v0v16v0v96v0v16v0h32v0v-16v0v-96v0z" />
</svg>
