<?xml version="1.0" standalone="no"?>
<!DOCTYPE svg PUBLIC "-//W3C//DTD SVG 1.1//EN" "http://www.w3.org/Graphics/SVG/1.1/DTD/svg11.dtd" >
<svg xmlns="http://www.w3.org/2000/svg" xmlns:xlink="http://www.w3.org/1999/xlink" version="1.1" viewBox="-10 -40 660 512">
   <path fill="currentColor"
d="M221 -38l17 18l-17 -18l17 18l55 58v0l9 9v0l6 -2v0l7 23v0l11 36v0q22 -25 50 -36t56 -11v0v0h54v0q66 2 109 45q43 44 45 109q0 24 -7 47l-60 187v0l-7 22v0l-23 -7v0l-76 -24v0l-8 -3v0l-23 22v0l-17 17v0l-17 -17v0l-55 -58v0l-9 -10v0l-6 2v0l-7 -23v0l-11 -36v0
q-22 25 -50 36t-56 11v0v0h-54v0q-65 -2 -109 -45q-43 -44 -45 -109q0 -24 7 -47l60 -186v0l7 -23v0l23 7v0l76 24v0l8 3v0l23 -22v0l17 -17v0zM136 37l-31 -10l31 10l-31 -10l-52 164v0q-5 15 -5 32q1 45 31 75t75 31h54v0v0v0q49 1 76 -40l8 -14v0l-23 -13v0l-4 -3v0
l-8 14v0q-14 23 -49 24v0v0v0v0q-24 -1 -40 -16q-15 -16 -16 -40q1 -24 16 -40q16 -15 40 -16q35 1 49 24l8 14v0l4 -3v0l23 -13v0l-8 -14v0q-5 -9 -12 -16l-28 -28v0l38 -12v0l4 -2v0l-10 -30v0l-34 11v0l-99 31v0l75 -71v0l24 -23v0l-22 -23v0l-49 47v0l-68 64v0l28 -89v0
l5 -15v0zM504 397l31 10l-31 -10l31 10l52 -164v0q5 -15 5 -32q-1 -45 -31 -75t-75 -31h-54v0v0v0q-49 -1 -76 40l-8 14v0l23 13v0l5 3v0l8 -14v0q13 -23 48 -24v0v0v0v0q24 1 40 16q15 16 16 40q-1 24 -17 40q-15 15 -39 16q-35 -1 -49 -24l-8 -14v0l-4 3v0l-23 13v0l8 14
v0q5 9 12 16l28 28v0l-38 12v0l-4 2v0l9 30v0l35 -11v0l99 -31v0l-75 71v0l-24 23v0l22 23v0l49 -47v0l68 -64v0l-28 89v0l-5 15v0zM224 241q-1 -15 -16 -16q-15 1 -16 16q1 15 16 16q15 -1 16 -16v0zM432 209q15 -1 16 -16q-1 -15 -16 -16q-15 1 -16 16q1 15 16 16v0z" />
</svg>
