<?xml version="1.0" standalone="no"?>
<!DOCTYPE svg PUBLIC "-//W3C//DTD SVG 1.1//EN" "http://www.w3.org/Graphics/SVG/1.1/DTD/svg11.dtd" >
<svg xmlns="http://www.w3.org/2000/svg" xmlns:xlink="http://www.w3.org/1999/xlink" version="1.1" viewBox="-10 -40 596 512">
   <path fill="currentColor"
d="M576 223v-178v178v-178h-131v0l-49 -84v0l-56 32v0l-18 -32v0l-97 56v0l15 26v0l76 35v0l-26 -43v0l14 -8v0l38 64v0l2 1v0q39 18 68 50l12 -7v0l-60 -100v0l14 -8v0l86 145v0l32 -9v0v-70v0h32v0v130v0q0 29 -16 53q-15 23 -41 36h-2v0l-5 4v0q-2 32 -13 60
q12 -4 23 -11l17 -10v0q40 -19 62 -54q23 -35 23 -78v0zM223 70l-22 -10l22 10l-22 -10l-10 22v0l-34 72v0l-7 15v0h-62h-56v24v0v40v0h-8h-24v24v0v64v0v24v0h24h8v40v0v24v0h24h8v40v0v24v0h24h176q71 -2 119 -49q47 -48 49 -119v-24v0v-8v0q0 -5 -1 -10q-5 -47 -31 -84
q-27 -38 -70 -59l-71 -33v0l-36 -17v0zM225 160l-14 -7l14 7l-14 -7l13 -29v0l15 7v0l71 33v0q31 15 51 43q19 27 22 62l1 1v0v1v0v2v8v0v24v0q-1 51 -35 85t-85 35h-144h-8v-16v0h72h24v-48v0h-24h-104v-16v0h104h24v-48v0h-24h-136v-16v0h8h152v-48v0h-24h-104v-16v0h8
h172l9 -37v0l-19 -9v0l-25 -11v0z" />
</svg>
