<?xml version="1.0" standalone="no"?>
<!DOCTYPE svg PUBLIC "-//W3C//DTD SVG 1.1//EN" "http://www.w3.org/Graphics/SVG/1.1/DTD/svg11.dtd" >
<svg xmlns="http://www.w3.org/2000/svg" xmlns:xlink="http://www.w3.org/1999/xlink" version="1.1" viewBox="-10 -40 532 512">
   <path fill="currentColor"
d="M400 9v416v-416v416h-320v0v-416v0h320v0zM80 -39h-48h48h-48v48v0v416v0v48v0h48h368v-48v0v-416v0v-48v0h-48h-320zM240 217q36 -1 55 -32q18 -32 0 -64q-19 -31 -55 -32q-36 1 -55 32q-18 32 0 64q19 31 55 32v0zM128 345h224h-224h224l-32 -96v0h-160v0l-32 96v0z
M512 41v-16v16v-16h-32v0v16v0v64v0v16v0h32v0v-16v0v-64v0zM512 153h-32h32h-32v16v0v64v0v16v0h32v0v-16v0v-64v0v-16v0zM512 297v-16v16v-16h-32v0v16v0v64v0v16v0h32v0v-16v0v-64v0z" />
</svg>
