<?xml version="1.0" standalone="no"?>
<!DOCTYPE svg PUBLIC "-//W3C//DTD SVG 1.1//EN" "http://www.w3.org/Graphics/SVG/1.1/DTD/svg11.dtd" >
<svg xmlns="http://www.w3.org/2000/svg" xmlns:xlink="http://www.w3.org/1999/xlink" version="1.1" viewBox="-10 -40 532 512">
   <path fill="currentColor"
d="M24 -7h-24h24h-24v24v0v400v0v24v0h48v0v-24v0v-376v0h62v0l20 20v0q-21 33 -17 71q3 39 32 68l7 7v0l-1 1v0l-17 17v0l34 34v0l17 -17v0l160 -160v0l17 -17v0l-34 -34v0l-17 17v0l-1 1v0l-7 -7v0v0v0q-29 -29 -68 -32q-38 -4 -71 17l-27 -27v0l-7 -7v0h-10h-96zM270 76
l6 7l-6 -7l6 7l-90 90v0l-7 -7v0q-19 -19 -19 -45q0 -25 19 -45q20 -19 45 -19q26 0 45 19h1v0v0v0zM416 153q0 -14 -9 -23v0v0q-9 -9 -23 -9t-23 9t-9 23t9 23t23 9t23 -9t9 -23v0zM352 217q0 -14 -9 -23v0v0q-9 -9 -23 -9t-23 9t-9 23t9 23t23 9t23 -9t9 -23v0zM256 313
q14 0 23 -9v0v0q9 -9 9 -23t-9 -23t-23 -9t-23 9t-9 23t9 23t23 9v0zM288 409q14 0 23 -9v0v0q9 -9 9 -23t-9 -23t-23 -9t-23 9t-9 23t9 23t23 9v0zM352 345q14 0 23 -9v0v0q9 -9 9 -23t-9 -23t-23 -9t-23 9t-9 23t9 23t23 9v0zM416 281q14 0 23 -9v0v0q9 -9 9 -23t-9 -23
t-23 -9t-23 9t-9 23t9 23t23 9v0zM512 185q0 -14 -9 -23v0v0q-9 -9 -23 -9t-23 9t-9 23t9 23t23 9t23 -9t9 -23v0z" />
</svg>
