<?xml version="1.0" standalone="no"?>
<!DOCTYPE svg PUBLIC "-//W3C//DTD SVG 1.1//EN" "http://www.w3.org/Graphics/SVG/1.1/DTD/svg11.dtd" >
<svg xmlns="http://www.w3.org/2000/svg" xmlns:xlink="http://www.w3.org/1999/xlink" version="1.1" viewBox="-10 -40 532 512">
   <path fill="currentColor"
d="M32 -39h24h-24h98l7 7v0l18 18v0q17 -9 37 -9q36 1 59 26l13 -12v0l34 34v0l-17 17v0l-104 104v0l-17 17v0l-34 -34v0l13 -12v0q-26 -23 -27 -60q0 -20 9 -37l-11 -11v0h-30v0v208v0h352h80v48v0h-24h-488v-48v0h24h8v-232v0v-24v0zM32 297h48h-48h48v32v0q1 20 14 34
q14 13 34 14h256v0q20 -1 34 -14q13 -14 14 -34v-32v0h48v0v32v0q-1 44 -32 72v48v0v24v0h-48v0v-24v0v-25v0q-8 1 -16 1h-256v0q-8 0 -16 -1v25v0v24v0h-48v0v-24v0v-48v0q-31 -28 -32 -72v-32v0zM192 25q-14 0 -23 9v0v0q-9 9 -9 23q1 16 13 26l44 -45v0q-9 -12 -25 -13v0
z" />
</svg>
