<?xml version="1.0" standalone="no"?>
<!DOCTYPE svg PUBLIC "-//W3C//DTD SVG 1.1//EN" "http://www.w3.org/Graphics/SVG/1.1/DTD/svg11.dtd" >
<svg xmlns="http://www.w3.org/2000/svg" xmlns:xlink="http://www.w3.org/1999/xlink" version="1.1" viewBox="-10 -40 468 512">
   <path fill="currentColor"
d="M48 41v352v-352v352h352v0v-352v0h-352v0zM0 -7h48h-48h448v48v0v352v0v48v0h-48h-400v-48v0v-352v0v-48v0zM136 145q1 -24 16 -40v0v0q16 -15 40 -16h57v0q27 1 45 19q17 17 18 44q-1 36 -32 55l-32 18v0v8v0v24v0h-48v0v-24v0v-21v0v-14v0l12 -7v0l44 -26v0q8 -4 8 -13
q-1 -14 -15 -15h-57v0q-7 1 -8 8v7v0h-48v0v-7v0zM200 297h48h-48h48v48v0h-48v0v-48v0z" />
</svg>
