<?xml version="1.0" standalone="no"?>
<!DOCTYPE svg PUBLIC "-//W3C//DTD SVG 1.1//EN" "http://www.w3.org/Graphics/SVG/1.1/DTD/svg11.dtd" >
<svg xmlns="http://www.w3.org/2000/svg" xmlns:xlink="http://www.w3.org/1999/xlink" version="1.1" viewBox="-10 -40 532 512">
   <path fill="currentColor"
d="M10 422l-10 51l10 -51l-10 51l51 -10v0l109 -22v0l239 -239v0v0v0l34 -34v0v0v0l45 -45v0l34 -34v0l-34 -34v0l-30 -30v0v0v0v0v0l-30 -30v0l-34 -34v0l-34 34v0l-45 45v0l-48 -48v0l-17 -17v0l-17 17v0l-120 120v0l-17 17v0l34 34v0l17 -17v0l103 -103v0l31 31v0
l-239 239v0l-22 109v0zM305 108l60 60l-60 -60l60 60l-229 229v0l-75 15v0l15 -75v0l229 -229v0z" />
</svg>
