<?xml version="1.0" standalone="no"?>
<!DOCTYPE svg PUBLIC "-//W3C//DTD SVG 1.1//EN" "http://www.w3.org/Graphics/SVG/1.1/DTD/svg11.dtd" >
<svg xmlns="http://www.w3.org/2000/svg" xmlns:xlink="http://www.w3.org/1999/xlink" version="1.1" viewBox="-10 -40 596 512">
   <path fill="currentColor"
d="M48 49v-24v24v-24h-48v0v24v0v160v0v176v0v24v0h48v0v-24v0v-152v0h224v0v152v0v24v0h48v0v-24v0v-176v0v-160v0v-24v0h-48v0v24v0v136v0h-224v0v-136v0zM384 132l21 -13l-21 13l21 -13l51 -32v0v274v0h-48h-24v48v0h24h168v-48v0h-24h-48v-312v0v-24v0h-24h-15l-6 4v0
l-75 47v0v55v0v1v0z" />
</svg>
