<?xml version="1.0" standalone="no"?>
<!DOCTYPE svg PUBLIC "-//W3C//DTD SVG 1.1//EN" "http://www.w3.org/Graphics/SVG/1.1/DTD/svg11.dtd" >
<svg xmlns="http://www.w3.org/2000/svg" xmlns:xlink="http://www.w3.org/1999/xlink" version="1.1" viewBox="-10 -40 532 512">
   <path fill="currentColor"
d="M136 25h24h-24h24v48v0h-24h-88v88v0v24v0h-48v0v-24v0v-112v0v-24v0h24h112zM0 273v-24v24v-24h48v0v24v0v88v0h88h24v48v0h-24h-136v-24v0v-112v0zM488 25h24h-24h24v24v0v112v0v24v0h-48v0v-24v0v-88v0h-88h-24v-48v0h24h112zM464 273v-24v24v-24h48v0v24v0v112v0v24
v0h-24h-136v-48v0h24h88v-88v0z" />
</svg>
