<?xml version="1.0" standalone="no"?>
<!DOCTYPE svg PUBLIC "-//W3C//DTD SVG 1.1//EN" "http://www.w3.org/Graphics/SVG/1.1/DTD/svg11.dtd" >
<svg xmlns="http://www.w3.org/2000/svg" xmlns:xlink="http://www.w3.org/1999/xlink" version="1.1" viewBox="-10 -40 532 512">
   <path fill="currentColor"
d="M256 9q-38 2 -56 34l-9 17v0l-19 -6v0q-35 -10 -63 16q-26 28 -16 63l6 19v0l-17 9v0q-32 18 -34 56q2 38 34 56l17 9v0l-6 19v0q-10 35 16 63q28 26 63 16l19 -6v0l9 18v0q18 31 56 33q38 -2 56 -33l9 -18v0l19 6v0q35 10 63 -16q26 -28 16 -63l-6 -19v0l18 -9v0
q31 -18 33 -56q-2 -38 -33 -56l-18 -9v0l6 -19v0q10 -35 -16 -63q-28 -26 -63 -16l-19 6v0l-9 -17v0q-18 -32 -56 -34v0zM168 4q32 -41 88 -43q56 2 88 43q52 -6 93 32q38 41 32 93q41 32 43 88q-2 56 -43 88q6 52 -32 93q-41 38 -93 32q-32 41 -88 43q-56 -2 -88 -43
q-52 6 -93 -32q-38 -41 -32 -93q-41 -32 -43 -88q2 -56 43 -88q-6 -52 32 -93q41 -38 93 -32v0z" />
</svg>
