<?xml version="1.0" standalone="no"?>
<!DOCTYPE svg PUBLIC "-//W3C//DTD SVG 1.1//EN" "http://www.w3.org/Graphics/SVG/1.1/DTD/svg11.dtd" >
<svg xmlns="http://www.w3.org/2000/svg" xmlns:xlink="http://www.w3.org/1999/xlink" version="1.1" viewBox="-10 -40 532 512">
   <path fill="currentColor"
d="M200 43q18 -32 56 -34q38 2 56 34l9 17v0l19 -6v0q35 -10 63 16q26 28 16 63l-6 19v0l18 9v0q31 18 33 56q-2 38 -33 56l-18 9v0l6 19v0q10 35 -16 63q-28 26 -63 16l-19 -6v0l-9 18v0q-18 31 -56 33q-38 -2 -56 -33l-9 -18v0l-19 6v0q-35 10 -63 -16q-26 -28 -16 -63
l6 -19v0l-17 -9v0q-32 -18 -34 -56q2 -38 34 -56l17 -9v0l-6 -19v0q-10 -35 16 -63q28 -26 63 -16l19 6v0l9 -17v0zM256 -39q-56 2 -88 43q-52 -6 -93 32q-38 41 -32 93q-41 32 -43 88q2 56 43 88q-6 52 32 93q41 38 93 32q32 41 88 43q56 -2 88 -43q52 6 93 -32
q38 -41 32 -93q41 -32 43 -88q-2 -56 -43 -88q6 -52 -32 -93q-41 -38 -93 -32q-32 -41 -88 -43v0zM369 170l17 -17l-17 17l17 -17l-34 -34v0l-17 17v0l-111 111v0l-47 -47v0l-17 -17v0l-34 34v0l17 17v0l64 64v0l17 17v0l17 -17v0l128 -128v0z" />
</svg>
