<?xml version="1.0" standalone="no"?>
<!DOCTYPE svg PUBLIC "-//W3C//DTD SVG 1.1//EN" "http://www.w3.org/Graphics/SVG/1.1/DTD/svg11.dtd" >
<svg xmlns="http://www.w3.org/2000/svg" xmlns:xlink="http://www.w3.org/1999/xlink" version="1.1" viewBox="-10 -40 468 512">
   <path fill="currentColor"
d="M400 393v-352v352v-352h-352v0v352v0h352v0zM448 441h-48h48h-448v-48v0v-352v0v-48v0h48h400v48v0v352v0v48v0zM207 338l-88 -88l88 88l-88 -88l-17 -17v0l34 -34v0l17 17v0l47 47v0v-150v0v-24v0h48v0v24v0v150v0l47 -47v0l17 -17v0l34 34v0l-17 17v0l-88 88v0l-17 17
v0l-17 -17v0z" />
</svg>
