<?xml version="1.0" standalone="no"?>
<!DOCTYPE svg PUBLIC "-//W3C//DTD SVG 1.1//EN" "http://www.w3.org/Graphics/SVG/1.1/DTD/svg11.dtd" >
<svg xmlns="http://www.w3.org/2000/svg" xmlns:xlink="http://www.w3.org/1999/xlink" version="1.1" viewBox="-10 -40 468 512">
   <path fill="currentColor"
d="M128 249h48h-48h48v48v0v28v0l108 -108v0l-108 -108v0v28v0v48v0h-48h-80v64v0h80v0zM318 251l-126 126l126 -126l-126 126h-16h-48v-32v0v-16v0v-32v0h-48h-80v-48v0v-64v0v-48v0h48h80v-32v0v-16v0v-32v0h48h16l126 126v0l34 34v0l-34 34v0zM400 49v-24v24v-24h48v0v24
v0v336v0v24v0h-48v0v-24v0v-336v0z" />
</svg>
