<?xml version="1.0" standalone="no"?>
<!DOCTYPE svg PUBLIC "-//W3C//DTD SVG 1.1//EN" "http://www.w3.org/Graphics/SVG/1.1/DTD/svg11.dtd" >
<svg xmlns="http://www.w3.org/2000/svg" xmlns:xlink="http://www.w3.org/1999/xlink" version="1.1" viewBox="-10 -40 404 512">
   <path fill="currentColor"
d="M224 233v-48v48v-48v-144v0h-64v0v144v0v48v0h-48h-60l140 140v0l140 -140v0h-60h-48zM336 185h48h-48h48v48v0v16v0l-158 158v0l-34 34v0l-34 -34v0l-158 -158v0v-16v0v-48v0h48h64v-48v0v-96v0v-48v0h48h112v48v0v96v0v48v0h48h16z" />
</svg>
