<?xml version="1.0" standalone="no"?>
<!DOCTYPE svg PUBLIC "-//W3C//DTD SVG 1.1//EN" "http://www.w3.org/Graphics/SVG/1.1/DTD/svg11.dtd" >
<svg xmlns="http://www.w3.org/2000/svg" xmlns:xlink="http://www.w3.org/1999/xlink" version="1.1" viewBox="-10 -40 654 512">
   <path fill="currentColor"
d="M145 43l-17 -17l17 17l-17 -17l-17 17v0l-88 88v0l-17 17v0l34 34v0l17 -17v0l47 -47v0v235v0v24v0h24h224v-48v0h-24h-176v-211v0l47 47v0l17 17v0l34 -34v0l-17 -17v0l-88 -88v0zM312 57h-24h24h-24v48v0h24h176v211v0l-47 -47v0l-17 -17v0l-34 34v0l17 17v0l88 88v0
l17 17v0l17 -17v0l88 -88v0l17 -17v0l-34 -34v0l-17 17v0l-47 47v0v-235v0v-24v0h-24h-200z" />
</svg>
