<?xml version="1.0" standalone="no"?>
<!DOCTYPE svg PUBLIC "-//W3C//DTD SVG 1.1//EN" "http://www.w3.org/Graphics/SVG/1.1/DTD/svg11.dtd" >
<svg xmlns="http://www.w3.org/2000/svg" xmlns:xlink="http://www.w3.org/1999/xlink" version="1.1" viewBox="-10 -40 660 512">
   <path fill="currentColor"
d="M48 -24l-19 -15l19 15l-19 -15l-29 38v0l19 15v0l573 444v0l19 15v0l29 -38v0l-19 -15v0l-56 -43v0h11v0v-48v0v-48v0h32v0v-128v0h-32v0v-48v0v-48v0h-48h-375l-105 -81v0zM215 105h313h-313h313v224v0h-25v0l-288 -224v0zM345 329h-265h265h-265v-209v0l-48 -38v0v23v0
v224v0v48v0h48h326l-61 -48v0z" />
</svg>
