<?xml version="1.0" standalone="no"?>
<!DOCTYPE svg PUBLIC "-//W3C//DTD SVG 1.1//EN" "http://www.w3.org/Graphics/SVG/1.1/DTD/svg11.dtd" >
<svg xmlns="http://www.w3.org/2000/svg" xmlns:xlink="http://www.w3.org/1999/xlink" version="1.1" viewBox="-10 -40 404 512">
   <path fill="currentColor"
d="M48 9v416v-416v416h288v0v-416v0h-288v0zM384 -39v48v-48v48v416v0v48v0h-48h-336v-48v0v-416v0v-48v0h48h336zM128 153q1 -36 32 -55q32 -18 64 0q31 19 32 55q-1 36 -32 55q-32 18 -64 0q-31 -19 -32 -55v0zM272 249l32 96l-32 -96l32 96h-224v0l32 -96v0h160v0z" />
</svg>
