<?xml version="1.0" standalone="no"?>
<!DOCTYPE svg PUBLIC "-//W3C//DTD SVG 1.1//EN" "http://www.w3.org/Graphics/SVG/1.1/DTD/svg11.dtd" >
<svg xmlns="http://www.w3.org/2000/svg" xmlns:xlink="http://www.w3.org/1999/xlink" version="1.1" viewBox="-10 -40 596 512">
   <path fill="currentColor"
d="M0 73v-48v48v-48h48h528v48v0v48v0v48v0q-20 1 -34 14q-13 14 -14 34q1 20 14 34q14 13 34 14v48v0v48v0v48v0h-48h-528v-48v0v-48v0v-48v0q20 -1 34 -14q13 -14 14 -34q-1 -20 -14 -34q-14 -13 -34 -14v-48v0v-48v0zM48 134q22 13 35 34v0v0q13 22 13 49t-13 49
q-13 21 -35 34v61v0h480v0v-61v0q-22 -13 -35 -34q-13 -22 -13 -49t13 -49q13 -21 35 -34v-61v0h-480v0v61v0z" />
</svg>
