<?xml version="1.0" standalone="no"?>
<!DOCTYPE svg PUBLIC "-//W3C//DTD SVG 1.1//EN" "http://www.w3.org/Graphics/SVG/1.1/DTD/svg11.dtd" >
<svg xmlns="http://www.w3.org/2000/svg" xmlns:xlink="http://www.w3.org/1999/xlink" version="1.1" viewBox="-10 -40 532 512">
   <path fill="currentColor"
d="M352 105q0 -26 -13 -48v0v0q-13 -22 -35 -35q-23 -13 -48 -13t-48 13q-22 13 -35 35t-13 48t13 48t35 35q23 13 48 13t48 -13q22 -13 35 -35t13 -48v0zM112 105q0 -39 19 -72v0v0q19 -33 53 -53q34 -19 72 -19t72 19q34 20 53 53t19 72t-19 72t-53 53q-34 19 -72 19
t-72 -19q-34 -20 -53 -53t-19 -72v0zM72 425h368h-368h368l-40 -96v0h-288v0l-40 96v0zM80 281h352h-352h352l60 144v0l20 48v0h-52h-460l20 -48v0l60 -144v0z" />
</svg>
