<?xml version="1.0" standalone="no"?>
<!DOCTYPE svg PUBLIC "-//W3C//DTD SVG 1.1//EN" "http://www.w3.org/Graphics/SVG/1.1/DTD/svg11.dtd" >
<svg xmlns="http://www.w3.org/2000/svg" xmlns:xlink="http://www.w3.org/1999/xlink" version="1.1" viewBox="-10 -40 532 512">
   <path fill="currentColor"
d="M266 111l28 -28l-28 28l28 -28l34 -34v0l-6 -6v0l-28 -28v0l-6 -6v0l34 -34v0l14 -14v0h128h48v48v0v128v0l-14 14v0l-34 34v0l-6 -6v0l-28 -28v0l-6 -6v0l-34 34v0l-28 28v0l-34 34v0l-34 -34v0l-28 -28v0l-34 -34v0l34 -34v0zM362 15l34 34l-34 -34l34 34l-34 34v0
l-62 62v0l28 28v0l62 -62v0l34 -34v0l34 34v0l6 6v0v-108v0h-108v0l6 6v0zM280 289l-34 34l34 -34l-34 34l-28 28v0l-34 34v0l6 6v0l28 28v0l6 6v0l-34 34v0l-14 14v0h-128h-48v-48v0v-128v0l14 -14v0l34 -34v0l6 6v0l28 28v0l6 6v0l34 -34v0l28 -28v0l34 -34v0l34 34v0
l28 28v0l34 34v0zM150 419l-34 -34l34 34l-34 -34l34 -34v0l62 -62v0l-28 -28v0l-62 62v0l-34 34v0l-34 -34v0l-6 -6v0v108v0h108v0l-6 -6v0z" />
</svg>
