<?xml version="1.0" standalone="no"?>
<!DOCTYPE svg PUBLIC "-//W3C//DTD SVG 1.1//EN" "http://www.w3.org/Graphics/SVG/1.1/DTD/svg11.dtd" >
<svg xmlns="http://www.w3.org/2000/svg" xmlns:xlink="http://www.w3.org/1999/xlink" version="1.1" viewBox="-10 -40 532 512">
   <path fill="currentColor"
d="M391 -39l16 17l-16 -17l16 17l88 88v0l17 16v0l-16 17v0l-159 167v0l-2 2v0l-3 2v0l-149 86v0l-54 54v0h-1v-1l-64 -64v0h-1v-1l54 -54v0l86 -149v0l2 -3v0l2 -2v0l167 -159v0l17 -16v0zM305 230l140 -147l-140 147l140 -147l-55 -55v0l-147 140v0l-71 123v0l10 10v0
l123 -71v0zM464 393q0 -14 -9 -23v0v0q-9 -9 -23 -9t-23 9t-9 23t9 23t23 9t23 -9t9 -23v0zM352 393q1 -45 40 -69q40 -22 80 0q39 24 40 69q-1 45 -40 69q-40 22 -80 0q-39 -24 -40 -69v0zM51 362l60 60l-60 -60l60 60l17 17v0l-34 34v0l-17 -17v0l-60 -60v0l-17 -17v0
l34 -34v0l17 17v0z" />
</svg>
