<?xml version="1.0" standalone="no"?>
<!DOCTYPE svg PUBLIC "-//W3C//DTD SVG 1.1//EN" "http://www.w3.org/Graphics/SVG/1.1/DTD/svg11.dtd" >
<svg xmlns="http://www.w3.org/2000/svg" xmlns:xlink="http://www.w3.org/1999/xlink" version="1.1" viewBox="-10 -40 522 512">
   <path fill="currentColor"
d="M64 137l-49 192l49 -192l-49 192l41 144v0h144v0l41 -144v0l-49 -192v0q2 -7 3 -13q1 -3 2 -7v0v0v-1q10 -34 11 -73v-2v0q-1 -34 -23 -57q-23 -22 -57 -23q-34 1 -57 23q-22 23 -23 57v2v0q0 21 3 38t8 35v1q3 10 5 20v0zM192 328l-28 97l28 -97l-28 97h-72v0l-28 -97v0
l41 -159v0h46v0l41 159v0zM151 103q-2 8 -4 18h-37v0l-4 -14q0 -2 -1 -4v0q-4 -17 -7 -30q-2 -14 -2 -30v-2v0q0 -14 9 -23t23 -9t23 9t9 23v2v0q0 16 -2 30q-3 13 -7 30v0v0zM320 137l-49 192l49 -192l-49 192l41 144v0h144v0l41 -144v0l-49 -192v0q2 -7 3 -13q1 -3 2 -7v0
v0v-1q10 -34 11 -73v-2v0q-1 -34 -23 -57q-23 -22 -57 -23q-34 1 -57 23q-22 23 -23 57v2v0q0 21 3 38t8 35v1q3 10 5 20v0zM448 328l-28 97l28 -97l-28 97h-72v0l-27 -97v0l40 -159v0h46v0l40 159h1zM407 103q-2 8 -4 18h-37v0l-4 -14q0 -2 -1 -4v0q-4 -17 -7 -30
q-2 -14 -2 -30v-2v0q0 -14 9 -23t23 -9t23 9t9 23v2v0q0 16 -2 30q-3 13 -7 30v0z" />
</svg>
