<?xml version="1.0" standalone="no"?>
<!DOCTYPE svg PUBLIC "-//W3C//DTD SVG 1.1//EN" "http://www.w3.org/Graphics/SVG/1.1/DTD/svg11.dtd" >
<svg xmlns="http://www.w3.org/2000/svg" xmlns:xlink="http://www.w3.org/1999/xlink" version="1.1" viewBox="-10 -40 660 512">
   <path fill="currentColor"
d="M256 -7h-160h160h-160v48v0h56v0v32v0h-104h-48v48v0v272v0v48v0h48h592v-48v0v-272v0v-48v0h-48h-48v-32v0h-160v0v32v0h-184v0v-32v0h56v0v-48v0zM592 121v272v-272v272h-544v0v-272v0h544v0zM200 361q28 0 52 -14v0v0q24 -14 38 -38q14 -25 14 -52t-14 -52
q-14 -24 -38 -38t-52 -14t-52 14t-38 38q-14 25 -14 52t14 52q14 24 38 38t52 14v0zM184 201v-16v16v-16h32v0v16v0v48v0v16v0h-32v0v-16v0v-48v0zM514 331q20 -20 28 -47v0v0q8 -27 1 -55t-27 -48t-48 -27t-55 1t-46 29q-21 19 -29 46t-1 55t27 48t48 27t55 -1t47 -28v0z
M502 217l-11 12l11 -12l-11 12l-34 34v0l-11 11v0l-23 -23v0l11 -11v0l34 -34v0l11 -11v0l23 22v0z" />
</svg>
