<?xml version="1.0" standalone="no"?>
<!DOCTYPE svg PUBLIC "-//W3C//DTD SVG 1.1//EN" "http://www.w3.org/Graphics/SVG/1.1/DTD/svg11.dtd" >
<svg xmlns="http://www.w3.org/2000/svg" xmlns:xlink="http://www.w3.org/1999/xlink" version="1.1" viewBox="-10 -40 522 512">
   <path fill="currentColor"
d="M66 115q-44 75 -50 159v0v0q-6 84 8 150l5 22v0l21 3v0q155 25 253 -13q98 -39 143 -117q44 -75 50 -159t-8 -150l-5 -22v0l-21 -3v0q-156 -25 -253 13q-98 39 -143 117v0zM443 30q7 42 7 91l-98 -98v0q41 0 91 7v0zM226 43q28 -10 62 -16l157 156v0q-10 60 -40 111
q-37 64 -119 97q-28 10 -62 16l-156 -156v0q9 -60 39 -111q37 -64 119 -97v0zM62 313l98 98l-98 -98l98 98q-41 0 -91 -7q-7 -42 -7 -91v0zM297 112l-17 -17l17 17l-17 -17l-34 34v0l17 17v0l64 64v0l17 17v0l34 -34v0l-17 -17v0l-64 -64v0zM241 168l-17 -17l17 17l-17 -17
l-34 34v0l17 17v0l64 64v0l17 17v0l34 -34v0l-17 -17v0l-64 -64v0zM185 224l-17 -17l17 17l-17 -17l-34 34v0l17 17v0l64 64v0l17 17v0l34 -34v0l-17 -17v0l-64 -64v0z" />
</svg>
