<?xml version="1.0" standalone="no"?>
<!DOCTYPE svg PUBLIC "-//W3C//DTD SVG 1.1//EN" "http://www.w3.org/Graphics/SVG/1.1/DTD/svg11.dtd" >
<svg xmlns="http://www.w3.org/2000/svg" xmlns:xlink="http://www.w3.org/1999/xlink" version="1.1" viewBox="-10 -40 404 512">
   <path fill="currentColor"
d="M336 153q-1 42 -22 76v0v0q-21 34 -56 52h77v0q47 -53 49 -128q-2 -82 -56 -136t-136 -56q-82 2 -136 56t-56 136q2 75 49 128h77v0q-35 -18 -56 -52t-22 -76q2 -61 42 -102q41 -40 102 -42q61 2 102 42q40 41 42 102v0zM226 210q0 14 -10 23v0v0q-9 10 -23 10
q-8 0 -14 -3q9 19 30 20q15 -1 24 -10t10 -24q-1 -21 -20 -30q3 6 3 14v0zM174 160q-8 0 -14 -3q9 19 31 20q14 0 23 -10q10 -9 10 -23q-1 -22 -20 -31q3 6 3 14q0 14 -10 23q-9 10 -23 10v0zM287 143q0 14 -10 23v0v0q-9 10 -23 10q-8 0 -14 -3q9 19 31 20q14 0 23 -10
q10 -9 10 -23q-1 -22 -20 -31q3 6 3 14v0zM64 361h96h-96h96v112v0h64v0v-112v0h96v0v-48v0h-256v0v48v0z" />
</svg>
