<?xml version="1.0" standalone="no"?>
<!DOCTYPE svg PUBLIC "-//W3C//DTD SVG 1.1//EN" "http://www.w3.org/Graphics/SVG/1.1/DTD/svg11.dtd" >
<svg xmlns="http://www.w3.org/2000/svg" xmlns:xlink="http://www.w3.org/1999/xlink" version="1.1" viewBox="-10 -40 468 512">
   <path fill="currentColor"
d="M200 121v-80v80v-80h-105v0l-35 80v0h140v0zM388 121l-35 -80l35 80l-35 -80h-105v0v80v0h140v0zM48 169v224v-224v224h352v0v-224v0h-352v0zM64 -7h320h-320h320l64 144v0v256v0v48v0h-48h-400v-48v0v-256v0l64 -144v0zM337 226l-128 128l128 -128l-128 128l-17 17v0
l-17 -17v0l-64 -64v0l-17 -17v0l34 -34v0l17 17v0l47 47v0l111 -111v0l17 -17v0l34 34v0l-17 17v0z" />
</svg>
