<?xml version="1.0" standalone="no"?>
<!DOCTYPE svg PUBLIC "-//W3C//DTD SVG 1.1//EN" "http://www.w3.org/Graphics/SVG/1.1/DTD/svg11.dtd" >
<svg xmlns="http://www.w3.org/2000/svg" xmlns:xlink="http://www.w3.org/1999/xlink" version="1.1" viewBox="-10 -40 596 512">
   <path fill="currentColor"
d="M48 105q1 -27 19 -45v0v0q18 -18 45 -19q27 1 45 19t19 45v112v0h-128v0v-112v0zM0 105v224v-224v224q1 48 33 79q31 32 79 33q48 -1 79 -33q32 -31 33 -79v-178v0q3 29 20 54l128 188v0q29 39 73 47t83 -19q39 -29 46 -74q8 -45 -18 -85l-129 -188v0q-28 -39 -72 -47
t-84 19q-42 33 -47 83v-24v0q-1 -48 -33 -79q-31 -32 -79 -33q-48 1 -79 33q-32 31 -33 79v0zM283 178q-15 -24 -10 -50v0v0q4 -26 26 -43q23 -15 47 -10q25 4 42 27l67 97v0l-106 74v0l-66 -95v0z" />
</svg>
