<?xml version="1.0" standalone="no"?>
<!DOCTYPE svg PUBLIC "-//W3C//DTD SVG 1.1//EN" "http://www.w3.org/Graphics/SVG/1.1/DTD/svg11.dtd" >
<svg xmlns="http://www.w3.org/2000/svg" xmlns:xlink="http://www.w3.org/1999/xlink" version="1.1" viewBox="-10 -40 660 512">
   <path fill="currentColor"
d="M304 9v160v-160v160h-160v0v-160v0h160v0zM144 -39h-48h48h-48v48v0v160v0v48v0h48h208v-48v0v-160v0v-48v0h-48h-160zM528 73v96v-96v96h-96v0v-96v0h96v0zM432 25h-48h48h-48v48v0v96v0v48v0h48h144v-48v0v-96v0v-48v0h-48h-96zM528 297q27 1 45 19v0v0q18 18 19 45
q-1 27 -19 45t-45 19h-416v0q-27 -1 -45 -19t-19 -45q1 -27 19 -45t45 -19h416v0zM112 249q-48 1 -79 33v0v0q-32 31 -33 79q1 48 33 79q31 32 79 33h416v0q48 -1 79 -33q32 -31 33 -79q-1 -48 -33 -79q-31 -32 -79 -33h-416v0zM160 361q0 -14 -9 -23v0v0q-9 -9 -23 -9
t-23 9t-9 23t9 23t23 9t23 -9t9 -23v0zM320 393q14 0 23 -9v0v0q9 -9 9 -23t-9 -23t-23 -9t-23 9t-9 23t9 23t23 9v0zM544 361q0 -14 -9 -23v0v0q-9 -9 -23 -9t-23 9t-9 23t9 23t23 9t23 -9t9 -23v0z" />
</svg>
