<?xml version="1.0" standalone="no"?>
<!DOCTYPE svg PUBLIC "-//W3C//DTD SVG 1.1//EN" "http://www.w3.org/Graphics/SVG/1.1/DTD/svg11.dtd" >
<svg xmlns="http://www.w3.org/2000/svg" xmlns:xlink="http://www.w3.org/1999/xlink" version="1.1" viewBox="-10 -40 596 512">
   <path fill="currentColor"
d="M48 105q1 -27 19 -45v0v0q18 -18 45 -19q27 1 45 19t19 45v112v0h-128v0v-112v0zM112 -7q-48 1 -79 33v0v0q-32 31 -33 79v224v0q1 48 33 79q31 32 79 33q48 -1 79 -33q32 -31 33 -79v-224v0q-1 -48 -33 -79q-31 -32 -79 -33v0zM510 341l-154 -154l154 154l-154 -154
q26 -18 60 -18q48 1 79 33q32 31 33 79q0 34 -18 60v0zM476 375q-26 18 -60 18q-48 -1 -79 -33q-32 -31 -33 -79q0 -34 18 -60l154 154v0zM416 441q43 0 80 -21v0v0q37 -22 59 -59q21 -38 21 -80t-21 -80q-22 -37 -59 -59q-37 -21 -80 -21t-80 21q-37 22 -59 59
q-21 38 -21 80t21 80q22 37 59 59q37 21 80 21v0z" />
</svg>
