<?xml version="1.0" standalone="no"?>
<!DOCTYPE svg PUBLIC "-//W3C//DTD SVG 1.1//EN" "http://www.w3.org/Graphics/SVG/1.1/DTD/svg11.dtd" >
<svg xmlns="http://www.w3.org/2000/svg" xmlns:xlink="http://www.w3.org/1999/xlink" version="1.1" viewBox="-10 -40 531 512">
   <path fill="currentColor"
d="M435 -38l-34 34l34 -34l-34 34l17 17v0l4 4v0l-38 38v0l-55 -55v0l-17 -17v0l-34 34v0l17 17v0l72 72v0l72 72v0l17 17v0l34 -34v0l-17 -17v0l-55 -55v0l38 -38v0l4 4v0l17 17v0l34 -34v0l-17 -17v0l-21 -21v0l-21 -21v0l-17 -17v0zM271 56l-200 200l200 -200l-200 200
l-7 7v0v10v0v102v0l-46 46v0l-17 17v0l34 34v0l17 -17v0l46 -46v0h102h10l7 -7v0l200 -200v0l-1 -1v0l-33 -33v0l-193 193v0h-78v0v-78v0l30 -30v0l23 23v0l11 12v0l23 -23v0l-12 -11v0l-23 -23v0l42 -42v0l23 23v0l11 12v0l23 -23v0l-12 -11v0l-23 -23v0l42 -42v0l23 23v0
l11 12v0l23 -23v0l-12 -11v0l-23 -23v0l13 -13v0l-33 -33v0l-1 -1v0z" />
</svg>
