<?xml version="1.0" standalone="no"?>
<!DOCTYPE svg PUBLIC "-//W3C//DTD SVG 1.1//EN" "http://www.w3.org/Graphics/SVG/1.1/DTD/svg11.dtd" >
<svg xmlns="http://www.w3.org/2000/svg" xmlns:xlink="http://www.w3.org/1999/xlink" version="1.1" viewBox="-10 -40 468 512">
   <path fill="currentColor"
d="M200 121v-80v80v-80h-105v0l-35 80v0h140v0zM388 121l-35 -80l35 80l-35 -80h-105v0v80v0h140v0zM48 169v224v-224v224h352v0v-224v0h-352v0zM64 -7h320h-320h320l64 144v0v256v0v48v0h-48h-400v-48v0v-256v0l64 -144v0zM224 361l-85 -74l85 74l-85 -74q-16 -15 -17 -36
q-1 -22 15 -38q15 -15 36 -15q20 0 36 15l15 15v0l16 -15v0q15 -15 35 -15q21 0 36 15q16 16 15 38q-1 21 -17 36l-85 74v0z" />
</svg>
