<?xml version="1.0" standalone="no"?>
<!DOCTYPE svg PUBLIC "-//W3C//DTD SVG 1.1//EN" "http://www.w3.org/Graphics/SVG/1.1/DTD/svg11.dtd" >
<svg xmlns="http://www.w3.org/2000/svg" xmlns:xlink="http://www.w3.org/1999/xlink" version="1.1" viewBox="-10 -40 660 512">
   <path fill="currentColor"
d="M0 121l224 64l-224 -64l224 64l96 -160v0l-256 -32v0l-64 128v0zM320 25l96 160l-96 -160l96 160l224 -64v0l-64 -128v0l-256 32v0zM319 89h2h-2h2v0v0h-2v0v0v0zM528 186v154v-154v154l-184 46v0v-233v0h-48v0v233v0l-184 -46v0v-154v0l-48 -13v0v204v0l256 64v0
l256 -64v0v-204v0l-48 13v0z" />
</svg>
