<?xml version="1.0" standalone="no"?>
<!DOCTYPE svg PUBLIC "-//W3C//DTD SVG 1.1//EN" "http://www.w3.org/Graphics/SVG/1.1/DTD/svg11.dtd" >
<svg xmlns="http://www.w3.org/2000/svg" xmlns:xlink="http://www.w3.org/1999/xlink" version="1.1" viewBox="-10 -40 532 512">
   <path fill="currentColor"
d="M160 473l48 -32l-48 32l48 -32l96 -64v0h160h48v-48v0v-320v0v-48v0h-48h-464v48v0v320v0v48v0h48h112v38v0v10v0v48v0zM277 337l-69 46l69 -46l-69 46v-6v0v-48v0h-48h-112v-320v0h416v0v320v0h-160h-14l-13 8v0zM144 201q14 0 23 -9v0v0q9 -9 9 -23t-9 -23t-23 -9
t-23 9t-9 23t9 23t23 9v0zM288 169q0 -14 -9 -23v0v0q-9 -9 -23 -9t-23 9t-9 23t9 23t23 9t23 -9t9 -23v0zM368 201q14 0 23 -9v0v0q9 -9 9 -23t-9 -23t-23 -9t-23 9t-9 23t9 23t23 9v0z" />
</svg>
