<?xml version="1.0" standalone="no"?>
<!DOCTYPE svg PUBLIC "-//W3C//DTD SVG 1.1//EN" "http://www.w3.org/Graphics/SVG/1.1/DTD/svg11.dtd" >
<svg xmlns="http://www.w3.org/2000/svg" xmlns:xlink="http://www.w3.org/1999/xlink" version="1.1" viewBox="-10 -40 532 512">
   <path fill="currentColor"
d="M256 9q43 0 80 21v0v0q37 22 59 59q21 38 21 80t-21 80q-22 37 -59 59q-37 21 -80 21t-80 -21q-37 -22 -59 -59q-21 -38 -21 -80t21 -80q22 -37 59 -59q37 -21 80 -21v0zM256 377q57 0 104 -28v0v0q47 -27 76 -76q28 -49 28 -104t-28 -104q-29 -49 -76 -76
q-47 -28 -104 -28t-104 28q-47 27 -76 76q-28 49 -28 104t28 104q29 49 76 76q47 28 104 28v0zM64 313h-40h40h-64v24v0v112v0v24v0h24h488v-24v0v-112v0v-24v0h-24h-40q-21 27 -48 48h64v0v64v0h-416v0v-64v0h64v0q-27 -21 -48 -48v0zM276 73v-20v20v-20h-40v0v20v0v6v0
q-8 2 -16 5q-24 10 -31 38q-3 15 3 29q7 13 18 19q19 12 38 16l2 1v0q21 6 30 12q3 2 3 4q1 1 1 6q-1 6 -8 9q-10 5 -29 2q-11 -2 -26 -8v0v0q-4 -1 -7 -2l-19 -6v0l-12 38v0l19 6v0q1 1 4 2v0v0h1q14 5 29 9v6v0v20v0h40v0v-20v0v-5v0q8 -2 15 -5q25 -10 32 -39
q3 -15 -3 -29t-17 -21q-20 -12 -40 -17v0v0v0v0v0h-1v0q-21 -6 -30 -12q-4 -2 -4 -3v-5q0 -3 8 -8q10 -5 29 -3q4 1 11 2q7 2 11 2l19 6v0l10 -39v0l-19 -5v0q-9 -2 -21 -5v-6v0z" />
</svg>
