<?xml version="1.0" standalone="no"?>
<!DOCTYPE svg PUBLIC "-//W3C//DTD SVG 1.1//EN" "http://www.w3.org/Graphics/SVG/1.1/DTD/svg11.dtd" >
<svg xmlns="http://www.w3.org/2000/svg" xmlns:xlink="http://www.w3.org/1999/xlink" version="1.1" viewBox="-10 -40 593 512">
   <path fill="currentColor"
d="M312 -7v3v-3v3q11 2 18 4l23 6v0l-12 46v0l-23 -6v0q-4 -1 -11 -2t-10 -2q-18 -2 -27 2q-7 4 -6 5v0v0v3v0v0q0 1 2 2q8 5 29 11h1v0q20 5 41 18q12 8 19 22q6 15 3 32q-7 31 -34 42q-6 2 -13 4v2v0v24v0h-48v0v-24v0v-3v0q-15 -4 -27 -9v0v0v0v0h-1q-2 -1 -3 -1l-23 -8
v0l15 -45v0l23 7v0q1 1 2 1l4 2v0v0h2q15 5 24 7q18 2 26 -1q6 -3 6 -6v-4v0v-1v0v0l-2 -2q-8 -5 -29 -11l-2 -1v0h-1q-19 -5 -38 -16q-12 -7 -19 -21q-7 -15 -4 -32q8 -30 34 -40q6 -3 13 -5v-3v0v-24v0h48v0v24v0zM264 52v0v0v0v0zM161 265h7h-7h247v24v0v47v0l80 -51v0
l20 -13v0l13 20v0l40 64v0l12 20v0l-19 13v0l-116 80v0l-7 4v0h-7h-424v-48v0h24h393l91 -63v0l-15 -24v0l-80 51v0l-6 4v0h-7h-168v-48v0h24h104v-32v0h-185v0l-90 60v0l-6 4v0h-7h-72v-48v0h24h41l90 -60v0l6 -4v0z" />
</svg>
