<?xml version="1.0" standalone="no"?>
<!DOCTYPE svg PUBLIC "-//W3C//DTD SVG 1.1//EN" "http://www.w3.org/Graphics/SVG/1.1/DTD/svg11.dtd" >
<svg xmlns="http://www.w3.org/2000/svg" xmlns:xlink="http://www.w3.org/1999/xlink" version="1.1" viewBox="-10 -40 593 512">
   <path fill="currentColor"
d="M288 -39l77 102l-77 -102l77 102q19 26 19 58q-1 41 -28 68t-68 28q-41 -1 -68 -28t-28 -68q0 -32 19 -58l77 -102v0zM161 265h7h-7h247v24v0v47v0l80 -51v0l20 -13v0l13 20v0l40 64v0l12 20v0l-19 13v0l-116 80v0l-7 4v0h-7h-424v-48v0h24h393l91 -63v0l-15 -24v0
l-80 51v0l-6 4v0h-7h-168v-48v0h24h104v-32v0h-185v0l-90 60v0l-6 4v0h-7h-72v-48v0h24h41l90 -60v0l6 -4v0z" />
</svg>
