<?xml version="1.0" standalone="no"?>
<!DOCTYPE svg PUBLIC "-//W3C//DTD SVG 1.1//EN" "http://www.w3.org/Graphics/SVG/1.1/DTD/svg11.dtd" >
<svg xmlns="http://www.w3.org/2000/svg" xmlns:xlink="http://www.w3.org/1999/xlink" version="1.1" viewBox="-10 -40 660 512">
   <path fill="currentColor"
d="M120 25h24h-24h24v24v0v214v0l47 -47v0l17 -17v0l17 17v0l95 95v0l95 -95v0l17 -17v0l17 17v0l47 47v0v-214v0v-24v0h24h120v24v0v304v0v10v0l-7 7v0l-85 85v0l-17 17v0l-34 -34v0l17 -17v0l78 -78v0v-270v0h-48v0v200v0v10v0l-7 7v0l-7 7v0l-17 17v0l-40 40v0v0v0
l-16 16v0l-17 17v0l-34 -34v0l17 -17v0l16 -16v0v0v0l23 -23v0l-30 -30v0l-88 88v0v94v0v24v0h-24h-24v-24v0v-94v0l-88 -88v0l-30 30v0l23 23v0l16 16v0l1 1v0l16 16v0l-34 34v0l-16 -16v0l-1 -1v0l-16 -16v0l-40 -40v0l-17 -17v0l-7 -7v0l-7 -7v0v-10v0v-200v0h-48v0v270
v0l78 78v0l17 17v0l-34 34v0l-17 -17v0l-85 -85v0l-7 -7v0v-10v0v-304v0v-24v0h24h96z" />
</svg>
