<?xml version="1.0" standalone="no"?>
<!DOCTYPE svg PUBLIC "-//W3C//DTD SVG 1.1//EN" "http://www.w3.org/Graphics/SVG/1.1/DTD/svg11.dtd" >
<svg xmlns="http://www.w3.org/2000/svg" xmlns:xlink="http://www.w3.org/1999/xlink" version="1.1" viewBox="-10 -40 650 512">
   <path fill="currentColor"
d="M273 25h-73h73h-82l-7 7v0l-62 57v0h-66h-24v48v0h24h85l7 -6v0l62 -58v0h15v0l48 -48v0zM328 25h-9h9h-9l-7 7v0l-136 128v0l-17 16v0l15 17v0l64 72v0l16 18v0l18 -16v0l68 -63v0l92 92v0v2v0l-49 49v0l-10 -10v0l-17 -17v0l-17 17v0l-30 30v0l-21 -21v0l-17 -17v0
l-17 17v0l-23 23v0l-21 -21v0l-17 -17v0l-7 -7v0l-52 -52v0l-7 -7v0h-10h-85v48v0h24h51l45 45v0l7 7v0l17 17v0l38 38v0l17 17v0l17 -17v0l24 -23v0l21 21v0l17 17v0l17 -17v0l29 -30v0l10 10v0l17 17v0l17 -17v0l69 -69v0h115h24v-48v0h-24h-99l-1 -1v0l-109 -109v0h1v0
l18 -17v0l-33 -35v0l-17 16v0l-86 80v0l-33 -37v0l113 -105v0h77v0l65 58v0l7 6v0h9h112v-48v0h-24h-79l-65 -58v0l-7 -6v0h-9h-96z" />
</svg>
