<?xml version="1.0" standalone="no"?>
<!DOCTYPE svg PUBLIC "-//W3C//DTD SVG 1.1//EN" "http://www.w3.org/Graphics/SVG/1.1/DTD/svg11.dtd" >
<svg xmlns="http://www.w3.org/2000/svg" xmlns:xlink="http://www.w3.org/1999/xlink" version="1.1" viewBox="-10 -40 468 512">
   <path fill="currentColor"
d="M51 217h-51h51h-51l18 -48v0l78 -208v0h256v0l78 208v0l18 48v0h-51h-346zM69 169h310h-310h310l-60 -160v0h-190v0l-60 160v0zM144 281v-32v32v-32h48v0v32v0v20v0l-14 14v0v0v0l-1 1v0q-1 1 -3 4q-6 6 -13 18q-16 24 -17 55q1 19 9 32h143v0q7 -13 8 -32
q-1 -29 -17 -55q-8 -12 -13 -18q-3 -4 -4 -5l-1 -1v0v0v0v0v0v0v0v0v0l-13 -14v0v-19v0v-32v0h48v0v32v0q3 1 24 33t24 79q-2 37 -16 58q-14 22 -16 22h-192v0q-2 0 -16 -22q-14 -21 -16 -58q3 -49 24 -80t24 -32v0z" />
</svg>
