<?xml version="1.0" standalone="no"?>
<!DOCTYPE svg PUBLIC "-//W3C//DTD SVG 1.1//EN" "http://www.w3.org/Graphics/SVG/1.1/DTD/svg11.dtd" >
<svg xmlns="http://www.w3.org/2000/svg" xmlns:xlink="http://www.w3.org/1999/xlink" version="1.1" viewBox="-10 -40 532 512">
   <path fill="currentColor"
d="M96 41h320h-320h320v112v0h48v0v-112v0v-48v0h-48h-368v48v0v112v0h48v0v-112v0zM96 233v160v-160v160h-48v0v-160v0h48v0zM48 185h-48h48h-48v48v0v160v0v48v0h48h96v-32v0h224v0v32v0h48h96v-48v0v-160v0v-48v0h-48h-96v48v0v16v0h-224v0v-16v0v-48v0h-48h-48zM144 297
h224h-224h224v64v0h-224v0v-64v0zM416 233h48h-48h48v160v0h-48v0v-160v0z" />
</svg>
