<?xml version="1.0" standalone="no"?>
<!DOCTYPE svg PUBLIC "-//W3C//DTD SVG 1.1//EN" "http://www.w3.org/Graphics/SVG/1.1/DTD/svg11.dtd" >
<svg xmlns="http://www.w3.org/2000/svg" xmlns:xlink="http://www.w3.org/1999/xlink" version="1.1" viewBox="-10 -40 404 512">
   <path fill="currentColor"
d="M80 57q27 -1 42 -24q12 -24 0 -48q-15 -23 -42 -24q-27 1 -42 24q-12 24 0 48q15 23 42 24v0zM0 449v24v-24v24h48v0v-24v0v-110v0l-46 -36v0l-1 -1q-1 0 -1 -1v148v0zM24 89h-24h24h-24v24v0v120v0q1 27 21 44l93 73v0l17 123v0h49v0l-20 -139v0l-2 -10v0l-7 -6v0
l-31 -24v0v-5v0v-82v0l20 31v0l7 11v0h13h224v-48v0v-96v0v-48v0h-48h-144v48v0v96v0h-19v0l-65 -101v0l-7 -11v0h-13h-64zM240 201v-96v96v-96h96v0v96v0h-80h-16zM72 145v111v-111v111l-21 -16v0q-3 -3 -3 -7v-96v0h24v0v8v0z" />
</svg>
