<?xml version="1.0" standalone="no"?>
<!DOCTYPE svg PUBLIC "-//W3C//DTD SVG 1.1//EN" "http://www.w3.org/Graphics/SVG/1.1/DTD/svg11.dtd" >
<svg xmlns="http://www.w3.org/2000/svg" xmlns:xlink="http://www.w3.org/1999/xlink" version="1.1" viewBox="-10 -40 529 512">
   <path fill="currentColor"
d="M32 9q1 -27 24 -42q24 -12 48 0q23 15 24 42q-1 27 -24 42q-24 12 -48 0q-23 -15 -24 -42v0zM0 301q0 1 1 1v0v0l1 1l46 36v0v110v0v24v0h-48v0v-24v0v-148v0zM0 89h24h-24h101l7 11v0l65 101v0h38v0l-10 -42v0l-6 -23v0l47 -12v0l5 23v0l50 199v0q27 4 43 25l134 -33v0
l23 -6v0l12 47v0l-23 5v0l-135 34v0q-3 24 -21 39q-17 15 -42 16q-27 -1 -45 -19t-19 -45q1 -33 26 -52l-27 -108v0h-63h-13l-7 -11v0l-20 -31v0v82v0v5v0l31 24v0l7 6v0l2 10v0l20 139v0h-49v0l-17 -123v0l-93 -72v0q-20 -18 -21 -45v-120v0v-24v0zM72 256v-111v111v-111
v-8v0h-24v0v96v0q0 4 3 7l21 16v0zM288 425q15 -1 16 -16q-1 -15 -16 -16q-15 1 -16 16q1 15 16 16v0zM326 345l-38 -154l38 154l-38 -154l154 -38v0l38 154v0l-154 38v0z" />
</svg>
