<?xml version="1.0" standalone="no"?>
<!DOCTYPE svg PUBLIC "-//W3C//DTD SVG 1.1//EN" "http://www.w3.org/Graphics/SVG/1.1/DTD/svg11.dtd" >
<svg xmlns="http://www.w3.org/2000/svg" xmlns:xlink="http://www.w3.org/1999/xlink" version="1.1" viewBox="-10 -40 532 512">
   <path fill="currentColor"
d="M454 88q-11 22 -28 44q-5 7 -10 13q-5 -6 -10 -13q-17 -22 -28 -44q-11 -23 -10 -31q1 -20 14 -34q14 -13 34 -14q20 1 34 14q13 14 14 34q1 8 -10 31v0zM448 181q22 -26 43 -60v0v0q20 -34 21 -64q-1 -41 -28 -68t-68 -28q-41 1 -68 28t-28 68q1 27 17 57q17 30 37 55
h-110h-24v24v0v128v0v24v0h24h200v80v0h-286v0q-4 6 -8 11q-17 22 -30 37h348h24v-24v0v-128v0v-24v0h-24h-200v-80v0h128v0l9 -10t23 -26v0zM134 344q-11 22 -28 44q-5 7 -10 13q-5 -6 -10 -13q-17 -22 -28 -44q-11 -23 -10 -31q1 -20 14 -34q14 -13 34 -14q20 1 34 14
q13 14 14 34q1 8 -10 31v0zM138 425q20 -25 37 -55v0v0q16 -30 17 -57q-1 -41 -28 -68t-68 -28q-41 1 -68 28t-28 68q1 30 21 64q21 34 43 60q13 16 23 26l9 10v0l11 -12h1v0q4 -5 10 -12v0l1 -1l1 -1q4 -4 8 -10l10 -12v0z" />
</svg>
