<?xml version="1.0" standalone="no"?>
<!DOCTYPE svg PUBLIC "-//W3C//DTD SVG 1.1//EN" "http://www.w3.org/Graphics/SVG/1.1/DTD/svg11.dtd" >
<svg xmlns="http://www.w3.org/2000/svg" xmlns:xlink="http://www.w3.org/1999/xlink" version="1.1" viewBox="-10 -40 660 512">
   <path fill="currentColor"
d="M0 -7h24h-24h400v24v0v232v0v24v0h-48v0v-24v0v-208v0h-304v0v208v0v24v0h-48v0v-24v0v-232v0v-24v0zM608 361q-1 34 -23 57v0v0q-23 22 -57 23q-34 -1 -57 -23q-22 -23 -23 -57h-16h-144q-1 34 -23 57q-23 22 -57 23q-41 -1 -64 -32q-23 31 -64 32q-34 -1 -57 -23
q-22 -23 -23 -57q1 -34 23 -57q23 -22 57 -23q41 1 64 32q23 -31 64 -32q41 1 64 32h160v0v-96v0v-88v0v-24v0h24h99l8 9v0l72 88v0l5 6v0v9v0v32v0v112v0h-32v0zM585 217l-52 -64l52 64l-52 -64h-53v0v64v0h105v0zM136 97v128v-128v128v24v0h-48v0v-24v0v-128v0v-24v0h48v0
v24v0zM224 97v128v-128v128v24v0h-48v0v-24v0v-128v0v-24v0h48v0v24v0zM312 97v128v-128v128v24v0h-48v0v-24v0v-128v0v-24v0h48v0v24v0zM528 393q14 0 23 -9v0v0q9 -9 9 -23t-9 -23t-23 -9t-23 9t-9 23t9 23t23 9v0zM240 361q0 -14 -9 -23v0v0q-9 -9 -23 -9t-23 9t-9 23
t9 23t23 9t23 -9t9 -23v0zM80 393q14 0 23 -9v0v0q9 -9 9 -23t-9 -23t-23 -9t-23 9t-9 23t9 23t23 9v0z" />
</svg>
