<?xml version="1.0" standalone="no"?>
<!DOCTYPE svg PUBLIC "-//W3C//DTD SVG 1.1//EN" "http://www.w3.org/Graphics/SVG/1.1/DTD/svg11.dtd" >
<svg xmlns="http://www.w3.org/2000/svg" xmlns:xlink="http://www.w3.org/1999/xlink" version="1.1" viewBox="-10 -40 660 512">
   <path fill="currentColor"
d="M352 -39h24h-24h288v48v0h-24h-216v312v0l26 -6v0v0v0q14 -30 41 -48t61 -18q48 1 79 33q32 31 33 79q-1 48 -33 79q-31 32 -79 33q-46 -1 -77 -31q-32 -30 -35 -75l-378 97v0l-23 6v0l-12 -46v0l23 -6v0l326 -84v0v-349v0v-24v0zM592 361q-1 -36 -32 -55q-32 -18 -64 0
q-31 19 -32 55q1 36 32 55q32 18 64 0q31 -19 32 -55v0zM295 170q13 -3 25 0v126v0l-39 10v0l-154 42v0l-93 25v0l-21 -78v0q-5 -20 5 -36q10 -17 29 -23q20 -4 37 5q16 10 22 29l4 16v0l155 -42v0l-4 -15v0q-5 -20 4 -37q10 -16 29 -22h1zM8 214q-6 -27 6 -49v0v0
q13 -22 39 -30l186 -49v0q26 -7 48 6t30 39l2 6v0q-16 -2 -33 2q-28 9 -44 31q-16 23 -15 51l-96 26v0q-13 -25 -38 -37t-54 -4q-17 4 -29 14l-2 -6v0z" />
</svg>
