<?xml version="1.0" standalone="no"?>
<!DOCTYPE svg PUBLIC "-//W3C//DTD SVG 1.1//EN" "http://www.w3.org/Graphics/SVG/1.1/DTD/svg11.dtd" >
<svg xmlns="http://www.w3.org/2000/svg" xmlns:xlink="http://www.w3.org/1999/xlink" version="1.1" viewBox="-10 -40 330 512">
   <path fill="currentColor"
d="M64 137h192h-192h192l2 21v0q2 44 -26 75t-72 32q-44 -1 -72 -32t-26 -75l2 -21v0zM69 89l7 -80l-7 80l7 -80h168v0l8 80v0h-183v0zM32 -39l-17 193l17 -193l-17 193q-5 59 30 103q34 43 91 54v114v0h-88v0v48v0h112h112v-48v0h-88v0v-114v0q57 -11 91 -54
q35 -44 31 -103l-18 -193v0h-256v0z" />
</svg>
