<?xml version="1.0" standalone="no"?>
<!DOCTYPE svg PUBLIC "-//W3C//DTD SVG 1.1//EN" "http://www.w3.org/Graphics/SVG/1.1/DTD/svg11.dtd" >
<svg xmlns="http://www.w3.org/2000/svg" xmlns:xlink="http://www.w3.org/1999/xlink" version="1.1" viewBox="-10 -40 660 512">
   <path fill="currentColor"
d="M304 89q-1 -45 -40 -69q-40 -22 -80 0q-39 24 -40 69q1 45 40 69q40 22 80 0q39 -24 40 -69v0zM96 89q0 -35 17 -64v0v0q17 -29 47 -47q30 -17 64 -17t64 17q30 18 47 47t17 64t-17 64t-47 47q-30 17 -64 17t-64 -17q-30 -18 -47 -47t-17 -64v0zM65 425h284h-284h284
q18 28 46 48h-345h-50l15 -48v0l49 -160v0h268v0q-9 23 -11 48h-221v0l-35 112v0zM352 329q0 -39 19 -72v0v0q19 -33 53 -53q34 -19 72 -19t72 19q34 20 53 53t19 72t-19 72t-53 53q-34 19 -72 19t-72 -19q-34 -20 -53 -53t-19 -72v0zM512 249h-32h32h-32v16v0v64v0v16v0h16
h64v-32v0h-16h-32v-48v0v-16v0z" />
</svg>
