<?xml version="1.0" standalone="no"?>
<!DOCTYPE svg PUBLIC "-//W3C//DTD SVG 1.1//EN" "http://www.w3.org/Graphics/SVG/1.1/DTD/svg11.dtd" >
<svg xmlns="http://www.w3.org/2000/svg" xmlns:xlink="http://www.w3.org/1999/xlink" version="1.1" viewBox="-10 -40 660 512">
   <path fill="currentColor"
d="M224 169q45 -1 69 -40q22 -40 0 -80q-24 -39 -69 -40q-45 1 -69 40q-22 40 0 80q24 39 69 40v0zM224 -39q35 0 64 17v0v0q29 17 47 47q17 30 17 64t-17 64q-18 30 -47 47t-64 17t-64 -17t-47 -47q-17 -30 -17 -64t17 -64q18 -30 47 -47t64 -17v0zM100 313l-35 112
l35 -112l-35 112h255h64v48v0h-334h-50l15 -48v0l49 -160v0h320v0v0v0v48v0h-35h-249zM528 201q-14 0 -23 9v0v0q-9 9 -9 23v48v0h64v0v-48v0q0 -14 -9 -23t-23 -9v0zM448 233q1 -34 23 -57v0v0q23 -22 57 -23q34 1 57 23q22 23 23 57v48v0h32v0v192v0h-224v0v-192v0h32v0
v-48v0z" />
</svg>
