<?xml version="1.0" standalone="no"?>
<!DOCTYPE svg PUBLIC "-//W3C//DTD SVG 1.1//EN" "http://www.w3.org/Graphics/SVG/1.1/DTD/svg11.dtd" >
<svg xmlns="http://www.w3.org/2000/svg" xmlns:xlink="http://www.w3.org/1999/xlink" version="1.1" viewBox="-10 -40 596 512">
   <path fill="currentColor"
d="M288 441q-2 -2 -42 -20v0v0q-41 -17 -102 -20q-22 0 -48 4q-25 3 -48 8q-21 5 -34 8q-13 4 -14 4v0v-50v0v-342v0q1 -2 44 -20q43 -17 116 -20q55 2 91 12q36 11 37 12q2 -1 40 -12q38 -10 88 -12q73 3 116 20q43 18 44 20v342v0v50v0l-14 -4q-13 -3 -34 -8
q-23 -5 -48 -8q-26 -4 -48 -4q-61 3 -102 20q-40 18 -42 20v0zM528 364v-301v301v-301q-6 -2 -12 -5q-37 -15 -100 -17q-42 1 -76 11q-17 4 -26 7v0q-1 0 -2 1v317v0h1v0q22 -9 53 -16q30 -7 65 -8q24 0 49 3q26 4 48 8v0zM264 377v-318v318v-318h-2q-8 -4 -23 -8
q-32 -9 -79 -10q-63 2 -100 17q-7 3 -12 5v301v0q22 -4 48 -8q25 -3 49 -3q35 1 65 8t53 16v0h1v0z" />
</svg>
