<?xml version="1.0" standalone="no"?>
<!DOCTYPE svg PUBLIC "-//W3C//DTD SVG 1.1//EN" "http://www.w3.org/Graphics/SVG/1.1/DTD/svg11.dtd" >
<svg xmlns="http://www.w3.org/2000/svg" xmlns:xlink="http://www.w3.org/1999/xlink" version="1.1" viewBox="-10 -40 532 512">
   <path fill="currentColor"
d="M256 9q57 0 104 28v0v0q47 27 76 76q28 49 28 104t-28 104q-29 49 -76 76q-47 28 -104 28t-104 -28q-47 -27 -76 -76q-28 -49 -28 -104t28 -104q29 -49 76 -76q47 -28 104 -28v0zM256 473q70 -1 128 -34v0v0q58 -34 94 -94q34 -61 34 -128t-34 -128q-36 -60 -94 -94
q-58 -33 -128 -34q-70 1 -128 34q-58 34 -94 94q-34 61 -34 128t34 128q36 60 94 94q58 33 128 34v0zM256 89v-32v32v-32q-68 2 -113 47t-47 113h32v0q1 -54 37 -91q37 -36 91 -37v0zM352 217q0 -26 -13 -48v0v0q-13 -22 -35 -35q-23 -13 -48 -13t-48 13q-22 13 -35 35
t-13 48t13 48t35 35q23 13 48 13t48 -13q22 -13 35 -35t13 -48v0zM232 217q2 -22 24 -24q22 2 24 24q-2 22 -24 24q-22 -2 -24 -24v0z" />
</svg>
