<?xml version="1.0" standalone="no"?>
<!DOCTYPE svg PUBLIC "-//W3C//DTD SVG 1.1//EN" "http://www.w3.org/Graphics/SVG/1.1/DTD/svg11.dtd" >
<svg xmlns="http://www.w3.org/2000/svg" xmlns:xlink="http://www.w3.org/1999/xlink" version="1.1" viewBox="-10 -40 596 512">
   <path fill="currentColor"
d="M320 -39l-48 12l48 -12l-48 12l-208 52v0v400v0h-40h-24v48v0h24h296v-48v0v-414v0v-50v0zM272 23v402v-402v402h-160v0v-362v0l160 -40v0zM224 249q10 0 17 -9v0v0q7 -9 7 -23t-7 -23t-17 -9t-17 9t-7 23t7 23t17 9v0zM352 73h112h-112h112v376v0v24v0h24h88v-48v0h-24
h-40v-376v0v-24v0h-24h-136v48v0z" />
</svg>
