<?xml version="1.0" standalone="no"?>
<!DOCTYPE svg PUBLIC "-//W3C//DTD SVG 1.1//EN" "http://www.w3.org/Graphics/SVG/1.1/DTD/svg11.dtd" >
<svg xmlns="http://www.w3.org/2000/svg" xmlns:xlink="http://www.w3.org/1999/xlink" version="1.1" viewBox="-10 -40 596 512">
   <path fill="currentColor"
d="M61 -7l22 3l-22 -3l22 3l89 13v0l23 4v0l-7 47v0l-23 -3v0l-67 -10v0q-13 49 -23 84v0v0v1v0q-6 22 -12 46q-7 23 -14 55h183h24v24v0v8v0h64v0v-8v0v-24v0h24h183q-7 -32 -14 -56q-6 -23 -12 -45v-1v0v0v0v0v0v0v0q-10 -35 -23 -84l-66 10v0l-24 3v0l-7 -47v0l24 -4v0
l88 -13v0l22 -3v0l5 21v0q7 32 14 55q6 24 12 45q0 2 1 5v1v0q7 22 13 47q7 26 15 61l1 2v0v3v0v0v0v24v0v56v0v24v0v80v0v24v0h-24h-232v-24v0v-88v0h-64v0v88v0v24v0h-24h-232v-24v0v-80v0v-24v0v-56v0v-24v0v0v0v-3v0l1 -2v0q8 -35 15 -61q6 -25 13 -48v0v0q0 -2 1 -3
q6 -21 12 -45t14 -57l5 -21v0zM528 281h-160h160h-160v16v0v96v0h160v0v-56v0v-24v0v-32v0zM48 313v24v-24v24v56v0h160v0v-96v0v-16v0h-160v0v32v0z" />
</svg>
