<?xml version="1.0" standalone="no"?>
<!DOCTYPE svg PUBLIC "-//W3C//DTD SVG 1.1//EN" "http://www.w3.org/Graphics/SVG/1.1/DTD/svg11.dtd" >
<svg xmlns="http://www.w3.org/2000/svg" xmlns:xlink="http://www.w3.org/1999/xlink" version="1.1" viewBox="-10 -40 596 512">
   <path fill="currentColor"
d="M144 41v96v-96v96h-96v0v-96v0h96v0zM48 -7h-48h48h-48v48v0v96v0v48v0h48h106l70 93v0v19v0v96v0v48v0h48h144v-48v0v-96v0v-48v0h-48h-106l-70 -93v0v-19v0v-24v0h192v0v24v0v48v0h48h144v-48v0v-96v0v-48v0h-48h-144v48v0v24v0h-192v0v-24v0v-48v0h-48h-96zM368 297
v96v-96v96h-96v0v-96v0h96v0zM432 41h96h-96h96v96v0h-96v0v-96v0z" />
</svg>
