<?xml version="1.0" standalone="no"?>
<!DOCTYPE svg PUBLIC "-//W3C//DTD SVG 1.1//EN" "http://www.w3.org/Graphics/SVG/1.1/DTD/svg11.dtd" >
<svg xmlns="http://www.w3.org/2000/svg" xmlns:xlink="http://www.w3.org/1999/xlink" version="1.1" viewBox="-10 -40 532 512">
   <path fill="currentColor"
d="M512 121l-34 -34l34 34l-34 -34l-92 -92v0l-34 -34v0l-34 34v0l-284 284v0l-34 34v0l34 34v0l92 92v0l34 34v0l34 -34v0l284 -284v0l34 -34v0zM444 121l-284 284l284 -284l-284 284l-92 -92v0l35 -35v0l30 30v0l11 12v0l23 -23v0l-12 -11v0l-30 -30v0l42 -42v0l30 30v0
l11 12v0l23 -23v0l-12 -11v0l-30 -30v0l42 -42v0l30 30v0l11 12v0l23 -23v0l-12 -11v0l-30 -30v0l42 -42v0l30 30v0l11 12v0l23 -23v0l-12 -11v0l-30 -30v0l35 -35v0l92 92v0z" />
</svg>
