<?xml version="1.0" standalone="no"?>
<!DOCTYPE svg PUBLIC "-//W3C//DTD SVG 1.1//EN" "http://www.w3.org/Graphics/SVG/1.1/DTD/svg11.dtd" >
<svg xmlns="http://www.w3.org/2000/svg" xmlns:xlink="http://www.w3.org/1999/xlink" version="1.1" viewBox="-10 -40 276 512">
   <path fill="currentColor"
d="M208 9v48v-48v48h-48h-16v32v0h16h48v64v0h-48h-16v32v0h16h48v64v0h-48h-16v32v0h16h48v64v0h-48h-16v32v0h16h48v48v0h-160v0v-416v0h160v0zM48 -39h-48h48h-48v48v0v416v0v48v0h48h208v-48v0v-416v0v-48v0h-48h-160z" />
</svg>
