<?xml version="1.0" standalone="no"?>
<!DOCTYPE svg PUBLIC "-//W3C//DTD SVG 1.1//EN" "http://www.w3.org/Graphics/SVG/1.1/DTD/svg11.dtd" >
<svg xmlns="http://www.w3.org/2000/svg" xmlns:xlink="http://www.w3.org/1999/xlink" version="1.1" viewBox="-10 -40 333 512">
   <path fill="currentColor"
d="M208 -39q27 1 42 24q12 24 0 48q-15 23 -42 24q-27 -1 -42 -24q-12 -24 0 -48q15 -23 42 -24v0zM119 144l-36 19l36 -19l-36 19l-21 48v0l-9 22v0l-44 -19v0l9 -22v0l24 -56v0l4 -9v0l7 -3v0l80 -40v0l9 -5v0l8 3v0l88 24v0l14 3v0l3 14v0l23 82v0l35 35v0l-34 34v0
l-40 -40v0l-4 -4v0l-2 -7v0l-7 -23v0l-25 82v0l54 45v0l6 5v0l2 7v0l24 96v0l6 24v0l-47 11v0l-5 -23v0l-23 -88v0l-104 -85v0q-28 -25 -18 -62l23 -68v0zM172 138l-30 90l30 -90l-30 90q-2 5 2 8l17 14v0l32 -104v0v-1l1 -1l-22 -6v0zM100 303l39 32l-39 -32l39 32l-21 51
v0l-2 5v0l-3 3v0l-61 61v0l-17 17v0l-34 -34v0l17 -17v0l58 -57v0l24 -61v0z" />
</svg>
