<?xml version="1.0" standalone="no"?>
<!DOCTYPE svg PUBLIC "-//W3C//DTD SVG 1.1//EN" "http://www.w3.org/Graphics/SVG/1.1/DTD/svg11.dtd" >
<svg xmlns="http://www.w3.org/2000/svg" xmlns:xlink="http://www.w3.org/1999/xlink" version="1.1" viewBox="-10 -40 532 512">
   <path fill="currentColor"
d="M24 -7h-24h24h-24v24v0v400v0v24v0h24h488v-24v0v-304v0v-24v0h-24h-392v48v0h24h344v256v0h-416v0v-352v0h408h24v-48v0h-24h-432zM384 297q14 0 23 -9v0v0q9 -9 9 -23t-9 -23t-23 -9t-23 9t-9 23t9 23t23 9v0z" />
</svg>
