<?xml version="1.0" standalone="no"?>
<!DOCTYPE svg PUBLIC "-//W3C//DTD SVG 1.1//EN" "http://www.w3.org/Graphics/SVG/1.1/DTD/svg11.dtd" >
<svg xmlns="http://www.w3.org/2000/svg" xmlns:xlink="http://www.w3.org/1999/xlink" version="1.1" viewBox="-10 -40 532 512">
   <path fill="currentColor"
d="M208 269l-66 -66l66 66l-66 -66q-9 -10 -33 -21q-23 -9 -48 -16q13 47 45 81l41 42v0l-49 32v0l-14 9v0q28 14 60 15h48v0v30v0q12 -6 25 -13l15 15v0v-72v0v-24v0h48v0v24v0v72v0l16 -15v0q12 7 24 13v-30v0h48v0q32 -1 60 -15l-14 -9v0l-49 -33v0l41 -41v0
q32 -34 45 -81q-25 7 -48 16q-24 11 -33 21l-66 66v0l-16 -12v0v-88v0q0 -39 -10 -71q-9 -32 -22 -55q-13 23 -22 55q-10 32 -10 71v88v0l-16 12v0zM232 408q-32 16 -55 25v0v0q-24 8 -25 8t-6 -20q-2 -11 -2 -27v-1v0q-31 -1 -58 -10q-26 -10 -46 -23q-19 -12 -29 -21
l-11 -10v0l32 -21v0l9 -6v0l31 -21v0q-17 -17 -29 -38q-26 -47 -35 -88q-5 -22 -6 -36l-2 -14l14 2q13 2 35 7q39 8 81 25q28 12 46 30q0 -30 5 -56q7 -37 20 -65q12 -29 25 -49q27 -37 30 -38v0q3 1 30 38q13 20 25 49q13 28 20 65q5 26 5 56q18 -17 46 -30q42 -17 81 -25
q21 -5 35 -7q13 -2 14 -2l-2 14q-1 14 -6 36q-9 41 -35 88q-12 21 -29 38l31 21v0l9 6v0l32 21v0l-11 10q-10 9 -29 21q-20 13 -46 23q-27 9 -58 10v1v0q0 16 -2 27q-5 20 -6 20v0q-1 0 -25 -8q-23 -9 -55 -25v41v0v24v0h-48v0v-24v0v-41v0z" />
</svg>
