<?xml version="1.0" standalone="no"?>
<!DOCTYPE svg PUBLIC "-//W3C//DTD SVG 1.1//EN" "http://www.w3.org/Graphics/SVG/1.1/DTD/svg11.dtd" >
<svg xmlns="http://www.w3.org/2000/svg" xmlns:xlink="http://www.w3.org/1999/xlink" version="1.1" viewBox="-10 -40 596 512">
   <path fill="currentColor"
d="M528 105q-1 -41 -28 -68v0v0q-27 -27 -68 -28q-27 0 -49 13q-21 13 -34 35h-53v0q16 -43 52 -69t84 -27q61 2 102 42q40 41 42 102q-2 61 -42 102q-41 40 -102 42q-43 -1 -77 -22l36 -35v0q19 9 41 9q41 -1 68 -28t28 -68v0zM32 89h4h-4h384v32v0l-16 16v0l-158 158v0
l-10 10v0v120v0h88v0v48v0h-88h-136v-48v0h88v0v-120v0l-10 -10v0l-158 -158v0l-16 -16v0v-32v0h32v0zM84 137l124 124l-124 -124l124 124l124 -124v0h-248v0z" />
</svg>
