<?xml version="1.0" standalone="no"?>
<!DOCTYPE svg PUBLIC "-//W3C//DTD SVG 1.1//EN" "http://www.w3.org/Graphics/SVG/1.1/DTD/svg11.dtd" >
<svg xmlns="http://www.w3.org/2000/svg" xmlns:xlink="http://www.w3.org/1999/xlink" version="1.1" viewBox="-10 -40 532 512">
   <path fill="currentColor"
d="M464 217q0 -57 -28 -104v0v0q-27 -47 -76 -76q-49 -28 -104 -28t-104 28q-49 29 -76 76q-28 47 -28 104t28 104q27 47 76 76q49 28 104 28t104 -28q49 -29 76 -76q28 -47 28 -104v0zM0 217q1 -70 34 -128v0v0q34 -58 94 -94q61 -34 128 -34t128 34q60 36 94 94
q33 58 34 128q-1 70 -34 128q-34 58 -94 94q-61 34 -128 34t-128 -34q-60 -36 -94 -94q-33 -58 -34 -128v0zM256 249q36 1 55 32q18 32 0 64q-19 31 -55 32q-36 -1 -55 -32q-18 -32 0 -64q19 -31 55 -32v0zM120 79l17 17l-17 -17l17 17l23 23v0l23 -23v0l17 -17v0l34 34v0
l-17 17v0l-23 23v0l23 23v0l17 17v0l-34 34v0l-17 -17v0l-23 -23v0l-23 23v0l-17 17v0l-34 -34v0l17 -17v0l23 -23v0l-23 -23v0l-17 -17v0l34 -34v0zM312 79l17 17l-17 -17l17 17l23 23v0l23 -23v0l17 -17v0l34 34v0l-17 17v0l-23 23v0l23 23v0l17 17v0l-34 34v0l-17 -17v0
l-23 -23v0l-23 23v0l-17 17v0l-34 -34v0l17 -17v0l23 -23v0l-23 -23v0l-17 -17v0l34 -34v0z" />
</svg>
