<?xml version="1.0" standalone="no"?>
<!DOCTYPE svg PUBLIC "-//W3C//DTD SVG 1.1//EN" "http://www.w3.org/Graphics/SVG/1.1/DTD/svg11.dtd" >
<svg xmlns="http://www.w3.org/2000/svg" xmlns:xlink="http://www.w3.org/1999/xlink" version="1.1" viewBox="-10 -40 590 512">
   <path fill="currentColor"
d="M336 329v96v-96v96h-288v0v-416v0h176v0v112v0h112v0v96v0h48v0v-128v0l-128 -128v0h-208h-48v48v0v416v0v48v0h48h336v-48v0v-96v0h-48v0zM481 184l-17 -17l17 17l-17 -17l-34 34v0l17 17v0l31 31v0h-262h-24v48v0h24h262l-31 31v0l-17 17v0l34 34v0l17 -17v0l72 -72v0
l17 -17v0l-17 -17v0l-72 -72v0z" />
</svg>
