<?xml version="1.0" standalone="no"?>
<!DOCTYPE svg PUBLIC "-//W3C//DTD SVG 1.1//EN" "http://www.w3.org/Graphics/SVG/1.1/DTD/svg11.dtd" >
<svg xmlns="http://www.w3.org/2000/svg" xmlns:xlink="http://www.w3.org/1999/xlink" version="1.1" viewBox="-10 -40 404 512">
   <path fill="currentColor"
d="M48 9h176h-176h176v112v0h112v0v304v0h-288v0v-416v0zM256 -39h-208h208h-256v48v0v416v0v48v0h48h336v-48v0v-336v0l-128 -128v0zM216 369v-102v102v-102l31 31v0l17 17v0l34 -34v0l-17 -17v0l-72 -72v0l-17 -17v0l-17 17v0l-72 72v0l-17 17v0l34 34v0l17 -17v0l31 -31
v0v102v0v24v0h48v0v-24v0z" />
</svg>
