<?xml version="1.0" standalone="no"?>
<!DOCTYPE svg PUBLIC "-//W3C//DTD SVG 1.1//EN" "http://www.w3.org/Graphics/SVG/1.1/DTD/svg11.dtd" >
<svg xmlns="http://www.w3.org/2000/svg" xmlns:xlink="http://www.w3.org/1999/xlink" version="1.1" viewBox="-10 -40 532 512">
   <path fill="currentColor"
d="M477 87q15 -4 25 -16v0v0q10 -12 10 -29q-1 -15 -16 -37t-27 -38l-4 -4q0 -1 -1 -2l-2 2t-2 3v1q-9 11 -20 26q-10 15 -18 29v1v0q-6 11 -6 19q1 20 14 33q14 14 34 14q7 0 13 -2v0zM396 3q-61 -41 -140 -42q-72 1 -129 35q-58 34 -92 92q-34 57 -35 129q1 72 35 129
q34 58 92 92q57 34 129 35q72 -1 129 -35q58 -34 92 -92q34 -57 35 -129q0 -54 -21 -101q-13 5 -27 5q-13 0 -26 -4q25 45 26 100q-2 88 -61 147t-147 61q-88 -2 -147 -61t-61 -147q2 -88 61 -147t147 -61q74 1 129 45q-1 -6 -1 -12q2 -20 9 -33q1 -3 3 -6v0zM392 256
q-60 23 -136 24q-77 -1 -137 -24q12 46 49 75t88 30q51 -1 88 -30t48 -75v0zM120 193q1 -2 18 -16v0v0q16 -14 38 -16q22 2 39 16q16 14 17 16q-1 -31 -17 -55q-17 -24 -39 -25q-22 1 -38 25q-17 24 -18 55v0zM336 113q-22 1 -38 25v0v0q-17 24 -18 55q1 -2 18 -16
q16 -14 38 -16q22 2 39 16q16 14 17 16q-1 -31 -17 -55q-17 -24 -39 -25v0z" />
</svg>
