<?xml version="1.0" standalone="no"?>
<!DOCTYPE svg PUBLIC "-//W3C//DTD SVG 1.1//EN" "http://www.w3.org/Graphics/SVG/1.1/DTD/svg11.dtd" >
<svg xmlns="http://www.w3.org/2000/svg" xmlns:xlink="http://www.w3.org/1999/xlink" version="1.1" viewBox="-10 -40 532 512">
   <path fill="currentColor"
d="M464 217q0 -57 -28 -104v0v0q-27 -47 -76 -76q-49 -28 -104 -28t-104 28q-49 29 -76 76q-28 47 -28 104t28 104q27 47 76 76q49 28 104 28t104 -28q49 -29 76 -76q28 -47 28 -104v0zM0 217q1 -70 34 -128v0v0q34 -58 94 -94q61 -34 128 -34t128 34q60 36 94 94
q33 58 34 128q-1 70 -34 128q-34 58 -94 94q-61 34 -128 34t-128 -34q-60 -36 -94 -94q-33 -58 -34 -128v0zM256 280q76 -1 136 -24q-11 46 -48 75t-88 30q-51 -1 -88 -30t-49 -75q60 23 137 24v0zM215 98q14 4 21 16v0v0q6 11 3 25l-22 80v0l-80 -21v0q-14 -4 -21 -16
q-6 -11 -3 -25q4 -14 16 -20q11 -7 25 -4l16 5v0l4 -16v0q4 -14 16 -21q11 -6 25 -3v0zM338 122l4 16l-4 -16l4 16l16 -4v0q14 -4 25 3q12 6 16 20q3 14 -4 25q-6 12 -20 16l-80 22v0l-22 -81v0q-3 -14 3 -25q7 -12 21 -16q13 -3 25 4q12 6 16 20v0z" />
</svg>
