<?xml version="1.0" standalone="no"?>
<!DOCTYPE svg PUBLIC "-//W3C//DTD SVG 1.1//EN" "http://www.w3.org/Graphics/SVG/1.1/DTD/svg11.dtd" >
<svg xmlns="http://www.w3.org/2000/svg" xmlns:xlink="http://www.w3.org/1999/xlink" version="1.1" viewBox="-10 -40 660 512">
   <path fill="currentColor"
d="M518 282q1 6 4 12q4 14 16 28q5 6 11 10q-32 63 -93 102q-60 38 -136 39q-76 -1 -136 -39q-61 -39 -93 -102q6 -4 11 -10q12 -14 16 -28q3 -6 4 -12q22 63 75 103q53 39 123 40q70 -1 123 -40q53 -40 75 -103v0zM524 175q-16 -73 -72 -119v0v0q-55 -46 -132 -47
q-77 1 -132 47q-56 46 -72 119l-16 2v0v0v0q-13 2 -34 5q15 -95 85 -157t169 -64q99 2 169 64t85 158q-21 -4 -33 -6h-1v0l-16 -2v0zM576 216q16 3 30 7v0v0q14 5 21 11q13 14 13 32q0 19 -14 33t-32 14t-32 -12l-1 -1q-7 -7 -12 -24q-4 -16 -8 -34q-3 -19 -5 -32v-1h3l30 5
q2 0 4 1h3v1zM99 242q-4 18 -8 34v0v0q-5 17 -12 24v0l-1 1q-14 12 -32 12t-32 -14t-14 -33q0 -18 13 -32q7 -6 21 -11q14 -4 30 -7q3 -1 7 -2q21 -3 33 -5v3l-5 30v0zM320 280q76 -1 136 -24q-11 46 -48 75t-88 30q-51 -1 -88 -30t-49 -75q60 23 137 24v0zM240 113
q22 1 39 25v0v0q16 24 17 55q-1 -2 -17 -16q-17 -14 -39 -16q-22 2 -38 16q-17 14 -18 16q1 -31 18 -55q16 -24 38 -25v0zM344 193q1 -31 18 -55v0v0q16 -24 38 -25q22 1 39 25q16 24 17 55q-1 -2 -17 -16q-17 -14 -39 -16q-22 2 -38 16q-17 14 -18 16v0z" />
</svg>
