<?xml version="1.0" standalone="no"?>
<!DOCTYPE svg PUBLIC "-//W3C//DTD SVG 1.1//EN" "http://www.w3.org/Graphics/SVG/1.1/DTD/svg11.dtd" >
<svg xmlns="http://www.w3.org/2000/svg" xmlns:xlink="http://www.w3.org/1999/xlink" version="1.1" viewBox="-10 -40 532 512">
   <path fill="currentColor"
d="M464 217q-2 -88 -61 -147v0v0q-59 -59 -147 -61q-88 2 -147 61t-61 147q1 62 32 111t84 75q-4 -12 -4 -26v-23v0q-49 -37 -64 -98q70 28 160 29q90 -1 160 -29q-14 62 -64 98v23v0q0 14 -4 26q53 -26 84 -75t32 -111v0zM0 217q1 -70 34 -128v0v0q34 -58 94 -94
q61 -34 128 -34t128 34q60 36 94 94q33 58 34 128q-1 70 -34 128q-34 58 -94 94q-61 34 -128 34t-128 -34q-60 -36 -94 -94q-33 -58 -34 -128v0zM231 169l-119 64l119 -64l-119 64l46 -64v0l-46 -64v0l119 64v0zM400 105l-46 64l46 -64l-46 64l46 64v0l-119 -64v0l119 -64v0
zM256 441q27 -1 45 -19v0v0q18 -18 19 -45v-48v0h-48v0v24v0h-32v0v-24v0h-48v0v48v0q1 27 19 45t45 19v0z" />
</svg>
