<?xml version="1.0" standalone="no"?>
<!DOCTYPE svg PUBLIC "-//W3C//DTD SVG 1.1//EN" "http://www.w3.org/Graphics/SVG/1.1/DTD/svg11.dtd" >
<svg xmlns="http://www.w3.org/2000/svg" xmlns:xlink="http://www.w3.org/1999/xlink" version="1.1" viewBox="-10 -40 468 512">
   <path fill="currentColor"
d="M408 337v-48v48v-48h-48v0v48v0h48v0zM448 377h-40h40h-128v-40v0v-48v0v-40v0h40h88v40v0v48v0v40v0zM408 145v-48v48v-48h-48v0v48v0h48v0zM448 185h-40h40h-128v-40v0v-48v0v-40v0h40h88v40v0v48v0v40v0zM200 337h48h-48h48v-48v0h-48v0v48v0zM248 377h-48h48h-88v-40
v0v-48v0v-40v0h40h88v40v0v48v0v40v0h-40v0zM248 145v-48v48v-48h-48v0v48v0h48v0zM288 185h-40h40h-128v-40v0v-48v0v-40v0h40h88v40v0v48v0v40v0zM40 337h48h-48h48v-48v0h-48v0v48v0zM88 377h-48h48h-88v-40v0v-48v0v-40v0h40h88v40v0v48v0v40v0h-40v0zM88 145v-48v48
v-48h-48v0v48v0h48v0zM128 185h-40h40h-128v-40v0v-48v0v-40v0h40h88v40v0v48v0v40v0z" />
</svg>
