<?xml version="1.0" standalone="no"?>
<!DOCTYPE svg PUBLIC "-//W3C//DTD SVG 1.1//EN" "http://www.w3.org/Graphics/SVG/1.1/DTD/svg11.dtd" >
<svg xmlns="http://www.w3.org/2000/svg" xmlns:xlink="http://www.w3.org/1999/xlink" version="1.1" viewBox="-10 -40 340 512">
   <path fill="currentColor"
d="M40 401v-48v48v-48h48v0v48v0h-48v0zM0 441h40h-40h128v-40v0v-48v0v-40v0h-40h-88v40v0v48v0v40v0zM232 401v-48v48v-48h48v0v48v0h-48v0zM192 441h40h-40h128v-40v0v-48v0v-40v0h-40h-88v40v0v48v0v40v0zM40 193h48h-48h48v48v0h-48v0v-48v0zM0 241v40v-40v40h40h88
v-40v0v-48v0v-40v0h-40h-88v40v0v48v0zM232 241v-48v48v-48h48v0v48v0h-48v0zM192 281h40h-40h128v-40v0v-48v0v-40v0h-40h-88v40v0v48v0v40v0zM40 33h48h-48h48v48v0h-48v0v-48v0zM0 81v40v-40v40h40h88v-40v0v-48v0v-40v0h-40h-88v40v0v48v0zM232 81v-48v48v-48h48v0v48v0
h-48v0zM192 121h40h-40h128v-40v0v-48v0v-40v0h-40h-88v40v0v48v0v40v0z" />
</svg>
