<?xml version="1.0" standalone="no"?>
<!DOCTYPE svg PUBLIC "-//W3C//DTD SVG 1.1//EN" "http://www.w3.org/Graphics/SVG/1.1/DTD/svg11.dtd" >
<svg xmlns="http://www.w3.org/2000/svg" xmlns:xlink="http://www.w3.org/1999/xlink" version="1.1" viewBox="-10 -40 532 512">
   <path fill="currentColor"
d="M48 217q2 -88 61 -147v0v0q59 -59 147 -61q88 2 147 61t61 147v184v0h-144v0v-24v0h-80v0q-20 1 -34 14q-13 14 -14 34q1 20 14 34q14 13 34 14h80v0v-24v0h168h24v-24v0v-208v0q-1 -72 -35 -129q-34 -58 -92 -92q-57 -34 -129 -35q-72 1 -129 35q-58 34 -92 92
q-34 57 -35 129v40v0v24v0h48v0v-24v0v-40v0zM118 137l-7 7l7 -7l-7 7l-24 24v0l-7 7v0v10v0v56v0v80v0v24v0h24h104v-24v0v-160v0v-24v0h-24h-66zM128 195l10 -10l-10 10l10 -10h22v0v112v0h-32v0v-56v0v-46v0zM384 137h-56h56h-80v24v0v160v0v24v0h24h104v-24v0v-80v0v-56
v0v-10v0l-7 -7v0l-24 -24v0l-7 -7v0h-10v0zM374 185l10 10l-10 -10l10 10v46v0v56v0h-32v0v-112v0h22v0z" />
</svg>
