<?xml version="1.0" standalone="no"?>
<!DOCTYPE svg PUBLIC "-//W3C//DTD SVG 1.1//EN" "http://www.w3.org/Graphics/SVG/1.1/DTD/svg11.dtd" >
<svg xmlns="http://www.w3.org/2000/svg" xmlns:xlink="http://www.w3.org/1999/xlink" version="1.1" viewBox="-10 -40 586 512">
   <path fill="currentColor"
d="M184 277l-14 14l14 -14l-14 14l-38 38v0l52 52v0l38 -38v0l14 -14v0h20h47l17 -22v0l-113 -113v0l-23 16v0v47v0v20v0zM246 165l102 102l-102 -102l102 102l141 -197v0l-46 -46v0l-197 141v0zM136 185l312 -224l-312 224l312 -224l104 104v0l-224 312v0h-72v0l-38 38v0
l-34 34v0v0v0v0v0l-15 -15v0l-32 32v0l-7 7v0h-10h-120v-24v0v-16v0v-10v0l7 -7v0l72 -72v0l-15 -15v0l72 -72v0v-72v0zM113 378l-47 47l47 -47l-47 47h44v0l25 -25v0l-22 -22v0z" />
</svg>
