<?xml version="1.0" standalone="no"?>
<!DOCTYPE svg PUBLIC "-//W3C//DTD SVG 1.1//EN" "http://www.w3.org/Graphics/SVG/1.1/DTD/svg11.dtd" >
<svg xmlns="http://www.w3.org/2000/svg" xmlns:xlink="http://www.w3.org/1999/xlink" version="1.1" viewBox="-10 -40 533 512">
   <path fill="currentColor"
d="M339 408q-38 17 -83 17q-88 -2 -147 -61t-61 -147q2 -88 61 -147t147 -61q88 2 147 61t61 147q0 34 -10 64q5 7 8 15q19 -2 36 5q14 -40 14 -84q-1 -72 -35 -129q-34 -58 -92 -92q-57 -34 -129 -35q-72 1 -129 35q-58 34 -92 92q-34 57 -35 129q1 72 35 129q34 58 92 92
q57 34 129 35q51 0 95 -18l-2 -6v0l-10 -41v0zM296 277q-1 -11 -7 -18q-7 -8 -17 -14q-21 -11 -48 -12l-4 15v0v0v0v0v0v0v0v0v0v0v0h1v1h1q1 1 3 2q4 3 10 7q6 5 9 10q4 6 4 9t-4 9q-4 5 -9 10q-6 4 -10 7q-2 1 -3 2h-1v1h-1v0v0v0v0v0v0v0v0v0v0v14v0v0v0v0v0v0v0v0v0v0v0
h1v1h1q1 1 3 2q4 3 10 7q6 5 9 10q4 6 4 9t-4 9q-4 5 -9 10q-6 4 -10 7q-2 1 -3 2h-1v1h-1v0v0v0v0v0v0v0v0v0v0l4 15v0q27 -1 48 -12q10 -6 17 -14q6 -7 7 -18q-1 -10 -7 -18q-7 -8 -17 -14q-4 -2 -9 -4q5 -2 9 -4q10 -6 17 -14q6 -7 7 -18v0zM176 201q14 0 23 -9v0v0
q9 -9 9 -23t-9 -23t-23 -9q-13 0 -22 9t-10 23q1 14 10 23t22 9v0zM376 195l32 -23l-32 23l32 -23q-29 -37 -72 -37t-72 37l32 23v0q16 -20 40 -20q23 0 40 20v0zM434 313q-5 -17 -19 -26v0v0q-15 -9 -32 -4t-25 20q-9 15 -5 33l27 105v0l101 -28v0q17 -5 25 -20
q9 -16 5 -34q-5 -17 -20 -26q-14 -9 -32 -4l-20 5v0l-5 -21v0z" />
</svg>
