<?xml version="1.0" standalone="no"?>
<!DOCTYPE svg PUBLIC "-//W3C//DTD SVG 1.1//EN" "http://www.w3.org/Graphics/SVG/1.1/DTD/svg11.dtd" >
<svg xmlns="http://www.w3.org/2000/svg" xmlns:xlink="http://www.w3.org/1999/xlink" version="1.1" viewBox="-10 -40 596 512">
   <path fill="currentColor"
d="M408 81q-1 -51 -35 -85v0v0q-34 -34 -85 -35q-51 1 -85 35t-35 85q2 37 31 83t58 81q29 34 31 36q2 -2 31 -36q29 -35 58 -81t31 -83v0zM374 226q-11 15 -22 29v158v0l-128 -46v0v-112v0q-11 -13 -22 -29q-13 -18 -26 -38v178v0l-128 41v0v-251v0l97 -31v0q-9 -22 -9 -44
v-2v-1l-136 43v0v302v0v50v0l48 -15v0l152 -49v0l176 64v0l200 -64v0v-302v0v-50v0l-48 15v0l-90 29v0q-6 29 -20 55l-1 2v0l111 -35v0v251v0l-128 41v0v-227v0q-13 20 -26 38v0z" />
</svg>
