<?xml version="1.0" standalone="no"?>
<!DOCTYPE svg PUBLIC "-//W3C//DTD SVG 1.1//EN" "http://www.w3.org/Graphics/SVG/1.1/DTD/svg11.dtd" >
<svg xmlns="http://www.w3.org/2000/svg" xmlns:xlink="http://www.w3.org/1999/xlink" version="1.1" viewBox="-10 -40 660 512">
   <path fill="currentColor"
d="M24 -7h-24h24h-24v24v0v304v0v24v0h24h40q1 41 28 68t68 28q41 -1 68 -28t28 -68h128v0q1 41 28 68t68 28q41 -1 68 -28t28 -68h40h24v-24v0v-144v0v-9v0l-6 -6v0l-136 -160v0l-7 -9v0h-11h-456zM480 249q-27 0 -49 13v0v0q-21 13 -34 35h-154v0q-13 -22 -34 -35
q-22 -13 -49 -13t-49 13q-21 13 -34 35h-29v0v-96v0h152h392v96v0h-29v0q-13 -22 -34 -35q-22 -13 -49 -13v0zM48 153v-112v112v-112h128v0v112v0h-128v0zM224 153v-112v112v-112h112v0v112v0h-112v0zM384 153v-112v112v-112h85v0l95 112v0h-180v0zM432 345q1 -27 24 -42
q24 -12 48 0q23 15 24 42q-1 27 -24 42q-24 12 -48 0q-23 -15 -24 -42v0zM160 297q27 1 42 24q12 24 0 48q-15 23 -42 24q-27 -1 -42 -24q-12 -24 0 -48q15 -23 42 -24v0z" />
</svg>
