<?xml version="1.0" standalone="no"?>
<!DOCTYPE svg PUBLIC "-//W3C//DTD SVG 1.1//EN" "http://www.w3.org/Graphics/SVG/1.1/DTD/svg11.dtd" >
<svg xmlns="http://www.w3.org/2000/svg" xmlns:xlink="http://www.w3.org/1999/xlink" version="1.1" viewBox="-10 -40 532 512">
   <path fill="currentColor"
d="M464 217q0 -57 -28 -104v0v0q-27 -47 -76 -76q-49 -28 -104 -28t-104 28q-49 29 -76 76q-28 47 -28 104t28 104q27 47 76 76q49 28 104 28t104 -28q49 -29 76 -76q28 -47 28 -104v0zM0 217q1 -70 34 -128v0v0q34 -58 94 -94q61 -34 128 -34t128 34q60 36 94 94
q33 58 34 128q-1 70 -34 128q-34 58 -94 94q-61 34 -128 34t-128 -34q-60 -36 -94 -94q-33 -58 -34 -128v0zM124 294l40 -26l-40 26l40 -26q9 14 34 29q24 15 58 16q34 -1 58 -16q25 -15 34 -29l40 26v0q-16 24 -50 45q-35 21 -82 22q-47 -1 -82 -22q-34 -21 -50 -45v0z
M176 113q22 1 39 25v0v0q16 24 17 55q-1 -2 -17 -16q-17 -14 -39 -16q-22 2 -38 16q-17 14 -18 16q1 -31 18 -55q16 -24 38 -25v0zM280 193q1 -31 18 -55v0v0q16 -24 38 -25q22 1 39 25q16 24 17 55q-1 -2 -17 -16q-17 -14 -39 -16q-22 2 -38 16q-17 14 -18 16v0z" />
</svg>
