<?xml version="1.0" standalone="no"?>
<!DOCTYPE svg PUBLIC "-//W3C//DTD SVG 1.1//EN" "http://www.w3.org/Graphics/SVG/1.1/DTD/svg11.dtd" >
<svg xmlns="http://www.w3.org/2000/svg" xmlns:xlink="http://www.w3.org/1999/xlink" version="1.1" viewBox="-10 -40 596 512">
   <path fill="currentColor"
d="M572 230q-1 24 -6 49l-46 -17v0l-77 -28v0v0v0l-228 -83v0v0v0l-81 -30v0l-46 -16v0q12 -22 27 -42q52 -64 129 -87q78 -23 160 5q81 31 125 99q45 67 43 150v0zM473 85q1 53 -14 104l65 23v0q-4 -72 -51 -127v0zM396 30q-1 0 -1 -1v0v0q-4 -1 -8 -3q-1 0 -3 -1
q-29 -8 -51 14q-35 37 -56 84l136 49v0q14 -49 12 -100q-3 -29 -29 -42v0zM289 16q-74 10 -126 65l69 25v0q21 -50 57 -90v0zM552 425h24h-24h24v48v0h-24h-552v-48v0h24h193l77 -211v0l45 16v0l-71 195v0h284v0z" />
</svg>
