<?xml version="1.0" standalone="no"?>
<!DOCTYPE svg PUBLIC "-//W3C//DTD SVG 1.1//EN" "http://www.w3.org/Graphics/SVG/1.1/DTD/svg11.dtd" >
<svg xmlns="http://www.w3.org/2000/svg" xmlns:xlink="http://www.w3.org/1999/xlink" version="1.1" viewBox="-10 -40 522 512">
   <path fill="currentColor"
d="M90 383q5 7 24 10v0v0q20 2 56 -9q20 -7 42 -18q-29 -22 -56 -49t-49 -56q-11 22 -18 42q-11 36 -9 56q3 19 10 24v0zM77 217q-37 -63 -44 -116v0v0q-6 -54 23 -84q30 -29 84 -23q53 7 116 44q63 -37 116 -44q54 -6 84 23q29 30 23 84q-7 53 -44 116q37 63 44 116
q6 54 -23 84q-30 29 -84 23q-53 -7 -116 -44q-63 37 -116 44q-54 6 -84 -23q-29 -30 -23 -84q7 -53 44 -116v0zM107 173q22 -29 49 -56t56 -49q-22 -11 -42 -18q-36 -11 -56 -9q-19 3 -24 10q-7 5 -10 24q-2 20 9 56q7 20 18 42v0zM256 95q-33 23 -66 56t-56 66q23 33 56 66
t66 56q33 -23 66 -56t56 -66q-23 -33 -56 -66t-66 -56v0zM405 173q11 -22 18 -42q11 -36 9 -56q-3 -19 -10 -24q-5 -7 -24 -10q-20 -2 -56 9q-20 7 -42 18q29 22 56 49t49 56v0zM405 261q-22 29 -49 56t-56 49q22 11 42 18q36 11 56 9q19 -3 24 -10q7 -5 10 -24
q2 -20 -9 -56q-7 -20 -18 -42v0zM256 257l-40 -40l40 40l-40 -40l40 -40v0l40 40v0l-40 40v0z" />
</svg>
