<?xml version="1.0" standalone="no"?>
<!DOCTYPE svg PUBLIC "-//W3C//DTD SVG 1.1//EN" "http://www.w3.org/Graphics/SVG/1.1/DTD/svg11.dtd" >
<svg xmlns="http://www.w3.org/2000/svg" xmlns:xlink="http://www.w3.org/1999/xlink" version="1.1" viewBox="-10 -40 468 512">
   <path fill="currentColor"
d="M136 -39h24h-24h176v24v0v56v0h8v0q54 1 91 37q36 37 37 91v256v0v48v0h-48h-400v-48v0v-256v0q1 -54 37 -91q37 -36 91 -37h8v0v-56v0v-24v0zM128 425h192h-192h192v-64v0h-192v0v64v0zM368 425h32h-32h32v-256v0q-1 -34 -23 -57q-23 -22 -57 -23h-32h-160q-34 1 -57 23
q-22 23 -23 57v256v0h32v0v-88v0v-112v0v-24v0h24h264v24v0v112v0v88v0zM264 9h-80h80h-80v32v0h80v0v-32v0zM144 121h160h-160h184v48v0h-24h-184v-48v0h24v0zM320 313v-64v64v-64h-192v0v64v0h192v0z" />
</svg>
