<?xml version="1.0" standalone="no"?>
<!DOCTYPE svg PUBLIC "-//W3C//DTD SVG 1.1//EN" "http://www.w3.org/Graphics/SVG/1.1/DTD/svg11.dtd" >
<svg xmlns="http://www.w3.org/2000/svg" xmlns:xlink="http://www.w3.org/1999/xlink" version="1.1" viewBox="-10 -40 660 512">
   <path fill="currentColor"
d="M552 473h-24h24h-24l-61 -48v0h-51v0v-40v0l-85 -67v0q-28 11 -59 11q-68 -2 -113 -47t-47 -113q0 -11 2 -22l-42 -34v0q-8 27 -8 56q0 45 17 83t47 67v130v0v24v0h24h400v0v0zM571 382q5 -10 5 -21q-1 -20 -14 -34q-14 -13 -34 -14q-18 0 -31 11l-52 -40v0
q34 -50 35 -115q-2 -88 -61 -147t-147 -61q-46 0 -86 19q-39 18 -68 50l-70 -54v0l-19 -15v0l-29 38v0l19 15v0l573 444v0l19 15v0l29 -38v0l-19 -15v0l-50 -38v0zM156 59q45 -48 116 -50q68 2 113 47t47 113q-1 48 -25 85l-51 -39v0q12 -21 12 -46q-1 -41 -28 -68t-68 -28
q-39 1 -65 26l-51 -40v0zM317 185l-71 -56l71 56l-71 -56q11 -8 26 -8q20 1 34 14q13 14 14 34q0 8 -3 16v0zM336 425h-160h160h-160v-71v0q44 23 96 23q52 -1 96 -23v71v0h-32v0z" />
</svg>
