<?xml version="1.0" standalone="no"?>
<!DOCTYPE svg PUBLIC "-//W3C//DTD SVG 1.1//EN" "http://www.w3.org/Graphics/SVG/1.1/DTD/svg11.dtd" >
<svg xmlns="http://www.w3.org/2000/svg" xmlns:xlink="http://www.w3.org/1999/xlink" version="1.1" viewBox="-10 -40 660 512">
   <path fill="currentColor"
d="M344 -7v-24v24v-24h-48v0v24v0v72v0v24v0h48v0v-24v0v-72v0zM201 32l-17 -17l17 17l-17 -17l-34 34v0l17 17v0l48 48v0l17 17v0l34 -34v0l-17 -17v0l-48 -48v0zM473 66l17 -17l-17 17l17 -17l-34 -34v0l-17 17v0l-48 48v0l-17 17v0l34 34v0l17 -17v0l48 -48v0zM293 201
l-120 21l120 -21l-120 21q-10 -33 -38 -50q-27 -18 -62 -13q-37 8 -57 36q-20 29 -15 65q4 18 13 33q14 21 37 31q-18 18 -24 42q-4 17 -1 35q8 36 36 56q29 20 66 15q35 -7 55 -33t18 -60l119 -21v0l119 21v0q-2 34 18 60t55 33q37 5 65 -15q29 -20 37 -56q3 -18 -1 -35
q-6 -24 -24 -42q23 -10 36 -31q10 -15 13 -33q6 -36 -14 -65q-20 -28 -57 -36q-35 -5 -63 13q-27 17 -37 50l-120 -21v0l-6 47v0l161 29v0l12 -42v0q4 -15 17 -23q12 -8 28 -6q17 3 26 16t6 30q-4 20 -22 29l-17 8v0l-10 56v0l13 13v0q14 14 11 35q-3 16 -16 25t-30 7
q-16 -3 -25 -15t-8 -28l4 -43v0l-171 -30v0l-171 30v0l4 43v0q1 16 -8 28t-25 15q-17 2 -30 -7t-16 -26q-3 -20 11 -34l13 -13v0l-10 -56v0l-17 -8v0q-18 -9 -22 -29q-3 -17 6 -30t26 -16q16 -2 28 6q13 8 18 23l11 42v0l161 -29v0l-6 -47v0z" />
</svg>
