<?xml version="1.0" standalone="no"?>
<!DOCTYPE svg PUBLIC "-//W3C//DTD SVG 1.1//EN" "http://www.w3.org/Graphics/SVG/1.1/DTD/svg11.dtd" >
<svg xmlns="http://www.w3.org/2000/svg" xmlns:xlink="http://www.w3.org/1999/xlink" version="1.1" viewBox="-10 -40 532 512">
   <path fill="currentColor"
d="M80 25h128h-128h128v32v0h96v0v-32v0h128v0v32v0h32h48v48v0v256v0v48v0h-48h-464v-48v0v-256v0v-48v0h48h32v-32v0zM48 105v256v-256v256h416v0v-256v0h-416v0zM384 137v16v-16v16v32v0h32h16v32v0h-16h-32v32v0v16v0h-32v0v-16v0v-32v0h-32h-16v-32v0h16h32v-32v0v-16
v0h32v0zM96 185h96h-96h112v32v0h-16h-112v-32v0h16v0z" />
</svg>
