<?xml version="1.0" standalone="no"?>
<!DOCTYPE svg PUBLIC "-//W3C//DTD SVG 1.1//EN" "http://www.w3.org/Graphics/SVG/1.1/DTD/svg11.dtd" >
<svg xmlns="http://www.w3.org/2000/svg" xmlns:xlink="http://www.w3.org/1999/xlink" version="1.1" viewBox="-10 -40 652 512">
   <path fill="currentColor"
d="M331 -28l280 144l-280 -144l280 144l21 11v0l-22 42v0l-21 -11v0l-269 -138v0l-269 138v0l-21 11v0l-22 -42v0l21 -11v0l280 -144v0l11 -6v0l11 6v0zM199 121h17h-17h242l6 16v0l34 96v0h47v0v48v0v80v0v16v0v32v0v64v0h-48v0v-64v0h-320v0v64v0h-48v0v-64v0v-32v0v-16v0
v-80v0v-48v0h47v0l34 -96v0l6 -16v0zM407 169h-174h174h-174l-23 64v0h220v0l-23 -64v0zM480 281h-320h320h-320v80v0h320v0v-80v0zM208 297q22 2 24 24q-2 22 -24 24q-22 -2 -24 -24q2 -22 24 -24v0zM408 321q2 -22 24 -24q22 2 24 24q-2 22 -24 24q-22 -2 -24 -24v0z" />
</svg>
