<?xml version="1.0" standalone="no"?>
<!DOCTYPE svg PUBLIC "-//W3C//DTD SVG 1.1//EN" "http://www.w3.org/Graphics/SVG/1.1/DTD/svg11.dtd" >
<svg xmlns="http://www.w3.org/2000/svg" xmlns:xlink="http://www.w3.org/1999/xlink" version="1.1" viewBox="-10 -40 596 512">
   <path fill="currentColor"
d="M80 9v416v-416v416h192v0v-416v0h-192v0zM32 425v-416v416v-416v-48v0h48h240v48v0v208v0h8v0q37 1 62 26t26 62v28v0q0 12 8 20t20 8t20 -8t8 -20v-104v0q-25 -8 -40 -28q-16 -21 -16 -48v-40v0v-24v0h24h8v-48v0v-16v0h32v0v16v0v48v0h32v0v-48v0v-16v0h32v0v16v0v48v0
h8h24v24v0v40v0q0 27 -16 48q-15 20 -40 28v104v0q-1 32 -22 54q-22 21 -54 22q-32 -1 -54 -22q-21 -22 -22 -54v-28v0q0 -17 -12 -28q-11 -12 -28 -12h-8v0v160v0h32v0v48v0h-32h-320v-48v0h32v0zM464 153q0 14 9 23v0v0q9 9 23 9t23 -9t9 -23v-16v0h-64v0v16v0zM96 185
l128 -112l-128 112l128 -112l-23 80v0h55v0l-128 112v0l23 -80v0h-55v0z" />
</svg>
