<?xml version="1.0" standalone="no"?>
<!DOCTYPE svg PUBLIC "-//W3C//DTD SVG 1.1//EN" "http://www.w3.org/Graphics/SVG/1.1/DTD/svg11.dtd" >
<svg xmlns="http://www.w3.org/2000/svg" xmlns:xlink="http://www.w3.org/1999/xlink" version="1.1" viewBox="-10 -40 468 512">
   <path fill="currentColor"
d="M80 57q-1 15 -16 16q-15 -1 -16 -16q1 -15 16 -16q15 1 16 16v0zM64 -7q-27 1 -45 19v0v0q-18 18 -19 45q0 20 11 36t29 23v202v0q-18 7 -29 23t-11 36q1 27 19 45t45 19q20 0 36 -11t23 -29h202v0q7 18 23 29t36 11q27 -1 45 -19t19 -45q0 -20 -11 -36t-29 -23v-202v0
q18 -7 29 -23t11 -36q-1 -27 -19 -45t-45 -19q-20 0 -36 11t-23 29h-202v0q-7 -18 -23 -29t-36 -11v0zM360 318q-25 10 -35 35h-202v0q-10 -25 -35 -35v-202v0q25 -10 35 -35h202v0q10 25 35 35v202v0zM64 361q15 1 16 16q-1 15 -16 16q-15 -1 -16 -16q1 -15 16 -16v0z
M400 57q-1 15 -16 16q-15 -1 -16 -16q1 -15 16 -16q15 1 16 16v0zM384 361q15 1 16 16q-1 15 -16 16q-15 -1 -16 -16q1 -15 16 -16v0z" />
</svg>
