<?xml version="1.0" standalone="no"?>
<!DOCTYPE svg PUBLIC "-//W3C//DTD SVG 1.1//EN" "http://www.w3.org/Graphics/SVG/1.1/DTD/svg11.dtd" >
<svg xmlns="http://www.w3.org/2000/svg" xmlns:xlink="http://www.w3.org/1999/xlink" version="1.1" viewBox="-10 -40 596 512">
   <path fill="currentColor"
d="M576 33l-47 171l47 -171l-47 171l-134 -133v0l21 -78v0l160 40v0zM374 233h-37h37h-134v160v0h210v0l33 -121v0l-94 -94v0l-5 19v0l-10 36v0zM403 124l134 134l-134 -134l134 134l-50 183v0h-247h-48v-48v0v-160v0v-48v0h48h97l13 -46v0l14 -54v0l39 39v0zM0 217
q0 -14 9 -23v0v0q9 -9 23 -9t23 9t9 23t-9 23t-23 9t-23 -9t-9 -23v0zM0 313q0 -14 9 -23v0v0q9 -9 23 -9t23 9t9 23t-9 23t-23 9t-23 -9t-9 -23v0zM128 233q14 0 23 9v0v0q9 9 9 23t-9 23t-23 9t-23 -9t-9 -23t9 -23t23 -9v0zM0 409q0 -14 9 -23v0v0q9 -9 23 -9t23 9t9 23
t-9 23t-23 9t-23 -9t-9 -23v0zM128 329q14 0 23 9v0v0q9 9 9 23t-9 23t-23 9t-23 -9t-9 -23t9 -23t23 -9v0z" />
</svg>
