<?xml version="1.0" standalone="no"?>
<!DOCTYPE svg PUBLIC "-//W3C//DTD SVG 1.1//EN" "http://www.w3.org/Graphics/SVG/1.1/DTD/svg11.dtd" >
<svg xmlns="http://www.w3.org/2000/svg" xmlns:xlink="http://www.w3.org/1999/xlink" version="1.1" viewBox="-10 -40 596 512">
   <path fill="currentColor"
d="M288 165l-170 -76l170 76l-170 -76l170 -75v0l170 75v0l-170 76v0zM517 63l-229 -102l229 102l-229 -102l-229 102v0l-59 26v0l59 26v0l229 102v0l229 -102v0l59 -26v0l-59 -26v0zM164 197l-59 -27l59 27l-59 -27l-46 21v0l-59 26v0l59 26v0l229 102v0l229 -102v0l59 -26
v0l-59 -26v0l-46 -20v0l-59 26v0l46 20v0l-170 76v0l-170 -76v0l46 -20v0zM105 299l-46 20l46 -20l-46 20l-59 26v0l59 26v0l229 102v0l229 -102v0l59 -26v0l-59 -26v0l-46 -20v0l-59 26v0l46 20v0l-170 76v0l-170 -76v0l46 -20v0l-59 -26v0z" />
</svg>
