<?xml version="1.0" standalone="no"?>
<!DOCTYPE svg PUBLIC "-//W3C//DTD SVG 1.1//EN" "http://www.w3.org/Graphics/SVG/1.1/DTD/svg11.dtd" >
<svg xmlns="http://www.w3.org/2000/svg" xmlns:xlink="http://www.w3.org/1999/xlink" version="1.1" viewBox="-10 -40 660 512">
   <path fill="currentColor"
d="M48 -24l-19 -15l19 15l-19 -15l-29 38v0l19 15v0l573 444v0l19 15v0l29 -38v0l-19 -15v0l-77 -59v0v-320v0v-48v0h-48h-400v20v0l-48 -37v0zM144 50v-9v9v-9h352v0v282v0l-87 -67v0q30 -28 31 -71q-1 -41 -28 -68t-68 -28h-88h-24v24v0v5v0l-88 -68v0zM370 225l-90 -69
l90 69l-90 -69v-19v0h64v0q20 1 34 14q13 14 14 34q-1 27 -22 40v0zM427 393h-283h283h-283v-222v0l-48 -38v0v260v0v48v0h48h343l-60 -48v0zM280 281v-3v3v-3l-48 -38v0v41v0v40v0v24v0h48v0v-24v0v-8v0v-32v0z" />
</svg>
