<?xml version="1.0" standalone="no"?>
<!DOCTYPE svg PUBLIC "-//W3C//DTD SVG 1.1//EN" "http://www.w3.org/Graphics/SVG/1.1/DTD/svg11.dtd" >
<svg xmlns="http://www.w3.org/2000/svg" xmlns:xlink="http://www.w3.org/1999/xlink" version="1.1" viewBox="-10 -40 532 512">
   <path fill="currentColor"
d="M184 -15v-24v24v-24h-48v0v24v0v168v0v24v0h24h96v8v64v0q-1 31 -21 51t-51 21h-160h-24v8v0v16v0v8v0v96v0v24v0h24h24v-24v0v-72v0h64v0q14 0 31 11q12 8 26 20q0 1 1 1q2 2 5 4q4 3 8 7q23 20 56 36t81 17q82 -2 136 -56t56 -136v-96v0q-1 -54 -37 -91
q-37 -36 -91 -37q-38 1 -69 20q-30 20 -46 52h-85v0v-144v0zM202 373q-1 -1 -3 -2v0v0l-3 -3q35 -4 62 -24q26 -21 38 -53q18 -9 33 -7q18 4 41 15h1v0l1 1q22 11 52 17q18 3 36 -1q-13 48 -51 78q-37 30 -89 31q-35 -1 -61 -13q-25 -12 -46 -30q-5 -4 -11 -9v0v0v0v0v0v0z
M464 263q-18 9 -33 6q-18 -3 -41 -14l-1 -1v0h-1q-22 -11 -52 -17q-16 -2 -32 1v-53v0q1 -34 23 -57q23 -22 57 -23q34 1 57 23q22 23 23 57v78v0z" />
</svg>
