<?xml version="1.0" standalone="no"?>
<!DOCTYPE svg PUBLIC "-//W3C//DTD SVG 1.1//EN" "http://www.w3.org/Graphics/SVG/1.1/DTD/svg11.dtd" >
<svg xmlns="http://www.w3.org/2000/svg" xmlns:xlink="http://www.w3.org/1999/xlink" version="1.1" viewBox="-10 -40 596 512">
   <path fill="currentColor"
d="M528 9v77v-77v77q-26 -35 -72 -37q-23 0 -42 11q-26 -33 -70 -35q-33 1 -56 20q-23 -19 -56 -20q-44 2 -70 35q-19 -11 -42 -11q-46 2 -72 37v-77v0h480v0zM544 217h32h-32h32v-48v0v-160v0v-48v0h-48h-528v48v0v160v0v48v0h32h512zM496 169h-32h32h-80v-32v0q0 -9 3 -16
q2 -4 5 -8t8 -8q10 -8 24 -8q26 1 37 24q3 7 3 16v32v0zM384 169h-16h16h-80v-48v0v-8v0q0 -17 11 -28q12 -12 29 -12q24 1 35 21q5 9 5 19v8v0v16v0v32v0zM272 169h-16h16h-80v-32v0v-16v0v-8v0q0 -10 5 -19q11 -20 35 -21q17 0 29 12q11 11 11 28v8v0v48v0zM160 169h-16
h16h-80v-32v0q0 -9 3 -16q11 -23 37 -24q14 0 24 8q5 4 8 8t5 8q3 7 3 16v32v0zM32 249h-32h32h-32v48v0v128v0v48v0h48h528v-48v0v-128v0v-48v0h-32h-512zM528 372v53v-53v53h-480v0v-53v0q26 35 72 37q33 -1 56 -20q23 19 56 20q33 -1 56 -20q23 19 56 20q33 -1 56 -20
q23 19 56 20q46 -2 72 -37v0zM496 297v24v-24v24q0 14 -8 24q-12 15 -32 16q-17 0 -29 -12q-1 -2 -3 -4q-8 -10 -8 -24v-24v0h16h64zM384 297v24v-24v24q0 14 -8 24q-2 2 -3 4q-12 12 -29 12t-29 -12q-1 -2 -3 -4q-8 -10 -8 -24v-24v0h16h64zM272 297v24v-24v24q0 14 -8 24
q-2 2 -3 4q-12 12 -29 12t-29 -12q-2 -2 -3 -4q-8 -10 -8 -24v-24v0h16h64zM160 297v24v-24v24q0 14 -8 24q-2 2 -3 4q-12 12 -29 12q-20 -1 -32 -16q-8 -10 -8 -24v-24v0h32h48z" />
</svg>
