<?xml version="1.0" standalone="no"?>
<!DOCTYPE svg PUBLIC "-//W3C//DTD SVG 1.1//EN" "http://www.w3.org/Graphics/SVG/1.1/DTD/svg11.dtd" >
<svg xmlns="http://www.w3.org/2000/svg" xmlns:xlink="http://www.w3.org/1999/xlink" version="1.1" viewBox="-10 -40 660 512">
   <path fill="currentColor"
d="M248 -7h-24h24h-24v24v0v120v0h-144h-48v48v0v96v0h-8h-24v48v0h24h57q-1 8 -1 16q1 41 28 68t68 28q41 -1 68 -28t28 -68q0 -8 -1 -16h98v0q-1 8 -1 16q1 41 28 68t68 28q41 -1 68 -28t28 -68q0 -8 -1 -16h1h80v-48v0h-24h-8v-96v0v-48v0h-48h-52l-105 -135v0l-7 -9v0
h-12h-136zM560 281h-16h16h-24q-28 -31 -72 -32q-44 1 -72 32h-8h-136q-28 -31 -72 -32q-44 1 -72 32h-8h-16v-96v0h480v0v96v0zM447 137h-175h175h-175v-96v0h100v0l75 96v0zM128 345q1 -27 24 -42q24 -12 48 0q23 15 24 42q-1 27 -24 42q-24 12 -48 0q-23 -15 -24 -42v0z
M464 297q27 1 42 24q12 24 0 48q-15 23 -42 24q-27 -1 -42 -24q-12 -24 0 -48q15 -23 42 -24v0z" />
</svg>
