<?xml version="1.0" standalone="no"?>
<!DOCTYPE svg PUBLIC "-//W3C//DTD SVG 1.1//EN" "http://www.w3.org/Graphics/SVG/1.1/DTD/svg11.dtd" >
<svg xmlns="http://www.w3.org/2000/svg" xmlns:xlink="http://www.w3.org/1999/xlink" version="1.1" viewBox="-10 -40 532 512">
   <path fill="currentColor"
d="M256 425q88 -2 147 -61v0v0q59 -59 61 -147q-2 -88 -61 -147t-147 -61q-88 2 -147 61t-61 147q0 8 1 16l-47 14v0q-2 -15 -2 -30q1 -72 35 -129q34 -58 92 -92q57 -34 129 -35q72 1 129 35q58 34 92 92q34 57 35 129q-1 72 -35 129q-34 58 -92 92q-57 34 -129 35
q-15 0 -30 -2l14 -47v0q8 1 16 1v0zM254 377l14 -49l-14 49l14 -49q43 -5 71 -36t29 -75q-1 -48 -33 -79q-31 -32 -79 -33q-44 1 -75 29t-36 71l-49 14v0v-1v-1q2 -68 47 -113t113 -47q68 2 113 47t47 113q-2 68 -47 113t-113 47h-1h-1v0zM0 281l272 -80l-272 80l272 -80
l-80 272v0l-48 -96v0l-1 -1v0l-96 96v0l-46 -46v0l96 -96v0l-1 -1v0l-96 -48v0z" />
</svg>
