<?xml version="1.0" standalone="no"?>
<!DOCTYPE svg PUBLIC "-//W3C//DTD SVG 1.1//EN" "http://www.w3.org/Graphics/SVG/1.1/DTD/svg11.dtd" >
<svg xmlns="http://www.w3.org/2000/svg" xmlns:xlink="http://www.w3.org/1999/xlink" version="1.1" viewBox="-10 -40 532 512">
   <path fill="currentColor"
d="M160 473l48 -32l-48 32l48 -32l96 -64v0h160h48v-48v0v-320v0v-48v0h-48h-464v48v0v320v0v48v0h48h112v38v0v10v0v48v0zM277 337l-69 46l69 -46l-69 46v-6v0v-48v0h-48h-112v-320v0h416v0v320v0h-160h-14l-13 8v0zM276 73v-20v20v-20h-40v0v20v0v6v0q-8 2 -16 5
q-24 10 -31 38q-3 15 3 29q7 13 18 19q19 12 38 16l2 1v0q21 6 30 12q3 2 3 4q1 1 1 6q-1 6 -8 9q-10 5 -29 2q-11 -2 -26 -8v0v0q-4 -1 -7 -2l-19 -6v0l-12 38v0l19 6v0q1 1 4 2v0v0h1q14 5 29 9v6v0v20v0h40v0v-20v0v-5v0q8 -2 15 -5q25 -10 32 -39q3 -15 -3 -29t-17 -21
q-20 -12 -40 -17v0v0v0v0v0h-1v0q-21 -6 -30 -12q-4 -2 -4 -3v-5q0 -3 8 -8q10 -5 29 -3q4 1 11 2q7 2 11 2l19 6v0l10 -39v0l-19 -5v0q-9 -2 -21 -5v-6v0z" />
</svg>
