<?xml version="1.0" standalone="no"?>
<!DOCTYPE svg PUBLIC "-//W3C//DTD SVG 1.1//EN" "http://www.w3.org/Graphics/SVG/1.1/DTD/svg11.dtd" >
<svg xmlns="http://www.w3.org/2000/svg" xmlns:xlink="http://www.w3.org/1999/xlink" version="1.1" viewBox="-10 -40 532 512">
   <path fill="currentColor"
d="M102 349l11 -29l-11 29l11 -29l-22 -22v0q-42 -43 -43 -97q1 -62 57 -110q56 -47 151 -50q95 3 151 50q56 48 57 110q-1 62 -57 110q-56 47 -151 50q-40 0 -76 -11l-14 -4v0l-13 4v0l-58 17v0l7 -18v0zM16 441l58 -17l-58 17l58 -17l92 -28v0q42 13 90 13q72 -1 129 -28
q58 -28 92 -75t35 -105q-1 -58 -35 -105t-92 -75q-57 -27 -129 -28q-72 1 -129 28q-58 28 -92 75t-35 105q2 76 57 131l-20 53v0l-21 56v0zM276 105v-20v20v-20h-40v0v20v0v6v0q-8 2 -16 5q-24 10 -31 38q-3 15 3 29q7 13 18 19q19 12 38 16l2 1v0q21 6 30 12q3 2 3 4
q1 1 1 6q-1 6 -8 9q-10 5 -29 2q-11 -2 -26 -8v0v0q-4 -1 -7 -2l-19 -6v0l-12 38v0l19 6v0q1 1 4 2v0v0h1q14 5 29 9v6v0v20v0h40v0v-20v0v-5v0q8 -2 15 -5q25 -10 32 -39q3 -15 -3 -29t-17 -21q-20 -12 -40 -17v0v0v0v0v0h-1v0q-21 -6 -30 -12q-4 -2 -4 -3v-5q0 -3 8 -8
q10 -5 29 -3q4 1 11 2q7 2 11 2l19 6v0l10 -39v0l-19 -5v0q-9 -2 -21 -5v-6v0z" />
</svg>
