<?xml version="1.0" standalone="no"?>
<!DOCTYPE svg PUBLIC "-//W3C//DTD SVG 1.1//EN" "http://www.w3.org/Graphics/SVG/1.1/DTD/svg11.dtd" >
<svg xmlns="http://www.w3.org/2000/svg" xmlns:xlink="http://www.w3.org/1999/xlink" version="1.1" viewBox="-10 -40 404 512">
   <path fill="currentColor"
d="M48 9h176h-176h176v112v0h112v0v304v0h-288v0v-416v0zM256 -39h-208h208h-256v48v0v416v0v48v0h48h336v-48v0v-336v0l-128 -128v0zM176 217v48v-48v48h-64v0v-48v0h64v0zM112 297h64h-64h64v48v0h-64v0v-48v0zM208 297h64h-64h64v48v0h-64v0v-48v0zM192 377h16h-16h112
v-32v0v-48v0v-16v0v-16v0v-48v0v-32v0h-32h-192v32v0v48v0v16v0v16v0v48v0v32v0h32h80zM208 265v-48v48v-48h64v0v48v0h-64v0z" />
</svg>
