<?xml version="1.0" standalone="no"?>
<!DOCTYPE svg PUBLIC "-//W3C//DTD SVG 1.1//EN" "http://www.w3.org/Graphics/SVG/1.1/DTD/svg11.dtd" >
<svg xmlns="http://www.w3.org/2000/svg" xmlns:xlink="http://www.w3.org/1999/xlink" version="1.1" viewBox="-10 -40 532 512">
   <path fill="currentColor"
d="M304 -39h-112h112h-112v24v0h-8v0q-37 1 -62 26t-26 62v48v0h-32v0l-64 96v0v48v0v48v0h48h464v-48v0v-48v0l-64 -96v0h-304v0v-48v0q0 -17 12 -28q11 -12 28 -12h8v0v24v0h112v0q20 -1 34 -14q13 -14 14 -34q-1 -20 -14 -34q-14 -13 -34 -14v0zM90 169h332h-332h332
l42 63v0v33v0h-416v0v-33v0l42 -63v0zM128 425v48v-48v48h24h232v-48v0h-24h-80v-80v0h-48v0v80v0h-80h-24z" />
</svg>
