<?xml version="1.0" standalone="no"?>
<!DOCTYPE svg PUBLIC "-//W3C//DTD SVG 1.1//EN" "http://www.w3.org/Graphics/SVG/1.1/DTD/svg11.dtd" >
<svg xmlns="http://www.w3.org/2000/svg" xmlns:xlink="http://www.w3.org/1999/xlink" version="1.1" viewBox="-10 -40 394 512">
   <path fill="currentColor"
d="M320 137q-1 41 -23 73q-4 5 -8 12l-4 6v0v0v0v0v0v0v0v0q-21 27 -40 59q-15 29 -19 58h49v0q3 -18 12 -35q15 -26 34 -51v0v0v0v0v0v0l16 -22q30 -43 31 -100q-2 -75 -52 -124q-49 -50 -124 -52q-75 2 -124 52q-50 49 -52 124q1 57 31 100q8 11 16 21v1v0v0v0v0
q19 25 34 51q9 17 12 35h49v0q-4 -29 -19 -58q-18 -32 -39 -59v0v0q-7 -10 -13 -18v0q-22 -32 -23 -73q1 -54 37 -91q37 -36 91 -37q54 1 91 37q36 37 37 91v0zM112 377v96v-96v96h160v0v-96v0h-160v0zM208 73h-32h32h-32v16v0v80v0v16v0h32v0v-16v0v-80v0v-16v0zM176 217
v32v-32v32h32v0v-32v0h-32v0z" />
</svg>
