<?xml version="1.0" standalone="no"?>
<!DOCTYPE svg PUBLIC "-//W3C//DTD SVG 1.1//EN" "http://www.w3.org/Graphics/SVG/1.1/DTD/svg11.dtd" >
<svg xmlns="http://www.w3.org/2000/svg" xmlns:xlink="http://www.w3.org/1999/xlink" version="1.1" viewBox="-10 -40 660 512">
   <path fill="currentColor"
d="M4 10l28 -49l-28 49l28 -49l28 49v0q4 7 4 15q0 14 -9 23t-23 9v0v0q-14 0 -23 -9t-9 -23q0 -8 4 -15v0zM100 10l28 -49l-28 49l28 -49l28 49v0q4 7 4 15q0 14 -9 23t-23 9v0v0q-14 0 -23 -9t-9 -23q0 -8 4 -15v0zM224 -39l28 49l-28 -49l28 49q4 7 4 15q0 14 -9 23
t-23 9v0v0q-14 0 -23 -9t-9 -23q0 -8 4 -15l28 -49v0zM292 10l28 -49l-28 49l28 -49l28 49v0q4 7 4 15q0 14 -9 23t-23 9v0v0q-14 0 -23 -9t-9 -23q0 -8 4 -15v0zM416 -39l28 49l-28 -49l28 49q4 7 4 15q0 14 -9 23t-23 9v0v0q-14 0 -23 -9t-9 -23q0 -8 4 -15l28 -49v0z
M484 10l28 -49l-28 49l28 -49l28 49v0q4 7 4 15q0 14 -9 23t-23 9v0v0q-14 0 -23 -9t-9 -23q0 -8 4 -15v0zM608 -39l28 49l-28 -49l28 49q4 7 4 15q0 14 -9 23t-23 9v0v0q-14 0 -23 -9t-9 -23q0 -8 4 -15l28 -49v0zM48 89v24v-24v24v128v0q0 17 12 28q11 12 28 12h208v0
v-168v0v-24v0h48v0v24v0v168v0h208v0q17 0 28 -12q12 -11 12 -28v-128v0v-24v0h48v0v24v0v128v0q-1 37 -26 62t-62 26h-208v0v96v0h144h24v48v0h-24h-360v-48v0h24h144v-96v0h-208v0q-37 -1 -62 -26t-26 -62v-128v0v-24v0h48v0zM152 113v136v-136v136h-48v0v-136v0v-24v0h48
v0v24v0zM248 113v136v-136v136h-48v0v-136v0v-24v0h48v0v24v0zM440 113v136v-136v136h-48v0v-136v0v-24v0h48v0v24v0zM536 113v136v-136v136h-48v0v-136v0v-24v0h48v0v24v0z" />
</svg>
