<?xml version="1.0" standalone="no"?>
<!DOCTYPE svg PUBLIC "-//W3C//DTD SVG 1.1//EN" "http://www.w3.org/Graphics/SVG/1.1/DTD/svg11.dtd" >
<svg xmlns="http://www.w3.org/2000/svg" xmlns:xlink="http://www.w3.org/1999/xlink" version="1.1" viewBox="-10 -40 532 512">
   <path fill="currentColor"
d="M368 -39l-32 32l32 -32l-32 32l32 32v0l32 -32v0l-32 -32v0zM392 161h-10h10h-10l-7 7v0l-57 57v0h-86v0q16 -25 16 -56q-1 -44 -30 -74q-30 -29 -74 -30q-36 1 -62 21l28 38v0q15 -11 34 -11q24 1 40 16q15 16 16 40q-1 24 -16 40q-16 15 -40 16h-56v0l24 48v0h32h12
q32 1 54 22q21 22 22 54q-1 32 -22 53q-21 22 -52 23q-55 -2 -86 -25q-31 -24 -44 -46q-12 -23 -12 -25v0q-2 3 2 37q3 34 33 69q29 34 105 38v0v0h1h1h1h1v0v0q51 -3 85 -38q34 -34 35 -86q-1 -44 -26 -76h74h10l7 -7v0l57 -57v0h22v0q17 0 28 12q12 11 12 28v112v0
q0 14 -9 23t-23 9q-47 -3 -64 -24t-16 -24v48v0q-1 1 3 12q4 12 21 24q17 11 56 12q34 -1 57 -23q22 -23 23 -57v-112v0q-1 -37 -26 -62t-62 -26h-32v0zM480 73v-48v48v-48q-1 1 -19 8q-18 8 -44 16q-25 7 -49 8q-24 -1 -49 -8q-26 -8 -44 -16q-18 -7 -19 -8q-1 1 8 21
q9 19 35 38q26 20 77 21q54 -2 79 -16t25 -16v0z" />
</svg>
