<?xml version="1.0" standalone="no"?>
<!DOCTYPE svg PUBLIC "-//W3C//DTD SVG 1.1//EN" "http://www.w3.org/Graphics/SVG/1.1/DTD/svg11.dtd" >
<svg xmlns="http://www.w3.org/2000/svg" xmlns:xlink="http://www.w3.org/1999/xlink" version="1.1" viewBox="-10 -40 468 512">
   <path fill="currentColor"
d="M176 -39h112h-112h112q20 1 34 14q13 14 14 34q-1 20 -14 34q-14 13 -34 14h-112v0v-24v0h-8v0q-17 0 -28 12q-12 11 -12 28v32v0h296h24v48v0h-24h-424v-48v0h24h56v-32v0q1 -37 26 -62t62 -26h8v0v-24v0zM80 473l-33 -288l33 288l-33 -288h49v0l27 240v0h202v0l27 -240
v0h49v0l-33 288v0h-288v0z" />
</svg>
