<?xml version="1.0" standalone="no"?>
<!DOCTYPE svg PUBLIC "-//W3C//DTD SVG 1.1//EN" "http://www.w3.org/Graphics/SVG/1.1/DTD/svg11.dtd" >
<svg xmlns="http://www.w3.org/2000/svg" xmlns:xlink="http://www.w3.org/1999/xlink" version="1.1" viewBox="-10 -40 468 512">
   <path fill="currentColor"
d="M48 41v352v-352v352h352v0v-352v0h-352v0zM0 -7h48h-48h448v48v0v352v0v48v0h-48h-400v-48v0v-352v0v-48v0zM152 185v160v-160v160h-48v0v-160v0h48v0zM200 89h48h-48h48v256v0h-48v0v-256v0zM344 249v96v-96v96h-48v0v-96v0h48v0z" />
</svg>
