<?xml version="1.0" standalone="no"?>
<!DOCTYPE svg PUBLIC "-//W3C//DTD SVG 1.1//EN" "http://www.w3.org/Graphics/SVG/1.1/DTD/svg11.dtd" >
<svg xmlns="http://www.w3.org/2000/svg" xmlns:xlink="http://www.w3.org/1999/xlink" version="1.1" viewBox="-10 -40 532 512">
   <path fill="currentColor"
d="M208 9q43 0 80 21v0v0q37 22 59 59q21 38 21 80t-21 80q-22 37 -59 59q-37 21 -80 21t-80 -21q-37 -22 -59 -59q-21 -38 -21 -80t21 -80q22 -37 59 -59q37 -21 80 -21v0zM208 377q75 -1 129 -45l124 124v0l17 17v0l34 -34v0l-17 -17v0l-124 -124v0q44 -54 45 -129
q-2 -88 -61 -147t-147 -61q-88 2 -147 61t-61 147q2 88 61 147t147 61v0zM228 73v-20v20v-20h-40v0v20v0v6v0q-9 2 -16 5q-24 10 -31 38q-3 15 3 29q7 13 18 19q19 12 38 16l2 1v0q21 6 30 12q3 2 3 4q1 1 1 6q-1 6 -8 9q-10 5 -29 2q-11 -2 -26 -8v0v0v0v0q-4 -1 -7 -2
l-19 -6v0l-12 38v0l19 6v0q1 1 4 2q14 5 30 9v6v0v20v0h40v0v-20v0v-5v0q8 -2 15 -5q26 -10 32 -39q3 -15 -3 -29t-17 -21q-20 -12 -40 -17v0h-1v0q-21 -6 -30 -12q-4 -2 -4 -3v-5q0 -3 8 -8q10 -5 29 -3q4 1 11 2q7 2 11 2l19 6v0l10 -39v0l-19 -5v0q-9 -2 -21 -5v-6v0z
" />
</svg>
