<?xml version="1.0" standalone="no"?>
<!DOCTYPE svg PUBLIC "-//W3C//DTD SVG 1.1//EN" "http://www.w3.org/Graphics/SVG/1.1/DTD/svg11.dtd" >
<svg xmlns="http://www.w3.org/2000/svg" xmlns:xlink="http://www.w3.org/1999/xlink" version="1.1" viewBox="-10 -40 532 512">
   <path fill="currentColor"
d="M208 9q43 0 80 21v0v0q37 22 59 59q21 38 21 80t-21 80q-22 37 -59 59q-37 21 -80 21t-80 -21q-37 -22 -59 -59q-21 -38 -21 -80t21 -80q22 -37 59 -59q37 -21 80 -21v0zM208 377q75 -1 129 -45l124 124v0l17 17v0l34 -34v0l-17 -17v0l-124 -124v0q44 -54 45 -129
q-2 -88 -61 -147t-147 -61q-88 2 -147 61t-61 147q2 88 61 147t147 61v0zM288 137q-1 -34 -23 -57v0v0q-23 -22 -57 -23q-34 1 -57 23q-22 23 -23 57q1 33 21 66q19 33 38 55q20 22 21 23q1 -1 21 -23q19 -22 38 -55q20 -33 21 -66v0zM176 137q0 -14 9 -23v0v0q9 -9 23 -9
t23 9t9 23t-9 23t-23 9t-23 -9t-9 -23v0z" />
</svg>
