<?xml version="1.0" standalone="no"?>
<!DOCTYPE svg PUBLIC "-//W3C//DTD SVG 1.1//EN" "http://www.w3.org/Graphics/SVG/1.1/DTD/svg11.dtd" >
<svg xmlns="http://www.w3.org/2000/svg" xmlns:xlink="http://www.w3.org/1999/xlink" version="1.1" viewBox="-10 -40 650 512">
   <path fill="currentColor"
d="M224 265v160v-160v160h32v0v-160v0h-32v0zM176 217h48h-48h128v48v0v160v0v48v0h-48h-80v-48v0v-160v0v-48v0zM64 393v32v-32v32h32v0v-32v0h-32v0zM16 345h48h-48h128v48v0v32v0v48v0h-48h-80v-48v0v-32v0v-48v0z" />
</svg>
