<?xml version="1.0" standalone="no"?>
<!DOCTYPE svg PUBLIC "-//W3C//DTD SVG 1.1//EN" "http://www.w3.org/Graphics/SVG/1.1/DTD/svg11.dtd" >
<svg xmlns="http://www.w3.org/2000/svg" xmlns:xlink="http://www.w3.org/1999/xlink" version="1.1" viewBox="-10 -40 532 512">
   <path fill="currentColor"
d="M288 -39h-112h112h-160v48v0v48v0v24v0v24v0v128v0l-90 67v0q-37 30 -38 77q1 41 28 68t68 28q32 0 58 -19l21 -16v0q-12 -23 -14 -49l-36 26v0q-13 10 -29 10q-20 -1 -34 -14q-13 -14 -14 -34q1 -24 19 -38l-29 -39v0l29 39v0l90 -68v0l19 -14v0v-24v0v-128v0h112v0v-24
v0v-24v0h-112v0v-48v0h112v0v-48v0zM368 105h96h-96h96v200v0l-147 110v0q-13 10 -29 10q-20 -1 -34 -14q-13 -14 -14 -34q1 -24 19 -38l90 -68v0l19 -14v0v-24v0v-128v0zM320 233l-90 67l90 -67l-90 67q-37 30 -38 77q1 41 28 68t68 28q32 0 58 -19l166 -125v0v-224v0v-24
v0v-24v0v-48v0v-48v0h-48h-144v48v0v48v0v24v0v24v0v128v0zM368 57v-48v48v-48h96v0v48v0h-96v0z" />
</svg>
