<?xml version="1.0" standalone="no"?>
<!DOCTYPE svg PUBLIC "-//W3C//DTD SVG 1.1//EN" "http://www.w3.org/Graphics/SVG/1.1/DTD/svg11.dtd" >
<svg xmlns="http://www.w3.org/2000/svg" xmlns:xlink="http://www.w3.org/1999/xlink" version="1.1" viewBox="-10 -40 660 512">
   <path fill="currentColor"
d="M334 -27l-14 -9l14 9l-14 -9l-14 9v0q-36 25 -79 41q-44 16 -89 28l-10 3v0v49v0l22 -6v0l10 -2v49v0q-48 44 -112 58l-5 1v0l-11 2v0v49v0v4v0h24h40v40v0v9v0q-35 43 -89 60l-7 2v0v49v0h64v0v0v0v40v0v24v0v0v0h48v0v-24v0v-40v0h184v0v40v0v24v0h48v0v-24v0v-40v0
h184v0v40v0v24v0h48v0v0v0v-24v0v-40v0v0v0h64v0v-49v0l-7 -2v0q-54 -17 -89 -60v-9v0v-40v0h40h24v-6v0v-49v0l-4 -1v0l-10 -1v0q-65 -13 -114 -57v-49v0l10 2l22 6v0v-49v0l-10 -3v0q-45 -12 -89 -28q-43 -16 -79 -41v0zM496 249v32v-32v32h-152h-200v-32v0h152h200z
M432 71v1v0v0v1v48v0h-88h-136v-48v0v-2q59 -18 112 -49q53 32 112 49v0zM488 201h-144h144h-335q22 -14 41 -32h102h150q19 18 42 32v0zM508 329q14 18 31 32h-195h-243q17 -14 31 -32h164h212z" />
</svg>
