<?xml version="1.0" standalone="no"?>
<!DOCTYPE svg PUBLIC "-//W3C//DTD SVG 1.1//EN" "http://www.w3.org/Graphics/SVG/1.1/DTD/svg11.dtd" >
<svg xmlns="http://www.w3.org/2000/svg" xmlns:xlink="http://www.w3.org/1999/xlink" version="1.1" viewBox="-10 -40 468 512">
   <path fill="currentColor"
d="M260 9l13 -19l-13 19l13 -19l-39 -28v0l-14 20v0q-13 20 -18 43h-106v0q-41 1 -68 28t-28 68v48v0h48h400v-48v0q-1 -41 -28 -68t-68 -28h-100v0q3 -8 8 -16v0zM352 73q20 1 34 14v0v0q13 14 14 34h-352v0q1 -20 14 -34q14 -13 34 -14h256v0zM48 201q2 41 18 88v0v0
q16 47 54 88v0v0q37 41 104 64q67 -23 104 -64q38 -41 54 -88t18 -88h-48v0q-2 51 -30 104q-28 54 -98 85q-70 -31 -98 -85q-28 -53 -29 -104h-49v0z" />
</svg>
