<?xml version="1.0" standalone="no"?>
<!DOCTYPE svg PUBLIC "-//W3C//DTD SVG 1.1//EN" "http://www.w3.org/Graphics/SVG/1.1/DTD/svg11.dtd" >
<svg xmlns="http://www.w3.org/2000/svg" xmlns:xlink="http://www.w3.org/1999/xlink" version="1.1" viewBox="-10 -40 532 512">
   <path fill="currentColor"
d="M160 16v9v-9v9h9v0q23 -1 39 -16q15 -16 16 -39v-9v0h-9v0q-23 1 -39 16q-15 16 -16 39v0zM352 16v9v-9v9h9v0q23 -1 39 -16q15 -16 16 -39v-9v0h-9v0q-23 1 -39 16q-15 16 -16 39v0zM160 59l-64 -18l64 18l-64 -18q-33 2 -48 29q-16 28 -16 62q0 11 1 21h49v0
q-2 -10 -2 -21q1 -24 9 -37q2 -4 4 -5l54 15v0l13 4v0l13 -4v0l54 -15v0q2 1 4 5q8 13 9 37q0 11 -2 21h49v0q1 -10 1 -21q0 -34 -16 -62q-15 -27 -48 -29l-64 18v0zM480 132q0 -34 -16 -62v0v0q-15 -27 -48 -29l-64 18v0l-61 -17v0q5 6 9 12q12 21 17 45l22 7v0l13 3v0
l13 -3v0l54 -16v0q2 1 4 5q8 13 9 37q0 11 -2 21h49v0q1 -10 1 -21v0zM464 233v72v-72v72h-416v0v-72v0h416v0zM48 425v-72v72v-72h416v0v72v0h-416v0zM48 185h-48h48h-48v48v0v192v0v48v0h48h464v-48v0v-192v0v-48v0h-48h-416zM416 281q15 -1 16 -16q-1 -15 -16 -16
q-15 1 -16 16q1 15 16 16v0zM432 393q-1 -15 -16 -16q-15 1 -16 16q1 15 16 16q15 -1 16 -16v0zM96 281q15 -1 16 -16q-1 -15 -16 -16q-15 1 -16 16q1 15 16 16v0zM112 393q-1 -15 -16 -16q-15 1 -16 16q1 15 16 16q15 -1 16 -16v0z" />
</svg>
