<?xml version="1.0" standalone="no"?>
<!DOCTYPE svg PUBLIC "-//W3C//DTD SVG 1.1//EN" "http://www.w3.org/Graphics/SVG/1.1/DTD/svg11.dtd" >
<svg xmlns="http://www.w3.org/2000/svg" xmlns:xlink="http://www.w3.org/1999/xlink" version="1.1" viewBox="-10 -40 660 512">
   <path fill="currentColor"
d="M426 25h6h-6h75l5 2v0l120 56v0l14 7v0v15v0v48v0v10v0l-7 7v0l-32 32v0l-7 7v0h-4v0l-30 48v0l-26 -42v0q-60 15 -104 45l26 153v0l4 28v0h-28h-116l-4 -20v0l-18 -108v0h-74v0l-10 25v0l21 72v0l9 31v0h-32h-114l-5 -17v0l-24 -80v0l-2 -7v0l2 -7v0l8 -29v0
q-13 -7 -25 -16v4v0v24v0h-48v0v-24v0v-104v0q1 -54 37 -91q37 -36 91 -37h234v0l59 -29v0l5 -3v0zM48 185q1 29 17 50v0v0q17 21 43 28l24 6v0l-6 23v0l-13 45v0l17 56v0h46v0l-15 -49v0l-2 -8v0l3 -8v0l21 -48v0l6 -15v0h16h130l3 20v0l18 108v0h48v0l-24 -140v0l-2 -14v0
l12 -9v0q33 -25 81 -45q47 -21 103 -24l18 -18v0v-6v0h-80v0q-4 15 -20 16q-16 -1 -20 -16h-52v0l-156 94v0l-4 2v0h-4h-32q-53 -1 -91 -33q-39 -31 -50 -81q-33 23 -35 66v0zM113 106q7 41 38 68v0v0q30 26 73 27h28v0l156 -94v0l4 -2v0h4h143l-68 -32v0h-53v0l-59 30v0
l-5 2v0h-6h-240q-7 0 -15 1v0z" />
</svg>
