<?xml version="1.0" standalone="no"?>
<!DOCTYPE svg PUBLIC "-//W3C//DTD SVG 1.1//EN" "http://www.w3.org/Graphics/SVG/1.1/DTD/svg11.dtd" >
<svg xmlns="http://www.w3.org/2000/svg" xmlns:xlink="http://www.w3.org/1999/xlink" version="1.1" viewBox="-10 -40 468 512">
   <path fill="currentColor"
d="M160 105q14 0 23 -9v0v0q9 -9 9 -23v0v0q1 -1 -6 -13q-8 -14 -21 -29q-2 -1 -3 -2t-2 -3q-1 2 -2 3l-2 2q-14 15 -22 29q-6 11 -6 13v0v0q0 14 9 23t23 9v0zM160 -39q1 1 21 18v0v0q19 18 38 44v0v0q20 25 21 50q-1 34 -23 57q-23 22 -57 23q-34 -1 -57 -23
q-22 -23 -23 -57q1 -25 21 -50q19 -26 38 -44q20 -17 21 -18v0zM0 425h24h-24h48v-192v0v-48v0h48h176v48v0v192v0h36v0q-4 -11 -4 -24q1 -31 21 -51t51 -21q31 1 51 21t21 51q-1 31 -21 51t-51 21v0v0v0v0h-104h-272v-48v0zM224 233h-48h48h-48v56v0v24v0h-48v0v-24v0v-56
v0h-32v0v192v0h128v0v-192v0zM376 425q22 -2 24 -24q-2 -22 -24 -24q-22 2 -24 24q2 22 24 24v0z" />
</svg>
