<?xml version="1.0" standalone="no"?>
<!DOCTYPE svg PUBLIC "-//W3C//DTD SVG 1.1//EN" "http://www.w3.org/Graphics/SVG/1.1/DTD/svg11.dtd" >
<svg xmlns="http://www.w3.org/2000/svg" xmlns:xlink="http://www.w3.org/1999/xlink" version="1.1" viewBox="-10 -40 468 512">
   <path fill="currentColor"
d="M296 9v176v-176v176h-48v0v-176v0h-48v0v176v0h-48v0v-176v0h-40v0v176v0h-48v0v-176v0v-48v0h48h272v48v0v176v0h-48v0v-176v0h-40v0zM0 329l7 -16l-7 16l7 -16l41 -96v0h352v0l41 96v0l7 16v0v32v0h-32v0v88v0v24v0h-48v0v-24v0v-88v0h-288v0v88v0v24v0h-48v0v-24v0
v-88v0h-32v0v-32v0zM80 265l-21 48l21 -48l-21 48h330v0l-21 -48v0h-288v0z" />
</svg>
