<?xml version="1.0" standalone="no"?>
<!DOCTYPE svg PUBLIC "-//W3C//DTD SVG 1.1//EN" "http://www.w3.org/Graphics/SVG/1.1/DTD/svg11.dtd" >
<svg xmlns="http://www.w3.org/2000/svg" xmlns:xlink="http://www.w3.org/1999/xlink" version="1.1" viewBox="-10 -40 655 512">
   <path fill="currentColor"
d="M550 -14q-46 13 -76 50v0v0q-29 38 -30 89q2 61 42 102q41 40 102 42q25 0 47 -8q-25 32 -60 50q-36 18 -79 18q-20 0 -39 -4q-16 -21 -41 -33q-3 -41 -28 -69q-26 -29 -65 -36q-3 -17 -3 -34q2 -75 51 -124q50 -50 125 -52q29 0 54 9v0zM177 233q-21 1 -34 14v0v0
q-14 14 -14 34v24v0v24v0h-24h-9q-20 1 -34 14q-13 14 -14 34v48v0h33h31v0v0h137v0v0v0h88v0v0v0h24h39v-32v0q0 -14 -9 -23t-23 -9h-7h-24v-24v0v-40v0q-1 -14 -10 -23t-22 -9q-24 2 -31 24h-49v0v-8v0q-1 -20 -14 -34q-14 -13 -34 -14v0zM385 473v0v0v0h-24h-112v0v0
h-144h-56v0v0h-25h-24v-24v0v-72v0q1 -37 23 -63q23 -25 58 -32v-1v0q1 -41 28 -68t68 -28q26 0 47 13q22 12 35 33q20 -14 46 -14q34 1 56 23q23 23 24 57v18v0q27 6 45 27q17 22 18 51v56v0v24v0h-24h-39z" />
</svg>
