<?xml version="1.0" standalone="no"?>
<!DOCTYPE svg PUBLIC "-//W3C//DTD SVG 1.1//EN" "http://www.w3.org/Graphics/SVG/1.1/DTD/svg11.dtd" >
<svg xmlns="http://www.w3.org/2000/svg" xmlns:xlink="http://www.w3.org/1999/xlink" version="1.1" viewBox="-10 -40 532 512">
   <path fill="currentColor"
d="M441 253q15 -19 15 -44v-1v-1q23 -21 24 -54v-1v-1q23 -21 24 -54q0 -13 -4 -24q12 -17 12 -40q-1 -31 -21 -51t-51 -21q-22 0 -40 12q-11 -4 -24 -4q-33 1 -54 24h-1h-1q-33 1 -54 24h-1h-1q-28 1 -47 18l9 9v0q13 12 22 27q7 -6 16 -6q4 0 7 1l19 5v0l9 -17v0
q6 -12 21 -13q4 0 7 1l19 5v0l9 -17v0q6 -12 21 -13q8 0 14 4l18 13v0l14 -17v0q7 -8 18 -8q22 2 24 24q0 11 -8 18l-17 14v0l13 18v0q4 6 4 14q-1 14 -13 21l-18 9v0l6 19v0q1 3 1 7q-1 14 -13 21l-18 9v0l6 19v0q1 3 1 7q0 8 -5 14q16 10 30 23l8 7v0zM169 32l-30 -30
l30 30l-30 -30l-10 41v0l-23 90v0l-99 99v0l-7 7v0v10v0v96v0v9v0l6 7v0l96 104v0l8 8v0h10h114l7 -7v0l100 -100v0l91 -30v0l39 -13v0l-31 -28v0l-28 -26v0q-59 -51 -137 -52q-14 0 -27 2v-45v0q-1 -63 -45 -107l-34 -35v0zM200 174v57v-57v57q-39 16 -70 46l-71 71v0
l-11 -12v0v-77v0l97 -97v0l5 -5v0l1 -6v0l14 -55v0l5 4v0q29 31 30 74v0zM131 425l-39 -42l39 42l-39 -42l72 -72v0q46 -45 111 -46q58 1 102 38l-57 19v0l-5 2v0l-4 4v0l-97 97v0h-83v0z" />
</svg>
