<?xml version="1.0" standalone="no"?>
<!DOCTYPE svg PUBLIC "-//W3C//DTD SVG 1.1//EN" "http://www.w3.org/Graphics/SVG/1.1/DTD/svg11.dtd" >
<svg xmlns="http://www.w3.org/2000/svg" xmlns:xlink="http://www.w3.org/1999/xlink" version="1.1" viewBox="-10 -40 532 512">
   <path fill="currentColor"
d="M232 452l24 21l-24 -21l24 21l24 -21v0l196 -171v0l13 -12v0l23 -20v0l-26 -29v0l-6 -7v0l-183 -205v0l-9 -11v0l-14 -15v0l-18 -21v0l-18 21v0l-14 15v0l-9 11v0l-183 205v0l-6 7v0l-26 29v0l23 20v0l13 12v0l196 171v0zM83 258l79 -15l-79 15l79 -15l70 50v0v95v0
l-149 -130v0zM197 208l59 -173l-59 173l59 -173l60 173v0l-60 43v0l-59 -43v0zM338 125l71 80l-71 -80l71 80l-47 -9v0l-24 -71v0zM429 258l-149 130l149 -130l-149 130v-95v0l70 -50v0l79 15v0zM174 125l-24 71l24 -71l-24 71l-47 9v0l71 -80v0z" />
</svg>
