<?xml version="1.0" standalone="no"?>
<!DOCTYPE svg PUBLIC "-//W3C//DTD SVG 1.1//EN" "http://www.w3.org/Graphics/SVG/1.1/DTD/svg11.dtd" >
<svg xmlns="http://www.w3.org/2000/svg" xmlns:xlink="http://www.w3.org/1999/xlink" version="1.1" viewBox="-10 -40 596 512">
   <path fill="currentColor"
d="M336 281v60v-60v60v84v0h48v0v-190v0l-82 -50v0h-11h-179v1v0v239v0h48v0v-84v0v-60v0l58 13v0q15 3 30 3t30 -3l58 -13v0zM337 150l52 32l-52 -32l52 32l5 -29v0h41h45q20 -1 34 -14q13 -14 14 -34v-32v0h-32h-20l-14 -14v0l-18 -18v0h-76h-13l-17 104v0l-1 5v0zM64 181
q-1 0 -3 -1v0v0v0q-27 -9 -43 -32q-9 -13 -13 -30v0v0v0v0l-4 -15v0l46 -12v0l4 16v0v0v0q9 28 39 30h54h147l23 -137v0l3 -18v0l3 -21v0h24v0l3 5v0l17 22v0l4 5v0h96v0l32 32v0h32h48v48v0v32v0q-1 41 -28 68t-68 28h-45v0l-3 16v0v208v0v48v0h-48h-96v-48v0v-35v0v-49v0
q-16 3 -32 4v0h-8h-8v0q-16 -1 -32 -4v49v0v35v0v48v0h-48h-96v-48v0v-240v0v-4v0zM416 73q1 -15 16 -16q15 1 16 16q-1 15 -16 16q-15 -1 -16 -16v0z" />
</svg>
