<?xml version="1.0" standalone="no"?>
<!DOCTYPE svg PUBLIC "-//W3C//DTD SVG 1.1//EN" "http://www.w3.org/Graphics/SVG/1.1/DTD/svg11.dtd" >
<svg xmlns="http://www.w3.org/2000/svg" xmlns:xlink="http://www.w3.org/1999/xlink" version="1.1" viewBox="-10 -40 532 512">
   <path fill="currentColor"
d="M234 313l-59 58l59 -58l-59 58q16 17 17 42q-1 25 -18 42t-42 18q-25 -1 -42 -18t-18 -42v-12v0h-12v0q-25 -1 -42 -18t-18 -42q1 -25 18 -42t42 -18q25 1 42 17l58 -58v0v-23v0v-24v0v-56v0q2 -75 52 -124q49 -50 124 -52q75 2 124 52q50 49 52 124q-2 75 -52 124
q-49 50 -124 52h-56h-46zM256 265h80h-80h80q54 -1 91 -37q36 -37 37 -91q-1 -54 -37 -91q-37 -36 -91 -37q-54 1 -91 37q-36 37 -37 91v80v0v14v0l34 34v0h14v0z" />
</svg>
