<?xml version="1.0" standalone="no"?>
<!DOCTYPE svg PUBLIC "-//W3C//DTD SVG 1.1//EN" "http://www.w3.org/Graphics/SVG/1.1/DTD/svg11.dtd" >
<svg xmlns="http://www.w3.org/2000/svg" xmlns:xlink="http://www.w3.org/1999/xlink" version="1.1" viewBox="-10 -40 596 512">
   <path fill="currentColor"
d="M64 217h-64h64h-64v-32v0l64 -224v0v256v0zM96 185q2 -54 30 -96v0v0q29 -41 66 -70v0v0q38 -29 66 -43v0v0q29 -15 30 -15q2 0 30 15q29 14 66 43q38 29 66 70q29 42 30 96q1 41 8 85q8 44 16 75q7 31 8 32l-192 96v0h-64v0l-192 -96v0q1 -1 8 -32q8 -31 16 -75
q7 -44 8 -85v0zM449 321q-6 -30 -12 -66v0v0q-5 -36 -5 -70q-1 -37 -22 -70q-22 -32 -56 -58q-33 -26 -59 -39l-4 -2t-3 -2q-1 1 -3 2l-4 2q-26 13 -59 39q-34 26 -56 58q-21 33 -22 70q0 34 -5 70q-6 36 -12 66q-3 15 -6 28q-1 1 -1 2l144 72v0v-174v0l-88 -32v0v-32v0h224
v0v32v0l-88 32v0v174v0l144 -72v0q-3 -13 -7 -30v0zM512 -39l64 224l-64 -224l64 224v32v0h-64v0v-256v0z" />
</svg>
