<?xml version="1.0" standalone="no"?>
<!DOCTYPE svg PUBLIC "-//W3C//DTD SVG 1.1//EN" "http://www.w3.org/Graphics/SVG/1.1/DTD/svg11.dtd" >
<svg xmlns="http://www.w3.org/2000/svg" xmlns:xlink="http://www.w3.org/1999/xlink" version="1.1" viewBox="-11 0 470 512">
   <path fill="currentColor"
d="M224 425q61 0 93 -13v0v0q32 -12 47 -32q18 -23 27 -65q9 -43 9 -114v-192v0h-176h-176v192v0q0 71 9 114t27 65q15 20 47 32q32 13 93 13v0zM224 473q-129 1 -178 -64v0v0q-49 -65 -46 -208v-192v0v-48v0h48h400v48v0v192v0q3 143 -46 208q-48 65 -178 64v0zM200 169
q-1 27 -19 45v0v0q-18 18 -45 19q-27 -1 -45 -19t-19 -45v-32v0h128v0v32v0zM312 233q-27 -1 -45 -19v0v0q-18 -18 -19 -45v-32v0h128v0v32v0q-1 27 -19 45t-45 19v0zM176 41q15 1 16 16q-1 15 -16 16q-15 -1 -16 -16q1 -15 16 -16v0zM208 105q1 -15 16 -16q15 1 16 16
q-1 15 -16 16q-15 -1 -16 -16v0zM176 265q1 -15 16 -16q15 1 16 16q-1 15 -16 16q-15 -1 -16 -16v0zM176 329q1 -15 16 -16q15 1 16 16q-1 15 -16 16q-15 -1 -16 -16v0zM192 377q15 1 16 16q-1 15 -16 16q-15 -1 -16 -16q1 -15 16 -16v0zM256 377q15 1 16 16q-1 15 -16 16
q-15 -1 -16 -16q1 -15 16 -16v0zM256 313q15 1 16 16q-1 15 -16 16q-15 -1 -16 -16q1 -15 16 -16v0zM256 249q15 1 16 16q-1 15 -16 16q-15 -1 -16 -16q1 -15 16 -16v0zM256 57q1 -15 16 -16q15 1 16 16q-1 15 -16 16q-15 -1 -16 -16v0z" />
</svg>
