<?xml version="1.0" standalone="no"?>
<!DOCTYPE svg PUBLIC "-//W3C//DTD SVG 1.1//EN" "http://www.w3.org/Graphics/SVG/1.1/DTD/svg11.dtd" >
<svg xmlns="http://www.w3.org/2000/svg" xmlns:xlink="http://www.w3.org/1999/xlink" version="1.1" viewBox="-10 -40 660 512">
   <path fill="currentColor"
d="M285 316v0v0v0l195 -195v0l112 112v0v11v0l-307 72v0zM480 121l-112 -112l112 112l-112 -112h224v0l-112 112v0zM615 288l25 -6l-25 6l25 -6v-25v0v-248v0v-16v0v-32v0h-32h-289l-6 25v0l-80 342v0v2v0l-2 6v0v0v0l-89 89v0h-22v0v-107v0l-24 -10v0l-24 10v0v131v0v24v0
h24h66l7 -7v0l96 -96v0v0v0l6 -2v0h2v0l342 -80v0zM0 89v48v-48v48h24h48v110v0l-72 -30v0v96v0l72 -30v0l24 -10v0l24 10v0l72 30v0v-96v0l-72 30v0v-134v0v-24v0h-24h-96z" />
</svg>
