<?xml version="1.0" standalone="no"?>
<!DOCTYPE svg PUBLIC "-//W3C//DTD SVG 1.1//EN" "http://www.w3.org/Graphics/SVG/1.1/DTD/svg11.dtd" >
<svg xmlns="http://www.w3.org/2000/svg" xmlns:xlink="http://www.w3.org/1999/xlink" version="1.1" viewBox="-10 -40 532 512">
   <path fill="currentColor"
d="M448 105l17 -58l-17 58l17 -58l15 -54v0l-54 16v0l-58 16v0l-13 -21v0l-27 -43v0l-32 39v0l-7 8v0l-38 45v0l-2 3v0l-1 1v0v0v0l-8 -48v0l-18 5v0l-29 7v0l-17 4v0l-16 -19v0l-32 -37v0l-32 37v0l-16 19v0l-29 -3v0l-51 -5v0l13 50v0l35 134v0l-13 13v0l-35 35v0l44 24v0
l78 44v0l-104 104v0l-17 17v0l34 34v0l17 -17v0l104 -104v0l44 78v0l24 44v0l35 -35v0l13 -13v0l135 35v0l49 13v0l-5 -51v0l-3 -29v0l19 -16v0l37 -32v0l-37 -32v0l-19 -16v0l4 -17v0l7 -29v0l5 -18v0l-47 -8v0h-1v0l1 -1v0l3 -2v0l45 -38v0l8 -7v0l39 -32v0l-43 -27v0
l-21 -13v0zM191 316l123 -123l-123 123l123 -123l17 -17v0l-34 -34v0l-17 17v0l-122 123v0l-79 -44v0l3 -3v0l19 -19v0l-7 -27v0l-30 -117v0l11 1v0l25 2v0l17 -19v0l11 -13v0l12 13v0l19 23v0l29 -7v0l13 -4v0l9 53v0h47v0l28 -33v0l37 -45v0l5 7v0l19 31v0l35 -10v0l29 -8
v0l-8 29v0l-10 34v0l30 20v0l8 4v0l-45 38v0l-33 28v0v47v0l53 9v0l-4 13v0l-7 29v0l23 19v0l13 12v0l-13 12v0l-19 16v0l2 25v0l1 11v0l-117 -30v0l-26 -7v0l-20 19v0l-3 3v0l-43 -78h-1z" />
</svg>
