<?xml version="1.0" standalone="no"?>
<!DOCTYPE svg PUBLIC "-//W3C//DTD SVG 1.1//EN" "http://www.w3.org/Graphics/SVG/1.1/DTD/svg11.dtd" >
<svg xmlns="http://www.w3.org/2000/svg" xmlns:xlink="http://www.w3.org/1999/xlink" version="1.1" viewBox="-10 -40 532 512">
   <path fill="currentColor"
d="M448 -39l-80 48l80 -48l-80 48l-31 93v0l-49 49v0q-32 -1 -79 2q-48 3 -95 17q-48 14 -80 44q-33 30 -34 83q2 75 52 124q49 50 124 52q53 -1 83 -34q30 -32 44 -80q14 -47 17 -95q3 -47 2 -79l49 -49v0l93 -31v0l48 -80v0l-64 -64v0zM168 206q38 -6 72 -7l-52 52v0
q-6 -2 -12 -2q-20 1 -34 14q-13 14 -14 34q1 20 14 34q14 14 34 14t34 -14q13 -14 14 -34q0 -6 -2 -12l52 -52v0q-1 34 -7 72q-10 56 -33 90q-20 29 -58 30q-54 -1 -90 -37q-37 -37 -38 -91q1 -38 30 -58q34 -23 90 -33v0z" />
</svg>
