<?xml version="1.0" standalone="no"?>
<!DOCTYPE svg PUBLIC "-//W3C//DTD SVG 1.1//EN" "http://www.w3.org/Graphics/SVG/1.1/DTD/svg11.dtd" >
<svg xmlns="http://www.w3.org/2000/svg" xmlns:xlink="http://www.w3.org/1999/xlink" version="1.1" viewBox="-10 -40 530 512">
   <path fill="currentColor"
d="M224 -39h-21h21h-21l-3 21v0l-3 26v0q-6 41 5 80q12 39 38 70v21v0q-51 16 -88 52q-37 37 -53 87q-13 -5 -27 -5q-31 1 -51 21t-21 51q1 31 21 51t51 21q8 0 16 -2v18v0h24h249v0v0h13h136l-22 -36v0l-17 -29v0l-86 -143v0h63h24v-24v0v-89v0v-11v0l-9 -7v0l-59 -49v0
q-9 -7 -19 -13q16 -41 10 -86l-4 -25v0h-40v0l-11 11v0q-8 9 -15 18q22 33 30 71q-12 -3 -25 -4q-13 -45 -47 -79l-10 -10v0l-7 -7v0h-10h-32zM89 368q-1 8 -1 17v18v0q-7 6 -16 6q-22 -2 -24 -24q2 -22 24 -24q10 0 17 7v0zM320 399v26v-26v26h-16h-168v-40v0
q1 -62 38 -106q37 -45 95 -58l19 -4v0v-20v0v-48v0v-10v0l-7 -7v0q-22 -23 -32 -54t-5 -63l1 -6v0h1v0l4 3v0l3 -3v0l-3 3v0q30 32 37 74l4 26v0l25 -6v0q4 -1 9 -1q27 0 49 18l50 41v0v53v0h-64h-24v24v0v29v0v7v0l3 5v0l86 143v0h-37v0l-19 -32v0l-4 -7v0l-18 -29v0
l-12 -21v0l-15 -24v0l-1 -1v0l-22 20v0l-21 21v0l-44 41v0h60h28v6v0zM352 169q15 -1 16 -16q-1 -15 -16 -16q-15 1 -16 16q1 15 16 16v0z" />
</svg>
