<?xml version="1.0" standalone="no"?>
<!DOCTYPE svg PUBLIC "-//W3C//DTD SVG 1.1//EN" "http://www.w3.org/Graphics/SVG/1.1/DTD/svg11.dtd" >
<svg xmlns="http://www.w3.org/2000/svg" xmlns:xlink="http://www.w3.org/1999/xlink" version="1.1" viewBox="-10 -40 652 512">
   <path fill="currentColor"
d="M576 97l15 6l-15 -6l15 6l22 10v0l19 -45v0l-23 -9v0l-55 -24v0l-42 -42v0h-64v0l-42 42v0l-55 24v0l-23 9v0l19 45v0l22 -10v0l15 -6v0v152v0h192v0v-152v0zM464 89q15 1 16 16q-1 15 -16 16q-15 -1 -16 -16q1 -15 16 -16v0zM512 105q1 -15 16 -16q15 1 16 16
q-1 15 -16 16q-15 -1 -16 -16v0zM302 45q-10 -11 -23 -16q-11 -4 -23 -4q-30 1 -48 22q-17 -14 -40 -14t-40 14q-17 13 -22 35q-5 -1 -10 -1q-27 1 -45 19t-19 45q0 8 2 16q-32 17 -34 56q2 39 34 57q-2 7 -2 15q1 27 19 45t45 19h1h1l22 120v0h88v0v-86v0q18 21 48 22
q30 -1 48 -22v86v0h88v0l23 -120v0v0h1q27 -1 45 -19t19 -45v-8h-49v0l1 4v0v4q-1 15 -16 16h-2l-44 -7v0l-10 43v0q-4 11 -16 12q-6 0 -10 -3l-36 -29v0l-30 35v0q-5 5 -12 5q-8 0 -12 -5l-30 -35v0l-36 29v0q-4 3 -10 3q-12 -1 -15 -12l-11 -43v0l-43 7v0h-3
q-15 -1 -16 -16q0 -2 1 -4l9 -36v0l-33 -18v0q-9 -5 -9 -14t9 -14l33 -18v0l-9 -36v0q-1 -2 -1 -4q1 -15 16 -16h2h1l43 7v0l10 -43v0q4 -11 16 -12q6 0 10 4l36 28v0l30 -34v0q5 -6 12 -6q9 0 14 8l35 58v0l12 -16v0l-30 -71v0l15 -7v0z" />
</svg>
