<?xml version="1.0" standalone="no"?>
<!DOCTYPE svg PUBLIC "-//W3C//DTD SVG 1.1//EN" "http://www.w3.org/Graphics/SVG/1.1/DTD/svg11.dtd" >
<svg xmlns="http://www.w3.org/2000/svg" xmlns:xlink="http://www.w3.org/1999/xlink" version="1.1" viewBox="-10 -40 532 512">
   <path fill="currentColor"
d="M282 -39h10h-10h230v24v0v48v0v160v0v36v0v18v0l-17 5v0l-35 10v0l-13 4v0l-25 44v0l-44 -24v0l-124 35v0l-99 99v0l-34 34v0l-17 17v0l-17 -17v0l-68 -68v0l-17 -17v0l17 -17v0l34 -34v0l43 -43v0v-42v0h42v0l27 -27v0l9 -9v0l4 -4v0l6 -2v0l12 -3v0l172 -49v0v-34v0
h-26v0l-21 21v0l-17 17v0l-17 -17v0l-68 -68v0l-17 -17v0l17 -17v0l34 -34v0l8 -8v0l14 -14v0l7 -7v0zM302 9l-7 7l7 -7l-7 7l-8 8v0l-17 17v0l34 34v0l11 -11v0l7 -7v0h10h84v24v0v76v0v18v0l-17 5v0l-190 54v0l-6 2v0l-4 4v0l-112 112v0l-17 17v0l34 34v0l17 -17v0
l103 -103v0l5 -5v0l6 -1v0l212 -61v0l17 -5v0v-18v0v-160v0v-24v0h-24h-138z" />
</svg>
