<?xml version="1.0" standalone="no"?>
<!DOCTYPE svg PUBLIC "-//W3C//DTD SVG 1.1//EN" "http://www.w3.org/Graphics/SVG/1.1/DTD/svg11.dtd" >
<svg xmlns="http://www.w3.org/2000/svg" xmlns:xlink="http://www.w3.org/1999/xlink" version="1.1" viewBox="-10 -40 660 512">
   <path fill="currentColor"
d="M584 17q0 8 -2 16h1h1q24 1 40 16q15 16 16 40q-1 24 -16 40q-16 15 -40 16q-32 -1 -48 -27l-48 34v0q-22 16 -36 40t-26 50h-1v2q-12 27 -28 51q-9 14 -23 25q-37 29 -82 24q-44 -4 -75 -40q-29 -38 -25 -83q5 -44 41 -75q38 -29 83 -24q22 3 45 2q-41 -19 -73 -19
q-31 0 -73 18q-41 18 -81 54q-39 35 -62 78t-24 90v80v0h240h240v-80v0q-2 -71 -51 -132q12 -22 30 -35l2 -1v0q30 35 48 78q19 43 19 90v80v0v48v0h-48h-528v-48v0v-80v0q2 -81 50 -146q47 -65 114 -103q66 -38 124 -39q63 1 133 44l66 -46v0q-14 -15 -15 -38q1 -24 16 -40
q16 -15 40 -16q24 1 40 16q15 16 16 40v0z" />
</svg>
