<?xml version="1.0" standalone="no"?>
<!DOCTYPE svg PUBLIC "-//W3C//DTD SVG 1.1//EN" "http://www.w3.org/Graphics/SVG/1.1/DTD/svg11.dtd" >
<svg xmlns="http://www.w3.org/2000/svg" xmlns:xlink="http://www.w3.org/1999/xlink" version="1.1" viewBox="-10 -40 532 512">
   <path fill="currentColor"
d="M270 -5v0v0v0q-25 27 -30 61l-16 -15v0l-30 29v0q-30 28 -35 66l-15 -15v0l-30 28v0q-34 34 -35 80q-1 45 33 81l9 8v0v0v0l-103 103v0l-17 17v0l34 34v0l17 -17v0l103 -103v0l8 9v0q36 34 81 33q46 -1 80 -35l28 -30v0l-9 -9v0q28 -7 49 -28l40 -43v0l-10 -10v0
q26 -6 46 -26l10 -10v0l34 -34v0l-29 -29v0l-3 -3l-2 -2q-17 -15 -38 -23q32 -7 52 -31q19 -23 20 -56v-16v0v-48v0h-48h-16q-33 1 -56 21q-24 19 -30 51q-9 -21 -24 -38l-4 -4l-1 -1v0l-29 -29v0l-33 33v0l-1 1v0zM304 29q17 21 19 47v0v0q1 25 -12 48l-6 -6v0
q-18 -19 -19 -44q0 -25 18 -45v0zM225 197q-19 -20 -19 -45v0v0q0 -25 17 -44q19 20 21 47q2 26 -12 49l-7 -7v0zM146 276q-19 -19 -19 -44v0v0q-1 -25 17 -45q18 21 20 47t-11 49l-7 -7v0zM286 329q-20 17 -45 17v0v0q-25 0 -44 -19l-7 -7v0q23 -14 49 -11q26 2 47 20v0z
M365 250l-8 9l8 -9l-8 9q-15 14 -34 15q-20 0 -35 -14l-19 -19v0q23 -14 49 -12q27 2 48 21h-1zM349 162q23 -13 48 -12v0v0q26 2 47 19l-10 10v0q-15 14 -34 14t-34 -14l-17 -17v0zM448 9h16h-16h16v16v0q0 17 -12 28q-11 12 -28 12h-16v0v-16v0q0 -17 12 -28
q11 -12 28 -12v0z" />
</svg>
