<?xml version="1.0" standalone="no"?>
<!DOCTYPE svg PUBLIC "-//W3C//DTD SVG 1.1//EN" "http://www.w3.org/Graphics/SVG/1.1/DTD/svg11.dtd" >
<svg xmlns="http://www.w3.org/2000/svg" xmlns:xlink="http://www.w3.org/1999/xlink" version="1.1" viewBox="-10 -40 532 512">
   <path fill="currentColor"
d="M418 -39h-18h18h-18v0v0l-25 25v0v0v0l11 11v0l-1 1v0l-84 83v0q-32 -8 -64 0q-32 9 -57 33l-146 147v0l-34 34v0l34 33v0l111 111v0l34 34v0l33 -34v0l147 -146v0q24 -25 33 -57q8 -32 0 -64l83 -84v0l1 -1v0l11 11v0l25 -25v0v-18v0l-94 -94v0zM358 138l-20 19l20 -19
l-20 19l7 27v0q10 40 -18 72l-110 -110v0q32 -28 72 -18l27 7v0l19 -20v0l84 -83v0l22 22v0l-83 84v0zM105 258l110 110l-110 -110l110 110l-36 37v0l-111 -110v0l37 -37v0z" />
</svg>
