<?xml version="1.0" standalone="no"?>
<!DOCTYPE svg PUBLIC "-//W3C//DTD SVG 1.1//EN" "http://www.w3.org/Graphics/SVG/1.1/DTD/svg11.dtd" >
<svg xmlns="http://www.w3.org/2000/svg" xmlns:xlink="http://www.w3.org/1999/xlink" version="1.1" viewBox="-10 -40 532 512">
   <path fill="currentColor"
d="M368 89v48v-48v48h48v0q20 1 34 14q13 14 14 34v48v0h-48h-368v-48v0q2 -33 32 -45l32 -12v0v-33v0v-22v0q1 -27 19 -45t45 -19q34 1 52 27l27 38v0l39 -25v0q11 -8 26 -8q20 1 34 14q14 14 14 34v0zM0 281h48h-48h512v-48v0v-48v0q-1 -41 -28 -68t-68 -28
q-1 -41 -28 -68t-68 -28q-29 0 -52 16q-33 -46 -92 -48q-48 1 -79 33q-32 31 -33 79v22v0q-28 10 -46 34q-17 24 -18 56v48v0v48v0zM160 345q0 -14 -9 -23v0v0q-9 -9 -23 -9t-23 9t-9 23t9 23t23 9t23 -9t9 -23v0zM288 345q0 -14 -9 -23v0v0q-9 -9 -23 -9t-23 9t-9 23t9 23
t23 9t23 -9t9 -23v0zM384 377q14 0 23 -9v0v0q9 -9 9 -23t-9 -23t-23 -9t-23 9t-9 23t9 23t23 9v0zM96 441q0 -14 -9 -23v0v0q-9 -9 -23 -9t-23 9t-9 23t9 23t23 9t23 -9t9 -23v0zM192 473q14 0 23 -9v0v0q9 -9 9 -23t-9 -23t-23 -9t-23 9t-9 23t9 23t23 9v0zM352 441
q0 -14 -9 -23v0v0q-9 -9 -23 -9t-23 9t-9 23t9 23t23 9t23 -9t9 -23v0z" />
</svg>
