<?xml version="1.0" standalone="no"?>
<!DOCTYPE svg PUBLIC "-//W3C//DTD SVG 1.1//EN" "http://www.w3.org/Graphics/SVG/1.1/DTD/svg11.dtd" >
<svg xmlns="http://www.w3.org/2000/svg" xmlns:xlink="http://www.w3.org/1999/xlink" version="1.1" viewBox="-10 -40 596 512">
   <path fill="currentColor"
d="M429 68q1 41 28 68v0v0q27 27 68 28q28 0 51 -15q-16 30 -44 48t-63 20q-18 -36 -54 -53q-2 -36 -23 -63q-20 -27 -53 -38q10 -45 44 -73t81 -29q28 0 52 12q-37 4 -61 30q-25 27 -26 65v0zM64 377h56h-56h56l-64 96v0h-56v0l64 -96v0zM160 377h56h-56h56l-64 96v0h-56v0
l64 -96v0zM312 377l-64 96l64 -96l-64 96h-56v0l64 -96v0h56v0zM352 377h56h-56h56l-64 96v0h-56v0l64 -96v0zM177 105q-21 1 -34 14v0v0q-14 14 -14 34v24v0v24v0h-24h-9q-20 1 -34 14q-13 14 -14 34v48v0h33h31v0v0h137v0v0v0h88v0v0v0h24h39v-32v0q0 -14 -9 -23t-23 -9
h-7h-24v-24v0v-40v0q-1 -14 -10 -23t-22 -9q-24 2 -31 24h-49v0v-8v0q-1 -20 -14 -34q-14 -13 -34 -14v0zM385 345v0v0v0h-24h-112v0v0h-144h-56v0v0h-25h-24v-24v0v-72v0q1 -37 23 -63q23 -25 58 -32v-1v0q1 -41 28 -68t68 -28q26 0 47 13q22 12 35 33q20 -14 46 -14
q34 1 56 23q23 23 24 57v18v0q27 6 45 27q17 22 18 51v56v0v24v0h-24h-39z" />
</svg>
