<?xml version="1.0" standalone="no"?>
<!DOCTYPE svg PUBLIC "-//W3C//DTD SVG 1.1//EN" "http://www.w3.org/Graphics/SVG/1.1/DTD/svg11.dtd" >
<svg xmlns="http://www.w3.org/2000/svg" xmlns:xlink="http://www.w3.org/1999/xlink" version="1.1" viewBox="-10 -40 660 512">
   <path fill="currentColor"
d="M390 150q7 5 14 11q18 -7 39 -8q5 -15 5 -32q-1 -41 -28 -68t-68 -28h-43v0q-14 -29 -40 -46q-27 -18 -61 -18q-43 1 -74 28q-30 26 -37 68h-1v0q-41 1 -68 28t-28 68v48v0v48v0h48h113q3 -26 14 -48h-79h-48v-48v0q1 -20 14 -34q14 -13 34 -14h1h42l6 -41v0
q4 -24 21 -39t42 -16q40 2 58 37l13 27v0h30h43q20 1 34 14q13 14 14 34q0 17 -10 29v0zM496 281v48v-48v48h48v0q20 1 34 14q13 14 14 34v48v0h-48h-368v-48v0q2 -33 32 -45l32 -12v0v-33v0v-22v0q1 -27 19 -45t45 -19q34 1 52 27l27 38v0l39 -25v0q11 -8 26 -8q20 1 34 14
q14 14 14 34v0zM128 473h48h-48h512v-48v0v-48v0q-1 -41 -28 -68t-68 -28q-1 -41 -28 -68t-68 -28q-29 0 -52 16q-33 -46 -92 -48q-48 1 -79 33q-32 31 -33 79v22v0q-28 10 -46 34q-17 24 -18 56v48v0v48v0z" />
</svg>
