<?xml version="1.0" standalone="no"?>
<!DOCTYPE svg PUBLIC "-//W3C//DTD SVG 1.1//EN" "http://www.w3.org/Graphics/SVG/1.1/DTD/svg11.dtd" >
<svg xmlns="http://www.w3.org/2000/svg" xmlns:xlink="http://www.w3.org/1999/xlink" version="1.1" viewBox="-10 -40 660 512">
   <path fill="currentColor"
d="M193 -16l63 34l-63 -34l63 34l63 -34v0l43 -23v0l14 47v0l6 18v0q-23 10 -43 25l-6 -20v0l-54 29v0l-23 13v0l-23 -13v0l-54 -29v0l-18 59v0l-7 25v0l-25 7v0l-59 18v0l29 54v0l13 23v0l-13 23v0l-29 54v0l59 18v0l25 7v0l7 25v0l18 59v0l54 -29v0l23 -13v0l23 13v0
l54 29v0l6 -20v0q20 15 43 25l-6 18v0l-14 47v0l-43 -23v0l-63 -34v0l-63 34v0l-43 23v0l-14 -47v0l-21 -68v0l-68 -21v0l-47 -14v0l23 -43v0l34 -63v0l-34 -63v0l-23 -43v0l47 -14v0l68 -21v0l21 -68v0l14 -47v0l43 23v0zM256 105q16 0 30 4q-13 21 -20 45q-5 -1 -10 -1
q-27 1 -45 19t-19 45q1 27 19 45t45 19q5 0 10 -1q7 24 20 45q-14 4 -30 4q-48 -1 -79 -33q-32 -31 -33 -79q1 -48 33 -79q31 -32 79 -33v0zM592 217q0 -35 -17 -64v0v0q-17 -29 -47 -47q-30 -17 -64 -17t-64 17q-30 18 -47 47t-17 64t17 64t47 47q30 17 64 17t64 -17
q30 -18 47 -47t17 -64v0zM288 217q0 -48 24 -88v0v0q23 -40 64 -64q42 -24 88 -24t88 24q41 24 64 64q24 40 24 88t-24 88q-23 40 -64 64q-42 24 -88 24t-88 -24q-41 -24 -64 -64q-24 -40 -24 -88v0z" />
</svg>
