<?xml version="1.0" standalone="no"?>
<!DOCTYPE svg PUBLIC "-//W3C//DTD SVG 1.1//EN" "http://www.w3.org/Graphics/SVG/1.1/DTD/svg11.dtd" >
<svg xmlns="http://www.w3.org/2000/svg" xmlns:xlink="http://www.w3.org/1999/xlink" version="1.1" viewBox="-10 -40 596 512">
   <path fill="currentColor"
d="M288 -38l16 13l-16 -13l16 13l264 224v0l-32 36v0l-24 -20v0v137v0q-4 -3 -9 -6q-1 -2 -3 -3v0v0l-20 -14v0l-16 12v0v-167v0l-176 -149v0l-176 149v0v167v0l-16 -12v0l-19 13v0l-1 1v0q-6 5 -12 9v-137v0l-24 20v0l-31 -36v0l264 -224v0l15 -13v0zM256 185v64v-64v64h64
v0v-64v0h-64v0zM256 137h64h-64h112v48v0v64v0v48v0h-48h-112v-48v0v-64v0v-48v0h48v0zM79 450q-15 8 -35 16v0v0q-20 7 -44 7v-48v0q31 -2 55 -17q22 -13 40 -30q0 -1 1 -1v0v0v0v0q19 18 41 31q24 15 55 17q30 -2 55 -17q22 -13 40 -30v-1h1h1v1q18 17 40 30q24 15 55 17
q30 -2 55 -17q22 -13 40 -30v-1h1h1v1q18 17 40 30q24 15 55 17v48v0q-24 0 -44 -7q-20 -8 -35 -16q-10 -6 -17 -11q-7 5 -17 11q-15 9 -35 16t-44 7t-44 -7q-20 -8 -35 -16q-10 -6 -17 -11q-7 5 -17 11q-15 9 -35 16t-44 7t-44 -7q-20 -8 -35 -16q-10 -6 -17 -11
q-7 5 -17 11v0z" />
</svg>
