<?xml version="1.0" standalone="no"?>
<!DOCTYPE svg PUBLIC "-//W3C//DTD SVG 1.1//EN" "http://www.w3.org/Graphics/SVG/1.1/DTD/svg11.dtd" >
<svg xmlns="http://www.w3.org/2000/svg" xmlns:xlink="http://www.w3.org/1999/xlink" version="1.1" viewBox="-10 -40 660 512">
   <path fill="currentColor"
d="M331 213l-13 -12l13 12l-13 -12h-19h-219v-96v0q1 -41 28 -68t68 -28q35 1 61 22l31 25v0l31 -27v0q22 -19 53 -20q48 2 71 43l18 34v0l37 -11v0q9 -2 18 -2q27 1 45 19t19 45v64v0h-64h-45l-14 12v0q-22 19 -53 20q-31 -1 -53 -20v0zM32 249h48h-48h267q35 31 85 32
q50 -1 85 -32h27h112v-48v0v-64v0q-1 -48 -33 -79q-31 -32 -79 -33q-16 0 -31 4q-16 -31 -46 -49q-30 -19 -67 -19q-50 1 -85 32q-38 -31 -91 -32q-61 2 -102 42q-40 41 -42 102v96v0v48v0zM616 329h-336h336h-360v48v0h24h360v-48v0h-24v0zM552 425h-112h112h-136v48v0h24
h136v-48v0h-24v0zM360 425h-336h336h-360v48v0h24h360v-48v0h-24v0zM224 329h-24h24h-152v48v0h24h128v-48v0z" />
</svg>
