<?xml version="1.0" standalone="no"?>
<!DOCTYPE svg PUBLIC "-//W3C//DTD SVG 1.1//EN" "http://www.w3.org/Graphics/SVG/1.1/DTD/svg11.dtd" >
<svg xmlns="http://www.w3.org/2000/svg" xmlns:xlink="http://www.w3.org/1999/xlink" version="1.1" viewBox="-10 -40 532 512">
   <path fill="currentColor"
d="M416 105q27 -1 42 -24q12 -24 0 -48q-15 -23 -42 -24q-27 1 -42 24q-12 24 0 48q15 23 42 24v0zM416 -39q26 0 48 13v0v0q22 13 35 35q13 23 13 48t-13 48q-13 22 -35 35t-48 13t-48 -13t-35 -35q-13 -23 -13 -48t13 -48q13 -22 35 -35t48 -13v0zM160 57v16v-16v16v211v0
q30 12 32 45q-1 20 -14 34q-14 14 -34 14t-34 -14q-13 -14 -14 -34q2 -33 32 -45v-211v0v-16v0h32v0zM80 256l-11 13l11 -13l-11 13q-20 25 -21 60q1 41 28 68t68 28q41 -1 68 -28t28 -68q-1 -35 -21 -60l-11 -13v0v-17v0v-230v0h-128v0v230v0v17v0zM208 -39h48h-48h48v48v0
v230v0q31 38 32 90q-2 61 -42 102q-41 40 -102 42q-61 -2 -102 -42q-40 -41 -42 -102q1 -52 32 -90v-230v0v-48v0h48h128z" />
</svg>
