<?xml version="1.0" standalone="no"?>
<!DOCTYPE svg PUBLIC "-//W3C//DTD SVG 1.1//EN" "http://www.w3.org/Graphics/SVG/1.1/DTD/svg11.dtd" >
<svg xmlns="http://www.w3.org/2000/svg" xmlns:xlink="http://www.w3.org/1999/xlink" version="1.1" viewBox="-10 -40 532 512">
   <path fill="currentColor"
d="M160 105q-27 -1 -45 -19v0v0q-18 -18 -19 -45q1 -27 19 -45t45 -19q24 0 41 15q19 -29 55 -31q36 2 55 31q17 -15 41 -15q27 1 45 19t19 45q-1 27 -19 45t-45 19h-48v0l-32 48v0h-32v0l-32 -48v0h-48v0zM48 419v6v-6v6h416v0v-6v0l-103 -115v0l-25 25v0h-32v0l-64 -64v0
h-32h-23l-137 154v0zM192 185h128h-128h128l192 216v0v24v0v48v0h-48h-464v-48v0v-24v0l192 -216v0z" />
</svg>
