<?xml version="1.0" standalone="no"?>
<!DOCTYPE svg PUBLIC "-//W3C//DTD SVG 1.1//EN" "http://www.w3.org/Graphics/SVG/1.1/DTD/svg11.dtd" >
<svg xmlns="http://www.w3.org/2000/svg" xmlns:xlink="http://www.w3.org/1999/xlink" version="1.1" viewBox="-10 -40 596 512">
   <path fill="currentColor"
d="M144 41v280v-280v280h288v0v-280v0h-288v0zM96 321v-280v280v-280v-48v0h48h336v48v0v280v0h24v0v48v0h-24h-408v-48v0h24v0zM64 249v48v-48v48h-16v0v96v0h480v0v-96v0h-16v0v-48v0h16h48v48v0v96v0v48v0h-48h-528v-48v0v-96v0v-48v0h48h16zM385 141l-107 106l107 -106
l-107 106l-17 17v0l-17 -17v0l-53 -53v0l-17 -17v0l34 -34v0l17 17v0l36 37v0l90 -90v0l17 -17v0l34 34v0l-17 17v0z" />
</svg>
