<?xml version="1.0" standalone="no"?>
<!DOCTYPE svg PUBLIC "-//W3C//DTD SVG 1.1//EN" "http://www.w3.org/Graphics/SVG/1.1/DTD/svg11.dtd" >
<svg xmlns="http://www.w3.org/2000/svg" xmlns:xlink="http://www.w3.org/1999/xlink" version="1.1" viewBox="-10 -40 596 512">
   <path fill="currentColor"
d="M312 -39v24v-24v24v138v0l48 -44v0l18 -16v0l32 36v0l-18 16v0l-88 80v0l-16 14v0l-16 -14v0l-88 -80v0l-18 -16v0l32 -36v0l18 16v0l48 44v0v-138v0v-24v0h48v0zM96 439q-7 5 -17 11q-15 8 -35 16q-20 7 -44 7v-48v0q31 -2 55 -17q22 -13 40 -30q0 -1 1 -1v0v0v0v0v0v0
q19 18 41 31q24 15 55 17q30 -2 55 -17q22 -13 40 -30v-1h1h1v1q18 17 40 30q24 15 55 17q30 -2 55 -17q22 -13 40 -30v-1v0v0h1h1v1q18 17 40 30q24 15 55 17v48v0q-24 0 -44 -7q-20 -8 -35 -16q-10 -6 -17 -11q-7 5 -17 11q-15 9 -35 16t-44 7t-44 -7q-20 -8 -35 -16
q-10 -6 -17 -11q-7 5 -17 11q-15 9 -35 16t-44 7t-44 -7q-20 -8 -35 -16q-10 -6 -17 -11v0zM79 322q-15 8 -35 16v0v0q-20 7 -44 7v-48v0q31 -2 55 -17q22 -13 40 -30q0 -1 1 -1v0v0v0v0q19 18 41 31q24 15 55 17q30 -2 55 -17q22 -13 40 -30v-1h1h1v1q18 17 40 30
q24 15 55 17q30 -2 55 -17q22 -13 40 -30v-1h1h1v1q18 17 40 30q24 15 55 17v48v0q-24 0 -44 -7q-20 -8 -35 -16q-10 -6 -17 -11q-7 5 -17 11q-15 9 -35 16t-44 7t-44 -7q-20 -8 -35 -16q-10 -6 -17 -11q-7 5 -17 11q-15 9 -35 16t-44 7t-44 -7q-20 -8 -35 -16
q-10 -6 -17 -11q-7 5 -17 11v0z" />
</svg>
