<?xml version="1.0" standalone="no"?>
<!DOCTYPE svg PUBLIC "-//W3C//DTD SVG 1.1//EN" "http://www.w3.org/Graphics/SVG/1.1/DTD/svg11.dtd" >
<svg xmlns="http://www.w3.org/2000/svg" xmlns:xlink="http://www.w3.org/1999/xlink" version="1.1" viewBox="-10 -40 660 512">
   <path fill="currentColor"
d="M224 393q47 0 85 -22v0v0q38 -21 63 -58h54v0q-28 58 -81 92q-53 35 -121 36q-63 -1 -113 -31q-51 -29 -80 -80q-30 -50 -31 -113q1 -63 31 -113q29 -51 80 -80q50 -30 113 -31q91 2 153 60q62 59 70 148h-48v0q-7 -69 -56 -114q-49 -44 -119 -46q-75 2 -124 52
q-50 49 -52 124q2 75 52 124q49 50 124 52v0zM544 185h-66h66h-66q-3 -25 -11 -48h77v0q20 -1 34 -14q13 -14 14 -34q-1 -20 -14 -34q-14 -13 -34 -14h-40h-24v-48v0h24h40q41 1 68 28t28 68q-1 41 -28 68t-68 28v0zM448 441v-48v48v-48h24h64q24 -1 40 -16q15 -16 16 -40
q-1 -24 -16 -40q-16 -15 -40 -16h-192h-24v-48v0h24h192q44 1 74 30q29 30 30 74q-1 44 -30 74q-30 29 -74 30h-64h-24zM248 89v24v-24v24v112v0v24v0h-48v0v-24v0v-112v0v-24v0h48v0zM200 329v-48v48v-48h48v0v48v0h-48v0z" />
</svg>
