<?xml version="1.0" standalone="no"?>
<!DOCTYPE svg PUBLIC "-//W3C//DTD SVG 1.1//EN" "http://www.w3.org/Graphics/SVG/1.1/DTD/svg11.dtd" >
<svg xmlns="http://www.w3.org/2000/svg" xmlns:xlink="http://www.w3.org/1999/xlink" version="1.1" viewBox="-10 -40 660 512">
   <path fill="currentColor"
d="M218 213l35 97l-35 -97l35 97l-11 44v0l-242 -88v0l13 -36v0l67 -48v0l37 -100v0q21 -53 70 -76t104 -5q1 1 2 1q-54 33 -75 91t0 120v0zM98 336l117 43l-117 -43l117 43q-18 28 -54 30q-27 -1 -45 -19q-19 -18 -19 -45v-9h1zM595 315l-6 2l6 -2l-6 2l-56 21v0l-116 42v0
l-56 20v0l-82 30v0v0v0l-14 -37v0v0v0l2 -10v0l20 -75v0l-39 -106v0q-19 -58 5 -110q24 -51 80 -74q58 -19 110 5q51 24 74 81l38 106v0l63 46v0l8 5v0l14 38v0v0v0l-45 16v0zM545 377v4v0v0v4q-4 24 -21 40q-18 15 -43 16q-26 -1 -44 -17l-8 -10l52 -19v0l49 -18v0l15 -5v0
v0v5v0zM564 275l-37 -26l37 26l-37 -26l-12 -8v0l-5 -14v0l-38 -107v0q-15 -37 -50 -53q-34 -16 -72 -3q-38 14 -54 49q-16 34 -3 72l39 107v0l5 14v0l-4 14v0l-11 43v0l242 -88v0z" />
</svg>
