<?xml version="1.0" standalone="no"?>
<!DOCTYPE svg PUBLIC "-//W3C//DTD SVG 1.1//EN" "http://www.w3.org/Graphics/SVG/1.1/DTD/svg11.dtd" >
<svg xmlns="http://www.w3.org/2000/svg" xmlns:xlink="http://www.w3.org/1999/xlink" version="1.1" viewBox="-10 -40 532 512">
   <path fill="currentColor"
d="M32 -39h288h-288h288v128v0h-112v0v32v0h272v0l32 224v0v80v0v48v0h-48h-464v-48v0v-80v0l32 -224v0h112v0v-32v0h-112v0v-128v0zM80 9v32v-32v32h16h176v-32v0h-16h-176zM464 425v-32v32v-32h-416v0v32v0h416v0zM438 169h-364h364h-364l-25 176v0h415v0l-26 -176v0z
M136 193v48v-48v48h-48v0v-48v0h48v0zM232 193v48v-48v48h-48v0v-48v0h48v0zM184 273v48v-48v48h-48v0v-48v0h48v0zM280 193h48h-48h48v48v0h-48v0v-48v0zM280 321h-48h48h-48v-48v0h48v0v48v0zM376 193h48h-48h48v48v0h-48v0v-48v0zM376 273v48v-48v48h-48v0v-48v0h48v0z
" />
</svg>
