<?xml version="1.0" standalone="no"?>
<!DOCTYPE svg PUBLIC "-//W3C//DTD SVG 1.1//EN" "http://www.w3.org/Graphics/SVG/1.1/DTD/svg11.dtd" >
<svg xmlns="http://www.w3.org/2000/svg" xmlns:xlink="http://www.w3.org/1999/xlink" version="1.1" viewBox="-10 -40 660 512">
   <path fill="currentColor"
d="M112 -39h24h-24h416v24v0v178v0q-18 -10 -40 -10h-8v-144v0h-320v0v144v0h-8q-22 0 -40 10v-178v0v-24v0zM480 186q4 -1 8 -1q18 0 32 10q8 -2 16 -2q31 1 47 26q18 5 29 20q12 14 12 34q0 8 -2 15q17 16 18 41q-1 25 -18 41q2 7 2 15q0 20 -12 34q-11 15 -29 20
q-16 25 -47 26q-8 0 -16 -2q-14 10 -32 10q-24 -1 -40 -16q-15 -16 -16 -40q0 -15 8 -28q-8 -12 -8 -28q0 -18 10 -32q-10 -14 -10 -32q0 -15 8 -28q-8 -12 -8 -28q0 -22 14 -37q13 -15 34 -18v0zM152 185q4 0 8 1q21 3 34 18q14 15 14 37q0 16 -7 28q7 13 7 28q0 18 -10 32
q10 14 10 32q0 16 -7 28q7 13 7 28q-1 24 -16 40q-16 15 -40 16q-18 0 -32 -10q-8 2 -16 2q-31 -1 -47 -26q-18 -5 -29 -20q-12 -14 -12 -34q0 -8 2 -15q-17 -16 -18 -41q1 -25 18 -41q-2 -7 -2 -15q0 -20 12 -34q11 -15 29 -20q16 -25 47 -26q8 0 16 2q14 -10 32 -10v0z
M145 269l14 -24l-14 24l14 -24q1 -2 1 -4q-1 -7 -8 -8q-3 0 -5 1l-18 14v0l-23 -7v0h-2q-4 0 -7 4l-10 15v0l-17 5v0q-6 2 -6 8v2l8 28v0l-21 20v0q-3 2 -3 6t3 6l21 20v0l-8 28v0v2q0 6 6 8l17 5v0l10 15v0q3 4 7 4h2l23 -7v0l18 14v0q2 1 5 1q7 -1 8 -8q0 -2 -1 -4
l-14 -24v0l14 -24v0q1 -2 1 -4q0 -3 -1 -4l-20 -28v0l20 -27v0q1 -2 1 -5q0 -2 -1 -4l-14 -24v0zM481 245l14 24l-14 -24l14 24l-14 24v0q-1 2 -1 4q0 3 1 5l20 27v0l-20 28v0q-1 1 -1 4q0 2 1 4l14 24v0l-14 24v0q-1 2 -1 4q1 7 8 8q3 0 5 -1l19 -14v0l22 7v0h2q4 0 7 -4
l10 -15v0l17 -5v0q6 -2 6 -8v-2l-8 -28v0l21 -20v0q3 -2 3 -6t-3 -6l-21 -20v0l8 -28v0v-2q0 -6 -6 -8l-17 -5v0l-10 -15v0q-3 -4 -7 -4h-2l-22 7v0l-19 -14v0q-2 -1 -5 -1q-7 1 -8 8q0 2 1 4v0z" />
</svg>
