<?xml version="1.0" standalone="no"?>
<!DOCTYPE svg PUBLIC "-//W3C//DTD SVG 1.1//EN" "http://www.w3.org/Graphics/SVG/1.1/DTD/svg11.dtd" >
<svg xmlns="http://www.w3.org/2000/svg" xmlns:xlink="http://www.w3.org/1999/xlink" version="1.1" viewBox="-10 -40 660 512">
   <path fill="currentColor"
d="M200 2l9 -23l-9 23l9 -23l-45 -17v0l-8 22v0l-11 29v0l-10 -28v0l-9 -23v0l-45 17v0l8 22v0l8 22v0l-28 -18v0l-20 -13v0l-26 40v0l20 13v0l19 12v0h-14h-48v48v0v320v0v48v0h48h144v-48v0h-144v0v-320v0h96v0v0v0h80h32q13 -19 32 -32v-16v0h-48h-14l19 -12v0l20 -13v0
l-26 -40v0l-20 13v0l-26 17v0l7 -20v0zM364 147l29 38l-29 -38l29 38h-49v0q-22 -2 -24 -24q2 -22 24 -24q12 0 20 10v0zM272 161q0 13 4 24h-4h-48v48v0v192v0v48v0h48h368v-48v0v-192v0v-48v0h-48h-4q4 -11 4 -24q-1 -31 -21 -51q-21 -20 -51 -21q-35 1 -57 28l-31 40v0
l-30 -40v0q-23 -27 -58 -28q-30 1 -51 21q-20 20 -21 51v0zM272 233h72h-72h136v72v0h-136v0v-72v0zM272 353h136h-136h136v72v0h-136v0v-72v0zM592 353v72v-72v72h-136v0v-72v0h136v0zM456 305v-72v72v-72h8h128v72v0h-136v0zM544 161q-2 22 -24 24h-49v0l30 -38v0
q7 -10 19 -10q22 2 24 24v0z" />
</svg>
