<?xml version="1.0" standalone="no"?>
<!DOCTYPE svg PUBLIC "-//W3C//DTD SVG 1.1//EN" "http://www.w3.org/Graphics/SVG/1.1/DTD/svg11.dtd" >
<svg xmlns="http://www.w3.org/2000/svg" xmlns:xlink="http://www.w3.org/1999/xlink" version="1.1" viewBox="-10 -40 532 512">
   <path fill="currentColor"
d="M272 424v-31v31v-31h-64v0l-48 -48v0v-112v0h144v0l48 48v0h32v0l32 32v0h25v0q8 -15 13 -32h-22v0l-48 -48v0v-80v0h32v0v-32v0h-64v0v48v0h-80h-16v32v0h-64v0v-32v0l80 -80v0v-16v0h-48v0v-32v0l32 -32v0q-88 2 -147 61t-61 147q2 88 61 147t147 61q8 0 16 -1v0z
M0 217q1 -70 34 -128v0v0q34 -58 94 -94q61 -34 128 -34t128 34q60 36 94 94q33 58 34 128q-1 70 -34 128q-34 58 -94 94q-61 34 -128 34t-128 -34q-60 -36 -94 -94q-33 -58 -34 -128v0zM187 84l-32 32l32 -32l-32 32l-11 12v0l-23 -23v0l12 -11v0l32 -32v0l11 -12v0l23 23
v0l-12 11v0z" />
</svg>
