<?xml version="1.0" standalone="no"?>
<!DOCTYPE svg PUBLIC "-//W3C//DTD SVG 1.1//EN" "http://www.w3.org/Graphics/SVG/1.1/DTD/svg11.dtd" >
<svg xmlns="http://www.w3.org/2000/svg" xmlns:xlink="http://www.w3.org/1999/xlink" version="1.1" viewBox="-10 -40 532 512">
   <path fill="currentColor"
d="M363 76l13 -51l-13 51l13 -51l72 -64v0l64 64v0l-64 72v0l-51 13v0l-43 44v0q28 39 30 81t-26 71q-18 17 -43 23q-14 3 -24 14q-9 11 -11 25q-2 43 -31 74q-39 36 -94 30q-56 -6 -103 -51q-46 -47 -51 -103q-6 -55 30 -94q31 -29 74 -31q14 -2 25 -11q11 -10 14 -24
q6 -25 24 -43q28 -28 70 -26t82 30l43 -43v0zM285 154q-27 -18 -50 -17v0v0q-23 1 -34 12q-7 7 -10 20q-7 28 -29 49q-23 20 -55 23q-26 1 -42 17q-19 19 -17 55q2 37 38 74q37 36 73 38q37 2 56 -17q16 -16 17 -42q3 -32 23 -55q21 -22 49 -29q13 -3 20 -10q11 -11 12 -34
t-17 -50l-65 65v0q2 5 2 12q-1 20 -14 34q-14 13 -34 14q-20 -1 -34 -14q-14 -14 -14 -34t14 -34t34 -14q6 0 12 2l65 -65v0z" />
</svg>
