<?xml version="1.0" standalone="no"?>
<!DOCTYPE svg PUBLIC "-//W3C//DTD SVG 1.1//EN" "http://www.w3.org/Graphics/SVG/1.1/DTD/svg11.dtd" >
<svg xmlns="http://www.w3.org/2000/svg" xmlns:xlink="http://www.w3.org/1999/xlink" version="1.1" viewBox="-10 -40 532 512">
   <path fill="currentColor"
d="M230 99l-70 70l70 -70l-70 70l128 112v0l-64 -112v0l96 -80v0l-6 -22v0v0v0q26 -25 62 -26q38 1 62 26q25 24 26 62q0 36 -26 62l-24 24v0l-158 158v0l-158 -158v0l-24 -24v0q-26 -26 -26 -62q1 -38 26 -62q24 -25 62 -26q36 0 62 26l24 24v0l8 8v0zM256 441l34 -34
l-34 34l34 -34l158 -158v0l24 -24v0q39 -40 40 -96q-1 -58 -40 -96q-38 -39 -96 -40q-56 1 -96 40v0v0l-24 24v0l-24 -24v0q-40 -39 -96 -40q-58 1 -96 40q-39 38 -40 96q1 56 40 96l24 24v0l158 158v0l34 34v0z" />
</svg>
