<?xml version="1.0" standalone="no"?>
<!DOCTYPE svg PUBLIC "-//W3C//DTD SVG 1.1//EN" "http://www.w3.org/Graphics/SVG/1.1/DTD/svg11.dtd" >
<svg xmlns="http://www.w3.org/2000/svg" xmlns:xlink="http://www.w3.org/1999/xlink" version="1.1" viewBox="-10 -40 532 512">
   <path fill="currentColor"
d="M389 355l-29 -130l29 130l-29 -130l-24 -104v0l-25 101v0l-1 2v0l-22 89v0l-19 -64v0l-8 -26v0l-21 -70v0l-21 97v0l-2 12v0l-25 115v0l-24 -114v0l-3 -12v0l-21 -98v0l-22 73v0l-7 22v0l-19 65v0l-24 -87v0l-59 -217v0l-13 -48v0h50h102v0v0h80h280l-9 48v0l-65 345v0
l-22 119v0l-27 -118v0zM289 109l14 -52l-14 52l14 -52h68v0l12 53v0l29 127v0l42 -228v0h-54h-337l35 130v0l15 -50v0h66v0l12 54v0l1 5v0l1 -5v0l12 -54v0h66v0l13 43v0l5 -23v0z" />
</svg>
