<?xml version="1.0" standalone="no"?>
<!DOCTYPE svg PUBLIC "-//W3C//DTD SVG 1.1//EN" "http://www.w3.org/Graphics/SVG/1.1/DTD/svg11.dtd" >
<svg xmlns="http://www.w3.org/2000/svg" xmlns:xlink="http://www.w3.org/1999/xlink" version="1.1" viewBox="-10 -40 658 512">
   <path fill="currentColor"
d="M13 49q-8 16 -9 19v0v0l-2 3v0v0v0v0v0v0h1h1q2 1 5 2q5 3 16 7q22 9 63 20q41 12 100 20q58 9 132 9t132 -9q59 -8 100 -20q41 -11 63 -20q11 -4 17 -7q2 -1 3 -1t1 -1h1h1v0v0v0v0v0v0l-2 -3q-1 -4 -9 -19q-7 -16 -9 -19t-1 -3v0v0l-1 1v0h-1q-1 1 -3 1q-5 3 -14 6
q-20 8 -58 19q-39 10 -94 18q-56 9 -126 9t-126 -9q-55 -8 -93 -18q-39 -11 -59 -19q-9 -3 -14 -6h-1q-2 -1 -3 -1l-1 -1v0v0v0v0v0v0v0v0v0q1 0 -1 3t-9 19v0zM116 184q-26 -1 -48 13v0v0q-21 14 -31 39q-9 31 -1 65t20 58t13 25q1 0 26 -11q24 -11 52 -31q28 -21 41 -51
q9 -26 1 -50q-7 -25 -28 -41l16 -43v0q-26 -4 -48 -9l-13 36v0zM296 221q-25 8 -40 28v0v0q-16 21 -16 48q1 33 21 62q19 29 38 47q20 18 21 19q1 -1 21 -19q19 -18 38 -47q20 -29 21 -62q0 -27 -16 -48q-15 -20 -40 -28v-52v0h-24h-24v52v0zM479 200q-21 16 -28 41v0v0
q-8 24 1 50q13 30 41 51q28 20 52 31q25 11 26 11q2 -1 13 -25q12 -24 20 -58q9 -34 -1 -65q-10 -25 -31 -39q-22 -14 -48 -13l-13 -36v0q-22 5 -48 9l16 43v0zM82 253q5 -13 17 -18v0v0q12 -6 24 -1q13 5 18 16q6 12 2 25q-9 20 -47 43q-2 2 -4 3q-1 -1 -1 -2q-1 -2 -1 -3
q-15 -42 -8 -63v0zM288 297q0 -14 9 -23v0v0q9 -9 23 -9t23 9t9 23q0 22 -29 57q-1 2 -2 3l-1 1l-1 -1q-1 -1 -2 -3q-29 -35 -29 -57v0zM517 234q12 -5 24 1v0v0q12 5 17 18q7 21 -8 63q0 1 -1 3q0 1 -1 2q-2 -1 -4 -3q-38 -23 -47 -43q-4 -13 2 -25q5 -12 18 -16v0z" />
</svg>
