<?xml version="1.0" standalone="no"?>
<!DOCTYPE svg PUBLIC "-//W3C//DTD SVG 1.1//EN" "http://www.w3.org/Graphics/SVG/1.1/DTD/svg11.dtd" >
<svg xmlns="http://www.w3.org/2000/svg" xmlns:xlink="http://www.w3.org/1999/xlink" version="1.1" viewBox="-10 -40 532 512">
   <path fill="currentColor"
d="M402 359l-34 34l34 -34l-34 34l-34 -34v0l-35 -35v0q9 56 -16 108q-10 22 -27 41l-34 -34v0l-77 -77v0l-64 64v0l-34 -34v0l64 -64v0l-77 -77v0l-34 -34v0q19 -17 41 -27q52 -25 109 -16l-36 -35v0l-34 -34v0l34 -34v0l76 -76v0l34 -34v0l34 34v0l46 46v0l30 -30v0
l34 -34v0l34 34v0l60 60v0l34 34v0l-34 34v0l-30 30v0l46 46v0l34 34v0l-34 34v0l-76 76v0zM398 203l-76 76l76 -76l-76 76l46 46v0l76 -76v0l-46 -46v0zM270 75l-46 -46l46 46l-46 -46l-76 76v0l46 46v0l76 -76v0zM368 45l-154 154l154 -154l-154 154q18 11 34 26
q16 16 27 34l153 -154v0l-60 -60v0zM246 395q12 -35 4 -72v0v0q-9 -36 -36 -64q-28 -28 -64 -36q-37 -8 -72 4l168 168v0z" />
</svg>
