<?xml version="1.0" standalone="no"?>
<!DOCTYPE svg PUBLIC "-//W3C//DTD SVG 1.1//EN" "http://www.w3.org/Graphics/SVG/1.1/DTD/svg11.dtd" >
<svg xmlns="http://www.w3.org/2000/svg" xmlns:xlink="http://www.w3.org/1999/xlink" version="1.1" viewBox="-10 -40 468 512">
   <path fill="currentColor"
d="M352 9q1 -27 24 -42q24 -12 48 0q23 15 24 42q-1 27 -24 42q-24 12 -48 0q-23 -15 -24 -42v0zM128 57h24h-24h218l7 7v0l12 12v0l17 17v0l-17 17v0l-96 96v0l69 60v0q14 12 14 30v89v0v24v0h-48v0v-24v0v-85v0l-85 -74v0q-19 -17 -20 -41q0 -23 18 -41t41 -39h-106h-24
v-48v0zM79 328l100 -100l-100 100l100 -100q8 12 19 23l14 12v0l-99 99v0l-17 17v0l-34 -34v0l17 -17v0zM388 406l31 7l-31 -7l31 7l-4 16v0l-8 32v0l-3 12v0h-12h-120v-32v0h16h92l5 -20v0l3 -15v0zM135 439l-32 16l32 -16l-32 16l-10 6v0l-8 -9v0l-72 -72v0l-12 -11v0
l23 -23v0l11 12v0l64 63v0l22 -10v0l14 -8v0l14 29v0l-14 7v0z" />
</svg>
