<?xml version="1.0" standalone="no"?>
<!DOCTYPE svg PUBLIC "-//W3C//DTD SVG 1.1//EN" "http://www.w3.org/Graphics/SVG/1.1/DTD/svg11.dtd" >
<svg xmlns="http://www.w3.org/2000/svg" xmlns:xlink="http://www.w3.org/1999/xlink" version="1.1" viewBox="-10 -40 532 512">
   <path fill="currentColor"
d="M352 9q1 -27 24 -42q24 -12 48 0q23 15 24 42q-1 27 -24 42q-24 12 -48 0q-23 -15 -24 -42v0zM112 57h24h-24h208l7 7v0l16 16v0l18 18v0l-20 17v0l-139 121v0l-31 109v0l293 -151v0v-41v0v-24v0h48v0v24v0v56v0v15v0l-13 6v0l-448 232v0l-22 11v0l-22 -43v0l21 -11v0
l93 -48v0l-7 -2v0l7 -23v0l46 -160v0q4 -14 14 -24q9 -9 26 -24q16 -16 35 -33h-106h-24v-48v0z" />
</svg>
