<?xml version="1.0" standalone="no"?>
<!DOCTYPE svg PUBLIC "-//W3C//DTD SVG 1.1//EN" "http://www.w3.org/Graphics/SVG/1.1/DTD/svg11.dtd" >
<svg xmlns="http://www.w3.org/2000/svg" xmlns:xlink="http://www.w3.org/1999/xlink" version="1.1" viewBox="-18 0 548 512">
   <path fill="currentColor"
d="M400 -7q27 1 42 24q12 24 0 48q-15 23 -42 24q-27 -1 -42 -24q-12 -24 0 -48q15 -23 42 -24v0zM128 89h24h-24h208l7 7v0l16 16v0l17 18v0l-18 17v0l-87 78v0h81h24v24v0v96v0v20v0l64 33v0l37 -19v0l22 -10v0l21 43v0l-21 10v0l-48 24v0l-11 6v0l-11 -6v0l-416 -216v0
l-21 -11v0l22 -42v0l21 11v0l124 64v0q-7 -19 9 -35l91 -80v0h-107h-24v-48v0zM328 273h-129h129h-129l129 67v0v-67v0z" />
</svg>
