<?xml version="1.0" standalone="no"?>
<!DOCTYPE svg PUBLIC "-//W3C//DTD SVG 1.1//EN" "http://www.w3.org/Graphics/SVG/1.1/DTD/svg11.dtd" >
<svg xmlns="http://www.w3.org/2000/svg" xmlns:xlink="http://www.w3.org/1999/xlink" version="1.1" viewBox="-10 -40 660 512">
   <path fill="currentColor"
d="M24 -7h-24h24h-24v48v0h24h8v176v0q1 48 30 82t74 44v50v0h-80h-24v48v0h24h584v-24v0v-72v0v-24v0h-48v0v24v0v48v0h-152v0v-48v0q51 -5 85 -40q34 -36 35 -88v-112v0h24h24v-48v0h-24h-168v48v0v32v0v48v0h-7v0q-21 0 -41 -4q-49 -9 -89 -36q-41 -27 -68 -70
q-22 -35 -56 -56t-75 -25q-4 -1 -8 -1v0v0h-9h-39zM392 393h-208h208h-208v-48v0h208v0v48v0zM432 297h-40h40h-272q-34 -1 -57 -23q-22 -23 -23 -57v-175v0q58 9 91 59q39 62 102 97q63 34 136 35h7h48v-48v0v-80v0h48v0v112v0q-1 34 -23 57q-23 22 -57 23v0z" />
</svg>
