<?xml version="1.0" standalone="no"?>
<!DOCTYPE svg PUBLIC "-//W3C//DTD SVG 1.1//EN" "http://www.w3.org/Graphics/SVG/1.1/DTD/svg11.dtd" >
<svg xmlns="http://www.w3.org/2000/svg" xmlns:xlink="http://www.w3.org/1999/xlink" version="1.1" viewBox="-10 -40 659 512">
   <path fill="currentColor"
d="M248 -15v-24v24v-24h-48v0v24v0v46v0l-17 -17v0l-17 -17v0l-33 34v0l17 17v0l50 51v0v76v0l-66 -38v0l-19 -69v0l-6 -23v0l-46 12v0l6 24v0l6 22v0l-26 -15v0l-21 -12v0l-24 42v0l21 12v0l26 15v0l-23 6v0l-23 6v0l13 47v0l23 -7v0l69 -18v0l66 38v0l-66 38v0l-69 -18v0
l-23 -6v0l-13 46v0l23 6v0l23 6v0l-26 15v0l-21 12v0l24 42v0l21 -12v0l26 -15v0l-6 23v0l-6 23v0l46 12v0l6 -23v0l19 -69v0l66 -38v0v76v0l-51 51v0l-17 17v0l34 34v0l17 -17v0l17 -17v0v46v0v24v0h48v0v-24v0v-46v0l17 17v0l17 17v0l34 -34v0l-17 -17v0l-51 -51v0v-76v0
l66 38v0l19 69v0l6 23v0l46 -12v0l-6 -23v0l-6 -23v0l26 15v0l21 12v0l24 -42v0l-21 -12v0l-26 -15v0l23 -6v0l23 -6v0l-12 -47v0l-24 7v0l-69 18v0l-66 -38v0l66 -38v0l69 18v0l24 7v0l12 -47v0l-23 -6v0l-23 -6v0l26 -15v0l21 -12v0l-24 -42v0l-21 12v0l-26 15v0l6 -22v0
l6 -24v0l-46 -12v0l-6 23v0l-19 69v0l-66 38v0v-76v0l51 -51v0l17 -17v0l-34 -33v0l-17 17v0l-17 16v0v-46v0zM510 25l-28 28l28 -28l-28 28l34 34v0l28 -28v0l28 28v0l34 -34v0l-28 -28v0l28 -28v0l-34 -34v0l-28 28v0l-28 -28v0l-34 34v0l28 28v0zM547 154l-34 34l34 -34
l-34 34l17 17v0l12 12v0l-12 12v0l-17 17v0l34 34v0l17 -17v0l12 -12v0l12 12v0l17 17v0l34 -34v0l-17 -17v0l-12 -12v0l12 -12v0l17 -17v0l-34 -34v0l-17 17v0l-12 12v0l-12 -12v0l-17 -17v0z" />
</svg>
