<?xml version="1.0" standalone="no"?>
<!DOCTYPE svg PUBLIC "-//W3C//DTD SVG 1.1//EN" "http://www.w3.org/Graphics/SVG/1.1/DTD/svg11.dtd" >
<svg xmlns="http://www.w3.org/2000/svg" xmlns:xlink="http://www.w3.org/1999/xlink" version="1.1" viewBox="-10 -40 468 512">
   <path fill="currentColor"
d="M0 49q1 -37 26 -62v0v0q25 -25 62 -26h336h24v24v0v352v0v24v0h-24h-8v64v0h8h24v48v0h-24h-344q-34 -1 -57 -23q-22 -23 -23 -57v-8v0v0v-336v0zM80 361q-14 0 -23 9v0v0q-9 9 -9 23t9 23t23 9h288v0v-64v0h-288v0zM48 320q15 -7 32 -7h48v0l32 -96v0h160v0l32 96v0h48
v0v-304v0h-312v0q-17 0 -28 12q-12 11 -12 28v271v0zM176 121q1 -36 32 -55q32 -18 64 0q31 19 32 55q-1 36 -32 55q-32 18 -64 0q-31 -19 -32 -55v0z" />
</svg>
