<?xml version="1.0" standalone="no"?>
<!DOCTYPE svg PUBLIC "-//W3C//DTD SVG 1.1//EN" "http://www.w3.org/Graphics/SVG/1.1/DTD/svg11.dtd" >
<svg xmlns="http://www.w3.org/2000/svg" xmlns:xlink="http://www.w3.org/1999/xlink" version="1.1" viewBox="-10 -40 532 512">
   <path fill="currentColor"
d="M112 169v48v-48v48v176v0h288v0v-176v0v-48v0h48v0q15 -1 16 -16q0 -52 -75 -84q-38 -15 -75 -22q-37 -6 -58 -6t-58 6q-37 7 -75 22q-75 32 -75 84q1 15 16 16h48v0zM448 393v48v-48v48h-48h-336v-48v0v-128v0v-48v0q-27 -1 -45 -19t-19 -45q3 -63 52 -98t109 -49
t95 -13q35 -1 95 13t109 49t52 98q-1 27 -19 45t-45 19v48v0v128v0z" />
</svg>
