<?xml version="1.0" standalone="no"?>
<!DOCTYPE svg PUBLIC "-//W3C//DTD SVG 1.1//EN" "http://www.w3.org/Graphics/SVG/1.1/DTD/svg11.dtd" >
<svg xmlns="http://www.w3.org/2000/svg" xmlns:xlink="http://www.w3.org/1999/xlink" version="1.1" viewBox="-10 -40 532 512">
   <path fill="currentColor"
d="M242 23q7 -27 28 -44v0v0q21 -17 50 -18q17 0 32 7q15 -7 32 -7q26 0 46 15q20 14 29 38q24 9 38 29q15 20 15 46q0 17 -7 32q4 9 6 20q4 32 -13 57t-48 33l-242 242v0h-96v0l-112 -112v0v-96v0l242 -242v0zM54 279q27 10 58 10q58 -1 101 -34q43 -32 60 -85q7 -23 7 -49
q0 -31 -10 -58l-216 216v0zM48 341l84 84l-84 -84l84 84h56v0l222 -222v0q-27 -10 -58 -10q-20 0 -38 4q-24 63 -78 101t-124 39q-34 0 -64 -10v14v0z" />
</svg>
