<?xml version="1.0" standalone="no"?>
<!DOCTYPE svg PUBLIC "-//W3C//DTD SVG 1.1//EN" "http://www.w3.org/Graphics/SVG/1.1/DTD/svg11.dtd" >
<svg xmlns="http://www.w3.org/2000/svg" xmlns:xlink="http://www.w3.org/1999/xlink" version="1.1" viewBox="-10 -40 532 512">
   <path fill="currentColor"
d="M61 130q38 -70 108 -108l110 202v0l-15 16v0l-203 -110v0zM190 -39q-67 23 -117 73v0v0q-50 50 -73 117l14 8v0q-14 43 -14 90q1 75 34 137q12 21 26 40h1v0l23 -19v0q41 44 99 66l41 -32v0l-16 -96v0v-34v0l35 -27v0l29 15v0l66 -66v0l-15 -29v0l27 -35v0h34v0l96 16v0
l32 -41v0q-22 -58 -66 -98l19 -24v0v0v0q-19 -15 -40 -27q-62 -33 -137 -34q-47 0 -90 14l-8 -14v0zM417 84q22 21 37 48l-62 -10v0l-4 -1v0v0v0l29 -37v0zM160 349v0v0v0l1 4v0l10 62v0q-27 -15 -48 -37l37 -29v0zM48 249q0 -35 9 -66l140 76v0l-124 97v0q-25 -49 -25 -107
v0zM395 34l-97 124l97 -124l-97 124l-76 -140v0q31 -9 66 -9q58 0 107 25v0z" />
</svg>
