<?xml version="1.0" standalone="no"?>
<!DOCTYPE svg PUBLIC "-//W3C//DTD SVG 1.1//EN" "http://www.w3.org/Graphics/SVG/1.1/DTD/svg11.dtd" >
<svg xmlns="http://www.w3.org/2000/svg" xmlns:xlink="http://www.w3.org/1999/xlink" version="1.1" viewBox="-10 -40 531 512">
   <path fill="currentColor"
d="M340 -21l154 154l-154 -154l154 154l17 17v0l-34 34v0l-17 -17v0l-154 -154v0l-17 -17v0l34 -34v0l17 17v0zM151 176l136 -136l-136 136l136 -136l34 34v0l-71 71v0l78 78v0l71 -71v0l34 34v0l-136 136v0l-5 5v0l-7 1v0l-137 31v0l-96 96v0l-17 17v0l-34 -34v0l17 -17v0
l96 -96v0l31 -137v0l1 -7v0l5 -5v0zM294 257l-78 -78l78 78l-78 -78l-26 26v0l-22 100v0l100 -22v0l26 -26v0z" />
</svg>
