<?xml version="1.0" standalone="no"?>
<!DOCTYPE svg PUBLIC "-//W3C//DTD SVG 1.1//EN" "http://www.w3.org/Graphics/SVG/1.1/DTD/svg11.dtd" >
<svg xmlns="http://www.w3.org/2000/svg" xmlns:xlink="http://www.w3.org/1999/xlink" version="1.1" viewBox="-10 -40 659 512">
   <path fill="currentColor"
d="M375 370l85 85l-85 -85l85 85l17 17v0l34 -34v0l-17 -17v0l-64 -64v0l-55 13v0zM56 163l151 151l-151 -151l151 151l6 -5v0l10 -47v0l-133 -133v0l78 -78v0l95 95v0l34 -34v0l-95 -95v0l4 -4v0l17 -17v0l-34 -34v0l-17 17v0l-154 154v0l-17 17v0l34 34v0l17 -17v0l4 -4v0
zM451 -38l-34 34l34 -34l-34 34l17 17v0l154 154v0l17 17v0l34 -34v0l-17 -17v0l-154 -154v0l-17 -17v0zM415 40l-136 136l136 -136l-136 136l-5 5v0l-1 7v0l-31 137v0l-96 96v0l-17 17v0l34 34v0l17 -17v0l96 -96v0l137 -31v0l7 -1v0l5 -5v0l136 -136v0l-33 -34v0l-72 71v0
l-78 -78v0l71 -71v0l-34 -34v0zM344 179l78 78l-78 -78l78 78l-26 26v0l-100 22v0l22 -100v0l26 -26v0z" />
</svg>
