<?xml version="1.0" standalone="no"?>
<!DOCTYPE svg PUBLIC "-//W3C//DTD SVG 1.1//EN" "http://www.w3.org/Graphics/SVG/1.1/DTD/svg11.dtd" >
<svg xmlns="http://www.w3.org/2000/svg" xmlns:xlink="http://www.w3.org/1999/xlink" version="1.1" viewBox="-10 -40 532 512">
   <path fill="currentColor"
d="M276 49l-9 14l9 -14l-9 14q-25 36 -63 53q-39 17 -82 10l-60 -10v0q-12 -1 -14 12q0 5 4 9l-34 34v0q-18 -18 -18 -43q1 -29 21 -46q21 -17 49 -13l60 10v0q29 4 55 -7t42 -35l9 -15v0q20 -28 55 -29q24 0 42 14q17 15 23 38l7 31v0q6 28 26 46q20 19 47 25l28 5v0
q21 4 35 20q13 16 13 37q-2 39 -37 54l-37 15v0q-25 10 -39 31q-15 21 -15 48v25v0q-1 25 -17 42q-17 16 -42 17q-21 0 -37 -13l-31 -25v0q-33 -26 -75 -26h-10v0q-12 0 -24 3l-62 13v0q-28 6 -48 -11q-21 -16 -22 -45q0 -24 17 -41l13 -13v0q18 -17 18 -42q0 -24 -17 -41
l-29 -29v0l34 -34v0l29 29v0q30 31 31 75q-1 45 -32 77l-13 12v0q-3 3 -3 7q1 10 12 9l62 -13v0q17 -4 34 -4h10v0q59 1 105 37l31 24v0q3 3 7 3q10 -1 11 -11v-26v0q1 -41 23 -74q23 -33 62 -49l36 -14v0q7 -3 7 -10q0 -8 -8 -10l-28 -5v0q-42 -8 -72 -37t-40 -71l-7 -31v0
q-4 -13 -18 -14q-9 0 -15 8v0zM120 185l40 -40l-40 40l40 -40l40 40v0l-40 40v0l-40 -40v0zM248 281l40 -40l-40 40l40 -40l40 40v0l-40 40v0l-40 -40v0zM304 193l-24 -24l24 24l-24 -24l24 -24v0l24 24v0l-24 24v0z" />
</svg>
