<?xml version="1.0" standalone="no"?>
<!DOCTYPE svg PUBLIC "-//W3C//DTD SVG 1.1//EN" "http://www.w3.org/Graphics/SVG/1.1/DTD/svg11.dtd" >
<svg xmlns="http://www.w3.org/2000/svg" xmlns:xlink="http://www.w3.org/1999/xlink" version="1.1" viewBox="-10 -40 404 512">
   <path fill="currentColor"
d="M192 409q-58 -2 -100 -48v0v0q-42 -46 -44 -112q0 -37 10 -78q11 -40 31 -75q41 -70 103 -71q62 1 103 71q20 35 31 75q10 41 10 78q-2 66 -44 112t-100 48v0zM0 249q1 54 26 101v0v0q26 47 69 77v0v0q43 29 97 30q54 -1 97 -30q43 -30 69 -77q25 -47 26 -101
q0 -58 -21 -120q-22 -63 -64 -106q-43 -44 -107 -46q-64 2 -107 46q-42 43 -64 106q-21 62 -21 120v0zM112 249q0 -38 15 -83q16 -44 44 -71l-22 -24v0q-35 35 -52 85q-17 49 -17 93v16v0h32v0v-16v0z" />
</svg>
