<?xml version="1.0" standalone="no"?>
<!DOCTYPE svg PUBLIC "-//W3C//DTD SVG 1.1//EN" "http://www.w3.org/Graphics/SVG/1.1/DTD/svg11.dtd" >
<svg xmlns="http://www.w3.org/2000/svg" xmlns:xlink="http://www.w3.org/1999/xlink" version="1.1" viewBox="-10 -40 522 512">
   <path fill="currentColor"
d="M32 185v-32v32v-32q0 -1 2 -16q2 -22 20 -55q19 -34 66 -61q47 -26 136 -28q89 2 136 28q47 27 66 61q18 33 20 55q2 15 2 16v32v0h-48h-400zM99 101q-13 20 -16 36h346v0q-3 -16 -16 -36q-12 -20 -45 -38v2q-1 15 -16 16q-14 -1 -16 -16q0 -8 6 -13q-28 -9 -72 -11
q2 4 2 8q-1 15 -16 16q-15 -1 -16 -16q0 -4 2 -8q-44 2 -72 11q6 5 6 13q-1 15 -16 16q-14 -1 -16 -16v-1v-1q-33 18 -45 38v0zM80 393h352h-352h352v-32v0h-352v0v32v0zM32 313h48h-48h448v48v0v32v0v48v0h-48h-400v-48v0v-32v0v-48v0zM496 217v64v-64v64h-480v0v-64v0h480
v0z" />
</svg>
