<?xml version="1.0" standalone="no"?>
<!DOCTYPE svg PUBLIC "-//W3C//DTD SVG 1.1//EN" "http://www.w3.org/Graphics/SVG/1.1/DTD/svg11.dtd" >
<svg xmlns="http://www.w3.org/2000/svg" xmlns:xlink="http://www.w3.org/1999/xlink" version="1.1" viewBox="-10 -40 532 512">
   <path fill="currentColor"
d="M112 57h-50h50h-50q0 -30 31 -61q30 -32 97 -35q44 1 72 16q28 16 42 37q29 -20 80 -21q67 3 98 35q30 31 30 61h-64v0l-32 -32v0l-32 32v0h-65v0q6 23 10 60q4 34 1 77q-2 42 -15 90q40 9 67 38q27 30 33 71q1 8 1 16v32v0h-48h-336v-32v0q0 -8 1 -16q7 -48 42 -80
q35 -31 85 -32h25v0q37 -87 43 -151q2 -15 3 -27l-83 83v0q-21 -21 -22 -65t45 -93q1 -3 4 -4l-31 -31v0l-32 32v0zM237 313h29h-29h29q13 -45 16 -86t-1 -74q-1 -9 -2 -17q-1 14 -3 32q-6 62 -39 145v0zM288 361h-128h128h-128q-30 1 -51 18q-21 18 -27 46h284v0
q-6 -28 -27 -46q-21 -17 -51 -18v0z" />
</svg>
