<?xml version="1.0" standalone="no"?>
<!DOCTYPE svg PUBLIC "-//W3C//DTD SVG 1.1//EN" "http://www.w3.org/Graphics/SVG/1.1/DTD/svg11.dtd" >
<svg xmlns="http://www.w3.org/2000/svg" xmlns:xlink="http://www.w3.org/1999/xlink" version="1.1" viewBox="-10 -40 533 512">
   <path fill="currentColor"
d="M476 63q-13 -19 -30 -36q-46 -46 -100 -61q-26 -7 -56 -4q-29 4 -54 27l-52 52v0q-55 57 -56 136v95v0l-26 26v0q-17 -16 -42 -17q-25 1 -42 18t-18 42q1 25 18 42t42 18h12v0v12v0q1 25 18 42t42 18q25 -1 42 -18t18 -42q-1 -25 -17 -42l27 -26v0h94v0q79 -1 136 -56
l52 -52v0v0v0q17 -18 23 -40q6 -21 5 -43q-2 -14 -5 -27q-9 -33 -31 -65v1zM463 178q-3 15 -13 25v0v0q-24 21 -64 11q-40 -11 -78 -48q-38 -39 -49 -79q-10 -41 11 -64q3 -3 6 -5h1q0 -1 1 -1q4 -3 9 -4l1 -1h2q25 -8 58 5t65 44q16 16 27 34q15 23 21 45v0q0 2 1 4
q4 18 1 32v2v0zM389 263q-40 33 -93 34h-120v0v-120v0q1 -53 34 -93q1 8 3 15q15 54 61 100t100 61q7 2 15 3v0zM388 141q6 -7 3 -20v0v0q-3 -12 -15 -24t-24 -15t-20 3q-6 8 -3 20t15 24t24 15q13 3 20 -3v0z" />
</svg>
