<?xml version="1.0" standalone="no"?>
<!DOCTYPE svg PUBLIC "-//W3C//DTD SVG 1.1//EN" "http://www.w3.org/Graphics/SVG/1.1/DTD/svg11.dtd" >
<svg xmlns="http://www.w3.org/2000/svg" xmlns:xlink="http://www.w3.org/1999/xlink" version="1.1" viewBox="-10 -40 596 512">
   <path fill="currentColor"
d="M290 183l113 -113l-113 113l113 -113l34 -34v0q-17 -17 -37 -31q-63 -43 -144 -44q-72 1 -129 35q-58 34 -92 92q-34 57 -35 129q1 72 35 129q34 58 92 92q57 34 129 35q81 -1 144 -44q20 -14 37 -31l-34 -34v0l-113 -113v0l-34 -34v0l34 -34v0zM254 283q-13 7 -14 22
q2 22 24 24q16 -1 22 -14l32 32v0q-28 14 -62 14q-61 -2 -102 -42q-40 -41 -42 -102q2 -61 42 -102q41 -40 102 -42q34 0 62 14l-96 96v0l-34 34v0l34 34v0l32 32v0zM342 371l23 23l-23 -23l23 23q-48 30 -109 31q-88 -2 -147 -61t-61 -147q2 -88 61 -147t147 -61
q61 1 109 31l-23 23v0q-39 -22 -86 -22q-75 2 -124 52q-50 49 -52 124q2 75 52 124q49 50 124 52q47 0 86 -22v0zM497 326l-23 -23l23 23l-23 -23q22 -39 22 -86t-22 -86l23 -23v0q30 48 31 109q-1 61 -31 109v0zM464 217q0 34 -14 62l-62 -62v0l62 -62v0q14 28 14 62v0z
M532 361q43 -63 44 -144q-1 -81 -44 -144q-14 -20 -31 -37l-34 34v0l-113 113v0l-34 34v0l34 34v0l113 113v0l34 34v0q17 -17 31 -37v0zM216 153q22 -2 24 -24q-2 -22 -24 -24q-22 2 -24 24q2 22 24 24v0zM176 225q-2 -22 -24 -24q-22 2 -24 24q2 22 24 24q22 -2 24 -24v0z
" />
</svg>
