<?xml version="1.0" standalone="no"?>
<!DOCTYPE svg PUBLIC "-//W3C//DTD SVG 1.1//EN" "http://www.w3.org/Graphics/SVG/1.1/DTD/svg11.dtd" >
<svg xmlns="http://www.w3.org/2000/svg" xmlns:xlink="http://www.w3.org/1999/xlink" version="1.1" viewBox="-10 -40 532 512">
   <path fill="currentColor"
d="M173 49l-21 -37l21 37l-21 -37l2 -3v0h44v0l2 3v0l-20 37v0h-7v0zM96 9l30 55l-30 -55l30 55q-56 17 -90 63q-35 45 -36 106q2 75 52 124q49 50 124 52q12 0 23 -1q25 30 60 47q35 18 77 18q75 -2 124 -52q50 -49 52 -124q-2 -71 -46 -119q-45 -49 -114 -56q15 25 24 53
q39 14 63 46q24 33 25 76q-1 54 -37 91q-37 36 -91 37q-50 -1 -85 -33v0q-19 -16 -30 -39v0v0q-13 -26 -13 -56q1 -42 23 -74q23 -32 60 -46q13 26 13 56q0 33 -15 60t-40 45q11 22 31 37q33 -24 52 -61q20 -37 20 -81q-1 -61 -36 -106q-34 -46 -90 -63l30 -55v0l-32 -48v0
h-96v0l-32 48v0zM261 138q-45 21 -73 63v0v0q-27 42 -28 96q0 34 12 64q-53 -3 -88 -39t-36 -89q1 -54 37 -91q37 -36 91 -37q50 1 85 33v0z" />
</svg>
