<?xml version="1.0" standalone="no"?>
<!DOCTYPE svg PUBLIC "-//W3C//DTD SVG 1.1//EN" "http://www.w3.org/Graphics/SVG/1.1/DTD/svg11.dtd" >
<svg xmlns="http://www.w3.org/2000/svg" xmlns:xlink="http://www.w3.org/1999/xlink" version="1.1" viewBox="-10 -40 532 512">
   <path fill="currentColor"
d="M368 57q1 -20 14 -34v0v0q14 -13 34 -14q20 1 34 14q13 14 14 34q0 15 -8 27l40 26v0q16 -23 16 -53q-1 -41 -28 -68t-68 -28q-41 1 -68 28t-28 68q0 27 13 49l-30 30v0l-45 -45v0l-34 -34v0l-34 34v0l-60 60v0l-2 2v0l-32 32v0l-2 2v0l-60 60v0l-34 34v0l34 34v0l45 45
v0l-77 77v0l34 34v0l77 -77v0l45 45v0l34 34v0l34 -34v0l60 -60v0l2 -2v0l32 -32v0l2 -2v0l60 -60v0l34 -34v0l-34 -34v0l-45 -45v0l45 -45v0l17 -17v0l-17 -17v0q-14 -14 -14 -34v0zM288 309l-124 -124l124 124l-124 -124l60 -60v0l124 124v0l-60 60v0zM192 405l-124 -124
l124 124l-124 -124l60 -60v0l124 124v0l-60 60v0z" />
</svg>
