<?xml version="1.0" standalone="no"?>
<!DOCTYPE svg PUBLIC "-//W3C//DTD SVG 1.1//EN" "http://www.w3.org/Graphics/SVG/1.1/DTD/svg11.dtd" >
<svg xmlns="http://www.w3.org/2000/svg" xmlns:xlink="http://www.w3.org/1999/xlink" version="1.1" viewBox="-10 -40 531 512">
   <path fill="currentColor"
d="M218 51q45 -42 102 -42v0v0q57 0 102 42q3 4 7 7q-25 -9 -53 -9q-65 2 -107 45q-43 42 -45 107q0 27 9 51l-9 9v0l-6 -6v0q-42 -45 -42 -102t42 -102v0zM456 17q-59 -56 -136 -56v0v0q-77 0 -136 56q-56 59 -56 136t56 136l23 23v0l17 17v0l17 -17v0l37 -37v0l12 -13v0
l-7 -15v0q-11 -21 -11 -46q1 -44 30 -74q30 -29 74 -30q29 0 53 14q24 15 38 39l44 -14v0q-6 -67 -55 -119v0zM0 409l64 64l-64 -64l64 64l88 -88v0l24 24v0l48 -48v0l-112 -112v0l-48 48v0l24 24v0l-88 88v0z" />
</svg>
