<?xml version="1.0" standalone="no"?>
<!DOCTYPE svg PUBLIC "-//W3C//DTD SVG 1.1//EN" "http://www.w3.org/Graphics/SVG/1.1/DTD/svg11.dtd" >
<svg xmlns="http://www.w3.org/2000/svg" xmlns:xlink="http://www.w3.org/1999/xlink" version="1.1" viewBox="-10 -40 532 512">
   <path fill="currentColor"
d="M326 47l88 -3l-88 3l88 -3l25 85v0l73 50v0l-22 62v0q-40 -55 -101 -87q-60 -32 -133 -33q-73 1 -133 33q-61 32 -101 87l-22 -62v0l73 -50v0l25 -85v0l88 3v0l70 -54v0l70 54v0zM512 393v16v32v0h-48h-464v-32v0q0 -8 1 -16q4 -68 39 -122t91 -86q56 -31 125 -32
q69 1 125 32q56 32 91 86t40 122v0zM49 393h414h-414h414q-8 -82 -65 -136q-58 -54 -142 -56q-84 2 -142 56q-57 54 -65 136v0zM184 265q2 -22 24 -24q22 2 24 24q-2 22 -24 24q-22 -2 -24 -24v0zM120 329q2 -22 24 -24q22 2 24 24q-2 22 -24 24q-22 -2 -24 -24v0z" />
</svg>
