<?xml version="1.0" standalone="no"?>
<!DOCTYPE svg PUBLIC "-//W3C//DTD SVG 1.1//EN" "http://www.w3.org/Graphics/SVG/1.1/DTD/svg11.dtd" >
<svg xmlns="http://www.w3.org/2000/svg" xmlns:xlink="http://www.w3.org/1999/xlink" version="1.1" viewBox="-10 -40 660 512">
   <path fill="currentColor"
d="M144 -39q45 1 69 40q22 40 0 80q-24 39 -69 40q-45 -1 -69 -40q-22 -40 0 -80q24 -39 69 -40v0zM512 -39q45 1 69 40q22 40 0 80q-24 39 -69 40q-45 -1 -69 -40q-22 -40 0 -80q24 -39 69 -40v0zM48 153h148h-148h148q-4 15 -4 32q2 59 43 96h-235v0l48 -128v0zM640 281
h-32h32h-32v-32v0h-32h-96v32v0h-75v0q41 -37 43 -96q0 -17 -4 -32h148v0l48 128v0zM176 313h240h-240h240v32v0v16v0h-204v0l-19 64v0h223v0v16v0h32h32v32v0h-18h-334l14 -48v0l34 -112v0zM320 233q27 -1 42 -24q12 -24 0 -48q-15 -23 -42 -24q-27 1 -42 24q-12 24 0 48
q15 23 42 24v0zM320 89q26 0 48 13v0v0q22 13 35 35q13 23 13 48t-13 48q-13 22 -35 35t-48 13t-48 -13t-35 -35q-13 -23 -13 -48t13 -48q13 -22 35 -35t48 -13v0zM512 281h64h-64h64v64v0h64v0v64v0h-64v0v64v0h-64v0v-64v0h-64v0v-64v0h64v0v-64v0z" />
</svg>
