<?xml version="1.0" standalone="no"?>
<!DOCTYPE svg PUBLIC "-//W3C//DTD SVG 1.1//EN" "http://www.w3.org/Graphics/SVG/1.1/DTD/svg11.dtd" >
<svg xmlns="http://www.w3.org/2000/svg" xmlns:xlink="http://www.w3.org/1999/xlink" version="1.1" viewBox="-10 -40 468 512">
   <path fill="currentColor"
d="M117 -39h19h-19h291v24v0v365v0q18 7 29 23t11 36q-1 27 -19 45t-45 19q-27 -1 -45 -19t-19 -45q0 -20 11 -36t29 -23v-165v0h-245v0l-60 261v0l-5 24v0l-47 -11v0l6 -23v0l104 -456v0l4 -19v0zM126 137h234h-234h234v-128v0h-205v0l-29 128v0zM384 425q15 -1 16 -16
q-1 -15 -16 -16q-15 1 -16 16q1 15 16 16v0z" />
</svg>
