<?xml version="1.0" standalone="no"?>
<!DOCTYPE svg PUBLIC "-//W3C//DTD SVG 1.1//EN" "http://www.w3.org/Graphics/SVG/1.1/DTD/svg11.dtd" >
<svg xmlns="http://www.w3.org/2000/svg" xmlns:xlink="http://www.w3.org/1999/xlink" version="1.1" viewBox="-10 -40 468 512">
   <path fill="currentColor"
d="M256 -39h-64h64h-64v51v0q-56 12 -91 55q-36 43 -37 102v88v0l-64 72v0v48v0h48h400v-48v0l-64 -72v0v-88v0q-1 -59 -37 -102q-35 -43 -91 -55v-51v0zM336 275l12 14l-12 -14l12 14l36 40v0h-320v0l36 -40v0l12 -14v0v-18v0v-88v0q1 -48 33 -79q31 -32 79 -33q48 1 79 33
q32 31 33 79v88v0v18v0zM288 409h-64h64h-128q0 26 19 45t45 19t45 -19t19 -45v0zM248 89h-48h48h-48v24v0v80v0v24v0h48v0v-24v0v-80v0v-24v0zM248 257h-48h48h-48v48v0h48v0v-48v0z" />
</svg>
