<?xml version="1.0" standalone="no"?>
<!DOCTYPE svg PUBLIC "-//W3C//DTD SVG 1.1//EN" "http://www.w3.org/Graphics/SVG/1.1/DTD/svg11.dtd" >
<svg xmlns="http://www.w3.org/2000/svg" xmlns:xlink="http://www.w3.org/1999/xlink" version="1.1" viewBox="-10 -40 660 512">
   <path fill="currentColor"
d="M352 9q1 -27 24 -42q24 -12 48 0q23 15 24 42q-1 27 -24 42q-24 12 -48 0q-23 -15 -24 -42v0zM328 68l13 9l-13 -9l13 9l82 52v0h57h24v48v0h-24h-71l-6 -4v0l-74 -47v0l-59 40v0q-8 6 -7 15q0 8 8 13l68 34v0l13 6v0v15v0v128v0v24v0h-48v0v-24v0v-113v0l-54 -27v0
q-33 -19 -35 -53q-3 -34 27 -57l72 -50v0l14 -9v0zM96 217h64h-64h64v21v0q11 3 21 8l15 -14v0l45 45v0l-14 15v0q5 10 8 21h21v0v64v0h-21v0q-3 11 -8 21l14 15v0l-45 45v0l-15 -14v0q-10 5 -21 8v21v0h-64v0v-21v0q-11 -3 -21 -8l-15 14v0l-45 -45v0l15 -15v0
q-6 -10 -9 -21h-21v0v-64v0h21v0q3 -11 8 -21l-14 -15v0l45 -45v0l15 14v0q10 -5 21 -8v-21v0zM192 345q-1 -36 -32 -55q-32 -18 -64 0q-31 19 -32 55q1 36 32 55q32 18 64 0q31 -19 32 -55v0zM544 217v21v-21v21q11 3 21 8l15 -14v0l45 45v0l-14 15v0q5 10 8 21h21v0v64v0
h-21v0q-3 11 -8 21l14 15v0l-45 45v0l-15 -14v0q-10 5 -21 8v21v0h-64v0v-21v0q-11 -3 -21 -8l-15 14v0l-45 -45v0l14 -15v0q-5 -10 -8 -21h-21v0v-64v0h21v0q3 -11 8 -21l-14 -15v0l45 -45v0l15 14v0q10 -5 21 -8v-21v0h64v0zM512 409q36 -1 55 -32q18 -32 0 -64
q-19 -31 -55 -32q-36 1 -55 32q-18 32 0 64q19 31 55 32v0zM176 137l-64 -80l64 80l-64 -80l101 -76v0h43v0l48 60v0l-128 96v0z" />
</svg>
