<?xml version="1.0" standalone="no"?>
<!DOCTYPE svg PUBLIC "-//W3C//DTD SVG 1.1//EN" "http://www.w3.org/Graphics/SVG/1.1/DTD/svg11.dtd" >
<svg xmlns="http://www.w3.org/2000/svg" xmlns:xlink="http://www.w3.org/1999/xlink" version="1.1" viewBox="-10 -40 468 512">
   <path fill="currentColor"
d="M448 17v-24v24v-24h-48v0v24v0v376v0h-376h-24v48v0h24h424v-24v0v-400v0zM352 57v-64v64v-64h-64v0v64v0h64v0zM160 57v-64v64v-64h-64v0v64v0h64v0zM256 -7h-64h64h-64v64v0h64v0v-64v0zM64 57v-64v64v-64h-64v0v64v0h64v0zM64 185h-64h64h-64v64v0h64v0v-64v0zM64 153
v-64v64v-64h-64v0v64v0h64v0zM64 281h-64h64h-64v64v0h64v0v-64v0z" />
</svg>
