<?xml version="1.0" standalone="no"?>
<!DOCTYPE svg PUBLIC "-//W3C//DTD SVG 1.1//EN" "http://www.w3.org/Graphics/SVG/1.1/DTD/svg11.dtd" >
<svg xmlns="http://www.w3.org/2000/svg" xmlns:xlink="http://www.w3.org/1999/xlink" version="1.1" viewBox="-10 -40 596 512">
   <path fill="currentColor"
d="M304 25q-1 -27 -24 -42q-24 -12 -48 0q-23 15 -24 42q1 27 24 42q24 12 48 0q23 -15 24 -42v0zM352 377h-64h64h-64l-16 48v0l-16 48v0h51h269v-48v0l-98 -135v0l-30 -41v0l-30 40v0l-18 24v0v0v0l-92 -39v0l-53 -145v0l-4 -11v0l-11 -4v0l-88 -32v0l-17 -6v0l-10 15v0
l-61 81v0l-23 -9v0l-22 -9v0l-18 44v0l22 9v0l348 145v0l-19 25v0zM109 191l44 -57l-44 57l44 -57l60 22v0l35 93v0l-139 -58v0zM447 330l70 95l-70 -95l70 95h-141v0l14 -19v0l57 -76v0zM81 262l-26 -11l26 11l-26 -11l-6 28v0l-47 194v0h49v0l38 -156v0l87 38v0v94v0v24v0
h48v0v-24v0v-110v0v-16v0l-15 -6v0l-128 -55v0z" />
</svg>
