<?xml version="1.0" standalone="no"?>
<!DOCTYPE svg PUBLIC "-//W3C//DTD SVG 1.1//EN" "http://www.w3.org/Graphics/SVG/1.1/DTD/svg11.dtd" >
<svg xmlns="http://www.w3.org/2000/svg" xmlns:xlink="http://www.w3.org/1999/xlink" version="1.1" viewBox="-10 -40 468 512">
   <path fill="currentColor"
d="M48 9v416v-416v416h352v0v-416v0h-352v0zM0 -39h48h-48h448v48v0v416v0v48v0h-48h-400v-48v0v-416v0v-48v0zM104 41q22 2 24 24q-2 22 -24 24q-22 -2 -24 -24q2 -22 24 -24v0zM160 65q2 -22 24 -24q22 2 24 24q-2 22 -24 24q-22 -2 -24 -24v0zM80 249q0 -39 19 -72v0v0
q19 -33 53 -53q34 -19 72 -19t72 19q34 20 53 53t19 72t-19 72t-53 53q-34 19 -72 19t-72 -19q-34 -20 -53 -53t-19 -72v0zM200 178l-13 -12l13 12l-13 -12l-22 22v0l12 13v0q7 7 7 16t-7 16l-9 9v0q-16 16 -16 39t16 39l13 12v0l22 -22v0l-12 -13v0q-7 -7 -7 -16t7 -16
l9 -9v0q16 -16 16 -39t-16 -39v0zM280 178l-13 -12l13 12l-13 -12l-22 22v0l12 13v0q7 7 7 16t-7 16l-9 9v0q-16 16 -16 39t16 39l13 12v0l22 -22v0l-12 -13v0q-7 -7 -7 -16t7 -16l9 -9v0q16 -16 16 -39t-16 -39v0z" />
</svg>
