<?xml version="1.0" standalone="no"?>
<!DOCTYPE svg PUBLIC "-//W3C//DTD SVG 1.1//EN" "http://www.w3.org/Graphics/SVG/1.1/DTD/svg11.dtd" >
<svg xmlns="http://www.w3.org/2000/svg" xmlns:xlink="http://www.w3.org/1999/xlink" version="1.1" viewBox="-10 -40 404 512">
   <path fill="currentColor"
d="M48 425v-416v416v-416h176v0v112v0h112v0v304v0h-288v0zM256 -39h-208h208h-256v48v0v416v0v48v0h48h336v-48v0v-336v0l-128 -128v0zM272 265q-1 -41 -28 -68v0v0q-27 -27 -68 -28q-41 1 -68 28t-28 68q1 41 28 68t68 28q27 0 49 -13l38 38v0l17 17v0l34 -34v0l-17 -17v0
l-38 -38v0q13 -22 13 -49v0zM176 217q27 1 42 24q12 24 0 48q-15 23 -42 24q-27 -1 -42 -24q-12 -24 0 -48q15 -23 42 -24v0z" />
</svg>
