<?xml version="1.0" standalone="no"?>
<!DOCTYPE svg PUBLIC "-//W3C//DTD SVG 1.1//EN" "http://www.w3.org/Graphics/SVG/1.1/DTD/svg11.dtd" >
<svg xmlns="http://www.w3.org/2000/svg" xmlns:xlink="http://www.w3.org/1999/xlink" version="1.1" viewBox="-10 -40 532 512">
   <path fill="currentColor"
d="M373 201q39 -3 64 -30v0v0q26 -26 27 -66q-1 -41 -28 -68t-68 -28q-27 0 -49 13q-21 13 -34 35h-53v0q16 -43 52 -69t84 -27q61 2 102 42q40 41 42 102q-2 61 -42 102q-41 40 -102 42v0v0l5 -48v0zM62 217h228h-228h228l9 -80v0h-246v0l9 80v0zM67 265l16 160l-16 -160
l16 160h186v0l16 -160v0h-218v0zM312 473h-272h272h-272l-35 -336v0l-5 -48v0h48h304l-5 48v0l-35 336v0z" />
</svg>
