<?xml version="1.0" standalone="no"?>
<!DOCTYPE svg PUBLIC "-//W3C//DTD SVG 1.1//EN" "http://www.w3.org/Graphics/SVG/1.1/DTD/svg11.dtd" >
<svg xmlns="http://www.w3.org/2000/svg" xmlns:xlink="http://www.w3.org/1999/xlink" version="1.1" viewBox="-10 -40 532 512">
   <path fill="currentColor"
d="M126 -17q-22 -22 -53 -22q-31 1 -51 21q-21 21 -22 52q1 31 23 53l105 98v0l105 -98v0q22 -22 23 -53q-1 -31 -22 -52q-20 -20 -51 -21q-31 0 -53 22l-2 2v0l-2 -2v0zM128 119l-72 -67l72 67l-72 -67q-8 -8 -8 -18q2 -22 25 -25q11 0 19 8l33 -34v0l-33 34v0l2 2v0l34 34
v0l34 -34v0l2 -2v0q8 -8 19 -8q23 3 25 25q0 10 -8 18l-72 67v0zM224 249l-16 -32l16 32l-16 -32h-128v0l-16 32v0h-16h-48v48v0v128v0v48v0h48h240v-48v0v-128v0v-48v0h-48h-16zM240 297v128v-128v128h-192v0v-128v0h16h30l13 -26v0l3 -6v0h68v0l3 6v0l13 26v0h30h16z
M192 353q-1 -27 -24 -42q-24 -12 -48 0q-23 15 -24 42q1 27 24 42q24 12 48 0q23 -15 24 -42v0zM457 217l-137 144l137 -144l-137 144l72 11v0l-17 101v0l137 -144v0l-72 -10v0l17 -102v0zM288 217q27 -1 45 -14v0v0q18 -14 19 -34v-124v0l112 -23v0v69v0q-8 -2 -16 -2
q-27 1 -45 14q-18 14 -19 34q1 20 19 34q18 13 45 14q27 -1 45 -14q18 -14 19 -34v-144v0v-29v0l-29 6v0l-160 32v0l-19 3v0v20v0v98v0q-8 -2 -16 -2q-27 1 -45 14q-18 14 -19 34q1 20 19 34q18 13 45 14v0z" />
</svg>
