<?xml version="1.0" standalone="no"?>
<!DOCTYPE svg PUBLIC "-//W3C//DTD SVG 1.1//EN" "http://www.w3.org/Graphics/SVG/1.1/DTD/svg11.dtd" >
<svg xmlns="http://www.w3.org/2000/svg" xmlns:xlink="http://www.w3.org/1999/xlink" version="1.1" viewBox="-10 -40 659 512">
   <path fill="currentColor"
d="M443 3l9 -22l-9 22l9 -22l-44 -19v0l-9 22v0l-194 448v0l-9 22v0l44 19v0l10 -22v0l193 -448v0zM1 57l137 306l-137 -306l137 306l7 14v0h31v0l6 -14v0l137 -306v0h-53v0l-106 237v0l-106 -237v0h-53v0zM465 57l-7 14l7 -14l-7 14l-137 306v0h53v0l29 -64v0h154v0l29 64
v0h53v0l-137 -306v0l-6 -14v0h-32h1zM480 140l56 125l-56 -125l56 125h-112v0l56 -125v0z" />
</svg>
