<?xml version="1.0" standalone="no"?>
<!DOCTYPE svg PUBLIC "-//W3C//DTD SVG 1.1//EN" "http://www.w3.org/Graphics/SVG/1.1/DTD/svg11.dtd" >
<svg xmlns="http://www.w3.org/2000/svg" xmlns:xlink="http://www.w3.org/1999/xlink" version="1.1" viewBox="-10 -40 650 512">
   <path fill="currentColor"
d="M464 425h-288h288h-288v-96v0h-48v0v96v0v48v0h48h336v-48v0v-96v0h-48v0v96v0zM464 121v96v-96v96h48v0v-128v0l-128 -128v0h-208h-48v48v0v208v0h48v0v-208v0h176v0v112v0h112v0zM56 249h-24h24h-24v48v0h24h136v-48v0h-24h-112zM280 249h-24h24h-24v48v0h24h104v-48v0
h-24h-80zM472 249h-24h24h-24v48v0h24h136v-48v0h-24h-112z" />
</svg>
