<?xml version="1.0" standalone="no"?>
<!DOCTYPE svg PUBLIC "-//W3C//DTD SVG 1.1//EN" "http://www.w3.org/Graphics/SVG/1.1/DTD/svg11.dtd" >
<svg xmlns="http://www.w3.org/2000/svg" xmlns:xlink="http://www.w3.org/1999/xlink" version="1.1" viewBox="-10 -40 586 512">
   <path fill="currentColor"
d="M160 440l-17 -17l17 17l-17 -17l-96 -96v0l-17 -17v0l34 -34v0l17 17v0l55 55v0v-331v0v-24v0h48v0v24v0v331v0l55 -55v0l17 -17v0l34 34v0l-17 17v0l-96 96v0l-17 17v0zM360 249h24h-24h96v24v0v120v0h24h24v48v0h-24h-120v-48v0h24h24v-96v0h-24h-24v-48v0zM384 81
q1 23 20 35q20 10 40 0q19 -12 20 -35q-1 -23 -20 -35q-20 -10 -40 0q-19 12 -20 35v0zM512 81q0 32 -18 58l-56 78v0h-59v0l10 -14v0l24 -35v0q-33 -4 -55 -28q-21 -25 -22 -59q1 -37 26 -62t62 -26q37 1 62 26t26 62v0z" />
</svg>
