<?xml version="1.0" standalone="no"?>
<!DOCTYPE svg PUBLIC "-//W3C//DTD SVG 1.1//EN" "http://www.w3.org/Graphics/SVG/1.1/DTD/svg11.dtd" >
<svg xmlns="http://www.w3.org/2000/svg" xmlns:xlink="http://www.w3.org/1999/xlink" version="1.1" viewBox="-10 -40 586 512">
   <path fill="currentColor"
d="M160 440l-17 -17l17 17l-17 -17l-96 -96v0l-17 -17v0l34 -34v0l17 17v0l55 55v0v-331v0v-24v0h48v0v24v0v331v0l55 -55v0l17 -17v0l34 34v0l-17 17v0l-96 96v0l-17 17v0zM432 393v-64v64v-64h-64v0v64v0h64v0zM368 441h-48h48h-48v-48v0v-64v0v-48v0h48h112v48v0v64v0v48
v0h-48h-64zM368 169h128h-128h128v-128v0h-128v0v128v0zM320 217v-48v48v-48v-128v0v-48v0h48h176v48v0v128v0v48v0h-48h-176z" />
</svg>
