<?xml version="1.0" standalone="no"?>
<!DOCTYPE svg PUBLIC "-//W3C//DTD SVG 1.1//EN" "http://www.w3.org/Graphics/SVG/1.1/DTD/svg11.dtd" >
<svg xmlns="http://www.w3.org/2000/svg" xmlns:xlink="http://www.w3.org/1999/xlink" version="1.1" viewBox="-10 -40 586 512">
   <path fill="currentColor"
d="M368 169v-128v128v-128h128v0v128v0h-128v0zM320 217h48h-48h224v-48v0v-128v0v-48v0h-48h-176v48v0v128v0v48v0zM160 -6l-17 17l17 -17l-17 17l-96 96v0l-17 17v0l34 34v0l17 -17v0l55 -55v0v331v0v24v0h48v0v-24v0v-331v0l55 55v0l17 17v0l34 -34v0l-17 -17v0l-96 -96
v0l-17 -17v0zM432 393h-64h64h-64v-64v0h64v0v64v0zM368 441h64h-64h112v-48v0v-64v0v-48v0h-48h-112v48v0v64v0v48v0h48v0z" />
</svg>
