<?xml version="1.0" standalone="no"?>
<!DOCTYPE svg PUBLIC "-//W3C//DTD SVG 1.1//EN" "http://www.w3.org/Graphics/SVG/1.1/DTD/svg11.dtd" >
<svg xmlns="http://www.w3.org/2000/svg" xmlns:xlink="http://www.w3.org/1999/xlink" version="1.1" viewBox="-10 -40 660 512">
   <path fill="currentColor"
d="M24 -7h-24h24h-24v24v0v72v0v24v0h48v0v-24v0v-48v0h120v0v352v0h-48h-24v48v0h24h168v-48v0h-24h-48v-352v0h120v0v48v0v24v0h48v0v-24v0v-72v0v-24v0h-24h-336zM336 185h-24h24h-24v24v0v48v0v24v0h48v0v-24v0v-24v0h96v0v160v0h-32h-24v48v0h24h136v-48v0h-24h-32
v-160v0h88v0v24v0v24v0h48v0v-24v0v-48v0v-24v0h-24h-280z" />
</svg>
