<?xml version="1.0" standalone="no"?>
<!DOCTYPE svg PUBLIC "-//W3C//DTD SVG 1.1//EN" "http://www.w3.org/Graphics/SVG/1.1/DTD/svg11.dtd" >
<svg xmlns="http://www.w3.org/2000/svg" xmlns:xlink="http://www.w3.org/1999/xlink" version="1.1" viewBox="-10 -40 468 512">
   <path fill="currentColor"
d="M160 -39h-13h13h-13l-7 11v0l-46 69v0h-14h-80v48v0h32v0v336v0v48v0h48h336v-48v0v-336v0h32v0v-48v0h-32h-62l-46 -69v0l-7 -11v0h-13h-128zM297 41h-145h145h-145l21 -32v0h102v0l22 32v0zM80 425v-336v336v-336h288v0v336v0h-288v0zM242 171l-32 -36l32 36l-32 -36
l-18 16v0l-72 64v0l-20 18v0l20 18v0l72 64v0l18 16v0l32 -36v0l-18 -16v0l-25 -22v0h41v0q17 0 28 12q12 11 12 28v24v0v24v0h48v0v-24v0v-24v0q-1 -37 -26 -62t-62 -26h-41v0l25 -22v0l18 -16v0z" />
</svg>
