<?xml version="1.0" standalone="no"?>
<!DOCTYPE svg PUBLIC "-//W3C//DTD SVG 1.1//EN" "http://www.w3.org/Graphics/SVG/1.1/DTD/svg11.dtd" >
<svg xmlns="http://www.w3.org/2000/svg" xmlns:xlink="http://www.w3.org/1999/xlink" version="1.1" viewBox="-10 -40 468 512">
   <path fill="currentColor"
d="M254 28q10 -11 10 -27q0 -17 -12 -28q-11 -12 -28 -12t-28 12q-12 11 -12 28q0 16 10 27l-40 69v0h-77v0q-11 -23 -37 -24q-17 0 -28 12q-12 11 -12 28t12 28q11 12 28 12q4 0 8 -1l37 65v0l-37 65v0q-4 -1 -8 -1q-17 0 -28 12q-12 11 -12 28t12 28q11 12 28 12
q26 -1 37 -24l77 1v0l40 68v0q-10 11 -10 27q0 17 12 28q11 12 28 12t28 -12q12 -11 12 -28q0 -16 -10 -27l40 -68v0l77 -1v0q11 23 37 24q17 0 28 -12q12 -11 12 -28t-12 -28q-11 -12 -28 -12q-4 0 -8 1l-37 -65v0l37 -65v0q4 1 8 1q17 0 28 -12q12 -11 12 -28t-12 -28
q-11 -12 -28 -12q-26 1 -37 24l-77 -1v0l-40 -68v0zM224 273l56 -56l-56 56l56 -56l-56 -56v0l-56 56v0l56 56v0zM293 144l56 1l-56 -1l56 1l-27 48v0l-14 24v0l14 24v0l27 48v0l-56 1v0h-27v0l-14 23v0l-28 49v0l-28 -49v0l-14 -23v0h-27v0l-56 -1v0l27 -48v0l14 -24v0
l-13 -24v0l-28 -48v0h56v0l27 -1v0l14 -23v0l28 -49v0l28 49v0l14 23v0h28h-1z" />
</svg>
