<?xml version="1.0" standalone="no"?>
<!DOCTYPE svg PUBLIC "-//W3C//DTD SVG 1.1//EN" "http://www.w3.org/Graphics/SVG/1.1/DTD/svg11.dtd" >
<svg xmlns="http://www.w3.org/2000/svg" xmlns:xlink="http://www.w3.org/1999/xlink" version="1.1" viewBox="-10 -40 660 512">
   <path fill="currentColor"
d="M0 297q1 -48 27 -84v0v0q26 -36 69 -52v-8v0q2 -68 47 -113t113 -47q74 2 120 54q19 -6 40 -6q54 1 91 37q36 37 37 91v20v0q42 11 69 45q26 33 27 79v80v0v48v0h-48h-592v-48v0v-96v0zM592 313q-1 -28 -17 -49v0v0q-17 -21 -43 -28l-36 -10v0v-37v0v-20v0
q-1 -34 -23 -57q-23 -22 -57 -23q-13 0 -25 4l-30 10v0l-21 -24v0q-32 -37 -84 -38q-48 1 -79 33q-32 31 -33 79v8v0v34v0l-32 11v0q-29 11 -46 35q-18 24 -18 56v96v0h96h448v-80v0zM416 145v32v-32v32v128v0q-1 14 -14 23q-14 9 -34 9t-34 -9q-13 -9 -14 -23q1 -14 14 -23
q14 -9 34 -9q8 0 16 2v-75v0l-96 36v0v101v0q-1 14 -14 23q-14 9 -34 9t-34 -9q-13 -9 -14 -23q1 -14 14 -23q14 -9 34 -9q8 0 16 2v-82v0v-32v0v-11v0l10 -4v0l128 -48v0l22 -8v0v23v0z" />
</svg>
