<?xml version="1.0" standalone="no"?>
<!DOCTYPE svg PUBLIC "-//W3C//DTD SVG 1.1//EN" "http://www.w3.org/Graphics/SVG/1.1/DTD/svg11.dtd" >
<svg xmlns="http://www.w3.org/2000/svg" xmlns:xlink="http://www.w3.org/1999/xlink" version="1.1" viewBox="-10 -40 532 512">
   <path fill="currentColor"
d="M160 473l48 -32l-48 32l48 -32l96 -64v0h160h48v-48v0v-320v0v-48v0h-48h-464v48v0v320v0v48v0h48h112v38v0v10v0v48v0zM277 337l-69 46l69 -46l-69 46v-6v0v-48v0h-48h-112v-320v0h416v0v320v0h-160h-14l-13 8v0zM352 57v-23v23v-23l-22 8v0l-128 48v0l-10 4v0v11v0v32
v0v82v0q-8 -2 -16 -2q-20 0 -34 9q-13 9 -14 23q1 14 14 23q14 9 34 9t34 -9q13 -9 14 -23v-101v0l96 -36v0v75v0q-8 -2 -16 -2q-20 0 -34 9q-13 9 -14 23q1 14 14 23q14 9 34 9t34 -9q13 -9 14 -23v-128v0v-32v0z" />
</svg>
