<?xml version="1.0" standalone="no"?>
<!DOCTYPE svg PUBLIC "-//W3C//DTD SVG 1.1//EN" "http://www.w3.org/Graphics/SVG/1.1/DTD/svg11.dtd" >
<svg xmlns="http://www.w3.org/2000/svg" xmlns:xlink="http://www.w3.org/1999/xlink" version="1.1" viewBox="-10 -40 532 512">
   <path fill="currentColor"
d="M102 349l11 -29l-11 29l11 -29l-22 -22v0q-42 -43 -43 -97q1 -62 57 -110q56 -47 151 -50q95 3 151 50q56 48 57 110q-1 62 -57 110q-56 47 -151 50q-40 0 -76 -11l-14 -4v0l-13 4v0l-58 17v0l7 -18v0zM16 441l58 -17l-58 17l58 -17l92 -28v0q42 13 90 13q72 -1 129 -28
q58 -28 92 -75t35 -105q-1 -58 -35 -105t-92 -75q-57 -27 -129 -28q-72 1 -129 28q-58 28 -92 75t-35 105q2 76 57 131l-20 53v0l-21 56v0zM352 89v-23v23v-23l-22 8v0l-128 48v0l-10 4v0v11v0v32v0v82v0q-8 -2 -16 -2q-20 0 -34 9q-13 9 -14 23q1 14 14 23q14 9 34 9t34 -9
q13 -9 14 -23v-101v0l96 -36v0v75v0q-8 -2 -16 -2q-20 0 -34 9q-13 9 -14 23q1 14 14 23q14 9 34 9t34 -9q13 -9 14 -23v-128v0v-32v0z" />
</svg>
