<?xml version="1.0" standalone="no"?>
<!DOCTYPE svg PUBLIC "-//W3C//DTD SVG 1.1//EN" "http://www.w3.org/Graphics/SVG/1.1/DTD/svg11.dtd" >
<svg xmlns="http://www.w3.org/2000/svg" xmlns:xlink="http://www.w3.org/1999/xlink" version="1.1" viewBox="-10 -40 468 512">
   <path fill="currentColor"
d="M400 9v336v-336v336h-352v0v-336v0h352v0zM48 -39h-48h48h-48v48v0v336v0v48v0h32v0v32v0v48v0h48h336v-48v0v-32v0h32v0v-48v0v-336v0v-48v0h-48h-352zM80 393h288h-288h288v32v0h-288v0v-32v0zM80 41v160v-160v160h288v0v-160v0h-288v0zM208 265v32v-32v32h16h144v-32
v0h-16h-144zM120 313q22 -2 24 -24q-2 -22 -24 -24q-22 2 -24 24q2 22 24 24v0z" />
</svg>
