<?xml version="1.0" standalone="no"?>
<!DOCTYPE svg PUBLIC "-//W3C//DTD SVG 1.1//EN" "http://www.w3.org/Graphics/SVG/1.1/DTD/svg11.dtd" >
<svg xmlns="http://www.w3.org/2000/svg" xmlns:xlink="http://www.w3.org/1999/xlink" version="1.1" viewBox="-10 -40 660 512">
   <path fill="currentColor"
d="M144 265v-96v96v-96h448v0v96v0h-448v0zM96 265h-48h48h-48v-96v0h48v0v96v0zM120 121h-24h24h-120v48v0v96v0v48v0h48h592v-48v0v-96v0v-48v0h-48h-472zM320 241q22 -2 24 -24q-2 -22 -24 -24q-22 2 -24 24q2 22 24 24v0zM440 217q-2 -22 -24 -24q-22 2 -24 24
q2 22 24 24q22 -2 24 -24v0zM512 241q22 -2 24 -24q-2 -22 -24 -24q-22 2 -24 24q2 22 24 24v0z" />
</svg>
