<?xml version="1.0" standalone="no"?>
<!DOCTYPE svg PUBLIC "-//W3C//DTD SVG 1.1//EN" "http://www.w3.org/Graphics/SVG/1.1/DTD/svg11.dtd" >
<svg xmlns="http://www.w3.org/2000/svg" xmlns:xlink="http://www.w3.org/1999/xlink" version="1.1" viewBox="-10 -40 468 512">
   <path fill="currentColor"
d="M400 41v352v-352v352h-352v0v-352v0h352v0zM48 -7h-48h48h-48v48v0v352v0v48v0h48h400v-48v0v-352v0v-48v0h-48h-352zM283 214q10 3 21 3q34 -1 57 -23q22 -23 23 -57q-1 -34 -23 -57q-23 -22 -57 -23q-34 1 -57 23q-22 23 -23 57q-1 -34 -23 -57q-23 -22 -57 -23
q-34 1 -57 23q-22 23 -23 57q1 34 23 57q23 22 57 23q11 0 21 -3l-49 -49v0l-29 -28v0l57 -57v0l28 29v0l52 51v0l52 -51v0l28 -29v0l57 57v0l-29 28v0l-49 49v0zM180 230q-34 23 -36 67q1 34 23 57q23 22 57 23q34 -1 57 -23q22 -23 23 -57q-2 -44 -36 -67l-4 4v0v63v0v40
v0h-80v0v-40v0v-63v0l-4 -4v0zM155 126l-11 -12l11 12l-11 -12l-23 23v0l12 11v0l75 76v0v73v0v16v0h32v0v-16v0v-73v0l75 -76v0l12 -11v0l-23 -23v0l-11 12v0l-69 68v0l-69 -68v0z" />
</svg>
