<?xml version="1.0" standalone="no"?>
<!DOCTYPE svg PUBLIC "-//W3C//DTD SVG 1.1//EN" "http://www.w3.org/Graphics/SVG/1.1/DTD/svg11.dtd" >
<svg xmlns="http://www.w3.org/2000/svg" xmlns:xlink="http://www.w3.org/1999/xlink" version="1.1" viewBox="-10 -40 404 512">
   <path fill="currentColor"
d="M48 9v416v-416v416h288v0v-416v0h-288v0zM0 -39h48h-48h384v48v0v416v0v48v0h-48h-336v-48v0v-416v0v-48v0zM232 297q22 2 24 24q-2 22 -24 24q-22 -2 -24 -24q2 -22 24 -24v0zM256 273q2 -22 24 -24q22 2 24 24q-2 22 -24 24q-22 -2 -24 -24v0zM144 249v32v-32v32h32v0
v32v0h-32v0v32v0h-32v0v-32v0h-32v0v-32v0h32v0v-32v0h32v0zM288 57v160v-160v160h-192v0v-160v0h192v0z" />
</svg>
