<?xml version="1.0" standalone="no"?>
<!DOCTYPE svg PUBLIC "-//W3C//DTD SVG 1.1//EN" "http://www.w3.org/Graphics/SVG/1.1/DTD/svg11.dtd" >
<svg xmlns="http://www.w3.org/2000/svg" xmlns:xlink="http://www.w3.org/1999/xlink" version="1.1" viewBox="-10 -40 532 512">
   <path fill="currentColor"
d="M152 139v-44v44v-44l22 -43v0l2 -5v0v-6v0v-56v0v-24v0h-24h-72v24v0v56v0v6v0l3 5v0l21 43v0v44v0q-39 7 -63 30q-24 24 -25 56q0 21 12 39q6 10 5 22q-1 13 -8 22q-24 26 -25 61q1 44 37 74q37 29 91 30q45 -1 78 -21q-13 -23 -14 -50q-20 21 -64 23q-40 -1 -60 -20
q-20 -18 -20 -36q0 -15 12 -29q20 -23 21 -51t-13 -50q-4 -8 -4 -14q0 -8 9 -19q10 -12 31 -18v85v0v24v0h48v0v-24v0v-85v0q21 6 31 18q9 11 9 19q0 6 -4 14q-14 22 -13 50t21 51q3 3 5 7q8 -21 15 -37l1 -1v0q4 -9 7 -15q-4 -16 4 -30q2 -3 4 -5q-1 -6 -2 -9q-2 -5 -4 -11
v-1v0v-1q-6 -15 -9 -37q-1 -5 -1 -9v-6v0v-14v0q-24 -25 -64 -32v0zM312 73l32 37l-32 -37l32 37v91v0q-35 -2 -48 -20q-11 -15 -14 -29q-2 -14 -2 -15h-32v0v0v0v48v0v6v0v3v3q2 15 8 30q0 1 1 1v0v0q2 6 3 12q4 10 4 25q-2 28 -18 57v0v0q-19 34 -22 77q1 32 22 52
q20 21 52 22h140v0q32 -1 52 -22q21 -20 22 -52q-3 -44 -22 -77v0q-16 -29 -18 -57q0 -15 4 -25l2 -8l2 -4v0v0v0v0q3 -10 6 -22q1 -2 1 -5q1 -5 1 -10v-38v0v0v0h-32v0q1 1 -2 11q-2 11 -14 22q-13 14 -48 15v-166v0q15 -10 16 -30v-4v0q0 -17 -12 -28q-11 -12 -28 -12h-32
v0l-24 112v0zM312 265q0 -11 -1 -20q15 4 33 4h48v0q18 0 33 -4q-1 10 -1 20q1 23 8 43t14 34v0v0v0v0v0v0q1 3 3 5q15 30 15 52q-2 24 -26 26h-140v0q-24 -2 -26 -26q0 -22 16 -52q0 -1 1 -3q1 -1 1 -2v0v0v0v0q7 -14 14 -34t8 -43v0zM320 345v48v-48v48h24h72v-48v0h-24
h-72z" />
</svg>
