<?xml version="1.0" standalone="no"?>
<!DOCTYPE svg PUBLIC "-//W3C//DTD SVG 1.1//EN" "http://www.w3.org/Graphics/SVG/1.1/DTD/svg11.dtd" >
<svg xmlns="http://www.w3.org/2000/svg" xmlns:xlink="http://www.w3.org/1999/xlink" version="1.1" viewBox="-10 -40 468 512">
   <path fill="currentColor"
d="M224 9q36 1 55 32q18 32 0 64q-19 31 -55 32q-36 -1 -55 -32q-18 -32 0 -64q19 -31 55 -32v0zM248 182q39 -9 63 -38v0v0q24 -30 25 -71q-1 -48 -33 -79q-31 -32 -79 -33q-48 1 -79 33q-32 31 -33 79q1 41 25 71q24 29 63 38v99v0h48v0v-99v0zM128 281h-64h64h-64v32v0
h-16h-48v48v0v64v0v48v0h48h400v-48v0v-64v0v-48v0h-48h-272v-32v0zM64 361h64h-64h336v64v0h-352v0v-64v0h16v0z" />
</svg>
