<?xml version="1.0" standalone="no"?>
<!DOCTYPE svg PUBLIC "-//W3C//DTD SVG 1.1//EN" "http://www.w3.org/Graphics/SVG/1.1/DTD/svg11.dtd" >
<svg xmlns="http://www.w3.org/2000/svg" xmlns:xlink="http://www.w3.org/1999/xlink" version="1.1" viewBox="-10 -40 404 512">
   <path fill="currentColor"
d="M192 185h-144h144h-144v128v0q1 48 33 79q31 32 79 33h64v0q48 -1 79 -33q32 -31 33 -79v-128v0h-144v0zM384 137v24v-24v24v24v0v128v0q-2 68 -47 113t-113 47h-64v0q-68 -2 -113 -47t-47 -113v-128v0v-24v0v-24v0v-128v0v-48v0h48h336v48v0v128v0zM336 9h-120h120h-120
v128v0h120v0v-128v0zM168 9h-120h120h-120v128v0h120v0v-128v0z" />
</svg>
