<?xml version="1.0" standalone="no"?>
<!DOCTYPE svg PUBLIC "-//W3C//DTD SVG 1.1//EN" "http://www.w3.org/Graphics/SVG/1.1/DTD/svg11.dtd" >
<svg xmlns="http://www.w3.org/2000/svg" xmlns:xlink="http://www.w3.org/1999/xlink" version="1.1" viewBox="-10 -40 660 512">
   <path fill="currentColor"
d="M576 -7v-32v32v-32l-31 9v0l-320 96v0l-17 5v0v18v0v11v0l-160 -124v0l-19 -15v0l-29 38v0l19 15v0l573 444v0l19 15v0l29 -38v0l-19 -15v0l-61 -47v0q16 -19 16 -44v0v0v-224v0v-112v0zM522 344l-58 -45l58 45l-58 -45q7 -2 16 -2q26 1 37 12q11 12 11 20v0v0q0 6 -6 15
v0zM422 266l-90 -70l90 70l-90 -70l196 -59v0v123v0q-21 -11 -48 -11q-34 1 -58 17v0zM286 160l-30 -23l30 23l-30 -23v-30v0l272 -82v0v62v0l-242 73v0zM256 259l-48 -38l48 38l-48 -38v103v0q-21 -11 -48 -11q-41 1 -68 23q-27 23 -28 57q1 34 28 57q27 22 68 23
q41 -1 68 -23q27 -23 28 -57v0v0v-134v0zM208 393v0v0v0q0 8 -11 20q-11 11 -37 12q-26 -1 -37 -12q-11 -12 -11 -20t11 -20q11 -11 37 -12q26 1 37 12q11 12 11 20v0z" />
</svg>
