<?xml version="1.0" standalone="no"?>
<!DOCTYPE svg PUBLIC "-//W3C//DTD SVG 1.1//EN" "http://www.w3.org/Graphics/SVG/1.1/DTD/svg11.dtd" >
<svg xmlns="http://www.w3.org/2000/svg" xmlns:xlink="http://www.w3.org/1999/xlink" version="1.1" viewBox="-10 -40 596 512">
   <path fill="currentColor"
d="M528 185h-80h80h-80v64v0v32v0h-16v0v80v0h96v0v-176v0zM400 361v-80v80v-80h-16v0v-32v0v-64v0h-64v0v64v0v32v0h-16v0v80v0h96v0zM272 361v-80v80v-80h-16v0v-32v0v-64v0h-64v0v64v0v32v0h-16v0v80v0h96v0zM144 361v-80v80v-80h-16v0v-32v0v-64v0h-80v0v176v0h96v0z
M528 137v-64v64v-64h-480v0v64v0h80h400zM576 137v24v-24v24v24v0v176v0v48v0h-48h-528v-48v0v-176v0v-24v0v-24v0v-64v0v-48v0h48h528v48v0v64v0z" />
</svg>
