<?xml version="1.0" standalone="no"?>
<!DOCTYPE svg PUBLIC "-//W3C//DTD SVG 1.1//EN" "http://www.w3.org/Graphics/SVG/1.1/DTD/svg11.dtd" >
<svg xmlns="http://www.w3.org/2000/svg" xmlns:xlink="http://www.w3.org/1999/xlink" version="1.1" viewBox="-10 -40 660 512">
   <path fill="currentColor"
d="M488 -7h-10h10h-10l-7 7v0l-23 23v0l-16 -16v0l-34 34v0l16 16v0l-14 14v0l-16 -16v0l-34 34v0l16 16v0l-14 14v0l-16 -16v0l-34 34v0l16 16v0l-88 88v0l-1 -1v0l36 -103v0h23v0v-48v0h-6h-282v48v0h24h2l-22 99v0q-4 18 -4 37q2 71 49 119q48 47 119 49h9v0q40 0 75 -16
t60 -46l227 -266v0h77h24v-24v0v-32v0v-10v0l-7 -7v0l-40 -40v0l-7 -7v0h-10h-88zM75 137h139h-139h139l-37 104v0l-5 17v0l14 10v0l32 24v0l16 13v0l15 -15v0l103 -103v0v0v0l34 -34v0v0v0l14 -14v0v0v0l34 -34v0v0v0l14 -14v0v0v0l34 -34v0v0v0l16 -16v0h68v0l24 24v0h-62
h-11l-7 8v0l-234 275v0q-40 44 -99 45h-9v0q-51 -1 -85 -35t-35 -85q0 -13 3 -26l24 -110v0zM136 265q-2 -22 -24 -24q-22 2 -24 24q2 22 24 24q22 -2 24 -24v0zM128 209q22 -2 24 -24q-2 -22 -24 -24q-22 2 -24 24q2 22 24 24v0z" />
</svg>
