<?xml version="1.0" standalone="no"?>
<!DOCTYPE svg PUBLIC "-//W3C//DTD SVG 1.1//EN" "http://www.w3.org/Graphics/SVG/1.1/DTD/svg11.dtd" >
<svg xmlns="http://www.w3.org/2000/svg" xmlns:xlink="http://www.w3.org/1999/xlink" version="1.1" viewBox="-10 -40 660 512">
   <path fill="currentColor"
d="M224 193v57v-57v57q-16 -16 -40 -17q-24 1 -40 16q-15 16 -16 40q1 24 16 40q16 15 40 16q24 -1 40 -17v57v0q-19 8 -40 8q-44 -1 -74 -30q-29 -30 -30 -74q1 -44 30 -74q30 -29 74 -30q21 0 40 8v0zM240 9h-192h192h-192v416v0h192v0v48v0h-192h-48v-48v0v-416v0v-48v0
h48h192v48v0zM184 41q23 1 35 20q10 20 0 40q-12 19 -35 20q-23 -1 -35 -20q-10 -20 0 -40q12 -19 35 -20v0zM320 9v416v-416v416h272v0v-416v0h-272v0zM272 -39h48h-48h368v48v0v416v0v48v0h-48h-320v-48v0v-416v0v-48v0zM456 41q23 1 35 20q10 20 0 40q-12 19 -35 20
q-23 -1 -35 -20q-10 -20 0 -40q12 -19 35 -20v0zM352 289q0 -28 14 -52v0v0q14 -24 38 -38q25 -14 52 -14t52 14q24 14 38 38t14 52t-14 52t-38 38q-25 14 -52 14t-52 -14q-24 -14 -38 -38t-14 -52v0zM456 345q32 -1 48 -28q16 -28 0 -56q-16 -27 -48 -28q-32 1 -48 28
q-16 28 0 56q16 27 48 28v0z" />
</svg>
