<?xml version="1.0" standalone="no"?>
<!DOCTYPE svg PUBLIC "-//W3C//DTD SVG 1.1//EN" "http://www.w3.org/Graphics/SVG/1.1/DTD/svg11.dtd" >
<svg xmlns="http://www.w3.org/2000/svg" xmlns:xlink="http://www.w3.org/1999/xlink" version="1.1" viewBox="-10 -40 596 512">
   <path fill="currentColor"
d="M312 -15v-24v24v-24h-48v0v24v0v48v0l-4 7v0l-231 385v0l-29 48v0h56h520l-29 -48v0l-109 -182v0l-35 35v0l88 147v0h-406v0l203 -339v0l72 121v0l-53 53v0q-9 -3 -19 -3q-24 1 -40 17q-15 15 -16 39q1 24 16 40q16 15 40 16q24 -1 40 -16q15 -16 16 -40q0 -10 -3 -19
l45 -45v0l35 -35v0l116 -116v0l17 -17v0l-34 -34v0l-17 17v0l-108 108v0l-79 -132v0l-4 -7v0v-48v0z" />
</svg>
