<?xml version="1.0" standalone="no"?>
<!DOCTYPE svg PUBLIC "-//W3C//DTD SVG 1.1//EN" "http://www.w3.org/Graphics/SVG/1.1/DTD/svg11.dtd" >
<svg xmlns="http://www.w3.org/2000/svg" xmlns:xlink="http://www.w3.org/1999/xlink" version="1.1" viewBox="-10 -40 596 512">
   <path fill="currentColor"
d="M528 41v352v-352v352h-480v0v-352v0h480v0zM48 -7h-48h48h-48v48v0v352v0v48v0h48h528v-48v0v-352v0v-48v0h-48h-480zM496 73h-48h48h-48v24v0v146v0l-45 83v0l-12 21v0l43 23v0l11 -21v0l48 -88v0l3 -6v0v-6v0v-152v0v-24v0zM368 217q0 -39 -19 -72v0v0q-19 -33 -53 -53
q-34 -19 -72 -19t-72 19q-34 20 -53 53t-19 72t19 72t53 53q34 19 72 19t72 -19q34 -20 53 -53t19 -72v0zM192 217q0 -14 9 -23v0v0q9 -9 23 -9t23 9t9 23t-9 23t-23 9t-23 -9t-9 -23v0z" />
</svg>
