<?xml version="1.0" standalone="no"?>
<!DOCTYPE svg PUBLIC "-//W3C//DTD SVG 1.1//EN" "http://www.w3.org/Graphics/SVG/1.1/DTD/svg11.dtd" >
<svg xmlns="http://www.w3.org/2000/svg" xmlns:xlink="http://www.w3.org/1999/xlink" version="1.1" viewBox="-10 -40 660 512">
   <path fill="currentColor"
d="M496 -15q2 -22 24 -24q22 2 24 24q-2 22 -24 24q-22 -2 -24 -24v0zM334 13l-282 282l282 -282l-282 282l-17 17v0l-34 -34v0l17 -17v0l282 -282v0l17 -17v0l34 34v0l-17 17v0zM176 473l-48 -48l48 48l-48 -48l28 -22v0q-27 -39 -28 -90q0 -38 16 -70t43 -54q16 12 37 12
q27 -1 45 -19t19 -45v-5v0v0v0q33 -32 76 -34t82 23l137 -137v0l17 -17v0l34 34v0l-17 17v0l-137 137v0q26 39 23 82q-2 43 -34 76v0v0h-5q-27 1 -45 19t-19 45q0 21 12 37q-22 27 -54 43t-70 16q-51 -1 -90 -28l-22 28v0zM228 408q27 17 60 17q38 -1 67 -22q-3 -13 -3 -26
q1 -42 27 -73q26 -30 66 -37q21 -36 0 -77l-84 84v0l-17 17v0l-34 -34v0l17 -17v0l84 -84v0q-41 -21 -76 0q-8 40 -38 66t-73 27q-13 0 -26 -3q-21 29 -22 67q1 33 17 60l15 -12v0l32 32v0l-12 15v0zM448 33q2 -22 24 -24q22 2 24 24q-2 22 -24 24q-22 -2 -24 -24v0z
M568 105q22 2 24 24q-2 22 -24 24q-22 -2 -24 -24q2 -22 24 -24v0zM616 57q22 2 24 24q-2 22 -24 24q-22 -2 -24 -24q2 -22 24 -24v0z" />
</svg>
