<?xml version="1.0" standalone="no"?>
<!DOCTYPE svg PUBLIC "-//W3C//DTD SVG 1.1//EN" "http://www.w3.org/Graphics/SVG/1.1/DTD/svg11.dtd" >
<svg xmlns="http://www.w3.org/2000/svg" xmlns:xlink="http://www.w3.org/1999/xlink" version="1.1" viewBox="-10 -40 596 512">
   <path fill="currentColor"
d="M48 9v160v-160v160h480v0v-160v0h-480v0zM0 -39h48h-48h576v48v0v160v0v48v0h-48h-528v-48v0v-160v0v-48v0zM120 89h336h-336h360v48v0h-24h-360v-48v0h24v0zM368 249v104v-104v104q0 17 12 28q11 12 28 12t28 -12q12 -11 12 -28q-1 -23 -20 -35l24 -41v0q42 25 44 76
q-1 37 -26 62t-62 26q-37 -1 -62 -26t-26 -62v-104v0h48v0zM208 385v-136v136v-136h48v0v136v0q-1 37 -26 62t-62 26q-37 -1 -62 -26t-26 -62q2 -51 44 -76l24 41v0q-19 12 -20 35q0 17 12 28q11 12 28 12t28 -12q12 -11 12 -28v0z" />
</svg>
