<?xml version="1.0" standalone="no"?>
<!DOCTYPE svg PUBLIC "-//W3C//DTD SVG 1.1//EN" "http://www.w3.org/Graphics/SVG/1.1/DTD/svg11.dtd" >
<svg xmlns="http://www.w3.org/2000/svg" xmlns:xlink="http://www.w3.org/1999/xlink" version="1.1" viewBox="-10 -40 468 512">
   <path fill="currentColor"
d="M194 173q-24 17 -23 48q3 30 29 44q28 12 54 -4q24 -17 23 -47q-3 -31 -29 -45q-28 -12 -54 4v0zM337 104q-8 -8 -19 -12q-14 -5 -38 -6q-25 -1 -45 0h-6h-5h-11q-21 -1 -45 0t-38 6q-11 4 -19 12t-12 19q-5 14 -6 38t0 44v1v6v5v11v1q-1 20 0 44t6 38q4 11 12 19t19 12
q14 5 38 6q25 1 45 0h6h5h11q21 1 45 0t38 -6q11 -4 19 -12t12 -19q5 -14 6 -38t0 -45v-6v-5v-11q1 -21 0 -45t-6 -38v0v0q-4 -11 -12 -19v0zM270 149q37 27 36 73q-5 47 -46 69q-42 19 -82 -6q-37 -27 -36 -73q5 -47 46 -69q42 -19 82 6v0zM299 147q-5 -3 -7 -8t-1 -11
t5 -10t10 -5q5 -1 11 1q5 2 8 7t4 10l-2 8q-1 3 -4 6t-6 4q-4 2 -7 2v0v0q-6 0 -11 -4v0zM448 57q-1 -27 -19 -45v0v0q-18 -18 -45 -19h-320v0q-27 1 -45 19t-19 45v320v0q1 27 19 45t45 19h320v0q27 -1 45 -19t19 -45v-320v0zM357 350q-28 26 -67 26q-14 1 -40 1h-52
t-40 -1q-39 0 -67 -26q-26 -28 -26 -67q-1 -14 -1 -40v-52t1 -40q0 -39 26 -67q28 -26 67 -26q14 -1 40 -1h52t40 1q39 0 67 26q26 28 26 67q1 23 1 66t-1 66q0 39 -26 67v0z" />
</svg>
