<?xml version="1.0" standalone="no"?>
<!DOCTYPE svg PUBLIC "-//W3C//DTD SVG 1.1//EN" "http://www.w3.org/Graphics/SVG/1.1/DTD/svg11.dtd" >
<svg xmlns="http://www.w3.org/2000/svg" xmlns:xlink="http://www.w3.org/1999/xlink" version="1.1" viewBox="-10 -40 463 512">
   <path fill="currentColor"
d="M388 65q0 -3 -4 -4h-19q-16 -1 -18 -1q-1 -1 -12 -11t-18 -18v433v0l126 -31v0q-1 -3 -9 -57t-18 -126q-11 -72 -19 -126q-8 -55 -9 -59v0zM289 31q-3 -9 -8 -17q-16 -31 -44 -31h-4l-1 -1l-1 -1q-12 -13 -30 -12q-38 2 -68 49q-21 35 -26 70q-45 13 -48 15q-10 2 -12 5
q-3 3 -4 13q0 6 -6 50q-6 43 -13 99t-13 98q-5 42 -6 45l303 52v0v-438v0h-5l-14 4v0zM233 49q-12 4 -26 8v0v0q-12 4 -24 7q8 -30 25 -50q7 -7 17 -13q10 25 8 48v0zM201 -15q7 0 14 4q-10 5 -19 14q-23 28 -31 67q-22 7 -42 13q7 -32 28 -63q21 -32 50 -35v0zM154 206
q3 14 25 25v0v0q16 9 31 24v0v0q15 15 17 42q2 36 -16 58t-49 25q-37 0 -56 -12q-20 -12 -20 -14v0l11 -44v0q1 1 16 10t32 9q10 -1 15 -8q4 -6 4 -12q-4 -21 -25 -32q-12 -8 -23 -20q-11 -13 -13 -35q-3 -37 21 -65q23 -28 73 -33q20 -1 30 2q10 2 10 3l-16 57v0l-11 -3
q-10 -4 -26 -3q-22 2 -26 12q-5 9 -4 14v0zM249 44q1 -20 -7 -44q14 4 21 15q8 12 10 22q-10 3 -24 7v0z" />
</svg>
