<?xml version="1.0" standalone="no"?>
<!DOCTYPE svg PUBLIC "-//W3C//DTD SVG 1.1//EN" "http://www.w3.org/Graphics/SVG/1.1/DTD/svg11.dtd" >
<svg xmlns="http://www.w3.org/2000/svg" xmlns:xlink="http://www.w3.org/1999/xlink" version="1.1" viewBox="-10 -40 596 512">
   <path fill="currentColor"
d="M451 206h125h-125h125v-73v0h-125v73zM451 32v72v-72v72h125v0v-72h-125zM451 307h125h-125h125v-73v0h-125v73zM0 408h125h-125h125v-73v0h-125v73zM150 408h125h-125h125v-73v0h-125v73zM301 408h125h-125h125v-73v0h-125v73zM451 408h125h-125h125v-73v0h-125v73z
M301 307h125h-125h125v-73v0h-125v73zM150 307h125h-125h125v-73v0h-125v73zM150 206h125h-125h125v-73v0h-125v73z" />
</svg>
