<?xml version="1.0" standalone="no"?>
<!DOCTYPE svg PUBLIC "-//W3C//DTD SVG 1.1//EN" "http://www.w3.org/Graphics/SVG/1.1/DTD/svg11.dtd" >
<svg xmlns="http://www.w3.org/2000/svg" xmlns:xlink="http://www.w3.org/1999/xlink" version="1.1" viewBox="-10 -40 522 512">
   <path fill="currentColor"
d="M26 189v0v0v0v0v0zM486 205q2 -66 -29 -123q-31 -55 -82 -84q-52 -29 -116 -29q-105 3 -164 67q-58 64 -69 153q32 -48 87 -84q56 -37 133 -41q3 -1 28 4q26 4 51 27q24 22 21 74h-176v0q5 -28 14 -46q8 -19 20 -33q-57 26 -89 72q-32 47 -31 116q1 55 34 103
q33 47 86 69q66 22 134 12t106 -33v-105v0q-43 29 -106 36q-63 8 -113 -16q-49 -24 -53 -87h314v0v-52v0z" />
</svg>
