<?xml version="1.0" standalone="no"?>
<!DOCTYPE svg PUBLIC "-//W3C//DTD SVG 1.1//EN" "http://www.w3.org/Graphics/SVG/1.1/DTD/svg11.dtd" >
<svg xmlns="http://www.w3.org/2000/svg" xmlns:xlink="http://www.w3.org/1999/xlink" version="1.1" viewBox="-10 -40 660 512">
   <path fill="currentColor"
d="M106 176v41v-41v41h57v0q-4 21 -21 33q-15 10 -36 10t-37 -12q-16 -13 -23 -32q-6 -21 0 -41v0v0q7 -20 23 -32t37 -12q23 -1 40 16l30 -31v0q-29 -28 -70 -28q-31 1 -56 16q-25 16 -39 43q-22 48 0 96v1v0q14 27 39 43q25 15 56 16q43 -1 70 -26q30 -29 31 -79
q0 -11 -2 -22h-99zM495 172q-15 -14 -41 -14q-34 0 -51 25l21 13v0q12 -17 31 -17q13 0 23 9q10 8 10 21v6v0q-14 -8 -35 -8q-25 0 -39 12q-15 11 -15 31q0 19 14 31q14 13 35 13q24 0 39 -22h1v0v18v0h22v0v-79v0q0 -25 -15 -39v0zM476 261q-11 11 -27 11q-10 1 -18 -6
q-8 -6 -8 -15q0 -11 10 -18q9 -7 24 -7q20 0 31 9q0 15 -12 26v0zM382 119q-17 -16 -40 -16h-63v0v187v0h24v0v-76v0h39v0q24 0 40 -16q1 0 1 -1l2 -2q15 -16 14 -38t-17 -38v0zM366 182q-10 9 -24 9h-39v0v-65v0h39v0q13 0 23 9q9 10 10 23q0 13 -9 23v1zM614 162l-36 92
l36 -92l-36 92h-1v0l-37 -92v0h-26v0l52 120v0l-29 64v0h24v0l79 -184h-26z" />
</svg>
