<?xml version="1.0" standalone="no"?>
<!DOCTYPE svg PUBLIC "-//W3C//DTD SVG 1.1//EN" "http://www.w3.org/Graphics/SVG/1.1/DTD/svg11.dtd" >
<svg xmlns="http://www.w3.org/2000/svg" xmlns:xlink="http://www.w3.org/1999/xlink" version="1.1" viewBox="-10 -40 532 512">
   <path fill="currentColor"
d="M509 211l-22 -14l22 14l-22 -14q-1 -3 -1 -6l19 -17v0q3 -3 2 -7t-5 -5l-24 -9v0v-1q0 -2 -1 -5l15 -21v0q2 -3 1 -7q-2 -4 -6 -4l-25 -5v0h-1q-1 -2 -2 -5l10 -23v0q2 -4 0 -7q-2 -4 -6 -4l-26 1v0l-4 -4l6 -25v0q1 -4 -2 -7t-7 -2l-25 6v0l-4 -4l1 -25v0q0 -5 -4 -7
q-3 -2 -7 0l-23 10v0q-3 -1 -5 -2l-5 -26v0q0 -4 -4 -6q-4 -1 -7 1l-21 15v0q-3 -1 -6 -1l-9 -24v0q-1 -4 -5 -5t-7 2l-17 19v0q-3 0 -6 -1l-14 -22v0q-2 -3 -6 -3t-6 3l-14 22v0q-3 1 -6 1l-17 -19v0q-3 -3 -7 -2t-5 5l-9 24v0h-2q-2 1 -4 1l-21 -15v0q-3 -2 -7 -1
q-4 2 -4 6l-5 25v0v1q-2 1 -5 2l-23 -10v0q-4 -2 -7 0q-4 3 -4 7l1 25v0v1q-2 1 -4 3l-25 -6v0q-4 -1 -7 2t-2 7l6 25v0l-4 4h-25v0q-5 -1 -7 3q-2 3 0 7l10 23v0q-1 3 -2 5h-1l-25 5v0q-4 0 -6 4q-1 4 1 7l15 21v0q0 2 -1 5v1l-24 9v0q-4 1 -5 5t2 7l19 17v0q0 3 -1 6
l-22 14v0q-3 2 -3 6t3 6l22 14v0q1 3 1 6l-19 17v0q-3 3 -2 7t5 5l24 9v0v2q1 2 1 4l-15 21v0q-2 3 -1 7q2 4 6 4l25 5v0h1q1 3 2 5l-10 23v0q-2 4 0 7q2 4 7 4l25 -1v0l4 4l-6 25v0q-1 4 2 7t7 2l25 -6v0l4 4l-1 26v0q0 4 4 6q3 2 7 0l23 -10v0q2 1 5 2v1l5 25v0q0 4 4 6
q4 1 7 -1l21 -15v0q2 0 4 1h2l9 24v0q1 4 5 5t7 -2l17 -19v0q3 0 6 1v0l14 21v0q2 4 6 4t6 -4l14 -21v0q3 -1 6 -1l17 19v0q3 3 7 2t5 -5l9 -24v0h2q2 -1 4 -1l21 15v0q3 2 7 1q4 -2 4 -6l5 -25v0q0 -1 1 -1l4 -2l23 10v0q4 2 7 0q4 -2 4 -6l-1 -26v0l4 -4l25 6v0q4 1 7 -2
t2 -7l-6 -25v0l4 -4l26 1v0q4 0 6 -4q2 -3 0 -7l-10 -23v0l2 -4q0 -1 1 -1l25 -5v0q4 0 6 -4q1 -4 -1 -7l-15 -21v0q1 -3 1 -6l24 -9v0q4 -1 5 -5t-2 -7l-19 -17v0q0 -3 1 -6l21 -14v0q4 -2 4 -6t-4 -6h1zM358 340q-13 -2 -17 11l-8 35v0q-37 17 -78 17q-40 0 -78 -18
l-8 -35v0q-1 -6 -6 -9q-4 -3 -10 -2l-32 7v0q-8 -9 -16 -19h153v0q3 0 3 -2v-54v0q0 -3 -3 -2h-45v0l1 -35v0h48v0q4 0 14 4t16 22q1 5 3 13q3 17 6 27q2 8 10 17q7 9 17 10h79v0q-8 10 -17 20zM383 374q-1 14 -15 16q-14 -2 -15 -16q1 -14 15 -15v0v0q14 2 15 15v0z
M158 374q-2 14 -16 15q-14 -1 -15 -15q1 -14 15 -16h1v0q13 2 15 16v0zM70 195l32 -14l-32 14l32 -14q6 -3 8 -8q2 -6 -1 -11l-6 -15v0h26v0v120v0h-53v0q-10 -35 -6 -72v0zM58 159q0 -6 5 -11q4 -4 11 -4v0v0q14 2 15 15q-2 14 -16 15q-13 -1 -15 -15v0zM213 184l1 -36
l-1 36l1 -36h63v0q3 0 13 4q9 4 10 15q-1 9 -9 13q-9 4 -19 4h-59zM399 268q-17 0 -22 -10q-4 -23 -11 -33q-8 -10 -19 -18l-1 -1q15 -9 27 -22q11 -13 12 -31q-1 -19 -10 -31q-10 -13 -20 -19q-13 -8 -24 -10q-12 -3 -16 -3h-199v0q43 -47 105 -59l24 25v0q4 4 9 4
q6 0 10 -4l27 -25v0q41 8 74 32q33 23 54 60l-18 40v0q-4 12 7 18l35 16v0q1 16 0 32h-19v0q-3 0 -3 3v9v0q0 15 -7 21q-7 5 -15 6v0zM240 21q1 -14 15 -15h1v0q13 2 14 16q-1 13 -15 14q-14 -1 -15 -15v0zM437 175q-9 0 -13 -8q-4 -7 0 -15q4 -7 13 -7v0v0q14 1 15 15
q-1 14 -15 15v0z" />
</svg>
