<?xml version="1.0" standalone="no"?>
<!DOCTYPE svg PUBLIC "-//W3C//DTD SVG 1.1//EN" "http://www.w3.org/Graphics/SVG/1.1/DTD/svg11.dtd" >
<svg xmlns="http://www.w3.org/2000/svg" xmlns:xlink="http://www.w3.org/1999/xlink" version="1.1" viewBox="-10 -40 468 512">
   <path fill="currentColor"
d="M448 171q-68 0 -123 -39v178v0q0 52 -29 93q-28 41 -76 60q-49 17 -97 5t-83 -51q-33 -39 -39 -89q-5 -49 19 -95q25 -45 69 -68q45 -22 96 -16v90v0q-24 -7 -46 1q-22 7 -37 27q-14 20 -14 44q0 23 14 44q15 19 38 26q22 8 46 0q23 -8 37 -27t14 -44v-349v0h88v0
q0 11 2 22v0v0q11 51 54 80q31 20 67 21v87z" />
</svg>
