<?xml version="1.0" standalone="no"?>
<!DOCTYPE svg PUBLIC "-//W3C//DTD SVG 1.1//EN" "http://www.w3.org/Graphics/SVG/1.1/DTD/svg11.dtd" >
<svg xmlns="http://www.w3.org/2000/svg" xmlns:xlink="http://www.w3.org/1999/xlink" version="1.1" viewBox="-10 -40 404 512">
   <path fill="currentColor"
d="M64 351l90 -134l-90 134l90 -134l-90 -134v0v268v0zM103 409h179h-179h179l-90 -134v0l-89 134v0zM231 217l89 134l-89 -134l89 134v-268v0l-89 134v0zM282 25h-179h179h-179l89 134v0l90 -134v0zM0 9q1 -20 14 -34v0v0q14 -13 34 -14h288v0q20 1 34 14q13 14 14 34v416
v0q-1 20 -14 34q-14 13 -34 14h-288v0q-20 -1 -34 -14q-13 -14 -14 -34v-416v0z" />
</svg>
