<?xml version="1.0" standalone="no"?>
<!DOCTYPE svg PUBLIC "-//W3C//DTD SVG 1.1//EN" "http://www.w3.org/Graphics/SVG/1.1/DTD/svg11.dtd" >
<svg xmlns="http://www.w3.org/2000/svg" xmlns:xlink="http://www.w3.org/1999/xlink" version="1.1" viewBox="-10 -40 522 512">
   <path fill="currentColor"
d="M234 -17q1 -20 22 -22q21 2 23 22q-2 21 -23 23q-21 -2 -22 -23v0zM313 220q0 24 -16 41v0v0q-17 16 -41 16t-41 -16q-16 -17 -16 -41t16 -41q17 -16 41 -16t41 16q16 17 16 41v0zM337 311q34 -31 40 -77h120v0q-3 46 -23 88q-19 41 -53 73t-76 49t-89 17t-89 -17
q-43 -17 -76 -49q-34 -32 -53 -73q-20 -42 -23 -88h120v0q6 46 40 77q35 30 81 31q46 -1 81 -31v0zM73 101q-1 21 -22 24q-20 -2 -23 -22q1 -21 22 -23q21 1 23 21v0zM439 102q2 -21 22 -22q21 1 23 22q-2 21 -23 23q-20 -2 -22 -23v0zM318 56q-27 22 -62 23q-35 -1 -62 -23
q-26 -23 -32 -57q22 -10 47 -15q0 20 14 34q13 13 33 14q20 -1 34 -14q13 -14 13 -34q25 5 47 15q-6 34 -32 57v0v0zM83 192q-33 11 -66 -1q3 -24 11 -47q8 4 17 6q10 1 19 -2q9 -2 16 -8q8 -6 12 -14q5 -8 6 -17q2 -10 -1 -19q-2 -9 -8 -16q-6 -8 -14 -13q16 -18 36 -33
q27 23 34 57q6 34 -11 65q-18 30 -51 42v0v0zM429 192q-33 -12 -50 -42q-18 -31 -12 -65q7 -34 34 -57q20 15 36 34q-17 10 -22 28q-5 19 5 36t29 22q18 5 35 -4q8 23 11 47q-33 13 -66 1v0v0z" />
</svg>
