<?xml version="1.0" standalone="no"?>
<!DOCTYPE svg PUBLIC "-//W3C//DTD SVG 1.1//EN" "http://www.w3.org/Graphics/SVG/1.1/DTD/svg11.dtd" >
<svg xmlns="http://www.w3.org/2000/svg" xmlns:xlink="http://www.w3.org/1999/xlink" version="1.1" viewBox="-10 -40 469 512">
   <path fill="currentColor"
d="M385 -6h-320h320h-320q-28 0 -46 18t-18 46v320v0q0 27 18 45t46 19h320v0q27 -1 45 -19t19 -45v-320v0q-1 -28 -19 -46t-45 -18v0zM337 274q-8 2 -14 4v0v0q-16 6 -25 9v0v0q-10 3 -21 3q-16 -1 -27 -5t-22 -7q-11 -4 -26 -4t-25 4v-32v0q10 -4 25 -4q22 0 37 7t38 9
q14 0 28 -5v-96v0q-14 5 -28 5q-16 -1 -27 -5t-22 -7q-11 -4 -26 -4q-22 0 -37 7q-9 4 -20 7v154v0q-2 14 -16 16q-15 -2 -16 -16v-192v0q1 -15 16 -16q14 1 16 16v6v0q11 -3 20 -7q15 -7 37 -7t37 7t38 9q11 0 21 -3q9 -3 25 -9q6 -2 14 -4v160v0z" />
</svg>
