<?xml version="1.0" standalone="no"?>
<!DOCTYPE svg PUBLIC "-//W3C//DTD SVG 1.1//EN" "http://www.w3.org/Graphics/SVG/1.1/DTD/svg11.dtd" >
<svg xmlns="http://www.w3.org/2000/svg" xmlns:xlink="http://www.w3.org/1999/xlink" version="1.1" viewBox="-10 -40 458 512">
   <path fill="currentColor"
d="M380 207q5 -10 5 -25l-4 9v0q5 -20 4 -40q-1 -9 0 -18h-2v0q-3 -35 -25 -66q-23 -30 -50 -43q-24 -11 -52 -12q-29 -2 -46 6q3 -2 7 -3v0v0h1q5 -1 3 -3q-14 1 -20 4q-6 2 -11 5v0v0v0v0q-5 5 -20 9q-3 4 6 1v0v0v0q8 -3 0 2q-6 2 -10 2v0v0v0q-6 0 -13 3t-18 14
q2 1 6 -1v0v0q4 -4 -2 4q-16 1 -39 23q-22 22 -30 36l4 1v0q-5 12 -10 21q-7 12 -8 21q-1 7 -2 15v2v0v0v2v1v1v0v0q-3 21 -4 42q0 21 8 31l-2 13v0q1 2 2 3v1v0v0v0v0v0v0v0v0v0v0v0v0v0v0q2 4 4 7h-3v0q5 16 8 19q4 4 7 4v0v0q3 -1 7 3t11 21q-3 0 -9 -7q1 9 13 26l-3 3v0
q3 5 8 9v0v0v0v0v0l3 3q-8 -4 -2 6q6 9 14 19q1 2 2 3v0v0v0v0v0v0v0v0v0v0q2 3 3 4l2 -4v0q0 9 13 25l8 -1v0q2 5 8 11q7 6 12 6l-4 6v0q10 4 13 6q1 3 16 9l-5 -8v0l9 9v0v0q7 8 20 15q14 5 22 6h1v0h1q7 1 20 5q-1 -1 -3 0v0v0q-3 -1 -7 -1v0v0v0v0v0v0v0v0v0v0v0v0v0v0
v0v0q-22 1 -43 -5q-49 -13 -90 -52q-42 -38 -66 -91t-22 -112q-1 -16 0 -31q1 -22 -2 -28l1 -3v0q7 -26 24 -63v0v0v-1v0q0 1 3 1q2 0 6 -6l2 -6l1 -1q0 -1 1 -2q3 -10 8 -18l3 -1v0q1 -7 10 -17q9 -9 20 -18l1 -1v0q9 -8 13 -13l1 4v0q13 -11 31 -20t34 -16h1v0v0
q7 -3 13 -6q-3 5 10 1q8 -2 16 -2l-4 2v0l-8 4q10 -2 15 0v0h1v0q4 1 14 0q-10 2 -11 4q11 0 17 -1h1v0q7 -3 19 0l-1 -4v0q10 3 17 5l1 1v0l14 4q8 3 20 10q5 0 7 -1h1v0q4 -3 15 1v1v0h1v1v0v0q0 2 3 4q2 3 11 8q1 -2 -5 -8h-1v0v-1h-1q25 14 47 39t31 55q-4 -8 -4 -6
q-1 1 0 6q1 8 0 8q7 18 10 37l-1 -3v0v0v0q-2 -9 -7 -23t-13 -26q-1 5 -5 3v0v0v0v0q-3 -1 -4 1t2 12q4 4 4 1v0v0v0q0 -5 4 5q1 6 3 13v0v0v0v0v0v0v1v0v1v0v1q1 3 2 7q-2 -1 -4 -4q-2 -5 -3 -3q4 17 8 18l-1 1q-2 -1 -2 5q0 10 2 11q1 2 3 1v0v0v0q1 -1 2 -1q-1 4 -3 8
q-6 11 -3 26q-2 -4 -3 -7q0 -1 -1 -2v0v0v-1v0v0v0q-1 -2 -1 -3q-1 6 0 10v1v1q1 6 -3 19q3 -11 3 -18q0 -6 -3 -2q-1 16 -8 29h-1v0q-6 10 -5 19l-6 -7v0q-9 14 -6 15v1v0q2 1 -4 10q2 -3 1 -4v0v0v0q-1 0 2 -5q-3 1 -10 9q-6 6 -13 11q-58 44 -125 18q0 -1 -3 -4
q-29 -20 -43 -44q-14 -23 -8 -64q3 -2 5 -10v0v0v0v0v-1v0v0v0v0v0q4 -15 15 -24q6 -13 21 -23q16 -10 35 -11q19 0 34 8q16 9 24 20q-15 -14 -37 -17q-21 -3 -43 7q-21 10 -32 30q-12 21 -10 45q0 -1 1 -1v0v0v0v0v0v0v0v0v0q1 -1 1 -4q2 47 38 72t74 10l1 2v0
q16 -5 20 -11v0v0v0v0v0q3 -3 9 -8q0 2 -2 3q-5 4 -2 5q4 -2 12 -8l16 -14l1 -1v0v0v0v0h1q0 -1 1 -1l3 -3l1 -1v0v0v0v0q2 -6 1 -7v0v0q-1 -1 3 -10l7 -3v0q1 -2 1 -4q1 -1 1 -2v-1l1 -1h-1v0zM349 -5v0v0v0v0v0v0v0zM248 295q-11 -6 -15 -11v0v0q-1 1 -1 2q-18 -9 -32 -25
q7 11 17 20q-11 -6 -22 -19v0v-1v0q-7 -8 -10 -9q17 28 52 43t61 6q-24 2 -50 -6v0zM327 175v0v0v0q-1 -2 -2 -3q2 -5 3 -6q2 0 2 10q-2 5 -3 -1v0zM323 198q-2 12 -10 22q0 -2 -3 -3v0v0v0v0q-2 0 -2 -3q0 -2 8 -13q-1 3 -4 7v1v0v0v0v0v0v0q-3 5 -4 7q0 2 8 -3l1 -2v0
q4 -6 6 -13v0v0zM267 232q11 1 21 -2q-3 4 -8 8q-9 -2 -14 -4t1 -2v0zM175 243q5 9 8 15v0v0l1 1v0v0q3 5 7 12q-7 -7 -13 -15v0v-1v0q-2 -3 -5 -6l2 -6v0v0v0zM182 234q2 5 6 9l2 7v0l-1 -2v0q-5 -8 -8 -16l1 1v0v1v0zM421 192q-3 26 -16 50q11 -22 15 -47l1 -3v0zM36 72h2
v0v0v0q4 -3 0 8h-1l-1 1v0v0v0v0q-2 1 -4 3q4 -6 4 -12v0zM25 113q-1 6 -3 14v-5v0v0q-2 -4 4 -13q0 2 -1 4v0v0v0z" />
</svg>
