<?xml version="1.0" standalone="no"?>
<!DOCTYPE svg PUBLIC "-//W3C//DTD SVG 1.1//EN" "http://www.w3.org/Graphics/SVG/1.1/DTD/svg11.dtd" >
<svg xmlns="http://www.w3.org/2000/svg" xmlns:xlink="http://www.w3.org/1999/xlink" version="1.1" viewBox="-10 -40 458 512">
   <path fill="currentColor"
d="M332 197q1 0 3 1v0v0q1 1 3 2q44 21 62 61q12 28 8 67t-39 76q-51 53 -142 53h-1v0q-105 -1 -160 -70q-49 -62 -50 -170v0v0v0v0q1 -108 50 -170q55 -69 160 -70h1v0q106 1 162 70q28 34 41 82l-41 10v0q-10 -38 -32 -65q-44 -54 -130 -55q-86 1 -129 55q-39 50 -40 143
q1 93 40 143q43 54 129 55q74 0 113 -41q24 -25 27 -51t-5 -45q-10 -22 -32 -35q-6 40 -25 65q-26 33 -73 35q-36 2 -64 -16q-31 -22 -34 -59q-1 -37 24 -60q26 -23 71 -27q32 -1 60 3q-4 -22 -15 -35q-15 -18 -46 -18h-1v0q-13 0 -28 5q-14 6 -25 22l-35 -24v0
q30 -44 88 -45h1v0q96 3 104 108h-1h1zM176 266q1 18 17 27v0v0q17 9 37 8q20 0 38 -14q17 -14 22 -59q-20 -5 -44 -5q-7 0 -14 1q-32 2 -45 14q-13 13 -11 27v0v1z" />
</svg>
