<?xml version="1.0" standalone="no"?>
<!DOCTYPE svg PUBLIC "-//W3C//DTD SVG 1.1//EN" "http://www.w3.org/Graphics/SVG/1.1/DTD/svg11.dtd" >
<svg xmlns="http://www.w3.org/2000/svg" xmlns:xlink="http://www.w3.org/1999/xlink" version="1.1" viewBox="-10 -40 460 512">
   <path fill="currentColor"
d="M298 -39q5 0 8 4l38 44v0l1 -1q14 -2 28 -1q18 2 29 13q12 12 23 24l3 3l4 4q1 1 1 2q5 6 3 12l-10 25v0l13 38v0q1 3 1 6l-1 2q0 2 -1 6t-3 8q-1 6 -3 13q-8 32 -16 63q-3 10 -5 19q-16 60 -19 72q-7 32 -17 49t-31 31q-21 15 -49 34q-28 20 -38 26l-3 3q-1 0 -3 1l-1 1
q-7 5 -12 8q-7 3 -14 3t-14 -3q-5 -3 -12 -8q-1 0 -2 -1t-2 -1q-1 -2 -3 -2v-1q-10 -6 -38 -25l-49 -35q-21 -14 -31 -31t-17 -49q-3 -12 -19 -73q-2 -9 -5 -18q-8 -31 -16 -63v0q-3 -12 -6 -21q-1 -4 -1 -6l-1 -2q0 -3 1 -6l13 -38v0l-10 -25v0q-2 -6 2 -11q0 -1 1 -1
q1 -1 1 -2l4 -4l3 -3q11 -12 23 -24q11 -11 29 -13q14 -1 28 1v1h1l38 -44v0q3 -4 8 -4h148v0zM293 -18h-138h138h-138l-39 45v0q-5 5 -11 3h-1v0q-3 0 -5 -1v0q-11 -2 -22 -1t-16 7l-23 23q-2 3 -4 5l8 22v0q2 4 1 8l-14 39v0q1 1 1 3v1q1 4 3 9q1 6 3 12q8 33 16 64
q4 16 8 29q13 51 16 62q7 29 15 43q8 13 25 25q20 15 48 34t38 25q0 1 1 1q1 1 3 2t4 3q5 4 9 5q3 2 5 2t5 -2q3 -1 9 -5q2 -2 4 -3q2 -2 4 -3v0q9 -6 37 -25t49 -34q17 -12 25 -26q8 -13 15 -42q4 -15 23 -91q8 -31 17 -64q3 -11 5 -21q1 -2 1 -3t1 -1l-14 -39v0
q-1 -4 0 -8l9 -22v0l-5 -5q-10 -11 -22 -23q-5 -6 -16 -7t-22 1q-3 0 -5 1v0h-1q-6 2 -11 -3l-39 -45v0zM224 277q3 0 13 4v0v0q11 4 22 10q4 2 7 4q17 8 22 11q4 5 -2 9q-5 3 -24 18t-24 20q-1 1 -2 1q-6 7 -12 8q-6 -1 -12 -8q-1 0 -2 -1q-5 -5 -24 -20t-24 -18
q-5 -5 -2 -9q4 -2 15 -8l14 -7q11 -6 22 -10q10 -4 13 -4v0zM224 46q2 -1 21 5q3 1 7 2q16 6 25 7q7 -1 28 -5q21 -3 23 -4v0q1 1 14 18q14 17 27 36t14 27q-1 16 -11 22q-1 2 -3 3q-5 6 -17 19q-8 8 -15 16l-9 9q0 1 -1 2q-9 5 -6 20q0 1 1 2q4 8 6 18t-3 20q-14 24 -29 23
q-7 -1 -19 -7q-11 -6 -17 -10q-7 -4 -18 -15q-11 -10 -13 -17q1 -4 10 -11q8 -6 15 -10q3 -2 4 -3t4 -2q7 -4 13 -9q7 -5 8 -8q0 -3 -1 -6q0 -3 -5 -11l-4 -8q-11 -16 -11 -29q2 -7 10 -11t17 -8q3 0 5 -1q7 -3 16 -7q18 -6 23 -8q6 -3 -7 -4h-4q-9 -2 -21 -2q-13 -1 -21 1
q-2 1 -5 1q-9 3 -18 5q-8 3 -10 5v1q-3 1 -1 11q1 4 3 15q2 13 5 27q2 13 3 18v3q3 9 -6 12h-2q-15 4 -25 5q-9 -1 -25 -5h-2q-9 -3 -6 -12q0 -2 1 -3q0 -5 3 -18q2 -14 5 -27q2 -11 2 -15q2 -10 0 -11l-1 -1q-1 -2 -9 -4q-8 -3 -17 -5q-4 -1 -7 -2q-8 -2 -20 -1
q-13 0 -22 2h-4q-12 1 -7 4l15 5q12 5 22 9q1 0 3 1q2 0 4 1q9 3 17 8q8 4 10 11q0 13 -10 29q-3 4 -5 8q-4 8 -5 11t-1 6q1 3 9 8q7 6 13 9q2 2 4 2q1 1 3 2q7 4 15 11q9 6 10 11q-1 7 -13 17q-11 11 -18 15q-6 4 -17 10t-18 7q-16 1 -30 -23q-5 -10 -3 -20q3 -10 7 -18v-2
q4 -15 -6 -20q0 -1 -1 -2t-4 -5q-8 -8 -20 -21q-11 -12 -17 -18l-3 -3q-9 -6 -10 -22q1 -8 14 -27t26 -36t14 -18v0q3 1 24 4q21 4 28 5q8 -1 24 -7q4 -1 8 -3q19 -5 20 -4v0h1h-1z" />
</svg>
