<?xml version="1.0" standalone="no"?>
<!DOCTYPE svg PUBLIC "-//W3C//DTD SVG 1.1//EN" "http://www.w3.org/Graphics/SVG/1.1/DTD/svg11.dtd" >
<svg xmlns="http://www.w3.org/2000/svg" xmlns:xlink="http://www.w3.org/1999/xlink" version="1.1" viewBox="-10 -40 532 512">
   <path fill="currentColor"
d="M195 -31l5 23l-5 -23l5 23q-34 8 -64 26l-12 -20v0q33 -20 71 -29v0zM318 -31l-6 23l6 -23l-6 23q34 8 64 26l12 -20v0q-33 -20 -71 -29h1zM37 85q-20 33 -29 71l23 5v0q8 -34 26 -64l-20 -12v0zM24 217q0 -17 3 -35l-24 -3v0q-6 38 0 76l24 -3v0q-3 -17 -3 -35v0z
M388 436l-12 -20l12 20l-12 -20q-30 18 -64 26l6 24v0q37 -10 70 -30v0zM488 217q0 17 -3 35l24 3v0q6 -38 0 -76l-24 3v0q3 18 3 35v0zM505 278l-24 -5l24 5l-24 -5q-8 34 -26 64l20 12v0q20 -33 30 -71v0zM291 446q-35 6 -70 0l-3 24v0q38 6 76 0l-3 -24v0zM443 355
q-21 28 -49 49l14 19v0q31 -23 54 -54l-19 -15v1zM394 30q28 21 49 49l19 -14v0q-23 -31 -54 -54l-14 19v0zM69 79q21 -28 49 -49l-14 -19v0q-31 23 -54 54l19 14v0zM475 85l-20 12l20 -12l-20 12q18 30 26 64l24 -6v0q-10 -37 -30 -70v0zM221 -12q35 -6 70 0l3 -24v0
q-38 -6 -76 0l3 24v0zM82 429l-50 12l50 -12l-50 12l12 -50v0l-24 -5v0l-11 50v0q-2 6 0 12t6 10t10 6t13 0l49 -11v0l-5 -24v0zM25 365l24 5l-24 -5l24 5l8 -34v0q-18 -30 -26 -63l-23 5v0q7 32 23 61l-6 25v1zM137 417l-34 8l34 -8l-34 8l5 23v0l26 -6v0q28 16 60 24
l6 -24v0q-33 -8 -63 -26v1v0zM256 9q-57 0 -106 29q-48 29 -76 79q-27 49 -26 106q2 57 32 105l-20 85v0l85 -20v0q42 26 91 31q48 5 94 -13q46 -17 79 -53t47 -83q13 -48 5 -96q-9 -48 -39 -87q-29 -39 -73 -61t-93 -22v0z" />
</svg>
