<?xml version="1.0" standalone="no"?>
<!DOCTYPE svg PUBLIC "-//W3C//DTD SVG 1.1//EN" "http://www.w3.org/Graphics/SVG/1.1/DTD/svg11.dtd" >
<svg xmlns="http://www.w3.org/2000/svg" xmlns:xlink="http://www.w3.org/1999/xlink" version="1.1" viewBox="-10 -40 468 512">
   <path fill="currentColor"
d="M416 -7h-384h384h-384q-14 0 -23 9q-9 10 -9 23v384v0q0 13 9 23q9 9 23 9h384v0q14 0 23 -9q9 -10 9 -23v-384v0q0 -13 -9 -23q-9 -9 -23 -9v0zM135 377h-66h66h-66v-214v0h67v0v214h-1zM102 134q-16 0 -27 -11v0v0q-11 -11 -11 -27q0 -17 11 -28t27 -11q17 0 27 11
q11 11 12 28q-1 16 -12 27q-10 11 -27 11v0zM384 377h-66h66h-66v-104v0q1 -20 -5 -38q-5 -17 -30 -19q-25 1 -33 17q-7 16 -6 38v106v0h-67v0v-214v0h64v0v29v0h1v0q6 -13 22 -23q16 -11 41 -11q49 1 65 29q16 29 14 73v117v0z" />
</svg>
