<?xml version="1.0" standalone="no"?>
<!DOCTYPE svg PUBLIC "-//W3C//DTD SVG 1.1//EN" "http://www.w3.org/Graphics/SVG/1.1/DTD/svg11.dtd" >
<svg xmlns="http://www.w3.org/2000/svg" xmlns:xlink="http://www.w3.org/1999/xlink" version="1.1" viewBox="-10 -40 468 512">
   <path fill="currentColor"
d="M448 57q-1 -27 -19 -45v0v0q-18 -18 -45 -19h-320v0q-27 1 -45 19t-19 45v320v0q1 27 19 45t45 19h320v0q27 -1 45 -19t19 -45v-320v0zM266 369v-12v-44q-1 -23 -11 -30q29 -2 52 -14q22 -13 24 -59q-1 -25 -17 -39q1 -4 3 -16q1 -12 -5 -29q-12 -2 -28 7t-18 10v0
q-20 -5 -41 -5q-22 0 -42 5q-2 -1 -18 -10t-28 -7q-6 17 -5 29q2 12 4 16q-16 14 -16 39q1 46 23 58q22 13 51 15q-7 6 -10 22q-8 4 -23 4q-14 0 -26 -18q-7 -11 -16 -14q-8 -3 -9 -3q-11 1 -7 5q4 5 6 5q8 5 13 14t5 10q10 21 32 21q22 1 24 -1v15v16v7q0 2 1 3q0 8 -12 8
q-50 -18 -81 -60q-30 -43 -31 -99q1 -70 46 -115t116 -46q70 1 117 46t49 115q-1 56 -31 99q-29 42 -80 60q-12 0 -11 -8v0zM175 314q0 -3 3 -3q4 0 4 2t-3 3q-3 0 -4 -2v0zM166 317q-3 0 -4 -2q1 -2 4 -3q3 0 4 3q-1 2 -4 2v0zM152 315q-3 -1 -3 -3q1 -2 4 -2q3 1 3 4
q-1 2 -4 1v0zM139 308q-2 -3 -1 -4q2 -2 5 0q2 3 1 4q-2 2 -5 0v0zM131 298q-2 -3 0 -4t4 1q1 3 0 4q-2 1 -4 -1v0zM125 289q-2 -2 -1 -4q2 -1 4 1q1 2 0 3q-2 2 -3 0v0zM119 282q-2 -1 -2 -2q1 -1 3 -1q2 2 1 3q0 1 -2 0v0z" />
</svg>
