<?xml version="1.0" standalone="no"?>
<!DOCTYPE svg PUBLIC "-//W3C//DTD SVG 1.1//EN" "http://www.w3.org/Graphics/SVG/1.1/DTD/svg11.dtd" >
<svg xmlns="http://www.w3.org/2000/svg" xmlns:xlink="http://www.w3.org/1999/xlink" version="1.1" viewBox="-10 -40 532 512">
   <path fill="currentColor"
d="M459 113q1 7 1 13v0v0v0q0 71 -35 139q-34 68 -101 113q-66 45 -163 47q-90 -1 -161 -47q12 1 25 1q75 -1 131 -45q-36 -1 -62 -21t-36 -51q9 1 19 1q15 0 28 -3q-37 -8 -60 -36t-24 -67v-2v0q21 12 47 14q-44 -31 -47 -88q1 -29 15 -53q39 48 95 77q55 29 121 33
q-2 -12 -2 -24q1 -44 30 -74q30 -30 74 -31q47 1 77 33q36 -7 67 -25q-13 37 -46 58q31 -4 60 -17q-22 32 -53 55v0z" />
</svg>
