<?xml version="1.0" standalone="no"?>
<!DOCTYPE svg PUBLIC "-//W3C//DTD SVG 1.1//EN" "http://www.w3.org/Graphics/SVG/1.1/DTD/svg11.dtd" >
<svg xmlns="http://www.w3.org/2000/svg" xmlns:xlink="http://www.w3.org/1999/xlink" version="1.1" viewBox="-10 -40 516 512">
   <path fill="currentColor"
d="M166 358q-1 4 -5 4q-6 0 -6 -4q1 -3 5 -3q5 0 6 3v0zM135 354q-1 3 4 5q5 1 6 -2q1 -4 -4 -5t-6 2v0zM179 352q-5 1 -5 5q1 3 6 3q5 -2 5 -5q-1 -3 -6 -3v0zM245 -31q-107 2 -175 70v0v0q-68 68 -70 174q1 85 47 149t123 90q18 1 17 -12v-15v-46q-2 0 -19 2q-18 1 -38 -4
q-20 -6 -28 -28q0 -2 -8 -16q-8 -13 -20 -21q-2 -1 -8 -8q-7 -6 10 -7q1 -1 14 4q13 4 24 22q18 27 39 27q22 0 34 -6q4 -24 16 -34q-44 -2 -77 -22q-33 -19 -35 -89q0 -20 6 -33q5 -13 17 -25q-2 -6 -4 -24t7 -44q18 -3 42 11q25 13 27 16v0q30 -9 63 -9q32 0 63 9
q0 -1 13 -9q12 -8 28 -14q16 -7 28 -4q9 26 7 44t-5 24q12 12 19 25t7 33q-1 48 -17 71q-17 22 -43 30t-55 10q16 11 17 46v66v18q-1 13 17 12q76 -26 122 -90q45 -64 46 -149q-1 -70 -34 -125q-34 -55 -90 -87q-57 -31 -127 -32v0zM97 314q-2 2 1 5t5 1t-1 -5q-2 -3 -5 -1
v0zM86 306q0 2 3 4q3 1 4 -1t-2 -4q-3 -1 -5 1v0zM119 341q-2 3 1 7q4 3 7 1q1 -3 -2 -7q-4 -3 -6 -1v0zM107 327q-2 2 0 6q3 3 6 2q2 -2 0 -6q-3 -4 -6 -2v0z" />
</svg>
