<?xml version="1.0" standalone="no"?>
<!DOCTYPE svg PUBLIC "-//W3C//DTD SVG 1.1//EN" "http://www.w3.org/Graphics/SVG/1.1/DTD/svg11.dtd" >
<svg xmlns="http://www.w3.org/2000/svg" xmlns:xlink="http://www.w3.org/1999/xlink" version="1.1" viewBox="-10 -40 516 512">
   <path fill="currentColor"
d="M496 217q-1 69 -34 125v0v0q-33 56 -89 89v0v0q-56 33 -125 34q-38 0 -73 -11q8 -13 17 -31q9 -17 13 -34l9 -33t7 -26v0q6 12 22 20q15 8 35 8q57 -1 92 -45q35 -43 36 -109q-1 -63 -44 -102q-43 -40 -109 -41q-80 2 -122 46q-41 43 -41 104q0 29 13 56q13 28 37 40
q7 3 8 -3q1 -4 4 -15q2 -8 3 -13q1 -4 -2 -7q-7 -10 -13 -25q-5 -16 -5 -32q0 -43 30 -74q29 -32 82 -34q46 1 75 29q28 27 29 72q-1 51 -23 82t-55 32q-19 -1 -30 -13q-11 -13 -7 -32q4 -16 9 -32q10 -29 11 -50q1 -32 -31 -35q-19 0 -32 17q-12 16 -13 43q1 17 4 26
q3 10 4 11v0q-1 1 -7 27t-13 55t-9 41q-4 16 -4 36q1 20 3 35q-71 -28 -114 -90q-43 -61 -44 -141q1 -69 34 -125t89 -89t125 -34q69 1 125 34t89 89t34 125v0z" />
</svg>
