<?xml version="1.0" standalone="no"?>
<!DOCTYPE svg PUBLIC "-//W3C//DTD SVG 1.1//EN" "http://www.w3.org/Graphics/SVG/1.1/DTD/svg11.dtd" >
<svg xmlns="http://www.w3.org/2000/svg" xmlns:xlink="http://www.w3.org/1999/xlink" version="1.1" viewBox="-10 -40 468 512">
   <path fill="currentColor"
d="M224 102q-49 1 -81 34v0v0q-33 32 -34 81q1 49 34 81q32 33 81 34q49 -1 81 -34q33 -32 34 -81q-1 -49 -34 -81q-32 -33 -81 -34v0zM224 292q-32 -1 -53 -22v0v0q-21 -21 -22 -53q1 -32 22 -53t53 -22q32 1 53 22t22 53q-1 32 -22 53t-53 22v0zM371 97q-3 25 -27 27
q-25 -2 -27 -27q0 -11 8 -19q7 -7 19 -7q11 0 19 7q7 8 8 19v0zM447 125q0 -55 -37 -94q-39 -37 -93 -37q-20 -1 -57 -1h-72q-37 0 -56 1q-54 0 -94 37q-37 39 -36 93q-2 20 -2 57v72t2 56q-1 55 36 94q39 37 94 36q19 1 56 2h72q37 -1 57 -2q54 1 93 -36q37 -39 37 -94
q1 -20 1 -56v-72q0 -37 -1 -57v1zM399 349q-13 30 -43 43q-20 7 -54 8t-62 1h-16h-16q-28 0 -62 -1q-33 -1 -54 -8q-30 -13 -43 -43q-7 -21 -8 -54q-1 -34 -1 -62v-16v-16q0 -28 1 -62t8 -54q13 -30 43 -43q21 -7 54 -8q34 -2 62 -1h16h16q28 0 62 1t54 8q30 13 43 43
q7 20 8 54q2 34 1 62v16v16q1 28 -1 62q-1 34 -8 54v0z" />
</svg>
