<?xml version="1.0" standalone="no"?>
<!DOCTYPE svg PUBLIC "-//W3C//DTD SVG 1.1//EN" "http://www.w3.org/Graphics/SVG/1.1/DTD/svg11.dtd" >
<svg xmlns="http://www.w3.org/2000/svg" xmlns:xlink="http://www.w3.org/1999/xlink" version="1.1" viewBox="-10 -40 400 512">
   <path fill="currentColor"
d="M319 230q-1 -55 50 -85q-29 -40 -85 -45q-17 -1 -34 4t-30 10q-16 6 -24 7q-11 -1 -28 -8q-24 -10 -49 -12q-44 1 -78 34q-35 33 -37 100q0 39 14 81q7 19 23 49q16 29 38 52t47 24q16 -1 32 -8q18 -9 43 -10q24 1 41 9q16 8 36 9q24 -2 45 -23q21 -22 36 -49
q15 -28 21 -47q-45 -25 -54 -56q-9 -30 -7 -36v0v0zM262 66q19 -25 23 -45v0v0q3 -19 1 -28v0v0v0q-18 1 -37 11q-18 10 -31 24q-27 30 -25 72q39 1 69 -34v0z" />
</svg>
