<?xml version="1.0" standalone="no"?>
<!DOCTYPE svg PUBLIC "-//W3C//DTD SVG 1.1//EN" "http://www.w3.org/Graphics/SVG/1.1/DTD/svg11.dtd" >
<svg xmlns="http://www.w3.org/2000/svg" xmlns:xlink="http://www.w3.org/1999/xlink" version="1.1" viewBox="-10 -40 524 512">
   <path fill="currentColor"
d="M256 -31q-69 1 -125 34v0v0q-56 33 -89 89v0v0q-33 56 -34 125q1 69 34 125t89 89t125 34q69 -1 125 -34t89 -89t34 -125q-1 -69 -34 -125t-89 -89t-125 -34v0zM420 83q46 56 48 132q-7 -2 -50 -7t-98 1q-8 -20 -18 -42q58 -26 87 -52q28 -25 31 -32v0zM396 59
q-2 6 -28 30v0v0q-27 24 -83 46q-27 -48 -50 -83q-23 -34 -29 -41q51 -12 101 1q50 12 89 47v0zM166 26q5 6 28 40v0v0q23 34 50 82q-76 19 -131 23t-64 3q10 -50 41 -88q31 -39 76 -60v0zM44 217v-6q10 1 73 -3q63 -5 145 -27q9 18 17 36q-58 17 -106 57t-74 85
q-53 -58 -55 -142v0zM126 384q17 -35 60 -72v0v0q43 -37 108 -60q22 59 32 102q11 43 13 58q-52 22 -109 16q-56 -7 -104 -44v0zM374 393q-1 -11 -11 -52v0v0q-9 -41 -30 -99q51 -7 88 0q37 6 44 9q-7 44 -31 81q-24 36 -60 61v0z" />
</svg>
