<?xml version="1.0" standalone="no"?>
<!DOCTYPE svg PUBLIC "-//W3C//DTD SVG 1.1//EN" "http://www.w3.org/Graphics/SVG/1.1/DTD/svg11.dtd" >
<svg xmlns="http://www.w3.org/2000/svg" xmlns:xlink="http://www.w3.org/1999/xlink" version="1.1" viewBox="-10 -40 516 512">
   <path fill="currentColor"
d="M248 -31q-69 1 -125 34v0v0q-56 33 -89 89v0v0q-33 56 -34 125q1 69 34 125t89 89t125 34q69 -1 125 -34t89 -89t34 -125q-1 -69 -34 -125t-89 -89t-125 -34v0zM363 195l-113 153l113 -153l-113 153l-113 -153v0q-8 -10 -9 -32t23 -40q21 -12 39 -6q18 5 29 18
q13 14 31 13q18 0 31 -13q10 -13 29 -18q18 -6 39 6q23 18 22 40q0 22 -8 32v0z" />
</svg>
