<?xml version="1.0" standalone="no"?>
<!DOCTYPE svg PUBLIC "-//W3C//DTD SVG 1.1//EN" "http://www.w3.org/Graphics/SVG/1.1/DTD/svg11.dtd" >
<svg xmlns="http://www.w3.org/2000/svg" xmlns:xlink="http://www.w3.org/1999/xlink" version="1.1" viewBox="-11 0 470 512">
   <path fill="currentColor"
d="M31 24q-22 23 -27 66v0v0q-5 43 -4 118v18v0q-1 75 4 118t27 66q23 22 66 27t118 4h18v0q75 1 118 -4t66 -27q22 -23 27 -66t4 -118v-18v0q1 -75 -4 -118t-27 -66q-23 -22 -66 -27t-118 -4h-18v0q-75 -1 -118 4t-66 27v0zM76 129h51h-51h51q2 64 24 94q21 30 45 35v-129
v0h48v0v74v0q23 -3 43 -24t28 -50h48v0q-6 29 -23 54q-17 24 -42 39q28 14 48 39q20 24 28 55h-53v0q-7 -27 -28 -45t-49 -22v67v0h-6v0q-77 -1 -118 -50q-42 -49 -44 -137v0z" />
</svg>
