<?xml version="1.0" standalone="no"?>
<!DOCTYPE svg PUBLIC "-//W3C//DTD SVG 1.1//EN" "http://www.w3.org/Graphics/SVG/1.1/DTD/svg11.dtd" >
<svg xmlns="http://www.w3.org/2000/svg" xmlns:xlink="http://www.w3.org/1999/xlink" version="1.1" viewBox="-10 -40 404 512">
   <path fill="currentColor"
d="M384 274q-21 50 -52 66v0v0q-31 16 -62 12v0v0q-31 -4 -52 -14v0v0q-20 -9 -21 -10q-31 62 -79 98q-47 35 -106 36q-12 -1 -12 -12q0 -10 12 -12q49 -1 89 -30q41 -29 68 -80q-21 9 -50 10q-30 1 -59 -19q-30 -19 -52 -73q54 -22 90 -16q36 5 58 24q21 19 30 37
q15 -36 22 -79q-3 1 -37 1q-34 -1 -70 -21q-35 -20 -43 -79q59 -21 93 -1q33 20 47 48q13 27 13 30q1 -14 2 -33q1 -18 1 -20q-2 -1 -25 -23q-22 -22 -33 -59t20 -83q60 23 71 61q12 38 2 68q-9 31 -11 33v14v19q-1 -2 15 -22q15 -20 45 -34q30 -15 76 -1q-5 65 -39 87
t-67 21q-33 0 -36 -2q-7 41 -20 78q1 -3 25 -21q24 -19 63 -26t84 27v0z" />
</svg>
