<?xml version="1.0" standalone="no"?>
<!DOCTYPE svg PUBLIC "-//W3C//DTD SVG 1.1//EN" "http://www.w3.org/Graphics/SVG/1.1/DTD/svg11.dtd" >
<svg xmlns="http://www.w3.org/2000/svg" xmlns:xlink="http://www.w3.org/1999/xlink" version="1.1" viewBox="-10 -40 524 512">
   <path fill="currentColor"
d="M62 130l101 278l-101 -278l101 278q-54 -26 -86 -77q-33 -50 -34 -114q1 -47 19 -87v0zM400 206q-3 -38 -18 -58l-2 -4q-17 -23 -19 -46q0 -16 10 -27t26 -11h2h1q-59 -54 -144 -56q-56 1 -102 26q-47 26 -76 70h14q18 0 36 -1q19 -1 21 -1v0q8 0 9 8q0 7 -8 9
q-3 1 -24 2l77 231v0l47 -140v0l-33 -91v0q-20 -1 -23 -2q-8 -1 -8 -9q1 -8 10 -8q1 0 20 1q18 1 36 1t36 -1q19 -1 20 -1v0q9 0 10 8q0 7 -8 9q-3 1 -24 2l76 229v0l22 -71v0q1 -4 2 -7q13 -38 14 -62v0zM260 236l-64 185l64 -185l-64 185q29 9 60 9q37 0 71 -12
q-1 -2 -2 -3l-65 -179v0zM443 115q1 10 1 22q1 31 -16 76l-65 188v0q48 -28 77 -76q28 -48 29 -108q-1 -56 -26 -102v0zM504 217q-1 69 -34 125v0v0q-33 56 -89 89v0v0q-56 33 -125 34q-69 -1 -125 -34t-89 -89t-34 -125q1 -69 34 -125t89 -89t125 -34q69 1 125 34t89 89
t34 125v0zM493 217q-1 -66 -33 -119v0v0q-31 -54 -85 -85v0v0q-53 -32 -119 -33q-66 1 -119 33q-54 31 -85 85q-32 53 -33 119q1 66 33 119q31 54 85 85q53 32 119 33q66 -1 119 -33q54 -31 85 -85q32 -53 33 -119v0z" />
</svg>
