<?xml version="1.0" standalone="no"?>
<!DOCTYPE svg PUBLIC "-//W3C//DTD SVG 1.1//EN" "http://www.w3.org/Graphics/SVG/1.1/DTD/svg11.dtd" >
<svg xmlns="http://www.w3.org/2000/svg" xmlns:xlink="http://www.w3.org/1999/xlink" version="1.1" viewBox="-10 -40 532 512">
   <path fill="currentColor"
d="M0 217q1 -72 35 -129v0v0q34 -58 92 -92v0v0q57 -34 129 -35q72 1 129 35q58 34 92 92q34 57 35 129q-1 72 -35 129q-34 58 -92 92q-57 34 -129 35h-219v0q-10 -1 -14 -9q-4 -9 3 -17l49 -49v0q-35 -35 -55 -81q-20 -47 -20 -100v0zM350 115q18 -1 30 -13v0v0
q12 -12 12 -30t-12 -30t-30 -13q-16 1 -28 10q-11 9 -14 24q-27 4 -44 23q-17 18 -18 46v0v0q-57 3 -99 29q-15 -12 -36 -13q-25 1 -42 18t-18 42q2 38 35 54q3 54 51 89t119 37q72 -2 120 -37t51 -89q32 -16 34 -54q-1 -25 -18 -42t-42 -18q-21 1 -36 13q-43 -26 -100 -29
v0v0q0 -20 12 -34q12 -13 31 -16v0v0q4 14 15 23t27 9v1zM177 208q13 0 21 11v0v0q8 12 8 28q-4 31 -31 30q-13 0 -22 -7q-8 -8 -8 -24q1 -16 10 -27t22 -11v0zM367 246q1 16 -8 24v0v0q-9 7 -22 7q-27 1 -30 -30q-1 -17 7 -28t21 -11t22 11q9 10 10 27v0zM319 303
q-8 19 -25 30v0v0q-16 11 -38 12q-22 -1 -38 -12q-17 -11 -25 -30q-1 -5 4 -7q28 -2 59 -2t59 2q5 2 4 7v0z" />
</svg>
