<?xml version="1.0" standalone="no"?>
<!DOCTYPE svg PUBLIC "-//W3C//DTD SVG 1.1//EN" "http://www.w3.org/Graphics/SVG/1.1/DTD/svg11.dtd" >
<svg xmlns="http://www.w3.org/2000/svg" xmlns:xlink="http://www.w3.org/1999/xlink" version="1.1" viewBox="-10 -40 468 512">
   <path fill="currentColor"
d="M64 -7h320h-320h320q27 1 45 19t19 45v320v0q-1 27 -19 45t-45 19h-320v0q-27 -1 -45 -19t-19 -45v-320v0q1 -27 19 -45t45 -19v0zM306 127q16 0 26 -11v0v0q11 -10 11 -26t-11 -26q-10 -11 -26 -11q-29 2 -37 30q-23 3 -38 19q-15 17 -16 41v0v0q-50 2 -86 25
q-14 -10 -32 -11q-22 1 -37 16q-15 14 -15 37q1 33 30 47q3 47 44 78q42 30 105 32q63 -2 105 -32q41 -31 44 -78q29 -14 30 -47q0 -23 -15 -37q-15 -15 -37 -16q-18 1 -32 11q-37 -23 -87 -25v0v0q0 -17 10 -29q11 -12 27 -15v0v0q8 27 37 29v-1zM155 209q11 0 18 10v0v0
q7 10 7 25q-3 27 -26 25q-25 1 -27 -26q1 -15 9 -24t19 -10v0zM321 243q-1 27 -26 26q-24 2 -27 -26q0 -14 7 -24t18 -10q12 0 20 10q7 9 8 24v0zM279 292q-15 35 -55 37q-39 -2 -55 -37q-1 -4 3 -5q25 -3 52 -3q28 0 52 3q4 1 3 5v0z" />
</svg>
