<?xml version="1.0" standalone="no"?>
<!DOCTYPE svg PUBLIC "-//W3C//DTD SVG 1.1//EN" "http://www.w3.org/Graphics/SVG/1.1/DTD/svg11.dtd" >
<svg xmlns="http://www.w3.org/2000/svg" xmlns:xlink="http://www.w3.org/1999/xlink" version="1.1" viewBox="-10 -40 523 512">
   <path fill="currentColor"
d="M503 227v70v-70v70q-1 47 -33 79t-79 33q-48 -1 -80 -32q-32 -32 -33 -79v-70v0l34 16v0l52 -16v0v71v0q2 24 26 27q12 -1 19 -8q8 -8 8 -19v-72v0h86v0zM278 169l35 16l-35 -16l35 16l51 -15v0v-36v0q-2 -47 -34 -77q-31 -31 -78 -32q-47 1 -79 32q-32 30 -34 76v163v0
q-2 24 -26 26q-25 -2 -27 -26v-69v0h-86v0v70v0q1 47 33 79t79 33q48 -1 80 -32q32 -32 33 -79v-160v0q0 -11 8 -19q7 -8 19 -8q11 0 18 8q8 8 8 19v31v0z" />
</svg>
