<?xml version="1.0" standalone="no"?>
<!DOCTYPE svg PUBLIC "-//W3C//DTD SVG 1.1//EN" "http://www.w3.org/Graphics/SVG/1.1/DTD/svg11.dtd" >
<svg xmlns="http://www.w3.org/2000/svg" xmlns:xlink="http://www.w3.org/1999/xlink" version="1.1" viewBox="-10 -40 516 512">
   <path fill="currentColor"
d="M496 217q-1 69 -34 125v0v0q-33 56 -89 89v0v0q-56 33 -125 34q-87 -2 -152 -51q-64 -50 -87 -129l95 39v0q5 24 24 40t45 16q30 0 50 -21t20 -52l84 -60v0q41 0 68 -27q27 -26 28 -67q-1 -40 -27 -66q-27 -26 -66 -27q-40 1 -67 27q-26 26 -27 66v1v0l-59 86v0
q-24 -1 -44 12l-133 -55v0q10 -98 79 -162q68 -64 169 -66q69 1 125 34t89 89t34 125v0zM156 345l-31 -12l31 12l-31 -12q9 18 27 25q21 9 41 1q19 -8 28 -29q9 -20 1 -40q-9 -20 -29 -29q-20 -8 -39 0l32 13v0q15 6 21 21q5 14 0 29q-7 15 -22 21q-14 6 -29 0v0zM330 215
q-27 0 -45 -18v0v0q-17 -17 -18 -44q1 -26 18 -44q18 -18 45 -18q26 0 44 18q17 18 18 44q-1 27 -18 44q-18 18 -44 18v0zM330 200q20 -1 33 -14v0v0q13 -13 14 -33q-1 -20 -14 -33t-33 -14q-20 1 -34 14q-13 13 -13 33t14 33q13 13 33 14v0z" />
</svg>
