<?xml version="1.0" standalone="no"?>
<!DOCTYPE svg PUBLIC "-//W3C//DTD SVG 1.1//EN" "http://www.w3.org/Graphics/SVG/1.1/DTD/svg11.dtd" >
<svg xmlns="http://www.w3.org/2000/svg" xmlns:xlink="http://www.w3.org/1999/xlink" version="1.1" viewBox="-10 -40 516 512">
   <path fill="currentColor"
d="M248 -31q-69 1 -125 34v0v0q-56 33 -89 89v0v0q-33 56 -34 125q1 69 34 125t89 89t125 34q69 -1 125 -34t89 -89t34 -125q-1 -69 -34 -125t-89 -89t-125 -34v0zM349 334q-6 0 -11 -4q-47 -27 -100 -32q-53 -4 -107 8q-1 0 -2 1q-6 1 -10 1q-15 -1 -15 -15q1 -15 13 -17
q62 -14 123 -10q60 5 114 36q10 4 10 17q-2 14 -15 15v0zM376 268q-7 0 -11 -3v0v0q-1 -1 -2 -1q-48 -28 -111 -37q-64 -9 -127 8q-2 0 -4 1q-4 1 -8 1q-18 -1 -20 -19q0 -16 16 -21q20 -6 44 -10q23 -3 54 -3q100 0 177 45q11 7 11 20q-2 18 -19 19v0zM407 192q-7 0 -13 -4
q-57 -32 -137 -39q-79 -8 -144 10h-2q-5 2 -11 2q-22 -2 -23 -23q2 -21 17 -24q53 -16 118 -16q55 0 109 12q53 12 96 36q12 6 13 23q-3 22 -23 23v0z" />
</svg>
