<?xml version="1.0" standalone="no"?>
<!DOCTYPE svg PUBLIC "-//W3C//DTD SVG 1.1//EN" "http://www.w3.org/Graphics/SVG/1.1/DTD/svg11.dtd" >
<svg xmlns="http://www.w3.org/2000/svg" xmlns:xlink="http://www.w3.org/1999/xlink" version="1.1" viewBox="-10 -40 591 512">
   <path fill="currentColor"
d="M511 198q-7 -3 -7 -10q0 -6 -1 -11q-2 -20 -8 -38q-19 -51 -59 -80q-41 -29 -90 -34q-50 -4 -98 22q-41 23 -65 64q-2 -1 -3 -2q-3 -1 -5 -2q-46 -19 -85 9q-39 29 -33 77q0 5 -5 9q-30 23 -41 56t0 69q11 35 40 57q28 22 65 24q35 1 69 1h22h68q92 0 184 -1
q40 -1 70 -25q29 -23 38 -62q9 -37 -6 -70q-16 -33 -50 -53v0zM532 355q-28 35 -72 36q-60 1 -121 0h-49q-3 1 -42 1q-40 0 -79 -1h-43q-67 0 -95 -60q-14 -32 -4 -64q9 -32 38 -52q14 -7 10 -23q-7 -40 27 -63t72 -3q2 1 4 3q5 3 9 3t9 -8q21 -40 61 -62q50 -26 102 -17
t89 48q36 39 39 102q-1 11 10 16q43 22 53 64q11 42 -18 80v0zM444 275q-5 24 -24 39v0v0q-18 15 -43 16q-25 -1 -44 -18q-16 -15 -37 -37q-16 -17 -32 -32q-15 -15 -27 -24q-31 -22 -60 4q-24 23 -16 49q7 26 32 37q24 12 51 -9q3 -3 5 -6q4 -4 8 -7q7 -4 12 -1q6 3 1 12
q-14 20 -35 27q-21 8 -44 2q-22 -7 -35 -26q-13 -18 -14 -44q2 -35 36 -56q35 -20 67 2q38 31 62 60q23 26 45 41q19 12 38 7t31 -24q13 -26 2 -48t-34 -28q-24 -7 -47 13l-4 4q-3 4 -7 7q-9 5 -12 0q-4 -5 -1 -10q32 -45 83 -28q24 9 36 30q11 22 7 48v0z" />
</svg>
