<?xml version="1.0" standalone="no"?>
<!DOCTYPE svg PUBLIC "-//W3C//DTD SVG 1.1//EN" "http://www.w3.org/Graphics/SVG/1.1/DTD/svg11.dtd" >
<svg xmlns="http://www.w3.org/2000/svg" xmlns:xlink="http://www.w3.org/1999/xlink" version="1.1" viewBox="-10 -40 468 512">
   <path fill="currentColor"
d="M0 -7v448v-448v448h448v0v-448v0h-448v0zM21 190v0v0v0v0v0v0v0zM239 244v101v-101v101h-31v0v-103v0l-80 -153v0h37v0q30 56 41 79q10 23 13 33q3 6 6 14q4 -10 7 -18q3 -9 13 -31q11 -22 40 -77h35v0l-81 155v0z" />
</svg>
