<?xml version="1.0" standalone="no"?>
<!DOCTYPE svg PUBLIC "-//W3C//DTD SVG 1.1//EN" "http://www.w3.org/Graphics/SVG/1.1/DTD/svg11.dtd" >
<svg xmlns="http://www.w3.org/2000/svg" xmlns:xlink="http://www.w3.org/1999/xlink" version="1.1" viewBox="-10 -40 404 512">
   <path fill="currentColor"
d="M111 257q-2 11 -6 38v0v0q-4 28 -9 56v0v0q-4 26 -6 40q0 2 -3 2h-75v0q-12 -1 -12 -13l59 -372v0q4 -16 20 -17q43 0 73 -1q61 0 85 2q25 1 46 10q44 18 52 56q9 38 -8 84q-17 47 -53 69q-36 21 -87 22h-23q-22 -2 -36 2q-13 4 -17 22v0zM357 113q-2 -3 -3 1
q-3 17 -9 34q-19 52 -53 74q-35 22 -72 27q-38 4 -67 3h-12q-10 0 -11 9q-17 103 -22 138q-6 34 -5 32q-1 12 10 13h64v0q14 -1 17 -15v-1l2 -14q3 -13 13 -76q3 -15 9 -18q7 -3 16 -2h4q54 1 92 -25t51 -87q5 -27 1 -52t-25 -41v0z" />
</svg>
