<?xml version="1.0" standalone="no"?>
<!DOCTYPE svg PUBLIC "-//W3C//DTD SVG 1.1//EN" "http://www.w3.org/Graphics/SVG/1.1/DTD/svg11.dtd" >
<svg xmlns="http://www.w3.org/2000/svg" xmlns:xlink="http://www.w3.org/1999/xlink" version="1.1" viewBox="-10 -40 596 512">
   <path fill="currentColor"
d="M483 371q-1 11 -11 12q-11 -1 -12 -12q1 -10 12 -11q10 1 11 11v0zM172 360q-11 1 -11 11q0 11 11 12q10 -1 11 -12q-1 -10 -11 -11v0zM290 359q-9 1 -10 9h19v0q-1 -9 -9 -9v0zM397 360q-10 1 -10 11q0 11 10 12q11 -1 12 -12q-1 -10 -12 -11v0zM503 386v0v0v0q1 0 1 1
h-1v1v0v1h-1q-1 1 -1 0v0q-1 1 -1 0h-1v0l-1 -1v-1v-1q0 -1 1 -1v0v-1h1h1h1v0q1 0 1 1v0v1v0zM501 387h1v0v0v0v-1v-1v0h-1h-2v0v3v0h1v0v-1v0v0v0l1 1v0h1v0l-1 -1v0zM576 42v352v-352v352q-1 20 -14 34q-14 13 -34 14h-480v0q-20 -1 -34 -14q-13 -14 -14 -34v-352v0
q1 -20 14 -34q14 -13 34 -14h480v0q20 1 34 14q13 14 14 34v0zM64 182q1 58 41 98v0v0q39 39 98 40q41 0 76 -23q-55 -48 -54 -115q0 -68 54 -115q-35 -23 -76 -24q-59 2 -98 41q-40 39 -41 98v0zM288 290q53 -44 53 -108v0v0q0 -64 -53 -109q-53 45 -53 109t53 108v0z
M146 367q-1 -14 -15 -15q-7 -1 -13 7q-3 -7 -12 -7q-6 0 -11 5v-4v0h-8v0v37v0h8v0v-9q-3 -21 9 -21q11 0 9 21v9h8v0q-1 -5 -1 -9q-3 -21 10 -21q10 -1 8 21v9h8v0v-23v0zM191 353h-8h8h-8v4v0q-4 -5 -12 -5q-17 1 -18 19q1 18 18 20q8 0 12 -6v5v0h8v0v-37v0zM231 379
q-2 -12 -15 -12v0v0q-7 0 -8 -4q1 -4 7 -4t12 3l3 -6v0q-8 -5 -19 -4q-10 2 -11 12q2 11 14 11q8 0 9 4q-1 5 -8 5t-13 -4l-3 6v0q9 6 20 4q11 -1 12 -11v0zM267 388l-3 -7l3 7l-3 -7q-3 2 -7 2t-5 -6v-17v0h13v0v-7v0h-13v0v-11v0h-8v0v11v0h-8v0v7v0h8v0v17v0q1 13 9 13
q9 1 13 -2h1zM280 375h27h-27h27q-1 -24 -17 -23q-17 1 -18 19q1 15 12 19q12 3 21 -5l-3 -6v0q-7 5 -13 4q-7 -1 -9 -8v0zM339 353q-8 -4 -15 4v-4v0h-9v0v37v0h9v0v-21v0q0 -8 5 -9t7 1l3 -8v0zM350 371q0 -8 6 -11v0v0q7 -2 14 3l4 -7v0q-10 -6 -21 -3q-11 4 -12 18
q1 15 13 19q11 3 20 -4l-4 -6v0q-7 5 -14 2q-6 -2 -6 -11v0zM416 353h-8h8h-8v4v0q-7 -8 -18 -4t-12 18q1 15 12 19q11 3 18 -5v5v0h8v0v-37v0zM450 353q-2 -1 -7 -1v0v0q-5 0 -8 5v-4v0h-8v0v37v0h8v0v-21v0q0 -8 5 -9q4 -1 8 1l2 -8v0zM490 338h-8h8h-8v19v0q-7 -8 -18 -4
q-10 4 -12 18q2 15 13 19q11 3 17 -5v5v0h8v0v-52v0zM498 263v5v-5v5h1v0v-5v0h2v0v-1v0h-5v0v1v0h2v0zM504 387v-2l-1 -1v0q-1 0 -1 -1h-1v0h-1h-1q0 1 -1 1l-1 1v2v0v1t1 1q0 1 1 1h2h1h1v-1h1v-1v-1v0zM508 262h-2h2h-2l-1 4v0l-2 -4v0h-1v0v5v0v0v0v-4v0l2 4v0h1v0l2 -4
v0v4v0h1v0v-5v0zM512 182q-1 -59 -41 -98v0v0q-39 -39 -97 -41q-42 1 -77 23q36 31 48 73q13 43 1 85t-49 73q35 23 77 23q58 -1 97 -40q40 -40 41 -98v0z" />
</svg>
