<?xml version="1.0" standalone="no"?>
<!DOCTYPE svg PUBLIC "-//W3C//DTD SVG 1.1//EN" "http://www.w3.org/Graphics/SVG/1.1/DTD/svg11.dtd" >
<svg xmlns="http://www.w3.org/2000/svg" xmlns:xlink="http://www.w3.org/1999/xlink" version="1.1" viewBox="-10 -40 596 512">
   <path fill="currentColor"
d="M186 219q-1 20 -22 22q-15 0 -16 -15q2 -20 22 -22q15 0 16 15v0zM81 171h-5h5h-5q-3 0 -3 2l-5 27v0h9v0q17 2 21 -14q1 -10 -4 -13t-13 -2v0zM365 171h-5h5h-5q-3 0 -3 2l-4 27v0h8v0q20 2 22 -18q-1 -8 -6 -10q-6 -2 -13 -1h1zM576 41v352v-352v352q-1 20 -14 34
q-14 13 -34 14h-480v0q-20 -1 -34 -14q-13 -14 -14 -34v-352v0q1 -20 14 -34q14 -13 34 -14h480v0q20 1 34 14q13 14 14 34v0zM128 176q0 -15 -10 -21v0v0q-10 -7 -24 -7h-40v0q-5 1 -6 5l-16 102v0q0 4 3 4h19v0q5 -1 6 -5l4 -27v0q4 -7 15 -5h3q45 -1 46 -46v0zM213 185
h-19h19h-19q-5 2 -5 8v0q-9 -11 -23 -10q-19 1 -31 14t-13 32q2 30 32 32q15 -1 27 -12q-1 3 -1 6q0 4 3 4h17v0q4 -1 6 -6l10 -64v0q0 -3 -3 -4v0zM253 283l64 -92l-64 92l64 -92v-2q0 -3 -3 -4h-19v0q-3 0 -5 3l-26 39v0l-11 -38v0q-2 -3 -6 -4h-18v0q-3 1 -4 4q1 1 5 14
q5 13 9 27q6 17 8 21q-1 0 -1 1q-4 5 -11 16q-8 11 -9 15q0 2 3 3h19v0q3 -1 5 -3v0zM412 176q0 -15 -10 -21v0v0q-10 -7 -24 -7h-40v0q-5 1 -6 5l-16 102v0q0 4 3 4h21v0q3 0 4 -3l4 -29v0q4 -7 15 -5h3q45 -1 46 -46v0zM497 185h-19h19h-19q-5 2 -5 8v0q-8 -11 -23 -10
q-19 1 -31 14t-13 32q2 30 32 32q16 -1 27 -12q-1 0 -1 1v5q-1 4 3 4h17v0q4 -1 6 -6l10 -64v0q0 -3 -3 -4v0zM544 152q0 -3 -3 -4h-19v0q-2 1 -3 3l-16 104v0v1v0q0 3 3 3h17v0q4 -1 5 -6l16 -101v0v0v0zM454 204q-20 1 -22 22q1 14 17 15q19 -2 21 -22q-1 -15 -16 -15v0z
" />
</svg>
