<?xml version="1.0" standalone="no"?>
<!DOCTYPE svg PUBLIC "-//W3C//DTD SVG 1.1//EN" "http://www.w3.org/Graphics/SVG/1.1/DTD/svg11.dtd" >
<svg xmlns="http://www.w3.org/2000/svg" xmlns:xlink="http://www.w3.org/1999/xlink" version="1.1" viewBox="-10 -40 468 512">
   <path fill="currentColor"
d="M448 57q-1 -27 -19 -45v0v0q-18 -18 -45 -19h-320v0q-27 1 -45 19t-19 45v320v0q1 27 19 45t45 19h320v0q27 -1 45 -19t19 -45v-320v0zM211 242q-2 -6 -4 -11v0v0q-1 -3 -1 -5v0q-9 -32 -20 -50q-12 -18 -38 -18q-18 -1 -31 13q-14 14 -14 48q0 26 12 42q12 15 31 15
q22 -1 34 -11q13 -9 14 -10l11 32v0q0 1 -15 9q-15 9 -46 10q-78 -1 -80 -86q1 -89 83 -92q49 1 67 24q18 24 29 65q1 4 3 9q1 2 1 4q7 20 20 33q14 13 42 13q37 1 38 -19q-1 -12 -12 -18q-10 -5 -28 -8v0q-1 -1 -2 -1q-4 -1 -8 -1q-44 -11 -43 -48q1 -30 21 -42
q19 -11 45 -11q57 -1 63 47l-37 4v0q-2 -23 -29 -22q-25 0 -26 20q-1 16 21 21q3 1 7 1q24 4 44 15t21 41q-1 28 -21 39q-21 12 -55 12q-47 -1 -68 -19t-29 -45v0z" />
</svg>
