<?xml version="1.0" standalone="no"?>
<!DOCTYPE svg PUBLIC "-//W3C//DTD SVG 1.1//EN" "http://www.w3.org/Graphics/SVG/1.1/DTD/svg11.dtd" >
<svg xmlns="http://www.w3.org/2000/svg" xmlns:xlink="http://www.w3.org/1999/xlink" version="1.1" viewBox="-10 -40 586 512">
   <path fill="currentColor"
d="M551 202l-51 -87l51 87l-51 -87q2 -3 2 -7q-1 -13 -14 -15l-56 -96v0q1 -2 1 -5q-1 -14 -15 -15q-7 0 -12 6h-106v0q-5 -6 -12 -6t-12 6h-106v0q-4 -6 -11 -6q-14 1 -16 15q0 3 1 5l-56 97v0q-8 4 -9 14v1q1 0 1 1l-54 92v0q-11 3 -12 15q1 11 12 15l55 95v0q-1 2 -1 5
q1 12 12 15l52 89v0q-1 3 -1 6q1 14 15 15q7 0 12 -5h106v0q5 5 12 5t12 -5h107v0q4 4 11 4q14 -1 15 -15q0 -2 -1 -4l52 -90v0q11 -3 12 -15q0 -2 -1 -5l55 -95v0q11 -3 12 -15q-1 -12 -11 -15v0zM154 412l-44 -76l44 76l-44 -76h44v0v76v0zM154 328h-44h44h-44
q-1 -2 -1 -3v0l45 -48v0v51v0zM154 265l-51 54l51 -54l-51 54l-1 -1q-1 0 -3 -1l-56 -96v0q1 -2 1 -4v0v-4l52 -90v0q4 0 7 -2l51 52v0v92v0zM154 163l-46 -47l46 47l-46 -47q2 -4 2 -8v-1v0l44 -16v0v72v0zM154 83l-44 15l44 -15l-44 15l44 -75v0v60v0zM480 122l1 1l-1 -1
l1 1l-35 167v0l-64 -67v0l98 -102v0v1v0zM292 316l11 12l-11 -12l11 12h-22v0l11 -12v0zM291 305l-83 -86l83 86l-83 -86l80 -84v0l83 88v0l-80 82v0zM297 311l79 -82l-79 82l79 -82l68 71v0l-6 28v0h-124v0l-17 -17v0zM410 5l4 2l58 100v0v1v0q0 4 2 8l-98 101v0l-83 -88v0
l117 -124v0zM401 3l-113 121l113 -121l-113 121l-57 -61v0l166 -60v0h4v0zM278 3q4 4 10 5q6 -1 10 -5h75v0l-148 54v0l-51 -54v0h104v0zM162 9l1 -2l-1 2l1 -2q1 -1 2 -1l51 54v0l-54 20v0v-71v0zM162 88l60 -22l-60 22l60 -22l60 63v0l-79 85v0l-41 -43v0v-83v0zM162 181
l36 38l-36 -38l36 38l-36 38v0v-76v0zM162 269l42 -45l-42 45l42 -45l82 86v0l-17 18v0h-107v0v-59v0zM169 431q-3 -3 -6 -4l-1 -1v0v-90v0h99v0l-91 95v0h-1v0zM298 431q-4 -4 -10 -5q-6 1 -10 5h-97v0l92 -95v0h38v0l92 95v0h-105v0zM418 419l-4 7l4 -7l-4 7q-2 1 -3 2
l-90 -92v0h115v0l-18 83v0zM431 397l13 -61l-13 61l13 -61h22v0l-35 61v0zM466 328h-20h20h-20l4 -21v0l17 18v0q0 1 -1 3v0zM532 220l-55 97l55 -97l-55 97l-4 2l-21 -22v0l35 -164v0l46 79v0q-1 1 -1 2v3v3v0v0z" />
</svg>
