<?xml version="1.0" standalone="no"?>
<!DOCTYPE svg PUBLIC "-//W3C//DTD SVG 1.1//EN" "http://www.w3.org/Graphics/SVG/1.1/DTD/svg11.dtd" >
<svg xmlns="http://www.w3.org/2000/svg" xmlns:xlink="http://www.w3.org/1999/xlink" version="1.1" viewBox="-10 -40 660 512">
   <path fill="currentColor"
d="M640 290q-1 51 -34 82v0v0q-33 32 -83 33q-62 -2 -104 -40q-42 -37 -78 -86q-35 -48 -77 -85q-41 -37 -101 -39q-55 2 -83 33q-27 32 -27 73q1 42 29 73q29 32 86 33q33 0 66 -12q33 -11 60 -30q2 -2 6 -5q9 -10 17 -12q9 1 10 11q0 6 -6 13q-6 6 -12 11v0q-32 28 -73 44
q-40 17 -82 18q-64 -1 -108 -41q-44 -39 -46 -104q2 -66 44 -107q43 -41 109 -42q73 2 122 43q48 41 87 93q33 44 69 76t84 34q49 -3 65 -37q16 -33 0 -67t-62 -36q-15 1 -28 6q-11 5 -19 5q-14 -1 -16 -15q1 -9 3 -18t3 -19q-2 -50 -34 -82q-33 -31 -83 -32q-29 1 -47 10
q-19 10 -30 19q-8 7 -12 8q-10 -1 -11 -12q1 -8 7 -14q20 -22 47 -33t56 -11q61 2 100 40q38 37 39 98q0 10 -1 21q18 -5 36 -5q47 1 79 30q32 30 33 77v0z" />
</svg>
