<?xml version="1.0" standalone="no"?>
<!DOCTYPE svg PUBLIC "-//W3C//DTD SVG 1.1//EN" "http://www.w3.org/Graphics/SVG/1.1/DTD/svg11.dtd" >
<svg xmlns="http://www.w3.org/2000/svg" xmlns:xlink="http://www.w3.org/1999/xlink" version="1.1" viewBox="-10 -40 404 512">
   <path fill="currentColor"
d="M204 -32q-80 0 -140 48v0v0q-61 47 -64 131q2 53 23 81q21 29 41 29q7 -1 11 -15q4 -13 4 -20q0 -5 -6 -13q-6 -9 -11 -22q-6 -14 -7 -33q2 -62 41 -99q39 -38 100 -39q52 1 85 29q32 28 33 81q1 28 -8 63q-8 36 -28 62q-20 27 -54 28q-19 0 -32 -12q-14 -12 -14 -32
q2 -28 13 -56q12 -28 13 -57q-1 -33 -24 -41q-23 -7 -45 10q-23 16 -25 57q0 26 10 50q-5 22 -12 48q-11 41 -20 83q-9 43 -10 78q0 21 3 42q1 7 1 15q1 1 2 1q1 3 5 0q32 -42 43 -69t21 -72q3 -14 8 -32q10 18 30 27q19 9 39 9q53 -1 87 -30t51 -74q16 -45 16 -92
q-2 -76 -55 -120q-52 -44 -125 -44v0z" />
</svg>
