<?xml version="1.0" standalone="no"?>
<!DOCTYPE svg PUBLIC "-//W3C//DTD SVG 1.1//EN" "http://www.w3.org/Graphics/SVG/1.1/DTD/svg11.dtd" >
<svg xmlns="http://www.w3.org/2000/svg" xmlns:xlink="http://www.w3.org/1999/xlink" version="1.1" viewBox="-10 -40 468 512">
   <path fill="currentColor"
d="M381 58q-66 -64 -157 -65q-62 1 -112 30q-50 30 -80 80q-29 50 -30 112q0 60 29 111l-31 115v0l118 -31v0q49 27 106 27v0v0q62 -1 112 -30q51 -30 81 -80t31 -112q0 -45 -18 -85q-17 -40 -49 -72v0zM224 400q-51 -1 -94 -26l-7 -4v0l-70 18v0l19 -68v0l-4 -7v0
q-28 -45 -29 -98q2 -78 55 -130q52 -53 130 -54q76 0 130 54q55 54 57 130q-3 78 -56 131q-53 52 -131 54v0zM325 262q-5 -3 -19 -10v0v0q-14 -6 -19 -8q-7 -5 -12 2q-4 5 -9 12q-6 7 -9 10q-4 6 -12 1q-24 -11 -42 -25t-33 -41q-4 -6 3 -12q5 -4 13 -18q2 -5 -1 -10
q-1 -1 -4 -10q-3 -8 -7 -18q-4 -8 -6 -13q-6 -12 -11 -9h-1h-11q-6 -1 -15 6q0 1 -1 2q-5 4 -11 15t-7 30q1 20 10 37q9 16 12 20h1q0 1 1 2q5 9 30 36q24 27 63 46q26 11 40 14q15 2 27 0q9 -2 21 -9t16 -17q7 -22 4 -27q-2 -3 -8 -5q-2 -1 -3 -1v0z" />
</svg>
