<?xml version="1.0" standalone="no"?>
<!DOCTYPE svg PUBLIC "-//W3C//DTD SVG 1.1//EN" "http://www.w3.org/Graphics/SVG/1.1/DTD/svg11.dtd" >
<svg xmlns="http://www.w3.org/2000/svg" xmlns:xlink="http://www.w3.org/1999/xlink" version="1.1" viewBox="-10 -40 404 512">
   <path fill="currentColor"
d="M384 -7h-64h64h-64l-81 192v0h-94v0l-81 -192v0h-64v0l48 112v0h-48v0v48v0h69v0l13 32v0h-82v0v48v0h103v0l89 208v0l89 -208v0h103v0v-48v0h-82v0l14 -32v0h68v0v-48v0h-48v0l48 -112v0zM192 297l-27 -64l27 64l-27 -64h54v0l-27 64v0z" />
</svg>
