<?xml version="1.0" standalone="no"?>
<!DOCTYPE svg PUBLIC "-//W3C//DTD SVG 1.1//EN" "http://www.w3.org/Graphics/SVG/1.1/DTD/svg11.dtd" >
<svg xmlns="http://www.w3.org/2000/svg" xmlns:xlink="http://www.w3.org/1999/xlink" version="1.1" viewBox="-11 0 598 512">
   <path fill="currentColor"
d="M573 382q9 -15 -6 -11q-5 -8 -11 -14q4 -16 -11 -9q-7 -5 -16 -9q0 -11 -6 -11t-11 5q-15 -3 -27 6v-20q11 0 26 -9t20 -27q3 -10 0 -22q-7 -20 -25 -26q-3 -11 -15 -16q-11 0 -14 10q-16 0 -21 9q-4 0 -8 -1q-5 -1 -9 -1q4 -3 8 -5q9 -12 26 -11v-3v0q15 0 30 -5
q15 -4 24 -13q9 -11 12 -26q2 -15 0 -29t-7 -27q-6 -13 -17 -21q-7 -5 -14 -2q-8 3 -9 11q0 3 -1 6q0 12 -6 17t-32 2q-15 -36 -42 -60q-54 -43 -120 -47t-125 10q6 1 11 2q26 5 49 14q-40 5 -76 23q-22 12 -33 21q-12 10 -20 18l-4 4q4 -1 7 -1q19 -4 37 -3q-14 8 -26 20
q-17 1 -21 -4q-5 -4 -5 -17q0 -2 -1 -5q-1 -8 -8 -11q-8 -3 -14 1q-22 18 -25 51t12 53q9 9 24 13q16 4 31 5v2q17 0 25 12q4 2 8 5q-4 0 -8 1q-5 0 -9 1q-7 -10 -21 -9q-2 -10 -14 -10q-12 5 -15 16q-33 15 -25 48q5 18 20 27t26 9v20v0q-9 -8 -27 -6q-5 -5 -11 -5
q-6 -1 -6 11q-9 4 -16 9q-15 -8 -11 9q-6 6 -11 14q-15 -4 -6 11q-1 5 -2 11q2 25 26 44t48 21q28 0 43 -23q170 6 340 0q15 23 43 23q24 -2 48 -21t25 -44q0 -5 -1 -11v0zM499 128q2 -5 2 -14q2 -10 14 -1q9 10 12 26t2 25q-5 -23 -30 -36v0zM494 135q15 5 22 19v0v0
q7 14 8 30q-2 4 -5 8q-9 8 -26 12q3 -17 0 -34t-13 -29q8 -1 14 -6v0zM470 142q11 9 15 27v0v0q3 18 -1 36q-6 1 -11 1q-3 -33 -15 -64h12v0v0zM48 164q-1 -9 2 -25v0v0q3 -16 11 -26q13 -10 14 1q1 9 3 14q-25 13 -30 36v0zM57 192q-3 -4 -5 -8q1 -16 8 -30q8 -14 22 -19
q6 5 14 6q-10 12 -13 29t0 34q-17 -3 -26 -12v0zM105 206q-6 0 -13 -1q-6 -29 6 -53v1v0l12 -5v0q0 -1 1 -1q7 -3 14 -4q-16 30 -20 63v0zM289 44q32 0 54 22v0v0q21 21 22 53q-1 33 -22 54q-22 22 -54 23q-32 -1 -54 -23q-21 -21 -22 -54q1 -32 22 -53q22 -22 54 -22v0z
M405 218q0 14 -6 32v0v0q-5 18 -17 25q-10 7 -11 -16q-1 -14 -6 -42h11q15 0 29 1v0zM351 216q1 6 1 22v0v0q1 17 -3 20q-10 3 -26 3t-25 -4q-3 -4 -4 -20q-1 -15 0 -21v0v0h57v0zM278 270q-10 3 -27 3v0v0q-17 0 -27 -5q-5 -4 -4 -23q0 -19 2 -28q18 -1 36 -1h22v0v0
q1 9 1 29q1 21 -3 25v0zM172 219q18 -1 37 -2q-2 13 -3 29t-2 24q-2 9 -10 4q-16 -8 -21 -24t-1 -31v0zM136 250q12 -1 23 -2v0v0q1 0 1 -1q2 10 7 18q9 14 26 21q16 6 19 -14q6 11 24 12q19 1 31 -1h2q21 1 25 -14q21 5 44 3q1 -1 3 -1q15 1 21 -8q1 1 1 3q1 7 4 13
q9 16 24 5q15 -10 23 -36q6 0 12 1l14 2v0q-1 2 0 5q0 3 7 6q-35 36 -74 64t-89 43q-47 -16 -85 -43q-38 -28 -71 -63q13 -6 8 -13v0zM115 423q-4 13 -15 21v0v0q-11 8 -25 8q-15 -1 -32 -12q-17 -10 -27 -25q0 -24 24 -41q23 -17 42 -14q11 5 20 20q9 16 14 34q0 5 -1 9v0z
M106 357q-1 -21 0 -41v0v0q4 -2 8 -6q11 -3 15 -10q2 -5 -3 -7q-3 -2 -2 -5h1l6 -3q42 45 98 77q-56 17 -106 47q-3 -28 -17 -52v0zM444 421q-155 6 -310 0v1v-1v0v0v0q53 -33 113 -50q17 7 35 13q2 1 4 0q21 -6 42 -16q61 20 116 53v0zM454 409q-53 -30 -112 -48
q57 -31 104 -76q3 2 7 3q1 1 1 2q-8 4 -6 10q4 7 15 9q4 5 8 7q0 21 -1 41h1v0q-15 27 -17 52v0zM560 415q-10 15 -27 25v0v0q-17 11 -32 12q-15 0 -28 -10q-12 -9 -13 -27q5 -19 14 -34q9 -16 20 -20q19 -4 43 13q23 17 23 41v0zM373 36q-4 -36 -29 -50v0v0q-25 -15 -54 -8
v0v0q-29 7 -43 35q70 -36 126 23v0zM75 368q-14 2 -31 16v0v0q-17 13 -19 27q1 9 10 14q10 4 23 1q9 -3 20 -11t15 -16q5 -10 -1 -21q-6 -10 -17 -10v0zM291 192q22 -1 36 -14v0v0q15 -14 16 -34q-2 -28 -25 -41q-22 -13 -48 -4q16 6 17 22q-2 18 -18 22q-17 4 -29 -11
q-4 26 11 43q16 16 40 17v0zM68 435q1 5 7 8v0v0q7 4 15 2q11 -6 17 -17q2 -5 -1 -12q-2 -7 -9 -6q-8 2 -18 10t-11 15v0zM501 368q-11 0 -17 10v0v0q-6 11 -2 21q5 8 16 16t21 11q12 3 22 -1q9 -5 10 -14q-2 -14 -19 -27q-17 -14 -31 -16v0zM479 410q-7 -1 -9 6v0v0
q-3 6 -1 12q5 11 18 17q7 2 14 -2q6 -3 7 -8q0 -7 -11 -15q-10 -8 -18 -10v0z" />
</svg>
