<?xml version="1.0" standalone="no"?>
<!DOCTYPE svg PUBLIC "-//W3C//DTD SVG 1.1//EN" "http://www.w3.org/Graphics/SVG/1.1/DTD/svg11.dtd" >
<svg xmlns="http://www.w3.org/2000/svg" xmlns:xlink="http://www.w3.org/1999/xlink" version="1.1" viewBox="-10 -40 596 512">
   <path fill="currentColor"
d="M432 205v-32v32v-32h34t4 0v0q12 3 13 16q-1 14 -13 16h-4h-17h-17v0zM474 226q-1 -1 -4 -1v0v0h-18v0v0h-20v35v0h20h18h4q13 -3 14 -17q-1 -14 -14 -17v0zM576 41v352v-352v352q-1 20 -14 34q-14 13 -34 14h-480v0q-20 -1 -34 -14q-13 -14 -14 -34v-352v0q1 -20 14 -34
q14 -13 34 -14h480v0q20 1 34 14q13 14 14 34v0zM182 153h-57h57h-57q0 17 1 32q2 37 -4 57q-5 21 -33 21q-29 -1 -57 -15v28v0q24 6 45 7q22 2 23 2v0q61 -1 74 -27q12 -25 9 -74q-1 -14 -1 -31v0zM361 158q-33 -9 -71 -8v0v0q-38 0 -66 15v0v0q-27 16 -28 52q1 38 30 53
q28 15 66 14q39 0 69 -8v-28v0q-38 19 -72 14q-34 -6 -36 -45q2 -39 36 -45q33 -5 72 14v-28v0zM544 248q-3 -29 -38 -32v-1v0q30 -6 30 -30q-2 -29 -37 -31q2 -1 -3 -1h-30h-87v128v0h123v0q18 0 30 -9t12 -24v0z" />
</svg>
