<?xml version="1.0" standalone="no"?>
<!DOCTYPE svg PUBLIC "-//W3C//DTD SVG 1.1//EN" "http://www.w3.org/Graphics/SVG/1.1/DTD/svg11.dtd" >
<svg xmlns="http://www.w3.org/2000/svg" xmlns:xlink="http://www.w3.org/1999/xlink" version="1.1" viewBox="-10 -40 516 512">
   <path fill="currentColor"
d="M246 176l-33 17l33 -17l-33 17q-8 -14 -17 -17t-11 -3q-33 0 -33 44q0 18 8 31q7 12 25 13q22 0 31 -21l30 15v0q-4 10 -20 24q-15 14 -45 15q-19 2 -45 -13t-29 -64q2 -43 25 -60q24 -18 48 -17q46 0 66 36v0zM389 176l-33 17l33 -17l-33 17q-8 -14 -17 -17t-11 -3
q-33 0 -33 44q0 18 8 31q7 12 25 13q22 0 31 -21l31 15v0v0q-2 5 -17 21q-16 16 -48 18q-20 2 -46 -13t-28 -64q1 -43 25 -60q23 -18 47 -17q46 0 66 36v0zM248 -31q-72 1 -128 35v0v0q-56 34 -88 90v0v0q-31 56 -32 123q1 70 34 126q34 56 90 89q56 32 124 33q66 0 122 -32
q56 -31 90 -86q35 -56 36 -130q-1 -70 -33 -126q-32 -55 -88 -88t-127 -34v0zM248 420q-86 -3 -144 -60v0v0q-57 -58 -59 -143q1 -82 57 -141t146 -62q87 2 144 59t59 144q-3 93 -62 147q-60 55 -141 56v0z" />
</svg>
