<?xml version="1.0" standalone="no"?>
<!DOCTYPE svg PUBLIC "-//W3C//DTD SVG 1.1//EN" "http://www.w3.org/Graphics/SVG/1.1/DTD/svg11.dtd" >
<svg xmlns="http://www.w3.org/2000/svg" xmlns:xlink="http://www.w3.org/1999/xlink" version="1.1" viewBox="-10 -40 660 512">
   <path fill="currentColor"
d="M640 12v12v-12v12q-41 3 -56 41q-9 20 -25 57q-27 64 -63 147t-67 154h-14v0l-82 -193v0q-18 35 -37 71q-32 62 -62 122q-1 1 -8 0h-7q-35 -82 -71 -163q-37 -83 -72 -166q-10 -22 -32 -45q-23 -23 -44 -24v-6v-8h162v0v13v0q-16 1 -33 10q-16 9 -11 25q7 14 19 41
q11 27 26 60q24 56 47 110q23 53 34 77q7 -14 20 -37q12 -23 25 -49q19 -35 30 -57q-9 -20 -29 -65q-13 -29 -25 -56l-18 -39q-8 -12 -25 -16q-16 -4 -31 -3v-14v0h142v0v13v0q-15 1 -25 7t-4 19q13 29 24 52q11 25 24 53q5 -10 21 -43q16 -32 27 -58q13 -29 -39 -29
q1 -3 1 -7v-7h65h37h21v13v0q-37 2 -58 32l-59 123v0q3 9 17 40t29 64q8 19 15 34q6 14 8 18l122 -282v0q-7 -17 -23 -23q-15 -6 -24 -5v-14v0l128 1v0v0v0z" />
</svg>
