<?xml version="1.0" standalone="no"?>
<!DOCTYPE svg PUBLIC "-//W3C//DTD SVG 1.1//EN" "http://www.w3.org/Graphics/SVG/1.1/DTD/svg11.dtd" >
<svg xmlns="http://www.w3.org/2000/svg" xmlns:xlink="http://www.w3.org/1999/xlink" version="1.1" viewBox="-10 -40 524 512">
   <path fill="currentColor"
d="M504 202q-1 -2 -1 -4v0v0v-5v0v0v0q-2 -21 -7 -41l-1 -1l-1 -4v0v0v0v-2q-1 -1 -1 -2v0v-1q-1 -2 -1 -3v-1h-1q0 -2 -1 -4v-1v0q0 -1 -1 -1v-2l-1 -1v-2l-1 -1v-1v0q-1 -1 -1 -2t-1 -2v0v0q-2 -6 -5 -12v0v0q0 -1 -1 -1q0 -1 -1 -2v-1v0q-1 -1 -1 -2l-1 -1v-1l-1 -1
q0 -1 -1 -2v-1q-1 0 -1 -1t-1 -2t-1 -2l-1 -1v-1l-1 -1l-1 -1v-1l-1 -1v0q-1 -1 -1 -2q-1 -1 -1 -2l-2 -2v0q0 -1 -1 -2l-1 -1q0 -1 -1 -1v-1l-1 -1l-1 -2v0q-1 0 -1 -1v0l-2 -2q0 -1 -1 -2q-11 -14 -24 -27q-8 -9 -18 -17q-6 -5 -12 -9q-12 -9 -25 -15q-4 -2 -7 -4v0
q-27 -13 -56 -20h-3q-1 -1 -2 -1v0v0h-2h-1q-19 -4 -38 -4h-11v0q-23 0 -45 5q-52 11 -83 39q-1 0 -2 1l-1 1v0v0v0v0v0v0v0v0v0v0v0v0v0q25 -14 50 -19l6 -2v0v0h1t2 -1h3v0h1q49 -9 96 5q47 13 84 48q15 14 27 32q22 38 22 79q0 40 -18 69q-28 41 -75 50q-46 9 -84 -25
q-25 -25 -26 -59q0 -16 6 -31q2 -4 8 -14t11 -11q-11 -2 -26 4q-16 6 -29 24q-11 18 -12 41q0 23 7 43q-9 -19 -12 -40q-7 -63 23 -109q31 -47 71 -61q-22 -18 -65 -16q-42 3 -83 31q-45 34 -62 91q2 -34 26 -84q-14 7 -28 25t-22 38q-24 58 -16 124v5q1 3 1 5q17 90 84 147
q67 58 161 59q69 0 125 -33q56 -34 89 -90t34 -125v0v-14v0z" />
</svg>
