<?xml version="1.0" standalone="no"?>
<!DOCTYPE svg PUBLIC "-//W3C//DTD SVG 1.1//EN" "http://www.w3.org/Graphics/SVG/1.1/DTD/svg11.dtd" >
<svg xmlns="http://www.w3.org/2000/svg" xmlns:xlink="http://www.w3.org/1999/xlink" version="1.1" viewBox="-10 -40 458 512">
   <path fill="currentColor"
d="M103 305q-5 -10 -4 -15v0v0q1 -5 12 -8q10 -3 13 -1t6 10q2 13 24 40v0v0v-93v0q2 -39 29 -65q28 -27 69 -28q41 1 69 29q28 27 29 68q-2 49 -39 78t-90 15q-7 -4 -4 -17q4 -12 13 -11q40 1 64 -12t25 -53q-1 -30 -21 -48q-21 -18 -48 -18t-48 22q-14 14 -16 34
q-3 20 -2 67q0 23 1 56q39 23 83 18q44 -6 77 -38q38 -39 38 -93t-38 -93q-39 -38 -94 -38t-93 38l-9 9q-8 9 -12 15l-1 1v0v0q-2 8 -20 6q-12 -3 -14 -12v-187v0q0 -9 10 -10h242v0q5 0 7 6q1 5 1 9v0q0 3 -1 9q-2 5 -7 6h-224v0v133v0h1v0q54 -54 119 -53t113 44
q48 44 50 118q-1 67 -39 107q-37 40 -91 50t-104 -13t-76 -82v0zM167 45q-1 4 3 13v0v0q4 9 11 7q53 -19 94 -13q40 6 68 22q27 15 39 26q7 5 9 6q4 -1 12 -9q7 -8 2 -14q-48 -44 -102 -54t-94 -3q-39 8 -42 19v0zM393 376q-57 54 -128 58v0v0q-70 4 -128 -38v0v0
q-57 -42 -76 -124q-2 -9 -15 -7q-13 1 -14 10q15 88 80 138q64 51 148 50q83 0 154 -67q4 -7 -5 -16t-16 -4v0zM214 268q1 5 4 7v0v0l1 1q5 5 9 5v0q2 0 5 -3l17 -17l9 9l9 9q3 2 4 2q5 -1 11 -7q5 -5 0 -12l-17 -17v0l18 -18v0q3 -6 -4 -13t-12 -3l-18 18v0l-10 -10
q-6 -7 -8 -8q-2 -2 -4 -1q-4 0 -10 6t-2 11l18 18v0q-6 6 -10 9q-12 12 -10 14v0z" />
</svg>
