<?xml version="1.0" standalone="no"?>
<!DOCTYPE svg PUBLIC "-//W3C//DTD SVG 1.1//EN" "http://www.w3.org/Graphics/SVG/1.1/DTD/svg11.dtd" >
<svg xmlns="http://www.w3.org/2000/svg" xmlns:xlink="http://www.w3.org/1999/xlink" version="1.1" viewBox="-10 -40 469 512">
   <path fill="currentColor"
d="M448 115q-3 65 -92 179q-91 119 -154 119q-39 0 -67 -73q-7 -29 -14 -54q-18 -72 -33 -111q-14 -39 -32 -40q-5 0 -35 21l-21 -27v0q15 -13 29 -26q31 -28 57 -49q27 -21 46 -23q52 -5 64 71q20 135 38 162q18 28 56 -35q28 -44 30 -68q2 -33 -20 -37q-21 -4 -43 6
q33 -108 126 -105q69 2 65 90v0z" />
</svg>
