<?xml version="1.0" standalone="no"?>
<!DOCTYPE svg PUBLIC "-//W3C//DTD SVG 1.1//EN" "http://www.w3.org/Graphics/SVG/1.1/DTD/svg11.dtd" >
<svg xmlns="http://www.w3.org/2000/svg" xmlns:xlink="http://www.w3.org/1999/xlink" version="1.1" viewBox="-10 -40 468 512">
   <path fill="currentColor"
d="M0 -7v448v-448v448h448v0v-448h-448zM187 134q-13 0 -16 7v0v0q-4 7 -3 20v24v0q0 1 -1 2q-2 2 0 2h68v0l-11 37v0h-56v0v113v0v4q-2 3 3 3l44 5v0v25v0h-131v0v-26v0l21 -2v0q8 0 7 -8v-111v0q-1 -3 -6 -3h-22v0v-37v0h28v0v-21v0q1 -72 77 -70q27 -1 45 10q19 10 20 43
l-51 6v0q1 -26 -16 -23v0zM261 376v-25v25v-25l21 -3v0q7 0 7 -7v-108v0q0 -6 -6 -8l-25 -6v0l7 -30v0h80v0v152v0v4q-2 3 3 3l16 3v0v25h-103zM342 120l9 33l-9 -33l9 33l-7 8v0l-31 -17v0l-32 17v0l-7 -8v0l9 -33v0l-22 -24v0l4 -10v0h28v0l15 -28v0h9v0l16 28v0h28v0
l3 10z" />
</svg>
