<?xml version="1.0" standalone="no"?>
<!DOCTYPE svg PUBLIC "-//W3C//DTD SVG 1.1//EN" "http://www.w3.org/Graphics/SVG/1.1/DTD/svg11.dtd" >
<svg xmlns="http://www.w3.org/2000/svg" xmlns:xlink="http://www.w3.org/1999/xlink" version="1.1" viewBox="-10 -40 532 512">
   <path fill="currentColor"
d="M373 100q-19 -1 -33 -12v0v0q-14 -11 -19 -29v0v0q-23 3 -38 21q-16 17 -16 41v0v0q72 4 125 37q19 -16 45 -16q32 1 53 22t22 53q0 22 -12 40q-11 18 -31 27q-4 67 -64 111t-149 46q-89 -2 -149 -46t-64 -111q-19 -9 -31 -27q-12 -17 -12 -40q1 -32 22 -53t53 -22
q26 0 45 16q53 -33 124 -37v0v0q1 -34 22 -58q22 -23 55 -28q4 -18 18 -30t34 -12q23 1 38 16t15 37q0 23 -15 38t-38 16v0zM158 216q-17 1 -28 14v0v0q-11 13 -13 34q0 20 11 29t27 9q34 2 38 -37q1 -20 -9 -34t-27 -15h1zM395 264q-1 -21 -13 -34v0v0q-11 -13 -27 -14
q-16 1 -26 15q-10 13 -10 34q4 39 38 37q16 0 27 -9t11 -29v0zM335 335q1 -7 -5 -8q-35 -4 -74 -4t-74 4q-6 1 -4 8q10 23 30 38q21 14 48 14t48 -14q21 -15 31 -38v0z" />
</svg>
