<?xml version="1.0" standalone="no"?>
<!DOCTYPE svg PUBLIC "-//W3C//DTD SVG 1.1//EN" "http://www.w3.org/Graphics/SVG/1.1/DTD/svg11.dtd" >
<svg xmlns="http://www.w3.org/2000/svg" xmlns:xlink="http://www.w3.org/1999/xlink" version="1.1" viewBox="-10 -40 330 512">
   <path fill="currentColor"
d="M196 221l93 -103l-93 103l93 -103l-146 -157v0v206v0l-86 -86v0l-31 32v0l108 108v0l-108 108v0l31 32v0l86 -86v0l3 198v0l148 -149v0l-98 -103v0zM237 118l-50 50l50 -50l-50 50v-100v0l50 50v0zM187 274l50 50l-50 -50l50 50l-50 50v0v-100v0z" />
</svg>
