<?xml version="1.0" standalone="no"?>
<!DOCTYPE svg PUBLIC "-//W3C//DTD SVG 1.1//EN" "http://www.w3.org/Graphics/SVG/1.1/DTD/svg11.dtd" >
<svg xmlns="http://www.w3.org/2000/svg" xmlns:xlink="http://www.w3.org/1999/xlink" version="1.1" viewBox="-11 0 534 512">
   <path fill="currentColor"
d="M504 166l-1 -2l1 2l-1 -2l-70 -182v0q-2 -5 -7 -9q-4 -2 -8 -2q-4 -1 -8 1q-5 1 -8 4l-4 8l-47 144v0h-190v0l-47 -144v0l-4 -8q-3 -3 -7 -4q-5 -2 -9 -1q-4 0 -8 2q-5 4 -7 9l-70 182v0v2v0q-16 40 -4 82q12 41 46 67h1v0v1v0l106 79v0l53 40v0l32 24v0v0q6 4 13 5
q7 -1 13 -5v0l32 -24v0l53 -40v0l106 -80v0h1v0q34 -26 45 -67q13 -42 -2 -82v0z" />
</svg>
