<?xml version="1.0" standalone="no"?>
<!DOCTYPE svg PUBLIC "-//W3C//DTD SVG 1.1//EN" "http://www.w3.org/Graphics/SVG/1.1/DTD/svg11.dtd" >
<svg xmlns="http://www.w3.org/2000/svg" xmlns:xlink="http://www.w3.org/1999/xlink" version="1.1" viewBox="-10 -40 468 512">
   <path fill="currentColor"
d="M407 172q-7 -3 -15 -4q-25 1 -45 9q-20 9 -39 21q-5 2 -10 5l-1 -1v0q4 -26 11 -51q11 -44 13 -89q0 -54 -28 -78q-28 -23 -81 -23q-57 1 -96 33q-38 31 -58 76q-19 46 -19 89q0 67 37 102q36 35 102 35h5q8 -1 6 4q-10 63 -31 90q-22 27 -40 26q-19 -2 -20 -22
q1 -23 16 -38q15 -14 25 -19q4 -3 4 -4q-2 -9 -25 -18q-22 -9 -34 -9q-25 2 -39 29q-13 27 -13 50q0 40 23 64q23 23 63 24q58 -3 98 -47q39 -45 53 -98q8 -33 10 -47l4 -16q2 -3 6 -5q23 -12 45 -20q22 -7 48 -7q17 0 38 5q9 1 21 3q6 0 7 -5q-1 -5 -9 -20q-8 -14 -18 -28
q-10 -13 -14 -16v0zM232 88l-28 134q-5 11 -18 8h-4q-28 -2 -39 -25t-10 -48q0 -37 14 -75q15 -39 48 -59q11 -6 22 -6q14 0 17 8q4 9 3 20q0 22 -5 43v0z" />
</svg>
