<?xml version="1.0" standalone="no"?>
<!DOCTYPE svg PUBLIC "-//W3C//DTD SVG 1.1//EN" "http://www.w3.org/Graphics/SVG/1.1/DTD/svg11.dtd" >
<svg xmlns="http://www.w3.org/2000/svg" xmlns:xlink="http://www.w3.org/1999/xlink" version="1.1" viewBox="-10 -40 468 512">
   <path fill="currentColor"
d="M448 57q-1 -27 -19 -45v0v0q-18 -18 -45 -19h-320v0q-27 1 -45 19t-19 45v320v0q1 27 19 45t45 19h320v0q27 -1 45 -19t19 -45v-320v0zM118 342q-33 -38 -31 -83v0v0q1 -46 31 -78v0v0q30 -33 82 -35q20 0 39 7q-7 13 -9 27q-15 -6 -30 -6q-38 1 -61 27q-23 25 -24 62
q0 33 19 56q19 24 50 30q31 -13 47 -44q15 -30 21 -66t5 -65v0v0v-22q-18 -50 -44 -95q20 15 31 42t13 52v1v0q11 34 12 70q0 82 -69 128h-2v0q38 0 62 -25q23 -25 24 -62q0 -19 -7 -36q15 -3 27 -10q11 28 7 62t-30 63q-34 35 -81 35q-48 0 -82 -35v0zM275 179
q17 -9 34 -23v0v0q18 -14 28 -30q3 -6 4 -12q-10 21 -30 36q-21 15 -43 20q-8 -11 -8 -24q1 -18 13 -32q12 -10 27 -13q0 -1 1 -1v0q12 -3 24 -10q11 -7 20 -26q16 25 16 55t-13 52q-14 23 -39 24q-20 -2 -34 -16v0z" />
</svg>
