<?xml version="1.0" standalone="no"?>
<!DOCTYPE svg PUBLIC "-//W3C//DTD SVG 1.1//EN" "http://www.w3.org/Graphics/SVG/1.1/DTD/svg11.dtd" >
<svg xmlns="http://www.w3.org/2000/svg" xmlns:xlink="http://www.w3.org/1999/xlink" version="1.1" viewBox="-10 -40 468 512">
   <path fill="currentColor"
d="M384 -7h-320h320h-320q-26 0 -45 19t-19 45v320v0q0 26 19 45t45 19h320v0q26 0 45 -19t19 -45v-320v0q0 -26 -19 -45t-45 -19v0zM380 312v0v0v0q-4 5 -9 7q-9 6 -20 8l-4 2q-2 2 -3 4q0 2 -2 5q-2 4 -6 7q-11 6 -23 5v0q-10 0 -24 4q-6 2 -13 7v0q-8 5 -21 10
q-12 6 -31 6t-31 -6q-13 -5 -21 -10q-7 -5 -13 -7q-14 -4 -24 -4q-12 1 -23 -5q-3 -2 -6 -6q-2 -3 -3 -6q0 -2 -2 -4l-4 -2q-11 -2 -20 -8q-5 -2 -9 -6q-9 -11 -5 -22q5 -11 16 -14q1 -1 3 -2q22 -12 35 -30q3 -5 6 -11q1 -3 0 -4l-2 -2q-4 -3 -7 -5q-1 0 -2 -1q-4 -2 -6 -4
q-9 -6 -13 -14q-6 -11 -2 -24q8 -17 27 -17q4 0 8 1h2q0 -11 1 -23q5 -38 22 -53q9 -11 22 -18q23 -13 51 -13t51 13q13 7 22 18q17 15 22 53q1 11 1 23h2q4 -1 8 -1q19 0 27 17q4 13 -2 24q-4 8 -13 14q-3 2 -8 5q-3 2 -7 5l-2 2t0 4q3 6 6 11q13 18 36 30q1 1 2 1l2 2
q1 0 3 1q8 3 11 12q4 11 -5 21v0zM363 294q-36 -20 -48 -41v0v0q-11 -20 -10 -24v0q-2 -5 2 -9q6 -5 17 -12q5 -3 7 -5q12 -7 9 -16q-3 -6 -10 -6h-4q-8 2 -14 5q-4 1 -7 2h-1q-4 1 -3 -4v-1q1 -15 0 -40q-4 -31 -17 -43q-3 -5 -18 -14q-15 -10 -42 -11q-27 1 -42 11
q-15 9 -18 14q-13 12 -17 43q-1 24 0 39v3q1 4 -3 4l-1 -1q-3 0 -7 -2q-6 -3 -14 -5h-4q-7 0 -10 6q-3 9 9 16q2 2 7 5q11 7 17 12q4 4 2 9v0q1 4 -10 24q-12 21 -48 41q-3 1 -4 3q-2 3 5 6q11 6 19 7q6 2 11 5q4 3 4 8t3 7t12 2q12 0 30 5q9 3 16 8q14 12 43 14
q29 -2 43 -14q8 -5 16 -8q18 -5 30 -5q9 0 12 -2t3 -6q0 -6 4 -9q5 -3 11 -4q8 -2 20 -8q6 -3 4 -6q-1 -2 -4 -3v0z" />
</svg>
