<?xml version="1.0" standalone="no"?>
<!DOCTYPE svg PUBLIC "-//W3C//DTD SVG 1.1//EN" "http://www.w3.org/Graphics/SVG/1.1/DTD/svg11.dtd" >
<svg xmlns="http://www.w3.org/2000/svg" xmlns:xlink="http://www.w3.org/1999/xlink" version="1.1" viewBox="-10 -40 593 512">
   <path fill="currentColor"
d="M97 57q16 -15 16 -22q0 -4 -4 -7q-3 -3 -8 -3q-13 0 -36 26q-31 34 -47 72q-15 38 -15 88q1 51 14 90t40 72q29 36 44 36q5 0 8 -4q4 -4 4 -8q0 -8 -13 -21q-67 -63 -68 -165q0 -92 65 -154v0zM239 381l1 1zM333 382v-1v1v-1v1v0zM336 223q-5 -1 0 -17v0v0q4 -14 5 -39v0
v0q0 -24 -15 -55v0v0q-15 -31 -58 -66q1 0 1 17q1 17 -12 52q-13 36 -51 91q-35 52 -27 90t31 60q22 22 30 25q-5 -2 -14 -15q-8 -12 -6 -40q2 -27 29 -74q5 -8 11 -17q14 -18 33 -55q1 0 6 18q6 17 1 53q-4 32 6 44q10 11 25 12q14 0 21 -2h3q10 14 5 31t-14 30
q-10 13 -13 15v0q6 -2 30 -26q25 -23 34 -65q9 -41 -31 -97q-2 3 -5 9q-4 9 -10 16t-15 5v0zM511 51q-23 -26 -36 -26q-5 0 -8 3q-4 3 -4 7q0 7 16 22q65 62 65 154q-1 102 -68 165q-13 13 -13 21q0 4 4 8q3 4 8 4q15 0 44 -36q27 -33 40 -72t14 -90q0 -50 -15 -88
q-16 -38 -47 -72v0z" />
</svg>
