<?xml version="1.0" standalone="no"?>
<!DOCTYPE svg PUBLIC "-//W3C//DTD SVG 1.1//EN" "http://www.w3.org/Graphics/SVG/1.1/DTD/svg11.dtd" >
<svg xmlns="http://www.w3.org/2000/svg" xmlns:xlink="http://www.w3.org/1999/xlink" version="1.1" viewBox="-10 -40 516 512">
   <path fill="currentColor"
d="M248 -31q-69 1 -125 34v0v0q-56 33 -89 89v0v0q-33 56 -34 125q1 69 34 125t89 89t125 34q69 -1 125 -34t89 -89t34 -125q-1 -69 -34 -125t-89 -89t-125 -34v0zM363 138q-2 20 -7 54v0v0q-5 33 -11 67v0v0q-6 34 -10 57q-6 26 -17 25q-16 0 -31 -12l-8 -6
q-17 -11 -29 -20q-12 -8 -27 -17q-15 -11 -12 -18q2 -8 12 -16l6 -6q1 -2 11 -10q16 -15 35 -34q20 -18 22 -23q1 -1 -1 -4q-3 -2 -5 -1q-4 1 -105 70q-15 10 -27 9q-7 0 -18 -3q-11 -2 -20 -6q-3 -1 -6 -1q-21 -5 -21 -15q1 -7 18 -14q109 -47 145 -62q50 -21 68 -27
q19 -7 24 -7t10 3q3 3 4 7v10v0z" />
</svg>
