<?xml version="1.0" standalone="no"?>
<!DOCTYPE svg PUBLIC "-//W3C//DTD SVG 1.1//EN" "http://www.w3.org/Graphics/SVG/1.1/DTD/svg11.dtd" >
<svg xmlns="http://www.w3.org/2000/svg" xmlns:xlink="http://www.w3.org/1999/xlink" version="1.1" viewBox="-10 -40 548 512">
   <path fill="currentColor"
d="M99 375q1 10 -8 13q-9 1 -12 -8q-1 -10 8 -13q9 -1 12 8v0zM242 447q-10 8 -4 20q9 10 20 3q10 -8 4 -20q-8 -10 -20 -3v0zM156 -16q10 -3 9 -14q-3 -10 -14 -9q-10 4 -9 14q3 11 14 9v0zM34 187q-17 -10 -30 6q-10 18 6 31q17 10 30 -5q10 -19 -6 -32v0zM306 16
q17 -12 8 -30q-12 -16 -30 -8q-16 12 -7 31q11 16 29 7v0zM115 74q12 -10 5 -23q-10 -12 -24 -5q-11 11 -4 24q10 12 23 4v0zM488 230q-13 4 -11 17q4 12 16 11q12 -4 11 -17q-4 -12 -16 -11v0zM527 174q-2 -9 -12 -8q-9 2 -8 12q3 9 13 8q9 -3 7 -12v0zM447 100
q-13 11 -5 26q11 13 26 5q13 -11 5 -26q-11 -14 -26 -5v0zM441 239q19 34 12 70v0v0q-7 36 -39 59q-26 19 -56 18q-12 35 -44 45q-33 10 -62 -13q0 1 -1 1l-2 2q-31 20 -64 14q-34 -6 -56 -36q-14 -22 -15 -47q-33 -7 -50 -31q-18 -25 -17 -55q2 -30 26 -54q-20 -37 -4 -72
q17 -35 58 -43q21 -51 70 -68q48 -17 93 14q53 -15 93 15q40 31 38 86q31 12 38 42q6 30 -18 53v0zM371 314q-5 -13 -21 -13v0v0q-9 -1 -15 -4v0v0q-6 -2 -7 -11q-1 -12 5 -30q7 -18 16 -37q8 -19 14 -34q6 -16 5 -27q-3 -17 -13 -23t-21 -6q-17 0 -21 4v1h-1q-4 5 -11 -1
l-2 -2q-7 -8 -17 -11q-16 -2 -27 10l-2 2q-3 3 -8 6t-10 1v0q-3 -1 -10 -5l-14 -6q-13 -5 -27 1q-14 7 -21 19q-9 17 -21 54q-11 37 -18 60q-2 8 -3 11q-6 21 5 34q12 14 32 13q15 1 25 -17q2 -4 9 -21q7 -18 15 -39q7 -20 13 -35t8 -18q4 -7 14 -5q8 6 6 15q0 5 -5 18
t-11 27q-11 26 -13 33q-1 17 14 19t25 -15q2 -5 12 -25l23 -46q12 -23 14 -28q6 -8 12 -8q7 -2 7 11q-1 4 -6 15t-11 25q-8 15 -14 28q-6 14 -8 20q-3 16 4 30q7 13 21 21q12 5 35 6q24 1 24 -17v0zM376 406q-16 14 -5 32q13 17 32 6q16 -13 6 -32q-14 -17 -33 -6v0z" />
</svg>
