<?xml version="1.0" standalone="no"?>
<!DOCTYPE svg PUBLIC "-//W3C//DTD SVG 1.1//EN" "http://www.w3.org/Graphics/SVG/1.1/DTD/svg11.dtd" >
<svg xmlns="http://www.w3.org/2000/svg" xmlns:xlink="http://www.w3.org/1999/xlink" version="1.1" viewBox="-10 -40 532 512">
   <path fill="currentColor"
d="M160 198q-40 55 -81 80v0v0q-42 25 -65 10q-21 -18 -10 -66q11 -47 50 -102q40 -54 81 -79q42 -25 65 -10q21 18 10 65t-50 102v0zM511 141q-58 94 -133 135v0v0q-74 40 -132 9q-37 -24 -49 -74q-25 49 -68 84q-42 34 -96 49q38 45 91 71q54 26 116 26q76 -1 137 -38
q62 -36 98 -98t37 -139q0 -13 -1 -25v0z" />
</svg>
