<?xml version="1.0" standalone="no"?>
<!DOCTYPE svg PUBLIC "-//W3C//DTD SVG 1.1//EN" "http://www.w3.org/Graphics/SVG/1.1/DTD/svg11.dtd" >
<svg xmlns="http://www.w3.org/2000/svg" xmlns:xlink="http://www.w3.org/1999/xlink" version="1.1" viewBox="-11 0 661 512">
   <path fill="currentColor"
d="M640 199l-3 28l3 -28l-3 28l-35 3v0l-2 18v0l35 -2v0l-3 28v0l-35 2v0l-2 20v0l34 -2v0l-3 26v0l-64 4v0l12 -113v0l-47 115v0l-32 2v0l-24 -118v0l31 -2v0l13 80v0l32 -83v0l93 -6v0zM427 333l28 -2l-28 2l28 -2l13 -120v0l-28 2v0l-13 120v0zM162 349l-19 -36l19 36
l-19 -36l-4 38v0l-28 1v0l3 -29v0q-9 14 -24 24q-14 10 -33 12q-26 1 -42 -14q-16 -16 -15 -44q2 -23 20 -43q17 -20 48 -23q25 0 36 10q11 9 14 17q1 1 1 2l3 -31v0l39 -2v0q15 -1 27 4t15 20l3 -27v0l65 -4v0l-3 28v0l-36 2v0l-2 18v0l36 -2v0l-2 28v0l-37 2v0l-2 20v0
l37 -3v0l-2 21v0l55 -117v0l23 -2v0l32 111v0l9 -86v0l-22 2v0l3 -28v0l75 -5v0l-3 28v0l-24 2v0l-10 92v0l-58 3v0l-4 -15v0l-40 2v0l-8 16v0l-126 8v0zM118 279l-27 2l27 -2l-27 2q-9 -18 -26 -16q-15 1 -24 11t-11 22q-1 13 6 22q7 10 23 9q18 -2 29 -19l27 -1v0l3 -30v0
zM174 271q2 -17 -26 -12l-3 28v0q11 0 19 -3t10 -13v0zM195 342l6 -60l-6 60l6 -60q-8 19 -28 27l22 33v0zM330 297l-8 -38l8 38l-8 -38l-15 40v0l23 -2v0zM160 222l-4 -17l4 17l-4 -17l-40 3v0l-8 18v0l-32 2v0l57 -122v0l24 -2v0l31 102v0l10 -104v0l27 -2v0l38 63v0
l6 -66v0l29 -2v0l-4 41v0v-1q6 -12 20 -28q14 -15 43 -18q27 -1 39 11t14 18q0 1 1 1l3 -32v0l39 -3v0q22 -3 36 10l-4 -12v0l32 -2v0l13 43v0l23 -46v0l31 -2v0l-43 79v0l-5 44v0l-29 2v0l5 -45v0l-16 -43v0q2 35 -32 50l26 39v0l-37 2v0l-19 -37v0l-4 39v0l-28 2v0l3 -32
v0q-1 2 -2 3q-5 10 -18 21t-40 14q-40 3 -55 -39l-4 40v0l-25 2v0l-38 -63v0l-6 66v0l-57 3v0zM437 140q15 -1 21 -4q7 -4 8 -12t-3 -11q-5 -3 -23 -2l-3 29v0zM328 175q8 9 21 8q7 -1 13 -4q9 -5 15 -15l-34 3v0l3 -24v0l63 -4v0l1 -12v0l-31 2v0q-6 -6 -11 -8
q-6 -3 -13 -3q-12 1 -22 9q-11 10 -13 25q-1 14 8 23v0zM126 183l24 -1l-24 1l24 -1l-8 -38v0l-16 39v0z" />
</svg>
