<?xml version="1.0" standalone="no"?>
<!DOCTYPE svg PUBLIC "-//W3C//DTD SVG 1.1//EN" "http://www.w3.org/Graphics/SVG/1.1/DTD/svg11.dtd" >
<svg xmlns="http://www.w3.org/2000/svg" xmlns:xlink="http://www.w3.org/1999/xlink" version="1.1" viewBox="-11 0 662 512">
   <path fill="currentColor"
d="M180 164q1 22 8 31v0v0q3 5 3 8q0 4 -4 6l-13 9v0q-2 2 -5 2v0q-1 1 -6 -3q-6 -4 -15 -22q-24 29 -62 29q-15 2 -36 -10q-22 -12 -22 -46q-1 -29 21 -45q21 -16 49 -15q10 -1 47 6v-16v0q2 -20 -10 -33q-12 -12 -34 -10h-1q-6 -3 -45 10q-9 3 -10 2h-1q-5 -1 -5 -11
q1 -9 2 -13q5 -5 24 -11t42 -7q31 -2 56 17q19 23 17 53v69v0zM94 196q24 -1 36 -11v0v0q11 -10 13 -19q3 -12 2 -23v-4q-15 -5 -39 -5q-13 -2 -27 5t-15 27q-1 13 7 22q9 9 23 8v0zM265 219q-11 0 -13 -10l-50 -165v0q-1 -4 -1 -8q-1 -4 3 -5v0h3h20q12 1 12 10l36 141v0
l33 -141v0q0 -3 3 -7q3 -3 10 -3h17v0q2 -1 7 1q4 1 6 9l33 143v0l37 -143v0q0 -2 3 -6q2 -4 10 -4h19v0q1 -1 4 0q2 2 2 8v1q0 -2 -2 6q-3 8 -14 44t-37 119q-1 10 -13 11h-18v0q-8 0 -11 -5q-2 -5 -2 -6v0l-33 -137v0l-33 137v0v0q0 1 -2 6q-3 5 -11 4h-18v0zM538 225
q-5 0 -22 -2v0v0q-17 -2 -35 -10q-7 -4 -8 -12v-11v0q1 -6 4 -6q3 -1 5 0l4 2q10 5 25 8q26 5 40 1q13 -3 16 -5q0 -1 1 -1q9 -6 10 -17q2 -10 -5 -18q-6 -5 -13 -8q-7 -2 -23 -7q-7 -2 -17 -6q-6 0 -24 -12q-18 -11 -20 -40q0 -22 18 -39q18 -16 51 -17q11 0 30 4
q18 3 26 12q2 3 2 7v10v0q0 7 -5 7l-9 -3q-12 -7 -40 -8q-7 -1 -22 3q-16 4 -17 22q2 14 14 20t16 7v0q7 2 13 3q19 6 30 11t20 15q12 18 10 34t-5 22q-17 26 -41 31q-24 4 -28 3h-1v0zM579 330q-54 39 -123 59v0v0q-69 20 -136 20q-88 1 -170 -30q-81 -31 -147 -91
q-5 -4 -2 -8t9 -1q147 83 317 84q126 -1 241 -49q10 -4 14 3q5 6 -3 13v0zM608 297q-9 -8 -36 -7v0v0q-26 1 -45 4v0v0h-1q-11 -1 -2 -10q33 -20 69 -19t45 9q6 10 -3 45t-37 62q-11 6 -9 -4l1 -1q7 -18 15 -44q8 -25 3 -35v0z" />
</svg>
