<?xml version="1.0" standalone="no"?>
<!DOCTYPE svg PUBLIC "-//W3C//DTD SVG 1.1//EN" "http://www.w3.org/Graphics/SVG/1.1/DTD/svg11.dtd" >
<svg xmlns="http://www.w3.org/2000/svg" xmlns:xlink="http://www.w3.org/1999/xlink" version="1.1" viewBox="-10 -40 524 512">
   <path fill="currentColor"
d="M504 217q-1 69 -34 125v0v0q-33 56 -89 89v0v0q-56 33 -125 34q-69 -1 -125 -34t-89 -89t-34 -125q1 -69 34 -125t89 -89t125 -34q69 1 125 34t89 89t34 125v0zM362 182q3 -25 -12 -40v0v0q-16 -14 -42 -23l11 -45v0l-27 -6v0l-11 43v0q-11 -3 -22 -5l11 -44v0l-27 -7v0
l-11 45v0l-18 -4v0v0l-37 -9v0l-7 29v0q1 0 10 2q8 2 9 2q15 6 13 16l-13 51v0q1 1 3 1h-1t-2 -1l-18 72v0q-1 7 -12 6q-1 0 -10 -2t-10 -3l-13 31v0l35 9v0q6 2 12 3q4 1 7 2l-11 45v0l27 7v0l12 -44v0q10 2 21 5l-11 45v0l27 6v0l12 -45v0q35 8 60 1q24 -7 36 -37
q8 -25 1 -41q-8 -16 -26 -25q28 -5 34 -40v0zM300 269q-8 22 -34 20v0v0q-26 -2 -44 -8v0v0q-3 -1 -6 -1l15 -60v0q3 1 7 1q20 4 43 14q23 11 19 34v0zM309 181q-7 20 -29 19v0v0q-22 -1 -37 -6v0v0q-3 -1 -5 -2l14 -54v0q2 1 5 1q17 3 36 12t16 30v0z" />
</svg>
