<?xml version="1.0" standalone="no"?>
<!DOCTYPE svg PUBLIC "-//W3C//DTD SVG 1.1//EN" "http://www.w3.org/Graphics/SVG/1.1/DTD/svg11.dtd" >
<svg xmlns="http://www.w3.org/2000/svg" xmlns:xlink="http://www.w3.org/1999/xlink" version="1.1" viewBox="-10 -40 517 512">
   <path fill="currentColor"
d="M78 28q49 -44 110 -60v0v0q61 -15 123 1v0v0q61 16 111 63q9 12 0 22q-10 10 -23 0q-66 -62 -150 -62t-149 58q-13 10 -22 0t0 -22v0zM177 447q15 2 20 -11v0v0q4 -13 -12 -19q-85 -28 -126 -102q-41 -73 -21 -159q2 -15 -12 -19q-13 -3 -18 12q-16 64 1 125
q16 61 60 107q43 46 108 66v0zM325 445q93 -33 139 -114v0v0q46 -81 26 -177q-5 -15 -19 -12q-13 3 -11 20q17 83 -23 153q-40 71 -120 100q-16 7 -11 20q4 13 19 10v0zM263 366v-72v72v-72q-2 -14 -15 -15q-14 2 -15 15v72v0q1 13 15 15q13 -2 15 -15v0zM334 97v5v0v0
q4 65 -9 96v0v0q-13 31 -77 31q-63 0 -76 -30q-14 -30 -10 -90q0 -6 1 -12q-3 -16 -17 -16q-14 1 -16 16v71v0q2 52 38 72q35 20 80 19q45 1 80 -19q36 -20 38 -72v-71v0q-2 -15 -16 -16q-14 0 -16 16v0z" />
</svg>
