<?xml version="1.0" standalone="no"?>
<!DOCTYPE svg PUBLIC "-//W3C//DTD SVG 1.1//EN" "http://www.w3.org/Graphics/SVG/1.1/DTD/svg11.dtd" >
<svg xmlns="http://www.w3.org/2000/svg" xmlns:xlink="http://www.w3.org/1999/xlink" version="1.1" viewBox="-10 -40 533 512">
   <path fill="currentColor"
d="M166 78q1 18 -15 33v0v0q-16 15 -57 16h-71v0l21 -89v0h68v0q31 1 43 14t11 26v0zM292 38h-68h68h-68l-18 89v0h70v0q39 -1 55 -16t15 -33q1 -13 -11 -26t-43 -14v0zM89 169h-68h68h-68l-21 89v0h70v0q41 -1 57 -15t16 -34q0 -13 -12 -26q-11 -13 -42 -14v0zM269 169h-68
h68h-68l-19 89v0h71v0q39 -1 55 -15q15 -14 15 -34q0 -13 -11 -26q-12 -13 -43 -14v0zM458 115h-68h68h-68l-18 89v0h70v0q39 -1 55 -15t15 -34q1 -13 -11 -26t-43 -14v0zM430 253h-68h68h-68l-18 89v0h70v0q41 -1 56 -15t14 -34q0 -13 -11 -26q-12 -13 -43 -14v0zM241 307
h-68h68h-68l-19 89v0h70v0q42 -1 56 -16q15 -15 15 -33q0 -13 -12 -26q-11 -13 -42 -14v0z" />
</svg>
