<?xml version="1.0" standalone="no"?>
<!DOCTYPE svg PUBLIC "-//W3C//DTD SVG 1.1//EN" "http://www.w3.org/Graphics/SVG/1.1/DTD/svg11.dtd" >
<svg xmlns="http://www.w3.org/2000/svg" xmlns:xlink="http://www.w3.org/1999/xlink" version="1.1" viewBox="-10 -40 468 512">
   <path fill="currentColor"
d="M447 184q-4 -13 -13 -19q-5 -2 -25 -2q-14 -1 -19 -2t-10 -3q-14 -7 -12 -30q-1 -50 -41 -91q-29 -30 -66 -41q-4 -1 -17 -2q-14 0 -46 -1q-50 0 -72 1q-21 2 -37 9q-67 28 -86 101q-1 5 -2 25q0 20 -1 79q0 73 1 99q1 25 6 37q12 38 41 63t63 32q10 1 58 2h97t61 -2
q47 -6 82 -42q25 -25 35 -62q3 -10 3 -45q1 -34 1 -67t-1 -39v0zM125 120q4 -6 14 -7v0v0q9 -1 44 -1h40q9 1 12 3q14 7 14 22q0 14 -13 22q-2 2 -11 2q-8 1 -39 1q-43 0 -51 -1q-13 -5 -16 -18t5 -23h1zM316 320l-15 2l15 -2l-15 2l-77 1v0q-50 1 -70 0q-19 -1 -21 -2
q-12 -6 -15 -19q-1 -13 8 -23q3 -4 19 -5t79 -1v0q64 -1 79 1q15 1 18 7q9 9 8 20q-2 12 -13 19v0z" />
</svg>
