<?xml version="1.0" standalone="no"?>
<!DOCTYPE svg PUBLIC "-//W3C//DTD SVG 1.1//EN" "http://www.w3.org/Graphics/SVG/1.1/DTD/svg11.dtd" >
<svg xmlns="http://www.w3.org/2000/svg" xmlns:xlink="http://www.w3.org/1999/xlink" version="1.1" viewBox="-10 -40 637 512">
   <path fill="currentColor"
d="M149 265q7 52 46 83v0v0q40 31 100 28q40 33 93 33q54 0 93 -38q52 -1 87 -29q34 -28 45 -71q10 -48 -13 -92q-24 -44 -80 -63q-17 -44 -50 -65q-34 -21 -71 -25t-65 5q-43 13 -66 40t-33 70h-1q-15 3 -44 24q16 2 15 19v21v0q-2 18 -20 19h-20v0q-18 0 -19 -16v-7v0h-47
v0q-8 0 -11 12v40v0q1 11 12 12h49v0zM376 273q-7 34 11 55v0v0q18 21 44 32q-54 15 -90 -1q-37 -16 -50 -47q-13 -32 5 -63q-24 18 -29 46q-4 29 0 47q-2 -2 -5 -3q-15 -9 -32 -27t-21 -50q-1 -30 14 -55q16 -25 43 -39q26 -12 67 -4q42 9 67 45q-11 -36 -38 -54t-64 -21
q23 -23 50 -36q27 -12 64 -7q36 5 64 28q27 22 31 55q5 33 -27 67q26 -13 37 -36q12 -23 11 -41l10 20v0q18 34 10 72q-8 29 -29 50q-21 20 -51 26q-26 6 -55 -7q-29 -12 -37 -52v0zM128 169h-40h40h-40q-15 -1 -16 -16v-40v0q1 -15 16 -16h40v0q15 1 16 16v40v0
q-1 15 -16 16v0zM10 129q-9 -1 -10 -10v-28v0q1 -9 10 -10h28v0q9 1 10 10v28v0q-1 9 -10 10h-28v0zM168 104v-22v22v-22q1 -8 9 -9h22v0q8 1 9 9v22v0q-1 8 -9 9h-22v0q-8 -1 -9 -9v0zM56 197v25v-25v25q-1 10 -11 11h-26v0q-10 -1 -11 -11v-25v0q1 -11 11 -12h26v0
q10 1 11 12v0z" />
</svg>
