<?xml version="1.0" standalone="no"?>
<!DOCTYPE svg PUBLIC "-//W3C//DTD SVG 1.1//EN" "http://www.w3.org/Graphics/SVG/1.1/DTD/svg11.dtd" >
<svg xmlns="http://www.w3.org/2000/svg" xmlns:xlink="http://www.w3.org/1999/xlink" version="1.1" viewBox="-10 -40 661 512">
   <path fill="currentColor"
d="M210 181q-4 -19 -18 -30v0v0q-14 -11 -33 -11h-37v0q-11 1 -14 11l-35 130v0h25v0q11 -1 14 -11l26 -96v0h20v0q13 1 18 15q2 9 -4 16q-5 7 -14 7h-11v0q-11 1 -14 11l-6 23v0h32v0q28 -1 42 -21q14 -21 9 -44v0zM54 209h18h-18h18q11 0 15 -11l6 -23v0h-40v0
q-37 0 -51 41q-6 26 9 45t41 20h12v0l8 -26v0q0 -8 -7 -8h-11v0q-19 -3 -19 -19t19 -19v0zM301 174h-78h78h-78l-3 14v0q-2 16 14 18h58v0q4 2 2 5v1l-9 31v0v1q0 4 -5 5h-35v0q-4 -1 -4 -4q0 -4 4 -4h21v0q11 -1 15 -11l3 -13v0h-48v0q-20 1 -28 16q-7 16 -1 31q7 15 28 17
h57v0q18 -1 24 -18l14 -52v0q3 -15 -6 -25q-8 -11 -23 -12v0zM633 140h-19h19h-19q-8 0 -10 8l-36 133v0q16 0 29 -9q12 -10 16 -25l27 -99v0q1 -7 -7 -8v0zM397 175v0v0v0h-48v0l-27 98v0q-1 7 7 8h19v0q7 0 10 -8l17 -64v0h20v0q10 1 15 8t3 16l-10 40v0q-2 7 6 8h19v0
q8 0 10 -8l9 -33v0q6 -26 -9 -45t-41 -20v0zM495 249q-6 -1 -5 -6l8 -30v0q2 -6 8 -6h33v0q4 0 4 5l-1 2v0q-1 3 -4 3h-22v0q-11 1 -14 11l-3 13v0h53v0q17 0 23 -18l4 -12v0q3 -14 -6 -25q-8 -11 -23 -11h-47v0q-29 1 -39 29l-10 40v0q-4 14 4 25t24 12h67v0q10 -1 14 -11
l5 -21h-73z" />
</svg>
