<?xml version="1.0" standalone="no"?>
<!DOCTYPE svg PUBLIC "-//W3C//DTD SVG 1.1//EN" "http://www.w3.org/Graphics/SVG/1.1/DTD/svg11.dtd" >
<svg xmlns="http://www.w3.org/2000/svg" xmlns:xlink="http://www.w3.org/1999/xlink" version="1.1" viewBox="-10 -40 650 512">
   <path fill="currentColor"
d="M525 31l-1 -1q-58 -26 -120 -37q-1 0 -2 1q-8 15 -15 31q-67 -11 -134 0q-7 -16 -15 -31q-1 -1 -2 -1q-62 11 -120 37l-1 1q-56 85 -76 169q-19 83 -11 165q1 1 1 2q67 49 147 74q1 0 2 -1q17 -23 30 -49v-1t-1 -1q-24 -9 -46 -22q-1 -1 -1 -2t1 -1q5 -4 9 -7q1 -1 2 -1
q73 33 148 33q76 0 148 -33q1 0 1 1q5 3 10 7v1t-1 2q-22 13 -45 22q-1 0 -2 1q0 1 1 1q13 26 30 49q0 1 2 1q79 -25 147 -74v-2q16 -189 -86 -334v0zM222 299q-22 -1 -37 -18v0v0q-15 -17 -15 -42t15 -42q15 -16 37 -17q23 1 38 18q15 16 15 41t-15 42t-38 18v0zM418 299
q-22 -1 -37 -18v0v0q-15 -17 -16 -42q1 -25 15 -42q15 -16 38 -17q23 1 38 18q14 16 15 41q-1 25 -16 42q-14 17 -37 18v0z" />
</svg>
