<?xml version="1.0" standalone="no"?>
<!DOCTYPE svg PUBLIC "-//W3C//DTD SVG 1.1//EN" "http://www.w3.org/Graphics/SVG/1.1/DTD/svg11.dtd" >
<svg xmlns="http://www.w3.org/2000/svg" xmlns:xlink="http://www.w3.org/1999/xlink" version="1.1" viewBox="-10 -40 468 512">
   <path fill="currentColor"
d="M226 -7q-62 1 -113 30v0v0q-51 29 -82 79v0v0q-30 50 -31 111v37v78v77v36v0h226v0q62 -1 112 -31t80 -81q29 -51 30 -112q-1 -62 -30 -112q-30 -51 -80 -81t-112 -31v0zM224 345q-29 0 -54 -12l-81 20v0l22 -75v0q-15 -27 -15 -61q1 -54 37 -91q37 -36 91 -37
q54 1 91 37q36 37 37 91q-1 54 -37 91q-37 36 -91 37v0z" />
</svg>
