<?xml version="1.0" standalone="no"?>
<!DOCTYPE svg PUBLIC "-//W3C//DTD SVG 1.1//EN" "http://www.w3.org/Graphics/SVG/1.1/DTD/svg11.dtd" >
<svg xmlns="http://www.w3.org/2000/svg" xmlns:xlink="http://www.w3.org/1999/xlink" version="1.1" viewBox="-11 0 661 512">
   <path fill="currentColor"
d="M350 197h-66h66h-66v-59v0h66v0v59v0zM350 -7h-66h66h-66v61v0h66v0v-61v0zM428 138h-66h66h-66v59v0h66v0v-59v0zM272 66h-66h66h-66v60v0h66v0v-60v0zM350 66h-66h66h-66v60v0h66v0v-60v0zM627 166q-12 -8 -33 -10v0v0q-20 -2 -40 1q-5 -35 -41 -63l-14 -10v0l-10 14v0
q-14 22 -16 51t13 53q-14 9 -49 11h-435v0q-6 39 5 83t39 79q56 66 166 66q119 0 203 -53q84 -52 125 -151q18 2 45 -6q27 -7 46 -39q3 -5 8 -15q0 -1 1 -2l-13 -9v0zM116 138h-66h66h-66v59v0h66v0v-59v0zM194 138h-66h66h-66v59v0h66v0v-59v0zM272 138h-66h66h-66v59v0h66
v0v-59v0zM194 66h-66h66h-66v60v0h66v0v-60v0z" />
</svg>
