<?xml version="1.0" standalone="no"?>
<!DOCTYPE svg PUBLIC "-//W3C//DTD SVG 1.1//EN" "http://www.w3.org/Graphics/SVG/1.1/DTD/svg11.dtd" >
<svg xmlns="http://www.w3.org/2000/svg" xmlns:xlink="http://www.w3.org/1999/xlink" version="1.1" viewBox="-10 -40 500 512">
   <path fill="currentColor"
d="M313 9q2 -10 13 -12v0v0q12 -1 24 3q2 0 12 5t7 10q-19 -3 -34 2q-10 3 -16 2q-6 0 -6 -10v0zM112 15q21 -3 38 3v0v0q11 3 17 2v0v0q6 -1 6 -12q-1 -10 -14 -12q-12 -2 -26 3q-3 0 -14 6q-11 5 -7 10v0zM319 121q-14 1 -16 16q2 15 16 16q15 -1 16 -16q-1 -15 -16 -16v0
zM160 121q-15 1 -16 16q1 15 16 16q14 -1 16 -16q-2 -15 -16 -16v0zM478 284q-8 17 -27 13v0v0q-18 -4 -37 -14q-22 104 -126 124v0q-1 1 3 1h21q48 1 96 -8h1q-13 -11 -13 -24q1 -12 4 -14q1 -1 8 2q7 2 13 10q8 -10 18 -12q10 -3 12 -2q2 2 3 13q0 11 -9 22q7 -2 9 -2
q4 0 8 5q5 6 -5 8q-12 2 -25 5q-9 3 -22 6q-68 13 -116 12h-1l1 12v0q1 14 -11 17q-12 2 -17 -11q-1 14 -13 15q-13 1 -15 -16l-1 5v0q-2 14 -14 14q-13 0 -14 -14q-7 10 -17 6q-10 -3 -10 -15l2 -12v0q-44 1 -58 3h-4q-16 -2 -16 -16t16 -16q2 1 17 1q17 1 46 2
q-95 -23 -115 -118q-20 11 -39 15q-20 4 -29 -14q-6 -17 8 -31q15 -14 44 -32q7 -5 15 -11q1 -9 2 -19q-13 -21 -13 -42q-1 -9 -3 -19q-24 1 -23 -23q1 -13 2 -15q2 -2 9 -2q3 -1 4 -1q6 -23 32 -28q27 -6 59 -6q28 -36 81 -49q-11 -15 -8 -27t5 -13t12 4t15 19q4 -6 11 -9
q7 -2 8 -1q2 0 2 9q1 8 -7 16q61 9 96 51q28 1 50 7q22 7 27 27q2 0 4 1q7 0 9 2q1 2 2 15q1 24 -23 23q-2 9 -3 18q-1 15 -6 30q4 17 5 36q8 6 15 10q24 15 37 29q14 13 8 28v0zM207 121q0 -32 -23 -37v0v0q-23 -6 -55 -3q-34 -2 -46 13q-5 12 -3 34q3 22 10 42q8 20 16 26
q6 2 24 3t37 -1q18 -2 26 -9q6 -9 10 -31q5 -22 4 -37v0zM259 179q-1 -5 -3 -10v0v0q-3 -18 -12 -22q-5 -1 -11 0q-9 4 -12 21q-2 8 -5 16q14 1 19 7q3 2 5 2t5 -3q3 -7 14 -11v0zM395 95q-5 -9 -17 -12v0v0q-13 -2 -29 -2v0v0v0h-1q-31 -3 -54 3q-22 5 -23 37q0 15 4 37
q3 22 10 31q7 7 25 9q19 2 37 1t24 -3q8 -5 16 -25t11 -42t-3 -34v0z" />
</svg>
