<?xml version="1.0" standalone="no"?>
<!DOCTYPE svg PUBLIC "-//W3C//DTD SVG 1.1//EN" "http://www.w3.org/Graphics/SVG/1.1/DTD/svg11.dtd" >
<svg xmlns="http://www.w3.org/2000/svg" xmlns:xlink="http://www.w3.org/1999/xlink" version="1.1" viewBox="-10 -40 394 512">
   <path fill="currentColor"
d="M113 262q0 -26 15 -50v0v0q15 -24 35 -47v0v0q21 -23 38 -49v0v0q16 -26 17 -57q-2 -36 -18 -62q-16 -25 -21 -28v10q-1 32 -21 61q-19 29 -46 58q-31 32 -55 68q-24 37 -25 82q1 36 20 62q20 25 47 46q47 35 63 55t15 32q-1 8 -3 14q-2 4 -2 8q18 -25 17 -47
q0 -20 -12 -40q-11 -19 -27 -40q-3 -3 -5 -6l-4 -6q-11 -15 -20 -30q-8 -15 -8 -34v0zM318 223q-7 -33 -26 -62v0v0q-20 -28 -40 -47v0v0q-20 -18 -29 -21l4 7v0q4 7 3 17q-1 29 -20 60q-18 32 -30 48q-5 7 -6 9q-3 7 -3 15q1 16 8 29t10 13q2 0 15 -15q14 -15 28 -35
q13 -20 15 -37q9 17 9 33q-1 21 -11 43q-10 23 -20 38t-11 16v0q2 11 16 31q15 20 19 22q2 0 3 -2h1q29 -30 48 -64q18 -34 19 -73q0 -12 -2 -25v0z" />
</svg>
