<?xml version="1.0" standalone="no"?>
<!DOCTYPE svg PUBLIC "-//W3C//DTD SVG 1.1//EN" "http://www.w3.org/Graphics/SVG/1.1/DTD/svg11.dtd" >
<svg xmlns="http://www.w3.org/2000/svg" xmlns:xlink="http://www.w3.org/1999/xlink" version="1.1" viewBox="-10 -40 522 512">
   <path fill="currentColor"
d="M267 173q-39 37 -40 94q0 45 26 78l-50 50v0q-7 -2 -14 -2q-17 0 -28 11q-12 12 -12 29t12 28q12 12 28 12q17 0 29 -12q11 -12 12 -28q0 -6 -2 -12l50 -50v0q33 26 79 26q55 -1 92 -38q37 -36 38 -92q-1 -50 -32 -85q-30 -35 -78 -43v-62v0q27 -13 28 -43
q-1 -20 -14 -34q-13 -13 -33 -14q-20 1 -33 14q-13 14 -14 34q1 30 28 43v61v0q-23 3 -42 14q-19 -14 -58 -43q-28 -20 -58 -42t-53 -40q2 -7 2 -14q-1 -22 -16 -37q-14 -14 -37 -15q-22 1 -36 15q-15 15 -16 37q1 22 16 37q14 15 36 16q15 -1 27 -8l163 115v0zM357 336
q-29 -1 -49 -20v0v0q-19 -19 -20 -49q1 -29 20 -49q20 -19 49 -20q29 1 49 20q19 20 20 49q-1 30 -20 49q-20 19 -49 20v0z" />
</svg>
