<?xml version="1.0" standalone="no"?>
<!DOCTYPE svg PUBLIC "-//W3C//DTD SVG 1.1//EN" "http://www.w3.org/Graphics/SVG/1.1/DTD/svg11.dtd" >
<svg xmlns="http://www.w3.org/2000/svg" xmlns:xlink="http://www.w3.org/1999/xlink" version="1.1" viewBox="-10 -40 522 512">
   <path fill="currentColor"
d="M487 386q-4 -13 -20 -25v0v0q-5 -4 -8 -7q-2 -2 -7 -6q-7 -6 -15 -13q-7 -7 -8 -11q0 -8 8 -21q3 -4 5 -8q7 -17 11 -32q15 -52 14 -110q0 -59 -20 -101q-9 -17 -25 -34q-17 -18 -32 -29q-33 -24 -81 -27q-49 -4 -89 10q-2 1 -5 2q-18 6 -35 16q-8 4 -15 8q-22 11 -39 25
t-24 38q-18 9 -24 30q-7 20 -6 48q0 4 1 9q2 7 2 13q-1 3 -4 7l-3 3q-8 22 -3 45q4 23 15 39q12 19 39 25q1 15 8 30q1 3 4 7q9 11 6 21q-1 3 -8 7q-6 4 -13 7q-4 2 -6 4q-8 5 -16 9q-19 11 -40 25q-5 3 -11 6q-8 3 -14 9q-5 5 -4 16q3 15 10 32q2 7 5 14v2l2 4h422v0
q7 -23 14 -47q1 -4 3 -8q6 -17 6 -32v0zM206 -5q3 -1 5 2q-1 5 -6 6q-2 0 -3 1q-4 5 -10 8q-5 4 -10 9q-4 4 -8 12q-7 14 -15 18q-5 1 -9 0h-5q-8 0 -15 3q-6 3 -13 4q11 -23 37 -39q26 -17 52 -24v0zM101 88q21 -22 55 -26q7 24 1 51q-6 24 -2 47l2 6q2 7 3 13q0 6 -7 7
q-2 -22 -21 -32t-41 2v-2q-2 -17 -1 -35t11 -31v0zM138 289q-2 -9 -3 -16q2 -4 7 -8q8 -6 4 -16q-8 0 -13 5q-4 5 -11 6q-20 0 -32 -20q-13 -19 -12 -38q1 -16 12 -27q11 -10 28 -9q12 2 17 12q6 10 8 22q7 1 15 0q8 -2 11 -7q0 -12 -4 -23q-4 -12 -4 -25q1 -16 5 -31
q9 -28 0 -56q11 -23 36 -41q24 -18 47 -29q29 -13 66 -6q36 6 64 22q25 16 42 43q3 4 6 7q-15 -4 -25 2t-8 19q13 -11 29 -4t23 20q9 22 9 53v10q2 43 -7 84q-10 41 -32 73q-2 3 -5 7q-8 14 -20 23q-20 15 -46 23q-27 9 -53 1q-32 -11 -51 -31t-36 -45q-1 -1 -2 -3
q4 28 26 48q18 22 40 33q-10 -3 -21 -2t-15 9q-22 -1 -40 -5q-18 -5 -29 -19q-8 -12 -15 -29t-11 -33v1zM360 413q5 -3 13 -4v0v0h4q-9 -4 -19 -2q0 -4 -2 -8q-1 -1 -1 -2q5 -3 13 -8q9 -7 19 -12q10 -4 17 -1q5 4 8 16q2 12 2 21q1 15 -4 23q-28 -1 -51 -7q1 -4 0 -8
q0 -5 1 -8v0zM343 393q-23 2 -39 -11l1 -1q1 0 1 -1q19 6 40 -1q10 -2 19 -3q-7 4 -13 9q-5 4 -9 8v0zM330 426q0 -5 -1 -8v0v0q-2 -5 -1 -12q12 -8 18 -1q5 7 1 16q-3 8 -17 5v0zM226 400q-11 -1 -27 -9v0v0q-16 -7 -11 -15q10 6 26 6q8 0 15 1q0 4 -1 8q-2 4 -2 9v0z
M58 458q-7 -19 -15 -37q46 -38 102 -63q2 0 7 5q5 6 11 13q6 8 8 9q23 16 50 28q3 1 7 3q1 12 8 35q1 1 1 2q1 3 1 5h-180v0zM298 464v0v0v0v0v-1v1v0zM306 458q1 0 2 -1v0v0q2 -2 4 -3q2 2 3 4h-9v0zM321 433q-7 5 -13 11v0v0q-9 8 -20 15q-6 3 -17 7q-11 3 -17 3
q-3 -2 -4 -7q-1 -1 -1 -3q-1 -3 -3 -7q-6 -13 -8 -30v-1q-1 -14 1 -28t15 -13q24 5 44 16q3 2 5 3q6 5 17 7v2v2q-5 3 -12 4q-6 1 -10 3q14 1 23 6v5v5v0zM374 458h-14h14h-14q0 -5 -6 -6q-5 1 -6 6h-17v0q-4 -7 -9 -12q2 -2 3 -4t3 -3q7 2 13 -2q4 -3 9 -2q4 0 9 4
q7 6 16 7l-1 12v0zM383 458q0 -6 1 -11q11 -5 21 -1q9 4 14 12h-36v0zM466 421q-3 17 -9 37h-1h-28v0q1 -2 2 -3q-2 -4 -5 -7q-4 -3 -6 -9q6 -12 6 -33q0 -22 -8 -37q-7 -14 -22 -8q3 -5 9 -9q7 -4 12 -10q10 8 19 17q6 7 14 14q2 2 5 4q13 8 16 19q0 8 -3 20q0 3 -1 5v0z
M222 92q5 -13 18 -23v0v0q13 -11 27 -9q7 1 11 5q5 5 1 12q-22 -4 -35 6q-12 11 -19 27q-6 -2 -5 -8q0 -6 2 -11v1zM406 155q6 -3 14 -3v0v0q10 0 16 -3q-1 -3 -3 -7q-6 -12 -6 -30h1q2 5 5 10q7 17 16 31q-6 12 -23 15q-18 4 -20 -13v0zM310 157q-6 -8 -12 -22v0v0
q-6 -13 -3 -23q3 6 6 13q4 11 12 20l2 2q9 5 6 19q-4 6 -12 9q-12 4 -28 0q-15 -4 -8 -17l10 2q16 5 26 -3h1zM337 227l2 8v0v0q1 10 10 13q11 1 23 -3t23 -9q6 -4 12 -6q5 -9 3 -15t-8 -11l-4 -4q-1 -2 -3 -4q-13 -14 -24 -32t-11 -39q4 -3 6 1l2 6v3q7 15 21 32
q13 18 26 31q2 3 5 5q5 4 6 6q1 8 -3 15q-2 5 -2 9q-16 11 -35 19q-20 8 -46 6q-6 -5 -7 -14q-2 -9 4 -17v0zM135 218q-4 -3 -7 -10v0v0q-3 -10 -9 -11q-7 0 -8 9q-2 10 -1 21v5q-6 -6 -7 -18q-1 -13 3 -22q-6 -2 -10 3q-1 2 -3 3q7 -25 26 -16q19 8 16 36v0zM435 247
q-7 15 -20 27v0v0q-12 13 -34 14q-1 -12 0 -20q23 -3 40 -14q7 -4 14 -7v0zM293 259q15 8 37 9v0v0q22 2 43 1q1 8 1 17v3q-26 1 -50 -6q-23 -6 -31 -24v0zM385 306q-2 7 -9 11q-11 4 -30 5t-33 -5q-12 -8 -19 -20l-4 -6l-3 -3q-4 -3 -5 -7q-2 -3 8 -3q10 22 35 26t53 2h7v0
z" />
</svg>
