<?xml version="1.0" standalone="no"?>
<!DOCTYPE svg PUBLIC "-//W3C//DTD SVG 1.1//EN" "http://www.w3.org/Graphics/SVG/1.1/DTD/svg11.dtd" >
<svg xmlns="http://www.w3.org/2000/svg" xmlns:xlink="http://www.w3.org/1999/xlink" version="1.1" viewBox="-10 -40 468 512">
   <path fill="currentColor"
d="M448 57q-1 -27 -19 -45v0v0q-18 -18 -45 -19h-320v0q-27 1 -45 19t-19 45v320v0q1 27 19 45t45 19h320v0q27 -1 45 -19t19 -45v-320v0zM181 406q-25 -1 -41 -11v0v0q-15 -11 -22 -28l34 -20v0q8 19 27 21q22 3 23 -26v-143v0h42v0v143v0q-1 33 -18 49q-17 15 -45 15v0z
M267 363l34 -20l-34 20l34 -20q12 24 42 26q27 -2 28 -21q0 -11 -8 -16q-8 -6 -23 -12l-10 -5v0q-23 -9 -37 -23q-13 -15 -14 -40q1 -24 17 -40q17 -15 45 -16q40 -1 60 34l-33 21v0q-10 -19 -27 -18q-19 1 -20 18q-1 16 26 26l10 4v0q27 11 42 26q14 14 14 40q-1 29 -20 44
t-50 15q-58 -3 -76 -43v0z" />
</svg>
