<?xml version="1.0" standalone="no"?>
<!DOCTYPE svg PUBLIC "-//W3C//DTD SVG 1.1//EN" "http://www.w3.org/Graphics/SVG/1.1/DTD/svg11.dtd" >
<svg xmlns="http://www.w3.org/2000/svg" xmlns:xlink="http://www.w3.org/1999/xlink" version="1.1" viewBox="-10 -40 340 512">
   <path fill="currentColor"
d="M118 199q1 -4 3 -9v0v0q2 -9 4 -16v0v0q3 -8 7 -8q6 3 10 17q3 10 8 19q2 -13 4 -34q2 -20 4 -35q2 -16 6 -17q6 2 12 26q6 25 9 43q1 6 1 8q10 3 28 5q19 2 21 2q0 5 -13 6q-14 2 -27 2v0q-2 6 -3 12q-3 14 -8 16q-4 -2 -8 -19q-3 -15 -10 -31l-9 66v0q-3 6 -8 -5
q-6 -11 -11 -26q-2 -5 -3 -9h-1q-4 0 -18 -1q-14 0 -24 -2q-11 -2 -5 -5l31 -5v0zM228 409q16 -2 16 -16v0v0q0 -14 -16 -16h-136v0q-16 2 -16 16t16 16h136v0zM204 473q16 -2 16 -16v0v0q0 -14 -16 -16h-88v0q-16 2 -16 16t16 16h88v0zM238 332q1 -5 2 -9v0v0q2 -24 10 -40
q12 -22 24 -41v-1q19 -29 32 -59q13 -29 14 -66q-2 -66 -47 -109q-45 -44 -113 -46q-68 2 -113 46q-45 43 -47 109q1 37 14 67q13 29 32 59v0q12 19 24 41q8 16 10 41l2 8q4 15 19 13q14 -3 13 -18q0 -5 -1 -9q-3 -27 -14 -50q-13 -23 -25 -43q-17 -27 -29 -53
q-12 -25 -12 -56q1 -52 37 -87t90 -36q54 1 90 36t37 87q0 31 -12 56q-12 26 -29 53q-12 20 -25 43q-11 23 -14 49q-1 5 -1 9q-1 16 13 19q14 2 19 -13v0z" />
</svg>
