<?xml version="1.0" standalone="no"?>
<!DOCTYPE svg PUBLIC "-//W3C//DTD SVG 1.1//EN" "http://www.w3.org/Graphics/SVG/1.1/DTD/svg11.dtd" >
<svg xmlns="http://www.w3.org/2000/svg" xmlns:xlink="http://www.w3.org/1999/xlink" version="1.1" viewBox="-10 -40 468 512">
   <path fill="currentColor"
d="M224 469q-10 0 -19 -5l-62 -37v0q-7 -4 -6 -5q1 -2 4 -3q9 -3 14 -5t14 -7q2 -1 5 0l47 28v0q3 2 6 0l185 -107v0q2 -1 2 -5v-213v0q0 -3 -3 -5l-184 -106v0q-3 -2 -6 0l-184 106v0q-3 2 -3 5v214v0q0 3 3 4l50 30v0q21 9 33 2q11 -8 12 -21v-210v0q0 -5 5 -6h23v0
q5 1 6 6v210v0q-2 56 -55 58q-7 0 -16 -2t-27 -10l-48 -28v0q-19 -11 -19 -34v-213v0q0 -22 19 -33l185 -107v0q19 -10 38 0l185 107v0q19 11 20 33v214v0q-1 21 -20 33l-185 107v0q-9 5 -19 5v0zM373 259q0 -29 -20 -41v0v0q-21 -12 -64 -17q-41 -5 -53 -10q-11 -5 -10 -15
q-1 -9 8 -17t40 -9q28 0 40 7q13 8 17 27q1 4 6 4h24v0q2 0 3 -2q2 -1 2 -4q-5 -65 -92 -64q-82 1 -84 59q0 30 21 42q22 12 60 15q44 4 56 11q11 7 10 16q1 30 -56 29q-36 0 -49 -9q-12 -9 -14 -28q-1 -4 -5 -4h-24v0q-5 0 -6 5q-1 25 19 46t79 22q90 -1 92 -63v0z" />
</svg>
