<?xml version="1.0" standalone="no"?>
<!DOCTYPE svg PUBLIC "-//W3C//DTD SVG 1.1//EN" "http://www.w3.org/Graphics/SVG/1.1/DTD/svg11.dtd" >
<svg xmlns="http://www.w3.org/2000/svg" xmlns:xlink="http://www.w3.org/1999/xlink" version="1.1" viewBox="-11 0 422 512">
   <path fill="currentColor"
d="M88 -31q3 -1 34 2v0v0q32 3 61 25v0v0q30 22 26 78q0 -2 8 -19q9 -16 31 -27t64 5q0 1 -7 18q-8 17 -27 31t-54 7q0 -1 6 -14q6 -14 20 -27q15 -14 40 -16q-1 -2 -25 3q-24 4 -57 46q0 -2 -8 -25t-29 -46q-20 -24 -57 -29q2 0 20 9q18 8 37 32q18 23 21 67q-2 1 -27 -3
q-26 -4 -51 -29q-25 -26 -26 -88v0zM400 285q1 74 -32 132q-32 23 -76 36q-44 12 -92 12t-92 -12q-44 -13 -76 -36q-33 -58 -32 -132q0 -37 12 -70q11 -34 28 -62q64 -47 160 -49q96 1 160 49q17 28 28 62q12 33 12 70v0zM120 389q0 -12 -8 -20v0v0q-8 -8 -20 -8t-20 8
t-8 20t8 20t20 8t20 -8t8 -20v0zM120 323q0 -12 -8 -20v0v0q-8 -8 -20 -8t-20 8t-8 20t8 20t20 8t20 -8t8 -20v0zM120 257q0 -12 -8 -20v0v0q-8 -8 -20 -8t-20 8t-8 20t8 19q8 8 20 9q12 -1 20 -9q8 -7 8 -19v0zM192 389q0 -12 -8 -20v0v0q-8 -8 -20 -8t-20 8t-8 20t8 20
t20 8t20 -8t8 -20v0zM192 323q0 -12 -8 -20v0v0q-8 -8 -20 -8t-20 8t-8 20t8 20t20 8t20 -8t8 -20v0zM192 257q0 -12 -8 -20v0v0q-8 -8 -20 -8t-20 8t-8 20t8 19q8 8 20 9q12 -1 20 -9q8 -7 8 -19v0zM264 389q0 -12 -8 -20v0v0q-8 -8 -20 -8t-20 8t-8 20t8 20t20 8t20 -8
t8 -20v0zM264 323q0 -12 -8 -20v0v0q-8 -8 -20 -8t-20 8t-8 20t8 20t20 8t20 -8t8 -20v0zM264 257q0 -12 -8 -20v0v0q-8 -8 -20 -8t-20 8t-8 20t8 19q8 8 20 9q12 -1 20 -9q8 -7 8 -19v0zM336 389q0 -12 -8 -20v0v0q-8 -8 -20 -8t-20 8t-8 20t8 20t20 8t20 -8t8 -20v0z
M336 323q0 -12 -8 -20v0v0q-8 -8 -20 -8t-20 8t-8 20t8 20t20 8t20 -8t8 -20v0zM336 257q0 -12 -8 -20v0v0q-8 -8 -20 -8t-20 8t-8 20t8 19q8 8 20 9q12 -1 20 -9q8 -7 8 -19v0zM360 217q-1 -3 -1 -6v0v0q-5 -26 -15 -50q-61 -31 -144 -32q-83 1 -144 32q-10 23 -14 48l-2 8
q66 -13 160 -15q94 2 160 15v0z" />
</svg>
