<?xml version="1.0" standalone="no"?>
<!DOCTYPE svg PUBLIC "-//W3C//DTD SVG 1.1//EN" "http://www.w3.org/Graphics/SVG/1.1/DTD/svg11.dtd" >
<svg xmlns="http://www.w3.org/2000/svg" xmlns:xlink="http://www.w3.org/1999/xlink" version="1.1" viewBox="-10 -40 522 512">
   <path fill="currentColor"
d="M490 115q-2 -50 -33 -87v0v0q-32 -36 -78 -51q-57 -19 -123 -16q-65 3 -120 28q-63 32 -89 91q-25 59 -25 127q-1 39 6 101q6 62 31 112q25 49 78 53q41 -1 63 -31q22 -29 37 -66q13 -32 29 -55q20 -26 46 -38q25 -11 57 -18q55 -14 87 -54q33 -39 34 -96v0z" />
</svg>
