<?xml version="1.0" standalone="no"?>
<!DOCTYPE svg PUBLIC "-//W3C//DTD SVG 1.1//EN" "http://www.w3.org/Graphics/SVG/1.1/DTD/svg11.dtd" >
<svg xmlns="http://www.w3.org/2000/svg" xmlns:xlink="http://www.w3.org/1999/xlink" version="1.1" viewBox="-10 -40 660 512">
   <path fill="currentColor"
d="M213 305q4 0 13 -1v0v0q9 0 13 -1q-1 -1 -5 -1q-10 -1 -29 -10q-19 -10 -34 -39q-8 -12 -7 -27q3 -19 20 -23t32 4q21 15 40 41q15 20 33 37q18 16 41 20q29 3 59 -10q30 -14 49 -36v0h-1l-1 1q-27 9 -65 6t-70 -21q-28 -18 -40 -40q-13 -22 -12 -35q3 -15 14 -19
q12 -3 22 0q13 4 25 15q6 7 14 12q24 16 52 10q11 -2 23 -7q11 -5 13 -7h-1h-1q-4 -1 -7 -1q-6 0 -12 -1q-39 -7 -66 -31q-28 -23 -51 -53q-26 -33 -57 -58q-31 -26 -78 -31q-35 -3 -71 6q-37 9 -66 29l-2 2v0v0h1h2q9 -1 18 0q19 3 34 20q16 17 22 57q3 21 3 37q-1 21 5 49
q17 57 57 82q41 26 71 24v0zM75 26q-1 -1 -1 -2v0v0v0q18 -4 37 -5q-2 12 -14 14q-11 3 -22 -7v0zM272 376q-33 1 -66 -17v0v0q-33 -17 -57 -44q-4 -4 -11 -12q-6 -8 -8 -11l1 -1v0q1 1 3 2q13 12 51 25q37 11 72 -3q17 -6 29 -3t14 6q-13 2 -17 4q-5 1 -7 4q-9 7 7 17
q16 6 35 6q15 0 31 4q16 3 31 15q6 5 10 11v0v1q-1 -1 -3 -2q-9 -4 -37 -8q-20 -1 -41 3q-16 2 -37 3v0zM447 124h1v0v0q12 -4 30 -7v0v0q17 -3 36 4q23 10 32 35q5 14 5 28h-1v-1q-4 -17 -22 -28t-46 -2q-40 15 -90 5t-87 -53h-1q-1 -1 0 -3q1 0 3 1q27 20 60 27
q44 8 80 -6v0zM550 242q-19 2 -33 21v0v0q-9 12 -26 24v0v0q-16 13 -45 19q-14 3 -27 4t-18 1v-1v0q1 0 3 -1q8 -1 27 -15l21 -21l2 -2q14 -16 33 -29q19 -12 49 -10q27 3 33 11q1 0 3 1v1v0v0v0q-11 -3 -22 -3v0zM537 218v0v0v0v0h-3q-20 -4 -35 -4q-16 0 -30 8l-6 4
q-11 7 -24 12q-13 6 -32 9q-20 3 -36 1q-15 -2 -30 -9l-1 -1v0v0q18 3 30 2q12 0 25 -8q6 -3 11 -7q24 -17 61 -24q42 -6 70 17v0zM269 58q-1 0 -2 -1v0v0v-1h2q7 0 21 1q13 1 30 7q19 9 33 21q8 6 17 12q17 11 37 8q3 0 7 -1h5h2h-1q0 1 -1 1q-12 6 -26 7q-39 3 -73 -15
q-29 -15 -51 -39v0zM640 297q-3 3 -15 6v0v0q-12 3 -28 -1q-11 -4 -20 -14q-5 -5 -11 -10q-15 -9 -27 -8h-1q0 -2 1 -2q22 -14 47 -6q13 5 24 17l7 7q14 11 21 10h2v1v0zM428 434q2 1 1 1v0v0v1q-28 -1 -47 -22q-15 -17 -28 -23q-12 -6 -19 -7h-1v0q0 -1 1 -1q19 0 39 4
q16 5 25 15q9 9 14 17l2 4q5 7 13 11v0z" />
</svg>
