<?xml version="1.0" standalone="no"?>
<!DOCTYPE svg PUBLIC "-//W3C//DTD SVG 1.1//EN" "http://www.w3.org/Graphics/SVG/1.1/DTD/svg11.dtd" >
<svg xmlns="http://www.w3.org/2000/svg" xmlns:xlink="http://www.w3.org/1999/xlink" version="1.1" viewBox="-10 -40 596 512">
   <path fill="currentColor"
d="M562 161q-1 0 0 0v0zM556 83q-5 -12 -6 -14v0v0l-3 -6v0v0q-1 -4 -5 -17q-2 -10 -6 -20q-3 -5 -4 -7q-1 -1 -1 -2q1 -4 8 -14q7 -11 12 -21q4 -11 -1 -12q-5 0 -10 8q-5 5 -10 9q-6 3 -7 4q-2 1 -4 1q-4 -1 -6 -5q-1 -4 0 -11q1 -13 -3 -15q-3 1 -8 12t-9 14q-2 0 -5 -1
q-8 -2 -25 0t-45 19q-14 7 -34 23q-20 15 -37 28q-16 13 -16 14q-4 3 -11 4q-11 3 -25 12q-23 14 -48 16q-25 1 -43 -2q-18 -4 -20 -5q-54 -13 -83 -15q-29 -1 -45 6t-31 21q-14 13 -19 24t-5 14v1q-2 22 4 46q2 10 3 18v14q0 7 1 25t7 59q0 1 2 1t3 1q-1 10 -4 12v1
q-3 7 0 16q2 7 4 22q3 16 4 25v38q1 8 2 11q5 9 13 10l4 2q2 3 1 7v5q2 4 7 5q7 3 17 2q9 -2 12 -4q1 -1 1 -2q1 -2 3 -3q8 0 14 -3t1 -10q0 -1 -4 -7q-3 -6 -5 -9q-2 -2 -5 -3q-1 -1 -3 -2q-4 -4 -7 -11t-3 -8q-4 -15 -6 -33t2 -34q3 -10 12 -30q10 -21 18 -39
q9 -18 10 -19q3 -5 11 -7q8 -3 16 0q2 1 6 5q6 5 20 13t39 13q27 5 52 3q25 -1 43 -3q12 -2 18 -2q1 1 0 9q-2 9 -1 30v16t-1 5q-1 1 -3 9q-1 6 0 14q2 12 -2 33q0 5 -3 14q-5 17 -5 29l2 4q0 7 4 10q4 1 6 1q6 -2 4 10q-1 3 -1 8t3 7q4 3 17 3t19 -2q2 -1 2 -3q1 -2 4 -5h3
q7 0 9 -6q-1 -3 -5 -11t-5 -9q-2 -3 -5 -4q-4 -2 -6 -4q-5 -10 -3 -31t4 -29q1 -6 3 -12q3 -10 5 -20q8 -29 10 -42q3 -14 7 -26q0 -1 1 -5q2 -6 5 -14q2 -7 4 -11q14 -24 32 -45l2 -2q14 -18 27 -37q12 -17 25 -33q1 -2 3 -4q4 -10 15 -4l10 4q11 4 22 13q13 14 11 19v4
q4 9 15 9v0q14 -3 14 -2q4 -3 7 -8l2 -4q5 -5 5 -13v-5l-4 -8q-4 -9 -16 -40v0z" />
</svg>
