<?xml version="1.0" standalone="no"?>
<!DOCTYPE svg PUBLIC "-//W3C//DTD SVG 1.1//EN" "http://www.w3.org/Graphics/SVG/1.1/DTD/svg11.dtd" >
<svg xmlns="http://www.w3.org/2000/svg" xmlns:xlink="http://www.w3.org/1999/xlink" version="1.1" viewBox="-10 -40 522 512">
   <path fill="currentColor"
d="M480 149l5 28l-5 -28l5 28v28v0l-26 44v0l-39 78v0l-56 68v0l-80 37v0l-17 25v0l-8 12v0l-10 4v0q1 -1 5 -16q4 -16 9 -31q4 -15 6 -17q2 0 11 1h9l67 -39v0l-93 27v0l-56 36v0l-22 28v0l-7 2v0l21 -74v0l7 -5v0l20 13v0l89 -46v0l56 -51v0l15 -69v0l-125 24v0l15 -18v0
l-173 -54v0l82 -10v0l-166 -123v0l115 18v0l-102 -108v0l253 127v0l-31 -38v0l124 74v0l-143 -99v0l18 38v0l-49 -18v0l-46 -84v0l195 122v0l-43 -56v0l108 97v0l12 -9v0l-21 -17v0l4 -37v0l38 -11v0l29 25v0l12 4v0l-7 6v0l8 12v0l-13 8v0l-10 20v0l10 24v0z" />
</svg>
