<?xml version="1.0" standalone="no"?>
<!DOCTYPE svg PUBLIC "-//W3C//DTD SVG 1.1//EN" "http://www.w3.org/Graphics/SVG/1.1/DTD/svg11.dtd" >
<svg xmlns="http://www.w3.org/2000/svg" xmlns:xlink="http://www.w3.org/1999/xlink" version="1.1" viewBox="-10 -40 650 512">
   <path fill="currentColor"
d="M401 11q-31 62 -48 94v0v0q-18 33 -26 47v0v0q-7 14 -10 19v0v0q-3 6 -4 13l-5 33v0q-3 18 -14 33l-148 208v0q-13 17 -34 15q-31 -4 -56 -23q-25 -18 -39 -46q-9 -19 3 -36l149 -208v0q11 -15 27 -24l29 -15v0q6 -3 11 -8q5 -4 15 -15q10 -12 36 -40q25 -27 74 -76v-2
q1 -5 4 -6h1q5 -1 5 -5v-4v0q0 -4 3 -4q7 -2 25 10q17 14 18 21q1 3 -2 4l-5 1v0q-3 2 -2 7v1q0 3 -5 5q-1 0 -2 1v0zM230 -3q4 2 3 7v0v0q-1 0 -1 1q0 3 5 5q1 0 2 1l22 44q1 2 3 0q17 -18 41 -42q2 -3 0 -5l-26 -26v-2q-1 -5 -3 -6q-1 0 -2 -1q-4 0 -5 -4l1 -1q1 -6 -3 -7
q-7 -2 -26 10q-17 14 -18 21q0 5 6 5h1v0zM620 368l-149 -208l149 208l-149 -208q-8 -12 -18 -18q-10 -7 -26 -15l-12 -6q-7 -4 -11 -8q-5 -4 -12 -12q-3 -4 -8 -9q-2 -2 -3 0q-31 59 -40 74q-5 9 -7 13t-2 8q-3 16 0 30q3 18 14 33l149 208v0q12 17 33 15q30 -4 56 -23
q26 -18 39 -46q9 -19 -3 -36v0z" />
</svg>
