<?xml version="1.0" standalone="no"?>
<!DOCTYPE svg PUBLIC "-//W3C//DTD SVG 1.1//EN" "http://www.w3.org/Graphics/SVG/1.1/DTD/svg11.dtd" >
<svg xmlns="http://www.w3.org/2000/svg" xmlns:xlink="http://www.w3.org/1999/xlink" version="1.1" viewBox="-10 -40 502 512">
   <path fill="currentColor"
d="M482 229q-1 66 -32 121v0v0q-32 55 -89 88q-57 32 -120 32q-64 0 -120 -32q-57 -34 -89 -89q-31 -55 -32 -120q1 -65 32 -120q32 -55 89 -89q57 -32 120 -32q64 0 121 32q56 34 88 89q31 55 32 120v0zM25 229q-1 60 27 110v0v0q28 51 79 81q52 30 110 30t110 -30
q51 -30 79 -81q28 -50 27 -110q1 -60 -27 -110q-28 -51 -79 -81q-52 -30 -110 -30t-110 30q-51 30 -79 81q-28 50 -27 110v0zM410 292q-19 0 -26 -6q-9 -6 -9 -23v-97v0q1 -10 -15 -41q10 0 30 -27v148v0q0 16 7 25q5 7 19 12q1 1 2 1t2 1q4 1 9 3h1q-2 4 -20 4v0zM191 292
q-2 4 -6 10l-19 22v0q-1 -9 -9 -20q-8 -12 -14 -12h-8h-81q5 -8 5 -11t-3 -9q-2 -7 -2 -13q0 -11 6 -19l20 -26v0l-7 -17v0l16 -20v0l7 17v0l8 -11v0q-3 10 -3 18q0 6 8 27l17 41v0h9h8v0v0q5 1 15 14q1 1 1 2q3 3 7 8l4 6q2 -3 2 -7q0 -3 -4 -13l-5 -14v0q-6 -16 -6 -21
q0 -10 6 -18v-1l1 -1l14 -16q-2 6 -2 12q0 5 5 18l8 21v0l3 9q0 1 1 1h17h8v-3v0q-3 -5 -8 -9l15 -20v0l13 32v0h13v0l-6 -16v0q-2 -6 -8 -9l16 -20v0l17 45v0h14v0l-12 -29v0q-2 -6 -7 -10l15 -20v0l23 59v0h10h16q1 0 2 -1l2 -2q3 -3 3 -6v-94v0q0 -10 -14 -41q8 0 26 -27
v163v0q0 11 2 15q2 5 11 8q-6 8 -15 9h-25zM93 248q-4 -10 -4 -15q0 2 -5 8q-2 3 -2 5q0 4 2 9l6 14v0v0v0h12l-9 -21v0zM107 176q-5 -8 -12 -12q-5 -3 -5 -7t14 -19q0 6 5 12q4 5 4 10q0 3 -6 16v0zM79 176q-4 -8 -12 -12q-5 -3 -5 -7t14 -19q0 6 5 12q5 5 5 10q0 3 -7 16
v0zM166 203q-4 -7 -12 -11q-5 -3 -5 -8q0 -4 14 -18q0 6 5 11t5 10q0 4 -7 16v0z" />
</svg>
