<?xml version="1.0" standalone="no"?>
<!DOCTYPE svg PUBLIC "-//W3C//DTD SVG 1.1//EN" "http://www.w3.org/Graphics/SVG/1.1/DTD/svg11.dtd" >
<svg xmlns="http://www.w3.org/2000/svg" xmlns:xlink="http://www.w3.org/1999/xlink" version="1.1" viewBox="-10 -40 660 512">
   <path fill="currentColor"
d="M117 120q-12 14 -32 14q0 -19 12 -32q13 -15 31 -16q1 19 -11 33v1zM128 137q-16 0 -28 6v0v0q-8 3 -13 4q-5 -1 -13 -4q-10 -5 -21 -6q-29 2 -44 27q-13 25 -7 55t20 51q7 11 15 19t19 8q9 -1 15 -4q7 -4 19 -5q12 1 19 5q6 4 16 4q11 -1 18 -8q8 -8 15 -18
q7 -12 10 -20q4 -9 4 -10v0q-4 -1 -16 -11q-11 -10 -12 -32q1 -19 10 -28q8 -10 12 -12h1q-10 -14 -22 -18q-11 -3 -17 -3v0zM228 100v195v-195v195h30v0v-66v0h42v0q30 -1 47 -18q18 -18 18 -47q0 -28 -17 -46q-18 -17 -47 -18h-73v0zM258 126h35h-35h35q41 1 42 39
q-1 37 -42 38h-35v0v-77v0zM421 297q30 -1 44 -25h1v0v23v0h28v0v-97v0q0 -21 -16 -33q-15 -13 -41 -13q-25 0 -40 12q-16 12 -17 32h27v0q5 -19 29 -20q28 0 29 24v11v0l-38 2v0q-53 4 -54 42q0 19 13 30q13 12 35 12v0zM429 274q-25 -1 -27 -20q1 -18 29 -20l34 -2v0v11v0
q0 13 -10 22t-26 9v0zM531 348q22 1 35 -10v0v0q12 -10 21 -35l53 -149v0h-31v0l-35 115v0h-1v0l-36 -115v0h-31v0l51 142v0l-3 9v0q-6 21 -25 20q-5 0 -9 -1v24v0h11v0z" />
</svg>
