<?xml version="1.0" standalone="no"?>
<!DOCTYPE svg PUBLIC "-//W3C//DTD SVG 1.1//EN" "http://www.w3.org/Graphics/SVG/1.1/DTD/svg11.dtd" >
<svg xmlns="http://www.w3.org/2000/svg" xmlns:xlink="http://www.w3.org/1999/xlink" version="1.1" viewBox="-10 -40 660 512">
   <path fill="currentColor"
d="M640 216q-1 -8 -6 -8v0v0q-4 0 -5 1v0v0v0q0 1 -9 6t-20 5q-10 -3 -10 -17t1 -15v0v-15q0 -12 -6 -16q-6 -1 -12 3q-5 4 -6 4q0 1 -7 9q-6 9 -11 23h-1v0v-16q1 -15 -1 -21q-2 -3 -9 -3q-7 1 -10 6q-2 6 -8 29q-5 22 -7 38q0 1 -14 10q-13 9 -29 13q-15 1 -20 -4t-5 -6
q1 0 14 -5q13 -6 26 -19t13 -35q-2 -21 -12 -26q-11 -6 -23 -3q-11 3 -14 5l-1 1q-6 3 -18 17q-12 13 -18 42v7v0q-1 1 -12 8t-21 10q1 -1 7 -15q6 -15 5 -33q0 -19 -20 -33q-8 -4 -15 -2q-7 3 -12 8q12 -14 27 -44t10 -62q-4 -17 -12 -22q-8 -4 -17 -1q-13 6 -18 11l-6 6
q-1 1 -11 22q-11 21 -16 58q-4 37 -8 70q-4 32 -4 35v0q-1 0 -7 5q-6 4 -13 5q-7 -1 -7 -14q1 -13 1 -14q1 -3 4 -24q3 -20 3 -28q1 -11 -10 -15q-7 -1 -12 4q-6 4 -6 5v0q-2 2 -13 20q-12 18 -15 25l-1 2v0l-2 -2v0q1 -1 4 -13q4 -13 5 -26q0 -13 -8 -14q-13 0 -20 9
q-8 8 -8 10v0q-1 2 -10 16q-9 15 -11 20l-1 -1v0q1 -3 4 -21t2 -27q-1 -7 -5 -7l-5 -1q-1 0 -6 1q-6 0 -8 5q-3 8 -8 33q-6 24 -7 38q-1 1 -17 10q-15 9 -30 10q-13 0 -15 -5l-2 -6v0q2 0 17 -8q16 -8 28 -23q12 -16 5 -39q-12 -16 -32 -15q-23 -2 -41 33q-8 19 -8 32h-7
q-7 1 -12 -3q-5 -3 -7 -2l-3 2q-1 1 -4 8q-3 6 4 10q9 4 18 5t10 1q1 13 20 30q17 10 37 5t21 -6l16 -9v0q0 1 2 8q2 6 10 9t15 -5q8 -8 22 -43q8 -18 11 -21q2 -4 2 -3v0h1v0q-1 2 -4 25q-4 22 -2 35q4 9 11 10t8 1q0 1 5 -2q5 -2 10 -19q6 -19 12 -34q7 -15 8 -16v0h1v0
q0 2 -2 26q-1 23 5 38q8 10 19 8t12 -3t8 -4q7 -4 10 -6q0 1 13 7q12 7 32 6q43 -10 61 -18l18 -8v0q-1 1 9 12q9 11 32 14q27 1 41 -8t14 -10q-1 0 1 7t11 11q9 2 15 -9q5 -11 6 -13l20 -58v0h2v0q0 3 3 20q4 17 19 24q16 3 31 -5t16 -9v0l3 -3q2 -3 2 -11v0zM62 221
q2 -24 12 -34v0v0q10 -10 17 -5q5 6 3 15t-12 16t-15 8h-5v0v0zM335 97q0 -1 5 -12v0v0q5 -11 10 -18v0v0q6 -6 8 5q2 13 -8 35q-10 23 -20 41q-11 19 -12 20q2 -15 9 -41q7 -27 8 -30v0v0zM358 236q-11 22 -27 22v0v0q-15 -1 -17 -3v-10t7 -35q8 -23 20 -22q12 0 13 2v0
q1 0 6 10q6 11 -2 36v0zM442 221v-8v0v0q0 -8 8 -23q9 -14 14 -12q6 2 6 3v0q1 0 3 7q3 7 -4 19q-9 11 -18 13q-8 1 -9 1v0v0z" />
</svg>
