<?xml version="1.0" standalone="no"?>
<!DOCTYPE svg PUBLIC "-//W3C//DTD SVG 1.1//EN" "http://www.w3.org/Graphics/SVG/1.1/DTD/svg11.dtd" >
<svg xmlns="http://www.w3.org/2000/svg" xmlns:xlink="http://www.w3.org/1999/xlink" version="1.1" viewBox="-10 -40 460 512">
   <path fill="currentColor"
d="M179 39q0 -18 3 -26v0v0q4 -8 11 -13q-54 7 -104 24q-50 18 -73 42q-8 12 -9 38q1 40 18 96t45 111t60 92t61 38q28 -1 69 -40q40 -38 78 -99q-10 3 -19 2v0q-29 -3 -62 -54q-32 -50 -55 -112q-22 -62 -23 -99v0zM302 -7q-23 -1 -33 7v0v0q-9 7 -9 29q0 35 16 81
q15 46 38 81t48 37q13 -1 32 -29q18 -28 32 -70q14 -41 14 -84q-2 -30 -42 -41q-41 -12 -96 -11v0z" />
</svg>
