<?xml version="1.0" standalone="no"?>
<!DOCTYPE svg PUBLIC "-//W3C//DTD SVG 1.1//EN" "http://www.w3.org/Graphics/SVG/1.1/DTD/svg11.dtd" >
<svg xmlns="http://www.w3.org/2000/svg" xmlns:xlink="http://www.w3.org/1999/xlink" version="1.1" viewBox="-10 -40 650 512">
   <path fill="currentColor"
d="M14 286q3 -6 10 -2q4 2 9 5l22 12q61 30 127 46q32 7 64 12q47 6 95 5q26 -1 52 -4q84 -10 163 -43q4 -2 9 -1q11 5 4 14q-4 4 -9 7q-47 31 -100 48q-37 12 -75 18q-27 4 -53 5h-3h-21v0h-2q-6 -1 -11 -1v0q-26 -1 -51 -5q-41 -7 -80 -21q-81 -29 -146 -87q-1 -2 -3 -4
q0 -1 -1 -2v-2zM172 26l-4 1l4 -1l-4 1q-21 2 -38 15q-3 1 -5 3l-2 2q-1 0 -1 -1v-1q0 -4 -1 -7q-1 -7 -8 -7h-11v0q-9 -1 -8 8v210v0v1v2q0 4 5 5h21q4 -1 5 -5v-2v-1v-73v0l2 2q27 22 61 15q30 -6 44 -34q10 -21 10 -45q2 -25 -8 -49q-12 -30 -44 -37q-3 -1 -6 -1
q-2 -1 -4 -1h-8v0v0zM125 68q-1 -2 1 -3q21 -15 46 -13q23 0 33 25q6 17 5 33q1 16 -4 31q-11 31 -42 29q-21 -2 -38 -14q-1 -2 -1 -4v-28v-14v-14v-28v0zM330 26h-1v0v0q-1 0 -2 1q-14 0 -28 4q-8 2 -14 4q-2 1 -4 1q-6 2 -6 8v5v5q0 7 7 5q3 -1 5 -1q9 -3 19 -5
q18 -4 37 -1q10 1 17 8q5 8 5 17v16v9v1h-1v0q-16 -4 -32 -5q-17 -1 -34 4q-19 6 -29 25q-7 15 -4 30q3 22 22 32q18 9 37 5q23 -3 41 -18q0 -1 1 -1q1 1 1 3q0 4 1 8q1 5 5 5h17q4 0 5 -5v-2v-106v0q0 -7 -1 -13q-2 -20 -19 -31q-10 -5 -22 -7h-5q-3 -1 -6 -1h-12v0z
M365 154q0 2 -1 3q-17 12 -38 15q-8 1 -16 -2q-10 -4 -13 -13q-3 -10 0 -20q4 -12 17 -15q12 -4 24 -3l16 2q5 1 9 2q3 0 2 2v10v5v5v9v0zM625 283q-2 -7 -9 -8q-10 -3 -21 -4q-20 -2 -39 2q-22 4 -40 16q-2 1 -4 3q-1 2 0 4t3 2h2l12 -2q6 0 12 -1q17 -2 34 -1q7 1 14 3
q8 2 8 10q0 12 -3 24q-7 22 -16 43v2q-1 1 -1 3q-1 5 4 4q3 -1 5 -3q6 -6 12 -13q19 -25 25 -56q1 -3 1 -7q1 -2 1 -3v-18v0zM493 160q-19 -54 -39 -107l-4 -12q-1 -3 -2 -5q-2 -5 -6 -5h-23q-4 0 -3 5q0 3 2 6q29 72 59 145q2 6 0 12q-2 5 -5 10l-4 12q-5 10 -16 14
q-7 1 -15 1q-2 -1 -4 -1h-4q-5 -1 -5 4v10q0 8 8 9q8 2 17 2q25 1 39 -21q5 -9 9 -19q36 -89 71 -179q1 -3 1 -6q1 -4 -3 -4h-14h-6q-6 0 -8 5q0 1 -1 2q0 1 -1 2l-34 100v0q-1 4 -3 7q-2 8 -5 15v0q-1 -1 -1 -2v0z" />
</svg>
