<?xml version="1.0" standalone="no"?>
<!DOCTYPE svg PUBLIC "-//W3C//DTD SVG 1.1//EN" "http://www.w3.org/Graphics/SVG/1.1/DTD/svg11.dtd" >
<svg xmlns="http://www.w3.org/2000/svg" xmlns:xlink="http://www.w3.org/1999/xlink" version="1.1" viewBox="-10 -40 531 512">
   <path fill="currentColor"
d="M0 217q1 71 35 129v0v0q34 57 91 91v0v0q58 34 129 35q72 -1 129 -35q58 -34 92 -91q34 -58 35 -129q-1 -71 -35 -128t-92 -91q-57 -34 -129 -35q-71 1 -129 35q-57 34 -91 91t-35 128v0zM192 111v213v-213v213h-43v0v-213v0h43v0zM234 111h128h-128h128v43v0h-128v0v-43
v0zM362 196v43v-43v43h-128v0v-43v0h128v0zM234 281h128h-128h128v43v0h-128v0v-43v0z" />
</svg>
