<?xml version="1.0" standalone="no"?>
<!DOCTYPE svg PUBLIC "-//W3C//DTD SVG 1.1//EN" "http://www.w3.org/Graphics/SVG/1.1/DTD/svg11.dtd" >
<svg xmlns="http://www.w3.org/2000/svg" xmlns:xlink="http://www.w3.org/1999/xlink" version="1.1" viewBox="-10 -40 516 512">
   <path fill="currentColor"
d="M248 -31q70 1 126 33v0v0q56 33 89 88v0v0q32 56 33 127q-1 74 -36 130q-34 55 -90 86t-122 32q-68 -1 -124 -34t-90 -89q-33 -56 -34 -125q1 -67 32 -123q32 -56 88 -90t128 -35v0zM56 150q-11 31 -11 67q2 85 60 143q57 57 143 59q61 -1 100 -25q39 -25 58 -49
q20 -25 21 -30v0l-93 -41v0q-7 27 -27 40q-20 14 -42 15v38v0h-29v0v-38v0q-41 0 -75 -30l34 -34v0q27 22 55 22q29 1 32 -24q0 -10 -7 -16q-2 0 -4 -1q-3 -1 -17 -7q-13 -6 -58 -26q-44 -20 -140 -63v0zM248 13q-30 -2 -77 15v0v0q-48 17 -93 78l95 43v0q8 -23 27 -34
q18 -10 37 -10v-39v0h28v0v39v0q34 1 62 23l-32 33v0q-34 -21 -56 -13t-14 24q6 3 11 5q20 9 30 13q9 4 20 9q10 5 32 14l127 57v0q6 -26 6 -53q0 -86 -59 -144q-59 -60 -144 -60v0z" />
</svg>
