<?xml version="1.0" standalone="no"?>
<!DOCTYPE svg PUBLIC "-//W3C//DTD SVG 1.1//EN" "http://www.w3.org/Graphics/SVG/1.1/DTD/svg11.dtd" >
<svg xmlns="http://www.w3.org/2000/svg" xmlns:xlink="http://www.w3.org/1999/xlink" version="1.1" viewBox="-10 -40 516 512">
   <path fill="currentColor"
d="M248 -31q-73 1 -129 35v0v0q-55 34 -87 90v0v0q-31 56 -32 123q1 69 34 125t89 89t125 34q66 -1 122 -32t91 -86q34 -56 35 -130q-1 -70 -33 -126q-33 -56 -88 -89q-56 -32 -127 -33v0zM248 420q-86 -3 -143 -60v0v0q-58 -58 -60 -143q0 -35 11 -66l65 29v0h-4v0v30v0h23
v0v4v15h-23v0v30v0h27v0q10 50 45 75q35 26 79 26q42 -2 65 -16l-10 -46v0q-7 4 -20 7q-13 4 -27 4q-22 0 -41 -11q-19 -10 -27 -39h91v0l128 56v0v1q-3 7 -23 32q-20 24 -59 47q-38 23 -97 25v0zM232 229h-1h1h-1h1v0v0v0zM309 210h4h-4h4v-30v0h-71v0l-28 -12v0
q3 -9 8 -15q21 -23 52 -22q28 1 46 10l11 -47v0q-23 -12 -62 -13q-60 1 -96 42q-8 10 -14 21l-81 -37v0q32 -46 68 -66q35 -20 64 -24q28 -4 37 -3h1q87 2 144 59t59 144q0 28 -6 53l-136 -60v0z" />
</svg>
