<?xml version="1.0" standalone="no"?>
<!DOCTYPE svg PUBLIC "-//W3C//DTD SVG 1.1//EN" "http://www.w3.org/Graphics/SVG/1.1/DTD/svg11.dtd" >
<svg xmlns="http://www.w3.org/2000/svg" xmlns:xlink="http://www.w3.org/1999/xlink" version="1.1" viewBox="-10 -40 468 512">
   <path fill="currentColor"
d="M0 -7v448v-448v448h448v0v-448v0h-448v0zM262 327q-6 3 -21 2v0v0q-15 -1 -29 -16q-15 -17 -42 -63q-12 0 -21 -1v46v0q-1 15 4 19q4 4 15 5h6v8v0h-15h-20h-27h-7v-8v0q3 0 5 -1q9 0 13 -4t4 -19v-109v0q0 -15 -4 -18q-4 -4 -13 -5q-2 0 -5 -1v-8v0q26 1 50 0
q12 -1 21 -1q24 0 40 12q15 11 16 34q0 16 -11 30q-11 13 -28 18q22 37 42 58q12 14 27 15v7v0zM285 192q-17 0 -25 -10v0v0q-7 -9 -7 -22v-32v0q0 -10 7 -20q8 -10 27 -10q18 1 25 9q6 7 5 8v1l-10 7v0q0 -1 -5 -7q-5 -5 -15 -6q-7 0 -13 5q-6 6 -7 15v27v0q1 21 18 23
q21 -1 22 -27h-18v0v-10v0h30v0v6q2 15 -4 29q-5 14 -30 14v0zM169 237q-13 0 -20 -1v-69v0q10 -1 22 -1v0q36 1 37 35q-1 34 -39 36v0z" />
</svg>
