<?xml version="1.0" standalone="no"?>
<!DOCTYPE svg PUBLIC "-//W3C//DTD SVG 1.1//EN" "http://www.w3.org/Graphics/SVG/1.1/DTD/svg11.dtd" >
<svg xmlns="http://www.w3.org/2000/svg" xmlns:xlink="http://www.w3.org/1999/xlink" version="1.1" viewBox="-10 -40 469 512">
   <path fill="currentColor"
d="M399 335q45 -62 47 -115v0v0q1 -53 -13 -85v0v0q-15 -33 -17 -33q20 43 9 82t-30 63t-21 25q38 -64 35 -115q-3 -50 -26 -85q-22 -35 -45 -53q-22 -18 -24 -18q35 27 39 60t-8 62q-12 30 -26 49t-15 19q30 60 25 103t-27 72q-23 28 -44 42q-21 13 -23 13v0q0 1 0 -17
q-1 -18 -2 -68l19 19q14 15 15 17l-24 -48v0l63 -9v0l-63 -9v0l20 -55v0l-31 46v0q-1 -47 -3 -119q-2 -71 -3 -127q-2 -57 -2 -61v-3v0v1v0v-1v0v3v0q0 3 -1 60q-2 57 -4 128t-3 119l-31 -46v0l20 55v0l-63 9v0l63 9v0l-24 48v0l34 -36v0q-1 50 -1 68q-1 18 -1 17
q-1 0 -23 -13q-21 -14 -43 -42q-23 -29 -28 -72t26 -103q-2 0 -16 -19t-26 -49t-8 -62q4 -33 39 -61q-1 1 -24 19q-22 18 -45 53t-26 85q-3 51 35 115q-2 -1 -21 -25q-19 -25 -30 -63q-11 -39 10 -82q-3 0 -17 33q-15 32 -13 85q1 53 47 115q-1 1 -16 -16t-34 -62q0 1 6 29
q7 27 28 63q22 36 67 64q45 27 121 30h4v0q77 -3 122 -30q45 -28 66 -64q22 -36 29 -63q6 -28 5 -29q-18 45 -33 62l-16 16v0v0z" />
</svg>
