<?xml version="1.0" standalone="no"?>
<!DOCTYPE svg PUBLIC "-//W3C//DTD SVG 1.1//EN" "http://www.w3.org/Graphics/SVG/1.1/DTD/svg11.dtd" >
<svg xmlns="http://www.w3.org/2000/svg" xmlns:xlink="http://www.w3.org/1999/xlink" version="1.1" viewBox="-10 -40 522 512">
   <path fill="currentColor"
d="M268 433l10 15l-10 -15l10 15l6 -12v0l5 7v0v30v0q12 -6 16 -28q5 -22 7 -47q1 -12 2 -22q1 -6 2 -14q0 -26 14 -62t66 -73q-15 -35 -3 -80q21 1 39 12q17 10 24 42l-30 8v0q18 34 13 72l-27 -7v0l-6 34v0l-19 -7v0l-8 33v0l-20 -7v0l27 21v0l8 -28v0l25 5v0l7 -35v0
l26 14v0q1 -6 1 -14q2 -16 1 -35t-10 -35l26 5v0q3 -30 -7 -53q0 -2 -1 -4l22 10v0q-1 -20 -19 -38t-42 -21q-17 -1 -36 -16q-18 -15 -18 -36q1 -15 12 -29q12 -14 31 -20q-30 28 -20 48q11 20 25 25q5 -10 8 -46q4 -37 -8 -84q-32 17 -60 51q-29 35 -33 97l-58 39v0l-4 93
v0l108 -60v0l7 7v0l-18 4v0l-44 38v0l-16 -5v0l-28 49v0l-3 120v0l21 16v0l-33 16v0l-32 -16v0l21 -16v0l-4 -120v0l-28 -49v0l-16 5v0l-44 -38v0l-17 -4v0l7 -7v0l107 60v0l-3 -93v0l-58 -39v0q-5 -62 -33 -97q-29 -35 -61 -51q-12 47 -8 84q4 36 8 46q15 -5 25 -25
q11 -20 -19 -48q19 6 30 20t13 29q0 21 -19 36t-35 16q-25 3 -43 21t-19 38l22 -10v0q0 2 -1 4q-10 23 -6 53l26 -5v0q-9 16 -10 35t0 35q1 8 1 14l26 -14v0l7 35v0l25 -5v0l9 28v0l26 -21v0l-19 7v0l-9 -33v0l-18 7v0l-6 -34v0l-28 7v0q-4 -38 13 -72l-30 -8v0
q8 -32 25 -42q17 -11 38 -12q13 45 -2 80q52 37 66 73q13 36 14 62q0 8 1 14q2 10 3 22q1 25 6 47t17 28v-30v0l5 -7v0l5 12v0l11 -15v0l11 21v0l12 -21v0zM347 338l-16 -11l16 11l-16 -11q11 -7 19 -12v4q0 8 -3 19v0zM375 288q0 17 -2 32q-12 -3 -21 -7q12 -12 23 -24v-1
v0zM400 294q-1 -20 -6 -34q-8 14 -18 27zM403 213q28 20 30 56q-1 -1 -2 -1q-18 -7 -35 -10q7 -18 7 -45v0zM401 167q1 3 1 7v0v0q1 18 1 35q19 -8 32 -11q6 -1 12 -3q-17 -26 -46 -28v0zM166 338l16 -11l-16 11l16 -11q-12 -7 -20 -12v4q0 8 4 19v0zM138 288q0 17 1 32
q13 -3 21 -7l-22 -24v-1v0zM113 294q0 -20 5 -34q8 14 19 27zM109 213q-28 20 -30 56q2 -1 3 -1q17 -7 34 -10q-7 -18 -7 -45v0zM111 167v8v0v0q-2 17 -2 34q-19 -8 -32 -11q-5 -1 -12 -3q17 -26 46 -28v0z" />
</svg>
