<?xml version="1.0" standalone="no"?>
<!DOCTYPE svg PUBLIC "-//W3C//DTD SVG 1.1//EN" "http://www.w3.org/Graphics/SVG/1.1/DTD/svg11.dtd" >
<svg xmlns="http://www.w3.org/2000/svg" xmlns:xlink="http://www.w3.org/1999/xlink" version="1.1" viewBox="-10 -40 458 512">
   <path fill="currentColor"
d="M290 236q-1 20 -11 36v0v0q-11 17 -30 24q-19 8 -38 4t-33 -18t-18 -33t4 -38q7 -19 24 -30q16 -10 36 -11q27 1 46 20t20 46v0zM429 231v0v0v0q-1 -45 -20 -85q-20 -39 -54 -68l-46 26v0q34 22 53 57q19 34 19 75q-1 67 -46 111q-44 44 -111 46q-67 -2 -111 -46
t-46 -111q1 -63 42 -106q40 -44 101 -51v40v0l109 -63v0l-109 -63v0v38v0q-82 8 -136 65q-53 57 -55 140q2 86 58 143q57 58 142 62v0v0h210v0v-210v0z" />
</svg>
