<?xml version="1.0" standalone="no"?>
<!DOCTYPE svg PUBLIC "-//W3C//DTD SVG 1.1//EN" "http://www.w3.org/Graphics/SVG/1.1/DTD/svg11.dtd" >
<svg xmlns="http://www.w3.org/2000/svg" xmlns:xlink="http://www.w3.org/1999/xlink" version="1.1" viewBox="-10 -40 660 512">
   <path fill="currentColor"
d="M393 93v2v0v0q1 10 -3 22v0v0q-4 11 -25 20q-15 7 -16 9v0q0 -23 4 -33q4 -11 13 -16q8 -3 17 -4h10v0zM278 128l-35 133l35 -133l-35 133l-28 -109v0q-9 -48 -49 -48q-38 0 -48 48l-28 109v0l-35 -133v0q-5 -20 -20 -29q-16 -8 -35 -6l66 248v0h12t20 -4q10 -5 17 -13
q6 -9 13 -34q5 -22 14 -59q6 -24 11 -43t6 -22q8 -22 15 0q1 3 6 21q4 19 10 42q10 39 15 61q6 25 13 34q6 8 17 13q9 4 20 4h12l66 -248v0q-19 -2 -35 7q-16 8 -20 28v0zM393 133q1 2 -13 12l-12 6q-3 1 -6 3q-10 4 -12 10t-1 18v7v152v0h9t18 -4q10 -4 14 -13t3 -31v-151
v0v0v0v-9v0zM557 218l83 -124l-83 124l83 -124q-2 -1 -20 -1t-32 11q-9 7 -18 19q-9 13 -24 35q-6 8 -13 18v0q0 2 -4 4q-4 3 -9 -4q-7 -10 -12 -18q-15 -22 -25 -35q-9 -12 -17 -19q-15 -11 -33 -11t-19 1v0l83 124v0l-83 123v0q2 1 20 0q19 0 34 -11q6 -6 14 -16
q8 -11 24 -35q6 -9 14 -20q5 -7 9 -4q4 2 4 4v0q7 10 13 18q15 22 23 33q9 12 17 20q15 11 34 11q18 1 20 0l-83 -123v0z" />
</svg>
