<?xml version="1.0" standalone="no"?>
<!DOCTYPE svg PUBLIC "-//W3C//DTD SVG 1.1//EN" "http://www.w3.org/Graphics/SVG/1.1/DTD/svg11.dtd" >
<svg xmlns="http://www.w3.org/2000/svg" xmlns:xlink="http://www.w3.org/1999/xlink" version="1.1" viewBox="-10 -40 660 512">
   <path fill="currentColor"
d="M171 109v218v-218v218h23v0l8 26v0l42 -26v0h49v0v-218v0h-122v0zM268 303h-28h28h-28l-28 18v0l-5 -18v0h-12v0v-170v0h73v0v170v0zM150 209h-52h52h-52q2 -41 2 -74h51v0v-11q-1 -10 -9 -11h-88v0q5 -20 13 -41q-1 0 -13 3t-19 19l-3 9q-8 25 -28 69h1q6 0 17 -4
q10 -4 19 -18q1 -3 1 -5q2 -3 4 -10h29v0q0 11 -1 38q0 28 -1 36h-52v0q-9 1 -12 11q-4 11 -4 12v0h66v0q-7 75 -71 125q16 4 29 1q14 -4 22 -11q1 1 13 -16t23 -53l54 65v0q0 -1 2 -15t-4 -25v-1q-7 -7 -18 -20t-18 -21l-15 12v0q6 -21 8 -41h61v0q1 -1 -1 -12
q-1 -10 -6 -11v0v0zM562 207q16 -20 30 -39v0v0q14 -18 15 -19q-1 -2 -11 -7q-9 -4 -17 2q-6 9 -20 28q-15 18 -16 21l19 14v0zM412 148q-8 -5 -17 -2v0v0q-8 3 -9 4v0v0v0q1 1 10 14l20 28q9 13 11 16l19 -14v0q-1 -2 -14 -20q-12 -18 -20 -26v0v0zM640 219q-11 0 -38 1v0
v0h-55v0v0h-36v0v0h-2v-101v0q7 0 23 -1q61 -4 88 -5q1 -1 4 -14t-5 -19q-3 -1 -13 2q-9 2 -10 2q-3 1 -46 5q-42 4 -96 8q-55 4 -91 5q3 15 16 20q13 3 33 2q7 -1 16 -1q38 -3 57 -3v100v0h-134v0q0 2 5 12q4 9 21 11h108v0v71v0q-2 22 -25 21q-13 0 -26 -1q-7 0 -15 -1v1
q2 9 19 21q13 7 26 7q45 -2 45 -46v-73v0h122v0q7 -1 8 -12q1 -10 1 -12v0v0z" />
</svg>
