<?xml version="1.0" standalone="no"?>
<!DOCTYPE svg PUBLIC "-//W3C//DTD SVG 1.1//EN" "http://www.w3.org/Graphics/SVG/1.1/DTD/svg11.dtd" >
<svg xmlns="http://www.w3.org/2000/svg" xmlns:xlink="http://www.w3.org/1999/xlink" version="1.1" viewBox="-10 -40 660 512">
   <path fill="currentColor"
d="M219 307q-2 1 -5 6v0v0q-2 6 5 17q4 5 10 8t12 -1q10 -8 0 -23q-9 -14 -22 -7v0zM556 383v0v0v0q-1 2 1 0q3 -6 5 -20q1 -30 -27 -51q-28 -22 -75 -27q-41 -5 -90 8q-49 14 -98 52l-1 2v0q5 6 4 21v0v0q49 -43 97 -60q47 -17 88 -14q44 4 72 23q27 19 28 45q-1 12 -3 18
q-1 1 -1 3v0zM392 201q2 11 9 11q9 0 11 -7q1 -4 1 -16q1 -12 1 -14q-1 1 -6 4q-6 4 -9 7q-6 5 -7 15v0zM342 50q-102 3 -176 36v0v0q-75 34 -117 70v0v0q-42 37 -48 46q-2 1 1 2q48 12 105 61q58 50 91 141h1v0q42 -54 103 -90q61 -37 134 -38q61 1 95 26q34 24 35 54
q1 28 -22 47v0q-1 1 0 0q25 -17 28 -48q-1 -17 -6 -27q-5 -11 -6 -11v0q11 13 11 16q5 -30 15 -46t12 -16q-6 -16 -7 -18v0q6 7 10 19t4 22q1 17 -12 32v1v0q14 -7 16 -38q-2 -25 -4 -26q8 -8 16 -12q1 6 2 15q0 2 1 0q1 -10 0 -16v0l9 -5q-8 -55 -49 -100q-41 -44 -104 -70
t-138 -27v0zM243 340q-9 6 -17 4v0v0q-9 -2 -14 -8q-11 -17 5 -33q11 -7 19 -3q8 3 12 9v0q1 1 4 10q2 10 -9 21v0zM245 204l10 -18l-10 18l10 -18l11 71v0l-12 6v0l-25 -29v0l14 -27v0l4 5v0l-2 -8v0zM264 321h-1h1h-1q3 -3 -4 -12q-5 -6 -13 -20q-2 -3 -5 -2v-1v0
q11 -8 26 -16v1v0l2 2l2 2l-1 1v0v0q-1 -1 -5 0t-12 8v1v0q2 3 4 7q1 2 1 3h1v0q2 -2 4 -3q5 -3 7 -5h1v0q0 1 1 5v1v0h-1q-3 -1 -10 5v0v0q6 13 9 15q2 2 3 1v1v0q-1 0 -2 1q-4 3 -7 5v0zM319 289q-2 0 -3 1v0v0q-3 2 -7 4v-1v0q1 -1 -1 -5q-1 -5 -10 -24q0 -2 -1 -3v0v0
q-1 0 -5 2t-5 5h-1v0l-1 -6v0v0v0q6 -4 14 -7q8 -4 13 -5l1 -1h1v0l3 5v0v1v0q-4 -2 -10 1q-1 1 -3 1v1v0q9 22 11 27q3 4 4 3v0v1v0zM364 272v0v0v0q-5 1 -10 3v0v0v-5v0q-2 -7 -3 -13l-1 -1v0l-12 4l-1 1v0q1 1 1 3q2 5 3 10q2 4 3 4v0v0q-4 2 -8 3q-1 1 -2 1v0v0
q1 -2 0 -5q0 -2 -2 -6q-2 -6 -4 -13q-2 -6 -3 -8q-1 -3 -3 -4v0v0q1 0 2 -1q4 -1 9 -2v0v0v5v0l2 4q1 3 1 5v0v0q5 -1 9 -3q3 0 4 -1h1v0l-3 -9v0q-1 -3 -3 -4v-1v0h3l8 -2v0v0q-1 2 0 5q1 4 3 11l3 15q1 4 3 4v0v0zM396 265v1v-1v1q-9 1 -23 4v0v0l1 -5v0q-1 -5 -3 -12
l-2 -14q0 -2 -3 -4h1v0q16 -2 25 -3v1v0q1 2 1 5h1h-1v0q1 -3 -16 0v0v0q0 3 1 10h1v0q5 -1 6 -1l4 -1h1v0v1q-1 1 -1 4v0v0h-2q-1 -1 -8 0v0v0q0 3 1 9q1 2 1 4v0v0q2 0 8 -1t8 -4h1v0q-1 4 -2 6v0zM407 221q-7 3 -11 3v0q-1 0 -7 -1t-11 -9q-5 -9 -2 -18q2 -9 8 -14
q7 -6 15 -9q9 -3 13 -8q5 -9 -5 -13q-11 -4 -24 7l-3 -3v0l5 -16v0h1q19 -2 32 1q13 2 17 15q1 6 0 12v0q0 4 -1 13q-1 7 -1 10q-1 4 -1 12v9q0 4 2 6q4 2 5 1v5v0q-10 -1 -13 -1h-8q-1 -1 -1 -2q-2 -2 -3 -6q-1 2 -7 6v0zM444 242q-5 -8 -13 -6v0v0q-7 2 -9 12q-1 12 7 15
q8 2 14 -5v0v0q0 1 -1 3l-1 3v1v0q-9 5 -18 -1q-9 -5 -8 -18q2 -8 10 -12t19 2v1v0v2v3v0zM450 154v-6v6v-6q1 0 11 2q9 2 16 5l-1 18v0q0 -1 6 -5q5 -5 9 -6q5 -1 10 3l5 4l-11 11v0q-9 -4 -14 -2q-6 2 -7 3v0q-1 10 -2 17q-3 17 -2 22q1 6 9 7l-1 5v0q-12 -3 -18 -4
t-19 -3l1 -5v0q9 -2 8 -7v0q0 -3 2 -27q2 -23 3 -28q-3 -4 -5 -4v0zM461 269q-14 -5 -11 -21q7 -14 19 -10q14 6 10 19q-4 14 -18 12v0zM503 278q-3 0 -7 -2v0v0h-2v-1v0l2 -2v0v-3q0 -5 0 -4l-7 -3l-2 4l-2 2l-1 3v0v1v0q0 -1 -2 -1q-2 -1 -4 -1v0v0l3 -2v0q7 -9 14 -20v-2
v0v-1v0l4 2t4 1v0v4t-1 22q0 2 1 3v0zM498 189q9 -14 20 -14v0v0q11 0 14 10l8 -26v0q1 -9 -4 -11h-1l2 -4v0q9 8 14 12l9 9q-9 23 -14 38q-10 27 -13 36q-2 9 2 10l-2 4v0l-12 -6q-2 -1 -6 -2l2 -7v0v0q-3 3 -9 3q-15 -2 -17 -19q-3 -16 7 -33v0zM527 268q-2 -9 -7 -5
q-1 2 1 6q1 1 1 2q3 4 1 10q-2 4 -7 4q-5 -1 -8 -5v0l2 -5h1v0q0 4 3 6t5 -1q1 -4 -2 -9q-4 -4 -2 -9q7 -8 15 2v1v0l-3 3v0zM549 281q-1 0 -1 -1v0v0q-1 -1 -4 -3v0v0q-4 7 -9 16q-1 3 -1 4v0v0l-6 -4v0l1 -1v0l2 -1v0q5 -9 9 -17v0v0l-1 -1q-1 -1 -5 -1v0v0l3 -4v0v0v0
q7 5 13 9v0v0l-1 4v0zM576 237l-3 -3l3 3l-3 -3v-1q2 -3 2 -6q0 -8 -5 -9q-6 -2 -6 4q0 3 3 10q4 10 4 17q0 16 -13 17q-7 0 -14 -5q-6 -5 -7 -6v0l5 -14v0l3 2v0q0 13 7 15q8 2 7 -10q-1 -1 -2 -3q-4 -8 -6 -20q-3 -11 10 -15q10 0 16 7q6 8 7 10v0l-8 10v0zM611 227
q-5 -17 -25 -47v0v0q-20 -30 -61 -55v0v0q-40 -25 -105 -28q-40 0 -72 10q-33 11 -61 28l85 -9v0l-91 21v0l25 19v0l-4 -16v0q7 -2 26 -5t41 -4l-22 80v0q19 -1 19 -22l5 -2v0l1 27v0q-33 5 -50 10l13 -43v0l-61 -37v0l2 8v0l10 5v0q6 16 12 36q7 20 9 23q0 6 12 4l1 5v0
q-12 4 -20 7t-19 8l-3 -5v0q1 0 2 -1q7 -2 4 -12q-15 -38 -19 -49q-2 -7 -3 -9l-1 -1l2 -5v0l34 68v0q-1 -2 -1 -4q-1 -2 -5 -13q-5 -11 -27 -62l-42 88v0l5 -13v0l-36 -43v0l28 94v0l-12 8v0q-41 -37 -64 -58q-33 -30 -40 -36t-10 -4q-4 0 -9 2l-4 3v0l-5 -6v0
q21 -16 30 -23q10 -7 28 -20l4 7v0q-2 2 -8 7q-4 5 2 13t31 33q12 12 29 30l-19 -59v0l40 -10v0l26 31v0l4 -13v0l-5 -24v0l13 -4v0l1 3v0l4 -10v0l-95 29v0l12 -5v0l-14 -42v0l17 -9v0l30 36v0l29 -13v0q0 -2 -1 -4q-1 -9 -4 -16l17 14v0l5 -2v0l-59 -43v0l23 12v0
q17 -6 24 -8l8 -2l3 11v0q-8 8 -4 13q3 4 9 6h1l-13 -61v0l12 29v0l7 -2l3 8v0q-1 1 -7 2l9 21v0l34 -65v0l-21 61v0q32 -19 63 -28q32 -9 69 -8q54 0 113 33q60 33 87 107q1 3 -1 0v0zM203 113q1 0 5 -1l9 8v0v0q-1 -1 -11 2l-3 -9v0zM347 152q-2 -2 -14 0v0v0
q-13 3 -19 21l22 17v0l11 -38v0zM318 28q-44 1 -76 6v0v0q-31 6 -39 8v1v0q12 2 22 12h1v0v0q6 -2 35 -7q30 -6 75 -7q91 2 159 35q67 33 105 84q38 50 38 105v10v0q0 3 1 0t1 -19q0 -44 -33 -97q-34 -52 -105 -91q-71 -38 -184 -40v0zM529 198q3 -11 -7 -13q-7 0 -12 12
q-4 13 -5 21q-1 5 0 10t6 5q4 1 8 -5q4 -5 10 -30v0zM468 241q-2 -1 -6 0v0v0q-4 2 -7 10q-2 12 6 15q7 4 12 -11q2 -14 -5 -14v0zM491 262h3v0v0q1 1 3 1v-10q0 -1 1 -2q-4 5 -7 10v1v0z" />
</svg>
