<?xml version="1.0" standalone="no"?>
<!DOCTYPE svg PUBLIC "-//W3C//DTD SVG 1.1//EN" "http://www.w3.org/Graphics/SVG/1.1/DTD/svg11.dtd" >
<svg xmlns="http://www.w3.org/2000/svg" xmlns:xlink="http://www.w3.org/1999/xlink" version="1.1" viewBox="-10 -40 532 512">
   <path fill="currentColor"
d="M152 197q-14 -12 -25 3l-125 251v0q-4 8 0 15q4 6 13 7h175v0q9 0 13 -8q28 -62 14 -137q-15 -75 -65 -131v0zM244 -31q-52 85 -53 161v0v0q-2 76 26 145v0v0q28 70 64 135v0v0q15 28 28 55q5 8 14 8h174v0q9 0 13 -7t0 -15q-1 -2 -24 -49q-24 -47 -59 -117
q-34 -70 -70 -141q-35 -71 -60 -120q-24 -50 -27 -55q-4 -8 -12 -8t-14 8v0z" />
</svg>
