<?xml version="1.0" standalone="no"?>
<!DOCTYPE svg PUBLIC "-//W3C//DTD SVG 1.1//EN" "http://www.w3.org/Graphics/SVG/1.1/DTD/svg11.dtd" >
<svg xmlns="http://www.w3.org/2000/svg" xmlns:xlink="http://www.w3.org/1999/xlink" version="1.1" viewBox="-10 -40 660 512">
   <path fill="currentColor"
d="M238 262h59h-59h59l22 -30v0h-59v0l-22 30v0zM0 244v6v-6v6h82v0l5 -6v0h-87v0zM173 232q-6 0 -6 -2v0v0q0 -2 1 -3v0v0v0q2 -2 3 -4q4 -6 8 -11q5 -5 -3 -5h-51v0l-41 55v0h100v0q25 -1 39 -12t18 -18h-68v0zM490 225l40 -53l-40 53l40 -53h-62v0l-40 53v0h62v0zM95 232
h-95h95h-95v6v0h91v0l4 -6v0zM206 205q-2 3 -5 8v0v0q-3 4 -5 7v0q-5 4 5 5h45v0l5 -6q4 -6 9 -12q6 -10 -1 -22q-6 -12 -28 -13h-118v0l-21 28v0h112v0q7 0 2 5v0zM0 262h73h-73h73l5 -6v0h-78v0v6v0zM323 262h59h-59h59l22 -30v0h-59v0q-1 2 -11 15q-9 13 -11 15v0v0z
M545 262h95h-95h95v-6v0h-90v0l-5 6v0zM567 232l-4 6l4 -6l-4 6h77v0v-6v0h-73v0zM554 250h86h-86h86v-6v0h-81v0l-5 6v0zM390 172l-23 30l23 -30l-23 30h-26v0l22 -30v0h-58v0l-40 53v0h144v0l39 -53v0h-58v0zM423 232q-2 2 -6 9q-6 8 -1 14q6 7 24 7h94v0l23 -30v0h-134v0
z" />
</svg>
