<?xml version="1.0" standalone="no"?>
<!DOCTYPE svg PUBLIC "-//W3C//DTD SVG 1.1//EN" "http://www.w3.org/Graphics/SVG/1.1/DTD/svg11.dtd" >
<svg xmlns="http://www.w3.org/2000/svg" xmlns:xlink="http://www.w3.org/1999/xlink" version="1.1" viewBox="-10 -40 522 512">
   <path fill="currentColor"
d="M252 316q-2 1 -19 24v0v0q-17 24 -37 51v0v0q-14 18 -23 31v0v0q-9 13 -10 13q-2 -1 -23 -15q-21 -15 -41 -30q-21 -14 -23 -16q0 -1 12 -17q11 -16 26 -39q18 -26 33 -48q15 -21 16 -23q-3 -2 -36 -13l-66 -22l-36 -12q0 -2 8 -27q7 -24 15 -49q8 -24 9 -26q2 0 32 10
q31 10 64 21q21 6 35 11q13 4 14 5q1 0 1 -2v-18q1 -17 1 -41v-60q1 -28 1 -30q2 -1 27 -1h51h27q0 2 1 19q1 18 1 44q1 34 2 63t2 31q1 -1 16 -6q16 -5 38 -12q31 -11 57 -20q26 -8 28 -9l9 27q8 25 15 49q8 25 8 27q-1 0 -14 5q-13 4 -32 11l-63 21q-29 10 -32 12
q1 1 15 23q15 21 33 47l24 36q10 16 11 17q-2 1 -23 16q-20 16 -41 31t-22 16q-1 -1 -10 -13q-9 -13 -23 -32q-20 -28 -38 -54q-18 -25 -20 -26v0z" />
</svg>
