<?xml version="1.0" standalone="no"?>
<!DOCTYPE svg PUBLIC "-//W3C//DTD SVG 1.1//EN" "http://www.w3.org/Graphics/SVG/1.1/DTD/svg11.dtd" >
<svg xmlns="http://www.w3.org/2000/svg" xmlns:xlink="http://www.w3.org/1999/xlink" version="1.1" viewBox="-10 -40 516 512">
   <path fill="currentColor"
d="M490 203l-114 -114v0v0q-69 -69 -127 -128q-124 123 -184 183l-59 59q-12 14 0 28l57 57l31 31l27 27q15 15 44 43q28 29 84 84q104 -104 143 -144l40 -39q1 -1 -12 11q-8 9 -10 10q-2 2 15 -15l65 -65q12 -14 0 -28v0zM249 293l-76 -76l76 76l-76 -76l76 -76v0l76 76v0
l-76 76v0z" />
</svg>
