<?xml version="1.0" standalone="no"?>
<!DOCTYPE svg PUBLIC "-//W3C//DTD SVG 1.1//EN" "http://www.w3.org/Graphics/SVG/1.1/DTD/svg11.dtd" >
<svg xmlns="http://www.w3.org/2000/svg" xmlns:xlink="http://www.w3.org/1999/xlink" version="1.1" viewBox="-11 0 662 512">
   <path fill="currentColor"
d="M625 286q-20 -19 -49 -17q-32 -1 -39 -26q-8 -25 2 -73q16 -46 -8 -87q-25 -41 -80 -44q-31 2 -50 16q-18 15 -31 32q-11 14 -22 24q-12 10 -28 10q-15 0 -27 -10q-11 -10 -21 -23q-14 -18 -32 -33q-19 -14 -51 -16q-55 3 -79 44t-8 87q10 48 2 73q-7 25 -39 26
q-31 -2 -53 23q-11 10 -12 33t11 43q13 21 43 26q37 3 56 -25q19 -27 5 -63q-15 -39 9 -58q24 -20 62 -21q37 -1 63 16q26 18 13 55v0v0q-19 35 -1 65q19 30 59 31q41 -1 59 -31q19 -30 0 -65v0v0q-13 -37 13 -55q25 -17 63 -16t62 21q24 19 8 58q-7 16 -5 33q6 41 40 53
q35 11 65 -18q13 -13 15 -41q1 -28 -15 -47v0zM321 267h-1h1h-1q-32 -1 -48 -22q-15 -20 -15 -41q1 -26 19 -44q17 -18 44 -18h1v0q26 0 44 18t18 44q1 21 -15 41q-15 21 -47 22v0z" />
</svg>
