<?xml version="1.0" standalone="no"?>
<!DOCTYPE svg PUBLIC "-//W3C//DTD SVG 1.1//EN" "http://www.w3.org/Graphics/SVG/1.1/DTD/svg11.dtd" >
<svg xmlns="http://www.w3.org/2000/svg" xmlns:xlink="http://www.w3.org/1999/xlink" version="1.1" viewBox="-10 -40 523 512">
   <path fill="currentColor"
d="M28 123l-19 25l19 -25l-19 25h91v0l6 -131v0l-78 106v0zM396 7l-128 -14l128 14l-128 -14l135 147v0l-7 -133v0zM112 179l-11 -22l11 22l-11 -22h-91v0l225 262zM114 148h284h-284h284l-81 -88v0l-61 -66zM412 157l-134 262l134 -262l-134 262l224 -262v0h-90v0zM415 30
l-9 -13l9 13l-9 -13l1 18v0l6 113v0h90zM114 55l-5 85l5 -85l-5 85l136 -147v0l-129 14zM401 157h-290h290h-290l43 83v0l102 201v0l145 -284v0z" />
</svg>
