<?xml version="1.0" standalone="no"?>
<!DOCTYPE svg PUBLIC "-//W3C//DTD SVG 1.1//EN" "http://www.w3.org/Graphics/SVG/1.1/DTD/svg11.dtd" >
<svg xmlns="http://www.w3.org/2000/svg" xmlns:xlink="http://www.w3.org/1999/xlink" version="1.1" viewBox="-10 -40 586 512">
   <path fill="currentColor"
d="M469 36q-1 -43 -38 -66q-37 -20 -75 0q-37 23 -38 66q1 43 38 65q37 21 75 0q37 -22 38 -65v0zM154 202q-1 -43 -38 -66q-37 -20 -75 0q-37 23 -38 66q1 43 38 65q38 20 75 0q37 -22 38 -65v0zM57 307q29 72 93 115q65 43 142 42q-22 -29 -23 -65l-20 -4q-40 -9 -73 -34
t-52 -62q-32 15 -67 8v0zM452 397q-1 -43 -38 -66q-37 -20 -75 0q-37 23 -38 66q1 43 38 65q38 21 75 0q37 -22 38 -65v0zM444 313q28 23 37 58q51 -64 55 -145q3 -82 -42 -150q-14 33 -44 52q23 44 22 93q-2 49 -28 92v0zM101 96q19 4 35 15q26 -37 65 -58t84 -22l2 -18
q6 -25 22 -45q-73 -6 -138 28q-64 35 -100 98h8q11 0 22 2v0z" />
</svg>
