<?xml version="1.0" standalone="no"?>
<!DOCTYPE svg PUBLIC "-//W3C//DTD SVG 1.1//EN" "http://www.w3.org/Graphics/SVG/1.1/DTD/svg11.dtd" >
<svg xmlns="http://www.w3.org/2000/svg" xmlns:xlink="http://www.w3.org/1999/xlink" version="1.1" viewBox="-10 -40 399 512">
   <path fill="currentColor"
d="M103 264q-5 4 -18 4v0v0q-13 0 -14 -23v-104v0h-33v0v103v0q1 36 21 46q20 9 44 5q23 -5 33 -12v-142v0h-33v123zM4 36v221v-221v221q1 74 51 112q49 37 134 70q1 1 3 2l4 -2q84 -33 133 -71q49 -37 50 -111v-221v0q-59 -31 -128 -39t-134 3t-113 36v0zM362 257
q0 62 -41 95v0v0q-42 34 -129 70q-88 -36 -130 -70q-41 -33 -41 -95v-127v0q78 -68 168 -84q90 -15 173 -5v216zM153 149v213v-213v213h32v0v-69v0q21 7 45 -8q25 -15 27 -70q-1 -48 -22 -64q-20 -16 -45 -13q-24 3 -37 11v0zM185 267v-101v101v-101q8 -5 23 0q14 5 16 50
q-1 32 -10 43q-8 10 -17 10q-9 -1 -12 -2v0v0zM264 180q1 20 10 30v0v0q10 10 21 16v0v0q19 8 22 25q-1 17 -18 18q-17 0 -33 -13v30v0q29 16 54 7q26 -9 29 -41q0 -22 -10 -33q-11 -11 -23 -17q-19 -8 -20 -23q1 -15 17 -16q16 0 31 14v-29v0q-24 -16 -51 -7q-27 8 -29 39
v0z" />
</svg>
