<?xml version="1.0" standalone="no"?>
<!DOCTYPE svg PUBLIC "-//W3C//DTD SVG 1.1//EN" "http://www.w3.org/Graphics/SVG/1.1/DTD/svg11.dtd" >
<svg xmlns="http://www.w3.org/2000/svg" xmlns:xlink="http://www.w3.org/1999/xlink" version="1.1" viewBox="-10 -40 532 512">
   <path fill="currentColor"
d="M449 187q19 -1 28 -5v0v0q8 -4 11 -8q9 -13 -5 -33t-48 -38q26 -52 36 -85q3 -18 0 -21q-1 9 -12 35q-12 26 -36 65q-37 -17 -94 -23q-7 -15 -23 -42q-17 -27 -37 -47q-25 -24 -41 -24v0v0q-20 1 -27 11q-25 30 -25 84q-11 -21 -29 -26v0v0q-16 -2 -27 20q-10 22 -9 62
q-59 2 -93 11q-15 5 -18 10v0q0 -1 24 -5q23 -4 88 -5q5 42 16 70t10 24q-9 12 -24 41q-15 28 -23 56q-8 34 0 47q10 18 23 19q39 7 87 -21q-14 21 -9 39q6 15 30 13t58 -23q31 49 56 75q4 4 8 7q9 4 9 3v0q-7 -5 -24 -28t-39 -64q34 -24 68 -69q89 2 118 -12q29 -13 30 -20
q12 -15 0 -40q-13 -26 -57 -53v0zM371 293q33 -56 29 -92q44 26 49 58q3 11 -12 20q-15 10 -66 14v0zM217 349q15 -10 29 -21q10 20 21 38q-32 16 -48 11q-15 -5 -2 -28v0zM432 177q-16 -8 -32 -15q11 -18 22 -37q30 20 33 36q4 16 -23 16v0zM279 359q-8 -17 -16 -36
q32 -1 47 -10q15 -8 16 -11q0 1 -17 8q-17 6 -46 4q46 -38 85 -84q14 -15 25 -31v0q2 0 -16 -12q-39 45 -74 74t-59 42q-32 -17 -56 -61q-29 -63 -31 -116q18 1 39 4q-16 28 -16 45t2 19v0q0 -2 2 -19q3 -17 18 -41q14 79 45 153h1q-1 1 18 -8q-20 -57 -27 -102t-7 -72
q30 -19 81 -17q69 5 117 30q-11 16 -24 33q-16 -28 -31 -36q-15 -9 -17 -8q1 0 14 11q14 12 27 36q-56 -20 -115 -31q-20 -4 -40 -7v1q-1 -2 -2 20q59 11 101 27q43 16 66 30q2 36 -25 80q-40 57 -85 85v0zM307 72q-65 -1 -95 21q2 -39 13 -58q12 -19 25 -18q9 -1 22 12
t23 27t12 16v0zM176 75q1 18 3 37q-22 -1 -42 -1q-1 1 1 -12q1 -12 6 -25q5 -12 17 -12v0v0q9 2 15 13v0zM148 237q32 57 65 72q-35 18 -57 18q-22 -1 -28 -13q-2 1 -2 -15q0 -17 22 -62v0z" />
</svg>
