<?xml version="1.0" standalone="no"?>
<!DOCTYPE svg PUBLIC "-//W3C//DTD SVG 1.1//EN" "http://www.w3.org/Graphics/SVG/1.1/DTD/svg11.dtd" >
<svg xmlns="http://www.w3.org/2000/svg" xmlns:xlink="http://www.w3.org/1999/xlink" version="1.1" viewBox="-10 -40 588 512">
   <path fill="currentColor"
d="M288 -7q-78 1 -141 31v0v0q-64 29 -101 80v0v0q-37 50 -38 113q1 63 38 113q37 51 101 80q63 30 141 31q78 -1 141 -31q64 -29 101 -80q37 -50 38 -113q-1 -63 -38 -113q-37 -51 -101 -80q-63 -30 -141 -31v0zM203 350l-139 2l139 -2l-139 2l77 -291v0h134v0q47 0 65 20
q18 19 13 53q-1 3 -2 7q-8 -2 -17 -2q-33 0 -54 22q-22 21 -23 53q1 29 18 49q18 20 45 26q-26 58 -117 61v0zM358 168h32h-32h32l-22 90v0h-36v0l-11 -35v0l-8 35v0h-37v0l26 -90v0h32v0l15 37zM504 350h-197h197h-197l16 -61v0q5 1 11 1q33 -1 54 -22q22 -22 23 -54
q-1 -25 -14 -44q-14 -19 -37 -27l22 -82v0h92v0l-53 205v0h104zM212 230h-25h25h-25l-14 57v0h25v0q12 0 23 -5q10 -5 15 -22q3 -16 -4 -23q-8 -7 -20 -7v0zM233 131h-21h21h-21l-12 48v0h21v0q14 -1 25 -10q11 -8 15 -20q2 -13 -5 -16t-20 -2h-3v0z" />
</svg>
