<?xml version="1.0" standalone="no"?>
<!DOCTYPE svg PUBLIC "-//W3C//DTD SVG 1.1//EN" "http://www.w3.org/Graphics/SVG/1.1/DTD/svg11.dtd" >
<svg xmlns="http://www.w3.org/2000/svg" xmlns:xlink="http://www.w3.org/1999/xlink" version="1.1" viewBox="-10 -40 522 512">
   <path fill="currentColor"
d="M48 185h-32h32h-32v-32v0v-128v0v-32v0h64v0v32v0v51v0l18 -17v0q44 -44 101 -59q57 -14 114 0q57 15 101 59t59 101q14 57 0 114q-15 57 -59 101t-101 59q-57 14 -114 0q-57 -15 -101 -59l45 -45v0q49 47 113 47t113 -47q47 -49 47 -113t-47 -113q-49 -47 -113 -47
t-113 47l-17 17v0h50h32v64v0h-32h-128z" />
</svg>
