<?xml version="1.0" standalone="no"?>
<!DOCTYPE svg PUBLIC "-//W3C//DTD SVG 1.1//EN" "http://www.w3.org/Graphics/SVG/1.1/DTD/svg11.dtd" >
<svg xmlns="http://www.w3.org/2000/svg" xmlns:xlink="http://www.w3.org/1999/xlink" version="1.1" viewBox="-10 -40 532 512">
   <path fill="currentColor"
d="M96 -39h272h-272h285l10 9v0l48 48v0l9 10v0v13v0v80v0h-64v0v-67v0l-29 -29v0h-227v0v96v0h-64v0v-128v0v-32v0h32v0zM64 345h-64h64h-64v-192v0h512v0v192v0h-64v0v96v0v32v0h-32h-352v-32v0v-96v0zM128 345v64v-64v64h256v0v-64v0v-32v0h-256v0v16v0v16v0zM408 209v48
v-48v48h48v0v-48v0h-48v0z" />
</svg>
