<?xml version="1.0" standalone="no"?>
<!DOCTYPE svg PUBLIC "-//W3C//DTD SVG 1.1//EN" "http://www.w3.org/Graphics/SVG/1.1/DTD/svg11.dtd" >
<svg xmlns="http://www.w3.org/2000/svg" xmlns:xlink="http://www.w3.org/1999/xlink" version="1.1" viewBox="-10 -40 532 512">
   <path fill="currentColor"
d="M256 34l-106 -73l106 73l-106 -73l-23 127v0l-127 23v0l73 106v0l-73 106v0l127 23v0l23 127v0l106 -73v0l106 73v0l23 -127v0l127 -23v0l-73 -106v0l73 -106v0l-127 -23v0l-23 -127v0l-106 73v0zM352 217q0 -26 -13 -48v0v0q-13 -22 -35 -35q-23 -13 -48 -13t-48 13
q-22 13 -35 35t-13 48t13 48t35 35q23 13 48 13t48 -13q22 -13 35 -35t13 -48v0zM128 217q0 -35 17 -64v0v0q17 -29 47 -47q30 -17 64 -17t64 17q30 18 47 47t17 64t-17 64t-47 47q-30 17 -64 17t-64 -17q-30 -18 -47 -47t-17 -64v0z" />
</svg>
