<?xml version="1.0" standalone="no"?>
<!DOCTYPE svg PUBLIC "-//W3C//DTD SVG 1.1//EN" "http://www.w3.org/Graphics/SVG/1.1/DTD/svg11.dtd" >
<svg xmlns="http://www.w3.org/2000/svg" xmlns:xlink="http://www.w3.org/1999/xlink" version="1.1" viewBox="-10 -40 532 512">
   <path fill="currentColor"
d="M192 9l64 -48l-64 48l64 -48l64 48v0q-1 1 -14 28q28 14 45 40t17 60t-17 60t-45 41q13 26 14 27l-48 36v0v23v0l35 -24v0v0v0q44 -29 76 -66t33 -92q0 -37 -10 -75q-9 -37 -22 -58q2 0 33 19q31 18 62 57t33 100q-2 49 -29 92q-27 44 -54 72q-27 27 -29 28l-83 -45v0
l-33 22v0l46 32v0q3 -1 6 -1q22 2 24 24q-2 22 -24 24q-20 -2 -24 -21l-40 -28v0v29v0q15 9 16 28q0 14 -9 23t-23 9t-23 -9t-9 -23q1 -19 16 -28v-29v0l-40 28v0q-4 19 -24 21q-22 -2 -24 -24q2 -22 24 -24q3 0 6 1l46 -32v0l-33 -22v0l-83 45v0q-2 -1 -29 -28
q-27 -28 -54 -72q-27 -43 -29 -92q2 -61 33 -100t62 -57q31 -19 33 -19q-13 21 -22 58q-10 38 -10 75q1 55 33 92t76 66h1v0l34 24v0v-23v0l-48 -36v0q1 -1 15 -27q-29 -15 -46 -41t-17 -60t17 -60t46 -40q-14 -27 -15 -28v0v0zM192 137q2 37 32 55q7 -26 8 -55
q-1 -29 -8 -55q-30 18 -32 55v0zM280 137q1 29 8 55q30 -18 32 -55q-2 -37 -32 -55q-7 26 -8 55v0z" />
</svg>
