<?xml version="1.0" standalone="no"?>
<!DOCTYPE svg PUBLIC "-//W3C//DTD SVG 1.1//EN" "http://www.w3.org/Graphics/SVG/1.1/DTD/svg11.dtd" >
<svg xmlns="http://www.w3.org/2000/svg" xmlns:xlink="http://www.w3.org/1999/xlink" version="1.1" viewBox="-10 -40 458 512">
   <path fill="currentColor"
d="M32 169v-176v176v-176h96v0v64v0h48v0v-64v0h96v0v64v0h48v0v-64v0h96v0v176v0l-64 48v0l16 144v0h-288v0l16 -144v0l-64 -48v0zM192 185v64v-64v64h64v0v-64v0q0 -14 -9 -23t-23 -9t-23 9t-9 23v0zM16 473v-32v32v-32l48 -48v0h320v0l48 48v0v32v0h-416v0z" />
</svg>
