<?xml version="1.0" standalone="no"?>
<!DOCTYPE svg PUBLIC "-//W3C//DTD SVG 1.1//EN" "http://www.w3.org/Graphics/SVG/1.1/DTD/svg11.dtd" >
<svg xmlns="http://www.w3.org/2000/svg" xmlns:xlink="http://www.w3.org/1999/xlink" version="1.1" viewBox="-10 -40 660 512">
   <path fill="currentColor"
d="M320 -7h128h-128h128v128v0l-32 32v0l-41 -41v0l-54 53v0q30 44 31 100q-2 75 -52 124q-49 50 -124 52q-75 -2 -124 -52q-50 -49 -52 -124q2 -75 52 -124q49 -50 124 -52q56 1 100 31l53 -54v0l-41 -41v0l32 -32v0zM288 265q0 -30 -15 -56v0v0q-15 -26 -41 -41t-56 -15
t-56 15t-41 41t-15 56t15 56t41 41t56 15t56 -15t41 -41t15 -56v0zM304 429q29 -22 48 -53q8 1 16 1q48 -1 79 -33q32 -31 33 -79q-2 -55 -43 -88l43 -43v0v-26v0l41 -42v0l-41 -41v0l32 -32v0h128v0v128v0l-32 32v0l-41 -41v0l-54 53v0q30 44 31 100q-2 75 -52 124
q-49 50 -124 52q-34 0 -64 -12v0z" />
</svg>
