<?xml version="1.0" standalone="no"?>
<!DOCTYPE svg PUBLIC "-//W3C//DTD SVG 1.1//EN" "http://www.w3.org/Graphics/SVG/1.1/DTD/svg11.dtd" >
<svg xmlns="http://www.w3.org/2000/svg" xmlns:xlink="http://www.w3.org/1999/xlink" version="1.1" viewBox="-10 -40 340 512">
   <path fill="currentColor"
d="M160 -39l-80 80l80 -80l-80 80v16v0h56v0v24v0h-32h-24v48v0h24h32v24v0v2q-59 10 -97 53q-38 44 -39 105q2 68 47 113t113 47q68 -2 113 -47t47 -113q-1 -61 -39 -105q-38 -43 -97 -53v-1v-1v-24v0h32h24v-48v0h-24h-32v-24v0h56v0v-16v0l-80 -80v0zM64 313
q0 -26 13 -48v0v0q13 -22 35 -35q23 -13 48 -13t48 13q22 13 35 35t13 48t-13 48t-35 35q-23 13 -48 13t-48 -13q-22 -13 -35 -35t-13 -48v0z" />
</svg>
