<?xml version="1.0" standalone="no"?>
<!DOCTYPE svg PUBLIC "-//W3C//DTD SVG 1.1//EN" "http://www.w3.org/Graphics/SVG/1.1/DTD/svg11.dtd" >
<svg xmlns="http://www.w3.org/2000/svg" xmlns:xlink="http://www.w3.org/1999/xlink" version="1.1" viewBox="-10 -40 532 512">
   <path fill="currentColor"
d="M160 73q-1 -27 -24 -42q-24 -12 -48 0q-23 15 -24 42q1 27 24 42q24 12 48 0q23 -15 24 -42v0zM153 178q-19 7 -41 7q-48 -1 -79 -33q-32 -31 -33 -79q1 -48 33 -79q31 -32 79 -33q48 1 79 33q32 31 33 79q0 22 -7 41l39 39v0l160 -160v0h64v0l32 32v0l-295 296v0
q7 18 7 40q-1 48 -33 79q-31 32 -79 33q-48 -1 -79 -33q-32 -31 -33 -79q1 -48 33 -79q31 -32 79 -33q22 0 41 8l39 -40v0l-39 -39v0zM279 304l64 -64l-64 64l64 -64l169 169v0l-32 32v0h-64v0l-137 -137v0zM112 313q-27 1 -42 24q-12 24 0 48q15 23 42 24q27 -1 42 -24
q12 -24 0 -48q-15 -23 -42 -24v0z" />
</svg>
