<?xml version="1.0" standalone="no"?>
<!DOCTYPE svg PUBLIC "-//W3C//DTD SVG 1.1//EN" "http://www.w3.org/Graphics/SVG/1.1/DTD/svg11.dtd" >
<svg xmlns="http://www.w3.org/2000/svg" xmlns:xlink="http://www.w3.org/1999/xlink" version="1.1" viewBox="-10 -40 596 512">
   <path fill="currentColor"
d="M576 217q-3 -27 -34 -45v0v0q-31 -18 -60 -19h-116v0l-37 -64v0h23v0v-64v0h-59v0l-37 -64v0h-96v0l55 192v0h-103v0l-48 -64v0h-64v0l24 97v0q-22 7 -24 31q2 24 24 31l-24 97v0h64v0l48 -64v0h103v0l-55 192v0h96v0l37 -64v0h59v0v-64v0h-23v0l37 -64v0h116v0
q29 -1 60 -18q31 -18 34 -46v0z" />
</svg>
