<?xml version="1.0" standalone="no"?>
<!DOCTYPE svg PUBLIC "-//W3C//DTD SVG 1.1//EN" "http://www.w3.org/Graphics/SVG/1.1/DTD/svg11.dtd" >
<svg xmlns="http://www.w3.org/2000/svg" xmlns:xlink="http://www.w3.org/1999/xlink" version="1.1" viewBox="-10 -40 532 512">
   <path fill="currentColor"
d="M256 -39v45v-45v45l128 -13v0v64v0l-128 -13v0l-31 -3v0h-1v0v0v0v0v0h-1v0l-31 3v0l-128 13v0v-64v0l128 13v0v-45v0h64v0zM128 153l32 -32l-32 32l32 -32h32v0v-45v0l32 -3v0l32 3v0v45v0h32v0l32 32v0h32v0q68 2 113 47t47 113v32v0h-128v0v-32v0q0 -14 -9 -23t-23 -9
h-36v0q-33 46 -92 48q-59 -2 -92 -48h-132v0v-128v0h128v0zM448 377l28 49l-28 -49l28 49q4 7 4 15q0 14 -9 23t-23 9v0v0q-14 0 -23 -9t-9 -23q0 -8 4 -15l28 -49v0z" />
</svg>
