<?xml version="1.0" standalone="no"?>
<!DOCTYPE svg PUBLIC "-//W3C//DTD SVG 1.1//EN" "http://www.w3.org/Graphics/SVG/1.1/DTD/svg11.dtd" >
<svg xmlns="http://www.w3.org/2000/svg" xmlns:xlink="http://www.w3.org/1999/xlink" version="1.1" viewBox="-10 -40 658 512">
   <path fill="currentColor"
d="M376 79l-136 -118l136 118l-136 -118l-240 208v0v48v0h64v0v160v0h254v0l44 -44v0l22 -56v0l4 -10v0l-10 -3v0l-61 -20v0l-30 -10v0l10 -31v0l31 -92v0l4 -13v0l13 -6v0l31 -13v0zM128 153h96h-96h96v96v0h-96v0v-96v0zM528 57q27 -1 42 -24q12 -24 0 -48
q-15 -23 -42 -24q-27 1 -42 24q-12 24 0 48q15 23 42 24v0zM452 88l-9 4l9 -4l-9 4l-72 32v0l-13 5v0l-4 14v0l-16 48v0l-10 30v0l60 20v0l10 -30v0l12 -35v0l37 -16v0l-17 64v0q-8 33 14 59l71 78v0l22 80v0l9 31v0l61 -17v0l-8 -30v0l-24 -88v0l-2 -8v0l-5 -6v0l-53 -57v0
l19 -62v0l13 27v0l5 10v0l10 5v0l48 24v0l28 -58v0l-38 -19v0l-35 -70v0l-7 -14v0l-16 -3v0l-80 -16v0l-10 -2v0zM414 297l-25 62l25 -62l-25 62l-44 43v0l-22 23v0l45 45v0l23 -22v0l48 -48v0l4 -5v0l3 -6v0l15 -39v0l-40 -45v0q-4 -4 -7 -8v0z" />
</svg>
