<?xml version="1.0" standalone="no"?>
<!DOCTYPE svg PUBLIC "-//W3C//DTD SVG 1.1//EN" "http://www.w3.org/Graphics/SVG/1.1/DTD/svg11.dtd" >
<svg xmlns="http://www.w3.org/2000/svg" xmlns:xlink="http://www.w3.org/1999/xlink" version="1.1" viewBox="-10 -40 660 512">
   <path fill="currentColor"
d="M88 49q0 -29 16 -51v0v0q16 -22 42 -32q-16 -5 -34 -5q-48 1 -79 33q-32 31 -33 79q1 48 33 79q31 32 79 33q31 0 56 -15q25 -14 40 -39q-15 6 -32 6q-37 -1 -62 -26t-26 -62v0zM256 -39l-21 43l21 -43l-21 43l-43 21v0l43 21v0l21 43v0l21 -43v0l43 -21v0l-43 -21v0
l-21 -43v0zM400 57l-240 208l240 -208l-240 208v48v0h64v0v160v0h352v0v-160v0h64v0v-48v0l-240 -208v0zM352 249h96h-96h96v96v0h-96v0v-96v0zM75 324l-43 21l43 -21l-43 21l43 21v0l21 43v0l21 -43v0l43 -21v0l-43 -21v0l-21 -43v0l-21 43v0z" />
</svg>
