<?xml version="1.0" standalone="no"?>
<!DOCTYPE svg PUBLIC "-//W3C//DTD SVG 1.1//EN" "http://www.w3.org/Graphics/SVG/1.1/DTD/svg11.dtd" >
<svg xmlns="http://www.w3.org/2000/svg" xmlns:xlink="http://www.w3.org/1999/xlink" version="1.1" viewBox="-10 -40 468 512">
   <path fill="currentColor"
d="M0 -39v160v-160v160h448v0v-160v0h-448v0zM56 41q2 -22 24 -24q22 2 24 24q-2 22 -24 24q-22 -2 -24 -24v0zM176 17q22 2 24 24q-2 22 -24 24q-22 -2 -24 -24q2 -22 24 -24v0zM248 41q2 -22 24 -24q22 2 24 24q-2 22 -24 24q-22 -2 -24 -24v0zM368 17q22 2 24 24
q-2 22 -24 24q-22 -2 -24 -24q2 -22 24 -24v0zM384 217v192v-192v192h-320v0v-192v0h320v0zM64 153h-64h64h-64v64v0v192v0v64v0h64h384v-64v0v-192v0v-64v0h-64h-320zM336 249h-224h224h-240v32v0h16h240v-32v0h-16v0z" />
</svg>
