<?xml version="1.0" standalone="no"?>
<!DOCTYPE svg PUBLIC "-//W3C//DTD SVG 1.1//EN" "http://www.w3.org/Graphics/SVG/1.1/DTD/svg11.dtd" >
<svg xmlns="http://www.w3.org/2000/svg" xmlns:xlink="http://www.w3.org/1999/xlink" version="1.1" viewBox="-10 -40 404 512">
   <path fill="currentColor"
d="M208 -39v16v-16v16v16v0h112v0v32v0h32v0v384v0h32v0v64v0h-384v0v-64v0h32v0v-384v0h32v0v-32v0h112v0v-16v0v-16v0h32v0zM96 89v32v-32v32h32v0v-32v0h-32v0zM96 137v32v-32v32h32v0v-32v0h-32v0zM176 89h-32h32h-32v32v0h32v0v-32v0zM144 137v32v-32v32h32v0v-32v0
h-32v0zM240 89h-32h32h-32v32v0h32v0v-32v0zM240 137h-32h32h-32v32v0h32v0v-32v0zM256 89v32v-32v32h32v0v-32v0h-32v0zM288 137h-32h32h-32v32v0h32v0v-32v0zM96 201v80v-80v80h80v0v-80v0h-80v0z" />
</svg>
