<?xml version="1.0" standalone="no"?>
<!DOCTYPE svg PUBLIC "-//W3C//DTD SVG 1.1//EN" "http://www.w3.org/Graphics/SVG/1.1/DTD/svg11.dtd" >
<svg xmlns="http://www.w3.org/2000/svg" xmlns:xlink="http://www.w3.org/1999/xlink" version="1.1" viewBox="-10 -40 596 512">
   <path fill="currentColor"
d="M224 441q-63 -1 -113 -31v0v0q-51 -29 -80 -80v0v0q-30 -50 -31 -113q1 -63 31 -113q29 -51 80 -80q50 -30 113 -31q64 0 124 23l228 89v0v80v0h-130h-30v64v0h30h130v80v0l-96 37v0v75v0h-128v0l-29 -15v0q-48 15 -99 15v0zM224 169q27 1 42 24q12 24 0 48
q-15 23 -42 24q-27 -1 -42 -24q-12 -24 0 -48q15 -23 42 -24v0zM224 297q45 -1 69 -40q22 -40 0 -80q-24 -39 -69 -40q-45 1 -69 40q-22 40 0 80q24 39 69 40v0zM80 233q15 -1 16 -16q-1 -15 -16 -16q-15 1 -16 16q1 15 16 16v0zM128 121q-1 -15 -16 -16q-15 1 -16 16
q1 15 16 16q15 -1 16 -16v0zM112 329q15 -1 16 -16q-1 -15 -16 -16q-15 1 -16 16q1 15 16 16v0z" />
</svg>
