<?xml version="1.0" standalone="no"?>
<!DOCTYPE svg PUBLIC "-//W3C//DTD SVG 1.1//EN" "http://www.w3.org/Graphics/SVG/1.1/DTD/svg11.dtd" >
<svg xmlns="http://www.w3.org/2000/svg" xmlns:xlink="http://www.w3.org/1999/xlink" version="1.1" viewBox="-10 -40 532 512">
   <path fill="currentColor"
d="M480 -39l-248 224l248 -224l-248 224h106v0l174 -192v0l-32 -32v0zM80 473l98 -98l-98 98l98 -98l-18 -19v0l-98 99v0l18 18v0zM149 345l-21 -21l21 21l-21 -21l-98 99v0l20 20v0l99 -98v0zM0 393l18 18l-18 -18l18 18l99 -98v0l-19 -18v0l-98 98v0zM134 307l32 32
l-32 -32l32 32l24 24v0l146 -146v0h-160v0l-66 66v0l24 24v0z" />
</svg>
