<?xml version="1.0" standalone="no"?>
<!DOCTYPE svg PUBLIC "-//W3C//DTD SVG 1.1//EN" "http://www.w3.org/Graphics/SVG/1.1/DTD/svg11.dtd" >
<svg xmlns="http://www.w3.org/2000/svg" xmlns:xlink="http://www.w3.org/1999/xlink" version="1.1" viewBox="-10 -40 532 512">
   <path fill="currentColor"
d="M64 -7l-16 -32l16 32l-16 -32l-16 32v0l-32 16v0l32 16v0l16 32v0l16 -32v0l32 -16v0l-32 -16v0zM256 57q27 -1 42 -24q12 -24 0 -48q-15 -23 -42 -24q-27 1 -42 24q-12 24 0 48q15 23 42 24v0zM205 89h-15h15h-15l-10 12v0l-67 84v0h286v0l-67 -84v0l-10 -12v0h-15h-102
zM416 473v-64v64v-64h-320v0v64v0h120h200zM96 217v0v0v0v1v31v0h16h304v-32v0h-16h-304v0v0zM464 281l-16 32l16 -32l-16 32l-32 16v0l32 16v0l16 32v0l16 -32v0l32 -16v0l-32 -16v0l-16 -32v0zM176 281h-16h16h-16v32v0h16h176v-32v0h-16h-160zM176 345h-16h16h-16v32v0
h16h176v-32v0h-16h-160z" />
</svg>
