<?xml version="1.0" standalone="no"?>
<!DOCTYPE svg PUBLIC "-//W3C//DTD SVG 1.1//EN" "http://www.w3.org/Graphics/SVG/1.1/DTD/svg11.dtd" >
<svg xmlns="http://www.w3.org/2000/svg" xmlns:xlink="http://www.w3.org/1999/xlink" version="1.1" viewBox="-10 -40 660 512">
   <path fill="currentColor"
d="M250 25h262h-262h262q27 1 45 19t19 45q-1 34 -28 53q-53 -51 -132 -53h-64v0v164v0q15 -4 32 -4q54 1 91 37q36 37 37 91q-2 59 -43 96h139v0v-192v0q0 -48 -21 -88q24 -18 38 -45q15 -27 15 -59q-1 -54 -37 -91q-37 -36 -91 -37h-288h-26l-5 25v0l-43 199v0h66v0
l34 -160v0zM209 217h-66h66h-66l-34 160v0h-61v0l-48 48v0v48v0h127v0h1h1h95v0v-96v0h-50v0l35 -160v0zM480 377q0 -26 -13 -48v0v0q-13 -22 -35 -35q-23 -13 -48 -13t-48 13q-22 13 -35 35t-13 48t13 48t35 35q23 13 48 13t48 -13q22 -13 35 -35t13 -48v0zM352 377
q0 -14 9 -23v0v0q9 -9 23 -9t23 9t9 23t-9 23t-23 9t-23 -9t-9 -23v0z" />
</svg>
