<?xml version="1.0" standalone="no"?>
<!DOCTYPE svg PUBLIC "-//W3C//DTD SVG 1.1//EN" "http://www.w3.org/Graphics/SVG/1.1/DTD/svg11.dtd" >
<svg xmlns="http://www.w3.org/2000/svg" xmlns:xlink="http://www.w3.org/1999/xlink" version="1.1" viewBox="-10 -40 532 512">
   <path fill="currentColor"
d="M32 217v-192v192v-192v-64v0h64h384v64v0v192v0v192v0h32v0v64v0h-32h-480v-64v0h32v0v-192v0zM416 249h-136h136h-136v160v0h136v0v-160v0zM232 249h-136h136h-136v160v0h136v0v-160v0zM280 185h136h-136h136v-160v0h-136v0v160v0zM232 25h-136h136h-136v160v0h136v0
v-160v0z" />
</svg>
