<?xml version="1.0" standalone="no"?>
<!DOCTYPE svg PUBLIC "-//W3C//DTD SVG 1.1//EN" "http://www.w3.org/Graphics/SVG/1.1/DTD/svg11.dtd" >
<svg xmlns="http://www.w3.org/2000/svg" xmlns:xlink="http://www.w3.org/1999/xlink" version="1.1" viewBox="-16 0 544 512">
   <path fill="currentColor"
d="M423 1l7 -23l-7 23l7 -23l-45 -15v0l-8 22v0l-2 8v0q-16 -1 -32 3q-18 4 -35 9l-6 -13v0l-9 -22v0l-44 18v0l9 23v0l5 11v0q-33 14 -60 32l-7 -10v0l-13 -20v0l-40 26v0l13 20v0l8 12v0q-27 22 -47 47l-14 -11v0l-19 -15v0l-30 38v0l19 15v0l15 12v0l-6 10q-14 23 -23 45
l-10 -4v0l-22 -9v0l-18 44v0l22 9v0l12 5v0q-1 2 -1 3q-5 19 -7 31q-1 6 -2 11v3v0v2v0v0v0v0v0v1v0q-2 -1 4 0q7 1 35 3v0v0l-40 -3v0v15l-15 4v0l-23 6v0l14 47v0l23 -7v0l13 -4v0q16 31 47 48l-2 5v0l-7 23v0l45 15v0l8 -22v0l2 -8v0q38 1 67 -18l11 11v0l17 17v0l34 -34
v0l-17 -17v0l-11 -11v0q14 -21 17 -48v-1v0q1 -2 3 -9v-1v0l13 5v0l22 10v0l19 -44v0l-23 -10v0l-11 -5v0q14 -23 49 -46l2 8v0l6 23v0l47 -13v0l-7 -23v0l-4 -15v0q10 -3 22 -6q20 -4 35 -15l11 11v0l17 17v0l34 -34v0l-17 -17v0l-11 -11v0q19 -29 18 -65l15 -4v0l23 -7v0
l-13 -46v0l-24 7v0l-13 4v0q-17 -31 -47 -48l2 -5v0zM99 325v0v0v0l45 4v0l-45 -4v0zM112 281q1 -27 24 -42q24 -12 48 0q23 15 24 42q-1 27 -24 42q-24 12 -48 0q-23 -15 -24 -42v0zM240 145q22 2 24 24q-2 22 -24 24q-22 -2 -24 -24q2 -22 24 -24v0z" />
</svg>
