<?xml version="1.0" standalone="no"?>
<!DOCTYPE svg PUBLIC "-//W3C//DTD SVG 1.1//EN" "http://www.w3.org/Graphics/SVG/1.1/DTD/svg11.dtd" >
<svg xmlns="http://www.w3.org/2000/svg" xmlns:xlink="http://www.w3.org/1999/xlink" version="1.1" viewBox="-10 -40 660 512">
   <path fill="currentColor"
d="M48 -24l-19 -15l19 15l-19 -15l-29 38v0l19 15v0l573 444v0l19 15v0l29 -38v0l-19 -15v0l-112 -87v0l7 -7v0l-36 -32v0l-134 -123v0l-23 18v0l-26 -20v0l77 -61v0l13 -9v0l19 25v0l-12 10v0l-21 16v0l177 163v0h90v0v-224v0h-48h-81l-5 -3v0l-79 -61v0h-77v0l-117 94v0
l-26 -20v0l92 -74v0h-75v0l-60 40v0l-116 -89v0zM405 376l-364 -287l364 287l-364 -287h-41v0v224v0h156v0l74 67v0l36 33v0l47 -52v0l23 20v0l35 32v0l34 -37v0z" />
</svg>
