<?xml version="1.0" standalone="no"?>
<!DOCTYPE svg PUBLIC "-//W3C//DTD SVG 1.1//EN" "http://www.w3.org/Graphics/SVG/1.1/DTD/svg11.dtd" >
<svg xmlns="http://www.w3.org/2000/svg" xmlns:xlink="http://www.w3.org/1999/xlink" version="1.1" viewBox="-10 -40 660 512">
   <path fill="currentColor"
d="M0 185q1 -62 31 -113v0v0q30 -50 80 -80v0v0q51 -30 113 -31h32v0q78 2 132 52q53 51 60 128l57 72v0l7 9v0v11v0v16v0v32v0h-32h-32v32v0l-128 16v0v40v0l128 8v0v64v0h-128v0v32v0h-32h-224v-32v0v-99v0q-31 -32 -47 -72q-17 -40 -17 -85v0zM352 185q14 0 23 -9v0v0
q9 -9 9 -23t-9 -23t-23 -9t-23 9t-9 23t9 23t23 9v0zM464 345q2 -22 24 -24q22 2 24 24q-2 22 -24 24q-22 -2 -24 -24v0zM616 321q22 2 24 24q-2 22 -24 24q-22 -2 -24 -24q2 -22 24 -24v0zM592 441q2 -22 24 -24q22 2 24 24q-2 22 -24 24q-22 -2 -24 -24v0zM552 273
q22 2 24 24q-2 22 -24 24q-22 -2 -24 -24q2 -22 24 -24v0zM592 249q2 -22 24 -24q22 2 24 24q-2 22 -24 24q-22 -2 -24 -24v0zM552 369q22 2 24 24q-2 22 -24 24q-22 -2 -24 -24q2 -22 24 -24v0z" />
</svg>
