<?xml version="1.0" standalone="no"?>
<!DOCTYPE svg PUBLIC "-//W3C//DTD SVG 1.1//EN" "http://www.w3.org/Graphics/SVG/1.1/DTD/svg11.dtd" >
<svg xmlns="http://www.w3.org/2000/svg" xmlns:xlink="http://www.w3.org/1999/xlink" version="1.1" viewBox="-10 -40 596 512">
   <path fill="currentColor"
d="M512 249h64h-64h64v-48v0l-64 -53v0v-155v0h-96v0v75v0l-128 -107v0l-288 240v0v48v0h64v0v224v0h449v0l-1 -224v0zM288 121q36 1 55 32q18 32 0 64q-19 31 -55 32q-36 -1 -55 -32q-18 -32 0 -64q19 -31 55 -32v0zM368 281l32 96l-32 -96l32 96h-224v0l32 -96v0h160v0z
" />
</svg>
