<?xml version="1.0" standalone="no"?>
<!DOCTYPE svg PUBLIC "-//W3C//DTD SVG 1.1//EN" "http://www.w3.org/Graphics/SVG/1.1/DTD/svg11.dtd" >
<svg xmlns="http://www.w3.org/2000/svg" xmlns:xlink="http://www.w3.org/1999/xlink" version="1.1" viewBox="-10 -40 523 512">
   <path fill="currentColor"
d="M381 137l122 -121l-122 121l122 -121l-46 -46v0l-121 122v0v-51v0v-32v0h-64v0v32v0v128v0v32v0h32h160v-64v0h-32h-51zM80 233h-32h32h-32v64v0h32h51l-122 121v0l46 46v0l121 -122v0v51v0v32v0h64v0v-32v0v-128v0v-32v0h-32h-128z" />
</svg>
