<?xml version="1.0" standalone="no"?>
<!DOCTYPE svg PUBLIC "-//W3C//DTD SVG 1.1//EN" "http://www.w3.org/Graphics/SVG/1.1/DTD/svg11.dtd" >
<svg xmlns="http://www.w3.org/2000/svg" xmlns:xlink="http://www.w3.org/1999/xlink" version="1.1" viewBox="-10 -40 660 512">
   <path fill="currentColor"
d="M433 275l95 -90l-95 90l95 -90l-171 -26v0l59 -198v0l-174 165v0l-194 -150v0l-19 -15v0l-29 38v0l19 15v0l573 444v0l19 15v0l29 -38v0l-19 -15v0l-188 -145v0zM112 249l164 25l-164 -25l164 25l-104 -82v0l-60 57v0zM362 342l-80 -63l80 63l-80 -63l-58 194v0l138 -131
v0z" />
</svg>
