<?xml version="1.0" standalone="no"?>
<!DOCTYPE svg PUBLIC "-//W3C//DTD SVG 1.1//EN" "http://www.w3.org/Graphics/SVG/1.1/DTD/svg11.dtd" >
<svg xmlns="http://www.w3.org/2000/svg" xmlns:xlink="http://www.w3.org/1999/xlink" version="1.1" viewBox="-10 -40 660 512">
   <path fill="currentColor"
d="M96 -39q-41 1 -68 28v0v0q-27 27 -28 68v320v0q1 41 28 68t68 28h288h11q-36 -25 -56 -64h-243v0q-14 0 -23 -9t-9 -23t9 -23t23 -9h225v0q-1 -8 -1 -16q1 -62 36 -107q36 -46 92 -62v-199v0h-32h-320zM640 329q0 -39 -19 -72v0v0q-19 -33 -53 -53q-34 -19 -72 -19
t-72 19q-34 20 -53 53t-19 72t19 72t53 53q34 19 72 19t72 -19q34 -20 53 -53t19 -72v0zM504 250l11 12l-11 -12l11 12l56 56v0l12 11v0l-12 11v0l-56 56v0l-11 12v0l-23 -23v0l12 -11v0l28 -29v0h-89h-16v-32v0h16h89l-28 -29v0l-12 -11v0l23 -23v0z" />
</svg>
