<?xml version="1.0" standalone="no"?>
<!DOCTYPE svg PUBLIC "-//W3C//DTD SVG 1.1//EN" "http://www.w3.org/Graphics/SVG/1.1/DTD/svg11.dtd" >
<svg xmlns="http://www.w3.org/2000/svg" xmlns:xlink="http://www.w3.org/1999/xlink" version="1.1" viewBox="-10 -40 660 512">
   <path fill="currentColor"
d="M96 -39q-41 1 -68 28v0v0q-27 27 -28 68v320v0q1 41 28 68t68 28h288h11q-36 -25 -56 -64h-243v0q-14 0 -23 -9t-9 -23t9 -23t23 -9h225v0q-1 -8 -1 -16q1 -62 36 -107q36 -46 92 -62v-199v0h-32h-320zM496 185q-39 0 -72 19v0v0q-33 19 -53 53q-19 34 -19 72t19 72
q20 34 53 53t72 19t72 -19t53 -53q19 -34 19 -72t-19 -72q-20 -34 -53 -53t-72 -19v0zM417 321l12 -11l-12 11l12 -11l56 -56v0l11 -12v0l11 12v0l56 56v0l12 11v0l-23 23v0l-11 -12v0l-29 -28v0v89v0v16v0h-32v0v-16v0v-89v0l-29 28v0l-11 12v0l-23 -23v0z" />
</svg>
