<?xml version="1.0" standalone="no"?>
<!DOCTYPE svg PUBLIC "-//W3C//DTD SVG 1.1//EN" "http://www.w3.org/Graphics/SVG/1.1/DTD/svg11.dtd" >
<svg xmlns="http://www.w3.org/2000/svg" xmlns:xlink="http://www.w3.org/1999/xlink" version="1.1" viewBox="-10 -40 596 512">
   <path fill="currentColor"
d="M208 -7v128v-128v128h-208v0l64 -128v0h144v0zM240 -7h144h-144h144l64 128v0h-32h-176v-128v0zM0 441v-288v288v-288h416v0v1v0q-69 7 -114 56q-44 49 -46 119q1 65 40 112h-296v0zM288 329q0 -39 19 -72v0v0q19 -33 53 -53q34 -19 72 -19t72 19q34 20 53 53t19 72
t-19 72t-53 53q-34 19 -72 19t-72 -19q-34 -20 -53 -53t-19 -72v0zM511 297l-23 -23l23 23l-23 -23l-11 12v0l-61 60v0l-29 -28v0l-11 -12v0l-23 23v0l12 11v0l40 40v0l11 12v0l11 -12v0l72 -72v0l12 -11v0z" />
</svg>
