<?xml version="1.0" standalone="no"?>
<!DOCTYPE svg PUBLIC "-//W3C//DTD SVG 1.1//EN" "http://www.w3.org/Graphics/SVG/1.1/DTD/svg11.dtd" >
<svg xmlns="http://www.w3.org/2000/svg" xmlns:xlink="http://www.w3.org/1999/xlink" version="1.1" viewBox="-10 -40 660 512">
   <path fill="currentColor"
d="M96 217q1 -61 30 -112v0v0q30 -51 82 -82q53 -30 112 -30t112 30q52 31 82 82q29 51 30 112q-1 61 -30 112q-30 51 -82 82q-53 30 -112 30t-112 -30q-52 -31 -82 -82q-29 -51 -30 -112v0zM344 113v-24v24v-24h-48v0v24v0v112v0v24v0h48v0v-24v0v-112v0zM296 281v48v-48
v48h48v0v-48v0h-48v0zM91 70q-42 65 -43 147q1 82 43 147l13 20v0l-40 26v0l-13 -20v0q-50 -76 -51 -173q1 -97 51 -173l13 -20v0l40 26v0l-13 20v0zM589 44q50 76 51 173q-1 97 -51 173l-13 20v0l-40 -26v0l13 -20v0q42 -65 43 -147q-1 -82 -43 -147l-13 -20v0l40 -26v0
l13 20v0z" />
</svg>
