<?xml version="1.0" standalone="no"?>
<!DOCTYPE svg PUBLIC "-//W3C//DTD SVG 1.1//EN" "http://www.w3.org/Graphics/SVG/1.1/DTD/svg11.dtd" >
<svg xmlns="http://www.w3.org/2000/svg" xmlns:xlink="http://www.w3.org/1999/xlink" version="1.1" viewBox="-10 -40 522 512">
   <path fill="currentColor"
d="M224 9v64v-64v64h64v0v-64v0h-64v0zM128 44l-45 45l45 -45l-45 45l45 45v0l45 -45v0l-45 -45v0zM48 185v64v-64v64h64v0v-64v0h-64v0zM173 345l-45 -45l45 45l-45 -45l-45 45v0l45 45v0l45 -45v0zM288 425v-64v64v-64h-64v0v64v0h64v0zM339 345l45 45l-45 -45l45 45
l45 -45v0l-45 -45v0l-45 45v0zM464 185h-64h64h-64v64v0h64v0v-64v0zM429 89l-45 -45l45 45l-45 -45l-45 45v0l45 45v0l45 -45v0zM256 313q26 0 48 -13v0v0q22 -13 35 -35q13 -23 13 -48t-13 -48q-13 -22 -35 -35t-48 -13t-48 13t-35 35q-13 23 -13 48t13 48q13 22 35 35
t48 13v0z" />
</svg>
