<?xml version="1.0" standalone="no"?>
<!DOCTYPE svg PUBLIC "-//W3C//DTD SVG 1.1//EN" "http://www.w3.org/Graphics/SVG/1.1/DTD/svg11.dtd" >
<svg xmlns="http://www.w3.org/2000/svg" xmlns:xlink="http://www.w3.org/1999/xlink" version="1.1" viewBox="-10 -40 468 512">
   <path fill="currentColor"
d="M96 -39v64v-64v64h-96v0v96v0h448v0v-96v0h-96v0v-64v0h-64v0v64v0h-128v0v-64v0h-64v0zM448 153h-448h448h-448v320v0h448v0v-320v0zM96 233h256h-256h256v48v0h-256v0v-48v0zM256 329v48v-48v48h-160v0v-48v0h160v0z" />
</svg>
