<?xml version="1.0" standalone="no"?>
<!DOCTYPE svg PUBLIC "-//W3C//DTD SVG 1.1//EN" "http://www.w3.org/Graphics/SVG/1.1/DTD/svg11.dtd" >
<svg xmlns="http://www.w3.org/2000/svg" xmlns:xlink="http://www.w3.org/1999/xlink" version="1.1" viewBox="-10 -40 660 512">
   <path fill="currentColor"
d="M48 -24l-19 -15l19 15l-19 -15l-29 38v0l19 15v0l573 444v0l19 15v0l29 -38v0l-19 -15v0l-45 -35v0v-328v0h-139v0l-21 -64v0h-192v0l-21 64v0h-50v0l-105 -81v0zM285 160q16 -7 35 -7q41 1 68 28t28 68q0 6 -1 12l-130 -101v0zM487 441l-131 -103l131 103l-131 -103
q-17 7 -36 7q-41 -1 -68 -28t-28 -68q0 -8 1 -15l-161 -127v0v334v0h423v0z" />
</svg>
