<?xml version="1.0" standalone="no"?>
<!DOCTYPE svg PUBLIC "-//W3C//DTD SVG 1.1//EN" "http://www.w3.org/Graphics/SVG/1.1/DTD/svg11.dtd" >
<svg xmlns="http://www.w3.org/2000/svg" xmlns:xlink="http://www.w3.org/1999/xlink" version="1.1" viewBox="-10 -40 398 512">
   <path fill="currentColor"
d="M256 -7v-32v32v-32h-64v0v32v0v35v0q-70 13 -114 64q-45 52 -46 125q1 73 46 125q44 51 114 64v35v0v32v0h64v0v-32v0v-35v0q76 -14 122 -74l-52 -38v0q-26 35 -70 47v-248v0q44 12 70 47l52 -38v0q-46 -60 -122 -74v-35v0zM192 93v248v-248v248q-42 -11 -69 -45
q-26 -33 -27 -79q1 -46 27 -79q27 -34 69 -45v0z" />
</svg>
