<?xml version="1.0" standalone="no"?>
<!DOCTYPE svg PUBLIC "-//W3C//DTD SVG 1.1//EN" "http://www.w3.org/Graphics/SVG/1.1/DTD/svg11.dtd" >
<svg xmlns="http://www.w3.org/2000/svg" xmlns:xlink="http://www.w3.org/1999/xlink" version="1.1" viewBox="-10 -40 532 512">
   <path fill="currentColor"
d="M64 -7v32v-32v32v352v0h416h32v64v0h-32h-480v-32v0v-384v0v-32v0h64v0zM192 185v32v-32v32v64v0v32v0h-64v0v-32v0v-64v0v-32v0h64v0zM288 121v160v-160v160v32v0h-64v0v-32v0v-160v0v-32v0h64v0v32v0zM384 153v32v-32v32v96v0v32v0h-64v0v-32v0v-96v0v-32v0h64v0z
M480 57v224v-224v224v32v0h-64v0v-32v0v-224v0v-32v0h64v0v32v0z" />
</svg>
