<?xml version="1.0" standalone="no"?>
<!DOCTYPE svg PUBLIC "-//W3C//DTD SVG 1.1//EN" "http://www.w3.org/Graphics/SVG/1.1/DTD/svg11.dtd" >
<svg xmlns="http://www.w3.org/2000/svg" xmlns:xlink="http://www.w3.org/1999/xlink" version="1.1" viewBox="-10 -40 532 512">
   <path fill="currentColor"
d="M64 25v-32v32v-32h-64v0v32v0v384v0v32v0h32h480v-64v0h-32h-416v-352v0zM352 89l-32 32l32 -32l-32 32l41 41v0l-57 58v0l-73 -74v0l-23 -22v0l-23 22v0l-80 80v0l46 46v0l57 -58v0l73 74v0l23 22v0l23 -22v0l80 -80v0l41 41v0l32 -32v0v-128v0h-128v0z" />
</svg>
