<?xml version="1.0" standalone="no"?>
<!DOCTYPE svg PUBLIC "-//W3C//DTD SVG 1.1//EN" "http://www.w3.org/Graphics/SVG/1.1/DTD/svg11.dtd" >
<svg xmlns="http://www.w3.org/2000/svg" xmlns:xlink="http://www.w3.org/1999/xlink" version="1.1" viewBox="-10 -40 532 512">
   <path fill="currentColor"
d="M74 217l91 -160l-91 160l91 -160h182v0l91 160v0l-91 160v0h-182v0l-91 -160v0zM128 -7l-128 224l128 -224l-128 224l128 224v0h256v0l128 -224v0l-128 -224v0h-256v0zM290 142q6 -9 6 -21q0 -17 -12 -28q-11 -12 -28 -12t-28 12q-12 11 -12 28q0 6 2 11l-58 77v0
q-17 0 -28 12q-12 11 -12 28t12 28q11 12 28 12q16 0 27 -10l97 19v0q11 22 36 23q17 -1 28 -12q12 -11 12 -28q-2 -30 -30 -39l-40 -100v0zM202 233l48 -63l-48 63l48 -63l31 79v0l-79 -16v0z" />
</svg>
