<?xml version="1.0" standalone="no"?>
<!DOCTYPE svg PUBLIC "-//W3C//DTD SVG 1.1//EN" "http://www.w3.org/Graphics/SVG/1.1/DTD/svg11.dtd" >
<svg xmlns="http://www.w3.org/2000/svg" xmlns:xlink="http://www.w3.org/1999/xlink" version="1.1" viewBox="-10 -40 532 512">
   <path fill="currentColor"
d="M256 473q70 -1 128 -34v0v0q58 -34 94 -94q34 -61 34 -128t-34 -128q-36 -60 -94 -94q-58 -33 -128 -34q-70 1 -128 34q-58 34 -94 94q-34 61 -34 128t34 128q36 60 94 94q58 33 128 34v0zM194 108q24 -19 55 -19l3 1v0q36 1 60 25q23 24 24 60q-1 36 -27 62l-64 60v0h83
h24v48v0h-24h-168v-34v0l8 -7v0l108 -102v0q12 -11 12 -27t-11 -27q-10 -10 -26 -11h-3v0q-14 0 -25 9l-16 12v0l-20 15v0l-29 -39v0l19 -14v0l17 -12v0z" />
</svg>
