<?xml version="1.0" standalone="no"?>
<!DOCTYPE svg PUBLIC "-//W3C//DTD SVG 1.1//EN" "http://www.w3.org/Graphics/SVG/1.1/DTD/svg11.dtd" >
<svg xmlns="http://www.w3.org/2000/svg" xmlns:xlink="http://www.w3.org/1999/xlink" version="1.1" viewBox="-10 -40 532 512">
   <path fill="currentColor"
d="M256 473q70 -1 128 -34v0v0q58 -34 94 -94q34 -61 34 -128t-34 -128q-36 -60 -94 -94q-58 -33 -128 -34q-70 1 -128 34q-58 34 -94 94q-34 61 -34 128t34 128q36 60 94 94q58 33 128 34v0zM208 217v-160v160v-160h96v0v160v0q-1 20 -14 34q-14 13 -34 14q-20 -1 -34 -14
q-13 -14 -14 -34v0zM160 185v16v-16v16v16v0q1 41 28 68t68 28q41 -1 68 -28t28 -68v-16v0v-16v0h32v0v16v0v16v0q-1 50 -32 85q-32 35 -80 42v17v0v16v0h-32v0v-16v0v-17v0q-48 -7 -80 -42q-31 -35 -32 -85v-16v0v-16v0h32v0z" />
</svg>
