<?xml version="1.0" standalone="no"?>
<!DOCTYPE svg PUBLIC "-//W3C//DTD SVG 1.1//EN" "http://www.w3.org/Graphics/SVG/1.1/DTD/svg11.dtd" >
<svg xmlns="http://www.w3.org/2000/svg" xmlns:xlink="http://www.w3.org/1999/xlink" version="1.1" viewBox="-10 -40 532 512">
   <path fill="currentColor"
d="M256 473q70 -1 128 -34v0v0q58 -34 94 -94q34 -61 34 -128t-34 -128q-36 -60 -94 -94q-58 -33 -128 -34q-70 1 -128 34q-58 34 -94 94q-34 61 -34 128t34 128q36 60 94 94q58 33 128 34v0zM303 152l105 16l-105 -16l105 16l-76 74v0l18 105v0l-94 -50v0l-94 49v0l18 -104
v0l-76 -74v0l105 -16v0l47 -95v0l47 95v0z" />
</svg>
