<?xml version="1.0" standalone="no"?>
<!DOCTYPE svg PUBLIC "-//W3C//DTD SVG 1.1//EN" "http://www.w3.org/Graphics/SVG/1.1/DTD/svg11.dtd" >
<svg xmlns="http://www.w3.org/2000/svg" xmlns:xlink="http://www.w3.org/1999/xlink" version="1.1" viewBox="-10 -40 532 512">
   <path fill="currentColor"
d="M256 473q70 -1 128 -34v0v0q58 -34 94 -94q34 -61 34 -128t-34 -128q-36 -60 -94 -94q-58 -33 -128 -34q-70 1 -128 34q-58 34 -94 94q-34 61 -34 128t34 128q36 60 94 94q58 33 128 34v0zM410 113l-67 231l67 -231l-67 231l-5 17v0h-35v0l-6 -17v0l-41 -128v0l-41 128v0
l-5 17v0h-36v0l-5 -17v0l-66 -231v0h50v0l40 142v0l40 -125v0l5 -17v0h35v0l6 17v0l40 125v0l41 -142v0h50v0z" />
</svg>
