<?xml version="1.0" standalone="no"?>
<!DOCTYPE svg PUBLIC "-//W3C//DTD SVG 1.1//EN" "http://www.w3.org/Graphics/SVG/1.1/DTD/svg11.dtd" >
<svg xmlns="http://www.w3.org/2000/svg" xmlns:xlink="http://www.w3.org/1999/xlink" version="1.1" viewBox="-10 -40 404 512">
   <path fill="currentColor"
d="M192 -39q-32 1 -56 18v0v0q-24 18 -34 46h-102v0v448v0h384v0v-448v0h-101v0q-11 -28 -35 -46q-24 -17 -56 -18v0zM192 25q14 0 23 9v0v0q9 9 9 23t-9 23t-23 9t-23 -9t-9 -23t9 -23t23 -9v0zM160 249v-64v64v-64h64v0v64v0h64v0v64v0h-64v0v64v0h-64v0v-64v0h-64v0v-64
v0h64v0z" />
</svg>
