<?xml version="1.0" standalone="no"?>
<!DOCTYPE svg PUBLIC "-//W3C//DTD SVG 1.1//EN" "http://www.w3.org/Graphics/SVG/1.1/DTD/svg11.dtd" >
<svg xmlns="http://www.w3.org/2000/svg" xmlns:xlink="http://www.w3.org/1999/xlink" version="1.1" viewBox="-10 -40 532 512">
   <path fill="currentColor"
d="M56 17h48h-48h48v48v0h-48v0v-48v0zM0 -39v56v-56v56v48v0v56v0h48v0v192v0h-48v0v56v0v48v0v56v0h56h104v-56v0v-48v0v-56v0h-48v0v-192v0h48v0v-56v0v-48v0v-56v0h-56h-104zM56 369h48h-48h48v48v0h-48v0v-48v0zM456 369v48v-48v48h-48v0v-48v0h48v0zM400 153v160v-160
v160h-48v0v56v0v48v0v56v0h56h104v-56v0v-48v0v-56v0h-48v0v-160v0q-1 -54 -37 -91q-37 -36 -91 -37h-16v0v-64v0h-32v0l-96 96v0l96 96v0h32v0v-64v0h16v0q27 1 45 19t19 45v0z" />
</svg>
