<?xml version="1.0" standalone="no"?>
<!DOCTYPE svg PUBLIC "-//W3C//DTD SVG 1.1//EN" "http://www.w3.org/Graphics/SVG/1.1/DTD/svg11.dtd" >
<svg xmlns="http://www.w3.org/2000/svg" xmlns:xlink="http://www.w3.org/1999/xlink" version="1.1" viewBox="-10 -40 532 512">
   <path fill="currentColor"
d="M512 185h-512h512h-512v128v0h512v0v-128v0zM512 345h-512h512h-512v128v0h512v0v-128v0zM64 233q15 1 16 16q-1 15 -16 16q-15 -1 -16 -16q1 -15 16 -16v0zM48 409q1 -15 16 -16q15 1 16 16q-1 15 -16 16q-15 -1 -16 -16v0zM448 233q15 1 16 16q-1 15 -16 16
q-15 -1 -16 -16q1 -15 16 -16v0zM432 409q1 -15 16 -16q15 1 16 16q-1 15 -16 16q-15 -1 -16 -16v0z" />
</svg>
