<?xml version="1.0" standalone="no"?>
<!DOCTYPE svg PUBLIC "-//W3C//DTD SVG 1.1//EN" "http://www.w3.org/Graphics/SVG/1.1/DTD/svg11.dtd" >
<svg xmlns="http://www.w3.org/2000/svg" xmlns:xlink="http://www.w3.org/1999/xlink" version="1.1" viewBox="-10 -40 458 512">
   <path fill="currentColor"
d="M96 217q2 -68 47 -113v0v0q45 -45 113 -47q74 2 120 54l48 -42v0q-31 -35 -74 -55q-43 -21 -94 -21q-63 1 -113 31q-51 29 -80 80q-30 50 -31 113q1 63 31 113q29 51 80 80q50 30 113 31q51 0 94 -20q43 -21 74 -56l-48 -42v0q-46 52 -120 54v-96v0v-1v0q0 -13 9 -22
t22 -9q8 0 15 4l26 16v0l32 -55v0l-25 -15v0q-22 -14 -48 -14q-17 0 -31 5v-5v0h-64v0v95v0v1v0v83v0q-43 -20 -69 -58q-26 -39 -27 -89v0z" />
</svg>
