<?xml version="1.0" standalone="no"?>
<!DOCTYPE svg PUBLIC "-//W3C//DTD SVG 1.1//EN" "http://www.w3.org/Graphics/SVG/1.1/DTD/svg11.dtd" >
<svg xmlns="http://www.w3.org/2000/svg" xmlns:xlink="http://www.w3.org/1999/xlink" version="1.1" viewBox="-10 -40 596 512">
   <path fill="currentColor"
d="M0 25v384v-384v384h400v0l176 -192v0l-176 -192v0h-400v0zM177 136l47 47l-47 -47l47 47l47 -47v0l17 -17v0l34 34v0l-17 17v0l-47 47v0l47 47v0l17 17v0l-34 34v0l-17 -17v0l-47 -47v0l-47 47v0l-17 17v0l-34 -34v0l17 -17v0l47 -47v0l-47 -47v0l-17 -17v0l34 -34v0
l17 17v0z" />
</svg>
