<?xml version="1.0" standalone="no"?>
<!DOCTYPE svg PUBLIC "-//W3C//DTD SVG 1.1//EN" "http://www.w3.org/Graphics/SVG/1.1/DTD/svg11.dtd" >
<svg xmlns="http://www.w3.org/2000/svg" xmlns:xlink="http://www.w3.org/1999/xlink" version="1.1" viewBox="-10 -40 660 512">
   <path fill="currentColor"
d="M256 374q-30 -31 -47 -71v0v0q-17 -40 -17 -86t17 -86t47 -71q-15 -3 -32 -3q-68 2 -113 47t-47 113q2 68 47 113t113 47q17 0 32 -3v0zM320 420q-44 21 -96 21q-63 -1 -113 -31q-51 -29 -80 -80q-30 -50 -31 -113q1 -63 31 -113q29 -51 80 -80q50 -30 113 -31
q52 0 96 22q44 -22 96 -22q63 1 113 31q51 29 80 80q30 50 31 113q-1 63 -31 113q-29 51 -80 80q-50 30 -113 31q-52 0 -96 -22v1zM371 153h-102h102h-102q-10 23 -12 48h126v0q-2 -25 -12 -48v0zM269 281h102h-102h102q10 -22 12 -48h-126v0q2 26 12 48v0zM288 313
q14 18 32 32q18 -14 32 -32h-64v0zM352 121q-14 -18 -32 -32q-18 14 -32 32h64v0z" />
</svg>
