<?xml version="1.0" standalone="no"?>
<!DOCTYPE svg PUBLIC "-//W3C//DTD SVG 1.1//EN" "http://www.w3.org/Graphics/SVG/1.1/DTD/svg11.dtd" >
<svg xmlns="http://www.w3.org/2000/svg" xmlns:xlink="http://www.w3.org/1999/xlink" version="1.1" viewBox="-10 -40 596 512">
   <path fill="currentColor"
d="M320 -39v64v-64v64h-64v0v-64v0h64v0zM128 25v64v-64v64h-64v0v-64v0h64v0zM512 25v64v-64v64h-64v0v-64v0h64v0zM512 217h64h-64h64v64v0h-64v0v-64v0zM512 409v64v-64v64h-64v0v-64v0h64v0zM64 409h64h-64h64v64v0h-64v0v-64v0zM0 217h64h-64h64v64v0h-64v0v-64v0z
M175 135q44 -42 102 -46v0v0q57 -4 106 31l-112 111v0l-17 17v0l34 34v0l17 -17v0l112 -112v0q35 49 31 107q-4 57 -47 101q-49 47 -113 47t-113 -47q-47 -49 -47 -113t47 -113v0z" />
</svg>
