<?xml version="1.0" standalone="no"?>
<!DOCTYPE svg PUBLIC "-//W3C//DTD SVG 1.1//EN" "http://www.w3.org/Graphics/SVG/1.1/DTD/svg11.dtd" >
<svg xmlns="http://www.w3.org/2000/svg" xmlns:xlink="http://www.w3.org/1999/xlink" version="1.1" viewBox="-10 -40 596 512">
   <path fill="currentColor"
d="M320 -39v64v-64v64h-64v0v-64v0h64v0zM128 25v64v-64v64h-64v0v-64v0h64v0zM512 25v64v-64v64h-64v0v-64v0h64v0zM512 217h64h-64h64v64v0h-64v0v-64v0zM512 409v64v-64v64h-64v0v-64v0h64v0zM64 409h64h-64h64v64v0h-64v0v-64v0zM0 217h64h-64h64v64v0h-64v0v-64v0z
M288 409q-62 -2 -105 -40v0v0q-44 -37 -54 -96h159h24v-48v0h-24h-159q10 -59 54 -97q43 -38 105 -39q68 1 113 46q45 46 47 114q-2 68 -47 113t-113 47v0z" />
</svg>
