<?xml version="1.0" standalone="no"?>
<!DOCTYPE svg PUBLIC "-//W3C//DTD SVG 1.1//EN" "http://www.w3.org/Graphics/SVG/1.1/DTD/svg11.dtd" >
<svg xmlns="http://www.w3.org/2000/svg" xmlns:xlink="http://www.w3.org/1999/xlink" version="1.1" viewBox="-10 -40 596 512">
   <path fill="currentColor"
d="M0 -39h576h-576h576v416v0h-240v0l11 32v0h69h32v64v0h-32h-288v-64v0h32h69l11 -32v0h-240v0v-416v0zM64 25v288v-288v288h448v0v-288v0h-448v0zM249 138l-31 31l31 -31l-31 31l31 31v0l17 17v0l-34 34v0l-17 -17v0l-48 -48v0l-17 -17v0l17 -17v0l48 -48v0l17 -17v0
l34 34v0l-17 17v0zM361 104l48 48l-48 -48l48 48l17 17v0l-17 17v0l-48 48v0l-17 17v0l-34 -34v0l17 -17v0l31 -31v0l-31 -31v0l-17 -17v0l34 -34v0l17 17v0z" />
</svg>
