<?xml version="1.0" standalone="no"?>
<!DOCTYPE svg PUBLIC "-//W3C//DTD SVG 1.1//EN" "http://www.w3.org/Graphics/SVG/1.1/DTD/svg11.dtd" >
<svg xmlns="http://www.w3.org/2000/svg" xmlns:xlink="http://www.w3.org/1999/xlink" version="1.1" viewBox="-10 -40 404 512">
   <path fill="currentColor"
d="M320 -7h-64h64h-64v32v0h-64v0v64v0h64v0v49v0q-29 -17 -64 -17q-54 1 -91 37q-36 37 -37 91q1 54 37 91q37 36 91 37q35 0 64 -17v17v0h64v0v-128v0v-160v0h32v0v-64v0h-32v0v-32v0zM128 249q1 -36 32 -55q32 -18 64 0q31 19 32 55q-1 36 -32 55q-32 18 -64 0
q-31 -19 -32 -55v0zM384 473v-64v64v-64h-384v0v64v0h384v0z" />
</svg>
