<?xml version="1.0" standalone="no"?>
<!DOCTYPE svg PUBLIC "-//W3C//DTD SVG 1.1//EN" "http://www.w3.org/Graphics/SVG/1.1/DTD/svg11.dtd" >
<svg xmlns="http://www.w3.org/2000/svg" xmlns:xlink="http://www.w3.org/1999/xlink" version="1.1" viewBox="-10 -40 596 512">
   <path fill="currentColor"
d="M576 -7h-480h480h-480v352v0h480v0v-352v0zM200 41v48v-48v48h-48v0v-48v0h48v0zM472 41h48h-48h48v48v0h-48v0v-48v0zM200 145v48v-48v48h-48v0v-48v0h48v0zM472 145h48h-48h48v48v0h-48v0v-48v0zM200 249v48v-48v48h-48v0v-48v0h48v0zM472 249h48h-48h48v48v0h-48v0
v-48v0zM416 41v112v-112v112h-160v0v-112v0h160v0zM256 185h160h-160h160v112v0h-160v0v-112v0zM48 81v-24v24v-24h-48v0v24v0v336v0v24v0h24h456v-48v0h-24h-408v-312v0z" />
</svg>
