<?xml version="1.0" standalone="no"?>
<!DOCTYPE svg PUBLIC "-//W3C//DTD SVG 1.1//EN" "http://www.w3.org/Graphics/SVG/1.1/DTD/svg11.dtd" >
<svg xmlns="http://www.w3.org/2000/svg" xmlns:xlink="http://www.w3.org/1999/xlink" version="1.1" viewBox="-10 -40 596 512">
   <path fill="currentColor"
d="M192 345v-96v96v-96l-192 -224v0v-64v0h512v0v64v0l-112 131v0q-63 13 -103 60t-41 113q0 42 18 77l-82 -61v0zM432 185q39 0 72 19v0v0q33 19 53 53q19 34 19 72t-19 72q-20 34 -53 53t-72 19t-72 -19t-53 -53q-19 -34 -19 -72t19 -72q20 -34 53 -53t72 -19v0zM491 292
l12 -11l-12 11l12 -11l-23 -23v0l-11 12v0l-37 36v0l-37 -36v0l-11 -12v0l-23 23v0l12 11v0l36 37v0l-36 37v0l-12 11v0l23 23v0l11 -12v0l37 -36v0l37 36v0l11 12v0l23 -23v0l-12 -11v0l-36 -37v0l36 -37v0z" />
</svg>
