<?xml version="1.0" standalone="no"?>
<!DOCTYPE svg PUBLIC "-//W3C//DTD SVG 1.1//EN" "http://www.w3.org/Graphics/SVG/1.1/DTD/svg11.dtd" >
<svg xmlns="http://www.w3.org/2000/svg" xmlns:xlink="http://www.w3.org/1999/xlink" version="1.1" viewBox="-10 -40 404 512">
   <path fill="currentColor"
d="M315 -7q-30 0 -54 16v0v0q-23 16 -35 43l-55 133v0h-139v0v64v0h112v0l-45 108v0q-9 19 -30 20h-69v0v64v0h69v0q30 0 54 -16q23 -16 35 -43l55 -133v0h139v0v-64v0h-112v0l45 -108v0q9 -19 30 -20h69v0v-64v0h-69v0z" />
</svg>
