<?xml version="1.0" standalone="no"?>
<!DOCTYPE svg PUBLIC "-//W3C//DTD SVG 1.1//EN" "http://www.w3.org/Graphics/SVG/1.1/DTD/svg11.dtd" >
<svg xmlns="http://www.w3.org/2000/svg" xmlns:xlink="http://www.w3.org/1999/xlink" version="1.1" viewBox="-10 -40 532 512">
   <path fill="currentColor"
d="M512 57v384v-384v384h-512v0v-448v0h224v0l48 64v0h240v0zM352 153v-23v23v-23l-22 8v0l-128 48v0l-10 4v0v11v0v32v0v82v0q-8 -2 -16 -2q-20 0 -34 9q-13 9 -14 23q1 14 14 23q14 9 34 9t34 -9q13 -9 14 -23v-101v0l96 -36v0v75v0q-8 -2 -16 -2q-20 0 -34 9
q-13 9 -14 23q1 14 14 23q14 9 34 9t34 -9q13 -9 14 -23v-128v0v-32v0z" />
</svg>
