<?xml version="1.0" standalone="no"?>
<!DOCTYPE svg PUBLIC "-//W3C//DTD SVG 1.1//EN" "http://www.w3.org/Graphics/SVG/1.1/DTD/svg11.dtd" >
<svg xmlns="http://www.w3.org/2000/svg" xmlns:xlink="http://www.w3.org/1999/xlink" version="1.1" viewBox="-10 -40 596 512">
   <path fill="currentColor"
d="M0 -7h32h-32h448v32v0v94v0l-104 160v0q-24 37 -24 80v2v0q1 45 24 80h-24h-320v-32v0v-192v0v-192v0v-32v0zM64 57v128v-128v128h32v0v-128v0h-32v0zM64 377h32h-32h32v-128v0h-32v0v128v0zM192 377v-128v128v-128h-32v0v128v0h32v0zM288 377v-128v128v-128h-32v0v128v0
h32v0zM384 57h-32h32h-32v128v0h32v0v-128v0zM256 57v128v-128v128h32v0v-128v0h-32v0zM160 57v128v-128v128h32v0v-128v0h-32v0zM464 153l94 144l-94 -144l94 144q18 28 18 62v2v0q-1 48 -33 79q-31 32 -79 33q-48 -1 -79 -33q-32 -31 -33 -79v-2v0q0 -34 19 -62l93 -144v0
z" />
</svg>
