<?xml version="1.0" standalone="no"?>
<!DOCTYPE svg PUBLIC "-//W3C//DTD SVG 1.1//EN" "http://www.w3.org/Graphics/SVG/1.1/DTD/svg11.dtd" >
<svg xmlns="http://www.w3.org/2000/svg" xmlns:xlink="http://www.w3.org/1999/xlink" version="1.1" viewBox="-10 -40 458 512">
   <path fill="currentColor"
d="M176 473h-80h80h-80v-224v0v-13v0v-3v0v-80v0v-16v0h-32v0v16v0v56v0l-48 -40v0v-68v0q1 -59 46 -98l6 -5v0q44 -36 102 -37h118v0q54 1 91 37q36 37 37 91v16v0v48v0v80v0h-80v0v32v0h-80v0v32v0h-80v0v176v0z" />
</svg>
