<?xml version="1.0" standalone="no"?>
<!DOCTYPE svg PUBLIC "-//W3C//DTD SVG 1.1//EN" "http://www.w3.org/Graphics/SVG/1.1/DTD/svg11.dtd" >
<svg xmlns="http://www.w3.org/2000/svg" xmlns:xlink="http://www.w3.org/1999/xlink" version="1.1" viewBox="-10 -40 458 512">
   <path fill="currentColor"
d="M192 -39v48v-48v48v64v0v16v0h-16h-144l44 -48v0l-44 -48v0h80v0v-32v0h80v0zM112 185v-64v64v-64h80v0v16v0h80v0v32v0h80v0v32v0h80v0v80v0v48v0v16v0q-1 54 -37 91q-37 36 -91 37h-118v0q-58 -1 -103 -37l-5 -5v0q-45 -39 -46 -98v-68v0l48 -40v0v56v0v16v0h32v0v-16
v0v-80v0v-3v0v-13v0z" />
</svg>
