<?xml version="1.0" standalone="no"?>
<!DOCTYPE svg PUBLIC "-//W3C//DTD SVG 1.1//EN" "http://www.w3.org/Graphics/SVG/1.1/DTD/svg11.dtd" >
<svg xmlns="http://www.w3.org/2000/svg" xmlns:xlink="http://www.w3.org/1999/xlink" version="1.1" viewBox="-10 -40 596 512">
   <path fill="currentColor"
d="M0 -7h576h-576h576v448v0h-576v0v-448v0zM304 121v24v-24v24v144v0v24v0h24h56q41 -1 68 -28t28 -68q-1 -41 -28 -68t-68 -28h-56h-24zM384 169q20 1 34 14v0v0q13 14 14 34q-1 20 -14 34q-14 13 -34 14h-32v0v-96v0h32v0zM160 145v-24v24v-24h-48v0v24v0v72v0v72v0v24v0
h48v0v-24v0v-48v0h64v0v48v0v24v0h48v0v-24v0v-72v0v-72v0v-24v0h-48v0v24v0v48v0h-64v0v-48v0z" />
</svg>
