<?xml version="1.0" standalone="no"?>
<!DOCTYPE svg PUBLIC "-//W3C//DTD SVG 1.1//EN" "http://www.w3.org/Graphics/SVG/1.1/DTD/svg11.dtd" >
<svg xmlns="http://www.w3.org/2000/svg" xmlns:xlink="http://www.w3.org/1999/xlink" version="1.1" viewBox="-10 -40 660 512">
   <path fill="currentColor"
d="M48 -24l-19 -15l19 15l-19 -15l-29 38v0l19 15v0l573 444v0l19 15v0l29 -38v0l-19 -15v0l-45 -35v0v-392v0h-505v0l-23 -17v0zM158 61q8 -4 18 -4q20 1 34 14q13 14 14 34v7l-66 -51v0zM328 193l21 -30l-21 30l21 -30l19 -27v0l20 27v0l120 168v0l1 3v0l-182 -142z
M487 441l-81 -64l81 64l-81 -64h-113h-165v-24v0v-8v0v-9v0l6 -7v0l80 -88v0l8 -9v0l-158 -125v0v334v0h423v0z" />
</svg>
