<?xml version="1.0" standalone="no"?>
<!DOCTYPE svg PUBLIC "-//W3C//DTD SVG 1.1//EN" "http://www.w3.org/Graphics/SVG/1.1/DTD/svg11.dtd" >
<svg xmlns="http://www.w3.org/2000/svg" xmlns:xlink="http://www.w3.org/1999/xlink" version="1.1" viewBox="-10 -40 660 512">
   <path fill="currentColor"
d="M160 25h480h-480h480v384v0h-480v0v-384v0zM224 89v64v-64v64h64v0v-64v0h-64v0zM288 185h-64h64h-64v64v0h64v0v-64v0zM224 281v64v-64v64h64v0v-64v0h-64v0zM384 89h-64h64h-64v64v0h64v0v-64v0zM320 185v64v-64v64h64v0v-64v0h-64v0zM480 281h-160h160h-160v64v0h160
v0v-64v0zM416 89v64v-64v64h64v0v-64v0h-64v0zM480 185h-64h64h-64v64v0h64v0v-64v0zM512 89v64v-64v64h64v0v-64v0h-64v0zM576 185h-64h64h-64v64v0h64v0v-64v0zM512 281v64v-64v64h64v0v-64v0h-64v0zM0 217l96 -96l-96 96l96 -96h32v0v192v0h-32v0l-96 -96v0z" />
</svg>
