<?xml version="1.0" standalone="no"?>
<!DOCTYPE svg PUBLIC "-//W3C//DTD SVG 1.1//EN" "http://www.w3.org/Graphics/SVG/1.1/DTD/svg11.dtd" >
<svg xmlns="http://www.w3.org/2000/svg" xmlns:xlink="http://www.w3.org/1999/xlink" version="1.1" viewBox="-10 -40 532 512">
   <path fill="currentColor"
d="M64 137q1 -48 33 -79v0v0q31 -32 79 -33q44 1 75 29q30 27 36 70q-69 13 -113 65q-45 51 -46 124h384v0q-1 -73 -46 -125t-114 -64q-7 -70 -56 -116q-49 -45 -120 -47q-75 2 -124 52q-50 49 -52 124v336v0h64v0v-336v0zM320 409q27 -1 45 -19v0v0q18 -18 19 -45h-128v0
q1 27 19 45t45 19v0z" />
</svg>
