<?xml version="1.0" standalone="no"?>
<!DOCTYPE svg PUBLIC "-//W3C//DTD SVG 1.1//EN" "http://www.w3.org/Graphics/SVG/1.1/DTD/svg11.dtd" >
<svg xmlns="http://www.w3.org/2000/svg" xmlns:xlink="http://www.w3.org/1999/xlink" version="1.1" viewBox="-10 -40 660 512">
   <path fill="currentColor"
d="M96 -7h-32h32h-32v32v0v288v0h64v0v-256v0h128v0v-64v0h-160v0zM512 57v256v-256v256h64v0v-288v0v-32v0h-32h-160v64v0h128v0zM0 345v48v-48v48l48 48v0h544v0l48 -48v0v-48v0h-640v0zM344 17v-24v24v-24h-48v0v24v0v182v0l-39 -39v0l-17 -17v0l-34 34v0l17 17v0l80 80
v0l17 17v0l17 -17v0l80 -80v0l17 -17v0l-34 -34v0l-17 17v0l-39 39v0v-182v0z" />
</svg>
