<?xml version="1.0" standalone="no"?>
<!DOCTYPE svg PUBLIC "-//W3C//DTD SVG 1.1//EN" "http://www.w3.org/Graphics/SVG/1.1/DTD/svg11.dtd" >
<svg xmlns="http://www.w3.org/2000/svg" xmlns:xlink="http://www.w3.org/1999/xlink" version="1.1" viewBox="-10 -40 660 512">
   <path fill="currentColor"
d="M449 259q-32 39 -49 86h-160v0q-17 -46 -49 -85v-1v0v0v0v0l-16 -22q-30 -43 -31 -100q2 -75 52 -124q49 -50 124 -52q75 2 124 52q50 49 52 124q-1 57 -31 100q-8 11 -16 21v1v0v0v0v0zM240 473v-96v96v-96h160v0v96v0h-160v0zM344 49v-24v24v-24h-48v0v24v0v112v0v24v0
h48v0v-24v0v-112v0zM296 217v48v-48v48h48v0v-48v0h-48v0zM87 -23l6 4l-6 -4l6 4l24 16v0l20 13v0l-26 40v0l-20 -13v0l-24 -16v0l-6 -4v0l-20 -13v0l26 -40v0l20 13v0zM579 17l-6 4l6 -4l-6 4l-24 16v0l-20 13v0l-26 -40v0l20 -13v0l24 -16v0l6 -4v0l20 -13v0l26 40v0
l-20 13v0zM24 121h48h-48h72v48v0h-24h-72v-48v0h24v0zM568 121h48h-48h72v48v0h-24h-72v-48v0h24v0zM117 293l-24 16l24 -16l-24 16l-6 4v0l-20 13v0l-26 -40v0l20 -13v0l6 -4v0l24 -16v0l20 -13v0l26 40v0l-20 13v0zM549 253l24 16l-24 -16l24 16l6 4v0l20 13v0l-26 40v0
l-20 -13v0l-6 -4v0l-24 -16v0l-20 -13v0l26 -40v0l20 13v0z" />
</svg>
