<?xml version="1.0" standalone="no"?>
<!DOCTYPE svg PUBLIC "-//W3C//DTD SVG 1.1//EN" "http://www.w3.org/Graphics/SVG/1.1/DTD/svg11.dtd" >
<svg xmlns="http://www.w3.org/2000/svg" xmlns:xlink="http://www.w3.org/1999/xlink" version="1.1" viewBox="-10 -40 660 512">
   <path fill="currentColor"
d="M144 25q-61 2 -102 42v0v0q-40 41 -42 102q2 61 42 102q41 40 102 42h16v0v-64v0h-16v0q-34 -1 -57 -23q-22 -23 -23 -57q1 -34 23 -57q23 -22 57 -23h160v0q34 1 57 23q22 23 23 57q0 28 -16 48q-16 21 -41 29q-6 1 -11 2l9 64v0q10 -2 20 -5q46 -14 74 -51t29 -87
q-2 -61 -42 -102q-41 -40 -102 -42h-160v0zM496 409q61 -2 102 -42v0v0q40 -41 42 -102q-2 -61 -42 -102q-41 -40 -102 -42h-16v0v64v0h16v0q34 1 57 23q22 23 23 57q-1 34 -23 57q-23 22 -57 23h-160v0q-34 -1 -57 -23q-22 -23 -23 -57q0 -28 16 -48q16 -21 41 -29l12 -2
l-10 -64v0q-10 2 -20 5q-46 14 -74 51t-29 87q2 61 42 102q41 40 102 42h160v0z" />
</svg>
