<?xml version="1.0" standalone="no"?>
<!DOCTYPE svg PUBLIC "-//W3C//DTD SVG 1.1//EN" "http://www.w3.org/Graphics/SVG/1.1/DTD/svg11.dtd" >
<svg xmlns="http://www.w3.org/2000/svg" xmlns:xlink="http://www.w3.org/1999/xlink" version="1.1" viewBox="-10 -40 532 512">
   <path fill="currentColor"
d="M0 -39h512h-512h512v416v0h-208v0l-144 96v0v-96v0h-160v0v-416v0zM280 257v-110v110v-110l31 31v0l17 17v0l34 -34v0l-17 -17v0l-72 -72v0l-17 -17v0l-17 17v0l-72 72v0l-17 17v0l34 34v0l17 -17v0l31 -31v0v110v0v24v0h48v0v-24v0z" />
</svg>
