<?xml version="1.0" standalone="no"?>
<!DOCTYPE svg PUBLIC "-//W3C//DTD SVG 1.1//EN" "http://www.w3.org/Graphics/SVG/1.1/DTD/svg11.dtd" >
<svg xmlns="http://www.w3.org/2000/svg" xmlns:xlink="http://www.w3.org/1999/xlink" version="1.1" viewBox="-10 -40 660 512">
   <path fill="currentColor"
d="M256 473q82 -1 145 -45q-17 -30 -17 -67v-2v0q0 -43 24 -80l92 -141v0q-27 -78 -92 -127t-152 -50q-72 1 -129 35q-58 34 -92 92q-34 57 -35 129q1 72 35 129q34 58 92 92q57 34 129 35v0zM192 121v32v-32v32v32v0h-64v0v-32v0v-32v0v-32v0h64v0v32v0zM288 121v32v-32v32
v32v0h-64v0v-32v0v-32v0v-32v0h64v0v32v0zM384 121v32v-32v32v32v0h-64v0v-32v0v-32v0v-32v0h64v0v32v0zM528 153l-93 144l93 -144l-93 144q-19 28 -19 62v2v0q1 48 33 79q31 32 79 33q48 -1 79 -33q32 -31 33 -79v-2v0q0 -34 -18 -62l-94 -144v0z" />
</svg>
