<?xml version="1.0" standalone="no"?>
<!DOCTYPE svg PUBLIC "-//W3C//DTD SVG 1.1//EN" "http://www.w3.org/Graphics/SVG/1.1/DTD/svg11.dtd" >
<svg xmlns="http://www.w3.org/2000/svg" xmlns:xlink="http://www.w3.org/1999/xlink" version="1.1" viewBox="-10 -40 661 512">
   <path fill="currentColor"
d="M256 473q51 0 95 -18q-29 -27 -46 -63q-17 -37 -17 -79q1 -37 14 -69q13 -33 32 -59h-14v0v-32v0v-32v0v-32v0h64v0v32v0v9v0q26 -24 47 -36l22 -14v0l40 41v0q-29 -72 -92 -115q-63 -44 -145 -45q-72 1 -129 35q-58 34 -92 92q-34 57 -35 129q1 72 35 129q34 58 92 92
q57 34 129 35v0zM192 121v32v-32v32v32v0h-64v0v-32v0v-32v0v-32v0h64v0v32v0zM288 121v32v-32v32v32v0h-64v0v-32v0v-32v0v-32v0h64v0v32v0zM448 121q-23 14 -52 42v0v0q-30 28 -52 66v0v0q-23 39 -24 84q2 68 47 113t113 47q68 -2 113 -47t47 -113q1 -22 -19 -66
q-21 -45 -77 -94l-32 32v0l-64 -64v0zM544 361q-1 27 -19 45v0v0q-18 19 -45 19t-45 -19q-18 -18 -19 -45q1 -24 17 -46q15 -22 30 -36q16 -13 17 -14q1 1 17 14q15 14 30 36q16 22 17 46v0z" />
</svg>
