<?xml version="1.0" standalone="no"?>
<!DOCTYPE svg PUBLIC "-//W3C//DTD SVG 1.1//EN" "http://www.w3.org/Graphics/SVG/1.1/DTD/svg11.dtd" >
<svg xmlns="http://www.w3.org/2000/svg" xmlns:xlink="http://www.w3.org/1999/xlink" version="1.1" viewBox="-10 -40 468 512">
   <path fill="currentColor"
d="M96 -7h-32h32h-32v32v0v192v0h-32h-32v64v0h32h32v128v0v32v0h64v0v-32v0v-128v0h99v0l93 145v0l9 15v0h18h37v-32v0v-128v0h32h32v-64v0h-32h-32v-192v0v-32v0h-64v0v32v0v192v0h-58v0l-134 -209v0l-9 -15v0h-18h-5zM303 281h17h-17h17v27v0l-17 -27v0zM186 217h-58h58
h-58v-91v0l58 91v0z" />
</svg>
