<?xml version="1.0" standalone="no"?>
<!DOCTYPE svg PUBLIC "-//W3C//DTD SVG 1.1//EN" "http://www.w3.org/Graphics/SVG/1.1/DTD/svg11.dtd" >
<svg xmlns="http://www.w3.org/2000/svg" xmlns:xlink="http://www.w3.org/1999/xlink" version="1.1" viewBox="-10 -40 468 512">
   <path fill="currentColor"
d="M0 -7h448h-448h448v448v0h-448v0v-448v0zM64 57v16v-16v16v288v0v16v0h16h304v-16v0v-288v0v-16v0h-16h-160v16v0v99v0q-30 12 -32 45q1 20 14 34q14 13 34 14q20 -1 34 -14q13 -14 14 -34q-2 -33 -32 -45v-83v0h112v0v256v0h-256v0v-256v0h48h16v-32v0h-16h-80z" />
</svg>
