<?xml version="1.0" standalone="no"?>
<!DOCTYPE svg PUBLIC "-//W3C//DTD SVG 1.1//EN" "http://www.w3.org/Graphics/SVG/1.1/DTD/svg11.dtd" >
<svg xmlns="http://www.w3.org/2000/svg" xmlns:xlink="http://www.w3.org/1999/xlink" version="1.1" viewBox="-10 -40 596 512">
   <path fill="currentColor"
d="M0 -7h448h-448h448v129v0q-38 6 -64 33v-82v0v-16v0h-16h-160v16v0v99v0q-30 12 -32 45q1 20 14 34q14 13 34 14q20 -1 34 -14q13 -14 14 -34q-2 -33 -32 -45v-83v0h112v0v144v0v16v0h-32v0v96v0h-224v0v-256v0h48h16v-32v0h-16h-80v16v0v288v0v16v0h16h240v64v0h-320v0
v-448v0zM464 201q-14 0 -23 9v0v0q-9 9 -9 23v48v0h64v0v-48v0q0 -14 -9 -23t-23 -9v0zM384 233q1 -34 23 -57v0v0q23 -22 57 -23q34 1 57 23q22 23 23 57v48v0h32v0v192v0h-224v0v-192v0h32v0v-48v0z" />
</svg>
