<?xml version="1.0" standalone="no"?>
<!DOCTYPE svg PUBLIC "-//W3C//DTD SVG 1.1//EN" "http://www.w3.org/Graphics/SVG/1.1/DTD/svg11.dtd" >
<svg xmlns="http://www.w3.org/2000/svg" xmlns:xlink="http://www.w3.org/1999/xlink" version="1.1" viewBox="-10 -40 596 512">
   <path fill="currentColor"
d="M0 -7h448h-448h448v204v0l-64 64v0v-188v0v-16v0h-16h-160v16v0v99v0q-30 12 -32 45q1 20 14 34q14 13 34 14q20 -1 34 -14q13 -14 14 -34q-2 -33 -32 -45v-83v0h112v0v204v0l-52 52v0h-204v0v-256v0h48h16v-32v0h-16h-80v16v0v288v0v16v0h16h188l-1 1v0l-9 63v0h-258v0
v-448v0zM505 185l71 71l-71 -71l71 71l-41 41v0l-71 -71v0l41 -41v0zM441 249l71 71l-71 -71l71 71l-141 141v0l-83 12v0l12 -83v0l141 -141v0z" />
</svg>
