<?xml version="1.0" standalone="no"?>
<!DOCTYPE svg PUBLIC "-//W3C//DTD SVG 1.1//EN" "http://www.w3.org/Graphics/SVG/1.1/DTD/svg11.dtd" >
<svg xmlns="http://www.w3.org/2000/svg" xmlns:xlink="http://www.w3.org/1999/xlink" version="1.1" viewBox="-10 -40 468 512">
   <path fill="currentColor"
d="M0 -7h448h-448h448v288v0h-128h-32v32v0v128v0h-288v0v-448v0zM403 313h45h-45h45l-32 32v0l-64 64v0l-32 32v0v-45v0v-51v0v-32v0h32h51zM192 89v64v-64v64h-64v0v64v0h64v0v64v0h64v0v-64v0h64v0v-64v0h-64v0v-64v0h-64v0z" />
</svg>
