<?xml version="1.0" standalone="no"?>
<!DOCTYPE svg PUBLIC "-//W3C//DTD SVG 1.1//EN" "http://www.w3.org/Graphics/SVG/1.1/DTD/svg11.dtd" >
<svg xmlns="http://www.w3.org/2000/svg" xmlns:xlink="http://www.w3.org/1999/xlink" version="1.1" viewBox="-10 -40 595 512">
   <path fill="currentColor"
d="M298 115l-74 -74l74 74l-74 -74l-80 -80v0l-112 112v0l144 144v0q9 0 18 1l104 -103v0zM320 361l80 80l-80 -80l80 80l144 32v0l-32 -144v0l-90 -90v0l-103 104v0q1 9 1 18v0zM536 81l39 -40l-39 40l39 -40l-79 -79v0l-40 39v0l-228 229v0l79 79v0l229 -228v0zM205 253
q-14 -4 -29 -4q-48 1 -79 33q-32 31 -33 79v48v0h-64v0v64v0h176v0q48 -1 79 -33q32 -31 33 -79q0 -15 -4 -29v0v0l-79 -79v0v0v0z" />
</svg>
