<?xml version="1.0" standalone="no"?>
<!DOCTYPE svg PUBLIC "-//W3C//DTD SVG 1.1//EN" "http://www.w3.org/Graphics/SVG/1.1/DTD/svg11.dtd" >
<svg xmlns="http://www.w3.org/2000/svg" xmlns:xlink="http://www.w3.org/1999/xlink" version="1.1" viewBox="-10 -40 660 512">
   <path fill="currentColor"
d="M64 -39h256h-256h256v256v0h-256v0v-256v0zM384 25h192h-192h192v192v0h-192v0v-192v0zM0 281h32h-32h640v64v0h-32h-32v64v0h32h32v64v0h-32h-608v-64v0h32h32v-64v0h-32h-32v-64v0zM128 409h160h-160h160v-64v0h-160v0v64v0zM352 409h160h-160h160v-64v0h-160v0v64v0z
" />
</svg>
