<?xml version="1.0" standalone="no"?>
<!DOCTYPE svg PUBLIC "-//W3C//DTD SVG 1.1//EN" "http://www.w3.org/Graphics/SVG/1.1/DTD/svg11.dtd" >
<svg xmlns="http://www.w3.org/2000/svg" xmlns:xlink="http://www.w3.org/1999/xlink" version="1.1" viewBox="-10 -40 660 512">
   <path fill="currentColor"
d="M409 256l76 -76l-76 76l76 -76l-128 -128v0l-92 92v0l-217 -168v0l-19 -15v0l-29 38v0l19 15v0l573 444v0l19 15v0l29 -38v0l-19 -15v0l-212 -164v0zM340 325l-143 -113l143 113l-143 -113l-101 101v0l-32 160v0l160 -32v0l116 -116v0zM507 158l69 -69l-69 69l69 -69
l-128 -128v0l-69 69v0l128 128v0z" />
</svg>
