<?xml version="1.0" standalone="no"?>
<!DOCTYPE svg PUBLIC "-//W3C//DTD SVG 1.1//EN" "http://www.w3.org/Graphics/SVG/1.1/DTD/svg11.dtd" >
<svg xmlns="http://www.w3.org/2000/svg" xmlns:xlink="http://www.w3.org/1999/xlink" version="1.1" viewBox="-10 -40 596 512">
   <path fill="currentColor"
d="M88 -39q-37 1 -62 26v0v0q-25 25 -26 62v8v0v72v0v72v0h144v0v-144v0h-80v0v-8v0q2 -22 24 -24h8h32v-64v0h-32h-8zM264 -39q-37 1 -62 26v0v0q-25 25 -26 62v8v0v72v0v72v0h144v0v-144v0h-80v0v-8v0q2 -22 24 -24h8h32v-64v0h-32h-8zM488 473q37 -1 62 -26v0v0
q25 -25 26 -62v-8v0v-72v0v-72v0h-144v0v144v0h80v0v8v0q-2 22 -24 24h-8h-32v64v0h32h8zM312 473q37 -1 62 -26v0v0q25 -25 26 -62v-8v0v-72v0v-72v0h-144v0v144v0h80v0v8v0q-2 22 -24 24h-8h-32v64v0h32h8z" />
</svg>
