<?xml version="1.0" standalone="no"?>
<!DOCTYPE svg PUBLIC "-//W3C//DTD SVG 1.1//EN" "http://www.w3.org/Graphics/SVG/1.1/DTD/svg11.dtd" >
<svg xmlns="http://www.w3.org/2000/svg" xmlns:xlink="http://www.w3.org/1999/xlink" version="1.1" viewBox="-10 -40 468 512">
   <path fill="currentColor"
d="M448 -7h-448h448h-448v448v0h448v0v-448v0zM224 89q41 1 68 28v0v0q27 27 28 68v64v0q-1 41 -28 68t-68 28q-41 -1 -68 -28t-28 -68v-64v0q1 -41 28 -68t68 -28v0zM176 185v64v-64v64q1 20 14 34q14 13 34 14q20 -1 34 -14q13 -14 14 -34v-64v0q-1 -20 -14 -34
q-14 -13 -34 -14q-20 1 -34 14q-13 14 -14 34v0z" />
</svg>
