<?xml version="1.0" standalone="no"?>
<!DOCTYPE svg PUBLIC "-//W3C//DTD SVG 1.1//EN" "http://www.w3.org/Graphics/SVG/1.1/DTD/svg11.dtd" >
<svg xmlns="http://www.w3.org/2000/svg" xmlns:xlink="http://www.w3.org/1999/xlink" version="1.1" viewBox="-10 -40 468 512">
   <path fill="currentColor"
d="M0 -7h448h-448h448v448v0h-448v0v-448v0zM224 233q-27 -1 -42 -24q-12 -24 0 -48q15 -23 42 -24q27 1 42 24q12 24 0 48q-15 23 -42 24v0zM320 185q-1 -41 -28 -68v0v0q-27 -27 -68 -28q-41 1 -68 28t-28 68q1 38 24 64q24 26 61 31l-45 49v0l-15 16v0h66v0l68 -74v0
q32 -37 33 -86v0z" />
</svg>
