<?xml version="1.0" standalone="no"?>
<!DOCTYPE svg PUBLIC "-//W3C//DTD SVG 1.1//EN" "http://www.w3.org/Graphics/SVG/1.1/DTD/svg11.dtd" >
<svg xmlns="http://www.w3.org/2000/svg" xmlns:xlink="http://www.w3.org/1999/xlink" version="1.1" viewBox="-10 -40 468 512">
   <path fill="currentColor"
d="M448 -7h-448h448h-448v448v0h448v0v-448v0zM337 89l-1 1l1 -1l-1 1l-98 109v0l92 139v0l5 7v0h-58v0l-72 -109v0l-29 33v0v52v0v24v0h-48v0v-24v0v-61v0v-147v0v-24v0h48v0v24v0v84v0l14 -16v0l83 -92v0h64v0z" />
</svg>
