<?xml version="1.0" standalone="no"?>
<!DOCTYPE svg PUBLIC "-//W3C//DTD SVG 1.1//EN" "http://www.w3.org/Graphics/SVG/1.1/DTD/svg11.dtd" >
<svg xmlns="http://www.w3.org/2000/svg" xmlns:xlink="http://www.w3.org/1999/xlink" version="1.1" viewBox="-10 -40 468 512">
   <path fill="currentColor"
d="M448 -7h-448h448h-448v448v0h448v0v-448v0zM160 129v120v-120v120q1 27 19 45t45 19q27 -1 45 -19t19 -45v-120v0v-24v0h48v0v24v0v120v0q-1 48 -33 79q-31 32 -79 33q-48 -1 -79 -33q-32 -31 -33 -79v-120v0v-24v0h48v0v24v0z" />
</svg>
