<?xml version="1.0" standalone="no"?>
<!DOCTYPE svg PUBLIC "-//W3C//DTD SVG 1.1//EN" "http://www.w3.org/Graphics/SVG/1.1/DTD/svg11.dtd" >
<svg xmlns="http://www.w3.org/2000/svg" xmlns:xlink="http://www.w3.org/1999/xlink" version="1.1" viewBox="-10 -40 660 512">
   <path fill="currentColor"
d="M96 -7v352v-352v352h544v0v-128v0q-20 -1 -34 -14q-13 -14 -14 -34q1 -20 14 -34q14 -13 34 -14v-128v0h-544v0zM528 57q15 1 16 16q-1 15 -16 16q-15 -1 -16 -16q1 -15 16 -16v0zM528 121q15 1 16 16q-1 15 -16 16q-15 -1 -16 -16q1 -15 16 -16v0zM512 201q1 -15 16 -16
q15 1 16 16q-1 15 -16 16q-15 -1 -16 -16v0zM528 249q15 1 16 16q-1 15 -16 16q-15 -1 -16 -16q1 -15 16 -16v0zM256 57h48h-48h48l59 88v0h61v0q22 2 24 24q-2 22 -24 24h-61v0l-59 88v0h-48v0l34 -88v0h-48v0l-18 32v0h-32v0l16 -56v0l-16 -56v0h32v0l18 32v0h48v0
l-34 -88v0zM48 81v-24v24v-24h-48v0v24v0v336v0v24v0h24h520v-48v0h-24h-472v-312v0z" />
</svg>
