<?xml version="1.0" standalone="no"?>
<!DOCTYPE svg PUBLIC "-//W3C//DTD SVG 1.1//EN" "http://www.w3.org/Graphics/SVG/1.1/DTD/svg11.dtd" >
<svg xmlns="http://www.w3.org/2000/svg" xmlns:xlink="http://www.w3.org/1999/xlink" version="1.1" viewBox="-10 -40 404 512">
   <path fill="currentColor"
d="M136 -15v8v-8v8h24h16v32v0h-16h-112v-32v0h16h24v-8v0v-24v0h48v0v24v0zM296 -15v8v-8v8h24h16v32v0h-16h-112v-32v0h16h24v-8v0v-24v0h48v0v24v0zM48 57h16h-16h128v32v0h-16h-112v-32v0zM208 57h16h-16h128v32v0h-16h-112v-32v0zM0 121h32h-32h384v64v0h-32v0v224v0
h32v0v64v0h-32h-352v-64v0h32v0v-224v0h-32v0v-64v0zM240 169l-144 144l144 -144l-144 144l71 5v0l-23 107v0l144 -144v0l-70 -5v0l22 -107v0z" />
</svg>
