<?xml version="1.0" standalone="no"?>
<!DOCTYPE svg PUBLIC "-//W3C//DTD SVG 1.1//EN" "http://www.w3.org/Graphics/SVG/1.1/DTD/svg11.dtd" >
<svg xmlns="http://www.w3.org/2000/svg" xmlns:xlink="http://www.w3.org/1999/xlink" version="1.1" viewBox="-10 -40 468 512">
   <path fill="currentColor"
d="M304 -39l16 32l-16 -32l16 32h128v0v64v0h-448v0v-64v0h128v0l16 -32v0h160v0zM32 89h384h-384h384v384v0h-384v0v-384v0zM200 161v80v-80v80h-80v0v48v0h80v0v80v0h48v0v-80v0h80v0v-48v0h-80v0v-80v0h-48v0z" />
</svg>
