<?xml version="1.0" standalone="no"?>
<!DOCTYPE svg PUBLIC "-//W3C//DTD SVG 1.1//EN" "http://www.w3.org/Graphics/SVG/1.1/DTD/svg11.dtd" >
<svg xmlns="http://www.w3.org/2000/svg" xmlns:xlink="http://www.w3.org/1999/xlink" version="1.1" viewBox="-10 -40 468 512">
   <path fill="currentColor"
d="M304 -39l16 32l-16 -32l16 32h128v0v64v0h-448v0v-64v0h128v0l16 -32v0h160v0zM32 89h384h-384h384l-24 384v0h-336v0l-24 -384v0zM337 210l17 -17l-17 17l17 -17l-34 -34v0l-17 17v0l-111 111v0l-47 -47v0l-17 -17v0l-34 34v0l17 17v0l64 64v0l17 17v0l17 -17v0
l128 -128v0z" />
</svg>
