<?xml version="1.0" standalone="no"?>
<!DOCTYPE svg PUBLIC "-//W3C//DTD SVG 1.1//EN" "http://www.w3.org/Graphics/SVG/1.1/DTD/svg11.dtd" >
<svg xmlns="http://www.w3.org/2000/svg" xmlns:xlink="http://www.w3.org/1999/xlink" version="1.1" viewBox="-10 -40 596 512">
   <path fill="currentColor"
d="M144 -39l-16 32l16 -32l-16 32h-128v0v64v0h448v0v-64v0h-128v0l-16 -32v0h-160v0zM416 89h-384h384h-384l24 384v0h275v0q-35 -24 -55 -62q-20 -37 -20 -82q2 -69 45 -118q44 -48 111 -57l4 -65v0zM576 329q0 -39 -19 -72v0v0q-19 -33 -53 -53q-34 -19 -72 -19t-72 19
q-34 20 -53 53t-19 72t19 72t53 53q34 19 72 19t72 -19q34 -20 53 -53t19 -72v0zM448 249v16v-16v16v48v0h32h16v32v0h-16h-64v-16v0v-64v0v-16v0h32v0z" />
</svg>
