<?xml version="1.0" standalone="no"?>
<!DOCTYPE svg PUBLIC "-//W3C//DTD SVG 1.1//EN" "http://www.w3.org/Graphics/SVG/1.1/DTD/svg11.dtd" >
<svg xmlns="http://www.w3.org/2000/svg" xmlns:xlink="http://www.w3.org/1999/xlink" version="1.1" viewBox="-10 -40 660 512">
   <path fill="currentColor"
d="M288 -39l16 32l-16 -32l16 32h112v0v64v0h-416v0v-64v0h112v0l16 -32v0h160v0zM32 89h352h-352h352l-24 384v0h-304v0l-24 -384v0zM640 89v64v-64v64h-192v0v-64v0h192v0zM608 217v64v-64v64h-160v0v-64v0h160v0zM448 345h96h-96h96v64v0h-96v0v-64v0z" />
</svg>
