<?xml version="1.0" standalone="no"?>
<!DOCTYPE svg PUBLIC "-//W3C//DTD SVG 1.1//EN" "http://www.w3.org/Graphics/SVG/1.1/DTD/svg11.dtd" >
<svg xmlns="http://www.w3.org/2000/svg" xmlns:xlink="http://www.w3.org/1999/xlink" version="1.1" viewBox="-10 -40 660 512">
   <path fill="currentColor"
d="M576 377h32h-32h64v-64v0h-32v0v-64v0v-32v0v-32v0v-13v0l-9 -10v0l-96 -96v0l-10 -9v0h-13h-128v256v0h-120v0q-28 -31 -72 -32q-44 1 -72 32h-88v0v64v0h64v0q1 41 28 68t68 28q41 -1 68 -28t28 -68h96h32q1 41 28 68t68 28q41 -1 68 -28t28 -68v0zM416 121h51h-51h51
l77 77v0v19v0h-128v0v-96v0zM112 377q1 -27 24 -42q24 -12 48 0q23 15 24 42q-1 27 -24 42q-24 12 -48 0q-23 -15 -24 -42v0zM480 329q27 1 42 24q12 24 0 48q-15 23 -42 24q-27 -1 -42 -24q-12 -24 0 -48q15 -23 42 -24v0z" />
</svg>
