<?xml version="1.0" standalone="no"?>
<!DOCTYPE svg PUBLIC "-//W3C//DTD SVG 1.1//EN" "http://www.w3.org/Graphics/SVG/1.1/DTD/svg11.dtd" >
<svg xmlns="http://www.w3.org/2000/svg" xmlns:xlink="http://www.w3.org/1999/xlink" version="1.1" viewBox="-10 -40 532 512">
   <path fill="currentColor"
d="M0 -39h512h-512h512v448v0h-32v0v64v0h-96v0v-64v0h-256v0v64v0h-96v0v-64v0h-32v0v-448v0zM136 89l-24 96l24 -96l-24 96h288v0l-24 -96v0h-240v0zM128 281q0 -14 -9 -23v0v0q-9 -9 -23 -9t-23 9t-9 23t9 23t23 9t23 -9t9 -23v0zM416 313q14 0 23 -9v0v0q9 -9 9 -23
t-9 -23t-23 -9t-23 9t-9 23t9 23t23 9v0z" />
</svg>
