<?xml version="1.0" standalone="no"?>
<!DOCTYPE svg PUBLIC "-//W3C//DTD SVG 1.1//EN" "http://www.w3.org/Graphics/SVG/1.1/DTD/svg11.dtd" >
<svg xmlns="http://www.w3.org/2000/svg" xmlns:xlink="http://www.w3.org/1999/xlink" version="1.1" viewBox="-10 -40 660 512">
   <path fill="currentColor"
d="M64 -23v-16v16v-16h96v0l224 252v0v-124v0v-32v0h32h109l10 9v0l96 96v0l9 10v0v13v0v32v0v32v0v128v0h-64v0q-1 41 -28 68t-68 28q-41 -1 -68 -28t-28 -68h-128v0q-1 41 -28 68t-68 28q-41 -1 -68 -28t-28 -68h-64v0v-160v0h192v0l-96 -192v0v112v0q-2 33 -32 45v3v0
h-16v0q-20 -1 -34 -14q-13 -14 -14 -34v-16v0v-16v0h32v0v16v0v16v0q1 15 16 16q15 -1 16 -16v-144v0v-16v0zM576 217v-19v19v-19l-77 -77v0h-51v0v96v0h128v0zM208 377q-1 -27 -24 -42q-24 -12 -48 0q-23 15 -24 42q1 27 24 42q24 12 48 0q23 -15 24 -42v0zM480 425
q27 -1 42 -24q12 -24 0 -48q-15 -23 -42 -24q-27 1 -42 24q-12 24 0 48q15 23 42 24v0z" />
</svg>
