<?xml version="1.0" standalone="no"?>
<!DOCTYPE svg PUBLIC "-//W3C//DTD SVG 1.1//EN" "http://www.w3.org/Graphics/SVG/1.1/DTD/svg11.dtd" >
<svg xmlns="http://www.w3.org/2000/svg" xmlns:xlink="http://www.w3.org/1999/xlink" version="1.1" viewBox="-10 -40 404 512">
   <path fill="currentColor"
d="M32 -7h-32h32h-32v64v0h32h128v103v0l-104 26v0l-31 8v0l16 62v0l31 -8v0l88 -22v0v30v0l-104 26v0l-31 8v0l16 62v0l31 -8v0l88 -22v0v87v0v32v0h64v0v-32v0v-103v0l104 -26v0l31 -8v0l-16 -62v0l-31 8v0l-88 22v0v-30v0l104 -26v0l31 -8v0l-16 -62v0l-31 8v0l-88 22v0
v-87v0h128h32v-64v0h-32h-320z" />
</svg>
