<?xml version="1.0" standalone="no"?>
<!DOCTYPE svg PUBLIC "-//W3C//DTD SVG 1.1//EN" "http://www.w3.org/Graphics/SVG/1.1/DTD/svg11.dtd" >
<svg xmlns="http://www.w3.org/2000/svg" xmlns:xlink="http://www.w3.org/1999/xlink" version="1.1" viewBox="-10 -40 532 512">
   <path fill="currentColor"
d="M288 -39v32v-32v32v2v0q97 14 159 84q63 70 65 170h-512v0q2 -100 65 -170q62 -70 159 -84v-2v0v-32v0h64v0zM288 392q-1 34 -24 57v0v0q-23 23 -57 24q-24 0 -43 -12t-30 -33l-2 -5v0l-15 -28v0l57 -29v0l15 29v0l2 4v0q5 10 16 10q16 -1 17 -17v-111v0h64v0v111v0z" />
</svg>
