<?xml version="1.0" standalone="no"?>
<!DOCTYPE svg PUBLIC "-//W3C//DTD SVG 1.1//EN" "http://www.w3.org/Graphics/SVG/1.1/DTD/svg11.dtd" >
<svg xmlns="http://www.w3.org/2000/svg" xmlns:xlink="http://www.w3.org/1999/xlink" version="1.1" viewBox="-10 -40 606 512">
   <path fill="currentColor"
d="M353 -29q44 40 69 95v0v0q26 55 26 119q0 18 -2 36l-116 25v0l-51 -30v0q25 -51 25 -111q0 -47 -16 -89l65 -45v0zM324 280l115 -25l-115 25l115 -25l28 -5v0l13 -3v0l9 9v0l80 80v0l17 17v0l-34 34v0l-17 -17v0l-71 -71v0l-44 9v0q-36 75 -104 119q-69 45 -156 46h-160
v0v-112v0h48v0q55 0 103 -21q47 -21 82 -58l-22 -13v0l-80 41v0l-21 11v0l-22 -42v0l21 -11v0l92 -48v0l12 -7v0l11 7v0l39 24v0l61 36v0z" />
</svg>
