<?xml version="1.0" standalone="no"?>
<!DOCTYPE svg PUBLIC "-//W3C//DTD SVG 1.1//EN" "http://www.w3.org/Graphics/SVG/1.1/DTD/svg11.dtd" >
<svg xmlns="http://www.w3.org/2000/svg" xmlns:xlink="http://www.w3.org/1999/xlink" version="1.1" viewBox="-10 -40 532 512">
   <path fill="currentColor"
d="M141 102q-66 68 -86 133q-17 65 8 87q22 25 87 8q65 -20 133 -86q66 -68 86 -133q17 -65 -8 -87q-22 -25 -87 -8q-65 20 -133 86v0zM260 -30q38 -12 74 -8v0v0q35 3 61 28l41 41v0q37 37 56 84q20 47 20 99q-1 72 -35 131q-35 58 -93 93q-59 34 -131 35q-52 0 -99 -20
q-47 -19 -84 -56l-41 -41v0q-25 -26 -28 -61q-4 -36 8 -74q25 -78 98 -153q75 -73 153 -98v0zM324 59q18 20 -1 65v0v0q-19 44 -67 93q-49 48 -93 67q-45 19 -65 1q-19 -21 1 -65q19 -45 66 -94q49 -47 94 -66q44 -19 65 -1v0zM419 166l-11 -12l11 12l-11 -12l-23 23v0
l12 11v0l32 32v0l11 12v0l23 -23v0l-12 -11v0l-32 -32v0zM363 302l-11 -12l11 12l-11 -12l-23 23v0l12 11v0l32 32v0l11 12v0l23 -23v0l-12 -11v0l-32 -32v0zM227 358l-11 -12l11 12l-11 -12l-23 23v0l12 11v0l32 32v0l11 12v0l23 -23v0l-12 -11v0l-32 -32v0z" />
</svg>
