<?xml version="1.0" standalone="no"?>
<!DOCTYPE svg PUBLIC "-//W3C//DTD SVG 1.1//EN" "http://www.w3.org/Graphics/SVG/1.1/DTD/svg11.dtd" >
<svg xmlns="http://www.w3.org/2000/svg" xmlns:xlink="http://www.w3.org/1999/xlink" version="1.1" viewBox="-10 -40 532 512">
   <path fill="currentColor"
d="M64 -7l-64 64l64 -64l-64 64v384v0h128v0v-64v0h32v0v-64v0h-32v0v-128v0h32v0v-64v0h-32v0v-64v0l-64 -64v0zM320 313v-128v128v-128h32v0v-64v0h-32v0v-64v0l-64 -64v0l-64 64v0v384v0h128v0v-64v0h32v0v-64v0h-32v0zM448 -7l-64 64l64 -64l-64 64v384v0h128v0v-384v0
l-64 -64v0z" />
</svg>
