<?xml version="1.0" standalone="no"?>
<!DOCTYPE svg PUBLIC "-//W3C//DTD SVG 1.1//EN" "http://www.w3.org/Graphics/SVG/1.1/DTD/svg11.dtd" >
<svg xmlns="http://www.w3.org/2000/svg" xmlns:xlink="http://www.w3.org/1999/xlink" version="1.1" viewBox="-10 -40 468 512">
   <path fill="currentColor"
d="M128 89h-128h128h-128v128v0h128v0v-128v0zM128 249h-128h128h-128v128v0h128v0v-128v0zM160 89v128v-128v128h128v0v-128v0h-128v0zM288 249h-128h128h-128v128v0h128v0v-128v0zM320 89v128v-128v128h128v0v-128v0h-128v0zM448 249h-128h128h-128v128v0h128v0v-128v0z
" />
</svg>
