<?xml version="1.0" standalone="no"?>
<!DOCTYPE svg PUBLIC "-//W3C//DTD SVG 1.1//EN" "http://www.w3.org/Graphics/SVG/1.1/DTD/svg11.dtd" >
<svg xmlns="http://www.w3.org/2000/svg" xmlns:xlink="http://www.w3.org/1999/xlink" version="1.1" viewBox="-12 0 534 512">
   <path fill="currentColor"
d="M184 113q59 -56 136 -56v-72v0v-24v0h32h88q31 1 51 21t21 51v24v0h-24h-40q-52 -2 -80 -43v49v0q49 13 88 50q56 59 56 136q0 40 -21 92q-22 52 -71 91t-132 41q-110 -3 -176 -22t-68 -21l-44 -21v0l-2 -64v0l27 -18v0q25 -20 41 -44q16 -25 30 -52v0q15 -30 35 -60
t53 -58v0zM400 249q-1 48 -33 79v0v0q-31 32 -79 33v32v0q61 -2 102 -42q40 -41 42 -102h-32v0z" />
</svg>
