<?xml version="1.0" standalone="no"?>
<!DOCTYPE svg PUBLIC "-//W3C//DTD SVG 1.1//EN" "http://www.w3.org/Graphics/SVG/1.1/DTD/svg11.dtd" >
<svg xmlns="http://www.w3.org/2000/svg" xmlns:xlink="http://www.w3.org/1999/xlink" version="1.1" viewBox="-10 -40 468 512">
   <path fill="currentColor"
d="M80 60v29v-29v29q12 9 49 20t95 12q58 -1 95 -12t49 -20v-29v0l32 -19v0v-32v0l-176 -48v0l-176 48v0v32v0l32 19v0zM227 10l32 12l-32 -12l32 12l5 2v0v6v0q0 14 -7 31q-8 17 -30 27l-3 2v0l-3 -2v0q-22 -10 -30 -27q-7 -17 -7 -31v-6v0l5 -2v0l32 -12v0l3 -2v0l3 2v0z
M98 130q-2 11 -2 23q1 54 37 91q37 36 91 37q54 -1 91 -37q36 -37 37 -91q0 -12 -2 -23q-59 23 -126 23t-126 -23v0zM196 426l-68 -113l68 113l-68 -113h-80v0l-48 160v0h192h256l-48 -160v0h-80v0l-68 113v0l-12 -49v0l32 -64v0h-96v0l32 64v0l-12 49v0zM357 376l6 18
l-6 -18l6 18h19h15l-12 9v0l-16 12v0l6 18v0l5 15v0l-12 -9v0l-16 -12v0l-16 12v0l-12 9v0l5 -15v0l6 -18v0l-16 -12v0l-12 -9v0h15h19l7 -18v0l4 -15v0l5 15v0z" />
</svg>
