<?xml version="1.0" standalone="no"?>
<!DOCTYPE svg PUBLIC "-//W3C//DTD SVG 1.1//EN" "http://www.w3.org/Graphics/SVG/1.1/DTD/svg11.dtd" >
<svg xmlns="http://www.w3.org/2000/svg" xmlns:xlink="http://www.w3.org/1999/xlink" version="1.1" viewBox="-10 -40 660 512">
   <path fill="currentColor"
d="M224 -39v64v-64v64h32h16v96v0h-16h-32v64v0h32h128v-64v0h-32h-16v-128v0v-32v0h-32h-80zM0 249v64v-64v64h32h16v96v0h-16h-32v64v0h32h128v-64v0h-32h-16v-128v0v-32v0h-32h-80zM32 -39h-32h32h-32v32v0v160v0v32v0h32h160v-32v0v-160v0v-32v0h-32h-128zM64 121v-96
v96v-96h64v0v96v0h-64v0zM192 249v32v-32v32v160v0v32v0h32h160v-32v0v-160v0v-32v0h-32h-160zM256 313h64h-64h64v96v0h-64v0v-96v0zM528 201q14 0 23 9v0v0q9 9 9 23v48v0h-64v0v-48v0q0 -14 9 -23t23 -9v0zM448 233v48v-48v48h-32v0v192v0h224v0v-192v0h-32v0v-48v0
q-1 -34 -23 -57q-23 -22 -57 -23q-34 1 -57 23q-22 23 -23 57v0z" />
</svg>
