<?xml version="1.0" standalone="no"?>
<!DOCTYPE svg PUBLIC "-//W3C//DTD SVG 1.1//EN" "http://www.w3.org/Graphics/SVG/1.1/DTD/svg11.dtd" >
<svg xmlns="http://www.w3.org/2000/svg" xmlns:xlink="http://www.w3.org/1999/xlink" version="1.1" viewBox="-10 -40 532 512">
   <path fill="currentColor"
d="M256 473q70 -1 128 -34v0v0q58 -34 94 -94q34 -61 34 -128t-34 -128q-36 -60 -94 -94q-58 -33 -128 -34q-70 1 -128 34q-58 34 -94 94q-34 61 -34 128t34 128q36 60 94 94q58 33 128 34v0zM217 316l39 26l-39 -26l39 26l39 -26v0l9 -6v0l9 6v0l40 26v0l24 -11v0l14 -8v0
l14 29v0l-14 7v0l-32 16v0l-8 5v0l-8 -6v0l-39 -26v0l-39 26v0l-9 6v0l-9 -6v0l-39 -26v0l-39 26v0l-8 6v0l-8 -5v0l-32 -16v0l-14 -7v0l14 -28v0l14 7v0l24 12v0l40 -27v0l9 -6v0l9 6v0zM112 153l119 64l-119 -64l119 64l-119 64v0l46 -64v0l-46 -64v0zM281 217l119 -64
l-119 64l119 -64l-46 64v0l46 64v0l-119 -64v0z" />
</svg>
