<?xml version="1.0" standalone="no"?>
<!DOCTYPE svg PUBLIC "-//W3C//DTD SVG 1.1//EN" "http://www.w3.org/Graphics/SVG/1.1/DTD/svg11.dtd" >
<svg xmlns="http://www.w3.org/2000/svg" xmlns:xlink="http://www.w3.org/1999/xlink" version="1.1" viewBox="-10 -40 596 512">
   <path fill="currentColor"
d="M288 -39q-56 0 -104 22v0v0q-49 22 -84 60q-19 4 -37 9l-13 3v0l-6 10l-1 1v0q-24 39 -35 84l-1 2v0q-5 24 -7 50v0v0v2v2v1v0v9v1v0v0v0v1v0q0 47 14 89l1 2v0q10 28 24 53l21 -30v0q32 64 92 102t136 39q72 -1 129 -35q58 -34 92 -92q34 -57 35 -129q0 -12 -1 -24
l33 10v0q-2 -26 -7 -51l-1 -2v0q-8 -32 -22 -62v0v0q-6 -12 -14 -23q-1 -3 -3 -5q-1 -2 -3 -5q-6 -9 -12 -17l-1 -1v0q-32 -40 -76 -67l-2 -1v0q-1 0 -2 -1l-6 -4l-11 2v0q-24 3 -48 8q-38 -13 -80 -13v0zM301 25q57 -20 119 -27q21 12 39 28q9 8 17 17q-85 -17 -175 -18v0z
M316 122v0v0v0v0q-14 -1 -28 -1q-26 0 -51 2v0v0q-72 4 -140 19v0v0q-29 7 -58 16v-1v0q1 -3 1 -5v0q5 -16 11 -31q8 -20 19 -38q105 -26 218 -26t218 26q11 18 19 38q7 18 12 37q-18 -6 -36 -10q-89 -23 -185 -26v0zM176 201q21 -16 43 -30q20 7 21 30q0 14 -9 23t-23 9
q-13 0 -22 -9t-10 -23v0zM50 187q62 -18 127 -27q-61 45 -108 104q-13 16 -24 33q-7 -20 -10 -41q-3 -19 -3 -39v-9q9 -11 18 -21v0zM373 359q-12 -12 -32 -21v0v0q-19 -9 -45 -9q-20 0 -35 5l-16 5v0l-9 -30v0l15 -5v0q20 -7 45 -7q33 1 58 12t41 26l12 11v0l-22 23v0
l-12 -10v0zM368 169q14 0 23 9v0v0q9 9 9 23t-9 23t-23 9q-13 0 -22 -9t-10 -23q1 -14 10 -23t22 -9v0z" />
</svg>
