<?xml version="1.0" standalone="no"?>
<!DOCTYPE svg PUBLIC "-//W3C//DTD SVG 1.1//EN" "http://www.w3.org/Graphics/SVG/1.1/DTD/svg11.dtd" >
<svg xmlns="http://www.w3.org/2000/svg" xmlns:xlink="http://www.w3.org/1999/xlink" version="1.1" viewBox="-10 -40 532 512">
   <path fill="currentColor"
d="M512 217q0 16 -2 32l-14 163v0l-5 61v0h-54v0l-5 -61v0l-1 -8v0q-11 10 -23 19l-7 15v0l-15 35v0h-28v0l-8 -18v0q-44 18 -94 18q-102 -2 -172 -67l-1 3v0h-54v0l-5 -27v0l-17 -108v0q-7 -27 -7 -57q1 -72 35 -129q34 -58 92 -92q57 -34 129 -35q72 1 129 35q58 34 92 92
q34 57 35 129v0zM56 377v0v0v0v0v0l24 -144v0h-48v0l24 144v0zM344 361l28 64l-28 -64l28 64l28 -64v0v-40v0h-56v0v40v0zM400 305v-40v40v-40h-56v0v40v0h56v0zM328 305v-40v40v-40h-64v0v40v0h64v0zM328 361v-40v40v-40h-64v0v40v0l32 48v0l32 -48v0zM248 265h-64h64h-64
v40v0h64v0v-40v0zM248 321h-64h64h-64v40v0h64v0v-40v0zM168 305v-40v40v-40h-56v0v40v0h56v0zM168 361v-40v40v-40h-56v0v40v0h56v0zM208 169q0 -14 -9 -23v0v0q-9 -9 -23 -9q-13 0 -22 9t-10 23q1 14 10 23t22 9q14 0 23 -9t9 -23v0zM336 201q14 0 23 -9v0v0q9 -9 9 -23
t-9 -23t-23 -9q-13 0 -22 9t-10 23q1 14 10 23t22 9v0zM488 185h-48h48h-48l24 224v0l24 -224v0z" />
</svg>
