<?xml version="1.0" standalone="no"?>
<!DOCTYPE svg PUBLIC "-//W3C//DTD SVG 1.1//EN" "http://www.w3.org/Graphics/SVG/1.1/DTD/svg11.dtd" >
<svg xmlns="http://www.w3.org/2000/svg" xmlns:xlink="http://www.w3.org/1999/xlink" version="1.1" viewBox="-10 -40 532 512">
   <path fill="currentColor"
d="M498 300q14 -39 14 -83q-1 -72 -35 -129q-34 -58 -92 -92q-57 -34 -129 -35q-72 1 -129 35q-58 34 -92 92q-34 57 -35 129q0 43 13 82q8 -2 15 -3l4 -4q18 -17 42 -19q24 -1 43 14l57 -34v0l14 -8v0l38 38v0l-8 15v0l-34 56v0q15 20 14 43q-1 24 -19 42l-4 4q0 8 -3 16
q40 14 84 14q43 0 82 -13q-2 -8 -3 -16l-4 -4q-17 -18 -19 -42q-1 -24 14 -43l-33 -57v0l-9 -13v0l39 -39v0l13 8v0l57 34v0q20 -15 43 -14q24 2 42 19l4 4q8 0 16 3v0zM486 330q-3 -1 -6 -1q-8 -1 -16 3q-1 -8 -7 -14v0q-1 -1 -1 -2q-10 -9 -22 -10q-12 0 -22 8l-1 1l-1 1
q-5 5 -8 13v0v2l-3 -2v0l-21 -12v0l-4 -3v0l-54 -32v0l32 54v0l3 4v0l14 24v0q-8 2 -15 8q-7 7 -9 17q-1 3 -1 7q1 12 10 22v0q1 1 2 1q6 6 14 7q-2 5 -3 10v6v1v0q1 11 9 20q10 9 23 9t23 -9q3 -3 5 -7q15 11 32 10q18 -1 31 -14q13 -14 14 -31q1 -18 -10 -32q4 -2 7 -5
q9 -10 9 -23t-9 -23q-7 -6 -15 -8v0v0zM142 447q1 -3 1 -6q1 -8 -3 -16h1v0q7 -1 13 -7q2 0 2 -1q3 -3 4 -5q12 -20 -2 -39v0l-1 -1v0q-7 -7 -16 -9l14 -23v0l3 -5v0l32 -54v0l-53 32v0l-5 3v0l-24 14v0v-1q-2 -8 -8 -14l-1 -1l-1 -1q-10 -8 -22 -8q-12 1 -22 10v0
q-1 1 -1 2q-6 6 -7 14q-8 -3 -16 -3q-2 0 -5 1q-9 2 -16 8q-9 10 -9 23t9 23q3 3 7 5q-11 14 -10 32q1 17 14 31q14 13 31 14q18 1 32 -10q2 4 6 7q9 9 22 9t23 -9q6 -7 8 -16v1zM112 185h96h-96h112v32v0h-16h-112v-32v0h16v0zM304 185h96h-96h112v32v0h-16h-112v-32v0h16
v0zM389 104q-27 10 -47 23v0v0q-19 14 -27 21l-11 12v0l-11 -12v0v0v0v0v0l-12 -11v0l12 -11v0q9 -10 32 -26q23 -15 54 -26l15 -5v0l5 15v0l5 15v0l-15 5v0zM108 99l10 -30l-10 30l10 -30l15 5v0q31 11 54 26q23 16 32 26l12 11v0l-23 23v0l-11 -12v0q-8 -7 -27 -21
q-20 -13 -47 -23l-15 -5v0z" />
</svg>
