<?xml version="1.0" standalone="no"?>
<!DOCTYPE svg PUBLIC "-//W3C//DTD SVG 1.1//EN" "http://www.w3.org/Graphics/SVG/1.1/DTD/svg11.dtd" >
<svg xmlns="http://www.w3.org/2000/svg" xmlns:xlink="http://www.w3.org/1999/xlink" version="1.1" viewBox="-10 -40 532 512">
   <path fill="currentColor"
d="M0 217q1 -70 34 -128v0v0q34 -58 94 -94q61 -34 128 -34t128 34q60 36 94 94q33 58 34 128q-1 70 -34 128q-34 58 -94 94q-61 34 -128 34t-128 -34q-60 -36 -94 -94q-33 -58 -34 -128v0zM160 281q34 -1 57 -23v0v0q22 -23 23 -57q-1 -32 -21 -54t-51 -26q15 -16 22 -38
l1 -6v0l5 -15v0l-31 -9v0l-4 16v0l-2 5v0q-13 39 -53 46l-12 1v0l-16 2v0l4 32v0l14 -2v0q-16 21 -16 48q1 34 23 57q23 22 57 23v0zM352 281q34 -1 57 -23v0v0q22 -23 23 -57q0 -27 -16 -48l14 2v0l4 -32v0l-16 -2v0l-11 -1v0q-41 -7 -54 -46l-2 -5v0l-4 -16v0l-31 9v0
l5 15v0l1 6v0q7 22 22 38q-31 4 -51 26t-21 54q1 34 23 57q23 22 57 23v0zM280 388l11 12l-11 -12l11 12l24 -22v0l-11 -12v0q-14 -18 -48 -21q-34 3 -48 21l-11 12v0l24 22v0l11 -12v0q7 -10 24 -11q17 1 24 11v0zM128 193q14 0 23 -9v0v0q9 -9 9 -23q0 -9 -4 -16h4
q24 1 40 16q15 16 16 40q-1 24 -16 40q-16 15 -40 16q-24 -1 -40 -16q-15 -16 -16 -40q0 -9 2 -16q9 8 22 8v0zM352 161q0 -9 -4 -16h4q24 1 40 16q15 16 16 40q-1 24 -16 40q-16 15 -40 16q-24 -1 -40 -16q-15 -16 -16 -40q0 -9 2 -16q9 8 22 8q14 0 23 -9t9 -23v0z" />
</svg>
