<?xml version="1.0" standalone="no"?>
<!DOCTYPE svg PUBLIC "-//W3C//DTD SVG 1.1//EN" "http://www.w3.org/Graphics/SVG/1.1/DTD/svg11.dtd" >
<svg xmlns="http://www.w3.org/2000/svg" xmlns:xlink="http://www.w3.org/1999/xlink" version="1.1" viewBox="-10 -40 532 512">
   <path fill="currentColor"
d="M0 217q1 -70 34 -128v0v0q34 -58 94 -94q61 -34 128 -34t128 34q60 36 94 94q33 58 34 128q-1 70 -34 128q-34 58 -94 94q-61 34 -128 34t-128 -34q-60 -36 -94 -94q-33 -58 -34 -128v0zM208 201q0 -14 -9 -23v0v0q-9 -9 -23 -9q-13 0 -22 9t-10 23q1 14 10 23t22 9
q14 0 23 -9t9 -23v0zM336 233q14 0 23 -9v0v0q9 -9 9 -23t-9 -23t-23 -9q-13 0 -22 9t-10 23q1 14 10 23t22 9v0zM144 297v32v-32v32h16h208v-32v0h-16h-208zM329 103q8 -8 19 -7v0v0q11 1 18 11l5 7v0l8 13v0l27 -18v0l-9 -13v0l-5 -7v0q-16 -22 -41 -25q-25 -2 -45 16
l-29 30v0l-12 11v0l23 23v0l11 -12v0l30 -29v0zM128 105h-16h16h-16v32v0h16h80v-32v0h-16h-64z" />
</svg>
