<?xml version="1.0" standalone="no"?>
<!DOCTYPE svg PUBLIC "-//W3C//DTD SVG 1.1//EN" "http://www.w3.org/Graphics/SVG/1.1/DTD/svg11.dtd" >
<svg xmlns="http://www.w3.org/2000/svg" xmlns:xlink="http://www.w3.org/1999/xlink" version="1.1" viewBox="-10 -40 532 512">
   <path fill="currentColor"
d="M0 217q1 -70 34 -128v0v0q34 -58 94 -94q61 -34 128 -34t128 34q60 36 94 94q33 58 34 128q-1 70 -34 128q-34 58 -94 94q-61 34 -128 34t-128 -34q-60 -36 -94 -94q-33 -58 -34 -128v0zM154 274l-25 21l25 -21l-25 21l11 13v0q17 20 46 36t70 17h16v0v-32v0h-16v0
q-33 -1 -56 -13q-22 -13 -36 -29l-10 -13v0zM352 249l-38 51l38 -51l-38 51q-10 13 -10 29q1 20 14 34q14 13 34 14q20 -1 34 -14q13 -14 14 -34q0 -16 -10 -29l-38 -51v0zM208 169q0 -14 -9 -23v0v0q-9 -9 -23 -9q-13 0 -22 9t-10 23q1 14 10 23t22 9q14 0 23 -9t9 -23v0z
M336 201q14 0 23 -9v0v0q9 -9 9 -23t-9 -23t-23 -9q-13 0 -22 9t-10 23q1 14 10 23t22 9v0z" />
</svg>
