<?xml version="1.0" standalone="no"?>
<!DOCTYPE svg PUBLIC "-//W3C//DTD SVG 1.1//EN" "http://www.w3.org/Graphics/SVG/1.1/DTD/svg11.dtd" >
<svg xmlns="http://www.w3.org/2000/svg" xmlns:xlink="http://www.w3.org/1999/xlink" version="1.1" viewBox="-10 -40 586 512">
   <path fill="currentColor"
d="M543 235q-5 67 -40 121v0v0q-35 53 -91 85v0v0q-56 31 -124 32q-72 -1 -129 -35q-58 -34 -92 -92q-34 -57 -35 -129q1 -72 35 -129q34 -58 92 -92q57 -34 129 -35q79 1 141 42q61 41 92 109l-6 6v0l-177 172v0q-22 -9 -50 -9q-54 2 -85 27q-32 25 -41 46l28 14v0
q7 -15 31 -34q25 -19 67 -21q42 2 67 21q24 19 31 34l28 -14v0q-3 -6 -8 -14l10 -10v0l-24 -25v0l-9 -8v0l17 -17v0l9 9v0l25 25v0l15 -15v0l-25 -26v0l-9 -8v0l17 -17v0l9 9v0l25 25v0l16 -15v0l-26 -25v0l-9 -9v0l17 -17v0l9 9v0l26 26v0l15 -15v0l-26 -26v0l-9 -9v0
l17 -17v0l9 9v0l26 26v0l13 -12v0v10v15l1 1v0l-2 2v0zM208 201q14 0 23 -9v0v0q9 -9 9 -23t-9 -23t-23 -9q-13 0 -22 9t-10 23q1 14 10 23t22 9v0zM400 169q0 -14 -9 -23v0v0q-9 -9 -23 -9q-13 0 -22 9t-10 23q1 14 10 23t22 9q14 0 23 -9t9 -23v0z" />
</svg>
