<?xml version="1.0" standalone="no"?>
<!DOCTYPE svg PUBLIC "-//W3C//DTD SVG 1.1//EN" "http://www.w3.org/Graphics/SVG/1.1/DTD/svg11.dtd" >
<svg xmlns="http://www.w3.org/2000/svg" xmlns:xlink="http://www.w3.org/1999/xlink" version="1.1" viewBox="-10 -40 586 512">
   <path fill="currentColor"
d="M544 217q-1 86 -49 151v0v0q-48 65 -125 92q14 -23 14 -51v-31v0q16 -11 16 -25q-1 -20 -33 -34q-31 -13 -79 -14q-48 1 -79 14q-32 14 -33 34q0 14 16 25v31v0q0 28 15 51q-63 -22 -107 -70q27 -23 28 -61q0 -27 -16 -48l-38 -51v0l-26 -34v0l-16 21v0q1 -72 35 -129
q34 -58 92 -92q57 -34 129 -35q72 1 129 35q58 34 92 92q34 57 35 129v0zM96 329q-1 22 -17 36q-13 12 -31 12q-20 -1 -34 -14q-13 -14 -14 -34q0 -16 10 -29l26 -35v0l12 -16v0l20 27v0l18 24v0q10 13 10 29v0zM336 233q0 14 9 23v0v0q9 9 23 9q13 0 22 -9t10 -23
q-1 -14 -10 -23t-22 -9q-14 0 -23 9t-9 23v0zM208 265q13 0 22 -9v0v0q9 -9 10 -23q-1 -14 -10 -23t-22 -9q-14 0 -23 9t-9 23t9 23t23 9v0zM239 121l-23 -23l23 23l-23 -23l-11 12v0l-8 7v0q-29 29 -69 36h-3v0l-15 3v0l5 31v0l16 -2v0l2 -1v0q51 -8 87 -44l7 -8v0l12 -11
v0zM349 132l7 8l-7 -8l7 8q37 36 87 44l2 1v0l16 2v0l6 -31v0l-16 -3v0h-3v0q-40 -7 -69 -36l-8 -7v0l-11 -12v0l-23 23v0l12 11v0zM352 345v64v-64v64q-1 27 -19 45t-45 19q-27 -1 -45 -19t-19 -45v-64v0h48v0v24v0h32v0v-24v0h48v0z" />
</svg>
