<?xml version="1.0" standalone="no"?>
<!DOCTYPE svg PUBLIC "-//W3C//DTD SVG 1.1//EN" "http://www.w3.org/Graphics/SVG/1.1/DTD/svg11.dtd" >
<svg xmlns="http://www.w3.org/2000/svg" xmlns:xlink="http://www.w3.org/1999/xlink" version="1.1" viewBox="-10 -40 532 512">
   <path fill="currentColor"
d="M256 473q70 -1 128 -34v0v0q58 -34 94 -94q34 -61 34 -128t-34 -128q-36 -60 -94 -94q-58 -33 -128 -34q-70 1 -128 34q-58 34 -94 94q-34 61 -34 128t34 128q36 60 94 94q58 33 128 34v0zM96 153h16h-16h80q14 0 23 9t9 23t-9 23t-23 9t-23 -9t-9 -23h-32h-16v-32v0z
M304 153h64h-64h64q14 0 23 9t9 23t-9 23t-23 9t-23 -9t-9 -23h-32h-16v-32v0h16v0zM316 356q-9 -10 -24 -19v0v0q-15 -8 -36 -8t-36 8q-15 9 -24 19l-11 12v0l-24 -22v0l11 -12v0q12 -14 33 -25t51 -12q30 1 51 12t33 25l11 12v0l-24 22v0l-11 -12v0z" />
</svg>
