<?xml version="1.0" standalone="no"?>
<!DOCTYPE svg PUBLIC "-//W3C//DTD SVG 1.1//EN" "http://www.w3.org/Graphics/SVG/1.1/DTD/svg11.dtd" >
<svg xmlns="http://www.w3.org/2000/svg" xmlns:xlink="http://www.w3.org/1999/xlink" version="1.1" viewBox="-10 -40 596 512">
   <path fill="currentColor"
d="M544 217q0 55 -21 102v0v0q-21 47 -57 83l-17 -6v0q-18 -7 -27 -23q25 -19 26 -44q-2 -34 -47 -57q-45 -22 -113 -23q-68 1 -113 23q-45 23 -47 57q1 25 26 44q-8 16 -27 23l-17 6v0q-36 -36 -57 -83t-21 -102q1 -72 35 -129q34 -58 92 -92q57 -34 129 -35q72 1 129 35
q58 34 92 92q34 57 35 129v0zM263 153l-119 -64l119 64l-119 -64l46 64v0l-46 64v0l119 -64v0zM432 89l-119 64l119 -64l-119 64l119 64v0l-46 -64v0l46 -64v0zM32 409q14 0 23 9v0v0q9 9 9 23t-9 23t-23 9t-23 -9t-9 -23t9 -23t23 -9v0zM512 409q0 -14 9 -23v0v0
q9 -9 23 -9t23 9t9 23t-9 23t-23 9t-23 -9t-9 -23v0zM192 357v-57v57v-57q37 -18 96 -19q59 1 96 19v57v0q0 24 14 42q13 19 35 26l47 16v0v32v0h-384v0v-32v0l47 -16v0q22 -7 35 -26q14 -18 14 -42v0zM304 345q-15 1 -16 16q1 15 16 16q15 -1 16 -16q-1 -15 -16 -16v0z
M256 393q-1 -15 -16 -16q-15 1 -16 16q1 15 16 16q15 -1 16 -16v0z" />
</svg>
