<?xml version="1.0" standalone="no"?>
<!DOCTYPE svg PUBLIC "-//W3C//DTD SVG 1.1//EN" "http://www.w3.org/Graphics/SVG/1.1/DTD/svg11.dtd" >
<svg xmlns="http://www.w3.org/2000/svg" xmlns:xlink="http://www.w3.org/1999/xlink" version="1.1" viewBox="-11 0 534 512">
   <path fill="currentColor"
d="M384 439q62 -37 95 -95v0v0q32 -59 33 -126v0v0q1 -67 -34 -129q-37 -61 -95 -94q-59 -33 -126 -34t-129 34q-61 37 -94 95q-33 59 -34 126t34 129q28 47 70 78q41 30 91 43q-18 -25 -19 -57v-44v0q-24 -16 -42 -41l276 -159v0q22 50 10 101q-11 51 -52 87v56v0
q0 23 -10 43q13 -6 26 -13v0zM128 121q36 1 55 32q18 32 0 64q-19 31 -55 32q-36 -1 -55 -32q-18 -32 0 -64q19 -31 55 -32v0zM240 113q1 -41 36 -62q36 -20 72 0q35 21 36 62q-1 41 -36 62q-36 20 -72 0q-35 -21 -36 -62v0zM336 409v-64v64v-64h-48v0v24v0h-32v0v-24v0h-48
v0v64v0q1 27 19 45t45 19q27 -1 45 -19t19 -45v0zM152 185q-2 -22 -24 -24q-22 2 -24 24q2 22 24 24q22 -2 24 -24v0zM296 129q14 0 23 -9v0v0q9 -9 9 -23t-9 -23t-23 -9t-23 9t-9 23t9 23t23 9v0z" />
</svg>
