<?xml version="1.0" standalone="no"?>
<!DOCTYPE svg PUBLIC "-//W3C//DTD SVG 1.1//EN" "http://www.w3.org/Graphics/SVG/1.1/DTD/svg11.dtd" >
<svg xmlns="http://www.w3.org/2000/svg" xmlns:xlink="http://www.w3.org/1999/xlink" version="1.1" viewBox="-10 -40 532 512">
   <path fill="currentColor"
d="M0 -39h512h-512h512v48v0h-512v0v-48v0zM160 57v128v-128v128h-128v0v-128v0h128v0zM160 345v128v-128v128h-128v0v-128v0h128v0zM192 57h128h-128h128v128v0h-128v0v-128v0zM320 345v128v-128v128h-128v0v-128v0h128v0zM352 57h128h-128h128v128v0h-128v0v-128v0z
M480 345v128v-128v128h-128v0v-128v0h128v0zM512 249v48v-48v48h-512v0v-48v0h512v0z" />
</svg>
