<?xml version="1.0" standalone="no"?>
<!DOCTYPE svg PUBLIC "-//W3C//DTD SVG 1.1//EN" "http://www.w3.org/Graphics/SVG/1.1/DTD/svg11.dtd" >
<svg xmlns="http://www.w3.org/2000/svg" xmlns:xlink="http://www.w3.org/1999/xlink" version="1.1" viewBox="-10 -40 660 512">
   <path fill="currentColor"
d="M544 -39h-448h448h-448v176v0h-32v0v-16v0h-64v0v64v0h64v0v-16v0h32v0v208v0h128v0v96v0l144 -96v0h176v0v-208v0h32v0v16v0h64v0v-64v0h-64v0v16v0h-32v0v-176v0zM160 57h320h-320h320v192v0h-320v0v-192v0zM224 185q14 0 23 -9v0v0q9 -9 9 -23t-9 -23t-23 -9t-23 9
t-9 23t9 23t23 9v0zM448 153q0 -14 -9 -23v0v0q-9 -9 -23 -9t-23 9t-9 23t9 23t23 9t23 -9t9 -23v0z" />
</svg>
