<?xml version="1.0" standalone="no"?>
<!DOCTYPE svg PUBLIC "-//W3C//DTD SVG 1.1//EN" "http://www.w3.org/Graphics/SVG/1.1/DTD/svg11.dtd" >
<svg xmlns="http://www.w3.org/2000/svg" xmlns:xlink="http://www.w3.org/1999/xlink" version="1.1" viewBox="-10 -40 660 512">
   <path fill="currentColor"
d="M192 -39q48 1 79 33v0v0q32 31 33 79v112v0h-224v0v-112v0q1 -48 33 -79q31 -32 79 -33v0zM128 57q0 25 19 45q19 19 45 19q25 0 45 -19q19 -20 19 -45q-44 -7 -64 -45q-20 38 -64 45v0zM288 473q1 -1 12 -23v0v0q12 -21 24 -50v0v0q11 -30 12 -55v-32v0q1 -54 37 -91
q37 -36 91 -37q54 1 91 37q36 37 37 91v32v0q1 25 12 55q12 29 24 50q11 22 12 23h-352v0zM392 313h-8q0 32 23 57q25 23 57 23t57 -23q23 -25 23 -57h-8q-24 0 -43 -13q-19 -12 -29 -32q-10 20 -29 32q-19 13 -43 13v0zM261 457l-10 16l10 -16l-10 16h-203v0q-3 0 -24 -34
q-21 -33 -24 -94q1 -33 12 -63q12 -30 26 -56v0v0v0v0q1 -3 3 -6q1 -2 1 -3h294v0q-31 41 -32 96v32v0q-1 27 -21 69q-9 18 -16 30q-2 5 -4 9l-1 1v0q-1 1 -1 2v1v0v0v0v0v0v0v0v0v0v0v0z" />
</svg>
