<?xml version="1.0" standalone="no"?>
<!DOCTYPE svg PUBLIC "-//W3C//DTD SVG 1.1//EN" "http://www.w3.org/Graphics/SVG/1.1/DTD/svg11.dtd" >
<svg xmlns="http://www.w3.org/2000/svg" xmlns:xlink="http://www.w3.org/1999/xlink" version="1.1" viewBox="-10 -40 660 512">
   <path fill="currentColor"
d="M490 -39h17h-17h150v64v0h-32h-84l-89 133v0l-15 -10v0l-24 -16v0l-14 -9v0l98 -148v0l10 -14v0zM351 141l27 17l-27 -17l27 17l24 16v0l26 18v0l-17 27v0l-123 184v0q-23 33 -57 51q-34 19 -74 19q-67 -2 -111 -46t-46 -111v-99v0v-32v0h32h224v32v0v66v0l77 -116v0
l18 -26v0z" />
</svg>
