<?xml version="1.0" standalone="no"?>
<!DOCTYPE svg PUBLIC "-//W3C//DTD SVG 1.1//EN" "http://www.w3.org/Graphics/SVG/1.1/DTD/svg11.dtd" >
<svg xmlns="http://www.w3.org/2000/svg" xmlns:xlink="http://www.w3.org/1999/xlink" version="1.1" viewBox="-10 -40 660 512">
   <path fill="currentColor"
d="M448 -39h-384h384h-384v64v0h384v0v-64v0zM512 57h-512h512h-512v320v0h64v0v96v0h352h208v-32v0v-268v0q15 -14 16 -36q-1 -20 -14 -34q-14 -13 -34 -14q-20 1 -34 14q-13 14 -14 34q1 22 16 36v236v0h-112v0v-32v0h64v0v-320v0zM80 137h72h-72h96v24v0v8v0v5v0l-2 5v0
l-55 118v0h-52v0l3 -8v0l48 -104v0h-38h-24v-48v0h24v0zM263 297h-52h52h-52l3 -8v0l48 -104v0h-38h-24v-48v0h24h96v24v0v8v0v5v0l-2 5v0l-55 118v0zM407 297h-52h52h-52l3 -8v0l48 -104v0h-38h-24v-48v0h24h96v24v0v8v0v5v0l-2 5v0l-55 118v0z" />
</svg>
