<?xml version="1.0" standalone="no"?>
<!DOCTYPE svg PUBLIC "-//W3C//DTD SVG 1.1//EN" "http://www.w3.org/Graphics/SVG/1.1/DTD/svg11.dtd" >
<svg xmlns="http://www.w3.org/2000/svg" xmlns:xlink="http://www.w3.org/1999/xlink" version="1.1" viewBox="-10 -40 650 512">
   <path fill="currentColor"
d="M544 -7h-448h448h-448v448v0h448v0v-448v0zM168 41q22 2 24 24q-2 22 -24 24q-22 -2 -24 -24q2 -22 24 -24v0zM448 65q2 -22 24 -24q22 2 24 24q-2 22 -24 24q-22 -2 -24 -24v0zM168 345q22 2 24 24q-2 22 -24 24q-22 -2 -24 -24q2 -22 24 -24v0zM448 369q2 -22 24 -24
q22 2 24 24q-2 22 -24 24q-22 -2 -24 -24v0zM232 161q1 -24 16 -40v0v0q16 -15 40 -16h57v0q27 1 45 19q17 17 18 44q-1 36 -32 55l-32 18v0v8v0v24v0h-48v0v-24v0v-21v0v-14v0l12 -7v0l44 -26v0q8 -4 8 -13q-1 -14 -15 -15h-57v0q-7 1 -8 8v7v0h-48v0v-7v0zM296 313h48h-48
h48v48v0h-48v0v-48v0z" />
</svg>
