<?xml version="1.0" standalone="no"?>
<!DOCTYPE svg PUBLIC "-//W3C//DTD SVG 1.1//EN" "http://www.w3.org/Graphics/SVG/1.1/DTD/svg11.dtd" >
<svg xmlns="http://www.w3.org/2000/svg" xmlns:xlink="http://www.w3.org/1999/xlink" version="1.1" viewBox="-10 -40 468 512">
   <path fill="currentColor"
d="M224 169q0 -35 18 -61q15 -23 39 -37q25 -13 54 -14h1v0q48 1 79 33q32 31 33 79q0 8 -1 16h-222v0q-1 -8 -1 -16v0zM0 169q1 -48 33 -79v0v0q31 -32 79 -33h1v0q29 1 53 14q24 14 40 37q-14 28 -14 61q0 8 1 16h-192v0q-1 -8 -1 -16v0zM325 25q-63 7 -101 54
q-38 -47 -101 -54q13 -29 40 -46q27 -18 61 -18t61 18q27 17 40 46v0zM5 262l-5 -45l5 45l-5 -45h448v0l-4 45v0q-7 50 -42 82t-86 33h-60v0l80 72v0v24v0h-224v0v-24v0l80 -72v0h-60v0q-51 -1 -86 -33t-41 -82v0z" />
</svg>
