<?xml version="1.0" standalone="no"?>
<!DOCTYPE svg PUBLIC "-//W3C//DTD SVG 1.1//EN" "http://www.w3.org/Graphics/SVG/1.1/DTD/svg11.dtd" >
<svg xmlns="http://www.w3.org/2000/svg" xmlns:xlink="http://www.w3.org/1999/xlink" version="1.1" viewBox="-16 0 543 512">
   <path fill="currentColor"
d="M128 -39q-54 1 -91 37v0v0q-36 37 -37 91v64v0v15v0l14 7v0l85 39v0q-6 9 -10 19h-37v0l-29 -14v0l-14 -7v0l-15 28v0l15 7v0l32 16v0l3 2v0h4h33q-1 8 -1 16v10v0l-21 7v0l-4 1v0l-2 3v0l-32 32v0l-12 11v0l23 23v0l11 -12v0l30 -29v0l28 -9v0l30 30v0l-40 14v0l-4 1v0
l-2 3v0l-32 32v0l-12 11v0l23 23v0l11 -12v0l30 -29v0l52 -17v0l15 15v0l-36 22v0l-8 5v0v9v0v32v0v16v0h32v0v-16v0v-23v0l42 -25v0h108v0l42 25v0v23v0v16v0h32v0v-16v0v-32v0v-9v0l-8 -5v0l-36 -22v0l15 -15v0l52 17v0l30 29v0l11 12v0l23 -23v0l-12 -11v0l-32 -32v0
l-2 -3v0l-4 -1v0l-40 -14v0l30 -30v0l28 9v0l30 29v0l11 12v0l23 -23v0l-12 -11v0l-32 -32v0l-2 -3v0l-4 -1v0l-21 -7v0v-10v0q0 -8 -1 -16h33h4l3 -2v0l32 -16v0l14 -7v0l-14 -29v0l-14 8v0l-29 14v0h-37v0q-4 -10 -10 -19l85 -39v0l14 -7v0v-15v0v-64v0q-1 -54 -37 -91
q-37 -36 -91 -37h-64v0l64 64v0h-64v0q1 27 19 45t45 19h80v0v49v0l-85 39v0q-26 -19 -59 -23v-49v0v-16v0h-32v0v16v0v48v0h-64v0v-48v0v-16v0h-32v0v16v0v49v0q-33 4 -59 23l-85 -39v0v-49v0h80v0q27 -1 45 -19t19 -45h-64v0l64 -64v0h-64v0z" />
</svg>
