<?xml version="1.0" standalone="no"?>
<!DOCTYPE svg PUBLIC "-//W3C//DTD SVG 1.1//EN" "http://www.w3.org/Graphics/SVG/1.1/DTD/svg11.dtd" >
<svg xmlns="http://www.w3.org/2000/svg" xmlns:xlink="http://www.w3.org/1999/xlink" version="1.1" viewBox="-10 -40 533 512">
   <path fill="currentColor"
d="M38 436q37 35 86 37v0v0q48 2 88 -31l20 20v0l45 -45v0l-20 -20v0l179 -179v0l20 20v0l45 -45v0l-20 -20v0q33 -40 31 -88q-2 -49 -37 -87q-40 -37 -91 -37t-90 37l-122 122v0l-20 -20v0l-45 45v0l20 20v0l-89 90v0q-38 39 -38 90t38 91v0zM168 241v48v-48v48h-48v0v-48
v0h48v0zM280 209h48h-48h48v48v0h-48v0v-48v0zM424 49v48v-48v48h-48v0v-48v0h48v0z" />
</svg>
