<?xml version="1.0" standalone="no"?>
<!DOCTYPE svg PUBLIC "-//W3C//DTD SVG 1.1//EN" "http://www.w3.org/Graphics/SVG/1.1/DTD/svg11.dtd" >
<svg xmlns="http://www.w3.org/2000/svg" xmlns:xlink="http://www.w3.org/1999/xlink" version="1.1" viewBox="-10 -40 596 512">
   <path fill="currentColor"
d="M448 25l26 117l-26 -117l26 117l-70 -20v0l-4 -2v0l-4 2v0l-108 30v0l-108 -30v0l-4 -2v0l-4 2v0l-70 20v0l26 -117v0h320v0zM64 312l30 -135l-30 135l30 -135l82 -23v0l108 30v0l4 2v0l4 -2v0l108 -30v0l82 23v0l30 136v0l-448 -1v0zM32 345h512h-512h544v64v0h-32h-544
v-64v0h32v0z" />
</svg>
