<?xml version="1.0" standalone="no"?>
<!DOCTYPE svg PUBLIC "-//W3C//DTD SVG 1.1//EN" "http://www.w3.org/Graphics/SVG/1.1/DTD/svg11.dtd" >
<svg xmlns="http://www.w3.org/2000/svg" xmlns:xlink="http://www.w3.org/1999/xlink" version="1.1" viewBox="-10 -40 596 512">
   <path fill="currentColor"
d="M160 105l15 -30l-15 30l15 -30l-1 -34v0l26 -21v0l14 -30v0l33 -7v0l25 -22v0l32 8v0l32 -8v0l25 22v0l33 7v0l13 30v0l27 21v0l-1 34v0l15 30v0l-15 30v0l1 25v0h-2v0l-40 -10v0l-32 27v0l-40 9v0l-18 38v0l-14 11v0l-14 -11v0l-11 -24v0l-7 -14v0l-15 -4v0l-25 -5v0
l-19 -16v0l-10 -9v0l-12 -17v0l-15 -30v0zM234 214l5 12l-5 -12l5 12l9 18v0l22 18v0v3v0l1 27v0l-12 23v0l-7 14v0l7 14v0l12 23v0l-1 27v0v3v0l-22 18v0l-14 30v0l-33 7v0l-25 22v0l-32 -8v0l-32 8v0l-25 -22v0l-33 -7v0l-14 -30v0l-26 -21v0l1 -34v0l-15 -30v0l15 -30v0
l-1 -34v0l26 -21v0l14 -30v0l33 -7v0l25 -22v0l32 8v0l32 -8v0l25 22v0l8 1v0l25 6v0zM256 105q-1 -15 -16 -16q-15 1 -16 16q1 15 16 16q15 -1 16 -16v0zM509 373q25 8 52 0l1 20v0l-26 21v0l-14 30v0l-33 7v0l-25 22v0l-32 -8v0l-32 8v0l-25 -22v0l-33 -7v0l-13 -30v0
l-27 -21v0l1 -34v0l-15 -30v0l15 -30v0l-1 -34v0l26 -21v0l14 -30v0l32 -7v0l16 -14v0q-11 31 -2 59q11 41 46 75q34 34 75 46v0zM427 196q1 -2 3 -3q18 -13 48 -4q29 9 58 36q24 25 34 52t3 46q-3 6 -7 11q-18 17 -49 8q-31 -8 -61 -37q-29 -30 -37 -61q-9 -31 8 -48v0z
M368 345q15 -1 16 -16q-1 -15 -16 -16q-15 1 -16 16q1 15 16 16v0zM416 393q-1 -15 -16 -16q-15 1 -16 16q1 15 16 16q15 -1 16 -16v0zM80 345q15 -1 16 -16q-1 -15 -16 -16q-15 1 -16 16q1 15 16 16v0zM160 329q-1 -15 -16 -16q-15 1 -16 16q1 15 16 16q15 -1 16 -16v0z
M112 409q15 -1 16 -16q-1 -15 -16 -16q-15 1 -16 16q1 15 16 16v0z" />
</svg>
