<?xml version="1.0" standalone="no"?>
<!DOCTYPE svg PUBLIC "-//W3C//DTD SVG 1.1//EN" "http://www.w3.org/Graphics/SVG/1.1/DTD/svg11.dtd" >
<svg xmlns="http://www.w3.org/2000/svg" xmlns:xlink="http://www.w3.org/1999/xlink" version="1.1" viewBox="-10 -40 660 512">
   <path fill="currentColor"
d="M69 -3l-20 -13l20 13l-20 -13l-26 40v0l20 13v0l48 32v0l20 13v0l26 -40v0l-20 -13v0l-48 -32v0zM597 37l20 -13l-20 13l20 -13l-26 -40v0l-20 13v0l-48 32v0l-20 13v0l26 40v0l20 -13v0l48 -32v0zM24 153h-24h24h-24v48v0h24h96v-48v0h-24h-72zM544 153h-24h24h-24v48v0
h24h96v-48v0h-24h-72zM320 -7q-68 2 -113 47v0v0q-45 45 -47 113v160v0h320v0v-160v0q-2 -68 -47 -113t-113 -47v0zM240 153h-32h32h-32q1 -48 33 -79q31 -32 79 -33v32v0q-34 1 -57 23q-22 23 -23 57v0zM544 345h-448h448h-448v96v0h448v0v-96v0z" />
</svg>
