<?xml version="1.0" standalone="no"?>
<!DOCTYPE svg PUBLIC "-//W3C//DTD SVG 1.1//EN" "http://www.w3.org/Graphics/SVG/1.1/DTD/svg11.dtd" >
<svg xmlns="http://www.w3.org/2000/svg" xmlns:xlink="http://www.w3.org/1999/xlink" version="1.1" viewBox="-10 -40 468 512">
   <path fill="currentColor"
d="M144 105v48v-48v48h160v0v-48v0q-1 -34 -23 -57q-23 -22 -57 -23q-34 1 -57 23q-22 23 -23 57v0zM80 153v-48v48v-48q2 -61 42 -102q41 -40 102 -42q61 2 102 42q40 41 42 102v48v0h80v0v320v0h-448v0v-320v0h80v0zM192 201h-32h32h-32v16v0v32v0h-32h-16v32v0h16h32v64
v0h-32h-16v32v0h16h32v32v0v16v0h32v0v-16v0v-32v0h64v0v32v0v16v0h32v0v-16v0v-32v0h32h16v-32v0h-16h-32v-64v0h32h16v-32v0h-16h-32v-32v0v-16v0h-32v0v16v0v32v0h-64v0v-32v0v-16v0zM192 345v-64v64v-64h64v0v64v0h-64v0z" />
</svg>
