<?xml version="1.0" standalone="no"?>
<!DOCTYPE svg PUBLIC "-//W3C//DTD SVG 1.1//EN" "http://www.w3.org/Graphics/SVG/1.1/DTD/svg11.dtd" >
<svg xmlns="http://www.w3.org/2000/svg" xmlns:xlink="http://www.w3.org/1999/xlink" version="1.1" viewBox="-10 -40 660 512">
   <path fill="currentColor"
d="M320 473q70 -1 128 -34v0v0q58 -34 94 -94q34 -61 34 -128t-34 -128q-36 -60 -94 -94q-58 -33 -128 -34q-70 1 -128 34q-58 34 -94 94q-34 61 -34 128t34 128q36 60 94 94q58 33 128 34v0zM320 25q31 1 51 21v0v0q20 20 21 51v8v0h-144v0v-8v0q1 -31 21 -51t51 -21v0z
M244 161l-14 14l14 -14l-14 14l-32 32v0l-14 14v0l-28 -28v0l14 -14v0l32 -32v0l14 -14v0l28 28v0zM296 185q2 -22 24 -24q22 2 24 24q-2 22 -24 24q-22 -2 -24 -24v0zM416 321q22 2 24 24q-2 22 -24 24q-22 -2 -24 -24q2 -22 24 -24v0zM239 257l-8 8l8 -8l-8 8l16 16v0h33
v0q24 1 40 16q15 16 16 40q-1 24 -16 40q-16 15 -40 16q-24 -1 -40 -16q-15 -16 -16 -40v-33v0l-16 -16v0l-8 8v0l-23 -23v0l12 -11v0l8 -8v0l8 -8v0l11 -12v0l23 23v0zM464 137l11 11l-11 -11l11 11q21 21 21 51v4v0q-1 30 -23 49q-17 13 -39 13h-4v0q-30 0 -51 -21
l-11 -11v0l96 -96v0zM48 121h-48h48h-48v24v0v144v0v24v0h48v0v-24v0v-144v0v-24v0zM640 145v-24v24v-24h-48v0v24v0v144v0v24v0h48v0v-24v0v-144v0z" />
</svg>
