<?xml version="1.0" standalone="no"?>
<!DOCTYPE svg PUBLIC "-//W3C//DTD SVG 1.1//EN" "http://www.w3.org/Graphics/SVG/1.1/DTD/svg11.dtd" >
<svg xmlns="http://www.w3.org/2000/svg" xmlns:xlink="http://www.w3.org/1999/xlink" version="1.1" viewBox="-10 -40 660 512">
   <path fill="currentColor"
d="M64 57v32v-32v32v256v0v32v0h-64v0v-32v0v-256v0v-32v0h64v0zM512 57v32v-32v32v65v0q-8 -1 -16 -1q-25 0 -48 7v-71v0v-32v0h64v0zM320 329q0 8 1 16h-225v0v-256v0h320v0v83v0q-43 23 -69 64t-27 93v0zM352 329q0 -39 19 -72v0v0q19 -33 53 -53q34 -19 72 -19t72 19
q34 20 53 53t19 72t-19 72t-53 53q-34 19 -72 19t-72 -19q-34 -20 -53 -53t-19 -72v0zM575 297l-23 -23l23 23l-23 -23l-11 12v0l-61 60v0l-29 -28v0l-11 -12v0l-23 23v0l12 11v0l40 40v0l11 12v0l11 -12v0l72 -72v0l12 -11v0z" />
</svg>
