<?xml version="1.0" standalone="no"?>
<!DOCTYPE svg PUBLIC "-//W3C//DTD SVG 1.1//EN" "http://www.w3.org/Graphics/SVG/1.1/DTD/svg11.dtd" >
<svg xmlns="http://www.w3.org/2000/svg" xmlns:xlink="http://www.w3.org/1999/xlink" version="1.1" viewBox="-10 -40 532 512">
   <path fill="currentColor"
d="M16 -7h-16h16h-16v16v0v96v0v16v0h16h49q4 68 51 113t116 47h56v0v-192v0h-24h-232v-64v0h432h16v-32v0h-16h-448zM320 281h18h-18h18q15 0 27 9l133 -93v0q-20 -48 -63 -78q-43 -29 -99 -30h-16v0v192v0zM383 316q1 5 1 11q0 7 -2 13l91 36v0q38 -47 39 -111
q0 -18 -4 -36l-125 87v0zM362 366q-5 3 -10 4v70v0q55 -5 96 -39l-86 -35v0zM320 369l-64 -23l64 23l-64 -23l-32 -11v0v34v0v48v0v24v0h24h72v-72v0zM168 153q2 -22 24 -24q22 2 24 24q-2 22 -24 24q-22 -2 -24 -24v0z" />
</svg>
