<?xml version="1.0" standalone="no"?>
<!DOCTYPE svg PUBLIC "-//W3C//DTD SVG 1.1//EN" "http://www.w3.org/Graphics/SVG/1.1/DTD/svg11.dtd" >
<svg xmlns="http://www.w3.org/2000/svg" xmlns:xlink="http://www.w3.org/1999/xlink" version="1.1" viewBox="-10 -40 404 512">
   <path fill="currentColor"
d="M0 -39v96v-96v96v26v0l26 5v0l102 21v0v-65v0l-64 -13v0v-70v0h-64v0zM256 44v65v-65v65l102 -21v0l26 -5v0v-26v0v-96v0h-64v0v70v0l-64 13v0zM160 305q-2 -22 -24 -24q-22 2 -24 24q2 22 24 24q22 -2 24 -24v0zM112 369q-2 -22 -24 -24q-22 2 -24 24q2 22 24 24
q22 -2 24 -24v0zM24 457q22 -2 24 -24q-2 -22 -24 -24q-22 2 -24 24q2 22 24 24v0zM272 305q-2 -22 -24 -24q-22 2 -24 24q2 22 24 24q22 -2 24 -24v0zM192 393q22 -2 24 -24q-2 -22 -24 -24q-22 2 -24 24q2 22 24 24v0zM160 433q-2 -22 -24 -24q-22 2 -24 24q2 22 24 24
q22 -2 24 -24v0zM296 393q22 -2 24 -24q-2 -22 -24 -24q-22 2 -24 24q2 22 24 24v0zM272 433q-2 -22 -24 -24q-22 2 -24 24q2 22 24 24q22 -2 24 -24v0zM360 457q22 -2 24 -24q-2 -22 -24 -24q-22 2 -24 24q2 22 24 24v0zM224 25v-32v32v-32h-64v0v32v0v128v0h-64h-32v64v0
h32h224v-64v0h-32h-64v-128v0z" />
</svg>
