<?xml version="1.0" standalone="no"?>
<!DOCTYPE svg PUBLIC "-//W3C//DTD SVG 1.1//EN" "http://www.w3.org/Graphics/SVG/1.1/DTD/svg11.dtd" >
<svg xmlns="http://www.w3.org/2000/svg" xmlns:xlink="http://www.w3.org/1999/xlink" version="1.1" viewBox="-10 -40 468 512">
   <path fill="currentColor"
d="M448 -7h-448h448h-448v448v0h448v0v-448v0zM128 217q0 26 13 48v0v0q13 22 35 35q23 13 48 13t48 -13q22 -13 35 -35t13 -48t-13 -48t-35 -35q-23 -13 -48 -13t-48 13q-22 13 -35 35t-13 48v0zM224 377q-43 0 -80 -21v0v0q-37 -22 -59 -59q-21 -38 -21 -80t21 -80
q22 -37 59 -59q37 -21 80 -21t80 21q37 22 59 59q21 38 21 80t-21 80q-22 37 -59 59q-37 21 -80 21v0z" />
</svg>
