<?xml version="1.0" standalone="no"?>
<!DOCTYPE svg PUBLIC "-//W3C//DTD SVG 1.1//EN" "http://www.w3.org/Graphics/SVG/1.1/DTD/svg11.dtd" >
<svg xmlns="http://www.w3.org/2000/svg" xmlns:xlink="http://www.w3.org/1999/xlink" version="1.1" viewBox="-10 -40 596 512">
   <path fill="currentColor"
d="M407 -7h-67h67h-67l21 64v0h-146v0l21 -64v0h-67v0l-21 64v0h-36h-32v64v0h32h14l-21 64v0h-33h-32v64v0h32h12l-22 64v0h-30h-32v64v0h32h9l-21 64v0h67v0l21 -64v0h360v0l21 64v0h67v0l-21 -64v0h9h32v-64v0h-32h-30l-22 -64v0h12h32v-64v0h-32h-33l-21 -64v0h14h32
v-64v0h-32h-36l-21 -64v0zM382 121l22 64l-22 -64l22 64h-232v0l22 -64v0h188v0zM425 249l21 64l-21 -64l21 64h-316v0l21 -64v0h274v0z" />
</svg>
