<?xml version="1.0" standalone="no"?>
<!DOCTYPE svg PUBLIC "-//W3C//DTD SVG 1.1//EN" "http://www.w3.org/Graphics/SVG/1.1/DTD/svg11.dtd" >
<svg xmlns="http://www.w3.org/2000/svg" xmlns:xlink="http://www.w3.org/1999/xlink" version="1.1" viewBox="-10 -40 468 512">
   <path fill="currentColor"
d="M64 -7v64v-64v64h-64v0v-64v0h64v0zM160 -7v64v-64v64h-64v0v-64v0h64v0zM192 -7h64h-64h64v64v0h-64v0v-64v0zM352 -7v64v-64v64h-64v0v-64v0h64v0zM384 -7h64h-64h64v64v0h-64v0v-64v0zM64 249l160 -160l-160 160l160 -160l160 160v0v32v0h-96v0v160v0h-128v0v-160v0
h-96v0v-32v0z" />
</svg>
