<?xml version="1.0" standalone="no"?>
<!DOCTYPE svg PUBLIC "-//W3C//DTD SVG 1.1//EN" "http://www.w3.org/Graphics/SVG/1.1/DTD/svg11.dtd" >
<svg xmlns="http://www.w3.org/2000/svg" xmlns:xlink="http://www.w3.org/1999/xlink" version="1.1" viewBox="-10 -40 468 512">
   <path fill="currentColor"
d="M304 89v16v-16v16q-1 34 -23 57q-23 22 -57 23q-34 -1 -57 -23q-22 -23 -23 -57v-16v0q0 -8 2 -16h30h12l7 -10v0l29 -38v0l29 38v0l7 10v0h12h30q2 8 2 16v0zM351 73h9h-9h9v-48v0h-24h-1q-17 -29 -46 -46q-29 -18 -65 -18t-65 18q-29 17 -46 46h-1h-24v48v0h9v0
q-1 8 -1 16v16v0q0 33 15 60l-15 52v0l32 16v0l24 -16v0l8 32v0h32v0l17 -17v0q7 1 15 1t15 -1l17 17v0h32v0l8 -32v0l24 16v0l32 -16v0l-15 -52v0q15 -27 15 -60v-16v0q0 -8 -1 -16v0zM448 473l-64 -192l64 192l-64 -192h-320v0l-64 192v0h448v0z" />
</svg>
