<?xml version="1.0" standalone="no"?>
<!DOCTYPE svg PUBLIC "-//W3C//DTD SVG 1.1//EN" "http://www.w3.org/Graphics/SVG/1.1/DTD/svg11.dtd" >
<svg xmlns="http://www.w3.org/2000/svg" xmlns:xlink="http://www.w3.org/1999/xlink" version="1.1" viewBox="-10 -40 468 512">
   <path fill="currentColor"
d="M304 105q-1 34 -23 57v0v0q-23 22 -57 23q-34 -1 -57 -23q-22 -23 -23 -57v-16v0q0 -8 2 -16h62v0l32 -32v0l16 16v0h41v0q7 15 7 32v16v0zM224 -39q-54 1 -91 37v0v0q-36 37 -37 91v16v0q1 54 37 91q37 36 91 37q54 -1 91 -37q36 -37 37 -91v-16v0q-1 -54 -37 -91
q-37 -36 -91 -37v0zM224 385l-73 -104l73 104l-73 -104h-87v0l-64 192v0h448v0l-64 -192v0h-87v0l-73 104v0z" />
</svg>
