<?xml version="1.0" standalone="no"?>
<!DOCTYPE svg PUBLIC "-//W3C//DTD SVG 1.1//EN" "http://www.w3.org/Graphics/SVG/1.1/DTD/svg11.dtd" >
<svg xmlns="http://www.w3.org/2000/svg" xmlns:xlink="http://www.w3.org/1999/xlink" version="1.1" viewBox="-10 -40 660 512">
   <path fill="currentColor"
d="M384 236v-99v99v-99q2 -71 34 -110q33 -38 70 -52q38 -15 56 -14v208v0v32v0v112v0v48v0l77 59v0l19 15v0l-29 38v0l-19 -15v0l-573 -444v0l-19 -15v0l29 -38v0l19 15v0l67 51v0l13 -66v0h32v0v101v0l20 16v0l12 -117v0h32v0l16 160v0h16v0v-160v0h32v0l32 160v0
q0 30 -16 53l80 62v0zM240 246v195v-195v195v32v0h-64v0v-32v0v-225v0q-32 -6 -53 -28q-22 -23 -26 -55l143 113v0z" />
</svg>
