<?xml version="1.0" standalone="no"?>
<!DOCTYPE svg PUBLIC "-//W3C//DTD SVG 1.1//EN" "http://www.w3.org/Graphics/SVG/1.1/DTD/svg11.dtd" >
<svg xmlns="http://www.w3.org/2000/svg" xmlns:xlink="http://www.w3.org/1999/xlink" version="1.1" viewBox="-10 -40 522 512">
   <path fill="currentColor"
d="M288 -39h-32h32h-32l11 16v0q5 8 5 17q0 13 -9 22t-22 9h-81v0q-27 1 -45 19t-19 45q0 18 9 32h-9v0q-27 1 -45 19t-19 45v64v0h448v0v-64v0q-1 -27 -19 -45t-45 -19h-9v0q9 -14 9 -32q-1 -54 -37 -91q-37 -36 -91 -37v0zM64 281h-16h16h-16v16v0v8v0q1 44 30 74
q30 29 74 30h32v0l-24 64v0h192v0l-24 -64v0h32v0q44 -1 74 -30q29 -30 30 -74v-8v0v-16v0h-16h-384z" />
</svg>
