<?xml version="1.0" standalone="no"?>
<!DOCTYPE svg PUBLIC "-//W3C//DTD SVG 1.1//EN" "http://www.w3.org/Graphics/SVG/1.1/DTD/svg11.dtd" >
<svg xmlns="http://www.w3.org/2000/svg" xmlns:xlink="http://www.w3.org/1999/xlink" version="1.1" viewBox="-10 -40 596 512">
   <path fill="currentColor"
d="M160 -39v64v-64v64h128v0v-64v0h64v0v64v0h96v0v96v0h-448v0v-96v0h96v0v-64v0h64v0zM0 153h448h-448h448v44v0l-181 181v0l-14 95v0h-253v0v-320v0zM288 233h-192h192h-192v48v0h192v0v-48v0zM224 329h-128h128h-128v48v0h128v0v-48v0zM505 185l71 71l-71 -71l71 71
l-41 41v0l-71 -71v0l41 -41v0zM441 249l71 71l-71 -71l71 71l-141 141v0l-83 12v0l12 -83v0l141 -141v0z" />
</svg>
