<?xml version="1.0" standalone="no"?>
<!DOCTYPE svg PUBLIC "-//W3C//DTD SVG 1.1//EN" "http://www.w3.org/Graphics/SVG/1.1/DTD/svg11.dtd" >
<svg xmlns="http://www.w3.org/2000/svg" xmlns:xlink="http://www.w3.org/1999/xlink" version="1.1" viewBox="-10 -40 532 512">
   <path fill="currentColor"
d="M448 313h-384h384h-384v64v0h384v0v-64v0zM512 249v64v-64v64v64v0v64v0h-64h-448v-64v0v-64v0v-64v0h64h168v-64v0h-40h-32v-32v0l73 -73v0l23 -23v0l23 23v0l73 73v0v32v0h-32h-40v64v0h168h64zM0 -7h512h-512h512v192v0h-128v0v-32v0v-13v0l-9 -10v0l-96 -96v0
l-23 -22v0l-23 22v0l-96 96v0l-9 10v0v13v0v32v0h-128v0v-192v0z" />
</svg>
