<?xml version="1.0" standalone="no"?>
<!DOCTYPE svg PUBLIC "-//W3C//DTD SVG 1.1//EN" "http://www.w3.org/Graphics/SVG/1.1/DTD/svg11.dtd" >
<svg xmlns="http://www.w3.org/2000/svg" xmlns:xlink="http://www.w3.org/1999/xlink" version="1.1" viewBox="-10 -40 660 512">
   <path fill="currentColor"
d="M496 153h8v0v0v0q-23 -84 -90 -137t-158 -55q-72 1 -129 35q-58 34 -92 92q-34 57 -35 129q1 72 35 129q34 58 92 92q57 34 129 35q60 0 110 -25q-44 -49 -46 -119q2 -75 52 -124q49 -50 124 -52v0zM320 313q-1 27 -19 45v0v0q-18 18 -45 19q-27 -1 -45 -19t-19 -45
q0 -20 11 -36t29 -23v-205v0v-24v0h48v0v24v0v205v0q18 7 29 23t11 36v0zM144 73q14 0 23 9v0v0q9 9 9 23t-9 23t-23 9t-23 -9t-9 -23t9 -23t23 -9v0zM64 217q0 -14 9 -23v0v0q9 -9 23 -9t23 9t9 23t-9 23t-23 9t-23 -9t-9 -23v0zM336 105q0 -14 9 -23v0v0q9 -9 23 -9t23 9
t9 23t-9 23t-23 9t-23 -9t-9 -23v0zM640 329q0 -39 -19 -72v0v0q-19 -33 -53 -53q-34 -19 -72 -19t-72 19q-34 20 -53 53t-19 72t19 72t53 53q34 19 72 19t72 -19q34 -20 53 -53t19 -72v0zM576 345h-16h16h-160v-32v0h16h144v32v0z" />
</svg>
