<?xml version="1.0" standalone="no"?>
<!DOCTYPE svg PUBLIC "-//W3C//DTD SVG 1.1//EN" "http://www.w3.org/Graphics/SVG/1.1/DTD/svg11.dtd" >
<svg xmlns="http://www.w3.org/2000/svg" xmlns:xlink="http://www.w3.org/1999/xlink" version="1.1" viewBox="-10 -40 596 512">
   <path fill="currentColor"
d="M544 377h-512h512h-544v64v0h32h544v-64v0h-32v0zM528 188l-23 22l23 -22l-23 22l-25 26v0v-211v0v-32v0h-64v0v32v0v211v0l-25 -26v0l-23 -22v0l-45 45v0l22 23v0l80 80v0l23 22v0l23 -22v0l80 -80v0l22 -23v0l-45 -45v0zM208 188l-23 22l23 -22l-23 22l-25 26v0v-211v0
v-32v0h-64v0v32v0v211v0l-25 -26v0l-23 -22v0l-45 45v0l22 23v0l80 80v0l23 22v0l23 -22v0l80 -80v0l22 -23v0l-45 -45v0z" />
</svg>
