<?xml version="1.0" standalone="no"?>
<!DOCTYPE svg PUBLIC "-//W3C//DTD SVG 1.1//EN" "http://www.w3.org/Graphics/SVG/1.1/DTD/svg11.dtd" >
<svg xmlns="http://www.w3.org/2000/svg" xmlns:xlink="http://www.w3.org/1999/xlink" version="1.1" viewBox="-10 -40 522 512">
   <path fill="currentColor"
d="M256 57q-17 0 -32 3v-65v0q16 -2 32 -2q89 2 150 58l42 -42v0l16 16v0v128v0h-128v0l-16 -16v0l41 -41v0q-44 -38 -105 -39v0zM135 112q-38 44 -39 105q0 17 3 32h-65v0q-2 -16 -2 -32q2 -89 58 -150l-42 -42v0l16 -16v0h128v0v128v0l-16 16v0l-41 -41v0zM478 185
q2 16 2 32q-2 89 -58 150l42 42v0l-16 16v0h-128v0v-128v0l16 -16v0l41 41v0q38 -44 39 -105q0 -17 -3 -32h65v0zM256 377q17 0 32 -3v65v0q-16 2 -32 2q-89 -2 -150 -58l-42 42v0l-16 -16v0v-128v0h128v0l16 16v0l-41 41v0q44 38 105 39v0z" />
</svg>
