<?xml version="1.0" standalone="no"?>
<!DOCTYPE svg PUBLIC "-//W3C//DTD SVG 1.1//EN" "http://www.w3.org/Graphics/SVG/1.1/DTD/svg11.dtd" >
<svg xmlns="http://www.w3.org/2000/svg" xmlns:xlink="http://www.w3.org/1999/xlink" version="1.1" viewBox="-10 -40 532 512">
   <path fill="currentColor"
d="M343 -14l-23 -22l23 22l-23 -22l-23 22v0l-80 80v0l-22 23v0l45 45v0l23 -22v0l25 -26v0v131v0h-163v0l26 -25v0l22 -23v0l-45 -45v0l-23 22v0l-80 80v0l-22 23v0l22 23v0l80 80v0l23 22v0l45 -45v0l-22 -23v0l-26 -25v0h163v0v64v0v32v0v64v0v32v0h32h192v-64v0h-32
h-128v-32v0v-32v0v-96v0v-32v0v-131v0l25 26v0l23 22v0l45 -45v0l-22 -23v0l-80 -80v0z" />
</svg>
