<?xml version="1.0" standalone="no"?>
<!DOCTYPE svg PUBLIC "-//W3C//DTD SVG 1.1//EN" "http://www.w3.org/Graphics/SVG/1.1/DTD/svg11.dtd" >
<svg xmlns="http://www.w3.org/2000/svg" xmlns:xlink="http://www.w3.org/1999/xlink" version="1.1" viewBox="-10 -40 532 512">
   <path fill="currentColor"
d="M256 153l-96 -96l96 96l-96 -96v-32v0h64v0v-32v0v-32v0h64v0v32v0v32v0h64v0v32v0l-96 96v0zM416 313l-96 -96l96 96l-96 -96l96 -96v0h32v0v64v0h32h32v64v0h-32h-32v64v0h-32v0zM224 217q0 -14 9 -23v0v0q9 -9 23 -9t23 9t9 23t-9 23t-23 9t-23 -9t-9 -23v0zM256 281
l96 96l-96 -96l96 96v32v0h-64v0v32v0v32v0h-64v0v-32v0v-32v0h-64v0v-32v0l96 -96v0zM96 313h-32h32h-32v-64v0h-32h-32v-64v0h32h32v-64v0h32v0l96 96v0l-96 96v0z" />
</svg>
