<?xml version="1.0" standalone="no"?>
<!DOCTYPE svg PUBLIC "-//W3C//DTD SVG 1.1//EN" "http://www.w3.org/Graphics/SVG/1.1/DTD/svg11.dtd" >
<svg xmlns="http://www.w3.org/2000/svg" xmlns:xlink="http://www.w3.org/1999/xlink" version="1.1" viewBox="-10 -40 660 512">
   <path fill="currentColor"
d="M640 -39h-384h384h-384v128v0h160v0v128v0h-32v0v256v0h256v0v-512v0zM507 222l64 64l-64 -64l64 64l-22 22v0l-37 -36v0v121v0v16v0h-32v0v-16v0v-121v0l-37 36v0l-22 -22v0l64 -64v0l11 -12v0l11 12v0zM0 121v64v-64v64h384v0v-64v0h-384v0zM352 217h-320h320h-320v256
v0h320v0v-256v0zM256 281v32v-32v32h-128v0v-32v0h128v0z" />
</svg>
