<?xml version="1.0" standalone="no"?>
<!DOCTYPE svg PUBLIC "-//W3C//DTD SVG 1.1//EN" "http://www.w3.org/Graphics/SVG/1.1/DTD/svg11.dtd" >
<svg xmlns="http://www.w3.org/2000/svg" xmlns:xlink="http://www.w3.org/1999/xlink" version="1.1" viewBox="-10 -40 660 512">
   <path fill="currentColor"
d="M64 -7h-32h32h-32v64v0h32h40v64v0h-72v0v128v0q41 1 68 28t28 68v96v0h96v0v-96v0q1 -41 28 -68t68 -28q9 0 18 2q23 -44 64 -71q41 -26 94 -27q65 1 112 40v-72v0h-72v0v-64v0h40h32v-64v0h-32h-512zM488 57v64v-64v64h-80v0v-64v0h80v0zM360 57v64v-64v64h-80v0v-64v0
h80v0zM232 57v64v-64v64h-80v0v-64v0h80v0zM496 473q39 0 72 -19v0v0q33 -19 53 -53q19 -34 19 -72t-19 -72q-20 -34 -53 -53t-72 -19t-72 19t-53 53q-19 34 -19 72t19 72q20 34 53 53t72 19v0zM555 292l-36 37l36 -37l-36 37l36 37v0l12 11v0l-23 23v0l-11 -12v0l-37 -36v0
l-37 36v0l-11 12v0l-23 -23v0l12 -11v0l36 -37v0l-36 -37v0l-12 -11v0l23 -23v0l11 12v0l37 36v0l37 -36v0l11 -12v0l23 23v0l-12 11v0z" />
</svg>
