<?xml version="1.0" standalone="no"?>
<!DOCTYPE svg PUBLIC "-//W3C//DTD SVG 1.1//EN" "http://www.w3.org/Graphics/SVG/1.1/DTD/svg11.dtd" >
<svg xmlns="http://www.w3.org/2000/svg" xmlns:xlink="http://www.w3.org/1999/xlink" version="1.1" viewBox="-10 -40 660 512">
   <path fill="currentColor"
d="M32 -7h32h-32h576v64v0h-32h-40v64v0h-8v0q-48 1 -79 33q-32 31 -33 79v16v0h-32v0v24v0q-26 -23 -64 -24q-41 1 -68 28t-28 68v96v0h-96v0v-96v0q-1 -41 -28 -68t-68 -28v-128v0h72v0v-64v0h-40h-32v-64v0zM408 57v64v-64v64h80v0v-64v0h-80v0zM360 121v-64v64v-64h-80
v0v64v0h80v0zM152 57v64v-64v64h80v0v-64v0h-80v0zM528 201q-14 0 -23 9v0v0q-9 9 -9 23v48v0h64v0v-48v0q0 -14 -9 -23t-23 -9v0zM448 233q1 -34 23 -57v0v0q23 -22 57 -23q34 1 57 23q22 23 23 57v48v0h32v0v192v0h-224v0v-192v0h32v0v-48v0z" />
</svg>
