<?xml version="1.0" standalone="no"?>
<!DOCTYPE svg PUBLIC "-//W3C//DTD SVG 1.1//EN" "http://www.w3.org/Graphics/SVG/1.1/DTD/svg11.dtd" >
<svg xmlns="http://www.w3.org/2000/svg" xmlns:xlink="http://www.w3.org/1999/xlink" version="1.1" viewBox="-10 -40 660 512">
   <path fill="currentColor"
d="M0 -39h384h-384h384v232v0q-30 25 -47 60t-17 76t17 76t47 60v8v0h-144v0v-128v0h-96v0v128v0h-144v0v-512v0zM128 185h-64h64h-64v64v0h64v0v-64v0zM160 185v64v-64v64h64v0v-64v0h-64v0zM320 185h-64h64h-64v64v0h64v0v-64v0zM64 57v64v-64v64h64v0v-64v0h-64v0z
M224 57h-64h64h-64v64v0h64v0v-64v0zM256 57v64v-64v64h64v0v-64v0h-64v0zM352 329q0 -39 19 -72v0v0q19 -33 53 -53q34 -19 72 -19t72 19q34 20 53 53t19 72t-19 72t-53 53q-34 19 -72 19t-72 -19q-34 -20 -53 -53t-19 -72v0zM504 250l-23 23l23 -23l-23 23l12 11v0l28 29
v0h-89h-16v32v0h16h89l-28 29v0l-12 11v0l23 23v0l11 -12v0l56 -56v0l12 -11v0l-12 -11v0l-56 -56v0l-11 -12v0z" />
</svg>
