<?xml version="1.0" standalone="no"?>
<!DOCTYPE svg PUBLIC "-//W3C//DTD SVG 1.1//EN" "http://www.w3.org/Graphics/SVG/1.1/DTD/svg11.dtd" >
<svg xmlns="http://www.w3.org/2000/svg" xmlns:xlink="http://www.w3.org/1999/xlink" version="1.1" viewBox="-10 -40 660 512">
   <path fill="currentColor"
d="M384 -39h-384h384h-384v512v0h144v0v-128v0h96v0v128v0h144v0v-8v0q-30 -25 -47 -60t-17 -76t17 -76t47 -60v-232v0zM64 185h64h-64h64v64v0h-64v0v-64v0zM224 185v64v-64v64h-64v0v-64v0h64v0zM256 185h64h-64h64v64v0h-64v0v-64v0zM128 57v64v-64v64h-64v0v-64v0h64v0z
M160 57h64h-64h64v64v0h-64v0v-64v0zM320 57v64v-64v64h-64v0v-64v0h64v0zM640 329q0 -39 -19 -72v0v0q-19 -33 -53 -53q-34 -19 -72 -19t-72 19q-34 20 -53 53t-19 72t19 72t53 53q34 19 72 19t72 -19q34 -20 53 -53t19 -72v0zM575 297l-12 11l12 -11l-12 11l-72 72v0
l-11 12v0l-11 -12v0l-40 -40v0l-12 -11v0l23 -23v0l11 12v0l29 28v0l61 -60v0l11 -12v0l23 23v0z" />
</svg>
