<?xml version="1.0" standalone="no"?>
<!DOCTYPE svg PUBLIC "-//W3C//DTD SVG 1.1//EN" "http://www.w3.org/Graphics/SVG/1.1/DTD/svg11.dtd" >
<svg xmlns="http://www.w3.org/2000/svg" xmlns:xlink="http://www.w3.org/1999/xlink" version="1.1" viewBox="-10 -40 660 512">
   <path fill="currentColor"
d="M384 -39h-384h384h-384v512v0h144v0v-128v0h96v0v128v0h144v0v-8v0q-30 -25 -47 -60t-17 -76t17 -76t47 -60v-232v0zM64 185h64h-64h64v64v0h-64v0v-64v0zM224 185v64v-64v64h-64v0v-64v0h64v0zM256 185h64h-64h64v64v0h-64v0v-64v0zM128 57v64v-64v64h-64v0v-64v0h64v0z
M160 57h64h-64h64v64v0h-64v0v-64v0zM320 57v64v-64v64h-64v0v-64v0h64v0zM496 473q39 0 72 -19v0v0q33 -19 53 -53q19 -34 19 -72t-19 -72q-20 -34 -53 -53t-72 -19t-72 19t-53 53q-19 34 -19 72t19 72q20 34 53 53t72 19v0zM512 409h-32h32h-32v-32v0h32v0v32v0zM512 233
v16v-16v16v80v0v16v0h-32v0v-16v0v-80v0v-16v0h32v0z" />
</svg>
