<?xml version="1.0" standalone="no"?>
<!DOCTYPE svg PUBLIC "-//W3C//DTD SVG 1.1//EN" "http://www.w3.org/Graphics/SVG/1.1/DTD/svg11.dtd" >
<svg xmlns="http://www.w3.org/2000/svg" xmlns:xlink="http://www.w3.org/1999/xlink" version="1.1" viewBox="-10 -40 522 512">
   <path fill="currentColor"
d="M280 -15v80v-80v80v24v0h-48v0v-24v0v-80v0v-24v0h48v0v24v0zM139 121h21h-21h234l8 19v0l47 109v0h36v0v96v0v64v0v64v0h-80v0v-64v0h-256v0v64v0h-80v0v-64v0v-64v0v-96v0h36v0l47 -109v0l8 -19v0zM331 185h-150h150h-150l-27 64v0h204v0l-27 -64v0zM128 353
q22 -2 24 -24q-2 -22 -24 -24q-22 2 -24 24q2 22 24 24v0zM408 329q-2 -22 -24 -24q-22 2 -24 24q2 22 24 24q22 -2 24 -24v0zM56 -17l17 17l-17 -17l17 17l48 48v0l17 17v0l-34 34v0l-17 -17v0l-48 -48v0l-17 -17v0l34 -34v0zM439 0l17 -17l-17 17l17 -17l34 34v0l-17 17v0
l-48 48v0l-17 17v0l-34 -34v0l17 -17v0l48 -48v0z" />
</svg>
