<?xml version="1.0" standalone="no"?>
<!DOCTYPE svg PUBLIC "-//W3C//DTD SVG 1.1//EN" "http://www.w3.org/Graphics/SVG/1.1/DTD/svg11.dtd" >
<svg xmlns="http://www.w3.org/2000/svg" xmlns:xlink="http://www.w3.org/1999/xlink" version="1.1" viewBox="-10 -40 522 512">
   <path fill="currentColor"
d="M418 119q27 -7 44 -28v0v0q17 -21 18 -50q-1 -34 -23 -57q-23 -22 -57 -23q-33 1 -56 23q-22 21 -24 54l-184 74v0q-22 -22 -56 -23q-34 1 -57 23q-22 23 -23 57q1 34 23 57q23 22 57 23q18 0 34 -8l146 128v0q-4 11 -4 24q1 34 23 57q23 22 57 23q34 -1 57 -23
q22 -23 23 -57q-2 -43 -35 -66l37 -208v0zM156 193q4 -10 4 -21l184 -74v0q5 5 11 10l-37 207v0q-9 2 -16 6l-146 -128v0z" />
</svg>
