<?xml version="1.0" standalone="no"?>
<!DOCTYPE svg PUBLIC "-//W3C//DTD SVG 1.1//EN" "http://www.w3.org/Graphics/SVG/1.1/DTD/svg11.dtd" >
<svg xmlns="http://www.w3.org/2000/svg" xmlns:xlink="http://www.w3.org/1999/xlink" version="1.1" viewBox="-10 -40 404 512">
   <path fill="currentColor"
d="M192 -39q-32 1 -56 18v0v0q-24 18 -34 46h-102v0v448v0h384v0v-448v0h-101v0q-11 -28 -35 -46q-24 -17 -56 -18v0zM192 25q14 0 23 9v0v0q9 9 9 23t-9 23t-23 9t-23 -9t-9 -23t9 -23t23 -9v0zM104 209q1 -24 16 -40v0v0q16 -15 40 -16h57v0q27 1 45 19q17 17 18 44
q-1 36 -32 55l-32 18v0v8v0v24v0h-48v0v-24v0v-21v0v-14v0l12 -7v0l44 -26v0q8 -4 8 -13q-1 -14 -15 -15h-57v0q-7 1 -8 8v7v0h-48v0v-7v0zM168 409v-48v48v-48h48v0v48v0h-48v0z" />
</svg>
