<?xml version="1.0" standalone="no"?>
<!DOCTYPE svg PUBLIC "-//W3C//DTD SVG 1.1//EN" "http://www.w3.org/Graphics/SVG/1.1/DTD/svg11.dtd" >
<svg xmlns="http://www.w3.org/2000/svg" xmlns:xlink="http://www.w3.org/1999/xlink" version="1.1" viewBox="-10 -40 597 512">
   <path fill="currentColor"
d="M224 -39q29 0 52 16v0v0q23 15 35 40q23 -23 57 -24q30 1 51 18q21 18 27 46h2v0q27 1 45 19t19 45v64v0h-448v0v-64v0q1 -27 19 -45t45 -19q1 -41 28 -68t68 -28v0zM32 345l72 -128l-72 128l72 -128h48v0l-72 128v0h-48v0zM264 217l-72 128l72 -128l-72 128h-48v0
l72 -128v0h48v0zM328 217h48h-48h48l-72 128v0h-48v0l72 -128v0zM488 217l-72 128l72 -128l-72 128h-48v0l72 -128v0h48v0zM272 454q-31 16 -80 19q-49 -3 -80 -19q-9 -4 -16 -8q-7 4 -16 8q-31 16 -80 19v-64v0q30 -1 54 -13q21 -10 39 -24l1 -1q1 -1 2 -1t2 1q1 0 1 1
q18 14 39 24q24 12 54 13q30 -1 54 -13q21 -10 39 -24l1 -1h1l1 -1q1 0 2 1t2 1q18 14 38 24q24 12 54 13q30 -1 54 -13q21 -10 40 -24v-1q1 -1 3 -1q1 0 2 1q0 1 1 1q18 14 39 24q24 12 54 13v64v0q-50 -3 -81 -19q-9 -4 -15 -8q-7 4 -16 8q-31 16 -80 19q-50 -3 -81 -19
q-9 -4 -15 -8q-7 4 -16 8h-1z" />
</svg>
