<?xml version="1.0" standalone="no"?>
<!DOCTYPE svg PUBLIC "-//W3C//DTD SVG 1.1//EN" "http://www.w3.org/Graphics/SVG/1.1/DTD/svg11.dtd" >
<svg xmlns="http://www.w3.org/2000/svg" xmlns:xlink="http://www.w3.org/1999/xlink" version="1.1" viewBox="-10 -40 660 512">
   <path fill="currentColor"
d="M0 25v80v-80v80l256 176v0l78 -54v0q21 -46 61 -74q41 -29 94 -32l23 -16v0v-80v0h-512v0zM274 307l-18 13l18 -13l-18 13l-18 -13v0l-238 -163v0v265v0h360v0q-39 -47 -40 -112q0 -11 1 -22l-47 32v0zM640 297q0 -39 -19 -72v0v0q-19 -33 -53 -53q-34 -19 -72 -19
t-72 19q-34 20 -53 53t-19 72t19 72t53 53q34 19 72 19t72 -19q34 -20 53 -53t19 -72v0zM575 265l-12 11l12 -11l-12 11l-72 72v0l-11 12v0l-11 -12v0l-40 -40v0l-12 -11v0l23 -23v0l11 12v0l29 28v0l61 -60v0l11 -12v0l23 23v0z" />
</svg>
