<?xml version="1.0" standalone="no"?>
<!DOCTYPE svg PUBLIC "-//W3C//DTD SVG 1.1//EN" "http://www.w3.org/Graphics/SVG/1.1/DTD/svg11.dtd" >
<svg xmlns="http://www.w3.org/2000/svg" xmlns:xlink="http://www.w3.org/1999/xlink" version="1.1" viewBox="-10 -40 596 512">
   <path fill="currentColor"
d="M0 -39h224h-224h224v160v0h160v0v39v0q-56 16 -92 62q-35 45 -36 107q0 45 20 82q20 38 55 62h-331v0v-512v0zM384 89h-128h128h-128v-128v0l128 128v0zM288 329q0 -39 19 -72v0v0q19 -33 53 -53q34 -19 72 -19t72 19q34 20 53 53t19 72t-19 72t-53 53q-34 19 -72 19
t-72 -19q-34 -20 -53 -53t-19 -72v0zM512 345v-32v32v-32h-16h-144v32v0h16h144z" />
</svg>
