<?xml version="1.0" standalone="no"?>
<!DOCTYPE svg PUBLIC "-//W3C//DTD SVG 1.1//EN" "http://www.w3.org/Graphics/SVG/1.1/DTD/svg11.dtd" >
<svg xmlns="http://www.w3.org/2000/svg" xmlns:xlink="http://www.w3.org/1999/xlink" version="1.1" viewBox="-10 -40 596 512">
   <path fill="currentColor"
d="M436 178l71 -57l-71 57l71 -57h69v0v-128v0h-32h-364l-11 7v0l-128 88v0l-33 23v0l46 66v0l33 -23v0l94 -65v0h139v0v32v0h-32h-96v64v0h32h203l9 -7v0zM140 256l-71 57l71 -57l-71 57h-69v0v128v0h32h364l11 -7v0l128 -88v0l33 -23v0l-46 -66v0l-33 23v0l-94 65v0h-139
v0v-32v0h32h96v-64v0h-32h-203l-9 7v0z" />
</svg>
