<?xml version="1.0" standalone="no"?>
<!DOCTYPE svg PUBLIC "-//W3C//DTD SVG 1.1//EN" "http://www.w3.org/Graphics/SVG/1.1/DTD/svg11.dtd" >
<svg xmlns="http://www.w3.org/2000/svg" xmlns:xlink="http://www.w3.org/1999/xlink" version="1.1" viewBox="-10 -40 660 512">
   <path fill="currentColor"
d="M235 -25l63 -11l-63 11l63 -11l11 63v0l-63 11v0l-11 -63v0zM96 121h35h-35h35l29 -29v0l29 29v0h35v0v45v0q43 20 69 58q26 39 27 89q-2 68 -47 113t-113 47q-68 -2 -113 -47t-47 -113q1 -50 27 -89q26 -38 69 -58v-45v0zM160 409q26 0 48 -13v0v0q22 -13 35 -35
q13 -23 13 -48t-13 -48q-13 -22 -35 -35t-48 -13t-48 13t-35 35q-13 23 -13 48t13 48q13 22 35 35t48 13v0zM352 313q0 -39 -14 -73q26 -50 78 -74v-45v0h35v0l29 -29v0l29 29v0h35v0v45v0q43 20 69 58q26 39 27 89q-2 68 -47 113t-113 47q-47 -1 -84 -24q-38 -24 -58 -63
q14 -34 14 -73v0zM576 313q0 -26 -13 -48v0v0q-13 -22 -35 -35q-23 -13 -48 -13t-48 13q-22 13 -35 35t-13 48t13 48t35 35q23 13 48 13t48 -13q22 -13 35 -35t13 -48v0zM201 5l35 53l-35 -53l35 53l-53 35v0l-35 -53v0l53 -35v0zM439 5l53 35l-53 -35l53 35l-35 53v0
l-53 -35v0l35 -53v0zM405 -25l-11 63l11 -63l-11 63l-63 -11v0l11 -63v0l63 11v0z" />
</svg>
