<?xml version="1.0" standalone="no"?>
<!DOCTYPE svg PUBLIC "-//W3C//DTD SVG 1.1//EN" "http://www.w3.org/Graphics/SVG/1.1/DTD/svg11.dtd" >
<svg xmlns="http://www.w3.org/2000/svg" xmlns:xlink="http://www.w3.org/1999/xlink" version="1.1" viewBox="-10 -40 660 512">
   <path fill="currentColor"
d="M320 330q1 45 21 82v0v0q20 37 54 61h-331v0v-224v0h-64v0v-48v0l288 -240v0l233 194v0q-13 -2 -25 -2q-41 0 -76 17t-60 47h-40v0v-64v0h-64v0v64v0h-64v0v64v0h64v0v64v0h64v0v-15v0zM352 329q0 -39 19 -72v0v0q19 -33 53 -53q34 -19 72 -19t72 19q34 20 53 53t19 72
t-19 72t-53 53q-34 19 -72 19t-72 -19q-34 -20 -53 -53t-19 -72v0zM575 297l-23 -23l23 23l-23 -23l-11 12v0l-61 60v0l-29 -28v0l-11 -12v0l-23 23v0l12 11v0l40 40v0l11 12v0l11 -12v0l72 -72v0l12 -11v0z" />
</svg>
