<?xml version="1.0" standalone="no"?>
<!DOCTYPE svg PUBLIC "-//W3C//DTD SVG 1.1//EN" "http://www.w3.org/Graphics/SVG/1.1/DTD/svg11.dtd" >
<svg xmlns="http://www.w3.org/2000/svg" xmlns:xlink="http://www.w3.org/1999/xlink" version="1.1" viewBox="-10 -40 586 512">
   <path fill="currentColor"
d="M240 105q0 -26 -13 -48v0v0q-13 -22 -35 -35q-23 -13 -48 -13t-48 13q-22 13 -35 35t-13 48t13 48t35 35q23 13 48 13t48 -13q22 -13 35 -35t13 -48v0zM284 137q-11 49 -50 80v0v0q-38 31 -90 32q-61 -2 -102 -42q-40 -41 -42 -102q2 -61 42 -102q41 -40 102 -42
q52 1 90 32q39 31 50 80h60v0v-16v0h48h152v48v0v48v0h-48h-152v-16v0h-60v0zM144 41q36 1 55 32q18 32 0 64q-19 31 -55 32q-36 -1 -55 -32q-18 -32 0 -64q19 -31 55 -32v0zM424 201v32v-32v32h120v0v48v0h-288v0v-48v0h120v0v-32v0h48v0zM288 313h224h-224h224v160v0h-224
v0v-160v0zM176 281q20 1 34 14v0v0q13 14 14 34q-1 20 -14 34q-14 13 -34 14h-16v0v32v0h-128v0v-128v0h96h48zM176 345q15 -1 16 -16q-1 -15 -16 -16h-16v0v32v0h16v0zM224 425v48v-48v48h-224v0v-48v0h224v0z" />
</svg>
