<?xml version="1.0" standalone="no"?>
<!DOCTYPE svg PUBLIC "-//W3C//DTD SVG 1.1//EN" "http://www.w3.org/Graphics/SVG/1.1/DTD/svg11.dtd" >
<svg xmlns="http://www.w3.org/2000/svg" xmlns:xlink="http://www.w3.org/1999/xlink" version="1.1" viewBox="-10 -40 660 512">
   <path fill="currentColor"
d="M96 -39h-32h32h-32v32v0v256v0h-64v0v48v0l48 48v0h272v0v-96v0h-192v0v-224v0h320v0v32v0h64v0v-64v0v-32v0h-32h-384zM512 89h-160h160h-160v384v0h288v0v-256v0h-128v0v-128v0zM544 185h96h-96h96l-96 -96v0v96v0z" />
</svg>
