<?xml version="1.0" standalone="no"?>
<!DOCTYPE svg PUBLIC "-//W3C//DTD SVG 1.1//EN" "http://www.w3.org/Graphics/SVG/1.1/DTD/svg11.dtd" >
<svg xmlns="http://www.w3.org/2000/svg" xmlns:xlink="http://www.w3.org/1999/xlink" version="1.1" viewBox="-12 0 598 512">
   <path fill="currentColor"
d="M288 -7h24h-24h72q90 2 150 61q61 58 66 147v0v0v7v0v1v0v72v0v0v0q-1 34 -24 57q-22 22 -56 23h-12v0l45 80v0h-55v0l-46 -80v0h-80v0l-55 80v0h-59v0l56 -80v0h-53v0l-60 80v0h-60v0l65 -87v0l-41 -16v0l-81 103v0h-62v0l271 -343v0l25 -32v0l16 38v0l22 50v0l41 -55v0
l25 -34v0l16 39v0l42 97v0h72v0q-5 -68 -52 -113t-116 -47h-48h-24v-48v0zM404 201l-18 -40l18 40l-18 -40l-30 40v0h48v0zM296 201l2 -3l-2 3l2 -3l-16 -38v0l-33 41v0h47v0zM32 201h119h-119h119l-87 108v0l-32 -12v0v-96v0zM496 281q15 -1 16 -16q-1 -15 -16 -16
q-15 1 -16 16q1 15 16 16v0z" />
</svg>
