<?xml version="1.0" standalone="no"?>
<!DOCTYPE svg PUBLIC "-//W3C//DTD SVG 1.1//EN" "http://www.w3.org/Graphics/SVG/1.1/DTD/svg11.dtd" >
<svg xmlns="http://www.w3.org/2000/svg" xmlns:xlink="http://www.w3.org/1999/xlink" version="1.1" viewBox="-10 -40 660 512">
   <path fill="currentColor"
d="M512 73v64v-64v64h24v0l104 -88v0l-104 -88v0h-24v0v64v0h-128h-24v48v0h24h128zM256 361h-128h128h-128v-64v0h-24v0l-104 88v0l104 88v0h24v0v-64v0h128h24v-48v0h-24v0zM320 113v-88v88v-88h-288v0v291v0l51 -43v0l9 -8v0h12h56v32v0v24v0h96h64v88v0h288v0v-291v0
l-51 43v0l-9 8v0h-12h-56v-32v0v-24v0h-96h-64zM96 153v-64v64v-64h64v0q-1 27 -19 45t-45 19v0zM480 345q1 -27 19 -45v0v0q18 -18 45 -19v64v0h-64v0zM320 153q36 1 55 32q18 32 0 64q-19 31 -55 32q-36 -1 -55 -32q-18 -32 0 -64q19 -31 55 -32v0z" />
</svg>
