<?xml version="1.0" standalone="no"?>
<!DOCTYPE svg PUBLIC "-//W3C//DTD SVG 1.1//EN" "http://www.w3.org/Graphics/SVG/1.1/DTD/svg11.dtd" >
<svg xmlns="http://www.w3.org/2000/svg" xmlns:xlink="http://www.w3.org/1999/xlink" version="1.1" viewBox="-10 -40 660 512">
   <path fill="currentColor"
d="M192 57q27 -1 42 -24q12 -24 0 -48q-15 -23 -42 -24q-27 1 -42 24q-12 24 0 48q15 23 42 24v0zM141 89h-18h18h-18l-9 15v0l-82 128v0l54 34v0l34 -53v0v196v0h-88h-32v64v0h32h608v-64v0h-32h-344v-196v0l34 53v0l54 -34v0l-82 -128v0l-9 -15v0h-18h-102zM200 409h-16
h16h-16v-96v0h16v0v96v0zM599 82l-80 -80l80 80l-80 -80l-23 -22v0l-23 22v0l-80 80v0l-22 23v0l45 45v0l23 -22v0l25 -26v0v243v0v32v0h64v0v-32v0v-243v0l25 26v0l23 22v0l45 -45v0l-22 -23v0z" />
</svg>
