<?xml version="1.0" standalone="no"?>
<!DOCTYPE svg PUBLIC "-//W3C//DTD SVG 1.1//EN" "http://www.w3.org/Graphics/SVG/1.1/DTD/svg11.dtd" >
<svg xmlns="http://www.w3.org/2000/svg" xmlns:xlink="http://www.w3.org/1999/xlink" version="1.1" viewBox="-10 -40 596 512">
   <path fill="currentColor"
d="M112 9q1 -27 24 -42q24 -12 48 0q23 15 24 42q-1 27 -24 42q-24 12 -48 0q-23 -15 -24 -42v0zM91 89h18h-18h138l9 15v0l66 104v0q-23 25 -36 57l-2 1v0l-34 -53v0v228v0v32v0h-64v0v-32v0v-128v0h-16v0v128v0v32v0h-64v0v-32v0v-228v0l-34 53v0l-54 -34v0l82 -128v0
l9 -15v0zM432 185q39 0 72 19v0v0q33 19 53 53q19 34 19 72t-19 72q-20 34 -53 53t-72 19t-72 -19t-53 -53q-19 -34 -19 -72t19 -72q20 -34 53 -53t72 -19v0zM448 265v-16v16v-16h-32v0v16v0v48v0h-48h-16v32v0h16h48v48v0v16v0h32v0v-16v0v-48v0h48h16v-32v0h-16h-48v-48v0
z" />
</svg>
