<?xml version="1.0" standalone="no"?>
<!DOCTYPE svg PUBLIC "-//W3C//DTD SVG 1.1//EN" "http://www.w3.org/Graphics/SVG/1.1/DTD/svg11.dtd" >
<svg xmlns="http://www.w3.org/2000/svg" xmlns:xlink="http://www.w3.org/1999/xlink" version="1.1" viewBox="-10 -40 522 512">
   <path fill="currentColor"
d="M320 -39v32v-32v32v96v0v20v0l-18 9v0l-50 25v0l53 74v0h95h16l10 13v0l48 64v0l19 25v0l-51 39v0l-20 -26v0l-38 -51v0h-96h-1l84 130v0l17 27v0l-53 35v0l-18 -27v0l-157 -243v0v110v0v32v0h-64v0v-32v0v-144v0v-20v0l18 -9v0l142 -71v0v-76v0v-32v0h64v0zM112 -7
q27 1 42 24q12 24 0 48q-15 23 -42 24q-27 -1 -42 -24q-12 -24 0 -48q15 -23 42 -24v0z" />
</svg>
