<?xml version="1.0" standalone="no"?>
<!DOCTYPE svg PUBLIC "-//W3C//DTD SVG 1.1//EN" "http://www.w3.org/Graphics/SVG/1.1/DTD/svg11.dtd" >
<svg xmlns="http://www.w3.org/2000/svg" xmlns:xlink="http://www.w3.org/1999/xlink" version="1.1" viewBox="-10 -40 340 512">
   <path fill="currentColor"
d="M160 57q27 -1 42 -24q12 -24 0 -48q-15 -23 -42 -24q-27 1 -42 24q-12 24 0 48q15 23 42 24v0zM232 473v-32v32v-32v-228v0l34 53v0l54 -34v0l-82 -128v0l-9 -15v0h-18h-43v224v0v128v0v32v0h64v0zM152 345v-256v256v-256h-43h-18l-9 15v0l-82 128v0l54 34v0l42 -66v0
l-48 145v0h40v0v96v0v32v0h64v0v-32v0v-96v0v0v0z" />
</svg>
