<?xml version="1.0" standalone="no"?>
<!DOCTYPE svg PUBLIC "-//W3C//DTD SVG 1.1//EN" "http://www.w3.org/Graphics/SVG/1.1/DTD/svg11.dtd" >
<svg xmlns="http://www.w3.org/2000/svg" xmlns:xlink="http://www.w3.org/1999/xlink" version="1.1" viewBox="-10 -40 660 512">
   <path fill="currentColor"
d="M192 55q1 -29 19 -60v0v0q18 -31 45 -34q28 3 46 34q17 31 18 60v66v0l86 57v0q-39 24 -62 63t-24 88q0 41 17 76t47 60v8v0l-128 -32v0l-128 32v0v-64v0l64 -48v0v-80v0l-192 64v0v-96v0l192 -128v0v-66v0zM352 329q0 -39 19 -72v0v0q19 -33 53 -53q34 -19 72 -19t72 19
q34 20 53 53t19 72t-19 72t-53 53q-34 19 -72 19t-72 -19q-34 -20 -53 -53t-19 -72v0zM575 297l-23 -23l23 23l-23 -23l-11 12v0l-61 60v0l-29 -28v0l-11 -12v0l-23 23v0l12 11v0l40 40v0l11 12v0l11 -12v0l72 -72v0l12 -11v0z" />
</svg>
