<?xml version="1.0" standalone="no"?>
<!DOCTYPE svg PUBLIC "-//W3C//DTD SVG 1.1//EN" "http://www.w3.org/Graphics/SVG/1.1/DTD/svg11.dtd" >
<svg xmlns="http://www.w3.org/2000/svg" xmlns:xlink="http://www.w3.org/1999/xlink" version="1.1" viewBox="-10 -40 596 512">
   <path fill="currentColor"
d="M128 -39h-64h64h-64v32v0v96v0h64v0v-96v0v-32v0zM320 -39h-64h64h-64v32v0v96v0h64v0v-96v0v-32v0zM32 121h-32h32h-32v64v0h32v0v32v0q1 59 37 102q35 43 91 55v99v0h64v0v-99v0q19 -4 35 -12q-3 -16 -3 -33q1 -62 36 -107q36 -46 92 -62v-39v0h-32h-320zM576 329
q0 -39 -19 -72v0v0q-19 -33 -53 -53q-34 -19 -72 -19t-72 19q-34 20 -53 53t-19 72t19 72t53 53q34 19 72 19t72 -19q34 -20 53 -53t19 -72v0zM511 297l-12 11l12 -11l-12 11l-72 72v0l-11 12v0l-11 -12v0l-40 -40v0l-12 -11v0l23 -23v0l11 12v0l29 28v0l61 -60v0l11 -12v0
l23 23v0z" />
</svg>
