<?xml version="1.0" standalone="no"?>
<!DOCTYPE svg PUBLIC "-//W3C//DTD SVG 1.1//EN" "http://www.w3.org/Graphics/SVG/1.1/DTD/svg11.dtd" >
<svg xmlns="http://www.w3.org/2000/svg" xmlns:xlink="http://www.w3.org/1999/xlink" version="1.1" viewBox="-10 -40 596 512">
   <path fill="currentColor"
d="M128 -39h-64h64h-64v32v0v96v0h64v0v-96v0v-32v0zM320 -39h-64h64h-64v32v0v96v0h64v0v-96v0v-32v0zM32 121h-32h32h-32v64v0h32v0v32v0q1 59 37 102q35 43 91 55v99v0h64v0v-99v0q19 -4 35 -12q-3 -16 -3 -33q1 -62 36 -107q36 -46 92 -62v-39v0h-32h-320zM432 473
q39 0 72 -19v0v0q33 -19 53 -53q19 -34 19 -72t-19 -72q-20 -34 -53 -53t-72 -19t-72 19t-53 53q-19 34 -19 72t19 72q20 34 53 53t72 19v0zM448 409h-32h32h-32v-32v0h32v0v32v0zM448 233v16v-16v16v80v0v16v0h-32v0v-16v0v-80v0v-16v0h32v0z" />
</svg>
