<?xml version="1.0" standalone="no"?>
<!DOCTYPE svg PUBLIC "-//W3C//DTD SVG 1.1//EN" "http://www.w3.org/Graphics/SVG/1.1/DTD/svg11.dtd" >
<svg xmlns="http://www.w3.org/2000/svg" xmlns:xlink="http://www.w3.org/1999/xlink" version="1.1" viewBox="-10 -40 660 512">
   <path fill="currentColor"
d="M640 473h-43h43h-43v0v0h43v0v0v0zM395 473v0v0v0h-11v0v0v0h11v0zM576 172q39 20 64 56v-171v0h-160v0l-160 -96v0l-160 96v0h-160v0v416v0h256v0v-96v0q1 -27 19 -45t45 -19v0v0v0v0h1v0q6 -58 42 -99q-19 11 -43 11q-37 -1 -62 -26t-26 -62q1 -37 26 -62t62 -26
q37 1 62 26t26 62q0 28 -15 49q25 -18 55 -26v-39v0h128v0v51v0zM144 153v96v-96v96h-64v0v-96v0h64v0zM144 281v96v-96v96h-64v0v-96v0h64v0zM336 89h-32h32h-32v16v0v32v0v16v0h16h48v-32v0h-16h-16v-16v0v-16v0zM640 329q0 -39 -19 -72v0v0q-19 -33 -53 -53
q-34 -19 -72 -19t-72 19q-34 20 -53 53t-19 72t19 72t53 53q34 19 72 19t72 -19q34 -20 53 -53t19 -72v0zM575 297l-12 11l12 -11l-12 11l-72 72v0l-11 12v0l-11 -12v0l-40 -40v0l-12 -11v0l23 -23v0l11 12v0l29 28v0l61 -60v0l11 -12v0l23 23v0z" />
</svg>
