<?xml version="1.0" standalone="no"?>
<!DOCTYPE svg PUBLIC "-//W3C//DTD SVG 1.1//EN" "http://www.w3.org/Graphics/SVG/1.1/DTD/svg11.dtd" >
<svg xmlns="http://www.w3.org/2000/svg" xmlns:xlink="http://www.w3.org/1999/xlink" version="1.1" viewBox="-10 -40 522 512">
   <path fill="currentColor"
d="M256 -39l12 5l-12 -5l12 5l207 80v0l19 7v0l2 21v0q2 38 -6 91t-32 110t-70 108t-119 84l-13 6v0l-13 -5v0q-73 -33 -119 -85q-46 -51 -70 -108t-32 -110t-5 -91l1 -20v0l19 -8v0l207 -80v0l12 -5v0zM224 169l-64 -64l64 64l-64 -64v128v0q1 41 28 68t68 28q41 -1 68 -28
t28 -68v-128v0l-64 64v0h-64v0zM216 217q15 1 16 16q-1 15 -16 16q-15 -1 -16 -16q1 -15 16 -16v0zM280 233q1 -15 16 -16q15 1 16 16q-1 15 -16 16q-15 -1 -16 -16v0z" />
</svg>
