<?xml version="1.0" standalone="no"?>
<!DOCTYPE svg PUBLIC "-//W3C//DTD SVG 1.1//EN" "http://www.w3.org/Graphics/SVG/1.1/DTD/svg11.dtd" >
<svg xmlns="http://www.w3.org/2000/svg" xmlns:xlink="http://www.w3.org/1999/xlink" version="1.1" viewBox="-10 -40 468 512">
   <path fill="currentColor"
d="M448 -7h-448h448h-448v448v0h448v0v-448v0zM304 102v0v0v0l17 -17v0l34 34v0l-17 17v0h-1v0q-14 17 -6 36q7 18 30 20v0v0h24v0v48v0h-24v0v0v0q-23 2 -30 20q-8 19 6 36h1v0l17 17v0l-34 34v0l-17 -17v0v0v0q-17 -15 -36 -7q-18 7 -20 30v0v0v24v0h-24h-24v-24v0v0v0
q-2 -22 -20 -30q-19 -8 -36 7v0v0l-17 17v0l-17 -17v0v0v0v0v0l-17 -17v0l17 -17v0v0v0q15 -17 7 -36t-30 -20h-24v0v-24v0v0v0v0v0v-24v0h24v0q22 -2 30 -20q8 -19 -7 -36v0v0l-17 -17v0l17 -17v0v0v0v0v0l17 -17v0l17 17v0v0v0q17 15 36 7q18 -8 20 -30v0v0v-24v0h24h24
v24v0v0v0q1 22 20 30t36 -7v0zM192 217q14 0 23 -9v0v0q9 -9 9 -23t-9 -23t-23 -9t-23 9t-9 23t9 23t23 9v0zM280 249q-2 -22 -24 -24q-22 2 -24 24q2 22 24 24q22 -2 24 -24v0z" />
</svg>
