<?xml version="1.0" standalone="no"?>
<!DOCTYPE svg PUBLIC "-//W3C//DTD SVG 1.1//EN" "http://www.w3.org/Graphics/SVG/1.1/DTD/svg11.dtd" >
<svg xmlns="http://www.w3.org/2000/svg" xmlns:xlink="http://www.w3.org/1999/xlink" version="1.1" viewBox="-10 -40 660 512">
   <path fill="currentColor"
d="M416 -39h-416h416h-416v416v0h64v0q1 41 28 68t68 28q41 -1 68 -28t28 -68h128v0q1 41 28 68t68 28q41 -1 68 -28t28 -68h32h32v-64v0h-32v0v-64v0v-32v0v-32v0v-13v0l-9 -10v0l-96 -96v0l-10 -9v0h-13h-64v-96v0zM544 201v16v-16v16h-128v0v-96v0h48h3l77 77v0v3v0z
M160 329q27 1 42 24q12 24 0 48q-15 23 -42 24q-27 -1 -42 -24q-12 -24 0 -48q15 -23 42 -24v0zM432 377q1 -27 24 -42q24 -12 48 0q23 15 24 42q-1 27 -24 42q-24 12 -48 0q-23 -15 -24 -42v0zM208 233q-31 -1 -51 -19v0v0q-20 -19 -21 -47q1 -20 19 -49q17 -29 34 -52
q18 -24 19 -25q1 1 19 25q17 23 34 52q18 29 19 49q-1 28 -21 47q-20 18 -51 19v0z" />
</svg>
