<?xml version="1.0" standalone="no"?>
<!DOCTYPE svg PUBLIC "-//W3C//DTD SVG 1.1//EN" "http://www.w3.org/Graphics/SVG/1.1/DTD/svg11.dtd" >
<svg xmlns="http://www.w3.org/2000/svg" xmlns:xlink="http://www.w3.org/1999/xlink" version="1.1" viewBox="-10 -40 660 512">
   <path fill="currentColor"
d="M384 -7h-352h352h-352v96v0h-32v0v160v0h32v0v32v0h-32v0v64v0h32h32q1 41 28 68t68 28q41 -1 68 -28t28 -68h128v0q1 41 28 68t68 28q41 -1 68 -28t28 -68h32h32v-64v0h-32v0v-96v0h-68v0l-63 -141v0l-8 -19v0h-21h-64v-32v0zM384 89h43h-43h43l43 96v0h-86v0v-96v0z
M160 297q27 1 42 24q12 24 0 48q-15 23 -42 24q-27 -1 -42 -24q-12 -24 0 -48q15 -23 42 -24v0zM480 393q-27 -1 -42 -24q-12 -24 0 -48q15 -23 42 -24q27 1 42 24q12 24 0 48q-15 23 -42 24v0zM128 105v64v-64v64q1 15 16 16q15 -1 16 -16v-64v0v-16v0h32v0v16v0v64v0
q-1 20 -14 34q-14 13 -34 14q-20 -1 -34 -14q-13 -14 -14 -34v-64v0v-16v0h32v0v16v0zM240 89h8h-8h18l4 9v0l26 51v0v-44v0v-16v0h32v0v16v0v96v0v16v0h-16h-18l-4 -9v0l-26 -51v0v44v0v16v0h-32v0v-16v0v-96v0v-16v0h16v0z" />
</svg>
