<?xml version="1.0" standalone="no"?>
<!DOCTYPE svg PUBLIC "-//W3C//DTD SVG 1.1//EN" "http://www.w3.org/Graphics/SVG/1.1/DTD/svg11.dtd" >
<svg xmlns="http://www.w3.org/2000/svg" xmlns:xlink="http://www.w3.org/1999/xlink" version="1.1" viewBox="-10 -40 660 512">
   <path fill="currentColor"
d="M489 18l17 -17l-17 17l17 -17l-34 -34v0l-17 17v0l-72 72v0l-17 17v0l34 34v0l17 -17v0l72 -72v0zM317 0l-23 -23l23 23l-23 -23l-22 23v0q-29 29 -29 68q0 38 29 67l10 11v0l-31 30v0q-5 -42 -36 -75l-23 -22v0l-22 22v0q-28 30 -28 68q0 39 28 68l10 11v0l-30 30v0
q-5 -42 -37 -75l-22 -22v0l-23 22v0q-28 30 -28 68q0 39 28 68l10 11v0l-53 52v0l-22 23v0l45 45v0l23 -22v0l53 -53v0l12 12v0q29 28 68 28q38 0 68 -28l22 -23v0l-22 -22v0q-35 -33 -79 -37l32 -32v0l12 12v0q37 34 83 27v-1v-2q1 -50 25 -90q-24 -13 -50 -16l32 -32v0
l12 12v0q9 9 20 16q43 -53 113 -64q-7 -6 -13 -11l30 -30v0l17 -17v0l-34 -34v0l-17 17v0l-43 44v0q-32 -7 -63 2q9 -33 2 -66l42 -42v0l17 -17v0l-34 -34v0l-17 17v0l-30 30v0q-5 -8 -12 -14v0zM496 473q39 0 72 -19v0v0q33 -19 53 -53q19 -34 19 -72t-19 -72
q-20 -34 -53 -53t-72 -19t-72 19t-53 53q-19 34 -19 72t19 72q20 34 53 53t72 19v0zM512 409h-32h32h-32v-32v0h32v0v32v0zM512 233v16v-16v16v80v0v16v0h-32v0v-16v0v-80v0v-16v0h32v0z" />
</svg>
