<?xml version="1.0" standalone="no"?>
<!DOCTYPE svg PUBLIC "-//W3C//DTD SVG 1.1//EN" "http://www.w3.org/Graphics/SVG/1.1/DTD/svg11.dtd" >
<svg xmlns="http://www.w3.org/2000/svg" xmlns:xlink="http://www.w3.org/1999/xlink" version="1.1" viewBox="-10 -40 660 512">
   <path fill="currentColor"
d="M32 -7h-32h32h-32v64v0h32h608v-64v0h-32h-576zM32 377h-32h32h-32v64v0h32h608v-64v0h-32h-576zM57 144l-17 -17l17 17l-17 -17l-34 34v0l17 17v0l39 39v0l-39 39v0l-17 17v0l34 34v0l17 -17v0l39 -39v0l39 39v0l17 17v0l34 -34v0l-17 -17v0l-39 -39v0l39 -39v0l17 -17
v0l-34 -34v0l-17 17v0l-39 39v0l-39 -39v0zM281 144l-17 -17l17 17l-17 -17l-34 34v0l17 17v0l39 39v0l-39 39v0l-17 17v0l34 34v0l17 -17v0l39 -39v0l39 39v0l17 17v0l34 -34v0l-17 -17v0l-39 -39v0l39 -39v0l17 -17v0l-34 -34v0l-17 17v0l-39 39v0l-39 -39v0zM505 144
l-17 -17l17 17l-17 -17l-34 34v0l17 17v0l39 39v0l-39 39v0l-17 17v0l34 34v0l17 -17v0l39 -39v0l39 39v0l17 17v0l34 -34v0l-17 -17v0l-39 -39v0l39 -39v0l17 -17v0l-34 -34v0l-17 17v0l-39 39v0l-39 -39v0z" />
</svg>
