<?xml version="1.0" standalone="no"?>
<!DOCTYPE svg PUBLIC "-//W3C//DTD SVG 1.1//EN" "http://www.w3.org/Graphics/SVG/1.1/DTD/svg11.dtd" >
<svg xmlns="http://www.w3.org/2000/svg" xmlns:xlink="http://www.w3.org/1999/xlink" version="1.1" viewBox="-10 -40 532 512">
   <path fill="currentColor"
d="M445 185h-61h61h-93v64v0h32h61q-11 61 -53 104q-43 42 -104 53v-61v0v-32v0h-64v0v32v0v61v0q-61 -11 -104 -53q-42 -43 -53 -104h61h32v-64v0h-32h-61q11 -61 53 -104q43 -42 104 -53v7v0v54v0v32v0h64v0v-32v0v-54v0v-7v0q61 11 104 53q42 43 53 104v0zM256 473
q70 -1 128 -34v0v0q58 -34 94 -94q34 -61 34 -128t-34 -128q-36 -60 -94 -94q-58 -33 -128 -34q-70 1 -128 34q-58 34 -94 94q-34 61 -34 128t34 128q36 60 94 94q58 33 128 34v0z" />
</svg>
