<?xml version="1.0" standalone="no"?>
<!DOCTYPE svg PUBLIC "-//W3C//DTD SVG 1.1//EN" "http://www.w3.org/Graphics/SVG/1.1/DTD/svg11.dtd" >
<svg xmlns="http://www.w3.org/2000/svg" xmlns:xlink="http://www.w3.org/1999/xlink" version="1.1" viewBox="-10 -40 532 512">
   <path fill="currentColor"
d="M462 335v0v0v0v-1v0v0v0q0 -1 -1 -2v-2l-6 -12q-7 -17 -23 -46q-16 -28 -40 -63q-25 -34 -59 -69q-35 -34 -70 -59q-34 -25 -62 -40q-29 -16 -46 -23l-12 -6q-2 -1 -3 -1h-1v0v0l-1 -1v0v0v0v0v0v0v0v0v0l-38 -14v0l38 -15v0q48 -20 102 -20q93 2 163 54l21 -22v0l56 56
v0l-22 21v0q52 70 54 163q0 54 -20 102l-15 38v0l-15 -38v0v0v0v0v0zM310 163q13 13 25 26l-295 284v0l-40 -40v0l284 -295v0q13 12 26 25v0z" />
</svg>
