<?xml version="1.0" standalone="no"?>
<!DOCTYPE svg PUBLIC "-//W3C//DTD SVG 1.1//EN" "http://www.w3.org/Graphics/SVG/1.1/DTD/svg11.dtd" >
<svg xmlns="http://www.w3.org/2000/svg" xmlns:xlink="http://www.w3.org/1999/xlink" version="1.1" viewBox="-10 -40 660 512">
   <path fill="currentColor"
d="M448 -7v-32v32v-32h-64v0v32v0h-128v0v-32v0h-64v0v32v0h-96h-64v64v0v256v0h-32v0v64v0h32h256v64v0v32v0h64v0v-32v0v-64v0h192h96v-64v0h-32v0v-256v0v-64v0h-64h-96zM352 313h-64h64h-256v-256v0h96v0v32v0h-32v0v64v0h32h96v-64v0h-32v0v-32v0h128v0v32v0h-32v0v64
v0h32h96v-64v0h-32v0v-32v0h96v0v256v0h-192v0z" />
</svg>
