<?xml version="1.0" standalone="no"?>
<!DOCTYPE svg PUBLIC "-//W3C//DTD SVG 1.1//EN" "http://www.w3.org/Graphics/SVG/1.1/DTD/svg11.dtd" >
<svg xmlns="http://www.w3.org/2000/svg" xmlns:xlink="http://www.w3.org/1999/xlink" version="1.1" viewBox="-10 -40 660 512">
   <path fill="currentColor"
d="M144 73q1 -48 33 -79v0v0q31 -32 79 -33h32v0v32v0q-1 46 -31 78q-30 31 -76 34q-36 50 -37 112q2 75 52 124q49 50 124 52h72h6l5 3v0l64 32v0l-22 42v0l-59 -29v0h-66v0v0v0h-66v0l-59 30v0l-22 -43v0l34 -17v0q-7 -5 -15 -10q-46 21 -92 7q-46 -15 -73 -59l-16 -27v0
l14 -8v0q21 -12 43 -16q-31 -16 -49 -46q-19 -30 -19 -67v-32v0h16v0q24 0 45 8q-18 -30 -19 -64q-1 -35 17 -68l16 -27v0l14 8v0q39 23 55 64v-1v0zM459 105q-46 -3 -76 -34v0v0q-30 -32 -31 -78v-32v0h32v0q48 1 79 33q32 31 33 79v1v0q16 -40 55 -64l14 -8v0l16 27v0
q18 33 17 68q-1 34 -19 64q21 -8 45 -8h16v0v32v0q0 37 -19 67q-18 30 -49 46q23 4 43 16l14 8v0l-16 27v0q-17 30 -44 46q-28 16 -59 18l-29 -14v0l-18 -9v0l-31 -16v0l-18 -9v0q38 -23 60 -62q21 -39 22 -86q-1 -62 -37 -112v0z" />
</svg>
