<?xml version="1.0" standalone="no"?>
<!DOCTYPE svg PUBLIC "-//W3C//DTD SVG 1.1//EN" "http://www.w3.org/Graphics/SVG/1.1/DTD/svg11.dtd" >
<svg xmlns="http://www.w3.org/2000/svg" xmlns:xlink="http://www.w3.org/1999/xlink" version="1.1" viewBox="-10 -40 596 512">
   <path fill="currentColor"
d="M208 89q1 -34 23 -57v0v0q23 -22 57 -23q34 1 57 23q22 23 23 57q0 16 -6 30l45 18v0q9 -22 9 -48q-1 -54 -37 -91q-37 -36 -91 -37q-54 1 -91 37q-36 37 -37 91q2 57 41 94l-71 114v0h-1h-1q-20 1 -34 14q-13 14 -14 34q1 20 14 34q14 13 34 14q20 -1 34 -14
q13 -14 14 -34q0 -12 -6 -22l83 -133v0l13 -20v0l-20 -13v0q-36 -23 -38 -68v0zM290 137l83 133l-83 -133l83 133l12 20v0l21 -13v0q18 -12 42 -12q34 1 57 23q22 23 23 57q-1 34 -23 57q-23 22 -57 23q-34 -1 -57 -24l-34 34v0q36 37 91 38q54 -1 91 -37q36 -37 37 -91
q-1 -54 -37 -91q-37 -36 -91 -37q-25 0 -46 9l-72 -114v0q6 -11 6 -23q-1 -20 -14 -34q-14 -13 -34 -14q-20 1 -34 14q-13 14 -14 34q1 20 14 34q14 13 34 14h1h1v0zM448 393q20 -1 34 -14v0v0q13 -14 14 -34q-1 -20 -14 -34q-14 -13 -34 -14q-28 1 -42 24h-174h-24v24v0
q-1 34 -23 57q-23 22 -57 23q-34 -1 -57 -23q-22 -23 -23 -57q1 -30 19 -52q19 -22 48 -27l-8 -47v0q-47 8 -76 43q-30 34 -31 83q1 54 37 91q37 36 91 37q48 -1 82 -30t44 -74h152v0q14 23 42 24v0z" />
</svg>
