<?xml version="1.0" standalone="no"?>
<!DOCTYPE svg PUBLIC "-//W3C//DTD SVG 1.1//EN" "http://www.w3.org/Graphics/SVG/1.1/DTD/svg11.dtd" >
<svg xmlns="http://www.w3.org/2000/svg" xmlns:xlink="http://www.w3.org/1999/xlink" version="1.1" viewBox="-10 -40 660 512">
   <path fill="currentColor"
d="M256 -39v64v-64v64h128v0v-64v0h64v0v64v0h96v0v96v0h-448v0v-96v0h96v0v-64v0h64v0zM128 153h384h-384h384v1v0q-42 7 -68 37q-27 31 -28 74q1 48 34 80h-26v0l-45 128v0h-118v0l-45 -128v0h-26v0q33 -32 34 -80q-1 -43 -28 -74q-26 -30 -68 -37v-1v0zM112 185
q45 1 69 40q22 40 0 80q-24 39 -69 40q-45 -1 -69 -40q-22 -40 0 -80q24 -39 69 -40v0zM224 473h-224h224h-224l32 -96v0h160v0l32 96v0zM448 265q1 -45 40 -69q40 -22 80 0q39 24 40 69q-1 45 -40 69q-40 22 -80 0q-39 -24 -40 -69v0zM608 377l32 96l-32 -96l32 96h-224v0
l32 -96v0h160v0z" />
</svg>
