<?xml version="1.0" standalone="no"?>
<!DOCTYPE svg PUBLIC "-//W3C//DTD SVG 1.1//EN" "http://www.w3.org/Graphics/SVG/1.1/DTD/svg11.dtd" >
<svg xmlns="http://www.w3.org/2000/svg" xmlns:xlink="http://www.w3.org/1999/xlink" version="1.1" viewBox="-10 -40 660 512">
   <path fill="currentColor"
d="M0 -39h576h-576h576v211v0q-29 -15 -64 -18v-129v0h-448v0v288v0h257v0q-1 8 -1 16q0 45 20 82q20 38 55 62h-235h-32v-64v0h32h69l11 -32v0h-240v0v-416v0zM480 81v73v-73v73q-25 2 -48 11v-4v0v-22v0l-111 111v0l-17 17v0l-17 -17v0l-63 -63v0l-87 87v0l-34 -34v0
l104 -104v0l17 -17v0l17 17v0l63 63v0l94 -94v0h-22h-24v-48v0h24h104v24v0zM352 329q0 -39 19 -72v0v0q19 -33 53 -53q34 -19 72 -19t72 19q34 20 53 53t19 72t-19 72t-53 53q-34 19 -72 19t-72 -19q-34 -20 -53 -53t-19 -72v0zM471 304q14 -16 35 -11q20 6 26 26
q5 21 -11 35q-14 16 -35 11q-20 -6 -26 -26q-5 -21 11 -35v0zM531 387l26 25l-26 -25l26 25l22 -22v0l-25 -26v0q20 -35 0 -70l25 -26v0l-22 -22v0l-26 25v0q-35 -20 -70 0l-26 -25v0l-22 22v0l25 26v0q-20 35 0 70l-25 26v0l22 22v0l26 -25v0q35 20 70 0v0z" />
</svg>
