<?xml version="1.0" standalone="no"?>
<!DOCTYPE svg PUBLIC "-//W3C//DTD SVG 1.1//EN" "http://www.w3.org/Graphics/SVG/1.1/DTD/svg11.dtd" >
<svg xmlns="http://www.w3.org/2000/svg" xmlns:xlink="http://www.w3.org/1999/xlink" version="1.1" viewBox="-10 -40 660 512">
   <path fill="currentColor"
d="M0 441h144h-144h640v-128v0q-1 -46 -27 -79q-27 -34 -69 -45v-36v0q-1 -41 -28 -68t-68 -28q-30 0 -53 16q-22 -36 -58 -58q-36 -21 -81 -22q-68 2 -113 47t-47 113v8v0q-43 16 -69 52t-27 84v144v0zM288 121h16h-16h48v16v0v80v0v16v0h-32v0v-16v0v-64v0h-16v0v-32v0z
M176 121h64h-64h80v16v0v80v0v16v0h-16h-80v-16v0v-80v0v-16v0h16v0zM192 201h32h-32h32v-48v0h-32v0v48v0zM384 121h16h-16h96v16v0v80v0v16v0h-16h-80v-16v0v-80v0v-16v0zM416 153v48v-48v48h32v0v-48v0h-32v0zM192 265h16h-16h32v16v0v80v0v16v0h-32v0v-16v0v-64v0h-16v0
v-32v0h16v0zM272 265h16h-16h96v16v0v80v0v16v0h-16h-80v-16v0v-80v0v-16v0zM304 297v48v-48v48h32v0v-48v0h-32v0zM416 265h16h-16h32v16v0v80v0v16v0h-32v0v-16v0v-64v0h-16v0v-32v0h16v0z" />
</svg>
