<?xml version="1.0" standalone="no"?>
<!DOCTYPE svg PUBLIC "-//W3C//DTD SVG 1.1//EN" "http://www.w3.org/Graphics/SVG/1.1/DTD/svg11.dtd" >
<svg xmlns="http://www.w3.org/2000/svg" xmlns:xlink="http://www.w3.org/1999/xlink" version="1.1" viewBox="-10 -40 660 512">
   <path fill="currentColor"
d="M80 57q-15 1 -16 16v272v0v16v0q1 15 16 16q15 -1 16 -16v-16v0h64v0v16v0q-1 34 -23 57q-23 22 -57 23q-34 -1 -57 -23q-22 -23 -23 -57v-16v0v-272v0q1 -34 23 -57q23 -22 57 -23q34 1 57 23q22 23 23 57v16v0h-64v0v-16v0q-1 -15 -16 -16v0zM256 -7v32v-32v32v160v0
h96v0v-160v0v-32v0h64v0v32v0v384v0v32v0h-64v0v-32v0v-160v0h-96v0v160v0v32v0h-64v0v-32v0v-384v0v-32v0h64v0zM448 -7h32h-32h192v64v0h-32h-96v128v0h64h32v64v0h-32h-64v160v0v32v0h-64v0v-32v0v-384v0v-32v0z" />
</svg>
