<?xml version="1.0" standalone="no"?>
<!DOCTYPE svg PUBLIC "-//W3C//DTD SVG 1.1//EN" "http://www.w3.org/Graphics/SVG/1.1/DTD/svg11.dtd" >
<svg xmlns="http://www.w3.org/2000/svg" xmlns:xlink="http://www.w3.org/1999/xlink" version="1.1" viewBox="-10 -40 660 512">
   <path fill="currentColor"
d="M320 409q89 0 161 -17v0v0q73 -18 115 -46v0v0q43 -29 44 -65v-32v0l-65 -26v0q1 6 1 13q-1 33 -23 54q-21 22 -54 23q-19 0 -35 -8q-16 8 -35 8q-29 -1 -50 -19t-26 -46q-16 1 -33 1q-68 -1 -113 -19t-47 -45v0v0l-160 64v0v32v0q1 36 44 65q42 28 115 46q72 17 161 17
v0zM352 166q1 -33 23 -54v0v0q21 -22 54 -23q11 0 21 3q-22 -31 -56 -49q-33 -18 -74 -18q-54 1 -94 31q-41 29 -58 78h1v0q6 22 48 36t103 15q18 0 34 -1q-2 -9 -2 -18v0zM473 129l-9 6l9 -6l-9 6l-9 -6v0q-12 -8 -26 -8q-19 0 -32 13t-13 32q0 14 8 26l6 9v0l-6 9v0
q-8 12 -8 26q0 19 13 32t32 13q14 0 26 -8l9 -6v0l9 6v0q12 8 26 8q19 0 32 -13t13 -32q0 -14 -8 -26l-6 -9v0l6 -9v0q8 -11 8 -26q0 -19 -13 -32t-32 -13q-14 0 -26 8v0zM464 233l-32 -32l32 32l-32 -32l32 -32v0l32 32v0l-32 32v0z" />
</svg>
