<?xml version="1.0" standalone="no"?>
<!DOCTYPE svg PUBLIC "-//W3C//DTD SVG 1.1//EN" "http://www.w3.org/Graphics/SVG/1.1/DTD/svg11.dtd" >
<svg xmlns="http://www.w3.org/2000/svg" xmlns:xlink="http://www.w3.org/1999/xlink" version="1.1" viewBox="-10 -40 654 512">
   <path fill="currentColor"
d="M384 -39h-384h384h-384v512v0h144v0v-128v0h96v0v128v0h144v0v-45v0q-43 -20 -69 -58q-26 -39 -27 -89q0 -17 3 -32h-35v0v-64v0h64v0q25 -34 64 -51v-173v0zM64 185h64h-64h64v64v0h-64v0v-64v0zM224 185v64v-64v64h-64v0v-64v0h64v0zM128 57v64v-64v64h-64v0v-64v0h64
v0zM160 57h64h-64h64v64v0h-64v0v-64v0zM320 57v64v-64v64h-64v0v-64v0h64v0zM448 201q45 2 69 40q22 40 0 80q-24 39 -69 40q-45 -1 -69 -40q-22 -40 0 -80q24 -38 69 -40v0zM448 409q41 -1 72 -22l63 63v0l17 17v0l34 -34v0l-17 -17v0l-63 -63v0q21 -31 22 -72
q-1 -54 -37 -90q-37 -36 -91 -38q-54 2 -91 38q-36 36 -37 90q1 55 37 91q37 36 91 37v0z" />
</svg>
