<?xml version="1.0" standalone="no"?>
<!DOCTYPE svg PUBLIC "-//W3C//DTD SVG 1.1//EN" "http://www.w3.org/Graphics/SVG/1.1/DTD/svg11.dtd" >
<svg xmlns="http://www.w3.org/2000/svg" xmlns:xlink="http://www.w3.org/1999/xlink" version="1.1" viewBox="-10 -40 588 512">
   <path fill="currentColor"
d="M416 105q0 -39 -19 -72v0v0q-19 -33 -53 -53q-34 -19 -72 -19t-72 19q-34 20 -53 53t-19 72t19 72t53 53q34 19 72 19t72 -19q34 -20 53 -53t19 -72v0zM249 72q-1 1 -1 4v0v0q-1 1 5 5q8 4 22 7q1 1 2 1v0v0q15 3 30 11q18 9 21 33q-2 27 -22 37q-9 4 -18 6v11v0v16v0
h-32v0v-16v0v-12v0q-13 -3 -24 -6v0v0v0v0l-4 -2h-1l-15 -5v0l10 -30v0l15 4v0l6 2l1 1q16 5 29 6q10 0 18 -4q3 -1 4 -3q1 -1 1 -4q1 -2 -5 -6q-8 -4 -23 -8l-2 -1v0q-14 -3 -28 -10q-18 -7 -22 -31q1 -28 22 -37q9 -5 18 -6v-10v0v-16v0h32v0v16v0v9v0l18 4l15 4v0l-7 31
v0l-16 -4v0q-14 -4 -26 -4q-10 0 -19 4q-3 2 -4 4v-1zM140 288l-71 57l71 -57l-71 57h-69v0v128v0h32h364l11 -7v0l128 -88v0l33 -23v0l-46 -66v0l-33 23v0l-94 65v0h-139v0v-32v0h32h96v-64v0h-32h-203l-9 7v0z" />
</svg>
