<?xml version="1.0" standalone="no"?>
<!DOCTYPE svg PUBLIC "-//W3C//DTD SVG 1.1//EN" "http://www.w3.org/Graphics/SVG/1.1/DTD/svg11.dtd" >
<svg xmlns="http://www.w3.org/2000/svg" xmlns:xlink="http://www.w3.org/1999/xlink" version="1.1" viewBox="-10 -40 522 512">
   <path fill="currentColor"
d="M308 -27v52v-52v52q-1 22 -15 37q-15 14 -37 15q-22 -1 -37 -15q-14 -15 -15 -37v-52v0h104v0zM256 377q14 0 23 9v0v0q9 9 9 23v32v0h-64v0v-32v0q0 -14 9 -23t23 -9v0zM480 249h-32h32h-32q-14 0 -23 -9t-9 -23t9 -23t23 -9h32v0v64v0zM96 217q0 14 -9 23v0v0
q-9 9 -23 9h-32v0v-64v0h32v0q14 0 23 9t9 23v0zM392 2l79 79l-79 -79l79 79l-40 40v0q-17 16 -39 16q-23 0 -40 -16q-16 -17 -16 -40q0 -22 16 -39l40 -40v0zM143 330q9 10 9 23v0v0q0 13 -9 22l-23 23v0l-45 -45v0l23 -23v0q9 -9 22 -9t23 9v0zM392 398l-23 -23l23 23
l-23 -23q-9 -9 -9 -22t9 -23q10 -9 23 -9t22 9l23 23v0l-45 45v0zM154 115q-15 14 -34 14v0v0q-19 0 -34 -14l-34 -34v0l68 -68v0l34 34v0q14 15 14 34t-14 34v0z" />
</svg>
