<?xml version="1.0" standalone="no"?>
<!DOCTYPE svg PUBLIC "-//W3C//DTD SVG 1.1//EN" "http://www.w3.org/Graphics/SVG/1.1/DTD/svg11.dtd" >
<svg xmlns="http://www.w3.org/2000/svg" xmlns:xlink="http://www.w3.org/1999/xlink" version="1.1" viewBox="-10 -40 524 512">
   <path fill="currentColor"
d="M0 -39h224h-224h224v160v0h160v0v144v0h-272v0v208v0h-112v0v-512v0zM384 89h-128h128h-128v-128v0l128 128v0zM160 313h16h-16h96v32v0h-16h-48v32v0h32h16v32v0h-16h-32v32v0h48h16v32v0h-16h-80v-16v0v-64v0v-64v0v-16v0zM304 313h32h-32h32q24 1 40 16q15 16 16 40
q-1 24 -16 40q-16 15 -40 16h-16v0v32v0v16v0h-32v0v-16v0v-48v0v-80v0v-16v0h16v0zM336 393q22 -2 24 -24q-2 -22 -24 -24h-16v0v48v0h16v0zM454 313h26h-26h42v32v0h-16h-26q-13 1 -14 14q0 8 8 12l31 16v0q24 13 25 40q0 20 -13 33t-33 13h-34h-16v-32v0h16h34
q13 -1 14 -14q0 -8 -8 -12l-31 -16v0q-24 -13 -25 -40q0 -20 13 -33t33 -13v0z" />
</svg>
