<?xml version="1.0" standalone="no"?>
<!DOCTYPE svg PUBLIC "-//W3C//DTD SVG 1.1//EN" "http://www.w3.org/Graphics/SVG/1.1/DTD/svg11.dtd" >
<svg xmlns="http://www.w3.org/2000/svg" xmlns:xlink="http://www.w3.org/1999/xlink" version="1.1" viewBox="-10 -40 532 512">
   <path fill="currentColor"
d="M0 -39h224h-224h224v160v0h160v0v144v0h-272v0v208v0h-112v0v-512v0zM384 89h-128h128h-128v-128v0l128 128v0zM288 313h16h-16h48q24 1 40 16q15 16 16 40q-1 24 -16 40q-16 15 -40 16h-16v0v32v0v16v0h-32v0v-16v0v-48v0v-80v0v-16v0zM320 393h16h-16h16q22 -2 24 -24
q-2 -22 -24 -24h-16v0v48v0zM160 313h16h-16h48q24 1 40 16q15 16 16 40q-1 24 -16 40q-16 15 -40 16h-16v0v32v0v16v0h-32v0v-16v0v-48v0v-80v0v-16v0zM192 393h16h-16h16q22 -2 24 -24q-2 -22 -24 -24h-16v0v48v0zM416 313h16h-16h96v32v0h-16h-16v112v0v16v0h-32v0v-16v0
v-112v0h-16h-16v-32v0z" />
</svg>
