<?xml version="1.0" standalone="no"?>
<!DOCTYPE svg PUBLIC "-//W3C//DTD SVG 1.1//EN" "http://www.w3.org/Graphics/SVG/1.1/DTD/svg11.dtd" >
<svg xmlns="http://www.w3.org/2000/svg" xmlns:xlink="http://www.w3.org/1999/xlink" version="1.1" viewBox="-10 -40 468 512">
   <path fill="currentColor"
d="M160 73v48v-48v48h128v0v-48v0q-1 -27 -19 -45t-45 -19q-27 1 -45 19t-19 45v0zM112 121v-48v48v-48q1 -48 33 -79q31 -32 79 -33q48 1 79 33q32 31 33 79v48v0h112v0v352v0h-448v0v-352v0h112v0zM120 273v48v-48v48h24h184v-48v0h-24h-184z" />
</svg>
