<?xml version="1.0" standalone="no"?>
<!DOCTYPE svg PUBLIC "-//W3C//DTD SVG 1.1//EN" "http://www.w3.org/Graphics/SVG/1.1/DTD/svg11.dtd" >
<svg xmlns="http://www.w3.org/2000/svg" xmlns:xlink="http://www.w3.org/1999/xlink" version="1.1" viewBox="-10 -40 653 512">
   <path fill="currentColor"
d="M32 -7h32h-32h180l9 18v0l71 142v0h28v0v-64v0v-32v0h64v0v32v0v64v0h64v0v96v0h64v0v-64v0v-11v0l7 -9v0l64 -80v0l50 40v0l-57 71v0v53v0v64v0v51v0l55 54v0l-46 46v0l-64 -64v0l-9 -10v0v-13v0v-64v0h-43v0q11 22 11 48q-1 48 -33 79q-31 32 -79 33h-256v0
q-48 -1 -79 -33q-32 -31 -33 -79q1 -47 32 -78v-66v0v-64v0v-128v0v-32v0zM112 313q-20 1 -34 14v0v0q-13 14 -14 34q1 20 14 34q14 13 34 14h256v0q20 -1 34 -14q13 -14 14 -34q-1 -20 -14 -34q-14 -13 -34 -14h-256v0zM172 57h-76h76h-76v96v0h124v0l-48 -96v0zM120 337
q22 2 24 24q-2 22 -24 24q-22 -2 -24 -24q2 -22 24 -24v0zM336 361q2 -22 24 -24q22 2 24 24q-2 22 -24 24q-22 -2 -24 -24v0zM280 337q22 2 24 24q-2 22 -24 24q-22 -2 -24 -24q2 -22 24 -24v0zM176 361q2 -22 24 -24q22 2 24 24q-2 22 -24 24q-22 -2 -24 -24v0z" />
</svg>
