<?xml version="1.0" standalone="no"?>
<!DOCTYPE svg PUBLIC "-//W3C//DTD SVG 1.1//EN" "http://www.w3.org/Graphics/SVG/1.1/DTD/svg11.dtd" >
<svg xmlns="http://www.w3.org/2000/svg" xmlns:xlink="http://www.w3.org/1999/xlink" version="1.1" viewBox="-10 -40 529 512">
   <path fill="currentColor"
d="M414 201q-9 51 -38 91l111 110v0l22 23v0l-45 45v0l-23 -22v0l-110 -111v0q-53 39 -123 40q-82 -2 -139 -53l-45 45v0l-24 -24v0v-144v0h144v0l24 24v0l-53 54v0q38 33 93 34q52 -1 90 -32q39 -31 50 -80h66v0zM347 14l45 -45l-45 45l45 -45l24 24v0v144v0h-144v0
l-24 -24v0l54 -53v0q-39 -34 -94 -35q-52 1 -90 32q-39 31 -50 80h-66v0q14 -76 70 -125t136 -51q82 2 139 53v0z" />
</svg>
