<?xml version="1.0" standalone="no"?>
<!DOCTYPE svg PUBLIC "-//W3C//DTD SVG 1.1//EN" "http://www.w3.org/Graphics/SVG/1.1/DTD/svg11.dtd" >
<svg xmlns="http://www.w3.org/2000/svg" xmlns:xlink="http://www.w3.org/1999/xlink" version="1.1" viewBox="-10 -40 657 512">
   <path fill="currentColor"
d="M504 292q39 -53 40 -123q-2 -88 -61 -147t-147 -61q-81 2 -138 52q-56 50 -68 128l222 -74v0v286v0v4v4v0q0 8 -2 16q62 -5 109 -40l110 111v0l23 22v0l45 -45v0l-22 -23v0l-111 -110v0zM320 113l-32 11l32 -11l-32 11l-192 64v0l-16 5v0v17v0v48v0v121v0q-8 -2 -16 -2
q-27 1 -45 14q-18 14 -19 34q1 20 19 34t45 14q25 0 42 -12q18 -11 21 -30q1 -2 1 -5v-1v0v-149v0l144 -48v0v87v0q-8 -2 -16 -2q-27 1 -45 14q-18 14 -19 34q1 20 19 34t45 14t45 -14t19 -34v-4v-3v-160v0v-48v0v-33v0z" />
</svg>
