<?xml version="1.0" standalone="no"?>
<!DOCTYPE svg PUBLIC "-//W3C//DTD SVG 1.1//EN" "http://www.w3.org/Graphics/SVG/1.1/DTD/svg11.dtd" >
<svg xmlns="http://www.w3.org/2000/svg" xmlns:xlink="http://www.w3.org/1999/xlink" version="1.1" viewBox="-10 -40 532 512">
   <path fill="currentColor"
d="M0 -39h224h-224h224v160v0h160v0v144v0h-272v0v208v0h-112v0v-512v0zM384 89h-128h128h-128v-128v0l128 128v0zM176 313h32h-32h32q24 1 40 16q15 16 16 40q-1 24 -16 40q-16 15 -40 16h-16v0v32v0v16v0h-32v0v-16v0v-48v0v-80v0v-16v0h16v0zM208 393q22 -2 24 -24
q-2 -22 -24 -24h-16v0v48v0h16v0zM304 313h4h-4h15l4 10v0l29 69v0v-63v0v-16v0h32v0v16v0v128v0v16v0h-16h-16l-4 -10v0l-28 -65v0v59v0v16v0h-32v0v-16v0v-128v0v-16v0h16v0zM416 353q0 -17 12 -28v0v0q11 -12 28 -12h16v0q17 0 28 12q12 11 12 28v16v0h-32v0v-16v0
q-1 -7 -8 -8h-16v0q-7 1 -8 8v80v0q1 7 8 8h16v0q7 -1 8 -8v-8v0h-16v0v-32v0h16h32v16v0v24v0q0 17 -12 28q-11 12 -28 12h-16v0q-17 0 -28 -12q-12 -11 -12 -28v-80v0z" />
</svg>
