<?xml version="1.0" standalone="no"?>
<!DOCTYPE svg PUBLIC "-//W3C//DTD SVG 1.1//EN" "http://www.w3.org/Graphics/SVG/1.1/DTD/svg11.dtd" >
<svg xmlns="http://www.w3.org/2000/svg" xmlns:xlink="http://www.w3.org/1999/xlink" version="1.1" viewBox="-10 -40 650 512">
   <path fill="currentColor"
d="M608 -39v32v-32v32v448v0v32v0h-64v0v-32v0v-448v0v-32v0h64v0zM480 57v32v-32v32v352v0v32v0h-64v0v-32v0v-352v0v-32v0h64v0zM352 185v256v-256v256v32v0h-64v0v-32v0v-256v0v-32v0h64v0v32v0zM224 249v32v-32v32v160v0v32v0h-64v0v-32v0v-160v0v-32v0h64v0zM96 377v64
v-64v64v32v0h-64v0v-32v0v-64v0v-32v0h64v0v32v0z" />
</svg>
