<?xml version="1.0" standalone="no"?>
<!DOCTYPE svg PUBLIC "-//W3C//DTD SVG 1.1//EN" "http://www.w3.org/Graphics/SVG/1.1/DTD/svg11.dtd" >
<svg xmlns="http://www.w3.org/2000/svg" xmlns:xlink="http://www.w3.org/1999/xlink" version="1.1" viewBox="-10 -40 468 512">
   <path fill="currentColor"
d="M32 -7h-32h32h-32v32v0v64v0v32v0h64v0v-32v0v-32v0h128v0v128v0h-32v0v64v0h32h96v-64v0h-32v0v-128v0h128v0v32v0v32v0h64v0v-32v0v-64v0v-32v0h-32h-384zM0 345l96 96l-96 -96l96 96h32v0v-64v0h192v0v64v0h32v0l96 -96v0l-96 -96v0h-32v0v64v0h-192v0v-64v0h-32v0
l-96 96v0z" />
</svg>
