<?xml version="1.0" standalone="no"?>
<!DOCTYPE svg PUBLIC "-//W3C//DTD SVG 1.1//EN" "http://www.w3.org/Graphics/SVG/1.1/DTD/svg11.dtd" >
<svg xmlns="http://www.w3.org/2000/svg" xmlns:xlink="http://www.w3.org/1999/xlink" version="1.1" viewBox="-10 -40 404 512">
   <path fill="currentColor"
d="M192 473q82 -2 136 -56v0v0q54 -54 56 -136q-1 -41 -30 -95q-28 -53 -66 -105q-37 -51 -66 -85q-28 -34 -30 -35q-1 1 -30 35q-28 34 -66 85q-37 52 -66 105q-28 54 -30 95q2 82 56 136t136 56v0zM96 297q1 34 23 57v0v0q23 22 57 23h16v0v32v0h-16v0q-48 -1 -79 -33
q-32 -31 -33 -79v-16v0h32v0v16v0z" />
</svg>
