<?xml version="1.0" standalone="no"?>
<!DOCTYPE svg PUBLIC "-//W3C//DTD SVG 1.1//EN" "http://www.w3.org/Graphics/SVG/1.1/DTD/svg11.dtd" >
<svg xmlns="http://www.w3.org/2000/svg" xmlns:xlink="http://www.w3.org/1999/xlink" version="1.1" viewBox="-10 -40 532 512">
   <path fill="currentColor"
d="M256 473q70 -1 128 -34v0v0q58 -34 94 -94q34 -61 34 -128t-34 -128q-36 -60 -94 -94q-58 -33 -128 -34q-70 1 -128 34q-58 34 -94 94q-34 61 -34 128t34 128q36 60 94 94q58 33 128 34v0zM168 145q1 -24 16 -40v0v0q16 -15 40 -16h57v0q27 1 45 19q17 17 18 44
q-1 36 -32 55l-32 18v0v8v0v24v0h-48v0v-24v0v-21v0v-14v0l12 -7v0l44 -26v0q8 -4 8 -13q-1 -14 -15 -15h-57v0q-7 1 -8 8v7v0h-48v0v-7v0zM232 297h48h-48h48v48v0h-48v0v-48v0z" />
</svg>
