<?xml version="1.0" standalone="no"?>
<!DOCTYPE svg PUBLIC "-//W3C//DTD SVG 1.1//EN" "http://www.w3.org/Graphics/SVG/1.1/DTD/svg11.dtd" >
<svg xmlns="http://www.w3.org/2000/svg" xmlns:xlink="http://www.w3.org/1999/xlink" version="1.1" viewBox="-10 -40 532 512">
   <path fill="currentColor"
d="M191 30l34 59l-34 -59l34 59h-1h-72q-17 0 -28 -12q-12 -11 -12 -28t12 -28q11 -12 28 -12h2v0q24 1 37 21v0zM64 49q0 22 10 40h-74v0v128v0h512v0v-128v0h-74v0q10 -18 10 -40q-1 -37 -26 -62t-62 -26h-2v0q-51 2 -78 44l-24 42v0l-24 -41v0q-27 -43 -78 -45h-2v0
q-37 1 -62 26t-26 62v0zM400 49q0 17 -12 28v0v0q-11 12 -28 12h-72h-1l35 -59v0q12 -20 36 -21h2v0q17 0 28 12q12 11 12 28v0zM32 249v224v-224v224h192v0v-224v0h-192v0zM288 473h192h-192h192v-224v0h-192v0v224v0z" />
</svg>
