<?xml version="1.0" standalone="no"?>
<!DOCTYPE svg PUBLIC "-//W3C//DTD SVG 1.1//EN" "http://www.w3.org/Graphics/SVG/1.1/DTD/svg11.dtd" >
<svg xmlns="http://www.w3.org/2000/svg" xmlns:xlink="http://www.w3.org/1999/xlink" version="1.1" viewBox="-10 -40 532 512">
   <path fill="currentColor"
d="M272 57h104h-104h104q38 -1 67 -22q29 -22 40 -57q28 63 29 140q-1 81 -33 146q-31 66 -85 105t-121 40h-1v0q-62 -1 -108 -37t-62 -94q-52 48 -54 123v16v0v24v0h-48v0v-24v0v-16v0q1 -57 26 -104q26 -46 70 -76q53 -35 120 -36v0v0h72h32v-32v0h-16h-88q-61 1 -112 27
q18 -55 63 -88q45 -34 105 -35v0v0z" />
</svg>
