<?xml version="1.0" standalone="no"?>
<!DOCTYPE svg PUBLIC "-//W3C//DTD SVG 1.1//EN" "http://www.w3.org/Graphics/SVG/1.1/DTD/svg11.dtd" >
<svg xmlns="http://www.w3.org/2000/svg" xmlns:xlink="http://www.w3.org/1999/xlink" version="1.1" viewBox="-10 -40 468 512">
   <path fill="currentColor"
d="M0 238q1 -51 28 -100v0v0q26 -48 60 -88v0v0q34 -40 61 -64v0v0q26 -24 27 -25q1 1 18 16l37 37t34 36q10 -12 27 -26q18 -15 20 -16q3 1 35 33q33 33 66 85q32 52 35 111q-1 65 -30 118q-30 53 -81 85q-50 32 -113 33q-63 -1 -114 -33q-50 -32 -80 -85q-29 -53 -30 -117
v0zM226 377q37 0 69 -21q31 -23 39 -61q7 -37 -11 -73q-4 -9 -10 -17l-51 59v0q-1 -2 -21 -28q-20 -25 -41 -51q-21 -27 -25 -32q-31 38 -47 64t-16 51q1 52 33 80q32 29 81 29v0z" />
</svg>
