<?xml version="1.0" standalone="no"?>
<!DOCTYPE svg PUBLIC "-//W3C//DTD SVG 1.1//EN" "http://www.w3.org/Graphics/SVG/1.1/DTD/svg11.dtd" >
<svg xmlns="http://www.w3.org/2000/svg" xmlns:xlink="http://www.w3.org/1999/xlink" version="1.1" viewBox="-10 -40 468 512">
   <path fill="currentColor"
d="M160 -39v64v-64v64h128v0v-64v0h64v0v64v0h96v0v96v0h-448v0v-96v0h96v0v-64v0h64v0zM0 153h448h-448h448v320v0h-448v0v-320v0zM64 281h64h-64h64v-64v0h-64v0v64v0zM192 217v64v-64v64h64v0v-64v0h-64v0zM384 281v-64v64v-64h-64v0v64v0h64v0zM64 409h64h-64h64v-64v0
h-64v0v64v0zM256 345h-64h64h-64v64v0h64v0v-64v0zM320 409h64h-64h64v-64v0h-64v0v64v0z" />
</svg>
