<?xml version="1.0" standalone="no"?>
<!DOCTYPE svg PUBLIC "-//W3C//DTD SVG 1.1//EN" "http://www.w3.org/Graphics/SVG/1.1/DTD/svg11.dtd" >
<svg xmlns="http://www.w3.org/2000/svg" xmlns:xlink="http://www.w3.org/1999/xlink" version="1.1" viewBox="-10 -40 532 512">
   <path fill="currentColor"
d="M336 313q75 -2 124 -52v0v0q50 -49 52 -124q-2 -75 -52 -124q-49 -50 -124 -52q-75 2 -124 52q-50 49 -52 124q0 28 8 54l-161 161v0l-7 7v0v10v0v80v0v24v0h24h104v-24v0v-40v0h40h24v-24v0v-40v0h40h10l7 -7v0l33 -33v0q26 8 54 8v0zM376 57q23 1 35 20q10 20 0 40
q-12 19 -35 20q-23 -1 -35 -20q-10 -20 0 -40q12 -19 35 -20v0z" />
</svg>
