<?xml version="1.0" standalone="no"?>
<!DOCTYPE svg PUBLIC "-//W3C//DTD SVG 1.1//EN" "http://www.w3.org/Graphics/SVG/1.1/DTD/svg11.dtd" >
<svg xmlns="http://www.w3.org/2000/svg" xmlns:xlink="http://www.w3.org/1999/xlink" version="1.1" viewBox="-10 -40 660 512">
   <path fill="currentColor"
d="M416 137q-2 75 -61 124v0v0q-59 50 -147 52q-55 0 -100 -22l-108 22v0l38 -75v0q-37 -44 -38 -101q2 -75 61 -124q59 -50 147 -52q88 2 147 52q59 49 61 124v0zM448 137q0 -8 -1 -15q83 6 137 55t56 120q-1 57 -38 101l38 75v0l-108 -22v0q-45 22 -100 22
q-73 -1 -127 -37q-54 -35 -73 -92q90 -9 152 -65q61 -56 64 -142v0z" />
</svg>
