<?xml version="1.0" standalone="no"?>
<!DOCTYPE svg PUBLIC "-//W3C//DTD SVG 1.1//EN" "http://www.w3.org/Graphics/SVG/1.1/DTD/svg11.dtd" >
<svg xmlns="http://www.w3.org/2000/svg" xmlns:xlink="http://www.w3.org/1999/xlink" version="1.1" viewBox="-10 -40 532 512">
   <path fill="currentColor"
d="M352 217q0 33 -6 64h-180v0q-6 -31 -6 -64t6 -64h180v0q6 31 6 64v0zM378 153h126h-126h126q8 31 8 64t-8 64h-126v0q6 -31 6 -64t-6 -64v0zM493 121h-122h122h-122q-13 -49 -33 -89q-21 -40 -41 -68q68 12 119 54q52 41 77 103v0zM338 121h-164h164h-164q18 -61 46 -105
q20 -33 36 -54q16 21 37 54q27 44 45 105v0zM141 121h-122h122h-122q25 -62 76 -103q52 -42 120 -54q-20 28 -41 68q-20 40 -33 89v0zM8 153h126h-126h126q-6 31 -6 64t6 64h-126v0q-8 -31 -8 -64t8 -64v0zM174 313h164h-164h164q-18 61 -45 105q-21 33 -37 54
q-16 -21 -36 -54q-28 -44 -46 -105v0zM141 313q13 49 33 89v0v0q21 40 41 68q-68 -12 -120 -54q-51 -41 -76 -103h122v0zM493 313q-25 62 -77 103v0v0q-51 42 -119 54q20 -28 41 -68q20 -40 33 -89h122v0z" />
</svg>
