<?xml version="1.0" standalone="no"?>
<!DOCTYPE svg PUBLIC "-//W3C//DTD SVG 1.1//EN" "http://www.w3.org/Graphics/SVG/1.1/DTD/svg11.dtd" >
<svg xmlns="http://www.w3.org/2000/svg" xmlns:xlink="http://www.w3.org/1999/xlink" version="1.1" viewBox="-10 -40 394 512">
   <path fill="currentColor"
d="M272 345q17 -46 49 -85v0v0v-1v0v0l16 -22q30 -43 31 -100q-2 -75 -52 -124q-49 -50 -124 -52q-75 2 -124 52q-50 49 -52 124q1 57 31 100q8 11 16 21v1v0v0q32 39 49 86h160v0zM112 377v96v-96v96h160v0v-96v0h-160v0zM112 137h-32h32h-32q1 -48 33 -79q31 -32 79 -33
v32v0q-34 1 -57 23q-22 23 -23 57v0z" />
</svg>
