<?xml version="1.0" standalone="no"?>
<!DOCTYPE svg PUBLIC "-//W3C//DTD SVG 1.1//EN" "http://www.w3.org/Graphics/SVG/1.1/DTD/svg11.dtd" >
<svg xmlns="http://www.w3.org/2000/svg" xmlns:xlink="http://www.w3.org/1999/xlink" version="1.1" viewBox="-10 -40 468 512">
   <path fill="currentColor"
d="M96 89q0 -35 17 -64v0v0q17 -29 47 -47q30 -17 64 -17t64 17q30 18 47 47t17 64t-17 64t-47 47q-30 17 -64 17t-64 -17q-30 -18 -47 -47t-17 -64v0zM384 265l64 208l-64 -208l64 208h-448v0l64 -208v0h64v0v66v0q-18 6 -29 20q-11 15 -11 34q1 24 16 40q16 15 40 16
q24 -1 40 -16q15 -16 16 -40q0 -19 -11 -34q-11 -14 -29 -20v-66v0h128v0v58v0q-21 6 -34 22q-14 17 -14 40v40v0v16v0h16h32v-32v0h-16v0v-24v0q0 -14 9 -23t23 -9t23 9t9 23v24v0h-16v0v32v0h16h32v-16v0v-40v0q0 -23 -14 -40q-13 -16 -34 -22v-58v0h64v0zM144 361
q22 2 24 24q-2 22 -24 24q-22 -2 -24 -24q2 -22 24 -24v0z" />
</svg>
