<?xml version="1.0" standalone="no"?>
<!DOCTYPE svg PUBLIC "-//W3C//DTD SVG 1.1//EN" "http://www.w3.org/Graphics/SVG/1.1/DTD/svg11.dtd" >
<svg xmlns="http://www.w3.org/2000/svg" xmlns:xlink="http://www.w3.org/1999/xlink" version="1.1" viewBox="-10 -40 660 512">
   <path fill="currentColor"
d="M96 -7h352h-352h416q54 1 91 37q36 37 37 91q-1 54 -37 91q-37 36 -91 37h-32v0v96v0h-384v0v-352v0zM480 185h32h-32h32q27 -1 45 -19t19 -45q-1 -27 -19 -45t-45 -19h-32v0v128v0zM32 377h512h-512h544v64v0h-32h-544v-64v0h32v0z" />
</svg>
