<?xml version="1.0" standalone="no"?>
<!DOCTYPE svg PUBLIC "-//W3C//DTD SVG 1.1//EN" "http://www.w3.org/Graphics/SVG/1.1/DTD/svg11.dtd" >
<svg xmlns="http://www.w3.org/2000/svg" xmlns:xlink="http://www.w3.org/1999/xlink" version="1.1" viewBox="-10 -40 532 512">
   <path fill="currentColor"
d="M32 -7h352h-352h352v64v0h96h32v32v0v176v0v21v0l-19 8v0l-109 49v0v98v0h-352v0v-448v0zM384 273l64 -29l-64 29l64 -29v-123v0h-64v0v152v0zM160 105v-16v16v-16h-32v0v16v0v224v0v16v0h32v0v-16v0v-224v0zM224 105v-16v16v-16h-32v0v16v0v224v0v16v0h32v0v-16v0v-224
v0zM288 105v-16v16v-16h-32v0v16v0v224v0v16v0h32v0v-16v0v-224v0z" />
</svg>
