<?xml version="1.0" standalone="no"?>
<!DOCTYPE svg PUBLIC "-//W3C//DTD SVG 1.1//EN" "http://www.w3.org/Graphics/SVG/1.1/DTD/svg11.dtd" >
<svg xmlns="http://www.w3.org/2000/svg" xmlns:xlink="http://www.w3.org/1999/xlink" version="1.1" viewBox="-10 -40 468 512">
   <path fill="currentColor"
d="M56 17v48v-48v48h48v0v-48v0h-48v0zM0 -39h56h-56h160v56v0v48v0v56v0h-48v0v81v0q29 -17 64 -17h96v0q27 -1 45 -19t19 -45h-48v0v-56v0v-48v0v-56v0h56h104v56v0v48v0v56v0h-48v0q-1 54 -37 91q-37 36 -91 37h-96v0q-27 1 -45 19t-19 45h48v0v56v0v48v0v56v0h-56h-104
v-56v0v-48v0v-56v0h48v0v-192v0h-48v0v-56v0v-48v0v-56v0zM392 17h-48h48h-48v48v0h48v0v-48v0zM104 369h-48h48h-48v48v0h48v0v-48v0z" />
</svg>
