<?xml version="1.0" standalone="no"?>
<!DOCTYPE svg PUBLIC "-//W3C//DTD SVG 1.1//EN" "http://www.w3.org/Graphics/SVG/1.1/DTD/svg11.dtd" >
<svg xmlns="http://www.w3.org/2000/svg" xmlns:xlink="http://www.w3.org/1999/xlink" version="1.1" viewBox="-10 -40 586 512">
   <path fill="currentColor"
d="M294 377h-6h6h-6v0v0h-101v0l-80 -80v0l122 -123v0l134 134v0l-69 69v0zM384 377l131 -131l-131 131l131 -131l45 -45v0l-45 -45v0l-134 -134v0l-45 -45v0l-45 45v0l-230 230v0l-45 45v0l45 45v0l99 99v0h160v0v0v0h192h32v-64v0h-32h-128z" />
</svg>
