<?xml version="1.0" standalone="no"?>
<!DOCTYPE svg PUBLIC "-//W3C//DTD SVG 1.1//EN" "http://www.w3.org/Graphics/SVG/1.1/DTD/svg11.dtd" >
<svg xmlns="http://www.w3.org/2000/svg" xmlns:xlink="http://www.w3.org/1999/xlink" version="1.1" viewBox="-10 -40 532 512">
   <path fill="currentColor"
d="M192 51q-30 -14 -32 -42q1 -20 19 -34q18 -13 45 -14q27 1 45 14q18 14 19 34q-2 28 -32 42v38v0h128v0v128v0h38v0q14 -30 42 -32q20 1 34 19q13 18 14 45q-1 27 -14 45q-14 18 -34 19q-28 -2 -42 -32h-38v0v192v0h-128v0v-38v0q30 -14 32 -42q-1 -20 -19 -34
q-18 -13 -45 -14q-27 1 -45 14q-18 14 -19 34q2 28 32 42v38v0h-192v0v-192v0h38v0q14 30 42 32q20 -1 34 -19q13 -18 14 -45q-1 -27 -14 -45q-14 -18 -34 -19q-28 2 -42 32h-38v0v-128v0h192v0v-38v0z" />
</svg>
