<?xml version="1.0" standalone="no"?>
<!DOCTYPE svg PUBLIC "-//W3C//DTD SVG 1.1//EN" "http://www.w3.org/Graphics/SVG/1.1/DTD/svg11.dtd" >
<svg xmlns="http://www.w3.org/2000/svg" xmlns:xlink="http://www.w3.org/1999/xlink" version="1.1" viewBox="-10 -40 394 512">
   <path fill="currentColor"
d="M288 -39h-192h192h-192v256v0q1 41 28 68t68 28q41 -1 68 -28t28 -68v-256v0zM64 177v-24v24v-24h-48v0v24v0v40v0q1 68 44 116q42 48 108 58v34v0h-48h-24v48v0h24h168v-48v0h-24h-48v-34v0q66 -10 108 -58q43 -48 44 -116v-40v0v-24v0h-48v0v24v0v40v0q-1 54 -37 91
q-37 36 -91 37q-54 -1 -91 -37q-36 -37 -37 -91v-40v0z" />
</svg>
