<?xml version="1.0" standalone="no"?>
<!DOCTYPE svg PUBLIC "-//W3C//DTD SVG 1.1//EN" "http://www.w3.org/Graphics/SVG/1.1/DTD/svg11.dtd" >
<svg xmlns="http://www.w3.org/2000/svg" xmlns:xlink="http://www.w3.org/1999/xlink" version="1.1" viewBox="-10 -40 596 512">
   <path fill="currentColor"
d="M576 25h-576h576h-576v144v0q20 1 34 14q13 14 14 34q-1 20 -14 34q-14 13 -34 14v144v0h576v0v-144v0q-20 -1 -34 -14q-13 -14 -14 -34q1 -20 14 -34q14 -13 34 -14v-144v0zM128 121v192v-192v192h320v0v-192v0h-320v0zM96 89h32h-32h384v32v0v192v0v32v0h-32h-352v-32
v0v-192v0v-32v0z" />
</svg>
