<?xml version="1.0" standalone="no"?>
<!DOCTYPE svg PUBLIC "-//W3C//DTD SVG 1.1//EN" "http://www.w3.org/Graphics/SVG/1.1/DTD/svg11.dtd" >
<svg xmlns="http://www.w3.org/2000/svg" xmlns:xlink="http://www.w3.org/1999/xlink" version="1.1" viewBox="-10 -40 586 512">
   <path fill="currentColor"
d="M396 -7l-9 19l9 -19l-9 19l-88 192v0l-6 13v0h70v0l15 -32v0h76v0l15 32v0h70v0l-6 -13v0l-88 -192v0l-8 -19v0h-41v0zM400 137l16 -35l-16 35l16 -35l16 35v0h-32v0zM184 19l-24 -25l24 25l-24 -25l-24 25v0l-88 96v0l-21 24v0l47 43v0l22 -23v0l32 -36v0v286v0v32v0h64
v0v-32v0v-286v0l32 36v0l22 23v0l47 -43v0l-21 -24v0l-88 -96v0zM352 249h-32h32h-32v64v0h32h52l-73 64v0l-11 10v0v14v0v8v0v32v0h32h160v-64v0h-32h-52l73 -64v0l11 -9v0v-15v0v-8v0v-32v0h-32h-128z" />
</svg>
