<?xml version="1.0" standalone="no"?>
<!DOCTYPE svg PUBLIC "-//W3C//DTD SVG 1.1//EN" "http://www.w3.org/Graphics/SVG/1.1/DTD/svg11.dtd" >
<svg xmlns="http://www.w3.org/2000/svg" xmlns:xlink="http://www.w3.org/1999/xlink" version="1.1" viewBox="-10 -40 340 512">
   <path fill="currentColor"
d="M112 9q1 -27 24 -42q24 -12 48 0q23 15 24 42q-1 27 -24 42q-24 12 -48 0q-23 -15 -24 -42v0zM91 89h18h-18h138l9 15v0l82 128v0l-54 34v0l-34 -53v0v228v0v32v0h-64v0v-32v0v-128v0h-16v0v128v0v32v0h-64v0v-32v0v-228v0l-34 53v0l-54 -34v0l82 -128v0l9 -15v0z" />
</svg>
