<?xml version="1.0" standalone="no"?>
<!DOCTYPE svg PUBLIC "-//W3C//DTD SVG 1.1//EN" "http://www.w3.org/Graphics/SVG/1.1/DTD/svg11.dtd" >
<svg xmlns="http://www.w3.org/2000/svg" xmlns:xlink="http://www.w3.org/1999/xlink" version="1.1" viewBox="-10 -40 532 512">
   <path fill="currentColor"
d="M0 217q1 70 34 128v0v0q34 58 94 94q61 34 128 34t128 -34q60 -36 94 -94q33 -58 34 -128q-1 -70 -34 -128q-34 -58 -94 -94q-61 -34 -128 -34t-128 34q-60 36 -94 94q-33 58 -34 128v0zM256 345v-80v80v-80h-128v0v-96v0h128v0v-80v0h32v0l128 128v0l-128 128v0h-32v0z
" />
</svg>
