<?xml version="1.0" standalone="no"?>
<!DOCTYPE svg PUBLIC "-//W3C//DTD SVG 1.1//EN" "http://www.w3.org/Graphics/SVG/1.1/DTD/svg11.dtd" >
<svg xmlns="http://www.w3.org/2000/svg" xmlns:xlink="http://www.w3.org/1999/xlink" version="1.1" viewBox="-10 -40 532 512">
   <path fill="currentColor"
d="M224 121q1 -41 28 -77v0v0q28 -36 72 -59v0v0q43 -23 92 -24q41 1 68 28t28 68q-1 49 -24 92q-23 44 -59 72q-36 27 -77 28h-40v0l-21 -21v0l-220 220v0l-23 22v0l-45 -45v0l22 -23v0l221 -220v0l-22 -21v0v-40v0z" />
</svg>
