<?xml version="1.0" standalone="no"?>
<!DOCTYPE svg PUBLIC "-//W3C//DTD SVG 1.1//EN" "http://www.w3.org/Graphics/SVG/1.1/DTD/svg11.dtd" >
<svg xmlns="http://www.w3.org/2000/svg" xmlns:xlink="http://www.w3.org/1999/xlink" version="1.1" viewBox="-10 -40 404 512">
   <path fill="currentColor"
d="M224 -39h-224h224h-224v512v0h384v0v-352v0h-160v0v-160v0zM256 -39v128v-128v128h128v0l-128 -128v0zM108 201l31 109l-31 -109l31 109l25 -91v0l5 -18v0h18h28l5 18v0l25 91v0l31 -109v0h50v0l-55 191v0l-5 17v0h-18h-26l-5 -18v0l-25 -92v0l-25 92v0l-5 18v0h-18h-26
l-5 -17v0l-55 -191v0h50v0z" />
</svg>
