<?xml version="1.0" standalone="no"?>
<!DOCTYPE svg PUBLIC "-//W3C//DTD SVG 1.1//EN" "http://www.w3.org/Graphics/SVG/1.1/DTD/svg11.dtd" >
<svg xmlns="http://www.w3.org/2000/svg" xmlns:xlink="http://www.w3.org/1999/xlink" version="1.1" viewBox="-10 -40 404 512">
   <path fill="currentColor"
d="M224 -39h-224h224h-224v512v0h384v0v-352v0h-160v0v-160v0zM256 -39v128v-128v128h128v0l-128 -128v0zM136 201h68h-68h68q32 1 54 22q21 22 22 54q-1 32 -22 54q-22 21 -54 22h-44v0v32v0v24v0h-48v0v-24v0v-56v0v-104v0v-24v0h24v0zM204 305q12 0 20 -8v0v0q8 -8 8 -20
t-8 -20t-20 -8h-44v0v56v0h44v0z" />
</svg>
