<?xml version="1.0" standalone="no"?>
<!DOCTYPE svg PUBLIC "-//W3C//DTD SVG 1.1//EN" "http://www.w3.org/Graphics/SVG/1.1/DTD/svg11.dtd" >
<svg xmlns="http://www.w3.org/2000/svg" xmlns:xlink="http://www.w3.org/1999/xlink" version="1.1" viewBox="-10 -40 404 512">
   <path fill="currentColor"
d="M224 -39h-224h224h-224v512v0h384v0v-352v0h-160v0v-160v0zM256 -39v128v-128v128h128v0l-128 -128v0zM96 -7h16h-16h64v32v0h-16h-48v-32v0zM96 57h16h-16h64v32v0h-16h-48v-32v0zM96 121h16h-16h64v32v0h-16h-48v-32v0zM64 377v-72v72v-72l32 -120v0h64v0l32 120v0v72
v0h-128v0zM112 297h-16h16h-16v32v0h16h48v-32v0h-16h-32z" />
</svg>
