<?xml version="1.0" standalone="no"?>
<!DOCTYPE svg PUBLIC "-//W3C//DTD SVG 1.1//EN" "http://www.w3.org/Graphics/SVG/1.1/DTD/svg11.dtd" >
<svg xmlns="http://www.w3.org/2000/svg" xmlns:xlink="http://www.w3.org/1999/xlink" version="1.1" viewBox="-10 -40 532 512">
   <path fill="currentColor"
d="M367 374q-48 34 -111 35q-63 -1 -111 -35l58 -58v0q24 13 53 13t53 -13l58 58v0zM458 374q52 -67 54 -157q-2 -90 -54 -157l19 -19v0l-45 -45v0l-19 19v0q-67 -52 -157 -54q-90 2 -157 54l-19 -19v0l-45 45v0l19 19v0q-52 67 -54 157q2 90 54 157l-19 19v0l45 45v0
l19 -19v0q67 52 157 54q90 -2 157 -54l19 19v0l45 -45v0l-19 -19v0zM413 328l-58 -58l58 58l-58 -58q13 -24 13 -53t-13 -53l58 -58v0q34 48 35 111q-1 63 -35 111v0zM367 61l-58 58l58 -58l-58 58q-24 -14 -53 -14t-53 14l-58 -58v0q48 -35 111 -36q63 1 111 36v0zM158 270
l-58 58l58 -58l-58 58q-35 -48 -36 -111q1 -63 36 -111l58 58v0q-14 24 -14 53t14 53v0zM208 217q1 -27 24 -42q24 -12 48 0q23 15 24 42q-1 27 -24 42q-24 12 -48 0q-23 -15 -24 -42v0z" />
</svg>
