<?xml version="1.0" standalone="no"?>
<!DOCTYPE svg PUBLIC "-//W3C//DTD SVG 1.1//EN" "http://www.w3.org/Graphics/SVG/1.1/DTD/svg11.dtd" >
<svg xmlns="http://www.w3.org/2000/svg" xmlns:xlink="http://www.w3.org/1999/xlink" version="1.1" viewBox="-10 -40 532 512">
   <path fill="currentColor"
d="M96 -7h32h-32h416v32v0v384v0v32v0h-32h-480v-32v0v-320v0v-32v0h64v0v32v0v288v0h16h16v-352v0v-32v0zM160 57v128v-128v128h160v0v-128v0h-160v0zM384 57v32v-32v32h16h48v-32v0h-16h-48zM384 153v32v-32v32h16h48v-32v0h-16h-48zM160 249v32v-32v32h16h272v-32v0h-16
h-272zM160 345v32v-32v32h16h272v-32v0h-16h-272z" />
</svg>
