<?xml version="1.0" standalone="no"?>
<!DOCTYPE svg PUBLIC "-//W3C//DTD SVG 1.1//EN" "http://www.w3.org/Graphics/SVG/1.1/DTD/svg11.dtd" >
<svg xmlns="http://www.w3.org/2000/svg" xmlns:xlink="http://www.w3.org/1999/xlink" version="1.1" viewBox="-10 -40 586 512">
   <path fill="currentColor"
d="M251 1l-8 -31l8 31l-8 -31l-62 16v0l8 31v0l54 200v0h-30v0l-46 -153v0l-10 -31v0l-61 19v0l9 30v0l72 236v0l-61 -59v0l-29 -27v0l-56 58v0l29 27v0l97 92v0q67 63 160 64h2h17q44 -1 77 -25q33 -25 46 -67l84 -283v0l9 -31v0l-62 -18v0l-9 31v0l-40 137v0h-25v0
l39 -185v0l7 -32v0l-63 -13v0l-6 31v0l-42 199v0h-42v0l-58 -216v0z" />
</svg>
