<?xml version="1.0" standalone="no"?>
<!DOCTYPE svg PUBLIC "-//W3C//DTD SVG 1.1//EN" "http://www.w3.org/Graphics/SVG/1.1/DTD/svg11.dtd" >
<svg xmlns="http://www.w3.org/2000/svg" xmlns:xlink="http://www.w3.org/1999/xlink" version="1.1" viewBox="-10 -40 468 512">
   <path fill="currentColor"
d="M96 -39v64v-64v64h-96v0v96v0h448v0v-96v0h-96v0v-64v0h-64v0v64v0h-128v0v-64v0h-64v0zM448 153h-448h448h-448v320v0h448v0v-320v0zM248 209v24v-24v24v56v0h56h24v48v0h-24h-56v56v0v24v0h-48v0v-24v0v-56v0h-56h-24v-48v0h24h56v-56v0v-24v0h48v0z" />
</svg>
