<?xml version="1.0" standalone="no"?>
<!DOCTYPE svg PUBLIC "-//W3C//DTD SVG 1.1//EN" "http://www.w3.org/Graphics/SVG/1.1/DTD/svg11.dtd" >
<svg xmlns="http://www.w3.org/2000/svg" xmlns:xlink="http://www.w3.org/1999/xlink" version="1.1" viewBox="-10 -40 468 512">
   <path fill="currentColor"
d="M160 -39v64v-64v64h128v0v-64v0h64v0v64v0h96v0v96v0h-448v0v-96v0h96v0v-64v0h64v0zM0 153h448h-448h448v320v0h-448v0v-320v0zM329 266l17 -17l-17 17l17 -17l-34 -34v0l-17 17v0l-95 95v0l-47 -47v0l-17 -17v0l-34 34v0l17 17v0l64 64v0l17 17v0l17 -17v0l112 -112v0z
" />
</svg>
