<?xml version="1.0" standalone="no"?>
<!DOCTYPE svg PUBLIC "-//W3C//DTD SVG 1.1//EN" "http://www.w3.org/Graphics/SVG/1.1/DTD/svg11.dtd" >
<svg xmlns="http://www.w3.org/2000/svg" xmlns:xlink="http://www.w3.org/1999/xlink" version="1.1" viewBox="-10 -40 394 512">
   <path fill="currentColor"
d="M160 -39l51 38l-51 -38l51 38l128 96v0l34 26v0l-34 26v0l-94 70v0l94 70v0l34 26v0l-34 26v0l-128 96v0l-51 38v0v-64v0v-128v0l-77 58v0l-25 19v0l-39 -51v0l26 -20v0l94 -70v0l-94 -70v0l-26 -20v0l39 -51v0l25 19v0l77 58v0v-128v0v-64v0zM224 281v64v-64v64l43 -32
v0l-43 -32v0zM224 153l43 -32l-43 32l43 -32l-43 -32v0v64v0z" />
</svg>
