<?xml version="1.0" standalone="no"?>
<!DOCTYPE svg PUBLIC "-//W3C//DTD SVG 1.1//EN" "http://www.w3.org/Graphics/SVG/1.1/DTD/svg11.dtd" >
<svg xmlns="http://www.w3.org/2000/svg" xmlns:xlink="http://www.w3.org/1999/xlink" version="1.1" viewBox="-10 -40 522 512">
   <path fill="currentColor"
d="M176 57q27 -1 42 -24q12 -24 0 -48q-15 -23 -42 -24q-27 1 -42 24q-12 24 0 48q15 23 42 24v0zM128 89h-20h20h-20l-9 18v0l-64 128v0l-14 28v0l57 29v0l15 -29v0l35 -70v0v43v0q0 26 19 45l77 77v0v83v0v32v0h64v0v-32v0v-96v0v-13v0l-9 -10v0l-55 -54v0v-19v0v-75v0
l70 94v0l20 26v0l51 -39v0l-19 -25v0l-96 -128v0l-10 -13v0h-16h-96zM121 337l-12 48l12 -48l-12 48l-6 24v0l-6 24v0l-6 24v0l-4 16v0h66v0v0v0l6 -24v0l6 -24v0l6 -24v0l10 -40v0l-53 -53v0l-7 29v0zM447 460l9 13l-9 -13l9 13l26 -18v0l-9 -13v0l-113 -163v0l-25 19v0
l112 162v0z" />
</svg>
