<?xml version="1.0" standalone="no"?>
<!DOCTYPE svg PUBLIC "-//W3C//DTD SVG 1.1//EN" "http://www.w3.org/Graphics/SVG/1.1/DTD/svg11.dtd" >
<svg xmlns="http://www.w3.org/2000/svg" xmlns:xlink="http://www.w3.org/1999/xlink" version="1.1" viewBox="-10 -40 532 512">
   <path fill="currentColor"
d="M0 -7l144 -32l-144 32l144 -32l80 144v0l-84 67v0q56 105 161 161l67 -84v0l144 80v0l-32 144v0h-32v0q-125 -1 -226 -61t-161 -161t-61 -226v-32v0zM464 217q-2 -88 -61 -147v0v0q-59 -59 -147 -61v-48v0q72 1 129 35q58 34 92 92q34 57 35 129h-48v0zM256 185
q0 -14 9 -23v0v0q9 -9 23 -9t23 9t9 23t-9 23t-23 9t-23 -9t-9 -23v0zM256 105v-48v48v-48q68 2 113 47t47 113h-48v0q-1 -48 -33 -79q-31 -32 -79 -33v0z" />
</svg>
