<?xml version="1.0" standalone="no"?>
<!DOCTYPE svg PUBLIC "-//W3C//DTD SVG 1.1//EN" "http://www.w3.org/Graphics/SVG/1.1/DTD/svg11.dtd" >
<svg xmlns="http://www.w3.org/2000/svg" xmlns:xlink="http://www.w3.org/1999/xlink" version="1.1" viewBox="-10 -40 532 512">
   <path fill="currentColor"
d="M456 9q21 23 38 59v0v0q17 36 18 85h-64v0q-1 -34 -12 -59q-12 -25 -27 -41q-16 -17 -28 -24l-9 -6q-1 -1 -2 -1v0v0v0v0v0v0v0v0q-1 0 2 -4q2 -5 12 -25q10 -21 13 -25q2 -4 1 -4v0v0v0v0v0l1 1v0v0v0h1v0q1 1 2 1l2 2q5 2 13 8q17 11 39 33v0zM160 281q14 0 23 9v0v0
q9 9 9 23t-9 23t-23 9t-23 -9t-9 -23t9 -23t23 -9v0zM32 409q14 0 23 9v0v0q9 9 9 23t-9 23t-23 9t-23 -9t-9 -23t9 -23t23 -9v0zM87 322l64 64l-64 -64l64 64l22 23v0l-45 45v0l-23 -22v0l-64 -64v0l-22 -23v0l45 -45v0l23 22v0zM240 89q-48 1 -79 33v0v0q-32 31 -33 79
h-64v0q2 -75 52 -124q49 -50 124 -52q75 2 124 52q50 49 52 124q0 41 -17 76t-47 60v24v0q-1 48 -33 79q-31 32 -79 33h-32v0v-64v0h32v0q20 -1 34 -14q13 -14 14 -34v-40v0v-17v0l14 -10v0q23 -15 36 -39q14 -25 14 -54q-1 -48 -33 -79q-31 -32 -79 -33v0zM208 201h-48h48
h-48q1 -34 23 -57q23 -22 57 -23q34 1 57 23q22 23 23 57h-48v0q0 -14 -9 -23t-23 -9t-23 9t-9 23v0z" />
</svg>
