<?xml version="1.0" standalone="no"?>
<!DOCTYPE svg PUBLIC "-//W3C//DTD SVG 1.1//EN" "http://www.w3.org/Graphics/SVG/1.1/DTD/svg11.dtd" >
<svg xmlns="http://www.w3.org/2000/svg" xmlns:xlink="http://www.w3.org/1999/xlink" version="1.1" viewBox="-10 -40 596 512">
   <path fill="currentColor"
d="M0 -7v64v-64v64h576v0v-64v0h-576v0zM0 89v352v-352v352h576v0v-352v0h-576v0zM64 377l32 -64l-32 64l32 -64h160v0l32 64v0h-224v0zM176 153q36 1 55 32q18 32 0 64q-19 31 -55 32q-36 -1 -55 -32q-18 -32 0 -64q19 -31 55 -32v0zM352 153h16h-16h160v32v0h-16h-144v-32
v0zM352 217h16h-16h160v32v0h-16h-144v-32v0zM352 281h16h-16h160v32v0h-16h-144v-32v0z" />
</svg>
