<?xml version="1.0" standalone="no"?>
<!DOCTYPE svg PUBLIC "-//W3C//DTD SVG 1.1//EN" "http://www.w3.org/Graphics/SVG/1.1/DTD/svg11.dtd" >
<svg xmlns="http://www.w3.org/2000/svg" xmlns:xlink="http://www.w3.org/1999/xlink" version="1.1" viewBox="-10 -40 330 512">
   <path fill="currentColor"
d="M98 279l14 -18l-14 18l14 -18v-22v0v-214v0h96v0v214v0v22v0l14 18v0q17 21 18 50q-1 34 -23 57q-23 22 -57 23q-34 -1 -57 -23q-22 -23 -23 -57q0 -29 18 -50v0zM272 -39h-64h64h-224v64v0v214v0q-31 38 -32 90q2 61 42 102q41 40 102 42q61 -2 102 -42q40 -41 42 -102
q-1 -52 -32 -90v-214v0v-64v0zM160 377q27 -1 42 -24q12 -24 0 -48q-15 -23 -42 -24q-27 1 -42 24q-12 24 0 48q15 23 42 24v0z" />
</svg>
