<?xml version="1.0" standalone="no"?>
<!DOCTYPE svg PUBLIC "-//W3C//DTD SVG 1.1//EN" "http://www.w3.org/Graphics/SVG/1.1/DTD/svg11.dtd" >
<svg xmlns="http://www.w3.org/2000/svg" xmlns:xlink="http://www.w3.org/1999/xlink" version="1.1" viewBox="-10 -40 532 512">
   <path fill="currentColor"
d="M0 217l128 -224l-128 224l128 -224h256v0l128 224v0l-128 224v0h-256v0l-128 -224v0zM354 153l-34 -34l34 34l-34 -34l-17 17v0l-47 47v0l-47 -47v0l-17 -17v0l-34 34v0l17 17v0l47 47v0l-47 47v0l-17 17v0l34 34v0l17 -17v0l47 -47v0l47 47v0l17 17v0l34 -34v0l-17 -17
v0l-47 -47v0l47 -47v0l17 -17v0z" />
</svg>
