<?xml version="1.0" standalone="no"?>
<!DOCTYPE svg PUBLIC "-//W3C//DTD SVG 1.1//EN" "http://www.w3.org/Graphics/SVG/1.1/DTD/svg11.dtd" >
<svg xmlns="http://www.w3.org/2000/svg" xmlns:xlink="http://www.w3.org/1999/xlink" version="1.1" viewBox="-10 -40 522 512">
   <path fill="currentColor"
d="M256 -39l12 5l-12 -5l12 5l207 80v0l19 7v0l2 21v0q2 38 -6 91t-32 110t-70 108t-119 84l-13 6v0l-13 -5v0q-73 -33 -119 -85q-46 -51 -70 -108t-32 -110t-5 -91l1 -20v0l19 -8v0l207 -80v0l12 -5v0zM369 170l17 -17l-17 17l17 -17l-34 -34v0l-17 17v0l-111 111v0
l-47 -47v0l-17 -17v0l-34 34v0l17 17v0l64 64v0l17 17v0l17 -17v0l128 -128v0z" />
</svg>
