<?xml version="1.0" standalone="no"?>
<!DOCTYPE svg PUBLIC "-//W3C//DTD SVG 1.1//EN" "http://www.w3.org/Graphics/SVG/1.1/DTD/svg11.dtd" >
<svg xmlns="http://www.w3.org/2000/svg" xmlns:xlink="http://www.w3.org/1999/xlink" version="1.1" viewBox="-10 -40 522 512">
   <path fill="currentColor"
d="M369 104l-57 57l57 -57l-57 57l24 24v0h160v0v-160v0l-24 -24v0l-58 58v0v0v0q-44 -44 -101 -59q-57 -14 -114 0q-57 15 -101 59t-59 101q-14 57 0 114q15 57 59 101t101 59q57 14 114 0q57 -15 101 -59l-45 -45v0q-49 47 -113 47t-113 -47q-47 -49 -47 -113t47 -113
q49 -47 113 -47t113 47v0v0z" />
</svg>
