<?xml version="1.0" standalone="no"?>
<!DOCTYPE svg PUBLIC "-//W3C//DTD SVG 1.1//EN" "http://www.w3.org/Graphics/SVG/1.1/DTD/svg11.dtd" >
<svg xmlns="http://www.w3.org/2000/svg" xmlns:xlink="http://www.w3.org/1999/xlink" version="1.1" viewBox="-10 -40 532 512">
   <path fill="currentColor"
d="M256 9q-1 34 -23 57v0v0q-23 22 -57 23h-10h-6q-27 1 -45 19t-19 45q1 30 22 48h-14v0q-31 1 -51 21t-21 51q2 40 34 61q-30 10 -47 34q-18 25 -19 57v48v0h512v0v-48v0q-1 -32 -19 -57q-17 -24 -47 -34q32 -21 34 -61q-1 -31 -21 -51t-51 -21h-14v0q21 -18 22 -48
q-1 -27 -19 -45t-45 -19h-5v0q5 -15 5 -32q-1 -41 -28 -68t-68 -28q-8 0 -15 1q15 20 15 47v0zM192 217q14 0 23 9v0v0q9 9 9 23t-9 23t-23 9t-23 -9t-9 -23t9 -23t23 -9v0zM288 249q0 -14 9 -23v0v0q9 -9 23 -9t23 9t9 23t-9 23t-23 9t-23 -9t-9 -23v0zM256 409
q-32 -1 -53 -17v0v0q-22 -15 -32 -30v0v0q-11 -16 -11 -17h192v0q0 1 -11 17q-10 15 -32 30q-21 16 -53 17v0z" />
</svg>
