<?xml version="1.0" standalone="no"?>
<!DOCTYPE svg PUBLIC "-//W3C//DTD SVG 1.1//EN" "http://www.w3.org/Graphics/SVG/1.1/DTD/svg11.dtd" >
<svg xmlns="http://www.w3.org/2000/svg" xmlns:xlink="http://www.w3.org/1999/xlink" version="1.1" viewBox="-10 -40 532 512">
   <path fill="currentColor"
d="M288 249v32v-32v32h-64v0v-32v0v-163v0l-41 42v0l-23 22v0l-45 -45v0l22 -23v0l96 -96v0l23 -22v0l23 22v0l96 96v0l22 23v0l-45 45v0l-23 -22v0l-41 -42v0v163v0zM0 281h144h-144h144l32 64v0h160v0l32 -64v0h144v0v192v0h-512v0v-192v0z" />
</svg>
