<?xml version="1.0" standalone="no"?>
<!DOCTYPE svg PUBLIC "-//W3C//DTD SVG 1.1//EN" "http://www.w3.org/Graphics/SVG/1.1/DTD/svg11.dtd" >
<svg xmlns="http://www.w3.org/2000/svg" xmlns:xlink="http://www.w3.org/1999/xlink" version="1.1" viewBox="-10 -40 404 512">
   <path fill="currentColor"
d="M224 -39h-224h224h-224v512v0h384v0v-352v0h-160v0v-160v0zM256 -39v128v-128v128h128v0l-128 -128v0zM305 242l-128 128l128 -128l-128 128l-17 17v0l-17 -17v0l-64 -64v0l-17 -17v0l34 -34v0l17 17v0l47 47v0l111 -111v0l17 -17v0l34 34v0l-17 17v0z" />
</svg>
