<?xml version="1.0" standalone="no"?>
<!DOCTYPE svg PUBLIC "-//W3C//DTD SVG 1.1//EN" "http://www.w3.org/Graphics/SVG/1.1/DTD/svg11.dtd" >
<svg xmlns="http://www.w3.org/2000/svg" xmlns:xlink="http://www.w3.org/1999/xlink" version="1.1" viewBox="-10 -40 468 512">
   <path fill="currentColor"
d="M448 -7h-448h448h-448v448v0h448v0v-448v0zM241 80l112 112l-112 -112l112 112l17 17v0l-34 34v0l-17 -17v0l-71 -71v0v182v0v24v0h-48v0v-24v0v-182v0l-71 71v0l-17 17v0l-34 -34v0l17 -17v0l112 -112v0l17 -17v0l17 17v0z" />
</svg>
