<?xml version="1.0" standalone="no"?>
<!DOCTYPE svg PUBLIC "-//W3C//DTD SVG 1.1//EN" "http://www.w3.org/Graphics/SVG/1.1/DTD/svg11.dtd" >
<svg xmlns="http://www.w3.org/2000/svg" xmlns:xlink="http://www.w3.org/1999/xlink" version="1.1" viewBox="-10 -40 468 512">
   <path fill="currentColor"
d="M104 17v48v-48v48h-48v0v-48v0h48v0zM56 -39h-56h56h-56v56v0v48v0v56v0h48v0v192v0h-48v0v56v0v48v0v56v0h56h104v-56v0v-48v0v-56v0h-48v0v-80v0q41 31 96 32h80v0v48v0h56h104v-56v0v-48v0v-56v0h-56h-104v48v0h-80v0q-36 -1 -62 -23t-33 -57h47v0v-56v0v-48v0v-56v0
h-56h-48zM104 369v48v-48v48h-48v0v-48v0h48v0zM344 209h48h-48h48v48v0h-48v0v-48v0z" />
</svg>
