<?xml version="1.0" standalone="no"?>
<!DOCTYPE svg PUBLIC "-//W3C//DTD SVG 1.1//EN" "http://www.w3.org/Graphics/SVG/1.1/DTD/svg11.dtd" >
<svg xmlns="http://www.w3.org/2000/svg" xmlns:xlink="http://www.w3.org/1999/xlink" version="1.1" viewBox="-10 -40 522 512">
   <path fill="currentColor"
d="M80 201h32h-32h32v32v0h-32v0v-32v0zM32 233v48v-48v48h48h80v-48v0v-32v0v-48v0h-48h-80v48v0v32v0zM240 201h32h-32h32v32v0h-32v0v-32v0zM192 233v48v-48v48h48h80v-48v0v-32v0v-48v0h-48h-80v48v0v32v0zM400 233v-32v32v-32h32v0v32v0h-32v0zM352 281h48h-48h128v-48
v0v-32v0v-48v0h-48h-80v48v0v32v0v48v0z" />
</svg>
