<?xml version="1.0" standalone="no"?>
<!DOCTYPE svg PUBLIC "-//W3C//DTD SVG 1.1//EN" "http://www.w3.org/Graphics/SVG/1.1/DTD/svg11.dtd" >
<svg xmlns="http://www.w3.org/2000/svg" xmlns:xlink="http://www.w3.org/1999/xlink" version="1.1" viewBox="-10 -40 202 512">
   <path fill="currentColor"
d="M112 41v32v-32v32h-32v0v-32v0h32v0zM80 -7h-48h48h-48v48v0v32v0v48v0h48h80v-48v0v-32v0v-48v0h-48h-32zM112 201v32v-32v32h-32v0v-32v0h32v0zM80 153h-48h48h-48v48v0v32v0v48v0h48h80v-48v0v-32v0v-48v0h-48h-32zM80 361h32h-32h32v32v0h-32v0v-32v0zM32 313v48v-48
v48v32v0v48v0h48h80v-48v0v-32v0v-48v0h-48h-80z" />
</svg>
