<?xml version="1.0" standalone="no"?>
<!DOCTYPE svg PUBLIC "-//W3C//DTD SVG 1.1//EN" "http://www.w3.org/Graphics/SVG/1.1/DTD/svg11.dtd" >
<svg xmlns="http://www.w3.org/2000/svg" xmlns:xlink="http://www.w3.org/1999/xlink" version="1.1" viewBox="-10 -40 586 512">
   <path fill="currentColor"
d="M32 -7h128h-128h128v192v0l192 -96v0v96v0l192 -96v0v96v0v256v0h-512v0v-96v0v-160v0v-192v0zM328 273h-80h80h-80v80v0h80v0v-80v0zM200 273h-80h80h-80v80v0h80v0v-80v0zM456 273h-80h80h-80v80v0h80v0v-80v0z" />
</svg>
