<?xml version="1.0" standalone="no"?>
<!DOCTYPE svg PUBLIC "-//W3C//DTD SVG 1.1//EN" "http://www.w3.org/Graphics/SVG/1.1/DTD/svg11.dtd" >
<svg xmlns="http://www.w3.org/2000/svg" xmlns:xlink="http://www.w3.org/1999/xlink" version="1.1" viewBox="-10 -40 596 512">
   <path fill="currentColor"
d="M352 105q1 -34 23 -57v0v0q23 -22 57 -23q34 1 57 23q22 23 23 57v48v0v32v0h64v0v-32v0v-48v0q-2 -61 -42 -102q-41 -40 -102 -42q-61 2 -102 42q-40 41 -42 102v48v0h-288v0v320v0h448v0v-320v0h-96v0v-48v0z" />
</svg>
