<?xml version="1.0" standalone="no"?>
<!DOCTYPE svg PUBLIC "-//W3C//DTD SVG 1.1//EN" "http://www.w3.org/Graphics/SVG/1.1/DTD/svg11.dtd" >
<svg xmlns="http://www.w3.org/2000/svg" xmlns:xlink="http://www.w3.org/1999/xlink" version="1.1" viewBox="-10 -40 404 512">
   <path fill="currentColor"
d="M192 473q2 -1 30 -34v0v0q29 -33 66 -84v0v0q38 -51 66 -105v0v0q29 -54 30 -97q-2 -82 -56 -136t-136 -56q-82 2 -136 56t-56 136q2 43 30 97q29 54 66 105q38 51 66 84q29 33 30 34v0zM192 89q36 1 55 32q18 32 0 64q-19 31 -55 32q-36 -1 -55 -32q-18 -32 0 -64
q19 -31 55 -32v0z" />
</svg>
