<?xml version="1.0" standalone="no"?>
<!DOCTYPE svg PUBLIC "-//W3C//DTD SVG 1.1//EN" "http://www.w3.org/Graphics/SVG/1.1/DTD/svg11.dtd" >
<svg xmlns="http://www.w3.org/2000/svg" xmlns:xlink="http://www.w3.org/1999/xlink" version="1.1" viewBox="-10 -40 596 512">
   <path fill="currentColor"
d="M576 25h-576h576h-576v384v0h576v0v-384v0zM128 345h-64h64h-64v-64v0q27 1 45 19t19 45v0zM64 153v-64v64v-64h64v0q-1 27 -19 45t-45 19v0zM448 345q1 -27 19 -45v0v0q18 -18 45 -19v64v0h-64v0zM512 153q-27 -1 -45 -19v0v0q-18 -18 -19 -45h64v0v64v0zM176 217
q0 -30 15 -56v0v0q15 -26 41 -41t56 -15t56 15t41 41t15 56t-15 56t-41 41t-56 15t-56 -15t-41 -41t-15 -56v0zM252 149v40v-40v40h16v0v48v0h-4h-20v40v0h20h68v-40v0h-20h-4v-68v0v-20v0h-20h-36z" />
</svg>
