<?xml version="1.0" standalone="no"?>
<!DOCTYPE svg PUBLIC "-//W3C//DTD SVG 1.1//EN" "http://www.w3.org/Graphics/SVG/1.1/DTD/svg11.dtd" >
<svg xmlns="http://www.w3.org/2000/svg" xmlns:xlink="http://www.w3.org/1999/xlink" version="1.1" viewBox="-10 -40 468 512">
   <path fill="currentColor"
d="M0 -7h448h-448h448v448v0h-448v0v-448v0zM176 57h-64h64h-64v32v0v32v0h-16h-32v64v0h32h16v160v0v32v0h64v0v-32v0v-160v0h16h32v-64v0h-32h-16v-32v0v-32v0zM336 89v-32v32v-32h-64v0v32v0v160v0h-16h-32v64v0h32h16v32v0v32v0h64v0v-32v0v-32v0h16h32v-64v0h-32h-16
v-160v0z" />
</svg>
