<?xml version="1.0" standalone="no"?>
<!DOCTYPE svg PUBLIC "-//W3C//DTD SVG 1.1//EN" "http://www.w3.org/Graphics/SVG/1.1/DTD/svg11.dtd" >
<svg xmlns="http://www.w3.org/2000/svg" xmlns:xlink="http://www.w3.org/1999/xlink" version="1.1" viewBox="-10 -40 276 512">
   <path fill="currentColor"
d="M176 201q31 -23 32 -64q-1 -34 -23 -57q-23 -22 -57 -23q-34 1 -57 23q-22 23 -23 57q1 41 32 64h-8h-24v48v0h24h6l-14 96v0h128v0l-14 -96v0h6h24v-48v0h-24h-8zM0 473h256h-256h256v-32v0l-48 -64v0h-160v0l-48 64v0v32v0z" />
</svg>
