<?xml version="1.0" standalone="no"?>
<!DOCTYPE svg PUBLIC "-//W3C//DTD SVG 1.1//EN" "http://www.w3.org/Graphics/SVG/1.1/DTD/svg11.dtd" >
<svg xmlns="http://www.w3.org/2000/svg" xmlns:xlink="http://www.w3.org/1999/xlink" version="1.1" viewBox="-10 -40 330 512">
   <path fill="currentColor"
d="M67 345l13 -120l-13 120l13 -120l-40 -40v0v-128v0h56v0v48v0h32v0v-48v0h64v0v48v0h32v0v-48v0h56v0v128v0l-40 40v0l13 120v0h-186v0zM136 209v40v-40v40h48v0v-40v0q-2 -22 -24 -24q-22 2 -24 24v0zM16 473v-32v32v-32l48 -64v0h192v0l48 64v0v32v0h-288v0z" />
</svg>
