<?xml version="1.0" standalone="no"?>
<!DOCTYPE svg PUBLIC "-//W3C//DTD SVG 1.1//EN" "http://www.w3.org/Graphics/SVG/1.1/DTD/svg11.dtd" >
<svg xmlns="http://www.w3.org/2000/svg" xmlns:xlink="http://www.w3.org/1999/xlink" version="1.1" viewBox="-10 -40 468 512">
   <path fill="currentColor"
d="M224 -39q-63 1 -113 31v0v0q-51 29 -80 80v0v0q-30 50 -31 113v288v0h448v0v-288v0q-1 -63 -31 -113q-29 -51 -80 -80q-50 -30 -113 -31v0zM128 345q0 14 9 23v0v0q9 9 23 9h128v0q14 0 23 -9t9 -23t-9 -23t-23 -9h-128v0q-14 0 -23 9t-9 23v0zM352 345q-1 27 -19 45v0v0
q-18 18 -45 19h-128v0q-27 -1 -45 -19t-19 -45q0 -23 14 -40q13 -16 34 -22v-34v0q-34 -1 -57 -23q-22 -23 -23 -57v-16v0v-32v0h32h48q34 1 57 23q22 23 23 57q1 -34 23 -57q23 -22 57 -23h48h32v32v0v16v0q-1 34 -23 57q-23 22 -57 23v34v0q21 6 34 22q14 17 14 40v0z
M176 265v16v-16v16h96v0v-16v0l-16 -16v0l-32 -32v0l-32 32v0l-16 16v0zM259 185q-3 8 -3 16v16v0h32h16q33 -2 45 -32q3 -8 3 -16v-16v0h-32h-16q-33 2 -45 32v0zM144 153h-16h16h-48v16v0q0 8 3 16q12 30 45 32h16h32v-16v0q0 -8 -3 -16q-12 -30 -45 -32v0z" />
</svg>
