<?xml version="1.0" standalone="no"?>
<!DOCTYPE svg PUBLIC "-//W3C//DTD SVG 1.1//EN" "http://www.w3.org/Graphics/SVG/1.1/DTD/svg11.dtd" >
<svg xmlns="http://www.w3.org/2000/svg" xmlns:xlink="http://www.w3.org/1999/xlink" version="1.1" viewBox="-10 -40 468 512">
   <path fill="currentColor"
d="M208 -7v128v-128v128h-208v0l64 -128v0h144v0zM240 -7h144h-144h144l64 128v0h-208v0v-128v0zM0 153h448h-448h448v288v0h-448v0v-288v0zM337 242l17 -17l-17 17l17 -17l-34 -34v0l-17 17v0l-111 111v0l-47 -47v0l-17 -17v0l-34 34v0l17 17v0l64 64v0l17 17v0l17 -17v0
l128 -128v0z" />
</svg>
