<?xml version="1.0" standalone="no"?>
<!DOCTYPE svg PUBLIC "-//W3C//DTD SVG 1.1//EN" "http://www.w3.org/Graphics/SVG/1.1/DTD/svg11.dtd" >
<svg xmlns="http://www.w3.org/2000/svg" xmlns:xlink="http://www.w3.org/1999/xlink" version="1.1" viewBox="-10 -40 660 512">
   <path fill="currentColor"
d="M0 -39h32h-32h128v32v0v352v0h480h32v64v0h-32h-67q3 8 3 16q-1 20 -14 34q-14 13 -34 14q-20 -1 -34 -14q-13 -14 -14 -34q0 -8 3 -16h-198v0q3 8 3 16q-1 20 -14 34q-14 13 -34 14q-20 -1 -34 -14q-13 -14 -14 -34q0 -8 3 -16h-67h-32v-32v0v-352v0h-32h-32v-64v0z" />
</svg>
