<?xml version="1.0" standalone="no"?>
<!DOCTYPE svg PUBLIC "-//W3C//DTD SVG 1.1//EN" "http://www.w3.org/Graphics/SVG/1.1/DTD/svg11.dtd" >
<svg xmlns="http://www.w3.org/2000/svg" xmlns:xlink="http://www.w3.org/1999/xlink" version="1.1" viewBox="-10 -40 596 512">
   <path fill="currentColor"
d="M0 -7v448v-448v448h96v0v-448v0h-96v0zM128 -7v448v-448v448h320v0v-448v0h-320v0zM576 441v-448v448v-448h-96v0v448v0h96v0zM256 121h64h-64h64v64v0h64v0v64v0h-64v0v64v0h-64v0v-64v0h-64v0v-64v0h64v0v-64v0z" />
</svg>
