<?xml version="1.0" standalone="no"?>
<!DOCTYPE svg PUBLIC "-//W3C//DTD SVG 1.1//EN" "http://www.w3.org/Graphics/SVG/1.1/DTD/svg11.dtd" >
<svg xmlns="http://www.w3.org/2000/svg" xmlns:xlink="http://www.w3.org/1999/xlink" version="1.1" viewBox="-10 -40 660 512">
   <path fill="currentColor"
d="M64 -39v32v-32v32v128v0h512v0v-128v0v-32v0h64v0v32v0v128v0v32v0v32v0v192v0v32v0v32v0v32v0h-64v0v-32v0h-512v0v32v0h-64v0v-32v0v-32v0v-32v0v-192v0v-32v0v-32v0v-128v0v-32v0h64v0zM64 377h512h-512h512v-192v0h-512v0v192v0zM352 -39h128h-128h128v128v0h-128v0
v-128v0zM224 217v128v-128v128h-128v0v-128v0h128v0zM384 217v128v-128v128h-128v0v-128v0h128v0z" />
</svg>
