<?xml version="1.0" standalone="no"?>
<!DOCTYPE svg PUBLIC "-//W3C//DTD SVG 1.1//EN" "http://www.w3.org/Graphics/SVG/1.1/DTD/svg11.dtd" >
<svg xmlns="http://www.w3.org/2000/svg" xmlns:xlink="http://www.w3.org/1999/xlink" version="1.1" viewBox="-10 -40 596 512">
   <path fill="currentColor"
d="M112 57q-20 1 -34 14v0v0q-13 14 -14 34v112v0h96v0v-112v0q-1 -20 -14 -34q-14 -13 -34 -14v0zM0 105q1 -48 33 -79v0v0q31 -32 79 -33q48 1 79 33q32 31 33 79v224v0q-1 48 -33 79q-31 32 -79 33q-48 -1 -79 -33q-32 -31 -33 -79v-224v0zM576 281q-1 59 -36 101
l-225 -225v0q42 -35 101 -36q68 2 113 47t47 113v0zM416 441q-68 -2 -113 -47v0v0q-45 -45 -47 -113q1 -59 36 -101l225 225v0q-42 35 -101 36v0z" />
</svg>
