<?xml version="1.0" standalone="no"?>
<!DOCTYPE svg PUBLIC "-//W3C//DTD SVG 1.1//EN" "http://www.w3.org/Graphics/SVG/1.1/DTD/svg11.dtd" >
<svg xmlns="http://www.w3.org/2000/svg" xmlns:xlink="http://www.w3.org/1999/xlink" version="1.1" viewBox="-10 -40 660 512">
   <path fill="currentColor"
d="M472 -39h16h-16h31l6 13v0l26 51v0h81h24v48v0h-24h-111l-6 -13v0l-19 -36v0l-50 107v0l-7 14v0h-15h-32l-6 -14v0l-26 -58v0h-128h-24v-48v0h24h160l6 14v0l18 42v0l50 -106v0l7 -14v0h15v0zM320 121h11h-11h11l10 23v0l15 33v0h36h52l15 -32v0l11 -24v0h74v0
q41 1 68 28t28 68v224v0v32v0h-64v0v-32v0v-32v0h-224h-288v32v0v32v0h-64v0v-32v0v-384v0v-32v0h64v0v32v0v256v0h224v0v-160v0v-32v0h32v0zM176 121q45 1 69 40q22 40 0 80q-24 39 -69 40q-45 -1 -69 -40q-22 -40 0 -80q24 -39 69 -40v0z" />
</svg>
