<?xml version="1.0" standalone="no"?>
<!DOCTYPE svg PUBLIC "-//W3C//DTD SVG 1.1//EN" "http://www.w3.org/Graphics/SVG/1.1/DTD/svg11.dtd" >
<svg xmlns="http://www.w3.org/2000/svg" xmlns:xlink="http://www.w3.org/1999/xlink" version="1.1" viewBox="-10 -40 596 512">
   <path fill="currentColor"
d="M576 -7h-160h160h-160v64v0h160v0v-64v0zM261 217h91h-91h91v-224v0h-240v0q-48 1 -79 33q-32 31 -33 79q1 39 23 68t57 40l-80 140v0l136 80v0l125 -216v0zM416 153v64v-64v64h160v0v-64v0h-160v0zM576 377h-160h160h-160v64v0h160v0v-64v0zM416 89v32v-32v32h160v0v-32
v0h-160v0zM576 249h-160h160h-160v32v0h160v0v-32v0zM416 313v32v-32v32h160v0v-32v0h-160v0z" />
</svg>
