<?xml version="1.0" standalone="no"?>
<!DOCTYPE svg PUBLIC "-//W3C//DTD SVG 1.1//EN" "http://www.w3.org/Graphics/SVG/1.1/DTD/svg11.dtd" >
<svg xmlns="http://www.w3.org/2000/svg" xmlns:xlink="http://www.w3.org/1999/xlink" version="1.1" viewBox="-10 -40 660 512">
   <path fill="currentColor"
d="M448 -39v43v-43v43q1 59 42 102l21 21v0q32 33 33 79v43v0h-64v0v-43v0q0 -20 -14 -34l-21 -21v0q-60 -61 -61 -147v-43v0h64v0zM576 249v-43v43v-43q-1 -59 -42 -102l-21 -21v0q-32 -33 -33 -79v-43v0h64v0v43v0q0 20 14 34l21 21v0q60 61 61 147v43v0h-64v0zM0 313h32
h-32h448v32v0v96v0v32v0h-32h-416v-32v0v-96v0v-32v0zM224 377v32v-32v32h160v0v-32v0h-160v0zM544 313v32v-32v32v96v0v32v0h-64v0v-32v0v-96v0v-32v0h64v0zM640 313v32v-32v32v96v0v32v0h-64v0v-32v0v-96v0v-32v0h64v0z" />
</svg>
