<?xml version="1.0" standalone="no"?>
<!DOCTYPE svg PUBLIC "-//W3C//DTD SVG 1.1//EN" "http://www.w3.org/Graphics/SVG/1.1/DTD/svg11.dtd" >
<svg xmlns="http://www.w3.org/2000/svg" xmlns:xlink="http://www.w3.org/1999/xlink" version="1.1" viewBox="-10 -40 532 512">
   <path fill="currentColor"
d="M96 343v-102v102v-102v-10v0l7 -7v0l37 -37v0l57 57v0l11 12v0l23 -23v0l-12 -11v0l-57 -57v0l42 -42v0l57 57v0l11 12v0l23 -23v0l-12 -11v0l-57 -57v0l42 -42v0l57 57v0l11 12v0l23 -23v0l-12 -11v0l-57 -57v0l46 -46v0q30 -29 73 -30q44 1 73 30t30 73q-1 43 -30 73
l-233 233v0l-7 7v0h-10h-102l-78 78v0l-17 17v0l-34 -34v0l17 -17v0l78 -78v0z" />
</svg>
