<?xml version="1.0" standalone="no"?>
<!DOCTYPE svg PUBLIC "-//W3C//DTD SVG 1.1//EN" "http://www.w3.org/Graphics/SVG/1.1/DTD/svg11.dtd" >
<svg xmlns="http://www.w3.org/2000/svg" xmlns:xlink="http://www.w3.org/1999/xlink" version="1.1" viewBox="-10 -40 532 512">
   <path fill="currentColor"
d="M128 137q0 -35 17 -64v0v0q17 -29 47 -47q30 -17 64 -17t64 17q30 18 47 47t17 64t-17 64t-47 47q-30 17 -64 17t-64 -17q-30 -18 -47 -47t-17 -64v0zM392 25q-25 -30 -60 -47v0v0q-35 -17 -76 -17t-76 17t-60 47h-120v0v448v0h512v0v-448v0h-120v0zM296 185
q0 -16 -11 -27l34 -79v0l6 -14v0l-29 -13v0l-7 15v0l-33 78v0q-17 1 -28 12q-12 11 -12 28t12 28q11 12 28 12t28 -12q12 -11 12 -28v0z" />
</svg>
