<?xml version="1.0" standalone="no"?>
<!DOCTYPE svg PUBLIC "-//W3C//DTD SVG 1.1//EN" "http://www.w3.org/Graphics/SVG/1.1/DTD/svg11.dtd" >
<svg xmlns="http://www.w3.org/2000/svg" xmlns:xlink="http://www.w3.org/1999/xlink" version="1.1" viewBox="-10 -40 660 512">
   <path fill="currentColor"
d="M64 -7l256 32l-256 -32l256 32l256 -32v0l64 128v0l-64 18v0l-160 46v0l-58 -96v0l-38 -64v0l-38 64v0l-58 96v0l-160 -46v0l-64 -18v0l64 -128v0zM64 377v-204v204v-204l151 43v0l24 7v0l12 -21v0l68 -113v0h2v0l68 113v0l12 21v0l24 -7v0l151 -43v0v204v0l-256 64v0
l-256 -64v0z" />
</svg>
