<?xml version="1.0" standalone="no"?>
<!DOCTYPE svg PUBLIC "-//W3C//DTD SVG 1.1//EN" "http://www.w3.org/Graphics/SVG/1.1/DTD/svg11.dtd" >
<svg xmlns="http://www.w3.org/2000/svg" xmlns:xlink="http://www.w3.org/1999/xlink" version="1.1" viewBox="-10 -40 532 512">
   <path fill="currentColor"
d="M512 201q-1 58 -35 105v0v0q-34 47 -92 75v0v0q-57 27 -129 28q-47 0 -90 -13l-150 45v0l41 -109v0q-55 -55 -57 -131q1 -58 35 -105t92 -75q57 -27 129 -28q72 1 129 28q58 28 92 75t35 105v0zM192 169q14 0 23 -9v0v0q9 -9 9 -23t-9 -23t-23 -9t-23 9t-9 23t9 23t23 9
v0zM320 169q14 0 23 -9v0v0q9 -9 9 -23t-9 -23t-23 -9t-23 9t-9 23t9 23t23 9v0zM168 215l-35 32l35 -32l-35 32l16 18v0q41 46 107 48q66 -2 107 -48l16 -18v0l-36 -32v0l-16 18v0q-27 31 -71 32q-44 -1 -72 -32l-16 -18v0z" />
</svg>
