<?xml version="1.0" standalone="no"?>
<!DOCTYPE svg PUBLIC "-//W3C//DTD SVG 1.1//EN" "http://www.w3.org/Graphics/SVG/1.1/DTD/svg11.dtd" >
<svg xmlns="http://www.w3.org/2000/svg" xmlns:xlink="http://www.w3.org/1999/xlink" version="1.1" viewBox="-10 -40 588 512">
   <path fill="currentColor"
d="M288 -39l-77 102l77 -102l-77 102q-19 26 -19 58q1 41 28 68t68 28q41 -1 68 -28t28 -68q0 -32 -19 -58l-77 -102v0zM140 288l-71 57l71 -57l-71 57h-69v0v128v0h32h364l11 -7v0l128 -88v0l33 -23v0l-46 -66v0l-33 23v0l-94 65v0h-139v0v-32v0h32h96v-64v0h-32h-203l-9 7
v0z" />
</svg>
