<?xml version="1.0" standalone="no"?>
<!DOCTYPE svg PUBLIC "-//W3C//DTD SVG 1.1//EN" "http://www.w3.org/Graphics/SVG/1.1/DTD/svg11.dtd" >
<svg xmlns="http://www.w3.org/2000/svg" xmlns:xlink="http://www.w3.org/1999/xlink" version="1.1" viewBox="-10 -40 660 512">
   <path fill="currentColor"
d="M344 -4q11 2 18 4l23 6v0l-12 46v0l-23 -6v0q-4 -1 -11 -2t-10 -2q-18 -2 -27 2t-4 10q8 5 29 11h1v0q20 5 42 18q11 8 18 22q6 15 3 32q-7 31 -34 42q-6 2 -13 4v26v0h-48v0v-27v0q-15 -4 -27 -9h-1q-2 -1 -3 -1l-23 -8v0l15 -45v0l23 7v0q1 1 2 1l4 2h2q15 5 24 7
q18 2 26 -1q10 -6 4 -13q-8 -5 -29 -11l-2 -1v0h-1q-19 -5 -38 -16q-12 -7 -19 -21q-7 -15 -4 -32q8 -30 34 -41q6 -2 13 -4v-27v0h48v0v27v0zM80 25v40v-40v40v8v0v32v0v80v0v67v0l84 84v0l42 -28v0l-37 -36v0l-22 -23v0l-10 -9v0l-22 -23v0l45 -45v0l23 22v0l9 10v0l23 22
v0l64 64v0l9 10v0v13v0v64v0v32v0v32v0v32v0h-32h-109l-10 -9v0l-128 -128v0l-9 -10v0v-13v0v-128v0v-64v0v-32v0v-24v0v-40v0h80v0zM560 25h80h-80h80v40v0v24v0v32v0v64v0v128v0v13v0l-9 10v0l-128 128v0l-10 9v0h-13h-128v-32v0v-32v0v-32v0v-64v0v-13v0l9 -10v0l64 -64
v0l23 -22v0l9 -10v0l23 -22v0l45 45v0l-22 23v0l-10 9v0l-22 23v0l-37 36v0l42 28v0l84 -84v0v-67v0v-80v0v-32v0v-8v0v-40v0z" />
</svg>
