<?xml version="1.0" standalone="no"?>
<!DOCTYPE svg PUBLIC "-//W3C//DTD SVG 1.1//EN" "http://www.w3.org/Graphics/SVG/1.1/DTD/svg11.dtd" >
<svg xmlns="http://www.w3.org/2000/svg" xmlns:xlink="http://www.w3.org/1999/xlink" version="1.1" viewBox="-10 -40 532 512">
   <path fill="currentColor"
d="M256 473q70 -1 128 -34v0v0q58 -34 94 -94q34 -61 34 -128t-34 -128q-36 -60 -94 -94q-58 -33 -128 -34q-70 1 -128 34q-58 34 -94 94q-34 61 -34 128t34 128q36 60 94 94q58 33 128 34v0zM135 248q-23 -23 -23 -56v-3v0q1 -33 22 -54q22 -21 54 -22q36 1 59 28l9 12v0
l9 -12v0q23 -27 59 -28q33 1 54 22t22 54v3v0q0 33 -23 56l-25 25v0l-96 96v0l-96 -96v0l-25 -25v0z" />
</svg>
