<?xml version="1.0" standalone="no"?>
<!DOCTYPE svg PUBLIC "-//W3C//DTD SVG 1.1//EN" "http://www.w3.org/Graphics/SVG/1.1/DTD/svg11.dtd" >
<svg xmlns="http://www.w3.org/2000/svg" xmlns:xlink="http://www.w3.org/1999/xlink" version="1.1" viewBox="-10 -40 532 512">
   <path fill="currentColor"
d="M512 -39v32v-32v32q-2 87 -56 148t-138 74q-12 -81 -66 -139q30 -52 81 -83t115 -32h64v0zM0 25h64h-64h64q63 1 113 31q51 29 80 80q30 50 31 113v32v0v160v0v32v0h-64v0v-32v0v-160v0q-63 -1 -113 -31q-51 -29 -80 -80q-30 -50 -31 -113v-32v0z" />
</svg>
