<?xml version="1.0" standalone="no"?>
<!DOCTYPE svg PUBLIC "-//W3C//DTD SVG 1.1//EN" "http://www.w3.org/Graphics/SVG/1.1/DTD/svg11.dtd" >
<svg xmlns="http://www.w3.org/2000/svg" xmlns:xlink="http://www.w3.org/1999/xlink" version="1.1" viewBox="-10 -40 532 512">
   <path fill="currentColor"
d="M256 473q70 -1 128 -34v0v0q58 -34 94 -94q34 -61 34 -128t-34 -128q-36 -60 -94 -94q-58 -33 -128 -34q-70 1 -128 34q-58 34 -94 94q-34 61 -34 128t34 128q36 60 94 94q58 33 128 34v0zM130 288l28 -14l-28 14l28 -14q7 15 31 34q25 19 67 21q42 -2 67 -21
q24 -19 31 -34l28 14v0q-9 21 -41 46q-31 25 -85 27q-54 -2 -85 -27q-32 -25 -41 -46v0zM144 169q1 -14 10 -23v0v0q9 -9 22 -9q14 0 23 9t9 23t-9 23t-23 9q-13 0 -22 -9t-10 -23v0zM293 199l-26 -20l26 20l-26 -20q28 -34 69 -34t69 34l-26 20v0q-17 -22 -43 -22t-43 22v0
z" />
</svg>
