<?xml version="1.0" standalone="no"?>
<!DOCTYPE svg PUBLIC "-//W3C//DTD SVG 1.1//EN" "http://www.w3.org/Graphics/SVG/1.1/DTD/svg11.dtd" >
<svg xmlns="http://www.w3.org/2000/svg" xmlns:xlink="http://www.w3.org/1999/xlink" version="1.1" viewBox="-10 -40 660 512">
   <path fill="currentColor"
d="M400 -7v256v-256v256h-400v0v-256v0h400v0zM96 41h-32h32h-32v160v0h32v0v-160v0zM224 41v160v-160v160h32v0v-160v0h-32v0zM176 41h-32h32h-32v160v0h32v0v-160v0zM304 41v160v-160v160h32v0v-160v0h-32v0zM432 121h24h-24h122l7 7v0l72 72v0l7 7v0v10v0v32v0v96v0h-34
v0q2 8 2 16q-1 34 -23 57q-23 22 -57 23q-34 -1 -57 -23q-22 -23 -23 -57q0 -8 2 -16h-18h-146q2 8 2 16q-1 34 -23 57q-23 22 -57 23q-41 -1 -64 -32q-23 31 -64 32q-34 -1 -57 -23q-22 -23 -23 -57v-16v0v-32v0v-32v0h32h400v-32v0v-32v0v-72v0v-24v0zM480 217h102h-102
h102l-48 -48v0h-54v0v48v0zM560 361q0 -14 -9 -23v0v0q-9 -9 -23 -9t-23 9t-9 23t9 23t23 9t23 -9t9 -23v0zM208 393q14 0 23 -9v0v0q9 -9 9 -23t-9 -23t-23 -9t-23 9t-9 23t9 23t23 9v0zM112 361q0 -14 -9 -23v0v0q-9 -9 -23 -9t-23 9t-9 23t9 23t23 9t23 -9t9 -23v0z" />
</svg>
