<?xml version="1.0" standalone="no"?>
<!DOCTYPE svg PUBLIC "-//W3C//DTD SVG 1.1//EN" "http://www.w3.org/Graphics/SVG/1.1/DTD/svg11.dtd" >
<svg xmlns="http://www.w3.org/2000/svg" xmlns:xlink="http://www.w3.org/1999/xlink" version="1.1" viewBox="-10 -40 660 512">
   <path fill="currentColor"
d="M480 -7h-480h480h-480v272v0v80v0v16v0q1 34 23 57q23 22 57 23q41 -1 64 -32q23 31 64 32q34 -1 57 -23q22 -23 23 -57q0 -8 -2 -16h130h34q-2 8 -2 16q1 34 23 57q23 22 57 23q34 -1 57 -23q22 -23 23 -57q0 -8 -2 -16h34v0v-96v0v-32v0v-10v0l-7 -7v0l-72 -72v0l-7 -7
v0h-10h-64v-128v0zM582 217h-102h102h-102v-48v0h54v0l48 48v0zM528 329q14 0 23 9v0v0q9 9 9 23t-9 23t-23 9t-23 -9t-9 -23t9 -23t23 -9v0zM176 361q0 -14 9 -23v0v0q9 -9 23 -9t23 9t9 23t-9 23t-23 9t-23 -9t-9 -23v0zM80 329q14 0 23 9v0v0q9 9 9 23t-9 23t-23 9
t-23 -9t-9 -23t9 -23t23 -9v0z" />
</svg>
