<?xml version="1.0" standalone="no"?>
<!DOCTYPE svg PUBLIC "-//W3C//DTD SVG 1.1//EN" "http://www.w3.org/Graphics/SVG/1.1/DTD/svg11.dtd" >
<svg xmlns="http://www.w3.org/2000/svg" xmlns:xlink="http://www.w3.org/1999/xlink" version="1.1" viewBox="-10 -40 660 512">
   <path fill="currentColor"
d="M576 473h-48h48h-48l-244 -192v0h-140v0l-80 192v0h512v0v0v0zM382 235q37 -18 59 -52v0v0q22 -34 23 -78q-2 -61 -42 -102q-41 -40 -102 -42q-53 1 -92 33q-38 32 -49 83l-131 -101v0l-19 -15v0l-29 38v0l19 15v0l573 444v0l19 15v0l29 -38v0l-19 -15v0l-239 -185v0z
" />
</svg>
