<?xml version="1.0" standalone="no"?>
<!DOCTYPE svg PUBLIC "-//W3C//DTD SVG 1.1//EN" "http://www.w3.org/Graphics/SVG/1.1/DTD/svg11.dtd" >
<svg xmlns="http://www.w3.org/2000/svg" xmlns:xlink="http://www.w3.org/1999/xlink" version="1.1" viewBox="-10 -40 650 512">
   <path fill="currentColor"
d="M224 -39q35 0 64 17v0v0q29 17 47 47q17 30 17 64t-17 64q-18 30 -47 47t-64 17t-64 -17t-47 -47q-17 -30 -17 -64t17 -64q18 -30 47 -47t64 -17v0zM404 445v28v-28v28h-404v0l64 -208v0h241v0l-15 27v0l36 21v0l-36 21v0l77 133v0l37 -22v0zM436 167h88h-88h88v43v0
q12 5 22 13l35 -21v0l45 78v0l-35 20v0q1 7 1 13t-1 12l35 20v0l-45 78v0l-35 -20v0q-10 8 -22 13v42v0h-88v0v-42v0q-12 -5 -22 -13l-35 20v0l-45 -78v0l35 -20v0q-1 -6 -1 -12q0 -7 1 -13l-35 -20v0l45 -78v0l34 21v0q11 -8 23 -13v-43v0zM528 313q0 -28 -23 -44
q-25 -13 -50 0q-23 16 -23 44t23 43q25 14 50 0q23 -15 23 -43v0z" />
</svg>
