<?xml version="1.0" standalone="no"?>
<!DOCTYPE svg PUBLIC "-//W3C//DTD SVG 1.1//EN" "http://www.w3.org/Graphics/SVG/1.1/DTD/svg11.dtd" >
<svg xmlns="http://www.w3.org/2000/svg" xmlns:xlink="http://www.w3.org/1999/xlink" version="1.1" viewBox="-10 -40 660 512">
   <path fill="currentColor"
d="M224 -39q35 0 64 17v0v0q29 17 47 47q17 30 17 64t-17 64q-18 30 -47 47t-64 17t-64 -17t-47 -47q-17 -30 -17 -64t17 -64q18 -30 47 -47t64 -17v0zM320 265q2 57 28 113v0v0q26 57 78 95h-426v0l64 -208v0h256v0zM591 273l-95 -36l95 36l-95 -36v184v0q43 -20 67 -61
q24 -40 28 -87v0zM496 473q-72 -26 -108 -88v0v0q-36 -61 -36 -128v-16v0l144 -56v0l144 56v0v16v0q0 67 -36 128q-36 62 -108 88v0z" />
</svg>
