<?xml version="1.0" standalone="no"?>
<!DOCTYPE svg PUBLIC "-//W3C//DTD SVG 1.1//EN" "http://www.w3.org/Graphics/SVG/1.1/DTD/svg11.dtd" >
<svg xmlns="http://www.w3.org/2000/svg" xmlns:xlink="http://www.w3.org/1999/xlink" version="1.1" viewBox="-10 -40 532 512">
   <path fill="currentColor"
d="M0 -39h32h-32h512l-17 64v0h-159h-16v32v0h16h150l-18 64v0h-132h-16v32v0h16h124l-18 64v0h-106h-16v32v0h16h98l-18 64v0h-256v0l-9 -96v0h-119h-32v-32v0v-192v0v-32v0zM146 153l-12 -128l12 128l-12 -128h-70v0v128v0h82v0zM480 345v128v-128v128h-384v0v-128v0h384
v0zM288 441q14 0 23 -9v0v0q9 -9 9 -23t-9 -23t-23 -9t-23 9t-9 23t9 23t23 9v0z" />
</svg>
