<?xml version="1.0" standalone="no"?>
<!DOCTYPE svg PUBLIC "-//W3C//DTD SVG 1.1//EN" "http://www.w3.org/Graphics/SVG/1.1/DTD/svg11.dtd" >
<svg xmlns="http://www.w3.org/2000/svg" xmlns:xlink="http://www.w3.org/1999/xlink" version="1.1" viewBox="-10 -40 596 512">
   <path fill="currentColor"
d="M272 441v-408v408v-408q-12 -13 -46 -26q-33 -13 -82 -14q-49 1 -88 12t-56 20v416v0q18 -9 61 -20q42 -11 83 -12q27 1 56 8q29 8 50 16q21 7 22 8v0zM304 441q1 -1 22 -8v0v0q21 -8 50 -16v0v0q29 -7 56 -8q41 1 83 12q43 11 61 20v-416v0q-17 -9 -56 -20t-88 -12
q-48 1 -82 14q-33 13 -46 26v408v0z" />
</svg>
