<?xml version="1.0" standalone="no"?>
<!DOCTYPE svg PUBLIC "-//W3C//DTD SVG 1.1//EN" "http://www.w3.org/Graphics/SVG/1.1/DTD/svg11.dtd" >
<svg xmlns="http://www.w3.org/2000/svg" xmlns:xlink="http://www.w3.org/1999/xlink" version="1.1" viewBox="-10 -40 660 512">
   <path fill="currentColor"
d="M192 -39h-32h32h-32v32v0v64v0q35 0 64 17v-49v0h352v0v288v0h-64v0v-64v0h-128v0v64v0h-79v0l20 64v0h283h32v-32v0v-352v0v-32v0h-32h-416zM160 281q26 0 48 -13v0v0q22 -13 35 -35q13 -23 13 -48t-13 -48q-13 -22 -35 -35t-48 -13t-48 13t-35 35q-13 23 -13 48t13 48
q13 22 35 35t48 13v0zM320 473l-48 -160l48 160l-48 -160h-224v0l-48 160v0h320v0z" />
</svg>
