<?xml version="1.0" standalone="no"?>
<!DOCTYPE svg PUBLIC "-//W3C//DTD SVG 1.1//EN" "http://www.w3.org/Graphics/SVG/1.1/DTD/svg11.dtd" >
<svg xmlns="http://www.w3.org/2000/svg" xmlns:xlink="http://www.w3.org/1999/xlink" version="1.1" viewBox="-10 -40 532 512">
   <path fill="currentColor"
d="M512 41q-1 27 -38 48q-46 25 -123 31q-5 -3 -11 -5q-61 -25 -148 -26q-12 0 -24 1l-2 -1v0q-37 -21 -38 -48q2 -34 56 -57q54 -22 136 -23q82 1 136 23q54 23 56 57v0zM161 122q15 -1 31 -1q47 0 86 9q40 8 67 22q38 21 39 49q0 6 -2 12q-8 20 -35 35v0v0v0v0v0v0v0v0
l-1 1v0q-27 15 -67 23q-39 9 -87 9q-92 -1 -148 -29q-3 -2 -6 -3q-37 -21 -38 -48q1 -27 36 -47t92 -28q16 -3 33 -4v0zM416 201q-2 -33 -24 -53q43 -7 76 -21q25 -10 44 -25v35v0q-1 30 -44 51q-22 11 -52 18v0v-5v0zM384 297q-1 27 -38 48l-4 2q-1 0 -2 1q-56 28 -148 29
q-48 0 -87 -9q-40 -8 -67 -23q-37 -21 -38 -48v-35v0q19 15 44 25q61 25 148 26q87 -1 148 -26q12 -5 23 -11q9 -5 17 -11q1 -1 3 -2q0 -1 1 -1v3v0v6v0v26v0zM416 297v-32v32v-32v-26v0q29 -6 52 -16q25 -10 44 -25v35v0q0 16 -15 31q-26 25 -81 38v-5v0zM192 409
q87 -1 148 -26q25 -10 44 -25v35v0q-2 34 -56 57q-54 22 -136 23q-82 -1 -136 -23q-54 -23 -56 -57v-35v0q19 15 44 25q61 25 148 26v0z" />
</svg>
