<?xml version="1.0" standalone="no"?>
<!DOCTYPE svg PUBLIC "-//W3C//DTD SVG 1.1//EN" "http://www.w3.org/Graphics/SVG/1.1/DTD/svg11.dtd" >
<svg xmlns="http://www.w3.org/2000/svg" xmlns:xlink="http://www.w3.org/1999/xlink" version="1.1" viewBox="-10 -40 404 512">
   <path fill="currentColor"
d="M0 -39v512v-512v512l64 -48v0l64 48v0l64 -48v0l64 48v0l64 -48v0l64 48v0v-512v0l-64 48v0l-64 -48v0l-64 48v0l-64 -48v0l-64 48v0l-64 -48v0zM96 105h192h-192h208v32v0h-16h-208v-32v0h16v0zM80 297h16h-16h224v32v0h-16h-208v-32v0zM96 201h192h-192h208v32v0h-16
h-208v-32v0h16v0z" />
</svg>
