<?xml version="1.0" standalone="no"?>
<!DOCTYPE svg PUBLIC "-//W3C//DTD SVG 1.1//EN" "http://www.w3.org/Graphics/SVG/1.1/DTD/svg11.dtd" >
<svg xmlns="http://www.w3.org/2000/svg" xmlns:xlink="http://www.w3.org/1999/xlink" version="1.1" viewBox="-10 -40 532 512">
   <path fill="currentColor"
d="M160 473l352 -352l-352 352l352 -352l-160 -160v0l-69 69v0l48 48v0l12 11v0l-23 23v0l-11 -12v0l-48 -48v0l-42 42v0l48 48v0l12 11v0l-23 23v0l-11 -12v0l-48 -48v0l-42 42v0l48 48v0l12 11v0l-23 23v0l-11 -12v0l-48 -48v0l-42 42v0l48 48v0l12 11v0l-23 23v0l-11 -12
v0l-48 -48v0l-69 69v0l160 160v0z" />
</svg>
