<?xml version="1.0" standalone="no"?>
<!DOCTYPE svg PUBLIC "-//W3C//DTD SVG 1.1//EN" "http://www.w3.org/Graphics/SVG/1.1/DTD/svg11.dtd" >
<svg xmlns="http://www.w3.org/2000/svg" xmlns:xlink="http://www.w3.org/1999/xlink" version="1.1" viewBox="-10 -40 660 512">
   <path fill="currentColor"
d="M640 473h-256h256h-256v-96v0q-1 -27 -19 -45t-45 -19q-27 1 -45 19t-19 45v96v0h-256v0v-416v0h160v0l160 -96v0l160 96v0h160v0v416v0zM144 153h-64h64h-64v96v0h64v0v-96v0zM496 153v96v-96v96h64v0v-96v0h-64v0zM144 281h-64h64h-64v96v0h64v0v-96v0zM496 281v96v-96
v96h64v0v-96v0h-64v0zM408 137q-2 -50 -44 -76q-44 -24 -88 0q-42 26 -44 76q2 50 44 76q44 24 88 0q42 -26 44 -76v0zM336 89v16v-16v16v16v0h16h16v32v0h-16h-48v-16v0v-32v0v-16v0h32v0z" />
</svg>
