<?xml version="1.0" standalone="no"?>
<!DOCTYPE svg PUBLIC "-//W3C//DTD SVG 1.1//EN" "http://www.w3.org/Graphics/SVG/1.1/DTD/svg11.dtd" >
<svg xmlns="http://www.w3.org/2000/svg" xmlns:xlink="http://www.w3.org/1999/xlink" version="1.1" viewBox="-10 -40 338 512">
   <path fill="currentColor"
d="M256 9q-1 -27 -24 -42q-24 -12 -48 0q-23 15 -24 42q1 27 24 42q24 12 48 0q23 -15 24 -42v0zM142 90l-10 -2l10 2l-10 -2l-9 4v0l-72 32v0l-13 5v0l-4 14v0l-16 48v0l-10 30v0l60 20v0l10 -30v0l12 -35v0l37 -16v0l-17 64v0q-8 33 14 59l71 78v0l22 80v0l9 31v0l61 -17
v0l-8 -30v0l-24 -88v0l-2 -8v0l-5 -6v0l-53 -57v0l19 -62v0l13 27v0l5 10v0l10 5v0l48 24v0l28 -58v0l-38 -19v0l-35 -70v0l-7 -14v0l-16 -3v0l-80 -16v0zM69 359l-44 43l44 -43l-44 43l-22 23v0l45 45v0l23 -22v0l48 -48v0l4 -5v0l3 -6v0l15 -39v0l-40 -45v0q-4 -4 -7 -8
l-25 62v0z" />
</svg>
