<?xml version="1.0" standalone="no"?>
<!DOCTYPE svg PUBLIC "-//W3C//DTD SVG 1.1//EN" "http://www.w3.org/Graphics/SVG/1.1/DTD/svg11.dtd" >
<svg xmlns="http://www.w3.org/2000/svg" xmlns:xlink="http://www.w3.org/1999/xlink" version="1.1" viewBox="-10 -40 468 512">
   <path fill="currentColor"
d="M343 48l22 -23l-22 23l22 -23l-45 -45v0l-23 22v0l-137 138v0l-57 -58v0l-23 -22v0l-45 45v0l22 23v0l80 80v0l23 22v0l23 -22v0l160 -160v0zM425 189l23 -22l-23 22l23 -22l-44 -46v0l-23 22v0l-222 210v0l-92 -87v0l-23 -22v0l-44 47v0l23 22v0l114 107v0l22 21v0
l22 -21v0l244 -230v-1z" />
</svg>
