<?xml version="1.0" standalone="no"?>
<!DOCTYPE svg PUBLIC "-//W3C//DTD SVG 1.1//EN" "http://www.w3.org/Graphics/SVG/1.1/DTD/svg11.dtd" >
<svg xmlns="http://www.w3.org/2000/svg" xmlns:xlink="http://www.w3.org/1999/xlink" version="1.1" viewBox="-10 -40 596 512">
   <path fill="currentColor"
d="M432 201q41 -1 68 -28v0v0q27 -27 28 -68q-1 -41 -28 -68t-68 -28q-27 0 -49 13q-21 13 -34 35h-53v0q16 -43 52 -69t84 -27q61 2 102 42q40 41 42 102q-2 61 -42 102q-41 40 -102 42q-43 -1 -77 -22l36 -35v0q19 9 41 9v0zM0 121v-32v32v-32h416v0v32v0l-184 184v0v120
v0h88v0v48v0h-88h-136v-48v0h88v0v-120v0l-184 -184v0z" />
</svg>
