<?xml version="1.0" standalone="no"?>
<!DOCTYPE svg PUBLIC "-//W3C//DTD SVG 1.1//EN" "http://www.w3.org/Graphics/SVG/1.1/DTD/svg11.dtd" >
<svg xmlns="http://www.w3.org/2000/svg" xmlns:xlink="http://www.w3.org/1999/xlink" version="1.1" viewBox="-10 -40 522 512">
   <path fill="currentColor"
d="M362 -2l-148 -21l148 21l-148 -21l-132 71v0l-66 135v0l26 148v0l108 105v0l148 21v0l132 -71v0l66 -135v0l-26 -148v0l-108 -105v0zM176 329l-32 -32l32 32l-32 -32l32 -32v0l32 32v0l-32 32v0zM176 137l32 -32l-32 32l32 -32l32 32v0l-32 32v0l-32 -32v0zM368 297
l-32 -32l32 32l-32 -32l32 -32v0l32 32v0l-32 32v0z" />
</svg>
