<?xml version="1.0" standalone="no"?>
<!DOCTYPE svg PUBLIC "-//W3C//DTD SVG 1.1//EN" "http://www.w3.org/Graphics/SVG/1.1/DTD/svg11.dtd" >
<svg xmlns="http://www.w3.org/2000/svg" xmlns:xlink="http://www.w3.org/1999/xlink" version="1.1" viewBox="-10 -40 532 512">
   <path fill="currentColor"
d="M352 57q0 21 -9 40l54 90v0q-36 40 -89 55l-52 -89v0l-68 118v0q32 10 68 10q63 -1 114 -31q50 -30 80 -81l56 32v0q-39 65 -104 104t-146 40q-53 0 -101 -18l-64 110v0l-91 36v0v-94v0l64 -107v0q-34 -31 -57 -71l55 -32v0q15 26 36 46l71 -118v0q-9 -19 -9 -40
q1 -41 28 -68t68 -28q41 1 68 28t28 68v0zM373 355q51 -20 92 -55l47 79v0v94v0l-91 -36v0l-48 -82v0zM256 89q14 0 23 -9v0v0q9 -9 9 -23t-9 -23t-23 -9t-23 9t-9 23t9 23t23 9v0z" />
</svg>
