<?xml version="1.0" standalone="no"?>
<!DOCTYPE svg PUBLIC "-//W3C//DTD SVG 1.1//EN" "http://www.w3.org/Graphics/SVG/1.1/DTD/svg11.dtd" >
<svg xmlns="http://www.w3.org/2000/svg" xmlns:xlink="http://www.w3.org/1999/xlink" version="1.1" viewBox="-10 -40 532 512">
   <path fill="currentColor"
d="M137 93q48 -46 119 -73v0v0q72 -28 142 -42v0v0q70 -14 114 -17q-3 42 -16 109t-38 136l-90 27v0v16v0h71v0q-12 25 -27 48l-108 32v0v16v0h66v0q-48 43 -114 59q-66 17 -124 -13l-59 59v0l-17 17v0l-34 -34v0l17 -17v0l248 -248v0l-22 -22v0l-11 11v0l-176 175v0
q-27 -60 -6 -127q20 -66 65 -112v0z" />
</svg>
