<?xml version="1.0" standalone="no"?>
<!DOCTYPE svg PUBLIC "-//W3C//DTD SVG 1.1//EN" "http://www.w3.org/Graphics/SVG/1.1/DTD/svg11.dtd" >
<svg xmlns="http://www.w3.org/2000/svg" xmlns:xlink="http://www.w3.org/1999/xlink" version="1.1" viewBox="-10 -40 532 512">
   <path fill="currentColor"
d="M128 -39h224h-224h224v160v0h160v0v352v0h-384v0v-176v0h174v0l-39 39v0l-17 17v0l34 34v0l17 -17v0l80 -80v0l17 -17v0l-17 -17v0l-80 -80v0l-17 -17v0l-34 34v0l17 17v0l39 39v0h-174v0v-288v0zM128 249v48v-48v48h-104h-24v-48v0h24h104zM512 89h-128h128h-128v-128v0
l128 128v0z" />
</svg>
