<?xml version="1.0" standalone="no"?>
<!DOCTYPE svg PUBLIC "-//W3C//DTD SVG 1.1//EN" "http://www.w3.org/Graphics/SVG/1.1/DTD/svg11.dtd" >
<svg xmlns="http://www.w3.org/2000/svg" xmlns:xlink="http://www.w3.org/1999/xlink" version="1.1" viewBox="-10 -40 532 512">
   <path fill="currentColor"
d="M45 278l-45 -45l45 45l-45 -45l45 -45v0l76 -76v0l-80 -80v0l-22 -23v0l45 -45v0l23 22v0l80 80v0l60 -60v0l45 -45v0l45 45v0l150 150v0l45 45v0l-45 45v0l-182 182v0l-45 45v0l-45 -45v0l-150 -150v0zM167 157l-76 76l76 -76l-76 76l16 16v0h267v0l48 -48v0l-150 -149
v0l-60 60v0l19 18v0l22 23v0l-45 45v0l-23 -22v0l-18 -19v0z" />
</svg>
