<?xml version="1.0" standalone="no"?>
<!DOCTYPE svg PUBLIC "-//W3C//DTD SVG 1.1//EN" "http://www.w3.org/Graphics/SVG/1.1/DTD/svg11.dtd" >
<svg xmlns="http://www.w3.org/2000/svg" xmlns:xlink="http://www.w3.org/1999/xlink" version="1.1" viewBox="-10 -40 532 512">
   <path fill="currentColor"
d="M256 473q70 -1 128 -34v0v0q58 -34 94 -94q34 -61 34 -128t-34 -128q-36 -60 -94 -94q-58 -33 -128 -34q-70 1 -128 34q-58 34 -94 94q-34 61 -34 128t34 128q36 60 94 94q58 33 128 34v0zM256 293q90 -1 161 -29q-14 56 -57 92q-44 36 -104 37q-60 -1 -103 -37
q-44 -36 -57 -92q71 28 160 29v0zM208 153q0 27 -9 45v0v0q-9 18 -23 19q-14 -1 -23 -19t-9 -45t9 -45t23 -19q14 1 23 19t9 45v0zM336 217q-14 -1 -23 -19v0v0q-9 -18 -9 -45t9 -45t23 -19q14 1 23 19t9 45t-9 45t-23 19v0z" />
</svg>
