<?xml version="1.0" standalone="no"?>
<!DOCTYPE svg PUBLIC "-//W3C//DTD SVG 1.1//EN" "http://www.w3.org/Graphics/SVG/1.1/DTD/svg11.dtd" >
<svg xmlns="http://www.w3.org/2000/svg" xmlns:xlink="http://www.w3.org/1999/xlink" version="1.1" viewBox="-10 -40 532 512">
   <path fill="currentColor"
d="M477 87q-6 2 -13 2q-20 0 -34 -14q-13 -13 -14 -33q0 -8 6 -19v-1v0q8 -14 19 -30q11 -15 19 -26v0q2 -3 4 -5q1 1 1 2l4 4v0q13 17 27 39q15 21 16 36q0 17 -10 29t-25 16v0zM256 -39q79 1 140 42q-2 3 -3 6q-8 13 -9 33q1 34 24 56t56 23q14 0 27 -5q21 47 21 101
q-1 72 -35 129q-34 58 -92 92q-57 34 -129 35q-72 -1 -129 -35q-58 -34 -92 -92q-34 -57 -35 -129q1 -72 35 -129q34 -58 92 -92q57 -34 129 -35v0zM256 293q-90 -1 -160 -29q13 56 57 92q43 36 103 37q60 -1 104 -37q43 -36 57 -92q-71 28 -161 29v0zM176 113q-22 1 -38 25
v0v0q-17 24 -18 55q1 -2 18 -16q16 -14 38 -16q22 2 39 16q16 14 17 16q-1 -31 -17 -55q-17 -24 -39 -25v0zM280 193q1 -2 18 -16v0v0q16 -14 38 -16q22 2 39 16q16 14 17 16q-1 -31 -17 -55q-17 -24 -39 -25q-22 1 -38 25q-17 24 -18 55v0z" />
</svg>
