<?xml version="1.0" standalone="no"?>
<!DOCTYPE svg PUBLIC "-//W3C//DTD SVG 1.1//EN" "http://www.w3.org/Graphics/SVG/1.1/DTD/svg11.dtd" >
<svg xmlns="http://www.w3.org/2000/svg" xmlns:xlink="http://www.w3.org/1999/xlink" version="1.1" viewBox="-10 -40 532 512">
   <path fill="currentColor"
d="M0 217q1 -70 34 -128v0v0q34 -58 94 -94q61 -34 128 -34t128 34q60 36 94 94q33 58 34 128q-1 70 -34 128q-34 58 -94 94q-61 34 -128 34t-128 -34q-60 -36 -94 -94q-33 -58 -34 -128v0zM417 264q-71 28 -161 29q-89 -1 -160 -29q13 56 57 92q43 36 103 37q60 -1 104 -37
q43 -36 57 -92v0zM160 70l-7 16l7 -16l-7 16l-17 34v0l-38 5v0l-16 2v0l12 12v0l28 27v0l-7 37v0l-4 17v0l15 -8v0l34 -18v0l34 18v0l15 8v0l-4 -17v0l-7 -38v0l28 -26v0l13 -11v0l-17 -3v0l-38 -5v0l-17 -34v0l-7 -16v0zM352 70l-7 16l7 -16l-7 16l-17 34v0l-38 5v0l-17 2
v0l13 12v0l28 27v0l-7 37v0l-4 17v0l15 -8v0l34 -18v0l34 18v0l15 8v0l-4 -17v0l-7 -38v0l28 -26v0l13 -11v0l-17 -3v0l-38 -5v0l-17 -34v0l-7 -16v0z" />
</svg>
