<?xml version="1.0" standalone="no"?>
<!DOCTYPE svg PUBLIC "-//W3C//DTD SVG 1.1//EN" "http://www.w3.org/Graphics/SVG/1.1/DTD/svg11.dtd" >
<svg xmlns="http://www.w3.org/2000/svg" xmlns:xlink="http://www.w3.org/1999/xlink" version="1.1" viewBox="-10 -40 660 512">
   <path fill="currentColor"
d="M576 216q-3 -1 -7 -2v0v0v0q-21 -3 -33 -5v3l5 30q4 18 8 34q5 17 12 24l1 1q14 13 32 12q18 0 32 -14t14 -33q0 -18 -13 -32q-7 -6 -21 -11q-14 -4 -30 -7v0zM549 332q-6 -4 -11 -10q-13 -14 -16 -28q-6 -15 -9 -30q-7 -32 -9 -51l-6 -42v0l42 6v0h1v0q12 2 33 5
q-15 -95 -85 -157t-169 -64q-99 2 -169 64t-85 158q21 -4 34 -6v0v0l42 -5v0l-6 42v0v0q-3 18 -9 50q-3 15 -8 30q-5 14 -17 29q-5 5 -11 9q32 63 93 102q60 38 136 39q76 -1 136 -39q61 -39 93 -102v0zM78 301v0v0v0v0v-1h1q7 -8 12 -24q4 -16 8 -34q3 -19 5 -32v-1v0v0v0
v0q-18 2 -48 8t-43 16q-13 15 -13 33q0 19 14 33t32 14t32 -12v0zM320 293q90 -1 160 -29q-13 56 -56 92q-44 36 -104 37q-60 -1 -103 -37q-44 -36 -57 -92q71 28 160 29v0zM240 113q22 1 39 25v0v0q16 24 17 55q-1 -2 -17 -16q-17 -14 -39 -16q-22 2 -38 16q-17 14 -18 16
q1 -31 18 -55q16 -24 38 -25v0zM344 193q1 -31 18 -55v0v0q16 -24 38 -25q22 1 39 25q16 24 17 55q-1 -2 -17 -16q-17 -14 -39 -16q-22 2 -38 16q-17 14 -18 16v0z" />
</svg>
