<?xml version="1.0" standalone="no"?>
<!DOCTYPE svg PUBLIC "-//W3C//DTD SVG 1.1//EN" "http://www.w3.org/Graphics/SVG/1.1/DTD/svg11.dtd" >
<svg xmlns="http://www.w3.org/2000/svg" xmlns:xlink="http://www.w3.org/1999/xlink" version="1.1" viewBox="-10 -40 532 512">
   <path fill="currentColor"
d="M256 9q-88 2 -147 61v0v0q-59 59 -61 147v40v0v24v0h-48v0v-24v0v-40v0q1 -72 35 -129q34 -58 92 -92q57 -34 129 -35q72 1 129 35q58 34 92 92q34 57 35 129v208v0v24v0h-24h-168v24v0h-80v0q-20 -1 -34 -14q-13 -14 -14 -34q1 -20 14 -34q14 -13 34 -14h80v0v24v0h144
v0v-184v0q-2 -88 -61 -147t-147 -61v0zM192 185v160v-160v160h-112v0v-160v0h112v0zM432 185v160v-160v160h-112v0v-160v0h112v0z" />
</svg>
