<?xml version="1.0" standalone="no"?>
<!DOCTYPE svg PUBLIC "-//W3C//DTD SVG 1.1//EN" "http://www.w3.org/Graphics/SVG/1.1/DTD/svg11.dtd" >
<svg xmlns="http://www.w3.org/2000/svg" xmlns:xlink="http://www.w3.org/1999/xlink" version="1.1" viewBox="-10 -40 532 512">
   <path fill="currentColor"
d="M272 -15q0 20 10 37v0v0q9 17 25 36l1 2v0q16 19 29 43q14 25 15 58v24v0h-48v0v-24v0q0 -20 -10 -37q-9 -17 -25 -36l-1 -2v0q-16 -19 -29 -43q-14 -25 -15 -58v-24v0h48v0v24v0zM384 -15q0 20 10 37v0v0q9 17 25 36l1 2v0q16 19 29 43q14 25 15 58v24v0h-48v0v-24v0
q0 -20 -10 -37q-9 -17 -25 -36l-1 -2v0q-16 -19 -29 -43q-14 -25 -15 -58v-24v0h48v0v24v0zM0 473v-176v176v-176v-80v0v-96v0h128v0l128 96v0h256v0v256v0h-512v0zM128 281h-32h32h-32v16v0v96v0v16v0h32v0v-16v0v-96v0v-16v0zM224 281h-32h32h-32v16v0v96v0v16v0h32v0v-16
v0v-96v0v-16v0zM320 281h-32h32h-32v16v0v96v0v16v0h32v0v-16v0v-96v0v-16v0zM416 281h-32h32h-32v16v0v96v0v16v0h32v0v-16v0v-96v0v-16v0zM0 25q1 -36 32 -55q32 -18 64 0q31 19 32 55q-1 36 -32 55q-32 18 -64 0q-31 -19 -32 -55v0z" />
</svg>
