<?xml version="1.0" standalone="no"?>
<!DOCTYPE svg PUBLIC "-//W3C//DTD SVG 1.1//EN" "http://www.w3.org/Graphics/SVG/1.1/DTD/svg11.dtd" >
<svg xmlns="http://www.w3.org/2000/svg" xmlns:xlink="http://www.w3.org/1999/xlink" version="1.1" viewBox="-10 -40 532 512">
   <path fill="currentColor"
d="M498 301q14 -40 14 -84q-1 -72 -35 -129q-34 -58 -92 -92q-57 -34 -129 -35q-72 1 -129 35q-58 34 -92 92q-34 57 -35 129q1 72 35 129q34 58 92 92q57 34 129 35q53 0 100 -20q-8 -9 -11 -20l-23 -89v0q-7 -31 8 -57q14 -26 44 -35q29 -8 53 5t35 39q19 -2 36 5v0z
M296 293q-1 11 -7 18q-7 8 -17 14q-4 2 -9 4q5 2 9 4q10 6 17 14t7 18q-1 10 -7 18q-7 8 -17 14q-21 11 -48 12l-4 -15v0v0v0v0v0v0v0v0v0v0v0h1v-1h1q1 -1 3 -2q4 -3 10 -7q6 -5 9 -10q4 -6 4 -9t-4 -9q-4 -5 -9 -10q-6 -4 -10 -7q-2 -1 -3 -2h-1v-1v0h-1v0v0v0v0v0v0v0v0
v0v0v0v-14v0v0v0v0v0v0v0v0v0v0v0h1v-1h1q1 -1 3 -2q4 -3 10 -7q6 -5 9 -10q4 -6 4 -9t-4 -9q-4 -5 -9 -10q-6 -4 -10 -7q-2 -1 -3 -2h-1v-1h-1v0v0v0v0v0v0v0v0v0v0l4 -15v0q27 1 48 12q10 6 17 14q6 7 7 18v0zM176 137q14 0 23 9v0v0q9 9 9 23t-9 23t-23 9q-13 0 -22 -9
t-10 -23q1 -14 10 -23t22 -9v0zM379 199q-17 -22 -43 -22v0v0q-26 0 -43 22l-26 -20v0q28 -34 69 -34t69 34l-26 20v0zM434 313q-5 -17 -19 -26v0v0q-15 -9 -32 -4t-25 20q-9 15 -5 33l23 89v0q5 14 20 12l85 -24v0q17 -5 25 -20q9 -16 4 -34q-4 -17 -19 -26q-14 -9 -32 -4
l-20 5v0l-5 -21v0z" />
</svg>
