<?xml version="1.0" standalone="no"?>
<!DOCTYPE svg PUBLIC "-//W3C//DTD SVG 1.1//EN" "http://www.w3.org/Graphics/SVG/1.1/DTD/svg11.dtd" >
<svg xmlns="http://www.w3.org/2000/svg" xmlns:xlink="http://www.w3.org/1999/xlink" version="1.1" viewBox="-10 -40 596 512">
   <path fill="currentColor"
d="M288 281q2 -2 31 -36v0v0q29 -35 58 -81v0v0q29 -46 31 -83q-1 -51 -35 -85t-85 -35q-51 1 -85 35t-35 85q2 37 31 83t58 81q29 34 31 36v0zM133 100l-133 53l133 -53l-133 53v320v0l160 -64v0v-247v0q-18 -33 -27 -62v0zM288 334q-2 -1 -31 -36v0v0q-30 -34 -65 -85v196
v0l192 64v0v-260v0q-35 51 -65 85q-29 35 -31 36v0v0zM422 151l-4 6v0v0q-1 3 -2 5v311v0l160 -64v0v-320v0l-154 62v0z" />
</svg>
