<?xml version="1.0" standalone="no"?>
<!DOCTYPE svg PUBLIC "-//W3C//DTD SVG 1.1//EN" "http://www.w3.org/Graphics/SVG/1.1/DTD/svg11.dtd" >
<svg xmlns="http://www.w3.org/2000/svg" xmlns:xlink="http://www.w3.org/1999/xlink" version="1.1" viewBox="-10 -40 532 512">
   <path fill="currentColor"
d="M195 28l-56 56l56 -56l-56 56l-11 12v0l-23 -23v0l12 -11v0l56 -56v0l-45 -45v0l-128 128v0l105 105v0l128 -128v0l-38 -38v0zM384 473l128 -128l-128 128l128 -128l-45 -45v0l-56 56v0l-11 12v0l-23 -23v0l12 -11v0l56 -56v0l-38 -38v0l-128 128v0l105 105v0zM32 313
l-32 160l32 -160l-32 160l160 -32v0l261 -261v0l-128 -128v0l-261 261v0zM512 89l-128 -128l128 128l-128 -128l-69 69v0l128 128v0l69 -69v0z" />
</svg>
