<?xml version="1.0" standalone="no"?>
<!DOCTYPE svg PUBLIC "-//W3C//DTD SVG 1.1//EN" "http://www.w3.org/Graphics/SVG/1.1/DTD/svg11.dtd" >
<svg xmlns="http://www.w3.org/2000/svg" xmlns:xlink="http://www.w3.org/1999/xlink" version="1.1" viewBox="-10 -40 660 512">
   <path fill="currentColor"
d="M192 89q0 -14 9 -23v0v0q9 -9 23 -9t23 9t9 23v8v0q0 41 -7 82l-130 39v0l-23 7v0v24v0v160v0v32v0h32h83l9 -16v0l25 -45v0q41 -71 59 -150l94 -29v0l-12 38v0l-14 42v0h44h160v-64v0h-32h-84l18 -54v0l20 -58v0l-59 17v0l-123 37v0q4 -31 4 -62v-8v0q-1 -41 -28 -68
t-68 -28q-41 1 -68 28t-28 68v32v0v32v0h64v0v-32v0v-32v0zM160 273l72 -22l-72 22l72 -22q-16 51 -42 98l-17 28v0h-13v0v-104v0zM24 329h-24h24h-24v48v0h24h40v-8v-40v0h-40v0zM616 377h24h-24h24v-48v0h-24h-310q-10 24 -22 48h332v0z" />
</svg>
