<?xml version="1.0" standalone="no"?>
<!DOCTYPE svg PUBLIC "-//W3C//DTD SVG 1.1//EN" "http://www.w3.org/Graphics/SVG/1.1/DTD/svg11.dtd" >
<svg xmlns="http://www.w3.org/2000/svg" xmlns:xlink="http://www.w3.org/1999/xlink" version="1.1" viewBox="-10 -40 532 512">
   <path fill="currentColor"
d="M256 473q70 -1 128 -34v0v0q58 -34 94 -94q34 -61 34 -128t-34 -128q-36 -60 -94 -94q-58 -33 -128 -34q-70 1 -128 34q-58 34 -94 94q-34 61 -34 128t34 128q36 60 94 94q58 33 128 34v0zM130 288l28 -14l-28 14l28 -14q7 15 31 34q25 19 67 21q42 -2 67 -21
q24 -19 31 -34l28 14v0q-9 21 -41 46q-31 25 -85 27q-54 -2 -85 -27q-32 -25 -41 -46v0zM176 113q22 1 39 25v0v0q16 24 17 55q-1 -2 -17 -16q-17 -14 -39 -16q-22 2 -38 16q-17 14 -18 16q1 -31 18 -55q16 -24 38 -25v0zM280 193q1 -31 18 -55v0v0q16 -24 38 -25
q22 1 39 25q16 24 17 55q-1 -2 -17 -16q-17 -14 -39 -16q-22 2 -38 16q-17 14 -18 16v0z" />
</svg>
