<?xml version="1.0" standalone="no"?>
<!DOCTYPE svg PUBLIC "-//W3C//DTD SVG 1.1//EN" "http://www.w3.org/Graphics/SVG/1.1/DTD/svg11.dtd" >
<svg xmlns="http://www.w3.org/2000/svg" xmlns:xlink="http://www.w3.org/1999/xlink" version="1.1" viewBox="-10 -40 596 512">
   <path fill="currentColor"
d="M208 213q-76 -58 -178 -60h-30v0q1 80 39 145q39 65 104 104q65 38 145 39q80 -1 145 -39q65 -39 104 -104q38 -65 39 -145h-30v0q-85 1 -154 44q-50 31 -85 80q-10 15 -19 31q-9 -16 -19 -31q-26 -37 -61 -64v0zM288 -7q-3 0 -37 43v0v0q-34 42 -60 128q57 33 97 85
q40 -52 97 -85q-26 -86 -60 -128q-34 -43 -37 -43v0v0z" />
</svg>
