<?xml version="1.0" standalone="no"?>
<!DOCTYPE svg PUBLIC "-//W3C//DTD SVG 1.1//EN" "http://www.w3.org/Graphics/SVG/1.1/DTD/svg11.dtd" >
<svg xmlns="http://www.w3.org/2000/svg" xmlns:xlink="http://www.w3.org/1999/xlink" version="1.1" viewBox="-10 -40 532 512">
   <path fill="currentColor"
d="M256 -39h80h-80h80l31 103v0q18 56 73 78l72 27v0v64v0l-73 55v0q-26 19 -38 48q-13 29 -9 61l8 76v0h-96v0l-73 -59v0q-7 -5 -15 -9q-24 -12 -51 -7l-149 27v0v-88v0l24 -29v0q23 -27 23 -62q0 -29 -16 -53l-47 -72v0v-80v0l101 17v0q34 6 64 -6q31 -13 52 -39l39 -52v0
z" />
</svg>
