<?xml version="1.0" standalone="no"?>
<!DOCTYPE svg PUBLIC "-//W3C//DTD SVG 1.1//EN" "http://www.w3.org/Graphics/SVG/1.1/DTD/svg11.dtd" >
<svg xmlns="http://www.w3.org/2000/svg" xmlns:xlink="http://www.w3.org/1999/xlink" version="1.1" viewBox="-10 -40 597 512">
   <path fill="currentColor"
d="M312 142l135 115l-135 -115l135 115q-11 7 -22 13q-21 9 -41 10q-20 -1 -41 -10q-16 -8 -35 -23l-20 -14v0l-19 13v0l-1 1v0v0q-19 15 -35 23q-21 9 -41 10q-16 0 -32 -7v-56v0v-13v0l9 -10v0l128 -128v0l10 -9v0h13h160v64v0h-32h-115l-21 21v0zM160 121q-1 36 -32 55
q-32 18 -64 0q-31 -19 -32 -55q1 -36 32 -55q32 -18 64 0q31 19 32 55v0zM272 358q-31 16 -80 19q-49 -3 -80 -19q-9 -4 -16 -8q-7 4 -16 8q-31 16 -80 19v-64v0q30 -1 54 -13q21 -10 39 -24l1 -1q1 -1 2 -1t2 1q1 0 1 1q18 14 39 24q24 12 54 13q30 -1 54 -13
q21 -10 39 -24l1 -1h1l1 -1q1 0 2 1t2 1q18 14 38 24q24 12 54 13q30 -1 54 -13q21 -10 40 -24v-1q1 -1 3 -1q1 0 2 1q0 1 1 1q18 14 39 24q24 12 54 13v64v0q-50 -3 -81 -19q-9 -4 -15 -8q-7 4 -16 8q-31 16 -80 19q-50 -3 -81 -19q-9 -4 -15 -8q-7 4 -16 8h-1z" />
</svg>
