<?xml version="1.0" standalone="no"?>
<!DOCTYPE svg PUBLIC "-//W3C//DTD SVG 1.1//EN" "http://www.w3.org/Graphics/SVG/1.1/DTD/svg11.dtd" >
<svg xmlns="http://www.w3.org/2000/svg" xmlns:xlink="http://www.w3.org/1999/xlink" version="1.1" viewBox="-10 -40 458 512">
   <path fill="currentColor"
d="M186 13q-26 -20 -58 -20q-41 1 -68 28t-28 68v6v0q0 24 11 45l30 61v0l39 220v0l4 20v0h20h28l4 -19v0l28 -149v0h56v0l29 149v0l3 19v0h20h28l4 -20v0l39 -220v0l30 -61v0q11 -21 11 -45v-2v0q-1 -43 -29 -71t-71 -29q-37 0 -65 25l-3 2v0l32 25v0l-20 26v0l-37 -29v0
l-37 -29v0z" />
</svg>
