<?xml version="1.0" standalone="no"?>
<!DOCTYPE svg PUBLIC "-//W3C//DTD SVG 1.1//EN" "http://www.w3.org/Graphics/SVG/1.1/DTD/svg11.dtd" >
<svg xmlns="http://www.w3.org/2000/svg" xmlns:xlink="http://www.w3.org/1999/xlink" version="1.1" viewBox="-10 -40 522 512">
   <path fill="currentColor"
d="M101 372q-2 0 -5 -15v0v0q-2 -14 8 -49q5 -16 14 -33q17 22 38 42q20 21 42 38q-17 9 -33 14q-35 10 -49 8q-15 -3 -15 -5v0zM154 217q20 -28 47 -55t55 -47q28 20 55 47t47 55q-20 28 -47 55t-55 47q-28 -20 -55 -47t-47 -55v0zM198 79q-22 17 -42 38q-21 20 -38 42
q-9 -17 -14 -33q-10 -35 -8 -49q3 -15 5 -15q0 -2 15 -5q14 -2 49 8q16 6 33 14v0zM256 38q-63 -37 -116 -44v0v0q-54 -6 -84 23q-29 30 -23 84q7 53 44 116q-37 63 -44 116q-6 54 23 84q30 29 84 23q53 -7 116 -44q63 37 116 44q54 6 84 -23q29 -30 23 -84q-7 -53 -44 -116
q37 -63 44 -116q6 -54 -23 -84q-30 -29 -84 -23q-53 7 -116 44v0zM314 79q17 -9 33 -14q35 -10 49 -8q15 3 15 5q2 0 5 15q2 14 -8 49q-5 16 -14 33q-17 -22 -38 -42q-20 -21 -42 -38v0zM394 275q9 17 14 33q10 35 8 49q-3 15 -5 15q0 2 -15 5q-14 2 -49 -8q-16 -5 -33 -14
q22 -17 42 -38q21 -20 38 -42v0zM256 257l40 -40l-40 40l40 -40l-40 -40v0l-40 40v0l40 40v0z" />
</svg>
