<?xml version="1.0" standalone="no"?>
<!DOCTYPE svg PUBLIC "-//W3C//DTD SVG 1.1//EN" "http://www.w3.org/Graphics/SVG/1.1/DTD/svg11.dtd" >
<svg xmlns="http://www.w3.org/2000/svg" xmlns:xlink="http://www.w3.org/1999/xlink" version="1.1" viewBox="-10 -40 660 512">
   <path fill="currentColor"
d="M536 354l85 66l-85 -66l85 66l19 15v0l-29 38v0l-19 -15v0l-573 -444v0l-19 -15v0l29 -38v0l19 15v0l85 66v0q36 -38 84 -59q47 -22 103 -22q72 1 129 35q58 34 92 92q34 57 35 129q-1 77 -40 137v0zM270 148l126 98l-126 -98l126 98l52 -157v0l-178 59v0zM468 426
q-64 46 -148 47q-72 -1 -129 -35q-58 -34 -92 -92q-34 -57 -35 -129q0 -51 18 -95l146 115v0l-36 108v0l122 -41v0l154 122v0z" />
</svg>
