<?xml version="1.0" standalone="no"?>
<!DOCTYPE svg PUBLIC "-//W3C//DTD SVG 1.1//EN" "http://www.w3.org/Graphics/SVG/1.1/DTD/svg11.dtd" >
<svg xmlns="http://www.w3.org/2000/svg" xmlns:xlink="http://www.w3.org/1999/xlink" version="1.1" viewBox="-10 -40 660 512">
   <path fill="currentColor"
d="M485 315q18 -30 24 -66h35h32v-64v0h-32h-35q-11 -61 -53 -104q-43 -42 -104 -53v-35v0v-32v0h-64v0v32v0v35v0q-61 11 -104 53l-136 -105v0l-19 -15v0l-29 38v0l19 15v0l573 444v0l19 15v0l29 -38v0l-19 -15v0l-136 -105v0zM235 121q35 -31 85 -32q54 1 91 37
q36 37 37 91q0 32 -14 58l-39 -30v0q5 -13 5 -28q-1 -34 -23 -57q-23 -22 -57 -23q-26 0 -46 14l-39 -30v0zM358 339q-18 6 -38 6q-54 -1 -91 -37q-36 -37 -37 -91v-8l-56 -45v0q-4 10 -5 21h-35h-32v64v0h32h35q11 61 53 104q43 42 104 53v35v0v32v0h64v0v-32v0v-35v0
q34 -6 63 -22l-57 -45v0z" />
</svg>
