<?xml version="1.0" standalone="no"?>
<!DOCTYPE svg PUBLIC "-//W3C//DTD SVG 1.1//EN" "http://www.w3.org/Graphics/SVG/1.1/DTD/svg11.dtd" >
<svg xmlns="http://www.w3.org/2000/svg" xmlns:xlink="http://www.w3.org/1999/xlink" version="1.1" viewBox="-10 -40 660 512">
   <path fill="currentColor"
d="M352 -7v-32v32v-32h-64v0v32v0v32v0v126v0l-32 21v0v-83v0v-32v0h-32h-72l-10 13v0l26 19v0q-18 -14 -22 -17t-4 -2v0v0v0v0v0v0v0v0l-1 2v0l-2 2q-1 2 -2 3q-6 8 -15 21q-18 27 -44 71q-25 43 -48 97q-22 53 -30 107v4v0v7v0q1 38 26 63t63 26q11 0 22 -3l121 -30v0
l24 -6v0v-25v0v-123v0l-105 66v0l-17 -27v0l27 -17v0l159 -101v0l159 101v0l26 17v0l-17 27v0l-104 -66v0v123v0v25v0l24 6v0l121 30v0q11 3 22 3q38 -1 63 -26t26 -63v-7v0v-4q-8 -54 -30 -107q-23 -53 -48 -97q-26 -44 -44 -71q-9 -13 -15 -21q-2 -3 -4 -5l-1 -2v0v0v0v0
v0v0v0v0v0q0 -1 -4 2t-22 17l26 -19v0l-10 -13v0h-16h-88v32v0v83v0l-32 -21v0v-126v0v-32v0z" />
</svg>
