<?xml version="1.0" standalone="no"?>
<!DOCTYPE svg PUBLIC "-//W3C//DTD SVG 1.1//EN" "http://www.w3.org/Graphics/SVG/1.1/DTD/svg11.dtd" >
<svg xmlns="http://www.w3.org/2000/svg" xmlns:xlink="http://www.w3.org/1999/xlink" version="1.1" viewBox="-10 -40 404 512">
   <path fill="currentColor"
d="M192 473q2 -1 30 -34v0v0q29 -33 66 -84v0v0q38 -51 66 -105v0v0q29 -54 30 -97q-2 -82 -56 -136t-136 -56q-82 2 -136 56t-56 136q2 43 30 97q29 54 66 105q38 51 66 84q29 33 30 34v0zM305 106l-128 128l128 -128l-128 128l-17 17v0l-17 -17v0l-64 -64v0l-17 -17v0
l34 -34v0l17 17v0l47 47v0l111 -111v0l17 -17v0l34 34v0l-17 17v0z" />
</svg>
