<?xml version="1.0" standalone="no"?>
<!DOCTYPE svg PUBLIC "-//W3C//DTD SVG 1.1//EN" "http://www.w3.org/Graphics/SVG/1.1/DTD/svg11.dtd" >
<svg xmlns="http://www.w3.org/2000/svg" xmlns:xlink="http://www.w3.org/1999/xlink" version="1.1" viewBox="-10 -40 596 512">
   <path fill="currentColor"
d="M256 -39h32h-32h128v64v0h-32h-32v32v0h32h32v64v0h-32h-32v71v0q22 9 35 29q13 19 13 44q-1 34 -23 57q-23 22 -57 23q-34 -1 -57 -23q-22 -23 -23 -57q0 -25 13 -44q13 -20 35 -29v-103v0v-96v0v-32v0zM400 265v-1v1v-1q21 -4 38 -12q21 -10 39 -24l1 -1v0v0l2 -1v0
l2 1v0q1 1 2 1q18 14 38 24q24 12 54 13v64v0q-49 -3 -80 -19q-9 -4 -16 -8q-7 4 -15 8q-32 16 -81 19h-4q20 -28 20 -64v0zM288 377h10q15 11 32 19q24 12 54 13q30 -1 54 -13q21 -10 39 -24l1 -1v0v0l2 -1v0l2 1v0q1 1 2 1q18 14 38 24q24 12 54 13v64v0q-49 -3 -80 -19
q-9 -4 -16 -8q-7 4 -15 8q-32 16 -81 19q-49 -3 -80 -19q-9 -4 -16 -8q-7 4 -15 8q-32 16 -81 19q-49 -3 -80 -19q-9 -4 -16 -8q-7 4 -15 8q-32 16 -81 19v-64v0q30 -1 54 -13q21 -10 39 -24l1 -1v0v0l2 -1v0l2 1v0q1 0 1 1q18 14 39 24q24 12 54 13q30 -1 54 -13
q18 -8 33 -19h9v0zM192 329q-49 -3 -80 -19q-9 -4 -16 -8q-7 4 -16 8q-31 16 -80 19v-64v0q30 -1 54 -13q21 -10 39 -24l1 -1l2 -1v0l2 1v0q1 0 1 1q18 14 39 24q17 8 38 12v1v0q1 36 20 64h-2h-2v0z" />
</svg>
