<?xml version="1.0" standalone="no"?>
<!DOCTYPE svg PUBLIC "-//W3C//DTD SVG 1.1//EN" "http://www.w3.org/Graphics/SVG/1.1/DTD/svg11.dtd" >
<svg xmlns="http://www.w3.org/2000/svg" xmlns:xlink="http://www.w3.org/1999/xlink" version="1.1" viewBox="-10 -40 522 512">
   <path fill="currentColor"
d="M273 -26l-17 -11l17 11l-17 -11l-17 11v0q-43 27 -78 33q-36 6 -91 -5l-32 -7v0l-6 33v0q-12 79 -10 145q2 67 25 121q48 109 197 169l13 5v0l12 -6v0q73 -33 121 -75q49 -41 73 -95t27 -119q2 -66 -10 -145l-6 -33v0l-32 7v0q-55 11 -91 4q-35 -5 -78 -32v0zM85 153h341
h-341h341q0 66 -21 112q-16 38 -53 71q-36 32 -97 62q-62 -27 -97 -59q-36 -32 -53 -71q-20 -47 -20 -115v0z" />
</svg>
