<?xml version="1.0" standalone="no"?>
<!DOCTYPE svg PUBLIC "-//W3C//DTD SVG 1.1//EN" "http://www.w3.org/Graphics/SVG/1.1/DTD/svg11.dtd" >
<svg xmlns="http://www.w3.org/2000/svg" xmlns:xlink="http://www.w3.org/1999/xlink" version="1.1" viewBox="-10 -40 532 512">
   <path fill="currentColor"
d="M0 -39v512v-512v512h512v0v-48v0l-61 -61v0l-24 24v0l-11 12v0l-23 -23v0l12 -11v0l24 -24v0l-58 -58v0l-24 24v0l-11 12v0l-23 -23v0l12 -11v0l24 -24v0l-58 -58v0l-24 24v0l-11 12v0l-23 -23v0l12 -11v0l24 -24v0l-58 -58v0l-24 24v0l-11 12v0l-23 -23v0l12 -11v0
l24 -24v0l-58 -58v0l-24 24v0l-11 12v0l-23 -23v0l12 -11v0l24 -24v0l-61 -61v0h-48v0zM128 217l128 128l-128 -128l128 128h-128v0v-128v0z" />
</svg>
