<?xml version="1.0" standalone="no"?>
<!DOCTYPE svg PUBLIC "-//W3C//DTD SVG 1.1//EN" "http://www.w3.org/Graphics/SVG/1.1/DTD/svg11.dtd" >
<svg xmlns="http://www.w3.org/2000/svg" xmlns:xlink="http://www.w3.org/1999/xlink" version="1.1" viewBox="-10 -40 596 512">
   <path fill="currentColor"
d="M0 -7h576h-576h576v448v0h-576v0v-448v0zM176 137v80v-80v80h96v0v-80v0q-1 -20 -14 -34q-14 -13 -34 -14q-20 1 -34 14q-13 14 -14 34v0zM352 89q-20 1 -34 14v0v0q-13 14 -14 34v80v0h96v0v-80v0q-1 -20 -14 -34q-14 -13 -34 -14v0zM48 169v48v-48v48h96v0v-48v0
q-1 -20 -14 -34q-14 -13 -34 -14q-20 1 -34 14q-13 14 -14 34v0zM96 345q20 -1 34 -14v0v0q13 -14 14 -34v-48v0h-96v0v48v0q1 20 14 34q14 13 34 14v0zM176 297q1 20 14 34v0v0q14 13 34 14q20 -1 34 -14q13 -14 14 -34v-48v0h-96v0v48v0zM352 345q20 -1 34 -14v0v0
q13 -14 14 -34v-48v0h-96v0v48v0q1 20 14 34q14 13 34 14v0zM432 169v48v-48v48h96v0v-48v0q-1 -20 -14 -34q-14 -13 -34 -14q-20 1 -34 14q-13 14 -14 34v0zM480 345q20 -1 34 -14v0v0q13 -14 14 -34v-48v0h-96v0v48v0q1 20 14 34q14 13 34 14v0z" />
</svg>
