<?xml version="1.0" standalone="no"?>
<!DOCTYPE svg PUBLIC "-//W3C//DTD SVG 1.1//EN" "http://www.w3.org/Graphics/SVG/1.1/DTD/svg11.dtd" >
<svg xmlns="http://www.w3.org/2000/svg" xmlns:xlink="http://www.w3.org/1999/xlink" version="1.1" viewBox="-10 -40 532 512">
   <path fill="currentColor"
d="M256 -7q-72 1 -129 35v0v0q-58 34 -92 92v0v0q-34 57 -35 129q1 73 36 131l-36 29v0v64v0h512v0v-64v0l-36 -29v0q35 -58 36 -131q-1 -72 -35 -129q-34 -58 -92 -92q-57 -34 -129 -35v0zM352 377q-3 2 -7 5q-39 26 -89 27q-55 -1 -96 -32q-30 -22 -47 -55t-17 -73
q2 -68 47 -113t113 -47q68 2 113 47t47 113q0 40 -17 73t-47 55v0zM256 281q14 0 23 -9v0v0q9 -9 9 -23t-9 -23t-23 -9t-23 9t-9 23t9 23t23 9v0zM272 376q34 -4 60 -24v0v0q26 -19 40 -48l-62 -20v0q-14 20 -38 27v65v0zM382 273q2 -12 2 -24q-2 -57 -40 -93l-38 52v0
q14 17 14 41v4l62 20v0zM256 185q13 0 24 5l38 -53v0q-28 -16 -62 -16t-62 16l28 39v0l10 14v0q11 -5 24 -5v0zM128 249q0 12 2 24l62 -20v0v-4q1 -24 15 -41l-11 -13v0l-28 -39v0q-38 36 -40 93v0zM140 304q14 29 40 48v0v0q26 20 60 24v-65v0q-24 -7 -38 -27l-62 20v0z
" />
</svg>
