<?xml version="1.0" standalone="no"?>
<!DOCTYPE svg PUBLIC "-//W3C//DTD SVG 1.1//EN" "http://www.w3.org/Graphics/SVG/1.1/DTD/svg11.dtd" >
<svg xmlns="http://www.w3.org/2000/svg" xmlns:xlink="http://www.w3.org/1999/xlink" version="1.1" viewBox="-10 -40 531 512">
   <path fill="currentColor"
d="M384 -7v-32v32v-32h64v0v32v0v23v0q0 36 12 70l2 8v0q7 21 19 44q14 27 23 61q9 35 5 75q-6 74 -77 149v50v0h-64v0v-24v0h-32v0v24v0h-64v0v-24v0h-32v0v24v0h-64v0v-24v0h-32v0v24v0h-64v0v-50v0q-71 -75 -77 -149q-4 -40 5 -75q9 -34 23 -61q12 -23 19 -44l3 -8v0
q11 -34 11 -70v-23v0v-32v0h64v0v32v0v23v0q0 46 -15 91l-2 7v0q-10 29 -23 53q-25 45 -21 100q2 26 17 56q15 29 49 62h246v0q34 -33 49 -62q15 -30 17 -56q4 -55 -21 -101q-13 -23 -23 -52l-2 -7v0q-15 -45 -15 -91v-23v0zM280 81v112v-112v112v24v0h-48v0v-24v0v-112v0
v-24v0h48v0v24v0zM280 249v48v-48v48h-48v0v-48v0h48v0z" />
</svg>
