<?xml version="1.0" standalone="no"?>
<!DOCTYPE svg PUBLIC "-//W3C//DTD SVG 1.1//EN" "http://www.w3.org/Graphics/SVG/1.1/DTD/svg11.dtd" >
<svg xmlns="http://www.w3.org/2000/svg" xmlns:xlink="http://www.w3.org/1999/xlink" version="1.1" viewBox="-10 -40 532 512">
   <path fill="currentColor"
d="M320 -39h-128h128h-128v41v0q-22 7 -43 18l-29 -29v0l-90 90v0l29 29v0q-11 21 -18 43h-41v0v128v0h41v0q7 22 18 43l-29 29v0l90 90v0l29 -29v0q21 11 43 18v41v0h128v0v-41v0q22 -7 43 -18l29 29v0l90 -90v0l-29 -29v0q11 -21 18 -43h41v0v-128v0h-41v0q-7 -22 -18 -43
l29 -29v0l-90 -90v0l-29 29v0q-21 -11 -43 -18v-41v0zM256 89q35 0 64 17v0v0q29 17 47 47q17 30 17 64t-17 64q-18 30 -47 47t-64 17t-64 -17t-47 -47q-17 -30 -17 -64t17 -64q18 -30 47 -47t64 -17v0zM256 169q22 -2 24 -24q-2 -22 -24 -24q-22 2 -24 24q2 22 24 24v0z
M195 172q-22 -5 -30 15q-5 22 15 31q22 4 30 -16q5 -21 -15 -30v0zM302 202q8 20 30 16q20 -9 15 -31q-8 -20 -30 -15q-20 9 -15 30v0zM279 289q8 12 22 11q14 -2 20 -15q5 -13 -3 -24t-22 -10t-20 14q-5 13 3 24v0zM228 256q-11 -8 -25 -3q-12 6 -14 19q-1 14 11 23
q11 8 24 3q13 -6 14 -20t-10 -22v0z" />
</svg>
