<?xml version="1.0" standalone="no"?>
<!DOCTYPE svg PUBLIC "-//W3C//DTD SVG 1.1//EN" "http://www.w3.org/Graphics/SVG/1.1/DTD/svg11.dtd" >
<svg xmlns="http://www.w3.org/2000/svg" xmlns:xlink="http://www.w3.org/1999/xlink" version="1.1" viewBox="-10 -40 660 512">
   <path fill="currentColor"
d="M256 -7h-32h32h-32v32v0v128v0h-192v0v96v0h-32v0v64v0h32h33q-1 8 -1 16q1 48 33 79q31 32 79 33q48 -1 79 -33q32 -31 33 -79q0 -8 -1 -16h66v0q-1 8 -1 16q1 48 33 79q31 32 79 33q48 -1 79 -33q32 -31 33 -79q0 -8 -1 -16h33h32v-64v0h-32v0v-96v0h-81v0l-118 -148v0
l-10 -12v0h-15h-128zM445 153h-157h157h-157v-96v0h81v0l76 96v0zM224 329q-1 27 -24 42q-24 12 -48 0q-23 -15 -24 -42q1 -27 24 -42q24 -12 48 0q23 15 24 42v0zM512 329q-1 27 -24 42q-24 12 -48 0q-23 -15 -24 -42q1 -27 24 -42q24 -12 48 0q23 15 24 42v0z" />
</svg>
