<?xml version="1.0" standalone="no"?>
<!DOCTYPE svg PUBLIC "-//W3C//DTD SVG 1.1//EN" "http://www.w3.org/Graphics/SVG/1.1/DTD/svg11.dtd" >
<svg xmlns="http://www.w3.org/2000/svg" xmlns:xlink="http://www.w3.org/1999/xlink" version="1.1" viewBox="-10 -40 522 512">
   <path fill="currentColor"
d="M340 178l160 -128l-160 128l160 -128l-40 -50v0l-141 113v0l-108 -82v0l-20 -14v0l-19 15v0l-160 128v0l40 50v0l141 -112v0l108 81v0l20 15v0l19 -16v0zM160 185v256v-256v256h64v0v-256v0h-64v0zM32 281v160v-160v160h64v0v-160v0h-64v0zM352 249h-64h64h-64v192v0h64
v0v-192v0zM416 185v256v-256v256h64v0v-256v0h-64v0z" />
</svg>
