<?xml version="1.0" standalone="no"?>
<!DOCTYPE svg PUBLIC "-//W3C//DTD SVG 1.1//EN" "http://www.w3.org/Graphics/SVG/1.1/DTD/svg11.dtd" >
<svg xmlns="http://www.w3.org/2000/svg" xmlns:xlink="http://www.w3.org/1999/xlink" version="1.1" viewBox="-10 -40 404 512">
   <path fill="currentColor"
d="M224 -39h-224h224h-224v512v0h384v0v-352v0h-160v0v-160v0zM256 -39v128v-128v128h128v0l-128 -128v0zM312 281h-120h120h-120v-120v0q51 1 85 35t35 85v0zM160 171v142v-142v142h142v0q-10 42 -42 69q-32 26 -76 27q-51 -1 -85 -35t-35 -85q1 -44 27 -76q27 -32 69 -42
v0z" />
</svg>
