<?xml version="1.0" standalone="no"?>
<!DOCTYPE svg PUBLIC "-//W3C//DTD SVG 1.1//EN" "http://www.w3.org/Graphics/SVG/1.1/DTD/svg11.dtd" >
<svg xmlns="http://www.w3.org/2000/svg" xmlns:xlink="http://www.w3.org/1999/xlink" version="1.1" viewBox="-10 -40 532 512">
   <path fill="currentColor"
d="M0 105v48v-48v48h512v0v-48v0l-256 -144v0l-256 144v0zM128 185h-64h64h-64v192v0l-64 48v0v48v0h512v0v-48v0l-64 -48v0v-192v0h-64v0v192v0h-40v0v-192v0h-64v0v192v0h-48v0v-192v0h-64v0v192v0h-40v0v-192v0z" />
</svg>
