<?xml version="1.0" standalone="no"?>
<!DOCTYPE svg PUBLIC "-//W3C//DTD SVG 1.1//EN" "http://www.w3.org/Graphics/SVG/1.1/DTD/svg11.dtd" >
<svg xmlns="http://www.w3.org/2000/svg" xmlns:xlink="http://www.w3.org/1999/xlink" version="1.1" viewBox="-10 -40 394 512">
   <path fill="currentColor"
d="M272 345q17 -46 49 -85v0v0v-1v0v0l16 -22q30 -43 31 -100q-2 -75 -52 -124q-49 -50 -124 -52q-75 2 -124 52q-50 49 -52 124q1 57 31 100q8 11 16 21v1v0v0q32 39 49 86h160v0zM112 377v96v-96v96h160v0v-96v0h-160v0zM212 57v6v-6v6q12 2 21 5l19 5v0l-10 39v0l-19 -6
v0q-4 0 -11 -2q-7 -1 -11 -2q-19 -2 -28 3t-9 8v5v0v0q1 1 4 3q9 6 30 12h1v0v0v0v0v0h1q20 5 39 17q11 7 17 21t3 29q-6 29 -32 39q-7 3 -15 5v5v0v20v0h-40v0v-20v0v-6v0q-16 -5 -30 -9v0v0l-4 -2l-19 -6v0l12 -38v0l19 6v0q3 1 7 2v0v0v0q1 0 2 1q14 5 24 7q19 3 29 -2
q7 -3 8 -9v-6q-1 -2 -4 -4q-9 -6 -29 -12l-3 -1v0q-19 -4 -38 -16q-11 -6 -18 -19q-6 -14 -3 -29q7 -28 31 -38q8 -3 16 -5v-6v0v-20v0h40v0v20v0z" />
</svg>
