<?xml version="1.0" standalone="no"?>
<!DOCTYPE svg PUBLIC "-//W3C//DTD SVG 1.1//EN" "http://www.w3.org/Graphics/SVG/1.1/DTD/svg11.dtd" >
<svg xmlns="http://www.w3.org/2000/svg" xmlns:xlink="http://www.w3.org/1999/xlink" version="1.1" viewBox="-10 -40 660 512">
   <path fill="currentColor"
d="M152 191q9 25 23 46l16 22v0v0v0v0v0q32 39 49 86h108v0l-196 -154v0zM240 377v96v-96v96h160v0v-87v0l-11 -9v0h-149v0zM160 63l-112 -87l112 87l-112 -87l-19 -15v0l-29 38v0l19 15v0l573 444v0l19 15v0l29 -38v0l-19 -15v0l-185 -143v0q7 -9 13 -18v0v0v0v0v0v0v0v0
l16 -22q30 -43 31 -100q-2 -75 -52 -124q-49 -50 -124 -52q-54 1 -96 28q-42 28 -64 74v0zM213 104q11 -35 40 -57v0v0q29 -21 67 -22v32v0q-31 1 -52 20q-22 19 -27 48l-28 -21v0z" />
</svg>
