<?xml version="1.0" standalone="no"?>
<!DOCTYPE svg PUBLIC "-//W3C//DTD SVG 1.1//EN" "http://www.w3.org/Graphics/SVG/1.1/DTD/svg11.dtd" >
<svg xmlns="http://www.w3.org/2000/svg" xmlns:xlink="http://www.w3.org/1999/xlink" version="1.1" viewBox="-11 0 533 512">
   <path fill="currentColor"
d="M368 -39l-32 32l32 -32l-32 32l32 32v0l32 -32v0l-32 -32v0zM384 153h-13h13h-13l-10 9v0l-54 55v0h-62v0q11 -22 11 -48q-1 -48 -33 -79q-31 -32 -79 -33q-31 0 -56 15q-26 15 -40 40l55 33v0q13 -23 41 -24q20 1 34 14q13 14 14 34q-1 20 -14 34q-14 13 -34 14h-56v0
l24 64v0h32h16q27 1 45 19t19 45q-1 27 -19 45t-45 19q-56 -2 -91 -25q-36 -23 -52 -46q-17 -23 -17 -25q-1 1 3 25q3 24 17 55t48 55q33 24 92 25q54 -1 91 -37q36 -37 37 -91q0 -35 -17 -64h49h13l10 -9v0l54 -55v0h19v0q14 0 23 9t9 23v96v0q0 14 -9 23t-23 9
q-48 -3 -72 -24t-24 -24v64v0q0 1 7 12q8 12 29 24q20 11 60 12q41 -1 68 -28t28 -68v-96v0q-1 -41 -28 -68t-68 -28h-32v0zM480 25q-1 1 -19 8v0v0q-18 8 -44 16v0v0q-25 7 -49 8q-24 -1 -49 -8q-26 -8 -44 -16q-18 -7 -19 -8q-1 2 8 25t35 46t77 25q54 -2 79 -16t25 -16
v-64v0z" />
</svg>
