<?xml version="1.0" standalone="no"?>
<!DOCTYPE svg PUBLIC "-//W3C//DTD SVG 1.1//EN" "http://www.w3.org/Graphics/SVG/1.1/DTD/svg11.dtd" >
<svg xmlns="http://www.w3.org/2000/svg" xmlns:xlink="http://www.w3.org/1999/xlink" version="1.1" viewBox="-10 -40 458 512">
   <path fill="currentColor"
d="M224 25q1 -36 32 -55q32 -18 64 0q31 19 32 55q-1 36 -32 55q-32 18 -64 0q-31 -19 -32 -55v0zM152 105h24h-24h92l12 17v0l40 53v0l39 -32v0l31 -25v0l51 62v0l-31 25v0l-73 59v0l-32 27v0l-25 -34v0l-23 -32v0l-45 90v0l116 86v0l-24 72v0h-208h-40v-80v0h40h87
l-54 -39v0q-26 -21 -33 -51q-7 -31 8 -61l61 -116v0l11 -21v0z" />
</svg>
