<?xml version="1.0" standalone="no"?>
<!DOCTYPE svg PUBLIC "-//W3C//DTD SVG 1.1//EN" "http://www.w3.org/Graphics/SVG/1.1/DTD/svg11.dtd" >
<svg xmlns="http://www.w3.org/2000/svg" xmlns:xlink="http://www.w3.org/1999/xlink" version="1.1" viewBox="-10 -40 660 512">
   <path fill="currentColor"
d="M544 473h64h-64h64v0v0h-64v0v0v0zM544 361v-368v368v-368v-32v0h64v0v32v0v417v0l13 10v0l19 15v0l-29 38v0l-19 -15v0l-573 -444v0l-19 -15v0l29 -38v0l19 15v0l240 186v0v-9v0h64v0v32v0v27v0l64 49v0v-172v0v-32v0h64v0v32v0v222v0l64 50v0zM480 435v6v-6v6v32v0h-64
v0v-32v0v-56v0l64 50v0zM352 334v107v-107v107v32v0h-64v0v-32v0v-157v0l64 50v0zM224 249v32v-32v32v160v0v32v0h-64v0v-32v0v-160v0v-32v0h64v0zM96 377v64v-64v64v32v0h-64v0v-32v0v-64v0v-32v0h64v0v32v0z" />
</svg>
