<?xml version="1.0" standalone="no"?>
<!DOCTYPE svg PUBLIC "-//W3C//DTD SVG 1.1//EN" "http://www.w3.org/Graphics/SVG/1.1/DTD/svg11.dtd" >
<svg xmlns="http://www.w3.org/2000/svg" xmlns:xlink="http://www.w3.org/1999/xlink" version="1.1" viewBox="-10 -40 596 512">
   <path fill="currentColor"
d="M296 -7h24h-24h280v64v0h-32h-200l-105 361v0l-7 23v0h-42v0l-10 -16v0l-102 -176v0h-46h-32v-64v0h32h82l10 16v0l74 128v0l91 -313v0l7 -23v0zM528 188l45 45l-45 -45l45 45l-22 23v0l-26 25v0l26 25v0l22 23v0l-45 45v0l-23 -22v0l-25 -26v0l-25 26v0l-23 22v0
l-45 -45v0l22 -23v0l26 -25v0l-26 -25v0l-22 -23v0l45 -45v0l23 22v0l25 26v0l25 -26v0l23 -22v0z" />
</svg>
