<?xml version="1.0" standalone="no"?>
<!DOCTYPE svg PUBLIC "-//W3C//DTD SVG 1.1//EN" "http://www.w3.org/Graphics/SVG/1.1/DTD/svg11.dtd" >
<svg xmlns="http://www.w3.org/2000/svg" xmlns:xlink="http://www.w3.org/1999/xlink" version="1.1" viewBox="-10 -40 653 512">
   <path fill="currentColor"
d="M160 -7v32v-32v32v215v0l64 -23v0v-192v0v-32v0h64v0v32v0v169v0l64 -22v0v-147v0v-32v0h64v0v32v0v124v0l64 -22v0v-102v0v-32v0h64v0v32v0v79v0l37 -13v0l31 -11v0l21 61v0l-30 10v0l-59 21v0v237v0v32v0h-64v0v-32v0v-214v0l-64 22v0v192v0v32v0h-64v0v-32v0v-169v0
l-64 22v0v147v0v32v0h-64v0v-32v0v-124v0l-64 22v0v102v0v32v0h-64v0v-32v0v-79v0l-37 13v0l-30 11v0l-22 -60v0l30 -11v0l59 -21v0v-237v0v-32v0h64v0z" />
</svg>
