<?xml version="1.0" standalone="no"?>
<!DOCTYPE svg PUBLIC "-//W3C//DTD SVG 1.1//EN" "http://www.w3.org/Graphics/SVG/1.1/DTD/svg11.dtd" >
<svg xmlns="http://www.w3.org/2000/svg" xmlns:xlink="http://www.w3.org/1999/xlink" version="1.1" viewBox="-10 -40 660 512">
   <path fill="currentColor"
d="M96 -39v54v-54v54v90v0q1 54 37 91q37 36 91 37q54 -1 91 -37q36 -37 37 -91v-90v0v-54v0l-48 24v0l-16 8v0l-64 -32v0l-64 32v0l-16 -8v0l-48 -24v0zM144 105v-16v16v-16h160v0v16v0q-1 34 -23 57q-23 22 -57 23q-34 -1 -57 -23q-22 -23 -23 -57v0zM448 473l-64 -208
l64 208l-64 -208h-320v0l-64 208v0h448v0zM640 473l-64 -192l64 192l-64 -192h-154v0l57 183v0l3 9v0h158v0zM432 217q48 -1 79 -33v0v0q32 -31 33 -79q-1 -48 -33 -79q-31 -32 -79 -33q-26 0 -48 11v11v0v90v0q-1 48 -25 85q31 26 73 27v0z" />
</svg>
