<?xml version="1.0" standalone="no"?>
<!DOCTYPE svg PUBLIC "-//W3C//DTD SVG 1.1//EN" "http://www.w3.org/Graphics/SVG/1.1/DTD/svg11.dtd" >
<svg xmlns="http://www.w3.org/2000/svg" xmlns:xlink="http://www.w3.org/1999/xlink" version="1.1" viewBox="-10 -40 660 512">
   <path fill="currentColor"
d="M320 -39q1 1 28 21v0v0q27 19 67 38v0v0q40 20 81 21h16v0v48v0h-24h-8v64v0l21 16v0q43 32 96 32h11v0v48v0h-64v0v64v0l38 29v0q26 19 58 19v48v0h-64v0v32v0v32v0h-64v0v-32v0v-32v0h-160v0v32v0v32v0h-64v0v-32v0v-32v0h-160v0v32v0v32v0h-64v0v-32v0v-32v0h-64v0
v-48v0q32 0 58 -19l38 -29v0v-64v0h-64v0v-48v0h11v0q53 0 96 -32l21 -16v0v-64v0h-8h-24v-48v0h16v0q41 -1 81 -21q40 -19 67 -38q27 -20 28 -21v0zM160 313h320h-320h320v-64v0h-320v0v64v0zM416 89h-72h72h-192v64v0h192v0v-64v0z" />
</svg>
