<?xml version="1.0" standalone="no"?>
<!DOCTYPE svg PUBLIC "-//W3C//DTD SVG 1.1//EN" "http://www.w3.org/Graphics/SVG/1.1/DTD/svg11.dtd" >
<svg xmlns="http://www.w3.org/2000/svg" xmlns:xlink="http://www.w3.org/1999/xlink" version="1.1" viewBox="-10 -40 660 512">
   <path fill="currentColor"
d="M448 121v78v-78v78v2v0v0v0q-2 46 -32 76v196v0h-96v0v-165v0q-6 -1 -12 -3l-84 -24v0v16v0v20v0l-14 14v0l-27 27v0l38 115v0h-101v0l-37 -113v0l-10 -28v0l21 -21v0l27 -27v0l-43 -63v0q-11 -17 -13 -36q-16 11 -17 32v56v0v24v0h-48v0v-24v0v-56v0q1 -34 22 -58
t54 -29q21 -34 61 -40q6 23 17 43q16 31 50 50q11 6 24 10q-43 -31 -57 -78q-14 -46 -13 -83t2 -39v0l160 96v0q1 -54 37 -91q37 -36 91 -37h32h80v32v0h-16h-16l16 16v0h96v0v16v0l-80 27v0v101v0l-80 32v0l-32 -64v0zM512 41q-1 -15 -16 -16q-15 1 -16 16q1 15 16 16
q15 -1 16 -16v0z" />
</svg>
