<?xml version="1.0" standalone="no"?>
<!DOCTYPE svg PUBLIC "-//W3C//DTD SVG 1.1//EN" "http://www.w3.org/Graphics/SVG/1.1/DTD/svg11.dtd" >
<svg xmlns="http://www.w3.org/2000/svg" xmlns:xlink="http://www.w3.org/1999/xlink" version="1.1" viewBox="-10 -40 586 512">
   <path fill="currentColor"
d="M337 153h-17h17h-17q-51 1 -92 24q-42 23 -68 62v-86v0q-1 -41 -28 -68t-68 -28h-32v0v64v0h32v0q14 0 23 9t9 23v288v0v32v0h32h240v-64v0h-32h-56l136 -109v0v141v0v32v0h64v0v-32v0v-192v0v-32v0v-4v0q-15 4 -32 4q-36 0 -65 -18q-29 -17 -46 -46v0zM531 137
q13 -22 13 -48v-83v0v-45v0l-32 32v0l-32 32v0v0v0h-64v0v0v0l-32 -32v0l-32 -32v0v45v0v83v0v0v0q0 28 15 51q4 7 9 13v0v0q28 31 72 32q17 0 32 -5v0v0q33 -13 51 -43v0zM400 89q1 -15 16 -16q15 1 16 16q-1 15 -16 16q-15 -1 -16 -16v0zM480 73q15 1 16 16q-1 15 -16 16
q-15 -1 -16 -16q1 -15 16 -16v0z" />
</svg>
