<?xml version="1.0" standalone="no"?>
<!DOCTYPE svg PUBLIC "-//W3C//DTD SVG 1.1//EN" "http://www.w3.org/Graphics/SVG/1.1/DTD/svg11.dtd" >
<svg xmlns="http://www.w3.org/2000/svg" xmlns:xlink="http://www.w3.org/1999/xlink" version="1.1" viewBox="-10 -40 468 512">
   <path fill="currentColor"
d="M352 -39h-256h256h-256v256v0h256v0v-256v0zM64 121v-32v32v-32h-64v0v32v0v64v0v32v0h64v0v-32v0v-64v0zM448 121v-32v32v-32h-64v0v32v0v64v0v32v0h64v0v-32v0v-64v0zM256 345h160h-160h160v-32v0l-32 -64v0h-320v0l-32 64v0v32v0h160v0v64v0h-32h-32v64v0h32h160v-64
v0h-32h-32v-64v0z" />
</svg>
