<?xml version="1.0" standalone="no"?>
<!DOCTYPE svg PUBLIC "-//W3C//DTD SVG 1.1//EN" "http://www.w3.org/Graphics/SVG/1.1/DTD/svg11.dtd" >
<svg xmlns="http://www.w3.org/2000/svg" xmlns:xlink="http://www.w3.org/1999/xlink" version="1.1" viewBox="-10 -40 593 512">
   <path fill="currentColor"
d="M80 -36l23 22l-23 -22l23 22l80 80v0l64 64v0l160 160v0l64 64v0l48 48v0l22 23v0l-45 45v0l-23 -22v0l-38 -39v0h-51h-32v-32v0v-51v0l-141 -141v0h-51h-32v-32v0v-51v0l-71 -70v0l-22 -23v0l45 -45v0zM80 188l23 22l-23 -22l23 22l48 48v0l96 96v0l48 48v0l22 23v0
l-45 45v0l-23 -22v0l-38 -39v0h-83h-32v-32v0v-83v0l-39 -38v0l-22 -23v0l45 -45v0zM327 -14l16 16l-16 -16l16 16l64 64v0l64 64v0l64 64v0l16 16v0l22 23v0l-45 45v0l-23 -22v0l-6 -7v0h-51h-32v-32v0v-51v0l-45 -45v0h-51h-32v-32v0v-51v0l-7 -6v0l-22 -23v0l45 -45v0
l23 22v0z" />
</svg>
