<?xml version="1.0" standalone="no"?>
<!DOCTYPE svg PUBLIC "-//W3C//DTD SVG 1.1//EN" "http://www.w3.org/Graphics/SVG/1.1/DTD/svg11.dtd" >
<svg xmlns="http://www.w3.org/2000/svg" xmlns:xlink="http://www.w3.org/1999/xlink" version="1.1" viewBox="-10 -40 655 512">
   <path fill="currentColor"
d="M550 -14q-46 13 -76 50v0v0q-29 38 -30 89q2 61 42 102q41 40 102 42q25 0 47 -8q-25 32 -60 50q-36 18 -79 18q-20 0 -39 -4q-16 -21 -41 -33q-3 -41 -28 -69q-26 -29 -65 -36q-3 -17 -3 -34q2 -75 51 -124q50 -50 125 -52q29 0 54 9v0zM448 473h-80h80h-448v-96v0
q1 -37 23 -62q22 -26 57 -33v-1v0q1 -41 28 -68t68 -28q26 0 48 13q21 12 34 33q20 -14 46 -14q34 1 57 23q22 23 23 57q0 9 -2 17q29 6 47 27q18 22 19 52v80v0z" />
</svg>
