<?xml version="1.0" standalone="no"?>
<!DOCTYPE svg PUBLIC "-//W3C//DTD SVG 1.1//EN" "http://www.w3.org/Graphics/SVG/1.1/DTD/svg11.dtd" >
<svg xmlns="http://www.w3.org/2000/svg" xmlns:xlink="http://www.w3.org/1999/xlink" version="1.1" viewBox="-10 -40 596 512">
   <path fill="currentColor"
d="M176 153h80h-80h80v191v0q-8 1 -16 1q-44 0 -80 -19v147v0h-96v0v-265v0q-46 -22 -55 -75l-1 -8v0l-4 -32v0l64 -8v0l4 32v0l1 8v0q5 26 32 28h39h32zM320 326q-15 8 -32 12v-169v0l128 54v0v250v0h-96v0v-147v0zM427 153l-6 37l6 -37l-6 37l-115 -48v0l30 -181v0h32v0
l24 32v0h72v0l32 32v0h80v0v48v0q-1 34 -23 57q-23 22 -57 23h-32h-37zM448 57q15 -1 16 -16q-1 -15 -16 -16q-15 1 -16 16q1 15 16 16v0zM133 -26l142 135l-142 -135l142 135l12 11v0l-22 24v0l-12 -11v0l-142 -136v0l-12 -11v0l22 -23v0l12 11v0z" />
</svg>
