<?xml version="1.0" standalone="no"?>
<!DOCTYPE svg PUBLIC "-//W3C//DTD SVG 1.1//EN" "http://www.w3.org/Graphics/SVG/1.1/DTD/svg11.dtd" >
<svg xmlns="http://www.w3.org/2000/svg" xmlns:xlink="http://www.w3.org/1999/xlink" version="1.1" viewBox="-10 -40 532 512">
   <path fill="currentColor"
d="M432 87q-5 -41 -34 -67v0v0q-29 -26 -70 -27q-44 1 -74 30q-29 30 -30 74q0 28 13 51t35 37v5v0l-208 59v0l-32 -32v0h-32v0v32v0q2 82 56 136t136 56h120v0q54 -1 91 -37q36 -37 37 -91q-2 -56 -40 -93v-35v0h16v0q41 -1 68 -28t28 -68h-64v0l-16 -2v0zM320 97
q2 -22 24 -24q22 2 24 24q-2 22 -24 24q-22 -2 -24 -24v0zM309 256l32 2l-32 -2l32 2q-4 43 -31 75q-27 33 -71 44q-40 10 -76 -3q-36 -12 -60 -41l25 -20v0q18 22 45 31q27 10 58 2q34 -9 55 -34q20 -24 23 -56v0z" />
</svg>
