<?xml version="1.0" standalone="no"?>
<!DOCTYPE svg PUBLIC "-//W3C//DTD SVG 1.1//EN" "http://www.w3.org/Graphics/SVG/1.1/DTD/svg11.dtd" >
<svg xmlns="http://www.w3.org/2000/svg" xmlns:xlink="http://www.w3.org/1999/xlink" version="1.1" viewBox="-10 -40 658 512">
   <path fill="currentColor"
d="M122 34q18 -14 38 -24v63v0q2 61 42 102q41 40 102 42h16v0v-32v0h-16v0q-48 -1 -79 -33q-32 -31 -33 -79v-74v0v-38v0h112v0q47 1 78 32h2v0q68 2 113 47t47 113v119v0q-14 9 -32 9q-32 -1 -51 -26l-26 20v0q10 13 24 22v0v0q10 7 21 11v0v0q15 5 32 5t32 -5v0v0
q21 -8 37 -24l11 -11v0l23 22v0l-11 12v0q-25 25 -60 34v22v0q1 13 15 14q10 -1 13 -10l6 -16v0l60 20v0l-5 16v0q-9 25 -29 39q-20 15 -45 15q-34 -1 -56 -23t-23 -55v-22v0q-38 -10 -64 -39v171v0h-128v0v-102v0q-23 6 -48 6t-48 -6v102v0h-128v0v-175v0l-18 41v0l-44 -20
v0l30 -67v0v-43v0q1 -55 25 -100t65 -75v0zM464 185q15 -1 16 -16q-1 -15 -16 -16q-15 1 -16 16q1 15 16 16v0z" />
</svg>
