<?xml version="1.0" standalone="no"?>
<!DOCTYPE svg PUBLIC "-//W3C//DTD SVG 1.1//EN" "http://www.w3.org/Graphics/SVG/1.1/DTD/svg11.dtd" >
<svg xmlns="http://www.w3.org/2000/svg" xmlns:xlink="http://www.w3.org/1999/xlink" version="1.1" viewBox="-10 -40 532 512">
   <path fill="currentColor"
d="M64 377l128 -288l-128 288l128 -288l224 -128v0l-64 192v0l96 224v0h-217v0l17 -40v0l56 -24v0l-56 -24v0l-24 -56v0l-24 56v0l-56 24v0l56 24v0l17 40v0h-153v0zM256 153l16 32l-16 -32l16 32l16 -32v0l32 -16v0l-32 -16v0l-16 -32v0l-16 32v0l-32 16v0l32 16v0zM32 409
h448h-448h480v64v0h-32h-480v-64v0h32v0z" />
</svg>
