<?xml version="1.0" standalone="no"?>
<!DOCTYPE svg PUBLIC "-//W3C//DTD SVG 1.1//EN" "http://www.w3.org/Graphics/SVG/1.1/DTD/svg11.dtd" >
<svg xmlns="http://www.w3.org/2000/svg" xmlns:xlink="http://www.w3.org/1999/xlink" version="1.1" viewBox="-10 -40 532 512">
   <path fill="currentColor"
d="M46 89q23 -57 73 -92v0v0q50 -35 115 -36h22v0q60 1 106 32h-58v0q-48 1 -79 33q-32 31 -33 79q0 26 11 48h-171v0v0v0h-32v0v-64v0h32h14zM304 217h204h-204h204l4 5v0v11v0v16v0v32v0h-32h-32v96v0v32v0h-32h-96v32v0v32v0h-32h-192v-32v0v-131v0l-5 -5v0
q-49 -50 -58 -120h193v0q31 31 78 32v0zM304 25h112h-112h112v160v0h-112v0q-34 -1 -57 -23q-22 -23 -23 -57q1 -34 23 -57q23 -22 57 -23v0zM512 185h-64h64h-64v-160v0h64v0v160v0z" />
</svg>
