<?xml version="1.0" standalone="no"?>
<!DOCTYPE svg PUBLIC "-//W3C//DTD SVG 1.1//EN" "http://www.w3.org/Graphics/SVG/1.1/DTD/svg11.dtd" >
<svg xmlns="http://www.w3.org/2000/svg" xmlns:xlink="http://www.w3.org/1999/xlink" version="1.1" viewBox="-10 -40 404 512">
   <path fill="currentColor"
d="M192 9q1 -27 24 -42q24 -12 48 0q23 15 24 42q-1 27 -24 42q-24 12 -48 0q-23 -15 -24 -42v0zM169 78l31 8l-31 -8l31 8l48 12v0l12 3v0l7 10v0l38 58v0h31v0v-24v0v-24v0h48v0v24v0v24v0v0v0v64v0v0v0v216v0v24v0h-48v0v-24v0v-216v0h-48h-17l-10 -14v0l-18 -27v0
l-19 76v0l55 54v0l9 10v0v13v0v96v0v32v0h-64v0v-32v0v-83v0l-70 -69v0l-1 -1v0v0v0l-3 -4v0q-24 -25 -17 -60l28 -114v0l8 -32v0zM117 295l10 12l42 42v0l-32 124v0h-66v0l46 -178v0zM144 57l-48 192l48 -192l-48 192l-96 -16v0l48 -176v0h96v0z" />
</svg>
