<?xml version="1.0" standalone="no"?>
<!DOCTYPE svg PUBLIC "-//W3C//DTD SVG 1.1//EN" "http://www.w3.org/Graphics/SVG/1.1/DTD/svg11.dtd" >
<svg xmlns="http://www.w3.org/2000/svg" xmlns:xlink="http://www.w3.org/1999/xlink" version="1.1" viewBox="-10 -40 468 512">
   <path fill="currentColor"
d="M304 25q45 1 69 40q22 40 0 80q-24 39 -69 40q-45 -1 -69 -40q-22 -40 0 -80q24 -39 69 -40v0zM304 249q61 -2 102 -42v0v0q40 -41 42 -102q-2 -61 -42 -102q-41 -40 -102 -42q-61 2 -102 42q-40 41 -42 102q1 43 22 77l-157 156v0l-22 23v0l22 23v0l64 64v0l23 22v0
l45 -45v0l-22 -23v0l-42 -41v0l19 -19v0l41 42v0l23 22v0l45 -45v0l-22 -23v0l-42 -41v0l70 -70v0q34 21 77 22v0z" />
</svg>
