<?xml version="1.0" standalone="no"?>
<!DOCTYPE svg PUBLIC "-//W3C//DTD SVG 1.1//EN" "http://www.w3.org/Graphics/SVG/1.1/DTD/svg11.dtd" >
<svg xmlns="http://www.w3.org/2000/svg" xmlns:xlink="http://www.w3.org/1999/xlink" version="1.1" viewBox="-10 -40 532 512">
   <path fill="currentColor"
d="M368 25l112 -32l-112 32l112 -32l-32 112v0l64 32v0l-128 96v0h80v0l-16 64v0l56 48v0l-56 48v0l8 64v0l-184 -48v0l-32 48v0l-56 -102v0l-94 94v0l-17 17v0l-34 -34v0l17 -17v0l192 -192v0l-23 -22v0l-11 11v0l-84 84v0l-114 -63v0l48 -32v0l-48 -184v0l64 8v0l48 -56v0
l48 56v0l64 -16v0v80v0l96 -128v0l32 64v0z" />
</svg>
