<?xml version="1.0" standalone="no"?>
<!DOCTYPE svg PUBLIC "-//W3C//DTD SVG 1.1//EN" "http://www.w3.org/Graphics/SVG/1.1/DTD/svg11.dtd" >
<svg xmlns="http://www.w3.org/2000/svg" xmlns:xlink="http://www.w3.org/1999/xlink" version="1.1" viewBox="-10 -40 532 512">
   <path fill="currentColor"
d="M328 55q33 10 56 34v0v0q24 23 34 56l94 40v0l-94 40v0q-10 33 -34 56q-23 24 -56 34l-40 94v0l-40 -94v0q-17 -5 -31 -14l-146 147v0l-23 22v0l-45 -45v0l22 -23v0l147 -146v0q-9 -14 -14 -31l-94 -40v0l94 -40v0q10 -33 34 -56q23 -24 56 -34l40 -94v0l40 94v0z
M288 217q14 0 23 -9v0v0q9 -9 9 -23t-9 -23t-23 -9t-23 9t-9 23t9 23t23 9v0z" />
</svg>
