<?xml version="1.0" standalone="no"?>
<!DOCTYPE svg PUBLIC "-//W3C//DTD SVG 1.1//EN" "http://www.w3.org/Graphics/SVG/1.1/DTD/svg11.dtd" >
<svg xmlns="http://www.w3.org/2000/svg" xmlns:xlink="http://www.w3.org/1999/xlink" version="1.1" viewBox="-10 -40 660 512">
   <path fill="currentColor"
d="M189 155l19 14l-19 -14l19 14h16h32v-16v0v-32v0v-16v0q-1 -27 -19 -45t-45 -19h-64v0q-27 1 -45 19t-19 45v56v0v8v0h32h16l19 -14v0l8 -6v0l-7 -5v0l-4 -3v0v-4v0v-24v0v-8v0h8h56v8v0v24v0v4v0l-4 3v0l-7 5v0l8 6v0zM256 281v64v-64v64h128v0v-32v0v-32v0l32 -32v0
l32 -32v0v-32v0v-32v0h64v0v48v0v16v0v64v0h32v0v-116v0q0 -37 -21 -65q-21 -29 -56 -41l-8 -3v0l8 -31v0l20 4v0q68 15 110 66t43 121v1v0v0v0q-1 63 -31 113q-29 51 -80 80q-50 30 -113 31h-1h-160q-62 -1 -112 -30q-51 -30 -81 -81q-29 -50 -30 -112v-1v0h-16v0v-48v0
v-64v0h-16v0v-48v0h24h3q14 -29 40 -46q27 -18 61 -18h64v0q34 0 61 18q26 17 40 46h3h24v48v0h-16v0v16v0h48h32v64v0h-32h-32v32v0h80v0l-48 48v0v16v0h-32v0q-32 -1 -56 -18q-24 -18 -34 -46h-38v0l-32 -24v0l-32 24v0h-32v0q1 27 19 45t45 19h64h32zM96 89q15 1 16 16
q-1 15 -16 16q-15 -1 -16 -16q1 -15 16 -16v0zM208 105q1 -15 16 -16q15 1 16 16q-1 15 -16 16q-15 -1 -16 -16v0z" />
</svg>
