<?xml version="1.0" standalone="no"?>
<!DOCTYPE svg PUBLIC "-//W3C//DTD SVG 1.1//EN" "http://www.w3.org/Graphics/SVG/1.1/DTD/svg11.dtd" >
<svg xmlns="http://www.w3.org/2000/svg" xmlns:xlink="http://www.w3.org/1999/xlink" version="1.1" viewBox="-10 -40 660 512">
   <path fill="currentColor"
d="M453 7l75 -14l-75 14l75 -14v46v0q-1 31 -24 50q10 7 19 15q27 -25 29 -63h40h16v32v0q-1 25 -16 43q-16 17 -40 21l7 9v0q17 23 43 36l6 3v0h32v0v144v0h-67v0q-34 32 -80 43l-20 69v0h-89v0v-64v0h-64h-48v64v0h-89v0l-28 -98v0q-34 -18 -54 -52q-21 -33 -21 -74v-16v0
h-33v0q-20 -1 -33 -14t-14 -33q0 -17 10 -30q10 -12 26 -16l8 -2v0l8 31v0l-8 2v0q-11 3 -12 15q1 14 15 15h36v0q12 -56 55 -91q43 -36 102 -37h122v0q22 0 44 4q13 -30 47 -38v0zM468 217q18 -2 20 -20q-2 -18 -20 -20q-18 2 -20 20q2 18 20 20v0z" />
</svg>
