<?xml version="1.0" standalone="no"?>
<!DOCTYPE svg PUBLIC "-//W3C//DTD SVG 1.1//EN" "http://www.w3.org/Graphics/SVG/1.1/DTD/svg11.dtd" >
<svg xmlns="http://www.w3.org/2000/svg" xmlns:xlink="http://www.w3.org/1999/xlink" version="1.1" viewBox="-10 -40 468 512">
   <path fill="currentColor"
d="M320 57q0 17 -5 32h117v0l-16 32v0l32 32v0l-32 32v0l16 32v0h-112v0l32 160v0l-64 -32v0l-64 32v0l-64 -32v0l-64 32v0l32 -160v0h-112v0l16 -32v0l-32 -32v0l32 -32v0l-16 -32v0h118v0q-6 -15 -6 -32q1 -41 28 -68t68 -28q41 1 68 28t28 68v0zM208 41q-1 -15 -16 -16
q-15 1 -16 16q1 15 16 16q15 -1 16 -16v0zM256 73q15 -1 16 -16q-1 -15 -16 -16q-15 1 -16 16q1 15 16 16v0zM192 441v-44v44v-44l18 9v0l14 7v0l14 -7v0l18 -9v0v44v0v32v0h-64v0v-32v0z" />
</svg>
