<?xml version="1.0" standalone="no"?>
<!DOCTYPE svg PUBLIC "-//W3C//DTD SVG 1.1//EN" "http://www.w3.org/Graphics/SVG/1.1/DTD/svg11.dtd" >
<svg xmlns="http://www.w3.org/2000/svg" xmlns:xlink="http://www.w3.org/1999/xlink" version="1.1" viewBox="-10 -40 596 512">
   <path fill="currentColor"
d="M0 41v80v-80v80h48h48v-80v0q-1 -20 -14 -34q-14 -13 -34 -14q-20 1 -34 14q-13 14 -14 34v0zM112 -7q16 21 16 48v304v0q1 27 19 45t45 19q27 -1 45 -19t19 -45v-48v0v-16v0h16h208v-192v0q-1 -41 -28 -68t-68 -28h-272v0zM464 441q48 -1 79 -33v0v0q32 -31 33 -79v-16
v0h-288v0v32v0q-1 41 -28 68t-68 28h176h96z" />
</svg>
