<?xml version="1.0" standalone="no"?>
<!DOCTYPE svg PUBLIC "-//W3C//DTD SVG 1.1//EN" "http://www.w3.org/Graphics/SVG/1.1/DTD/svg11.dtd" >
<svg xmlns="http://www.w3.org/2000/svg" xmlns:xlink="http://www.w3.org/1999/xlink" version="1.1" viewBox="-10 -40 596 512">
   <path fill="currentColor"
d="M48 -7q20 1 34 14v0v0q13 14 14 34v80v0h-48h-48v-80v0q1 -20 14 -34q14 -13 34 -14v0zM128 41q0 -27 -16 -48h272v0q41 1 68 28t28 68l-32 32v0l32 32v0v16v0v16v0l-32 32v0l32 32v0v16v0v16v0h-208h-16v16v0v48v0q-1 27 -19 45t-45 19q-27 -1 -45 -19t-19 -45v-112v0
v-16v0l32 -32v0l-32 -32v0v-16v0v-96v0zM576 329q-1 48 -33 79v0v0q-31 32 -79 33h-96h-176q41 -1 68 -28t28 -68v-32v0h48h16l32 32v0l32 -32v0h16h144v16v0z" />
</svg>
