<?xml version="1.0" standalone="no"?>
<!DOCTYPE svg PUBLIC "-//W3C//DTD SVG 1.1//EN" "http://www.w3.org/Graphics/SVG/1.1/DTD/svg11.dtd" >
<svg xmlns="http://www.w3.org/2000/svg" xmlns:xlink="http://www.w3.org/1999/xlink" version="1.1" viewBox="-10 -40 652 512">
   <path fill="currentColor"
d="M576 97l15 6l-15 -6l15 6l22 10v0l19 -45v0l-23 -9v0l-55 -24v0l-42 -42v0h-64v0l-42 42v0l-55 24v0l-23 9v0l19 45v0l22 -10v0l15 -6v0v152v0h192v0v-152v0zM464 89q15 1 16 16q-1 15 -16 16q-15 -1 -16 -16q1 -15 16 -16v0zM512 105q1 -15 16 -16q15 1 16 16
q-1 15 -16 16q-15 -1 -16 -16v0zM287 52l15 -7l-15 7l15 -7q-18 -19 -46 -20q-30 1 -48 22q-17 -14 -40 -14t-40 14q-17 13 -22 35q-5 -1 -10 -1q-27 1 -45 19t-19 45q0 8 2 16q-32 17 -34 56q2 39 34 57q-2 7 -2 15q1 27 19 45t45 19h1h1l22 120v0h88v0v-86v0q18 21 48 22
q30 -1 48 -22v86v0h88v0l23 -120v0v0h1q27 -1 45 -19t19 -45v-8h-128v0v-136v0l-21 10v0l-44 -103v0z" />
</svg>
