<?xml version="1.0" standalone="no"?>
<!DOCTYPE svg PUBLIC "-//W3C//DTD SVG 1.1//EN" "http://www.w3.org/Graphics/SVG/1.1/DTD/svg11.dtd" >
<svg xmlns="http://www.w3.org/2000/svg" xmlns:xlink="http://www.w3.org/1999/xlink" version="1.1" viewBox="-10 -40 532 512">
   <path fill="currentColor"
d="M512 41l-160 -64l160 64l-160 -64l-64 48v0h-112v0q-61 2 -102 42q-40 41 -42 102q2 61 42 102q41 40 102 42h144v0q14 0 23 9t9 23t-9 23t-23 9h-64v0v0v0h-160v0l-96 48v0l96 48v0h80v0v0v0h144v0q54 -1 91 -37q36 -37 37 -91q-1 -54 -37 -91q-37 -36 -91 -37h-144v0
q-20 -1 -34 -14q-13 -14 -14 -34q1 -20 14 -34q14 -13 34 -14h112v0l64 48v0l160 -64v0v-64v0zM352 41q1 -15 16 -16q15 1 16 16q-1 15 -16 16q-15 -1 -16 -16v0zM368 89q15 1 16 16q-1 15 -16 16q-15 -1 -16 -16q1 -15 16 -16v0z" />
</svg>
