<?xml version="1.0" standalone="no"?>
<!DOCTYPE svg PUBLIC "-//W3C//DTD SVG 1.1//EN" "http://www.w3.org/Graphics/SVG/1.1/DTD/svg11.dtd" >
<svg xmlns="http://www.w3.org/2000/svg" xmlns:xlink="http://www.w3.org/1999/xlink" version="1.1" viewBox="-10 -40 532 512">
   <path fill="currentColor"
d="M400 -23l-233 233l233 -233l-233 233l96 96v0l233 -233v0l16 -112v0l-112 16v0zM0 377l96 96l-96 -96l96 96l32 -32v0l-16 -32v0l56 -56v0l88 56v0l32 -32v0l-192 -192v0l-32 32v0l56 88v0l-56 56v0l-32 -16v0l-32 32v0z" />
</svg>
