<?xml version="1.0" standalone="no"?>
<!DOCTYPE svg PUBLIC "-//W3C//DTD SVG 1.1//EN" "http://www.w3.org/Graphics/SVG/1.1/DTD/svg11.dtd" >
<svg xmlns="http://www.w3.org/2000/svg" xmlns:xlink="http://www.w3.org/1999/xlink" version="1.1" viewBox="-10 -40 596 512">
   <path fill="currentColor"
d="M0 121v96v-96v96h128v0v-224v0q-54 1 -91 37q-36 37 -37 91v0zM0 441h128h-128h128v-192v0h-128v0v192v0zM416 441v-192v192v-192h-64v0v64v0h-128v0v-64v0h-64v0v192v0h256v0zM576 441v-192v192v-192h-128v0v192v0h128v0zM576 121q-1 -54 -37 -91v0v0q-37 -36 -91 -37
v224v0h128v0v-96v0zM416 217v-224v224v-224h-256v0v224v0h64v0v-64v0h128v0v64v0h64v0zM304 201v-16v16v-16h-32v0v16v0v64v0v16v0h32v0v-16v0v-64v0z" />
</svg>
