<?xml version="1.0" standalone="no"?>
<!DOCTYPE svg PUBLIC "-//W3C//DTD SVG 1.1//EN" "http://www.w3.org/Graphics/SVG/1.1/DTD/svg11.dtd" >
<svg xmlns="http://www.w3.org/2000/svg" xmlns:xlink="http://www.w3.org/1999/xlink" version="1.1" viewBox="-10 -40 595 512">
   <path fill="currentColor"
d="M428 68q1 41 28 68v0v0q27 27 68 28q29 0 51 -15q-16 30 -44 48t-64 20q-17 -36 -53 -53q-2 -36 -23 -63t-54 -38q10 -45 44 -73t81 -29q29 0 53 12q-37 4 -62 30q-24 27 -25 65v0zM64 377h56h-56h56l-64 96v0h-56v0l64 -96v0zM160 377h56h-56h56l-64 96v0h-56v0l64 -96
v0zM312 377l-64 96l64 -96l-64 96h-56v0l64 -96v0h56v0zM352 377h56h-56h56l-64 96v0h-56v0l64 -96v0zM448 345h-80h80h-448v-96v0q1 -37 23 -62q22 -26 57 -33v-1v0q1 -41 28 -68t68 -28q26 0 48 13q21 12 34 33q20 -14 46 -14q34 1 57 23q22 23 23 57q0 9 -2 17
q29 6 47 27q18 22 19 52v80v0z" />
</svg>
