<?xml version="1.0" standalone="no"?>
<!DOCTYPE svg PUBLIC "-//W3C//DTD SVG 1.1//EN" "http://www.w3.org/Graphics/SVG/1.1/DTD/svg11.dtd" >
<svg xmlns="http://www.w3.org/2000/svg" xmlns:xlink="http://www.w3.org/1999/xlink" version="1.1" viewBox="-10 -40 532 512">
   <path fill="currentColor"
d="M96 281h-96h96h-96v-96v0q1 -32 18 -56q18 -24 46 -34v-22v0q1 -48 33 -79q31 -32 79 -33q33 0 59 17q26 16 40 43q23 -27 61 -28q34 1 57 23q22 23 23 57v16v0q41 1 68 28t28 68v96v0h-96h-320zM72 313h56h-56h56l-72 160v0h-56v0l72 -160v0zM192 313h56h-56h56l-72 160
v0h-56v0l72 -160v0zM360 313l-72 160l72 -160l-72 160h-56v0l72 -160v0h56v0zM424 313h56h-56h56l-72 160v0h-56v0l72 -160v0z" />
</svg>
