<?xml version="1.0" standalone="no"?>
<!DOCTYPE svg PUBLIC "-//W3C//DTD SVG 1.1//EN" "http://www.w3.org/Graphics/SVG/1.1/DTD/svg11.dtd" >
<svg xmlns="http://www.w3.org/2000/svg" xmlns:xlink="http://www.w3.org/1999/xlink" version="1.1" viewBox="-10 -40 660 512">
   <path fill="currentColor"
d="M160 281h-96h96h-96v-96v0q1 -32 18 -56q18 -24 46 -34v-22v0q1 -48 33 -79q31 -32 79 -33q33 0 59 17q26 16 40 43q23 -27 61 -28q34 1 57 23q22 23 23 57v16v0q41 1 68 28t28 68v96v0h-96h-320zM0 329h24h-24h576v48v0h-24h-552v-48v0zM64 425h24h-24h160v48v0h-24
h-136v-48v0zM272 425h24h-24h368v48v0h-24h-344v-48v0z" />
</svg>
