<?xml version="1.0" standalone="no"?>
<!DOCTYPE svg PUBLIC "-//W3C//DTD SVG 1.1//EN" "http://www.w3.org/Graphics/SVG/1.1/DTD/svg11.dtd" >
<svg xmlns="http://www.w3.org/2000/svg" xmlns:xlink="http://www.w3.org/1999/xlink" version="1.1" viewBox="-10 -40 660 512">
   <path fill="currentColor"
d="M128 9q-1 -27 -24 -42q-24 -12 -48 0q-23 15 -24 42q1 27 24 42q24 12 48 0q23 -15 24 -42v0zM576 57v32v-32v32h-96v0v-32v0h96v0zM288 -7h-64h64h-64v64v0v32v0v64v0h64h352v-64v0v-32v0v-64v0h-64h-288zM576 345v32v-32v32h-224v0v-32v0h224v0zM288 281h-64h64h-64v64
v0v32v0v64v0h64h352v-64v0v-32v0v-64v0h-64h-288zM160 185l-32 -96l32 96l-32 -96h-96v0l-32 96v0h160v0zM128 297q-1 -27 -24 -42q-24 -12 -48 0q-23 15 -24 42q1 27 24 42q24 12 48 0q23 -15 24 -42v0zM160 473l-32 -96l32 96l-32 -96h-96v0l-32 96v0h160v0z" />
</svg>
