<?xml version="1.0" standalone="no"?>
<!DOCTYPE svg PUBLIC "-//W3C//DTD SVG 1.1//EN" "http://www.w3.org/Graphics/SVG/1.1/DTD/svg11.dtd" >
<svg xmlns="http://www.w3.org/2000/svg" xmlns:xlink="http://www.w3.org/1999/xlink" version="1.1" viewBox="-10 -40 660 512">
   <path fill="currentColor"
d="M192 248q-8 1 -16 1h-144v0v-144v0q2 -61 42 -102q41 -40 102 -42q53 1 91 32q35 -31 85 -32q37 0 67 19q30 18 46 49q15 -4 31 -4q48 1 79 33q32 31 33 79v112v0h-112h-27q-35 31 -85 32q-50 -1 -85 -32h-107v0v-1v0zM616 329h24h-24h24v48v0h-24h-360v-48v0h24h336z
M552 425h24h-24h24v48v0h-24h-136v-48v0h24h112zM360 425h24h-24h24v48v0h-24h-360v-48v0h24h336zM224 329v48v-48v48h-24h-128v-48v0h24h128z" />
</svg>
