<?xml version="1.0" standalone="no"?>
<!DOCTYPE svg PUBLIC "-//W3C//DTD SVG 1.1//EN" "http://www.w3.org/Graphics/SVG/1.1/DTD/svg11.dtd" >
<svg xmlns="http://www.w3.org/2000/svg" xmlns:xlink="http://www.w3.org/1999/xlink" version="1.1" viewBox="-10 -40 532 512">
   <path fill="currentColor"
d="M0 281h96h-96h144l169 -128v0h51v0l-40 128v0h76h112v-96v0q-1 -41 -28 -68t-68 -28v-16v0q-1 -34 -23 -57q-23 -22 -57 -23q-38 1 -61 28q-14 -27 -40 -43q-26 -17 -59 -17q-48 1 -79 33q-32 31 -33 79v22v0q-28 10 -46 34q-17 24 -18 56v96v0zM232 345l-40 128l40 -128
l-40 128l176 -136v0v-24v0h-88v0l40 -128v0l-176 136v0v24v0h88v0z" />
</svg>
