<?xml version="1.0" standalone="no"?>
<!DOCTYPE svg PUBLIC "-//W3C//DTD SVG 1.1//EN" "http://www.w3.org/Graphics/SVG/1.1/DTD/svg11.dtd" >
<svg xmlns="http://www.w3.org/2000/svg" xmlns:xlink="http://www.w3.org/1999/xlink" version="1.1" viewBox="-10 -40 660 512">
   <path fill="currentColor"
d="M121 -39l87 61l-87 -61l87 61l87 -61v0l13 79v0q-31 17 -50 47q-22 -14 -50 -14q-41 1 -68 28t-28 68q0 27 13 49t35 34v98v0l-39 27v0l-17 -104v0l-104 -17v0l61 -87v0l-61 -87v0l104 -17v0l17 -104v0zM295 377v0v0v0v0v0v0v0zM242 129q-29 12 -49 34v0v0q-20 23 -29 53
q-19 -18 -20 -47q1 -27 19 -45t45 -19q21 0 37 12q-2 6 -3 13v-1zM640 345h-80h80h-96v-64v0h-76v0l40 -128v0h-51v0l-201 152v0v40v0h-64v0v-96v0q1 -37 23 -62q22 -26 57 -33v-1v0q1 -41 28 -68t68 -28q26 0 48 13q21 12 34 33q20 -14 46 -14q34 1 57 23q22 23 23 57
q0 9 -2 17q29 6 47 27q18 22 19 52v80v0zM512 337l-176 136l176 -136l-176 136l40 -128v0h-88v0v-24v0l176 -136v0l-40 128v0h88v0v24v0z" />
</svg>
