<?xml version="1.0" standalone="no"?>
<!DOCTYPE svg PUBLIC "-//W3C//DTD SVG 1.1//EN" "http://www.w3.org/Graphics/SVG/1.1/DTD/svg11.dtd" >
<svg xmlns="http://www.w3.org/2000/svg" xmlns:xlink="http://www.w3.org/1999/xlink" version="1.1" viewBox="-10 -40 468 512">
   <path fill="currentColor"
d="M0 -39v46v-46v46q0 25 5 50h353v0q5 -10 13 -19l45 -45v0v-32v0h-416v0zM352 89h-338h338h-338q18 54 58 96h340v0l-47 -63v0q-11 -15 -13 -33v0zM126 227l117 69l-117 -69l117 69q12 7 22 17h179v0q4 -17 4 -34q0 -33 -15 -62h-323v0l16 10v0zM288 345q16 33 10 69
l-10 59v0l108 -87v0q22 -17 35 -41h-143v0z" />
</svg>
