<?xml version="1.0" standalone="no"?>
<!DOCTYPE svg PUBLIC "-//W3C//DTD SVG 1.1//EN" "http://www.w3.org/Graphics/SVG/1.1/DTD/svg11.dtd" >
<svg xmlns="http://www.w3.org/2000/svg" xmlns:xlink="http://www.w3.org/1999/xlink" version="1.1" viewBox="-10 -40 596 512">
   <path fill="currentColor"
d="M96 -7h384h-384h384v352v0h-384v0v-352v0zM369 122l17 -17l-17 17l17 -17l-34 -34v0l-17 17v0l-47 47v0l-47 -47v0l-17 -17v0l-34 34v0l17 17v0l47 47v0l-47 47v0l-17 17v0l34 34v0l17 -17v0l47 -47v0l47 47v0l17 17v0l34 -34v0l-17 -17v0l-47 -47v0l47 -47v0zM0 249h64
h-64h64v128v0h448v0v-128v0h64v0v192v0h-576v0v-192v0z" />
</svg>
