<?xml version="1.0" standalone="no"?>
<!DOCTYPE svg PUBLIC "-//W3C//DTD SVG 1.1//EN" "http://www.w3.org/Graphics/SVG/1.1/DTD/svg11.dtd" >
<svg xmlns="http://www.w3.org/2000/svg" xmlns:xlink="http://www.w3.org/1999/xlink" version="1.1" viewBox="-10 -40 597 512">
   <path fill="currentColor"
d="M288 94q-7 4 -16 8q-31 16 -80 19q-49 -3 -80 -19q-9 -4 -16 -8q-7 4 -16 8q-31 16 -80 19v-64v0q30 -1 54 -13q21 -10 39 -24l1 -1l2 -1v0l2 1v0q1 0 1 1q18 14 39 24q24 12 54 13q30 -1 54 -13q21 -10 39 -24l1 -1v0v0l2 -1v0l2 1v0q1 1 2 1q18 14 38 24q24 12 54 13
q30 -1 54 -13q21 -10 39 -24l1 -1v0v0l2 -1v0l3 1v0q0 1 1 1q18 14 39 24q24 12 54 13v64v0q-50 -3 -81 -19q-9 -4 -15 -8q-7 4 -16 8q-31 16 -80 19q-50 -3 -81 -19q-9 -4 -15 -8h-1zM288 382q-7 4 -16 8q-31 16 -80 19q-49 -3 -80 -19q-9 -4 -16 -8q-7 4 -16 8
q-31 16 -80 19v-64v0q30 -1 54 -13q21 -10 39 -24l1 -1l2 -1v0l2 1v0q1 0 1 1q18 14 39 24q24 12 54 13q30 -1 54 -13q21 -10 39 -24l1 -1l2 -1v0l2 1v0q1 1 2 1q18 14 38 24q24 12 54 13q30 -1 54 -13q21 -10 40 -24v-1l3 -1v0l2 1v0q0 1 1 1q18 14 39 24q24 12 54 13v64v0
q-50 -3 -81 -19q-9 -4 -15 -8q-7 4 -16 8q-31 16 -80 19q-50 -3 -81 -19q-9 -4 -15 -8h-1zM272 246q-31 16 -80 19q-49 -3 -80 -19q-9 -4 -16 -8q-7 4 -16 8q-31 16 -80 19v-64v0q30 -1 54 -13q21 -10 39 -24l1 -1h1q0 -1 1 -1t2 1q1 0 1 1q18 14 39 24q24 12 54 13
q30 -1 54 -13q21 -10 39 -24l1 -1q1 -1 2 -1t2 1v0q1 1 2 1q18 14 38 24q24 12 54 13q30 -1 54 -13q21 -10 40 -24v-1q1 -1 3 -1q1 0 2 1q0 1 1 1q18 14 39 24q24 12 54 13v64v0q-50 -3 -81 -19q-9 -4 -15 -8q-7 4 -16 8q-31 16 -80 19q-50 -3 -81 -19q-9 -4 -15 -8
q-7 4 -16 8h-1z" />
</svg>
