<?xml version="1.0" standalone="no"?>
<!DOCTYPE svg PUBLIC "-//W3C//DTD SVG 1.1//EN" "http://www.w3.org/Graphics/SVG/1.1/DTD/svg11.dtd" >
<svg xmlns="http://www.w3.org/2000/svg" xmlns:xlink="http://www.w3.org/1999/xlink" version="1.1" viewBox="-10 -40 532 512">
   <path fill="currentColor"
d="M64 -7v-32v32v-32h-64v0v32v0v448v0v32v0h64v0v-32v0v-160v0h64v0v48v0l80 -17v0v-286v0l-80 -17v0v48v0h-64v0v-64v0zM128 105v128v-128v128h-64v0v-128v0h64v0zM272 39v260v-260v260l96 -20v0v-220v0l-96 -20v0zM512 249v-160v160v-160l-80 -17v0v194v0l80 -17v0z" />
</svg>
