<?xml version="1.0" standalone="no"?>
<!DOCTYPE svg PUBLIC "-//W3C//DTD SVG 1.1//EN" "http://www.w3.org/Graphics/SVG/1.1/DTD/svg11.dtd" >
<svg xmlns="http://www.w3.org/2000/svg" xmlns:xlink="http://www.w3.org/1999/xlink" version="1.1" viewBox="-10 -40 532 512">
   <path fill="currentColor"
d="M192 -39v64v-64v64q72 1 129 35q58 34 92 92q34 57 35 129h64v0q-1 -89 -44 -161q-42 -73 -115 -115q-72 -43 -161 -44v0zM192 57v64v-64v64q68 2 113 47t47 113h64v0q-1 -63 -31 -113q-29 -51 -80 -80q-50 -30 -113 -31v0zM96 105v-48v48v-48h-96v0v48v0v224v0
q2 61 42 102q41 40 102 42q61 -2 102 -42q40 -41 42 -102q-2 -61 -42 -102q-41 -40 -102 -42h-16v0v96v0h16v0q20 1 34 14q13 14 14 34q-1 20 -14 34q-14 13 -34 14q-20 -1 -34 -14q-13 -14 -14 -34v-224v0z" />
</svg>
