<?xml version="1.0" standalone="no"?>
<!DOCTYPE svg PUBLIC "-//W3C//DTD SVG 1.1//EN" "http://www.w3.org/Graphics/SVG/1.1/DTD/svg11.dtd" >
<svg xmlns="http://www.w3.org/2000/svg" xmlns:xlink="http://www.w3.org/1999/xlink" version="1.1" viewBox="-10 -40 532 512">
   <path fill="currentColor"
d="M360 -39q-2 1 -20 25v0v0q-17 24 -20 55q0 29 7 46t25 34q17 18 34 25t46 7q31 -2 55 -20q24 -17 25 -20q0 -2 -22 -20q-21 -17 -58 -20q-23 1 -32 4l-8 4q1 1 4 -8q4 -8 4 -32q-2 -36 -20 -58q-17 -21 -20 -22v0zM127 181l-127 292l127 -292l-127 292l163 -71v0l-46 -46
v0l-12 -11v0l23 -23v0l11 12v0l55 55v0l99 -43v0q34 -16 54 -46q21 -31 21 -69q-1 -54 -37 -89q-35 -36 -89 -37q-58 1 -95 44l56 57v0l12 11v0l-23 23v0l-11 -12v0l-52 -51v0l-2 4v0z" />
</svg>
