<?xml version="1.0" standalone="no"?>
<!DOCTYPE svg PUBLIC "-//W3C//DTD SVG 1.1//EN" "http://www.w3.org/Graphics/SVG/1.1/DTD/svg11.dtd" >
<svg xmlns="http://www.w3.org/2000/svg" xmlns:xlink="http://www.w3.org/1999/xlink" version="1.1" viewBox="-10 -40 661 512">
   <path fill="currentColor"
d="M32 -7l-32 128l32 -128l-32 128h115v0l26 -128v0h-109v0zM272 121v-128v128v-128h-99v0l-25 128v0h124v0zM304 121h57h-57h57q30 -32 57 -51l-15 -77v0h-99v0v128v0zM565 96l6 6l-27 -109v0h-108v0l11 59v0l6 -4v0l59 60v0l30 -30v0l23 18v0zM288 281q1 -37 14 -70v0v0
q13 -32 32 -58h-302v0l4 32v0h-36v0v64v0h44v0l20 160v0v32v0h64v0v-32v0h209v0q-47 -53 -49 -128v0zM448 89q-23 14 -52 42v0v0q-30 28 -52 66v0v0q-23 39 -24 84q2 68 47 113t113 47q68 -2 113 -47t47 -113q1 -22 -19 -66q-21 -45 -77 -94l-32 32v0l-64 -64v0zM544 329
q-1 27 -19 45v0v0q-18 19 -45 19t-45 -19q-18 -18 -19 -45q1 -24 17 -46q15 -22 30 -36q16 -13 17 -14q1 1 17 14q15 14 30 36q16 22 17 46v0z" />
</svg>
