<?xml version="1.0" standalone="no"?>
<!DOCTYPE svg PUBLIC "-//W3C//DTD SVG 1.1//EN" "http://www.w3.org/Graphics/SVG/1.1/DTD/svg11.dtd" >
<svg xmlns="http://www.w3.org/2000/svg" xmlns:xlink="http://www.w3.org/1999/xlink" version="1.1" viewBox="-10 -40 532 512">
   <path fill="currentColor"
d="M376 25l-9 36l9 -36l-9 36l-82 82v0q-35 -22 -71 -22t-60 24q-17 17 -22 39q-3 13 -13 22t-23 10q-39 2 -67 29q-34 35 -28 86q5 51 47 95q43 41 94 46q51 6 86 -28q27 -28 29 -67q1 -13 10 -23t22 -13q22 -5 39 -22q24 -24 24 -60t-22 -71l82 -82v0l36 -9v0l64 -72v0
l-64 -64v0l-72 64v0zM208 217q27 1 42 24q12 24 0 48q-15 23 -42 24q-27 -1 -42 -24q-12 -24 0 -48q15 -23 42 -24v0z" />
</svg>
