<?xml version="1.0" standalone="no"?>
<!DOCTYPE svg PUBLIC "-//W3C//DTD SVG 1.1//EN" "http://www.w3.org/Graphics/SVG/1.1/DTD/svg11.dtd" >
<svg xmlns="http://www.w3.org/2000/svg" xmlns:xlink="http://www.w3.org/1999/xlink" version="1.1" viewBox="-10 -40 659 512">
   <path fill="currentColor"
d="M150 99l-86 214l86 -214l-86 214h384v0l-64 -160v0l81 22v0l-2 -13v0l-7 -32v0l33 -6v0l5 -1v0l-60 -70v0q-24 -29 -57 -44q-34 -16 -71 -16q-53 1 -94 29q-42 28 -62 77v0zM546 122l-19 28l19 -28l-19 28l-33 6v0l7 32v0l-20 28v0l28 18v0l6 33v0l32 -6v0l28 19v0
l18 -28v0l33 -6v0l-7 -32v0l20 -27v0l-28 -19v0l-6 -33v0l-32 6v0l-27 -19v0zM0 345v96v-96v96h48h464v-96v0h-48h-464z" />
</svg>
