<?xml version="1.0" standalone="no"?>
<!DOCTYPE svg PUBLIC "-//W3C//DTD SVG 1.1//EN" "http://www.w3.org/Graphics/SVG/1.1/DTD/svg11.dtd" >
<svg xmlns="http://www.w3.org/2000/svg" xmlns:xlink="http://www.w3.org/1999/xlink" version="1.1" viewBox="-10 -40 650 512">
   <path fill="currentColor"
d="M64 473v-193v193v-193q1 -83 48 -149q47 -65 125 -93l179 -61v0l32 48v0l-48 32v0l104 64v0l72 192v0l-64 64v0h-80v0l-59 -70v0q-17 6 -37 6v0v0v0v0q-9 0 -19 -1q-5 -1 -10 -3v0v0q-45 -13 -68 -52l-8 -14v0l-28 16v0l8 14v0q19 32 50 51t70 21l85 128v0h-352v0z
M392 185q22 -2 24 -24q-2 -22 -24 -24q-22 2 -24 24q2 22 24 24v0z" />
</svg>
