<?xml version="1.0" standalone="no"?>
<!DOCTYPE svg PUBLIC "-//W3C//DTD SVG 1.1//EN" "http://www.w3.org/Graphics/SVG/1.1/DTD/svg11.dtd" >
<svg xmlns="http://www.w3.org/2000/svg" xmlns:xlink="http://www.w3.org/1999/xlink" version="1.1" viewBox="-10 -40 660 512">
   <path fill="currentColor"
d="M16 25q-11 20 -14 24v0v0q-2 5 -2 4v0v0v0v0v0v0h1v0v0l1 1q2 1 5 2q5 3 16 8q22 10 64 24q41 13 99 23q59 9 134 10q61 0 111 -7q2 0 4 -1h4q30 -4 56 -10q33 -7 58 -15q41 -14 64 -24l16 -8q3 -1 5 -2h1v-1h1v0v0v0v0v0v0v0q0 1 -2 -4q-3 -4 -14 -24q-15 -26 -15 -27
l-1 -1v0v0l-1 1v0l-2 1h-1v0q-4 3 -14 7q-18 9 -56 21q-37 11 -91 20q-54 10 -123 10t-123 -10q-54 -9 -92 -21q-37 -11 -55 -20q-10 -4 -14 -7q-1 0 -2 -1h-1l-1 -1v0v0v0v0v0v0v0v0v0q0 -1 -2 4q-3 4 -14 24v0zM115 186q-24 1 -43 15v0v0q-19 14 -27 37q-10 31 -2 65
t20 58t13 25v0q2 0 26 -11t52 -32q28 -20 41 -50q8 -24 3 -47q-6 -22 -23 -39l23 -62v0q-35 -5 -64 -12l-19 53v0zM320 153q-16 0 -32 -1v72v0q-22 9 -35 29q-13 19 -13 44q1 32 21 61q19 30 38 48t21 19v0q1 -1 21 -19q19 -18 38 -47q20 -30 21 -62q0 -25 -13 -44
q-13 -20 -35 -29v-72v0q-16 1 -32 1v0zM506 133q-29 7 -64 12l23 62v0q-17 17 -23 39q-5 23 3 47q13 30 41 50q28 21 52 32q24 10 26 10v1q1 -2 13 -25q12 -24 20 -58t-2 -65q-8 -23 -27 -37t-43 -16l-19 -52v0z" />
</svg>
