<?xml version="1.0" standalone="no"?>
<!DOCTYPE svg PUBLIC "-//W3C//DTD SVG 1.1//EN" "http://www.w3.org/Graphics/SVG/1.1/DTD/svg11.dtd" >
<svg xmlns="http://www.w3.org/2000/svg" xmlns:xlink="http://www.w3.org/1999/xlink" version="1.1" viewBox="-10 -40 532 512">
   <path fill="currentColor"
d="M32 -7h195h-195h195l-74 73v0l-22 23v0h-99v0v-96v0zM272 -7l96 96l-96 -96l96 96h-192v0l96 -96v0zM0 121h96h-96h96v96v0h64v0v-96v0h192h48q48 1 79 33q32 31 33 79q-1 48 -33 79q-31 32 -79 33h-16v0v96v0h-384v0v-320v0zM384 185v96v-96v96h16v0q20 -1 34 -14
q13 -14 14 -34q-1 -20 -14 -34q-14 -13 -34 -14h-16v0z" />
</svg>
