<?xml version="1.0" standalone="no"?>
<!DOCTYPE svg PUBLIC "-//W3C//DTD SVG 1.1//EN" "http://www.w3.org/Graphics/SVG/1.1/DTD/svg11.dtd" >
<svg xmlns="http://www.w3.org/2000/svg" xmlns:xlink="http://www.w3.org/1999/xlink" version="1.1" viewBox="-10 -40 532 512">
   <path fill="currentColor"
d="M216 148q-38 22 -40 69h-176v0q1 -72 35 -130q35 -58 93 -92l88 153v0zM256 297q22 0 40 -11l88 153v0q-57 33 -128 34q-71 -1 -128 -34l88 -153v0q18 11 40 11v0zM512 217h-176h176h-176q-2 -47 -40 -69l88 -153v0q58 34 93 92q34 58 35 130v0zM256 169q27 1 42 24
q12 24 0 48q-15 23 -42 24q-27 -1 -42 -24q-12 -24 0 -48q15 -23 42 -24v0z" />
</svg>
