<?xml version="1.0" standalone="no"?>
<!DOCTYPE svg PUBLIC "-//W3C//DTD SVG 1.1//EN" "http://www.w3.org/Graphics/SVG/1.1/DTD/svg11.dtd" >
<svg xmlns="http://www.w3.org/2000/svg" xmlns:xlink="http://www.w3.org/1999/xlink" version="1.1" viewBox="-10 -40 660 512">
   <path fill="currentColor"
d="M224 -39h160h-160h160v32v0h224v0v128v0h-224v0v256v0h-130v0q2 8 2 16q-1 34 -23 57q-23 22 -57 23q-34 -1 -57 -23q-22 -23 -23 -57q0 -8 2 -16h-2v0l-96 -96v0v-288v0h224v0v-32v0zM256 89h-160h160h-160v96v0h160v0v-96v0zM208 393q0 -14 -9 -23v0v0q-9 -9 -23 -9
t-23 9t-9 23t9 23t23 9t23 -9t9 -23v0zM496 425q14 0 23 -9v0v0q9 -9 9 -23t-9 -23t-23 -9t-23 9t-9 23t9 23t23 9v0zM416 377v-16v16v-16v-80v0v-32v0v-72v0v-24v0h24h97l6 5v0l88 72v0l9 8v0v11v0v32v0v96v0h-66v0q2 8 2 16q-1 34 -23 57q-23 22 -57 23q-34 -1 -57 -23
q-22 -23 -23 -57v-16v0zM578 249l-59 -48l59 48l-59 -48h-55v0v48v0h114v0z" />
</svg>
