<?xml version="1.0" standalone="no"?>
<!DOCTYPE svg PUBLIC "-//W3C//DTD SVG 1.1//EN" "http://www.w3.org/Graphics/SVG/1.1/DTD/svg11.dtd" >
<svg xmlns="http://www.w3.org/2000/svg" xmlns:xlink="http://www.w3.org/1999/xlink" version="1.1" viewBox="-10 -40 532 512">
   <path fill="currentColor"
d="M192 -39q89 1 161 44v0v0q73 42 115 115v0v0q43 72 44 161h-64v0q-1 -72 -35 -129q-34 -58 -92 -92q-57 -34 -129 -35v-64v0zM32 153l133 133l-133 -133l133 133l28 -29v0q-1 -4 -1 -8q0 -14 9 -23t23 -9t23 9t9 23t-9 23t-23 9q-4 0 -8 -1l-29 28v0l133 133v0
q-50 31 -112 32q-88 -2 -147 -61t-61 -147q1 -62 32 -112v0zM416 281h-64h64h-64q-2 -68 -47 -113t-113 -47v-64v0q63 1 113 31q51 29 80 80q30 50 31 113v0z" />
</svg>
