<?xml version="1.0" standalone="no"?>
<!DOCTYPE svg PUBLIC "-//W3C//DTD SVG 1.1//EN" "http://www.w3.org/Graphics/SVG/1.1/DTD/svg11.dtd" >
<svg xmlns="http://www.w3.org/2000/svg" xmlns:xlink="http://www.w3.org/1999/xlink" version="1.1" viewBox="-10 -40 404 512">
   <path fill="currentColor"
d="M0 -39h32h-32h269l10 9v0l96 96v0l9 10v0v13v0v352v0v32v0h-32h-352v-32v0v-448v0v-32v0zM64 153v64v-64v64h64v0v-64v0h-64v0zM64 313h80h-80h256v-64v0h-80h-176v64v0zM320 153h-64h64h-64v64v0h64v0v-64v0zM160 153v64v-64v64h64v0v-64v0h-64v0zM256 345v64v-64v64h64
v0v-64v0h-64v0zM224 345h-64h64h-64v64v0h64v0v-64v0zM128 345h-64h64h-64v64v0h64v0v-64v0z" />
</svg>
