<?xml version="1.0" standalone="no"?>
<!DOCTYPE svg PUBLIC "-//W3C//DTD SVG 1.1//EN" "http://www.w3.org/Graphics/SVG/1.1/DTD/svg11.dtd" >
<svg xmlns="http://www.w3.org/2000/svg" xmlns:xlink="http://www.w3.org/1999/xlink" version="1.1" viewBox="-10 -40 596 512">
   <path fill="currentColor"
d="M211 151v0v0v0q-13 23 -32 47v0v0q-19 24 -60 52v0v0q-41 28 -119 63l59 73v0q51 -24 84 -45q34 -22 55 -41q22 -21 36 -41q15 -20 27 -41l1 -1v0q14 -22 31 -46q18 -24 46 -51q47 -46 154 -103l-45 -56v0q-88 44 -134 78q-47 34 -69 61q-21 27 -34 51v0zM79 412l49 61
l-49 -61l49 61q78 -35 119 -63t60 -52t32 -47v0q13 -24 34 -51q22 -27 68 -61q47 -34 135 -78l-63 -78v0q-55 28 -92 54q-37 25 -61 47q-25 24 -41 46t-29 43l-2 3v0v0q-13 21 -29 43q-15 22 -40 45q-43 41 -140 88v0z" />
</svg>
