<?xml version="1.0" standalone="no"?>
<!DOCTYPE svg PUBLIC "-//W3C//DTD SVG 1.1//EN" "http://www.w3.org/Graphics/SVG/1.1/DTD/svg11.dtd" >
<svg xmlns="http://www.w3.org/2000/svg" xmlns:xlink="http://www.w3.org/1999/xlink" version="1.1" viewBox="-10 -40 468 512">
   <path fill="currentColor"
d="M0 57q1 -41 28 -68v0v0q27 -27 68 -28h288h64v384v0h-32v0v64v0h32v0v64v0h-32h-320q-41 -1 -68 -28t-28 -68v-320v0zM64 377q0 14 9 23v0v0q9 9 23 9h256v0v-64v0h-256v0q-14 0 -23 9t-9 23v0zM304 89q-1 -36 -32 -55q-32 -18 -64 0q-31 19 -32 55q1 36 32 55
q32 18 64 0q31 -19 32 -55v0zM320 185h-160h160h-160l-32 96v0h224v0l-32 -96v0z" />
</svg>
