<?xml version="1.0" standalone="no"?>
<!DOCTYPE svg PUBLIC "-//W3C//DTD SVG 1.1//EN" "http://www.w3.org/Graphics/SVG/1.1/DTD/svg11.dtd" >
<svg xmlns="http://www.w3.org/2000/svg" xmlns:xlink="http://www.w3.org/1999/xlink" version="1.1" viewBox="-10 -40 532 512">
   <path fill="currentColor"
d="M64 25v-32v32v-32h-64v0v32v0v384v0v32v0h32h480v-64v0h-32h-416v-352v0zM224 89h-64h64h-64v64v0h64v0v-64v0zM192 249h-64h64h-64v64v0h64v0v-64v0zM320 185h-64h64h-64v64v0h64v0v-64v0zM352 313h64h-64h64v-64v0h-64v0v64v0zM448 57h-64h64h-64v64v0h64v0v-64v0z" />
</svg>
