<?xml version="1.0" standalone="no"?>
<!DOCTYPE svg PUBLIC "-//W3C//DTD SVG 1.1//EN" "http://www.w3.org/Graphics/SVG/1.1/DTD/svg11.dtd" >
<svg xmlns="http://www.w3.org/2000/svg" xmlns:xlink="http://www.w3.org/1999/xlink" version="1.1" viewBox="-10 -40 531 512">
   <path fill="currentColor"
d="M334 -38l-45 45l45 -45l-45 45l23 23v0l131 131v0l23 23v0l45 -45v0l-23 -23v0l-131 -131v0l-23 -23v0zM209 123l-56 55l56 -55l-56 55l-6 7v0l-2 8v0l-30 120v0l-42 41v0v1v0l-73 72v0l46 46v0l73 -73v0l41 -42v0l120 -30v0l8 -2v0l7 -6v0l56 -56v0l74 -75v0l-45 -45v0
l-52 52v0l-51 -51v0l52 -52v0l-45 -45v0l-74 74v0h-1v0v1zM232 190l51 51l-51 -51l51 51l-27 27v0l-68 17v0l17 -68v0l27 -27v0z" />
</svg>
