<?xml version="1.0" standalone="no"?>
<!DOCTYPE svg PUBLIC "-//W3C//DTD SVG 1.1//EN" "http://www.w3.org/Graphics/SVG/1.1/DTD/svg11.dtd" >
<svg xmlns="http://www.w3.org/2000/svg" xmlns:xlink="http://www.w3.org/1999/xlink" version="1.1" viewBox="-10 -40 404 512">
   <path fill="currentColor"
d="M64 -7l33 189l-33 -189l33 189l21 51v0h10v0v-181v0l-16 -91v0l-48 32v0zM19 153h41h-41h41l-18 -101v0l-42 -11v0l19 112v0zM384 41l-41 10l41 -10l-41 10l-17 102v0h39v0l19 -112v0zM320 -7l-64 16l64 -16l-64 16v224v0h10v0l24 -59v0l30 -181v0zM160 233h64h-64h64
v-32v0v-208v0l-64 -32v0v272v0zM0 185l64 288l-64 -288l64 288h256v0l64 -288v0h-64v0l-32 80v0h-192v0l-32 -80v0h-64v0z" />
</svg>
