<?xml version="1.0" standalone="no"?>
<!DOCTYPE svg PUBLIC "-//W3C//DTD SVG 1.1//EN" "http://www.w3.org/Graphics/SVG/1.1/DTD/svg11.dtd" >
<svg xmlns="http://www.w3.org/2000/svg" xmlns:xlink="http://www.w3.org/1999/xlink" version="1.1" viewBox="-10 -40 532 512">
   <path fill="currentColor"
d="M0 185q1 -62 31 -113v0v0q30 -50 80 -80v0v0q51 -30 113 -31h32v0q78 2 132 52q53 51 60 128l57 72v0l7 9v0v11v0v16v0v32v0h-32h-32v96v0v32v0h-32h-96v32v0v32v0h-32h-224v-32v0v-99v0q-31 -32 -47 -72q-17 -40 -17 -85v0zM192 57v64v-64v64h-64v0v64v0h64v0v64v0h64v0
v-64v0h64v0v-64v0h-64v0v-64v0h-64v0z" />
</svg>
