<?xml version="1.0" standalone="no"?>
<!DOCTYPE svg PUBLIC "-//W3C//DTD SVG 1.1//EN" "http://www.w3.org/Graphics/SVG/1.1/DTD/svg11.dtd" >
<svg xmlns="http://www.w3.org/2000/svg" xmlns:xlink="http://www.w3.org/1999/xlink" version="1.1" viewBox="-10 -40 660 512">
   <path fill="currentColor"
d="M64 -7h32h-32h512v32v0v288v0h-64v0v-256v0h-384v0v256v0h-64v0v-288v0v-32v0zM0 393v-48v48v-48h640v0v48v0l-48 48v0h-544v0l-48 -48v0zM288 105h64h-64h64v64v0h64v0v64v0h-64v0v64v0h-64v0v-64v0h-64v0v-64v0h64v0v-64v0z" />
</svg>
