<?xml version="1.0" standalone="no"?>
<!DOCTYPE svg PUBLIC "-//W3C//DTD SVG 1.1//EN" "http://www.w3.org/Graphics/SVG/1.1/DTD/svg11.dtd" >
<svg xmlns="http://www.w3.org/2000/svg" xmlns:xlink="http://www.w3.org/1999/xlink" version="1.1" viewBox="-10 -40 596 512">
   <path fill="currentColor"
d="M256 425q88 -2 147 -61l34 34v0q-35 35 -81 55q-47 20 -100 20q-72 -1 -129 -35q-58 -34 -92 -92q-34 -57 -35 -129q1 -72 35 -129q34 -58 92 -92q57 -34 129 -35q53 0 100 20q46 20 81 55l-34 34v0q-59 -59 -147 -61q-88 2 -147 61t-61 147q2 88 61 147t147 61v0z
M381 342q-55 51 -125 51v0v0q-70 0 -124 -51q-52 -55 -52 -125t52 -124q54 -52 124 -52t125 52l-125 124v0l125 125v0zM192 225q-2 -22 -24 -24q-22 2 -24 24q2 22 24 24q22 -2 24 -24v0zM216 153q22 -2 24 -24q-2 -22 -24 -24q-22 2 -24 24q2 22 24 24v0zM288 337
q-2 -22 -24 -24q-22 2 -24 24q2 22 24 24q22 -2 24 -24v0zM479 352q47 -56 49 -135q-2 -79 -49 -135l34 -34v0q61 70 63 169q-2 99 -63 169l-34 -34v0zM344 217l36 -35l-36 35l36 -35q5 3 12 3q22 -2 24 -24q0 -7 -3 -12l43 -44v0q40 51 40 112t-40 112l-112 -112v0z
M448 265q22 -2 24 -24q-2 -22 -24 -24q-22 2 -24 24q2 22 24 24v0z" />
</svg>
