<?xml version="1.0" standalone="no"?>
<!DOCTYPE svg PUBLIC "-//W3C//DTD SVG 1.1//EN" "http://www.w3.org/Graphics/SVG/1.1/DTD/svg11.dtd" >
<svg xmlns="http://www.w3.org/2000/svg" xmlns:xlink="http://www.w3.org/1999/xlink" version="1.1" viewBox="-10 -40 654 512">
   <path fill="currentColor"
d="M128 -39v32v-32v32v128v0h64v0v-96v0h227v0l29 29v0v67v0h64v0v-80v0v-13v0l-9 -10v0l-48 -48v0l-10 -9v0h-13h-304zM352 153h-288h288h-288v192v0h64v0v96v0v32v0h32h352v-26v0l-14 -14v0q-24 8 -50 8q-55 -1 -96 -32h-160v0v-64v0v-16v0v-16v0h99v0q-3 -15 -3 -32
q0 -40 17 -73t47 -55v0zM448 201q45 2 69 40q22 40 0 80q-24 39 -69 40q-45 -1 -69 -40q-22 -40 0 -80q24 -38 69 -40v0zM448 409q41 -1 72 -22l63 63v0l17 17v0l34 -34v0l-17 -17v0l-63 -63v0q21 -31 22 -72q-1 -54 -37 -90q-37 -36 -91 -38q-54 2 -91 38q-36 36 -37 90
q1 55 37 91q37 36 91 37v0z" />
</svg>
