<?xml version="1.0" standalone="no"?>
<!DOCTYPE svg PUBLIC "-//W3C//DTD SVG 1.1//EN" "http://www.w3.org/Graphics/SVG/1.1/DTD/svg11.dtd" >
<svg xmlns="http://www.w3.org/2000/svg" xmlns:xlink="http://www.w3.org/1999/xlink" version="1.1" viewBox="-10 -40 468 512">
   <path fill="currentColor"
d="M119 -39h25h-25h297v32v0v361v0q30 18 32 55q-1 27 -19 45t-45 19q-27 -1 -45 -19t-19 -45q2 -37 32 -55v-169v0h-220v0l-61 255v0l-7 32v0l-62 -15v0l7 -31v0l104 -440v0l6 -25v0zM147 121h205h-205h205v-96v0h-183v0l-22 96v0zM384 425q15 -1 16 -16q-1 -15 -16 -16
q-15 1 -16 16q1 15 16 16v0z" />
</svg>
