<?xml version="1.0" standalone="no"?>
<!DOCTYPE svg PUBLIC "-//W3C//DTD SVG 1.1//EN" "http://www.w3.org/Graphics/SVG/1.1/DTD/svg11.dtd" >
<svg xmlns="http://www.w3.org/2000/svg" xmlns:xlink="http://www.w3.org/1999/xlink" version="1.1" viewBox="-10 -40 660 512">
   <path fill="currentColor"
d="M400 57q27 -1 42 -24q12 -24 0 -48q-15 -23 -42 -24q-27 1 -42 24q-12 24 0 48q15 23 42 24v0zM427 121l-91 -72l91 72l-91 -72l-113 87v0q-23 20 -21 47q1 28 26 45l60 38v0v143v0h64v0v-177v0l-57 -38v0l60 -49v0l50 40v0h107v0v-64v0h-85v0zM56 345q1 -41 36 -62
q36 -20 72 0q35 21 36 62q-1 41 -36 62q-36 20 -72 0q-35 -21 -36 -62v0zM256 345q0 -35 -17 -64v0v0q-17 -29 -47 -47q-30 -17 -64 -17t-64 17q-30 18 -47 47t-17 64t17 64t47 47q30 17 64 17t64 -17q30 -18 47 -47t17 -64v0zM440 345q1 -41 36 -62q36 -20 72 0
q35 21 36 62q-1 41 -36 62q-36 20 -72 0q-35 -21 -36 -62v0zM640 345q0 -35 -17 -64v0v0q-17 -29 -47 -47q-30 -17 -64 -17t-64 17q-30 18 -47 47t-17 64t17 64t47 47q30 17 64 17t64 -17q30 -18 47 -47t17 -64v0z" />
</svg>
