<?xml version="1.0" standalone="no"?>
<!DOCTYPE svg PUBLIC "-//W3C//DTD SVG 1.1//EN" "http://www.w3.org/Graphics/SVG/1.1/DTD/svg11.dtd" >
<svg xmlns="http://www.w3.org/2000/svg" xmlns:xlink="http://www.w3.org/1999/xlink" version="1.1" viewBox="-10 -40 660 512">
   <path fill="currentColor"
d="M448 9q-1 -27 -24 -42q-24 -12 -48 0q-23 15 -24 42q1 27 24 42q24 12 48 0q23 -15 24 -42v0zM427 121l-91 -72l91 72l-91 -72l-113 87v0q-23 20 -21 47q1 28 26 45l60 38v0v143v0h64v0v-177v0l-57 -38v0l60 -49v0l50 40v0h107v0v-64v0h-85v0zM176 137l128 -96l-128 96
l128 -96l-48 -60v0h-43v0l-101 76v0l64 80v0zM160 217h-64h64h-64v21v0q-11 3 -21 8l-15 -14v0l-45 45v0l15 15v0q-6 10 -9 21h-21v0v64v0h21v0q3 11 8 21l-14 15v0l45 45v0l15 -14v0q10 5 21 8v21v0h64v0v-21v0q11 -3 21 -8l15 14v0l45 -45v0l-14 -15v0q5 -10 9 -21h20v0
v-64v0h-21v0q-3 -11 -8 -21l14 -15v0l-45 -45v0l-15 14v0q-10 -5 -21 -8v-21v0zM128 281q36 1 55 32q18 32 0 64q-19 31 -55 32q-36 -1 -55 -32q-18 -32 0 -64q19 -31 55 -32v0zM480 217v21v-21v21q-11 3 -21 8l-15 -14v0l-45 45v0l14 15v0q-5 10 -8 21h-21v0v64v0h21v0
q3 11 8 21l-14 15v0l45 45v0l15 -14v0q10 5 21 8v21v0h64v0v-21v0q11 -3 21 -8l15 14v0l45 -45v0l-14 -15v0q5 -10 8 -21h21v0v-64v0h-21v0q-3 -11 -8 -21l14 -15v0l-45 -45v0l-15 14v0q-10 -5 -21 -8v-21v0h-64v0zM448 345q1 -36 32 -55q32 -18 64 0q31 19 32 55
q-1 36 -32 55q-32 18 -64 0q-31 -19 -32 -55v0z" />
</svg>
