<?xml version="1.0" standalone="no"?>
<!DOCTYPE svg PUBLIC "-//W3C//DTD SVG 1.1//EN" "http://www.w3.org/Graphics/SVG/1.1/DTD/svg11.dtd" >
<svg xmlns="http://www.w3.org/2000/svg" xmlns:xlink="http://www.w3.org/1999/xlink" version="1.1" viewBox="-10 -40 468 512">
   <path fill="currentColor"
d="M64 57v320v-320v320h320v0v-320v0h-320v0zM0 -7h64h-64h448v64v0v320v0v64v0h-64h-384v-64v0v-320v0v-64v0zM256 89v64v-64v64h-64v0v-64v0h64v0zM96 185h64h-64h64v64v0h-64v0v-64v0zM256 185v64v-64v64h-64v0v-64v0h64v0zM288 185h64h-64h64v64v0h-64v0v-64v0zM256 281
v64v-64v64h-64v0v-64v0h64v0z" />
</svg>
