<?xml version="1.0" standalone="no"?>
<!DOCTYPE svg PUBLIC "-//W3C//DTD SVG 1.1//EN" "http://www.w3.org/Graphics/SVG/1.1/DTD/svg11.dtd" >
<svg xmlns="http://www.w3.org/2000/svg" xmlns:xlink="http://www.w3.org/1999/xlink" version="1.1" viewBox="-10 -40 468 512">
   <path fill="currentColor"
d="M448 -7v448v-448v448h-64v0v-448v0h64v0zM352 -7v64v-64v64h-64v0v-64v0h64v0zM352 441h-64h64h-64v-64v0h64v0v64v0zM352 185v64v-64v64h-64v0v-64v0h64v0zM160 57h-64h64h-64v-64v0h64v0v64v0zM160 377v64v-64v64h-64v0v-64v0h64v0zM160 249h-64h64h-64v-64v0h64v0v64
v0zM256 -7v64v-64v64h-64v0v-64v0h64v0zM256 441h-64h64h-64v-64v0h64v0v64v0zM256 185v64v-64v64h-64v0v-64v0h64v0zM64 57h-64h64h-64v-64v0h64v0v64v0zM64 377v64v-64v64h-64v0v-64v0h64v0zM64 249h-64h64h-64v-64v0h64v0v64v0zM256 89v64v-64v64h-64v0v-64v0h64v0z
M64 153h-64h64h-64v-64v0h64v0v64v0zM64 281v64v-64v64h-64v0v-64v0h64v0zM256 345h-64h64h-64v-64v0h64v0v64v0z" />
</svg>
