<?xml version="1.0" standalone="no"?>
<!DOCTYPE svg PUBLIC "-//W3C//DTD SVG 1.1//EN" "http://www.w3.org/Graphics/SVG/1.1/DTD/svg11.dtd" >
<svg xmlns="http://www.w3.org/2000/svg" xmlns:xlink="http://www.w3.org/1999/xlink" version="1.1" viewBox="-10 -40 660 512">
   <path fill="currentColor"
d="M73 -39h23h-23h270l7 22v0l36 106v0h-66h-2l-21 -64v0h-178v0l-21 64v0h176v0l-7 22v0l-8 22v0l-28 84v0h-7h-32v32v0h-112v0v64v0h-80v0v-64v0v0v0v-160v0h30v0l36 -106v0l7 -22v0zM332 217l-10 32l10 -32l-10 32h220v0l-21 -64v0h-105h-73l-11 32v0zM254 249l36 -106
l-36 106l36 -106l7 -22v0h23h247l7 22v0l36 106v0h30v0v160v0v64v0h-80v0v-64v0h-256v0v64v0h-80v0v-64v0v0v0v-160v0h30v0zM80 193q22 -2 24 -24q-2 -22 -24 -24q-22 2 -24 24q2 22 24 24v0zM304 353q22 -2 24 -24q-2 -22 -24 -24q-22 2 -24 24q2 22 24 24v0zM584 329
q-2 -22 -24 -24q-22 2 -24 24q2 22 24 24q22 -2 24 -24v0z" />
</svg>
