<?xml version="1.0" standalone="no"?>
<!DOCTYPE svg PUBLIC "-//W3C//DTD SVG 1.1//EN" "http://www.w3.org/Graphics/SVG/1.1/DTD/svg11.dtd" >
<svg xmlns="http://www.w3.org/2000/svg" xmlns:xlink="http://www.w3.org/1999/xlink" version="1.1" viewBox="-10 -40 532 512">
   <path fill="currentColor"
d="M223 88l-51 -38l51 38l-51 -38q-8 -18 -24 -30q-15 -11 -36 -11q-27 1 -45 19t-19 45q0 21 11 36q12 16 30 24l38 51v0q-7 1 -15 1q-48 -1 -79 -33q-32 -31 -33 -79q1 -48 33 -79q31 -32 79 -33q48 1 79 33q32 31 33 79q0 8 -1 15v0zM173 91l40 30l-40 -30l40 30v0v0h86
v0v0v0l40 -30v0l45 -34v0l32 32v0l-34 45v0l-30 40v0v0v0v86v0v0v0l30 40v0l34 45v0l-32 32v0l-45 -34v0l-40 -30v0v0v0h-86v0v0v0l-40 30v0l-45 34v0l-32 -32v0l34 -45v0l30 -40v0v0v0v-86v0v0v0l-30 -40v0l-34 -45v0l32 -32v0l45 34v0zM224 361q-1 48 -33 79v0v0
q-31 32 -79 33q-48 -1 -79 -33q-32 -31 -33 -79q1 -48 33 -79q31 -32 79 -33q8 0 15 1l-38 51v0q-18 8 -30 24q-11 15 -11 36q1 27 19 45t45 19q21 0 36 -11q16 -12 24 -30l51 -38v0q1 7 1 15v0zM289 88q-1 -7 -1 -15q1 -48 33 -79q31 -32 79 -33q48 1 79 33q32 31 33 79
q-1 48 -33 79q-31 32 -79 33q-8 0 -15 -1l38 -51v0q18 -8 30 -23q11 -16 11 -37q-1 -27 -19 -45t-45 -19q-21 0 -36 12q-16 11 -24 29l-51 38v0zM288 361q0 -8 1 -15l51 38v0q8 18 23 30q16 11 37 11q27 -1 45 -19t19 -45q0 -21 -12 -36q-11 -16 -29 -24l-38 -51v0
q7 -1 15 -1q48 1 79 33q32 31 33 79q-1 48 -33 79q-31 32 -79 33q-48 -1 -79 -33q-32 -31 -33 -79v0z" />
</svg>
