<?xml version="1.0" standalone="no"?>
<!DOCTYPE svg PUBLIC "-//W3C//DTD SVG 1.1//EN" "http://www.w3.org/Graphics/SVG/1.1/DTD/svg11.dtd" >
<svg xmlns="http://www.w3.org/2000/svg" xmlns:xlink="http://www.w3.org/1999/xlink" version="1.1" viewBox="-10 -40 596 512">
   <path fill="currentColor"
d="M0 57q1 -41 28 -68v0v0q27 -27 68 -28q41 1 68 28t28 68h-192v0zM0 89h181h-181h181l-51 124v0l-2 6v0v6v0v248v0h-128v0v-384v0zM160 473v-248v248v-248l56 -136v0l152 -64v0l152 64v0l56 136v0v248v0h-144v0v-112v0h-128v0v112v0h-144v0zM416 185h-96h96h-96v96v0h96v0
v-96v0z" />
</svg>
