<?xml version="1.0" standalone="no"?>
<!DOCTYPE svg PUBLIC "-//W3C//DTD SVG 1.1//EN" "http://www.w3.org/Graphics/SVG/1.1/DTD/svg11.dtd" >
<svg xmlns="http://www.w3.org/2000/svg" xmlns:xlink="http://www.w3.org/1999/xlink" version="1.1" viewBox="-10 -40 404 512">
   <path fill="currentColor"
d="M224 -39h-224h224h-224v512v0h384v0v-352v0h-160v0v-160v0zM256 -39v128v-128v128h128v0l-128 -128v0zM272 265q0 27 -13 49l38 38v0l17 17v0l-34 34v0l-17 -17v0l-38 -38v0q-22 13 -49 13q-41 -1 -68 -28t-28 -68q1 -41 28 -68t68 -28q41 1 68 28t28 68v0zM176 313
q27 -1 42 -24q12 -24 0 -48q-15 -23 -42 -24q-27 1 -42 24q-12 24 0 48q15 23 42 24v0z" />
</svg>
