<?xml version="1.0" standalone="no"?>
<!DOCTYPE svg PUBLIC "-//W3C//DTD SVG 1.1//EN" "http://www.w3.org/Graphics/SVG/1.1/DTD/svg11.dtd" >
<svg xmlns="http://www.w3.org/2000/svg" xmlns:xlink="http://www.w3.org/1999/xlink" version="1.1" viewBox="-10 -40 404 512">
   <path fill="currentColor"
d="M320 25h32h-32h32v-64v0h-32h-176q-48 1 -79 33q-32 31 -33 79q1 48 33 79q31 32 79 33h16v0v64v0v32v0h64v0v-32v0v-224v0h32v0v224v0v32v0h64v0v-32v0v-224v0zM128 345v-64v64v-64h-32v0l-96 96v0l96 96v0h32v0v-64v0h224h32v-64v0h-32h-224z" />
</svg>
