<?xml version="1.0" standalone="no"?>
<!DOCTYPE svg PUBLIC "-//W3C//DTD SVG 1.1//EN" "http://www.w3.org/Graphics/SVG/1.1/DTD/svg11.dtd" >
<svg xmlns="http://www.w3.org/2000/svg" xmlns:xlink="http://www.w3.org/1999/xlink" version="1.1" viewBox="-10 -40 596 512">
   <path fill="currentColor"
d="M320 -7h32h-32h64v64v0h-32h-64v-64v0h32v0zM320 121h96h-96h128v64v0h-32h-128v-64v0h32v0zM320 249h160h-160h192v64v0h-32h-192v-64v0h32v0zM320 377h224h-224h256v64v0h-32h-256v-64v0h32v0zM152 431l-24 26l24 -26l-24 26l-24 -26v0l-80 -88v0l-21 -24v0l47 -43v0
l22 24v0l24 26v0v-285v0v-32v0h64v0v32v0v285v0l24 -27v0l22 -23v0l47 43v0l-21 23v0l-80 88v1z" />
</svg>
