<?xml version="1.0" standalone="no"?>
<!DOCTYPE svg PUBLIC "-//W3C//DTD SVG 1.1//EN" "http://www.w3.org/Graphics/SVG/1.1/DTD/svg11.dtd" >
<svg xmlns="http://www.w3.org/2000/svg" xmlns:xlink="http://www.w3.org/1999/xlink" version="1.1" viewBox="-10 -40 586 512">
   <path fill="currentColor"
d="M320 -7h160h-160h160v160v0h-160v0v-160v0zM320 217h224h-224h224v224v0h-224v0v-224v0zM184 415l-24 26l24 -26l-24 26l-24 -26v0l-80 -88v0l-21 -24v0l47 -43v0l22 24v0l24 26v0v-269v0v-32v0h64v0v32v0v269v0l24 -27v0l22 -23v0l47 43v0l-21 23v0l-80 88v1z" />
</svg>
