<?xml version="1.0" standalone="no"?>
<!DOCTYPE svg PUBLIC "-//W3C//DTD SVG 1.1//EN" "http://www.w3.org/Graphics/SVG/1.1/DTD/svg11.dtd" >
<svg xmlns="http://www.w3.org/2000/svg" xmlns:xlink="http://www.w3.org/1999/xlink" version="1.1" viewBox="-10 -40 586 512">
   <path fill="currentColor"
d="M320 -7v160v-160v160h160v0v-160v0h-160v0zM320 217v224v-224v224h224v0v-224v0h-224v0zM184 20l-24 -27l24 27l-24 -27l-24 26v0l-80 88v0l-21 24v0l47 43v0l22 -23v0l24 -27v0v285v0v32v0h64v0v-32v0v-285v0l24 27v0l22 23v0l47 -43v0l-21 -23v0l-80 -88v0z" />
</svg>
