<?xml version="1.0" standalone="no"?>
<!DOCTYPE svg PUBLIC "-//W3C//DTD SVG 1.1//EN" "http://www.w3.org/Graphics/SVG/1.1/DTD/svg11.dtd" >
<svg xmlns="http://www.w3.org/2000/svg" xmlns:xlink="http://www.w3.org/1999/xlink" version="1.1" viewBox="-10 -40 468 512">
   <path fill="currentColor"
d="M0 -7h448h-448h448v448v0h-448v0v-448v0zM384 217q0 -43 -21 -80v0v0q-22 -37 -59 -59q-38 -21 -80 -21t-80 21q-37 22 -59 59q-21 37 -21 80t21 80q22 37 59 59q38 21 80 21t80 -21q37 -22 59 -59q21 -37 21 -80v0zM224 185q14 0 23 9v0v0q9 9 9 23t-9 23t-23 9t-23 -9
t-9 -23t9 -23t23 -9v0z" />
</svg>
