<?xml version="1.0" standalone="no"?>
<!DOCTYPE svg PUBLIC "-//W3C//DTD SVG 1.1//EN" "http://www.w3.org/Graphics/SVG/1.1/DTD/svg11.dtd" >
<svg xmlns="http://www.w3.org/2000/svg" xmlns:xlink="http://www.w3.org/1999/xlink" version="1.1" viewBox="-10 -40 468 512">
   <path fill="currentColor"
d="M272 9q-1 23 -17 37l34 59v0h66v0q12 -30 45 -32q20 1 34 14q14 14 14 34t-14 34t-34 14q-9 0 -17 -3l-29 51v0l29 51v0q8 -3 17 -3q20 1 34 14q13 14 14 34q-1 20 -14 34q-14 13 -34 14q-33 -2 -45 -32l-66 1v0l-34 58v0q16 14 17 37q-1 20 -14 34q-14 14 -34 14
t-34 -14t-14 -34q1 -23 17 -37l-34 -58v0l-66 -1v0q-12 30 -45 32q-20 -1 -34 -14q-13 -14 -14 -34q1 -20 14 -34q14 -13 34 -14q9 0 17 3l29 -51v0l-29 -51v0q-8 3 -17 3q-20 -1 -34 -14q-13 -14 -14 -34q1 -20 14 -34q14 -13 34 -14q33 2 45 32l66 -1v0l34 -58v0
q-16 -14 -17 -37q1 -20 14 -34q14 -13 34 -14q20 1 34 14q13 14 14 34v0zM224 297l80 -80l-80 80l80 -80l-80 -80v0l-80 80v0l80 80v0z" />
</svg>
