<?xml version="1.0" standalone="no"?>
<!DOCTYPE svg PUBLIC "-//W3C//DTD SVG 1.1//EN" "http://www.w3.org/Graphics/SVG/1.1/DTD/svg11.dtd" >
<svg xmlns="http://www.w3.org/2000/svg" xmlns:xlink="http://www.w3.org/1999/xlink" version="1.1" viewBox="-10 -40 660 512">
   <path fill="currentColor"
d="M224 89h16h-16h288v32v0h-16h-16v32v0h91v0l44 -29v0l25 -17v0v30v0v192v0v30v0l-25 -17v0l-44 -29v0h-475h-3l-3 -1v0l-80 -32v0l-10 -4v0v-11v0v-64v0v-11v0l10 -4v0l80 -32v0l3 -1v0h3h160v-32v0h-16h-16v-32v0zM448 121h-64h64h-64v32v0h64v0v-32v0zM352 121h-64h64
h-64v32v0h64v0v-32v0zM272 257q22 -2 24 -24q-2 -22 -24 -24q-22 2 -24 24q2 22 24 24v0zM392 233q-2 -22 -24 -24q-22 2 -24 24q2 22 24 24q22 -2 24 -24v0zM464 257q22 -2 24 -24q-2 -22 -24 -24q-22 2 -24 24q2 22 24 24v0z" />
</svg>
