<?xml version="1.0" standalone="no"?>
<!DOCTYPE svg PUBLIC "-//W3C//DTD SVG 1.1//EN" "http://www.w3.org/Graphics/SVG/1.1/DTD/svg11.dtd" >
<svg xmlns="http://www.w3.org/2000/svg" xmlns:xlink="http://www.w3.org/1999/xlink" version="1.1" viewBox="-10 -40 660 512">
   <path fill="currentColor"
d="M144 441h-144h144h-144v-144v0q1 -48 27 -84t69 -52v-8v0q2 -68 47 -113t113 -47q45 1 81 22q36 22 58 58q23 -16 53 -16q41 1 68 28t28 68v36v0q42 11 69 45q26 33 27 79v128v0h-128h-368zM416 145v-23v23v-23l-22 8v0l-128 48v0l-10 4v0v11v0v32v0v82v0q-8 -2 -16 -2
q-20 0 -34 9q-13 9 -14 23q1 14 14 23q14 9 34 9t34 -9q13 -9 14 -23v-101v0l96 -36v0v75v0q-8 -2 -16 -2q-20 0 -34 9q-13 9 -14 23q1 14 14 23q14 9 34 9t34 -9q13 -9 14 -23v-128v0v-32v0z" />
</svg>
