<?xml version="1.0" standalone="no"?>
<!DOCTYPE svg PUBLIC "-//W3C//DTD SVG 1.1//EN" "http://www.w3.org/Graphics/SVG/1.1/DTD/svg11.dtd" >
<svg xmlns="http://www.w3.org/2000/svg" xmlns:xlink="http://www.w3.org/1999/xlink" version="1.1" viewBox="-10 -40 660 512">
   <path fill="currentColor"
d="M0 121h96h-96h96v192v0h-96v0v-192v0zM640 313h-512h512h-512v-192v0h512v0v192v0zM320 241q22 -2 24 -24q-2 -22 -24 -24q-22 2 -24 24q2 22 24 24v0zM440 217q-2 -22 -24 -24q-22 2 -24 24q2 22 24 24q22 -2 24 -24v0zM512 241q22 -2 24 -24q-2 -22 -24 -24
q-22 2 -24 24q2 22 24 24v0z" />
</svg>
