<?xml version="1.0" standalone="no"?>
<!DOCTYPE svg PUBLIC "-//W3C//DTD SVG 1.1//EN" "http://www.w3.org/Graphics/SVG/1.1/DTD/svg11.dtd" >
<svg xmlns="http://www.w3.org/2000/svg" xmlns:xlink="http://www.w3.org/1999/xlink" version="1.1" viewBox="-10 -40 468 512">
   <path fill="currentColor"
d="M0 -7h448h-448h448v448v0h-448v0v-448v0zM149 198l-49 -49l49 49l-49 -49l-29 -28v0l57 -57v0l28 29v0l49 49v0q3 -10 3 -21q-1 -34 -23 -57q-23 -22 -57 -23q-34 1 -57 23q-22 23 -23 57q1 34 23 57q23 22 57 23q11 0 21 -3v0zM184 244q-38 22 -40 69q1 34 23 57
q23 22 57 23q34 -1 57 -23q22 -23 23 -57q-2 -47 -40 -69v69v0v40v0h-80v0v-40v0v-69v0zM299 198q10 3 21 3q34 -1 57 -23q22 -23 23 -57q-1 -34 -23 -57q-23 -22 -57 -23q-34 1 -57 23q-22 23 -23 57q0 11 3 21l49 -49v0l28 -29v0l57 57v0l-29 28v0l-49 49v0zM139 110
l-11 -12l11 12l-11 -12l-23 23v0l12 11v0l91 92v0v89v0v16v0h32v0v-16v0v-89v0l91 -92v0l12 -11v0l-23 -23v0l-11 12v0l-85 84v0l-85 -84v0z" />
</svg>
