<?xml version="1.0" standalone="no"?>
<!DOCTYPE svg PUBLIC "-//W3C//DTD SVG 1.1//EN" "http://www.w3.org/Graphics/SVG/1.1/DTD/svg11.dtd" >
<svg xmlns="http://www.w3.org/2000/svg" xmlns:xlink="http://www.w3.org/1999/xlink" version="1.1" viewBox="-10 -40 404 512">
   <path fill="currentColor"
d="M0 -39h384h-384h384v512v0h-384v0v-512v0zM96 25v160v-160v160h192v0v-160v0h-192v0zM232 345q22 -2 24 -24q-2 -22 -24 -24q-22 2 -24 24q2 22 24 24v0zM320 273q-2 -22 -24 -24q-22 2 -24 24q2 22 24 24q22 -2 24 -24v0zM96 249v32v-32v32h-32v0v32v0h32v0v32v0h32v0
v-32v0h32v0v-32v0h-32v0v-32v0h-32v0z" />
</svg>
