<?xml version="1.0" standalone="no"?>
<!DOCTYPE svg PUBLIC "-//W3C//DTD SVG 1.1//EN" "http://www.w3.org/Graphics/SVG/1.1/DTD/svg11.dtd" >
<svg xmlns="http://www.w3.org/2000/svg" xmlns:xlink="http://www.w3.org/1999/xlink" version="1.1" viewBox="-10 -40 532 512">
   <path fill="currentColor"
d="M104 -39h48h-48h72v24v0v56v0v6v0l-2 5v0l-22 43v0v44v0q39 7 63 30q24 24 25 56q0 21 -12 39q-6 10 -5 22q1 13 8 22q9 9 15 21q-3 7 -7 14q-14 24 -15 56q0 18 5 33q-37 39 -101 41q-54 -1 -91 -30q-36 -30 -37 -74q1 -35 25 -61q8 -9 8 -22q1 -12 -5 -22
q-12 -18 -12 -39q1 -32 25 -56q24 -23 63 -30v-44v0l-21 -43v0l-3 -5v0v-6v0v-56v0v-24v0h24v0zM128 305q23 -1 35 -20q10 -20 0 -40q-12 -19 -35 -20q-23 1 -35 20q-10 20 0 40q12 19 35 20v0zM360 110l-32 -37l32 37l-32 -37l24 -112v0h32v0q17 0 28 12q12 11 12 28v4v0
q-1 20 -16 30v165v0q34 -8 42 -26q7 -19 6 -21v0h32v0v38v0q-1 18 -8 37v0q-3 6 -4 12q-4 10 -4 25q1 26 10 51t19 42q11 19 11 41q-1 31 -22 52q-20 21 -52 22h-108v0q-32 -1 -52 -22q-21 -20 -22 -52q0 -22 11 -41q10 -17 19 -42t10 -51q0 -15 -4 -25q-1 -6 -3 -12h-1
q-7 -18 -8 -37v-54v0h32v0q0 1 2 14t12 28t34 21v-90v0zM336 265v32v-32v32h16h80v-32v0h-16h-80zM336 329v32v-32v32h16h80v-32v0h-16h-80z" />
</svg>
