<?xml version="1.0" standalone="no"?>
<!DOCTYPE svg PUBLIC "-//W3C//DTD SVG 1.1//EN" "http://www.w3.org/Graphics/SVG/1.1/DTD/svg11.dtd" >
<svg xmlns="http://www.w3.org/2000/svg" xmlns:xlink="http://www.w3.org/1999/xlink" version="1.1" viewBox="-10 -40 532 512">
   <path fill="currentColor"
d="M160 68v-98v98v-98q-71 22 -115 80t-45 135q0 45 17 85q16 40 47 72v99v0v32v0h32h224v-32v0v-32v0h96h32v-32v0v-96v0h32h32v-32v0v-16v0v-11v0l-7 -9v0l-57 -72v0q-7 -77 -60 -128q-54 -50 -132 -52v107v0q29 14 46 40q18 27 18 61q-1 48 -33 79q-31 32 -79 33
q-48 -1 -79 -33q-32 -31 -33 -79q0 -34 18 -61q17 -26 46 -40v0zM176 169q0 -14 9 -23v0v0q9 -9 23 -9t23 9t9 23t-9 23t-23 9t-23 -9t-9 -23v0zM272 169q-1 -36 -32 -55q-32 -18 -64 0q-31 19 -32 55q1 36 32 55q32 18 64 0q31 -19 32 -55v0z" />
</svg>
