<?xml version="1.0" standalone="no"?>
<!DOCTYPE svg PUBLIC "-//W3C//DTD SVG 1.1//EN" "http://www.w3.org/Graphics/SVG/1.1/DTD/svg11.dtd" >
<svg xmlns="http://www.w3.org/2000/svg" xmlns:xlink="http://www.w3.org/1999/xlink" version="1.1" viewBox="-10 -40 596 512">
   <path fill="currentColor"
d="M448 121v78v-78v78v2v0v0v0q-2 46 -32 76v196v0h-96v0v-165v0q-6 -1 -12 -3l-52 -15v0v-73v0h48h16v-16v0v-112v0q1 -54 37 -91q37 -36 91 -37h32h96v32v0h-16h-16l32 32v0v128v0l-80 32v0l-32 -64v0h-16v0zM224 217v64v-64v64v8v0v8v0v20v0l-14 14v0l-27 27v0l38 115v0
h-101v0l-37 -113v0l-10 -28v0l21 -21v0l27 -27v0l-43 -63v0q-11 -17 -13 -36q-16 11 -17 32v56v0v24v0h-48v0v-24v0v-56v0q1 -34 22 -58t54 -29q18 -29 52 -38v109v0v16v0h16h80zM160 185v-96v96v-96h43h85v96v0h-128v0zM512 41q-1 -15 -16 -16q-15 1 -16 16q1 15 16 16
q15 -1 16 -16v0z" />
</svg>
