<?xml version="1.0" standalone="no"?>
<!DOCTYPE svg PUBLIC "-//W3C//DTD SVG 1.1//EN" "http://www.w3.org/Graphics/SVG/1.1/DTD/svg11.dtd" >
<svg xmlns="http://www.w3.org/2000/svg" xmlns:xlink="http://www.w3.org/1999/xlink" version="1.1" viewBox="-10 -40 468 512">
   <path fill="currentColor"
d="M0 -7h448h-448h448v448v0h-448v0v-448v0zM64 57v256v-256v256h320v0v-256v0h-320v0zM128 89q14 0 23 9v0v0q9 9 9 23t-9 23t-23 9t-23 -9t-9 -23t9 -23t23 -9v0zM352 281h-144h144h-256v-32v0l56 -64v0l30 35v0l74 -99v0l96 128v0v32v0z" />
</svg>
