<?xml version="1.0" standalone="no"?>
<!DOCTYPE svg PUBLIC "-//W3C//DTD SVG 1.1//EN" "http://www.w3.org/Graphics/SVG/1.1/DTD/svg11.dtd" >
<svg xmlns="http://www.w3.org/2000/svg" xmlns:xlink="http://www.w3.org/1999/xlink" version="1.1" viewBox="-10 -40 596 512">
   <path fill="currentColor"
d="M576 137q-1 49 -39 89v0v0q-39 40 -104 63v0v0q-65 23 -145 24q-20 0 -39 -2q7 20 7 41q-1 51 -35 86q-35 34 -86 35h-71h-32v-64v0h32h71q24 -1 40 -17t17 -40q-1 -34 -31 -51l-47 -23v0v-1v0q-53 -24 -83 -60q-30 -37 -31 -80q1 -49 39 -89q39 -39 104 -63
q65 -23 145 -24q80 1 145 24q65 24 104 63q38 40 39 89v0zM288 249q95 -1 158 -33v0v0q64 -31 66 -79q-2 -48 -66 -79q-63 -32 -158 -33q-95 1 -158 33q-64 31 -66 79q2 48 66 79q63 32 158 33v0z" />
</svg>
