<?xml version="1.0" standalone="no"?>
<!DOCTYPE svg PUBLIC "-//W3C//DTD SVG 1.1//EN" "http://www.w3.org/Graphics/SVG/1.1/DTD/svg11.dtd" >
<svg xmlns="http://www.w3.org/2000/svg" xmlns:xlink="http://www.w3.org/1999/xlink" version="1.1" viewBox="-10 -40 532 512">
   <path fill="currentColor"
d="M0 153v320v-320v320h512v0v-224v0l-128 -64v0v-32v0q-2 -82 -56 -136t-136 -56q-82 2 -136 56t-56 136v0zM416 313h32h-32h32v96v0h-384v0v-96v0h32v0v48v0v16v0h32v0v-16v0v-48v0h32v0v48v0v16v0h32v0v-16v0v-48v0h32v0v48v0v16v0h32v0v-16v0v-48v0h64v0v48v0v16v0h32v0
v-16v0v-48v0h32v0v48v0v16v0h32v0v-16v0v-48v0z" />
</svg>
