<?xml version="1.0" standalone="no"?>
<!DOCTYPE svg PUBLIC "-//W3C//DTD SVG 1.1//EN" "http://www.w3.org/Graphics/SVG/1.1/DTD/svg11.dtd" >
<svg xmlns="http://www.w3.org/2000/svg" xmlns:xlink="http://www.w3.org/1999/xlink" version="1.1" viewBox="-10 -40 596 512">
   <path fill="currentColor"
d="M576 25h-576h576h-576v384v0h576v0v-384v0zM512 185v160v-160v160h-80v0v-64v0h16v0v-32v0v-64v0h64v0zM400 345h-96h96h-96v-64v0h16v0v-32v0v-64v0h64v0v64v0v32v0h16v0v64v0zM272 345h-96h96h-96v-64v0h16v0v-32v0v-64v0h64v0v64v0v32v0h16v0v64v0zM144 345h-80h80
h-80v-160v0h64v0v64v0v32v0h16v0v64v0z" />
</svg>
