<?xml version="1.0" standalone="no"?>
<!DOCTYPE svg PUBLIC "-//W3C//DTD SVG 1.1//EN" "http://www.w3.org/Graphics/SVG/1.1/DTD/svg11.dtd" >
<svg xmlns="http://www.w3.org/2000/svg" xmlns:xlink="http://www.w3.org/1999/xlink" version="1.1" viewBox="-10 -40 596 512">
   <path fill="currentColor"
d="M320 -7v-32v32v-32h-64v0v32v0v53v0l-5 9v0l-213 354v0l-38 64v0h75h501l-38 -64v0l-100 -166v0l-47 46v0l72 120v0h-350v0l175 -292v0l61 101v0l-42 42v0q-9 -3 -19 -3q-24 1 -40 16q-15 16 -16 40q1 24 16 40q16 15 40 16q24 -1 40 -16q15 -16 16 -40q0 -10 -3 -19
l33 -33v0l47 -47v0l116 -116v0l17 -17v0l-34 -34v0l-17 17v0l-108 108v0l-70 -117v0l-5 -9v0v-53v0z" />
</svg>
