<?xml version="1.0" standalone="no"?>
<!DOCTYPE svg PUBLIC "-//W3C//DTD SVG 1.1//EN" "http://www.w3.org/Graphics/SVG/1.1/DTD/svg11.dtd" >
<svg xmlns="http://www.w3.org/2000/svg" xmlns:xlink="http://www.w3.org/1999/xlink" version="1.1" viewBox="-10 -40 596 512">
   <path fill="currentColor"
d="M0 -7h576h-576h576v448v0h-576v0v-448v0zM384 217q0 -43 -21 -80v0v0q-22 -37 -59 -59q-38 -21 -80 -21t-80 21q-37 22 -59 59q-21 37 -21 80t21 80q22 37 59 59q38 21 80 21t80 -21q37 -22 59 -59q21 -37 21 -80v0zM512 73v-16v16v-16h-32v0v16v0v164v0l-22 45v0l-15 -7
v0l-24 48v0l-14 28v0l57 29v0l15 -29v0l24 -48v0l-15 -7v0l24 -48v0l2 -3v0v-4v0v-168v0zM224 185q14 0 23 9v0v0q9 9 9 23t-9 23t-23 9t-23 -9t-9 -23t9 -23t23 -9v0z" />
</svg>
