<?xml version="1.0" standalone="no"?>
<!DOCTYPE svg PUBLIC "-//W3C//DTD SVG 1.1//EN" "http://www.w3.org/Graphics/SVG/1.1/DTD/svg11.dtd" >
<svg xmlns="http://www.w3.org/2000/svg" xmlns:xlink="http://www.w3.org/1999/xlink" version="1.1" viewBox="-10 -40 468 512">
   <path fill="currentColor"
d="M160 -39l-50 112l50 -112l-50 112q40 15 114 16q74 -1 114 -16l-50 -112v0l-64 32v0l-64 -32v0zM84 98q-48 -21 -55 -35l-28 15v0q7 21 25 45q19 24 47 45q11 8 23 15v1v1q1 54 37 91q37 36 91 37q54 -1 91 -37q36 -37 37 -91v-1v-1q12 -7 23 -15q28 -21 47 -45
q18 -24 25 -45l-28 -15v0q-7 14 -55 35q-47 21 -140 23q-93 -2 -140 -23v0zM400 345h-352h352h-352l-48 128v0h448v0l-48 -128v0z" />
</svg>
