<?xml version="1.0" standalone="no"?>
<!DOCTYPE svg PUBLIC "-//W3C//DTD SVG 1.1//EN" "http://www.w3.org/Graphics/SVG/1.1/DTD/svg11.dtd" >
<svg xmlns="http://www.w3.org/2000/svg" xmlns:xlink="http://www.w3.org/1999/xlink" version="1.1" viewBox="-10 -40 660 512">
   <path fill="currentColor"
d="M0 -39l224 16l-224 -16l224 16v208v0h-160v0l-64 -224v0zM384 -23v208v-208v208h-128v0v-208v0h128v0zM64 217h512h-512h512v64v0h-34v0q33 32 34 80q-1 48 -33 79q-31 32 -79 33q-43 -1 -74 -28q-30 -26 -37 -68h-66v0q-7 42 -37 68q-31 27 -74 28q-48 -1 -79 -33
q-32 -31 -33 -79q1 -48 34 -80h-34v0v-64v0zM160 377h-46h46h-46q10 36 46 46v-46v0zM160 345v-46v46v-46q-36 10 -46 46h46v0zM192 423q36 -10 46 -46h-46v0v46v0zM192 299v46v-46v46h46v0q-10 -36 -46 -46v0zM448 423v-46v46v-46h-46v0q10 36 46 46v0zM402 345h46h-46h46
v-46v0q-36 10 -46 46v0zM526 377h-46h46h-46v46v0q36 -10 46 -46v0zM526 345q-10 -36 -46 -46v46v0h46v0zM416 -23l224 -16l-224 16l224 -16l-64 224v0h-160v0v-208v0z" />
</svg>
