<?xml version="1.0" standalone="no"?>
<!DOCTYPE svg PUBLIC "-//W3C//DTD SVG 1.1//EN" "http://www.w3.org/Graphics/SVG/1.1/DTD/svg11.dtd" >
<svg xmlns="http://www.w3.org/2000/svg" xmlns:xlink="http://www.w3.org/1999/xlink" version="1.1" viewBox="-10 -40 652 512">
   <path fill="currentColor"
d="M429 25h39h-39h39l4 28v0l28 190v0l21 -95v0l5 -27v0h31v0l9 23v0l34 81v0h8h24v48v0h-24h-40l-6 -15v0l-11 -25v0l-31 149v0l-6 27v0h-37v0l-5 -28v0l-25 -170v0l-39 234v0l-5 28v0h-39v0l-4 -29v0l-40 -281v0l-40 281v0l-4 29v0h-39v0l-5 -28v0l-39 -234v0l-25 170v0
l-4 28v0h-38v0l-5 -27v0l-32 -149v0l-11 25v0l-6 15v0h-16h-48v-48v0h24h8l34 -81v0l9 -23v0h31v0l6 27v0l20 95v0l28 -190v0l5 -28v0h38v0l5 28v0l38 231v0l42 -294v0l4 -29v0h40v0l4 29v0l42 294v0l38 -231v0l5 -28v0z" />
</svg>
