<?xml version="1.0" standalone="no"?>
<!DOCTYPE svg PUBLIC "-//W3C//DTD SVG 1.1//EN" "http://www.w3.org/Graphics/SVG/1.1/DTD/svg11.dtd" >
<svg xmlns="http://www.w3.org/2000/svg" xmlns:xlink="http://www.w3.org/1999/xlink" version="1.1" viewBox="-10 -40 468 512">
   <path fill="currentColor"
d="M224 -39q-63 1 -113 31v0v0q-51 29 -80 80v0v0q-30 50 -31 113q2 66 35 119t77 91t77 58t35 20t35 -20t77 -58t77 -91t35 -119q-1 -63 -31 -113q-29 -51 -80 -80q-50 -30 -113 -31v0zM256 265q1 -34 23 -57v0v0q23 -22 57 -23h48v0v16v0q-1 34 -23 57q-23 22 -57 23h-48
v0v-16v0zM112 185q34 1 57 23v0v0q22 23 23 57v16v0h-48v0q-34 -1 -57 -23q-22 -23 -23 -57v-16v0h48v0z" />
</svg>
